M48
; DRILL file {KiCad 6.0.10+dfsg-1~bpo11+1} date Thu Jan 19 00:06:03 2023
; FORMAT={-:-/ absolute / metric / decimal}
; #@! TF.CreationDate,2023-01-19T00:06:03+00:00
; #@! TF.GenerationSoftware,Kicad,Pcbnew,6.0.10+dfsg-1~bpo11+1
; #@! TF.FileFunction,Plated,1,2,PTH
FMAT,2
METRIC
; #@! TA.AperFunction,Plated,PTH,ViaDrill
T1C0.400
; #@! TA.AperFunction,Plated,PTH,ComponentDrill
T2C0.889
; #@! TA.AperFunction,Plated,PTH,ComponentDrill
T3C3.000
%
G90
G05
T1
X131.572Y-84.582
X131.572Y-86.614
X133.096Y-83.058
X134.112Y-83.058
X135.128Y-83.058
X135.382Y-84.582
X136.144Y-89.408
X136.398Y-90.424
X137.414Y-89.662
X137.414Y-90.678
X140.97Y-91.694
T2
X125.73Y-83.82
X125.73Y-86.36
X125.73Y-88.9
X128.27Y-83.82
X128.27Y-86.36
X128.27Y-88.9
X146.05Y-82.55
X146.05Y-85.09
X146.05Y-87.63
X146.05Y-90.17
X148.59Y-82.55
X148.59Y-85.09
X148.59Y-87.63
X148.59Y-90.17
T3
X127.0Y-76.2
X127.0Y-96.52
X147.32Y-76.2
X147.32Y-96.52
T0
M30
