%TF.GenerationSoftware,KiCad,Pcbnew,6.0.11+dfsg-1~bpo11+1*%
%TF.CreationDate,2023-04-13T10:25:38+00:00*%
%TF.ProjectId,FRAM01A,4652414d-3031-4412-9e6b-696361645f70,rev?*%
%TF.SameCoordinates,Original*%
%TF.FileFunction,Copper,L1,Top*%
%TF.FilePolarity,Positive*%
%FSLAX46Y46*%
G04 Gerber Fmt 4.6, Leading zero omitted, Abs format (unit mm)*
G04 Created by KiCad (PCBNEW 6.0.11+dfsg-1~bpo11+1) date 2023-04-13 10:25:38*
%MOMM*%
%LPD*%
G01*
G04 APERTURE LIST*
%TA.AperFunction,ComponentPad*%
%ADD10C,6.000000*%
%TD*%
%TA.AperFunction,ComponentPad*%
%ADD11R,1.524000X1.524000*%
%TD*%
%TA.AperFunction,ViaPad*%
%ADD12C,0.800000*%
%TD*%
%TA.AperFunction,Conductor*%
%ADD13C,0.400000*%
%TD*%
G04 APERTURE END LIST*
D10*
%TO.P,M4,1*%
%TO.N,GND*%
X147320000Y-96520000D03*
%TD*%
D11*
%TO.P,J1,1*%
%TO.N,GND*%
X125730000Y-83820000D03*
%TO.P,J1,2*%
X128270000Y-83820000D03*
%TO.P,J1,3*%
%TO.N,+3.3V*%
X125730000Y-86360000D03*
%TO.P,J1,4*%
X128270000Y-86360000D03*
%TO.P,J1,5*%
%TO.N,GND*%
X125730000Y-88900000D03*
%TO.P,J1,6*%
X128270000Y-88900000D03*
%TD*%
D10*
%TO.P,M1,1*%
%TO.N,GND*%
X127000000Y-76200000D03*
%TD*%
%TO.P,M3,1*%
%TO.N,GND*%
X147320000Y-76200000D03*
%TD*%
D11*
%TO.P,J2,1*%
%TO.N,MISO*%
X146050000Y-82550000D03*
%TO.P,J2,2*%
%TO.N,+3.3V*%
X148590000Y-82550000D03*
%TO.P,J2,3*%
%TO.N,SCK*%
X146050000Y-85090000D03*
%TO.P,J2,4*%
%TO.N,MOSI*%
X148590000Y-85090000D03*
%TO.P,J2,5*%
%TO.N,~{CS}*%
X146050000Y-87630000D03*
%TO.P,J2,6*%
%TO.N,GND*%
X148590000Y-87630000D03*
%TO.P,J2,7*%
%TO.N,~{WP}*%
X146050000Y-90170000D03*
%TO.P,J2,8*%
%TO.N,GND*%
X148590000Y-90170000D03*
%TD*%
D10*
%TO.P,M2,1*%
%TO.N,GND*%
X127000000Y-96520000D03*
%TD*%
D12*
%TO.N,GND*%
X134112000Y-83058000D03*
X141478000Y-76708000D03*
X137414000Y-89916000D03*
X141478000Y-77978000D03*
X131572000Y-84582000D03*
X135128000Y-83058000D03*
X135382000Y-84582000D03*
X137414000Y-93726000D03*
X141478000Y-79248000D03*
X133096000Y-83058000D03*
X137414000Y-92456000D03*
X137414000Y-91186000D03*
%TO.N,~{CS}*%
X135890000Y-88900000D03*
X144018000Y-91440000D03*
%TO.N,~{WP}*%
X131572000Y-86614000D03*
%TD*%
D13*
%TO.N,~{CS}*%
X144018000Y-91440000D02*
X142494000Y-91440000D01*
X142494000Y-91440000D02*
X139954000Y-88900000D01*
X139954000Y-88900000D02*
X135890000Y-88900000D01*
%TO.N,~{WP}*%
X143002000Y-90170000D02*
X146050000Y-90170000D01*
X131572000Y-86614000D02*
X132588000Y-87630000D01*
X132588000Y-87630000D02*
X140462000Y-87630000D01*
X140462000Y-87630000D02*
X143002000Y-90170000D01*
%TD*%
%TA.AperFunction,Conductor*%
%TO.N,GND*%
G36*
X151579621Y-71902502D02*
G01*
X151626114Y-71956158D01*
X151637500Y-72008500D01*
X151637500Y-100711500D01*
X151617498Y-100779621D01*
X151563842Y-100826114D01*
X151511500Y-100837500D01*
X122808500Y-100837500D01*
X122740379Y-100817498D01*
X122693886Y-100763842D01*
X122682500Y-100711500D01*
X122682500Y-89706669D01*
X124460001Y-89706669D01*
X124460371Y-89713490D01*
X124465895Y-89764352D01*
X124469521Y-89779604D01*
X124514676Y-89900054D01*
X124523214Y-89915649D01*
X124599715Y-90017724D01*
X124612276Y-90030285D01*
X124714351Y-90106786D01*
X124729946Y-90115324D01*
X124850394Y-90160478D01*
X124865649Y-90164105D01*
X124916514Y-90169631D01*
X124923328Y-90170000D01*
X125457885Y-90170000D01*
X125473124Y-90165525D01*
X125474329Y-90164135D01*
X125476000Y-90156452D01*
X125476000Y-90151884D01*
X125984000Y-90151884D01*
X125988475Y-90167123D01*
X125989865Y-90168328D01*
X125997548Y-90169999D01*
X126536669Y-90169999D01*
X126543490Y-90169629D01*
X126594352Y-90164105D01*
X126609604Y-90160479D01*
X126730054Y-90115324D01*
X126745649Y-90106786D01*
X126847724Y-90030285D01*
X126860284Y-90017725D01*
X126899173Y-89965835D01*
X126956032Y-89923319D01*
X127026851Y-89918293D01*
X127089144Y-89952353D01*
X127100827Y-89965835D01*
X127139716Y-90017725D01*
X127152276Y-90030285D01*
X127254351Y-90106786D01*
X127269946Y-90115324D01*
X127390394Y-90160478D01*
X127405649Y-90164105D01*
X127456514Y-90169631D01*
X127463328Y-90170000D01*
X127997885Y-90170000D01*
X128013124Y-90165525D01*
X128014329Y-90164135D01*
X128016000Y-90156452D01*
X128016000Y-90151884D01*
X128524000Y-90151884D01*
X128528475Y-90167123D01*
X128529865Y-90168328D01*
X128537548Y-90169999D01*
X129076669Y-90169999D01*
X129083490Y-90169629D01*
X129134352Y-90164105D01*
X129149604Y-90160479D01*
X129270054Y-90115324D01*
X129285649Y-90106786D01*
X129387724Y-90030285D01*
X129400285Y-90017724D01*
X129476786Y-89915649D01*
X129485324Y-89900054D01*
X129530478Y-89779606D01*
X129534105Y-89764351D01*
X129539631Y-89713486D01*
X129540000Y-89706672D01*
X129540000Y-89172115D01*
X129535525Y-89156876D01*
X129534135Y-89155671D01*
X129526452Y-89154000D01*
X128542115Y-89154000D01*
X128526876Y-89158475D01*
X128525671Y-89159865D01*
X128524000Y-89167548D01*
X128524000Y-90151884D01*
X128016000Y-90151884D01*
X128016000Y-89172115D01*
X128011525Y-89156876D01*
X128010135Y-89155671D01*
X128002452Y-89154000D01*
X126002115Y-89154000D01*
X125986876Y-89158475D01*
X125985671Y-89159865D01*
X125984000Y-89167548D01*
X125984000Y-90151884D01*
X125476000Y-90151884D01*
X125476000Y-89172115D01*
X125471525Y-89156876D01*
X125470135Y-89155671D01*
X125462452Y-89154000D01*
X124478116Y-89154000D01*
X124462877Y-89158475D01*
X124461672Y-89159865D01*
X124460001Y-89167548D01*
X124460001Y-89706669D01*
X122682500Y-89706669D01*
X122682500Y-87170134D01*
X124459500Y-87170134D01*
X124466255Y-87232316D01*
X124517385Y-87368705D01*
X124604739Y-87485261D01*
X124663749Y-87529487D01*
X124706264Y-87586344D01*
X124711290Y-87657163D01*
X124677230Y-87719456D01*
X124663749Y-87731138D01*
X124612276Y-87769715D01*
X124599715Y-87782276D01*
X124523214Y-87884351D01*
X124514676Y-87899946D01*
X124469522Y-88020394D01*
X124465895Y-88035649D01*
X124460369Y-88086514D01*
X124460000Y-88093328D01*
X124460000Y-88627885D01*
X124464475Y-88643124D01*
X124465865Y-88644329D01*
X124473548Y-88646000D01*
X129521884Y-88646000D01*
X129537123Y-88641525D01*
X129538328Y-88640135D01*
X129539999Y-88632452D01*
X129539999Y-88093331D01*
X129539629Y-88086510D01*
X129534105Y-88035648D01*
X129530479Y-88020396D01*
X129485324Y-87899946D01*
X129476786Y-87884351D01*
X129400285Y-87782276D01*
X129387724Y-87769715D01*
X129336251Y-87731138D01*
X129293736Y-87674279D01*
X129288710Y-87603460D01*
X129322770Y-87541167D01*
X129336245Y-87529491D01*
X129395261Y-87485261D01*
X129482615Y-87368705D01*
X129533745Y-87232316D01*
X129540500Y-87170134D01*
X129540500Y-86614000D01*
X130658496Y-86614000D01*
X130659186Y-86620565D01*
X130674435Y-86765648D01*
X130678458Y-86803928D01*
X130737473Y-86985556D01*
X130740776Y-86991278D01*
X130740777Y-86991279D01*
X130752627Y-87011803D01*
X130832960Y-87150944D01*
X130837378Y-87155851D01*
X130837379Y-87155852D01*
X130912890Y-87239715D01*
X130960747Y-87292866D01*
X131053557Y-87360297D01*
X131079475Y-87379127D01*
X131115248Y-87405118D01*
X131121276Y-87407802D01*
X131121278Y-87407803D01*
X131279126Y-87478081D01*
X131289712Y-87482794D01*
X131380069Y-87502000D01*
X131442569Y-87515285D01*
X131505467Y-87549437D01*
X132066550Y-88110520D01*
X132072404Y-88116785D01*
X132110439Y-88160385D01*
X132116653Y-88164752D01*
X132162719Y-88197128D01*
X132168014Y-88201061D01*
X132218282Y-88240476D01*
X132225198Y-88243599D01*
X132227484Y-88244983D01*
X132242165Y-88253357D01*
X132244525Y-88254622D01*
X132250739Y-88258990D01*
X132257818Y-88261750D01*
X132257820Y-88261751D01*
X132310275Y-88282202D01*
X132316344Y-88284753D01*
X132374573Y-88311045D01*
X132382040Y-88312429D01*
X132384595Y-88313230D01*
X132400848Y-88317859D01*
X132403428Y-88318522D01*
X132410509Y-88321282D01*
X132418040Y-88322273D01*
X132418042Y-88322274D01*
X132447661Y-88326173D01*
X132473861Y-88329622D01*
X132480359Y-88330652D01*
X132543186Y-88342296D01*
X132550766Y-88341859D01*
X132550767Y-88341859D01*
X132605392Y-88338709D01*
X132612646Y-88338500D01*
X134946899Y-88338500D01*
X135015020Y-88358502D01*
X135061513Y-88412158D01*
X135071617Y-88482432D01*
X135059986Y-88516036D01*
X135061461Y-88516693D01*
X135058777Y-88522721D01*
X135055473Y-88528444D01*
X134996458Y-88710072D01*
X134995768Y-88716633D01*
X134995768Y-88716635D01*
X134991143Y-88760642D01*
X134976496Y-88900000D01*
X134977186Y-88906565D01*
X134992501Y-89052276D01*
X134996458Y-89089928D01*
X135055473Y-89271556D01*
X135150960Y-89436944D01*
X135278747Y-89578866D01*
X135433248Y-89691118D01*
X135439276Y-89693802D01*
X135439278Y-89693803D01*
X135597735Y-89764352D01*
X135607712Y-89768794D01*
X135701112Y-89788647D01*
X135788056Y-89807128D01*
X135788061Y-89807128D01*
X135794513Y-89808500D01*
X135985487Y-89808500D01*
X135991939Y-89807128D01*
X135991944Y-89807128D01*
X136078887Y-89788647D01*
X136172288Y-89768794D01*
X136182265Y-89764352D01*
X136340722Y-89693803D01*
X136340724Y-89693802D01*
X136346752Y-89691118D01*
X136427344Y-89632564D01*
X136494211Y-89608706D01*
X136501405Y-89608500D01*
X139608340Y-89608500D01*
X139676461Y-89628502D01*
X139697435Y-89645405D01*
X141972557Y-91920528D01*
X141978411Y-91926793D01*
X142016439Y-91970385D01*
X142068729Y-92007136D01*
X142073971Y-92011028D01*
X142124282Y-92050476D01*
X142131201Y-92053600D01*
X142133493Y-92054988D01*
X142148165Y-92063357D01*
X142150525Y-92064622D01*
X142156739Y-92068990D01*
X142163818Y-92071750D01*
X142163820Y-92071751D01*
X142216275Y-92092202D01*
X142222344Y-92094753D01*
X142280573Y-92121045D01*
X142288046Y-92122430D01*
X142290612Y-92123234D01*
X142306835Y-92127855D01*
X142309427Y-92128520D01*
X142316509Y-92131282D01*
X142324044Y-92132274D01*
X142379861Y-92139622D01*
X142386377Y-92140654D01*
X142424770Y-92147770D01*
X142449186Y-92152295D01*
X142456766Y-92151858D01*
X142456767Y-92151858D01*
X142511380Y-92148709D01*
X142518633Y-92148500D01*
X143406595Y-92148500D01*
X143474716Y-92168502D01*
X143480656Y-92172564D01*
X143561248Y-92231118D01*
X143567276Y-92233802D01*
X143567278Y-92233803D01*
X143729681Y-92306109D01*
X143735712Y-92308794D01*
X143829112Y-92328647D01*
X143916056Y-92347128D01*
X143916061Y-92347128D01*
X143922513Y-92348500D01*
X144113487Y-92348500D01*
X144119939Y-92347128D01*
X144119944Y-92347128D01*
X144206888Y-92328647D01*
X144300288Y-92308794D01*
X144306319Y-92306109D01*
X144468722Y-92233803D01*
X144468724Y-92233802D01*
X144474752Y-92231118D01*
X144629253Y-92118866D01*
X144653261Y-92092202D01*
X144752621Y-91981852D01*
X144752622Y-91981851D01*
X144757040Y-91976944D01*
X144852527Y-91811556D01*
X144911542Y-91629928D01*
X144924443Y-91507178D01*
X144951456Y-91441522D01*
X145009677Y-91400892D01*
X145080623Y-91398189D01*
X145093982Y-91402367D01*
X145170282Y-91430971D01*
X145170288Y-91430973D01*
X145177684Y-91433745D01*
X145239866Y-91440500D01*
X146860134Y-91440500D01*
X146922316Y-91433745D01*
X147058705Y-91382615D01*
X147175261Y-91295261D01*
X147219487Y-91236251D01*
X147276344Y-91193736D01*
X147347163Y-91188710D01*
X147409456Y-91222770D01*
X147421138Y-91236251D01*
X147459715Y-91287724D01*
X147472276Y-91300285D01*
X147574351Y-91376786D01*
X147589946Y-91385324D01*
X147710394Y-91430478D01*
X147725649Y-91434105D01*
X147776514Y-91439631D01*
X147783328Y-91440000D01*
X148317885Y-91440000D01*
X148333124Y-91435525D01*
X148334329Y-91434135D01*
X148336000Y-91426452D01*
X148336000Y-91421884D01*
X148844000Y-91421884D01*
X148848475Y-91437123D01*
X148849865Y-91438328D01*
X148857548Y-91439999D01*
X149396669Y-91439999D01*
X149403490Y-91439629D01*
X149454352Y-91434105D01*
X149469604Y-91430479D01*
X149590054Y-91385324D01*
X149605649Y-91376786D01*
X149707724Y-91300285D01*
X149720285Y-91287724D01*
X149796786Y-91185649D01*
X149805324Y-91170054D01*
X149850478Y-91049606D01*
X149854105Y-91034351D01*
X149859631Y-90983486D01*
X149860000Y-90976672D01*
X149860000Y-90442115D01*
X149855525Y-90426876D01*
X149854135Y-90425671D01*
X149846452Y-90424000D01*
X148862115Y-90424000D01*
X148846876Y-90428475D01*
X148845671Y-90429865D01*
X148844000Y-90437548D01*
X148844000Y-91421884D01*
X148336000Y-91421884D01*
X148336000Y-89897885D01*
X148844000Y-89897885D01*
X148848475Y-89913124D01*
X148849865Y-89914329D01*
X148857548Y-89916000D01*
X149841884Y-89916000D01*
X149857123Y-89911525D01*
X149858328Y-89910135D01*
X149859999Y-89902452D01*
X149859999Y-89363331D01*
X149859629Y-89356510D01*
X149854105Y-89305648D01*
X149850479Y-89290396D01*
X149805324Y-89169946D01*
X149796786Y-89154351D01*
X149720285Y-89052276D01*
X149707725Y-89039716D01*
X149655835Y-89000827D01*
X149613319Y-88943968D01*
X149608293Y-88873149D01*
X149642353Y-88810856D01*
X149655835Y-88799173D01*
X149707725Y-88760284D01*
X149720285Y-88747724D01*
X149796786Y-88645649D01*
X149805324Y-88630054D01*
X149850478Y-88509606D01*
X149854105Y-88494351D01*
X149859631Y-88443486D01*
X149860000Y-88436672D01*
X149860000Y-87902115D01*
X149855525Y-87886876D01*
X149854135Y-87885671D01*
X149846452Y-87884000D01*
X148862115Y-87884000D01*
X148846876Y-87888475D01*
X148845671Y-87889865D01*
X148844000Y-87897548D01*
X148844000Y-89897885D01*
X148336000Y-89897885D01*
X148336000Y-87502000D01*
X148356002Y-87433879D01*
X148409658Y-87387386D01*
X148462000Y-87376000D01*
X149841884Y-87376000D01*
X149857123Y-87371525D01*
X149858328Y-87370135D01*
X149859999Y-87362452D01*
X149859999Y-86823331D01*
X149859629Y-86816510D01*
X149854105Y-86765648D01*
X149850479Y-86750396D01*
X149805324Y-86629946D01*
X149796786Y-86614351D01*
X149720285Y-86512276D01*
X149707724Y-86499715D01*
X149656251Y-86461138D01*
X149613736Y-86404279D01*
X149608710Y-86333460D01*
X149642770Y-86271167D01*
X149656245Y-86259491D01*
X149715261Y-86215261D01*
X149802615Y-86098705D01*
X149853745Y-85962316D01*
X149860500Y-85900134D01*
X149860500Y-84279866D01*
X149853745Y-84217684D01*
X149802615Y-84081295D01*
X149715261Y-83964739D01*
X149656668Y-83920826D01*
X149614153Y-83863967D01*
X149609127Y-83793148D01*
X149643187Y-83730855D01*
X149656668Y-83719174D01*
X149708081Y-83680642D01*
X149715261Y-83675261D01*
X149802615Y-83558705D01*
X149853745Y-83422316D01*
X149860500Y-83360134D01*
X149860500Y-81739866D01*
X149853745Y-81677684D01*
X149802615Y-81541295D01*
X149715261Y-81424739D01*
X149598705Y-81337385D01*
X149462316Y-81286255D01*
X149400134Y-81279500D01*
X147779866Y-81279500D01*
X147717684Y-81286255D01*
X147581295Y-81337385D01*
X147464739Y-81424739D01*
X147459358Y-81431919D01*
X147420826Y-81483332D01*
X147363967Y-81525847D01*
X147293148Y-81530873D01*
X147230855Y-81496813D01*
X147219174Y-81483332D01*
X147180642Y-81431919D01*
X147175261Y-81424739D01*
X147058705Y-81337385D01*
X146922316Y-81286255D01*
X146860134Y-81279500D01*
X145239866Y-81279500D01*
X145177684Y-81286255D01*
X145041295Y-81337385D01*
X144924739Y-81424739D01*
X144837385Y-81541295D01*
X144786255Y-81677684D01*
X144779500Y-81739866D01*
X144779500Y-83360134D01*
X144786255Y-83422316D01*
X144837385Y-83558705D01*
X144924739Y-83675261D01*
X144931919Y-83680642D01*
X144983332Y-83719174D01*
X145025847Y-83776033D01*
X145030873Y-83846852D01*
X144996813Y-83909145D01*
X144983333Y-83920825D01*
X144924739Y-83964739D01*
X144837385Y-84081295D01*
X144786255Y-84217684D01*
X144779500Y-84279866D01*
X144779500Y-85900134D01*
X144786255Y-85962316D01*
X144837385Y-86098705D01*
X144924739Y-86215261D01*
X144931918Y-86220641D01*
X144931919Y-86220642D01*
X144983332Y-86259174D01*
X145025847Y-86316033D01*
X145030873Y-86386852D01*
X144996813Y-86449145D01*
X144983333Y-86460825D01*
X144924739Y-86504739D01*
X144837385Y-86621295D01*
X144786255Y-86757684D01*
X144779500Y-86819866D01*
X144779500Y-88440134D01*
X144786255Y-88502316D01*
X144837385Y-88638705D01*
X144924739Y-88755261D01*
X144931919Y-88760642D01*
X144983332Y-88799174D01*
X145025847Y-88856033D01*
X145030873Y-88926852D01*
X144996813Y-88989145D01*
X144983333Y-89000825D01*
X144924739Y-89044739D01*
X144837385Y-89161295D01*
X144786255Y-89297684D01*
X144785402Y-89305536D01*
X144785401Y-89305540D01*
X144780669Y-89349107D01*
X144753428Y-89414669D01*
X144695065Y-89455096D01*
X144655406Y-89461500D01*
X143347660Y-89461500D01*
X143279539Y-89441498D01*
X143258565Y-89424595D01*
X140983450Y-87149480D01*
X140977596Y-87143215D01*
X140977201Y-87142762D01*
X140939561Y-87099615D01*
X140887280Y-87062871D01*
X140881986Y-87058939D01*
X140837693Y-87024209D01*
X140831718Y-87019524D01*
X140824802Y-87016401D01*
X140822516Y-87015017D01*
X140807835Y-87006643D01*
X140805475Y-87005378D01*
X140799261Y-87001010D01*
X140792182Y-86998250D01*
X140792180Y-86998249D01*
X140739725Y-86977798D01*
X140733656Y-86975247D01*
X140675427Y-86948955D01*
X140667960Y-86947571D01*
X140665405Y-86946770D01*
X140649152Y-86942141D01*
X140646572Y-86941478D01*
X140639491Y-86938718D01*
X140631960Y-86937727D01*
X140631958Y-86937726D01*
X140602339Y-86933827D01*
X140576139Y-86930378D01*
X140569641Y-86929348D01*
X140506814Y-86917704D01*
X140499234Y-86918141D01*
X140499233Y-86918141D01*
X140444608Y-86921291D01*
X140437354Y-86921500D01*
X132933660Y-86921500D01*
X132865539Y-86901498D01*
X132844565Y-86884595D01*
X132506665Y-86546695D01*
X132472639Y-86484383D01*
X132470450Y-86470770D01*
X132466232Y-86430637D01*
X132466232Y-86430635D01*
X132465542Y-86424072D01*
X132459010Y-86403967D01*
X132408569Y-86248729D01*
X132406527Y-86242444D01*
X132386688Y-86208081D01*
X132323539Y-86098705D01*
X132311040Y-86077056D01*
X132183253Y-85935134D01*
X132028752Y-85822882D01*
X132022724Y-85820198D01*
X132022722Y-85820197D01*
X131860319Y-85747891D01*
X131860318Y-85747891D01*
X131854288Y-85745206D01*
X131760888Y-85725353D01*
X131673944Y-85706872D01*
X131673939Y-85706872D01*
X131667487Y-85705500D01*
X131476513Y-85705500D01*
X131470061Y-85706872D01*
X131470056Y-85706872D01*
X131383112Y-85725353D01*
X131289712Y-85745206D01*
X131283682Y-85747891D01*
X131283681Y-85747891D01*
X131121278Y-85820197D01*
X131121276Y-85820198D01*
X131115248Y-85822882D01*
X130960747Y-85935134D01*
X130832960Y-86077056D01*
X130820461Y-86098705D01*
X130757313Y-86208081D01*
X130737473Y-86242444D01*
X130678458Y-86424072D01*
X130677768Y-86430633D01*
X130677768Y-86430635D01*
X130662361Y-86577230D01*
X130658496Y-86614000D01*
X129540500Y-86614000D01*
X129540500Y-85549866D01*
X129533745Y-85487684D01*
X129482615Y-85351295D01*
X129395261Y-85234739D01*
X129336251Y-85190513D01*
X129293736Y-85133656D01*
X129288710Y-85062837D01*
X129322770Y-85000544D01*
X129336251Y-84988862D01*
X129387724Y-84950285D01*
X129400285Y-84937724D01*
X129476786Y-84835649D01*
X129485324Y-84820054D01*
X129530478Y-84699606D01*
X129534105Y-84684351D01*
X129539631Y-84633486D01*
X129540000Y-84626672D01*
X129540000Y-84092115D01*
X129535525Y-84076876D01*
X129534135Y-84075671D01*
X129526452Y-84074000D01*
X124478116Y-84074000D01*
X124462877Y-84078475D01*
X124461672Y-84079865D01*
X124460001Y-84087548D01*
X124460001Y-84626669D01*
X124460371Y-84633490D01*
X124465895Y-84684352D01*
X124469521Y-84699604D01*
X124514676Y-84820054D01*
X124523214Y-84835649D01*
X124599715Y-84937724D01*
X124612276Y-84950285D01*
X124663749Y-84988862D01*
X124706264Y-85045721D01*
X124711290Y-85116540D01*
X124677230Y-85178833D01*
X124663755Y-85190509D01*
X124604739Y-85234739D01*
X124517385Y-85351295D01*
X124466255Y-85487684D01*
X124459500Y-85549866D01*
X124459500Y-87170134D01*
X122682500Y-87170134D01*
X122682500Y-83547885D01*
X124460000Y-83547885D01*
X124464475Y-83563124D01*
X124465865Y-83564329D01*
X124473548Y-83566000D01*
X125457885Y-83566000D01*
X125473124Y-83561525D01*
X125474329Y-83560135D01*
X125476000Y-83552452D01*
X125476000Y-83547885D01*
X125984000Y-83547885D01*
X125988475Y-83563124D01*
X125989865Y-83564329D01*
X125997548Y-83566000D01*
X127997885Y-83566000D01*
X128013124Y-83561525D01*
X128014329Y-83560135D01*
X128016000Y-83552452D01*
X128016000Y-83547885D01*
X128524000Y-83547885D01*
X128528475Y-83563124D01*
X128529865Y-83564329D01*
X128537548Y-83566000D01*
X129521884Y-83566000D01*
X129537123Y-83561525D01*
X129538328Y-83560135D01*
X129539999Y-83552452D01*
X129539999Y-83013331D01*
X129539629Y-83006510D01*
X129534105Y-82955648D01*
X129530479Y-82940396D01*
X129485324Y-82819946D01*
X129476786Y-82804351D01*
X129400285Y-82702276D01*
X129387724Y-82689715D01*
X129285649Y-82613214D01*
X129270054Y-82604676D01*
X129149606Y-82559522D01*
X129134351Y-82555895D01*
X129083486Y-82550369D01*
X129076672Y-82550000D01*
X128542115Y-82550000D01*
X128526876Y-82554475D01*
X128525671Y-82555865D01*
X128524000Y-82563548D01*
X128524000Y-83547885D01*
X128016000Y-83547885D01*
X128016000Y-82568116D01*
X128011525Y-82552877D01*
X128010135Y-82551672D01*
X128002452Y-82550001D01*
X127463331Y-82550001D01*
X127456510Y-82550371D01*
X127405648Y-82555895D01*
X127390396Y-82559521D01*
X127269946Y-82604676D01*
X127254351Y-82613214D01*
X127152276Y-82689715D01*
X127139716Y-82702275D01*
X127100827Y-82754165D01*
X127043968Y-82796681D01*
X126973149Y-82801707D01*
X126910856Y-82767647D01*
X126899173Y-82754165D01*
X126860284Y-82702275D01*
X126847724Y-82689715D01*
X126745649Y-82613214D01*
X126730054Y-82604676D01*
X126609606Y-82559522D01*
X126594351Y-82555895D01*
X126543486Y-82550369D01*
X126536672Y-82550000D01*
X126002115Y-82550000D01*
X125986876Y-82554475D01*
X125985671Y-82555865D01*
X125984000Y-82563548D01*
X125984000Y-83547885D01*
X125476000Y-83547885D01*
X125476000Y-82568116D01*
X125471525Y-82552877D01*
X125470135Y-82551672D01*
X125462452Y-82550001D01*
X124923331Y-82550001D01*
X124916510Y-82550371D01*
X124865648Y-82555895D01*
X124850396Y-82559521D01*
X124729946Y-82604676D01*
X124714351Y-82613214D01*
X124612276Y-82689715D01*
X124599715Y-82702276D01*
X124523214Y-82804351D01*
X124514676Y-82819946D01*
X124469522Y-82940394D01*
X124465895Y-82955649D01*
X124460369Y-83006514D01*
X124460000Y-83013328D01*
X124460000Y-83547885D01*
X122682500Y-83547885D01*
X122682500Y-72008500D01*
X122702502Y-71940379D01*
X122756158Y-71893886D01*
X122808500Y-71882500D01*
X151511500Y-71882500D01*
X151579621Y-71902502D01*
G37*
%TD.AperFunction*%
%TD*%
M02*
