%TF.GenerationSoftware,KiCad,Pcbnew,6.0.11+dfsg-1~bpo11+1*%
%TF.CreationDate,2023-04-13T10:25:38+00:00*%
%TF.ProjectId,FRAM01A,4652414d-3031-4412-9e6b-696361645f70,rev?*%
%TF.SameCoordinates,Original*%
%TF.FileFunction,Copper,L2,Bot*%
%TF.FilePolarity,Positive*%
%FSLAX46Y46*%
G04 Gerber Fmt 4.6, Leading zero omitted, Abs format (unit mm)*
G04 Created by KiCad (PCBNEW 6.0.11+dfsg-1~bpo11+1) date 2023-04-13 10:25:38*
%MOMM*%
%LPD*%
G01*
G04 APERTURE LIST*
G04 Aperture macros list*
%AMRoundRect*
0 Rectangle with rounded corners*
0 $1 Rounding radius*
0 $2 $3 $4 $5 $6 $7 $8 $9 X,Y pos of 4 corners*
0 Add a 4 corners polygon primitive as box body*
4,1,4,$2,$3,$4,$5,$6,$7,$8,$9,$2,$3,0*
0 Add four circle primitives for the rounded corners*
1,1,$1+$1,$2,$3*
1,1,$1+$1,$4,$5*
1,1,$1+$1,$6,$7*
1,1,$1+$1,$8,$9*
0 Add four rect primitives between the rounded corners*
20,1,$1+$1,$2,$3,$4,$5,0*
20,1,$1+$1,$4,$5,$6,$7,0*
20,1,$1+$1,$6,$7,$8,$9,0*
20,1,$1+$1,$8,$9,$2,$3,0*%
G04 Aperture macros list end*
%TA.AperFunction,ComponentPad*%
%ADD10C,6.000000*%
%TD*%
%TA.AperFunction,ComponentPad*%
%ADD11R,1.524000X1.524000*%
%TD*%
%TA.AperFunction,SMDPad,CuDef*%
%ADD12R,1.650000X0.650000*%
%TD*%
%TA.AperFunction,SMDPad,CuDef*%
%ADD13R,2.500000X1.800000*%
%TD*%
%TA.AperFunction,SMDPad,CuDef*%
%ADD14RoundRect,0.250000X0.250000X0.475000X-0.250000X0.475000X-0.250000X-0.475000X0.250000X-0.475000X0*%
%TD*%
%TA.AperFunction,ViaPad*%
%ADD15C,0.800000*%
%TD*%
%TA.AperFunction,Conductor*%
%ADD16C,0.400000*%
%TD*%
%TA.AperFunction,Conductor*%
%ADD17C,0.250000*%
%TD*%
%TA.AperFunction,Conductor*%
%ADD18C,0.508000*%
%TD*%
G04 APERTURE END LIST*
D10*
%TO.P,M4,1*%
%TO.N,GND*%
X147320000Y-96520000D03*
%TD*%
D11*
%TO.P,J1,1*%
%TO.N,GND*%
X125730000Y-83820000D03*
%TO.P,J1,2*%
X128270000Y-83820000D03*
%TO.P,J1,3*%
%TO.N,+3.3V*%
X125730000Y-86360000D03*
%TO.P,J1,4*%
X128270000Y-86360000D03*
%TO.P,J1,5*%
%TO.N,GND*%
X125730000Y-88900000D03*
%TO.P,J1,6*%
X128270000Y-88900000D03*
%TD*%
D10*
%TO.P,M1,1*%
%TO.N,GND*%
X127000000Y-76200000D03*
%TD*%
%TO.P,M3,1*%
%TO.N,GND*%
X147320000Y-76200000D03*
%TD*%
D11*
%TO.P,J2,1*%
%TO.N,MISO*%
X146050000Y-82550000D03*
%TO.P,J2,2*%
%TO.N,+3.3V*%
X148590000Y-82550000D03*
%TO.P,J2,3*%
%TO.N,SCK*%
X146050000Y-85090000D03*
%TO.P,J2,4*%
%TO.N,MOSI*%
X148590000Y-85090000D03*
%TO.P,J2,5*%
%TO.N,~{CS}*%
X146050000Y-87630000D03*
%TO.P,J2,6*%
%TO.N,GND*%
X148590000Y-87630000D03*
%TO.P,J2,7*%
%TO.N,~{WP}*%
X146050000Y-90170000D03*
%TO.P,J2,8*%
%TO.N,GND*%
X148590000Y-90170000D03*
%TD*%
D10*
%TO.P,M2,1*%
%TO.N,GND*%
X127000000Y-96520000D03*
%TD*%
D12*
%TO.P,IC1,1,~{CS}*%
%TO.N,~{CS}*%
X133485000Y-88265000D03*
%TO.P,IC1,2,SO*%
%TO.N,MISO*%
X133485000Y-86995000D03*
%TO.P,IC1,3,~{WP}*%
%TO.N,~{WP}*%
X133485000Y-85725000D03*
%TO.P,IC1,4,VSS*%
%TO.N,GND*%
X133485000Y-84455000D03*
%TO.P,IC1,5,SI*%
%TO.N,MOSI*%
X140835000Y-84455000D03*
%TO.P,IC1,6,SCK*%
%TO.N,SCK*%
X140835000Y-85725000D03*
%TO.P,IC1,7,DNU*%
%TO.N,unconnected-(IC1-Pad7)*%
X140835000Y-86995000D03*
%TO.P,IC1,8,VDD*%
%TO.N,+3.3V*%
X140835000Y-88265000D03*
%TD*%
D13*
%TO.P,D1,1,K*%
%TO.N,+3.3V*%
X135160000Y-77978000D03*
%TO.P,D1,2,A*%
%TO.N,GND*%
X139160000Y-77978000D03*
%TD*%
D14*
%TO.P,C1,1*%
%TO.N,+3.3V*%
X140650000Y-92964000D03*
%TO.P,C1,2*%
%TO.N,GND*%
X138750000Y-92964000D03*
%TD*%
%TO.P,C2,1*%
%TO.N,+3.3V*%
X140716000Y-90678000D03*
%TO.P,C2,2*%
%TO.N,GND*%
X138816000Y-90678000D03*
%TD*%
D15*
%TO.N,GND*%
X134112000Y-83058000D03*
X141478000Y-76708000D03*
X137414000Y-89916000D03*
X141478000Y-77978000D03*
X131572000Y-84582000D03*
X135128000Y-83058000D03*
X135382000Y-84582000D03*
X137414000Y-93726000D03*
X141478000Y-79248000D03*
X133096000Y-83058000D03*
X137414000Y-92456000D03*
X137414000Y-91186000D03*
%TO.N,~{CS}*%
X135890000Y-88900000D03*
X144018000Y-91440000D03*
%TO.N,~{WP}*%
X131572000Y-86614000D03*
%TD*%
D16*
%TO.N,~{CS}*%
X144526000Y-87630000D02*
X146050000Y-87630000D01*
X135255000Y-88265000D02*
X135890000Y-88900000D01*
X133485000Y-88265000D02*
X135255000Y-88265000D01*
X144018000Y-91440000D02*
X144018000Y-88138000D01*
X144018000Y-88138000D02*
X144526000Y-87630000D01*
%TO.N,MISO*%
X133485000Y-86995000D02*
X134747000Y-86995000D01*
X139192000Y-82550000D02*
X146050000Y-82550000D01*
X134747000Y-86995000D02*
X139192000Y-82550000D01*
D17*
%TO.N,~{WP}*%
X131572000Y-86360000D02*
X131572000Y-86614000D01*
D16*
X132207000Y-85725000D02*
X131572000Y-86360000D01*
X133485000Y-85725000D02*
X132207000Y-85725000D01*
%TO.N,MOSI*%
X140835000Y-84455000D02*
X142367000Y-84455000D01*
X143002000Y-83820000D02*
X147320000Y-83820000D01*
X147320000Y-83820000D02*
X148590000Y-85090000D01*
X142367000Y-84455000D02*
X143002000Y-83820000D01*
%TO.N,SCK*%
X140835000Y-85725000D02*
X143891000Y-85725000D01*
X143891000Y-85725000D02*
X144526000Y-85090000D01*
X144526000Y-85090000D02*
X146050000Y-85090000D01*
D18*
%TO.N,+3.3V*%
X132080000Y-90170000D02*
X132080000Y-93218000D01*
X131064000Y-83566000D02*
X131064000Y-80010000D01*
X140716000Y-90678000D02*
X140716000Y-88384000D01*
X139954000Y-95250000D02*
X140650000Y-94554000D01*
X128270000Y-86360000D02*
X132080000Y-90170000D01*
X140650000Y-92964000D02*
X140650000Y-90744000D01*
X134112000Y-95250000D02*
X139954000Y-95250000D01*
X140716000Y-88384000D02*
X140835000Y-88265000D01*
X128270000Y-86360000D02*
X131064000Y-83566000D01*
D17*
X140906500Y-88336500D02*
X140835000Y-88265000D01*
D18*
X135160000Y-77978000D02*
X135160000Y-79534000D01*
X131064000Y-80010000D02*
X133096000Y-77978000D01*
X128270000Y-86360000D02*
X125730000Y-86360000D01*
X147066000Y-81026000D02*
X148590000Y-82550000D01*
X140650000Y-94554000D02*
X140650000Y-92964000D01*
X133096000Y-77978000D02*
X135160000Y-77978000D01*
X135160000Y-79534000D02*
X136652000Y-81026000D01*
X140650000Y-90744000D02*
X140716000Y-90678000D01*
X132080000Y-93218000D02*
X134112000Y-95250000D01*
X136652000Y-81026000D02*
X147066000Y-81026000D01*
%TD*%
%TA.AperFunction,Conductor*%
%TO.N,GND*%
G36*
X151579621Y-71902502D02*
G01*
X151626114Y-71956158D01*
X151637500Y-72008500D01*
X151637500Y-100711500D01*
X151617498Y-100779621D01*
X151563842Y-100826114D01*
X151511500Y-100837500D01*
X122808500Y-100837500D01*
X122740379Y-100817498D01*
X122693886Y-100763842D01*
X122682500Y-100711500D01*
X122682500Y-89706669D01*
X124460001Y-89706669D01*
X124460371Y-89713490D01*
X124465895Y-89764352D01*
X124469521Y-89779604D01*
X124514676Y-89900054D01*
X124523214Y-89915649D01*
X124599715Y-90017724D01*
X124612276Y-90030285D01*
X124714351Y-90106786D01*
X124729946Y-90115324D01*
X124850394Y-90160478D01*
X124865649Y-90164105D01*
X124916514Y-90169631D01*
X124923328Y-90170000D01*
X125457885Y-90170000D01*
X125473124Y-90165525D01*
X125474329Y-90164135D01*
X125476000Y-90156452D01*
X125476000Y-90151884D01*
X125984000Y-90151884D01*
X125988475Y-90167123D01*
X125989865Y-90168328D01*
X125997548Y-90169999D01*
X126536669Y-90169999D01*
X126543490Y-90169629D01*
X126594352Y-90164105D01*
X126609604Y-90160479D01*
X126730054Y-90115324D01*
X126745649Y-90106786D01*
X126847724Y-90030285D01*
X126860284Y-90017725D01*
X126899173Y-89965835D01*
X126956032Y-89923319D01*
X127026851Y-89918293D01*
X127089144Y-89952353D01*
X127100827Y-89965835D01*
X127139716Y-90017725D01*
X127152276Y-90030285D01*
X127254351Y-90106786D01*
X127269946Y-90115324D01*
X127390394Y-90160478D01*
X127405649Y-90164105D01*
X127456514Y-90169631D01*
X127463328Y-90170000D01*
X127997885Y-90170000D01*
X128013124Y-90165525D01*
X128014329Y-90164135D01*
X128016000Y-90156452D01*
X128016000Y-89172115D01*
X128011525Y-89156876D01*
X128010135Y-89155671D01*
X128002452Y-89154000D01*
X126002115Y-89154000D01*
X125986876Y-89158475D01*
X125985671Y-89159865D01*
X125984000Y-89167548D01*
X125984000Y-90151884D01*
X125476000Y-90151884D01*
X125476000Y-89172115D01*
X125471525Y-89156876D01*
X125470135Y-89155671D01*
X125462452Y-89154000D01*
X124478116Y-89154000D01*
X124462877Y-89158475D01*
X124461672Y-89159865D01*
X124460001Y-89167548D01*
X124460001Y-89706669D01*
X122682500Y-89706669D01*
X122682500Y-87170134D01*
X124459500Y-87170134D01*
X124466255Y-87232316D01*
X124517385Y-87368705D01*
X124604739Y-87485261D01*
X124663749Y-87529487D01*
X124706264Y-87586344D01*
X124711290Y-87657163D01*
X124677230Y-87719456D01*
X124663749Y-87731138D01*
X124612276Y-87769715D01*
X124599715Y-87782276D01*
X124523214Y-87884351D01*
X124514676Y-87899946D01*
X124469522Y-88020394D01*
X124465895Y-88035649D01*
X124460369Y-88086514D01*
X124460000Y-88093328D01*
X124460000Y-88627885D01*
X124464475Y-88643124D01*
X124465865Y-88644329D01*
X124473548Y-88646000D01*
X128398000Y-88646000D01*
X128466121Y-88666002D01*
X128512614Y-88719658D01*
X128524000Y-88772000D01*
X128524000Y-90151884D01*
X128528475Y-90167123D01*
X128529865Y-90168328D01*
X128537548Y-90169999D01*
X129076669Y-90169999D01*
X129083490Y-90169629D01*
X129134352Y-90164105D01*
X129149604Y-90160479D01*
X129270054Y-90115324D01*
X129285649Y-90106786D01*
X129387724Y-90030285D01*
X129400285Y-90017724D01*
X129476786Y-89915649D01*
X129485324Y-89900054D01*
X129530478Y-89779606D01*
X129534105Y-89764351D01*
X129539631Y-89713486D01*
X129540000Y-89706672D01*
X129539999Y-89012527D01*
X129560001Y-88944406D01*
X129613657Y-88897913D01*
X129683930Y-88887809D01*
X129748511Y-88917302D01*
X129755094Y-88923432D01*
X131280595Y-90448933D01*
X131314621Y-90511245D01*
X131317500Y-90538028D01*
X131317500Y-93150624D01*
X131316067Y-93169574D01*
X131313876Y-93183973D01*
X131313876Y-93183979D01*
X131312776Y-93191208D01*
X131313369Y-93198500D01*
X131313369Y-93198503D01*
X131317085Y-93244183D01*
X131317500Y-93254398D01*
X131317500Y-93262525D01*
X131320811Y-93290924D01*
X131321238Y-93295244D01*
X131327191Y-93368426D01*
X131329447Y-93375388D01*
X131330643Y-93381376D01*
X131332051Y-93387333D01*
X131332899Y-93394607D01*
X131335397Y-93401489D01*
X131335398Y-93401493D01*
X131357945Y-93463607D01*
X131359355Y-93467711D01*
X131381987Y-93537575D01*
X131385787Y-93543838D01*
X131388325Y-93549380D01*
X131391067Y-93554856D01*
X131393566Y-93561741D01*
X131397581Y-93567865D01*
X131433815Y-93623132D01*
X131436130Y-93626800D01*
X131474227Y-93689581D01*
X131477941Y-93693786D01*
X131477943Y-93693789D01*
X131481667Y-93698005D01*
X131481638Y-93698031D01*
X131484238Y-93700962D01*
X131487042Y-93704316D01*
X131491054Y-93710435D01*
X131496366Y-93715467D01*
X131547586Y-93763988D01*
X131550028Y-93766366D01*
X133525190Y-95741528D01*
X133537577Y-95755941D01*
X133550546Y-95773564D01*
X133556129Y-95778307D01*
X133591055Y-95807979D01*
X133598571Y-95814909D01*
X133604315Y-95820653D01*
X133607189Y-95822927D01*
X133607196Y-95822933D01*
X133626711Y-95838372D01*
X133630115Y-95841163D01*
X133680472Y-95883945D01*
X133680476Y-95883948D01*
X133686051Y-95888684D01*
X133692568Y-95892012D01*
X133697632Y-95895389D01*
X133702856Y-95898616D01*
X133708600Y-95903160D01*
X133715231Y-95906259D01*
X133775082Y-95934232D01*
X133779033Y-95936163D01*
X133844404Y-95969543D01*
X133851519Y-95971284D01*
X133857265Y-95973421D01*
X133863048Y-95975345D01*
X133869679Y-95978444D01*
X133941557Y-95993394D01*
X133945829Y-95994361D01*
X134017112Y-96011804D01*
X134022711Y-96012151D01*
X134022715Y-96012152D01*
X134028330Y-96012500D01*
X134028328Y-96012539D01*
X134032229Y-96012772D01*
X134036588Y-96013161D01*
X134043756Y-96014652D01*
X134051073Y-96014454D01*
X134121577Y-96012546D01*
X134124986Y-96012500D01*
X139886624Y-96012500D01*
X139905574Y-96013933D01*
X139919973Y-96016124D01*
X139919979Y-96016124D01*
X139927208Y-96017224D01*
X139934500Y-96016631D01*
X139934503Y-96016631D01*
X139980183Y-96012915D01*
X139990398Y-96012500D01*
X139998525Y-96012500D01*
X140002161Y-96012076D01*
X140002163Y-96012076D01*
X140005615Y-96011673D01*
X140026924Y-96009189D01*
X140031244Y-96008762D01*
X140104426Y-96002809D01*
X140111388Y-96000553D01*
X140117376Y-95999357D01*
X140123333Y-95997949D01*
X140130607Y-95997101D01*
X140137489Y-95994603D01*
X140137493Y-95994602D01*
X140199607Y-95972055D01*
X140203711Y-95970645D01*
X140273575Y-95948013D01*
X140279838Y-95944213D01*
X140285380Y-95941675D01*
X140290856Y-95938933D01*
X140297741Y-95936434D01*
X140359132Y-95896185D01*
X140362800Y-95893870D01*
X140425581Y-95855773D01*
X140429786Y-95852059D01*
X140429789Y-95852057D01*
X140434005Y-95848333D01*
X140434031Y-95848362D01*
X140436962Y-95845762D01*
X140440316Y-95842958D01*
X140446435Y-95838946D01*
X140499989Y-95782413D01*
X140502366Y-95779972D01*
X141141528Y-95140810D01*
X141155941Y-95128423D01*
X141167665Y-95119795D01*
X141173564Y-95115454D01*
X141207979Y-95074945D01*
X141214909Y-95067429D01*
X141220653Y-95061685D01*
X141222927Y-95058811D01*
X141222933Y-95058804D01*
X141238372Y-95039289D01*
X141241163Y-95035885D01*
X141283945Y-94985528D01*
X141283948Y-94985524D01*
X141288684Y-94979949D01*
X141292012Y-94973432D01*
X141295389Y-94968368D01*
X141298616Y-94963144D01*
X141303160Y-94957400D01*
X141334242Y-94890896D01*
X141336147Y-94886999D01*
X141369543Y-94821596D01*
X141371284Y-94814482D01*
X141373416Y-94808748D01*
X141375344Y-94802952D01*
X141378444Y-94796320D01*
X141393395Y-94724440D01*
X141394365Y-94720156D01*
X141410469Y-94654342D01*
X141411804Y-94648888D01*
X141412500Y-94637670D01*
X141412537Y-94637672D01*
X141412773Y-94633773D01*
X141413163Y-94629402D01*
X141414652Y-94622243D01*
X141412546Y-94544423D01*
X141412500Y-94541014D01*
X141412500Y-94051386D01*
X141432502Y-93983265D01*
X141449327Y-93962368D01*
X141494134Y-93917483D01*
X141499305Y-93912303D01*
X141592115Y-93761738D01*
X141647797Y-93593861D01*
X141652355Y-93549380D01*
X141654277Y-93530614D01*
X141658500Y-93489400D01*
X141658500Y-92438600D01*
X141658163Y-92435350D01*
X141648238Y-92339692D01*
X141648237Y-92339688D01*
X141647526Y-92332834D01*
X141639964Y-92310166D01*
X141593868Y-92172002D01*
X141591550Y-92165054D01*
X141498478Y-92014652D01*
X141460704Y-91976944D01*
X141449482Y-91965741D01*
X141415403Y-91903458D01*
X141412500Y-91876568D01*
X141412500Y-91831501D01*
X141432502Y-91763380D01*
X141449327Y-91742483D01*
X141460529Y-91731262D01*
X141565305Y-91626303D01*
X141591856Y-91583230D01*
X141654275Y-91481968D01*
X141654276Y-91481966D01*
X141658115Y-91475738D01*
X141713797Y-91307861D01*
X141714574Y-91300285D01*
X141722515Y-91222770D01*
X141724500Y-91203400D01*
X141724500Y-90152600D01*
X141723589Y-90143818D01*
X141714238Y-90053692D01*
X141714237Y-90053688D01*
X141713526Y-90046834D01*
X141706865Y-90026867D01*
X141659868Y-89886002D01*
X141657550Y-89879054D01*
X141564478Y-89728652D01*
X141549290Y-89713490D01*
X141515482Y-89679741D01*
X141481403Y-89617458D01*
X141478500Y-89590568D01*
X141478500Y-89224500D01*
X141498502Y-89156379D01*
X141552158Y-89109886D01*
X141604500Y-89098500D01*
X141708134Y-89098500D01*
X141770316Y-89091745D01*
X141906705Y-89040615D01*
X142023261Y-88953261D01*
X142110615Y-88836705D01*
X142161745Y-88700316D01*
X142168500Y-88638134D01*
X142168500Y-87891866D01*
X142161745Y-87829684D01*
X142138726Y-87768282D01*
X142113766Y-87701699D01*
X142113764Y-87701696D01*
X142110615Y-87693295D01*
X142107273Y-87688836D01*
X142092470Y-87621152D01*
X142107067Y-87571439D01*
X142110615Y-87566705D01*
X142124242Y-87530357D01*
X142158971Y-87437715D01*
X142161745Y-87430316D01*
X142168500Y-87368134D01*
X142168500Y-86621866D01*
X142163203Y-86573107D01*
X142175731Y-86503226D01*
X142224051Y-86451210D01*
X142288466Y-86433500D01*
X143862088Y-86433500D01*
X143870658Y-86433792D01*
X143920776Y-86437209D01*
X143920780Y-86437209D01*
X143928352Y-86437725D01*
X143935829Y-86436420D01*
X143935830Y-86436420D01*
X143968976Y-86430635D01*
X143991303Y-86426738D01*
X143997821Y-86425777D01*
X144061242Y-86418102D01*
X144068343Y-86415419D01*
X144070952Y-86414778D01*
X144087262Y-86410315D01*
X144089798Y-86409550D01*
X144097284Y-86408243D01*
X144155800Y-86382556D01*
X144161904Y-86380065D01*
X144214548Y-86360173D01*
X144214549Y-86360172D01*
X144221656Y-86357487D01*
X144227919Y-86353183D01*
X144230285Y-86351946D01*
X144245097Y-86343701D01*
X144247351Y-86342368D01*
X144254305Y-86339315D01*
X144305002Y-86300413D01*
X144310332Y-86296541D01*
X144356720Y-86264661D01*
X144356725Y-86264656D01*
X144362981Y-86260357D01*
X144404436Y-86213829D01*
X144409416Y-86208554D01*
X144612264Y-86005706D01*
X144674576Y-85971680D01*
X144745391Y-85976745D01*
X144802227Y-86019292D01*
X144819339Y-86050568D01*
X144837385Y-86098705D01*
X144924739Y-86215261D01*
X144931918Y-86220641D01*
X144931919Y-86220642D01*
X144983332Y-86259174D01*
X145025847Y-86316033D01*
X145030873Y-86386852D01*
X144996813Y-86449145D01*
X144983333Y-86460825D01*
X144924739Y-86504739D01*
X144837385Y-86621295D01*
X144786255Y-86757684D01*
X144785402Y-86765536D01*
X144785401Y-86765540D01*
X144781970Y-86797125D01*
X144781232Y-86803928D01*
X144780669Y-86809107D01*
X144753428Y-86874669D01*
X144695065Y-86915096D01*
X144655406Y-86921500D01*
X144554911Y-86921500D01*
X144546342Y-86921208D01*
X144496223Y-86917791D01*
X144496219Y-86917791D01*
X144488647Y-86917275D01*
X144425685Y-86928264D01*
X144419195Y-86929221D01*
X144355758Y-86936898D01*
X144348649Y-86939584D01*
X144346078Y-86940216D01*
X144329772Y-86944676D01*
X144327204Y-86945451D01*
X144319716Y-86946758D01*
X144284722Y-86962119D01*
X144261212Y-86972439D01*
X144255105Y-86974931D01*
X144202452Y-86994827D01*
X144195344Y-86997513D01*
X144189083Y-87001816D01*
X144186717Y-87003053D01*
X144171937Y-87011280D01*
X144169652Y-87012631D01*
X144162695Y-87015685D01*
X144156675Y-87020305D01*
X144156669Y-87020308D01*
X144125542Y-87044194D01*
X144111998Y-87054587D01*
X144106668Y-87058459D01*
X144060280Y-87090339D01*
X144060275Y-87090344D01*
X144054019Y-87094643D01*
X144048968Y-87100313D01*
X144048966Y-87100314D01*
X144012565Y-87141170D01*
X144007584Y-87146446D01*
X143537480Y-87616550D01*
X143531215Y-87622404D01*
X143487615Y-87660439D01*
X143464071Y-87693939D01*
X143450872Y-87712719D01*
X143446939Y-87718014D01*
X143407524Y-87768282D01*
X143404401Y-87775198D01*
X143403017Y-87777484D01*
X143394643Y-87792165D01*
X143393378Y-87794525D01*
X143389010Y-87800739D01*
X143386250Y-87807818D01*
X143386249Y-87807820D01*
X143365798Y-87860275D01*
X143363247Y-87866344D01*
X143336955Y-87924573D01*
X143335571Y-87932040D01*
X143334770Y-87934595D01*
X143330141Y-87950848D01*
X143329478Y-87953428D01*
X143326718Y-87960509D01*
X143325727Y-87968040D01*
X143325726Y-87968042D01*
X143318379Y-88023852D01*
X143317348Y-88030359D01*
X143305704Y-88093186D01*
X143306141Y-88100766D01*
X143306141Y-88100767D01*
X143309291Y-88155392D01*
X143309500Y-88162646D01*
X143309500Y-90821256D01*
X143289498Y-90889377D01*
X143285436Y-90895317D01*
X143283379Y-90898148D01*
X143278960Y-90903056D01*
X143275659Y-90908774D01*
X143275658Y-90908775D01*
X143203157Y-91034351D01*
X143183473Y-91068444D01*
X143124458Y-91250072D01*
X143123768Y-91256633D01*
X143123768Y-91256635D01*
X143118384Y-91307861D01*
X143104496Y-91440000D01*
X143124458Y-91629928D01*
X143183473Y-91811556D01*
X143278960Y-91976944D01*
X143283378Y-91981851D01*
X143283379Y-91981852D01*
X143325316Y-92028428D01*
X143406747Y-92118866D01*
X143561248Y-92231118D01*
X143567276Y-92233802D01*
X143567278Y-92233803D01*
X143729681Y-92306109D01*
X143735712Y-92308794D01*
X143818052Y-92326296D01*
X143916056Y-92347128D01*
X143916061Y-92347128D01*
X143922513Y-92348500D01*
X144113487Y-92348500D01*
X144119939Y-92347128D01*
X144119944Y-92347128D01*
X144217948Y-92326296D01*
X144300288Y-92308794D01*
X144306319Y-92306109D01*
X144468722Y-92233803D01*
X144468724Y-92233802D01*
X144474752Y-92231118D01*
X144629253Y-92118866D01*
X144710684Y-92028428D01*
X144752621Y-91981852D01*
X144752622Y-91981851D01*
X144757040Y-91976944D01*
X144852527Y-91811556D01*
X144911542Y-91629928D01*
X144924443Y-91507178D01*
X144951456Y-91441522D01*
X145009677Y-91400892D01*
X145080623Y-91398189D01*
X145093982Y-91402367D01*
X145170282Y-91430971D01*
X145170288Y-91430973D01*
X145177684Y-91433745D01*
X145239866Y-91440500D01*
X146860134Y-91440500D01*
X146922316Y-91433745D01*
X147058705Y-91382615D01*
X147175261Y-91295261D01*
X147219487Y-91236251D01*
X147276344Y-91193736D01*
X147347163Y-91188710D01*
X147409456Y-91222770D01*
X147421138Y-91236251D01*
X147459715Y-91287724D01*
X147472276Y-91300285D01*
X147574351Y-91376786D01*
X147589946Y-91385324D01*
X147710394Y-91430478D01*
X147725649Y-91434105D01*
X147776514Y-91439631D01*
X147783328Y-91440000D01*
X148317885Y-91440000D01*
X148333124Y-91435525D01*
X148334329Y-91434135D01*
X148336000Y-91426452D01*
X148336000Y-91421884D01*
X148844000Y-91421884D01*
X148848475Y-91437123D01*
X148849865Y-91438328D01*
X148857548Y-91439999D01*
X149396669Y-91439999D01*
X149403490Y-91439629D01*
X149454352Y-91434105D01*
X149469604Y-91430479D01*
X149590054Y-91385324D01*
X149605649Y-91376786D01*
X149707724Y-91300285D01*
X149720285Y-91287724D01*
X149796786Y-91185649D01*
X149805324Y-91170054D01*
X149850478Y-91049606D01*
X149854105Y-91034351D01*
X149859631Y-90983486D01*
X149860000Y-90976672D01*
X149860000Y-90442115D01*
X149855525Y-90426876D01*
X149854135Y-90425671D01*
X149846452Y-90424000D01*
X148862115Y-90424000D01*
X148846876Y-90428475D01*
X148845671Y-90429865D01*
X148844000Y-90437548D01*
X148844000Y-91421884D01*
X148336000Y-91421884D01*
X148336000Y-89897885D01*
X148844000Y-89897885D01*
X148848475Y-89913124D01*
X148849865Y-89914329D01*
X148857548Y-89916000D01*
X149841884Y-89916000D01*
X149857123Y-89911525D01*
X149858328Y-89910135D01*
X149859999Y-89902452D01*
X149859999Y-89363331D01*
X149859629Y-89356510D01*
X149854105Y-89305648D01*
X149850479Y-89290396D01*
X149805324Y-89169946D01*
X149796786Y-89154351D01*
X149720285Y-89052276D01*
X149707725Y-89039716D01*
X149655835Y-89000827D01*
X149613319Y-88943968D01*
X149608293Y-88873149D01*
X149642353Y-88810856D01*
X149655835Y-88799173D01*
X149707725Y-88760284D01*
X149720285Y-88747724D01*
X149796786Y-88645649D01*
X149805324Y-88630054D01*
X149850478Y-88509606D01*
X149854105Y-88494351D01*
X149859631Y-88443486D01*
X149860000Y-88436672D01*
X149860000Y-87902115D01*
X149855525Y-87886876D01*
X149854135Y-87885671D01*
X149846452Y-87884000D01*
X148862115Y-87884000D01*
X148846876Y-87888475D01*
X148845671Y-87889865D01*
X148844000Y-87897548D01*
X148844000Y-89897885D01*
X148336000Y-89897885D01*
X148336000Y-87502000D01*
X148356002Y-87433879D01*
X148409658Y-87387386D01*
X148462000Y-87376000D01*
X149841884Y-87376000D01*
X149857123Y-87371525D01*
X149858328Y-87370135D01*
X149859999Y-87362452D01*
X149859999Y-86823331D01*
X149859629Y-86816510D01*
X149854105Y-86765648D01*
X149850479Y-86750396D01*
X149805324Y-86629946D01*
X149796786Y-86614351D01*
X149720285Y-86512276D01*
X149707724Y-86499715D01*
X149656251Y-86461138D01*
X149613736Y-86404279D01*
X149608710Y-86333460D01*
X149642770Y-86271167D01*
X149656245Y-86259491D01*
X149715261Y-86215261D01*
X149802615Y-86098705D01*
X149853745Y-85962316D01*
X149860500Y-85900134D01*
X149860500Y-84279866D01*
X149853745Y-84217684D01*
X149802615Y-84081295D01*
X149715261Y-83964739D01*
X149656668Y-83920826D01*
X149614153Y-83863967D01*
X149609127Y-83793148D01*
X149643187Y-83730855D01*
X149656668Y-83719174D01*
X149672282Y-83707472D01*
X149715261Y-83675261D01*
X149802615Y-83558705D01*
X149853745Y-83422316D01*
X149860500Y-83360134D01*
X149860500Y-81739866D01*
X149853745Y-81677684D01*
X149802615Y-81541295D01*
X149715261Y-81424739D01*
X149598705Y-81337385D01*
X149462316Y-81286255D01*
X149400134Y-81279500D01*
X148450028Y-81279500D01*
X148381907Y-81259498D01*
X148360933Y-81242595D01*
X147652810Y-80534472D01*
X147640423Y-80520059D01*
X147631795Y-80508335D01*
X147627454Y-80502436D01*
X147586945Y-80468021D01*
X147579429Y-80461091D01*
X147573685Y-80455347D01*
X147570811Y-80453073D01*
X147570804Y-80453067D01*
X147551289Y-80437628D01*
X147547885Y-80434837D01*
X147497528Y-80392055D01*
X147497524Y-80392052D01*
X147491949Y-80387316D01*
X147485432Y-80383988D01*
X147480368Y-80380611D01*
X147475144Y-80377384D01*
X147469400Y-80372840D01*
X147443109Y-80360552D01*
X147402918Y-80341768D01*
X147398967Y-80339837D01*
X147340117Y-80309787D01*
X147333596Y-80306457D01*
X147326481Y-80304716D01*
X147320735Y-80302579D01*
X147314952Y-80300655D01*
X147308321Y-80297556D01*
X147236443Y-80282606D01*
X147232171Y-80281639D01*
X147160888Y-80264196D01*
X147155289Y-80263849D01*
X147155285Y-80263848D01*
X147149670Y-80263500D01*
X147149672Y-80263461D01*
X147145771Y-80263228D01*
X147141412Y-80262839D01*
X147134244Y-80261348D01*
X147126927Y-80261546D01*
X147056423Y-80263454D01*
X147053014Y-80263500D01*
X137020028Y-80263500D01*
X136951907Y-80243498D01*
X136930933Y-80226595D01*
X136305933Y-79601595D01*
X136271907Y-79539283D01*
X136276972Y-79468468D01*
X136319519Y-79411632D01*
X136386039Y-79386821D01*
X136395028Y-79386500D01*
X136458134Y-79386500D01*
X136520316Y-79379745D01*
X136656705Y-79328615D01*
X136773261Y-79241261D01*
X136860615Y-79124705D01*
X136911745Y-78988316D01*
X136918500Y-78926134D01*
X136918500Y-78922669D01*
X137402001Y-78922669D01*
X137402371Y-78929490D01*
X137407895Y-78980352D01*
X137411521Y-78995604D01*
X137456676Y-79116054D01*
X137465214Y-79131649D01*
X137541715Y-79233724D01*
X137554276Y-79246285D01*
X137656351Y-79322786D01*
X137671946Y-79331324D01*
X137792394Y-79376478D01*
X137807649Y-79380105D01*
X137858514Y-79385631D01*
X137865328Y-79386000D01*
X138887885Y-79386000D01*
X138903124Y-79381525D01*
X138904329Y-79380135D01*
X138906000Y-79372452D01*
X138906000Y-79367884D01*
X139414000Y-79367884D01*
X139418475Y-79383123D01*
X139419865Y-79384328D01*
X139427548Y-79385999D01*
X140454669Y-79385999D01*
X140461490Y-79385629D01*
X140512352Y-79380105D01*
X140527604Y-79376479D01*
X140648054Y-79331324D01*
X140663649Y-79322786D01*
X140765724Y-79246285D01*
X140778285Y-79233724D01*
X140854786Y-79131649D01*
X140863324Y-79116054D01*
X140908478Y-78995606D01*
X140912105Y-78980351D01*
X140917631Y-78929486D01*
X140918000Y-78922672D01*
X140918000Y-78250115D01*
X140913525Y-78234876D01*
X140912135Y-78233671D01*
X140904452Y-78232000D01*
X139432115Y-78232000D01*
X139416876Y-78236475D01*
X139415671Y-78237865D01*
X139414000Y-78245548D01*
X139414000Y-79367884D01*
X138906000Y-79367884D01*
X138906000Y-78250115D01*
X138901525Y-78234876D01*
X138900135Y-78233671D01*
X138892452Y-78232000D01*
X137420116Y-78232000D01*
X137404877Y-78236475D01*
X137403672Y-78237865D01*
X137402001Y-78245548D01*
X137402001Y-78922669D01*
X136918500Y-78922669D01*
X136918500Y-77705885D01*
X137402000Y-77705885D01*
X137406475Y-77721124D01*
X137407865Y-77722329D01*
X137415548Y-77724000D01*
X138887885Y-77724000D01*
X138903124Y-77719525D01*
X138904329Y-77718135D01*
X138906000Y-77710452D01*
X138906000Y-77705885D01*
X139414000Y-77705885D01*
X139418475Y-77721124D01*
X139419865Y-77722329D01*
X139427548Y-77724000D01*
X140899884Y-77724000D01*
X140915123Y-77719525D01*
X140916328Y-77718135D01*
X140917999Y-77710452D01*
X140917999Y-77033331D01*
X140917629Y-77026510D01*
X140912105Y-76975648D01*
X140908479Y-76960396D01*
X140863324Y-76839946D01*
X140854786Y-76824351D01*
X140778285Y-76722276D01*
X140765724Y-76709715D01*
X140663649Y-76633214D01*
X140648054Y-76624676D01*
X140527606Y-76579522D01*
X140512351Y-76575895D01*
X140461486Y-76570369D01*
X140454672Y-76570000D01*
X139432115Y-76570000D01*
X139416876Y-76574475D01*
X139415671Y-76575865D01*
X139414000Y-76583548D01*
X139414000Y-77705885D01*
X138906000Y-77705885D01*
X138906000Y-76588116D01*
X138901525Y-76572877D01*
X138900135Y-76571672D01*
X138892452Y-76570001D01*
X137865331Y-76570001D01*
X137858510Y-76570371D01*
X137807648Y-76575895D01*
X137792396Y-76579521D01*
X137671946Y-76624676D01*
X137656351Y-76633214D01*
X137554276Y-76709715D01*
X137541715Y-76722276D01*
X137465214Y-76824351D01*
X137456676Y-76839946D01*
X137411522Y-76960394D01*
X137407895Y-76975649D01*
X137402369Y-77026514D01*
X137402000Y-77033328D01*
X137402000Y-77705885D01*
X136918500Y-77705885D01*
X136918500Y-77029866D01*
X136911745Y-76967684D01*
X136860615Y-76831295D01*
X136773261Y-76714739D01*
X136656705Y-76627385D01*
X136520316Y-76576255D01*
X136458134Y-76569500D01*
X133861866Y-76569500D01*
X133799684Y-76576255D01*
X133663295Y-76627385D01*
X133546739Y-76714739D01*
X133459385Y-76831295D01*
X133408255Y-76967684D01*
X133401500Y-77029866D01*
X133401500Y-77089500D01*
X133381498Y-77157621D01*
X133327842Y-77204114D01*
X133275500Y-77215500D01*
X133163376Y-77215500D01*
X133144426Y-77214067D01*
X133130027Y-77211876D01*
X133130021Y-77211876D01*
X133122792Y-77210776D01*
X133115500Y-77211369D01*
X133115497Y-77211369D01*
X133069817Y-77215085D01*
X133059602Y-77215500D01*
X133051475Y-77215500D01*
X133047839Y-77215924D01*
X133047837Y-77215924D01*
X133044385Y-77216327D01*
X133023076Y-77218811D01*
X133018756Y-77219238D01*
X132945574Y-77225191D01*
X132938612Y-77227447D01*
X132932624Y-77228643D01*
X132926667Y-77230051D01*
X132919393Y-77230899D01*
X132912511Y-77233397D01*
X132912507Y-77233398D01*
X132850393Y-77255945D01*
X132846289Y-77257355D01*
X132776425Y-77279987D01*
X132770162Y-77283787D01*
X132764620Y-77286325D01*
X132759144Y-77289067D01*
X132752259Y-77291566D01*
X132746135Y-77295581D01*
X132690868Y-77331815D01*
X132687200Y-77334130D01*
X132624419Y-77372227D01*
X132620214Y-77375941D01*
X132620211Y-77375943D01*
X132615995Y-77379667D01*
X132615969Y-77379638D01*
X132613038Y-77382238D01*
X132609684Y-77385042D01*
X132603565Y-77389054D01*
X132598533Y-77394366D01*
X132550012Y-77445586D01*
X132547634Y-77448028D01*
X130572472Y-79423190D01*
X130558059Y-79435577D01*
X130540436Y-79448546D01*
X130535692Y-79454129D01*
X130535693Y-79454129D01*
X130506021Y-79489055D01*
X130499091Y-79496571D01*
X130493347Y-79502315D01*
X130491073Y-79505189D01*
X130491067Y-79505196D01*
X130475628Y-79524711D01*
X130472837Y-79528115D01*
X130430055Y-79578472D01*
X130430052Y-79578476D01*
X130425316Y-79584051D01*
X130421988Y-79590568D01*
X130418611Y-79595632D01*
X130415384Y-79600856D01*
X130410840Y-79606600D01*
X130407741Y-79613231D01*
X130379768Y-79673082D01*
X130377837Y-79677033D01*
X130360851Y-79710298D01*
X130344457Y-79742404D01*
X130342716Y-79749519D01*
X130340579Y-79755265D01*
X130338655Y-79761048D01*
X130335556Y-79767679D01*
X130334066Y-79774843D01*
X130320608Y-79839547D01*
X130319639Y-79843829D01*
X130302196Y-79915112D01*
X130301500Y-79926330D01*
X130301461Y-79926328D01*
X130301228Y-79930229D01*
X130300839Y-79934588D01*
X130299348Y-79941756D01*
X130299546Y-79949073D01*
X130301454Y-80019577D01*
X130301500Y-80022986D01*
X130301500Y-83197972D01*
X130281498Y-83266093D01*
X130264595Y-83287067D01*
X129755095Y-83796567D01*
X129692783Y-83830593D01*
X129621968Y-83825528D01*
X129565132Y-83782981D01*
X129540321Y-83716461D01*
X129540000Y-83707472D01*
X129539999Y-83013331D01*
X129539629Y-83006510D01*
X129534105Y-82955648D01*
X129530479Y-82940396D01*
X129485324Y-82819946D01*
X129476786Y-82804351D01*
X129400285Y-82702276D01*
X129387724Y-82689715D01*
X129285649Y-82613214D01*
X129270054Y-82604676D01*
X129149606Y-82559522D01*
X129134351Y-82555895D01*
X129083486Y-82550369D01*
X129076672Y-82550000D01*
X128542115Y-82550000D01*
X128526876Y-82554475D01*
X128525671Y-82555865D01*
X128524000Y-82563548D01*
X128524000Y-83948000D01*
X128503998Y-84016121D01*
X128450342Y-84062614D01*
X128398000Y-84074000D01*
X124478116Y-84074000D01*
X124462877Y-84078475D01*
X124461672Y-84079865D01*
X124460001Y-84087548D01*
X124460001Y-84626669D01*
X124460371Y-84633490D01*
X124465895Y-84684352D01*
X124469521Y-84699604D01*
X124514676Y-84820054D01*
X124523214Y-84835649D01*
X124599715Y-84937724D01*
X124612276Y-84950285D01*
X124663749Y-84988862D01*
X124706264Y-85045721D01*
X124711290Y-85116540D01*
X124677230Y-85178833D01*
X124663755Y-85190509D01*
X124604739Y-85234739D01*
X124517385Y-85351295D01*
X124466255Y-85487684D01*
X124459500Y-85549866D01*
X124459500Y-87170134D01*
X122682500Y-87170134D01*
X122682500Y-83547885D01*
X124460000Y-83547885D01*
X124464475Y-83563124D01*
X124465865Y-83564329D01*
X124473548Y-83566000D01*
X125457885Y-83566000D01*
X125473124Y-83561525D01*
X125474329Y-83560135D01*
X125476000Y-83552452D01*
X125476000Y-83547885D01*
X125984000Y-83547885D01*
X125988475Y-83563124D01*
X125989865Y-83564329D01*
X125997548Y-83566000D01*
X127997885Y-83566000D01*
X128013124Y-83561525D01*
X128014329Y-83560135D01*
X128016000Y-83552452D01*
X128016000Y-82568116D01*
X128011525Y-82552877D01*
X128010135Y-82551672D01*
X128002452Y-82550001D01*
X127463331Y-82550001D01*
X127456510Y-82550371D01*
X127405648Y-82555895D01*
X127390396Y-82559521D01*
X127269946Y-82604676D01*
X127254351Y-82613214D01*
X127152276Y-82689715D01*
X127139716Y-82702275D01*
X127100827Y-82754165D01*
X127043968Y-82796681D01*
X126973149Y-82801707D01*
X126910856Y-82767647D01*
X126899173Y-82754165D01*
X126860284Y-82702275D01*
X126847724Y-82689715D01*
X126745649Y-82613214D01*
X126730054Y-82604676D01*
X126609606Y-82559522D01*
X126594351Y-82555895D01*
X126543486Y-82550369D01*
X126536672Y-82550000D01*
X126002115Y-82550000D01*
X125986876Y-82554475D01*
X125985671Y-82555865D01*
X125984000Y-82563548D01*
X125984000Y-83547885D01*
X125476000Y-83547885D01*
X125476000Y-82568116D01*
X125471525Y-82552877D01*
X125470135Y-82551672D01*
X125462452Y-82550001D01*
X124923331Y-82550001D01*
X124916510Y-82550371D01*
X124865648Y-82555895D01*
X124850396Y-82559521D01*
X124729946Y-82604676D01*
X124714351Y-82613214D01*
X124612276Y-82689715D01*
X124599715Y-82702276D01*
X124523214Y-82804351D01*
X124514676Y-82819946D01*
X124469522Y-82940394D01*
X124465895Y-82955649D01*
X124460369Y-83006514D01*
X124460000Y-83013328D01*
X124460000Y-83547885D01*
X122682500Y-83547885D01*
X122682500Y-72008500D01*
X122702502Y-71940379D01*
X122756158Y-71893886D01*
X122808500Y-71882500D01*
X151511500Y-71882500D01*
X151579621Y-71902502D01*
G37*
%TD.AperFunction*%
%TA.AperFunction,Conductor*%
G36*
X133336407Y-78920097D02*
G01*
X133393243Y-78962644D01*
X133410357Y-78993924D01*
X133456142Y-79116054D01*
X133459385Y-79124705D01*
X133546739Y-79241261D01*
X133663295Y-79328615D01*
X133799684Y-79379745D01*
X133861866Y-79386500D01*
X134267363Y-79386500D01*
X134335484Y-79406502D01*
X134381977Y-79460158D01*
X134391377Y-79507322D01*
X134392776Y-79507208D01*
X134397085Y-79560183D01*
X134397500Y-79570398D01*
X134397500Y-79578525D01*
X134400811Y-79606924D01*
X134401238Y-79611244D01*
X134407191Y-79684426D01*
X134409447Y-79691388D01*
X134410643Y-79697376D01*
X134412051Y-79703333D01*
X134412899Y-79710607D01*
X134415397Y-79717489D01*
X134415398Y-79717493D01*
X134437945Y-79779607D01*
X134439355Y-79783711D01*
X134461987Y-79853575D01*
X134465787Y-79859838D01*
X134468325Y-79865380D01*
X134471067Y-79870856D01*
X134473566Y-79877741D01*
X134477581Y-79883865D01*
X134513815Y-79939132D01*
X134516130Y-79942800D01*
X134554227Y-80005581D01*
X134557941Y-80009786D01*
X134557943Y-80009789D01*
X134561667Y-80014005D01*
X134561638Y-80014031D01*
X134564238Y-80016962D01*
X134567042Y-80020316D01*
X134571054Y-80026435D01*
X134576366Y-80031467D01*
X134627586Y-80079988D01*
X134630028Y-80082366D01*
X136065190Y-81517528D01*
X136077577Y-81531941D01*
X136090546Y-81549564D01*
X136096129Y-81554307D01*
X136131055Y-81583979D01*
X136138571Y-81590909D01*
X136144315Y-81596653D01*
X136147189Y-81598927D01*
X136147196Y-81598933D01*
X136166711Y-81614372D01*
X136170115Y-81617163D01*
X136220472Y-81659945D01*
X136220476Y-81659948D01*
X136226051Y-81664684D01*
X136232568Y-81668012D01*
X136237632Y-81671389D01*
X136242856Y-81674616D01*
X136248600Y-81679160D01*
X136315104Y-81710242D01*
X136319001Y-81712147D01*
X136384404Y-81745543D01*
X136391518Y-81747284D01*
X136397252Y-81749416D01*
X136403048Y-81751344D01*
X136409680Y-81754444D01*
X136481555Y-81769394D01*
X136485839Y-81770364D01*
X136557112Y-81787804D01*
X136562714Y-81788152D01*
X136562717Y-81788152D01*
X136568330Y-81788500D01*
X136568328Y-81788537D01*
X136572227Y-81788773D01*
X136576598Y-81789163D01*
X136583757Y-81790652D01*
X136661577Y-81788546D01*
X136664986Y-81788500D01*
X138644459Y-81788500D01*
X138712580Y-81808502D01*
X138759073Y-81862158D01*
X138769177Y-81932432D01*
X138739683Y-81997012D01*
X138727784Y-82009014D01*
X138726279Y-82010340D01*
X138720019Y-82014643D01*
X138714967Y-82020313D01*
X138714965Y-82020315D01*
X138678565Y-82061170D01*
X138673584Y-82066446D01*
X135033595Y-85706435D01*
X134971283Y-85740461D01*
X134900468Y-85735396D01*
X134843632Y-85692849D01*
X134818821Y-85626329D01*
X134818500Y-85617340D01*
X134818500Y-85351866D01*
X134811745Y-85289684D01*
X134789130Y-85229359D01*
X134763766Y-85161699D01*
X134763764Y-85161696D01*
X134760615Y-85153295D01*
X134757029Y-85148510D01*
X134742182Y-85080626D01*
X134757351Y-85028965D01*
X134763323Y-85018058D01*
X134808478Y-84897606D01*
X134812105Y-84882351D01*
X134817631Y-84831486D01*
X134818000Y-84824672D01*
X134818000Y-84727115D01*
X134813525Y-84711876D01*
X134812135Y-84710671D01*
X134804452Y-84709000D01*
X132170116Y-84709000D01*
X132154877Y-84713475D01*
X132153672Y-84714865D01*
X132152001Y-84722548D01*
X132152001Y-84824669D01*
X132152371Y-84831490D01*
X132158748Y-84890207D01*
X132155685Y-84890540D01*
X132152716Y-84947116D01*
X132111256Y-85004749D01*
X132048982Y-85030419D01*
X132036758Y-85031898D01*
X132029657Y-85034581D01*
X132027048Y-85035222D01*
X132010728Y-85039687D01*
X132008195Y-85040452D01*
X132000717Y-85041757D01*
X131942190Y-85067448D01*
X131936108Y-85069930D01*
X131915753Y-85077622D01*
X131883449Y-85089828D01*
X131883447Y-85089829D01*
X131876344Y-85092513D01*
X131870085Y-85096814D01*
X131867720Y-85098051D01*
X131852948Y-85106273D01*
X131850656Y-85107628D01*
X131843695Y-85110684D01*
X131837668Y-85115309D01*
X131837664Y-85115311D01*
X131792987Y-85149593D01*
X131787662Y-85153462D01*
X131775678Y-85161699D01*
X131750748Y-85178833D01*
X131735019Y-85189643D01*
X131729967Y-85195313D01*
X131729966Y-85195314D01*
X131693580Y-85236153D01*
X131688600Y-85241429D01*
X131092639Y-85837391D01*
X131077603Y-85850232D01*
X130960747Y-85935134D01*
X130832960Y-86077056D01*
X130816312Y-86105891D01*
X130757313Y-86208081D01*
X130737473Y-86242444D01*
X130678458Y-86424072D01*
X130677768Y-86430633D01*
X130677768Y-86430635D01*
X130663379Y-86567540D01*
X130658496Y-86614000D01*
X130659186Y-86620565D01*
X130674435Y-86765648D01*
X130678458Y-86803928D01*
X130737473Y-86985556D01*
X130740776Y-86991278D01*
X130740777Y-86991279D01*
X130744376Y-86997513D01*
X130832960Y-87150944D01*
X130837378Y-87155851D01*
X130837379Y-87155852D01*
X130912890Y-87239715D01*
X130960747Y-87292866D01*
X130992500Y-87315936D01*
X131079475Y-87379127D01*
X131115248Y-87405118D01*
X131121276Y-87407802D01*
X131121278Y-87407803D01*
X131181048Y-87434414D01*
X131289712Y-87482794D01*
X131380069Y-87502000D01*
X131470056Y-87521128D01*
X131470061Y-87521128D01*
X131476513Y-87522500D01*
X131667487Y-87522500D01*
X131673939Y-87521128D01*
X131673944Y-87521128D01*
X131763931Y-87502000D01*
X131854288Y-87482794D01*
X132009383Y-87413742D01*
X132079748Y-87404308D01*
X132144045Y-87434414D01*
X132178612Y-87484619D01*
X132195759Y-87530357D01*
X132209385Y-87566705D01*
X132212727Y-87571164D01*
X132227530Y-87638848D01*
X132212933Y-87688561D01*
X132209385Y-87693295D01*
X132206236Y-87701696D01*
X132206234Y-87701699D01*
X132181274Y-87768282D01*
X132158255Y-87829684D01*
X132151500Y-87891866D01*
X132151500Y-88638134D01*
X132158255Y-88700316D01*
X132209385Y-88836705D01*
X132296739Y-88953261D01*
X132413295Y-89040615D01*
X132549684Y-89091745D01*
X132611866Y-89098500D01*
X134358134Y-89098500D01*
X134420316Y-89091745D01*
X134556705Y-89040615D01*
X134563890Y-89035230D01*
X134563892Y-89035229D01*
X134612667Y-88998674D01*
X134679174Y-88973826D01*
X134688232Y-88973500D01*
X134870770Y-88973500D01*
X134938891Y-88993502D01*
X134985384Y-89047158D01*
X134993553Y-89077079D01*
X134994394Y-89076900D01*
X134995768Y-89083365D01*
X134996458Y-89089928D01*
X135055473Y-89271556D01*
X135150960Y-89436944D01*
X135155378Y-89441851D01*
X135155379Y-89441852D01*
X135221927Y-89515761D01*
X135278747Y-89578866D01*
X135331864Y-89617458D01*
X135426756Y-89686401D01*
X135433248Y-89691118D01*
X135439276Y-89693802D01*
X135439278Y-89693803D01*
X135597735Y-89764352D01*
X135607712Y-89768794D01*
X135701112Y-89788647D01*
X135788056Y-89807128D01*
X135788061Y-89807128D01*
X135794513Y-89808500D01*
X135985487Y-89808500D01*
X135991939Y-89807128D01*
X135991944Y-89807128D01*
X136078887Y-89788647D01*
X136172288Y-89768794D01*
X136182265Y-89764352D01*
X136340722Y-89693803D01*
X136340724Y-89693802D01*
X136346752Y-89691118D01*
X136353245Y-89686401D01*
X136448136Y-89617458D01*
X136501253Y-89578866D01*
X136558073Y-89515761D01*
X136624621Y-89441852D01*
X136624622Y-89441851D01*
X136629040Y-89436944D01*
X136724527Y-89271556D01*
X136783542Y-89089928D01*
X136784453Y-89081266D01*
X136802814Y-88906565D01*
X136803504Y-88900000D01*
X136788857Y-88760642D01*
X136784232Y-88716635D01*
X136784232Y-88716633D01*
X136783542Y-88710072D01*
X136724527Y-88528444D01*
X136629040Y-88363056D01*
X136501253Y-88221134D01*
X136346752Y-88108882D01*
X136340724Y-88106198D01*
X136340722Y-88106197D01*
X136178319Y-88033891D01*
X136178318Y-88033891D01*
X136172288Y-88031206D01*
X136019431Y-87998715D01*
X135956533Y-87964563D01*
X135776442Y-87784472D01*
X135770588Y-87778206D01*
X135737556Y-87740340D01*
X135737553Y-87740337D01*
X135732561Y-87734615D01*
X135680280Y-87697871D01*
X135674986Y-87693939D01*
X135630693Y-87659209D01*
X135624718Y-87654524D01*
X135617802Y-87651401D01*
X135615516Y-87650017D01*
X135600835Y-87641643D01*
X135598475Y-87640378D01*
X135592261Y-87636010D01*
X135585182Y-87633250D01*
X135585180Y-87633249D01*
X135532725Y-87612798D01*
X135526656Y-87610247D01*
X135468427Y-87583955D01*
X135460960Y-87582571D01*
X135458405Y-87581770D01*
X135442138Y-87577137D01*
X135439568Y-87576477D01*
X135432491Y-87573718D01*
X135432490Y-87573718D01*
X135432488Y-87573717D01*
X135432677Y-87573232D01*
X135376031Y-87539511D01*
X135344344Y-87475978D01*
X135352035Y-87405399D01*
X135379279Y-87364691D01*
X137384268Y-85359703D01*
X139448566Y-83295405D01*
X139510878Y-83261379D01*
X139537661Y-83258500D01*
X142257338Y-83258500D01*
X142325459Y-83278502D01*
X142371952Y-83332158D01*
X142382056Y-83402432D01*
X142352562Y-83467012D01*
X142346434Y-83473595D01*
X142117672Y-83702358D01*
X142055359Y-83736383D01*
X141984544Y-83731319D01*
X141953012Y-83714090D01*
X141913891Y-83684770D01*
X141913888Y-83684768D01*
X141906705Y-83679385D01*
X141770316Y-83628255D01*
X141708134Y-83621500D01*
X139961866Y-83621500D01*
X139899684Y-83628255D01*
X139763295Y-83679385D01*
X139646739Y-83766739D01*
X139559385Y-83883295D01*
X139508255Y-84019684D01*
X139501500Y-84081866D01*
X139501500Y-84828134D01*
X139508255Y-84890316D01*
X139511029Y-84897715D01*
X139554480Y-85013620D01*
X139559385Y-85026705D01*
X139562727Y-85031164D01*
X139577530Y-85098848D01*
X139562933Y-85148561D01*
X139559385Y-85153295D01*
X139556236Y-85161696D01*
X139556234Y-85161699D01*
X139530870Y-85229359D01*
X139508255Y-85289684D01*
X139501500Y-85351866D01*
X139501500Y-86098134D01*
X139508255Y-86160316D01*
X139511029Y-86167715D01*
X139545759Y-86260357D01*
X139559385Y-86296705D01*
X139562727Y-86301164D01*
X139577530Y-86368848D01*
X139562933Y-86418561D01*
X139559385Y-86423295D01*
X139556236Y-86431696D01*
X139556234Y-86431699D01*
X139548920Y-86451210D01*
X139508255Y-86559684D01*
X139501500Y-86621866D01*
X139501500Y-87368134D01*
X139508255Y-87430316D01*
X139511029Y-87437715D01*
X139545759Y-87530357D01*
X139559385Y-87566705D01*
X139562727Y-87571164D01*
X139577530Y-87638848D01*
X139562933Y-87688561D01*
X139559385Y-87693295D01*
X139556236Y-87701696D01*
X139556234Y-87701699D01*
X139531274Y-87768282D01*
X139508255Y-87829684D01*
X139501500Y-87891866D01*
X139501500Y-88638134D01*
X139508255Y-88700316D01*
X139559385Y-88836705D01*
X139646739Y-88953261D01*
X139763295Y-89040615D01*
X139771703Y-89043767D01*
X139871730Y-89081266D01*
X139928494Y-89123908D01*
X139953194Y-89190470D01*
X139953500Y-89199248D01*
X139953500Y-89590614D01*
X139933498Y-89658735D01*
X139916673Y-89679632D01*
X139866695Y-89729697D01*
X139863898Y-89734235D01*
X139806647Y-89774824D01*
X139735724Y-89778054D01*
X139674313Y-89742428D01*
X139666938Y-89733932D01*
X139658902Y-89723793D01*
X139544171Y-89609261D01*
X139532760Y-89600249D01*
X139394757Y-89515184D01*
X139381576Y-89509037D01*
X139227290Y-89457862D01*
X139213914Y-89454995D01*
X139119562Y-89445328D01*
X139113145Y-89445000D01*
X139088115Y-89445000D01*
X139072876Y-89449475D01*
X139071671Y-89450865D01*
X139070000Y-89458548D01*
X139070000Y-91842617D01*
X139049998Y-91910738D01*
X139030871Y-91927312D01*
X139031104Y-91927514D01*
X139005671Y-91956865D01*
X139004000Y-91964548D01*
X139004000Y-94178884D01*
X139008475Y-94194123D01*
X139009865Y-94195328D01*
X139017548Y-94196999D01*
X139047095Y-94196999D01*
X139053614Y-94196662D01*
X139149206Y-94186743D01*
X139162600Y-94183851D01*
X139316784Y-94132412D01*
X139329962Y-94126239D01*
X139467807Y-94040937D01*
X139479208Y-94031901D01*
X139593738Y-93917172D01*
X139600794Y-93908238D01*
X139658712Y-93867177D01*
X139729635Y-93863947D01*
X139791046Y-93899574D01*
X139797846Y-93907407D01*
X139801522Y-93913348D01*
X139806704Y-93918521D01*
X139850518Y-93962259D01*
X139884597Y-94024542D01*
X139887500Y-94051432D01*
X139887500Y-94185972D01*
X139867498Y-94254093D01*
X139850595Y-94275067D01*
X139675067Y-94450595D01*
X139612755Y-94484621D01*
X139585972Y-94487500D01*
X134480028Y-94487500D01*
X134411907Y-94467498D01*
X134390933Y-94450595D01*
X133426433Y-93486095D01*
X137742001Y-93486095D01*
X137742338Y-93492614D01*
X137752257Y-93588206D01*
X137755149Y-93601600D01*
X137806588Y-93755784D01*
X137812761Y-93768962D01*
X137898063Y-93906807D01*
X137907099Y-93918208D01*
X138021829Y-94032739D01*
X138033240Y-94041751D01*
X138171243Y-94126816D01*
X138184424Y-94132963D01*
X138338710Y-94184138D01*
X138352086Y-94187005D01*
X138446438Y-94196672D01*
X138452854Y-94197000D01*
X138477885Y-94197000D01*
X138493124Y-94192525D01*
X138494329Y-94191135D01*
X138496000Y-94183452D01*
X138496000Y-93236115D01*
X138491525Y-93220876D01*
X138490135Y-93219671D01*
X138482452Y-93218000D01*
X137760116Y-93218000D01*
X137744877Y-93222475D01*
X137743672Y-93223865D01*
X137742001Y-93231548D01*
X137742001Y-93486095D01*
X133426433Y-93486095D01*
X132879405Y-92939067D01*
X132845379Y-92876755D01*
X132842500Y-92849972D01*
X132842500Y-92691885D01*
X137742000Y-92691885D01*
X137746475Y-92707124D01*
X137747865Y-92708329D01*
X137755548Y-92710000D01*
X138477885Y-92710000D01*
X138493124Y-92705525D01*
X138494329Y-92704135D01*
X138496000Y-92696452D01*
X138496000Y-91799383D01*
X138516002Y-91731262D01*
X138535129Y-91714688D01*
X138534896Y-91714486D01*
X138560329Y-91685135D01*
X138562000Y-91677452D01*
X138562000Y-90950115D01*
X138557525Y-90934876D01*
X138556135Y-90933671D01*
X138548452Y-90932000D01*
X137826116Y-90932000D01*
X137810877Y-90936475D01*
X137809672Y-90937865D01*
X137808001Y-90945548D01*
X137808001Y-91200095D01*
X137808338Y-91206614D01*
X137818257Y-91302206D01*
X137821149Y-91315600D01*
X137872588Y-91469784D01*
X137878761Y-91482962D01*
X137964063Y-91620807D01*
X137973103Y-91632213D01*
X138041388Y-91700380D01*
X138075467Y-91762662D01*
X138070464Y-91833482D01*
X138030635Y-91888297D01*
X138020794Y-91896097D01*
X137906261Y-92010829D01*
X137897249Y-92022240D01*
X137812184Y-92160243D01*
X137806037Y-92173424D01*
X137754862Y-92327710D01*
X137751995Y-92341086D01*
X137742328Y-92435438D01*
X137742000Y-92441855D01*
X137742000Y-92691885D01*
X132842500Y-92691885D01*
X132842500Y-90405885D01*
X137808000Y-90405885D01*
X137812475Y-90421124D01*
X137813865Y-90422329D01*
X137821548Y-90424000D01*
X138543885Y-90424000D01*
X138559124Y-90419525D01*
X138560329Y-90418135D01*
X138562000Y-90410452D01*
X138562000Y-89463116D01*
X138557525Y-89447877D01*
X138556135Y-89446672D01*
X138548452Y-89445001D01*
X138518905Y-89445001D01*
X138512386Y-89445338D01*
X138416794Y-89455257D01*
X138403400Y-89458149D01*
X138249216Y-89509588D01*
X138236038Y-89515761D01*
X138098193Y-89601063D01*
X138086792Y-89610099D01*
X137972261Y-89724829D01*
X137963249Y-89736240D01*
X137878184Y-89874243D01*
X137872037Y-89887424D01*
X137820862Y-90041710D01*
X137817995Y-90055086D01*
X137808328Y-90149438D01*
X137808000Y-90155855D01*
X137808000Y-90405885D01*
X132842500Y-90405885D01*
X132842500Y-90237377D01*
X132843933Y-90218427D01*
X132846124Y-90204028D01*
X132846124Y-90204022D01*
X132847224Y-90196793D01*
X132845015Y-90169629D01*
X132842915Y-90143818D01*
X132842500Y-90133603D01*
X132842500Y-90125475D01*
X132842078Y-90121853D01*
X132842077Y-90121840D01*
X132839191Y-90097086D01*
X132838758Y-90092710D01*
X132835698Y-90055086D01*
X132832809Y-90019574D01*
X132830553Y-90012612D01*
X132829357Y-90006624D01*
X132827949Y-90000667D01*
X132827101Y-89993393D01*
X132824603Y-89986511D01*
X132824602Y-89986507D01*
X132802055Y-89924393D01*
X132800645Y-89920289D01*
X132778013Y-89850425D01*
X132774213Y-89844162D01*
X132771675Y-89838620D01*
X132768933Y-89833144D01*
X132766434Y-89826259D01*
X132726185Y-89764868D01*
X132723870Y-89761200D01*
X132685773Y-89698419D01*
X132681697Y-89693803D01*
X132678333Y-89689995D01*
X132678362Y-89689969D01*
X132675762Y-89687038D01*
X132672958Y-89683684D01*
X132668946Y-89677565D01*
X132612413Y-89624011D01*
X132609972Y-89621634D01*
X129577405Y-86589067D01*
X129543379Y-86526755D01*
X129540500Y-86499972D01*
X129540500Y-86220028D01*
X129560502Y-86151907D01*
X129577405Y-86130933D01*
X131525453Y-84182885D01*
X132152000Y-84182885D01*
X132156475Y-84198124D01*
X132157865Y-84199329D01*
X132165548Y-84201000D01*
X133212885Y-84201000D01*
X133228124Y-84196525D01*
X133229329Y-84195135D01*
X133231000Y-84187452D01*
X133231000Y-84182885D01*
X133739000Y-84182885D01*
X133743475Y-84198124D01*
X133744865Y-84199329D01*
X133752548Y-84201000D01*
X134799884Y-84201000D01*
X134815123Y-84196525D01*
X134816328Y-84195135D01*
X134817999Y-84187452D01*
X134817999Y-84085331D01*
X134817629Y-84078510D01*
X134812105Y-84027648D01*
X134808479Y-84012396D01*
X134763324Y-83891946D01*
X134754786Y-83876351D01*
X134678285Y-83774276D01*
X134665724Y-83761715D01*
X134563649Y-83685214D01*
X134548054Y-83676676D01*
X134427606Y-83631522D01*
X134412351Y-83627895D01*
X134361486Y-83622369D01*
X134354672Y-83622000D01*
X133757115Y-83622000D01*
X133741876Y-83626475D01*
X133740671Y-83627865D01*
X133739000Y-83635548D01*
X133739000Y-84182885D01*
X133231000Y-84182885D01*
X133231000Y-83640116D01*
X133226525Y-83624877D01*
X133225135Y-83623672D01*
X133217452Y-83622001D01*
X132615331Y-83622001D01*
X132608510Y-83622371D01*
X132557648Y-83627895D01*
X132542396Y-83631521D01*
X132421946Y-83676676D01*
X132406351Y-83685214D01*
X132304276Y-83761715D01*
X132291715Y-83774276D01*
X132215214Y-83876351D01*
X132206676Y-83891946D01*
X132161522Y-84012394D01*
X132157895Y-84027649D01*
X132152369Y-84078514D01*
X132152000Y-84085328D01*
X132152000Y-84182885D01*
X131525453Y-84182885D01*
X131555528Y-84152810D01*
X131569941Y-84140423D01*
X131581665Y-84131795D01*
X131587564Y-84127454D01*
X131621979Y-84086945D01*
X131628909Y-84079429D01*
X131634653Y-84073685D01*
X131636927Y-84070811D01*
X131636933Y-84070804D01*
X131652372Y-84051289D01*
X131655163Y-84047885D01*
X131697945Y-83997528D01*
X131697948Y-83997524D01*
X131702684Y-83991949D01*
X131706012Y-83985432D01*
X131709389Y-83980368D01*
X131712616Y-83975144D01*
X131717160Y-83969400D01*
X131748242Y-83902896D01*
X131750147Y-83898999D01*
X131783543Y-83833596D01*
X131785284Y-83826482D01*
X131787416Y-83820748D01*
X131789344Y-83814952D01*
X131792444Y-83808320D01*
X131807395Y-83736440D01*
X131808365Y-83732156D01*
X131811542Y-83719174D01*
X131825804Y-83660888D01*
X131826500Y-83649670D01*
X131826537Y-83649672D01*
X131826773Y-83645773D01*
X131827163Y-83641402D01*
X131828652Y-83634243D01*
X131826546Y-83556423D01*
X131826500Y-83553014D01*
X131826500Y-80378028D01*
X131846502Y-80309907D01*
X131863405Y-80288933D01*
X133203280Y-78949058D01*
X133265592Y-78915032D01*
X133336407Y-78920097D01*
G37*
%TD.AperFunction*%
%TD*%
M02*
