%TF.GenerationSoftware,KiCad,Pcbnew,6.0.11+dfsg-1~bpo11+1*%
%TF.CreationDate,2023-04-13T10:25:38+00:00*%
%TF.ProjectId,FRAM01A,4652414d-3031-4412-9e6b-696361645f70,rev?*%
%TF.SameCoordinates,Original*%
%TF.FileFunction,Legend,Bot*%
%TF.FilePolarity,Positive*%
%FSLAX46Y46*%
G04 Gerber Fmt 4.6, Leading zero omitted, Abs format (unit mm)*
G04 Created by KiCad (PCBNEW 6.0.11+dfsg-1~bpo11+1) date 2023-04-13 10:25:38*
%MOMM*%
%LPD*%
G01*
G04 APERTURE LIST*
%ADD10C,0.254000*%
%ADD11C,0.150000*%
%ADD12C,0.200000*%
%ADD13C,0.120000*%
G04 APERTURE END LIST*
D10*
%TO.C,IC1*%
X138399761Y-83124523D02*
X138399761Y-81854523D01*
X137069285Y-83003571D02*
X137129761Y-83064047D01*
X137311190Y-83124523D01*
X137432142Y-83124523D01*
X137613571Y-83064047D01*
X137734523Y-82943095D01*
X137795000Y-82822142D01*
X137855476Y-82580238D01*
X137855476Y-82398809D01*
X137795000Y-82156904D01*
X137734523Y-82035952D01*
X137613571Y-81915000D01*
X137432142Y-81854523D01*
X137311190Y-81854523D01*
X137129761Y-81915000D01*
X137069285Y-81975476D01*
X135859761Y-83124523D02*
X136585476Y-83124523D01*
X136222619Y-83124523D02*
X136222619Y-81854523D01*
X136343571Y-82035952D01*
X136464523Y-82156904D01*
X136585476Y-82217380D01*
D11*
%TO.C,D1*%
X137898095Y-75890380D02*
X137898095Y-74890380D01*
X137660000Y-74890380D01*
X137517142Y-74938000D01*
X137421904Y-75033238D01*
X137374285Y-75128476D01*
X137326666Y-75318952D01*
X137326666Y-75461809D01*
X137374285Y-75652285D01*
X137421904Y-75747523D01*
X137517142Y-75842761D01*
X137660000Y-75890380D01*
X137898095Y-75890380D01*
X136374285Y-75890380D02*
X136945714Y-75890380D01*
X136660000Y-75890380D02*
X136660000Y-74890380D01*
X136755238Y-75033238D01*
X136850476Y-75128476D01*
X136945714Y-75176095D01*
%TO.C,C1*%
X142660666Y-93321142D02*
X142708285Y-93368761D01*
X142851142Y-93416380D01*
X142946380Y-93416380D01*
X143089238Y-93368761D01*
X143184476Y-93273523D01*
X143232095Y-93178285D01*
X143279714Y-92987809D01*
X143279714Y-92844952D01*
X143232095Y-92654476D01*
X143184476Y-92559238D01*
X143089238Y-92464000D01*
X142946380Y-92416380D01*
X142851142Y-92416380D01*
X142708285Y-92464000D01*
X142660666Y-92511619D01*
X141708285Y-93416380D02*
X142279714Y-93416380D01*
X141994000Y-93416380D02*
X141994000Y-92416380D01*
X142089238Y-92559238D01*
X142184476Y-92654476D01*
X142279714Y-92702095D01*
%TO.C,C2*%
X142660666Y-91035142D02*
X142708285Y-91082761D01*
X142851142Y-91130380D01*
X142946380Y-91130380D01*
X143089238Y-91082761D01*
X143184476Y-90987523D01*
X143232095Y-90892285D01*
X143279714Y-90701809D01*
X143279714Y-90558952D01*
X143232095Y-90368476D01*
X143184476Y-90273238D01*
X143089238Y-90178000D01*
X142946380Y-90130380D01*
X142851142Y-90130380D01*
X142708285Y-90178000D01*
X142660666Y-90225619D01*
X142279714Y-90225619D02*
X142232095Y-90178000D01*
X142136857Y-90130380D01*
X141898761Y-90130380D01*
X141803523Y-90178000D01*
X141755904Y-90225619D01*
X141708285Y-90320857D01*
X141708285Y-90416095D01*
X141755904Y-90558952D01*
X142327333Y-91130380D01*
X141708285Y-91130380D01*
D12*
%TO.C,IC1*%
X139660000Y-83745000D02*
X134660000Y-83745000D01*
X139660000Y-88975000D02*
X139660000Y-83745000D01*
X132660000Y-88940000D02*
X134310000Y-88940000D01*
X134660000Y-83745000D02*
X134660000Y-88975000D01*
X134660000Y-88975000D02*
X139660000Y-88975000D01*
D13*
%TO.C,D1*%
X133760000Y-79628000D02*
X139160000Y-79628000D01*
X133760000Y-76328000D02*
X139160000Y-76328000D01*
X133760000Y-79628000D02*
X133760000Y-76328000D01*
%TO.C,C1*%
X139961252Y-92229000D02*
X139438748Y-92229000D01*
X139961252Y-93699000D02*
X139438748Y-93699000D01*
%TO.C,C2*%
X140027252Y-91413000D02*
X139504748Y-91413000D01*
X140027252Y-89943000D02*
X139504748Y-89943000D01*
%TD*%
M02*
