%TF.GenerationSoftware,KiCad,Pcbnew,6.0.10+dfsg-1~bpo11+1*%
%TF.CreationDate,2023-01-19T00:06:03+00:00*%
%TF.ProjectId,FRAM01A,4652414d-3031-4412-9e6b-696361645f70,rev?*%
%TF.SameCoordinates,Original*%
%TF.FileFunction,Legend,Bot*%
%TF.FilePolarity,Positive*%
%FSLAX46Y46*%
G04 Gerber Fmt 4.6, Leading zero omitted, Abs format (unit mm)*
G04 Created by KiCad (PCBNEW 6.0.10+dfsg-1~bpo11+1) date 2023-01-19 00:06:03*
%MOMM*%
%LPD*%
G01*
G04 APERTURE LIST*
%ADD10C,0.254000*%
%ADD11C,0.150000*%
%ADD12C,0.200000*%
%ADD13C,0.120000*%
G04 APERTURE END LIST*
D10*
%TO.C,IC1*%
X138399761Y-83124523D02*
X138399761Y-81854523D01*
X137069285Y-83003571D02*
X137129761Y-83064047D01*
X137311190Y-83124523D01*
X137432142Y-83124523D01*
X137613571Y-83064047D01*
X137734523Y-82943095D01*
X137795000Y-82822142D01*
X137855476Y-82580238D01*
X137855476Y-82398809D01*
X137795000Y-82156904D01*
X137734523Y-82035952D01*
X137613571Y-81915000D01*
X137432142Y-81854523D01*
X137311190Y-81854523D01*
X137129761Y-81915000D01*
X137069285Y-81975476D01*
X135859761Y-83124523D02*
X136585476Y-83124523D01*
X136222619Y-83124523D02*
X136222619Y-81854523D01*
X136343571Y-82035952D01*
X136464523Y-82156904D01*
X136585476Y-82217380D01*
D11*
%TO.C,C1*%
X142660666Y-90527142D02*
X142708285Y-90574761D01*
X142851142Y-90622380D01*
X142946380Y-90622380D01*
X143089238Y-90574761D01*
X143184476Y-90479523D01*
X143232095Y-90384285D01*
X143279714Y-90193809D01*
X143279714Y-90050952D01*
X143232095Y-89860476D01*
X143184476Y-89765238D01*
X143089238Y-89670000D01*
X142946380Y-89622380D01*
X142851142Y-89622380D01*
X142708285Y-89670000D01*
X142660666Y-89717619D01*
X141708285Y-90622380D02*
X142279714Y-90622380D01*
X141994000Y-90622380D02*
X141994000Y-89622380D01*
X142089238Y-89765238D01*
X142184476Y-89860476D01*
X142279714Y-89908095D01*
D12*
%TO.C,IC1*%
X139660000Y-83745000D02*
X134660000Y-83745000D01*
X139660000Y-88975000D02*
X139660000Y-83745000D01*
X132660000Y-88940000D02*
X134310000Y-88940000D01*
X134660000Y-83745000D02*
X134660000Y-88975000D01*
X134660000Y-88975000D02*
X139660000Y-88975000D01*
D13*
%TO.C,C1*%
X140335000Y-89408000D02*
X139573000Y-89408000D01*
D11*
X138430000Y-89408000D02*
X138430000Y-90932000D01*
X141478000Y-90932000D02*
X141478000Y-89408000D01*
D13*
X140335000Y-90932000D02*
X139573000Y-90932000D01*
%TD*%
M02*
