%TF.GenerationSoftware,KiCad,Pcbnew,6.0.11+dfsg-1~bpo11+1*%
%TF.CreationDate,2023-04-13T12:00:23+00:00*%
%TF.ProjectId,FRAM01A,4652414d-3031-4412-9e6b-696361645f70,rev?*%
%TF.SameCoordinates,Original*%
%TF.FileFunction,Copper,L1,Top*%
%TF.FilePolarity,Positive*%
%FSLAX46Y46*%
G04 Gerber Fmt 4.6, Leading zero omitted, Abs format (unit mm)*
G04 Created by KiCad (PCBNEW 6.0.11+dfsg-1~bpo11+1) date 2023-04-13 12:00:23*
%MOMM*%
%LPD*%
G01*
G04 APERTURE LIST*
%TA.AperFunction,ComponentPad*%
%ADD10C,6.000000*%
%TD*%
%TA.AperFunction,ComponentPad*%
%ADD11R,1.524000X1.524000*%
%TD*%
%TA.AperFunction,ViaPad*%
%ADD12C,0.800000*%
%TD*%
%TA.AperFunction,Conductor*%
%ADD13C,0.304800*%
%TD*%
G04 APERTURE END LIST*
D10*
%TO.P,M4,1*%
%TO.N,GND*%
X147320000Y-96520000D03*
%TD*%
%TO.P,M1,1*%
%TO.N,GND*%
X137160000Y-76200000D03*
%TD*%
%TO.P,M3,1*%
%TO.N,GND*%
X147320000Y-76200000D03*
%TD*%
D11*
%TO.P,J2,1*%
%TO.N,MISO*%
X146050000Y-82550000D03*
%TO.P,J2,2*%
%TO.N,+3.3V*%
X148590000Y-82550000D03*
%TO.P,J2,3*%
%TO.N,SCK*%
X146050000Y-85090000D03*
%TO.P,J2,4*%
%TO.N,MOSI*%
X148590000Y-85090000D03*
%TO.P,J2,5*%
%TO.N,~{CS}*%
X146050000Y-87630000D03*
%TO.P,J2,6*%
%TO.N,GND*%
X148590000Y-87630000D03*
%TO.P,J2,7*%
%TO.N,~{WP}*%
X146050000Y-90170000D03*
%TO.P,J2,8*%
%TO.N,GND*%
X148590000Y-90170000D03*
%TD*%
D10*
%TO.P,M2,1*%
%TO.N,GND*%
X137160000Y-96520000D03*
%TD*%
D12*
%TO.N,GND*%
X138176000Y-91440000D03*
X133604000Y-84836000D03*
X141478000Y-94742000D03*
X142748000Y-94742000D03*
X133604000Y-81026000D03*
X138176000Y-90424000D03*
X133604000Y-83058000D03*
X137160000Y-84836000D03*
X133604000Y-82042000D03*
X139700000Y-92710000D03*
%TO.N,~{CS}*%
X139700000Y-87630000D03*
%TO.N,~{WP}*%
X137160000Y-86360000D03*
%TD*%
D13*
%TO.N,~{CS}*%
X146050000Y-87630000D02*
X139700000Y-87630000D01*
%TO.N,~{WP}*%
X146050000Y-90170000D02*
X140970000Y-90170000D01*
X140970000Y-90170000D02*
X137160000Y-86360000D01*
%TD*%
%TA.AperFunction,Conductor*%
%TO.N,GND*%
G36*
X151579621Y-71902502D02*
G01*
X151626114Y-71956158D01*
X151637500Y-72008500D01*
X151637500Y-100711500D01*
X151617498Y-100779621D01*
X151563842Y-100826114D01*
X151511500Y-100837500D01*
X132968500Y-100837500D01*
X132900379Y-100817498D01*
X132853886Y-100763842D01*
X132842500Y-100711500D01*
X132842500Y-86360000D01*
X136246496Y-86360000D01*
X136247186Y-86366565D01*
X136262501Y-86512276D01*
X136266458Y-86549928D01*
X136325473Y-86731556D01*
X136420960Y-86896944D01*
X136425378Y-86901851D01*
X136425379Y-86901852D01*
X136469753Y-86951134D01*
X136548747Y-87038866D01*
X136703248Y-87151118D01*
X136709276Y-87153802D01*
X136709278Y-87153803D01*
X136871681Y-87226109D01*
X136877712Y-87228794D01*
X136971113Y-87248647D01*
X137058056Y-87267128D01*
X137058061Y-87267128D01*
X137064513Y-87268500D01*
X137081656Y-87268500D01*
X137149777Y-87288502D01*
X137170751Y-87305405D01*
X140483393Y-90618047D01*
X140489246Y-90624312D01*
X140524524Y-90664752D01*
X140573093Y-90698887D01*
X140578386Y-90702818D01*
X140625122Y-90739463D01*
X140632050Y-90742591D01*
X140638206Y-90746319D01*
X140642825Y-90748954D01*
X140649181Y-90752362D01*
X140655397Y-90756731D01*
X140662476Y-90759491D01*
X140710698Y-90778292D01*
X140716779Y-90780848D01*
X140770912Y-90805290D01*
X140778386Y-90806675D01*
X140785220Y-90808817D01*
X140790368Y-90810284D01*
X140797353Y-90812077D01*
X140804434Y-90814838D01*
X140811971Y-90815830D01*
X140811970Y-90815830D01*
X140863289Y-90822586D01*
X140869805Y-90823618D01*
X140920728Y-90833056D01*
X140920730Y-90833056D01*
X140928197Y-90834440D01*
X140935777Y-90834003D01*
X140935778Y-90834003D01*
X140985968Y-90831109D01*
X140993221Y-90830900D01*
X144653500Y-90830900D01*
X144721621Y-90850902D01*
X144768114Y-90904558D01*
X144779500Y-90956900D01*
X144779500Y-90980134D01*
X144786255Y-91042316D01*
X144837385Y-91178705D01*
X144924739Y-91295261D01*
X145041295Y-91382615D01*
X145177684Y-91433745D01*
X145239866Y-91440500D01*
X146860134Y-91440500D01*
X146922316Y-91433745D01*
X147058705Y-91382615D01*
X147175261Y-91295261D01*
X147219487Y-91236251D01*
X147276344Y-91193736D01*
X147347163Y-91188710D01*
X147409456Y-91222770D01*
X147421138Y-91236251D01*
X147459715Y-91287724D01*
X147472276Y-91300285D01*
X147574351Y-91376786D01*
X147589946Y-91385324D01*
X147710394Y-91430478D01*
X147725649Y-91434105D01*
X147776514Y-91439631D01*
X147783328Y-91440000D01*
X148317885Y-91440000D01*
X148333124Y-91435525D01*
X148334329Y-91434135D01*
X148336000Y-91426452D01*
X148336000Y-91421884D01*
X148844000Y-91421884D01*
X148848475Y-91437123D01*
X148849865Y-91438328D01*
X148857548Y-91439999D01*
X149396669Y-91439999D01*
X149403490Y-91439629D01*
X149454352Y-91434105D01*
X149469604Y-91430479D01*
X149590054Y-91385324D01*
X149605649Y-91376786D01*
X149707724Y-91300285D01*
X149720285Y-91287724D01*
X149796786Y-91185649D01*
X149805324Y-91170054D01*
X149850478Y-91049606D01*
X149854105Y-91034351D01*
X149859631Y-90983486D01*
X149860000Y-90976672D01*
X149860000Y-90442115D01*
X149855525Y-90426876D01*
X149854135Y-90425671D01*
X149846452Y-90424000D01*
X148862115Y-90424000D01*
X148846876Y-90428475D01*
X148845671Y-90429865D01*
X148844000Y-90437548D01*
X148844000Y-91421884D01*
X148336000Y-91421884D01*
X148336000Y-89897885D01*
X148844000Y-89897885D01*
X148848475Y-89913124D01*
X148849865Y-89914329D01*
X148857548Y-89916000D01*
X149841884Y-89916000D01*
X149857123Y-89911525D01*
X149858328Y-89910135D01*
X149859999Y-89902452D01*
X149859999Y-89363331D01*
X149859629Y-89356510D01*
X149854105Y-89305648D01*
X149850479Y-89290396D01*
X149805324Y-89169946D01*
X149796786Y-89154351D01*
X149720285Y-89052276D01*
X149707725Y-89039716D01*
X149655835Y-89000827D01*
X149613319Y-88943968D01*
X149608293Y-88873149D01*
X149642353Y-88810856D01*
X149655835Y-88799173D01*
X149707725Y-88760284D01*
X149720285Y-88747724D01*
X149796786Y-88645649D01*
X149805324Y-88630054D01*
X149850478Y-88509606D01*
X149854105Y-88494351D01*
X149859631Y-88443486D01*
X149860000Y-88436672D01*
X149860000Y-87902115D01*
X149855525Y-87886876D01*
X149854135Y-87885671D01*
X149846452Y-87884000D01*
X148862115Y-87884000D01*
X148846876Y-87888475D01*
X148845671Y-87889865D01*
X148844000Y-87897548D01*
X148844000Y-89897885D01*
X148336000Y-89897885D01*
X148336000Y-87502000D01*
X148356002Y-87433879D01*
X148409658Y-87387386D01*
X148462000Y-87376000D01*
X149841884Y-87376000D01*
X149857123Y-87371525D01*
X149858328Y-87370135D01*
X149859999Y-87362452D01*
X149859999Y-86823331D01*
X149859629Y-86816510D01*
X149854105Y-86765648D01*
X149850479Y-86750396D01*
X149805324Y-86629946D01*
X149796786Y-86614351D01*
X149720285Y-86512276D01*
X149707724Y-86499715D01*
X149656251Y-86461138D01*
X149613736Y-86404279D01*
X149608710Y-86333460D01*
X149642770Y-86271167D01*
X149656245Y-86259491D01*
X149715261Y-86215261D01*
X149802615Y-86098705D01*
X149853745Y-85962316D01*
X149860500Y-85900134D01*
X149860500Y-84279866D01*
X149853745Y-84217684D01*
X149802615Y-84081295D01*
X149715261Y-83964739D01*
X149656668Y-83920826D01*
X149614153Y-83863967D01*
X149609127Y-83793148D01*
X149643187Y-83730855D01*
X149656668Y-83719174D01*
X149708081Y-83680642D01*
X149715261Y-83675261D01*
X149802615Y-83558705D01*
X149853745Y-83422316D01*
X149860500Y-83360134D01*
X149860500Y-81739866D01*
X149853745Y-81677684D01*
X149802615Y-81541295D01*
X149715261Y-81424739D01*
X149598705Y-81337385D01*
X149462316Y-81286255D01*
X149400134Y-81279500D01*
X147779866Y-81279500D01*
X147717684Y-81286255D01*
X147581295Y-81337385D01*
X147464739Y-81424739D01*
X147459358Y-81431919D01*
X147420826Y-81483332D01*
X147363967Y-81525847D01*
X147293148Y-81530873D01*
X147230855Y-81496813D01*
X147219174Y-81483332D01*
X147180642Y-81431919D01*
X147175261Y-81424739D01*
X147058705Y-81337385D01*
X146922316Y-81286255D01*
X146860134Y-81279500D01*
X145239866Y-81279500D01*
X145177684Y-81286255D01*
X145041295Y-81337385D01*
X144924739Y-81424739D01*
X144837385Y-81541295D01*
X144786255Y-81677684D01*
X144779500Y-81739866D01*
X144779500Y-83360134D01*
X144786255Y-83422316D01*
X144837385Y-83558705D01*
X144924739Y-83675261D01*
X144931919Y-83680642D01*
X144983332Y-83719174D01*
X145025847Y-83776033D01*
X145030873Y-83846852D01*
X144996813Y-83909145D01*
X144983333Y-83920825D01*
X144924739Y-83964739D01*
X144837385Y-84081295D01*
X144786255Y-84217684D01*
X144779500Y-84279866D01*
X144779500Y-85900134D01*
X144786255Y-85962316D01*
X144837385Y-86098705D01*
X144924739Y-86215261D01*
X144931918Y-86220641D01*
X144931919Y-86220642D01*
X144983332Y-86259174D01*
X145025847Y-86316033D01*
X145030873Y-86386852D01*
X144996813Y-86449145D01*
X144983333Y-86460825D01*
X144924739Y-86504739D01*
X144837385Y-86621295D01*
X144786255Y-86757684D01*
X144779500Y-86819866D01*
X144779500Y-86843100D01*
X144759498Y-86911221D01*
X144705842Y-86957714D01*
X144653500Y-86969100D01*
X140376921Y-86969100D01*
X140308800Y-86949098D01*
X140302860Y-86945036D01*
X140162094Y-86842763D01*
X140162093Y-86842762D01*
X140156752Y-86838882D01*
X140150724Y-86836198D01*
X140150722Y-86836197D01*
X139988319Y-86763891D01*
X139988318Y-86763891D01*
X139982288Y-86761206D01*
X139869721Y-86737279D01*
X139801944Y-86722872D01*
X139801939Y-86722872D01*
X139795487Y-86721500D01*
X139604513Y-86721500D01*
X139598061Y-86722872D01*
X139598056Y-86722872D01*
X139530279Y-86737279D01*
X139417712Y-86761206D01*
X139411682Y-86763891D01*
X139411681Y-86763891D01*
X139249278Y-86836197D01*
X139249276Y-86836198D01*
X139243248Y-86838882D01*
X139088747Y-86951134D01*
X138986668Y-87064505D01*
X138926226Y-87101742D01*
X138855242Y-87100391D01*
X138803940Y-87069287D01*
X138102571Y-86367918D01*
X138068545Y-86305606D01*
X138066356Y-86291993D01*
X138064135Y-86270855D01*
X138058857Y-86220641D01*
X138054232Y-86176635D01*
X138054232Y-86176633D01*
X138053542Y-86170072D01*
X137994527Y-85988444D01*
X137899040Y-85823056D01*
X137771253Y-85681134D01*
X137616752Y-85568882D01*
X137610724Y-85566198D01*
X137610722Y-85566197D01*
X137448319Y-85493891D01*
X137448318Y-85493891D01*
X137442288Y-85491206D01*
X137348887Y-85471353D01*
X137261944Y-85452872D01*
X137261939Y-85452872D01*
X137255487Y-85451500D01*
X137064513Y-85451500D01*
X137058061Y-85452872D01*
X137058056Y-85452872D01*
X136971112Y-85471353D01*
X136877712Y-85491206D01*
X136871682Y-85493891D01*
X136871681Y-85493891D01*
X136709278Y-85566197D01*
X136709276Y-85566198D01*
X136703248Y-85568882D01*
X136548747Y-85681134D01*
X136420960Y-85823056D01*
X136325473Y-85988444D01*
X136266458Y-86170072D01*
X136265768Y-86176633D01*
X136265768Y-86176635D01*
X136261143Y-86220641D01*
X136246496Y-86360000D01*
X132842500Y-86360000D01*
X132842500Y-72008500D01*
X132862502Y-71940379D01*
X132916158Y-71893886D01*
X132968500Y-71882500D01*
X151511500Y-71882500D01*
X151579621Y-71902502D01*
G37*
%TD.AperFunction*%
%TD*%
M02*
