M48
; DRILL file {KiCad 6.0.11+dfsg-1~bpo11+1} date Thu Apr 13 12:00:23 2023
; FORMAT={-:-/ absolute / metric / decimal}
; #@! TF.CreationDate,2023-04-13T12:00:23+00:00
; #@! TF.GenerationSoftware,Kicad,Pcbnew,6.0.11+dfsg-1~bpo11+1
; #@! TF.FileFunction,Plated,1,2,PTH
FMAT,2
METRIC
; #@! TA.AperFunction,Plated,PTH,ViaDrill
T1C0.400
; #@! TA.AperFunction,Plated,PTH,ComponentDrill
T2C0.889
; #@! TA.AperFunction,Plated,PTH,ComponentDrill
T3C3.000
%
G90
G05
T1
X133.604Y-81.026
X133.604Y-82.042
X133.604Y-83.058
X133.604Y-84.836
X137.16Y-84.836
X137.16Y-86.36
X138.176Y-90.424
X138.176Y-91.44
X139.7Y-87.63
X139.7Y-92.71
X141.478Y-94.742
X142.748Y-94.742
T2
X146.05Y-82.55
X146.05Y-85.09
X146.05Y-87.63
X146.05Y-90.17
X148.59Y-82.55
X148.59Y-85.09
X148.59Y-87.63
X148.59Y-90.17
T3
X137.16Y-76.2
X137.16Y-96.52
X147.32Y-76.2
X147.32Y-96.52
T0
M30
