%TF.GenerationSoftware,KiCad,Pcbnew,6.0.10+dfsg-1~bpo11+1*%
%TF.CreationDate,2023-01-19T00:06:03+00:00*%
%TF.ProjectId,FRAM01A,4652414d-3031-4412-9e6b-696361645f70,rev?*%
%TF.SameCoordinates,Original*%
%TF.FileFunction,Copper,L2,Bot*%
%TF.FilePolarity,Positive*%
%FSLAX46Y46*%
G04 Gerber Fmt 4.6, Leading zero omitted, Abs format (unit mm)*
G04 Created by KiCad (PCBNEW 6.0.10+dfsg-1~bpo11+1) date 2023-01-19 00:06:03*
%MOMM*%
%LPD*%
G01*
G04 APERTURE LIST*
%TA.AperFunction,ComponentPad*%
%ADD10C,6.000000*%
%TD*%
%TA.AperFunction,ComponentPad*%
%ADD11R,1.524000X1.524000*%
%TD*%
%TA.AperFunction,SMDPad,CuDef*%
%ADD12R,1.650000X0.650000*%
%TD*%
%TA.AperFunction,SMDPad,CuDef*%
%ADD13R,0.889000X1.397000*%
%TD*%
%TA.AperFunction,ViaPad*%
%ADD14C,0.800000*%
%TD*%
%TA.AperFunction,Conductor*%
%ADD15C,0.508000*%
%TD*%
%TA.AperFunction,Conductor*%
%ADD16C,0.250000*%
%TD*%
%TA.AperFunction,Conductor*%
%ADD17C,0.400000*%
%TD*%
G04 APERTURE END LIST*
D10*
%TO.P,H2,1,1*%
%TO.N,GND*%
X127000000Y-76200000D03*
%TD*%
%TO.P,H1,1,1*%
%TO.N,GND*%
X147320000Y-96520000D03*
%TD*%
D11*
%TO.P,J1,1*%
%TO.N,GND*%
X125730000Y-83820000D03*
%TO.P,J1,2*%
X128270000Y-83820000D03*
%TO.P,J1,3*%
%TO.N,VDD*%
X125730000Y-86360000D03*
%TO.P,J1,4*%
X128270000Y-86360000D03*
%TO.P,J1,5*%
%TO.N,GND*%
X125730000Y-88900000D03*
%TO.P,J1,6*%
X128270000Y-88900000D03*
%TD*%
D10*
%TO.P,H4,1,1*%
%TO.N,GND*%
X127000000Y-96520000D03*
%TD*%
D11*
%TO.P,J2,1*%
%TO.N,MISO*%
X146050000Y-82550000D03*
%TO.P,J2,2*%
%TO.N,VDD*%
X148590000Y-82550000D03*
%TO.P,J2,3*%
%TO.N,SCK*%
X146050000Y-85090000D03*
%TO.P,J2,4*%
%TO.N,MOSI*%
X148590000Y-85090000D03*
%TO.P,J2,5*%
%TO.N,~{CS}*%
X146050000Y-87630000D03*
%TO.P,J2,6*%
%TO.N,GND*%
X148590000Y-87630000D03*
%TO.P,J2,7*%
%TO.N,~{WP}*%
X146050000Y-90170000D03*
%TO.P,J2,8*%
%TO.N,GND*%
X148590000Y-90170000D03*
%TD*%
D10*
%TO.P,H3,1,1*%
%TO.N,GND*%
X147320000Y-76200000D03*
%TD*%
D12*
%TO.P,IC1,1,~{CS}*%
%TO.N,~{CS}*%
X133485000Y-88265000D03*
%TO.P,IC1,2,SO*%
%TO.N,MISO*%
X133485000Y-86995000D03*
%TO.P,IC1,3,~{WP}*%
%TO.N,~{WP}*%
X133485000Y-85725000D03*
%TO.P,IC1,4,VSS*%
%TO.N,GND*%
X133485000Y-84455000D03*
%TO.P,IC1,5,SI*%
%TO.N,MOSI*%
X140835000Y-84455000D03*
%TO.P,IC1,6,SCK*%
%TO.N,SCK*%
X140835000Y-85725000D03*
%TO.P,IC1,7,DNU*%
%TO.N,unconnected-(IC1-Pad7)*%
X140835000Y-86995000D03*
%TO.P,IC1,8,VDD*%
%TO.N,VDD*%
X140835000Y-88265000D03*
%TD*%
D13*
%TO.P,C1,1*%
%TO.N,VDD*%
X140906500Y-90170000D03*
%TO.P,C1,2*%
%TO.N,GND*%
X139001500Y-90170000D03*
%TD*%
D14*
%TO.N,VDD*%
X140970000Y-91694000D03*
%TO.N,GND*%
X134112000Y-83058000D03*
X137414000Y-89662000D03*
X131572000Y-84582000D03*
X136398000Y-90424000D03*
X135128000Y-83058000D03*
X135382000Y-84582000D03*
X136144000Y-89408000D03*
X133096000Y-83058000D03*
X137414000Y-90678000D03*
%TO.N,~{WP}*%
X131572000Y-86614000D03*
%TD*%
D15*
%TO.N,VDD*%
X140970000Y-91694000D02*
X140970000Y-90233500D01*
X140906500Y-90170000D02*
X140906500Y-88336500D01*
D16*
X140906500Y-88336500D02*
X140835000Y-88265000D01*
X140970000Y-90233500D02*
X140906500Y-90170000D01*
D15*
X128270000Y-86360000D02*
X125730000Y-86360000D01*
D17*
%TO.N,~{CS}*%
X143764000Y-88646000D02*
X144780000Y-87630000D01*
X144780000Y-87630000D02*
X146050000Y-87630000D01*
X133485000Y-88265000D02*
X133485000Y-89289000D01*
X143764000Y-90424000D02*
X143764000Y-88646000D01*
X136906000Y-92710000D02*
X141478000Y-92710000D01*
X141478000Y-92710000D02*
X143764000Y-90424000D01*
X133485000Y-89289000D02*
X136906000Y-92710000D01*
%TO.N,MISO*%
X133485000Y-86995000D02*
X134747000Y-86995000D01*
X139192000Y-82550000D02*
X146050000Y-82550000D01*
X134747000Y-86995000D02*
X139192000Y-82550000D01*
D16*
%TO.N,~{WP}*%
X131572000Y-86360000D02*
X131572000Y-86614000D01*
D17*
X132207000Y-85725000D02*
X131572000Y-86360000D01*
X133485000Y-85725000D02*
X132207000Y-85725000D01*
%TO.N,MOSI*%
X140835000Y-84455000D02*
X142367000Y-84455000D01*
X143002000Y-83820000D02*
X147320000Y-83820000D01*
X147320000Y-83820000D02*
X148590000Y-85090000D01*
X142367000Y-84455000D02*
X143002000Y-83820000D01*
%TO.N,SCK*%
X140835000Y-85725000D02*
X143891000Y-85725000D01*
X143891000Y-85725000D02*
X144526000Y-85090000D01*
X144526000Y-85090000D02*
X146050000Y-85090000D01*
%TD*%
%TA.AperFunction,Conductor*%
%TO.N,GND*%
G36*
X151579621Y-71902502D02*
G01*
X151626114Y-71956158D01*
X151637500Y-72008500D01*
X151637500Y-100711500D01*
X151617498Y-100779621D01*
X151563842Y-100826114D01*
X151511500Y-100837500D01*
X122808500Y-100837500D01*
X122740379Y-100817498D01*
X122693886Y-100763842D01*
X122682500Y-100711500D01*
X122682500Y-89706669D01*
X124460001Y-89706669D01*
X124460371Y-89713490D01*
X124465895Y-89764352D01*
X124469521Y-89779604D01*
X124514676Y-89900054D01*
X124523214Y-89915649D01*
X124599715Y-90017724D01*
X124612276Y-90030285D01*
X124714351Y-90106786D01*
X124729946Y-90115324D01*
X124850394Y-90160478D01*
X124865649Y-90164105D01*
X124916514Y-90169631D01*
X124923328Y-90170000D01*
X125457885Y-90170000D01*
X125473124Y-90165525D01*
X125474329Y-90164135D01*
X125476000Y-90156452D01*
X125476000Y-90151884D01*
X125984000Y-90151884D01*
X125988475Y-90167123D01*
X125989865Y-90168328D01*
X125997548Y-90169999D01*
X126536669Y-90169999D01*
X126543490Y-90169629D01*
X126594352Y-90164105D01*
X126609604Y-90160479D01*
X126730054Y-90115324D01*
X126745649Y-90106786D01*
X126847724Y-90030285D01*
X126860284Y-90017725D01*
X126899173Y-89965835D01*
X126956032Y-89923319D01*
X127026851Y-89918293D01*
X127089144Y-89952353D01*
X127100827Y-89965835D01*
X127139716Y-90017725D01*
X127152276Y-90030285D01*
X127254351Y-90106786D01*
X127269946Y-90115324D01*
X127390394Y-90160478D01*
X127405649Y-90164105D01*
X127456514Y-90169631D01*
X127463328Y-90170000D01*
X127997885Y-90170000D01*
X128013124Y-90165525D01*
X128014329Y-90164135D01*
X128016000Y-90156452D01*
X128016000Y-90151884D01*
X128524000Y-90151884D01*
X128528475Y-90167123D01*
X128529865Y-90168328D01*
X128537548Y-90169999D01*
X129076669Y-90169999D01*
X129083490Y-90169629D01*
X129134352Y-90164105D01*
X129149604Y-90160479D01*
X129270054Y-90115324D01*
X129285649Y-90106786D01*
X129387724Y-90030285D01*
X129400285Y-90017724D01*
X129476786Y-89915649D01*
X129485324Y-89900054D01*
X129530478Y-89779606D01*
X129534105Y-89764351D01*
X129539631Y-89713486D01*
X129540000Y-89706672D01*
X129540000Y-89172115D01*
X129535525Y-89156876D01*
X129534135Y-89155671D01*
X129526452Y-89154000D01*
X128542115Y-89154000D01*
X128526876Y-89158475D01*
X128525671Y-89159865D01*
X128524000Y-89167548D01*
X128524000Y-90151884D01*
X128016000Y-90151884D01*
X128016000Y-89172115D01*
X128011525Y-89156876D01*
X128010135Y-89155671D01*
X128002452Y-89154000D01*
X126002115Y-89154000D01*
X125986876Y-89158475D01*
X125985671Y-89159865D01*
X125984000Y-89167548D01*
X125984000Y-90151884D01*
X125476000Y-90151884D01*
X125476000Y-89172115D01*
X125471525Y-89156876D01*
X125470135Y-89155671D01*
X125462452Y-89154000D01*
X124478116Y-89154000D01*
X124462877Y-89158475D01*
X124461672Y-89159865D01*
X124460001Y-89167548D01*
X124460001Y-89706669D01*
X122682500Y-89706669D01*
X122682500Y-87170134D01*
X124459500Y-87170134D01*
X124466255Y-87232316D01*
X124517385Y-87368705D01*
X124604739Y-87485261D01*
X124663749Y-87529487D01*
X124706264Y-87586344D01*
X124711290Y-87657163D01*
X124677230Y-87719456D01*
X124663749Y-87731138D01*
X124612276Y-87769715D01*
X124599715Y-87782276D01*
X124523214Y-87884351D01*
X124514676Y-87899946D01*
X124469522Y-88020394D01*
X124465895Y-88035649D01*
X124460369Y-88086514D01*
X124460000Y-88093328D01*
X124460000Y-88627885D01*
X124464475Y-88643124D01*
X124465865Y-88644329D01*
X124473548Y-88646000D01*
X129521884Y-88646000D01*
X129537123Y-88641525D01*
X129538328Y-88640135D01*
X129539999Y-88632452D01*
X129539999Y-88093331D01*
X129539629Y-88086510D01*
X129534105Y-88035648D01*
X129530479Y-88020396D01*
X129485324Y-87899946D01*
X129476786Y-87884351D01*
X129400285Y-87782276D01*
X129387724Y-87769715D01*
X129336251Y-87731138D01*
X129293736Y-87674279D01*
X129288710Y-87603460D01*
X129322770Y-87541167D01*
X129336245Y-87529491D01*
X129395261Y-87485261D01*
X129482615Y-87368705D01*
X129533745Y-87232316D01*
X129540500Y-87170134D01*
X129540500Y-86614000D01*
X130658496Y-86614000D01*
X130659186Y-86620565D01*
X130674435Y-86765648D01*
X130678458Y-86803928D01*
X130737473Y-86985556D01*
X130740776Y-86991278D01*
X130740777Y-86991279D01*
X130774686Y-87050010D01*
X130832960Y-87150944D01*
X130837378Y-87155851D01*
X130837379Y-87155852D01*
X130912890Y-87239715D01*
X130960747Y-87292866D01*
X130992500Y-87315936D01*
X131079475Y-87379127D01*
X131115248Y-87405118D01*
X131121276Y-87407802D01*
X131121278Y-87407803D01*
X131283681Y-87480109D01*
X131289712Y-87482794D01*
X131380069Y-87502000D01*
X131470056Y-87521128D01*
X131470061Y-87521128D01*
X131476513Y-87522500D01*
X131667487Y-87522500D01*
X131673939Y-87521128D01*
X131673944Y-87521128D01*
X131763931Y-87502000D01*
X131854288Y-87482794D01*
X131863812Y-87478554D01*
X131897614Y-87463504D01*
X132009383Y-87413742D01*
X132079748Y-87404308D01*
X132144045Y-87434414D01*
X132178612Y-87484619D01*
X132195759Y-87530357D01*
X132209385Y-87566705D01*
X132212727Y-87571164D01*
X132227530Y-87638848D01*
X132212933Y-87688561D01*
X132209385Y-87693295D01*
X132206236Y-87701696D01*
X132206234Y-87701699D01*
X132195198Y-87731138D01*
X132158255Y-87829684D01*
X132151500Y-87891866D01*
X132151500Y-88638134D01*
X132158255Y-88700316D01*
X132209385Y-88836705D01*
X132296739Y-88953261D01*
X132413295Y-89040615D01*
X132549684Y-89091745D01*
X132611866Y-89098500D01*
X132650500Y-89098500D01*
X132718621Y-89118502D01*
X132765114Y-89172158D01*
X132776500Y-89224500D01*
X132776500Y-89260088D01*
X132776208Y-89268658D01*
X132773694Y-89305540D01*
X132772275Y-89326352D01*
X132773580Y-89333829D01*
X132773580Y-89333830D01*
X132783261Y-89389299D01*
X132784223Y-89395821D01*
X132791898Y-89459242D01*
X132794581Y-89466343D01*
X132795222Y-89468952D01*
X132799685Y-89485262D01*
X132800450Y-89487798D01*
X132801757Y-89495284D01*
X132804811Y-89502241D01*
X132827442Y-89553795D01*
X132829933Y-89559899D01*
X132852513Y-89619656D01*
X132856817Y-89625919D01*
X132858054Y-89628285D01*
X132866299Y-89643097D01*
X132867632Y-89645351D01*
X132870685Y-89652305D01*
X132875307Y-89658328D01*
X132909579Y-89702991D01*
X132913459Y-89708332D01*
X132945339Y-89754720D01*
X132945344Y-89754725D01*
X132949643Y-89760981D01*
X132955313Y-89766032D01*
X132955314Y-89766034D01*
X132996170Y-89802435D01*
X133001446Y-89807416D01*
X136384550Y-93190520D01*
X136390404Y-93196785D01*
X136428439Y-93240385D01*
X136434657Y-93244755D01*
X136480697Y-93277112D01*
X136485993Y-93281045D01*
X136536282Y-93320477D01*
X136543204Y-93323602D01*
X136545452Y-93324964D01*
X136560185Y-93333368D01*
X136562524Y-93334622D01*
X136568739Y-93338990D01*
X136575815Y-93341749D01*
X136575819Y-93341751D01*
X136628274Y-93362202D01*
X136634352Y-93364757D01*
X136692574Y-93391045D01*
X136700045Y-93392429D01*
X136702599Y-93393230D01*
X136718878Y-93397867D01*
X136721433Y-93398523D01*
X136728509Y-93401282D01*
X136749262Y-93404014D01*
X136791851Y-93409621D01*
X136798367Y-93410653D01*
X136851865Y-93420568D01*
X136861187Y-93422296D01*
X136868767Y-93421859D01*
X136868768Y-93421859D01*
X136923398Y-93418709D01*
X136930651Y-93418500D01*
X141449088Y-93418500D01*
X141457658Y-93418792D01*
X141507776Y-93422209D01*
X141507780Y-93422209D01*
X141515352Y-93422725D01*
X141522829Y-93421420D01*
X141522830Y-93421420D01*
X141549308Y-93416799D01*
X141578303Y-93411738D01*
X141584821Y-93410777D01*
X141648242Y-93403102D01*
X141655343Y-93400419D01*
X141657952Y-93399778D01*
X141674262Y-93395315D01*
X141676798Y-93394550D01*
X141684284Y-93393243D01*
X141742800Y-93367556D01*
X141748904Y-93365065D01*
X141749717Y-93364758D01*
X141808656Y-93342487D01*
X141814919Y-93338183D01*
X141817285Y-93336946D01*
X141832097Y-93328701D01*
X141834351Y-93327368D01*
X141841305Y-93324315D01*
X141892002Y-93285413D01*
X141897332Y-93281541D01*
X141943720Y-93249661D01*
X141943725Y-93249656D01*
X141949981Y-93245357D01*
X141991436Y-93198829D01*
X141996416Y-93193554D01*
X144244528Y-90945443D01*
X144250793Y-90939589D01*
X144288664Y-90906552D01*
X144288665Y-90906551D01*
X144294385Y-90901561D01*
X144331136Y-90849271D01*
X144335028Y-90844029D01*
X144374476Y-90793718D01*
X144377600Y-90786799D01*
X144378988Y-90784507D01*
X144387357Y-90769835D01*
X144388622Y-90767475D01*
X144392990Y-90761261D01*
X144416203Y-90701723D01*
X144418759Y-90695642D01*
X144441918Y-90644352D01*
X144445045Y-90637427D01*
X144446430Y-90629954D01*
X144447234Y-90627388D01*
X144451855Y-90611165D01*
X144452520Y-90608573D01*
X144455282Y-90601491D01*
X144463622Y-90538139D01*
X144464654Y-90531623D01*
X144474911Y-90476281D01*
X144476295Y-90468814D01*
X144472709Y-90406620D01*
X144472500Y-90399367D01*
X144472500Y-88991660D01*
X144492502Y-88923539D01*
X144509405Y-88902565D01*
X144707153Y-88704817D01*
X144769465Y-88670791D01*
X144840280Y-88675856D01*
X144897073Y-88718347D01*
X144924739Y-88755261D01*
X144931919Y-88760642D01*
X144983332Y-88799174D01*
X145025847Y-88856033D01*
X145030873Y-88926852D01*
X144996813Y-88989145D01*
X144983333Y-89000825D01*
X144924739Y-89044739D01*
X144837385Y-89161295D01*
X144786255Y-89297684D01*
X144779500Y-89359866D01*
X144779500Y-90980134D01*
X144786255Y-91042316D01*
X144837385Y-91178705D01*
X144924739Y-91295261D01*
X145041295Y-91382615D01*
X145177684Y-91433745D01*
X145239866Y-91440500D01*
X146860134Y-91440500D01*
X146922316Y-91433745D01*
X147058705Y-91382615D01*
X147175261Y-91295261D01*
X147219487Y-91236251D01*
X147276344Y-91193736D01*
X147347163Y-91188710D01*
X147409456Y-91222770D01*
X147421138Y-91236251D01*
X147459715Y-91287724D01*
X147472276Y-91300285D01*
X147574351Y-91376786D01*
X147589946Y-91385324D01*
X147710394Y-91430478D01*
X147725649Y-91434105D01*
X147776514Y-91439631D01*
X147783328Y-91440000D01*
X148317885Y-91440000D01*
X148333124Y-91435525D01*
X148334329Y-91434135D01*
X148336000Y-91426452D01*
X148336000Y-91421884D01*
X148844000Y-91421884D01*
X148848475Y-91437123D01*
X148849865Y-91438328D01*
X148857548Y-91439999D01*
X149396669Y-91439999D01*
X149403490Y-91439629D01*
X149454352Y-91434105D01*
X149469604Y-91430479D01*
X149590054Y-91385324D01*
X149605649Y-91376786D01*
X149707724Y-91300285D01*
X149720285Y-91287724D01*
X149796786Y-91185649D01*
X149805324Y-91170054D01*
X149850478Y-91049606D01*
X149854105Y-91034351D01*
X149859631Y-90983486D01*
X149860000Y-90976672D01*
X149860000Y-90442115D01*
X149855525Y-90426876D01*
X149854135Y-90425671D01*
X149846452Y-90424000D01*
X148862115Y-90424000D01*
X148846876Y-90428475D01*
X148845671Y-90429865D01*
X148844000Y-90437548D01*
X148844000Y-91421884D01*
X148336000Y-91421884D01*
X148336000Y-89897885D01*
X148844000Y-89897885D01*
X148848475Y-89913124D01*
X148849865Y-89914329D01*
X148857548Y-89916000D01*
X149841884Y-89916000D01*
X149857123Y-89911525D01*
X149858328Y-89910135D01*
X149859999Y-89902452D01*
X149859999Y-89363331D01*
X149859629Y-89356510D01*
X149854105Y-89305648D01*
X149850479Y-89290396D01*
X149805324Y-89169946D01*
X149796786Y-89154351D01*
X149720285Y-89052276D01*
X149707725Y-89039716D01*
X149655835Y-89000827D01*
X149613319Y-88943968D01*
X149608293Y-88873149D01*
X149642353Y-88810856D01*
X149655835Y-88799173D01*
X149707725Y-88760284D01*
X149720285Y-88747724D01*
X149796786Y-88645649D01*
X149805324Y-88630054D01*
X149850478Y-88509606D01*
X149854105Y-88494351D01*
X149859631Y-88443486D01*
X149860000Y-88436672D01*
X149860000Y-87902115D01*
X149855525Y-87886876D01*
X149854135Y-87885671D01*
X149846452Y-87884000D01*
X148862115Y-87884000D01*
X148846876Y-87888475D01*
X148845671Y-87889865D01*
X148844000Y-87897548D01*
X148844000Y-89897885D01*
X148336000Y-89897885D01*
X148336000Y-87502000D01*
X148356002Y-87433879D01*
X148409658Y-87387386D01*
X148462000Y-87376000D01*
X149841884Y-87376000D01*
X149857123Y-87371525D01*
X149858328Y-87370135D01*
X149859999Y-87362452D01*
X149859999Y-86823331D01*
X149859629Y-86816510D01*
X149854105Y-86765648D01*
X149850479Y-86750396D01*
X149805324Y-86629946D01*
X149796786Y-86614351D01*
X149720285Y-86512276D01*
X149707724Y-86499715D01*
X149656251Y-86461138D01*
X149613736Y-86404279D01*
X149608710Y-86333460D01*
X149642770Y-86271167D01*
X149656245Y-86259491D01*
X149715261Y-86215261D01*
X149802615Y-86098705D01*
X149853745Y-85962316D01*
X149860500Y-85900134D01*
X149860500Y-84279866D01*
X149853745Y-84217684D01*
X149802615Y-84081295D01*
X149715261Y-83964739D01*
X149656668Y-83920826D01*
X149614153Y-83863967D01*
X149609127Y-83793148D01*
X149643187Y-83730855D01*
X149656668Y-83719174D01*
X149663452Y-83714090D01*
X149715261Y-83675261D01*
X149802615Y-83558705D01*
X149853745Y-83422316D01*
X149860500Y-83360134D01*
X149860500Y-81739866D01*
X149853745Y-81677684D01*
X149802615Y-81541295D01*
X149715261Y-81424739D01*
X149598705Y-81337385D01*
X149462316Y-81286255D01*
X149400134Y-81279500D01*
X147779866Y-81279500D01*
X147717684Y-81286255D01*
X147581295Y-81337385D01*
X147464739Y-81424739D01*
X147459358Y-81431919D01*
X147420826Y-81483332D01*
X147363967Y-81525847D01*
X147293148Y-81530873D01*
X147230855Y-81496813D01*
X147219174Y-81483332D01*
X147180642Y-81431919D01*
X147175261Y-81424739D01*
X147058705Y-81337385D01*
X146922316Y-81286255D01*
X146860134Y-81279500D01*
X145239866Y-81279500D01*
X145177684Y-81286255D01*
X145041295Y-81337385D01*
X144924739Y-81424739D01*
X144837385Y-81541295D01*
X144786255Y-81677684D01*
X144785402Y-81685536D01*
X144785401Y-81685540D01*
X144780669Y-81729107D01*
X144753428Y-81794669D01*
X144695065Y-81835096D01*
X144655406Y-81841500D01*
X139220912Y-81841500D01*
X139212342Y-81841208D01*
X139162224Y-81837791D01*
X139162220Y-81837791D01*
X139154648Y-81837275D01*
X139147171Y-81838580D01*
X139147170Y-81838580D01*
X139132113Y-81841208D01*
X139091703Y-81848261D01*
X139085186Y-81849222D01*
X139021758Y-81856898D01*
X139014650Y-81859584D01*
X139012056Y-81860221D01*
X138995750Y-81864682D01*
X138993199Y-81865452D01*
X138985716Y-81866758D01*
X138978764Y-81869810D01*
X138978763Y-81869810D01*
X138927212Y-81892439D01*
X138921105Y-81894931D01*
X138868452Y-81914827D01*
X138861344Y-81917513D01*
X138855083Y-81921816D01*
X138852717Y-81923053D01*
X138837937Y-81931280D01*
X138835652Y-81932631D01*
X138828695Y-81935685D01*
X138822675Y-81940305D01*
X138822669Y-81940308D01*
X138791542Y-81964194D01*
X138777998Y-81974587D01*
X138772668Y-81978459D01*
X138726280Y-82010339D01*
X138726275Y-82010344D01*
X138720019Y-82014643D01*
X138714968Y-82020313D01*
X138714966Y-82020314D01*
X138678565Y-82061170D01*
X138673584Y-82066446D01*
X135033595Y-85706435D01*
X134971283Y-85740461D01*
X134900468Y-85735396D01*
X134843632Y-85692849D01*
X134818821Y-85626329D01*
X134818500Y-85617340D01*
X134818500Y-85351866D01*
X134811745Y-85289684D01*
X134789130Y-85229359D01*
X134763766Y-85161699D01*
X134763764Y-85161696D01*
X134760615Y-85153295D01*
X134757029Y-85148510D01*
X134742182Y-85080626D01*
X134757351Y-85028965D01*
X134763323Y-85018058D01*
X134808478Y-84897606D01*
X134812105Y-84882351D01*
X134817631Y-84831486D01*
X134818000Y-84824672D01*
X134818000Y-84727115D01*
X134813525Y-84711876D01*
X134812135Y-84710671D01*
X134804452Y-84709000D01*
X132170116Y-84709000D01*
X132154877Y-84713475D01*
X132153672Y-84714865D01*
X132152001Y-84722548D01*
X132152001Y-84824669D01*
X132152371Y-84831490D01*
X132158748Y-84890207D01*
X132155685Y-84890540D01*
X132152716Y-84947116D01*
X132111256Y-85004749D01*
X132048982Y-85030419D01*
X132036758Y-85031898D01*
X132029657Y-85034581D01*
X132027048Y-85035222D01*
X132010728Y-85039687D01*
X132008195Y-85040452D01*
X132000717Y-85041757D01*
X131942190Y-85067448D01*
X131936108Y-85069930D01*
X131915753Y-85077622D01*
X131883449Y-85089828D01*
X131883447Y-85089829D01*
X131876344Y-85092513D01*
X131870085Y-85096814D01*
X131867720Y-85098051D01*
X131852948Y-85106273D01*
X131850656Y-85107628D01*
X131843695Y-85110684D01*
X131837668Y-85115309D01*
X131837664Y-85115311D01*
X131792987Y-85149593D01*
X131787662Y-85153462D01*
X131775678Y-85161699D01*
X131750748Y-85178833D01*
X131735019Y-85189643D01*
X131729967Y-85195313D01*
X131729966Y-85195314D01*
X131693580Y-85236153D01*
X131688600Y-85241429D01*
X131092639Y-85837391D01*
X131077603Y-85850232D01*
X130960747Y-85935134D01*
X130832960Y-86077056D01*
X130816312Y-86105891D01*
X130757313Y-86208081D01*
X130737473Y-86242444D01*
X130678458Y-86424072D01*
X130677768Y-86430633D01*
X130677768Y-86430635D01*
X130663379Y-86567540D01*
X130658496Y-86614000D01*
X129540500Y-86614000D01*
X129540500Y-85549866D01*
X129533745Y-85487684D01*
X129482615Y-85351295D01*
X129395261Y-85234739D01*
X129336251Y-85190513D01*
X129293736Y-85133656D01*
X129288710Y-85062837D01*
X129322770Y-85000544D01*
X129336251Y-84988862D01*
X129387724Y-84950285D01*
X129400285Y-84937724D01*
X129476786Y-84835649D01*
X129485324Y-84820054D01*
X129530478Y-84699606D01*
X129534105Y-84684351D01*
X129539631Y-84633486D01*
X129540000Y-84626672D01*
X129540000Y-84182885D01*
X132152000Y-84182885D01*
X132156475Y-84198124D01*
X132157865Y-84199329D01*
X132165548Y-84201000D01*
X133212885Y-84201000D01*
X133228124Y-84196525D01*
X133229329Y-84195135D01*
X133231000Y-84187452D01*
X133231000Y-84182885D01*
X133739000Y-84182885D01*
X133743475Y-84198124D01*
X133744865Y-84199329D01*
X133752548Y-84201000D01*
X134799884Y-84201000D01*
X134815123Y-84196525D01*
X134816328Y-84195135D01*
X134817999Y-84187452D01*
X134817999Y-84085331D01*
X134817629Y-84078510D01*
X134812105Y-84027648D01*
X134808479Y-84012396D01*
X134763324Y-83891946D01*
X134754786Y-83876351D01*
X134678285Y-83774276D01*
X134665724Y-83761715D01*
X134563649Y-83685214D01*
X134548054Y-83676676D01*
X134427606Y-83631522D01*
X134412351Y-83627895D01*
X134361486Y-83622369D01*
X134354672Y-83622000D01*
X133757115Y-83622000D01*
X133741876Y-83626475D01*
X133740671Y-83627865D01*
X133739000Y-83635548D01*
X133739000Y-84182885D01*
X133231000Y-84182885D01*
X133231000Y-83640116D01*
X133226525Y-83624877D01*
X133225135Y-83623672D01*
X133217452Y-83622001D01*
X132615331Y-83622001D01*
X132608510Y-83622371D01*
X132557648Y-83627895D01*
X132542396Y-83631521D01*
X132421946Y-83676676D01*
X132406351Y-83685214D01*
X132304276Y-83761715D01*
X132291715Y-83774276D01*
X132215214Y-83876351D01*
X132206676Y-83891946D01*
X132161522Y-84012394D01*
X132157895Y-84027649D01*
X132152369Y-84078514D01*
X132152000Y-84085328D01*
X132152000Y-84182885D01*
X129540000Y-84182885D01*
X129540000Y-84092115D01*
X129535525Y-84076876D01*
X129534135Y-84075671D01*
X129526452Y-84074000D01*
X124478116Y-84074000D01*
X124462877Y-84078475D01*
X124461672Y-84079865D01*
X124460001Y-84087548D01*
X124460001Y-84626669D01*
X124460371Y-84633490D01*
X124465895Y-84684352D01*
X124469521Y-84699604D01*
X124514676Y-84820054D01*
X124523214Y-84835649D01*
X124599715Y-84937724D01*
X124612276Y-84950285D01*
X124663749Y-84988862D01*
X124706264Y-85045721D01*
X124711290Y-85116540D01*
X124677230Y-85178833D01*
X124663755Y-85190509D01*
X124604739Y-85234739D01*
X124517385Y-85351295D01*
X124466255Y-85487684D01*
X124459500Y-85549866D01*
X124459500Y-87170134D01*
X122682500Y-87170134D01*
X122682500Y-83547885D01*
X124460000Y-83547885D01*
X124464475Y-83563124D01*
X124465865Y-83564329D01*
X124473548Y-83566000D01*
X125457885Y-83566000D01*
X125473124Y-83561525D01*
X125474329Y-83560135D01*
X125476000Y-83552452D01*
X125476000Y-83547885D01*
X125984000Y-83547885D01*
X125988475Y-83563124D01*
X125989865Y-83564329D01*
X125997548Y-83566000D01*
X127997885Y-83566000D01*
X128013124Y-83561525D01*
X128014329Y-83560135D01*
X128016000Y-83552452D01*
X128016000Y-83547885D01*
X128524000Y-83547885D01*
X128528475Y-83563124D01*
X128529865Y-83564329D01*
X128537548Y-83566000D01*
X129521884Y-83566000D01*
X129537123Y-83561525D01*
X129538328Y-83560135D01*
X129539999Y-83552452D01*
X129539999Y-83013331D01*
X129539629Y-83006510D01*
X129534105Y-82955648D01*
X129530479Y-82940396D01*
X129485324Y-82819946D01*
X129476786Y-82804351D01*
X129400285Y-82702276D01*
X129387724Y-82689715D01*
X129285649Y-82613214D01*
X129270054Y-82604676D01*
X129149606Y-82559522D01*
X129134351Y-82555895D01*
X129083486Y-82550369D01*
X129076672Y-82550000D01*
X128542115Y-82550000D01*
X128526876Y-82554475D01*
X128525671Y-82555865D01*
X128524000Y-82563548D01*
X128524000Y-83547885D01*
X128016000Y-83547885D01*
X128016000Y-82568116D01*
X128011525Y-82552877D01*
X128010135Y-82551672D01*
X128002452Y-82550001D01*
X127463331Y-82550001D01*
X127456510Y-82550371D01*
X127405648Y-82555895D01*
X127390396Y-82559521D01*
X127269946Y-82604676D01*
X127254351Y-82613214D01*
X127152276Y-82689715D01*
X127139716Y-82702275D01*
X127100827Y-82754165D01*
X127043968Y-82796681D01*
X126973149Y-82801707D01*
X126910856Y-82767647D01*
X126899173Y-82754165D01*
X126860284Y-82702275D01*
X126847724Y-82689715D01*
X126745649Y-82613214D01*
X126730054Y-82604676D01*
X126609606Y-82559522D01*
X126594351Y-82555895D01*
X126543486Y-82550369D01*
X126536672Y-82550000D01*
X126002115Y-82550000D01*
X125986876Y-82554475D01*
X125985671Y-82555865D01*
X125984000Y-82563548D01*
X125984000Y-83547885D01*
X125476000Y-83547885D01*
X125476000Y-82568116D01*
X125471525Y-82552877D01*
X125470135Y-82551672D01*
X125462452Y-82550001D01*
X124923331Y-82550001D01*
X124916510Y-82550371D01*
X124865648Y-82555895D01*
X124850396Y-82559521D01*
X124729946Y-82604676D01*
X124714351Y-82613214D01*
X124612276Y-82689715D01*
X124599715Y-82702276D01*
X124523214Y-82804351D01*
X124514676Y-82819946D01*
X124469522Y-82940394D01*
X124465895Y-82955649D01*
X124460369Y-83006514D01*
X124460000Y-83013328D01*
X124460000Y-83547885D01*
X122682500Y-83547885D01*
X122682500Y-72008500D01*
X122702502Y-71940379D01*
X122756158Y-71893886D01*
X122808500Y-71882500D01*
X151511500Y-71882500D01*
X151579621Y-71902502D01*
G37*
%TD.AperFunction*%
%TA.AperFunction,Conductor*%
G36*
X142325459Y-83278502D02*
G01*
X142371952Y-83332158D01*
X142382056Y-83402432D01*
X142352562Y-83467012D01*
X142346434Y-83473595D01*
X142117672Y-83702358D01*
X142055359Y-83736383D01*
X141984544Y-83731319D01*
X141953012Y-83714090D01*
X141913891Y-83684770D01*
X141913888Y-83684768D01*
X141906705Y-83679385D01*
X141770316Y-83628255D01*
X141708134Y-83621500D01*
X139961866Y-83621500D01*
X139899684Y-83628255D01*
X139763295Y-83679385D01*
X139646739Y-83766739D01*
X139559385Y-83883295D01*
X139508255Y-84019684D01*
X139501500Y-84081866D01*
X139501500Y-84828134D01*
X139508255Y-84890316D01*
X139511029Y-84897715D01*
X139554480Y-85013620D01*
X139559385Y-85026705D01*
X139562727Y-85031164D01*
X139577530Y-85098848D01*
X139562933Y-85148561D01*
X139559385Y-85153295D01*
X139556236Y-85161696D01*
X139556234Y-85161699D01*
X139530870Y-85229359D01*
X139508255Y-85289684D01*
X139501500Y-85351866D01*
X139501500Y-86098134D01*
X139508255Y-86160316D01*
X139511029Y-86167715D01*
X139545759Y-86260357D01*
X139559385Y-86296705D01*
X139562727Y-86301164D01*
X139577530Y-86368848D01*
X139562933Y-86418561D01*
X139559385Y-86423295D01*
X139556236Y-86431696D01*
X139556234Y-86431699D01*
X139548920Y-86451210D01*
X139508255Y-86559684D01*
X139501500Y-86621866D01*
X139501500Y-87368134D01*
X139508255Y-87430316D01*
X139511029Y-87437715D01*
X139545759Y-87530357D01*
X139559385Y-87566705D01*
X139562727Y-87571164D01*
X139577530Y-87638848D01*
X139562933Y-87688561D01*
X139559385Y-87693295D01*
X139556236Y-87701696D01*
X139556234Y-87701699D01*
X139545198Y-87731138D01*
X139508255Y-87829684D01*
X139501500Y-87891866D01*
X139501500Y-88638134D01*
X139508255Y-88700316D01*
X139526162Y-88748082D01*
X139543102Y-88793270D01*
X139548285Y-88864078D01*
X139514364Y-88926447D01*
X139452109Y-88960576D01*
X139425120Y-88963500D01*
X139273615Y-88963500D01*
X139258376Y-88967975D01*
X139257171Y-88969365D01*
X139255500Y-88977048D01*
X139255500Y-91358384D01*
X139259975Y-91373623D01*
X139261365Y-91374828D01*
X139269048Y-91376499D01*
X139490669Y-91376499D01*
X139497490Y-91376129D01*
X139548352Y-91370605D01*
X139563604Y-91366979D01*
X139684054Y-91321824D01*
X139699649Y-91313286D01*
X139801724Y-91236785D01*
X139814285Y-91224224D01*
X139852862Y-91172751D01*
X139909721Y-91130236D01*
X139980540Y-91125210D01*
X140042833Y-91159270D01*
X140054509Y-91172745D01*
X140095345Y-91227233D01*
X140095346Y-91227234D01*
X140098740Y-91231762D01*
X140098086Y-91232252D01*
X140128573Y-91288082D01*
X140125285Y-91353799D01*
X140076458Y-91504072D01*
X140056496Y-91694000D01*
X140057186Y-91700565D01*
X140074188Y-91862330D01*
X140061416Y-91932168D01*
X140012914Y-91984015D01*
X139948878Y-92001500D01*
X137251661Y-92001500D01*
X137183540Y-91981498D01*
X137162566Y-91964595D01*
X136111140Y-90913169D01*
X138049001Y-90913169D01*
X138049371Y-90919990D01*
X138054895Y-90970852D01*
X138058521Y-90986104D01*
X138103676Y-91106554D01*
X138112214Y-91122149D01*
X138188715Y-91224224D01*
X138201276Y-91236785D01*
X138303351Y-91313286D01*
X138318946Y-91321824D01*
X138439394Y-91366978D01*
X138454649Y-91370605D01*
X138505514Y-91376131D01*
X138512328Y-91376500D01*
X138729385Y-91376500D01*
X138744624Y-91372025D01*
X138745829Y-91370635D01*
X138747500Y-91362952D01*
X138747500Y-90442115D01*
X138743025Y-90426876D01*
X138741635Y-90425671D01*
X138733952Y-90424000D01*
X138067116Y-90424000D01*
X138051877Y-90428475D01*
X138050672Y-90429865D01*
X138049001Y-90437548D01*
X138049001Y-90913169D01*
X136111140Y-90913169D01*
X135095856Y-89897885D01*
X138049000Y-89897885D01*
X138053475Y-89913124D01*
X138054865Y-89914329D01*
X138062548Y-89916000D01*
X138729385Y-89916000D01*
X138744624Y-89911525D01*
X138745829Y-89910135D01*
X138747500Y-89902452D01*
X138747500Y-88981616D01*
X138743025Y-88966377D01*
X138741635Y-88965172D01*
X138733952Y-88963501D01*
X138512331Y-88963501D01*
X138505510Y-88963871D01*
X138454648Y-88969395D01*
X138439396Y-88973021D01*
X138318946Y-89018176D01*
X138303351Y-89026714D01*
X138201276Y-89103215D01*
X138188715Y-89115776D01*
X138112214Y-89217851D01*
X138103676Y-89233446D01*
X138058522Y-89353894D01*
X138054895Y-89369149D01*
X138049369Y-89420014D01*
X138049000Y-89426828D01*
X138049000Y-89897885D01*
X135095856Y-89897885D01*
X134463707Y-89265736D01*
X134429681Y-89203424D01*
X134434746Y-89132609D01*
X134477293Y-89075773D01*
X134508573Y-89058659D01*
X134548295Y-89043768D01*
X134548296Y-89043767D01*
X134556705Y-89040615D01*
X134673261Y-88953261D01*
X134760615Y-88836705D01*
X134811745Y-88700316D01*
X134818500Y-88638134D01*
X134818500Y-87891866D01*
X134817646Y-87884000D01*
X134811745Y-87829684D01*
X134814147Y-87829423D01*
X134817223Y-87770520D01*
X134858669Y-87712877D01*
X134906052Y-87689910D01*
X134909695Y-87689015D01*
X134917242Y-87688102D01*
X134924351Y-87685416D01*
X134926980Y-87684770D01*
X134943262Y-87680315D01*
X134945798Y-87679550D01*
X134953284Y-87678243D01*
X135011800Y-87652556D01*
X135017904Y-87650065D01*
X135070548Y-87630173D01*
X135070549Y-87630172D01*
X135077656Y-87627487D01*
X135083919Y-87623183D01*
X135086285Y-87621946D01*
X135101097Y-87613701D01*
X135103351Y-87612368D01*
X135110305Y-87609315D01*
X135161002Y-87570413D01*
X135166332Y-87566541D01*
X135212720Y-87534661D01*
X135212725Y-87534656D01*
X135218981Y-87530357D01*
X135225982Y-87522500D01*
X135260435Y-87483830D01*
X135265416Y-87478554D01*
X139448566Y-83295405D01*
X139510878Y-83261379D01*
X139537661Y-83258500D01*
X142257338Y-83258500D01*
X142325459Y-83278502D01*
G37*
%TD.AperFunction*%
%TD*%
M02*
