%TF.GenerationSoftware,KiCad,Pcbnew,6.0.11+dfsg-1~bpo11+1*%
%TF.CreationDate,2023-04-13T12:00:23+00:00*%
%TF.ProjectId,FRAM01A,4652414d-3031-4412-9e6b-696361645f70,rev?*%
%TF.SameCoordinates,Original*%
%TF.FileFunction,Copper,L2,Bot*%
%TF.FilePolarity,Positive*%
%FSLAX46Y46*%
G04 Gerber Fmt 4.6, Leading zero omitted, Abs format (unit mm)*
G04 Created by KiCad (PCBNEW 6.0.11+dfsg-1~bpo11+1) date 2023-04-13 12:00:23*
%MOMM*%
%LPD*%
G01*
G04 APERTURE LIST*
G04 Aperture macros list*
%AMRoundRect*
0 Rectangle with rounded corners*
0 $1 Rounding radius*
0 $2 $3 $4 $5 $6 $7 $8 $9 X,Y pos of 4 corners*
0 Add a 4 corners polygon primitive as box body*
4,1,4,$2,$3,$4,$5,$6,$7,$8,$9,$2,$3,0*
0 Add four circle primitives for the rounded corners*
1,1,$1+$1,$2,$3*
1,1,$1+$1,$4,$5*
1,1,$1+$1,$6,$7*
1,1,$1+$1,$8,$9*
0 Add four rect primitives between the rounded corners*
20,1,$1+$1,$2,$3,$4,$5,0*
20,1,$1+$1,$4,$5,$6,$7,0*
20,1,$1+$1,$6,$7,$8,$9,0*
20,1,$1+$1,$8,$9,$2,$3,0*%
G04 Aperture macros list end*
%TA.AperFunction,ComponentPad*%
%ADD10C,6.000000*%
%TD*%
%TA.AperFunction,ComponentPad*%
%ADD11R,1.524000X1.524000*%
%TD*%
%TA.AperFunction,SMDPad,CuDef*%
%ADD12R,1.650000X0.650000*%
%TD*%
%TA.AperFunction,SMDPad,CuDef*%
%ADD13R,2.500000X1.800000*%
%TD*%
%TA.AperFunction,SMDPad,CuDef*%
%ADD14RoundRect,0.250000X0.250000X0.475000X-0.250000X0.475000X-0.250000X-0.475000X0.250000X-0.475000X0*%
%TD*%
%TA.AperFunction,ViaPad*%
%ADD15C,0.800000*%
%TD*%
%TA.AperFunction,Conductor*%
%ADD16C,0.304800*%
%TD*%
%TA.AperFunction,Conductor*%
%ADD17C,0.250000*%
%TD*%
G04 APERTURE END LIST*
D10*
%TO.P,M4,1*%
%TO.N,GND*%
X147320000Y-96520000D03*
%TD*%
%TO.P,M1,1*%
%TO.N,GND*%
X137160000Y-76200000D03*
%TD*%
%TO.P,M3,1*%
%TO.N,GND*%
X147320000Y-76200000D03*
%TD*%
D11*
%TO.P,J2,1*%
%TO.N,MISO*%
X146050000Y-82550000D03*
%TO.P,J2,2*%
%TO.N,+3.3V*%
X148590000Y-82550000D03*
%TO.P,J2,3*%
%TO.N,SCK*%
X146050000Y-85090000D03*
%TO.P,J2,4*%
%TO.N,MOSI*%
X148590000Y-85090000D03*
%TO.P,J2,5*%
%TO.N,~{CS}*%
X146050000Y-87630000D03*
%TO.P,J2,6*%
%TO.N,GND*%
X148590000Y-87630000D03*
%TO.P,J2,7*%
%TO.N,~{WP}*%
X146050000Y-90170000D03*
%TO.P,J2,8*%
%TO.N,GND*%
X148590000Y-90170000D03*
%TD*%
D10*
%TO.P,M2,1*%
%TO.N,GND*%
X137160000Y-96520000D03*
%TD*%
D12*
%TO.P,IC1,1,~{CS}*%
%TO.N,~{CS}*%
X135263000Y-88773000D03*
%TO.P,IC1,2,SO*%
%TO.N,MISO*%
X135263000Y-87503000D03*
%TO.P,IC1,3,~{WP}*%
%TO.N,~{WP}*%
X135263000Y-86233000D03*
%TO.P,IC1,4,VSS*%
%TO.N,GND*%
X135263000Y-84963000D03*
%TO.P,IC1,5,SI*%
%TO.N,MOSI*%
X142613000Y-84963000D03*
%TO.P,IC1,6,SCK*%
%TO.N,SCK*%
X142613000Y-86233000D03*
%TO.P,IC1,7,DNU*%
%TO.N,unconnected-(IC1-Pad7)*%
X142613000Y-87503000D03*
%TO.P,IC1,8,VDD*%
%TO.N,+3.3V*%
X142613000Y-88773000D03*
%TD*%
D13*
%TO.P,D1,1,K*%
%TO.N,+3.3V*%
X139922000Y-82042000D03*
%TO.P,D1,2,A*%
%TO.N,GND*%
X135922000Y-82042000D03*
%TD*%
D14*
%TO.P,C1,1*%
%TO.N,+3.3V*%
X143190000Y-92964000D03*
%TO.P,C1,2*%
%TO.N,GND*%
X141290000Y-92964000D03*
%TD*%
%TO.P,C2,1*%
%TO.N,+3.3V*%
X141732000Y-90932000D03*
%TO.P,C2,2*%
%TO.N,GND*%
X139832000Y-90932000D03*
%TD*%
D15*
%TO.N,GND*%
X138176000Y-91440000D03*
X133604000Y-84836000D03*
X141478000Y-94742000D03*
X142748000Y-94742000D03*
X133604000Y-81026000D03*
X138176000Y-90424000D03*
X133604000Y-83058000D03*
X137160000Y-84836000D03*
X133604000Y-82042000D03*
X139700000Y-92710000D03*
%TO.N,~{CS}*%
X139700000Y-87630000D03*
%TO.N,~{WP}*%
X137160000Y-86360000D03*
%TD*%
D16*
%TO.N,~{CS}*%
X139700000Y-87630000D02*
X138557000Y-88773000D01*
X138557000Y-88773000D02*
X135263000Y-88773000D01*
%TO.N,MISO*%
X137795000Y-87503000D02*
X142748000Y-82550000D01*
X142748000Y-82550000D02*
X146050000Y-82550000D01*
X135263000Y-87503000D02*
X137795000Y-87503000D01*
%TO.N,~{WP}*%
X137160000Y-86360000D02*
X135390000Y-86360000D01*
D17*
X135390000Y-86360000D02*
X135263000Y-86233000D01*
D16*
%TO.N,MOSI*%
X147320000Y-83820000D02*
X148590000Y-85090000D01*
X145034000Y-83820000D02*
X147320000Y-83820000D01*
X142613000Y-84963000D02*
X143891000Y-84963000D01*
X143891000Y-84963000D02*
X145034000Y-83820000D01*
%TO.N,SCK*%
X144907000Y-86233000D02*
X142613000Y-86233000D01*
X146050000Y-85090000D02*
X144907000Y-86233000D01*
%TO.N,+3.3V*%
X142494000Y-91694000D02*
X142875000Y-91694000D01*
X149352000Y-91948000D02*
X145542000Y-91948000D01*
X150114000Y-84074000D02*
X150114000Y-91186000D01*
X145542000Y-91948000D02*
X144526000Y-92964000D01*
X142240000Y-82042000D02*
X139922000Y-82042000D01*
X143190000Y-92009000D02*
X143190000Y-92964000D01*
X141732000Y-90932000D02*
X142613000Y-90051000D01*
D17*
X142684500Y-88844500D02*
X142613000Y-88773000D01*
D16*
X143510000Y-80772000D02*
X142240000Y-82042000D01*
X150114000Y-91186000D02*
X149352000Y-91948000D01*
X148590000Y-82550000D02*
X146812000Y-80772000D01*
X141732000Y-90932000D02*
X142494000Y-91694000D01*
X144526000Y-92964000D02*
X143190000Y-92964000D01*
X148590000Y-82550000D02*
X150114000Y-84074000D01*
X146812000Y-80772000D02*
X143510000Y-80772000D01*
X142613000Y-90051000D02*
X142613000Y-88773000D01*
X142875000Y-91694000D02*
X143190000Y-92009000D01*
%TD*%
%TA.AperFunction,Conductor*%
%TO.N,GND*%
G36*
X151579621Y-71902502D02*
G01*
X151626114Y-71956158D01*
X151637500Y-72008500D01*
X151637500Y-100711500D01*
X151617498Y-100779621D01*
X151563842Y-100826114D01*
X151511500Y-100837500D01*
X132968500Y-100837500D01*
X132900379Y-100817498D01*
X132853886Y-100763842D01*
X132842500Y-100711500D01*
X132842500Y-93486095D01*
X140282001Y-93486095D01*
X140282338Y-93492614D01*
X140292257Y-93588206D01*
X140295149Y-93601600D01*
X140346588Y-93755784D01*
X140352761Y-93768962D01*
X140438063Y-93906807D01*
X140447099Y-93918208D01*
X140561829Y-94032739D01*
X140573240Y-94041751D01*
X140711243Y-94126816D01*
X140724424Y-94132963D01*
X140878710Y-94184138D01*
X140892086Y-94187005D01*
X140986438Y-94196672D01*
X140992854Y-94197000D01*
X141017885Y-94197000D01*
X141033124Y-94192525D01*
X141034329Y-94191135D01*
X141036000Y-94183452D01*
X141036000Y-93236115D01*
X141031525Y-93220876D01*
X141030135Y-93219671D01*
X141022452Y-93218000D01*
X140300116Y-93218000D01*
X140284877Y-93222475D01*
X140283672Y-93223865D01*
X140282001Y-93231548D01*
X140282001Y-93486095D01*
X132842500Y-93486095D01*
X132842500Y-91454095D01*
X138824001Y-91454095D01*
X138824338Y-91460614D01*
X138834257Y-91556206D01*
X138837149Y-91569600D01*
X138888588Y-91723784D01*
X138894761Y-91736962D01*
X138980063Y-91874807D01*
X138989099Y-91886208D01*
X139103829Y-92000739D01*
X139115240Y-92009751D01*
X139253243Y-92094816D01*
X139266424Y-92100963D01*
X139420710Y-92152138D01*
X139434086Y-92155005D01*
X139528438Y-92164672D01*
X139534854Y-92165000D01*
X139559885Y-92165000D01*
X139575124Y-92160525D01*
X139576329Y-92159135D01*
X139578000Y-92151452D01*
X139578000Y-91204115D01*
X139573525Y-91188876D01*
X139572135Y-91187671D01*
X139564452Y-91186000D01*
X138842116Y-91186000D01*
X138826877Y-91190475D01*
X138825672Y-91191865D01*
X138824001Y-91199548D01*
X138824001Y-91454095D01*
X132842500Y-91454095D01*
X132842500Y-90659885D01*
X138824000Y-90659885D01*
X138828475Y-90675124D01*
X138829865Y-90676329D01*
X138837548Y-90678000D01*
X139559885Y-90678000D01*
X139575124Y-90673525D01*
X139576329Y-90672135D01*
X139578000Y-90664452D01*
X139578000Y-89717116D01*
X139573525Y-89701877D01*
X139572135Y-89700672D01*
X139564452Y-89699001D01*
X139534905Y-89699001D01*
X139528386Y-89699338D01*
X139432794Y-89709257D01*
X139419400Y-89712149D01*
X139265216Y-89763588D01*
X139252038Y-89769761D01*
X139114193Y-89855063D01*
X139102792Y-89864099D01*
X138988261Y-89978829D01*
X138979249Y-89990240D01*
X138894184Y-90128243D01*
X138888037Y-90141424D01*
X138836862Y-90295710D01*
X138833995Y-90309086D01*
X138824328Y-90403438D01*
X138824000Y-90409855D01*
X138824000Y-90659885D01*
X132842500Y-90659885D01*
X132842500Y-89146134D01*
X133929500Y-89146134D01*
X133936255Y-89208316D01*
X133987385Y-89344705D01*
X134074739Y-89461261D01*
X134191295Y-89548615D01*
X134327684Y-89599745D01*
X134389866Y-89606500D01*
X136136134Y-89606500D01*
X136198316Y-89599745D01*
X136334705Y-89548615D01*
X136451261Y-89461261D01*
X136453043Y-89463638D01*
X136502230Y-89436779D01*
X136529013Y-89433900D01*
X138529737Y-89433900D01*
X138538308Y-89434192D01*
X138591843Y-89437842D01*
X138599320Y-89436537D01*
X138599321Y-89436537D01*
X138624626Y-89432121D01*
X138650347Y-89427631D01*
X138656865Y-89426670D01*
X138675223Y-89424448D01*
X138708262Y-89420450D01*
X138708264Y-89420450D01*
X138715805Y-89419537D01*
X138722913Y-89416851D01*
X138729879Y-89415140D01*
X138735068Y-89413721D01*
X138741947Y-89411644D01*
X138749424Y-89410339D01*
X138803795Y-89386471D01*
X138809886Y-89383986D01*
X138858336Y-89365679D01*
X138858338Y-89365678D01*
X138865441Y-89362994D01*
X138871702Y-89358691D01*
X138878026Y-89355385D01*
X138882798Y-89352729D01*
X138888944Y-89349094D01*
X138895896Y-89346042D01*
X138943001Y-89309898D01*
X138948334Y-89306023D01*
X138960467Y-89297684D01*
X138997271Y-89272389D01*
X139035760Y-89229190D01*
X139040740Y-89223914D01*
X139364654Y-88900000D01*
X139689248Y-88575405D01*
X139751561Y-88541380D01*
X139778344Y-88538500D01*
X139795487Y-88538500D01*
X139801939Y-88537128D01*
X139801944Y-88537128D01*
X139888887Y-88518647D01*
X139982288Y-88498794D01*
X139988319Y-88496109D01*
X140150722Y-88423803D01*
X140150724Y-88423802D01*
X140156752Y-88421118D01*
X140311253Y-88308866D01*
X140439040Y-88166944D01*
X140534527Y-88001556D01*
X140593542Y-87819928D01*
X140613504Y-87630000D01*
X140593542Y-87440072D01*
X140534527Y-87258444D01*
X140439040Y-87093056D01*
X140311253Y-86951134D01*
X140156752Y-86838882D01*
X140150724Y-86836198D01*
X140150722Y-86836197D01*
X139988319Y-86763891D01*
X139988318Y-86763891D01*
X139982288Y-86761206D01*
X139799389Y-86722329D01*
X139799388Y-86722329D01*
X139795487Y-86721500D01*
X139795639Y-86720787D01*
X139734626Y-86695683D01*
X139693998Y-86637460D01*
X139691297Y-86566515D01*
X139724361Y-86508293D01*
X141064405Y-85168248D01*
X141126717Y-85134223D01*
X141197532Y-85139287D01*
X141254368Y-85181834D01*
X141279179Y-85248354D01*
X141279500Y-85257343D01*
X141279500Y-85336134D01*
X141286255Y-85398316D01*
X141289029Y-85405715D01*
X141323791Y-85498442D01*
X141337385Y-85534705D01*
X141340727Y-85539164D01*
X141355530Y-85606848D01*
X141340933Y-85656561D01*
X141337385Y-85661295D01*
X141334236Y-85669696D01*
X141334234Y-85669699D01*
X141303976Y-85750414D01*
X141286255Y-85797684D01*
X141279500Y-85859866D01*
X141279500Y-86606134D01*
X141286255Y-86668316D01*
X141303976Y-86715586D01*
X141322085Y-86763891D01*
X141337385Y-86804705D01*
X141340727Y-86809164D01*
X141355530Y-86876848D01*
X141340933Y-86926561D01*
X141337385Y-86931295D01*
X141334236Y-86939696D01*
X141334234Y-86939699D01*
X141314136Y-86993312D01*
X141286255Y-87067684D01*
X141279500Y-87129866D01*
X141279500Y-87876134D01*
X141286255Y-87938316D01*
X141337385Y-88074705D01*
X141340727Y-88079164D01*
X141355530Y-88146848D01*
X141340933Y-88196561D01*
X141337385Y-88201295D01*
X141286255Y-88337684D01*
X141279500Y-88399866D01*
X141279500Y-89146134D01*
X141286255Y-89208316D01*
X141337385Y-89344705D01*
X141424739Y-89461261D01*
X141431919Y-89466642D01*
X141431921Y-89466644D01*
X141446175Y-89477327D01*
X141488690Y-89534186D01*
X141493714Y-89605005D01*
X141459654Y-89667298D01*
X141397322Y-89701288D01*
X141383613Y-89703479D01*
X141332692Y-89708762D01*
X141332688Y-89708763D01*
X141325834Y-89709474D01*
X141319298Y-89711655D01*
X141319296Y-89711655D01*
X141187194Y-89755728D01*
X141158054Y-89765450D01*
X141007652Y-89858522D01*
X140882695Y-89983697D01*
X140879898Y-89988235D01*
X140822647Y-90028824D01*
X140751724Y-90032054D01*
X140690313Y-89996428D01*
X140682938Y-89987932D01*
X140674902Y-89977793D01*
X140560171Y-89863261D01*
X140548760Y-89854249D01*
X140410757Y-89769184D01*
X140397576Y-89763037D01*
X140243290Y-89711862D01*
X140229914Y-89708995D01*
X140135562Y-89699328D01*
X140129145Y-89699000D01*
X140104115Y-89699000D01*
X140088876Y-89703475D01*
X140087671Y-89704865D01*
X140086000Y-89712548D01*
X140086000Y-92146884D01*
X140090475Y-92162123D01*
X140091865Y-92163328D01*
X140099548Y-92164999D01*
X140129095Y-92164999D01*
X140135612Y-92164662D01*
X140162546Y-92161867D01*
X140232367Y-92174732D01*
X140284150Y-92223302D01*
X140301452Y-92292158D01*
X140296216Y-92320966D01*
X140296304Y-92320985D01*
X140295704Y-92323783D01*
X140295146Y-92326854D01*
X140294863Y-92327709D01*
X140291995Y-92341086D01*
X140282328Y-92435438D01*
X140282000Y-92441855D01*
X140282000Y-92691885D01*
X140286475Y-92707124D01*
X140287865Y-92708329D01*
X140295548Y-92710000D01*
X141418000Y-92710000D01*
X141486121Y-92730002D01*
X141532614Y-92783658D01*
X141544000Y-92836000D01*
X141544000Y-94178884D01*
X141548475Y-94194123D01*
X141549865Y-94195328D01*
X141557548Y-94196999D01*
X141587095Y-94196999D01*
X141593614Y-94196662D01*
X141689206Y-94186743D01*
X141702600Y-94183851D01*
X141856784Y-94132412D01*
X141869962Y-94126239D01*
X142007807Y-94040937D01*
X142019208Y-94031901D01*
X142133738Y-93917172D01*
X142140794Y-93908238D01*
X142198712Y-93867177D01*
X142269635Y-93863947D01*
X142331046Y-93899574D01*
X142337846Y-93907407D01*
X142341522Y-93913348D01*
X142466697Y-94038305D01*
X142472927Y-94042145D01*
X142472928Y-94042146D01*
X142610288Y-94126816D01*
X142617262Y-94131115D01*
X142697005Y-94157564D01*
X142778611Y-94184632D01*
X142778613Y-94184632D01*
X142785139Y-94186797D01*
X142791975Y-94187497D01*
X142791978Y-94187498D01*
X142835031Y-94191909D01*
X142889600Y-94197500D01*
X143490400Y-94197500D01*
X143493646Y-94197163D01*
X143493650Y-94197163D01*
X143589308Y-94187238D01*
X143589312Y-94187237D01*
X143596166Y-94186526D01*
X143602702Y-94184345D01*
X143602704Y-94184345D01*
X143734806Y-94140272D01*
X143763946Y-94130550D01*
X143914348Y-94037478D01*
X144039305Y-93912303D01*
X144132115Y-93761738D01*
X144148867Y-93711232D01*
X144189298Y-93652873D01*
X144254862Y-93625636D01*
X144268460Y-93624900D01*
X144498737Y-93624900D01*
X144507308Y-93625192D01*
X144560843Y-93628842D01*
X144568320Y-93627537D01*
X144568321Y-93627537D01*
X144593626Y-93623121D01*
X144619347Y-93618631D01*
X144625865Y-93617670D01*
X144644223Y-93615448D01*
X144677262Y-93611450D01*
X144677264Y-93611450D01*
X144684805Y-93610537D01*
X144691913Y-93607851D01*
X144698879Y-93606140D01*
X144704068Y-93604721D01*
X144710947Y-93602644D01*
X144718424Y-93601339D01*
X144772795Y-93577471D01*
X144778886Y-93574986D01*
X144827336Y-93556679D01*
X144827338Y-93556678D01*
X144834441Y-93553994D01*
X144840702Y-93549691D01*
X144847026Y-93546385D01*
X144851798Y-93543729D01*
X144857944Y-93540094D01*
X144864896Y-93537042D01*
X144912001Y-93500898D01*
X144917334Y-93497023D01*
X144923749Y-93492614D01*
X144966271Y-93463389D01*
X145004760Y-93420190D01*
X145009740Y-93414914D01*
X145778848Y-92645805D01*
X145841161Y-92611780D01*
X145867944Y-92608900D01*
X149324737Y-92608900D01*
X149333308Y-92609192D01*
X149386843Y-92612842D01*
X149394320Y-92611537D01*
X149394321Y-92611537D01*
X149419626Y-92607121D01*
X149445347Y-92602631D01*
X149451865Y-92601670D01*
X149470223Y-92599448D01*
X149503262Y-92595450D01*
X149503264Y-92595450D01*
X149510805Y-92594537D01*
X149517913Y-92591851D01*
X149524879Y-92590140D01*
X149530068Y-92588721D01*
X149536947Y-92586644D01*
X149544424Y-92585339D01*
X149598795Y-92561471D01*
X149604886Y-92558986D01*
X149653336Y-92540679D01*
X149653338Y-92540678D01*
X149660441Y-92537994D01*
X149666702Y-92533691D01*
X149673026Y-92530385D01*
X149677798Y-92527729D01*
X149683944Y-92524094D01*
X149690896Y-92521042D01*
X149738001Y-92484898D01*
X149743334Y-92481023D01*
X149792271Y-92447389D01*
X149830769Y-92404180D01*
X149835749Y-92398905D01*
X150562047Y-91672607D01*
X150568313Y-91666753D01*
X150603025Y-91636472D01*
X150608752Y-91631476D01*
X150642892Y-91582900D01*
X150646818Y-91577614D01*
X150678774Y-91536858D01*
X150683463Y-91530878D01*
X150686591Y-91523950D01*
X150690319Y-91517794D01*
X150692954Y-91513175D01*
X150696362Y-91506819D01*
X150700731Y-91500603D01*
X150722292Y-91445302D01*
X150724848Y-91439221D01*
X150727284Y-91433826D01*
X150749290Y-91385088D01*
X150750675Y-91377614D01*
X150752817Y-91370780D01*
X150754284Y-91365632D01*
X150756077Y-91358647D01*
X150758838Y-91351566D01*
X150766586Y-91292711D01*
X150767618Y-91286195D01*
X150777056Y-91235272D01*
X150777056Y-91235270D01*
X150778440Y-91227803D01*
X150775109Y-91170032D01*
X150774900Y-91162779D01*
X150774900Y-84101252D01*
X150775192Y-84092682D01*
X150778325Y-84046732D01*
X150778325Y-84046728D01*
X150778841Y-84039156D01*
X150768632Y-83980662D01*
X150767670Y-83974140D01*
X150761450Y-83922737D01*
X150761449Y-83922734D01*
X150760537Y-83915195D01*
X150757851Y-83908087D01*
X150756140Y-83901121D01*
X150754721Y-83895932D01*
X150752644Y-83889053D01*
X150751339Y-83881576D01*
X150727476Y-83827215D01*
X150724985Y-83821111D01*
X150706679Y-83772664D01*
X150706678Y-83772662D01*
X150703994Y-83765559D01*
X150699694Y-83759302D01*
X150696360Y-83752925D01*
X150693760Y-83748255D01*
X150690095Y-83742058D01*
X150687042Y-83735103D01*
X150650894Y-83687995D01*
X150647016Y-83682657D01*
X150617691Y-83639988D01*
X150617689Y-83639986D01*
X150613389Y-83633729D01*
X150570180Y-83595231D01*
X150564905Y-83590251D01*
X149897405Y-82922751D01*
X149863379Y-82860439D01*
X149860500Y-82833656D01*
X149860500Y-81739866D01*
X149853745Y-81677684D01*
X149802615Y-81541295D01*
X149715261Y-81424739D01*
X149598705Y-81337385D01*
X149462316Y-81286255D01*
X149400134Y-81279500D01*
X148306343Y-81279500D01*
X148238222Y-81259498D01*
X148217248Y-81242595D01*
X147298614Y-80323961D01*
X147292760Y-80317695D01*
X147257476Y-80277248D01*
X147208898Y-80243107D01*
X147203604Y-80239175D01*
X147203361Y-80238984D01*
X147156879Y-80202537D01*
X147149955Y-80199411D01*
X147143824Y-80195698D01*
X147139204Y-80193062D01*
X147132822Y-80189640D01*
X147126603Y-80185269D01*
X147071286Y-80163701D01*
X147065207Y-80161146D01*
X147059395Y-80158522D01*
X147011088Y-80136711D01*
X147003612Y-80135325D01*
X146996734Y-80133170D01*
X146991609Y-80131710D01*
X146984645Y-80129922D01*
X146977566Y-80127162D01*
X146970034Y-80126170D01*
X146970032Y-80126170D01*
X146944804Y-80122849D01*
X146918700Y-80119413D01*
X146912202Y-80118384D01*
X146853803Y-80107560D01*
X146846223Y-80107997D01*
X146846222Y-80107997D01*
X146796033Y-80110891D01*
X146788780Y-80111100D01*
X143537252Y-80111100D01*
X143528682Y-80110808D01*
X143482732Y-80107675D01*
X143482728Y-80107675D01*
X143475156Y-80107159D01*
X143467679Y-80108464D01*
X143467677Y-80108464D01*
X143431500Y-80114778D01*
X143416662Y-80117368D01*
X143410144Y-80118329D01*
X143397053Y-80119914D01*
X143358737Y-80124550D01*
X143358734Y-80124551D01*
X143351195Y-80125463D01*
X143344087Y-80128149D01*
X143337121Y-80129860D01*
X143331932Y-80131279D01*
X143325053Y-80133356D01*
X143317576Y-80134661D01*
X143310624Y-80137713D01*
X143310623Y-80137713D01*
X143263220Y-80158522D01*
X143257116Y-80161013D01*
X143250000Y-80163702D01*
X143208664Y-80179321D01*
X143208662Y-80179322D01*
X143201559Y-80182006D01*
X143195302Y-80186306D01*
X143188925Y-80189640D01*
X143184255Y-80192240D01*
X143178058Y-80195905D01*
X143171103Y-80198958D01*
X143165079Y-80203580D01*
X143165078Y-80203581D01*
X143123995Y-80235106D01*
X143118657Y-80238984D01*
X143075988Y-80268309D01*
X143075986Y-80268311D01*
X143069729Y-80272611D01*
X143064677Y-80278281D01*
X143064676Y-80278282D01*
X143031232Y-80315819D01*
X143026251Y-80321095D01*
X142003152Y-81344195D01*
X141940840Y-81378220D01*
X141914057Y-81381100D01*
X141806500Y-81381100D01*
X141738379Y-81361098D01*
X141691886Y-81307442D01*
X141680500Y-81255100D01*
X141680500Y-81093866D01*
X141673745Y-81031684D01*
X141622615Y-80895295D01*
X141535261Y-80778739D01*
X141418705Y-80691385D01*
X141282316Y-80640255D01*
X141220134Y-80633500D01*
X138623866Y-80633500D01*
X138561684Y-80640255D01*
X138425295Y-80691385D01*
X138308739Y-80778739D01*
X138221385Y-80895295D01*
X138170255Y-81031684D01*
X138163500Y-81093866D01*
X138163500Y-82990134D01*
X138170255Y-83052316D01*
X138221385Y-83188705D01*
X138308739Y-83305261D01*
X138425295Y-83392615D01*
X138561684Y-83443745D01*
X138623866Y-83450500D01*
X140608657Y-83450500D01*
X140676778Y-83470502D01*
X140723271Y-83524158D01*
X140733375Y-83594432D01*
X140703881Y-83659012D01*
X140697752Y-83665595D01*
X138233200Y-86130147D01*
X138170888Y-86164173D01*
X138100073Y-86159108D01*
X138043237Y-86116561D01*
X138024272Y-86079989D01*
X137996568Y-85994726D01*
X137994527Y-85988444D01*
X137899040Y-85823056D01*
X137771253Y-85681134D01*
X137616752Y-85568882D01*
X137610724Y-85566198D01*
X137610722Y-85566197D01*
X137448319Y-85493891D01*
X137448318Y-85493891D01*
X137442288Y-85491206D01*
X137348887Y-85471353D01*
X137261944Y-85452872D01*
X137261939Y-85452872D01*
X137255487Y-85451500D01*
X137064513Y-85451500D01*
X137058061Y-85452872D01*
X137058056Y-85452872D01*
X136971112Y-85471353D01*
X136877712Y-85491206D01*
X136871682Y-85493891D01*
X136871681Y-85493891D01*
X136845364Y-85505608D01*
X136762006Y-85542721D01*
X136691641Y-85552155D01*
X136627344Y-85522049D01*
X136589530Y-85461960D01*
X136588176Y-85398471D01*
X136590105Y-85390359D01*
X136595631Y-85339486D01*
X136596000Y-85332672D01*
X136596000Y-85235115D01*
X136591525Y-85219876D01*
X136590135Y-85218671D01*
X136582452Y-85217000D01*
X133948116Y-85217000D01*
X133932877Y-85221475D01*
X133931672Y-85222865D01*
X133930001Y-85230548D01*
X133930001Y-85332669D01*
X133930371Y-85339490D01*
X133935895Y-85390352D01*
X133939521Y-85405604D01*
X133984677Y-85526058D01*
X133990649Y-85536965D01*
X134005818Y-85606322D01*
X133991153Y-85656268D01*
X133987385Y-85661295D01*
X133984236Y-85669696D01*
X133984234Y-85669699D01*
X133953976Y-85750414D01*
X133936255Y-85797684D01*
X133929500Y-85859866D01*
X133929500Y-86606134D01*
X133936255Y-86668316D01*
X133953976Y-86715586D01*
X133972085Y-86763891D01*
X133987385Y-86804705D01*
X133990727Y-86809164D01*
X134005530Y-86876848D01*
X133990933Y-86926561D01*
X133987385Y-86931295D01*
X133984236Y-86939696D01*
X133984234Y-86939699D01*
X133964136Y-86993312D01*
X133936255Y-87067684D01*
X133929500Y-87129866D01*
X133929500Y-87876134D01*
X133936255Y-87938316D01*
X133987385Y-88074705D01*
X133990727Y-88079164D01*
X134005530Y-88146848D01*
X133990933Y-88196561D01*
X133987385Y-88201295D01*
X133936255Y-88337684D01*
X133929500Y-88399866D01*
X133929500Y-89146134D01*
X132842500Y-89146134D01*
X132842500Y-84690885D01*
X133930000Y-84690885D01*
X133934475Y-84706124D01*
X133935865Y-84707329D01*
X133943548Y-84709000D01*
X134990885Y-84709000D01*
X135006124Y-84704525D01*
X135007329Y-84703135D01*
X135009000Y-84695452D01*
X135009000Y-84690885D01*
X135517000Y-84690885D01*
X135521475Y-84706124D01*
X135522865Y-84707329D01*
X135530548Y-84709000D01*
X136577884Y-84709000D01*
X136593123Y-84704525D01*
X136594328Y-84703135D01*
X136595999Y-84695452D01*
X136595999Y-84593331D01*
X136595629Y-84586510D01*
X136590105Y-84535648D01*
X136586479Y-84520396D01*
X136541324Y-84399946D01*
X136532786Y-84384351D01*
X136456285Y-84282276D01*
X136443724Y-84269715D01*
X136341649Y-84193214D01*
X136326054Y-84184676D01*
X136205606Y-84139522D01*
X136190351Y-84135895D01*
X136139486Y-84130369D01*
X136132672Y-84130000D01*
X135535115Y-84130000D01*
X135519876Y-84134475D01*
X135518671Y-84135865D01*
X135517000Y-84143548D01*
X135517000Y-84690885D01*
X135009000Y-84690885D01*
X135009000Y-84148116D01*
X135004525Y-84132877D01*
X135003135Y-84131672D01*
X134995452Y-84130001D01*
X134393331Y-84130001D01*
X134386510Y-84130371D01*
X134335648Y-84135895D01*
X134320396Y-84139521D01*
X134199946Y-84184676D01*
X134184351Y-84193214D01*
X134082276Y-84269715D01*
X134069715Y-84282276D01*
X133993214Y-84384351D01*
X133984676Y-84399946D01*
X133939522Y-84520394D01*
X133935895Y-84535649D01*
X133930369Y-84586514D01*
X133930000Y-84593328D01*
X133930000Y-84690885D01*
X132842500Y-84690885D01*
X132842500Y-82986669D01*
X134164001Y-82986669D01*
X134164371Y-82993490D01*
X134169895Y-83044352D01*
X134173521Y-83059604D01*
X134218676Y-83180054D01*
X134227214Y-83195649D01*
X134303715Y-83297724D01*
X134316276Y-83310285D01*
X134418351Y-83386786D01*
X134433946Y-83395324D01*
X134554394Y-83440478D01*
X134569649Y-83444105D01*
X134620514Y-83449631D01*
X134627328Y-83450000D01*
X135649885Y-83450000D01*
X135665124Y-83445525D01*
X135666329Y-83444135D01*
X135668000Y-83436452D01*
X135668000Y-83431884D01*
X136176000Y-83431884D01*
X136180475Y-83447123D01*
X136181865Y-83448328D01*
X136189548Y-83449999D01*
X137216669Y-83449999D01*
X137223490Y-83449629D01*
X137274352Y-83444105D01*
X137289604Y-83440479D01*
X137410054Y-83395324D01*
X137425649Y-83386786D01*
X137527724Y-83310285D01*
X137540285Y-83297724D01*
X137616786Y-83195649D01*
X137625324Y-83180054D01*
X137670478Y-83059606D01*
X137674105Y-83044351D01*
X137679631Y-82993486D01*
X137680000Y-82986672D01*
X137680000Y-82314115D01*
X137675525Y-82298876D01*
X137674135Y-82297671D01*
X137666452Y-82296000D01*
X136194115Y-82296000D01*
X136178876Y-82300475D01*
X136177671Y-82301865D01*
X136176000Y-82309548D01*
X136176000Y-83431884D01*
X135668000Y-83431884D01*
X135668000Y-82314115D01*
X135663525Y-82298876D01*
X135662135Y-82297671D01*
X135654452Y-82296000D01*
X134182116Y-82296000D01*
X134166877Y-82300475D01*
X134165672Y-82301865D01*
X134164001Y-82309548D01*
X134164001Y-82986669D01*
X132842500Y-82986669D01*
X132842500Y-81769885D01*
X134164000Y-81769885D01*
X134168475Y-81785124D01*
X134169865Y-81786329D01*
X134177548Y-81788000D01*
X135649885Y-81788000D01*
X135665124Y-81783525D01*
X135666329Y-81782135D01*
X135668000Y-81774452D01*
X135668000Y-81769885D01*
X136176000Y-81769885D01*
X136180475Y-81785124D01*
X136181865Y-81786329D01*
X136189548Y-81788000D01*
X137661884Y-81788000D01*
X137677123Y-81783525D01*
X137678328Y-81782135D01*
X137679999Y-81774452D01*
X137679999Y-81097331D01*
X137679629Y-81090510D01*
X137674105Y-81039648D01*
X137670479Y-81024396D01*
X137625324Y-80903946D01*
X137616786Y-80888351D01*
X137540285Y-80786276D01*
X137527724Y-80773715D01*
X137425649Y-80697214D01*
X137410054Y-80688676D01*
X137289606Y-80643522D01*
X137274351Y-80639895D01*
X137223486Y-80634369D01*
X137216672Y-80634000D01*
X136194115Y-80634000D01*
X136178876Y-80638475D01*
X136177671Y-80639865D01*
X136176000Y-80647548D01*
X136176000Y-81769885D01*
X135668000Y-81769885D01*
X135668000Y-80652116D01*
X135663525Y-80636877D01*
X135662135Y-80635672D01*
X135654452Y-80634001D01*
X134627331Y-80634001D01*
X134620510Y-80634371D01*
X134569648Y-80639895D01*
X134554396Y-80643521D01*
X134433946Y-80688676D01*
X134418351Y-80697214D01*
X134316276Y-80773715D01*
X134303715Y-80786276D01*
X134227214Y-80888351D01*
X134218676Y-80903946D01*
X134173522Y-81024394D01*
X134169895Y-81039649D01*
X134164369Y-81090514D01*
X134164000Y-81097328D01*
X134164000Y-81769885D01*
X132842500Y-81769885D01*
X132842500Y-72008500D01*
X132862502Y-71940379D01*
X132916158Y-71893886D01*
X132968500Y-71882500D01*
X151511500Y-71882500D01*
X151579621Y-71902502D01*
G37*
%TD.AperFunction*%
%TA.AperFunction,Conductor*%
G36*
X148786121Y-87396002D02*
G01*
X148832614Y-87449658D01*
X148844000Y-87502000D01*
X148844000Y-90298000D01*
X148823998Y-90366121D01*
X148770342Y-90412614D01*
X148718000Y-90424000D01*
X148462000Y-90424000D01*
X148393879Y-90403998D01*
X148347386Y-90350342D01*
X148336000Y-90298000D01*
X148336000Y-87502000D01*
X148356002Y-87433879D01*
X148409658Y-87387386D01*
X148462000Y-87376000D01*
X148718000Y-87376000D01*
X148786121Y-87396002D01*
G37*
%TD.AperFunction*%
%TD*%
M02*
