%TF.GenerationSoftware,KiCad,Pcbnew,6.0.11+dfsg-1~bpo11+1*%
%TF.CreationDate,2023-04-13T12:00:23+00:00*%
%TF.ProjectId,FRAM01A,4652414d-3031-4412-9e6b-696361645f70,rev?*%
%TF.SameCoordinates,Original*%
%TF.FileFunction,Legend,Top*%
%TF.FilePolarity,Positive*%
%FSLAX46Y46*%
G04 Gerber Fmt 4.6, Leading zero omitted, Abs format (unit mm)*
G04 Created by KiCad (PCBNEW 6.0.11+dfsg-1~bpo11+1) date 2023-04-13 12:00:23*
%MOMM*%
%LPD*%
G01*
G04 APERTURE LIST*
%ADD10C,0.150000*%
%ADD11R,1.524000X1.524000*%
G04 APERTURE END LIST*
D10*
X150042666Y-82002380D02*
X150376000Y-83002380D01*
X150709333Y-82002380D01*
X151042666Y-83002380D02*
X151042666Y-82002380D01*
X151280761Y-82002380D01*
X151423619Y-82050000D01*
X151518857Y-82145238D01*
X151566476Y-82240476D01*
X151614095Y-82430952D01*
X151614095Y-82573809D01*
X151566476Y-82764285D01*
X151518857Y-82859523D01*
X151423619Y-82954761D01*
X151280761Y-83002380D01*
X151042666Y-83002380D01*
X150614095Y-87130000D02*
X150518857Y-87082380D01*
X150376000Y-87082380D01*
X150233142Y-87130000D01*
X150137904Y-87225238D01*
X150090285Y-87320476D01*
X150042666Y-87510952D01*
X150042666Y-87653809D01*
X150090285Y-87844285D01*
X150137904Y-87939523D01*
X150233142Y-88034761D01*
X150376000Y-88082380D01*
X150471238Y-88082380D01*
X150614095Y-88034761D01*
X150661714Y-87987142D01*
X150661714Y-87653809D01*
X150471238Y-87653809D01*
X151090285Y-88082380D02*
X151090285Y-87082380D01*
X151661714Y-88082380D01*
X151661714Y-87082380D01*
X142684571Y-83002380D02*
X142684571Y-82002380D01*
X143017904Y-82716666D01*
X143351238Y-82002380D01*
X143351238Y-83002380D01*
X143827428Y-83002380D02*
X143827428Y-82002380D01*
X134421904Y-85694571D02*
X134088571Y-85694571D01*
X134088571Y-86218380D02*
X134088571Y-85218380D01*
X134564761Y-85218380D01*
X135517142Y-86218380D02*
X135183809Y-85742190D01*
X134945714Y-86218380D02*
X134945714Y-85218380D01*
X135326666Y-85218380D01*
X135421904Y-85266000D01*
X135469523Y-85313619D01*
X135517142Y-85408857D01*
X135517142Y-85551714D01*
X135469523Y-85646952D01*
X135421904Y-85694571D01*
X135326666Y-85742190D01*
X134945714Y-85742190D01*
X135898095Y-85932666D02*
X136374285Y-85932666D01*
X135802857Y-86218380D02*
X136136190Y-85218380D01*
X136469523Y-86218380D01*
X136802857Y-86218380D02*
X136802857Y-85218380D01*
X137136190Y-85932666D01*
X137469523Y-85218380D01*
X137469523Y-86218380D01*
X138136190Y-85218380D02*
X138231428Y-85218380D01*
X138326666Y-85266000D01*
X138374285Y-85313619D01*
X138421904Y-85408857D01*
X138469523Y-85599333D01*
X138469523Y-85837428D01*
X138421904Y-86027904D01*
X138374285Y-86123142D01*
X138326666Y-86170761D01*
X138231428Y-86218380D01*
X138136190Y-86218380D01*
X138040952Y-86170761D01*
X137993333Y-86123142D01*
X137945714Y-86027904D01*
X137898095Y-85837428D01*
X137898095Y-85599333D01*
X137945714Y-85408857D01*
X137993333Y-85313619D01*
X138040952Y-85266000D01*
X138136190Y-85218380D01*
X139421904Y-86218380D02*
X138850476Y-86218380D01*
X139136190Y-86218380D02*
X139136190Y-85218380D01*
X139040952Y-85361238D01*
X138945714Y-85456476D01*
X138850476Y-85504095D01*
X139802857Y-85932666D02*
X140279047Y-85932666D01*
X139707619Y-86218380D02*
X140040952Y-85218380D01*
X140374285Y-86218380D01*
X135493333Y-87828380D02*
X135493333Y-86828380D01*
X135826666Y-87542666D01*
X136160000Y-86828380D01*
X136160000Y-87828380D01*
X137112380Y-87828380D02*
X136636190Y-87828380D01*
X136636190Y-86828380D01*
X137398095Y-87542666D02*
X137874285Y-87542666D01*
X137302857Y-87828380D02*
X137636190Y-86828380D01*
X137969523Y-87828380D01*
X138636190Y-87304571D02*
X138779047Y-87352190D01*
X138826666Y-87399809D01*
X138874285Y-87495047D01*
X138874285Y-87637904D01*
X138826666Y-87733142D01*
X138779047Y-87780761D01*
X138683809Y-87828380D01*
X138302857Y-87828380D01*
X138302857Y-86828380D01*
X138636190Y-86828380D01*
X138731428Y-86876000D01*
X138779047Y-86923619D01*
X138826666Y-87018857D01*
X138826666Y-87114095D01*
X138779047Y-87209333D01*
X138731428Y-87256952D01*
X138636190Y-87304571D01*
X138302857Y-87304571D01*
X134112380Y-89438380D02*
X133540952Y-89438380D01*
X133826666Y-89438380D02*
X133826666Y-88438380D01*
X133731428Y-88581238D01*
X133636190Y-88676476D01*
X133540952Y-88724095D01*
X134540952Y-89343142D02*
X134588571Y-89390761D01*
X134540952Y-89438380D01*
X134493333Y-89390761D01*
X134540952Y-89343142D01*
X134540952Y-89438380D01*
X135160000Y-88866952D02*
X135064761Y-88819333D01*
X135017142Y-88771714D01*
X134969523Y-88676476D01*
X134969523Y-88628857D01*
X135017142Y-88533619D01*
X135064761Y-88486000D01*
X135160000Y-88438380D01*
X135350476Y-88438380D01*
X135445714Y-88486000D01*
X135493333Y-88533619D01*
X135540952Y-88628857D01*
X135540952Y-88676476D01*
X135493333Y-88771714D01*
X135445714Y-88819333D01*
X135350476Y-88866952D01*
X135160000Y-88866952D01*
X135064761Y-88914571D01*
X135017142Y-88962190D01*
X134969523Y-89057428D01*
X134969523Y-89247904D01*
X135017142Y-89343142D01*
X135064761Y-89390761D01*
X135160000Y-89438380D01*
X135350476Y-89438380D01*
X135445714Y-89390761D01*
X135493333Y-89343142D01*
X135540952Y-89247904D01*
X135540952Y-89057428D01*
X135493333Y-88962190D01*
X135445714Y-88914571D01*
X135350476Y-88866952D01*
X135969523Y-89057428D02*
X136731428Y-89057428D01*
X137112380Y-88438380D02*
X137731428Y-88438380D01*
X137398095Y-88819333D01*
X137540952Y-88819333D01*
X137636190Y-88866952D01*
X137683809Y-88914571D01*
X137731428Y-89009809D01*
X137731428Y-89247904D01*
X137683809Y-89343142D01*
X137636190Y-89390761D01*
X137540952Y-89438380D01*
X137255238Y-89438380D01*
X137160000Y-89390761D01*
X137112380Y-89343142D01*
X138160000Y-89343142D02*
X138207619Y-89390761D01*
X138160000Y-89438380D01*
X138112380Y-89390761D01*
X138160000Y-89343142D01*
X138160000Y-89438380D01*
X139064761Y-88438380D02*
X138874285Y-88438380D01*
X138779047Y-88486000D01*
X138731428Y-88533619D01*
X138636190Y-88676476D01*
X138588571Y-88866952D01*
X138588571Y-89247904D01*
X138636190Y-89343142D01*
X138683809Y-89390761D01*
X138779047Y-89438380D01*
X138969523Y-89438380D01*
X139064761Y-89390761D01*
X139112380Y-89343142D01*
X139160000Y-89247904D01*
X139160000Y-89009809D01*
X139112380Y-88914571D01*
X139064761Y-88866952D01*
X138969523Y-88819333D01*
X138779047Y-88819333D01*
X138683809Y-88866952D01*
X138636190Y-88914571D01*
X138588571Y-89009809D01*
X140207619Y-88438380D02*
X140540952Y-89438380D01*
X140874285Y-88438380D01*
X142184571Y-89594000D02*
X143327428Y-89594000D01*
X142327428Y-89876380D02*
X142565523Y-90876380D01*
X142756000Y-90162095D01*
X142946476Y-90876380D01*
X143184571Y-89876380D01*
X143327428Y-89594000D02*
X144327428Y-89594000D01*
X143565523Y-90876380D02*
X143565523Y-89876380D01*
X143946476Y-89876380D01*
X144041714Y-89924000D01*
X144089333Y-89971619D01*
X144136952Y-90066857D01*
X144136952Y-90209714D01*
X144089333Y-90304952D01*
X144041714Y-90352571D01*
X143946476Y-90400190D01*
X143565523Y-90400190D01*
X142279809Y-87054000D02*
X143279809Y-87054000D01*
X143089333Y-88241142D02*
X143041714Y-88288761D01*
X142898857Y-88336380D01*
X142803619Y-88336380D01*
X142660761Y-88288761D01*
X142565523Y-88193523D01*
X142517904Y-88098285D01*
X142470285Y-87907809D01*
X142470285Y-87764952D01*
X142517904Y-87574476D01*
X142565523Y-87479238D01*
X142660761Y-87384000D01*
X142803619Y-87336380D01*
X142898857Y-87336380D01*
X143041714Y-87384000D01*
X143089333Y-87431619D01*
X143279809Y-87054000D02*
X144232190Y-87054000D01*
X143470285Y-88288761D02*
X143613142Y-88336380D01*
X143851238Y-88336380D01*
X143946476Y-88288761D01*
X143994095Y-88241142D01*
X144041714Y-88145904D01*
X144041714Y-88050666D01*
X143994095Y-87955428D01*
X143946476Y-87907809D01*
X143851238Y-87860190D01*
X143660761Y-87812571D01*
X143565523Y-87764952D01*
X143517904Y-87717333D01*
X143470285Y-87622095D01*
X143470285Y-87526857D01*
X143517904Y-87431619D01*
X143565523Y-87384000D01*
X143660761Y-87336380D01*
X143898857Y-87336380D01*
X144041714Y-87384000D01*
X150614095Y-89670000D02*
X150518857Y-89622380D01*
X150376000Y-89622380D01*
X150233142Y-89670000D01*
X150137904Y-89765238D01*
X150090285Y-89860476D01*
X150042666Y-90050952D01*
X150042666Y-90193809D01*
X150090285Y-90384285D01*
X150137904Y-90479523D01*
X150233142Y-90574761D01*
X150376000Y-90622380D01*
X150471238Y-90622380D01*
X150614095Y-90574761D01*
X150661714Y-90527142D01*
X150661714Y-90193809D01*
X150471238Y-90193809D01*
X151090285Y-90622380D02*
X151090285Y-89622380D01*
X151661714Y-90622380D01*
X151661714Y-89622380D01*
X150018857Y-85542380D02*
X150018857Y-84542380D01*
X150352190Y-85256666D01*
X150685523Y-84542380D01*
X150685523Y-85542380D01*
X151352190Y-84542380D02*
X151542666Y-84542380D01*
X151637904Y-84590000D01*
X151733142Y-84685238D01*
X151780761Y-84875714D01*
X151780761Y-85209047D01*
X151733142Y-85399523D01*
X151637904Y-85494761D01*
X151542666Y-85542380D01*
X151352190Y-85542380D01*
X151256952Y-85494761D01*
X151161714Y-85399523D01*
X151114095Y-85209047D01*
X151114095Y-84875714D01*
X151161714Y-84685238D01*
X151256952Y-84590000D01*
X151352190Y-84542380D01*
X142470285Y-85748761D02*
X142613142Y-85796380D01*
X142851238Y-85796380D01*
X142946476Y-85748761D01*
X142994095Y-85701142D01*
X143041714Y-85605904D01*
X143041714Y-85510666D01*
X142994095Y-85415428D01*
X142946476Y-85367809D01*
X142851238Y-85320190D01*
X142660761Y-85272571D01*
X142565523Y-85224952D01*
X142517904Y-85177333D01*
X142470285Y-85082095D01*
X142470285Y-84986857D01*
X142517904Y-84891619D01*
X142565523Y-84844000D01*
X142660761Y-84796380D01*
X142898857Y-84796380D01*
X143041714Y-84844000D01*
X144041714Y-85701142D02*
X143994095Y-85748761D01*
X143851238Y-85796380D01*
X143756000Y-85796380D01*
X143613142Y-85748761D01*
X143517904Y-85653523D01*
X143470285Y-85558285D01*
X143422666Y-85367809D01*
X143422666Y-85224952D01*
X143470285Y-85034476D01*
X143517904Y-84939238D01*
X143613142Y-84844000D01*
X143756000Y-84796380D01*
X143851238Y-84796380D01*
X143994095Y-84844000D01*
X144041714Y-84891619D01*
%TO.C,J2*%
X149860000Y-91440000D02*
X144780000Y-91440000D01*
X144780000Y-91440000D02*
X144780000Y-81280000D01*
X149860000Y-81280000D02*
X149860000Y-91440000D01*
X144780000Y-81280000D02*
X149860000Y-81280000D01*
%TD*%
D11*
%TO.C,J2*%
X146050000Y-82550000D03*
X148590000Y-82550000D03*
X146050000Y-85090000D03*
X148590000Y-85090000D03*
X146050000Y-87630000D03*
X148590000Y-87630000D03*
X146050000Y-90170000D03*
X148590000Y-90170000D03*
%TD*%
M02*
