  0
SECTION
  2
HEADER
  9
$ANGBASE
  50
0.0
  9
$ANGDIR
  70
1
  9
$MEASUREMENT
  70
0
  0
ENDSEC
  0
SECTION
  2
TABLES
  0
TABLE
  2
LTYPE
  70
4
  0
LTYPE
  5
40F
  2
CONTINUOUS
  70
0
  3
Solid line
  72
65
  73
0
  40
0.0
  0
LTYPE
  5
410
  2
DASHDOT
 70
0
  3
Dash Dot ____ _ ____ _
 72
65
 73
4
 40
2.0
 49
1.25
 49
-0.25
 49
0.25
 49
-0.25
  0
LTYPE
  5
411
  2
DASHED
 70
0
  3
Dashed __ __ __ __ __
 72
65
 73
2
 40
0.75
 49
0.5
 49
-0.25
  0
LTYPE
  5
43B
  2
DOTTED
 70
0
  3
Dotted .  .  .  .
 72
65
 73
2
 40
0.2
 49
0.0
 49
-0.2
  0
ENDTAB
  0
TABLE
  2
STYLE
  70
4
  0
STYLE
  2
KICAD
  70
0
  40
0
  41
1
  42
1
  50
0
  71
0
  3
isocp.shx
  0
STYLE
  2
KICADB
  70
0
  40
0
  41
1
  42
1
  50
0
  71
0
  3
isocp.shx
  0
STYLE
  2
KICADI
  70
0
  40
0
  41
1
  42
1
  50
15
  71
0
  3
isocp.shx
  0
STYLE
  2
KICADBI
  70
0
  40
0
  41
1
  42
1
  50
15
  71
0
  3
isocp.shx
  0
ENDTAB
  0
TABLE
  2
LAYER
  70
1
  0
LAYER
  2
BLACK
  70
0
  62
7
  6
CONTINUOUS
  0
ENDTAB
  0
ENDSEC
  0
SECTION
  2
ENTITIES
0
LINE
8
BLACK
6
CONTINUOUS
10
5.42051
20
-3.68368
11
5.43387
21
-3.68685
0
LINE
8
BLACK
6
CONTINUOUS
10
5.43387
20
-3.68685
11
5.44678
21
-3.69155
0
LINE
8
BLACK
6
CONTINUOUS
10
5.44678
20
-3.69155
11
5.45906
21
-3.69771
0
LINE
8
BLACK
6
CONTINUOUS
10
5.45906
20
-3.69771
11
5.47053
21
-3.70526
0
LINE
8
BLACK
6
CONTINUOUS
10
5.47053
20
-3.70526
11
5.48105
21
-3.71409
0
LINE
8
BLACK
6
CONTINUOUS
10
5.48105
20
-3.71409
11
5.49048
21
-3.72408
0
LINE
8
BLACK
6
CONTINUOUS
10
5.49048
20
-3.72408
11
5.49868
21
-3.7351
0
LINE
8
BLACK
6
CONTINUOUS
10
5.49868
20
-3.7351
11
5.50555
21
-3.74699
0
LINE
8
BLACK
6
CONTINUOUS
10
5.50555
20
-3.74699
11
5.51099
21
-3.7596
0
LINE
8
BLACK
6
CONTINUOUS
10
5.51099
20
-3.7596
11
5.51493
21
-3.77276
0
LINE
8
BLACK
6
CONTINUOUS
10
5.51493
20
-3.77276
11
5.51731
21
-3.78629
0
LINE
8
BLACK
6
CONTINUOUS
10
5.51731
20
-3.78629
11
5.51811
21
-3.8
0
LINE
8
BLACK
6
CONTINUOUS
10
5.51811
20
-3.8
11
5.51731
21
-3.81371
0
LINE
8
BLACK
6
CONTINUOUS
10
5.51731
20
-3.81371
11
5.51493
21
-3.82724
0
LINE
8
BLACK
6
CONTINUOUS
10
5.51493
20
-3.82724
11
5.51099
21
-3.8404
0
LINE
8
BLACK
6
CONTINUOUS
10
5.51099
20
-3.8404
11
5.50555
21
-3.85301
0
LINE
8
BLACK
6
CONTINUOUS
10
5.50555
20
-3.85301
11
5.49868
21
-3.8649
0
LINE
8
BLACK
6
CONTINUOUS
10
5.49868
20
-3.8649
11
5.49048
21
-3.87592
0
LINE
8
BLACK
6
CONTINUOUS
10
5.49048
20
-3.87592
11
5.48105
21
-3.88591
0
LINE
8
BLACK
6
CONTINUOUS
10
5.48105
20
-3.88591
11
5.47053
21
-3.89474
0
LINE
8
BLACK
6
CONTINUOUS
10
5.47053
20
-3.89474
11
5.45906
21
-3.90229
0
LINE
8
BLACK
6
CONTINUOUS
10
5.45906
20
-3.90229
11
5.44678
21
-3.90845
0
LINE
8
BLACK
6
CONTINUOUS
10
5.44678
20
-3.90845
11
5.43387
21
-3.91315
0
LINE
8
BLACK
6
CONTINUOUS
10
5.43387
20
-3.91315
11
5.42051
21
-3.91632
0
LINE
8
BLACK
6
CONTINUOUS
10
5.42051
20
-3.91632
11
5.40687
21
-3.91791
0
LINE
8
BLACK
6
CONTINUOUS
10
5.40687
20
-3.91791
11
5.39313
21
-3.91791
0
LINE
8
BLACK
6
CONTINUOUS
10
5.39313
20
-3.91791
11
5.37949
21
-3.91632
0
LINE
8
BLACK
6
CONTINUOUS
10
5.37949
20
-3.91632
11
5.36613
21
-3.91315
0
LINE
8
BLACK
6
CONTINUOUS
10
5.36613
20
-3.91315
11
5.35322
21
-3.90845
0
LINE
8
BLACK
6
CONTINUOUS
10
5.35322
20
-3.90845
11
5.34094
21
-3.90229
0
LINE
8
BLACK
6
CONTINUOUS
10
5.34094
20
-3.90229
11
5.32947
21
-3.89474
0
LINE
8
BLACK
6
CONTINUOUS
10
5.32947
20
-3.89474
11
5.31895
21
-3.88591
0
LINE
8
BLACK
6
CONTINUOUS
10
5.31895
20
-3.88591
11
5.30952
21
-3.87592
0
LINE
8
BLACK
6
CONTINUOUS
10
5.30952
20
-3.87592
11
5.30132
21
-3.8649
0
LINE
8
BLACK
6
CONTINUOUS
10
5.30132
20
-3.8649
11
5.29445
21
-3.85301
0
LINE
8
BLACK
6
CONTINUOUS
10
5.29445
20
-3.85301
11
5.28901
21
-3.8404
0
LINE
8
BLACK
6
CONTINUOUS
10
5.28901
20
-3.8404
11
5.28507
21
-3.82724
0
LINE
8
BLACK
6
CONTINUOUS
10
5.28507
20
-3.82724
11
5.28269
21
-3.81371
0
LINE
8
BLACK
6
CONTINUOUS
10
5.28269
20
-3.81371
11
5.28189
21
-3.8
0
LINE
8
BLACK
6
CONTINUOUS
10
5.28189
20
-3.8
11
5.28269
21
-3.78629
0
LINE
8
BLACK
6
CONTINUOUS
10
5.28269
20
-3.78629
11
5.28507
21
-3.77276
0
LINE
8
BLACK
6
CONTINUOUS
10
5.28507
20
-3.77276
11
5.28901
21
-3.7596
0
LINE
8
BLACK
6
CONTINUOUS
10
5.28901
20
-3.7596
11
5.29445
21
-3.74699
0
LINE
8
BLACK
6
CONTINUOUS
10
5.29445
20
-3.74699
11
5.30132
21
-3.7351
0
LINE
8
BLACK
6
CONTINUOUS
10
5.30132
20
-3.7351
11
5.30952
21
-3.72408
0
LINE
8
BLACK
6
CONTINUOUS
10
5.30952
20
-3.72408
11
5.31895
21
-3.71409
0
LINE
8
BLACK
6
CONTINUOUS
10
5.31895
20
-3.71409
11
5.32947
21
-3.70526
0
LINE
8
BLACK
6
CONTINUOUS
10
5.32947
20
-3.70526
11
5.34094
21
-3.69771
0
LINE
8
BLACK
6
CONTINUOUS
10
5.34094
20
-3.69771
11
5.35322
21
-3.69155
0
LINE
8
BLACK
6
CONTINUOUS
10
5.35322
20
-3.69155
11
5.36613
21
-3.68685
0
LINE
8
BLACK
6
CONTINUOUS
10
5.36613
20
-3.68685
11
5.37949
21
-3.68368
0
LINE
8
BLACK
6
CONTINUOUS
10
5.37949
20
-3.68368
11
5.39313
21
-3.68209
0
LINE
8
BLACK
6
CONTINUOUS
10
5.39313
20
-3.68209
11
5.40687
21
-3.68209
0
LINE
8
BLACK
6
CONTINUOUS
10
5.40687
20
-3.68209
11
5.42051
21
-3.68368
0
LINE
8
BLACK
6
CONTINUOUS
10
5.82051
20
-3.68368
11
5.83387
21
-3.68685
0
LINE
8
BLACK
6
CONTINUOUS
10
5.83387
20
-3.68685
11
5.84678
21
-3.69155
0
LINE
8
BLACK
6
CONTINUOUS
10
5.84678
20
-3.69155
11
5.85906
21
-3.69771
0
LINE
8
BLACK
6
CONTINUOUS
10
5.85906
20
-3.69771
11
5.87053
21
-3.70526
0
LINE
8
BLACK
6
CONTINUOUS
10
5.87053
20
-3.70526
11
5.88105
21
-3.71409
0
LINE
8
BLACK
6
CONTINUOUS
10
5.88105
20
-3.71409
11
5.89048
21
-3.72408
0
LINE
8
BLACK
6
CONTINUOUS
10
5.89048
20
-3.72408
11
5.89868
21
-3.7351
0
LINE
8
BLACK
6
CONTINUOUS
10
5.89868
20
-3.7351
11
5.90555
21
-3.74699
0
LINE
8
BLACK
6
CONTINUOUS
10
5.90555
20
-3.74699
11
5.91099
21
-3.7596
0
LINE
8
BLACK
6
CONTINUOUS
10
5.91099
20
-3.7596
11
5.91493
21
-3.77276
0
LINE
8
BLACK
6
CONTINUOUS
10
5.91493
20
-3.77276
11
5.91731
21
-3.78629
0
LINE
8
BLACK
6
CONTINUOUS
10
5.91731
20
-3.78629
11
5.91811
21
-3.8
0
LINE
8
BLACK
6
CONTINUOUS
10
5.91811
20
-3.8
11
5.91731
21
-3.81371
0
LINE
8
BLACK
6
CONTINUOUS
10
5.91731
20
-3.81371
11
5.91493
21
-3.82724
0
LINE
8
BLACK
6
CONTINUOUS
10
5.91493
20
-3.82724
11
5.91099
21
-3.8404
0
LINE
8
BLACK
6
CONTINUOUS
10
5.91099
20
-3.8404
11
5.90555
21
-3.85301
0
LINE
8
BLACK
6
CONTINUOUS
10
5.90555
20
-3.85301
11
5.89868
21
-3.8649
0
LINE
8
BLACK
6
CONTINUOUS
10
5.89868
20
-3.8649
11
5.89048
21
-3.87592
0
LINE
8
BLACK
6
CONTINUOUS
10
5.89048
20
-3.87592
11
5.88105
21
-3.88591
0
LINE
8
BLACK
6
CONTINUOUS
10
5.88105
20
-3.88591
11
5.87053
21
-3.89474
0
LINE
8
BLACK
6
CONTINUOUS
10
5.87053
20
-3.89474
11
5.85906
21
-3.90229
0
LINE
8
BLACK
6
CONTINUOUS
10
5.85906
20
-3.90229
11
5.84678
21
-3.90845
0
LINE
8
BLACK
6
CONTINUOUS
10
5.84678
20
-3.90845
11
5.83387
21
-3.91315
0
LINE
8
BLACK
6
CONTINUOUS
10
5.83387
20
-3.91315
11
5.82051
21
-3.91632
0
LINE
8
BLACK
6
CONTINUOUS
10
5.82051
20
-3.91632
11
5.80687
21
-3.91791
0
LINE
8
BLACK
6
CONTINUOUS
10
5.80687
20
-3.91791
11
5.79313
21
-3.91791
0
LINE
8
BLACK
6
CONTINUOUS
10
5.79313
20
-3.91791
11
5.77949
21
-3.91632
0
LINE
8
BLACK
6
CONTINUOUS
10
5.77949
20
-3.91632
11
5.76613
21
-3.91315
0
LINE
8
BLACK
6
CONTINUOUS
10
5.76613
20
-3.91315
11
5.75322
21
-3.90845
0
LINE
8
BLACK
6
CONTINUOUS
10
5.75322
20
-3.90845
11
5.74094
21
-3.90229
0
LINE
8
BLACK
6
CONTINUOUS
10
5.74094
20
-3.90229
11
5.72947
21
-3.89474
0
LINE
8
BLACK
6
CONTINUOUS
10
5.72947
20
-3.89474
11
5.71895
21
-3.88591
0
LINE
8
BLACK
6
CONTINUOUS
10
5.71895
20
-3.88591
11
5.70952
21
-3.87592
0
LINE
8
BLACK
6
CONTINUOUS
10
5.70952
20
-3.87592
11
5.70132
21
-3.8649
0
LINE
8
BLACK
6
CONTINUOUS
10
5.70132
20
-3.8649
11
5.69445
21
-3.85301
0
LINE
8
BLACK
6
CONTINUOUS
10
5.69445
20
-3.85301
11
5.68901
21
-3.8404
0
LINE
8
BLACK
6
CONTINUOUS
10
5.68901
20
-3.8404
11
5.68507
21
-3.82724
0
LINE
8
BLACK
6
CONTINUOUS
10
5.68507
20
-3.82724
11
5.68269
21
-3.81371
0
LINE
8
BLACK
6
CONTINUOUS
10
5.68269
20
-3.81371
11
5.68189
21
-3.8
0
LINE
8
BLACK
6
CONTINUOUS
10
5.68189
20
-3.8
11
5.68269
21
-3.78629
0
LINE
8
BLACK
6
CONTINUOUS
10
5.68269
20
-3.78629
11
5.68507
21
-3.77276
0
LINE
8
BLACK
6
CONTINUOUS
10
5.68507
20
-3.77276
11
5.68901
21
-3.7596
0
LINE
8
BLACK
6
CONTINUOUS
10
5.68901
20
-3.7596
11
5.69445
21
-3.74699
0
LINE
8
BLACK
6
CONTINUOUS
10
5.69445
20
-3.74699
11
5.70132
21
-3.7351
0
LINE
8
BLACK
6
CONTINUOUS
10
5.70132
20
-3.7351
11
5.70952
21
-3.72408
0
LINE
8
BLACK
6
CONTINUOUS
10
5.70952
20
-3.72408
11
5.71895
21
-3.71409
0
LINE
8
BLACK
6
CONTINUOUS
10
5.71895
20
-3.71409
11
5.72947
21
-3.70526
0
LINE
8
BLACK
6
CONTINUOUS
10
5.72947
20
-3.70526
11
5.74094
21
-3.69771
0
LINE
8
BLACK
6
CONTINUOUS
10
5.74094
20
-3.69771
11
5.75322
21
-3.69155
0
LINE
8
BLACK
6
CONTINUOUS
10
5.75322
20
-3.69155
11
5.76613
21
-3.68685
0
LINE
8
BLACK
6
CONTINUOUS
10
5.76613
20
-3.68685
11
5.77949
21
-3.68368
0
LINE
8
BLACK
6
CONTINUOUS
10
5.77949
20
-3.68368
11
5.79313
21
-3.68209
0
LINE
8
BLACK
6
CONTINUOUS
10
5.79313
20
-3.68209
11
5.80687
21
-3.68209
0
LINE
8
BLACK
6
CONTINUOUS
10
5.80687
20
-3.68209
11
5.82051
21
-3.68368
0
LINE
8
BLACK
6
CONTINUOUS
10
5.75441
20
-3.58
11
5.69441
21
-3.58
0
LINE
8
BLACK
6
CONTINUOUS
10
5.69441
20
-3.58
11
5.69441
21
-3.52
0
LINE
8
BLACK
6
CONTINUOUS
10
5.69441
20
-3.52
11
5.75441
21
-3.52
0
LINE
8
BLACK
6
CONTINUOUS
10
5.75441
20
-3.52
11
5.75441
21
-3.58
0
LINE
8
BLACK
6
CONTINUOUS
10
5.85441
20
-3.58
11
5.79441
21
-3.58
0
LINE
8
BLACK
6
CONTINUOUS
10
5.79441
20
-3.58
11
5.79441
21
-3.52
0
LINE
8
BLACK
6
CONTINUOUS
10
5.79441
20
-3.52
11
5.85441
21
-3.52
0
LINE
8
BLACK
6
CONTINUOUS
10
5.85441
20
-3.52
11
5.85441
21
-3.58
0
LINE
8
BLACK
6
CONTINUOUS
10
5.75441
20
-3.48
11
5.69441
21
-3.48
0
LINE
8
BLACK
6
CONTINUOUS
10
5.69441
20
-3.48
11
5.69441
21
-3.42
0
LINE
8
BLACK
6
CONTINUOUS
10
5.69441
20
-3.42
11
5.75441
21
-3.42
0
LINE
8
BLACK
6
CONTINUOUS
10
5.75441
20
-3.42
11
5.75441
21
-3.48
0
LINE
8
BLACK
6
CONTINUOUS
10
5.85441
20
-3.48
11
5.79441
21
-3.48
0
LINE
8
BLACK
6
CONTINUOUS
10
5.79441
20
-3.48
11
5.79441
21
-3.42
0
LINE
8
BLACK
6
CONTINUOUS
10
5.79441
20
-3.42
11
5.85441
21
-3.42
0
LINE
8
BLACK
6
CONTINUOUS
10
5.85441
20
-3.42
11
5.85441
21
-3.48
0
LINE
8
BLACK
6
CONTINUOUS
10
5.75441
20
-3.38
11
5.69441
21
-3.38
0
LINE
8
BLACK
6
CONTINUOUS
10
5.69441
20
-3.38
11
5.69441
21
-3.32
0
LINE
8
BLACK
6
CONTINUOUS
10
5.69441
20
-3.32
11
5.75441
21
-3.32
0
LINE
8
BLACK
6
CONTINUOUS
10
5.75441
20
-3.32
11
5.75441
21
-3.38
0
LINE
8
BLACK
6
CONTINUOUS
10
5.85441
20
-3.38
11
5.79441
21
-3.38
0
LINE
8
BLACK
6
CONTINUOUS
10
5.79441
20
-3.38
11
5.79441
21
-3.32
0
LINE
8
BLACK
6
CONTINUOUS
10
5.79441
20
-3.32
11
5.85441
21
-3.32
0
LINE
8
BLACK
6
CONTINUOUS
10
5.85441
20
-3.32
11
5.85441
21
-3.38
0
LINE
8
BLACK
6
CONTINUOUS
10
5.75441
20
-3.28
11
5.69441
21
-3.28
0
LINE
8
BLACK
6
CONTINUOUS
10
5.69441
20
-3.28
11
5.69441
21
-3.22
0
LINE
8
BLACK
6
CONTINUOUS
10
5.69441
20
-3.22
11
5.75441
21
-3.22
0
LINE
8
BLACK
6
CONTINUOUS
10
5.75441
20
-3.22
11
5.75441
21
-3.28
0
LINE
8
BLACK
6
CONTINUOUS
10
5.85441
20
-3.28
11
5.79441
21
-3.28
0
LINE
8
BLACK
6
CONTINUOUS
10
5.79441
20
-3.28
11
5.79441
21
-3.22
0
LINE
8
BLACK
6
CONTINUOUS
10
5.79441
20
-3.22
11
5.85441
21
-3.22
0
LINE
8
BLACK
6
CONTINUOUS
10
5.85441
20
-3.22
11
5.85441
21
-3.28
0
LINE
8
BLACK
6
CONTINUOUS
10
5.42051
20
-2.88368
11
5.43387
21
-2.88685
0
LINE
8
BLACK
6
CONTINUOUS
10
5.43387
20
-2.88685
11
5.44678
21
-2.89155
0
LINE
8
BLACK
6
CONTINUOUS
10
5.44678
20
-2.89155
11
5.45906
21
-2.89771
0
LINE
8
BLACK
6
CONTINUOUS
10
5.45906
20
-2.89771
11
5.47053
21
-2.90526
0
LINE
8
BLACK
6
CONTINUOUS
10
5.47053
20
-2.90526
11
5.48105
21
-2.91409
0
LINE
8
BLACK
6
CONTINUOUS
10
5.48105
20
-2.91409
11
5.49048
21
-2.92408
0
LINE
8
BLACK
6
CONTINUOUS
10
5.49048
20
-2.92408
11
5.49868
21
-2.9351
0
LINE
8
BLACK
6
CONTINUOUS
10
5.49868
20
-2.9351
11
5.50555
21
-2.94699
0
LINE
8
BLACK
6
CONTINUOUS
10
5.50555
20
-2.94699
11
5.51099
21
-2.9596
0
LINE
8
BLACK
6
CONTINUOUS
10
5.51099
20
-2.9596
11
5.51493
21
-2.97276
0
LINE
8
BLACK
6
CONTINUOUS
10
5.51493
20
-2.97276
11
5.51731
21
-2.98629
0
LINE
8
BLACK
6
CONTINUOUS
10
5.51731
20
-2.98629
11
5.51811
21
-3
0
LINE
8
BLACK
6
CONTINUOUS
10
5.51811
20
-3
11
5.51731
21
-3.01371
0
LINE
8
BLACK
6
CONTINUOUS
10
5.51731
20
-3.01371
11
5.51493
21
-3.02724
0
LINE
8
BLACK
6
CONTINUOUS
10
5.51493
20
-3.02724
11
5.51099
21
-3.0404
0
LINE
8
BLACK
6
CONTINUOUS
10
5.51099
20
-3.0404
11
5.50555
21
-3.05301
0
LINE
8
BLACK
6
CONTINUOUS
10
5.50555
20
-3.05301
11
5.49868
21
-3.0649
0
LINE
8
BLACK
6
CONTINUOUS
10
5.49868
20
-3.0649
11
5.49048
21
-3.07592
0
LINE
8
BLACK
6
CONTINUOUS
10
5.49048
20
-3.07592
11
5.48105
21
-3.08591
0
LINE
8
BLACK
6
CONTINUOUS
10
5.48105
20
-3.08591
11
5.47053
21
-3.09474
0
LINE
8
BLACK
6
CONTINUOUS
10
5.47053
20
-3.09474
11
5.45906
21
-3.10229
0
LINE
8
BLACK
6
CONTINUOUS
10
5.45906
20
-3.10229
11
5.44678
21
-3.10845
0
LINE
8
BLACK
6
CONTINUOUS
10
5.44678
20
-3.10845
11
5.43387
21
-3.11315
0
LINE
8
BLACK
6
CONTINUOUS
10
5.43387
20
-3.11315
11
5.42051
21
-3.11632
0
LINE
8
BLACK
6
CONTINUOUS
10
5.42051
20
-3.11632
11
5.40687
21
-3.11791
0
LINE
8
BLACK
6
CONTINUOUS
10
5.40687
20
-3.11791
11
5.39313
21
-3.11791
0
LINE
8
BLACK
6
CONTINUOUS
10
5.39313
20
-3.11791
11
5.37949
21
-3.11632
0
LINE
8
BLACK
6
CONTINUOUS
10
5.37949
20
-3.11632
11
5.36613
21
-3.11315
0
LINE
8
BLACK
6
CONTINUOUS
10
5.36613
20
-3.11315
11
5.35322
21
-3.10845
0
LINE
8
BLACK
6
CONTINUOUS
10
5.35322
20
-3.10845
11
5.34094
21
-3.10229
0
LINE
8
BLACK
6
CONTINUOUS
10
5.34094
20
-3.10229
11
5.32947
21
-3.09474
0
LINE
8
BLACK
6
CONTINUOUS
10
5.32947
20
-3.09474
11
5.31895
21
-3.08591
0
LINE
8
BLACK
6
CONTINUOUS
10
5.31895
20
-3.08591
11
5.30952
21
-3.07592
0
LINE
8
BLACK
6
CONTINUOUS
10
5.30952
20
-3.07592
11
5.30132
21
-3.0649
0
LINE
8
BLACK
6
CONTINUOUS
10
5.30132
20
-3.0649
11
5.29445
21
-3.05301
0
LINE
8
BLACK
6
CONTINUOUS
10
5.29445
20
-3.05301
11
5.28901
21
-3.0404
0
LINE
8
BLACK
6
CONTINUOUS
10
5.28901
20
-3.0404
11
5.28507
21
-3.02724
0
LINE
8
BLACK
6
CONTINUOUS
10
5.28507
20
-3.02724
11
5.28269
21
-3.01371
0
LINE
8
BLACK
6
CONTINUOUS
10
5.28269
20
-3.01371
11
5.28189
21
-3
0
LINE
8
BLACK
6
CONTINUOUS
10
5.28189
20
-3
11
5.28269
21
-2.98629
0
LINE
8
BLACK
6
CONTINUOUS
10
5.28269
20
-2.98629
11
5.28507
21
-2.97276
0
LINE
8
BLACK
6
CONTINUOUS
10
5.28507
20
-2.97276
11
5.28901
21
-2.9596
0
LINE
8
BLACK
6
CONTINUOUS
10
5.28901
20
-2.9596
11
5.29445
21
-2.94699
0
LINE
8
BLACK
6
CONTINUOUS
10
5.29445
20
-2.94699
11
5.30132
21
-2.9351
0
LINE
8
BLACK
6
CONTINUOUS
10
5.30132
20
-2.9351
11
5.30952
21
-2.92408
0
LINE
8
BLACK
6
CONTINUOUS
10
5.30952
20
-2.92408
11
5.31895
21
-2.91409
0
LINE
8
BLACK
6
CONTINUOUS
10
5.31895
20
-2.91409
11
5.32947
21
-2.90526
0
LINE
8
BLACK
6
CONTINUOUS
10
5.32947
20
-2.90526
11
5.34094
21
-2.89771
0
LINE
8
BLACK
6
CONTINUOUS
10
5.34094
20
-2.89771
11
5.35322
21
-2.89155
0
LINE
8
BLACK
6
CONTINUOUS
10
5.35322
20
-2.89155
11
5.36613
21
-2.88685
0
LINE
8
BLACK
6
CONTINUOUS
10
5.36613
20
-2.88685
11
5.37949
21
-2.88368
0
LINE
8
BLACK
6
CONTINUOUS
10
5.37949
20
-2.88368
11
5.39313
21
-2.88209
0
LINE
8
BLACK
6
CONTINUOUS
10
5.39313
20
-2.88209
11
5.40687
21
-2.88209
0
LINE
8
BLACK
6
CONTINUOUS
10
5.40687
20
-2.88209
11
5.42051
21
-2.88368
0
LINE
8
BLACK
6
CONTINUOUS
10
5.82051
20
-2.88368
11
5.83387
21
-2.88685
0
LINE
8
BLACK
6
CONTINUOUS
10
5.83387
20
-2.88685
11
5.84678
21
-2.89155
0
LINE
8
BLACK
6
CONTINUOUS
10
5.84678
20
-2.89155
11
5.85906
21
-2.89771
0
LINE
8
BLACK
6
CONTINUOUS
10
5.85906
20
-2.89771
11
5.87053
21
-2.90526
0
LINE
8
BLACK
6
CONTINUOUS
10
5.87053
20
-2.90526
11
5.88105
21
-2.91409
0
LINE
8
BLACK
6
CONTINUOUS
10
5.88105
20
-2.91409
11
5.89048
21
-2.92408
0
LINE
8
BLACK
6
CONTINUOUS
10
5.89048
20
-2.92408
11
5.89868
21
-2.9351
0
LINE
8
BLACK
6
CONTINUOUS
10
5.89868
20
-2.9351
11
5.90555
21
-2.94699
0
LINE
8
BLACK
6
CONTINUOUS
10
5.90555
20
-2.94699
11
5.91099
21
-2.9596
0
LINE
8
BLACK
6
CONTINUOUS
10
5.91099
20
-2.9596
11
5.91493
21
-2.97276
0
LINE
8
BLACK
6
CONTINUOUS
10
5.91493
20
-2.97276
11
5.91731
21
-2.98629
0
LINE
8
BLACK
6
CONTINUOUS
10
5.91731
20
-2.98629
11
5.91811
21
-3
0
LINE
8
BLACK
6
CONTINUOUS
10
5.91811
20
-3
11
5.91731
21
-3.01371
0
LINE
8
BLACK
6
CONTINUOUS
10
5.91731
20
-3.01371
11
5.91493
21
-3.02724
0
LINE
8
BLACK
6
CONTINUOUS
10
5.91493
20
-3.02724
11
5.91099
21
-3.0404
0
LINE
8
BLACK
6
CONTINUOUS
10
5.91099
20
-3.0404
11
5.90555
21
-3.05301
0
LINE
8
BLACK
6
CONTINUOUS
10
5.90555
20
-3.05301
11
5.89868
21
-3.0649
0
LINE
8
BLACK
6
CONTINUOUS
10
5.89868
20
-3.0649
11
5.89048
21
-3.07592
0
LINE
8
BLACK
6
CONTINUOUS
10
5.89048
20
-3.07592
11
5.88105
21
-3.08591
0
LINE
8
BLACK
6
CONTINUOUS
10
5.88105
20
-3.08591
11
5.87053
21
-3.09474
0
LINE
8
BLACK
6
CONTINUOUS
10
5.87053
20
-3.09474
11
5.85906
21
-3.10229
0
LINE
8
BLACK
6
CONTINUOUS
10
5.85906
20
-3.10229
11
5.84678
21
-3.10845
0
LINE
8
BLACK
6
CONTINUOUS
10
5.84678
20
-3.10845
11
5.83387
21
-3.11315
0
LINE
8
BLACK
6
CONTINUOUS
10
5.83387
20
-3.11315
11
5.82051
21
-3.11632
0
LINE
8
BLACK
6
CONTINUOUS
10
5.82051
20
-3.11632
11
5.80687
21
-3.11791
0
LINE
8
BLACK
6
CONTINUOUS
10
5.80687
20
-3.11791
11
5.79313
21
-3.11791
0
LINE
8
BLACK
6
CONTINUOUS
10
5.79313
20
-3.11791
11
5.77949
21
-3.11632
0
LINE
8
BLACK
6
CONTINUOUS
10
5.77949
20
-3.11632
11
5.76613
21
-3.11315
0
LINE
8
BLACK
6
CONTINUOUS
10
5.76613
20
-3.11315
11
5.75322
21
-3.10845
0
LINE
8
BLACK
6
CONTINUOUS
10
5.75322
20
-3.10845
11
5.74094
21
-3.10229
0
LINE
8
BLACK
6
CONTINUOUS
10
5.74094
20
-3.10229
11
5.72947
21
-3.09474
0
LINE
8
BLACK
6
CONTINUOUS
10
5.72947
20
-3.09474
11
5.71895
21
-3.08591
0
LINE
8
BLACK
6
CONTINUOUS
10
5.71895
20
-3.08591
11
5.70952
21
-3.07592
0
LINE
8
BLACK
6
CONTINUOUS
10
5.70952
20
-3.07592
11
5.70132
21
-3.0649
0
LINE
8
BLACK
6
CONTINUOUS
10
5.70132
20
-3.0649
11
5.69445
21
-3.05301
0
LINE
8
BLACK
6
CONTINUOUS
10
5.69445
20
-3.05301
11
5.68901
21
-3.0404
0
LINE
8
BLACK
6
CONTINUOUS
10
5.68901
20
-3.0404
11
5.68507
21
-3.02724
0
LINE
8
BLACK
6
CONTINUOUS
10
5.68507
20
-3.02724
11
5.68269
21
-3.01371
0
LINE
8
BLACK
6
CONTINUOUS
10
5.68269
20
-3.01371
11
5.68189
21
-3
0
LINE
8
BLACK
6
CONTINUOUS
10
5.68189
20
-3
11
5.68269
21
-2.98629
0
LINE
8
BLACK
6
CONTINUOUS
10
5.68269
20
-2.98629
11
5.68507
21
-2.97276
0
LINE
8
BLACK
6
CONTINUOUS
10
5.68507
20
-2.97276
11
5.68901
21
-2.9596
0
LINE
8
BLACK
6
CONTINUOUS
10
5.68901
20
-2.9596
11
5.69445
21
-2.94699
0
LINE
8
BLACK
6
CONTINUOUS
10
5.69445
20
-2.94699
11
5.70132
21
-2.9351
0
LINE
8
BLACK
6
CONTINUOUS
10
5.70132
20
-2.9351
11
5.70952
21
-2.92408
0
LINE
8
BLACK
6
CONTINUOUS
10
5.70952
20
-2.92408
11
5.71895
21
-2.91409
0
LINE
8
BLACK
6
CONTINUOUS
10
5.71895
20
-2.91409
11
5.72947
21
-2.90526
0
LINE
8
BLACK
6
CONTINUOUS
10
5.72947
20
-2.90526
11
5.74094
21
-2.89771
0
LINE
8
BLACK
6
CONTINUOUS
10
5.74094
20
-2.89771
11
5.75322
21
-2.89155
0
LINE
8
BLACK
6
CONTINUOUS
10
5.75322
20
-2.89155
11
5.76613
21
-2.88685
0
LINE
8
BLACK
6
CONTINUOUS
10
5.76613
20
-2.88685
11
5.77949
21
-2.88368
0
LINE
8
BLACK
6
CONTINUOUS
10
5.77949
20
-2.88368
11
5.79313
21
-2.88209
0
LINE
8
BLACK
6
CONTINUOUS
10
5.79313
20
-2.88209
11
5.80687
21
-2.88209
0
LINE
8
BLACK
6
CONTINUOUS
10
5.80687
20
-2.88209
11
5.82051
21
-2.88368
  0
ENDSEC
  0
EOF
