  0
SECTION
  2
HEADER
  9
$ANGBASE
  50
0.0
  9
$ANGDIR
  70
1
  9
$MEASUREMENT
  70
0
  0
ENDSEC
  0
SECTION
  2
TABLES
  0
TABLE
  2
LTYPE
  70
4
  0
LTYPE
  5
40F
  2
CONTINUOUS
  70
0
  3
Solid line
  72
65
  73
0
  40
0.0
  0
LTYPE
  5
410
  2
DASHDOT
 70
0
  3
Dash Dot ____ _ ____ _
 72
65
 73
4
 40
2.0
 49
1.25
 49
-0.25
 49
0.25
 49
-0.25
  0
LTYPE
  5
411
  2
DASHED
 70
0
  3
Dashed __ __ __ __ __
 72
65
 73
2
 40
0.75
 49
0.5
 49
-0.25
  0
LTYPE
  5
43B
  2
DOTTED
 70
0
  3
Dotted .  .  .  .
 72
65
 73
2
 40
0.2
 49
0.0
 49
-0.2
  0
ENDTAB
  0
TABLE
  2
STYLE
  70
4
  0
STYLE
  2
KICAD
  70
0
  40
0
  41
1
  42
1
  50
0
  71
0
  3
isocp.shx
  0
STYLE
  2
KICADB
  70
0
  40
0
  41
1
  42
1
  50
0
  71
0
  3
isocp.shx
  0
STYLE
  2
KICADI
  70
0
  40
0
  41
1
  42
1
  50
15
  71
0
  3
isocp.shx
  0
STYLE
  2
KICADBI
  70
0
  40
0
  41
1
  42
1
  50
15
  71
0
  3
isocp.shx
  0
ENDTAB
  0
TABLE
  2
LAYER
  70
1
  0
LAYER
  2
BLACK
  70
0
  62
7
  6
CONTINUOUS
  0
ENDTAB
  0
ENDSEC
  0
SECTION
  2
ENTITIES
0
LINE
8
BLACK
6
CONTINUOUS
10
4.83081
20
-2.8323
11
4.83292
21
-2.83047
0
LINE
8
BLACK
6
CONTINUOUS
10
4.83292
20
-2.83047
11
4.83498
21
-2.83002
0
LINE
8
BLACK
6
CONTINUOUS
10
4.83498
20
-2.83002
11
5.96502
21
-2.83002
0
LINE
8
BLACK
6
CONTINUOUS
10
5.96502
20
-2.83002
11
5.9677
21
-2.83081
0
LINE
8
BLACK
6
CONTINUOUS
10
5.9677
20
-2.83081
11
5.96953
21
-2.83292
0
LINE
8
BLACK
6
CONTINUOUS
10
5.96953
20
-2.83292
11
5.96998
21
-2.83498
0
LINE
8
BLACK
6
CONTINUOUS
10
5.96998
20
-2.83498
11
5.96998
21
-3.96502
0
LINE
8
BLACK
6
CONTINUOUS
10
5.96998
20
-3.96502
11
5.96919
21
-3.9677
0
LINE
8
BLACK
6
CONTINUOUS
10
5.96919
20
-3.9677
11
5.96708
21
-3.96953
0
LINE
8
BLACK
6
CONTINUOUS
10
5.96708
20
-3.96953
11
5.96502
21
-3.96998
0
LINE
8
BLACK
6
CONTINUOUS
10
5.96502
20
-3.96998
11
4.83498
21
-3.96998
0
LINE
8
BLACK
6
CONTINUOUS
10
4.83498
20
-3.96998
11
4.8323
21
-3.96919
0
LINE
8
BLACK
6
CONTINUOUS
10
4.8323
20
-3.96919
11
4.83047
21
-3.96708
0
LINE
8
BLACK
6
CONTINUOUS
10
4.83047
20
-3.96708
11
4.83002
21
-3.96502
0
LINE
8
BLACK
6
CONTINUOUS
10
4.83002
20
-3.96502
11
4.83002
21
-2.83498
0
LINE
8
BLACK
6
CONTINUOUS
10
4.83002
20
-2.83498
11
4.83081
21
-2.8323
0
LINE
8
BLACK
6
CONTINUOUS
10
5.86023
20
-3.59993
11
5.86053
21
-3.6
0
LINE
8
BLACK
6
CONTINUOUS
10
5.86053
20
-3.6
11
5.88176
21
-3.6
0
LINE
8
BLACK
6
CONTINUOUS
10
5.88176
20
-3.6
11
5.88203
21
-3.59999
0
LINE
8
BLACK
6
CONTINUOUS
10
5.88203
20
-3.59999
11
5.88403
21
-3.59977
0
LINE
8
BLACK
6
CONTINUOUS
10
5.88403
20
-3.59977
11
5.88463
21
-3.59963
0
LINE
8
BLACK
6
CONTINUOUS
10
5.88463
20
-3.59963
11
5.88937
21
-3.59785
0
LINE
8
BLACK
6
CONTINUOUS
10
5.88937
20
-3.59785
11
5.88999
21
-3.59751
0
LINE
8
BLACK
6
CONTINUOUS
10
5.88999
20
-3.59751
11
5.894
21
-3.5945
0
LINE
8
BLACK
6
CONTINUOUS
10
5.894
20
-3.5945
11
5.8945
21
-3.594
0
LINE
8
BLACK
6
CONTINUOUS
10
5.8945
20
-3.594
11
5.89751
21
-3.58999
0
LINE
8
BLACK
6
CONTINUOUS
10
5.89751
20
-3.58999
11
5.89785
21
-3.58937
0
LINE
8
BLACK
6
CONTINUOUS
10
5.89785
20
-3.58937
11
5.89963
21
-3.58463
0
LINE
8
BLACK
6
CONTINUOUS
10
5.89963
20
-3.58463
11
5.89977
21
-3.58403
0
LINE
8
BLACK
6
CONTINUOUS
10
5.89977
20
-3.58403
11
5.89999
21
-3.58203
0
LINE
8
BLACK
6
CONTINUOUS
10
5.89999
20
-3.58203
11
5.9
21
-3.58176
0
LINE
8
BLACK
6
CONTINUOUS
10
5.9
20
-3.58176
11
5.9
21
-3.56071
0
LINE
8
BLACK
6
CONTINUOUS
10
5.9
20
-3.56071
11
5.89982
21
-3.56011
0
LINE
8
BLACK
6
CONTINUOUS
10
5.89982
20
-3.56011
11
5.89977
21
-3.56007
0
LINE
8
BLACK
6
CONTINUOUS
10
5.89977
20
-3.56007
11
5.89947
21
-3.56
0
LINE
8
BLACK
6
CONTINUOUS
10
5.89947
20
-3.56
11
5.88
21
-3.56
0
LINE
8
BLACK
6
CONTINUOUS
10
5.88
20
-3.56
11
5.88
21
-3.58
0
LINE
8
BLACK
6
CONTINUOUS
10
5.88
20
-3.58
11
5.86
21
-3.58
0
LINE
8
BLACK
6
CONTINUOUS
10
5.86
20
-3.58
11
5.86
21
-3.59929
0
LINE
8
BLACK
6
CONTINUOUS
10
5.86
20
-3.59929
11
5.86018
21
-3.59989
0
LINE
8
BLACK
6
CONTINUOUS
10
5.86018
20
-3.59989
11
5.86023
21
-3.59993
0
LINE
8
BLACK
6
CONTINUOUS
10
5.88
20
-3.46
11
5.88
21
-3.48
0
LINE
8
BLACK
6
CONTINUOUS
10
5.88
20
-3.48
11
5.86
21
-3.48
0
LINE
8
BLACK
6
CONTINUOUS
10
5.86
20
-3.48
11
5.86
21
-3.52
0
LINE
8
BLACK
6
CONTINUOUS
10
5.86
20
-3.52
11
5.88
21
-3.52
0
LINE
8
BLACK
6
CONTINUOUS
10
5.88
20
-3.52
11
5.88
21
-3.54
0
LINE
8
BLACK
6
CONTINUOUS
10
5.88
20
-3.54
11
5.89929
21
-3.54
0
LINE
8
BLACK
6
CONTINUOUS
10
5.89929
20
-3.54
11
5.89989
21
-3.53982
0
LINE
8
BLACK
6
CONTINUOUS
10
5.89989
20
-3.53982
11
5.89993
21
-3.53977
0
LINE
8
BLACK
6
CONTINUOUS
10
5.89993
20
-3.53977
11
5.9
21
-3.53947
0
LINE
8
BLACK
6
CONTINUOUS
10
5.9
20
-3.53947
11
5.9
21
-3.51824
0
LINE
8
BLACK
6
CONTINUOUS
10
5.9
20
-3.51824
11
5.89999
21
-3.51797
0
LINE
8
BLACK
6
CONTINUOUS
10
5.89999
20
-3.51797
11
5.89977
21
-3.51597
0
LINE
8
BLACK
6
CONTINUOUS
10
5.89977
20
-3.51597
11
5.89963
21
-3.51537
0
LINE
8
BLACK
6
CONTINUOUS
10
5.89963
20
-3.51537
11
5.89785
21
-3.51063
0
LINE
8
BLACK
6
CONTINUOUS
10
5.89785
20
-3.51063
11
5.89751
21
-3.51001
0
LINE
8
BLACK
6
CONTINUOUS
10
5.89751
20
-3.51001
11
5.8945
21
-3.506
0
LINE
8
BLACK
6
CONTINUOUS
10
5.8945
20
-3.506
11
5.894
21
-3.5055
0
LINE
8
BLACK
6
CONTINUOUS
10
5.894
20
-3.5055
11
5.89196
21
-3.50397
0
LINE
8
BLACK
6
CONTINUOUS
10
5.89196
20
-3.50397
11
5.89029
21
-3.50173
0
LINE
8
BLACK
6
CONTINUOUS
10
5.89029
20
-3.50173
11
5.89009
21
-3.49894
0
LINE
8
BLACK
6
CONTINUOUS
10
5.89009
20
-3.49894
11
5.89143
21
-3.49649
0
LINE
8
BLACK
6
CONTINUOUS
10
5.89143
20
-3.49649
11
5.89196
21
-3.49603
0
LINE
8
BLACK
6
CONTINUOUS
10
5.89196
20
-3.49603
11
5.894
21
-3.4945
0
LINE
8
BLACK
6
CONTINUOUS
10
5.894
20
-3.4945
11
5.8945
21
-3.494
0
LINE
8
BLACK
6
CONTINUOUS
10
5.8945
20
-3.494
11
5.89751
21
-3.48999
0
LINE
8
BLACK
6
CONTINUOUS
10
5.89751
20
-3.48999
11
5.89785
21
-3.48937
0
LINE
8
BLACK
6
CONTINUOUS
10
5.89785
20
-3.48937
11
5.89963
21
-3.48463
0
LINE
8
BLACK
6
CONTINUOUS
10
5.89963
20
-3.48463
11
5.89977
21
-3.48403
0
LINE
8
BLACK
6
CONTINUOUS
10
5.89977
20
-3.48403
11
5.89999
21
-3.48203
0
LINE
8
BLACK
6
CONTINUOUS
10
5.89999
20
-3.48203
11
5.9
21
-3.48176
0
LINE
8
BLACK
6
CONTINUOUS
10
5.9
20
-3.48176
11
5.9
21
-3.46071
0
LINE
8
BLACK
6
CONTINUOUS
10
5.9
20
-3.46071
11
5.89982
21
-3.46011
0
LINE
8
BLACK
6
CONTINUOUS
10
5.89982
20
-3.46011
11
5.89977
21
-3.46007
0
LINE
8
BLACK
6
CONTINUOUS
10
5.89977
20
-3.46007
11
5.89947
21
-3.46
0
LINE
8
BLACK
6
CONTINUOUS
10
5.89947
20
-3.46
11
5.88
21
-3.46
0
LINE
8
BLACK
6
CONTINUOUS
10
4.96071
20
-3.25
11
4.96011
21
-3.25018
0
LINE
8
BLACK
6
CONTINUOUS
10
4.96011
20
-3.25018
11
4.96007
21
-3.25023
0
LINE
8
BLACK
6
CONTINUOUS
10
4.96007
20
-3.25023
11
4.96
21
-3.25053
0
LINE
8
BLACK
6
CONTINUOUS
10
4.96
20
-3.25053
11
4.96
21
-3.27
0
LINE
8
BLACK
6
CONTINUOUS
10
4.96
20
-3.27
11
4.98
21
-3.27
0
LINE
8
BLACK
6
CONTINUOUS
10
4.98
20
-3.27
11
4.98
21
-3.29
0
LINE
8
BLACK
6
CONTINUOUS
10
4.98
20
-3.29
11
5.02
21
-3.29
0
LINE
8
BLACK
6
CONTINUOUS
10
5.02
20
-3.29
11
5.02
21
-3.27
0
LINE
8
BLACK
6
CONTINUOUS
10
5.02
20
-3.27
11
5.04
21
-3.27
0
LINE
8
BLACK
6
CONTINUOUS
10
5.04
20
-3.27
11
5.04
21
-3.25071
0
LINE
8
BLACK
6
CONTINUOUS
10
5.04
20
-3.25071
11
5.03982
21
-3.25011
0
LINE
8
BLACK
6
CONTINUOUS
10
5.03982
20
-3.25011
11
5.03977
21
-3.25007
0
LINE
8
BLACK
6
CONTINUOUS
10
5.03977
20
-3.25007
11
5.03947
21
-3.25
0
LINE
8
BLACK
6
CONTINUOUS
10
5.03947
20
-3.25
11
5.01824
21
-3.25
0
LINE
8
BLACK
6
CONTINUOUS
10
5.01824
20
-3.25
11
5.01797
21
-3.25001
0
LINE
8
BLACK
6
CONTINUOUS
10
5.01797
20
-3.25001
11
5.01597
21
-3.25023
0
LINE
8
BLACK
6
CONTINUOUS
10
5.01597
20
-3.25023
11
5.01537
21
-3.25037
0
LINE
8
BLACK
6
CONTINUOUS
10
5.01537
20
-3.25037
11
5.01063
21
-3.25215
0
LINE
8
BLACK
6
CONTINUOUS
10
5.01063
20
-3.25215
11
5.01001
21
-3.25249
0
LINE
8
BLACK
6
CONTINUOUS
10
5.01001
20
-3.25249
11
5.006
21
-3.2555
0
LINE
8
BLACK
6
CONTINUOUS
10
5.006
20
-3.2555
11
5.0055
21
-3.256
0
LINE
8
BLACK
6
CONTINUOUS
10
5.0055
20
-3.256
11
5.00397
21
-3.25804
0
LINE
8
BLACK
6
CONTINUOUS
10
5.00397
20
-3.25804
11
5.00173
21
-3.25971
0
LINE
8
BLACK
6
CONTINUOUS
10
5.00173
20
-3.25971
11
4.99894
21
-3.25991
0
LINE
8
BLACK
6
CONTINUOUS
10
4.99894
20
-3.25991
11
4.99649
21
-3.25857
0
LINE
8
BLACK
6
CONTINUOUS
10
4.99649
20
-3.25857
11
4.99603
21
-3.25804
0
LINE
8
BLACK
6
CONTINUOUS
10
4.99603
20
-3.25804
11
4.9945
21
-3.256
0
LINE
8
BLACK
6
CONTINUOUS
10
4.9945
20
-3.256
11
4.994
21
-3.2555
0
LINE
8
BLACK
6
CONTINUOUS
10
4.994
20
-3.2555
11
4.98999
21
-3.25249
0
LINE
8
BLACK
6
CONTINUOUS
10
4.98999
20
-3.25249
11
4.98937
21
-3.25215
0
LINE
8
BLACK
6
CONTINUOUS
10
4.98937
20
-3.25215
11
4.98463
21
-3.25037
0
LINE
8
BLACK
6
CONTINUOUS
10
4.98463
20
-3.25037
11
4.98403
21
-3.25023
0
LINE
8
BLACK
6
CONTINUOUS
10
4.98403
20
-3.25023
11
4.98203
21
-3.25001
0
LINE
8
BLACK
6
CONTINUOUS
10
4.98203
20
-3.25001
11
4.98176
21
-3.25
0
LINE
8
BLACK
6
CONTINUOUS
10
4.98176
20
-3.25
11
4.96071
21
-3.25
0
LINE
8
BLACK
6
CONTINUOUS
10
4.96023
20
-3.54993
11
4.96053
21
-3.55
0
LINE
8
BLACK
6
CONTINUOUS
10
4.96053
20
-3.55
11
4.98176
21
-3.55
0
LINE
8
BLACK
6
CONTINUOUS
10
4.98176
20
-3.55
11
4.98203
21
-3.54999
0
LINE
8
BLACK
6
CONTINUOUS
10
4.98203
20
-3.54999
11
4.98403
21
-3.54977
0
LINE
8
BLACK
6
CONTINUOUS
10
4.98403
20
-3.54977
11
4.98463
21
-3.54963
0
LINE
8
BLACK
6
CONTINUOUS
10
4.98463
20
-3.54963
11
4.98937
21
-3.54785
0
LINE
8
BLACK
6
CONTINUOUS
10
4.98937
20
-3.54785
11
4.98999
21
-3.54751
0
LINE
8
BLACK
6
CONTINUOUS
10
4.98999
20
-3.54751
11
4.994
21
-3.5445
0
LINE
8
BLACK
6
CONTINUOUS
10
4.994
20
-3.5445
11
4.9945
21
-3.544
0
LINE
8
BLACK
6
CONTINUOUS
10
4.9945
20
-3.544
11
4.99603
21
-3.54196
0
LINE
8
BLACK
6
CONTINUOUS
10
4.99603
20
-3.54196
11
4.99827
21
-3.54029
0
LINE
8
BLACK
6
CONTINUOUS
10
4.99827
20
-3.54029
11
5.00106
21
-3.54009
0
LINE
8
BLACK
6
CONTINUOUS
10
5.00106
20
-3.54009
11
5.00351
21
-3.54143
0
LINE
8
BLACK
6
CONTINUOUS
10
5.00351
20
-3.54143
11
5.00397
21
-3.54196
0
LINE
8
BLACK
6
CONTINUOUS
10
5.00397
20
-3.54196
11
5.0055
21
-3.544
0
LINE
8
BLACK
6
CONTINUOUS
10
5.0055
20
-3.544
11
5.006
21
-3.5445
0
LINE
8
BLACK
6
CONTINUOUS
10
5.006
20
-3.5445
11
5.01001
21
-3.54751
0
LINE
8
BLACK
6
CONTINUOUS
10
5.01001
20
-3.54751
11
5.01063
21
-3.54785
0
LINE
8
BLACK
6
CONTINUOUS
10
5.01063
20
-3.54785
11
5.01537
21
-3.54963
0
LINE
8
BLACK
6
CONTINUOUS
10
5.01537
20
-3.54963
11
5.01597
21
-3.54977
0
LINE
8
BLACK
6
CONTINUOUS
10
5.01597
20
-3.54977
11
5.01797
21
-3.54999
0
LINE
8
BLACK
6
CONTINUOUS
10
5.01797
20
-3.54999
11
5.01824
21
-3.55
0
LINE
8
BLACK
6
CONTINUOUS
10
5.01824
20
-3.55
11
5.03929
21
-3.55
0
LINE
8
BLACK
6
CONTINUOUS
10
5.03929
20
-3.55
11
5.03989
21
-3.54982
0
LINE
8
BLACK
6
CONTINUOUS
10
5.03989
20
-3.54982
11
5.03993
21
-3.54977
0
LINE
8
BLACK
6
CONTINUOUS
10
5.03993
20
-3.54977
11
5.04
21
-3.54947
0
LINE
8
BLACK
6
CONTINUOUS
10
5.04
20
-3.54947
11
5.04
21
-3.53
0
LINE
8
BLACK
6
CONTINUOUS
10
5.04
20
-3.53
11
5.02
21
-3.53
0
LINE
8
BLACK
6
CONTINUOUS
10
5.02
20
-3.53
11
5.02
21
-3.51
0
LINE
8
BLACK
6
CONTINUOUS
10
5.02
20
-3.51
11
4.98
21
-3.51
0
LINE
8
BLACK
6
CONTINUOUS
10
4.98
20
-3.51
11
4.98
21
-3.53
0
LINE
8
BLACK
6
CONTINUOUS
10
4.98
20
-3.53
11
4.96
21
-3.53
0
LINE
8
BLACK
6
CONTINUOUS
10
4.96
20
-3.53
11
4.96
21
-3.54929
0
LINE
8
BLACK
6
CONTINUOUS
10
4.96
20
-3.54929
11
4.96018
21
-3.54989
0
LINE
8
BLACK
6
CONTINUOUS
10
4.96018
20
-3.54989
11
4.96023
21
-3.54993
0
LINE
8
BLACK
6
CONTINUOUS
10
4.92
20
-3.53
11
4.92
21
-3.51
0
LINE
8
BLACK
6
CONTINUOUS
10
4.92
20
-3.51
11
4.90071
21
-3.51
0
LINE
8
BLACK
6
CONTINUOUS
10
4.90071
20
-3.51
11
4.90011
21
-3.51018
0
LINE
8
BLACK
6
CONTINUOUS
10
4.90011
20
-3.51018
11
4.90007
21
-3.51023
0
LINE
8
BLACK
6
CONTINUOUS
10
4.90007
20
-3.51023
11
4.9
21
-3.51053
0
LINE
8
BLACK
6
CONTINUOUS
10
4.9
20
-3.51053
11
4.9
21
-3.53176
0
LINE
8
BLACK
6
CONTINUOUS
10
4.9
20
-3.53176
11
4.90001
21
-3.53203
0
LINE
8
BLACK
6
CONTINUOUS
10
4.90001
20
-3.53203
11
4.90023
21
-3.53403
0
LINE
8
BLACK
6
CONTINUOUS
10
4.90023
20
-3.53403
11
4.90037
21
-3.53463
0
LINE
8
BLACK
6
CONTINUOUS
10
4.90037
20
-3.53463
11
4.90215
21
-3.53937
0
LINE
8
BLACK
6
CONTINUOUS
10
4.90215
20
-3.53937
11
4.90249
21
-3.53999
0
LINE
8
BLACK
6
CONTINUOUS
10
4.90249
20
-3.53999
11
4.9055
21
-3.544
0
LINE
8
BLACK
6
CONTINUOUS
10
4.9055
20
-3.544
11
4.906
21
-3.5445
0
LINE
8
BLACK
6
CONTINUOUS
10
4.906
20
-3.5445
11
4.91001
21
-3.54751
0
LINE
8
BLACK
6
CONTINUOUS
10
4.91001
20
-3.54751
11
4.91063
21
-3.54785
0
LINE
8
BLACK
6
CONTINUOUS
10
4.91063
20
-3.54785
11
4.91537
21
-3.54963
0
LINE
8
BLACK
6
CONTINUOUS
10
4.91537
20
-3.54963
11
4.91597
21
-3.54977
0
LINE
8
BLACK
6
CONTINUOUS
10
4.91597
20
-3.54977
11
4.91797
21
-3.54999
0
LINE
8
BLACK
6
CONTINUOUS
10
4.91797
20
-3.54999
11
4.91824
21
-3.55
0
LINE
8
BLACK
6
CONTINUOUS
10
4.91824
20
-3.55
11
4.93929
21
-3.55
0
LINE
8
BLACK
6
CONTINUOUS
10
4.93929
20
-3.55
11
4.93989
21
-3.54982
0
LINE
8
BLACK
6
CONTINUOUS
10
4.93989
20
-3.54982
11
4.93993
21
-3.54977
0
LINE
8
BLACK
6
CONTINUOUS
10
4.93993
20
-3.54977
11
4.94
21
-3.54947
0
LINE
8
BLACK
6
CONTINUOUS
10
4.94
20
-3.54947
11
4.94
21
-3.53
0
LINE
8
BLACK
6
CONTINUOUS
10
4.94
20
-3.53
11
4.92
21
-3.53
0
LINE
8
BLACK
6
CONTINUOUS
10
5.82
20
-3.58
11
5.82
21
-3.52
0
LINE
8
BLACK
6
CONTINUOUS
10
5.82
20
-3.52
11
5.84
21
-3.52
0
LINE
8
BLACK
6
CONTINUOUS
10
5.84
20
-3.52
11
5.84
21
-3.48
0
LINE
8
BLACK
6
CONTINUOUS
10
5.84
20
-3.48
11
5.82
21
-3.48
0
LINE
8
BLACK
6
CONTINUOUS
10
5.82
20
-3.48
11
5.82
21
-3.42
0
LINE
8
BLACK
6
CONTINUOUS
10
5.82
20
-3.42
11
5.88
21
-3.42
0
LINE
8
BLACK
6
CONTINUOUS
10
5.88
20
-3.42
11
5.88
21
-3.44
0
LINE
8
BLACK
6
CONTINUOUS
10
5.88
20
-3.44
11
5.89929
21
-3.44
0
LINE
8
BLACK
6
CONTINUOUS
10
5.89929
20
-3.44
11
5.89989
21
-3.43982
0
LINE
8
BLACK
6
CONTINUOUS
10
5.89989
20
-3.43982
11
5.89993
21
-3.43977
0
LINE
8
BLACK
6
CONTINUOUS
10
5.89993
20
-3.43977
11
5.9
21
-3.43947
0
LINE
8
BLACK
6
CONTINUOUS
10
5.9
20
-3.43947
11
5.9
21
-3.41824
0
LINE
8
BLACK
6
CONTINUOUS
10
5.9
20
-3.41824
11
5.89999
21
-3.41797
0
LINE
8
BLACK
6
CONTINUOUS
10
5.89999
20
-3.41797
11
5.89977
21
-3.41597
0
LINE
8
BLACK
6
CONTINUOUS
10
5.89977
20
-3.41597
11
5.89963
21
-3.41537
0
LINE
8
BLACK
6
CONTINUOUS
10
5.89963
20
-3.41537
11
5.89785
21
-3.41063
0
LINE
8
BLACK
6
CONTINUOUS
10
5.89785
20
-3.41063
11
5.89751
21
-3.41001
0
LINE
8
BLACK
6
CONTINUOUS
10
5.89751
20
-3.41001
11
5.8945
21
-3.406
0
LINE
8
BLACK
6
CONTINUOUS
10
5.8945
20
-3.406
11
5.894
21
-3.4055
0
LINE
8
BLACK
6
CONTINUOUS
10
5.894
20
-3.4055
11
5.89198
21
-3.40398
0
LINE
8
BLACK
6
CONTINUOUS
10
5.89198
20
-3.40398
11
5.8903
21
-3.40174
0
LINE
8
BLACK
6
CONTINUOUS
10
5.8903
20
-3.40174
11
5.89011
21
-3.39896
0
LINE
8
BLACK
6
CONTINUOUS
10
5.89011
20
-3.39896
11
5.89145
21
-3.3965
0
LINE
8
BLACK
6
CONTINUOUS
10
5.89145
20
-3.3965
11
5.89198
21
-3.39604
0
LINE
8
BLACK
6
CONTINUOUS
10
5.89198
20
-3.39604
11
5.8943
21
-3.3943
0
LINE
8
BLACK
6
CONTINUOUS
10
5.8943
20
-3.3943
11
5.89774
21
-3.38971
0
LINE
8
BLACK
6
CONTINUOUS
10
5.89774
20
-3.38971
11
5.89975
21
-3.38434
0
LINE
8
BLACK
6
CONTINUOUS
10
5.89975
20
-3.38434
11
5.90002
21
-3.3819
0
LINE
8
BLACK
6
CONTINUOUS
10
5.90002
20
-3.3819
11
5.90002
21
-3.3181
0
LINE
8
BLACK
6
CONTINUOUS
10
5.90002
20
-3.3181
11
5.89975
21
-3.31566
0
LINE
8
BLACK
6
CONTINUOUS
10
5.89975
20
-3.31566
11
5.89774
21
-3.31029
0
LINE
8
BLACK
6
CONTINUOUS
10
5.89774
20
-3.31029
11
5.8943
21
-3.3057
0
LINE
8
BLACK
6
CONTINUOUS
10
5.8943
20
-3.3057
11
5.89199
21
-3.30397
0
LINE
8
BLACK
6
CONTINUOUS
10
5.89199
20
-3.30397
11
5.89032
21
-3.30173
0
LINE
8
BLACK
6
CONTINUOUS
10
5.89032
20
-3.30173
11
5.89012
21
-3.29894
0
LINE
8
BLACK
6
CONTINUOUS
10
5.89012
20
-3.29894
11
5.89146
21
-3.29649
0
LINE
8
BLACK
6
CONTINUOUS
10
5.89146
20
-3.29649
11
5.89199
21
-3.29603
0
LINE
8
BLACK
6
CONTINUOUS
10
5.89199
20
-3.29603
11
5.89402
21
-3.29451
0
LINE
8
BLACK
6
CONTINUOUS
10
5.89402
20
-3.29451
11
5.8943
21
-3.2943
0
LINE
8
BLACK
6
CONTINUOUS
10
5.8943
20
-3.2943
11
5.89774
21
-3.28971
0
LINE
8
BLACK
6
CONTINUOUS
10
5.89774
20
-3.28971
11
5.89975
21
-3.28434
0
LINE
8
BLACK
6
CONTINUOUS
10
5.89975
20
-3.28434
11
5.90002
21
-3.2819
0
LINE
8
BLACK
6
CONTINUOUS
10
5.90002
20
-3.2819
11
5.90002
21
-3.2181
0
LINE
8
BLACK
6
CONTINUOUS
10
5.90002
20
-3.2181
11
5.89975
21
-3.21566
0
LINE
8
BLACK
6
CONTINUOUS
10
5.89975
20
-3.21566
11
5.89774
21
-3.21029
0
LINE
8
BLACK
6
CONTINUOUS
10
5.89774
20
-3.21029
11
5.8943
21
-3.2057
0
LINE
8
BLACK
6
CONTINUOUS
10
5.8943
20
-3.2057
11
5.88971
21
-3.20226
0
LINE
8
BLACK
6
CONTINUOUS
10
5.88971
20
-3.20226
11
5.88434
21
-3.20025
0
LINE
8
BLACK
6
CONTINUOUS
10
5.88434
20
-3.20025
11
5.8819
21
-3.19998
0
LINE
8
BLACK
6
CONTINUOUS
10
5.8819
20
-3.19998
11
5.84449
21
-3.19998
0
LINE
8
BLACK
6
CONTINUOUS
10
5.84449
20
-3.19998
11
5.84181
21
-3.19919
0
LINE
8
BLACK
6
CONTINUOUS
10
5.84181
20
-3.19919
11
5.84098
21
-3.19853
0
LINE
8
BLACK
6
CONTINUOUS
10
5.84098
20
-3.19853
11
5.8131
21
-3.17065
0
LINE
8
BLACK
6
CONTINUOUS
10
5.8131
20
-3.17065
11
5.81262
21
-3.17008
0
LINE
8
BLACK
6
CONTINUOUS
10
5.81262
20
-3.17008
11
5.81228
21
-3.16962
0
LINE
8
BLACK
6
CONTINUOUS
10
5.81228
20
-3.16962
11
5.8121
21
-3.16939
0
LINE
8
BLACK
6
CONTINUOUS
10
5.8121
20
-3.16939
11
5.81051
21
-3.16803
0
LINE
8
BLACK
6
CONTINUOUS
10
5.81051
20
-3.16803
11
5.81021
21
-3.16776
0
LINE
8
BLACK
6
CONTINUOUS
10
5.81021
20
-3.16776
11
5.80999
21
-3.16753
0
LINE
8
BLACK
6
CONTINUOUS
10
5.80999
20
-3.16753
11
5.80987
21
-3.16744
0
LINE
8
BLACK
6
CONTINUOUS
10
5.80987
20
-3.16744
11
5.80987
21
-3.16744
0
LINE
8
BLACK
6
CONTINUOUS
10
5.80987
20
-3.16744
11
5.80911
21
-3.16684
0
LINE
8
BLACK
6
CONTINUOUS
10
5.80911
20
-3.16684
11
5.80897
21
-3.16673
0
LINE
8
BLACK
6
CONTINUOUS
10
5.80897
20
-3.16673
11
5.80699
21
-3.16504
0
LINE
8
BLACK
6
CONTINUOUS
10
5.80699
20
-3.16504
11
5.80699
21
-3.16504
0
LINE
8
BLACK
6
CONTINUOUS
10
5.80699
20
-3.16504
11
5.80677
21
-3.16485
0
LINE
8
BLACK
6
CONTINUOUS
10
5.80677
20
-3.16485
11
5.80651
21
-3.16472
0
LINE
8
BLACK
6
CONTINUOUS
10
5.80651
20
-3.16472
11
5.80631
21
-3.16459
0
LINE
8
BLACK
6
CONTINUOUS
10
5.80631
20
-3.16459
11
5.80611
21
-3.16446
0
LINE
8
BLACK
6
CONTINUOUS
10
5.80611
20
-3.16446
11
5.80588
21
-3.16429
0
LINE
8
BLACK
6
CONTINUOUS
10
5.80588
20
-3.16429
11
5.80342
21
-3.16313
0
LINE
8
BLACK
6
CONTINUOUS
10
5.80342
20
-3.16313
11
5.80326
21
-3.16306
0
LINE
8
BLACK
6
CONTINUOUS
10
5.80326
20
-3.16306
11
5.80311
21
-3.16299
0
LINE
8
BLACK
6
CONTINUOUS
10
5.80311
20
-3.16299
11
5.80079
21
-3.1618
0
LINE
8
BLACK
6
CONTINUOUS
10
5.80079
20
-3.1618
11
5.80054
21
-3.16167
0
LINE
8
BLACK
6
CONTINUOUS
10
5.80054
20
-3.16167
11
5.80026
21
-3.1616
0
LINE
8
BLACK
6
CONTINUOUS
10
5.80026
20
-3.1616
11
5.80003
21
-3.16152
0
LINE
8
BLACK
6
CONTINUOUS
10
5.80003
20
-3.16152
11
5.7998
21
-3.16144
0
LINE
8
BLACK
6
CONTINUOUS
10
5.7998
20
-3.16144
11
5.79954
21
-3.16132
0
LINE
8
BLACK
6
CONTINUOUS
10
5.79954
20
-3.16132
11
5.79671
21
-3.16073
0
LINE
8
BLACK
6
CONTINUOUS
10
5.79671
20
-3.16073
11
5.79654
21
-3.16069
0
LINE
8
BLACK
6
CONTINUOUS
10
5.79654
20
-3.16069
11
5.79374
21
-3.16001
0
LINE
8
BLACK
6
CONTINUOUS
10
5.79374
20
-3.16001
11
5.79352
21
-3.15999
0
LINE
8
BLACK
6
CONTINUOUS
10
5.79352
20
-3.15999
11
5.79352
21
-3.15999
0
LINE
8
BLACK
6
CONTINUOUS
10
5.79352
20
-3.15999
11
5.79329
21
-3.15998
0
LINE
8
BLACK
6
CONTINUOUS
10
5.79329
20
-3.15998
11
5.79329
21
-3.15998
0
LINE
8
BLACK
6
CONTINUOUS
10
5.79329
20
-3.15998
11
5.79314
21
-3.15997
0
LINE
8
BLACK
6
CONTINUOUS
10
5.79314
20
-3.15997
11
5.79297
21
-3.15995
0
LINE
8
BLACK
6
CONTINUOUS
10
5.79297
20
-3.15995
11
5.79269
21
-3.1599
0
LINE
8
BLACK
6
CONTINUOUS
10
5.79269
20
-3.1599
11
5.7924
21
-3.1599
0
LINE
8
BLACK
6
CONTINUOUS
10
5.7924
20
-3.1599
11
5.78962
21
-3.15998
0
LINE
8
BLACK
6
CONTINUOUS
10
5.78962
20
-3.15998
11
5.78949
21
-3.15998
0
LINE
8
BLACK
6
CONTINUOUS
10
5.78949
20
-3.15998
11
5.26265
21
-3.15998
0
LINE
8
BLACK
6
CONTINUOUS
10
5.26265
20
-3.15998
11
5.26191
21
-3.15992
0
LINE
8
BLACK
6
CONTINUOUS
10
5.26191
20
-3.15992
11
5.26162
21
-3.15988
0
LINE
8
BLACK
6
CONTINUOUS
10
5.26162
20
-3.15988
11
5.26134
21
-3.15984
0
LINE
8
BLACK
6
CONTINUOUS
10
5.26134
20
-3.15984
11
5.26134
21
-3.15984
0
LINE
8
BLACK
6
CONTINUOUS
10
5.26134
20
-3.15984
11
5.26105
21
-3.15979
0
LINE
8
BLACK
6
CONTINUOUS
10
5.26105
20
-3.15979
11
5.26077
21
-3.15982
0
LINE
8
BLACK
6
CONTINUOUS
10
5.26077
20
-3.15982
11
5.26077
21
-3.15982
0
LINE
8
BLACK
6
CONTINUOUS
10
5.26077
20
-3.15982
11
5.25897
21
-3.15996
0
LINE
8
BLACK
6
CONTINUOUS
10
5.25897
20
-3.15996
11
5.25857
21
-3.15998
0
LINE
8
BLACK
6
CONTINUOUS
10
5.25857
20
-3.15998
11
5.25825
21
-3.15998
0
LINE
8
BLACK
6
CONTINUOUS
10
5.25825
20
-3.15998
11
5.25713
21
-3.16011
0
LINE
8
BLACK
6
CONTINUOUS
10
5.25713
20
-3.16011
11
5.25696
21
-3.16013
0
LINE
8
BLACK
6
CONTINUOUS
10
5.25696
20
-3.16013
11
5.25559
21
-3.16024
0
LINE
8
BLACK
6
CONTINUOUS
10
5.25559
20
-3.16024
11
5.25437
21
-3.16034
0
LINE
8
BLACK
6
CONTINUOUS
10
5.25437
20
-3.16034
11
5.25437
21
-3.16034
0
LINE
8
BLACK
6
CONTINUOUS
10
5.25437
20
-3.16034
11
5.25408
21
-3.16036
0
LINE
8
BLACK
6
CONTINUOUS
10
5.25408
20
-3.16036
11
5.2538
21
-3.16045
0
LINE
8
BLACK
6
CONTINUOUS
10
5.2538
20
-3.16045
11
5.25357
21
-3.1605
0
LINE
8
BLACK
6
CONTINUOUS
10
5.25357
20
-3.1605
11
5.25333
21
-3.16055
0
LINE
8
BLACK
6
CONTINUOUS
10
5.25333
20
-3.16055
11
5.25305
21
-3.16059
0
LINE
8
BLACK
6
CONTINUOUS
10
5.25305
20
-3.16059
11
5.25278
21
-3.16068
0
LINE
8
BLACK
6
CONTINUOUS
10
5.25278
20
-3.16068
11
5.25278
21
-3.16068
0
LINE
8
BLACK
6
CONTINUOUS
10
5.25278
20
-3.16068
11
5.25033
21
-3.16157
0
LINE
8
BLACK
6
CONTINUOUS
10
5.25033
20
-3.16157
11
5.25017
21
-3.16163
0
LINE
8
BLACK
6
CONTINUOUS
10
5.25017
20
-3.16163
11
5.24742
21
-3.16252
0
LINE
8
BLACK
6
CONTINUOUS
10
5.24742
20
-3.16252
11
5.24717
21
-3.16267
0
LINE
8
BLACK
6
CONTINUOUS
10
5.24717
20
-3.16267
11
5.24695
21
-3.16277
0
LINE
8
BLACK
6
CONTINUOUS
10
5.24695
20
-3.16277
11
5.24674
21
-3.16288
0
LINE
8
BLACK
6
CONTINUOUS
10
5.24674
20
-3.16288
11
5.24647
21
-3.16298
0
LINE
8
BLACK
6
CONTINUOUS
10
5.24647
20
-3.16298
11
5.24623
21
-3.16313
0
LINE
8
BLACK
6
CONTINUOUS
10
5.24623
20
-3.16313
11
5.24405
21
-3.16456
0
LINE
8
BLACK
6
CONTINUOUS
10
5.24405
20
-3.16456
11
5.24391
21
-3.16465
0
LINE
8
BLACK
6
CONTINUOUS
10
5.24391
20
-3.16465
11
5.24143
21
-3.16615
0
LINE
8
BLACK
6
CONTINUOUS
10
5.24143
20
-3.16615
11
5.24127
21
-3.1663
0
LINE
8
BLACK
6
CONTINUOUS
10
5.24127
20
-3.1663
11
5.24127
21
-3.1663
0
LINE
8
BLACK
6
CONTINUOUS
10
5.24127
20
-3.1663
11
5.2411
21
-3.16644
0
LINE
8
BLACK
6
CONTINUOUS
10
5.2411
20
-3.16644
11
5.2411
21
-3.16644
0
LINE
8
BLACK
6
CONTINUOUS
10
5.2411
20
-3.16644
11
5.24099
21
-3.16654
0
LINE
8
BLACK
6
CONTINUOUS
10
5.24099
20
-3.16654
11
5.24085
21
-3.16666
0
LINE
8
BLACK
6
CONTINUOUS
10
5.24085
20
-3.16666
11
5.24061
21
-3.16681
0
LINE
8
BLACK
6
CONTINUOUS
10
5.24061
20
-3.16681
11
5.24041
21
-3.16702
0
LINE
8
BLACK
6
CONTINUOUS
10
5.24041
20
-3.16702
11
5.2385
21
-3.16904
0
LINE
8
BLACK
6
CONTINUOUS
10
5.2385
20
-3.16904
11
5.23841
21
-3.16914
0
LINE
8
BLACK
6
CONTINUOUS
10
5.23841
20
-3.16914
11
5.10847
21
-3.29908
0
LINE
8
BLACK
6
CONTINUOUS
10
5.10847
20
-3.29908
11
5.10602
21
-3.30042
0
LINE
8
BLACK
6
CONTINUOUS
10
5.10602
20
-3.30042
11
5.10323
21
-3.30022
0
LINE
8
BLACK
6
CONTINUOUS
10
5.10323
20
-3.30022
11
5.10099
21
-3.29854
0
LINE
8
BLACK
6
CONTINUOUS
10
5.10099
20
-3.29854
11
5.10001
21
-3.29592
0
LINE
8
BLACK
6
CONTINUOUS
10
5.10001
20
-3.29592
11
5.1
21
-3.29557
0
LINE
8
BLACK
6
CONTINUOUS
10
5.1
20
-3.29557
11
5.1
21
-3.26824
0
LINE
8
BLACK
6
CONTINUOUS
10
5.1
20
-3.26824
11
5.09999
21
-3.26797
0
LINE
8
BLACK
6
CONTINUOUS
10
5.09999
20
-3.26797
11
5.09977
21
-3.26597
0
LINE
8
BLACK
6
CONTINUOUS
10
5.09977
20
-3.26597
11
5.09963
21
-3.26537
0
LINE
8
BLACK
6
CONTINUOUS
10
5.09963
20
-3.26537
11
5.09785
21
-3.26063
0
LINE
8
BLACK
6
CONTINUOUS
10
5.09785
20
-3.26063
11
5.09751
21
-3.26001
0
LINE
8
BLACK
6
CONTINUOUS
10
5.09751
20
-3.26001
11
5.0945
21
-3.256
0
LINE
8
BLACK
6
CONTINUOUS
10
5.0945
20
-3.256
11
5.094
21
-3.2555
0
LINE
8
BLACK
6
CONTINUOUS
10
5.094
20
-3.2555
11
5.08999
21
-3.25249
0
LINE
8
BLACK
6
CONTINUOUS
10
5.08999
20
-3.25249
11
5.08937
21
-3.25215
0
LINE
8
BLACK
6
CONTINUOUS
10
5.08937
20
-3.25215
11
5.08463
21
-3.25037
0
LINE
8
BLACK
6
CONTINUOUS
10
5.08463
20
-3.25037
11
5.08403
21
-3.25023
0
LINE
8
BLACK
6
CONTINUOUS
10
5.08403
20
-3.25023
11
5.08203
21
-3.25001
0
LINE
8
BLACK
6
CONTINUOUS
10
5.08203
20
-3.25001
11
5.08176
21
-3.25
0
LINE
8
BLACK
6
CONTINUOUS
10
5.08176
20
-3.25
11
5.06071
21
-3.25
0
LINE
8
BLACK
6
CONTINUOUS
10
5.06071
20
-3.25
11
5.06011
21
-3.25018
0
LINE
8
BLACK
6
CONTINUOUS
10
5.06011
20
-3.25018
11
5.06007
21
-3.25023
0
LINE
8
BLACK
6
CONTINUOUS
10
5.06007
20
-3.25023
11
5.06
21
-3.25053
0
LINE
8
BLACK
6
CONTINUOUS
10
5.06
20
-3.25053
11
5.06
21
-3.27
0
LINE
8
BLACK
6
CONTINUOUS
10
5.06
20
-3.27
11
5.08
21
-3.27
0
LINE
8
BLACK
6
CONTINUOUS
10
5.08
20
-3.27
11
5.08
21
-3.33
0
LINE
8
BLACK
6
CONTINUOUS
10
5.08
20
-3.33
11
5.02
21
-3.33
0
LINE
8
BLACK
6
CONTINUOUS
10
5.02
20
-3.33
11
5.02
21
-3.31
0
LINE
8
BLACK
6
CONTINUOUS
10
5.02
20
-3.31
11
4.98
21
-3.31
0
LINE
8
BLACK
6
CONTINUOUS
10
4.98
20
-3.31
11
4.98
21
-3.33
0
LINE
8
BLACK
6
CONTINUOUS
10
4.98
20
-3.33
11
4.92
21
-3.33
0
LINE
8
BLACK
6
CONTINUOUS
10
4.92
20
-3.33
11
4.92
21
-3.31
0
LINE
8
BLACK
6
CONTINUOUS
10
4.92
20
-3.31
11
4.90071
21
-3.31
0
LINE
8
BLACK
6
CONTINUOUS
10
4.90071
20
-3.31
11
4.90011
21
-3.31018
0
LINE
8
BLACK
6
CONTINUOUS
10
4.90011
20
-3.31018
11
4.90007
21
-3.31023
0
LINE
8
BLACK
6
CONTINUOUS
10
4.90007
20
-3.31023
11
4.9
21
-3.31053
0
LINE
8
BLACK
6
CONTINUOUS
10
4.9
20
-3.31053
11
4.9
21
-3.33176
0
LINE
8
BLACK
6
CONTINUOUS
10
4.9
20
-3.33176
11
4.90001
21
-3.33203
0
LINE
8
BLACK
6
CONTINUOUS
10
4.90001
20
-3.33203
11
4.90023
21
-3.33403
0
LINE
8
BLACK
6
CONTINUOUS
10
4.90023
20
-3.33403
11
4.90037
21
-3.33463
0
LINE
8
BLACK
6
CONTINUOUS
10
4.90037
20
-3.33463
11
4.90215
21
-3.33937
0
LINE
8
BLACK
6
CONTINUOUS
10
4.90215
20
-3.33937
11
4.90249
21
-3.33999
0
LINE
8
BLACK
6
CONTINUOUS
10
4.90249
20
-3.33999
11
4.9055
21
-3.344
0
LINE
8
BLACK
6
CONTINUOUS
10
4.9055
20
-3.344
11
4.906
21
-3.3445
0
LINE
8
BLACK
6
CONTINUOUS
10
4.906
20
-3.3445
11
4.90802
21
-3.34602
0
LINE
8
BLACK
6
CONTINUOUS
10
4.90802
20
-3.34602
11
4.9097
21
-3.34826
0
LINE
8
BLACK
6
CONTINUOUS
10
4.9097
20
-3.34826
11
4.90989
21
-3.35104
0
LINE
8
BLACK
6
CONTINUOUS
10
4.90989
20
-3.35104
11
4.90855
21
-3.3535
0
LINE
8
BLACK
6
CONTINUOUS
10
4.90855
20
-3.3535
11
4.90802
21
-3.35396
0
LINE
8
BLACK
6
CONTINUOUS
10
4.90802
20
-3.35396
11
4.9057
21
-3.3557
0
LINE
8
BLACK
6
CONTINUOUS
10
4.9057
20
-3.3557
11
4.90226
21
-3.36029
0
LINE
8
BLACK
6
CONTINUOUS
10
4.90226
20
-3.36029
11
4.90025
21
-3.36566
0
LINE
8
BLACK
6
CONTINUOUS
10
4.90025
20
-3.36566
11
4.89998
21
-3.3681
0
LINE
8
BLACK
6
CONTINUOUS
10
4.89998
20
-3.3681
11
4.89998
21
-3.4319
0
LINE
8
BLACK
6
CONTINUOUS
10
4.89998
20
-3.4319
11
4.90025
21
-3.43434
0
LINE
8
BLACK
6
CONTINUOUS
10
4.90025
20
-3.43434
11
4.90226
21
-3.43971
0
LINE
8
BLACK
6
CONTINUOUS
10
4.90226
20
-3.43971
11
4.9057
21
-3.4443
0
LINE
8
BLACK
6
CONTINUOUS
10
4.9057
20
-3.4443
11
4.90802
21
-3.44604
0
LINE
8
BLACK
6
CONTINUOUS
10
4.90802
20
-3.44604
11
4.9097
21
-3.44828
0
LINE
8
BLACK
6
CONTINUOUS
10
4.9097
20
-3.44828
11
4.90989
21
-3.45107
0
LINE
8
BLACK
6
CONTINUOUS
10
4.90989
20
-3.45107
11
4.90855
21
-3.45352
0
LINE
8
BLACK
6
CONTINUOUS
10
4.90855
20
-3.45352
11
4.90802
21
-3.45398
0
LINE
8
BLACK
6
CONTINUOUS
10
4.90802
20
-3.45398
11
4.906
21
-3.4555
0
LINE
8
BLACK
6
CONTINUOUS
10
4.906
20
-3.4555
11
4.9055
21
-3.456
0
LINE
8
BLACK
6
CONTINUOUS
10
4.9055
20
-3.456
11
4.90249
21
-3.46001
0
LINE
8
BLACK
6
CONTINUOUS
10
4.90249
20
-3.46001
11
4.90215
21
-3.46063
0
LINE
8
BLACK
6
CONTINUOUS
10
4.90215
20
-3.46063
11
4.90037
21
-3.46537
0
LINE
8
BLACK
6
CONTINUOUS
10
4.90037
20
-3.46537
11
4.90023
21
-3.46597
0
LINE
8
BLACK
6
CONTINUOUS
10
4.90023
20
-3.46597
11
4.90001
21
-3.46797
0
LINE
8
BLACK
6
CONTINUOUS
10
4.90001
20
-3.46797
11
4.9
21
-3.46824
0
LINE
8
BLACK
6
CONTINUOUS
10
4.9
20
-3.46824
11
4.9
21
-3.48929
0
LINE
8
BLACK
6
CONTINUOUS
10
4.9
20
-3.48929
11
4.90018
21
-3.48989
0
LINE
8
BLACK
6
CONTINUOUS
10
4.90018
20
-3.48989
11
4.90023
21
-3.48993
0
LINE
8
BLACK
6
CONTINUOUS
10
4.90023
20
-3.48993
11
4.90053
21
-3.49
0
LINE
8
BLACK
6
CONTINUOUS
10
4.90053
20
-3.49
11
4.92
21
-3.49
0
LINE
8
BLACK
6
CONTINUOUS
10
4.92
20
-3.49
11
4.92
21
-3.47
0
LINE
8
BLACK
6
CONTINUOUS
10
4.92
20
-3.47
11
4.98
21
-3.47
0
LINE
8
BLACK
6
CONTINUOUS
10
4.98
20
-3.47
11
4.98
21
-3.49
0
LINE
8
BLACK
6
CONTINUOUS
10
4.98
20
-3.49
11
5.02
21
-3.49
0
LINE
8
BLACK
6
CONTINUOUS
10
5.02
20
-3.49
11
5.02
21
-3.47
0
LINE
8
BLACK
6
CONTINUOUS
10
5.02
20
-3.47
11
5.08
21
-3.47
0
LINE
8
BLACK
6
CONTINUOUS
10
5.08
20
-3.47
11
5.08
21
-3.53
0
LINE
8
BLACK
6
CONTINUOUS
10
5.08
20
-3.53
11
5.06
21
-3.53
0
LINE
8
BLACK
6
CONTINUOUS
10
5.06
20
-3.53
11
5.06
21
-3.54929
0
LINE
8
BLACK
6
CONTINUOUS
10
5.06
20
-3.54929
11
5.06018
21
-3.54989
0
LINE
8
BLACK
6
CONTINUOUS
10
5.06018
20
-3.54989
11
5.06023
21
-3.54993
0
LINE
8
BLACK
6
CONTINUOUS
10
5.06023
20
-3.54993
11
5.06053
21
-3.55
0
LINE
8
BLACK
6
CONTINUOUS
10
5.06053
20
-3.55
11
5.08176
21
-3.55
0
LINE
8
BLACK
6
CONTINUOUS
10
5.08176
20
-3.55
11
5.08203
21
-3.54999
0
LINE
8
BLACK
6
CONTINUOUS
10
5.08203
20
-3.54999
11
5.08403
21
-3.54977
0
LINE
8
BLACK
6
CONTINUOUS
10
5.08403
20
-3.54977
11
5.08463
21
-3.54963
0
LINE
8
BLACK
6
CONTINUOUS
10
5.08463
20
-3.54963
11
5.08937
21
-3.54785
0
LINE
8
BLACK
6
CONTINUOUS
10
5.08937
20
-3.54785
11
5.08999
21
-3.54751
0
LINE
8
BLACK
6
CONTINUOUS
10
5.08999
20
-3.54751
11
5.094
21
-3.5445
0
LINE
8
BLACK
6
CONTINUOUS
10
5.094
20
-3.5445
11
5.0945
21
-3.544
0
LINE
8
BLACK
6
CONTINUOUS
10
5.0945
20
-3.544
11
5.09751
21
-3.53999
0
LINE
8
BLACK
6
CONTINUOUS
10
5.09751
20
-3.53999
11
5.09785
21
-3.53937
0
LINE
8
BLACK
6
CONTINUOUS
10
5.09785
20
-3.53937
11
5.09963
21
-3.53463
0
LINE
8
BLACK
6
CONTINUOUS
10
5.09963
20
-3.53463
11
5.09977
21
-3.53403
0
LINE
8
BLACK
6
CONTINUOUS
10
5.09977
20
-3.53403
11
5.09999
21
-3.53203
0
LINE
8
BLACK
6
CONTINUOUS
10
5.09999
20
-3.53203
11
5.1
21
-3.53176
0
LINE
8
BLACK
6
CONTINUOUS
10
5.1
20
-3.53176
11
5.1
21
-3.50443
0
LINE
8
BLACK
6
CONTINUOUS
10
5.1
20
-3.50443
11
5.10079
21
-3.50175
0
LINE
8
BLACK
6
CONTINUOUS
10
5.10079
20
-3.50175
11
5.1029
21
-3.49992
0
LINE
8
BLACK
6
CONTINUOUS
10
5.1029
20
-3.49992
11
5.10567
21
-3.49952
0
LINE
8
BLACK
6
CONTINUOUS
10
5.10567
20
-3.49952
11
5.10821
21
-3.50068
0
LINE
8
BLACK
6
CONTINUOUS
10
5.10821
20
-3.50068
11
5.10847
21
-3.50092
0
LINE
8
BLACK
6
CONTINUOUS
10
5.10847
20
-3.50092
11
5.2769
21
-3.66935
0
LINE
8
BLACK
6
CONTINUOUS
10
5.2769
20
-3.66935
11
5.27738
21
-3.66992
0
LINE
8
BLACK
6
CONTINUOUS
10
5.27738
20
-3.66992
11
5.2779
21
-3.67061
0
LINE
8
BLACK
6
CONTINUOUS
10
5.2779
20
-3.67061
11
5.27812
21
-3.6708
0
LINE
8
BLACK
6
CONTINUOUS
10
5.27812
20
-3.6708
11
5.27949
21
-3.67197
0
LINE
8
BLACK
6
CONTINUOUS
10
5.27949
20
-3.67197
11
5.27979
21
-3.67224
0
LINE
8
BLACK
6
CONTINUOUS
10
5.27979
20
-3.67224
11
5.28001
21
-3.67247
0
LINE
8
BLACK
6
CONTINUOUS
10
5.28001
20
-3.67247
11
5.28013
21
-3.67256
0
LINE
8
BLACK
6
CONTINUOUS
10
5.28013
20
-3.67256
11
5.28013
21
-3.67256
0
LINE
8
BLACK
6
CONTINUOUS
10
5.28013
20
-3.67256
11
5.28089
21
-3.67316
0
LINE
8
BLACK
6
CONTINUOUS
10
5.28089
20
-3.67316
11
5.28103
21
-3.67327
0
LINE
8
BLACK
6
CONTINUOUS
10
5.28103
20
-3.67327
11
5.28301
21
-3.67496
0
LINE
8
BLACK
6
CONTINUOUS
10
5.28301
20
-3.67496
11
5.28301
21
-3.67496
0
LINE
8
BLACK
6
CONTINUOUS
10
5.28301
20
-3.67496
11
5.28323
21
-3.67515
0
LINE
8
BLACK
6
CONTINUOUS
10
5.28323
20
-3.67515
11
5.28349
21
-3.67528
0
LINE
8
BLACK
6
CONTINUOUS
10
5.28349
20
-3.67528
11
5.28369
21
-3.67541
0
LINE
8
BLACK
6
CONTINUOUS
10
5.28369
20
-3.67541
11
5.28389
21
-3.67554
0
LINE
8
BLACK
6
CONTINUOUS
10
5.28389
20
-3.67554
11
5.28412
21
-3.67571
0
LINE
8
BLACK
6
CONTINUOUS
10
5.28412
20
-3.67571
11
5.28438
21
-3.67584
0
LINE
8
BLACK
6
CONTINUOUS
10
5.28438
20
-3.67584
11
5.28674
21
-3.67694
0
LINE
8
BLACK
6
CONTINUOUS
10
5.28674
20
-3.67694
11
5.28689
21
-3.67701
0
LINE
8
BLACK
6
CONTINUOUS
10
5.28689
20
-3.67701
11
5.28946
21
-3.67833
0
LINE
8
BLACK
6
CONTINUOUS
10
5.28946
20
-3.67833
11
5.28974
21
-3.6784
0
LINE
8
BLACK
6
CONTINUOUS
10
5.28974
20
-3.6784
11
5.28997
21
-3.67848
0
LINE
8
BLACK
6
CONTINUOUS
10
5.28997
20
-3.67848
11
5.2902
21
-3.67856
0
LINE
8
BLACK
6
CONTINUOUS
10
5.2902
20
-3.67856
11
5.29046
21
-3.67868
0
LINE
8
BLACK
6
CONTINUOUS
10
5.29046
20
-3.67868
11
5.29329
21
-3.67927
0
LINE
8
BLACK
6
CONTINUOUS
10
5.29329
20
-3.67927
11
5.29346
21
-3.67931
0
LINE
8
BLACK
6
CONTINUOUS
10
5.29346
20
-3.67931
11
5.29626
21
-3.67999
0
LINE
8
BLACK
6
CONTINUOUS
10
5.29626
20
-3.67999
11
5.29648
21
-3.68001
0
LINE
8
BLACK
6
CONTINUOUS
10
5.29648
20
-3.68001
11
5.29648
21
-3.68001
0
LINE
8
BLACK
6
CONTINUOUS
10
5.29648
20
-3.68001
11
5.29671
21
-3.68002
0
LINE
8
BLACK
6
CONTINUOUS
10
5.29671
20
-3.68002
11
5.29671
21
-3.68002
0
LINE
8
BLACK
6
CONTINUOUS
10
5.29671
20
-3.68002
11
5.29686
21
-3.68003
0
LINE
8
BLACK
6
CONTINUOUS
10
5.29686
20
-3.68003
11
5.29703
21
-3.68005
0
LINE
8
BLACK
6
CONTINUOUS
10
5.29703
20
-3.68005
11
5.29731
21
-3.6801
0
LINE
8
BLACK
6
CONTINUOUS
10
5.29731
20
-3.6801
11
5.2976
21
-3.6801
0
LINE
8
BLACK
6
CONTINUOUS
10
5.2976
20
-3.6801
11
5.30038
21
-3.68002
0
LINE
8
BLACK
6
CONTINUOUS
10
5.30038
20
-3.68002
11
5.30051
21
-3.68002
0
LINE
8
BLACK
6
CONTINUOUS
10
5.30051
20
-3.68002
11
5.50735
21
-3.68002
0
LINE
8
BLACK
6
CONTINUOUS
10
5.50735
20
-3.68002
11
5.50809
21
-3.68008
0
LINE
8
BLACK
6
CONTINUOUS
10
5.50809
20
-3.68008
11
5.50866
21
-3.68016
0
LINE
8
BLACK
6
CONTINUOUS
10
5.50866
20
-3.68016
11
5.50866
21
-3.68016
0
LINE
8
BLACK
6
CONTINUOUS
10
5.50866
20
-3.68016
11
5.50895
21
-3.68021
0
LINE
8
BLACK
6
CONTINUOUS
10
5.50895
20
-3.68021
11
5.50923
21
-3.68018
0
LINE
8
BLACK
6
CONTINUOUS
10
5.50923
20
-3.68018
11
5.50923
21
-3.68018
0
LINE
8
BLACK
6
CONTINUOUS
10
5.50923
20
-3.68018
11
5.51103
21
-3.68004
0
LINE
8
BLACK
6
CONTINUOUS
10
5.51103
20
-3.68004
11
5.51143
21
-3.68002
0
LINE
8
BLACK
6
CONTINUOUS
10
5.51143
20
-3.68002
11
5.51175
21
-3.68002
0
LINE
8
BLACK
6
CONTINUOUS
10
5.51175
20
-3.68002
11
5.5119
21
-3.68
0
LINE
8
BLACK
6
CONTINUOUS
10
5.5119
20
-3.68
11
5.5119
21
-3.68
0
LINE
8
BLACK
6
CONTINUOUS
10
5.5119
20
-3.68
11
5.51203
21
-3.67999
0
LINE
8
BLACK
6
CONTINUOUS
10
5.51203
20
-3.67999
11
5.51287
21
-3.67989
0
LINE
8
BLACK
6
CONTINUOUS
10
5.51287
20
-3.67989
11
5.51304
21
-3.67987
0
LINE
8
BLACK
6
CONTINUOUS
10
5.51304
20
-3.67987
11
5.51592
21
-3.67964
0
LINE
8
BLACK
6
CONTINUOUS
10
5.51592
20
-3.67964
11
5.5162
21
-3.67955
0
LINE
8
BLACK
6
CONTINUOUS
10
5.5162
20
-3.67955
11
5.51643
21
-3.6795
0
LINE
8
BLACK
6
CONTINUOUS
10
5.51643
20
-3.6795
11
5.51667
21
-3.67945
0
LINE
8
BLACK
6
CONTINUOUS
10
5.51667
20
-3.67945
11
5.51695
21
-3.67941
0
LINE
8
BLACK
6
CONTINUOUS
10
5.51695
20
-3.67941
11
5.51722
21
-3.67932
0
LINE
8
BLACK
6
CONTINUOUS
10
5.51722
20
-3.67932
11
5.51722
21
-3.67932
0
LINE
8
BLACK
6
CONTINUOUS
10
5.51722
20
-3.67932
11
5.51967
21
-3.67843
0
LINE
8
BLACK
6
CONTINUOUS
10
5.51967
20
-3.67843
11
5.51983
21
-3.67837
0
LINE
8
BLACK
6
CONTINUOUS
10
5.51983
20
-3.67837
11
5.52258
21
-3.67748
0
LINE
8
BLACK
6
CONTINUOUS
10
5.52258
20
-3.67748
11
5.52283
21
-3.67733
0
LINE
8
BLACK
6
CONTINUOUS
10
5.52283
20
-3.67733
11
5.52305
21
-3.67723
0
LINE
8
BLACK
6
CONTINUOUS
10
5.52305
20
-3.67723
11
5.52326
21
-3.67712
0
LINE
8
BLACK
6
CONTINUOUS
10
5.52326
20
-3.67712
11
5.52353
21
-3.67702
0
LINE
8
BLACK
6
CONTINUOUS
10
5.52353
20
-3.67702
11
5.52595
21
-3.67544
0
LINE
8
BLACK
6
CONTINUOUS
10
5.52595
20
-3.67544
11
5.52609
21
-3.67535
0
LINE
8
BLACK
6
CONTINUOUS
10
5.52609
20
-3.67535
11
5.52857
21
-3.67385
0
LINE
8
BLACK
6
CONTINUOUS
10
5.52857
20
-3.67385
11
5.52873
21
-3.6737
0
LINE
8
BLACK
6
CONTINUOUS
10
5.52873
20
-3.6737
11
5.52873
21
-3.6737
0
LINE
8
BLACK
6
CONTINUOUS
10
5.52873
20
-3.6737
11
5.5289
21
-3.67356
0
LINE
8
BLACK
6
CONTINUOUS
10
5.5289
20
-3.67356
11
5.5289
21
-3.67356
0
LINE
8
BLACK
6
CONTINUOUS
10
5.5289
20
-3.67356
11
5.52901
21
-3.67346
0
LINE
8
BLACK
6
CONTINUOUS
10
5.52901
20
-3.67346
11
5.52915
21
-3.67334
0
LINE
8
BLACK
6
CONTINUOUS
10
5.52915
20
-3.67334
11
5.52939
21
-3.67319
0
LINE
8
BLACK
6
CONTINUOUS
10
5.52939
20
-3.67319
11
5.5315
21
-3.67096
0
LINE
8
BLACK
6
CONTINUOUS
10
5.5315
20
-3.67096
11
5.53159
21
-3.67087
0
LINE
8
BLACK
6
CONTINUOUS
10
5.53159
20
-3.67087
11
5.55644
21
-3.64602
0
LINE
8
BLACK
6
CONTINUOUS
10
5.55644
20
-3.64602
11
5.55891
21
-3.64467
0
LINE
8
BLACK
6
CONTINUOUS
10
5.55891
20
-3.64467
11
5.56086
21
-3.64426
0
LINE
8
BLACK
6
CONTINUOUS
10
5.56086
20
-3.64426
11
5.56086
21
-3.64426
0
LINE
8
BLACK
6
CONTINUOUS
10
5.56086
20
-3.64426
11
5.56111
21
-3.6442
0
LINE
8
BLACK
6
CONTINUOUS
10
5.56111
20
-3.6442
11
5.56135
21
-3.6441
0
LINE
8
BLACK
6
CONTINUOUS
10
5.56135
20
-3.6441
11
5.56774
21
-3.64125
0
LINE
8
BLACK
6
CONTINUOUS
10
5.56774
20
-3.64125
11
5.56775
21
-3.64125
0
LINE
8
BLACK
6
CONTINUOUS
10
5.56775
20
-3.64125
11
5.56798
21
-3.64115
0
LINE
8
BLACK
6
CONTINUOUS
10
5.56798
20
-3.64115
11
5.57407
21
-3.63673
0
LINE
8
BLACK
6
CONTINUOUS
10
5.57407
20
-3.63673
11
5.5791
21
-3.63114
0
LINE
8
BLACK
6
CONTINUOUS
10
5.5791
20
-3.63114
11
5.58286
21
-3.62463
0
LINE
8
BLACK
6
CONTINUOUS
10
5.58286
20
-3.62463
11
5.58518
21
-3.61748
0
LINE
8
BLACK
6
CONTINUOUS
10
5.58518
20
-3.61748
11
5.58596
21
-3.61
0
LINE
8
BLACK
6
CONTINUOUS
10
5.58596
20
-3.61
11
5.58518
21
-3.60252
0
LINE
8
BLACK
6
CONTINUOUS
10
5.58518
20
-3.60252
11
5.58286
21
-3.59537
0
LINE
8
BLACK
6
CONTINUOUS
10
5.58286
20
-3.59537
11
5.58235
21
-3.5945
0
LINE
8
BLACK
6
CONTINUOUS
10
5.58235
20
-3.5945
11
5.57959
21
-3.58971
0
LINE
8
BLACK
6
CONTINUOUS
10
5.57959
20
-3.58971
11
5.5791
21
-3.58886
0
LINE
8
BLACK
6
CONTINUOUS
10
5.5791
20
-3.58886
11
5.57407
21
-3.58327
0
LINE
8
BLACK
6
CONTINUOUS
10
5.57407
20
-3.58327
11
5.56798
21
-3.57885
0
LINE
8
BLACK
6
CONTINUOUS
10
5.56798
20
-3.57885
11
5.56775
21
-3.57875
0
LINE
8
BLACK
6
CONTINUOUS
10
5.56775
20
-3.57875
11
5.56774
21
-3.57875
0
LINE
8
BLACK
6
CONTINUOUS
10
5.56774
20
-3.57875
11
5.56135
21
-3.5759
0
LINE
8
BLACK
6
CONTINUOUS
10
5.56135
20
-3.5759
11
5.56135
21
-3.5759
0
LINE
8
BLACK
6
CONTINUOUS
10
5.56135
20
-3.5759
11
5.56111
21
-3.5758
0
LINE
8
BLACK
6
CONTINUOUS
10
5.56111
20
-3.5758
11
5.55677
21
-3.57487
0
LINE
8
BLACK
6
CONTINUOUS
10
5.55677
20
-3.57487
11
5.55401
21
-3.57429
0
LINE
8
BLACK
6
CONTINUOUS
10
5.55401
20
-3.57429
11
5.55401
21
-3.57429
0
LINE
8
BLACK
6
CONTINUOUS
10
5.55401
20
-3.57429
11
5.55376
21
-3.57423
0
LINE
8
BLACK
6
CONTINUOUS
10
5.55376
20
-3.57423
11
5.54624
21
-3.57423
0
LINE
8
BLACK
6
CONTINUOUS
10
5.54624
20
-3.57423
11
5.54599
21
-3.57429
0
LINE
8
BLACK
6
CONTINUOUS
10
5.54599
20
-3.57429
11
5.54599
21
-3.57429
0
LINE
8
BLACK
6
CONTINUOUS
10
5.54599
20
-3.57429
11
5.54323
21
-3.57487
0
LINE
8
BLACK
6
CONTINUOUS
10
5.54323
20
-3.57487
11
5.53889
21
-3.5758
0
LINE
8
BLACK
6
CONTINUOUS
10
5.53889
20
-3.5758
11
5.53865
21
-3.5759
0
LINE
8
BLACK
6
CONTINUOUS
10
5.53865
20
-3.5759
11
5.53865
21
-3.5759
0
LINE
8
BLACK
6
CONTINUOUS
10
5.53865
20
-3.5759
11
5.53226
21
-3.57875
0
LINE
8
BLACK
6
CONTINUOUS
10
5.53226
20
-3.57875
11
5.53225
21
-3.57875
0
LINE
8
BLACK
6
CONTINUOUS
10
5.53225
20
-3.57875
11
5.53202
21
-3.57885
0
LINE
8
BLACK
6
CONTINUOUS
10
5.53202
20
-3.57885
11
5.52593
21
-3.58327
0
LINE
8
BLACK
6
CONTINUOUS
10
5.52593
20
-3.58327
11
5.5209
21
-3.58886
0
LINE
8
BLACK
6
CONTINUOUS
10
5.5209
20
-3.58886
11
5.52041
21
-3.58971
0
LINE
8
BLACK
6
CONTINUOUS
10
5.52041
20
-3.58971
11
5.51765
21
-3.5945
0
LINE
8
BLACK
6
CONTINUOUS
10
5.51765
20
-3.5945
11
5.51714
21
-3.59537
0
LINE
8
BLACK
6
CONTINUOUS
10
5.51714
20
-3.59537
11
5.51568
21
-3.59989
0
LINE
8
BLACK
6
CONTINUOUS
10
5.51568
20
-3.59989
11
5.51509
21
-3.60169
0
LINE
8
BLACK
6
CONTINUOUS
10
5.51509
20
-3.60169
11
5.51388
21
-3.60366
0
LINE
8
BLACK
6
CONTINUOUS
10
5.51388
20
-3.60366
11
5.49902
21
-3.61853
0
LINE
8
BLACK
6
CONTINUOUS
10
5.49902
20
-3.61853
11
5.49657
21
-3.61987
0
LINE
8
BLACK
6
CONTINUOUS
10
5.49657
20
-3.61987
11
5.49551
21
-3.61998
0
LINE
8
BLACK
6
CONTINUOUS
10
5.49551
20
-3.61998
11
5.31449
21
-3.61998
0
LINE
8
BLACK
6
CONTINUOUS
10
5.31449
20
-3.61998
11
5.31181
21
-3.61919
0
LINE
8
BLACK
6
CONTINUOUS
10
5.31181
20
-3.61919
11
5.31098
21
-3.61853
0
LINE
8
BLACK
6
CONTINUOUS
10
5.31098
20
-3.61853
11
5.10147
21
-3.40902
0
LINE
8
BLACK
6
CONTINUOUS
10
5.10147
20
-3.40902
11
5.10013
21
-3.40657
0
LINE
8
BLACK
6
CONTINUOUS
10
5.10013
20
-3.40657
11
5.10002
21
-3.40551
0
LINE
8
BLACK
6
CONTINUOUS
10
5.10002
20
-3.40551
11
5.10002
21
-3.39449
0
LINE
8
BLACK
6
CONTINUOUS
10
5.10002
20
-3.39449
11
5.10081
21
-3.39181
0
LINE
8
BLACK
6
CONTINUOUS
10
5.10081
20
-3.39181
11
5.10147
21
-3.39098
0
LINE
8
BLACK
6
CONTINUOUS
10
5.10147
20
-3.39098
11
5.16459
21
-3.32786
0
LINE
8
BLACK
6
CONTINUOUS
10
5.16459
20
-3.32786
11
5.16502
21
-3.32513
0
LINE
8
BLACK
6
CONTINUOUS
10
5.16502
20
-3.32513
11
5.16726
21
-3.32074
0
LINE
8
BLACK
6
CONTINUOUS
10
5.16726
20
-3.32074
11
5.17074
21
-3.31726
0
LINE
8
BLACK
6
CONTINUOUS
10
5.17074
20
-3.31726
11
5.17513
21
-3.31502
0
LINE
8
BLACK
6
CONTINUOUS
10
5.17513
20
-3.31502
11
5.17786
21
-3.31459
0
LINE
8
BLACK
6
CONTINUOUS
10
5.17786
20
-3.31459
11
5.22459
21
-3.26786
0
LINE
8
BLACK
6
CONTINUOUS
10
5.22459
20
-3.26786
11
5.22502
21
-3.26513
0
LINE
8
BLACK
6
CONTINUOUS
10
5.22502
20
-3.26513
11
5.22726
21
-3.26074
0
LINE
8
BLACK
6
CONTINUOUS
10
5.22726
20
-3.26074
11
5.23074
21
-3.25726
0
LINE
8
BLACK
6
CONTINUOUS
10
5.23074
20
-3.25726
11
5.23513
21
-3.25502
0
LINE
8
BLACK
6
CONTINUOUS
10
5.23513
20
-3.25502
11
5.23786
21
-3.25459
0
LINE
8
BLACK
6
CONTINUOUS
10
5.23786
20
-3.25459
11
5.27098
21
-3.22147
0
LINE
8
BLACK
6
CONTINUOUS
10
5.27098
20
-3.22147
11
5.27343
21
-3.22013
0
LINE
8
BLACK
6
CONTINUOUS
10
5.27343
20
-3.22013
11
5.27449
21
-3.22002
0
LINE
8
BLACK
6
CONTINUOUS
10
5.27449
20
-3.22002
11
5.69502
21
-3.22002
0
LINE
8
BLACK
6
CONTINUOUS
10
5.69502
20
-3.22002
11
5.6977
21
-3.22081
0
LINE
8
BLACK
6
CONTINUOUS
10
5.6977
20
-3.22081
11
5.69953
21
-3.22292
0
LINE
8
BLACK
6
CONTINUOUS
10
5.69953
20
-3.22292
11
5.69998
21
-3.22498
0
LINE
8
BLACK
6
CONTINUOUS
10
5.69998
20
-3.22498
11
5.69998
21
-3.2819
0
LINE
8
BLACK
6
CONTINUOUS
10
5.69998
20
-3.2819
11
5.70025
21
-3.28434
0
LINE
8
BLACK
6
CONTINUOUS
10
5.70025
20
-3.28434
11
5.70226
21
-3.28971
0
LINE
8
BLACK
6
CONTINUOUS
10
5.70226
20
-3.28971
11
5.7057
21
-3.2943
0
LINE
8
BLACK
6
CONTINUOUS
10
5.7057
20
-3.2943
11
5.70598
21
-3.29451
0
LINE
8
BLACK
6
CONTINUOUS
10
5.70598
20
-3.29451
11
5.70801
21
-3.29603
0
LINE
8
BLACK
6
CONTINUOUS
10
5.70801
20
-3.29603
11
5.70968
21
-3.29827
0
LINE
8
BLACK
6
CONTINUOUS
10
5.70968
20
-3.29827
11
5.70988
21
-3.30106
0
LINE
8
BLACK
6
CONTINUOUS
10
5.70988
20
-3.30106
11
5.70854
21
-3.30351
0
LINE
8
BLACK
6
CONTINUOUS
10
5.70854
20
-3.30351
11
5.70801
21
-3.30397
0
LINE
8
BLACK
6
CONTINUOUS
10
5.70801
20
-3.30397
11
5.7057
21
-3.3057
0
LINE
8
BLACK
6
CONTINUOUS
10
5.7057
20
-3.3057
11
5.70226
21
-3.31029
0
LINE
8
BLACK
6
CONTINUOUS
10
5.70226
20
-3.31029
11
5.70025
21
-3.31566
0
LINE
8
BLACK
6
CONTINUOUS
10
5.70025
20
-3.31566
11
5.69998
21
-3.3181
0
LINE
8
BLACK
6
CONTINUOUS
10
5.69998
20
-3.3181
11
5.69998
21
-3.3819
0
LINE
8
BLACK
6
CONTINUOUS
10
5.69998
20
-3.3819
11
5.70025
21
-3.38434
0
LINE
8
BLACK
6
CONTINUOUS
10
5.70025
20
-3.38434
11
5.70226
21
-3.38971
0
LINE
8
BLACK
6
CONTINUOUS
10
5.70226
20
-3.38971
11
5.7057
21
-3.3943
0
LINE
8
BLACK
6
CONTINUOUS
10
5.7057
20
-3.3943
11
5.70598
21
-3.39451
0
LINE
8
BLACK
6
CONTINUOUS
10
5.70598
20
-3.39451
11
5.70598
21
-3.39451
0
LINE
8
BLACK
6
CONTINUOUS
10
5.70598
20
-3.39451
11
5.70801
21
-3.39603
0
LINE
8
BLACK
6
CONTINUOUS
10
5.70801
20
-3.39603
11
5.70968
21
-3.39827
0
LINE
8
BLACK
6
CONTINUOUS
10
5.70968
20
-3.39827
11
5.70988
21
-3.40106
0
LINE
8
BLACK
6
CONTINUOUS
10
5.70988
20
-3.40106
11
5.70854
21
-3.40351
0
LINE
8
BLACK
6
CONTINUOUS
10
5.70854
20
-3.40351
11
5.70801
21
-3.40397
0
LINE
8
BLACK
6
CONTINUOUS
10
5.70801
20
-3.40397
11
5.7057
21
-3.4057
0
LINE
8
BLACK
6
CONTINUOUS
10
5.7057
20
-3.4057
11
5.70226
21
-3.41029
0
LINE
8
BLACK
6
CONTINUOUS
10
5.70226
20
-3.41029
11
5.70025
21
-3.41566
0
LINE
8
BLACK
6
CONTINUOUS
10
5.70025
20
-3.41566
11
5.69998
21
-3.4181
0
LINE
8
BLACK
6
CONTINUOUS
10
5.69998
20
-3.4181
11
5.69998
21
-3.4819
0
LINE
8
BLACK
6
CONTINUOUS
10
5.69998
20
-3.4819
11
5.70025
21
-3.48434
0
LINE
8
BLACK
6
CONTINUOUS
10
5.70025
20
-3.48434
11
5.70226
21
-3.48971
0
LINE
8
BLACK
6
CONTINUOUS
10
5.70226
20
-3.48971
11
5.7057
21
-3.4943
0
LINE
8
BLACK
6
CONTINUOUS
10
5.7057
20
-3.4943
11
5.70598
21
-3.49451
0
LINE
8
BLACK
6
CONTINUOUS
10
5.70598
20
-3.49451
11
5.70801
21
-3.49603
0
LINE
8
BLACK
6
CONTINUOUS
10
5.70801
20
-3.49603
11
5.70968
21
-3.49827
0
LINE
8
BLACK
6
CONTINUOUS
10
5.70968
20
-3.49827
11
5.70988
21
-3.50106
0
LINE
8
BLACK
6
CONTINUOUS
10
5.70988
20
-3.50106
11
5.70854
21
-3.50351
0
LINE
8
BLACK
6
CONTINUOUS
10
5.70854
20
-3.50351
11
5.70801
21
-3.50397
0
LINE
8
BLACK
6
CONTINUOUS
10
5.70801
20
-3.50397
11
5.7057
21
-3.5057
0
LINE
8
BLACK
6
CONTINUOUS
10
5.7057
20
-3.5057
11
5.70226
21
-3.51029
0
LINE
8
BLACK
6
CONTINUOUS
10
5.70226
20
-3.51029
11
5.70025
21
-3.51566
0
LINE
8
BLACK
6
CONTINUOUS
10
5.70025
20
-3.51566
11
5.70021
21
-3.51597
0
LINE
8
BLACK
6
CONTINUOUS
10
5.70021
20
-3.51597
11
5.70021
21
-3.51597
0
LINE
8
BLACK
6
CONTINUOUS
10
5.70021
20
-3.51597
11
5.70003
21
-3.51768
0
LINE
8
BLACK
6
CONTINUOUS
10
5.70003
20
-3.51768
11
5.69895
21
-3.52026
0
LINE
8
BLACK
6
CONTINUOUS
10
5.69895
20
-3.52026
11
5.69666
21
-3.52185
0
LINE
8
BLACK
6
CONTINUOUS
10
5.69666
20
-3.52185
11
5.69509
21
-3.52211
0
LINE
8
BLACK
6
CONTINUOUS
10
5.69509
20
-3.52211
11
5.64361
21
-3.52211
0
LINE
8
BLACK
6
CONTINUOUS
10
5.64361
20
-3.52211
11
5.64093
21
-3.52132
0
LINE
8
BLACK
6
CONTINUOUS
10
5.64093
20
-3.52132
11
5.6401
21
-3.52065
0
LINE
8
BLACK
6
CONTINUOUS
10
5.6401
20
-3.52065
11
5.55053
21
-3.43108
0
LINE
8
BLACK
6
CONTINUOUS
10
5.55053
20
-3.43108
11
5.5503
21
-3.43084
0
LINE
8
BLACK
6
CONTINUOUS
10
5.5503
20
-3.43084
11
5.55028
21
-3.43082
0
LINE
8
BLACK
6
CONTINUOUS
10
5.55028
20
-3.43082
11
5.5488
21
-3.42912
0
LINE
8
BLACK
6
CONTINUOUS
10
5.5488
20
-3.42912
11
5.54674
21
-3.42767
0
LINE
8
BLACK
6
CONTINUOUS
10
5.54674
20
-3.42767
11
5.54653
21
-3.42752
0
LINE
8
BLACK
6
CONTINUOUS
10
5.54653
20
-3.42752
11
5.54479
21
-3.42615
0
LINE
8
BLACK
6
CONTINUOUS
10
5.54479
20
-3.42615
11
5.54456
21
-3.42597
0
LINE
8
BLACK
6
CONTINUOUS
10
5.54456
20
-3.42597
11
5.54428
21
-3.42584
0
LINE
8
BLACK
6
CONTINUOUS
10
5.54428
20
-3.42584
11
5.54419
21
-3.42579
0
LINE
8
BLACK
6
CONTINUOUS
10
5.54419
20
-3.42579
11
5.54362
21
-3.42546
0
LINE
8
BLACK
6
CONTINUOUS
10
5.54362
20
-3.42546
11
5.54352
21
-3.42541
0
LINE
8
BLACK
6
CONTINUOUS
10
5.54352
20
-3.42541
11
5.54328
21
-3.42524
0
LINE
8
BLACK
6
CONTINUOUS
10
5.54328
20
-3.42524
11
5.543
21
-3.42513
0
LINE
8
BLACK
6
CONTINUOUS
10
5.543
20
-3.42513
11
5.543
21
-3.42513
0
LINE
8
BLACK
6
CONTINUOUS
10
5.543
20
-3.42513
11
5.54093
21
-3.42432
0
LINE
8
BLACK
6
CONTINUOUS
10
5.54093
20
-3.42432
11
5.5407
21
-3.42422
0
LINE
8
BLACK
6
CONTINUOUS
10
5.5407
20
-3.42422
11
5.5384
21
-3.42319
0
LINE
8
BLACK
6
CONTINUOUS
10
5.5384
20
-3.42319
11
5.53811
21
-3.42313
0
LINE
8
BLACK
6
CONTINUOUS
10
5.53811
20
-3.42313
11
5.53801
21
-3.4231
0
LINE
8
BLACK
6
CONTINUOUS
10
5.53801
20
-3.4231
11
5.53737
21
-3.42292
0
LINE
8
BLACK
6
CONTINUOUS
10
5.53737
20
-3.42292
11
5.53727
21
-3.42289
0
LINE
8
BLACK
6
CONTINUOUS
10
5.53727
20
-3.42289
11
5.53699
21
-3.42278
0
LINE
8
BLACK
6
CONTINUOUS
10
5.53699
20
-3.42278
11
5.53669
21
-3.42275
0
LINE
8
BLACK
6
CONTINUOUS
10
5.53669
20
-3.42275
11
5.53669
21
-3.42275
0
LINE
8
BLACK
6
CONTINUOUS
10
5.53669
20
-3.42275
11
5.53553
21
-3.42259
0
LINE
8
BLACK
6
CONTINUOUS
10
5.53553
20
-3.42259
11
5.53449
21
-3.42246
0
LINE
8
BLACK
6
CONTINUOUS
10
5.53449
20
-3.42246
11
5.53424
21
-3.42242
0
LINE
8
BLACK
6
CONTINUOUS
10
5.53424
20
-3.42242
11
5.53176
21
-3.42196
0
LINE
8
BLACK
6
CONTINUOUS
10
5.53176
20
-3.42196
11
5.53147
21
-3.42197
0
LINE
8
BLACK
6
CONTINUOUS
10
5.53147
20
-3.42197
11
5.53147
21
-3.42197
0
LINE
8
BLACK
6
CONTINUOUS
10
5.53147
20
-3.42197
11
5.52932
21
-3.4221
0
LINE
8
BLACK
6
CONTINUOUS
10
5.52932
20
-3.4221
11
5.52903
21
-3.42211
0
LINE
8
BLACK
6
CONTINUOUS
10
5.52903
20
-3.42211
11
5.23361
21
-3.42211
0
LINE
8
BLACK
6
CONTINUOUS
10
5.23361
20
-3.42211
11
5.23093
21
-3.42132
0
LINE
8
BLACK
6
CONTINUOUS
10
5.23093
20
-3.42132
11
5.2301
21
-3.42065
0
LINE
8
BLACK
6
CONTINUOUS
10
5.2301
20
-3.42065
11
5.2168
21
-3.40735
0
LINE
8
BLACK
6
CONTINUOUS
10
5.2168
20
-3.40735
11
5.21546
21
-3.4049
0
LINE
8
BLACK
6
CONTINUOUS
10
5.21546
20
-3.4049
11
5.21537
21
-3.40436
0
LINE
8
BLACK
6
CONTINUOUS
10
5.21537
20
-3.40436
11
5.21521
21
-3.40278
0
LINE
8
BLACK
6
CONTINUOUS
10
5.21521
20
-3.40278
11
5.21521
21
-3.40278
0
LINE
8
BLACK
6
CONTINUOUS
10
5.21521
20
-3.40278
11
5.21518
21
-3.40252
0
LINE
8
BLACK
6
CONTINUOUS
10
5.21518
20
-3.40252
11
5.21492
21
-3.40173
0
LINE
8
BLACK
6
CONTINUOUS
10
5.21492
20
-3.40173
11
5.21294
21
-3.39562
0
LINE
8
BLACK
6
CONTINUOUS
10
5.21294
20
-3.39562
11
5.21286
21
-3.39537
0
LINE
8
BLACK
6
CONTINUOUS
10
5.21286
20
-3.39537
11
5.21207
21
-3.39402
0
LINE
8
BLACK
6
CONTINUOUS
10
5.21207
20
-3.39402
11
5.20959
21
-3.38971
0
LINE
8
BLACK
6
CONTINUOUS
10
5.20959
20
-3.38971
11
5.2091
21
-3.38886
0
LINE
8
BLACK
6
CONTINUOUS
10
5.2091
20
-3.38886
11
5.20407
21
-3.38327
0
LINE
8
BLACK
6
CONTINUOUS
10
5.20407
20
-3.38327
11
5.19798
21
-3.37885
0
LINE
8
BLACK
6
CONTINUOUS
10
5.19798
20
-3.37885
11
5.19775
21
-3.37875
0
LINE
8
BLACK
6
CONTINUOUS
10
5.19775
20
-3.37875
11
5.19774
21
-3.37875
0
LINE
8
BLACK
6
CONTINUOUS
10
5.19774
20
-3.37875
11
5.19135
21
-3.3759
0
LINE
8
BLACK
6
CONTINUOUS
10
5.19135
20
-3.3759
11
5.19135
21
-3.3759
0
LINE
8
BLACK
6
CONTINUOUS
10
5.19135
20
-3.3759
11
5.19111
21
-3.3758
0
LINE
8
BLACK
6
CONTINUOUS
10
5.19111
20
-3.3758
11
5.18744
21
-3.37501
0
LINE
8
BLACK
6
CONTINUOUS
10
5.18744
20
-3.37501
11
5.18401
21
-3.37429
0
LINE
8
BLACK
6
CONTINUOUS
10
5.18401
20
-3.37429
11
5.18401
21
-3.37429
0
LINE
8
BLACK
6
CONTINUOUS
10
5.18401
20
-3.37429
11
5.18376
21
-3.37423
0
LINE
8
BLACK
6
CONTINUOUS
10
5.18376
20
-3.37423
11
5.17624
21
-3.37423
0
LINE
8
BLACK
6
CONTINUOUS
10
5.17624
20
-3.37423
11
5.17599
21
-3.37429
0
LINE
8
BLACK
6
CONTINUOUS
10
5.17599
20
-3.37429
11
5.17599
21
-3.37429
0
LINE
8
BLACK
6
CONTINUOUS
10
5.17599
20
-3.37429
11
5.17256
21
-3.37501
0
LINE
8
BLACK
6
CONTINUOUS
10
5.17256
20
-3.37501
11
5.16889
21
-3.3758
0
LINE
8
BLACK
6
CONTINUOUS
10
5.16889
20
-3.3758
11
5.16865
21
-3.3759
0
LINE
8
BLACK
6
CONTINUOUS
10
5.16865
20
-3.3759
11
5.16865
21
-3.3759
0
LINE
8
BLACK
6
CONTINUOUS
10
5.16865
20
-3.3759
11
5.16226
21
-3.37875
0
LINE
8
BLACK
6
CONTINUOUS
10
5.16226
20
-3.37875
11
5.16225
21
-3.37875
0
LINE
8
BLACK
6
CONTINUOUS
10
5.16225
20
-3.37875
11
5.16202
21
-3.37885
0
LINE
8
BLACK
6
CONTINUOUS
10
5.16202
20
-3.37885
11
5.15593
21
-3.38327
0
LINE
8
BLACK
6
CONTINUOUS
10
5.15593
20
-3.38327
11
5.1509
21
-3.38886
0
LINE
8
BLACK
6
CONTINUOUS
10
5.1509
20
-3.38886
11
5.15041
21
-3.38971
0
LINE
8
BLACK
6
CONTINUOUS
10
5.15041
20
-3.38971
11
5.14793
21
-3.39402
0
LINE
8
BLACK
6
CONTINUOUS
10
5.14793
20
-3.39402
11
5.14714
21
-3.39537
0
LINE
8
BLACK
6
CONTINUOUS
10
5.14714
20
-3.39537
11
5.14482
21
-3.40252
0
LINE
8
BLACK
6
CONTINUOUS
10
5.14482
20
-3.40252
11
5.14479
21
-3.40278
0
LINE
8
BLACK
6
CONTINUOUS
10
5.14479
20
-3.40278
11
5.14479
21
-3.40278
0
LINE
8
BLACK
6
CONTINUOUS
10
5.14479
20
-3.40278
11
5.14419
21
-3.40855
0
LINE
8
BLACK
6
CONTINUOUS
10
5.14419
20
-3.40855
11
5.14404
21
-3.41
0
LINE
8
BLACK
6
CONTINUOUS
10
5.14404
20
-3.41
11
5.14406
21
-3.41026
0
LINE
8
BLACK
6
CONTINUOUS
10
5.14406
20
-3.41026
11
5.14466
21
-3.41597
0
LINE
8
BLACK
6
CONTINUOUS
10
5.14466
20
-3.41597
11
5.14482
21
-3.41748
0
LINE
8
BLACK
6
CONTINUOUS
10
5.14482
20
-3.41748
11
5.14714
21
-3.42463
0
LINE
8
BLACK
6
CONTINUOUS
10
5.14714
20
-3.42463
11
5.14727
21
-3.42485
0
LINE
8
BLACK
6
CONTINUOUS
10
5.14727
20
-3.42485
11
5.14727
21
-3.42485
0
LINE
8
BLACK
6
CONTINUOUS
10
5.14727
20
-3.42485
11
5.14774
21
-3.42566
0
LINE
8
BLACK
6
CONTINUOUS
10
5.14774
20
-3.42566
11
5.1509
21
-3.43114
0
LINE
8
BLACK
6
CONTINUOUS
10
5.1509
20
-3.43114
11
5.15108
21
-3.43133
0
LINE
8
BLACK
6
CONTINUOUS
10
5.15108
20
-3.43133
11
5.15108
21
-3.43133
0
LINE
8
BLACK
6
CONTINUOUS
10
5.15108
20
-3.43133
11
5.15405
21
-3.43463
0
LINE
8
BLACK
6
CONTINUOUS
10
5.15405
20
-3.43463
11
5.15593
21
-3.43673
0
LINE
8
BLACK
6
CONTINUOUS
10
5.15593
20
-3.43673
11
5.15959
21
-3.43938
0
LINE
8
BLACK
6
CONTINUOUS
10
5.15959
20
-3.43938
11
5.16061
21
-3.44012
0
LINE
8
BLACK
6
CONTINUOUS
10
5.16061
20
-3.44012
11
5.16202
21
-3.44115
0
LINE
8
BLACK
6
CONTINUOUS
10
5.16202
20
-3.44115
11
5.16225
21
-3.44125
0
LINE
8
BLACK
6
CONTINUOUS
10
5.16225
20
-3.44125
11
5.16226
21
-3.44125
0
LINE
8
BLACK
6
CONTINUOUS
10
5.16226
20
-3.44125
11
5.16847
21
-3.44402
0
LINE
8
BLACK
6
CONTINUOUS
10
5.16847
20
-3.44402
11
5.16889
21
-3.4442
0
LINE
8
BLACK
6
CONTINUOUS
10
5.16889
20
-3.4442
11
5.17244
21
-3.44496
0
LINE
8
BLACK
6
CONTINUOUS
10
5.17244
20
-3.44496
11
5.1749
21
-3.44548
0
LINE
8
BLACK
6
CONTINUOUS
10
5.1749
20
-3.44548
11
5.17738
21
-3.44683
0
LINE
8
BLACK
6
CONTINUOUS
10
5.17738
20
-3.44683
11
5.19947
21
-3.46892
0
LINE
8
BLACK
6
CONTINUOUS
10
5.19947
20
-3.46892
11
5.1997
21
-3.46916
0
LINE
8
BLACK
6
CONTINUOUS
10
5.1997
20
-3.46916
11
5.2012
21
-3.47088
0
LINE
8
BLACK
6
CONTINUOUS
10
5.2012
20
-3.47088
11
5.20144
21
-3.47105
0
LINE
8
BLACK
6
CONTINUOUS
10
5.20144
20
-3.47105
11
5.20326
21
-3.47233
0
LINE
8
BLACK
6
CONTINUOUS
10
5.20326
20
-3.47233
11
5.20347
21
-3.47248
0
LINE
8
BLACK
6
CONTINUOUS
10
5.20347
20
-3.47248
11
5.20544
21
-3.47403
0
LINE
8
BLACK
6
CONTINUOUS
10
5.20544
20
-3.47403
11
5.20572
21
-3.47416
0
LINE
8
BLACK
6
CONTINUOUS
10
5.20572
20
-3.47416
11
5.20581
21
-3.47421
0
LINE
8
BLACK
6
CONTINUOUS
10
5.20581
20
-3.47421
11
5.20638
21
-3.47454
0
LINE
8
BLACK
6
CONTINUOUS
10
5.20638
20
-3.47454
11
5.20648
21
-3.47459
0
LINE
8
BLACK
6
CONTINUOUS
10
5.20648
20
-3.47459
11
5.20672
21
-3.47476
0
LINE
8
BLACK
6
CONTINUOUS
10
5.20672
20
-3.47476
11
5.207
21
-3.47487
0
LINE
8
BLACK
6
CONTINUOUS
10
5.207
20
-3.47487
11
5.207
21
-3.47487
0
LINE
8
BLACK
6
CONTINUOUS
10
5.207
20
-3.47487
11
5.20907
21
-3.47568
0
LINE
8
BLACK
6
CONTINUOUS
10
5.20907
20
-3.47568
11
5.2093
21
-3.47578
0
LINE
8
BLACK
6
CONTINUOUS
10
5.2093
20
-3.47578
11
5.2116
21
-3.47681
0
LINE
8
BLACK
6
CONTINUOUS
10
5.2116
20
-3.47681
11
5.21189
21
-3.47687
0
LINE
8
BLACK
6
CONTINUOUS
10
5.21189
20
-3.47687
11
5.21199
21
-3.4769
0
LINE
8
BLACK
6
CONTINUOUS
10
5.21199
20
-3.4769
11
5.21263
21
-3.47708
0
LINE
8
BLACK
6
CONTINUOUS
10
5.21263
20
-3.47708
11
5.21273
21
-3.47711
0
LINE
8
BLACK
6
CONTINUOUS
10
5.21273
20
-3.47711
11
5.21301
21
-3.47722
0
LINE
8
BLACK
6
CONTINUOUS
10
5.21301
20
-3.47722
11
5.21331
21
-3.47725
0
LINE
8
BLACK
6
CONTINUOUS
10
5.21331
20
-3.47725
11
5.21331
21
-3.47725
0
LINE
8
BLACK
6
CONTINUOUS
10
5.21331
20
-3.47725
11
5.21447
21
-3.47741
0
LINE
8
BLACK
6
CONTINUOUS
10
5.21447
20
-3.47741
11
5.21551
21
-3.47754
0
LINE
8
BLACK
6
CONTINUOUS
10
5.21551
20
-3.47754
11
5.21576
21
-3.47758
0
LINE
8
BLACK
6
CONTINUOUS
10
5.21576
20
-3.47758
11
5.21824
21
-3.47804
0
LINE
8
BLACK
6
CONTINUOUS
10
5.21824
20
-3.47804
11
5.21853
21
-3.47803
0
LINE
8
BLACK
6
CONTINUOUS
10
5.21853
20
-3.47803
11
5.21853
21
-3.47803
0
LINE
8
BLACK
6
CONTINUOUS
10
5.21853
20
-3.47803
11
5.22068
21
-3.4779
0
LINE
8
BLACK
6
CONTINUOUS
10
5.22068
20
-3.4779
11
5.22097
21
-3.47789
0
LINE
8
BLACK
6
CONTINUOUS
10
5.22097
20
-3.47789
11
5.51639
21
-3.47789
0
LINE
8
BLACK
6
CONTINUOUS
10
5.51639
20
-3.47789
11
5.51907
21
-3.47868
0
LINE
8
BLACK
6
CONTINUOUS
10
5.51907
20
-3.47868
11
5.5199
21
-3.47935
0
LINE
8
BLACK
6
CONTINUOUS
10
5.5199
20
-3.47935
11
5.60947
21
-3.56892
0
LINE
8
BLACK
6
CONTINUOUS
10
5.60947
20
-3.56892
11
5.6097
21
-3.56917
0
LINE
8
BLACK
6
CONTINUOUS
10
5.6097
20
-3.56917
11
5.6112
21
-3.57088
0
LINE
8
BLACK
6
CONTINUOUS
10
5.6112
20
-3.57088
11
5.61326
21
-3.57233
0
LINE
8
BLACK
6
CONTINUOUS
10
5.61326
20
-3.57233
11
5.61346
21
-3.57248
0
LINE
8
BLACK
6
CONTINUOUS
10
5.61346
20
-3.57248
11
5.61544
21
-3.57403
0
LINE
8
BLACK
6
CONTINUOUS
10
5.61544
20
-3.57403
11
5.61572
21
-3.57416
0
LINE
8
BLACK
6
CONTINUOUS
10
5.61572
20
-3.57416
11
5.61581
21
-3.57421
0
LINE
8
BLACK
6
CONTINUOUS
10
5.61581
20
-3.57421
11
5.61638
21
-3.57454
0
LINE
8
BLACK
6
CONTINUOUS
10
5.61638
20
-3.57454
11
5.61648
21
-3.57459
0
LINE
8
BLACK
6
CONTINUOUS
10
5.61648
20
-3.57459
11
5.61672
21
-3.57476
0
LINE
8
BLACK
6
CONTINUOUS
10
5.61672
20
-3.57476
11
5.617
21
-3.57487
0
LINE
8
BLACK
6
CONTINUOUS
10
5.617
20
-3.57487
11
5.617
21
-3.57487
0
LINE
8
BLACK
6
CONTINUOUS
10
5.617
20
-3.57487
11
5.61907
21
-3.57568
0
LINE
8
BLACK
6
CONTINUOUS
10
5.61907
20
-3.57568
11
5.6193
21
-3.57578
0
LINE
8
BLACK
6
CONTINUOUS
10
5.6193
20
-3.57578
11
5.6216
21
-3.57681
0
LINE
8
BLACK
6
CONTINUOUS
10
5.6216
20
-3.57681
11
5.62189
21
-3.57687
0
LINE
8
BLACK
6
CONTINUOUS
10
5.62189
20
-3.57687
11
5.62199
21
-3.5769
0
LINE
8
BLACK
6
CONTINUOUS
10
5.62199
20
-3.5769
11
5.62263
21
-3.57708
0
LINE
8
BLACK
6
CONTINUOUS
10
5.62263
20
-3.57708
11
5.62273
21
-3.57711
0
LINE
8
BLACK
6
CONTINUOUS
10
5.62273
20
-3.57711
11
5.62301
21
-3.57722
0
LINE
8
BLACK
6
CONTINUOUS
10
5.62301
20
-3.57722
11
5.62331
21
-3.57725
0
LINE
8
BLACK
6
CONTINUOUS
10
5.62331
20
-3.57725
11
5.62551
21
-3.57754
0
LINE
8
BLACK
6
CONTINUOUS
10
5.62551
20
-3.57754
11
5.62576
21
-3.57758
0
LINE
8
BLACK
6
CONTINUOUS
10
5.62576
20
-3.57758
11
5.62727
21
-3.57786
0
LINE
8
BLACK
6
CONTINUOUS
10
5.62727
20
-3.57786
11
5.62824
21
-3.57804
0
LINE
8
BLACK
6
CONTINUOUS
10
5.62824
20
-3.57804
11
5.62853
21
-3.57803
0
LINE
8
BLACK
6
CONTINUOUS
10
5.62853
20
-3.57803
11
5.62853
21
-3.57803
0
LINE
8
BLACK
6
CONTINUOUS
10
5.62853
20
-3.57803
11
5.63068
21
-3.5779
0
LINE
8
BLACK
6
CONTINUOUS
10
5.63068
20
-3.5779
11
5.63097
21
-3.57789
0
LINE
8
BLACK
6
CONTINUOUS
10
5.63097
20
-3.57789
11
5.69509
21
-3.57789
0
LINE
8
BLACK
6
CONTINUOUS
10
5.69509
20
-3.57789
11
5.69778
21
-3.57868
0
LINE
8
BLACK
6
CONTINUOUS
10
5.69778
20
-3.57868
11
5.69961
21
-3.58079
0
LINE
8
BLACK
6
CONTINUOUS
10
5.69961
20
-3.58079
11
5.70003
21
-3.58232
0
LINE
8
BLACK
6
CONTINUOUS
10
5.70003
20
-3.58232
11
5.70021
21
-3.58403
0
LINE
8
BLACK
6
CONTINUOUS
10
5.70021
20
-3.58403
11
5.70021
21
-3.58403
0
LINE
8
BLACK
6
CONTINUOUS
10
5.70021
20
-3.58403
11
5.70025
21
-3.58434
0
LINE
8
BLACK
6
CONTINUOUS
10
5.70025
20
-3.58434
11
5.70226
21
-3.58971
0
LINE
8
BLACK
6
CONTINUOUS
10
5.70226
20
-3.58971
11
5.7057
21
-3.5943
0
LINE
8
BLACK
6
CONTINUOUS
10
5.7057
20
-3.5943
11
5.71029
21
-3.59774
0
LINE
8
BLACK
6
CONTINUOUS
10
5.71029
20
-3.59774
11
5.71566
21
-3.59975
0
LINE
8
BLACK
6
CONTINUOUS
10
5.71566
20
-3.59975
11
5.7181
21
-3.60002
0
LINE
8
BLACK
6
CONTINUOUS
10
5.7181
20
-3.60002
11
5.7819
21
-3.60002
0
LINE
8
BLACK
6
CONTINUOUS
10
5.7819
20
-3.60002
11
5.78434
21
-3.59975
0
LINE
8
BLACK
6
CONTINUOUS
10
5.78434
20
-3.59975
11
5.78971
21
-3.59774
0
LINE
8
BLACK
6
CONTINUOUS
10
5.78971
20
-3.59774
11
5.7943
21
-3.5943
0
LINE
8
BLACK
6
CONTINUOUS
10
5.7943
20
-3.5943
11
5.79604
21
-3.59198
0
LINE
8
BLACK
6
CONTINUOUS
10
5.79604
20
-3.59198
11
5.79828
21
-3.5903
0
LINE
8
BLACK
6
CONTINUOUS
10
5.79828
20
-3.5903
11
5.80107
21
-3.59011
0
LINE
8
BLACK
6
CONTINUOUS
10
5.80107
20
-3.59011
11
5.80352
21
-3.59145
0
LINE
8
BLACK
6
CONTINUOUS
10
5.80352
20
-3.59145
11
5.80398
21
-3.59198
0
LINE
8
BLACK
6
CONTINUOUS
10
5.80398
20
-3.59198
11
5.8055
21
-3.594
0
LINE
8
BLACK
6
CONTINUOUS
10
5.8055
20
-3.594
11
5.806
21
-3.5945
0
LINE
8
BLACK
6
CONTINUOUS
10
5.806
20
-3.5945
11
5.81001
21
-3.59751
0
LINE
8
BLACK
6
CONTINUOUS
10
5.81001
20
-3.59751
11
5.81063
21
-3.59785
0
LINE
8
BLACK
6
CONTINUOUS
10
5.81063
20
-3.59785
11
5.81537
21
-3.59963
0
LINE
8
BLACK
6
CONTINUOUS
10
5.81537
20
-3.59963
11
5.81597
21
-3.59977
0
LINE
8
BLACK
6
CONTINUOUS
10
5.81597
20
-3.59977
11
5.81797
21
-3.59999
0
LINE
8
BLACK
6
CONTINUOUS
10
5.81797
20
-3.59999
11
5.81824
21
-3.6
0
LINE
8
BLACK
6
CONTINUOUS
10
5.81824
20
-3.6
11
5.83929
21
-3.6
0
LINE
8
BLACK
6
CONTINUOUS
10
5.83929
20
-3.6
11
5.83989
21
-3.59982
0
LINE
8
BLACK
6
CONTINUOUS
10
5.83989
20
-3.59982
11
5.83993
21
-3.59977
0
LINE
8
BLACK
6
CONTINUOUS
10
5.83993
20
-3.59977
11
5.84
21
-3.59947
0
LINE
8
BLACK
6
CONTINUOUS
10
5.84
20
-3.59947
11
5.84
21
-3.58
0
LINE
8
BLACK
6
CONTINUOUS
10
5.84
20
-3.58
11
5.82
21
-3.58
0
LINE
8
BLACK
6
CONTINUOUS
10
4.90023
20
-3.28993
11
4.90053
21
-3.29
0
LINE
8
BLACK
6
CONTINUOUS
10
4.90053
20
-3.29
11
4.92
21
-3.29
0
LINE
8
BLACK
6
CONTINUOUS
10
4.92
20
-3.29
11
4.92
21
-3.27
0
LINE
8
BLACK
6
CONTINUOUS
10
4.92
20
-3.27
11
4.94
21
-3.27
0
LINE
8
BLACK
6
CONTINUOUS
10
4.94
20
-3.27
11
4.94
21
-3.25071
0
LINE
8
BLACK
6
CONTINUOUS
10
4.94
20
-3.25071
11
4.93982
21
-3.25011
0
LINE
8
BLACK
6
CONTINUOUS
10
4.93982
20
-3.25011
11
4.93977
21
-3.25007
0
LINE
8
BLACK
6
CONTINUOUS
10
4.93977
20
-3.25007
11
4.93947
21
-3.25
0
LINE
8
BLACK
6
CONTINUOUS
10
4.93947
20
-3.25
11
4.91824
21
-3.25
0
LINE
8
BLACK
6
CONTINUOUS
10
4.91824
20
-3.25
11
4.91797
21
-3.25001
0
LINE
8
BLACK
6
CONTINUOUS
10
4.91797
20
-3.25001
11
4.91597
21
-3.25023
0
LINE
8
BLACK
6
CONTINUOUS
10
4.91597
20
-3.25023
11
4.91537
21
-3.25037
0
LINE
8
BLACK
6
CONTINUOUS
10
4.91537
20
-3.25037
11
4.91063
21
-3.25215
0
LINE
8
BLACK
6
CONTINUOUS
10
4.91063
20
-3.25215
11
4.91001
21
-3.25249
0
LINE
8
BLACK
6
CONTINUOUS
10
4.91001
20
-3.25249
11
4.906
21
-3.2555
0
LINE
8
BLACK
6
CONTINUOUS
10
4.906
20
-3.2555
11
4.9055
21
-3.256
0
LINE
8
BLACK
6
CONTINUOUS
10
4.9055
20
-3.256
11
4.90249
21
-3.26001
0
LINE
8
BLACK
6
CONTINUOUS
10
4.90249
20
-3.26001
11
4.90215
21
-3.26063
0
LINE
8
BLACK
6
CONTINUOUS
10
4.90215
20
-3.26063
11
4.90037
21
-3.26537
0
LINE
8
BLACK
6
CONTINUOUS
10
4.90037
20
-3.26537
11
4.90023
21
-3.26597
0
LINE
8
BLACK
6
CONTINUOUS
10
4.90023
20
-3.26597
11
4.90001
21
-3.26797
0
LINE
8
BLACK
6
CONTINUOUS
10
4.90001
20
-3.26797
11
4.9
21
-3.26824
0
LINE
8
BLACK
6
CONTINUOUS
10
4.9
20
-3.26824
11
4.9
21
-3.28929
0
LINE
8
BLACK
6
CONTINUOUS
10
4.9
20
-3.28929
11
4.90018
21
-3.28989
0
LINE
8
BLACK
6
CONTINUOUS
10
4.90018
20
-3.28989
11
4.90023
21
-3.28993
0
LINE
8
BLACK
6
CONTINUOUS
10
5.29617
20
-3.65924
11
5.29293
21
-3.65707
0
LINE
8
BLACK
6
CONTINUOUS
10
5.29293
20
-3.65707
11
5.06586
21
-3.43
0
LINE
8
BLACK
6
CONTINUOUS
10
5.06586
20
-3.43
11
5.02
21
-3.43
0
LINE
8
BLACK
6
CONTINUOUS
10
5.02
20
-3.43
11
5.02
21
-3.37
0
LINE
8
BLACK
6
CONTINUOUS
10
5.02
20
-3.37
11
5.06586
21
-3.37
0
LINE
8
BLACK
6
CONTINUOUS
10
5.06586
20
-3.37
11
5.25293
21
-3.18293
0
LINE
8
BLACK
6
CONTINUOUS
10
5.25293
20
-3.18293
11
5.25617
21
-3.18076
0
LINE
8
BLACK
6
CONTINUOUS
10
5.25617
20
-3.18076
11
5.26
21
-3.18
0
LINE
8
BLACK
6
CONTINUOUS
10
5.26
20
-3.18
11
5.79
21
-3.18
0
LINE
8
BLACK
6
CONTINUOUS
10
5.79
20
-3.18
11
5.79383
21
-3.18076
0
LINE
8
BLACK
6
CONTINUOUS
10
5.79383
20
-3.18076
11
5.79707
21
-3.18293
0
LINE
8
BLACK
6
CONTINUOUS
10
5.79707
20
-3.18293
11
5.83414
21
-3.22
0
LINE
8
BLACK
6
CONTINUOUS
10
5.83414
20
-3.22
11
5.88
21
-3.22
0
LINE
8
BLACK
6
CONTINUOUS
10
5.88
20
-3.22
11
5.88
21
-3.28
0
LINE
8
BLACK
6
CONTINUOUS
10
5.88
20
-3.28
11
5.82
21
-3.28
0
LINE
8
BLACK
6
CONTINUOUS
10
5.82
20
-3.28
11
5.82
21
-3.23414
0
LINE
8
BLACK
6
CONTINUOUS
10
5.82
20
-3.23414
11
5.78586
21
-3.2
0
LINE
8
BLACK
6
CONTINUOUS
10
5.78586
20
-3.2
11
5.26414
21
-3.2
0
LINE
8
BLACK
6
CONTINUOUS
10
5.26414
20
-3.2
11
5.08
21
-3.38414
0
LINE
8
BLACK
6
CONTINUOUS
10
5.08
20
-3.38414
11
5.08
21
-3.41586
0
LINE
8
BLACK
6
CONTINUOUS
10
5.08
20
-3.41586
11
5.30414
21
-3.64
0
LINE
8
BLACK
6
CONTINUOUS
10
5.30414
20
-3.64
11
5.50586
21
-3.64
0
LINE
8
BLACK
6
CONTINUOUS
10
5.50586
20
-3.64
11
5.53447
21
-3.61139
0
LINE
8
BLACK
6
CONTINUOUS
10
5.53447
20
-3.61139
11
5.53425
21
-3.61
0
LINE
8
BLACK
6
CONTINUOUS
10
5.53425
20
-3.61
11
5.53502
21
-3.60513
0
LINE
8
BLACK
6
CONTINUOUS
10
5.53502
20
-3.60513
11
5.53726
21
-3.60074
0
LINE
8
BLACK
6
CONTINUOUS
10
5.53726
20
-3.60074
11
5.54074
21
-3.59726
0
LINE
8
BLACK
6
CONTINUOUS
10
5.54074
20
-3.59726
11
5.54513
21
-3.59502
0
LINE
8
BLACK
6
CONTINUOUS
10
5.54513
20
-3.59502
11
5.55
21
-3.59425
0
LINE
8
BLACK
6
CONTINUOUS
10
5.55
20
-3.59425
11
5.55487
21
-3.59502
0
LINE
8
BLACK
6
CONTINUOUS
10
5.55487
20
-3.59502
11
5.55926
21
-3.59726
0
LINE
8
BLACK
6
CONTINUOUS
10
5.55926
20
-3.59726
11
5.56274
21
-3.60074
0
LINE
8
BLACK
6
CONTINUOUS
10
5.56274
20
-3.60074
11
5.56498
21
-3.60513
0
LINE
8
BLACK
6
CONTINUOUS
10
5.56498
20
-3.60513
11
5.56575
21
-3.61
0
LINE
8
BLACK
6
CONTINUOUS
10
5.56575
20
-3.61
11
5.56498
21
-3.61487
0
LINE
8
BLACK
6
CONTINUOUS
10
5.56498
20
-3.61487
11
5.56274
21
-3.61926
0
LINE
8
BLACK
6
CONTINUOUS
10
5.56274
20
-3.61926
11
5.55926
21
-3.62274
0
LINE
8
BLACK
6
CONTINUOUS
10
5.55926
20
-3.62274
11
5.55487
21
-3.62498
0
LINE
8
BLACK
6
CONTINUOUS
10
5.55487
20
-3.62498
11
5.55
21
-3.62575
0
LINE
8
BLACK
6
CONTINUOUS
10
5.55
20
-3.62575
11
5.54861
21
-3.62553
0
LINE
8
BLACK
6
CONTINUOUS
10
5.54861
20
-3.62553
11
5.51707
21
-3.65707
0
LINE
8
BLACK
6
CONTINUOUS
10
5.51707
20
-3.65707
11
5.51383
21
-3.65924
0
LINE
8
BLACK
6
CONTINUOUS
10
5.51383
20
-3.65924
11
5.51
21
-3.66
0
LINE
8
BLACK
6
CONTINUOUS
10
5.51
20
-3.66
11
5.3
21
-3.66
0
LINE
8
BLACK
6
CONTINUOUS
10
5.3
20
-3.66
11
5.29617
21
-3.65924
0
LINE
8
BLACK
6
CONTINUOUS
10
5.18487
20
-3.39502
11
5.18926
21
-3.39726
0
LINE
8
BLACK
6
CONTINUOUS
10
5.18926
20
-3.39726
11
5.19274
21
-3.40074
0
LINE
8
BLACK
6
CONTINUOUS
10
5.19274
20
-3.40074
11
5.19498
21
-3.40513
0
LINE
8
BLACK
6
CONTINUOUS
10
5.19498
20
-3.40513
11
5.19575
21
-3.41
0
LINE
8
BLACK
6
CONTINUOUS
10
5.19575
20
-3.41
11
5.19512
21
-3.41398
0
LINE
8
BLACK
6
CONTINUOUS
10
5.19512
20
-3.41398
11
5.22326
21
-3.44213
0
LINE
8
BLACK
6
CONTINUOUS
10
5.22326
20
-3.44213
11
5.53001
21
-3.44213
0
LINE
8
BLACK
6
CONTINUOUS
10
5.53001
20
-3.44213
11
5.5313
21
-3.44242
0
LINE
8
BLACK
6
CONTINUOUS
10
5.5313
20
-3.44242
11
5.5326
21
-3.44257
0
LINE
8
BLACK
6
CONTINUOUS
10
5.5326
20
-3.44257
11
5.53299
21
-3.44281
0
LINE
8
BLACK
6
CONTINUOUS
10
5.53299
20
-3.44281
11
5.53343
21
-3.44291
0
LINE
8
BLACK
6
CONTINUOUS
10
5.53343
20
-3.44291
11
5.53445
21
-3.44373
0
LINE
8
BLACK
6
CONTINUOUS
10
5.53445
20
-3.44373
11
5.53557
21
-3.44443
0
LINE
8
BLACK
6
CONTINUOUS
10
5.53557
20
-3.44443
11
5.63326
21
-3.54213
0
LINE
8
BLACK
6
CONTINUOUS
10
5.63326
20
-3.54213
11
5.72
21
-3.54213
0
LINE
8
BLACK
6
CONTINUOUS
10
5.72
20
-3.54213
11
5.72
21
-3.52
0
LINE
8
BLACK
6
CONTINUOUS
10
5.72
20
-3.52
11
5.78
21
-3.52
0
LINE
8
BLACK
6
CONTINUOUS
10
5.78
20
-3.52
11
5.78
21
-3.58
0
LINE
8
BLACK
6
CONTINUOUS
10
5.78
20
-3.58
11
5.72
21
-3.58
0
LINE
8
BLACK
6
CONTINUOUS
10
5.72
20
-3.58
11
5.72
21
-3.55787
0
LINE
8
BLACK
6
CONTINUOUS
10
5.72
20
-3.55787
11
5.62999
21
-3.55787
0
LINE
8
BLACK
6
CONTINUOUS
10
5.62999
20
-3.55787
11
5.6287
21
-3.55758
0
LINE
8
BLACK
6
CONTINUOUS
10
5.6287
20
-3.55758
11
5.6274
21
-3.55743
0
LINE
8
BLACK
6
CONTINUOUS
10
5.6274
20
-3.55743
11
5.62701
21
-3.55719
0
LINE
8
BLACK
6
CONTINUOUS
10
5.62701
20
-3.55719
11
5.62657
21
-3.55709
0
LINE
8
BLACK
6
CONTINUOUS
10
5.62657
20
-3.55709
11
5.62555
21
-3.55627
0
LINE
8
BLACK
6
CONTINUOUS
10
5.62555
20
-3.55627
11
5.62443
21
-3.55557
0
LINE
8
BLACK
6
CONTINUOUS
10
5.62443
20
-3.55557
11
5.52674
21
-3.45787
0
LINE
8
BLACK
6
CONTINUOUS
10
5.52674
20
-3.45787
11
5.21999
21
-3.45787
0
LINE
8
BLACK
6
CONTINUOUS
10
5.21999
20
-3.45787
11
5.2187
21
-3.45758
0
LINE
8
BLACK
6
CONTINUOUS
10
5.2187
20
-3.45758
11
5.2174
21
-3.45743
0
LINE
8
BLACK
6
CONTINUOUS
10
5.2174
20
-3.45743
11
5.21701
21
-3.45719
0
LINE
8
BLACK
6
CONTINUOUS
10
5.21701
20
-3.45719
11
5.21657
21
-3.45709
0
LINE
8
BLACK
6
CONTINUOUS
10
5.21657
20
-3.45709
11
5.21555
21
-3.45627
0
LINE
8
BLACK
6
CONTINUOUS
10
5.21555
20
-3.45627
11
5.21443
21
-3.45557
0
LINE
8
BLACK
6
CONTINUOUS
10
5.21443
20
-3.45557
11
5.18398
21
-3.42512
0
LINE
8
BLACK
6
CONTINUOUS
10
5.18398
20
-3.42512
11
5.18
21
-3.42575
0
LINE
8
BLACK
6
CONTINUOUS
10
5.18
20
-3.42575
11
5.17513
21
-3.42498
0
LINE
8
BLACK
6
CONTINUOUS
10
5.17513
20
-3.42498
11
5.17074
21
-3.42274
0
LINE
8
BLACK
6
CONTINUOUS
10
5.17074
20
-3.42274
11
5.16726
21
-3.41926
0
LINE
8
BLACK
6
CONTINUOUS
10
5.16726
20
-3.41926
11
5.16502
21
-3.41487
0
LINE
8
BLACK
6
CONTINUOUS
10
5.16502
20
-3.41487
11
5.16425
21
-3.41
0
LINE
8
BLACK
6
CONTINUOUS
10
5.16425
20
-3.41
11
5.16502
21
-3.40513
0
LINE
8
BLACK
6
CONTINUOUS
10
5.16502
20
-3.40513
11
5.16726
21
-3.40074
0
LINE
8
BLACK
6
CONTINUOUS
10
5.16726
20
-3.40074
11
5.17074
21
-3.39726
0
LINE
8
BLACK
6
CONTINUOUS
10
5.17074
20
-3.39726
11
5.17513
21
-3.39502
0
LINE
8
BLACK
6
CONTINUOUS
10
5.17513
20
-3.39502
11
5.18
21
-3.39425
0
LINE
8
BLACK
6
CONTINUOUS
10
5.18
20
-3.39425
11
5.18487
21
-3.39502
0
LINE
8
BLACK
6
CONTINUOUS
10
5.78
20
-3.48
11
5.72
21
-3.48
0
LINE
8
BLACK
6
CONTINUOUS
10
5.72
20
-3.48
11
5.72
21
-3.42
0
LINE
8
BLACK
6
CONTINUOUS
10
5.72
20
-3.42
11
5.78
21
-3.42
0
LINE
8
BLACK
6
CONTINUOUS
10
5.78
20
-3.42
11
5.78
21
-3.48
0
LINE
8
BLACK
6
CONTINUOUS
10
5.88
20
-3.38
11
5.82
21
-3.38
0
LINE
8
BLACK
6
CONTINUOUS
10
5.82
20
-3.38
11
5.82
21
-3.32
0
LINE
8
BLACK
6
CONTINUOUS
10
5.82
20
-3.32
11
5.88
21
-3.32
0
LINE
8
BLACK
6
CONTINUOUS
10
5.88
20
-3.32
11
5.88
21
-3.38
0
LINE
8
BLACK
6
CONTINUOUS
10
5.78
20
-3.38
11
5.72
21
-3.38
0
LINE
8
BLACK
6
CONTINUOUS
10
5.72
20
-3.38
11
5.72
21
-3.32
0
LINE
8
BLACK
6
CONTINUOUS
10
5.72
20
-3.32
11
5.78
21
-3.32
0
LINE
8
BLACK
6
CONTINUOUS
10
5.78
20
-3.32
11
5.78
21
-3.38
0
LINE
8
BLACK
6
CONTINUOUS
10
5.78
20
-3.28
11
5.72
21
-3.28
0
LINE
8
BLACK
6
CONTINUOUS
10
5.72
20
-3.28
11
5.72
21
-3.22
0
LINE
8
BLACK
6
CONTINUOUS
10
5.72
20
-3.22
11
5.78
21
-3.22
0
LINE
8
BLACK
6
CONTINUOUS
10
5.78
20
-3.22
11
5.78
21
-3.28
0
LINE
8
BLACK
6
CONTINUOUS
10
4.98
20
-3.43
11
4.92
21
-3.43
0
LINE
8
BLACK
6
CONTINUOUS
10
4.92
20
-3.43
11
4.92
21
-3.37
0
LINE
8
BLACK
6
CONTINUOUS
10
4.92
20
-3.37
11
4.98
21
-3.37
0
LINE
8
BLACK
6
CONTINUOUS
10
4.98
20
-3.37
11
4.98
21
-3.43
0
CIRCLE
8
BLACK
10
5.55
20
-3.61
40
0.00787402
0
CIRCLE
8
BLACK
10
5.28
20
-3.27
40
0.00787402
0
CIRCLE
8
BLACK
10
5.41
20
-3.53
40
0.00787402
0
CIRCLE
8
BLACK
10
5.18
20
-3.33
40
0.00787402
0
CIRCLE
8
BLACK
10
5.37
20
-3.56
40
0.00787402
0
CIRCLE
8
BLACK
10
5.32
20
-3.27
40
0.00787402
0
CIRCLE
8
BLACK
10
5.33
20
-3.33
40
0.00787402
0
CIRCLE
8
BLACK
10
5.36
20
-3.52
40
0.00787402
0
CIRCLE
8
BLACK
10
5.24
20
-3.27
40
0.00787402
0
CIRCLE
8
BLACK
10
5.41
20
-3.57
40
0.00787402
0
CIRCLE
8
BLACK
10
5.18
20
-3.41
40
0.00787402
  0
ENDSEC
  0
EOF
