  0
SECTION
  2
HEADER
  9
$ANGBASE
  50
0.0
  9
$ANGDIR
  70
1
  9
$MEASUREMENT
  70
0
  0
ENDSEC
  0
SECTION
  2
TABLES
  0
TABLE
  2
LTYPE
  70
4
  0
LTYPE
  5
40F
  2
CONTINUOUS
  70
0
  3
Solid line
  72
65
  73
0
  40
0.0
  0
LTYPE
  5
410
  2
DASHDOT
 70
0
  3
Dash Dot ____ _ ____ _
 72
65
 73
4
 40
2.0
 49
1.25
 49
-0.25
 49
0.25
 49
-0.25
  0
LTYPE
  5
411
  2
DASHED
 70
0
  3
Dashed __ __ __ __ __
 72
65
 73
2
 40
0.75
 49
0.5
 49
-0.25
  0
LTYPE
  5
43B
  2
DOTTED
 70
0
  3
Dotted .  .  .  .
 72
65
 73
2
 40
0.2
 49
0.0
 49
-0.2
  0
ENDTAB
  0
TABLE
  2
STYLE
  70
4
  0
STYLE
  2
KICAD
  70
0
  40
0
  41
1
  42
1
  50
0
  71
0
  3
isocp.shx
  0
STYLE
  2
KICADB
  70
0
  40
0
  41
1
  42
1
  50
0
  71
0
  3
isocp.shx
  0
STYLE
  2
KICADI
  70
0
  40
0
  41
1
  42
1
  50
15
  71
0
  3
isocp.shx
  0
STYLE
  2
KICADBI
  70
0
  40
0
  41
1
  42
1
  50
15
  71
0
  3
isocp.shx
  0
ENDTAB
  0
TABLE
  2
LAYER
  70
1
  0
LAYER
  2
BLACK
  70
0
  62
7
  6
CONTINUOUS
  0
ENDTAB
  0
ENDSEC
  0
SECTION
  2
ENTITIES
0
LINE
8
BLACK
6
CONTINUOUS
10
5.57621
20
-3.6415
11
5.5794
21
-3.64363
0
LINE
8
BLACK
6
CONTINUOUS
10
5.5794
20
-3.64363
11
5.58153
21
-3.64682
0
LINE
8
BLACK
6
CONTINUOUS
10
5.58153
20
-3.64682
11
5.58228
21
-3.65059
0
LINE
8
BLACK
6
CONTINUOUS
10
5.58228
20
-3.65059
11
5.58228
21
-3.68799
0
LINE
8
BLACK
6
CONTINUOUS
10
5.58228
20
-3.68799
11
5.58153
21
-3.69176
0
LINE
8
BLACK
6
CONTINUOUS
10
5.58153
20
-3.69176
11
5.5794
21
-3.69495
0
LINE
8
BLACK
6
CONTINUOUS
10
5.5794
20
-3.69495
11
5.57621
21
-3.69709
0
LINE
8
BLACK
6
CONTINUOUS
10
5.57621
20
-3.69709
11
5.57244
21
-3.69783
0
LINE
8
BLACK
6
CONTINUOUS
10
5.57244
20
-3.69783
11
5.55276
21
-3.69783
0
LINE
8
BLACK
6
CONTINUOUS
10
5.55276
20
-3.69783
11
5.54899
21
-3.69709
0
LINE
8
BLACK
6
CONTINUOUS
10
5.54899
20
-3.69709
11
5.5458
21
-3.69495
0
LINE
8
BLACK
6
CONTINUOUS
10
5.5458
20
-3.69495
11
5.54366
21
-3.69176
0
LINE
8
BLACK
6
CONTINUOUS
10
5.54366
20
-3.69176
11
5.54291
21
-3.68799
0
LINE
8
BLACK
6
CONTINUOUS
10
5.54291
20
-3.68799
11
5.54291
21
-3.65059
0
LINE
8
BLACK
6
CONTINUOUS
10
5.54291
20
-3.65059
11
5.54366
21
-3.64682
0
LINE
8
BLACK
6
CONTINUOUS
10
5.54366
20
-3.64682
11
5.5458
21
-3.64363
0
LINE
8
BLACK
6
CONTINUOUS
10
5.5458
20
-3.64363
11
5.54899
21
-3.6415
0
LINE
8
BLACK
6
CONTINUOUS
10
5.54899
20
-3.6415
11
5.55276
21
-3.64075
0
LINE
8
BLACK
6
CONTINUOUS
10
5.55276
20
-3.64075
11
5.57244
21
-3.64075
0
LINE
8
BLACK
6
CONTINUOUS
10
5.57244
20
-3.64075
11
5.57621
21
-3.6415
0
LINE
8
BLACK
6
CONTINUOUS
10
5.65101
20
-3.6415
11
5.6542
21
-3.64363
0
LINE
8
BLACK
6
CONTINUOUS
10
5.6542
20
-3.64363
11
5.65634
21
-3.64682
0
LINE
8
BLACK
6
CONTINUOUS
10
5.65634
20
-3.64682
11
5.65709
21
-3.65059
0
LINE
8
BLACK
6
CONTINUOUS
10
5.65709
20
-3.65059
11
5.65709
21
-3.68799
0
LINE
8
BLACK
6
CONTINUOUS
10
5.65709
20
-3.68799
11
5.65634
21
-3.69176
0
LINE
8
BLACK
6
CONTINUOUS
10
5.65634
20
-3.69176
11
5.6542
21
-3.69495
0
LINE
8
BLACK
6
CONTINUOUS
10
5.6542
20
-3.69495
11
5.65101
21
-3.69709
0
LINE
8
BLACK
6
CONTINUOUS
10
5.65101
20
-3.69709
11
5.64724
21
-3.69783
0
LINE
8
BLACK
6
CONTINUOUS
10
5.64724
20
-3.69783
11
5.62756
21
-3.69783
0
LINE
8
BLACK
6
CONTINUOUS
10
5.62756
20
-3.69783
11
5.62379
21
-3.69709
0
LINE
8
BLACK
6
CONTINUOUS
10
5.62379
20
-3.69709
11
5.6206
21
-3.69495
0
LINE
8
BLACK
6
CONTINUOUS
10
5.6206
20
-3.69495
11
5.61847
21
-3.69176
0
LINE
8
BLACK
6
CONTINUOUS
10
5.61847
20
-3.69176
11
5.61772
21
-3.68799
0
LINE
8
BLACK
6
CONTINUOUS
10
5.61772
20
-3.68799
11
5.61772
21
-3.65059
0
LINE
8
BLACK
6
CONTINUOUS
10
5.61772
20
-3.65059
11
5.61847
21
-3.64682
0
LINE
8
BLACK
6
CONTINUOUS
10
5.61847
20
-3.64682
11
5.6206
21
-3.64363
0
LINE
8
BLACK
6
CONTINUOUS
10
5.6206
20
-3.64363
11
5.62379
21
-3.6415
0
LINE
8
BLACK
6
CONTINUOUS
10
5.62379
20
-3.6415
11
5.62756
21
-3.64075
0
LINE
8
BLACK
6
CONTINUOUS
10
5.62756
20
-3.64075
11
5.64724
21
-3.64075
0
LINE
8
BLACK
6
CONTINUOUS
10
5.64724
20
-3.64075
11
5.65101
21
-3.6415
0
LINE
8
BLACK
6
CONTINUOUS
10
5.51881
20
-3.55221
11
5.522
21
-3.55434
0
LINE
8
BLACK
6
CONTINUOUS
10
5.522
20
-3.55434
11
5.52413
21
-3.55753
0
LINE
8
BLACK
6
CONTINUOUS
10
5.52413
20
-3.55753
11
5.52488
21
-3.5613
0
LINE
8
BLACK
6
CONTINUOUS
10
5.52488
20
-3.5613
11
5.52488
21
-3.5987
0
LINE
8
BLACK
6
CONTINUOUS
10
5.52488
20
-3.5987
11
5.52413
21
-3.60247
0
LINE
8
BLACK
6
CONTINUOUS
10
5.52413
20
-3.60247
11
5.522
21
-3.60566
0
LINE
8
BLACK
6
CONTINUOUS
10
5.522
20
-3.60566
11
5.51881
21
-3.60779
0
LINE
8
BLACK
6
CONTINUOUS
10
5.51881
20
-3.60779
11
5.51504
21
-3.60854
0
LINE
8
BLACK
6
CONTINUOUS
10
5.51504
20
-3.60854
11
5.49535
21
-3.60854
0
LINE
8
BLACK
6
CONTINUOUS
10
5.49535
20
-3.60854
11
5.49159
21
-3.60779
0
LINE
8
BLACK
6
CONTINUOUS
10
5.49159
20
-3.60779
11
5.48839
21
-3.60566
0
LINE
8
BLACK
6
CONTINUOUS
10
5.48839
20
-3.60566
11
5.48626
21
-3.60247
0
LINE
8
BLACK
6
CONTINUOUS
10
5.48626
20
-3.60247
11
5.48551
21
-3.5987
0
LINE
8
BLACK
6
CONTINUOUS
10
5.48551
20
-3.5987
11
5.48551
21
-3.5613
0
LINE
8
BLACK
6
CONTINUOUS
10
5.48551
20
-3.5613
11
5.48626
21
-3.55753
0
LINE
8
BLACK
6
CONTINUOUS
10
5.48626
20
-3.55753
11
5.48839
21
-3.55434
0
LINE
8
BLACK
6
CONTINUOUS
10
5.48839
20
-3.55434
11
5.49159
21
-3.55221
0
LINE
8
BLACK
6
CONTINUOUS
10
5.49159
20
-3.55221
11
5.49535
21
-3.55146
0
LINE
8
BLACK
6
CONTINUOUS
10
5.49535
20
-3.55146
11
5.51504
21
-3.55146
0
LINE
8
BLACK
6
CONTINUOUS
10
5.51504
20
-3.55146
11
5.51881
21
-3.55221
0
LINE
8
BLACK
6
CONTINUOUS
10
5.59361
20
-3.55221
11
5.5968
21
-3.55434
0
LINE
8
BLACK
6
CONTINUOUS
10
5.5968
20
-3.55434
11
5.59894
21
-3.55753
0
LINE
8
BLACK
6
CONTINUOUS
10
5.59894
20
-3.55753
11
5.59969
21
-3.5613
0
LINE
8
BLACK
6
CONTINUOUS
10
5.59969
20
-3.5613
11
5.59969
21
-3.5987
0
LINE
8
BLACK
6
CONTINUOUS
10
5.59969
20
-3.5987
11
5.59894
21
-3.60247
0
LINE
8
BLACK
6
CONTINUOUS
10
5.59894
20
-3.60247
11
5.5968
21
-3.60566
0
LINE
8
BLACK
6
CONTINUOUS
10
5.5968
20
-3.60566
11
5.59361
21
-3.60779
0
LINE
8
BLACK
6
CONTINUOUS
10
5.59361
20
-3.60779
11
5.58984
21
-3.60854
0
LINE
8
BLACK
6
CONTINUOUS
10
5.58984
20
-3.60854
11
5.57016
21
-3.60854
0
LINE
8
BLACK
6
CONTINUOUS
10
5.57016
20
-3.60854
11
5.56639
21
-3.60779
0
LINE
8
BLACK
6
CONTINUOUS
10
5.56639
20
-3.60779
11
5.5632
21
-3.60566
0
LINE
8
BLACK
6
CONTINUOUS
10
5.5632
20
-3.60566
11
5.56106
21
-3.60247
0
LINE
8
BLACK
6
CONTINUOUS
10
5.56106
20
-3.60247
11
5.56031
21
-3.5987
0
LINE
8
BLACK
6
CONTINUOUS
10
5.56031
20
-3.5987
11
5.56031
21
-3.5613
0
LINE
8
BLACK
6
CONTINUOUS
10
5.56031
20
-3.5613
11
5.56106
21
-3.55753
0
LINE
8
BLACK
6
CONTINUOUS
10
5.56106
20
-3.55753
11
5.5632
21
-3.55434
0
LINE
8
BLACK
6
CONTINUOUS
10
5.5632
20
-3.55434
11
5.56639
21
-3.55221
0
LINE
8
BLACK
6
CONTINUOUS
10
5.56639
20
-3.55221
11
5.57016
21
-3.55146
0
LINE
8
BLACK
6
CONTINUOUS
10
5.57016
20
-3.55146
11
5.58984
21
-3.55146
0
LINE
8
BLACK
6
CONTINUOUS
10
5.58984
20
-3.55146
11
5.59361
21
-3.55221
0
LINE
8
BLACK
6
CONTINUOUS
10
5.3578
20
-3.5078
11
5.29283
21
-3.5078
0
LINE
8
BLACK
6
CONTINUOUS
10
5.29283
20
-3.5078
11
5.29283
21
-3.4822
0
LINE
8
BLACK
6
CONTINUOUS
10
5.29283
20
-3.4822
11
5.3578
21
-3.4822
0
LINE
8
BLACK
6
CONTINUOUS
10
5.3578
20
-3.4822
11
5.3578
21
-3.5078
0
LINE
8
BLACK
6
CONTINUOUS
10
5.64717
20
-3.5078
11
5.5822
21
-3.5078
0
LINE
8
BLACK
6
CONTINUOUS
10
5.5822
20
-3.5078
11
5.5822
21
-3.4822
0
LINE
8
BLACK
6
CONTINUOUS
10
5.5822
20
-3.4822
11
5.64717
21
-3.4822
0
LINE
8
BLACK
6
CONTINUOUS
10
5.64717
20
-3.4822
11
5.64717
21
-3.5078
0
LINE
8
BLACK
6
CONTINUOUS
10
5.3578
20
-3.4578
11
5.29283
21
-3.4578
0
LINE
8
BLACK
6
CONTINUOUS
10
5.29283
20
-3.4578
11
5.29283
21
-3.4322
0
LINE
8
BLACK
6
CONTINUOUS
10
5.29283
20
-3.4322
11
5.3578
21
-3.4322
0
LINE
8
BLACK
6
CONTINUOUS
10
5.3578
20
-3.4322
11
5.3578
21
-3.4578
0
LINE
8
BLACK
6
CONTINUOUS
10
5.64717
20
-3.4578
11
5.5822
21
-3.4578
0
LINE
8
BLACK
6
CONTINUOUS
10
5.5822
20
-3.4578
11
5.5822
21
-3.4322
0
LINE
8
BLACK
6
CONTINUOUS
10
5.5822
20
-3.4322
11
5.64717
21
-3.4322
0
LINE
8
BLACK
6
CONTINUOUS
10
5.64717
20
-3.4322
11
5.64717
21
-3.4578
0
LINE
8
BLACK
6
CONTINUOUS
10
5.3578
20
-3.4078
11
5.29283
21
-3.4078
0
LINE
8
BLACK
6
CONTINUOUS
10
5.29283
20
-3.4078
11
5.29283
21
-3.3822
0
LINE
8
BLACK
6
CONTINUOUS
10
5.29283
20
-3.3822
11
5.3578
21
-3.3822
0
LINE
8
BLACK
6
CONTINUOUS
10
5.3578
20
-3.3822
11
5.3578
21
-3.4078
0
LINE
8
BLACK
6
CONTINUOUS
10
5.64717
20
-3.4078
11
5.5822
21
-3.4078
0
LINE
8
BLACK
6
CONTINUOUS
10
5.5822
20
-3.4078
11
5.5822
21
-3.3822
0
LINE
8
BLACK
6
CONTINUOUS
10
5.5822
20
-3.3822
11
5.64717
21
-3.3822
0
LINE
8
BLACK
6
CONTINUOUS
10
5.64717
20
-3.3822
11
5.64717
21
-3.4078
0
LINE
8
BLACK
6
CONTINUOUS
10
5.94077
20
-3.32555
11
5.94397
21
-3.32769
0
LINE
8
BLACK
6
CONTINUOUS
10
5.94397
20
-3.32769
11
5.9461
21
-3.33088
0
LINE
8
BLACK
6
CONTINUOUS
10
5.9461
20
-3.33088
11
5.94685
21
-3.33465
0
LINE
8
BLACK
6
CONTINUOUS
10
5.94685
20
-3.33465
11
5.94685
21
-3.35827
0
LINE
8
BLACK
6
CONTINUOUS
10
5.94685
20
-3.35827
11
5.9461
21
-3.36203
0
LINE
8
BLACK
6
CONTINUOUS
10
5.9461
20
-3.36203
11
5.94397
21
-3.36523
0
LINE
8
BLACK
6
CONTINUOUS
10
5.94397
20
-3.36523
11
5.94077
21
-3.36736
0
LINE
8
BLACK
6
CONTINUOUS
10
5.94077
20
-3.36736
11
5.93701
21
-3.36811
0
LINE
8
BLACK
6
CONTINUOUS
10
5.93701
20
-3.36811
11
5.91339
21
-3.36811
0
LINE
8
BLACK
6
CONTINUOUS
10
5.91339
20
-3.36811
11
5.90962
21
-3.36736
0
LINE
8
BLACK
6
CONTINUOUS
10
5.90962
20
-3.36736
11
5.90643
21
-3.36523
0
LINE
8
BLACK
6
CONTINUOUS
10
5.90643
20
-3.36523
11
5.90429
21
-3.36203
0
LINE
8
BLACK
6
CONTINUOUS
10
5.90429
20
-3.36203
11
5.90354
21
-3.35827
0
LINE
8
BLACK
6
CONTINUOUS
10
5.90354
20
-3.35827
11
5.90354
21
-3.33465
0
LINE
8
BLACK
6
CONTINUOUS
10
5.90354
20
-3.33465
11
5.90429
21
-3.33088
0
LINE
8
BLACK
6
CONTINUOUS
10
5.90429
20
-3.33088
11
5.90643
21
-3.32769
0
LINE
8
BLACK
6
CONTINUOUS
10
5.90643
20
-3.32769
11
5.90962
21
-3.32555
0
LINE
8
BLACK
6
CONTINUOUS
10
5.90962
20
-3.32555
11
5.91339
21
-3.3248
0
LINE
8
BLACK
6
CONTINUOUS
10
5.91339
20
-3.3248
11
5.93701
21
-3.3248
0
LINE
8
BLACK
6
CONTINUOUS
10
5.93701
20
-3.3248
11
5.94077
21
-3.32555
0
LINE
8
BLACK
6
CONTINUOUS
10
5.3578
20
-3.3578
11
5.29283
21
-3.3578
0
LINE
8
BLACK
6
CONTINUOUS
10
5.29283
20
-3.3578
11
5.29283
21
-3.3322
0
LINE
8
BLACK
6
CONTINUOUS
10
5.29283
20
-3.3322
11
5.3578
21
-3.3322
0
LINE
8
BLACK
6
CONTINUOUS
10
5.3578
20
-3.3322
11
5.3578
21
-3.3578
0
LINE
8
BLACK
6
CONTINUOUS
10
5.64717
20
-3.3578
11
5.5822
21
-3.3578
0
LINE
8
BLACK
6
CONTINUOUS
10
5.5822
20
-3.3578
11
5.5822
21
-3.3322
0
LINE
8
BLACK
6
CONTINUOUS
10
5.5822
20
-3.3322
11
5.64717
21
-3.3322
0
LINE
8
BLACK
6
CONTINUOUS
10
5.64717
20
-3.3322
11
5.64717
21
-3.3578
0
LINE
8
BLACK
6
CONTINUOUS
10
5.94077
20
-3.21532
11
5.94397
21
-3.21745
0
LINE
8
BLACK
6
CONTINUOUS
10
5.94397
20
-3.21745
11
5.9461
21
-3.22064
0
LINE
8
BLACK
6
CONTINUOUS
10
5.9461
20
-3.22064
11
5.94685
21
-3.22441
0
LINE
8
BLACK
6
CONTINUOUS
10
5.94685
20
-3.22441
11
5.94685
21
-3.24803
0
LINE
8
BLACK
6
CONTINUOUS
10
5.94685
20
-3.24803
11
5.9461
21
-3.2518
0
LINE
8
BLACK
6
CONTINUOUS
10
5.9461
20
-3.2518
11
5.94397
21
-3.25499
0
LINE
8
BLACK
6
CONTINUOUS
10
5.94397
20
-3.25499
11
5.94077
21
-3.25712
0
LINE
8
BLACK
6
CONTINUOUS
10
5.94077
20
-3.25712
11
5.93701
21
-3.25787
0
LINE
8
BLACK
6
CONTINUOUS
10
5.93701
20
-3.25787
11
5.91339
21
-3.25787
0
LINE
8
BLACK
6
CONTINUOUS
10
5.91339
20
-3.25787
11
5.90962
21
-3.25712
0
LINE
8
BLACK
6
CONTINUOUS
10
5.90962
20
-3.25712
11
5.90643
21
-3.25499
0
LINE
8
BLACK
6
CONTINUOUS
10
5.90643
20
-3.25499
11
5.90429
21
-3.2518
0
LINE
8
BLACK
6
CONTINUOUS
10
5.90429
20
-3.2518
11
5.90354
21
-3.24803
0
LINE
8
BLACK
6
CONTINUOUS
10
5.90354
20
-3.24803
11
5.90354
21
-3.22441
0
LINE
8
BLACK
6
CONTINUOUS
10
5.90354
20
-3.22441
11
5.90429
21
-3.22064
0
LINE
8
BLACK
6
CONTINUOUS
10
5.90429
20
-3.22064
11
5.90643
21
-3.21745
0
LINE
8
BLACK
6
CONTINUOUS
10
5.90643
20
-3.21745
11
5.90962
21
-3.21532
0
LINE
8
BLACK
6
CONTINUOUS
10
5.90962
20
-3.21532
11
5.91339
21
-3.21457
0
LINE
8
BLACK
6
CONTINUOUS
10
5.91339
20
-3.21457
11
5.93701
21
-3.21457
0
LINE
8
BLACK
6
CONTINUOUS
10
5.93701
20
-3.21457
11
5.94077
21
-3.21532
  0
ENDSEC
  0
EOF
