  0
SECTION
  2
HEADER
  9
$ANGBASE
  50
0.0
  9
$ANGDIR
  70
1
  9
$MEASUREMENT
  70
0
  0
ENDSEC
  0
SECTION
  2
TABLES
  0
TABLE
  2
LTYPE
  70
4
  0
LTYPE
  5
40F
  2
CONTINUOUS
  70
0
  3
Solid line
  72
65
  73
0
  40
0.0
  0
LTYPE
  5
410
  2
DASHDOT
 70
0
  3
Dash Dot ____ _ ____ _
 72
65
 73
4
 40
2.0
 49
1.25
 49
-0.25
 49
0.25
 49
-0.25
  0
LTYPE
  5
411
  2
DASHED
 70
0
  3
Dashed __ __ __ __ __
 72
65
 73
2
 40
0.75
 49
0.5
 49
-0.25
  0
LTYPE
  5
43B
  2
DOTTED
 70
0
  3
Dotted .  .  .  .
 72
65
 73
2
 40
0.2
 49
0.0
 49
-0.2
  0
ENDTAB
  0
TABLE
  2
STYLE
  70
4
  0
STYLE
  2
KICAD
  70
0
  40
0
  41
1
  42
1
  50
0
  71
0
  3
isocp.shx
  0
STYLE
  2
KICADB
  70
0
  40
0
  41
1
  42
1
  50
0
  71
0
  3
isocp.shx
  0
STYLE
  2
KICADI
  70
0
  40
0
  41
1
  42
1
  50
15
  71
0
  3
isocp.shx
  0
STYLE
  2
KICADBI
  70
0
  40
0
  41
1
  42
1
  50
15
  71
0
  3
isocp.shx
  0
ENDTAB
  0
TABLE
  2
LAYER
  70
1
  0
LAYER
  2
BLACK
  70
0
  62
7
  6
CONTINUOUS
  0
ENDTAB
  0
ENDSEC
  0
SECTION
  2
ENTITIES
0
LINE
8
BLACK
6
CONTINUOUS
10
5.61196
20
-3.69656
11
5.61265
21
-3.69823
0
LINE
8
BLACK
6
CONTINUOUS
10
5.61265
20
-3.69823
11
5.61196
21
-3.6999
0
LINE
8
BLACK
6
CONTINUOUS
10
5.61196
20
-3.6999
11
5.61029
21
-3.70059
0
LINE
8
BLACK
6
CONTINUOUS
10
5.61029
20
-3.70059
11
5.58971
21
-3.70059
0
LINE
8
BLACK
6
CONTINUOUS
10
5.58971
20
-3.70059
11
5.58804
21
-3.6999
0
LINE
8
BLACK
6
CONTINUOUS
10
5.58804
20
-3.6999
11
5.58735
21
-3.69823
0
LINE
8
BLACK
6
CONTINUOUS
10
5.58735
20
-3.69823
11
5.58804
21
-3.69656
0
LINE
8
BLACK
6
CONTINUOUS
10
5.58804
20
-3.69656
11
5.58971
21
-3.69587
0
LINE
8
BLACK
6
CONTINUOUS
10
5.58971
20
-3.69587
11
5.61029
21
-3.69587
0
LINE
8
BLACK
6
CONTINUOUS
10
5.61029
20
-3.69587
11
5.61196
21
-3.69656
0
LINE
8
BLACK
6
CONTINUOUS
10
5.6857
20
-3.645
11
5.68587
21
-3.64499
0
LINE
8
BLACK
6
CONTINUOUS
10
5.68587
20
-3.64499
11
5.68656
21
-3.6455
0
LINE
8
BLACK
6
CONTINUOUS
10
5.68656
20
-3.6455
11
5.6873
21
-3.64593
0
LINE
8
BLACK
6
CONTINUOUS
10
5.6873
20
-3.64593
11
5.68736
21
-3.64609
0
LINE
8
BLACK
6
CONTINUOUS
10
5.68736
20
-3.64609
11
5.6875
21
-3.64619
0
LINE
8
BLACK
6
CONTINUOUS
10
5.6875
20
-3.64619
11
5.69108
21
-3.65157
0
LINE
8
BLACK
6
CONTINUOUS
10
5.69108
20
-3.65157
11
5.69429
21
-3.65477
0
LINE
8
BLACK
6
CONTINUOUS
10
5.69429
20
-3.65477
11
5.69761
21
-3.65644
0
LINE
8
BLACK
6
CONTINUOUS
10
5.69761
20
-3.65644
11
5.69843
21
-3.65705
0
LINE
8
BLACK
6
CONTINUOUS
10
5.69843
20
-3.65705
11
5.69924
21
-3.6589
0
LINE
8
BLACK
6
CONTINUOUS
10
5.69924
20
-3.6589
11
5.69866
21
-3.66084
0
LINE
8
BLACK
6
CONTINUOUS
10
5.69866
20
-3.66084
11
5.69697
21
-3.66195
0
LINE
8
BLACK
6
CONTINUOUS
10
5.69697
20
-3.66195
11
5.69497
21
-3.66172
0
LINE
8
BLACK
6
CONTINUOUS
10
5.69497
20
-3.66172
11
5.69122
21
-3.65984
0
LINE
8
BLACK
6
CONTINUOUS
10
5.69122
20
-3.65984
11
5.69051
21
-3.65932
0
LINE
8
BLACK
6
CONTINUOUS
10
5.69051
20
-3.65932
11
5.69045
21
-3.65929
0
LINE
8
BLACK
6
CONTINUOUS
10
5.69045
20
-3.65929
11
5.68799
21
-3.65683
0
LINE
8
BLACK
6
CONTINUOUS
10
5.68799
20
-3.65683
11
5.68799
21
-3.68424
0
LINE
8
BLACK
6
CONTINUOUS
10
5.68799
20
-3.68424
11
5.69629
21
-3.68424
0
LINE
8
BLACK
6
CONTINUOUS
10
5.69629
20
-3.68424
11
5.6973
21
-3.68442
0
LINE
8
BLACK
6
CONTINUOUS
10
5.6973
20
-3.68442
11
5.69885
21
-3.68572
0
LINE
8
BLACK
6
CONTINUOUS
10
5.69885
20
-3.68572
11
5.6992
21
-3.68771
0
LINE
8
BLACK
6
CONTINUOUS
10
5.6992
20
-3.68771
11
5.69819
21
-3.68946
0
LINE
8
BLACK
6
CONTINUOUS
10
5.69819
20
-3.68946
11
5.69629
21
-3.69015
0
LINE
8
BLACK
6
CONTINUOUS
10
5.69629
20
-3.69015
11
5.67379
21
-3.69015
0
LINE
8
BLACK
6
CONTINUOUS
10
5.67379
20
-3.69015
11
5.67278
21
-3.68997
0
LINE
8
BLACK
6
CONTINUOUS
10
5.67278
20
-3.68997
11
5.67123
21
-3.68867
0
LINE
8
BLACK
6
CONTINUOUS
10
5.67123
20
-3.68867
11
5.67088
21
-3.68668
0
LINE
8
BLACK
6
CONTINUOUS
10
5.67088
20
-3.68668
11
5.67189
21
-3.68494
0
LINE
8
BLACK
6
CONTINUOUS
10
5.67189
20
-3.68494
11
5.67379
21
-3.68424
0
LINE
8
BLACK
6
CONTINUOUS
10
5.67379
20
-3.68424
11
5.68209
21
-3.68424
0
LINE
8
BLACK
6
CONTINUOUS
10
5.68209
20
-3.68424
11
5.68209
21
-3.64783
0
LINE
8
BLACK
6
CONTINUOUS
10
5.68209
20
-3.64783
11
5.68226
21
-3.64682
0
LINE
8
BLACK
6
CONTINUOUS
10
5.68226
20
-3.64682
11
5.68237
21
-3.64669
0
LINE
8
BLACK
6
CONTINUOUS
10
5.68237
20
-3.64669
11
5.68239
21
-3.64652
0
LINE
8
BLACK
6
CONTINUOUS
10
5.68239
20
-3.64652
11
5.68301
21
-3.64593
0
LINE
8
BLACK
6
CONTINUOUS
10
5.68301
20
-3.64593
11
5.68356
21
-3.64527
0
LINE
8
BLACK
6
CONTINUOUS
10
5.68356
20
-3.64527
11
5.68373
21
-3.64524
0
LINE
8
BLACK
6
CONTINUOUS
10
5.68373
20
-3.64524
11
5.68385
21
-3.64512
0
LINE
8
BLACK
6
CONTINUOUS
10
5.68385
20
-3.64512
11
5.68471
21
-3.64507
0
LINE
8
BLACK
6
CONTINUOUS
10
5.68471
20
-3.64507
11
5.68555
21
-3.64492
0
LINE
8
BLACK
6
CONTINUOUS
10
5.68555
20
-3.64492
11
5.6857
21
-3.645
0
LINE
8
BLACK
6
CONTINUOUS
10
5.7234
20
-3.64503
11
5.72347
21
-3.64503
0
LINE
8
BLACK
6
CONTINUOUS
10
5.72347
20
-3.64503
11
5.72909
21
-3.6469
0
LINE
8
BLACK
6
CONTINUOUS
10
5.72909
20
-3.6469
11
5.72999
21
-3.64739
0
LINE
8
BLACK
6
CONTINUOUS
10
5.72999
20
-3.64739
11
5.73009
21
-3.64754
0
LINE
8
BLACK
6
CONTINUOUS
10
5.73009
20
-3.64754
11
5.73025
21
-3.64761
0
LINE
8
BLACK
6
CONTINUOUS
10
5.73025
20
-3.64761
11
5.734
21
-3.65136
0
LINE
8
BLACK
6
CONTINUOUS
10
5.734
20
-3.65136
11
5.7345
21
-3.65209
0
LINE
8
BLACK
6
CONTINUOUS
10
5.7345
20
-3.65209
11
5.73455
21
-3.65213
0
LINE
8
BLACK
6
CONTINUOUS
10
5.73455
20
-3.65213
11
5.73642
21
-3.65588
0
LINE
8
BLACK
6
CONTINUOUS
10
5.73642
20
-3.65588
11
5.73657
21
-3.65637
0
LINE
8
BLACK
6
CONTINUOUS
10
5.73657
20
-3.65637
11
5.73665
21
-3.65649
0
LINE
8
BLACK
6
CONTINUOUS
10
5.73665
20
-3.65649
11
5.73852
21
-3.66398
0
LINE
8
BLACK
6
CONTINUOUS
10
5.73852
20
-3.66398
11
5.73856
21
-3.66457
0
LINE
8
BLACK
6
CONTINUOUS
10
5.73856
20
-3.66457
11
5.73861
21
-3.6647
0
LINE
8
BLACK
6
CONTINUOUS
10
5.73861
20
-3.6647
11
5.73861
21
-3.67032
0
LINE
8
BLACK
6
CONTINUOUS
10
5.73861
20
-3.67032
11
5.73851
21
-3.67091
0
LINE
8
BLACK
6
CONTINUOUS
10
5.73851
20
-3.67091
11
5.73852
21
-3.67104
0
LINE
8
BLACK
6
CONTINUOUS
10
5.73852
20
-3.67104
11
5.73665
21
-3.67854
0
LINE
8
BLACK
6
CONTINUOUS
10
5.73665
20
-3.67854
11
5.73644
21
-3.67901
0
LINE
8
BLACK
6
CONTINUOUS
10
5.73644
20
-3.67901
11
5.73642
21
-3.67914
0
LINE
8
BLACK
6
CONTINUOUS
10
5.73642
20
-3.67914
11
5.73455
21
-3.68289
0
LINE
8
BLACK
6
CONTINUOUS
10
5.73455
20
-3.68289
11
5.73402
21
-3.6836
0
LINE
8
BLACK
6
CONTINUOUS
10
5.73402
20
-3.6836
11
5.734
21
-3.68366
0
LINE
8
BLACK
6
CONTINUOUS
10
5.734
20
-3.68366
11
5.73025
21
-3.68741
0
LINE
8
BLACK
6
CONTINUOUS
10
5.73025
20
-3.68741
11
5.72941
21
-3.688
0
LINE
8
BLACK
6
CONTINUOUS
10
5.72941
20
-3.688
11
5.72923
21
-3.68801
0
LINE
8
BLACK
6
CONTINUOUS
10
5.72923
20
-3.68801
11
5.72909
21
-3.68812
0
LINE
8
BLACK
6
CONTINUOUS
10
5.72909
20
-3.68812
11
5.72347
21
-3.69
0
LINE
8
BLACK
6
CONTINUOUS
10
5.72347
20
-3.69
11
5.7226
21
-3.69013
0
LINE
8
BLACK
6
CONTINUOUS
10
5.7226
20
-3.69013
11
5.72253
21
-3.69015
0
LINE
8
BLACK
6
CONTINUOUS
10
5.72253
20
-3.69015
11
5.71879
21
-3.69015
0
LINE
8
BLACK
6
CONTINUOUS
10
5.71879
20
-3.69015
11
5.71792
21
-3.69
0
LINE
8
BLACK
6
CONTINUOUS
10
5.71792
20
-3.69
11
5.71785
21
-3.69
0
LINE
8
BLACK
6
CONTINUOUS
10
5.71785
20
-3.69
11
5.71223
21
-3.68812
0
LINE
8
BLACK
6
CONTINUOUS
10
5.71223
20
-3.68812
11
5.71133
21
-3.68764
0
LINE
8
BLACK
6
CONTINUOUS
10
5.71133
20
-3.68764
11
5.71123
21
-3.68749
0
LINE
8
BLACK
6
CONTINUOUS
10
5.71123
20
-3.68749
11
5.71107
21
-3.68741
0
LINE
8
BLACK
6
CONTINUOUS
10
5.71107
20
-3.68741
11
5.7092
21
-3.68554
0
LINE
8
BLACK
6
CONTINUOUS
10
5.7092
20
-3.68554
11
5.70861
21
-3.6847
0
LINE
8
BLACK
6
CONTINUOUS
10
5.70861
20
-3.6847
11
5.70843
21
-3.68268
0
LINE
8
BLACK
6
CONTINUOUS
10
5.70843
20
-3.68268
11
5.70959
21
-3.68103
0
LINE
8
BLACK
6
CONTINUOUS
10
5.70959
20
-3.68103
11
5.71154
21
-3.68051
0
LINE
8
BLACK
6
CONTINUOUS
10
5.71154
20
-3.68051
11
5.71337
21
-3.68136
0
LINE
8
BLACK
6
CONTINUOUS
10
5.71337
20
-3.68136
11
5.71476
21
-3.68274
0
LINE
8
BLACK
6
CONTINUOUS
10
5.71476
20
-3.68274
11
5.71926
21
-3.68424
0
LINE
8
BLACK
6
CONTINUOUS
10
5.71926
20
-3.68424
11
5.72206
21
-3.68424
0
LINE
8
BLACK
6
CONTINUOUS
10
5.72206
20
-3.68424
11
5.72656
21
-3.68274
0
LINE
8
BLACK
6
CONTINUOUS
10
5.72656
20
-3.68274
11
5.72948
21
-3.67982
0
LINE
8
BLACK
6
CONTINUOUS
10
5.72948
20
-3.67982
11
5.731
21
-3.67679
0
LINE
8
BLACK
6
CONTINUOUS
10
5.731
20
-3.67679
11
5.73271
21
-3.66996
0
LINE
8
BLACK
6
CONTINUOUS
10
5.73271
20
-3.66996
11
5.73271
21
-3.66506
0
LINE
8
BLACK
6
CONTINUOUS
10
5.73271
20
-3.66506
11
5.731
21
-3.65823
0
LINE
8
BLACK
6
CONTINUOUS
10
5.731
20
-3.65823
11
5.72948
21
-3.6552
0
LINE
8
BLACK
6
CONTINUOUS
10
5.72948
20
-3.6552
11
5.72656
21
-3.65228
0
LINE
8
BLACK
6
CONTINUOUS
10
5.72656
20
-3.65228
11
5.72206
21
-3.65078
0
LINE
8
BLACK
6
CONTINUOUS
10
5.72206
20
-3.65078
11
5.71926
21
-3.65078
0
LINE
8
BLACK
6
CONTINUOUS
10
5.71926
20
-3.65078
11
5.71476
21
-3.65228
0
LINE
8
BLACK
6
CONTINUOUS
10
5.71476
20
-3.65228
11
5.71337
21
-3.65366
0
LINE
8
BLACK
6
CONTINUOUS
10
5.71337
20
-3.65366
11
5.71253
21
-3.65425
0
LINE
8
BLACK
6
CONTINUOUS
10
5.71253
20
-3.65425
11
5.71052
21
-3.65443
0
LINE
8
BLACK
6
CONTINUOUS
10
5.71052
20
-3.65443
11
5.70887
21
-3.65327
0
LINE
8
BLACK
6
CONTINUOUS
10
5.70887
20
-3.65327
11
5.70834
21
-3.65132
0
LINE
8
BLACK
6
CONTINUOUS
10
5.70834
20
-3.65132
11
5.7092
21
-3.64949
0
LINE
8
BLACK
6
CONTINUOUS
10
5.7092
20
-3.64949
11
5.71107
21
-3.64761
0
LINE
8
BLACK
6
CONTINUOUS
10
5.71107
20
-3.64761
11
5.71191
21
-3.64703
0
LINE
8
BLACK
6
CONTINUOUS
10
5.71191
20
-3.64703
11
5.71209
21
-3.64701
0
LINE
8
BLACK
6
CONTINUOUS
10
5.71209
20
-3.64701
11
5.71223
21
-3.6469
0
LINE
8
BLACK
6
CONTINUOUS
10
5.71223
20
-3.6469
11
5.71785
21
-3.64503
0
LINE
8
BLACK
6
CONTINUOUS
10
5.71785
20
-3.64503
11
5.71872
21
-3.6449
0
LINE
8
BLACK
6
CONTINUOUS
10
5.71872
20
-3.6449
11
5.71879
21
-3.64487
0
LINE
8
BLACK
6
CONTINUOUS
10
5.71879
20
-3.64487
11
5.72253
21
-3.64487
0
LINE
8
BLACK
6
CONTINUOUS
10
5.72253
20
-3.64487
11
5.7234
21
-3.64503
0
LINE
8
BLACK
6
CONTINUOUS
10
5.61196
20
-3.63868
11
5.61265
21
-3.64035
0
LINE
8
BLACK
6
CONTINUOUS
10
5.61265
20
-3.64035
11
5.61196
21
-3.64202
0
LINE
8
BLACK
6
CONTINUOUS
10
5.61196
20
-3.64202
11
5.61029
21
-3.64272
0
LINE
8
BLACK
6
CONTINUOUS
10
5.61029
20
-3.64272
11
5.58971
21
-3.64272
0
LINE
8
BLACK
6
CONTINUOUS
10
5.58971
20
-3.64272
11
5.58804
21
-3.64202
0
LINE
8
BLACK
6
CONTINUOUS
10
5.58804
20
-3.64202
11
5.58735
21
-3.64035
0
LINE
8
BLACK
6
CONTINUOUS
10
5.58735
20
-3.64035
11
5.58804
21
-3.63868
0
LINE
8
BLACK
6
CONTINUOUS
10
5.58804
20
-3.63868
11
5.58971
21
-3.63799
0
LINE
8
BLACK
6
CONTINUOUS
10
5.58971
20
-3.63799
11
5.61029
21
-3.63799
0
LINE
8
BLACK
6
CONTINUOUS
10
5.61029
20
-3.63799
11
5.61196
21
-3.63868
0
LINE
8
BLACK
6
CONTINUOUS
10
5.55455
20
-3.60727
11
5.55525
21
-3.60894
0
LINE
8
BLACK
6
CONTINUOUS
10
5.55525
20
-3.60894
11
5.55455
21
-3.61061
0
LINE
8
BLACK
6
CONTINUOUS
10
5.55455
20
-3.61061
11
5.55288
21
-3.6113
0
LINE
8
BLACK
6
CONTINUOUS
10
5.55288
20
-3.6113
11
5.53231
21
-3.6113
0
LINE
8
BLACK
6
CONTINUOUS
10
5.53231
20
-3.6113
11
5.53064
21
-3.61061
0
LINE
8
BLACK
6
CONTINUOUS
10
5.53064
20
-3.61061
11
5.52995
21
-3.60894
0
LINE
8
BLACK
6
CONTINUOUS
10
5.52995
20
-3.60894
11
5.53064
21
-3.60727
0
LINE
8
BLACK
6
CONTINUOUS
10
5.53064
20
-3.60727
11
5.53231
21
-3.60657
0
LINE
8
BLACK
6
CONTINUOUS
10
5.53231
20
-3.60657
11
5.55288
21
-3.60657
0
LINE
8
BLACK
6
CONTINUOUS
10
5.55288
20
-3.60657
11
5.55455
21
-3.60727
0
LINE
8
BLACK
6
CONTINUOUS
10
5.62868
20
-3.55576
11
5.62882
21
-3.55587
0
LINE
8
BLACK
6
CONTINUOUS
10
5.62882
20
-3.55587
11
5.62899
21
-3.5559
0
LINE
8
BLACK
6
CONTINUOUS
10
5.62899
20
-3.5559
11
5.63274
21
-3.55777
0
LINE
8
BLACK
6
CONTINUOUS
10
5.63274
20
-3.55777
11
5.63345
21
-3.5583
0
LINE
8
BLACK
6
CONTINUOUS
10
5.63345
20
-3.5583
11
5.63351
21
-3.55832
0
LINE
8
BLACK
6
CONTINUOUS
10
5.63351
20
-3.55832
11
5.63538
21
-3.5602
0
LINE
8
BLACK
6
CONTINUOUS
10
5.63538
20
-3.5602
11
5.63597
21
-3.56104
0
LINE
8
BLACK
6
CONTINUOUS
10
5.63597
20
-3.56104
11
5.63615
21
-3.56305
0
LINE
8
BLACK
6
CONTINUOUS
10
5.63615
20
-3.56305
11
5.63499
21
-3.5647
0
LINE
8
BLACK
6
CONTINUOUS
10
5.63499
20
-3.5647
11
5.63304
21
-3.56523
0
LINE
8
BLACK
6
CONTINUOUS
10
5.63304
20
-3.56523
11
5.63121
21
-3.56437
0
LINE
8
BLACK
6
CONTINUOUS
10
5.63121
20
-3.56437
11
5.62967
21
-3.56284
0
LINE
8
BLACK
6
CONTINUOUS
10
5.62967
20
-3.56284
11
5.62697
21
-3.56149
0
LINE
8
BLACK
6
CONTINUOUS
10
5.62697
20
-3.56149
11
5.61899
21
-3.56149
0
LINE
8
BLACK
6
CONTINUOUS
10
5.61899
20
-3.56149
11
5.6163
21
-3.56284
0
LINE
8
BLACK
6
CONTINUOUS
10
5.6163
20
-3.56284
11
5.6151
21
-3.56403
0
LINE
8
BLACK
6
CONTINUOUS
10
5.6151
20
-3.56403
11
5.61375
21
-3.56673
0
LINE
8
BLACK
6
CONTINUOUS
10
5.61375
20
-3.56673
11
5.61375
21
-3.56931
0
LINE
8
BLACK
6
CONTINUOUS
10
5.61375
20
-3.56931
11
5.61525
21
-3.57381
0
LINE
8
BLACK
6
CONTINUOUS
10
5.61525
20
-3.57381
11
5.63726
21
-3.59582
0
LINE
8
BLACK
6
CONTINUOUS
10
5.63726
20
-3.59582
11
5.63763
21
-3.59635
0
LINE
8
BLACK
6
CONTINUOUS
10
5.63763
20
-3.59635
11
5.63773
21
-3.59643
0
LINE
8
BLACK
6
CONTINUOUS
10
5.63773
20
-3.59643
11
5.63774
21
-3.59651
0
LINE
8
BLACK
6
CONTINUOUS
10
5.63774
20
-3.59651
11
5.63785
21
-3.59666
0
LINE
8
BLACK
6
CONTINUOUS
10
5.63785
20
-3.59666
11
5.63792
21
-3.59754
0
LINE
8
BLACK
6
CONTINUOUS
10
5.63792
20
-3.59754
11
5.63808
21
-3.59842
0
LINE
8
BLACK
6
CONTINUOUS
10
5.63808
20
-3.59842
11
5.63801
21
-3.59854
0
LINE
8
BLACK
6
CONTINUOUS
10
5.63801
20
-3.59854
11
5.63802
21
-3.59867
0
LINE
8
BLACK
6
CONTINUOUS
10
5.63802
20
-3.59867
11
5.63751
21
-3.5994
0
LINE
8
BLACK
6
CONTINUOUS
10
5.63751
20
-3.5994
11
5.63707
21
-3.60017
0
LINE
8
BLACK
6
CONTINUOUS
10
5.63707
20
-3.60017
11
5.63694
21
-3.60021
0
LINE
8
BLACK
6
CONTINUOUS
10
5.63694
20
-3.60021
11
5.63686
21
-3.60033
0
LINE
8
BLACK
6
CONTINUOUS
10
5.63686
20
-3.60033
11
5.63601
21
-3.60056
0
LINE
8
BLACK
6
CONTINUOUS
10
5.63601
20
-3.60056
11
5.63517
21
-3.60086
0
LINE
8
BLACK
6
CONTINUOUS
10
5.63517
20
-3.60086
11
5.6108
21
-3.60086
0
LINE
8
BLACK
6
CONTINUOUS
10
5.6108
20
-3.60086
11
5.60979
21
-3.60068
0
LINE
8
BLACK
6
CONTINUOUS
10
5.60979
20
-3.60068
11
5.60824
21
-3.59938
0
LINE
8
BLACK
6
CONTINUOUS
10
5.60824
20
-3.59938
11
5.60789
21
-3.59739
0
LINE
8
BLACK
6
CONTINUOUS
10
5.60789
20
-3.59739
11
5.6089
21
-3.59564
0
LINE
8
BLACK
6
CONTINUOUS
10
5.6089
20
-3.59564
11
5.6108
21
-3.59495
0
LINE
8
BLACK
6
CONTINUOUS
10
5.6108
20
-3.59495
11
5.62804
21
-3.59495
0
LINE
8
BLACK
6
CONTINUOUS
10
5.62804
20
-3.59495
11
5.61059
21
-3.5775
0
LINE
8
BLACK
6
CONTINUOUS
10
5.61059
20
-3.5775
11
5.61
21
-3.57666
0
LINE
8
BLACK
6
CONTINUOUS
10
5.61
20
-3.57666
11
5.60998
21
-3.57648
0
LINE
8
BLACK
6
CONTINUOUS
10
5.60998
20
-3.57648
11
5.60987
21
-3.57634
0
LINE
8
BLACK
6
CONTINUOUS
10
5.60987
20
-3.57634
11
5.608
21
-3.57072
0
LINE
8
BLACK
6
CONTINUOUS
10
5.608
20
-3.57072
11
5.60787
21
-3.56985
0
LINE
8
BLACK
6
CONTINUOUS
10
5.60787
20
-3.56985
11
5.60785
21
-3.56978
0
LINE
8
BLACK
6
CONTINUOUS
10
5.60785
20
-3.56978
11
5.60785
21
-3.56604
0
LINE
8
BLACK
6
CONTINUOUS
10
5.60785
20
-3.56604
11
5.60802
21
-3.56503
0
LINE
8
BLACK
6
CONTINUOUS
10
5.60802
20
-3.56503
11
5.60814
21
-3.56489
0
LINE
8
BLACK
6
CONTINUOUS
10
5.60814
20
-3.56489
11
5.60816
21
-3.56471
0
LINE
8
BLACK
6
CONTINUOUS
10
5.60816
20
-3.56471
11
5.61003
21
-3.56097
0
LINE
8
BLACK
6
CONTINUOUS
10
5.61003
20
-3.56097
11
5.61056
21
-3.56026
0
LINE
8
BLACK
6
CONTINUOUS
10
5.61056
20
-3.56026
11
5.61059
21
-3.5602
0
LINE
8
BLACK
6
CONTINUOUS
10
5.61059
20
-3.5602
11
5.61246
21
-3.55832
0
LINE
8
BLACK
6
CONTINUOUS
10
5.61246
20
-3.55832
11
5.61318
21
-3.55782
0
LINE
8
BLACK
6
CONTINUOUS
10
5.61318
20
-3.55782
11
5.61323
21
-3.55777
0
LINE
8
BLACK
6
CONTINUOUS
10
5.61323
20
-3.55777
11
5.61698
21
-3.5559
0
LINE
8
BLACK
6
CONTINUOUS
10
5.61698
20
-3.5559
11
5.61796
21
-3.5556
0
LINE
8
BLACK
6
CONTINUOUS
10
5.61796
20
-3.5556
11
5.61813
21
-3.55564
0
LINE
8
BLACK
6
CONTINUOUS
10
5.61813
20
-3.55564
11
5.6183
21
-3.55558
0
LINE
8
BLACK
6
CONTINUOUS
10
5.6183
20
-3.55558
11
5.62767
21
-3.55558
0
LINE
8
BLACK
6
CONTINUOUS
10
5.62767
20
-3.55558
11
5.62868
21
-3.55576
0
LINE
8
BLACK
6
CONTINUOUS
10
5.66041
20
-3.55574
11
5.66048
21
-3.55573
0
LINE
8
BLACK
6
CONTINUOUS
10
5.66048
20
-3.55573
11
5.6661
21
-3.55761
0
LINE
8
BLACK
6
CONTINUOUS
10
5.6661
20
-3.55761
11
5.667
21
-3.5581
0
LINE
8
BLACK
6
CONTINUOUS
10
5.667
20
-3.5581
11
5.66709
21
-3.55825
0
LINE
8
BLACK
6
CONTINUOUS
10
5.66709
20
-3.55825
11
5.66725
21
-3.55832
0
LINE
8
BLACK
6
CONTINUOUS
10
5.66725
20
-3.55832
11
5.671
21
-3.56207
0
LINE
8
BLACK
6
CONTINUOUS
10
5.671
20
-3.56207
11
5.67151
21
-3.5628
0
LINE
8
BLACK
6
CONTINUOUS
10
5.67151
20
-3.5628
11
5.67156
21
-3.56284
0
LINE
8
BLACK
6
CONTINUOUS
10
5.67156
20
-3.56284
11
5.67343
21
-3.56659
0
LINE
8
BLACK
6
CONTINUOUS
10
5.67343
20
-3.56659
11
5.67358
21
-3.56708
0
LINE
8
BLACK
6
CONTINUOUS
10
5.67358
20
-3.56708
11
5.67366
21
-3.56719
0
LINE
8
BLACK
6
CONTINUOUS
10
5.67366
20
-3.56719
11
5.67553
21
-3.57469
0
LINE
8
BLACK
6
CONTINUOUS
10
5.67553
20
-3.57469
11
5.67557
21
-3.57528
0
LINE
8
BLACK
6
CONTINUOUS
10
5.67557
20
-3.57528
11
5.67562
21
-3.57541
0
LINE
8
BLACK
6
CONTINUOUS
10
5.67562
20
-3.57541
11
5.67562
21
-3.58103
0
LINE
8
BLACK
6
CONTINUOUS
10
5.67562
20
-3.58103
11
5.67552
21
-3.58161
0
LINE
8
BLACK
6
CONTINUOUS
10
5.67552
20
-3.58161
11
5.67553
21
-3.58175
0
LINE
8
BLACK
6
CONTINUOUS
10
5.67553
20
-3.58175
11
5.67366
21
-3.58925
0
LINE
8
BLACK
6
CONTINUOUS
10
5.67366
20
-3.58925
11
5.67345
21
-3.58971
0
LINE
8
BLACK
6
CONTINUOUS
10
5.67345
20
-3.58971
11
5.67343
21
-3.58985
0
LINE
8
BLACK
6
CONTINUOUS
10
5.67343
20
-3.58985
11
5.67156
21
-3.5936
0
LINE
8
BLACK
6
CONTINUOUS
10
5.67156
20
-3.5936
11
5.67103
21
-3.59431
0
LINE
8
BLACK
6
CONTINUOUS
10
5.67103
20
-3.59431
11
5.671
21
-3.59437
0
LINE
8
BLACK
6
CONTINUOUS
10
5.671
20
-3.59437
11
5.66725
21
-3.59812
0
LINE
8
BLACK
6
CONTINUOUS
10
5.66725
20
-3.59812
11
5.66641
21
-3.59871
0
LINE
8
BLACK
6
CONTINUOUS
10
5.66641
20
-3.59871
11
5.66624
21
-3.59872
0
LINE
8
BLACK
6
CONTINUOUS
10
5.66624
20
-3.59872
11
5.6661
21
-3.59883
0
LINE
8
BLACK
6
CONTINUOUS
10
5.6661
20
-3.59883
11
5.66048
21
-3.60071
0
LINE
8
BLACK
6
CONTINUOUS
10
5.66048
20
-3.60071
11
5.6596
21
-3.60084
0
LINE
8
BLACK
6
CONTINUOUS
10
5.6596
20
-3.60084
11
5.65954
21
-3.60086
0
LINE
8
BLACK
6
CONTINUOUS
10
5.65954
20
-3.60086
11
5.65579
21
-3.60086
0
LINE
8
BLACK
6
CONTINUOUS
10
5.65579
20
-3.60086
11
5.65492
21
-3.60071
0
LINE
8
BLACK
6
CONTINUOUS
10
5.65492
20
-3.60071
11
5.65486
21
-3.60071
0
LINE
8
BLACK
6
CONTINUOUS
10
5.65486
20
-3.60071
11
5.64923
21
-3.59883
0
LINE
8
BLACK
6
CONTINUOUS
10
5.64923
20
-3.59883
11
5.64833
21
-3.59834
0
LINE
8
BLACK
6
CONTINUOUS
10
5.64833
20
-3.59834
11
5.64824
21
-3.59819
0
LINE
8
BLACK
6
CONTINUOUS
10
5.64824
20
-3.59819
11
5.64808
21
-3.59812
0
LINE
8
BLACK
6
CONTINUOUS
10
5.64808
20
-3.59812
11
5.64621
21
-3.59624
0
LINE
8
BLACK
6
CONTINUOUS
10
5.64621
20
-3.59624
11
5.64562
21
-3.5954
0
LINE
8
BLACK
6
CONTINUOUS
10
5.64562
20
-3.5954
11
5.64544
21
-3.59339
0
LINE
8
BLACK
6
CONTINUOUS
10
5.64544
20
-3.59339
11
5.6466
21
-3.59174
0
LINE
8
BLACK
6
CONTINUOUS
10
5.6466
20
-3.59174
11
5.64855
21
-3.59122
0
LINE
8
BLACK
6
CONTINUOUS
10
5.64855
20
-3.59122
11
5.65038
21
-3.59207
0
LINE
8
BLACK
6
CONTINUOUS
10
5.65038
20
-3.59207
11
5.65176
21
-3.59345
0
LINE
8
BLACK
6
CONTINUOUS
10
5.65176
20
-3.59345
11
5.65627
21
-3.59495
0
LINE
8
BLACK
6
CONTINUOUS
10
5.65627
20
-3.59495
11
5.65906
21
-3.59495
0
LINE
8
BLACK
6
CONTINUOUS
10
5.65906
20
-3.59495
11
5.66357
21
-3.59345
0
LINE
8
BLACK
6
CONTINUOUS
10
5.66357
20
-3.59345
11
5.66649
21
-3.59053
0
LINE
8
BLACK
6
CONTINUOUS
10
5.66649
20
-3.59053
11
5.66801
21
-3.5875
0
LINE
8
BLACK
6
CONTINUOUS
10
5.66801
20
-3.5875
11
5.66971
21
-3.58067
0
LINE
8
BLACK
6
CONTINUOUS
10
5.66971
20
-3.58067
11
5.66971
21
-3.57577
0
LINE
8
BLACK
6
CONTINUOUS
10
5.66971
20
-3.57577
11
5.66801
21
-3.56894
0
LINE
8
BLACK
6
CONTINUOUS
10
5.66801
20
-3.56894
11
5.66649
21
-3.56591
0
LINE
8
BLACK
6
CONTINUOUS
10
5.66649
20
-3.56591
11
5.66357
21
-3.56299
0
LINE
8
BLACK
6
CONTINUOUS
10
5.66357
20
-3.56299
11
5.65906
21
-3.56149
0
LINE
8
BLACK
6
CONTINUOUS
10
5.65906
20
-3.56149
11
5.65627
21
-3.56149
0
LINE
8
BLACK
6
CONTINUOUS
10
5.65627
20
-3.56149
11
5.65176
21
-3.56299
0
LINE
8
BLACK
6
CONTINUOUS
10
5.65176
20
-3.56299
11
5.65038
21
-3.56437
0
LINE
8
BLACK
6
CONTINUOUS
10
5.65038
20
-3.56437
11
5.64954
21
-3.56496
0
LINE
8
BLACK
6
CONTINUOUS
10
5.64954
20
-3.56496
11
5.64753
21
-3.56514
0
LINE
8
BLACK
6
CONTINUOUS
10
5.64753
20
-3.56514
11
5.64588
21
-3.56398
0
LINE
8
BLACK
6
CONTINUOUS
10
5.64588
20
-3.56398
11
5.64535
21
-3.56203
0
LINE
8
BLACK
6
CONTINUOUS
10
5.64535
20
-3.56203
11
5.64621
21
-3.5602
0
LINE
8
BLACK
6
CONTINUOUS
10
5.64621
20
-3.5602
11
5.64808
21
-3.55832
0
LINE
8
BLACK
6
CONTINUOUS
10
5.64808
20
-3.55832
11
5.64892
21
-3.55773
0
LINE
8
BLACK
6
CONTINUOUS
10
5.64892
20
-3.55773
11
5.6491
21
-3.55772
0
LINE
8
BLACK
6
CONTINUOUS
10
5.6491
20
-3.55772
11
5.64923
21
-3.55761
0
LINE
8
BLACK
6
CONTINUOUS
10
5.64923
20
-3.55761
11
5.65486
21
-3.55573
0
LINE
8
BLACK
6
CONTINUOUS
10
5.65486
20
-3.55573
11
5.65573
21
-3.55561
0
LINE
8
BLACK
6
CONTINUOUS
10
5.65573
20
-3.55561
11
5.65579
21
-3.55558
0
LINE
8
BLACK
6
CONTINUOUS
10
5.65579
20
-3.55558
11
5.65954
21
-3.55558
0
LINE
8
BLACK
6
CONTINUOUS
10
5.65954
20
-3.55558
11
5.66041
21
-3.55574
0
LINE
8
BLACK
6
CONTINUOUS
10
5.29838
20
-3.53479
11
5.29974
21
-3.53496
0
LINE
8
BLACK
6
CONTINUOUS
10
5.29974
20
-3.53496
11
5.29977
21
-3.53499
0
LINE
8
BLACK
6
CONTINUOUS
10
5.29977
20
-3.53499
11
5.29982
21
-3.53499
0
LINE
8
BLACK
6
CONTINUOUS
10
5.29982
20
-3.53499
11
5.30085
21
-3.53589
0
LINE
8
BLACK
6
CONTINUOUS
10
5.30085
20
-3.53589
11
5.3019
21
-3.53677
0
LINE
8
BLACK
6
CONTINUOUS
10
5.3019
20
-3.53677
11
5.30639
21
-3.5435
0
LINE
8
BLACK
6
CONTINUOUS
10
5.30639
20
-3.5435
11
5.31023
21
-3.54734
0
LINE
8
BLACK
6
CONTINUOUS
10
5.31023
20
-3.54734
11
5.31426
21
-3.54935
0
LINE
8
BLACK
6
CONTINUOUS
10
5.31426
20
-3.54935
11
5.31543
21
-3.55016
0
LINE
8
BLACK
6
CONTINUOUS
10
5.31543
20
-3.55016
11
5.31687
21
-3.55259
0
LINE
8
BLACK
6
CONTINUOUS
10
5.31687
20
-3.55259
11
5.31677
21
-3.5554
0
LINE
8
BLACK
6
CONTINUOUS
10
5.31677
20
-3.5554
11
5.31517
21
-3.55772
0
LINE
8
BLACK
6
CONTINUOUS
10
5.31517
20
-3.55772
11
5.31256
21
-3.5588
0
LINE
8
BLACK
6
CONTINUOUS
10
5.31256
20
-3.5588
11
5.30979
21
-3.5583
0
LINE
8
BLACK
6
CONTINUOUS
10
5.30979
20
-3.5583
11
5.30503
21
-3.55592
0
LINE
8
BLACK
6
CONTINUOUS
10
5.30503
20
-3.55592
11
5.30386
21
-3.55511
0
LINE
8
BLACK
6
CONTINUOUS
10
5.30386
20
-3.55511
11
5.30381
21
-3.55503
0
LINE
8
BLACK
6
CONTINUOUS
10
5.30381
20
-3.55503
11
5.30373
21
-3.55498
0
LINE
8
BLACK
6
CONTINUOUS
10
5.30373
20
-3.55498
11
5.30274
21
-3.55399
0
LINE
8
BLACK
6
CONTINUOUS
10
5.30274
20
-3.55399
11
5.30274
21
-3.58454
0
LINE
8
BLACK
6
CONTINUOUS
10
5.30274
20
-3.58454
11
5.31203
21
-3.58454
0
LINE
8
BLACK
6
CONTINUOUS
10
5.31203
20
-3.58454
11
5.31344
21
-3.58474
0
LINE
8
BLACK
6
CONTINUOUS
10
5.31344
20
-3.58474
11
5.31581
21
-3.58627
0
LINE
8
BLACK
6
CONTINUOUS
10
5.31581
20
-3.58627
11
5.31698
21
-3.58883
0
LINE
8
BLACK
6
CONTINUOUS
10
5.31698
20
-3.58883
11
5.31657
21
-3.59162
0
LINE
8
BLACK
6
CONTINUOUS
10
5.31657
20
-3.59162
11
5.31473
21
-3.59375
0
LINE
8
BLACK
6
CONTINUOUS
10
5.31473
20
-3.59375
11
5.31203
21
-3.59454
0
LINE
8
BLACK
6
CONTINUOUS
10
5.31203
20
-3.59454
11
5.28346
21
-3.59454
0
LINE
8
BLACK
6
CONTINUOUS
10
5.28346
20
-3.59454
11
5.28205
21
-3.59434
0
LINE
8
BLACK
6
CONTINUOUS
10
5.28205
20
-3.59434
11
5.27968
21
-3.59281
0
LINE
8
BLACK
6
CONTINUOUS
10
5.27968
20
-3.59281
11
5.27851
21
-3.59025
0
LINE
8
BLACK
6
CONTINUOUS
10
5.27851
20
-3.59025
11
5.27891
21
-3.58746
0
LINE
8
BLACK
6
CONTINUOUS
10
5.27891
20
-3.58746
11
5.28075
21
-3.58533
0
LINE
8
BLACK
6
CONTINUOUS
10
5.28075
20
-3.58533
11
5.28346
21
-3.58454
0
LINE
8
BLACK
6
CONTINUOUS
10
5.28346
20
-3.58454
11
5.29274
21
-3.58454
0
LINE
8
BLACK
6
CONTINUOUS
10
5.29274
20
-3.58454
11
5.29274
21
-3.53954
0
LINE
8
BLACK
6
CONTINUOUS
10
5.29274
20
-3.53954
11
5.29292
21
-3.53828
0
LINE
8
BLACK
6
CONTINUOUS
10
5.29292
20
-3.53828
11
5.29292
21
-3.53821
0
LINE
8
BLACK
6
CONTINUOUS
10
5.29292
20
-3.53821
11
5.29294
21
-3.53819
0
LINE
8
BLACK
6
CONTINUOUS
10
5.29294
20
-3.53819
11
5.29294
21
-3.53813
0
LINE
8
BLACK
6
CONTINUOUS
10
5.29294
20
-3.53813
11
5.29368
21
-3.53698
0
LINE
8
BLACK
6
CONTINUOUS
10
5.29368
20
-3.53698
11
5.2944
21
-3.53582
0
LINE
8
BLACK
6
CONTINUOUS
10
5.2944
20
-3.53582
11
5.29444
21
-3.5358
0
LINE
8
BLACK
6
CONTINUOUS
10
5.29444
20
-3.5358
11
5.29447
21
-3.53576
0
LINE
8
BLACK
6
CONTINUOUS
10
5.29447
20
-3.53576
11
5.29571
21
-3.53519
0
LINE
8
BLACK
6
CONTINUOUS
10
5.29571
20
-3.53519
11
5.29695
21
-3.5346
0
LINE
8
BLACK
6
CONTINUOUS
10
5.29695
20
-3.5346
11
5.29699
21
-3.53461
0
LINE
8
BLACK
6
CONTINUOUS
10
5.29699
20
-3.53461
11
5.29703
21
-3.53459
0
LINE
8
BLACK
6
CONTINUOUS
10
5.29703
20
-3.53459
11
5.29838
21
-3.53479
0
LINE
8
BLACK
6
CONTINUOUS
10
5.34677
20
-3.53474
11
5.34685
21
-3.53479
0
LINE
8
BLACK
6
CONTINUOUS
10
5.34685
20
-3.53479
11
5.34694
21
-3.5348
0
LINE
8
BLACK
6
CONTINUOUS
10
5.34694
20
-3.5348
11
5.35408
21
-3.53718
0
LINE
8
BLACK
6
CONTINUOUS
10
5.35408
20
-3.53718
11
5.35536
21
-3.53782
0
LINE
8
BLACK
6
CONTINUOUS
10
5.35536
20
-3.53782
11
5.35564
21
-3.53817
0
LINE
8
BLACK
6
CONTINUOUS
10
5.35564
20
-3.53817
11
5.35604
21
-3.53839
0
LINE
8
BLACK
6
CONTINUOUS
10
5.35604
20
-3.53839
11
5.3608
21
-3.54315
0
LINE
8
BLACK
6
CONTINUOUS
10
5.3608
20
-3.54315
11
5.36165
21
-3.54429
0
LINE
8
BLACK
6
CONTINUOUS
10
5.36165
20
-3.54429
11
5.36167
21
-3.54438
0
LINE
8
BLACK
6
CONTINUOUS
10
5.36167
20
-3.54438
11
5.36174
21
-3.54445
0
LINE
8
BLACK
6
CONTINUOUS
10
5.36174
20
-3.54445
11
5.36412
21
-3.54921
0
LINE
8
BLACK
6
CONTINUOUS
10
5.36412
20
-3.54921
11
5.36441
21
-3.55008
0
LINE
8
BLACK
6
CONTINUOUS
10
5.36441
20
-3.55008
11
5.3645
21
-3.55023
0
LINE
8
BLACK
6
CONTINUOUS
10
5.3645
20
-3.55023
11
5.36688
21
-3.55976
0
LINE
8
BLACK
6
CONTINUOUS
10
5.36688
20
-3.55976
11
5.36699
21
-3.56084
0
LINE
8
BLACK
6
CONTINUOUS
10
5.36699
20
-3.56084
11
5.36703
21
-3.56097
0
LINE
8
BLACK
6
CONTINUOUS
10
5.36703
20
-3.56097
11
5.36703
21
-3.56811
0
LINE
8
BLACK
6
CONTINUOUS
10
5.36703
20
-3.56811
11
5.36687
21
-3.56919
0
LINE
8
BLACK
6
CONTINUOUS
10
5.36687
20
-3.56919
11
5.36688
21
-3.56932
0
LINE
8
BLACK
6
CONTINUOUS
10
5.36688
20
-3.56932
11
5.3645
21
-3.57885
0
LINE
8
BLACK
6
CONTINUOUS
10
5.3645
20
-3.57885
11
5.36415
21
-3.5797
0
LINE
8
BLACK
6
CONTINUOUS
10
5.36415
20
-3.5797
11
5.36412
21
-3.57987
0
LINE
8
BLACK
6
CONTINUOUS
10
5.36412
20
-3.57987
11
5.36174
21
-3.58463
0
LINE
8
BLACK
6
CONTINUOUS
10
5.36174
20
-3.58463
11
5.36093
21
-3.5858
0
LINE
8
BLACK
6
CONTINUOUS
10
5.36093
20
-3.5858
11
5.36085
21
-3.58585
0
LINE
8
BLACK
6
CONTINUOUS
10
5.36085
20
-3.58585
11
5.3608
21
-3.58593
0
LINE
8
BLACK
6
CONTINUOUS
10
5.3608
20
-3.58593
11
5.35604
21
-3.59069
0
LINE
8
BLACK
6
CONTINUOUS
10
5.35604
20
-3.59069
11
5.3549
21
-3.59155
0
LINE
8
BLACK
6
CONTINUOUS
10
5.3549
20
-3.59155
11
5.35446
21
-3.59164
0
LINE
8
BLACK
6
CONTINUOUS
10
5.35446
20
-3.59164
11
5.35408
21
-3.5919
0
LINE
8
BLACK
6
CONTINUOUS
10
5.35408
20
-3.5919
11
5.34694
21
-3.59428
0
LINE
8
BLACK
6
CONTINUOUS
10
5.34694
20
-3.59428
11
5.34554
21
-3.59454
0
LINE
8
BLACK
6
CONTINUOUS
10
5.34554
20
-3.59454
11
5.34545
21
-3.59451
0
LINE
8
BLACK
6
CONTINUOUS
10
5.34545
20
-3.59451
11
5.34536
21
-3.59454
0
LINE
8
BLACK
6
CONTINUOUS
10
5.34536
20
-3.59454
11
5.3406
21
-3.59454
0
LINE
8
BLACK
6
CONTINUOUS
10
5.3406
20
-3.59454
11
5.33919
21
-3.59434
0
LINE
8
BLACK
6
CONTINUOUS
10
5.33919
20
-3.59434
11
5.33911
21
-3.59429
0
LINE
8
BLACK
6
CONTINUOUS
10
5.33911
20
-3.59429
11
5.33902
21
-3.59428
0
LINE
8
BLACK
6
CONTINUOUS
10
5.33902
20
-3.59428
11
5.33187
21
-3.5919
0
LINE
8
BLACK
6
CONTINUOUS
10
5.33187
20
-3.5919
11
5.3306
21
-3.59126
0
LINE
8
BLACK
6
CONTINUOUS
10
5.3306
20
-3.59126
11
5.33032
21
-3.59091
0
LINE
8
BLACK
6
CONTINUOUS
10
5.33032
20
-3.59091
11
5.32992
21
-3.59069
0
LINE
8
BLACK
6
CONTINUOUS
10
5.32992
20
-3.59069
11
5.32754
21
-3.58831
0
LINE
8
BLACK
6
CONTINUOUS
10
5.32754
20
-3.58831
11
5.32669
21
-3.58717
0
LINE
8
BLACK
6
CONTINUOUS
10
5.32669
20
-3.58717
11
5.32609
21
-3.58442
0
LINE
8
BLACK
6
CONTINUOUS
10
5.32609
20
-3.58442
11
5.32707
21
-3.58178
0
LINE
8
BLACK
6
CONTINUOUS
10
5.32707
20
-3.58178
11
5.32933
21
-3.58009
0
LINE
8
BLACK
6
CONTINUOUS
10
5.32933
20
-3.58009
11
5.33214
21
-3.57989
0
LINE
8
BLACK
6
CONTINUOUS
10
5.33214
20
-3.57989
11
5.33461
21
-3.58124
0
LINE
8
BLACK
6
CONTINUOUS
10
5.33461
20
-3.58124
11
5.33616
21
-3.58279
0
LINE
8
BLACK
6
CONTINUOUS
10
5.33616
20
-3.58279
11
5.34141
21
-3.58454
0
LINE
8
BLACK
6
CONTINUOUS
10
5.34141
20
-3.58454
11
5.34455
21
-3.58454
0
LINE
8
BLACK
6
CONTINUOUS
10
5.34455
20
-3.58454
11
5.3498
21
-3.58279
0
LINE
8
BLACK
6
CONTINUOUS
10
5.3498
20
-3.58279
11
5.35316
21
-3.57944
0
LINE
8
BLACK
6
CONTINUOUS
10
5.35316
20
-3.57944
11
5.35493
21
-3.57589
0
LINE
8
BLACK
6
CONTINUOUS
10
5.35493
20
-3.57589
11
5.35703
21
-3.5675
0
LINE
8
BLACK
6
CONTINUOUS
10
5.35703
20
-3.5675
11
5.35703
21
-3.56158
0
LINE
8
BLACK
6
CONTINUOUS
10
5.35703
20
-3.56158
11
5.35493
21
-3.55319
0
LINE
8
BLACK
6
CONTINUOUS
10
5.35493
20
-3.55319
11
5.35316
21
-3.54964
0
LINE
8
BLACK
6
CONTINUOUS
10
5.35316
20
-3.54964
11
5.3498
21
-3.54629
0
LINE
8
BLACK
6
CONTINUOUS
10
5.3498
20
-3.54629
11
5.34455
21
-3.54454
0
LINE
8
BLACK
6
CONTINUOUS
10
5.34455
20
-3.54454
11
5.34141
21
-3.54454
0
LINE
8
BLACK
6
CONTINUOUS
10
5.34141
20
-3.54454
11
5.33616
21
-3.54629
0
LINE
8
BLACK
6
CONTINUOUS
10
5.33616
20
-3.54629
11
5.33461
21
-3.54784
0
LINE
8
BLACK
6
CONTINUOUS
10
5.33461
20
-3.54784
11
5.33347
21
-3.54869
0
LINE
8
BLACK
6
CONTINUOUS
10
5.33347
20
-3.54869
11
5.33072
21
-3.54929
0
LINE
8
BLACK
6
CONTINUOUS
10
5.33072
20
-3.54929
11
5.32808
21
-3.5483
0
LINE
8
BLACK
6
CONTINUOUS
10
5.32808
20
-3.5483
11
5.32639
21
-3.54605
0
LINE
8
BLACK
6
CONTINUOUS
10
5.32639
20
-3.54605
11
5.32619
21
-3.54324
0
LINE
8
BLACK
6
CONTINUOUS
10
5.32619
20
-3.54324
11
5.32754
21
-3.54077
0
LINE
8
BLACK
6
CONTINUOUS
10
5.32754
20
-3.54077
11
5.32992
21
-3.53839
0
LINE
8
BLACK
6
CONTINUOUS
10
5.32992
20
-3.53839
11
5.33106
21
-3.53753
0
LINE
8
BLACK
6
CONTINUOUS
10
5.33106
20
-3.53753
11
5.3315
21
-3.53744
0
LINE
8
BLACK
6
CONTINUOUS
10
5.3315
20
-3.53744
11
5.33187
21
-3.53718
0
LINE
8
BLACK
6
CONTINUOUS
10
5.33187
20
-3.53718
11
5.33902
21
-3.5348
0
LINE
8
BLACK
6
CONTINUOUS
10
5.33902
20
-3.5348
11
5.34042
21
-3.53454
0
LINE
8
BLACK
6
CONTINUOUS
10
5.34042
20
-3.53454
11
5.34051
21
-3.53457
0
LINE
8
BLACK
6
CONTINUOUS
10
5.34051
20
-3.53457
11
5.3406
21
-3.53454
0
LINE
8
BLACK
6
CONTINUOUS
10
5.3406
20
-3.53454
11
5.34536
21
-3.53454
0
LINE
8
BLACK
6
CONTINUOUS
10
5.34536
20
-3.53454
11
5.34677
21
-3.53474
0
LINE
8
BLACK
6
CONTINUOUS
10
5.38553
20
-3.53499
11
5.38766
21
-3.53684
0
LINE
8
BLACK
6
CONTINUOUS
10
5.38766
20
-3.53684
11
5.38846
21
-3.53954
0
LINE
8
BLACK
6
CONTINUOUS
10
5.38846
20
-3.53954
11
5.38846
21
-3.58954
0
LINE
8
BLACK
6
CONTINUOUS
10
5.38846
20
-3.58954
11
5.38825
21
-3.59095
0
LINE
8
BLACK
6
CONTINUOUS
10
5.38825
20
-3.59095
11
5.38673
21
-3.59332
0
LINE
8
BLACK
6
CONTINUOUS
10
5.38673
20
-3.59332
11
5.38417
21
-3.59449
0
LINE
8
BLACK
6
CONTINUOUS
10
5.38417
20
-3.59449
11
5.38138
21
-3.59409
0
LINE
8
BLACK
6
CONTINUOUS
10
5.38138
20
-3.59409
11
5.37925
21
-3.59224
0
LINE
8
BLACK
6
CONTINUOUS
10
5.37925
20
-3.59224
11
5.37846
21
-3.58954
0
LINE
8
BLACK
6
CONTINUOUS
10
5.37846
20
-3.58954
11
5.37846
21
-3.53954
0
LINE
8
BLACK
6
CONTINUOUS
10
5.37846
20
-3.53954
11
5.37866
21
-3.53813
0
LINE
8
BLACK
6
CONTINUOUS
10
5.37866
20
-3.53813
11
5.38018
21
-3.53576
0
LINE
8
BLACK
6
CONTINUOUS
10
5.38018
20
-3.53576
11
5.38274
21
-3.53459
0
LINE
8
BLACK
6
CONTINUOUS
10
5.38274
20
-3.53459
11
5.38553
21
-3.53499
0
LINE
8
BLACK
6
CONTINUOUS
10
5.55455
20
-3.54939
11
5.55525
21
-3.55106
0
LINE
8
BLACK
6
CONTINUOUS
10
5.55525
20
-3.55106
11
5.55455
21
-3.55273
0
LINE
8
BLACK
6
CONTINUOUS
10
5.55455
20
-3.55273
11
5.55288
21
-3.55343
0
LINE
8
BLACK
6
CONTINUOUS
10
5.55288
20
-3.55343
11
5.53231
21
-3.55343
0
LINE
8
BLACK
6
CONTINUOUS
10
5.53231
20
-3.55343
11
5.53064
21
-3.55273
0
LINE
8
BLACK
6
CONTINUOUS
10
5.53064
20
-3.55273
11
5.52995
21
-3.55106
0
LINE
8
BLACK
6
CONTINUOUS
10
5.52995
20
-3.55106
11
5.53064
21
-3.54939
0
LINE
8
BLACK
6
CONTINUOUS
10
5.53064
20
-3.54939
11
5.53231
21
-3.5487
0
LINE
8
BLACK
6
CONTINUOUS
10
5.53231
20
-3.5487
11
5.55288
21
-3.5487
0
LINE
8
BLACK
6
CONTINUOUS
10
5.55288
20
-3.5487
11
5.55455
21
-3.54939
0
LINE
8
BLACK
6
CONTINUOUS
10
5.56902
20
-3.3133
11
5.56964
21
-3.3133
0
LINE
8
BLACK
6
CONTINUOUS
10
5.56964
20
-3.3133
11
5.57015
21
-3.31367
0
LINE
8
BLACK
6
CONTINUOUS
10
5.57015
20
-3.31367
11
5.57074
21
-3.31386
0
LINE
8
BLACK
6
CONTINUOUS
10
5.57074
20
-3.31386
11
5.57111
21
-3.31437
0
LINE
8
BLACK
6
CONTINUOUS
10
5.57111
20
-3.31437
11
5.57161
21
-3.31473
0
LINE
8
BLACK
6
CONTINUOUS
10
5.57161
20
-3.31473
11
5.5718
21
-3.31533
0
LINE
8
BLACK
6
CONTINUOUS
10
5.5718
20
-3.31533
11
5.57217
21
-3.31583
0
LINE
8
BLACK
6
CONTINUOUS
10
5.57217
20
-3.31583
11
5.57217
21
-3.31645
0
LINE
8
BLACK
6
CONTINUOUS
10
5.57217
20
-3.31645
11
5.57236
21
-3.31705
0
LINE
8
BLACK
6
CONTINUOUS
10
5.57236
20
-3.31705
11
5.57236
21
-3.52295
0
LINE
8
BLACK
6
CONTINUOUS
10
5.57236
20
-3.52295
11
5.57217
21
-3.52355
0
LINE
8
BLACK
6
CONTINUOUS
10
5.57217
20
-3.52355
11
5.57217
21
-3.52417
0
LINE
8
BLACK
6
CONTINUOUS
10
5.57217
20
-3.52417
11
5.5718
21
-3.52467
0
LINE
8
BLACK
6
CONTINUOUS
10
5.5718
20
-3.52467
11
5.57161
21
-3.52527
0
LINE
8
BLACK
6
CONTINUOUS
10
5.57161
20
-3.52527
11
5.57111
21
-3.52563
0
LINE
8
BLACK
6
CONTINUOUS
10
5.57111
20
-3.52563
11
5.57074
21
-3.52614
0
LINE
8
BLACK
6
CONTINUOUS
10
5.57074
20
-3.52614
11
5.57015
21
-3.52633
0
LINE
8
BLACK
6
CONTINUOUS
10
5.57015
20
-3.52633
11
5.56964
21
-3.5267
0
LINE
8
BLACK
6
CONTINUOUS
10
5.56964
20
-3.5267
11
5.56902
21
-3.5267
0
LINE
8
BLACK
6
CONTINUOUS
10
5.56902
20
-3.5267
11
5.56843
21
-3.52689
0
LINE
8
BLACK
6
CONTINUOUS
10
5.56843
20
-3.52689
11
5.37157
21
-3.52689
0
LINE
8
BLACK
6
CONTINUOUS
10
5.37157
20
-3.52689
11
5.37098
21
-3.5267
0
LINE
8
BLACK
6
CONTINUOUS
10
5.37098
20
-3.5267
11
5.37036
21
-3.5267
0
LINE
8
BLACK
6
CONTINUOUS
10
5.37036
20
-3.5267
11
5.36985
21
-3.52633
0
LINE
8
BLACK
6
CONTINUOUS
10
5.36985
20
-3.52633
11
5.36926
21
-3.52614
0
LINE
8
BLACK
6
CONTINUOUS
10
5.36926
20
-3.52614
11
5.36889
21
-3.52563
0
LINE
8
BLACK
6
CONTINUOUS
10
5.36889
20
-3.52563
11
5.36839
21
-3.52527
0
LINE
8
BLACK
6
CONTINUOUS
10
5.36839
20
-3.52527
11
5.3682
21
-3.52467
0
LINE
8
BLACK
6
CONTINUOUS
10
5.3682
20
-3.52467
11
5.36783
21
-3.52417
0
LINE
8
BLACK
6
CONTINUOUS
10
5.36783
20
-3.52417
11
5.36783
21
-3.52355
0
LINE
8
BLACK
6
CONTINUOUS
10
5.36783
20
-3.52355
11
5.36764
21
-3.52295
0
LINE
8
BLACK
6
CONTINUOUS
10
5.36764
20
-3.52295
11
5.36764
21
-3.31705
0
LINE
8
BLACK
6
CONTINUOUS
10
5.36764
20
-3.31705
11
5.36783
21
-3.31645
0
LINE
8
BLACK
6
CONTINUOUS
10
5.36783
20
-3.31645
11
5.36783
21
-3.31583
0
LINE
8
BLACK
6
CONTINUOUS
10
5.36783
20
-3.31583
11
5.3682
21
-3.31533
0
LINE
8
BLACK
6
CONTINUOUS
10
5.3682
20
-3.31533
11
5.36839
21
-3.31473
0
LINE
8
BLACK
6
CONTINUOUS
10
5.36839
20
-3.31473
11
5.36889
21
-3.31437
0
LINE
8
BLACK
6
CONTINUOUS
10
5.36889
20
-3.31437
11
5.36926
21
-3.31386
0
LINE
8
BLACK
6
CONTINUOUS
10
5.36926
20
-3.31386
11
5.36985
21
-3.31367
0
LINE
8
BLACK
6
CONTINUOUS
10
5.36985
20
-3.31367
11
5.37036
21
-3.3133
0
LINE
8
BLACK
6
CONTINUOUS
10
5.37036
20
-3.3133
11
5.37098
21
-3.3133
0
LINE
8
BLACK
6
CONTINUOUS
10
5.37098
20
-3.3133
11
5.37157
21
-3.31311
0
LINE
8
BLACK
6
CONTINUOUS
10
5.37157
20
-3.31311
11
5.56843
21
-3.31311
0
LINE
8
BLACK
6
CONTINUOUS
10
5.56843
20
-3.31311
11
5.56902
21
-3.3133
0
LINE
8
BLACK
6
CONTINUOUS
10
5.37551
20
-3.32098
11
5.37551
21
-3.51902
0
LINE
8
BLACK
6
CONTINUOUS
10
5.37551
20
-3.51902
11
5.56449
21
-3.51902
0
LINE
8
BLACK
6
CONTINUOUS
10
5.56449
20
-3.51902
11
5.56449
21
-3.32098
0
LINE
8
BLACK
6
CONTINUOUS
10
5.56449
20
-3.32098
11
5.37551
21
-3.32098
0
LINE
8
BLACK
6
CONTINUOUS
10
5.36011
20
-3.51839
11
5.36154
21
-3.52036
0
LINE
8
BLACK
6
CONTINUOUS
10
5.36154
20
-3.52036
11
5.36154
21
-3.52279
0
LINE
8
BLACK
6
CONTINUOUS
10
5.36154
20
-3.52279
11
5.36011
21
-3.52476
0
LINE
8
BLACK
6
CONTINUOUS
10
5.36011
20
-3.52476
11
5.3578
21
-3.52551
0
LINE
8
BLACK
6
CONTINUOUS
10
5.3578
20
-3.52551
11
5.29283
21
-3.52551
0
LINE
8
BLACK
6
CONTINUOUS
10
5.29283
20
-3.52551
11
5.29052
21
-3.52476
0
LINE
8
BLACK
6
CONTINUOUS
10
5.29052
20
-3.52476
11
5.28909
21
-3.52279
0
LINE
8
BLACK
6
CONTINUOUS
10
5.28909
20
-3.52279
11
5.28909
21
-3.52036
0
LINE
8
BLACK
6
CONTINUOUS
10
5.28909
20
-3.52036
11
5.29052
21
-3.51839
0
LINE
8
BLACK
6
CONTINUOUS
10
5.29052
20
-3.51839
11
5.29283
21
-3.51764
0
LINE
8
BLACK
6
CONTINUOUS
10
5.29283
20
-3.51764
11
5.3578
21
-3.51764
0
LINE
8
BLACK
6
CONTINUOUS
10
5.3578
20
-3.51764
11
5.36011
21
-3.51839
0
LINE
8
BLACK
6
CONTINUOUS
10
5.96624
20
-3.22471
11
5.96693
21
-3.22638
0
LINE
8
BLACK
6
CONTINUOUS
10
5.96693
20
-3.22638
11
5.96693
21
-3.37835
0
LINE
8
BLACK
6
CONTINUOUS
10
5.96693
20
-3.37835
11
5.96624
21
-3.38002
0
LINE
8
BLACK
6
CONTINUOUS
10
5.96624
20
-3.38002
11
5.96457
21
-3.38071
0
LINE
8
BLACK
6
CONTINUOUS
10
5.96457
20
-3.38071
11
5.88583
21
-3.38071
0
LINE
8
BLACK
6
CONTINUOUS
10
5.88583
20
-3.38071
11
5.88416
21
-3.38002
0
LINE
8
BLACK
6
CONTINUOUS
10
5.88416
20
-3.38002
11
5.88346
21
-3.37835
0
LINE
8
BLACK
6
CONTINUOUS
10
5.88346
20
-3.37835
11
5.88346
21
-3.22638
0
LINE
8
BLACK
6
CONTINUOUS
10
5.88346
20
-3.22638
11
5.88416
21
-3.22471
0
LINE
8
BLACK
6
CONTINUOUS
10
5.88416
20
-3.22471
11
5.88583
21
-3.22402
0
LINE
8
BLACK
6
CONTINUOUS
10
5.88583
20
-3.22402
11
5.8875
21
-3.22471
0
LINE
8
BLACK
6
CONTINUOUS
10
5.8875
20
-3.22471
11
5.88819
21
-3.22638
0
LINE
8
BLACK
6
CONTINUOUS
10
5.88819
20
-3.22638
11
5.88819
21
-3.37598
0
LINE
8
BLACK
6
CONTINUOUS
10
5.88819
20
-3.37598
11
5.9622
21
-3.37598
0
LINE
8
BLACK
6
CONTINUOUS
10
5.9622
20
-3.37598
11
5.9622
21
-3.22638
0
LINE
8
BLACK
6
CONTINUOUS
10
5.9622
20
-3.22638
11
5.9629
21
-3.22471
0
LINE
8
BLACK
6
CONTINUOUS
10
5.9629
20
-3.22471
11
5.96457
21
-3.22402
0
LINE
8
BLACK
6
CONTINUOUS
10
5.96457
20
-3.22402
11
5.96624
21
-3.22471
0
LINE
8
BLACK
6
CONTINUOUS
10
5.90223
20
-3.15288
11
5.9024
21
-3.15287
0
LINE
8
BLACK
6
CONTINUOUS
10
5.9024
20
-3.15287
11
5.90309
21
-3.15338
0
LINE
8
BLACK
6
CONTINUOUS
10
5.90309
20
-3.15338
11
5.90384
21
-3.1538
0
LINE
8
BLACK
6
CONTINUOUS
10
5.90384
20
-3.1538
11
5.90389
21
-3.15396
0
LINE
8
BLACK
6
CONTINUOUS
10
5.90389
20
-3.15396
11
5.90403
21
-3.15406
0
LINE
8
BLACK
6
CONTINUOUS
10
5.90403
20
-3.15406
11
5.90762
21
-3.15944
0
LINE
8
BLACK
6
CONTINUOUS
10
5.90762
20
-3.15944
11
5.91082
21
-3.16265
0
LINE
8
BLACK
6
CONTINUOUS
10
5.91082
20
-3.16265
11
5.91414
21
-3.16431
0
LINE
8
BLACK
6
CONTINUOUS
10
5.91414
20
-3.16431
11
5.91497
21
-3.16492
0
LINE
8
BLACK
6
CONTINUOUS
10
5.91497
20
-3.16492
11
5.91577
21
-3.16677
0
LINE
8
BLACK
6
CONTINUOUS
10
5.91577
20
-3.16677
11
5.91519
21
-3.16871
0
LINE
8
BLACK
6
CONTINUOUS
10
5.91519
20
-3.16871
11
5.91351
21
-3.16982
0
LINE
8
BLACK
6
CONTINUOUS
10
5.91351
20
-3.16982
11
5.9115
21
-3.16959
0
LINE
8
BLACK
6
CONTINUOUS
10
5.9115
20
-3.16959
11
5.90775
21
-3.16772
0
LINE
8
BLACK
6
CONTINUOUS
10
5.90775
20
-3.16772
11
5.90704
21
-3.16719
0
LINE
8
BLACK
6
CONTINUOUS
10
5.90704
20
-3.16719
11
5.90699
21
-3.16716
0
LINE
8
BLACK
6
CONTINUOUS
10
5.90699
20
-3.16716
11
5.90453
21
-3.1647
0
LINE
8
BLACK
6
CONTINUOUS
10
5.90453
20
-3.1647
11
5.90453
21
-3.19212
0
LINE
8
BLACK
6
CONTINUOUS
10
5.90453
20
-3.19212
11
5.91282
21
-3.19212
0
LINE
8
BLACK
6
CONTINUOUS
10
5.91282
20
-3.19212
11
5.91383
21
-3.1923
0
LINE
8
BLACK
6
CONTINUOUS
10
5.91383
20
-3.1923
11
5.91538
21
-3.1936
0
LINE
8
BLACK
6
CONTINUOUS
10
5.91538
20
-3.1936
11
5.91573
21
-3.19558
0
LINE
8
BLACK
6
CONTINUOUS
10
5.91573
20
-3.19558
11
5.91472
21
-3.19733
0
LINE
8
BLACK
6
CONTINUOUS
10
5.91472
20
-3.19733
11
5.91282
21
-3.19802
0
LINE
8
BLACK
6
CONTINUOUS
10
5.91282
20
-3.19802
11
5.89033
21
-3.19802
0
LINE
8
BLACK
6
CONTINUOUS
10
5.89033
20
-3.19802
11
5.88932
21
-3.19785
0
LINE
8
BLACK
6
CONTINUOUS
10
5.88932
20
-3.19785
11
5.88777
21
-3.19655
0
LINE
8
BLACK
6
CONTINUOUS
10
5.88777
20
-3.19655
11
5.88742
21
-3.19456
0
LINE
8
BLACK
6
CONTINUOUS
10
5.88742
20
-3.19456
11
5.88843
21
-3.19281
0
LINE
8
BLACK
6
CONTINUOUS
10
5.88843
20
-3.19281
11
5.89033
21
-3.19212
0
LINE
8
BLACK
6
CONTINUOUS
10
5.89033
20
-3.19212
11
5.89862
21
-3.19212
0
LINE
8
BLACK
6
CONTINUOUS
10
5.89862
20
-3.19212
11
5.89862
21
-3.1557
0
LINE
8
BLACK
6
CONTINUOUS
10
5.89862
20
-3.1557
11
5.8988
21
-3.15469
0
LINE
8
BLACK
6
CONTINUOUS
10
5.8988
20
-3.15469
11
5.89891
21
-3.15456
0
LINE
8
BLACK
6
CONTINUOUS
10
5.89891
20
-3.15456
11
5.89893
21
-3.15439
0
LINE
8
BLACK
6
CONTINUOUS
10
5.89893
20
-3.15439
11
5.89955
21
-3.1538
0
LINE
8
BLACK
6
CONTINUOUS
10
5.89955
20
-3.1538
11
5.9001
21
-3.15314
0
LINE
8
BLACK
6
CONTINUOUS
10
5.9001
20
-3.15314
11
5.90027
21
-3.15311
0
LINE
8
BLACK
6
CONTINUOUS
10
5.90027
20
-3.15311
11
5.90039
21
-3.153
0
LINE
8
BLACK
6
CONTINUOUS
10
5.90039
20
-3.153
11
5.90124
21
-3.15294
0
LINE
8
BLACK
6
CONTINUOUS
10
5.90124
20
-3.15294
11
5.90209
21
-3.15279
0
LINE
8
BLACK
6
CONTINUOUS
10
5.90209
20
-3.15279
11
5.90223
21
-3.15288
0
LINE
8
BLACK
6
CONTINUOUS
10
5.9507
20
-3.15282
11
5.95083
21
-3.15279
0
LINE
8
BLACK
6
CONTINUOUS
10
5.95083
20
-3.15279
11
5.95094
21
-3.15286
0
LINE
8
BLACK
6
CONTINUOUS
10
5.95094
20
-3.15286
11
5.95133
21
-3.15293
0
LINE
8
BLACK
6
CONTINUOUS
10
5.95133
20
-3.15293
11
5.95192
21
-3.15342
0
LINE
8
BLACK
6
CONTINUOUS
10
5.95192
20
-3.15342
11
5.95258
21
-3.1538
0
LINE
8
BLACK
6
CONTINUOUS
10
5.95258
20
-3.1538
11
5.95267
21
-3.15405
0
LINE
8
BLACK
6
CONTINUOUS
10
5.95267
20
-3.15405
11
5.95288
21
-3.15423
0
LINE
8
BLACK
6
CONTINUOUS
10
5.95288
20
-3.15423
11
5.95301
21
-3.15498
0
LINE
8
BLACK
6
CONTINUOUS
10
5.95301
20
-3.15498
11
5.95327
21
-3.1557
0
LINE
8
BLACK
6
CONTINUOUS
10
5.95327
20
-3.1557
11
5.95327
21
-3.19507
0
LINE
8
BLACK
6
CONTINUOUS
10
5.95327
20
-3.19507
11
5.9532
21
-3.19546
0
LINE
8
BLACK
6
CONTINUOUS
10
5.9532
20
-3.19546
11
5.95323
21
-3.19558
0
LINE
8
BLACK
6
CONTINUOUS
10
5.95323
20
-3.19558
11
5.95316
21
-3.1957
0
LINE
8
BLACK
6
CONTINUOUS
10
5.95316
20
-3.1957
11
5.95309
21
-3.19608
0
LINE
8
BLACK
6
CONTINUOUS
10
5.95309
20
-3.19608
11
5.9526
21
-3.19667
0
LINE
8
BLACK
6
CONTINUOUS
10
5.9526
20
-3.19667
11
5.95222
21
-3.19733
0
LINE
8
BLACK
6
CONTINUOUS
10
5.95222
20
-3.19733
11
5.95197
21
-3.19742
0
LINE
8
BLACK
6
CONTINUOUS
10
5.95197
20
-3.19742
11
5.9518
21
-3.19763
0
LINE
8
BLACK
6
CONTINUOUS
10
5.9518
20
-3.19763
11
5.95104
21
-3.19776
0
LINE
8
BLACK
6
CONTINUOUS
10
5.95104
20
-3.19776
11
5.95032
21
-3.19802
0
LINE
8
BLACK
6
CONTINUOUS
10
5.95032
20
-3.19802
11
5.94094
21
-3.19802
0
LINE
8
BLACK
6
CONTINUOUS
10
5.94094
20
-3.19802
11
5.94008
21
-3.19787
0
LINE
8
BLACK
6
CONTINUOUS
10
5.94008
20
-3.19787
11
5.94001
21
-3.19787
0
LINE
8
BLACK
6
CONTINUOUS
10
5.94001
20
-3.19787
11
5.93439
21
-3.196
0
LINE
8
BLACK
6
CONTINUOUS
10
5.93439
20
-3.196
11
5.93349
21
-3.19551
0
LINE
8
BLACK
6
CONTINUOUS
10
5.93349
20
-3.19551
11
5.93339
21
-3.19536
0
LINE
8
BLACK
6
CONTINUOUS
10
5.93339
20
-3.19536
11
5.93323
21
-3.19528
0
LINE
8
BLACK
6
CONTINUOUS
10
5.93323
20
-3.19528
11
5.92948
21
-3.19154
0
LINE
8
BLACK
6
CONTINUOUS
10
5.92948
20
-3.19154
11
5.92898
21
-3.19081
0
LINE
8
BLACK
6
CONTINUOUS
10
5.92898
20
-3.19081
11
5.92893
21
-3.19077
0
LINE
8
BLACK
6
CONTINUOUS
10
5.92893
20
-3.19077
11
5.92706
21
-3.18702
0
LINE
8
BLACK
6
CONTINUOUS
10
5.92706
20
-3.18702
11
5.92691
21
-3.18653
0
LINE
8
BLACK
6
CONTINUOUS
10
5.92691
20
-3.18653
11
5.92683
21
-3.18641
0
LINE
8
BLACK
6
CONTINUOUS
10
5.92683
20
-3.18641
11
5.92496
21
-3.17891
0
LINE
8
BLACK
6
CONTINUOUS
10
5.92496
20
-3.17891
11
5.92492
21
-3.17833
0
LINE
8
BLACK
6
CONTINUOUS
10
5.92492
20
-3.17833
11
5.92487
21
-3.1782
0
LINE
8
BLACK
6
CONTINUOUS
10
5.92487
20
-3.1782
11
5.92487
21
-3.17257
0
LINE
8
BLACK
6
CONTINUOUS
10
5.92487
20
-3.17257
11
5.92497
21
-3.17199
0
LINE
8
BLACK
6
CONTINUOUS
10
5.92497
20
-3.17199
11
5.92496
21
-3.17186
0
LINE
8
BLACK
6
CONTINUOUS
10
5.92496
20
-3.17186
11
5.92683
21
-3.16436
0
LINE
8
BLACK
6
CONTINUOUS
10
5.92683
20
-3.16436
11
5.92704
21
-3.16389
0
LINE
8
BLACK
6
CONTINUOUS
10
5.92704
20
-3.16389
11
5.92706
21
-3.16375
0
LINE
8
BLACK
6
CONTINUOUS
10
5.92706
20
-3.16375
11
5.92893
21
-3.16001
0
LINE
8
BLACK
6
CONTINUOUS
10
5.92893
20
-3.16001
11
5.92946
21
-3.1593
0
LINE
8
BLACK
6
CONTINUOUS
10
5.92946
20
-3.1593
11
5.92948
21
-3.15924
0
LINE
8
BLACK
6
CONTINUOUS
10
5.92948
20
-3.15924
11
5.93323
21
-3.15549
0
LINE
8
BLACK
6
CONTINUOUS
10
5.93323
20
-3.15549
11
5.93407
21
-3.1549
0
LINE
8
BLACK
6
CONTINUOUS
10
5.93407
20
-3.1549
11
5.93425
21
-3.15488
0
LINE
8
BLACK
6
CONTINUOUS
10
5.93425
20
-3.15488
11
5.93439
21
-3.15478
0
LINE
8
BLACK
6
CONTINUOUS
10
5.93439
20
-3.15478
11
5.94001
21
-3.1529
0
LINE
8
BLACK
6
CONTINUOUS
10
5.94001
20
-3.1529
11
5.94088
21
-3.15277
0
LINE
8
BLACK
6
CONTINUOUS
10
5.94088
20
-3.15277
11
5.94094
21
-3.15275
0
LINE
8
BLACK
6
CONTINUOUS
10
5.94094
20
-3.15275
11
5.95032
21
-3.15275
0
LINE
8
BLACK
6
CONTINUOUS
10
5.95032
20
-3.15275
11
5.9507
21
-3.15282
0
LINE
8
BLACK
6
CONTINUOUS
10
5.93692
20
-3.16016
11
5.934
21
-3.16307
0
LINE
8
BLACK
6
CONTINUOUS
10
5.934
20
-3.16307
11
5.93248
21
-3.16611
0
LINE
8
BLACK
6
CONTINUOUS
10
5.93248
20
-3.16611
11
5.93077
21
-3.17294
0
LINE
8
BLACK
6
CONTINUOUS
10
5.93077
20
-3.17294
11
5.93077
21
-3.17784
0
LINE
8
BLACK
6
CONTINUOUS
10
5.93077
20
-3.17784
11
5.93248
21
-3.18467
0
LINE
8
BLACK
6
CONTINUOUS
10
5.93248
20
-3.18467
11
5.934
21
-3.1877
0
LINE
8
BLACK
6
CONTINUOUS
10
5.934
20
-3.1877
11
5.93692
21
-3.19062
0
LINE
8
BLACK
6
CONTINUOUS
10
5.93692
20
-3.19062
11
5.94142
21
-3.19212
0
LINE
8
BLACK
6
CONTINUOUS
10
5.94142
20
-3.19212
11
5.94737
21
-3.19212
0
LINE
8
BLACK
6
CONTINUOUS
10
5.94737
20
-3.19212
11
5.94737
21
-3.15865
0
LINE
8
BLACK
6
CONTINUOUS
10
5.94737
20
-3.15865
11
5.94142
21
-3.15865
0
LINE
8
BLACK
6
CONTINUOUS
10
5.94142
20
-3.15865
11
5.93692
21
-3.16016
0
CIRCLE
8
BLACK
10
5.8
20
-3.8
40
0.00688976
0
CIRCLE
8
BLACK
10
5.4
20
-3
40
0.00688976
0
CIRCLE
8
BLACK
10
5.8
20
-3
40
0.00688976
0
CIRCLE
8
BLACK
10
5.72441
20
-3.25
40
0.00688976
0
CIRCLE
8
BLACK
10
5.82441
20
-3.25
40
0.00688976
0
CIRCLE
8
BLACK
10
5.72441
20
-3.35
40
0.00688976
0
CIRCLE
8
BLACK
10
5.82441
20
-3.35
40
0.00688976
0
CIRCLE
8
BLACK
10
5.72441
20
-3.45
40
0.00688976
0
CIRCLE
8
BLACK
10
5.82441
20
-3.45
40
0.00688976
0
CIRCLE
8
BLACK
10
5.72441
20
-3.55
40
0.00688976
0
CIRCLE
8
BLACK
10
5.82441
20
-3.55
40
0.00688976
0
CIRCLE
8
BLACK
10
5.4
20
-3.8
40
0.00688976
  0
ENDSEC
  0
EOF
