  0
SECTION
  2
HEADER
  9
$ANGBASE
  50
0.0
  9
$ANGDIR
  70
1
  9
$MEASUREMENT
  70
0
  0
ENDSEC
  0
SECTION
  2
TABLES
  0
TABLE
  2
LTYPE
  70
4
  0
LTYPE
  5
40F
  2
CONTINUOUS
  70
0
  3
Solid line
  72
65
  73
0
  40
0.0
  0
LTYPE
  5
410
  2
DASHDOT
 70
0
  3
Dash Dot ____ _ ____ _
 72
65
 73
4
 40
2.0
 49
1.25
 49
-0.25
 49
0.25
 49
-0.25
  0
LTYPE
  5
411
  2
DASHED
 70
0
  3
Dashed __ __ __ __ __
 72
65
 73
2
 40
0.75
 49
0.5
 49
-0.25
  0
LTYPE
  5
43B
  2
DOTTED
 70
0
  3
Dotted .  .  .  .
 72
65
 73
2
 40
0.2
 49
0.0
 49
-0.2
  0
ENDTAB
  0
TABLE
  2
STYLE
  70
4
  0
STYLE
  2
KICAD
  70
0
  40
0
  41
1
  42
1
  50
0
  71
0
  3
isocp.shx
  0
STYLE
  2
KICADB
  70
0
  40
0
  41
1
  42
1
  50
0
  71
0
  3
isocp.shx
  0
STYLE
  2
KICADI
  70
0
  40
0
  41
1
  42
1
  50
15
  71
0
  3
isocp.shx
  0
STYLE
  2
KICADBI
  70
0
  40
0
  41
1
  42
1
  50
15
  71
0
  3
isocp.shx
  0
ENDTAB
  0
TABLE
  2
LAYER
  70
1
  0
LAYER
  2
BLACK
  70
0
  62
7
  6
CONTINUOUS
  0
ENDTAB
  0
ENDSEC
  0
SECTION
  2
ENTITIES
0
LINE
8
BLACK
6
CONTINUOUS
10
0.0140628
20
0.12481
11
0.0279486
21
0.122451
0
LINE
8
BLACK
6
CONTINUOUS
10
0.0279486
20
0.122451
11
0.041483
21
0.118552
0
LINE
8
BLACK
6
CONTINUOUS
10
0.041483
20
0.118552
11
0.0544958
21
0.113162
0
LINE
8
BLACK
6
CONTINUOUS
10
0.0544958
20
0.113162
11
0.0668232
21
0.106349
0
LINE
8
BLACK
6
CONTINUOUS
10
0.0668232
20
0.106349
11
0.0783103
21
0.098198
0
LINE
8
BLACK
6
CONTINUOUS
10
0.0783103
20
0.098198
11
0.0888126
21
0.0888126
0
LINE
8
BLACK
6
CONTINUOUS
10
0.0888126
20
0.0888126
11
0.098198
21
0.0783103
0
LINE
8
BLACK
6
CONTINUOUS
10
0.098198
20
0.0783103
11
0.106349
21
0.0668232
0
LINE
8
BLACK
6
CONTINUOUS
10
0.106349
20
0.0668232
11
0.113162
21
0.0544958
0
LINE
8
BLACK
6
CONTINUOUS
10
0.113162
20
0.0544958
11
0.118552
21
0.041483
0
LINE
8
BLACK
6
CONTINUOUS
10
0.118552
20
0.041483
11
0.122451
21
0.0279486
0
LINE
8
BLACK
6
CONTINUOUS
10
0.122451
20
0.0279486
11
0.12481
21
0.0140628
0
LINE
8
BLACK
6
CONTINUOUS
10
0.12481
20
0.0140628
11
0.1256
21
0
0
LINE
8
BLACK
6
CONTINUOUS
10
0.1256
20
0
11
0.12481
21
-0.0140628
0
LINE
8
BLACK
6
CONTINUOUS
10
0.12481
20
-0.0140628
11
0.122451
21
-0.0279486
0
LINE
8
BLACK
6
CONTINUOUS
10
0.122451
20
-0.0279486
11
0.118552
21
-0.041483
0
LINE
8
BLACK
6
CONTINUOUS
10
0.118552
20
-0.041483
11
0.113162
21
-0.0544958
0
LINE
8
BLACK
6
CONTINUOUS
10
0.113162
20
-0.0544958
11
0.106349
21
-0.0668232
0
LINE
8
BLACK
6
CONTINUOUS
10
0.106349
20
-0.0668232
11
0.098198
21
-0.0783103
0
LINE
8
BLACK
6
CONTINUOUS
10
0.098198
20
-0.0783103
11
0.0888126
21
-0.0888126
0
LINE
8
BLACK
6
CONTINUOUS
10
0.0888126
20
-0.0888126
11
0.0783103
21
-0.098198
0
LINE
8
BLACK
6
CONTINUOUS
10
0.0783103
20
-0.098198
11
0.0668232
21
-0.106349
0
LINE
8
BLACK
6
CONTINUOUS
10
0.0668232
20
-0.106349
11
0.0544958
21
-0.113162
0
LINE
8
BLACK
6
CONTINUOUS
10
0.0544958
20
-0.113162
11
0.041483
21
-0.118552
0
LINE
8
BLACK
6
CONTINUOUS
10
0.041483
20
-0.118552
11
0.0279486
21
-0.122451
0
LINE
8
BLACK
6
CONTINUOUS
10
0.0279486
20
-0.122451
11
0.0140628
21
-0.12481
0
LINE
8
BLACK
6
CONTINUOUS
10
0.0140628
20
-0.12481
11
0
21
-0.1256
0
LINE
8
BLACK
6
CONTINUOUS
10
0
20
-0.1256
11
-0.0140628
21
-0.12481
0
LINE
8
BLACK
6
CONTINUOUS
10
-0.0140628
20
-0.12481
11
-0.0279486
21
-0.122451
0
LINE
8
BLACK
6
CONTINUOUS
10
-0.0279486
20
-0.122451
11
-0.041483
21
-0.118552
0
LINE
8
BLACK
6
CONTINUOUS
10
-0.041483
20
-0.118552
11
-0.0544958
21
-0.113162
0
LINE
8
BLACK
6
CONTINUOUS
10
-0.0544958
20
-0.113162
11
-0.0668232
21
-0.106349
0
LINE
8
BLACK
6
CONTINUOUS
10
-0.0668232
20
-0.106349
11
-0.0783103
21
-0.098198
0
LINE
8
BLACK
6
CONTINUOUS
10
-0.0783103
20
-0.098198
11
-0.0888126
21
-0.0888126
0
LINE
8
BLACK
6
CONTINUOUS
10
-0.0888126
20
-0.0888126
11
-0.098198
21
-0.0783103
0
LINE
8
BLACK
6
CONTINUOUS
10
-0.098198
20
-0.0783103
11
-0.106349
21
-0.0668232
0
LINE
8
BLACK
6
CONTINUOUS
10
-0.106349
20
-0.0668232
11
-0.113162
21
-0.0544958
0
LINE
8
BLACK
6
CONTINUOUS
10
-0.113162
20
-0.0544958
11
-0.118552
21
-0.041483
0
LINE
8
BLACK
6
CONTINUOUS
10
-0.118552
20
-0.041483
11
-0.122451
21
-0.0279486
0
LINE
8
BLACK
6
CONTINUOUS
10
-0.122451
20
-0.0279486
11
-0.12481
21
-0.0140628
0
LINE
8
BLACK
6
CONTINUOUS
10
-0.12481
20
-0.0140628
11
-0.1256
21
0
0
LINE
8
BLACK
6
CONTINUOUS
10
-0.1256
20
0
11
-0.12481
21
0.0140628
0
LINE
8
BLACK
6
CONTINUOUS
10
-0.12481
20
0.0140628
11
-0.122451
21
0.0279486
0
LINE
8
BLACK
6
CONTINUOUS
10
-0.122451
20
0.0279486
11
-0.118552
21
0.041483
0
LINE
8
BLACK
6
CONTINUOUS
10
-0.118552
20
0.041483
11
-0.113162
21
0.0544958
0
LINE
8
BLACK
6
CONTINUOUS
10
-0.113162
20
0.0544958
11
-0.106349
21
0.0668232
0
LINE
8
BLACK
6
CONTINUOUS
10
-0.106349
20
0.0668232
11
-0.098198
21
0.0783103
0
LINE
8
BLACK
6
CONTINUOUS
10
-0.098198
20
0.0783103
11
-0.0888126
21
0.0888126
0
LINE
8
BLACK
6
CONTINUOUS
10
-0.0888126
20
0.0888126
11
-0.0783103
21
0.098198
0
LINE
8
BLACK
6
CONTINUOUS
10
-0.0783103
20
0.098198
11
-0.0668232
21
0.106349
0
LINE
8
BLACK
6
CONTINUOUS
10
-0.0668232
20
0.106349
11
-0.0544958
21
0.113162
0
LINE
8
BLACK
6
CONTINUOUS
10
-0.0544958
20
0.113162
11
-0.041483
21
0.118552
0
LINE
8
BLACK
6
CONTINUOUS
10
-0.041483
20
0.118552
11
-0.0279486
21
0.122451
0
LINE
8
BLACK
6
CONTINUOUS
10
-0.0279486
20
0.122451
11
-0.0140628
21
0.12481
0
LINE
8
BLACK
6
CONTINUOUS
10
-0.0140628
20
0.12481
11
0
21
0.1256
0
LINE
8
BLACK
6
CONTINUOUS
10
0
20
0.1256
11
0.0140628
21
0.12481
0
LINE
8
BLACK
6
CONTINUOUS
10
-0.110038
20
-0.0128617
11
-0.107801
21
-0.0255493
0
LINE
8
BLACK
6
CONTINUOUS
10
-0.107801
20
-0.0255493
11
-0.104106
21
-0.0378915
0
LINE
8
BLACK
6
CONTINUOUS
10
-0.104106
20
-0.0378915
11
-0.0990033
21
-0.0497213
0
LINE
8
BLACK
6
CONTINUOUS
10
-0.0990033
20
-0.0497213
11
-0.0925616
21
-0.0608787
0
LINE
8
BLACK
6
CONTINUOUS
10
-0.0925616
20
-0.0608787
11
-0.0848681
21
-0.0712128
0
LINE
8
BLACK
6
CONTINUOUS
10
-0.0848681
20
-0.0712128
11
-0.076027
21
-0.0805839
0
LINE
8
BLACK
6
CONTINUOUS
10
-0.076027
20
-0.0805839
11
-0.0661577
21
-0.0888652
0
LINE
8
BLACK
6
CONTINUOUS
10
-0.0661577
20
-0.0888652
11
-0.0553937
21
-0.0959447
0
LINE
8
BLACK
6
CONTINUOUS
10
-0.0553937
20
-0.0959447
11
-0.0438807
21
-0.101727
0
LINE
8
BLACK
6
CONTINUOUS
10
-0.0438807
20
-0.101727
11
-0.0317742
21
-0.106133
0
LINE
8
BLACK
6
CONTINUOUS
10
-0.0317742
20
-0.106133
11
-0.019238
21
-0.109104
0
LINE
8
BLACK
6
CONTINUOUS
10
-0.019238
20
-0.109104
11
-0.00644173
21
-0.1106
0
LINE
8
BLACK
6
CONTINUOUS
10
-0.00644173
20
-0.1106
11
0.00644173
21
-0.1106
0
LINE
8
BLACK
6
CONTINUOUS
10
0.00644173
20
-0.1106
11
0.019238
21
-0.109104
0
LINE
8
BLACK
6
CONTINUOUS
10
0.019238
20
-0.109104
11
0.0317742
21
-0.106133
0
LINE
8
BLACK
6
CONTINUOUS
10
0.0317742
20
-0.106133
11
0.0438807
21
-0.101727
0
LINE
8
BLACK
6
CONTINUOUS
10
0.0438807
20
-0.101727
11
0.0553937
21
-0.0959447
0
LINE
8
BLACK
6
CONTINUOUS
10
0.0553937
20
-0.0959447
11
0.0661577
21
-0.0888652
0
LINE
8
BLACK
6
CONTINUOUS
10
0.0661577
20
-0.0888652
11
0.076027
21
-0.0805839
0
LINE
8
BLACK
6
CONTINUOUS
10
0.076027
20
-0.0805839
11
0.0848681
21
-0.0712128
0
LINE
8
BLACK
6
CONTINUOUS
10
0.0848681
20
-0.0712128
11
0.0925616
21
-0.0608787
0
LINE
8
BLACK
6
CONTINUOUS
10
0.0925616
20
-0.0608787
11
0.0990033
21
-0.0497213
0
LINE
8
BLACK
6
CONTINUOUS
10
0.0990033
20
-0.0497213
11
0.104106
21
-0.0378915
0
LINE
8
BLACK
6
CONTINUOUS
10
0.104106
20
-0.0378915
11
0.107801
21
-0.0255493
0
LINE
8
BLACK
6
CONTINUOUS
10
0.107801
20
-0.0255493
11
0.110038
21
-0.0128617
0
LINE
8
BLACK
6
CONTINUOUS
10
0.110038
20
-0.0128617
11
0.110787
21
0
0
LINE
8
BLACK
6
CONTINUOUS
10
0.110787
20
0
11
0.110038
21
0.0128617
0
LINE
8
BLACK
6
CONTINUOUS
10
0.110038
20
0.0128617
11
0.107801
21
0.0255493
0
LINE
8
BLACK
6
CONTINUOUS
10
0.107801
20
0.0255493
11
0.104106
21
0.0378915
0
LINE
8
BLACK
6
CONTINUOUS
10
0.104106
20
0.0378915
11
0.0990033
21
0.0497213
0
LINE
8
BLACK
6
CONTINUOUS
10
0.0990033
20
0.0497213
11
0.0925616
21
0.0608787
0
LINE
8
BLACK
6
CONTINUOUS
10
0.0925616
20
0.0608787
11
0.0848681
21
0.0712128
0
LINE
8
BLACK
6
CONTINUOUS
10
0.0848681
20
0.0712128
11
0.076027
21
0.0805839
0
LINE
8
BLACK
6
CONTINUOUS
10
0.076027
20
0.0805839
11
0.0661577
21
0.0888652
0
LINE
8
BLACK
6
CONTINUOUS
10
0.0661577
20
0.0888652
11
0.0553937
21
0.0959447
0
LINE
8
BLACK
6
CONTINUOUS
10
0.0553937
20
0.0959447
11
0.0438807
21
0.101727
0
LINE
8
BLACK
6
CONTINUOUS
10
0.0438807
20
0.101727
11
0.0317742
21
0.106133
0
LINE
8
BLACK
6
CONTINUOUS
10
0.0317742
20
0.106133
11
0.019238
21
0.109104
0
LINE
8
BLACK
6
CONTINUOUS
10
0.019238
20
0.109104
11
0.00644173
21
0.1106
0
LINE
8
BLACK
6
CONTINUOUS
10
0.00644173
20
0.1106
11
-0.00644173
21
0.1106
0
LINE
8
BLACK
6
CONTINUOUS
10
-0.00644173
20
0.1106
11
-0.019238
21
0.109104
0
LINE
8
BLACK
6
CONTINUOUS
10
-0.019238
20
0.109104
11
-0.0317742
21
0.106133
0
LINE
8
BLACK
6
CONTINUOUS
10
-0.0317742
20
0.106133
11
-0.0438807
21
0.101727
0
LINE
8
BLACK
6
CONTINUOUS
10
-0.0438807
20
0.101727
11
-0.0553937
21
0.0959447
0
LINE
8
BLACK
6
CONTINUOUS
10
-0.0553937
20
0.0959447
11
-0.0661577
21
0.0888652
0
LINE
8
BLACK
6
CONTINUOUS
10
-0.0661577
20
0.0888652
11
-0.076027
21
0.0805839
0
LINE
8
BLACK
6
CONTINUOUS
10
-0.076027
20
0.0805839
11
-0.0848681
21
0.0712128
0
LINE
8
BLACK
6
CONTINUOUS
10
-0.0848681
20
0.0712128
11
-0.0925616
21
0.0608787
0
LINE
8
BLACK
6
CONTINUOUS
10
-0.0925616
20
0.0608787
11
-0.0990033
21
0.0497213
0
LINE
8
BLACK
6
CONTINUOUS
10
-0.0990033
20
0.0497213
11
-0.104106
21
0.0378915
0
LINE
8
BLACK
6
CONTINUOUS
10
-0.104106
20
0.0378915
11
-0.107801
21
0.0255493
0
LINE
8
BLACK
6
CONTINUOUS
10
-0.107801
20
0.0255493
11
-0.110038
21
0.0128617
0
LINE
8
BLACK
6
CONTINUOUS
10
-0.110038
20
0.0128617
11
-0.110787
21
0
0
LINE
8
BLACK
6
CONTINUOUS
10
-0.110787
20
0
11
-0.110038
21
-0.0128617
0
LINE
8
BLACK
6
CONTINUOUS
10
0.414063
20
0.12481
11
0.427949
21
0.122451
0
LINE
8
BLACK
6
CONTINUOUS
10
0.427949
20
0.122451
11
0.441483
21
0.118552
0
LINE
8
BLACK
6
CONTINUOUS
10
0.441483
20
0.118552
11
0.454496
21
0.113162
0
LINE
8
BLACK
6
CONTINUOUS
10
0.454496
20
0.113162
11
0.466823
21
0.106349
0
LINE
8
BLACK
6
CONTINUOUS
10
0.466823
20
0.106349
11
0.47831
21
0.098198
0
LINE
8
BLACK
6
CONTINUOUS
10
0.47831
20
0.098198
11
0.488813
21
0.0888126
0
LINE
8
BLACK
6
CONTINUOUS
10
0.488813
20
0.0888126
11
0.498198
21
0.0783103
0
LINE
8
BLACK
6
CONTINUOUS
10
0.498198
20
0.0783103
11
0.506349
21
0.0668232
0
LINE
8
BLACK
6
CONTINUOUS
10
0.506349
20
0.0668232
11
0.513162
21
0.0544958
0
LINE
8
BLACK
6
CONTINUOUS
10
0.513162
20
0.0544958
11
0.518552
21
0.041483
0
LINE
8
BLACK
6
CONTINUOUS
10
0.518552
20
0.041483
11
0.522451
21
0.0279486
0
LINE
8
BLACK
6
CONTINUOUS
10
0.522451
20
0.0279486
11
0.52481
21
0.0140628
0
LINE
8
BLACK
6
CONTINUOUS
10
0.52481
20
0.0140628
11
0.5256
21
0
0
LINE
8
BLACK
6
CONTINUOUS
10
0.5256
20
0
11
0.52481
21
-0.0140628
0
LINE
8
BLACK
6
CONTINUOUS
10
0.52481
20
-0.0140628
11
0.522451
21
-0.0279486
0
LINE
8
BLACK
6
CONTINUOUS
10
0.522451
20
-0.0279486
11
0.518552
21
-0.041483
0
LINE
8
BLACK
6
CONTINUOUS
10
0.518552
20
-0.041483
11
0.513162
21
-0.0544958
0
LINE
8
BLACK
6
CONTINUOUS
10
0.513162
20
-0.0544958
11
0.506349
21
-0.0668232
0
LINE
8
BLACK
6
CONTINUOUS
10
0.506349
20
-0.0668232
11
0.498198
21
-0.0783103
0
LINE
8
BLACK
6
CONTINUOUS
10
0.498198
20
-0.0783103
11
0.488813
21
-0.0888126
0
LINE
8
BLACK
6
CONTINUOUS
10
0.488813
20
-0.0888126
11
0.47831
21
-0.098198
0
LINE
8
BLACK
6
CONTINUOUS
10
0.47831
20
-0.098198
11
0.466823
21
-0.106349
0
LINE
8
BLACK
6
CONTINUOUS
10
0.466823
20
-0.106349
11
0.454496
21
-0.113162
0
LINE
8
BLACK
6
CONTINUOUS
10
0.454496
20
-0.113162
11
0.441483
21
-0.118552
0
LINE
8
BLACK
6
CONTINUOUS
10
0.441483
20
-0.118552
11
0.427949
21
-0.122451
0
LINE
8
BLACK
6
CONTINUOUS
10
0.427949
20
-0.122451
11
0.414063
21
-0.12481
0
LINE
8
BLACK
6
CONTINUOUS
10
0.414063
20
-0.12481
11
0.4
21
-0.1256
0
LINE
8
BLACK
6
CONTINUOUS
10
0.4
20
-0.1256
11
0.385937
21
-0.12481
0
LINE
8
BLACK
6
CONTINUOUS
10
0.385937
20
-0.12481
11
0.372051
21
-0.122451
0
LINE
8
BLACK
6
CONTINUOUS
10
0.372051
20
-0.122451
11
0.358517
21
-0.118552
0
LINE
8
BLACK
6
CONTINUOUS
10
0.358517
20
-0.118552
11
0.345504
21
-0.113162
0
LINE
8
BLACK
6
CONTINUOUS
10
0.345504
20
-0.113162
11
0.333177
21
-0.106349
0
LINE
8
BLACK
6
CONTINUOUS
10
0.333177
20
-0.106349
11
0.32169
21
-0.098198
0
LINE
8
BLACK
6
CONTINUOUS
10
0.32169
20
-0.098198
11
0.311187
21
-0.0888126
0
LINE
8
BLACK
6
CONTINUOUS
10
0.311187
20
-0.0888126
11
0.301802
21
-0.0783103
0
LINE
8
BLACK
6
CONTINUOUS
10
0.301802
20
-0.0783103
11
0.293651
21
-0.0668232
0
LINE
8
BLACK
6
CONTINUOUS
10
0.293651
20
-0.0668232
11
0.286838
21
-0.0544958
0
LINE
8
BLACK
6
CONTINUOUS
10
0.286838
20
-0.0544958
11
0.281448
21
-0.041483
0
LINE
8
BLACK
6
CONTINUOUS
10
0.281448
20
-0.041483
11
0.277549
21
-0.0279486
0
LINE
8
BLACK
6
CONTINUOUS
10
0.277549
20
-0.0279486
11
0.27519
21
-0.0140628
0
LINE
8
BLACK
6
CONTINUOUS
10
0.27519
20
-0.0140628
11
0.2744
21
0
0
LINE
8
BLACK
6
CONTINUOUS
10
0.2744
20
0
11
0.27519
21
0.0140628
0
LINE
8
BLACK
6
CONTINUOUS
10
0.27519
20
0.0140628
11
0.277549
21
0.0279486
0
LINE
8
BLACK
6
CONTINUOUS
10
0.277549
20
0.0279486
11
0.281448
21
0.041483
0
LINE
8
BLACK
6
CONTINUOUS
10
0.281448
20
0.041483
11
0.286838
21
0.0544958
0
LINE
8
BLACK
6
CONTINUOUS
10
0.286838
20
0.0544958
11
0.293651
21
0.0668232
0
LINE
8
BLACK
6
CONTINUOUS
10
0.293651
20
0.0668232
11
0.301802
21
0.0783103
0
LINE
8
BLACK
6
CONTINUOUS
10
0.301802
20
0.0783103
11
0.311187
21
0.0888126
0
LINE
8
BLACK
6
CONTINUOUS
10
0.311187
20
0.0888126
11
0.32169
21
0.098198
0
LINE
8
BLACK
6
CONTINUOUS
10
0.32169
20
0.098198
11
0.333177
21
0.106349
0
LINE
8
BLACK
6
CONTINUOUS
10
0.333177
20
0.106349
11
0.345504
21
0.113162
0
LINE
8
BLACK
6
CONTINUOUS
10
0.345504
20
0.113162
11
0.358517
21
0.118552
0
LINE
8
BLACK
6
CONTINUOUS
10
0.358517
20
0.118552
11
0.372051
21
0.122451
0
LINE
8
BLACK
6
CONTINUOUS
10
0.372051
20
0.122451
11
0.385937
21
0.12481
0
LINE
8
BLACK
6
CONTINUOUS
10
0.385937
20
0.12481
11
0.4
21
0.1256
0
LINE
8
BLACK
6
CONTINUOUS
10
0.4
20
0.1256
11
0.414063
21
0.12481
0
LINE
8
BLACK
6
CONTINUOUS
10
0.289962
20
-0.0128617
11
0.292199
21
-0.0255493
0
LINE
8
BLACK
6
CONTINUOUS
10
0.292199
20
-0.0255493
11
0.295894
21
-0.0378915
0
LINE
8
BLACK
6
CONTINUOUS
10
0.295894
20
-0.0378915
11
0.300997
21
-0.0497213
0
LINE
8
BLACK
6
CONTINUOUS
10
0.300997
20
-0.0497213
11
0.307438
21
-0.0608787
0
LINE
8
BLACK
6
CONTINUOUS
10
0.307438
20
-0.0608787
11
0.315132
21
-0.0712128
0
LINE
8
BLACK
6
CONTINUOUS
10
0.315132
20
-0.0712128
11
0.323973
21
-0.0805839
0
LINE
8
BLACK
6
CONTINUOUS
10
0.323973
20
-0.0805839
11
0.333842
21
-0.0888652
0
LINE
8
BLACK
6
CONTINUOUS
10
0.333842
20
-0.0888652
11
0.344606
21
-0.0959447
0
LINE
8
BLACK
6
CONTINUOUS
10
0.344606
20
-0.0959447
11
0.356119
21
-0.101727
0
LINE
8
BLACK
6
CONTINUOUS
10
0.356119
20
-0.101727
11
0.368226
21
-0.106133
0
LINE
8
BLACK
6
CONTINUOUS
10
0.368226
20
-0.106133
11
0.380762
21
-0.109104
0
LINE
8
BLACK
6
CONTINUOUS
10
0.380762
20
-0.109104
11
0.393558
21
-0.1106
0
LINE
8
BLACK
6
CONTINUOUS
10
0.393558
20
-0.1106
11
0.406442
21
-0.1106
0
LINE
8
BLACK
6
CONTINUOUS
10
0.406442
20
-0.1106
11
0.419238
21
-0.109104
0
LINE
8
BLACK
6
CONTINUOUS
10
0.419238
20
-0.109104
11
0.431774
21
-0.106133
0
LINE
8
BLACK
6
CONTINUOUS
10
0.431774
20
-0.106133
11
0.443881
21
-0.101727
0
LINE
8
BLACK
6
CONTINUOUS
10
0.443881
20
-0.101727
11
0.455394
21
-0.0959447
0
LINE
8
BLACK
6
CONTINUOUS
10
0.455394
20
-0.0959447
11
0.466158
21
-0.0888652
0
LINE
8
BLACK
6
CONTINUOUS
10
0.466158
20
-0.0888652
11
0.476027
21
-0.0805839
0
LINE
8
BLACK
6
CONTINUOUS
10
0.476027
20
-0.0805839
11
0.484868
21
-0.0712128
0
LINE
8
BLACK
6
CONTINUOUS
10
0.484868
20
-0.0712128
11
0.492562
21
-0.0608787
0
LINE
8
BLACK
6
CONTINUOUS
10
0.492562
20
-0.0608787
11
0.499003
21
-0.0497213
0
LINE
8
BLACK
6
CONTINUOUS
10
0.499003
20
-0.0497213
11
0.504106
21
-0.0378915
0
LINE
8
BLACK
6
CONTINUOUS
10
0.504106
20
-0.0378915
11
0.507801
21
-0.0255493
0
LINE
8
BLACK
6
CONTINUOUS
10
0.507801
20
-0.0255493
11
0.510038
21
-0.0128617
0
LINE
8
BLACK
6
CONTINUOUS
10
0.510038
20
-0.0128617
11
0.510787
21
0
0
LINE
8
BLACK
6
CONTINUOUS
10
0.510787
20
0
11
0.510038
21
0.0128617
0
LINE
8
BLACK
6
CONTINUOUS
10
0.510038
20
0.0128617
11
0.507801
21
0.0255493
0
LINE
8
BLACK
6
CONTINUOUS
10
0.507801
20
0.0255493
11
0.504106
21
0.0378915
0
LINE
8
BLACK
6
CONTINUOUS
10
0.504106
20
0.0378915
11
0.499003
21
0.0497213
0
LINE
8
BLACK
6
CONTINUOUS
10
0.499003
20
0.0497213
11
0.492562
21
0.0608787
0
LINE
8
BLACK
6
CONTINUOUS
10
0.492562
20
0.0608787
11
0.484868
21
0.0712128
0
LINE
8
BLACK
6
CONTINUOUS
10
0.484868
20
0.0712128
11
0.476027
21
0.0805839
0
LINE
8
BLACK
6
CONTINUOUS
10
0.476027
20
0.0805839
11
0.466158
21
0.0888652
0
LINE
8
BLACK
6
CONTINUOUS
10
0.466158
20
0.0888652
11
0.455394
21
0.0959447
0
LINE
8
BLACK
6
CONTINUOUS
10
0.455394
20
0.0959447
11
0.443881
21
0.101727
0
LINE
8
BLACK
6
CONTINUOUS
10
0.443881
20
0.101727
11
0.431774
21
0.106133
0
LINE
8
BLACK
6
CONTINUOUS
10
0.431774
20
0.106133
11
0.419238
21
0.109104
0
LINE
8
BLACK
6
CONTINUOUS
10
0.419238
20
0.109104
11
0.406442
21
0.1106
0
LINE
8
BLACK
6
CONTINUOUS
10
0.406442
20
0.1106
11
0.393558
21
0.1106
0
LINE
8
BLACK
6
CONTINUOUS
10
0.393558
20
0.1106
11
0.380762
21
0.109104
0
LINE
8
BLACK
6
CONTINUOUS
10
0.380762
20
0.109104
11
0.368226
21
0.106133
0
LINE
8
BLACK
6
CONTINUOUS
10
0.368226
20
0.106133
11
0.356119
21
0.101727
0
LINE
8
BLACK
6
CONTINUOUS
10
0.356119
20
0.101727
11
0.344606
21
0.0959447
0
LINE
8
BLACK
6
CONTINUOUS
10
0.344606
20
0.0959447
11
0.333842
21
0.0888652
0
LINE
8
BLACK
6
CONTINUOUS
10
0.333842
20
0.0888652
11
0.323973
21
0.0805839
0
LINE
8
BLACK
6
CONTINUOUS
10
0.323973
20
0.0805839
11
0.315132
21
0.0712128
0
LINE
8
BLACK
6
CONTINUOUS
10
0.315132
20
0.0712128
11
0.307438
21
0.0608787
0
LINE
8
BLACK
6
CONTINUOUS
10
0.307438
20
0.0608787
11
0.300997
21
0.0497213
0
LINE
8
BLACK
6
CONTINUOUS
10
0.300997
20
0.0497213
11
0.295894
21
0.0378915
0
LINE
8
BLACK
6
CONTINUOUS
10
0.295894
20
0.0378915
11
0.292199
21
0.0255493
0
LINE
8
BLACK
6
CONTINUOUS
10
0.292199
20
0.0255493
11
0.289962
21
0.0128617
0
LINE
8
BLACK
6
CONTINUOUS
10
0.289962
20
0.0128617
11
0.289213
21
0
0
LINE
8
BLACK
6
CONTINUOUS
10
0.289213
20
0
11
0.289962
21
-0.0128617
0
LINE
8
BLACK
6
CONTINUOUS
10
0.377527
20
0.389676
11
0.377591
21
0.389678
0
LINE
8
BLACK
6
CONTINUOUS
10
0.377591
20
0.389678
11
0.383216
21
0.387803
0
LINE
8
BLACK
6
CONTINUOUS
10
0.383216
20
0.387803
11
0.384117
21
0.387315
0
LINE
8
BLACK
6
CONTINUOUS
10
0.384117
20
0.387315
11
0.38421
21
0.387164
0
LINE
8
BLACK
6
CONTINUOUS
10
0.38421
20
0.387164
11
0.38437
21
0.38709
0
LINE
8
BLACK
6
CONTINUOUS
10
0.38437
20
0.38709
11
0.388119
21
0.38334
0
LINE
8
BLACK
6
CONTINUOUS
10
0.388119
20
0.38334
11
0.388708
21
0.3825
0
LINE
8
BLACK
6
CONTINUOUS
10
0.388708
20
0.3825
11
0.388723
21
0.382324
0
LINE
8
BLACK
6
CONTINUOUS
10
0.388723
20
0.382324
11
0.388833
21
0.382186
0
LINE
8
BLACK
6
CONTINUOUS
10
0.388833
20
0.382186
11
0.390707
21
0.376562
0
LINE
8
BLACK
6
CONTINUOUS
10
0.390707
20
0.376562
11
0.390837
21
0.375689
0
LINE
8
BLACK
6
CONTINUOUS
10
0.390837
20
0.375689
11
0.390859
21
0.375628
0
LINE
8
BLACK
6
CONTINUOUS
10
0.390859
20
0.375628
11
0.390859
21
0.371879
0
LINE
8
BLACK
6
CONTINUOUS
10
0.390859
20
0.371879
11
0.390681
21
0.370869
0
LINE
8
BLACK
6
CONTINUOUS
10
0.390681
20
0.370869
11
0.389383
21
0.369321
0
LINE
8
BLACK
6
CONTINUOUS
10
0.389383
20
0.369321
11
0.387394
21
0.368971
0
LINE
8
BLACK
6
CONTINUOUS
10
0.387394
20
0.368971
11
0.385644
21
0.369981
0
LINE
8
BLACK
6
CONTINUOUS
10
0.385644
20
0.369981
11
0.384954
21
0.371879
0
LINE
8
BLACK
6
CONTINUOUS
10
0.384954
20
0.371879
11
0.384954
21
0.375149
0
LINE
8
BLACK
6
CONTINUOUS
10
0.384954
20
0.375149
11
0.383451
21
0.379657
0
LINE
8
BLACK
6
CONTINUOUS
10
0.383451
20
0.379657
11
0.380687
21
0.382421
0
LINE
8
BLACK
6
CONTINUOUS
10
0.380687
20
0.382421
11
0.376179
21
0.383924
0
LINE
8
BLACK
6
CONTINUOUS
10
0.376179
20
0.383924
11
0.348536
21
0.383924
0
LINE
8
BLACK
6
CONTINUOUS
10
0.348536
20
0.383924
11
0.347526
21
0.384102
0
LINE
8
BLACK
6
CONTINUOUS
10
0.347526
20
0.384102
11
0.345979
21
0.3854
0
LINE
8
BLACK
6
CONTINUOUS
10
0.345979
20
0.3854
11
0.345628
21
0.387389
0
LINE
8
BLACK
6
CONTINUOUS
10
0.345628
20
0.387389
11
0.346638
21
0.389139
0
LINE
8
BLACK
6
CONTINUOUS
10
0.346638
20
0.389139
11
0.348536
21
0.389829
0
LINE
8
BLACK
6
CONTINUOUS
10
0.348536
20
0.389829
11
0.376658
21
0.389829
0
LINE
8
BLACK
6
CONTINUOUS
10
0.376658
20
0.389829
11
0.377527
21
0.389676
0
LINE
8
BLACK
6
CONTINUOUS
10
0.360654
20
0.429046
11
0.360719
21
0.429048
0
LINE
8
BLACK
6
CONTINUOUS
10
0.360719
20
0.429048
11
0.366343
21
0.427173
0
LINE
8
BLACK
6
CONTINUOUS
10
0.366343
20
0.427173
11
0.367245
21
0.426685
0
LINE
8
BLACK
6
CONTINUOUS
10
0.367245
20
0.426685
11
0.367337
21
0.426534
0
LINE
8
BLACK
6
CONTINUOUS
10
0.367337
20
0.426534
11
0.367497
21
0.42646
0
LINE
8
BLACK
6
CONTINUOUS
10
0.367497
20
0.42646
11
0.384954
21
0.409003
0
LINE
8
BLACK
6
CONTINUOUS
10
0.384954
20
0.409003
11
0.384954
21
0.426247
0
LINE
8
BLACK
6
CONTINUOUS
10
0.384954
20
0.426247
11
0.385132
21
0.427257
0
LINE
8
BLACK
6
CONTINUOUS
10
0.385132
20
0.427257
11
0.38643
21
0.428804
0
LINE
8
BLACK
6
CONTINUOUS
10
0.38643
20
0.428804
11
0.388419
21
0.429155
0
LINE
8
BLACK
6
CONTINUOUS
10
0.388419
20
0.429155
11
0.390168
21
0.428145
0
LINE
8
BLACK
6
CONTINUOUS
10
0.390168
20
0.428145
11
0.390859
21
0.426247
0
LINE
8
BLACK
6
CONTINUOUS
10
0.390859
20
0.426247
11
0.390859
21
0.401875
0
LINE
8
BLACK
6
CONTINUOUS
10
0.390859
20
0.401875
11
0.390747
21
0.40124
0
LINE
8
BLACK
6
CONTINUOUS
10
0.390747
20
0.40124
11
0.390758
21
0.401111
0
LINE
8
BLACK
6
CONTINUOUS
10
0.390758
20
0.401111
11
0.390713
21
0.401045
0
LINE
8
BLACK
6
CONTINUOUS
10
0.390713
20
0.401045
11
0.390681
21
0.400865
0
LINE
8
BLACK
6
CONTINUOUS
10
0.390681
20
0.400865
11
0.39011
21
0.400184
0
LINE
8
BLACK
6
CONTINUOUS
10
0.39011
20
0.400184
11
0.3896
21
0.399456
0
LINE
8
BLACK
6
CONTINUOUS
10
0.3896
20
0.399456
11
0.389469
21
0.399421
0
LINE
8
BLACK
6
CONTINUOUS
10
0.389469
20
0.399421
11
0.389383
21
0.399318
0
LINE
8
BLACK
6
CONTINUOUS
10
0.389383
20
0.399318
11
0.388507
21
0.399163
0
LINE
8
BLACK
6
CONTINUOUS
10
0.388507
20
0.399163
11
0.387649
21
0.398933
0
LINE
8
BLACK
6
CONTINUOUS
10
0.387649
20
0.398933
11
0.387527
21
0.39899
0
LINE
8
BLACK
6
CONTINUOUS
10
0.387527
20
0.39899
11
0.387394
21
0.398967
0
LINE
8
BLACK
6
CONTINUOUS
10
0.387394
20
0.398967
11
0.386624
21
0.399411
0
LINE
8
BLACK
6
CONTINUOUS
10
0.386624
20
0.399411
11
0.385818
21
0.399787
0
LINE
8
BLACK
6
CONTINUOUS
10
0.385818
20
0.399787
11
0.363814
21
0.421791
0
LINE
8
BLACK
6
CONTINUOUS
10
0.363814
20
0.421791
11
0.359306
21
0.423294
0
LINE
8
BLACK
6
CONTINUOUS
10
0.359306
20
0.423294
11
0.356732
21
0.423294
0
LINE
8
BLACK
6
CONTINUOUS
10
0.356732
20
0.423294
11
0.354035
21
0.421945
0
LINE
8
BLACK
6
CONTINUOUS
10
0.354035
20
0.421945
11
0.352838
21
0.420748
0
LINE
8
BLACK
6
CONTINUOUS
10
0.352838
20
0.420748
11
0.351489
21
0.418051
0
LINE
8
BLACK
6
CONTINUOUS
10
0.351489
20
0.418051
11
0.351489
21
0.410071
0
LINE
8
BLACK
6
CONTINUOUS
10
0.351489
20
0.410071
11
0.352838
21
0.407373
0
LINE
8
BLACK
6
CONTINUOUS
10
0.352838
20
0.407373
11
0.354374
21
0.405837
0
LINE
8
BLACK
6
CONTINUOUS
10
0.354374
20
0.405837
11
0.354962
21
0.404997
0
LINE
8
BLACK
6
CONTINUOUS
10
0.354962
20
0.404997
11
0.355138
21
0.402985
0
LINE
8
BLACK
6
CONTINUOUS
10
0.355138
20
0.402985
11
0.353979
21
0.401331
0
LINE
8
BLACK
6
CONTINUOUS
10
0.353979
20
0.401331
11
0.352028
21
0.400808
0
LINE
8
BLACK
6
CONTINUOUS
10
0.352028
20
0.400808
11
0.350198
21
0.401662
0
LINE
8
BLACK
6
CONTINUOUS
10
0.350198
20
0.401662
11
0.348323
21
0.403536
0
LINE
8
BLACK
6
CONTINUOUS
10
0.348323
20
0.403536
11
0.347817
21
0.40426
0
LINE
8
BLACK
6
CONTINUOUS
10
0.347817
20
0.40426
11
0.34777
21
0.404304
0
LINE
8
BLACK
6
CONTINUOUS
10
0.34777
20
0.404304
11
0.345895
21
0.408053
0
LINE
8
BLACK
6
CONTINUOUS
10
0.345895
20
0.408053
11
0.345603
21
0.409036
0
LINE
8
BLACK
6
CONTINUOUS
10
0.345603
20
0.409036
11
0.345644
21
0.409208
0
LINE
8
BLACK
6
CONTINUOUS
10
0.345644
20
0.409208
11
0.345583
21
0.409374
0
LINE
8
BLACK
6
CONTINUOUS
10
0.345583
20
0.409374
11
0.345583
21
0.418748
0
LINE
8
BLACK
6
CONTINUOUS
10
0.345583
20
0.418748
11
0.345761
21
0.419758
0
LINE
8
BLACK
6
CONTINUOUS
10
0.345761
20
0.419758
11
0.345875
21
0.419893
0
LINE
8
BLACK
6
CONTINUOUS
10
0.345875
20
0.419893
11
0.345895
21
0.420068
0
LINE
8
BLACK
6
CONTINUOUS
10
0.345895
20
0.420068
11
0.34777
21
0.423818
0
LINE
8
BLACK
6
CONTINUOUS
10
0.34777
20
0.423818
11
0.348296
21
0.424527
0
LINE
8
BLACK
6
CONTINUOUS
10
0.348296
20
0.424527
11
0.348323
21
0.424585
0
LINE
8
BLACK
6
CONTINUOUS
10
0.348323
20
0.424585
11
0.350198
21
0.42646
0
LINE
8
BLACK
6
CONTINUOUS
10
0.350198
20
0.42646
11
0.350921
21
0.426966
0
LINE
8
BLACK
6
CONTINUOUS
10
0.350921
20
0.426966
11
0.350965
21
0.427013
0
LINE
8
BLACK
6
CONTINUOUS
10
0.350965
20
0.427013
11
0.354715
21
0.428888
0
LINE
8
BLACK
6
CONTINUOUS
10
0.354715
20
0.428888
11
0.355698
21
0.42918
0
LINE
8
BLACK
6
CONTINUOUS
10
0.355698
20
0.42918
11
0.355869
21
0.429139
0
LINE
8
BLACK
6
CONTINUOUS
10
0.355869
20
0.429139
11
0.356035
21
0.429199
0
LINE
8
BLACK
6
CONTINUOUS
10
0.356035
20
0.429199
11
0.359785
21
0.429199
0
LINE
8
BLACK
6
CONTINUOUS
10
0.359785
20
0.429199
11
0.360654
21
0.429046
0
LINE
8
BLACK
6
CONTINUOUS
10
0.47
20
0.601969
11
0.471392
21
0.601392
0
LINE
8
BLACK
6
CONTINUOUS
10
0.471392
20
0.601392
11
0.471969
21
0.6
0
LINE
8
BLACK
6
CONTINUOUS
10
0.471969
20
0.6
11
0.471969
21
0.2
0
LINE
8
BLACK
6
CONTINUOUS
10
0.471969
20
0.2
11
0.471392
21
0.198608
0
LINE
8
BLACK
6
CONTINUOUS
10
0.471392
20
0.198608
11
0.47
21
0.198031
0
LINE
8
BLACK
6
CONTINUOUS
10
0.47
20
0.198031
11
0.27
21
0.198031
0
LINE
8
BLACK
6
CONTINUOUS
10
0.27
20
0.198031
11
0.268608
21
0.198608
0
LINE
8
BLACK
6
CONTINUOUS
10
0.268608
20
0.198608
11
0.268031
21
0.2
0
LINE
8
BLACK
6
CONTINUOUS
10
0.268031
20
0.2
11
0.268031
21
0.55
0
LINE
8
BLACK
6
CONTINUOUS
10
0.268031
20
0.55
11
0.268608
21
0.551392
0
LINE
8
BLACK
6
CONTINUOUS
10
0.268608
20
0.551392
11
0.318608
21
0.601392
0
LINE
8
BLACK
6
CONTINUOUS
10
0.318608
20
0.601392
11
0.318608
21
0.601392
0
LINE
8
BLACK
6
CONTINUOUS
10
0.318608
20
0.601392
11
0.32
21
0.601969
0
LINE
8
BLACK
6
CONTINUOUS
10
0.32
20
0.601969
11
0.47
21
0.601969
0
LINE
8
BLACK
6
CONTINUOUS
10
0.320815
20
0.598031
11
0.271969
21
0.549185
0
LINE
8
BLACK
6
CONTINUOUS
10
0.271969
20
0.549185
11
0.271969
21
0.201969
0
LINE
8
BLACK
6
CONTINUOUS
10
0.271969
20
0.201969
11
0.468031
21
0.201969
0
LINE
8
BLACK
6
CONTINUOUS
10
0.468031
20
0.201969
11
0.468031
21
0.598031
0
LINE
8
BLACK
6
CONTINUOUS
10
0.468031
20
0.598031
11
0.320815
21
0.598031
0
LINE
8
BLACK
6
CONTINUOUS
10
-0.0208615
20
0.559425
11
-0.0201706
21
0.557527
0
LINE
8
BLACK
6
CONTINUOUS
10
-0.0201706
20
0.557527
11
-0.0201706
21
0.529405
0
LINE
8
BLACK
6
CONTINUOUS
10
-0.0201706
20
0.529405
11
-0.0203239
21
0.528536
0
LINE
8
BLACK
6
CONTINUOUS
10
-0.0203239
20
0.528536
11
-0.0203222
21
0.528472
0
LINE
8
BLACK
6
CONTINUOUS
10
-0.0203222
20
0.528472
11
-0.0221969
21
0.522847
0
LINE
8
BLACK
6
CONTINUOUS
10
-0.0221969
20
0.522847
11
-0.0226852
21
0.521946
0
LINE
8
BLACK
6
CONTINUOUS
10
-0.0226852
20
0.521946
11
-0.0228356
21
0.521853
0
LINE
8
BLACK
6
CONTINUOUS
10
-0.0228356
20
0.521853
11
-0.0229102
21
0.521693
0
LINE
8
BLACK
6
CONTINUOUS
10
-0.0229102
20
0.521693
11
-0.0266598
21
0.517944
0
LINE
8
BLACK
6
CONTINUOUS
10
-0.0266598
20
0.517944
11
-0.0274998
21
0.517355
0
LINE
8
BLACK
6
CONTINUOUS
10
-0.0274998
20
0.517355
11
-0.0276757
21
0.51734
0
LINE
8
BLACK
6
CONTINUOUS
10
-0.0276757
20
0.51734
11
-0.0278139
21
0.51723
0
LINE
8
BLACK
6
CONTINUOUS
10
-0.0278139
20
0.51723
11
-0.0334382
21
0.515356
0
LINE
8
BLACK
6
CONTINUOUS
10
-0.0334382
20
0.515356
11
-0.0343114
21
0.515226
0
LINE
8
BLACK
6
CONTINUOUS
10
-0.0343114
20
0.515226
11
-0.034372
21
0.515204
0
LINE
8
BLACK
6
CONTINUOUS
10
-0.034372
20
0.515204
11
-0.0381215
21
0.515204
0
LINE
8
BLACK
6
CONTINUOUS
10
-0.0381215
20
0.515204
11
-0.0391314
21
0.515382
0
LINE
8
BLACK
6
CONTINUOUS
10
-0.0391314
20
0.515382
11
-0.0406787
21
0.51668
0
LINE
8
BLACK
6
CONTINUOUS
10
-0.0406787
20
0.51668
11
-0.0410294
21
0.518669
0
LINE
8
BLACK
6
CONTINUOUS
10
-0.0410294
20
0.518669
11
-0.0400195
21
0.520419
0
LINE
8
BLACK
6
CONTINUOUS
10
-0.0400195
20
0.520419
11
-0.0381215
21
0.521109
0
LINE
8
BLACK
6
CONTINUOUS
10
-0.0381215
20
0.521109
11
-0.0348511
21
0.521109
0
LINE
8
BLACK
6
CONTINUOUS
10
-0.0348511
20
0.521109
11
-0.0303427
21
0.522612
0
LINE
8
BLACK
6
CONTINUOUS
10
-0.0303427
20
0.522612
11
-0.027579
21
0.525376
0
LINE
8
BLACK
6
CONTINUOUS
10
-0.027579
20
0.525376
11
-0.0260761
21
0.529884
0
LINE
8
BLACK
6
CONTINUOUS
10
-0.0260761
20
0.529884
11
-0.0260761
21
0.557527
0
LINE
8
BLACK
6
CONTINUOUS
10
-0.0260761
20
0.557527
11
-0.0258981
21
0.558537
0
LINE
8
BLACK
6
CONTINUOUS
10
-0.0258981
20
0.558537
11
-0.0245998
21
0.560084
0
LINE
8
BLACK
6
CONTINUOUS
10
-0.0245998
20
0.560084
11
-0.0226106
21
0.560435
0
LINE
8
BLACK
6
CONTINUOUS
10
-0.0226106
20
0.560435
11
-0.0208615
21
0.559425
0
LINE
8
BLACK
6
CONTINUOUS
10
0.00534362
20
0.560405
11
0.00551087
21
0.560435
0
LINE
8
BLACK
6
CONTINUOUS
10
0.00551087
20
0.560435
11
0.00625291
21
0.560006
0
LINE
8
BLACK
6
CONTINUOUS
10
0.00625291
20
0.560006
11
0.00703776
21
0.559662
0
LINE
8
BLACK
6
CONTINUOUS
10
0.00703776
20
0.559662
11
0.00711299
21
0.55951
0
LINE
8
BLACK
6
CONTINUOUS
10
0.00711299
20
0.55951
11
0.00726004
21
0.559425
0
LINE
8
BLACK
6
CONTINUOUS
10
0.00726004
20
0.559425
11
0.00755311
21
0.55862
0
LINE
8
BLACK
6
CONTINUOUS
10
0.00755311
20
0.55862
11
0.00793295
21
0.557851
0
LINE
8
BLACK
6
CONTINUOUS
10
0.00793295
20
0.557851
11
0.00789276
21
0.557686
0
LINE
8
BLACK
6
CONTINUOUS
10
0.00789276
20
0.557686
11
0.00795087
21
0.557527
0
LINE
8
BLACK
6
CONTINUOUS
10
0.00795087
20
0.557527
11
0.00795087
21
0.521109
0
LINE
8
BLACK
6
CONTINUOUS
10
0.00795087
20
0.521109
11
0.0162467
21
0.521109
0
LINE
8
BLACK
6
CONTINUOUS
10
0.0162467
20
0.521109
11
0.0172566
21
0.520931
0
LINE
8
BLACK
6
CONTINUOUS
10
0.0172566
20
0.520931
11
0.0188039
21
0.519633
0
LINE
8
BLACK
6
CONTINUOUS
10
0.0188039
20
0.519633
11
0.0191546
21
0.517644
0
LINE
8
BLACK
6
CONTINUOUS
10
0.0191546
20
0.517644
11
0.0181447
21
0.515895
0
LINE
8
BLACK
6
CONTINUOUS
10
0.0181447
20
0.515895
11
0.0162467
21
0.515204
0
LINE
8
BLACK
6
CONTINUOUS
10
0.0162467
20
0.515204
11
-0.00625047
21
0.515204
0
LINE
8
BLACK
6
CONTINUOUS
10
-0.00625047
20
0.515204
11
-0.00726039
21
0.515382
0
LINE
8
BLACK
6
CONTINUOUS
10
-0.00726039
20
0.515382
11
-0.00880764
21
0.51668
0
LINE
8
BLACK
6
CONTINUOUS
10
-0.00880764
20
0.51668
11
-0.00915839
21
0.518669
0
LINE
8
BLACK
6
CONTINUOUS
10
-0.00915839
20
0.518669
11
-0.00814846
21
0.520419
0
LINE
8
BLACK
6
CONTINUOUS
10
-0.00814846
20
0.520419
11
-0.00625047
21
0.521109
0
LINE
8
BLACK
6
CONTINUOUS
10
-0.00625047
20
0.521109
11
0.00204535
21
0.521109
0
LINE
8
BLACK
6
CONTINUOUS
10
0.00204535
20
0.521109
11
0.00204535
21
0.548523
0
LINE
8
BLACK
6
CONTINUOUS
10
0.00204535
20
0.548523
11
-0.000413031
21
0.546065
0
LINE
8
BLACK
6
CONTINUOUS
10
-0.000413031
20
0.546065
11
-0.00113614
21
0.545559
0
LINE
8
BLACK
6
CONTINUOUS
10
-0.00113614
20
0.545559
11
-0.00118043
21
0.545512
0
LINE
8
BLACK
6
CONTINUOUS
10
-0.00118043
20
0.545512
11
-0.00492996
21
0.543637
0
LINE
8
BLACK
6
CONTINUOUS
10
-0.00492996
20
0.543637
11
-0.00591291
21
0.543345
0
LINE
8
BLACK
6
CONTINUOUS
10
-0.00591291
20
0.543345
11
-0.0078774
21
0.543814
0
LINE
8
BLACK
6
CONTINUOUS
10
-0.0078774
20
0.543814
11
-0.00908071
21
0.545436
0
LINE
8
BLACK
6
CONTINUOUS
10
-0.00908071
20
0.545436
11
-0.00895965
21
0.547453
0
LINE
8
BLACK
6
CONTINUOUS
10
-0.00895965
20
0.547453
11
-0.00757098
21
0.548919
0
LINE
8
BLACK
6
CONTINUOUS
10
-0.00757098
20
0.548919
11
-0.00425004
21
0.55058
0
LINE
8
BLACK
6
CONTINUOUS
10
-0.00425004
20
0.55058
11
-0.00104614
21
0.553784
0
LINE
8
BLACK
6
CONTINUOUS
10
-0.00104614
20
0.553784
11
0.00254126
21
0.559165
0
LINE
8
BLACK
6
CONTINUOUS
10
0.00254126
20
0.559165
11
0.00324965
21
0.559906
0
LINE
8
BLACK
6
CONTINUOUS
10
0.00324965
20
0.559906
11
0.0034126
21
0.559954
0
LINE
8
BLACK
6
CONTINUOUS
10
0.0034126
20
0.559954
11
0.00352173
21
0.560084
0
LINE
8
BLACK
6
CONTINUOUS
10
0.00352173
20
0.560084
11
0.00436551
21
0.560233
0
LINE
8
BLACK
6
CONTINUOUS
10
0.00436551
20
0.560233
11
0.00518815
21
0.560473
0
LINE
8
BLACK
6
CONTINUOUS
10
0.00518815
20
0.560473
11
0.00534362
21
0.560405
0
LINE
8
BLACK
6
CONTINUOUS
10
0.09
20
0.638031
11
0.0913919
21
0.637455
0
LINE
8
BLACK
6
CONTINUOUS
10
0.0913919
20
0.637455
11
0.141392
21
0.587455
0
LINE
8
BLACK
6
CONTINUOUS
10
0.141392
20
0.587455
11
0.141969
21
0.586063
0
LINE
8
BLACK
6
CONTINUOUS
10
0.141969
20
0.586063
11
0.141969
21
0.436063
0
LINE
8
BLACK
6
CONTINUOUS
10
0.141969
20
0.436063
11
0.141392
21
0.434671
0
LINE
8
BLACK
6
CONTINUOUS
10
0.141392
20
0.434671
11
0.14
21
0.434094
0
LINE
8
BLACK
6
CONTINUOUS
10
0.14
20
0.434094
11
-0.16
21
0.434094
0
LINE
8
BLACK
6
CONTINUOUS
10
-0.16
20
0.434094
11
-0.161392
21
0.434671
0
LINE
8
BLACK
6
CONTINUOUS
10
-0.161392
20
0.434671
11
-0.161969
21
0.436063
0
LINE
8
BLACK
6
CONTINUOUS
10
-0.161969
20
0.436063
11
-0.161969
21
0.436063
0
LINE
8
BLACK
6
CONTINUOUS
10
-0.161969
20
0.436063
11
-0.161969
21
0.636063
0
LINE
8
BLACK
6
CONTINUOUS
10
-0.161969
20
0.636063
11
-0.161392
21
0.637455
0
LINE
8
BLACK
6
CONTINUOUS
10
-0.161392
20
0.637455
11
-0.16
21
0.638031
0
LINE
8
BLACK
6
CONTINUOUS
10
-0.16
20
0.638031
11
0.09
21
0.638031
0
LINE
8
BLACK
6
CONTINUOUS
10
-0.158031
20
0.634094
11
-0.158031
21
0.438031
0
LINE
8
BLACK
6
CONTINUOUS
10
-0.158031
20
0.438031
11
0.138031
21
0.438031
0
LINE
8
BLACK
6
CONTINUOUS
10
0.138031
20
0.438031
11
0.138031
21
0.585248
0
LINE
8
BLACK
6
CONTINUOUS
10
0.138031
20
0.585248
11
0.0891846
21
0.634094
0
LINE
8
BLACK
6
CONTINUOUS
10
0.0891846
20
0.634094
11
-0.158031
21
0.634094
0
LINE
8
BLACK
6
CONTINUOUS
10
0.0140628
20
0.92481
11
0.0279486
21
0.922451
0
LINE
8
BLACK
6
CONTINUOUS
10
0.0279486
20
0.922451
11
0.041483
21
0.918552
0
LINE
8
BLACK
6
CONTINUOUS
10
0.041483
20
0.918552
11
0.0544958
21
0.913162
0
LINE
8
BLACK
6
CONTINUOUS
10
0.0544958
20
0.913162
11
0.0668232
21
0.906349
0
LINE
8
BLACK
6
CONTINUOUS
10
0.0668232
20
0.906349
11
0.0783103
21
0.898198
0
LINE
8
BLACK
6
CONTINUOUS
10
0.0783103
20
0.898198
11
0.0888126
21
0.888813
0
LINE
8
BLACK
6
CONTINUOUS
10
0.0888126
20
0.888813
11
0.098198
21
0.87831
0
LINE
8
BLACK
6
CONTINUOUS
10
0.098198
20
0.87831
11
0.106349
21
0.866823
0
LINE
8
BLACK
6
CONTINUOUS
10
0.106349
20
0.866823
11
0.113162
21
0.854496
0
LINE
8
BLACK
6
CONTINUOUS
10
0.113162
20
0.854496
11
0.118552
21
0.841483
0
LINE
8
BLACK
6
CONTINUOUS
10
0.118552
20
0.841483
11
0.122451
21
0.827949
0
LINE
8
BLACK
6
CONTINUOUS
10
0.122451
20
0.827949
11
0.12481
21
0.814063
0
LINE
8
BLACK
6
CONTINUOUS
10
0.12481
20
0.814063
11
0.1256
21
0.8
0
LINE
8
BLACK
6
CONTINUOUS
10
0.1256
20
0.8
11
0.12481
21
0.785937
0
LINE
8
BLACK
6
CONTINUOUS
10
0.12481
20
0.785937
11
0.122451
21
0.772051
0
LINE
8
BLACK
6
CONTINUOUS
10
0.122451
20
0.772051
11
0.118552
21
0.758517
0
LINE
8
BLACK
6
CONTINUOUS
10
0.118552
20
0.758517
11
0.113162
21
0.745504
0
LINE
8
BLACK
6
CONTINUOUS
10
0.113162
20
0.745504
11
0.106349
21
0.733177
0
LINE
8
BLACK
6
CONTINUOUS
10
0.106349
20
0.733177
11
0.098198
21
0.72169
0
LINE
8
BLACK
6
CONTINUOUS
10
0.098198
20
0.72169
11
0.0888126
21
0.711187
0
LINE
8
BLACK
6
CONTINUOUS
10
0.0888126
20
0.711187
11
0.0783103
21
0.701802
0
LINE
8
BLACK
6
CONTINUOUS
10
0.0783103
20
0.701802
11
0.0668232
21
0.693651
0
LINE
8
BLACK
6
CONTINUOUS
10
0.0668232
20
0.693651
11
0.0544958
21
0.686838
0
LINE
8
BLACK
6
CONTINUOUS
10
0.0544958
20
0.686838
11
0.041483
21
0.681448
0
LINE
8
BLACK
6
CONTINUOUS
10
0.041483
20
0.681448
11
0.0279486
21
0.677549
0
LINE
8
BLACK
6
CONTINUOUS
10
0.0279486
20
0.677549
11
0.0140628
21
0.67519
0
LINE
8
BLACK
6
CONTINUOUS
10
0.0140628
20
0.67519
11
0
21
0.6744
0
LINE
8
BLACK
6
CONTINUOUS
10
0
20
0.6744
11
-0.0140628
21
0.67519
0
LINE
8
BLACK
6
CONTINUOUS
10
-0.0140628
20
0.67519
11
-0.0279486
21
0.677549
0
LINE
8
BLACK
6
CONTINUOUS
10
-0.0279486
20
0.677549
11
-0.041483
21
0.681448
0
LINE
8
BLACK
6
CONTINUOUS
10
-0.041483
20
0.681448
11
-0.0544958
21
0.686838
0
LINE
8
BLACK
6
CONTINUOUS
10
-0.0544958
20
0.686838
11
-0.0668232
21
0.693651
0
LINE
8
BLACK
6
CONTINUOUS
10
-0.0668232
20
0.693651
11
-0.0783103
21
0.701802
0
LINE
8
BLACK
6
CONTINUOUS
10
-0.0783103
20
0.701802
11
-0.0888126
21
0.711187
0
LINE
8
BLACK
6
CONTINUOUS
10
-0.0888126
20
0.711187
11
-0.098198
21
0.72169
0
LINE
8
BLACK
6
CONTINUOUS
10
-0.098198
20
0.72169
11
-0.106349
21
0.733177
0
LINE
8
BLACK
6
CONTINUOUS
10
-0.106349
20
0.733177
11
-0.113162
21
0.745504
0
LINE
8
BLACK
6
CONTINUOUS
10
-0.113162
20
0.745504
11
-0.118552
21
0.758517
0
LINE
8
BLACK
6
CONTINUOUS
10
-0.118552
20
0.758517
11
-0.122451
21
0.772051
0
LINE
8
BLACK
6
CONTINUOUS
10
-0.122451
20
0.772051
11
-0.12481
21
0.785937
0
LINE
8
BLACK
6
CONTINUOUS
10
-0.12481
20
0.785937
11
-0.1256
21
0.8
0
LINE
8
BLACK
6
CONTINUOUS
10
-0.1256
20
0.8
11
-0.12481
21
0.814063
0
LINE
8
BLACK
6
CONTINUOUS
10
-0.12481
20
0.814063
11
-0.122451
21
0.827949
0
LINE
8
BLACK
6
CONTINUOUS
10
-0.122451
20
0.827949
11
-0.118552
21
0.841483
0
LINE
8
BLACK
6
CONTINUOUS
10
-0.118552
20
0.841483
11
-0.113162
21
0.854496
0
LINE
8
BLACK
6
CONTINUOUS
10
-0.113162
20
0.854496
11
-0.106349
21
0.866823
0
LINE
8
BLACK
6
CONTINUOUS
10
-0.106349
20
0.866823
11
-0.098198
21
0.87831
0
LINE
8
BLACK
6
CONTINUOUS
10
-0.098198
20
0.87831
11
-0.0888126
21
0.888813
0
LINE
8
BLACK
6
CONTINUOUS
10
-0.0888126
20
0.888813
11
-0.0783103
21
0.898198
0
LINE
8
BLACK
6
CONTINUOUS
10
-0.0783103
20
0.898198
11
-0.0668232
21
0.906349
0
LINE
8
BLACK
6
CONTINUOUS
10
-0.0668232
20
0.906349
11
-0.0544958
21
0.913162
0
LINE
8
BLACK
6
CONTINUOUS
10
-0.0544958
20
0.913162
11
-0.041483
21
0.918552
0
LINE
8
BLACK
6
CONTINUOUS
10
-0.041483
20
0.918552
11
-0.0279486
21
0.922451
0
LINE
8
BLACK
6
CONTINUOUS
10
-0.0279486
20
0.922451
11
-0.0140628
21
0.92481
0
LINE
8
BLACK
6
CONTINUOUS
10
-0.0140628
20
0.92481
11
0
21
0.9256
0
LINE
8
BLACK
6
CONTINUOUS
10
0
20
0.9256
11
0.0140628
21
0.92481
0
LINE
8
BLACK
6
CONTINUOUS
10
-0.110038
20
0.787138
11
-0.107801
21
0.774451
0
LINE
8
BLACK
6
CONTINUOUS
10
-0.107801
20
0.774451
11
-0.104106
21
0.762108
0
LINE
8
BLACK
6
CONTINUOUS
10
-0.104106
20
0.762108
11
-0.0990033
21
0.750279
0
LINE
8
BLACK
6
CONTINUOUS
10
-0.0990033
20
0.750279
11
-0.0925616
21
0.739121
0
LINE
8
BLACK
6
CONTINUOUS
10
-0.0925616
20
0.739121
11
-0.0848681
21
0.728787
0
LINE
8
BLACK
6
CONTINUOUS
10
-0.0848681
20
0.728787
11
-0.076027
21
0.719416
0
LINE
8
BLACK
6
CONTINUOUS
10
-0.076027
20
0.719416
11
-0.0661577
21
0.711135
0
LINE
8
BLACK
6
CONTINUOUS
10
-0.0661577
20
0.711135
11
-0.0553937
21
0.704055
0
LINE
8
BLACK
6
CONTINUOUS
10
-0.0553937
20
0.704055
11
-0.0438807
21
0.698273
0
LINE
8
BLACK
6
CONTINUOUS
10
-0.0438807
20
0.698273
11
-0.0317742
21
0.693867
0
LINE
8
BLACK
6
CONTINUOUS
10
-0.0317742
20
0.693867
11
-0.019238
21
0.690896
0
LINE
8
BLACK
6
CONTINUOUS
10
-0.019238
20
0.690896
11
-0.00644173
21
0.6894
0
LINE
8
BLACK
6
CONTINUOUS
10
-0.00644173
20
0.6894
11
0.00644173
21
0.6894
0
LINE
8
BLACK
6
CONTINUOUS
10
0.00644173
20
0.6894
11
0.019238
21
0.690896
0
LINE
8
BLACK
6
CONTINUOUS
10
0.019238
20
0.690896
11
0.0317742
21
0.693867
0
LINE
8
BLACK
6
CONTINUOUS
10
0.0317742
20
0.693867
11
0.0438807
21
0.698273
0
LINE
8
BLACK
6
CONTINUOUS
10
0.0438807
20
0.698273
11
0.0553937
21
0.704055
0
LINE
8
BLACK
6
CONTINUOUS
10
0.0553937
20
0.704055
11
0.0661577
21
0.711135
0
LINE
8
BLACK
6
CONTINUOUS
10
0.0661577
20
0.711135
11
0.076027
21
0.719416
0
LINE
8
BLACK
6
CONTINUOUS
10
0.076027
20
0.719416
11
0.0848681
21
0.728787
0
LINE
8
BLACK
6
CONTINUOUS
10
0.0848681
20
0.728787
11
0.0925616
21
0.739121
0
LINE
8
BLACK
6
CONTINUOUS
10
0.0925616
20
0.739121
11
0.0990033
21
0.750279
0
LINE
8
BLACK
6
CONTINUOUS
10
0.0990033
20
0.750279
11
0.104106
21
0.762108
0
LINE
8
BLACK
6
CONTINUOUS
10
0.104106
20
0.762108
11
0.107801
21
0.774451
0
LINE
8
BLACK
6
CONTINUOUS
10
0.107801
20
0.774451
11
0.110038
21
0.787138
0
LINE
8
BLACK
6
CONTINUOUS
10
0.110038
20
0.787138
11
0.110787
21
0.8
0
LINE
8
BLACK
6
CONTINUOUS
10
0.110787
20
0.8
11
0.110038
21
0.812862
0
LINE
8
BLACK
6
CONTINUOUS
10
0.110038
20
0.812862
11
0.107801
21
0.825549
0
LINE
8
BLACK
6
CONTINUOUS
10
0.107801
20
0.825549
11
0.104106
21
0.837892
0
LINE
8
BLACK
6
CONTINUOUS
10
0.104106
20
0.837892
11
0.0990033
21
0.849721
0
LINE
8
BLACK
6
CONTINUOUS
10
0.0990033
20
0.849721
11
0.0925616
21
0.860879
0
LINE
8
BLACK
6
CONTINUOUS
10
0.0925616
20
0.860879
11
0.0848681
21
0.871213
0
LINE
8
BLACK
6
CONTINUOUS
10
0.0848681
20
0.871213
11
0.076027
21
0.880584
0
LINE
8
BLACK
6
CONTINUOUS
10
0.076027
20
0.880584
11
0.0661577
21
0.888865
0
LINE
8
BLACK
6
CONTINUOUS
10
0.0661577
20
0.888865
11
0.0553937
21
0.895945
0
LINE
8
BLACK
6
CONTINUOUS
10
0.0553937
20
0.895945
11
0.0438807
21
0.901727
0
LINE
8
BLACK
6
CONTINUOUS
10
0.0438807
20
0.901727
11
0.0317742
21
0.906133
0
LINE
8
BLACK
6
CONTINUOUS
10
0.0317742
20
0.906133
11
0.019238
21
0.909104
0
LINE
8
BLACK
6
CONTINUOUS
10
0.019238
20
0.909104
11
0.00644173
21
0.9106
0
LINE
8
BLACK
6
CONTINUOUS
10
0.00644173
20
0.9106
11
-0.00644173
21
0.9106
0
LINE
8
BLACK
6
CONTINUOUS
10
-0.00644173
20
0.9106
11
-0.019238
21
0.909104
0
LINE
8
BLACK
6
CONTINUOUS
10
-0.019238
20
0.909104
11
-0.0317742
21
0.906133
0
LINE
8
BLACK
6
CONTINUOUS
10
-0.0317742
20
0.906133
11
-0.0438807
21
0.901727
0
LINE
8
BLACK
6
CONTINUOUS
10
-0.0438807
20
0.901727
11
-0.0553937
21
0.895945
0
LINE
8
BLACK
6
CONTINUOUS
10
-0.0553937
20
0.895945
11
-0.0661577
21
0.888865
0
LINE
8
BLACK
6
CONTINUOUS
10
-0.0661577
20
0.888865
11
-0.076027
21
0.880584
0
LINE
8
BLACK
6
CONTINUOUS
10
-0.076027
20
0.880584
11
-0.0848681
21
0.871213
0
LINE
8
BLACK
6
CONTINUOUS
10
-0.0848681
20
0.871213
11
-0.0925616
21
0.860879
0
LINE
8
BLACK
6
CONTINUOUS
10
-0.0925616
20
0.860879
11
-0.0990033
21
0.849721
0
LINE
8
BLACK
6
CONTINUOUS
10
-0.0990033
20
0.849721
11
-0.104106
21
0.837892
0
LINE
8
BLACK
6
CONTINUOUS
10
-0.104106
20
0.837892
11
-0.107801
21
0.825549
0
LINE
8
BLACK
6
CONTINUOUS
10
-0.107801
20
0.825549
11
-0.110038
21
0.812862
0
LINE
8
BLACK
6
CONTINUOUS
10
-0.110038
20
0.812862
11
-0.110787
21
0.8
0
LINE
8
BLACK
6
CONTINUOUS
10
-0.110787
20
0.8
11
-0.110038
21
0.787138
0
LINE
8
BLACK
6
CONTINUOUS
10
0.414063
20
0.92481
11
0.427949
21
0.922451
0
LINE
8
BLACK
6
CONTINUOUS
10
0.427949
20
0.922451
11
0.441483
21
0.918552
0
LINE
8
BLACK
6
CONTINUOUS
10
0.441483
20
0.918552
11
0.454496
21
0.913162
0
LINE
8
BLACK
6
CONTINUOUS
10
0.454496
20
0.913162
11
0.466823
21
0.906349
0
LINE
8
BLACK
6
CONTINUOUS
10
0.466823
20
0.906349
11
0.47831
21
0.898198
0
LINE
8
BLACK
6
CONTINUOUS
10
0.47831
20
0.898198
11
0.488813
21
0.888813
0
LINE
8
BLACK
6
CONTINUOUS
10
0.488813
20
0.888813
11
0.498198
21
0.87831
0
LINE
8
BLACK
6
CONTINUOUS
10
0.498198
20
0.87831
11
0.506349
21
0.866823
0
LINE
8
BLACK
6
CONTINUOUS
10
0.506349
20
0.866823
11
0.513162
21
0.854496
0
LINE
8
BLACK
6
CONTINUOUS
10
0.513162
20
0.854496
11
0.518552
21
0.841483
0
LINE
8
BLACK
6
CONTINUOUS
10
0.518552
20
0.841483
11
0.522451
21
0.827949
0
LINE
8
BLACK
6
CONTINUOUS
10
0.522451
20
0.827949
11
0.52481
21
0.814063
0
LINE
8
BLACK
6
CONTINUOUS
10
0.52481
20
0.814063
11
0.5256
21
0.8
0
LINE
8
BLACK
6
CONTINUOUS
10
0.5256
20
0.8
11
0.52481
21
0.785937
0
LINE
8
BLACK
6
CONTINUOUS
10
0.52481
20
0.785937
11
0.522451
21
0.772051
0
LINE
8
BLACK
6
CONTINUOUS
10
0.522451
20
0.772051
11
0.518552
21
0.758517
0
LINE
8
BLACK
6
CONTINUOUS
10
0.518552
20
0.758517
11
0.513162
21
0.745504
0
LINE
8
BLACK
6
CONTINUOUS
10
0.513162
20
0.745504
11
0.506349
21
0.733177
0
LINE
8
BLACK
6
CONTINUOUS
10
0.506349
20
0.733177
11
0.498198
21
0.72169
0
LINE
8
BLACK
6
CONTINUOUS
10
0.498198
20
0.72169
11
0.488813
21
0.711187
0
LINE
8
BLACK
6
CONTINUOUS
10
0.488813
20
0.711187
11
0.47831
21
0.701802
0
LINE
8
BLACK
6
CONTINUOUS
10
0.47831
20
0.701802
11
0.466823
21
0.693651
0
LINE
8
BLACK
6
CONTINUOUS
10
0.466823
20
0.693651
11
0.454496
21
0.686838
0
LINE
8
BLACK
6
CONTINUOUS
10
0.454496
20
0.686838
11
0.441483
21
0.681448
0
LINE
8
BLACK
6
CONTINUOUS
10
0.441483
20
0.681448
11
0.427949
21
0.677549
0
LINE
8
BLACK
6
CONTINUOUS
10
0.427949
20
0.677549
11
0.414063
21
0.67519
0
LINE
8
BLACK
6
CONTINUOUS
10
0.414063
20
0.67519
11
0.4
21
0.6744
0
LINE
8
BLACK
6
CONTINUOUS
10
0.4
20
0.6744
11
0.385937
21
0.67519
0
LINE
8
BLACK
6
CONTINUOUS
10
0.385937
20
0.67519
11
0.372051
21
0.677549
0
LINE
8
BLACK
6
CONTINUOUS
10
0.372051
20
0.677549
11
0.358517
21
0.681448
0
LINE
8
BLACK
6
CONTINUOUS
10
0.358517
20
0.681448
11
0.345504
21
0.686838
0
LINE
8
BLACK
6
CONTINUOUS
10
0.345504
20
0.686838
11
0.333177
21
0.693651
0
LINE
8
BLACK
6
CONTINUOUS
10
0.333177
20
0.693651
11
0.32169
21
0.701802
0
LINE
8
BLACK
6
CONTINUOUS
10
0.32169
20
0.701802
11
0.311187
21
0.711187
0
LINE
8
BLACK
6
CONTINUOUS
10
0.311187
20
0.711187
11
0.301802
21
0.72169
0
LINE
8
BLACK
6
CONTINUOUS
10
0.301802
20
0.72169
11
0.293651
21
0.733177
0
LINE
8
BLACK
6
CONTINUOUS
10
0.293651
20
0.733177
11
0.286838
21
0.745504
0
LINE
8
BLACK
6
CONTINUOUS
10
0.286838
20
0.745504
11
0.281448
21
0.758517
0
LINE
8
BLACK
6
CONTINUOUS
10
0.281448
20
0.758517
11
0.277549
21
0.772051
0
LINE
8
BLACK
6
CONTINUOUS
10
0.277549
20
0.772051
11
0.27519
21
0.785937
0
LINE
8
BLACK
6
CONTINUOUS
10
0.27519
20
0.785937
11
0.2744
21
0.8
0
LINE
8
BLACK
6
CONTINUOUS
10
0.2744
20
0.8
11
0.27519
21
0.814063
0
LINE
8
BLACK
6
CONTINUOUS
10
0.27519
20
0.814063
11
0.277549
21
0.827949
0
LINE
8
BLACK
6
CONTINUOUS
10
0.277549
20
0.827949
11
0.281448
21
0.841483
0
LINE
8
BLACK
6
CONTINUOUS
10
0.281448
20
0.841483
11
0.286838
21
0.854496
0
LINE
8
BLACK
6
CONTINUOUS
10
0.286838
20
0.854496
11
0.293651
21
0.866823
0
LINE
8
BLACK
6
CONTINUOUS
10
0.293651
20
0.866823
11
0.301802
21
0.87831
0
LINE
8
BLACK
6
CONTINUOUS
10
0.301802
20
0.87831
11
0.311187
21
0.888813
0
LINE
8
BLACK
6
CONTINUOUS
10
0.311187
20
0.888813
11
0.32169
21
0.898198
0
LINE
8
BLACK
6
CONTINUOUS
10
0.32169
20
0.898198
11
0.333177
21
0.906349
0
LINE
8
BLACK
6
CONTINUOUS
10
0.333177
20
0.906349
11
0.345504
21
0.913162
0
LINE
8
BLACK
6
CONTINUOUS
10
0.345504
20
0.913162
11
0.358517
21
0.918552
0
LINE
8
BLACK
6
CONTINUOUS
10
0.358517
20
0.918552
11
0.372051
21
0.922451
0
LINE
8
BLACK
6
CONTINUOUS
10
0.372051
20
0.922451
11
0.385937
21
0.92481
0
LINE
8
BLACK
6
CONTINUOUS
10
0.385937
20
0.92481
11
0.4
21
0.9256
0
LINE
8
BLACK
6
CONTINUOUS
10
0.4
20
0.9256
11
0.414063
21
0.92481
0
LINE
8
BLACK
6
CONTINUOUS
10
0.289962
20
0.787138
11
0.292199
21
0.774451
0
LINE
8
BLACK
6
CONTINUOUS
10
0.292199
20
0.774451
11
0.295894
21
0.762108
0
LINE
8
BLACK
6
CONTINUOUS
10
0.295894
20
0.762108
11
0.300997
21
0.750279
0
LINE
8
BLACK
6
CONTINUOUS
10
0.300997
20
0.750279
11
0.307438
21
0.739121
0
LINE
8
BLACK
6
CONTINUOUS
10
0.307438
20
0.739121
11
0.315132
21
0.728787
0
LINE
8
BLACK
6
CONTINUOUS
10
0.315132
20
0.728787
11
0.323973
21
0.719416
0
LINE
8
BLACK
6
CONTINUOUS
10
0.323973
20
0.719416
11
0.333842
21
0.711135
0
LINE
8
BLACK
6
CONTINUOUS
10
0.333842
20
0.711135
11
0.344606
21
0.704055
0
LINE
8
BLACK
6
CONTINUOUS
10
0.344606
20
0.704055
11
0.356119
21
0.698273
0
LINE
8
BLACK
6
CONTINUOUS
10
0.356119
20
0.698273
11
0.368226
21
0.693867
0
LINE
8
BLACK
6
CONTINUOUS
10
0.368226
20
0.693867
11
0.380762
21
0.690896
0
LINE
8
BLACK
6
CONTINUOUS
10
0.380762
20
0.690896
11
0.393558
21
0.6894
0
LINE
8
BLACK
6
CONTINUOUS
10
0.393558
20
0.6894
11
0.406442
21
0.6894
0
LINE
8
BLACK
6
CONTINUOUS
10
0.406442
20
0.6894
11
0.419238
21
0.690896
0
LINE
8
BLACK
6
CONTINUOUS
10
0.419238
20
0.690896
11
0.431774
21
0.693867
0
LINE
8
BLACK
6
CONTINUOUS
10
0.431774
20
0.693867
11
0.443881
21
0.698273
0
LINE
8
BLACK
6
CONTINUOUS
10
0.443881
20
0.698273
11
0.455394
21
0.704055
0
LINE
8
BLACK
6
CONTINUOUS
10
0.455394
20
0.704055
11
0.466158
21
0.711135
0
LINE
8
BLACK
6
CONTINUOUS
10
0.466158
20
0.711135
11
0.476027
21
0.719416
0
LINE
8
BLACK
6
CONTINUOUS
10
0.476027
20
0.719416
11
0.484868
21
0.728787
0
LINE
8
BLACK
6
CONTINUOUS
10
0.484868
20
0.728787
11
0.492562
21
0.739121
0
LINE
8
BLACK
6
CONTINUOUS
10
0.492562
20
0.739121
11
0.499003
21
0.750279
0
LINE
8
BLACK
6
CONTINUOUS
10
0.499003
20
0.750279
11
0.504106
21
0.762108
0
LINE
8
BLACK
6
CONTINUOUS
10
0.504106
20
0.762108
11
0.507801
21
0.774451
0
LINE
8
BLACK
6
CONTINUOUS
10
0.507801
20
0.774451
11
0.510038
21
0.787138
0
LINE
8
BLACK
6
CONTINUOUS
10
0.510038
20
0.787138
11
0.510787
21
0.8
0
LINE
8
BLACK
6
CONTINUOUS
10
0.510787
20
0.8
11
0.510038
21
0.812862
0
LINE
8
BLACK
6
CONTINUOUS
10
0.510038
20
0.812862
11
0.507801
21
0.825549
0
LINE
8
BLACK
6
CONTINUOUS
10
0.507801
20
0.825549
11
0.504106
21
0.837892
0
LINE
8
BLACK
6
CONTINUOUS
10
0.504106
20
0.837892
11
0.499003
21
0.849721
0
LINE
8
BLACK
6
CONTINUOUS
10
0.499003
20
0.849721
11
0.492562
21
0.860879
0
LINE
8
BLACK
6
CONTINUOUS
10
0.492562
20
0.860879
11
0.484868
21
0.871213
0
LINE
8
BLACK
6
CONTINUOUS
10
0.484868
20
0.871213
11
0.476027
21
0.880584
0
LINE
8
BLACK
6
CONTINUOUS
10
0.476027
20
0.880584
11
0.466158
21
0.888865
0
LINE
8
BLACK
6
CONTINUOUS
10
0.466158
20
0.888865
11
0.455394
21
0.895945
0
LINE
8
BLACK
6
CONTINUOUS
10
0.455394
20
0.895945
11
0.443881
21
0.901727
0
LINE
8
BLACK
6
CONTINUOUS
10
0.443881
20
0.901727
11
0.431774
21
0.906133
0
LINE
8
BLACK
6
CONTINUOUS
10
0.431774
20
0.906133
11
0.419238
21
0.909104
0
LINE
8
BLACK
6
CONTINUOUS
10
0.419238
20
0.909104
11
0.406442
21
0.9106
0
LINE
8
BLACK
6
CONTINUOUS
10
0.406442
20
0.9106
11
0.393558
21
0.9106
0
LINE
8
BLACK
6
CONTINUOUS
10
0.393558
20
0.9106
11
0.380762
21
0.909104
0
LINE
8
BLACK
6
CONTINUOUS
10
0.380762
20
0.909104
11
0.368226
21
0.906133
0
LINE
8
BLACK
6
CONTINUOUS
10
0.368226
20
0.906133
11
0.356119
21
0.901727
0
LINE
8
BLACK
6
CONTINUOUS
10
0.356119
20
0.901727
11
0.344606
21
0.895945
0
LINE
8
BLACK
6
CONTINUOUS
10
0.344606
20
0.895945
11
0.333842
21
0.888865
0
LINE
8
BLACK
6
CONTINUOUS
10
0.333842
20
0.888865
11
0.323973
21
0.880584
0
LINE
8
BLACK
6
CONTINUOUS
10
0.323973
20
0.880584
11
0.315132
21
0.871213
0
LINE
8
BLACK
6
CONTINUOUS
10
0.315132
20
0.871213
11
0.307438
21
0.860879
0
LINE
8
BLACK
6
CONTINUOUS
10
0.307438
20
0.860879
11
0.300997
21
0.849721
0
LINE
8
BLACK
6
CONTINUOUS
10
0.300997
20
0.849721
11
0.295894
21
0.837892
0
LINE
8
BLACK
6
CONTINUOUS
10
0.295894
20
0.837892
11
0.292199
21
0.825549
0
LINE
8
BLACK
6
CONTINUOUS
10
0.292199
20
0.825549
11
0.289962
21
0.812862
0
LINE
8
BLACK
6
CONTINUOUS
10
0.289962
20
0.812862
11
0.289213
21
0.8
0
LINE
8
BLACK
6
CONTINUOUS
10
0.289213
20
0.8
11
0.289962
21
0.787138
  0
ENDSEC
  0
EOF
