  0
SECTION
  2
HEADER
  9
$ANGBASE
  50
0.0
  9
$ANGDIR
  70
1
  9
$MEASUREMENT
  70
0
  0
ENDSEC
  0
SECTION
  2
TABLES
  0
TABLE
  2
LTYPE
  70
4
  0
LTYPE
  5
40F
  2
CONTINUOUS
  70
0
  3
Solid line
  72
65
  73
0
  40
0.0
  0
LTYPE
  5
410
  2
DASHDOT
 70
0
  3
Dash Dot ____ _ ____ _
 72
65
 73
4
 40
2.0
 49
1.25
 49
-0.25
 49
0.25
 49
-0.25
  0
LTYPE
  5
411
  2
DASHED
 70
0
  3
Dashed __ __ __ __ __
 72
65
 73
2
 40
0.75
 49
0.5
 49
-0.25
  0
LTYPE
  5
43B
  2
DOTTED
 70
0
  3
Dotted .  .  .  .
 72
65
 73
2
 40
0.2
 49
0.0
 49
-0.2
  0
ENDTAB
  0
TABLE
  2
STYLE
  70
4
  0
STYLE
  2
KICAD
  70
0
  40
0
  41
1
  42
1
  50
0
  71
0
  3
isocp.shx
  0
STYLE
  2
KICADB
  70
0
  40
0
  41
1
  42
1
  50
0
  71
0
  3
isocp.shx
  0
STYLE
  2
KICADI
  70
0
  40
0
  41
1
  42
1
  50
15
  71
0
  3
isocp.shx
  0
STYLE
  2
KICADBI
  70
0
  40
0
  41
1
  42
1
  50
15
  71
0
  3
isocp.shx
  0
ENDTAB
  0
TABLE
  2
LAYER
  70
1
  0
LAYER
  2
BLACK
  70
0
  62
7
  6
CONTINUOUS
  0
ENDTAB
  0
ENDSEC
  0
SECTION
  2
ENTITIES
0
LINE
8
BLACK
6
CONTINUOUS
10
0.208717
20
-0.0293059
11
0.217168
21
-0.0315706
0
LINE
8
BLACK
6
CONTINUOUS
10
0.217168
20
-0.0315706
11
0.225098
21
-0.0352684
0
LINE
8
BLACK
6
CONTINUOUS
10
0.225098
20
-0.0352684
11
0.232266
21
-0.0402871
0
LINE
8
BLACK
6
CONTINUOUS
10
0.232266
20
-0.0402871
11
0.238453
21
-0.0464743
0
LINE
8
BLACK
6
CONTINUOUS
10
0.238453
20
-0.0464743
11
0.243472
21
-0.0536417
0
LINE
8
BLACK
6
CONTINUOUS
10
0.243472
20
-0.0536417
11
0.24717
21
-0.0615718
0
LINE
8
BLACK
6
CONTINUOUS
10
0.24717
20
-0.0615718
11
0.249434
21
-0.0700236
0
LINE
8
BLACK
6
CONTINUOUS
10
0.249434
20
-0.0700236
11
0.250197
21
-0.0787402
0
LINE
8
BLACK
6
CONTINUOUS
10
0.250197
20
-0.0787402
11
0.249434
21
-0.0874567
0
LINE
8
BLACK
6
CONTINUOUS
10
0.249434
20
-0.0874567
11
0.24717
21
-0.0959085
0
LINE
8
BLACK
6
CONTINUOUS
10
0.24717
20
-0.0959085
11
0.243472
21
-0.103839
0
LINE
8
BLACK
6
CONTINUOUS
10
0.243472
20
-0.103839
11
0.238453
21
-0.111006
0
LINE
8
BLACK
6
CONTINUOUS
10
0.238453
20
-0.111006
11
0.232266
21
-0.117193
0
LINE
8
BLACK
6
CONTINUOUS
10
0.232266
20
-0.117193
11
0.225098
21
-0.122212
0
LINE
8
BLACK
6
CONTINUOUS
10
0.225098
20
-0.122212
11
0.217168
21
-0.12591
0
LINE
8
BLACK
6
CONTINUOUS
10
0.217168
20
-0.12591
11
0.208717
21
-0.128174
0
LINE
8
BLACK
6
CONTINUOUS
10
0.208717
20
-0.128174
11
0.2
21
-0.128937
0
LINE
8
BLACK
6
CONTINUOUS
10
0.2
20
-0.128937
11
0.191283
21
-0.128174
0
LINE
8
BLACK
6
CONTINUOUS
10
0.191283
20
-0.128174
11
0.182832
21
-0.12591
0
LINE
8
BLACK
6
CONTINUOUS
10
0.182832
20
-0.12591
11
0.174902
21
-0.122212
0
LINE
8
BLACK
6
CONTINUOUS
10
0.174902
20
-0.122212
11
0.167734
21
-0.117193
0
LINE
8
BLACK
6
CONTINUOUS
10
0.167734
20
-0.117193
11
0.161547
21
-0.111006
0
LINE
8
BLACK
6
CONTINUOUS
10
0.161547
20
-0.111006
11
0.156528
21
-0.103839
0
LINE
8
BLACK
6
CONTINUOUS
10
0.156528
20
-0.103839
11
0.15283
21
-0.0959085
0
LINE
8
BLACK
6
CONTINUOUS
10
0.15283
20
-0.0959085
11
0.150566
21
-0.0874567
0
LINE
8
BLACK
6
CONTINUOUS
10
0.150566
20
-0.0874567
11
0.149803
21
-0.0787402
0
LINE
8
BLACK
6
CONTINUOUS
10
0.149803
20
-0.0787402
11
0.150566
21
-0.0700236
0
LINE
8
BLACK
6
CONTINUOUS
10
0.150566
20
-0.0700236
11
0.15283
21
-0.0615718
0
LINE
8
BLACK
6
CONTINUOUS
10
0.15283
20
-0.0615718
11
0.156528
21
-0.0536417
0
LINE
8
BLACK
6
CONTINUOUS
10
0.156528
20
-0.0536417
11
0.161547
21
-0.0464743
0
LINE
8
BLACK
6
CONTINUOUS
10
0.161547
20
-0.0464743
11
0.167734
21
-0.0402871
0
LINE
8
BLACK
6
CONTINUOUS
10
0.167734
20
-0.0402871
11
0.174902
21
-0.0352684
0
LINE
8
BLACK
6
CONTINUOUS
10
0.174902
20
-0.0352684
11
0.182832
21
-0.0315706
0
LINE
8
BLACK
6
CONTINUOUS
10
0.182832
20
-0.0315706
11
0.191283
21
-0.0293059
0
LINE
8
BLACK
6
CONTINUOUS
10
0.191283
20
-0.0293059
11
0.2
21
-0.0285433
0
LINE
8
BLACK
6
CONTINUOUS
10
0.2
20
-0.0285433
11
0.208717
21
-0.0293059
0
LINE
8
BLACK
6
CONTINUOUS
10
0.152323
20
-0.0871469
11
0.154507
21
-0.0952982
0
LINE
8
BLACK
6
CONTINUOUS
10
0.154507
20
-0.0952982
11
0.158074
21
-0.102946
0
LINE
8
BLACK
6
CONTINUOUS
10
0.158074
20
-0.102946
11
0.162914
21
-0.109859
0
LINE
8
BLACK
6
CONTINUOUS
10
0.162914
20
-0.109859
11
0.168881
21
-0.115826
0
LINE
8
BLACK
6
CONTINUOUS
10
0.168881
20
-0.115826
11
0.175794
21
-0.120667
0
LINE
8
BLACK
6
CONTINUOUS
10
0.175794
20
-0.120667
11
0.183442
21
-0.124233
0
LINE
8
BLACK
6
CONTINUOUS
10
0.183442
20
-0.124233
11
0.191593
21
-0.126417
0
LINE
8
BLACK
6
CONTINUOUS
10
0.191593
20
-0.126417
11
0.2
21
-0.127153
0
LINE
8
BLACK
6
CONTINUOUS
10
0.2
20
-0.127153
11
0.208407
21
-0.126417
0
LINE
8
BLACK
6
CONTINUOUS
10
0.208407
20
-0.126417
11
0.216558
21
-0.124233
0
LINE
8
BLACK
6
CONTINUOUS
10
0.216558
20
-0.124233
11
0.224206
21
-0.120667
0
LINE
8
BLACK
6
CONTINUOUS
10
0.224206
20
-0.120667
11
0.231119
21
-0.115826
0
LINE
8
BLACK
6
CONTINUOUS
10
0.231119
20
-0.115826
11
0.237086
21
-0.109859
0
LINE
8
BLACK
6
CONTINUOUS
10
0.237086
20
-0.109859
11
0.241926
21
-0.102946
0
LINE
8
BLACK
6
CONTINUOUS
10
0.241926
20
-0.102946
11
0.245493
21
-0.0952982
0
LINE
8
BLACK
6
CONTINUOUS
10
0.245493
20
-0.0952982
11
0.247677
21
-0.0871469
0
LINE
8
BLACK
6
CONTINUOUS
10
0.247677
20
-0.0871469
11
0.248413
21
-0.0787402
0
LINE
8
BLACK
6
CONTINUOUS
10
0.248413
20
-0.0787402
11
0.247677
21
-0.0703334
0
LINE
8
BLACK
6
CONTINUOUS
10
0.247677
20
-0.0703334
11
0.245493
21
-0.0621821
0
LINE
8
BLACK
6
CONTINUOUS
10
0.245493
20
-0.0621821
11
0.241926
21
-0.0545339
0
LINE
8
BLACK
6
CONTINUOUS
10
0.241926
20
-0.0545339
11
0.237086
21
-0.0476212
0
LINE
8
BLACK
6
CONTINUOUS
10
0.237086
20
-0.0476212
11
0.231119
21
-0.041654
0
LINE
8
BLACK
6
CONTINUOUS
10
0.231119
20
-0.041654
11
0.224206
21
-0.0368137
0
LINE
8
BLACK
6
CONTINUOUS
10
0.224206
20
-0.0368137
11
0.216558
21
-0.0332472
0
LINE
8
BLACK
6
CONTINUOUS
10
0.216558
20
-0.0332472
11
0.208407
21
-0.0310631
0
LINE
8
BLACK
6
CONTINUOUS
10
0.208407
20
-0.0310631
11
0.2
21
-0.0303276
0
LINE
8
BLACK
6
CONTINUOUS
10
0.2
20
-0.0303276
11
0.191593
21
-0.0310631
0
LINE
8
BLACK
6
CONTINUOUS
10
0.191593
20
-0.0310631
11
0.183442
21
-0.0332472
0
LINE
8
BLACK
6
CONTINUOUS
10
0.183442
20
-0.0332472
11
0.175794
21
-0.0368137
0
LINE
8
BLACK
6
CONTINUOUS
10
0.175794
20
-0.0368137
11
0.168881
21
-0.041654
0
LINE
8
BLACK
6
CONTINUOUS
10
0.168881
20
-0.041654
11
0.162914
21
-0.0476212
0
LINE
8
BLACK
6
CONTINUOUS
10
0.162914
20
-0.0476212
11
0.158074
21
-0.0545339
0
LINE
8
BLACK
6
CONTINUOUS
10
0.158074
20
-0.0545339
11
0.154507
21
-0.0621821
0
LINE
8
BLACK
6
CONTINUOUS
10
0.154507
20
-0.0621821
11
0.152323
21
-0.0703334
0
LINE
8
BLACK
6
CONTINUOUS
10
0.152323
20
-0.0703334
11
0.151587
21
-0.0787402
0
LINE
8
BLACK
6
CONTINUOUS
10
0.151587
20
-0.0787402
11
0.152323
21
-0.0871469
0
LINE
8
BLACK
6
CONTINUOUS
10
0.220472
20
0.208858
11
0.221168
21
0.20857
0
LINE
8
BLACK
6
CONTINUOUS
10
0.221168
20
0.20857
11
0.221457
21
0.207874
0
LINE
8
BLACK
6
CONTINUOUS
10
0.221457
20
0.207874
11
0.221457
21
0.130906
0
LINE
8
BLACK
6
CONTINUOUS
10
0.221457
20
0.130906
11
0.23937
21
0.130906
0
LINE
8
BLACK
6
CONTINUOUS
10
0.23937
20
0.130906
11
0.240066
21
0.130617
0
LINE
8
BLACK
6
CONTINUOUS
10
0.240066
20
0.130617
11
0.240354
21
0.129921
0
LINE
8
BLACK
6
CONTINUOUS
10
0.240354
20
0.129921
11
0.240354
21
-0.00393701
0
LINE
8
BLACK
6
CONTINUOUS
10
0.240354
20
-0.00393701
11
0.240066
21
-0.00463299
0
LINE
8
BLACK
6
CONTINUOUS
10
0.240066
20
-0.00463299
11
0.23937
21
-0.00492126
0
LINE
8
BLACK
6
CONTINUOUS
10
0.23937
20
-0.00492126
11
0.162205
21
-0.00492126
0
LINE
8
BLACK
6
CONTINUOUS
10
0.162205
20
-0.00492126
11
0.161509
21
-0.00463299
0
LINE
8
BLACK
6
CONTINUOUS
10
0.161509
20
-0.00463299
11
0.16122
21
-0.00393701
0
LINE
8
BLACK
6
CONTINUOUS
10
0.16122
20
-0.00393701
11
0.16122
21
-0.00393697
0
LINE
8
BLACK
6
CONTINUOUS
10
0.16122
20
-0.00393697
11
0.16122
21
0.129724
0
LINE
8
BLACK
6
CONTINUOUS
10
0.16122
20
0.129724
11
0.0866142
21
0.129724
0
LINE
8
BLACK
6
CONTINUOUS
10
0.0866142
20
0.129724
11
0.0859182
21
0.130013
0
LINE
8
BLACK
6
CONTINUOUS
10
0.0859182
20
0.130013
11
0.0856299
21
0.130709
0
LINE
8
BLACK
6
CONTINUOUS
10
0.0856299
20
0.130709
11
0.0856299
21
0.207874
0
LINE
8
BLACK
6
CONTINUOUS
10
0.0856299
20
0.207874
11
0.0859182
21
0.20857
0
LINE
8
BLACK
6
CONTINUOUS
10
0.0859182
20
0.20857
11
0.0866142
21
0.208858
0
LINE
8
BLACK
6
CONTINUOUS
10
0.0866142
20
0.208858
11
0.220472
21
0.208858
0
LINE
8
BLACK
6
CONTINUOUS
10
0.163189
20
0.128937
11
0.163189
21
-0.00295276
0
LINE
8
BLACK
6
CONTINUOUS
10
0.163189
20
-0.00295276
11
0.238386
21
-0.00295276
0
LINE
8
BLACK
6
CONTINUOUS
10
0.238386
20
-0.00295276
11
0.238386
21
0.128937
0
LINE
8
BLACK
6
CONTINUOUS
10
0.238386
20
0.128937
11
0.163189
21
0.128937
0
LINE
8
BLACK
6
CONTINUOUS
10
0.0875984
20
0.20689
11
0.0875984
21
0.131693
0
LINE
8
BLACK
6
CONTINUOUS
10
0.0875984
20
0.131693
11
0.219488
21
0.131693
0
LINE
8
BLACK
6
CONTINUOUS
10
0.219488
20
0.131693
11
0.219488
21
0.20689
0
LINE
8
BLACK
6
CONTINUOUS
10
0.219488
20
0.20689
11
0.0875984
21
0.20689
0
LINE
8
BLACK
6
CONTINUOUS
10
0.222323
20
0.440748
11
0.223019
21
0.44046
0
LINE
8
BLACK
6
CONTINUOUS
10
0.223019
20
0.44046
11
0.223307
21
0.439764
0
LINE
8
BLACK
6
CONTINUOUS
10
0.223307
20
0.439764
11
0.223307
21
0.210236
0
LINE
8
BLACK
6
CONTINUOUS
10
0.223307
20
0.210236
11
0.223019
21
0.20954
0
LINE
8
BLACK
6
CONTINUOUS
10
0.223019
20
0.20954
11
0.222323
21
0.209252
0
LINE
8
BLACK
6
CONTINUOUS
10
0.222323
20
0.209252
11
-0.151693
21
0.209252
0
LINE
8
BLACK
6
CONTINUOUS
10
-0.151693
20
0.209252
11
-0.152389
21
0.20954
0
LINE
8
BLACK
6
CONTINUOUS
10
-0.152389
20
0.20954
11
-0.152677
21
0.210236
0
LINE
8
BLACK
6
CONTINUOUS
10
-0.152677
20
0.210236
11
-0.152677
21
0.439764
0
LINE
8
BLACK
6
CONTINUOUS
10
-0.152677
20
0.439764
11
-0.152389
21
0.44046
0
LINE
8
BLACK
6
CONTINUOUS
10
-0.152389
20
0.44046
11
-0.151693
21
0.440748
0
LINE
8
BLACK
6
CONTINUOUS
10
-0.151693
20
0.440748
11
0.222323
21
0.440748
0
LINE
8
BLACK
6
CONTINUOUS
10
-0.150709
20
0.43878
11
-0.150709
21
0.21122
0
LINE
8
BLACK
6
CONTINUOUS
10
-0.150709
20
0.21122
11
0.221339
21
0.21122
0
LINE
8
BLACK
6
CONTINUOUS
10
0.221339
20
0.21122
11
0.221339
21
0.43878
0
LINE
8
BLACK
6
CONTINUOUS
10
0.221339
20
0.43878
11
-0.150709
21
0.43878
0
LINE
8
BLACK
6
CONTINUOUS
10
0.570472
20
0.59626
11
0.571168
21
0.595972
0
LINE
8
BLACK
6
CONTINUOUS
10
0.571168
20
0.595972
11
0.571457
21
0.595276
0
LINE
8
BLACK
6
CONTINUOUS
10
0.571457
20
0.595276
11
0.571457
21
0.422047
0
LINE
8
BLACK
6
CONTINUOUS
10
0.571457
20
0.422047
11
0.571168
21
0.421351
0
LINE
8
BLACK
6
CONTINUOUS
10
0.571168
20
0.421351
11
0.570472
21
0.421063
0
LINE
8
BLACK
6
CONTINUOUS
10
0.570472
20
0.421063
11
0.479921
21
0.421063
0
LINE
8
BLACK
6
CONTINUOUS
10
0.479921
20
0.421063
11
0.479225
21
0.421351
0
LINE
8
BLACK
6
CONTINUOUS
10
0.479225
20
0.421351
11
0.478937
21
0.422047
0
LINE
8
BLACK
6
CONTINUOUS
10
0.478937
20
0.422047
11
0.478937
21
0.595276
0
LINE
8
BLACK
6
CONTINUOUS
10
0.478937
20
0.595276
11
0.479225
21
0.595972
0
LINE
8
BLACK
6
CONTINUOUS
10
0.479225
20
0.595972
11
0.479921
21
0.59626
0
LINE
8
BLACK
6
CONTINUOUS
10
0.479921
20
0.59626
11
0.570472
21
0.59626
0
LINE
8
BLACK
6
CONTINUOUS
10
0.480906
20
0.594291
11
0.480906
21
0.423031
0
LINE
8
BLACK
6
CONTINUOUS
10
0.480906
20
0.423031
11
0.569488
21
0.423031
0
LINE
8
BLACK
6
CONTINUOUS
10
0.569488
20
0.423031
11
0.569488
21
0.594291
0
LINE
8
BLACK
6
CONTINUOUS
10
0.569488
20
0.594291
11
0.480906
21
0.594291
0
LINE
8
BLACK
6
CONTINUOUS
10
0.208717
20
0.758096
11
0.217168
21
0.755831
0
LINE
8
BLACK
6
CONTINUOUS
10
0.217168
20
0.755831
11
0.225098
21
0.752133
0
LINE
8
BLACK
6
CONTINUOUS
10
0.225098
20
0.752133
11
0.232266
21
0.747114
0
LINE
8
BLACK
6
CONTINUOUS
10
0.232266
20
0.747114
11
0.238453
21
0.740927
0
LINE
8
BLACK
6
CONTINUOUS
10
0.238453
20
0.740927
11
0.243472
21
0.73376
0
LINE
8
BLACK
6
CONTINUOUS
10
0.243472
20
0.73376
11
0.24717
21
0.72583
0
LINE
8
BLACK
6
CONTINUOUS
10
0.24717
20
0.72583
11
0.249434
21
0.717378
0
LINE
8
BLACK
6
CONTINUOUS
10
0.249434
20
0.717378
11
0.250197
21
0.708661
0
LINE
8
BLACK
6
CONTINUOUS
10
0.250197
20
0.708661
11
0.249434
21
0.699945
0
LINE
8
BLACK
6
CONTINUOUS
10
0.249434
20
0.699945
11
0.24717
21
0.691493
0
LINE
8
BLACK
6
CONTINUOUS
10
0.24717
20
0.691493
11
0.243472
21
0.683563
0
LINE
8
BLACK
6
CONTINUOUS
10
0.243472
20
0.683563
11
0.238453
21
0.676396
0
LINE
8
BLACK
6
CONTINUOUS
10
0.238453
20
0.676396
11
0.232266
21
0.670208
0
LINE
8
BLACK
6
CONTINUOUS
10
0.232266
20
0.670208
11
0.225098
21
0.66519
0
LINE
8
BLACK
6
CONTINUOUS
10
0.225098
20
0.66519
11
0.217168
21
0.661492
0
LINE
8
BLACK
6
CONTINUOUS
10
0.217168
20
0.661492
11
0.208717
21
0.659227
0
LINE
8
BLACK
6
CONTINUOUS
10
0.208717
20
0.659227
11
0.2
21
0.658465
0
LINE
8
BLACK
6
CONTINUOUS
10
0.2
20
0.658465
11
0.191283
21
0.659227
0
LINE
8
BLACK
6
CONTINUOUS
10
0.191283
20
0.659227
11
0.182832
21
0.661492
0
LINE
8
BLACK
6
CONTINUOUS
10
0.182832
20
0.661492
11
0.174902
21
0.66519
0
LINE
8
BLACK
6
CONTINUOUS
10
0.174902
20
0.66519
11
0.167734
21
0.670208
0
LINE
8
BLACK
6
CONTINUOUS
10
0.167734
20
0.670208
11
0.161547
21
0.676396
0
LINE
8
BLACK
6
CONTINUOUS
10
0.161547
20
0.676396
11
0.156528
21
0.683563
0
LINE
8
BLACK
6
CONTINUOUS
10
0.156528
20
0.683563
11
0.15283
21
0.691493
0
LINE
8
BLACK
6
CONTINUOUS
10
0.15283
20
0.691493
11
0.150566
21
0.699945
0
LINE
8
BLACK
6
CONTINUOUS
10
0.150566
20
0.699945
11
0.149803
21
0.708661
0
LINE
8
BLACK
6
CONTINUOUS
10
0.149803
20
0.708661
11
0.150566
21
0.717378
0
LINE
8
BLACK
6
CONTINUOUS
10
0.150566
20
0.717378
11
0.15283
21
0.72583
0
LINE
8
BLACK
6
CONTINUOUS
10
0.15283
20
0.72583
11
0.156528
21
0.73376
0
LINE
8
BLACK
6
CONTINUOUS
10
0.156528
20
0.73376
11
0.161547
21
0.740927
0
LINE
8
BLACK
6
CONTINUOUS
10
0.161547
20
0.740927
11
0.167734
21
0.747114
0
LINE
8
BLACK
6
CONTINUOUS
10
0.167734
20
0.747114
11
0.174902
21
0.752133
0
LINE
8
BLACK
6
CONTINUOUS
10
0.174902
20
0.752133
11
0.182832
21
0.755831
0
LINE
8
BLACK
6
CONTINUOUS
10
0.182832
20
0.755831
11
0.191283
21
0.758096
0
LINE
8
BLACK
6
CONTINUOUS
10
0.191283
20
0.758096
11
0.2
21
0.758858
0
LINE
8
BLACK
6
CONTINUOUS
10
0.2
20
0.758858
11
0.208717
21
0.758096
0
LINE
8
BLACK
6
CONTINUOUS
10
0.152323
20
0.700255
11
0.154507
21
0.692103
0
LINE
8
BLACK
6
CONTINUOUS
10
0.154507
20
0.692103
11
0.158074
21
0.684455
0
LINE
8
BLACK
6
CONTINUOUS
10
0.158074
20
0.684455
11
0.162914
21
0.677542
0
LINE
8
BLACK
6
CONTINUOUS
10
0.162914
20
0.677542
11
0.168881
21
0.671575
0
LINE
8
BLACK
6
CONTINUOUS
10
0.168881
20
0.671575
11
0.175794
21
0.666735
0
LINE
8
BLACK
6
CONTINUOUS
10
0.175794
20
0.666735
11
0.183442
21
0.663169
0
LINE
8
BLACK
6
CONTINUOUS
10
0.183442
20
0.663169
11
0.191593
21
0.660984
0
LINE
8
BLACK
6
CONTINUOUS
10
0.191593
20
0.660984
11
0.2
21
0.660249
0
LINE
8
BLACK
6
CONTINUOUS
10
0.2
20
0.660249
11
0.208407
21
0.660984
0
LINE
8
BLACK
6
CONTINUOUS
10
0.208407
20
0.660984
11
0.216558
21
0.663169
0
LINE
8
BLACK
6
CONTINUOUS
10
0.216558
20
0.663169
11
0.224206
21
0.666735
0
LINE
8
BLACK
6
CONTINUOUS
10
0.224206
20
0.666735
11
0.231119
21
0.671575
0
LINE
8
BLACK
6
CONTINUOUS
10
0.231119
20
0.671575
11
0.237086
21
0.677542
0
LINE
8
BLACK
6
CONTINUOUS
10
0.237086
20
0.677542
11
0.241926
21
0.684455
0
LINE
8
BLACK
6
CONTINUOUS
10
0.241926
20
0.684455
11
0.245493
21
0.692103
0
LINE
8
BLACK
6
CONTINUOUS
10
0.245493
20
0.692103
11
0.247677
21
0.700255
0
LINE
8
BLACK
6
CONTINUOUS
10
0.247677
20
0.700255
11
0.248413
21
0.708661
0
LINE
8
BLACK
6
CONTINUOUS
10
0.248413
20
0.708661
11
0.247677
21
0.717068
0
LINE
8
BLACK
6
CONTINUOUS
10
0.247677
20
0.717068
11
0.245493
21
0.725219
0
LINE
8
BLACK
6
CONTINUOUS
10
0.245493
20
0.725219
11
0.241926
21
0.732868
0
LINE
8
BLACK
6
CONTINUOUS
10
0.241926
20
0.732868
11
0.237086
21
0.73978
0
LINE
8
BLACK
6
CONTINUOUS
10
0.237086
20
0.73978
11
0.231119
21
0.745748
0
LINE
8
BLACK
6
CONTINUOUS
10
0.231119
20
0.745748
11
0.224206
21
0.750588
0
LINE
8
BLACK
6
CONTINUOUS
10
0.224206
20
0.750588
11
0.216558
21
0.754154
0
LINE
8
BLACK
6
CONTINUOUS
10
0.216558
20
0.754154
11
0.208407
21
0.756338
0
LINE
8
BLACK
6
CONTINUOUS
10
0.208407
20
0.756338
11
0.2
21
0.757074
0
LINE
8
BLACK
6
CONTINUOUS
10
0.2
20
0.757074
11
0.191593
21
0.756338
0
LINE
8
BLACK
6
CONTINUOUS
10
0.191593
20
0.756338
11
0.183442
21
0.754154
0
LINE
8
BLACK
6
CONTINUOUS
10
0.183442
20
0.754154
11
0.175794
21
0.750588
0
LINE
8
BLACK
6
CONTINUOUS
10
0.175794
20
0.750588
11
0.168881
21
0.745748
0
LINE
8
BLACK
6
CONTINUOUS
10
0.168881
20
0.745748
11
0.162914
21
0.73978
0
LINE
8
BLACK
6
CONTINUOUS
10
0.162914
20
0.73978
11
0.158074
21
0.732868
0
LINE
8
BLACK
6
CONTINUOUS
10
0.158074
20
0.732868
11
0.154507
21
0.725219
0
LINE
8
BLACK
6
CONTINUOUS
10
0.154507
20
0.725219
11
0.152323
21
0.717068
0
LINE
8
BLACK
6
CONTINUOUS
10
0.152323
20
0.717068
11
0.151587
21
0.708661
0
LINE
8
BLACK
6
CONTINUOUS
10
0.151587
20
0.708661
11
0.152323
21
0.700255
  0
ENDSEC
  0
EOF
