  0
SECTION
  2
HEADER
  9
$ANGBASE
  50
0.0
  9
$ANGDIR
  70
1
  9
$MEASUREMENT
  70
0
  0
ENDSEC
  0
SECTION
  2
TABLES
  0
TABLE
  2
LTYPE
  70
4
  0
LTYPE
  5
40F
  2
CONTINUOUS
  70
0
  3
Solid line
  72
65
  73
0
  40
0.0
  0
LTYPE
  5
410
  2
DASHDOT
 70
0
  3
Dash Dot ____ _ ____ _
 72
65
 73
4
 40
2.0
 49
1.25
 49
-0.25
 49
0.25
 49
-0.25
  0
LTYPE
  5
411
  2
DASHED
 70
0
  3
Dashed __ __ __ __ __
 72
65
 73
2
 40
0.75
 49
0.5
 49
-0.25
  0
LTYPE
  5
43B
  2
DOTTED
 70
0
  3
Dotted .  .  .  .
 72
65
 73
2
 40
0.2
 49
0.0
 49
-0.2
  0
ENDTAB
  0
TABLE
  2
STYLE
  70
4
  0
STYLE
  2
KICAD
  70
0
  40
0
  41
1
  42
1
  50
0
  71
0
  3
isocp.shx
  0
STYLE
  2
KICADB
  70
0
  40
0
  41
1
  42
1
  50
0
  71
0
  3
isocp.shx
  0
STYLE
  2
KICADI
  70
0
  40
0
  41
1
  42
1
  50
15
  71
0
  3
isocp.shx
  0
STYLE
  2
KICADBI
  70
0
  40
0
  41
1
  42
1
  50
15
  71
0
  3
isocp.shx
  0
ENDTAB
  0
TABLE
  2
LAYER
  70
1
  0
LAYER
  2
BLACK
  70
0
  62
7
  6
CONTINUOUS
  0
ENDTAB
  0
ENDSEC
  0
SECTION
  2
ENTITIES
0
LINE
8
BLACK
6
CONTINUOUS
10
5.23081
20
-2.8323
11
5.23292
21
-2.83047
0
LINE
8
BLACK
6
CONTINUOUS
10
5.23292
20
-2.83047
11
5.23498
21
-2.83002
0
LINE
8
BLACK
6
CONTINUOUS
10
5.23498
20
-2.83002
11
5.96502
21
-2.83002
0
LINE
8
BLACK
6
CONTINUOUS
10
5.96502
20
-2.83002
11
5.9677
21
-2.83081
0
LINE
8
BLACK
6
CONTINUOUS
10
5.9677
20
-2.83081
11
5.96953
21
-2.83292
0
LINE
8
BLACK
6
CONTINUOUS
10
5.96953
20
-2.83292
11
5.96998
21
-2.83498
0
LINE
8
BLACK
6
CONTINUOUS
10
5.96998
20
-2.83498
11
5.96998
21
-3.96502
0
LINE
8
BLACK
6
CONTINUOUS
10
5.96998
20
-3.96502
11
5.96919
21
-3.9677
0
LINE
8
BLACK
6
CONTINUOUS
10
5.96919
20
-3.9677
11
5.96708
21
-3.96953
0
LINE
8
BLACK
6
CONTINUOUS
10
5.96708
20
-3.96953
11
5.96502
21
-3.96998
0
LINE
8
BLACK
6
CONTINUOUS
10
5.96502
20
-3.96998
11
5.23498
21
-3.96998
0
LINE
8
BLACK
6
CONTINUOUS
10
5.23498
20
-3.96998
11
5.2323
21
-3.96919
0
LINE
8
BLACK
6
CONTINUOUS
10
5.2323
20
-3.96919
11
5.23047
21
-3.96708
0
LINE
8
BLACK
6
CONTINUOUS
10
5.23047
20
-3.96708
11
5.23002
21
-3.96502
0
LINE
8
BLACK
6
CONTINUOUS
10
5.23002
20
-3.96502
11
5.23002
21
-2.83498
0
LINE
8
BLACK
6
CONTINUOUS
10
5.23002
20
-2.83498
11
5.23081
21
-2.8323
0
LINE
8
BLACK
6
CONTINUOUS
10
5.86023
20
-3.59993
11
5.86053
21
-3.6
0
LINE
8
BLACK
6
CONTINUOUS
10
5.86053
20
-3.6
11
5.88176
21
-3.6
0
LINE
8
BLACK
6
CONTINUOUS
10
5.88176
20
-3.6
11
5.88203
21
-3.59999
0
LINE
8
BLACK
6
CONTINUOUS
10
5.88203
20
-3.59999
11
5.88403
21
-3.59977
0
LINE
8
BLACK
6
CONTINUOUS
10
5.88403
20
-3.59977
11
5.88463
21
-3.59963
0
LINE
8
BLACK
6
CONTINUOUS
10
5.88463
20
-3.59963
11
5.88937
21
-3.59785
0
LINE
8
BLACK
6
CONTINUOUS
10
5.88937
20
-3.59785
11
5.88999
21
-3.59751
0
LINE
8
BLACK
6
CONTINUOUS
10
5.88999
20
-3.59751
11
5.894
21
-3.5945
0
LINE
8
BLACK
6
CONTINUOUS
10
5.894
20
-3.5945
11
5.8945
21
-3.594
0
LINE
8
BLACK
6
CONTINUOUS
10
5.8945
20
-3.594
11
5.89751
21
-3.58999
0
LINE
8
BLACK
6
CONTINUOUS
10
5.89751
20
-3.58999
11
5.89785
21
-3.58937
0
LINE
8
BLACK
6
CONTINUOUS
10
5.89785
20
-3.58937
11
5.89963
21
-3.58463
0
LINE
8
BLACK
6
CONTINUOUS
10
5.89963
20
-3.58463
11
5.89977
21
-3.58403
0
LINE
8
BLACK
6
CONTINUOUS
10
5.89977
20
-3.58403
11
5.89999
21
-3.58203
0
LINE
8
BLACK
6
CONTINUOUS
10
5.89999
20
-3.58203
11
5.9
21
-3.58176
0
LINE
8
BLACK
6
CONTINUOUS
10
5.9
20
-3.58176
11
5.9
21
-3.56071
0
LINE
8
BLACK
6
CONTINUOUS
10
5.9
20
-3.56071
11
5.89982
21
-3.56011
0
LINE
8
BLACK
6
CONTINUOUS
10
5.89982
20
-3.56011
11
5.89977
21
-3.56007
0
LINE
8
BLACK
6
CONTINUOUS
10
5.89977
20
-3.56007
11
5.89947
21
-3.56
0
LINE
8
BLACK
6
CONTINUOUS
10
5.89947
20
-3.56
11
5.88
21
-3.56
0
LINE
8
BLACK
6
CONTINUOUS
10
5.88
20
-3.56
11
5.88
21
-3.58
0
LINE
8
BLACK
6
CONTINUOUS
10
5.88
20
-3.58
11
5.86
21
-3.58
0
LINE
8
BLACK
6
CONTINUOUS
10
5.86
20
-3.58
11
5.86
21
-3.59929
0
LINE
8
BLACK
6
CONTINUOUS
10
5.86
20
-3.59929
11
5.86018
21
-3.59989
0
LINE
8
BLACK
6
CONTINUOUS
10
5.86018
20
-3.59989
11
5.86023
21
-3.59993
0
LINE
8
BLACK
6
CONTINUOUS
10
5.88
20
-3.46
11
5.88
21
-3.48
0
LINE
8
BLACK
6
CONTINUOUS
10
5.88
20
-3.48
11
5.86
21
-3.48
0
LINE
8
BLACK
6
CONTINUOUS
10
5.86
20
-3.48
11
5.86
21
-3.52
0
LINE
8
BLACK
6
CONTINUOUS
10
5.86
20
-3.52
11
5.88
21
-3.52
0
LINE
8
BLACK
6
CONTINUOUS
10
5.88
20
-3.52
11
5.88
21
-3.54
0
LINE
8
BLACK
6
CONTINUOUS
10
5.88
20
-3.54
11
5.89929
21
-3.54
0
LINE
8
BLACK
6
CONTINUOUS
10
5.89929
20
-3.54
11
5.89989
21
-3.53982
0
LINE
8
BLACK
6
CONTINUOUS
10
5.89989
20
-3.53982
11
5.89993
21
-3.53977
0
LINE
8
BLACK
6
CONTINUOUS
10
5.89993
20
-3.53977
11
5.9
21
-3.53947
0
LINE
8
BLACK
6
CONTINUOUS
10
5.9
20
-3.53947
11
5.9
21
-3.51824
0
LINE
8
BLACK
6
CONTINUOUS
10
5.9
20
-3.51824
11
5.89999
21
-3.51797
0
LINE
8
BLACK
6
CONTINUOUS
10
5.89999
20
-3.51797
11
5.89977
21
-3.51597
0
LINE
8
BLACK
6
CONTINUOUS
10
5.89977
20
-3.51597
11
5.89963
21
-3.51537
0
LINE
8
BLACK
6
CONTINUOUS
10
5.89963
20
-3.51537
11
5.89785
21
-3.51063
0
LINE
8
BLACK
6
CONTINUOUS
10
5.89785
20
-3.51063
11
5.89751
21
-3.51001
0
LINE
8
BLACK
6
CONTINUOUS
10
5.89751
20
-3.51001
11
5.8945
21
-3.506
0
LINE
8
BLACK
6
CONTINUOUS
10
5.8945
20
-3.506
11
5.894
21
-3.5055
0
LINE
8
BLACK
6
CONTINUOUS
10
5.894
20
-3.5055
11
5.89196
21
-3.50397
0
LINE
8
BLACK
6
CONTINUOUS
10
5.89196
20
-3.50397
11
5.89029
21
-3.50173
0
LINE
8
BLACK
6
CONTINUOUS
10
5.89029
20
-3.50173
11
5.89009
21
-3.49894
0
LINE
8
BLACK
6
CONTINUOUS
10
5.89009
20
-3.49894
11
5.89143
21
-3.49649
0
LINE
8
BLACK
6
CONTINUOUS
10
5.89143
20
-3.49649
11
5.89196
21
-3.49603
0
LINE
8
BLACK
6
CONTINUOUS
10
5.89196
20
-3.49603
11
5.894
21
-3.4945
0
LINE
8
BLACK
6
CONTINUOUS
10
5.894
20
-3.4945
11
5.8945
21
-3.494
0
LINE
8
BLACK
6
CONTINUOUS
10
5.8945
20
-3.494
11
5.89751
21
-3.48999
0
LINE
8
BLACK
6
CONTINUOUS
10
5.89751
20
-3.48999
11
5.89785
21
-3.48937
0
LINE
8
BLACK
6
CONTINUOUS
10
5.89785
20
-3.48937
11
5.89963
21
-3.48463
0
LINE
8
BLACK
6
CONTINUOUS
10
5.89963
20
-3.48463
11
5.89977
21
-3.48403
0
LINE
8
BLACK
6
CONTINUOUS
10
5.89977
20
-3.48403
11
5.89999
21
-3.48203
0
LINE
8
BLACK
6
CONTINUOUS
10
5.89999
20
-3.48203
11
5.9
21
-3.48176
0
LINE
8
BLACK
6
CONTINUOUS
10
5.9
20
-3.48176
11
5.9
21
-3.46071
0
LINE
8
BLACK
6
CONTINUOUS
10
5.9
20
-3.46071
11
5.89982
21
-3.46011
0
LINE
8
BLACK
6
CONTINUOUS
10
5.89982
20
-3.46011
11
5.89977
21
-3.46007
0
LINE
8
BLACK
6
CONTINUOUS
10
5.89977
20
-3.46007
11
5.89947
21
-3.46
0
LINE
8
BLACK
6
CONTINUOUS
10
5.89947
20
-3.46
11
5.88
21
-3.46
0
LINE
8
BLACK
6
CONTINUOUS
10
5.82
20
-3.58
11
5.82
21
-3.52
0
LINE
8
BLACK
6
CONTINUOUS
10
5.82
20
-3.52
11
5.84
21
-3.52
0
LINE
8
BLACK
6
CONTINUOUS
10
5.84
20
-3.52
11
5.84
21
-3.48
0
LINE
8
BLACK
6
CONTINUOUS
10
5.84
20
-3.48
11
5.82
21
-3.48
0
LINE
8
BLACK
6
CONTINUOUS
10
5.82
20
-3.48
11
5.82
21
-3.42
0
LINE
8
BLACK
6
CONTINUOUS
10
5.82
20
-3.42
11
5.88
21
-3.42
0
LINE
8
BLACK
6
CONTINUOUS
10
5.88
20
-3.42
11
5.88
21
-3.44
0
LINE
8
BLACK
6
CONTINUOUS
10
5.88
20
-3.44
11
5.89929
21
-3.44
0
LINE
8
BLACK
6
CONTINUOUS
10
5.89929
20
-3.44
11
5.89989
21
-3.43982
0
LINE
8
BLACK
6
CONTINUOUS
10
5.89989
20
-3.43982
11
5.89993
21
-3.43977
0
LINE
8
BLACK
6
CONTINUOUS
10
5.89993
20
-3.43977
11
5.9
21
-3.43947
0
LINE
8
BLACK
6
CONTINUOUS
10
5.9
20
-3.43947
11
5.9
21
-3.41824
0
LINE
8
BLACK
6
CONTINUOUS
10
5.9
20
-3.41824
11
5.89999
21
-3.41797
0
LINE
8
BLACK
6
CONTINUOUS
10
5.89999
20
-3.41797
11
5.89977
21
-3.41597
0
LINE
8
BLACK
6
CONTINUOUS
10
5.89977
20
-3.41597
11
5.89963
21
-3.41537
0
LINE
8
BLACK
6
CONTINUOUS
10
5.89963
20
-3.41537
11
5.89785
21
-3.41063
0
LINE
8
BLACK
6
CONTINUOUS
10
5.89785
20
-3.41063
11
5.89751
21
-3.41001
0
LINE
8
BLACK
6
CONTINUOUS
10
5.89751
20
-3.41001
11
5.8945
21
-3.406
0
LINE
8
BLACK
6
CONTINUOUS
10
5.8945
20
-3.406
11
5.894
21
-3.4055
0
LINE
8
BLACK
6
CONTINUOUS
10
5.894
20
-3.4055
11
5.89198
21
-3.40398
0
LINE
8
BLACK
6
CONTINUOUS
10
5.89198
20
-3.40398
11
5.8903
21
-3.40174
0
LINE
8
BLACK
6
CONTINUOUS
10
5.8903
20
-3.40174
11
5.89011
21
-3.39896
0
LINE
8
BLACK
6
CONTINUOUS
10
5.89011
20
-3.39896
11
5.89145
21
-3.3965
0
LINE
8
BLACK
6
CONTINUOUS
10
5.89145
20
-3.3965
11
5.89198
21
-3.39604
0
LINE
8
BLACK
6
CONTINUOUS
10
5.89198
20
-3.39604
11
5.8943
21
-3.3943
0
LINE
8
BLACK
6
CONTINUOUS
10
5.8943
20
-3.3943
11
5.89774
21
-3.38971
0
LINE
8
BLACK
6
CONTINUOUS
10
5.89774
20
-3.38971
11
5.89975
21
-3.38434
0
LINE
8
BLACK
6
CONTINUOUS
10
5.89975
20
-3.38434
11
5.90002
21
-3.3819
0
LINE
8
BLACK
6
CONTINUOUS
10
5.90002
20
-3.3819
11
5.90002
21
-3.3181
0
LINE
8
BLACK
6
CONTINUOUS
10
5.90002
20
-3.3181
11
5.89975
21
-3.31566
0
LINE
8
BLACK
6
CONTINUOUS
10
5.89975
20
-3.31566
11
5.89774
21
-3.31029
0
LINE
8
BLACK
6
CONTINUOUS
10
5.89774
20
-3.31029
11
5.8943
21
-3.3057
0
LINE
8
BLACK
6
CONTINUOUS
10
5.8943
20
-3.3057
11
5.89199
21
-3.30397
0
LINE
8
BLACK
6
CONTINUOUS
10
5.89199
20
-3.30397
11
5.89032
21
-3.30173
0
LINE
8
BLACK
6
CONTINUOUS
10
5.89032
20
-3.30173
11
5.89012
21
-3.29894
0
LINE
8
BLACK
6
CONTINUOUS
10
5.89012
20
-3.29894
11
5.89146
21
-3.29649
0
LINE
8
BLACK
6
CONTINUOUS
10
5.89146
20
-3.29649
11
5.89199
21
-3.29603
0
LINE
8
BLACK
6
CONTINUOUS
10
5.89199
20
-3.29603
11
5.89402
21
-3.29451
0
LINE
8
BLACK
6
CONTINUOUS
10
5.89402
20
-3.29451
11
5.8943
21
-3.2943
0
LINE
8
BLACK
6
CONTINUOUS
10
5.8943
20
-3.2943
11
5.89774
21
-3.28971
0
LINE
8
BLACK
6
CONTINUOUS
10
5.89774
20
-3.28971
11
5.89975
21
-3.28434
0
LINE
8
BLACK
6
CONTINUOUS
10
5.89975
20
-3.28434
11
5.90002
21
-3.2819
0
LINE
8
BLACK
6
CONTINUOUS
10
5.90002
20
-3.2819
11
5.90002
21
-3.2181
0
LINE
8
BLACK
6
CONTINUOUS
10
5.90002
20
-3.2181
11
5.89975
21
-3.21566
0
LINE
8
BLACK
6
CONTINUOUS
10
5.89975
20
-3.21566
11
5.89774
21
-3.21029
0
LINE
8
BLACK
6
CONTINUOUS
10
5.89774
20
-3.21029
11
5.8943
21
-3.2057
0
LINE
8
BLACK
6
CONTINUOUS
10
5.8943
20
-3.2057
11
5.88971
21
-3.20226
0
LINE
8
BLACK
6
CONTINUOUS
10
5.88971
20
-3.20226
11
5.88434
21
-3.20025
0
LINE
8
BLACK
6
CONTINUOUS
10
5.88434
20
-3.20025
11
5.8819
21
-3.19998
0
LINE
8
BLACK
6
CONTINUOUS
10
5.8819
20
-3.19998
11
5.8181
21
-3.19998
0
LINE
8
BLACK
6
CONTINUOUS
10
5.8181
20
-3.19998
11
5.81566
21
-3.20025
0
LINE
8
BLACK
6
CONTINUOUS
10
5.81566
20
-3.20025
11
5.81029
21
-3.20226
0
LINE
8
BLACK
6
CONTINUOUS
10
5.81029
20
-3.20226
11
5.8057
21
-3.2057
0
LINE
8
BLACK
6
CONTINUOUS
10
5.8057
20
-3.2057
11
5.80549
21
-3.20598
0
LINE
8
BLACK
6
CONTINUOUS
10
5.80549
20
-3.20598
11
5.80397
21
-3.20801
0
LINE
8
BLACK
6
CONTINUOUS
10
5.80397
20
-3.20801
11
5.80173
21
-3.20968
0
LINE
8
BLACK
6
CONTINUOUS
10
5.80173
20
-3.20968
11
5.79894
21
-3.20988
0
LINE
8
BLACK
6
CONTINUOUS
10
5.79894
20
-3.20988
11
5.79649
21
-3.20854
0
LINE
8
BLACK
6
CONTINUOUS
10
5.79649
20
-3.20854
11
5.79603
21
-3.20801
0
LINE
8
BLACK
6
CONTINUOUS
10
5.79603
20
-3.20801
11
5.79451
21
-3.20598
0
LINE
8
BLACK
6
CONTINUOUS
10
5.79451
20
-3.20598
11
5.7943
21
-3.2057
0
LINE
8
BLACK
6
CONTINUOUS
10
5.7943
20
-3.2057
11
5.78971
21
-3.20226
0
LINE
8
BLACK
6
CONTINUOUS
10
5.78971
20
-3.20226
11
5.78434
21
-3.20025
0
LINE
8
BLACK
6
CONTINUOUS
10
5.78434
20
-3.20025
11
5.7819
21
-3.19998
0
LINE
8
BLACK
6
CONTINUOUS
10
5.7819
20
-3.19998
11
5.7181
21
-3.19998
0
LINE
8
BLACK
6
CONTINUOUS
10
5.7181
20
-3.19998
11
5.71566
21
-3.20025
0
LINE
8
BLACK
6
CONTINUOUS
10
5.71566
20
-3.20025
11
5.71029
21
-3.20226
0
LINE
8
BLACK
6
CONTINUOUS
10
5.71029
20
-3.20226
11
5.7057
21
-3.2057
0
LINE
8
BLACK
6
CONTINUOUS
10
5.7057
20
-3.2057
11
5.70226
21
-3.21029
0
LINE
8
BLACK
6
CONTINUOUS
10
5.70226
20
-3.21029
11
5.70025
21
-3.21566
0
LINE
8
BLACK
6
CONTINUOUS
10
5.70025
20
-3.21566
11
5.69998
21
-3.2181
0
LINE
8
BLACK
6
CONTINUOUS
10
5.69998
20
-3.2181
11
5.69998
21
-3.2819
0
LINE
8
BLACK
6
CONTINUOUS
10
5.69998
20
-3.2819
11
5.70025
21
-3.28434
0
LINE
8
BLACK
6
CONTINUOUS
10
5.70025
20
-3.28434
11
5.70226
21
-3.28971
0
LINE
8
BLACK
6
CONTINUOUS
10
5.70226
20
-3.28971
11
5.7057
21
-3.2943
0
LINE
8
BLACK
6
CONTINUOUS
10
5.7057
20
-3.2943
11
5.70598
21
-3.29451
0
LINE
8
BLACK
6
CONTINUOUS
10
5.70598
20
-3.29451
11
5.70801
21
-3.29603
0
LINE
8
BLACK
6
CONTINUOUS
10
5.70801
20
-3.29603
11
5.70968
21
-3.29827
0
LINE
8
BLACK
6
CONTINUOUS
10
5.70968
20
-3.29827
11
5.70988
21
-3.30106
0
LINE
8
BLACK
6
CONTINUOUS
10
5.70988
20
-3.30106
11
5.70854
21
-3.30351
0
LINE
8
BLACK
6
CONTINUOUS
10
5.70854
20
-3.30351
11
5.70801
21
-3.30397
0
LINE
8
BLACK
6
CONTINUOUS
10
5.70801
20
-3.30397
11
5.7057
21
-3.3057
0
LINE
8
BLACK
6
CONTINUOUS
10
5.7057
20
-3.3057
11
5.70226
21
-3.31029
0
LINE
8
BLACK
6
CONTINUOUS
10
5.70226
20
-3.31029
11
5.70025
21
-3.31566
0
LINE
8
BLACK
6
CONTINUOUS
10
5.70025
20
-3.31566
11
5.69998
21
-3.3181
0
LINE
8
BLACK
6
CONTINUOUS
10
5.69998
20
-3.3181
11
5.69998
21
-3.3819
0
LINE
8
BLACK
6
CONTINUOUS
10
5.69998
20
-3.3819
11
5.70025
21
-3.38434
0
LINE
8
BLACK
6
CONTINUOUS
10
5.70025
20
-3.38434
11
5.70226
21
-3.38971
0
LINE
8
BLACK
6
CONTINUOUS
10
5.70226
20
-3.38971
11
5.7057
21
-3.3943
0
LINE
8
BLACK
6
CONTINUOUS
10
5.7057
20
-3.3943
11
5.70598
21
-3.39451
0
LINE
8
BLACK
6
CONTINUOUS
10
5.70598
20
-3.39451
11
5.70598
21
-3.39451
0
LINE
8
BLACK
6
CONTINUOUS
10
5.70598
20
-3.39451
11
5.70801
21
-3.39603
0
LINE
8
BLACK
6
CONTINUOUS
10
5.70801
20
-3.39603
11
5.70968
21
-3.39827
0
LINE
8
BLACK
6
CONTINUOUS
10
5.70968
20
-3.39827
11
5.70988
21
-3.40106
0
LINE
8
BLACK
6
CONTINUOUS
10
5.70988
20
-3.40106
11
5.70854
21
-3.40351
0
LINE
8
BLACK
6
CONTINUOUS
10
5.70854
20
-3.40351
11
5.70801
21
-3.40397
0
LINE
8
BLACK
6
CONTINUOUS
10
5.70801
20
-3.40397
11
5.7057
21
-3.4057
0
LINE
8
BLACK
6
CONTINUOUS
10
5.7057
20
-3.4057
11
5.70226
21
-3.41029
0
LINE
8
BLACK
6
CONTINUOUS
10
5.70226
20
-3.41029
11
5.70025
21
-3.41566
0
LINE
8
BLACK
6
CONTINUOUS
10
5.70025
20
-3.41566
11
5.69998
21
-3.4181
0
LINE
8
BLACK
6
CONTINUOUS
10
5.69998
20
-3.4181
11
5.69998
21
-3.41902
0
LINE
8
BLACK
6
CONTINUOUS
10
5.69998
20
-3.41902
11
5.69919
21
-3.4217
0
LINE
8
BLACK
6
CONTINUOUS
10
5.69919
20
-3.4217
11
5.69708
21
-3.42353
0
LINE
8
BLACK
6
CONTINUOUS
10
5.69708
20
-3.42353
11
5.69502
21
-3.42398
0
LINE
8
BLACK
6
CONTINUOUS
10
5.69502
20
-3.42398
11
5.52665
21
-3.42398
0
LINE
8
BLACK
6
CONTINUOUS
10
5.52665
20
-3.42398
11
5.52397
21
-3.42319
0
LINE
8
BLACK
6
CONTINUOUS
10
5.52397
20
-3.42319
11
5.52373
21
-3.42303
0
LINE
8
BLACK
6
CONTINUOUS
10
5.52373
20
-3.42303
11
5.51819
21
-3.41901
0
LINE
8
BLACK
6
CONTINUOUS
10
5.51819
20
-3.41901
11
5.51819
21
-3.41901
0
LINE
8
BLACK
6
CONTINUOUS
10
5.51819
20
-3.41901
11
5.51798
21
-3.41885
0
LINE
8
BLACK
6
CONTINUOUS
10
5.51798
20
-3.41885
11
5.51775
21
-3.41875
0
LINE
8
BLACK
6
CONTINUOUS
10
5.51775
20
-3.41875
11
5.51774
21
-3.41875
0
LINE
8
BLACK
6
CONTINUOUS
10
5.51774
20
-3.41875
11
5.51135
21
-3.4159
0
LINE
8
BLACK
6
CONTINUOUS
10
5.51135
20
-3.4159
11
5.51135
21
-3.4159
0
LINE
8
BLACK
6
CONTINUOUS
10
5.51135
20
-3.4159
11
5.51111
21
-3.4158
0
LINE
8
BLACK
6
CONTINUOUS
10
5.51111
20
-3.4158
11
5.50668
21
-3.41485
0
LINE
8
BLACK
6
CONTINUOUS
10
5.50668
20
-3.41485
11
5.50401
21
-3.41429
0
LINE
8
BLACK
6
CONTINUOUS
10
5.50401
20
-3.41429
11
5.50401
21
-3.41429
0
LINE
8
BLACK
6
CONTINUOUS
10
5.50401
20
-3.41429
11
5.50376
21
-3.41423
0
LINE
8
BLACK
6
CONTINUOUS
10
5.50376
20
-3.41423
11
5.49624
21
-3.41423
0
LINE
8
BLACK
6
CONTINUOUS
10
5.49624
20
-3.41423
11
5.49599
21
-3.41429
0
LINE
8
BLACK
6
CONTINUOUS
10
5.49599
20
-3.41429
11
5.49599
21
-3.41429
0
LINE
8
BLACK
6
CONTINUOUS
10
5.49599
20
-3.41429
11
5.49332
21
-3.41485
0
LINE
8
BLACK
6
CONTINUOUS
10
5.49332
20
-3.41485
11
5.48889
21
-3.4158
0
LINE
8
BLACK
6
CONTINUOUS
10
5.48889
20
-3.4158
11
5.48865
21
-3.4159
0
LINE
8
BLACK
6
CONTINUOUS
10
5.48865
20
-3.4159
11
5.48865
21
-3.4159
0
LINE
8
BLACK
6
CONTINUOUS
10
5.48865
20
-3.4159
11
5.48226
21
-3.41875
0
LINE
8
BLACK
6
CONTINUOUS
10
5.48226
20
-3.41875
11
5.48225
21
-3.41875
0
LINE
8
BLACK
6
CONTINUOUS
10
5.48225
20
-3.41875
11
5.48202
21
-3.41885
0
LINE
8
BLACK
6
CONTINUOUS
10
5.48202
20
-3.41885
11
5.47593
21
-3.42327
0
LINE
8
BLACK
6
CONTINUOUS
10
5.47593
20
-3.42327
11
5.47192
21
-3.42774
0
LINE
8
BLACK
6
CONTINUOUS
10
5.47192
20
-3.42774
11
5.46954
21
-3.4292
0
LINE
8
BLACK
6
CONTINUOUS
10
5.46954
20
-3.4292
11
5.46674
21
-3.42915
0
LINE
8
BLACK
6
CONTINUOUS
10
5.46674
20
-3.42915
11
5.46472
21
-3.42792
0
LINE
8
BLACK
6
CONTINUOUS
10
5.46472
20
-3.42792
11
5.43711
21
-3.40031
0
LINE
8
BLACK
6
CONTINUOUS
10
5.43711
20
-3.40031
11
5.43577
21
-3.39786
0
LINE
8
BLACK
6
CONTINUOUS
10
5.43577
20
-3.39786
11
5.43568
21
-3.39732
0
LINE
8
BLACK
6
CONTINUOUS
10
5.43568
20
-3.39732
11
5.4356
21
-3.39649
0
LINE
8
BLACK
6
CONTINUOUS
10
5.4356
20
-3.39649
11
5.43539
21
-3.39451
0
LINE
8
BLACK
6
CONTINUOUS
10
5.43539
20
-3.39451
11
5.43521
21
-3.39278
0
LINE
8
BLACK
6
CONTINUOUS
10
5.43521
20
-3.39278
11
5.43521
21
-3.39278
0
LINE
8
BLACK
6
CONTINUOUS
10
5.43521
20
-3.39278
11
5.43518
21
-3.39252
0
LINE
8
BLACK
6
CONTINUOUS
10
5.43518
20
-3.39252
11
5.43286
21
-3.38537
0
LINE
8
BLACK
6
CONTINUOUS
10
5.43286
20
-3.38537
11
5.4291
21
-3.37886
0
LINE
8
BLACK
6
CONTINUOUS
10
5.4291
20
-3.37886
11
5.42407
21
-3.37327
0
LINE
8
BLACK
6
CONTINUOUS
10
5.42407
20
-3.37327
11
5.41798
21
-3.36885
0
LINE
8
BLACK
6
CONTINUOUS
10
5.41798
20
-3.36885
11
5.41775
21
-3.36875
0
LINE
8
BLACK
6
CONTINUOUS
10
5.41775
20
-3.36875
11
5.41774
21
-3.36875
0
LINE
8
BLACK
6
CONTINUOUS
10
5.41774
20
-3.36875
11
5.41135
21
-3.3659
0
LINE
8
BLACK
6
CONTINUOUS
10
5.41135
20
-3.3659
11
5.41135
21
-3.3659
0
LINE
8
BLACK
6
CONTINUOUS
10
5.41135
20
-3.3659
11
5.41111
21
-3.3658
0
LINE
8
BLACK
6
CONTINUOUS
10
5.41111
20
-3.3658
11
5.40744
21
-3.36501
0
LINE
8
BLACK
6
CONTINUOUS
10
5.40744
20
-3.36501
11
5.40401
21
-3.36429
0
LINE
8
BLACK
6
CONTINUOUS
10
5.40401
20
-3.36429
11
5.40401
21
-3.36429
0
LINE
8
BLACK
6
CONTINUOUS
10
5.40401
20
-3.36429
11
5.40376
21
-3.36423
0
LINE
8
BLACK
6
CONTINUOUS
10
5.40376
20
-3.36423
11
5.39624
21
-3.36423
0
LINE
8
BLACK
6
CONTINUOUS
10
5.39624
20
-3.36423
11
5.39599
21
-3.36429
0
LINE
8
BLACK
6
CONTINUOUS
10
5.39599
20
-3.36429
11
5.39599
21
-3.36429
0
LINE
8
BLACK
6
CONTINUOUS
10
5.39599
20
-3.36429
11
5.39256
21
-3.36501
0
LINE
8
BLACK
6
CONTINUOUS
10
5.39256
20
-3.36501
11
5.38889
21
-3.3658
0
LINE
8
BLACK
6
CONTINUOUS
10
5.38889
20
-3.3658
11
5.38865
21
-3.3659
0
LINE
8
BLACK
6
CONTINUOUS
10
5.38865
20
-3.3659
11
5.38865
21
-3.3659
0
LINE
8
BLACK
6
CONTINUOUS
10
5.38865
20
-3.3659
11
5.38226
21
-3.36875
0
LINE
8
BLACK
6
CONTINUOUS
10
5.38226
20
-3.36875
11
5.38225
21
-3.36875
0
LINE
8
BLACK
6
CONTINUOUS
10
5.38225
20
-3.36875
11
5.38202
21
-3.36885
0
LINE
8
BLACK
6
CONTINUOUS
10
5.38202
20
-3.36885
11
5.37593
21
-3.37327
0
LINE
8
BLACK
6
CONTINUOUS
10
5.37593
20
-3.37327
11
5.3709
21
-3.37886
0
LINE
8
BLACK
6
CONTINUOUS
10
5.3709
20
-3.37886
11
5.36714
21
-3.38537
0
LINE
8
BLACK
6
CONTINUOUS
10
5.36714
20
-3.38537
11
5.36482
21
-3.39252
0
LINE
8
BLACK
6
CONTINUOUS
10
5.36482
20
-3.39252
11
5.36479
21
-3.39278
0
LINE
8
BLACK
6
CONTINUOUS
10
5.36479
20
-3.39278
11
5.36479
21
-3.39278
0
LINE
8
BLACK
6
CONTINUOUS
10
5.36479
20
-3.39278
11
5.36461
21
-3.39451
0
LINE
8
BLACK
6
CONTINUOUS
10
5.36461
20
-3.39451
11
5.36404
21
-3.4
0
LINE
8
BLACK
6
CONTINUOUS
10
5.36404
20
-3.4
11
5.36406
21
-3.40026
0
LINE
8
BLACK
6
CONTINUOUS
10
5.36406
20
-3.40026
11
5.36467
21
-3.406
0
LINE
8
BLACK
6
CONTINUOUS
10
5.36467
20
-3.406
11
5.36482
21
-3.40748
0
LINE
8
BLACK
6
CONTINUOUS
10
5.36482
20
-3.40748
11
5.36714
21
-3.41463
0
LINE
8
BLACK
6
CONTINUOUS
10
5.36714
20
-3.41463
11
5.3709
21
-3.42114
0
LINE
8
BLACK
6
CONTINUOUS
10
5.3709
20
-3.42114
11
5.37108
21
-3.42133
0
LINE
8
BLACK
6
CONTINUOUS
10
5.37108
20
-3.42133
11
5.37108
21
-3.42133
0
LINE
8
BLACK
6
CONTINUOUS
10
5.37108
20
-3.42133
11
5.37282
21
-3.42327
0
LINE
8
BLACK
6
CONTINUOUS
10
5.37282
20
-3.42327
11
5.37593
21
-3.42673
0
LINE
8
BLACK
6
CONTINUOUS
10
5.37593
20
-3.42673
11
5.38202
21
-3.43115
0
LINE
8
BLACK
6
CONTINUOUS
10
5.38202
20
-3.43115
11
5.38225
21
-3.43125
0
LINE
8
BLACK
6
CONTINUOUS
10
5.38225
20
-3.43125
11
5.38226
21
-3.43125
0
LINE
8
BLACK
6
CONTINUOUS
10
5.38226
20
-3.43125
11
5.38865
21
-3.4341
0
LINE
8
BLACK
6
CONTINUOUS
10
5.38865
20
-3.4341
11
5.38889
21
-3.4342
0
LINE
8
BLACK
6
CONTINUOUS
10
5.38889
20
-3.4342
11
5.39256
21
-3.43499
0
LINE
8
BLACK
6
CONTINUOUS
10
5.39256
20
-3.43499
11
5.39599
21
-3.43571
0
LINE
8
BLACK
6
CONTINUOUS
10
5.39599
20
-3.43571
11
5.39599
21
-3.43571
0
LINE
8
BLACK
6
CONTINUOUS
10
5.39599
20
-3.43571
11
5.39624
21
-3.43577
0
LINE
8
BLACK
6
CONTINUOUS
10
5.39624
20
-3.43577
11
5.39692
21
-3.43577
0
LINE
8
BLACK
6
CONTINUOUS
10
5.39692
20
-3.43577
11
5.3996
21
-3.43656
0
LINE
8
BLACK
6
CONTINUOUS
10
5.3996
20
-3.43656
11
5.40042
21
-3.43722
0
LINE
8
BLACK
6
CONTINUOUS
10
5.40042
20
-3.43722
11
5.53084
21
-3.56764
0
LINE
8
BLACK
6
CONTINUOUS
10
5.53084
20
-3.56764
11
5.53107
21
-3.56789
0
LINE
8
BLACK
6
CONTINUOUS
10
5.53107
20
-3.56789
11
5.53246
21
-3.56948
0
LINE
8
BLACK
6
CONTINUOUS
10
5.53246
20
-3.56948
11
5.53437
21
-3.57082
0
LINE
8
BLACK
6
CONTINUOUS
10
5.53437
20
-3.57082
11
5.53458
21
-3.57098
0
LINE
8
BLACK
6
CONTINUOUS
10
5.53458
20
-3.57098
11
5.53642
21
-3.57242
0
LINE
8
BLACK
6
CONTINUOUS
10
5.53642
20
-3.57242
11
5.53669
21
-3.57254
0
LINE
8
BLACK
6
CONTINUOUS
10
5.53669
20
-3.57254
11
5.53694
21
-3.57269
0
LINE
8
BLACK
6
CONTINUOUS
10
5.53694
20
-3.57269
11
5.53712
21
-3.57279
0
LINE
8
BLACK
6
CONTINUOUS
10
5.53712
20
-3.57279
11
5.53737
21
-3.57293
0
LINE
8
BLACK
6
CONTINUOUS
10
5.53737
20
-3.57293
11
5.53761
21
-3.5731
0
LINE
8
BLACK
6
CONTINUOUS
10
5.53761
20
-3.5731
11
5.53789
21
-3.57321
0
LINE
8
BLACK
6
CONTINUOUS
10
5.53789
20
-3.57321
11
5.53979
21
-3.57395
0
LINE
8
BLACK
6
CONTINUOUS
10
5.53979
20
-3.57395
11
5.54003
21
-3.57405
0
LINE
8
BLACK
6
CONTINUOUS
10
5.54003
20
-3.57405
11
5.54216
21
-3.57501
0
LINE
8
BLACK
6
CONTINUOUS
10
5.54216
20
-3.57501
11
5.54246
21
-3.57507
0
LINE
8
BLACK
6
CONTINUOUS
10
5.54246
20
-3.57507
11
5.54273
21
-3.57515
0
LINE
8
BLACK
6
CONTINUOUS
10
5.54273
20
-3.57515
11
5.54293
21
-3.57521
0
LINE
8
BLACK
6
CONTINUOUS
10
5.54293
20
-3.57521
11
5.5432
21
-3.57528
0
LINE
8
BLACK
6
CONTINUOUS
10
5.5432
20
-3.57528
11
5.54348
21
-3.57539
0
LINE
8
BLACK
6
CONTINUOUS
10
5.54348
20
-3.57539
11
5.54378
21
-3.57543
0
LINE
8
BLACK
6
CONTINUOUS
10
5.54378
20
-3.57543
11
5.54378
21
-3.57543
0
LINE
8
BLACK
6
CONTINUOUS
10
5.54378
20
-3.57543
11
5.5458
21
-3.57569
0
LINE
8
BLACK
6
CONTINUOUS
10
5.5458
20
-3.57569
11
5.54606
21
-3.57573
0
LINE
8
BLACK
6
CONTINUOUS
10
5.54606
20
-3.57573
11
5.54806
21
-3.5761
0
LINE
8
BLACK
6
CONTINUOUS
10
5.54806
20
-3.5761
11
5.54806
21
-3.5761
0
LINE
8
BLACK
6
CONTINUOUS
10
5.54806
20
-3.5761
11
5.54835
21
-3.57616
0
LINE
8
BLACK
6
CONTINUOUS
10
5.54835
20
-3.57616
11
5.54865
21
-3.57614
0
LINE
8
BLACK
6
CONTINUOUS
10
5.54865
20
-3.57614
11
5.54865
21
-3.57614
0
LINE
8
BLACK
6
CONTINUOUS
10
5.54865
20
-3.57614
11
5.55063
21
-3.57603
0
LINE
8
BLACK
6
CONTINUOUS
10
5.55063
20
-3.57603
11
5.55091
21
-3.57602
0
LINE
8
BLACK
6
CONTINUOUS
10
5.55091
20
-3.57602
11
5.69502
21
-3.57602
0
LINE
8
BLACK
6
CONTINUOUS
10
5.69502
20
-3.57602
11
5.6977
21
-3.57681
0
LINE
8
BLACK
6
CONTINUOUS
10
5.6977
20
-3.57681
11
5.69953
21
-3.57892
0
LINE
8
BLACK
6
CONTINUOUS
10
5.69953
20
-3.57892
11
5.69998
21
-3.58098
0
LINE
8
BLACK
6
CONTINUOUS
10
5.69998
20
-3.58098
11
5.69998
21
-3.5819
0
LINE
8
BLACK
6
CONTINUOUS
10
5.69998
20
-3.5819
11
5.70025
21
-3.58434
0
LINE
8
BLACK
6
CONTINUOUS
10
5.70025
20
-3.58434
11
5.70226
21
-3.58971
0
LINE
8
BLACK
6
CONTINUOUS
10
5.70226
20
-3.58971
11
5.7057
21
-3.5943
0
LINE
8
BLACK
6
CONTINUOUS
10
5.7057
20
-3.5943
11
5.71029
21
-3.59774
0
LINE
8
BLACK
6
CONTINUOUS
10
5.71029
20
-3.59774
11
5.71566
21
-3.59975
0
LINE
8
BLACK
6
CONTINUOUS
10
5.71566
20
-3.59975
11
5.7181
21
-3.60002
0
LINE
8
BLACK
6
CONTINUOUS
10
5.7181
20
-3.60002
11
5.7819
21
-3.60002
0
LINE
8
BLACK
6
CONTINUOUS
10
5.7819
20
-3.60002
11
5.78434
21
-3.59975
0
LINE
8
BLACK
6
CONTINUOUS
10
5.78434
20
-3.59975
11
5.78971
21
-3.59774
0
LINE
8
BLACK
6
CONTINUOUS
10
5.78971
20
-3.59774
11
5.7943
21
-3.5943
0
LINE
8
BLACK
6
CONTINUOUS
10
5.7943
20
-3.5943
11
5.79604
21
-3.59198
0
LINE
8
BLACK
6
CONTINUOUS
10
5.79604
20
-3.59198
11
5.79828
21
-3.5903
0
LINE
8
BLACK
6
CONTINUOUS
10
5.79828
20
-3.5903
11
5.80107
21
-3.59011
0
LINE
8
BLACK
6
CONTINUOUS
10
5.80107
20
-3.59011
11
5.80352
21
-3.59145
0
LINE
8
BLACK
6
CONTINUOUS
10
5.80352
20
-3.59145
11
5.80398
21
-3.59198
0
LINE
8
BLACK
6
CONTINUOUS
10
5.80398
20
-3.59198
11
5.8055
21
-3.594
0
LINE
8
BLACK
6
CONTINUOUS
10
5.8055
20
-3.594
11
5.806
21
-3.5945
0
LINE
8
BLACK
6
CONTINUOUS
10
5.806
20
-3.5945
11
5.81001
21
-3.59751
0
LINE
8
BLACK
6
CONTINUOUS
10
5.81001
20
-3.59751
11
5.81063
21
-3.59785
0
LINE
8
BLACK
6
CONTINUOUS
10
5.81063
20
-3.59785
11
5.81537
21
-3.59963
0
LINE
8
BLACK
6
CONTINUOUS
10
5.81537
20
-3.59963
11
5.81597
21
-3.59977
0
LINE
8
BLACK
6
CONTINUOUS
10
5.81597
20
-3.59977
11
5.81797
21
-3.59999
0
LINE
8
BLACK
6
CONTINUOUS
10
5.81797
20
-3.59999
11
5.81824
21
-3.6
0
LINE
8
BLACK
6
CONTINUOUS
10
5.81824
20
-3.6
11
5.83929
21
-3.6
0
LINE
8
BLACK
6
CONTINUOUS
10
5.83929
20
-3.6
11
5.83989
21
-3.59982
0
LINE
8
BLACK
6
CONTINUOUS
10
5.83989
20
-3.59982
11
5.83993
21
-3.59977
0
LINE
8
BLACK
6
CONTINUOUS
10
5.83993
20
-3.59977
11
5.84
21
-3.59947
0
LINE
8
BLACK
6
CONTINUOUS
10
5.84
20
-3.59947
11
5.84
21
-3.58
0
LINE
8
BLACK
6
CONTINUOUS
10
5.84
20
-3.58
11
5.82
21
-3.58
0
LINE
8
BLACK
6
CONTINUOUS
10
5.40487
20
-3.38502
11
5.40926
21
-3.38726
0
LINE
8
BLACK
6
CONTINUOUS
10
5.40926
20
-3.38726
11
5.41274
21
-3.39074
0
LINE
8
BLACK
6
CONTINUOUS
10
5.41274
20
-3.39074
11
5.41498
21
-3.39513
0
LINE
8
BLACK
6
CONTINUOUS
10
5.41498
20
-3.39513
11
5.41575
21
-3.4
0
LINE
8
BLACK
6
CONTINUOUS
10
5.41575
20
-3.4
11
5.41498
21
-3.40487
0
LINE
8
BLACK
6
CONTINUOUS
10
5.41498
20
-3.40487
11
5.41443
21
-3.40594
0
LINE
8
BLACK
6
CONTINUOUS
10
5.41443
20
-3.40594
11
5.55249
21
-3.544
0
LINE
8
BLACK
6
CONTINUOUS
10
5.55249
20
-3.544
11
5.72
21
-3.544
0
LINE
8
BLACK
6
CONTINUOUS
10
5.72
20
-3.544
11
5.72
21
-3.52
0
LINE
8
BLACK
6
CONTINUOUS
10
5.72
20
-3.52
11
5.78
21
-3.52
0
LINE
8
BLACK
6
CONTINUOUS
10
5.78
20
-3.52
11
5.78
21
-3.58
0
LINE
8
BLACK
6
CONTINUOUS
10
5.78
20
-3.58
11
5.72
21
-3.58
0
LINE
8
BLACK
6
CONTINUOUS
10
5.72
20
-3.58
11
5.72
21
-3.556
0
LINE
8
BLACK
6
CONTINUOUS
10
5.72
20
-3.556
11
5.55
21
-3.556
0
LINE
8
BLACK
6
CONTINUOUS
10
5.55
20
-3.556
11
5.54924
21
-3.5558
0
LINE
8
BLACK
6
CONTINUOUS
10
5.54924
20
-3.5558
11
5.54845
21
-3.5558
0
LINE
8
BLACK
6
CONTINUOUS
10
5.54845
20
-3.5558
11
5.54776
21
-3.5554
0
LINE
8
BLACK
6
CONTINUOUS
10
5.54776
20
-3.5554
11
5.547
21
-3.5552
0
LINE
8
BLACK
6
CONTINUOUS
10
5.547
20
-3.5552
11
5.54644
21
-3.55464
0
LINE
8
BLACK
6
CONTINUOUS
10
5.54644
20
-3.55464
11
5.54576
21
-3.55424
0
LINE
8
BLACK
6
CONTINUOUS
10
5.54576
20
-3.55424
11
5.40594
21
-3.41443
0
LINE
8
BLACK
6
CONTINUOUS
10
5.40594
20
-3.41443
11
5.40487
21
-3.41498
0
LINE
8
BLACK
6
CONTINUOUS
10
5.40487
20
-3.41498
11
5.4
21
-3.41575
0
LINE
8
BLACK
6
CONTINUOUS
10
5.4
20
-3.41575
11
5.39513
21
-3.41498
0
LINE
8
BLACK
6
CONTINUOUS
10
5.39513
20
-3.41498
11
5.39074
21
-3.41274
0
LINE
8
BLACK
6
CONTINUOUS
10
5.39074
20
-3.41274
11
5.38726
21
-3.40926
0
LINE
8
BLACK
6
CONTINUOUS
10
5.38726
20
-3.40926
11
5.38502
21
-3.40487
0
LINE
8
BLACK
6
CONTINUOUS
10
5.38502
20
-3.40487
11
5.38425
21
-3.4
0
LINE
8
BLACK
6
CONTINUOUS
10
5.38425
20
-3.4
11
5.38502
21
-3.39513
0
LINE
8
BLACK
6
CONTINUOUS
10
5.38502
20
-3.39513
11
5.38726
21
-3.39074
0
LINE
8
BLACK
6
CONTINUOUS
10
5.38726
20
-3.39074
11
5.39074
21
-3.38726
0
LINE
8
BLACK
6
CONTINUOUS
10
5.39074
20
-3.38726
11
5.39513
21
-3.38502
0
LINE
8
BLACK
6
CONTINUOUS
10
5.39513
20
-3.38502
11
5.4
21
-3.38425
0
LINE
8
BLACK
6
CONTINUOUS
10
5.4
20
-3.38425
11
5.40487
21
-3.38502
0
LINE
8
BLACK
6
CONTINUOUS
10
5.78
20
-3.48
11
5.72
21
-3.48
0
LINE
8
BLACK
6
CONTINUOUS
10
5.72
20
-3.48
11
5.72
21
-3.456
0
LINE
8
BLACK
6
CONTINUOUS
10
5.72
20
-3.456
11
5.5144
21
-3.456
0
LINE
8
BLACK
6
CONTINUOUS
10
5.5144
20
-3.456
11
5.51274
21
-3.45926
0
LINE
8
BLACK
6
CONTINUOUS
10
5.51274
20
-3.45926
11
5.50926
21
-3.46274
0
LINE
8
BLACK
6
CONTINUOUS
10
5.50926
20
-3.46274
11
5.50487
21
-3.46498
0
LINE
8
BLACK
6
CONTINUOUS
10
5.50487
20
-3.46498
11
5.5
21
-3.46575
0
LINE
8
BLACK
6
CONTINUOUS
10
5.5
20
-3.46575
11
5.49513
21
-3.46498
0
LINE
8
BLACK
6
CONTINUOUS
10
5.49513
20
-3.46498
11
5.49074
21
-3.46274
0
LINE
8
BLACK
6
CONTINUOUS
10
5.49074
20
-3.46274
11
5.48726
21
-3.45926
0
LINE
8
BLACK
6
CONTINUOUS
10
5.48726
20
-3.45926
11
5.48502
21
-3.45487
0
LINE
8
BLACK
6
CONTINUOUS
10
5.48502
20
-3.45487
11
5.48425
21
-3.45
0
LINE
8
BLACK
6
CONTINUOUS
10
5.48425
20
-3.45
11
5.48502
21
-3.44513
0
LINE
8
BLACK
6
CONTINUOUS
10
5.48502
20
-3.44513
11
5.48726
21
-3.44074
0
LINE
8
BLACK
6
CONTINUOUS
10
5.48726
20
-3.44074
11
5.49074
21
-3.43726
0
LINE
8
BLACK
6
CONTINUOUS
10
5.49074
20
-3.43726
11
5.49513
21
-3.43502
0
LINE
8
BLACK
6
CONTINUOUS
10
5.49513
20
-3.43502
11
5.5
21
-3.43425
0
LINE
8
BLACK
6
CONTINUOUS
10
5.5
20
-3.43425
11
5.50487
21
-3.43502
0
LINE
8
BLACK
6
CONTINUOUS
10
5.50487
20
-3.43502
11
5.50926
21
-3.43726
0
LINE
8
BLACK
6
CONTINUOUS
10
5.50926
20
-3.43726
11
5.51274
21
-3.44074
0
LINE
8
BLACK
6
CONTINUOUS
10
5.51274
20
-3.44074
11
5.5144
21
-3.444
0
LINE
8
BLACK
6
CONTINUOUS
10
5.5144
20
-3.444
11
5.72
21
-3.444
0
LINE
8
BLACK
6
CONTINUOUS
10
5.72
20
-3.444
11
5.72
21
-3.42
0
LINE
8
BLACK
6
CONTINUOUS
10
5.72
20
-3.42
11
5.78
21
-3.42
0
LINE
8
BLACK
6
CONTINUOUS
10
5.78
20
-3.42
11
5.78
21
-3.48
0
LINE
8
BLACK
6
CONTINUOUS
10
5.88
20
-3.38
11
5.82
21
-3.38
0
LINE
8
BLACK
6
CONTINUOUS
10
5.82
20
-3.38
11
5.82
21
-3.32
0
LINE
8
BLACK
6
CONTINUOUS
10
5.82
20
-3.32
11
5.88
21
-3.32
0
LINE
8
BLACK
6
CONTINUOUS
10
5.88
20
-3.32
11
5.88
21
-3.38
0
LINE
8
BLACK
6
CONTINUOUS
10
5.78
20
-3.38
11
5.72
21
-3.38
0
LINE
8
BLACK
6
CONTINUOUS
10
5.72
20
-3.38
11
5.72
21
-3.32
0
LINE
8
BLACK
6
CONTINUOUS
10
5.72
20
-3.32
11
5.78
21
-3.32
0
LINE
8
BLACK
6
CONTINUOUS
10
5.78
20
-3.32
11
5.78
21
-3.38
0
LINE
8
BLACK
6
CONTINUOUS
10
5.88
20
-3.28
11
5.82
21
-3.28
0
LINE
8
BLACK
6
CONTINUOUS
10
5.82
20
-3.28
11
5.82
21
-3.22
0
LINE
8
BLACK
6
CONTINUOUS
10
5.82
20
-3.22
11
5.88
21
-3.22
0
LINE
8
BLACK
6
CONTINUOUS
10
5.88
20
-3.22
11
5.88
21
-3.28
0
LINE
8
BLACK
6
CONTINUOUS
10
5.78
20
-3.28
11
5.72
21
-3.28
0
LINE
8
BLACK
6
CONTINUOUS
10
5.72
20
-3.28
11
5.72
21
-3.22
0
LINE
8
BLACK
6
CONTINUOUS
10
5.72
20
-3.22
11
5.78
21
-3.22
0
LINE
8
BLACK
6
CONTINUOUS
10
5.78
20
-3.22
11
5.78
21
-3.28
0
CIRCLE
8
BLACK
10
5.44
20
-3.6
40
0.00787402
0
CIRCLE
8
BLACK
10
5.26
20
-3.34
40
0.00787402
0
CIRCLE
8
BLACK
10
5.57
20
-3.73
40
0.00787402
0
CIRCLE
8
BLACK
10
5.62
20
-3.73
40
0.00787402
0
CIRCLE
8
BLACK
10
5.26
20
-3.19
40
0.00787402
0
CIRCLE
8
BLACK
10
5.44
20
-3.56
40
0.00787402
0
CIRCLE
8
BLACK
10
5.26
20
-3.27
40
0.00787402
0
CIRCLE
8
BLACK
10
5.4
20
-3.34
40
0.00787402
0
CIRCLE
8
BLACK
10
5.26
20
-3.23
40
0.00787402
0
CIRCLE
8
BLACK
10
5.5
20
-3.65
40
0.00787402
0
CIRCLE
8
BLACK
10
5.5
20
-3.45
40
0.00787402
0
CIRCLE
8
BLACK
10
5.4
20
-3.4
40
0.00787402
  0
ENDSEC
  0
EOF
