  0
SECTION
  2
HEADER
  9
$ANGBASE
  50
0.0
  9
$ANGDIR
  70
1
  9
$MEASUREMENT
  70
0
  0
ENDSEC
  0
SECTION
  2
TABLES
  0
TABLE
  2
LTYPE
  70
4
  0
LTYPE
  5
40F
  2
CONTINUOUS
  70
0
  3
Solid line
  72
65
  73
0
  40
0.0
  0
LTYPE
  5
410
  2
DASHDOT
 70
0
  3
Dash Dot ____ _ ____ _
 72
65
 73
4
 40
2.0
 49
1.25
 49
-0.25
 49
0.25
 49
-0.25
  0
LTYPE
  5
411
  2
DASHED
 70
0
  3
Dashed __ __ __ __ __
 72
65
 73
2
 40
0.75
 49
0.5
 49
-0.25
  0
LTYPE
  5
43B
  2
DOTTED
 70
0
  3
Dotted .  .  .  .
 72
65
 73
2
 40
0.2
 49
0.0
 49
-0.2
  0
ENDTAB
  0
TABLE
  2
STYLE
  70
4
  0
STYLE
  2
KICAD
  70
0
  40
0
  41
1
  42
1
  50
0
  71
0
  3
isocp.shx
  0
STYLE
  2
KICADB
  70
0
  40
0
  41
1
  42
1
  50
0
  71
0
  3
isocp.shx
  0
STYLE
  2
KICADI
  70
0
  40
0
  41
1
  42
1
  50
15
  71
0
  3
isocp.shx
  0
STYLE
  2
KICADBI
  70
0
  40
0
  41
1
  42
1
  50
15
  71
0
  3
isocp.shx
  0
ENDTAB
  0
TABLE
  2
LAYER
  70
1
  0
LAYER
  2
BLACK
  70
0
  62
7
  6
CONTINUOUS
  0
ENDTAB
  0
ENDSEC
  0
SECTION
  2
ENTITIES
0
LINE
8
BLACK
6
CONTINUOUS
10
5.78
20
-3.58
11
5.72
21
-3.58
0
LINE
8
BLACK
6
CONTINUOUS
10
5.72
20
-3.58
11
5.72
21
-3.52
0
LINE
8
BLACK
6
CONTINUOUS
10
5.72
20
-3.52
11
5.78
21
-3.52
0
LINE
8
BLACK
6
CONTINUOUS
10
5.78
20
-3.52
11
5.78
21
-3.58
0
LINE
8
BLACK
6
CONTINUOUS
10
5.88
20
-3.58
11
5.82
21
-3.58
0
LINE
8
BLACK
6
CONTINUOUS
10
5.82
20
-3.58
11
5.82
21
-3.52
0
LINE
8
BLACK
6
CONTINUOUS
10
5.82
20
-3.52
11
5.88
21
-3.52
0
LINE
8
BLACK
6
CONTINUOUS
10
5.88
20
-3.52
11
5.88
21
-3.58
0
LINE
8
BLACK
6
CONTINUOUS
10
5.78
20
-3.48
11
5.72
21
-3.48
0
LINE
8
BLACK
6
CONTINUOUS
10
5.72
20
-3.48
11
5.72
21
-3.42
0
LINE
8
BLACK
6
CONTINUOUS
10
5.72
20
-3.42
11
5.78
21
-3.42
0
LINE
8
BLACK
6
CONTINUOUS
10
5.78
20
-3.42
11
5.78
21
-3.48
0
LINE
8
BLACK
6
CONTINUOUS
10
5.88
20
-3.48
11
5.82
21
-3.48
0
LINE
8
BLACK
6
CONTINUOUS
10
5.82
20
-3.48
11
5.82
21
-3.42
0
LINE
8
BLACK
6
CONTINUOUS
10
5.82
20
-3.42
11
5.88
21
-3.42
0
LINE
8
BLACK
6
CONTINUOUS
10
5.88
20
-3.42
11
5.88
21
-3.48
0
LINE
8
BLACK
6
CONTINUOUS
10
5.78
20
-3.38
11
5.72
21
-3.38
0
LINE
8
BLACK
6
CONTINUOUS
10
5.72
20
-3.38
11
5.72
21
-3.32
0
LINE
8
BLACK
6
CONTINUOUS
10
5.72
20
-3.32
11
5.78
21
-3.32
0
LINE
8
BLACK
6
CONTINUOUS
10
5.78
20
-3.32
11
5.78
21
-3.38
0
LINE
8
BLACK
6
CONTINUOUS
10
5.88
20
-3.38
11
5.82
21
-3.38
0
LINE
8
BLACK
6
CONTINUOUS
10
5.82
20
-3.38
11
5.82
21
-3.32
0
LINE
8
BLACK
6
CONTINUOUS
10
5.82
20
-3.32
11
5.88
21
-3.32
0
LINE
8
BLACK
6
CONTINUOUS
10
5.88
20
-3.32
11
5.88
21
-3.38
0
LINE
8
BLACK
6
CONTINUOUS
10
5.78
20
-3.28
11
5.72
21
-3.28
0
LINE
8
BLACK
6
CONTINUOUS
10
5.72
20
-3.28
11
5.72
21
-3.22
0
LINE
8
BLACK
6
CONTINUOUS
10
5.72
20
-3.22
11
5.78
21
-3.22
0
LINE
8
BLACK
6
CONTINUOUS
10
5.78
20
-3.22
11
5.78
21
-3.28
0
LINE
8
BLACK
6
CONTINUOUS
10
5.88
20
-3.28
11
5.82
21
-3.28
0
LINE
8
BLACK
6
CONTINUOUS
10
5.82
20
-3.28
11
5.82
21
-3.22
0
LINE
8
BLACK
6
CONTINUOUS
10
5.82
20
-3.22
11
5.88
21
-3.22
0
LINE
8
BLACK
6
CONTINUOUS
10
5.88
20
-3.22
11
5.88
21
-3.28
0
LINE
8
BLACK
6
CONTINUOUS
10
5.90038
20
-3.19711
11
5.90051
21
-3.19709
0
LINE
8
BLACK
6
CONTINUOUS
10
5.90051
20
-3.19709
11
5.90063
21
-3.19716
0
LINE
8
BLACK
6
CONTINUOUS
10
5.90063
20
-3.19716
11
5.90101
21
-3.19723
0
LINE
8
BLACK
6
CONTINUOUS
10
5.90101
20
-3.19723
11
5.9016
21
-3.19772
0
LINE
8
BLACK
6
CONTINUOUS
10
5.9016
20
-3.19772
11
5.90226
21
-3.1981
0
LINE
8
BLACK
6
CONTINUOUS
10
5.90226
20
-3.1981
11
5.90235
21
-3.19835
0
LINE
8
BLACK
6
CONTINUOUS
10
5.90235
20
-3.19835
11
5.90256
21
-3.19852
0
LINE
8
BLACK
6
CONTINUOUS
10
5.90256
20
-3.19852
11
5.90269
21
-3.19928
0
LINE
8
BLACK
6
CONTINUOUS
10
5.90269
20
-3.19928
11
5.90295
21
-3.2
0
LINE
8
BLACK
6
CONTINUOUS
10
5.90295
20
-3.2
11
5.90295
21
-3.6
0
LINE
8
BLACK
6
CONTINUOUS
10
5.90295
20
-3.6
11
5.90289
21
-3.60038
0
LINE
8
BLACK
6
CONTINUOUS
10
5.90289
20
-3.60038
11
5.90291
21
-3.60051
0
LINE
8
BLACK
6
CONTINUOUS
10
5.90291
20
-3.60051
11
5.90284
21
-3.60063
0
LINE
8
BLACK
6
CONTINUOUS
10
5.90284
20
-3.60063
11
5.90277
21
-3.60101
0
LINE
8
BLACK
6
CONTINUOUS
10
5.90277
20
-3.60101
11
5.90228
21
-3.6016
0
LINE
8
BLACK
6
CONTINUOUS
10
5.90228
20
-3.6016
11
5.9019
21
-3.60226
0
LINE
8
BLACK
6
CONTINUOUS
10
5.9019
20
-3.60226
11
5.90165
21
-3.60235
0
LINE
8
BLACK
6
CONTINUOUS
10
5.90165
20
-3.60235
11
5.90148
21
-3.60256
0
LINE
8
BLACK
6
CONTINUOUS
10
5.90148
20
-3.60256
11
5.90072
21
-3.60269
0
LINE
8
BLACK
6
CONTINUOUS
10
5.90072
20
-3.60269
11
5.9
21
-3.60295
0
LINE
8
BLACK
6
CONTINUOUS
10
5.9
20
-3.60295
11
5.7
21
-3.60295
0
LINE
8
BLACK
6
CONTINUOUS
10
5.7
20
-3.60295
11
5.69962
21
-3.60289
0
LINE
8
BLACK
6
CONTINUOUS
10
5.69962
20
-3.60289
11
5.69949
21
-3.60291
0
LINE
8
BLACK
6
CONTINUOUS
10
5.69949
20
-3.60291
11
5.69937
21
-3.60284
0
LINE
8
BLACK
6
CONTINUOUS
10
5.69937
20
-3.60284
11
5.69899
21
-3.60277
0
LINE
8
BLACK
6
CONTINUOUS
10
5.69899
20
-3.60277
11
5.6984
21
-3.60228
0
LINE
8
BLACK
6
CONTINUOUS
10
5.6984
20
-3.60228
11
5.69774
21
-3.6019
0
LINE
8
BLACK
6
CONTINUOUS
10
5.69774
20
-3.6019
11
5.69765
21
-3.60165
0
LINE
8
BLACK
6
CONTINUOUS
10
5.69765
20
-3.60165
11
5.69744
21
-3.60148
0
LINE
8
BLACK
6
CONTINUOUS
10
5.69744
20
-3.60148
11
5.69731
21
-3.60072
0
LINE
8
BLACK
6
CONTINUOUS
10
5.69731
20
-3.60072
11
5.69705
21
-3.6
0
LINE
8
BLACK
6
CONTINUOUS
10
5.69705
20
-3.6
11
5.69705
21
-3.2
0
LINE
8
BLACK
6
CONTINUOUS
10
5.69705
20
-3.2
11
5.69711
21
-3.19962
0
LINE
8
BLACK
6
CONTINUOUS
10
5.69711
20
-3.19962
11
5.69709
21
-3.19949
0
LINE
8
BLACK
6
CONTINUOUS
10
5.69709
20
-3.19949
11
5.69716
21
-3.19937
0
LINE
8
BLACK
6
CONTINUOUS
10
5.69716
20
-3.19937
11
5.69723
21
-3.19899
0
LINE
8
BLACK
6
CONTINUOUS
10
5.69723
20
-3.19899
11
5.69772
21
-3.1984
0
LINE
8
BLACK
6
CONTINUOUS
10
5.69772
20
-3.1984
11
5.6981
21
-3.19774
0
LINE
8
BLACK
6
CONTINUOUS
10
5.6981
20
-3.19774
11
5.69835
21
-3.19765
0
LINE
8
BLACK
6
CONTINUOUS
10
5.69835
20
-3.19765
11
5.69852
21
-3.19744
0
LINE
8
BLACK
6
CONTINUOUS
10
5.69852
20
-3.19744
11
5.69928
21
-3.19731
0
LINE
8
BLACK
6
CONTINUOUS
10
5.69928
20
-3.19731
11
5.7
21
-3.19705
0
LINE
8
BLACK
6
CONTINUOUS
10
5.7
20
-3.19705
11
5.9
21
-3.19705
0
LINE
8
BLACK
6
CONTINUOUS
10
5.9
20
-3.19705
11
5.90038
21
-3.19711
0
LINE
8
BLACK
6
CONTINUOUS
10
5.70295
20
-3.20295
11
5.70295
21
-3.59705
0
LINE
8
BLACK
6
CONTINUOUS
10
5.70295
20
-3.59705
11
5.89705
21
-3.59705
0
LINE
8
BLACK
6
CONTINUOUS
10
5.89705
20
-3.59705
11
5.89705
21
-3.20295
0
LINE
8
BLACK
6
CONTINUOUS
10
5.89705
20
-3.20295
11
5.70295
21
-3.20295
0
LINE
8
BLACK
6
CONTINUOUS
10
5.6052
20
-3.53617
11
5.60631
21
-3.53785
0
LINE
8
BLACK
6
CONTINUOUS
10
5.60631
20
-3.53785
11
5.61298
21
-3.56584
0
LINE
8
BLACK
6
CONTINUOUS
10
5.61298
20
-3.56584
11
5.61746
21
-3.54902
0
LINE
8
BLACK
6
CONTINUOUS
10
5.61746
20
-3.54902
11
5.61789
21
-3.54809
0
LINE
8
BLACK
6
CONTINUOUS
10
5.61789
20
-3.54809
11
5.61812
21
-3.54794
0
LINE
8
BLACK
6
CONTINUOUS
10
5.61812
20
-3.54794
11
5.61823
21
-3.54769
0
LINE
8
BLACK
6
CONTINUOUS
10
5.61823
20
-3.54769
11
5.61892
21
-3.54737
0
LINE
8
BLACK
6
CONTINUOUS
10
5.61892
20
-3.54737
11
5.61955
21
-3.54693
0
LINE
8
BLACK
6
CONTINUOUS
10
5.61955
20
-3.54693
11
5.61982
21
-3.54696
0
LINE
8
BLACK
6
CONTINUOUS
10
5.61982
20
-3.54696
11
5.62006
21
-3.54684
0
LINE
8
BLACK
6
CONTINUOUS
10
5.62006
20
-3.54684
11
5.6208
21
-3.54704
0
LINE
8
BLACK
6
CONTINUOUS
10
5.6208
20
-3.54704
11
5.62156
21
-3.54711
0
LINE
8
BLACK
6
CONTINUOUS
10
5.62156
20
-3.54711
11
5.62175
21
-3.5473
0
LINE
8
BLACK
6
CONTINUOUS
10
5.62175
20
-3.5473
11
5.62201
21
-3.54737
0
LINE
8
BLACK
6
CONTINUOUS
10
5.62201
20
-3.54737
11
5.62245
21
-3.54799
0
LINE
8
BLACK
6
CONTINUOUS
10
5.62245
20
-3.54799
11
5.62299
21
-3.54853
0
LINE
8
BLACK
6
CONTINUOUS
10
5.62299
20
-3.54853
11
5.62301
21
-3.5488
0
LINE
8
BLACK
6
CONTINUOUS
10
5.62301
20
-3.5488
11
5.62317
21
-3.54902
0
LINE
8
BLACK
6
CONTINUOUS
10
5.62317
20
-3.54902
11
5.62765
21
-3.56584
0
LINE
8
BLACK
6
CONTINUOUS
10
5.62765
20
-3.56584
11
5.63432
21
-3.53785
0
LINE
8
BLACK
6
CONTINUOUS
10
5.63432
20
-3.53785
11
5.63472
21
-3.53691
0
LINE
8
BLACK
6
CONTINUOUS
10
5.63472
20
-3.53691
11
5.63634
21
-3.53571
0
LINE
8
BLACK
6
CONTINUOUS
10
5.63634
20
-3.53571
11
5.63836
21
-3.53583
0
LINE
8
BLACK
6
CONTINUOUS
10
5.63836
20
-3.53583
11
5.63983
21
-3.53721
0
LINE
8
BLACK
6
CONTINUOUS
10
5.63983
20
-3.53721
11
5.64006
21
-3.53922
0
LINE
8
BLACK
6
CONTINUOUS
10
5.64006
20
-3.53922
11
5.63069
21
-3.57859
0
LINE
8
BLACK
6
CONTINUOUS
10
5.63069
20
-3.57859
11
5.63028
21
-3.57953
0
LINE
8
BLACK
6
CONTINUOUS
10
5.63028
20
-3.57953
11
5.63003
21
-3.57972
0
LINE
8
BLACK
6
CONTINUOUS
10
5.63003
20
-3.57972
11
5.6299
21
-3.58
0
LINE
8
BLACK
6
CONTINUOUS
10
5.6299
20
-3.58
11
5.62924
21
-3.5803
0
LINE
8
BLACK
6
CONTINUOUS
10
5.62924
20
-3.5803
11
5.62866
21
-3.58074
0
LINE
8
BLACK
6
CONTINUOUS
10
5.62866
20
-3.58074
11
5.62835
21
-3.58072
0
LINE
8
BLACK
6
CONTINUOUS
10
5.62835
20
-3.58072
11
5.62807
21
-3.58085
0
LINE
8
BLACK
6
CONTINUOUS
10
5.62807
20
-3.58085
11
5.62737
21
-3.58066
0
LINE
8
BLACK
6
CONTINUOUS
10
5.62737
20
-3.58066
11
5.62664
21
-3.58062
0
LINE
8
BLACK
6
CONTINUOUS
10
5.62664
20
-3.58062
11
5.62642
21
-3.5804
0
LINE
8
BLACK
6
CONTINUOUS
10
5.62642
20
-3.5804
11
5.62612
21
-3.58032
0
LINE
8
BLACK
6
CONTINUOUS
10
5.62612
20
-3.58032
11
5.6257
21
-3.57973
0
LINE
8
BLACK
6
CONTINUOUS
10
5.6257
20
-3.57973
11
5.62517
21
-3.57923
0
LINE
8
BLACK
6
CONTINUOUS
10
5.62517
20
-3.57923
11
5.62514
21
-3.57892
0
LINE
8
BLACK
6
CONTINUOUS
10
5.62514
20
-3.57892
11
5.62496
21
-3.57867
0
LINE
8
BLACK
6
CONTINUOUS
10
5.62496
20
-3.57867
11
5.62031
21
-3.56124
0
LINE
8
BLACK
6
CONTINUOUS
10
5.62031
20
-3.56124
11
5.61567
21
-3.57867
0
LINE
8
BLACK
6
CONTINUOUS
10
5.61567
20
-3.57867
11
5.61524
21
-3.5796
0
LINE
8
BLACK
6
CONTINUOUS
10
5.61524
20
-3.5796
11
5.61498
21
-3.57977
0
LINE
8
BLACK
6
CONTINUOUS
10
5.61498
20
-3.57977
11
5.61484
21
-3.58005
0
LINE
8
BLACK
6
CONTINUOUS
10
5.61484
20
-3.58005
11
5.61418
21
-3.58034
0
LINE
8
BLACK
6
CONTINUOUS
10
5.61418
20
-3.58034
11
5.61358
21
-3.58076
0
LINE
8
BLACK
6
CONTINUOUS
10
5.61358
20
-3.58076
11
5.61327
21
-3.58073
0
LINE
8
BLACK
6
CONTINUOUS
10
5.61327
20
-3.58073
11
5.61299
21
-3.58085
0
LINE
8
BLACK
6
CONTINUOUS
10
5.61299
20
-3.58085
11
5.61229
21
-3.58065
0
LINE
8
BLACK
6
CONTINUOUS
10
5.61229
20
-3.58065
11
5.61157
21
-3.58058
0
LINE
8
BLACK
6
CONTINUOUS
10
5.61157
20
-3.58058
11
5.61135
21
-3.58037
0
LINE
8
BLACK
6
CONTINUOUS
10
5.61135
20
-3.58037
11
5.61106
21
-3.58028
0
LINE
8
BLACK
6
CONTINUOUS
10
5.61106
20
-3.58028
11
5.61066
21
-3.57967
0
LINE
8
BLACK
6
CONTINUOUS
10
5.61066
20
-3.57967
11
5.61014
21
-3.57916
0
LINE
8
BLACK
6
CONTINUOUS
10
5.61014
20
-3.57916
11
5.61011
21
-3.57885
0
LINE
8
BLACK
6
CONTINUOUS
10
5.61011
20
-3.57885
11
5.60994
21
-3.57859
0
LINE
8
BLACK
6
CONTINUOUS
10
5.60994
20
-3.57859
11
5.60057
21
-3.53922
0
LINE
8
BLACK
6
CONTINUOUS
10
5.60057
20
-3.53922
11
5.60051
21
-3.5382
0
LINE
8
BLACK
6
CONTINUOUS
10
5.60051
20
-3.5382
11
5.60141
21
-3.53639
0
LINE
8
BLACK
6
CONTINUOUS
10
5.60141
20
-3.53639
11
5.60327
21
-3.53559
0
LINE
8
BLACK
6
CONTINUOUS
10
5.60327
20
-3.53559
11
5.6052
21
-3.53617
0
LINE
8
BLACK
6
CONTINUOUS
10
5.66819
20
-3.53576
11
5.66833
21
-3.53587
0
LINE
8
BLACK
6
CONTINUOUS
10
5.66833
20
-3.53587
11
5.6685
21
-3.5359
0
LINE
8
BLACK
6
CONTINUOUS
10
5.6685
20
-3.5359
11
5.67225
21
-3.53777
0
LINE
8
BLACK
6
CONTINUOUS
10
5.67225
20
-3.53777
11
5.67296
21
-3.5383
0
LINE
8
BLACK
6
CONTINUOUS
10
5.67296
20
-3.5383
11
5.67302
21
-3.53832
0
LINE
8
BLACK
6
CONTINUOUS
10
5.67302
20
-3.53832
11
5.6749
21
-3.5402
0
LINE
8
BLACK
6
CONTINUOUS
10
5.6749
20
-3.5402
11
5.6754
21
-3.54092
0
LINE
8
BLACK
6
CONTINUOUS
10
5.6754
20
-3.54092
11
5.67545
21
-3.54097
0
LINE
8
BLACK
6
CONTINUOUS
10
5.67545
20
-3.54097
11
5.67732
21
-3.54471
0
LINE
8
BLACK
6
CONTINUOUS
10
5.67732
20
-3.54471
11
5.67762
21
-3.5457
0
LINE
8
BLACK
6
CONTINUOUS
10
5.67762
20
-3.5457
11
5.67758
21
-3.54587
0
LINE
8
BLACK
6
CONTINUOUS
10
5.67758
20
-3.54587
11
5.67764
21
-3.54604
0
LINE
8
BLACK
6
CONTINUOUS
10
5.67764
20
-3.54604
11
5.67764
21
-3.55166
0
LINE
8
BLACK
6
CONTINUOUS
10
5.67764
20
-3.55166
11
5.67746
21
-3.55267
0
LINE
8
BLACK
6
CONTINUOUS
10
5.67746
20
-3.55267
11
5.67734
21
-3.5528
0
LINE
8
BLACK
6
CONTINUOUS
10
5.67734
20
-3.5528
11
5.67732
21
-3.55298
0
LINE
8
BLACK
6
CONTINUOUS
10
5.67732
20
-3.55298
11
5.67545
21
-3.55673
0
LINE
8
BLACK
6
CONTINUOUS
10
5.67545
20
-3.55673
11
5.67492
21
-3.55744
0
LINE
8
BLACK
6
CONTINUOUS
10
5.67492
20
-3.55744
11
5.6749
21
-3.5575
0
LINE
8
BLACK
6
CONTINUOUS
10
5.6749
20
-3.5575
11
5.67302
21
-3.55937
0
LINE
8
BLACK
6
CONTINUOUS
10
5.67302
20
-3.55937
11
5.6723
21
-3.55988
0
LINE
8
BLACK
6
CONTINUOUS
10
5.6723
20
-3.55988
11
5.67225
21
-3.55992
0
LINE
8
BLACK
6
CONTINUOUS
10
5.67225
20
-3.55992
11
5.6685
21
-3.5618
0
LINE
8
BLACK
6
CONTINUOUS
10
5.6685
20
-3.5618
11
5.66752
21
-3.56209
0
LINE
8
BLACK
6
CONTINUOUS
10
5.66752
20
-3.56209
11
5.66735
21
-3.56205
0
LINE
8
BLACK
6
CONTINUOUS
10
5.66735
20
-3.56205
11
5.66718
21
-3.56211
0
LINE
8
BLACK
6
CONTINUOUS
10
5.66718
20
-3.56211
11
5.65514
21
-3.56211
0
LINE
8
BLACK
6
CONTINUOUS
10
5.65514
20
-3.56211
11
5.65514
21
-3.57791
0
LINE
8
BLACK
6
CONTINUOUS
10
5.65514
20
-3.57791
11
5.65496
21
-3.57892
0
LINE
8
BLACK
6
CONTINUOUS
10
5.65496
20
-3.57892
11
5.65366
21
-3.58046
0
LINE
8
BLACK
6
CONTINUOUS
10
5.65366
20
-3.58046
11
5.65167
21
-3.58081
0
LINE
8
BLACK
6
CONTINUOUS
10
5.65167
20
-3.58081
11
5.64992
21
-3.5798
0
LINE
8
BLACK
6
CONTINUOUS
10
5.64992
20
-3.5798
11
5.64923
21
-3.57791
0
LINE
8
BLACK
6
CONTINUOUS
10
5.64923
20
-3.57791
11
5.64923
21
-3.53854
0
LINE
8
BLACK
6
CONTINUOUS
10
5.64923
20
-3.53854
11
5.6493
21
-3.53815
0
LINE
8
BLACK
6
CONTINUOUS
10
5.6493
20
-3.53815
11
5.64928
21
-3.53802
0
LINE
8
BLACK
6
CONTINUOUS
10
5.64928
20
-3.53802
11
5.64934
21
-3.53791
0
LINE
8
BLACK
6
CONTINUOUS
10
5.64934
20
-3.53791
11
5.64941
21
-3.53753
0
LINE
8
BLACK
6
CONTINUOUS
10
5.64941
20
-3.53753
11
5.6499
21
-3.53694
0
LINE
8
BLACK
6
CONTINUOUS
10
5.6499
20
-3.53694
11
5.65029
21
-3.53627
0
LINE
8
BLACK
6
CONTINUOUS
10
5.65029
20
-3.53627
11
5.65054
21
-3.53618
0
LINE
8
BLACK
6
CONTINUOUS
10
5.65054
20
-3.53618
11
5.65071
21
-3.53598
0
LINE
8
BLACK
6
CONTINUOUS
10
5.65071
20
-3.53598
11
5.65147
21
-3.53585
0
LINE
8
BLACK
6
CONTINUOUS
10
5.65147
20
-3.53585
11
5.65219
21
-3.53558
0
LINE
8
BLACK
6
CONTINUOUS
10
5.65219
20
-3.53558
11
5.66718
21
-3.53558
0
LINE
8
BLACK
6
CONTINUOUS
10
5.66718
20
-3.53558
11
5.66819
21
-3.53576
0
LINE
8
BLACK
6
CONTINUOUS
10
5.65514
20
-3.55621
11
5.66649
21
-3.55621
0
LINE
8
BLACK
6
CONTINUOUS
10
5.66649
20
-3.55621
11
5.66918
21
-3.55486
0
LINE
8
BLACK
6
CONTINUOUS
10
5.66918
20
-3.55486
11
5.67038
21
-3.55366
0
LINE
8
BLACK
6
CONTINUOUS
10
5.67038
20
-3.55366
11
5.67173
21
-3.55096
0
LINE
8
BLACK
6
CONTINUOUS
10
5.67173
20
-3.55096
11
5.67173
21
-3.54673
0
LINE
8
BLACK
6
CONTINUOUS
10
5.67173
20
-3.54673
11
5.67038
21
-3.54403
0
LINE
8
BLACK
6
CONTINUOUS
10
5.67038
20
-3.54403
11
5.66918
21
-3.54284
0
LINE
8
BLACK
6
CONTINUOUS
10
5.66918
20
-3.54284
11
5.66649
21
-3.54149
0
LINE
8
BLACK
6
CONTINUOUS
10
5.66649
20
-3.54149
11
5.65514
21
-3.54149
0
LINE
8
BLACK
6
CONTINUOUS
10
5.65514
20
-3.54149
11
5.65514
21
-3.55621
0
LINE
8
BLACK
6
CONTINUOUS
10
5.92695
20
-3.52576
11
5.92708
21
-3.52587
0
LINE
8
BLACK
6
CONTINUOUS
10
5.92708
20
-3.52587
11
5.92726
21
-3.5259
0
LINE
8
BLACK
6
CONTINUOUS
10
5.92726
20
-3.5259
11
5.93101
21
-3.52777
0
LINE
8
BLACK
6
CONTINUOUS
10
5.93101
20
-3.52777
11
5.93183
21
-3.52838
0
LINE
8
BLACK
6
CONTINUOUS
10
5.93183
20
-3.52838
11
5.93264
21
-3.53023
0
LINE
8
BLACK
6
CONTINUOUS
10
5.93264
20
-3.53023
11
5.93206
21
-3.53217
0
LINE
8
BLACK
6
CONTINUOUS
10
5.93206
20
-3.53217
11
5.93037
21
-3.53328
0
LINE
8
BLACK
6
CONTINUOUS
10
5.93037
20
-3.53328
11
5.92837
21
-3.53305
0
LINE
8
BLACK
6
CONTINUOUS
10
5.92837
20
-3.53305
11
5.92524
21
-3.53149
0
LINE
8
BLACK
6
CONTINUOUS
10
5.92524
20
-3.53149
11
5.92079
21
-3.53149
0
LINE
8
BLACK
6
CONTINUOUS
10
5.92079
20
-3.53149
11
5.91629
21
-3.53299
0
LINE
8
BLACK
6
CONTINUOUS
10
5.91629
20
-3.53299
11
5.91337
21
-3.53591
0
LINE
8
BLACK
6
CONTINUOUS
10
5.91337
20
-3.53591
11
5.91185
21
-3.53894
0
LINE
8
BLACK
6
CONTINUOUS
10
5.91185
20
-3.53894
11
5.91014
21
-3.54577
0
LINE
8
BLACK
6
CONTINUOUS
10
5.91014
20
-3.54577
11
5.91014
21
-3.55067
0
LINE
8
BLACK
6
CONTINUOUS
10
5.91014
20
-3.55067
11
5.91185
21
-3.5575
0
LINE
8
BLACK
6
CONTINUOUS
10
5.91185
20
-3.5575
11
5.91337
21
-3.56053
0
LINE
8
BLACK
6
CONTINUOUS
10
5.91337
20
-3.56053
11
5.91629
21
-3.56345
0
LINE
8
BLACK
6
CONTINUOUS
10
5.91629
20
-3.56345
11
5.92079
21
-3.56495
0
LINE
8
BLACK
6
CONTINUOUS
10
5.92079
20
-3.56495
11
5.92359
21
-3.56495
0
LINE
8
BLACK
6
CONTINUOUS
10
5.92359
20
-3.56495
11
5.92809
21
-3.56345
0
LINE
8
BLACK
6
CONTINUOUS
10
5.92809
20
-3.56345
11
5.92861
21
-3.56293
0
LINE
8
BLACK
6
CONTINUOUS
10
5.92861
20
-3.56293
11
5.92861
21
-3.55399
0
LINE
8
BLACK
6
CONTINUOUS
10
5.92861
20
-3.55399
11
5.92406
21
-3.55399
0
LINE
8
BLACK
6
CONTINUOUS
10
5.92406
20
-3.55399
11
5.92305
21
-3.55381
0
LINE
8
BLACK
6
CONTINUOUS
10
5.92305
20
-3.55381
11
5.92151
21
-3.55251
0
LINE
8
BLACK
6
CONTINUOUS
10
5.92151
20
-3.55251
11
5.92116
21
-3.55052
0
LINE
8
BLACK
6
CONTINUOUS
10
5.92116
20
-3.55052
11
5.92217
21
-3.54877
0
LINE
8
BLACK
6
CONTINUOUS
10
5.92217
20
-3.54877
11
5.92406
21
-3.54808
0
LINE
8
BLACK
6
CONTINUOUS
10
5.92406
20
-3.54808
11
5.93156
21
-3.54808
0
LINE
8
BLACK
6
CONTINUOUS
10
5.93156
20
-3.54808
11
5.93195
21
-3.54815
0
LINE
8
BLACK
6
CONTINUOUS
10
5.93195
20
-3.54815
11
5.93208
21
-3.54813
0
LINE
8
BLACK
6
CONTINUOUS
10
5.93208
20
-3.54813
11
5.93219
21
-3.54819
0
LINE
8
BLACK
6
CONTINUOUS
10
5.93219
20
-3.54819
11
5.93257
21
-3.54826
0
LINE
8
BLACK
6
CONTINUOUS
10
5.93257
20
-3.54826
11
5.93316
21
-3.54875
0
LINE
8
BLACK
6
CONTINUOUS
10
5.93316
20
-3.54875
11
5.93383
21
-3.54914
0
LINE
8
BLACK
6
CONTINUOUS
10
5.93383
20
-3.54914
11
5.93392
21
-3.54939
0
LINE
8
BLACK
6
CONTINUOUS
10
5.93392
20
-3.54939
11
5.93412
21
-3.54956
0
LINE
8
BLACK
6
CONTINUOUS
10
5.93412
20
-3.54956
11
5.93425
21
-3.55031
0
LINE
8
BLACK
6
CONTINUOUS
10
5.93425
20
-3.55031
11
5.93452
21
-3.55103
0
LINE
8
BLACK
6
CONTINUOUS
10
5.93452
20
-3.55103
11
5.93452
21
-3.56416
0
LINE
8
BLACK
6
CONTINUOUS
10
5.93452
20
-3.56416
11
5.93448
21
-3.56434
0
LINE
8
BLACK
6
CONTINUOUS
10
5.93448
20
-3.56434
11
5.93451
21
-3.56441
0
LINE
8
BLACK
6
CONTINUOUS
10
5.93451
20
-3.56441
11
5.93445
21
-3.56453
0
LINE
8
BLACK
6
CONTINUOUS
10
5.93445
20
-3.56453
11
5.93434
21
-3.56517
0
LINE
8
BLACK
6
CONTINUOUS
10
5.93434
20
-3.56517
11
5.93392
21
-3.56566
0
LINE
8
BLACK
6
CONTINUOUS
10
5.93392
20
-3.56566
11
5.93365
21
-3.56624
0
LINE
8
BLACK
6
CONTINUOUS
10
5.93365
20
-3.56624
11
5.93178
21
-3.56812
0
LINE
8
BLACK
6
CONTINUOUS
10
5.93178
20
-3.56812
11
5.93094
21
-3.56871
0
LINE
8
BLACK
6
CONTINUOUS
10
5.93094
20
-3.56871
11
5.93076
21
-3.56872
0
LINE
8
BLACK
6
CONTINUOUS
10
5.93076
20
-3.56872
11
5.93062
21
-3.56883
0
LINE
8
BLACK
6
CONTINUOUS
10
5.93062
20
-3.56883
11
5.925
21
-3.57071
0
LINE
8
BLACK
6
CONTINUOUS
10
5.925
20
-3.57071
11
5.92413
21
-3.57084
0
LINE
8
BLACK
6
CONTINUOUS
10
5.92413
20
-3.57084
11
5.92406
21
-3.57086
0
LINE
8
BLACK
6
CONTINUOUS
10
5.92406
20
-3.57086
11
5.92031
21
-3.57086
0
LINE
8
BLACK
6
CONTINUOUS
10
5.92031
20
-3.57086
11
5.91945
21
-3.57071
0
LINE
8
BLACK
6
CONTINUOUS
10
5.91945
20
-3.57071
11
5.91938
21
-3.57071
0
LINE
8
BLACK
6
CONTINUOUS
10
5.91938
20
-3.57071
11
5.91376
21
-3.56883
0
LINE
8
BLACK
6
CONTINUOUS
10
5.91376
20
-3.56883
11
5.91286
21
-3.56834
0
LINE
8
BLACK
6
CONTINUOUS
10
5.91286
20
-3.56834
11
5.91276
21
-3.56819
0
LINE
8
BLACK
6
CONTINUOUS
10
5.91276
20
-3.56819
11
5.9126
21
-3.56812
0
LINE
8
BLACK
6
CONTINUOUS
10
5.9126
20
-3.56812
11
5.90885
21
-3.56437
0
LINE
8
BLACK
6
CONTINUOUS
10
5.90885
20
-3.56437
11
5.90835
21
-3.56365
0
LINE
8
BLACK
6
CONTINUOUS
10
5.90835
20
-3.56365
11
5.9083
21
-3.5636
0
LINE
8
BLACK
6
CONTINUOUS
10
5.9083
20
-3.5636
11
5.90643
21
-3.55985
0
LINE
8
BLACK
6
CONTINUOUS
10
5.90643
20
-3.55985
11
5.90628
21
-3.55936
0
LINE
8
BLACK
6
CONTINUOUS
10
5.90628
20
-3.55936
11
5.9062
21
-3.55925
0
LINE
8
BLACK
6
CONTINUOUS
10
5.9062
20
-3.55925
11
5.90433
21
-3.55175
0
LINE
8
BLACK
6
CONTINUOUS
10
5.90433
20
-3.55175
11
5.90429
21
-3.55116
0
LINE
8
BLACK
6
CONTINUOUS
10
5.90429
20
-3.55116
11
5.90424
21
-3.55103
0
LINE
8
BLACK
6
CONTINUOUS
10
5.90424
20
-3.55103
11
5.90424
21
-3.54541
0
LINE
8
BLACK
6
CONTINUOUS
10
5.90424
20
-3.54541
11
5.90434
21
-3.54483
0
LINE
8
BLACK
6
CONTINUOUS
10
5.90434
20
-3.54483
11
5.90433
21
-3.54469
0
LINE
8
BLACK
6
CONTINUOUS
10
5.90433
20
-3.54469
11
5.9062
21
-3.53719
0
LINE
8
BLACK
6
CONTINUOUS
10
5.9062
20
-3.53719
11
5.90641
21
-3.53673
0
LINE
8
BLACK
6
CONTINUOUS
10
5.90641
20
-3.53673
11
5.90643
21
-3.53659
0
LINE
8
BLACK
6
CONTINUOUS
10
5.90643
20
-3.53659
11
5.9083
21
-3.53284
0
LINE
8
BLACK
6
CONTINUOUS
10
5.9083
20
-3.53284
11
5.90883
21
-3.53213
0
LINE
8
BLACK
6
CONTINUOUS
10
5.90883
20
-3.53213
11
5.90885
21
-3.53207
0
LINE
8
BLACK
6
CONTINUOUS
10
5.90885
20
-3.53207
11
5.9126
21
-3.52832
0
LINE
8
BLACK
6
CONTINUOUS
10
5.9126
20
-3.52832
11
5.91344
21
-3.52773
0
LINE
8
BLACK
6
CONTINUOUS
10
5.91344
20
-3.52773
11
5.91362
21
-3.52772
0
LINE
8
BLACK
6
CONTINUOUS
10
5.91362
20
-3.52772
11
5.91376
21
-3.52761
0
LINE
8
BLACK
6
CONTINUOUS
10
5.91376
20
-3.52761
11
5.91938
21
-3.52573
0
LINE
8
BLACK
6
CONTINUOUS
10
5.91938
20
-3.52573
11
5.92025
21
-3.52561
0
LINE
8
BLACK
6
CONTINUOUS
10
5.92025
20
-3.52561
11
5.92031
21
-3.52558
0
LINE
8
BLACK
6
CONTINUOUS
10
5.92031
20
-3.52558
11
5.92594
21
-3.52558
0
LINE
8
BLACK
6
CONTINUOUS
10
5.92594
20
-3.52558
11
5.92695
21
-3.52576
0
LINE
8
BLACK
6
CONTINUOUS
10
5.9732
20
-3.52664
11
5.97389
21
-3.52854
0
LINE
8
BLACK
6
CONTINUOUS
10
5.97389
20
-3.52854
11
5.97389
21
-3.56791
0
LINE
8
BLACK
6
CONTINUOUS
10
5.97389
20
-3.56791
11
5.97371
21
-3.56892
0
LINE
8
BLACK
6
CONTINUOUS
10
5.97371
20
-3.56892
11
5.97353
21
-3.56913
0
LINE
8
BLACK
6
CONTINUOUS
10
5.97353
20
-3.56913
11
5.97348
21
-3.56939
0
LINE
8
BLACK
6
CONTINUOUS
10
5.97348
20
-3.56939
11
5.9729
21
-3.56988
0
LINE
8
BLACK
6
CONTINUOUS
10
5.9729
20
-3.56988
11
5.97241
21
-3.57046
0
LINE
8
BLACK
6
CONTINUOUS
10
5.97241
20
-3.57046
11
5.97214
21
-3.57051
0
LINE
8
BLACK
6
CONTINUOUS
10
5.97214
20
-3.57051
11
5.97193
21
-3.57069
0
LINE
8
BLACK
6
CONTINUOUS
10
5.97193
20
-3.57069
11
5.97117
21
-3.57068
0
LINE
8
BLACK
6
CONTINUOUS
10
5.97117
20
-3.57068
11
5.97042
21
-3.57081
0
LINE
8
BLACK
6
CONTINUOUS
10
5.97042
20
-3.57081
11
5.97018
21
-3.57068
0
LINE
8
BLACK
6
CONTINUOUS
10
5.97018
20
-3.57068
11
5.96991
21
-3.57068
0
LINE
8
BLACK
6
CONTINUOUS
10
5.96991
20
-3.57068
11
5.96933
21
-3.57018
0
LINE
8
BLACK
6
CONTINUOUS
10
5.96933
20
-3.57018
11
5.96867
21
-3.5698
0
LINE
8
BLACK
6
CONTINUOUS
10
5.96867
20
-3.5698
11
5.96858
21
-3.56955
0
LINE
8
BLACK
6
CONTINUOUS
10
5.96858
20
-3.56955
11
5.96837
21
-3.56937
0
LINE
8
BLACK
6
CONTINUOUS
10
5.96837
20
-3.56937
11
5.95139
21
-3.53965
0
LINE
8
BLACK
6
CONTINUOUS
10
5.95139
20
-3.53965
11
5.95139
21
-3.56791
0
LINE
8
BLACK
6
CONTINUOUS
10
5.95139
20
-3.56791
11
5.95121
21
-3.56892
0
LINE
8
BLACK
6
CONTINUOUS
10
5.95121
20
-3.56892
11
5.94991
21
-3.57046
0
LINE
8
BLACK
6
CONTINUOUS
10
5.94991
20
-3.57046
11
5.94792
21
-3.57081
0
LINE
8
BLACK
6
CONTINUOUS
10
5.94792
20
-3.57081
11
5.94617
21
-3.5698
0
LINE
8
BLACK
6
CONTINUOUS
10
5.94617
20
-3.5698
11
5.94548
21
-3.56791
0
LINE
8
BLACK
6
CONTINUOUS
10
5.94548
20
-3.56791
11
5.94548
21
-3.52854
0
LINE
8
BLACK
6
CONTINUOUS
10
5.94548
20
-3.52854
11
5.94566
21
-3.52753
0
LINE
8
BLACK
6
CONTINUOUS
10
5.94566
20
-3.52753
11
5.94584
21
-3.52732
0
LINE
8
BLACK
6
CONTINUOUS
10
5.94584
20
-3.52732
11
5.94589
21
-3.52705
0
LINE
8
BLACK
6
CONTINUOUS
10
5.94589
20
-3.52705
11
5.94647
21
-3.52656
0
LINE
8
BLACK
6
CONTINUOUS
10
5.94647
20
-3.52656
11
5.94696
21
-3.52598
0
LINE
8
BLACK
6
CONTINUOUS
10
5.94696
20
-3.52598
11
5.94723
21
-3.52593
0
LINE
8
BLACK
6
CONTINUOUS
10
5.94723
20
-3.52593
11
5.94744
21
-3.52576
0
LINE
8
BLACK
6
CONTINUOUS
10
5.94744
20
-3.52576
11
5.9482
21
-3.52576
0
LINE
8
BLACK
6
CONTINUOUS
10
5.9482
20
-3.52576
11
5.94895
21
-3.52563
0
LINE
8
BLACK
6
CONTINUOUS
10
5.94895
20
-3.52563
11
5.94919
21
-3.52576
0
LINE
8
BLACK
6
CONTINUOUS
10
5.94919
20
-3.52576
11
5.94946
21
-3.52577
0
LINE
8
BLACK
6
CONTINUOUS
10
5.94946
20
-3.52577
11
5.95004
21
-3.52626
0
LINE
8
BLACK
6
CONTINUOUS
10
5.95004
20
-3.52626
11
5.9507
21
-3.52664
0
LINE
8
BLACK
6
CONTINUOUS
10
5.9507
20
-3.52664
11
5.95079
21
-3.52689
0
LINE
8
BLACK
6
CONTINUOUS
10
5.95079
20
-3.52689
11
5.951
21
-3.52707
0
LINE
8
BLACK
6
CONTINUOUS
10
5.951
20
-3.52707
11
5.96798
21
-3.55679
0
LINE
8
BLACK
6
CONTINUOUS
10
5.96798
20
-3.55679
11
5.96798
21
-3.52854
0
LINE
8
BLACK
6
CONTINUOUS
10
5.96798
20
-3.52854
11
5.96816
21
-3.52753
0
LINE
8
BLACK
6
CONTINUOUS
10
5.96816
20
-3.52753
11
5.96946
21
-3.52598
0
LINE
8
BLACK
6
CONTINUOUS
10
5.96946
20
-3.52598
11
5.97145
21
-3.52563
0
LINE
8
BLACK
6
CONTINUOUS
10
5.97145
20
-3.52563
11
5.9732
21
-3.52664
0
LINE
8
BLACK
6
CONTINUOUS
10
5.67926
20
-3.52483
11
5.6808
21
-3.52613
0
LINE
8
BLACK
6
CONTINUOUS
10
5.6808
20
-3.52613
11
5.68115
21
-3.52812
0
LINE
8
BLACK
6
CONTINUOUS
10
5.68115
20
-3.52812
11
5.68014
21
-3.52987
0
LINE
8
BLACK
6
CONTINUOUS
10
5.68014
20
-3.52987
11
5.67825
21
-3.53056
0
LINE
8
BLACK
6
CONTINUOUS
10
5.67825
20
-3.53056
11
5.60175
21
-3.53056
0
LINE
8
BLACK
6
CONTINUOUS
10
5.60175
20
-3.53056
11
5.60074
21
-3.53038
0
LINE
8
BLACK
6
CONTINUOUS
10
5.60074
20
-3.53038
11
5.5992
21
-3.52908
0
LINE
8
BLACK
6
CONTINUOUS
10
5.5992
20
-3.52908
11
5.59885
21
-3.52709
0
LINE
8
BLACK
6
CONTINUOUS
10
5.59885
20
-3.52709
11
5.59986
21
-3.52534
0
LINE
8
BLACK
6
CONTINUOUS
10
5.59986
20
-3.52534
11
5.60175
21
-3.52465
0
LINE
8
BLACK
6
CONTINUOUS
10
5.60175
20
-3.52465
11
5.67825
21
-3.52465
0
LINE
8
BLACK
6
CONTINUOUS
10
5.67825
20
-3.52465
11
5.67926
21
-3.52483
0
LINE
8
BLACK
6
CONTINUOUS
10
5.26911
20
-3.47904
11
5.26928
21
-3.47901
0
LINE
8
BLACK
6
CONTINUOUS
10
5.26928
20
-3.47901
11
5.27002
21
-3.47944
0
LINE
8
BLACK
6
CONTINUOUS
10
5.27002
20
-3.47944
11
5.27081
21
-3.47979
0
LINE
8
BLACK
6
CONTINUOUS
10
5.27081
20
-3.47979
11
5.27088
21
-3.47994
0
LINE
8
BLACK
6
CONTINUOUS
10
5.27088
20
-3.47994
11
5.27103
21
-3.48002
0
LINE
8
BLACK
6
CONTINUOUS
10
5.27103
20
-3.48002
11
5.27132
21
-3.48083
0
LINE
8
BLACK
6
CONTINUOUS
10
5.27132
20
-3.48083
11
5.2717
21
-3.4816
0
LINE
8
BLACK
6
CONTINUOUS
10
5.2717
20
-3.4816
11
5.27166
21
-3.48176
0
LINE
8
BLACK
6
CONTINUOUS
10
5.27166
20
-3.48176
11
5.27172
21
-3.48192
0
LINE
8
BLACK
6
CONTINUOUS
10
5.27172
20
-3.48192
11
5.27172
21
-3.51834
0
LINE
8
BLACK
6
CONTINUOUS
10
5.27172
20
-3.51834
11
5.28001
21
-3.51834
0
LINE
8
BLACK
6
CONTINUOUS
10
5.28001
20
-3.51834
11
5.28102
21
-3.51852
0
LINE
8
BLACK
6
CONTINUOUS
10
5.28102
20
-3.51852
11
5.28257
21
-3.51982
0
LINE
8
BLACK
6
CONTINUOUS
10
5.28257
20
-3.51982
11
5.28292
21
-3.5218
0
LINE
8
BLACK
6
CONTINUOUS
10
5.28292
20
-3.5218
11
5.28191
21
-3.52355
0
LINE
8
BLACK
6
CONTINUOUS
10
5.28191
20
-3.52355
11
5.28001
21
-3.52424
0
LINE
8
BLACK
6
CONTINUOUS
10
5.28001
20
-3.52424
11
5.25752
21
-3.52424
0
LINE
8
BLACK
6
CONTINUOUS
10
5.25752
20
-3.52424
11
5.25651
21
-3.52407
0
LINE
8
BLACK
6
CONTINUOUS
10
5.25651
20
-3.52407
11
5.25496
21
-3.52277
0
LINE
8
BLACK
6
CONTINUOUS
10
5.25496
20
-3.52277
11
5.25461
21
-3.52078
0
LINE
8
BLACK
6
CONTINUOUS
10
5.25461
20
-3.52078
11
5.25562
21
-3.51903
0
LINE
8
BLACK
6
CONTINUOUS
10
5.25562
20
-3.51903
11
5.25752
21
-3.51834
0
LINE
8
BLACK
6
CONTINUOUS
10
5.25752
20
-3.51834
11
5.26581
21
-3.51834
0
LINE
8
BLACK
6
CONTINUOUS
10
5.26581
20
-3.51834
11
5.26581
21
-3.49093
0
LINE
8
BLACK
6
CONTINUOUS
10
5.26581
20
-3.49093
11
5.26336
21
-3.49338
0
LINE
8
BLACK
6
CONTINUOUS
10
5.26336
20
-3.49338
11
5.26263
21
-3.49389
0
LINE
8
BLACK
6
CONTINUOUS
10
5.26263
20
-3.49389
11
5.26259
21
-3.49394
0
LINE
8
BLACK
6
CONTINUOUS
10
5.26259
20
-3.49394
11
5.25884
21
-3.49581
0
LINE
8
BLACK
6
CONTINUOUS
10
5.25884
20
-3.49581
11
5.25786
21
-3.4961
0
LINE
8
BLACK
6
CONTINUOUS
10
5.25786
20
-3.4961
11
5.25589
21
-3.49563
0
LINE
8
BLACK
6
CONTINUOUS
10
5.25589
20
-3.49563
11
5.25469
21
-3.49401
0
LINE
8
BLACK
6
CONTINUOUS
10
5.25469
20
-3.49401
11
5.25481
21
-3.492
0
LINE
8
BLACK
6
CONTINUOUS
10
5.25481
20
-3.492
11
5.2562
21
-3.49053
0
LINE
8
BLACK
6
CONTINUOUS
10
5.2562
20
-3.49053
11
5.25952
21
-3.48887
0
LINE
8
BLACK
6
CONTINUOUS
10
5.25952
20
-3.48887
11
5.26272
21
-3.48567
0
LINE
8
BLACK
6
CONTINUOUS
10
5.26272
20
-3.48567
11
5.26631
21
-3.48028
0
LINE
8
BLACK
6
CONTINUOUS
10
5.26631
20
-3.48028
11
5.26702
21
-3.47954
0
LINE
8
BLACK
6
CONTINUOUS
10
5.26702
20
-3.47954
11
5.26718
21
-3.47949
0
LINE
8
BLACK
6
CONTINUOUS
10
5.26718
20
-3.47949
11
5.26729
21
-3.47936
0
LINE
8
BLACK
6
CONTINUOUS
10
5.26729
20
-3.47936
11
5.26813
21
-3.47922
0
LINE
8
BLACK
6
CONTINUOUS
10
5.26813
20
-3.47922
11
5.26896
21
-3.47898
0
LINE
8
BLACK
6
CONTINUOUS
10
5.26896
20
-3.47898
11
5.26911
21
-3.47904
0
LINE
8
BLACK
6
CONTINUOUS
10
5.32977
20
-3.47915
11
5.3299
21
-3.47926
0
LINE
8
BLACK
6
CONTINUOUS
10
5.3299
20
-3.47926
11
5.33008
21
-3.47928
0
LINE
8
BLACK
6
CONTINUOUS
10
5.33008
20
-3.47928
11
5.33383
21
-3.48116
0
LINE
8
BLACK
6
CONTINUOUS
10
5.33383
20
-3.48116
11
5.33454
21
-3.48168
0
LINE
8
BLACK
6
CONTINUOUS
10
5.33454
20
-3.48168
11
5.3346
21
-3.48171
0
LINE
8
BLACK
6
CONTINUOUS
10
5.3346
20
-3.48171
11
5.33647
21
-3.48358
0
LINE
8
BLACK
6
CONTINUOUS
10
5.33647
20
-3.48358
11
5.33698
21
-3.48431
0
LINE
8
BLACK
6
CONTINUOUS
10
5.33698
20
-3.48431
11
5.33702
21
-3.48435
0
LINE
8
BLACK
6
CONTINUOUS
10
5.33702
20
-3.48435
11
5.3389
21
-3.4881
0
LINE
8
BLACK
6
CONTINUOUS
10
5.3389
20
-3.4881
11
5.33919
21
-3.48908
0
LINE
8
BLACK
6
CONTINUOUS
10
5.33919
20
-3.48908
11
5.33915
21
-3.48926
0
LINE
8
BLACK
6
CONTINUOUS
10
5.33915
20
-3.48926
11
5.33921
21
-3.48942
0
LINE
8
BLACK
6
CONTINUOUS
10
5.33921
20
-3.48942
11
5.33921
21
-3.4913
0
LINE
8
BLACK
6
CONTINUOUS
10
5.33921
20
-3.4913
11
5.33903
21
-3.49231
0
LINE
8
BLACK
6
CONTINUOUS
10
5.33903
20
-3.49231
11
5.33892
21
-3.49244
0
LINE
8
BLACK
6
CONTINUOUS
10
5.33892
20
-3.49244
11
5.3389
21
-3.49262
0
LINE
8
BLACK
6
CONTINUOUS
10
5.3389
20
-3.49262
11
5.33702
21
-3.49637
0
LINE
8
BLACK
6
CONTINUOUS
10
5.33702
20
-3.49637
11
5.3365
21
-3.49707
0
LINE
8
BLACK
6
CONTINUOUS
10
5.3365
20
-3.49707
11
5.33647
21
-3.49713
0
LINE
8
BLACK
6
CONTINUOUS
10
5.33647
20
-3.49713
11
5.33481
21
-3.49879
0
LINE
8
BLACK
6
CONTINUOUS
10
5.33481
20
-3.49879
11
5.33647
21
-3.50046
0
LINE
8
BLACK
6
CONTINUOUS
10
5.33647
20
-3.50046
11
5.33698
21
-3.50118
0
LINE
8
BLACK
6
CONTINUOUS
10
5.33698
20
-3.50118
11
5.33702
21
-3.50122
0
LINE
8
BLACK
6
CONTINUOUS
10
5.33702
20
-3.50122
11
5.3389
21
-3.50497
0
LINE
8
BLACK
6
CONTINUOUS
10
5.3389
20
-3.50497
11
5.33919
21
-3.50596
0
LINE
8
BLACK
6
CONTINUOUS
10
5.33919
20
-3.50596
11
5.33915
21
-3.50613
0
LINE
8
BLACK
6
CONTINUOUS
10
5.33915
20
-3.50613
11
5.33921
21
-3.50629
0
LINE
8
BLACK
6
CONTINUOUS
10
5.33921
20
-3.50629
11
5.33921
21
-3.51379
0
LINE
8
BLACK
6
CONTINUOUS
10
5.33921
20
-3.51379
11
5.33903
21
-3.5148
0
LINE
8
BLACK
6
CONTINUOUS
10
5.33903
20
-3.5148
11
5.33892
21
-3.51494
0
LINE
8
BLACK
6
CONTINUOUS
10
5.33892
20
-3.51494
11
5.3389
21
-3.51511
0
LINE
8
BLACK
6
CONTINUOUS
10
5.3389
20
-3.51511
11
5.33702
21
-3.51886
0
LINE
8
BLACK
6
CONTINUOUS
10
5.33702
20
-3.51886
11
5.3365
21
-3.51957
0
LINE
8
BLACK
6
CONTINUOUS
10
5.3365
20
-3.51957
11
5.33647
21
-3.51963
0
LINE
8
BLACK
6
CONTINUOUS
10
5.33647
20
-3.51963
11
5.3346
21
-3.52151
0
LINE
8
BLACK
6
CONTINUOUS
10
5.3346
20
-3.52151
11
5.33387
21
-3.52201
0
LINE
8
BLACK
6
CONTINUOUS
10
5.33387
20
-3.52201
11
5.33383
21
-3.52206
0
LINE
8
BLACK
6
CONTINUOUS
10
5.33383
20
-3.52206
11
5.33008
21
-3.52393
0
LINE
8
BLACK
6
CONTINUOUS
10
5.33008
20
-3.52393
11
5.3291
21
-3.52423
0
LINE
8
BLACK
6
CONTINUOUS
10
5.3291
20
-3.52423
11
5.32892
21
-3.52418
0
LINE
8
BLACK
6
CONTINUOUS
10
5.32892
20
-3.52418
11
5.32876
21
-3.52424
0
LINE
8
BLACK
6
CONTINUOUS
10
5.32876
20
-3.52424
11
5.32126
21
-3.52424
0
LINE
8
BLACK
6
CONTINUOUS
10
5.32126
20
-3.52424
11
5.32025
21
-3.52407
0
LINE
8
BLACK
6
CONTINUOUS
10
5.32025
20
-3.52407
11
5.32011
21
-3.52395
0
LINE
8
BLACK
6
CONTINUOUS
10
5.32011
20
-3.52395
11
5.31994
21
-3.52393
0
LINE
8
BLACK
6
CONTINUOUS
10
5.31994
20
-3.52393
11
5.31619
21
-3.52206
0
LINE
8
BLACK
6
CONTINUOUS
10
5.31619
20
-3.52206
11
5.31548
21
-3.52153
0
LINE
8
BLACK
6
CONTINUOUS
10
5.31548
20
-3.52153
11
5.31542
21
-3.52151
0
LINE
8
BLACK
6
CONTINUOUS
10
5.31542
20
-3.52151
11
5.31355
21
-3.51963
0
LINE
8
BLACK
6
CONTINUOUS
10
5.31355
20
-3.51963
11
5.31304
21
-3.51891
0
LINE
8
BLACK
6
CONTINUOUS
10
5.31304
20
-3.51891
11
5.31299
21
-3.51886
0
LINE
8
BLACK
6
CONTINUOUS
10
5.31299
20
-3.51886
11
5.31112
21
-3.51511
0
LINE
8
BLACK
6
CONTINUOUS
10
5.31112
20
-3.51511
11
5.31083
21
-3.51413
0
LINE
8
BLACK
6
CONTINUOUS
10
5.31083
20
-3.51413
11
5.31087
21
-3.51396
0
LINE
8
BLACK
6
CONTINUOUS
10
5.31087
20
-3.51396
11
5.31081
21
-3.51379
0
LINE
8
BLACK
6
CONTINUOUS
10
5.31081
20
-3.51379
11
5.31081
21
-3.50629
0
LINE
8
BLACK
6
CONTINUOUS
10
5.31081
20
-3.50629
11
5.31099
21
-3.50528
0
LINE
8
BLACK
6
CONTINUOUS
10
5.31099
20
-3.50528
11
5.3111
21
-3.50515
0
LINE
8
BLACK
6
CONTINUOUS
10
5.3111
20
-3.50515
11
5.31112
21
-3.50497
0
LINE
8
BLACK
6
CONTINUOUS
10
5.31112
20
-3.50497
11
5.31299
21
-3.50122
0
LINE
8
BLACK
6
CONTINUOUS
10
5.31299
20
-3.50122
11
5.31352
21
-3.50051
0
LINE
8
BLACK
6
CONTINUOUS
10
5.31352
20
-3.50051
11
5.31355
21
-3.50046
0
LINE
8
BLACK
6
CONTINUOUS
10
5.31355
20
-3.50046
11
5.31521
21
-3.49879
0
LINE
8
BLACK
6
CONTINUOUS
10
5.31521
20
-3.49879
11
5.31355
21
-3.49713
0
LINE
8
BLACK
6
CONTINUOUS
10
5.31355
20
-3.49713
11
5.31304
21
-3.49641
0
LINE
8
BLACK
6
CONTINUOUS
10
5.31304
20
-3.49641
11
5.31299
21
-3.49637
0
LINE
8
BLACK
6
CONTINUOUS
10
5.31299
20
-3.49637
11
5.31112
21
-3.49262
0
LINE
8
BLACK
6
CONTINUOUS
10
5.31112
20
-3.49262
11
5.31083
21
-3.49163
0
LINE
8
BLACK
6
CONTINUOUS
10
5.31083
20
-3.49163
11
5.31087
21
-3.49146
0
LINE
8
BLACK
6
CONTINUOUS
10
5.31087
20
-3.49146
11
5.31081
21
-3.4913
0
LINE
8
BLACK
6
CONTINUOUS
10
5.31081
20
-3.4913
11
5.31081
21
-3.48942
0
LINE
8
BLACK
6
CONTINUOUS
10
5.31081
20
-3.48942
11
5.31099
21
-3.48841
0
LINE
8
BLACK
6
CONTINUOUS
10
5.31099
20
-3.48841
11
5.3111
21
-3.48828
0
LINE
8
BLACK
6
CONTINUOUS
10
5.3111
20
-3.48828
11
5.31112
21
-3.4881
0
LINE
8
BLACK
6
CONTINUOUS
10
5.31112
20
-3.4881
11
5.31299
21
-3.48435
0
LINE
8
BLACK
6
CONTINUOUS
10
5.31299
20
-3.48435
11
5.31352
21
-3.48364
0
LINE
8
BLACK
6
CONTINUOUS
10
5.31352
20
-3.48364
11
5.31355
21
-3.48358
0
LINE
8
BLACK
6
CONTINUOUS
10
5.31355
20
-3.48358
11
5.31542
21
-3.48171
0
LINE
8
BLACK
6
CONTINUOUS
10
5.31542
20
-3.48171
11
5.31615
21
-3.4812
0
LINE
8
BLACK
6
CONTINUOUS
10
5.31615
20
-3.4812
11
5.31619
21
-3.48116
0
LINE
8
BLACK
6
CONTINUOUS
10
5.31619
20
-3.48116
11
5.31994
21
-3.47928
0
LINE
8
BLACK
6
CONTINUOUS
10
5.31994
20
-3.47928
11
5.32092
21
-3.47899
0
LINE
8
BLACK
6
CONTINUOUS
10
5.32092
20
-3.47899
11
5.32109
21
-3.47903
0
LINE
8
BLACK
6
CONTINUOUS
10
5.32109
20
-3.47903
11
5.32126
21
-3.47897
0
LINE
8
BLACK
6
CONTINUOUS
10
5.32126
20
-3.47897
11
5.32876
21
-3.47897
0
LINE
8
BLACK
6
CONTINUOUS
10
5.32876
20
-3.47897
11
5.32977
21
-3.47915
0
LINE
8
BLACK
6
CONTINUOUS
10
5.31926
20
-3.5031
11
5.31806
21
-3.50429
0
LINE
8
BLACK
6
CONTINUOUS
10
5.31806
20
-3.50429
11
5.31671
21
-3.50699
0
LINE
8
BLACK
6
CONTINUOUS
10
5.31671
20
-3.50699
11
5.31671
21
-3.5131
0
LINE
8
BLACK
6
CONTINUOUS
10
5.31671
20
-3.5131
11
5.31806
21
-3.51579
0
LINE
8
BLACK
6
CONTINUOUS
10
5.31806
20
-3.51579
11
5.31926
21
-3.51699
0
LINE
8
BLACK
6
CONTINUOUS
10
5.31926
20
-3.51699
11
5.32196
21
-3.51834
0
LINE
8
BLACK
6
CONTINUOUS
10
5.32196
20
-3.51834
11
5.32806
21
-3.51834
0
LINE
8
BLACK
6
CONTINUOUS
10
5.32806
20
-3.51834
11
5.33076
21
-3.51699
0
LINE
8
BLACK
6
CONTINUOUS
10
5.33076
20
-3.51699
11
5.33196
21
-3.51579
0
LINE
8
BLACK
6
CONTINUOUS
10
5.33196
20
-3.51579
11
5.33331
21
-3.5131
0
LINE
8
BLACK
6
CONTINUOUS
10
5.33331
20
-3.5131
11
5.33331
21
-3.50699
0
LINE
8
BLACK
6
CONTINUOUS
10
5.33331
20
-3.50699
11
5.33196
21
-3.50429
0
LINE
8
BLACK
6
CONTINUOUS
10
5.33196
20
-3.50429
11
5.33076
21
-3.5031
0
LINE
8
BLACK
6
CONTINUOUS
10
5.33076
20
-3.5031
11
5.32806
21
-3.50175
0
LINE
8
BLACK
6
CONTINUOUS
10
5.32806
20
-3.50175
11
5.32196
21
-3.50175
0
LINE
8
BLACK
6
CONTINUOUS
10
5.32196
20
-3.50175
11
5.31926
21
-3.5031
0
LINE
8
BLACK
6
CONTINUOUS
10
5.31926
20
-3.48622
11
5.31806
21
-3.48742
0
LINE
8
BLACK
6
CONTINUOUS
10
5.31806
20
-3.48742
11
5.31671
21
-3.49012
0
LINE
8
BLACK
6
CONTINUOUS
10
5.31671
20
-3.49012
11
5.31671
21
-3.4906
0
LINE
8
BLACK
6
CONTINUOUS
10
5.31671
20
-3.4906
11
5.31806
21
-3.4933
0
LINE
8
BLACK
6
CONTINUOUS
10
5.31806
20
-3.4933
11
5.31926
21
-3.49449
0
LINE
8
BLACK
6
CONTINUOUS
10
5.31926
20
-3.49449
11
5.32196
21
-3.49584
0
LINE
8
BLACK
6
CONTINUOUS
10
5.32196
20
-3.49584
11
5.32806
21
-3.49584
0
LINE
8
BLACK
6
CONTINUOUS
10
5.32806
20
-3.49584
11
5.33076
21
-3.49449
0
LINE
8
BLACK
6
CONTINUOUS
10
5.33076
20
-3.49449
11
5.33196
21
-3.4933
0
LINE
8
BLACK
6
CONTINUOUS
10
5.33196
20
-3.4933
11
5.33331
21
-3.4906
0
LINE
8
BLACK
6
CONTINUOUS
10
5.33331
20
-3.4906
11
5.33331
21
-3.49012
0
LINE
8
BLACK
6
CONTINUOUS
10
5.33331
20
-3.49012
11
5.33196
21
-3.48742
0
LINE
8
BLACK
6
CONTINUOUS
10
5.33196
20
-3.48742
11
5.33076
21
-3.48622
0
LINE
8
BLACK
6
CONTINUOUS
10
5.33076
20
-3.48622
11
5.32806
21
-3.48487
0
LINE
8
BLACK
6
CONTINUOUS
10
5.32806
20
-3.48487
11
5.32196
21
-3.48487
0
LINE
8
BLACK
6
CONTINUOUS
10
5.32196
20
-3.48487
11
5.31926
21
-3.48622
0
LINE
8
BLACK
6
CONTINUOUS
10
5.42293
20
-3.47905
11
5.42307
21
-3.47903
0
LINE
8
BLACK
6
CONTINUOUS
10
5.42307
20
-3.47903
11
5.42317
21
-3.47909
0
LINE
8
BLACK
6
CONTINUOUS
10
5.42317
20
-3.47909
11
5.42351
21
-3.47915
0
LINE
8
BLACK
6
CONTINUOUS
10
5.42351
20
-3.47915
11
5.42412
21
-3.47966
0
LINE
8
BLACK
6
CONTINUOUS
10
5.42412
20
-3.47966
11
5.4248
21
-3.48007
0
LINE
8
BLACK
6
CONTINUOUS
10
5.4248
20
-3.48007
11
5.42487
21
-3.48029
0
LINE
8
BLACK
6
CONTINUOUS
10
5.42487
20
-3.48029
11
5.42505
21
-3.48045
0
LINE
8
BLACK
6
CONTINUOUS
10
5.42505
20
-3.48045
11
5.42519
21
-3.48123
0
LINE
8
BLACK
6
CONTINUOUS
10
5.42519
20
-3.48123
11
5.42545
21
-3.48198
0
LINE
8
BLACK
6
CONTINUOUS
10
5.42545
20
-3.48198
11
5.42536
21
-3.4822
0
LINE
8
BLACK
6
CONTINUOUS
10
5.42536
20
-3.4822
11
5.42541
21
-3.48243
0
LINE
8
BLACK
6
CONTINUOUS
10
5.42541
20
-3.48243
11
5.42501
21
-3.48312
0
LINE
8
BLACK
6
CONTINUOUS
10
5.42501
20
-3.48312
11
5.42472
21
-3.48387
0
LINE
8
BLACK
6
CONTINUOUS
10
5.42472
20
-3.48387
11
5.41576
21
-3.4941
0
LINE
8
BLACK
6
CONTINUOUS
10
5.41576
20
-3.4941
11
5.41601
21
-3.49415
0
LINE
8
BLACK
6
CONTINUOUS
10
5.41601
20
-3.49415
11
5.41614
21
-3.49426
0
LINE
8
BLACK
6
CONTINUOUS
10
5.41614
20
-3.49426
11
5.41632
21
-3.49428
0
LINE
8
BLACK
6
CONTINUOUS
10
5.41632
20
-3.49428
11
5.42007
21
-3.49615
0
LINE
8
BLACK
6
CONTINUOUS
10
5.42007
20
-3.49615
11
5.42078
21
-3.49668
0
LINE
8
BLACK
6
CONTINUOUS
10
5.42078
20
-3.49668
11
5.42084
21
-3.49671
0
LINE
8
BLACK
6
CONTINUOUS
10
5.42084
20
-3.49671
11
5.42271
21
-3.49858
0
LINE
8
BLACK
6
CONTINUOUS
10
5.42271
20
-3.49858
11
5.42322
21
-3.4993
0
LINE
8
BLACK
6
CONTINUOUS
10
5.42322
20
-3.4993
11
5.42326
21
-3.49935
0
LINE
8
BLACK
6
CONTINUOUS
10
5.42326
20
-3.49935
11
5.42514
21
-3.5031
0
LINE
8
BLACK
6
CONTINUOUS
10
5.42514
20
-3.5031
11
5.42543
21
-3.50408
0
LINE
8
BLACK
6
CONTINUOUS
10
5.42543
20
-3.50408
11
5.42539
21
-3.50425
0
LINE
8
BLACK
6
CONTINUOUS
10
5.42539
20
-3.50425
11
5.42545
21
-3.50442
0
LINE
8
BLACK
6
CONTINUOUS
10
5.42545
20
-3.50442
11
5.42545
21
-3.51379
0
LINE
8
BLACK
6
CONTINUOUS
10
5.42545
20
-3.51379
11
5.42527
21
-3.5148
0
LINE
8
BLACK
6
CONTINUOUS
10
5.42527
20
-3.5148
11
5.42516
21
-3.51494
0
LINE
8
BLACK
6
CONTINUOUS
10
5.42516
20
-3.51494
11
5.42514
21
-3.51511
0
LINE
8
BLACK
6
CONTINUOUS
10
5.42514
20
-3.51511
11
5.42326
21
-3.51886
0
LINE
8
BLACK
6
CONTINUOUS
10
5.42326
20
-3.51886
11
5.42274
21
-3.51957
0
LINE
8
BLACK
6
CONTINUOUS
10
5.42274
20
-3.51957
11
5.42271
21
-3.51963
0
LINE
8
BLACK
6
CONTINUOUS
10
5.42271
20
-3.51963
11
5.42084
21
-3.52151
0
LINE
8
BLACK
6
CONTINUOUS
10
5.42084
20
-3.52151
11
5.42011
21
-3.52201
0
LINE
8
BLACK
6
CONTINUOUS
10
5.42011
20
-3.52201
11
5.42007
21
-3.52206
0
LINE
8
BLACK
6
CONTINUOUS
10
5.42007
20
-3.52206
11
5.41632
21
-3.52393
0
LINE
8
BLACK
6
CONTINUOUS
10
5.41632
20
-3.52393
11
5.41534
21
-3.52423
0
LINE
8
BLACK
6
CONTINUOUS
10
5.41534
20
-3.52423
11
5.41516
21
-3.52418
0
LINE
8
BLACK
6
CONTINUOUS
10
5.41516
20
-3.52418
11
5.415
21
-3.52424
0
LINE
8
BLACK
6
CONTINUOUS
10
5.415
20
-3.52424
11
5.40375
21
-3.52424
0
LINE
8
BLACK
6
CONTINUOUS
10
5.40375
20
-3.52424
11
5.40274
21
-3.52407
0
LINE
8
BLACK
6
CONTINUOUS
10
5.40274
20
-3.52407
11
5.4026
21
-3.52395
0
LINE
8
BLACK
6
CONTINUOUS
10
5.4026
20
-3.52395
11
5.40243
21
-3.52393
0
LINE
8
BLACK
6
CONTINUOUS
10
5.40243
20
-3.52393
11
5.39868
21
-3.52206
0
LINE
8
BLACK
6
CONTINUOUS
10
5.39868
20
-3.52206
11
5.39797
21
-3.52153
0
LINE
8
BLACK
6
CONTINUOUS
10
5.39797
20
-3.52153
11
5.39791
21
-3.52151
0
LINE
8
BLACK
6
CONTINUOUS
10
5.39791
20
-3.52151
11
5.39604
21
-3.51963
0
LINE
8
BLACK
6
CONTINUOUS
10
5.39604
20
-3.51963
11
5.39545
21
-3.51879
0
LINE
8
BLACK
6
CONTINUOUS
10
5.39545
20
-3.51879
11
5.39527
21
-3.51678
0
LINE
8
BLACK
6
CONTINUOUS
10
5.39527
20
-3.51678
11
5.39643
21
-3.51512
0
LINE
8
BLACK
6
CONTINUOUS
10
5.39643
20
-3.51512
11
5.39838
21
-3.5146
0
LINE
8
BLACK
6
CONTINUOUS
10
5.39838
20
-3.5146
11
5.40021
21
-3.51545
0
LINE
8
BLACK
6
CONTINUOUS
10
5.40021
20
-3.51545
11
5.40175
21
-3.51699
0
LINE
8
BLACK
6
CONTINUOUS
10
5.40175
20
-3.51699
11
5.40445
21
-3.51834
0
LINE
8
BLACK
6
CONTINUOUS
10
5.40445
20
-3.51834
11
5.4143
21
-3.51834
0
LINE
8
BLACK
6
CONTINUOUS
10
5.4143
20
-3.51834
11
5.417
21
-3.51699
0
LINE
8
BLACK
6
CONTINUOUS
10
5.417
20
-3.51699
11
5.4182
21
-3.51579
0
LINE
8
BLACK
6
CONTINUOUS
10
5.4182
20
-3.51579
11
5.41954
21
-3.5131
0
LINE
8
BLACK
6
CONTINUOUS
10
5.41954
20
-3.5131
11
5.41954
21
-3.50512
0
LINE
8
BLACK
6
CONTINUOUS
10
5.41954
20
-3.50512
11
5.4182
21
-3.50242
0
LINE
8
BLACK
6
CONTINUOUS
10
5.4182
20
-3.50242
11
5.417
21
-3.50122
0
LINE
8
BLACK
6
CONTINUOUS
10
5.417
20
-3.50122
11
5.4143
21
-3.49987
0
LINE
8
BLACK
6
CONTINUOUS
10
5.4143
20
-3.49987
11
5.40937
21
-3.49987
0
LINE
8
BLACK
6
CONTINUOUS
10
5.40937
20
-3.49987
11
5.40894
21
-3.4998
0
LINE
8
BLACK
6
CONTINUOUS
10
5.40894
20
-3.4998
11
5.4088
21
-3.49982
0
LINE
8
BLACK
6
CONTINUOUS
10
5.4088
20
-3.49982
11
5.4087
21
-3.49975
0
LINE
8
BLACK
6
CONTINUOUS
10
5.4087
20
-3.49975
11
5.40836
21
-3.49969
0
LINE
8
BLACK
6
CONTINUOUS
10
5.40836
20
-3.49969
11
5.40775
21
-3.49918
0
LINE
8
BLACK
6
CONTINUOUS
10
5.40775
20
-3.49918
11
5.40707
21
-3.49877
0
LINE
8
BLACK
6
CONTINUOUS
10
5.40707
20
-3.49877
11
5.407
21
-3.49855
0
LINE
8
BLACK
6
CONTINUOUS
10
5.407
20
-3.49855
11
5.40682
21
-3.4984
0
LINE
8
BLACK
6
CONTINUOUS
10
5.40682
20
-3.4984
11
5.40668
21
-3.49761
0
LINE
8
BLACK
6
CONTINUOUS
10
5.40668
20
-3.49761
11
5.40642
21
-3.49686
0
LINE
8
BLACK
6
CONTINUOUS
10
5.40642
20
-3.49686
11
5.40651
21
-3.49664
0
LINE
8
BLACK
6
CONTINUOUS
10
5.40651
20
-3.49664
11
5.40647
21
-3.49641
0
LINE
8
BLACK
6
CONTINUOUS
10
5.40647
20
-3.49641
11
5.40686
21
-3.49572
0
LINE
8
BLACK
6
CONTINUOUS
10
5.40686
20
-3.49572
11
5.40715
21
-3.49498
0
LINE
8
BLACK
6
CONTINUOUS
10
5.40715
20
-3.49498
11
5.41599
21
-3.48487
0
LINE
8
BLACK
6
CONTINUOUS
10
5.41599
20
-3.48487
11
5.39813
21
-3.48487
0
LINE
8
BLACK
6
CONTINUOUS
10
5.39813
20
-3.48487
11
5.39712
21
-3.4847
0
LINE
8
BLACK
6
CONTINUOUS
10
5.39712
20
-3.4847
11
5.39557
21
-3.4834
0
LINE
8
BLACK
6
CONTINUOUS
10
5.39557
20
-3.4834
11
5.39522
21
-3.48141
0
LINE
8
BLACK
6
CONTINUOUS
10
5.39522
20
-3.48141
11
5.39623
21
-3.47966
0
LINE
8
BLACK
6
CONTINUOUS
10
5.39623
20
-3.47966
11
5.39813
21
-3.47897
0
LINE
8
BLACK
6
CONTINUOUS
10
5.39813
20
-3.47897
11
5.4225
21
-3.47897
0
LINE
8
BLACK
6
CONTINUOUS
10
5.4225
20
-3.47897
11
5.42293
21
-3.47905
0
LINE
8
BLACK
6
CONTINUOUS
10
5.476
20
-3.47915
11
5.47755
21
-3.48045
0
LINE
8
BLACK
6
CONTINUOUS
10
5.47755
20
-3.48045
11
5.4779
21
-3.48243
0
LINE
8
BLACK
6
CONTINUOUS
10
5.4779
20
-3.48243
11
5.47689
21
-3.48418
0
LINE
8
BLACK
6
CONTINUOUS
10
5.47689
20
-3.48418
11
5.47499
21
-3.48487
0
LINE
8
BLACK
6
CONTINUOUS
10
5.47499
20
-3.48487
11
5.46819
21
-3.48487
0
LINE
8
BLACK
6
CONTINUOUS
10
5.46819
20
-3.48487
11
5.46549
21
-3.48622
0
LINE
8
BLACK
6
CONTINUOUS
10
5.46549
20
-3.48622
11
5.46416
21
-3.48755
0
LINE
8
BLACK
6
CONTINUOUS
10
5.46416
20
-3.48755
11
5.46086
21
-3.49251
0
LINE
8
BLACK
6
CONTINUOUS
10
5.46086
20
-3.49251
11
5.46013
21
-3.49543
0
LINE
8
BLACK
6
CONTINUOUS
10
5.46013
20
-3.49543
11
5.46242
21
-3.49428
0
LINE
8
BLACK
6
CONTINUOUS
10
5.46242
20
-3.49428
11
5.4634
21
-3.49399
0
LINE
8
BLACK
6
CONTINUOUS
10
5.4634
20
-3.49399
11
5.46358
21
-3.49403
0
LINE
8
BLACK
6
CONTINUOUS
10
5.46358
20
-3.49403
11
5.46374
21
-3.49397
0
LINE
8
BLACK
6
CONTINUOUS
10
5.46374
20
-3.49397
11
5.47124
21
-3.49397
0
LINE
8
BLACK
6
CONTINUOUS
10
5.47124
20
-3.49397
11
5.47225
21
-3.49415
0
LINE
8
BLACK
6
CONTINUOUS
10
5.47225
20
-3.49415
11
5.47239
21
-3.49426
0
LINE
8
BLACK
6
CONTINUOUS
10
5.47239
20
-3.49426
11
5.47256
21
-3.49428
0
LINE
8
BLACK
6
CONTINUOUS
10
5.47256
20
-3.49428
11
5.47631
21
-3.49615
0
LINE
8
BLACK
6
CONTINUOUS
10
5.47631
20
-3.49615
11
5.47702
21
-3.49668
0
LINE
8
BLACK
6
CONTINUOUS
10
5.47702
20
-3.49668
11
5.47708
21
-3.49671
0
LINE
8
BLACK
6
CONTINUOUS
10
5.47708
20
-3.49671
11
5.47895
21
-3.49858
0
LINE
8
BLACK
6
CONTINUOUS
10
5.47895
20
-3.49858
11
5.47946
21
-3.4993
0
LINE
8
BLACK
6
CONTINUOUS
10
5.47946
20
-3.4993
11
5.47951
21
-3.49935
0
LINE
8
BLACK
6
CONTINUOUS
10
5.47951
20
-3.49935
11
5.48138
21
-3.5031
0
LINE
8
BLACK
6
CONTINUOUS
10
5.48138
20
-3.5031
11
5.48167
21
-3.50408
0
LINE
8
BLACK
6
CONTINUOUS
10
5.48167
20
-3.50408
11
5.48163
21
-3.50425
0
LINE
8
BLACK
6
CONTINUOUS
10
5.48163
20
-3.50425
11
5.48169
21
-3.50442
0
LINE
8
BLACK
6
CONTINUOUS
10
5.48169
20
-3.50442
11
5.48169
21
-3.51379
0
LINE
8
BLACK
6
CONTINUOUS
10
5.48169
20
-3.51379
11
5.48151
21
-3.5148
0
LINE
8
BLACK
6
CONTINUOUS
10
5.48151
20
-3.5148
11
5.4814
21
-3.51494
0
LINE
8
BLACK
6
CONTINUOUS
10
5.4814
20
-3.51494
11
5.48138
21
-3.51511
0
LINE
8
BLACK
6
CONTINUOUS
10
5.48138
20
-3.51511
11
5.47951
21
-3.51886
0
LINE
8
BLACK
6
CONTINUOUS
10
5.47951
20
-3.51886
11
5.47898
21
-3.51957
0
LINE
8
BLACK
6
CONTINUOUS
10
5.47898
20
-3.51957
11
5.47895
21
-3.51963
0
LINE
8
BLACK
6
CONTINUOUS
10
5.47895
20
-3.51963
11
5.47708
21
-3.52151
0
LINE
8
BLACK
6
CONTINUOUS
10
5.47708
20
-3.52151
11
5.47636
21
-3.52201
0
LINE
8
BLACK
6
CONTINUOUS
10
5.47636
20
-3.52201
11
5.47631
21
-3.52206
0
LINE
8
BLACK
6
CONTINUOUS
10
5.47631
20
-3.52206
11
5.47256
21
-3.52393
0
LINE
8
BLACK
6
CONTINUOUS
10
5.47256
20
-3.52393
11
5.47158
21
-3.52423
0
LINE
8
BLACK
6
CONTINUOUS
10
5.47158
20
-3.52423
11
5.47141
21
-3.52418
0
LINE
8
BLACK
6
CONTINUOUS
10
5.47141
20
-3.52418
11
5.47124
21
-3.52424
0
LINE
8
BLACK
6
CONTINUOUS
10
5.47124
20
-3.52424
11
5.46374
21
-3.52424
0
LINE
8
BLACK
6
CONTINUOUS
10
5.46374
20
-3.52424
11
5.46273
21
-3.52407
0
LINE
8
BLACK
6
CONTINUOUS
10
5.46273
20
-3.52407
11
5.4626
21
-3.52395
0
LINE
8
BLACK
6
CONTINUOUS
10
5.4626
20
-3.52395
11
5.46242
21
-3.52393
0
LINE
8
BLACK
6
CONTINUOUS
10
5.46242
20
-3.52393
11
5.45867
21
-3.52206
0
LINE
8
BLACK
6
CONTINUOUS
10
5.45867
20
-3.52206
11
5.45796
21
-3.52153
0
LINE
8
BLACK
6
CONTINUOUS
10
5.45796
20
-3.52153
11
5.4579
21
-3.52151
0
LINE
8
BLACK
6
CONTINUOUS
10
5.4579
20
-3.52151
11
5.45603
21
-3.51963
0
LINE
8
BLACK
6
CONTINUOUS
10
5.45603
20
-3.51963
11
5.45552
21
-3.51891
0
LINE
8
BLACK
6
CONTINUOUS
10
5.45552
20
-3.51891
11
5.45548
21
-3.51886
0
LINE
8
BLACK
6
CONTINUOUS
10
5.45548
20
-3.51886
11
5.4536
21
-3.51511
0
LINE
8
BLACK
6
CONTINUOUS
10
5.4536
20
-3.51511
11
5.45331
21
-3.51413
0
LINE
8
BLACK
6
CONTINUOUS
10
5.45331
20
-3.51413
11
5.45335
21
-3.51396
0
LINE
8
BLACK
6
CONTINUOUS
10
5.45335
20
-3.51396
11
5.45329
21
-3.51379
0
LINE
8
BLACK
6
CONTINUOUS
10
5.45329
20
-3.51379
11
5.45329
21
-3.49879
0
LINE
8
BLACK
6
CONTINUOUS
10
5.45329
20
-3.49879
11
5.45339
21
-3.49821
0
LINE
8
BLACK
6
CONTINUOUS
10
5.45339
20
-3.49821
11
5.45338
21
-3.49808
0
LINE
8
BLACK
6
CONTINUOUS
10
5.45338
20
-3.49808
11
5.45525
21
-3.49058
0
LINE
8
BLACK
6
CONTINUOUS
10
5.45525
20
-3.49058
11
5.45566
21
-3.48967
0
LINE
8
BLACK
6
CONTINUOUS
10
5.45566
20
-3.48967
11
5.45566
21
-3.48966
0
LINE
8
BLACK
6
CONTINUOUS
10
5.45566
20
-3.48966
11
5.45941
21
-3.48403
0
LINE
8
BLACK
6
CONTINUOUS
10
5.45941
20
-3.48403
11
5.45972
21
-3.48371
0
LINE
8
BLACK
6
CONTINUOUS
10
5.45972
20
-3.48371
11
5.45978
21
-3.48358
0
LINE
8
BLACK
6
CONTINUOUS
10
5.45978
20
-3.48358
11
5.46165
21
-3.48171
0
LINE
8
BLACK
6
CONTINUOUS
10
5.46165
20
-3.48171
11
5.46238
21
-3.4812
0
LINE
8
BLACK
6
CONTINUOUS
10
5.46238
20
-3.4812
11
5.46242
21
-3.48116
0
LINE
8
BLACK
6
CONTINUOUS
10
5.46242
20
-3.48116
11
5.46617
21
-3.47928
0
LINE
8
BLACK
6
CONTINUOUS
10
5.46617
20
-3.47928
11
5.46715
21
-3.47899
0
LINE
8
BLACK
6
CONTINUOUS
10
5.46715
20
-3.47899
11
5.46733
21
-3.47903
0
LINE
8
BLACK
6
CONTINUOUS
10
5.46733
20
-3.47903
11
5.46749
21
-3.47897
0
LINE
8
BLACK
6
CONTINUOUS
10
5.46749
20
-3.47897
11
5.47499
21
-3.47897
0
LINE
8
BLACK
6
CONTINUOUS
10
5.47499
20
-3.47897
11
5.476
21
-3.47915
0
LINE
8
BLACK
6
CONTINUOUS
10
5.46174
20
-3.50122
11
5.46054
21
-3.50242
0
LINE
8
BLACK
6
CONTINUOUS
10
5.46054
20
-3.50242
11
5.4592
21
-3.50512
0
LINE
8
BLACK
6
CONTINUOUS
10
5.4592
20
-3.50512
11
5.4592
21
-3.5131
0
LINE
8
BLACK
6
CONTINUOUS
10
5.4592
20
-3.5131
11
5.46054
21
-3.51579
0
LINE
8
BLACK
6
CONTINUOUS
10
5.46054
20
-3.51579
11
5.46174
21
-3.51699
0
LINE
8
BLACK
6
CONTINUOUS
10
5.46174
20
-3.51699
11
5.46444
21
-3.51834
0
LINE
8
BLACK
6
CONTINUOUS
10
5.46444
20
-3.51834
11
5.47054
21
-3.51834
0
LINE
8
BLACK
6
CONTINUOUS
10
5.47054
20
-3.51834
11
5.47324
21
-3.51699
0
LINE
8
BLACK
6
CONTINUOUS
10
5.47324
20
-3.51699
11
5.47444
21
-3.51579
0
LINE
8
BLACK
6
CONTINUOUS
10
5.47444
20
-3.51579
11
5.47579
21
-3.5131
0
LINE
8
BLACK
6
CONTINUOUS
10
5.47579
20
-3.5131
11
5.47579
21
-3.50512
0
LINE
8
BLACK
6
CONTINUOUS
10
5.47579
20
-3.50512
11
5.47444
21
-3.50242
0
LINE
8
BLACK
6
CONTINUOUS
10
5.47444
20
-3.50242
11
5.47324
21
-3.50122
0
LINE
8
BLACK
6
CONTINUOUS
10
5.47324
20
-3.50122
11
5.47054
21
-3.49987
0
LINE
8
BLACK
6
CONTINUOUS
10
5.47054
20
-3.49987
11
5.46444
21
-3.49987
0
LINE
8
BLACK
6
CONTINUOUS
10
5.46444
20
-3.49987
11
5.46174
21
-3.50122
0
LINE
8
BLACK
6
CONTINUOUS
10
5.29727
20
-3.51466
11
5.2974
21
-3.51463
0
LINE
8
BLACK
6
CONTINUOUS
10
5.2974
20
-3.51463
11
5.29752
21
-3.5147
0
LINE
8
BLACK
6
CONTINUOUS
10
5.29752
20
-3.5147
11
5.29765
21
-3.51469
0
LINE
8
BLACK
6
CONTINUOUS
10
5.29765
20
-3.51469
11
5.29828
21
-3.51513
0
LINE
8
BLACK
6
CONTINUOUS
10
5.29828
20
-3.51513
11
5.29898
21
-3.51545
0
LINE
8
BLACK
6
CONTINUOUS
10
5.29898
20
-3.51545
11
5.30085
21
-3.51733
0
LINE
8
BLACK
6
CONTINUOUS
10
5.30085
20
-3.51733
11
5.30107
21
-3.51765
0
LINE
8
BLACK
6
CONTINUOUS
10
5.30107
20
-3.51765
11
5.30118
21
-3.51772
0
LINE
8
BLACK
6
CONTINUOUS
10
5.30118
20
-3.51772
11
5.30122
21
-3.51785
0
LINE
8
BLACK
6
CONTINUOUS
10
5.30122
20
-3.51785
11
5.30144
21
-3.51817
0
LINE
8
BLACK
6
CONTINUOUS
10
5.30144
20
-3.51817
11
5.30151
21
-3.51893
0
LINE
8
BLACK
6
CONTINUOUS
10
5.30151
20
-3.51893
11
5.3017
21
-3.51967
0
LINE
8
BLACK
6
CONTINUOUS
10
5.3017
20
-3.51967
11
5.30159
21
-3.51992
0
LINE
8
BLACK
6
CONTINUOUS
10
5.30159
20
-3.51992
11
5.30161
21
-3.52018
0
LINE
8
BLACK
6
CONTINUOUS
10
5.30161
20
-3.52018
11
5.30117
21
-3.52081
0
LINE
8
BLACK
6
CONTINUOUS
10
5.30117
20
-3.52081
11
5.30085
21
-3.52151
0
LINE
8
BLACK
6
CONTINUOUS
10
5.30085
20
-3.52151
11
5.29898
21
-3.52338
0
LINE
8
BLACK
6
CONTINUOUS
10
5.29898
20
-3.52338
11
5.29866
21
-3.5236
0
LINE
8
BLACK
6
CONTINUOUS
10
5.29866
20
-3.5236
11
5.29858
21
-3.52371
0
LINE
8
BLACK
6
CONTINUOUS
10
5.29858
20
-3.52371
11
5.29845
21
-3.52374
0
LINE
8
BLACK
6
CONTINUOUS
10
5.29845
20
-3.52374
11
5.29845
21
-3.52375
0
LINE
8
BLACK
6
CONTINUOUS
10
5.29845
20
-3.52375
11
5.29836
21
-3.52385
0
LINE
8
BLACK
6
CONTINUOUS
10
5.29836
20
-3.52385
11
5.29829
21
-3.52386
0
LINE
8
BLACK
6
CONTINUOUS
10
5.29829
20
-3.52386
11
5.29814
21
-3.52397
0
LINE
8
BLACK
6
CONTINUOUS
10
5.29814
20
-3.52397
11
5.29737
21
-3.52404
0
LINE
8
BLACK
6
CONTINUOUS
10
5.29737
20
-3.52404
11
5.29663
21
-3.52423
0
LINE
8
BLACK
6
CONTINUOUS
10
5.29663
20
-3.52423
11
5.29651
21
-3.52418
0
LINE
8
BLACK
6
CONTINUOUS
10
5.29651
20
-3.52418
11
5.29638
21
-3.5242
0
LINE
8
BLACK
6
CONTINUOUS
10
5.29638
20
-3.5242
11
5.29626
21
-3.52413
0
LINE
8
BLACK
6
CONTINUOUS
10
5.29626
20
-3.52413
11
5.29612
21
-3.52414
0
LINE
8
BLACK
6
CONTINUOUS
10
5.29612
20
-3.52414
11
5.2955
21
-3.5237
0
LINE
8
BLACK
6
CONTINUOUS
10
5.2955
20
-3.5237
11
5.2948
21
-3.52338
0
LINE
8
BLACK
6
CONTINUOUS
10
5.2948
20
-3.52338
11
5.29293
21
-3.52151
0
LINE
8
BLACK
6
CONTINUOUS
10
5.29293
20
-3.52151
11
5.2927
21
-3.52119
0
LINE
8
BLACK
6
CONTINUOUS
10
5.2927
20
-3.52119
11
5.29259
21
-3.52111
0
LINE
8
BLACK
6
CONTINUOUS
10
5.29259
20
-3.52111
11
5.29256
21
-3.52098
0
LINE
8
BLACK
6
CONTINUOUS
10
5.29256
20
-3.52098
11
5.29234
21
-3.52067
0
LINE
8
BLACK
6
CONTINUOUS
10
5.29234
20
-3.52067
11
5.29227
21
-3.5199
0
LINE
8
BLACK
6
CONTINUOUS
10
5.29227
20
-3.5199
11
5.29207
21
-3.51916
0
LINE
8
BLACK
6
CONTINUOUS
10
5.29207
20
-3.51916
11
5.29218
21
-3.51892
0
LINE
8
BLACK
6
CONTINUOUS
10
5.29218
20
-3.51892
11
5.29216
21
-3.51865
0
LINE
8
BLACK
6
CONTINUOUS
10
5.29216
20
-3.51865
11
5.2926
21
-3.51802
0
LINE
8
BLACK
6
CONTINUOUS
10
5.2926
20
-3.51802
11
5.29293
21
-3.51733
0
LINE
8
BLACK
6
CONTINUOUS
10
5.29293
20
-3.51733
11
5.2948
21
-3.51545
0
LINE
8
BLACK
6
CONTINUOUS
10
5.2948
20
-3.51545
11
5.29512
21
-3.51523
0
LINE
8
BLACK
6
CONTINUOUS
10
5.29512
20
-3.51523
11
5.29519
21
-3.51512
0
LINE
8
BLACK
6
CONTINUOUS
10
5.29519
20
-3.51512
11
5.29532
21
-3.51509
0
LINE
8
BLACK
6
CONTINUOUS
10
5.29532
20
-3.51509
11
5.29533
21
-3.51508
0
LINE
8
BLACK
6
CONTINUOUS
10
5.29533
20
-3.51508
11
5.29541
21
-3.51499
0
LINE
8
BLACK
6
CONTINUOUS
10
5.29541
20
-3.51499
11
5.29549
21
-3.51497
0
LINE
8
BLACK
6
CONTINUOUS
10
5.29549
20
-3.51497
11
5.29564
21
-3.51487
0
LINE
8
BLACK
6
CONTINUOUS
10
5.29564
20
-3.51487
11
5.2964
21
-3.5148
0
LINE
8
BLACK
6
CONTINUOUS
10
5.2964
20
-3.5148
11
5.29715
21
-3.5146
0
LINE
8
BLACK
6
CONTINUOUS
10
5.29715
20
-3.5146
11
5.29727
21
-3.51466
0
LINE
8
BLACK
6
CONTINUOUS
10
5.43975
20
-3.51466
11
5.43988
21
-3.51463
0
LINE
8
BLACK
6
CONTINUOUS
10
5.43988
20
-3.51463
11
5.44
21
-3.5147
0
LINE
8
BLACK
6
CONTINUOUS
10
5.44
20
-3.5147
11
5.44013
21
-3.51469
0
LINE
8
BLACK
6
CONTINUOUS
10
5.44013
20
-3.51469
11
5.44076
21
-3.51513
0
LINE
8
BLACK
6
CONTINUOUS
10
5.44076
20
-3.51513
11
5.44146
21
-3.51545
0
LINE
8
BLACK
6
CONTINUOUS
10
5.44146
20
-3.51545
11
5.44333
21
-3.51733
0
LINE
8
BLACK
6
CONTINUOUS
10
5.44333
20
-3.51733
11
5.44356
21
-3.51765
0
LINE
8
BLACK
6
CONTINUOUS
10
5.44356
20
-3.51765
11
5.44366
21
-3.51772
0
LINE
8
BLACK
6
CONTINUOUS
10
5.44366
20
-3.51772
11
5.4437
21
-3.51785
0
LINE
8
BLACK
6
CONTINUOUS
10
5.4437
20
-3.51785
11
5.44392
21
-3.51817
0
LINE
8
BLACK
6
CONTINUOUS
10
5.44392
20
-3.51817
11
5.44399
21
-3.51893
0
LINE
8
BLACK
6
CONTINUOUS
10
5.44399
20
-3.51893
11
5.44419
21
-3.51967
0
LINE
8
BLACK
6
CONTINUOUS
10
5.44419
20
-3.51967
11
5.44407
21
-3.51992
0
LINE
8
BLACK
6
CONTINUOUS
10
5.44407
20
-3.51992
11
5.4441
21
-3.52018
0
LINE
8
BLACK
6
CONTINUOUS
10
5.4441
20
-3.52018
11
5.44366
21
-3.52081
0
LINE
8
BLACK
6
CONTINUOUS
10
5.44366
20
-3.52081
11
5.44333
21
-3.52151
0
LINE
8
BLACK
6
CONTINUOUS
10
5.44333
20
-3.52151
11
5.44146
21
-3.52338
0
LINE
8
BLACK
6
CONTINUOUS
10
5.44146
20
-3.52338
11
5.44114
21
-3.5236
0
LINE
8
BLACK
6
CONTINUOUS
10
5.44114
20
-3.5236
11
5.44106
21
-3.52371
0
LINE
8
BLACK
6
CONTINUOUS
10
5.44106
20
-3.52371
11
5.44094
21
-3.52374
0
LINE
8
BLACK
6
CONTINUOUS
10
5.44094
20
-3.52374
11
5.44093
21
-3.52375
0
LINE
8
BLACK
6
CONTINUOUS
10
5.44093
20
-3.52375
11
5.44085
21
-3.52385
0
LINE
8
BLACK
6
CONTINUOUS
10
5.44085
20
-3.52385
11
5.44077
21
-3.52386
0
LINE
8
BLACK
6
CONTINUOUS
10
5.44077
20
-3.52386
11
5.44062
21
-3.52397
0
LINE
8
BLACK
6
CONTINUOUS
10
5.44062
20
-3.52397
11
5.43985
21
-3.52404
0
LINE
8
BLACK
6
CONTINUOUS
10
5.43985
20
-3.52404
11
5.43911
21
-3.52423
0
LINE
8
BLACK
6
CONTINUOUS
10
5.43911
20
-3.52423
11
5.43899
21
-3.52418
0
LINE
8
BLACK
6
CONTINUOUS
10
5.43899
20
-3.52418
11
5.43886
21
-3.5242
0
LINE
8
BLACK
6
CONTINUOUS
10
5.43886
20
-3.5242
11
5.43874
21
-3.52413
0
LINE
8
BLACK
6
CONTINUOUS
10
5.43874
20
-3.52413
11
5.43861
21
-3.52414
0
LINE
8
BLACK
6
CONTINUOUS
10
5.43861
20
-3.52414
11
5.43798
21
-3.5237
0
LINE
8
BLACK
6
CONTINUOUS
10
5.43798
20
-3.5237
11
5.43728
21
-3.52338
0
LINE
8
BLACK
6
CONTINUOUS
10
5.43728
20
-3.52338
11
5.43541
21
-3.52151
0
LINE
8
BLACK
6
CONTINUOUS
10
5.43541
20
-3.52151
11
5.43518
21
-3.52119
0
LINE
8
BLACK
6
CONTINUOUS
10
5.43518
20
-3.52119
11
5.43508
21
-3.52111
0
LINE
8
BLACK
6
CONTINUOUS
10
5.43508
20
-3.52111
11
5.43504
21
-3.52098
0
LINE
8
BLACK
6
CONTINUOUS
10
5.43504
20
-3.52098
11
5.43482
21
-3.52067
0
LINE
8
BLACK
6
CONTINUOUS
10
5.43482
20
-3.52067
11
5.43475
21
-3.5199
0
LINE
8
BLACK
6
CONTINUOUS
10
5.43475
20
-3.5199
11
5.43455
21
-3.51916
0
LINE
8
BLACK
6
CONTINUOUS
10
5.43455
20
-3.51916
11
5.43467
21
-3.51892
0
LINE
8
BLACK
6
CONTINUOUS
10
5.43467
20
-3.51892
11
5.43464
21
-3.51865
0
LINE
8
BLACK
6
CONTINUOUS
10
5.43464
20
-3.51865
11
5.43508
21
-3.51802
0
LINE
8
BLACK
6
CONTINUOUS
10
5.43508
20
-3.51802
11
5.43541
21
-3.51733
0
LINE
8
BLACK
6
CONTINUOUS
10
5.43541
20
-3.51733
11
5.43728
21
-3.51545
0
LINE
8
BLACK
6
CONTINUOUS
10
5.43728
20
-3.51545
11
5.4376
21
-3.51523
0
LINE
8
BLACK
6
CONTINUOUS
10
5.4376
20
-3.51523
11
5.43768
21
-3.51512
0
LINE
8
BLACK
6
CONTINUOUS
10
5.43768
20
-3.51512
11
5.4378
21
-3.51509
0
LINE
8
BLACK
6
CONTINUOUS
10
5.4378
20
-3.51509
11
5.43781
21
-3.51508
0
LINE
8
BLACK
6
CONTINUOUS
10
5.43781
20
-3.51508
11
5.43789
21
-3.51499
0
LINE
8
BLACK
6
CONTINUOUS
10
5.43789
20
-3.51499
11
5.43797
21
-3.51497
0
LINE
8
BLACK
6
CONTINUOUS
10
5.43797
20
-3.51497
11
5.43812
21
-3.51487
0
LINE
8
BLACK
6
CONTINUOUS
10
5.43812
20
-3.51487
11
5.43889
21
-3.5148
0
LINE
8
BLACK
6
CONTINUOUS
10
5.43889
20
-3.5148
11
5.43963
21
-3.5146
0
LINE
8
BLACK
6
CONTINUOUS
10
5.43963
20
-3.5146
11
5.43975
21
-3.51466
0
LINE
8
BLACK
6
CONTINUOUS
10
5.52153
20
-3.47941
11
5.52279
21
-3.48099
0
LINE
8
BLACK
6
CONTINUOUS
10
5.52279
20
-3.48099
11
5.53311
21
-3.51195
0
LINE
8
BLACK
6
CONTINUOUS
10
5.53311
20
-3.51195
11
5.54343
21
-3.48099
0
LINE
8
BLACK
6
CONTINUOUS
10
5.54343
20
-3.48099
11
5.54392
21
-3.48009
0
LINE
8
BLACK
6
CONTINUOUS
10
5.54392
20
-3.48009
11
5.54564
21
-3.47903
0
LINE
8
BLACK
6
CONTINUOUS
10
5.54564
20
-3.47903
11
5.54764
21
-3.47933
0
LINE
8
BLACK
6
CONTINUOUS
10
5.54764
20
-3.47933
11
5.54898
21
-3.48084
0
LINE
8
BLACK
6
CONTINUOUS
10
5.54898
20
-3.48084
11
5.54903
21
-3.48286
0
LINE
8
BLACK
6
CONTINUOUS
10
5.54903
20
-3.48286
11
5.53591
21
-3.52223
0
LINE
8
BLACK
6
CONTINUOUS
10
5.53591
20
-3.52223
11
5.53542
21
-3.52313
0
LINE
8
BLACK
6
CONTINUOUS
10
5.53542
20
-3.52313
11
5.53535
21
-3.52317
0
LINE
8
BLACK
6
CONTINUOUS
10
5.53535
20
-3.52317
11
5.53532
21
-3.52325
0
LINE
8
BLACK
6
CONTINUOUS
10
5.53532
20
-3.52325
11
5.5345
21
-3.5237
0
LINE
8
BLACK
6
CONTINUOUS
10
5.5345
20
-3.5237
11
5.5337
21
-3.52418
0
LINE
8
BLACK
6
CONTINUOUS
10
5.5337
20
-3.52418
11
5.53362
21
-3.52417
0
LINE
8
BLACK
6
CONTINUOUS
10
5.53362
20
-3.52417
11
5.53354
21
-3.52421
0
LINE
8
BLACK
6
CONTINUOUS
10
5.53354
20
-3.52421
11
5.53263
21
-3.52403
0
LINE
8
BLACK
6
CONTINUOUS
10
5.53263
20
-3.52403
11
5.5317
21
-3.52389
0
LINE
8
BLACK
6
CONTINUOUS
10
5.5317
20
-3.52389
11
5.53165
21
-3.52382
0
LINE
8
BLACK
6
CONTINUOUS
10
5.53165
20
-3.52382
11
5.53156
21
-3.52381
0
LINE
8
BLACK
6
CONTINUOUS
10
5.53156
20
-3.52381
11
5.53098
21
-3.52308
0
LINE
8
BLACK
6
CONTINUOUS
10
5.53098
20
-3.52308
11
5.53036
21
-3.52238
0
LINE
8
BLACK
6
CONTINUOUS
10
5.53036
20
-3.52238
11
5.53036
21
-3.52229
0
LINE
8
BLACK
6
CONTINUOUS
10
5.53036
20
-3.52229
11
5.53031
21
-3.52223
0
LINE
8
BLACK
6
CONTINUOUS
10
5.53031
20
-3.52223
11
5.51718
21
-3.48286
0
LINE
8
BLACK
6
CONTINUOUS
10
5.51718
20
-3.48286
11
5.51703
21
-3.48184
0
LINE
8
BLACK
6
CONTINUOUS
10
5.51703
20
-3.48184
11
5.51778
21
-3.47996
0
LINE
8
BLACK
6
CONTINUOUS
10
5.51778
20
-3.47996
11
5.51955
21
-3.479
0
LINE
8
BLACK
6
CONTINUOUS
10
5.51955
20
-3.479
11
5.52153
21
-3.47941
0
LINE
8
BLACK
6
CONTINUOUS
10
5.38414
20
-3.50352
11
5.38568
21
-3.50482
0
LINE
8
BLACK
6
CONTINUOUS
10
5.38568
20
-3.50482
11
5.38604
21
-3.50681
0
LINE
8
BLACK
6
CONTINUOUS
10
5.38604
20
-3.50681
11
5.38503
21
-3.50856
0
LINE
8
BLACK
6
CONTINUOUS
10
5.38503
20
-3.50856
11
5.38313
21
-3.50925
0
LINE
8
BLACK
6
CONTINUOUS
10
5.38313
20
-3.50925
11
5.35313
21
-3.50925
0
LINE
8
BLACK
6
CONTINUOUS
10
5.35313
20
-3.50925
11
5.35212
21
-3.50907
0
LINE
8
BLACK
6
CONTINUOUS
10
5.35212
20
-3.50907
11
5.35057
21
-3.50777
0
LINE
8
BLACK
6
CONTINUOUS
10
5.35057
20
-3.50777
11
5.35022
21
-3.50578
0
LINE
8
BLACK
6
CONTINUOUS
10
5.35022
20
-3.50578
11
5.35123
21
-3.50403
0
LINE
8
BLACK
6
CONTINUOUS
10
5.35123
20
-3.50403
11
5.35313
21
-3.50334
0
LINE
8
BLACK
6
CONTINUOUS
10
5.35313
20
-3.50334
11
5.38313
21
-3.50334
0
LINE
8
BLACK
6
CONTINUOUS
10
5.38313
20
-3.50334
11
5.38414
21
-3.50352
0
LINE
8
BLACK
6
CONTINUOUS
10
5.62681
20
-3.43574
11
5.62687
21
-3.43573
0
LINE
8
BLACK
6
CONTINUOUS
10
5.62687
20
-3.43573
11
5.6325
21
-3.43761
0
LINE
8
BLACK
6
CONTINUOUS
10
5.6325
20
-3.43761
11
5.6334
21
-3.4381
0
LINE
8
BLACK
6
CONTINUOUS
10
5.6334
20
-3.4381
11
5.63349
21
-3.43825
0
LINE
8
BLACK
6
CONTINUOUS
10
5.63349
20
-3.43825
11
5.63365
21
-3.43832
0
LINE
8
BLACK
6
CONTINUOUS
10
5.63365
20
-3.43832
11
5.63553
21
-3.4402
0
LINE
8
BLACK
6
CONTINUOUS
10
5.63553
20
-3.4402
11
5.63611
21
-3.44104
0
LINE
8
BLACK
6
CONTINUOUS
10
5.63611
20
-3.44104
11
5.63629
21
-3.44305
0
LINE
8
BLACK
6
CONTINUOUS
10
5.63629
20
-3.44305
11
5.63513
21
-3.4447
0
LINE
8
BLACK
6
CONTINUOUS
10
5.63513
20
-3.4447
11
5.63318
21
-3.44523
0
LINE
8
BLACK
6
CONTINUOUS
10
5.63318
20
-3.44523
11
5.63135
21
-3.44437
0
LINE
8
BLACK
6
CONTINUOUS
10
5.63135
20
-3.44437
11
5.62997
21
-3.44299
0
LINE
8
BLACK
6
CONTINUOUS
10
5.62997
20
-3.44299
11
5.62546
21
-3.44149
0
LINE
8
BLACK
6
CONTINUOUS
10
5.62546
20
-3.44149
11
5.62267
21
-3.44149
0
LINE
8
BLACK
6
CONTINUOUS
10
5.62267
20
-3.44149
11
5.61816
21
-3.44299
0
LINE
8
BLACK
6
CONTINUOUS
10
5.61816
20
-3.44299
11
5.61524
21
-3.44591
0
LINE
8
BLACK
6
CONTINUOUS
10
5.61524
20
-3.44591
11
5.61373
21
-3.44894
0
LINE
8
BLACK
6
CONTINUOUS
10
5.61373
20
-3.44894
11
5.61202
21
-3.45577
0
LINE
8
BLACK
6
CONTINUOUS
10
5.61202
20
-3.45577
11
5.61202
21
-3.46067
0
LINE
8
BLACK
6
CONTINUOUS
10
5.61202
20
-3.46067
11
5.61373
21
-3.4675
0
LINE
8
BLACK
6
CONTINUOUS
10
5.61373
20
-3.4675
11
5.61524
21
-3.47053
0
LINE
8
BLACK
6
CONTINUOUS
10
5.61524
20
-3.47053
11
5.61816
21
-3.47345
0
LINE
8
BLACK
6
CONTINUOUS
10
5.61816
20
-3.47345
11
5.62267
21
-3.47495
0
LINE
8
BLACK
6
CONTINUOUS
10
5.62267
20
-3.47495
11
5.62546
21
-3.47495
0
LINE
8
BLACK
6
CONTINUOUS
10
5.62546
20
-3.47495
11
5.62997
21
-3.47345
0
LINE
8
BLACK
6
CONTINUOUS
10
5.62997
20
-3.47345
11
5.63135
21
-3.47207
0
LINE
8
BLACK
6
CONTINUOUS
10
5.63135
20
-3.47207
11
5.63219
21
-3.47148
0
LINE
8
BLACK
6
CONTINUOUS
10
5.63219
20
-3.47148
11
5.6342
21
-3.4713
0
LINE
8
BLACK
6
CONTINUOUS
10
5.6342
20
-3.4713
11
5.63586
21
-3.47246
0
LINE
8
BLACK
6
CONTINUOUS
10
5.63586
20
-3.47246
11
5.63638
21
-3.47441
0
LINE
8
BLACK
6
CONTINUOUS
10
5.63638
20
-3.47441
11
5.63553
21
-3.47624
0
LINE
8
BLACK
6
CONTINUOUS
10
5.63553
20
-3.47624
11
5.63365
21
-3.47812
0
LINE
8
BLACK
6
CONTINUOUS
10
5.63365
20
-3.47812
11
5.63281
21
-3.47871
0
LINE
8
BLACK
6
CONTINUOUS
10
5.63281
20
-3.47871
11
5.63264
21
-3.47872
0
LINE
8
BLACK
6
CONTINUOUS
10
5.63264
20
-3.47872
11
5.6325
21
-3.47883
0
LINE
8
BLACK
6
CONTINUOUS
10
5.6325
20
-3.47883
11
5.62687
21
-3.48071
0
LINE
8
BLACK
6
CONTINUOUS
10
5.62687
20
-3.48071
11
5.626
21
-3.48084
0
LINE
8
BLACK
6
CONTINUOUS
10
5.626
20
-3.48084
11
5.62594
21
-3.48086
0
LINE
8
BLACK
6
CONTINUOUS
10
5.62594
20
-3.48086
11
5.62219
21
-3.48086
0
LINE
8
BLACK
6
CONTINUOUS
10
5.62219
20
-3.48086
11
5.62132
21
-3.48071
0
LINE
8
BLACK
6
CONTINUOUS
10
5.62132
20
-3.48071
11
5.62126
21
-3.48071
0
LINE
8
BLACK
6
CONTINUOUS
10
5.62126
20
-3.48071
11
5.61563
21
-3.47883
0
LINE
8
BLACK
6
CONTINUOUS
10
5.61563
20
-3.47883
11
5.61473
21
-3.47834
0
LINE
8
BLACK
6
CONTINUOUS
10
5.61473
20
-3.47834
11
5.61464
21
-3.47819
0
LINE
8
BLACK
6
CONTINUOUS
10
5.61464
20
-3.47819
11
5.61448
21
-3.47812
0
LINE
8
BLACK
6
CONTINUOUS
10
5.61448
20
-3.47812
11
5.61073
21
-3.47437
0
LINE
8
BLACK
6
CONTINUOUS
10
5.61073
20
-3.47437
11
5.61022
21
-3.47365
0
LINE
8
BLACK
6
CONTINUOUS
10
5.61022
20
-3.47365
11
5.61017
21
-3.4736
0
LINE
8
BLACK
6
CONTINUOUS
10
5.61017
20
-3.4736
11
5.6083
21
-3.46985
0
LINE
8
BLACK
6
CONTINUOUS
10
5.6083
20
-3.46985
11
5.60815
21
-3.46936
0
LINE
8
BLACK
6
CONTINUOUS
10
5.60815
20
-3.46936
11
5.60808
21
-3.46925
0
LINE
8
BLACK
6
CONTINUOUS
10
5.60808
20
-3.46925
11
5.6062
21
-3.46175
0
LINE
8
BLACK
6
CONTINUOUS
10
5.6062
20
-3.46175
11
5.60616
21
-3.46116
0
LINE
8
BLACK
6
CONTINUOUS
10
5.60616
20
-3.46116
11
5.60611
21
-3.46103
0
LINE
8
BLACK
6
CONTINUOUS
10
5.60611
20
-3.46103
11
5.60611
21
-3.45541
0
LINE
8
BLACK
6
CONTINUOUS
10
5.60611
20
-3.45541
11
5.60622
21
-3.45483
0
LINE
8
BLACK
6
CONTINUOUS
10
5.60622
20
-3.45483
11
5.6062
21
-3.45469
0
LINE
8
BLACK
6
CONTINUOUS
10
5.6062
20
-3.45469
11
5.60808
21
-3.44719
0
LINE
8
BLACK
6
CONTINUOUS
10
5.60808
20
-3.44719
11
5.60828
21
-3.44673
0
LINE
8
BLACK
6
CONTINUOUS
10
5.60828
20
-3.44673
11
5.6083
21
-3.44659
0
LINE
8
BLACK
6
CONTINUOUS
10
5.6083
20
-3.44659
11
5.61017
21
-3.44284
0
LINE
8
BLACK
6
CONTINUOUS
10
5.61017
20
-3.44284
11
5.6107
21
-3.44213
0
LINE
8
BLACK
6
CONTINUOUS
10
5.6107
20
-3.44213
11
5.61073
21
-3.44207
0
LINE
8
BLACK
6
CONTINUOUS
10
5.61073
20
-3.44207
11
5.61448
21
-3.43832
0
LINE
8
BLACK
6
CONTINUOUS
10
5.61448
20
-3.43832
11
5.61532
21
-3.43773
0
LINE
8
BLACK
6
CONTINUOUS
10
5.61532
20
-3.43773
11
5.61549
21
-3.43772
0
LINE
8
BLACK
6
CONTINUOUS
10
5.61549
20
-3.43772
11
5.61563
21
-3.43761
0
LINE
8
BLACK
6
CONTINUOUS
10
5.61563
20
-3.43761
11
5.62126
21
-3.43573
0
LINE
8
BLACK
6
CONTINUOUS
10
5.62126
20
-3.43573
11
5.62213
21
-3.43561
0
LINE
8
BLACK
6
CONTINUOUS
10
5.62213
20
-3.43561
11
5.62219
21
-3.43558
0
LINE
8
BLACK
6
CONTINUOUS
10
5.62219
20
-3.43558
11
5.62594
21
-3.43558
0
LINE
8
BLACK
6
CONTINUOUS
10
5.62594
20
-3.43558
11
5.62681
21
-3.43574
0
LINE
8
BLACK
6
CONTINUOUS
10
5.66618
20
-3.43574
11
5.66624
21
-3.43573
0
LINE
8
BLACK
6
CONTINUOUS
10
5.66624
20
-3.43573
11
5.67187
21
-3.43761
0
LINE
8
BLACK
6
CONTINUOUS
10
5.67187
20
-3.43761
11
5.67277
21
-3.4381
0
LINE
8
BLACK
6
CONTINUOUS
10
5.67277
20
-3.4381
11
5.67383
21
-3.43982
0
LINE
8
BLACK
6
CONTINUOUS
10
5.67383
20
-3.43982
11
5.67353
21
-3.44182
0
LINE
8
BLACK
6
CONTINUOUS
10
5.67353
20
-3.44182
11
5.67202
21
-3.44316
0
LINE
8
BLACK
6
CONTINUOUS
10
5.67202
20
-3.44316
11
5.67
21
-3.44321
0
LINE
8
BLACK
6
CONTINUOUS
10
5.67
20
-3.44321
11
5.66483
21
-3.44149
0
LINE
8
BLACK
6
CONTINUOUS
10
5.66483
20
-3.44149
11
5.65663
21
-3.44149
0
LINE
8
BLACK
6
CONTINUOUS
10
5.65663
20
-3.44149
11
5.65394
21
-3.44284
0
LINE
8
BLACK
6
CONTINUOUS
10
5.65394
20
-3.44284
11
5.65274
21
-3.44403
0
LINE
8
BLACK
6
CONTINUOUS
10
5.65274
20
-3.44403
11
5.65139
21
-3.44673
0
LINE
8
BLACK
6
CONTINUOUS
10
5.65139
20
-3.44673
11
5.65139
21
-3.44909
0
LINE
8
BLACK
6
CONTINUOUS
10
5.65139
20
-3.44909
11
5.65274
21
-3.45179
0
LINE
8
BLACK
6
CONTINUOUS
10
5.65274
20
-3.45179
11
5.65394
21
-3.45298
0
LINE
8
BLACK
6
CONTINUOUS
10
5.65394
20
-3.45298
11
5.65697
21
-3.4545
0
LINE
8
BLACK
6
CONTINUOUS
10
5.65697
20
-3.4545
11
5.66415
21
-3.45629
0
LINE
8
BLACK
6
CONTINUOUS
10
5.66415
20
-3.45629
11
5.66462
21
-3.4565
0
LINE
8
BLACK
6
CONTINUOUS
10
5.66462
20
-3.4565
11
5.66476
21
-3.45652
0
LINE
8
BLACK
6
CONTINUOUS
10
5.66476
20
-3.45652
11
5.6685
21
-3.45839
0
LINE
8
BLACK
6
CONTINUOUS
10
5.6685
20
-3.45839
11
5.66921
21
-3.45892
0
LINE
8
BLACK
6
CONTINUOUS
10
5.66921
20
-3.45892
11
5.66927
21
-3.45895
0
LINE
8
BLACK
6
CONTINUOUS
10
5.66927
20
-3.45895
11
5.67115
21
-3.46082
0
LINE
8
BLACK
6
CONTINUOUS
10
5.67115
20
-3.46082
11
5.67165
21
-3.46154
0
LINE
8
BLACK
6
CONTINUOUS
10
5.67165
20
-3.46154
11
5.6717
21
-3.46159
0
LINE
8
BLACK
6
CONTINUOUS
10
5.6717
20
-3.46159
11
5.67357
21
-3.46534
0
LINE
8
BLACK
6
CONTINUOUS
10
5.67357
20
-3.46534
11
5.67387
21
-3.46632
0
LINE
8
BLACK
6
CONTINUOUS
10
5.67387
20
-3.46632
11
5.67383
21
-3.46649
0
LINE
8
BLACK
6
CONTINUOUS
10
5.67383
20
-3.46649
11
5.67389
21
-3.46666
0
LINE
8
BLACK
6
CONTINUOUS
10
5.67389
20
-3.46666
11
5.67389
21
-3.47041
0
LINE
8
BLACK
6
CONTINUOUS
10
5.67389
20
-3.47041
11
5.67371
21
-3.47142
0
LINE
8
BLACK
6
CONTINUOUS
10
5.67371
20
-3.47142
11
5.67359
21
-3.47155
0
LINE
8
BLACK
6
CONTINUOUS
10
5.67359
20
-3.47155
11
5.67357
21
-3.47173
0
LINE
8
BLACK
6
CONTINUOUS
10
5.67357
20
-3.47173
11
5.6717
21
-3.47548
0
LINE
8
BLACK
6
CONTINUOUS
10
5.6717
20
-3.47548
11
5.67117
21
-3.47619
0
LINE
8
BLACK
6
CONTINUOUS
10
5.67117
20
-3.47619
11
5.67115
21
-3.47624
0
LINE
8
BLACK
6
CONTINUOUS
10
5.67115
20
-3.47624
11
5.66927
21
-3.47812
0
LINE
8
BLACK
6
CONTINUOUS
10
5.66927
20
-3.47812
11
5.66855
21
-3.47863
0
LINE
8
BLACK
6
CONTINUOUS
10
5.66855
20
-3.47863
11
5.6685
21
-3.47867
0
LINE
8
BLACK
6
CONTINUOUS
10
5.6685
20
-3.47867
11
5.66476
21
-3.48055
0
LINE
8
BLACK
6
CONTINUOUS
10
5.66476
20
-3.48055
11
5.66377
21
-3.48084
0
LINE
8
BLACK
6
CONTINUOUS
10
5.66377
20
-3.48084
11
5.6636
21
-3.4808
0
LINE
8
BLACK
6
CONTINUOUS
10
5.6636
20
-3.4808
11
5.66343
21
-3.48086
0
LINE
8
BLACK
6
CONTINUOUS
10
5.66343
20
-3.48086
11
5.65406
21
-3.48086
0
LINE
8
BLACK
6
CONTINUOUS
10
5.65406
20
-3.48086
11
5.65319
21
-3.48071
0
LINE
8
BLACK
6
CONTINUOUS
10
5.65319
20
-3.48071
11
5.65313
21
-3.48071
0
LINE
8
BLACK
6
CONTINUOUS
10
5.65313
20
-3.48071
11
5.6475
21
-3.47883
0
LINE
8
BLACK
6
CONTINUOUS
10
5.6475
20
-3.47883
11
5.6466
21
-3.47834
0
LINE
8
BLACK
6
CONTINUOUS
10
5.6466
20
-3.47834
11
5.64554
21
-3.47662
0
LINE
8
BLACK
6
CONTINUOUS
10
5.64554
20
-3.47662
11
5.64584
21
-3.47463
0
LINE
8
BLACK
6
CONTINUOUS
10
5.64584
20
-3.47463
11
5.64735
21
-3.47329
0
LINE
8
BLACK
6
CONTINUOUS
10
5.64735
20
-3.47329
11
5.64937
21
-3.47323
0
LINE
8
BLACK
6
CONTINUOUS
10
5.64937
20
-3.47323
11
5.65454
21
-3.47495
0
LINE
8
BLACK
6
CONTINUOUS
10
5.65454
20
-3.47495
11
5.66274
21
-3.47495
0
LINE
8
BLACK
6
CONTINUOUS
10
5.66274
20
-3.47495
11
5.66543
21
-3.4736
0
LINE
8
BLACK
6
CONTINUOUS
10
5.66543
20
-3.4736
11
5.66663
21
-3.47241
0
LINE
8
BLACK
6
CONTINUOUS
10
5.66663
20
-3.47241
11
5.66798
21
-3.46971
0
LINE
8
BLACK
6
CONTINUOUS
10
5.66798
20
-3.46971
11
5.66798
21
-3.46735
0
LINE
8
BLACK
6
CONTINUOUS
10
5.66798
20
-3.46735
11
5.66663
21
-3.46466
0
LINE
8
BLACK
6
CONTINUOUS
10
5.66663
20
-3.46466
11
5.66543
21
-3.46346
0
LINE
8
BLACK
6
CONTINUOUS
10
5.66543
20
-3.46346
11
5.6624
21
-3.46194
0
LINE
8
BLACK
6
CONTINUOUS
10
5.6624
20
-3.46194
11
5.65522
21
-3.46015
0
LINE
8
BLACK
6
CONTINUOUS
10
5.65522
20
-3.46015
11
5.65475
21
-3.45994
0
LINE
8
BLACK
6
CONTINUOUS
10
5.65475
20
-3.45994
11
5.65461
21
-3.45992
0
LINE
8
BLACK
6
CONTINUOUS
10
5.65461
20
-3.45992
11
5.65087
21
-3.45805
0
LINE
8
BLACK
6
CONTINUOUS
10
5.65087
20
-3.45805
11
5.65016
21
-3.45752
0
LINE
8
BLACK
6
CONTINUOUS
10
5.65016
20
-3.45752
11
5.6501
21
-3.4575
0
LINE
8
BLACK
6
CONTINUOUS
10
5.6501
20
-3.4575
11
5.64822
21
-3.45562
0
LINE
8
BLACK
6
CONTINUOUS
10
5.64822
20
-3.45562
11
5.64772
21
-3.4549
0
LINE
8
BLACK
6
CONTINUOUS
10
5.64772
20
-3.4549
11
5.64767
21
-3.45485
0
LINE
8
BLACK
6
CONTINUOUS
10
5.64767
20
-3.45485
11
5.6458
21
-3.45111
0
LINE
8
BLACK
6
CONTINUOUS
10
5.6458
20
-3.45111
11
5.6455
21
-3.45012
0
LINE
8
BLACK
6
CONTINUOUS
10
5.6455
20
-3.45012
11
5.64554
21
-3.44995
0
LINE
8
BLACK
6
CONTINUOUS
10
5.64554
20
-3.44995
11
5.64548
21
-3.44978
0
LINE
8
BLACK
6
CONTINUOUS
10
5.64548
20
-3.44978
11
5.64548
21
-3.44604
0
LINE
8
BLACK
6
CONTINUOUS
10
5.64548
20
-3.44604
11
5.64566
21
-3.44503
0
LINE
8
BLACK
6
CONTINUOUS
10
5.64566
20
-3.44503
11
5.64578
21
-3.44489
0
LINE
8
BLACK
6
CONTINUOUS
10
5.64578
20
-3.44489
11
5.6458
21
-3.44471
0
LINE
8
BLACK
6
CONTINUOUS
10
5.6458
20
-3.44471
11
5.64767
21
-3.44097
0
LINE
8
BLACK
6
CONTINUOUS
10
5.64767
20
-3.44097
11
5.6482
21
-3.44026
0
LINE
8
BLACK
6
CONTINUOUS
10
5.6482
20
-3.44026
11
5.64822
21
-3.4402
0
LINE
8
BLACK
6
CONTINUOUS
10
5.64822
20
-3.4402
11
5.6501
21
-3.43832
0
LINE
8
BLACK
6
CONTINUOUS
10
5.6501
20
-3.43832
11
5.65082
21
-3.43782
0
LINE
8
BLACK
6
CONTINUOUS
10
5.65082
20
-3.43782
11
5.65087
21
-3.43777
0
LINE
8
BLACK
6
CONTINUOUS
10
5.65087
20
-3.43777
11
5.65461
21
-3.4359
0
LINE
8
BLACK
6
CONTINUOUS
10
5.65461
20
-3.4359
11
5.6556
21
-3.4356
0
LINE
8
BLACK
6
CONTINUOUS
10
5.6556
20
-3.4356
11
5.65577
21
-3.43564
0
LINE
8
BLACK
6
CONTINUOUS
10
5.65577
20
-3.43564
11
5.65594
21
-3.43558
0
LINE
8
BLACK
6
CONTINUOUS
10
5.65594
20
-3.43558
11
5.66531
21
-3.43558
0
LINE
8
BLACK
6
CONTINUOUS
10
5.66531
20
-3.43558
11
5.66618
21
-3.43574
0
LINE
8
BLACK
6
CONTINUOUS
10
5.92695
20
-3.42576
11
5.92708
21
-3.42587
0
LINE
8
BLACK
6
CONTINUOUS
10
5.92708
20
-3.42587
11
5.92726
21
-3.4259
0
LINE
8
BLACK
6
CONTINUOUS
10
5.92726
20
-3.4259
11
5.93101
21
-3.42777
0
LINE
8
BLACK
6
CONTINUOUS
10
5.93101
20
-3.42777
11
5.93183
21
-3.42838
0
LINE
8
BLACK
6
CONTINUOUS
10
5.93183
20
-3.42838
11
5.93264
21
-3.43023
0
LINE
8
BLACK
6
CONTINUOUS
10
5.93264
20
-3.43023
11
5.93206
21
-3.43217
0
LINE
8
BLACK
6
CONTINUOUS
10
5.93206
20
-3.43217
11
5.93037
21
-3.43328
0
LINE
8
BLACK
6
CONTINUOUS
10
5.93037
20
-3.43328
11
5.92837
21
-3.43305
0
LINE
8
BLACK
6
CONTINUOUS
10
5.92837
20
-3.43305
11
5.92524
21
-3.43149
0
LINE
8
BLACK
6
CONTINUOUS
10
5.92524
20
-3.43149
11
5.92079
21
-3.43149
0
LINE
8
BLACK
6
CONTINUOUS
10
5.92079
20
-3.43149
11
5.91629
21
-3.43299
0
LINE
8
BLACK
6
CONTINUOUS
10
5.91629
20
-3.43299
11
5.91337
21
-3.43591
0
LINE
8
BLACK
6
CONTINUOUS
10
5.91337
20
-3.43591
11
5.91185
21
-3.43894
0
LINE
8
BLACK
6
CONTINUOUS
10
5.91185
20
-3.43894
11
5.91014
21
-3.44577
0
LINE
8
BLACK
6
CONTINUOUS
10
5.91014
20
-3.44577
11
5.91014
21
-3.45067
0
LINE
8
BLACK
6
CONTINUOUS
10
5.91014
20
-3.45067
11
5.91185
21
-3.4575
0
LINE
8
BLACK
6
CONTINUOUS
10
5.91185
20
-3.4575
11
5.91337
21
-3.46053
0
LINE
8
BLACK
6
CONTINUOUS
10
5.91337
20
-3.46053
11
5.91629
21
-3.46345
0
LINE
8
BLACK
6
CONTINUOUS
10
5.91629
20
-3.46345
11
5.92079
21
-3.46495
0
LINE
8
BLACK
6
CONTINUOUS
10
5.92079
20
-3.46495
11
5.92359
21
-3.46495
0
LINE
8
BLACK
6
CONTINUOUS
10
5.92359
20
-3.46495
11
5.92809
21
-3.46345
0
LINE
8
BLACK
6
CONTINUOUS
10
5.92809
20
-3.46345
11
5.92861
21
-3.46293
0
LINE
8
BLACK
6
CONTINUOUS
10
5.92861
20
-3.46293
11
5.92861
21
-3.45399
0
LINE
8
BLACK
6
CONTINUOUS
10
5.92861
20
-3.45399
11
5.92406
21
-3.45399
0
LINE
8
BLACK
6
CONTINUOUS
10
5.92406
20
-3.45399
11
5.92305
21
-3.45381
0
LINE
8
BLACK
6
CONTINUOUS
10
5.92305
20
-3.45381
11
5.92151
21
-3.45251
0
LINE
8
BLACK
6
CONTINUOUS
10
5.92151
20
-3.45251
11
5.92116
21
-3.45052
0
LINE
8
BLACK
6
CONTINUOUS
10
5.92116
20
-3.45052
11
5.92217
21
-3.44877
0
LINE
8
BLACK
6
CONTINUOUS
10
5.92217
20
-3.44877
11
5.92406
21
-3.44808
0
LINE
8
BLACK
6
CONTINUOUS
10
5.92406
20
-3.44808
11
5.93156
21
-3.44808
0
LINE
8
BLACK
6
CONTINUOUS
10
5.93156
20
-3.44808
11
5.93195
21
-3.44815
0
LINE
8
BLACK
6
CONTINUOUS
10
5.93195
20
-3.44815
11
5.93208
21
-3.44813
0
LINE
8
BLACK
6
CONTINUOUS
10
5.93208
20
-3.44813
11
5.93219
21
-3.44819
0
LINE
8
BLACK
6
CONTINUOUS
10
5.93219
20
-3.44819
11
5.93257
21
-3.44826
0
LINE
8
BLACK
6
CONTINUOUS
10
5.93257
20
-3.44826
11
5.93316
21
-3.44875
0
LINE
8
BLACK
6
CONTINUOUS
10
5.93316
20
-3.44875
11
5.93383
21
-3.44914
0
LINE
8
BLACK
6
CONTINUOUS
10
5.93383
20
-3.44914
11
5.93392
21
-3.44939
0
LINE
8
BLACK
6
CONTINUOUS
10
5.93392
20
-3.44939
11
5.93412
21
-3.44956
0
LINE
8
BLACK
6
CONTINUOUS
10
5.93412
20
-3.44956
11
5.93425
21
-3.45031
0
LINE
8
BLACK
6
CONTINUOUS
10
5.93425
20
-3.45031
11
5.93452
21
-3.45103
0
LINE
8
BLACK
6
CONTINUOUS
10
5.93452
20
-3.45103
11
5.93452
21
-3.46416
0
LINE
8
BLACK
6
CONTINUOUS
10
5.93452
20
-3.46416
11
5.93448
21
-3.46434
0
LINE
8
BLACK
6
CONTINUOUS
10
5.93448
20
-3.46434
11
5.93451
21
-3.46441
0
LINE
8
BLACK
6
CONTINUOUS
10
5.93451
20
-3.46441
11
5.93445
21
-3.46453
0
LINE
8
BLACK
6
CONTINUOUS
10
5.93445
20
-3.46453
11
5.93434
21
-3.46517
0
LINE
8
BLACK
6
CONTINUOUS
10
5.93434
20
-3.46517
11
5.93392
21
-3.46566
0
LINE
8
BLACK
6
CONTINUOUS
10
5.93392
20
-3.46566
11
5.93365
21
-3.46624
0
LINE
8
BLACK
6
CONTINUOUS
10
5.93365
20
-3.46624
11
5.93178
21
-3.46812
0
LINE
8
BLACK
6
CONTINUOUS
10
5.93178
20
-3.46812
11
5.93094
21
-3.46871
0
LINE
8
BLACK
6
CONTINUOUS
10
5.93094
20
-3.46871
11
5.93076
21
-3.46872
0
LINE
8
BLACK
6
CONTINUOUS
10
5.93076
20
-3.46872
11
5.93062
21
-3.46883
0
LINE
8
BLACK
6
CONTINUOUS
10
5.93062
20
-3.46883
11
5.925
21
-3.47071
0
LINE
8
BLACK
6
CONTINUOUS
10
5.925
20
-3.47071
11
5.92413
21
-3.47084
0
LINE
8
BLACK
6
CONTINUOUS
10
5.92413
20
-3.47084
11
5.92406
21
-3.47086
0
LINE
8
BLACK
6
CONTINUOUS
10
5.92406
20
-3.47086
11
5.92031
21
-3.47086
0
LINE
8
BLACK
6
CONTINUOUS
10
5.92031
20
-3.47086
11
5.91945
21
-3.47071
0
LINE
8
BLACK
6
CONTINUOUS
10
5.91945
20
-3.47071
11
5.91938
21
-3.47071
0
LINE
8
BLACK
6
CONTINUOUS
10
5.91938
20
-3.47071
11
5.91376
21
-3.46883
0
LINE
8
BLACK
6
CONTINUOUS
10
5.91376
20
-3.46883
11
5.91286
21
-3.46834
0
LINE
8
BLACK
6
CONTINUOUS
10
5.91286
20
-3.46834
11
5.91276
21
-3.46819
0
LINE
8
BLACK
6
CONTINUOUS
10
5.91276
20
-3.46819
11
5.9126
21
-3.46812
0
LINE
8
BLACK
6
CONTINUOUS
10
5.9126
20
-3.46812
11
5.90885
21
-3.46437
0
LINE
8
BLACK
6
CONTINUOUS
10
5.90885
20
-3.46437
11
5.90835
21
-3.46365
0
LINE
8
BLACK
6
CONTINUOUS
10
5.90835
20
-3.46365
11
5.9083
21
-3.4636
0
LINE
8
BLACK
6
CONTINUOUS
10
5.9083
20
-3.4636
11
5.90643
21
-3.45985
0
LINE
8
BLACK
6
CONTINUOUS
10
5.90643
20
-3.45985
11
5.90628
21
-3.45936
0
LINE
8
BLACK
6
CONTINUOUS
10
5.90628
20
-3.45936
11
5.9062
21
-3.45925
0
LINE
8
BLACK
6
CONTINUOUS
10
5.9062
20
-3.45925
11
5.90433
21
-3.45175
0
LINE
8
BLACK
6
CONTINUOUS
10
5.90433
20
-3.45175
11
5.90429
21
-3.45116
0
LINE
8
BLACK
6
CONTINUOUS
10
5.90429
20
-3.45116
11
5.90424
21
-3.45103
0
LINE
8
BLACK
6
CONTINUOUS
10
5.90424
20
-3.45103
11
5.90424
21
-3.44541
0
LINE
8
BLACK
6
CONTINUOUS
10
5.90424
20
-3.44541
11
5.90434
21
-3.44483
0
LINE
8
BLACK
6
CONTINUOUS
10
5.90434
20
-3.44483
11
5.90433
21
-3.44469
0
LINE
8
BLACK
6
CONTINUOUS
10
5.90433
20
-3.44469
11
5.9062
21
-3.43719
0
LINE
8
BLACK
6
CONTINUOUS
10
5.9062
20
-3.43719
11
5.90641
21
-3.43673
0
LINE
8
BLACK
6
CONTINUOUS
10
5.90641
20
-3.43673
11
5.90643
21
-3.43659
0
LINE
8
BLACK
6
CONTINUOUS
10
5.90643
20
-3.43659
11
5.9083
21
-3.43284
0
LINE
8
BLACK
6
CONTINUOUS
10
5.9083
20
-3.43284
11
5.90883
21
-3.43213
0
LINE
8
BLACK
6
CONTINUOUS
10
5.90883
20
-3.43213
11
5.90885
21
-3.43207
0
LINE
8
BLACK
6
CONTINUOUS
10
5.90885
20
-3.43207
11
5.9126
21
-3.42832
0
LINE
8
BLACK
6
CONTINUOUS
10
5.9126
20
-3.42832
11
5.91344
21
-3.42773
0
LINE
8
BLACK
6
CONTINUOUS
10
5.91344
20
-3.42773
11
5.91362
21
-3.42772
0
LINE
8
BLACK
6
CONTINUOUS
10
5.91362
20
-3.42772
11
5.91376
21
-3.42761
0
LINE
8
BLACK
6
CONTINUOUS
10
5.91376
20
-3.42761
11
5.91938
21
-3.42573
0
LINE
8
BLACK
6
CONTINUOUS
10
5.91938
20
-3.42573
11
5.92025
21
-3.42561
0
LINE
8
BLACK
6
CONTINUOUS
10
5.92025
20
-3.42561
11
5.92031
21
-3.42558
0
LINE
8
BLACK
6
CONTINUOUS
10
5.92031
20
-3.42558
11
5.92594
21
-3.42558
0
LINE
8
BLACK
6
CONTINUOUS
10
5.92594
20
-3.42558
11
5.92695
21
-3.42576
0
LINE
8
BLACK
6
CONTINUOUS
10
5.9732
20
-3.42664
11
5.97389
21
-3.42854
0
LINE
8
BLACK
6
CONTINUOUS
10
5.97389
20
-3.42854
11
5.97389
21
-3.46791
0
LINE
8
BLACK
6
CONTINUOUS
10
5.97389
20
-3.46791
11
5.97371
21
-3.46892
0
LINE
8
BLACK
6
CONTINUOUS
10
5.97371
20
-3.46892
11
5.97353
21
-3.46913
0
LINE
8
BLACK
6
CONTINUOUS
10
5.97353
20
-3.46913
11
5.97348
21
-3.46939
0
LINE
8
BLACK
6
CONTINUOUS
10
5.97348
20
-3.46939
11
5.9729
21
-3.46988
0
LINE
8
BLACK
6
CONTINUOUS
10
5.9729
20
-3.46988
11
5.97241
21
-3.47046
0
LINE
8
BLACK
6
CONTINUOUS
10
5.97241
20
-3.47046
11
5.97214
21
-3.47051
0
LINE
8
BLACK
6
CONTINUOUS
10
5.97214
20
-3.47051
11
5.97193
21
-3.47069
0
LINE
8
BLACK
6
CONTINUOUS
10
5.97193
20
-3.47069
11
5.97117
21
-3.47068
0
LINE
8
BLACK
6
CONTINUOUS
10
5.97117
20
-3.47068
11
5.97042
21
-3.47081
0
LINE
8
BLACK
6
CONTINUOUS
10
5.97042
20
-3.47081
11
5.97018
21
-3.47068
0
LINE
8
BLACK
6
CONTINUOUS
10
5.97018
20
-3.47068
11
5.96991
21
-3.47068
0
LINE
8
BLACK
6
CONTINUOUS
10
5.96991
20
-3.47068
11
5.96933
21
-3.47018
0
LINE
8
BLACK
6
CONTINUOUS
10
5.96933
20
-3.47018
11
5.96867
21
-3.4698
0
LINE
8
BLACK
6
CONTINUOUS
10
5.96867
20
-3.4698
11
5.96858
21
-3.46955
0
LINE
8
BLACK
6
CONTINUOUS
10
5.96858
20
-3.46955
11
5.96837
21
-3.46937
0
LINE
8
BLACK
6
CONTINUOUS
10
5.96837
20
-3.46937
11
5.95139
21
-3.43965
0
LINE
8
BLACK
6
CONTINUOUS
10
5.95139
20
-3.43965
11
5.95139
21
-3.46791
0
LINE
8
BLACK
6
CONTINUOUS
10
5.95139
20
-3.46791
11
5.95121
21
-3.46892
0
LINE
8
BLACK
6
CONTINUOUS
10
5.95121
20
-3.46892
11
5.94991
21
-3.47046
0
LINE
8
BLACK
6
CONTINUOUS
10
5.94991
20
-3.47046
11
5.94792
21
-3.47081
0
LINE
8
BLACK
6
CONTINUOUS
10
5.94792
20
-3.47081
11
5.94617
21
-3.4698
0
LINE
8
BLACK
6
CONTINUOUS
10
5.94617
20
-3.4698
11
5.94548
21
-3.46791
0
LINE
8
BLACK
6
CONTINUOUS
10
5.94548
20
-3.46791
11
5.94548
21
-3.42854
0
LINE
8
BLACK
6
CONTINUOUS
10
5.94548
20
-3.42854
11
5.94566
21
-3.42753
0
LINE
8
BLACK
6
CONTINUOUS
10
5.94566
20
-3.42753
11
5.94584
21
-3.42732
0
LINE
8
BLACK
6
CONTINUOUS
10
5.94584
20
-3.42732
11
5.94589
21
-3.42705
0
LINE
8
BLACK
6
CONTINUOUS
10
5.94589
20
-3.42705
11
5.94647
21
-3.42656
0
LINE
8
BLACK
6
CONTINUOUS
10
5.94647
20
-3.42656
11
5.94696
21
-3.42598
0
LINE
8
BLACK
6
CONTINUOUS
10
5.94696
20
-3.42598
11
5.94723
21
-3.42593
0
LINE
8
BLACK
6
CONTINUOUS
10
5.94723
20
-3.42593
11
5.94744
21
-3.42576
0
LINE
8
BLACK
6
CONTINUOUS
10
5.94744
20
-3.42576
11
5.9482
21
-3.42576
0
LINE
8
BLACK
6
CONTINUOUS
10
5.9482
20
-3.42576
11
5.94895
21
-3.42563
0
LINE
8
BLACK
6
CONTINUOUS
10
5.94895
20
-3.42563
11
5.94919
21
-3.42576
0
LINE
8
BLACK
6
CONTINUOUS
10
5.94919
20
-3.42576
11
5.94946
21
-3.42577
0
LINE
8
BLACK
6
CONTINUOUS
10
5.94946
20
-3.42577
11
5.95004
21
-3.42626
0
LINE
8
BLACK
6
CONTINUOUS
10
5.95004
20
-3.42626
11
5.9507
21
-3.42664
0
LINE
8
BLACK
6
CONTINUOUS
10
5.9507
20
-3.42664
11
5.95079
21
-3.42689
0
LINE
8
BLACK
6
CONTINUOUS
10
5.95079
20
-3.42689
11
5.951
21
-3.42707
0
LINE
8
BLACK
6
CONTINUOUS
10
5.951
20
-3.42707
11
5.96798
21
-3.45679
0
LINE
8
BLACK
6
CONTINUOUS
10
5.96798
20
-3.45679
11
5.96798
21
-3.42854
0
LINE
8
BLACK
6
CONTINUOUS
10
5.96798
20
-3.42854
11
5.96816
21
-3.42753
0
LINE
8
BLACK
6
CONTINUOUS
10
5.96816
20
-3.42753
11
5.96946
21
-3.42598
0
LINE
8
BLACK
6
CONTINUOUS
10
5.96946
20
-3.42598
11
5.97145
21
-3.42563
0
LINE
8
BLACK
6
CONTINUOUS
10
5.97145
20
-3.42563
11
5.9732
21
-3.42664
0
LINE
8
BLACK
6
CONTINUOUS
10
5.33946
20
-3.41664
11
5.34015
21
-3.41854
0
LINE
8
BLACK
6
CONTINUOUS
10
5.34015
20
-3.41854
11
5.34015
21
-3.45495
0
LINE
8
BLACK
6
CONTINUOUS
10
5.34015
20
-3.45495
11
5.35594
21
-3.45495
0
LINE
8
BLACK
6
CONTINUOUS
10
5.35594
20
-3.45495
11
5.35695
21
-3.45513
0
LINE
8
BLACK
6
CONTINUOUS
10
5.35695
20
-3.45513
11
5.3585
21
-3.45643
0
LINE
8
BLACK
6
CONTINUOUS
10
5.3585
20
-3.45643
11
5.35885
21
-3.45842
0
LINE
8
BLACK
6
CONTINUOUS
10
5.35885
20
-3.45842
11
5.35784
21
-3.46017
0
LINE
8
BLACK
6
CONTINUOUS
10
5.35784
20
-3.46017
11
5.35594
21
-3.46086
0
LINE
8
BLACK
6
CONTINUOUS
10
5.35594
20
-3.46086
11
5.3372
21
-3.46086
0
LINE
8
BLACK
6
CONTINUOUS
10
5.3372
20
-3.46086
11
5.33681
21
-3.46079
0
LINE
8
BLACK
6
CONTINUOUS
10
5.33681
20
-3.46079
11
5.33668
21
-3.46081
0
LINE
8
BLACK
6
CONTINUOUS
10
5.33668
20
-3.46081
11
5.33657
21
-3.46075
0
LINE
8
BLACK
6
CONTINUOUS
10
5.33657
20
-3.46075
11
5.33619
21
-3.46068
0
LINE
8
BLACK
6
CONTINUOUS
10
5.33619
20
-3.46068
11
5.3356
21
-3.46019
0
LINE
8
BLACK
6
CONTINUOUS
10
5.3356
20
-3.46019
11
5.33493
21
-3.4598
0
LINE
8
BLACK
6
CONTINUOUS
10
5.33493
20
-3.4598
11
5.33484
21
-3.45955
0
LINE
8
BLACK
6
CONTINUOUS
10
5.33484
20
-3.45955
11
5.33464
21
-3.45938
0
LINE
8
BLACK
6
CONTINUOUS
10
5.33464
20
-3.45938
11
5.3345
21
-3.45863
0
LINE
8
BLACK
6
CONTINUOUS
10
5.3345
20
-3.45863
11
5.33424
21
-3.45791
0
LINE
8
BLACK
6
CONTINUOUS
10
5.33424
20
-3.45791
11
5.33424
21
-3.41854
0
LINE
8
BLACK
6
CONTINUOUS
10
5.33424
20
-3.41854
11
5.33442
21
-3.41753
0
LINE
8
BLACK
6
CONTINUOUS
10
5.33442
20
-3.41753
11
5.33572
21
-3.41598
0
LINE
8
BLACK
6
CONTINUOUS
10
5.33572
20
-3.41598
11
5.33771
21
-3.41563
0
LINE
8
BLACK
6
CONTINUOUS
10
5.33771
20
-3.41563
11
5.33946
21
-3.41664
0
LINE
8
BLACK
6
CONTINUOUS
10
5.41695
20
-3.41576
11
5.41708
21
-3.41587
0
LINE
8
BLACK
6
CONTINUOUS
10
5.41708
20
-3.41587
11
5.41726
21
-3.4159
0
LINE
8
BLACK
6
CONTINUOUS
10
5.41726
20
-3.4159
11
5.42101
21
-3.41777
0
LINE
8
BLACK
6
CONTINUOUS
10
5.42101
20
-3.41777
11
5.42171
21
-3.4183
0
LINE
8
BLACK
6
CONTINUOUS
10
5.42171
20
-3.4183
11
5.42177
21
-3.41832
0
LINE
8
BLACK
6
CONTINUOUS
10
5.42177
20
-3.41832
11
5.42365
21
-3.4202
0
LINE
8
BLACK
6
CONTINUOUS
10
5.42365
20
-3.4202
11
5.42415
21
-3.42092
0
LINE
8
BLACK
6
CONTINUOUS
10
5.42415
20
-3.42092
11
5.4242
21
-3.42097
0
LINE
8
BLACK
6
CONTINUOUS
10
5.4242
20
-3.42097
11
5.42608
21
-3.42471
0
LINE
8
BLACK
6
CONTINUOUS
10
5.42608
20
-3.42471
11
5.42637
21
-3.4257
0
LINE
8
BLACK
6
CONTINUOUS
10
5.42637
20
-3.4257
11
5.42633
21
-3.42587
0
LINE
8
BLACK
6
CONTINUOUS
10
5.42633
20
-3.42587
11
5.42639
21
-3.42604
0
LINE
8
BLACK
6
CONTINUOUS
10
5.42639
20
-3.42604
11
5.42639
21
-3.42978
0
LINE
8
BLACK
6
CONTINUOUS
10
5.42639
20
-3.42978
11
5.42621
21
-3.43079
0
LINE
8
BLACK
6
CONTINUOUS
10
5.42621
20
-3.43079
11
5.4261
21
-3.43093
0
LINE
8
BLACK
6
CONTINUOUS
10
5.4261
20
-3.43093
11
5.42608
21
-3.43111
0
LINE
8
BLACK
6
CONTINUOUS
10
5.42608
20
-3.43111
11
5.4242
21
-3.43485
0
LINE
8
BLACK
6
CONTINUOUS
10
5.4242
20
-3.43485
11
5.42367
21
-3.43556
0
LINE
8
BLACK
6
CONTINUOUS
10
5.42367
20
-3.43556
11
5.42365
21
-3.43562
0
LINE
8
BLACK
6
CONTINUOUS
10
5.42365
20
-3.43562
11
5.42277
21
-3.4365
0
LINE
8
BLACK
6
CONTINUOUS
10
5.42277
20
-3.4365
11
5.4234
21
-3.43685
0
LINE
8
BLACK
6
CONTINUOUS
10
5.4234
20
-3.43685
11
5.42349
21
-3.437
0
LINE
8
BLACK
6
CONTINUOUS
10
5.42349
20
-3.437
11
5.42365
21
-3.43707
0
LINE
8
BLACK
6
CONTINUOUS
10
5.42365
20
-3.43707
11
5.42552
21
-3.43895
0
LINE
8
BLACK
6
CONTINUOUS
10
5.42552
20
-3.43895
11
5.42603
21
-3.43967
0
LINE
8
BLACK
6
CONTINUOUS
10
5.42603
20
-3.43967
11
5.42608
21
-3.43971
0
LINE
8
BLACK
6
CONTINUOUS
10
5.42608
20
-3.43971
11
5.42795
21
-3.44346
0
LINE
8
BLACK
6
CONTINUOUS
10
5.42795
20
-3.44346
11
5.42824
21
-3.44445
0
LINE
8
BLACK
6
CONTINUOUS
10
5.42824
20
-3.44445
11
5.4282
21
-3.44462
0
LINE
8
BLACK
6
CONTINUOUS
10
5.4282
20
-3.44462
11
5.42826
21
-3.44478
0
LINE
8
BLACK
6
CONTINUOUS
10
5.42826
20
-3.44478
11
5.42826
21
-3.45041
0
LINE
8
BLACK
6
CONTINUOUS
10
5.42826
20
-3.45041
11
5.42808
21
-3.45142
0
LINE
8
BLACK
6
CONTINUOUS
10
5.42808
20
-3.45142
11
5.42797
21
-3.45155
0
LINE
8
BLACK
6
CONTINUOUS
10
5.42797
20
-3.45155
11
5.42795
21
-3.45173
0
LINE
8
BLACK
6
CONTINUOUS
10
5.42795
20
-3.45173
11
5.42608
21
-3.45548
0
LINE
8
BLACK
6
CONTINUOUS
10
5.42608
20
-3.45548
11
5.42555
21
-3.45619
0
LINE
8
BLACK
6
CONTINUOUS
10
5.42555
20
-3.45619
11
5.42552
21
-3.45624
0
LINE
8
BLACK
6
CONTINUOUS
10
5.42552
20
-3.45624
11
5.42365
21
-3.45812
0
LINE
8
BLACK
6
CONTINUOUS
10
5.42365
20
-3.45812
11
5.42292
21
-3.45863
0
LINE
8
BLACK
6
CONTINUOUS
10
5.42292
20
-3.45863
11
5.42288
21
-3.45867
0
LINE
8
BLACK
6
CONTINUOUS
10
5.42288
20
-3.45867
11
5.41913
21
-3.46055
0
LINE
8
BLACK
6
CONTINUOUS
10
5.41913
20
-3.46055
11
5.41815
21
-3.46084
0
LINE
8
BLACK
6
CONTINUOUS
10
5.41815
20
-3.46084
11
5.41798
21
-3.4608
0
LINE
8
BLACK
6
CONTINUOUS
10
5.41798
20
-3.4608
11
5.41781
21
-3.46086
0
LINE
8
BLACK
6
CONTINUOUS
10
5.41781
20
-3.46086
11
5.40281
21
-3.46086
0
LINE
8
BLACK
6
CONTINUOUS
10
5.40281
20
-3.46086
11
5.40243
21
-3.46079
0
LINE
8
BLACK
6
CONTINUOUS
10
5.40243
20
-3.46079
11
5.4023
21
-3.46081
0
LINE
8
BLACK
6
CONTINUOUS
10
5.4023
20
-3.46081
11
5.40219
21
-3.46075
0
LINE
8
BLACK
6
CONTINUOUS
10
5.40219
20
-3.46075
11
5.4018
21
-3.46068
0
LINE
8
BLACK
6
CONTINUOUS
10
5.4018
20
-3.46068
11
5.40121
21
-3.46019
0
LINE
8
BLACK
6
CONTINUOUS
10
5.40121
20
-3.46019
11
5.40055
21
-3.4598
0
LINE
8
BLACK
6
CONTINUOUS
10
5.40055
20
-3.4598
11
5.40046
21
-3.45955
0
LINE
8
BLACK
6
CONTINUOUS
10
5.40046
20
-3.45955
11
5.40025
21
-3.45938
0
LINE
8
BLACK
6
CONTINUOUS
10
5.40025
20
-3.45938
11
5.40012
21
-3.45863
0
LINE
8
BLACK
6
CONTINUOUS
10
5.40012
20
-3.45863
11
5.39986
21
-3.45791
0
LINE
8
BLACK
6
CONTINUOUS
10
5.39986
20
-3.45791
11
5.39986
21
-3.41854
0
LINE
8
BLACK
6
CONTINUOUS
10
5.39986
20
-3.41854
11
5.39993
21
-3.41815
0
LINE
8
BLACK
6
CONTINUOUS
10
5.39993
20
-3.41815
11
5.3999
21
-3.41802
0
LINE
8
BLACK
6
CONTINUOUS
10
5.3999
20
-3.41802
11
5.39997
21
-3.41791
0
LINE
8
BLACK
6
CONTINUOUS
10
5.39997
20
-3.41791
11
5.40004
21
-3.41753
0
LINE
8
BLACK
6
CONTINUOUS
10
5.40004
20
-3.41753
11
5.40053
21
-3.41694
0
LINE
8
BLACK
6
CONTINUOUS
10
5.40053
20
-3.41694
11
5.40091
21
-3.41627
0
LINE
8
BLACK
6
CONTINUOUS
10
5.40091
20
-3.41627
11
5.40116
21
-3.41618
0
LINE
8
BLACK
6
CONTINUOUS
10
5.40116
20
-3.41618
11
5.40134
21
-3.41598
0
LINE
8
BLACK
6
CONTINUOUS
10
5.40134
20
-3.41598
11
5.40209
21
-3.41585
0
LINE
8
BLACK
6
CONTINUOUS
10
5.40209
20
-3.41585
11
5.40281
21
-3.41558
0
LINE
8
BLACK
6
CONTINUOUS
10
5.40281
20
-3.41558
11
5.41594
21
-3.41558
0
LINE
8
BLACK
6
CONTINUOUS
10
5.41594
20
-3.41558
11
5.41695
21
-3.41576
0
LINE
8
BLACK
6
CONTINUOUS
10
5.40576
20
-3.45495
11
5.41711
21
-3.45495
0
LINE
8
BLACK
6
CONTINUOUS
10
5.41711
20
-3.45495
11
5.41981
21
-3.4536
0
LINE
8
BLACK
6
CONTINUOUS
10
5.41981
20
-3.4536
11
5.42101
21
-3.45241
0
LINE
8
BLACK
6
CONTINUOUS
10
5.42101
20
-3.45241
11
5.42236
21
-3.44971
0
LINE
8
BLACK
6
CONTINUOUS
10
5.42236
20
-3.44971
11
5.42236
21
-3.44548
0
LINE
8
BLACK
6
CONTINUOUS
10
5.42236
20
-3.44548
11
5.42101
21
-3.44278
0
LINE
8
BLACK
6
CONTINUOUS
10
5.42101
20
-3.44278
11
5.41996
21
-3.44174
0
LINE
8
BLACK
6
CONTINUOUS
10
5.41996
20
-3.44174
11
5.41546
21
-3.44024
0
LINE
8
BLACK
6
CONTINUOUS
10
5.41546
20
-3.44024
11
5.40576
21
-3.44024
0
LINE
8
BLACK
6
CONTINUOUS
10
5.40576
20
-3.44024
11
5.40576
21
-3.45495
0
LINE
8
BLACK
6
CONTINUOUS
10
5.40576
20
-3.43433
11
5.41524
21
-3.43433
0
LINE
8
BLACK
6
CONTINUOUS
10
5.41524
20
-3.43433
11
5.41794
21
-3.43298
0
LINE
8
BLACK
6
CONTINUOUS
10
5.41794
20
-3.43298
11
5.41913
21
-3.43179
0
LINE
8
BLACK
6
CONTINUOUS
10
5.41913
20
-3.43179
11
5.42048
21
-3.42909
0
LINE
8
BLACK
6
CONTINUOUS
10
5.42048
20
-3.42909
11
5.42048
21
-3.42673
0
LINE
8
BLACK
6
CONTINUOUS
10
5.42048
20
-3.42673
11
5.41913
21
-3.42403
0
LINE
8
BLACK
6
CONTINUOUS
10
5.41913
20
-3.42403
11
5.41794
21
-3.42284
0
LINE
8
BLACK
6
CONTINUOUS
10
5.41794
20
-3.42284
11
5.41524
21
-3.42149
0
LINE
8
BLACK
6
CONTINUOUS
10
5.41524
20
-3.42149
11
5.40576
21
-3.42149
0
LINE
8
BLACK
6
CONTINUOUS
10
5.40576
20
-3.42149
11
5.40576
21
-3.43433
0
LINE
8
BLACK
6
CONTINUOUS
10
5.47506
20
-3.42888
11
5.4752
21
-3.429
0
LINE
8
BLACK
6
CONTINUOUS
10
5.4752
20
-3.429
11
5.47537
21
-3.42902
0
LINE
8
BLACK
6
CONTINUOUS
10
5.47537
20
-3.42902
11
5.47912
21
-3.43089
0
LINE
8
BLACK
6
CONTINUOUS
10
5.47912
20
-3.43089
11
5.47995
21
-3.4315
0
LINE
8
BLACK
6
CONTINUOUS
10
5.47995
20
-3.4315
11
5.48075
21
-3.43336
0
LINE
8
BLACK
6
CONTINUOUS
10
5.48075
20
-3.43336
11
5.48017
21
-3.43529
0
LINE
8
BLACK
6
CONTINUOUS
10
5.48017
20
-3.43529
11
5.47849
21
-3.43641
0
LINE
8
BLACK
6
CONTINUOUS
10
5.47849
20
-3.43641
11
5.47648
21
-3.43618
0
LINE
8
BLACK
6
CONTINUOUS
10
5.47648
20
-3.43618
11
5.47336
21
-3.43461
0
LINE
8
BLACK
6
CONTINUOUS
10
5.47336
20
-3.43461
11
5.46725
21
-3.43461
0
LINE
8
BLACK
6
CONTINUOUS
10
5.46725
20
-3.43461
11
5.46455
21
-3.43596
0
LINE
8
BLACK
6
CONTINUOUS
10
5.46455
20
-3.43596
11
5.46336
21
-3.43716
0
LINE
8
BLACK
6
CONTINUOUS
10
5.46336
20
-3.43716
11
5.46201
21
-3.43986
0
LINE
8
BLACK
6
CONTINUOUS
10
5.46201
20
-3.43986
11
5.46201
21
-3.44971
0
LINE
8
BLACK
6
CONTINUOUS
10
5.46201
20
-3.44971
11
5.46336
21
-3.45241
0
LINE
8
BLACK
6
CONTINUOUS
10
5.46336
20
-3.45241
11
5.46455
21
-3.4536
0
LINE
8
BLACK
6
CONTINUOUS
10
5.46455
20
-3.4536
11
5.46725
21
-3.45495
0
LINE
8
BLACK
6
CONTINUOUS
10
5.46725
20
-3.45495
11
5.47336
21
-3.45495
0
LINE
8
BLACK
6
CONTINUOUS
10
5.47336
20
-3.45495
11
5.47648
21
-3.45339
0
LINE
8
BLACK
6
CONTINUOUS
10
5.47648
20
-3.45339
11
5.47747
21
-3.4531
0
LINE
8
BLACK
6
CONTINUOUS
10
5.47747
20
-3.4531
11
5.47943
21
-3.45357
0
LINE
8
BLACK
6
CONTINUOUS
10
5.47943
20
-3.45357
11
5.48063
21
-3.45519
0
LINE
8
BLACK
6
CONTINUOUS
10
5.48063
20
-3.45519
11
5.48051
21
-3.45721
0
LINE
8
BLACK
6
CONTINUOUS
10
5.48051
20
-3.45721
11
5.47912
21
-3.45867
0
LINE
8
BLACK
6
CONTINUOUS
10
5.47912
20
-3.45867
11
5.47537
21
-3.46055
0
LINE
8
BLACK
6
CONTINUOUS
10
5.47537
20
-3.46055
11
5.47439
21
-3.46084
0
LINE
8
BLACK
6
CONTINUOUS
10
5.47439
20
-3.46084
11
5.47422
21
-3.4608
0
LINE
8
BLACK
6
CONTINUOUS
10
5.47422
20
-3.4608
11
5.47405
21
-3.46086
0
LINE
8
BLACK
6
CONTINUOUS
10
5.47405
20
-3.46086
11
5.46655
21
-3.46086
0
LINE
8
BLACK
6
CONTINUOUS
10
5.46655
20
-3.46086
11
5.46554
21
-3.46068
0
LINE
8
BLACK
6
CONTINUOUS
10
5.46554
20
-3.46068
11
5.46541
21
-3.46057
0
LINE
8
BLACK
6
CONTINUOUS
10
5.46541
20
-3.46057
11
5.46523
21
-3.46055
0
LINE
8
BLACK
6
CONTINUOUS
10
5.46523
20
-3.46055
11
5.46148
21
-3.45867
0
LINE
8
BLACK
6
CONTINUOUS
10
5.46148
20
-3.45867
11
5.46077
21
-3.45815
0
LINE
8
BLACK
6
CONTINUOUS
10
5.46077
20
-3.45815
11
5.46072
21
-3.45812
0
LINE
8
BLACK
6
CONTINUOUS
10
5.46072
20
-3.45812
11
5.45884
21
-3.45624
0
LINE
8
BLACK
6
CONTINUOUS
10
5.45884
20
-3.45624
11
5.45834
21
-3.45552
0
LINE
8
BLACK
6
CONTINUOUS
10
5.45834
20
-3.45552
11
5.45829
21
-3.45548
0
LINE
8
BLACK
6
CONTINUOUS
10
5.45829
20
-3.45548
11
5.45641
21
-3.45173
0
LINE
8
BLACK
6
CONTINUOUS
10
5.45641
20
-3.45173
11
5.45612
21
-3.45074
0
LINE
8
BLACK
6
CONTINUOUS
10
5.45612
20
-3.45074
11
5.45616
21
-3.45057
0
LINE
8
BLACK
6
CONTINUOUS
10
5.45616
20
-3.45057
11
5.4561
21
-3.45041
0
LINE
8
BLACK
6
CONTINUOUS
10
5.4561
20
-3.45041
11
5.4561
21
-3.43916
0
LINE
8
BLACK
6
CONTINUOUS
10
5.4561
20
-3.43916
11
5.45628
21
-3.43815
0
LINE
8
BLACK
6
CONTINUOUS
10
5.45628
20
-3.43815
11
5.45639
21
-3.43801
0
LINE
8
BLACK
6
CONTINUOUS
10
5.45639
20
-3.43801
11
5.45641
21
-3.43784
0
LINE
8
BLACK
6
CONTINUOUS
10
5.45641
20
-3.43784
11
5.45829
21
-3.43409
0
LINE
8
BLACK
6
CONTINUOUS
10
5.45829
20
-3.43409
11
5.45881
21
-3.43338
0
LINE
8
BLACK
6
CONTINUOUS
10
5.45881
20
-3.43338
11
5.45884
21
-3.43332
0
LINE
8
BLACK
6
CONTINUOUS
10
5.45884
20
-3.43332
11
5.46072
21
-3.43145
0
LINE
8
BLACK
6
CONTINUOUS
10
5.46072
20
-3.43145
11
5.46144
21
-3.43094
0
LINE
8
BLACK
6
CONTINUOUS
10
5.46144
20
-3.43094
11
5.46148
21
-3.43089
0
LINE
8
BLACK
6
CONTINUOUS
10
5.46148
20
-3.43089
11
5.46523
21
-3.42902
0
LINE
8
BLACK
6
CONTINUOUS
10
5.46523
20
-3.42902
11
5.46622
21
-3.42873
0
LINE
8
BLACK
6
CONTINUOUS
10
5.46622
20
-3.42873
11
5.46639
21
-3.42877
0
LINE
8
BLACK
6
CONTINUOUS
10
5.46639
20
-3.42877
11
5.46655
21
-3.42871
0
LINE
8
BLACK
6
CONTINUOUS
10
5.46655
20
-3.42871
11
5.47405
21
-3.42871
0
LINE
8
BLACK
6
CONTINUOUS
10
5.47405
20
-3.42871
11
5.47506
21
-3.42888
0
LINE
8
BLACK
6
CONTINUOUS
10
5.51185
20
-3.42876
11
5.51197
21
-3.42874
0
LINE
8
BLACK
6
CONTINUOUS
10
5.51197
20
-3.42874
11
5.51209
21
-3.4288
0
LINE
8
BLACK
6
CONTINUOUS
10
5.51209
20
-3.4288
11
5.51256
21
-3.42888
0
LINE
8
BLACK
6
CONTINUOUS
10
5.51256
20
-3.42888
11
5.51311
21
-3.42935
0
LINE
8
BLACK
6
CONTINUOUS
10
5.51311
20
-3.42935
11
5.51375
21
-3.42969
0
LINE
8
BLACK
6
CONTINUOUS
10
5.51375
20
-3.42969
11
5.51387
21
-3.42998
0
LINE
8
BLACK
6
CONTINUOUS
10
5.51387
20
-3.42998
11
5.51411
21
-3.43018
0
LINE
8
BLACK
6
CONTINUOUS
10
5.51411
20
-3.43018
11
5.51423
21
-3.43089
0
LINE
8
BLACK
6
CONTINUOUS
10
5.51423
20
-3.43089
11
5.5145
21
-3.43156
0
LINE
8
BLACK
6
CONTINUOUS
10
5.5145
20
-3.43156
11
5.5144
21
-3.43186
0
LINE
8
BLACK
6
CONTINUOUS
10
5.5144
20
-3.43186
11
5.51446
21
-3.43217
0
LINE
8
BLACK
6
CONTINUOUS
10
5.51446
20
-3.43217
11
5.5141
21
-3.4328
0
LINE
8
BLACK
6
CONTINUOUS
10
5.5141
20
-3.4328
11
5.51387
21
-3.43348
0
LINE
8
BLACK
6
CONTINUOUS
10
5.51387
20
-3.43348
11
5.497
21
-3.45495
0
LINE
8
BLACK
6
CONTINUOUS
10
5.497
20
-3.45495
11
5.51155
21
-3.45495
0
LINE
8
BLACK
6
CONTINUOUS
10
5.51155
20
-3.45495
11
5.51256
21
-3.45513
0
LINE
8
BLACK
6
CONTINUOUS
10
5.51256
20
-3.45513
11
5.51411
21
-3.45643
0
LINE
8
BLACK
6
CONTINUOUS
10
5.51411
20
-3.45643
11
5.51446
21
-3.45842
0
LINE
8
BLACK
6
CONTINUOUS
10
5.51446
20
-3.45842
11
5.51345
21
-3.46017
0
LINE
8
BLACK
6
CONTINUOUS
10
5.51345
20
-3.46017
11
5.51155
21
-3.46086
0
LINE
8
BLACK
6
CONTINUOUS
10
5.51155
20
-3.46086
11
5.49093
21
-3.46086
0
LINE
8
BLACK
6
CONTINUOUS
10
5.49093
20
-3.46086
11
5.49062
21
-3.46081
0
LINE
8
BLACK
6
CONTINUOUS
10
5.49062
20
-3.46081
11
5.49051
21
-3.46083
0
LINE
8
BLACK
6
CONTINUOUS
10
5.49051
20
-3.46083
11
5.49038
21
-3.46076
0
LINE
8
BLACK
6
CONTINUOUS
10
5.49038
20
-3.46076
11
5.48992
21
-3.46068
0
LINE
8
BLACK
6
CONTINUOUS
10
5.48992
20
-3.46068
11
5.48936
21
-3.46022
0
LINE
8
BLACK
6
CONTINUOUS
10
5.48936
20
-3.46022
11
5.48873
21
-3.45988
0
LINE
8
BLACK
6
CONTINUOUS
10
5.48873
20
-3.45988
11
5.48861
21
-3.45958
0
LINE
8
BLACK
6
CONTINUOUS
10
5.48861
20
-3.45958
11
5.48837
21
-3.45938
0
LINE
8
BLACK
6
CONTINUOUS
10
5.48837
20
-3.45938
11
5.48824
21
-3.45867
0
LINE
8
BLACK
6
CONTINUOUS
10
5.48824
20
-3.45867
11
5.48797
21
-3.458
0
LINE
8
BLACK
6
CONTINUOUS
10
5.48797
20
-3.458
11
5.48807
21
-3.4577
0
LINE
8
BLACK
6
CONTINUOUS
10
5.48807
20
-3.4577
11
5.48802
21
-3.45739
0
LINE
8
BLACK
6
CONTINUOUS
10
5.48802
20
-3.45739
11
5.48838
21
-3.45677
0
LINE
8
BLACK
6
CONTINUOUS
10
5.48838
20
-3.45677
11
5.4886
21
-3.45608
0
LINE
8
BLACK
6
CONTINUOUS
10
5.4886
20
-3.45608
11
5.50547
21
-3.43461
0
LINE
8
BLACK
6
CONTINUOUS
10
5.50547
20
-3.43461
11
5.49093
21
-3.43461
0
LINE
8
BLACK
6
CONTINUOUS
10
5.49093
20
-3.43461
11
5.48992
21
-3.43443
0
LINE
8
BLACK
6
CONTINUOUS
10
5.48992
20
-3.43443
11
5.48837
21
-3.43314
0
LINE
8
BLACK
6
CONTINUOUS
10
5.48837
20
-3.43314
11
5.48802
21
-3.43115
0
LINE
8
BLACK
6
CONTINUOUS
10
5.48802
20
-3.43115
11
5.48903
21
-3.4294
0
LINE
8
BLACK
6
CONTINUOUS
10
5.48903
20
-3.4294
11
5.49093
21
-3.42871
0
LINE
8
BLACK
6
CONTINUOUS
10
5.49093
20
-3.42871
11
5.51155
21
-3.42871
0
LINE
8
BLACK
6
CONTINUOUS
10
5.51155
20
-3.42871
11
5.51185
21
-3.42876
0
LINE
8
BLACK
6
CONTINUOUS
10
5.44256
20
-3.45127
11
5.44269
21
-3.45125
0
LINE
8
BLACK
6
CONTINUOUS
10
5.44269
20
-3.45125
11
5.44281
21
-3.45132
0
LINE
8
BLACK
6
CONTINUOUS
10
5.44281
20
-3.45132
11
5.44295
21
-3.4513
0
LINE
8
BLACK
6
CONTINUOUS
10
5.44295
20
-3.4513
11
5.44358
21
-3.45174
0
LINE
8
BLACK
6
CONTINUOUS
10
5.44358
20
-3.45174
11
5.44427
21
-3.45207
0
LINE
8
BLACK
6
CONTINUOUS
10
5.44427
20
-3.45207
11
5.44614
21
-3.45394
0
LINE
8
BLACK
6
CONTINUOUS
10
5.44614
20
-3.45394
11
5.44637
21
-3.45426
0
LINE
8
BLACK
6
CONTINUOUS
10
5.44637
20
-3.45426
11
5.44648
21
-3.45434
0
LINE
8
BLACK
6
CONTINUOUS
10
5.44648
20
-3.45434
11
5.44651
21
-3.45446
0
LINE
8
BLACK
6
CONTINUOUS
10
5.44651
20
-3.45446
11
5.44673
21
-3.45478
0
LINE
8
BLACK
6
CONTINUOUS
10
5.44673
20
-3.45478
11
5.4468
21
-3.45555
0
LINE
8
BLACK
6
CONTINUOUS
10
5.4468
20
-3.45555
11
5.447
21
-3.45629
0
LINE
8
BLACK
6
CONTINUOUS
10
5.447
20
-3.45629
11
5.44689
21
-3.45653
0
LINE
8
BLACK
6
CONTINUOUS
10
5.44689
20
-3.45653
11
5.44691
21
-3.4568
0
LINE
8
BLACK
6
CONTINUOUS
10
5.44691
20
-3.4568
11
5.44647
21
-3.45742
0
LINE
8
BLACK
6
CONTINUOUS
10
5.44647
20
-3.45742
11
5.44614
21
-3.45812
0
LINE
8
BLACK
6
CONTINUOUS
10
5.44614
20
-3.45812
11
5.44427
21
-3.45999
0
LINE
8
BLACK
6
CONTINUOUS
10
5.44427
20
-3.45999
11
5.44395
21
-3.46022
0
LINE
8
BLACK
6
CONTINUOUS
10
5.44395
20
-3.46022
11
5.44388
21
-3.46033
0
LINE
8
BLACK
6
CONTINUOUS
10
5.44388
20
-3.46033
11
5.44375
21
-3.46036
0
LINE
8
BLACK
6
CONTINUOUS
10
5.44375
20
-3.46036
11
5.44374
21
-3.46036
0
LINE
8
BLACK
6
CONTINUOUS
10
5.44374
20
-3.46036
11
5.44366
21
-3.46046
0
LINE
8
BLACK
6
CONTINUOUS
10
5.44366
20
-3.46046
11
5.44358
21
-3.46048
0
LINE
8
BLACK
6
CONTINUOUS
10
5.44358
20
-3.46048
11
5.44343
21
-3.46058
0
LINE
8
BLACK
6
CONTINUOUS
10
5.44343
20
-3.46058
11
5.44267
21
-3.46065
0
LINE
8
BLACK
6
CONTINUOUS
10
5.44267
20
-3.46065
11
5.44192
21
-3.46085
0
LINE
8
BLACK
6
CONTINUOUS
10
5.44192
20
-3.46085
11
5.4418
21
-3.46079
0
LINE
8
BLACK
6
CONTINUOUS
10
5.4418
20
-3.46079
11
5.44167
21
-3.46081
0
LINE
8
BLACK
6
CONTINUOUS
10
5.44167
20
-3.46081
11
5.44155
21
-3.46075
0
LINE
8
BLACK
6
CONTINUOUS
10
5.44155
20
-3.46075
11
5.44142
21
-3.46076
0
LINE
8
BLACK
6
CONTINUOUS
10
5.44142
20
-3.46076
11
5.44079
21
-3.46032
0
LINE
8
BLACK
6
CONTINUOUS
10
5.44079
20
-3.46032
11
5.44009
21
-3.45999
0
LINE
8
BLACK
6
CONTINUOUS
10
5.44009
20
-3.45999
11
5.43822
21
-3.45812
0
LINE
8
BLACK
6
CONTINUOUS
10
5.43822
20
-3.45812
11
5.438
21
-3.4578
0
LINE
8
BLACK
6
CONTINUOUS
10
5.438
20
-3.4578
11
5.43789
21
-3.45773
0
LINE
8
BLACK
6
CONTINUOUS
10
5.43789
20
-3.45773
11
5.43785
21
-3.4576
0
LINE
8
BLACK
6
CONTINUOUS
10
5.43785
20
-3.4576
11
5.43763
21
-3.45728
0
LINE
8
BLACK
6
CONTINUOUS
10
5.43763
20
-3.45728
11
5.43756
21
-3.45652
0
LINE
8
BLACK
6
CONTINUOUS
10
5.43756
20
-3.45652
11
5.43737
21
-3.45577
0
LINE
8
BLACK
6
CONTINUOUS
10
5.43737
20
-3.45577
11
5.43748
21
-3.45553
0
LINE
8
BLACK
6
CONTINUOUS
10
5.43748
20
-3.45553
11
5.43746
21
-3.45527
0
LINE
8
BLACK
6
CONTINUOUS
10
5.43746
20
-3.45527
11
5.4379
21
-3.45464
0
LINE
8
BLACK
6
CONTINUOUS
10
5.4379
20
-3.45464
11
5.43822
21
-3.45394
0
LINE
8
BLACK
6
CONTINUOUS
10
5.43822
20
-3.45394
11
5.44009
21
-3.45207
0
LINE
8
BLACK
6
CONTINUOUS
10
5.44009
20
-3.45207
11
5.44041
21
-3.45185
0
LINE
8
BLACK
6
CONTINUOUS
10
5.44041
20
-3.45185
11
5.44049
21
-3.45174
0
LINE
8
BLACK
6
CONTINUOUS
10
5.44049
20
-3.45174
11
5.44062
21
-3.4517
0
LINE
8
BLACK
6
CONTINUOUS
10
5.44062
20
-3.4517
11
5.44062
21
-3.4517
0
LINE
8
BLACK
6
CONTINUOUS
10
5.44062
20
-3.4517
11
5.44071
21
-3.4516
0
LINE
8
BLACK
6
CONTINUOUS
10
5.44071
20
-3.4516
11
5.44078
21
-3.45159
0
LINE
8
BLACK
6
CONTINUOUS
10
5.44078
20
-3.45159
11
5.44093
21
-3.45148
0
LINE
8
BLACK
6
CONTINUOUS
10
5.44093
20
-3.45148
11
5.4417
21
-3.45141
0
LINE
8
BLACK
6
CONTINUOUS
10
5.4417
20
-3.45141
11
5.44244
21
-3.45122
0
LINE
8
BLACK
6
CONTINUOUS
10
5.44244
20
-3.45122
11
5.44256
21
-3.45127
0
LINE
8
BLACK
6
CONTINUOUS
10
5.37705
20
-3.4158
11
5.37797
21
-3.41594
0
LINE
8
BLACK
6
CONTINUOUS
10
5.37797
20
-3.41594
11
5.37803
21
-3.416
0
LINE
8
BLACK
6
CONTINUOUS
10
5.37803
20
-3.416
11
5.37811
21
-3.41602
0
LINE
8
BLACK
6
CONTINUOUS
10
5.37811
20
-3.41602
11
5.37869
21
-3.41675
0
LINE
8
BLACK
6
CONTINUOUS
10
5.37869
20
-3.41675
11
5.37931
21
-3.41745
0
LINE
8
BLACK
6
CONTINUOUS
10
5.37931
20
-3.41745
11
5.37931
21
-3.41754
0
LINE
8
BLACK
6
CONTINUOUS
10
5.37931
20
-3.41754
11
5.37937
21
-3.4176
0
LINE
8
BLACK
6
CONTINUOUS
10
5.37937
20
-3.4176
11
5.39249
21
-3.45697
0
LINE
8
BLACK
6
CONTINUOUS
10
5.39249
20
-3.45697
11
5.39264
21
-3.45799
0
LINE
8
BLACK
6
CONTINUOUS
10
5.39264
20
-3.45799
11
5.3919
21
-3.45987
0
LINE
8
BLACK
6
CONTINUOUS
10
5.3919
20
-3.45987
11
5.39012
21
-3.46083
0
LINE
8
BLACK
6
CONTINUOUS
10
5.39012
20
-3.46083
11
5.38814
21
-3.46042
0
LINE
8
BLACK
6
CONTINUOUS
10
5.38814
20
-3.46042
11
5.38689
21
-3.45884
0
LINE
8
BLACK
6
CONTINUOUS
10
5.38689
20
-3.45884
11
5.38381
21
-3.44961
0
LINE
8
BLACK
6
CONTINUOUS
10
5.38381
20
-3.44961
11
5.36932
21
-3.44961
0
LINE
8
BLACK
6
CONTINUOUS
10
5.36932
20
-3.44961
11
5.36624
21
-3.45884
0
LINE
8
BLACK
6
CONTINUOUS
10
5.36624
20
-3.45884
11
5.36576
21
-3.45974
0
LINE
8
BLACK
6
CONTINUOUS
10
5.36576
20
-3.45974
11
5.36403
21
-3.4608
0
LINE
8
BLACK
6
CONTINUOUS
10
5.36403
20
-3.4608
11
5.36204
21
-3.4605
0
LINE
8
BLACK
6
CONTINUOUS
10
5.36204
20
-3.4605
11
5.3607
21
-3.45899
0
LINE
8
BLACK
6
CONTINUOUS
10
5.3607
20
-3.45899
11
5.36064
21
-3.45697
0
LINE
8
BLACK
6
CONTINUOUS
10
5.36064
20
-3.45697
11
5.37376
21
-3.4176
0
LINE
8
BLACK
6
CONTINUOUS
10
5.37376
20
-3.4176
11
5.37425
21
-3.4167
0
LINE
8
BLACK
6
CONTINUOUS
10
5.37425
20
-3.4167
11
5.37432
21
-3.41666
0
LINE
8
BLACK
6
CONTINUOUS
10
5.37432
20
-3.41666
11
5.37436
21
-3.41658
0
LINE
8
BLACK
6
CONTINUOUS
10
5.37436
20
-3.41658
11
5.37518
21
-3.41613
0
LINE
8
BLACK
6
CONTINUOUS
10
5.37518
20
-3.41613
11
5.37597
21
-3.41564
0
LINE
8
BLACK
6
CONTINUOUS
10
5.37597
20
-3.41564
11
5.37606
21
-3.41566
0
LINE
8
BLACK
6
CONTINUOUS
10
5.37606
20
-3.41566
11
5.37613
21
-3.41562
0
LINE
8
BLACK
6
CONTINUOUS
10
5.37613
20
-3.41562
11
5.37705
21
-3.4158
0
LINE
8
BLACK
6
CONTINUOUS
10
5.37129
20
-3.4437
11
5.38184
21
-3.4437
0
LINE
8
BLACK
6
CONTINUOUS
10
5.38184
20
-3.4437
11
5.37657
21
-3.42787
0
LINE
8
BLACK
6
CONTINUOUS
10
5.37657
20
-3.42787
11
5.37129
21
-3.4437
0
LINE
8
BLACK
6
CONTINUOUS
10
5.31857
20
-3.4157
11
5.31896
21
-3.41563
0
LINE
8
BLACK
6
CONTINUOUS
10
5.31896
20
-3.41563
11
5.31952
21
-3.41595
0
LINE
8
BLACK
6
CONTINUOUS
10
5.31952
20
-3.41595
11
5.32014
21
-3.41612
0
LINE
8
BLACK
6
CONTINUOUS
10
5.32014
20
-3.41612
11
5.32037
21
-3.41644
0
LINE
8
BLACK
6
CONTINUOUS
10
5.32037
20
-3.41644
11
5.32071
21
-3.41664
0
LINE
8
BLACK
6
CONTINUOUS
10
5.32071
20
-3.41664
11
5.32093
21
-3.41724
0
LINE
8
BLACK
6
CONTINUOUS
10
5.32093
20
-3.41724
11
5.3213
21
-3.41777
0
LINE
8
BLACK
6
CONTINUOUS
10
5.3213
20
-3.41777
11
5.32127
21
-3.41817
0
LINE
8
BLACK
6
CONTINUOUS
10
5.32127
20
-3.41817
11
5.3214
21
-3.41854
0
LINE
8
BLACK
6
CONTINUOUS
10
5.3214
20
-3.41854
11
5.3214
21
-3.45791
0
LINE
8
BLACK
6
CONTINUOUS
10
5.3214
20
-3.45791
11
5.32122
21
-3.45892
0
LINE
8
BLACK
6
CONTINUOUS
10
5.32122
20
-3.45892
11
5.31992
21
-3.46046
0
LINE
8
BLACK
6
CONTINUOUS
10
5.31992
20
-3.46046
11
5.31793
21
-3.46081
0
LINE
8
BLACK
6
CONTINUOUS
10
5.31793
20
-3.46081
11
5.31619
21
-3.4598
0
LINE
8
BLACK
6
CONTINUOUS
10
5.31619
20
-3.4598
11
5.31549
21
-3.45791
0
LINE
8
BLACK
6
CONTINUOUS
10
5.31549
20
-3.45791
11
5.31549
21
-3.43185
0
LINE
8
BLACK
6
CONTINUOUS
10
5.31549
20
-3.43185
11
5.308
21
-3.44791
0
LINE
8
BLACK
6
CONTINUOUS
10
5.308
20
-3.44791
11
5.30778
21
-3.44822
0
LINE
8
BLACK
6
CONTINUOUS
10
5.30778
20
-3.44822
11
5.30774
21
-3.44835
0
LINE
8
BLACK
6
CONTINUOUS
10
5.30774
20
-3.44835
11
5.30764
21
-3.44843
0
LINE
8
BLACK
6
CONTINUOUS
10
5.30764
20
-3.44843
11
5.30741
21
-3.44875
0
LINE
8
BLACK
6
CONTINUOUS
10
5.30741
20
-3.44875
11
5.30672
21
-3.44907
0
LINE
8
BLACK
6
CONTINUOUS
10
5.30672
20
-3.44907
11
5.30609
21
-3.44951
0
LINE
8
BLACK
6
CONTINUOUS
10
5.30609
20
-3.44951
11
5.30582
21
-3.44949
0
LINE
8
BLACK
6
CONTINUOUS
10
5.30582
20
-3.44949
11
5.30558
21
-3.4496
0
LINE
8
BLACK
6
CONTINUOUS
10
5.30558
20
-3.4496
11
5.30484
21
-3.4494
0
LINE
8
BLACK
6
CONTINUOUS
10
5.30484
20
-3.4494
11
5.30408
21
-3.44933
0
LINE
8
BLACK
6
CONTINUOUS
10
5.30408
20
-3.44933
11
5.30389
21
-3.44915
0
LINE
8
BLACK
6
CONTINUOUS
10
5.30389
20
-3.44915
11
5.30363
21
-3.44908
0
LINE
8
BLACK
6
CONTINUOUS
10
5.30363
20
-3.44908
11
5.30319
21
-3.44845
0
LINE
8
BLACK
6
CONTINUOUS
10
5.30319
20
-3.44845
11
5.30265
21
-3.44791
0
LINE
8
BLACK
6
CONTINUOUS
10
5.30265
20
-3.44791
11
5.29515
21
-3.43185
0
LINE
8
BLACK
6
CONTINUOUS
10
5.29515
20
-3.43185
11
5.29515
21
-3.45791
0
LINE
8
BLACK
6
CONTINUOUS
10
5.29515
20
-3.45791
11
5.29498
21
-3.45892
0
LINE
8
BLACK
6
CONTINUOUS
10
5.29498
20
-3.45892
11
5.29368
21
-3.46046
0
LINE
8
BLACK
6
CONTINUOUS
10
5.29368
20
-3.46046
11
5.29169
21
-3.46081
0
LINE
8
BLACK
6
CONTINUOUS
10
5.29169
20
-3.46081
11
5.28994
21
-3.4598
0
LINE
8
BLACK
6
CONTINUOUS
10
5.28994
20
-3.4598
11
5.28925
21
-3.45791
0
LINE
8
BLACK
6
CONTINUOUS
10
5.28925
20
-3.45791
11
5.28925
21
-3.41854
0
LINE
8
BLACK
6
CONTINUOUS
10
5.28925
20
-3.41854
11
5.28943
21
-3.41753
0
LINE
8
BLACK
6
CONTINUOUS
10
5.28943
20
-3.41753
11
5.28968
21
-3.41722
0
LINE
8
BLACK
6
CONTINUOUS
10
5.28968
20
-3.41722
11
5.28978
21
-3.41684
0
LINE
8
BLACK
6
CONTINUOUS
10
5.28978
20
-3.41684
11
5.29031
21
-3.41647
0
LINE
8
BLACK
6
CONTINUOUS
10
5.29031
20
-3.41647
11
5.29072
21
-3.41598
0
LINE
8
BLACK
6
CONTINUOUS
10
5.29072
20
-3.41598
11
5.29111
21
-3.41591
0
LINE
8
BLACK
6
CONTINUOUS
10
5.29111
20
-3.41591
11
5.29144
21
-3.41568
0
LINE
8
BLACK
6
CONTINUOUS
10
5.29144
20
-3.41568
11
5.29208
21
-3.41574
0
LINE
8
BLACK
6
CONTINUOUS
10
5.29208
20
-3.41574
11
5.29271
21
-3.41563
0
LINE
8
BLACK
6
CONTINUOUS
10
5.29271
20
-3.41563
11
5.29306
21
-3.41583
0
LINE
8
BLACK
6
CONTINUOUS
10
5.29306
20
-3.41583
11
5.29345
21
-3.41586
0
LINE
8
BLACK
6
CONTINUOUS
10
5.29345
20
-3.41586
11
5.2939
21
-3.41632
0
LINE
8
BLACK
6
CONTINUOUS
10
5.2939
20
-3.41632
11
5.29446
21
-3.41664
0
LINE
8
BLACK
6
CONTINUOUS
10
5.29446
20
-3.41664
11
5.2946
21
-3.41701
0
LINE
8
BLACK
6
CONTINUOUS
10
5.2946
20
-3.41701
11
5.29488
21
-3.41729
0
LINE
8
BLACK
6
CONTINUOUS
10
5.29488
20
-3.41729
11
5.30532
21
-3.43968
0
LINE
8
BLACK
6
CONTINUOUS
10
5.30532
20
-3.43968
11
5.31577
21
-3.41729
0
LINE
8
BLACK
6
CONTINUOUS
10
5.31577
20
-3.41729
11
5.31636
21
-3.41645
0
LINE
8
BLACK
6
CONTINUOUS
10
5.31636
20
-3.41645
11
5.31672
21
-3.41628
0
LINE
8
BLACK
6
CONTINUOUS
10
5.31672
20
-3.41628
11
5.31697
21
-3.41598
0
LINE
8
BLACK
6
CONTINUOUS
10
5.31697
20
-3.41598
11
5.31761
21
-3.41587
0
LINE
8
BLACK
6
CONTINUOUS
10
5.31761
20
-3.41587
11
5.31819
21
-3.41559
0
LINE
8
BLACK
6
CONTINUOUS
10
5.31819
20
-3.41559
11
5.31857
21
-3.4157
0
LINE
8
BLACK
6
CONTINUOUS
10
5.67551
20
-3.42483
11
5.67705
21
-3.42613
0
LINE
8
BLACK
6
CONTINUOUS
10
5.67705
20
-3.42613
11
5.6774
21
-3.42812
0
LINE
8
BLACK
6
CONTINUOUS
10
5.6774
20
-3.42812
11
5.67639
21
-3.42987
0
LINE
8
BLACK
6
CONTINUOUS
10
5.67639
20
-3.42987
11
5.6745
21
-3.43056
0
LINE
8
BLACK
6
CONTINUOUS
10
5.6745
20
-3.43056
11
5.6055
21
-3.43056
0
LINE
8
BLACK
6
CONTINUOUS
10
5.6055
20
-3.43056
11
5.60449
21
-3.43038
0
LINE
8
BLACK
6
CONTINUOUS
10
5.60449
20
-3.43038
11
5.60295
21
-3.42908
0
LINE
8
BLACK
6
CONTINUOUS
10
5.60295
20
-3.42908
11
5.6026
21
-3.42709
0
LINE
8
BLACK
6
CONTINUOUS
10
5.6026
20
-3.42709
11
5.60361
21
-3.42534
0
LINE
8
BLACK
6
CONTINUOUS
10
5.60361
20
-3.42534
11
5.6055
21
-3.42465
0
LINE
8
BLACK
6
CONTINUOUS
10
5.6055
20
-3.42465
11
5.6745
21
-3.42465
0
LINE
8
BLACK
6
CONTINUOUS
10
5.6745
20
-3.42465
11
5.67551
21
-3.42483
0
LINE
8
BLACK
6
CONTINUOUS
10
5.44319
20
-3.35238
11
5.44333
21
-3.35249
0
LINE
8
BLACK
6
CONTINUOUS
10
5.44333
20
-3.35249
11
5.4435
21
-3.35251
0
LINE
8
BLACK
6
CONTINUOUS
10
5.4435
20
-3.35251
11
5.44725
21
-3.35438
0
LINE
8
BLACK
6
CONTINUOUS
10
5.44725
20
-3.35438
11
5.44796
21
-3.35491
0
LINE
8
BLACK
6
CONTINUOUS
10
5.44796
20
-3.35491
11
5.44802
21
-3.35494
0
LINE
8
BLACK
6
CONTINUOUS
10
5.44802
20
-3.35494
11
5.44989
21
-3.35681
0
LINE
8
BLACK
6
CONTINUOUS
10
5.44989
20
-3.35681
11
5.4504
21
-3.35754
0
LINE
8
BLACK
6
CONTINUOUS
10
5.4504
20
-3.35754
11
5.45045
21
-3.35758
0
LINE
8
BLACK
6
CONTINUOUS
10
5.45045
20
-3.35758
11
5.45232
21
-3.36133
0
LINE
8
BLACK
6
CONTINUOUS
10
5.45232
20
-3.36133
11
5.45247
21
-3.36182
0
LINE
8
BLACK
6
CONTINUOUS
10
5.45247
20
-3.36182
11
5.45255
21
-3.36193
0
LINE
8
BLACK
6
CONTINUOUS
10
5.45255
20
-3.36193
11
5.45442
21
-3.36943
0
LINE
8
BLACK
6
CONTINUOUS
10
5.45442
20
-3.36943
11
5.45446
21
-3.37002
0
LINE
8
BLACK
6
CONTINUOUS
10
5.45446
20
-3.37002
11
5.45451
21
-3.37015
0
LINE
8
BLACK
6
CONTINUOUS
10
5.45451
20
-3.37015
11
5.45451
21
-3.37952
0
LINE
8
BLACK
6
CONTINUOUS
10
5.45451
20
-3.37952
11
5.45441
21
-3.3801
0
LINE
8
BLACK
6
CONTINUOUS
10
5.45441
20
-3.3801
11
5.45442
21
-3.38024
0
LINE
8
BLACK
6
CONTINUOUS
10
5.45442
20
-3.38024
11
5.45255
21
-3.38774
0
LINE
8
BLACK
6
CONTINUOUS
10
5.45255
20
-3.38774
11
5.45234
21
-3.3882
0
LINE
8
BLACK
6
CONTINUOUS
10
5.45234
20
-3.3882
11
5.45232
21
-3.38834
0
LINE
8
BLACK
6
CONTINUOUS
10
5.45232
20
-3.38834
11
5.45045
21
-3.39209
0
LINE
8
BLACK
6
CONTINUOUS
10
5.45045
20
-3.39209
11
5.44992
21
-3.3928
0
LINE
8
BLACK
6
CONTINUOUS
10
5.44992
20
-3.3928
11
5.44989
21
-3.39286
0
LINE
8
BLACK
6
CONTINUOUS
10
5.44989
20
-3.39286
11
5.44802
21
-3.39473
0
LINE
8
BLACK
6
CONTINUOUS
10
5.44802
20
-3.39473
11
5.4473
21
-3.39524
0
LINE
8
BLACK
6
CONTINUOUS
10
5.4473
20
-3.39524
11
5.44725
21
-3.39529
0
LINE
8
BLACK
6
CONTINUOUS
10
5.44725
20
-3.39529
11
5.4435
21
-3.39716
0
LINE
8
BLACK
6
CONTINUOUS
10
5.4435
20
-3.39716
11
5.44252
21
-3.39745
0
LINE
8
BLACK
6
CONTINUOUS
10
5.44252
20
-3.39745
11
5.44235
21
-3.39741
0
LINE
8
BLACK
6
CONTINUOUS
10
5.44235
20
-3.39741
11
5.44218
21
-3.39747
0
LINE
8
BLACK
6
CONTINUOUS
10
5.44218
20
-3.39747
11
5.43843
21
-3.39747
0
LINE
8
BLACK
6
CONTINUOUS
10
5.43843
20
-3.39747
11
5.43742
21
-3.3973
0
LINE
8
BLACK
6
CONTINUOUS
10
5.43742
20
-3.3973
11
5.43729
21
-3.39718
0
LINE
8
BLACK
6
CONTINUOUS
10
5.43729
20
-3.39718
11
5.43711
21
-3.39716
0
LINE
8
BLACK
6
CONTINUOUS
10
5.43711
20
-3.39716
11
5.43336
21
-3.39529
0
LINE
8
BLACK
6
CONTINUOUS
10
5.43336
20
-3.39529
11
5.43265
21
-3.39476
0
LINE
8
BLACK
6
CONTINUOUS
10
5.43265
20
-3.39476
11
5.4326
21
-3.39473
0
LINE
8
BLACK
6
CONTINUOUS
10
5.4326
20
-3.39473
11
5.43072
21
-3.39286
0
LINE
8
BLACK
6
CONTINUOUS
10
5.43072
20
-3.39286
11
5.43021
21
-3.39214
0
LINE
8
BLACK
6
CONTINUOUS
10
5.43021
20
-3.39214
11
5.43017
21
-3.39209
0
LINE
8
BLACK
6
CONTINUOUS
10
5.43017
20
-3.39209
11
5.42829
21
-3.38834
0
LINE
8
BLACK
6
CONTINUOUS
10
5.42829
20
-3.38834
11
5.42815
21
-3.38785
0
LINE
8
BLACK
6
CONTINUOUS
10
5.42815
20
-3.38785
11
5.42807
21
-3.38774
0
LINE
8
BLACK
6
CONTINUOUS
10
5.42807
20
-3.38774
11
5.42619
21
-3.38024
0
LINE
8
BLACK
6
CONTINUOUS
10
5.42619
20
-3.38024
11
5.42615
21
-3.37965
0
LINE
8
BLACK
6
CONTINUOUS
10
5.42615
20
-3.37965
11
5.42611
21
-3.37952
0
LINE
8
BLACK
6
CONTINUOUS
10
5.42611
20
-3.37952
11
5.42611
21
-3.37015
0
LINE
8
BLACK
6
CONTINUOUS
10
5.42611
20
-3.37015
11
5.42621
21
-3.36957
0
LINE
8
BLACK
6
CONTINUOUS
10
5.42621
20
-3.36957
11
5.42619
21
-3.36943
0
LINE
8
BLACK
6
CONTINUOUS
10
5.42619
20
-3.36943
11
5.42807
21
-3.36193
0
LINE
8
BLACK
6
CONTINUOUS
10
5.42807
20
-3.36193
11
5.42828
21
-3.36147
0
LINE
8
BLACK
6
CONTINUOUS
10
5.42828
20
-3.36147
11
5.42829
21
-3.36133
0
LINE
8
BLACK
6
CONTINUOUS
10
5.42829
20
-3.36133
11
5.43017
21
-3.35758
0
LINE
8
BLACK
6
CONTINUOUS
10
5.43017
20
-3.35758
11
5.43069
21
-3.35687
0
LINE
8
BLACK
6
CONTINUOUS
10
5.43069
20
-3.35687
11
5.43072
21
-3.35681
0
LINE
8
BLACK
6
CONTINUOUS
10
5.43072
20
-3.35681
11
5.4326
21
-3.35494
0
LINE
8
BLACK
6
CONTINUOUS
10
5.4326
20
-3.35494
11
5.43332
21
-3.35443
0
LINE
8
BLACK
6
CONTINUOUS
10
5.43332
20
-3.35443
11
5.43336
21
-3.35438
0
LINE
8
BLACK
6
CONTINUOUS
10
5.43336
20
-3.35438
11
5.43711
21
-3.35251
0
LINE
8
BLACK
6
CONTINUOUS
10
5.43711
20
-3.35251
11
5.4381
21
-3.35222
0
LINE
8
BLACK
6
CONTINUOUS
10
5.4381
20
-3.35222
11
5.43827
21
-3.35226
0
LINE
8
BLACK
6
CONTINUOUS
10
5.43827
20
-3.35226
11
5.43843
21
-3.3522
0
LINE
8
BLACK
6
CONTINUOUS
10
5.43843
20
-3.3522
11
5.44218
21
-3.3522
0
LINE
8
BLACK
6
CONTINUOUS
10
5.44218
20
-3.3522
11
5.44319
21
-3.35238
0
LINE
8
BLACK
6
CONTINUOUS
10
5.43643
20
-3.35945
11
5.43524
21
-3.36065
0
LINE
8
BLACK
6
CONTINUOUS
10
5.43524
20
-3.36065
11
5.43372
21
-3.36368
0
LINE
8
BLACK
6
CONTINUOUS
10
5.43372
20
-3.36368
11
5.43201
21
-3.37051
0
LINE
8
BLACK
6
CONTINUOUS
10
5.43201
20
-3.37051
11
5.43201
21
-3.37916
0
LINE
8
BLACK
6
CONTINUOUS
10
5.43201
20
-3.37916
11
5.43372
21
-3.38599
0
LINE
8
BLACK
6
CONTINUOUS
10
5.43372
20
-3.38599
11
5.43524
21
-3.38902
0
LINE
8
BLACK
6
CONTINUOUS
10
5.43524
20
-3.38902
11
5.43643
21
-3.39022
0
LINE
8
BLACK
6
CONTINUOUS
10
5.43643
20
-3.39022
11
5.43913
21
-3.39157
0
LINE
8
BLACK
6
CONTINUOUS
10
5.43913
20
-3.39157
11
5.44149
21
-3.39157
0
LINE
8
BLACK
6
CONTINUOUS
10
5.44149
20
-3.39157
11
5.44418
21
-3.39022
0
LINE
8
BLACK
6
CONTINUOUS
10
5.44418
20
-3.39022
11
5.44538
21
-3.38902
0
LINE
8
BLACK
6
CONTINUOUS
10
5.44538
20
-3.38902
11
5.4469
21
-3.38599
0
LINE
8
BLACK
6
CONTINUOUS
10
5.4469
20
-3.38599
11
5.4486
21
-3.37916
0
LINE
8
BLACK
6
CONTINUOUS
10
5.4486
20
-3.37916
11
5.4486
21
-3.37051
0
LINE
8
BLACK
6
CONTINUOUS
10
5.4486
20
-3.37051
11
5.4469
21
-3.36368
0
LINE
8
BLACK
6
CONTINUOUS
10
5.4469
20
-3.36368
11
5.44538
21
-3.36065
0
LINE
8
BLACK
6
CONTINUOUS
10
5.44538
20
-3.36065
11
5.44418
21
-3.35945
0
LINE
8
BLACK
6
CONTINUOUS
10
5.44418
20
-3.35945
11
5.44149
21
-3.3581
0
LINE
8
BLACK
6
CONTINUOUS
10
5.44149
20
-3.3581
11
5.43913
21
-3.3581
0
LINE
8
BLACK
6
CONTINUOUS
10
5.43913
20
-3.3581
11
5.43643
21
-3.35945
0
LINE
8
BLACK
6
CONTINUOUS
10
5.47815
20
-3.35227
11
5.47832
21
-3.35224
0
LINE
8
BLACK
6
CONTINUOUS
10
5.47832
20
-3.35224
11
5.47906
21
-3.35267
0
LINE
8
BLACK
6
CONTINUOUS
10
5.47906
20
-3.35267
11
5.47984
21
-3.35302
0
LINE
8
BLACK
6
CONTINUOUS
10
5.47984
20
-3.35302
11
5.47992
21
-3.35317
0
LINE
8
BLACK
6
CONTINUOUS
10
5.47992
20
-3.35317
11
5.48006
21
-3.35325
0
LINE
8
BLACK
6
CONTINUOUS
10
5.48006
20
-3.35325
11
5.48036
21
-3.35406
0
LINE
8
BLACK
6
CONTINUOUS
10
5.48036
20
-3.35406
11
5.48074
21
-3.35483
0
LINE
8
BLACK
6
CONTINUOUS
10
5.48074
20
-3.35483
11
5.4807
21
-3.35499
0
LINE
8
BLACK
6
CONTINUOUS
10
5.4807
20
-3.35499
11
5.48076
21
-3.35515
0
LINE
8
BLACK
6
CONTINUOUS
10
5.48076
20
-3.35515
11
5.48076
21
-3.39157
0
LINE
8
BLACK
6
CONTINUOUS
10
5.48076
20
-3.39157
11
5.48905
21
-3.39157
0
LINE
8
BLACK
6
CONTINUOUS
10
5.48905
20
-3.39157
11
5.49006
21
-3.39175
0
LINE
8
BLACK
6
CONTINUOUS
10
5.49006
20
-3.39175
11
5.49161
21
-3.39304
0
LINE
8
BLACK
6
CONTINUOUS
10
5.49161
20
-3.39304
11
5.49196
21
-3.39503
0
LINE
8
BLACK
6
CONTINUOUS
10
5.49196
20
-3.39503
11
5.49095
21
-3.39678
0
LINE
8
BLACK
6
CONTINUOUS
10
5.49095
20
-3.39678
11
5.48905
21
-3.39747
0
LINE
8
BLACK
6
CONTINUOUS
10
5.48905
20
-3.39747
11
5.46655
21
-3.39747
0
LINE
8
BLACK
6
CONTINUOUS
10
5.46655
20
-3.39747
11
5.46554
21
-3.3973
0
LINE
8
BLACK
6
CONTINUOUS
10
5.46554
20
-3.3973
11
5.464
21
-3.396
0
LINE
8
BLACK
6
CONTINUOUS
10
5.464
20
-3.396
11
5.46365
21
-3.39401
0
LINE
8
BLACK
6
CONTINUOUS
10
5.46365
20
-3.39401
11
5.46466
21
-3.39226
0
LINE
8
BLACK
6
CONTINUOUS
10
5.46466
20
-3.39226
11
5.46655
21
-3.39157
0
LINE
8
BLACK
6
CONTINUOUS
10
5.46655
20
-3.39157
11
5.47485
21
-3.39157
0
LINE
8
BLACK
6
CONTINUOUS
10
5.47485
20
-3.39157
11
5.47485
21
-3.36415
0
LINE
8
BLACK
6
CONTINUOUS
10
5.47485
20
-3.36415
11
5.47239
21
-3.36661
0
LINE
8
BLACK
6
CONTINUOUS
10
5.47239
20
-3.36661
11
5.47167
21
-3.36712
0
LINE
8
BLACK
6
CONTINUOUS
10
5.47167
20
-3.36712
11
5.47162
21
-3.36717
0
LINE
8
BLACK
6
CONTINUOUS
10
5.47162
20
-3.36717
11
5.46787
21
-3.36904
0
LINE
8
BLACK
6
CONTINUOUS
10
5.46787
20
-3.36904
11
5.46689
21
-3.36933
0
LINE
8
BLACK
6
CONTINUOUS
10
5.46689
20
-3.36933
11
5.46493
21
-3.36886
0
LINE
8
BLACK
6
CONTINUOUS
10
5.46493
20
-3.36886
11
5.46372
21
-3.36724
0
LINE
8
BLACK
6
CONTINUOUS
10
5.46372
20
-3.36724
11
5.46385
21
-3.36522
0
LINE
8
BLACK
6
CONTINUOUS
10
5.46385
20
-3.36522
11
5.46523
21
-3.36376
0
LINE
8
BLACK
6
CONTINUOUS
10
5.46523
20
-3.36376
11
5.46855
21
-3.3621
0
LINE
8
BLACK
6
CONTINUOUS
10
5.46855
20
-3.3621
11
5.47176
21
-3.35889
0
LINE
8
BLACK
6
CONTINUOUS
10
5.47176
20
-3.35889
11
5.47535
21
-3.35351
0
LINE
8
BLACK
6
CONTINUOUS
10
5.47535
20
-3.35351
11
5.47605
21
-3.35277
0
LINE
8
BLACK
6
CONTINUOUS
10
5.47605
20
-3.35277
11
5.47622
21
-3.35272
0
LINE
8
BLACK
6
CONTINUOUS
10
5.47622
20
-3.35272
11
5.47633
21
-3.35259
0
LINE
8
BLACK
6
CONTINUOUS
10
5.47633
20
-3.35259
11
5.47717
21
-3.35244
0
LINE
8
BLACK
6
CONTINUOUS
10
5.47717
20
-3.35244
11
5.47799
21
-3.3522
0
LINE
8
BLACK
6
CONTINUOUS
10
5.47799
20
-3.3522
11
5.47815
21
-3.35227
0
LINE
8
BLACK
6
CONTINUOUS
10
5.36017
20
-3.35242
11
5.3611
21
-3.35255
0
LINE
8
BLACK
6
CONTINUOUS
10
5.3611
20
-3.35255
11
5.36115
21
-3.35262
0
LINE
8
BLACK
6
CONTINUOUS
10
5.36115
20
-3.35262
11
5.36124
21
-3.35263
0
LINE
8
BLACK
6
CONTINUOUS
10
5.36124
20
-3.35263
11
5.36182
21
-3.35337
0
LINE
8
BLACK
6
CONTINUOUS
10
5.36182
20
-3.35337
11
5.36244
21
-3.35407
0
LINE
8
BLACK
6
CONTINUOUS
10
5.36244
20
-3.35407
11
5.36244
21
-3.35415
0
LINE
8
BLACK
6
CONTINUOUS
10
5.36244
20
-3.35415
11
5.36249
21
-3.35422
0
LINE
8
BLACK
6
CONTINUOUS
10
5.36249
20
-3.35422
11
5.37562
21
-3.39359
0
LINE
8
BLACK
6
CONTINUOUS
10
5.37562
20
-3.39359
11
5.37577
21
-3.3946
0
LINE
8
BLACK
6
CONTINUOUS
10
5.37577
20
-3.3946
11
5.37503
21
-3.39648
0
LINE
8
BLACK
6
CONTINUOUS
10
5.37503
20
-3.39648
11
5.37325
21
-3.39744
0
LINE
8
BLACK
6
CONTINUOUS
10
5.37325
20
-3.39744
11
5.37127
21
-3.39704
0
LINE
8
BLACK
6
CONTINUOUS
10
5.37127
20
-3.39704
11
5.37001
21
-3.39545
0
LINE
8
BLACK
6
CONTINUOUS
10
5.37001
20
-3.39545
11
5.36694
21
-3.38622
0
LINE
8
BLACK
6
CONTINUOUS
10
5.36694
20
-3.38622
11
5.35245
21
-3.38622
0
LINE
8
BLACK
6
CONTINUOUS
10
5.35245
20
-3.38622
11
5.34937
21
-3.39545
0
LINE
8
BLACK
6
CONTINUOUS
10
5.34937
20
-3.39545
11
5.34888
21
-3.39636
0
LINE
8
BLACK
6
CONTINUOUS
10
5.34888
20
-3.39636
11
5.34716
21
-3.39741
0
LINE
8
BLACK
6
CONTINUOUS
10
5.34716
20
-3.39741
11
5.34516
21
-3.39712
0
LINE
8
BLACK
6
CONTINUOUS
10
5.34516
20
-3.39712
11
5.34382
21
-3.39561
0
LINE
8
BLACK
6
CONTINUOUS
10
5.34382
20
-3.39561
11
5.34377
21
-3.39359
0
LINE
8
BLACK
6
CONTINUOUS
10
5.34377
20
-3.39359
11
5.35689
21
-3.35422
0
LINE
8
BLACK
6
CONTINUOUS
10
5.35689
20
-3.35422
11
5.35738
21
-3.35331
0
LINE
8
BLACK
6
CONTINUOUS
10
5.35738
20
-3.35331
11
5.35745
21
-3.35327
0
LINE
8
BLACK
6
CONTINUOUS
10
5.35745
20
-3.35327
11
5.35748
21
-3.35319
0
LINE
8
BLACK
6
CONTINUOUS
10
5.35748
20
-3.35319
11
5.3583
21
-3.35275
0
LINE
8
BLACK
6
CONTINUOUS
10
5.3583
20
-3.35275
11
5.3591
21
-3.35226
0
LINE
8
BLACK
6
CONTINUOUS
10
5.3591
20
-3.35226
11
5.35918
21
-3.35227
0
LINE
8
BLACK
6
CONTINUOUS
10
5.35918
20
-3.35227
11
5.35926
21
-3.35223
0
LINE
8
BLACK
6
CONTINUOUS
10
5.35926
20
-3.35223
11
5.36017
21
-3.35242
0
LINE
8
BLACK
6
CONTINUOUS
10
5.35442
20
-3.38032
11
5.36497
21
-3.38032
0
LINE
8
BLACK
6
CONTINUOUS
10
5.36497
20
-3.38032
11
5.35969
21
-3.36449
0
LINE
8
BLACK
6
CONTINUOUS
10
5.35969
20
-3.36449
11
5.35442
21
-3.38032
0
LINE
8
BLACK
6
CONTINUOUS
10
5.51391
20
-3.35242
11
5.51483
21
-3.35255
0
LINE
8
BLACK
6
CONTINUOUS
10
5.51483
20
-3.35255
11
5.51489
21
-3.35262
0
LINE
8
BLACK
6
CONTINUOUS
10
5.51489
20
-3.35262
11
5.51497
21
-3.35263
0
LINE
8
BLACK
6
CONTINUOUS
10
5.51497
20
-3.35263
11
5.51555
21
-3.35337
0
LINE
8
BLACK
6
CONTINUOUS
10
5.51555
20
-3.35337
11
5.51617
21
-3.35407
0
LINE
8
BLACK
6
CONTINUOUS
10
5.51617
20
-3.35407
11
5.51617
21
-3.35415
0
LINE
8
BLACK
6
CONTINUOUS
10
5.51617
20
-3.35415
11
5.51622
21
-3.35422
0
LINE
8
BLACK
6
CONTINUOUS
10
5.51622
20
-3.35422
11
5.52935
21
-3.39359
0
LINE
8
BLACK
6
CONTINUOUS
10
5.52935
20
-3.39359
11
5.5295
21
-3.3946
0
LINE
8
BLACK
6
CONTINUOUS
10
5.5295
20
-3.3946
11
5.52876
21
-3.39648
0
LINE
8
BLACK
6
CONTINUOUS
10
5.52876
20
-3.39648
11
5.52698
21
-3.39744
0
LINE
8
BLACK
6
CONTINUOUS
10
5.52698
20
-3.39744
11
5.525
21
-3.39704
0
LINE
8
BLACK
6
CONTINUOUS
10
5.525
20
-3.39704
11
5.52375
21
-3.39545
0
LINE
8
BLACK
6
CONTINUOUS
10
5.52375
20
-3.39545
11
5.52067
21
-3.38622
0
LINE
8
BLACK
6
CONTINUOUS
10
5.52067
20
-3.38622
11
5.50618
21
-3.38622
0
LINE
8
BLACK
6
CONTINUOUS
10
5.50618
20
-3.38622
11
5.5031
21
-3.39545
0
LINE
8
BLACK
6
CONTINUOUS
10
5.5031
20
-3.39545
11
5.50261
21
-3.39636
0
LINE
8
BLACK
6
CONTINUOUS
10
5.50261
20
-3.39636
11
5.50089
21
-3.39741
0
LINE
8
BLACK
6
CONTINUOUS
10
5.50089
20
-3.39741
11
5.49889
21
-3.39712
0
LINE
8
BLACK
6
CONTINUOUS
10
5.49889
20
-3.39712
11
5.49755
21
-3.39561
0
LINE
8
BLACK
6
CONTINUOUS
10
5.49755
20
-3.39561
11
5.4975
21
-3.39359
0
LINE
8
BLACK
6
CONTINUOUS
10
5.4975
20
-3.39359
11
5.51062
21
-3.35422
0
LINE
8
BLACK
6
CONTINUOUS
10
5.51062
20
-3.35422
11
5.51111
21
-3.35331
0
LINE
8
BLACK
6
CONTINUOUS
10
5.51111
20
-3.35331
11
5.51118
21
-3.35327
0
LINE
8
BLACK
6
CONTINUOUS
10
5.51118
20
-3.35327
11
5.51121
21
-3.35319
0
LINE
8
BLACK
6
CONTINUOUS
10
5.51121
20
-3.35319
11
5.51204
21
-3.35275
0
LINE
8
BLACK
6
CONTINUOUS
10
5.51204
20
-3.35275
11
5.51283
21
-3.35226
0
LINE
8
BLACK
6
CONTINUOUS
10
5.51283
20
-3.35226
11
5.51292
21
-3.35227
0
LINE
8
BLACK
6
CONTINUOUS
10
5.51292
20
-3.35227
11
5.51299
21
-3.35223
0
LINE
8
BLACK
6
CONTINUOUS
10
5.51299
20
-3.35223
11
5.51391
21
-3.35242
0
LINE
8
BLACK
6
CONTINUOUS
10
5.50815
20
-3.38032
11
5.5187
21
-3.38032
0
LINE
8
BLACK
6
CONTINUOUS
10
5.5187
20
-3.38032
11
5.51342
21
-3.36449
0
LINE
8
BLACK
6
CONTINUOUS
10
5.51342
20
-3.36449
11
5.50815
21
-3.38032
0
LINE
8
BLACK
6
CONTINUOUS
10
5.29884
20
-3.35238
11
5.30038
21
-3.35367
0
LINE
8
BLACK
6
CONTINUOUS
10
5.30038
20
-3.35367
11
5.30073
21
-3.35566
0
LINE
8
BLACK
6
CONTINUOUS
10
5.30073
20
-3.35566
11
5.29972
21
-3.35741
0
LINE
8
BLACK
6
CONTINUOUS
10
5.29972
20
-3.35741
11
5.29783
21
-3.3581
0
LINE
8
BLACK
6
CONTINUOUS
10
5.29783
20
-3.3581
11
5.28203
21
-3.3581
0
LINE
8
BLACK
6
CONTINUOUS
10
5.28203
20
-3.3581
11
5.28203
21
-3.37095
0
LINE
8
BLACK
6
CONTINUOUS
10
5.28203
20
-3.37095
11
5.2922
21
-3.37095
0
LINE
8
BLACK
6
CONTINUOUS
10
5.2922
20
-3.37095
11
5.29321
21
-3.37112
0
LINE
8
BLACK
6
CONTINUOUS
10
5.29321
20
-3.37112
11
5.29476
21
-3.37242
0
LINE
8
BLACK
6
CONTINUOUS
10
5.29476
20
-3.37242
11
5.29511
21
-3.37441
0
LINE
8
BLACK
6
CONTINUOUS
10
5.29511
20
-3.37441
11
5.2941
21
-3.37616
0
LINE
8
BLACK
6
CONTINUOUS
10
5.2941
20
-3.37616
11
5.2922
21
-3.37685
0
LINE
8
BLACK
6
CONTINUOUS
10
5.2922
20
-3.37685
11
5.28203
21
-3.37685
0
LINE
8
BLACK
6
CONTINUOUS
10
5.28203
20
-3.37685
11
5.28203
21
-3.39452
0
LINE
8
BLACK
6
CONTINUOUS
10
5.28203
20
-3.39452
11
5.28185
21
-3.39553
0
LINE
8
BLACK
6
CONTINUOUS
10
5.28185
20
-3.39553
11
5.28055
21
-3.39708
0
LINE
8
BLACK
6
CONTINUOUS
10
5.28055
20
-3.39708
11
5.27856
21
-3.39743
0
LINE
8
BLACK
6
CONTINUOUS
10
5.27856
20
-3.39743
11
5.27682
21
-3.39642
0
LINE
8
BLACK
6
CONTINUOUS
10
5.27682
20
-3.39642
11
5.27612
21
-3.39452
0
LINE
8
BLACK
6
CONTINUOUS
10
5.27612
20
-3.39452
11
5.27612
21
-3.35515
0
LINE
8
BLACK
6
CONTINUOUS
10
5.27612
20
-3.35515
11
5.27619
21
-3.35477
0
LINE
8
BLACK
6
CONTINUOUS
10
5.27619
20
-3.35477
11
5.27617
21
-3.35464
0
LINE
8
BLACK
6
CONTINUOUS
10
5.27617
20
-3.35464
11
5.27624
21
-3.35452
0
LINE
8
BLACK
6
CONTINUOUS
10
5.27624
20
-3.35452
11
5.2763
21
-3.35414
0
LINE
8
BLACK
6
CONTINUOUS
10
5.2763
20
-3.35414
11
5.2768
21
-3.35355
0
LINE
8
BLACK
6
CONTINUOUS
10
5.2768
20
-3.35355
11
5.27718
21
-3.35289
0
LINE
8
BLACK
6
CONTINUOUS
10
5.27718
20
-3.35289
11
5.27743
21
-3.3528
0
LINE
8
BLACK
6
CONTINUOUS
10
5.27743
20
-3.3528
11
5.2776
21
-3.35259
0
LINE
8
BLACK
6
CONTINUOUS
10
5.2776
20
-3.35259
11
5.27836
21
-3.35246
0
LINE
8
BLACK
6
CONTINUOUS
10
5.27836
20
-3.35246
11
5.27908
21
-3.3522
0
LINE
8
BLACK
6
CONTINUOUS
10
5.27908
20
-3.3522
11
5.29783
21
-3.3522
0
LINE
8
BLACK
6
CONTINUOUS
10
5.29783
20
-3.3522
11
5.29884
21
-3.35238
0
LINE
8
BLACK
6
CONTINUOUS
10
5.32883
20
-3.35238
11
5.32897
21
-3.35249
0
LINE
8
BLACK
6
CONTINUOUS
10
5.32897
20
-3.35249
11
5.32914
21
-3.35251
0
LINE
8
BLACK
6
CONTINUOUS
10
5.32914
20
-3.35251
11
5.33289
21
-3.35438
0
LINE
8
BLACK
6
CONTINUOUS
10
5.33289
20
-3.35438
11
5.3336
21
-3.35491
0
LINE
8
BLACK
6
CONTINUOUS
10
5.3336
20
-3.35491
11
5.33366
21
-3.35494
0
LINE
8
BLACK
6
CONTINUOUS
10
5.33366
20
-3.35494
11
5.33553
21
-3.35681
0
LINE
8
BLACK
6
CONTINUOUS
10
5.33553
20
-3.35681
11
5.33604
21
-3.35754
0
LINE
8
BLACK
6
CONTINUOUS
10
5.33604
20
-3.35754
11
5.33609
21
-3.35758
0
LINE
8
BLACK
6
CONTINUOUS
10
5.33609
20
-3.35758
11
5.33796
21
-3.36133
0
LINE
8
BLACK
6
CONTINUOUS
10
5.33796
20
-3.36133
11
5.33825
21
-3.36231
0
LINE
8
BLACK
6
CONTINUOUS
10
5.33825
20
-3.36231
11
5.33821
21
-3.36248
0
LINE
8
BLACK
6
CONTINUOUS
10
5.33821
20
-3.36248
11
5.33827
21
-3.36265
0
LINE
8
BLACK
6
CONTINUOUS
10
5.33827
20
-3.36265
11
5.33827
21
-3.36827
0
LINE
8
BLACK
6
CONTINUOUS
10
5.33827
20
-3.36827
11
5.3381
21
-3.36928
0
LINE
8
BLACK
6
CONTINUOUS
10
5.3381
20
-3.36928
11
5.33798
21
-3.36942
0
LINE
8
BLACK
6
CONTINUOUS
10
5.33798
20
-3.36942
11
5.33796
21
-3.36959
0
LINE
8
BLACK
6
CONTINUOUS
10
5.33796
20
-3.36959
11
5.33609
21
-3.37334
0
LINE
8
BLACK
6
CONTINUOUS
10
5.33609
20
-3.37334
11
5.33556
21
-3.37405
0
LINE
8
BLACK
6
CONTINUOUS
10
5.33556
20
-3.37405
11
5.33553
21
-3.37411
0
LINE
8
BLACK
6
CONTINUOUS
10
5.33553
20
-3.37411
11
5.33366
21
-3.37599
0
LINE
8
BLACK
6
CONTINUOUS
10
5.33366
20
-3.37599
11
5.33294
21
-3.37649
0
LINE
8
BLACK
6
CONTINUOUS
10
5.33294
20
-3.37649
11
5.33289
21
-3.37654
0
LINE
8
BLACK
6
CONTINUOUS
10
5.33289
20
-3.37654
11
5.32914
21
-3.37841
0
LINE
8
BLACK
6
CONTINUOUS
10
5.32914
20
-3.37841
11
5.32816
21
-3.37871
0
LINE
8
BLACK
6
CONTINUOUS
10
5.32816
20
-3.37871
11
5.32799
21
-3.37867
0
LINE
8
BLACK
6
CONTINUOUS
10
5.32799
20
-3.37867
11
5.32786
21
-3.37871
0
LINE
8
BLACK
6
CONTINUOUS
10
5.32786
20
-3.37871
11
5.33774
21
-3.39283
0
LINE
8
BLACK
6
CONTINUOUS
10
5.33774
20
-3.39283
11
5.33817
21
-3.39376
0
LINE
8
BLACK
6
CONTINUOUS
10
5.33817
20
-3.39376
11
5.338
21
-3.39577
0
LINE
8
BLACK
6
CONTINUOUS
10
5.338
20
-3.39577
11
5.33657
21
-3.3972
0
LINE
8
BLACK
6
CONTINUOUS
10
5.33657
20
-3.3972
11
5.33456
21
-3.39737
0
LINE
8
BLACK
6
CONTINUOUS
10
5.33456
20
-3.39737
11
5.3329
21
-3.39621
0
LINE
8
BLACK
6
CONTINUOUS
10
5.3329
20
-3.39621
11
5.32066
21
-3.37873
0
LINE
8
BLACK
6
CONTINUOUS
10
5.32066
20
-3.37873
11
5.31578
21
-3.37873
0
LINE
8
BLACK
6
CONTINUOUS
10
5.31578
20
-3.37873
11
5.31578
21
-3.39452
0
LINE
8
BLACK
6
CONTINUOUS
10
5.31578
20
-3.39452
11
5.3156
21
-3.39553
0
LINE
8
BLACK
6
CONTINUOUS
10
5.3156
20
-3.39553
11
5.3143
21
-3.39708
0
LINE
8
BLACK
6
CONTINUOUS
10
5.3143
20
-3.39708
11
5.31231
21
-3.39743
0
LINE
8
BLACK
6
CONTINUOUS
10
5.31231
20
-3.39743
11
5.31056
21
-3.39642
0
LINE
8
BLACK
6
CONTINUOUS
10
5.31056
20
-3.39642
11
5.30987
21
-3.39452
0
LINE
8
BLACK
6
CONTINUOUS
10
5.30987
20
-3.39452
11
5.30987
21
-3.35515
0
LINE
8
BLACK
6
CONTINUOUS
10
5.30987
20
-3.35515
11
5.30994
21
-3.35477
0
LINE
8
BLACK
6
CONTINUOUS
10
5.30994
20
-3.35477
11
5.30992
21
-3.35464
0
LINE
8
BLACK
6
CONTINUOUS
10
5.30992
20
-3.35464
11
5.30998
21
-3.35452
0
LINE
8
BLACK
6
CONTINUOUS
10
5.30998
20
-3.35452
11
5.31005
21
-3.35414
0
LINE
8
BLACK
6
CONTINUOUS
10
5.31005
20
-3.35414
11
5.31054
21
-3.35355
0
LINE
8
BLACK
6
CONTINUOUS
10
5.31054
20
-3.35355
11
5.31093
21
-3.35289
0
LINE
8
BLACK
6
CONTINUOUS
10
5.31093
20
-3.35289
11
5.31118
21
-3.3528
0
LINE
8
BLACK
6
CONTINUOUS
10
5.31118
20
-3.3528
11
5.31135
21
-3.35259
0
LINE
8
BLACK
6
CONTINUOUS
10
5.31135
20
-3.35259
11
5.3121
21
-3.35246
0
LINE
8
BLACK
6
CONTINUOUS
10
5.3121
20
-3.35246
11
5.31282
21
-3.3522
0
LINE
8
BLACK
6
CONTINUOUS
10
5.31282
20
-3.3522
11
5.32782
21
-3.3522
0
LINE
8
BLACK
6
CONTINUOUS
10
5.32782
20
-3.3522
11
5.32883
21
-3.35238
0
LINE
8
BLACK
6
CONTINUOUS
10
5.31578
20
-3.37282
11
5.32712
21
-3.37282
0
LINE
8
BLACK
6
CONTINUOUS
10
5.32712
20
-3.37282
11
5.32982
21
-3.37147
0
LINE
8
BLACK
6
CONTINUOUS
10
5.32982
20
-3.37147
11
5.33102
21
-3.37027
0
LINE
8
BLACK
6
CONTINUOUS
10
5.33102
20
-3.37027
11
5.33237
21
-3.36758
0
LINE
8
BLACK
6
CONTINUOUS
10
5.33237
20
-3.36758
11
5.33237
21
-3.36335
0
LINE
8
BLACK
6
CONTINUOUS
10
5.33237
20
-3.36335
11
5.33102
21
-3.36065
0
LINE
8
BLACK
6
CONTINUOUS
10
5.33102
20
-3.36065
11
5.32982
21
-3.35945
0
LINE
8
BLACK
6
CONTINUOUS
10
5.32982
20
-3.35945
11
5.32712
21
-3.3581
0
LINE
8
BLACK
6
CONTINUOUS
10
5.32712
20
-3.3581
11
5.31578
21
-3.3581
0
LINE
8
BLACK
6
CONTINUOUS
10
5.31578
20
-3.3581
11
5.31578
21
-3.37282
0
LINE
8
BLACK
6
CONTINUOUS
10
5.41231
20
-3.35231
11
5.4127
21
-3.35224
0
LINE
8
BLACK
6
CONTINUOUS
10
5.4127
20
-3.35224
11
5.41326
21
-3.35256
0
LINE
8
BLACK
6
CONTINUOUS
10
5.41326
20
-3.35256
11
5.41388
21
-3.35273
0
LINE
8
BLACK
6
CONTINUOUS
10
5.41388
20
-3.35273
11
5.41411
21
-3.35306
0
LINE
8
BLACK
6
CONTINUOUS
10
5.41411
20
-3.35306
11
5.41445
21
-3.35325
0
LINE
8
BLACK
6
CONTINUOUS
10
5.41445
20
-3.35325
11
5.41467
21
-3.35386
0
LINE
8
BLACK
6
CONTINUOUS
10
5.41467
20
-3.35386
11
5.41504
21
-3.35439
0
LINE
8
BLACK
6
CONTINUOUS
10
5.41504
20
-3.35439
11
5.415
21
-3.35478
0
LINE
8
BLACK
6
CONTINUOUS
10
5.415
20
-3.35478
11
5.41514
21
-3.35515
0
LINE
8
BLACK
6
CONTINUOUS
10
5.41514
20
-3.35515
11
5.41514
21
-3.39452
0
LINE
8
BLACK
6
CONTINUOUS
10
5.41514
20
-3.39452
11
5.41496
21
-3.39553
0
LINE
8
BLACK
6
CONTINUOUS
10
5.41496
20
-3.39553
11
5.41366
21
-3.39708
0
LINE
8
BLACK
6
CONTINUOUS
10
5.41366
20
-3.39708
11
5.41167
21
-3.39743
0
LINE
8
BLACK
6
CONTINUOUS
10
5.41167
20
-3.39743
11
5.40992
21
-3.39642
0
LINE
8
BLACK
6
CONTINUOUS
10
5.40992
20
-3.39642
11
5.40923
21
-3.39452
0
LINE
8
BLACK
6
CONTINUOUS
10
5.40923
20
-3.39452
11
5.40923
21
-3.36846
0
LINE
8
BLACK
6
CONTINUOUS
10
5.40923
20
-3.36846
11
5.40174
21
-3.38452
0
LINE
8
BLACK
6
CONTINUOUS
10
5.40174
20
-3.38452
11
5.40152
21
-3.38484
0
LINE
8
BLACK
6
CONTINUOUS
10
5.40152
20
-3.38484
11
5.40148
21
-3.38496
0
LINE
8
BLACK
6
CONTINUOUS
10
5.40148
20
-3.38496
11
5.40137
21
-3.38504
0
LINE
8
BLACK
6
CONTINUOUS
10
5.40137
20
-3.38504
11
5.40115
21
-3.38536
0
LINE
8
BLACK
6
CONTINUOUS
10
5.40115
20
-3.38536
11
5.40046
21
-3.38568
0
LINE
8
BLACK
6
CONTINUOUS
10
5.40046
20
-3.38568
11
5.39983
21
-3.38612
0
LINE
8
BLACK
6
CONTINUOUS
10
5.39983
20
-3.38612
11
5.39956
21
-3.3861
0
LINE
8
BLACK
6
CONTINUOUS
10
5.39956
20
-3.3861
11
5.39932
21
-3.38621
0
LINE
8
BLACK
6
CONTINUOUS
10
5.39932
20
-3.38621
11
5.39858
21
-3.38601
0
LINE
8
BLACK
6
CONTINUOUS
10
5.39858
20
-3.38601
11
5.39782
21
-3.38595
0
LINE
8
BLACK
6
CONTINUOUS
10
5.39782
20
-3.38595
11
5.39763
21
-3.38576
0
LINE
8
BLACK
6
CONTINUOUS
10
5.39763
20
-3.38576
11
5.39737
21
-3.38569
0
LINE
8
BLACK
6
CONTINUOUS
10
5.39737
20
-3.38569
11
5.39693
21
-3.38506
0
LINE
8
BLACK
6
CONTINUOUS
10
5.39693
20
-3.38506
11
5.39639
21
-3.38452
0
LINE
8
BLACK
6
CONTINUOUS
10
5.39639
20
-3.38452
11
5.38889
21
-3.36846
0
LINE
8
BLACK
6
CONTINUOUS
10
5.38889
20
-3.36846
11
5.38889
21
-3.39452
0
LINE
8
BLACK
6
CONTINUOUS
10
5.38889
20
-3.39452
11
5.38871
21
-3.39553
0
LINE
8
BLACK
6
CONTINUOUS
10
5.38871
20
-3.39553
11
5.38742
21
-3.39708
0
LINE
8
BLACK
6
CONTINUOUS
10
5.38742
20
-3.39708
11
5.38543
21
-3.39743
0
LINE
8
BLACK
6
CONTINUOUS
10
5.38543
20
-3.39743
11
5.38368
21
-3.39642
0
LINE
8
BLACK
6
CONTINUOUS
10
5.38368
20
-3.39642
11
5.38299
21
-3.39452
0
LINE
8
BLACK
6
CONTINUOUS
10
5.38299
20
-3.39452
11
5.38299
21
-3.35515
0
LINE
8
BLACK
6
CONTINUOUS
10
5.38299
20
-3.35515
11
5.38316
21
-3.35414
0
LINE
8
BLACK
6
CONTINUOUS
10
5.38316
20
-3.35414
11
5.38342
21
-3.35384
0
LINE
8
BLACK
6
CONTINUOUS
10
5.38342
20
-3.35384
11
5.38352
21
-3.35346
0
LINE
8
BLACK
6
CONTINUOUS
10
5.38352
20
-3.35346
11
5.38405
21
-3.35309
0
LINE
8
BLACK
6
CONTINUOUS
10
5.38405
20
-3.35309
11
5.38446
21
-3.35259
0
LINE
8
BLACK
6
CONTINUOUS
10
5.38446
20
-3.35259
11
5.38485
21
-3.35252
0
LINE
8
BLACK
6
CONTINUOUS
10
5.38485
20
-3.35252
11
5.38517
21
-3.3523
0
LINE
8
BLACK
6
CONTINUOUS
10
5.38517
20
-3.3523
11
5.38582
21
-3.35235
0
LINE
8
BLACK
6
CONTINUOUS
10
5.38582
20
-3.35235
11
5.38645
21
-3.35224
0
LINE
8
BLACK
6
CONTINUOUS
10
5.38645
20
-3.35224
11
5.38679
21
-3.35244
0
LINE
8
BLACK
6
CONTINUOUS
10
5.38679
20
-3.35244
11
5.38719
21
-3.35247
0
LINE
8
BLACK
6
CONTINUOUS
10
5.38719
20
-3.35247
11
5.38764
21
-3.35293
0
LINE
8
BLACK
6
CONTINUOUS
10
5.38764
20
-3.35293
11
5.3882
21
-3.35325
0
LINE
8
BLACK
6
CONTINUOUS
10
5.3882
20
-3.35325
11
5.38834
21
-3.35362
0
LINE
8
BLACK
6
CONTINUOUS
10
5.38834
20
-3.35362
11
5.38861
21
-3.3539
0
LINE
8
BLACK
6
CONTINUOUS
10
5.38861
20
-3.3539
11
5.39906
21
-3.37629
0
LINE
8
BLACK
6
CONTINUOUS
10
5.39906
20
-3.37629
11
5.40951
21
-3.3539
0
LINE
8
BLACK
6
CONTINUOUS
10
5.40951
20
-3.3539
11
5.4101
21
-3.35306
0
LINE
8
BLACK
6
CONTINUOUS
10
5.4101
20
-3.35306
11
5.41046
21
-3.3529
0
LINE
8
BLACK
6
CONTINUOUS
10
5.41046
20
-3.3529
11
5.41071
21
-3.35259
0
LINE
8
BLACK
6
CONTINUOUS
10
5.41071
20
-3.35259
11
5.41134
21
-3.35248
0
LINE
8
BLACK
6
CONTINUOUS
10
5.41134
20
-3.35248
11
5.41193
21
-3.35221
0
LINE
8
BLACK
6
CONTINUOUS
10
5.41193
20
-3.35221
11
5.41231
21
-3.35231
0
LINE
8
BLACK
6
CONTINUOUS
10
5.62681
20
-3.33574
11
5.62687
21
-3.33573
0
LINE
8
BLACK
6
CONTINUOUS
10
5.62687
20
-3.33573
11
5.6325
21
-3.33761
0
LINE
8
BLACK
6
CONTINUOUS
10
5.6325
20
-3.33761
11
5.6334
21
-3.3381
0
LINE
8
BLACK
6
CONTINUOUS
10
5.6334
20
-3.3381
11
5.63446
21
-3.33982
0
LINE
8
BLACK
6
CONTINUOUS
10
5.63446
20
-3.33982
11
5.63416
21
-3.34182
0
LINE
8
BLACK
6
CONTINUOUS
10
5.63416
20
-3.34182
11
5.63265
21
-3.34316
0
LINE
8
BLACK
6
CONTINUOUS
10
5.63265
20
-3.34316
11
5.63063
21
-3.34321
0
LINE
8
BLACK
6
CONTINUOUS
10
5.63063
20
-3.34321
11
5.62546
21
-3.34149
0
LINE
8
BLACK
6
CONTINUOUS
10
5.62546
20
-3.34149
11
5.61726
21
-3.34149
0
LINE
8
BLACK
6
CONTINUOUS
10
5.61726
20
-3.34149
11
5.61456
21
-3.34284
0
LINE
8
BLACK
6
CONTINUOUS
10
5.61456
20
-3.34284
11
5.61337
21
-3.34403
0
LINE
8
BLACK
6
CONTINUOUS
10
5.61337
20
-3.34403
11
5.61202
21
-3.34673
0
LINE
8
BLACK
6
CONTINUOUS
10
5.61202
20
-3.34673
11
5.61202
21
-3.34909
0
LINE
8
BLACK
6
CONTINUOUS
10
5.61202
20
-3.34909
11
5.61337
21
-3.35179
0
LINE
8
BLACK
6
CONTINUOUS
10
5.61337
20
-3.35179
11
5.61456
21
-3.35298
0
LINE
8
BLACK
6
CONTINUOUS
10
5.61456
20
-3.35298
11
5.6176
21
-3.3545
0
LINE
8
BLACK
6
CONTINUOUS
10
5.6176
20
-3.3545
11
5.62478
21
-3.35629
0
LINE
8
BLACK
6
CONTINUOUS
10
5.62478
20
-3.35629
11
5.62525
21
-3.3565
0
LINE
8
BLACK
6
CONTINUOUS
10
5.62525
20
-3.3565
11
5.62538
21
-3.35652
0
LINE
8
BLACK
6
CONTINUOUS
10
5.62538
20
-3.35652
11
5.62913
21
-3.35839
0
LINE
8
BLACK
6
CONTINUOUS
10
5.62913
20
-3.35839
11
5.62984
21
-3.35892
0
LINE
8
BLACK
6
CONTINUOUS
10
5.62984
20
-3.35892
11
5.6299
21
-3.35895
0
LINE
8
BLACK
6
CONTINUOUS
10
5.6299
20
-3.35895
11
5.63178
21
-3.36082
0
LINE
8
BLACK
6
CONTINUOUS
10
5.63178
20
-3.36082
11
5.63228
21
-3.36154
0
LINE
8
BLACK
6
CONTINUOUS
10
5.63228
20
-3.36154
11
5.63233
21
-3.36159
0
LINE
8
BLACK
6
CONTINUOUS
10
5.63233
20
-3.36159
11
5.6342
21
-3.36534
0
LINE
8
BLACK
6
CONTINUOUS
10
5.6342
20
-3.36534
11
5.6345
21
-3.36632
0
LINE
8
BLACK
6
CONTINUOUS
10
5.6345
20
-3.36632
11
5.63446
21
-3.36649
0
LINE
8
BLACK
6
CONTINUOUS
10
5.63446
20
-3.36649
11
5.63452
21
-3.36666
0
LINE
8
BLACK
6
CONTINUOUS
10
5.63452
20
-3.36666
11
5.63452
21
-3.37041
0
LINE
8
BLACK
6
CONTINUOUS
10
5.63452
20
-3.37041
11
5.63434
21
-3.37142
0
LINE
8
BLACK
6
CONTINUOUS
10
5.63434
20
-3.37142
11
5.63422
21
-3.37155
0
LINE
8
BLACK
6
CONTINUOUS
10
5.63422
20
-3.37155
11
5.6342
21
-3.37173
0
LINE
8
BLACK
6
CONTINUOUS
10
5.6342
20
-3.37173
11
5.63233
21
-3.37548
0
LINE
8
BLACK
6
CONTINUOUS
10
5.63233
20
-3.37548
11
5.6318
21
-3.37619
0
LINE
8
BLACK
6
CONTINUOUS
10
5.6318
20
-3.37619
11
5.63178
21
-3.37624
0
LINE
8
BLACK
6
CONTINUOUS
10
5.63178
20
-3.37624
11
5.6299
21
-3.37812
0
LINE
8
BLACK
6
CONTINUOUS
10
5.6299
20
-3.37812
11
5.62918
21
-3.37863
0
LINE
8
BLACK
6
CONTINUOUS
10
5.62918
20
-3.37863
11
5.62913
21
-3.37867
0
LINE
8
BLACK
6
CONTINUOUS
10
5.62913
20
-3.37867
11
5.62538
21
-3.38055
0
LINE
8
BLACK
6
CONTINUOUS
10
5.62538
20
-3.38055
11
5.6244
21
-3.38084
0
LINE
8
BLACK
6
CONTINUOUS
10
5.6244
20
-3.38084
11
5.62423
21
-3.3808
0
LINE
8
BLACK
6
CONTINUOUS
10
5.62423
20
-3.3808
11
5.62406
21
-3.38086
0
LINE
8
BLACK
6
CONTINUOUS
10
5.62406
20
-3.38086
11
5.61469
21
-3.38086
0
LINE
8
BLACK
6
CONTINUOUS
10
5.61469
20
-3.38086
11
5.61382
21
-3.38071
0
LINE
8
BLACK
6
CONTINUOUS
10
5.61382
20
-3.38071
11
5.61376
21
-3.38071
0
LINE
8
BLACK
6
CONTINUOUS
10
5.61376
20
-3.38071
11
5.60813
21
-3.37883
0
LINE
8
BLACK
6
CONTINUOUS
10
5.60813
20
-3.37883
11
5.60723
21
-3.37834
0
LINE
8
BLACK
6
CONTINUOUS
10
5.60723
20
-3.37834
11
5.60617
21
-3.37662
0
LINE
8
BLACK
6
CONTINUOUS
10
5.60617
20
-3.37662
11
5.60647
21
-3.37463
0
LINE
8
BLACK
6
CONTINUOUS
10
5.60647
20
-3.37463
11
5.60798
21
-3.37329
0
LINE
8
BLACK
6
CONTINUOUS
10
5.60798
20
-3.37329
11
5.61
21
-3.37323
0
LINE
8
BLACK
6
CONTINUOUS
10
5.61
20
-3.37323
11
5.61517
21
-3.37495
0
LINE
8
BLACK
6
CONTINUOUS
10
5.61517
20
-3.37495
11
5.62337
21
-3.37495
0
LINE
8
BLACK
6
CONTINUOUS
10
5.62337
20
-3.37495
11
5.62606
21
-3.3736
0
LINE
8
BLACK
6
CONTINUOUS
10
5.62606
20
-3.3736
11
5.62726
21
-3.37241
0
LINE
8
BLACK
6
CONTINUOUS
10
5.62726
20
-3.37241
11
5.62861
21
-3.36971
0
LINE
8
BLACK
6
CONTINUOUS
10
5.62861
20
-3.36971
11
5.62861
21
-3.36735
0
LINE
8
BLACK
6
CONTINUOUS
10
5.62861
20
-3.36735
11
5.62726
21
-3.36466
0
LINE
8
BLACK
6
CONTINUOUS
10
5.62726
20
-3.36466
11
5.62606
21
-3.36346
0
LINE
8
BLACK
6
CONTINUOUS
10
5.62606
20
-3.36346
11
5.62303
21
-3.36194
0
LINE
8
BLACK
6
CONTINUOUS
10
5.62303
20
-3.36194
11
5.61585
21
-3.36015
0
LINE
8
BLACK
6
CONTINUOUS
10
5.61585
20
-3.36015
11
5.61538
21
-3.35994
0
LINE
8
BLACK
6
CONTINUOUS
10
5.61538
20
-3.35994
11
5.61524
21
-3.35992
0
LINE
8
BLACK
6
CONTINUOUS
10
5.61524
20
-3.35992
11
5.6115
21
-3.35805
0
LINE
8
BLACK
6
CONTINUOUS
10
5.6115
20
-3.35805
11
5.61079
21
-3.35752
0
LINE
8
BLACK
6
CONTINUOUS
10
5.61079
20
-3.35752
11
5.61073
21
-3.3575
0
LINE
8
BLACK
6
CONTINUOUS
10
5.61073
20
-3.3575
11
5.60885
21
-3.35562
0
LINE
8
BLACK
6
CONTINUOUS
10
5.60885
20
-3.35562
11
5.60835
21
-3.3549
0
LINE
8
BLACK
6
CONTINUOUS
10
5.60835
20
-3.3549
11
5.6083
21
-3.35485
0
LINE
8
BLACK
6
CONTINUOUS
10
5.6083
20
-3.35485
11
5.60643
21
-3.35111
0
LINE
8
BLACK
6
CONTINUOUS
10
5.60643
20
-3.35111
11
5.60613
21
-3.35012
0
LINE
8
BLACK
6
CONTINUOUS
10
5.60613
20
-3.35012
11
5.60617
21
-3.34995
0
LINE
8
BLACK
6
CONTINUOUS
10
5.60617
20
-3.34995
11
5.60611
21
-3.34978
0
LINE
8
BLACK
6
CONTINUOUS
10
5.60611
20
-3.34978
11
5.60611
21
-3.34604
0
LINE
8
BLACK
6
CONTINUOUS
10
5.60611
20
-3.34604
11
5.60629
21
-3.34503
0
LINE
8
BLACK
6
CONTINUOUS
10
5.60629
20
-3.34503
11
5.60641
21
-3.34489
0
LINE
8
BLACK
6
CONTINUOUS
10
5.60641
20
-3.34489
11
5.60643
21
-3.34471
0
LINE
8
BLACK
6
CONTINUOUS
10
5.60643
20
-3.34471
11
5.6083
21
-3.34097
0
LINE
8
BLACK
6
CONTINUOUS
10
5.6083
20
-3.34097
11
5.60883
21
-3.34026
0
LINE
8
BLACK
6
CONTINUOUS
10
5.60883
20
-3.34026
11
5.60885
21
-3.3402
0
LINE
8
BLACK
6
CONTINUOUS
10
5.60885
20
-3.3402
11
5.61073
21
-3.33832
0
LINE
8
BLACK
6
CONTINUOUS
10
5.61073
20
-3.33832
11
5.61145
21
-3.33782
0
LINE
8
BLACK
6
CONTINUOUS
10
5.61145
20
-3.33782
11
5.6115
21
-3.33777
0
LINE
8
BLACK
6
CONTINUOUS
10
5.6115
20
-3.33777
11
5.61524
21
-3.3359
0
LINE
8
BLACK
6
CONTINUOUS
10
5.61524
20
-3.3359
11
5.61623
21
-3.3356
0
LINE
8
BLACK
6
CONTINUOUS
10
5.61623
20
-3.3356
11
5.6164
21
-3.33564
0
LINE
8
BLACK
6
CONTINUOUS
10
5.6164
20
-3.33564
11
5.61657
21
-3.33558
0
LINE
8
BLACK
6
CONTINUOUS
10
5.61657
20
-3.33558
11
5.62594
21
-3.33558
0
LINE
8
BLACK
6
CONTINUOUS
10
5.62594
20
-3.33558
11
5.62681
21
-3.33574
0
LINE
8
BLACK
6
CONTINUOUS
10
5.6643
20
-3.33574
11
5.66437
21
-3.33573
0
LINE
8
BLACK
6
CONTINUOUS
10
5.66437
20
-3.33573
11
5.66999
21
-3.33761
0
LINE
8
BLACK
6
CONTINUOUS
10
5.66999
20
-3.33761
11
5.67089
21
-3.3381
0
LINE
8
BLACK
6
CONTINUOUS
10
5.67089
20
-3.3381
11
5.67099
21
-3.33825
0
LINE
8
BLACK
6
CONTINUOUS
10
5.67099
20
-3.33825
11
5.67115
21
-3.33832
0
LINE
8
BLACK
6
CONTINUOUS
10
5.67115
20
-3.33832
11
5.67302
21
-3.3402
0
LINE
8
BLACK
6
CONTINUOUS
10
5.67302
20
-3.3402
11
5.67361
21
-3.34104
0
LINE
8
BLACK
6
CONTINUOUS
10
5.67361
20
-3.34104
11
5.67379
21
-3.34305
0
LINE
8
BLACK
6
CONTINUOUS
10
5.67379
20
-3.34305
11
5.67263
21
-3.3447
0
LINE
8
BLACK
6
CONTINUOUS
10
5.67263
20
-3.3447
11
5.67068
21
-3.34523
0
LINE
8
BLACK
6
CONTINUOUS
10
5.67068
20
-3.34523
11
5.66885
21
-3.34437
0
LINE
8
BLACK
6
CONTINUOUS
10
5.66885
20
-3.34437
11
5.66746
21
-3.34299
0
LINE
8
BLACK
6
CONTINUOUS
10
5.66746
20
-3.34299
11
5.66296
21
-3.34149
0
LINE
8
BLACK
6
CONTINUOUS
10
5.66296
20
-3.34149
11
5.66016
21
-3.34149
0
LINE
8
BLACK
6
CONTINUOUS
10
5.66016
20
-3.34149
11
5.65566
21
-3.34299
0
LINE
8
BLACK
6
CONTINUOUS
10
5.65566
20
-3.34299
11
5.65274
21
-3.34591
0
LINE
8
BLACK
6
CONTINUOUS
10
5.65274
20
-3.34591
11
5.65122
21
-3.34894
0
LINE
8
BLACK
6
CONTINUOUS
10
5.65122
20
-3.34894
11
5.64951
21
-3.35577
0
LINE
8
BLACK
6
CONTINUOUS
10
5.64951
20
-3.35577
11
5.64951
21
-3.36067
0
LINE
8
BLACK
6
CONTINUOUS
10
5.64951
20
-3.36067
11
5.65122
21
-3.3675
0
LINE
8
BLACK
6
CONTINUOUS
10
5.65122
20
-3.3675
11
5.65274
21
-3.37053
0
LINE
8
BLACK
6
CONTINUOUS
10
5.65274
20
-3.37053
11
5.65566
21
-3.37345
0
LINE
8
BLACK
6
CONTINUOUS
10
5.65566
20
-3.37345
11
5.66016
21
-3.37495
0
LINE
8
BLACK
6
CONTINUOUS
10
5.66016
20
-3.37495
11
5.66296
21
-3.37495
0
LINE
8
BLACK
6
CONTINUOUS
10
5.66296
20
-3.37495
11
5.66746
21
-3.37345
0
LINE
8
BLACK
6
CONTINUOUS
10
5.66746
20
-3.37345
11
5.66885
21
-3.37207
0
LINE
8
BLACK
6
CONTINUOUS
10
5.66885
20
-3.37207
11
5.66969
21
-3.37148
0
LINE
8
BLACK
6
CONTINUOUS
10
5.66969
20
-3.37148
11
5.6717
21
-3.3713
0
LINE
8
BLACK
6
CONTINUOUS
10
5.6717
20
-3.3713
11
5.67335
21
-3.37246
0
LINE
8
BLACK
6
CONTINUOUS
10
5.67335
20
-3.37246
11
5.67388
21
-3.37441
0
LINE
8
BLACK
6
CONTINUOUS
10
5.67388
20
-3.37441
11
5.67302
21
-3.37624
0
LINE
8
BLACK
6
CONTINUOUS
10
5.67302
20
-3.37624
11
5.67115
21
-3.37812
0
LINE
8
BLACK
6
CONTINUOUS
10
5.67115
20
-3.37812
11
5.67031
21
-3.37871
0
LINE
8
BLACK
6
CONTINUOUS
10
5.67031
20
-3.37871
11
5.67013
21
-3.37872
0
LINE
8
BLACK
6
CONTINUOUS
10
5.67013
20
-3.37872
11
5.66999
21
-3.37883
0
LINE
8
BLACK
6
CONTINUOUS
10
5.66999
20
-3.37883
11
5.66437
21
-3.38071
0
LINE
8
BLACK
6
CONTINUOUS
10
5.66437
20
-3.38071
11
5.6635
21
-3.38084
0
LINE
8
BLACK
6
CONTINUOUS
10
5.6635
20
-3.38084
11
5.66343
21
-3.38086
0
LINE
8
BLACK
6
CONTINUOUS
10
5.66343
20
-3.38086
11
5.65969
21
-3.38086
0
LINE
8
BLACK
6
CONTINUOUS
10
5.65969
20
-3.38086
11
5.65882
21
-3.38071
0
LINE
8
BLACK
6
CONTINUOUS
10
5.65882
20
-3.38071
11
5.65875
21
-3.38071
0
LINE
8
BLACK
6
CONTINUOUS
10
5.65875
20
-3.38071
11
5.65313
21
-3.37883
0
LINE
8
BLACK
6
CONTINUOUS
10
5.65313
20
-3.37883
11
5.65223
21
-3.37834
0
LINE
8
BLACK
6
CONTINUOUS
10
5.65223
20
-3.37834
11
5.65213
21
-3.37819
0
LINE
8
BLACK
6
CONTINUOUS
10
5.65213
20
-3.37819
11
5.65197
21
-3.37812
0
LINE
8
BLACK
6
CONTINUOUS
10
5.65197
20
-3.37812
11
5.64822
21
-3.37437
0
LINE
8
BLACK
6
CONTINUOUS
10
5.64822
20
-3.37437
11
5.64772
21
-3.37365
0
LINE
8
BLACK
6
CONTINUOUS
10
5.64772
20
-3.37365
11
5.64767
21
-3.3736
0
LINE
8
BLACK
6
CONTINUOUS
10
5.64767
20
-3.3736
11
5.6458
21
-3.36985
0
LINE
8
BLACK
6
CONTINUOUS
10
5.6458
20
-3.36985
11
5.64565
21
-3.36936
0
LINE
8
BLACK
6
CONTINUOUS
10
5.64565
20
-3.36936
11
5.64557
21
-3.36925
0
LINE
8
BLACK
6
CONTINUOUS
10
5.64557
20
-3.36925
11
5.6437
21
-3.36175
0
LINE
8
BLACK
6
CONTINUOUS
10
5.6437
20
-3.36175
11
5.64366
21
-3.36116
0
LINE
8
BLACK
6
CONTINUOUS
10
5.64366
20
-3.36116
11
5.64361
21
-3.36103
0
LINE
8
BLACK
6
CONTINUOUS
10
5.64361
20
-3.36103
11
5.64361
21
-3.35541
0
LINE
8
BLACK
6
CONTINUOUS
10
5.64361
20
-3.35541
11
5.64371
21
-3.35483
0
LINE
8
BLACK
6
CONTINUOUS
10
5.64371
20
-3.35483
11
5.6437
21
-3.35469
0
LINE
8
BLACK
6
CONTINUOUS
10
5.6437
20
-3.35469
11
5.64557
21
-3.34719
0
LINE
8
BLACK
6
CONTINUOUS
10
5.64557
20
-3.34719
11
5.64578
21
-3.34673
0
LINE
8
BLACK
6
CONTINUOUS
10
5.64578
20
-3.34673
11
5.6458
21
-3.34659
0
LINE
8
BLACK
6
CONTINUOUS
10
5.6458
20
-3.34659
11
5.64767
21
-3.34284
0
LINE
8
BLACK
6
CONTINUOUS
10
5.64767
20
-3.34284
11
5.6482
21
-3.34213
0
LINE
8
BLACK
6
CONTINUOUS
10
5.6482
20
-3.34213
11
5.64822
21
-3.34207
0
LINE
8
BLACK
6
CONTINUOUS
10
5.64822
20
-3.34207
11
5.65197
21
-3.33832
0
LINE
8
BLACK
6
CONTINUOUS
10
5.65197
20
-3.33832
11
5.65281
21
-3.33773
0
LINE
8
BLACK
6
CONTINUOUS
10
5.65281
20
-3.33773
11
5.65299
21
-3.33772
0
LINE
8
BLACK
6
CONTINUOUS
10
5.65299
20
-3.33772
11
5.65313
21
-3.33761
0
LINE
8
BLACK
6
CONTINUOUS
10
5.65313
20
-3.33761
11
5.65875
21
-3.33573
0
LINE
8
BLACK
6
CONTINUOUS
10
5.65875
20
-3.33573
11
5.65962
21
-3.33561
0
LINE
8
BLACK
6
CONTINUOUS
10
5.65962
20
-3.33561
11
5.65969
21
-3.33558
0
LINE
8
BLACK
6
CONTINUOUS
10
5.65969
20
-3.33558
11
5.66343
21
-3.33558
0
LINE
8
BLACK
6
CONTINUOUS
10
5.66343
20
-3.33558
11
5.6643
21
-3.33574
0
LINE
8
BLACK
6
CONTINUOUS
10
5.96726
20
-3.32576
11
5.96739
21
-3.32587
0
LINE
8
BLACK
6
CONTINUOUS
10
5.96739
20
-3.32587
11
5.96757
21
-3.3259
0
LINE
8
BLACK
6
CONTINUOUS
10
5.96757
20
-3.3259
11
5.97132
21
-3.32777
0
LINE
8
BLACK
6
CONTINUOUS
10
5.97132
20
-3.32777
11
5.97203
21
-3.3283
0
LINE
8
BLACK
6
CONTINUOUS
10
5.97203
20
-3.3283
11
5.97208
21
-3.32832
0
LINE
8
BLACK
6
CONTINUOUS
10
5.97208
20
-3.32832
11
5.97583
21
-3.33207
0
LINE
8
BLACK
6
CONTINUOUS
10
5.97583
20
-3.33207
11
5.97642
21
-3.33291
0
LINE
8
BLACK
6
CONTINUOUS
10
5.97642
20
-3.33291
11
5.97645
21
-3.3332
0
LINE
8
BLACK
6
CONTINUOUS
10
5.97645
20
-3.3332
11
5.97661
21
-3.33344
0
LINE
8
BLACK
6
CONTINUOUS
10
5.97661
20
-3.33344
11
5.97849
21
-3.34094
0
LINE
8
BLACK
6
CONTINUOUS
10
5.97849
20
-3.34094
11
5.97853
21
-3.34153
0
LINE
8
BLACK
6
CONTINUOUS
10
5.97853
20
-3.34153
11
5.97857
21
-3.34166
0
LINE
8
BLACK
6
CONTINUOUS
10
5.97857
20
-3.34166
11
5.97857
21
-3.35478
0
LINE
8
BLACK
6
CONTINUOUS
10
5.97857
20
-3.35478
11
5.97847
21
-3.35536
0
LINE
8
BLACK
6
CONTINUOUS
10
5.97847
20
-3.35536
11
5.97849
21
-3.3555
0
LINE
8
BLACK
6
CONTINUOUS
10
5.97849
20
-3.3555
11
5.97661
21
-3.363
0
LINE
8
BLACK
6
CONTINUOUS
10
5.97661
20
-3.363
11
5.97619
21
-3.36393
0
LINE
8
BLACK
6
CONTINUOUS
10
5.97619
20
-3.36393
11
5.97596
21
-3.36411
0
LINE
8
BLACK
6
CONTINUOUS
10
5.97596
20
-3.36411
11
5.97583
21
-3.36437
0
LINE
8
BLACK
6
CONTINUOUS
10
5.97583
20
-3.36437
11
5.97208
21
-3.36812
0
LINE
8
BLACK
6
CONTINUOUS
10
5.97208
20
-3.36812
11
5.97136
21
-3.36863
0
LINE
8
BLACK
6
CONTINUOUS
10
5.97136
20
-3.36863
11
5.97132
21
-3.36867
0
LINE
8
BLACK
6
CONTINUOUS
10
5.97132
20
-3.36867
11
5.96757
21
-3.37055
0
LINE
8
BLACK
6
CONTINUOUS
10
5.96757
20
-3.37055
11
5.96658
21
-3.37084
0
LINE
8
BLACK
6
CONTINUOUS
10
5.96658
20
-3.37084
11
5.96641
21
-3.3708
0
LINE
8
BLACK
6
CONTINUOUS
10
5.96641
20
-3.3708
11
5.96625
21
-3.37086
0
LINE
8
BLACK
6
CONTINUOUS
10
5.96625
20
-3.37086
11
5.95875
21
-3.37086
0
LINE
8
BLACK
6
CONTINUOUS
10
5.95875
20
-3.37086
11
5.95774
21
-3.37068
0
LINE
8
BLACK
6
CONTINUOUS
10
5.95774
20
-3.37068
11
5.9576
21
-3.37057
0
LINE
8
BLACK
6
CONTINUOUS
10
5.9576
20
-3.37057
11
5.95743
21
-3.37055
0
LINE
8
BLACK
6
CONTINUOUS
10
5.95743
20
-3.37055
11
5.95368
21
-3.36867
0
LINE
8
BLACK
6
CONTINUOUS
10
5.95368
20
-3.36867
11
5.95297
21
-3.36815
0
LINE
8
BLACK
6
CONTINUOUS
10
5.95297
20
-3.36815
11
5.95291
21
-3.36812
0
LINE
8
BLACK
6
CONTINUOUS
10
5.95291
20
-3.36812
11
5.94916
21
-3.36437
0
LINE
8
BLACK
6
CONTINUOUS
10
5.94916
20
-3.36437
11
5.94857
21
-3.36353
0
LINE
8
BLACK
6
CONTINUOUS
10
5.94857
20
-3.36353
11
5.94855
21
-3.36324
0
LINE
8
BLACK
6
CONTINUOUS
10
5.94855
20
-3.36324
11
5.94838
21
-3.363
0
LINE
8
BLACK
6
CONTINUOUS
10
5.94838
20
-3.363
11
5.94651
21
-3.3555
0
LINE
8
BLACK
6
CONTINUOUS
10
5.94651
20
-3.3555
11
5.94647
21
-3.35491
0
LINE
8
BLACK
6
CONTINUOUS
10
5.94647
20
-3.35491
11
5.94642
21
-3.35478
0
LINE
8
BLACK
6
CONTINUOUS
10
5.94642
20
-3.35478
11
5.94642
21
-3.34166
0
LINE
8
BLACK
6
CONTINUOUS
10
5.94642
20
-3.34166
11
5.94652
21
-3.34108
0
LINE
8
BLACK
6
CONTINUOUS
10
5.94652
20
-3.34108
11
5.94651
21
-3.34094
0
LINE
8
BLACK
6
CONTINUOUS
10
5.94651
20
-3.34094
11
5.94838
21
-3.33344
0
LINE
8
BLACK
6
CONTINUOUS
10
5.94838
20
-3.33344
11
5.9488
21
-3.33251
0
LINE
8
BLACK
6
CONTINUOUS
10
5.9488
20
-3.33251
11
5.94904
21
-3.33234
0
LINE
8
BLACK
6
CONTINUOUS
10
5.94904
20
-3.33234
11
5.94916
21
-3.33207
0
LINE
8
BLACK
6
CONTINUOUS
10
5.94916
20
-3.33207
11
5.95291
21
-3.32832
0
LINE
8
BLACK
6
CONTINUOUS
10
5.95291
20
-3.32832
11
5.95363
21
-3.32782
0
LINE
8
BLACK
6
CONTINUOUS
10
5.95363
20
-3.32782
11
5.95368
21
-3.32777
0
LINE
8
BLACK
6
CONTINUOUS
10
5.95368
20
-3.32777
11
5.95743
21
-3.3259
0
LINE
8
BLACK
6
CONTINUOUS
10
5.95743
20
-3.3259
11
5.95841
21
-3.3256
0
LINE
8
BLACK
6
CONTINUOUS
10
5.95841
20
-3.3256
11
5.95858
21
-3.32564
0
LINE
8
BLACK
6
CONTINUOUS
10
5.95858
20
-3.32564
11
5.95875
21
-3.32558
0
LINE
8
BLACK
6
CONTINUOUS
10
5.95875
20
-3.32558
11
5.96625
21
-3.32558
0
LINE
8
BLACK
6
CONTINUOUS
10
5.96625
20
-3.32558
11
5.96726
21
-3.32576
0
LINE
8
BLACK
6
CONTINUOUS
10
5.95675
20
-3.33284
11
5.95391
21
-3.33567
0
LINE
8
BLACK
6
CONTINUOUS
10
5.95391
20
-3.33567
11
5.95233
21
-3.34202
0
LINE
8
BLACK
6
CONTINUOUS
10
5.95233
20
-3.34202
11
5.95233
21
-3.35442
0
LINE
8
BLACK
6
CONTINUOUS
10
5.95233
20
-3.35442
11
5.95391
21
-3.36077
0
LINE
8
BLACK
6
CONTINUOUS
10
5.95391
20
-3.36077
11
5.95675
21
-3.3636
0
LINE
8
BLACK
6
CONTINUOUS
10
5.95675
20
-3.3636
11
5.95944
21
-3.36495
0
LINE
8
BLACK
6
CONTINUOUS
10
5.95944
20
-3.36495
11
5.96555
21
-3.36495
0
LINE
8
BLACK
6
CONTINUOUS
10
5.96555
20
-3.36495
11
5.96825
21
-3.3636
0
LINE
8
BLACK
6
CONTINUOUS
10
5.96825
20
-3.3636
11
5.97108
21
-3.36077
0
LINE
8
BLACK
6
CONTINUOUS
10
5.97108
20
-3.36077
11
5.97267
21
-3.35442
0
LINE
8
BLACK
6
CONTINUOUS
10
5.97267
20
-3.35442
11
5.97267
21
-3.34202
0
LINE
8
BLACK
6
CONTINUOUS
10
5.97267
20
-3.34202
11
5.97108
21
-3.33567
0
LINE
8
BLACK
6
CONTINUOUS
10
5.97108
20
-3.33567
11
5.96825
21
-3.33284
0
LINE
8
BLACK
6
CONTINUOUS
10
5.96825
20
-3.33284
11
5.96555
21
-3.33149
0
LINE
8
BLACK
6
CONTINUOUS
10
5.96555
20
-3.33149
11
5.95944
21
-3.33149
0
LINE
8
BLACK
6
CONTINUOUS
10
5.95944
20
-3.33149
11
5.95675
21
-3.33284
0
LINE
8
BLACK
6
CONTINUOUS
10
5.93263
20
-3.3257
11
5.93301
21
-3.32563
0
LINE
8
BLACK
6
CONTINUOUS
10
5.93301
20
-3.32563
11
5.93357
21
-3.32595
0
LINE
8
BLACK
6
CONTINUOUS
10
5.93357
20
-3.32595
11
5.9342
21
-3.32612
0
LINE
8
BLACK
6
CONTINUOUS
10
5.9342
20
-3.32612
11
5.93442
21
-3.32644
0
LINE
8
BLACK
6
CONTINUOUS
10
5.93442
20
-3.32644
11
5.93476
21
-3.32664
0
LINE
8
BLACK
6
CONTINUOUS
10
5.93476
20
-3.32664
11
5.93498
21
-3.32724
0
LINE
8
BLACK
6
CONTINUOUS
10
5.93498
20
-3.32724
11
5.93535
21
-3.32777
0
LINE
8
BLACK
6
CONTINUOUS
10
5.93535
20
-3.32777
11
5.93532
21
-3.32817
0
LINE
8
BLACK
6
CONTINUOUS
10
5.93532
20
-3.32817
11
5.93545
21
-3.32854
0
LINE
8
BLACK
6
CONTINUOUS
10
5.93545
20
-3.32854
11
5.93545
21
-3.36791
0
LINE
8
BLACK
6
CONTINUOUS
10
5.93545
20
-3.36791
11
5.93528
21
-3.36892
0
LINE
8
BLACK
6
CONTINUOUS
10
5.93528
20
-3.36892
11
5.93398
21
-3.37046
0
LINE
8
BLACK
6
CONTINUOUS
10
5.93398
20
-3.37046
11
5.93199
21
-3.37081
0
LINE
8
BLACK
6
CONTINUOUS
10
5.93199
20
-3.37081
11
5.93024
21
-3.3698
0
LINE
8
BLACK
6
CONTINUOUS
10
5.93024
20
-3.3698
11
5.92955
21
-3.36791
0
LINE
8
BLACK
6
CONTINUOUS
10
5.92955
20
-3.36791
11
5.92955
21
-3.34185
0
LINE
8
BLACK
6
CONTINUOUS
10
5.92955
20
-3.34185
11
5.92205
21
-3.35791
0
LINE
8
BLACK
6
CONTINUOUS
10
5.92205
20
-3.35791
11
5.92183
21
-3.35822
0
LINE
8
BLACK
6
CONTINUOUS
10
5.92183
20
-3.35822
11
5.9218
21
-3.35835
0
LINE
8
BLACK
6
CONTINUOUS
10
5.9218
20
-3.35835
11
5.92169
21
-3.35843
0
LINE
8
BLACK
6
CONTINUOUS
10
5.92169
20
-3.35843
11
5.92146
21
-3.35875
0
LINE
8
BLACK
6
CONTINUOUS
10
5.92146
20
-3.35875
11
5.92077
21
-3.35907
0
LINE
8
BLACK
6
CONTINUOUS
10
5.92077
20
-3.35907
11
5.92014
21
-3.35951
0
LINE
8
BLACK
6
CONTINUOUS
10
5.92014
20
-3.35951
11
5.91988
21
-3.35949
0
LINE
8
BLACK
6
CONTINUOUS
10
5.91988
20
-3.35949
11
5.91963
21
-3.3596
0
LINE
8
BLACK
6
CONTINUOUS
10
5.91963
20
-3.3596
11
5.91889
21
-3.3594
0
LINE
8
BLACK
6
CONTINUOUS
10
5.91889
20
-3.3594
11
5.91813
21
-3.35933
0
LINE
8
BLACK
6
CONTINUOUS
10
5.91813
20
-3.35933
11
5.91794
21
-3.35915
0
LINE
8
BLACK
6
CONTINUOUS
10
5.91794
20
-3.35915
11
5.91768
21
-3.35908
0
LINE
8
BLACK
6
CONTINUOUS
10
5.91768
20
-3.35908
11
5.91724
21
-3.35845
0
LINE
8
BLACK
6
CONTINUOUS
10
5.91724
20
-3.35845
11
5.9167
21
-3.35791
0
LINE
8
BLACK
6
CONTINUOUS
10
5.9167
20
-3.35791
11
5.90921
21
-3.34185
0
LINE
8
BLACK
6
CONTINUOUS
10
5.90921
20
-3.34185
11
5.90921
21
-3.36791
0
LINE
8
BLACK
6
CONTINUOUS
10
5.90921
20
-3.36791
11
5.90903
21
-3.36892
0
LINE
8
BLACK
6
CONTINUOUS
10
5.90903
20
-3.36892
11
5.90773
21
-3.37046
0
LINE
8
BLACK
6
CONTINUOUS
10
5.90773
20
-3.37046
11
5.90574
21
-3.37081
0
LINE
8
BLACK
6
CONTINUOUS
10
5.90574
20
-3.37081
11
5.90399
21
-3.3698
0
LINE
8
BLACK
6
CONTINUOUS
10
5.90399
20
-3.3698
11
5.9033
21
-3.36791
0
LINE
8
BLACK
6
CONTINUOUS
10
5.9033
20
-3.36791
11
5.9033
21
-3.32854
0
LINE
8
BLACK
6
CONTINUOUS
10
5.9033
20
-3.32854
11
5.90348
21
-3.32753
0
LINE
8
BLACK
6
CONTINUOUS
10
5.90348
20
-3.32753
11
5.90373
21
-3.32722
0
LINE
8
BLACK
6
CONTINUOUS
10
5.90373
20
-3.32722
11
5.90383
21
-3.32684
0
LINE
8
BLACK
6
CONTINUOUS
10
5.90383
20
-3.32684
11
5.90436
21
-3.32647
0
LINE
8
BLACK
6
CONTINUOUS
10
5.90436
20
-3.32647
11
5.90478
21
-3.32598
0
LINE
8
BLACK
6
CONTINUOUS
10
5.90478
20
-3.32598
11
5.90517
21
-3.32591
0
LINE
8
BLACK
6
CONTINUOUS
10
5.90517
20
-3.32591
11
5.90549
21
-3.32568
0
LINE
8
BLACK
6
CONTINUOUS
10
5.90549
20
-3.32568
11
5.90613
21
-3.32574
0
LINE
8
BLACK
6
CONTINUOUS
10
5.90613
20
-3.32574
11
5.90677
21
-3.32563
0
LINE
8
BLACK
6
CONTINUOUS
10
5.90677
20
-3.32563
11
5.90711
21
-3.32583
0
LINE
8
BLACK
6
CONTINUOUS
10
5.90711
20
-3.32583
11
5.9075
21
-3.32586
0
LINE
8
BLACK
6
CONTINUOUS
10
5.9075
20
-3.32586
11
5.90796
21
-3.32632
0
LINE
8
BLACK
6
CONTINUOUS
10
5.90796
20
-3.32632
11
5.90852
21
-3.32664
0
LINE
8
BLACK
6
CONTINUOUS
10
5.90852
20
-3.32664
11
5.90865
21
-3.32701
0
LINE
8
BLACK
6
CONTINUOUS
10
5.90865
20
-3.32701
11
5.90893
21
-3.32729
0
LINE
8
BLACK
6
CONTINUOUS
10
5.90893
20
-3.32729
11
5.91938
21
-3.34968
0
LINE
8
BLACK
6
CONTINUOUS
10
5.91938
20
-3.34968
11
5.92983
21
-3.32729
0
LINE
8
BLACK
6
CONTINUOUS
10
5.92983
20
-3.32729
11
5.93041
21
-3.32645
0
LINE
8
BLACK
6
CONTINUOUS
10
5.93041
20
-3.32645
11
5.93077
21
-3.32628
0
LINE
8
BLACK
6
CONTINUOUS
10
5.93077
20
-3.32628
11
5.93102
21
-3.32598
0
LINE
8
BLACK
6
CONTINUOUS
10
5.93102
20
-3.32598
11
5.93166
21
-3.32587
0
LINE
8
BLACK
6
CONTINUOUS
10
5.93166
20
-3.32587
11
5.93224
21
-3.32559
0
LINE
8
BLACK
6
CONTINUOUS
10
5.93224
20
-3.32559
11
5.93263
21
-3.3257
0
LINE
8
BLACK
6
CONTINUOUS
10
5.9568
20
-3.22574
11
5.95687
21
-3.22573
0
LINE
8
BLACK
6
CONTINUOUS
10
5.95687
20
-3.22573
11
5.96249
21
-3.22761
0
LINE
8
BLACK
6
CONTINUOUS
10
5.96249
20
-3.22761
11
5.9634
21
-3.2281
0
LINE
8
BLACK
6
CONTINUOUS
10
5.9634
20
-3.2281
11
5.96349
21
-3.22825
0
LINE
8
BLACK
6
CONTINUOUS
10
5.96349
20
-3.22825
11
5.96365
21
-3.22832
0
LINE
8
BLACK
6
CONTINUOUS
10
5.96365
20
-3.22832
11
5.9674
21
-3.23207
0
LINE
8
BLACK
6
CONTINUOUS
10
5.9674
20
-3.23207
11
5.9679
21
-3.2328
0
LINE
8
BLACK
6
CONTINUOUS
10
5.9679
20
-3.2328
11
5.96795
21
-3.23284
0
LINE
8
BLACK
6
CONTINUOUS
10
5.96795
20
-3.23284
11
5.96983
21
-3.23659
0
LINE
8
BLACK
6
CONTINUOUS
10
5.96983
20
-3.23659
11
5.96997
21
-3.23708
0
LINE
8
BLACK
6
CONTINUOUS
10
5.96997
20
-3.23708
11
5.97005
21
-3.23719
0
LINE
8
BLACK
6
CONTINUOUS
10
5.97005
20
-3.23719
11
5.97192
21
-3.24469
0
LINE
8
BLACK
6
CONTINUOUS
10
5.97192
20
-3.24469
11
5.97196
21
-3.24528
0
LINE
8
BLACK
6
CONTINUOUS
10
5.97196
20
-3.24528
11
5.97201
21
-3.24541
0
LINE
8
BLACK
6
CONTINUOUS
10
5.97201
20
-3.24541
11
5.97201
21
-3.25103
0
LINE
8
BLACK
6
CONTINUOUS
10
5.97201
20
-3.25103
11
5.97191
21
-3.25161
0
LINE
8
BLACK
6
CONTINUOUS
10
5.97191
20
-3.25161
11
5.97192
21
-3.25175
0
LINE
8
BLACK
6
CONTINUOUS
10
5.97192
20
-3.25175
11
5.97005
21
-3.25925
0
LINE
8
BLACK
6
CONTINUOUS
10
5.97005
20
-3.25925
11
5.96984
21
-3.25971
0
LINE
8
BLACK
6
CONTINUOUS
10
5.96984
20
-3.25971
11
5.96983
21
-3.25985
0
LINE
8
BLACK
6
CONTINUOUS
10
5.96983
20
-3.25985
11
5.96795
21
-3.2636
0
LINE
8
BLACK
6
CONTINUOUS
10
5.96795
20
-3.2636
11
5.96742
21
-3.26431
0
LINE
8
BLACK
6
CONTINUOUS
10
5.96742
20
-3.26431
11
5.9674
21
-3.26437
0
LINE
8
BLACK
6
CONTINUOUS
10
5.9674
20
-3.26437
11
5.96365
21
-3.26812
0
LINE
8
BLACK
6
CONTINUOUS
10
5.96365
20
-3.26812
11
5.96281
21
-3.26871
0
LINE
8
BLACK
6
CONTINUOUS
10
5.96281
20
-3.26871
11
5.96263
21
-3.26872
0
LINE
8
BLACK
6
CONTINUOUS
10
5.96263
20
-3.26872
11
5.96249
21
-3.26883
0
LINE
8
BLACK
6
CONTINUOUS
10
5.96249
20
-3.26883
11
5.95687
21
-3.27071
0
LINE
8
BLACK
6
CONTINUOUS
10
5.95687
20
-3.27071
11
5.956
21
-3.27084
0
LINE
8
BLACK
6
CONTINUOUS
10
5.956
20
-3.27084
11
5.95594
21
-3.27086
0
LINE
8
BLACK
6
CONTINUOUS
10
5.95594
20
-3.27086
11
5.94656
21
-3.27086
0
LINE
8
BLACK
6
CONTINUOUS
10
5.94656
20
-3.27086
11
5.94618
21
-3.27079
0
LINE
8
BLACK
6
CONTINUOUS
10
5.94618
20
-3.27079
11
5.94605
21
-3.27081
0
LINE
8
BLACK
6
CONTINUOUS
10
5.94605
20
-3.27081
11
5.94594
21
-3.27075
0
LINE
8
BLACK
6
CONTINUOUS
10
5.94594
20
-3.27075
11
5.94555
21
-3.27068
0
LINE
8
BLACK
6
CONTINUOUS
10
5.94555
20
-3.27068
11
5.94496
21
-3.27019
0
LINE
8
BLACK
6
CONTINUOUS
10
5.94496
20
-3.27019
11
5.9443
21
-3.2698
0
LINE
8
BLACK
6
CONTINUOUS
10
5.9443
20
-3.2698
11
5.94421
21
-3.26955
0
LINE
8
BLACK
6
CONTINUOUS
10
5.94421
20
-3.26955
11
5.944
21
-3.26938
0
LINE
8
BLACK
6
CONTINUOUS
10
5.944
20
-3.26938
11
5.94387
21
-3.26863
0
LINE
8
BLACK
6
CONTINUOUS
10
5.94387
20
-3.26863
11
5.94361
21
-3.26791
0
LINE
8
BLACK
6
CONTINUOUS
10
5.94361
20
-3.26791
11
5.94361
21
-3.22854
0
LINE
8
BLACK
6
CONTINUOUS
10
5.94361
20
-3.22854
11
5.94368
21
-3.22815
0
LINE
8
BLACK
6
CONTINUOUS
10
5.94368
20
-3.22815
11
5.94365
21
-3.22802
0
LINE
8
BLACK
6
CONTINUOUS
10
5.94365
20
-3.22802
11
5.94372
21
-3.22791
0
LINE
8
BLACK
6
CONTINUOUS
10
5.94372
20
-3.22791
11
5.94379
21
-3.22753
0
LINE
8
BLACK
6
CONTINUOUS
10
5.94379
20
-3.22753
11
5.94428
21
-3.22694
0
LINE
8
BLACK
6
CONTINUOUS
10
5.94428
20
-3.22694
11
5.94466
21
-3.22627
0
LINE
8
BLACK
6
CONTINUOUS
10
5.94466
20
-3.22627
11
5.94491
21
-3.22618
0
LINE
8
BLACK
6
CONTINUOUS
10
5.94491
20
-3.22618
11
5.94509
21
-3.22598
0
LINE
8
BLACK
6
CONTINUOUS
10
5.94509
20
-3.22598
11
5.94584
21
-3.22585
0
LINE
8
BLACK
6
CONTINUOUS
10
5.94584
20
-3.22585
11
5.94656
21
-3.22558
0
LINE
8
BLACK
6
CONTINUOUS
10
5.94656
20
-3.22558
11
5.95594
21
-3.22558
0
LINE
8
BLACK
6
CONTINUOUS
10
5.95594
20
-3.22558
11
5.9568
21
-3.22574
0
LINE
8
BLACK
6
CONTINUOUS
10
5.94951
20
-3.26495
11
5.95546
21
-3.26495
0
LINE
8
BLACK
6
CONTINUOUS
10
5.95546
20
-3.26495
11
5.95996
21
-3.26345
0
LINE
8
BLACK
6
CONTINUOUS
10
5.95996
20
-3.26345
11
5.96288
21
-3.26053
0
LINE
8
BLACK
6
CONTINUOUS
10
5.96288
20
-3.26053
11
5.9644
21
-3.2575
0
LINE
8
BLACK
6
CONTINUOUS
10
5.9644
20
-3.2575
11
5.96611
21
-3.25067
0
LINE
8
BLACK
6
CONTINUOUS
10
5.96611
20
-3.25067
11
5.96611
21
-3.24577
0
LINE
8
BLACK
6
CONTINUOUS
10
5.96611
20
-3.24577
11
5.9644
21
-3.23894
0
LINE
8
BLACK
6
CONTINUOUS
10
5.9644
20
-3.23894
11
5.96288
21
-3.23591
0
LINE
8
BLACK
6
CONTINUOUS
10
5.96288
20
-3.23591
11
5.95996
21
-3.23299
0
LINE
8
BLACK
6
CONTINUOUS
10
5.95996
20
-3.23299
11
5.95546
21
-3.23149
0
LINE
8
BLACK
6
CONTINUOUS
10
5.95546
20
-3.23149
11
5.94951
21
-3.23149
0
LINE
8
BLACK
6
CONTINUOUS
10
5.94951
20
-3.23149
11
5.94951
21
-3.26495
0
LINE
8
BLACK
6
CONTINUOUS
10
5.90874
20
-3.22602
11
5.90999
21
-3.2276
0
LINE
8
BLACK
6
CONTINUOUS
10
5.90999
20
-3.2276
11
5.92031
21
-3.25857
0
LINE
8
BLACK
6
CONTINUOUS
10
5.92031
20
-3.25857
11
5.93064
21
-3.2276
0
LINE
8
BLACK
6
CONTINUOUS
10
5.93064
20
-3.2276
11
5.93113
21
-3.2267
0
LINE
8
BLACK
6
CONTINUOUS
10
5.93113
20
-3.2267
11
5.93285
21
-3.22564
0
LINE
8
BLACK
6
CONTINUOUS
10
5.93285
20
-3.22564
11
5.93484
21
-3.22594
0
LINE
8
BLACK
6
CONTINUOUS
10
5.93484
20
-3.22594
11
5.93618
21
-3.22745
0
LINE
8
BLACK
6
CONTINUOUS
10
5.93618
20
-3.22745
11
5.93624
21
-3.22947
0
LINE
8
BLACK
6
CONTINUOUS
10
5.93624
20
-3.22947
11
5.92312
21
-3.26884
0
LINE
8
BLACK
6
CONTINUOUS
10
5.92312
20
-3.26884
11
5.92263
21
-3.26974
0
LINE
8
BLACK
6
CONTINUOUS
10
5.92263
20
-3.26974
11
5.92256
21
-3.26979
0
LINE
8
BLACK
6
CONTINUOUS
10
5.92256
20
-3.26979
11
5.92252
21
-3.26987
0
LINE
8
BLACK
6
CONTINUOUS
10
5.92252
20
-3.26987
11
5.9217
21
-3.27031
0
LINE
8
BLACK
6
CONTINUOUS
10
5.9217
20
-3.27031
11
5.92091
21
-3.2708
0
LINE
8
BLACK
6
CONTINUOUS
10
5.92091
20
-3.2708
11
5.92082
21
-3.27079
0
LINE
8
BLACK
6
CONTINUOUS
10
5.92082
20
-3.27079
11
5.92075
21
-3.27083
0
LINE
8
BLACK
6
CONTINUOUS
10
5.92075
20
-3.27083
11
5.91983
21
-3.27064
0
LINE
8
BLACK
6
CONTINUOUS
10
5.91983
20
-3.27064
11
5.91891
21
-3.2705
0
LINE
8
BLACK
6
CONTINUOUS
10
5.91891
20
-3.2705
11
5.91885
21
-3.27044
0
LINE
8
BLACK
6
CONTINUOUS
10
5.91885
20
-3.27044
11
5.91877
21
-3.27042
0
LINE
8
BLACK
6
CONTINUOUS
10
5.91877
20
-3.27042
11
5.91819
21
-3.26969
0
LINE
8
BLACK
6
CONTINUOUS
10
5.91819
20
-3.26969
11
5.91757
21
-3.26899
0
LINE
8
BLACK
6
CONTINUOUS
10
5.91757
20
-3.26899
11
5.91757
21
-3.26891
0
LINE
8
BLACK
6
CONTINUOUS
10
5.91757
20
-3.26891
11
5.91751
21
-3.26884
0
LINE
8
BLACK
6
CONTINUOUS
10
5.91751
20
-3.26884
11
5.90439
21
-3.22947
0
LINE
8
BLACK
6
CONTINUOUS
10
5.90439
20
-3.22947
11
5.90424
21
-3.22846
0
LINE
8
BLACK
6
CONTINUOUS
10
5.90424
20
-3.22846
11
5.90498
21
-3.22658
0
LINE
8
BLACK
6
CONTINUOUS
10
5.90498
20
-3.22658
11
5.90676
21
-3.22562
0
LINE
8
BLACK
6
CONTINUOUS
10
5.90676
20
-3.22562
11
5.90874
21
-3.22602
0
LINE
8
BLACK
6
CONTINUOUS
10
5.64387
20
-3.2257
11
5.64426
21
-3.22563
0
LINE
8
BLACK
6
CONTINUOUS
10
5.64426
20
-3.22563
11
5.64482
21
-3.22595
0
LINE
8
BLACK
6
CONTINUOUS
10
5.64482
20
-3.22595
11
5.64544
21
-3.22612
0
LINE
8
BLACK
6
CONTINUOUS
10
5.64544
20
-3.22612
11
5.64567
21
-3.22644
0
LINE
8
BLACK
6
CONTINUOUS
10
5.64567
20
-3.22644
11
5.64601
21
-3.22664
0
LINE
8
BLACK
6
CONTINUOUS
10
5.64601
20
-3.22664
11
5.64623
21
-3.22724
0
LINE
8
BLACK
6
CONTINUOUS
10
5.64623
20
-3.22724
11
5.6466
21
-3.22777
0
LINE
8
BLACK
6
CONTINUOUS
10
5.6466
20
-3.22777
11
5.64657
21
-3.22817
0
LINE
8
BLACK
6
CONTINUOUS
10
5.64657
20
-3.22817
11
5.6467
21
-3.22854
0
LINE
8
BLACK
6
CONTINUOUS
10
5.6467
20
-3.22854
11
5.6467
21
-3.26791
0
LINE
8
BLACK
6
CONTINUOUS
10
5.6467
20
-3.26791
11
5.64652
21
-3.26892
0
LINE
8
BLACK
6
CONTINUOUS
10
5.64652
20
-3.26892
11
5.64523
21
-3.27046
0
LINE
8
BLACK
6
CONTINUOUS
10
5.64523
20
-3.27046
11
5.64324
21
-3.27081
0
LINE
8
BLACK
6
CONTINUOUS
10
5.64324
20
-3.27081
11
5.64149
21
-3.2698
0
LINE
8
BLACK
6
CONTINUOUS
10
5.64149
20
-3.2698
11
5.6408
21
-3.26791
0
LINE
8
BLACK
6
CONTINUOUS
10
5.6408
20
-3.26791
11
5.6408
21
-3.24185
0
LINE
8
BLACK
6
CONTINUOUS
10
5.6408
20
-3.24185
11
5.6333
21
-3.25791
0
LINE
8
BLACK
6
CONTINUOUS
10
5.6333
20
-3.25791
11
5.63308
21
-3.25822
0
LINE
8
BLACK
6
CONTINUOUS
10
5.63308
20
-3.25822
11
5.63305
21
-3.25835
0
LINE
8
BLACK
6
CONTINUOUS
10
5.63305
20
-3.25835
11
5.63294
21
-3.25843
0
LINE
8
BLACK
6
CONTINUOUS
10
5.63294
20
-3.25843
11
5.63271
21
-3.25875
0
LINE
8
BLACK
6
CONTINUOUS
10
5.63271
20
-3.25875
11
5.63202
21
-3.25907
0
LINE
8
BLACK
6
CONTINUOUS
10
5.63202
20
-3.25907
11
5.63139
21
-3.25951
0
LINE
8
BLACK
6
CONTINUOUS
10
5.63139
20
-3.25951
11
5.63112
21
-3.25949
0
LINE
8
BLACK
6
CONTINUOUS
10
5.63112
20
-3.25949
11
5.63088
21
-3.2596
0
LINE
8
BLACK
6
CONTINUOUS
10
5.63088
20
-3.2596
11
5.63014
21
-3.2594
0
LINE
8
BLACK
6
CONTINUOUS
10
5.63014
20
-3.2594
11
5.62938
21
-3.25933
0
LINE
8
BLACK
6
CONTINUOUS
10
5.62938
20
-3.25933
11
5.62919
21
-3.25915
0
LINE
8
BLACK
6
CONTINUOUS
10
5.62919
20
-3.25915
11
5.62893
21
-3.25908
0
LINE
8
BLACK
6
CONTINUOUS
10
5.62893
20
-3.25908
11
5.62849
21
-3.25845
0
LINE
8
BLACK
6
CONTINUOUS
10
5.62849
20
-3.25845
11
5.62795
21
-3.25791
0
LINE
8
BLACK
6
CONTINUOUS
10
5.62795
20
-3.25791
11
5.62046
21
-3.24185
0
LINE
8
BLACK
6
CONTINUOUS
10
5.62046
20
-3.24185
11
5.62046
21
-3.26791
0
LINE
8
BLACK
6
CONTINUOUS
10
5.62046
20
-3.26791
11
5.62028
21
-3.26892
0
LINE
8
BLACK
6
CONTINUOUS
10
5.62028
20
-3.26892
11
5.61898
21
-3.27046
0
LINE
8
BLACK
6
CONTINUOUS
10
5.61898
20
-3.27046
11
5.61699
21
-3.27081
0
LINE
8
BLACK
6
CONTINUOUS
10
5.61699
20
-3.27081
11
5.61524
21
-3.2698
0
LINE
8
BLACK
6
CONTINUOUS
10
5.61524
20
-3.2698
11
5.61455
21
-3.26791
0
LINE
8
BLACK
6
CONTINUOUS
10
5.61455
20
-3.26791
11
5.61455
21
-3.22854
0
LINE
8
BLACK
6
CONTINUOUS
10
5.61455
20
-3.22854
11
5.61473
21
-3.22753
0
LINE
8
BLACK
6
CONTINUOUS
10
5.61473
20
-3.22753
11
5.61498
21
-3.22722
0
LINE
8
BLACK
6
CONTINUOUS
10
5.61498
20
-3.22722
11
5.61508
21
-3.22684
0
LINE
8
BLACK
6
CONTINUOUS
10
5.61508
20
-3.22684
11
5.61561
21
-3.22647
0
LINE
8
BLACK
6
CONTINUOUS
10
5.61561
20
-3.22647
11
5.61603
21
-3.22598
0
LINE
8
BLACK
6
CONTINUOUS
10
5.61603
20
-3.22598
11
5.61641
21
-3.22591
0
LINE
8
BLACK
6
CONTINUOUS
10
5.61641
20
-3.22591
11
5.61674
21
-3.22568
0
LINE
8
BLACK
6
CONTINUOUS
10
5.61674
20
-3.22568
11
5.61738
21
-3.22574
0
LINE
8
BLACK
6
CONTINUOUS
10
5.61738
20
-3.22574
11
5.61802
21
-3.22563
0
LINE
8
BLACK
6
CONTINUOUS
10
5.61802
20
-3.22563
11
5.61836
21
-3.22583
0
LINE
8
BLACK
6
CONTINUOUS
10
5.61836
20
-3.22583
11
5.61875
21
-3.22586
0
LINE
8
BLACK
6
CONTINUOUS
10
5.61875
20
-3.22586
11
5.61921
21
-3.22632
0
LINE
8
BLACK
6
CONTINUOUS
10
5.61921
20
-3.22632
11
5.61976
21
-3.22664
0
LINE
8
BLACK
6
CONTINUOUS
10
5.61976
20
-3.22664
11
5.6199
21
-3.22701
0
LINE
8
BLACK
6
CONTINUOUS
10
5.6199
20
-3.22701
11
5.62018
21
-3.22729
0
LINE
8
BLACK
6
CONTINUOUS
10
5.62018
20
-3.22729
11
5.63063
21
-3.24968
0
LINE
8
BLACK
6
CONTINUOUS
10
5.63063
20
-3.24968
11
5.64107
21
-3.22729
0
LINE
8
BLACK
6
CONTINUOUS
10
5.64107
20
-3.22729
11
5.64166
21
-3.22645
0
LINE
8
BLACK
6
CONTINUOUS
10
5.64166
20
-3.22645
11
5.64202
21
-3.22628
0
LINE
8
BLACK
6
CONTINUOUS
10
5.64202
20
-3.22628
11
5.64227
21
-3.22598
0
LINE
8
BLACK
6
CONTINUOUS
10
5.64227
20
-3.22598
11
5.64291
21
-3.22587
0
LINE
8
BLACK
6
CONTINUOUS
10
5.64291
20
-3.22587
11
5.64349
21
-3.22559
0
LINE
8
BLACK
6
CONTINUOUS
10
5.64349
20
-3.22559
11
5.64387
21
-3.2257
0
LINE
8
BLACK
6
CONTINUOUS
10
5.66476
20
-3.22664
11
5.66545
21
-3.22854
0
LINE
8
BLACK
6
CONTINUOUS
10
5.66545
20
-3.22854
11
5.66545
21
-3.26791
0
LINE
8
BLACK
6
CONTINUOUS
10
5.66545
20
-3.26791
11
5.66527
21
-3.26892
0
LINE
8
BLACK
6
CONTINUOUS
10
5.66527
20
-3.26892
11
5.66397
21
-3.27046
0
LINE
8
BLACK
6
CONTINUOUS
10
5.66397
20
-3.27046
11
5.66198
21
-3.27081
0
LINE
8
BLACK
6
CONTINUOUS
10
5.66198
20
-3.27081
11
5.66024
21
-3.2698
0
LINE
8
BLACK
6
CONTINUOUS
10
5.66024
20
-3.2698
11
5.65954
21
-3.26791
0
LINE
8
BLACK
6
CONTINUOUS
10
5.65954
20
-3.26791
11
5.65954
21
-3.22854
0
LINE
8
BLACK
6
CONTINUOUS
10
5.65954
20
-3.22854
11
5.65972
21
-3.22753
0
LINE
8
BLACK
6
CONTINUOUS
10
5.65972
20
-3.22753
11
5.66102
21
-3.22598
0
LINE
8
BLACK
6
CONTINUOUS
10
5.66102
20
-3.22598
11
5.66301
21
-3.22563
0
LINE
8
BLACK
6
CONTINUOUS
10
5.66301
20
-3.22563
11
5.66476
21
-3.22664
0
CIRCLE
8
BLACK
10
5.8
20
-3.8
40
0.00688976
0
CIRCLE
8
BLACK
10
5.4
20
-3
40
0.00688976
0
CIRCLE
8
BLACK
10
5.8
20
-3
40
0.00688976
0
CIRCLE
8
BLACK
10
5.75
20
-3.25
40
0.00688976
0
CIRCLE
8
BLACK
10
5.85
20
-3.25
40
0.00688976
0
CIRCLE
8
BLACK
10
5.75
20
-3.35
40
0.00688976
0
CIRCLE
8
BLACK
10
5.85
20
-3.35
40
0.00688976
0
CIRCLE
8
BLACK
10
5.75
20
-3.45
40
0.00688976
0
CIRCLE
8
BLACK
10
5.85
20
-3.45
40
0.00688976
0
CIRCLE
8
BLACK
10
5.75
20
-3.55
40
0.00688976
0
CIRCLE
8
BLACK
10
5.85
20
-3.55
40
0.00688976
0
CIRCLE
8
BLACK
10
5.4
20
-3.8
40
0.00688976
  0
ENDSEC
  0
EOF
