  0
SECTION
  2
HEADER
  9
$ANGBASE
  50
0.0
  9
$ANGDIR
  70
1
  9
$MEASUREMENT
  70
0
  0
ENDSEC
  0
SECTION
  2
TABLES
  0
TABLE
  2
LTYPE
  70
4
  0
LTYPE
  5
40F
  2
CONTINUOUS
  70
0
  3
Solid line
  72
65
  73
0
  40
0.0
  0
LTYPE
  5
410
  2
DASHDOT
 70
0
  3
Dash Dot ____ _ ____ _
 72
65
 73
4
 40
2.0
 49
1.25
 49
-0.25
 49
0.25
 49
-0.25
  0
LTYPE
  5
411
  2
DASHED
 70
0
  3
Dashed __ __ __ __ __
 72
65
 73
2
 40
0.75
 49
0.5
 49
-0.25
  0
LTYPE
  5
43B
  2
DOTTED
 70
0
  3
Dotted .  .  .  .
 72
65
 73
2
 40
0.2
 49
0.0
 49
-0.2
  0
ENDTAB
  0
TABLE
  2
STYLE
  70
4
  0
STYLE
  2
KICAD
  70
0
  40
0
  41
1
  42
1
  50
0
  71
0
  3
isocp.shx
  0
STYLE
  2
KICADB
  70
0
  40
0
  41
1
  42
1
  50
0
  71
0
  3
isocp.shx
  0
STYLE
  2
KICADI
  70
0
  40
0
  41
1
  42
1
  50
15
  71
0
  3
isocp.shx
  0
STYLE
  2
KICADBI
  70
0
  40
0
  41
1
  42
1
  50
15
  71
0
  3
isocp.shx
  0
ENDTAB
  0
TABLE
  2
LAYER
  70
1
  0
LAYER
  2
BLACK
  70
0
  62
7
  6
CONTINUOUS
  0
ENDTAB
  0
ENDSEC
  0
SECTION
  2
ENTITIES
0
LINE
8
BLACK
6
CONTINUOUS
10
5.55101
20
-3.63221
11
5.5542
21
-3.63434
0
LINE
8
BLACK
6
CONTINUOUS
10
5.5542
20
-3.63434
11
5.55634
21
-3.63753
0
LINE
8
BLACK
6
CONTINUOUS
10
5.55634
20
-3.63753
11
5.55709
21
-3.6413
0
LINE
8
BLACK
6
CONTINUOUS
10
5.55709
20
-3.6413
11
5.55709
21
-3.6787
0
LINE
8
BLACK
6
CONTINUOUS
10
5.55709
20
-3.6787
11
5.55634
21
-3.68247
0
LINE
8
BLACK
6
CONTINUOUS
10
5.55634
20
-3.68247
11
5.5542
21
-3.68566
0
LINE
8
BLACK
6
CONTINUOUS
10
5.5542
20
-3.68566
11
5.55101
21
-3.68779
0
LINE
8
BLACK
6
CONTINUOUS
10
5.55101
20
-3.68779
11
5.54724
21
-3.68854
0
LINE
8
BLACK
6
CONTINUOUS
10
5.54724
20
-3.68854
11
5.52756
21
-3.68854
0
LINE
8
BLACK
6
CONTINUOUS
10
5.52756
20
-3.68854
11
5.52379
21
-3.68779
0
LINE
8
BLACK
6
CONTINUOUS
10
5.52379
20
-3.68779
11
5.5206
21
-3.68566
0
LINE
8
BLACK
6
CONTINUOUS
10
5.5206
20
-3.68566
11
5.51847
21
-3.68247
0
LINE
8
BLACK
6
CONTINUOUS
10
5.51847
20
-3.68247
11
5.51772
21
-3.6787
0
LINE
8
BLACK
6
CONTINUOUS
10
5.51772
20
-3.6787
11
5.51772
21
-3.6413
0
LINE
8
BLACK
6
CONTINUOUS
10
5.51772
20
-3.6413
11
5.51847
21
-3.63753
0
LINE
8
BLACK
6
CONTINUOUS
10
5.51847
20
-3.63753
11
5.5206
21
-3.63434
0
LINE
8
BLACK
6
CONTINUOUS
10
5.5206
20
-3.63434
11
5.52379
21
-3.63221
0
LINE
8
BLACK
6
CONTINUOUS
10
5.52379
20
-3.63221
11
5.52756
21
-3.63146
0
LINE
8
BLACK
6
CONTINUOUS
10
5.52756
20
-3.63146
11
5.54724
21
-3.63146
0
LINE
8
BLACK
6
CONTINUOUS
10
5.54724
20
-3.63146
11
5.55101
21
-3.63221
0
LINE
8
BLACK
6
CONTINUOUS
10
5.47621
20
-3.63221
11
5.4794
21
-3.63434
0
LINE
8
BLACK
6
CONTINUOUS
10
5.4794
20
-3.63434
11
5.48153
21
-3.63753
0
LINE
8
BLACK
6
CONTINUOUS
10
5.48153
20
-3.63753
11
5.48228
21
-3.6413
0
LINE
8
BLACK
6
CONTINUOUS
10
5.48228
20
-3.6413
11
5.48228
21
-3.6787
0
LINE
8
BLACK
6
CONTINUOUS
10
5.48228
20
-3.6787
11
5.48153
21
-3.68247
0
LINE
8
BLACK
6
CONTINUOUS
10
5.48153
20
-3.68247
11
5.4794
21
-3.68566
0
LINE
8
BLACK
6
CONTINUOUS
10
5.4794
20
-3.68566
11
5.47621
21
-3.68779
0
LINE
8
BLACK
6
CONTINUOUS
10
5.47621
20
-3.68779
11
5.47244
21
-3.68854
0
LINE
8
BLACK
6
CONTINUOUS
10
5.47244
20
-3.68854
11
5.45276
21
-3.68854
0
LINE
8
BLACK
6
CONTINUOUS
10
5.45276
20
-3.68854
11
5.44899
21
-3.68779
0
LINE
8
BLACK
6
CONTINUOUS
10
5.44899
20
-3.68779
11
5.4458
21
-3.68566
0
LINE
8
BLACK
6
CONTINUOUS
10
5.4458
20
-3.68566
11
5.44366
21
-3.68247
0
LINE
8
BLACK
6
CONTINUOUS
10
5.44366
20
-3.68247
11
5.44291
21
-3.6787
0
LINE
8
BLACK
6
CONTINUOUS
10
5.44291
20
-3.6787
11
5.44291
21
-3.6413
0
LINE
8
BLACK
6
CONTINUOUS
10
5.44291
20
-3.6413
11
5.44366
21
-3.63753
0
LINE
8
BLACK
6
CONTINUOUS
10
5.44366
20
-3.63753
11
5.4458
21
-3.63434
0
LINE
8
BLACK
6
CONTINUOUS
10
5.4458
20
-3.63434
11
5.44899
21
-3.63221
0
LINE
8
BLACK
6
CONTINUOUS
10
5.44899
20
-3.63221
11
5.45276
21
-3.63146
0
LINE
8
BLACK
6
CONTINUOUS
10
5.45276
20
-3.63146
11
5.47244
21
-3.63146
0
LINE
8
BLACK
6
CONTINUOUS
10
5.47244
20
-3.63146
11
5.47621
21
-3.63221
0
LINE
8
BLACK
6
CONTINUOUS
10
5.55361
20
-3.54221
11
5.5568
21
-3.54434
0
LINE
8
BLACK
6
CONTINUOUS
10
5.5568
20
-3.54434
11
5.55894
21
-3.54753
0
LINE
8
BLACK
6
CONTINUOUS
10
5.55894
20
-3.54753
11
5.55969
21
-3.5513
0
LINE
8
BLACK
6
CONTINUOUS
10
5.55969
20
-3.5513
11
5.55969
21
-3.5887
0
LINE
8
BLACK
6
CONTINUOUS
10
5.55969
20
-3.5887
11
5.55894
21
-3.59247
0
LINE
8
BLACK
6
CONTINUOUS
10
5.55894
20
-3.59247
11
5.5568
21
-3.59566
0
LINE
8
BLACK
6
CONTINUOUS
10
5.5568
20
-3.59566
11
5.55361
21
-3.59779
0
LINE
8
BLACK
6
CONTINUOUS
10
5.55361
20
-3.59779
11
5.54984
21
-3.59854
0
LINE
8
BLACK
6
CONTINUOUS
10
5.54984
20
-3.59854
11
5.53016
21
-3.59854
0
LINE
8
BLACK
6
CONTINUOUS
10
5.53016
20
-3.59854
11
5.52639
21
-3.59779
0
LINE
8
BLACK
6
CONTINUOUS
10
5.52639
20
-3.59779
11
5.5232
21
-3.59566
0
LINE
8
BLACK
6
CONTINUOUS
10
5.5232
20
-3.59566
11
5.52106
21
-3.59247
0
LINE
8
BLACK
6
CONTINUOUS
10
5.52106
20
-3.59247
11
5.52031
21
-3.5887
0
LINE
8
BLACK
6
CONTINUOUS
10
5.52031
20
-3.5887
11
5.52031
21
-3.5513
0
LINE
8
BLACK
6
CONTINUOUS
10
5.52031
20
-3.5513
11
5.52106
21
-3.54753
0
LINE
8
BLACK
6
CONTINUOUS
10
5.52106
20
-3.54753
11
5.5232
21
-3.54434
0
LINE
8
BLACK
6
CONTINUOUS
10
5.5232
20
-3.54434
11
5.52639
21
-3.54221
0
LINE
8
BLACK
6
CONTINUOUS
10
5.52639
20
-3.54221
11
5.53016
21
-3.54146
0
LINE
8
BLACK
6
CONTINUOUS
10
5.53016
20
-3.54146
11
5.54984
21
-3.54146
0
LINE
8
BLACK
6
CONTINUOUS
10
5.54984
20
-3.54146
11
5.55361
21
-3.54221
0
LINE
8
BLACK
6
CONTINUOUS
10
5.47881
20
-3.54221
11
5.482
21
-3.54434
0
LINE
8
BLACK
6
CONTINUOUS
10
5.482
20
-3.54434
11
5.48413
21
-3.54753
0
LINE
8
BLACK
6
CONTINUOUS
10
5.48413
20
-3.54753
11
5.48488
21
-3.5513
0
LINE
8
BLACK
6
CONTINUOUS
10
5.48488
20
-3.5513
11
5.48488
21
-3.5887
0
LINE
8
BLACK
6
CONTINUOUS
10
5.48488
20
-3.5887
11
5.48413
21
-3.59247
0
LINE
8
BLACK
6
CONTINUOUS
10
5.48413
20
-3.59247
11
5.482
21
-3.59566
0
LINE
8
BLACK
6
CONTINUOUS
10
5.482
20
-3.59566
11
5.47881
21
-3.59779
0
LINE
8
BLACK
6
CONTINUOUS
10
5.47881
20
-3.59779
11
5.47504
21
-3.59854
0
LINE
8
BLACK
6
CONTINUOUS
10
5.47504
20
-3.59854
11
5.45535
21
-3.59854
0
LINE
8
BLACK
6
CONTINUOUS
10
5.45535
20
-3.59854
11
5.45159
21
-3.59779
0
LINE
8
BLACK
6
CONTINUOUS
10
5.45159
20
-3.59779
11
5.44839
21
-3.59566
0
LINE
8
BLACK
6
CONTINUOUS
10
5.44839
20
-3.59566
11
5.44626
21
-3.59247
0
LINE
8
BLACK
6
CONTINUOUS
10
5.44626
20
-3.59247
11
5.44551
21
-3.5887
0
LINE
8
BLACK
6
CONTINUOUS
10
5.44551
20
-3.5887
11
5.44551
21
-3.5513
0
LINE
8
BLACK
6
CONTINUOUS
10
5.44551
20
-3.5513
11
5.44626
21
-3.54753
0
LINE
8
BLACK
6
CONTINUOUS
10
5.44626
20
-3.54753
11
5.44839
21
-3.54434
0
LINE
8
BLACK
6
CONTINUOUS
10
5.44839
20
-3.54434
11
5.45159
21
-3.54221
0
LINE
8
BLACK
6
CONTINUOUS
10
5.45159
20
-3.54221
11
5.45535
21
-3.54146
0
LINE
8
BLACK
6
CONTINUOUS
10
5.45535
20
-3.54146
11
5.47504
21
-3.54146
0
LINE
8
BLACK
6
CONTINUOUS
10
5.47504
20
-3.54146
11
5.47881
21
-3.54221
0
LINE
8
BLACK
6
CONTINUOUS
10
5.2878
20
-3.4878
11
5.22283
21
-3.4878
0
LINE
8
BLACK
6
CONTINUOUS
10
5.22283
20
-3.4878
11
5.22283
21
-3.4622
0
LINE
8
BLACK
6
CONTINUOUS
10
5.22283
20
-3.4622
11
5.2878
21
-3.4622
0
LINE
8
BLACK
6
CONTINUOUS
10
5.2878
20
-3.4622
11
5.2878
21
-3.4878
0
LINE
8
BLACK
6
CONTINUOUS
10
5.57717
20
-3.4878
11
5.5122
21
-3.4878
0
LINE
8
BLACK
6
CONTINUOUS
10
5.5122
20
-3.4878
11
5.5122
21
-3.4622
0
LINE
8
BLACK
6
CONTINUOUS
10
5.5122
20
-3.4622
11
5.57717
21
-3.4622
0
LINE
8
BLACK
6
CONTINUOUS
10
5.57717
20
-3.4622
11
5.57717
21
-3.4878
0
LINE
8
BLACK
6
CONTINUOUS
10
5.2878
20
-3.4378
11
5.22283
21
-3.4378
0
LINE
8
BLACK
6
CONTINUOUS
10
5.22283
20
-3.4378
11
5.22283
21
-3.4122
0
LINE
8
BLACK
6
CONTINUOUS
10
5.22283
20
-3.4122
11
5.2878
21
-3.4122
0
LINE
8
BLACK
6
CONTINUOUS
10
5.2878
20
-3.4122
11
5.2878
21
-3.4378
0
LINE
8
BLACK
6
CONTINUOUS
10
5.57717
20
-3.4378
11
5.5122
21
-3.4378
0
LINE
8
BLACK
6
CONTINUOUS
10
5.5122
20
-3.4378
11
5.5122
21
-3.4122
0
LINE
8
BLACK
6
CONTINUOUS
10
5.5122
20
-3.4122
11
5.57717
21
-3.4122
0
LINE
8
BLACK
6
CONTINUOUS
10
5.57717
20
-3.4122
11
5.57717
21
-3.4378
0
LINE
8
BLACK
6
CONTINUOUS
10
5.2878
20
-3.3878
11
5.22283
21
-3.3878
0
LINE
8
BLACK
6
CONTINUOUS
10
5.22283
20
-3.3878
11
5.22283
21
-3.3622
0
LINE
8
BLACK
6
CONTINUOUS
10
5.22283
20
-3.3622
11
5.2878
21
-3.3622
0
LINE
8
BLACK
6
CONTINUOUS
10
5.2878
20
-3.3622
11
5.2878
21
-3.3878
0
LINE
8
BLACK
6
CONTINUOUS
10
5.57717
20
-3.3878
11
5.5122
21
-3.3878
0
LINE
8
BLACK
6
CONTINUOUS
10
5.5122
20
-3.3878
11
5.5122
21
-3.3622
0
LINE
8
BLACK
6
CONTINUOUS
10
5.5122
20
-3.3622
11
5.57717
21
-3.3622
0
LINE
8
BLACK
6
CONTINUOUS
10
5.57717
20
-3.3622
11
5.57717
21
-3.3878
0
LINE
8
BLACK
6
CONTINUOUS
10
5.2878
20
-3.3378
11
5.22283
21
-3.3378
0
LINE
8
BLACK
6
CONTINUOUS
10
5.22283
20
-3.3378
11
5.22283
21
-3.3122
0
LINE
8
BLACK
6
CONTINUOUS
10
5.22283
20
-3.3122
11
5.2878
21
-3.3122
0
LINE
8
BLACK
6
CONTINUOUS
10
5.2878
20
-3.3122
11
5.2878
21
-3.3378
0
LINE
8
BLACK
6
CONTINUOUS
10
5.57717
20
-3.3378
11
5.5122
21
-3.3378
0
LINE
8
BLACK
6
CONTINUOUS
10
5.5122
20
-3.3378
11
5.5122
21
-3.3122
0
LINE
8
BLACK
6
CONTINUOUS
10
5.5122
20
-3.3122
11
5.57717
21
-3.3122
0
LINE
8
BLACK
6
CONTINUOUS
10
5.57717
20
-3.3122
11
5.57717
21
-3.3378
0
LINE
8
BLACK
6
CONTINUOUS
10
5.37047
20
-3.10543
11
5.27205
21
-3.10543
0
LINE
8
BLACK
6
CONTINUOUS
10
5.27205
20
-3.10543
11
5.27205
21
-3.03457
0
LINE
8
BLACK
6
CONTINUOUS
10
5.27205
20
-3.03457
11
5.37047
21
-3.03457
0
LINE
8
BLACK
6
CONTINUOUS
10
5.37047
20
-3.03457
11
5.37047
21
-3.10543
0
LINE
8
BLACK
6
CONTINUOUS
10
5.52795
20
-3.10543
11
5.42953
21
-3.10543
0
LINE
8
BLACK
6
CONTINUOUS
10
5.42953
20
-3.10543
11
5.42953
21
-3.03457
0
LINE
8
BLACK
6
CONTINUOUS
10
5.42953
20
-3.03457
11
5.52795
21
-3.03457
0
LINE
8
BLACK
6
CONTINUOUS
10
5.52795
20
-3.03457
11
5.52795
21
-3.10543
  0
ENDSEC
  0
EOF
