  0
SECTION
  2
HEADER
  9
$ANGBASE
  50
0.0
  9
$ANGDIR
  70
1
  9
$MEASUREMENT
  70
0
  0
ENDSEC
  0
SECTION
  2
TABLES
  0
TABLE
  2
LTYPE
  70
4
  0
LTYPE
  5
40F
  2
CONTINUOUS
  70
0
  3
Solid line
  72
65
  73
0
  40
0.0
  0
LTYPE
  5
410
  2
DASHDOT
 70
0
  3
Dash Dot ____ _ ____ _
 72
65
 73
4
 40
2.0
 49
1.25
 49
-0.25
 49
0.25
 49
-0.25
  0
LTYPE
  5
411
  2
DASHED
 70
0
  3
Dashed __ __ __ __ __
 72
65
 73
2
 40
0.75
 49
0.5
 49
-0.25
  0
LTYPE
  5
43B
  2
DOTTED
 70
0
  3
Dotted .  .  .  .
 72
65
 73
2
 40
0.2
 49
0.0
 49
-0.2
  0
ENDTAB
  0
TABLE
  2
STYLE
  70
4
  0
STYLE
  2
KICAD
  70
0
  40
0
  41
1
  42
1
  50
0
  71
0
  3
isocp.shx
  0
STYLE
  2
KICADB
  70
0
  40
0
  41
1
  42
1
  50
0
  71
0
  3
isocp.shx
  0
STYLE
  2
KICADI
  70
0
  40
0
  41
1
  42
1
  50
15
  71
0
  3
isocp.shx
  0
STYLE
  2
KICADBI
  70
0
  40
0
  41
1
  42
1
  50
15
  71
0
  3
isocp.shx
  0
ENDTAB
  0
TABLE
  2
LAYER
  70
1
  0
LAYER
  2
BLACK
  70
0
  62
7
  6
CONTINUOUS
  0
ENDTAB
  0
ENDSEC
  0
SECTION
  2
ENTITIES
0
LINE
8
BLACK
6
CONTINUOUS
10
5.43006
20
-3.36298
11
5.43445
21
-3.36521
0
LINE
8
BLACK
6
CONTINUOUS
10
5.43445
20
-3.36521
11
5.43794
21
-3.3687
0
LINE
8
BLACK
6
CONTINUOUS
10
5.43794
20
-3.3687
11
5.44017
21
-3.37309
0
LINE
8
BLACK
6
CONTINUOUS
10
5.44017
20
-3.37309
11
5.44094
21
-3.37795
0
LINE
8
BLACK
6
CONTINUOUS
10
5.44094
20
-3.37795
11
5.44017
21
-3.38282
0
LINE
8
BLACK
6
CONTINUOUS
10
5.44017
20
-3.38282
11
5.43794
21
-3.38721
0
LINE
8
BLACK
6
CONTINUOUS
10
5.43794
20
-3.38721
11
5.43445
21
-3.39069
0
LINE
8
BLACK
6
CONTINUOUS
10
5.43445
20
-3.39069
11
5.4312
21
-3.39235
0
LINE
8
BLACK
6
CONTINUOUS
10
5.4312
20
-3.39235
11
5.4312
21
-3.47389
0
LINE
8
BLACK
6
CONTINUOUS
10
5.4312
20
-3.47389
11
5.5013
21
-3.544
0
LINE
8
BLACK
6
CONTINUOUS
10
5.5013
20
-3.544
11
5.69441
21
-3.544
0
LINE
8
BLACK
6
CONTINUOUS
10
5.69441
20
-3.544
11
5.69441
21
-3.52
0
LINE
8
BLACK
6
CONTINUOUS
10
5.69441
20
-3.52
11
5.75441
21
-3.52
0
LINE
8
BLACK
6
CONTINUOUS
10
5.75441
20
-3.52
11
5.75441
21
-3.58
0
LINE
8
BLACK
6
CONTINUOUS
10
5.75441
20
-3.58
11
5.69441
21
-3.58
0
LINE
8
BLACK
6
CONTINUOUS
10
5.69441
20
-3.58
11
5.69441
21
-3.556
0
LINE
8
BLACK
6
CONTINUOUS
10
5.69441
20
-3.556
11
5.49882
21
-3.556
0
LINE
8
BLACK
6
CONTINUOUS
10
5.49882
20
-3.556
11
5.49806
21
-3.5558
0
LINE
8
BLACK
6
CONTINUOUS
10
5.49806
20
-3.5558
11
5.49727
21
-3.5558
0
LINE
8
BLACK
6
CONTINUOUS
10
5.49727
20
-3.5558
11
5.49658
21
-3.5554
0
LINE
8
BLACK
6
CONTINUOUS
10
5.49658
20
-3.5554
11
5.49582
21
-3.5552
0
LINE
8
BLACK
6
CONTINUOUS
10
5.49582
20
-3.5552
11
5.49526
21
-3.55464
0
LINE
8
BLACK
6
CONTINUOUS
10
5.49526
20
-3.55464
11
5.49458
21
-3.55424
0
LINE
8
BLACK
6
CONTINUOUS
10
5.49458
20
-3.55424
11
5.42095
21
-3.48062
0
LINE
8
BLACK
6
CONTINUOUS
10
5.42095
20
-3.48062
11
5.42056
21
-3.47994
0
LINE
8
BLACK
6
CONTINUOUS
10
5.42056
20
-3.47994
11
5.42
21
-3.47938
0
LINE
8
BLACK
6
CONTINUOUS
10
5.42
20
-3.47938
11
5.4198
21
-3.47861
0
LINE
8
BLACK
6
CONTINUOUS
10
5.4198
20
-3.47861
11
5.4194
21
-3.47793
0
LINE
8
BLACK
6
CONTINUOUS
10
5.4194
20
-3.47793
11
5.4194
21
-3.47714
0
LINE
8
BLACK
6
CONTINUOUS
10
5.4194
20
-3.47714
11
5.4192
21
-3.47638
0
LINE
8
BLACK
6
CONTINUOUS
10
5.4192
20
-3.47638
11
5.4192
21
-3.39235
0
LINE
8
BLACK
6
CONTINUOUS
10
5.4192
20
-3.39235
11
5.41594
21
-3.39069
0
LINE
8
BLACK
6
CONTINUOUS
10
5.41594
20
-3.39069
11
5.41246
21
-3.38721
0
LINE
8
BLACK
6
CONTINUOUS
10
5.41246
20
-3.38721
11
5.41022
21
-3.38282
0
LINE
8
BLACK
6
CONTINUOUS
10
5.41022
20
-3.38282
11
5.40945
21
-3.37795
0
LINE
8
BLACK
6
CONTINUOUS
10
5.40945
20
-3.37795
11
5.41022
21
-3.37309
0
LINE
8
BLACK
6
CONTINUOUS
10
5.41022
20
-3.37309
11
5.41246
21
-3.3687
0
LINE
8
BLACK
6
CONTINUOUS
10
5.41246
20
-3.3687
11
5.41594
21
-3.36521
0
LINE
8
BLACK
6
CONTINUOUS
10
5.41594
20
-3.36521
11
5.42033
21
-3.36298
0
LINE
8
BLACK
6
CONTINUOUS
10
5.42033
20
-3.36298
11
5.4252
21
-3.3622
0
LINE
8
BLACK
6
CONTINUOUS
10
5.4252
20
-3.3622
11
5.43006
21
-3.36298
0
LINE
8
BLACK
6
CONTINUOUS
10
5.75441
20
-3.48
11
5.69441
21
-3.48
0
LINE
8
BLACK
6
CONTINUOUS
10
5.69441
20
-3.48
11
5.69441
21
-3.456
0
LINE
8
BLACK
6
CONTINUOUS
10
5.69441
20
-3.456
11
5.56164
21
-3.456
0
LINE
8
BLACK
6
CONTINUOUS
10
5.56164
20
-3.456
11
5.55998
21
-3.45926
0
LINE
8
BLACK
6
CONTINUOUS
10
5.55998
20
-3.45926
11
5.5565
21
-3.46274
0
LINE
8
BLACK
6
CONTINUOUS
10
5.5565
20
-3.46274
11
5.55211
21
-3.46498
0
LINE
8
BLACK
6
CONTINUOUS
10
5.55211
20
-3.46498
11
5.54724
21
-3.46575
0
LINE
8
BLACK
6
CONTINUOUS
10
5.54724
20
-3.46575
11
5.54238
21
-3.46498
0
LINE
8
BLACK
6
CONTINUOUS
10
5.54238
20
-3.46498
11
5.53799
21
-3.46274
0
LINE
8
BLACK
6
CONTINUOUS
10
5.53799
20
-3.46274
11
5.5345
21
-3.45926
0
LINE
8
BLACK
6
CONTINUOUS
10
5.5345
20
-3.45926
11
5.53227
21
-3.45487
0
LINE
8
BLACK
6
CONTINUOUS
10
5.53227
20
-3.45487
11
5.5315
21
-3.45
0
LINE
8
BLACK
6
CONTINUOUS
10
5.5315
20
-3.45
11
5.53227
21
-3.44513
0
LINE
8
BLACK
6
CONTINUOUS
10
5.53227
20
-3.44513
11
5.5345
21
-3.44074
0
LINE
8
BLACK
6
CONTINUOUS
10
5.5345
20
-3.44074
11
5.53799
21
-3.43726
0
LINE
8
BLACK
6
CONTINUOUS
10
5.53799
20
-3.43726
11
5.54238
21
-3.43502
0
LINE
8
BLACK
6
CONTINUOUS
10
5.54238
20
-3.43502
11
5.54724
21
-3.43425
0
LINE
8
BLACK
6
CONTINUOUS
10
5.54724
20
-3.43425
11
5.55211
21
-3.43502
0
LINE
8
BLACK
6
CONTINUOUS
10
5.55211
20
-3.43502
11
5.5565
21
-3.43726
0
LINE
8
BLACK
6
CONTINUOUS
10
5.5565
20
-3.43726
11
5.55998
21
-3.44074
0
LINE
8
BLACK
6
CONTINUOUS
10
5.55998
20
-3.44074
11
5.56164
21
-3.444
0
LINE
8
BLACK
6
CONTINUOUS
10
5.56164
20
-3.444
11
5.69441
21
-3.444
0
LINE
8
BLACK
6
CONTINUOUS
10
5.69441
20
-3.444
11
5.69441
21
-3.42
0
LINE
8
BLACK
6
CONTINUOUS
10
5.69441
20
-3.42
11
5.75441
21
-3.42
0
LINE
8
BLACK
6
CONTINUOUS
10
5.75441
20
-3.42
11
5.75441
21
-3.48
0
LINE
8
BLACK
6
CONTINUOUS
10
5.75441
20
-3.38
11
5.69441
21
-3.38
0
LINE
8
BLACK
6
CONTINUOUS
10
5.69441
20
-3.38
11
5.69441
21
-3.32
0
LINE
8
BLACK
6
CONTINUOUS
10
5.69441
20
-3.32
11
5.75441
21
-3.32
0
LINE
8
BLACK
6
CONTINUOUS
10
5.75441
20
-3.32
11
5.75441
21
-3.38
0
LINE
8
BLACK
6
CONTINUOUS
10
5.85441
20
-3.38
11
5.79441
21
-3.38
0
LINE
8
BLACK
6
CONTINUOUS
10
5.79441
20
-3.38
11
5.79441
21
-3.32
0
LINE
8
BLACK
6
CONTINUOUS
10
5.79441
20
-3.32
11
5.85441
21
-3.32
0
LINE
8
BLACK
6
CONTINUOUS
10
5.85441
20
-3.32
11
5.85441
21
-3.38
0
LINE
8
BLACK
6
CONTINUOUS
10
5.75441
20
-3.28
11
5.69441
21
-3.28
0
LINE
8
BLACK
6
CONTINUOUS
10
5.69441
20
-3.28
11
5.69441
21
-3.22
0
LINE
8
BLACK
6
CONTINUOUS
10
5.69441
20
-3.22
11
5.75441
21
-3.22
0
LINE
8
BLACK
6
CONTINUOUS
10
5.75441
20
-3.22
11
5.75441
21
-3.28
0
LINE
8
BLACK
6
CONTINUOUS
10
5.85441
20
-3.28
11
5.79441
21
-3.28
0
LINE
8
BLACK
6
CONTINUOUS
10
5.79441
20
-3.28
11
5.79441
21
-3.22
0
LINE
8
BLACK
6
CONTINUOUS
10
5.79441
20
-3.22
11
5.85441
21
-3.22
0
LINE
8
BLACK
6
CONTINUOUS
10
5.85441
20
-3.22
11
5.85441
21
-3.28
0
LINE
8
BLACK
6
CONTINUOUS
10
5.98837
20
-2.81076
11
5.98979
21
-2.81271
0
LINE
8
BLACK
6
CONTINUOUS
10
5.98979
20
-2.81271
11
5.98998
21
-2.81392
0
LINE
8
BLACK
6
CONTINUOUS
10
5.98998
20
-2.81392
11
5.98998
21
-3.98608
0
LINE
8
BLACK
6
CONTINUOUS
10
5.98998
20
-3.98608
11
5.98924
21
-3.98837
0
LINE
8
BLACK
6
CONTINUOUS
10
5.98924
20
-3.98837
11
5.98729
21
-3.98979
0
LINE
8
BLACK
6
CONTINUOUS
10
5.98729
20
-3.98979
11
5.98608
21
-3.98998
0
LINE
8
BLACK
6
CONTINUOUS
10
5.98608
20
-3.98998
11
5.21392
21
-3.98998
0
LINE
8
BLACK
6
CONTINUOUS
10
5.21392
20
-3.98998
11
5.21163
21
-3.98924
0
LINE
8
BLACK
6
CONTINUOUS
10
5.21163
20
-3.98924
11
5.21021
21
-3.98729
0
LINE
8
BLACK
6
CONTINUOUS
10
5.21021
20
-3.98729
11
5.21002
21
-3.98608
0
LINE
8
BLACK
6
CONTINUOUS
10
5.21002
20
-3.98608
11
5.21002
21
-3.37795
0
LINE
8
BLACK
6
CONTINUOUS
10
5.21002
20
-3.37795
11
5.21002
21
-3.28177
0
LINE
8
BLACK
6
CONTINUOUS
10
5.21002
20
-3.28177
11
5.21002
21
-2.81392
0
LINE
8
BLACK
6
CONTINUOUS
10
5.21002
20
-2.81392
11
5.21076
21
-2.81163
0
LINE
8
BLACK
6
CONTINUOUS
10
5.21076
20
-2.81163
11
5.21271
21
-2.81021
0
LINE
8
BLACK
6
CONTINUOUS
10
5.21271
20
-2.81021
11
5.21392
21
-2.81002
0
LINE
8
BLACK
6
CONTINUOUS
10
5.21392
20
-2.81002
11
5.98608
21
-2.81002
0
LINE
8
BLACK
6
CONTINUOUS
10
5.98608
20
-2.81002
11
5.98837
21
-2.81076
0
LINE
8
BLACK
6
CONTINUOUS
10
5.7826
20
-3.56
11
5.7826
21
-3.56
0
LINE
8
BLACK
6
CONTINUOUS
10
5.7826
20
-3.56
11
5.7826
21
-3.58176
0
LINE
8
BLACK
6
CONTINUOUS
10
5.7826
20
-3.58176
11
5.78271
21
-3.58275
0
LINE
8
BLACK
6
CONTINUOUS
10
5.78271
20
-3.58275
11
5.7845
21
-3.58679
0
LINE
8
BLACK
6
CONTINUOUS
10
5.7845
20
-3.58679
11
5.78762
21
-3.58991
0
LINE
8
BLACK
6
CONTINUOUS
10
5.78762
20
-3.58991
11
5.79166
21
-3.5917
0
LINE
8
BLACK
6
CONTINUOUS
10
5.79166
20
-3.5917
11
5.79265
21
-3.59181
0
LINE
8
BLACK
6
CONTINUOUS
10
5.79265
20
-3.59181
11
5.81441
21
-3.59181
0
LINE
8
BLACK
6
CONTINUOUS
10
5.81441
20
-3.59181
11
5.81441
21
-3.59181
0
LINE
8
BLACK
6
CONTINUOUS
10
5.81441
20
-3.59181
11
5.81441
21
-3.58
0
LINE
8
BLACK
6
CONTINUOUS
10
5.81441
20
-3.58
11
5.79441
21
-3.58
0
LINE
8
BLACK
6
CONTINUOUS
10
5.79441
20
-3.58
11
5.79441
21
-3.56
0
LINE
8
BLACK
6
CONTINUOUS
10
5.79441
20
-3.56
11
5.7826
21
-3.56
0
LINE
8
BLACK
6
CONTINUOUS
10
5.85441
20
-3.58
11
5.83441
21
-3.58
0
LINE
8
BLACK
6
CONTINUOUS
10
5.83441
20
-3.58
11
5.83441
21
-3.59181
0
LINE
8
BLACK
6
CONTINUOUS
10
5.83441
20
-3.59181
11
5.83441
21
-3.59181
0
LINE
8
BLACK
6
CONTINUOUS
10
5.83441
20
-3.59181
11
5.85617
21
-3.59181
0
LINE
8
BLACK
6
CONTINUOUS
10
5.85617
20
-3.59181
11
5.85617
21
-3.59181
0
LINE
8
BLACK
6
CONTINUOUS
10
5.85617
20
-3.59181
11
5.85716
21
-3.5917
0
LINE
8
BLACK
6
CONTINUOUS
10
5.85716
20
-3.5917
11
5.8612
21
-3.58991
0
LINE
8
BLACK
6
CONTINUOUS
10
5.8612
20
-3.58991
11
5.86432
21
-3.58679
0
LINE
8
BLACK
6
CONTINUOUS
10
5.86432
20
-3.58679
11
5.86611
21
-3.58275
0
LINE
8
BLACK
6
CONTINUOUS
10
5.86611
20
-3.58275
11
5.86622
21
-3.58176
0
LINE
8
BLACK
6
CONTINUOUS
10
5.86622
20
-3.58176
11
5.86622
21
-3.58176
0
LINE
8
BLACK
6
CONTINUOUS
10
5.86622
20
-3.58176
11
5.86622
21
-3.56
0
LINE
8
BLACK
6
CONTINUOUS
10
5.86622
20
-3.56
11
5.85441
21
-3.56
0
LINE
8
BLACK
6
CONTINUOUS
10
5.85441
20
-3.56
11
5.85441
21
-3.58
0
LINE
8
BLACK
6
CONTINUOUS
10
5.39822
20
-3.3846
11
5.4006
21
-3.39086
0
LINE
8
BLACK
6
CONTINUOUS
10
5.4006
20
-3.39086
11
5.4044
21
-3.39638
0
LINE
8
BLACK
6
CONTINUOUS
10
5.4044
20
-3.39638
11
5.40605
21
-3.39784
0
LINE
8
BLACK
6
CONTINUOUS
10
5.40605
20
-3.39784
11
5.40727
21
-3.39991
0
LINE
8
BLACK
6
CONTINUOUS
10
5.40727
20
-3.39991
11
5.40737
21
-3.40076
0
LINE
8
BLACK
6
CONTINUOUS
10
5.40737
20
-3.40076
11
5.40737
21
-3.47527
0
LINE
8
BLACK
6
CONTINUOUS
10
5.40737
20
-3.47527
11
5.40735
21
-3.47549
0
LINE
8
BLACK
6
CONTINUOUS
10
5.40735
20
-3.47549
11
5.40718
21
-3.47705
0
LINE
8
BLACK
6
CONTINUOUS
10
5.40718
20
-3.47705
11
5.40718
21
-3.47705
0
LINE
8
BLACK
6
CONTINUOUS
10
5.40718
20
-3.47705
11
5.4073
21
-3.47769
0
LINE
8
BLACK
6
CONTINUOUS
10
5.4073
20
-3.47769
11
5.40761
21
-3.47936
0
LINE
8
BLACK
6
CONTINUOUS
10
5.40761
20
-3.47936
11
5.40782
21
-3.48074
0
LINE
8
BLACK
6
CONTINUOUS
10
5.40782
20
-3.48074
11
5.40797
21
-3.48169
0
LINE
8
BLACK
6
CONTINUOUS
10
5.40797
20
-3.48169
11
5.40805
21
-3.48197
0
LINE
8
BLACK
6
CONTINUOUS
10
5.40805
20
-3.48197
11
5.40804
21
-3.48198
0
LINE
8
BLACK
6
CONTINUOUS
10
5.40804
20
-3.48198
11
5.40806
21
-3.48206
0
LINE
8
BLACK
6
CONTINUOUS
10
5.40806
20
-3.48206
11
5.40808
21
-3.48206
0
LINE
8
BLACK
6
CONTINUOUS
10
5.40808
20
-3.48206
11
5.40818
21
-3.48233
0
LINE
8
BLACK
6
CONTINUOUS
10
5.40818
20
-3.48233
11
5.40818
21
-3.48233
0
LINE
8
BLACK
6
CONTINUOUS
10
5.40818
20
-3.48233
11
5.40818
21
-3.48233
0
LINE
8
BLACK
6
CONTINUOUS
10
5.40818
20
-3.48233
11
5.40818
21
-3.48233
0
LINE
8
BLACK
6
CONTINUOUS
10
5.40818
20
-3.48233
11
5.40928
21
-3.48441
0
LINE
8
BLACK
6
CONTINUOUS
10
5.40928
20
-3.48441
11
5.4103
21
-3.48654
0
LINE
8
BLACK
6
CONTINUOUS
10
5.4103
20
-3.48654
11
5.41046
21
-3.48678
0
LINE
8
BLACK
6
CONTINUOUS
10
5.41046
20
-3.48678
11
5.41045
21
-3.48679
0
LINE
8
BLACK
6
CONTINUOUS
10
5.41045
20
-3.48679
11
5.4105
21
-3.48686
0
LINE
8
BLACK
6
CONTINUOUS
10
5.4105
20
-3.48686
11
5.41051
21
-3.48685
0
LINE
8
BLACK
6
CONTINUOUS
10
5.41051
20
-3.48685
11
5.41069
21
-3.48709
0
LINE
8
BLACK
6
CONTINUOUS
10
5.41069
20
-3.48709
11
5.41235
21
-3.48875
0
LINE
8
BLACK
6
CONTINUOUS
10
5.41235
20
-3.48875
11
5.4131
21
-3.48956
0
LINE
8
BLACK
6
CONTINUOUS
10
5.4131
20
-3.48956
11
5.41395
21
-3.49048
0
LINE
8
BLACK
6
CONTINUOUS
10
5.41395
20
-3.49048
11
5.41395
21
-3.49048
0
LINE
8
BLACK
6
CONTINUOUS
10
5.41395
20
-3.49048
11
5.41395
21
-3.49048
0
LINE
8
BLACK
6
CONTINUOUS
10
5.41395
20
-3.49048
11
5.41418
21
-3.49066
0
LINE
8
BLACK
6
CONTINUOUS
10
5.41418
20
-3.49066
11
5.41417
21
-3.49067
0
LINE
8
BLACK
6
CONTINUOUS
10
5.41417
20
-3.49067
11
5.41461
21
-3.49101
0
LINE
8
BLACK
6
CONTINUOUS
10
5.41461
20
-3.49101
11
5.48543
21
-3.56182
0
LINE
8
BLACK
6
CONTINUOUS
10
5.48543
20
-3.56182
11
5.48557
21
-3.56199
0
LINE
8
BLACK
6
CONTINUOUS
10
5.48557
20
-3.56199
11
5.48655
21
-3.56322
0
LINE
8
BLACK
6
CONTINUOUS
10
5.48655
20
-3.56322
11
5.48655
21
-3.56322
0
LINE
8
BLACK
6
CONTINUOUS
10
5.48655
20
-3.56322
11
5.4885
21
-3.56454
0
LINE
8
BLACK
6
CONTINUOUS
10
5.4885
20
-3.56454
11
5.49039
21
-3.56594
0
LINE
8
BLACK
6
CONTINUOUS
10
5.49039
20
-3.56594
11
5.49039
21
-3.56594
0
LINE
8
BLACK
6
CONTINUOUS
10
5.49039
20
-3.56594
11
5.49065
21
-3.56608
0
LINE
8
BLACK
6
CONTINUOUS
10
5.49065
20
-3.56608
11
5.49064
21
-3.56609
0
LINE
8
BLACK
6
CONTINUOUS
10
5.49064
20
-3.56609
11
5.49072
21
-3.56614
0
LINE
8
BLACK
6
CONTINUOUS
10
5.49072
20
-3.56614
11
5.49073
21
-3.56612
0
LINE
8
BLACK
6
CONTINUOUS
10
5.49073
20
-3.56612
11
5.49099
21
-3.56625
0
LINE
8
BLACK
6
CONTINUOUS
10
5.49099
20
-3.56625
11
5.491
21
-3.56625
0
LINE
8
BLACK
6
CONTINUOUS
10
5.491
20
-3.56625
11
5.49274
21
-3.56679
0
LINE
8
BLACK
6
CONTINUOUS
10
5.49274
20
-3.56679
11
5.49324
21
-3.56694
0
LINE
8
BLACK
6
CONTINUOUS
10
5.49324
20
-3.56694
11
5.49547
21
-3.56772
0
LINE
8
BLACK
6
CONTINUOUS
10
5.49547
20
-3.56772
11
5.49575
21
-3.56777
0
LINE
8
BLACK
6
CONTINUOUS
10
5.49575
20
-3.56777
11
5.49575
21
-3.56779
0
LINE
8
BLACK
6
CONTINUOUS
10
5.49575
20
-3.56779
11
5.49584
21
-3.5678
0
LINE
8
BLACK
6
CONTINUOUS
10
5.49584
20
-3.5678
11
5.49584
21
-3.56779
0
LINE
8
BLACK
6
CONTINUOUS
10
5.49584
20
-3.56779
11
5.49613
21
-3.56783
0
LINE
8
BLACK
6
CONTINUOUS
10
5.49613
20
-3.56783
11
5.49849
21
-3.56783
0
LINE
8
BLACK
6
CONTINUOUS
10
5.49849
20
-3.56783
11
5.50084
21
-3.56792
0
LINE
8
BLACK
6
CONTINUOUS
10
5.50084
20
-3.56792
11
5.50084
21
-3.56792
0
LINE
8
BLACK
6
CONTINUOUS
10
5.50084
20
-3.56792
11
5.50113
21
-3.56789
0
LINE
8
BLACK
6
CONTINUOUS
10
5.50113
20
-3.56789
11
5.50113
21
-3.5679
0
LINE
8
BLACK
6
CONTINUOUS
10
5.50113
20
-3.5679
11
5.50168
21
-3.56783
0
LINE
8
BLACK
6
CONTINUOUS
10
5.50168
20
-3.56783
11
5.67868
21
-3.56783
0
LINE
8
BLACK
6
CONTINUOUS
10
5.67868
20
-3.56783
11
5.68097
21
-3.56858
0
LINE
8
BLACK
6
CONTINUOUS
10
5.68097
20
-3.56858
11
5.68239
21
-3.57052
0
LINE
8
BLACK
6
CONTINUOUS
10
5.68239
20
-3.57052
11
5.68258
21
-3.57173
0
LINE
8
BLACK
6
CONTINUOUS
10
5.68258
20
-3.57173
11
5.68258
21
-3.58177
0
LINE
8
BLACK
6
CONTINUOUS
10
5.68258
20
-3.58177
11
5.68269
21
-3.58276
0
LINE
8
BLACK
6
CONTINUOUS
10
5.68269
20
-3.58276
11
5.68369
21
-3.58502
0
LINE
8
BLACK
6
CONTINUOUS
10
5.68369
20
-3.58502
11
5.68448
21
-3.5868
0
LINE
8
BLACK
6
CONTINUOUS
10
5.68448
20
-3.5868
11
5.68761
21
-3.58993
0
LINE
8
BLACK
6
CONTINUOUS
10
5.68761
20
-3.58993
11
5.69165
21
-3.59172
0
LINE
8
BLACK
6
CONTINUOUS
10
5.69165
20
-3.59172
11
5.69264
21
-3.59183
0
LINE
8
BLACK
6
CONTINUOUS
10
5.69264
20
-3.59183
11
5.75618
21
-3.59183
0
LINE
8
BLACK
6
CONTINUOUS
10
5.75618
20
-3.59183
11
5.75716
21
-3.59172
0
LINE
8
BLACK
6
CONTINUOUS
10
5.75716
20
-3.59172
11
5.76121
21
-3.58993
0
LINE
8
BLACK
6
CONTINUOUS
10
5.76121
20
-3.58993
11
5.76434
21
-3.5868
0
LINE
8
BLACK
6
CONTINUOUS
10
5.76434
20
-3.5868
11
5.76613
21
-3.58276
0
LINE
8
BLACK
6
CONTINUOUS
10
5.76613
20
-3.58276
11
5.76624
21
-3.58177
0
LINE
8
BLACK
6
CONTINUOUS
10
5.76624
20
-3.58177
11
5.76624
21
-3.54
0
LINE
8
BLACK
6
CONTINUOUS
10
5.76624
20
-3.54
11
5.76624
21
-3.51823
0
LINE
8
BLACK
6
CONTINUOUS
10
5.76624
20
-3.51823
11
5.76613
21
-3.51724
0
LINE
8
BLACK
6
CONTINUOUS
10
5.76613
20
-3.51724
11
5.76434
21
-3.5132
0
LINE
8
BLACK
6
CONTINUOUS
10
5.76434
20
-3.5132
11
5.76121
21
-3.51007
0
LINE
8
BLACK
6
CONTINUOUS
10
5.76121
20
-3.51007
11
5.75716
21
-3.50828
0
LINE
8
BLACK
6
CONTINUOUS
10
5.75716
20
-3.50828
11
5.75716
21
-3.50828
0
LINE
8
BLACK
6
CONTINUOUS
10
5.75716
20
-3.50828
11
5.75716
21
-3.50828
0
LINE
8
BLACK
6
CONTINUOUS
10
5.75716
20
-3.50828
11
5.75618
21
-3.50817
0
LINE
8
BLACK
6
CONTINUOUS
10
5.75618
20
-3.50817
11
5.69264
21
-3.50817
0
LINE
8
BLACK
6
CONTINUOUS
10
5.69264
20
-3.50817
11
5.69264
21
-3.50817
0
LINE
8
BLACK
6
CONTINUOUS
10
5.69264
20
-3.50817
11
5.69165
21
-3.50828
0
LINE
8
BLACK
6
CONTINUOUS
10
5.69165
20
-3.50828
11
5.68761
21
-3.51007
0
LINE
8
BLACK
6
CONTINUOUS
10
5.68761
20
-3.51007
11
5.68448
21
-3.5132
0
LINE
8
BLACK
6
CONTINUOUS
10
5.68448
20
-3.5132
11
5.68269
21
-3.51724
0
LINE
8
BLACK
6
CONTINUOUS
10
5.68269
20
-3.51724
11
5.68258
21
-3.51823
0
LINE
8
BLACK
6
CONTINUOUS
10
5.68258
20
-3.51823
11
5.68258
21
-3.52827
0
LINE
8
BLACK
6
CONTINUOUS
10
5.68258
20
-3.52827
11
5.68183
21
-3.53056
0
LINE
8
BLACK
6
CONTINUOUS
10
5.68183
20
-3.53056
11
5.67989
21
-3.53198
0
LINE
8
BLACK
6
CONTINUOUS
10
5.67989
20
-3.53198
11
5.67868
21
-3.53217
0
LINE
8
BLACK
6
CONTINUOUS
10
5.67868
20
-3.53217
11
5.50782
21
-3.53217
0
LINE
8
BLACK
6
CONTINUOUS
10
5.50782
20
-3.53217
11
5.50553
21
-3.53142
0
LINE
8
BLACK
6
CONTINUOUS
10
5.50553
20
-3.53142
11
5.50506
21
-3.53103
0
LINE
8
BLACK
6
CONTINUOUS
10
5.50506
20
-3.53103
11
5.44417
21
-3.47013
0
LINE
8
BLACK
6
CONTINUOUS
10
5.44417
20
-3.47013
11
5.44308
21
-3.46799
0
LINE
8
BLACK
6
CONTINUOUS
10
5.44308
20
-3.46799
11
5.44303
21
-3.46738
0
LINE
8
BLACK
6
CONTINUOUS
10
5.44303
20
-3.46738
11
5.44303
21
-3.45
0
LINE
8
BLACK
6
CONTINUOUS
10
5.44303
20
-3.45
11
5.44303
21
-3.40076
0
LINE
8
BLACK
6
CONTINUOUS
10
5.44303
20
-3.40076
11
5.44377
21
-3.39846
0
LINE
8
BLACK
6
CONTINUOUS
10
5.44377
20
-3.39846
11
5.44434
21
-3.39784
0
LINE
8
BLACK
6
CONTINUOUS
10
5.44434
20
-3.39784
11
5.44599
21
-3.39638
0
LINE
8
BLACK
6
CONTINUOUS
10
5.44599
20
-3.39638
11
5.4498
21
-3.39086
0
LINE
8
BLACK
6
CONTINUOUS
10
5.4498
20
-3.39086
11
5.45217
21
-3.3846
0
LINE
8
BLACK
6
CONTINUOUS
10
5.45217
20
-3.3846
11
5.45252
21
-3.38177
0
LINE
8
BLACK
6
CONTINUOUS
10
5.45252
20
-3.38177
11
5.45298
21
-3.37795
0
LINE
8
BLACK
6
CONTINUOUS
10
5.45298
20
-3.37795
11
5.45217
21
-3.3713
0
LINE
8
BLACK
6
CONTINUOUS
10
5.45217
20
-3.3713
11
5.4498
21
-3.36504
0
LINE
8
BLACK
6
CONTINUOUS
10
5.4498
20
-3.36504
11
5.44599
21
-3.35953
0
LINE
8
BLACK
6
CONTINUOUS
10
5.44599
20
-3.35953
11
5.44098
21
-3.35509
0
LINE
8
BLACK
6
CONTINUOUS
10
5.44098
20
-3.35509
11
5.43505
21
-3.35198
0
LINE
8
BLACK
6
CONTINUOUS
10
5.43505
20
-3.35198
11
5.43505
21
-3.35198
0
LINE
8
BLACK
6
CONTINUOUS
10
5.43505
20
-3.35198
11
5.43505
21
-3.35198
0
LINE
8
BLACK
6
CONTINUOUS
10
5.43505
20
-3.35198
11
5.42855
21
-3.35037
0
LINE
8
BLACK
6
CONTINUOUS
10
5.42855
20
-3.35037
11
5.42855
21
-3.35037
0
LINE
8
BLACK
6
CONTINUOUS
10
5.42855
20
-3.35037
11
5.42185
21
-3.35037
0
LINE
8
BLACK
6
CONTINUOUS
10
5.42185
20
-3.35037
11
5.42185
21
-3.35037
0
LINE
8
BLACK
6
CONTINUOUS
10
5.42185
20
-3.35037
11
5.41535
21
-3.35198
0
LINE
8
BLACK
6
CONTINUOUS
10
5.41535
20
-3.35198
11
5.40942
21
-3.35509
0
LINE
8
BLACK
6
CONTINUOUS
10
5.40942
20
-3.35509
11
5.4044
21
-3.35953
0
LINE
8
BLACK
6
CONTINUOUS
10
5.4044
20
-3.35953
11
5.4044
21
-3.35953
0
LINE
8
BLACK
6
CONTINUOUS
10
5.4044
20
-3.35953
11
5.4044
21
-3.35953
0
LINE
8
BLACK
6
CONTINUOUS
10
5.4044
20
-3.35953
11
5.4006
21
-3.36504
0
LINE
8
BLACK
6
CONTINUOUS
10
5.4006
20
-3.36504
11
5.39822
21
-3.3713
0
LINE
8
BLACK
6
CONTINUOUS
10
5.39822
20
-3.3713
11
5.39742
21
-3.37795
0
LINE
8
BLACK
6
CONTINUOUS
10
5.39742
20
-3.37795
11
5.39822
21
-3.3846
0
LINE
8
BLACK
6
CONTINUOUS
10
5.83441
20
-3.50819
11
5.83441
21
-3.52
0
LINE
8
BLACK
6
CONTINUOUS
10
5.83441
20
-3.52
11
5.85441
21
-3.52
0
LINE
8
BLACK
6
CONTINUOUS
10
5.85441
20
-3.52
11
5.85441
21
-3.54
0
LINE
8
BLACK
6
CONTINUOUS
10
5.85441
20
-3.54
11
5.86622
21
-3.54
0
LINE
8
BLACK
6
CONTINUOUS
10
5.86622
20
-3.54
11
5.86622
21
-3.54
0
LINE
8
BLACK
6
CONTINUOUS
10
5.86622
20
-3.54
11
5.86622
21
-3.51824
0
LINE
8
BLACK
6
CONTINUOUS
10
5.86622
20
-3.51824
11
5.86622
21
-3.51824
0
LINE
8
BLACK
6
CONTINUOUS
10
5.86622
20
-3.51824
11
5.86611
21
-3.51725
0
LINE
8
BLACK
6
CONTINUOUS
10
5.86611
20
-3.51725
11
5.86432
21
-3.51321
0
LINE
8
BLACK
6
CONTINUOUS
10
5.86432
20
-3.51321
11
5.8612
21
-3.51009
0
LINE
8
BLACK
6
CONTINUOUS
10
5.8612
20
-3.51009
11
5.85716
21
-3.5083
0
LINE
8
BLACK
6
CONTINUOUS
10
5.85716
20
-3.5083
11
5.85617
21
-3.50819
0
LINE
8
BLACK
6
CONTINUOUS
10
5.85617
20
-3.50819
11
5.83441
21
-3.50819
0
LINE
8
BLACK
6
CONTINUOUS
10
5.83441
20
-3.50819
11
5.83441
21
-3.50819
0
LINE
8
BLACK
6
CONTINUOUS
10
5.7826
20
-3.46
11
5.7826
21
-3.46
0
LINE
8
BLACK
6
CONTINUOUS
10
5.7826
20
-3.46
11
5.7826
21
-3.48176
0
LINE
8
BLACK
6
CONTINUOUS
10
5.7826
20
-3.48176
11
5.78271
21
-3.48275
0
LINE
8
BLACK
6
CONTINUOUS
10
5.78271
20
-3.48275
11
5.7845
21
-3.48679
0
LINE
8
BLACK
6
CONTINUOUS
10
5.7845
20
-3.48679
11
5.78762
21
-3.48991
0
LINE
8
BLACK
6
CONTINUOUS
10
5.78762
20
-3.48991
11
5.79166
21
-3.4917
0
LINE
8
BLACK
6
CONTINUOUS
10
5.79166
20
-3.4917
11
5.79265
21
-3.49181
0
LINE
8
BLACK
6
CONTINUOUS
10
5.79265
20
-3.49181
11
5.81441
21
-3.49181
0
LINE
8
BLACK
6
CONTINUOUS
10
5.81441
20
-3.49181
11
5.81441
21
-3.49181
0
LINE
8
BLACK
6
CONTINUOUS
10
5.81441
20
-3.49181
11
5.81441
21
-3.48
0
LINE
8
BLACK
6
CONTINUOUS
10
5.81441
20
-3.48
11
5.79441
21
-3.48
0
LINE
8
BLACK
6
CONTINUOUS
10
5.79441
20
-3.48
11
5.79441
21
-3.46
0
LINE
8
BLACK
6
CONTINUOUS
10
5.79441
20
-3.46
11
5.7826
21
-3.46
0
LINE
8
BLACK
6
CONTINUOUS
10
5.85441
20
-3.48
11
5.83441
21
-3.48
0
LINE
8
BLACK
6
CONTINUOUS
10
5.83441
20
-3.48
11
5.83441
21
-3.49181
0
LINE
8
BLACK
6
CONTINUOUS
10
5.83441
20
-3.49181
11
5.83441
21
-3.49181
0
LINE
8
BLACK
6
CONTINUOUS
10
5.83441
20
-3.49181
11
5.85617
21
-3.49181
0
LINE
8
BLACK
6
CONTINUOUS
10
5.85617
20
-3.49181
11
5.85617
21
-3.49181
0
LINE
8
BLACK
6
CONTINUOUS
10
5.85617
20
-3.49181
11
5.85716
21
-3.4917
0
LINE
8
BLACK
6
CONTINUOUS
10
5.85716
20
-3.4917
11
5.8612
21
-3.48991
0
LINE
8
BLACK
6
CONTINUOUS
10
5.8612
20
-3.48991
11
5.86432
21
-3.48679
0
LINE
8
BLACK
6
CONTINUOUS
10
5.86432
20
-3.48679
11
5.86611
21
-3.48275
0
LINE
8
BLACK
6
CONTINUOUS
10
5.86611
20
-3.48275
11
5.86622
21
-3.48176
0
LINE
8
BLACK
6
CONTINUOUS
10
5.86622
20
-3.48176
11
5.86622
21
-3.48176
0
LINE
8
BLACK
6
CONTINUOUS
10
5.86622
20
-3.48176
11
5.86622
21
-3.46
0
LINE
8
BLACK
6
CONTINUOUS
10
5.86622
20
-3.46
11
5.85441
21
-3.46
0
LINE
8
BLACK
6
CONTINUOUS
10
5.85441
20
-3.46
11
5.85441
21
-3.48
0
LINE
8
BLACK
6
CONTINUOUS
10
5.52027
20
-3.45665
11
5.52264
21
-3.46291
0
LINE
8
BLACK
6
CONTINUOUS
10
5.52264
20
-3.46291
11
5.52645
21
-3.46842
0
LINE
8
BLACK
6
CONTINUOUS
10
5.52645
20
-3.46842
11
5.53146
21
-3.47286
0
LINE
8
BLACK
6
CONTINUOUS
10
5.53146
20
-3.47286
11
5.53739
21
-3.47598
0
LINE
8
BLACK
6
CONTINUOUS
10
5.53739
20
-3.47598
11
5.5439
21
-3.47758
0
LINE
8
BLACK
6
CONTINUOUS
10
5.5439
20
-3.47758
11
5.5439
21
-3.47758
0
LINE
8
BLACK
6
CONTINUOUS
10
5.5439
20
-3.47758
11
5.55059
21
-3.47758
0
LINE
8
BLACK
6
CONTINUOUS
10
5.55059
20
-3.47758
11
5.55059
21
-3.47758
0
LINE
8
BLACK
6
CONTINUOUS
10
5.55059
20
-3.47758
11
5.5571
21
-3.47598
0
LINE
8
BLACK
6
CONTINUOUS
10
5.5571
20
-3.47598
11
5.56303
21
-3.47286
0
LINE
8
BLACK
6
CONTINUOUS
10
5.56303
20
-3.47286
11
5.5676
21
-3.46881
0
LINE
8
BLACK
6
CONTINUOUS
10
5.5676
20
-3.46881
11
5.56981
21
-3.46785
0
LINE
8
BLACK
6
CONTINUOUS
10
5.56981
20
-3.46785
11
5.57018
21
-3.46783
0
LINE
8
BLACK
6
CONTINUOUS
10
5.57018
20
-3.46783
11
5.67868
21
-3.46783
0
LINE
8
BLACK
6
CONTINUOUS
10
5.67868
20
-3.46783
11
5.68097
21
-3.46858
0
LINE
8
BLACK
6
CONTINUOUS
10
5.68097
20
-3.46858
11
5.68239
21
-3.47052
0
LINE
8
BLACK
6
CONTINUOUS
10
5.68239
20
-3.47052
11
5.68258
21
-3.47173
0
LINE
8
BLACK
6
CONTINUOUS
10
5.68258
20
-3.47173
11
5.68258
21
-3.48177
0
LINE
8
BLACK
6
CONTINUOUS
10
5.68258
20
-3.48177
11
5.68269
21
-3.48276
0
LINE
8
BLACK
6
CONTINUOUS
10
5.68269
20
-3.48276
11
5.68343
21
-3.48441
0
LINE
8
BLACK
6
CONTINUOUS
10
5.68343
20
-3.48441
11
5.68448
21
-3.4868
0
LINE
8
BLACK
6
CONTINUOUS
10
5.68448
20
-3.4868
11
5.68761
21
-3.48993
0
LINE
8
BLACK
6
CONTINUOUS
10
5.68761
20
-3.48993
11
5.69165
21
-3.49172
0
LINE
8
BLACK
6
CONTINUOUS
10
5.69165
20
-3.49172
11
5.69264
21
-3.49183
0
LINE
8
BLACK
6
CONTINUOUS
10
5.69264
20
-3.49183
11
5.75618
21
-3.49183
0
LINE
8
BLACK
6
CONTINUOUS
10
5.75618
20
-3.49183
11
5.75716
21
-3.49172
0
LINE
8
BLACK
6
CONTINUOUS
10
5.75716
20
-3.49172
11
5.76121
21
-3.48993
0
LINE
8
BLACK
6
CONTINUOUS
10
5.76121
20
-3.48993
11
5.76434
21
-3.4868
0
LINE
8
BLACK
6
CONTINUOUS
10
5.76434
20
-3.4868
11
5.76613
21
-3.48276
0
LINE
8
BLACK
6
CONTINUOUS
10
5.76613
20
-3.48276
11
5.76624
21
-3.48177
0
LINE
8
BLACK
6
CONTINUOUS
10
5.76624
20
-3.48177
11
5.76624
21
-3.44
0
LINE
8
BLACK
6
CONTINUOUS
10
5.76624
20
-3.44
11
5.76624
21
-3.41823
0
LINE
8
BLACK
6
CONTINUOUS
10
5.76624
20
-3.41823
11
5.76613
21
-3.41724
0
LINE
8
BLACK
6
CONTINUOUS
10
5.76613
20
-3.41724
11
5.76434
21
-3.4132
0
LINE
8
BLACK
6
CONTINUOUS
10
5.76434
20
-3.4132
11
5.76121
21
-3.41007
0
LINE
8
BLACK
6
CONTINUOUS
10
5.76121
20
-3.41007
11
5.75716
21
-3.40828
0
LINE
8
BLACK
6
CONTINUOUS
10
5.75716
20
-3.40828
11
5.75716
21
-3.40828
0
LINE
8
BLACK
6
CONTINUOUS
10
5.75716
20
-3.40828
11
5.75716
21
-3.40828
0
LINE
8
BLACK
6
CONTINUOUS
10
5.75716
20
-3.40828
11
5.75618
21
-3.40817
0
LINE
8
BLACK
6
CONTINUOUS
10
5.75618
20
-3.40817
11
5.69264
21
-3.40817
0
LINE
8
BLACK
6
CONTINUOUS
10
5.69264
20
-3.40817
11
5.69264
21
-3.40817
0
LINE
8
BLACK
6
CONTINUOUS
10
5.69264
20
-3.40817
11
5.69165
21
-3.40828
0
LINE
8
BLACK
6
CONTINUOUS
10
5.69165
20
-3.40828
11
5.68761
21
-3.41007
0
LINE
8
BLACK
6
CONTINUOUS
10
5.68761
20
-3.41007
11
5.68448
21
-3.4132
0
LINE
8
BLACK
6
CONTINUOUS
10
5.68448
20
-3.4132
11
5.68269
21
-3.41724
0
LINE
8
BLACK
6
CONTINUOUS
10
5.68269
20
-3.41724
11
5.68258
21
-3.41823
0
LINE
8
BLACK
6
CONTINUOUS
10
5.68258
20
-3.41823
11
5.68258
21
-3.42827
0
LINE
8
BLACK
6
CONTINUOUS
10
5.68258
20
-3.42827
11
5.68183
21
-3.43056
0
LINE
8
BLACK
6
CONTINUOUS
10
5.68183
20
-3.43056
11
5.67989
21
-3.43198
0
LINE
8
BLACK
6
CONTINUOUS
10
5.67989
20
-3.43198
11
5.67868
21
-3.43217
0
LINE
8
BLACK
6
CONTINUOUS
10
5.67868
20
-3.43217
11
5.57018
21
-3.43217
0
LINE
8
BLACK
6
CONTINUOUS
10
5.57018
20
-3.43217
11
5.56789
21
-3.43142
0
LINE
8
BLACK
6
CONTINUOUS
10
5.56789
20
-3.43142
11
5.5676
21
-3.43119
0
LINE
8
BLACK
6
CONTINUOUS
10
5.5676
20
-3.43119
11
5.56303
21
-3.42714
0
LINE
8
BLACK
6
CONTINUOUS
10
5.56303
20
-3.42714
11
5.56303
21
-3.42714
0
LINE
8
BLACK
6
CONTINUOUS
10
5.56303
20
-3.42714
11
5.5571
21
-3.42402
0
LINE
8
BLACK
6
CONTINUOUS
10
5.5571
20
-3.42402
11
5.5571
21
-3.42402
0
LINE
8
BLACK
6
CONTINUOUS
10
5.5571
20
-3.42402
11
5.5571
21
-3.42402
0
LINE
8
BLACK
6
CONTINUOUS
10
5.5571
20
-3.42402
11
5.55059
21
-3.42242
0
LINE
8
BLACK
6
CONTINUOUS
10
5.55059
20
-3.42242
11
5.55059
21
-3.42242
0
LINE
8
BLACK
6
CONTINUOUS
10
5.55059
20
-3.42242
11
5.5439
21
-3.42242
0
LINE
8
BLACK
6
CONTINUOUS
10
5.5439
20
-3.42242
11
5.5439
21
-3.42242
0
LINE
8
BLACK
6
CONTINUOUS
10
5.5439
20
-3.42242
11
5.53739
21
-3.42402
0
LINE
8
BLACK
6
CONTINUOUS
10
5.53739
20
-3.42402
11
5.53146
21
-3.42714
0
LINE
8
BLACK
6
CONTINUOUS
10
5.53146
20
-3.42714
11
5.52645
21
-3.43158
0
LINE
8
BLACK
6
CONTINUOUS
10
5.52645
20
-3.43158
11
5.52645
21
-3.43158
0
LINE
8
BLACK
6
CONTINUOUS
10
5.52645
20
-3.43158
11
5.52532
21
-3.43321
0
LINE
8
BLACK
6
CONTINUOUS
10
5.52532
20
-3.43321
11
5.52264
21
-3.43709
0
LINE
8
BLACK
6
CONTINUOUS
10
5.52264
20
-3.43709
11
5.52027
21
-3.44335
0
LINE
8
BLACK
6
CONTINUOUS
10
5.52027
20
-3.44335
11
5.51946
21
-3.45
0
LINE
8
BLACK
6
CONTINUOUS
10
5.51946
20
-3.45
11
5.52027
21
-3.45665
0
LINE
8
BLACK
6
CONTINUOUS
10
5.83441
20
-3.40819
11
5.83441
21
-3.42
0
LINE
8
BLACK
6
CONTINUOUS
10
5.83441
20
-3.42
11
5.85441
21
-3.42
0
LINE
8
BLACK
6
CONTINUOUS
10
5.85441
20
-3.42
11
5.85441
21
-3.44
0
LINE
8
BLACK
6
CONTINUOUS
10
5.85441
20
-3.44
11
5.86622
21
-3.44
0
LINE
8
BLACK
6
CONTINUOUS
10
5.86622
20
-3.44
11
5.86622
21
-3.44
0
LINE
8
BLACK
6
CONTINUOUS
10
5.86622
20
-3.44
11
5.86622
21
-3.41824
0
LINE
8
BLACK
6
CONTINUOUS
10
5.86622
20
-3.41824
11
5.86622
21
-3.41824
0
LINE
8
BLACK
6
CONTINUOUS
10
5.86622
20
-3.41824
11
5.86611
21
-3.41725
0
LINE
8
BLACK
6
CONTINUOUS
10
5.86611
20
-3.41725
11
5.86432
21
-3.41321
0
LINE
8
BLACK
6
CONTINUOUS
10
5.86432
20
-3.41321
11
5.8612
21
-3.41009
0
LINE
8
BLACK
6
CONTINUOUS
10
5.8612
20
-3.41009
11
5.85716
21
-3.4083
0
LINE
8
BLACK
6
CONTINUOUS
10
5.85716
20
-3.4083
11
5.85617
21
-3.40819
0
LINE
8
BLACK
6
CONTINUOUS
10
5.85617
20
-3.40819
11
5.83441
21
-3.40819
0
LINE
8
BLACK
6
CONTINUOUS
10
5.83441
20
-3.40819
11
5.83441
21
-3.40819
0
LINE
8
BLACK
6
CONTINUOUS
10
5.69264
20
-3.30817
11
5.69165
21
-3.30828
0
LINE
8
BLACK
6
CONTINUOUS
10
5.69165
20
-3.30828
11
5.68761
21
-3.31007
0
LINE
8
BLACK
6
CONTINUOUS
10
5.68761
20
-3.31007
11
5.68448
21
-3.3132
0
LINE
8
BLACK
6
CONTINUOUS
10
5.68448
20
-3.3132
11
5.68269
21
-3.31724
0
LINE
8
BLACK
6
CONTINUOUS
10
5.68269
20
-3.31724
11
5.68258
21
-3.31823
0
LINE
8
BLACK
6
CONTINUOUS
10
5.68258
20
-3.31823
11
5.68258
21
-3.38177
0
LINE
8
BLACK
6
CONTINUOUS
10
5.68258
20
-3.38177
11
5.68258
21
-3.38177
0
LINE
8
BLACK
6
CONTINUOUS
10
5.68258
20
-3.38177
11
5.68269
21
-3.38276
0
LINE
8
BLACK
6
CONTINUOUS
10
5.68269
20
-3.38276
11
5.68351
21
-3.3846
0
LINE
8
BLACK
6
CONTINUOUS
10
5.68351
20
-3.3846
11
5.68448
21
-3.3868
0
LINE
8
BLACK
6
CONTINUOUS
10
5.68448
20
-3.3868
11
5.68761
21
-3.38993
0
LINE
8
BLACK
6
CONTINUOUS
10
5.68761
20
-3.38993
11
5.69165
21
-3.39172
0
LINE
8
BLACK
6
CONTINUOUS
10
5.69165
20
-3.39172
11
5.69264
21
-3.39183
0
LINE
8
BLACK
6
CONTINUOUS
10
5.69264
20
-3.39183
11
5.75618
21
-3.39183
0
LINE
8
BLACK
6
CONTINUOUS
10
5.75618
20
-3.39183
11
5.75716
21
-3.39172
0
LINE
8
BLACK
6
CONTINUOUS
10
5.75716
20
-3.39172
11
5.76121
21
-3.38993
0
LINE
8
BLACK
6
CONTINUOUS
10
5.76121
20
-3.38993
11
5.76434
21
-3.3868
0
LINE
8
BLACK
6
CONTINUOUS
10
5.76434
20
-3.3868
11
5.76613
21
-3.38276
0
LINE
8
BLACK
6
CONTINUOUS
10
5.76613
20
-3.38276
11
5.76624
21
-3.38177
0
LINE
8
BLACK
6
CONTINUOUS
10
5.76624
20
-3.38177
11
5.76624
21
-3.38177
0
LINE
8
BLACK
6
CONTINUOUS
10
5.76624
20
-3.38177
11
5.76624
21
-3.31823
0
LINE
8
BLACK
6
CONTINUOUS
10
5.76624
20
-3.31823
11
5.76613
21
-3.31724
0
LINE
8
BLACK
6
CONTINUOUS
10
5.76613
20
-3.31724
11
5.76434
21
-3.3132
0
LINE
8
BLACK
6
CONTINUOUS
10
5.76434
20
-3.3132
11
5.76121
21
-3.31007
0
LINE
8
BLACK
6
CONTINUOUS
10
5.76121
20
-3.31007
11
5.75716
21
-3.30828
0
LINE
8
BLACK
6
CONTINUOUS
10
5.75716
20
-3.30828
11
5.75716
21
-3.30828
0
LINE
8
BLACK
6
CONTINUOUS
10
5.75716
20
-3.30828
11
5.75716
21
-3.30828
0
LINE
8
BLACK
6
CONTINUOUS
10
5.75716
20
-3.30828
11
5.75618
21
-3.30817
0
LINE
8
BLACK
6
CONTINUOUS
10
5.75618
20
-3.30817
11
5.69264
21
-3.30817
0
LINE
8
BLACK
6
CONTINUOUS
10
5.69264
20
-3.30817
11
5.69264
21
-3.30817
0
LINE
8
BLACK
6
CONTINUOUS
10
5.78258
20
-3.38177
11
5.78269
21
-3.38276
0
LINE
8
BLACK
6
CONTINUOUS
10
5.78269
20
-3.38276
11
5.78351
21
-3.3846
0
LINE
8
BLACK
6
CONTINUOUS
10
5.78351
20
-3.3846
11
5.78448
21
-3.3868
0
LINE
8
BLACK
6
CONTINUOUS
10
5.78448
20
-3.3868
11
5.78761
21
-3.38993
0
LINE
8
BLACK
6
CONTINUOUS
10
5.78761
20
-3.38993
11
5.79165
21
-3.39172
0
LINE
8
BLACK
6
CONTINUOUS
10
5.79165
20
-3.39172
11
5.79264
21
-3.39183
0
LINE
8
BLACK
6
CONTINUOUS
10
5.79264
20
-3.39183
11
5.85618
21
-3.39183
0
LINE
8
BLACK
6
CONTINUOUS
10
5.85618
20
-3.39183
11
5.85717
21
-3.39172
0
LINE
8
BLACK
6
CONTINUOUS
10
5.85717
20
-3.39172
11
5.86121
21
-3.38993
0
LINE
8
BLACK
6
CONTINUOUS
10
5.86121
20
-3.38993
11
5.86434
21
-3.3868
0
LINE
8
BLACK
6
CONTINUOUS
10
5.86434
20
-3.3868
11
5.86613
21
-3.38276
0
LINE
8
BLACK
6
CONTINUOUS
10
5.86613
20
-3.38276
11
5.86624
21
-3.38177
0
LINE
8
BLACK
6
CONTINUOUS
10
5.86624
20
-3.38177
11
5.86624
21
-3.31823
0
LINE
8
BLACK
6
CONTINUOUS
10
5.86624
20
-3.31823
11
5.86613
21
-3.31724
0
LINE
8
BLACK
6
CONTINUOUS
10
5.86613
20
-3.31724
11
5.86434
21
-3.3132
0
LINE
8
BLACK
6
CONTINUOUS
10
5.86434
20
-3.3132
11
5.86121
21
-3.31007
0
LINE
8
BLACK
6
CONTINUOUS
10
5.86121
20
-3.31007
11
5.85717
21
-3.30828
0
LINE
8
BLACK
6
CONTINUOUS
10
5.85717
20
-3.30828
11
5.85716
21
-3.30828
0
LINE
8
BLACK
6
CONTINUOUS
10
5.85716
20
-3.30828
11
5.85716
21
-3.30828
0
LINE
8
BLACK
6
CONTINUOUS
10
5.85716
20
-3.30828
11
5.85618
21
-3.30817
0
LINE
8
BLACK
6
CONTINUOUS
10
5.85618
20
-3.30817
11
5.79264
21
-3.30817
0
LINE
8
BLACK
6
CONTINUOUS
10
5.79264
20
-3.30817
11
5.79264
21
-3.30817
0
LINE
8
BLACK
6
CONTINUOUS
10
5.79264
20
-3.30817
11
5.79165
21
-3.30828
0
LINE
8
BLACK
6
CONTINUOUS
10
5.79165
20
-3.30828
11
5.78761
21
-3.31007
0
LINE
8
BLACK
6
CONTINUOUS
10
5.78761
20
-3.31007
11
5.78448
21
-3.3132
0
LINE
8
BLACK
6
CONTINUOUS
10
5.78448
20
-3.3132
11
5.78269
21
-3.31724
0
LINE
8
BLACK
6
CONTINUOUS
10
5.78269
20
-3.31724
11
5.78258
21
-3.31823
0
LINE
8
BLACK
6
CONTINUOUS
10
5.78258
20
-3.31823
11
5.78258
21
-3.38177
0
LINE
8
BLACK
6
CONTINUOUS
10
5.78258
20
-3.38177
11
5.78258
21
-3.38177
0
LINE
8
BLACK
6
CONTINUOUS
10
5.68258
20
-3.28177
11
5.68269
21
-3.28276
0
LINE
8
BLACK
6
CONTINUOUS
10
5.68269
20
-3.28276
11
5.68369
21
-3.28502
0
LINE
8
BLACK
6
CONTINUOUS
10
5.68369
20
-3.28502
11
5.68448
21
-3.2868
0
LINE
8
BLACK
6
CONTINUOUS
10
5.68448
20
-3.2868
11
5.68761
21
-3.28993
0
LINE
8
BLACK
6
CONTINUOUS
10
5.68761
20
-3.28993
11
5.69165
21
-3.29172
0
LINE
8
BLACK
6
CONTINUOUS
10
5.69165
20
-3.29172
11
5.69264
21
-3.29183
0
LINE
8
BLACK
6
CONTINUOUS
10
5.69264
20
-3.29183
11
5.75618
21
-3.29183
0
LINE
8
BLACK
6
CONTINUOUS
10
5.75618
20
-3.29183
11
5.75716
21
-3.29172
0
LINE
8
BLACK
6
CONTINUOUS
10
5.75716
20
-3.29172
11
5.76121
21
-3.28993
0
LINE
8
BLACK
6
CONTINUOUS
10
5.76121
20
-3.28993
11
5.76434
21
-3.2868
0
LINE
8
BLACK
6
CONTINUOUS
10
5.76434
20
-3.2868
11
5.76613
21
-3.28276
0
LINE
8
BLACK
6
CONTINUOUS
10
5.76613
20
-3.28276
11
5.76624
21
-3.28177
0
LINE
8
BLACK
6
CONTINUOUS
10
5.76624
20
-3.28177
11
5.76624
21
-3.28177
0
LINE
8
BLACK
6
CONTINUOUS
10
5.76624
20
-3.28177
11
5.76624
21
-3.21823
0
LINE
8
BLACK
6
CONTINUOUS
10
5.76624
20
-3.21823
11
5.76613
21
-3.21724
0
LINE
8
BLACK
6
CONTINUOUS
10
5.76613
20
-3.21724
11
5.76434
21
-3.2132
0
LINE
8
BLACK
6
CONTINUOUS
10
5.76434
20
-3.2132
11
5.76121
21
-3.21007
0
LINE
8
BLACK
6
CONTINUOUS
10
5.76121
20
-3.21007
11
5.75716
21
-3.20828
0
LINE
8
BLACK
6
CONTINUOUS
10
5.75716
20
-3.20828
11
5.75716
21
-3.20828
0
LINE
8
BLACK
6
CONTINUOUS
10
5.75716
20
-3.20828
11
5.75716
21
-3.20828
0
LINE
8
BLACK
6
CONTINUOUS
10
5.75716
20
-3.20828
11
5.75618
21
-3.20817
0
LINE
8
BLACK
6
CONTINUOUS
10
5.75618
20
-3.20817
11
5.69264
21
-3.20817
0
LINE
8
BLACK
6
CONTINUOUS
10
5.69264
20
-3.20817
11
5.69264
21
-3.20817
0
LINE
8
BLACK
6
CONTINUOUS
10
5.69264
20
-3.20817
11
5.69165
21
-3.20828
0
LINE
8
BLACK
6
CONTINUOUS
10
5.69165
20
-3.20828
11
5.68761
21
-3.21007
0
LINE
8
BLACK
6
CONTINUOUS
10
5.68761
20
-3.21007
11
5.68448
21
-3.2132
0
LINE
8
BLACK
6
CONTINUOUS
10
5.68448
20
-3.2132
11
5.68269
21
-3.21724
0
LINE
8
BLACK
6
CONTINUOUS
10
5.68269
20
-3.21724
11
5.68258
21
-3.21823
0
LINE
8
BLACK
6
CONTINUOUS
10
5.68258
20
-3.21823
11
5.68258
21
-3.28177
0
LINE
8
BLACK
6
CONTINUOUS
10
5.68258
20
-3.28177
11
5.68258
21
-3.28177
0
LINE
8
BLACK
6
CONTINUOUS
10
5.78258
20
-3.28177
11
5.78269
21
-3.28276
0
LINE
8
BLACK
6
CONTINUOUS
10
5.78269
20
-3.28276
11
5.78369
21
-3.28502
0
LINE
8
BLACK
6
CONTINUOUS
10
5.78369
20
-3.28502
11
5.78448
21
-3.2868
0
LINE
8
BLACK
6
CONTINUOUS
10
5.78448
20
-3.2868
11
5.78761
21
-3.28993
0
LINE
8
BLACK
6
CONTINUOUS
10
5.78761
20
-3.28993
11
5.79165
21
-3.29172
0
LINE
8
BLACK
6
CONTINUOUS
10
5.79165
20
-3.29172
11
5.79264
21
-3.29183
0
LINE
8
BLACK
6
CONTINUOUS
10
5.79264
20
-3.29183
11
5.85618
21
-3.29183
0
LINE
8
BLACK
6
CONTINUOUS
10
5.85618
20
-3.29183
11
5.85717
21
-3.29172
0
LINE
8
BLACK
6
CONTINUOUS
10
5.85717
20
-3.29172
11
5.86121
21
-3.28993
0
LINE
8
BLACK
6
CONTINUOUS
10
5.86121
20
-3.28993
11
5.86434
21
-3.2868
0
LINE
8
BLACK
6
CONTINUOUS
10
5.86434
20
-3.2868
11
5.86613
21
-3.28276
0
LINE
8
BLACK
6
CONTINUOUS
10
5.86613
20
-3.28276
11
5.86624
21
-3.28177
0
LINE
8
BLACK
6
CONTINUOUS
10
5.86624
20
-3.28177
11
5.86624
21
-3.21823
0
LINE
8
BLACK
6
CONTINUOUS
10
5.86624
20
-3.21823
11
5.86613
21
-3.21724
0
LINE
8
BLACK
6
CONTINUOUS
10
5.86613
20
-3.21724
11
5.86434
21
-3.2132
0
LINE
8
BLACK
6
CONTINUOUS
10
5.86434
20
-3.2132
11
5.86121
21
-3.21007
0
LINE
8
BLACK
6
CONTINUOUS
10
5.86121
20
-3.21007
11
5.85717
21
-3.20828
0
LINE
8
BLACK
6
CONTINUOUS
10
5.85717
20
-3.20828
11
5.85716
21
-3.20828
0
LINE
8
BLACK
6
CONTINUOUS
10
5.85716
20
-3.20828
11
5.85716
21
-3.20828
0
LINE
8
BLACK
6
CONTINUOUS
10
5.85716
20
-3.20828
11
5.85618
21
-3.20817
0
LINE
8
BLACK
6
CONTINUOUS
10
5.85618
20
-3.20817
11
5.79264
21
-3.20817
0
LINE
8
BLACK
6
CONTINUOUS
10
5.79264
20
-3.20817
11
5.79264
21
-3.20817
0
LINE
8
BLACK
6
CONTINUOUS
10
5.79264
20
-3.20817
11
5.79165
21
-3.20828
0
LINE
8
BLACK
6
CONTINUOUS
10
5.79165
20
-3.20828
11
5.78761
21
-3.21007
0
LINE
8
BLACK
6
CONTINUOUS
10
5.78761
20
-3.21007
11
5.78448
21
-3.2132
0
LINE
8
BLACK
6
CONTINUOUS
10
5.78448
20
-3.2132
11
5.78269
21
-3.21724
0
LINE
8
BLACK
6
CONTINUOUS
10
5.78269
20
-3.21724
11
5.78258
21
-3.21823
0
LINE
8
BLACK
6
CONTINUOUS
10
5.78258
20
-3.21823
11
5.78258
21
-3.28177
0
LINE
8
BLACK
6
CONTINUOUS
10
5.78258
20
-3.28177
11
5.78258
21
-3.28177
0
LINE
8
BLACK
6
CONTINUOUS
10
5.7826
20
-3.54
11
5.79441
21
-3.54
0
LINE
8
BLACK
6
CONTINUOUS
10
5.79441
20
-3.54
11
5.79441
21
-3.52
0
LINE
8
BLACK
6
CONTINUOUS
10
5.79441
20
-3.52
11
5.81441
21
-3.52
0
LINE
8
BLACK
6
CONTINUOUS
10
5.81441
20
-3.52
11
5.81441
21
-3.50819
0
LINE
8
BLACK
6
CONTINUOUS
10
5.81441
20
-3.50819
11
5.81441
21
-3.50819
0
LINE
8
BLACK
6
CONTINUOUS
10
5.81441
20
-3.50819
11
5.79265
21
-3.50819
0
LINE
8
BLACK
6
CONTINUOUS
10
5.79265
20
-3.50819
11
5.79265
21
-3.50819
0
LINE
8
BLACK
6
CONTINUOUS
10
5.79265
20
-3.50819
11
5.79166
21
-3.5083
0
LINE
8
BLACK
6
CONTINUOUS
10
5.79166
20
-3.5083
11
5.78762
21
-3.51009
0
LINE
8
BLACK
6
CONTINUOUS
10
5.78762
20
-3.51009
11
5.7845
21
-3.51321
0
LINE
8
BLACK
6
CONTINUOUS
10
5.7845
20
-3.51321
11
5.78271
21
-3.51725
0
LINE
8
BLACK
6
CONTINUOUS
10
5.78271
20
-3.51725
11
5.7826
21
-3.51824
0
LINE
8
BLACK
6
CONTINUOUS
10
5.7826
20
-3.51824
11
5.7826
21
-3.54
0
LINE
8
BLACK
6
CONTINUOUS
10
5.7826
20
-3.54
11
5.7826
21
-3.54
0
LINE
8
BLACK
6
CONTINUOUS
10
5.7826
20
-3.44
11
5.79441
21
-3.44
0
LINE
8
BLACK
6
CONTINUOUS
10
5.79441
20
-3.44
11
5.79441
21
-3.42
0
LINE
8
BLACK
6
CONTINUOUS
10
5.79441
20
-3.42
11
5.81441
21
-3.42
0
LINE
8
BLACK
6
CONTINUOUS
10
5.81441
20
-3.42
11
5.81441
21
-3.40819
0
LINE
8
BLACK
6
CONTINUOUS
10
5.81441
20
-3.40819
11
5.81441
21
-3.40819
0
LINE
8
BLACK
6
CONTINUOUS
10
5.81441
20
-3.40819
11
5.79265
21
-3.40819
0
LINE
8
BLACK
6
CONTINUOUS
10
5.79265
20
-3.40819
11
5.79265
21
-3.40819
0
LINE
8
BLACK
6
CONTINUOUS
10
5.79265
20
-3.40819
11
5.79166
21
-3.4083
0
LINE
8
BLACK
6
CONTINUOUS
10
5.79166
20
-3.4083
11
5.78762
21
-3.41009
0
LINE
8
BLACK
6
CONTINUOUS
10
5.78762
20
-3.41009
11
5.7845
21
-3.41321
0
LINE
8
BLACK
6
CONTINUOUS
10
5.7845
20
-3.41321
11
5.78271
21
-3.41725
0
LINE
8
BLACK
6
CONTINUOUS
10
5.78271
20
-3.41725
11
5.7826
21
-3.41824
0
LINE
8
BLACK
6
CONTINUOUS
10
5.7826
20
-3.41824
11
5.7826
21
-3.44
0
LINE
8
BLACK
6
CONTINUOUS
10
5.7826
20
-3.44
11
5.7826
21
-3.44
0
CIRCLE
8
BLACK
10
5.8
20
-3.8
40
0.00688976
0
CIRCLE
8
BLACK
10
5.4
20
-3
40
0.00688976
0
CIRCLE
8
BLACK
10
5.8
20
-3
40
0.00688976
0
CIRCLE
8
BLACK
10
5.72441
20
-3.25
40
0.00688976
0
CIRCLE
8
BLACK
10
5.82441
20
-3.25
40
0.00688976
0
CIRCLE
8
BLACK
10
5.72441
20
-3.35
40
0.00688976
0
CIRCLE
8
BLACK
10
5.82441
20
-3.35
40
0.00688976
0
CIRCLE
8
BLACK
10
5.72441
20
-3.45
40
0.00688976
0
CIRCLE
8
BLACK
10
5.82441
20
-3.45
40
0.00688976
0
CIRCLE
8
BLACK
10
5.72441
20
-3.55
40
0.00688976
0
CIRCLE
8
BLACK
10
5.82441
20
-3.55
40
0.00688976
0
CIRCLE
8
BLACK
10
5.4
20
-3.8
40
0.00688976
0
CIRCLE
8
BLACK
10
5.44
20
-3.6
40
0.00787402
0
CIRCLE
8
BLACK
10
5.26
20
-3.54724
40
0.00787402
0
CIRCLE
8
BLACK
10
5.54331
20
-3.37402
40
0.00787402
0
CIRCLE
8
BLACK
10
5.57
20
-3.73
40
0.00787402
0
CIRCLE
8
BLACK
10
5.62
20
-3.73
40
0.00787402
0
CIRCLE
8
BLACK
10
5.44
20
-3.56
40
0.00787402
0
CIRCLE
8
BLACK
10
5.23622
20
-3.40157
40
0.00787402
0
CIRCLE
8
BLACK
10
5.5
20
-3.65
40
0.00787402
0
CIRCLE
8
BLACK
10
5.54724
20
-3.45
40
0.00787402
0
CIRCLE
8
BLACK
10
5.4252
20
-3.37795
40
0.00787402
  0
ENDSEC
  0
EOF
