  0
SECTION
  2
HEADER
  9
$ANGBASE
  50
0.0
  9
$ANGDIR
  70
1
  9
$MEASUREMENT
  70
0
  0
ENDSEC
  0
SECTION
  2
TABLES
  0
TABLE
  2
LTYPE
  70
4
  0
LTYPE
  5
40F
  2
CONTINUOUS
  70
0
  3
Solid line
  72
65
  73
0
  40
0.0
  0
LTYPE
  5
410
  2
DASHDOT
 70
0
  3
Dash Dot ____ _ ____ _
 72
65
 73
4
 40
2.0
 49
1.25
 49
-0.25
 49
0.25
 49
-0.25
  0
LTYPE
  5
411
  2
DASHED
 70
0
  3
Dashed __ __ __ __ __
 72
65
 73
2
 40
0.75
 49
0.5
 49
-0.25
  0
LTYPE
  5
43B
  2
DOTTED
 70
0
  3
Dotted .  .  .  .
 72
65
 73
2
 40
0.2
 49
0.0
 49
-0.2
  0
ENDTAB
  0
TABLE
  2
STYLE
  70
4
  0
STYLE
  2
KICAD
  70
0
  40
0
  41
1
  42
1
  50
0
  71
0
  3
isocp.shx
  0
STYLE
  2
KICADB
  70
0
  40
0
  41
1
  42
1
  50
0
  71
0
  3
isocp.shx
  0
STYLE
  2
KICADI
  70
0
  40
0
  41
1
  42
1
  50
15
  71
0
  3
isocp.shx
  0
STYLE
  2
KICADBI
  70
0
  40
0
  41
1
  42
1
  50
15
  71
0
  3
isocp.shx
  0
ENDTAB
  0
TABLE
  2
LAYER
  70
1
  0
LAYER
  2
BLACK
  70
0
  62
7
  6
CONTINUOUS
  0
ENDTAB
  0
ENDSEC
  0
SECTION
  2
ENTITIES
0
LINE
8
BLACK
6
CONTINUOUS
10
5.90038
20
-3.19711
11
5.90051
21
-3.19709
0
LINE
8
BLACK
6
CONTINUOUS
10
5.90051
20
-3.19709
11
5.90063
21
-3.19716
0
LINE
8
BLACK
6
CONTINUOUS
10
5.90063
20
-3.19716
11
5.90101
21
-3.19723
0
LINE
8
BLACK
6
CONTINUOUS
10
5.90101
20
-3.19723
11
5.9016
21
-3.19772
0
LINE
8
BLACK
6
CONTINUOUS
10
5.9016
20
-3.19772
11
5.90226
21
-3.1981
0
LINE
8
BLACK
6
CONTINUOUS
10
5.90226
20
-3.1981
11
5.90235
21
-3.19835
0
LINE
8
BLACK
6
CONTINUOUS
10
5.90235
20
-3.19835
11
5.90256
21
-3.19852
0
LINE
8
BLACK
6
CONTINUOUS
10
5.90256
20
-3.19852
11
5.90269
21
-3.19928
0
LINE
8
BLACK
6
CONTINUOUS
10
5.90269
20
-3.19928
11
5.90295
21
-3.2
0
LINE
8
BLACK
6
CONTINUOUS
10
5.90295
20
-3.2
11
5.90295
21
-3.6
0
LINE
8
BLACK
6
CONTINUOUS
10
5.90295
20
-3.6
11
5.90289
21
-3.60038
0
LINE
8
BLACK
6
CONTINUOUS
10
5.90289
20
-3.60038
11
5.90291
21
-3.60051
0
LINE
8
BLACK
6
CONTINUOUS
10
5.90291
20
-3.60051
11
5.90284
21
-3.60063
0
LINE
8
BLACK
6
CONTINUOUS
10
5.90284
20
-3.60063
11
5.90277
21
-3.60101
0
LINE
8
BLACK
6
CONTINUOUS
10
5.90277
20
-3.60101
11
5.90228
21
-3.6016
0
LINE
8
BLACK
6
CONTINUOUS
10
5.90228
20
-3.6016
11
5.9019
21
-3.60226
0
LINE
8
BLACK
6
CONTINUOUS
10
5.9019
20
-3.60226
11
5.90165
21
-3.60235
0
LINE
8
BLACK
6
CONTINUOUS
10
5.90165
20
-3.60235
11
5.90148
21
-3.60256
0
LINE
8
BLACK
6
CONTINUOUS
10
5.90148
20
-3.60256
11
5.90072
21
-3.60269
0
LINE
8
BLACK
6
CONTINUOUS
10
5.90072
20
-3.60269
11
5.9
21
-3.60295
0
LINE
8
BLACK
6
CONTINUOUS
10
5.9
20
-3.60295
11
5.7
21
-3.60295
0
LINE
8
BLACK
6
CONTINUOUS
10
5.7
20
-3.60295
11
5.69962
21
-3.60289
0
LINE
8
BLACK
6
CONTINUOUS
10
5.69962
20
-3.60289
11
5.69949
21
-3.60291
0
LINE
8
BLACK
6
CONTINUOUS
10
5.69949
20
-3.60291
11
5.69937
21
-3.60284
0
LINE
8
BLACK
6
CONTINUOUS
10
5.69937
20
-3.60284
11
5.69899
21
-3.60277
0
LINE
8
BLACK
6
CONTINUOUS
10
5.69899
20
-3.60277
11
5.6984
21
-3.60228
0
LINE
8
BLACK
6
CONTINUOUS
10
5.6984
20
-3.60228
11
5.69774
21
-3.6019
0
LINE
8
BLACK
6
CONTINUOUS
10
5.69774
20
-3.6019
11
5.69765
21
-3.60165
0
LINE
8
BLACK
6
CONTINUOUS
10
5.69765
20
-3.60165
11
5.69744
21
-3.60148
0
LINE
8
BLACK
6
CONTINUOUS
10
5.69744
20
-3.60148
11
5.69731
21
-3.60072
0
LINE
8
BLACK
6
CONTINUOUS
10
5.69731
20
-3.60072
11
5.69705
21
-3.6
0
LINE
8
BLACK
6
CONTINUOUS
10
5.69705
20
-3.6
11
5.69705
21
-3.2
0
LINE
8
BLACK
6
CONTINUOUS
10
5.69705
20
-3.2
11
5.69711
21
-3.19962
0
LINE
8
BLACK
6
CONTINUOUS
10
5.69711
20
-3.19962
11
5.69709
21
-3.19949
0
LINE
8
BLACK
6
CONTINUOUS
10
5.69709
20
-3.19949
11
5.69716
21
-3.19937
0
LINE
8
BLACK
6
CONTINUOUS
10
5.69716
20
-3.19937
11
5.69723
21
-3.19899
0
LINE
8
BLACK
6
CONTINUOUS
10
5.69723
20
-3.19899
11
5.69772
21
-3.1984
0
LINE
8
BLACK
6
CONTINUOUS
10
5.69772
20
-3.1984
11
5.6981
21
-3.19774
0
LINE
8
BLACK
6
CONTINUOUS
10
5.6981
20
-3.19774
11
5.69835
21
-3.19765
0
LINE
8
BLACK
6
CONTINUOUS
10
5.69835
20
-3.19765
11
5.69852
21
-3.19744
0
LINE
8
BLACK
6
CONTINUOUS
10
5.69852
20
-3.19744
11
5.69928
21
-3.19731
0
LINE
8
BLACK
6
CONTINUOUS
10
5.69928
20
-3.19731
11
5.7
21
-3.19705
0
LINE
8
BLACK
6
CONTINUOUS
10
5.7
20
-3.19705
11
5.9
21
-3.19705
0
LINE
8
BLACK
6
CONTINUOUS
10
5.9
20
-3.19705
11
5.90038
21
-3.19711
0
LINE
8
BLACK
6
CONTINUOUS
10
5.70295
20
-3.20295
11
5.70295
21
-3.59705
0
LINE
8
BLACK
6
CONTINUOUS
10
5.70295
20
-3.59705
11
5.89705
21
-3.59705
0
LINE
8
BLACK
6
CONTINUOUS
10
5.89705
20
-3.59705
11
5.89705
21
-3.20295
0
LINE
8
BLACK
6
CONTINUOUS
10
5.89705
20
-3.20295
11
5.70295
21
-3.20295
0
LINE
8
BLACK
6
CONTINUOUS
10
5.88
20
-3.58
11
5.82
21
-3.58
0
LINE
8
BLACK
6
CONTINUOUS
10
5.82
20
-3.58
11
5.82
21
-3.52
0
LINE
8
BLACK
6
CONTINUOUS
10
5.82
20
-3.52
11
5.88
21
-3.52
0
LINE
8
BLACK
6
CONTINUOUS
10
5.88
20
-3.52
11
5.88
21
-3.58
0
LINE
8
BLACK
6
CONTINUOUS
10
5.78
20
-3.58
11
5.72
21
-3.58
0
LINE
8
BLACK
6
CONTINUOUS
10
5.72
20
-3.58
11
5.72
21
-3.52
0
LINE
8
BLACK
6
CONTINUOUS
10
5.72
20
-3.52
11
5.78
21
-3.52
0
LINE
8
BLACK
6
CONTINUOUS
10
5.78
20
-3.52
11
5.78
21
-3.58
0
LINE
8
BLACK
6
CONTINUOUS
10
5.78
20
-3.48
11
5.72
21
-3.48
0
LINE
8
BLACK
6
CONTINUOUS
10
5.72
20
-3.48
11
5.72
21
-3.42
0
LINE
8
BLACK
6
CONTINUOUS
10
5.72
20
-3.42
11
5.78
21
-3.42
0
LINE
8
BLACK
6
CONTINUOUS
10
5.78
20
-3.42
11
5.78
21
-3.48
0
LINE
8
BLACK
6
CONTINUOUS
10
5.88
20
-3.48
11
5.82
21
-3.48
0
LINE
8
BLACK
6
CONTINUOUS
10
5.82
20
-3.48
11
5.82
21
-3.42
0
LINE
8
BLACK
6
CONTINUOUS
10
5.82
20
-3.42
11
5.88
21
-3.42
0
LINE
8
BLACK
6
CONTINUOUS
10
5.88
20
-3.42
11
5.88
21
-3.48
0
LINE
8
BLACK
6
CONTINUOUS
10
5.88
20
-3.38
11
5.82
21
-3.38
0
LINE
8
BLACK
6
CONTINUOUS
10
5.82
20
-3.38
11
5.82
21
-3.32
0
LINE
8
BLACK
6
CONTINUOUS
10
5.82
20
-3.32
11
5.88
21
-3.32
0
LINE
8
BLACK
6
CONTINUOUS
10
5.88
20
-3.32
11
5.88
21
-3.38
0
LINE
8
BLACK
6
CONTINUOUS
10
5.78
20
-3.38
11
5.72
21
-3.38
0
LINE
8
BLACK
6
CONTINUOUS
10
5.72
20
-3.38
11
5.72
21
-3.32
0
LINE
8
BLACK
6
CONTINUOUS
10
5.72
20
-3.32
11
5.78
21
-3.32
0
LINE
8
BLACK
6
CONTINUOUS
10
5.78
20
-3.32
11
5.78
21
-3.38
0
LINE
8
BLACK
6
CONTINUOUS
10
5.78
20
-3.28
11
5.72
21
-3.28
0
LINE
8
BLACK
6
CONTINUOUS
10
5.72
20
-3.28
11
5.72
21
-3.22
0
LINE
8
BLACK
6
CONTINUOUS
10
5.72
20
-3.22
11
5.78
21
-3.22
0
LINE
8
BLACK
6
CONTINUOUS
10
5.78
20
-3.22
11
5.78
21
-3.28
0
LINE
8
BLACK
6
CONTINUOUS
10
5.88
20
-3.28
11
5.82
21
-3.28
0
LINE
8
BLACK
6
CONTINUOUS
10
5.82
20
-3.28
11
5.82
21
-3.22
0
LINE
8
BLACK
6
CONTINUOUS
10
5.82
20
-3.22
11
5.88
21
-3.22
0
LINE
8
BLACK
6
CONTINUOUS
10
5.88
20
-3.22
11
5.88
21
-3.28
0
LINE
8
BLACK
6
CONTINUOUS
10
5.6052
20
-3.53607
11
5.60631
21
-3.53776
0
LINE
8
BLACK
6
CONTINUOUS
10
5.60631
20
-3.53776
11
5.61298
21
-3.56574
0
LINE
8
BLACK
6
CONTINUOUS
10
5.61298
20
-3.56574
11
5.61746
21
-3.54893
0
LINE
8
BLACK
6
CONTINUOUS
10
5.61746
20
-3.54893
11
5.61789
21
-3.548
0
LINE
8
BLACK
6
CONTINUOUS
10
5.61789
20
-3.548
11
5.61812
21
-3.54784
0
LINE
8
BLACK
6
CONTINUOUS
10
5.61812
20
-3.54784
11
5.61823
21
-3.5476
0
LINE
8
BLACK
6
CONTINUOUS
10
5.61823
20
-3.5476
11
5.61892
21
-3.54728
0
LINE
8
BLACK
6
CONTINUOUS
10
5.61892
20
-3.54728
11
5.61955
21
-3.54684
0
LINE
8
BLACK
6
CONTINUOUS
10
5.61955
20
-3.54684
11
5.61982
21
-3.54686
0
LINE
8
BLACK
6
CONTINUOUS
10
5.61982
20
-3.54686
11
5.62006
21
-3.54675
0
LINE
8
BLACK
6
CONTINUOUS
10
5.62006
20
-3.54675
11
5.6208
21
-3.54695
0
LINE
8
BLACK
6
CONTINUOUS
10
5.6208
20
-3.54695
11
5.62156
21
-3.54701
0
LINE
8
BLACK
6
CONTINUOUS
10
5.62156
20
-3.54701
11
5.62175
21
-3.5472
0
LINE
8
BLACK
6
CONTINUOUS
10
5.62175
20
-3.5472
11
5.62201
21
-3.54727
0
LINE
8
BLACK
6
CONTINUOUS
10
5.62201
20
-3.54727
11
5.62245
21
-3.5479
0
LINE
8
BLACK
6
CONTINUOUS
10
5.62245
20
-3.5479
11
5.62299
21
-3.54844
0
LINE
8
BLACK
6
CONTINUOUS
10
5.62299
20
-3.54844
11
5.62301
21
-3.54871
0
LINE
8
BLACK
6
CONTINUOUS
10
5.62301
20
-3.54871
11
5.62317
21
-3.54893
0
LINE
8
BLACK
6
CONTINUOUS
10
5.62317
20
-3.54893
11
5.62765
21
-3.56574
0
LINE
8
BLACK
6
CONTINUOUS
10
5.62765
20
-3.56574
11
5.63432
21
-3.53776
0
LINE
8
BLACK
6
CONTINUOUS
10
5.63432
20
-3.53776
11
5.63472
21
-3.53682
0
LINE
8
BLACK
6
CONTINUOUS
10
5.63472
20
-3.53682
11
5.63634
21
-3.53561
0
LINE
8
BLACK
6
CONTINUOUS
10
5.63634
20
-3.53561
11
5.63836
21
-3.53573
0
LINE
8
BLACK
6
CONTINUOUS
10
5.63836
20
-3.53573
11
5.63983
21
-3.53712
0
LINE
8
BLACK
6
CONTINUOUS
10
5.63983
20
-3.53712
11
5.64006
21
-3.53912
0
LINE
8
BLACK
6
CONTINUOUS
10
5.64006
20
-3.53912
11
5.63069
21
-3.57849
0
LINE
8
BLACK
6
CONTINUOUS
10
5.63069
20
-3.57849
11
5.63028
21
-3.57944
0
LINE
8
BLACK
6
CONTINUOUS
10
5.63028
20
-3.57944
11
5.63003
21
-3.57962
0
LINE
8
BLACK
6
CONTINUOUS
10
5.63003
20
-3.57962
11
5.6299
21
-3.5799
0
LINE
8
BLACK
6
CONTINUOUS
10
5.6299
20
-3.5799
11
5.62924
21
-3.58021
0
LINE
8
BLACK
6
CONTINUOUS
10
5.62924
20
-3.58021
11
5.62866
21
-3.58064
0
LINE
8
BLACK
6
CONTINUOUS
10
5.62866
20
-3.58064
11
5.62835
21
-3.58062
0
LINE
8
BLACK
6
CONTINUOUS
10
5.62835
20
-3.58062
11
5.62807
21
-3.58075
0
LINE
8
BLACK
6
CONTINUOUS
10
5.62807
20
-3.58075
11
5.62737
21
-3.58056
0
LINE
8
BLACK
6
CONTINUOUS
10
5.62737
20
-3.58056
11
5.62664
21
-3.58052
0
LINE
8
BLACK
6
CONTINUOUS
10
5.62664
20
-3.58052
11
5.62642
21
-3.58031
0
LINE
8
BLACK
6
CONTINUOUS
10
5.62642
20
-3.58031
11
5.62612
21
-3.58023
0
LINE
8
BLACK
6
CONTINUOUS
10
5.62612
20
-3.58023
11
5.6257
21
-3.57963
0
LINE
8
BLACK
6
CONTINUOUS
10
5.6257
20
-3.57963
11
5.62517
21
-3.57913
0
LINE
8
BLACK
6
CONTINUOUS
10
5.62517
20
-3.57913
11
5.62514
21
-3.57883
0
LINE
8
BLACK
6
CONTINUOUS
10
5.62514
20
-3.57883
11
5.62496
21
-3.57857
0
LINE
8
BLACK
6
CONTINUOUS
10
5.62496
20
-3.57857
11
5.62031
21
-3.56115
0
LINE
8
BLACK
6
CONTINUOUS
10
5.62031
20
-3.56115
11
5.61567
21
-3.57857
0
LINE
8
BLACK
6
CONTINUOUS
10
5.61567
20
-3.57857
11
5.61524
21
-3.5795
0
LINE
8
BLACK
6
CONTINUOUS
10
5.61524
20
-3.5795
11
5.61498
21
-3.57968
0
LINE
8
BLACK
6
CONTINUOUS
10
5.61498
20
-3.57968
11
5.61484
21
-3.57996
0
LINE
8
BLACK
6
CONTINUOUS
10
5.61484
20
-3.57996
11
5.61418
21
-3.58024
0
LINE
8
BLACK
6
CONTINUOUS
10
5.61418
20
-3.58024
11
5.61358
21
-3.58066
0
LINE
8
BLACK
6
CONTINUOUS
10
5.61358
20
-3.58066
11
5.61327
21
-3.58063
0
LINE
8
BLACK
6
CONTINUOUS
10
5.61327
20
-3.58063
11
5.61299
21
-3.58076
0
LINE
8
BLACK
6
CONTINUOUS
10
5.61299
20
-3.58076
11
5.61229
21
-3.58055
0
LINE
8
BLACK
6
CONTINUOUS
10
5.61229
20
-3.58055
11
5.61157
21
-3.58049
0
LINE
8
BLACK
6
CONTINUOUS
10
5.61157
20
-3.58049
11
5.61135
21
-3.58027
0
LINE
8
BLACK
6
CONTINUOUS
10
5.61135
20
-3.58027
11
5.61106
21
-3.58018
0
LINE
8
BLACK
6
CONTINUOUS
10
5.61106
20
-3.58018
11
5.61066
21
-3.57957
0
LINE
8
BLACK
6
CONTINUOUS
10
5.61066
20
-3.57957
11
5.61014
21
-3.57906
0
LINE
8
BLACK
6
CONTINUOUS
10
5.61014
20
-3.57906
11
5.61011
21
-3.57875
0
LINE
8
BLACK
6
CONTINUOUS
10
5.61011
20
-3.57875
11
5.60994
21
-3.57849
0
LINE
8
BLACK
6
CONTINUOUS
10
5.60994
20
-3.57849
11
5.60057
21
-3.53912
0
LINE
8
BLACK
6
CONTINUOUS
10
5.60057
20
-3.53912
11
5.60051
21
-3.5381
0
LINE
8
BLACK
6
CONTINUOUS
10
5.60051
20
-3.5381
11
5.60141
21
-3.53629
0
LINE
8
BLACK
6
CONTINUOUS
10
5.60141
20
-3.53629
11
5.60327
21
-3.53549
0
LINE
8
BLACK
6
CONTINUOUS
10
5.60327
20
-3.53549
11
5.6052
21
-3.53607
0
LINE
8
BLACK
6
CONTINUOUS
10
5.66819
20
-3.53567
11
5.66833
21
-3.53578
0
LINE
8
BLACK
6
CONTINUOUS
10
5.66833
20
-3.53578
11
5.6685
21
-3.5358
0
LINE
8
BLACK
6
CONTINUOUS
10
5.6685
20
-3.5358
11
5.67225
21
-3.53767
0
LINE
8
BLACK
6
CONTINUOUS
10
5.67225
20
-3.53767
11
5.67296
21
-3.5382
0
LINE
8
BLACK
6
CONTINUOUS
10
5.67296
20
-3.5382
11
5.67302
21
-3.53823
0
LINE
8
BLACK
6
CONTINUOUS
10
5.67302
20
-3.53823
11
5.6749
21
-3.5401
0
LINE
8
BLACK
6
CONTINUOUS
10
5.6749
20
-3.5401
11
5.6754
21
-3.54082
0
LINE
8
BLACK
6
CONTINUOUS
10
5.6754
20
-3.54082
11
5.67545
21
-3.54087
0
LINE
8
BLACK
6
CONTINUOUS
10
5.67545
20
-3.54087
11
5.67732
21
-3.54462
0
LINE
8
BLACK
6
CONTINUOUS
10
5.67732
20
-3.54462
11
5.67762
21
-3.5456
0
LINE
8
BLACK
6
CONTINUOUS
10
5.67762
20
-3.5456
11
5.67758
21
-3.54577
0
LINE
8
BLACK
6
CONTINUOUS
10
5.67758
20
-3.54577
11
5.67764
21
-3.54594
0
LINE
8
BLACK
6
CONTINUOUS
10
5.67764
20
-3.54594
11
5.67764
21
-3.55156
0
LINE
8
BLACK
6
CONTINUOUS
10
5.67764
20
-3.55156
11
5.67746
21
-3.55257
0
LINE
8
BLACK
6
CONTINUOUS
10
5.67746
20
-3.55257
11
5.67734
21
-3.55271
0
LINE
8
BLACK
6
CONTINUOUS
10
5.67734
20
-3.55271
11
5.67732
21
-3.55288
0
LINE
8
BLACK
6
CONTINUOUS
10
5.67732
20
-3.55288
11
5.67545
21
-3.55663
0
LINE
8
BLACK
6
CONTINUOUS
10
5.67545
20
-3.55663
11
5.67492
21
-3.55734
0
LINE
8
BLACK
6
CONTINUOUS
10
5.67492
20
-3.55734
11
5.6749
21
-3.5574
0
LINE
8
BLACK
6
CONTINUOUS
10
5.6749
20
-3.5574
11
5.67302
21
-3.55928
0
LINE
8
BLACK
6
CONTINUOUS
10
5.67302
20
-3.55928
11
5.6723
21
-3.55978
0
LINE
8
BLACK
6
CONTINUOUS
10
5.6723
20
-3.55978
11
5.67225
21
-3.55983
0
LINE
8
BLACK
6
CONTINUOUS
10
5.67225
20
-3.55983
11
5.6685
21
-3.5617
0
LINE
8
BLACK
6
CONTINUOUS
10
5.6685
20
-3.5617
11
5.66752
21
-3.562
0
LINE
8
BLACK
6
CONTINUOUS
10
5.66752
20
-3.562
11
5.66735
21
-3.56195
0
LINE
8
BLACK
6
CONTINUOUS
10
5.66735
20
-3.56195
11
5.66718
21
-3.56202
0
LINE
8
BLACK
6
CONTINUOUS
10
5.66718
20
-3.56202
11
5.65514
21
-3.56202
0
LINE
8
BLACK
6
CONTINUOUS
10
5.65514
20
-3.56202
11
5.65514
21
-3.57781
0
LINE
8
BLACK
6
CONTINUOUS
10
5.65514
20
-3.57781
11
5.65496
21
-3.57882
0
LINE
8
BLACK
6
CONTINUOUS
10
5.65496
20
-3.57882
11
5.65366
21
-3.58037
0
LINE
8
BLACK
6
CONTINUOUS
10
5.65366
20
-3.58037
11
5.65167
21
-3.58072
0
LINE
8
BLACK
6
CONTINUOUS
10
5.65167
20
-3.58072
11
5.64992
21
-3.57971
0
LINE
8
BLACK
6
CONTINUOUS
10
5.64992
20
-3.57971
11
5.64923
21
-3.57781
0
LINE
8
BLACK
6
CONTINUOUS
10
5.64923
20
-3.57781
11
5.64923
21
-3.53844
0
LINE
8
BLACK
6
CONTINUOUS
10
5.64923
20
-3.53844
11
5.6493
21
-3.53806
0
LINE
8
BLACK
6
CONTINUOUS
10
5.6493
20
-3.53806
11
5.64928
21
-3.53793
0
LINE
8
BLACK
6
CONTINUOUS
10
5.64928
20
-3.53793
11
5.64934
21
-3.53781
0
LINE
8
BLACK
6
CONTINUOUS
10
5.64934
20
-3.53781
11
5.64941
21
-3.53743
0
LINE
8
BLACK
6
CONTINUOUS
10
5.64941
20
-3.53743
11
5.6499
21
-3.53684
0
LINE
8
BLACK
6
CONTINUOUS
10
5.6499
20
-3.53684
11
5.65029
21
-3.53618
0
LINE
8
BLACK
6
CONTINUOUS
10
5.65029
20
-3.53618
11
5.65054
21
-3.53609
0
LINE
8
BLACK
6
CONTINUOUS
10
5.65054
20
-3.53609
11
5.65071
21
-3.53588
0
LINE
8
BLACK
6
CONTINUOUS
10
5.65071
20
-3.53588
11
5.65147
21
-3.53575
0
LINE
8
BLACK
6
CONTINUOUS
10
5.65147
20
-3.53575
11
5.65219
21
-3.53549
0
LINE
8
BLACK
6
CONTINUOUS
10
5.65219
20
-3.53549
11
5.66718
21
-3.53549
0
LINE
8
BLACK
6
CONTINUOUS
10
5.66718
20
-3.53549
11
5.66819
21
-3.53567
0
LINE
8
BLACK
6
CONTINUOUS
10
5.65514
20
-3.54139
11
5.65514
21
-3.55611
0
LINE
8
BLACK
6
CONTINUOUS
10
5.65514
20
-3.55611
11
5.66649
21
-3.55611
0
LINE
8
BLACK
6
CONTINUOUS
10
5.66649
20
-3.55611
11
5.66918
21
-3.55476
0
LINE
8
BLACK
6
CONTINUOUS
10
5.66918
20
-3.55476
11
5.67038
21
-3.55356
0
LINE
8
BLACK
6
CONTINUOUS
10
5.67038
20
-3.55356
11
5.67173
21
-3.55087
0
LINE
8
BLACK
6
CONTINUOUS
10
5.67173
20
-3.55087
11
5.67173
21
-3.54664
0
LINE
8
BLACK
6
CONTINUOUS
10
5.67173
20
-3.54664
11
5.67038
21
-3.54394
0
LINE
8
BLACK
6
CONTINUOUS
10
5.67038
20
-3.54394
11
5.66918
21
-3.54274
0
LINE
8
BLACK
6
CONTINUOUS
10
5.66918
20
-3.54274
11
5.66649
21
-3.54139
0
LINE
8
BLACK
6
CONTINUOUS
10
5.66649
20
-3.54139
11
5.65514
21
-3.54139
0
LINE
8
BLACK
6
CONTINUOUS
10
5.92695
20
-3.52567
11
5.92708
21
-3.52578
0
LINE
8
BLACK
6
CONTINUOUS
10
5.92708
20
-3.52578
11
5.92726
21
-3.5258
0
LINE
8
BLACK
6
CONTINUOUS
10
5.92726
20
-3.5258
11
5.93101
21
-3.52767
0
LINE
8
BLACK
6
CONTINUOUS
10
5.93101
20
-3.52767
11
5.93183
21
-3.52828
0
LINE
8
BLACK
6
CONTINUOUS
10
5.93183
20
-3.52828
11
5.93264
21
-3.53014
0
LINE
8
BLACK
6
CONTINUOUS
10
5.93264
20
-3.53014
11
5.93206
21
-3.53207
0
LINE
8
BLACK
6
CONTINUOUS
10
5.93206
20
-3.53207
11
5.93037
21
-3.53319
0
LINE
8
BLACK
6
CONTINUOUS
10
5.93037
20
-3.53319
11
5.92837
21
-3.53296
0
LINE
8
BLACK
6
CONTINUOUS
10
5.92837
20
-3.53296
11
5.92524
21
-3.53139
0
LINE
8
BLACK
6
CONTINUOUS
10
5.92524
20
-3.53139
11
5.92079
21
-3.53139
0
LINE
8
BLACK
6
CONTINUOUS
10
5.92079
20
-3.53139
11
5.91629
21
-3.5329
0
LINE
8
BLACK
6
CONTINUOUS
10
5.91629
20
-3.5329
11
5.91337
21
-3.53581
0
LINE
8
BLACK
6
CONTINUOUS
10
5.91337
20
-3.53581
11
5.91185
21
-3.53884
0
LINE
8
BLACK
6
CONTINUOUS
10
5.91185
20
-3.53884
11
5.91014
21
-3.54568
0
LINE
8
BLACK
6
CONTINUOUS
10
5.91014
20
-3.54568
11
5.91014
21
-3.55057
0
LINE
8
BLACK
6
CONTINUOUS
10
5.91014
20
-3.55057
11
5.91185
21
-3.55741
0
LINE
8
BLACK
6
CONTINUOUS
10
5.91185
20
-3.55741
11
5.91337
21
-3.56044
0
LINE
8
BLACK
6
CONTINUOUS
10
5.91337
20
-3.56044
11
5.91629
21
-3.56335
0
LINE
8
BLACK
6
CONTINUOUS
10
5.91629
20
-3.56335
11
5.92079
21
-3.56486
0
LINE
8
BLACK
6
CONTINUOUS
10
5.92079
20
-3.56486
11
5.92359
21
-3.56486
0
LINE
8
BLACK
6
CONTINUOUS
10
5.92359
20
-3.56486
11
5.92809
21
-3.56335
0
LINE
8
BLACK
6
CONTINUOUS
10
5.92809
20
-3.56335
11
5.92861
21
-3.56284
0
LINE
8
BLACK
6
CONTINUOUS
10
5.92861
20
-3.56284
11
5.92861
21
-3.55389
0
LINE
8
BLACK
6
CONTINUOUS
10
5.92861
20
-3.55389
11
5.92406
21
-3.55389
0
LINE
8
BLACK
6
CONTINUOUS
10
5.92406
20
-3.55389
11
5.92305
21
-3.55371
0
LINE
8
BLACK
6
CONTINUOUS
10
5.92305
20
-3.55371
11
5.92151
21
-3.55241
0
LINE
8
BLACK
6
CONTINUOUS
10
5.92151
20
-3.55241
11
5.92116
21
-3.55042
0
LINE
8
BLACK
6
CONTINUOUS
10
5.92116
20
-3.55042
11
5.92217
21
-3.54868
0
LINE
8
BLACK
6
CONTINUOUS
10
5.92217
20
-3.54868
11
5.92406
21
-3.54798
0
LINE
8
BLACK
6
CONTINUOUS
10
5.92406
20
-3.54798
11
5.93156
21
-3.54798
0
LINE
8
BLACK
6
CONTINUOUS
10
5.93156
20
-3.54798
11
5.93195
21
-3.54805
0
LINE
8
BLACK
6
CONTINUOUS
10
5.93195
20
-3.54805
11
5.93208
21
-3.54803
0
LINE
8
BLACK
6
CONTINUOUS
10
5.93208
20
-3.54803
11
5.93219
21
-3.5481
0
LINE
8
BLACK
6
CONTINUOUS
10
5.93219
20
-3.5481
11
5.93257
21
-3.54816
0
LINE
8
BLACK
6
CONTINUOUS
10
5.93257
20
-3.54816
11
5.93316
21
-3.54866
0
LINE
8
BLACK
6
CONTINUOUS
10
5.93316
20
-3.54866
11
5.93383
21
-3.54904
0
LINE
8
BLACK
6
CONTINUOUS
10
5.93383
20
-3.54904
11
5.93392
21
-3.54929
0
LINE
8
BLACK
6
CONTINUOUS
10
5.93392
20
-3.54929
11
5.93412
21
-3.54946
0
LINE
8
BLACK
6
CONTINUOUS
10
5.93412
20
-3.54946
11
5.93425
21
-3.55022
0
LINE
8
BLACK
6
CONTINUOUS
10
5.93425
20
-3.55022
11
5.93452
21
-3.55094
0
LINE
8
BLACK
6
CONTINUOUS
10
5.93452
20
-3.55094
11
5.93452
21
-3.56406
0
LINE
8
BLACK
6
CONTINUOUS
10
5.93452
20
-3.56406
11
5.93448
21
-3.56424
0
LINE
8
BLACK
6
CONTINUOUS
10
5.93448
20
-3.56424
11
5.93451
21
-3.56432
0
LINE
8
BLACK
6
CONTINUOUS
10
5.93451
20
-3.56432
11
5.93445
21
-3.56444
0
LINE
8
BLACK
6
CONTINUOUS
10
5.93445
20
-3.56444
11
5.93434
21
-3.56507
0
LINE
8
BLACK
6
CONTINUOUS
10
5.93434
20
-3.56507
11
5.93392
21
-3.56556
0
LINE
8
BLACK
6
CONTINUOUS
10
5.93392
20
-3.56556
11
5.93365
21
-3.56615
0
LINE
8
BLACK
6
CONTINUOUS
10
5.93365
20
-3.56615
11
5.93178
21
-3.56802
0
LINE
8
BLACK
6
CONTINUOUS
10
5.93178
20
-3.56802
11
5.93094
21
-3.56861
0
LINE
8
BLACK
6
CONTINUOUS
10
5.93094
20
-3.56861
11
5.93076
21
-3.56863
0
LINE
8
BLACK
6
CONTINUOUS
10
5.93076
20
-3.56863
11
5.93062
21
-3.56874
0
LINE
8
BLACK
6
CONTINUOUS
10
5.93062
20
-3.56874
11
5.925
21
-3.57061
0
LINE
8
BLACK
6
CONTINUOUS
10
5.925
20
-3.57061
11
5.92413
21
-3.57074
0
LINE
8
BLACK
6
CONTINUOUS
10
5.92413
20
-3.57074
11
5.92406
21
-3.57076
0
LINE
8
BLACK
6
CONTINUOUS
10
5.92406
20
-3.57076
11
5.92031
21
-3.57076
0
LINE
8
BLACK
6
CONTINUOUS
10
5.92031
20
-3.57076
11
5.91945
21
-3.57061
0
LINE
8
BLACK
6
CONTINUOUS
10
5.91945
20
-3.57061
11
5.91938
21
-3.57061
0
LINE
8
BLACK
6
CONTINUOUS
10
5.91938
20
-3.57061
11
5.91376
21
-3.56874
0
LINE
8
BLACK
6
CONTINUOUS
10
5.91376
20
-3.56874
11
5.91286
21
-3.56825
0
LINE
8
BLACK
6
CONTINUOUS
10
5.91286
20
-3.56825
11
5.91276
21
-3.5681
0
LINE
8
BLACK
6
CONTINUOUS
10
5.91276
20
-3.5681
11
5.9126
21
-3.56802
0
LINE
8
BLACK
6
CONTINUOUS
10
5.9126
20
-3.56802
11
5.90885
21
-3.56427
0
LINE
8
BLACK
6
CONTINUOUS
10
5.90885
20
-3.56427
11
5.90835
21
-3.56355
0
LINE
8
BLACK
6
CONTINUOUS
10
5.90835
20
-3.56355
11
5.9083
21
-3.56351
0
LINE
8
BLACK
6
CONTINUOUS
10
5.9083
20
-3.56351
11
5.90643
21
-3.55976
0
LINE
8
BLACK
6
CONTINUOUS
10
5.90643
20
-3.55976
11
5.90628
21
-3.55927
0
LINE
8
BLACK
6
CONTINUOUS
10
5.90628
20
-3.55927
11
5.9062
21
-3.55915
0
LINE
8
BLACK
6
CONTINUOUS
10
5.9062
20
-3.55915
11
5.90433
21
-3.55165
0
LINE
8
BLACK
6
CONTINUOUS
10
5.90433
20
-3.55165
11
5.90429
21
-3.55107
0
LINE
8
BLACK
6
CONTINUOUS
10
5.90429
20
-3.55107
11
5.90424
21
-3.55094
0
LINE
8
BLACK
6
CONTINUOUS
10
5.90424
20
-3.55094
11
5.90424
21
-3.54531
0
LINE
8
BLACK
6
CONTINUOUS
10
5.90424
20
-3.54531
11
5.90434
21
-3.54473
0
LINE
8
BLACK
6
CONTINUOUS
10
5.90434
20
-3.54473
11
5.90433
21
-3.5446
0
LINE
8
BLACK
6
CONTINUOUS
10
5.90433
20
-3.5446
11
5.9062
21
-3.5371
0
LINE
8
BLACK
6
CONTINUOUS
10
5.9062
20
-3.5371
11
5.90641
21
-3.53663
0
LINE
8
BLACK
6
CONTINUOUS
10
5.90641
20
-3.53663
11
5.90643
21
-3.53649
0
LINE
8
BLACK
6
CONTINUOUS
10
5.90643
20
-3.53649
11
5.9083
21
-3.53274
0
LINE
8
BLACK
6
CONTINUOUS
10
5.9083
20
-3.53274
11
5.90883
21
-3.53203
0
LINE
8
BLACK
6
CONTINUOUS
10
5.90883
20
-3.53203
11
5.90885
21
-3.53198
0
LINE
8
BLACK
6
CONTINUOUS
10
5.90885
20
-3.53198
11
5.9126
21
-3.52823
0
LINE
8
BLACK
6
CONTINUOUS
10
5.9126
20
-3.52823
11
5.91344
21
-3.52764
0
LINE
8
BLACK
6
CONTINUOUS
10
5.91344
20
-3.52764
11
5.91362
21
-3.52762
0
LINE
8
BLACK
6
CONTINUOUS
10
5.91362
20
-3.52762
11
5.91376
21
-3.52751
0
LINE
8
BLACK
6
CONTINUOUS
10
5.91376
20
-3.52751
11
5.91938
21
-3.52564
0
LINE
8
BLACK
6
CONTINUOUS
10
5.91938
20
-3.52564
11
5.92025
21
-3.52551
0
LINE
8
BLACK
6
CONTINUOUS
10
5.92025
20
-3.52551
11
5.92031
21
-3.52549
0
LINE
8
BLACK
6
CONTINUOUS
10
5.92031
20
-3.52549
11
5.92594
21
-3.52549
0
LINE
8
BLACK
6
CONTINUOUS
10
5.92594
20
-3.52549
11
5.92695
21
-3.52567
0
LINE
8
BLACK
6
CONTINUOUS
10
5.9732
20
-3.52654
11
5.97389
21
-3.52844
0
LINE
8
BLACK
6
CONTINUOUS
10
5.97389
20
-3.52844
11
5.97389
21
-3.56781
0
LINE
8
BLACK
6
CONTINUOUS
10
5.97389
20
-3.56781
11
5.97371
21
-3.56882
0
LINE
8
BLACK
6
CONTINUOUS
10
5.97371
20
-3.56882
11
5.97353
21
-3.56903
0
LINE
8
BLACK
6
CONTINUOUS
10
5.97353
20
-3.56903
11
5.97348
21
-3.5693
0
LINE
8
BLACK
6
CONTINUOUS
10
5.97348
20
-3.5693
11
5.9729
21
-3.56978
0
LINE
8
BLACK
6
CONTINUOUS
10
5.9729
20
-3.56978
11
5.97241
21
-3.57037
0
LINE
8
BLACK
6
CONTINUOUS
10
5.97241
20
-3.57037
11
5.97214
21
-3.57041
0
LINE
8
BLACK
6
CONTINUOUS
10
5.97214
20
-3.57041
11
5.97193
21
-3.57059
0
LINE
8
BLACK
6
CONTINUOUS
10
5.97193
20
-3.57059
11
5.97117
21
-3.57059
0
LINE
8
BLACK
6
CONTINUOUS
10
5.97117
20
-3.57059
11
5.97042
21
-3.57072
0
LINE
8
BLACK
6
CONTINUOUS
10
5.97042
20
-3.57072
11
5.97018
21
-3.57058
0
LINE
8
BLACK
6
CONTINUOUS
10
5.97018
20
-3.57058
11
5.96991
21
-3.57058
0
LINE
8
BLACK
6
CONTINUOUS
10
5.96991
20
-3.57058
11
5.96933
21
-3.57009
0
LINE
8
BLACK
6
CONTINUOUS
10
5.96933
20
-3.57009
11
5.96867
21
-3.56971
0
LINE
8
BLACK
6
CONTINUOUS
10
5.96867
20
-3.56971
11
5.96858
21
-3.56945
0
LINE
8
BLACK
6
CONTINUOUS
10
5.96858
20
-3.56945
11
5.96837
21
-3.56928
0
LINE
8
BLACK
6
CONTINUOUS
10
5.96837
20
-3.56928
11
5.95139
21
-3.53956
0
LINE
8
BLACK
6
CONTINUOUS
10
5.95139
20
-3.53956
11
5.95139
21
-3.56781
0
LINE
8
BLACK
6
CONTINUOUS
10
5.95139
20
-3.56781
11
5.95121
21
-3.56882
0
LINE
8
BLACK
6
CONTINUOUS
10
5.95121
20
-3.56882
11
5.94991
21
-3.57037
0
LINE
8
BLACK
6
CONTINUOUS
10
5.94991
20
-3.57037
11
5.94792
21
-3.57072
0
LINE
8
BLACK
6
CONTINUOUS
10
5.94792
20
-3.57072
11
5.94617
21
-3.56971
0
LINE
8
BLACK
6
CONTINUOUS
10
5.94617
20
-3.56971
11
5.94548
21
-3.56781
0
LINE
8
BLACK
6
CONTINUOUS
10
5.94548
20
-3.56781
11
5.94548
21
-3.52844
0
LINE
8
BLACK
6
CONTINUOUS
10
5.94548
20
-3.52844
11
5.94566
21
-3.52743
0
LINE
8
BLACK
6
CONTINUOUS
10
5.94566
20
-3.52743
11
5.94584
21
-3.52722
0
LINE
8
BLACK
6
CONTINUOUS
10
5.94584
20
-3.52722
11
5.94589
21
-3.52695
0
LINE
8
BLACK
6
CONTINUOUS
10
5.94589
20
-3.52695
11
5.94647
21
-3.52647
0
LINE
8
BLACK
6
CONTINUOUS
10
5.94647
20
-3.52647
11
5.94696
21
-3.52588
0
LINE
8
BLACK
6
CONTINUOUS
10
5.94696
20
-3.52588
11
5.94723
21
-3.52584
0
LINE
8
BLACK
6
CONTINUOUS
10
5.94723
20
-3.52584
11
5.94744
21
-3.52566
0
LINE
8
BLACK
6
CONTINUOUS
10
5.94744
20
-3.52566
11
5.9482
21
-3.52566
0
LINE
8
BLACK
6
CONTINUOUS
10
5.9482
20
-3.52566
11
5.94895
21
-3.52553
0
LINE
8
BLACK
6
CONTINUOUS
10
5.94895
20
-3.52553
11
5.94919
21
-3.52567
0
LINE
8
BLACK
6
CONTINUOUS
10
5.94919
20
-3.52567
11
5.94946
21
-3.52567
0
LINE
8
BLACK
6
CONTINUOUS
10
5.94946
20
-3.52567
11
5.95004
21
-3.52616
0
LINE
8
BLACK
6
CONTINUOUS
10
5.95004
20
-3.52616
11
5.9507
21
-3.52654
0
LINE
8
BLACK
6
CONTINUOUS
10
5.9507
20
-3.52654
11
5.95079
21
-3.5268
0
LINE
8
BLACK
6
CONTINUOUS
10
5.95079
20
-3.5268
11
5.951
21
-3.52698
0
LINE
8
BLACK
6
CONTINUOUS
10
5.951
20
-3.52698
11
5.96798
21
-3.55669
0
LINE
8
BLACK
6
CONTINUOUS
10
5.96798
20
-3.55669
11
5.96798
21
-3.52844
0
LINE
8
BLACK
6
CONTINUOUS
10
5.96798
20
-3.52844
11
5.96816
21
-3.52743
0
LINE
8
BLACK
6
CONTINUOUS
10
5.96816
20
-3.52743
11
5.96946
21
-3.52588
0
LINE
8
BLACK
6
CONTINUOUS
10
5.96946
20
-3.52588
11
5.97145
21
-3.52553
0
LINE
8
BLACK
6
CONTINUOUS
10
5.97145
20
-3.52553
11
5.9732
21
-3.52654
0
LINE
8
BLACK
6
CONTINUOUS
10
5.59681
20
-3.5301
11
5.59526
21
-3.5288
0
LINE
8
BLACK
6
CONTINUOUS
10
5.59526
20
-3.5288
11
5.59491
21
-3.52681
0
LINE
8
BLACK
6
CONTINUOUS
10
5.59491
20
-3.52681
11
5.59592
21
-3.52506
0
LINE
8
BLACK
6
CONTINUOUS
10
5.59592
20
-3.52506
11
5.59782
21
-3.52437
0
LINE
8
BLACK
6
CONTINUOUS
10
5.59782
20
-3.52437
11
5.68218
21
-3.52437
0
LINE
8
BLACK
6
CONTINUOUS
10
5.68218
20
-3.52437
11
5.68319
21
-3.52455
0
LINE
8
BLACK
6
CONTINUOUS
10
5.68319
20
-3.52455
11
5.68474
21
-3.52585
0
LINE
8
BLACK
6
CONTINUOUS
10
5.68474
20
-3.52585
11
5.68509
21
-3.52784
0
LINE
8
BLACK
6
CONTINUOUS
10
5.68509
20
-3.52784
11
5.68408
21
-3.52958
0
LINE
8
BLACK
6
CONTINUOUS
10
5.68408
20
-3.52958
11
5.68218
21
-3.53028
0
LINE
8
BLACK
6
CONTINUOUS
10
5.68218
20
-3.53028
11
5.59782
21
-3.53028
0
LINE
8
BLACK
6
CONTINUOUS
10
5.59782
20
-3.53028
11
5.59681
21
-3.5301
0
LINE
8
BLACK
6
CONTINUOUS
10
5.476
20
-3.47905
11
5.47755
21
-3.48035
0
LINE
8
BLACK
6
CONTINUOUS
10
5.47755
20
-3.48035
11
5.4779
21
-3.48234
0
LINE
8
BLACK
6
CONTINUOUS
10
5.4779
20
-3.48234
11
5.47689
21
-3.48409
0
LINE
8
BLACK
6
CONTINUOUS
10
5.47689
20
-3.48409
11
5.47499
21
-3.48478
0
LINE
8
BLACK
6
CONTINUOUS
10
5.47499
20
-3.48478
11
5.46819
21
-3.48478
0
LINE
8
BLACK
6
CONTINUOUS
10
5.46819
20
-3.48478
11
5.46549
21
-3.48613
0
LINE
8
BLACK
6
CONTINUOUS
10
5.46549
20
-3.48613
11
5.46416
21
-3.48746
0
LINE
8
BLACK
6
CONTINUOUS
10
5.46416
20
-3.48746
11
5.46086
21
-3.49241
0
LINE
8
BLACK
6
CONTINUOUS
10
5.46086
20
-3.49241
11
5.46013
21
-3.49533
0
LINE
8
BLACK
6
CONTINUOUS
10
5.46013
20
-3.49533
11
5.46242
21
-3.49418
0
LINE
8
BLACK
6
CONTINUOUS
10
5.46242
20
-3.49418
11
5.4634
21
-3.49389
0
LINE
8
BLACK
6
CONTINUOUS
10
5.4634
20
-3.49389
11
5.46358
21
-3.49393
0
LINE
8
BLACK
6
CONTINUOUS
10
5.46358
20
-3.49393
11
5.46374
21
-3.49387
0
LINE
8
BLACK
6
CONTINUOUS
10
5.46374
20
-3.49387
11
5.47124
21
-3.49387
0
LINE
8
BLACK
6
CONTINUOUS
10
5.47124
20
-3.49387
11
5.47225
21
-3.49405
0
LINE
8
BLACK
6
CONTINUOUS
10
5.47225
20
-3.49405
11
5.47239
21
-3.49416
0
LINE
8
BLACK
6
CONTINUOUS
10
5.47239
20
-3.49416
11
5.47256
21
-3.49418
0
LINE
8
BLACK
6
CONTINUOUS
10
5.47256
20
-3.49418
11
5.47631
21
-3.49606
0
LINE
8
BLACK
6
CONTINUOUS
10
5.47631
20
-3.49606
11
5.47702
21
-3.49658
0
LINE
8
BLACK
6
CONTINUOUS
10
5.47702
20
-3.49658
11
5.47708
21
-3.49661
0
LINE
8
BLACK
6
CONTINUOUS
10
5.47708
20
-3.49661
11
5.47895
21
-3.49849
0
LINE
8
BLACK
6
CONTINUOUS
10
5.47895
20
-3.49849
11
5.47946
21
-3.49921
0
LINE
8
BLACK
6
CONTINUOUS
10
5.47946
20
-3.49921
11
5.47951
21
-3.49925
0
LINE
8
BLACK
6
CONTINUOUS
10
5.47951
20
-3.49925
11
5.48138
21
-3.503
0
LINE
8
BLACK
6
CONTINUOUS
10
5.48138
20
-3.503
11
5.48167
21
-3.50399
0
LINE
8
BLACK
6
CONTINUOUS
10
5.48167
20
-3.50399
11
5.48163
21
-3.50416
0
LINE
8
BLACK
6
CONTINUOUS
10
5.48163
20
-3.50416
11
5.48169
21
-3.50432
0
LINE
8
BLACK
6
CONTINUOUS
10
5.48169
20
-3.50432
11
5.48169
21
-3.5137
0
LINE
8
BLACK
6
CONTINUOUS
10
5.48169
20
-3.5137
11
5.48151
21
-3.51471
0
LINE
8
BLACK
6
CONTINUOUS
10
5.48151
20
-3.51471
11
5.4814
21
-3.51484
0
LINE
8
BLACK
6
CONTINUOUS
10
5.4814
20
-3.51484
11
5.48138
21
-3.51502
0
LINE
8
BLACK
6
CONTINUOUS
10
5.48138
20
-3.51502
11
5.47951
21
-3.51877
0
LINE
8
BLACK
6
CONTINUOUS
10
5.47951
20
-3.51877
11
5.47898
21
-3.51948
0
LINE
8
BLACK
6
CONTINUOUS
10
5.47898
20
-3.51948
11
5.47895
21
-3.51953
0
LINE
8
BLACK
6
CONTINUOUS
10
5.47895
20
-3.51953
11
5.47708
21
-3.52141
0
LINE
8
BLACK
6
CONTINUOUS
10
5.47708
20
-3.52141
11
5.47636
21
-3.52192
0
LINE
8
BLACK
6
CONTINUOUS
10
5.47636
20
-3.52192
11
5.47631
21
-3.52196
0
LINE
8
BLACK
6
CONTINUOUS
10
5.47631
20
-3.52196
11
5.47256
21
-3.52384
0
LINE
8
BLACK
6
CONTINUOUS
10
5.47256
20
-3.52384
11
5.47158
21
-3.52413
0
LINE
8
BLACK
6
CONTINUOUS
10
5.47158
20
-3.52413
11
5.47141
21
-3.52409
0
LINE
8
BLACK
6
CONTINUOUS
10
5.47141
20
-3.52409
11
5.47124
21
-3.52415
0
LINE
8
BLACK
6
CONTINUOUS
10
5.47124
20
-3.52415
11
5.46374
21
-3.52415
0
LINE
8
BLACK
6
CONTINUOUS
10
5.46374
20
-3.52415
11
5.46273
21
-3.52397
0
LINE
8
BLACK
6
CONTINUOUS
10
5.46273
20
-3.52397
11
5.4626
21
-3.52386
0
LINE
8
BLACK
6
CONTINUOUS
10
5.4626
20
-3.52386
11
5.46242
21
-3.52384
0
LINE
8
BLACK
6
CONTINUOUS
10
5.46242
20
-3.52384
11
5.45867
21
-3.52196
0
LINE
8
BLACK
6
CONTINUOUS
10
5.45867
20
-3.52196
11
5.45796
21
-3.52144
0
LINE
8
BLACK
6
CONTINUOUS
10
5.45796
20
-3.52144
11
5.4579
21
-3.52141
0
LINE
8
BLACK
6
CONTINUOUS
10
5.4579
20
-3.52141
11
5.45603
21
-3.51953
0
LINE
8
BLACK
6
CONTINUOUS
10
5.45603
20
-3.51953
11
5.45552
21
-3.51881
0
LINE
8
BLACK
6
CONTINUOUS
10
5.45552
20
-3.51881
11
5.45548
21
-3.51877
0
LINE
8
BLACK
6
CONTINUOUS
10
5.45548
20
-3.51877
11
5.4536
21
-3.51502
0
LINE
8
BLACK
6
CONTINUOUS
10
5.4536
20
-3.51502
11
5.45331
21
-3.51403
0
LINE
8
BLACK
6
CONTINUOUS
10
5.45331
20
-3.51403
11
5.45335
21
-3.51386
0
LINE
8
BLACK
6
CONTINUOUS
10
5.45335
20
-3.51386
11
5.45329
21
-3.5137
0
LINE
8
BLACK
6
CONTINUOUS
10
5.45329
20
-3.5137
11
5.45329
21
-3.4987
0
LINE
8
BLACK
6
CONTINUOUS
10
5.45329
20
-3.4987
11
5.45339
21
-3.49812
0
LINE
8
BLACK
6
CONTINUOUS
10
5.45339
20
-3.49812
11
5.45338
21
-3.49798
0
LINE
8
BLACK
6
CONTINUOUS
10
5.45338
20
-3.49798
11
5.45525
21
-3.49048
0
LINE
8
BLACK
6
CONTINUOUS
10
5.45525
20
-3.49048
11
5.45566
21
-3.48958
0
LINE
8
BLACK
6
CONTINUOUS
10
5.45566
20
-3.48958
11
5.45566
21
-3.48956
0
LINE
8
BLACK
6
CONTINUOUS
10
5.45566
20
-3.48956
11
5.45941
21
-3.48394
0
LINE
8
BLACK
6
CONTINUOUS
10
5.45941
20
-3.48394
11
5.45972
21
-3.48361
0
LINE
8
BLACK
6
CONTINUOUS
10
5.45972
20
-3.48361
11
5.45978
21
-3.48349
0
LINE
8
BLACK
6
CONTINUOUS
10
5.45978
20
-3.48349
11
5.46165
21
-3.48161
0
LINE
8
BLACK
6
CONTINUOUS
10
5.46165
20
-3.48161
11
5.46238
21
-3.48111
0
LINE
8
BLACK
6
CONTINUOUS
10
5.46238
20
-3.48111
11
5.46242
21
-3.48106
0
LINE
8
BLACK
6
CONTINUOUS
10
5.46242
20
-3.48106
11
5.46617
21
-3.47918
0
LINE
8
BLACK
6
CONTINUOUS
10
5.46617
20
-3.47918
11
5.46715
21
-3.47889
0
LINE
8
BLACK
6
CONTINUOUS
10
5.46715
20
-3.47889
11
5.46733
21
-3.47893
0
LINE
8
BLACK
6
CONTINUOUS
10
5.46733
20
-3.47893
11
5.46749
21
-3.47887
0
LINE
8
BLACK
6
CONTINUOUS
10
5.46749
20
-3.47887
11
5.47499
21
-3.47887
0
LINE
8
BLACK
6
CONTINUOUS
10
5.47499
20
-3.47887
11
5.476
21
-3.47905
0
LINE
8
BLACK
6
CONTINUOUS
10
5.46444
20
-3.49978
11
5.46174
21
-3.50113
0
LINE
8
BLACK
6
CONTINUOUS
10
5.46174
20
-3.50113
11
5.46054
21
-3.50232
0
LINE
8
BLACK
6
CONTINUOUS
10
5.46054
20
-3.50232
11
5.4592
21
-3.50502
0
LINE
8
BLACK
6
CONTINUOUS
10
5.4592
20
-3.50502
11
5.4592
21
-3.513
0
LINE
8
BLACK
6
CONTINUOUS
10
5.4592
20
-3.513
11
5.46054
21
-3.5157
0
LINE
8
BLACK
6
CONTINUOUS
10
5.46054
20
-3.5157
11
5.46174
21
-3.51689
0
LINE
8
BLACK
6
CONTINUOUS
10
5.46174
20
-3.51689
11
5.46444
21
-3.51824
0
LINE
8
BLACK
6
CONTINUOUS
10
5.46444
20
-3.51824
11
5.47054
21
-3.51824
0
LINE
8
BLACK
6
CONTINUOUS
10
5.47054
20
-3.51824
11
5.47324
21
-3.51689
0
LINE
8
BLACK
6
CONTINUOUS
10
5.47324
20
-3.51689
11
5.47444
21
-3.5157
0
LINE
8
BLACK
6
CONTINUOUS
10
5.47444
20
-3.5157
11
5.47579
21
-3.513
0
LINE
8
BLACK
6
CONTINUOUS
10
5.47579
20
-3.513
11
5.47579
21
-3.50502
0
LINE
8
BLACK
6
CONTINUOUS
10
5.47579
20
-3.50502
11
5.47444
21
-3.50232
0
LINE
8
BLACK
6
CONTINUOUS
10
5.47444
20
-3.50232
11
5.47324
21
-3.50113
0
LINE
8
BLACK
6
CONTINUOUS
10
5.47324
20
-3.50113
11
5.47054
21
-3.49978
0
LINE
8
BLACK
6
CONTINUOUS
10
5.47054
20
-3.49978
11
5.46444
21
-3.49978
0
LINE
8
BLACK
6
CONTINUOUS
10
5.32977
20
-3.47905
11
5.3299
21
-3.47916
0
LINE
8
BLACK
6
CONTINUOUS
10
5.3299
20
-3.47916
11
5.33008
21
-3.47918
0
LINE
8
BLACK
6
CONTINUOUS
10
5.33008
20
-3.47918
11
5.33383
21
-3.48106
0
LINE
8
BLACK
6
CONTINUOUS
10
5.33383
20
-3.48106
11
5.33454
21
-3.48159
0
LINE
8
BLACK
6
CONTINUOUS
10
5.33454
20
-3.48159
11
5.3346
21
-3.48161
0
LINE
8
BLACK
6
CONTINUOUS
10
5.3346
20
-3.48161
11
5.33647
21
-3.48349
0
LINE
8
BLACK
6
CONTINUOUS
10
5.33647
20
-3.48349
11
5.33698
21
-3.48421
0
LINE
8
BLACK
6
CONTINUOUS
10
5.33698
20
-3.48421
11
5.33702
21
-3.48426
0
LINE
8
BLACK
6
CONTINUOUS
10
5.33702
20
-3.48426
11
5.3389
21
-3.488
0
LINE
8
BLACK
6
CONTINUOUS
10
5.3389
20
-3.488
11
5.33919
21
-3.48899
0
LINE
8
BLACK
6
CONTINUOUS
10
5.33919
20
-3.48899
11
5.33915
21
-3.48916
0
LINE
8
BLACK
6
CONTINUOUS
10
5.33915
20
-3.48916
11
5.33921
21
-3.48933
0
LINE
8
BLACK
6
CONTINUOUS
10
5.33921
20
-3.48933
11
5.33921
21
-3.4912
0
LINE
8
BLACK
6
CONTINUOUS
10
5.33921
20
-3.4912
11
5.33903
21
-3.49221
0
LINE
8
BLACK
6
CONTINUOUS
10
5.33903
20
-3.49221
11
5.33892
21
-3.49234
0
LINE
8
BLACK
6
CONTINUOUS
10
5.33892
20
-3.49234
11
5.3389
21
-3.49252
0
LINE
8
BLACK
6
CONTINUOUS
10
5.3389
20
-3.49252
11
5.33702
21
-3.49627
0
LINE
8
BLACK
6
CONTINUOUS
10
5.33702
20
-3.49627
11
5.3365
21
-3.49698
0
LINE
8
BLACK
6
CONTINUOUS
10
5.3365
20
-3.49698
11
5.33647
21
-3.49704
0
LINE
8
BLACK
6
CONTINUOUS
10
5.33647
20
-3.49704
11
5.33481
21
-3.4987
0
LINE
8
BLACK
6
CONTINUOUS
10
5.33481
20
-3.4987
11
5.33647
21
-3.50036
0
LINE
8
BLACK
6
CONTINUOUS
10
5.33647
20
-3.50036
11
5.33698
21
-3.50108
0
LINE
8
BLACK
6
CONTINUOUS
10
5.33698
20
-3.50108
11
5.33702
21
-3.50113
0
LINE
8
BLACK
6
CONTINUOUS
10
5.33702
20
-3.50113
11
5.3389
21
-3.50488
0
LINE
8
BLACK
6
CONTINUOUS
10
5.3389
20
-3.50488
11
5.33919
21
-3.50586
0
LINE
8
BLACK
6
CONTINUOUS
10
5.33919
20
-3.50586
11
5.33915
21
-3.50603
0
LINE
8
BLACK
6
CONTINUOUS
10
5.33915
20
-3.50603
11
5.33921
21
-3.5062
0
LINE
8
BLACK
6
CONTINUOUS
10
5.33921
20
-3.5062
11
5.33921
21
-3.5137
0
LINE
8
BLACK
6
CONTINUOUS
10
5.33921
20
-3.5137
11
5.33903
21
-3.51471
0
LINE
8
BLACK
6
CONTINUOUS
10
5.33903
20
-3.51471
11
5.33892
21
-3.51484
0
LINE
8
BLACK
6
CONTINUOUS
10
5.33892
20
-3.51484
11
5.3389
21
-3.51502
0
LINE
8
BLACK
6
CONTINUOUS
10
5.3389
20
-3.51502
11
5.33702
21
-3.51877
0
LINE
8
BLACK
6
CONTINUOUS
10
5.33702
20
-3.51877
11
5.3365
21
-3.51948
0
LINE
8
BLACK
6
CONTINUOUS
10
5.3365
20
-3.51948
11
5.33647
21
-3.51953
0
LINE
8
BLACK
6
CONTINUOUS
10
5.33647
20
-3.51953
11
5.3346
21
-3.52141
0
LINE
8
BLACK
6
CONTINUOUS
10
5.3346
20
-3.52141
11
5.33387
21
-3.52192
0
LINE
8
BLACK
6
CONTINUOUS
10
5.33387
20
-3.52192
11
5.33383
21
-3.52196
0
LINE
8
BLACK
6
CONTINUOUS
10
5.33383
20
-3.52196
11
5.33008
21
-3.52384
0
LINE
8
BLACK
6
CONTINUOUS
10
5.33008
20
-3.52384
11
5.3291
21
-3.52413
0
LINE
8
BLACK
6
CONTINUOUS
10
5.3291
20
-3.52413
11
5.32892
21
-3.52409
0
LINE
8
BLACK
6
CONTINUOUS
10
5.32892
20
-3.52409
11
5.32876
21
-3.52415
0
LINE
8
BLACK
6
CONTINUOUS
10
5.32876
20
-3.52415
11
5.32126
21
-3.52415
0
LINE
8
BLACK
6
CONTINUOUS
10
5.32126
20
-3.52415
11
5.32025
21
-3.52397
0
LINE
8
BLACK
6
CONTINUOUS
10
5.32025
20
-3.52397
11
5.32011
21
-3.52386
0
LINE
8
BLACK
6
CONTINUOUS
10
5.32011
20
-3.52386
11
5.31994
21
-3.52384
0
LINE
8
BLACK
6
CONTINUOUS
10
5.31994
20
-3.52384
11
5.31619
21
-3.52196
0
LINE
8
BLACK
6
CONTINUOUS
10
5.31619
20
-3.52196
11
5.31548
21
-3.52144
0
LINE
8
BLACK
6
CONTINUOUS
10
5.31548
20
-3.52144
11
5.31542
21
-3.52141
0
LINE
8
BLACK
6
CONTINUOUS
10
5.31542
20
-3.52141
11
5.31355
21
-3.51953
0
LINE
8
BLACK
6
CONTINUOUS
10
5.31355
20
-3.51953
11
5.31304
21
-3.51881
0
LINE
8
BLACK
6
CONTINUOUS
10
5.31304
20
-3.51881
11
5.31299
21
-3.51877
0
LINE
8
BLACK
6
CONTINUOUS
10
5.31299
20
-3.51877
11
5.31112
21
-3.51502
0
LINE
8
BLACK
6
CONTINUOUS
10
5.31112
20
-3.51502
11
5.31083
21
-3.51403
0
LINE
8
BLACK
6
CONTINUOUS
10
5.31083
20
-3.51403
11
5.31087
21
-3.51386
0
LINE
8
BLACK
6
CONTINUOUS
10
5.31087
20
-3.51386
11
5.31081
21
-3.5137
0
LINE
8
BLACK
6
CONTINUOUS
10
5.31081
20
-3.5137
11
5.31081
21
-3.5062
0
LINE
8
BLACK
6
CONTINUOUS
10
5.31081
20
-3.5062
11
5.31099
21
-3.50519
0
LINE
8
BLACK
6
CONTINUOUS
10
5.31099
20
-3.50519
11
5.3111
21
-3.50505
0
LINE
8
BLACK
6
CONTINUOUS
10
5.3111
20
-3.50505
11
5.31112
21
-3.50488
0
LINE
8
BLACK
6
CONTINUOUS
10
5.31112
20
-3.50488
11
5.31299
21
-3.50113
0
LINE
8
BLACK
6
CONTINUOUS
10
5.31299
20
-3.50113
11
5.31352
21
-3.50042
0
LINE
8
BLACK
6
CONTINUOUS
10
5.31352
20
-3.50042
11
5.31355
21
-3.50036
0
LINE
8
BLACK
6
CONTINUOUS
10
5.31355
20
-3.50036
11
5.31521
21
-3.4987
0
LINE
8
BLACK
6
CONTINUOUS
10
5.31521
20
-3.4987
11
5.31355
21
-3.49704
0
LINE
8
BLACK
6
CONTINUOUS
10
5.31355
20
-3.49704
11
5.31304
21
-3.49631
0
LINE
8
BLACK
6
CONTINUOUS
10
5.31304
20
-3.49631
11
5.31299
21
-3.49627
0
LINE
8
BLACK
6
CONTINUOUS
10
5.31299
20
-3.49627
11
5.31112
21
-3.49252
0
LINE
8
BLACK
6
CONTINUOUS
10
5.31112
20
-3.49252
11
5.31083
21
-3.49154
0
LINE
8
BLACK
6
CONTINUOUS
10
5.31083
20
-3.49154
11
5.31087
21
-3.49137
0
LINE
8
BLACK
6
CONTINUOUS
10
5.31087
20
-3.49137
11
5.31081
21
-3.4912
0
LINE
8
BLACK
6
CONTINUOUS
10
5.31081
20
-3.4912
11
5.31081
21
-3.48933
0
LINE
8
BLACK
6
CONTINUOUS
10
5.31081
20
-3.48933
11
5.31099
21
-3.48832
0
LINE
8
BLACK
6
CONTINUOUS
10
5.31099
20
-3.48832
11
5.3111
21
-3.48818
0
LINE
8
BLACK
6
CONTINUOUS
10
5.3111
20
-3.48818
11
5.31112
21
-3.488
0
LINE
8
BLACK
6
CONTINUOUS
10
5.31112
20
-3.488
11
5.31299
21
-3.48426
0
LINE
8
BLACK
6
CONTINUOUS
10
5.31299
20
-3.48426
11
5.31352
21
-3.48355
0
LINE
8
BLACK
6
CONTINUOUS
10
5.31352
20
-3.48355
11
5.31355
21
-3.48349
0
LINE
8
BLACK
6
CONTINUOUS
10
5.31355
20
-3.48349
11
5.31542
21
-3.48161
0
LINE
8
BLACK
6
CONTINUOUS
10
5.31542
20
-3.48161
11
5.31615
21
-3.48111
0
LINE
8
BLACK
6
CONTINUOUS
10
5.31615
20
-3.48111
11
5.31619
21
-3.48106
0
LINE
8
BLACK
6
CONTINUOUS
10
5.31619
20
-3.48106
11
5.31994
21
-3.47918
0
LINE
8
BLACK
6
CONTINUOUS
10
5.31994
20
-3.47918
11
5.32092
21
-3.47889
0
LINE
8
BLACK
6
CONTINUOUS
10
5.32092
20
-3.47889
11
5.32109
21
-3.47893
0
LINE
8
BLACK
6
CONTINUOUS
10
5.32109
20
-3.47893
11
5.32126
21
-3.47887
0
LINE
8
BLACK
6
CONTINUOUS
10
5.32126
20
-3.47887
11
5.32876
21
-3.47887
0
LINE
8
BLACK
6
CONTINUOUS
10
5.32876
20
-3.47887
11
5.32977
21
-3.47905
0
LINE
8
BLACK
6
CONTINUOUS
10
5.32196
20
-3.50165
11
5.31926
21
-3.503
0
LINE
8
BLACK
6
CONTINUOUS
10
5.31926
20
-3.503
11
5.31806
21
-3.5042
0
LINE
8
BLACK
6
CONTINUOUS
10
5.31806
20
-3.5042
11
5.31671
21
-3.5069
0
LINE
8
BLACK
6
CONTINUOUS
10
5.31671
20
-3.5069
11
5.31671
21
-3.513
0
LINE
8
BLACK
6
CONTINUOUS
10
5.31671
20
-3.513
11
5.31806
21
-3.5157
0
LINE
8
BLACK
6
CONTINUOUS
10
5.31806
20
-3.5157
11
5.31926
21
-3.51689
0
LINE
8
BLACK
6
CONTINUOUS
10
5.31926
20
-3.51689
11
5.32196
21
-3.51824
0
LINE
8
BLACK
6
CONTINUOUS
10
5.32196
20
-3.51824
11
5.32806
21
-3.51824
0
LINE
8
BLACK
6
CONTINUOUS
10
5.32806
20
-3.51824
11
5.33076
21
-3.51689
0
LINE
8
BLACK
6
CONTINUOUS
10
5.33076
20
-3.51689
11
5.33196
21
-3.5157
0
LINE
8
BLACK
6
CONTINUOUS
10
5.33196
20
-3.5157
11
5.33331
21
-3.513
0
LINE
8
BLACK
6
CONTINUOUS
10
5.33331
20
-3.513
11
5.33331
21
-3.5069
0
LINE
8
BLACK
6
CONTINUOUS
10
5.33331
20
-3.5069
11
5.33196
21
-3.5042
0
LINE
8
BLACK
6
CONTINUOUS
10
5.33196
20
-3.5042
11
5.33076
21
-3.503
0
LINE
8
BLACK
6
CONTINUOUS
10
5.33076
20
-3.503
11
5.32806
21
-3.50165
0
LINE
8
BLACK
6
CONTINUOUS
10
5.32806
20
-3.50165
11
5.32196
21
-3.50165
0
LINE
8
BLACK
6
CONTINUOUS
10
5.32196
20
-3.48478
11
5.31926
21
-3.48613
0
LINE
8
BLACK
6
CONTINUOUS
10
5.31926
20
-3.48613
11
5.31806
21
-3.48732
0
LINE
8
BLACK
6
CONTINUOUS
10
5.31806
20
-3.48732
11
5.31671
21
-3.49002
0
LINE
8
BLACK
6
CONTINUOUS
10
5.31671
20
-3.49002
11
5.31671
21
-3.4905
0
LINE
8
BLACK
6
CONTINUOUS
10
5.31671
20
-3.4905
11
5.31806
21
-3.4932
0
LINE
8
BLACK
6
CONTINUOUS
10
5.31806
20
-3.4932
11
5.31926
21
-3.4944
0
LINE
8
BLACK
6
CONTINUOUS
10
5.31926
20
-3.4944
11
5.32196
21
-3.49575
0
LINE
8
BLACK
6
CONTINUOUS
10
5.32196
20
-3.49575
11
5.32806
21
-3.49575
0
LINE
8
BLACK
6
CONTINUOUS
10
5.32806
20
-3.49575
11
5.33076
21
-3.4944
0
LINE
8
BLACK
6
CONTINUOUS
10
5.33076
20
-3.4944
11
5.33196
21
-3.4932
0
LINE
8
BLACK
6
CONTINUOUS
10
5.33196
20
-3.4932
11
5.33331
21
-3.4905
0
LINE
8
BLACK
6
CONTINUOUS
10
5.33331
20
-3.4905
11
5.33331
21
-3.49002
0
LINE
8
BLACK
6
CONTINUOUS
10
5.33331
20
-3.49002
11
5.33196
21
-3.48732
0
LINE
8
BLACK
6
CONTINUOUS
10
5.33196
20
-3.48732
11
5.33076
21
-3.48613
0
LINE
8
BLACK
6
CONTINUOUS
10
5.33076
20
-3.48613
11
5.32806
21
-3.48478
0
LINE
8
BLACK
6
CONTINUOUS
10
5.32806
20
-3.48478
11
5.32196
21
-3.48478
0
LINE
8
BLACK
6
CONTINUOUS
10
5.26911
20
-3.47895
11
5.26928
21
-3.47892
0
LINE
8
BLACK
6
CONTINUOUS
10
5.26928
20
-3.47892
11
5.27002
21
-3.47935
0
LINE
8
BLACK
6
CONTINUOUS
10
5.27002
20
-3.47935
11
5.27081
21
-3.47969
0
LINE
8
BLACK
6
CONTINUOUS
10
5.27081
20
-3.47969
11
5.27088
21
-3.47984
0
LINE
8
BLACK
6
CONTINUOUS
10
5.27088
20
-3.47984
11
5.27103
21
-3.47993
0
LINE
8
BLACK
6
CONTINUOUS
10
5.27103
20
-3.47993
11
5.27132
21
-3.48073
0
LINE
8
BLACK
6
CONTINUOUS
10
5.27132
20
-3.48073
11
5.2717
21
-3.4815
0
LINE
8
BLACK
6
CONTINUOUS
10
5.2717
20
-3.4815
11
5.27166
21
-3.48167
0
LINE
8
BLACK
6
CONTINUOUS
10
5.27166
20
-3.48167
11
5.27172
21
-3.48183
0
LINE
8
BLACK
6
CONTINUOUS
10
5.27172
20
-3.48183
11
5.27172
21
-3.51824
0
LINE
8
BLACK
6
CONTINUOUS
10
5.27172
20
-3.51824
11
5.28001
21
-3.51824
0
LINE
8
BLACK
6
CONTINUOUS
10
5.28001
20
-3.51824
11
5.28102
21
-3.51842
0
LINE
8
BLACK
6
CONTINUOUS
10
5.28102
20
-3.51842
11
5.28257
21
-3.51972
0
LINE
8
BLACK
6
CONTINUOUS
10
5.28257
20
-3.51972
11
5.28292
21
-3.52171
0
LINE
8
BLACK
6
CONTINUOUS
10
5.28292
20
-3.52171
11
5.28191
21
-3.52346
0
LINE
8
BLACK
6
CONTINUOUS
10
5.28191
20
-3.52346
11
5.28001
21
-3.52415
0
LINE
8
BLACK
6
CONTINUOUS
10
5.28001
20
-3.52415
11
5.25752
21
-3.52415
0
LINE
8
BLACK
6
CONTINUOUS
10
5.25752
20
-3.52415
11
5.25651
21
-3.52397
0
LINE
8
BLACK
6
CONTINUOUS
10
5.25651
20
-3.52397
11
5.25496
21
-3.52267
0
LINE
8
BLACK
6
CONTINUOUS
10
5.25496
20
-3.52267
11
5.25461
21
-3.52068
0
LINE
8
BLACK
6
CONTINUOUS
10
5.25461
20
-3.52068
11
5.25562
21
-3.51893
0
LINE
8
BLACK
6
CONTINUOUS
10
5.25562
20
-3.51893
11
5.25752
21
-3.51824
0
LINE
8
BLACK
6
CONTINUOUS
10
5.25752
20
-3.51824
11
5.26581
21
-3.51824
0
LINE
8
BLACK
6
CONTINUOUS
10
5.26581
20
-3.51824
11
5.26581
21
-3.49083
0
LINE
8
BLACK
6
CONTINUOUS
10
5.26581
20
-3.49083
11
5.26336
21
-3.49329
0
LINE
8
BLACK
6
CONTINUOUS
10
5.26336
20
-3.49329
11
5.26263
21
-3.49379
0
LINE
8
BLACK
6
CONTINUOUS
10
5.26263
20
-3.49379
11
5.26259
21
-3.49384
0
LINE
8
BLACK
6
CONTINUOUS
10
5.26259
20
-3.49384
11
5.25884
21
-3.49572
0
LINE
8
BLACK
6
CONTINUOUS
10
5.25884
20
-3.49572
11
5.25786
21
-3.49601
0
LINE
8
BLACK
6
CONTINUOUS
10
5.25786
20
-3.49601
11
5.25589
21
-3.49554
0
LINE
8
BLACK
6
CONTINUOUS
10
5.25589
20
-3.49554
11
5.25469
21
-3.49392
0
LINE
8
BLACK
6
CONTINUOUS
10
5.25469
20
-3.49392
11
5.25481
21
-3.4919
0
LINE
8
BLACK
6
CONTINUOUS
10
5.25481
20
-3.4919
11
5.2562
21
-3.49043
0
LINE
8
BLACK
6
CONTINUOUS
10
5.2562
20
-3.49043
11
5.25952
21
-3.48877
0
LINE
8
BLACK
6
CONTINUOUS
10
5.25952
20
-3.48877
11
5.26272
21
-3.48557
0
LINE
8
BLACK
6
CONTINUOUS
10
5.26272
20
-3.48557
11
5.26631
21
-3.48019
0
LINE
8
BLACK
6
CONTINUOUS
10
5.26631
20
-3.48019
11
5.26702
21
-3.47945
0
LINE
8
BLACK
6
CONTINUOUS
10
5.26702
20
-3.47945
11
5.26718
21
-3.4794
0
LINE
8
BLACK
6
CONTINUOUS
10
5.26718
20
-3.4794
11
5.26729
21
-3.47927
0
LINE
8
BLACK
6
CONTINUOUS
10
5.26729
20
-3.47927
11
5.26813
21
-3.47912
0
LINE
8
BLACK
6
CONTINUOUS
10
5.26813
20
-3.47912
11
5.26896
21
-3.47888
0
LINE
8
BLACK
6
CONTINUOUS
10
5.26896
20
-3.47888
11
5.26911
21
-3.47895
0
LINE
8
BLACK
6
CONTINUOUS
10
5.42293
20
-3.47895
11
5.42307
21
-3.47893
0
LINE
8
BLACK
6
CONTINUOUS
10
5.42307
20
-3.47893
11
5.42317
21
-3.47899
0
LINE
8
BLACK
6
CONTINUOUS
10
5.42317
20
-3.47899
11
5.42351
21
-3.47905
0
LINE
8
BLACK
6
CONTINUOUS
10
5.42351
20
-3.47905
11
5.42412
21
-3.47956
0
LINE
8
BLACK
6
CONTINUOUS
10
5.42412
20
-3.47956
11
5.4248
21
-3.47998
0
LINE
8
BLACK
6
CONTINUOUS
10
5.4248
20
-3.47998
11
5.42487
21
-3.4802
0
LINE
8
BLACK
6
CONTINUOUS
10
5.42487
20
-3.4802
11
5.42505
21
-3.48035
0
LINE
8
BLACK
6
CONTINUOUS
10
5.42505
20
-3.48035
11
5.42519
21
-3.48113
0
LINE
8
BLACK
6
CONTINUOUS
10
5.42519
20
-3.48113
11
5.42545
21
-3.48189
0
LINE
8
BLACK
6
CONTINUOUS
10
5.42545
20
-3.48189
11
5.42536
21
-3.48211
0
LINE
8
BLACK
6
CONTINUOUS
10
5.42536
20
-3.48211
11
5.42541
21
-3.48234
0
LINE
8
BLACK
6
CONTINUOUS
10
5.42541
20
-3.48234
11
5.42501
21
-3.48303
0
LINE
8
BLACK
6
CONTINUOUS
10
5.42501
20
-3.48303
11
5.42472
21
-3.48377
0
LINE
8
BLACK
6
CONTINUOUS
10
5.42472
20
-3.48377
11
5.41576
21
-3.49401
0
LINE
8
BLACK
6
CONTINUOUS
10
5.41576
20
-3.49401
11
5.41601
21
-3.49405
0
LINE
8
BLACK
6
CONTINUOUS
10
5.41601
20
-3.49405
11
5.41614
21
-3.49416
0
LINE
8
BLACK
6
CONTINUOUS
10
5.41614
20
-3.49416
11
5.41632
21
-3.49418
0
LINE
8
BLACK
6
CONTINUOUS
10
5.41632
20
-3.49418
11
5.42007
21
-3.49606
0
LINE
8
BLACK
6
CONTINUOUS
10
5.42007
20
-3.49606
11
5.42078
21
-3.49658
0
LINE
8
BLACK
6
CONTINUOUS
10
5.42078
20
-3.49658
11
5.42084
21
-3.49661
0
LINE
8
BLACK
6
CONTINUOUS
10
5.42084
20
-3.49661
11
5.42271
21
-3.49849
0
LINE
8
BLACK
6
CONTINUOUS
10
5.42271
20
-3.49849
11
5.42322
21
-3.49921
0
LINE
8
BLACK
6
CONTINUOUS
10
5.42322
20
-3.49921
11
5.42326
21
-3.49925
0
LINE
8
BLACK
6
CONTINUOUS
10
5.42326
20
-3.49925
11
5.42514
21
-3.503
0
LINE
8
BLACK
6
CONTINUOUS
10
5.42514
20
-3.503
11
5.42543
21
-3.50399
0
LINE
8
BLACK
6
CONTINUOUS
10
5.42543
20
-3.50399
11
5.42539
21
-3.50416
0
LINE
8
BLACK
6
CONTINUOUS
10
5.42539
20
-3.50416
11
5.42545
21
-3.50432
0
LINE
8
BLACK
6
CONTINUOUS
10
5.42545
20
-3.50432
11
5.42545
21
-3.5137
0
LINE
8
BLACK
6
CONTINUOUS
10
5.42545
20
-3.5137
11
5.42527
21
-3.51471
0
LINE
8
BLACK
6
CONTINUOUS
10
5.42527
20
-3.51471
11
5.42516
21
-3.51484
0
LINE
8
BLACK
6
CONTINUOUS
10
5.42516
20
-3.51484
11
5.42514
21
-3.51502
0
LINE
8
BLACK
6
CONTINUOUS
10
5.42514
20
-3.51502
11
5.42326
21
-3.51877
0
LINE
8
BLACK
6
CONTINUOUS
10
5.42326
20
-3.51877
11
5.42274
21
-3.51948
0
LINE
8
BLACK
6
CONTINUOUS
10
5.42274
20
-3.51948
11
5.42271
21
-3.51953
0
LINE
8
BLACK
6
CONTINUOUS
10
5.42271
20
-3.51953
11
5.42084
21
-3.52141
0
LINE
8
BLACK
6
CONTINUOUS
10
5.42084
20
-3.52141
11
5.42011
21
-3.52192
0
LINE
8
BLACK
6
CONTINUOUS
10
5.42011
20
-3.52192
11
5.42007
21
-3.52196
0
LINE
8
BLACK
6
CONTINUOUS
10
5.42007
20
-3.52196
11
5.41632
21
-3.52384
0
LINE
8
BLACK
6
CONTINUOUS
10
5.41632
20
-3.52384
11
5.41534
21
-3.52413
0
LINE
8
BLACK
6
CONTINUOUS
10
5.41534
20
-3.52413
11
5.41516
21
-3.52409
0
LINE
8
BLACK
6
CONTINUOUS
10
5.41516
20
-3.52409
11
5.415
21
-3.52415
0
LINE
8
BLACK
6
CONTINUOUS
10
5.415
20
-3.52415
11
5.40375
21
-3.52415
0
LINE
8
BLACK
6
CONTINUOUS
10
5.40375
20
-3.52415
11
5.40274
21
-3.52397
0
LINE
8
BLACK
6
CONTINUOUS
10
5.40274
20
-3.52397
11
5.4026
21
-3.52386
0
LINE
8
BLACK
6
CONTINUOUS
10
5.4026
20
-3.52386
11
5.40243
21
-3.52384
0
LINE
8
BLACK
6
CONTINUOUS
10
5.40243
20
-3.52384
11
5.39868
21
-3.52196
0
LINE
8
BLACK
6
CONTINUOUS
10
5.39868
20
-3.52196
11
5.39797
21
-3.52144
0
LINE
8
BLACK
6
CONTINUOUS
10
5.39797
20
-3.52144
11
5.39791
21
-3.52141
0
LINE
8
BLACK
6
CONTINUOUS
10
5.39791
20
-3.52141
11
5.39604
21
-3.51953
0
LINE
8
BLACK
6
CONTINUOUS
10
5.39604
20
-3.51953
11
5.39545
21
-3.51869
0
LINE
8
BLACK
6
CONTINUOUS
10
5.39545
20
-3.51869
11
5.39527
21
-3.51668
0
LINE
8
BLACK
6
CONTINUOUS
10
5.39527
20
-3.51668
11
5.39643
21
-3.51503
0
LINE
8
BLACK
6
CONTINUOUS
10
5.39643
20
-3.51503
11
5.39838
21
-3.51451
0
LINE
8
BLACK
6
CONTINUOUS
10
5.39838
20
-3.51451
11
5.40021
21
-3.51536
0
LINE
8
BLACK
6
CONTINUOUS
10
5.40021
20
-3.51536
11
5.40175
21
-3.51689
0
LINE
8
BLACK
6
CONTINUOUS
10
5.40175
20
-3.51689
11
5.40445
21
-3.51824
0
LINE
8
BLACK
6
CONTINUOUS
10
5.40445
20
-3.51824
11
5.4143
21
-3.51824
0
LINE
8
BLACK
6
CONTINUOUS
10
5.4143
20
-3.51824
11
5.417
21
-3.51689
0
LINE
8
BLACK
6
CONTINUOUS
10
5.417
20
-3.51689
11
5.4182
21
-3.5157
0
LINE
8
BLACK
6
CONTINUOUS
10
5.4182
20
-3.5157
11
5.41954
21
-3.513
0
LINE
8
BLACK
6
CONTINUOUS
10
5.41954
20
-3.513
11
5.41954
21
-3.50502
0
LINE
8
BLACK
6
CONTINUOUS
10
5.41954
20
-3.50502
11
5.4182
21
-3.50232
0
LINE
8
BLACK
6
CONTINUOUS
10
5.4182
20
-3.50232
11
5.417
21
-3.50113
0
LINE
8
BLACK
6
CONTINUOUS
10
5.417
20
-3.50113
11
5.4143
21
-3.49978
0
LINE
8
BLACK
6
CONTINUOUS
10
5.4143
20
-3.49978
11
5.40937
21
-3.49978
0
LINE
8
BLACK
6
CONTINUOUS
10
5.40937
20
-3.49978
11
5.40894
21
-3.4997
0
LINE
8
BLACK
6
CONTINUOUS
10
5.40894
20
-3.4997
11
5.4088
21
-3.49972
0
LINE
8
BLACK
6
CONTINUOUS
10
5.4088
20
-3.49972
11
5.4087
21
-3.49966
0
LINE
8
BLACK
6
CONTINUOUS
10
5.4087
20
-3.49966
11
5.40836
21
-3.4996
0
LINE
8
BLACK
6
CONTINUOUS
10
5.40836
20
-3.4996
11
5.40775
21
-3.49909
0
LINE
8
BLACK
6
CONTINUOUS
10
5.40775
20
-3.49909
11
5.40707
21
-3.49867
0
LINE
8
BLACK
6
CONTINUOUS
10
5.40707
20
-3.49867
11
5.407
21
-3.49845
0
LINE
8
BLACK
6
CONTINUOUS
10
5.407
20
-3.49845
11
5.40682
21
-3.4983
0
LINE
8
BLACK
6
CONTINUOUS
10
5.40682
20
-3.4983
11
5.40668
21
-3.49752
0
LINE
8
BLACK
6
CONTINUOUS
10
5.40668
20
-3.49752
11
5.40642
21
-3.49676
0
LINE
8
BLACK
6
CONTINUOUS
10
5.40642
20
-3.49676
11
5.40651
21
-3.49654
0
LINE
8
BLACK
6
CONTINUOUS
10
5.40651
20
-3.49654
11
5.40647
21
-3.49631
0
LINE
8
BLACK
6
CONTINUOUS
10
5.40647
20
-3.49631
11
5.40686
21
-3.49562
0
LINE
8
BLACK
6
CONTINUOUS
10
5.40686
20
-3.49562
11
5.40715
21
-3.49488
0
LINE
8
BLACK
6
CONTINUOUS
10
5.40715
20
-3.49488
11
5.41599
21
-3.48478
0
LINE
8
BLACK
6
CONTINUOUS
10
5.41599
20
-3.48478
11
5.39813
21
-3.48478
0
LINE
8
BLACK
6
CONTINUOUS
10
5.39813
20
-3.48478
11
5.39712
21
-3.4846
0
LINE
8
BLACK
6
CONTINUOUS
10
5.39712
20
-3.4846
11
5.39557
21
-3.4833
0
LINE
8
BLACK
6
CONTINUOUS
10
5.39557
20
-3.4833
11
5.39522
21
-3.48131
0
LINE
8
BLACK
6
CONTINUOUS
10
5.39522
20
-3.48131
11
5.39623
21
-3.47956
0
LINE
8
BLACK
6
CONTINUOUS
10
5.39623
20
-3.47956
11
5.39813
21
-3.47887
0
LINE
8
BLACK
6
CONTINUOUS
10
5.39813
20
-3.47887
11
5.4225
21
-3.47887
0
LINE
8
BLACK
6
CONTINUOUS
10
5.4225
20
-3.47887
11
5.42293
21
-3.47895
0
LINE
8
BLACK
6
CONTINUOUS
10
5.43975
20
-3.51456
11
5.43988
21
-3.51454
0
LINE
8
BLACK
6
CONTINUOUS
10
5.43988
20
-3.51454
11
5.44
21
-3.51461
0
LINE
8
BLACK
6
CONTINUOUS
10
5.44
20
-3.51461
11
5.44013
21
-3.51459
0
LINE
8
BLACK
6
CONTINUOUS
10
5.44013
20
-3.51459
11
5.44076
21
-3.51503
0
LINE
8
BLACK
6
CONTINUOUS
10
5.44076
20
-3.51503
11
5.44146
21
-3.51536
0
LINE
8
BLACK
6
CONTINUOUS
10
5.44146
20
-3.51536
11
5.44333
21
-3.51723
0
LINE
8
BLACK
6
CONTINUOUS
10
5.44333
20
-3.51723
11
5.44356
21
-3.51755
0
LINE
8
BLACK
6
CONTINUOUS
10
5.44356
20
-3.51755
11
5.44366
21
-3.51763
0
LINE
8
BLACK
6
CONTINUOUS
10
5.44366
20
-3.51763
11
5.4437
21
-3.51775
0
LINE
8
BLACK
6
CONTINUOUS
10
5.4437
20
-3.51775
11
5.44392
21
-3.51807
0
LINE
8
BLACK
6
CONTINUOUS
10
5.44392
20
-3.51807
11
5.44399
21
-3.51884
0
LINE
8
BLACK
6
CONTINUOUS
10
5.44399
20
-3.51884
11
5.44419
21
-3.51958
0
LINE
8
BLACK
6
CONTINUOUS
10
5.44419
20
-3.51958
11
5.44407
21
-3.51982
0
LINE
8
BLACK
6
CONTINUOUS
10
5.44407
20
-3.51982
11
5.4441
21
-3.52009
0
LINE
8
BLACK
6
CONTINUOUS
10
5.4441
20
-3.52009
11
5.44366
21
-3.52071
0
LINE
8
BLACK
6
CONTINUOUS
10
5.44366
20
-3.52071
11
5.44333
21
-3.52141
0
LINE
8
BLACK
6
CONTINUOUS
10
5.44333
20
-3.52141
11
5.44146
21
-3.52328
0
LINE
8
BLACK
6
CONTINUOUS
10
5.44146
20
-3.52328
11
5.44114
21
-3.52351
0
LINE
8
BLACK
6
CONTINUOUS
10
5.44114
20
-3.52351
11
5.44106
21
-3.52361
0
LINE
8
BLACK
6
CONTINUOUS
10
5.44106
20
-3.52361
11
5.44094
21
-3.52365
0
LINE
8
BLACK
6
CONTINUOUS
10
5.44094
20
-3.52365
11
5.44093
21
-3.52365
0
LINE
8
BLACK
6
CONTINUOUS
10
5.44093
20
-3.52365
11
5.44085
21
-3.52375
0
LINE
8
BLACK
6
CONTINUOUS
10
5.44085
20
-3.52375
11
5.44077
21
-3.52377
0
LINE
8
BLACK
6
CONTINUOUS
10
5.44077
20
-3.52377
11
5.44062
21
-3.52387
0
LINE
8
BLACK
6
CONTINUOUS
10
5.44062
20
-3.52387
11
5.43985
21
-3.52394
0
LINE
8
BLACK
6
CONTINUOUS
10
5.43985
20
-3.52394
11
5.43911
21
-3.52414
0
LINE
8
BLACK
6
CONTINUOUS
10
5.43911
20
-3.52414
11
5.43899
21
-3.52408
0
LINE
8
BLACK
6
CONTINUOUS
10
5.43899
20
-3.52408
11
5.43886
21
-3.5241
0
LINE
8
BLACK
6
CONTINUOUS
10
5.43886
20
-3.5241
11
5.43874
21
-3.52404
0
LINE
8
BLACK
6
CONTINUOUS
10
5.43874
20
-3.52404
11
5.43861
21
-3.52405
0
LINE
8
BLACK
6
CONTINUOUS
10
5.43861
20
-3.52405
11
5.43798
21
-3.52361
0
LINE
8
BLACK
6
CONTINUOUS
10
5.43798
20
-3.52361
11
5.43728
21
-3.52328
0
LINE
8
BLACK
6
CONTINUOUS
10
5.43728
20
-3.52328
11
5.43541
21
-3.52141
0
LINE
8
BLACK
6
CONTINUOUS
10
5.43541
20
-3.52141
11
5.43518
21
-3.52109
0
LINE
8
BLACK
6
CONTINUOUS
10
5.43518
20
-3.52109
11
5.43508
21
-3.52101
0
LINE
8
BLACK
6
CONTINUOUS
10
5.43508
20
-3.52101
11
5.43504
21
-3.52089
0
LINE
8
BLACK
6
CONTINUOUS
10
5.43504
20
-3.52089
11
5.43482
21
-3.52057
0
LINE
8
BLACK
6
CONTINUOUS
10
5.43482
20
-3.52057
11
5.43475
21
-3.5198
0
LINE
8
BLACK
6
CONTINUOUS
10
5.43475
20
-3.5198
11
5.43455
21
-3.51906
0
LINE
8
BLACK
6
CONTINUOUS
10
5.43455
20
-3.51906
11
5.43467
21
-3.51882
0
LINE
8
BLACK
6
CONTINUOUS
10
5.43467
20
-3.51882
11
5.43464
21
-3.51856
0
LINE
8
BLACK
6
CONTINUOUS
10
5.43464
20
-3.51856
11
5.43508
21
-3.51793
0
LINE
8
BLACK
6
CONTINUOUS
10
5.43508
20
-3.51793
11
5.43541
21
-3.51723
0
LINE
8
BLACK
6
CONTINUOUS
10
5.43541
20
-3.51723
11
5.43728
21
-3.51536
0
LINE
8
BLACK
6
CONTINUOUS
10
5.43728
20
-3.51536
11
5.4376
21
-3.51514
0
LINE
8
BLACK
6
CONTINUOUS
10
5.4376
20
-3.51514
11
5.43768
21
-3.51503
0
LINE
8
BLACK
6
CONTINUOUS
10
5.43768
20
-3.51503
11
5.4378
21
-3.51499
0
LINE
8
BLACK
6
CONTINUOUS
10
5.4378
20
-3.51499
11
5.43781
21
-3.51499
0
LINE
8
BLACK
6
CONTINUOUS
10
5.43781
20
-3.51499
11
5.43789
21
-3.51489
0
LINE
8
BLACK
6
CONTINUOUS
10
5.43789
20
-3.51489
11
5.43797
21
-3.51488
0
LINE
8
BLACK
6
CONTINUOUS
10
5.43797
20
-3.51488
11
5.43812
21
-3.51477
0
LINE
8
BLACK
6
CONTINUOUS
10
5.43812
20
-3.51477
11
5.43889
21
-3.5147
0
LINE
8
BLACK
6
CONTINUOUS
10
5.43889
20
-3.5147
11
5.43963
21
-3.51451
0
LINE
8
BLACK
6
CONTINUOUS
10
5.43963
20
-3.51451
11
5.43975
21
-3.51456
0
LINE
8
BLACK
6
CONTINUOUS
10
5.29727
20
-3.51456
11
5.2974
21
-3.51454
0
LINE
8
BLACK
6
CONTINUOUS
10
5.2974
20
-3.51454
11
5.29752
21
-3.51461
0
LINE
8
BLACK
6
CONTINUOUS
10
5.29752
20
-3.51461
11
5.29765
21
-3.51459
0
LINE
8
BLACK
6
CONTINUOUS
10
5.29765
20
-3.51459
11
5.29828
21
-3.51503
0
LINE
8
BLACK
6
CONTINUOUS
10
5.29828
20
-3.51503
11
5.29898
21
-3.51536
0
LINE
8
BLACK
6
CONTINUOUS
10
5.29898
20
-3.51536
11
5.30085
21
-3.51723
0
LINE
8
BLACK
6
CONTINUOUS
10
5.30085
20
-3.51723
11
5.30107
21
-3.51755
0
LINE
8
BLACK
6
CONTINUOUS
10
5.30107
20
-3.51755
11
5.30118
21
-3.51763
0
LINE
8
BLACK
6
CONTINUOUS
10
5.30118
20
-3.51763
11
5.30122
21
-3.51775
0
LINE
8
BLACK
6
CONTINUOUS
10
5.30122
20
-3.51775
11
5.30144
21
-3.51807
0
LINE
8
BLACK
6
CONTINUOUS
10
5.30144
20
-3.51807
11
5.30151
21
-3.51884
0
LINE
8
BLACK
6
CONTINUOUS
10
5.30151
20
-3.51884
11
5.3017
21
-3.51958
0
LINE
8
BLACK
6
CONTINUOUS
10
5.3017
20
-3.51958
11
5.30159
21
-3.51982
0
LINE
8
BLACK
6
CONTINUOUS
10
5.30159
20
-3.51982
11
5.30161
21
-3.52009
0
LINE
8
BLACK
6
CONTINUOUS
10
5.30161
20
-3.52009
11
5.30117
21
-3.52071
0
LINE
8
BLACK
6
CONTINUOUS
10
5.30117
20
-3.52071
11
5.30085
21
-3.52141
0
LINE
8
BLACK
6
CONTINUOUS
10
5.30085
20
-3.52141
11
5.29898
21
-3.52328
0
LINE
8
BLACK
6
CONTINUOUS
10
5.29898
20
-3.52328
11
5.29866
21
-3.52351
0
LINE
8
BLACK
6
CONTINUOUS
10
5.29866
20
-3.52351
11
5.29858
21
-3.52361
0
LINE
8
BLACK
6
CONTINUOUS
10
5.29858
20
-3.52361
11
5.29845
21
-3.52365
0
LINE
8
BLACK
6
CONTINUOUS
10
5.29845
20
-3.52365
11
5.29845
21
-3.52365
0
LINE
8
BLACK
6
CONTINUOUS
10
5.29845
20
-3.52365
11
5.29836
21
-3.52375
0
LINE
8
BLACK
6
CONTINUOUS
10
5.29836
20
-3.52375
11
5.29829
21
-3.52377
0
LINE
8
BLACK
6
CONTINUOUS
10
5.29829
20
-3.52377
11
5.29814
21
-3.52387
0
LINE
8
BLACK
6
CONTINUOUS
10
5.29814
20
-3.52387
11
5.29737
21
-3.52394
0
LINE
8
BLACK
6
CONTINUOUS
10
5.29737
20
-3.52394
11
5.29663
21
-3.52414
0
LINE
8
BLACK
6
CONTINUOUS
10
5.29663
20
-3.52414
11
5.29651
21
-3.52408
0
LINE
8
BLACK
6
CONTINUOUS
10
5.29651
20
-3.52408
11
5.29638
21
-3.5241
0
LINE
8
BLACK
6
CONTINUOUS
10
5.29638
20
-3.5241
11
5.29626
21
-3.52404
0
LINE
8
BLACK
6
CONTINUOUS
10
5.29626
20
-3.52404
11
5.29612
21
-3.52405
0
LINE
8
BLACK
6
CONTINUOUS
10
5.29612
20
-3.52405
11
5.2955
21
-3.52361
0
LINE
8
BLACK
6
CONTINUOUS
10
5.2955
20
-3.52361
11
5.2948
21
-3.52328
0
LINE
8
BLACK
6
CONTINUOUS
10
5.2948
20
-3.52328
11
5.29293
21
-3.52141
0
LINE
8
BLACK
6
CONTINUOUS
10
5.29293
20
-3.52141
11
5.2927
21
-3.52109
0
LINE
8
BLACK
6
CONTINUOUS
10
5.2927
20
-3.52109
11
5.29259
21
-3.52101
0
LINE
8
BLACK
6
CONTINUOUS
10
5.29259
20
-3.52101
11
5.29256
21
-3.52089
0
LINE
8
BLACK
6
CONTINUOUS
10
5.29256
20
-3.52089
11
5.29234
21
-3.52057
0
LINE
8
BLACK
6
CONTINUOUS
10
5.29234
20
-3.52057
11
5.29227
21
-3.5198
0
LINE
8
BLACK
6
CONTINUOUS
10
5.29227
20
-3.5198
11
5.29207
21
-3.51906
0
LINE
8
BLACK
6
CONTINUOUS
10
5.29207
20
-3.51906
11
5.29218
21
-3.51882
0
LINE
8
BLACK
6
CONTINUOUS
10
5.29218
20
-3.51882
11
5.29216
21
-3.51856
0
LINE
8
BLACK
6
CONTINUOUS
10
5.29216
20
-3.51856
11
5.2926
21
-3.51793
0
LINE
8
BLACK
6
CONTINUOUS
10
5.2926
20
-3.51793
11
5.29293
21
-3.51723
0
LINE
8
BLACK
6
CONTINUOUS
10
5.29293
20
-3.51723
11
5.2948
21
-3.51536
0
LINE
8
BLACK
6
CONTINUOUS
10
5.2948
20
-3.51536
11
5.29512
21
-3.51514
0
LINE
8
BLACK
6
CONTINUOUS
10
5.29512
20
-3.51514
11
5.29519
21
-3.51503
0
LINE
8
BLACK
6
CONTINUOUS
10
5.29519
20
-3.51503
11
5.29532
21
-3.51499
0
LINE
8
BLACK
6
CONTINUOUS
10
5.29532
20
-3.51499
11
5.29533
21
-3.51499
0
LINE
8
BLACK
6
CONTINUOUS
10
5.29533
20
-3.51499
11
5.29541
21
-3.51489
0
LINE
8
BLACK
6
CONTINUOUS
10
5.29541
20
-3.51489
11
5.29549
21
-3.51488
0
LINE
8
BLACK
6
CONTINUOUS
10
5.29549
20
-3.51488
11
5.29564
21
-3.51477
0
LINE
8
BLACK
6
CONTINUOUS
10
5.29564
20
-3.51477
11
5.2964
21
-3.5147
0
LINE
8
BLACK
6
CONTINUOUS
10
5.2964
20
-3.5147
11
5.29715
21
-3.51451
0
LINE
8
BLACK
6
CONTINUOUS
10
5.29715
20
-3.51451
11
5.29727
21
-3.51456
0
LINE
8
BLACK
6
CONTINUOUS
10
5.52153
20
-3.47931
11
5.52279
21
-3.48089
0
LINE
8
BLACK
6
CONTINUOUS
10
5.52279
20
-3.48089
11
5.53311
21
-3.51186
0
LINE
8
BLACK
6
CONTINUOUS
10
5.53311
20
-3.51186
11
5.54343
21
-3.48089
0
LINE
8
BLACK
6
CONTINUOUS
10
5.54343
20
-3.48089
11
5.54392
21
-3.47999
0
LINE
8
BLACK
6
CONTINUOUS
10
5.54392
20
-3.47999
11
5.54564
21
-3.47893
0
LINE
8
BLACK
6
CONTINUOUS
10
5.54564
20
-3.47893
11
5.54764
21
-3.47923
0
LINE
8
BLACK
6
CONTINUOUS
10
5.54764
20
-3.47923
11
5.54898
21
-3.48074
0
LINE
8
BLACK
6
CONTINUOUS
10
5.54898
20
-3.48074
11
5.54903
21
-3.48276
0
LINE
8
BLACK
6
CONTINUOUS
10
5.54903
20
-3.48276
11
5.53591
21
-3.52213
0
LINE
8
BLACK
6
CONTINUOUS
10
5.53591
20
-3.52213
11
5.53542
21
-3.52303
0
LINE
8
BLACK
6
CONTINUOUS
10
5.53542
20
-3.52303
11
5.53535
21
-3.52308
0
LINE
8
BLACK
6
CONTINUOUS
10
5.53535
20
-3.52308
11
5.53532
21
-3.52316
0
LINE
8
BLACK
6
CONTINUOUS
10
5.53532
20
-3.52316
11
5.5345
21
-3.5236
0
LINE
8
BLACK
6
CONTINUOUS
10
5.5345
20
-3.5236
11
5.5337
21
-3.52409
0
LINE
8
BLACK
6
CONTINUOUS
10
5.5337
20
-3.52409
11
5.53362
21
-3.52408
0
LINE
8
BLACK
6
CONTINUOUS
10
5.53362
20
-3.52408
11
5.53354
21
-3.52412
0
LINE
8
BLACK
6
CONTINUOUS
10
5.53354
20
-3.52412
11
5.53263
21
-3.52393
0
LINE
8
BLACK
6
CONTINUOUS
10
5.53263
20
-3.52393
11
5.5317
21
-3.52379
0
LINE
8
BLACK
6
CONTINUOUS
10
5.5317
20
-3.52379
11
5.53165
21
-3.52373
0
LINE
8
BLACK
6
CONTINUOUS
10
5.53165
20
-3.52373
11
5.53156
21
-3.52371
0
LINE
8
BLACK
6
CONTINUOUS
10
5.53156
20
-3.52371
11
5.53098
21
-3.52298
0
LINE
8
BLACK
6
CONTINUOUS
10
5.53098
20
-3.52298
11
5.53036
21
-3.52228
0
LINE
8
BLACK
6
CONTINUOUS
10
5.53036
20
-3.52228
11
5.53036
21
-3.5222
0
LINE
8
BLACK
6
CONTINUOUS
10
5.53036
20
-3.5222
11
5.53031
21
-3.52213
0
LINE
8
BLACK
6
CONTINUOUS
10
5.53031
20
-3.52213
11
5.51718
21
-3.48276
0
LINE
8
BLACK
6
CONTINUOUS
10
5.51718
20
-3.48276
11
5.51703
21
-3.48175
0
LINE
8
BLACK
6
CONTINUOUS
10
5.51703
20
-3.48175
11
5.51778
21
-3.47987
0
LINE
8
BLACK
6
CONTINUOUS
10
5.51778
20
-3.47987
11
5.51955
21
-3.47891
0
LINE
8
BLACK
6
CONTINUOUS
10
5.51955
20
-3.47891
11
5.52153
21
-3.47931
0
LINE
8
BLACK
6
CONTINUOUS
10
5.38414
20
-3.50342
11
5.38568
21
-3.50472
0
LINE
8
BLACK
6
CONTINUOUS
10
5.38568
20
-3.50472
11
5.38603
21
-3.50671
0
LINE
8
BLACK
6
CONTINUOUS
10
5.38603
20
-3.50671
11
5.38503
21
-3.50846
0
LINE
8
BLACK
6
CONTINUOUS
10
5.38503
20
-3.50846
11
5.38313
21
-3.50915
0
LINE
8
BLACK
6
CONTINUOUS
10
5.38313
20
-3.50915
11
5.35313
21
-3.50915
0
LINE
8
BLACK
6
CONTINUOUS
10
5.35313
20
-3.50915
11
5.35212
21
-3.50897
0
LINE
8
BLACK
6
CONTINUOUS
10
5.35212
20
-3.50897
11
5.35057
21
-3.50767
0
LINE
8
BLACK
6
CONTINUOUS
10
5.35057
20
-3.50767
11
5.35022
21
-3.50569
0
LINE
8
BLACK
6
CONTINUOUS
10
5.35022
20
-3.50569
11
5.35123
21
-3.50394
0
LINE
8
BLACK
6
CONTINUOUS
10
5.35123
20
-3.50394
11
5.35313
21
-3.50325
0
LINE
8
BLACK
6
CONTINUOUS
10
5.35313
20
-3.50325
11
5.38313
21
-3.50325
0
LINE
8
BLACK
6
CONTINUOUS
10
5.38313
20
-3.50325
11
5.38414
21
-3.50342
0
LINE
8
BLACK
6
CONTINUOUS
10
5.62681
20
-3.43564
11
5.62687
21
-3.43564
0
LINE
8
BLACK
6
CONTINUOUS
10
5.62687
20
-3.43564
11
5.6325
21
-3.43751
0
LINE
8
BLACK
6
CONTINUOUS
10
5.6325
20
-3.43751
11
5.6334
21
-3.438
0
LINE
8
BLACK
6
CONTINUOUS
10
5.6334
20
-3.438
11
5.63349
21
-3.43815
0
LINE
8
BLACK
6
CONTINUOUS
10
5.63349
20
-3.43815
11
5.63365
21
-3.43823
0
LINE
8
BLACK
6
CONTINUOUS
10
5.63365
20
-3.43823
11
5.63553
21
-3.4401
0
LINE
8
BLACK
6
CONTINUOUS
10
5.63553
20
-3.4401
11
5.63611
21
-3.44094
0
LINE
8
BLACK
6
CONTINUOUS
10
5.63611
20
-3.44094
11
5.63629
21
-3.44295
0
LINE
8
BLACK
6
CONTINUOUS
10
5.63629
20
-3.44295
11
5.63513
21
-3.44461
0
LINE
8
BLACK
6
CONTINUOUS
10
5.63513
20
-3.44461
11
5.63318
21
-3.44513
0
LINE
8
BLACK
6
CONTINUOUS
10
5.63318
20
-3.44513
11
5.63135
21
-3.44428
0
LINE
8
BLACK
6
CONTINUOUS
10
5.63135
20
-3.44428
11
5.62997
21
-3.4429
0
LINE
8
BLACK
6
CONTINUOUS
10
5.62997
20
-3.4429
11
5.62546
21
-3.44139
0
LINE
8
BLACK
6
CONTINUOUS
10
5.62546
20
-3.44139
11
5.62267
21
-3.44139
0
LINE
8
BLACK
6
CONTINUOUS
10
5.62267
20
-3.44139
11
5.61816
21
-3.4429
0
LINE
8
BLACK
6
CONTINUOUS
10
5.61816
20
-3.4429
11
5.61524
21
-3.44581
0
LINE
8
BLACK
6
CONTINUOUS
10
5.61524
20
-3.44581
11
5.61373
21
-3.44884
0
LINE
8
BLACK
6
CONTINUOUS
10
5.61373
20
-3.44884
11
5.61202
21
-3.45568
0
LINE
8
BLACK
6
CONTINUOUS
10
5.61202
20
-3.45568
11
5.61202
21
-3.46057
0
LINE
8
BLACK
6
CONTINUOUS
10
5.61202
20
-3.46057
11
5.61373
21
-3.46741
0
LINE
8
BLACK
6
CONTINUOUS
10
5.61373
20
-3.46741
11
5.61524
21
-3.47044
0
LINE
8
BLACK
6
CONTINUOUS
10
5.61524
20
-3.47044
11
5.61816
21
-3.47335
0
LINE
8
BLACK
6
CONTINUOUS
10
5.61816
20
-3.47335
11
5.62267
21
-3.47486
0
LINE
8
BLACK
6
CONTINUOUS
10
5.62267
20
-3.47486
11
5.62546
21
-3.47486
0
LINE
8
BLACK
6
CONTINUOUS
10
5.62546
20
-3.47486
11
5.62997
21
-3.47335
0
LINE
8
BLACK
6
CONTINUOUS
10
5.62997
20
-3.47335
11
5.63135
21
-3.47197
0
LINE
8
BLACK
6
CONTINUOUS
10
5.63135
20
-3.47197
11
5.63219
21
-3.47138
0
LINE
8
BLACK
6
CONTINUOUS
10
5.63219
20
-3.47138
11
5.6342
21
-3.47121
0
LINE
8
BLACK
6
CONTINUOUS
10
5.6342
20
-3.47121
11
5.63586
21
-3.47237
0
LINE
8
BLACK
6
CONTINUOUS
10
5.63586
20
-3.47237
11
5.63638
21
-3.47432
0
LINE
8
BLACK
6
CONTINUOUS
10
5.63638
20
-3.47432
11
5.63553
21
-3.47615
0
LINE
8
BLACK
6
CONTINUOUS
10
5.63553
20
-3.47615
11
5.63365
21
-3.47802
0
LINE
8
BLACK
6
CONTINUOUS
10
5.63365
20
-3.47802
11
5.63281
21
-3.47861
0
LINE
8
BLACK
6
CONTINUOUS
10
5.63281
20
-3.47861
11
5.63264
21
-3.47863
0
LINE
8
BLACK
6
CONTINUOUS
10
5.63264
20
-3.47863
11
5.6325
21
-3.47874
0
LINE
8
BLACK
6
CONTINUOUS
10
5.6325
20
-3.47874
11
5.62687
21
-3.48061
0
LINE
8
BLACK
6
CONTINUOUS
10
5.62687
20
-3.48061
11
5.626
21
-3.48074
0
LINE
8
BLACK
6
CONTINUOUS
10
5.626
20
-3.48074
11
5.62594
21
-3.48076
0
LINE
8
BLACK
6
CONTINUOUS
10
5.62594
20
-3.48076
11
5.62219
21
-3.48076
0
LINE
8
BLACK
6
CONTINUOUS
10
5.62219
20
-3.48076
11
5.62132
21
-3.48061
0
LINE
8
BLACK
6
CONTINUOUS
10
5.62132
20
-3.48061
11
5.62126
21
-3.48061
0
LINE
8
BLACK
6
CONTINUOUS
10
5.62126
20
-3.48061
11
5.61563
21
-3.47874
0
LINE
8
BLACK
6
CONTINUOUS
10
5.61563
20
-3.47874
11
5.61473
21
-3.47825
0
LINE
8
BLACK
6
CONTINUOUS
10
5.61473
20
-3.47825
11
5.61464
21
-3.4781
0
LINE
8
BLACK
6
CONTINUOUS
10
5.61464
20
-3.4781
11
5.61448
21
-3.47802
0
LINE
8
BLACK
6
CONTINUOUS
10
5.61448
20
-3.47802
11
5.61073
21
-3.47427
0
LINE
8
BLACK
6
CONTINUOUS
10
5.61073
20
-3.47427
11
5.61022
21
-3.47355
0
LINE
8
BLACK
6
CONTINUOUS
10
5.61022
20
-3.47355
11
5.61017
21
-3.47351
0
LINE
8
BLACK
6
CONTINUOUS
10
5.61017
20
-3.47351
11
5.6083
21
-3.46976
0
LINE
8
BLACK
6
CONTINUOUS
10
5.6083
20
-3.46976
11
5.60815
21
-3.46927
0
LINE
8
BLACK
6
CONTINUOUS
10
5.60815
20
-3.46927
11
5.60808
21
-3.46915
0
LINE
8
BLACK
6
CONTINUOUS
10
5.60808
20
-3.46915
11
5.6062
21
-3.46165
0
LINE
8
BLACK
6
CONTINUOUS
10
5.6062
20
-3.46165
11
5.60616
21
-3.46107
0
LINE
8
BLACK
6
CONTINUOUS
10
5.60616
20
-3.46107
11
5.60611
21
-3.46094
0
LINE
8
BLACK
6
CONTINUOUS
10
5.60611
20
-3.46094
11
5.60611
21
-3.45531
0
LINE
8
BLACK
6
CONTINUOUS
10
5.60611
20
-3.45531
11
5.60622
21
-3.45473
0
LINE
8
BLACK
6
CONTINUOUS
10
5.60622
20
-3.45473
11
5.6062
21
-3.4546
0
LINE
8
BLACK
6
CONTINUOUS
10
5.6062
20
-3.4546
11
5.60808
21
-3.4471
0
LINE
8
BLACK
6
CONTINUOUS
10
5.60808
20
-3.4471
11
5.60828
21
-3.44663
0
LINE
8
BLACK
6
CONTINUOUS
10
5.60828
20
-3.44663
11
5.6083
21
-3.44649
0
LINE
8
BLACK
6
CONTINUOUS
10
5.6083
20
-3.44649
11
5.61017
21
-3.44274
0
LINE
8
BLACK
6
CONTINUOUS
10
5.61017
20
-3.44274
11
5.6107
21
-3.44203
0
LINE
8
BLACK
6
CONTINUOUS
10
5.6107
20
-3.44203
11
5.61073
21
-3.44198
0
LINE
8
BLACK
6
CONTINUOUS
10
5.61073
20
-3.44198
11
5.61448
21
-3.43823
0
LINE
8
BLACK
6
CONTINUOUS
10
5.61448
20
-3.43823
11
5.61532
21
-3.43764
0
LINE
8
BLACK
6
CONTINUOUS
10
5.61532
20
-3.43764
11
5.61549
21
-3.43762
0
LINE
8
BLACK
6
CONTINUOUS
10
5.61549
20
-3.43762
11
5.61563
21
-3.43751
0
LINE
8
BLACK
6
CONTINUOUS
10
5.61563
20
-3.43751
11
5.62126
21
-3.43564
0
LINE
8
BLACK
6
CONTINUOUS
10
5.62126
20
-3.43564
11
5.62213
21
-3.43551
0
LINE
8
BLACK
6
CONTINUOUS
10
5.62213
20
-3.43551
11
5.62219
21
-3.43549
0
LINE
8
BLACK
6
CONTINUOUS
10
5.62219
20
-3.43549
11
5.62594
21
-3.43549
0
LINE
8
BLACK
6
CONTINUOUS
10
5.62594
20
-3.43549
11
5.62681
21
-3.43564
0
LINE
8
BLACK
6
CONTINUOUS
10
5.66618
20
-3.43564
11
5.66624
21
-3.43564
0
LINE
8
BLACK
6
CONTINUOUS
10
5.66624
20
-3.43564
11
5.67187
21
-3.43751
0
LINE
8
BLACK
6
CONTINUOUS
10
5.67187
20
-3.43751
11
5.67277
21
-3.438
0
LINE
8
BLACK
6
CONTINUOUS
10
5.67277
20
-3.438
11
5.67383
21
-3.43972
0
LINE
8
BLACK
6
CONTINUOUS
10
5.67383
20
-3.43972
11
5.67353
21
-3.44172
0
LINE
8
BLACK
6
CONTINUOUS
10
5.67353
20
-3.44172
11
5.67202
21
-3.44306
0
LINE
8
BLACK
6
CONTINUOUS
10
5.67202
20
-3.44306
11
5.67
21
-3.44312
0
LINE
8
BLACK
6
CONTINUOUS
10
5.67
20
-3.44312
11
5.66483
21
-3.44139
0
LINE
8
BLACK
6
CONTINUOUS
10
5.66483
20
-3.44139
11
5.65663
21
-3.44139
0
LINE
8
BLACK
6
CONTINUOUS
10
5.65663
20
-3.44139
11
5.65393
21
-3.44274
0
LINE
8
BLACK
6
CONTINUOUS
10
5.65393
20
-3.44274
11
5.65274
21
-3.44394
0
LINE
8
BLACK
6
CONTINUOUS
10
5.65274
20
-3.44394
11
5.65139
21
-3.44664
0
LINE
8
BLACK
6
CONTINUOUS
10
5.65139
20
-3.44664
11
5.65139
21
-3.44899
0
LINE
8
BLACK
6
CONTINUOUS
10
5.65139
20
-3.44899
11
5.65274
21
-3.45169
0
LINE
8
BLACK
6
CONTINUOUS
10
5.65274
20
-3.45169
11
5.65394
21
-3.45289
0
LINE
8
BLACK
6
CONTINUOUS
10
5.65394
20
-3.45289
11
5.65697
21
-3.4544
0
LINE
8
BLACK
6
CONTINUOUS
10
5.65697
20
-3.4544
11
5.66415
21
-3.4562
0
LINE
8
BLACK
6
CONTINUOUS
10
5.66415
20
-3.4562
11
5.66462
21
-3.45641
0
LINE
8
BLACK
6
CONTINUOUS
10
5.66462
20
-3.45641
11
5.66476
21
-3.45642
0
LINE
8
BLACK
6
CONTINUOUS
10
5.66476
20
-3.45642
11
5.6685
21
-3.4583
0
LINE
8
BLACK
6
CONTINUOUS
10
5.6685
20
-3.4583
11
5.66921
21
-3.45882
0
LINE
8
BLACK
6
CONTINUOUS
10
5.66921
20
-3.45882
11
5.66927
21
-3.45885
0
LINE
8
BLACK
6
CONTINUOUS
10
5.66927
20
-3.45885
11
5.67115
21
-3.46072
0
LINE
8
BLACK
6
CONTINUOUS
10
5.67115
20
-3.46072
11
5.67165
21
-3.46145
0
LINE
8
BLACK
6
CONTINUOUS
10
5.67165
20
-3.46145
11
5.6717
21
-3.46149
0
LINE
8
BLACK
6
CONTINUOUS
10
5.6717
20
-3.46149
11
5.67357
21
-3.46524
0
LINE
8
BLACK
6
CONTINUOUS
10
5.67357
20
-3.46524
11
5.67387
21
-3.46622
0
LINE
8
BLACK
6
CONTINUOUS
10
5.67387
20
-3.46622
11
5.67383
21
-3.4664
0
LINE
8
BLACK
6
CONTINUOUS
10
5.67383
20
-3.4664
11
5.67389
21
-3.46656
0
LINE
8
BLACK
6
CONTINUOUS
10
5.67389
20
-3.46656
11
5.67389
21
-3.47031
0
LINE
8
BLACK
6
CONTINUOUS
10
5.67389
20
-3.47031
11
5.67371
21
-3.47132
0
LINE
8
BLACK
6
CONTINUOUS
10
5.67371
20
-3.47132
11
5.67359
21
-3.47146
0
LINE
8
BLACK
6
CONTINUOUS
10
5.67359
20
-3.47146
11
5.67357
21
-3.47163
0
LINE
8
BLACK
6
CONTINUOUS
10
5.67357
20
-3.47163
11
5.6717
21
-3.47538
0
LINE
8
BLACK
6
CONTINUOUS
10
5.6717
20
-3.47538
11
5.67117
21
-3.47609
0
LINE
8
BLACK
6
CONTINUOUS
10
5.67117
20
-3.47609
11
5.67115
21
-3.47615
0
LINE
8
BLACK
6
CONTINUOUS
10
5.67115
20
-3.47615
11
5.66927
21
-3.47802
0
LINE
8
BLACK
6
CONTINUOUS
10
5.66927
20
-3.47802
11
5.66855
21
-3.47853
0
LINE
8
BLACK
6
CONTINUOUS
10
5.66855
20
-3.47853
11
5.6685
21
-3.47858
0
LINE
8
BLACK
6
CONTINUOUS
10
5.6685
20
-3.47858
11
5.66476
21
-3.48045
0
LINE
8
BLACK
6
CONTINUOUS
10
5.66476
20
-3.48045
11
5.66377
21
-3.48074
0
LINE
8
BLACK
6
CONTINUOUS
10
5.66377
20
-3.48074
11
5.6636
21
-3.4807
0
LINE
8
BLACK
6
CONTINUOUS
10
5.6636
20
-3.4807
11
5.66343
21
-3.48076
0
LINE
8
BLACK
6
CONTINUOUS
10
5.66343
20
-3.48076
11
5.65406
21
-3.48076
0
LINE
8
BLACK
6
CONTINUOUS
10
5.65406
20
-3.48076
11
5.65319
21
-3.48061
0
LINE
8
BLACK
6
CONTINUOUS
10
5.65319
20
-3.48061
11
5.65313
21
-3.48061
0
LINE
8
BLACK
6
CONTINUOUS
10
5.65313
20
-3.48061
11
5.6475
21
-3.47874
0
LINE
8
BLACK
6
CONTINUOUS
10
5.6475
20
-3.47874
11
5.6466
21
-3.47825
0
LINE
8
BLACK
6
CONTINUOUS
10
5.6466
20
-3.47825
11
5.64554
21
-3.47653
0
LINE
8
BLACK
6
CONTINUOUS
10
5.64554
20
-3.47653
11
5.64584
21
-3.47453
0
LINE
8
BLACK
6
CONTINUOUS
10
5.64584
20
-3.47453
11
5.64735
21
-3.47319
0
LINE
8
BLACK
6
CONTINUOUS
10
5.64735
20
-3.47319
11
5.64937
21
-3.47313
0
LINE
8
BLACK
6
CONTINUOUS
10
5.64937
20
-3.47313
11
5.65454
21
-3.47486
0
LINE
8
BLACK
6
CONTINUOUS
10
5.65454
20
-3.47486
11
5.66274
21
-3.47486
0
LINE
8
BLACK
6
CONTINUOUS
10
5.66274
20
-3.47486
11
5.66543
21
-3.47351
0
LINE
8
BLACK
6
CONTINUOUS
10
5.66543
20
-3.47351
11
5.66663
21
-3.47231
0
LINE
8
BLACK
6
CONTINUOUS
10
5.66663
20
-3.47231
11
5.66798
21
-3.46961
0
LINE
8
BLACK
6
CONTINUOUS
10
5.66798
20
-3.46961
11
5.66798
21
-3.46726
0
LINE
8
BLACK
6
CONTINUOUS
10
5.66798
20
-3.46726
11
5.66663
21
-3.46456
0
LINE
8
BLACK
6
CONTINUOUS
10
5.66663
20
-3.46456
11
5.66543
21
-3.46336
0
LINE
8
BLACK
6
CONTINUOUS
10
5.66543
20
-3.46336
11
5.6624
21
-3.46185
0
LINE
8
BLACK
6
CONTINUOUS
10
5.6624
20
-3.46185
11
5.65522
21
-3.46005
0
LINE
8
BLACK
6
CONTINUOUS
10
5.65522
20
-3.46005
11
5.65475
21
-3.45984
0
LINE
8
BLACK
6
CONTINUOUS
10
5.65475
20
-3.45984
11
5.65461
21
-3.45983
0
LINE
8
BLACK
6
CONTINUOUS
10
5.65461
20
-3.45983
11
5.65087
21
-3.45795
0
LINE
8
BLACK
6
CONTINUOUS
10
5.65087
20
-3.45795
11
5.65016
21
-3.45743
0
LINE
8
BLACK
6
CONTINUOUS
10
5.65016
20
-3.45743
11
5.6501
21
-3.4574
0
LINE
8
BLACK
6
CONTINUOUS
10
5.6501
20
-3.4574
11
5.64822
21
-3.45553
0
LINE
8
BLACK
6
CONTINUOUS
10
5.64822
20
-3.45553
11
5.64772
21
-3.4548
0
LINE
8
BLACK
6
CONTINUOUS
10
5.64772
20
-3.4548
11
5.64767
21
-3.45476
0
LINE
8
BLACK
6
CONTINUOUS
10
5.64767
20
-3.45476
11
5.6458
21
-3.45101
0
LINE
8
BLACK
6
CONTINUOUS
10
5.6458
20
-3.45101
11
5.6455
21
-3.45003
0
LINE
8
BLACK
6
CONTINUOUS
10
5.6455
20
-3.45003
11
5.64554
21
-3.44985
0
LINE
8
BLACK
6
CONTINUOUS
10
5.64554
20
-3.44985
11
5.64548
21
-3.44969
0
LINE
8
BLACK
6
CONTINUOUS
10
5.64548
20
-3.44969
11
5.64548
21
-3.44594
0
LINE
8
BLACK
6
CONTINUOUS
10
5.64548
20
-3.44594
11
5.64566
21
-3.44493
0
LINE
8
BLACK
6
CONTINUOUS
10
5.64566
20
-3.44493
11
5.64578
21
-3.44479
0
LINE
8
BLACK
6
CONTINUOUS
10
5.64578
20
-3.44479
11
5.6458
21
-3.44462
0
LINE
8
BLACK
6
CONTINUOUS
10
5.6458
20
-3.44462
11
5.64767
21
-3.44087
0
LINE
8
BLACK
6
CONTINUOUS
10
5.64767
20
-3.44087
11
5.6482
21
-3.44016
0
LINE
8
BLACK
6
CONTINUOUS
10
5.6482
20
-3.44016
11
5.64822
21
-3.4401
0
LINE
8
BLACK
6
CONTINUOUS
10
5.64822
20
-3.4401
11
5.6501
21
-3.43823
0
LINE
8
BLACK
6
CONTINUOUS
10
5.6501
20
-3.43823
11
5.65082
21
-3.43772
0
LINE
8
BLACK
6
CONTINUOUS
10
5.65082
20
-3.43772
11
5.65087
21
-3.43767
0
LINE
8
BLACK
6
CONTINUOUS
10
5.65087
20
-3.43767
11
5.65461
21
-3.4358
0
LINE
8
BLACK
6
CONTINUOUS
10
5.65461
20
-3.4358
11
5.6556
21
-3.43551
0
LINE
8
BLACK
6
CONTINUOUS
10
5.6556
20
-3.43551
11
5.65577
21
-3.43555
0
LINE
8
BLACK
6
CONTINUOUS
10
5.65577
20
-3.43555
11
5.65594
21
-3.43549
0
LINE
8
BLACK
6
CONTINUOUS
10
5.65594
20
-3.43549
11
5.66531
21
-3.43549
0
LINE
8
BLACK
6
CONTINUOUS
10
5.66531
20
-3.43549
11
5.66618
21
-3.43564
0
LINE
8
BLACK
6
CONTINUOUS
10
5.92695
20
-3.42567
11
5.92708
21
-3.42578
0
LINE
8
BLACK
6
CONTINUOUS
10
5.92708
20
-3.42578
11
5.92726
21
-3.4258
0
LINE
8
BLACK
6
CONTINUOUS
10
5.92726
20
-3.4258
11
5.93101
21
-3.42767
0
LINE
8
BLACK
6
CONTINUOUS
10
5.93101
20
-3.42767
11
5.93183
21
-3.42828
0
LINE
8
BLACK
6
CONTINUOUS
10
5.93183
20
-3.42828
11
5.93264
21
-3.43014
0
LINE
8
BLACK
6
CONTINUOUS
10
5.93264
20
-3.43014
11
5.93206
21
-3.43207
0
LINE
8
BLACK
6
CONTINUOUS
10
5.93206
20
-3.43207
11
5.93037
21
-3.43319
0
LINE
8
BLACK
6
CONTINUOUS
10
5.93037
20
-3.43319
11
5.92837
21
-3.43296
0
LINE
8
BLACK
6
CONTINUOUS
10
5.92837
20
-3.43296
11
5.92524
21
-3.43139
0
LINE
8
BLACK
6
CONTINUOUS
10
5.92524
20
-3.43139
11
5.92079
21
-3.43139
0
LINE
8
BLACK
6
CONTINUOUS
10
5.92079
20
-3.43139
11
5.91629
21
-3.4329
0
LINE
8
BLACK
6
CONTINUOUS
10
5.91629
20
-3.4329
11
5.91337
21
-3.43581
0
LINE
8
BLACK
6
CONTINUOUS
10
5.91337
20
-3.43581
11
5.91185
21
-3.43884
0
LINE
8
BLACK
6
CONTINUOUS
10
5.91185
20
-3.43884
11
5.91014
21
-3.44568
0
LINE
8
BLACK
6
CONTINUOUS
10
5.91014
20
-3.44568
11
5.91014
21
-3.45057
0
LINE
8
BLACK
6
CONTINUOUS
10
5.91014
20
-3.45057
11
5.91185
21
-3.45741
0
LINE
8
BLACK
6
CONTINUOUS
10
5.91185
20
-3.45741
11
5.91337
21
-3.46044
0
LINE
8
BLACK
6
CONTINUOUS
10
5.91337
20
-3.46044
11
5.91629
21
-3.46335
0
LINE
8
BLACK
6
CONTINUOUS
10
5.91629
20
-3.46335
11
5.92079
21
-3.46486
0
LINE
8
BLACK
6
CONTINUOUS
10
5.92079
20
-3.46486
11
5.92359
21
-3.46486
0
LINE
8
BLACK
6
CONTINUOUS
10
5.92359
20
-3.46486
11
5.92809
21
-3.46335
0
LINE
8
BLACK
6
CONTINUOUS
10
5.92809
20
-3.46335
11
5.92861
21
-3.46284
0
LINE
8
BLACK
6
CONTINUOUS
10
5.92861
20
-3.46284
11
5.92861
21
-3.45389
0
LINE
8
BLACK
6
CONTINUOUS
10
5.92861
20
-3.45389
11
5.92406
21
-3.45389
0
LINE
8
BLACK
6
CONTINUOUS
10
5.92406
20
-3.45389
11
5.92305
21
-3.45371
0
LINE
8
BLACK
6
CONTINUOUS
10
5.92305
20
-3.45371
11
5.92151
21
-3.45241
0
LINE
8
BLACK
6
CONTINUOUS
10
5.92151
20
-3.45241
11
5.92116
21
-3.45042
0
LINE
8
BLACK
6
CONTINUOUS
10
5.92116
20
-3.45042
11
5.92217
21
-3.44868
0
LINE
8
BLACK
6
CONTINUOUS
10
5.92217
20
-3.44868
11
5.92406
21
-3.44798
0
LINE
8
BLACK
6
CONTINUOUS
10
5.92406
20
-3.44798
11
5.93156
21
-3.44798
0
LINE
8
BLACK
6
CONTINUOUS
10
5.93156
20
-3.44798
11
5.93195
21
-3.44805
0
LINE
8
BLACK
6
CONTINUOUS
10
5.93195
20
-3.44805
11
5.93208
21
-3.44803
0
LINE
8
BLACK
6
CONTINUOUS
10
5.93208
20
-3.44803
11
5.93219
21
-3.4481
0
LINE
8
BLACK
6
CONTINUOUS
10
5.93219
20
-3.4481
11
5.93257
21
-3.44816
0
LINE
8
BLACK
6
CONTINUOUS
10
5.93257
20
-3.44816
11
5.93316
21
-3.44866
0
LINE
8
BLACK
6
CONTINUOUS
10
5.93316
20
-3.44866
11
5.93383
21
-3.44904
0
LINE
8
BLACK
6
CONTINUOUS
10
5.93383
20
-3.44904
11
5.93392
21
-3.44929
0
LINE
8
BLACK
6
CONTINUOUS
10
5.93392
20
-3.44929
11
5.93412
21
-3.44946
0
LINE
8
BLACK
6
CONTINUOUS
10
5.93412
20
-3.44946
11
5.93425
21
-3.45022
0
LINE
8
BLACK
6
CONTINUOUS
10
5.93425
20
-3.45022
11
5.93452
21
-3.45094
0
LINE
8
BLACK
6
CONTINUOUS
10
5.93452
20
-3.45094
11
5.93452
21
-3.46406
0
LINE
8
BLACK
6
CONTINUOUS
10
5.93452
20
-3.46406
11
5.93448
21
-3.46424
0
LINE
8
BLACK
6
CONTINUOUS
10
5.93448
20
-3.46424
11
5.93451
21
-3.46432
0
LINE
8
BLACK
6
CONTINUOUS
10
5.93451
20
-3.46432
11
5.93445
21
-3.46444
0
LINE
8
BLACK
6
CONTINUOUS
10
5.93445
20
-3.46444
11
5.93434
21
-3.46507
0
LINE
8
BLACK
6
CONTINUOUS
10
5.93434
20
-3.46507
11
5.93392
21
-3.46556
0
LINE
8
BLACK
6
CONTINUOUS
10
5.93392
20
-3.46556
11
5.93365
21
-3.46615
0
LINE
8
BLACK
6
CONTINUOUS
10
5.93365
20
-3.46615
11
5.93178
21
-3.46802
0
LINE
8
BLACK
6
CONTINUOUS
10
5.93178
20
-3.46802
11
5.93094
21
-3.46861
0
LINE
8
BLACK
6
CONTINUOUS
10
5.93094
20
-3.46861
11
5.93076
21
-3.46863
0
LINE
8
BLACK
6
CONTINUOUS
10
5.93076
20
-3.46863
11
5.93062
21
-3.46874
0
LINE
8
BLACK
6
CONTINUOUS
10
5.93062
20
-3.46874
11
5.925
21
-3.47061
0
LINE
8
BLACK
6
CONTINUOUS
10
5.925
20
-3.47061
11
5.92413
21
-3.47074
0
LINE
8
BLACK
6
CONTINUOUS
10
5.92413
20
-3.47074
11
5.92406
21
-3.47076
0
LINE
8
BLACK
6
CONTINUOUS
10
5.92406
20
-3.47076
11
5.92031
21
-3.47076
0
LINE
8
BLACK
6
CONTINUOUS
10
5.92031
20
-3.47076
11
5.91945
21
-3.47061
0
LINE
8
BLACK
6
CONTINUOUS
10
5.91945
20
-3.47061
11
5.91938
21
-3.47061
0
LINE
8
BLACK
6
CONTINUOUS
10
5.91938
20
-3.47061
11
5.91376
21
-3.46874
0
LINE
8
BLACK
6
CONTINUOUS
10
5.91376
20
-3.46874
11
5.91286
21
-3.46825
0
LINE
8
BLACK
6
CONTINUOUS
10
5.91286
20
-3.46825
11
5.91276
21
-3.4681
0
LINE
8
BLACK
6
CONTINUOUS
10
5.91276
20
-3.4681
11
5.9126
21
-3.46802
0
LINE
8
BLACK
6
CONTINUOUS
10
5.9126
20
-3.46802
11
5.90885
21
-3.46427
0
LINE
8
BLACK
6
CONTINUOUS
10
5.90885
20
-3.46427
11
5.90835
21
-3.46355
0
LINE
8
BLACK
6
CONTINUOUS
10
5.90835
20
-3.46355
11
5.9083
21
-3.46351
0
LINE
8
BLACK
6
CONTINUOUS
10
5.9083
20
-3.46351
11
5.90643
21
-3.45976
0
LINE
8
BLACK
6
CONTINUOUS
10
5.90643
20
-3.45976
11
5.90628
21
-3.45927
0
LINE
8
BLACK
6
CONTINUOUS
10
5.90628
20
-3.45927
11
5.9062
21
-3.45915
0
LINE
8
BLACK
6
CONTINUOUS
10
5.9062
20
-3.45915
11
5.90433
21
-3.45165
0
LINE
8
BLACK
6
CONTINUOUS
10
5.90433
20
-3.45165
11
5.90429
21
-3.45107
0
LINE
8
BLACK
6
CONTINUOUS
10
5.90429
20
-3.45107
11
5.90424
21
-3.45094
0
LINE
8
BLACK
6
CONTINUOUS
10
5.90424
20
-3.45094
11
5.90424
21
-3.44531
0
LINE
8
BLACK
6
CONTINUOUS
10
5.90424
20
-3.44531
11
5.90434
21
-3.44473
0
LINE
8
BLACK
6
CONTINUOUS
10
5.90434
20
-3.44473
11
5.90433
21
-3.4446
0
LINE
8
BLACK
6
CONTINUOUS
10
5.90433
20
-3.4446
11
5.9062
21
-3.4371
0
LINE
8
BLACK
6
CONTINUOUS
10
5.9062
20
-3.4371
11
5.90641
21
-3.43663
0
LINE
8
BLACK
6
CONTINUOUS
10
5.90641
20
-3.43663
11
5.90643
21
-3.43649
0
LINE
8
BLACK
6
CONTINUOUS
10
5.90643
20
-3.43649
11
5.9083
21
-3.43274
0
LINE
8
BLACK
6
CONTINUOUS
10
5.9083
20
-3.43274
11
5.90883
21
-3.43203
0
LINE
8
BLACK
6
CONTINUOUS
10
5.90883
20
-3.43203
11
5.90885
21
-3.43198
0
LINE
8
BLACK
6
CONTINUOUS
10
5.90885
20
-3.43198
11
5.9126
21
-3.42823
0
LINE
8
BLACK
6
CONTINUOUS
10
5.9126
20
-3.42823
11
5.91344
21
-3.42764
0
LINE
8
BLACK
6
CONTINUOUS
10
5.91344
20
-3.42764
11
5.91362
21
-3.42762
0
LINE
8
BLACK
6
CONTINUOUS
10
5.91362
20
-3.42762
11
5.91376
21
-3.42751
0
LINE
8
BLACK
6
CONTINUOUS
10
5.91376
20
-3.42751
11
5.91938
21
-3.42564
0
LINE
8
BLACK
6
CONTINUOUS
10
5.91938
20
-3.42564
11
5.92025
21
-3.42551
0
LINE
8
BLACK
6
CONTINUOUS
10
5.92025
20
-3.42551
11
5.92031
21
-3.42549
0
LINE
8
BLACK
6
CONTINUOUS
10
5.92031
20
-3.42549
11
5.92594
21
-3.42549
0
LINE
8
BLACK
6
CONTINUOUS
10
5.92594
20
-3.42549
11
5.92695
21
-3.42567
0
LINE
8
BLACK
6
CONTINUOUS
10
5.9732
20
-3.42654
11
5.97389
21
-3.42844
0
LINE
8
BLACK
6
CONTINUOUS
10
5.97389
20
-3.42844
11
5.97389
21
-3.46781
0
LINE
8
BLACK
6
CONTINUOUS
10
5.97389
20
-3.46781
11
5.97371
21
-3.46882
0
LINE
8
BLACK
6
CONTINUOUS
10
5.97371
20
-3.46882
11
5.97353
21
-3.46903
0
LINE
8
BLACK
6
CONTINUOUS
10
5.97353
20
-3.46903
11
5.97348
21
-3.4693
0
LINE
8
BLACK
6
CONTINUOUS
10
5.97348
20
-3.4693
11
5.9729
21
-3.46978
0
LINE
8
BLACK
6
CONTINUOUS
10
5.9729
20
-3.46978
11
5.97241
21
-3.47037
0
LINE
8
BLACK
6
CONTINUOUS
10
5.97241
20
-3.47037
11
5.97214
21
-3.47041
0
LINE
8
BLACK
6
CONTINUOUS
10
5.97214
20
-3.47041
11
5.97193
21
-3.47059
0
LINE
8
BLACK
6
CONTINUOUS
10
5.97193
20
-3.47059
11
5.97117
21
-3.47059
0
LINE
8
BLACK
6
CONTINUOUS
10
5.97117
20
-3.47059
11
5.97042
21
-3.47072
0
LINE
8
BLACK
6
CONTINUOUS
10
5.97042
20
-3.47072
11
5.97018
21
-3.47058
0
LINE
8
BLACK
6
CONTINUOUS
10
5.97018
20
-3.47058
11
5.96991
21
-3.47058
0
LINE
8
BLACK
6
CONTINUOUS
10
5.96991
20
-3.47058
11
5.96933
21
-3.47009
0
LINE
8
BLACK
6
CONTINUOUS
10
5.96933
20
-3.47009
11
5.96867
21
-3.46971
0
LINE
8
BLACK
6
CONTINUOUS
10
5.96867
20
-3.46971
11
5.96858
21
-3.46945
0
LINE
8
BLACK
6
CONTINUOUS
10
5.96858
20
-3.46945
11
5.96837
21
-3.46928
0
LINE
8
BLACK
6
CONTINUOUS
10
5.96837
20
-3.46928
11
5.95139
21
-3.43956
0
LINE
8
BLACK
6
CONTINUOUS
10
5.95139
20
-3.43956
11
5.95139
21
-3.46781
0
LINE
8
BLACK
6
CONTINUOUS
10
5.95139
20
-3.46781
11
5.95121
21
-3.46882
0
LINE
8
BLACK
6
CONTINUOUS
10
5.95121
20
-3.46882
11
5.94991
21
-3.47037
0
LINE
8
BLACK
6
CONTINUOUS
10
5.94991
20
-3.47037
11
5.94792
21
-3.47072
0
LINE
8
BLACK
6
CONTINUOUS
10
5.94792
20
-3.47072
11
5.94617
21
-3.46971
0
LINE
8
BLACK
6
CONTINUOUS
10
5.94617
20
-3.46971
11
5.94548
21
-3.46781
0
LINE
8
BLACK
6
CONTINUOUS
10
5.94548
20
-3.46781
11
5.94548
21
-3.42844
0
LINE
8
BLACK
6
CONTINUOUS
10
5.94548
20
-3.42844
11
5.94566
21
-3.42743
0
LINE
8
BLACK
6
CONTINUOUS
10
5.94566
20
-3.42743
11
5.94584
21
-3.42722
0
LINE
8
BLACK
6
CONTINUOUS
10
5.94584
20
-3.42722
11
5.94589
21
-3.42695
0
LINE
8
BLACK
6
CONTINUOUS
10
5.94589
20
-3.42695
11
5.94647
21
-3.42647
0
LINE
8
BLACK
6
CONTINUOUS
10
5.94647
20
-3.42647
11
5.94696
21
-3.42588
0
LINE
8
BLACK
6
CONTINUOUS
10
5.94696
20
-3.42588
11
5.94723
21
-3.42584
0
LINE
8
BLACK
6
CONTINUOUS
10
5.94723
20
-3.42584
11
5.94744
21
-3.42566
0
LINE
8
BLACK
6
CONTINUOUS
10
5.94744
20
-3.42566
11
5.9482
21
-3.42566
0
LINE
8
BLACK
6
CONTINUOUS
10
5.9482
20
-3.42566
11
5.94895
21
-3.42553
0
LINE
8
BLACK
6
CONTINUOUS
10
5.94895
20
-3.42553
11
5.94919
21
-3.42567
0
LINE
8
BLACK
6
CONTINUOUS
10
5.94919
20
-3.42567
11
5.94946
21
-3.42567
0
LINE
8
BLACK
6
CONTINUOUS
10
5.94946
20
-3.42567
11
5.95004
21
-3.42616
0
LINE
8
BLACK
6
CONTINUOUS
10
5.95004
20
-3.42616
11
5.9507
21
-3.42654
0
LINE
8
BLACK
6
CONTINUOUS
10
5.9507
20
-3.42654
11
5.95079
21
-3.4268
0
LINE
8
BLACK
6
CONTINUOUS
10
5.95079
20
-3.4268
11
5.951
21
-3.42698
0
LINE
8
BLACK
6
CONTINUOUS
10
5.951
20
-3.42698
11
5.96798
21
-3.45669
0
LINE
8
BLACK
6
CONTINUOUS
10
5.96798
20
-3.45669
11
5.96798
21
-3.42844
0
LINE
8
BLACK
6
CONTINUOUS
10
5.96798
20
-3.42844
11
5.96816
21
-3.42743
0
LINE
8
BLACK
6
CONTINUOUS
10
5.96816
20
-3.42743
11
5.96946
21
-3.42588
0
LINE
8
BLACK
6
CONTINUOUS
10
5.96946
20
-3.42588
11
5.97145
21
-3.42553
0
LINE
8
BLACK
6
CONTINUOUS
10
5.97145
20
-3.42553
11
5.9732
21
-3.42654
0
LINE
8
BLACK
6
CONTINUOUS
10
5.47506
20
-3.42879
11
5.4752
21
-3.4289
0
LINE
8
BLACK
6
CONTINUOUS
10
5.4752
20
-3.4289
11
5.47537
21
-3.42892
0
LINE
8
BLACK
6
CONTINUOUS
10
5.47537
20
-3.42892
11
5.47912
21
-3.4308
0
LINE
8
BLACK
6
CONTINUOUS
10
5.47912
20
-3.4308
11
5.47995
21
-3.43141
0
LINE
8
BLACK
6
CONTINUOUS
10
5.47995
20
-3.43141
11
5.48075
21
-3.43326
0
LINE
8
BLACK
6
CONTINUOUS
10
5.48075
20
-3.43326
11
5.48017
21
-3.4352
0
LINE
8
BLACK
6
CONTINUOUS
10
5.48017
20
-3.4352
11
5.47849
21
-3.43631
0
LINE
8
BLACK
6
CONTINUOUS
10
5.47849
20
-3.43631
11
5.47648
21
-3.43608
0
LINE
8
BLACK
6
CONTINUOUS
10
5.47648
20
-3.43608
11
5.47336
21
-3.43452
0
LINE
8
BLACK
6
CONTINUOUS
10
5.47336
20
-3.43452
11
5.46725
21
-3.43452
0
LINE
8
BLACK
6
CONTINUOUS
10
5.46725
20
-3.43452
11
5.46455
21
-3.43587
0
LINE
8
BLACK
6
CONTINUOUS
10
5.46455
20
-3.43587
11
5.46336
21
-3.43706
0
LINE
8
BLACK
6
CONTINUOUS
10
5.46336
20
-3.43706
11
5.46201
21
-3.43976
0
LINE
8
BLACK
6
CONTINUOUS
10
5.46201
20
-3.43976
11
5.46201
21
-3.44961
0
LINE
8
BLACK
6
CONTINUOUS
10
5.46201
20
-3.44961
11
5.46336
21
-3.45231
0
LINE
8
BLACK
6
CONTINUOUS
10
5.46336
20
-3.45231
11
5.46455
21
-3.45351
0
LINE
8
BLACK
6
CONTINUOUS
10
5.46455
20
-3.45351
11
5.46725
21
-3.45486
0
LINE
8
BLACK
6
CONTINUOUS
10
5.46725
20
-3.45486
11
5.47336
21
-3.45486
0
LINE
8
BLACK
6
CONTINUOUS
10
5.47336
20
-3.45486
11
5.47648
21
-3.45329
0
LINE
8
BLACK
6
CONTINUOUS
10
5.47648
20
-3.45329
11
5.47747
21
-3.453
0
LINE
8
BLACK
6
CONTINUOUS
10
5.47747
20
-3.453
11
5.47943
21
-3.45347
0
LINE
8
BLACK
6
CONTINUOUS
10
5.47943
20
-3.45347
11
5.48063
21
-3.45509
0
LINE
8
BLACK
6
CONTINUOUS
10
5.48063
20
-3.45509
11
5.48051
21
-3.45711
0
LINE
8
BLACK
6
CONTINUOUS
10
5.48051
20
-3.45711
11
5.47912
21
-3.45858
0
LINE
8
BLACK
6
CONTINUOUS
10
5.47912
20
-3.45858
11
5.47537
21
-3.46045
0
LINE
8
BLACK
6
CONTINUOUS
10
5.47537
20
-3.46045
11
5.47439
21
-3.46074
0
LINE
8
BLACK
6
CONTINUOUS
10
5.47439
20
-3.46074
11
5.47422
21
-3.4607
0
LINE
8
BLACK
6
CONTINUOUS
10
5.47422
20
-3.4607
11
5.47405
21
-3.46076
0
LINE
8
BLACK
6
CONTINUOUS
10
5.47405
20
-3.46076
11
5.46655
21
-3.46076
0
LINE
8
BLACK
6
CONTINUOUS
10
5.46655
20
-3.46076
11
5.46554
21
-3.46058
0
LINE
8
BLACK
6
CONTINUOUS
10
5.46554
20
-3.46058
11
5.46541
21
-3.46047
0
LINE
8
BLACK
6
CONTINUOUS
10
5.46541
20
-3.46047
11
5.46523
21
-3.46045
0
LINE
8
BLACK
6
CONTINUOUS
10
5.46523
20
-3.46045
11
5.46148
21
-3.45858
0
LINE
8
BLACK
6
CONTINUOUS
10
5.46148
20
-3.45858
11
5.46078
21
-3.45805
0
LINE
8
BLACK
6
CONTINUOUS
10
5.46078
20
-3.45805
11
5.46072
21
-3.45802
0
LINE
8
BLACK
6
CONTINUOUS
10
5.46072
20
-3.45802
11
5.45884
21
-3.45615
0
LINE
8
BLACK
6
CONTINUOUS
10
5.45884
20
-3.45615
11
5.45834
21
-3.45543
0
LINE
8
BLACK
6
CONTINUOUS
10
5.45834
20
-3.45543
11
5.45829
21
-3.45538
0
LINE
8
BLACK
6
CONTINUOUS
10
5.45829
20
-3.45538
11
5.45641
21
-3.45163
0
LINE
8
BLACK
6
CONTINUOUS
10
5.45641
20
-3.45163
11
5.45612
21
-3.45065
0
LINE
8
BLACK
6
CONTINUOUS
10
5.45612
20
-3.45065
11
5.45616
21
-3.45048
0
LINE
8
BLACK
6
CONTINUOUS
10
5.45616
20
-3.45048
11
5.4561
21
-3.45031
0
LINE
8
BLACK
6
CONTINUOUS
10
5.4561
20
-3.45031
11
5.4561
21
-3.43906
0
LINE
8
BLACK
6
CONTINUOUS
10
5.4561
20
-3.43906
11
5.45628
21
-3.43805
0
LINE
8
BLACK
6
CONTINUOUS
10
5.45628
20
-3.43805
11
5.45639
21
-3.43792
0
LINE
8
BLACK
6
CONTINUOUS
10
5.45639
20
-3.43792
11
5.45641
21
-3.43774
0
LINE
8
BLACK
6
CONTINUOUS
10
5.45641
20
-3.43774
11
5.45829
21
-3.43399
0
LINE
8
BLACK
6
CONTINUOUS
10
5.45829
20
-3.43399
11
5.45881
21
-3.43328
0
LINE
8
BLACK
6
CONTINUOUS
10
5.45881
20
-3.43328
11
5.45884
21
-3.43323
0
LINE
8
BLACK
6
CONTINUOUS
10
5.45884
20
-3.43323
11
5.46072
21
-3.43135
0
LINE
8
BLACK
6
CONTINUOUS
10
5.46072
20
-3.43135
11
5.46144
21
-3.43084
0
LINE
8
BLACK
6
CONTINUOUS
10
5.46144
20
-3.43084
11
5.46148
21
-3.4308
0
LINE
8
BLACK
6
CONTINUOUS
10
5.46148
20
-3.4308
11
5.46523
21
-3.42892
0
LINE
8
BLACK
6
CONTINUOUS
10
5.46523
20
-3.42892
11
5.46622
21
-3.42863
0
LINE
8
BLACK
6
CONTINUOUS
10
5.46622
20
-3.42863
11
5.46639
21
-3.42867
0
LINE
8
BLACK
6
CONTINUOUS
10
5.46639
20
-3.42867
11
5.46655
21
-3.42861
0
LINE
8
BLACK
6
CONTINUOUS
10
5.46655
20
-3.42861
11
5.47405
21
-3.42861
0
LINE
8
BLACK
6
CONTINUOUS
10
5.47405
20
-3.42861
11
5.47506
21
-3.42879
0
LINE
8
BLACK
6
CONTINUOUS
10
5.33946
20
-3.41654
11
5.34015
21
-3.41844
0
LINE
8
BLACK
6
CONTINUOUS
10
5.34015
20
-3.41844
11
5.34015
21
-3.45486
0
LINE
8
BLACK
6
CONTINUOUS
10
5.34015
20
-3.45486
11
5.35594
21
-3.45486
0
LINE
8
BLACK
6
CONTINUOUS
10
5.35594
20
-3.45486
11
5.35695
21
-3.45504
0
LINE
8
BLACK
6
CONTINUOUS
10
5.35695
20
-3.45504
11
5.3585
21
-3.45633
0
LINE
8
BLACK
6
CONTINUOUS
10
5.3585
20
-3.45633
11
5.35885
21
-3.45832
0
LINE
8
BLACK
6
CONTINUOUS
10
5.35885
20
-3.45832
11
5.35784
21
-3.46007
0
LINE
8
BLACK
6
CONTINUOUS
10
5.35784
20
-3.46007
11
5.35594
21
-3.46076
0
LINE
8
BLACK
6
CONTINUOUS
10
5.35594
20
-3.46076
11
5.3372
21
-3.46076
0
LINE
8
BLACK
6
CONTINUOUS
10
5.3372
20
-3.46076
11
5.33681
21
-3.4607
0
LINE
8
BLACK
6
CONTINUOUS
10
5.33681
20
-3.4607
11
5.33668
21
-3.46072
0
LINE
8
BLACK
6
CONTINUOUS
10
5.33668
20
-3.46072
11
5.33657
21
-3.46065
0
LINE
8
BLACK
6
CONTINUOUS
10
5.33657
20
-3.46065
11
5.33619
21
-3.46058
0
LINE
8
BLACK
6
CONTINUOUS
10
5.33619
20
-3.46058
11
5.3356
21
-3.46009
0
LINE
8
BLACK
6
CONTINUOUS
10
5.3356
20
-3.46009
11
5.33493
21
-3.45971
0
LINE
8
BLACK
6
CONTINUOUS
10
5.33493
20
-3.45971
11
5.33484
21
-3.45946
0
LINE
8
BLACK
6
CONTINUOUS
10
5.33484
20
-3.45946
11
5.33464
21
-3.45929
0
LINE
8
BLACK
6
CONTINUOUS
10
5.33464
20
-3.45929
11
5.3345
21
-3.45853
0
LINE
8
BLACK
6
CONTINUOUS
10
5.3345
20
-3.45853
11
5.33424
21
-3.45781
0
LINE
8
BLACK
6
CONTINUOUS
10
5.33424
20
-3.45781
11
5.33424
21
-3.41844
0
LINE
8
BLACK
6
CONTINUOUS
10
5.33424
20
-3.41844
11
5.33442
21
-3.41743
0
LINE
8
BLACK
6
CONTINUOUS
10
5.33442
20
-3.41743
11
5.33572
21
-3.41588
0
LINE
8
BLACK
6
CONTINUOUS
10
5.33572
20
-3.41588
11
5.33771
21
-3.41553
0
LINE
8
BLACK
6
CONTINUOUS
10
5.33771
20
-3.41553
11
5.33946
21
-3.41654
0
LINE
8
BLACK
6
CONTINUOUS
10
5.41695
20
-3.41567
11
5.41708
21
-3.41578
0
LINE
8
BLACK
6
CONTINUOUS
10
5.41708
20
-3.41578
11
5.41726
21
-3.4158
0
LINE
8
BLACK
6
CONTINUOUS
10
5.41726
20
-3.4158
11
5.42101
21
-3.41767
0
LINE
8
BLACK
6
CONTINUOUS
10
5.42101
20
-3.41767
11
5.42171
21
-3.4182
0
LINE
8
BLACK
6
CONTINUOUS
10
5.42171
20
-3.4182
11
5.42177
21
-3.41823
0
LINE
8
BLACK
6
CONTINUOUS
10
5.42177
20
-3.41823
11
5.42365
21
-3.4201
0
LINE
8
BLACK
6
CONTINUOUS
10
5.42365
20
-3.4201
11
5.42415
21
-3.42082
0
LINE
8
BLACK
6
CONTINUOUS
10
5.42415
20
-3.42082
11
5.4242
21
-3.42087
0
LINE
8
BLACK
6
CONTINUOUS
10
5.4242
20
-3.42087
11
5.42608
21
-3.42462
0
LINE
8
BLACK
6
CONTINUOUS
10
5.42608
20
-3.42462
11
5.42637
21
-3.4256
0
LINE
8
BLACK
6
CONTINUOUS
10
5.42637
20
-3.4256
11
5.42633
21
-3.42577
0
LINE
8
BLACK
6
CONTINUOUS
10
5.42633
20
-3.42577
11
5.42639
21
-3.42594
0
LINE
8
BLACK
6
CONTINUOUS
10
5.42639
20
-3.42594
11
5.42639
21
-3.42969
0
LINE
8
BLACK
6
CONTINUOUS
10
5.42639
20
-3.42969
11
5.42621
21
-3.4307
0
LINE
8
BLACK
6
CONTINUOUS
10
5.42621
20
-3.4307
11
5.4261
21
-3.43083
0
LINE
8
BLACK
6
CONTINUOUS
10
5.4261
20
-3.43083
11
5.42608
21
-3.43101
0
LINE
8
BLACK
6
CONTINUOUS
10
5.42608
20
-3.43101
11
5.4242
21
-3.43476
0
LINE
8
BLACK
6
CONTINUOUS
10
5.4242
20
-3.43476
11
5.42367
21
-3.43547
0
LINE
8
BLACK
6
CONTINUOUS
10
5.42367
20
-3.43547
11
5.42365
21
-3.43553
0
LINE
8
BLACK
6
CONTINUOUS
10
5.42365
20
-3.43553
11
5.42277
21
-3.43641
0
LINE
8
BLACK
6
CONTINUOUS
10
5.42277
20
-3.43641
11
5.4234
21
-3.43675
0
LINE
8
BLACK
6
CONTINUOUS
10
5.4234
20
-3.43675
11
5.42349
21
-3.4369
0
LINE
8
BLACK
6
CONTINUOUS
10
5.42349
20
-3.4369
11
5.42365
21
-3.43697
0
LINE
8
BLACK
6
CONTINUOUS
10
5.42365
20
-3.43697
11
5.42552
21
-3.43885
0
LINE
8
BLACK
6
CONTINUOUS
10
5.42552
20
-3.43885
11
5.42603
21
-3.43957
0
LINE
8
BLACK
6
CONTINUOUS
10
5.42603
20
-3.43957
11
5.42608
21
-3.43962
0
LINE
8
BLACK
6
CONTINUOUS
10
5.42608
20
-3.43962
11
5.42795
21
-3.44337
0
LINE
8
BLACK
6
CONTINUOUS
10
5.42795
20
-3.44337
11
5.42824
21
-3.44435
0
LINE
8
BLACK
6
CONTINUOUS
10
5.42824
20
-3.44435
11
5.4282
21
-3.44452
0
LINE
8
BLACK
6
CONTINUOUS
10
5.4282
20
-3.44452
11
5.42826
21
-3.44469
0
LINE
8
BLACK
6
CONTINUOUS
10
5.42826
20
-3.44469
11
5.42826
21
-3.45031
0
LINE
8
BLACK
6
CONTINUOUS
10
5.42826
20
-3.45031
11
5.42808
21
-3.45132
0
LINE
8
BLACK
6
CONTINUOUS
10
5.42808
20
-3.45132
11
5.42797
21
-3.45146
0
LINE
8
BLACK
6
CONTINUOUS
10
5.42797
20
-3.45146
11
5.42795
21
-3.45163
0
LINE
8
BLACK
6
CONTINUOUS
10
5.42795
20
-3.45163
11
5.42608
21
-3.45538
0
LINE
8
BLACK
6
CONTINUOUS
10
5.42608
20
-3.45538
11
5.42555
21
-3.45609
0
LINE
8
BLACK
6
CONTINUOUS
10
5.42555
20
-3.45609
11
5.42552
21
-3.45615
0
LINE
8
BLACK
6
CONTINUOUS
10
5.42552
20
-3.45615
11
5.42365
21
-3.45802
0
LINE
8
BLACK
6
CONTINUOUS
10
5.42365
20
-3.45802
11
5.42292
21
-3.45853
0
LINE
8
BLACK
6
CONTINUOUS
10
5.42292
20
-3.45853
11
5.42288
21
-3.45858
0
LINE
8
BLACK
6
CONTINUOUS
10
5.42288
20
-3.45858
11
5.41913
21
-3.46045
0
LINE
8
BLACK
6
CONTINUOUS
10
5.41913
20
-3.46045
11
5.41815
21
-3.46074
0
LINE
8
BLACK
6
CONTINUOUS
10
5.41815
20
-3.46074
11
5.41798
21
-3.4607
0
LINE
8
BLACK
6
CONTINUOUS
10
5.41798
20
-3.4607
11
5.41781
21
-3.46076
0
LINE
8
BLACK
6
CONTINUOUS
10
5.41781
20
-3.46076
11
5.40281
21
-3.46076
0
LINE
8
BLACK
6
CONTINUOUS
10
5.40281
20
-3.46076
11
5.40243
21
-3.4607
0
LINE
8
BLACK
6
CONTINUOUS
10
5.40243
20
-3.4607
11
5.4023
21
-3.46072
0
LINE
8
BLACK
6
CONTINUOUS
10
5.4023
20
-3.46072
11
5.40219
21
-3.46065
0
LINE
8
BLACK
6
CONTINUOUS
10
5.40219
20
-3.46065
11
5.4018
21
-3.46058
0
LINE
8
BLACK
6
CONTINUOUS
10
5.4018
20
-3.46058
11
5.40121
21
-3.46009
0
LINE
8
BLACK
6
CONTINUOUS
10
5.40121
20
-3.46009
11
5.40055
21
-3.45971
0
LINE
8
BLACK
6
CONTINUOUS
10
5.40055
20
-3.45971
11
5.40046
21
-3.45946
0
LINE
8
BLACK
6
CONTINUOUS
10
5.40046
20
-3.45946
11
5.40025
21
-3.45929
0
LINE
8
BLACK
6
CONTINUOUS
10
5.40025
20
-3.45929
11
5.40012
21
-3.45853
0
LINE
8
BLACK
6
CONTINUOUS
10
5.40012
20
-3.45853
11
5.39986
21
-3.45781
0
LINE
8
BLACK
6
CONTINUOUS
10
5.39986
20
-3.45781
11
5.39986
21
-3.41844
0
LINE
8
BLACK
6
CONTINUOUS
10
5.39986
20
-3.41844
11
5.39993
21
-3.41806
0
LINE
8
BLACK
6
CONTINUOUS
10
5.39993
20
-3.41806
11
5.3999
21
-3.41793
0
LINE
8
BLACK
6
CONTINUOUS
10
5.3999
20
-3.41793
11
5.39997
21
-3.41781
0
LINE
8
BLACK
6
CONTINUOUS
10
5.39997
20
-3.41781
11
5.40004
21
-3.41743
0
LINE
8
BLACK
6
CONTINUOUS
10
5.40004
20
-3.41743
11
5.40053
21
-3.41684
0
LINE
8
BLACK
6
CONTINUOUS
10
5.40053
20
-3.41684
11
5.40091
21
-3.41618
0
LINE
8
BLACK
6
CONTINUOUS
10
5.40091
20
-3.41618
11
5.40116
21
-3.41609
0
LINE
8
BLACK
6
CONTINUOUS
10
5.40116
20
-3.41609
11
5.40134
21
-3.41588
0
LINE
8
BLACK
6
CONTINUOUS
10
5.40134
20
-3.41588
11
5.40209
21
-3.41575
0
LINE
8
BLACK
6
CONTINUOUS
10
5.40209
20
-3.41575
11
5.40281
21
-3.41549
0
LINE
8
BLACK
6
CONTINUOUS
10
5.40281
20
-3.41549
11
5.41594
21
-3.41549
0
LINE
8
BLACK
6
CONTINUOUS
10
5.41594
20
-3.41549
11
5.41695
21
-3.41567
0
LINE
8
BLACK
6
CONTINUOUS
10
5.40576
20
-3.44014
11
5.40576
21
-3.45486
0
LINE
8
BLACK
6
CONTINUOUS
10
5.40576
20
-3.45486
11
5.41711
21
-3.45486
0
LINE
8
BLACK
6
CONTINUOUS
10
5.41711
20
-3.45486
11
5.41981
21
-3.45351
0
LINE
8
BLACK
6
CONTINUOUS
10
5.41981
20
-3.45351
11
5.42101
21
-3.45231
0
LINE
8
BLACK
6
CONTINUOUS
10
5.42101
20
-3.45231
11
5.42236
21
-3.44961
0
LINE
8
BLACK
6
CONTINUOUS
10
5.42236
20
-3.44961
11
5.42236
21
-3.44538
0
LINE
8
BLACK
6
CONTINUOUS
10
5.42236
20
-3.44538
11
5.42101
21
-3.44269
0
LINE
8
BLACK
6
CONTINUOUS
10
5.42101
20
-3.44269
11
5.41996
21
-3.44164
0
LINE
8
BLACK
6
CONTINUOUS
10
5.41996
20
-3.44164
11
5.41546
21
-3.44014
0
LINE
8
BLACK
6
CONTINUOUS
10
5.41546
20
-3.44014
11
5.40576
21
-3.44014
0
LINE
8
BLACK
6
CONTINUOUS
10
5.40576
20
-3.42139
11
5.40576
21
-3.43424
0
LINE
8
BLACK
6
CONTINUOUS
10
5.40576
20
-3.43424
11
5.41524
21
-3.43424
0
LINE
8
BLACK
6
CONTINUOUS
10
5.41524
20
-3.43424
11
5.41794
21
-3.43289
0
LINE
8
BLACK
6
CONTINUOUS
10
5.41794
20
-3.43289
11
5.41913
21
-3.43169
0
LINE
8
BLACK
6
CONTINUOUS
10
5.41913
20
-3.43169
11
5.42048
21
-3.42899
0
LINE
8
BLACK
6
CONTINUOUS
10
5.42048
20
-3.42899
11
5.42048
21
-3.42664
0
LINE
8
BLACK
6
CONTINUOUS
10
5.42048
20
-3.42664
11
5.41913
21
-3.42394
0
LINE
8
BLACK
6
CONTINUOUS
10
5.41913
20
-3.42394
11
5.41794
21
-3.42274
0
LINE
8
BLACK
6
CONTINUOUS
10
5.41794
20
-3.42274
11
5.41524
21
-3.42139
0
LINE
8
BLACK
6
CONTINUOUS
10
5.41524
20
-3.42139
11
5.40576
21
-3.42139
0
LINE
8
BLACK
6
CONTINUOUS
10
5.51185
20
-3.42866
11
5.51197
21
-3.42864
0
LINE
8
BLACK
6
CONTINUOUS
10
5.51197
20
-3.42864
11
5.51209
21
-3.42871
0
LINE
8
BLACK
6
CONTINUOUS
10
5.51209
20
-3.42871
11
5.51256
21
-3.42879
0
LINE
8
BLACK
6
CONTINUOUS
10
5.51256
20
-3.42879
11
5.51311
21
-3.42925
0
LINE
8
BLACK
6
CONTINUOUS
10
5.51311
20
-3.42925
11
5.51375
21
-3.42959
0
LINE
8
BLACK
6
CONTINUOUS
10
5.51375
20
-3.42959
11
5.51387
21
-3.42989
0
LINE
8
BLACK
6
CONTINUOUS
10
5.51387
20
-3.42989
11
5.51411
21
-3.43009
0
LINE
8
BLACK
6
CONTINUOUS
10
5.51411
20
-3.43009
11
5.51423
21
-3.4308
0
LINE
8
BLACK
6
CONTINUOUS
10
5.51423
20
-3.4308
11
5.5145
21
-3.43147
0
LINE
8
BLACK
6
CONTINUOUS
10
5.5145
20
-3.43147
11
5.5144
21
-3.43177
0
LINE
8
BLACK
6
CONTINUOUS
10
5.5144
20
-3.43177
11
5.51446
21
-3.43208
0
LINE
8
BLACK
6
CONTINUOUS
10
5.51446
20
-3.43208
11
5.5141
21
-3.4327
0
LINE
8
BLACK
6
CONTINUOUS
10
5.5141
20
-3.4327
11
5.51387
21
-3.43339
0
LINE
8
BLACK
6
CONTINUOUS
10
5.51387
20
-3.43339
11
5.497
21
-3.45486
0
LINE
8
BLACK
6
CONTINUOUS
10
5.497
20
-3.45486
11
5.51155
21
-3.45486
0
LINE
8
BLACK
6
CONTINUOUS
10
5.51155
20
-3.45486
11
5.51256
21
-3.45504
0
LINE
8
BLACK
6
CONTINUOUS
10
5.51256
20
-3.45504
11
5.51411
21
-3.45633
0
LINE
8
BLACK
6
CONTINUOUS
10
5.51411
20
-3.45633
11
5.51446
21
-3.45832
0
LINE
8
BLACK
6
CONTINUOUS
10
5.51446
20
-3.45832
11
5.51345
21
-3.46007
0
LINE
8
BLACK
6
CONTINUOUS
10
5.51345
20
-3.46007
11
5.51155
21
-3.46076
0
LINE
8
BLACK
6
CONTINUOUS
10
5.51155
20
-3.46076
11
5.49093
21
-3.46076
0
LINE
8
BLACK
6
CONTINUOUS
10
5.49093
20
-3.46076
11
5.49062
21
-3.46071
0
LINE
8
BLACK
6
CONTINUOUS
10
5.49062
20
-3.46071
11
5.49051
21
-3.46073
0
LINE
8
BLACK
6
CONTINUOUS
10
5.49051
20
-3.46073
11
5.49038
21
-3.46067
0
LINE
8
BLACK
6
CONTINUOUS
10
5.49038
20
-3.46067
11
5.48992
21
-3.46058
0
LINE
8
BLACK
6
CONTINUOUS
10
5.48992
20
-3.46058
11
5.48936
21
-3.46012
0
LINE
8
BLACK
6
CONTINUOUS
10
5.48936
20
-3.46012
11
5.48873
21
-3.45978
0
LINE
8
BLACK
6
CONTINUOUS
10
5.48873
20
-3.45978
11
5.48861
21
-3.45949
0
LINE
8
BLACK
6
CONTINUOUS
10
5.48861
20
-3.45949
11
5.48837
21
-3.45929
0
LINE
8
BLACK
6
CONTINUOUS
10
5.48837
20
-3.45929
11
5.48824
21
-3.45858
0
LINE
8
BLACK
6
CONTINUOUS
10
5.48824
20
-3.45858
11
5.48797
21
-3.45791
0
LINE
8
BLACK
6
CONTINUOUS
10
5.48797
20
-3.45791
11
5.48807
21
-3.45761
0
LINE
8
BLACK
6
CONTINUOUS
10
5.48807
20
-3.45761
11
5.48802
21
-3.4573
0
LINE
8
BLACK
6
CONTINUOUS
10
5.48802
20
-3.4573
11
5.48838
21
-3.45667
0
LINE
8
BLACK
6
CONTINUOUS
10
5.48838
20
-3.45667
11
5.4886
21
-3.45599
0
LINE
8
BLACK
6
CONTINUOUS
10
5.4886
20
-3.45599
11
5.50547
21
-3.43452
0
LINE
8
BLACK
6
CONTINUOUS
10
5.50547
20
-3.43452
11
5.49093
21
-3.43452
0
LINE
8
BLACK
6
CONTINUOUS
10
5.49093
20
-3.43452
11
5.48992
21
-3.43434
0
LINE
8
BLACK
6
CONTINUOUS
10
5.48992
20
-3.43434
11
5.48837
21
-3.43304
0
LINE
8
BLACK
6
CONTINUOUS
10
5.48837
20
-3.43304
11
5.48802
21
-3.43105
0
LINE
8
BLACK
6
CONTINUOUS
10
5.48802
20
-3.43105
11
5.48903
21
-3.4293
0
LINE
8
BLACK
6
CONTINUOUS
10
5.48903
20
-3.4293
11
5.49093
21
-3.42861
0
LINE
8
BLACK
6
CONTINUOUS
10
5.49093
20
-3.42861
11
5.51155
21
-3.42861
0
LINE
8
BLACK
6
CONTINUOUS
10
5.51155
20
-3.42861
11
5.51185
21
-3.42866
0
LINE
8
BLACK
6
CONTINUOUS
10
5.44256
20
-3.45118
11
5.44269
21
-3.45115
0
LINE
8
BLACK
6
CONTINUOUS
10
5.44269
20
-3.45115
11
5.44281
21
-3.45122
0
LINE
8
BLACK
6
CONTINUOUS
10
5.44281
20
-3.45122
11
5.44295
21
-3.45121
0
LINE
8
BLACK
6
CONTINUOUS
10
5.44295
20
-3.45121
11
5.44357
21
-3.45165
0
LINE
8
BLACK
6
CONTINUOUS
10
5.44357
20
-3.45165
11
5.44427
21
-3.45197
0
LINE
8
BLACK
6
CONTINUOUS
10
5.44427
20
-3.45197
11
5.44614
21
-3.45385
0
LINE
8
BLACK
6
CONTINUOUS
10
5.44614
20
-3.45385
11
5.44637
21
-3.45417
0
LINE
8
BLACK
6
CONTINUOUS
10
5.44637
20
-3.45417
11
5.44648
21
-3.45424
0
LINE
8
BLACK
6
CONTINUOUS
10
5.44648
20
-3.45424
11
5.44651
21
-3.45437
0
LINE
8
BLACK
6
CONTINUOUS
10
5.44651
20
-3.45437
11
5.44673
21
-3.45469
0
LINE
8
BLACK
6
CONTINUOUS
10
5.44673
20
-3.45469
11
5.4468
21
-3.45545
0
LINE
8
BLACK
6
CONTINUOUS
10
5.4468
20
-3.45545
11
5.447
21
-3.45619
0
LINE
8
BLACK
6
CONTINUOUS
10
5.447
20
-3.45619
11
5.44689
21
-3.45643
0
LINE
8
BLACK
6
CONTINUOUS
10
5.44689
20
-3.45643
11
5.44691
21
-3.4567
0
LINE
8
BLACK
6
CONTINUOUS
10
5.44691
20
-3.4567
11
5.44647
21
-3.45733
0
LINE
8
BLACK
6
CONTINUOUS
10
5.44647
20
-3.45733
11
5.44614
21
-3.45802
0
LINE
8
BLACK
6
CONTINUOUS
10
5.44614
20
-3.45802
11
5.44427
21
-3.4599
0
LINE
8
BLACK
6
CONTINUOUS
10
5.44427
20
-3.4599
11
5.44395
21
-3.46012
0
LINE
8
BLACK
6
CONTINUOUS
10
5.44395
20
-3.46012
11
5.44388
21
-3.46023
0
LINE
8
BLACK
6
CONTINUOUS
10
5.44388
20
-3.46023
11
5.44375
21
-3.46026
0
LINE
8
BLACK
6
CONTINUOUS
10
5.44375
20
-3.46026
11
5.44374
21
-3.46027
0
LINE
8
BLACK
6
CONTINUOUS
10
5.44374
20
-3.46027
11
5.44366
21
-3.46037
0
LINE
8
BLACK
6
CONTINUOUS
10
5.44366
20
-3.46037
11
5.44358
21
-3.46038
0
LINE
8
BLACK
6
CONTINUOUS
10
5.44358
20
-3.46038
11
5.44343
21
-3.46049
0
LINE
8
BLACK
6
CONTINUOUS
10
5.44343
20
-3.46049
11
5.44267
21
-3.46055
0
LINE
8
BLACK
6
CONTINUOUS
10
5.44267
20
-3.46055
11
5.44192
21
-3.46075
0
LINE
8
BLACK
6
CONTINUOUS
10
5.44192
20
-3.46075
11
5.4418
21
-3.46069
0
LINE
8
BLACK
6
CONTINUOUS
10
5.4418
20
-3.46069
11
5.44167
21
-3.46072
0
LINE
8
BLACK
6
CONTINUOUS
10
5.44167
20
-3.46072
11
5.44155
21
-3.46065
0
LINE
8
BLACK
6
CONTINUOUS
10
5.44155
20
-3.46065
11
5.44142
21
-3.46066
0
LINE
8
BLACK
6
CONTINUOUS
10
5.44142
20
-3.46066
11
5.44079
21
-3.46022
0
LINE
8
BLACK
6
CONTINUOUS
10
5.44079
20
-3.46022
11
5.44009
21
-3.4599
0
LINE
8
BLACK
6
CONTINUOUS
10
5.44009
20
-3.4599
11
5.43822
21
-3.45802
0
LINE
8
BLACK
6
CONTINUOUS
10
5.43822
20
-3.45802
11
5.438
21
-3.4577
0
LINE
8
BLACK
6
CONTINUOUS
10
5.438
20
-3.4577
11
5.43789
21
-3.45763
0
LINE
8
BLACK
6
CONTINUOUS
10
5.43789
20
-3.45763
11
5.43785
21
-3.4575
0
LINE
8
BLACK
6
CONTINUOUS
10
5.43785
20
-3.4575
11
5.43763
21
-3.45718
0
LINE
8
BLACK
6
CONTINUOUS
10
5.43763
20
-3.45718
11
5.43756
21
-3.45642
0
LINE
8
BLACK
6
CONTINUOUS
10
5.43756
20
-3.45642
11
5.43737
21
-3.45568
0
LINE
8
BLACK
6
CONTINUOUS
10
5.43737
20
-3.45568
11
5.43748
21
-3.45544
0
LINE
8
BLACK
6
CONTINUOUS
10
5.43748
20
-3.45544
11
5.43746
21
-3.45517
0
LINE
8
BLACK
6
CONTINUOUS
10
5.43746
20
-3.45517
11
5.4379
21
-3.45454
0
LINE
8
BLACK
6
CONTINUOUS
10
5.4379
20
-3.45454
11
5.43822
21
-3.45385
0
LINE
8
BLACK
6
CONTINUOUS
10
5.43822
20
-3.45385
11
5.44009
21
-3.45197
0
LINE
8
BLACK
6
CONTINUOUS
10
5.44009
20
-3.45197
11
5.44041
21
-3.45175
0
LINE
8
BLACK
6
CONTINUOUS
10
5.44041
20
-3.45175
11
5.44049
21
-3.45164
0
LINE
8
BLACK
6
CONTINUOUS
10
5.44049
20
-3.45164
11
5.44062
21
-3.45161
0
LINE
8
BLACK
6
CONTINUOUS
10
5.44062
20
-3.45161
11
5.44062
21
-3.4516
0
LINE
8
BLACK
6
CONTINUOUS
10
5.44062
20
-3.4516
11
5.44071
21
-3.4515
0
LINE
8
BLACK
6
CONTINUOUS
10
5.44071
20
-3.4515
11
5.44078
21
-3.45149
0
LINE
8
BLACK
6
CONTINUOUS
10
5.44078
20
-3.45149
11
5.44093
21
-3.45138
0
LINE
8
BLACK
6
CONTINUOUS
10
5.44093
20
-3.45138
11
5.4417
21
-3.45132
0
LINE
8
BLACK
6
CONTINUOUS
10
5.4417
20
-3.45132
11
5.44244
21
-3.45112
0
LINE
8
BLACK
6
CONTINUOUS
10
5.44244
20
-3.45112
11
5.44256
21
-3.45118
0
LINE
8
BLACK
6
CONTINUOUS
10
5.37705
20
-3.41571
11
5.37797
21
-3.41584
0
LINE
8
BLACK
6
CONTINUOUS
10
5.37797
20
-3.41584
11
5.37803
21
-3.41591
0
LINE
8
BLACK
6
CONTINUOUS
10
5.37803
20
-3.41591
11
5.37811
21
-3.41592
0
LINE
8
BLACK
6
CONTINUOUS
10
5.37811
20
-3.41592
11
5.37869
21
-3.41666
0
LINE
8
BLACK
6
CONTINUOUS
10
5.37869
20
-3.41666
11
5.37931
21
-3.41735
0
LINE
8
BLACK
6
CONTINUOUS
10
5.37931
20
-3.41735
11
5.37931
21
-3.41744
0
LINE
8
BLACK
6
CONTINUOUS
10
5.37931
20
-3.41744
11
5.37937
21
-3.41751
0
LINE
8
BLACK
6
CONTINUOUS
10
5.37937
20
-3.41751
11
5.39249
21
-3.45688
0
LINE
8
BLACK
6
CONTINUOUS
10
5.39249
20
-3.45688
11
5.39264
21
-3.45789
0
LINE
8
BLACK
6
CONTINUOUS
10
5.39264
20
-3.45789
11
5.3919
21
-3.45977
0
LINE
8
BLACK
6
CONTINUOUS
10
5.3919
20
-3.45977
11
5.39012
21
-3.46073
0
LINE
8
BLACK
6
CONTINUOUS
10
5.39012
20
-3.46073
11
5.38814
21
-3.46033
0
LINE
8
BLACK
6
CONTINUOUS
10
5.38814
20
-3.46033
11
5.38689
21
-3.45874
0
LINE
8
BLACK
6
CONTINUOUS
10
5.38689
20
-3.45874
11
5.38381
21
-3.44951
0
LINE
8
BLACK
6
CONTINUOUS
10
5.38381
20
-3.44951
11
5.36932
21
-3.44951
0
LINE
8
BLACK
6
CONTINUOUS
10
5.36932
20
-3.44951
11
5.36624
21
-3.45874
0
LINE
8
BLACK
6
CONTINUOUS
10
5.36624
20
-3.45874
11
5.36575
21
-3.45965
0
LINE
8
BLACK
6
CONTINUOUS
10
5.36575
20
-3.45965
11
5.36403
21
-3.4607
0
LINE
8
BLACK
6
CONTINUOUS
10
5.36403
20
-3.4607
11
5.36204
21
-3.46041
0
LINE
8
BLACK
6
CONTINUOUS
10
5.36204
20
-3.46041
11
5.3607
21
-3.4589
0
LINE
8
BLACK
6
CONTINUOUS
10
5.3607
20
-3.4589
11
5.36064
21
-3.45688
0
LINE
8
BLACK
6
CONTINUOUS
10
5.36064
20
-3.45688
11
5.37376
21
-3.41751
0
LINE
8
BLACK
6
CONTINUOUS
10
5.37376
20
-3.41751
11
5.37425
21
-3.4166
0
LINE
8
BLACK
6
CONTINUOUS
10
5.37425
20
-3.4166
11
5.37432
21
-3.41656
0
LINE
8
BLACK
6
CONTINUOUS
10
5.37432
20
-3.41656
11
5.37436
21
-3.41648
0
LINE
8
BLACK
6
CONTINUOUS
10
5.37436
20
-3.41648
11
5.37518
21
-3.41604
0
LINE
8
BLACK
6
CONTINUOUS
10
5.37518
20
-3.41604
11
5.37597
21
-3.41555
0
LINE
8
BLACK
6
CONTINUOUS
10
5.37597
20
-3.41555
11
5.37606
21
-3.41556
0
LINE
8
BLACK
6
CONTINUOUS
10
5.37606
20
-3.41556
11
5.37613
21
-3.41552
0
LINE
8
BLACK
6
CONTINUOUS
10
5.37613
20
-3.41552
11
5.37705
21
-3.41571
0
LINE
8
BLACK
6
CONTINUOUS
10
5.37129
20
-3.44361
11
5.38184
21
-3.44361
0
LINE
8
BLACK
6
CONTINUOUS
10
5.38184
20
-3.44361
11
5.37657
21
-3.42778
0
LINE
8
BLACK
6
CONTINUOUS
10
5.37657
20
-3.42778
11
5.37129
21
-3.44361
0
LINE
8
BLACK
6
CONTINUOUS
10
5.31857
20
-3.4156
11
5.31896
21
-3.41553
0
LINE
8
BLACK
6
CONTINUOUS
10
5.31896
20
-3.41553
11
5.31952
21
-3.41585
0
LINE
8
BLACK
6
CONTINUOUS
10
5.31952
20
-3.41585
11
5.32014
21
-3.41602
0
LINE
8
BLACK
6
CONTINUOUS
10
5.32014
20
-3.41602
11
5.32037
21
-3.41635
0
LINE
8
BLACK
6
CONTINUOUS
10
5.32037
20
-3.41635
11
5.32071
21
-3.41654
0
LINE
8
BLACK
6
CONTINUOUS
10
5.32071
20
-3.41654
11
5.32093
21
-3.41715
0
LINE
8
BLACK
6
CONTINUOUS
10
5.32093
20
-3.41715
11
5.3213
21
-3.41768
0
LINE
8
BLACK
6
CONTINUOUS
10
5.3213
20
-3.41768
11
5.32127
21
-3.41807
0
LINE
8
BLACK
6
CONTINUOUS
10
5.32127
20
-3.41807
11
5.3214
21
-3.41844
0
LINE
8
BLACK
6
CONTINUOUS
10
5.3214
20
-3.41844
11
5.3214
21
-3.45781
0
LINE
8
BLACK
6
CONTINUOUS
10
5.3214
20
-3.45781
11
5.32122
21
-3.45882
0
LINE
8
BLACK
6
CONTINUOUS
10
5.32122
20
-3.45882
11
5.31992
21
-3.46037
0
LINE
8
BLACK
6
CONTINUOUS
10
5.31992
20
-3.46037
11
5.31793
21
-3.46072
0
LINE
8
BLACK
6
CONTINUOUS
10
5.31793
20
-3.46072
11
5.31619
21
-3.45971
0
LINE
8
BLACK
6
CONTINUOUS
10
5.31619
20
-3.45971
11
5.31549
21
-3.45781
0
LINE
8
BLACK
6
CONTINUOUS
10
5.31549
20
-3.45781
11
5.31549
21
-3.43175
0
LINE
8
BLACK
6
CONTINUOUS
10
5.31549
20
-3.43175
11
5.308
21
-3.44781
0
LINE
8
BLACK
6
CONTINUOUS
10
5.308
20
-3.44781
11
5.30778
21
-3.44813
0
LINE
8
BLACK
6
CONTINUOUS
10
5.30778
20
-3.44813
11
5.30774
21
-3.44825
0
LINE
8
BLACK
6
CONTINUOUS
10
5.30774
20
-3.44825
11
5.30764
21
-3.44833
0
LINE
8
BLACK
6
CONTINUOUS
10
5.30764
20
-3.44833
11
5.30741
21
-3.44865
0
LINE
8
BLACK
6
CONTINUOUS
10
5.30741
20
-3.44865
11
5.30672
21
-3.44897
0
LINE
8
BLACK
6
CONTINUOUS
10
5.30672
20
-3.44897
11
5.30609
21
-3.44941
0
LINE
8
BLACK
6
CONTINUOUS
10
5.30609
20
-3.44941
11
5.30582
21
-3.44939
0
LINE
8
BLACK
6
CONTINUOUS
10
5.30582
20
-3.44939
11
5.30558
21
-3.4495
0
LINE
8
BLACK
6
CONTINUOUS
10
5.30558
20
-3.4495
11
5.30484
21
-3.4493
0
LINE
8
BLACK
6
CONTINUOUS
10
5.30484
20
-3.4493
11
5.30408
21
-3.44924
0
LINE
8
BLACK
6
CONTINUOUS
10
5.30408
20
-3.44924
11
5.30389
21
-3.44905
0
LINE
8
BLACK
6
CONTINUOUS
10
5.30389
20
-3.44905
11
5.30363
21
-3.44898
0
LINE
8
BLACK
6
CONTINUOUS
10
5.30363
20
-3.44898
11
5.30319
21
-3.44835
0
LINE
8
BLACK
6
CONTINUOUS
10
5.30319
20
-3.44835
11
5.30265
21
-3.44781
0
LINE
8
BLACK
6
CONTINUOUS
10
5.30265
20
-3.44781
11
5.29515
21
-3.43175
0
LINE
8
BLACK
6
CONTINUOUS
10
5.29515
20
-3.43175
11
5.29515
21
-3.45781
0
LINE
8
BLACK
6
CONTINUOUS
10
5.29515
20
-3.45781
11
5.29498
21
-3.45882
0
LINE
8
BLACK
6
CONTINUOUS
10
5.29498
20
-3.45882
11
5.29368
21
-3.46037
0
LINE
8
BLACK
6
CONTINUOUS
10
5.29368
20
-3.46037
11
5.29169
21
-3.46072
0
LINE
8
BLACK
6
CONTINUOUS
10
5.29169
20
-3.46072
11
5.28994
21
-3.45971
0
LINE
8
BLACK
6
CONTINUOUS
10
5.28994
20
-3.45971
11
5.28925
21
-3.45781
0
LINE
8
BLACK
6
CONTINUOUS
10
5.28925
20
-3.45781
11
5.28925
21
-3.41844
0
LINE
8
BLACK
6
CONTINUOUS
10
5.28925
20
-3.41844
11
5.28943
21
-3.41743
0
LINE
8
BLACK
6
CONTINUOUS
10
5.28943
20
-3.41743
11
5.28968
21
-3.41713
0
LINE
8
BLACK
6
CONTINUOUS
10
5.28968
20
-3.41713
11
5.28978
21
-3.41675
0
LINE
8
BLACK
6
CONTINUOUS
10
5.28978
20
-3.41675
11
5.29031
21
-3.41638
0
LINE
8
BLACK
6
CONTINUOUS
10
5.29031
20
-3.41638
11
5.29072
21
-3.41588
0
LINE
8
BLACK
6
CONTINUOUS
10
5.29072
20
-3.41588
11
5.29111
21
-3.41581
0
LINE
8
BLACK
6
CONTINUOUS
10
5.29111
20
-3.41581
11
5.29144
21
-3.41559
0
LINE
8
BLACK
6
CONTINUOUS
10
5.29144
20
-3.41559
11
5.29208
21
-3.41564
0
LINE
8
BLACK
6
CONTINUOUS
10
5.29208
20
-3.41564
11
5.29271
21
-3.41553
0
LINE
8
BLACK
6
CONTINUOUS
10
5.29271
20
-3.41553
11
5.29306
21
-3.41573
0
LINE
8
BLACK
6
CONTINUOUS
10
5.29306
20
-3.41573
11
5.29345
21
-3.41576
0
LINE
8
BLACK
6
CONTINUOUS
10
5.29345
20
-3.41576
11
5.2939
21
-3.41622
0
LINE
8
BLACK
6
CONTINUOUS
10
5.2939
20
-3.41622
11
5.29446
21
-3.41654
0
LINE
8
BLACK
6
CONTINUOUS
10
5.29446
20
-3.41654
11
5.2946
21
-3.41691
0
LINE
8
BLACK
6
CONTINUOUS
10
5.2946
20
-3.41691
11
5.29488
21
-3.41719
0
LINE
8
BLACK
6
CONTINUOUS
10
5.29488
20
-3.41719
11
5.30532
21
-3.43958
0
LINE
8
BLACK
6
CONTINUOUS
10
5.30532
20
-3.43958
11
5.31577
21
-3.41719
0
LINE
8
BLACK
6
CONTINUOUS
10
5.31577
20
-3.41719
11
5.31636
21
-3.41635
0
LINE
8
BLACK
6
CONTINUOUS
10
5.31636
20
-3.41635
11
5.31672
21
-3.41619
0
LINE
8
BLACK
6
CONTINUOUS
10
5.31672
20
-3.41619
11
5.31697
21
-3.41588
0
LINE
8
BLACK
6
CONTINUOUS
10
5.31697
20
-3.41588
11
5.31761
21
-3.41577
0
LINE
8
BLACK
6
CONTINUOUS
10
5.31761
20
-3.41577
11
5.31819
21
-3.4155
0
LINE
8
BLACK
6
CONTINUOUS
10
5.31819
20
-3.4155
11
5.31857
21
-3.4156
0
LINE
8
BLACK
6
CONTINUOUS
10
5.60056
20
-3.4301
11
5.59901
21
-3.4288
0
LINE
8
BLACK
6
CONTINUOUS
10
5.59901
20
-3.4288
11
5.59866
21
-3.42681
0
LINE
8
BLACK
6
CONTINUOUS
10
5.59866
20
-3.42681
11
5.59967
21
-3.42506
0
LINE
8
BLACK
6
CONTINUOUS
10
5.59967
20
-3.42506
11
5.60157
21
-3.42437
0
LINE
8
BLACK
6
CONTINUOUS
10
5.60157
20
-3.42437
11
5.67843
21
-3.42437
0
LINE
8
BLACK
6
CONTINUOUS
10
5.67843
20
-3.42437
11
5.67944
21
-3.42455
0
LINE
8
BLACK
6
CONTINUOUS
10
5.67944
20
-3.42455
11
5.68099
21
-3.42585
0
LINE
8
BLACK
6
CONTINUOUS
10
5.68099
20
-3.42585
11
5.68134
21
-3.42784
0
LINE
8
BLACK
6
CONTINUOUS
10
5.68134
20
-3.42784
11
5.68033
21
-3.42958
0
LINE
8
BLACK
6
CONTINUOUS
10
5.68033
20
-3.42958
11
5.67843
21
-3.43028
0
LINE
8
BLACK
6
CONTINUOUS
10
5.67843
20
-3.43028
11
5.60157
21
-3.43028
0
LINE
8
BLACK
6
CONTINUOUS
10
5.60157
20
-3.43028
11
5.60056
21
-3.4301
0
LINE
8
BLACK
6
CONTINUOUS
10
5.44319
20
-3.35228
11
5.44333
21
-3.35239
0
LINE
8
BLACK
6
CONTINUOUS
10
5.44333
20
-3.35239
11
5.4435
21
-3.35241
0
LINE
8
BLACK
6
CONTINUOUS
10
5.4435
20
-3.35241
11
5.44725
21
-3.35429
0
LINE
8
BLACK
6
CONTINUOUS
10
5.44725
20
-3.35429
11
5.44796
21
-3.35481
0
LINE
8
BLACK
6
CONTINUOUS
10
5.44796
20
-3.35481
11
5.44802
21
-3.35484
0
LINE
8
BLACK
6
CONTINUOUS
10
5.44802
20
-3.35484
11
5.44989
21
-3.35672
0
LINE
8
BLACK
6
CONTINUOUS
10
5.44989
20
-3.35672
11
5.4504
21
-3.35744
0
LINE
8
BLACK
6
CONTINUOUS
10
5.4504
20
-3.35744
11
5.45045
21
-3.35748
0
LINE
8
BLACK
6
CONTINUOUS
10
5.45045
20
-3.35748
11
5.45232
21
-3.36123
0
LINE
8
BLACK
6
CONTINUOUS
10
5.45232
20
-3.36123
11
5.45247
21
-3.36172
0
LINE
8
BLACK
6
CONTINUOUS
10
5.45247
20
-3.36172
11
5.45255
21
-3.36184
0
LINE
8
BLACK
6
CONTINUOUS
10
5.45255
20
-3.36184
11
5.45442
21
-3.36934
0
LINE
8
BLACK
6
CONTINUOUS
10
5.45442
20
-3.36934
11
5.45446
21
-3.36992
0
LINE
8
BLACK
6
CONTINUOUS
10
5.45446
20
-3.36992
11
5.45451
21
-3.37005
0
LINE
8
BLACK
6
CONTINUOUS
10
5.45451
20
-3.37005
11
5.45451
21
-3.37943
0
LINE
8
BLACK
6
CONTINUOUS
10
5.45451
20
-3.37943
11
5.45441
21
-3.38001
0
LINE
8
BLACK
6
CONTINUOUS
10
5.45441
20
-3.38001
11
5.45442
21
-3.38014
0
LINE
8
BLACK
6
CONTINUOUS
10
5.45442
20
-3.38014
11
5.45255
21
-3.38764
0
LINE
8
BLACK
6
CONTINUOUS
10
5.45255
20
-3.38764
11
5.45234
21
-3.38811
0
LINE
8
BLACK
6
CONTINUOUS
10
5.45234
20
-3.38811
11
5.45232
21
-3.38825
0
LINE
8
BLACK
6
CONTINUOUS
10
5.45232
20
-3.38825
11
5.45045
21
-3.392
0
LINE
8
BLACK
6
CONTINUOUS
10
5.45045
20
-3.392
11
5.44992
21
-3.3927
0
LINE
8
BLACK
6
CONTINUOUS
10
5.44992
20
-3.3927
11
5.44989
21
-3.39276
0
LINE
8
BLACK
6
CONTINUOUS
10
5.44989
20
-3.39276
11
5.44802
21
-3.39464
0
LINE
8
BLACK
6
CONTINUOUS
10
5.44802
20
-3.39464
11
5.4473
21
-3.39514
0
LINE
8
BLACK
6
CONTINUOUS
10
5.4473
20
-3.39514
11
5.44725
21
-3.39519
0
LINE
8
BLACK
6
CONTINUOUS
10
5.44725
20
-3.39519
11
5.4435
21
-3.39707
0
LINE
8
BLACK
6
CONTINUOUS
10
5.4435
20
-3.39707
11
5.44252
21
-3.39736
0
LINE
8
BLACK
6
CONTINUOUS
10
5.44252
20
-3.39736
11
5.44235
21
-3.39732
0
LINE
8
BLACK
6
CONTINUOUS
10
5.44235
20
-3.39732
11
5.44218
21
-3.39738
0
LINE
8
BLACK
6
CONTINUOUS
10
5.44218
20
-3.39738
11
5.43843
21
-3.39738
0
LINE
8
BLACK
6
CONTINUOUS
10
5.43843
20
-3.39738
11
5.43742
21
-3.3972
0
LINE
8
BLACK
6
CONTINUOUS
10
5.43742
20
-3.3972
11
5.43729
21
-3.39709
0
LINE
8
BLACK
6
CONTINUOUS
10
5.43729
20
-3.39709
11
5.43711
21
-3.39707
0
LINE
8
BLACK
6
CONTINUOUS
10
5.43711
20
-3.39707
11
5.43336
21
-3.39519
0
LINE
8
BLACK
6
CONTINUOUS
10
5.43336
20
-3.39519
11
5.43265
21
-3.39466
0
LINE
8
BLACK
6
CONTINUOUS
10
5.43265
20
-3.39466
11
5.4326
21
-3.39464
0
LINE
8
BLACK
6
CONTINUOUS
10
5.4326
20
-3.39464
11
5.43072
21
-3.39276
0
LINE
8
BLACK
6
CONTINUOUS
10
5.43072
20
-3.39276
11
5.43021
21
-3.39204
0
LINE
8
BLACK
6
CONTINUOUS
10
5.43021
20
-3.39204
11
5.43017
21
-3.392
0
LINE
8
BLACK
6
CONTINUOUS
10
5.43017
20
-3.392
11
5.42829
21
-3.38825
0
LINE
8
BLACK
6
CONTINUOUS
10
5.42829
20
-3.38825
11
5.42815
21
-3.38776
0
LINE
8
BLACK
6
CONTINUOUS
10
5.42815
20
-3.38776
11
5.42807
21
-3.38764
0
LINE
8
BLACK
6
CONTINUOUS
10
5.42807
20
-3.38764
11
5.42619
21
-3.38014
0
LINE
8
BLACK
6
CONTINUOUS
10
5.42619
20
-3.38014
11
5.42615
21
-3.37955
0
LINE
8
BLACK
6
CONTINUOUS
10
5.42615
20
-3.37955
11
5.42611
21
-3.37943
0
LINE
8
BLACK
6
CONTINUOUS
10
5.42611
20
-3.37943
11
5.42611
21
-3.37005
0
LINE
8
BLACK
6
CONTINUOUS
10
5.42611
20
-3.37005
11
5.42621
21
-3.36947
0
LINE
8
BLACK
6
CONTINUOUS
10
5.42621
20
-3.36947
11
5.42619
21
-3.36934
0
LINE
8
BLACK
6
CONTINUOUS
10
5.42619
20
-3.36934
11
5.42807
21
-3.36184
0
LINE
8
BLACK
6
CONTINUOUS
10
5.42807
20
-3.36184
11
5.42828
21
-3.36137
0
LINE
8
BLACK
6
CONTINUOUS
10
5.42828
20
-3.36137
11
5.42829
21
-3.36123
0
LINE
8
BLACK
6
CONTINUOUS
10
5.42829
20
-3.36123
11
5.43017
21
-3.35748
0
LINE
8
BLACK
6
CONTINUOUS
10
5.43017
20
-3.35748
11
5.43069
21
-3.35677
0
LINE
8
BLACK
6
CONTINUOUS
10
5.43069
20
-3.35677
11
5.43072
21
-3.35672
0
LINE
8
BLACK
6
CONTINUOUS
10
5.43072
20
-3.35672
11
5.4326
21
-3.35484
0
LINE
8
BLACK
6
CONTINUOUS
10
5.4326
20
-3.35484
11
5.43332
21
-3.35433
0
LINE
8
BLACK
6
CONTINUOUS
10
5.43332
20
-3.35433
11
5.43336
21
-3.35429
0
LINE
8
BLACK
6
CONTINUOUS
10
5.43336
20
-3.35429
11
5.43711
21
-3.35241
0
LINE
8
BLACK
6
CONTINUOUS
10
5.43711
20
-3.35241
11
5.4381
21
-3.35212
0
LINE
8
BLACK
6
CONTINUOUS
10
5.4381
20
-3.35212
11
5.43827
21
-3.35216
0
LINE
8
BLACK
6
CONTINUOUS
10
5.43827
20
-3.35216
11
5.43843
21
-3.3521
0
LINE
8
BLACK
6
CONTINUOUS
10
5.43843
20
-3.3521
11
5.44218
21
-3.3521
0
LINE
8
BLACK
6
CONTINUOUS
10
5.44218
20
-3.3521
11
5.44319
21
-3.35228
0
LINE
8
BLACK
6
CONTINUOUS
10
5.43913
20
-3.35801
11
5.43643
21
-3.35936
0
LINE
8
BLACK
6
CONTINUOUS
10
5.43643
20
-3.35936
11
5.43524
21
-3.36055
0
LINE
8
BLACK
6
CONTINUOUS
10
5.43524
20
-3.36055
11
5.43372
21
-3.36358
0
LINE
8
BLACK
6
CONTINUOUS
10
5.43372
20
-3.36358
11
5.43201
21
-3.37042
0
LINE
8
BLACK
6
CONTINUOUS
10
5.43201
20
-3.37042
11
5.43201
21
-3.37906
0
LINE
8
BLACK
6
CONTINUOUS
10
5.43201
20
-3.37906
11
5.43372
21
-3.38589
0
LINE
8
BLACK
6
CONTINUOUS
10
5.43372
20
-3.38589
11
5.43524
21
-3.38893
0
LINE
8
BLACK
6
CONTINUOUS
10
5.43524
20
-3.38893
11
5.43643
21
-3.39012
0
LINE
8
BLACK
6
CONTINUOUS
10
5.43643
20
-3.39012
11
5.43913
21
-3.39147
0
LINE
8
BLACK
6
CONTINUOUS
10
5.43913
20
-3.39147
11
5.44149
21
-3.39147
0
LINE
8
BLACK
6
CONTINUOUS
10
5.44149
20
-3.39147
11
5.44418
21
-3.39012
0
LINE
8
BLACK
6
CONTINUOUS
10
5.44418
20
-3.39012
11
5.44538
21
-3.38893
0
LINE
8
BLACK
6
CONTINUOUS
10
5.44538
20
-3.38893
11
5.4469
21
-3.38589
0
LINE
8
BLACK
6
CONTINUOUS
10
5.4469
20
-3.38589
11
5.4486
21
-3.37906
0
LINE
8
BLACK
6
CONTINUOUS
10
5.4486
20
-3.37906
11
5.4486
21
-3.37042
0
LINE
8
BLACK
6
CONTINUOUS
10
5.4486
20
-3.37042
11
5.4469
21
-3.36358
0
LINE
8
BLACK
6
CONTINUOUS
10
5.4469
20
-3.36358
11
5.44538
21
-3.36055
0
LINE
8
BLACK
6
CONTINUOUS
10
5.44538
20
-3.36055
11
5.44418
21
-3.35936
0
LINE
8
BLACK
6
CONTINUOUS
10
5.44418
20
-3.35936
11
5.44149
21
-3.35801
0
LINE
8
BLACK
6
CONTINUOUS
10
5.44149
20
-3.35801
11
5.43913
21
-3.35801
0
LINE
8
BLACK
6
CONTINUOUS
10
5.47815
20
-3.35218
11
5.47832
21
-3.35215
0
LINE
8
BLACK
6
CONTINUOUS
10
5.47832
20
-3.35215
11
5.47906
21
-3.35257
0
LINE
8
BLACK
6
CONTINUOUS
10
5.47906
20
-3.35257
11
5.47984
21
-3.35292
0
LINE
8
BLACK
6
CONTINUOUS
10
5.47984
20
-3.35292
11
5.47992
21
-3.35307
0
LINE
8
BLACK
6
CONTINUOUS
10
5.47992
20
-3.35307
11
5.48006
21
-3.35316
0
LINE
8
BLACK
6
CONTINUOUS
10
5.48006
20
-3.35316
11
5.48036
21
-3.35396
0
LINE
8
BLACK
6
CONTINUOUS
10
5.48036
20
-3.35396
11
5.48074
21
-3.35473
0
LINE
8
BLACK
6
CONTINUOUS
10
5.48074
20
-3.35473
11
5.4807
21
-3.35489
0
LINE
8
BLACK
6
CONTINUOUS
10
5.4807
20
-3.35489
11
5.48076
21
-3.35505
0
LINE
8
BLACK
6
CONTINUOUS
10
5.48076
20
-3.35505
11
5.48076
21
-3.39147
0
LINE
8
BLACK
6
CONTINUOUS
10
5.48076
20
-3.39147
11
5.48905
21
-3.39147
0
LINE
8
BLACK
6
CONTINUOUS
10
5.48905
20
-3.39147
11
5.49006
21
-3.39165
0
LINE
8
BLACK
6
CONTINUOUS
10
5.49006
20
-3.39165
11
5.49161
21
-3.39295
0
LINE
8
BLACK
6
CONTINUOUS
10
5.49161
20
-3.39295
11
5.49196
21
-3.39494
0
LINE
8
BLACK
6
CONTINUOUS
10
5.49196
20
-3.39494
11
5.49095
21
-3.39669
0
LINE
8
BLACK
6
CONTINUOUS
10
5.49095
20
-3.39669
11
5.48905
21
-3.39738
0
LINE
8
BLACK
6
CONTINUOUS
10
5.48905
20
-3.39738
11
5.46655
21
-3.39738
0
LINE
8
BLACK
6
CONTINUOUS
10
5.46655
20
-3.39738
11
5.46554
21
-3.3972
0
LINE
8
BLACK
6
CONTINUOUS
10
5.46554
20
-3.3972
11
5.464
21
-3.3959
0
LINE
8
BLACK
6
CONTINUOUS
10
5.464
20
-3.3959
11
5.46365
21
-3.39391
0
LINE
8
BLACK
6
CONTINUOUS
10
5.46365
20
-3.39391
11
5.46466
21
-3.39216
0
LINE
8
BLACK
6
CONTINUOUS
10
5.46466
20
-3.39216
11
5.46655
21
-3.39147
0
LINE
8
BLACK
6
CONTINUOUS
10
5.46655
20
-3.39147
11
5.47485
21
-3.39147
0
LINE
8
BLACK
6
CONTINUOUS
10
5.47485
20
-3.39147
11
5.47485
21
-3.36406
0
LINE
8
BLACK
6
CONTINUOUS
10
5.47485
20
-3.36406
11
5.47239
21
-3.36652
0
LINE
8
BLACK
6
CONTINUOUS
10
5.47239
20
-3.36652
11
5.47167
21
-3.36702
0
LINE
8
BLACK
6
CONTINUOUS
10
5.47167
20
-3.36702
11
5.47162
21
-3.36707
0
LINE
8
BLACK
6
CONTINUOUS
10
5.47162
20
-3.36707
11
5.46787
21
-3.36894
0
LINE
8
BLACK
6
CONTINUOUS
10
5.46787
20
-3.36894
11
5.46689
21
-3.36924
0
LINE
8
BLACK
6
CONTINUOUS
10
5.46689
20
-3.36924
11
5.46493
21
-3.36877
0
LINE
8
BLACK
6
CONTINUOUS
10
5.46493
20
-3.36877
11
5.46372
21
-3.36714
0
LINE
8
BLACK
6
CONTINUOUS
10
5.46372
20
-3.36714
11
5.46385
21
-3.36513
0
LINE
8
BLACK
6
CONTINUOUS
10
5.46385
20
-3.36513
11
5.46523
21
-3.36366
0
LINE
8
BLACK
6
CONTINUOUS
10
5.46523
20
-3.36366
11
5.46855
21
-3.362
0
LINE
8
BLACK
6
CONTINUOUS
10
5.46855
20
-3.362
11
5.47176
21
-3.3588
0
LINE
8
BLACK
6
CONTINUOUS
10
5.47176
20
-3.3588
11
5.47535
21
-3.35342
0
LINE
8
BLACK
6
CONTINUOUS
10
5.47535
20
-3.35342
11
5.47605
21
-3.35267
0
LINE
8
BLACK
6
CONTINUOUS
10
5.47605
20
-3.35267
11
5.47622
21
-3.35263
0
LINE
8
BLACK
6
CONTINUOUS
10
5.47622
20
-3.35263
11
5.47633
21
-3.3525
0
LINE
8
BLACK
6
CONTINUOUS
10
5.47633
20
-3.3525
11
5.47717
21
-3.35235
0
LINE
8
BLACK
6
CONTINUOUS
10
5.47717
20
-3.35235
11
5.47799
21
-3.35211
0
LINE
8
BLACK
6
CONTINUOUS
10
5.47799
20
-3.35211
11
5.47815
21
-3.35218
0
LINE
8
BLACK
6
CONTINUOUS
10
5.51391
20
-3.35232
11
5.51483
21
-3.35246
0
LINE
8
BLACK
6
CONTINUOUS
10
5.51483
20
-3.35246
11
5.51489
21
-3.35252
0
LINE
8
BLACK
6
CONTINUOUS
10
5.51489
20
-3.35252
11
5.51497
21
-3.35254
0
LINE
8
BLACK
6
CONTINUOUS
10
5.51497
20
-3.35254
11
5.51555
21
-3.35327
0
LINE
8
BLACK
6
CONTINUOUS
10
5.51555
20
-3.35327
11
5.51617
21
-3.35397
0
LINE
8
BLACK
6
CONTINUOUS
10
5.51617
20
-3.35397
11
5.51617
21
-3.35405
0
LINE
8
BLACK
6
CONTINUOUS
10
5.51617
20
-3.35405
11
5.51622
21
-3.35412
0
LINE
8
BLACK
6
CONTINUOUS
10
5.51622
20
-3.35412
11
5.52935
21
-3.39349
0
LINE
8
BLACK
6
CONTINUOUS
10
5.52935
20
-3.39349
11
5.5295
21
-3.39451
0
LINE
8
BLACK
6
CONTINUOUS
10
5.5295
20
-3.39451
11
5.52876
21
-3.39638
0
LINE
8
BLACK
6
CONTINUOUS
10
5.52876
20
-3.39638
11
5.52698
21
-3.39735
0
LINE
8
BLACK
6
CONTINUOUS
10
5.52698
20
-3.39735
11
5.525
21
-3.39694
0
LINE
8
BLACK
6
CONTINUOUS
10
5.525
20
-3.39694
11
5.52375
21
-3.39536
0
LINE
8
BLACK
6
CONTINUOUS
10
5.52375
20
-3.39536
11
5.52067
21
-3.38613
0
LINE
8
BLACK
6
CONTINUOUS
10
5.52067
20
-3.38613
11
5.50618
21
-3.38613
0
LINE
8
BLACK
6
CONTINUOUS
10
5.50618
20
-3.38613
11
5.5031
21
-3.39536
0
LINE
8
BLACK
6
CONTINUOUS
10
5.5031
20
-3.39536
11
5.50261
21
-3.39626
0
LINE
8
BLACK
6
CONTINUOUS
10
5.50261
20
-3.39626
11
5.50089
21
-3.39732
0
LINE
8
BLACK
6
CONTINUOUS
10
5.50089
20
-3.39732
11
5.49889
21
-3.39702
0
LINE
8
BLACK
6
CONTINUOUS
10
5.49889
20
-3.39702
11
5.49755
21
-3.39551
0
LINE
8
BLACK
6
CONTINUOUS
10
5.49755
20
-3.39551
11
5.4975
21
-3.39349
0
LINE
8
BLACK
6
CONTINUOUS
10
5.4975
20
-3.39349
11
5.51062
21
-3.35412
0
LINE
8
BLACK
6
CONTINUOUS
10
5.51062
20
-3.35412
11
5.51111
21
-3.35322
0
LINE
8
BLACK
6
CONTINUOUS
10
5.51111
20
-3.35322
11
5.51118
21
-3.35317
0
LINE
8
BLACK
6
CONTINUOUS
10
5.51118
20
-3.35317
11
5.51121
21
-3.3531
0
LINE
8
BLACK
6
CONTINUOUS
10
5.51121
20
-3.3531
11
5.51204
21
-3.35265
0
LINE
8
BLACK
6
CONTINUOUS
10
5.51204
20
-3.35265
11
5.51283
21
-3.35216
0
LINE
8
BLACK
6
CONTINUOUS
10
5.51283
20
-3.35216
11
5.51292
21
-3.35217
0
LINE
8
BLACK
6
CONTINUOUS
10
5.51292
20
-3.35217
11
5.51299
21
-3.35213
0
LINE
8
BLACK
6
CONTINUOUS
10
5.51299
20
-3.35213
11
5.51391
21
-3.35232
0
LINE
8
BLACK
6
CONTINUOUS
10
5.50815
20
-3.38022
11
5.5187
21
-3.38022
0
LINE
8
BLACK
6
CONTINUOUS
10
5.5187
20
-3.38022
11
5.51342
21
-3.36439
0
LINE
8
BLACK
6
CONTINUOUS
10
5.51342
20
-3.36439
11
5.50815
21
-3.38022
0
LINE
8
BLACK
6
CONTINUOUS
10
5.36017
20
-3.35232
11
5.3611
21
-3.35246
0
LINE
8
BLACK
6
CONTINUOUS
10
5.3611
20
-3.35246
11
5.36115
21
-3.35252
0
LINE
8
BLACK
6
CONTINUOUS
10
5.36115
20
-3.35252
11
5.36124
21
-3.35254
0
LINE
8
BLACK
6
CONTINUOUS
10
5.36124
20
-3.35254
11
5.36182
21
-3.35327
0
LINE
8
BLACK
6
CONTINUOUS
10
5.36182
20
-3.35327
11
5.36244
21
-3.35397
0
LINE
8
BLACK
6
CONTINUOUS
10
5.36244
20
-3.35397
11
5.36244
21
-3.35405
0
LINE
8
BLACK
6
CONTINUOUS
10
5.36244
20
-3.35405
11
5.36249
21
-3.35412
0
LINE
8
BLACK
6
CONTINUOUS
10
5.36249
20
-3.35412
11
5.37562
21
-3.39349
0
LINE
8
BLACK
6
CONTINUOUS
10
5.37562
20
-3.39349
11
5.37577
21
-3.39451
0
LINE
8
BLACK
6
CONTINUOUS
10
5.37577
20
-3.39451
11
5.37503
21
-3.39638
0
LINE
8
BLACK
6
CONTINUOUS
10
5.37503
20
-3.39638
11
5.37325
21
-3.39735
0
LINE
8
BLACK
6
CONTINUOUS
10
5.37325
20
-3.39735
11
5.37127
21
-3.39694
0
LINE
8
BLACK
6
CONTINUOUS
10
5.37127
20
-3.39694
11
5.37001
21
-3.39536
0
LINE
8
BLACK
6
CONTINUOUS
10
5.37001
20
-3.39536
11
5.36694
21
-3.38613
0
LINE
8
BLACK
6
CONTINUOUS
10
5.36694
20
-3.38613
11
5.35245
21
-3.38613
0
LINE
8
BLACK
6
CONTINUOUS
10
5.35245
20
-3.38613
11
5.34937
21
-3.39536
0
LINE
8
BLACK
6
CONTINUOUS
10
5.34937
20
-3.39536
11
5.34888
21
-3.39626
0
LINE
8
BLACK
6
CONTINUOUS
10
5.34888
20
-3.39626
11
5.34716
21
-3.39732
0
LINE
8
BLACK
6
CONTINUOUS
10
5.34716
20
-3.39732
11
5.34516
21
-3.39702
0
LINE
8
BLACK
6
CONTINUOUS
10
5.34516
20
-3.39702
11
5.34382
21
-3.39551
0
LINE
8
BLACK
6
CONTINUOUS
10
5.34382
20
-3.39551
11
5.34377
21
-3.39349
0
LINE
8
BLACK
6
CONTINUOUS
10
5.34377
20
-3.39349
11
5.35689
21
-3.35412
0
LINE
8
BLACK
6
CONTINUOUS
10
5.35689
20
-3.35412
11
5.35738
21
-3.35322
0
LINE
8
BLACK
6
CONTINUOUS
10
5.35738
20
-3.35322
11
5.35745
21
-3.35317
0
LINE
8
BLACK
6
CONTINUOUS
10
5.35745
20
-3.35317
11
5.35748
21
-3.3531
0
LINE
8
BLACK
6
CONTINUOUS
10
5.35748
20
-3.3531
11
5.3583
21
-3.35265
0
LINE
8
BLACK
6
CONTINUOUS
10
5.3583
20
-3.35265
11
5.3591
21
-3.35216
0
LINE
8
BLACK
6
CONTINUOUS
10
5.3591
20
-3.35216
11
5.35918
21
-3.35217
0
LINE
8
BLACK
6
CONTINUOUS
10
5.35918
20
-3.35217
11
5.35926
21
-3.35213
0
LINE
8
BLACK
6
CONTINUOUS
10
5.35926
20
-3.35213
11
5.36017
21
-3.35232
0
LINE
8
BLACK
6
CONTINUOUS
10
5.35442
20
-3.38022
11
5.36497
21
-3.38022
0
LINE
8
BLACK
6
CONTINUOUS
10
5.36497
20
-3.38022
11
5.35969
21
-3.36439
0
LINE
8
BLACK
6
CONTINUOUS
10
5.35969
20
-3.36439
11
5.35442
21
-3.38022
0
LINE
8
BLACK
6
CONTINUOUS
10
5.41231
20
-3.35221
11
5.4127
21
-3.35215
0
LINE
8
BLACK
6
CONTINUOUS
10
5.4127
20
-3.35215
11
5.41326
21
-3.35247
0
LINE
8
BLACK
6
CONTINUOUS
10
5.41326
20
-3.35247
11
5.41388
21
-3.35264
0
LINE
8
BLACK
6
CONTINUOUS
10
5.41388
20
-3.35264
11
5.41411
21
-3.35296
0
LINE
8
BLACK
6
CONTINUOUS
10
5.41411
20
-3.35296
11
5.41445
21
-3.35316
0
LINE
8
BLACK
6
CONTINUOUS
10
5.41445
20
-3.35316
11
5.41467
21
-3.35376
0
LINE
8
BLACK
6
CONTINUOUS
10
5.41467
20
-3.35376
11
5.41504
21
-3.35429
0
LINE
8
BLACK
6
CONTINUOUS
10
5.41504
20
-3.35429
11
5.415
21
-3.35468
0
LINE
8
BLACK
6
CONTINUOUS
10
5.415
20
-3.35468
11
5.41514
21
-3.35505
0
LINE
8
BLACK
6
CONTINUOUS
10
5.41514
20
-3.35505
11
5.41514
21
-3.39442
0
LINE
8
BLACK
6
CONTINUOUS
10
5.41514
20
-3.39442
11
5.41496
21
-3.39543
0
LINE
8
BLACK
6
CONTINUOUS
10
5.41496
20
-3.39543
11
5.41366
21
-3.39698
0
LINE
8
BLACK
6
CONTINUOUS
10
5.41366
20
-3.39698
11
5.41167
21
-3.39733
0
LINE
8
BLACK
6
CONTINUOUS
10
5.41167
20
-3.39733
11
5.40992
21
-3.39632
0
LINE
8
BLACK
6
CONTINUOUS
10
5.40992
20
-3.39632
11
5.40923
21
-3.39442
0
LINE
8
BLACK
6
CONTINUOUS
10
5.40923
20
-3.39442
11
5.40923
21
-3.36836
0
LINE
8
BLACK
6
CONTINUOUS
10
5.40923
20
-3.36836
11
5.40174
21
-3.38442
0
LINE
8
BLACK
6
CONTINUOUS
10
5.40174
20
-3.38442
11
5.40152
21
-3.38474
0
LINE
8
BLACK
6
CONTINUOUS
10
5.40152
20
-3.38474
11
5.40148
21
-3.38487
0
LINE
8
BLACK
6
CONTINUOUS
10
5.40148
20
-3.38487
11
5.40137
21
-3.38494
0
LINE
8
BLACK
6
CONTINUOUS
10
5.40137
20
-3.38494
11
5.40115
21
-3.38526
0
LINE
8
BLACK
6
CONTINUOUS
10
5.40115
20
-3.38526
11
5.40046
21
-3.38559
0
LINE
8
BLACK
6
CONTINUOUS
10
5.40046
20
-3.38559
11
5.39983
21
-3.38603
0
LINE
8
BLACK
6
CONTINUOUS
10
5.39983
20
-3.38603
11
5.39956
21
-3.386
0
LINE
8
BLACK
6
CONTINUOUS
10
5.39956
20
-3.386
11
5.39932
21
-3.38612
0
LINE
8
BLACK
6
CONTINUOUS
10
5.39932
20
-3.38612
11
5.39858
21
-3.38592
0
LINE
8
BLACK
6
CONTINUOUS
10
5.39858
20
-3.38592
11
5.39782
21
-3.38585
0
LINE
8
BLACK
6
CONTINUOUS
10
5.39782
20
-3.38585
11
5.39763
21
-3.38566
0
LINE
8
BLACK
6
CONTINUOUS
10
5.39763
20
-3.38566
11
5.39737
21
-3.38559
0
LINE
8
BLACK
6
CONTINUOUS
10
5.39737
20
-3.38559
11
5.39693
21
-3.38497
0
LINE
8
BLACK
6
CONTINUOUS
10
5.39693
20
-3.38497
11
5.39639
21
-3.38442
0
LINE
8
BLACK
6
CONTINUOUS
10
5.39639
20
-3.38442
11
5.38889
21
-3.36836
0
LINE
8
BLACK
6
CONTINUOUS
10
5.38889
20
-3.36836
11
5.38889
21
-3.39442
0
LINE
8
BLACK
6
CONTINUOUS
10
5.38889
20
-3.39442
11
5.38871
21
-3.39543
0
LINE
8
BLACK
6
CONTINUOUS
10
5.38871
20
-3.39543
11
5.38742
21
-3.39698
0
LINE
8
BLACK
6
CONTINUOUS
10
5.38742
20
-3.39698
11
5.38543
21
-3.39733
0
LINE
8
BLACK
6
CONTINUOUS
10
5.38543
20
-3.39733
11
5.38368
21
-3.39632
0
LINE
8
BLACK
6
CONTINUOUS
10
5.38368
20
-3.39632
11
5.38299
21
-3.39442
0
LINE
8
BLACK
6
CONTINUOUS
10
5.38299
20
-3.39442
11
5.38299
21
-3.35505
0
LINE
8
BLACK
6
CONTINUOUS
10
5.38299
20
-3.35505
11
5.38316
21
-3.35404
0
LINE
8
BLACK
6
CONTINUOUS
10
5.38316
20
-3.35404
11
5.38342
21
-3.35374
0
LINE
8
BLACK
6
CONTINUOUS
10
5.38342
20
-3.35374
11
5.38352
21
-3.35336
0
LINE
8
BLACK
6
CONTINUOUS
10
5.38352
20
-3.35336
11
5.38405
21
-3.35299
0
LINE
8
BLACK
6
CONTINUOUS
10
5.38405
20
-3.35299
11
5.38446
21
-3.3525
0
LINE
8
BLACK
6
CONTINUOUS
10
5.38446
20
-3.3525
11
5.38485
21
-3.35243
0
LINE
8
BLACK
6
CONTINUOUS
10
5.38485
20
-3.35243
11
5.38517
21
-3.3522
0
LINE
8
BLACK
6
CONTINUOUS
10
5.38517
20
-3.3522
11
5.38582
21
-3.35226
0
LINE
8
BLACK
6
CONTINUOUS
10
5.38582
20
-3.35226
11
5.38645
21
-3.35215
0
LINE
8
BLACK
6
CONTINUOUS
10
5.38645
20
-3.35215
11
5.38679
21
-3.35234
0
LINE
8
BLACK
6
CONTINUOUS
10
5.38679
20
-3.35234
11
5.38719
21
-3.35238
0
LINE
8
BLACK
6
CONTINUOUS
10
5.38719
20
-3.35238
11
5.38764
21
-3.35283
0
LINE
8
BLACK
6
CONTINUOUS
10
5.38764
20
-3.35283
11
5.3882
21
-3.35316
0
LINE
8
BLACK
6
CONTINUOUS
10
5.3882
20
-3.35316
11
5.38834
21
-3.35353
0
LINE
8
BLACK
6
CONTINUOUS
10
5.38834
20
-3.35353
11
5.38861
21
-3.35381
0
LINE
8
BLACK
6
CONTINUOUS
10
5.38861
20
-3.35381
11
5.39906
21
-3.37619
0
LINE
8
BLACK
6
CONTINUOUS
10
5.39906
20
-3.37619
11
5.40951
21
-3.35381
0
LINE
8
BLACK
6
CONTINUOUS
10
5.40951
20
-3.35381
11
5.4101
21
-3.35297
0
LINE
8
BLACK
6
CONTINUOUS
10
5.4101
20
-3.35297
11
5.41046
21
-3.3528
0
LINE
8
BLACK
6
CONTINUOUS
10
5.41046
20
-3.3528
11
5.41071
21
-3.3525
0
LINE
8
BLACK
6
CONTINUOUS
10
5.41071
20
-3.3525
11
5.41134
21
-3.35239
0
LINE
8
BLACK
6
CONTINUOUS
10
5.41134
20
-3.35239
11
5.41193
21
-3.35211
0
LINE
8
BLACK
6
CONTINUOUS
10
5.41193
20
-3.35211
11
5.41231
21
-3.35221
0
LINE
8
BLACK
6
CONTINUOUS
10
5.29884
20
-3.35228
11
5.30038
21
-3.35358
0
LINE
8
BLACK
6
CONTINUOUS
10
5.30038
20
-3.35358
11
5.30073
21
-3.35557
0
LINE
8
BLACK
6
CONTINUOUS
10
5.30073
20
-3.35557
11
5.29972
21
-3.35732
0
LINE
8
BLACK
6
CONTINUOUS
10
5.29972
20
-3.35732
11
5.29783
21
-3.35801
0
LINE
8
BLACK
6
CONTINUOUS
10
5.29783
20
-3.35801
11
5.28203
21
-3.35801
0
LINE
8
BLACK
6
CONTINUOUS
10
5.28203
20
-3.35801
11
5.28203
21
-3.37085
0
LINE
8
BLACK
6
CONTINUOUS
10
5.28203
20
-3.37085
11
5.2922
21
-3.37085
0
LINE
8
BLACK
6
CONTINUOUS
10
5.2922
20
-3.37085
11
5.29321
21
-3.37103
0
LINE
8
BLACK
6
CONTINUOUS
10
5.29321
20
-3.37103
11
5.29476
21
-3.37233
0
LINE
8
BLACK
6
CONTINUOUS
10
5.29476
20
-3.37233
11
5.29511
21
-3.37431
0
LINE
8
BLACK
6
CONTINUOUS
10
5.29511
20
-3.37431
11
5.2941
21
-3.37606
0
LINE
8
BLACK
6
CONTINUOUS
10
5.2941
20
-3.37606
11
5.2922
21
-3.37675
0
LINE
8
BLACK
6
CONTINUOUS
10
5.2922
20
-3.37675
11
5.28203
21
-3.37675
0
LINE
8
BLACK
6
CONTINUOUS
10
5.28203
20
-3.37675
11
5.28203
21
-3.39442
0
LINE
8
BLACK
6
CONTINUOUS
10
5.28203
20
-3.39442
11
5.28185
21
-3.39543
0
LINE
8
BLACK
6
CONTINUOUS
10
5.28185
20
-3.39543
11
5.28055
21
-3.39698
0
LINE
8
BLACK
6
CONTINUOUS
10
5.28055
20
-3.39698
11
5.27856
21
-3.39733
0
LINE
8
BLACK
6
CONTINUOUS
10
5.27856
20
-3.39733
11
5.27682
21
-3.39632
0
LINE
8
BLACK
6
CONTINUOUS
10
5.27682
20
-3.39632
11
5.27612
21
-3.39442
0
LINE
8
BLACK
6
CONTINUOUS
10
5.27612
20
-3.39442
11
5.27612
21
-3.35505
0
LINE
8
BLACK
6
CONTINUOUS
10
5.27612
20
-3.35505
11
5.27619
21
-3.35467
0
LINE
8
BLACK
6
CONTINUOUS
10
5.27619
20
-3.35467
11
5.27617
21
-3.35454
0
LINE
8
BLACK
6
CONTINUOUS
10
5.27617
20
-3.35454
11
5.27624
21
-3.35443
0
LINE
8
BLACK
6
CONTINUOUS
10
5.27624
20
-3.35443
11
5.2763
21
-3.35404
0
LINE
8
BLACK
6
CONTINUOUS
10
5.2763
20
-3.35404
11
5.2768
21
-3.35346
0
LINE
8
BLACK
6
CONTINUOUS
10
5.2768
20
-3.35346
11
5.27718
21
-3.35279
0
LINE
8
BLACK
6
CONTINUOUS
10
5.27718
20
-3.35279
11
5.27743
21
-3.3527
0
LINE
8
BLACK
6
CONTINUOUS
10
5.27743
20
-3.3527
11
5.2776
21
-3.3525
0
LINE
8
BLACK
6
CONTINUOUS
10
5.2776
20
-3.3525
11
5.27836
21
-3.35236
0
LINE
8
BLACK
6
CONTINUOUS
10
5.27836
20
-3.35236
11
5.27908
21
-3.3521
0
LINE
8
BLACK
6
CONTINUOUS
10
5.27908
20
-3.3521
11
5.29783
21
-3.3521
0
LINE
8
BLACK
6
CONTINUOUS
10
5.29783
20
-3.3521
11
5.29884
21
-3.35228
0
LINE
8
BLACK
6
CONTINUOUS
10
5.32883
20
-3.35228
11
5.32897
21
-3.35239
0
LINE
8
BLACK
6
CONTINUOUS
10
5.32897
20
-3.35239
11
5.32914
21
-3.35241
0
LINE
8
BLACK
6
CONTINUOUS
10
5.32914
20
-3.35241
11
5.33289
21
-3.35429
0
LINE
8
BLACK
6
CONTINUOUS
10
5.33289
20
-3.35429
11
5.3336
21
-3.35481
0
LINE
8
BLACK
6
CONTINUOUS
10
5.3336
20
-3.35481
11
5.33366
21
-3.35484
0
LINE
8
BLACK
6
CONTINUOUS
10
5.33366
20
-3.35484
11
5.33553
21
-3.35672
0
LINE
8
BLACK
6
CONTINUOUS
10
5.33553
20
-3.35672
11
5.33604
21
-3.35744
0
LINE
8
BLACK
6
CONTINUOUS
10
5.33604
20
-3.35744
11
5.33609
21
-3.35748
0
LINE
8
BLACK
6
CONTINUOUS
10
5.33609
20
-3.35748
11
5.33796
21
-3.36123
0
LINE
8
BLACK
6
CONTINUOUS
10
5.33796
20
-3.36123
11
5.33825
21
-3.36222
0
LINE
8
BLACK
6
CONTINUOUS
10
5.33825
20
-3.36222
11
5.33821
21
-3.36239
0
LINE
8
BLACK
6
CONTINUOUS
10
5.33821
20
-3.36239
11
5.33827
21
-3.36255
0
LINE
8
BLACK
6
CONTINUOUS
10
5.33827
20
-3.36255
11
5.33827
21
-3.36818
0
LINE
8
BLACK
6
CONTINUOUS
10
5.33827
20
-3.36818
11
5.3381
21
-3.36919
0
LINE
8
BLACK
6
CONTINUOUS
10
5.3381
20
-3.36919
11
5.33798
21
-3.36932
0
LINE
8
BLACK
6
CONTINUOUS
10
5.33798
20
-3.36932
11
5.33796
21
-3.3695
0
LINE
8
BLACK
6
CONTINUOUS
10
5.33796
20
-3.3695
11
5.33609
21
-3.37325
0
LINE
8
BLACK
6
CONTINUOUS
10
5.33609
20
-3.37325
11
5.33556
21
-3.37396
0
LINE
8
BLACK
6
CONTINUOUS
10
5.33556
20
-3.37396
11
5.33553
21
-3.37402
0
LINE
8
BLACK
6
CONTINUOUS
10
5.33553
20
-3.37402
11
5.33366
21
-3.37589
0
LINE
8
BLACK
6
CONTINUOUS
10
5.33366
20
-3.37589
11
5.33294
21
-3.3764
0
LINE
8
BLACK
6
CONTINUOUS
10
5.33294
20
-3.3764
11
5.33289
21
-3.37644
0
LINE
8
BLACK
6
CONTINUOUS
10
5.33289
20
-3.37644
11
5.32914
21
-3.37832
0
LINE
8
BLACK
6
CONTINUOUS
10
5.32914
20
-3.37832
11
5.32816
21
-3.37861
0
LINE
8
BLACK
6
CONTINUOUS
10
5.32816
20
-3.37861
11
5.32799
21
-3.37857
0
LINE
8
BLACK
6
CONTINUOUS
10
5.32799
20
-3.37857
11
5.32786
21
-3.37862
0
LINE
8
BLACK
6
CONTINUOUS
10
5.32786
20
-3.37862
11
5.33774
21
-3.39273
0
LINE
8
BLACK
6
CONTINUOUS
10
5.33774
20
-3.39273
11
5.33817
21
-3.39366
0
LINE
8
BLACK
6
CONTINUOUS
10
5.33817
20
-3.39366
11
5.338
21
-3.39567
0
LINE
8
BLACK
6
CONTINUOUS
10
5.338
20
-3.39567
11
5.33657
21
-3.3971
0
LINE
8
BLACK
6
CONTINUOUS
10
5.33657
20
-3.3971
11
5.33456
21
-3.39728
0
LINE
8
BLACK
6
CONTINUOUS
10
5.33456
20
-3.39728
11
5.3329
21
-3.39612
0
LINE
8
BLACK
6
CONTINUOUS
10
5.3329
20
-3.39612
11
5.32066
21
-3.37863
0
LINE
8
BLACK
6
CONTINUOUS
10
5.32066
20
-3.37863
11
5.31578
21
-3.37863
0
LINE
8
BLACK
6
CONTINUOUS
10
5.31578
20
-3.37863
11
5.31578
21
-3.39442
0
LINE
8
BLACK
6
CONTINUOUS
10
5.31578
20
-3.39442
11
5.3156
21
-3.39543
0
LINE
8
BLACK
6
CONTINUOUS
10
5.3156
20
-3.39543
11
5.3143
21
-3.39698
0
LINE
8
BLACK
6
CONTINUOUS
10
5.3143
20
-3.39698
11
5.31231
21
-3.39733
0
LINE
8
BLACK
6
CONTINUOUS
10
5.31231
20
-3.39733
11
5.31056
21
-3.39632
0
LINE
8
BLACK
6
CONTINUOUS
10
5.31056
20
-3.39632
11
5.30987
21
-3.39442
0
LINE
8
BLACK
6
CONTINUOUS
10
5.30987
20
-3.39442
11
5.30987
21
-3.35505
0
LINE
8
BLACK
6
CONTINUOUS
10
5.30987
20
-3.35505
11
5.30994
21
-3.35467
0
LINE
8
BLACK
6
CONTINUOUS
10
5.30994
20
-3.35467
11
5.30992
21
-3.35454
0
LINE
8
BLACK
6
CONTINUOUS
10
5.30992
20
-3.35454
11
5.30998
21
-3.35443
0
LINE
8
BLACK
6
CONTINUOUS
10
5.30998
20
-3.35443
11
5.31005
21
-3.35404
0
LINE
8
BLACK
6
CONTINUOUS
10
5.31005
20
-3.35404
11
5.31054
21
-3.35346
0
LINE
8
BLACK
6
CONTINUOUS
10
5.31054
20
-3.35346
11
5.31093
21
-3.35279
0
LINE
8
BLACK
6
CONTINUOUS
10
5.31093
20
-3.35279
11
5.31118
21
-3.3527
0
LINE
8
BLACK
6
CONTINUOUS
10
5.31118
20
-3.3527
11
5.31135
21
-3.3525
0
LINE
8
BLACK
6
CONTINUOUS
10
5.31135
20
-3.3525
11
5.3121
21
-3.35236
0
LINE
8
BLACK
6
CONTINUOUS
10
5.3121
20
-3.35236
11
5.31282
21
-3.3521
0
LINE
8
BLACK
6
CONTINUOUS
10
5.31282
20
-3.3521
11
5.32782
21
-3.3521
0
LINE
8
BLACK
6
CONTINUOUS
10
5.32782
20
-3.3521
11
5.32883
21
-3.35228
0
LINE
8
BLACK
6
CONTINUOUS
10
5.31578
20
-3.35801
11
5.31578
21
-3.37272
0
LINE
8
BLACK
6
CONTINUOUS
10
5.31578
20
-3.37272
11
5.32712
21
-3.37272
0
LINE
8
BLACK
6
CONTINUOUS
10
5.32712
20
-3.37272
11
5.32982
21
-3.37138
0
LINE
8
BLACK
6
CONTINUOUS
10
5.32982
20
-3.37138
11
5.33102
21
-3.37018
0
LINE
8
BLACK
6
CONTINUOUS
10
5.33102
20
-3.37018
11
5.33237
21
-3.36748
0
LINE
8
BLACK
6
CONTINUOUS
10
5.33237
20
-3.36748
11
5.33237
21
-3.36325
0
LINE
8
BLACK
6
CONTINUOUS
10
5.33237
20
-3.36325
11
5.33102
21
-3.36055
0
LINE
8
BLACK
6
CONTINUOUS
10
5.33102
20
-3.36055
11
5.32982
21
-3.35936
0
LINE
8
BLACK
6
CONTINUOUS
10
5.32982
20
-3.35936
11
5.32712
21
-3.35801
0
LINE
8
BLACK
6
CONTINUOUS
10
5.32712
20
-3.35801
11
5.31578
21
-3.35801
0
LINE
8
BLACK
6
CONTINUOUS
10
5.6643
20
-3.33564
11
5.66437
21
-3.33564
0
LINE
8
BLACK
6
CONTINUOUS
10
5.66437
20
-3.33564
11
5.66999
21
-3.33751
0
LINE
8
BLACK
6
CONTINUOUS
10
5.66999
20
-3.33751
11
5.67089
21
-3.338
0
LINE
8
BLACK
6
CONTINUOUS
10
5.67089
20
-3.338
11
5.67099
21
-3.33815
0
LINE
8
BLACK
6
CONTINUOUS
10
5.67099
20
-3.33815
11
5.67115
21
-3.33823
0
LINE
8
BLACK
6
CONTINUOUS
10
5.67115
20
-3.33823
11
5.67302
21
-3.3401
0
LINE
8
BLACK
6
CONTINUOUS
10
5.67302
20
-3.3401
11
5.67361
21
-3.34094
0
LINE
8
BLACK
6
CONTINUOUS
10
5.67361
20
-3.34094
11
5.67379
21
-3.34295
0
LINE
8
BLACK
6
CONTINUOUS
10
5.67379
20
-3.34295
11
5.67263
21
-3.34461
0
LINE
8
BLACK
6
CONTINUOUS
10
5.67263
20
-3.34461
11
5.67068
21
-3.34513
0
LINE
8
BLACK
6
CONTINUOUS
10
5.67068
20
-3.34513
11
5.66885
21
-3.34428
0
LINE
8
BLACK
6
CONTINUOUS
10
5.66885
20
-3.34428
11
5.66746
21
-3.3429
0
LINE
8
BLACK
6
CONTINUOUS
10
5.66746
20
-3.3429
11
5.66296
21
-3.34139
0
LINE
8
BLACK
6
CONTINUOUS
10
5.66296
20
-3.34139
11
5.66016
21
-3.34139
0
LINE
8
BLACK
6
CONTINUOUS
10
5.66016
20
-3.34139
11
5.65566
21
-3.3429
0
LINE
8
BLACK
6
CONTINUOUS
10
5.65566
20
-3.3429
11
5.65274
21
-3.34581
0
LINE
8
BLACK
6
CONTINUOUS
10
5.65274
20
-3.34581
11
5.65122
21
-3.34884
0
LINE
8
BLACK
6
CONTINUOUS
10
5.65122
20
-3.34884
11
5.64951
21
-3.35568
0
LINE
8
BLACK
6
CONTINUOUS
10
5.64951
20
-3.35568
11
5.64951
21
-3.36057
0
LINE
8
BLACK
6
CONTINUOUS
10
5.64951
20
-3.36057
11
5.65122
21
-3.36741
0
LINE
8
BLACK
6
CONTINUOUS
10
5.65122
20
-3.36741
11
5.65274
21
-3.37044
0
LINE
8
BLACK
6
CONTINUOUS
10
5.65274
20
-3.37044
11
5.65566
21
-3.37335
0
LINE
8
BLACK
6
CONTINUOUS
10
5.65566
20
-3.37335
11
5.66016
21
-3.37486
0
LINE
8
BLACK
6
CONTINUOUS
10
5.66016
20
-3.37486
11
5.66296
21
-3.37486
0
LINE
8
BLACK
6
CONTINUOUS
10
5.66296
20
-3.37486
11
5.66746
21
-3.37335
0
LINE
8
BLACK
6
CONTINUOUS
10
5.66746
20
-3.37335
11
5.66885
21
-3.37197
0
LINE
8
BLACK
6
CONTINUOUS
10
5.66885
20
-3.37197
11
5.66969
21
-3.37138
0
LINE
8
BLACK
6
CONTINUOUS
10
5.66969
20
-3.37138
11
5.6717
21
-3.37121
0
LINE
8
BLACK
6
CONTINUOUS
10
5.6717
20
-3.37121
11
5.67335
21
-3.37237
0
LINE
8
BLACK
6
CONTINUOUS
10
5.67335
20
-3.37237
11
5.67388
21
-3.37432
0
LINE
8
BLACK
6
CONTINUOUS
10
5.67388
20
-3.37432
11
5.67302
21
-3.37615
0
LINE
8
BLACK
6
CONTINUOUS
10
5.67302
20
-3.37615
11
5.67115
21
-3.37802
0
LINE
8
BLACK
6
CONTINUOUS
10
5.67115
20
-3.37802
11
5.67031
21
-3.37861
0
LINE
8
BLACK
6
CONTINUOUS
10
5.67031
20
-3.37861
11
5.67013
21
-3.37863
0
LINE
8
BLACK
6
CONTINUOUS
10
5.67013
20
-3.37863
11
5.66999
21
-3.37874
0
LINE
8
BLACK
6
CONTINUOUS
10
5.66999
20
-3.37874
11
5.66437
21
-3.38061
0
LINE
8
BLACK
6
CONTINUOUS
10
5.66437
20
-3.38061
11
5.6635
21
-3.38074
0
LINE
8
BLACK
6
CONTINUOUS
10
5.6635
20
-3.38074
11
5.66343
21
-3.38076
0
LINE
8
BLACK
6
CONTINUOUS
10
5.66343
20
-3.38076
11
5.65969
21
-3.38076
0
LINE
8
BLACK
6
CONTINUOUS
10
5.65969
20
-3.38076
11
5.65882
21
-3.38061
0
LINE
8
BLACK
6
CONTINUOUS
10
5.65882
20
-3.38061
11
5.65875
21
-3.38061
0
LINE
8
BLACK
6
CONTINUOUS
10
5.65875
20
-3.38061
11
5.65313
21
-3.37874
0
LINE
8
BLACK
6
CONTINUOUS
10
5.65313
20
-3.37874
11
5.65223
21
-3.37825
0
LINE
8
BLACK
6
CONTINUOUS
10
5.65223
20
-3.37825
11
5.65213
21
-3.3781
0
LINE
8
BLACK
6
CONTINUOUS
10
5.65213
20
-3.3781
11
5.65197
21
-3.37802
0
LINE
8
BLACK
6
CONTINUOUS
10
5.65197
20
-3.37802
11
5.64822
21
-3.37427
0
LINE
8
BLACK
6
CONTINUOUS
10
5.64822
20
-3.37427
11
5.64772
21
-3.37355
0
LINE
8
BLACK
6
CONTINUOUS
10
5.64772
20
-3.37355
11
5.64767
21
-3.37351
0
LINE
8
BLACK
6
CONTINUOUS
10
5.64767
20
-3.37351
11
5.6458
21
-3.36976
0
LINE
8
BLACK
6
CONTINUOUS
10
5.6458
20
-3.36976
11
5.64565
21
-3.36927
0
LINE
8
BLACK
6
CONTINUOUS
10
5.64565
20
-3.36927
11
5.64557
21
-3.36915
0
LINE
8
BLACK
6
CONTINUOUS
10
5.64557
20
-3.36915
11
5.6437
21
-3.36165
0
LINE
8
BLACK
6
CONTINUOUS
10
5.6437
20
-3.36165
11
5.64366
21
-3.36107
0
LINE
8
BLACK
6
CONTINUOUS
10
5.64366
20
-3.36107
11
5.64361
21
-3.36094
0
LINE
8
BLACK
6
CONTINUOUS
10
5.64361
20
-3.36094
11
5.64361
21
-3.35531
0
LINE
8
BLACK
6
CONTINUOUS
10
5.64361
20
-3.35531
11
5.64371
21
-3.35473
0
LINE
8
BLACK
6
CONTINUOUS
10
5.64371
20
-3.35473
11
5.6437
21
-3.3546
0
LINE
8
BLACK
6
CONTINUOUS
10
5.6437
20
-3.3546
11
5.64557
21
-3.3471
0
LINE
8
BLACK
6
CONTINUOUS
10
5.64557
20
-3.3471
11
5.64578
21
-3.34663
0
LINE
8
BLACK
6
CONTINUOUS
10
5.64578
20
-3.34663
11
5.6458
21
-3.34649
0
LINE
8
BLACK
6
CONTINUOUS
10
5.6458
20
-3.34649
11
5.64767
21
-3.34274
0
LINE
8
BLACK
6
CONTINUOUS
10
5.64767
20
-3.34274
11
5.6482
21
-3.34203
0
LINE
8
BLACK
6
CONTINUOUS
10
5.6482
20
-3.34203
11
5.64822
21
-3.34198
0
LINE
8
BLACK
6
CONTINUOUS
10
5.64822
20
-3.34198
11
5.65197
21
-3.33823
0
LINE
8
BLACK
6
CONTINUOUS
10
5.65197
20
-3.33823
11
5.65281
21
-3.33764
0
LINE
8
BLACK
6
CONTINUOUS
10
5.65281
20
-3.33764
11
5.65299
21
-3.33762
0
LINE
8
BLACK
6
CONTINUOUS
10
5.65299
20
-3.33762
11
5.65313
21
-3.33751
0
LINE
8
BLACK
6
CONTINUOUS
10
5.65313
20
-3.33751
11
5.65875
21
-3.33564
0
LINE
8
BLACK
6
CONTINUOUS
10
5.65875
20
-3.33564
11
5.65962
21
-3.33551
0
LINE
8
BLACK
6
CONTINUOUS
10
5.65962
20
-3.33551
11
5.65969
21
-3.33549
0
LINE
8
BLACK
6
CONTINUOUS
10
5.65969
20
-3.33549
11
5.66343
21
-3.33549
0
LINE
8
BLACK
6
CONTINUOUS
10
5.66343
20
-3.33549
11
5.6643
21
-3.33564
0
LINE
8
BLACK
6
CONTINUOUS
10
5.62681
20
-3.33564
11
5.62687
21
-3.33564
0
LINE
8
BLACK
6
CONTINUOUS
10
5.62687
20
-3.33564
11
5.6325
21
-3.33751
0
LINE
8
BLACK
6
CONTINUOUS
10
5.6325
20
-3.33751
11
5.6334
21
-3.338
0
LINE
8
BLACK
6
CONTINUOUS
10
5.6334
20
-3.338
11
5.63446
21
-3.33972
0
LINE
8
BLACK
6
CONTINUOUS
10
5.63446
20
-3.33972
11
5.63416
21
-3.34172
0
LINE
8
BLACK
6
CONTINUOUS
10
5.63416
20
-3.34172
11
5.63265
21
-3.34306
0
LINE
8
BLACK
6
CONTINUOUS
10
5.63265
20
-3.34306
11
5.63063
21
-3.34312
0
LINE
8
BLACK
6
CONTINUOUS
10
5.63063
20
-3.34312
11
5.62546
21
-3.34139
0
LINE
8
BLACK
6
CONTINUOUS
10
5.62546
20
-3.34139
11
5.61726
21
-3.34139
0
LINE
8
BLACK
6
CONTINUOUS
10
5.61726
20
-3.34139
11
5.61456
21
-3.34274
0
LINE
8
BLACK
6
CONTINUOUS
10
5.61456
20
-3.34274
11
5.61337
21
-3.34394
0
LINE
8
BLACK
6
CONTINUOUS
10
5.61337
20
-3.34394
11
5.61202
21
-3.34664
0
LINE
8
BLACK
6
CONTINUOUS
10
5.61202
20
-3.34664
11
5.61202
21
-3.34899
0
LINE
8
BLACK
6
CONTINUOUS
10
5.61202
20
-3.34899
11
5.61337
21
-3.35169
0
LINE
8
BLACK
6
CONTINUOUS
10
5.61337
20
-3.35169
11
5.61456
21
-3.35289
0
LINE
8
BLACK
6
CONTINUOUS
10
5.61456
20
-3.35289
11
5.6176
21
-3.3544
0
LINE
8
BLACK
6
CONTINUOUS
10
5.6176
20
-3.3544
11
5.62478
21
-3.3562
0
LINE
8
BLACK
6
CONTINUOUS
10
5.62478
20
-3.3562
11
5.62525
21
-3.35641
0
LINE
8
BLACK
6
CONTINUOUS
10
5.62525
20
-3.35641
11
5.62538
21
-3.35642
0
LINE
8
BLACK
6
CONTINUOUS
10
5.62538
20
-3.35642
11
5.62913
21
-3.3583
0
LINE
8
BLACK
6
CONTINUOUS
10
5.62913
20
-3.3583
11
5.62984
21
-3.35882
0
LINE
8
BLACK
6
CONTINUOUS
10
5.62984
20
-3.35882
11
5.6299
21
-3.35885
0
LINE
8
BLACK
6
CONTINUOUS
10
5.6299
20
-3.35885
11
5.63178
21
-3.36072
0
LINE
8
BLACK
6
CONTINUOUS
10
5.63178
20
-3.36072
11
5.63228
21
-3.36145
0
LINE
8
BLACK
6
CONTINUOUS
10
5.63228
20
-3.36145
11
5.63233
21
-3.36149
0
LINE
8
BLACK
6
CONTINUOUS
10
5.63233
20
-3.36149
11
5.6342
21
-3.36524
0
LINE
8
BLACK
6
CONTINUOUS
10
5.6342
20
-3.36524
11
5.6345
21
-3.36622
0
LINE
8
BLACK
6
CONTINUOUS
10
5.6345
20
-3.36622
11
5.63446
21
-3.3664
0
LINE
8
BLACK
6
CONTINUOUS
10
5.63446
20
-3.3664
11
5.63452
21
-3.36656
0
LINE
8
BLACK
6
CONTINUOUS
10
5.63452
20
-3.36656
11
5.63452
21
-3.37031
0
LINE
8
BLACK
6
CONTINUOUS
10
5.63452
20
-3.37031
11
5.63434
21
-3.37132
0
LINE
8
BLACK
6
CONTINUOUS
10
5.63434
20
-3.37132
11
5.63422
21
-3.37146
0
LINE
8
BLACK
6
CONTINUOUS
10
5.63422
20
-3.37146
11
5.6342
21
-3.37163
0
LINE
8
BLACK
6
CONTINUOUS
10
5.6342
20
-3.37163
11
5.63233
21
-3.37538
0
LINE
8
BLACK
6
CONTINUOUS
10
5.63233
20
-3.37538
11
5.6318
21
-3.37609
0
LINE
8
BLACK
6
CONTINUOUS
10
5.6318
20
-3.37609
11
5.63178
21
-3.37615
0
LINE
8
BLACK
6
CONTINUOUS
10
5.63178
20
-3.37615
11
5.6299
21
-3.37802
0
LINE
8
BLACK
6
CONTINUOUS
10
5.6299
20
-3.37802
11
5.62918
21
-3.37853
0
LINE
8
BLACK
6
CONTINUOUS
10
5.62918
20
-3.37853
11
5.62913
21
-3.37858
0
LINE
8
BLACK
6
CONTINUOUS
10
5.62913
20
-3.37858
11
5.62538
21
-3.38045
0
LINE
8
BLACK
6
CONTINUOUS
10
5.62538
20
-3.38045
11
5.6244
21
-3.38074
0
LINE
8
BLACK
6
CONTINUOUS
10
5.6244
20
-3.38074
11
5.62423
21
-3.3807
0
LINE
8
BLACK
6
CONTINUOUS
10
5.62423
20
-3.3807
11
5.62406
21
-3.38076
0
LINE
8
BLACK
6
CONTINUOUS
10
5.62406
20
-3.38076
11
5.61469
21
-3.38076
0
LINE
8
BLACK
6
CONTINUOUS
10
5.61469
20
-3.38076
11
5.61382
21
-3.38061
0
LINE
8
BLACK
6
CONTINUOUS
10
5.61382
20
-3.38061
11
5.61376
21
-3.38061
0
LINE
8
BLACK
6
CONTINUOUS
10
5.61376
20
-3.38061
11
5.60813
21
-3.37874
0
LINE
8
BLACK
6
CONTINUOUS
10
5.60813
20
-3.37874
11
5.60723
21
-3.37825
0
LINE
8
BLACK
6
CONTINUOUS
10
5.60723
20
-3.37825
11
5.60617
21
-3.37653
0
LINE
8
BLACK
6
CONTINUOUS
10
5.60617
20
-3.37653
11
5.60647
21
-3.37453
0
LINE
8
BLACK
6
CONTINUOUS
10
5.60647
20
-3.37453
11
5.60798
21
-3.37319
0
LINE
8
BLACK
6
CONTINUOUS
10
5.60798
20
-3.37319
11
5.61
21
-3.37313
0
LINE
8
BLACK
6
CONTINUOUS
10
5.61
20
-3.37313
11
5.61517
21
-3.37486
0
LINE
8
BLACK
6
CONTINUOUS
10
5.61517
20
-3.37486
11
5.62337
21
-3.37486
0
LINE
8
BLACK
6
CONTINUOUS
10
5.62337
20
-3.37486
11
5.62606
21
-3.37351
0
LINE
8
BLACK
6
CONTINUOUS
10
5.62606
20
-3.37351
11
5.62726
21
-3.37231
0
LINE
8
BLACK
6
CONTINUOUS
10
5.62726
20
-3.37231
11
5.62861
21
-3.36961
0
LINE
8
BLACK
6
CONTINUOUS
10
5.62861
20
-3.36961
11
5.62861
21
-3.36726
0
LINE
8
BLACK
6
CONTINUOUS
10
5.62861
20
-3.36726
11
5.62726
21
-3.36456
0
LINE
8
BLACK
6
CONTINUOUS
10
5.62726
20
-3.36456
11
5.62606
21
-3.36336
0
LINE
8
BLACK
6
CONTINUOUS
10
5.62606
20
-3.36336
11
5.62303
21
-3.36185
0
LINE
8
BLACK
6
CONTINUOUS
10
5.62303
20
-3.36185
11
5.61585
21
-3.36005
0
LINE
8
BLACK
6
CONTINUOUS
10
5.61585
20
-3.36005
11
5.61538
21
-3.35984
0
LINE
8
BLACK
6
CONTINUOUS
10
5.61538
20
-3.35984
11
5.61524
21
-3.35983
0
LINE
8
BLACK
6
CONTINUOUS
10
5.61524
20
-3.35983
11
5.6115
21
-3.35795
0
LINE
8
BLACK
6
CONTINUOUS
10
5.6115
20
-3.35795
11
5.61079
21
-3.35743
0
LINE
8
BLACK
6
CONTINUOUS
10
5.61079
20
-3.35743
11
5.61073
21
-3.3574
0
LINE
8
BLACK
6
CONTINUOUS
10
5.61073
20
-3.3574
11
5.60885
21
-3.35553
0
LINE
8
BLACK
6
CONTINUOUS
10
5.60885
20
-3.35553
11
5.60835
21
-3.3548
0
LINE
8
BLACK
6
CONTINUOUS
10
5.60835
20
-3.3548
11
5.6083
21
-3.35476
0
LINE
8
BLACK
6
CONTINUOUS
10
5.6083
20
-3.35476
11
5.60643
21
-3.35101
0
LINE
8
BLACK
6
CONTINUOUS
10
5.60643
20
-3.35101
11
5.60613
21
-3.35003
0
LINE
8
BLACK
6
CONTINUOUS
10
5.60613
20
-3.35003
11
5.60617
21
-3.34985
0
LINE
8
BLACK
6
CONTINUOUS
10
5.60617
20
-3.34985
11
5.60611
21
-3.34969
0
LINE
8
BLACK
6
CONTINUOUS
10
5.60611
20
-3.34969
11
5.60611
21
-3.34594
0
LINE
8
BLACK
6
CONTINUOUS
10
5.60611
20
-3.34594
11
5.60629
21
-3.34493
0
LINE
8
BLACK
6
CONTINUOUS
10
5.60629
20
-3.34493
11
5.60641
21
-3.34479
0
LINE
8
BLACK
6
CONTINUOUS
10
5.60641
20
-3.34479
11
5.60643
21
-3.34462
0
LINE
8
BLACK
6
CONTINUOUS
10
5.60643
20
-3.34462
11
5.6083
21
-3.34087
0
LINE
8
BLACK
6
CONTINUOUS
10
5.6083
20
-3.34087
11
5.60883
21
-3.34016
0
LINE
8
BLACK
6
CONTINUOUS
10
5.60883
20
-3.34016
11
5.60885
21
-3.3401
0
LINE
8
BLACK
6
CONTINUOUS
10
5.60885
20
-3.3401
11
5.61073
21
-3.33823
0
LINE
8
BLACK
6
CONTINUOUS
10
5.61073
20
-3.33823
11
5.61145
21
-3.33772
0
LINE
8
BLACK
6
CONTINUOUS
10
5.61145
20
-3.33772
11
5.6115
21
-3.33767
0
LINE
8
BLACK
6
CONTINUOUS
10
5.6115
20
-3.33767
11
5.61524
21
-3.3358
0
LINE
8
BLACK
6
CONTINUOUS
10
5.61524
20
-3.3358
11
5.61623
21
-3.33551
0
LINE
8
BLACK
6
CONTINUOUS
10
5.61623
20
-3.33551
11
5.6164
21
-3.33555
0
LINE
8
BLACK
6
CONTINUOUS
10
5.6164
20
-3.33555
11
5.61657
21
-3.33549
0
LINE
8
BLACK
6
CONTINUOUS
10
5.61657
20
-3.33549
11
5.62594
21
-3.33549
0
LINE
8
BLACK
6
CONTINUOUS
10
5.62594
20
-3.33549
11
5.62681
21
-3.33564
0
LINE
8
BLACK
6
CONTINUOUS
10
5.96726
20
-3.32567
11
5.96739
21
-3.32578
0
LINE
8
BLACK
6
CONTINUOUS
10
5.96739
20
-3.32578
11
5.96757
21
-3.3258
0
LINE
8
BLACK
6
CONTINUOUS
10
5.96757
20
-3.3258
11
5.97132
21
-3.32767
0
LINE
8
BLACK
6
CONTINUOUS
10
5.97132
20
-3.32767
11
5.97203
21
-3.3282
0
LINE
8
BLACK
6
CONTINUOUS
10
5.97203
20
-3.3282
11
5.97208
21
-3.32823
0
LINE
8
BLACK
6
CONTINUOUS
10
5.97208
20
-3.32823
11
5.97583
21
-3.33198
0
LINE
8
BLACK
6
CONTINUOUS
10
5.97583
20
-3.33198
11
5.97642
21
-3.33282
0
LINE
8
BLACK
6
CONTINUOUS
10
5.97642
20
-3.33282
11
5.97645
21
-3.33311
0
LINE
8
BLACK
6
CONTINUOUS
10
5.97645
20
-3.33311
11
5.97661
21
-3.33335
0
LINE
8
BLACK
6
CONTINUOUS
10
5.97661
20
-3.33335
11
5.97849
21
-3.34085
0
LINE
8
BLACK
6
CONTINUOUS
10
5.97849
20
-3.34085
11
5.97853
21
-3.34144
0
LINE
8
BLACK
6
CONTINUOUS
10
5.97853
20
-3.34144
11
5.97857
21
-3.34156
0
LINE
8
BLACK
6
CONTINUOUS
10
5.97857
20
-3.34156
11
5.97857
21
-3.35469
0
LINE
8
BLACK
6
CONTINUOUS
10
5.97857
20
-3.35469
11
5.97847
21
-3.35527
0
LINE
8
BLACK
6
CONTINUOUS
10
5.97847
20
-3.35527
11
5.97849
21
-3.3554
0
LINE
8
BLACK
6
CONTINUOUS
10
5.97849
20
-3.3554
11
5.97661
21
-3.3629
0
LINE
8
BLACK
6
CONTINUOUS
10
5.97661
20
-3.3629
11
5.97619
21
-3.36384
0
LINE
8
BLACK
6
CONTINUOUS
10
5.97619
20
-3.36384
11
5.97596
21
-3.36401
0
LINE
8
BLACK
6
CONTINUOUS
10
5.97596
20
-3.36401
11
5.97583
21
-3.36427
0
LINE
8
BLACK
6
CONTINUOUS
10
5.97583
20
-3.36427
11
5.97208
21
-3.36802
0
LINE
8
BLACK
6
CONTINUOUS
10
5.97208
20
-3.36802
11
5.97136
21
-3.36853
0
LINE
8
BLACK
6
CONTINUOUS
10
5.97136
20
-3.36853
11
5.97132
21
-3.36858
0
LINE
8
BLACK
6
CONTINUOUS
10
5.97132
20
-3.36858
11
5.96757
21
-3.37045
0
LINE
8
BLACK
6
CONTINUOUS
10
5.96757
20
-3.37045
11
5.96658
21
-3.37074
0
LINE
8
BLACK
6
CONTINUOUS
10
5.96658
20
-3.37074
11
5.96641
21
-3.3707
0
LINE
8
BLACK
6
CONTINUOUS
10
5.96641
20
-3.3707
11
5.96625
21
-3.37076
0
LINE
8
BLACK
6
CONTINUOUS
10
5.96625
20
-3.37076
11
5.95875
21
-3.37076
0
LINE
8
BLACK
6
CONTINUOUS
10
5.95875
20
-3.37076
11
5.95774
21
-3.37058
0
LINE
8
BLACK
6
CONTINUOUS
10
5.95774
20
-3.37058
11
5.9576
21
-3.37047
0
LINE
8
BLACK
6
CONTINUOUS
10
5.9576
20
-3.37047
11
5.95743
21
-3.37045
0
LINE
8
BLACK
6
CONTINUOUS
10
5.95743
20
-3.37045
11
5.95368
21
-3.36858
0
LINE
8
BLACK
6
CONTINUOUS
10
5.95368
20
-3.36858
11
5.95297
21
-3.36805
0
LINE
8
BLACK
6
CONTINUOUS
10
5.95297
20
-3.36805
11
5.95291
21
-3.36802
0
LINE
8
BLACK
6
CONTINUOUS
10
5.95291
20
-3.36802
11
5.94916
21
-3.36427
0
LINE
8
BLACK
6
CONTINUOUS
10
5.94916
20
-3.36427
11
5.94857
21
-3.36343
0
LINE
8
BLACK
6
CONTINUOUS
10
5.94857
20
-3.36343
11
5.94855
21
-3.36314
0
LINE
8
BLACK
6
CONTINUOUS
10
5.94855
20
-3.36314
11
5.94838
21
-3.3629
0
LINE
8
BLACK
6
CONTINUOUS
10
5.94838
20
-3.3629
11
5.94651
21
-3.3554
0
LINE
8
BLACK
6
CONTINUOUS
10
5.94651
20
-3.3554
11
5.94647
21
-3.35482
0
LINE
8
BLACK
6
CONTINUOUS
10
5.94647
20
-3.35482
11
5.94642
21
-3.35469
0
LINE
8
BLACK
6
CONTINUOUS
10
5.94642
20
-3.35469
11
5.94642
21
-3.34156
0
LINE
8
BLACK
6
CONTINUOUS
10
5.94642
20
-3.34156
11
5.94652
21
-3.34098
0
LINE
8
BLACK
6
CONTINUOUS
10
5.94652
20
-3.34098
11
5.94651
21
-3.34085
0
LINE
8
BLACK
6
CONTINUOUS
10
5.94651
20
-3.34085
11
5.94838
21
-3.33335
0
LINE
8
BLACK
6
CONTINUOUS
10
5.94838
20
-3.33335
11
5.9488
21
-3.33241
0
LINE
8
BLACK
6
CONTINUOUS
10
5.9488
20
-3.33241
11
5.94904
21
-3.33224
0
LINE
8
BLACK
6
CONTINUOUS
10
5.94904
20
-3.33224
11
5.94916
21
-3.33198
0
LINE
8
BLACK
6
CONTINUOUS
10
5.94916
20
-3.33198
11
5.95291
21
-3.32823
0
LINE
8
BLACK
6
CONTINUOUS
10
5.95291
20
-3.32823
11
5.95363
21
-3.32772
0
LINE
8
BLACK
6
CONTINUOUS
10
5.95363
20
-3.32772
11
5.95368
21
-3.32767
0
LINE
8
BLACK
6
CONTINUOUS
10
5.95368
20
-3.32767
11
5.95743
21
-3.3258
0
LINE
8
BLACK
6
CONTINUOUS
10
5.95743
20
-3.3258
11
5.95841
21
-3.32551
0
LINE
8
BLACK
6
CONTINUOUS
10
5.95841
20
-3.32551
11
5.95858
21
-3.32555
0
LINE
8
BLACK
6
CONTINUOUS
10
5.95858
20
-3.32555
11
5.95875
21
-3.32549
0
LINE
8
BLACK
6
CONTINUOUS
10
5.95875
20
-3.32549
11
5.96625
21
-3.32549
0
LINE
8
BLACK
6
CONTINUOUS
10
5.96625
20
-3.32549
11
5.96726
21
-3.32567
0
LINE
8
BLACK
6
CONTINUOUS
10
5.95944
20
-3.33139
11
5.95675
21
-3.33274
0
LINE
8
BLACK
6
CONTINUOUS
10
5.95675
20
-3.33274
11
5.95391
21
-3.33557
0
LINE
8
BLACK
6
CONTINUOUS
10
5.95391
20
-3.33557
11
5.95233
21
-3.34193
0
LINE
8
BLACK
6
CONTINUOUS
10
5.95233
20
-3.34193
11
5.95233
21
-3.35432
0
LINE
8
BLACK
6
CONTINUOUS
10
5.95233
20
-3.35432
11
5.95391
21
-3.36068
0
LINE
8
BLACK
6
CONTINUOUS
10
5.95391
20
-3.36068
11
5.95675
21
-3.36351
0
LINE
8
BLACK
6
CONTINUOUS
10
5.95675
20
-3.36351
11
5.95944
21
-3.36486
0
LINE
8
BLACK
6
CONTINUOUS
10
5.95944
20
-3.36486
11
5.96555
21
-3.36486
0
LINE
8
BLACK
6
CONTINUOUS
10
5.96555
20
-3.36486
11
5.96825
21
-3.36351
0
LINE
8
BLACK
6
CONTINUOUS
10
5.96825
20
-3.36351
11
5.97108
21
-3.36068
0
LINE
8
BLACK
6
CONTINUOUS
10
5.97108
20
-3.36068
11
5.97267
21
-3.35432
0
LINE
8
BLACK
6
CONTINUOUS
10
5.97267
20
-3.35432
11
5.97267
21
-3.34193
0
LINE
8
BLACK
6
CONTINUOUS
10
5.97267
20
-3.34193
11
5.97108
21
-3.33557
0
LINE
8
BLACK
6
CONTINUOUS
10
5.97108
20
-3.33557
11
5.96825
21
-3.33274
0
LINE
8
BLACK
6
CONTINUOUS
10
5.96825
20
-3.33274
11
5.96555
21
-3.33139
0
LINE
8
BLACK
6
CONTINUOUS
10
5.96555
20
-3.33139
11
5.95944
21
-3.33139
0
LINE
8
BLACK
6
CONTINUOUS
10
5.93263
20
-3.3256
11
5.93301
21
-3.32553
0
LINE
8
BLACK
6
CONTINUOUS
10
5.93301
20
-3.32553
11
5.93357
21
-3.32585
0
LINE
8
BLACK
6
CONTINUOUS
10
5.93357
20
-3.32585
11
5.9342
21
-3.32602
0
LINE
8
BLACK
6
CONTINUOUS
10
5.9342
20
-3.32602
11
5.93442
21
-3.32635
0
LINE
8
BLACK
6
CONTINUOUS
10
5.93442
20
-3.32635
11
5.93476
21
-3.32654
0
LINE
8
BLACK
6
CONTINUOUS
10
5.93476
20
-3.32654
11
5.93498
21
-3.32715
0
LINE
8
BLACK
6
CONTINUOUS
10
5.93498
20
-3.32715
11
5.93535
21
-3.32768
0
LINE
8
BLACK
6
CONTINUOUS
10
5.93535
20
-3.32768
11
5.93532
21
-3.32807
0
LINE
8
BLACK
6
CONTINUOUS
10
5.93532
20
-3.32807
11
5.93545
21
-3.32844
0
LINE
8
BLACK
6
CONTINUOUS
10
5.93545
20
-3.32844
11
5.93545
21
-3.36781
0
LINE
8
BLACK
6
CONTINUOUS
10
5.93545
20
-3.36781
11
5.93528
21
-3.36882
0
LINE
8
BLACK
6
CONTINUOUS
10
5.93528
20
-3.36882
11
5.93398
21
-3.37037
0
LINE
8
BLACK
6
CONTINUOUS
10
5.93398
20
-3.37037
11
5.93199
21
-3.37072
0
LINE
8
BLACK
6
CONTINUOUS
10
5.93199
20
-3.37072
11
5.93024
21
-3.36971
0
LINE
8
BLACK
6
CONTINUOUS
10
5.93024
20
-3.36971
11
5.92955
21
-3.36781
0
LINE
8
BLACK
6
CONTINUOUS
10
5.92955
20
-3.36781
11
5.92955
21
-3.34175
0
LINE
8
BLACK
6
CONTINUOUS
10
5.92955
20
-3.34175
11
5.92205
21
-3.35781
0
LINE
8
BLACK
6
CONTINUOUS
10
5.92205
20
-3.35781
11
5.92183
21
-3.35813
0
LINE
8
BLACK
6
CONTINUOUS
10
5.92183
20
-3.35813
11
5.9218
21
-3.35825
0
LINE
8
BLACK
6
CONTINUOUS
10
5.9218
20
-3.35825
11
5.92169
21
-3.35833
0
LINE
8
BLACK
6
CONTINUOUS
10
5.92169
20
-3.35833
11
5.92146
21
-3.35865
0
LINE
8
BLACK
6
CONTINUOUS
10
5.92146
20
-3.35865
11
5.92077
21
-3.35897
0
LINE
8
BLACK
6
CONTINUOUS
10
5.92077
20
-3.35897
11
5.92014
21
-3.35941
0
LINE
8
BLACK
6
CONTINUOUS
10
5.92014
20
-3.35941
11
5.91988
21
-3.35939
0
LINE
8
BLACK
6
CONTINUOUS
10
5.91988
20
-3.35939
11
5.91963
21
-3.3595
0
LINE
8
BLACK
6
CONTINUOUS
10
5.91963
20
-3.3595
11
5.91889
21
-3.3593
0
LINE
8
BLACK
6
CONTINUOUS
10
5.91889
20
-3.3593
11
5.91813
21
-3.35924
0
LINE
8
BLACK
6
CONTINUOUS
10
5.91813
20
-3.35924
11
5.91794
21
-3.35905
0
LINE
8
BLACK
6
CONTINUOUS
10
5.91794
20
-3.35905
11
5.91768
21
-3.35898
0
LINE
8
BLACK
6
CONTINUOUS
10
5.91768
20
-3.35898
11
5.91724
21
-3.35835
0
LINE
8
BLACK
6
CONTINUOUS
10
5.91724
20
-3.35835
11
5.9167
21
-3.35781
0
LINE
8
BLACK
6
CONTINUOUS
10
5.9167
20
-3.35781
11
5.90921
21
-3.34175
0
LINE
8
BLACK
6
CONTINUOUS
10
5.90921
20
-3.34175
11
5.90921
21
-3.36781
0
LINE
8
BLACK
6
CONTINUOUS
10
5.90921
20
-3.36781
11
5.90903
21
-3.36882
0
LINE
8
BLACK
6
CONTINUOUS
10
5.90903
20
-3.36882
11
5.90773
21
-3.37037
0
LINE
8
BLACK
6
CONTINUOUS
10
5.90773
20
-3.37037
11
5.90574
21
-3.37072
0
LINE
8
BLACK
6
CONTINUOUS
10
5.90574
20
-3.37072
11
5.90399
21
-3.36971
0
LINE
8
BLACK
6
CONTINUOUS
10
5.90399
20
-3.36971
11
5.9033
21
-3.36781
0
LINE
8
BLACK
6
CONTINUOUS
10
5.9033
20
-3.36781
11
5.9033
21
-3.32844
0
LINE
8
BLACK
6
CONTINUOUS
10
5.9033
20
-3.32844
11
5.90348
21
-3.32743
0
LINE
8
BLACK
6
CONTINUOUS
10
5.90348
20
-3.32743
11
5.90373
21
-3.32713
0
LINE
8
BLACK
6
CONTINUOUS
10
5.90373
20
-3.32713
11
5.90383
21
-3.32675
0
LINE
8
BLACK
6
CONTINUOUS
10
5.90383
20
-3.32675
11
5.90436
21
-3.32638
0
LINE
8
BLACK
6
CONTINUOUS
10
5.90436
20
-3.32638
11
5.90478
21
-3.32588
0
LINE
8
BLACK
6
CONTINUOUS
10
5.90478
20
-3.32588
11
5.90517
21
-3.32581
0
LINE
8
BLACK
6
CONTINUOUS
10
5.90517
20
-3.32581
11
5.90549
21
-3.32559
0
LINE
8
BLACK
6
CONTINUOUS
10
5.90549
20
-3.32559
11
5.90613
21
-3.32564
0
LINE
8
BLACK
6
CONTINUOUS
10
5.90613
20
-3.32564
11
5.90677
21
-3.32553
0
LINE
8
BLACK
6
CONTINUOUS
10
5.90677
20
-3.32553
11
5.90711
21
-3.32573
0
LINE
8
BLACK
6
CONTINUOUS
10
5.90711
20
-3.32573
11
5.9075
21
-3.32576
0
LINE
8
BLACK
6
CONTINUOUS
10
5.9075
20
-3.32576
11
5.90796
21
-3.32622
0
LINE
8
BLACK
6
CONTINUOUS
10
5.90796
20
-3.32622
11
5.90852
21
-3.32654
0
LINE
8
BLACK
6
CONTINUOUS
10
5.90852
20
-3.32654
11
5.90865
21
-3.32691
0
LINE
8
BLACK
6
CONTINUOUS
10
5.90865
20
-3.32691
11
5.90893
21
-3.32719
0
LINE
8
BLACK
6
CONTINUOUS
10
5.90893
20
-3.32719
11
5.91938
21
-3.34958
0
LINE
8
BLACK
6
CONTINUOUS
10
5.91938
20
-3.34958
11
5.92983
21
-3.32719
0
LINE
8
BLACK
6
CONTINUOUS
10
5.92983
20
-3.32719
11
5.93041
21
-3.32635
0
LINE
8
BLACK
6
CONTINUOUS
10
5.93041
20
-3.32635
11
5.93077
21
-3.32619
0
LINE
8
BLACK
6
CONTINUOUS
10
5.93077
20
-3.32619
11
5.93102
21
-3.32588
0
LINE
8
BLACK
6
CONTINUOUS
10
5.93102
20
-3.32588
11
5.93166
21
-3.32577
0
LINE
8
BLACK
6
CONTINUOUS
10
5.93166
20
-3.32577
11
5.93224
21
-3.3255
0
LINE
8
BLACK
6
CONTINUOUS
10
5.93224
20
-3.3255
11
5.93263
21
-3.3256
0
LINE
8
BLACK
6
CONTINUOUS
10
5.9568
20
-3.22564
11
5.95687
21
-3.22564
0
LINE
8
BLACK
6
CONTINUOUS
10
5.95687
20
-3.22564
11
5.96249
21
-3.22751
0
LINE
8
BLACK
6
CONTINUOUS
10
5.96249
20
-3.22751
11
5.9634
21
-3.228
0
LINE
8
BLACK
6
CONTINUOUS
10
5.9634
20
-3.228
11
5.96349
21
-3.22815
0
LINE
8
BLACK
6
CONTINUOUS
10
5.96349
20
-3.22815
11
5.96365
21
-3.22823
0
LINE
8
BLACK
6
CONTINUOUS
10
5.96365
20
-3.22823
11
5.9674
21
-3.23198
0
LINE
8
BLACK
6
CONTINUOUS
10
5.9674
20
-3.23198
11
5.9679
21
-3.2327
0
LINE
8
BLACK
6
CONTINUOUS
10
5.9679
20
-3.2327
11
5.96795
21
-3.23274
0
LINE
8
BLACK
6
CONTINUOUS
10
5.96795
20
-3.23274
11
5.96983
21
-3.23649
0
LINE
8
BLACK
6
CONTINUOUS
10
5.96983
20
-3.23649
11
5.96997
21
-3.23698
0
LINE
8
BLACK
6
CONTINUOUS
10
5.96997
20
-3.23698
11
5.97005
21
-3.2371
0
LINE
8
BLACK
6
CONTINUOUS
10
5.97005
20
-3.2371
11
5.97192
21
-3.2446
0
LINE
8
BLACK
6
CONTINUOUS
10
5.97192
20
-3.2446
11
5.97196
21
-3.24518
0
LINE
8
BLACK
6
CONTINUOUS
10
5.97196
20
-3.24518
11
5.97201
21
-3.24531
0
LINE
8
BLACK
6
CONTINUOUS
10
5.97201
20
-3.24531
11
5.97201
21
-3.25094
0
LINE
8
BLACK
6
CONTINUOUS
10
5.97201
20
-3.25094
11
5.97191
21
-3.25152
0
LINE
8
BLACK
6
CONTINUOUS
10
5.97191
20
-3.25152
11
5.97192
21
-3.25165
0
LINE
8
BLACK
6
CONTINUOUS
10
5.97192
20
-3.25165
11
5.97005
21
-3.25915
0
LINE
8
BLACK
6
CONTINUOUS
10
5.97005
20
-3.25915
11
5.96984
21
-3.25962
0
LINE
8
BLACK
6
CONTINUOUS
10
5.96984
20
-3.25962
11
5.96983
21
-3.25976
0
LINE
8
BLACK
6
CONTINUOUS
10
5.96983
20
-3.25976
11
5.96795
21
-3.26351
0
LINE
8
BLACK
6
CONTINUOUS
10
5.96795
20
-3.26351
11
5.96742
21
-3.26422
0
LINE
8
BLACK
6
CONTINUOUS
10
5.96742
20
-3.26422
11
5.9674
21
-3.26427
0
LINE
8
BLACK
6
CONTINUOUS
10
5.9674
20
-3.26427
11
5.96365
21
-3.26802
0
LINE
8
BLACK
6
CONTINUOUS
10
5.96365
20
-3.26802
11
5.96281
21
-3.26861
0
LINE
8
BLACK
6
CONTINUOUS
10
5.96281
20
-3.26861
11
5.96263
21
-3.26863
0
LINE
8
BLACK
6
CONTINUOUS
10
5.96263
20
-3.26863
11
5.96249
21
-3.26874
0
LINE
8
BLACK
6
CONTINUOUS
10
5.96249
20
-3.26874
11
5.95687
21
-3.27061
0
LINE
8
BLACK
6
CONTINUOUS
10
5.95687
20
-3.27061
11
5.956
21
-3.27074
0
LINE
8
BLACK
6
CONTINUOUS
10
5.956
20
-3.27074
11
5.95594
21
-3.27076
0
LINE
8
BLACK
6
CONTINUOUS
10
5.95594
20
-3.27076
11
5.94656
21
-3.27076
0
LINE
8
BLACK
6
CONTINUOUS
10
5.94656
20
-3.27076
11
5.94618
21
-3.2707
0
LINE
8
BLACK
6
CONTINUOUS
10
5.94618
20
-3.2707
11
5.94605
21
-3.27072
0
LINE
8
BLACK
6
CONTINUOUS
10
5.94605
20
-3.27072
11
5.94594
21
-3.27065
0
LINE
8
BLACK
6
CONTINUOUS
10
5.94594
20
-3.27065
11
5.94555
21
-3.27058
0
LINE
8
BLACK
6
CONTINUOUS
10
5.94555
20
-3.27058
11
5.94496
21
-3.27009
0
LINE
8
BLACK
6
CONTINUOUS
10
5.94496
20
-3.27009
11
5.9443
21
-3.26971
0
LINE
8
BLACK
6
CONTINUOUS
10
5.9443
20
-3.26971
11
5.94421
21
-3.26946
0
LINE
8
BLACK
6
CONTINUOUS
10
5.94421
20
-3.26946
11
5.944
21
-3.26929
0
LINE
8
BLACK
6
CONTINUOUS
10
5.944
20
-3.26929
11
5.94387
21
-3.26853
0
LINE
8
BLACK
6
CONTINUOUS
10
5.94387
20
-3.26853
11
5.94361
21
-3.26781
0
LINE
8
BLACK
6
CONTINUOUS
10
5.94361
20
-3.26781
11
5.94361
21
-3.22844
0
LINE
8
BLACK
6
CONTINUOUS
10
5.94361
20
-3.22844
11
5.94368
21
-3.22806
0
LINE
8
BLACK
6
CONTINUOUS
10
5.94368
20
-3.22806
11
5.94365
21
-3.22793
0
LINE
8
BLACK
6
CONTINUOUS
10
5.94365
20
-3.22793
11
5.94372
21
-3.22781
0
LINE
8
BLACK
6
CONTINUOUS
10
5.94372
20
-3.22781
11
5.94379
21
-3.22743
0
LINE
8
BLACK
6
CONTINUOUS
10
5.94379
20
-3.22743
11
5.94428
21
-3.22684
0
LINE
8
BLACK
6
CONTINUOUS
10
5.94428
20
-3.22684
11
5.94466
21
-3.22618
0
LINE
8
BLACK
6
CONTINUOUS
10
5.94466
20
-3.22618
11
5.94491
21
-3.22609
0
LINE
8
BLACK
6
CONTINUOUS
10
5.94491
20
-3.22609
11
5.94509
21
-3.22588
0
LINE
8
BLACK
6
CONTINUOUS
10
5.94509
20
-3.22588
11
5.94584
21
-3.22575
0
LINE
8
BLACK
6
CONTINUOUS
10
5.94584
20
-3.22575
11
5.94656
21
-3.22549
0
LINE
8
BLACK
6
CONTINUOUS
10
5.94656
20
-3.22549
11
5.95594
21
-3.22549
0
LINE
8
BLACK
6
CONTINUOUS
10
5.95594
20
-3.22549
11
5.9568
21
-3.22564
0
LINE
8
BLACK
6
CONTINUOUS
10
5.94951
20
-3.23139
11
5.94951
21
-3.26486
0
LINE
8
BLACK
6
CONTINUOUS
10
5.94951
20
-3.26486
11
5.95546
21
-3.26486
0
LINE
8
BLACK
6
CONTINUOUS
10
5.95546
20
-3.26486
11
5.95996
21
-3.26335
0
LINE
8
BLACK
6
CONTINUOUS
10
5.95996
20
-3.26335
11
5.96288
21
-3.26044
0
LINE
8
BLACK
6
CONTINUOUS
10
5.96288
20
-3.26044
11
5.9644
21
-3.25741
0
LINE
8
BLACK
6
CONTINUOUS
10
5.9644
20
-3.25741
11
5.96611
21
-3.25057
0
LINE
8
BLACK
6
CONTINUOUS
10
5.96611
20
-3.25057
11
5.96611
21
-3.24568
0
LINE
8
BLACK
6
CONTINUOUS
10
5.96611
20
-3.24568
11
5.9644
21
-3.23884
0
LINE
8
BLACK
6
CONTINUOUS
10
5.9644
20
-3.23884
11
5.96288
21
-3.23581
0
LINE
8
BLACK
6
CONTINUOUS
10
5.96288
20
-3.23581
11
5.95996
21
-3.2329
0
LINE
8
BLACK
6
CONTINUOUS
10
5.95996
20
-3.2329
11
5.95546
21
-3.23139
0
LINE
8
BLACK
6
CONTINUOUS
10
5.95546
20
-3.23139
11
5.94951
21
-3.23139
0
LINE
8
BLACK
6
CONTINUOUS
10
5.90874
20
-3.22592
11
5.90999
21
-3.22751
0
LINE
8
BLACK
6
CONTINUOUS
10
5.90999
20
-3.22751
11
5.92031
21
-3.25847
0
LINE
8
BLACK
6
CONTINUOUS
10
5.92031
20
-3.25847
11
5.93064
21
-3.22751
0
LINE
8
BLACK
6
CONTINUOUS
10
5.93064
20
-3.22751
11
5.93113
21
-3.2266
0
LINE
8
BLACK
6
CONTINUOUS
10
5.93113
20
-3.2266
11
5.93285
21
-3.22555
0
LINE
8
BLACK
6
CONTINUOUS
10
5.93285
20
-3.22555
11
5.93484
21
-3.22584
0
LINE
8
BLACK
6
CONTINUOUS
10
5.93484
20
-3.22584
11
5.93618
21
-3.22735
0
LINE
8
BLACK
6
CONTINUOUS
10
5.93618
20
-3.22735
11
5.93624
21
-3.22937
0
LINE
8
BLACK
6
CONTINUOUS
10
5.93624
20
-3.22937
11
5.92312
21
-3.26874
0
LINE
8
BLACK
6
CONTINUOUS
10
5.92312
20
-3.26874
11
5.92263
21
-3.26965
0
LINE
8
BLACK
6
CONTINUOUS
10
5.92263
20
-3.26965
11
5.92256
21
-3.26969
0
LINE
8
BLACK
6
CONTINUOUS
10
5.92256
20
-3.26969
11
5.92252
21
-3.26977
0
LINE
8
BLACK
6
CONTINUOUS
10
5.92252
20
-3.26977
11
5.9217
21
-3.27021
0
LINE
8
BLACK
6
CONTINUOUS
10
5.9217
20
-3.27021
11
5.92091
21
-3.2707
0
LINE
8
BLACK
6
CONTINUOUS
10
5.92091
20
-3.2707
11
5.92082
21
-3.27069
0
LINE
8
BLACK
6
CONTINUOUS
10
5.92082
20
-3.27069
11
5.92075
21
-3.27073
0
LINE
8
BLACK
6
CONTINUOUS
10
5.92075
20
-3.27073
11
5.91983
21
-3.27054
0
LINE
8
BLACK
6
CONTINUOUS
10
5.91983
20
-3.27054
11
5.91891
21
-3.27041
0
LINE
8
BLACK
6
CONTINUOUS
10
5.91891
20
-3.27041
11
5.91885
21
-3.27034
0
LINE
8
BLACK
6
CONTINUOUS
10
5.91885
20
-3.27034
11
5.91877
21
-3.27033
0
LINE
8
BLACK
6
CONTINUOUS
10
5.91877
20
-3.27033
11
5.91819
21
-3.26959
0
LINE
8
BLACK
6
CONTINUOUS
10
5.91819
20
-3.26959
11
5.91757
21
-3.2689
0
LINE
8
BLACK
6
CONTINUOUS
10
5.91757
20
-3.2689
11
5.91757
21
-3.26881
0
LINE
8
BLACK
6
CONTINUOUS
10
5.91757
20
-3.26881
11
5.91751
21
-3.26874
0
LINE
8
BLACK
6
CONTINUOUS
10
5.91751
20
-3.26874
11
5.90439
21
-3.22937
0
LINE
8
BLACK
6
CONTINUOUS
10
5.90439
20
-3.22937
11
5.90424
21
-3.22836
0
LINE
8
BLACK
6
CONTINUOUS
10
5.90424
20
-3.22836
11
5.90498
21
-3.22648
0
LINE
8
BLACK
6
CONTINUOUS
10
5.90498
20
-3.22648
11
5.90676
21
-3.22552
0
LINE
8
BLACK
6
CONTINUOUS
10
5.90676
20
-3.22552
11
5.90874
21
-3.22592
0
LINE
8
BLACK
6
CONTINUOUS
10
5.66476
20
-3.22654
11
5.66545
21
-3.22844
0
LINE
8
BLACK
6
CONTINUOUS
10
5.66545
20
-3.22844
11
5.66545
21
-3.26781
0
LINE
8
BLACK
6
CONTINUOUS
10
5.66545
20
-3.26781
11
5.66527
21
-3.26882
0
LINE
8
BLACK
6
CONTINUOUS
10
5.66527
20
-3.26882
11
5.66397
21
-3.27037
0
LINE
8
BLACK
6
CONTINUOUS
10
5.66397
20
-3.27037
11
5.66198
21
-3.27072
0
LINE
8
BLACK
6
CONTINUOUS
10
5.66198
20
-3.27072
11
5.66024
21
-3.26971
0
LINE
8
BLACK
6
CONTINUOUS
10
5.66024
20
-3.26971
11
5.65954
21
-3.26781
0
LINE
8
BLACK
6
CONTINUOUS
10
5.65954
20
-3.26781
11
5.65954
21
-3.22844
0
LINE
8
BLACK
6
CONTINUOUS
10
5.65954
20
-3.22844
11
5.65972
21
-3.22743
0
LINE
8
BLACK
6
CONTINUOUS
10
5.65972
20
-3.22743
11
5.66102
21
-3.22588
0
LINE
8
BLACK
6
CONTINUOUS
10
5.66102
20
-3.22588
11
5.66301
21
-3.22553
0
LINE
8
BLACK
6
CONTINUOUS
10
5.66301
20
-3.22553
11
5.66476
21
-3.22654
0
LINE
8
BLACK
6
CONTINUOUS
10
5.64387
20
-3.2256
11
5.64426
21
-3.22553
0
LINE
8
BLACK
6
CONTINUOUS
10
5.64426
20
-3.22553
11
5.64482
21
-3.22585
0
LINE
8
BLACK
6
CONTINUOUS
10
5.64482
20
-3.22585
11
5.64544
21
-3.22602
0
LINE
8
BLACK
6
CONTINUOUS
10
5.64544
20
-3.22602
11
5.64567
21
-3.22635
0
LINE
8
BLACK
6
CONTINUOUS
10
5.64567
20
-3.22635
11
5.64601
21
-3.22654
0
LINE
8
BLACK
6
CONTINUOUS
10
5.64601
20
-3.22654
11
5.64623
21
-3.22715
0
LINE
8
BLACK
6
CONTINUOUS
10
5.64623
20
-3.22715
11
5.6466
21
-3.22768
0
LINE
8
BLACK
6
CONTINUOUS
10
5.6466
20
-3.22768
11
5.64657
21
-3.22807
0
LINE
8
BLACK
6
CONTINUOUS
10
5.64657
20
-3.22807
11
5.6467
21
-3.22844
0
LINE
8
BLACK
6
CONTINUOUS
10
5.6467
20
-3.22844
11
5.6467
21
-3.26781
0
LINE
8
BLACK
6
CONTINUOUS
10
5.6467
20
-3.26781
11
5.64652
21
-3.26882
0
LINE
8
BLACK
6
CONTINUOUS
10
5.64652
20
-3.26882
11
5.64523
21
-3.27037
0
LINE
8
BLACK
6
CONTINUOUS
10
5.64523
20
-3.27037
11
5.64324
21
-3.27072
0
LINE
8
BLACK
6
CONTINUOUS
10
5.64324
20
-3.27072
11
5.64149
21
-3.26971
0
LINE
8
BLACK
6
CONTINUOUS
10
5.64149
20
-3.26971
11
5.6408
21
-3.26781
0
LINE
8
BLACK
6
CONTINUOUS
10
5.6408
20
-3.26781
11
5.6408
21
-3.24175
0
LINE
8
BLACK
6
CONTINUOUS
10
5.6408
20
-3.24175
11
5.6333
21
-3.25781
0
LINE
8
BLACK
6
CONTINUOUS
10
5.6333
20
-3.25781
11
5.63308
21
-3.25813
0
LINE
8
BLACK
6
CONTINUOUS
10
5.63308
20
-3.25813
11
5.63305
21
-3.25825
0
LINE
8
BLACK
6
CONTINUOUS
10
5.63305
20
-3.25825
11
5.63294
21
-3.25833
0
LINE
8
BLACK
6
CONTINUOUS
10
5.63294
20
-3.25833
11
5.63271
21
-3.25865
0
LINE
8
BLACK
6
CONTINUOUS
10
5.63271
20
-3.25865
11
5.63202
21
-3.25897
0
LINE
8
BLACK
6
CONTINUOUS
10
5.63202
20
-3.25897
11
5.63139
21
-3.25941
0
LINE
8
BLACK
6
CONTINUOUS
10
5.63139
20
-3.25941
11
5.63112
21
-3.25939
0
LINE
8
BLACK
6
CONTINUOUS
10
5.63112
20
-3.25939
11
5.63088
21
-3.2595
0
LINE
8
BLACK
6
CONTINUOUS
10
5.63088
20
-3.2595
11
5.63014
21
-3.2593
0
LINE
8
BLACK
6
CONTINUOUS
10
5.63014
20
-3.2593
11
5.62938
21
-3.25924
0
LINE
8
BLACK
6
CONTINUOUS
10
5.62938
20
-3.25924
11
5.62919
21
-3.25905
0
LINE
8
BLACK
6
CONTINUOUS
10
5.62919
20
-3.25905
11
5.62893
21
-3.25898
0
LINE
8
BLACK
6
CONTINUOUS
10
5.62893
20
-3.25898
11
5.62849
21
-3.25835
0
LINE
8
BLACK
6
CONTINUOUS
10
5.62849
20
-3.25835
11
5.62795
21
-3.25781
0
LINE
8
BLACK
6
CONTINUOUS
10
5.62795
20
-3.25781
11
5.62046
21
-3.24175
0
LINE
8
BLACK
6
CONTINUOUS
10
5.62046
20
-3.24175
11
5.62046
21
-3.26781
0
LINE
8
BLACK
6
CONTINUOUS
10
5.62046
20
-3.26781
11
5.62028
21
-3.26882
0
LINE
8
BLACK
6
CONTINUOUS
10
5.62028
20
-3.26882
11
5.61898
21
-3.27037
0
LINE
8
BLACK
6
CONTINUOUS
10
5.61898
20
-3.27037
11
5.61699
21
-3.27072
0
LINE
8
BLACK
6
CONTINUOUS
10
5.61699
20
-3.27072
11
5.61524
21
-3.26971
0
LINE
8
BLACK
6
CONTINUOUS
10
5.61524
20
-3.26971
11
5.61455
21
-3.26781
0
LINE
8
BLACK
6
CONTINUOUS
10
5.61455
20
-3.26781
11
5.61455
21
-3.22844
0
LINE
8
BLACK
6
CONTINUOUS
10
5.61455
20
-3.22844
11
5.61473
21
-3.22743
0
LINE
8
BLACK
6
CONTINUOUS
10
5.61473
20
-3.22743
11
5.61498
21
-3.22713
0
LINE
8
BLACK
6
CONTINUOUS
10
5.61498
20
-3.22713
11
5.61508
21
-3.22675
0
LINE
8
BLACK
6
CONTINUOUS
10
5.61508
20
-3.22675
11
5.61561
21
-3.22638
0
LINE
8
BLACK
6
CONTINUOUS
10
5.61561
20
-3.22638
11
5.61603
21
-3.22588
0
LINE
8
BLACK
6
CONTINUOUS
10
5.61603
20
-3.22588
11
5.61641
21
-3.22581
0
LINE
8
BLACK
6
CONTINUOUS
10
5.61641
20
-3.22581
11
5.61674
21
-3.22559
0
LINE
8
BLACK
6
CONTINUOUS
10
5.61674
20
-3.22559
11
5.61738
21
-3.22564
0
LINE
8
BLACK
6
CONTINUOUS
10
5.61738
20
-3.22564
11
5.61802
21
-3.22553
0
LINE
8
BLACK
6
CONTINUOUS
10
5.61802
20
-3.22553
11
5.61836
21
-3.22573
0
LINE
8
BLACK
6
CONTINUOUS
10
5.61836
20
-3.22573
11
5.61875
21
-3.22576
0
LINE
8
BLACK
6
CONTINUOUS
10
5.61875
20
-3.22576
11
5.61921
21
-3.22622
0
LINE
8
BLACK
6
CONTINUOUS
10
5.61921
20
-3.22622
11
5.61976
21
-3.22654
0
LINE
8
BLACK
6
CONTINUOUS
10
5.61976
20
-3.22654
11
5.6199
21
-3.22691
0
LINE
8
BLACK
6
CONTINUOUS
10
5.6199
20
-3.22691
11
5.62018
21
-3.22719
0
LINE
8
BLACK
6
CONTINUOUS
10
5.62018
20
-3.22719
11
5.63063
21
-3.24958
0
LINE
8
BLACK
6
CONTINUOUS
10
5.63063
20
-3.24958
11
5.64107
21
-3.22719
0
LINE
8
BLACK
6
CONTINUOUS
10
5.64107
20
-3.22719
11
5.64166
21
-3.22635
0
LINE
8
BLACK
6
CONTINUOUS
10
5.64166
20
-3.22635
11
5.64202
21
-3.22619
0
LINE
8
BLACK
6
CONTINUOUS
10
5.64202
20
-3.22619
11
5.64227
21
-3.22588
0
LINE
8
BLACK
6
CONTINUOUS
10
5.64227
20
-3.22588
11
5.64291
21
-3.22577
0
LINE
8
BLACK
6
CONTINUOUS
10
5.64291
20
-3.22577
11
5.64349
21
-3.2255
0
LINE
8
BLACK
6
CONTINUOUS
10
5.64349
20
-3.2255
11
5.64387
21
-3.2256
  0
ENDSEC
  0
EOF
