  0
SECTION
  2
HEADER
  9
$ANGBASE
  50
0.0
  9
$ANGDIR
  70
1
  9
$MEASUREMENT
  70
0
  0
ENDSEC
  0
SECTION
  2
TABLES
  0
TABLE
  2
LTYPE
  70
4
  0
LTYPE
  5
40F
  2
CONTINUOUS
  70
0
  3
Solid line
  72
65
  73
0
  40
0.0
  0
LTYPE
  5
410
  2
DASHDOT
 70
0
  3
Dash Dot ____ _ ____ _
 72
65
 73
4
 40
2.0
 49
1.25
 49
-0.25
 49
0.25
 49
-0.25
  0
LTYPE
  5
411
  2
DASHED
 70
0
  3
Dashed __ __ __ __ __
 72
65
 73
2
 40
0.75
 49
0.5
 49
-0.25
  0
LTYPE
  5
43B
  2
DOTTED
 70
0
  3
Dotted .  .  .  .
 72
65
 73
2
 40
0.2
 49
0.0
 49
-0.2
  0
ENDTAB
  0
TABLE
  2
STYLE
  70
4
  0
STYLE
  2
KICAD
  70
0
  40
0
  41
1
  42
1
  50
0
  71
0
  3
isocp.shx
  0
STYLE
  2
KICADB
  70
0
  40
0
  41
1
  42
1
  50
0
  71
0
  3
isocp.shx
  0
STYLE
  2
KICADI
  70
0
  40
0
  41
1
  42
1
  50
15
  71
0
  3
isocp.shx
  0
STYLE
  2
KICADBI
  70
0
  40
0
  41
1
  42
1
  50
15
  71
0
  3
isocp.shx
  0
ENDTAB
  0
TABLE
  2
LAYER
  70
1
  0
LAYER
  2
BLACK
  70
0
  62
7
  6
CONTINUOUS
  0
ENDTAB
  0
ENDSEC
  0
SECTION
  2
ENTITIES
0
LINE
8
BLACK
6
CONTINUOUS
10
5.85441
20
-3.27165
11
5.90884
21
-3.32608
0
LINE
8
BLACK
6
CONTINUOUS
10
5.90884
20
-3.32608
11
5.90962
21
-3.32555
0
LINE
8
BLACK
6
CONTINUOUS
10
5.90962
20
-3.32555
11
5.91339
21
-3.3248
0
LINE
8
BLACK
6
CONTINUOUS
10
5.91339
20
-3.3248
11
5.93701
21
-3.3248
0
LINE
8
BLACK
6
CONTINUOUS
10
5.93701
20
-3.3248
11
5.94077
21
-3.32555
0
LINE
8
BLACK
6
CONTINUOUS
10
5.94077
20
-3.32555
11
5.94397
21
-3.32769
0
LINE
8
BLACK
6
CONTINUOUS
10
5.94397
20
-3.32769
11
5.9461
21
-3.33088
0
LINE
8
BLACK
6
CONTINUOUS
10
5.9461
20
-3.33088
11
5.94685
21
-3.33465
0
LINE
8
BLACK
6
CONTINUOUS
10
5.94685
20
-3.33465
11
5.94685
21
-3.35827
0
LINE
8
BLACK
6
CONTINUOUS
10
5.94685
20
-3.35827
11
5.9461
21
-3.36203
0
LINE
8
BLACK
6
CONTINUOUS
10
5.9461
20
-3.36203
11
5.94397
21
-3.36523
0
LINE
8
BLACK
6
CONTINUOUS
10
5.94397
20
-3.36523
11
5.94077
21
-3.36736
0
LINE
8
BLACK
6
CONTINUOUS
10
5.94077
20
-3.36736
11
5.93701
21
-3.36811
0
LINE
8
BLACK
6
CONTINUOUS
10
5.93701
20
-3.36811
11
5.93504
21
-3.36811
0
LINE
8
BLACK
6
CONTINUOUS
10
5.93504
20
-3.36811
11
5.93504
21
-3.59055
0
LINE
8
BLACK
6
CONTINUOUS
10
5.93504
20
-3.59055
11
5.93484
21
-3.5913
0
LINE
8
BLACK
6
CONTINUOUS
10
5.93484
20
-3.5913
11
5.93484
21
-3.59208
0
LINE
8
BLACK
6
CONTINUOUS
10
5.93484
20
-3.59208
11
5.93445
21
-3.59275
0
LINE
8
BLACK
6
CONTINUOUS
10
5.93445
20
-3.59275
11
5.93425
21
-3.5935
0
LINE
8
BLACK
6
CONTINUOUS
10
5.93425
20
-3.5935
11
5.9337
21
-3.59405
0
LINE
8
BLACK
6
CONTINUOUS
10
5.9337
20
-3.59405
11
5.93331
21
-3.59473
0
LINE
8
BLACK
6
CONTINUOUS
10
5.93331
20
-3.59473
11
5.89788
21
-3.63016
0
LINE
8
BLACK
6
CONTINUOUS
10
5.89788
20
-3.63016
11
5.8972
21
-3.63055
0
LINE
8
BLACK
6
CONTINUOUS
10
5.8972
20
-3.63055
11
5.89665
21
-3.6311
0
LINE
8
BLACK
6
CONTINUOUS
10
5.89665
20
-3.6311
11
5.8959
21
-3.6313
0
LINE
8
BLACK
6
CONTINUOUS
10
5.8959
20
-3.6313
11
5.89523
21
-3.63169
0
LINE
8
BLACK
6
CONTINUOUS
10
5.89523
20
-3.63169
11
5.89445
21
-3.63169
0
LINE
8
BLACK
6
CONTINUOUS
10
5.89445
20
-3.63169
11
5.8937
21
-3.63189
0
LINE
8
BLACK
6
CONTINUOUS
10
5.8937
20
-3.63189
11
5.72646
21
-3.63189
0
LINE
8
BLACK
6
CONTINUOUS
10
5.72646
20
-3.63189
11
5.69418
21
-3.66418
0
LINE
8
BLACK
6
CONTINUOUS
10
5.69418
20
-3.66418
11
5.6935
21
-3.66456
0
LINE
8
BLACK
6
CONTINUOUS
10
5.6935
20
-3.66456
11
5.69295
21
-3.66511
0
LINE
8
BLACK
6
CONTINUOUS
10
5.69295
20
-3.66511
11
5.6922
21
-3.66532
0
LINE
8
BLACK
6
CONTINUOUS
10
5.6922
20
-3.66532
11
5.69153
21
-3.6657
0
LINE
8
BLACK
6
CONTINUOUS
10
5.69153
20
-3.6657
11
5.69075
21
-3.6657
0
LINE
8
BLACK
6
CONTINUOUS
10
5.69075
20
-3.6657
11
5.69
21
-3.66591
0
LINE
8
BLACK
6
CONTINUOUS
10
5.69
20
-3.66591
11
5.65709
21
-3.66591
0
LINE
8
BLACK
6
CONTINUOUS
10
5.65709
20
-3.66591
11
5.65709
21
-3.68799
0
LINE
8
BLACK
6
CONTINUOUS
10
5.65709
20
-3.68799
11
5.65634
21
-3.69176
0
LINE
8
BLACK
6
CONTINUOUS
10
5.65634
20
-3.69176
11
5.6542
21
-3.69495
0
LINE
8
BLACK
6
CONTINUOUS
10
5.6542
20
-3.69495
11
5.65101
21
-3.69709
0
LINE
8
BLACK
6
CONTINUOUS
10
5.65101
20
-3.69709
11
5.64724
21
-3.69783
0
LINE
8
BLACK
6
CONTINUOUS
10
5.64724
20
-3.69783
11
5.62756
21
-3.69783
0
LINE
8
BLACK
6
CONTINUOUS
10
5.62756
20
-3.69783
11
5.62379
21
-3.69709
0
LINE
8
BLACK
6
CONTINUOUS
10
5.62379
20
-3.69709
11
5.6206
21
-3.69495
0
LINE
8
BLACK
6
CONTINUOUS
10
5.6206
20
-3.69495
11
5.61847
21
-3.69176
0
LINE
8
BLACK
6
CONTINUOUS
10
5.61847
20
-3.69176
11
5.61772
21
-3.68799
0
LINE
8
BLACK
6
CONTINUOUS
10
5.61772
20
-3.68799
11
5.61772
21
-3.65059
0
LINE
8
BLACK
6
CONTINUOUS
10
5.61772
20
-3.65059
11
5.61847
21
-3.64682
0
LINE
8
BLACK
6
CONTINUOUS
10
5.61847
20
-3.64682
11
5.6206
21
-3.64363
0
LINE
8
BLACK
6
CONTINUOUS
10
5.6206
20
-3.64363
11
5.62379
21
-3.6415
0
LINE
8
BLACK
6
CONTINUOUS
10
5.62379
20
-3.6415
11
5.62756
21
-3.64075
0
LINE
8
BLACK
6
CONTINUOUS
10
5.62756
20
-3.64075
11
5.6315
21
-3.64075
0
LINE
8
BLACK
6
CONTINUOUS
10
5.6315
20
-3.64075
11
5.6315
21
-3.61229
0
LINE
8
BLACK
6
CONTINUOUS
10
5.6315
20
-3.61229
11
5.60511
21
-3.58591
0
LINE
8
BLACK
6
CONTINUOUS
10
5.60511
20
-3.58591
11
5.59969
21
-3.58591
0
LINE
8
BLACK
6
CONTINUOUS
10
5.59969
20
-3.58591
11
5.59969
21
-3.5987
0
LINE
8
BLACK
6
CONTINUOUS
10
5.59969
20
-3.5987
11
5.59894
21
-3.60247
0
LINE
8
BLACK
6
CONTINUOUS
10
5.59894
20
-3.60247
11
5.5968
21
-3.60566
0
LINE
8
BLACK
6
CONTINUOUS
10
5.5968
20
-3.60566
11
5.59361
21
-3.60779
0
LINE
8
BLACK
6
CONTINUOUS
10
5.59361
20
-3.60779
11
5.58984
21
-3.60854
0
LINE
8
BLACK
6
CONTINUOUS
10
5.58984
20
-3.60854
11
5.57016
21
-3.60854
0
LINE
8
BLACK
6
CONTINUOUS
10
5.57016
20
-3.60854
11
5.56639
21
-3.60779
0
LINE
8
BLACK
6
CONTINUOUS
10
5.56639
20
-3.60779
11
5.5632
21
-3.60566
0
LINE
8
BLACK
6
CONTINUOUS
10
5.5632
20
-3.60566
11
5.56106
21
-3.60247
0
LINE
8
BLACK
6
CONTINUOUS
10
5.56106
20
-3.60247
11
5.56031
21
-3.5987
0
LINE
8
BLACK
6
CONTINUOUS
10
5.56031
20
-3.5987
11
5.56031
21
-3.5613
0
LINE
8
BLACK
6
CONTINUOUS
10
5.56031
20
-3.5613
11
5.56106
21
-3.55753
0
LINE
8
BLACK
6
CONTINUOUS
10
5.56106
20
-3.55753
11
5.5632
21
-3.55434
0
LINE
8
BLACK
6
CONTINUOUS
10
5.5632
20
-3.55434
11
5.56639
21
-3.55221
0
LINE
8
BLACK
6
CONTINUOUS
10
5.56639
20
-3.55221
11
5.57016
21
-3.55146
0
LINE
8
BLACK
6
CONTINUOUS
10
5.57016
20
-3.55146
11
5.57409
21
-3.55146
0
LINE
8
BLACK
6
CONTINUOUS
10
5.57409
20
-3.55146
11
5.57409
21
-3.51449
0
LINE
8
BLACK
6
CONTINUOUS
10
5.57409
20
-3.51449
11
5.5743
21
-3.51374
0
LINE
8
BLACK
6
CONTINUOUS
10
5.5743
20
-3.51374
11
5.5743
21
-3.51296
0
LINE
8
BLACK
6
CONTINUOUS
10
5.5743
20
-3.51296
11
5.57468
21
-3.51229
0
LINE
8
BLACK
6
CONTINUOUS
10
5.57468
20
-3.51229
11
5.57489
21
-3.51154
0
LINE
8
BLACK
6
CONTINUOUS
10
5.57489
20
-3.51154
11
5.57544
21
-3.51099
0
LINE
8
BLACK
6
CONTINUOUS
10
5.57544
20
-3.51099
11
5.57582
21
-3.51031
0
LINE
8
BLACK
6
CONTINUOUS
10
5.57582
20
-3.51031
11
5.5822
21
-3.50393
0
LINE
8
BLACK
6
CONTINUOUS
10
5.5822
20
-3.50393
11
5.5822
21
-3.4822
0
LINE
8
BLACK
6
CONTINUOUS
10
5.5822
20
-3.4822
11
5.64717
21
-3.4822
0
LINE
8
BLACK
6
CONTINUOUS
10
5.64717
20
-3.4822
11
5.64717
21
-3.5078
0
LINE
8
BLACK
6
CONTINUOUS
10
5.64717
20
-3.5078
11
5.59504
21
-3.5078
0
LINE
8
BLACK
6
CONTINUOUS
10
5.59504
20
-3.5078
11
5.58591
21
-3.51693
0
LINE
8
BLACK
6
CONTINUOUS
10
5.58591
20
-3.51693
11
5.58591
21
-3.55146
0
LINE
8
BLACK
6
CONTINUOUS
10
5.58591
20
-3.55146
11
5.58984
21
-3.55146
0
LINE
8
BLACK
6
CONTINUOUS
10
5.58984
20
-3.55146
11
5.59361
21
-3.55221
0
LINE
8
BLACK
6
CONTINUOUS
10
5.59361
20
-3.55221
11
5.5968
21
-3.55434
0
LINE
8
BLACK
6
CONTINUOUS
10
5.5968
20
-3.55434
11
5.59894
21
-3.55753
0
LINE
8
BLACK
6
CONTINUOUS
10
5.59894
20
-3.55753
11
5.59969
21
-3.5613
0
LINE
8
BLACK
6
CONTINUOUS
10
5.59969
20
-3.5613
11
5.59969
21
-3.57409
0
LINE
8
BLACK
6
CONTINUOUS
10
5.59969
20
-3.57409
11
5.60756
21
-3.57409
0
LINE
8
BLACK
6
CONTINUOUS
10
5.60756
20
-3.57409
11
5.60831
21
-3.5743
0
LINE
8
BLACK
6
CONTINUOUS
10
5.60831
20
-3.5743
11
5.60909
21
-3.5743
0
LINE
8
BLACK
6
CONTINUOUS
10
5.60909
20
-3.5743
11
5.60976
21
-3.57468
0
LINE
8
BLACK
6
CONTINUOUS
10
5.60976
20
-3.57468
11
5.61051
21
-3.57489
0
LINE
8
BLACK
6
CONTINUOUS
10
5.61051
20
-3.57489
11
5.61106
21
-3.57544
0
LINE
8
BLACK
6
CONTINUOUS
10
5.61106
20
-3.57544
11
5.61173
21
-3.57582
0
LINE
8
BLACK
6
CONTINUOUS
10
5.61173
20
-3.57582
11
5.64158
21
-3.60567
0
LINE
8
BLACK
6
CONTINUOUS
10
5.64158
20
-3.60567
11
5.64197
21
-3.60634
0
LINE
8
BLACK
6
CONTINUOUS
10
5.64197
20
-3.60634
11
5.64252
21
-3.60689
0
LINE
8
BLACK
6
CONTINUOUS
10
5.64252
20
-3.60689
11
5.64272
21
-3.60764
0
LINE
8
BLACK
6
CONTINUOUS
10
5.64272
20
-3.60764
11
5.64311
21
-3.60831
0
LINE
8
BLACK
6
CONTINUOUS
10
5.64311
20
-3.60831
11
5.64311
21
-3.60909
0
LINE
8
BLACK
6
CONTINUOUS
10
5.64311
20
-3.60909
11
5.64331
21
-3.60984
0
LINE
8
BLACK
6
CONTINUOUS
10
5.64331
20
-3.60984
11
5.64331
21
-3.64075
0
LINE
8
BLACK
6
CONTINUOUS
10
5.64331
20
-3.64075
11
5.64724
21
-3.64075
0
LINE
8
BLACK
6
CONTINUOUS
10
5.64724
20
-3.64075
11
5.65101
21
-3.6415
0
LINE
8
BLACK
6
CONTINUOUS
10
5.65101
20
-3.6415
11
5.6542
21
-3.64363
0
LINE
8
BLACK
6
CONTINUOUS
10
5.6542
20
-3.64363
11
5.65634
21
-3.64682
0
LINE
8
BLACK
6
CONTINUOUS
10
5.65634
20
-3.64682
11
5.65709
21
-3.65059
0
LINE
8
BLACK
6
CONTINUOUS
10
5.65709
20
-3.65059
11
5.65709
21
-3.65409
0
LINE
8
BLACK
6
CONTINUOUS
10
5.65709
20
-3.65409
11
5.68755
21
-3.65409
0
LINE
8
BLACK
6
CONTINUOUS
10
5.68755
20
-3.65409
11
5.71984
21
-3.62181
0
LINE
8
BLACK
6
CONTINUOUS
10
5.71984
20
-3.62181
11
5.72051
21
-3.62142
0
LINE
8
BLACK
6
CONTINUOUS
10
5.72051
20
-3.62142
11
5.72106
21
-3.62087
0
LINE
8
BLACK
6
CONTINUOUS
10
5.72106
20
-3.62087
11
5.72181
21
-3.62067
0
LINE
8
BLACK
6
CONTINUOUS
10
5.72181
20
-3.62067
11
5.72249
21
-3.62028
0
LINE
8
BLACK
6
CONTINUOUS
10
5.72249
20
-3.62028
11
5.72326
21
-3.62028
0
LINE
8
BLACK
6
CONTINUOUS
10
5.72326
20
-3.62028
11
5.72402
21
-3.62008
0
LINE
8
BLACK
6
CONTINUOUS
10
5.72402
20
-3.62008
11
5.89125
21
-3.62008
0
LINE
8
BLACK
6
CONTINUOUS
10
5.89125
20
-3.62008
11
5.92323
21
-3.58811
0
LINE
8
BLACK
6
CONTINUOUS
10
5.92323
20
-3.58811
11
5.92323
21
-3.36811
0
LINE
8
BLACK
6
CONTINUOUS
10
5.92323
20
-3.36811
11
5.91339
21
-3.36811
0
LINE
8
BLACK
6
CONTINUOUS
10
5.91339
20
-3.36811
11
5.90962
21
-3.36736
0
LINE
8
BLACK
6
CONTINUOUS
10
5.90962
20
-3.36736
11
5.90643
21
-3.36523
0
LINE
8
BLACK
6
CONTINUOUS
10
5.90643
20
-3.36523
11
5.90429
21
-3.36203
0
LINE
8
BLACK
6
CONTINUOUS
10
5.90429
20
-3.36203
11
5.90354
21
-3.35827
0
LINE
8
BLACK
6
CONTINUOUS
10
5.90354
20
-3.35827
11
5.90354
21
-3.33749
0
LINE
8
BLACK
6
CONTINUOUS
10
5.90354
20
-3.33749
11
5.84606
21
-3.28
0
LINE
8
BLACK
6
CONTINUOUS
10
5.84606
20
-3.28
11
5.79441
21
-3.28
0
LINE
8
BLACK
6
CONTINUOUS
10
5.79441
20
-3.28
11
5.79441
21
-3.22
0
LINE
8
BLACK
6
CONTINUOUS
10
5.79441
20
-3.22
11
5.85441
21
-3.22
0
LINE
8
BLACK
6
CONTINUOUS
10
5.85441
20
-3.22
11
5.85441
21
-3.27165
0
LINE
8
BLACK
6
CONTINUOUS
10
5.75441
20
-3.58
11
5.69441
21
-3.58
0
LINE
8
BLACK
6
CONTINUOUS
10
5.69441
20
-3.58
11
5.69441
21
-3.52
0
LINE
8
BLACK
6
CONTINUOUS
10
5.69441
20
-3.52
11
5.75441
21
-3.52
0
LINE
8
BLACK
6
CONTINUOUS
10
5.75441
20
-3.52
11
5.75441
21
-3.58
0
LINE
8
BLACK
6
CONTINUOUS
10
5.87289
20
-3.32357
11
5.89057
21
-3.34124
0
LINE
8
BLACK
6
CONTINUOUS
10
5.89057
20
-3.34124
11
5.89166
21
-3.34339
0
LINE
8
BLACK
6
CONTINUOUS
10
5.89166
20
-3.34339
11
5.89171
21
-3.344
0
LINE
8
BLACK
6
CONTINUOUS
10
5.89171
20
-3.344
11
5.89171
21
-3.35996
0
LINE
8
BLACK
6
CONTINUOUS
10
5.89171
20
-3.35996
11
5.89213
21
-3.36345
0
LINE
8
BLACK
6
CONTINUOUS
10
5.89213
20
-3.36345
11
5.89432
21
-3.36899
0
LINE
8
BLACK
6
CONTINUOUS
10
5.89432
20
-3.36899
11
5.89432
21
-3.36899
0
LINE
8
BLACK
6
CONTINUOUS
10
5.89432
20
-3.36899
11
5.89432
21
-3.36899
0
LINE
8
BLACK
6
CONTINUOUS
10
5.89432
20
-3.36899
11
5.89792
21
-3.37374
0
LINE
8
BLACK
6
CONTINUOUS
10
5.89792
20
-3.37374
11
5.90266
21
-3.37734
0
LINE
8
BLACK
6
CONTINUOUS
10
5.90266
20
-3.37734
11
5.90266
21
-3.37734
0
LINE
8
BLACK
6
CONTINUOUS
10
5.90266
20
-3.37734
11
5.90266
21
-3.37734
0
LINE
8
BLACK
6
CONTINUOUS
10
5.90266
20
-3.37734
11
5.90821
21
-3.37952
0
LINE
8
BLACK
6
CONTINUOUS
10
5.90821
20
-3.37952
11
5.90821
21
-3.37952
0
LINE
8
BLACK
6
CONTINUOUS
10
5.90821
20
-3.37952
11
5.90821
21
-3.37952
0
LINE
8
BLACK
6
CONTINUOUS
10
5.90821
20
-3.37952
11
5.90821
21
-3.37952
0
LINE
8
BLACK
6
CONTINUOUS
10
5.90821
20
-3.37952
11
5.90845
21
-3.37958
0
LINE
8
BLACK
6
CONTINUOUS
10
5.90845
20
-3.37958
11
5.90842
21
-3.3797
0
LINE
8
BLACK
6
CONTINUOUS
10
5.90842
20
-3.3797
11
5.91015
21
-3.3805
0
LINE
8
BLACK
6
CONTINUOUS
10
5.91015
20
-3.3805
11
5.91132
21
-3.3826
0
LINE
8
BLACK
6
CONTINUOUS
10
5.91132
20
-3.3826
11
5.9114
21
-3.38336
0
LINE
8
BLACK
6
CONTINUOUS
10
5.9114
20
-3.38336
11
5.9114
21
-3.58159
0
LINE
8
BLACK
6
CONTINUOUS
10
5.9114
20
-3.58159
11
5.91065
21
-3.58388
0
LINE
8
BLACK
6
CONTINUOUS
10
5.91065
20
-3.58388
11
5.91026
21
-3.58435
0
LINE
8
BLACK
6
CONTINUOUS
10
5.91026
20
-3.58435
11
5.8875
21
-3.60711
0
LINE
8
BLACK
6
CONTINUOUS
10
5.8875
20
-3.60711
11
5.88535
21
-3.6082
0
LINE
8
BLACK
6
CONTINUOUS
10
5.88535
20
-3.6082
11
5.88474
21
-3.60825
0
LINE
8
BLACK
6
CONTINUOUS
10
5.88474
20
-3.60825
11
5.72512
21
-3.60825
0
LINE
8
BLACK
6
CONTINUOUS
10
5.72512
20
-3.60825
11
5.7249
21
-3.60824
0
LINE
8
BLACK
6
CONTINUOUS
10
5.7249
20
-3.60824
11
5.72335
21
-3.60806
0
LINE
8
BLACK
6
CONTINUOUS
10
5.72335
20
-3.60806
11
5.72334
21
-3.60806
0
LINE
8
BLACK
6
CONTINUOUS
10
5.72334
20
-3.60806
11
5.72104
21
-3.6085
0
LINE
8
BLACK
6
CONTINUOUS
10
5.72104
20
-3.6085
11
5.71873
21
-3.60884
0
LINE
8
BLACK
6
CONTINUOUS
10
5.71873
20
-3.60884
11
5.71845
21
-3.60893
0
LINE
8
BLACK
6
CONTINUOUS
10
5.71845
20
-3.60893
11
5.71845
21
-3.60891
0
LINE
8
BLACK
6
CONTINUOUS
10
5.71845
20
-3.60891
11
5.71836
21
-3.60894
0
LINE
8
BLACK
6
CONTINUOUS
10
5.71836
20
-3.60894
11
5.71837
21
-3.60896
0
LINE
8
BLACK
6
CONTINUOUS
10
5.71837
20
-3.60896
11
5.71809
21
-3.60905
0
LINE
8
BLACK
6
CONTINUOUS
10
5.71809
20
-3.60905
11
5.71787
21
-3.60917
0
LINE
8
BLACK
6
CONTINUOUS
10
5.71787
20
-3.60917
11
5.71602
21
-3.61015
0
LINE
8
BLACK
6
CONTINUOUS
10
5.71602
20
-3.61015
11
5.71481
21
-3.61073
0
LINE
8
BLACK
6
CONTINUOUS
10
5.71481
20
-3.61073
11
5.71391
21
-3.61116
0
LINE
8
BLACK
6
CONTINUOUS
10
5.71391
20
-3.61116
11
5.71367
21
-3.61133
0
LINE
8
BLACK
6
CONTINUOUS
10
5.71367
20
-3.61133
11
5.71366
21
-3.61131
0
LINE
8
BLACK
6
CONTINUOUS
10
5.71366
20
-3.61131
11
5.71359
21
-3.61137
0
LINE
8
BLACK
6
CONTINUOUS
10
5.71359
20
-3.61137
11
5.7136
21
-3.61138
0
LINE
8
BLACK
6
CONTINUOUS
10
5.7136
20
-3.61138
11
5.71336
21
-3.61155
0
LINE
8
BLACK
6
CONTINUOUS
10
5.71336
20
-3.61155
11
5.71171
21
-3.61321
0
LINE
8
BLACK
6
CONTINUOUS
10
5.71171
20
-3.61321
11
5.70999
21
-3.6148
0
LINE
8
BLACK
6
CONTINUOUS
10
5.70999
20
-3.6148
11
5.70981
21
-3.61503
0
LINE
8
BLACK
6
CONTINUOUS
10
5.70981
20
-3.61503
11
5.7098
21
-3.61502
0
LINE
8
BLACK
6
CONTINUOUS
10
5.7098
20
-3.61502
11
5.70946
21
-3.61546
0
LINE
8
BLACK
6
CONTINUOUS
10
5.70946
20
-3.61546
11
5.68379
21
-3.64112
0
LINE
8
BLACK
6
CONTINUOUS
10
5.68379
20
-3.64112
11
5.68165
21
-3.64222
0
LINE
8
BLACK
6
CONTINUOUS
10
5.68165
20
-3.64222
11
5.68104
21
-3.64226
0
LINE
8
BLACK
6
CONTINUOUS
10
5.68104
20
-3.64226
11
5.66991
21
-3.64226
0
LINE
8
BLACK
6
CONTINUOUS
10
5.66991
20
-3.64226
11
5.66762
21
-3.64152
0
LINE
8
BLACK
6
CONTINUOUS
10
5.66762
20
-3.64152
11
5.6665
21
-3.64007
0
LINE
8
BLACK
6
CONTINUOUS
10
5.6665
20
-3.64007
11
5.66644
21
-3.6401
0
LINE
8
BLACK
6
CONTINUOUS
10
5.66644
20
-3.6401
11
5.66631
21
-3.63987
0
LINE
8
BLACK
6
CONTINUOUS
10
5.66631
20
-3.63987
11
5.66631
21
-3.63987
0
LINE
8
BLACK
6
CONTINUOUS
10
5.66631
20
-3.63987
11
5.66271
21
-3.63512
0
LINE
8
BLACK
6
CONTINUOUS
10
5.66271
20
-3.63512
11
5.65797
21
-3.63152
0
LINE
8
BLACK
6
CONTINUOUS
10
5.65797
20
-3.63152
11
5.65797
21
-3.63152
0
LINE
8
BLACK
6
CONTINUOUS
10
5.65797
20
-3.63152
11
5.65761
21
-3.63138
0
LINE
8
BLACK
6
CONTINUOUS
10
5.65761
20
-3.63138
11
5.65575
21
-3.62985
0
LINE
8
BLACK
6
CONTINUOUS
10
5.65575
20
-3.62985
11
5.65514
21
-3.62775
0
LINE
8
BLACK
6
CONTINUOUS
10
5.65514
20
-3.62775
11
5.65514
21
-3.61095
0
LINE
8
BLACK
6
CONTINUOUS
10
5.65514
20
-3.61095
11
5.65515
21
-3.61073
0
LINE
8
BLACK
6
CONTINUOUS
10
5.65515
20
-3.61073
11
5.65524
21
-3.60996
0
LINE
8
BLACK
6
CONTINUOUS
10
5.65524
20
-3.60996
11
5.65533
21
-3.60917
0
LINE
8
BLACK
6
CONTINUOUS
10
5.65533
20
-3.60917
11
5.65489
21
-3.60687
0
LINE
8
BLACK
6
CONTINUOUS
10
5.65489
20
-3.60687
11
5.65454
21
-3.60456
0
LINE
8
BLACK
6
CONTINUOUS
10
5.65454
20
-3.60456
11
5.65454
21
-3.60456
0
LINE
8
BLACK
6
CONTINUOUS
10
5.65454
20
-3.60456
11
5.65446
21
-3.60428
0
LINE
8
BLACK
6
CONTINUOUS
10
5.65446
20
-3.60428
11
5.65447
21
-3.60427
0
LINE
8
BLACK
6
CONTINUOUS
10
5.65447
20
-3.60427
11
5.65444
21
-3.60419
0
LINE
8
BLACK
6
CONTINUOUS
10
5.65444
20
-3.60419
11
5.65443
21
-3.60419
0
LINE
8
BLACK
6
CONTINUOUS
10
5.65443
20
-3.60419
11
5.65433
21
-3.60392
0
LINE
8
BLACK
6
CONTINUOUS
10
5.65433
20
-3.60392
11
5.65433
21
-3.60392
0
LINE
8
BLACK
6
CONTINUOUS
10
5.65433
20
-3.60392
11
5.65324
21
-3.60185
0
LINE
8
BLACK
6
CONTINUOUS
10
5.65324
20
-3.60185
11
5.65222
21
-3.59974
0
LINE
8
BLACK
6
CONTINUOUS
10
5.65222
20
-3.59974
11
5.65222
21
-3.59974
0
LINE
8
BLACK
6
CONTINUOUS
10
5.65222
20
-3.59974
11
5.65206
21
-3.5995
0
LINE
8
BLACK
6
CONTINUOUS
10
5.65206
20
-3.5995
11
5.65207
21
-3.59949
0
LINE
8
BLACK
6
CONTINUOUS
10
5.65207
20
-3.59949
11
5.65202
21
-3.59942
0
LINE
8
BLACK
6
CONTINUOUS
10
5.65202
20
-3.59942
11
5.65201
21
-3.59943
0
LINE
8
BLACK
6
CONTINUOUS
10
5.65201
20
-3.59943
11
5.65183
21
-3.59919
0
LINE
8
BLACK
6
CONTINUOUS
10
5.65183
20
-3.59919
11
5.65018
21
-3.59754
0
LINE
8
BLACK
6
CONTINUOUS
10
5.65018
20
-3.59754
11
5.64858
21
-3.59582
0
LINE
8
BLACK
6
CONTINUOUS
10
5.64858
20
-3.59582
11
5.64858
21
-3.59582
0
LINE
8
BLACK
6
CONTINUOUS
10
5.64858
20
-3.59582
11
5.64858
21
-3.59582
0
LINE
8
BLACK
6
CONTINUOUS
10
5.64858
20
-3.59582
11
5.64858
21
-3.59582
0
LINE
8
BLACK
6
CONTINUOUS
10
5.64858
20
-3.59582
11
5.64836
21
-3.59564
0
LINE
8
BLACK
6
CONTINUOUS
10
5.64836
20
-3.59564
11
5.64837
21
-3.59562
0
LINE
8
BLACK
6
CONTINUOUS
10
5.64837
20
-3.59562
11
5.64793
21
-3.59529
0
LINE
8
BLACK
6
CONTINUOUS
10
5.64793
20
-3.59529
11
5.63441
21
-3.58177
0
LINE
8
BLACK
6
CONTINUOUS
10
5.63441
20
-3.58177
11
5.62088
21
-3.56824
0
LINE
8
BLACK
6
CONTINUOUS
10
5.62088
20
-3.56824
11
5.62074
21
-3.56808
0
LINE
8
BLACK
6
CONTINUOUS
10
5.62074
20
-3.56808
11
5.62028
21
-3.5675
0
LINE
8
BLACK
6
CONTINUOUS
10
5.62028
20
-3.5675
11
5.61976
21
-3.56685
0
LINE
8
BLACK
6
CONTINUOUS
10
5.61976
20
-3.56685
11
5.61782
21
-3.56553
0
LINE
8
BLACK
6
CONTINUOUS
10
5.61782
20
-3.56553
11
5.61594
21
-3.56414
0
LINE
8
BLACK
6
CONTINUOUS
10
5.61594
20
-3.56414
11
5.61594
21
-3.56414
0
LINE
8
BLACK
6
CONTINUOUS
10
5.61594
20
-3.56414
11
5.61568
21
-3.56401
0
LINE
8
BLACK
6
CONTINUOUS
10
5.61568
20
-3.56401
11
5.61569
21
-3.56399
0
LINE
8
BLACK
6
CONTINUOUS
10
5.61569
20
-3.56399
11
5.61561
21
-3.56395
0
LINE
8
BLACK
6
CONTINUOUS
10
5.61561
20
-3.56395
11
5.6156
21
-3.56397
0
LINE
8
BLACK
6
CONTINUOUS
10
5.6156
20
-3.56397
11
5.61534
21
-3.56384
0
LINE
8
BLACK
6
CONTINUOUS
10
5.61534
20
-3.56384
11
5.61426
21
-3.56351
0
LINE
8
BLACK
6
CONTINUOUS
10
5.61426
20
-3.56351
11
5.61229
21
-3.56212
0
LINE
8
BLACK
6
CONTINUOUS
10
5.61229
20
-3.56212
11
5.61152
21
-3.55984
0
LINE
8
BLACK
6
CONTINUOUS
10
5.61152
20
-3.55984
11
5.61152
21
-3.55978
0
LINE
8
BLACK
6
CONTINUOUS
10
5.61152
20
-3.55978
11
5.61152
21
-3.5596
0
LINE
8
BLACK
6
CONTINUOUS
10
5.61152
20
-3.5596
11
5.61152
21
-3.5596
0
LINE
8
BLACK
6
CONTINUOUS
10
5.61152
20
-3.5596
11
5.6111
21
-3.55612
0
LINE
8
BLACK
6
CONTINUOUS
10
5.6111
20
-3.55612
11
5.60891
21
-3.55058
0
LINE
8
BLACK
6
CONTINUOUS
10
5.60891
20
-3.55058
11
5.60531
21
-3.54583
0
LINE
8
BLACK
6
CONTINUOUS
10
5.60531
20
-3.54583
11
5.60056
21
-3.54223
0
LINE
8
BLACK
6
CONTINUOUS
10
5.60056
20
-3.54223
11
5.60056
21
-3.54223
0
LINE
8
BLACK
6
CONTINUOUS
10
5.60056
20
-3.54223
11
5.6002
21
-3.54209
0
LINE
8
BLACK
6
CONTINUOUS
10
5.6002
20
-3.54209
11
5.59835
21
-3.54055
0
LINE
8
BLACK
6
CONTINUOUS
10
5.59835
20
-3.54055
11
5.59774
21
-3.53846
0
LINE
8
BLACK
6
CONTINUOUS
10
5.59774
20
-3.53846
11
5.59774
21
-3.52352
0
LINE
8
BLACK
6
CONTINUOUS
10
5.59774
20
-3.52352
11
5.59848
21
-3.52123
0
LINE
8
BLACK
6
CONTINUOUS
10
5.59848
20
-3.52123
11
5.60043
21
-3.51982
0
LINE
8
BLACK
6
CONTINUOUS
10
5.60043
20
-3.51982
11
5.60163
21
-3.51963
0
LINE
8
BLACK
6
CONTINUOUS
10
5.60163
20
-3.51963
11
5.64893
21
-3.51963
0
LINE
8
BLACK
6
CONTINUOUS
10
5.64893
20
-3.51963
11
5.64893
21
-3.51963
0
LINE
8
BLACK
6
CONTINUOUS
10
5.64893
20
-3.51963
11
5.64992
21
-3.51951
0
LINE
8
BLACK
6
CONTINUOUS
10
5.64992
20
-3.51951
11
5.65397
21
-3.51772
0
LINE
8
BLACK
6
CONTINUOUS
10
5.65397
20
-3.51772
11
5.65709
21
-3.5146
0
LINE
8
BLACK
6
CONTINUOUS
10
5.65709
20
-3.5146
11
5.65888
21
-3.51055
0
LINE
8
BLACK
6
CONTINUOUS
10
5.65888
20
-3.51055
11
5.659
21
-3.50956
0
LINE
8
BLACK
6
CONTINUOUS
10
5.659
20
-3.50956
11
5.659
21
-3.48044
0
LINE
8
BLACK
6
CONTINUOUS
10
5.659
20
-3.48044
11
5.65888
21
-3.47945
0
LINE
8
BLACK
6
CONTINUOUS
10
5.65888
20
-3.47945
11
5.65709
21
-3.4754
0
LINE
8
BLACK
6
CONTINUOUS
10
5.65709
20
-3.4754
11
5.65709
21
-3.4754
0
LINE
8
BLACK
6
CONTINUOUS
10
5.65709
20
-3.4754
11
5.65445
21
-3.47276
0
LINE
8
BLACK
6
CONTINUOUS
10
5.65445
20
-3.47276
11
5.65335
21
-3.47061
0
LINE
8
BLACK
6
CONTINUOUS
10
5.65335
20
-3.47061
11
5.65373
21
-3.46823
0
LINE
8
BLACK
6
CONTINUOUS
10
5.65373
20
-3.46823
11
5.65445
21
-3.46724
0
LINE
8
BLACK
6
CONTINUOUS
10
5.65445
20
-3.46724
11
5.65709
21
-3.4646
0
LINE
8
BLACK
6
CONTINUOUS
10
5.65709
20
-3.4646
11
5.65888
21
-3.46055
0
LINE
8
BLACK
6
CONTINUOUS
10
5.65888
20
-3.46055
11
5.659
21
-3.45956
0
LINE
8
BLACK
6
CONTINUOUS
10
5.659
20
-3.45956
11
5.659
21
-3.43044
0
LINE
8
BLACK
6
CONTINUOUS
10
5.659
20
-3.43044
11
5.65888
21
-3.42945
0
LINE
8
BLACK
6
CONTINUOUS
10
5.65888
20
-3.42945
11
5.65709
21
-3.4254
0
LINE
8
BLACK
6
CONTINUOUS
10
5.65709
20
-3.4254
11
5.65445
21
-3.42276
0
LINE
8
BLACK
6
CONTINUOUS
10
5.65445
20
-3.42276
11
5.65335
21
-3.42061
0
LINE
8
BLACK
6
CONTINUOUS
10
5.65335
20
-3.42061
11
5.65373
21
-3.41823
0
LINE
8
BLACK
6
CONTINUOUS
10
5.65373
20
-3.41823
11
5.65445
21
-3.41724
0
LINE
8
BLACK
6
CONTINUOUS
10
5.65445
20
-3.41724
11
5.65709
21
-3.4146
0
LINE
8
BLACK
6
CONTINUOUS
10
5.65709
20
-3.4146
11
5.65709
21
-3.4146
0
LINE
8
BLACK
6
CONTINUOUS
10
5.65709
20
-3.4146
11
5.65714
21
-3.41453
0
LINE
8
BLACK
6
CONTINUOUS
10
5.65714
20
-3.41453
11
5.65724
21
-3.41445
0
LINE
8
BLACK
6
CONTINUOUS
10
5.65724
20
-3.41445
11
5.65735
21
-3.41434
0
LINE
8
BLACK
6
CONTINUOUS
10
5.65735
20
-3.41434
11
5.65736
21
-3.41436
0
LINE
8
BLACK
6
CONTINUOUS
10
5.65736
20
-3.41436
11
5.65905
21
-3.41306
0
LINE
8
BLACK
6
CONTINUOUS
10
5.65905
20
-3.41306
11
5.66036
21
-3.41283
0
LINE
8
BLACK
6
CONTINUOUS
10
5.66036
20
-3.41283
11
5.6783
21
-3.41283
0
LINE
8
BLACK
6
CONTINUOUS
10
5.6783
20
-3.41283
11
5.67852
21
-3.41284
0
LINE
8
BLACK
6
CONTINUOUS
10
5.67852
20
-3.41284
11
5.67889
21
-3.41289
0
LINE
8
BLACK
6
CONTINUOUS
10
5.67889
20
-3.41289
11
5.67926
21
-3.41293
0
LINE
8
BLACK
6
CONTINUOUS
10
5.67926
20
-3.41293
11
5.68145
21
-3.41392
0
LINE
8
BLACK
6
CONTINUOUS
10
5.68145
20
-3.41392
11
5.68264
21
-3.41602
0
LINE
8
BLACK
6
CONTINUOUS
10
5.68264
20
-3.41602
11
5.68269
21
-3.41725
0
LINE
8
BLACK
6
CONTINUOUS
10
5.68269
20
-3.41725
11
5.68258
21
-3.41823
0
LINE
8
BLACK
6
CONTINUOUS
10
5.68258
20
-3.41823
11
5.68258
21
-3.48177
0
LINE
8
BLACK
6
CONTINUOUS
10
5.68258
20
-3.48177
11
5.68258
21
-3.48177
0
LINE
8
BLACK
6
CONTINUOUS
10
5.68258
20
-3.48177
11
5.68269
21
-3.48276
0
LINE
8
BLACK
6
CONTINUOUS
10
5.68269
20
-3.48276
11
5.68369
21
-3.48502
0
LINE
8
BLACK
6
CONTINUOUS
10
5.68369
20
-3.48502
11
5.68448
21
-3.4868
0
LINE
8
BLACK
6
CONTINUOUS
10
5.68448
20
-3.4868
11
5.68761
21
-3.48993
0
LINE
8
BLACK
6
CONTINUOUS
10
5.68761
20
-3.48993
11
5.69165
21
-3.49172
0
LINE
8
BLACK
6
CONTINUOUS
10
5.69165
20
-3.49172
11
5.69264
21
-3.49183
0
LINE
8
BLACK
6
CONTINUOUS
10
5.69264
20
-3.49183
11
5.75618
21
-3.49183
0
LINE
8
BLACK
6
CONTINUOUS
10
5.75618
20
-3.49183
11
5.75716
21
-3.49172
0
LINE
8
BLACK
6
CONTINUOUS
10
5.75716
20
-3.49172
11
5.76121
21
-3.48993
0
LINE
8
BLACK
6
CONTINUOUS
10
5.76121
20
-3.48993
11
5.76434
21
-3.4868
0
LINE
8
BLACK
6
CONTINUOUS
10
5.76434
20
-3.4868
11
5.76613
21
-3.48276
0
LINE
8
BLACK
6
CONTINUOUS
10
5.76613
20
-3.48276
11
5.76624
21
-3.48177
0
LINE
8
BLACK
6
CONTINUOUS
10
5.76624
20
-3.48177
11
5.76624
21
-3.44
0
LINE
8
BLACK
6
CONTINUOUS
10
5.76624
20
-3.44
11
5.76624
21
-3.41823
0
LINE
8
BLACK
6
CONTINUOUS
10
5.76624
20
-3.41823
11
5.76613
21
-3.41724
0
LINE
8
BLACK
6
CONTINUOUS
10
5.76613
20
-3.41724
11
5.76434
21
-3.4132
0
LINE
8
BLACK
6
CONTINUOUS
10
5.76434
20
-3.4132
11
5.76121
21
-3.41007
0
LINE
8
BLACK
6
CONTINUOUS
10
5.76121
20
-3.41007
11
5.75716
21
-3.40828
0
LINE
8
BLACK
6
CONTINUOUS
10
5.75716
20
-3.40828
11
5.75716
21
-3.40828
0
LINE
8
BLACK
6
CONTINUOUS
10
5.75716
20
-3.40828
11
5.75716
21
-3.40828
0
LINE
8
BLACK
6
CONTINUOUS
10
5.75716
20
-3.40828
11
5.75618
21
-3.40817
0
LINE
8
BLACK
6
CONTINUOUS
10
5.75618
20
-3.40817
11
5.70087
21
-3.40817
0
LINE
8
BLACK
6
CONTINUOUS
10
5.70087
20
-3.40817
11
5.69858
21
-3.40742
0
LINE
8
BLACK
6
CONTINUOUS
10
5.69858
20
-3.40742
11
5.69716
21
-3.40548
0
LINE
8
BLACK
6
CONTINUOUS
10
5.69716
20
-3.40548
11
5.69716
21
-3.40307
0
LINE
8
BLACK
6
CONTINUOUS
10
5.69716
20
-3.40307
11
5.69811
21
-3.40152
0
LINE
8
BLACK
6
CONTINUOUS
10
5.69811
20
-3.40152
11
5.70665
21
-3.39297
0
LINE
8
BLACK
6
CONTINUOUS
10
5.70665
20
-3.39297
11
5.7088
21
-3.39188
0
LINE
8
BLACK
6
CONTINUOUS
10
5.7088
20
-3.39188
11
5.70941
21
-3.39183
0
LINE
8
BLACK
6
CONTINUOUS
10
5.70941
20
-3.39183
11
5.75618
21
-3.39183
0
LINE
8
BLACK
6
CONTINUOUS
10
5.75618
20
-3.39183
11
5.75618
21
-3.39183
0
LINE
8
BLACK
6
CONTINUOUS
10
5.75618
20
-3.39183
11
5.75716
21
-3.39172
0
LINE
8
BLACK
6
CONTINUOUS
10
5.75716
20
-3.39172
11
5.76121
21
-3.38993
0
LINE
8
BLACK
6
CONTINUOUS
10
5.76121
20
-3.38993
11
5.76434
21
-3.3868
0
LINE
8
BLACK
6
CONTINUOUS
10
5.76434
20
-3.3868
11
5.76613
21
-3.38276
0
LINE
8
BLACK
6
CONTINUOUS
10
5.76613
20
-3.38276
11
5.76624
21
-3.38177
0
LINE
8
BLACK
6
CONTINUOUS
10
5.76624
20
-3.38177
11
5.76624
21
-3.32843
0
LINE
8
BLACK
6
CONTINUOUS
10
5.76624
20
-3.32843
11
5.76698
21
-3.32613
0
LINE
8
BLACK
6
CONTINUOUS
10
5.76698
20
-3.32613
11
5.76893
21
-3.32472
0
LINE
8
BLACK
6
CONTINUOUS
10
5.76893
20
-3.32472
11
5.77134
21
-3.32472
0
LINE
8
BLACK
6
CONTINUOUS
10
5.77134
20
-3.32472
11
5.77289
21
-3.32567
0
LINE
8
BLACK
6
CONTINUOUS
10
5.77289
20
-3.32567
11
5.78144
21
-3.33421
0
LINE
8
BLACK
6
CONTINUOUS
10
5.78144
20
-3.33421
11
5.78253
21
-3.33636
0
LINE
8
BLACK
6
CONTINUOUS
10
5.78253
20
-3.33636
11
5.78258
21
-3.33697
0
LINE
8
BLACK
6
CONTINUOUS
10
5.78258
20
-3.33697
11
5.78258
21
-3.38177
0
LINE
8
BLACK
6
CONTINUOUS
10
5.78258
20
-3.38177
11
5.78258
21
-3.38177
0
LINE
8
BLACK
6
CONTINUOUS
10
5.78258
20
-3.38177
11
5.78269
21
-3.38276
0
LINE
8
BLACK
6
CONTINUOUS
10
5.78269
20
-3.38276
11
5.78351
21
-3.3846
0
LINE
8
BLACK
6
CONTINUOUS
10
5.78351
20
-3.3846
11
5.78448
21
-3.3868
0
LINE
8
BLACK
6
CONTINUOUS
10
5.78448
20
-3.3868
11
5.78761
21
-3.38993
0
LINE
8
BLACK
6
CONTINUOUS
10
5.78761
20
-3.38993
11
5.79165
21
-3.39172
0
LINE
8
BLACK
6
CONTINUOUS
10
5.79165
20
-3.39172
11
5.79264
21
-3.39183
0
LINE
8
BLACK
6
CONTINUOUS
10
5.79264
20
-3.39183
11
5.85618
21
-3.39183
0
LINE
8
BLACK
6
CONTINUOUS
10
5.85618
20
-3.39183
11
5.85717
21
-3.39172
0
LINE
8
BLACK
6
CONTINUOUS
10
5.85717
20
-3.39172
11
5.86121
21
-3.38993
0
LINE
8
BLACK
6
CONTINUOUS
10
5.86121
20
-3.38993
11
5.86434
21
-3.3868
0
LINE
8
BLACK
6
CONTINUOUS
10
5.86434
20
-3.3868
11
5.86613
21
-3.38276
0
LINE
8
BLACK
6
CONTINUOUS
10
5.86613
20
-3.38276
11
5.86624
21
-3.38177
0
LINE
8
BLACK
6
CONTINUOUS
10
5.86624
20
-3.38177
11
5.86624
21
-3.32632
0
LINE
8
BLACK
6
CONTINUOUS
10
5.86624
20
-3.32632
11
5.86698
21
-3.32403
0
LINE
8
BLACK
6
CONTINUOUS
10
5.86698
20
-3.32403
11
5.86893
21
-3.32262
0
LINE
8
BLACK
6
CONTINUOUS
10
5.86893
20
-3.32262
11
5.87134
21
-3.32262
0
LINE
8
BLACK
6
CONTINUOUS
10
5.87134
20
-3.32262
11
5.87289
21
-3.32357
0
LINE
8
BLACK
6
CONTINUOUS
10
5.7826
20
-3.56
11
5.7826
21
-3.56
0
LINE
8
BLACK
6
CONTINUOUS
10
5.7826
20
-3.56
11
5.7826
21
-3.58176
0
LINE
8
BLACK
6
CONTINUOUS
10
5.7826
20
-3.58176
11
5.78271
21
-3.58275
0
LINE
8
BLACK
6
CONTINUOUS
10
5.78271
20
-3.58275
11
5.7845
21
-3.58679
0
LINE
8
BLACK
6
CONTINUOUS
10
5.7845
20
-3.58679
11
5.78762
21
-3.58991
0
LINE
8
BLACK
6
CONTINUOUS
10
5.78762
20
-3.58991
11
5.79166
21
-3.5917
0
LINE
8
BLACK
6
CONTINUOUS
10
5.79166
20
-3.5917
11
5.79265
21
-3.59181
0
LINE
8
BLACK
6
CONTINUOUS
10
5.79265
20
-3.59181
11
5.81441
21
-3.59181
0
LINE
8
BLACK
6
CONTINUOUS
10
5.81441
20
-3.59181
11
5.81441
21
-3.59181
0
LINE
8
BLACK
6
CONTINUOUS
10
5.81441
20
-3.59181
11
5.81441
21
-3.58
0
LINE
8
BLACK
6
CONTINUOUS
10
5.81441
20
-3.58
11
5.79441
21
-3.58
0
LINE
8
BLACK
6
CONTINUOUS
10
5.79441
20
-3.58
11
5.79441
21
-3.56
0
LINE
8
BLACK
6
CONTINUOUS
10
5.79441
20
-3.56
11
5.7826
21
-3.56
0
LINE
8
BLACK
6
CONTINUOUS
10
5.85441
20
-3.58
11
5.83441
21
-3.58
0
LINE
8
BLACK
6
CONTINUOUS
10
5.83441
20
-3.58
11
5.83441
21
-3.59181
0
LINE
8
BLACK
6
CONTINUOUS
10
5.83441
20
-3.59181
11
5.83441
21
-3.59181
0
LINE
8
BLACK
6
CONTINUOUS
10
5.83441
20
-3.59181
11
5.85617
21
-3.59181
0
LINE
8
BLACK
6
CONTINUOUS
10
5.85617
20
-3.59181
11
5.85617
21
-3.59181
0
LINE
8
BLACK
6
CONTINUOUS
10
5.85617
20
-3.59181
11
5.85716
21
-3.5917
0
LINE
8
BLACK
6
CONTINUOUS
10
5.85716
20
-3.5917
11
5.8612
21
-3.58991
0
LINE
8
BLACK
6
CONTINUOUS
10
5.8612
20
-3.58991
11
5.86432
21
-3.58679
0
LINE
8
BLACK
6
CONTINUOUS
10
5.86432
20
-3.58679
11
5.86611
21
-3.58275
0
LINE
8
BLACK
6
CONTINUOUS
10
5.86611
20
-3.58275
11
5.86622
21
-3.58176
0
LINE
8
BLACK
6
CONTINUOUS
10
5.86622
20
-3.58176
11
5.86622
21
-3.58176
0
LINE
8
BLACK
6
CONTINUOUS
10
5.86622
20
-3.58176
11
5.86622
21
-3.56
0
LINE
8
BLACK
6
CONTINUOUS
10
5.86622
20
-3.56
11
5.85441
21
-3.56
0
LINE
8
BLACK
6
CONTINUOUS
10
5.85441
20
-3.56
11
5.85441
21
-3.58
0
LINE
8
BLACK
6
CONTINUOUS
10
5.68258
20
-3.58177
11
5.68269
21
-3.58276
0
LINE
8
BLACK
6
CONTINUOUS
10
5.68269
20
-3.58276
11
5.68319
21
-3.58388
0
LINE
8
BLACK
6
CONTINUOUS
10
5.68319
20
-3.58388
11
5.68448
21
-3.5868
0
LINE
8
BLACK
6
CONTINUOUS
10
5.68448
20
-3.5868
11
5.68761
21
-3.58993
0
LINE
8
BLACK
6
CONTINUOUS
10
5.68761
20
-3.58993
11
5.69165
21
-3.59172
0
LINE
8
BLACK
6
CONTINUOUS
10
5.69165
20
-3.59172
11
5.69264
21
-3.59183
0
LINE
8
BLACK
6
CONTINUOUS
10
5.69264
20
-3.59183
11
5.75618
21
-3.59183
0
LINE
8
BLACK
6
CONTINUOUS
10
5.75618
20
-3.59183
11
5.75716
21
-3.59172
0
LINE
8
BLACK
6
CONTINUOUS
10
5.75716
20
-3.59172
11
5.76121
21
-3.58993
0
LINE
8
BLACK
6
CONTINUOUS
10
5.76121
20
-3.58993
11
5.76434
21
-3.5868
0
LINE
8
BLACK
6
CONTINUOUS
10
5.76434
20
-3.5868
11
5.76613
21
-3.58276
0
LINE
8
BLACK
6
CONTINUOUS
10
5.76613
20
-3.58276
11
5.76624
21
-3.58177
0
LINE
8
BLACK
6
CONTINUOUS
10
5.76624
20
-3.58177
11
5.76624
21
-3.54
0
LINE
8
BLACK
6
CONTINUOUS
10
5.76624
20
-3.54
11
5.76624
21
-3.51823
0
LINE
8
BLACK
6
CONTINUOUS
10
5.76624
20
-3.51823
11
5.76613
21
-3.51724
0
LINE
8
BLACK
6
CONTINUOUS
10
5.76613
20
-3.51724
11
5.76434
21
-3.5132
0
LINE
8
BLACK
6
CONTINUOUS
10
5.76434
20
-3.5132
11
5.76121
21
-3.51007
0
LINE
8
BLACK
6
CONTINUOUS
10
5.76121
20
-3.51007
11
5.75716
21
-3.50828
0
LINE
8
BLACK
6
CONTINUOUS
10
5.75716
20
-3.50828
11
5.75716
21
-3.50828
0
LINE
8
BLACK
6
CONTINUOUS
10
5.75716
20
-3.50828
11
5.75716
21
-3.50828
0
LINE
8
BLACK
6
CONTINUOUS
10
5.75716
20
-3.50828
11
5.75618
21
-3.50817
0
LINE
8
BLACK
6
CONTINUOUS
10
5.75618
20
-3.50817
11
5.69264
21
-3.50817
0
LINE
8
BLACK
6
CONTINUOUS
10
5.69264
20
-3.50817
11
5.69264
21
-3.50817
0
LINE
8
BLACK
6
CONTINUOUS
10
5.69264
20
-3.50817
11
5.69165
21
-3.50828
0
LINE
8
BLACK
6
CONTINUOUS
10
5.69165
20
-3.50828
11
5.68761
21
-3.51007
0
LINE
8
BLACK
6
CONTINUOUS
10
5.68761
20
-3.51007
11
5.68448
21
-3.5132
0
LINE
8
BLACK
6
CONTINUOUS
10
5.68448
20
-3.5132
11
5.68269
21
-3.51724
0
LINE
8
BLACK
6
CONTINUOUS
10
5.68269
20
-3.51724
11
5.68258
21
-3.51823
0
LINE
8
BLACK
6
CONTINUOUS
10
5.68258
20
-3.51823
11
5.68258
21
-3.58177
0
LINE
8
BLACK
6
CONTINUOUS
10
5.68258
20
-3.58177
11
5.68258
21
-3.58177
0
LINE
8
BLACK
6
CONTINUOUS
10
5.83441
20
-3.50819
11
5.83441
21
-3.52
0
LINE
8
BLACK
6
CONTINUOUS
10
5.83441
20
-3.52
11
5.85441
21
-3.52
0
LINE
8
BLACK
6
CONTINUOUS
10
5.85441
20
-3.52
11
5.85441
21
-3.54
0
LINE
8
BLACK
6
CONTINUOUS
10
5.85441
20
-3.54
11
5.86622
21
-3.54
0
LINE
8
BLACK
6
CONTINUOUS
10
5.86622
20
-3.54
11
5.86622
21
-3.54
0
LINE
8
BLACK
6
CONTINUOUS
10
5.86622
20
-3.54
11
5.86622
21
-3.51824
0
LINE
8
BLACK
6
CONTINUOUS
10
5.86622
20
-3.51824
11
5.86622
21
-3.51824
0
LINE
8
BLACK
6
CONTINUOUS
10
5.86622
20
-3.51824
11
5.86611
21
-3.51725
0
LINE
8
BLACK
6
CONTINUOUS
10
5.86611
20
-3.51725
11
5.86432
21
-3.51321
0
LINE
8
BLACK
6
CONTINUOUS
10
5.86432
20
-3.51321
11
5.8612
21
-3.51009
0
LINE
8
BLACK
6
CONTINUOUS
10
5.8612
20
-3.51009
11
5.85716
21
-3.5083
0
LINE
8
BLACK
6
CONTINUOUS
10
5.85716
20
-3.5083
11
5.85617
21
-3.50819
0
LINE
8
BLACK
6
CONTINUOUS
10
5.85617
20
-3.50819
11
5.83441
21
-3.50819
0
LINE
8
BLACK
6
CONTINUOUS
10
5.83441
20
-3.50819
11
5.83441
21
-3.50819
0
LINE
8
BLACK
6
CONTINUOUS
10
5.7826
20
-3.46
11
5.7826
21
-3.46
0
LINE
8
BLACK
6
CONTINUOUS
10
5.7826
20
-3.46
11
5.7826
21
-3.48176
0
LINE
8
BLACK
6
CONTINUOUS
10
5.7826
20
-3.48176
11
5.78271
21
-3.48275
0
LINE
8
BLACK
6
CONTINUOUS
10
5.78271
20
-3.48275
11
5.7845
21
-3.48679
0
LINE
8
BLACK
6
CONTINUOUS
10
5.7845
20
-3.48679
11
5.78762
21
-3.48991
0
LINE
8
BLACK
6
CONTINUOUS
10
5.78762
20
-3.48991
11
5.79166
21
-3.4917
0
LINE
8
BLACK
6
CONTINUOUS
10
5.79166
20
-3.4917
11
5.79265
21
-3.49181
0
LINE
8
BLACK
6
CONTINUOUS
10
5.79265
20
-3.49181
11
5.81441
21
-3.49181
0
LINE
8
BLACK
6
CONTINUOUS
10
5.81441
20
-3.49181
11
5.81441
21
-3.49181
0
LINE
8
BLACK
6
CONTINUOUS
10
5.81441
20
-3.49181
11
5.81441
21
-3.48
0
LINE
8
BLACK
6
CONTINUOUS
10
5.81441
20
-3.48
11
5.79441
21
-3.48
0
LINE
8
BLACK
6
CONTINUOUS
10
5.79441
20
-3.48
11
5.79441
21
-3.46
0
LINE
8
BLACK
6
CONTINUOUS
10
5.79441
20
-3.46
11
5.7826
21
-3.46
0
LINE
8
BLACK
6
CONTINUOUS
10
5.85441
20
-3.48
11
5.83441
21
-3.48
0
LINE
8
BLACK
6
CONTINUOUS
10
5.83441
20
-3.48
11
5.83441
21
-3.49181
0
LINE
8
BLACK
6
CONTINUOUS
10
5.83441
20
-3.49181
11
5.83441
21
-3.49181
0
LINE
8
BLACK
6
CONTINUOUS
10
5.83441
20
-3.49181
11
5.85617
21
-3.49181
0
LINE
8
BLACK
6
CONTINUOUS
10
5.85617
20
-3.49181
11
5.85617
21
-3.49181
0
LINE
8
BLACK
6
CONTINUOUS
10
5.85617
20
-3.49181
11
5.85716
21
-3.4917
0
LINE
8
BLACK
6
CONTINUOUS
10
5.85716
20
-3.4917
11
5.8612
21
-3.48991
0
LINE
8
BLACK
6
CONTINUOUS
10
5.8612
20
-3.48991
11
5.86432
21
-3.48679
0
LINE
8
BLACK
6
CONTINUOUS
10
5.86432
20
-3.48679
11
5.86611
21
-3.48275
0
LINE
8
BLACK
6
CONTINUOUS
10
5.86611
20
-3.48275
11
5.86622
21
-3.48176
0
LINE
8
BLACK
6
CONTINUOUS
10
5.86622
20
-3.48176
11
5.86622
21
-3.48176
0
LINE
8
BLACK
6
CONTINUOUS
10
5.86622
20
-3.48176
11
5.86622
21
-3.46
0
LINE
8
BLACK
6
CONTINUOUS
10
5.86622
20
-3.46
11
5.85441
21
-3.46
0
LINE
8
BLACK
6
CONTINUOUS
10
5.85441
20
-3.46
11
5.85441
21
-3.48
0
LINE
8
BLACK
6
CONTINUOUS
10
5.83441
20
-3.40819
11
5.83441
21
-3.42
0
LINE
8
BLACK
6
CONTINUOUS
10
5.83441
20
-3.42
11
5.85441
21
-3.42
0
LINE
8
BLACK
6
CONTINUOUS
10
5.85441
20
-3.42
11
5.85441
21
-3.44
0
LINE
8
BLACK
6
CONTINUOUS
10
5.85441
20
-3.44
11
5.86622
21
-3.44
0
LINE
8
BLACK
6
CONTINUOUS
10
5.86622
20
-3.44
11
5.86622
21
-3.44
0
LINE
8
BLACK
6
CONTINUOUS
10
5.86622
20
-3.44
11
5.86622
21
-3.41824
0
LINE
8
BLACK
6
CONTINUOUS
10
5.86622
20
-3.41824
11
5.86622
21
-3.41824
0
LINE
8
BLACK
6
CONTINUOUS
10
5.86622
20
-3.41824
11
5.86611
21
-3.41725
0
LINE
8
BLACK
6
CONTINUOUS
10
5.86611
20
-3.41725
11
5.86432
21
-3.41321
0
LINE
8
BLACK
6
CONTINUOUS
10
5.86432
20
-3.41321
11
5.8612
21
-3.41009
0
LINE
8
BLACK
6
CONTINUOUS
10
5.8612
20
-3.41009
11
5.85716
21
-3.4083
0
LINE
8
BLACK
6
CONTINUOUS
10
5.85716
20
-3.4083
11
5.85617
21
-3.40819
0
LINE
8
BLACK
6
CONTINUOUS
10
5.85617
20
-3.40819
11
5.83441
21
-3.40819
0
LINE
8
BLACK
6
CONTINUOUS
10
5.83441
20
-3.40819
11
5.83441
21
-3.40819
0
LINE
8
BLACK
6
CONTINUOUS
10
5.7826
20
-3.54
11
5.79441
21
-3.54
0
LINE
8
BLACK
6
CONTINUOUS
10
5.79441
20
-3.54
11
5.79441
21
-3.52
0
LINE
8
BLACK
6
CONTINUOUS
10
5.79441
20
-3.52
11
5.81441
21
-3.52
0
LINE
8
BLACK
6
CONTINUOUS
10
5.81441
20
-3.52
11
5.81441
21
-3.50819
0
LINE
8
BLACK
6
CONTINUOUS
10
5.81441
20
-3.50819
11
5.81441
21
-3.50819
0
LINE
8
BLACK
6
CONTINUOUS
10
5.81441
20
-3.50819
11
5.79265
21
-3.50819
0
LINE
8
BLACK
6
CONTINUOUS
10
5.79265
20
-3.50819
11
5.79265
21
-3.50819
0
LINE
8
BLACK
6
CONTINUOUS
10
5.79265
20
-3.50819
11
5.79166
21
-3.5083
0
LINE
8
BLACK
6
CONTINUOUS
10
5.79166
20
-3.5083
11
5.78762
21
-3.51009
0
LINE
8
BLACK
6
CONTINUOUS
10
5.78762
20
-3.51009
11
5.7845
21
-3.51321
0
LINE
8
BLACK
6
CONTINUOUS
10
5.7845
20
-3.51321
11
5.78271
21
-3.51725
0
LINE
8
BLACK
6
CONTINUOUS
10
5.78271
20
-3.51725
11
5.7826
21
-3.51824
0
LINE
8
BLACK
6
CONTINUOUS
10
5.7826
20
-3.51824
11
5.7826
21
-3.54
0
LINE
8
BLACK
6
CONTINUOUS
10
5.7826
20
-3.54
11
5.7826
21
-3.54
0
LINE
8
BLACK
6
CONTINUOUS
10
5.7826
20
-3.44
11
5.79441
21
-3.44
0
LINE
8
BLACK
6
CONTINUOUS
10
5.79441
20
-3.44
11
5.79441
21
-3.42
0
LINE
8
BLACK
6
CONTINUOUS
10
5.79441
20
-3.42
11
5.81441
21
-3.42
0
LINE
8
BLACK
6
CONTINUOUS
10
5.81441
20
-3.42
11
5.81441
21
-3.40819
0
LINE
8
BLACK
6
CONTINUOUS
10
5.81441
20
-3.40819
11
5.81441
21
-3.40819
0
LINE
8
BLACK
6
CONTINUOUS
10
5.81441
20
-3.40819
11
5.79265
21
-3.40819
0
LINE
8
BLACK
6
CONTINUOUS
10
5.79265
20
-3.40819
11
5.79265
21
-3.40819
0
LINE
8
BLACK
6
CONTINUOUS
10
5.79265
20
-3.40819
11
5.79166
21
-3.4083
0
LINE
8
BLACK
6
CONTINUOUS
10
5.79166
20
-3.4083
11
5.78762
21
-3.41009
0
LINE
8
BLACK
6
CONTINUOUS
10
5.78762
20
-3.41009
11
5.7845
21
-3.41321
0
LINE
8
BLACK
6
CONTINUOUS
10
5.7845
20
-3.41321
11
5.78271
21
-3.41725
0
LINE
8
BLACK
6
CONTINUOUS
10
5.78271
20
-3.41725
11
5.7826
21
-3.41824
0
LINE
8
BLACK
6
CONTINUOUS
10
5.7826
20
-3.41824
11
5.7826
21
-3.44
0
LINE
8
BLACK
6
CONTINUOUS
10
5.7826
20
-3.44
11
5.7826
21
-3.44
0
LINE
8
BLACK
6
CONTINUOUS
10
5.55211
20
-3.43502
11
5.5565
21
-3.43726
0
LINE
8
BLACK
6
CONTINUOUS
10
5.5565
20
-3.43726
11
5.55998
21
-3.44074
0
LINE
8
BLACK
6
CONTINUOUS
10
5.55998
20
-3.44074
11
5.56222
21
-3.44513
0
LINE
8
BLACK
6
CONTINUOUS
10
5.56222
20
-3.44513
11
5.56299
21
-3.45
0
LINE
8
BLACK
6
CONTINUOUS
10
5.56299
20
-3.45
11
5.56222
21
-3.45487
0
LINE
8
BLACK
6
CONTINUOUS
10
5.56222
20
-3.45487
11
5.55998
21
-3.45926
0
LINE
8
BLACK
6
CONTINUOUS
10
5.55998
20
-3.45926
11
5.5565
21
-3.46274
0
LINE
8
BLACK
6
CONTINUOUS
10
5.5565
20
-3.46274
11
5.55211
21
-3.46498
0
LINE
8
BLACK
6
CONTINUOUS
10
5.55211
20
-3.46498
11
5.54724
21
-3.46575
0
LINE
8
BLACK
6
CONTINUOUS
10
5.54724
20
-3.46575
11
5.54238
21
-3.46498
0
LINE
8
BLACK
6
CONTINUOUS
10
5.54238
20
-3.46498
11
5.5413
21
-3.46443
0
LINE
8
BLACK
6
CONTINUOUS
10
5.5413
20
-3.46443
11
5.50649
21
-3.49924
0
LINE
8
BLACK
6
CONTINUOUS
10
5.50649
20
-3.49924
11
5.5058
21
-3.49964
0
LINE
8
BLACK
6
CONTINUOUS
10
5.5058
20
-3.49964
11
5.50524
21
-3.5002
0
LINE
8
BLACK
6
CONTINUOUS
10
5.50524
20
-3.5002
11
5.50448
21
-3.5004
0
LINE
8
BLACK
6
CONTINUOUS
10
5.50448
20
-3.5004
11
5.5038
21
-3.5008
0
LINE
8
BLACK
6
CONTINUOUS
10
5.5038
20
-3.5008
11
5.50301
21
-3.5008
0
LINE
8
BLACK
6
CONTINUOUS
10
5.50301
20
-3.5008
11
5.50224
21
-3.501
0
LINE
8
BLACK
6
CONTINUOUS
10
5.50224
20
-3.501
11
5.3578
21
-3.501
0
LINE
8
BLACK
6
CONTINUOUS
10
5.3578
20
-3.501
11
5.3578
21
-3.5078
0
LINE
8
BLACK
6
CONTINUOUS
10
5.3578
20
-3.5078
11
5.29283
21
-3.5078
0
LINE
8
BLACK
6
CONTINUOUS
10
5.29283
20
-3.5078
11
5.29283
21
-3.4822
0
LINE
8
BLACK
6
CONTINUOUS
10
5.29283
20
-3.4822
11
5.3578
21
-3.4822
0
LINE
8
BLACK
6
CONTINUOUS
10
5.3578
20
-3.4822
11
5.3578
21
-3.489
0
LINE
8
BLACK
6
CONTINUOUS
10
5.3578
20
-3.489
11
5.49976
21
-3.489
0
LINE
8
BLACK
6
CONTINUOUS
10
5.49976
20
-3.489
11
5.53282
21
-3.45594
0
LINE
8
BLACK
6
CONTINUOUS
10
5.53282
20
-3.45594
11
5.53227
21
-3.45487
0
LINE
8
BLACK
6
CONTINUOUS
10
5.53227
20
-3.45487
11
5.5315
21
-3.45
0
LINE
8
BLACK
6
CONTINUOUS
10
5.5315
20
-3.45
11
5.53227
21
-3.44513
0
LINE
8
BLACK
6
CONTINUOUS
10
5.53227
20
-3.44513
11
5.5345
21
-3.44074
0
LINE
8
BLACK
6
CONTINUOUS
10
5.5345
20
-3.44074
11
5.53799
21
-3.43726
0
LINE
8
BLACK
6
CONTINUOUS
10
5.53799
20
-3.43726
11
5.54238
21
-3.43502
0
LINE
8
BLACK
6
CONTINUOUS
10
5.54238
20
-3.43502
11
5.54724
21
-3.43425
0
LINE
8
BLACK
6
CONTINUOUS
10
5.54724
20
-3.43425
11
5.55211
21
-3.43502
0
LINE
8
BLACK
6
CONTINUOUS
10
5.75441
20
-3.48
11
5.69441
21
-3.48
0
LINE
8
BLACK
6
CONTINUOUS
10
5.69441
20
-3.48
11
5.69441
21
-3.42
0
LINE
8
BLACK
6
CONTINUOUS
10
5.69441
20
-3.42
11
5.75441
21
-3.42
0
LINE
8
BLACK
6
CONTINUOUS
10
5.75441
20
-3.42
11
5.75441
21
-3.48
0
LINE
8
BLACK
6
CONTINUOUS
10
5.56877
20
-3.33354
11
5.57018
21
-3.33548
0
LINE
8
BLACK
6
CONTINUOUS
10
5.57018
20
-3.33548
11
5.57037
21
-3.33669
0
LINE
8
BLACK
6
CONTINUOUS
10
5.57037
20
-3.33669
11
5.57037
21
-3.35956
0
LINE
8
BLACK
6
CONTINUOUS
10
5.57037
20
-3.35956
11
5.57037
21
-3.35956
0
LINE
8
BLACK
6
CONTINUOUS
10
5.57037
20
-3.35956
11
5.57049
21
-3.36055
0
LINE
8
BLACK
6
CONTINUOUS
10
5.57049
20
-3.36055
11
5.57177
21
-3.36345
0
LINE
8
BLACK
6
CONTINUOUS
10
5.57177
20
-3.36345
11
5.57228
21
-3.3646
0
LINE
8
BLACK
6
CONTINUOUS
10
5.57228
20
-3.3646
11
5.57492
21
-3.36724
0
LINE
8
BLACK
6
CONTINUOUS
10
5.57492
20
-3.36724
11
5.57602
21
-3.36939
0
LINE
8
BLACK
6
CONTINUOUS
10
5.57602
20
-3.36939
11
5.57564
21
-3.37177
0
LINE
8
BLACK
6
CONTINUOUS
10
5.57564
20
-3.37177
11
5.57492
21
-3.37276
0
LINE
8
BLACK
6
CONTINUOUS
10
5.57492
20
-3.37276
11
5.57228
21
-3.3754
0
LINE
8
BLACK
6
CONTINUOUS
10
5.57228
20
-3.3754
11
5.57228
21
-3.3754
0
LINE
8
BLACK
6
CONTINUOUS
10
5.57228
20
-3.3754
11
5.57228
21
-3.3754
0
LINE
8
BLACK
6
CONTINUOUS
10
5.57228
20
-3.3754
11
5.57165
21
-3.37682
0
LINE
8
BLACK
6
CONTINUOUS
10
5.57165
20
-3.37682
11
5.57049
21
-3.37945
0
LINE
8
BLACK
6
CONTINUOUS
10
5.57049
20
-3.37945
11
5.57037
21
-3.38044
0
LINE
8
BLACK
6
CONTINUOUS
10
5.57037
20
-3.38044
11
5.57037
21
-3.40956
0
LINE
8
BLACK
6
CONTINUOUS
10
5.57037
20
-3.40956
11
5.57037
21
-3.40956
0
LINE
8
BLACK
6
CONTINUOUS
10
5.57037
20
-3.40956
11
5.57049
21
-3.41055
0
LINE
8
BLACK
6
CONTINUOUS
10
5.57049
20
-3.41055
11
5.57117
21
-3.41208
0
LINE
8
BLACK
6
CONTINUOUS
10
5.57117
20
-3.41208
11
5.57228
21
-3.4146
0
LINE
8
BLACK
6
CONTINUOUS
10
5.57228
20
-3.4146
11
5.57492
21
-3.41724
0
LINE
8
BLACK
6
CONTINUOUS
10
5.57492
20
-3.41724
11
5.57602
21
-3.41939
0
LINE
8
BLACK
6
CONTINUOUS
10
5.57602
20
-3.41939
11
5.57564
21
-3.42177
0
LINE
8
BLACK
6
CONTINUOUS
10
5.57564
20
-3.42177
11
5.57492
21
-3.42276
0
LINE
8
BLACK
6
CONTINUOUS
10
5.57492
20
-3.42276
11
5.57319
21
-3.42448
0
LINE
8
BLACK
6
CONTINUOUS
10
5.57319
20
-3.42448
11
5.57228
21
-3.4254
0
LINE
8
BLACK
6
CONTINUOUS
10
5.57228
20
-3.4254
11
5.57128
21
-3.42766
0
LINE
8
BLACK
6
CONTINUOUS
10
5.57128
20
-3.42766
11
5.56967
21
-3.42945
0
LINE
8
BLACK
6
CONTINUOUS
10
5.56967
20
-3.42945
11
5.56732
21
-3.42996
0
LINE
8
BLACK
6
CONTINUOUS
10
5.56732
20
-3.42996
11
5.56513
21
-3.429
0
LINE
8
BLACK
6
CONTINUOUS
10
5.56513
20
-3.429
11
5.56303
21
-3.42714
0
LINE
8
BLACK
6
CONTINUOUS
10
5.56303
20
-3.42714
11
5.56303
21
-3.42714
0
LINE
8
BLACK
6
CONTINUOUS
10
5.56303
20
-3.42714
11
5.5571
21
-3.42402
0
LINE
8
BLACK
6
CONTINUOUS
10
5.5571
20
-3.42402
11
5.5571
21
-3.42402
0
LINE
8
BLACK
6
CONTINUOUS
10
5.5571
20
-3.42402
11
5.5571
21
-3.42402
0
LINE
8
BLACK
6
CONTINUOUS
10
5.5571
20
-3.42402
11
5.55059
21
-3.42242
0
LINE
8
BLACK
6
CONTINUOUS
10
5.55059
20
-3.42242
11
5.55059
21
-3.42242
0
LINE
8
BLACK
6
CONTINUOUS
10
5.55059
20
-3.42242
11
5.5439
21
-3.42242
0
LINE
8
BLACK
6
CONTINUOUS
10
5.5439
20
-3.42242
11
5.5439
21
-3.42242
0
LINE
8
BLACK
6
CONTINUOUS
10
5.5439
20
-3.42242
11
5.53739
21
-3.42402
0
LINE
8
BLACK
6
CONTINUOUS
10
5.53739
20
-3.42402
11
5.53146
21
-3.42714
0
LINE
8
BLACK
6
CONTINUOUS
10
5.53146
20
-3.42714
11
5.52645
21
-3.43158
0
LINE
8
BLACK
6
CONTINUOUS
10
5.52645
20
-3.43158
11
5.52645
21
-3.43158
0
LINE
8
BLACK
6
CONTINUOUS
10
5.52645
20
-3.43158
11
5.52532
21
-3.43321
0
LINE
8
BLACK
6
CONTINUOUS
10
5.52532
20
-3.43321
11
5.52264
21
-3.43709
0
LINE
8
BLACK
6
CONTINUOUS
10
5.52264
20
-3.43709
11
5.52052
21
-3.44269
0
LINE
8
BLACK
6
CONTINUOUS
10
5.52052
20
-3.44269
11
5.52027
21
-3.44335
0
LINE
8
BLACK
6
CONTINUOUS
10
5.52027
20
-3.44335
11
5.51946
21
-3.45
0
LINE
8
BLACK
6
CONTINUOUS
10
5.51946
20
-3.45
11
5.51946
21
-3.45
0
LINE
8
BLACK
6
CONTINUOUS
10
5.51946
20
-3.45
11
5.51951
21
-3.4504
0
LINE
8
BLACK
6
CONTINUOUS
10
5.51951
20
-3.4504
11
5.51905
21
-3.45277
0
LINE
8
BLACK
6
CONTINUOUS
10
5.51905
20
-3.45277
11
5.5184
21
-3.45363
0
LINE
8
BLACK
6
CONTINUOUS
10
5.5184
20
-3.45363
11
5.496
21
-3.47603
0
LINE
8
BLACK
6
CONTINUOUS
10
5.496
20
-3.47603
11
5.49385
21
-3.47712
0
LINE
8
BLACK
6
CONTINUOUS
10
5.49385
20
-3.47712
11
5.49324
21
-3.47717
0
LINE
8
BLACK
6
CONTINUOUS
10
5.49324
20
-3.47717
11
5.37099
21
-3.47717
0
LINE
8
BLACK
6
CONTINUOUS
10
5.37099
20
-3.47717
11
5.3687
21
-3.47642
0
LINE
8
BLACK
6
CONTINUOUS
10
5.3687
20
-3.47642
11
5.36777
21
-3.47547
0
LINE
8
BLACK
6
CONTINUOUS
10
5.36777
20
-3.47547
11
5.36772
21
-3.4754
0
LINE
8
BLACK
6
CONTINUOUS
10
5.36772
20
-3.4754
11
5.36772
21
-3.4754
0
LINE
8
BLACK
6
CONTINUOUS
10
5.36772
20
-3.4754
11
5.36772
21
-3.4754
0
LINE
8
BLACK
6
CONTINUOUS
10
5.36772
20
-3.4754
11
5.36508
21
-3.47276
0
LINE
8
BLACK
6
CONTINUOUS
10
5.36508
20
-3.47276
11
5.36398
21
-3.47061
0
LINE
8
BLACK
6
CONTINUOUS
10
5.36398
20
-3.47061
11
5.36436
21
-3.46823
0
LINE
8
BLACK
6
CONTINUOUS
10
5.36436
20
-3.46823
11
5.36508
21
-3.46724
0
LINE
8
BLACK
6
CONTINUOUS
10
5.36508
20
-3.46724
11
5.36772
21
-3.4646
0
LINE
8
BLACK
6
CONTINUOUS
10
5.36772
20
-3.4646
11
5.36772
21
-3.4646
0
LINE
8
BLACK
6
CONTINUOUS
10
5.36772
20
-3.4646
11
5.36777
21
-3.46453
0
LINE
8
BLACK
6
CONTINUOUS
10
5.36777
20
-3.46453
11
5.36787
21
-3.46445
0
LINE
8
BLACK
6
CONTINUOUS
10
5.36787
20
-3.46445
11
5.36798
21
-3.46434
0
LINE
8
BLACK
6
CONTINUOUS
10
5.36798
20
-3.46434
11
5.36799
21
-3.46436
0
LINE
8
BLACK
6
CONTINUOUS
10
5.36799
20
-3.46436
11
5.36968
21
-3.46306
0
LINE
8
BLACK
6
CONTINUOUS
10
5.36968
20
-3.46306
11
5.37099
21
-3.46283
0
LINE
8
BLACK
6
CONTINUOUS
10
5.37099
20
-3.46283
11
5.42389
21
-3.46283
0
LINE
8
BLACK
6
CONTINUOUS
10
5.42389
20
-3.46283
11
5.42411
21
-3.46284
0
LINE
8
BLACK
6
CONTINUOUS
10
5.42411
20
-3.46284
11
5.42567
21
-3.46302
0
LINE
8
BLACK
6
CONTINUOUS
10
5.42567
20
-3.46302
11
5.42799
21
-3.46258
0
LINE
8
BLACK
6
CONTINUOUS
10
5.42799
20
-3.46258
11
5.43032
21
-3.46223
0
LINE
8
BLACK
6
CONTINUOUS
10
5.43032
20
-3.46223
11
5.43032
21
-3.46223
0
LINE
8
BLACK
6
CONTINUOUS
10
5.43032
20
-3.46223
11
5.43059
21
-3.46214
0
LINE
8
BLACK
6
CONTINUOUS
10
5.43059
20
-3.46214
11
5.4306
21
-3.46216
0
LINE
8
BLACK
6
CONTINUOUS
10
5.4306
20
-3.46216
11
5.43069
21
-3.46213
0
LINE
8
BLACK
6
CONTINUOUS
10
5.43069
20
-3.46213
11
5.43068
21
-3.46212
0
LINE
8
BLACK
6
CONTINUOUS
10
5.43068
20
-3.46212
11
5.43096
21
-3.46202
0
LINE
8
BLACK
6
CONTINUOUS
10
5.43096
20
-3.46202
11
5.43096
21
-3.46202
0
LINE
8
BLACK
6
CONTINUOUS
10
5.43096
20
-3.46202
11
5.432
21
-3.46147
0
LINE
8
BLACK
6
CONTINUOUS
10
5.432
20
-3.46147
11
5.43304
21
-3.46092
0
LINE
8
BLACK
6
CONTINUOUS
10
5.43304
20
-3.46092
11
5.43516
21
-3.4599
0
LINE
8
BLACK
6
CONTINUOUS
10
5.43516
20
-3.4599
11
5.43516
21
-3.4599
0
LINE
8
BLACK
6
CONTINUOUS
10
5.43516
20
-3.4599
11
5.43516
21
-3.4599
0
LINE
8
BLACK
6
CONTINUOUS
10
5.43516
20
-3.4599
11
5.43516
21
-3.4599
0
LINE
8
BLACK
6
CONTINUOUS
10
5.43516
20
-3.4599
11
5.4354
21
-3.45973
0
LINE
8
BLACK
6
CONTINUOUS
10
5.4354
20
-3.45973
11
5.43541
21
-3.45975
0
LINE
8
BLACK
6
CONTINUOUS
10
5.43541
20
-3.45975
11
5.43548
21
-3.4597
0
LINE
8
BLACK
6
CONTINUOUS
10
5.43548
20
-3.4597
11
5.43547
21
-3.45968
0
LINE
8
BLACK
6
CONTINUOUS
10
5.43547
20
-3.45968
11
5.43571
21
-3.45951
0
LINE
8
BLACK
6
CONTINUOUS
10
5.43571
20
-3.45951
11
5.43571
21
-3.45951
0
LINE
8
BLACK
6
CONTINUOUS
10
5.43571
20
-3.45951
11
5.43571
21
-3.45951
0
LINE
8
BLACK
6
CONTINUOUS
10
5.43571
20
-3.45951
11
5.43654
21
-3.45868
0
LINE
8
BLACK
6
CONTINUOUS
10
5.43654
20
-3.45868
11
5.43737
21
-3.45784
0
LINE
8
BLACK
6
CONTINUOUS
10
5.43737
20
-3.45784
11
5.43799
21
-3.45727
0
LINE
8
BLACK
6
CONTINUOUS
10
5.43799
20
-3.45727
11
5.4391
21
-3.45624
0
LINE
8
BLACK
6
CONTINUOUS
10
5.4391
20
-3.45624
11
5.4391
21
-3.45624
0
LINE
8
BLACK
6
CONTINUOUS
10
5.4391
20
-3.45624
11
5.43928
21
-3.45601
0
LINE
8
BLACK
6
CONTINUOUS
10
5.43928
20
-3.45601
11
5.43929
21
-3.45603
0
LINE
8
BLACK
6
CONTINUOUS
10
5.43929
20
-3.45603
11
5.43963
21
-3.45559
0
LINE
8
BLACK
6
CONTINUOUS
10
5.43963
20
-3.45559
11
5.56128
21
-3.33393
0
LINE
8
BLACK
6
CONTINUOUS
10
5.56128
20
-3.33393
11
5.56343
21
-3.33284
0
LINE
8
BLACK
6
CONTINUOUS
10
5.56343
20
-3.33284
11
5.56404
21
-3.33279
0
LINE
8
BLACK
6
CONTINUOUS
10
5.56404
20
-3.33279
11
5.56648
21
-3.33279
0
LINE
8
BLACK
6
CONTINUOUS
10
5.56648
20
-3.33279
11
5.56877
21
-3.33354
0
LINE
8
BLACK
6
CONTINUOUS
10
5.75441
20
-3.28
11
5.69441
21
-3.28
0
LINE
8
BLACK
6
CONTINUOUS
10
5.69441
20
-3.28
11
5.69441
21
-3.256
0
LINE
8
BLACK
6
CONTINUOUS
10
5.69441
20
-3.256
11
5.68162
21
-3.256
0
LINE
8
BLACK
6
CONTINUOUS
10
5.68162
20
-3.256
11
5.61842
21
-3.3192
0
LINE
8
BLACK
6
CONTINUOUS
10
5.61842
20
-3.3192
11
5.61773
21
-3.3196
0
LINE
8
BLACK
6
CONTINUOUS
10
5.61773
20
-3.3196
11
5.61717
21
-3.32016
0
LINE
8
BLACK
6
CONTINUOUS
10
5.61717
20
-3.32016
11
5.61641
21
-3.32036
0
LINE
8
BLACK
6
CONTINUOUS
10
5.61641
20
-3.32036
11
5.61573
21
-3.32076
0
LINE
8
BLACK
6
CONTINUOUS
10
5.61573
20
-3.32076
11
5.61494
21
-3.32076
0
LINE
8
BLACK
6
CONTINUOUS
10
5.61494
20
-3.32076
11
5.61417
21
-3.32096
0
LINE
8
BLACK
6
CONTINUOUS
10
5.61417
20
-3.32096
11
5.55752
21
-3.32096
0
LINE
8
BLACK
6
CONTINUOUS
10
5.55752
20
-3.32096
11
5.42924
21
-3.44924
0
LINE
8
BLACK
6
CONTINUOUS
10
5.42924
20
-3.44924
11
5.42856
21
-3.44964
0
LINE
8
BLACK
6
CONTINUOUS
10
5.42856
20
-3.44964
11
5.428
21
-3.4502
0
LINE
8
BLACK
6
CONTINUOUS
10
5.428
20
-3.4502
11
5.42724
21
-3.4504
0
LINE
8
BLACK
6
CONTINUOUS
10
5.42724
20
-3.4504
11
5.42655
21
-3.4508
0
LINE
8
BLACK
6
CONTINUOUS
10
5.42655
20
-3.4508
11
5.42576
21
-3.4508
0
LINE
8
BLACK
6
CONTINUOUS
10
5.42576
20
-3.4508
11
5.425
21
-3.451
0
LINE
8
BLACK
6
CONTINUOUS
10
5.425
20
-3.451
11
5.3578
21
-3.451
0
LINE
8
BLACK
6
CONTINUOUS
10
5.3578
20
-3.451
11
5.3578
21
-3.4578
0
LINE
8
BLACK
6
CONTINUOUS
10
5.3578
20
-3.4578
11
5.29283
21
-3.4578
0
LINE
8
BLACK
6
CONTINUOUS
10
5.29283
20
-3.4578
11
5.29283
21
-3.4322
0
LINE
8
BLACK
6
CONTINUOUS
10
5.29283
20
-3.4322
11
5.3578
21
-3.4322
0
LINE
8
BLACK
6
CONTINUOUS
10
5.3578
20
-3.4322
11
5.3578
21
-3.439
0
LINE
8
BLACK
6
CONTINUOUS
10
5.3578
20
-3.439
11
5.42251
21
-3.439
0
LINE
8
BLACK
6
CONTINUOUS
10
5.42251
20
-3.439
11
5.5508
21
-3.31072
0
LINE
8
BLACK
6
CONTINUOUS
10
5.5508
20
-3.31072
11
5.55148
21
-3.31032
0
LINE
8
BLACK
6
CONTINUOUS
10
5.55148
20
-3.31032
11
5.55204
21
-3.30976
0
LINE
8
BLACK
6
CONTINUOUS
10
5.55204
20
-3.30976
11
5.5528
21
-3.30956
0
LINE
8
BLACK
6
CONTINUOUS
10
5.5528
20
-3.30956
11
5.55349
21
-3.30917
0
LINE
8
BLACK
6
CONTINUOUS
10
5.55349
20
-3.30917
11
5.55428
21
-3.30917
0
LINE
8
BLACK
6
CONTINUOUS
10
5.55428
20
-3.30917
11
5.55504
21
-3.30896
0
LINE
8
BLACK
6
CONTINUOUS
10
5.55504
20
-3.30896
11
5.61169
21
-3.30896
0
LINE
8
BLACK
6
CONTINUOUS
10
5.61169
20
-3.30896
11
5.67489
21
-3.24576
0
LINE
8
BLACK
6
CONTINUOUS
10
5.67489
20
-3.24576
11
5.67558
21
-3.24536
0
LINE
8
BLACK
6
CONTINUOUS
10
5.67558
20
-3.24536
11
5.67613
21
-3.2448
0
LINE
8
BLACK
6
CONTINUOUS
10
5.67613
20
-3.2448
11
5.6769
21
-3.2446
0
LINE
8
BLACK
6
CONTINUOUS
10
5.6769
20
-3.2446
11
5.67758
21
-3.2442
0
LINE
8
BLACK
6
CONTINUOUS
10
5.67758
20
-3.2442
11
5.67837
21
-3.2442
0
LINE
8
BLACK
6
CONTINUOUS
10
5.67837
20
-3.2442
11
5.67913
21
-3.244
0
LINE
8
BLACK
6
CONTINUOUS
10
5.67913
20
-3.244
11
5.69441
21
-3.244
0
LINE
8
BLACK
6
CONTINUOUS
10
5.69441
20
-3.244
11
5.69441
21
-3.22
0
LINE
8
BLACK
6
CONTINUOUS
10
5.69441
20
-3.22
11
5.75441
21
-3.22
0
LINE
8
BLACK
6
CONTINUOUS
10
5.75441
20
-3.22
11
5.75441
21
-3.28
0
LINE
8
BLACK
6
CONTINUOUS
10
5.64717
20
-3.4578
11
5.5822
21
-3.4578
0
LINE
8
BLACK
6
CONTINUOUS
10
5.5822
20
-3.4578
11
5.5822
21
-3.4322
0
LINE
8
BLACK
6
CONTINUOUS
10
5.5822
20
-3.4322
11
5.64717
21
-3.4322
0
LINE
8
BLACK
6
CONTINUOUS
10
5.64717
20
-3.4322
11
5.64717
21
-3.4578
0
LINE
8
BLACK
6
CONTINUOUS
10
5.43006
20
-3.36298
11
5.43445
21
-3.36521
0
LINE
8
BLACK
6
CONTINUOUS
10
5.43445
20
-3.36521
11
5.43794
21
-3.3687
0
LINE
8
BLACK
6
CONTINUOUS
10
5.43794
20
-3.3687
11
5.44017
21
-3.37309
0
LINE
8
BLACK
6
CONTINUOUS
10
5.44017
20
-3.37309
11
5.44094
21
-3.37795
0
LINE
8
BLACK
6
CONTINUOUS
10
5.44094
20
-3.37795
11
5.44017
21
-3.38282
0
LINE
8
BLACK
6
CONTINUOUS
10
5.44017
20
-3.38282
11
5.43794
21
-3.38721
0
LINE
8
BLACK
6
CONTINUOUS
10
5.43794
20
-3.38721
11
5.43445
21
-3.39069
0
LINE
8
BLACK
6
CONTINUOUS
10
5.43445
20
-3.39069
11
5.43006
21
-3.39293
0
LINE
8
BLACK
6
CONTINUOUS
10
5.43006
20
-3.39293
11
5.4252
21
-3.3937
0
LINE
8
BLACK
6
CONTINUOUS
10
5.4252
20
-3.3937
11
5.42033
21
-3.39293
0
LINE
8
BLACK
6
CONTINUOUS
10
5.42033
20
-3.39293
11
5.41925
21
-3.39238
0
LINE
8
BLACK
6
CONTINUOUS
10
5.41925
20
-3.39238
11
5.40739
21
-3.40424
0
LINE
8
BLACK
6
CONTINUOUS
10
5.40739
20
-3.40424
11
5.40671
21
-3.40464
0
LINE
8
BLACK
6
CONTINUOUS
10
5.40671
20
-3.40464
11
5.40615
21
-3.4052
0
LINE
8
BLACK
6
CONTINUOUS
10
5.40615
20
-3.4052
11
5.40539
21
-3.4054
0
LINE
8
BLACK
6
CONTINUOUS
10
5.40539
20
-3.4054
11
5.4047
21
-3.4058
0
LINE
8
BLACK
6
CONTINUOUS
10
5.4047
20
-3.4058
11
5.40391
21
-3.4058
0
LINE
8
BLACK
6
CONTINUOUS
10
5.40391
20
-3.4058
11
5.40315
21
-3.406
0
LINE
8
BLACK
6
CONTINUOUS
10
5.40315
20
-3.406
11
5.3578
21
-3.406
0
LINE
8
BLACK
6
CONTINUOUS
10
5.3578
20
-3.406
11
5.3578
21
-3.4078
0
LINE
8
BLACK
6
CONTINUOUS
10
5.3578
20
-3.4078
11
5.29283
21
-3.4078
0
LINE
8
BLACK
6
CONTINUOUS
10
5.29283
20
-3.4078
11
5.29283
21
-3.3822
0
LINE
8
BLACK
6
CONTINUOUS
10
5.29283
20
-3.3822
11
5.3578
21
-3.3822
0
LINE
8
BLACK
6
CONTINUOUS
10
5.3578
20
-3.3822
11
5.3578
21
-3.394
0
LINE
8
BLACK
6
CONTINUOUS
10
5.3578
20
-3.394
11
5.40066
21
-3.394
0
LINE
8
BLACK
6
CONTINUOUS
10
5.40066
20
-3.394
11
5.41077
21
-3.3839
0
LINE
8
BLACK
6
CONTINUOUS
10
5.41077
20
-3.3839
11
5.41022
21
-3.38282
0
LINE
8
BLACK
6
CONTINUOUS
10
5.41022
20
-3.38282
11
5.40945
21
-3.37795
0
LINE
8
BLACK
6
CONTINUOUS
10
5.40945
20
-3.37795
11
5.41022
21
-3.37309
0
LINE
8
BLACK
6
CONTINUOUS
10
5.41022
20
-3.37309
11
5.41246
21
-3.3687
0
LINE
8
BLACK
6
CONTINUOUS
10
5.41246
20
-3.3687
11
5.41594
21
-3.36521
0
LINE
8
BLACK
6
CONTINUOUS
10
5.41594
20
-3.36521
11
5.42033
21
-3.36298
0
LINE
8
BLACK
6
CONTINUOUS
10
5.42033
20
-3.36298
11
5.4252
21
-3.3622
0
LINE
8
BLACK
6
CONTINUOUS
10
5.4252
20
-3.3622
11
5.43006
21
-3.36298
0
LINE
8
BLACK
6
CONTINUOUS
10
5.75441
20
-3.38
11
5.70289
21
-3.38
0
LINE
8
BLACK
6
CONTINUOUS
10
5.70289
20
-3.38
11
5.68365
21
-3.39924
0
LINE
8
BLACK
6
CONTINUOUS
10
5.68365
20
-3.39924
11
5.68297
21
-3.39964
0
LINE
8
BLACK
6
CONTINUOUS
10
5.68297
20
-3.39964
11
5.68241
21
-3.4002
0
LINE
8
BLACK
6
CONTINUOUS
10
5.68241
20
-3.4002
11
5.68165
21
-3.4004
0
LINE
8
BLACK
6
CONTINUOUS
10
5.68165
20
-3.4004
11
5.68096
21
-3.4008
0
LINE
8
BLACK
6
CONTINUOUS
10
5.68096
20
-3.4008
11
5.68017
21
-3.4008
0
LINE
8
BLACK
6
CONTINUOUS
10
5.68017
20
-3.4008
11
5.67941
21
-3.401
0
LINE
8
BLACK
6
CONTINUOUS
10
5.67941
20
-3.401
11
5.64717
21
-3.401
0
LINE
8
BLACK
6
CONTINUOUS
10
5.64717
20
-3.401
11
5.64717
21
-3.4078
0
LINE
8
BLACK
6
CONTINUOUS
10
5.64717
20
-3.4078
11
5.5822
21
-3.4078
0
LINE
8
BLACK
6
CONTINUOUS
10
5.5822
20
-3.4078
11
5.5822
21
-3.3822
0
LINE
8
BLACK
6
CONTINUOUS
10
5.5822
20
-3.3822
11
5.64717
21
-3.3822
0
LINE
8
BLACK
6
CONTINUOUS
10
5.64717
20
-3.3822
11
5.64717
21
-3.389
0
LINE
8
BLACK
6
CONTINUOUS
10
5.64717
20
-3.389
11
5.67692
21
-3.389
0
LINE
8
BLACK
6
CONTINUOUS
10
5.67692
20
-3.389
11
5.69441
21
-3.37151
0
LINE
8
BLACK
6
CONTINUOUS
10
5.69441
20
-3.37151
11
5.69441
21
-3.32
0
LINE
8
BLACK
6
CONTINUOUS
10
5.69441
20
-3.32
11
5.75441
21
-3.32
0
LINE
8
BLACK
6
CONTINUOUS
10
5.75441
20
-3.32
11
5.75441
21
-3.38
0
LINE
8
BLACK
6
CONTINUOUS
10
5.7732
20
-3.2942
11
5.77399
21
-3.2942
0
LINE
8
BLACK
6
CONTINUOUS
10
5.77399
20
-3.2942
11
5.77468
21
-3.2946
0
LINE
8
BLACK
6
CONTINUOUS
10
5.77468
20
-3.2946
11
5.77544
21
-3.2948
0
LINE
8
BLACK
6
CONTINUOUS
10
5.77544
20
-3.2948
11
5.776
21
-3.29536
0
LINE
8
BLACK
6
CONTINUOUS
10
5.776
20
-3.29536
11
5.77668
21
-3.29576
0
LINE
8
BLACK
6
CONTINUOUS
10
5.77668
20
-3.29576
11
5.80093
21
-3.32
0
LINE
8
BLACK
6
CONTINUOUS
10
5.80093
20
-3.32
11
5.85441
21
-3.32
0
LINE
8
BLACK
6
CONTINUOUS
10
5.85441
20
-3.32
11
5.85441
21
-3.38
0
LINE
8
BLACK
6
CONTINUOUS
10
5.85441
20
-3.38
11
5.79441
21
-3.38
0
LINE
8
BLACK
6
CONTINUOUS
10
5.79441
20
-3.38
11
5.79441
21
-3.33045
0
LINE
8
BLACK
6
CONTINUOUS
10
5.79441
20
-3.33045
11
5.76996
21
-3.306
0
LINE
8
BLACK
6
CONTINUOUS
10
5.76996
20
-3.306
11
5.68728
21
-3.306
0
LINE
8
BLACK
6
CONTINUOUS
10
5.68728
20
-3.306
11
5.64717
21
-3.34612
0
LINE
8
BLACK
6
CONTINUOUS
10
5.64717
20
-3.34612
11
5.64717
21
-3.3578
0
LINE
8
BLACK
6
CONTINUOUS
10
5.64717
20
-3.3578
11
5.5822
21
-3.3578
0
LINE
8
BLACK
6
CONTINUOUS
10
5.5822
20
-3.3578
11
5.5822
21
-3.3322
0
LINE
8
BLACK
6
CONTINUOUS
10
5.5822
20
-3.3322
11
5.64411
21
-3.3322
0
LINE
8
BLACK
6
CONTINUOUS
10
5.64411
20
-3.3322
11
5.68056
21
-3.29576
0
LINE
8
BLACK
6
CONTINUOUS
10
5.68056
20
-3.29576
11
5.68124
21
-3.29536
0
LINE
8
BLACK
6
CONTINUOUS
10
5.68124
20
-3.29536
11
5.6818
21
-3.2948
0
LINE
8
BLACK
6
CONTINUOUS
10
5.6818
20
-3.2948
11
5.68256
21
-3.2946
0
LINE
8
BLACK
6
CONTINUOUS
10
5.68256
20
-3.2946
11
5.68325
21
-3.2942
0
LINE
8
BLACK
6
CONTINUOUS
10
5.68325
20
-3.2942
11
5.68404
21
-3.2942
0
LINE
8
BLACK
6
CONTINUOUS
10
5.68404
20
-3.2942
11
5.6848
21
-3.294
0
LINE
8
BLACK
6
CONTINUOUS
10
5.6848
20
-3.294
11
5.77244
21
-3.294
0
LINE
8
BLACK
6
CONTINUOUS
10
5.77244
20
-3.294
11
5.7732
21
-3.2942
0
LINE
8
BLACK
6
CONTINUOUS
10
5.98837
20
-2.81076
11
5.98979
21
-2.81271
0
LINE
8
BLACK
6
CONTINUOUS
10
5.98979
20
-2.81271
11
5.98998
21
-2.81392
0
LINE
8
BLACK
6
CONTINUOUS
10
5.98998
20
-2.81392
11
5.98998
21
-3.98608
0
LINE
8
BLACK
6
CONTINUOUS
10
5.98998
20
-3.98608
11
5.98924
21
-3.98837
0
LINE
8
BLACK
6
CONTINUOUS
10
5.98924
20
-3.98837
11
5.98729
21
-3.98979
0
LINE
8
BLACK
6
CONTINUOUS
10
5.98729
20
-3.98979
11
5.98608
21
-3.98998
0
LINE
8
BLACK
6
CONTINUOUS
10
5.98608
20
-3.98998
11
5.21392
21
-3.98998
0
LINE
8
BLACK
6
CONTINUOUS
10
5.21392
20
-3.98998
11
5.21163
21
-3.98924
0
LINE
8
BLACK
6
CONTINUOUS
10
5.21163
20
-3.98924
11
5.21021
21
-3.98729
0
LINE
8
BLACK
6
CONTINUOUS
10
5.21021
20
-3.98729
11
5.21002
21
-3.98608
0
LINE
8
BLACK
6
CONTINUOUS
10
5.21002
20
-3.98608
11
5.21002
21
-3.68969
0
LINE
8
BLACK
6
CONTINUOUS
10
5.21002
20
-3.68969
11
5.21002
21
-3.65929
0
LINE
8
BLACK
6
CONTINUOUS
10
5.21002
20
-3.65929
11
5.21002
21
-3.59
0
LINE
8
BLACK
6
CONTINUOUS
10
5.21002
20
-3.59
11
5.21002
21
-3.57
0
LINE
8
BLACK
6
CONTINUOUS
10
5.21002
20
-3.57
11
5.21002
21
-3.50956
0
LINE
8
BLACK
6
CONTINUOUS
10
5.21002
20
-3.50956
11
5.21002
21
-3.335
0
LINE
8
BLACK
6
CONTINUOUS
10
5.21002
20
-3.335
11
5.21002
21
-2.81392
0
LINE
8
BLACK
6
CONTINUOUS
10
5.21002
20
-2.81392
11
5.21076
21
-2.81163
0
LINE
8
BLACK
6
CONTINUOUS
10
5.21076
20
-2.81163
11
5.21271
21
-2.81021
0
LINE
8
BLACK
6
CONTINUOUS
10
5.21271
20
-2.81021
11
5.21392
21
-2.81002
0
LINE
8
BLACK
6
CONTINUOUS
10
5.21392
20
-2.81002
11
5.98608
21
-2.81002
0
LINE
8
BLACK
6
CONTINUOUS
10
5.98608
20
-2.81002
11
5.98837
21
-2.81076
0
LINE
8
BLACK
6
CONTINUOUS
10
5.5311
20
-3.67929
11
5.5311
21
-3.68969
0
LINE
8
BLACK
6
CONTINUOUS
10
5.5311
20
-3.68969
11
5.53152
21
-3.69317
0
LINE
8
BLACK
6
CONTINUOUS
10
5.53152
20
-3.69317
11
5.5337
21
-3.6987
0
LINE
8
BLACK
6
CONTINUOUS
10
5.5337
20
-3.6987
11
5.5373
21
-3.70345
0
LINE
8
BLACK
6
CONTINUOUS
10
5.5373
20
-3.70345
11
5.54204
21
-3.70704
0
LINE
8
BLACK
6
CONTINUOUS
10
5.54204
20
-3.70704
11
5.54758
21
-3.70923
0
LINE
8
BLACK
6
CONTINUOUS
10
5.54758
20
-3.70923
11
5.55106
21
-3.70965
0
LINE
8
BLACK
6
CONTINUOUS
10
5.55106
20
-3.70965
11
5.55106
21
-3.70965
0
LINE
8
BLACK
6
CONTINUOUS
10
5.55106
20
-3.70965
11
5.5526
21
-3.70965
0
LINE
8
BLACK
6
CONTINUOUS
10
5.5526
20
-3.70965
11
5.5526
21
-3.70965
0
LINE
8
BLACK
6
CONTINUOUS
10
5.5526
20
-3.70965
11
5.5526
21
-3.70965
0
LINE
8
BLACK
6
CONTINUOUS
10
5.5526
20
-3.70965
11
5.5526
21
-3.6978
0
LINE
8
BLACK
6
CONTINUOUS
10
5.5526
20
-3.6978
11
5.54899
21
-3.69709
0
LINE
8
BLACK
6
CONTINUOUS
10
5.54899
20
-3.69709
11
5.5458
21
-3.69495
0
LINE
8
BLACK
6
CONTINUOUS
10
5.5458
20
-3.69495
11
5.54366
21
-3.69176
0
LINE
8
BLACK
6
CONTINUOUS
10
5.54366
20
-3.69176
11
5.54291
21
-3.68799
0
LINE
8
BLACK
6
CONTINUOUS
10
5.54291
20
-3.68799
11
5.54291
21
-3.67929
0
LINE
8
BLACK
6
CONTINUOUS
10
5.54291
20
-3.67929
11
5.5311
21
-3.67929
0
LINE
8
BLACK
6
CONTINUOUS
10
5.5311
20
-3.67929
11
5.5311
21
-3.67929
0
LINE
8
BLACK
6
CONTINUOUS
10
5.281
20
-3.50956
11
5.28112
21
-3.51055
0
LINE
8
BLACK
6
CONTINUOUS
10
5.28112
20
-3.51055
11
5.2818
21
-3.51208
0
LINE
8
BLACK
6
CONTINUOUS
10
5.2818
20
-3.51208
11
5.28291
21
-3.5146
0
LINE
8
BLACK
6
CONTINUOUS
10
5.28291
20
-3.5146
11
5.28603
21
-3.51772
0
LINE
8
BLACK
6
CONTINUOUS
10
5.28603
20
-3.51772
11
5.29008
21
-3.51951
0
LINE
8
BLACK
6
CONTINUOUS
10
5.29008
20
-3.51951
11
5.29107
21
-3.51963
0
LINE
8
BLACK
6
CONTINUOUS
10
5.29107
20
-3.51963
11
5.35956
21
-3.51963
0
LINE
8
BLACK
6
CONTINUOUS
10
5.35956
20
-3.51963
11
5.36055
21
-3.51951
0
LINE
8
BLACK
6
CONTINUOUS
10
5.36055
20
-3.51951
11
5.3646
21
-3.51772
0
LINE
8
BLACK
6
CONTINUOUS
10
5.3646
20
-3.51772
11
5.36772
21
-3.5146
0
LINE
8
BLACK
6
CONTINUOUS
10
5.36772
20
-3.5146
11
5.36772
21
-3.5146
0
LINE
8
BLACK
6
CONTINUOUS
10
5.36772
20
-3.5146
11
5.36777
21
-3.51453
0
LINE
8
BLACK
6
CONTINUOUS
10
5.36777
20
-3.51453
11
5.36787
21
-3.51445
0
LINE
8
BLACK
6
CONTINUOUS
10
5.36787
20
-3.51445
11
5.36798
21
-3.51434
0
LINE
8
BLACK
6
CONTINUOUS
10
5.36798
20
-3.51434
11
5.36799
21
-3.51436
0
LINE
8
BLACK
6
CONTINUOUS
10
5.36799
20
-3.51436
11
5.36968
21
-3.51306
0
LINE
8
BLACK
6
CONTINUOUS
10
5.36968
20
-3.51306
11
5.37099
21
-3.51283
0
LINE
8
BLACK
6
CONTINUOUS
10
5.37099
20
-3.51283
11
5.50113
21
-3.51283
0
LINE
8
BLACK
6
CONTINUOUS
10
5.50113
20
-3.51283
11
5.50135
21
-3.51284
0
LINE
8
BLACK
6
CONTINUOUS
10
5.50135
20
-3.51284
11
5.50292
21
-3.51302
0
LINE
8
BLACK
6
CONTINUOUS
10
5.50292
20
-3.51302
11
5.50523
21
-3.51258
0
LINE
8
BLACK
6
CONTINUOUS
10
5.50523
20
-3.51258
11
5.50756
21
-3.51223
0
LINE
8
BLACK
6
CONTINUOUS
10
5.50756
20
-3.51223
11
5.50756
21
-3.51223
0
LINE
8
BLACK
6
CONTINUOUS
10
5.50756
20
-3.51223
11
5.50784
21
-3.51214
0
LINE
8
BLACK
6
CONTINUOUS
10
5.50784
20
-3.51214
11
5.50784
21
-3.51216
0
LINE
8
BLACK
6
CONTINUOUS
10
5.50784
20
-3.51216
11
5.50793
21
-3.51213
0
LINE
8
BLACK
6
CONTINUOUS
10
5.50793
20
-3.51213
11
5.50792
21
-3.51212
0
LINE
8
BLACK
6
CONTINUOUS
10
5.50792
20
-3.51212
11
5.5082
21
-3.51202
0
LINE
8
BLACK
6
CONTINUOUS
10
5.5082
20
-3.51202
11
5.5082
21
-3.51202
0
LINE
8
BLACK
6
CONTINUOUS
10
5.5082
20
-3.51202
11
5.5093
21
-3.51144
0
LINE
8
BLACK
6
CONTINUOUS
10
5.5093
20
-3.51144
11
5.51028
21
-3.51092
0
LINE
8
BLACK
6
CONTINUOUS
10
5.51028
20
-3.51092
11
5.5124
21
-3.5099
0
LINE
8
BLACK
6
CONTINUOUS
10
5.5124
20
-3.5099
11
5.5124
21
-3.5099
0
LINE
8
BLACK
6
CONTINUOUS
10
5.5124
20
-3.5099
11
5.5124
21
-3.5099
0
LINE
8
BLACK
6
CONTINUOUS
10
5.5124
20
-3.5099
11
5.5124
21
-3.5099
0
LINE
8
BLACK
6
CONTINUOUS
10
5.5124
20
-3.5099
11
5.51264
21
-3.50973
0
LINE
8
BLACK
6
CONTINUOUS
10
5.51264
20
-3.50973
11
5.51265
21
-3.50975
0
LINE
8
BLACK
6
CONTINUOUS
10
5.51265
20
-3.50975
11
5.51273
21
-3.5097
0
LINE
8
BLACK
6
CONTINUOUS
10
5.51273
20
-3.5097
11
5.51272
21
-3.50968
0
LINE
8
BLACK
6
CONTINUOUS
10
5.51272
20
-3.50968
11
5.51295
21
-3.50951
0
LINE
8
BLACK
6
CONTINUOUS
10
5.51295
20
-3.50951
11
5.51295
21
-3.50951
0
LINE
8
BLACK
6
CONTINUOUS
10
5.51295
20
-3.50951
11
5.51295
21
-3.50951
0
LINE
8
BLACK
6
CONTINUOUS
10
5.51295
20
-3.50951
11
5.51378
21
-3.50868
0
LINE
8
BLACK
6
CONTINUOUS
10
5.51378
20
-3.50868
11
5.51462
21
-3.50784
0
LINE
8
BLACK
6
CONTINUOUS
10
5.51462
20
-3.50784
11
5.51634
21
-3.50624
0
LINE
8
BLACK
6
CONTINUOUS
10
5.51634
20
-3.50624
11
5.51652
21
-3.50601
0
LINE
8
BLACK
6
CONTINUOUS
10
5.51652
20
-3.50601
11
5.51654
21
-3.50603
0
LINE
8
BLACK
6
CONTINUOUS
10
5.51654
20
-3.50603
11
5.51687
21
-3.50559
0
LINE
8
BLACK
6
CONTINUOUS
10
5.51687
20
-3.50559
11
5.54374
21
-3.47872
0
LINE
8
BLACK
6
CONTINUOUS
10
5.54374
20
-3.47872
11
5.54589
21
-3.47763
0
LINE
8
BLACK
6
CONTINUOUS
10
5.54589
20
-3.47763
11
5.5465
21
-3.47758
0
LINE
8
BLACK
6
CONTINUOUS
10
5.5465
20
-3.47758
11
5.55059
21
-3.47758
0
LINE
8
BLACK
6
CONTINUOUS
10
5.55059
20
-3.47758
11
5.55059
21
-3.47758
0
LINE
8
BLACK
6
CONTINUOUS
10
5.55059
20
-3.47758
11
5.5571
21
-3.47598
0
LINE
8
BLACK
6
CONTINUOUS
10
5.5571
20
-3.47598
11
5.56303
21
-3.47286
0
LINE
8
BLACK
6
CONTINUOUS
10
5.56303
20
-3.47286
11
5.56804
21
-3.46842
0
LINE
8
BLACK
6
CONTINUOUS
10
5.56804
20
-3.46842
11
5.56867
21
-3.4675
0
LINE
8
BLACK
6
CONTINUOUS
10
5.56867
20
-3.4675
11
5.57059
21
-3.46604
0
LINE
8
BLACK
6
CONTINUOUS
10
5.57059
20
-3.46604
11
5.573
21
-3.46598
0
LINE
8
BLACK
6
CONTINUOUS
10
5.573
20
-3.46598
11
5.57464
21
-3.46696
0
LINE
8
BLACK
6
CONTINUOUS
10
5.57464
20
-3.46696
11
5.57492
21
-3.46724
0
LINE
8
BLACK
6
CONTINUOUS
10
5.57492
20
-3.46724
11
5.57602
21
-3.46939
0
LINE
8
BLACK
6
CONTINUOUS
10
5.57602
20
-3.46939
11
5.57564
21
-3.47177
0
LINE
8
BLACK
6
CONTINUOUS
10
5.57564
20
-3.47177
11
5.57492
21
-3.47276
0
LINE
8
BLACK
6
CONTINUOUS
10
5.57492
20
-3.47276
11
5.57228
21
-3.4754
0
LINE
8
BLACK
6
CONTINUOUS
10
5.57228
20
-3.4754
11
5.57228
21
-3.4754
0
LINE
8
BLACK
6
CONTINUOUS
10
5.57228
20
-3.4754
11
5.57049
21
-3.47945
0
LINE
8
BLACK
6
CONTINUOUS
10
5.57049
20
-3.47945
11
5.57037
21
-3.48044
0
LINE
8
BLACK
6
CONTINUOUS
10
5.57037
20
-3.48044
11
5.57037
21
-3.49742
0
LINE
8
BLACK
6
CONTINUOUS
10
5.57037
20
-3.49742
11
5.56963
21
-3.49971
0
LINE
8
BLACK
6
CONTINUOUS
10
5.56963
20
-3.49971
11
5.56923
21
-3.50017
0
LINE
8
BLACK
6
CONTINUOUS
10
5.56923
20
-3.50017
11
5.56824
21
-3.50117
0
LINE
8
BLACK
6
CONTINUOUS
10
5.56824
20
-3.50117
11
5.56808
21
-3.50131
0
LINE
8
BLACK
6
CONTINUOUS
10
5.56808
20
-3.50131
11
5.56685
21
-3.50229
0
LINE
8
BLACK
6
CONTINUOUS
10
5.56685
20
-3.50229
11
5.56553
21
-3.50422
0
LINE
8
BLACK
6
CONTINUOUS
10
5.56553
20
-3.50422
11
5.56414
21
-3.50611
0
LINE
8
BLACK
6
CONTINUOUS
10
5.56414
20
-3.50611
11
5.56401
21
-3.50637
0
LINE
8
BLACK
6
CONTINUOUS
10
5.56401
20
-3.50637
11
5.56399
21
-3.50636
0
LINE
8
BLACK
6
CONTINUOUS
10
5.56399
20
-3.50636
11
5.56395
21
-3.50644
0
LINE
8
BLACK
6
CONTINUOUS
10
5.56395
20
-3.50644
11
5.56397
21
-3.50644
0
LINE
8
BLACK
6
CONTINUOUS
10
5.56397
20
-3.50644
11
5.56384
21
-3.50671
0
LINE
8
BLACK
6
CONTINUOUS
10
5.56384
20
-3.50671
11
5.56315
21
-3.50894
0
LINE
8
BLACK
6
CONTINUOUS
10
5.56315
20
-3.50894
11
5.56238
21
-3.51115
0
LINE
8
BLACK
6
CONTINUOUS
10
5.56238
20
-3.51115
11
5.56232
21
-3.51144
0
LINE
8
BLACK
6
CONTINUOUS
10
5.56232
20
-3.51144
11
5.5623
21
-3.51144
0
LINE
8
BLACK
6
CONTINUOUS
10
5.5623
20
-3.51144
11
5.56229
21
-3.51152
0
LINE
8
BLACK
6
CONTINUOUS
10
5.56229
20
-3.51152
11
5.56231
21
-3.51153
0
LINE
8
BLACK
6
CONTINUOUS
10
5.56231
20
-3.51153
11
5.56226
21
-3.51181
0
LINE
8
BLACK
6
CONTINUOUS
10
5.56226
20
-3.51181
11
5.56226
21
-3.51416
0
LINE
8
BLACK
6
CONTINUOUS
10
5.56226
20
-3.51416
11
5.56218
21
-3.5165
0
LINE
8
BLACK
6
CONTINUOUS
10
5.56218
20
-3.5165
11
5.56221
21
-3.51679
0
LINE
8
BLACK
6
CONTINUOUS
10
5.56221
20
-3.51679
11
5.56219
21
-3.51679
0
LINE
8
BLACK
6
CONTINUOUS
10
5.56219
20
-3.51679
11
5.56226
21
-3.51734
0
LINE
8
BLACK
6
CONTINUOUS
10
5.56226
20
-3.51734
11
5.56226
21
-3.53846
0
LINE
8
BLACK
6
CONTINUOUS
10
5.56226
20
-3.53846
11
5.56152
21
-3.54075
0
LINE
8
BLACK
6
CONTINUOUS
10
5.56152
20
-3.54075
11
5.5598
21
-3.54209
0
LINE
8
BLACK
6
CONTINUOUS
10
5.5598
20
-3.54209
11
5.55944
21
-3.54223
0
LINE
8
BLACK
6
CONTINUOUS
10
5.55944
20
-3.54223
11
5.55944
21
-3.54223
0
LINE
8
BLACK
6
CONTINUOUS
10
5.55944
20
-3.54223
11
5.55469
21
-3.54583
0
LINE
8
BLACK
6
CONTINUOUS
10
5.55469
20
-3.54583
11
5.55469
21
-3.54583
0
LINE
8
BLACK
6
CONTINUOUS
10
5.55469
20
-3.54583
11
5.55109
21
-3.55058
0
LINE
8
BLACK
6
CONTINUOUS
10
5.55109
20
-3.55058
11
5.55109
21
-3.55058
0
LINE
8
BLACK
6
CONTINUOUS
10
5.55109
20
-3.55058
11
5.5489
21
-3.55612
0
LINE
8
BLACK
6
CONTINUOUS
10
5.5489
20
-3.55612
11
5.54848
21
-3.5596
0
LINE
8
BLACK
6
CONTINUOUS
10
5.54848
20
-3.5596
11
5.54848
21
-3.6004
0
LINE
8
BLACK
6
CONTINUOUS
10
5.54848
20
-3.6004
11
5.5489
21
-3.60388
0
LINE
8
BLACK
6
CONTINUOUS
10
5.5489
20
-3.60388
11
5.55109
21
-3.60942
0
LINE
8
BLACK
6
CONTINUOUS
10
5.55109
20
-3.60942
11
5.55109
21
-3.60942
0
LINE
8
BLACK
6
CONTINUOUS
10
5.55109
20
-3.60942
11
5.55109
21
-3.60942
0
LINE
8
BLACK
6
CONTINUOUS
10
5.55109
20
-3.60942
11
5.55469
21
-3.61417
0
LINE
8
BLACK
6
CONTINUOUS
10
5.55469
20
-3.61417
11
5.55944
21
-3.61777
0
LINE
8
BLACK
6
CONTINUOUS
10
5.55944
20
-3.61777
11
5.55944
21
-3.61777
0
LINE
8
BLACK
6
CONTINUOUS
10
5.55944
20
-3.61777
11
5.55944
21
-3.61777
0
LINE
8
BLACK
6
CONTINUOUS
10
5.55944
20
-3.61777
11
5.56051
21
-3.61819
0
LINE
8
BLACK
6
CONTINUOUS
10
5.56051
20
-3.61819
11
5.56498
21
-3.61996
0
LINE
8
BLACK
6
CONTINUOUS
10
5.56498
20
-3.61996
11
5.56846
21
-3.62037
0
LINE
8
BLACK
6
CONTINUOUS
10
5.56846
20
-3.62037
11
5.56846
21
-3.62037
0
LINE
8
BLACK
6
CONTINUOUS
10
5.56846
20
-3.62037
11
5.59154
21
-3.62037
0
LINE
8
BLACK
6
CONTINUOUS
10
5.59154
20
-3.62037
11
5.59154
21
-3.62037
0
LINE
8
BLACK
6
CONTINUOUS
10
5.59154
20
-3.62037
11
5.59502
21
-3.61996
0
LINE
8
BLACK
6
CONTINUOUS
10
5.59502
20
-3.61996
11
5.60056
21
-3.61777
0
LINE
8
BLACK
6
CONTINUOUS
10
5.60056
20
-3.61777
11
5.60531
21
-3.61417
0
LINE
8
BLACK
6
CONTINUOUS
10
5.60531
20
-3.61417
11
5.6075
21
-3.61129
0
LINE
8
BLACK
6
CONTINUOUS
10
5.6075
20
-3.61129
11
5.60948
21
-3.60991
0
LINE
8
BLACK
6
CONTINUOUS
10
5.60948
20
-3.60991
11
5.61189
21
-3.60996
0
LINE
8
BLACK
6
CONTINUOUS
10
5.61189
20
-3.60996
11
5.61336
21
-3.61088
0
LINE
8
BLACK
6
CONTINUOUS
10
5.61336
20
-3.61088
11
5.61852
21
-3.61605
0
LINE
8
BLACK
6
CONTINUOUS
10
5.61852
20
-3.61605
11
5.61962
21
-3.61819
0
LINE
8
BLACK
6
CONTINUOUS
10
5.61962
20
-3.61819
11
5.61967
21
-3.6188
0
LINE
8
BLACK
6
CONTINUOUS
10
5.61967
20
-3.6188
11
5.61967
21
-3.62775
0
LINE
8
BLACK
6
CONTINUOUS
10
5.61967
20
-3.62775
11
5.61892
21
-3.63004
0
LINE
8
BLACK
6
CONTINUOUS
10
5.61892
20
-3.63004
11
5.6172
21
-3.63138
0
LINE
8
BLACK
6
CONTINUOUS
10
5.6172
20
-3.63138
11
5.61684
21
-3.63152
0
LINE
8
BLACK
6
CONTINUOUS
10
5.61684
20
-3.63152
11
5.61684
21
-3.63152
0
LINE
8
BLACK
6
CONTINUOUS
10
5.61684
20
-3.63152
11
5.61209
21
-3.63512
0
LINE
8
BLACK
6
CONTINUOUS
10
5.61209
20
-3.63512
11
5.61209
21
-3.63512
0
LINE
8
BLACK
6
CONTINUOUS
10
5.61209
20
-3.63512
11
5.60849
21
-3.63987
0
LINE
8
BLACK
6
CONTINUOUS
10
5.60849
20
-3.63987
11
5.60849
21
-3.63987
0
LINE
8
BLACK
6
CONTINUOUS
10
5.60849
20
-3.63987
11
5.6063
21
-3.64541
0
LINE
8
BLACK
6
CONTINUOUS
10
5.6063
20
-3.64541
11
5.60589
21
-3.64889
0
LINE
8
BLACK
6
CONTINUOUS
10
5.60589
20
-3.64889
11
5.60589
21
-3.68969
0
LINE
8
BLACK
6
CONTINUOUS
10
5.60589
20
-3.68969
11
5.6063
21
-3.69317
0
LINE
8
BLACK
6
CONTINUOUS
10
5.6063
20
-3.69317
11
5.60849
21
-3.69871
0
LINE
8
BLACK
6
CONTINUOUS
10
5.60849
20
-3.69871
11
5.60849
21
-3.69871
0
LINE
8
BLACK
6
CONTINUOUS
10
5.60849
20
-3.69871
11
5.60849
21
-3.69871
0
LINE
8
BLACK
6
CONTINUOUS
10
5.60849
20
-3.69871
11
5.61209
21
-3.70346
0
LINE
8
BLACK
6
CONTINUOUS
10
5.61209
20
-3.70346
11
5.61684
21
-3.70706
0
LINE
8
BLACK
6
CONTINUOUS
10
5.61684
20
-3.70706
11
5.61684
21
-3.70706
0
LINE
8
BLACK
6
CONTINUOUS
10
5.61684
20
-3.70706
11
5.61684
21
-3.70706
0
LINE
8
BLACK
6
CONTINUOUS
10
5.61684
20
-3.70706
11
5.61961
21
-3.70815
0
LINE
8
BLACK
6
CONTINUOUS
10
5.61961
20
-3.70815
11
5.62238
21
-3.70925
0
LINE
8
BLACK
6
CONTINUOUS
10
5.62238
20
-3.70925
11
5.62586
21
-3.70967
0
LINE
8
BLACK
6
CONTINUOUS
10
5.62586
20
-3.70967
11
5.62586
21
-3.70967
0
LINE
8
BLACK
6
CONTINUOUS
10
5.62586
20
-3.70967
11
5.64894
21
-3.70967
0
LINE
8
BLACK
6
CONTINUOUS
10
5.64894
20
-3.70967
11
5.64894
21
-3.70967
0
LINE
8
BLACK
6
CONTINUOUS
10
5.64894
20
-3.70967
11
5.65242
21
-3.70925
0
LINE
8
BLACK
6
CONTINUOUS
10
5.65242
20
-3.70925
11
5.65797
21
-3.70706
0
LINE
8
BLACK
6
CONTINUOUS
10
5.65797
20
-3.70706
11
5.66271
21
-3.70346
0
LINE
8
BLACK
6
CONTINUOUS
10
5.66271
20
-3.70346
11
5.66631
21
-3.69871
0
LINE
8
BLACK
6
CONTINUOUS
10
5.66631
20
-3.69871
11
5.6685
21
-3.69317
0
LINE
8
BLACK
6
CONTINUOUS
10
5.6685
20
-3.69317
11
5.66892
21
-3.68969
0
LINE
8
BLACK
6
CONTINUOUS
10
5.66892
20
-3.68969
11
5.66892
21
-3.68163
0
LINE
8
BLACK
6
CONTINUOUS
10
5.66892
20
-3.68163
11
5.66966
21
-3.67934
0
LINE
8
BLACK
6
CONTINUOUS
10
5.66966
20
-3.67934
11
5.67161
21
-3.67793
0
LINE
8
BLACK
6
CONTINUOUS
10
5.67161
20
-3.67793
11
5.67281
21
-3.67774
0
LINE
8
BLACK
6
CONTINUOUS
10
5.67281
20
-3.67774
11
5.68889
21
-3.67774
0
LINE
8
BLACK
6
CONTINUOUS
10
5.68889
20
-3.67774
11
5.68911
21
-3.67775
0
LINE
8
BLACK
6
CONTINUOUS
10
5.68911
20
-3.67775
11
5.69067
21
-3.67792
0
LINE
8
BLACK
6
CONTINUOUS
10
5.69067
20
-3.67792
11
5.69297
21
-3.67749
0
LINE
8
BLACK
6
CONTINUOUS
10
5.69297
20
-3.67749
11
5.69529
21
-3.67714
0
LINE
8
BLACK
6
CONTINUOUS
10
5.69529
20
-3.67714
11
5.69529
21
-3.67714
0
LINE
8
BLACK
6
CONTINUOUS
10
5.69529
20
-3.67714
11
5.69557
21
-3.67705
0
LINE
8
BLACK
6
CONTINUOUS
10
5.69557
20
-3.67705
11
5.69557
21
-3.67707
0
LINE
8
BLACK
6
CONTINUOUS
10
5.69557
20
-3.67707
11
5.69565
21
-3.67704
0
LINE
8
BLACK
6
CONTINUOUS
10
5.69565
20
-3.67704
11
5.69565
21
-3.67703
0
LINE
8
BLACK
6
CONTINUOUS
10
5.69565
20
-3.67703
11
5.69592
21
-3.67693
0
LINE
8
BLACK
6
CONTINUOUS
10
5.69592
20
-3.67693
11
5.69592
21
-3.67693
0
LINE
8
BLACK
6
CONTINUOUS
10
5.69592
20
-3.67693
11
5.69647
21
-3.67664
0
LINE
8
BLACK
6
CONTINUOUS
10
5.69647
20
-3.67664
11
5.69799
21
-3.67584
0
LINE
8
BLACK
6
CONTINUOUS
10
5.69799
20
-3.67584
11
5.69905
21
-3.67533
0
LINE
8
BLACK
6
CONTINUOUS
10
5.69905
20
-3.67533
11
5.7001
21
-3.67482
0
LINE
8
BLACK
6
CONTINUOUS
10
5.7001
20
-3.67482
11
5.7001
21
-3.67482
0
LINE
8
BLACK
6
CONTINUOUS
10
5.7001
20
-3.67482
11
5.70035
21
-3.67466
0
LINE
8
BLACK
6
CONTINUOUS
10
5.70035
20
-3.67466
11
5.70036
21
-3.67467
0
LINE
8
BLACK
6
CONTINUOUS
10
5.70036
20
-3.67467
11
5.70043
21
-3.67462
0
LINE
8
BLACK
6
CONTINUOUS
10
5.70043
20
-3.67462
11
5.70042
21
-3.67461
0
LINE
8
BLACK
6
CONTINUOUS
10
5.70042
20
-3.67461
11
5.70065
21
-3.67443
0
LINE
8
BLACK
6
CONTINUOUS
10
5.70065
20
-3.67443
11
5.70065
21
-3.67443
0
LINE
8
BLACK
6
CONTINUOUS
10
5.70065
20
-3.67443
11
5.70231
21
-3.67278
0
LINE
8
BLACK
6
CONTINUOUS
10
5.70231
20
-3.67278
11
5.70402
21
-3.67118
0
LINE
8
BLACK
6
CONTINUOUS
10
5.70402
20
-3.67118
11
5.70402
21
-3.67118
0
LINE
8
BLACK
6
CONTINUOUS
10
5.70402
20
-3.67118
11
5.70421
21
-3.67095
0
LINE
8
BLACK
6
CONTINUOUS
10
5.70421
20
-3.67095
11
5.70422
21
-3.67097
0
LINE
8
BLACK
6
CONTINUOUS
10
5.70422
20
-3.67097
11
5.70456
21
-3.67053
0
LINE
8
BLACK
6
CONTINUOUS
10
5.70456
20
-3.67053
11
5.73022
21
-3.64486
0
LINE
8
BLACK
6
CONTINUOUS
10
5.73022
20
-3.64486
11
5.73237
21
-3.64377
0
LINE
8
BLACK
6
CONTINUOUS
10
5.73237
20
-3.64377
11
5.73298
21
-3.64372
0
LINE
8
BLACK
6
CONTINUOUS
10
5.73298
20
-3.64372
11
5.8926
21
-3.64372
0
LINE
8
BLACK
6
CONTINUOUS
10
5.8926
20
-3.64372
11
5.89281
21
-3.64373
0
LINE
8
BLACK
6
CONTINUOUS
10
5.89281
20
-3.64373
11
5.89437
21
-3.64391
0
LINE
8
BLACK
6
CONTINUOUS
10
5.89437
20
-3.64391
11
5.89667
21
-3.64347
0
LINE
8
BLACK
6
CONTINUOUS
10
5.89667
20
-3.64347
11
5.89899
21
-3.64312
0
LINE
8
BLACK
6
CONTINUOUS
10
5.89899
20
-3.64312
11
5.89899
21
-3.64312
0
LINE
8
BLACK
6
CONTINUOUS
10
5.89899
20
-3.64312
11
5.89927
21
-3.64304
0
LINE
8
BLACK
6
CONTINUOUS
10
5.89927
20
-3.64304
11
5.89927
21
-3.64305
0
LINE
8
BLACK
6
CONTINUOUS
10
5.89927
20
-3.64305
11
5.89935
21
-3.64303
0
LINE
8
BLACK
6
CONTINUOUS
10
5.89935
20
-3.64303
11
5.89935
21
-3.64301
0
LINE
8
BLACK
6
CONTINUOUS
10
5.89935
20
-3.64301
11
5.89962
21
-3.64291
0
LINE
8
BLACK
6
CONTINUOUS
10
5.89962
20
-3.64291
11
5.89962
21
-3.64291
0
LINE
8
BLACK
6
CONTINUOUS
10
5.89962
20
-3.64291
11
5.90017
21
-3.64263
0
LINE
8
BLACK
6
CONTINUOUS
10
5.90017
20
-3.64263
11
5.9017
21
-3.64182
0
LINE
8
BLACK
6
CONTINUOUS
10
5.9017
20
-3.64182
11
5.90275
21
-3.64131
0
LINE
8
BLACK
6
CONTINUOUS
10
5.90275
20
-3.64131
11
5.9038
21
-3.6408
0
LINE
8
BLACK
6
CONTINUOUS
10
5.9038
20
-3.6408
11
5.9038
21
-3.6408
0
LINE
8
BLACK
6
CONTINUOUS
10
5.9038
20
-3.6408
11
5.90405
21
-3.64064
0
LINE
8
BLACK
6
CONTINUOUS
10
5.90405
20
-3.64064
11
5.90406
21
-3.64065
0
LINE
8
BLACK
6
CONTINUOUS
10
5.90406
20
-3.64065
11
5.90413
21
-3.6406
0
LINE
8
BLACK
6
CONTINUOUS
10
5.90413
20
-3.6406
11
5.90412
21
-3.64059
0
LINE
8
BLACK
6
CONTINUOUS
10
5.90412
20
-3.64059
11
5.90435
21
-3.64042
0
LINE
8
BLACK
6
CONTINUOUS
10
5.90435
20
-3.64042
11
5.90435
21
-3.64042
0
LINE
8
BLACK
6
CONTINUOUS
10
5.90435
20
-3.64042
11
5.90601
21
-3.63876
0
LINE
8
BLACK
6
CONTINUOUS
10
5.90601
20
-3.63876
11
5.90772
21
-3.63717
0
LINE
8
BLACK
6
CONTINUOUS
10
5.90772
20
-3.63717
11
5.90772
21
-3.63717
0
LINE
8
BLACK
6
CONTINUOUS
10
5.90772
20
-3.63717
11
5.90791
21
-3.63694
0
LINE
8
BLACK
6
CONTINUOUS
10
5.90791
20
-3.63694
11
5.90792
21
-3.63695
0
LINE
8
BLACK
6
CONTINUOUS
10
5.90792
20
-3.63695
11
5.90826
21
-3.63651
0
LINE
8
BLACK
6
CONTINUOUS
10
5.90826
20
-3.63651
11
5.94089
21
-3.60387
0
LINE
8
BLACK
6
CONTINUOUS
10
5.94089
20
-3.60387
11
5.94106
21
-3.60373
0
LINE
8
BLACK
6
CONTINUOUS
10
5.94106
20
-3.60373
11
5.94228
21
-3.60275
0
LINE
8
BLACK
6
CONTINUOUS
10
5.94228
20
-3.60275
11
5.9436
21
-3.60082
0
LINE
8
BLACK
6
CONTINUOUS
10
5.9436
20
-3.60082
11
5.94499
21
-3.59893
0
LINE
8
BLACK
6
CONTINUOUS
10
5.94499
20
-3.59893
11
5.94499
21
-3.59893
0
LINE
8
BLACK
6
CONTINUOUS
10
5.94499
20
-3.59893
11
5.94513
21
-3.59867
0
LINE
8
BLACK
6
CONTINUOUS
10
5.94513
20
-3.59867
11
5.94514
21
-3.59868
0
LINE
8
BLACK
6
CONTINUOUS
10
5.94514
20
-3.59868
11
5.94518
21
-3.5986
0
LINE
8
BLACK
6
CONTINUOUS
10
5.94518
20
-3.5986
11
5.94517
21
-3.5986
0
LINE
8
BLACK
6
CONTINUOUS
10
5.94517
20
-3.5986
11
5.94529
21
-3.59833
0
LINE
8
BLACK
6
CONTINUOUS
10
5.94529
20
-3.59833
11
5.94598
21
-3.5961
0
LINE
8
BLACK
6
CONTINUOUS
10
5.94598
20
-3.5961
11
5.94627
21
-3.59529
0
LINE
8
BLACK
6
CONTINUOUS
10
5.94627
20
-3.59529
11
5.94676
21
-3.59389
0
LINE
8
BLACK
6
CONTINUOUS
10
5.94676
20
-3.59389
11
5.94676
21
-3.59389
0
LINE
8
BLACK
6
CONTINUOUS
10
5.94676
20
-3.59389
11
5.94681
21
-3.5936
0
LINE
8
BLACK
6
CONTINUOUS
10
5.94681
20
-3.5936
11
5.94683
21
-3.5936
0
LINE
8
BLACK
6
CONTINUOUS
10
5.94683
20
-3.5936
11
5.94684
21
-3.59352
0
LINE
8
BLACK
6
CONTINUOUS
10
5.94684
20
-3.59352
11
5.94683
21
-3.59351
0
LINE
8
BLACK
6
CONTINUOUS
10
5.94683
20
-3.59351
11
5.94687
21
-3.59322
0
LINE
8
BLACK
6
CONTINUOUS
10
5.94687
20
-3.59322
11
5.94687
21
-3.59088
0
LINE
8
BLACK
6
CONTINUOUS
10
5.94687
20
-3.59088
11
5.94691
21
-3.58991
0
LINE
8
BLACK
6
CONTINUOUS
10
5.94691
20
-3.58991
11
5.94696
21
-3.58854
0
LINE
8
BLACK
6
CONTINUOUS
10
5.94696
20
-3.58854
11
5.94696
21
-3.58854
0
LINE
8
BLACK
6
CONTINUOUS
10
5.94696
20
-3.58854
11
5.94692
21
-3.58825
0
LINE
8
BLACK
6
CONTINUOUS
10
5.94692
20
-3.58825
11
5.94694
21
-3.58825
0
LINE
8
BLACK
6
CONTINUOUS
10
5.94694
20
-3.58825
11
5.94687
21
-3.5877
0
LINE
8
BLACK
6
CONTINUOUS
10
5.94687
20
-3.5877
11
5.94687
21
-3.37993
0
LINE
8
BLACK
6
CONTINUOUS
10
5.94687
20
-3.37993
11
5.94761
21
-3.37763
0
LINE
8
BLACK
6
CONTINUOUS
10
5.94761
20
-3.37763
11
5.94841
21
-3.37682
0
LINE
8
BLACK
6
CONTINUOUS
10
5.94841
20
-3.37682
11
5.94893
21
-3.37642
0
LINE
8
BLACK
6
CONTINUOUS
10
5.94893
20
-3.37642
11
5.95248
21
-3.37374
0
LINE
8
BLACK
6
CONTINUOUS
10
5.95248
20
-3.37374
11
5.95608
21
-3.36899
0
LINE
8
BLACK
6
CONTINUOUS
10
5.95608
20
-3.36899
11
5.95826
21
-3.36345
0
LINE
8
BLACK
6
CONTINUOUS
10
5.95826
20
-3.36345
11
5.95868
21
-3.35996
0
LINE
8
BLACK
6
CONTINUOUS
10
5.95868
20
-3.35996
11
5.95868
21
-3.33295
0
LINE
8
BLACK
6
CONTINUOUS
10
5.95868
20
-3.33295
11
5.95826
21
-3.32947
0
LINE
8
BLACK
6
CONTINUOUS
10
5.95826
20
-3.32947
11
5.95608
21
-3.32392
0
LINE
8
BLACK
6
CONTINUOUS
10
5.95608
20
-3.32392
11
5.95248
21
-3.31918
0
LINE
8
BLACK
6
CONTINUOUS
10
5.95248
20
-3.31918
11
5.94773
21
-3.31558
0
LINE
8
BLACK
6
CONTINUOUS
10
5.94773
20
-3.31558
11
5.94773
21
-3.31558
0
LINE
8
BLACK
6
CONTINUOUS
10
5.94773
20
-3.31558
11
5.94773
21
-3.31558
0
LINE
8
BLACK
6
CONTINUOUS
10
5.94773
20
-3.31558
11
5.94219
21
-3.31339
0
LINE
8
BLACK
6
CONTINUOUS
10
5.94219
20
-3.31339
11
5.9387
21
-3.31297
0
LINE
8
BLACK
6
CONTINUOUS
10
5.9387
20
-3.31297
11
5.9387
21
-3.31297
0
LINE
8
BLACK
6
CONTINUOUS
10
5.9387
20
-3.31297
11
5.91408
21
-3.31297
0
LINE
8
BLACK
6
CONTINUOUS
10
5.91408
20
-3.31297
11
5.91179
21
-3.31223
0
LINE
8
BLACK
6
CONTINUOUS
10
5.91179
20
-3.31223
11
5.91132
21
-3.31183
0
LINE
8
BLACK
6
CONTINUOUS
10
5.91132
20
-3.31183
11
5.86738
21
-3.26789
0
LINE
8
BLACK
6
CONTINUOUS
10
5.86738
20
-3.26789
11
5.86629
21
-3.26574
0
LINE
8
BLACK
6
CONTINUOUS
10
5.86629
20
-3.26574
11
5.86624
21
-3.26513
0
LINE
8
BLACK
6
CONTINUOUS
10
5.86624
20
-3.26513
11
5.86624
21
-3.24622
0
LINE
8
BLACK
6
CONTINUOUS
10
5.86624
20
-3.24622
11
5.86624
21
-3.22622
0
LINE
8
BLACK
6
CONTINUOUS
10
5.86624
20
-3.22622
11
5.86624
21
-3.21823
0
LINE
8
BLACK
6
CONTINUOUS
10
5.86624
20
-3.21823
11
5.86624
21
-3.21823
0
LINE
8
BLACK
6
CONTINUOUS
10
5.86624
20
-3.21823
11
5.86613
21
-3.21724
0
LINE
8
BLACK
6
CONTINUOUS
10
5.86613
20
-3.21724
11
5.86434
21
-3.2132
0
LINE
8
BLACK
6
CONTINUOUS
10
5.86434
20
-3.2132
11
5.86121
21
-3.21007
0
LINE
8
BLACK
6
CONTINUOUS
10
5.86121
20
-3.21007
11
5.85717
21
-3.20828
0
LINE
8
BLACK
6
CONTINUOUS
10
5.85717
20
-3.20828
11
5.85716
21
-3.20828
0
LINE
8
BLACK
6
CONTINUOUS
10
5.85716
20
-3.20828
11
5.85716
21
-3.20828
0
LINE
8
BLACK
6
CONTINUOUS
10
5.85716
20
-3.20828
11
5.85618
21
-3.20817
0
LINE
8
BLACK
6
CONTINUOUS
10
5.85618
20
-3.20817
11
5.79264
21
-3.20817
0
LINE
8
BLACK
6
CONTINUOUS
10
5.79264
20
-3.20817
11
5.79264
21
-3.20817
0
LINE
8
BLACK
6
CONTINUOUS
10
5.79264
20
-3.20817
11
5.79165
21
-3.20828
0
LINE
8
BLACK
6
CONTINUOUS
10
5.79165
20
-3.20828
11
5.78761
21
-3.21007
0
LINE
8
BLACK
6
CONTINUOUS
10
5.78761
20
-3.21007
11
5.78448
21
-3.2132
0
LINE
8
BLACK
6
CONTINUOUS
10
5.78448
20
-3.2132
11
5.78269
21
-3.21724
0
LINE
8
BLACK
6
CONTINUOUS
10
5.78269
20
-3.21724
11
5.78258
21
-3.21823
0
LINE
8
BLACK
6
CONTINUOUS
10
5.78258
20
-3.21823
11
5.78258
21
-3.27916
0
LINE
8
BLACK
6
CONTINUOUS
10
5.78258
20
-3.27916
11
5.78183
21
-3.28145
0
LINE
8
BLACK
6
CONTINUOUS
10
5.78183
20
-3.28145
11
5.77989
21
-3.28287
0
LINE
8
BLACK
6
CONTINUOUS
10
5.77989
20
-3.28287
11
5.77748
21
-3.28287
0
LINE
8
BLACK
6
CONTINUOUS
10
5.77748
20
-3.28287
11
5.7774
21
-3.28284
0
LINE
8
BLACK
6
CONTINUOUS
10
5.7774
20
-3.28284
11
5.77618
21
-3.28242
0
LINE
8
BLACK
6
CONTINUOUS
10
5.77618
20
-3.28242
11
5.77579
21
-3.28228
0
LINE
8
BLACK
6
CONTINUOUS
10
5.77579
20
-3.28228
11
5.77551
21
-3.28223
0
LINE
8
BLACK
6
CONTINUOUS
10
5.77551
20
-3.28223
11
5.77551
21
-3.28221
0
LINE
8
BLACK
6
CONTINUOUS
10
5.77551
20
-3.28221
11
5.77542
21
-3.2822
0
LINE
8
BLACK
6
CONTINUOUS
10
5.77542
20
-3.2822
11
5.77542
21
-3.28221
0
LINE
8
BLACK
6
CONTINUOUS
10
5.77542
20
-3.28221
11
5.77513
21
-3.28217
0
LINE
8
BLACK
6
CONTINUOUS
10
5.77513
20
-3.28217
11
5.77513
21
-3.28217
0
LINE
8
BLACK
6
CONTINUOUS
10
5.77513
20
-3.28217
11
5.77278
21
-3.28217
0
LINE
8
BLACK
6
CONTINUOUS
10
5.77278
20
-3.28217
11
5.77042
21
-3.28208
0
LINE
8
BLACK
6
CONTINUOUS
10
5.77042
20
-3.28208
11
5.77042
21
-3.28208
0
LINE
8
BLACK
6
CONTINUOUS
10
5.77042
20
-3.28208
11
5.77013
21
-3.28207
0
LINE
8
BLACK
6
CONTINUOUS
10
5.77013
20
-3.28207
11
5.77013
21
-3.28197
0
LINE
8
BLACK
6
CONTINUOUS
10
5.77013
20
-3.28197
11
5.76821
21
-3.28158
0
LINE
8
BLACK
6
CONTINUOUS
10
5.76821
20
-3.28158
11
5.76659
21
-3.2798
0
LINE
8
BLACK
6
CONTINUOUS
10
5.76659
20
-3.2798
11
5.76624
21
-3.27819
0
LINE
8
BLACK
6
CONTINUOUS
10
5.76624
20
-3.27819
11
5.76624
21
-3.21823
0
LINE
8
BLACK
6
CONTINUOUS
10
5.76624
20
-3.21823
11
5.76613
21
-3.21724
0
LINE
8
BLACK
6
CONTINUOUS
10
5.76613
20
-3.21724
11
5.76434
21
-3.2132
0
LINE
8
BLACK
6
CONTINUOUS
10
5.76434
20
-3.2132
11
5.76121
21
-3.21007
0
LINE
8
BLACK
6
CONTINUOUS
10
5.76121
20
-3.21007
11
5.75716
21
-3.20828
0
LINE
8
BLACK
6
CONTINUOUS
10
5.75716
20
-3.20828
11
5.75716
21
-3.20828
0
LINE
8
BLACK
6
CONTINUOUS
10
5.75716
20
-3.20828
11
5.75716
21
-3.20828
0
LINE
8
BLACK
6
CONTINUOUS
10
5.75716
20
-3.20828
11
5.75618
21
-3.20817
0
LINE
8
BLACK
6
CONTINUOUS
10
5.75618
20
-3.20817
11
5.69264
21
-3.20817
0
LINE
8
BLACK
6
CONTINUOUS
10
5.69264
20
-3.20817
11
5.69264
21
-3.20817
0
LINE
8
BLACK
6
CONTINUOUS
10
5.69264
20
-3.20817
11
5.69165
21
-3.20828
0
LINE
8
BLACK
6
CONTINUOUS
10
5.69165
20
-3.20828
11
5.68761
21
-3.21007
0
LINE
8
BLACK
6
CONTINUOUS
10
5.68761
20
-3.21007
11
5.68448
21
-3.2132
0
LINE
8
BLACK
6
CONTINUOUS
10
5.68448
20
-3.2132
11
5.68269
21
-3.21724
0
LINE
8
BLACK
6
CONTINUOUS
10
5.68269
20
-3.21724
11
5.68258
21
-3.21823
0
LINE
8
BLACK
6
CONTINUOUS
10
5.68258
20
-3.21823
11
5.68258
21
-3.22808
0
LINE
8
BLACK
6
CONTINUOUS
10
5.68258
20
-3.22808
11
5.68183
21
-3.23037
0
LINE
8
BLACK
6
CONTINUOUS
10
5.68183
20
-3.23037
11
5.67989
21
-3.23179
0
LINE
8
BLACK
6
CONTINUOUS
10
5.67989
20
-3.23179
11
5.67875
21
-3.23191
0
LINE
8
BLACK
6
CONTINUOUS
10
5.67875
20
-3.23191
11
5.67875
21
-3.23197
0
LINE
8
BLACK
6
CONTINUOUS
10
5.67875
20
-3.23197
11
5.67846
21
-3.23198
0
LINE
8
BLACK
6
CONTINUOUS
10
5.67846
20
-3.23198
11
5.67615
21
-3.23242
0
LINE
8
BLACK
6
CONTINUOUS
10
5.67615
20
-3.23242
11
5.67382
21
-3.23277
0
LINE
8
BLACK
6
CONTINUOUS
10
5.67382
20
-3.23277
11
5.67354
21
-3.23285
0
LINE
8
BLACK
6
CONTINUOUS
10
5.67354
20
-3.23285
11
5.67353
21
-3.23284
0
LINE
8
BLACK
6
CONTINUOUS
10
5.67353
20
-3.23284
11
5.67345
21
-3.23287
0
LINE
8
BLACK
6
CONTINUOUS
10
5.67345
20
-3.23287
11
5.67345
21
-3.23288
0
LINE
8
BLACK
6
CONTINUOUS
10
5.67345
20
-3.23288
11
5.67318
21
-3.23298
0
LINE
8
BLACK
6
CONTINUOUS
10
5.67318
20
-3.23298
11
5.6711
21
-3.23408
0
LINE
8
BLACK
6
CONTINUOUS
10
5.6711
20
-3.23408
11
5.66898
21
-3.2351
0
LINE
8
BLACK
6
CONTINUOUS
10
5.66898
20
-3.2351
11
5.66873
21
-3.23527
0
LINE
8
BLACK
6
CONTINUOUS
10
5.66873
20
-3.23527
11
5.66873
21
-3.23525
0
LINE
8
BLACK
6
CONTINUOUS
10
5.66873
20
-3.23525
11
5.66865
21
-3.2353
0
LINE
8
BLACK
6
CONTINUOUS
10
5.66865
20
-3.2353
11
5.66866
21
-3.23532
0
LINE
8
BLACK
6
CONTINUOUS
10
5.66866
20
-3.23532
11
5.66843
21
-3.23549
0
LINE
8
BLACK
6
CONTINUOUS
10
5.66843
20
-3.23549
11
5.66676
21
-3.23716
0
LINE
8
BLACK
6
CONTINUOUS
10
5.66676
20
-3.23716
11
5.66504
21
-3.23876
0
LINE
8
BLACK
6
CONTINUOUS
10
5.66504
20
-3.23876
11
5.66485
21
-3.23899
0
LINE
8
BLACK
6
CONTINUOUS
10
5.66485
20
-3.23899
11
5.66484
21
-3.23897
0
LINE
8
BLACK
6
CONTINUOUS
10
5.66484
20
-3.23897
11
5.6645
21
-3.23941
0
LINE
8
BLACK
6
CONTINUOUS
10
5.6645
20
-3.23941
11
5.60793
21
-3.29599
0
LINE
8
BLACK
6
CONTINUOUS
10
5.60793
20
-3.29599
11
5.60578
21
-3.29708
0
LINE
8
BLACK
6
CONTINUOUS
10
5.60578
20
-3.29708
11
5.60517
21
-3.29713
0
LINE
8
BLACK
6
CONTINUOUS
10
5.60517
20
-3.29713
11
5.55615
21
-3.29713
0
LINE
8
BLACK
6
CONTINUOUS
10
5.55615
20
-3.29713
11
5.55593
21
-3.29712
0
LINE
8
BLACK
6
CONTINUOUS
10
5.55593
20
-3.29712
11
5.55437
21
-3.29694
0
LINE
8
BLACK
6
CONTINUOUS
10
5.55437
20
-3.29694
11
5.55436
21
-3.29694
0
LINE
8
BLACK
6
CONTINUOUS
10
5.55436
20
-3.29694
11
5.55205
21
-3.29738
0
LINE
8
BLACK
6
CONTINUOUS
10
5.55205
20
-3.29738
11
5.54972
21
-3.29773
0
LINE
8
BLACK
6
CONTINUOUS
10
5.54972
20
-3.29773
11
5.54945
21
-3.29782
0
LINE
8
BLACK
6
CONTINUOUS
10
5.54945
20
-3.29782
11
5.54944
21
-3.2978
0
LINE
8
BLACK
6
CONTINUOUS
10
5.54944
20
-3.2978
11
5.54935
21
-3.29783
0
LINE
8
BLACK
6
CONTINUOUS
10
5.54935
20
-3.29783
11
5.54936
21
-3.29784
0
LINE
8
BLACK
6
CONTINUOUS
10
5.54936
20
-3.29784
11
5.54908
21
-3.29794
0
LINE
8
BLACK
6
CONTINUOUS
10
5.54908
20
-3.29794
11
5.547
21
-3.29904
0
LINE
8
BLACK
6
CONTINUOUS
10
5.547
20
-3.29904
11
5.54488
21
-3.30006
0
LINE
8
BLACK
6
CONTINUOUS
10
5.54488
20
-3.30006
11
5.54464
21
-3.30023
0
LINE
8
BLACK
6
CONTINUOUS
10
5.54464
20
-3.30023
11
5.54463
21
-3.30021
0
LINE
8
BLACK
6
CONTINUOUS
10
5.54463
20
-3.30021
11
5.54456
21
-3.30027
0
LINE
8
BLACK
6
CONTINUOUS
10
5.54456
20
-3.30027
11
5.54457
21
-3.30028
0
LINE
8
BLACK
6
CONTINUOUS
10
5.54457
20
-3.30028
11
5.54433
21
-3.30045
0
LINE
8
BLACK
6
CONTINUOUS
10
5.54433
20
-3.30045
11
5.54267
21
-3.30212
0
LINE
8
BLACK
6
CONTINUOUS
10
5.54267
20
-3.30212
11
5.54094
21
-3.30372
0
LINE
8
BLACK
6
CONTINUOUS
10
5.54094
20
-3.30372
11
5.54076
21
-3.30395
0
LINE
8
BLACK
6
CONTINUOUS
10
5.54076
20
-3.30395
11
5.54075
21
-3.30394
0
LINE
8
BLACK
6
CONTINUOUS
10
5.54075
20
-3.30394
11
5.54041
21
-3.30437
0
LINE
8
BLACK
6
CONTINUOUS
10
5.54041
20
-3.30437
11
5.45905
21
-3.38573
0
LINE
8
BLACK
6
CONTINUOUS
10
5.45905
20
-3.38573
11
5.4569
21
-3.38683
0
LINE
8
BLACK
6
CONTINUOUS
10
5.4569
20
-3.38683
11
5.45452
21
-3.38645
0
LINE
8
BLACK
6
CONTINUOUS
10
5.45452
20
-3.38645
11
5.45282
21
-3.38475
0
LINE
8
BLACK
6
CONTINUOUS
10
5.45282
20
-3.38475
11
5.45243
21
-3.38251
0
LINE
8
BLACK
6
CONTINUOUS
10
5.45243
20
-3.38251
11
5.45247
21
-3.38217
0
LINE
8
BLACK
6
CONTINUOUS
10
5.45247
20
-3.38217
11
5.45298
21
-3.37795
0
LINE
8
BLACK
6
CONTINUOUS
10
5.45298
20
-3.37795
11
5.45217
21
-3.3713
0
LINE
8
BLACK
6
CONTINUOUS
10
5.45217
20
-3.3713
11
5.4498
21
-3.36504
0
LINE
8
BLACK
6
CONTINUOUS
10
5.4498
20
-3.36504
11
5.44599
21
-3.35953
0
LINE
8
BLACK
6
CONTINUOUS
10
5.44599
20
-3.35953
11
5.44098
21
-3.35509
0
LINE
8
BLACK
6
CONTINUOUS
10
5.44098
20
-3.35509
11
5.43505
21
-3.35198
0
LINE
8
BLACK
6
CONTINUOUS
10
5.43505
20
-3.35198
11
5.43505
21
-3.35198
0
LINE
8
BLACK
6
CONTINUOUS
10
5.43505
20
-3.35198
11
5.43505
21
-3.35198
0
LINE
8
BLACK
6
CONTINUOUS
10
5.43505
20
-3.35198
11
5.42855
21
-3.35037
0
LINE
8
BLACK
6
CONTINUOUS
10
5.42855
20
-3.35037
11
5.42855
21
-3.35037
0
LINE
8
BLACK
6
CONTINUOUS
10
5.42855
20
-3.35037
11
5.42185
21
-3.35037
0
LINE
8
BLACK
6
CONTINUOUS
10
5.42185
20
-3.35037
11
5.42185
21
-3.35037
0
LINE
8
BLACK
6
CONTINUOUS
10
5.42185
20
-3.35037
11
5.41535
21
-3.35198
0
LINE
8
BLACK
6
CONTINUOUS
10
5.41535
20
-3.35198
11
5.40942
21
-3.35509
0
LINE
8
BLACK
6
CONTINUOUS
10
5.40942
20
-3.35509
11
5.4044
21
-3.35953
0
LINE
8
BLACK
6
CONTINUOUS
10
5.4044
20
-3.35953
11
5.4044
21
-3.35953
0
LINE
8
BLACK
6
CONTINUOUS
10
5.4044
20
-3.35953
11
5.4017
21
-3.36345
0
LINE
8
BLACK
6
CONTINUOUS
10
5.4017
20
-3.36345
11
5.4006
21
-3.36504
0
LINE
8
BLACK
6
CONTINUOUS
10
5.4006
20
-3.36504
11
5.39849
21
-3.37061
0
LINE
8
BLACK
6
CONTINUOUS
10
5.39849
20
-3.37061
11
5.39822
21
-3.3713
0
LINE
8
BLACK
6
CONTINUOUS
10
5.39822
20
-3.3713
11
5.39742
21
-3.37795
0
LINE
8
BLACK
6
CONTINUOUS
10
5.39742
20
-3.37795
11
5.39742
21
-3.37819
0
LINE
8
BLACK
6
CONTINUOUS
10
5.39742
20
-3.37819
11
5.39732
21
-3.37819
0
LINE
8
BLACK
6
CONTINUOUS
10
5.39732
20
-3.37819
11
5.39693
21
-3.38017
0
LINE
8
BLACK
6
CONTINUOUS
10
5.39693
20
-3.38017
11
5.39517
21
-3.38181
0
LINE
8
BLACK
6
CONTINUOUS
10
5.39517
20
-3.38181
11
5.39353
21
-3.38217
0
LINE
8
BLACK
6
CONTINUOUS
10
5.39353
20
-3.38217
11
5.37323
21
-3.38217
0
LINE
8
BLACK
6
CONTINUOUS
10
5.37323
20
-3.38217
11
5.37094
21
-3.38142
0
LINE
8
BLACK
6
CONTINUOUS
10
5.37094
20
-3.38142
11
5.36968
21
-3.37969
0
LINE
8
BLACK
6
CONTINUOUS
10
5.36968
20
-3.37969
11
5.36963
21
-3.37972
0
LINE
8
BLACK
6
CONTINUOUS
10
5.36963
20
-3.37972
11
5.36885
21
-3.37795
0
LINE
8
BLACK
6
CONTINUOUS
10
5.36885
20
-3.37795
11
5.36772
21
-3.3754
0
LINE
8
BLACK
6
CONTINUOUS
10
5.36772
20
-3.3754
11
5.36506
21
-3.37274
0
LINE
8
BLACK
6
CONTINUOUS
10
5.36506
20
-3.37274
11
5.36397
21
-3.3706
0
LINE
8
BLACK
6
CONTINUOUS
10
5.36397
20
-3.3706
11
5.36435
21
-3.36822
0
LINE
8
BLACK
6
CONTINUOUS
10
5.36435
20
-3.36822
11
5.36506
21
-3.36723
0
LINE
8
BLACK
6
CONTINUOUS
10
5.36506
20
-3.36723
11
5.36771
21
-3.36459
0
LINE
8
BLACK
6
CONTINUOUS
10
5.36771
20
-3.36459
11
5.36949
21
-3.36055
0
LINE
8
BLACK
6
CONTINUOUS
10
5.36949
20
-3.36055
11
5.36961
21
-3.35956
0
LINE
8
BLACK
6
CONTINUOUS
10
5.36961
20
-3.35956
11
5.36961
21
-3.35956
0
LINE
8
BLACK
6
CONTINUOUS
10
5.36961
20
-3.35956
11
5.36961
21
-3.355
0
LINE
8
BLACK
6
CONTINUOUS
10
5.36961
20
-3.355
11
5.36961
21
-3.355
0
LINE
8
BLACK
6
CONTINUOUS
10
5.36961
20
-3.355
11
5.3578
21
-3.355
0
LINE
8
BLACK
6
CONTINUOUS
10
5.3578
20
-3.355
11
5.3578
21
-3.3578
0
LINE
8
BLACK
6
CONTINUOUS
10
5.3578
20
-3.3578
11
5.29283
21
-3.3578
0
LINE
8
BLACK
6
CONTINUOUS
10
5.29283
20
-3.3578
11
5.29283
21
-3.355
0
LINE
8
BLACK
6
CONTINUOUS
10
5.29283
20
-3.355
11
5.28102
21
-3.355
0
LINE
8
BLACK
6
CONTINUOUS
10
5.28102
20
-3.355
11
5.28102
21
-3.355
0
LINE
8
BLACK
6
CONTINUOUS
10
5.28102
20
-3.355
11
5.28102
21
-3.35956
0
LINE
8
BLACK
6
CONTINUOUS
10
5.28102
20
-3.35956
11
5.28114
21
-3.36055
0
LINE
8
BLACK
6
CONTINUOUS
10
5.28114
20
-3.36055
11
5.28292
21
-3.36459
0
LINE
8
BLACK
6
CONTINUOUS
10
5.28292
20
-3.36459
11
5.28557
21
-3.36723
0
LINE
8
BLACK
6
CONTINUOUS
10
5.28557
20
-3.36723
11
5.28666
21
-3.36938
0
LINE
8
BLACK
6
CONTINUOUS
10
5.28666
20
-3.36938
11
5.28628
21
-3.37176
0
LINE
8
BLACK
6
CONTINUOUS
10
5.28628
20
-3.37176
11
5.28557
21
-3.37274
0
LINE
8
BLACK
6
CONTINUOUS
10
5.28557
20
-3.37274
11
5.28291
21
-3.3754
0
LINE
8
BLACK
6
CONTINUOUS
10
5.28291
20
-3.3754
11
5.28291
21
-3.3754
0
LINE
8
BLACK
6
CONTINUOUS
10
5.28291
20
-3.3754
11
5.28112
21
-3.37945
0
LINE
8
BLACK
6
CONTINUOUS
10
5.28112
20
-3.37945
11
5.281
21
-3.38044
0
LINE
8
BLACK
6
CONTINUOUS
10
5.281
20
-3.38044
11
5.281
21
-3.40956
0
LINE
8
BLACK
6
CONTINUOUS
10
5.281
20
-3.40956
11
5.281
21
-3.40956
0
LINE
8
BLACK
6
CONTINUOUS
10
5.281
20
-3.40956
11
5.28112
21
-3.41055
0
LINE
8
BLACK
6
CONTINUOUS
10
5.28112
20
-3.41055
11
5.2818
21
-3.41208
0
LINE
8
BLACK
6
CONTINUOUS
10
5.2818
20
-3.41208
11
5.28291
21
-3.4146
0
LINE
8
BLACK
6
CONTINUOUS
10
5.28291
20
-3.4146
11
5.28555
21
-3.41724
0
LINE
8
BLACK
6
CONTINUOUS
10
5.28555
20
-3.41724
11
5.28665
21
-3.41939
0
LINE
8
BLACK
6
CONTINUOUS
10
5.28665
20
-3.41939
11
5.28627
21
-3.42177
0
LINE
8
BLACK
6
CONTINUOUS
10
5.28627
20
-3.42177
11
5.28555
21
-3.42276
0
LINE
8
BLACK
6
CONTINUOUS
10
5.28555
20
-3.42276
11
5.28382
21
-3.42448
0
LINE
8
BLACK
6
CONTINUOUS
10
5.28382
20
-3.42448
11
5.28291
21
-3.4254
0
LINE
8
BLACK
6
CONTINUOUS
10
5.28291
20
-3.4254
11
5.28112
21
-3.42945
0
LINE
8
BLACK
6
CONTINUOUS
10
5.28112
20
-3.42945
11
5.281
21
-3.43044
0
LINE
8
BLACK
6
CONTINUOUS
10
5.281
20
-3.43044
11
5.281
21
-3.45956
0
LINE
8
BLACK
6
CONTINUOUS
10
5.281
20
-3.45956
11
5.281
21
-3.45956
0
LINE
8
BLACK
6
CONTINUOUS
10
5.281
20
-3.45956
11
5.28112
21
-3.46055
0
LINE
8
BLACK
6
CONTINUOUS
10
5.28112
20
-3.46055
11
5.28219
21
-3.46297
0
LINE
8
BLACK
6
CONTINUOUS
10
5.28219
20
-3.46297
11
5.28291
21
-3.4646
0
LINE
8
BLACK
6
CONTINUOUS
10
5.28291
20
-3.4646
11
5.28555
21
-3.46724
0
LINE
8
BLACK
6
CONTINUOUS
10
5.28555
20
-3.46724
11
5.28665
21
-3.46939
0
LINE
8
BLACK
6
CONTINUOUS
10
5.28665
20
-3.46939
11
5.28627
21
-3.47177
0
LINE
8
BLACK
6
CONTINUOUS
10
5.28627
20
-3.47177
11
5.28555
21
-3.47276
0
LINE
8
BLACK
6
CONTINUOUS
10
5.28555
20
-3.47276
11
5.28291
21
-3.4754
0
LINE
8
BLACK
6
CONTINUOUS
10
5.28291
20
-3.4754
11
5.28291
21
-3.4754
0
LINE
8
BLACK
6
CONTINUOUS
10
5.28291
20
-3.4754
11
5.28291
21
-3.4754
0
LINE
8
BLACK
6
CONTINUOUS
10
5.28291
20
-3.4754
11
5.28215
21
-3.47712
0
LINE
8
BLACK
6
CONTINUOUS
10
5.28215
20
-3.47712
11
5.28112
21
-3.47945
0
LINE
8
BLACK
6
CONTINUOUS
10
5.28112
20
-3.47945
11
5.281
21
-3.48044
0
LINE
8
BLACK
6
CONTINUOUS
10
5.281
20
-3.48044
11
5.281
21
-3.50956
0
LINE
8
BLACK
6
CONTINUOUS
10
5.281
20
-3.50956
11
5.281
21
-3.50956
0
LINE
8
BLACK
6
CONTINUOUS
10
5.5726
20
-3.62894
11
5.5726
21
-3.64078
0
LINE
8
BLACK
6
CONTINUOUS
10
5.5726
20
-3.64078
11
5.57621
21
-3.6415
0
LINE
8
BLACK
6
CONTINUOUS
10
5.57621
20
-3.6415
11
5.5794
21
-3.64363
0
LINE
8
BLACK
6
CONTINUOUS
10
5.5794
20
-3.64363
11
5.58153
21
-3.64682
0
LINE
8
BLACK
6
CONTINUOUS
10
5.58153
20
-3.64682
11
5.58228
21
-3.65059
0
LINE
8
BLACK
6
CONTINUOUS
10
5.58228
20
-3.65059
11
5.58228
21
-3.65929
0
LINE
8
BLACK
6
CONTINUOUS
10
5.58228
20
-3.65929
11
5.59409
21
-3.65929
0
LINE
8
BLACK
6
CONTINUOUS
10
5.59409
20
-3.65929
11
5.59409
21
-3.65929
0
LINE
8
BLACK
6
CONTINUOUS
10
5.59409
20
-3.65929
11
5.59409
21
-3.6489
0
LINE
8
BLACK
6
CONTINUOUS
10
5.59409
20
-3.6489
11
5.59409
21
-3.6489
0
LINE
8
BLACK
6
CONTINUOUS
10
5.59409
20
-3.6489
11
5.59368
21
-3.64542
0
LINE
8
BLACK
6
CONTINUOUS
10
5.59368
20
-3.64542
11
5.59149
21
-3.63988
0
LINE
8
BLACK
6
CONTINUOUS
10
5.59149
20
-3.63988
11
5.5879
21
-3.63514
0
LINE
8
BLACK
6
CONTINUOUS
10
5.5879
20
-3.63514
11
5.58315
21
-3.63154
0
LINE
8
BLACK
6
CONTINUOUS
10
5.58315
20
-3.63154
11
5.57762
21
-3.62935
0
LINE
8
BLACK
6
CONTINUOUS
10
5.57762
20
-3.62935
11
5.57414
21
-3.62894
0
LINE
8
BLACK
6
CONTINUOUS
10
5.57414
20
-3.62894
11
5.5726
21
-3.62894
0
LINE
8
BLACK
6
CONTINUOUS
10
5.5726
20
-3.62894
11
5.5726
21
-3.62894
0
LINE
8
BLACK
6
CONTINUOUS
10
5.54758
20
-3.62935
11
5.54204
21
-3.63154
0
LINE
8
BLACK
6
CONTINUOUS
10
5.54204
20
-3.63154
11
5.5373
21
-3.63514
0
LINE
8
BLACK
6
CONTINUOUS
10
5.5373
20
-3.63514
11
5.5337
21
-3.63988
0
LINE
8
BLACK
6
CONTINUOUS
10
5.5337
20
-3.63988
11
5.53152
21
-3.64542
0
LINE
8
BLACK
6
CONTINUOUS
10
5.53152
20
-3.64542
11
5.5311
21
-3.6489
0
LINE
8
BLACK
6
CONTINUOUS
10
5.5311
20
-3.6489
11
5.5311
21
-3.65929
0
LINE
8
BLACK
6
CONTINUOUS
10
5.5311
20
-3.65929
11
5.5311
21
-3.65929
0
LINE
8
BLACK
6
CONTINUOUS
10
5.5311
20
-3.65929
11
5.54291
21
-3.65929
0
LINE
8
BLACK
6
CONTINUOUS
10
5.54291
20
-3.65929
11
5.54291
21
-3.65059
0
LINE
8
BLACK
6
CONTINUOUS
10
5.54291
20
-3.65059
11
5.54366
21
-3.64682
0
LINE
8
BLACK
6
CONTINUOUS
10
5.54366
20
-3.64682
11
5.5458
21
-3.64363
0
LINE
8
BLACK
6
CONTINUOUS
10
5.5458
20
-3.64363
11
5.54899
21
-3.6415
0
LINE
8
BLACK
6
CONTINUOUS
10
5.54899
20
-3.6415
11
5.5526
21
-3.64078
0
LINE
8
BLACK
6
CONTINUOUS
10
5.5526
20
-3.64078
11
5.5526
21
-3.62894
0
LINE
8
BLACK
6
CONTINUOUS
10
5.5526
20
-3.62894
11
5.5526
21
-3.62894
0
LINE
8
BLACK
6
CONTINUOUS
10
5.5526
20
-3.62894
11
5.55106
21
-3.62894
0
LINE
8
BLACK
6
CONTINUOUS
10
5.55106
20
-3.62894
11
5.54758
21
-3.62935
0
LINE
8
BLACK
6
CONTINUOUS
10
5.4737
20
-3.6004
11
5.47412
21
-3.60388
0
LINE
8
BLACK
6
CONTINUOUS
10
5.47412
20
-3.60388
11
5.4763
21
-3.60941
0
LINE
8
BLACK
6
CONTINUOUS
10
5.4763
20
-3.60941
11
5.4799
21
-3.61416
0
LINE
8
BLACK
6
CONTINUOUS
10
5.4799
20
-3.61416
11
5.48464
21
-3.61775
0
LINE
8
BLACK
6
CONTINUOUS
10
5.48464
20
-3.61775
11
5.49018
21
-3.61994
0
LINE
8
BLACK
6
CONTINUOUS
10
5.49018
20
-3.61994
11
5.49366
21
-3.62035
0
LINE
8
BLACK
6
CONTINUOUS
10
5.49366
20
-3.62035
11
5.49366
21
-3.62035
0
LINE
8
BLACK
6
CONTINUOUS
10
5.49366
20
-3.62035
11
5.4952
21
-3.62035
0
LINE
8
BLACK
6
CONTINUOUS
10
5.4952
20
-3.62035
11
5.4952
21
-3.62035
0
LINE
8
BLACK
6
CONTINUOUS
10
5.4952
20
-3.62035
11
5.4952
21
-3.62035
0
LINE
8
BLACK
6
CONTINUOUS
10
5.4952
20
-3.62035
11
5.4952
21
-3.60851
0
LINE
8
BLACK
6
CONTINUOUS
10
5.4952
20
-3.60851
11
5.49159
21
-3.60779
0
LINE
8
BLACK
6
CONTINUOUS
10
5.49159
20
-3.60779
11
5.48839
21
-3.60566
0
LINE
8
BLACK
6
CONTINUOUS
10
5.48839
20
-3.60566
11
5.48626
21
-3.60247
0
LINE
8
BLACK
6
CONTINUOUS
10
5.48626
20
-3.60247
11
5.48551
21
-3.5987
0
LINE
8
BLACK
6
CONTINUOUS
10
5.48551
20
-3.5987
11
5.48551
21
-3.59
0
LINE
8
BLACK
6
CONTINUOUS
10
5.48551
20
-3.59
11
5.4737
21
-3.59
0
LINE
8
BLACK
6
CONTINUOUS
10
5.4737
20
-3.59
11
5.4737
21
-3.6004
0
LINE
8
BLACK
6
CONTINUOUS
10
5.5152
20
-3.53965
11
5.5152
21
-3.55149
0
LINE
8
BLACK
6
CONTINUOUS
10
5.5152
20
-3.55149
11
5.51881
21
-3.55221
0
LINE
8
BLACK
6
CONTINUOUS
10
5.51881
20
-3.55221
11
5.522
21
-3.55434
0
LINE
8
BLACK
6
CONTINUOUS
10
5.522
20
-3.55434
11
5.52413
21
-3.55753
0
LINE
8
BLACK
6
CONTINUOUS
10
5.52413
20
-3.55753
11
5.52488
21
-3.5613
0
LINE
8
BLACK
6
CONTINUOUS
10
5.52488
20
-3.5613
11
5.52488
21
-3.57
0
LINE
8
BLACK
6
CONTINUOUS
10
5.52488
20
-3.57
11
5.53669
21
-3.57
0
LINE
8
BLACK
6
CONTINUOUS
10
5.53669
20
-3.57
11
5.53669
21
-3.57
0
LINE
8
BLACK
6
CONTINUOUS
10
5.53669
20
-3.57
11
5.53669
21
-3.5596
0
LINE
8
BLACK
6
CONTINUOUS
10
5.53669
20
-3.5596
11
5.53669
21
-3.5596
0
LINE
8
BLACK
6
CONTINUOUS
10
5.53669
20
-3.5596
11
5.53628
21
-3.55612
0
LINE
8
BLACK
6
CONTINUOUS
10
5.53628
20
-3.55612
11
5.53409
21
-3.55059
0
LINE
8
BLACK
6
CONTINUOUS
10
5.53409
20
-3.55059
11
5.53049
21
-3.54584
0
LINE
8
BLACK
6
CONTINUOUS
10
5.53049
20
-3.54584
11
5.52575
21
-3.54225
0
LINE
8
BLACK
6
CONTINUOUS
10
5.52575
20
-3.54225
11
5.52021
21
-3.54006
0
LINE
8
BLACK
6
CONTINUOUS
10
5.52021
20
-3.54006
11
5.51673
21
-3.53965
0
LINE
8
BLACK
6
CONTINUOUS
10
5.51673
20
-3.53965
11
5.5152
21
-3.53965
0
LINE
8
BLACK
6
CONTINUOUS
10
5.5152
20
-3.53965
11
5.5152
21
-3.53965
0
LINE
8
BLACK
6
CONTINUOUS
10
5.49018
20
-3.54006
11
5.48464
21
-3.54225
0
LINE
8
BLACK
6
CONTINUOUS
10
5.48464
20
-3.54225
11
5.4799
21
-3.54584
0
LINE
8
BLACK
6
CONTINUOUS
10
5.4799
20
-3.54584
11
5.4763
21
-3.55059
0
LINE
8
BLACK
6
CONTINUOUS
10
5.4763
20
-3.55059
11
5.47412
21
-3.55612
0
LINE
8
BLACK
6
CONTINUOUS
10
5.47412
20
-3.55612
11
5.4737
21
-3.5596
0
LINE
8
BLACK
6
CONTINUOUS
10
5.4737
20
-3.5596
11
5.4737
21
-3.57
0
LINE
8
BLACK
6
CONTINUOUS
10
5.4737
20
-3.57
11
5.4737
21
-3.57
0
LINE
8
BLACK
6
CONTINUOUS
10
5.4737
20
-3.57
11
5.48551
21
-3.57
0
LINE
8
BLACK
6
CONTINUOUS
10
5.48551
20
-3.57
11
5.48551
21
-3.5613
0
LINE
8
BLACK
6
CONTINUOUS
10
5.48551
20
-3.5613
11
5.48626
21
-3.55753
0
LINE
8
BLACK
6
CONTINUOUS
10
5.48626
20
-3.55753
11
5.48839
21
-3.55434
0
LINE
8
BLACK
6
CONTINUOUS
10
5.48839
20
-3.55434
11
5.49159
21
-3.55221
0
LINE
8
BLACK
6
CONTINUOUS
10
5.49159
20
-3.55221
11
5.4952
21
-3.55149
0
LINE
8
BLACK
6
CONTINUOUS
10
5.4952
20
-3.55149
11
5.4952
21
-3.53965
0
LINE
8
BLACK
6
CONTINUOUS
10
5.4952
20
-3.53965
11
5.4952
21
-3.53965
0
LINE
8
BLACK
6
CONTINUOUS
10
5.4952
20
-3.53965
11
5.49366
21
-3.53965
0
LINE
8
BLACK
6
CONTINUOUS
10
5.49366
20
-3.53965
11
5.49018
21
-3.54006
0
LINE
8
BLACK
6
CONTINUOUS
10
5.33531
20
-3.32039
11
5.33531
21
-3.3322
0
LINE
8
BLACK
6
CONTINUOUS
10
5.33531
20
-3.3322
11
5.3578
21
-3.3322
0
LINE
8
BLACK
6
CONTINUOUS
10
5.3578
20
-3.3322
11
5.3578
21
-3.335
0
LINE
8
BLACK
6
CONTINUOUS
10
5.3578
20
-3.335
11
5.36961
21
-3.335
0
LINE
8
BLACK
6
CONTINUOUS
10
5.36961
20
-3.335
11
5.36961
21
-3.335
0
LINE
8
BLACK
6
CONTINUOUS
10
5.36961
20
-3.335
11
5.36961
21
-3.33044
0
LINE
8
BLACK
6
CONTINUOUS
10
5.36961
20
-3.33044
11
5.36961
21
-3.33044
0
LINE
8
BLACK
6
CONTINUOUS
10
5.36961
20
-3.33044
11
5.36949
21
-3.32945
0
LINE
8
BLACK
6
CONTINUOUS
10
5.36949
20
-3.32945
11
5.36771
21
-3.32541
0
LINE
8
BLACK
6
CONTINUOUS
10
5.36771
20
-3.32541
11
5.36459
21
-3.32229
0
LINE
8
BLACK
6
CONTINUOUS
10
5.36459
20
-3.32229
11
5.36055
21
-3.32051
0
LINE
8
BLACK
6
CONTINUOUS
10
5.36055
20
-3.32051
11
5.35956
21
-3.32039
0
LINE
8
BLACK
6
CONTINUOUS
10
5.35956
20
-3.32039
11
5.33531
21
-3.32039
0
LINE
8
BLACK
6
CONTINUOUS
10
5.33531
20
-3.32039
11
5.33531
21
-3.32039
0
LINE
8
BLACK
6
CONTINUOUS
10
5.89173
20
-3.24973
11
5.89215
21
-3.25321
0
LINE
8
BLACK
6
CONTINUOUS
10
5.89215
20
-3.25321
11
5.89433
21
-3.25874
0
LINE
8
BLACK
6
CONTINUOUS
10
5.89433
20
-3.25874
11
5.89793
21
-3.26349
0
LINE
8
BLACK
6
CONTINUOUS
10
5.89793
20
-3.26349
11
5.90267
21
-3.26708
0
LINE
8
BLACK
6
CONTINUOUS
10
5.90267
20
-3.26708
11
5.90821
21
-3.26927
0
LINE
8
BLACK
6
CONTINUOUS
10
5.90821
20
-3.26927
11
5.91169
21
-3.26968
0
LINE
8
BLACK
6
CONTINUOUS
10
5.91169
20
-3.26968
11
5.91169
21
-3.26969
0
LINE
8
BLACK
6
CONTINUOUS
10
5.91169
20
-3.26969
11
5.9152
21
-3.26969
0
LINE
8
BLACK
6
CONTINUOUS
10
5.9152
20
-3.26969
11
5.9152
21
-3.26968
0
LINE
8
BLACK
6
CONTINUOUS
10
5.9152
20
-3.26968
11
5.9152
21
-3.26968
0
LINE
8
BLACK
6
CONTINUOUS
10
5.9152
20
-3.26968
11
5.9152
21
-3.25787
0
LINE
8
BLACK
6
CONTINUOUS
10
5.9152
20
-3.25787
11
5.91339
21
-3.25787
0
LINE
8
BLACK
6
CONTINUOUS
10
5.91339
20
-3.25787
11
5.90962
21
-3.25712
0
LINE
8
BLACK
6
CONTINUOUS
10
5.90962
20
-3.25712
11
5.90643
21
-3.25499
0
LINE
8
BLACK
6
CONTINUOUS
10
5.90643
20
-3.25499
11
5.90429
21
-3.2518
0
LINE
8
BLACK
6
CONTINUOUS
10
5.90429
20
-3.2518
11
5.90354
21
-3.24803
0
LINE
8
BLACK
6
CONTINUOUS
10
5.90354
20
-3.24803
11
5.90354
21
-3.24622
0
LINE
8
BLACK
6
CONTINUOUS
10
5.90354
20
-3.24622
11
5.89173
21
-3.24622
0
LINE
8
BLACK
6
CONTINUOUS
10
5.89173
20
-3.24622
11
5.89173
21
-3.24973
0
LINE
8
BLACK
6
CONTINUOUS
10
5.9352
20
-3.20276
11
5.9352
21
-3.21457
0
LINE
8
BLACK
6
CONTINUOUS
10
5.9352
20
-3.21457
11
5.93701
21
-3.21457
0
LINE
8
BLACK
6
CONTINUOUS
10
5.93701
20
-3.21457
11
5.94077
21
-3.21532
0
LINE
8
BLACK
6
CONTINUOUS
10
5.94077
20
-3.21532
11
5.94397
21
-3.21745
0
LINE
8
BLACK
6
CONTINUOUS
10
5.94397
20
-3.21745
11
5.9461
21
-3.22064
0
LINE
8
BLACK
6
CONTINUOUS
10
5.9461
20
-3.22064
11
5.94685
21
-3.22441
0
LINE
8
BLACK
6
CONTINUOUS
10
5.94685
20
-3.22441
11
5.94685
21
-3.22622
0
LINE
8
BLACK
6
CONTINUOUS
10
5.94685
20
-3.22622
11
5.95866
21
-3.22622
0
LINE
8
BLACK
6
CONTINUOUS
10
5.95866
20
-3.22622
11
5.95866
21
-3.22622
0
LINE
8
BLACK
6
CONTINUOUS
10
5.95866
20
-3.22622
11
5.95866
21
-3.22271
0
LINE
8
BLACK
6
CONTINUOUS
10
5.95866
20
-3.22271
11
5.95866
21
-3.22271
0
LINE
8
BLACK
6
CONTINUOUS
10
5.95866
20
-3.22271
11
5.95824
21
-3.21923
0
LINE
8
BLACK
6
CONTINUOUS
10
5.95824
20
-3.21923
11
5.95606
21
-3.2137
0
LINE
8
BLACK
6
CONTINUOUS
10
5.95606
20
-3.2137
11
5.95246
21
-3.20895
0
LINE
8
BLACK
6
CONTINUOUS
10
5.95246
20
-3.20895
11
5.94772
21
-3.20536
0
LINE
8
BLACK
6
CONTINUOUS
10
5.94772
20
-3.20536
11
5.94218
21
-3.20317
0
LINE
8
BLACK
6
CONTINUOUS
10
5.94218
20
-3.20317
11
5.9387
21
-3.20276
0
LINE
8
BLACK
6
CONTINUOUS
10
5.9387
20
-3.20276
11
5.9352
21
-3.20276
0
LINE
8
BLACK
6
CONTINUOUS
10
5.9352
20
-3.20276
11
5.9352
21
-3.20276
0
LINE
8
BLACK
6
CONTINUOUS
10
5.5726
20
-3.70965
11
5.57414
21
-3.70965
0
LINE
8
BLACK
6
CONTINUOUS
10
5.57414
20
-3.70965
11
5.57414
21
-3.70965
0
LINE
8
BLACK
6
CONTINUOUS
10
5.57414
20
-3.70965
11
5.57762
21
-3.70923
0
LINE
8
BLACK
6
CONTINUOUS
10
5.57762
20
-3.70923
11
5.58315
21
-3.70704
0
LINE
8
BLACK
6
CONTINUOUS
10
5.58315
20
-3.70704
11
5.5879
21
-3.70345
0
LINE
8
BLACK
6
CONTINUOUS
10
5.5879
20
-3.70345
11
5.59149
21
-3.6987
0
LINE
8
BLACK
6
CONTINUOUS
10
5.59149
20
-3.6987
11
5.59368
21
-3.69317
0
LINE
8
BLACK
6
CONTINUOUS
10
5.59368
20
-3.69317
11
5.59409
21
-3.68969
0
LINE
8
BLACK
6
CONTINUOUS
10
5.59409
20
-3.68969
11
5.59409
21
-3.68969
0
LINE
8
BLACK
6
CONTINUOUS
10
5.59409
20
-3.68969
11
5.59409
21
-3.67929
0
LINE
8
BLACK
6
CONTINUOUS
10
5.59409
20
-3.67929
11
5.58228
21
-3.67929
0
LINE
8
BLACK
6
CONTINUOUS
10
5.58228
20
-3.67929
11
5.58228
21
-3.68799
0
LINE
8
BLACK
6
CONTINUOUS
10
5.58228
20
-3.68799
11
5.58153
21
-3.69176
0
LINE
8
BLACK
6
CONTINUOUS
10
5.58153
20
-3.69176
11
5.5794
21
-3.69495
0
LINE
8
BLACK
6
CONTINUOUS
10
5.5794
20
-3.69495
11
5.57621
21
-3.69709
0
LINE
8
BLACK
6
CONTINUOUS
10
5.57621
20
-3.69709
11
5.5726
21
-3.6978
0
LINE
8
BLACK
6
CONTINUOUS
10
5.5726
20
-3.6978
11
5.5726
21
-3.70965
0
LINE
8
BLACK
6
CONTINUOUS
10
5.5726
20
-3.70965
11
5.5726
21
-3.70965
0
LINE
8
BLACK
6
CONTINUOUS
10
5.5152
20
-3.62035
11
5.51673
21
-3.62035
0
LINE
8
BLACK
6
CONTINUOUS
10
5.51673
20
-3.62035
11
5.51673
21
-3.62035
0
LINE
8
BLACK
6
CONTINUOUS
10
5.51673
20
-3.62035
11
5.52021
21
-3.61994
0
LINE
8
BLACK
6
CONTINUOUS
10
5.52021
20
-3.61994
11
5.52575
21
-3.61775
0
LINE
8
BLACK
6
CONTINUOUS
10
5.52575
20
-3.61775
11
5.53049
21
-3.61416
0
LINE
8
BLACK
6
CONTINUOUS
10
5.53049
20
-3.61416
11
5.53409
21
-3.60941
0
LINE
8
BLACK
6
CONTINUOUS
10
5.53409
20
-3.60941
11
5.53628
21
-3.60388
0
LINE
8
BLACK
6
CONTINUOUS
10
5.53628
20
-3.60388
11
5.53669
21
-3.6004
0
LINE
8
BLACK
6
CONTINUOUS
10
5.53669
20
-3.6004
11
5.53669
21
-3.6004
0
LINE
8
BLACK
6
CONTINUOUS
10
5.53669
20
-3.6004
11
5.53669
21
-3.59
0
LINE
8
BLACK
6
CONTINUOUS
10
5.53669
20
-3.59
11
5.53669
21
-3.59
0
LINE
8
BLACK
6
CONTINUOUS
10
5.53669
20
-3.59
11
5.52488
21
-3.59
0
LINE
8
BLACK
6
CONTINUOUS
10
5.52488
20
-3.59
11
5.52488
21
-3.5987
0
LINE
8
BLACK
6
CONTINUOUS
10
5.52488
20
-3.5987
11
5.52413
21
-3.60247
0
LINE
8
BLACK
6
CONTINUOUS
10
5.52413
20
-3.60247
11
5.522
21
-3.60566
0
LINE
8
BLACK
6
CONTINUOUS
10
5.522
20
-3.60566
11
5.51881
21
-3.60779
0
LINE
8
BLACK
6
CONTINUOUS
10
5.51881
20
-3.60779
11
5.5152
21
-3.60851
0
LINE
8
BLACK
6
CONTINUOUS
10
5.5152
20
-3.60851
11
5.5152
21
-3.62035
0
LINE
8
BLACK
6
CONTINUOUS
10
5.5152
20
-3.62035
11
5.5152
21
-3.62035
0
LINE
8
BLACK
6
CONTINUOUS
10
5.28102
20
-3.335
11
5.29283
21
-3.335
0
LINE
8
BLACK
6
CONTINUOUS
10
5.29283
20
-3.335
11
5.29283
21
-3.3322
0
LINE
8
BLACK
6
CONTINUOUS
10
5.29283
20
-3.3322
11
5.31531
21
-3.3322
0
LINE
8
BLACK
6
CONTINUOUS
10
5.31531
20
-3.3322
11
5.31531
21
-3.32039
0
LINE
8
BLACK
6
CONTINUOUS
10
5.31531
20
-3.32039
11
5.31531
21
-3.32039
0
LINE
8
BLACK
6
CONTINUOUS
10
5.31531
20
-3.32039
11
5.29107
21
-3.32039
0
LINE
8
BLACK
6
CONTINUOUS
10
5.29107
20
-3.32039
11
5.29107
21
-3.32039
0
LINE
8
BLACK
6
CONTINUOUS
10
5.29107
20
-3.32039
11
5.29008
21
-3.32051
0
LINE
8
BLACK
6
CONTINUOUS
10
5.29008
20
-3.32051
11
5.28604
21
-3.32229
0
LINE
8
BLACK
6
CONTINUOUS
10
5.28604
20
-3.32229
11
5.28292
21
-3.32541
0
LINE
8
BLACK
6
CONTINUOUS
10
5.28292
20
-3.32541
11
5.28114
21
-3.32945
0
LINE
8
BLACK
6
CONTINUOUS
10
5.28114
20
-3.32945
11
5.28102
21
-3.33044
0
LINE
8
BLACK
6
CONTINUOUS
10
5.28102
20
-3.33044
11
5.28102
21
-3.335
0
LINE
8
BLACK
6
CONTINUOUS
10
5.28102
20
-3.335
11
5.28102
21
-3.335
0
LINE
8
BLACK
6
CONTINUOUS
10
5.9352
20
-3.26969
11
5.9387
21
-3.26969
0
LINE
8
BLACK
6
CONTINUOUS
10
5.9387
20
-3.26969
11
5.9387
21
-3.26968
0
LINE
8
BLACK
6
CONTINUOUS
10
5.9387
20
-3.26968
11
5.94218
21
-3.26927
0
LINE
8
BLACK
6
CONTINUOUS
10
5.94218
20
-3.26927
11
5.94772
21
-3.26708
0
LINE
8
BLACK
6
CONTINUOUS
10
5.94772
20
-3.26708
11
5.95246
21
-3.26349
0
LINE
8
BLACK
6
CONTINUOUS
10
5.95246
20
-3.26349
11
5.95606
21
-3.25874
0
LINE
8
BLACK
6
CONTINUOUS
10
5.95606
20
-3.25874
11
5.95824
21
-3.25321
0
LINE
8
BLACK
6
CONTINUOUS
10
5.95824
20
-3.25321
11
5.95866
21
-3.24973
0
LINE
8
BLACK
6
CONTINUOUS
10
5.95866
20
-3.24973
11
5.95866
21
-3.24973
0
LINE
8
BLACK
6
CONTINUOUS
10
5.95866
20
-3.24973
11
5.95866
21
-3.24622
0
LINE
8
BLACK
6
CONTINUOUS
10
5.95866
20
-3.24622
11
5.95866
21
-3.24622
0
LINE
8
BLACK
6
CONTINUOUS
10
5.95866
20
-3.24622
11
5.94685
21
-3.24622
0
LINE
8
BLACK
6
CONTINUOUS
10
5.94685
20
-3.24622
11
5.94685
21
-3.24803
0
LINE
8
BLACK
6
CONTINUOUS
10
5.94685
20
-3.24803
11
5.9461
21
-3.2518
0
LINE
8
BLACK
6
CONTINUOUS
10
5.9461
20
-3.2518
11
5.94397
21
-3.25499
0
LINE
8
BLACK
6
CONTINUOUS
10
5.94397
20
-3.25499
11
5.94077
21
-3.25712
0
LINE
8
BLACK
6
CONTINUOUS
10
5.94077
20
-3.25712
11
5.93701
21
-3.25787
0
LINE
8
BLACK
6
CONTINUOUS
10
5.93701
20
-3.25787
11
5.9352
21
-3.25787
0
LINE
8
BLACK
6
CONTINUOUS
10
5.9352
20
-3.25787
11
5.9352
21
-3.26968
0
LINE
8
BLACK
6
CONTINUOUS
10
5.9352
20
-3.26968
11
5.9352
21
-3.26969
0
LINE
8
BLACK
6
CONTINUOUS
10
5.89173
20
-3.22622
11
5.90354
21
-3.22622
0
LINE
8
BLACK
6
CONTINUOUS
10
5.90354
20
-3.22622
11
5.90354
21
-3.22441
0
LINE
8
BLACK
6
CONTINUOUS
10
5.90354
20
-3.22441
11
5.90429
21
-3.22064
0
LINE
8
BLACK
6
CONTINUOUS
10
5.90429
20
-3.22064
11
5.90643
21
-3.21745
0
LINE
8
BLACK
6
CONTINUOUS
10
5.90643
20
-3.21745
11
5.90962
21
-3.21532
0
LINE
8
BLACK
6
CONTINUOUS
10
5.90962
20
-3.21532
11
5.91339
21
-3.21457
0
LINE
8
BLACK
6
CONTINUOUS
10
5.91339
20
-3.21457
11
5.9152
21
-3.21457
0
LINE
8
BLACK
6
CONTINUOUS
10
5.9152
20
-3.21457
11
5.9152
21
-3.20276
0
LINE
8
BLACK
6
CONTINUOUS
10
5.9152
20
-3.20276
11
5.9152
21
-3.20276
0
LINE
8
BLACK
6
CONTINUOUS
10
5.9152
20
-3.20276
11
5.91169
21
-3.20276
0
LINE
8
BLACK
6
CONTINUOUS
10
5.91169
20
-3.20276
11
5.90821
21
-3.20317
0
LINE
8
BLACK
6
CONTINUOUS
10
5.90821
20
-3.20317
11
5.90267
21
-3.20536
0
LINE
8
BLACK
6
CONTINUOUS
10
5.90267
20
-3.20536
11
5.89793
21
-3.20895
0
LINE
8
BLACK
6
CONTINUOUS
10
5.89793
20
-3.20895
11
5.89433
21
-3.2137
0
LINE
8
BLACK
6
CONTINUOUS
10
5.89433
20
-3.2137
11
5.89215
21
-3.21923
0
LINE
8
BLACK
6
CONTINUOUS
10
5.89215
20
-3.21923
11
5.89173
21
-3.22271
0
LINE
8
BLACK
6
CONTINUOUS
10
5.89173
20
-3.22271
11
5.89173
21
-3.22622
0
LINE
8
BLACK
6
CONTINUOUS
10
5.89173
20
-3.22622
11
5.89173
21
-3.22622
0
CIRCLE
8
BLACK
10
5.8
20
-3.8
40
0.00688976
0
CIRCLE
8
BLACK
10
5.4
20
-3
40
0.00688976
0
CIRCLE
8
BLACK
10
5.8
20
-3
40
0.00688976
0
CIRCLE
8
BLACK
10
5.72441
20
-3.25
40
0.00688976
0
CIRCLE
8
BLACK
10
5.82441
20
-3.25
40
0.00688976
0
CIRCLE
8
BLACK
10
5.72441
20
-3.35
40
0.00688976
0
CIRCLE
8
BLACK
10
5.82441
20
-3.35
40
0.00688976
0
CIRCLE
8
BLACK
10
5.72441
20
-3.45
40
0.00688976
0
CIRCLE
8
BLACK
10
5.82441
20
-3.45
40
0.00688976
0
CIRCLE
8
BLACK
10
5.72441
20
-3.55
40
0.00688976
0
CIRCLE
8
BLACK
10
5.82441
20
-3.55
40
0.00688976
0
CIRCLE
8
BLACK
10
5.4
20
-3.8
40
0.00688976
0
CIRCLE
8
BLACK
10
5.44
20
-3.6
40
0.00787402
0
CIRCLE
8
BLACK
10
5.26
20
-3.54724
40
0.00787402
0
CIRCLE
8
BLACK
10
5.54331
20
-3.37402
40
0.00787402
0
CIRCLE
8
BLACK
10
5.57
20
-3.73
40
0.00787402
0
CIRCLE
8
BLACK
10
5.62
20
-3.73
40
0.00787402
0
CIRCLE
8
BLACK
10
5.44
20
-3.56
40
0.00787402
0
CIRCLE
8
BLACK
10
5.23622
20
-3.40157
40
0.00787402
0
CIRCLE
8
BLACK
10
5.5
20
-3.65
40
0.00787402
0
CIRCLE
8
BLACK
10
5.54724
20
-3.45
40
0.00787402
0
CIRCLE
8
BLACK
10
5.4252
20
-3.37795
40
0.00787402
  0
ENDSEC
  0
EOF
