  0
SECTION
  2
HEADER
  9
$ANGBASE
  50
0.0
  9
$ANGDIR
  70
1
  9
$MEASUREMENT
  70
0
  0
ENDSEC
  0
SECTION
  2
TABLES
  0
TABLE
  2
LTYPE
  70
4
  0
LTYPE
  5
40F
  2
CONTINUOUS
  70
0
  3
Solid line
  72
65
  73
0
  40
0.0
  0
LTYPE
  5
410
  2
DASHDOT
 70
0
  3
Dash Dot ____ _ ____ _
 72
65
 73
4
 40
2.0
 49
1.25
 49
-0.25
 49
0.25
 49
-0.25
  0
LTYPE
  5
411
  2
DASHED
 70
0
  3
Dashed __ __ __ __ __
 72
65
 73
2
 40
0.75
 49
0.5
 49
-0.25
  0
LTYPE
  5
43B
  2
DOTTED
 70
0
  3
Dotted .  .  .  .
 72
65
 73
2
 40
0.2
 49
0.0
 49
-0.2
  0
ENDTAB
  0
TABLE
  2
STYLE
  70
4
  0
STYLE
  2
KICAD
  70
0
  40
0
  41
1
  42
1
  50
0
  71
0
  3
isocp.shx
  0
STYLE
  2
KICADB
  70
0
  40
0
  41
1
  42
1
  50
0
  71
0
  3
isocp.shx
  0
STYLE
  2
KICADI
  70
0
  40
0
  41
1
  42
1
  50
15
  71
0
  3
isocp.shx
  0
STYLE
  2
KICADBI
  70
0
  40
0
  41
1
  42
1
  50
15
  71
0
  3
isocp.shx
  0
ENDTAB
  0
TABLE
  2
LAYER
  70
1
  0
LAYER
  2
BLACK
  70
0
  62
7
  6
CONTINUOUS
  0
ENDTAB
  0
ENDSEC
  0
SECTION
  2
ENTITIES
0
LINE
8
BLACK
6
CONTINUOUS
10
5.43237
20
-3.69928
11
5.43209
21
-3.69858
0
LINE
8
BLACK
6
CONTINUOUS
10
5.43209
20
-3.69858
11
5.43209
21
-3.62142
0
LINE
8
BLACK
6
CONTINUOUS
10
5.43209
20
-3.62142
11
5.43237
21
-3.62072
0
LINE
8
BLACK
6
CONTINUOUS
10
5.43237
20
-3.62072
11
5.43307
21
-3.62043
0
LINE
8
BLACK
6
CONTINUOUS
10
5.43307
20
-3.62043
11
5.56693
21
-3.62043
0
LINE
8
BLACK
6
CONTINUOUS
10
5.56693
20
-3.62043
11
5.56763
21
-3.62072
0
LINE
8
BLACK
6
CONTINUOUS
10
5.56763
20
-3.62072
11
5.56791
21
-3.62142
0
LINE
8
BLACK
6
CONTINUOUS
10
5.56791
20
-3.62142
11
5.56791
21
-3.69858
0
LINE
8
BLACK
6
CONTINUOUS
10
5.56791
20
-3.69858
11
5.56763
21
-3.69928
0
LINE
8
BLACK
6
CONTINUOUS
10
5.56763
20
-3.69928
11
5.56693
21
-3.69957
0
LINE
8
BLACK
6
CONTINUOUS
10
5.56693
20
-3.69957
11
5.43307
21
-3.69957
0
LINE
8
BLACK
6
CONTINUOUS
10
5.43307
20
-3.69957
11
5.43237
21
-3.69928
0
LINE
8
BLACK
6
CONTINUOUS
10
5.43406
20
-3.6224
11
5.43406
21
-3.6976
0
LINE
8
BLACK
6
CONTINUOUS
10
5.43406
20
-3.6976
11
5.56594
21
-3.6976
0
LINE
8
BLACK
6
CONTINUOUS
10
5.56594
20
-3.6976
11
5.56594
21
-3.6224
0
LINE
8
BLACK
6
CONTINUOUS
10
5.56594
20
-3.6224
11
5.43406
21
-3.6224
0
LINE
8
BLACK
6
CONTINUOUS
10
5.43497
20
-3.60928
11
5.43469
21
-3.60858
0
LINE
8
BLACK
6
CONTINUOUS
10
5.43469
20
-3.60858
11
5.43469
21
-3.53142
0
LINE
8
BLACK
6
CONTINUOUS
10
5.43469
20
-3.53142
11
5.43497
21
-3.53072
0
LINE
8
BLACK
6
CONTINUOUS
10
5.43497
20
-3.53072
11
5.43567
21
-3.53043
0
LINE
8
BLACK
6
CONTINUOUS
10
5.43567
20
-3.53043
11
5.56953
21
-3.53043
0
LINE
8
BLACK
6
CONTINUOUS
10
5.56953
20
-3.53043
11
5.57022
21
-3.53072
0
LINE
8
BLACK
6
CONTINUOUS
10
5.57022
20
-3.53072
11
5.57051
21
-3.53142
0
LINE
8
BLACK
6
CONTINUOUS
10
5.57051
20
-3.53142
11
5.57051
21
-3.60858
0
LINE
8
BLACK
6
CONTINUOUS
10
5.57051
20
-3.60858
11
5.57022
21
-3.60928
0
LINE
8
BLACK
6
CONTINUOUS
10
5.57022
20
-3.60928
11
5.56953
21
-3.60957
0
LINE
8
BLACK
6
CONTINUOUS
10
5.56953
20
-3.60957
11
5.43567
21
-3.60957
0
LINE
8
BLACK
6
CONTINUOUS
10
5.43567
20
-3.60957
11
5.43497
21
-3.60928
0
LINE
8
BLACK
6
CONTINUOUS
10
5.43665
20
-3.5324
11
5.43665
21
-3.6076
0
LINE
8
BLACK
6
CONTINUOUS
10
5.43665
20
-3.6076
11
5.56854
21
-3.6076
0
LINE
8
BLACK
6
CONTINUOUS
10
5.56854
20
-3.6076
11
5.56854
21
-3.5324
0
LINE
8
BLACK
6
CONTINUOUS
10
5.56854
20
-3.5324
11
5.43665
21
-3.5324
0
LINE
8
BLACK
6
CONTINUOUS
10
5.2123
20
-3.51546
11
5.21201
21
-3.51476
0
LINE
8
BLACK
6
CONTINUOUS
10
5.21201
20
-3.51476
11
5.21201
21
-3.28524
0
LINE
8
BLACK
6
CONTINUOUS
10
5.21201
20
-3.28524
11
5.2123
21
-3.28454
0
LINE
8
BLACK
6
CONTINUOUS
10
5.2123
20
-3.28454
11
5.21299
21
-3.28425
0
LINE
8
BLACK
6
CONTINUOUS
10
5.21299
20
-3.28425
11
5.58701
21
-3.28425
0
LINE
8
BLACK
6
CONTINUOUS
10
5.58701
20
-3.28425
11
5.5877
21
-3.28454
0
LINE
8
BLACK
6
CONTINUOUS
10
5.5877
20
-3.28454
11
5.58799
21
-3.28524
0
LINE
8
BLACK
6
CONTINUOUS
10
5.58799
20
-3.28524
11
5.58799
21
-3.51476
0
LINE
8
BLACK
6
CONTINUOUS
10
5.58799
20
-3.51476
11
5.5877
21
-3.51546
0
LINE
8
BLACK
6
CONTINUOUS
10
5.5877
20
-3.51546
11
5.58701
21
-3.51575
0
LINE
8
BLACK
6
CONTINUOUS
10
5.58701
20
-3.51575
11
5.21299
21
-3.51575
0
LINE
8
BLACK
6
CONTINUOUS
10
5.21299
20
-3.51575
11
5.2123
21
-3.51546
0
LINE
8
BLACK
6
CONTINUOUS
10
5.21398
20
-3.28622
11
5.21398
21
-3.51378
0
LINE
8
BLACK
6
CONTINUOUS
10
5.21398
20
-3.51378
11
5.58602
21
-3.51378
0
LINE
8
BLACK
6
CONTINUOUS
10
5.58602
20
-3.51378
11
5.58602
21
-3.28622
0
LINE
8
BLACK
6
CONTINUOUS
10
5.58602
20
-3.28622
11
5.21398
21
-3.28622
0
LINE
8
BLACK
6
CONTINUOUS
10
5.26151
20
-3.13959
11
5.26122
21
-3.1389
0
LINE
8
BLACK
6
CONTINUOUS
10
5.26122
20
-3.1389
11
5.26122
21
-3.0011
0
LINE
8
BLACK
6
CONTINUOUS
10
5.26122
20
-3.0011
11
5.26151
21
-3.00041
0
LINE
8
BLACK
6
CONTINUOUS
10
5.26151
20
-3.00041
11
5.2622
21
-3.00012
0
LINE
8
BLACK
6
CONTINUOUS
10
5.2622
20
-3.00012
11
5.5378
21
-3.00012
0
LINE
8
BLACK
6
CONTINUOUS
10
5.5378
20
-3.00012
11
5.53849
21
-3.00041
0
LINE
8
BLACK
6
CONTINUOUS
10
5.53849
20
-3.00041
11
5.53878
21
-3.0011
0
LINE
8
BLACK
6
CONTINUOUS
10
5.53878
20
-3.0011
11
5.53878
21
-3.1389
0
LINE
8
BLACK
6
CONTINUOUS
10
5.53878
20
-3.1389
11
5.53849
21
-3.13959
0
LINE
8
BLACK
6
CONTINUOUS
10
5.53849
20
-3.13959
11
5.5378
21
-3.13988
0
LINE
8
BLACK
6
CONTINUOUS
10
5.5378
20
-3.13988
11
5.2622
21
-3.13988
0
LINE
8
BLACK
6
CONTINUOUS
10
5.2622
20
-3.13988
11
5.26151
21
-3.13959
0
LINE
8
BLACK
6
CONTINUOUS
10
5.26319
20
-3.00209
11
5.26319
21
-3.13791
0
LINE
8
BLACK
6
CONTINUOUS
10
5.26319
20
-3.13791
11
5.53681
21
-3.13791
0
LINE
8
BLACK
6
CONTINUOUS
10
5.53681
20
-3.13791
11
5.53681
21
-3.00209
0
LINE
8
BLACK
6
CONTINUOUS
10
5.53681
20
-3.00209
11
5.26319
21
-3.00209
  0
ENDSEC
  0
EOF
