  0
SECTION
  2
HEADER
  9
$ANGBASE
  50
0.0
  9
$ANGDIR
  70
1
  9
$MEASUREMENT
  70
0
  0
ENDSEC
  0
SECTION
  2
TABLES
  0
TABLE
  2
LTYPE
  70
4
  0
LTYPE
  5
40F
  2
CONTINUOUS
  70
0
  3
Solid line
  72
65
  73
0
  40
0.0
  0
LTYPE
  5
410
  2
DASHDOT
 70
0
  3
Dash Dot ____ _ ____ _
 72
65
 73
4
 40
2.0
 49
1.25
 49
-0.25
 49
0.25
 49
-0.25
  0
LTYPE
  5
411
  2
DASHED
 70
0
  3
Dashed __ __ __ __ __
 72
65
 73
2
 40
0.75
 49
0.5
 49
-0.25
  0
LTYPE
  5
43B
  2
DOTTED
 70
0
  3
Dotted .  .  .  .
 72
65
 73
2
 40
0.2
 49
0.0
 49
-0.2
  0
ENDTAB
  0
TABLE
  2
STYLE
  70
4
  0
STYLE
  2
KICAD
  70
0
  40
0
  41
1
  42
1
  50
0
  71
0
  3
isocp.shx
  0
STYLE
  2
KICADB
  70
0
  40
0
  41
1
  42
1
  50
0
  71
0
  3
isocp.shx
  0
STYLE
  2
KICADI
  70
0
  40
0
  41
1
  42
1
  50
15
  71
0
  3
isocp.shx
  0
STYLE
  2
KICADBI
  70
0
  40
0
  41
1
  42
1
  50
15
  71
0
  3
isocp.shx
  0
ENDTAB
  0
TABLE
  2
LAYER
  70
1
  0
LAYER
  2
BLACK
  70
0
  62
7
  6
CONTINUOUS
  0
ENDTAB
  0
ENDSEC
  0
SECTION
  2
ENTITIES
0
LINE
8
BLACK
6
CONTINUOUS
10
5.62469
20
-3.50276
11
5.62682
21
-3.5046
0
LINE
8
BLACK
6
CONTINUOUS
10
5.62682
20
-3.5046
11
5.62761
21
-3.5073
0
LINE
8
BLACK
6
CONTINUOUS
10
5.62761
20
-3.5073
11
5.62761
21
-3.53588
0
LINE
8
BLACK
6
CONTINUOUS
10
5.62761
20
-3.53588
11
5.62741
21
-3.53728
0
LINE
8
BLACK
6
CONTINUOUS
10
5.62741
20
-3.53728
11
5.62589
21
-3.53965
0
LINE
8
BLACK
6
CONTINUOUS
10
5.62589
20
-3.53965
11
5.62332
21
-3.54082
0
LINE
8
BLACK
6
CONTINUOUS
10
5.62332
20
-3.54082
11
5.62053
21
-3.54042
0
LINE
8
BLACK
6
CONTINUOUS
10
5.62053
20
-3.54042
11
5.6184
21
-3.53858
0
LINE
8
BLACK
6
CONTINUOUS
10
5.6184
20
-3.53858
11
5.61761
21
-3.53588
0
LINE
8
BLACK
6
CONTINUOUS
10
5.61761
20
-3.53588
11
5.61761
21
-3.52659
0
LINE
8
BLACK
6
CONTINUOUS
10
5.61761
20
-3.52659
11
5.57261
21
-3.52659
0
LINE
8
BLACK
6
CONTINUOUS
10
5.57261
20
-3.52659
11
5.57135
21
-3.52641
0
LINE
8
BLACK
6
CONTINUOUS
10
5.57135
20
-3.52641
11
5.57128
21
-3.52641
0
LINE
8
BLACK
6
CONTINUOUS
10
5.57128
20
-3.52641
11
5.57126
21
-3.5264
0
LINE
8
BLACK
6
CONTINUOUS
10
5.57126
20
-3.5264
11
5.5712
21
-3.52639
0
LINE
8
BLACK
6
CONTINUOUS
10
5.5712
20
-3.52639
11
5.57005
21
-3.52565
0
LINE
8
BLACK
6
CONTINUOUS
10
5.57005
20
-3.52565
11
5.56889
21
-3.52493
0
LINE
8
BLACK
6
CONTINUOUS
10
5.56889
20
-3.52493
11
5.56887
21
-3.52489
0
LINE
8
BLACK
6
CONTINUOUS
10
5.56887
20
-3.52489
11
5.56883
21
-3.52486
0
LINE
8
BLACK
6
CONTINUOUS
10
5.56883
20
-3.52486
11
5.56826
21
-3.52362
0
LINE
8
BLACK
6
CONTINUOUS
10
5.56826
20
-3.52362
11
5.56767
21
-3.52238
0
LINE
8
BLACK
6
CONTINUOUS
10
5.56767
20
-3.52238
11
5.56768
21
-3.52234
0
LINE
8
BLACK
6
CONTINUOUS
10
5.56768
20
-3.52234
11
5.56766
21
-3.5223
0
LINE
8
BLACK
6
CONTINUOUS
10
5.56766
20
-3.5223
11
5.56786
21
-3.52095
0
LINE
8
BLACK
6
CONTINUOUS
10
5.56786
20
-3.52095
11
5.56803
21
-3.51959
0
LINE
8
BLACK
6
CONTINUOUS
10
5.56803
20
-3.51959
11
5.56806
21
-3.51956
0
LINE
8
BLACK
6
CONTINUOUS
10
5.56806
20
-3.51956
11
5.56806
21
-3.51951
0
LINE
8
BLACK
6
CONTINUOUS
10
5.56806
20
-3.51951
11
5.56896
21
-3.51848
0
LINE
8
BLACK
6
CONTINUOUS
10
5.56896
20
-3.51848
11
5.56984
21
-3.51743
0
LINE
8
BLACK
6
CONTINUOUS
10
5.56984
20
-3.51743
11
5.57657
21
-3.51294
0
LINE
8
BLACK
6
CONTINUOUS
10
5.57657
20
-3.51294
11
5.58041
21
-3.5091
0
LINE
8
BLACK
6
CONTINUOUS
10
5.58041
20
-3.5091
11
5.58242
21
-3.50507
0
LINE
8
BLACK
6
CONTINUOUS
10
5.58242
20
-3.50507
11
5.58324
21
-3.5039
0
LINE
8
BLACK
6
CONTINUOUS
10
5.58324
20
-3.5039
11
5.58566
21
-3.50246
0
LINE
8
BLACK
6
CONTINUOUS
10
5.58566
20
-3.50246
11
5.58847
21
-3.50256
0
LINE
8
BLACK
6
CONTINUOUS
10
5.58847
20
-3.50256
11
5.59079
21
-3.50416
0
LINE
8
BLACK
6
CONTINUOUS
10
5.59079
20
-3.50416
11
5.59187
21
-3.50677
0
LINE
8
BLACK
6
CONTINUOUS
10
5.59187
20
-3.50677
11
5.59137
21
-3.50954
0
LINE
8
BLACK
6
CONTINUOUS
10
5.59137
20
-3.50954
11
5.58899
21
-3.5143
0
LINE
8
BLACK
6
CONTINUOUS
10
5.58899
20
-3.5143
11
5.58818
21
-3.51547
0
LINE
8
BLACK
6
CONTINUOUS
10
5.58818
20
-3.51547
11
5.5881
21
-3.51552
0
LINE
8
BLACK
6
CONTINUOUS
10
5.5881
20
-3.51552
11
5.58805
21
-3.5156
0
LINE
8
BLACK
6
CONTINUOUS
10
5.58805
20
-3.5156
11
5.58706
21
-3.51659
0
LINE
8
BLACK
6
CONTINUOUS
10
5.58706
20
-3.51659
11
5.61761
21
-3.51659
0
LINE
8
BLACK
6
CONTINUOUS
10
5.61761
20
-3.51659
11
5.61761
21
-3.5073
0
LINE
8
BLACK
6
CONTINUOUS
10
5.61761
20
-3.5073
11
5.61781
21
-3.5059
0
LINE
8
BLACK
6
CONTINUOUS
10
5.61781
20
-3.5059
11
5.61934
21
-3.50353
0
LINE
8
BLACK
6
CONTINUOUS
10
5.61934
20
-3.50353
11
5.6219
21
-3.50235
0
LINE
8
BLACK
6
CONTINUOUS
10
5.6219
20
-3.50235
11
5.62469
21
-3.50276
0
LINE
8
BLACK
6
CONTINUOUS
10
5.60226
20
-3.45246
11
5.6024
21
-3.45245
0
LINE
8
BLACK
6
CONTINUOUS
10
5.6024
20
-3.45245
11
5.61192
21
-3.45483
0
LINE
8
BLACK
6
CONTINUOUS
10
5.61192
20
-3.45483
11
5.61277
21
-3.45518
0
LINE
8
BLACK
6
CONTINUOUS
10
5.61277
20
-3.45518
11
5.61294
21
-3.45521
0
LINE
8
BLACK
6
CONTINUOUS
10
5.61294
20
-3.45521
11
5.6177
21
-3.45759
0
LINE
8
BLACK
6
CONTINUOUS
10
5.6177
20
-3.45759
11
5.61887
21
-3.4584
0
LINE
8
BLACK
6
CONTINUOUS
10
5.61887
20
-3.4584
11
5.61892
21
-3.45849
0
LINE
8
BLACK
6
CONTINUOUS
10
5.61892
20
-3.45849
11
5.619
21
-3.45853
0
LINE
8
BLACK
6
CONTINUOUS
10
5.619
20
-3.45853
11
5.62377
21
-3.46329
0
LINE
8
BLACK
6
CONTINUOUS
10
5.62377
20
-3.46329
11
5.62462
21
-3.46443
0
LINE
8
BLACK
6
CONTINUOUS
10
5.62462
20
-3.46443
11
5.62471
21
-3.46487
0
LINE
8
BLACK
6
CONTINUOUS
10
5.62471
20
-3.46487
11
5.62497
21
-3.46525
0
LINE
8
BLACK
6
CONTINUOUS
10
5.62497
20
-3.46525
11
5.62735
21
-3.47239
0
LINE
8
BLACK
6
CONTINUOUS
10
5.62735
20
-3.47239
11
5.62761
21
-3.47379
0
LINE
8
BLACK
6
CONTINUOUS
10
5.62761
20
-3.47379
11
5.62758
21
-3.47388
0
LINE
8
BLACK
6
CONTINUOUS
10
5.62758
20
-3.47388
11
5.62761
21
-3.47397
0
LINE
8
BLACK
6
CONTINUOUS
10
5.62761
20
-3.47397
11
5.62761
21
-3.47873
0
LINE
8
BLACK
6
CONTINUOUS
10
5.62761
20
-3.47873
11
5.62741
21
-3.48014
0
LINE
8
BLACK
6
CONTINUOUS
10
5.62741
20
-3.48014
11
5.62736
21
-3.48022
0
LINE
8
BLACK
6
CONTINUOUS
10
5.62736
20
-3.48022
11
5.62735
21
-3.48031
0
LINE
8
BLACK
6
CONTINUOUS
10
5.62735
20
-3.48031
11
5.62497
21
-3.48746
0
LINE
8
BLACK
6
CONTINUOUS
10
5.62497
20
-3.48746
11
5.62434
21
-3.48873
0
LINE
8
BLACK
6
CONTINUOUS
10
5.62434
20
-3.48873
11
5.62398
21
-3.48901
0
LINE
8
BLACK
6
CONTINUOUS
10
5.62398
20
-3.48901
11
5.62377
21
-3.48941
0
LINE
8
BLACK
6
CONTINUOUS
10
5.62377
20
-3.48941
11
5.62138
21
-3.49179
0
LINE
8
BLACK
6
CONTINUOUS
10
5.62138
20
-3.49179
11
5.62025
21
-3.49264
0
LINE
8
BLACK
6
CONTINUOUS
10
5.62025
20
-3.49264
11
5.61749
21
-3.49324
0
LINE
8
BLACK
6
CONTINUOUS
10
5.61749
20
-3.49324
11
5.61485
21
-3.49226
0
LINE
8
BLACK
6
CONTINUOUS
10
5.61485
20
-3.49226
11
5.61316
21
-3.49
0
LINE
8
BLACK
6
CONTINUOUS
10
5.61316
20
-3.49
11
5.61296
21
-3.48719
0
LINE
8
BLACK
6
CONTINUOUS
10
5.61296
20
-3.48719
11
5.61431
21
-3.48472
0
LINE
8
BLACK
6
CONTINUOUS
10
5.61431
20
-3.48472
11
5.61586
21
-3.48317
0
LINE
8
BLACK
6
CONTINUOUS
10
5.61586
20
-3.48317
11
5.61761
21
-3.47792
0
LINE
8
BLACK
6
CONTINUOUS
10
5.61761
20
-3.47792
11
5.61761
21
-3.47478
0
LINE
8
BLACK
6
CONTINUOUS
10
5.61761
20
-3.47478
11
5.61586
21
-3.46953
0
LINE
8
BLACK
6
CONTINUOUS
10
5.61586
20
-3.46953
11
5.61251
21
-3.46618
0
LINE
8
BLACK
6
CONTINUOUS
10
5.61251
20
-3.46618
11
5.60896
21
-3.4644
0
LINE
8
BLACK
6
CONTINUOUS
10
5.60896
20
-3.4644
11
5.60057
21
-3.4623
0
LINE
8
BLACK
6
CONTINUOUS
10
5.60057
20
-3.4623
11
5.59465
21
-3.4623
0
LINE
8
BLACK
6
CONTINUOUS
10
5.59465
20
-3.4623
11
5.58626
21
-3.4644
0
LINE
8
BLACK
6
CONTINUOUS
10
5.58626
20
-3.4644
11
5.58272
21
-3.46618
0
LINE
8
BLACK
6
CONTINUOUS
10
5.58272
20
-3.46618
11
5.57936
21
-3.46953
0
LINE
8
BLACK
6
CONTINUOUS
10
5.57936
20
-3.46953
11
5.57761
21
-3.47478
0
LINE
8
BLACK
6
CONTINUOUS
10
5.57761
20
-3.47478
11
5.57761
21
-3.47792
0
LINE
8
BLACK
6
CONTINUOUS
10
5.57761
20
-3.47792
11
5.57936
21
-3.48317
0
LINE
8
BLACK
6
CONTINUOUS
10
5.57936
20
-3.48317
11
5.58091
21
-3.48472
0
LINE
8
BLACK
6
CONTINUOUS
10
5.58091
20
-3.48472
11
5.58176
21
-3.48586
0
LINE
8
BLACK
6
CONTINUOUS
10
5.58176
20
-3.48586
11
5.58236
21
-3.48861
0
LINE
8
BLACK
6
CONTINUOUS
10
5.58236
20
-3.48861
11
5.58138
21
-3.49125
0
LINE
8
BLACK
6
CONTINUOUS
10
5.58138
20
-3.49125
11
5.57912
21
-3.49294
0
LINE
8
BLACK
6
CONTINUOUS
10
5.57912
20
-3.49294
11
5.57631
21
-3.49314
0
LINE
8
BLACK
6
CONTINUOUS
10
5.57631
20
-3.49314
11
5.57384
21
-3.49179
0
LINE
8
BLACK
6
CONTINUOUS
10
5.57384
20
-3.49179
11
5.57146
21
-3.48941
0
LINE
8
BLACK
6
CONTINUOUS
10
5.57146
20
-3.48941
11
5.5706
21
-3.48827
0
LINE
8
BLACK
6
CONTINUOUS
10
5.5706
20
-3.48827
11
5.57051
21
-3.48783
0
LINE
8
BLACK
6
CONTINUOUS
10
5.57051
20
-3.48783
11
5.57025
21
-3.48746
0
LINE
8
BLACK
6
CONTINUOUS
10
5.57025
20
-3.48746
11
5.56787
21
-3.48031
0
LINE
8
BLACK
6
CONTINUOUS
10
5.56787
20
-3.48031
11
5.56761
21
-3.47891
0
LINE
8
BLACK
6
CONTINUOUS
10
5.56761
20
-3.47891
11
5.56764
21
-3.47882
0
LINE
8
BLACK
6
CONTINUOUS
10
5.56764
20
-3.47882
11
5.56761
21
-3.47873
0
LINE
8
BLACK
6
CONTINUOUS
10
5.56761
20
-3.47873
11
5.56761
21
-3.47397
0
LINE
8
BLACK
6
CONTINUOUS
10
5.56761
20
-3.47397
11
5.56781
21
-3.47256
0
LINE
8
BLACK
6
CONTINUOUS
10
5.56781
20
-3.47256
11
5.56786
21
-3.47248
0
LINE
8
BLACK
6
CONTINUOUS
10
5.56786
20
-3.47248
11
5.56787
21
-3.47239
0
LINE
8
BLACK
6
CONTINUOUS
10
5.56787
20
-3.47239
11
5.57025
21
-3.46525
0
LINE
8
BLACK
6
CONTINUOUS
10
5.57025
20
-3.46525
11
5.57089
21
-3.46397
0
LINE
8
BLACK
6
CONTINUOUS
10
5.57089
20
-3.46397
11
5.57124
21
-3.46369
0
LINE
8
BLACK
6
CONTINUOUS
10
5.57124
20
-3.46369
11
5.57146
21
-3.46329
0
LINE
8
BLACK
6
CONTINUOUS
10
5.57146
20
-3.46329
11
5.57622
21
-3.45853
0
LINE
8
BLACK
6
CONTINUOUS
10
5.57622
20
-3.45853
11
5.57736
21
-3.45768
0
LINE
8
BLACK
6
CONTINUOUS
10
5.57736
20
-3.45768
11
5.57745
21
-3.45766
0
LINE
8
BLACK
6
CONTINUOUS
10
5.57745
20
-3.45766
11
5.57752
21
-3.45759
0
LINE
8
BLACK
6
CONTINUOUS
10
5.57752
20
-3.45759
11
5.58228
21
-3.45521
0
LINE
8
BLACK
6
CONTINUOUS
10
5.58228
20
-3.45521
11
5.58315
21
-3.45492
0
LINE
8
BLACK
6
CONTINUOUS
10
5.58315
20
-3.45492
11
5.5833
21
-3.45483
0
LINE
8
BLACK
6
CONTINUOUS
10
5.5833
20
-3.45483
11
5.59283
21
-3.45245
0
LINE
8
BLACK
6
CONTINUOUS
10
5.59283
20
-3.45245
11
5.59391
21
-3.45234
0
LINE
8
BLACK
6
CONTINUOUS
10
5.59391
20
-3.45234
11
5.59404
21
-3.4523
0
LINE
8
BLACK
6
CONTINUOUS
10
5.59404
20
-3.4523
11
5.60118
21
-3.4523
0
LINE
8
BLACK
6
CONTINUOUS
10
5.60118
20
-3.4523
11
5.60226
21
-3.45246
0
LINE
8
BLACK
6
CONTINUOUS
10
5.62402
20
-3.43108
11
5.62639
21
-3.4326
0
LINE
8
BLACK
6
CONTINUOUS
10
5.62639
20
-3.4326
11
5.62756
21
-3.43516
0
LINE
8
BLACK
6
CONTINUOUS
10
5.62756
20
-3.43516
11
5.62716
21
-3.43795
0
LINE
8
BLACK
6
CONTINUOUS
10
5.62716
20
-3.43795
11
5.62531
21
-3.44008
0
LINE
8
BLACK
6
CONTINUOUS
10
5.62531
20
-3.44008
11
5.62261
21
-3.44088
0
LINE
8
BLACK
6
CONTINUOUS
10
5.62261
20
-3.44088
11
5.57261
21
-3.44088
0
LINE
8
BLACK
6
CONTINUOUS
10
5.57261
20
-3.44088
11
5.5712
21
-3.44067
0
LINE
8
BLACK
6
CONTINUOUS
10
5.5712
20
-3.44067
11
5.56883
21
-3.43915
0
LINE
8
BLACK
6
CONTINUOUS
10
5.56883
20
-3.43915
11
5.56766
21
-3.43659
0
LINE
8
BLACK
6
CONTINUOUS
10
5.56766
20
-3.43659
11
5.56806
21
-3.4338
0
LINE
8
BLACK
6
CONTINUOUS
10
5.56806
20
-3.4338
11
5.56991
21
-3.43167
0
LINE
8
BLACK
6
CONTINUOUS
10
5.56991
20
-3.43167
11
5.57261
21
-3.43088
0
LINE
8
BLACK
6
CONTINUOUS
10
5.57261
20
-3.43088
11
5.62261
21
-3.43088
0
LINE
8
BLACK
6
CONTINUOUS
10
5.62261
20
-3.43088
11
5.62402
21
-3.43108
0
LINE
8
BLACK
6
CONTINUOUS
10
5.70295
20
-3.37878
11
5.70434
21
-3.37936
0
LINE
8
BLACK
6
CONTINUOUS
10
5.70434
20
-3.37936
11
5.70492
21
-3.38075
0
LINE
8
BLACK
6
CONTINUOUS
10
5.70492
20
-3.38075
11
5.70492
21
-3.58862
0
LINE
8
BLACK
6
CONTINUOUS
10
5.70492
20
-3.58862
11
5.70434
21
-3.59001
0
LINE
8
BLACK
6
CONTINUOUS
10
5.70434
20
-3.59001
11
5.70295
21
-3.59059
0
LINE
8
BLACK
6
CONTINUOUS
10
5.70295
20
-3.59059
11
5.65295
21
-3.59059
0
LINE
8
BLACK
6
CONTINUOUS
10
5.65295
20
-3.59059
11
5.49705
21
-3.59059
0
LINE
8
BLACK
6
CONTINUOUS
10
5.49705
20
-3.59059
11
5.49566
21
-3.59001
0
LINE
8
BLACK
6
CONTINUOUS
10
5.49566
20
-3.59001
11
5.49508
21
-3.58862
0
LINE
8
BLACK
6
CONTINUOUS
10
5.49508
20
-3.58862
11
5.49508
21
-3.38075
0
LINE
8
BLACK
6
CONTINUOUS
10
5.49508
20
-3.38075
11
5.49566
21
-3.37936
0
LINE
8
BLACK
6
CONTINUOUS
10
5.49566
20
-3.37936
11
5.49705
21
-3.37878
0
LINE
8
BLACK
6
CONTINUOUS
10
5.49705
20
-3.37878
11
5.70295
21
-3.37878
0
LINE
8
BLACK
6
CONTINUOUS
10
5.49902
20
-3.38272
11
5.49902
21
-3.58665
0
LINE
8
BLACK
6
CONTINUOUS
10
5.49902
20
-3.58665
11
5.65214
21
-3.58665
0
LINE
8
BLACK
6
CONTINUOUS
10
5.65214
20
-3.58665
11
5.70098
21
-3.53781
0
LINE
8
BLACK
6
CONTINUOUS
10
5.70098
20
-3.53781
11
5.70098
21
-3.38272
0
LINE
8
BLACK
6
CONTINUOUS
10
5.70098
20
-3.38272
11
5.49902
21
-3.38272
0
LINE
8
BLACK
6
CONTINUOUS
10
5.65771
20
-3.58665
11
5.70098
21
-3.58665
0
LINE
8
BLACK
6
CONTINUOUS
10
5.70098
20
-3.58665
11
5.70098
21
-3.54337
0
LINE
8
BLACK
6
CONTINUOUS
10
5.70098
20
-3.54337
11
5.65771
21
-3.58665
0
LINE
8
BLACK
6
CONTINUOUS
10
5.26166
20
-3.3365
11
5.26235
21
-3.33839
0
LINE
8
BLACK
6
CONTINUOUS
10
5.26235
20
-3.33839
11
5.26235
21
-3.33957
0
LINE
8
BLACK
6
CONTINUOUS
10
5.26235
20
-3.33957
11
5.2637
21
-3.34227
0
LINE
8
BLACK
6
CONTINUOUS
10
5.2637
20
-3.34227
11
5.26524
21
-3.3438
0
LINE
8
BLACK
6
CONTINUOUS
10
5.26524
20
-3.3438
11
5.26583
21
-3.34464
0
LINE
8
BLACK
6
CONTINUOUS
10
5.26583
20
-3.34464
11
5.266
21
-3.34666
0
LINE
8
BLACK
6
CONTINUOUS
10
5.266
20
-3.34666
11
5.26484
21
-3.34831
0
LINE
8
BLACK
6
CONTINUOUS
10
5.26484
20
-3.34831
11
5.26289
21
-3.34883
0
LINE
8
BLACK
6
CONTINUOUS
10
5.26289
20
-3.34883
11
5.26106
21
-3.34798
0
LINE
8
BLACK
6
CONTINUOUS
10
5.26106
20
-3.34798
11
5.25919
21
-3.34611
0
LINE
8
BLACK
6
CONTINUOUS
10
5.25919
20
-3.34611
11
5.25868
21
-3.34538
0
LINE
8
BLACK
6
CONTINUOUS
10
5.25868
20
-3.34538
11
5.25863
21
-3.34534
0
LINE
8
BLACK
6
CONTINUOUS
10
5.25863
20
-3.34534
11
5.25676
21
-3.34159
0
LINE
8
BLACK
6
CONTINUOUS
10
5.25676
20
-3.34159
11
5.25647
21
-3.34061
0
LINE
8
BLACK
6
CONTINUOUS
10
5.25647
20
-3.34061
11
5.25651
21
-3.34043
0
LINE
8
BLACK
6
CONTINUOUS
10
5.25651
20
-3.34043
11
5.25645
21
-3.34027
0
LINE
8
BLACK
6
CONTINUOUS
10
5.25645
20
-3.34027
11
5.25645
21
-3.33839
0
LINE
8
BLACK
6
CONTINUOUS
10
5.25645
20
-3.33839
11
5.25663
21
-3.33738
0
LINE
8
BLACK
6
CONTINUOUS
10
5.25663
20
-3.33738
11
5.25792
21
-3.33584
0
LINE
8
BLACK
6
CONTINUOUS
10
5.25792
20
-3.33584
11
5.25991
21
-3.33549
0
LINE
8
BLACK
6
CONTINUOUS
10
5.25991
20
-3.33549
11
5.26166
21
-3.3365
0
LINE
8
BLACK
6
CONTINUOUS
10
5.23416
20
-3.29812
11
5.2343
21
-3.29824
0
LINE
8
BLACK
6
CONTINUOUS
10
5.2343
20
-3.29824
11
5.23447
21
-3.29826
0
LINE
8
BLACK
6
CONTINUOUS
10
5.23447
20
-3.29826
11
5.23822
21
-3.30013
0
LINE
8
BLACK
6
CONTINUOUS
10
5.23822
20
-3.30013
11
5.23893
21
-3.30066
0
LINE
8
BLACK
6
CONTINUOUS
10
5.23893
20
-3.30066
11
5.23899
21
-3.30069
0
LINE
8
BLACK
6
CONTINUOUS
10
5.23899
20
-3.30069
11
5.24087
21
-3.30256
0
LINE
8
BLACK
6
CONTINUOUS
10
5.24087
20
-3.30256
11
5.24112
21
-3.30293
0
LINE
8
BLACK
6
CONTINUOUS
10
5.24112
20
-3.30293
11
5.24123
21
-3.30301
0
LINE
8
BLACK
6
CONTINUOUS
10
5.24123
20
-3.30301
11
5.24498
21
-3.30863
0
LINE
8
BLACK
6
CONTINUOUS
10
5.24498
20
-3.30863
11
5.24538
21
-3.30954
0
LINE
8
BLACK
6
CONTINUOUS
10
5.24538
20
-3.30954
11
5.24539
21
-3.30956
0
LINE
8
BLACK
6
CONTINUOUS
10
5.24539
20
-3.30956
11
5.24727
21
-3.31706
0
LINE
8
BLACK
6
CONTINUOUS
10
5.24727
20
-3.31706
11
5.24731
21
-3.31764
0
LINE
8
BLACK
6
CONTINUOUS
10
5.24731
20
-3.31764
11
5.24735
21
-3.31777
0
LINE
8
BLACK
6
CONTINUOUS
10
5.24735
20
-3.31777
11
5.24735
21
-3.33277
0
LINE
8
BLACK
6
CONTINUOUS
10
5.24735
20
-3.33277
11
5.24718
21
-3.33378
0
LINE
8
BLACK
6
CONTINUOUS
10
5.24718
20
-3.33378
11
5.24706
21
-3.33391
0
LINE
8
BLACK
6
CONTINUOUS
10
5.24706
20
-3.33391
11
5.24704
21
-3.33409
0
LINE
8
BLACK
6
CONTINUOUS
10
5.24704
20
-3.33409
11
5.24517
21
-3.33784
0
LINE
8
BLACK
6
CONTINUOUS
10
5.24517
20
-3.33784
11
5.24464
21
-3.33855
0
LINE
8
BLACK
6
CONTINUOUS
10
5.24464
20
-3.33855
11
5.24462
21
-3.33861
0
LINE
8
BLACK
6
CONTINUOUS
10
5.24462
20
-3.33861
11
5.24274
21
-3.34048
0
LINE
8
BLACK
6
CONTINUOUS
10
5.24274
20
-3.34048
11
5.24202
21
-3.34099
0
LINE
8
BLACK
6
CONTINUOUS
10
5.24202
20
-3.34099
11
5.24197
21
-3.34103
0
LINE
8
BLACK
6
CONTINUOUS
10
5.24197
20
-3.34103
11
5.23822
21
-3.34291
0
LINE
8
BLACK
6
CONTINUOUS
10
5.23822
20
-3.34291
11
5.23724
21
-3.3432
0
LINE
8
BLACK
6
CONTINUOUS
10
5.23724
20
-3.3432
11
5.23707
21
-3.34316
0
LINE
8
BLACK
6
CONTINUOUS
10
5.23707
20
-3.34316
11
5.2369
21
-3.34322
0
LINE
8
BLACK
6
CONTINUOUS
10
5.2369
20
-3.34322
11
5.2294
21
-3.34322
0
LINE
8
BLACK
6
CONTINUOUS
10
5.2294
20
-3.34322
11
5.22839
21
-3.34304
0
LINE
8
BLACK
6
CONTINUOUS
10
5.22839
20
-3.34304
11
5.22826
21
-3.34293
0
LINE
8
BLACK
6
CONTINUOUS
10
5.22826
20
-3.34293
11
5.22808
21
-3.34291
0
LINE
8
BLACK
6
CONTINUOUS
10
5.22808
20
-3.34291
11
5.22433
21
-3.34103
0
LINE
8
BLACK
6
CONTINUOUS
10
5.22433
20
-3.34103
11
5.22362
21
-3.34051
0
LINE
8
BLACK
6
CONTINUOUS
10
5.22362
20
-3.34051
11
5.22357
21
-3.34048
0
LINE
8
BLACK
6
CONTINUOUS
10
5.22357
20
-3.34048
11
5.22169
21
-3.33861
0
LINE
8
BLACK
6
CONTINUOUS
10
5.22169
20
-3.33861
11
5.22119
21
-3.33788
0
LINE
8
BLACK
6
CONTINUOUS
10
5.22119
20
-3.33788
11
5.22114
21
-3.33784
0
LINE
8
BLACK
6
CONTINUOUS
10
5.22114
20
-3.33784
11
5.21926
21
-3.33409
0
LINE
8
BLACK
6
CONTINUOUS
10
5.21926
20
-3.33409
11
5.21897
21
-3.33311
0
LINE
8
BLACK
6
CONTINUOUS
10
5.21897
20
-3.33311
11
5.21901
21
-3.33294
0
LINE
8
BLACK
6
CONTINUOUS
10
5.21901
20
-3.33294
11
5.21895
21
-3.33277
0
LINE
8
BLACK
6
CONTINUOUS
10
5.21895
20
-3.33277
11
5.21895
21
-3.3234
0
LINE
8
BLACK
6
CONTINUOUS
10
5.21895
20
-3.3234
11
5.21913
21
-3.32239
0
LINE
8
BLACK
6
CONTINUOUS
10
5.21913
20
-3.32239
11
5.21924
21
-3.32225
0
LINE
8
BLACK
6
CONTINUOUS
10
5.21924
20
-3.32225
11
5.21926
21
-3.32208
0
LINE
8
BLACK
6
CONTINUOUS
10
5.21926
20
-3.32208
11
5.22114
21
-3.31833
0
LINE
8
BLACK
6
CONTINUOUS
10
5.22114
20
-3.31833
11
5.22166
21
-3.31762
0
LINE
8
BLACK
6
CONTINUOUS
10
5.22166
20
-3.31762
11
5.22169
21
-3.31756
0
LINE
8
BLACK
6
CONTINUOUS
10
5.22169
20
-3.31756
11
5.22357
21
-3.31568
0
LINE
8
BLACK
6
CONTINUOUS
10
5.22357
20
-3.31568
11
5.22429
21
-3.31518
0
LINE
8
BLACK
6
CONTINUOUS
10
5.22429
20
-3.31518
11
5.22433
21
-3.31513
0
LINE
8
BLACK
6
CONTINUOUS
10
5.22433
20
-3.31513
11
5.22808
21
-3.31326
0
LINE
8
BLACK
6
CONTINUOUS
10
5.22808
20
-3.31326
11
5.22907
21
-3.31296
0
LINE
8
BLACK
6
CONTINUOUS
10
5.22907
20
-3.31296
11
5.22924
21
-3.313
0
LINE
8
BLACK
6
CONTINUOUS
10
5.22924
20
-3.313
11
5.2294
21
-3.31294
0
LINE
8
BLACK
6
CONTINUOUS
10
5.2294
20
-3.31294
11
5.2369
21
-3.31294
0
LINE
8
BLACK
6
CONTINUOUS
10
5.2369
20
-3.31294
11
5.23791
21
-3.31312
0
LINE
8
BLACK
6
CONTINUOUS
10
5.23791
20
-3.31312
11
5.23805
21
-3.31324
0
LINE
8
BLACK
6
CONTINUOUS
10
5.23805
20
-3.31324
11
5.23822
21
-3.31326
0
LINE
8
BLACK
6
CONTINUOUS
10
5.23822
20
-3.31326
11
5.24052
21
-3.3144
0
LINE
8
BLACK
6
CONTINUOUS
10
5.24052
20
-3.3144
11
5.23979
21
-3.31148
0
LINE
8
BLACK
6
CONTINUOUS
10
5.23979
20
-3.31148
11
5.23648
21
-3.30653
0
LINE
8
BLACK
6
CONTINUOUS
10
5.23648
20
-3.30653
11
5.23515
21
-3.3052
0
LINE
8
BLACK
6
CONTINUOUS
10
5.23515
20
-3.3052
11
5.23246
21
-3.30385
0
LINE
8
BLACK
6
CONTINUOUS
10
5.23246
20
-3.30385
11
5.22565
21
-3.30385
0
LINE
8
BLACK
6
CONTINUOUS
10
5.22565
20
-3.30385
11
5.22464
21
-3.30367
0
LINE
8
BLACK
6
CONTINUOUS
10
5.22464
20
-3.30367
11
5.2231
21
-3.30237
0
LINE
8
BLACK
6
CONTINUOUS
10
5.2231
20
-3.30237
11
5.22275
21
-3.30039
0
LINE
8
BLACK
6
CONTINUOUS
10
5.22275
20
-3.30039
11
5.22376
21
-3.29864
0
LINE
8
BLACK
6
CONTINUOUS
10
5.22376
20
-3.29864
11
5.22565
21
-3.29795
0
LINE
8
BLACK
6
CONTINUOUS
10
5.22565
20
-3.29795
11
5.23315
21
-3.29795
0
LINE
8
BLACK
6
CONTINUOUS
10
5.23315
20
-3.29795
11
5.23416
21
-3.29812
0
LINE
8
BLACK
6
CONTINUOUS
10
5.2274
20
-3.3202
11
5.22621
21
-3.3214
0
LINE
8
BLACK
6
CONTINUOUS
10
5.22621
20
-3.3214
11
5.22486
21
-3.32409
0
LINE
8
BLACK
6
CONTINUOUS
10
5.22486
20
-3.32409
11
5.22486
21
-3.33207
0
LINE
8
BLACK
6
CONTINUOUS
10
5.22486
20
-3.33207
11
5.22621
21
-3.33477
0
LINE
8
BLACK
6
CONTINUOUS
10
5.22621
20
-3.33477
11
5.2274
21
-3.33597
0
LINE
8
BLACK
6
CONTINUOUS
10
5.2274
20
-3.33597
11
5.2301
21
-3.33732
0
LINE
8
BLACK
6
CONTINUOUS
10
5.2301
20
-3.33732
11
5.23621
21
-3.33732
0
LINE
8
BLACK
6
CONTINUOUS
10
5.23621
20
-3.33732
11
5.2389
21
-3.33597
0
LINE
8
BLACK
6
CONTINUOUS
10
5.2389
20
-3.33597
11
5.2401
21
-3.33477
0
LINE
8
BLACK
6
CONTINUOUS
10
5.2401
20
-3.33477
11
5.24145
21
-3.33207
0
LINE
8
BLACK
6
CONTINUOUS
10
5.24145
20
-3.33207
11
5.24145
21
-3.32409
0
LINE
8
BLACK
6
CONTINUOUS
10
5.24145
20
-3.32409
11
5.2401
21
-3.3214
0
LINE
8
BLACK
6
CONTINUOUS
10
5.2401
20
-3.3214
11
5.2389
21
-3.3202
0
LINE
8
BLACK
6
CONTINUOUS
10
5.2389
20
-3.3202
11
5.23621
21
-3.31885
0
LINE
8
BLACK
6
CONTINUOUS
10
5.23621
20
-3.31885
11
5.2301
21
-3.31885
0
LINE
8
BLACK
6
CONTINUOUS
10
5.2301
20
-3.31885
11
5.2274
21
-3.3202
0
LINE
8
BLACK
6
CONTINUOUS
10
5.29892
20
-3.29797
11
5.29899
21
-3.29795
0
LINE
8
BLACK
6
CONTINUOUS
10
5.29899
20
-3.29795
11
5.2991
21
-3.298
0
LINE
8
BLACK
6
CONTINUOUS
10
5.2991
20
-3.298
11
5.29978
21
-3.29812
0
LINE
8
BLACK
6
CONTINUOUS
10
5.29978
20
-3.29812
11
5.30026
21
-3.29853
0
LINE
8
BLACK
6
CONTINUOUS
10
5.30026
20
-3.29853
11
5.30083
21
-3.29878
0
LINE
8
BLACK
6
CONTINUOUS
10
5.30083
20
-3.29878
11
5.30101
21
-3.29916
0
LINE
8
BLACK
6
CONTINUOUS
10
5.30101
20
-3.29916
11
5.30133
21
-3.29942
0
LINE
8
BLACK
6
CONTINUOUS
10
5.30133
20
-3.29942
11
5.30144
21
-3.30004
0
LINE
8
BLACK
6
CONTINUOUS
10
5.30144
20
-3.30004
11
5.30171
21
-3.3006
0
LINE
8
BLACK
6
CONTINUOUS
10
5.30171
20
-3.3006
11
5.30358
21
-3.31935
0
LINE
8
BLACK
6
CONTINUOUS
10
5.30358
20
-3.31935
11
5.30351
21
-3.32037
0
LINE
8
BLACK
6
CONTINUOUS
10
5.30351
20
-3.32037
11
5.3035
21
-3.32039
0
LINE
8
BLACK
6
CONTINUOUS
10
5.3035
20
-3.32039
11
5.3035
21
-3.32041
0
LINE
8
BLACK
6
CONTINUOUS
10
5.3035
20
-3.32041
11
5.30293
21
-3.32122
0
LINE
8
BLACK
6
CONTINUOUS
10
5.30293
20
-3.32122
11
5.30237
21
-3.32204
0
LINE
8
BLACK
6
CONTINUOUS
10
5.30237
20
-3.32204
11
5.30235
21
-3.32205
0
LINE
8
BLACK
6
CONTINUOUS
10
5.30235
20
-3.32205
11
5.30234
21
-3.32206
0
LINE
8
BLACK
6
CONTINUOUS
10
5.30234
20
-3.32206
11
5.30138
21
-3.32232
0
LINE
8
BLACK
6
CONTINUOUS
10
5.30138
20
-3.32232
11
5.30042
21
-3.32259
0
LINE
8
BLACK
6
CONTINUOUS
10
5.30042
20
-3.32259
11
5.30041
21
-3.32258
0
LINE
8
BLACK
6
CONTINUOUS
10
5.30041
20
-3.32258
11
5.30039
21
-3.32259
0
LINE
8
BLACK
6
CONTINUOUS
10
5.30039
20
-3.32259
11
5.29949
21
-3.32217
0
LINE
8
BLACK
6
CONTINUOUS
10
5.29949
20
-3.32217
11
5.29858
21
-3.32176
0
LINE
8
BLACK
6
CONTINUOUS
10
5.29858
20
-3.32176
11
5.29857
21
-3.32174
0
LINE
8
BLACK
6
CONTINUOUS
10
5.29857
20
-3.32174
11
5.29856
21
-3.32173
0
LINE
8
BLACK
6
CONTINUOUS
10
5.29856
20
-3.32173
11
5.29702
21
-3.3202
0
LINE
8
BLACK
6
CONTINUOUS
10
5.29702
20
-3.3202
11
5.29432
21
-3.31885
0
LINE
8
BLACK
6
CONTINUOUS
10
5.29432
20
-3.31885
11
5.28634
21
-3.31885
0
LINE
8
BLACK
6
CONTINUOUS
10
5.28634
20
-3.31885
11
5.28365
21
-3.3202
0
LINE
8
BLACK
6
CONTINUOUS
10
5.28365
20
-3.3202
11
5.28245
21
-3.3214
0
LINE
8
BLACK
6
CONTINUOUS
10
5.28245
20
-3.3214
11
5.2811
21
-3.32409
0
LINE
8
BLACK
6
CONTINUOUS
10
5.2811
20
-3.32409
11
5.2811
21
-3.33207
0
LINE
8
BLACK
6
CONTINUOUS
10
5.2811
20
-3.33207
11
5.28245
21
-3.33477
0
LINE
8
BLACK
6
CONTINUOUS
10
5.28245
20
-3.33477
11
5.28365
21
-3.33597
0
LINE
8
BLACK
6
CONTINUOUS
10
5.28365
20
-3.33597
11
5.28634
21
-3.33732
0
LINE
8
BLACK
6
CONTINUOUS
10
5.28634
20
-3.33732
11
5.29432
21
-3.33732
0
LINE
8
BLACK
6
CONTINUOUS
10
5.29432
20
-3.33732
11
5.29702
21
-3.33597
0
LINE
8
BLACK
6
CONTINUOUS
10
5.29702
20
-3.33597
11
5.29856
21
-3.33443
0
LINE
8
BLACK
6
CONTINUOUS
10
5.29856
20
-3.33443
11
5.2994
21
-3.33384
0
LINE
8
BLACK
6
CONTINUOUS
10
5.2994
20
-3.33384
11
5.30141
21
-3.33367
0
LINE
8
BLACK
6
CONTINUOUS
10
5.30141
20
-3.33367
11
5.30306
21
-3.33483
0
LINE
8
BLACK
6
CONTINUOUS
10
5.30306
20
-3.33483
11
5.30359
21
-3.33678
0
LINE
8
BLACK
6
CONTINUOUS
10
5.30359
20
-3.33678
11
5.30273
21
-3.33861
0
LINE
8
BLACK
6
CONTINUOUS
10
5.30273
20
-3.33861
11
5.30086
21
-3.34048
0
LINE
8
BLACK
6
CONTINUOUS
10
5.30086
20
-3.34048
11
5.30013
21
-3.34099
0
LINE
8
BLACK
6
CONTINUOUS
10
5.30013
20
-3.34099
11
5.30009
21
-3.34103
0
LINE
8
BLACK
6
CONTINUOUS
10
5.30009
20
-3.34103
11
5.29634
21
-3.34291
0
LINE
8
BLACK
6
CONTINUOUS
10
5.29634
20
-3.34291
11
5.29536
21
-3.3432
0
LINE
8
BLACK
6
CONTINUOUS
10
5.29536
20
-3.3432
11
5.29519
21
-3.34316
0
LINE
8
BLACK
6
CONTINUOUS
10
5.29519
20
-3.34316
11
5.29502
21
-3.34322
0
LINE
8
BLACK
6
CONTINUOUS
10
5.29502
20
-3.34322
11
5.28565
21
-3.34322
0
LINE
8
BLACK
6
CONTINUOUS
10
5.28565
20
-3.34322
11
5.28464
21
-3.34304
0
LINE
8
BLACK
6
CONTINUOUS
10
5.28464
20
-3.34304
11
5.2845
21
-3.34293
0
LINE
8
BLACK
6
CONTINUOUS
10
5.2845
20
-3.34293
11
5.28433
21
-3.34291
0
LINE
8
BLACK
6
CONTINUOUS
10
5.28433
20
-3.34291
11
5.28058
21
-3.34103
0
LINE
8
BLACK
6
CONTINUOUS
10
5.28058
20
-3.34103
11
5.27987
21
-3.34051
0
LINE
8
BLACK
6
CONTINUOUS
10
5.27987
20
-3.34051
11
5.27981
21
-3.34048
0
LINE
8
BLACK
6
CONTINUOUS
10
5.27981
20
-3.34048
11
5.27793
21
-3.33861
0
LINE
8
BLACK
6
CONTINUOUS
10
5.27793
20
-3.33861
11
5.27743
21
-3.33788
0
LINE
8
BLACK
6
CONTINUOUS
10
5.27743
20
-3.33788
11
5.27738
21
-3.33784
0
LINE
8
BLACK
6
CONTINUOUS
10
5.27738
20
-3.33784
11
5.27551
21
-3.33409
0
LINE
8
BLACK
6
CONTINUOUS
10
5.27551
20
-3.33409
11
5.27521
21
-3.33311
0
LINE
8
BLACK
6
CONTINUOUS
10
5.27521
20
-3.33311
11
5.27526
21
-3.33294
0
LINE
8
BLACK
6
CONTINUOUS
10
5.27526
20
-3.33294
11
5.27519
21
-3.33277
0
LINE
8
BLACK
6
CONTINUOUS
10
5.27519
20
-3.33277
11
5.27519
21
-3.3234
0
LINE
8
BLACK
6
CONTINUOUS
10
5.27519
20
-3.3234
11
5.27537
21
-3.32239
0
LINE
8
BLACK
6
CONTINUOUS
10
5.27537
20
-3.32239
11
5.27549
21
-3.32225
0
LINE
8
BLACK
6
CONTINUOUS
10
5.27549
20
-3.32225
11
5.27551
21
-3.32208
0
LINE
8
BLACK
6
CONTINUOUS
10
5.27551
20
-3.32208
11
5.27738
21
-3.31833
0
LINE
8
BLACK
6
CONTINUOUS
10
5.27738
20
-3.31833
11
5.27791
21
-3.31762
0
LINE
8
BLACK
6
CONTINUOUS
10
5.27791
20
-3.31762
11
5.27793
21
-3.31756
0
LINE
8
BLACK
6
CONTINUOUS
10
5.27793
20
-3.31756
11
5.27981
21
-3.31568
0
LINE
8
BLACK
6
CONTINUOUS
10
5.27981
20
-3.31568
11
5.28053
21
-3.31518
0
LINE
8
BLACK
6
CONTINUOUS
10
5.28053
20
-3.31518
11
5.28058
21
-3.31513
0
LINE
8
BLACK
6
CONTINUOUS
10
5.28058
20
-3.31513
11
5.28433
21
-3.31326
0
LINE
8
BLACK
6
CONTINUOUS
10
5.28433
20
-3.31326
11
5.28531
21
-3.31296
0
LINE
8
BLACK
6
CONTINUOUS
10
5.28531
20
-3.31296
11
5.28548
21
-3.313
0
LINE
8
BLACK
6
CONTINUOUS
10
5.28548
20
-3.313
11
5.28565
21
-3.31294
0
LINE
8
BLACK
6
CONTINUOUS
10
5.28565
20
-3.31294
11
5.29502
21
-3.31294
0
LINE
8
BLACK
6
CONTINUOUS
10
5.29502
20
-3.31294
11
5.29603
21
-3.31312
0
LINE
8
BLACK
6
CONTINUOUS
10
5.29603
20
-3.31312
11
5.29617
21
-3.31324
0
LINE
8
BLACK
6
CONTINUOUS
10
5.29617
20
-3.31324
11
5.29634
21
-3.31326
0
LINE
8
BLACK
6
CONTINUOUS
10
5.29634
20
-3.31326
11
5.29707
21
-3.31362
0
LINE
8
BLACK
6
CONTINUOUS
10
5.29707
20
-3.31362
11
5.2961
21
-3.30385
0
LINE
8
BLACK
6
CONTINUOUS
10
5.2961
20
-3.30385
11
5.28002
21
-3.30385
0
LINE
8
BLACK
6
CONTINUOUS
10
5.28002
20
-3.30385
11
5.27901
21
-3.30367
0
LINE
8
BLACK
6
CONTINUOUS
10
5.27901
20
-3.30367
11
5.27747
21
-3.30237
0
LINE
8
BLACK
6
CONTINUOUS
10
5.27747
20
-3.30237
11
5.27711
21
-3.30039
0
LINE
8
BLACK
6
CONTINUOUS
10
5.27711
20
-3.30039
11
5.27812
21
-3.29864
0
LINE
8
BLACK
6
CONTINUOUS
10
5.27812
20
-3.29864
11
5.28002
21
-3.29795
0
LINE
8
BLACK
6
CONTINUOUS
10
5.28002
20
-3.29795
11
5.29877
21
-3.29795
0
LINE
8
BLACK
6
CONTINUOUS
10
5.29877
20
-3.29795
11
5.29892
21
-3.29797
0
LINE
8
BLACK
6
CONTINUOUS
10
5.37223
20
-3.29571
11
5.3724
21
-3.2957
0
LINE
8
BLACK
6
CONTINUOUS
10
5.3724
20
-3.2957
11
5.37309
21
-3.29621
0
LINE
8
BLACK
6
CONTINUOUS
10
5.37309
20
-3.29621
11
5.37384
21
-3.29664
0
LINE
8
BLACK
6
CONTINUOUS
10
5.37384
20
-3.29664
11
5.37389
21
-3.2968
0
LINE
8
BLACK
6
CONTINUOUS
10
5.37389
20
-3.2968
11
5.37403
21
-3.2969
0
LINE
8
BLACK
6
CONTINUOUS
10
5.37403
20
-3.2969
11
5.37473
21
-3.29795
0
LINE
8
BLACK
6
CONTINUOUS
10
5.37473
20
-3.29795
11
5.37564
21
-3.29795
0
LINE
8
BLACK
6
CONTINUOUS
10
5.37564
20
-3.29795
11
5.3765
21
-3.2981
0
LINE
8
BLACK
6
CONTINUOUS
10
5.3765
20
-3.2981
11
5.37657
21
-3.2981
0
LINE
8
BLACK
6
CONTINUOUS
10
5.37657
20
-3.2981
11
5.38219
21
-3.29997
0
LINE
8
BLACK
6
CONTINUOUS
10
5.38219
20
-3.29997
11
5.3831
21
-3.30046
0
LINE
8
BLACK
6
CONTINUOUS
10
5.3831
20
-3.30046
11
5.38319
21
-3.30061
0
LINE
8
BLACK
6
CONTINUOUS
10
5.38319
20
-3.30061
11
5.38335
21
-3.30069
0
LINE
8
BLACK
6
CONTINUOUS
10
5.38335
20
-3.30069
11
5.3871
21
-3.30443
0
LINE
8
BLACK
6
CONTINUOUS
10
5.3871
20
-3.30443
11
5.3876
21
-3.30516
0
LINE
8
BLACK
6
CONTINUOUS
10
5.3876
20
-3.30516
11
5.38765
21
-3.3052
0
LINE
8
BLACK
6
CONTINUOUS
10
5.38765
20
-3.3052
11
5.38953
21
-3.30895
0
LINE
8
BLACK
6
CONTINUOUS
10
5.38953
20
-3.30895
11
5.38967
21
-3.30944
0
LINE
8
BLACK
6
CONTINUOUS
10
5.38967
20
-3.30944
11
5.38975
21
-3.30956
0
LINE
8
BLACK
6
CONTINUOUS
10
5.38975
20
-3.30956
11
5.39162
21
-3.31706
0
LINE
8
BLACK
6
CONTINUOUS
10
5.39162
20
-3.31706
11
5.39166
21
-3.31764
0
LINE
8
BLACK
6
CONTINUOUS
10
5.39166
20
-3.31764
11
5.39171
21
-3.31777
0
LINE
8
BLACK
6
CONTINUOUS
10
5.39171
20
-3.31777
11
5.39171
21
-3.3234
0
LINE
8
BLACK
6
CONTINUOUS
10
5.39171
20
-3.3234
11
5.39161
21
-3.32398
0
LINE
8
BLACK
6
CONTINUOUS
10
5.39161
20
-3.32398
11
5.39162
21
-3.32411
0
LINE
8
BLACK
6
CONTINUOUS
10
5.39162
20
-3.32411
11
5.38975
21
-3.33161
0
LINE
8
BLACK
6
CONTINUOUS
10
5.38975
20
-3.33161
11
5.38954
21
-3.33208
0
LINE
8
BLACK
6
CONTINUOUS
10
5.38954
20
-3.33208
11
5.38953
21
-3.33222
0
LINE
8
BLACK
6
CONTINUOUS
10
5.38953
20
-3.33222
11
5.38765
21
-3.33596
0
LINE
8
BLACK
6
CONTINUOUS
10
5.38765
20
-3.33596
11
5.38712
21
-3.33667
0
LINE
8
BLACK
6
CONTINUOUS
10
5.38712
20
-3.33667
11
5.3871
21
-3.33673
0
LINE
8
BLACK
6
CONTINUOUS
10
5.3871
20
-3.33673
11
5.38568
21
-3.33815
0
LINE
8
BLACK
6
CONTINUOUS
10
5.38568
20
-3.33815
11
5.38573
21
-3.33842
0
LINE
8
BLACK
6
CONTINUOUS
10
5.38573
20
-3.33842
11
5.38472
21
-3.34017
0
LINE
8
BLACK
6
CONTINUOUS
10
5.38472
20
-3.34017
11
5.38282
21
-3.34086
0
LINE
8
BLACK
6
CONTINUOUS
10
5.38282
20
-3.34086
11
5.38281
21
-3.34086
0
LINE
8
BLACK
6
CONTINUOUS
10
5.38281
20
-3.34086
11
5.38251
21
-3.34107
0
LINE
8
BLACK
6
CONTINUOUS
10
5.38251
20
-3.34107
11
5.38233
21
-3.34109
0
LINE
8
BLACK
6
CONTINUOUS
10
5.38233
20
-3.34109
11
5.38219
21
-3.34119
0
LINE
8
BLACK
6
CONTINUOUS
10
5.38219
20
-3.34119
11
5.37657
21
-3.34307
0
LINE
8
BLACK
6
CONTINUOUS
10
5.37657
20
-3.34307
11
5.3757
21
-3.3432
0
LINE
8
BLACK
6
CONTINUOUS
10
5.3757
20
-3.3432
11
5.37564
21
-3.34322
0
LINE
8
BLACK
6
CONTINUOUS
10
5.37564
20
-3.34322
11
5.37189
21
-3.34322
0
LINE
8
BLACK
6
CONTINUOUS
10
5.37189
20
-3.34322
11
5.37102
21
-3.34307
0
LINE
8
BLACK
6
CONTINUOUS
10
5.37102
20
-3.34307
11
5.37095
21
-3.34307
0
LINE
8
BLACK
6
CONTINUOUS
10
5.37095
20
-3.34307
11
5.36533
21
-3.34119
0
LINE
8
BLACK
6
CONTINUOUS
10
5.36533
20
-3.34119
11
5.36471
21
-3.34086
0
LINE
8
BLACK
6
CONTINUOUS
10
5.36471
20
-3.34086
11
5.36033
21
-3.34086
0
LINE
8
BLACK
6
CONTINUOUS
10
5.36033
20
-3.34086
11
5.35932
21
-3.34068
0
LINE
8
BLACK
6
CONTINUOUS
10
5.35932
20
-3.34068
11
5.35777
21
-3.33938
0
LINE
8
BLACK
6
CONTINUOUS
10
5.35777
20
-3.33938
11
5.35742
21
-3.33739
0
LINE
8
BLACK
6
CONTINUOUS
10
5.35742
20
-3.33739
11
5.35843
21
-3.33564
0
LINE
8
BLACK
6
CONTINUOUS
10
5.35843
20
-3.33564
11
5.36033
21
-3.33495
0
LINE
8
BLACK
6
CONTINUOUS
10
5.36033
20
-3.33495
11
5.3621
21
-3.33495
0
LINE
8
BLACK
6
CONTINUOUS
10
5.3621
20
-3.33495
11
5.36269
21
-3.3341
0
LINE
8
BLACK
6
CONTINUOUS
10
5.36269
20
-3.3341
11
5.36464
21
-3.33358
0
LINE
8
BLACK
6
CONTINUOUS
10
5.36464
20
-3.33358
11
5.36647
21
-3.33443
0
LINE
8
BLACK
6
CONTINUOUS
10
5.36647
20
-3.33443
11
5.367
21
-3.33495
0
LINE
8
BLACK
6
CONTINUOUS
10
5.367
20
-3.33495
11
5.36862
21
-3.33495
0
LINE
8
BLACK
6
CONTINUOUS
10
5.36862
20
-3.33495
11
5.36862
21
-3.3051
0
LINE
8
BLACK
6
CONTINUOUS
10
5.36862
20
-3.3051
11
5.36786
21
-3.30535
0
LINE
8
BLACK
6
CONTINUOUS
10
5.36786
20
-3.30535
11
5.36647
21
-3.30674
0
LINE
8
BLACK
6
CONTINUOUS
10
5.36647
20
-3.30674
11
5.36563
21
-3.30732
0
LINE
8
BLACK
6
CONTINUOUS
10
5.36563
20
-3.30732
11
5.36362
21
-3.3075
0
LINE
8
BLACK
6
CONTINUOUS
10
5.36362
20
-3.3075
11
5.36197
21
-3.30634
0
LINE
8
BLACK
6
CONTINUOUS
10
5.36197
20
-3.30634
11
5.36145
21
-3.30439
0
LINE
8
BLACK
6
CONTINUOUS
10
5.36145
20
-3.30439
11
5.3623
21
-3.30256
0
LINE
8
BLACK
6
CONTINUOUS
10
5.3623
20
-3.30256
11
5.36417
21
-3.30069
0
LINE
8
BLACK
6
CONTINUOUS
10
5.36417
20
-3.30069
11
5.36501
21
-3.3001
0
LINE
8
BLACK
6
CONTINUOUS
10
5.36501
20
-3.3001
11
5.36519
21
-3.30008
0
LINE
8
BLACK
6
CONTINUOUS
10
5.36519
20
-3.30008
11
5.36533
21
-3.29997
0
LINE
8
BLACK
6
CONTINUOUS
10
5.36533
20
-3.29997
11
5.36862
21
-3.29887
0
LINE
8
BLACK
6
CONTINUOUS
10
5.36862
20
-3.29887
11
5.36862
21
-3.29854
0
LINE
8
BLACK
6
CONTINUOUS
10
5.36862
20
-3.29854
11
5.3688
21
-3.29753
0
LINE
8
BLACK
6
CONTINUOUS
10
5.3688
20
-3.29753
11
5.36891
21
-3.2974
0
LINE
8
BLACK
6
CONTINUOUS
10
5.36891
20
-3.2974
11
5.36893
21
-3.29723
0
LINE
8
BLACK
6
CONTINUOUS
10
5.36893
20
-3.29723
11
5.36955
21
-3.29664
0
LINE
8
BLACK
6
CONTINUOUS
10
5.36955
20
-3.29664
11
5.3701
21
-3.29598
0
LINE
8
BLACK
6
CONTINUOUS
10
5.3701
20
-3.29598
11
5.37027
21
-3.29595
0
LINE
8
BLACK
6
CONTINUOUS
10
5.37027
20
-3.29595
11
5.37039
21
-3.29583
0
LINE
8
BLACK
6
CONTINUOUS
10
5.37039
20
-3.29583
11
5.37124
21
-3.29578
0
LINE
8
BLACK
6
CONTINUOUS
10
5.37124
20
-3.29578
11
5.37209
21
-3.29563
0
LINE
8
BLACK
6
CONTINUOUS
10
5.37209
20
-3.29563
11
5.37223
21
-3.29571
0
LINE
8
BLACK
6
CONTINUOUS
10
5.37453
20
-3.33495
11
5.38052
21
-3.33495
0
LINE
8
BLACK
6
CONTINUOUS
10
5.38052
20
-3.33495
11
5.38258
21
-3.3329
0
LINE
8
BLACK
6
CONTINUOUS
10
5.38258
20
-3.3329
11
5.3841
21
-3.32986
0
LINE
8
BLACK
6
CONTINUOUS
10
5.3841
20
-3.32986
11
5.38581
21
-3.32303
0
LINE
8
BLACK
6
CONTINUOUS
10
5.38581
20
-3.32303
11
5.38581
21
-3.31813
0
LINE
8
BLACK
6
CONTINUOUS
10
5.38581
20
-3.31813
11
5.38431
21
-3.31213
0
LINE
8
BLACK
6
CONTINUOUS
10
5.38431
20
-3.31213
11
5.38351
21
-3.31266
0
LINE
8
BLACK
6
CONTINUOUS
10
5.38351
20
-3.31266
11
5.3815
21
-3.31243
0
LINE
8
BLACK
6
CONTINUOUS
10
5.3815
20
-3.31243
11
5.37775
21
-3.31055
0
LINE
8
BLACK
6
CONTINUOUS
10
5.37775
20
-3.31055
11
5.37704
21
-3.31003
0
LINE
8
BLACK
6
CONTINUOUS
10
5.37704
20
-3.31003
11
5.37699
21
-3.31
0
LINE
8
BLACK
6
CONTINUOUS
10
5.37699
20
-3.31
11
5.37453
21
-3.30754
0
LINE
8
BLACK
6
CONTINUOUS
10
5.37453
20
-3.30754
11
5.37453
21
-3.33495
0
LINE
8
BLACK
6
CONTINUOUS
10
5.4207
20
-3.29565
11
5.42083
21
-3.29563
0
LINE
8
BLACK
6
CONTINUOUS
10
5.42083
20
-3.29563
11
5.42094
21
-3.29569
0
LINE
8
BLACK
6
CONTINUOUS
10
5.42094
20
-3.29569
11
5.42133
21
-3.29576
0
LINE
8
BLACK
6
CONTINUOUS
10
5.42133
20
-3.29576
11
5.42192
21
-3.29625
0
LINE
8
BLACK
6
CONTINUOUS
10
5.42192
20
-3.29625
11
5.42258
21
-3.29664
0
LINE
8
BLACK
6
CONTINUOUS
10
5.42258
20
-3.29664
11
5.42267
21
-3.29689
0
LINE
8
BLACK
6
CONTINUOUS
10
5.42267
20
-3.29689
11
5.42288
21
-3.29706
0
LINE
8
BLACK
6
CONTINUOUS
10
5.42288
20
-3.29706
11
5.42301
21
-3.29782
0
LINE
8
BLACK
6
CONTINUOUS
10
5.42301
20
-3.29782
11
5.42306
21
-3.29795
0
LINE
8
BLACK
6
CONTINUOUS
10
5.42306
20
-3.29795
11
5.42438
21
-3.29795
0
LINE
8
BLACK
6
CONTINUOUS
10
5.42438
20
-3.29795
11
5.42453
21
-3.29797
0
LINE
8
BLACK
6
CONTINUOUS
10
5.42453
20
-3.29797
11
5.4246
21
-3.29795
0
LINE
8
BLACK
6
CONTINUOUS
10
5.4246
20
-3.29795
11
5.42471
21
-3.298
0
LINE
8
BLACK
6
CONTINUOUS
10
5.42471
20
-3.298
11
5.42539
21
-3.29812
0
LINE
8
BLACK
6
CONTINUOUS
10
5.42539
20
-3.29812
11
5.42587
21
-3.29853
0
LINE
8
BLACK
6
CONTINUOUS
10
5.42587
20
-3.29853
11
5.42644
21
-3.29878
0
LINE
8
BLACK
6
CONTINUOUS
10
5.42644
20
-3.29878
11
5.42662
21
-3.29916
0
LINE
8
BLACK
6
CONTINUOUS
10
5.42662
20
-3.29916
11
5.42694
21
-3.29942
0
LINE
8
BLACK
6
CONTINUOUS
10
5.42694
20
-3.29942
11
5.42705
21
-3.30004
0
LINE
8
BLACK
6
CONTINUOUS
10
5.42705
20
-3.30004
11
5.42732
21
-3.3006
0
LINE
8
BLACK
6
CONTINUOUS
10
5.42732
20
-3.3006
11
5.42919
21
-3.31935
0
LINE
8
BLACK
6
CONTINUOUS
10
5.42919
20
-3.31935
11
5.42912
21
-3.32037
0
LINE
8
BLACK
6
CONTINUOUS
10
5.42912
20
-3.32037
11
5.4291
21
-3.32039
0
LINE
8
BLACK
6
CONTINUOUS
10
5.4291
20
-3.32039
11
5.42911
21
-3.32041
0
LINE
8
BLACK
6
CONTINUOUS
10
5.42911
20
-3.32041
11
5.42854
21
-3.32122
0
LINE
8
BLACK
6
CONTINUOUS
10
5.42854
20
-3.32122
11
5.42798
21
-3.32204
0
LINE
8
BLACK
6
CONTINUOUS
10
5.42798
20
-3.32204
11
5.42796
21
-3.32205
0
LINE
8
BLACK
6
CONTINUOUS
10
5.42796
20
-3.32205
11
5.42795
21
-3.32206
0
LINE
8
BLACK
6
CONTINUOUS
10
5.42795
20
-3.32206
11
5.42699
21
-3.32232
0
LINE
8
BLACK
6
CONTINUOUS
10
5.42699
20
-3.32232
11
5.42603
21
-3.32259
0
LINE
8
BLACK
6
CONTINUOUS
10
5.42603
20
-3.32259
11
5.42602
21
-3.32258
0
LINE
8
BLACK
6
CONTINUOUS
10
5.42602
20
-3.32258
11
5.426
21
-3.32259
0
LINE
8
BLACK
6
CONTINUOUS
10
5.426
20
-3.32259
11
5.4251
21
-3.32217
0
LINE
8
BLACK
6
CONTINUOUS
10
5.4251
20
-3.32217
11
5.42419
21
-3.32176
0
LINE
8
BLACK
6
CONTINUOUS
10
5.42419
20
-3.32176
11
5.42418
21
-3.32174
0
LINE
8
BLACK
6
CONTINUOUS
10
5.42418
20
-3.32174
11
5.42417
21
-3.32173
0
LINE
8
BLACK
6
CONTINUOUS
10
5.42417
20
-3.32173
11
5.42327
21
-3.32084
0
LINE
8
BLACK
6
CONTINUOUS
10
5.42327
20
-3.32084
11
5.42327
21
-3.33533
0
LINE
8
BLACK
6
CONTINUOUS
10
5.42327
20
-3.33533
11
5.42417
21
-3.33443
0
LINE
8
BLACK
6
CONTINUOUS
10
5.42417
20
-3.33443
11
5.42501
21
-3.33384
0
LINE
8
BLACK
6
CONTINUOUS
10
5.42501
20
-3.33384
11
5.42702
21
-3.33367
0
LINE
8
BLACK
6
CONTINUOUS
10
5.42702
20
-3.33367
11
5.42867
21
-3.33483
0
LINE
8
BLACK
6
CONTINUOUS
10
5.42867
20
-3.33483
11
5.4292
21
-3.33678
0
LINE
8
BLACK
6
CONTINUOUS
10
5.4292
20
-3.33678
11
5.42834
21
-3.33861
0
LINE
8
BLACK
6
CONTINUOUS
10
5.42834
20
-3.33861
11
5.42647
21
-3.34048
0
LINE
8
BLACK
6
CONTINUOUS
10
5.42647
20
-3.34048
11
5.42574
21
-3.34099
0
LINE
8
BLACK
6
CONTINUOUS
10
5.42574
20
-3.34099
11
5.4257
21
-3.34103
0
LINE
8
BLACK
6
CONTINUOUS
10
5.4257
20
-3.34103
11
5.42195
21
-3.34291
0
LINE
8
BLACK
6
CONTINUOUS
10
5.42195
20
-3.34291
11
5.42097
21
-3.3432
0
LINE
8
BLACK
6
CONTINUOUS
10
5.42097
20
-3.3432
11
5.4208
21
-3.34316
0
LINE
8
BLACK
6
CONTINUOUS
10
5.4208
20
-3.34316
11
5.42063
21
-3.34322
0
LINE
8
BLACK
6
CONTINUOUS
10
5.42063
20
-3.34322
11
5.41126
21
-3.34322
0
LINE
8
BLACK
6
CONTINUOUS
10
5.41126
20
-3.34322
11
5.41025
21
-3.34304
0
LINE
8
BLACK
6
CONTINUOUS
10
5.41025
20
-3.34304
11
5.41011
21
-3.34293
0
LINE
8
BLACK
6
CONTINUOUS
10
5.41011
20
-3.34293
11
5.40994
21
-3.34291
0
LINE
8
BLACK
6
CONTINUOUS
10
5.40994
20
-3.34291
11
5.40619
21
-3.34103
0
LINE
8
BLACK
6
CONTINUOUS
10
5.40619
20
-3.34103
11
5.40548
21
-3.34051
0
LINE
8
BLACK
6
CONTINUOUS
10
5.40548
20
-3.34051
11
5.40542
21
-3.34048
0
LINE
8
BLACK
6
CONTINUOUS
10
5.40542
20
-3.34048
11
5.40354
21
-3.33861
0
LINE
8
BLACK
6
CONTINUOUS
10
5.40354
20
-3.33861
11
5.40313
21
-3.33802
0
LINE
8
BLACK
6
CONTINUOUS
10
5.40313
20
-3.33802
11
5.39948
21
-3.33437
0
LINE
8
BLACK
6
CONTINUOUS
10
5.39948
20
-3.33437
11
5.39898
21
-3.33365
0
LINE
8
BLACK
6
CONTINUOUS
10
5.39898
20
-3.33365
11
5.39893
21
-3.3336
0
LINE
8
BLACK
6
CONTINUOUS
10
5.39893
20
-3.3336
11
5.39706
21
-3.32985
0
LINE
8
BLACK
6
CONTINUOUS
10
5.39706
20
-3.32985
11
5.39691
21
-3.32936
0
LINE
8
BLACK
6
CONTINUOUS
10
5.39691
20
-3.32936
11
5.39683
21
-3.32925
0
LINE
8
BLACK
6
CONTINUOUS
10
5.39683
20
-3.32925
11
5.39496
21
-3.32175
0
LINE
8
BLACK
6
CONTINUOUS
10
5.39496
20
-3.32175
11
5.39492
21
-3.32116
0
LINE
8
BLACK
6
CONTINUOUS
10
5.39492
20
-3.32116
11
5.39487
21
-3.32103
0
LINE
8
BLACK
6
CONTINUOUS
10
5.39487
20
-3.32103
11
5.39487
21
-3.31541
0
LINE
8
BLACK
6
CONTINUOUS
10
5.39487
20
-3.31541
11
5.39497
21
-3.31483
0
LINE
8
BLACK
6
CONTINUOUS
10
5.39497
20
-3.31483
11
5.39496
21
-3.31469
0
LINE
8
BLACK
6
CONTINUOUS
10
5.39496
20
-3.31469
11
5.39683
21
-3.30719
0
LINE
8
BLACK
6
CONTINUOUS
10
5.39683
20
-3.30719
11
5.39704
21
-3.30673
0
LINE
8
BLACK
6
CONTINUOUS
10
5.39704
20
-3.30673
11
5.39706
21
-3.30659
0
LINE
8
BLACK
6
CONTINUOUS
10
5.39706
20
-3.30659
11
5.39893
21
-3.30284
0
LINE
8
BLACK
6
CONTINUOUS
10
5.39893
20
-3.30284
11
5.39946
21
-3.30213
0
LINE
8
BLACK
6
CONTINUOUS
10
5.39946
20
-3.30213
11
5.39948
21
-3.30207
0
LINE
8
BLACK
6
CONTINUOUS
10
5.39948
20
-3.30207
11
5.40323
21
-3.29832
0
LINE
8
BLACK
6
CONTINUOUS
10
5.40323
20
-3.29832
11
5.40407
21
-3.29773
0
LINE
8
BLACK
6
CONTINUOUS
10
5.40407
20
-3.29773
11
5.40425
21
-3.29772
0
LINE
8
BLACK
6
CONTINUOUS
10
5.40425
20
-3.29772
11
5.40439
21
-3.29761
0
LINE
8
BLACK
6
CONTINUOUS
10
5.40439
20
-3.29761
11
5.41001
21
-3.29573
0
LINE
8
BLACK
6
CONTINUOUS
10
5.41001
20
-3.29573
11
5.41088
21
-3.29561
0
LINE
8
BLACK
6
CONTINUOUS
10
5.41088
20
-3.29561
11
5.41094
21
-3.29558
0
LINE
8
BLACK
6
CONTINUOUS
10
5.41094
20
-3.29558
11
5.42032
21
-3.29558
0
LINE
8
BLACK
6
CONTINUOUS
10
5.42032
20
-3.29558
11
5.4207
21
-3.29565
0
LINE
8
BLACK
6
CONTINUOUS
10
5.40926
20
-3.3202
11
5.40806
21
-3.3214
0
LINE
8
BLACK
6
CONTINUOUS
10
5.40806
20
-3.3214
11
5.40671
21
-3.32409
0
LINE
8
BLACK
6
CONTINUOUS
10
5.40671
20
-3.32409
11
5.40671
21
-3.33207
0
LINE
8
BLACK
6
CONTINUOUS
10
5.40671
20
-3.33207
11
5.4075
21
-3.33364
0
LINE
8
BLACK
6
CONTINUOUS
10
5.4075
20
-3.33364
11
5.41142
21
-3.33495
0
LINE
8
BLACK
6
CONTINUOUS
10
5.41142
20
-3.33495
11
5.41737
21
-3.33495
0
LINE
8
BLACK
6
CONTINUOUS
10
5.41737
20
-3.33495
11
5.41737
21
-3.31885
0
LINE
8
BLACK
6
CONTINUOUS
10
5.41737
20
-3.31885
11
5.41195
21
-3.31885
0
LINE
8
BLACK
6
CONTINUOUS
10
5.41195
20
-3.31885
11
5.40926
21
-3.3202
0
LINE
8
BLACK
6
CONTINUOUS
10
5.404
20
-3.30591
11
5.40248
21
-3.30894
0
LINE
8
BLACK
6
CONTINUOUS
10
5.40248
20
-3.30894
11
5.40077
21
-3.31577
0
LINE
8
BLACK
6
CONTINUOUS
10
5.40077
20
-3.31577
11
5.40077
21
-3.32067
0
LINE
8
BLACK
6
CONTINUOUS
10
5.40077
20
-3.32067
11
5.40112
21
-3.32206
0
LINE
8
BLACK
6
CONTINUOUS
10
5.40112
20
-3.32206
11
5.40299
21
-3.31833
0
LINE
8
BLACK
6
CONTINUOUS
10
5.40299
20
-3.31833
11
5.40352
21
-3.31762
0
LINE
8
BLACK
6
CONTINUOUS
10
5.40352
20
-3.31762
11
5.40354
21
-3.31756
0
LINE
8
BLACK
6
CONTINUOUS
10
5.40354
20
-3.31756
11
5.40542
21
-3.31568
0
LINE
8
BLACK
6
CONTINUOUS
10
5.40542
20
-3.31568
11
5.40614
21
-3.31518
0
LINE
8
BLACK
6
CONTINUOUS
10
5.40614
20
-3.31518
11
5.40619
21
-3.31513
0
LINE
8
BLACK
6
CONTINUOUS
10
5.40619
20
-3.31513
11
5.40994
21
-3.31326
0
LINE
8
BLACK
6
CONTINUOUS
10
5.40994
20
-3.31326
11
5.41092
21
-3.31296
0
LINE
8
BLACK
6
CONTINUOUS
10
5.41092
20
-3.31296
11
5.41109
21
-3.313
0
LINE
8
BLACK
6
CONTINUOUS
10
5.41109
20
-3.313
11
5.41126
21
-3.31294
0
LINE
8
BLACK
6
CONTINUOUS
10
5.41126
20
-3.31294
11
5.41737
21
-3.31294
0
LINE
8
BLACK
6
CONTINUOUS
10
5.41737
20
-3.31294
11
5.41737
21
-3.30385
0
LINE
8
BLACK
6
CONTINUOUS
10
5.41737
20
-3.30385
11
5.40606
21
-3.30385
0
LINE
8
BLACK
6
CONTINUOUS
10
5.40606
20
-3.30385
11
5.404
21
-3.30591
0
LINE
8
BLACK
6
CONTINUOUS
10
5.46203
20
-3.29797
11
5.4621
21
-3.29795
0
LINE
8
BLACK
6
CONTINUOUS
10
5.4621
20
-3.29795
11
5.46221
21
-3.298
0
LINE
8
BLACK
6
CONTINUOUS
10
5.46221
20
-3.298
11
5.46288
21
-3.29812
0
LINE
8
BLACK
6
CONTINUOUS
10
5.46288
20
-3.29812
11
5.46336
21
-3.29853
0
LINE
8
BLACK
6
CONTINUOUS
10
5.46336
20
-3.29853
11
5.46394
21
-3.29878
0
LINE
8
BLACK
6
CONTINUOUS
10
5.46394
20
-3.29878
11
5.46412
21
-3.29916
0
LINE
8
BLACK
6
CONTINUOUS
10
5.46412
20
-3.29916
11
5.46443
21
-3.29942
0
LINE
8
BLACK
6
CONTINUOUS
10
5.46443
20
-3.29942
11
5.46454
21
-3.30004
0
LINE
8
BLACK
6
CONTINUOUS
10
5.46454
20
-3.30004
11
5.46481
21
-3.3006
0
LINE
8
BLACK
6
CONTINUOUS
10
5.46481
20
-3.3006
11
5.46669
21
-3.31935
0
LINE
8
BLACK
6
CONTINUOUS
10
5.46669
20
-3.31935
11
5.46661
21
-3.32037
0
LINE
8
BLACK
6
CONTINUOUS
10
5.46661
20
-3.32037
11
5.4666
21
-3.32039
0
LINE
8
BLACK
6
CONTINUOUS
10
5.4666
20
-3.32039
11
5.4666
21
-3.32041
0
LINE
8
BLACK
6
CONTINUOUS
10
5.4666
20
-3.32041
11
5.46603
21
-3.32122
0
LINE
8
BLACK
6
CONTINUOUS
10
5.46603
20
-3.32122
11
5.46547
21
-3.32204
0
LINE
8
BLACK
6
CONTINUOUS
10
5.46547
20
-3.32204
11
5.46545
21
-3.32205
0
LINE
8
BLACK
6
CONTINUOUS
10
5.46545
20
-3.32205
11
5.46544
21
-3.32206
0
LINE
8
BLACK
6
CONTINUOUS
10
5.46544
20
-3.32206
11
5.46448
21
-3.32232
0
LINE
8
BLACK
6
CONTINUOUS
10
5.46448
20
-3.32232
11
5.46353
21
-3.32259
0
LINE
8
BLACK
6
CONTINUOUS
10
5.46353
20
-3.32259
11
5.46351
21
-3.32258
0
LINE
8
BLACK
6
CONTINUOUS
10
5.46351
20
-3.32258
11
5.46349
21
-3.32259
0
LINE
8
BLACK
6
CONTINUOUS
10
5.46349
20
-3.32259
11
5.46259
21
-3.32217
0
LINE
8
BLACK
6
CONTINUOUS
10
5.46259
20
-3.32217
11
5.46169
21
-3.32176
0
LINE
8
BLACK
6
CONTINUOUS
10
5.46169
20
-3.32176
11
5.46168
21
-3.32174
0
LINE
8
BLACK
6
CONTINUOUS
10
5.46168
20
-3.32174
11
5.46166
21
-3.32173
0
LINE
8
BLACK
6
CONTINUOUS
10
5.46166
20
-3.32173
11
5.46013
21
-3.3202
0
LINE
8
BLACK
6
CONTINUOUS
10
5.46013
20
-3.3202
11
5.45743
21
-3.31885
0
LINE
8
BLACK
6
CONTINUOUS
10
5.45743
20
-3.31885
11
5.44945
21
-3.31885
0
LINE
8
BLACK
6
CONTINUOUS
10
5.44945
20
-3.31885
11
5.44675
21
-3.3202
0
LINE
8
BLACK
6
CONTINUOUS
10
5.44675
20
-3.3202
11
5.44555
21
-3.3214
0
LINE
8
BLACK
6
CONTINUOUS
10
5.44555
20
-3.3214
11
5.44421
21
-3.32409
0
LINE
8
BLACK
6
CONTINUOUS
10
5.44421
20
-3.32409
11
5.44421
21
-3.33207
0
LINE
8
BLACK
6
CONTINUOUS
10
5.44421
20
-3.33207
11
5.44555
21
-3.33477
0
LINE
8
BLACK
6
CONTINUOUS
10
5.44555
20
-3.33477
11
5.44675
21
-3.33597
0
LINE
8
BLACK
6
CONTINUOUS
10
5.44675
20
-3.33597
11
5.44945
21
-3.33732
0
LINE
8
BLACK
6
CONTINUOUS
10
5.44945
20
-3.33732
11
5.45743
21
-3.33732
0
LINE
8
BLACK
6
CONTINUOUS
10
5.45743
20
-3.33732
11
5.46013
21
-3.33597
0
LINE
8
BLACK
6
CONTINUOUS
10
5.46013
20
-3.33597
11
5.46166
21
-3.33443
0
LINE
8
BLACK
6
CONTINUOUS
10
5.46166
20
-3.33443
11
5.4625
21
-3.33384
0
LINE
8
BLACK
6
CONTINUOUS
10
5.4625
20
-3.33384
11
5.46451
21
-3.33367
0
LINE
8
BLACK
6
CONTINUOUS
10
5.46451
20
-3.33367
11
5.46617
21
-3.33483
0
LINE
8
BLACK
6
CONTINUOUS
10
5.46617
20
-3.33483
11
5.46669
21
-3.33678
0
LINE
8
BLACK
6
CONTINUOUS
10
5.46669
20
-3.33678
11
5.46584
21
-3.33861
0
LINE
8
BLACK
6
CONTINUOUS
10
5.46584
20
-3.33861
11
5.46396
21
-3.34048
0
LINE
8
BLACK
6
CONTINUOUS
10
5.46396
20
-3.34048
11
5.46324
21
-3.34099
0
LINE
8
BLACK
6
CONTINUOUS
10
5.46324
20
-3.34099
11
5.4632
21
-3.34103
0
LINE
8
BLACK
6
CONTINUOUS
10
5.4632
20
-3.34103
11
5.45945
21
-3.34291
0
LINE
8
BLACK
6
CONTINUOUS
10
5.45945
20
-3.34291
11
5.45846
21
-3.3432
0
LINE
8
BLACK
6
CONTINUOUS
10
5.45846
20
-3.3432
11
5.45829
21
-3.34316
0
LINE
8
BLACK
6
CONTINUOUS
10
5.45829
20
-3.34316
11
5.45813
21
-3.34322
0
LINE
8
BLACK
6
CONTINUOUS
10
5.45813
20
-3.34322
11
5.44875
21
-3.34322
0
LINE
8
BLACK
6
CONTINUOUS
10
5.44875
20
-3.34322
11
5.44774
21
-3.34304
0
LINE
8
BLACK
6
CONTINUOUS
10
5.44774
20
-3.34304
11
5.44761
21
-3.34293
0
LINE
8
BLACK
6
CONTINUOUS
10
5.44761
20
-3.34293
11
5.44743
21
-3.34291
0
LINE
8
BLACK
6
CONTINUOUS
10
5.44743
20
-3.34291
11
5.44368
21
-3.34103
0
LINE
8
BLACK
6
CONTINUOUS
10
5.44368
20
-3.34103
11
5.44297
21
-3.34051
0
LINE
8
BLACK
6
CONTINUOUS
10
5.44297
20
-3.34051
11
5.44291
21
-3.34048
0
LINE
8
BLACK
6
CONTINUOUS
10
5.44291
20
-3.34048
11
5.44104
21
-3.33861
0
LINE
8
BLACK
6
CONTINUOUS
10
5.44104
20
-3.33861
11
5.44053
21
-3.33788
0
LINE
8
BLACK
6
CONTINUOUS
10
5.44053
20
-3.33788
11
5.44049
21
-3.33784
0
LINE
8
BLACK
6
CONTINUOUS
10
5.44049
20
-3.33784
11
5.43861
21
-3.33409
0
LINE
8
BLACK
6
CONTINUOUS
10
5.43861
20
-3.33409
11
5.43832
21
-3.33311
0
LINE
8
BLACK
6
CONTINUOUS
10
5.43832
20
-3.33311
11
5.43836
21
-3.33294
0
LINE
8
BLACK
6
CONTINUOUS
10
5.43836
20
-3.33294
11
5.4383
21
-3.33277
0
LINE
8
BLACK
6
CONTINUOUS
10
5.4383
20
-3.33277
11
5.4383
21
-3.3234
0
LINE
8
BLACK
6
CONTINUOUS
10
5.4383
20
-3.3234
11
5.43848
21
-3.32239
0
LINE
8
BLACK
6
CONTINUOUS
10
5.43848
20
-3.32239
11
5.43859
21
-3.32225
0
LINE
8
BLACK
6
CONTINUOUS
10
5.43859
20
-3.32225
11
5.43861
21
-3.32208
0
LINE
8
BLACK
6
CONTINUOUS
10
5.43861
20
-3.32208
11
5.44049
21
-3.31833
0
LINE
8
BLACK
6
CONTINUOUS
10
5.44049
20
-3.31833
11
5.44101
21
-3.31762
0
LINE
8
BLACK
6
CONTINUOUS
10
5.44101
20
-3.31762
11
5.44104
21
-3.31756
0
LINE
8
BLACK
6
CONTINUOUS
10
5.44104
20
-3.31756
11
5.44291
21
-3.31568
0
LINE
8
BLACK
6
CONTINUOUS
10
5.44291
20
-3.31568
11
5.44364
21
-3.31518
0
LINE
8
BLACK
6
CONTINUOUS
10
5.44364
20
-3.31518
11
5.44368
21
-3.31513
0
LINE
8
BLACK
6
CONTINUOUS
10
5.44368
20
-3.31513
11
5.44743
21
-3.31326
0
LINE
8
BLACK
6
CONTINUOUS
10
5.44743
20
-3.31326
11
5.44841
21
-3.31296
0
LINE
8
BLACK
6
CONTINUOUS
10
5.44841
20
-3.31296
11
5.44859
21
-3.313
0
LINE
8
BLACK
6
CONTINUOUS
10
5.44859
20
-3.313
11
5.44875
21
-3.31294
0
LINE
8
BLACK
6
CONTINUOUS
10
5.44875
20
-3.31294
11
5.45813
21
-3.31294
0
LINE
8
BLACK
6
CONTINUOUS
10
5.45813
20
-3.31294
11
5.45914
21
-3.31312
0
LINE
8
BLACK
6
CONTINUOUS
10
5.45914
20
-3.31312
11
5.45927
21
-3.31324
0
LINE
8
BLACK
6
CONTINUOUS
10
5.45927
20
-3.31324
11
5.45945
21
-3.31326
0
LINE
8
BLACK
6
CONTINUOUS
10
5.45945
20
-3.31326
11
5.46018
21
-3.31362
0
LINE
8
BLACK
6
CONTINUOUS
10
5.46018
20
-3.31362
11
5.4592
21
-3.30385
0
LINE
8
BLACK
6
CONTINUOUS
10
5.4592
20
-3.30385
11
5.44313
21
-3.30385
0
LINE
8
BLACK
6
CONTINUOUS
10
5.44313
20
-3.30385
11
5.44212
21
-3.30367
0
LINE
8
BLACK
6
CONTINUOUS
10
5.44212
20
-3.30367
11
5.44057
21
-3.30237
0
LINE
8
BLACK
6
CONTINUOUS
10
5.44057
20
-3.30237
11
5.44022
21
-3.30039
0
LINE
8
BLACK
6
CONTINUOUS
10
5.44022
20
-3.30039
11
5.44123
21
-3.29864
0
LINE
8
BLACK
6
CONTINUOUS
10
5.44123
20
-3.29864
11
5.44313
21
-3.29795
0
LINE
8
BLACK
6
CONTINUOUS
10
5.44313
20
-3.29795
11
5.46187
21
-3.29795
0
LINE
8
BLACK
6
CONTINUOUS
10
5.46187
20
-3.29795
11
5.46203
21
-3.29797
0
LINE
8
BLACK
6
CONTINUOUS
10
5.53788
20
-3.29812
11
5.53942
21
-3.29942
0
LINE
8
BLACK
6
CONTINUOUS
10
5.53942
20
-3.29942
11
5.53977
21
-3.30141
0
LINE
8
BLACK
6
CONTINUOUS
10
5.53977
20
-3.30141
11
5.53876
21
-3.30316
0
LINE
8
BLACK
6
CONTINUOUS
10
5.53876
20
-3.30316
11
5.53687
21
-3.30385
0
LINE
8
BLACK
6
CONTINUOUS
10
5.53687
20
-3.30385
11
5.51614
21
-3.30385
0
LINE
8
BLACK
6
CONTINUOUS
10
5.51614
20
-3.30385
11
5.53932
21
-3.33863
0
LINE
8
BLACK
6
CONTINUOUS
10
5.53932
20
-3.33863
11
5.53938
21
-3.33875
0
LINE
8
BLACK
6
CONTINUOUS
10
5.53938
20
-3.33875
11
5.53942
21
-3.33879
0
LINE
8
BLACK
6
CONTINUOUS
10
5.53942
20
-3.33879
11
5.53944
21
-3.3389
0
LINE
8
BLACK
6
CONTINUOUS
10
5.53944
20
-3.3389
11
5.53973
21
-3.33957
0
LINE
8
BLACK
6
CONTINUOUS
10
5.53973
20
-3.33957
11
5.53967
21
-3.34018
0
LINE
8
BLACK
6
CONTINUOUS
10
5.53967
20
-3.34018
11
5.53977
21
-3.34078
0
LINE
8
BLACK
6
CONTINUOUS
10
5.53977
20
-3.34078
11
5.53956
21
-3.34115
0
LINE
8
BLACK
6
CONTINUOUS
10
5.53956
20
-3.34115
11
5.53951
21
-3.34158
0
LINE
8
BLACK
6
CONTINUOUS
10
5.53951
20
-3.34158
11
5.53907
21
-3.342
0
LINE
8
BLACK
6
CONTINUOUS
10
5.53907
20
-3.342
11
5.53876
21
-3.34253
0
LINE
8
BLACK
6
CONTINUOUS
10
5.53876
20
-3.34253
11
5.53836
21
-3.34268
0
LINE
8
BLACK
6
CONTINUOUS
10
5.53836
20
-3.34268
11
5.53805
21
-3.34297
0
LINE
8
BLACK
6
CONTINUOUS
10
5.53805
20
-3.34297
11
5.53744
21
-3.34301
0
LINE
8
BLACK
6
CONTINUOUS
10
5.53744
20
-3.34301
11
5.53687
21
-3.34322
0
LINE
8
BLACK
6
CONTINUOUS
10
5.53687
20
-3.34322
11
5.51062
21
-3.34322
0
LINE
8
BLACK
6
CONTINUOUS
10
5.51062
20
-3.34322
11
5.50961
21
-3.34304
0
LINE
8
BLACK
6
CONTINUOUS
10
5.50961
20
-3.34304
11
5.50806
21
-3.34174
0
LINE
8
BLACK
6
CONTINUOUS
10
5.50806
20
-3.34174
11
5.50771
21
-3.33976
0
LINE
8
BLACK
6
CONTINUOUS
10
5.50771
20
-3.33976
11
5.50872
21
-3.33801
0
LINE
8
BLACK
6
CONTINUOUS
10
5.50872
20
-3.33801
11
5.51062
21
-3.33732
0
LINE
8
BLACK
6
CONTINUOUS
10
5.51062
20
-3.33732
11
5.53135
21
-3.33732
0
LINE
8
BLACK
6
CONTINUOUS
10
5.53135
20
-3.33732
11
5.50816
21
-3.30254
0
LINE
8
BLACK
6
CONTINUOUS
10
5.50816
20
-3.30254
11
5.50811
21
-3.30241
0
LINE
8
BLACK
6
CONTINUOUS
10
5.50811
20
-3.30241
11
5.50806
21
-3.30237
0
LINE
8
BLACK
6
CONTINUOUS
10
5.50806
20
-3.30237
11
5.50804
21
-3.30226
0
LINE
8
BLACK
6
CONTINUOUS
10
5.50804
20
-3.30226
11
5.50775
21
-3.3016
0
LINE
8
BLACK
6
CONTINUOUS
10
5.50775
20
-3.3016
11
5.50782
21
-3.30099
0
LINE
8
BLACK
6
CONTINUOUS
10
5.50782
20
-3.30099
11
5.50771
21
-3.30039
0
LINE
8
BLACK
6
CONTINUOUS
10
5.50771
20
-3.30039
11
5.50792
21
-3.30002
0
LINE
8
BLACK
6
CONTINUOUS
10
5.50792
20
-3.30002
11
5.50797
21
-3.29959
0
LINE
8
BLACK
6
CONTINUOUS
10
5.50797
20
-3.29959
11
5.50841
21
-3.29917
0
LINE
8
BLACK
6
CONTINUOUS
10
5.50841
20
-3.29917
11
5.50872
21
-3.29864
0
LINE
8
BLACK
6
CONTINUOUS
10
5.50872
20
-3.29864
11
5.50912
21
-3.29849
0
LINE
8
BLACK
6
CONTINUOUS
10
5.50912
20
-3.29849
11
5.50943
21
-3.29819
0
LINE
8
BLACK
6
CONTINUOUS
10
5.50943
20
-3.29819
11
5.51004
21
-3.29816
0
LINE
8
BLACK
6
CONTINUOUS
10
5.51004
20
-3.29816
11
5.51062
21
-3.29795
0
LINE
8
BLACK
6
CONTINUOUS
10
5.51062
20
-3.29795
11
5.53687
21
-3.29795
0
LINE
8
BLACK
6
CONTINUOUS
10
5.53687
20
-3.29795
11
5.53788
21
-3.29812
0
LINE
8
BLACK
6
CONTINUOUS
10
5.56383
20
-3.29179
11
5.56396
21
-3.29177
0
LINE
8
BLACK
6
CONTINUOUS
10
5.56396
20
-3.29177
11
5.56407
21
-3.29184
0
LINE
8
BLACK
6
CONTINUOUS
10
5.56407
20
-3.29184
11
5.56446
21
-3.2919
0
LINE
8
BLACK
6
CONTINUOUS
10
5.56446
20
-3.2919
11
5.56504
21
-3.2924
0
LINE
8
BLACK
6
CONTINUOUS
10
5.56504
20
-3.2924
11
5.56571
21
-3.29278
0
LINE
8
BLACK
6
CONTINUOUS
10
5.56571
20
-3.29278
11
5.5658
21
-3.29303
0
LINE
8
BLACK
6
CONTINUOUS
10
5.5658
20
-3.29303
11
5.566
21
-3.2932
0
LINE
8
BLACK
6
CONTINUOUS
10
5.566
20
-3.2932
11
5.56614
21
-3.29396
0
LINE
8
BLACK
6
CONTINUOUS
10
5.56614
20
-3.29396
11
5.5664
21
-3.29468
0
LINE
8
BLACK
6
CONTINUOUS
10
5.5664
20
-3.29468
11
5.5664
21
-3.29795
0
LINE
8
BLACK
6
CONTINUOUS
10
5.5664
20
-3.29795
11
5.57249
21
-3.29795
0
LINE
8
BLACK
6
CONTINUOUS
10
5.57249
20
-3.29795
11
5.57287
21
-3.29801
0
LINE
8
BLACK
6
CONTINUOUS
10
5.57287
20
-3.29801
11
5.573
21
-3.29799
0
LINE
8
BLACK
6
CONTINUOUS
10
5.573
20
-3.29799
11
5.57311
21
-3.29806
0
LINE
8
BLACK
6
CONTINUOUS
10
5.57311
20
-3.29806
11
5.5735
21
-3.29812
0
LINE
8
BLACK
6
CONTINUOUS
10
5.5735
20
-3.29812
11
5.57408
21
-3.29862
0
LINE
8
BLACK
6
CONTINUOUS
10
5.57408
20
-3.29862
11
5.57475
21
-3.299
0
LINE
8
BLACK
6
CONTINUOUS
10
5.57475
20
-3.299
11
5.57484
21
-3.29925
0
LINE
8
BLACK
6
CONTINUOUS
10
5.57484
20
-3.29925
11
5.57504
21
-3.29942
0
LINE
8
BLACK
6
CONTINUOUS
10
5.57504
20
-3.29942
11
5.57518
21
-3.30018
0
LINE
8
BLACK
6
CONTINUOUS
10
5.57518
20
-3.30018
11
5.57544
21
-3.3009
0
LINE
8
BLACK
6
CONTINUOUS
10
5.57544
20
-3.3009
11
5.57544
21
-3.34027
0
LINE
8
BLACK
6
CONTINUOUS
10
5.57544
20
-3.34027
11
5.57537
21
-3.34065
0
LINE
8
BLACK
6
CONTINUOUS
10
5.57537
20
-3.34065
11
5.57539
21
-3.34078
0
LINE
8
BLACK
6
CONTINUOUS
10
5.57539
20
-3.34078
11
5.57533
21
-3.34089
0
LINE
8
BLACK
6
CONTINUOUS
10
5.57533
20
-3.34089
11
5.57526
21
-3.34128
0
LINE
8
BLACK
6
CONTINUOUS
10
5.57526
20
-3.34128
11
5.57477
21
-3.34187
0
LINE
8
BLACK
6
CONTINUOUS
10
5.57477
20
-3.34187
11
5.57438
21
-3.34253
0
LINE
8
BLACK
6
CONTINUOUS
10
5.57438
20
-3.34253
11
5.57413
21
-3.34262
0
LINE
8
BLACK
6
CONTINUOUS
10
5.57413
20
-3.34262
11
5.57396
21
-3.34283
0
LINE
8
BLACK
6
CONTINUOUS
10
5.57396
20
-3.34283
11
5.57321
21
-3.34296
0
LINE
8
BLACK
6
CONTINUOUS
10
5.57321
20
-3.34296
11
5.57249
21
-3.34322
0
LINE
8
BLACK
6
CONTINUOUS
10
5.57249
20
-3.34322
11
5.55749
21
-3.34322
0
LINE
8
BLACK
6
CONTINUOUS
10
5.55749
20
-3.34322
11
5.55648
21
-3.34304
0
LINE
8
BLACK
6
CONTINUOUS
10
5.55648
20
-3.34304
11
5.55634
21
-3.34293
0
LINE
8
BLACK
6
CONTINUOUS
10
5.55634
20
-3.34293
11
5.55617
21
-3.34291
0
LINE
8
BLACK
6
CONTINUOUS
10
5.55617
20
-3.34291
11
5.55242
21
-3.34103
0
LINE
8
BLACK
6
CONTINUOUS
10
5.55242
20
-3.34103
11
5.55171
21
-3.34051
0
LINE
8
BLACK
6
CONTINUOUS
10
5.55171
20
-3.34051
11
5.55165
21
-3.34048
0
LINE
8
BLACK
6
CONTINUOUS
10
5.55165
20
-3.34048
11
5.54978
21
-3.33861
0
LINE
8
BLACK
6
CONTINUOUS
10
5.54978
20
-3.33861
11
5.54927
21
-3.33788
0
LINE
8
BLACK
6
CONTINUOUS
10
5.54927
20
-3.33788
11
5.54922
21
-3.33784
0
LINE
8
BLACK
6
CONTINUOUS
10
5.54922
20
-3.33784
11
5.54735
21
-3.33409
0
LINE
8
BLACK
6
CONTINUOUS
10
5.54735
20
-3.33409
11
5.54706
21
-3.33311
0
LINE
8
BLACK
6
CONTINUOUS
10
5.54706
20
-3.33311
11
5.5471
21
-3.33294
0
LINE
8
BLACK
6
CONTINUOUS
10
5.5471
20
-3.33294
11
5.54704
21
-3.33277
0
LINE
8
BLACK
6
CONTINUOUS
10
5.54704
20
-3.33277
11
5.54704
21
-3.32715
0
LINE
8
BLACK
6
CONTINUOUS
10
5.54704
20
-3.32715
11
5.54721
21
-3.32614
0
LINE
8
BLACK
6
CONTINUOUS
10
5.54721
20
-3.32614
11
5.54733
21
-3.326
0
LINE
8
BLACK
6
CONTINUOUS
10
5.54733
20
-3.326
11
5.54735
21
-3.32582
0
LINE
8
BLACK
6
CONTINUOUS
10
5.54735
20
-3.32582
11
5.54922
21
-3.32208
0
LINE
8
BLACK
6
CONTINUOUS
10
5.54922
20
-3.32208
11
5.54975
21
-3.32137
0
LINE
8
BLACK
6
CONTINUOUS
10
5.54975
20
-3.32137
11
5.54978
21
-3.32131
0
LINE
8
BLACK
6
CONTINUOUS
10
5.54978
20
-3.32131
11
5.55165
21
-3.31943
0
LINE
8
BLACK
6
CONTINUOUS
10
5.55165
20
-3.31943
11
5.55249
21
-3.31884
0
LINE
8
BLACK
6
CONTINUOUS
10
5.55249
20
-3.31884
11
5.55251
21
-3.31884
0
LINE
8
BLACK
6
CONTINUOUS
10
5.55251
20
-3.31884
11
5.55165
21
-3.31798
0
LINE
8
BLACK
6
CONTINUOUS
10
5.55165
20
-3.31798
11
5.55114
21
-3.31726
0
LINE
8
BLACK
6
CONTINUOUS
10
5.55114
20
-3.31726
11
5.5511
21
-3.31722
0
LINE
8
BLACK
6
CONTINUOUS
10
5.5511
20
-3.31722
11
5.55068
21
-3.31638
0
LINE
8
BLACK
6
CONTINUOUS
10
5.55068
20
-3.31638
11
5.55032
21
-3.31638
0
LINE
8
BLACK
6
CONTINUOUS
10
5.55032
20
-3.31638
11
5.54931
21
-3.3162
0
LINE
8
BLACK
6
CONTINUOUS
10
5.54931
20
-3.3162
11
5.54777
21
-3.3149
0
LINE
8
BLACK
6
CONTINUOUS
10
5.54777
20
-3.3149
11
5.54741
21
-3.31291
0
LINE
8
BLACK
6
CONTINUOUS
10
5.54741
20
-3.31291
11
5.54842
21
-3.31116
0
LINE
8
BLACK
6
CONTINUOUS
10
5.54842
20
-3.31116
11
5.54891
21
-3.31099
0
LINE
8
BLACK
6
CONTINUOUS
10
5.54891
20
-3.31099
11
5.54891
21
-3.3084
0
LINE
8
BLACK
6
CONTINUOUS
10
5.54891
20
-3.3084
11
5.54909
21
-3.30739
0
LINE
8
BLACK
6
CONTINUOUS
10
5.54909
20
-3.30739
11
5.5492
21
-3.30725
0
LINE
8
BLACK
6
CONTINUOUS
10
5.5492
20
-3.30725
11
5.54922
21
-3.30708
0
LINE
8
BLACK
6
CONTINUOUS
10
5.54922
20
-3.30708
11
5.5511
21
-3.30333
0
LINE
8
BLACK
6
CONTINUOUS
10
5.5511
20
-3.30333
11
5.55162
21
-3.30262
0
LINE
8
BLACK
6
CONTINUOUS
10
5.55162
20
-3.30262
11
5.55165
21
-3.30256
0
LINE
8
BLACK
6
CONTINUOUS
10
5.55165
20
-3.30256
11
5.55353
21
-3.30069
0
LINE
8
BLACK
6
CONTINUOUS
10
5.55353
20
-3.30069
11
5.55425
21
-3.30018
0
LINE
8
BLACK
6
CONTINUOUS
10
5.55425
20
-3.30018
11
5.55429
21
-3.30013
0
LINE
8
BLACK
6
CONTINUOUS
10
5.55429
20
-3.30013
11
5.55804
21
-3.29826
0
LINE
8
BLACK
6
CONTINUOUS
10
5.55804
20
-3.29826
11
5.55902
21
-3.29797
0
LINE
8
BLACK
6
CONTINUOUS
10
5.55902
20
-3.29797
11
5.5592
21
-3.29801
0
LINE
8
BLACK
6
CONTINUOUS
10
5.5592
20
-3.29801
11
5.55936
21
-3.29795
0
LINE
8
BLACK
6
CONTINUOUS
10
5.55936
20
-3.29795
11
5.56049
21
-3.29795
0
LINE
8
BLACK
6
CONTINUOUS
10
5.56049
20
-3.29795
11
5.56049
21
-3.29763
0
LINE
8
BLACK
6
CONTINUOUS
10
5.56049
20
-3.29763
11
5.5447
21
-3.29763
0
LINE
8
BLACK
6
CONTINUOUS
10
5.5447
20
-3.29763
11
5.54369
21
-3.29745
0
LINE
8
BLACK
6
CONTINUOUS
10
5.54369
20
-3.29745
11
5.54214
21
-3.29615
0
LINE
8
BLACK
6
CONTINUOUS
10
5.54214
20
-3.29615
11
5.54179
21
-3.29417
0
LINE
8
BLACK
6
CONTINUOUS
10
5.54179
20
-3.29417
11
5.5428
21
-3.29242
0
LINE
8
BLACK
6
CONTINUOUS
10
5.5428
20
-3.29242
11
5.5447
21
-3.29173
0
LINE
8
BLACK
6
CONTINUOUS
10
5.5447
20
-3.29173
11
5.56345
21
-3.29173
0
LINE
8
BLACK
6
CONTINUOUS
10
5.56345
20
-3.29173
11
5.56383
21
-3.29179
0
LINE
8
BLACK
6
CONTINUOUS
10
5.55533
20
-3.3241
11
5.55429
21
-3.32514
0
LINE
8
BLACK
6
CONTINUOUS
10
5.55429
20
-3.32514
11
5.55294
21
-3.32784
0
LINE
8
BLACK
6
CONTINUOUS
10
5.55294
20
-3.32784
11
5.55294
21
-3.33207
0
LINE
8
BLACK
6
CONTINUOUS
10
5.55294
20
-3.33207
11
5.55429
21
-3.33477
0
LINE
8
BLACK
6
CONTINUOUS
10
5.55429
20
-3.33477
11
5.55549
21
-3.33597
0
LINE
8
BLACK
6
CONTINUOUS
10
5.55549
20
-3.33597
11
5.55818
21
-3.33732
0
LINE
8
BLACK
6
CONTINUOUS
10
5.55818
20
-3.33732
11
5.56953
21
-3.33732
0
LINE
8
BLACK
6
CONTINUOUS
10
5.56953
20
-3.33732
11
5.56953
21
-3.3226
0
LINE
8
BLACK
6
CONTINUOUS
10
5.56953
20
-3.3226
11
5.5664
21
-3.3226
0
LINE
8
BLACK
6
CONTINUOUS
10
5.5664
20
-3.3226
11
5.5664
21
-3.33405
0
LINE
8
BLACK
6
CONTINUOUS
10
5.5664
20
-3.33405
11
5.56622
21
-3.33506
0
LINE
8
BLACK
6
CONTINUOUS
10
5.56622
20
-3.33506
11
5.56492
21
-3.33661
0
LINE
8
BLACK
6
CONTINUOUS
10
5.56492
20
-3.33661
11
5.56293
21
-3.33696
0
LINE
8
BLACK
6
CONTINUOUS
10
5.56293
20
-3.33696
11
5.56118
21
-3.33595
0
LINE
8
BLACK
6
CONTINUOUS
10
5.56118
20
-3.33595
11
5.56049
21
-3.33405
0
LINE
8
BLACK
6
CONTINUOUS
10
5.56049
20
-3.33405
11
5.56049
21
-3.3226
0
LINE
8
BLACK
6
CONTINUOUS
10
5.56049
20
-3.3226
11
5.55984
21
-3.3226
0
LINE
8
BLACK
6
CONTINUOUS
10
5.55984
20
-3.3226
11
5.55533
21
-3.3241
0
LINE
8
BLACK
6
CONTINUOUS
10
5.5664
20
-3.31669
11
5.56953
21
-3.31669
0
LINE
8
BLACK
6
CONTINUOUS
10
5.56953
20
-3.31669
11
5.56953
21
-3.30385
0
LINE
8
BLACK
6
CONTINUOUS
10
5.56953
20
-3.30385
11
5.5664
21
-3.30385
0
LINE
8
BLACK
6
CONTINUOUS
10
5.5664
20
-3.30385
11
5.5664
21
-3.31669
0
LINE
8
BLACK
6
CONTINUOUS
10
5.56006
20
-3.31669
11
5.56049
21
-3.31669
0
LINE
8
BLACK
6
CONTINUOUS
10
5.56049
20
-3.31669
11
5.56049
21
-3.31638
0
LINE
8
BLACK
6
CONTINUOUS
10
5.56049
20
-3.31638
11
5.55943
21
-3.31638
0
LINE
8
BLACK
6
CONTINUOUS
10
5.55943
20
-3.31638
11
5.56006
21
-3.31669
0
LINE
8
BLACK
6
CONTINUOUS
10
5.55736
20
-3.3052
11
5.55616
21
-3.3064
0
LINE
8
BLACK
6
CONTINUOUS
10
5.55616
20
-3.3064
11
5.55482
21
-3.30909
0
LINE
8
BLACK
6
CONTINUOUS
10
5.55482
20
-3.30909
11
5.55482
21
-3.31047
0
LINE
8
BLACK
6
CONTINUOUS
10
5.55482
20
-3.31047
11
5.56049
21
-3.31047
0
LINE
8
BLACK
6
CONTINUOUS
10
5.56049
20
-3.31047
11
5.56049
21
-3.30385
0
LINE
8
BLACK
6
CONTINUOUS
10
5.56049
20
-3.30385
11
5.56006
21
-3.30385
0
LINE
8
BLACK
6
CONTINUOUS
10
5.56006
20
-3.30385
11
5.55736
21
-3.3052
0
LINE
8
BLACK
6
CONTINUOUS
10
5.18596
20
-3.29838
11
5.18721
21
-3.29996
0
LINE
8
BLACK
6
CONTINUOUS
10
5.18721
20
-3.29996
11
5.19753
21
-3.33093
0
LINE
8
BLACK
6
CONTINUOUS
10
5.19753
20
-3.33093
11
5.20785
21
-3.29996
0
LINE
8
BLACK
6
CONTINUOUS
10
5.20785
20
-3.29996
11
5.20834
21
-3.29906
0
LINE
8
BLACK
6
CONTINUOUS
10
5.20834
20
-3.29906
11
5.21006
21
-3.29801
0
LINE
8
BLACK
6
CONTINUOUS
10
5.21006
20
-3.29801
11
5.21206
21
-3.2983
0
LINE
8
BLACK
6
CONTINUOUS
10
5.21206
20
-3.2983
11
5.2134
21
-3.29981
0
LINE
8
BLACK
6
CONTINUOUS
10
5.2134
20
-3.29981
11
5.21346
21
-3.30183
0
LINE
8
BLACK
6
CONTINUOUS
10
5.21346
20
-3.30183
11
5.20033
21
-3.3412
0
LINE
8
BLACK
6
CONTINUOUS
10
5.20033
20
-3.3412
11
5.19985
21
-3.3421
0
LINE
8
BLACK
6
CONTINUOUS
10
5.19985
20
-3.3421
11
5.19977
21
-3.34215
0
LINE
8
BLACK
6
CONTINUOUS
10
5.19977
20
-3.34215
11
5.19974
21
-3.34223
0
LINE
8
BLACK
6
CONTINUOUS
10
5.19974
20
-3.34223
11
5.19892
21
-3.34267
0
LINE
8
BLACK
6
CONTINUOUS
10
5.19892
20
-3.34267
11
5.19812
21
-3.34316
0
LINE
8
BLACK
6
CONTINUOUS
10
5.19812
20
-3.34316
11
5.19804
21
-3.34315
0
LINE
8
BLACK
6
CONTINUOUS
10
5.19804
20
-3.34315
11
5.19797
21
-3.34319
0
LINE
8
BLACK
6
CONTINUOUS
10
5.19797
20
-3.34319
11
5.19705
21
-3.343
0
LINE
8
BLACK
6
CONTINUOUS
10
5.19705
20
-3.343
11
5.19613
21
-3.34286
0
LINE
8
BLACK
6
CONTINUOUS
10
5.19613
20
-3.34286
11
5.19607
21
-3.3428
0
LINE
8
BLACK
6
CONTINUOUS
10
5.19607
20
-3.3428
11
5.19599
21
-3.34278
0
LINE
8
BLACK
6
CONTINUOUS
10
5.19599
20
-3.34278
11
5.19541
21
-3.34205
0
LINE
8
BLACK
6
CONTINUOUS
10
5.19541
20
-3.34205
11
5.19479
21
-3.34135
0
LINE
8
BLACK
6
CONTINUOUS
10
5.19479
20
-3.34135
11
5.19478
21
-3.34127
0
LINE
8
BLACK
6
CONTINUOUS
10
5.19478
20
-3.34127
11
5.19473
21
-3.3412
0
LINE
8
BLACK
6
CONTINUOUS
10
5.19473
20
-3.3412
11
5.18161
21
-3.30183
0
LINE
8
BLACK
6
CONTINUOUS
10
5.18161
20
-3.30183
11
5.18146
21
-3.30082
0
LINE
8
BLACK
6
CONTINUOUS
10
5.18146
20
-3.30082
11
5.1822
21
-3.29894
0
LINE
8
BLACK
6
CONTINUOUS
10
5.1822
20
-3.29894
11
5.18398
21
-3.29798
0
LINE
8
BLACK
6
CONTINUOUS
10
5.18398
20
-3.29798
11
5.18596
21
-3.29838
0
LINE
8
BLACK
6
CONTINUOUS
10
5.47654
20
-3.29838
11
5.4778
21
-3.29996
0
LINE
8
BLACK
6
CONTINUOUS
10
5.4778
20
-3.29996
11
5.48812
21
-3.33093
0
LINE
8
BLACK
6
CONTINUOUS
10
5.48812
20
-3.33093
11
5.49844
21
-3.29996
0
LINE
8
BLACK
6
CONTINUOUS
10
5.49844
20
-3.29996
11
5.49893
21
-3.29906
0
LINE
8
BLACK
6
CONTINUOUS
10
5.49893
20
-3.29906
11
5.50065
21
-3.29801
0
LINE
8
BLACK
6
CONTINUOUS
10
5.50065
20
-3.29801
11
5.50265
21
-3.2983
0
LINE
8
BLACK
6
CONTINUOUS
10
5.50265
20
-3.2983
11
5.50399
21
-3.29981
0
LINE
8
BLACK
6
CONTINUOUS
10
5.50399
20
-3.29981
11
5.50405
21
-3.30183
0
LINE
8
BLACK
6
CONTINUOUS
10
5.50405
20
-3.30183
11
5.49092
21
-3.3412
0
LINE
8
BLACK
6
CONTINUOUS
10
5.49092
20
-3.3412
11
5.49043
21
-3.3421
0
LINE
8
BLACK
6
CONTINUOUS
10
5.49043
20
-3.3421
11
5.49036
21
-3.34215
0
LINE
8
BLACK
6
CONTINUOUS
10
5.49036
20
-3.34215
11
5.49033
21
-3.34223
0
LINE
8
BLACK
6
CONTINUOUS
10
5.49033
20
-3.34223
11
5.48951
21
-3.34267
0
LINE
8
BLACK
6
CONTINUOUS
10
5.48951
20
-3.34267
11
5.48871
21
-3.34316
0
LINE
8
BLACK
6
CONTINUOUS
10
5.48871
20
-3.34316
11
5.48863
21
-3.34315
0
LINE
8
BLACK
6
CONTINUOUS
10
5.48863
20
-3.34315
11
5.48855
21
-3.34319
0
LINE
8
BLACK
6
CONTINUOUS
10
5.48855
20
-3.34319
11
5.48764
21
-3.343
0
LINE
8
BLACK
6
CONTINUOUS
10
5.48764
20
-3.343
11
5.48672
21
-3.34286
0
LINE
8
BLACK
6
CONTINUOUS
10
5.48672
20
-3.34286
11
5.48666
21
-3.3428
0
LINE
8
BLACK
6
CONTINUOUS
10
5.48666
20
-3.3428
11
5.48658
21
-3.34278
0
LINE
8
BLACK
6
CONTINUOUS
10
5.48658
20
-3.34278
11
5.486
21
-3.34205
0
LINE
8
BLACK
6
CONTINUOUS
10
5.486
20
-3.34205
11
5.48538
21
-3.34135
0
LINE
8
BLACK
6
CONTINUOUS
10
5.48538
20
-3.34135
11
5.48537
21
-3.34127
0
LINE
8
BLACK
6
CONTINUOUS
10
5.48537
20
-3.34127
11
5.48532
21
-3.3412
0
LINE
8
BLACK
6
CONTINUOUS
10
5.48532
20
-3.3412
11
5.4722
21
-3.30183
0
LINE
8
BLACK
6
CONTINUOUS
10
5.4722
20
-3.30183
11
5.47205
21
-3.30082
0
LINE
8
BLACK
6
CONTINUOUS
10
5.47205
20
-3.30082
11
5.47279
21
-3.29894
0
LINE
8
BLACK
6
CONTINUOUS
10
5.47279
20
-3.29894
11
5.47457
21
-3.29798
0
LINE
8
BLACK
6
CONTINUOUS
10
5.47457
20
-3.29798
11
5.47654
21
-3.29838
0
LINE
8
BLACK
6
CONTINUOUS
10
5.63007
20
-3.2919
11
5.63021
21
-3.29202
0
LINE
8
BLACK
6
CONTINUOUS
10
5.63021
20
-3.29202
11
5.63038
21
-3.29204
0
LINE
8
BLACK
6
CONTINUOUS
10
5.63038
20
-3.29204
11
5.63413
21
-3.29391
0
LINE
8
BLACK
6
CONTINUOUS
10
5.63413
20
-3.29391
11
5.63484
21
-3.29444
0
LINE
8
BLACK
6
CONTINUOUS
10
5.63484
20
-3.29444
11
5.6349
21
-3.29446
0
LINE
8
BLACK
6
CONTINUOUS
10
5.6349
20
-3.29446
11
5.63677
21
-3.29634
0
LINE
8
BLACK
6
CONTINUOUS
10
5.63677
20
-3.29634
11
5.63728
21
-3.29706
0
LINE
8
BLACK
6
CONTINUOUS
10
5.63728
20
-3.29706
11
5.63733
21
-3.29711
0
LINE
8
BLACK
6
CONTINUOUS
10
5.63733
20
-3.29711
11
5.6392
21
-3.30086
0
LINE
8
BLACK
6
CONTINUOUS
10
5.6392
20
-3.30086
11
5.63935
21
-3.30134
0
LINE
8
BLACK
6
CONTINUOUS
10
5.63935
20
-3.30134
11
5.63943
21
-3.30146
0
LINE
8
BLACK
6
CONTINUOUS
10
5.63943
20
-3.30146
11
5.6413
21
-3.30896
0
LINE
8
BLACK
6
CONTINUOUS
10
5.6413
20
-3.30896
11
5.64134
21
-3.30955
0
LINE
8
BLACK
6
CONTINUOUS
10
5.64134
20
-3.30955
11
5.64139
21
-3.30968
0
LINE
8
BLACK
6
CONTINUOUS
10
5.64139
20
-3.30968
11
5.64139
21
-3.31905
0
LINE
8
BLACK
6
CONTINUOUS
10
5.64139
20
-3.31905
11
5.64129
21
-3.31963
0
LINE
8
BLACK
6
CONTINUOUS
10
5.64129
20
-3.31963
11
5.6413
21
-3.31977
0
LINE
8
BLACK
6
CONTINUOUS
10
5.6413
20
-3.31977
11
5.63943
21
-3.32727
0
LINE
8
BLACK
6
CONTINUOUS
10
5.63943
20
-3.32727
11
5.63922
21
-3.32773
0
LINE
8
BLACK
6
CONTINUOUS
10
5.63922
20
-3.32773
11
5.6392
21
-3.32787
0
LINE
8
BLACK
6
CONTINUOUS
10
5.6392
20
-3.32787
11
5.63733
21
-3.33162
0
LINE
8
BLACK
6
CONTINUOUS
10
5.63733
20
-3.33162
11
5.6368
21
-3.33233
0
LINE
8
BLACK
6
CONTINUOUS
10
5.6368
20
-3.33233
11
5.63677
21
-3.33239
0
LINE
8
BLACK
6
CONTINUOUS
10
5.63677
20
-3.33239
11
5.6349
21
-3.33426
0
LINE
8
BLACK
6
CONTINUOUS
10
5.6349
20
-3.33426
11
5.63418
21
-3.33477
0
LINE
8
BLACK
6
CONTINUOUS
10
5.63418
20
-3.33477
11
5.63413
21
-3.33481
0
LINE
8
BLACK
6
CONTINUOUS
10
5.63413
20
-3.33481
11
5.63038
21
-3.33669
0
LINE
8
BLACK
6
CONTINUOUS
10
5.63038
20
-3.33669
11
5.6294
21
-3.33698
0
LINE
8
BLACK
6
CONTINUOUS
10
5.6294
20
-3.33698
11
5.62923
21
-3.33694
0
LINE
8
BLACK
6
CONTINUOUS
10
5.62923
20
-3.33694
11
5.62906
21
-3.337
0
LINE
8
BLACK
6
CONTINUOUS
10
5.62906
20
-3.337
11
5.62531
21
-3.337
0
LINE
8
BLACK
6
CONTINUOUS
10
5.62531
20
-3.337
11
5.6243
21
-3.33682
0
LINE
8
BLACK
6
CONTINUOUS
10
5.6243
20
-3.33682
11
5.62417
21
-3.33671
0
LINE
8
BLACK
6
CONTINUOUS
10
5.62417
20
-3.33671
11
5.62399
21
-3.33669
0
LINE
8
BLACK
6
CONTINUOUS
10
5.62399
20
-3.33669
11
5.62024
21
-3.33481
0
LINE
8
BLACK
6
CONTINUOUS
10
5.62024
20
-3.33481
11
5.61953
21
-3.33429
0
LINE
8
BLACK
6
CONTINUOUS
10
5.61953
20
-3.33429
11
5.61948
21
-3.33426
0
LINE
8
BLACK
6
CONTINUOUS
10
5.61948
20
-3.33426
11
5.6176
21
-3.33239
0
LINE
8
BLACK
6
CONTINUOUS
10
5.6176
20
-3.33239
11
5.61709
21
-3.33166
0
LINE
8
BLACK
6
CONTINUOUS
10
5.61709
20
-3.33166
11
5.61705
21
-3.33162
0
LINE
8
BLACK
6
CONTINUOUS
10
5.61705
20
-3.33162
11
5.61517
21
-3.32787
0
LINE
8
BLACK
6
CONTINUOUS
10
5.61517
20
-3.32787
11
5.61503
21
-3.32738
0
LINE
8
BLACK
6
CONTINUOUS
10
5.61503
20
-3.32738
11
5.61495
21
-3.32727
0
LINE
8
BLACK
6
CONTINUOUS
10
5.61495
20
-3.32727
11
5.61307
21
-3.31977
0
LINE
8
BLACK
6
CONTINUOUS
10
5.61307
20
-3.31977
11
5.61303
21
-3.31918
0
LINE
8
BLACK
6
CONTINUOUS
10
5.61303
20
-3.31918
11
5.61299
21
-3.31905
0
LINE
8
BLACK
6
CONTINUOUS
10
5.61299
20
-3.31905
11
5.61299
21
-3.30968
0
LINE
8
BLACK
6
CONTINUOUS
10
5.61299
20
-3.30968
11
5.61309
21
-3.3091
0
LINE
8
BLACK
6
CONTINUOUS
10
5.61309
20
-3.3091
11
5.61307
21
-3.30896
0
LINE
8
BLACK
6
CONTINUOUS
10
5.61307
20
-3.30896
11
5.61495
21
-3.30146
0
LINE
8
BLACK
6
CONTINUOUS
10
5.61495
20
-3.30146
11
5.61516
21
-3.301
0
LINE
8
BLACK
6
CONTINUOUS
10
5.61516
20
-3.301
11
5.61517
21
-3.30086
0
LINE
8
BLACK
6
CONTINUOUS
10
5.61517
20
-3.30086
11
5.61705
21
-3.29711
0
LINE
8
BLACK
6
CONTINUOUS
10
5.61705
20
-3.29711
11
5.61757
21
-3.2964
0
LINE
8
BLACK
6
CONTINUOUS
10
5.61757
20
-3.2964
11
5.6176
21
-3.29634
0
LINE
8
BLACK
6
CONTINUOUS
10
5.6176
20
-3.29634
11
5.61948
21
-3.29446
0
LINE
8
BLACK
6
CONTINUOUS
10
5.61948
20
-3.29446
11
5.6202
21
-3.29396
0
LINE
8
BLACK
6
CONTINUOUS
10
5.6202
20
-3.29396
11
5.62024
21
-3.29391
0
LINE
8
BLACK
6
CONTINUOUS
10
5.62024
20
-3.29391
11
5.62399
21
-3.29204
0
LINE
8
BLACK
6
CONTINUOUS
10
5.62399
20
-3.29204
11
5.62498
21
-3.29174
0
LINE
8
BLACK
6
CONTINUOUS
10
5.62498
20
-3.29174
11
5.62515
21
-3.29179
0
LINE
8
BLACK
6
CONTINUOUS
10
5.62515
20
-3.29179
11
5.62531
21
-3.29173
0
LINE
8
BLACK
6
CONTINUOUS
10
5.62531
20
-3.29173
11
5.62906
21
-3.29173
0
LINE
8
BLACK
6
CONTINUOUS
10
5.62906
20
-3.29173
11
5.63007
21
-3.2919
0
LINE
8
BLACK
6
CONTINUOUS
10
5.62331
20
-3.29898
11
5.62212
21
-3.30018
0
LINE
8
BLACK
6
CONTINUOUS
10
5.62212
20
-3.30018
11
5.6206
21
-3.30321
0
LINE
8
BLACK
6
CONTINUOUS
10
5.6206
20
-3.30321
11
5.61889
21
-3.31004
0
LINE
8
BLACK
6
CONTINUOUS
10
5.61889
20
-3.31004
11
5.61889
21
-3.31869
0
LINE
8
BLACK
6
CONTINUOUS
10
5.61889
20
-3.31869
11
5.6206
21
-3.32552
0
LINE
8
BLACK
6
CONTINUOUS
10
5.6206
20
-3.32552
11
5.62212
21
-3.32855
0
LINE
8
BLACK
6
CONTINUOUS
10
5.62212
20
-3.32855
11
5.62331
21
-3.32975
0
LINE
8
BLACK
6
CONTINUOUS
10
5.62331
20
-3.32975
11
5.62601
21
-3.3311
0
LINE
8
BLACK
6
CONTINUOUS
10
5.62601
20
-3.3311
11
5.62837
21
-3.3311
0
LINE
8
BLACK
6
CONTINUOUS
10
5.62837
20
-3.3311
11
5.63106
21
-3.32975
0
LINE
8
BLACK
6
CONTINUOUS
10
5.63106
20
-3.32975
11
5.63226
21
-3.32855
0
LINE
8
BLACK
6
CONTINUOUS
10
5.63226
20
-3.32855
11
5.63378
21
-3.32552
0
LINE
8
BLACK
6
CONTINUOUS
10
5.63378
20
-3.32552
11
5.63548
21
-3.31869
0
LINE
8
BLACK
6
CONTINUOUS
10
5.63548
20
-3.31869
11
5.63548
21
-3.31004
0
LINE
8
BLACK
6
CONTINUOUS
10
5.63548
20
-3.31004
11
5.63378
21
-3.30321
0
LINE
8
BLACK
6
CONTINUOUS
10
5.63378
20
-3.30321
11
5.63226
21
-3.30018
0
LINE
8
BLACK
6
CONTINUOUS
10
5.63226
20
-3.30018
11
5.63106
21
-3.29898
0
LINE
8
BLACK
6
CONTINUOUS
10
5.63106
20
-3.29898
11
5.62837
21
-3.29763
0
LINE
8
BLACK
6
CONTINUOUS
10
5.62837
20
-3.29763
11
5.62601
21
-3.29763
0
LINE
8
BLACK
6
CONTINUOUS
10
5.62601
20
-3.29763
11
5.62331
21
-3.29898
0
LINE
8
BLACK
6
CONTINUOUS
10
5.66757
20
-3.2919
11
5.6677
21
-3.29202
0
LINE
8
BLACK
6
CONTINUOUS
10
5.6677
20
-3.29202
11
5.66788
21
-3.29204
0
LINE
8
BLACK
6
CONTINUOUS
10
5.66788
20
-3.29204
11
5.67163
21
-3.29391
0
LINE
8
BLACK
6
CONTINUOUS
10
5.67163
20
-3.29391
11
5.67234
21
-3.29444
0
LINE
8
BLACK
6
CONTINUOUS
10
5.67234
20
-3.29444
11
5.6724
21
-3.29446
0
LINE
8
BLACK
6
CONTINUOUS
10
5.6724
20
-3.29446
11
5.67427
21
-3.29634
0
LINE
8
BLACK
6
CONTINUOUS
10
5.67427
20
-3.29634
11
5.67478
21
-3.29706
0
LINE
8
BLACK
6
CONTINUOUS
10
5.67478
20
-3.29706
11
5.67482
21
-3.29711
0
LINE
8
BLACK
6
CONTINUOUS
10
5.67482
20
-3.29711
11
5.6767
21
-3.30086
0
LINE
8
BLACK
6
CONTINUOUS
10
5.6767
20
-3.30086
11
5.67684
21
-3.30134
0
LINE
8
BLACK
6
CONTINUOUS
10
5.67684
20
-3.30134
11
5.67692
21
-3.30146
0
LINE
8
BLACK
6
CONTINUOUS
10
5.67692
20
-3.30146
11
5.6788
21
-3.30896
0
LINE
8
BLACK
6
CONTINUOUS
10
5.6788
20
-3.30896
11
5.67884
21
-3.30955
0
LINE
8
BLACK
6
CONTINUOUS
10
5.67884
20
-3.30955
11
5.67888
21
-3.30968
0
LINE
8
BLACK
6
CONTINUOUS
10
5.67888
20
-3.30968
11
5.67888
21
-3.31905
0
LINE
8
BLACK
6
CONTINUOUS
10
5.67888
20
-3.31905
11
5.67878
21
-3.31963
0
LINE
8
BLACK
6
CONTINUOUS
10
5.67878
20
-3.31963
11
5.6788
21
-3.31977
0
LINE
8
BLACK
6
CONTINUOUS
10
5.6788
20
-3.31977
11
5.67692
21
-3.32727
0
LINE
8
BLACK
6
CONTINUOUS
10
5.67692
20
-3.32727
11
5.67671
21
-3.32773
0
LINE
8
BLACK
6
CONTINUOUS
10
5.67671
20
-3.32773
11
5.6767
21
-3.32787
0
LINE
8
BLACK
6
CONTINUOUS
10
5.6767
20
-3.32787
11
5.67482
21
-3.33162
0
LINE
8
BLACK
6
CONTINUOUS
10
5.67482
20
-3.33162
11
5.6743
21
-3.33233
0
LINE
8
BLACK
6
CONTINUOUS
10
5.6743
20
-3.33233
11
5.67427
21
-3.33239
0
LINE
8
BLACK
6
CONTINUOUS
10
5.67427
20
-3.33239
11
5.6724
21
-3.33426
0
LINE
8
BLACK
6
CONTINUOUS
10
5.6724
20
-3.33426
11
5.67167
21
-3.33477
0
LINE
8
BLACK
6
CONTINUOUS
10
5.67167
20
-3.33477
11
5.67163
21
-3.33481
0
LINE
8
BLACK
6
CONTINUOUS
10
5.67163
20
-3.33481
11
5.66788
21
-3.33669
0
LINE
8
BLACK
6
CONTINUOUS
10
5.66788
20
-3.33669
11
5.6669
21
-3.33698
0
LINE
8
BLACK
6
CONTINUOUS
10
5.6669
20
-3.33698
11
5.66672
21
-3.33694
0
LINE
8
BLACK
6
CONTINUOUS
10
5.66672
20
-3.33694
11
5.66656
21
-3.337
0
LINE
8
BLACK
6
CONTINUOUS
10
5.66656
20
-3.337
11
5.66281
21
-3.337
0
LINE
8
BLACK
6
CONTINUOUS
10
5.66281
20
-3.337
11
5.6618
21
-3.33682
0
LINE
8
BLACK
6
CONTINUOUS
10
5.6618
20
-3.33682
11
5.66166
21
-3.33671
0
LINE
8
BLACK
6
CONTINUOUS
10
5.66166
20
-3.33671
11
5.66149
21
-3.33669
0
LINE
8
BLACK
6
CONTINUOUS
10
5.66149
20
-3.33669
11
5.65774
21
-3.33481
0
LINE
8
BLACK
6
CONTINUOUS
10
5.65774
20
-3.33481
11
5.65703
21
-3.33429
0
LINE
8
BLACK
6
CONTINUOUS
10
5.65703
20
-3.33429
11
5.65697
21
-3.33426
0
LINE
8
BLACK
6
CONTINUOUS
10
5.65697
20
-3.33426
11
5.6551
21
-3.33239
0
LINE
8
BLACK
6
CONTINUOUS
10
5.6551
20
-3.33239
11
5.65459
21
-3.33166
0
LINE
8
BLACK
6
CONTINUOUS
10
5.65459
20
-3.33166
11
5.65454
21
-3.33162
0
LINE
8
BLACK
6
CONTINUOUS
10
5.65454
20
-3.33162
11
5.65267
21
-3.32787
0
LINE
8
BLACK
6
CONTINUOUS
10
5.65267
20
-3.32787
11
5.65252
21
-3.32738
0
LINE
8
BLACK
6
CONTINUOUS
10
5.65252
20
-3.32738
11
5.65244
21
-3.32727
0
LINE
8
BLACK
6
CONTINUOUS
10
5.65244
20
-3.32727
11
5.65057
21
-3.31977
0
LINE
8
BLACK
6
CONTINUOUS
10
5.65057
20
-3.31977
11
5.65053
21
-3.31918
0
LINE
8
BLACK
6
CONTINUOUS
10
5.65053
20
-3.31918
11
5.65048
21
-3.31905
0
LINE
8
BLACK
6
CONTINUOUS
10
5.65048
20
-3.31905
11
5.65048
21
-3.30968
0
LINE
8
BLACK
6
CONTINUOUS
10
5.65048
20
-3.30968
11
5.65058
21
-3.3091
0
LINE
8
BLACK
6
CONTINUOUS
10
5.65058
20
-3.3091
11
5.65057
21
-3.30896
0
LINE
8
BLACK
6
CONTINUOUS
10
5.65057
20
-3.30896
11
5.65244
21
-3.30146
0
LINE
8
BLACK
6
CONTINUOUS
10
5.65244
20
-3.30146
11
5.65265
21
-3.301
0
LINE
8
BLACK
6
CONTINUOUS
10
5.65265
20
-3.301
11
5.65267
21
-3.30086
0
LINE
8
BLACK
6
CONTINUOUS
10
5.65267
20
-3.30086
11
5.65454
21
-3.29711
0
LINE
8
BLACK
6
CONTINUOUS
10
5.65454
20
-3.29711
11
5.65507
21
-3.2964
0
LINE
8
BLACK
6
CONTINUOUS
10
5.65507
20
-3.2964
11
5.6551
21
-3.29634
0
LINE
8
BLACK
6
CONTINUOUS
10
5.6551
20
-3.29634
11
5.65697
21
-3.29446
0
LINE
8
BLACK
6
CONTINUOUS
10
5.65697
20
-3.29446
11
5.65769
21
-3.29396
0
LINE
8
BLACK
6
CONTINUOUS
10
5.65769
20
-3.29396
11
5.65774
21
-3.29391
0
LINE
8
BLACK
6
CONTINUOUS
10
5.65774
20
-3.29391
11
5.66149
21
-3.29204
0
LINE
8
BLACK
6
CONTINUOUS
10
5.66149
20
-3.29204
11
5.66247
21
-3.29174
0
LINE
8
BLACK
6
CONTINUOUS
10
5.66247
20
-3.29174
11
5.66264
21
-3.29179
0
LINE
8
BLACK
6
CONTINUOUS
10
5.66264
20
-3.29179
11
5.66281
21
-3.29173
0
LINE
8
BLACK
6
CONTINUOUS
10
5.66281
20
-3.29173
11
5.66656
21
-3.29173
0
LINE
8
BLACK
6
CONTINUOUS
10
5.66656
20
-3.29173
11
5.66757
21
-3.2919
0
LINE
8
BLACK
6
CONTINUOUS
10
5.66081
20
-3.29898
11
5.65961
21
-3.30018
0
LINE
8
BLACK
6
CONTINUOUS
10
5.65961
20
-3.30018
11
5.6581
21
-3.30321
0
LINE
8
BLACK
6
CONTINUOUS
10
5.6581
20
-3.30321
11
5.65639
21
-3.31004
0
LINE
8
BLACK
6
CONTINUOUS
10
5.65639
20
-3.31004
11
5.65639
21
-3.31869
0
LINE
8
BLACK
6
CONTINUOUS
10
5.65639
20
-3.31869
11
5.6581
21
-3.32552
0
LINE
8
BLACK
6
CONTINUOUS
10
5.6581
20
-3.32552
11
5.65961
21
-3.32855
0
LINE
8
BLACK
6
CONTINUOUS
10
5.65961
20
-3.32855
11
5.66081
21
-3.32975
0
LINE
8
BLACK
6
CONTINUOUS
10
5.66081
20
-3.32975
11
5.66351
21
-3.3311
0
LINE
8
BLACK
6
CONTINUOUS
10
5.66351
20
-3.3311
11
5.66586
21
-3.3311
0
LINE
8
BLACK
6
CONTINUOUS
10
5.66586
20
-3.3311
11
5.66856
21
-3.32975
0
LINE
8
BLACK
6
CONTINUOUS
10
5.66856
20
-3.32975
11
5.66976
21
-3.32855
0
LINE
8
BLACK
6
CONTINUOUS
10
5.66976
20
-3.32855
11
5.67127
21
-3.32552
0
LINE
8
BLACK
6
CONTINUOUS
10
5.67127
20
-3.32552
11
5.67298
21
-3.31869
0
LINE
8
BLACK
6
CONTINUOUS
10
5.67298
20
-3.31869
11
5.67298
21
-3.31004
0
LINE
8
BLACK
6
CONTINUOUS
10
5.67298
20
-3.31004
11
5.67127
21
-3.30321
0
LINE
8
BLACK
6
CONTINUOUS
10
5.67127
20
-3.30321
11
5.66976
21
-3.30018
0
LINE
8
BLACK
6
CONTINUOUS
10
5.66976
20
-3.30018
11
5.66856
21
-3.29898
0
LINE
8
BLACK
6
CONTINUOUS
10
5.66856
20
-3.29898
11
5.66586
21
-3.29763
0
LINE
8
BLACK
6
CONTINUOUS
10
5.66586
20
-3.29763
11
5.66351
21
-3.29763
0
LINE
8
BLACK
6
CONTINUOUS
10
5.66351
20
-3.29763
11
5.66081
21
-3.29898
0
LINE
8
BLACK
6
CONTINUOUS
10
5.70284
20
-3.29185
11
5.70301
21
-3.29184
0
LINE
8
BLACK
6
CONTINUOUS
10
5.70301
20
-3.29184
11
5.7037
21
-3.29235
0
LINE
8
BLACK
6
CONTINUOUS
10
5.7037
20
-3.29235
11
5.70444
21
-3.29278
0
LINE
8
BLACK
6
CONTINUOUS
10
5.70444
20
-3.29278
11
5.7045
21
-3.29294
0
LINE
8
BLACK
6
CONTINUOUS
10
5.7045
20
-3.29294
11
5.70464
21
-3.29304
0
LINE
8
BLACK
6
CONTINUOUS
10
5.70464
20
-3.29304
11
5.70822
21
-3.29842
0
LINE
8
BLACK
6
CONTINUOUS
10
5.70822
20
-3.29842
11
5.71143
21
-3.30163
0
LINE
8
BLACK
6
CONTINUOUS
10
5.71143
20
-3.30163
11
5.71475
21
-3.30329
0
LINE
8
BLACK
6
CONTINUOUS
10
5.71475
20
-3.30329
11
5.71557
21
-3.3039
0
LINE
8
BLACK
6
CONTINUOUS
10
5.71557
20
-3.3039
11
5.71637
21
-3.30575
0
LINE
8
BLACK
6
CONTINUOUS
10
5.71637
20
-3.30575
11
5.7158
21
-3.30769
0
LINE
8
BLACK
6
CONTINUOUS
10
5.7158
20
-3.30769
11
5.71411
21
-3.3088
0
LINE
8
BLACK
6
CONTINUOUS
10
5.71411
20
-3.3088
11
5.71211
21
-3.30857
0
LINE
8
BLACK
6
CONTINUOUS
10
5.71211
20
-3.30857
11
5.70836
21
-3.30669
0
LINE
8
BLACK
6
CONTINUOUS
10
5.70836
20
-3.30669
11
5.70765
21
-3.30617
0
LINE
8
BLACK
6
CONTINUOUS
10
5.70765
20
-3.30617
11
5.70759
21
-3.30614
0
LINE
8
BLACK
6
CONTINUOUS
10
5.70759
20
-3.30614
11
5.70513
21
-3.30368
0
LINE
8
BLACK
6
CONTINUOUS
10
5.70513
20
-3.30368
11
5.70513
21
-3.3311
0
LINE
8
BLACK
6
CONTINUOUS
10
5.70513
20
-3.3311
11
5.71343
21
-3.3311
0
LINE
8
BLACK
6
CONTINUOUS
10
5.71343
20
-3.3311
11
5.71444
21
-3.33127
0
LINE
8
BLACK
6
CONTINUOUS
10
5.71444
20
-3.33127
11
5.71598
21
-3.33257
0
LINE
8
BLACK
6
CONTINUOUS
10
5.71598
20
-3.33257
11
5.71633
21
-3.33456
0
LINE
8
BLACK
6
CONTINUOUS
10
5.71633
20
-3.33456
11
5.71533
21
-3.33631
0
LINE
8
BLACK
6
CONTINUOUS
10
5.71533
20
-3.33631
11
5.71343
21
-3.337
0
LINE
8
BLACK
6
CONTINUOUS
10
5.71343
20
-3.337
11
5.69093
21
-3.337
0
LINE
8
BLACK
6
CONTINUOUS
10
5.69093
20
-3.337
11
5.68992
21
-3.33682
0
LINE
8
BLACK
6
CONTINUOUS
10
5.68992
20
-3.33682
11
5.68837
21
-3.33552
0
LINE
8
BLACK
6
CONTINUOUS
10
5.68837
20
-3.33552
11
5.68802
21
-3.33354
0
LINE
8
BLACK
6
CONTINUOUS
10
5.68802
20
-3.33354
11
5.68903
21
-3.33179
0
LINE
8
BLACK
6
CONTINUOUS
10
5.68903
20
-3.33179
11
5.69093
21
-3.3311
0
LINE
8
BLACK
6
CONTINUOUS
10
5.69093
20
-3.3311
11
5.69923
21
-3.3311
0
LINE
8
BLACK
6
CONTINUOUS
10
5.69923
20
-3.3311
11
5.69923
21
-3.29468
0
LINE
8
BLACK
6
CONTINUOUS
10
5.69923
20
-3.29468
11
5.6994
21
-3.29367
0
LINE
8
BLACK
6
CONTINUOUS
10
5.6994
20
-3.29367
11
5.69951
21
-3.29354
0
LINE
8
BLACK
6
CONTINUOUS
10
5.69951
20
-3.29354
11
5.69953
21
-3.29337
0
LINE
8
BLACK
6
CONTINUOUS
10
5.69953
20
-3.29337
11
5.70015
21
-3.29278
0
LINE
8
BLACK
6
CONTINUOUS
10
5.70015
20
-3.29278
11
5.7007
21
-3.29212
0
LINE
8
BLACK
6
CONTINUOUS
10
5.7007
20
-3.29212
11
5.70087
21
-3.29209
0
LINE
8
BLACK
6
CONTINUOUS
10
5.70087
20
-3.29209
11
5.70099
21
-3.29197
0
LINE
8
BLACK
6
CONTINUOUS
10
5.70099
20
-3.29197
11
5.70185
21
-3.29192
0
LINE
8
BLACK
6
CONTINUOUS
10
5.70185
20
-3.29192
11
5.70269
21
-3.29177
0
LINE
8
BLACK
6
CONTINUOUS
10
5.70269
20
-3.29177
11
5.70284
21
-3.29185
0
LINE
8
BLACK
6
CONTINUOUS
10
5.59445
20
-3.30503
11
5.59459
21
-3.30514
0
LINE
8
BLACK
6
CONTINUOUS
10
5.59459
20
-3.30514
11
5.59476
21
-3.30516
0
LINE
8
BLACK
6
CONTINUOUS
10
5.59476
20
-3.30516
11
5.5968
21
-3.30618
0
LINE
8
BLACK
6
CONTINUOUS
10
5.5968
20
-3.30618
11
5.59759
21
-3.30524
0
LINE
8
BLACK
6
CONTINUOUS
10
5.59759
20
-3.30524
11
5.59958
21
-3.30489
0
LINE
8
BLACK
6
CONTINUOUS
10
5.59958
20
-3.30489
11
5.60133
21
-3.3059
0
LINE
8
BLACK
6
CONTINUOUS
10
5.60133
20
-3.3059
11
5.60202
21
-3.3078
0
LINE
8
BLACK
6
CONTINUOUS
10
5.60202
20
-3.3078
11
5.60202
21
-3.33405
0
LINE
8
BLACK
6
CONTINUOUS
10
5.60202
20
-3.33405
11
5.60184
21
-3.33506
0
LINE
8
BLACK
6
CONTINUOUS
10
5.60184
20
-3.33506
11
5.60054
21
-3.33661
0
LINE
8
BLACK
6
CONTINUOUS
10
5.60054
20
-3.33661
11
5.59855
21
-3.33696
0
LINE
8
BLACK
6
CONTINUOUS
10
5.59855
20
-3.33696
11
5.5968
21
-3.33595
0
LINE
8
BLACK
6
CONTINUOUS
10
5.5968
20
-3.33595
11
5.59611
21
-3.33405
0
LINE
8
BLACK
6
CONTINUOUS
10
5.59611
20
-3.33405
11
5.59611
21
-3.31277
0
LINE
8
BLACK
6
CONTINUOUS
10
5.59611
20
-3.31277
11
5.59544
21
-3.3121
0
LINE
8
BLACK
6
CONTINUOUS
10
5.59544
20
-3.3121
11
5.59274
21
-3.31075
0
LINE
8
BLACK
6
CONTINUOUS
10
5.59274
20
-3.31075
11
5.58851
21
-3.31075
0
LINE
8
BLACK
6
CONTINUOUS
10
5.58851
20
-3.31075
11
5.58627
21
-3.31188
0
LINE
8
BLACK
6
CONTINUOUS
10
5.58627
20
-3.31188
11
5.58515
21
-3.31412
0
LINE
8
BLACK
6
CONTINUOUS
10
5.58515
20
-3.31412
11
5.58515
21
-3.33405
0
LINE
8
BLACK
6
CONTINUOUS
10
5.58515
20
-3.33405
11
5.58497
21
-3.33506
0
LINE
8
BLACK
6
CONTINUOUS
10
5.58497
20
-3.33506
11
5.58367
21
-3.33661
0
LINE
8
BLACK
6
CONTINUOUS
10
5.58367
20
-3.33661
11
5.58168
21
-3.33696
0
LINE
8
BLACK
6
CONTINUOUS
10
5.58168
20
-3.33696
11
5.57993
21
-3.33595
0
LINE
8
BLACK
6
CONTINUOUS
10
5.57993
20
-3.33595
11
5.57924
21
-3.33405
0
LINE
8
BLACK
6
CONTINUOUS
10
5.57924
20
-3.33405
11
5.57924
21
-3.31343
0
LINE
8
BLACK
6
CONTINUOUS
10
5.57924
20
-3.31343
11
5.57942
21
-3.31242
0
LINE
8
BLACK
6
CONTINUOUS
10
5.57942
20
-3.31242
11
5.57953
21
-3.31228
0
LINE
8
BLACK
6
CONTINUOUS
10
5.57953
20
-3.31228
11
5.57955
21
-3.31211
0
LINE
8
BLACK
6
CONTINUOUS
10
5.57955
20
-3.31211
11
5.58143
21
-3.30836
0
LINE
8
BLACK
6
CONTINUOUS
10
5.58143
20
-3.30836
11
5.58204
21
-3.30753
0
LINE
8
BLACK
6
CONTINUOUS
10
5.58204
20
-3.30753
11
5.58244
21
-3.30736
0
LINE
8
BLACK
6
CONTINUOUS
10
5.58244
20
-3.30736
11
5.58275
21
-3.30703
0
LINE
8
BLACK
6
CONTINUOUS
10
5.58275
20
-3.30703
11
5.5865
21
-3.30516
0
LINE
8
BLACK
6
CONTINUOUS
10
5.5865
20
-3.30516
11
5.58748
21
-3.30487
0
LINE
8
BLACK
6
CONTINUOUS
10
5.58748
20
-3.30487
11
5.58765
21
-3.30491
0
LINE
8
BLACK
6
CONTINUOUS
10
5.58765
20
-3.30491
11
5.58782
21
-3.30485
0
LINE
8
BLACK
6
CONTINUOUS
10
5.58782
20
-3.30485
11
5.59344
21
-3.30485
0
LINE
8
BLACK
6
CONTINUOUS
10
5.59344
20
-3.30485
11
5.59445
21
-3.30503
0
LINE
8
BLACK
6
CONTINUOUS
10
5.34852
20
-3.3225
11
5.35007
21
-3.32379
0
LINE
8
BLACK
6
CONTINUOUS
10
5.35007
20
-3.32379
11
5.35042
21
-3.32578
0
LINE
8
BLACK
6
CONTINUOUS
10
5.35042
20
-3.32578
11
5.34941
21
-3.32753
0
LINE
8
BLACK
6
CONTINUOUS
10
5.34941
20
-3.32753
11
5.34751
21
-3.32822
0
LINE
8
BLACK
6
CONTINUOUS
10
5.34751
20
-3.32822
11
5.31752
21
-3.32822
0
LINE
8
BLACK
6
CONTINUOUS
10
5.31752
20
-3.32822
11
5.31651
21
-3.32804
0
LINE
8
BLACK
6
CONTINUOUS
10
5.31651
20
-3.32804
11
5.31496
21
-3.32675
0
LINE
8
BLACK
6
CONTINUOUS
10
5.31496
20
-3.32675
11
5.31461
21
-3.32476
0
LINE
8
BLACK
6
CONTINUOUS
10
5.31461
20
-3.32476
11
5.31562
21
-3.32301
0
LINE
8
BLACK
6
CONTINUOUS
10
5.31562
20
-3.32301
11
5.31752
21
-3.32232
0
LINE
8
BLACK
6
CONTINUOUS
10
5.31752
20
-3.32232
11
5.34751
21
-3.32232
0
LINE
8
BLACK
6
CONTINUOUS
10
5.34751
20
-3.32232
11
5.34852
21
-3.3225
0
LINE
8
BLACK
6
CONTINUOUS
10
5.40822
20
-3.18715
11
5.4088
21
-3.18854
0
LINE
8
BLACK
6
CONTINUOUS
10
5.4088
20
-3.18854
11
5.4088
21
-3.21807
0
LINE
8
BLACK
6
CONTINUOUS
10
5.4088
20
-3.21807
11
5.44233
21
-3.21807
0
LINE
8
BLACK
6
CONTINUOUS
10
5.44233
20
-3.21807
11
5.44372
21
-3.21865
0
LINE
8
BLACK
6
CONTINUOUS
10
5.44372
20
-3.21865
11
5.4443
21
-3.22004
0
LINE
8
BLACK
6
CONTINUOUS
10
5.4443
20
-3.22004
11
5.44372
21
-3.22143
0
LINE
8
BLACK
6
CONTINUOUS
10
5.44372
20
-3.22143
11
5.44233
21
-3.22201
0
LINE
8
BLACK
6
CONTINUOUS
10
5.44233
20
-3.22201
11
5.4088
21
-3.22201
0
LINE
8
BLACK
6
CONTINUOUS
10
5.4088
20
-3.22201
11
5.4088
21
-3.25154
0
LINE
8
BLACK
6
CONTINUOUS
10
5.4088
20
-3.25154
11
5.40822
21
-3.25293
0
LINE
8
BLACK
6
CONTINUOUS
10
5.40822
20
-3.25293
11
5.40683
21
-3.25351
0
LINE
8
BLACK
6
CONTINUOUS
10
5.40683
20
-3.25351
11
5.40544
21
-3.25293
0
LINE
8
BLACK
6
CONTINUOUS
10
5.40544
20
-3.25293
11
5.40486
21
-3.25154
0
LINE
8
BLACK
6
CONTINUOUS
10
5.40486
20
-3.25154
11
5.40486
21
-3.22367
0
LINE
8
BLACK
6
CONTINUOUS
10
5.40486
20
-3.22367
11
5.3626
21
-3.25119
0
LINE
8
BLACK
6
CONTINUOUS
10
5.3626
20
-3.25119
11
5.36205
21
-3.25129
0
LINE
8
BLACK
6
CONTINUOUS
10
5.36205
20
-3.25129
11
5.36153
21
-3.25151
0
LINE
8
BLACK
6
CONTINUOUS
10
5.36153
20
-3.25151
11
5.36133
21
-3.25143
0
LINE
8
BLACK
6
CONTINUOUS
10
5.36133
20
-3.25143
11
5.36112
21
-3.25147
0
LINE
8
BLACK
6
CONTINUOUS
10
5.36112
20
-3.25147
11
5.36066
21
-3.25115
0
LINE
8
BLACK
6
CONTINUOUS
10
5.36066
20
-3.25115
11
5.36014
21
-3.25093
0
LINE
8
BLACK
6
CONTINUOUS
10
5.36014
20
-3.25093
11
5.36005
21
-3.25073
0
LINE
8
BLACK
6
CONTINUOUS
10
5.36005
20
-3.25073
11
5.35988
21
-3.25061
0
LINE
8
BLACK
6
CONTINUOUS
10
5.35988
20
-3.25061
11
5.35978
21
-3.25006
0
LINE
8
BLACK
6
CONTINUOUS
10
5.35978
20
-3.25006
11
5.35956
21
-3.24954
0
LINE
8
BLACK
6
CONTINUOUS
10
5.35956
20
-3.24954
11
5.35956
21
-3.22201
0
LINE
8
BLACK
6
CONTINUOUS
10
5.35956
20
-3.22201
11
5.32223
21
-3.22201
0
LINE
8
BLACK
6
CONTINUOUS
10
5.32223
20
-3.22201
11
5.32084
21
-3.22143
0
LINE
8
BLACK
6
CONTINUOUS
10
5.32084
20
-3.22143
11
5.32026
21
-3.22004
0
LINE
8
BLACK
6
CONTINUOUS
10
5.32026
20
-3.22004
11
5.32084
21
-3.21865
0
LINE
8
BLACK
6
CONTINUOUS
10
5.32084
20
-3.21865
11
5.32223
21
-3.21807
0
LINE
8
BLACK
6
CONTINUOUS
10
5.32223
20
-3.21807
11
5.35956
21
-3.21807
0
LINE
8
BLACK
6
CONTINUOUS
10
5.35956
20
-3.21807
11
5.35956
21
-3.18854
0
LINE
8
BLACK
6
CONTINUOUS
10
5.35956
20
-3.18854
11
5.35979
21
-3.18799
0
LINE
8
BLACK
6
CONTINUOUS
10
5.35979
20
-3.18799
11
5.35991
21
-3.18742
0
LINE
8
BLACK
6
CONTINUOUS
10
5.35991
20
-3.18742
11
5.36007
21
-3.18732
0
LINE
8
BLACK
6
CONTINUOUS
10
5.36007
20
-3.18732
11
5.36014
21
-3.18715
0
LINE
8
BLACK
6
CONTINUOUS
10
5.36014
20
-3.18715
11
5.36068
21
-3.18692
0
LINE
8
BLACK
6
CONTINUOUS
10
5.36068
20
-3.18692
11
5.36118
21
-3.1866
0
LINE
8
BLACK
6
CONTINUOUS
10
5.36118
20
-3.1866
11
5.36136
21
-3.18664
0
LINE
8
BLACK
6
CONTINUOUS
10
5.36136
20
-3.18664
11
5.36153
21
-3.18657
0
LINE
8
BLACK
6
CONTINUOUS
10
5.36153
20
-3.18657
11
5.36207
21
-3.1868
0
LINE
8
BLACK
6
CONTINUOUS
10
5.36207
20
-3.1868
11
5.36265
21
-3.18692
0
LINE
8
BLACK
6
CONTINUOUS
10
5.36265
20
-3.18692
11
5.40486
21
-3.21627
0
LINE
8
BLACK
6
CONTINUOUS
10
5.40486
20
-3.21627
11
5.40486
21
-3.18854
0
LINE
8
BLACK
6
CONTINUOUS
10
5.40486
20
-3.18854
11
5.40544
21
-3.18715
0
LINE
8
BLACK
6
CONTINUOUS
10
5.40544
20
-3.18715
11
5.40683
21
-3.18657
0
LINE
8
BLACK
6
CONTINUOUS
10
5.40683
20
-3.18657
11
5.40822
21
-3.18715
0
LINE
8
BLACK
6
CONTINUOUS
10
5.3635
20
-3.24591
11
5.4033
21
-3.21999
0
LINE
8
BLACK
6
CONTINUOUS
10
5.4033
20
-3.21999
11
5.3635
21
-3.19231
0
LINE
8
BLACK
6
CONTINUOUS
10
5.3635
20
-3.19231
11
5.3635
21
-3.24591
0
LINE
8
BLACK
6
CONTINUOUS
10
5.47181
20
-3.15898
11
5.4732
21
-3.15955
0
LINE
8
BLACK
6
CONTINUOUS
10
5.4732
20
-3.15955
11
5.47378
21
-3.16094
0
LINE
8
BLACK
6
CONTINUOUS
10
5.47378
20
-3.16094
11
5.47378
21
-3.27906
0
LINE
8
BLACK
6
CONTINUOUS
10
5.47378
20
-3.27906
11
5.4732
21
-3.28045
0
LINE
8
BLACK
6
CONTINUOUS
10
5.4732
20
-3.28045
11
5.47181
21
-3.28102
0
LINE
8
BLACK
6
CONTINUOUS
10
5.47181
20
-3.28102
11
5.29071
21
-3.28102
0
LINE
8
BLACK
6
CONTINUOUS
10
5.29071
20
-3.28102
11
5.28932
21
-3.28045
0
LINE
8
BLACK
6
CONTINUOUS
10
5.28932
20
-3.28045
11
5.28874
21
-3.27906
0
LINE
8
BLACK
6
CONTINUOUS
10
5.28874
20
-3.27906
11
5.28874
21
-3.16094
0
LINE
8
BLACK
6
CONTINUOUS
10
5.28874
20
-3.16094
11
5.28932
21
-3.15955
0
LINE
8
BLACK
6
CONTINUOUS
10
5.28932
20
-3.15955
11
5.29071
21
-3.15898
0
LINE
8
BLACK
6
CONTINUOUS
10
5.29071
20
-3.15898
11
5.47181
21
-3.15898
0
LINE
8
BLACK
6
CONTINUOUS
10
5.29268
20
-3.16291
11
5.29268
21
-3.27709
0
LINE
8
BLACK
6
CONTINUOUS
10
5.29268
20
-3.27709
11
5.46984
21
-3.27709
0
LINE
8
BLACK
6
CONTINUOUS
10
5.46984
20
-3.27709
11
5.46984
21
-3.16291
0
LINE
8
BLACK
6
CONTINUOUS
10
5.46984
20
-3.16291
11
5.29268
21
-3.16291
0
LINE
8
BLACK
6
CONTINUOUS
10
5.65142
20
-3.2119
11
5.65155
21
-3.21202
0
LINE
8
BLACK
6
CONTINUOUS
10
5.65155
20
-3.21202
11
5.65173
21
-3.21204
0
LINE
8
BLACK
6
CONTINUOUS
10
5.65173
20
-3.21204
11
5.65548
21
-3.21391
0
LINE
8
BLACK
6
CONTINUOUS
10
5.65548
20
-3.21391
11
5.65619
21
-3.21444
0
LINE
8
BLACK
6
CONTINUOUS
10
5.65619
20
-3.21444
11
5.65625
21
-3.21446
0
LINE
8
BLACK
6
CONTINUOUS
10
5.65625
20
-3.21446
11
5.65812
21
-3.21634
0
LINE
8
BLACK
6
CONTINUOUS
10
5.65812
20
-3.21634
11
5.65863
21
-3.21706
0
LINE
8
BLACK
6
CONTINUOUS
10
5.65863
20
-3.21706
11
5.65867
21
-3.21711
0
LINE
8
BLACK
6
CONTINUOUS
10
5.65867
20
-3.21711
11
5.66055
21
-3.22086
0
LINE
8
BLACK
6
CONTINUOUS
10
5.66055
20
-3.22086
11
5.66069
21
-3.22134
0
LINE
8
BLACK
6
CONTINUOUS
10
5.66069
20
-3.22134
11
5.66077
21
-3.22146
0
LINE
8
BLACK
6
CONTINUOUS
10
5.66077
20
-3.22146
11
5.66126
21
-3.22343
0
LINE
8
BLACK
6
CONTINUOUS
10
5.66126
20
-3.22343
11
5.66937
21
-3.22343
0
LINE
8
BLACK
6
CONTINUOUS
10
5.66937
20
-3.22343
11
5.67076
21
-3.224
0
LINE
8
BLACK
6
CONTINUOUS
10
5.67076
20
-3.224
11
5.67134
21
-3.22539
0
LINE
8
BLACK
6
CONTINUOUS
10
5.67134
20
-3.22539
11
5.67134
21
-3.27461
0
LINE
8
BLACK
6
CONTINUOUS
10
5.67134
20
-3.27461
11
5.67076
21
-3.276
0
LINE
8
BLACK
6
CONTINUOUS
10
5.67076
20
-3.276
11
5.66937
21
-3.27657
0
LINE
8
BLACK
6
CONTINUOUS
10
5.66937
20
-3.27657
11
5.59063
21
-3.27657
0
LINE
8
BLACK
6
CONTINUOUS
10
5.59063
20
-3.27657
11
5.58924
21
-3.276
0
LINE
8
BLACK
6
CONTINUOUS
10
5.58924
20
-3.276
11
5.58866
21
-3.27461
0
LINE
8
BLACK
6
CONTINUOUS
10
5.58866
20
-3.27461
11
5.58866
21
-3.27461
0
LINE
8
BLACK
6
CONTINUOUS
10
5.58866
20
-3.27461
11
5.58866
21
-3.22539
0
LINE
8
BLACK
6
CONTINUOUS
10
5.58866
20
-3.22539
11
5.58924
21
-3.224
0
LINE
8
BLACK
6
CONTINUOUS
10
5.58924
20
-3.224
11
5.59063
21
-3.22343
0
LINE
8
BLACK
6
CONTINUOUS
10
5.59063
20
-3.22343
11
5.6358
21
-3.22343
0
LINE
8
BLACK
6
CONTINUOUS
10
5.6358
20
-3.22343
11
5.6363
21
-3.22146
0
LINE
8
BLACK
6
CONTINUOUS
10
5.6363
20
-3.22146
11
5.6365
21
-3.221
0
LINE
8
BLACK
6
CONTINUOUS
10
5.6365
20
-3.221
11
5.63652
21
-3.22086
0
LINE
8
BLACK
6
CONTINUOUS
10
5.63652
20
-3.22086
11
5.63839
21
-3.21711
0
LINE
8
BLACK
6
CONTINUOUS
10
5.63839
20
-3.21711
11
5.63892
21
-3.2164
0
LINE
8
BLACK
6
CONTINUOUS
10
5.63892
20
-3.2164
11
5.63895
21
-3.21634
0
LINE
8
BLACK
6
CONTINUOUS
10
5.63895
20
-3.21634
11
5.64082
21
-3.21446
0
LINE
8
BLACK
6
CONTINUOUS
10
5.64082
20
-3.21446
11
5.64154
21
-3.21396
0
LINE
8
BLACK
6
CONTINUOUS
10
5.64154
20
-3.21396
11
5.64159
21
-3.21391
0
LINE
8
BLACK
6
CONTINUOUS
10
5.64159
20
-3.21391
11
5.64534
21
-3.21204
0
LINE
8
BLACK
6
CONTINUOUS
10
5.64534
20
-3.21204
11
5.64632
21
-3.21174
0
LINE
8
BLACK
6
CONTINUOUS
10
5.64632
20
-3.21174
11
5.64649
21
-3.21179
0
LINE
8
BLACK
6
CONTINUOUS
10
5.64649
20
-3.21179
11
5.64666
21
-3.21173
0
LINE
8
BLACK
6
CONTINUOUS
10
5.64666
20
-3.21173
11
5.65041
21
-3.21173
0
LINE
8
BLACK
6
CONTINUOUS
10
5.65041
20
-3.21173
11
5.65142
21
-3.2119
0
LINE
8
BLACK
6
CONTINUOUS
10
5.66225
20
-3.22736
11
5.66265
21
-3.22896
0
LINE
8
BLACK
6
CONTINUOUS
10
5.66265
20
-3.22896
11
5.66269
21
-3.22955
0
LINE
8
BLACK
6
CONTINUOUS
10
5.66269
20
-3.22955
11
5.66274
21
-3.22968
0
LINE
8
BLACK
6
CONTINUOUS
10
5.66274
20
-3.22968
11
5.66274
21
-3.23905
0
LINE
8
BLACK
6
CONTINUOUS
10
5.66274
20
-3.23905
11
5.66263
21
-3.23963
0
LINE
8
BLACK
6
CONTINUOUS
10
5.66263
20
-3.23963
11
5.66265
21
-3.23977
0
LINE
8
BLACK
6
CONTINUOUS
10
5.66265
20
-3.23977
11
5.66077
21
-3.24727
0
LINE
8
BLACK
6
CONTINUOUS
10
5.66077
20
-3.24727
11
5.66056
21
-3.24773
0
LINE
8
BLACK
6
CONTINUOUS
10
5.66056
20
-3.24773
11
5.66055
21
-3.24787
0
LINE
8
BLACK
6
CONTINUOUS
10
5.66055
20
-3.24787
11
5.65867
21
-3.25162
0
LINE
8
BLACK
6
CONTINUOUS
10
5.65867
20
-3.25162
11
5.65815
21
-3.25233
0
LINE
8
BLACK
6
CONTINUOUS
10
5.65815
20
-3.25233
11
5.65812
21
-3.25239
0
LINE
8
BLACK
6
CONTINUOUS
10
5.65812
20
-3.25239
11
5.65625
21
-3.25426
0
LINE
8
BLACK
6
CONTINUOUS
10
5.65625
20
-3.25426
11
5.65552
21
-3.25477
0
LINE
8
BLACK
6
CONTINUOUS
10
5.65552
20
-3.25477
11
5.65548
21
-3.25481
0
LINE
8
BLACK
6
CONTINUOUS
10
5.65548
20
-3.25481
11
5.65173
21
-3.25669
0
LINE
8
BLACK
6
CONTINUOUS
10
5.65173
20
-3.25669
11
5.65075
21
-3.25698
0
LINE
8
BLACK
6
CONTINUOUS
10
5.65075
20
-3.25698
11
5.65057
21
-3.25694
0
LINE
8
BLACK
6
CONTINUOUS
10
5.65057
20
-3.25694
11
5.65041
21
-3.257
0
LINE
8
BLACK
6
CONTINUOUS
10
5.65041
20
-3.257
11
5.64666
21
-3.257
0
LINE
8
BLACK
6
CONTINUOUS
10
5.64666
20
-3.257
11
5.64565
21
-3.25682
0
LINE
8
BLACK
6
CONTINUOUS
10
5.64565
20
-3.25682
11
5.64551
21
-3.25671
0
LINE
8
BLACK
6
CONTINUOUS
10
5.64551
20
-3.25671
11
5.64534
21
-3.25669
0
LINE
8
BLACK
6
CONTINUOUS
10
5.64534
20
-3.25669
11
5.64513
21
-3.25658
0
LINE
8
BLACK
6
CONTINUOUS
10
5.64513
20
-3.25658
11
5.645
21
-3.25684
0
LINE
8
BLACK
6
CONTINUOUS
10
5.645
20
-3.25684
11
5.6448
21
-3.257
0
LINE
8
BLACK
6
CONTINUOUS
10
5.6448
20
-3.257
11
5.64471
21
-3.25724
0
LINE
8
BLACK
6
CONTINUOUS
10
5.64471
20
-3.25724
11
5.64283
21
-3.25912
0
LINE
8
BLACK
6
CONTINUOUS
10
5.64283
20
-3.25912
11
5.64249
21
-3.25926
0
LINE
8
BLACK
6
CONTINUOUS
10
5.64249
20
-3.25926
11
5.64222
21
-3.2595
0
LINE
8
BLACK
6
CONTINUOUS
10
5.64222
20
-3.2595
11
5.6394
21
-3.26044
0
LINE
8
BLACK
6
CONTINUOUS
10
5.6394
20
-3.26044
11
5.63914
21
-3.26042
0
LINE
8
BLACK
6
CONTINUOUS
10
5.63914
20
-3.26042
11
5.63891
21
-3.26052
0
LINE
8
BLACK
6
CONTINUOUS
10
5.63891
20
-3.26052
11
5.63703
21
-3.26052
0
LINE
8
BLACK
6
CONTINUOUS
10
5.63703
20
-3.26052
11
5.63679
21
-3.26042
0
LINE
8
BLACK
6
CONTINUOUS
10
5.63679
20
-3.26042
11
5.63653
21
-3.26044
0
LINE
8
BLACK
6
CONTINUOUS
10
5.63653
20
-3.26044
11
5.63372
21
-3.2595
0
LINE
8
BLACK
6
CONTINUOUS
10
5.63372
20
-3.2595
11
5.63344
21
-3.25926
0
LINE
8
BLACK
6
CONTINUOUS
10
5.63344
20
-3.25926
11
5.6331
21
-3.25912
0
LINE
8
BLACK
6
CONTINUOUS
10
5.6331
20
-3.25912
11
5.63217
21
-3.25818
0
LINE
8
BLACK
6
CONTINUOUS
10
5.63217
20
-3.25818
11
5.63171
21
-3.25707
0
LINE
8
BLACK
6
CONTINUOUS
10
5.63171
20
-3.25707
11
5.63217
21
-3.25595
0
LINE
8
BLACK
6
CONTINUOUS
10
5.63217
20
-3.25595
11
5.63328
21
-3.25549
0
LINE
8
BLACK
6
CONTINUOUS
10
5.63328
20
-3.25549
11
5.63439
21
-3.25595
0
LINE
8
BLACK
6
CONTINUOUS
10
5.63439
20
-3.25595
11
5.63507
21
-3.25663
0
LINE
8
BLACK
6
CONTINUOUS
10
5.63507
20
-3.25663
11
5.63729
21
-3.25737
0
LINE
8
BLACK
6
CONTINUOUS
10
5.63729
20
-3.25737
11
5.63865
21
-3.25737
0
LINE
8
BLACK
6
CONTINUOUS
10
5.63865
20
-3.25737
11
5.64087
21
-3.25663
0
LINE
8
BLACK
6
CONTINUOUS
10
5.64087
20
-3.25663
11
5.6423
21
-3.2552
0
LINE
8
BLACK
6
CONTINUOUS
10
5.6423
20
-3.2552
11
5.64231
21
-3.25517
0
LINE
8
BLACK
6
CONTINUOUS
10
5.64231
20
-3.25517
11
5.64159
21
-3.25481
0
LINE
8
BLACK
6
CONTINUOUS
10
5.64159
20
-3.25481
11
5.64088
21
-3.25429
0
LINE
8
BLACK
6
CONTINUOUS
10
5.64088
20
-3.25429
11
5.64082
21
-3.25426
0
LINE
8
BLACK
6
CONTINUOUS
10
5.64082
20
-3.25426
11
5.63895
21
-3.25239
0
LINE
8
BLACK
6
CONTINUOUS
10
5.63895
20
-3.25239
11
5.63844
21
-3.25166
0
LINE
8
BLACK
6
CONTINUOUS
10
5.63844
20
-3.25166
11
5.63839
21
-3.25162
0
LINE
8
BLACK
6
CONTINUOUS
10
5.63839
20
-3.25162
11
5.63652
21
-3.24787
0
LINE
8
BLACK
6
CONTINUOUS
10
5.63652
20
-3.24787
11
5.63637
21
-3.24738
0
LINE
8
BLACK
6
CONTINUOUS
10
5.63637
20
-3.24738
11
5.6363
21
-3.24727
0
LINE
8
BLACK
6
CONTINUOUS
10
5.6363
20
-3.24727
11
5.63491
21
-3.24173
0
LINE
8
BLACK
6
CONTINUOUS
10
5.63491
20
-3.24173
11
5.63439
21
-3.24225
0
LINE
8
BLACK
6
CONTINUOUS
10
5.63439
20
-3.24225
11
5.63328
21
-3.24271
0
LINE
8
BLACK
6
CONTINUOUS
10
5.63328
20
-3.24271
11
5.63217
21
-3.24225
0
LINE
8
BLACK
6
CONTINUOUS
10
5.63217
20
-3.24225
11
5.63171
21
-3.24113
0
LINE
8
BLACK
6
CONTINUOUS
10
5.63171
20
-3.24113
11
5.63217
21
-3.24002
0
LINE
8
BLACK
6
CONTINUOUS
10
5.63217
20
-3.24002
11
5.6331
21
-3.23908
0
LINE
8
BLACK
6
CONTINUOUS
10
5.6331
20
-3.23908
11
5.63344
21
-3.23894
0
LINE
8
BLACK
6
CONTINUOUS
10
5.63344
20
-3.23894
11
5.63372
21
-3.2387
0
LINE
8
BLACK
6
CONTINUOUS
10
5.63372
20
-3.2387
11
5.63433
21
-3.2385
0
LINE
8
BLACK
6
CONTINUOUS
10
5.63433
20
-3.2385
11
5.63433
21
-3.22968
0
LINE
8
BLACK
6
CONTINUOUS
10
5.63433
20
-3.22968
11
5.63443
21
-3.2291
0
LINE
8
BLACK
6
CONTINUOUS
10
5.63443
20
-3.2291
11
5.63442
21
-3.22896
0
LINE
8
BLACK
6
CONTINUOUS
10
5.63442
20
-3.22896
11
5.63482
21
-3.22736
0
LINE
8
BLACK
6
CONTINUOUS
10
5.63482
20
-3.22736
11
5.62321
21
-3.22736
0
LINE
8
BLACK
6
CONTINUOUS
10
5.62321
20
-3.22736
11
5.62337
21
-3.2278
0
LINE
8
BLACK
6
CONTINUOUS
10
5.62337
20
-3.2278
11
5.62337
21
-3.23783
0
LINE
8
BLACK
6
CONTINUOUS
10
5.62337
20
-3.23783
11
5.62367
21
-3.23785
0
LINE
8
BLACK
6
CONTINUOUS
10
5.62367
20
-3.23785
11
5.62555
21
-3.23879
0
LINE
8
BLACK
6
CONTINUOUS
10
5.62555
20
-3.23879
11
5.62572
21
-3.23898
0
LINE
8
BLACK
6
CONTINUOUS
10
5.62572
20
-3.23898
11
5.62596
21
-3.23908
0
LINE
8
BLACK
6
CONTINUOUS
10
5.62596
20
-3.23908
11
5.6269
21
-3.24002
0
LINE
8
BLACK
6
CONTINUOUS
10
5.6269
20
-3.24002
11
5.62736
21
-3.24113
0
LINE
8
BLACK
6
CONTINUOUS
10
5.62736
20
-3.24113
11
5.6269
21
-3.24225
0
LINE
8
BLACK
6
CONTINUOUS
10
5.6269
20
-3.24225
11
5.62578
21
-3.24271
0
LINE
8
BLACK
6
CONTINUOUS
10
5.62578
20
-3.24271
11
5.62467
21
-3.24225
0
LINE
8
BLACK
6
CONTINUOUS
10
5.62467
20
-3.24225
11
5.62391
21
-3.24149
0
LINE
8
BLACK
6
CONTINUOUS
10
5.62391
20
-3.24149
11
5.62337
21
-3.24122
0
LINE
8
BLACK
6
CONTINUOUS
10
5.62337
20
-3.24122
11
5.62337
21
-3.24842
0
LINE
8
BLACK
6
CONTINUOUS
10
5.62337
20
-3.24842
11
5.62319
21
-3.24943
0
LINE
8
BLACK
6
CONTINUOUS
10
5.62319
20
-3.24943
11
5.62307
21
-3.24957
0
LINE
8
BLACK
6
CONTINUOUS
10
5.62307
20
-3.24957
11
5.62305
21
-3.24974
0
LINE
8
BLACK
6
CONTINUOUS
10
5.62305
20
-3.24974
11
5.62195
21
-3.25195
0
LINE
8
BLACK
6
CONTINUOUS
10
5.62195
20
-3.25195
11
5.62783
21
-3.25783
0
LINE
8
BLACK
6
CONTINUOUS
10
5.62783
20
-3.25783
11
5.62829
21
-3.25894
0
LINE
8
BLACK
6
CONTINUOUS
10
5.62829
20
-3.25894
11
5.62783
21
-3.26006
0
LINE
8
BLACK
6
CONTINUOUS
10
5.62783
20
-3.26006
11
5.62672
21
-3.26052
0
LINE
8
BLACK
6
CONTINUOUS
10
5.62672
20
-3.26052
11
5.61453
21
-3.26052
0
LINE
8
BLACK
6
CONTINUOUS
10
5.61453
20
-3.26052
11
5.61342
21
-3.26006
0
LINE
8
BLACK
6
CONTINUOUS
10
5.61342
20
-3.26006
11
5.61296
21
-3.25894
0
LINE
8
BLACK
6
CONTINUOUS
10
5.61296
20
-3.25894
11
5.61342
21
-3.25783
0
LINE
8
BLACK
6
CONTINUOUS
10
5.61342
20
-3.25783
11
5.61453
21
-3.25737
0
LINE
8
BLACK
6
CONTINUOUS
10
5.61453
20
-3.25737
11
5.62292
21
-3.25737
0
LINE
8
BLACK
6
CONTINUOUS
10
5.62292
20
-3.25737
11
5.6201
21
-3.25455
0
LINE
8
BLACK
6
CONTINUOUS
10
5.6201
20
-3.25455
11
5.61986
21
-3.25481
0
LINE
8
BLACK
6
CONTINUOUS
10
5.61986
20
-3.25481
11
5.61611
21
-3.25669
0
LINE
8
BLACK
6
CONTINUOUS
10
5.61611
20
-3.25669
11
5.61513
21
-3.25698
0
LINE
8
BLACK
6
CONTINUOUS
10
5.61513
20
-3.25698
11
5.61495
21
-3.25694
0
LINE
8
BLACK
6
CONTINUOUS
10
5.61495
20
-3.25694
11
5.61479
21
-3.257
0
LINE
8
BLACK
6
CONTINUOUS
10
5.61479
20
-3.257
11
5.60916
21
-3.257
0
LINE
8
BLACK
6
CONTINUOUS
10
5.60916
20
-3.257
11
5.60815
21
-3.25682
0
LINE
8
BLACK
6
CONTINUOUS
10
5.60815
20
-3.25682
11
5.60802
21
-3.25671
0
LINE
8
BLACK
6
CONTINUOUS
10
5.60802
20
-3.25671
11
5.60784
21
-3.25669
0
LINE
8
BLACK
6
CONTINUOUS
10
5.60784
20
-3.25669
11
5.6058
21
-3.25567
0
LINE
8
BLACK
6
CONTINUOUS
10
5.6058
20
-3.25567
11
5.60502
21
-3.25661
0
LINE
8
BLACK
6
CONTINUOUS
10
5.60502
20
-3.25661
11
5.60303
21
-3.25696
0
LINE
8
BLACK
6
CONTINUOUS
10
5.60303
20
-3.25696
11
5.60128
21
-3.25595
0
LINE
8
BLACK
6
CONTINUOUS
10
5.60128
20
-3.25595
11
5.60059
21
-3.25405
0
LINE
8
BLACK
6
CONTINUOUS
10
5.60059
20
-3.25405
11
5.60059
21
-3.2278
0
LINE
8
BLACK
6
CONTINUOUS
10
5.60059
20
-3.2278
11
5.60066
21
-3.22736
0
LINE
8
BLACK
6
CONTINUOUS
10
5.60066
20
-3.22736
11
5.5926
21
-3.22736
0
LINE
8
BLACK
6
CONTINUOUS
10
5.5926
20
-3.22736
11
5.5926
21
-3.27264
0
LINE
8
BLACK
6
CONTINUOUS
10
5.5926
20
-3.27264
11
5.6674
21
-3.27264
0
LINE
8
BLACK
6
CONTINUOUS
10
5.6674
20
-3.27264
11
5.6674
21
-3.22736
0
LINE
8
BLACK
6
CONTINUOUS
10
5.6674
20
-3.22736
11
5.66225
21
-3.22736
0
LINE
8
BLACK
6
CONTINUOUS
10
5.60633
20
-3.22736
11
5.60649
21
-3.2278
0
LINE
8
BLACK
6
CONTINUOUS
10
5.60649
20
-3.2278
11
5.60649
21
-3.24908
0
LINE
8
BLACK
6
CONTINUOUS
10
5.60649
20
-3.24908
11
5.60716
21
-3.24975
0
LINE
8
BLACK
6
CONTINUOUS
10
5.60716
20
-3.24975
11
5.60986
21
-3.2511
0
LINE
8
BLACK
6
CONTINUOUS
10
5.60986
20
-3.2511
11
5.61409
21
-3.2511
0
LINE
8
BLACK
6
CONTINUOUS
10
5.61409
20
-3.2511
11
5.61579
21
-3.25024
0
LINE
8
BLACK
6
CONTINUOUS
10
5.61579
20
-3.25024
11
5.61436
21
-3.24881
0
LINE
8
BLACK
6
CONTINUOUS
10
5.61436
20
-3.24881
11
5.61422
21
-3.24847
0
LINE
8
BLACK
6
CONTINUOUS
10
5.61422
20
-3.24847
11
5.61398
21
-3.24819
0
LINE
8
BLACK
6
CONTINUOUS
10
5.61398
20
-3.24819
11
5.61304
21
-3.24538
0
LINE
8
BLACK
6
CONTINUOUS
10
5.61304
20
-3.24538
11
5.61306
21
-3.24512
0
LINE
8
BLACK
6
CONTINUOUS
10
5.61306
20
-3.24512
11
5.61296
21
-3.24488
0
LINE
8
BLACK
6
CONTINUOUS
10
5.61296
20
-3.24488
11
5.61296
21
-3.24301
0
LINE
8
BLACK
6
CONTINUOUS
10
5.61296
20
-3.24301
11
5.6131
21
-3.24267
0
LINE
8
BLACK
6
CONTINUOUS
10
5.6131
20
-3.24267
11
5.61312
21
-3.2423
0
LINE
8
BLACK
6
CONTINUOUS
10
5.61312
20
-3.2423
11
5.61406
21
-3.24043
0
LINE
8
BLACK
6
CONTINUOUS
10
5.61406
20
-3.24043
11
5.61426
21
-3.24026
0
LINE
8
BLACK
6
CONTINUOUS
10
5.61426
20
-3.24026
11
5.61436
21
-3.24002
0
LINE
8
BLACK
6
CONTINUOUS
10
5.61436
20
-3.24002
11
5.61529
21
-3.23908
0
LINE
8
BLACK
6
CONTINUOUS
10
5.61529
20
-3.23908
11
5.61553
21
-3.23898
0
LINE
8
BLACK
6
CONTINUOUS
10
5.61553
20
-3.23898
11
5.6157
21
-3.23879
0
LINE
8
BLACK
6
CONTINUOUS
10
5.6157
20
-3.23879
11
5.61746
21
-3.23791
0
LINE
8
BLACK
6
CONTINUOUS
10
5.61746
20
-3.23791
11
5.61746
21
-3.2278
0
LINE
8
BLACK
6
CONTINUOUS
10
5.61746
20
-3.2278
11
5.61754
21
-3.22736
0
LINE
8
BLACK
6
CONTINUOUS
10
5.61754
20
-3.22736
11
5.60633
21
-3.22736
0
LINE
8
BLACK
6
CONTINUOUS
10
5.64091
20
-3.22736
11
5.64024
21
-3.23004
0
LINE
8
BLACK
6
CONTINUOUS
10
5.64024
20
-3.23004
11
5.64024
21
-3.23804
0
LINE
8
BLACK
6
CONTINUOUS
10
5.64024
20
-3.23804
11
5.64222
21
-3.2387
0
LINE
8
BLACK
6
CONTINUOUS
10
5.64222
20
-3.2387
11
5.64249
21
-3.23894
0
LINE
8
BLACK
6
CONTINUOUS
10
5.64249
20
-3.23894
11
5.64283
21
-3.23908
0
LINE
8
BLACK
6
CONTINUOUS
10
5.64283
20
-3.23908
11
5.64471
21
-3.24096
0
LINE
8
BLACK
6
CONTINUOUS
10
5.64471
20
-3.24096
11
5.6448
21
-3.2412
0
LINE
8
BLACK
6
CONTINUOUS
10
5.6448
20
-3.2412
11
5.645
21
-3.24137
0
LINE
8
BLACK
6
CONTINUOUS
10
5.645
20
-3.24137
11
5.64594
21
-3.24324
0
LINE
8
BLACK
6
CONTINUOUS
10
5.64594
20
-3.24324
11
5.64595
21
-3.24342
0
LINE
8
BLACK
6
CONTINUOUS
10
5.64595
20
-3.24342
11
5.64606
21
-3.24356
0
LINE
8
BLACK
6
CONTINUOUS
10
5.64606
20
-3.24356
11
5.64699
21
-3.24731
0
LINE
8
BLACK
6
CONTINUOUS
10
5.64699
20
-3.24731
11
5.64697
21
-3.24751
0
LINE
8
BLACK
6
CONTINUOUS
10
5.64697
20
-3.24751
11
5.64704
21
-3.24769
0
LINE
8
BLACK
6
CONTINUOUS
10
5.64704
20
-3.24769
11
5.64704
21
-3.25051
0
LINE
8
BLACK
6
CONTINUOUS
10
5.64704
20
-3.25051
11
5.64697
21
-3.25069
0
LINE
8
BLACK
6
CONTINUOUS
10
5.64697
20
-3.25069
11
5.64699
21
-3.25089
0
LINE
8
BLACK
6
CONTINUOUS
10
5.64699
20
-3.25089
11
5.64699
21
-3.25091
0
LINE
8
BLACK
6
CONTINUOUS
10
5.64699
20
-3.25091
11
5.64736
21
-3.2511
0
LINE
8
BLACK
6
CONTINUOUS
10
5.64736
20
-3.2511
11
5.64971
21
-3.2511
0
LINE
8
BLACK
6
CONTINUOUS
10
5.64971
20
-3.2511
11
5.65241
21
-3.24975
0
LINE
8
BLACK
6
CONTINUOUS
10
5.65241
20
-3.24975
11
5.65361
21
-3.24855
0
LINE
8
BLACK
6
CONTINUOUS
10
5.65361
20
-3.24855
11
5.65512
21
-3.24552
0
LINE
8
BLACK
6
CONTINUOUS
10
5.65512
20
-3.24552
11
5.65683
21
-3.23869
0
LINE
8
BLACK
6
CONTINUOUS
10
5.65683
20
-3.23869
11
5.65683
21
-3.23004
0
LINE
8
BLACK
6
CONTINUOUS
10
5.65683
20
-3.23004
11
5.65616
21
-3.22736
0
LINE
8
BLACK
6
CONTINUOUS
10
5.65616
20
-3.22736
11
5.64091
21
-3.22736
0
LINE
8
BLACK
6
CONTINUOUS
10
5.64195
20
-3.24552
11
5.64346
21
-3.24855
0
LINE
8
BLACK
6
CONTINUOUS
10
5.64346
20
-3.24855
11
5.64389
21
-3.24898
0
LINE
8
BLACK
6
CONTINUOUS
10
5.64389
20
-3.24898
11
5.64389
21
-3.24789
0
LINE
8
BLACK
6
CONTINUOUS
10
5.64389
20
-3.24789
11
5.64304
21
-3.24449
0
LINE
8
BLACK
6
CONTINUOUS
10
5.64304
20
-3.24449
11
5.6423
21
-3.243
0
LINE
8
BLACK
6
CONTINUOUS
10
5.6423
20
-3.243
11
5.64099
21
-3.2417
0
LINE
8
BLACK
6
CONTINUOUS
10
5.64099
20
-3.2417
11
5.64195
21
-3.24552
0
LINE
8
BLACK
6
CONTINUOUS
10
5.61734
20
-3.24149
11
5.61676
21
-3.24207
0
LINE
8
BLACK
6
CONTINUOUS
10
5.61676
20
-3.24207
11
5.61611
21
-3.24338
0
LINE
8
BLACK
6
CONTINUOUS
10
5.61611
20
-3.24338
11
5.61611
21
-3.24463
0
LINE
8
BLACK
6
CONTINUOUS
10
5.61611
20
-3.24463
11
5.61685
21
-3.24684
0
LINE
8
BLACK
6
CONTINUOUS
10
5.61685
20
-3.24684
11
5.61746
21
-3.24746
0
LINE
8
BLACK
6
CONTINUOUS
10
5.61746
20
-3.24746
11
5.61746
21
-3.24143
0
LINE
8
BLACK
6
CONTINUOUS
10
5.61746
20
-3.24143
11
5.61734
21
-3.24149
0
LINE
8
BLACK
6
CONTINUOUS
10
5.64466
20
-3.21898
11
5.64346
21
-3.22018
0
LINE
8
BLACK
6
CONTINUOUS
10
5.64346
20
-3.22018
11
5.64195
21
-3.22321
0
LINE
8
BLACK
6
CONTINUOUS
10
5.64195
20
-3.22321
11
5.64189
21
-3.22343
0
LINE
8
BLACK
6
CONTINUOUS
10
5.64189
20
-3.22343
11
5.65518
21
-3.22343
0
LINE
8
BLACK
6
CONTINUOUS
10
5.65518
20
-3.22343
11
5.65512
21
-3.22321
0
LINE
8
BLACK
6
CONTINUOUS
10
5.65512
20
-3.22321
11
5.65361
21
-3.22018
0
LINE
8
BLACK
6
CONTINUOUS
10
5.65361
20
-3.22018
11
5.65241
21
-3.21898
0
LINE
8
BLACK
6
CONTINUOUS
10
5.65241
20
-3.21898
11
5.64971
21
-3.21763
0
LINE
8
BLACK
6
CONTINUOUS
10
5.64971
20
-3.21763
11
5.64736
21
-3.21763
0
LINE
8
BLACK
6
CONTINUOUS
10
5.64736
20
-3.21763
11
5.64466
21
-3.21898
0
LINE
8
BLACK
6
CONTINUOUS
10
5.68669
20
-3.21185
11
5.68686
21
-3.21184
0
LINE
8
BLACK
6
CONTINUOUS
10
5.68686
20
-3.21184
11
5.68755
21
-3.21235
0
LINE
8
BLACK
6
CONTINUOUS
10
5.68755
20
-3.21235
11
5.68829
21
-3.21278
0
LINE
8
BLACK
6
CONTINUOUS
10
5.68829
20
-3.21278
11
5.68835
21
-3.21294
0
LINE
8
BLACK
6
CONTINUOUS
10
5.68835
20
-3.21294
11
5.68849
21
-3.21304
0
LINE
8
BLACK
6
CONTINUOUS
10
5.68849
20
-3.21304
11
5.69207
21
-3.21842
0
LINE
8
BLACK
6
CONTINUOUS
10
5.69207
20
-3.21842
11
5.69528
21
-3.22162
0
LINE
8
BLACK
6
CONTINUOUS
10
5.69528
20
-3.22162
11
5.6986
21
-3.22329
0
LINE
8
BLACK
6
CONTINUOUS
10
5.6986
20
-3.22329
11
5.69942
21
-3.2239
0
LINE
8
BLACK
6
CONTINUOUS
10
5.69942
20
-3.2239
11
5.70023
21
-3.22575
0
LINE
8
BLACK
6
CONTINUOUS
10
5.70023
20
-3.22575
11
5.69965
21
-3.22769
0
LINE
8
BLACK
6
CONTINUOUS
10
5.69965
20
-3.22769
11
5.69796
21
-3.2288
0
LINE
8
BLACK
6
CONTINUOUS
10
5.69796
20
-3.2288
11
5.69596
21
-3.22857
0
LINE
8
BLACK
6
CONTINUOUS
10
5.69596
20
-3.22857
11
5.69221
21
-3.22669
0
LINE
8
BLACK
6
CONTINUOUS
10
5.69221
20
-3.22669
11
5.6915
21
-3.22617
0
LINE
8
BLACK
6
CONTINUOUS
10
5.6915
20
-3.22617
11
5.69144
21
-3.22614
0
LINE
8
BLACK
6
CONTINUOUS
10
5.69144
20
-3.22614
11
5.68898
21
-3.22368
0
LINE
8
BLACK
6
CONTINUOUS
10
5.68898
20
-3.22368
11
5.68898
21
-3.2511
0
LINE
8
BLACK
6
CONTINUOUS
10
5.68898
20
-3.2511
11
5.69728
21
-3.2511
0
LINE
8
BLACK
6
CONTINUOUS
10
5.69728
20
-3.2511
11
5.69829
21
-3.25127
0
LINE
8
BLACK
6
CONTINUOUS
10
5.69829
20
-3.25127
11
5.69983
21
-3.25257
0
LINE
8
BLACK
6
CONTINUOUS
10
5.69983
20
-3.25257
11
5.70019
21
-3.25456
0
LINE
8
BLACK
6
CONTINUOUS
10
5.70019
20
-3.25456
11
5.69918
21
-3.25631
0
LINE
8
BLACK
6
CONTINUOUS
10
5.69918
20
-3.25631
11
5.69728
21
-3.257
0
LINE
8
BLACK
6
CONTINUOUS
10
5.69728
20
-3.257
11
5.67478
21
-3.257
0
LINE
8
BLACK
6
CONTINUOUS
10
5.67478
20
-3.257
11
5.67377
21
-3.25682
0
LINE
8
BLACK
6
CONTINUOUS
10
5.67377
20
-3.25682
11
5.67222
21
-3.25552
0
LINE
8
BLACK
6
CONTINUOUS
10
5.67222
20
-3.25552
11
5.67187
21
-3.25354
0
LINE
8
BLACK
6
CONTINUOUS
10
5.67187
20
-3.25354
11
5.67288
21
-3.25179
0
LINE
8
BLACK
6
CONTINUOUS
10
5.67288
20
-3.25179
11
5.67478
21
-3.2511
0
LINE
8
BLACK
6
CONTINUOUS
10
5.67478
20
-3.2511
11
5.68308
21
-3.2511
0
LINE
8
BLACK
6
CONTINUOUS
10
5.68308
20
-3.2511
11
5.68308
21
-3.21468
0
LINE
8
BLACK
6
CONTINUOUS
10
5.68308
20
-3.21468
11
5.68325
21
-3.21367
0
LINE
8
BLACK
6
CONTINUOUS
10
5.68325
20
-3.21367
11
5.68336
21
-3.21354
0
LINE
8
BLACK
6
CONTINUOUS
10
5.68336
20
-3.21354
11
5.68338
21
-3.21337
0
LINE
8
BLACK
6
CONTINUOUS
10
5.68338
20
-3.21337
11
5.684
21
-3.21278
0
LINE
8
BLACK
6
CONTINUOUS
10
5.684
20
-3.21278
11
5.68455
21
-3.21212
0
LINE
8
BLACK
6
CONTINUOUS
10
5.68455
20
-3.21212
11
5.68472
21
-3.21209
0
LINE
8
BLACK
6
CONTINUOUS
10
5.68472
20
-3.21209
11
5.68484
21
-3.21197
0
LINE
8
BLACK
6
CONTINUOUS
10
5.68484
20
-3.21197
11
5.6857
21
-3.21192
0
LINE
8
BLACK
6
CONTINUOUS
10
5.6857
20
-3.21192
11
5.68654
21
-3.21177
0
LINE
8
BLACK
6
CONTINUOUS
10
5.68654
20
-3.21177
11
5.68669
21
-3.21185
0
LINE
8
BLACK
6
CONTINUOUS
10
5.58518
20
-3.21179
11
5.5853
21
-3.21177
0
LINE
8
BLACK
6
CONTINUOUS
10
5.5853
20
-3.21177
11
5.58542
21
-3.21184
0
LINE
8
BLACK
6
CONTINUOUS
10
5.58542
20
-3.21184
11
5.5858
21
-3.2119
0
LINE
8
BLACK
6
CONTINUOUS
10
5.5858
20
-3.2119
11
5.58639
21
-3.2124
0
LINE
8
BLACK
6
CONTINUOUS
10
5.58639
20
-3.2124
11
5.58705
21
-3.21278
0
LINE
8
BLACK
6
CONTINUOUS
10
5.58705
20
-3.21278
11
5.58714
21
-3.21303
0
LINE
8
BLACK
6
CONTINUOUS
10
5.58714
20
-3.21303
11
5.58735
21
-3.2132
0
LINE
8
BLACK
6
CONTINUOUS
10
5.58735
20
-3.2132
11
5.58748
21
-3.21396
0
LINE
8
BLACK
6
CONTINUOUS
10
5.58748
20
-3.21396
11
5.58774
21
-3.21468
0
LINE
8
BLACK
6
CONTINUOUS
10
5.58774
20
-3.21468
11
5.58774
21
-3.25405
0
LINE
8
BLACK
6
CONTINUOUS
10
5.58774
20
-3.25405
11
5.58757
21
-3.25506
0
LINE
8
BLACK
6
CONTINUOUS
10
5.58757
20
-3.25506
11
5.58627
21
-3.25661
0
LINE
8
BLACK
6
CONTINUOUS
10
5.58627
20
-3.25661
11
5.58428
21
-3.25696
0
LINE
8
BLACK
6
CONTINUOUS
10
5.58428
20
-3.25696
11
5.58253
21
-3.25595
0
LINE
8
BLACK
6
CONTINUOUS
10
5.58253
20
-3.25595
11
5.58184
21
-3.25405
0
LINE
8
BLACK
6
CONTINUOUS
10
5.58184
20
-3.25405
11
5.58184
21
-3.23638
0
LINE
8
BLACK
6
CONTINUOUS
10
5.58184
20
-3.23638
11
5.57167
21
-3.23638
0
LINE
8
BLACK
6
CONTINUOUS
10
5.57167
20
-3.23638
11
5.57066
21
-3.2362
0
LINE
8
BLACK
6
CONTINUOUS
10
5.57066
20
-3.2362
11
5.56911
21
-3.2349
0
LINE
8
BLACK
6
CONTINUOUS
10
5.56911
20
-3.2349
11
5.56876
21
-3.23291
0
LINE
8
BLACK
6
CONTINUOUS
10
5.56876
20
-3.23291
11
5.56977
21
-3.23116
0
LINE
8
BLACK
6
CONTINUOUS
10
5.56977
20
-3.23116
11
5.57167
21
-3.23047
0
LINE
8
BLACK
6
CONTINUOUS
10
5.57167
20
-3.23047
11
5.58184
21
-3.23047
0
LINE
8
BLACK
6
CONTINUOUS
10
5.58184
20
-3.23047
11
5.58184
21
-3.21763
0
LINE
8
BLACK
6
CONTINUOUS
10
5.58184
20
-3.21763
11
5.56604
21
-3.21763
0
LINE
8
BLACK
6
CONTINUOUS
10
5.56604
20
-3.21763
11
5.56503
21
-3.21745
0
LINE
8
BLACK
6
CONTINUOUS
10
5.56503
20
-3.21745
11
5.56349
21
-3.21615
0
LINE
8
BLACK
6
CONTINUOUS
10
5.56349
20
-3.21615
11
5.56314
21
-3.21417
0
LINE
8
BLACK
6
CONTINUOUS
10
5.56314
20
-3.21417
11
5.56415
21
-3.21242
0
LINE
8
BLACK
6
CONTINUOUS
10
5.56415
20
-3.21242
11
5.56604
21
-3.21173
0
LINE
8
BLACK
6
CONTINUOUS
10
5.56604
20
-3.21173
11
5.58479
21
-3.21173
0
LINE
8
BLACK
6
CONTINUOUS
10
5.58479
20
-3.21173
11
5.58518
21
-3.21179
0
LINE
8
BLACK
6
CONTINUOUS
10
5.62291
20
-3.15775
11
5.62306
21
-3.15771
0
LINE
8
BLACK
6
CONTINUOUS
10
5.62306
20
-3.15771
11
5.62345
21
-3.15797
0
LINE
8
BLACK
6
CONTINUOUS
10
5.62345
20
-3.15797
11
5.62387
21
-3.15814
0
LINE
8
BLACK
6
CONTINUOUS
10
5.62387
20
-3.15814
11
5.62393
21
-3.15829
0
LINE
8
BLACK
6
CONTINUOUS
10
5.62393
20
-3.15829
11
5.62407
21
-3.15838
0
LINE
8
BLACK
6
CONTINUOUS
10
5.62407
20
-3.15838
11
5.62585
21
-3.16107
0
LINE
8
BLACK
6
CONTINUOUS
10
5.62585
20
-3.16107
11
5.62744
21
-3.16265
0
LINE
8
BLACK
6
CONTINUOUS
10
5.62744
20
-3.16265
11
5.62908
21
-3.16347
0
LINE
8
BLACK
6
CONTINUOUS
10
5.62908
20
-3.16347
11
5.62987
21
-3.16438
0
LINE
8
BLACK
6
CONTINUOUS
10
5.62987
20
-3.16438
11
5.62979
21
-3.16559
0
LINE
8
BLACK
6
CONTINUOUS
10
5.62979
20
-3.16559
11
5.62888
21
-3.16638
0
LINE
8
BLACK
6
CONTINUOUS
10
5.62888
20
-3.16638
11
5.62768
21
-3.16629
0
LINE
8
BLACK
6
CONTINUOUS
10
5.62768
20
-3.16629
11
5.6258
21
-3.16535
0
LINE
8
BLACK
6
CONTINUOUS
10
5.6258
20
-3.16535
11
5.62563
21
-3.16516
0
LINE
8
BLACK
6
CONTINUOUS
10
5.62563
20
-3.16516
11
5.62539
21
-3.16506
0
LINE
8
BLACK
6
CONTINUOUS
10
5.62539
20
-3.16506
11
5.62433
21
-3.164
0
LINE
8
BLACK
6
CONTINUOUS
10
5.62433
20
-3.164
11
5.62433
21
-3.17737
0
LINE
8
BLACK
6
CONTINUOUS
10
5.62433
20
-3.17737
11
5.62838
21
-3.17737
0
LINE
8
BLACK
6
CONTINUOUS
10
5.62838
20
-3.17737
11
5.62949
21
-3.17783
0
LINE
8
BLACK
6
CONTINUOUS
10
5.62949
20
-3.17783
11
5.62995
21
-3.17894
0
LINE
8
BLACK
6
CONTINUOUS
10
5.62995
20
-3.17894
11
5.62949
21
-3.18006
0
LINE
8
BLACK
6
CONTINUOUS
10
5.62949
20
-3.18006
11
5.62838
21
-3.18052
0
LINE
8
BLACK
6
CONTINUOUS
10
5.62838
20
-3.18052
11
5.62276
21
-3.18052
0
LINE
8
BLACK
6
CONTINUOUS
10
5.62276
20
-3.18052
11
5.61713
21
-3.18052
0
LINE
8
BLACK
6
CONTINUOUS
10
5.61713
20
-3.18052
11
5.61602
21
-3.18006
0
LINE
8
BLACK
6
CONTINUOUS
10
5.61602
20
-3.18006
11
5.61556
21
-3.17894
0
LINE
8
BLACK
6
CONTINUOUS
10
5.61556
20
-3.17894
11
5.61602
21
-3.17783
0
LINE
8
BLACK
6
CONTINUOUS
10
5.61602
20
-3.17783
11
5.61713
21
-3.17737
0
LINE
8
BLACK
6
CONTINUOUS
10
5.61713
20
-3.17737
11
5.62118
21
-3.17737
0
LINE
8
BLACK
6
CONTINUOUS
10
5.62118
20
-3.17737
11
5.62118
21
-3.15926
0
LINE
8
BLACK
6
CONTINUOUS
10
5.62118
20
-3.15926
11
5.62124
21
-3.15911
0
LINE
8
BLACK
6
CONTINUOUS
10
5.62124
20
-3.15911
11
5.62121
21
-3.15895
0
LINE
8
BLACK
6
CONTINUOUS
10
5.62121
20
-3.15895
11
5.62147
21
-3.15857
0
LINE
8
BLACK
6
CONTINUOUS
10
5.62147
20
-3.15857
11
5.62164
21
-3.15814
0
LINE
8
BLACK
6
CONTINUOUS
10
5.62164
20
-3.15814
11
5.62179
21
-3.15808
0
LINE
8
BLACK
6
CONTINUOUS
10
5.62179
20
-3.15808
11
5.62188
21
-3.15795
0
LINE
8
BLACK
6
CONTINUOUS
10
5.62188
20
-3.15795
11
5.62233
21
-3.15786
0
LINE
8
BLACK
6
CONTINUOUS
10
5.62233
20
-3.15786
11
5.62276
21
-3.15768
0
LINE
8
BLACK
6
CONTINUOUS
10
5.62276
20
-3.15768
11
5.62291
21
-3.15775
0
LINE
8
BLACK
6
CONTINUOUS
10
5.64174
20
-3.15778
11
5.642
21
-3.15776
0
LINE
8
BLACK
6
CONTINUOUS
10
5.642
20
-3.15776
11
5.64481
21
-3.1587
0
LINE
8
BLACK
6
CONTINUOUS
10
5.64481
20
-3.1587
11
5.64509
21
-3.15894
0
LINE
8
BLACK
6
CONTINUOUS
10
5.64509
20
-3.15894
11
5.64543
21
-3.15908
0
LINE
8
BLACK
6
CONTINUOUS
10
5.64543
20
-3.15908
11
5.6473
21
-3.16096
0
LINE
8
BLACK
6
CONTINUOUS
10
5.6473
20
-3.16096
11
5.6474
21
-3.1612
0
LINE
8
BLACK
6
CONTINUOUS
10
5.6474
20
-3.1612
11
5.6476
21
-3.16137
0
LINE
8
BLACK
6
CONTINUOUS
10
5.6476
20
-3.16137
11
5.64854
21
-3.16324
0
LINE
8
BLACK
6
CONTINUOUS
10
5.64854
20
-3.16324
11
5.64855
21
-3.16342
0
LINE
8
BLACK
6
CONTINUOUS
10
5.64855
20
-3.16342
11
5.64866
21
-3.16356
0
LINE
8
BLACK
6
CONTINUOUS
10
5.64866
20
-3.16356
11
5.64959
21
-3.16731
0
LINE
8
BLACK
6
CONTINUOUS
10
5.64959
20
-3.16731
11
5.64956
21
-3.16751
0
LINE
8
BLACK
6
CONTINUOUS
10
5.64956
20
-3.16751
11
5.64964
21
-3.16769
0
LINE
8
BLACK
6
CONTINUOUS
10
5.64964
20
-3.16769
11
5.64964
21
-3.17051
0
LINE
8
BLACK
6
CONTINUOUS
10
5.64964
20
-3.17051
11
5.64956
21
-3.17069
0
LINE
8
BLACK
6
CONTINUOUS
10
5.64956
20
-3.17069
11
5.64959
21
-3.17089
0
LINE
8
BLACK
6
CONTINUOUS
10
5.64959
20
-3.17089
11
5.64866
21
-3.17464
0
LINE
8
BLACK
6
CONTINUOUS
10
5.64866
20
-3.17464
11
5.64855
21
-3.17478
0
LINE
8
BLACK
6
CONTINUOUS
10
5.64855
20
-3.17478
11
5.64854
21
-3.17496
0
LINE
8
BLACK
6
CONTINUOUS
10
5.64854
20
-3.17496
11
5.6476
21
-3.17684
0
LINE
8
BLACK
6
CONTINUOUS
10
5.6476
20
-3.17684
11
5.6474
21
-3.177
0
LINE
8
BLACK
6
CONTINUOUS
10
5.6474
20
-3.177
11
5.6473
21
-3.17724
0
LINE
8
BLACK
6
CONTINUOUS
10
5.6473
20
-3.17724
11
5.64543
21
-3.17912
0
LINE
8
BLACK
6
CONTINUOUS
10
5.64543
20
-3.17912
11
5.64509
21
-3.17926
0
LINE
8
BLACK
6
CONTINUOUS
10
5.64509
20
-3.17926
11
5.64481
21
-3.1795
0
LINE
8
BLACK
6
CONTINUOUS
10
5.64481
20
-3.1795
11
5.642
21
-3.18044
0
LINE
8
BLACK
6
CONTINUOUS
10
5.642
20
-3.18044
11
5.64174
21
-3.18042
0
LINE
8
BLACK
6
CONTINUOUS
10
5.64174
20
-3.18042
11
5.6415
21
-3.18052
0
LINE
8
BLACK
6
CONTINUOUS
10
5.6415
20
-3.18052
11
5.63963
21
-3.18052
0
LINE
8
BLACK
6
CONTINUOUS
10
5.63963
20
-3.18052
11
5.63939
21
-3.18042
0
LINE
8
BLACK
6
CONTINUOUS
10
5.63939
20
-3.18042
11
5.63913
21
-3.18044
0
LINE
8
BLACK
6
CONTINUOUS
10
5.63913
20
-3.18044
11
5.63632
21
-3.1795
0
LINE
8
BLACK
6
CONTINUOUS
10
5.63632
20
-3.1795
11
5.63604
21
-3.17926
0
LINE
8
BLACK
6
CONTINUOUS
10
5.63604
20
-3.17926
11
5.6357
21
-3.17912
0
LINE
8
BLACK
6
CONTINUOUS
10
5.6357
20
-3.17912
11
5.63477
21
-3.17818
0
LINE
8
BLACK
6
CONTINUOUS
10
5.63477
20
-3.17818
11
5.6343
21
-3.17707
0
LINE
8
BLACK
6
CONTINUOUS
10
5.6343
20
-3.17707
11
5.63477
21
-3.17595
0
LINE
8
BLACK
6
CONTINUOUS
10
5.63477
20
-3.17595
11
5.63588
21
-3.17549
0
LINE
8
BLACK
6
CONTINUOUS
10
5.63588
20
-3.17549
11
5.63699
21
-3.17595
0
LINE
8
BLACK
6
CONTINUOUS
10
5.63699
20
-3.17595
11
5.63767
21
-3.17663
0
LINE
8
BLACK
6
CONTINUOUS
10
5.63767
20
-3.17663
11
5.63988
21
-3.17737
0
LINE
8
BLACK
6
CONTINUOUS
10
5.63988
20
-3.17737
11
5.64125
21
-3.17737
0
LINE
8
BLACK
6
CONTINUOUS
10
5.64125
20
-3.17737
11
5.64346
21
-3.17663
0
LINE
8
BLACK
6
CONTINUOUS
10
5.64346
20
-3.17663
11
5.6449
21
-3.1752
0
LINE
8
BLACK
6
CONTINUOUS
10
5.6449
20
-3.1752
11
5.64564
21
-3.17371
0
LINE
8
BLACK
6
CONTINUOUS
10
5.64564
20
-3.17371
11
5.64649
21
-3.17031
0
LINE
8
BLACK
6
CONTINUOUS
10
5.64649
20
-3.17031
11
5.64649
21
-3.16789
0
LINE
8
BLACK
6
CONTINUOUS
10
5.64649
20
-3.16789
11
5.64564
21
-3.16449
0
LINE
8
BLACK
6
CONTINUOUS
10
5.64564
20
-3.16449
11
5.6449
21
-3.163
0
LINE
8
BLACK
6
CONTINUOUS
10
5.6449
20
-3.163
11
5.64346
21
-3.16157
0
LINE
8
BLACK
6
CONTINUOUS
10
5.64346
20
-3.16157
11
5.64125
21
-3.16083
0
LINE
8
BLACK
6
CONTINUOUS
10
5.64125
20
-3.16083
11
5.63988
21
-3.16083
0
LINE
8
BLACK
6
CONTINUOUS
10
5.63988
20
-3.16083
11
5.63767
21
-3.16157
0
LINE
8
BLACK
6
CONTINUOUS
10
5.63767
20
-3.16157
11
5.63699
21
-3.16225
0
LINE
8
BLACK
6
CONTINUOUS
10
5.63699
20
-3.16225
11
5.63588
21
-3.16271
0
LINE
8
BLACK
6
CONTINUOUS
10
5.63588
20
-3.16271
11
5.63477
21
-3.16225
0
LINE
8
BLACK
6
CONTINUOUS
10
5.63477
20
-3.16225
11
5.6343
21
-3.16113
0
LINE
8
BLACK
6
CONTINUOUS
10
5.6343
20
-3.16113
11
5.63477
21
-3.16002
0
LINE
8
BLACK
6
CONTINUOUS
10
5.63477
20
-3.16002
11
5.6357
21
-3.15908
0
LINE
8
BLACK
6
CONTINUOUS
10
5.6357
20
-3.15908
11
5.63604
21
-3.15894
0
LINE
8
BLACK
6
CONTINUOUS
10
5.63604
20
-3.15894
11
5.63632
21
-3.1587
0
LINE
8
BLACK
6
CONTINUOUS
10
5.63632
20
-3.1587
11
5.63913
21
-3.15776
0
LINE
8
BLACK
6
CONTINUOUS
10
5.63913
20
-3.15776
11
5.63939
21
-3.15778
0
LINE
8
BLACK
6
CONTINUOUS
10
5.63939
20
-3.15778
11
5.63963
21
-3.15768
0
LINE
8
BLACK
6
CONTINUOUS
10
5.63963
20
-3.15768
11
5.6415
21
-3.15768
0
LINE
8
BLACK
6
CONTINUOUS
10
5.6415
20
-3.15768
11
5.64174
21
-3.15778
0
LINE
8
BLACK
6
CONTINUOUS
10
5.67197
20
-3.14343
11
5.67336
21
-3.144
0
LINE
8
BLACK
6
CONTINUOUS
10
5.67336
20
-3.144
11
5.67394
21
-3.14539
0
LINE
8
BLACK
6
CONTINUOUS
10
5.67394
20
-3.14539
11
5.67394
21
-3.19461
0
LINE
8
BLACK
6
CONTINUOUS
10
5.67394
20
-3.19461
11
5.67336
21
-3.196
0
LINE
8
BLACK
6
CONTINUOUS
10
5.67336
20
-3.196
11
5.67197
21
-3.19657
0
LINE
8
BLACK
6
CONTINUOUS
10
5.67197
20
-3.19657
11
5.59323
21
-3.19657
0
LINE
8
BLACK
6
CONTINUOUS
10
5.59323
20
-3.19657
11
5.59184
21
-3.196
0
LINE
8
BLACK
6
CONTINUOUS
10
5.59184
20
-3.196
11
5.59126
21
-3.19461
0
LINE
8
BLACK
6
CONTINUOUS
10
5.59126
20
-3.19461
11
5.59126
21
-3.19461
0
LINE
8
BLACK
6
CONTINUOUS
10
5.59126
20
-3.19461
11
5.59126
21
-3.14539
0
LINE
8
BLACK
6
CONTINUOUS
10
5.59126
20
-3.14539
11
5.59184
21
-3.144
0
LINE
8
BLACK
6
CONTINUOUS
10
5.59184
20
-3.144
11
5.59323
21
-3.14343
0
LINE
8
BLACK
6
CONTINUOUS
10
5.59323
20
-3.14343
11
5.67197
21
-3.14343
0
LINE
8
BLACK
6
CONTINUOUS
10
5.5952
20
-3.14736
11
5.5952
21
-3.19264
0
LINE
8
BLACK
6
CONTINUOUS
10
5.5952
20
-3.19264
11
5.67
21
-3.19264
0
LINE
8
BLACK
6
CONTINUOUS
10
5.67
20
-3.19264
11
5.67
21
-3.14736
0
LINE
8
BLACK
6
CONTINUOUS
10
5.67
20
-3.14736
11
5.5952
21
-3.14736
  0
ENDSEC
  0
EOF
