  0
SECTION
  2
HEADER
  9
$ANGBASE
  50
0.0
  9
$ANGDIR
  70
1
  9
$MEASUREMENT
  70
0
  0
ENDSEC
  0
SECTION
  2
TABLES
  0
TABLE
  2
LTYPE
  70
4
  0
LTYPE
  5
40F
  2
CONTINUOUS
  70
0
  3
Solid line
  72
65
  73
0
  40
0.0
  0
LTYPE
  5
410
  2
DASHDOT
 70
0
  3
Dash Dot ____ _ ____ _
 72
65
 73
4
 40
2.0
 49
1.25
 49
-0.25
 49
0.25
 49
-0.25
  0
LTYPE
  5
411
  2
DASHED
 70
0
  3
Dashed __ __ __ __ __
 72
65
 73
2
 40
0.75
 49
0.5
 49
-0.25
  0
LTYPE
  5
43B
  2
DOTTED
 70
0
  3
Dotted .  .  .  .
 72
65
 73
2
 40
0.2
 49
0.0
 49
-0.2
  0
ENDTAB
  0
TABLE
  2
STYLE
  70
4
  0
STYLE
  2
KICAD
  70
0
  40
0
  41
1
  42
1
  50
0
  71
0
  3
isocp.shx
  0
STYLE
  2
KICADB
  70
0
  40
0
  41
1
  42
1
  50
0
  71
0
  3
isocp.shx
  0
STYLE
  2
KICADI
  70
0
  40
0
  41
1
  42
1
  50
15
  71
0
  3
isocp.shx
  0
STYLE
  2
KICADBI
  70
0
  40
0
  41
1
  42
1
  50
15
  71
0
  3
isocp.shx
  0
ENDTAB
  0
TABLE
  2
LAYER
  70
1
  0
LAYER
  2
BLACK
  70
0
  62
7
  6
CONTINUOUS
  0
ENDTAB
  0
ENDSEC
  0
SECTION
  2
ENTITIES
0
LINE
8
BLACK
6
CONTINUOUS
10
5.84
20
-3.63
11
5.78
21
-3.63
0
LINE
8
BLACK
6
CONTINUOUS
10
5.78
20
-3.63
11
5.78
21
-3.57
0
LINE
8
BLACK
6
CONTINUOUS
10
5.78
20
-3.57
11
5.84
21
-3.57
0
LINE
8
BLACK
6
CONTINUOUS
10
5.84
20
-3.57
11
5.84
21
-3.63
0
LINE
8
BLACK
6
CONTINUOUS
10
5.94
20
-3.63
11
5.88
21
-3.63
0
LINE
8
BLACK
6
CONTINUOUS
10
5.88
20
-3.63
11
5.88
21
-3.57
0
LINE
8
BLACK
6
CONTINUOUS
10
5.88
20
-3.57
11
5.94
21
-3.57
0
LINE
8
BLACK
6
CONTINUOUS
10
5.94
20
-3.57
11
5.94
21
-3.63
0
LINE
8
BLACK
6
CONTINUOUS
10
5.84
20
-3.53
11
5.78
21
-3.53
0
LINE
8
BLACK
6
CONTINUOUS
10
5.78
20
-3.53
11
5.78
21
-3.47
0
LINE
8
BLACK
6
CONTINUOUS
10
5.78
20
-3.47
11
5.84
21
-3.47
0
LINE
8
BLACK
6
CONTINUOUS
10
5.84
20
-3.47
11
5.84
21
-3.53
0
LINE
8
BLACK
6
CONTINUOUS
10
5.94
20
-3.53
11
5.88
21
-3.53
0
LINE
8
BLACK
6
CONTINUOUS
10
5.88
20
-3.53
11
5.88
21
-3.47
0
LINE
8
BLACK
6
CONTINUOUS
10
5.88
20
-3.47
11
5.94
21
-3.47
0
LINE
8
BLACK
6
CONTINUOUS
10
5.94
20
-3.47
11
5.94
21
-3.53
0
LINE
8
BLACK
6
CONTINUOUS
10
5.84
20
-3.43
11
5.78
21
-3.43
0
LINE
8
BLACK
6
CONTINUOUS
10
5.78
20
-3.43
11
5.78
21
-3.37
0
LINE
8
BLACK
6
CONTINUOUS
10
5.78
20
-3.37
11
5.84
21
-3.37
0
LINE
8
BLACK
6
CONTINUOUS
10
5.84
20
-3.37
11
5.84
21
-3.43
0
LINE
8
BLACK
6
CONTINUOUS
10
5.94
20
-3.43
11
5.88
21
-3.43
0
LINE
8
BLACK
6
CONTINUOUS
10
5.88
20
-3.43
11
5.88
21
-3.37
0
LINE
8
BLACK
6
CONTINUOUS
10
5.88
20
-3.37
11
5.94
21
-3.37
0
LINE
8
BLACK
6
CONTINUOUS
10
5.94
20
-3.37
11
5.94
21
-3.43
0
LINE
8
BLACK
6
CONTINUOUS
10
5.84
20
-3.33
11
5.78
21
-3.33
0
LINE
8
BLACK
6
CONTINUOUS
10
5.78
20
-3.33
11
5.78
21
-3.27
0
LINE
8
BLACK
6
CONTINUOUS
10
5.78
20
-3.27
11
5.84
21
-3.27
0
LINE
8
BLACK
6
CONTINUOUS
10
5.84
20
-3.27
11
5.84
21
-3.33
0
LINE
8
BLACK
6
CONTINUOUS
10
5.94
20
-3.33
11
5.88
21
-3.33
0
LINE
8
BLACK
6
CONTINUOUS
10
5.88
20
-3.33
11
5.88
21
-3.27
0
LINE
8
BLACK
6
CONTINUOUS
10
5.88
20
-3.27
11
5.94
21
-3.27
0
LINE
8
BLACK
6
CONTINUOUS
10
5.94
20
-3.27
11
5.94
21
-3.33
0
LINE
8
BLACK
6
CONTINUOUS
10
5.84
20
-3.23
11
5.78
21
-3.23
0
LINE
8
BLACK
6
CONTINUOUS
10
5.78
20
-3.23
11
5.78
21
-3.17
0
LINE
8
BLACK
6
CONTINUOUS
10
5.78
20
-3.17
11
5.84
21
-3.17
0
LINE
8
BLACK
6
CONTINUOUS
10
5.84
20
-3.17
11
5.84
21
-3.23
0
LINE
8
BLACK
6
CONTINUOUS
10
5.94
20
-3.23
11
5.88
21
-3.23
0
LINE
8
BLACK
6
CONTINUOUS
10
5.88
20
-3.23
11
5.88
21
-3.17
0
LINE
8
BLACK
6
CONTINUOUS
10
5.88
20
-3.17
11
5.94
21
-3.17
0
LINE
8
BLACK
6
CONTINUOUS
10
5.94
20
-3.17
11
5.94
21
-3.23
0
LINE
8
BLACK
6
CONTINUOUS
10
5.32
20
-3.53
11
5.26
21
-3.53
0
LINE
8
BLACK
6
CONTINUOUS
10
5.26
20
-3.53
11
5.26
21
-3.47
0
LINE
8
BLACK
6
CONTINUOUS
10
5.26
20
-3.47
11
5.32
21
-3.47
0
LINE
8
BLACK
6
CONTINUOUS
10
5.32
20
-3.47
11
5.32
21
-3.53
0
LINE
8
BLACK
6
CONTINUOUS
10
5.42
20
-3.53
11
5.36
21
-3.53
0
LINE
8
BLACK
6
CONTINUOUS
10
5.36
20
-3.53
11
5.36
21
-3.47
0
LINE
8
BLACK
6
CONTINUOUS
10
5.36
20
-3.47
11
5.42
21
-3.47
0
LINE
8
BLACK
6
CONTINUOUS
10
5.42
20
-3.47
11
5.42
21
-3.53
0
LINE
8
BLACK
6
CONTINUOUS
10
5.96776
20
-2.83078
11
5.96956
21
-2.83285
0
LINE
8
BLACK
6
CONTINUOUS
10
5.96956
20
-2.83285
11
5.97
21
-2.83488
0
LINE
8
BLACK
6
CONTINUOUS
10
5.97
20
-2.83488
11
5.97
21
-3.96512
0
LINE
8
BLACK
6
CONTINUOUS
10
5.97
20
-3.96512
11
5.96922
21
-3.96776
0
LINE
8
BLACK
6
CONTINUOUS
10
5.96922
20
-3.96776
11
5.96715
21
-3.96956
0
LINE
8
BLACK
6
CONTINUOUS
10
5.96715
20
-3.96956
11
5.96512
21
-3.97
0
LINE
8
BLACK
6
CONTINUOUS
10
5.96512
20
-3.97
11
5.23488
21
-3.97
0
LINE
8
BLACK
6
CONTINUOUS
10
5.23488
20
-3.97
11
5.23224
21
-3.96922
0
LINE
8
BLACK
6
CONTINUOUS
10
5.23224
20
-3.96922
11
5.23044
21
-3.96715
0
LINE
8
BLACK
6
CONTINUOUS
10
5.23044
20
-3.96715
11
5.23
21
-3.96512
0
LINE
8
BLACK
6
CONTINUOUS
10
5.23
20
-3.96512
11
5.23
21
-3.53192
0
LINE
8
BLACK
6
CONTINUOUS
10
5.23
20
-3.53192
11
5.23
21
-2.83488
0
LINE
8
BLACK
6
CONTINUOUS
10
5.23
20
-2.83488
11
5.23077
21
-2.83224
0
LINE
8
BLACK
6
CONTINUOUS
10
5.23077
20
-2.83224
11
5.23285
21
-2.83044
0
LINE
8
BLACK
6
CONTINUOUS
10
5.23285
20
-2.83044
11
5.23488
21
-2.83
0
LINE
8
BLACK
6
CONTINUOUS
10
5.23488
20
-2.83
11
5.96512
21
-2.83
0
LINE
8
BLACK
6
CONTINUOUS
10
5.96512
20
-2.83
11
5.96776
21
-2.83078
0
LINE
8
BLACK
6
CONTINUOUS
10
5.7757
20
-3.15024
11
5.7757
21
-3.15024
0
LINE
8
BLACK
6
CONTINUOUS
10
5.7757
20
-3.15024
11
5.77031
21
-3.15225
0
LINE
8
BLACK
6
CONTINUOUS
10
5.77031
20
-3.15225
11
5.7657
21
-3.1557
0
LINE
8
BLACK
6
CONTINUOUS
10
5.7657
20
-3.1557
11
5.76225
21
-3.16031
0
LINE
8
BLACK
6
CONTINUOUS
10
5.76225
20
-3.16031
11
5.76024
21
-3.1657
0
LINE
8
BLACK
6
CONTINUOUS
10
5.76024
20
-3.1657
11
5.76024
21
-3.1657
0
LINE
8
BLACK
6
CONTINUOUS
10
5.76024
20
-3.1657
11
5.75998
21
-3.16808
0
LINE
8
BLACK
6
CONTINUOUS
10
5.75998
20
-3.16808
11
5.75998
21
-3.23192
0
LINE
8
BLACK
6
CONTINUOUS
10
5.75998
20
-3.23192
11
5.76024
21
-3.2343
0
LINE
8
BLACK
6
CONTINUOUS
10
5.76024
20
-3.2343
11
5.76024
21
-3.2343
0
LINE
8
BLACK
6
CONTINUOUS
10
5.76024
20
-3.2343
11
5.76225
21
-3.23969
0
LINE
8
BLACK
6
CONTINUOUS
10
5.76225
20
-3.23969
11
5.76225
21
-3.23969
0
LINE
8
BLACK
6
CONTINUOUS
10
5.76225
20
-3.23969
11
5.7657
21
-3.2443
0
LINE
8
BLACK
6
CONTINUOUS
10
5.7657
20
-3.2443
11
5.7657
21
-3.2443
0
LINE
8
BLACK
6
CONTINUOUS
10
5.7657
20
-3.2443
11
5.7657
21
-3.2443
0
LINE
8
BLACK
6
CONTINUOUS
10
5.7657
20
-3.2443
11
5.76809
21
-3.24609
0
LINE
8
BLACK
6
CONTINUOUS
10
5.76809
20
-3.24609
11
5.76974
21
-3.24829
0
LINE
8
BLACK
6
CONTINUOUS
10
5.76974
20
-3.24829
11
5.76993
21
-3.25104
0
LINE
8
BLACK
6
CONTINUOUS
10
5.76993
20
-3.25104
11
5.76862
21
-3.25345
0
LINE
8
BLACK
6
CONTINUOUS
10
5.76862
20
-3.25345
11
5.76809
21
-3.25391
0
LINE
8
BLACK
6
CONTINUOUS
10
5.76809
20
-3.25391
11
5.7657
21
-3.2557
0
LINE
8
BLACK
6
CONTINUOUS
10
5.7657
20
-3.2557
11
5.76225
21
-3.26031
0
LINE
8
BLACK
6
CONTINUOUS
10
5.76225
20
-3.26031
11
5.76024
21
-3.2657
0
LINE
8
BLACK
6
CONTINUOUS
10
5.76024
20
-3.2657
11
5.76024
21
-3.2657
0
LINE
8
BLACK
6
CONTINUOUS
10
5.76024
20
-3.2657
11
5.75998
21
-3.26808
0
LINE
8
BLACK
6
CONTINUOUS
10
5.75998
20
-3.26808
11
5.75998
21
-3.33192
0
LINE
8
BLACK
6
CONTINUOUS
10
5.75998
20
-3.33192
11
5.76024
21
-3.3343
0
LINE
8
BLACK
6
CONTINUOUS
10
5.76024
20
-3.3343
11
5.76024
21
-3.3343
0
LINE
8
BLACK
6
CONTINUOUS
10
5.76024
20
-3.3343
11
5.76225
21
-3.33969
0
LINE
8
BLACK
6
CONTINUOUS
10
5.76225
20
-3.33969
11
5.76225
21
-3.33969
0
LINE
8
BLACK
6
CONTINUOUS
10
5.76225
20
-3.33969
11
5.7657
21
-3.3443
0
LINE
8
BLACK
6
CONTINUOUS
10
5.7657
20
-3.3443
11
5.7657
21
-3.3443
0
LINE
8
BLACK
6
CONTINUOUS
10
5.7657
20
-3.3443
11
5.7657
21
-3.3443
0
LINE
8
BLACK
6
CONTINUOUS
10
5.7657
20
-3.3443
11
5.76809
21
-3.34609
0
LINE
8
BLACK
6
CONTINUOUS
10
5.76809
20
-3.34609
11
5.76974
21
-3.34829
0
LINE
8
BLACK
6
CONTINUOUS
10
5.76974
20
-3.34829
11
5.76993
21
-3.35104
0
LINE
8
BLACK
6
CONTINUOUS
10
5.76993
20
-3.35104
11
5.76862
21
-3.35345
0
LINE
8
BLACK
6
CONTINUOUS
10
5.76862
20
-3.35345
11
5.76809
21
-3.35391
0
LINE
8
BLACK
6
CONTINUOUS
10
5.76809
20
-3.35391
11
5.7657
21
-3.3557
0
LINE
8
BLACK
6
CONTINUOUS
10
5.7657
20
-3.3557
11
5.76225
21
-3.36031
0
LINE
8
BLACK
6
CONTINUOUS
10
5.76225
20
-3.36031
11
5.76024
21
-3.3657
0
LINE
8
BLACK
6
CONTINUOUS
10
5.76024
20
-3.3657
11
5.76024
21
-3.3657
0
LINE
8
BLACK
6
CONTINUOUS
10
5.76024
20
-3.3657
11
5.75998
21
-3.36808
0
LINE
8
BLACK
6
CONTINUOUS
10
5.75998
20
-3.36808
11
5.75998
21
-3.43192
0
LINE
8
BLACK
6
CONTINUOUS
10
5.75998
20
-3.43192
11
5.76024
21
-3.4343
0
LINE
8
BLACK
6
CONTINUOUS
10
5.76024
20
-3.4343
11
5.76024
21
-3.4343
0
LINE
8
BLACK
6
CONTINUOUS
10
5.76024
20
-3.4343
11
5.76218
21
-3.43951
0
LINE
8
BLACK
6
CONTINUOUS
10
5.76218
20
-3.43951
11
5.76225
21
-3.43969
0
LINE
8
BLACK
6
CONTINUOUS
10
5.76225
20
-3.43969
11
5.7657
21
-3.4443
0
LINE
8
BLACK
6
CONTINUOUS
10
5.7657
20
-3.4443
11
5.7657
21
-3.4443
0
LINE
8
BLACK
6
CONTINUOUS
10
5.7657
20
-3.4443
11
5.7657
21
-3.4443
0
LINE
8
BLACK
6
CONTINUOUS
10
5.7657
20
-3.4443
11
5.76809
21
-3.44609
0
LINE
8
BLACK
6
CONTINUOUS
10
5.76809
20
-3.44609
11
5.76974
21
-3.44829
0
LINE
8
BLACK
6
CONTINUOUS
10
5.76974
20
-3.44829
11
5.76993
21
-3.45104
0
LINE
8
BLACK
6
CONTINUOUS
10
5.76993
20
-3.45104
11
5.76862
21
-3.45345
0
LINE
8
BLACK
6
CONTINUOUS
10
5.76862
20
-3.45345
11
5.76809
21
-3.45391
0
LINE
8
BLACK
6
CONTINUOUS
10
5.76809
20
-3.45391
11
5.7657
21
-3.4557
0
LINE
8
BLACK
6
CONTINUOUS
10
5.7657
20
-3.4557
11
5.76225
21
-3.46031
0
LINE
8
BLACK
6
CONTINUOUS
10
5.76225
20
-3.46031
11
5.76024
21
-3.4657
0
LINE
8
BLACK
6
CONTINUOUS
10
5.76024
20
-3.4657
11
5.76024
21
-3.4657
0
LINE
8
BLACK
6
CONTINUOUS
10
5.76024
20
-3.4657
11
5.75998
21
-3.46808
0
LINE
8
BLACK
6
CONTINUOUS
10
5.75998
20
-3.46808
11
5.75998
21
-3.53192
0
LINE
8
BLACK
6
CONTINUOUS
10
5.75998
20
-3.53192
11
5.76024
21
-3.5343
0
LINE
8
BLACK
6
CONTINUOUS
10
5.76024
20
-3.5343
11
5.76024
21
-3.5343
0
LINE
8
BLACK
6
CONTINUOUS
10
5.76024
20
-3.5343
11
5.76225
21
-3.53969
0
LINE
8
BLACK
6
CONTINUOUS
10
5.76225
20
-3.53969
11
5.76225
21
-3.53969
0
LINE
8
BLACK
6
CONTINUOUS
10
5.76225
20
-3.53969
11
5.7657
21
-3.5443
0
LINE
8
BLACK
6
CONTINUOUS
10
5.7657
20
-3.5443
11
5.7657
21
-3.5443
0
LINE
8
BLACK
6
CONTINUOUS
10
5.7657
20
-3.5443
11
5.7657
21
-3.5443
0
LINE
8
BLACK
6
CONTINUOUS
10
5.7657
20
-3.5443
11
5.76809
21
-3.54609
0
LINE
8
BLACK
6
CONTINUOUS
10
5.76809
20
-3.54609
11
5.76974
21
-3.54829
0
LINE
8
BLACK
6
CONTINUOUS
10
5.76974
20
-3.54829
11
5.76993
21
-3.55104
0
LINE
8
BLACK
6
CONTINUOUS
10
5.76993
20
-3.55104
11
5.76862
21
-3.55345
0
LINE
8
BLACK
6
CONTINUOUS
10
5.76862
20
-3.55345
11
5.76809
21
-3.55391
0
LINE
8
BLACK
6
CONTINUOUS
10
5.76809
20
-3.55391
11
5.7657
21
-3.5557
0
LINE
8
BLACK
6
CONTINUOUS
10
5.7657
20
-3.5557
11
5.76225
21
-3.56031
0
LINE
8
BLACK
6
CONTINUOUS
10
5.76225
20
-3.56031
11
5.76024
21
-3.5657
0
LINE
8
BLACK
6
CONTINUOUS
10
5.76024
20
-3.5657
11
5.76024
21
-3.5657
0
LINE
8
BLACK
6
CONTINUOUS
10
5.76024
20
-3.5657
11
5.75998
21
-3.56808
0
LINE
8
BLACK
6
CONTINUOUS
10
5.75998
20
-3.56808
11
5.75998
21
-3.63192
0
LINE
8
BLACK
6
CONTINUOUS
10
5.75998
20
-3.63192
11
5.76024
21
-3.6343
0
LINE
8
BLACK
6
CONTINUOUS
10
5.76024
20
-3.6343
11
5.76024
21
-3.6343
0
LINE
8
BLACK
6
CONTINUOUS
10
5.76024
20
-3.6343
11
5.76218
21
-3.63951
0
LINE
8
BLACK
6
CONTINUOUS
10
5.76218
20
-3.63951
11
5.76225
21
-3.63969
0
LINE
8
BLACK
6
CONTINUOUS
10
5.76225
20
-3.63969
11
5.7657
21
-3.6443
0
LINE
8
BLACK
6
CONTINUOUS
10
5.7657
20
-3.6443
11
5.77031
21
-3.64775
0
LINE
8
BLACK
6
CONTINUOUS
10
5.77031
20
-3.64775
11
5.77481
21
-3.64943
0
LINE
8
BLACK
6
CONTINUOUS
10
5.77481
20
-3.64943
11
5.77549
21
-3.64968
0
LINE
8
BLACK
6
CONTINUOUS
10
5.77549
20
-3.64968
11
5.7757
21
-3.64976
0
LINE
8
BLACK
6
CONTINUOUS
10
5.7757
20
-3.64976
11
5.77677
21
-3.64988
0
LINE
8
BLACK
6
CONTINUOUS
10
5.77677
20
-3.64988
11
5.77808
21
-3.65002
0
LINE
8
BLACK
6
CONTINUOUS
10
5.77808
20
-3.65002
11
5.77809
21
-3.65002
0
LINE
8
BLACK
6
CONTINUOUS
10
5.77809
20
-3.65002
11
5.84191
21
-3.65002
0
LINE
8
BLACK
6
CONTINUOUS
10
5.84191
20
-3.65002
11
5.84192
21
-3.65002
0
LINE
8
BLACK
6
CONTINUOUS
10
5.84192
20
-3.65002
11
5.84298
21
-3.64991
0
LINE
8
BLACK
6
CONTINUOUS
10
5.84298
20
-3.64991
11
5.8443
21
-3.64976
0
LINE
8
BLACK
6
CONTINUOUS
10
5.8443
20
-3.64976
11
5.84451
21
-3.64968
0
LINE
8
BLACK
6
CONTINUOUS
10
5.84451
20
-3.64968
11
5.84519
21
-3.64943
0
LINE
8
BLACK
6
CONTINUOUS
10
5.84519
20
-3.64943
11
5.84969
21
-3.64775
0
LINE
8
BLACK
6
CONTINUOUS
10
5.84969
20
-3.64775
11
5.8543
21
-3.6443
0
LINE
8
BLACK
6
CONTINUOUS
10
5.8543
20
-3.6443
11
5.85609
21
-3.64191
0
LINE
8
BLACK
6
CONTINUOUS
10
5.85609
20
-3.64191
11
5.85829
21
-3.64026
0
LINE
8
BLACK
6
CONTINUOUS
10
5.85829
20
-3.64026
11
5.86104
21
-3.64007
0
LINE
8
BLACK
6
CONTINUOUS
10
5.86104
20
-3.64007
11
5.86345
21
-3.64138
0
LINE
8
BLACK
6
CONTINUOUS
10
5.86345
20
-3.64138
11
5.86391
21
-3.64191
0
LINE
8
BLACK
6
CONTINUOUS
10
5.86391
20
-3.64191
11
5.8657
21
-3.6443
0
LINE
8
BLACK
6
CONTINUOUS
10
5.8657
20
-3.6443
11
5.87031
21
-3.64775
0
LINE
8
BLACK
6
CONTINUOUS
10
5.87031
20
-3.64775
11
5.87481
21
-3.64943
0
LINE
8
BLACK
6
CONTINUOUS
10
5.87481
20
-3.64943
11
5.87549
21
-3.64968
0
LINE
8
BLACK
6
CONTINUOUS
10
5.87549
20
-3.64968
11
5.8757
21
-3.64976
0
LINE
8
BLACK
6
CONTINUOUS
10
5.8757
20
-3.64976
11
5.87677
21
-3.64988
0
LINE
8
BLACK
6
CONTINUOUS
10
5.87677
20
-3.64988
11
5.87808
21
-3.65002
0
LINE
8
BLACK
6
CONTINUOUS
10
5.87808
20
-3.65002
11
5.87809
21
-3.65002
0
LINE
8
BLACK
6
CONTINUOUS
10
5.87809
20
-3.65002
11
5.94191
21
-3.65002
0
LINE
8
BLACK
6
CONTINUOUS
10
5.94191
20
-3.65002
11
5.94192
21
-3.65002
0
LINE
8
BLACK
6
CONTINUOUS
10
5.94192
20
-3.65002
11
5.94298
21
-3.64991
0
LINE
8
BLACK
6
CONTINUOUS
10
5.94298
20
-3.64991
11
5.9443
21
-3.64976
0
LINE
8
BLACK
6
CONTINUOUS
10
5.9443
20
-3.64976
11
5.94451
21
-3.64968
0
LINE
8
BLACK
6
CONTINUOUS
10
5.94451
20
-3.64968
11
5.94519
21
-3.64943
0
LINE
8
BLACK
6
CONTINUOUS
10
5.94519
20
-3.64943
11
5.94969
21
-3.64775
0
LINE
8
BLACK
6
CONTINUOUS
10
5.94969
20
-3.64775
11
5.9543
21
-3.6443
0
LINE
8
BLACK
6
CONTINUOUS
10
5.9543
20
-3.6443
11
5.95775
21
-3.63969
0
LINE
8
BLACK
6
CONTINUOUS
10
5.95775
20
-3.63969
11
5.95976
21
-3.6343
0
LINE
8
BLACK
6
CONTINUOUS
10
5.95976
20
-3.6343
11
5.95991
21
-3.63298
0
LINE
8
BLACK
6
CONTINUOUS
10
5.95991
20
-3.63298
11
5.96002
21
-3.63192
0
LINE
8
BLACK
6
CONTINUOUS
10
5.96002
20
-3.63192
11
5.96002
21
-3.63191
0
LINE
8
BLACK
6
CONTINUOUS
10
5.96002
20
-3.63191
11
5.96002
21
-3.56809
0
LINE
8
BLACK
6
CONTINUOUS
10
5.96002
20
-3.56809
11
5.96002
21
-3.56808
0
LINE
8
BLACK
6
CONTINUOUS
10
5.96002
20
-3.56808
11
5.95989
21
-3.56686
0
LINE
8
BLACK
6
CONTINUOUS
10
5.95989
20
-3.56686
11
5.95976
21
-3.5657
0
LINE
8
BLACK
6
CONTINUOUS
10
5.95976
20
-3.5657
11
5.95775
21
-3.56031
0
LINE
8
BLACK
6
CONTINUOUS
10
5.95775
20
-3.56031
11
5.9543
21
-3.5557
0
LINE
8
BLACK
6
CONTINUOUS
10
5.9543
20
-3.5557
11
5.95191
21
-3.55391
0
LINE
8
BLACK
6
CONTINUOUS
10
5.95191
20
-3.55391
11
5.95026
21
-3.55171
0
LINE
8
BLACK
6
CONTINUOUS
10
5.95026
20
-3.55171
11
5.95007
21
-3.54896
0
LINE
8
BLACK
6
CONTINUOUS
10
5.95007
20
-3.54896
11
5.95138
21
-3.54655
0
LINE
8
BLACK
6
CONTINUOUS
10
5.95138
20
-3.54655
11
5.95191
21
-3.54609
0
LINE
8
BLACK
6
CONTINUOUS
10
5.95191
20
-3.54609
11
5.9543
21
-3.5443
0
LINE
8
BLACK
6
CONTINUOUS
10
5.9543
20
-3.5443
11
5.95775
21
-3.53969
0
LINE
8
BLACK
6
CONTINUOUS
10
5.95775
20
-3.53969
11
5.95976
21
-3.5343
0
LINE
8
BLACK
6
CONTINUOUS
10
5.95976
20
-3.5343
11
5.95991
21
-3.53298
0
LINE
8
BLACK
6
CONTINUOUS
10
5.95991
20
-3.53298
11
5.96002
21
-3.53192
0
LINE
8
BLACK
6
CONTINUOUS
10
5.96002
20
-3.53192
11
5.96002
21
-3.53191
0
LINE
8
BLACK
6
CONTINUOUS
10
5.96002
20
-3.53191
11
5.96002
21
-3.46809
0
LINE
8
BLACK
6
CONTINUOUS
10
5.96002
20
-3.46809
11
5.96002
21
-3.46808
0
LINE
8
BLACK
6
CONTINUOUS
10
5.96002
20
-3.46808
11
5.95989
21
-3.46686
0
LINE
8
BLACK
6
CONTINUOUS
10
5.95989
20
-3.46686
11
5.95976
21
-3.4657
0
LINE
8
BLACK
6
CONTINUOUS
10
5.95976
20
-3.4657
11
5.95775
21
-3.46031
0
LINE
8
BLACK
6
CONTINUOUS
10
5.95775
20
-3.46031
11
5.9543
21
-3.4557
0
LINE
8
BLACK
6
CONTINUOUS
10
5.9543
20
-3.4557
11
5.95191
21
-3.45391
0
LINE
8
BLACK
6
CONTINUOUS
10
5.95191
20
-3.45391
11
5.95026
21
-3.45171
0
LINE
8
BLACK
6
CONTINUOUS
10
5.95026
20
-3.45171
11
5.95007
21
-3.44896
0
LINE
8
BLACK
6
CONTINUOUS
10
5.95007
20
-3.44896
11
5.95138
21
-3.44655
0
LINE
8
BLACK
6
CONTINUOUS
10
5.95138
20
-3.44655
11
5.95191
21
-3.44609
0
LINE
8
BLACK
6
CONTINUOUS
10
5.95191
20
-3.44609
11
5.9543
21
-3.4443
0
LINE
8
BLACK
6
CONTINUOUS
10
5.9543
20
-3.4443
11
5.95775
21
-3.43969
0
LINE
8
BLACK
6
CONTINUOUS
10
5.95775
20
-3.43969
11
5.95976
21
-3.4343
0
LINE
8
BLACK
6
CONTINUOUS
10
5.95976
20
-3.4343
11
5.95991
21
-3.43298
0
LINE
8
BLACK
6
CONTINUOUS
10
5.95991
20
-3.43298
11
5.96002
21
-3.43192
0
LINE
8
BLACK
6
CONTINUOUS
10
5.96002
20
-3.43192
11
5.96002
21
-3.43191
0
LINE
8
BLACK
6
CONTINUOUS
10
5.96002
20
-3.43191
11
5.96002
21
-3.36809
0
LINE
8
BLACK
6
CONTINUOUS
10
5.96002
20
-3.36809
11
5.96002
21
-3.36808
0
LINE
8
BLACK
6
CONTINUOUS
10
5.96002
20
-3.36808
11
5.95989
21
-3.36686
0
LINE
8
BLACK
6
CONTINUOUS
10
5.95989
20
-3.36686
11
5.95976
21
-3.3657
0
LINE
8
BLACK
6
CONTINUOUS
10
5.95976
20
-3.3657
11
5.95775
21
-3.36031
0
LINE
8
BLACK
6
CONTINUOUS
10
5.95775
20
-3.36031
11
5.9543
21
-3.3557
0
LINE
8
BLACK
6
CONTINUOUS
10
5.9543
20
-3.3557
11
5.95191
21
-3.35391
0
LINE
8
BLACK
6
CONTINUOUS
10
5.95191
20
-3.35391
11
5.95026
21
-3.35171
0
LINE
8
BLACK
6
CONTINUOUS
10
5.95026
20
-3.35171
11
5.95007
21
-3.34896
0
LINE
8
BLACK
6
CONTINUOUS
10
5.95007
20
-3.34896
11
5.95138
21
-3.34655
0
LINE
8
BLACK
6
CONTINUOUS
10
5.95138
20
-3.34655
11
5.95191
21
-3.34609
0
LINE
8
BLACK
6
CONTINUOUS
10
5.95191
20
-3.34609
11
5.9543
21
-3.3443
0
LINE
8
BLACK
6
CONTINUOUS
10
5.9543
20
-3.3443
11
5.95775
21
-3.33969
0
LINE
8
BLACK
6
CONTINUOUS
10
5.95775
20
-3.33969
11
5.95976
21
-3.3343
0
LINE
8
BLACK
6
CONTINUOUS
10
5.95976
20
-3.3343
11
5.95991
21
-3.33298
0
LINE
8
BLACK
6
CONTINUOUS
10
5.95991
20
-3.33298
11
5.96002
21
-3.33192
0
LINE
8
BLACK
6
CONTINUOUS
10
5.96002
20
-3.33192
11
5.96002
21
-3.33191
0
LINE
8
BLACK
6
CONTINUOUS
10
5.96002
20
-3.33191
11
5.96002
21
-3.26809
0
LINE
8
BLACK
6
CONTINUOUS
10
5.96002
20
-3.26809
11
5.96002
21
-3.26808
0
LINE
8
BLACK
6
CONTINUOUS
10
5.96002
20
-3.26808
11
5.95989
21
-3.26686
0
LINE
8
BLACK
6
CONTINUOUS
10
5.95989
20
-3.26686
11
5.95976
21
-3.2657
0
LINE
8
BLACK
6
CONTINUOUS
10
5.95976
20
-3.2657
11
5.95775
21
-3.26031
0
LINE
8
BLACK
6
CONTINUOUS
10
5.95775
20
-3.26031
11
5.9543
21
-3.2557
0
LINE
8
BLACK
6
CONTINUOUS
10
5.9543
20
-3.2557
11
5.95191
21
-3.25391
0
LINE
8
BLACK
6
CONTINUOUS
10
5.95191
20
-3.25391
11
5.95026
21
-3.25171
0
LINE
8
BLACK
6
CONTINUOUS
10
5.95026
20
-3.25171
11
5.95007
21
-3.24896
0
LINE
8
BLACK
6
CONTINUOUS
10
5.95007
20
-3.24896
11
5.95138
21
-3.24655
0
LINE
8
BLACK
6
CONTINUOUS
10
5.95138
20
-3.24655
11
5.95191
21
-3.24609
0
LINE
8
BLACK
6
CONTINUOUS
10
5.95191
20
-3.24609
11
5.9543
21
-3.2443
0
LINE
8
BLACK
6
CONTINUOUS
10
5.9543
20
-3.2443
11
5.95775
21
-3.23969
0
LINE
8
BLACK
6
CONTINUOUS
10
5.95775
20
-3.23969
11
5.95976
21
-3.2343
0
LINE
8
BLACK
6
CONTINUOUS
10
5.95976
20
-3.2343
11
5.95991
21
-3.23298
0
LINE
8
BLACK
6
CONTINUOUS
10
5.95991
20
-3.23298
11
5.96002
21
-3.23192
0
LINE
8
BLACK
6
CONTINUOUS
10
5.96002
20
-3.23192
11
5.96002
21
-3.23191
0
LINE
8
BLACK
6
CONTINUOUS
10
5.96002
20
-3.23191
11
5.96002
21
-3.16809
0
LINE
8
BLACK
6
CONTINUOUS
10
5.96002
20
-3.16809
11
5.96002
21
-3.16808
0
LINE
8
BLACK
6
CONTINUOUS
10
5.96002
20
-3.16808
11
5.95989
21
-3.16686
0
LINE
8
BLACK
6
CONTINUOUS
10
5.95989
20
-3.16686
11
5.95976
21
-3.1657
0
LINE
8
BLACK
6
CONTINUOUS
10
5.95976
20
-3.1657
11
5.95775
21
-3.16031
0
LINE
8
BLACK
6
CONTINUOUS
10
5.95775
20
-3.16031
11
5.9543
21
-3.1557
0
LINE
8
BLACK
6
CONTINUOUS
10
5.9543
20
-3.1557
11
5.94969
21
-3.15225
0
LINE
8
BLACK
6
CONTINUOUS
10
5.94969
20
-3.15225
11
5.94969
21
-3.15225
0
LINE
8
BLACK
6
CONTINUOUS
10
5.94969
20
-3.15225
11
5.9443
21
-3.15024
0
LINE
8
BLACK
6
CONTINUOUS
10
5.9443
20
-3.15024
11
5.94192
21
-3.14998
0
LINE
8
BLACK
6
CONTINUOUS
10
5.94192
20
-3.14998
11
5.94191
21
-3.14998
0
LINE
8
BLACK
6
CONTINUOUS
10
5.94191
20
-3.14998
11
5.87809
21
-3.14998
0
LINE
8
BLACK
6
CONTINUOUS
10
5.87809
20
-3.14998
11
5.87808
21
-3.14998
0
LINE
8
BLACK
6
CONTINUOUS
10
5.87808
20
-3.14998
11
5.8757
21
-3.15024
0
LINE
8
BLACK
6
CONTINUOUS
10
5.8757
20
-3.15024
11
5.8757
21
-3.15024
0
LINE
8
BLACK
6
CONTINUOUS
10
5.8757
20
-3.15024
11
5.87031
21
-3.15225
0
LINE
8
BLACK
6
CONTINUOUS
10
5.87031
20
-3.15225
11
5.8657
21
-3.1557
0
LINE
8
BLACK
6
CONTINUOUS
10
5.8657
20
-3.1557
11
5.86391
21
-3.15809
0
LINE
8
BLACK
6
CONTINUOUS
10
5.86391
20
-3.15809
11
5.86171
21
-3.15974
0
LINE
8
BLACK
6
CONTINUOUS
10
5.86171
20
-3.15974
11
5.85896
21
-3.15993
0
LINE
8
BLACK
6
CONTINUOUS
10
5.85896
20
-3.15993
11
5.85655
21
-3.15862
0
LINE
8
BLACK
6
CONTINUOUS
10
5.85655
20
-3.15862
11
5.85609
21
-3.15809
0
LINE
8
BLACK
6
CONTINUOUS
10
5.85609
20
-3.15809
11
5.8543
21
-3.1557
0
LINE
8
BLACK
6
CONTINUOUS
10
5.8543
20
-3.1557
11
5.8543
21
-3.1557
0
LINE
8
BLACK
6
CONTINUOUS
10
5.8543
20
-3.1557
11
5.8543
21
-3.1557
0
LINE
8
BLACK
6
CONTINUOUS
10
5.8543
20
-3.1557
11
5.84969
21
-3.15225
0
LINE
8
BLACK
6
CONTINUOUS
10
5.84969
20
-3.15225
11
5.84969
21
-3.15225
0
LINE
8
BLACK
6
CONTINUOUS
10
5.84969
20
-3.15225
11
5.8443
21
-3.15024
0
LINE
8
BLACK
6
CONTINUOUS
10
5.8443
20
-3.15024
11
5.84192
21
-3.14998
0
LINE
8
BLACK
6
CONTINUOUS
10
5.84192
20
-3.14998
11
5.84191
21
-3.14998
0
LINE
8
BLACK
6
CONTINUOUS
10
5.84191
20
-3.14998
11
5.77809
21
-3.14998
0
LINE
8
BLACK
6
CONTINUOUS
10
5.77809
20
-3.14998
11
5.77808
21
-3.14998
0
LINE
8
BLACK
6
CONTINUOUS
10
5.77808
20
-3.14998
11
5.7757
21
-3.15024
0
LINE
8
BLACK
6
CONTINUOUS
10
5.24031
20
-3.60984
11
5.24031
21
-3.63188
0
LINE
8
BLACK
6
CONTINUOUS
10
5.24031
20
-3.63188
11
5.24057
21
-3.63423
0
LINE
8
BLACK
6
CONTINUOUS
10
5.24057
20
-3.63423
11
5.24057
21
-3.63423
0
LINE
8
BLACK
6
CONTINUOUS
10
5.24057
20
-3.63423
11
5.24255
21
-3.63953
0
LINE
8
BLACK
6
CONTINUOUS
10
5.24255
20
-3.63953
11
5.24255
21
-3.63953
0
LINE
8
BLACK
6
CONTINUOUS
10
5.24255
20
-3.63953
11
5.24594
21
-3.64406
0
LINE
8
BLACK
6
CONTINUOUS
10
5.24594
20
-3.64406
11
5.24594
21
-3.64406
0
LINE
8
BLACK
6
CONTINUOUS
10
5.24594
20
-3.64406
11
5.25047
21
-3.64745
0
LINE
8
BLACK
6
CONTINUOUS
10
5.25047
20
-3.64745
11
5.25047
21
-3.64745
0
LINE
8
BLACK
6
CONTINUOUS
10
5.25047
20
-3.64745
11
5.25577
21
-3.64943
0
LINE
8
BLACK
6
CONTINUOUS
10
5.25577
20
-3.64943
11
5.25577
21
-3.64943
0
LINE
8
BLACK
6
CONTINUOUS
10
5.25577
20
-3.64943
11
5.25812
21
-3.64968
0
LINE
8
BLACK
6
CONTINUOUS
10
5.25812
20
-3.64968
11
5.25812
21
-3.64969
0
LINE
8
BLACK
6
CONTINUOUS
10
5.25812
20
-3.64969
11
5.28016
21
-3.64969
0
LINE
8
BLACK
6
CONTINUOUS
10
5.28016
20
-3.64969
11
5.28016
21
-3.63
0
LINE
8
BLACK
6
CONTINUOUS
10
5.28016
20
-3.63
11
5.26
21
-3.63
0
LINE
8
BLACK
6
CONTINUOUS
10
5.26
20
-3.63
11
5.26
21
-3.60984
0
LINE
8
BLACK
6
CONTINUOUS
10
5.26
20
-3.60984
11
5.24031
21
-3.60984
0
LINE
8
BLACK
6
CONTINUOUS
10
5.32
20
-3.60984
11
5.32
21
-3.63
0
LINE
8
BLACK
6
CONTINUOUS
10
5.32
20
-3.63
11
5.29984
21
-3.63
0
LINE
8
BLACK
6
CONTINUOUS
10
5.29984
20
-3.63
11
5.29984
21
-3.64969
0
LINE
8
BLACK
6
CONTINUOUS
10
5.29984
20
-3.64969
11
5.32188
21
-3.64969
0
LINE
8
BLACK
6
CONTINUOUS
10
5.32188
20
-3.64969
11
5.32188
21
-3.64968
0
LINE
8
BLACK
6
CONTINUOUS
10
5.32188
20
-3.64968
11
5.32423
21
-3.64943
0
LINE
8
BLACK
6
CONTINUOUS
10
5.32423
20
-3.64943
11
5.32423
21
-3.64943
0
LINE
8
BLACK
6
CONTINUOUS
10
5.32423
20
-3.64943
11
5.32953
21
-3.64745
0
LINE
8
BLACK
6
CONTINUOUS
10
5.32953
20
-3.64745
11
5.32953
21
-3.64745
0
LINE
8
BLACK
6
CONTINUOUS
10
5.32953
20
-3.64745
11
5.33406
21
-3.64406
0
LINE
8
BLACK
6
CONTINUOUS
10
5.33406
20
-3.64406
11
5.33609
21
-3.64135
0
LINE
8
BLACK
6
CONTINUOUS
10
5.33609
20
-3.64135
11
5.33829
21
-3.6397
0
LINE
8
BLACK
6
CONTINUOUS
10
5.33829
20
-3.6397
11
5.34104
21
-3.63951
0
LINE
8
BLACK
6
CONTINUOUS
10
5.34104
20
-3.63951
11
5.34345
21
-3.64083
0
LINE
8
BLACK
6
CONTINUOUS
10
5.34345
20
-3.64083
11
5.34391
21
-3.64135
0
LINE
8
BLACK
6
CONTINUOUS
10
5.34391
20
-3.64135
11
5.34594
21
-3.64406
0
LINE
8
BLACK
6
CONTINUOUS
10
5.34594
20
-3.64406
11
5.35047
21
-3.64745
0
LINE
8
BLACK
6
CONTINUOUS
10
5.35047
20
-3.64745
11
5.35047
21
-3.64745
0
LINE
8
BLACK
6
CONTINUOUS
10
5.35047
20
-3.64745
11
5.35577
21
-3.64943
0
LINE
8
BLACK
6
CONTINUOUS
10
5.35577
20
-3.64943
11
5.35577
21
-3.64943
0
LINE
8
BLACK
6
CONTINUOUS
10
5.35577
20
-3.64943
11
5.35812
21
-3.64968
0
LINE
8
BLACK
6
CONTINUOUS
10
5.35812
20
-3.64968
11
5.35812
21
-3.64969
0
LINE
8
BLACK
6
CONTINUOUS
10
5.35812
20
-3.64969
11
5.38016
21
-3.64969
0
LINE
8
BLACK
6
CONTINUOUS
10
5.38016
20
-3.64969
11
5.38016
21
-3.63
0
LINE
8
BLACK
6
CONTINUOUS
10
5.38016
20
-3.63
11
5.36
21
-3.63
0
LINE
8
BLACK
6
CONTINUOUS
10
5.36
20
-3.63
11
5.36
21
-3.60984
0
LINE
8
BLACK
6
CONTINUOUS
10
5.36
20
-3.60984
11
5.32
21
-3.60984
0
LINE
8
BLACK
6
CONTINUOUS
10
5.42
20
-3.63
11
5.39984
21
-3.63
0
LINE
8
BLACK
6
CONTINUOUS
10
5.39984
20
-3.63
11
5.39984
21
-3.64969
0
LINE
8
BLACK
6
CONTINUOUS
10
5.39984
20
-3.64969
11
5.42188
21
-3.64969
0
LINE
8
BLACK
6
CONTINUOUS
10
5.42188
20
-3.64969
11
5.42188
21
-3.64968
0
LINE
8
BLACK
6
CONTINUOUS
10
5.42188
20
-3.64968
11
5.42423
21
-3.64943
0
LINE
8
BLACK
6
CONTINUOUS
10
5.42423
20
-3.64943
11
5.42423
21
-3.64943
0
LINE
8
BLACK
6
CONTINUOUS
10
5.42423
20
-3.64943
11
5.42953
21
-3.64745
0
LINE
8
BLACK
6
CONTINUOUS
10
5.42953
20
-3.64745
11
5.42953
21
-3.64745
0
LINE
8
BLACK
6
CONTINUOUS
10
5.42953
20
-3.64745
11
5.43406
21
-3.64406
0
LINE
8
BLACK
6
CONTINUOUS
10
5.43406
20
-3.64406
11
5.43406
21
-3.64406
0
LINE
8
BLACK
6
CONTINUOUS
10
5.43406
20
-3.64406
11
5.43745
21
-3.63953
0
LINE
8
BLACK
6
CONTINUOUS
10
5.43745
20
-3.63953
11
5.43745
21
-3.63953
0
LINE
8
BLACK
6
CONTINUOUS
10
5.43745
20
-3.63953
11
5.43943
21
-3.63423
0
LINE
8
BLACK
6
CONTINUOUS
10
5.43943
20
-3.63423
11
5.43943
21
-3.63423
0
LINE
8
BLACK
6
CONTINUOUS
10
5.43943
20
-3.63423
11
5.43968
21
-3.63192
0
LINE
8
BLACK
6
CONTINUOUS
10
5.43968
20
-3.63192
11
5.43968
21
-3.63188
0
LINE
8
BLACK
6
CONTINUOUS
10
5.43968
20
-3.63188
11
5.43969
21
-3.63188
0
LINE
8
BLACK
6
CONTINUOUS
10
5.43969
20
-3.63188
11
5.43969
21
-3.60984
0
LINE
8
BLACK
6
CONTINUOUS
10
5.43969
20
-3.60984
11
5.42
21
-3.60984
0
LINE
8
BLACK
6
CONTINUOUS
10
5.42
20
-3.60984
11
5.42
21
-3.63
0
LINE
8
BLACK
6
CONTINUOUS
10
5.24024
20
-3.5343
11
5.24024
21
-3.5343
0
LINE
8
BLACK
6
CONTINUOUS
10
5.24024
20
-3.5343
11
5.24225
21
-3.53969
0
LINE
8
BLACK
6
CONTINUOUS
10
5.24225
20
-3.53969
11
5.24225
21
-3.53969
0
LINE
8
BLACK
6
CONTINUOUS
10
5.24225
20
-3.53969
11
5.2457
21
-3.5443
0
LINE
8
BLACK
6
CONTINUOUS
10
5.2457
20
-3.5443
11
5.24837
21
-3.5463
0
LINE
8
BLACK
6
CONTINUOUS
10
5.24837
20
-3.5463
11
5.25002
21
-3.5485
0
LINE
8
BLACK
6
CONTINUOUS
10
5.25002
20
-3.5485
11
5.25021
21
-3.55125
0
LINE
8
BLACK
6
CONTINUOUS
10
5.25021
20
-3.55125
11
5.2489
21
-3.55366
0
LINE
8
BLACK
6
CONTINUOUS
10
5.2489
20
-3.55366
11
5.24837
21
-3.55412
0
LINE
8
BLACK
6
CONTINUOUS
10
5.24837
20
-3.55412
11
5.24594
21
-3.55594
0
LINE
8
BLACK
6
CONTINUOUS
10
5.24594
20
-3.55594
11
5.24255
21
-3.56047
0
LINE
8
BLACK
6
CONTINUOUS
10
5.24255
20
-3.56047
11
5.24255
21
-3.56047
0
LINE
8
BLACK
6
CONTINUOUS
10
5.24255
20
-3.56047
11
5.24057
21
-3.56577
0
LINE
8
BLACK
6
CONTINUOUS
10
5.24057
20
-3.56577
11
5.24057
21
-3.56577
0
LINE
8
BLACK
6
CONTINUOUS
10
5.24057
20
-3.56577
11
5.24031
21
-3.56812
0
LINE
8
BLACK
6
CONTINUOUS
10
5.24031
20
-3.56812
11
5.24031
21
-3.59016
0
LINE
8
BLACK
6
CONTINUOUS
10
5.24031
20
-3.59016
11
5.26
21
-3.59016
0
LINE
8
BLACK
6
CONTINUOUS
10
5.26
20
-3.59016
11
5.26
21
-3.57
0
LINE
8
BLACK
6
CONTINUOUS
10
5.26
20
-3.57
11
5.32
21
-3.57
0
LINE
8
BLACK
6
CONTINUOUS
10
5.32
20
-3.57
11
5.32
21
-3.59016
0
LINE
8
BLACK
6
CONTINUOUS
10
5.32
20
-3.59016
11
5.36
21
-3.59016
0
LINE
8
BLACK
6
CONTINUOUS
10
5.36
20
-3.59016
11
5.36
21
-3.57
0
LINE
8
BLACK
6
CONTINUOUS
10
5.36
20
-3.57
11
5.42
21
-3.57
0
LINE
8
BLACK
6
CONTINUOUS
10
5.42
20
-3.57
11
5.42
21
-3.59016
0
LINE
8
BLACK
6
CONTINUOUS
10
5.42
20
-3.59016
11
5.43969
21
-3.59016
0
LINE
8
BLACK
6
CONTINUOUS
10
5.43969
20
-3.59016
11
5.43969
21
-3.56812
0
LINE
8
BLACK
6
CONTINUOUS
10
5.43969
20
-3.56812
11
5.43968
21
-3.56812
0
LINE
8
BLACK
6
CONTINUOUS
10
5.43968
20
-3.56812
11
5.43943
21
-3.56577
0
LINE
8
BLACK
6
CONTINUOUS
10
5.43943
20
-3.56577
11
5.43943
21
-3.56577
0
LINE
8
BLACK
6
CONTINUOUS
10
5.43943
20
-3.56577
11
5.43745
21
-3.56047
0
LINE
8
BLACK
6
CONTINUOUS
10
5.43745
20
-3.56047
11
5.43745
21
-3.56047
0
LINE
8
BLACK
6
CONTINUOUS
10
5.43745
20
-3.56047
11
5.43406
21
-3.55594
0
LINE
8
BLACK
6
CONTINUOUS
10
5.43406
20
-3.55594
11
5.43163
21
-3.55412
0
LINE
8
BLACK
6
CONTINUOUS
10
5.43163
20
-3.55412
11
5.42998
21
-3.55191
0
LINE
8
BLACK
6
CONTINUOUS
10
5.42998
20
-3.55191
11
5.42979
21
-3.54917
0
LINE
8
BLACK
6
CONTINUOUS
10
5.42979
20
-3.54917
11
5.4311
21
-3.54676
0
LINE
8
BLACK
6
CONTINUOUS
10
5.4311
20
-3.54676
11
5.43163
21
-3.5463
0
LINE
8
BLACK
6
CONTINUOUS
10
5.43163
20
-3.5463
11
5.4343
21
-3.5443
0
LINE
8
BLACK
6
CONTINUOUS
10
5.4343
20
-3.5443
11
5.43775
21
-3.53969
0
LINE
8
BLACK
6
CONTINUOUS
10
5.43775
20
-3.53969
11
5.43976
21
-3.5343
0
LINE
8
BLACK
6
CONTINUOUS
10
5.43976
20
-3.5343
11
5.43991
21
-3.53298
0
LINE
8
BLACK
6
CONTINUOUS
10
5.43991
20
-3.53298
11
5.44002
21
-3.53192
0
LINE
8
BLACK
6
CONTINUOUS
10
5.44002
20
-3.53192
11
5.44002
21
-3.53191
0
LINE
8
BLACK
6
CONTINUOUS
10
5.44002
20
-3.53191
11
5.44002
21
-3.46809
0
LINE
8
BLACK
6
CONTINUOUS
10
5.44002
20
-3.46809
11
5.44002
21
-3.46808
0
LINE
8
BLACK
6
CONTINUOUS
10
5.44002
20
-3.46808
11
5.43989
21
-3.46686
0
LINE
8
BLACK
6
CONTINUOUS
10
5.43989
20
-3.46686
11
5.43976
21
-3.4657
0
LINE
8
BLACK
6
CONTINUOUS
10
5.43976
20
-3.4657
11
5.43775
21
-3.46031
0
LINE
8
BLACK
6
CONTINUOUS
10
5.43775
20
-3.46031
11
5.4343
21
-3.4557
0
LINE
8
BLACK
6
CONTINUOUS
10
5.4343
20
-3.4557
11
5.43163
21
-3.4537
0
LINE
8
BLACK
6
CONTINUOUS
10
5.43163
20
-3.4537
11
5.42998
21
-3.4515
0
LINE
8
BLACK
6
CONTINUOUS
10
5.42998
20
-3.4515
11
5.42979
21
-3.44875
0
LINE
8
BLACK
6
CONTINUOUS
10
5.42979
20
-3.44875
11
5.4311
21
-3.44634
0
LINE
8
BLACK
6
CONTINUOUS
10
5.4311
20
-3.44634
11
5.43163
21
-3.44588
0
LINE
8
BLACK
6
CONTINUOUS
10
5.43163
20
-3.44588
11
5.43406
21
-3.44406
0
LINE
8
BLACK
6
CONTINUOUS
10
5.43406
20
-3.44406
11
5.43406
21
-3.44406
0
LINE
8
BLACK
6
CONTINUOUS
10
5.43406
20
-3.44406
11
5.43745
21
-3.43953
0
LINE
8
BLACK
6
CONTINUOUS
10
5.43745
20
-3.43953
11
5.43745
21
-3.43953
0
LINE
8
BLACK
6
CONTINUOUS
10
5.43745
20
-3.43953
11
5.43943
21
-3.43423
0
LINE
8
BLACK
6
CONTINUOUS
10
5.43943
20
-3.43423
11
5.43943
21
-3.43423
0
LINE
8
BLACK
6
CONTINUOUS
10
5.43943
20
-3.43423
11
5.43968
21
-3.43188
0
LINE
8
BLACK
6
CONTINUOUS
10
5.43968
20
-3.43188
11
5.43969
21
-3.43188
0
LINE
8
BLACK
6
CONTINUOUS
10
5.43969
20
-3.43188
11
5.43969
21
-3.40984
0
LINE
8
BLACK
6
CONTINUOUS
10
5.43969
20
-3.40984
11
5.42
21
-3.40984
0
LINE
8
BLACK
6
CONTINUOUS
10
5.42
20
-3.40984
11
5.42
21
-3.43
0
LINE
8
BLACK
6
CONTINUOUS
10
5.42
20
-3.43
11
5.36
21
-3.43
0
LINE
8
BLACK
6
CONTINUOUS
10
5.36
20
-3.43
11
5.36
21
-3.40984
0
LINE
8
BLACK
6
CONTINUOUS
10
5.36
20
-3.40984
11
5.32
21
-3.40984
0
LINE
8
BLACK
6
CONTINUOUS
10
5.32
20
-3.40984
11
5.32
21
-3.43
0
LINE
8
BLACK
6
CONTINUOUS
10
5.32
20
-3.43
11
5.26
21
-3.43
0
LINE
8
BLACK
6
CONTINUOUS
10
5.26
20
-3.43
11
5.26
21
-3.40984
0
LINE
8
BLACK
6
CONTINUOUS
10
5.26
20
-3.40984
11
5.24031
21
-3.40984
0
LINE
8
BLACK
6
CONTINUOUS
10
5.24031
20
-3.40984
11
5.24031
21
-3.43188
0
LINE
8
BLACK
6
CONTINUOUS
10
5.24031
20
-3.43188
11
5.24057
21
-3.43423
0
LINE
8
BLACK
6
CONTINUOUS
10
5.24057
20
-3.43423
11
5.24057
21
-3.43423
0
LINE
8
BLACK
6
CONTINUOUS
10
5.24057
20
-3.43423
11
5.24255
21
-3.43953
0
LINE
8
BLACK
6
CONTINUOUS
10
5.24255
20
-3.43953
11
5.24255
21
-3.43953
0
LINE
8
BLACK
6
CONTINUOUS
10
5.24255
20
-3.43953
11
5.24594
21
-3.44406
0
LINE
8
BLACK
6
CONTINUOUS
10
5.24594
20
-3.44406
11
5.24837
21
-3.44588
0
LINE
8
BLACK
6
CONTINUOUS
10
5.24837
20
-3.44588
11
5.25002
21
-3.44808
0
LINE
8
BLACK
6
CONTINUOUS
10
5.25002
20
-3.44808
11
5.25021
21
-3.45083
0
LINE
8
BLACK
6
CONTINUOUS
10
5.25021
20
-3.45083
11
5.2489
21
-3.45324
0
LINE
8
BLACK
6
CONTINUOUS
10
5.2489
20
-3.45324
11
5.24837
21
-3.4537
0
LINE
8
BLACK
6
CONTINUOUS
10
5.24837
20
-3.4537
11
5.2457
21
-3.4557
0
LINE
8
BLACK
6
CONTINUOUS
10
5.2457
20
-3.4557
11
5.2457
21
-3.4557
0
LINE
8
BLACK
6
CONTINUOUS
10
5.2457
20
-3.4557
11
5.2457
21
-3.4557
0
LINE
8
BLACK
6
CONTINUOUS
10
5.2457
20
-3.4557
11
5.2457
21
-3.4557
0
LINE
8
BLACK
6
CONTINUOUS
10
5.2457
20
-3.4557
11
5.24225
21
-3.46031
0
LINE
8
BLACK
6
CONTINUOUS
10
5.24225
20
-3.46031
11
5.24024
21
-3.4657
0
LINE
8
BLACK
6
CONTINUOUS
10
5.24024
20
-3.4657
11
5.24024
21
-3.4657
0
LINE
8
BLACK
6
CONTINUOUS
10
5.24024
20
-3.4657
11
5.23998
21
-3.46808
0
LINE
8
BLACK
6
CONTINUOUS
10
5.23998
20
-3.46808
11
5.23998
21
-3.53192
0
LINE
8
BLACK
6
CONTINUOUS
10
5.23998
20
-3.53192
11
5.24024
21
-3.5343
0
LINE
8
BLACK
6
CONTINUOUS
10
5.39984
20
-3.37
11
5.42
21
-3.37
0
LINE
8
BLACK
6
CONTINUOUS
10
5.42
20
-3.37
11
5.42
21
-3.39016
0
LINE
8
BLACK
6
CONTINUOUS
10
5.42
20
-3.39016
11
5.43969
21
-3.39016
0
LINE
8
BLACK
6
CONTINUOUS
10
5.43969
20
-3.39016
11
5.43969
21
-3.36812
0
LINE
8
BLACK
6
CONTINUOUS
10
5.43969
20
-3.36812
11
5.43968
21
-3.36812
0
LINE
8
BLACK
6
CONTINUOUS
10
5.43968
20
-3.36812
11
5.43943
21
-3.36577
0
LINE
8
BLACK
6
CONTINUOUS
10
5.43943
20
-3.36577
11
5.43943
21
-3.36577
0
LINE
8
BLACK
6
CONTINUOUS
10
5.43943
20
-3.36577
11
5.43745
21
-3.36047
0
LINE
8
BLACK
6
CONTINUOUS
10
5.43745
20
-3.36047
11
5.43745
21
-3.36047
0
LINE
8
BLACK
6
CONTINUOUS
10
5.43745
20
-3.36047
11
5.43406
21
-3.35594
0
LINE
8
BLACK
6
CONTINUOUS
10
5.43406
20
-3.35594
11
5.43406
21
-3.35594
0
LINE
8
BLACK
6
CONTINUOUS
10
5.43406
20
-3.35594
11
5.42953
21
-3.35255
0
LINE
8
BLACK
6
CONTINUOUS
10
5.42953
20
-3.35255
11
5.42953
21
-3.35255
0
LINE
8
BLACK
6
CONTINUOUS
10
5.42953
20
-3.35255
11
5.42423
21
-3.35057
0
LINE
8
BLACK
6
CONTINUOUS
10
5.42423
20
-3.35057
11
5.42423
21
-3.35057
0
LINE
8
BLACK
6
CONTINUOUS
10
5.42423
20
-3.35057
11
5.42188
21
-3.35031
0
LINE
8
BLACK
6
CONTINUOUS
10
5.42188
20
-3.35031
11
5.39984
21
-3.35031
0
LINE
8
BLACK
6
CONTINUOUS
10
5.39984
20
-3.35031
11
5.39984
21
-3.37
0
LINE
8
BLACK
6
CONTINUOUS
10
5.29984
20
-3.37
11
5.32
21
-3.37
0
LINE
8
BLACK
6
CONTINUOUS
10
5.32
20
-3.37
11
5.32
21
-3.39016
0
LINE
8
BLACK
6
CONTINUOUS
10
5.32
20
-3.39016
11
5.36
21
-3.39016
0
LINE
8
BLACK
6
CONTINUOUS
10
5.36
20
-3.39016
11
5.36
21
-3.37
0
LINE
8
BLACK
6
CONTINUOUS
10
5.36
20
-3.37
11
5.38016
21
-3.37
0
LINE
8
BLACK
6
CONTINUOUS
10
5.38016
20
-3.37
11
5.38016
21
-3.35031
0
LINE
8
BLACK
6
CONTINUOUS
10
5.38016
20
-3.35031
11
5.35812
21
-3.35031
0
LINE
8
BLACK
6
CONTINUOUS
10
5.35812
20
-3.35031
11
5.35577
21
-3.35057
0
LINE
8
BLACK
6
CONTINUOUS
10
5.35577
20
-3.35057
11
5.35577
21
-3.35057
0
LINE
8
BLACK
6
CONTINUOUS
10
5.35577
20
-3.35057
11
5.35047
21
-3.35255
0
LINE
8
BLACK
6
CONTINUOUS
10
5.35047
20
-3.35255
11
5.35047
21
-3.35255
0
LINE
8
BLACK
6
CONTINUOUS
10
5.35047
20
-3.35255
11
5.34594
21
-3.35594
0
LINE
8
BLACK
6
CONTINUOUS
10
5.34594
20
-3.35594
11
5.34391
21
-3.35865
0
LINE
8
BLACK
6
CONTINUOUS
10
5.34391
20
-3.35865
11
5.34171
21
-3.3603
0
LINE
8
BLACK
6
CONTINUOUS
10
5.34171
20
-3.3603
11
5.33896
21
-3.36049
0
LINE
8
BLACK
6
CONTINUOUS
10
5.33896
20
-3.36049
11
5.33655
21
-3.35917
0
LINE
8
BLACK
6
CONTINUOUS
10
5.33655
20
-3.35917
11
5.33609
21
-3.35865
0
LINE
8
BLACK
6
CONTINUOUS
10
5.33609
20
-3.35865
11
5.33406
21
-3.35594
0
LINE
8
BLACK
6
CONTINUOUS
10
5.33406
20
-3.35594
11
5.32953
21
-3.35255
0
LINE
8
BLACK
6
CONTINUOUS
10
5.32953
20
-3.35255
11
5.32953
21
-3.35255
0
LINE
8
BLACK
6
CONTINUOUS
10
5.32953
20
-3.35255
11
5.32423
21
-3.35057
0
LINE
8
BLACK
6
CONTINUOUS
10
5.32423
20
-3.35057
11
5.32423
21
-3.35057
0
LINE
8
BLACK
6
CONTINUOUS
10
5.32423
20
-3.35057
11
5.32188
21
-3.35031
0
LINE
8
BLACK
6
CONTINUOUS
10
5.32188
20
-3.35031
11
5.29984
21
-3.35031
0
LINE
8
BLACK
6
CONTINUOUS
10
5.29984
20
-3.35031
11
5.29984
21
-3.37
0
LINE
8
BLACK
6
CONTINUOUS
10
5.25577
20
-3.35057
11
5.25577
21
-3.35057
0
LINE
8
BLACK
6
CONTINUOUS
10
5.25577
20
-3.35057
11
5.25047
21
-3.35255
0
LINE
8
BLACK
6
CONTINUOUS
10
5.25047
20
-3.35255
11
5.25047
21
-3.35255
0
LINE
8
BLACK
6
CONTINUOUS
10
5.25047
20
-3.35255
11
5.24594
21
-3.35594
0
LINE
8
BLACK
6
CONTINUOUS
10
5.24594
20
-3.35594
11
5.24594
21
-3.35594
0
LINE
8
BLACK
6
CONTINUOUS
10
5.24594
20
-3.35594
11
5.24255
21
-3.36047
0
LINE
8
BLACK
6
CONTINUOUS
10
5.24255
20
-3.36047
11
5.24255
21
-3.36047
0
LINE
8
BLACK
6
CONTINUOUS
10
5.24255
20
-3.36047
11
5.24057
21
-3.36577
0
LINE
8
BLACK
6
CONTINUOUS
10
5.24057
20
-3.36577
11
5.24057
21
-3.36577
0
LINE
8
BLACK
6
CONTINUOUS
10
5.24057
20
-3.36577
11
5.24031
21
-3.36812
0
LINE
8
BLACK
6
CONTINUOUS
10
5.24031
20
-3.36812
11
5.24031
21
-3.39016
0
LINE
8
BLACK
6
CONTINUOUS
10
5.24031
20
-3.39016
11
5.26
21
-3.39016
0
LINE
8
BLACK
6
CONTINUOUS
10
5.26
20
-3.39016
11
5.26
21
-3.37
0
LINE
8
BLACK
6
CONTINUOUS
10
5.26
20
-3.37
11
5.28016
21
-3.37
0
LINE
8
BLACK
6
CONTINUOUS
10
5.28016
20
-3.37
11
5.28016
21
-3.35031
0
LINE
8
BLACK
6
CONTINUOUS
10
5.28016
20
-3.35031
11
5.25812
21
-3.35031
0
LINE
8
BLACK
6
CONTINUOUS
10
5.25812
20
-3.35031
11
5.25577
21
-3.35057
0
CIRCLE
8
BLACK
10
5.4
20
-3.8
40
0.00688976
0
CIRCLE
8
BLACK
10
5.81
20
-3.2
40
0.00688976
0
CIRCLE
8
BLACK
10
5.91
20
-3.2
40
0.00688976
0
CIRCLE
8
BLACK
10
5.81
20
-3.3
40
0.00688976
0
CIRCLE
8
BLACK
10
5.91
20
-3.3
40
0.00688976
0
CIRCLE
8
BLACK
10
5.81
20
-3.4
40
0.00688976
0
CIRCLE
8
BLACK
10
5.91
20
-3.4
40
0.00688976
0
CIRCLE
8
BLACK
10
5.81
20
-3.5
40
0.00688976
0
CIRCLE
8
BLACK
10
5.91
20
-3.5
40
0.00688976
0
CIRCLE
8
BLACK
10
5.81
20
-3.6
40
0.00688976
0
CIRCLE
8
BLACK
10
5.91
20
-3.6
40
0.00688976
0
CIRCLE
8
BLACK
10
5.8
20
-3
40
0.00688976
0
CIRCLE
8
BLACK
10
5.4
20
-3
40
0.00688976
0
CIRCLE
8
BLACK
10
5.8
20
-3.8
40
0.00688976
0
CIRCLE
8
BLACK
10
5.29
20
-3.4
40
0.00688976
0
CIRCLE
8
BLACK
10
5.39
20
-3.4
40
0.00688976
0
CIRCLE
8
BLACK
10
5.29
20
-3.5
40
0.00688976
0
CIRCLE
8
BLACK
10
5.39
20
-3.5
40
0.00688976
0
CIRCLE
8
BLACK
10
5.29
20
-3.6
40
0.00688976
0
CIRCLE
8
BLACK
10
5.39
20
-3.6
40
0.00688976
0
CIRCLE
8
BLACK
10
5.53
20
-3.55
40
0.00787402
0
CIRCLE
8
BLACK
10
5.54
20
-3.25
40
0.00787402
0
CIRCLE
8
BLACK
10
5.3
20
-3.31
40
0.00787402
0
CIRCLE
8
BLACK
10
5.55
20
-3.7
40
0.00787402
0
CIRCLE
8
BLACK
10
5.34
20
-3.31
40
0.00787402
0
CIRCLE
8
BLACK
10
5.26
20
-3.13
40
0.00787402
0
CIRCLE
8
BLACK
10
5.54
20
-3.17
40
0.00787402
0
CIRCLE
8
BLACK
10
5.26
20
-3.31
40
0.00787402
0
CIRCLE
8
BLACK
10
5.54
20
-3.21
40
0.00787402
0
CIRCLE
8
BLACK
10
5.46
20
-3.62
40
0.00787402
  0
ENDSEC
  0
EOF
