  0
SECTION
  2
HEADER
  9
$ANGBASE
  50
0.0
  9
$ANGDIR
  70
1
  9
$MEASUREMENT
  70
0
  0
ENDSEC
  0
SECTION
  2
TABLES
  0
TABLE
  2
LTYPE
  70
4
  0
LTYPE
  5
40F
  2
CONTINUOUS
  70
0
  3
Solid line
  72
65
  73
0
  40
0.0
  0
LTYPE
  5
410
  2
DASHDOT
 70
0
  3
Dash Dot ____ _ ____ _
 72
65
 73
4
 40
2.0
 49
1.25
 49
-0.25
 49
0.25
 49
-0.25
  0
LTYPE
  5
411
  2
DASHED
 70
0
  3
Dashed __ __ __ __ __
 72
65
 73
2
 40
0.75
 49
0.5
 49
-0.25
  0
LTYPE
  5
43B
  2
DOTTED
 70
0
  3
Dotted .  .  .  .
 72
65
 73
2
 40
0.2
 49
0.0
 49
-0.2
  0
ENDTAB
  0
TABLE
  2
STYLE
  70
4
  0
STYLE
  2
KICAD
  70
0
  40
0
  41
1
  42
1
  50
0
  71
0
  3
isocp.shx
  0
STYLE
  2
KICADB
  70
0
  40
0
  41
1
  42
1
  50
0
  71
0
  3
isocp.shx
  0
STYLE
  2
KICADI
  70
0
  40
0
  41
1
  42
1
  50
15
  71
0
  3
isocp.shx
  0
STYLE
  2
KICADBI
  70
0
  40
0
  41
1
  42
1
  50
15
  71
0
  3
isocp.shx
  0
ENDTAB
  0
TABLE
  2
LAYER
  70
1
  0
LAYER
  2
BLACK
  70
0
  62
7
  6
CONTINUOUS
  0
ENDTAB
  0
ENDSEC
  0
SECTION
  2
ENTITIES
0
LINE
8
BLACK
6
CONTINUOUS
10
5.9877
20
-2.81081
11
5.98953
21
-2.81292
0
LINE
8
BLACK
6
CONTINUOUS
10
5.98953
20
-2.81292
11
5.98998
21
-2.81498
0
LINE
8
BLACK
6
CONTINUOUS
10
5.98998
20
-2.81498
11
5.98998
21
-3.98502
0
LINE
8
BLACK
6
CONTINUOUS
10
5.98998
20
-3.98502
11
5.98919
21
-3.9877
0
LINE
8
BLACK
6
CONTINUOUS
10
5.98919
20
-3.9877
11
5.98708
21
-3.98953
0
LINE
8
BLACK
6
CONTINUOUS
10
5.98708
20
-3.98953
11
5.98502
21
-3.98998
0
LINE
8
BLACK
6
CONTINUOUS
10
5.98502
20
-3.98998
11
5.21498
21
-3.98998
0
LINE
8
BLACK
6
CONTINUOUS
10
5.21498
20
-3.98998
11
5.2123
21
-3.98919
0
LINE
8
BLACK
6
CONTINUOUS
10
5.2123
20
-3.98919
11
5.21047
21
-3.98708
0
LINE
8
BLACK
6
CONTINUOUS
10
5.21047
20
-3.98708
11
5.21002
21
-3.98502
0
LINE
8
BLACK
6
CONTINUOUS
10
5.21002
20
-3.98502
11
5.21002
21
-3.4
0
LINE
8
BLACK
6
CONTINUOUS
10
5.21002
20
-3.4
11
5.21002
21
-2.81498
0
LINE
8
BLACK
6
CONTINUOUS
10
5.21002
20
-2.81498
11
5.21081
21
-2.8123
0
LINE
8
BLACK
6
CONTINUOUS
10
5.21081
20
-2.8123
11
5.21292
21
-2.81047
0
LINE
8
BLACK
6
CONTINUOUS
10
5.21292
20
-2.81047
11
5.21498
21
-2.81002
0
LINE
8
BLACK
6
CONTINUOUS
10
5.21498
20
-2.81002
11
5.98502
21
-2.81002
0
LINE
8
BLACK
6
CONTINUOUS
10
5.98502
20
-2.81002
11
5.9877
21
-2.81081
0
LINE
8
BLACK
6
CONTINUOUS
10
5.88
20
-3.58
11
5.86
21
-3.58
0
LINE
8
BLACK
6
CONTINUOUS
10
5.86
20
-3.58
11
5.86
21
-3.6
0
LINE
8
BLACK
6
CONTINUOUS
10
5.86
20
-3.6
11
5.88191
21
-3.6
0
LINE
8
BLACK
6
CONTINUOUS
10
5.88191
20
-3.6
11
5.88191
21
-3.6
0
LINE
8
BLACK
6
CONTINUOUS
10
5.88191
20
-3.6
11
5.88429
21
-3.59974
0
LINE
8
BLACK
6
CONTINUOUS
10
5.88429
20
-3.59974
11
5.88968
21
-3.59773
0
LINE
8
BLACK
6
CONTINUOUS
10
5.88968
20
-3.59773
11
5.88968
21
-3.59773
0
LINE
8
BLACK
6
CONTINUOUS
10
5.88968
20
-3.59773
11
5.89429
21
-3.59429
0
LINE
8
BLACK
6
CONTINUOUS
10
5.89429
20
-3.59429
11
5.89773
21
-3.58968
0
LINE
8
BLACK
6
CONTINUOUS
10
5.89773
20
-3.58968
11
5.89773
21
-3.58968
0
LINE
8
BLACK
6
CONTINUOUS
10
5.89773
20
-3.58968
11
5.89974
21
-3.5843
0
LINE
8
BLACK
6
CONTINUOUS
10
5.89974
20
-3.5843
11
5.9
21
-3.58191
0
LINE
8
BLACK
6
CONTINUOUS
10
5.9
20
-3.58191
11
5.9
21
-3.58191
0
LINE
8
BLACK
6
CONTINUOUS
10
5.9
20
-3.58191
11
5.9
21
-3.56
0
LINE
8
BLACK
6
CONTINUOUS
10
5.9
20
-3.56
11
5.88
21
-3.56
0
LINE
8
BLACK
6
CONTINUOUS
10
5.88
20
-3.56
11
5.88
21
-3.58
0
LINE
8
BLACK
6
CONTINUOUS
10
5.40487
20
-3.38502
11
5.40926
21
-3.38726
0
LINE
8
BLACK
6
CONTINUOUS
10
5.40926
20
-3.38726
11
5.41274
21
-3.39074
0
LINE
8
BLACK
6
CONTINUOUS
10
5.41274
20
-3.39074
11
5.41498
21
-3.39513
0
LINE
8
BLACK
6
CONTINUOUS
10
5.41498
20
-3.39513
11
5.41575
21
-3.4
0
LINE
8
BLACK
6
CONTINUOUS
10
5.41575
20
-3.4
11
5.41498
21
-3.40487
0
LINE
8
BLACK
6
CONTINUOUS
10
5.41498
20
-3.40487
11
5.41443
21
-3.40594
0
LINE
8
BLACK
6
CONTINUOUS
10
5.41443
20
-3.40594
11
5.55249
21
-3.544
0
LINE
8
BLACK
6
CONTINUOUS
10
5.55249
20
-3.544
11
5.72
21
-3.544
0
LINE
8
BLACK
6
CONTINUOUS
10
5.72
20
-3.544
11
5.72
21
-3.52
0
LINE
8
BLACK
6
CONTINUOUS
10
5.72
20
-3.52
11
5.78
21
-3.52
0
LINE
8
BLACK
6
CONTINUOUS
10
5.78
20
-3.52
11
5.78
21
-3.58
0
LINE
8
BLACK
6
CONTINUOUS
10
5.78
20
-3.58
11
5.72
21
-3.58
0
LINE
8
BLACK
6
CONTINUOUS
10
5.72
20
-3.58
11
5.72
21
-3.556
0
LINE
8
BLACK
6
CONTINUOUS
10
5.72
20
-3.556
11
5.55
21
-3.556
0
LINE
8
BLACK
6
CONTINUOUS
10
5.55
20
-3.556
11
5.54924
21
-3.5558
0
LINE
8
BLACK
6
CONTINUOUS
10
5.54924
20
-3.5558
11
5.54845
21
-3.5558
0
LINE
8
BLACK
6
CONTINUOUS
10
5.54845
20
-3.5558
11
5.54776
21
-3.5554
0
LINE
8
BLACK
6
CONTINUOUS
10
5.54776
20
-3.5554
11
5.547
21
-3.5552
0
LINE
8
BLACK
6
CONTINUOUS
10
5.547
20
-3.5552
11
5.54644
21
-3.55464
0
LINE
8
BLACK
6
CONTINUOUS
10
5.54644
20
-3.55464
11
5.54576
21
-3.55424
0
LINE
8
BLACK
6
CONTINUOUS
10
5.54576
20
-3.55424
11
5.40594
21
-3.41443
0
LINE
8
BLACK
6
CONTINUOUS
10
5.40594
20
-3.41443
11
5.40487
21
-3.41498
0
LINE
8
BLACK
6
CONTINUOUS
10
5.40487
20
-3.41498
11
5.4
21
-3.41575
0
LINE
8
BLACK
6
CONTINUOUS
10
5.4
20
-3.41575
11
5.39513
21
-3.41498
0
LINE
8
BLACK
6
CONTINUOUS
10
5.39513
20
-3.41498
11
5.39074
21
-3.41274
0
LINE
8
BLACK
6
CONTINUOUS
10
5.39074
20
-3.41274
11
5.38726
21
-3.40926
0
LINE
8
BLACK
6
CONTINUOUS
10
5.38726
20
-3.40926
11
5.38502
21
-3.40487
0
LINE
8
BLACK
6
CONTINUOUS
10
5.38502
20
-3.40487
11
5.38425
21
-3.4
0
LINE
8
BLACK
6
CONTINUOUS
10
5.38425
20
-3.4
11
5.38502
21
-3.39513
0
LINE
8
BLACK
6
CONTINUOUS
10
5.38502
20
-3.39513
11
5.38726
21
-3.39074
0
LINE
8
BLACK
6
CONTINUOUS
10
5.38726
20
-3.39074
11
5.39074
21
-3.38726
0
LINE
8
BLACK
6
CONTINUOUS
10
5.39074
20
-3.38726
11
5.39513
21
-3.38502
0
LINE
8
BLACK
6
CONTINUOUS
10
5.39513
20
-3.38502
11
5.4
21
-3.38425
0
LINE
8
BLACK
6
CONTINUOUS
10
5.4
20
-3.38425
11
5.40487
21
-3.38502
0
LINE
8
BLACK
6
CONTINUOUS
10
5.88
20
-3.48
11
5.86
21
-3.48
0
LINE
8
BLACK
6
CONTINUOUS
10
5.86
20
-3.48
11
5.86
21
-3.52
0
LINE
8
BLACK
6
CONTINUOUS
10
5.86
20
-3.52
11
5.88
21
-3.52
0
LINE
8
BLACK
6
CONTINUOUS
10
5.88
20
-3.52
11
5.88
21
-3.54
0
LINE
8
BLACK
6
CONTINUOUS
10
5.88
20
-3.54
11
5.9
21
-3.54
0
LINE
8
BLACK
6
CONTINUOUS
10
5.9
20
-3.54
11
5.9
21
-3.51809
0
LINE
8
BLACK
6
CONTINUOUS
10
5.9
20
-3.51809
11
5.9
21
-3.51809
0
LINE
8
BLACK
6
CONTINUOUS
10
5.9
20
-3.51809
11
5.89974
21
-3.5157
0
LINE
8
BLACK
6
CONTINUOUS
10
5.89974
20
-3.5157
11
5.89773
21
-3.51032
0
LINE
8
BLACK
6
CONTINUOUS
10
5.89773
20
-3.51032
11
5.89773
21
-3.51032
0
LINE
8
BLACK
6
CONTINUOUS
10
5.89773
20
-3.51032
11
5.89429
21
-3.50571
0
LINE
8
BLACK
6
CONTINUOUS
10
5.89429
20
-3.50571
11
5.89196
21
-3.50397
0
LINE
8
BLACK
6
CONTINUOUS
10
5.89196
20
-3.50397
11
5.89029
21
-3.50173
0
LINE
8
BLACK
6
CONTINUOUS
10
5.89029
20
-3.50173
11
5.89009
21
-3.49895
0
LINE
8
BLACK
6
CONTINUOUS
10
5.89009
20
-3.49895
11
5.89143
21
-3.49649
0
LINE
8
BLACK
6
CONTINUOUS
10
5.89143
20
-3.49649
11
5.89196
21
-3.49603
0
LINE
8
BLACK
6
CONTINUOUS
10
5.89196
20
-3.49603
11
5.89429
21
-3.49429
0
LINE
8
BLACK
6
CONTINUOUS
10
5.89429
20
-3.49429
11
5.89773
21
-3.48968
0
LINE
8
BLACK
6
CONTINUOUS
10
5.89773
20
-3.48968
11
5.89773
21
-3.48968
0
LINE
8
BLACK
6
CONTINUOUS
10
5.89773
20
-3.48968
11
5.89974
21
-3.48429
0
LINE
8
BLACK
6
CONTINUOUS
10
5.89974
20
-3.48429
11
5.9
21
-3.48191
0
LINE
8
BLACK
6
CONTINUOUS
10
5.9
20
-3.48191
11
5.9
21
-3.48191
0
LINE
8
BLACK
6
CONTINUOUS
10
5.9
20
-3.48191
11
5.9
21
-3.46
0
LINE
8
BLACK
6
CONTINUOUS
10
5.9
20
-3.46
11
5.88
21
-3.46
0
LINE
8
BLACK
6
CONTINUOUS
10
5.88
20
-3.46
11
5.88
21
-3.48
0
LINE
8
BLACK
6
CONTINUOUS
10
5.78
20
-3.48
11
5.72
21
-3.48
0
LINE
8
BLACK
6
CONTINUOUS
10
5.72
20
-3.48
11
5.72
21
-3.456
0
LINE
8
BLACK
6
CONTINUOUS
10
5.72
20
-3.456
11
5.5144
21
-3.456
0
LINE
8
BLACK
6
CONTINUOUS
10
5.5144
20
-3.456
11
5.51274
21
-3.45926
0
LINE
8
BLACK
6
CONTINUOUS
10
5.51274
20
-3.45926
11
5.50926
21
-3.46274
0
LINE
8
BLACK
6
CONTINUOUS
10
5.50926
20
-3.46274
11
5.50487
21
-3.46498
0
LINE
8
BLACK
6
CONTINUOUS
10
5.50487
20
-3.46498
11
5.5
21
-3.46575
0
LINE
8
BLACK
6
CONTINUOUS
10
5.5
20
-3.46575
11
5.49513
21
-3.46498
0
LINE
8
BLACK
6
CONTINUOUS
10
5.49513
20
-3.46498
11
5.49074
21
-3.46274
0
LINE
8
BLACK
6
CONTINUOUS
10
5.49074
20
-3.46274
11
5.48726
21
-3.45926
0
LINE
8
BLACK
6
CONTINUOUS
10
5.48726
20
-3.45926
11
5.48502
21
-3.45487
0
LINE
8
BLACK
6
CONTINUOUS
10
5.48502
20
-3.45487
11
5.48425
21
-3.45
0
LINE
8
BLACK
6
CONTINUOUS
10
5.48425
20
-3.45
11
5.48502
21
-3.44513
0
LINE
8
BLACK
6
CONTINUOUS
10
5.48502
20
-3.44513
11
5.48726
21
-3.44074
0
LINE
8
BLACK
6
CONTINUOUS
10
5.48726
20
-3.44074
11
5.49074
21
-3.43726
0
LINE
8
BLACK
6
CONTINUOUS
10
5.49074
20
-3.43726
11
5.49513
21
-3.43502
0
LINE
8
BLACK
6
CONTINUOUS
10
5.49513
20
-3.43502
11
5.5
21
-3.43425
0
LINE
8
BLACK
6
CONTINUOUS
10
5.5
20
-3.43425
11
5.50487
21
-3.43502
0
LINE
8
BLACK
6
CONTINUOUS
10
5.50487
20
-3.43502
11
5.50926
21
-3.43726
0
LINE
8
BLACK
6
CONTINUOUS
10
5.50926
20
-3.43726
11
5.51274
21
-3.44074
0
LINE
8
BLACK
6
CONTINUOUS
10
5.51274
20
-3.44074
11
5.5144
21
-3.444
0
LINE
8
BLACK
6
CONTINUOUS
10
5.5144
20
-3.444
11
5.72
21
-3.444
0
LINE
8
BLACK
6
CONTINUOUS
10
5.72
20
-3.444
11
5.72
21
-3.42
0
LINE
8
BLACK
6
CONTINUOUS
10
5.72
20
-3.42
11
5.78
21
-3.42
0
LINE
8
BLACK
6
CONTINUOUS
10
5.78
20
-3.42
11
5.78
21
-3.48
0
LINE
8
BLACK
6
CONTINUOUS
10
5.78
20
-3.38
11
5.72
21
-3.38
0
LINE
8
BLACK
6
CONTINUOUS
10
5.72
20
-3.38
11
5.72
21
-3.32
0
LINE
8
BLACK
6
CONTINUOUS
10
5.72
20
-3.32
11
5.78
21
-3.32
0
LINE
8
BLACK
6
CONTINUOUS
10
5.78
20
-3.32
11
5.78
21
-3.38
0
LINE
8
BLACK
6
CONTINUOUS
10
5.88
20
-3.38
11
5.82
21
-3.38
0
LINE
8
BLACK
6
CONTINUOUS
10
5.82
20
-3.38
11
5.82
21
-3.32
0
LINE
8
BLACK
6
CONTINUOUS
10
5.82
20
-3.32
11
5.88
21
-3.32
0
LINE
8
BLACK
6
CONTINUOUS
10
5.88
20
-3.32
11
5.88
21
-3.38
0
LINE
8
BLACK
6
CONTINUOUS
10
5.78
20
-3.28
11
5.72
21
-3.28
0
LINE
8
BLACK
6
CONTINUOUS
10
5.72
20
-3.28
11
5.72
21
-3.22
0
LINE
8
BLACK
6
CONTINUOUS
10
5.72
20
-3.22
11
5.78
21
-3.22
0
LINE
8
BLACK
6
CONTINUOUS
10
5.78
20
-3.22
11
5.78
21
-3.28
0
LINE
8
BLACK
6
CONTINUOUS
10
5.88
20
-3.28
11
5.82
21
-3.28
0
LINE
8
BLACK
6
CONTINUOUS
10
5.82
20
-3.28
11
5.82
21
-3.22
0
LINE
8
BLACK
6
CONTINUOUS
10
5.82
20
-3.22
11
5.88
21
-3.22
0
LINE
8
BLACK
6
CONTINUOUS
10
5.88
20
-3.22
11
5.88
21
-3.28
0
LINE
8
BLACK
6
CONTINUOUS
10
5.36482
20
-3.40748
11
5.36574
21
-3.41031
0
LINE
8
BLACK
6
CONTINUOUS
10
5.36574
20
-3.41031
11
5.36714
21
-3.41463
0
LINE
8
BLACK
6
CONTINUOUS
10
5.36714
20
-3.41463
11
5.36826
21
-3.41656
0
LINE
8
BLACK
6
CONTINUOUS
10
5.36826
20
-3.41656
11
5.3709
21
-3.42114
0
LINE
8
BLACK
6
CONTINUOUS
10
5.3709
20
-3.42114
11
5.3709
21
-3.42114
0
LINE
8
BLACK
6
CONTINUOUS
10
5.3709
20
-3.42114
11
5.37593
21
-3.42673
0
LINE
8
BLACK
6
CONTINUOUS
10
5.37593
20
-3.42673
11
5.37593
21
-3.42673
0
LINE
8
BLACK
6
CONTINUOUS
10
5.37593
20
-3.42673
11
5.38202
21
-3.43115
0
LINE
8
BLACK
6
CONTINUOUS
10
5.38202
20
-3.43115
11
5.38889
21
-3.4342
0
LINE
8
BLACK
6
CONTINUOUS
10
5.38889
20
-3.4342
11
5.39624
21
-3.43577
0
LINE
8
BLACK
6
CONTINUOUS
10
5.39624
20
-3.43577
11
5.39692
21
-3.43577
0
LINE
8
BLACK
6
CONTINUOUS
10
5.39692
20
-3.43577
11
5.3996
21
-3.43656
0
LINE
8
BLACK
6
CONTINUOUS
10
5.3996
20
-3.43656
11
5.40042
21
-3.43722
0
LINE
8
BLACK
6
CONTINUOUS
10
5.40042
20
-3.43722
11
5.53099
21
-3.56779
0
LINE
8
BLACK
6
CONTINUOUS
10
5.53099
20
-3.56779
11
5.53109
21
-3.5679
0
LINE
8
BLACK
6
CONTINUOUS
10
5.53109
20
-3.5679
11
5.53262
21
-3.56962
0
LINE
8
BLACK
6
CONTINUOUS
10
5.53262
20
-3.56962
11
5.53262
21
-3.56962
0
LINE
8
BLACK
6
CONTINUOUS
10
5.53262
20
-3.56962
11
5.53451
21
-3.57093
0
LINE
8
BLACK
6
CONTINUOUS
10
5.53451
20
-3.57093
11
5.53463
21
-3.57101
0
LINE
8
BLACK
6
CONTINUOUS
10
5.53463
20
-3.57101
11
5.53644
21
-3.57243
0
LINE
8
BLACK
6
CONTINUOUS
10
5.53644
20
-3.57243
11
5.53644
21
-3.57243
0
LINE
8
BLACK
6
CONTINUOUS
10
5.53644
20
-3.57243
11
5.53644
21
-3.57243
0
LINE
8
BLACK
6
CONTINUOUS
10
5.53644
20
-3.57243
11
5.53675
21
-3.57257
0
LINE
8
BLACK
6
CONTINUOUS
10
5.53675
20
-3.57257
11
5.53754
21
-3.57301
0
LINE
8
BLACK
6
CONTINUOUS
10
5.53754
20
-3.57301
11
5.53782
21
-3.57321
0
LINE
8
BLACK
6
CONTINUOUS
10
5.53782
20
-3.57321
11
5.53997
21
-3.57402
0
LINE
8
BLACK
6
CONTINUOUS
10
5.53997
20
-3.57402
11
5.54011
21
-3.57408
0
LINE
8
BLACK
6
CONTINUOUS
10
5.54011
20
-3.57408
11
5.54182
21
-3.57485
0
LINE
8
BLACK
6
CONTINUOUS
10
5.54182
20
-3.57485
11
5.5422
21
-3.57502
0
LINE
8
BLACK
6
CONTINUOUS
10
5.5422
20
-3.57502
11
5.5422
21
-3.57502
0
LINE
8
BLACK
6
CONTINUOUS
10
5.5422
20
-3.57502
11
5.54254
21
-3.57509
0
LINE
8
BLACK
6
CONTINUOUS
10
5.54254
20
-3.57509
11
5.54341
21
-3.57533
0
LINE
8
BLACK
6
CONTINUOUS
10
5.54341
20
-3.57533
11
5.54373
21
-3.57545
0
LINE
8
BLACK
6
CONTINUOUS
10
5.54373
20
-3.57545
11
5.54601
21
-3.57573
0
LINE
8
BLACK
6
CONTINUOUS
10
5.54601
20
-3.57573
11
5.54616
21
-3.57575
0
LINE
8
BLACK
6
CONTINUOUS
10
5.54616
20
-3.57575
11
5.54842
21
-3.57616
0
LINE
8
BLACK
6
CONTINUOUS
10
5.54842
20
-3.57616
11
5.55071
21
-3.57602
0
LINE
8
BLACK
6
CONTINUOUS
10
5.55071
20
-3.57602
11
5.55086
21
-3.57602
0
LINE
8
BLACK
6
CONTINUOUS
10
5.55086
20
-3.57602
11
5.69502
21
-3.57602
0
LINE
8
BLACK
6
CONTINUOUS
10
5.69502
20
-3.57602
11
5.6977
21
-3.57681
0
LINE
8
BLACK
6
CONTINUOUS
10
5.6977
20
-3.57681
11
5.69953
21
-3.57892
0
LINE
8
BLACK
6
CONTINUOUS
10
5.69953
20
-3.57892
11
5.69998
21
-3.58098
0
LINE
8
BLACK
6
CONTINUOUS
10
5.69998
20
-3.58098
11
5.69998
21
-3.58192
0
LINE
8
BLACK
6
CONTINUOUS
10
5.69998
20
-3.58192
11
5.70024
21
-3.5843
0
LINE
8
BLACK
6
CONTINUOUS
10
5.70024
20
-3.5843
11
5.70024
21
-3.5843
0
LINE
8
BLACK
6
CONTINUOUS
10
5.70024
20
-3.5843
11
5.70225
21
-3.58969
0
LINE
8
BLACK
6
CONTINUOUS
10
5.70225
20
-3.58969
11
5.70225
21
-3.58969
0
LINE
8
BLACK
6
CONTINUOUS
10
5.70225
20
-3.58969
11
5.7057
21
-3.5943
0
LINE
8
BLACK
6
CONTINUOUS
10
5.7057
20
-3.5943
11
5.71031
21
-3.59775
0
LINE
8
BLACK
6
CONTINUOUS
10
5.71031
20
-3.59775
11
5.71031
21
-3.59775
0
LINE
8
BLACK
6
CONTINUOUS
10
5.71031
20
-3.59775
11
5.71031
21
-3.59775
0
LINE
8
BLACK
6
CONTINUOUS
10
5.71031
20
-3.59775
11
5.71263
21
-3.59862
0
LINE
8
BLACK
6
CONTINUOUS
10
5.71263
20
-3.59862
11
5.7157
21
-3.59976
0
LINE
8
BLACK
6
CONTINUOUS
10
5.7157
20
-3.59976
11
5.7157
21
-3.59976
0
LINE
8
BLACK
6
CONTINUOUS
10
5.7157
20
-3.59976
11
5.71808
21
-3.60002
0
LINE
8
BLACK
6
CONTINUOUS
10
5.71808
20
-3.60002
11
5.71808
21
-3.60002
0
LINE
8
BLACK
6
CONTINUOUS
10
5.71808
20
-3.60002
11
5.71809
21
-3.60002
0
LINE
8
BLACK
6
CONTINUOUS
10
5.71809
20
-3.60002
11
5.71809
21
-3.60002
0
LINE
8
BLACK
6
CONTINUOUS
10
5.71809
20
-3.60002
11
5.78191
21
-3.60002
0
LINE
8
BLACK
6
CONTINUOUS
10
5.78191
20
-3.60002
11
5.78191
21
-3.60002
0
LINE
8
BLACK
6
CONTINUOUS
10
5.78191
20
-3.60002
11
5.78192
21
-3.60002
0
LINE
8
BLACK
6
CONTINUOUS
10
5.78192
20
-3.60002
11
5.78192
21
-3.60002
0
LINE
8
BLACK
6
CONTINUOUS
10
5.78192
20
-3.60002
11
5.7843
21
-3.59976
0
LINE
8
BLACK
6
CONTINUOUS
10
5.7843
20
-3.59976
11
5.7843
21
-3.59976
0
LINE
8
BLACK
6
CONTINUOUS
10
5.7843
20
-3.59976
11
5.7843
21
-3.59976
0
LINE
8
BLACK
6
CONTINUOUS
10
5.7843
20
-3.59976
11
5.78969
21
-3.59775
0
LINE
8
BLACK
6
CONTINUOUS
10
5.78969
20
-3.59775
11
5.78972
21
-3.59773
0
LINE
8
BLACK
6
CONTINUOUS
10
5.78972
20
-3.59773
11
5.7943
21
-3.5943
0
LINE
8
BLACK
6
CONTINUOUS
10
5.7943
20
-3.5943
11
5.79604
21
-3.59198
0
LINE
8
BLACK
6
CONTINUOUS
10
5.79604
20
-3.59198
11
5.79828
21
-3.5903
0
LINE
8
BLACK
6
CONTINUOUS
10
5.79828
20
-3.5903
11
5.80107
21
-3.5901
0
LINE
8
BLACK
6
CONTINUOUS
10
5.80107
20
-3.5901
11
5.80352
21
-3.59144
0
LINE
8
BLACK
6
CONTINUOUS
10
5.80352
20
-3.59144
11
5.80398
21
-3.59198
0
LINE
8
BLACK
6
CONTINUOUS
10
5.80398
20
-3.59198
11
5.80571
21
-3.59429
0
LINE
8
BLACK
6
CONTINUOUS
10
5.80571
20
-3.59429
11
5.81032
21
-3.59773
0
LINE
8
BLACK
6
CONTINUOUS
10
5.81032
20
-3.59773
11
5.8157
21
-3.59974
0
LINE
8
BLACK
6
CONTINUOUS
10
5.8157
20
-3.59974
11
5.81809
21
-3.6
0
LINE
8
BLACK
6
CONTINUOUS
10
5.81809
20
-3.6
11
5.81809
21
-3.6
0
LINE
8
BLACK
6
CONTINUOUS
10
5.81809
20
-3.6
11
5.84
21
-3.6
0
LINE
8
BLACK
6
CONTINUOUS
10
5.84
20
-3.6
11
5.84
21
-3.58
0
LINE
8
BLACK
6
CONTINUOUS
10
5.84
20
-3.58
11
5.82
21
-3.58
0
LINE
8
BLACK
6
CONTINUOUS
10
5.82
20
-3.58
11
5.82
21
-3.52
0
LINE
8
BLACK
6
CONTINUOUS
10
5.82
20
-3.52
11
5.84
21
-3.52
0
LINE
8
BLACK
6
CONTINUOUS
10
5.84
20
-3.52
11
5.84
21
-3.48
0
LINE
8
BLACK
6
CONTINUOUS
10
5.84
20
-3.48
11
5.82
21
-3.48
0
LINE
8
BLACK
6
CONTINUOUS
10
5.82
20
-3.48
11
5.82
21
-3.42
0
LINE
8
BLACK
6
CONTINUOUS
10
5.82
20
-3.42
11
5.88
21
-3.42
0
LINE
8
BLACK
6
CONTINUOUS
10
5.88
20
-3.42
11
5.88
21
-3.44
0
LINE
8
BLACK
6
CONTINUOUS
10
5.88
20
-3.44
11
5.9
21
-3.44
0
LINE
8
BLACK
6
CONTINUOUS
10
5.9
20
-3.44
11
5.9
21
-3.41809
0
LINE
8
BLACK
6
CONTINUOUS
10
5.9
20
-3.41809
11
5.9
21
-3.41809
0
LINE
8
BLACK
6
CONTINUOUS
10
5.9
20
-3.41809
11
5.89974
21
-3.4157
0
LINE
8
BLACK
6
CONTINUOUS
10
5.89974
20
-3.4157
11
5.89773
21
-3.41032
0
LINE
8
BLACK
6
CONTINUOUS
10
5.89773
20
-3.41032
11
5.89773
21
-3.41032
0
LINE
8
BLACK
6
CONTINUOUS
10
5.89773
20
-3.41032
11
5.89429
21
-3.40571
0
LINE
8
BLACK
6
CONTINUOUS
10
5.89429
20
-3.40571
11
5.89198
21
-3.40398
0
LINE
8
BLACK
6
CONTINUOUS
10
5.89198
20
-3.40398
11
5.8903
21
-3.40175
0
LINE
8
BLACK
6
CONTINUOUS
10
5.8903
20
-3.40175
11
5.8901
21
-3.39896
0
LINE
8
BLACK
6
CONTINUOUS
10
5.8901
20
-3.39896
11
5.89144
21
-3.3965
0
LINE
8
BLACK
6
CONTINUOUS
10
5.89144
20
-3.3965
11
5.89198
21
-3.39604
0
LINE
8
BLACK
6
CONTINUOUS
10
5.89198
20
-3.39604
11
5.8943
21
-3.3943
0
LINE
8
BLACK
6
CONTINUOUS
10
5.8943
20
-3.3943
11
5.89775
21
-3.38969
0
LINE
8
BLACK
6
CONTINUOUS
10
5.89775
20
-3.38969
11
5.89775
21
-3.38969
0
LINE
8
BLACK
6
CONTINUOUS
10
5.89775
20
-3.38969
11
5.89775
21
-3.38969
0
LINE
8
BLACK
6
CONTINUOUS
10
5.89775
20
-3.38969
11
5.89976
21
-3.3843
0
LINE
8
BLACK
6
CONTINUOUS
10
5.89976
20
-3.3843
11
5.90002
21
-3.38191
0
LINE
8
BLACK
6
CONTINUOUS
10
5.90002
20
-3.38191
11
5.90002
21
-3.31809
0
LINE
8
BLACK
6
CONTINUOUS
10
5.90002
20
-3.31809
11
5.9
21
-3.3179
0
LINE
8
BLACK
6
CONTINUOUS
10
5.9
20
-3.3179
11
5.89976
21
-3.3157
0
LINE
8
BLACK
6
CONTINUOUS
10
5.89976
20
-3.3157
11
5.89976
21
-3.3157
0
LINE
8
BLACK
6
CONTINUOUS
10
5.89976
20
-3.3157
11
5.89775
21
-3.31031
0
LINE
8
BLACK
6
CONTINUOUS
10
5.89775
20
-3.31031
11
5.89775
21
-3.31031
0
LINE
8
BLACK
6
CONTINUOUS
10
5.89775
20
-3.31031
11
5.8943
21
-3.3057
0
LINE
8
BLACK
6
CONTINUOUS
10
5.8943
20
-3.3057
11
5.89199
21
-3.30397
0
LINE
8
BLACK
6
CONTINUOUS
10
5.89199
20
-3.30397
11
5.89032
21
-3.30173
0
LINE
8
BLACK
6
CONTINUOUS
10
5.89032
20
-3.30173
11
5.89012
21
-3.29895
0
LINE
8
BLACK
6
CONTINUOUS
10
5.89012
20
-3.29895
11
5.89146
21
-3.29649
0
LINE
8
BLACK
6
CONTINUOUS
10
5.89146
20
-3.29649
11
5.89199
21
-3.29603
0
LINE
8
BLACK
6
CONTINUOUS
10
5.89199
20
-3.29603
11
5.8943
21
-3.2943
0
LINE
8
BLACK
6
CONTINUOUS
10
5.8943
20
-3.2943
11
5.89775
21
-3.28969
0
LINE
8
BLACK
6
CONTINUOUS
10
5.89775
20
-3.28969
11
5.89775
21
-3.28969
0
LINE
8
BLACK
6
CONTINUOUS
10
5.89775
20
-3.28969
11
5.89775
21
-3.28969
0
LINE
8
BLACK
6
CONTINUOUS
10
5.89775
20
-3.28969
11
5.89976
21
-3.2843
0
LINE
8
BLACK
6
CONTINUOUS
10
5.89976
20
-3.2843
11
5.90002
21
-3.28191
0
LINE
8
BLACK
6
CONTINUOUS
10
5.90002
20
-3.28191
11
5.90002
21
-3.21809
0
LINE
8
BLACK
6
CONTINUOUS
10
5.90002
20
-3.21809
11
5.9
21
-3.2179
0
LINE
8
BLACK
6
CONTINUOUS
10
5.9
20
-3.2179
11
5.89976
21
-3.2157
0
LINE
8
BLACK
6
CONTINUOUS
10
5.89976
20
-3.2157
11
5.89976
21
-3.2157
0
LINE
8
BLACK
6
CONTINUOUS
10
5.89976
20
-3.2157
11
5.89775
21
-3.21031
0
LINE
8
BLACK
6
CONTINUOUS
10
5.89775
20
-3.21031
11
5.89775
21
-3.21031
0
LINE
8
BLACK
6
CONTINUOUS
10
5.89775
20
-3.21031
11
5.8943
21
-3.2057
0
LINE
8
BLACK
6
CONTINUOUS
10
5.8943
20
-3.2057
11
5.88969
21
-3.20225
0
LINE
8
BLACK
6
CONTINUOUS
10
5.88969
20
-3.20225
11
5.88969
21
-3.20225
0
LINE
8
BLACK
6
CONTINUOUS
10
5.88969
20
-3.20225
11
5.8843
21
-3.20024
0
LINE
8
BLACK
6
CONTINUOUS
10
5.8843
20
-3.20024
11
5.8843
21
-3.20024
0
LINE
8
BLACK
6
CONTINUOUS
10
5.8843
20
-3.20024
11
5.88192
21
-3.19998
0
LINE
8
BLACK
6
CONTINUOUS
10
5.88192
20
-3.19998
11
5.88191
21
-3.19998
0
LINE
8
BLACK
6
CONTINUOUS
10
5.88191
20
-3.19998
11
5.81809
21
-3.19998
0
LINE
8
BLACK
6
CONTINUOUS
10
5.81809
20
-3.19998
11
5.81808
21
-3.19998
0
LINE
8
BLACK
6
CONTINUOUS
10
5.81808
20
-3.19998
11
5.8157
21
-3.20024
0
LINE
8
BLACK
6
CONTINUOUS
10
5.8157
20
-3.20024
11
5.8157
21
-3.20024
0
LINE
8
BLACK
6
CONTINUOUS
10
5.8157
20
-3.20024
11
5.81031
21
-3.20225
0
LINE
8
BLACK
6
CONTINUOUS
10
5.81031
20
-3.20225
11
5.81031
21
-3.20225
0
LINE
8
BLACK
6
CONTINUOUS
10
5.81031
20
-3.20225
11
5.8057
21
-3.2057
0
LINE
8
BLACK
6
CONTINUOUS
10
5.8057
20
-3.2057
11
5.80397
21
-3.20801
0
LINE
8
BLACK
6
CONTINUOUS
10
5.80397
20
-3.20801
11
5.80173
21
-3.20968
0
LINE
8
BLACK
6
CONTINUOUS
10
5.80173
20
-3.20968
11
5.79895
21
-3.20988
0
LINE
8
BLACK
6
CONTINUOUS
10
5.79895
20
-3.20988
11
5.79649
21
-3.20854
0
LINE
8
BLACK
6
CONTINUOUS
10
5.79649
20
-3.20854
11
5.79603
21
-3.20801
0
LINE
8
BLACK
6
CONTINUOUS
10
5.79603
20
-3.20801
11
5.7943
21
-3.2057
0
LINE
8
BLACK
6
CONTINUOUS
10
5.7943
20
-3.2057
11
5.78969
21
-3.20225
0
LINE
8
BLACK
6
CONTINUOUS
10
5.78969
20
-3.20225
11
5.78969
21
-3.20225
0
LINE
8
BLACK
6
CONTINUOUS
10
5.78969
20
-3.20225
11
5.7843
21
-3.20024
0
LINE
8
BLACK
6
CONTINUOUS
10
5.7843
20
-3.20024
11
5.7843
21
-3.20024
0
LINE
8
BLACK
6
CONTINUOUS
10
5.7843
20
-3.20024
11
5.78192
21
-3.19998
0
LINE
8
BLACK
6
CONTINUOUS
10
5.78192
20
-3.19998
11
5.78191
21
-3.19998
0
LINE
8
BLACK
6
CONTINUOUS
10
5.78191
20
-3.19998
11
5.71809
21
-3.19998
0
LINE
8
BLACK
6
CONTINUOUS
10
5.71809
20
-3.19998
11
5.71808
21
-3.19998
0
LINE
8
BLACK
6
CONTINUOUS
10
5.71808
20
-3.19998
11
5.7157
21
-3.20024
0
LINE
8
BLACK
6
CONTINUOUS
10
5.7157
20
-3.20024
11
5.7157
21
-3.20024
0
LINE
8
BLACK
6
CONTINUOUS
10
5.7157
20
-3.20024
11
5.71031
21
-3.20225
0
LINE
8
BLACK
6
CONTINUOUS
10
5.71031
20
-3.20225
11
5.71031
21
-3.20225
0
LINE
8
BLACK
6
CONTINUOUS
10
5.71031
20
-3.20225
11
5.7057
21
-3.2057
0
LINE
8
BLACK
6
CONTINUOUS
10
5.7057
20
-3.2057
11
5.70225
21
-3.21031
0
LINE
8
BLACK
6
CONTINUOUS
10
5.70225
20
-3.21031
11
5.70225
21
-3.21031
0
LINE
8
BLACK
6
CONTINUOUS
10
5.70225
20
-3.21031
11
5.70024
21
-3.2157
0
LINE
8
BLACK
6
CONTINUOUS
10
5.70024
20
-3.2157
11
5.70024
21
-3.2157
0
LINE
8
BLACK
6
CONTINUOUS
10
5.70024
20
-3.2157
11
5.69998
21
-3.21808
0
LINE
8
BLACK
6
CONTINUOUS
10
5.69998
20
-3.21808
11
5.69998
21
-3.28192
0
LINE
8
BLACK
6
CONTINUOUS
10
5.69998
20
-3.28192
11
5.70024
21
-3.2843
0
LINE
8
BLACK
6
CONTINUOUS
10
5.70024
20
-3.2843
11
5.70024
21
-3.2843
0
LINE
8
BLACK
6
CONTINUOUS
10
5.70024
20
-3.2843
11
5.70225
21
-3.28969
0
LINE
8
BLACK
6
CONTINUOUS
10
5.70225
20
-3.28969
11
5.70225
21
-3.28969
0
LINE
8
BLACK
6
CONTINUOUS
10
5.70225
20
-3.28969
11
5.7057
21
-3.2943
0
LINE
8
BLACK
6
CONTINUOUS
10
5.7057
20
-3.2943
11
5.70801
21
-3.29603
0
LINE
8
BLACK
6
CONTINUOUS
10
5.70801
20
-3.29603
11
5.70968
21
-3.29827
0
LINE
8
BLACK
6
CONTINUOUS
10
5.70968
20
-3.29827
11
5.70988
21
-3.30105
0
LINE
8
BLACK
6
CONTINUOUS
10
5.70988
20
-3.30105
11
5.70854
21
-3.30351
0
LINE
8
BLACK
6
CONTINUOUS
10
5.70854
20
-3.30351
11
5.70801
21
-3.30397
0
LINE
8
BLACK
6
CONTINUOUS
10
5.70801
20
-3.30397
11
5.7057
21
-3.3057
0
LINE
8
BLACK
6
CONTINUOUS
10
5.7057
20
-3.3057
11
5.70225
21
-3.31031
0
LINE
8
BLACK
6
CONTINUOUS
10
5.70225
20
-3.31031
11
5.70225
21
-3.31031
0
LINE
8
BLACK
6
CONTINUOUS
10
5.70225
20
-3.31031
11
5.70024
21
-3.3157
0
LINE
8
BLACK
6
CONTINUOUS
10
5.70024
20
-3.3157
11
5.70024
21
-3.3157
0
LINE
8
BLACK
6
CONTINUOUS
10
5.70024
20
-3.3157
11
5.69998
21
-3.31808
0
LINE
8
BLACK
6
CONTINUOUS
10
5.69998
20
-3.31808
11
5.69998
21
-3.38192
0
LINE
8
BLACK
6
CONTINUOUS
10
5.69998
20
-3.38192
11
5.70024
21
-3.3843
0
LINE
8
BLACK
6
CONTINUOUS
10
5.70024
20
-3.3843
11
5.70024
21
-3.3843
0
LINE
8
BLACK
6
CONTINUOUS
10
5.70024
20
-3.3843
11
5.70225
21
-3.38969
0
LINE
8
BLACK
6
CONTINUOUS
10
5.70225
20
-3.38969
11
5.70225
21
-3.38969
0
LINE
8
BLACK
6
CONTINUOUS
10
5.70225
20
-3.38969
11
5.7057
21
-3.3943
0
LINE
8
BLACK
6
CONTINUOUS
10
5.7057
20
-3.3943
11
5.70801
21
-3.39603
0
LINE
8
BLACK
6
CONTINUOUS
10
5.70801
20
-3.39603
11
5.70968
21
-3.39827
0
LINE
8
BLACK
6
CONTINUOUS
10
5.70968
20
-3.39827
11
5.70988
21
-3.40105
0
LINE
8
BLACK
6
CONTINUOUS
10
5.70988
20
-3.40105
11
5.70854
21
-3.40351
0
LINE
8
BLACK
6
CONTINUOUS
10
5.70854
20
-3.40351
11
5.70801
21
-3.40397
0
LINE
8
BLACK
6
CONTINUOUS
10
5.70801
20
-3.40397
11
5.7057
21
-3.4057
0
LINE
8
BLACK
6
CONTINUOUS
10
5.7057
20
-3.4057
11
5.70225
21
-3.41031
0
LINE
8
BLACK
6
CONTINUOUS
10
5.70225
20
-3.41031
11
5.70225
21
-3.41031
0
LINE
8
BLACK
6
CONTINUOUS
10
5.70225
20
-3.41031
11
5.70024
21
-3.4157
0
LINE
8
BLACK
6
CONTINUOUS
10
5.70024
20
-3.4157
11
5.70024
21
-3.4157
0
LINE
8
BLACK
6
CONTINUOUS
10
5.70024
20
-3.4157
11
5.69998
21
-3.41808
0
LINE
8
BLACK
6
CONTINUOUS
10
5.69998
20
-3.41808
11
5.69998
21
-3.41902
0
LINE
8
BLACK
6
CONTINUOUS
10
5.69998
20
-3.41902
11
5.69919
21
-3.4217
0
LINE
8
BLACK
6
CONTINUOUS
10
5.69919
20
-3.4217
11
5.69708
21
-3.42353
0
LINE
8
BLACK
6
CONTINUOUS
10
5.69708
20
-3.42353
11
5.69502
21
-3.42398
0
LINE
8
BLACK
6
CONTINUOUS
10
5.69502
20
-3.42398
11
5.52665
21
-3.42398
0
LINE
8
BLACK
6
CONTINUOUS
10
5.52665
20
-3.42398
11
5.52397
21
-3.42319
0
LINE
8
BLACK
6
CONTINUOUS
10
5.52397
20
-3.42319
11
5.52373
21
-3.42303
0
LINE
8
BLACK
6
CONTINUOUS
10
5.52373
20
-3.42303
11
5.51798
21
-3.41885
0
LINE
8
BLACK
6
CONTINUOUS
10
5.51798
20
-3.41885
11
5.51111
21
-3.4158
0
LINE
8
BLACK
6
CONTINUOUS
10
5.51111
20
-3.4158
11
5.50376
21
-3.41423
0
LINE
8
BLACK
6
CONTINUOUS
10
5.50376
20
-3.41423
11
5.49624
21
-3.41423
0
LINE
8
BLACK
6
CONTINUOUS
10
5.49624
20
-3.41423
11
5.48889
21
-3.4158
0
LINE
8
BLACK
6
CONTINUOUS
10
5.48889
20
-3.4158
11
5.48202
21
-3.41885
0
LINE
8
BLACK
6
CONTINUOUS
10
5.48202
20
-3.41885
11
5.47593
21
-3.42327
0
LINE
8
BLACK
6
CONTINUOUS
10
5.47593
20
-3.42327
11
5.47192
21
-3.42774
0
LINE
8
BLACK
6
CONTINUOUS
10
5.47192
20
-3.42774
11
5.46954
21
-3.4292
0
LINE
8
BLACK
6
CONTINUOUS
10
5.46954
20
-3.4292
11
5.46674
21
-3.42915
0
LINE
8
BLACK
6
CONTINUOUS
10
5.46674
20
-3.42915
11
5.46472
21
-3.42792
0
LINE
8
BLACK
6
CONTINUOUS
10
5.46472
20
-3.42792
11
5.45143
21
-3.41463
0
LINE
8
BLACK
6
CONTINUOUS
10
5.45143
20
-3.41463
11
5.43711
21
-3.40031
0
LINE
8
BLACK
6
CONTINUOUS
10
5.43711
20
-3.40031
11
5.43577
21
-3.39786
0
LINE
8
BLACK
6
CONTINUOUS
10
5.43577
20
-3.39786
11
5.43568
21
-3.39732
0
LINE
8
BLACK
6
CONTINUOUS
10
5.43568
20
-3.39732
11
5.4356
21
-3.3965
0
LINE
8
BLACK
6
CONTINUOUS
10
5.4356
20
-3.3965
11
5.43518
21
-3.39252
0
LINE
8
BLACK
6
CONTINUOUS
10
5.43518
20
-3.39252
11
5.43286
21
-3.38537
0
LINE
8
BLACK
6
CONTINUOUS
10
5.43286
20
-3.38537
11
5.4291
21
-3.37886
0
LINE
8
BLACK
6
CONTINUOUS
10
5.4291
20
-3.37886
11
5.4291
21
-3.37886
0
LINE
8
BLACK
6
CONTINUOUS
10
5.4291
20
-3.37886
11
5.4291
21
-3.37886
0
LINE
8
BLACK
6
CONTINUOUS
10
5.4291
20
-3.37886
11
5.42407
21
-3.37327
0
LINE
8
BLACK
6
CONTINUOUS
10
5.42407
20
-3.37327
11
5.41798
21
-3.36885
0
LINE
8
BLACK
6
CONTINUOUS
10
5.41798
20
-3.36885
11
5.41111
21
-3.3658
0
LINE
8
BLACK
6
CONTINUOUS
10
5.41111
20
-3.3658
11
5.40376
21
-3.36423
0
LINE
8
BLACK
6
CONTINUOUS
10
5.40376
20
-3.36423
11
5.39624
21
-3.36423
0
LINE
8
BLACK
6
CONTINUOUS
10
5.39624
20
-3.36423
11
5.38889
21
-3.3658
0
LINE
8
BLACK
6
CONTINUOUS
10
5.38889
20
-3.3658
11
5.38202
21
-3.36885
0
LINE
8
BLACK
6
CONTINUOUS
10
5.38202
20
-3.36885
11
5.37593
21
-3.37327
0
LINE
8
BLACK
6
CONTINUOUS
10
5.37593
20
-3.37327
11
5.3709
21
-3.37886
0
LINE
8
BLACK
6
CONTINUOUS
10
5.3709
20
-3.37886
11
5.3709
21
-3.37886
0
LINE
8
BLACK
6
CONTINUOUS
10
5.3709
20
-3.37886
11
5.36714
21
-3.38537
0
LINE
8
BLACK
6
CONTINUOUS
10
5.36714
20
-3.38537
11
5.36714
21
-3.38537
0
LINE
8
BLACK
6
CONTINUOUS
10
5.36714
20
-3.38537
11
5.36482
21
-3.39252
0
LINE
8
BLACK
6
CONTINUOUS
10
5.36482
20
-3.39252
11
5.36404
21
-3.4
0
LINE
8
BLACK
6
CONTINUOUS
10
5.36404
20
-3.4
11
5.36482
21
-3.40748
0
CIRCLE
8
BLACK
10
5.8
20
-3.8
40
0.00688976
0
CIRCLE
8
BLACK
10
5.4
20
-3
40
0.00688976
0
CIRCLE
8
BLACK
10
5.8
20
-3
40
0.00688976
0
CIRCLE
8
BLACK
10
5.75
20
-3.25
40
0.00688976
0
CIRCLE
8
BLACK
10
5.85
20
-3.25
40
0.00688976
0
CIRCLE
8
BLACK
10
5.75
20
-3.35
40
0.00688976
0
CIRCLE
8
BLACK
10
5.85
20
-3.35
40
0.00688976
0
CIRCLE
8
BLACK
10
5.75
20
-3.45
40
0.00688976
0
CIRCLE
8
BLACK
10
5.85
20
-3.45
40
0.00688976
0
CIRCLE
8
BLACK
10
5.75
20
-3.55
40
0.00688976
0
CIRCLE
8
BLACK
10
5.85
20
-3.55
40
0.00688976
0
CIRCLE
8
BLACK
10
5.4
20
-3.8
40
0.00688976
0
CIRCLE
8
BLACK
10
5.44
20
-3.6
40
0.00787402
0
CIRCLE
8
BLACK
10
5.26
20
-3.34
40
0.00787402
0
CIRCLE
8
BLACK
10
5.57
20
-3.73
40
0.00787402
0
CIRCLE
8
BLACK
10
5.62
20
-3.73
40
0.00787402
0
CIRCLE
8
BLACK
10
5.26
20
-3.19
40
0.00787402
0
CIRCLE
8
BLACK
10
5.44
20
-3.56
40
0.00787402
0
CIRCLE
8
BLACK
10
5.26
20
-3.27
40
0.00787402
0
CIRCLE
8
BLACK
10
5.4
20
-3.34
40
0.00787402
0
CIRCLE
8
BLACK
10
5.26
20
-3.23
40
0.00787402
0
CIRCLE
8
BLACK
10
5.5
20
-3.65
40
0.00787402
0
CIRCLE
8
BLACK
10
5.5
20
-3.45
40
0.00787402
0
CIRCLE
8
BLACK
10
5.4
20
-3.4
40
0.00787402
  0
ENDSEC
  0
EOF
