  0
SECTION
  2
HEADER
  9
$ANGBASE
  50
0.0
  9
$ANGDIR
  70
1
  9
$MEASUREMENT
  70
0
  0
ENDSEC
  0
SECTION
  2
TABLES
  0
TABLE
  2
LTYPE
  70
4
  0
LTYPE
  5
40F
  2
CONTINUOUS
  70
0
  3
Solid line
  72
65
  73
0
  40
0.0
  0
LTYPE
  5
410
  2
DASHDOT
 70
0
  3
Dash Dot ____ _ ____ _
 72
65
 73
4
 40
2.0
 49
1.25
 49
-0.25
 49
0.25
 49
-0.25
  0
LTYPE
  5
411
  2
DASHED
 70
0
  3
Dashed __ __ __ __ __
 72
65
 73
2
 40
0.75
 49
0.5
 49
-0.25
  0
LTYPE
  5
43B
  2
DOTTED
 70
0
  3
Dotted .  .  .  .
 72
65
 73
2
 40
0.2
 49
0.0
 49
-0.2
  0
ENDTAB
  0
TABLE
  2
STYLE
  70
4
  0
STYLE
  2
KICAD
  70
0
  40
0
  41
1
  42
1
  50
0
  71
0
  3
isocp.shx
  0
STYLE
  2
KICADB
  70
0
  40
0
  41
1
  42
1
  50
0
  71
0
  3
isocp.shx
  0
STYLE
  2
KICADI
  70
0
  40
0
  41
1
  42
1
  50
15
  71
0
  3
isocp.shx
  0
STYLE
  2
KICADBI
  70
0
  40
0
  41
1
  42
1
  50
15
  71
0
  3
isocp.shx
  0
ENDTAB
  0
TABLE
  2
LAYER
  70
1
  0
LAYER
  2
BLACK
  70
0
  62
7
  6
CONTINUOUS
  0
ENDTAB
  0
ENDSEC
  0
SECTION
  2
ENTITIES
0
LINE
8
BLACK
6
CONTINUOUS
10
5.53237
20
-3.69928
11
5.53209
21
-3.69858
0
LINE
8
BLACK
6
CONTINUOUS
10
5.53209
20
-3.69858
11
5.53209
21
-3.62142
0
LINE
8
BLACK
6
CONTINUOUS
10
5.53209
20
-3.62142
11
5.53237
21
-3.62072
0
LINE
8
BLACK
6
CONTINUOUS
10
5.53237
20
-3.62072
11
5.53307
21
-3.62043
0
LINE
8
BLACK
6
CONTINUOUS
10
5.53307
20
-3.62043
11
5.66693
21
-3.62043
0
LINE
8
BLACK
6
CONTINUOUS
10
5.66693
20
-3.62043
11
5.66763
21
-3.62072
0
LINE
8
BLACK
6
CONTINUOUS
10
5.66763
20
-3.62072
11
5.66791
21
-3.62142
0
LINE
8
BLACK
6
CONTINUOUS
10
5.66791
20
-3.62142
11
5.66791
21
-3.69858
0
LINE
8
BLACK
6
CONTINUOUS
10
5.66791
20
-3.69858
11
5.66763
21
-3.69928
0
LINE
8
BLACK
6
CONTINUOUS
10
5.66763
20
-3.69928
11
5.66693
21
-3.69957
0
LINE
8
BLACK
6
CONTINUOUS
10
5.66693
20
-3.69957
11
5.53307
21
-3.69957
0
LINE
8
BLACK
6
CONTINUOUS
10
5.53307
20
-3.69957
11
5.53237
21
-3.69928
0
LINE
8
BLACK
6
CONTINUOUS
10
5.53406
20
-3.6224
11
5.53406
21
-3.6976
0
LINE
8
BLACK
6
CONTINUOUS
10
5.53406
20
-3.6976
11
5.66594
21
-3.6976
0
LINE
8
BLACK
6
CONTINUOUS
10
5.66594
20
-3.6976
11
5.66594
21
-3.6224
0
LINE
8
BLACK
6
CONTINUOUS
10
5.66594
20
-3.6224
11
5.53406
21
-3.6224
0
LINE
8
BLACK
6
CONTINUOUS
10
5.47497
20
-3.61928
11
5.47469
21
-3.61858
0
LINE
8
BLACK
6
CONTINUOUS
10
5.47469
20
-3.61858
11
5.47469
21
-3.54142
0
LINE
8
BLACK
6
CONTINUOUS
10
5.47469
20
-3.54142
11
5.47497
21
-3.54072
0
LINE
8
BLACK
6
CONTINUOUS
10
5.47497
20
-3.54072
11
5.47567
21
-3.54043
0
LINE
8
BLACK
6
CONTINUOUS
10
5.47567
20
-3.54043
11
5.60953
21
-3.54043
0
LINE
8
BLACK
6
CONTINUOUS
10
5.60953
20
-3.54043
11
5.61022
21
-3.54072
0
LINE
8
BLACK
6
CONTINUOUS
10
5.61022
20
-3.54072
11
5.61051
21
-3.54142
0
LINE
8
BLACK
6
CONTINUOUS
10
5.61051
20
-3.54142
11
5.61051
21
-3.61858
0
LINE
8
BLACK
6
CONTINUOUS
10
5.61051
20
-3.61858
11
5.61022
21
-3.61928
0
LINE
8
BLACK
6
CONTINUOUS
10
5.61022
20
-3.61928
11
5.60953
21
-3.61957
0
LINE
8
BLACK
6
CONTINUOUS
10
5.60953
20
-3.61957
11
5.47567
21
-3.61957
0
LINE
8
BLACK
6
CONTINUOUS
10
5.47567
20
-3.61957
11
5.47497
21
-3.61928
0
LINE
8
BLACK
6
CONTINUOUS
10
5.47665
20
-3.5424
11
5.47665
21
-3.6176
0
LINE
8
BLACK
6
CONTINUOUS
10
5.47665
20
-3.6176
11
5.60854
21
-3.6176
0
LINE
8
BLACK
6
CONTINUOUS
10
5.60854
20
-3.6176
11
5.60854
21
-3.5424
0
LINE
8
BLACK
6
CONTINUOUS
10
5.60854
20
-3.5424
11
5.47665
21
-3.5424
0
LINE
8
BLACK
6
CONTINUOUS
10
5.2823
20
-3.53546
11
5.28201
21
-3.53476
0
LINE
8
BLACK
6
CONTINUOUS
10
5.28201
20
-3.53476
11
5.28201
21
-3.30524
0
LINE
8
BLACK
6
CONTINUOUS
10
5.28201
20
-3.30524
11
5.2823
21
-3.30454
0
LINE
8
BLACK
6
CONTINUOUS
10
5.2823
20
-3.30454
11
5.28299
21
-3.30425
0
LINE
8
BLACK
6
CONTINUOUS
10
5.28299
20
-3.30425
11
5.65701
21
-3.30425
0
LINE
8
BLACK
6
CONTINUOUS
10
5.65701
20
-3.30425
11
5.6577
21
-3.30454
0
LINE
8
BLACK
6
CONTINUOUS
10
5.6577
20
-3.30454
11
5.65799
21
-3.30524
0
LINE
8
BLACK
6
CONTINUOUS
10
5.65799
20
-3.30524
11
5.65799
21
-3.53476
0
LINE
8
BLACK
6
CONTINUOUS
10
5.65799
20
-3.53476
11
5.6577
21
-3.53546
0
LINE
8
BLACK
6
CONTINUOUS
10
5.6577
20
-3.53546
11
5.65701
21
-3.53575
0
LINE
8
BLACK
6
CONTINUOUS
10
5.65701
20
-3.53575
11
5.28299
21
-3.53575
0
LINE
8
BLACK
6
CONTINUOUS
10
5.28299
20
-3.53575
11
5.2823
21
-3.53546
0
LINE
8
BLACK
6
CONTINUOUS
10
5.28398
20
-3.30622
11
5.28398
21
-3.53378
0
LINE
8
BLACK
6
CONTINUOUS
10
5.28398
20
-3.53378
11
5.65602
21
-3.53378
0
LINE
8
BLACK
6
CONTINUOUS
10
5.65602
20
-3.53378
11
5.65602
21
-3.30622
0
LINE
8
BLACK
6
CONTINUOUS
10
5.65602
20
-3.30622
11
5.28398
21
-3.30622
0
LINE
8
BLACK
6
CONTINUOUS
10
5.29151
20
-3.29959
11
5.29122
21
-3.2989
0
LINE
8
BLACK
6
CONTINUOUS
10
5.29122
20
-3.2989
11
5.29122
21
-3.1611
0
LINE
8
BLACK
6
CONTINUOUS
10
5.29122
20
-3.1611
11
5.29151
21
-3.16041
0
LINE
8
BLACK
6
CONTINUOUS
10
5.29151
20
-3.16041
11
5.2922
21
-3.16012
0
LINE
8
BLACK
6
CONTINUOUS
10
5.2922
20
-3.16012
11
5.5678
21
-3.16012
0
LINE
8
BLACK
6
CONTINUOUS
10
5.5678
20
-3.16012
11
5.56849
21
-3.16041
0
LINE
8
BLACK
6
CONTINUOUS
10
5.56849
20
-3.16041
11
5.56878
21
-3.1611
0
LINE
8
BLACK
6
CONTINUOUS
10
5.56878
20
-3.1611
11
5.56878
21
-3.2989
0
LINE
8
BLACK
6
CONTINUOUS
10
5.56878
20
-3.2989
11
5.56849
21
-3.29959
0
LINE
8
BLACK
6
CONTINUOUS
10
5.56849
20
-3.29959
11
5.5678
21
-3.29988
0
LINE
8
BLACK
6
CONTINUOUS
10
5.5678
20
-3.29988
11
5.2922
21
-3.29988
0
LINE
8
BLACK
6
CONTINUOUS
10
5.2922
20
-3.29988
11
5.29151
21
-3.29959
0
LINE
8
BLACK
6
CONTINUOUS
10
5.29319
20
-3.16209
11
5.29319
21
-3.29791
0
LINE
8
BLACK
6
CONTINUOUS
10
5.29319
20
-3.29791
11
5.56681
21
-3.29791
0
LINE
8
BLACK
6
CONTINUOUS
10
5.56681
20
-3.29791
11
5.56681
21
-3.16209
0
LINE
8
BLACK
6
CONTINUOUS
10
5.56681
20
-3.16209
11
5.29319
21
-3.16209
  0
ENDSEC
  0
EOF
