  0
SECTION
  2
HEADER
  9
$ANGBASE
  50
0.0
  9
$ANGDIR
  70
1
  9
$MEASUREMENT
  70
0
  0
ENDSEC
  0
SECTION
  2
TABLES
  0
TABLE
  2
LTYPE
  70
4
  0
LTYPE
  5
40F
  2
CONTINUOUS
  70
0
  3
Solid line
  72
65
  73
0
  40
0.0
  0
LTYPE
  5
410
  2
DASHDOT
 70
0
  3
Dash Dot ____ _ ____ _
 72
65
 73
4
 40
2.0
 49
1.25
 49
-0.25
 49
0.25
 49
-0.25
  0
LTYPE
  5
411
  2
DASHED
 70
0
  3
Dashed __ __ __ __ __
 72
65
 73
2
 40
0.75
 49
0.5
 49
-0.25
  0
LTYPE
  5
43B
  2
DOTTED
 70
0
  3
Dotted .  .  .  .
 72
65
 73
2
 40
0.2
 49
0.0
 49
-0.2
  0
ENDTAB
  0
TABLE
  2
STYLE
  70
4
  0
STYLE
  2
KICAD
  70
0
  40
0
  41
1
  42
1
  50
0
  71
0
  3
isocp.shx
  0
STYLE
  2
KICADB
  70
0
  40
0
  41
1
  42
1
  50
0
  71
0
  3
isocp.shx
  0
STYLE
  2
KICADI
  70
0
  40
0
  41
1
  42
1
  50
15
  71
0
  3
isocp.shx
  0
STYLE
  2
KICADBI
  70
0
  40
0
  41
1
  42
1
  50
15
  71
0
  3
isocp.shx
  0
ENDTAB
  0
TABLE
  2
LAYER
  70
1
  0
LAYER
  2
BLACK
  70
0
  62
7
  6
CONTINUOUS
  0
ENDTAB
  0
ENDSEC
  0
SECTION
  2
ENTITIES
0
LINE
8
BLACK
6
CONTINUOUS
10
5.57038
20
-3.51711
11
5.57051
21
-3.51709
0
LINE
8
BLACK
6
CONTINUOUS
10
5.57051
20
-3.51709
11
5.57063
21
-3.51716
0
LINE
8
BLACK
6
CONTINUOUS
10
5.57063
20
-3.51716
11
5.57101
21
-3.51723
0
LINE
8
BLACK
6
CONTINUOUS
10
5.57101
20
-3.51723
11
5.5716
21
-3.51772
0
LINE
8
BLACK
6
CONTINUOUS
10
5.5716
20
-3.51772
11
5.57226
21
-3.5181
0
LINE
8
BLACK
6
CONTINUOUS
10
5.57226
20
-3.5181
11
5.57235
21
-3.51835
0
LINE
8
BLACK
6
CONTINUOUS
10
5.57235
20
-3.51835
11
5.57256
21
-3.51852
0
LINE
8
BLACK
6
CONTINUOUS
10
5.57256
20
-3.51852
11
5.57269
21
-3.51928
0
LINE
8
BLACK
6
CONTINUOUS
10
5.57269
20
-3.51928
11
5.57295
21
-3.52
0
LINE
8
BLACK
6
CONTINUOUS
10
5.57295
20
-3.52
11
5.57295
21
-3.58
0
LINE
8
BLACK
6
CONTINUOUS
10
5.57295
20
-3.58
11
5.57289
21
-3.58038
0
LINE
8
BLACK
6
CONTINUOUS
10
5.57289
20
-3.58038
11
5.57291
21
-3.58051
0
LINE
8
BLACK
6
CONTINUOUS
10
5.57291
20
-3.58051
11
5.57284
21
-3.58063
0
LINE
8
BLACK
6
CONTINUOUS
10
5.57284
20
-3.58063
11
5.57277
21
-3.58101
0
LINE
8
BLACK
6
CONTINUOUS
10
5.57277
20
-3.58101
11
5.57228
21
-3.5816
0
LINE
8
BLACK
6
CONTINUOUS
10
5.57228
20
-3.5816
11
5.5719
21
-3.58226
0
LINE
8
BLACK
6
CONTINUOUS
10
5.5719
20
-3.58226
11
5.57165
21
-3.58235
0
LINE
8
BLACK
6
CONTINUOUS
10
5.57165
20
-3.58235
11
5.57148
21
-3.58256
0
LINE
8
BLACK
6
CONTINUOUS
10
5.57148
20
-3.58256
11
5.57072
21
-3.58269
0
LINE
8
BLACK
6
CONTINUOUS
10
5.57072
20
-3.58269
11
5.57
21
-3.58295
0
LINE
8
BLACK
6
CONTINUOUS
10
5.57
20
-3.58295
11
5.53
21
-3.58295
0
LINE
8
BLACK
6
CONTINUOUS
10
5.53
20
-3.58295
11
5.52899
21
-3.58277
0
LINE
8
BLACK
6
CONTINUOUS
10
5.52899
20
-3.58277
11
5.52744
21
-3.58148
0
LINE
8
BLACK
6
CONTINUOUS
10
5.52744
20
-3.58148
11
5.52709
21
-3.57949
0
LINE
8
BLACK
6
CONTINUOUS
10
5.52709
20
-3.57949
11
5.5281
21
-3.57774
0
LINE
8
BLACK
6
CONTINUOUS
10
5.5281
20
-3.57774
11
5.53
21
-3.57705
0
LINE
8
BLACK
6
CONTINUOUS
10
5.53
20
-3.57705
11
5.56705
21
-3.57705
0
LINE
8
BLACK
6
CONTINUOUS
10
5.56705
20
-3.57705
11
5.56705
21
-3.52295
0
LINE
8
BLACK
6
CONTINUOUS
10
5.56705
20
-3.52295
11
5.53
21
-3.52295
0
LINE
8
BLACK
6
CONTINUOUS
10
5.53
20
-3.52295
11
5.52899
21
-3.52277
0
LINE
8
BLACK
6
CONTINUOUS
10
5.52899
20
-3.52277
11
5.52744
21
-3.52148
0
LINE
8
BLACK
6
CONTINUOUS
10
5.52744
20
-3.52148
11
5.52709
21
-3.51949
0
LINE
8
BLACK
6
CONTINUOUS
10
5.52709
20
-3.51949
11
5.5281
21
-3.51774
0
LINE
8
BLACK
6
CONTINUOUS
10
5.5281
20
-3.51774
11
5.53
21
-3.51705
0
LINE
8
BLACK
6
CONTINUOUS
10
5.53
20
-3.51705
11
5.57
21
-3.51705
0
LINE
8
BLACK
6
CONTINUOUS
10
5.57
20
-3.51705
11
5.57038
21
-3.51711
0
LINE
8
BLACK
6
CONTINUOUS
10
5.49101
20
-3.51723
11
5.49256
21
-3.51852
0
LINE
8
BLACK
6
CONTINUOUS
10
5.49256
20
-3.51852
11
5.49291
21
-3.52051
0
LINE
8
BLACK
6
CONTINUOUS
10
5.49291
20
-3.52051
11
5.4919
21
-3.52226
0
LINE
8
BLACK
6
CONTINUOUS
10
5.4919
20
-3.52226
11
5.49
21
-3.52295
0
LINE
8
BLACK
6
CONTINUOUS
10
5.49
20
-3.52295
11
5.45295
21
-3.52295
0
LINE
8
BLACK
6
CONTINUOUS
10
5.45295
20
-3.52295
11
5.45295
21
-3.57705
0
LINE
8
BLACK
6
CONTINUOUS
10
5.45295
20
-3.57705
11
5.49
21
-3.57705
0
LINE
8
BLACK
6
CONTINUOUS
10
5.49
20
-3.57705
11
5.49101
21
-3.57723
0
LINE
8
BLACK
6
CONTINUOUS
10
5.49101
20
-3.57723
11
5.49256
21
-3.57852
0
LINE
8
BLACK
6
CONTINUOUS
10
5.49256
20
-3.57852
11
5.49291
21
-3.58051
0
LINE
8
BLACK
6
CONTINUOUS
10
5.49291
20
-3.58051
11
5.4919
21
-3.58226
0
LINE
8
BLACK
6
CONTINUOUS
10
5.4919
20
-3.58226
11
5.49
21
-3.58295
0
LINE
8
BLACK
6
CONTINUOUS
10
5.49
20
-3.58295
11
5.45
21
-3.58295
0
LINE
8
BLACK
6
CONTINUOUS
10
5.45
20
-3.58295
11
5.44962
21
-3.58289
0
LINE
8
BLACK
6
CONTINUOUS
10
5.44962
20
-3.58289
11
5.44949
21
-3.58291
0
LINE
8
BLACK
6
CONTINUOUS
10
5.44949
20
-3.58291
11
5.44937
21
-3.58284
0
LINE
8
BLACK
6
CONTINUOUS
10
5.44937
20
-3.58284
11
5.44899
21
-3.58277
0
LINE
8
BLACK
6
CONTINUOUS
10
5.44899
20
-3.58277
11
5.4484
21
-3.58228
0
LINE
8
BLACK
6
CONTINUOUS
10
5.4484
20
-3.58228
11
5.44774
21
-3.5819
0
LINE
8
BLACK
6
CONTINUOUS
10
5.44774
20
-3.5819
11
5.44765
21
-3.58165
0
LINE
8
BLACK
6
CONTINUOUS
10
5.44765
20
-3.58165
11
5.44744
21
-3.58148
0
LINE
8
BLACK
6
CONTINUOUS
10
5.44744
20
-3.58148
11
5.44731
21
-3.58072
0
LINE
8
BLACK
6
CONTINUOUS
10
5.44731
20
-3.58072
11
5.44705
21
-3.58
0
LINE
8
BLACK
6
CONTINUOUS
10
5.44705
20
-3.58
11
5.44705
21
-3.52
0
LINE
8
BLACK
6
CONTINUOUS
10
5.44705
20
-3.52
11
5.44711
21
-3.51962
0
LINE
8
BLACK
6
CONTINUOUS
10
5.44711
20
-3.51962
11
5.44709
21
-3.51949
0
LINE
8
BLACK
6
CONTINUOUS
10
5.44709
20
-3.51949
11
5.44716
21
-3.51937
0
LINE
8
BLACK
6
CONTINUOUS
10
5.44716
20
-3.51937
11
5.44723
21
-3.51899
0
LINE
8
BLACK
6
CONTINUOUS
10
5.44723
20
-3.51899
11
5.44772
21
-3.5184
0
LINE
8
BLACK
6
CONTINUOUS
10
5.44772
20
-3.5184
11
5.4481
21
-3.51774
0
LINE
8
BLACK
6
CONTINUOUS
10
5.4481
20
-3.51774
11
5.44835
21
-3.51765
0
LINE
8
BLACK
6
CONTINUOUS
10
5.44835
20
-3.51765
11
5.44852
21
-3.51744
0
LINE
8
BLACK
6
CONTINUOUS
10
5.44852
20
-3.51744
11
5.44928
21
-3.51731
0
LINE
8
BLACK
6
CONTINUOUS
10
5.44928
20
-3.51731
11
5.45
21
-3.51705
0
LINE
8
BLACK
6
CONTINUOUS
10
5.45
20
-3.51705
11
5.49
21
-3.51705
0
LINE
8
BLACK
6
CONTINUOUS
10
5.49
20
-3.51705
11
5.49101
21
-3.51723
0
LINE
8
BLACK
6
CONTINUOUS
10
5.47322
20
-3.55269
11
5.47385
21
-3.55421
0
LINE
8
BLACK
6
CONTINUOUS
10
5.47385
20
-3.55421
11
5.47385
21
-3.57391
0
LINE
8
BLACK
6
CONTINUOUS
10
5.47385
20
-3.57391
11
5.47322
21
-3.57543
0
LINE
8
BLACK
6
CONTINUOUS
10
5.47322
20
-3.57543
11
5.4717
21
-3.57606
0
LINE
8
BLACK
6
CONTINUOUS
10
5.4717
20
-3.57606
11
5.47018
21
-3.57543
0
LINE
8
BLACK
6
CONTINUOUS
10
5.47018
20
-3.57543
11
5.46955
21
-3.57391
0
LINE
8
BLACK
6
CONTINUOUS
10
5.46955
20
-3.57391
11
5.46955
21
-3.56574
0
LINE
8
BLACK
6
CONTINUOUS
10
5.46955
20
-3.56574
11
5.46513
21
-3.56574
0
LINE
8
BLACK
6
CONTINUOUS
10
5.46513
20
-3.56574
11
5.46361
21
-3.56511
0
LINE
8
BLACK
6
CONTINUOUS
10
5.46361
20
-3.56511
11
5.46298
21
-3.56359
0
LINE
8
BLACK
6
CONTINUOUS
10
5.46298
20
-3.56359
11
5.46361
21
-3.56207
0
LINE
8
BLACK
6
CONTINUOUS
10
5.46361
20
-3.56207
11
5.46513
21
-3.56144
0
LINE
8
BLACK
6
CONTINUOUS
10
5.46513
20
-3.56144
11
5.46955
21
-3.56144
0
LINE
8
BLACK
6
CONTINUOUS
10
5.46955
20
-3.56144
11
5.46955
21
-3.55636
0
LINE
8
BLACK
6
CONTINUOUS
10
5.46955
20
-3.55636
11
5.46232
21
-3.55636
0
LINE
8
BLACK
6
CONTINUOUS
10
5.46232
20
-3.55636
11
5.4608
21
-3.55573
0
LINE
8
BLACK
6
CONTINUOUS
10
5.4608
20
-3.55573
11
5.46017
21
-3.55421
0
LINE
8
BLACK
6
CONTINUOUS
10
5.46017
20
-3.55421
11
5.4608
21
-3.55269
0
LINE
8
BLACK
6
CONTINUOUS
10
5.4608
20
-3.55269
11
5.46232
21
-3.55206
0
LINE
8
BLACK
6
CONTINUOUS
10
5.46232
20
-3.55206
11
5.4717
21
-3.55206
0
LINE
8
BLACK
6
CONTINUOUS
10
5.4717
20
-3.55206
11
5.47322
21
-3.55269
0
LINE
8
BLACK
6
CONTINUOUS
10
5.52376
20
-3.55225
11
5.52425
21
-3.55229
0
LINE
8
BLACK
6
CONTINUOUS
10
5.52425
20
-3.55229
11
5.52613
21
-3.55323
0
LINE
8
BLACK
6
CONTINUOUS
10
5.52613
20
-3.55323
11
5.52636
21
-3.55349
0
LINE
8
BLACK
6
CONTINUOUS
10
5.52636
20
-3.55349
11
5.52669
21
-3.55363
0
LINE
8
BLACK
6
CONTINUOUS
10
5.52669
20
-3.55363
11
5.52763
21
-3.55457
0
LINE
8
BLACK
6
CONTINUOUS
10
5.52763
20
-3.55457
11
5.52776
21
-3.55489
0
LINE
8
BLACK
6
CONTINUOUS
10
5.52776
20
-3.55489
11
5.52803
21
-3.55513
0
LINE
8
BLACK
6
CONTINUOUS
10
5.52803
20
-3.55513
11
5.52897
21
-3.557
0
LINE
8
BLACK
6
CONTINUOUS
10
5.52897
20
-3.557
11
5.52899
21
-3.55725
0
LINE
8
BLACK
6
CONTINUOUS
10
5.52899
20
-3.55725
11
5.52913
21
-3.55744
0
LINE
8
BLACK
6
CONTINUOUS
10
5.52913
20
-3.55744
11
5.53007
21
-3.5612
0
LINE
8
BLACK
6
CONTINUOUS
10
5.53007
20
-3.5612
11
5.53003
21
-3.56146
0
LINE
8
BLACK
6
CONTINUOUS
10
5.53003
20
-3.56146
11
5.53013
21
-3.56172
0
LINE
8
BLACK
6
CONTINUOUS
10
5.53013
20
-3.56172
11
5.53013
21
-3.56641
0
LINE
8
BLACK
6
CONTINUOUS
10
5.53013
20
-3.56641
11
5.53003
21
-3.56666
0
LINE
8
BLACK
6
CONTINUOUS
10
5.53003
20
-3.56666
11
5.53007
21
-3.56693
0
LINE
8
BLACK
6
CONTINUOUS
10
5.53007
20
-3.56693
11
5.52913
21
-3.57068
0
LINE
8
BLACK
6
CONTINUOUS
10
5.52913
20
-3.57068
11
5.52899
21
-3.57088
0
LINE
8
BLACK
6
CONTINUOUS
10
5.52899
20
-3.57088
11
5.52897
21
-3.57112
0
LINE
8
BLACK
6
CONTINUOUS
10
5.52897
20
-3.57112
11
5.52803
21
-3.573
0
LINE
8
BLACK
6
CONTINUOUS
10
5.52803
20
-3.573
11
5.52776
21
-3.57323
0
LINE
8
BLACK
6
CONTINUOUS
10
5.52776
20
-3.57323
11
5.52763
21
-3.57356
0
LINE
8
BLACK
6
CONTINUOUS
10
5.52763
20
-3.57356
11
5.52669
21
-3.57449
0
LINE
8
BLACK
6
CONTINUOUS
10
5.52669
20
-3.57449
11
5.52636
21
-3.57463
0
LINE
8
BLACK
6
CONTINUOUS
10
5.52636
20
-3.57463
11
5.52613
21
-3.5749
0
LINE
8
BLACK
6
CONTINUOUS
10
5.52613
20
-3.5749
11
5.52425
21
-3.57583
0
LINE
8
BLACK
6
CONTINUOUS
10
5.52425
20
-3.57583
11
5.52376
21
-3.57587
0
LINE
8
BLACK
6
CONTINUOUS
10
5.52376
20
-3.57587
11
5.52329
21
-3.57606
0
LINE
8
BLACK
6
CONTINUOUS
10
5.52329
20
-3.57606
11
5.52142
21
-3.57606
0
LINE
8
BLACK
6
CONTINUOUS
10
5.52142
20
-3.57606
11
5.52095
21
-3.57587
0
LINE
8
BLACK
6
CONTINUOUS
10
5.52095
20
-3.57587
11
5.52046
21
-3.57583
0
LINE
8
BLACK
6
CONTINUOUS
10
5.52046
20
-3.57583
11
5.51858
21
-3.5749
0
LINE
8
BLACK
6
CONTINUOUS
10
5.51858
20
-3.5749
11
5.51835
21
-3.57463
0
LINE
8
BLACK
6
CONTINUOUS
10
5.51835
20
-3.57463
11
5.51802
21
-3.57449
0
LINE
8
BLACK
6
CONTINUOUS
10
5.51802
20
-3.57449
11
5.51708
21
-3.57356
0
LINE
8
BLACK
6
CONTINUOUS
10
5.51708
20
-3.57356
11
5.51695
21
-3.57323
0
LINE
8
BLACK
6
CONTINUOUS
10
5.51695
20
-3.57323
11
5.51668
21
-3.573
0
LINE
8
BLACK
6
CONTINUOUS
10
5.51668
20
-3.573
11
5.51574
21
-3.57112
0
LINE
8
BLACK
6
CONTINUOUS
10
5.51574
20
-3.57112
11
5.51572
21
-3.57088
0
LINE
8
BLACK
6
CONTINUOUS
10
5.51572
20
-3.57088
11
5.51558
21
-3.57068
0
LINE
8
BLACK
6
CONTINUOUS
10
5.51558
20
-3.57068
11
5.51464
21
-3.56693
0
LINE
8
BLACK
6
CONTINUOUS
10
5.51464
20
-3.56693
11
5.51468
21
-3.56666
0
LINE
8
BLACK
6
CONTINUOUS
10
5.51468
20
-3.56666
11
5.51458
21
-3.56641
0
LINE
8
BLACK
6
CONTINUOUS
10
5.51458
20
-3.56641
11
5.51458
21
-3.56172
0
LINE
8
BLACK
6
CONTINUOUS
10
5.51458
20
-3.56172
11
5.51468
21
-3.56146
0
LINE
8
BLACK
6
CONTINUOUS
10
5.51468
20
-3.56146
11
5.51464
21
-3.5612
0
LINE
8
BLACK
6
CONTINUOUS
10
5.51464
20
-3.5612
11
5.51558
21
-3.55744
0
LINE
8
BLACK
6
CONTINUOUS
10
5.51558
20
-3.55744
11
5.51572
21
-3.55725
0
LINE
8
BLACK
6
CONTINUOUS
10
5.51572
20
-3.55725
11
5.51574
21
-3.557
0
LINE
8
BLACK
6
CONTINUOUS
10
5.51574
20
-3.557
11
5.51668
21
-3.55513
0
LINE
8
BLACK
6
CONTINUOUS
10
5.51668
20
-3.55513
11
5.51695
21
-3.55489
0
LINE
8
BLACK
6
CONTINUOUS
10
5.51695
20
-3.55489
11
5.51708
21
-3.55457
0
LINE
8
BLACK
6
CONTINUOUS
10
5.51708
20
-3.55457
11
5.51802
21
-3.55363
0
LINE
8
BLACK
6
CONTINUOUS
10
5.51802
20
-3.55363
11
5.51835
21
-3.55349
0
LINE
8
BLACK
6
CONTINUOUS
10
5.51835
20
-3.55349
11
5.51858
21
-3.55323
0
LINE
8
BLACK
6
CONTINUOUS
10
5.51858
20
-3.55323
11
5.52046
21
-3.55229
0
LINE
8
BLACK
6
CONTINUOUS
10
5.52046
20
-3.55229
11
5.52095
21
-3.55225
0
LINE
8
BLACK
6
CONTINUOUS
10
5.52095
20
-3.55225
11
5.52142
21
-3.55206
0
LINE
8
BLACK
6
CONTINUOUS
10
5.52142
20
-3.55206
11
5.52329
21
-3.55206
0
LINE
8
BLACK
6
CONTINUOUS
10
5.52329
20
-3.55206
11
5.52376
21
-3.55225
0
LINE
8
BLACK
6
CONTINUOUS
10
5.52192
20
-3.55636
11
5.52081
21
-3.55692
0
LINE
8
BLACK
6
CONTINUOUS
10
5.52081
20
-3.55692
11
5.52037
21
-3.55736
0
LINE
8
BLACK
6
CONTINUOUS
10
5.52037
20
-3.55736
11
5.51969
21
-3.55871
0
LINE
8
BLACK
6
CONTINUOUS
10
5.51969
20
-3.55871
11
5.51888
21
-3.56198
0
LINE
8
BLACK
6
CONTINUOUS
10
5.51888
20
-3.56198
11
5.51888
21
-3.56614
0
LINE
8
BLACK
6
CONTINUOUS
10
5.51888
20
-3.56614
11
5.51969
21
-3.56941
0
LINE
8
BLACK
6
CONTINUOUS
10
5.51969
20
-3.56941
11
5.52037
21
-3.57076
0
LINE
8
BLACK
6
CONTINUOUS
10
5.52037
20
-3.57076
11
5.52081
21
-3.57121
0
LINE
8
BLACK
6
CONTINUOUS
10
5.52081
20
-3.57121
11
5.52192
21
-3.57176
0
LINE
8
BLACK
6
CONTINUOUS
10
5.52192
20
-3.57176
11
5.52279
21
-3.57176
0
LINE
8
BLACK
6
CONTINUOUS
10
5.52279
20
-3.57176
11
5.5239
21
-3.57121
0
LINE
8
BLACK
6
CONTINUOUS
10
5.5239
20
-3.57121
11
5.52434
21
-3.57076
0
LINE
8
BLACK
6
CONTINUOUS
10
5.52434
20
-3.57076
11
5.52502
21
-3.56941
0
LINE
8
BLACK
6
CONTINUOUS
10
5.52502
20
-3.56941
11
5.52583
21
-3.56614
0
LINE
8
BLACK
6
CONTINUOUS
10
5.52583
20
-3.56614
11
5.52583
21
-3.56198
0
LINE
8
BLACK
6
CONTINUOUS
10
5.52583
20
-3.56198
11
5.52502
21
-3.55871
0
LINE
8
BLACK
6
CONTINUOUS
10
5.52502
20
-3.55871
11
5.52434
21
-3.55736
0
LINE
8
BLACK
6
CONTINUOUS
10
5.52434
20
-3.55736
11
5.5239
21
-3.55692
0
LINE
8
BLACK
6
CONTINUOUS
10
5.5239
20
-3.55692
11
5.52279
21
-3.55636
0
LINE
8
BLACK
6
CONTINUOUS
10
5.52279
20
-3.55636
11
5.52192
21
-3.55636
0
LINE
8
BLACK
6
CONTINUOUS
10
5.53397
20
-3.57543
11
5.53334
21
-3.57391
0
LINE
8
BLACK
6
CONTINUOUS
10
5.53334
20
-3.57391
11
5.53397
21
-3.57239
0
LINE
8
BLACK
6
CONTINUOUS
10
5.53397
20
-3.57239
11
5.53549
21
-3.57176
0
LINE
8
BLACK
6
CONTINUOUS
10
5.53549
20
-3.57176
11
5.53897
21
-3.57176
0
LINE
8
BLACK
6
CONTINUOUS
10
5.53897
20
-3.57176
11
5.53897
21
-3.55421
0
LINE
8
BLACK
6
CONTINUOUS
10
5.53897
20
-3.55421
11
5.53905
21
-3.55401
0
LINE
8
BLACK
6
CONTINUOUS
10
5.53905
20
-3.55401
11
5.53901
21
-3.55379
0
LINE
8
BLACK
6
CONTINUOUS
10
5.53901
20
-3.55379
11
5.53936
21
-3.55327
0
LINE
8
BLACK
6
CONTINUOUS
10
5.53936
20
-3.55327
11
5.5396
21
-3.55269
0
LINE
8
BLACK
6
CONTINUOUS
10
5.5396
20
-3.55269
11
5.5398
21
-3.55261
0
LINE
8
BLACK
6
CONTINUOUS
10
5.5398
20
-3.55261
11
5.53992
21
-3.55242
0
LINE
8
BLACK
6
CONTINUOUS
10
5.53992
20
-3.55242
11
5.54054
21
-3.5523
0
LINE
8
BLACK
6
CONTINUOUS
10
5.54054
20
-3.5523
11
5.54112
21
-3.55206
0
LINE
8
BLACK
6
CONTINUOUS
10
5.54112
20
-3.55206
11
5.54132
21
-3.55215
0
LINE
8
BLACK
6
CONTINUOUS
10
5.54132
20
-3.55215
11
5.54154
21
-3.5521
0
LINE
8
BLACK
6
CONTINUOUS
10
5.54154
20
-3.5521
11
5.54206
21
-3.55245
0
LINE
8
BLACK
6
CONTINUOUS
10
5.54206
20
-3.55245
11
5.54264
21
-3.55269
0
LINE
8
BLACK
6
CONTINUOUS
10
5.54264
20
-3.55269
11
5.54272
21
-3.5529
0
LINE
8
BLACK
6
CONTINUOUS
10
5.54272
20
-3.5529
11
5.54291
21
-3.55302
0
LINE
8
BLACK
6
CONTINUOUS
10
5.54291
20
-3.55302
11
5.54466
21
-3.55566
0
LINE
8
BLACK
6
CONTINUOUS
10
5.54466
20
-3.55566
11
5.54614
21
-3.55714
0
LINE
8
BLACK
6
CONTINUOUS
10
5.54614
20
-3.55714
11
5.54771
21
-3.55792
0
LINE
8
BLACK
6
CONTINUOUS
10
5.54771
20
-3.55792
11
5.54878
21
-3.55916
0
LINE
8
BLACK
6
CONTINUOUS
10
5.54878
20
-3.55916
11
5.54867
21
-3.5608
0
LINE
8
BLACK
6
CONTINUOUS
10
5.54867
20
-3.5608
11
5.54743
21
-3.56188
0
LINE
8
BLACK
6
CONTINUOUS
10
5.54743
20
-3.56188
11
5.54578
21
-3.56176
0
LINE
8
BLACK
6
CONTINUOUS
10
5.54578
20
-3.56176
11
5.54391
21
-3.56083
0
LINE
8
BLACK
6
CONTINUOUS
10
5.54391
20
-3.56083
11
5.54368
21
-3.56056
0
LINE
8
BLACK
6
CONTINUOUS
10
5.54368
20
-3.56056
11
5.54335
21
-3.56042
0
LINE
8
BLACK
6
CONTINUOUS
10
5.54335
20
-3.56042
11
5.54327
21
-3.56034
0
LINE
8
BLACK
6
CONTINUOUS
10
5.54327
20
-3.56034
11
5.54327
21
-3.57176
0
LINE
8
BLACK
6
CONTINUOUS
10
5.54327
20
-3.57176
11
5.54675
21
-3.57176
0
LINE
8
BLACK
6
CONTINUOUS
10
5.54675
20
-3.57176
11
5.54827
21
-3.57239
0
LINE
8
BLACK
6
CONTINUOUS
10
5.54827
20
-3.57239
11
5.5489
21
-3.57391
0
LINE
8
BLACK
6
CONTINUOUS
10
5.5489
20
-3.57391
11
5.54827
21
-3.57543
0
LINE
8
BLACK
6
CONTINUOUS
10
5.54827
20
-3.57543
11
5.54675
21
-3.57606
0
LINE
8
BLACK
6
CONTINUOUS
10
5.54675
20
-3.57606
11
5.53549
21
-3.57606
0
LINE
8
BLACK
6
CONTINUOUS
10
5.53549
20
-3.57606
11
5.53397
21
-3.57543
0
LINE
8
BLACK
6
CONTINUOUS
10
5.50499
20
-3.55225
11
5.50549
21
-3.55229
0
LINE
8
BLACK
6
CONTINUOUS
10
5.50549
20
-3.55229
11
5.50737
21
-3.55323
0
LINE
8
BLACK
6
CONTINUOUS
10
5.50737
20
-3.55323
11
5.5076
21
-3.55349
0
LINE
8
BLACK
6
CONTINUOUS
10
5.5076
20
-3.55349
11
5.50793
21
-3.55363
0
LINE
8
BLACK
6
CONTINUOUS
10
5.50793
20
-3.55363
11
5.50887
21
-3.55457
0
LINE
8
BLACK
6
CONTINUOUS
10
5.50887
20
-3.55457
11
5.509
21
-3.55489
0
LINE
8
BLACK
6
CONTINUOUS
10
5.509
20
-3.55489
11
5.50927
21
-3.55513
0
LINE
8
BLACK
6
CONTINUOUS
10
5.50927
20
-3.55513
11
5.51021
21
-3.557
0
LINE
8
BLACK
6
CONTINUOUS
10
5.51021
20
-3.557
11
5.51022
21
-3.55725
0
LINE
8
BLACK
6
CONTINUOUS
10
5.51022
20
-3.55725
11
5.51037
21
-3.55744
0
LINE
8
BLACK
6
CONTINUOUS
10
5.51037
20
-3.55744
11
5.51131
21
-3.5612
0
LINE
8
BLACK
6
CONTINUOUS
10
5.51131
20
-3.5612
11
5.51127
21
-3.56146
0
LINE
8
BLACK
6
CONTINUOUS
10
5.51127
20
-3.56146
11
5.51137
21
-3.56172
0
LINE
8
BLACK
6
CONTINUOUS
10
5.51137
20
-3.56172
11
5.51137
21
-3.56641
0
LINE
8
BLACK
6
CONTINUOUS
10
5.51137
20
-3.56641
11
5.51127
21
-3.56666
0
LINE
8
BLACK
6
CONTINUOUS
10
5.51127
20
-3.56666
11
5.51131
21
-3.56693
0
LINE
8
BLACK
6
CONTINUOUS
10
5.51131
20
-3.56693
11
5.51037
21
-3.57068
0
LINE
8
BLACK
6
CONTINUOUS
10
5.51037
20
-3.57068
11
5.51022
21
-3.57088
0
LINE
8
BLACK
6
CONTINUOUS
10
5.51022
20
-3.57088
11
5.51021
21
-3.57112
0
LINE
8
BLACK
6
CONTINUOUS
10
5.51021
20
-3.57112
11
5.50927
21
-3.573
0
LINE
8
BLACK
6
CONTINUOUS
10
5.50927
20
-3.573
11
5.509
21
-3.57323
0
LINE
8
BLACK
6
CONTINUOUS
10
5.509
20
-3.57323
11
5.50887
21
-3.57356
0
LINE
8
BLACK
6
CONTINUOUS
10
5.50887
20
-3.57356
11
5.50793
21
-3.57449
0
LINE
8
BLACK
6
CONTINUOUS
10
5.50793
20
-3.57449
11
5.5076
21
-3.57463
0
LINE
8
BLACK
6
CONTINUOUS
10
5.5076
20
-3.57463
11
5.50737
21
-3.5749
0
LINE
8
BLACK
6
CONTINUOUS
10
5.50737
20
-3.5749
11
5.50549
21
-3.57583
0
LINE
8
BLACK
6
CONTINUOUS
10
5.50549
20
-3.57583
11
5.50499
21
-3.57587
0
LINE
8
BLACK
6
CONTINUOUS
10
5.50499
20
-3.57587
11
5.50453
21
-3.57606
0
LINE
8
BLACK
6
CONTINUOUS
10
5.50453
20
-3.57606
11
5.50265
21
-3.57606
0
LINE
8
BLACK
6
CONTINUOUS
10
5.50265
20
-3.57606
11
5.50219
21
-3.57587
0
LINE
8
BLACK
6
CONTINUOUS
10
5.50219
20
-3.57587
11
5.50169
21
-3.57583
0
LINE
8
BLACK
6
CONTINUOUS
10
5.50169
20
-3.57583
11
5.49982
21
-3.5749
0
LINE
8
BLACK
6
CONTINUOUS
10
5.49982
20
-3.5749
11
5.49959
21
-3.57463
0
LINE
8
BLACK
6
CONTINUOUS
10
5.49959
20
-3.57463
11
5.49926
21
-3.57449
0
LINE
8
BLACK
6
CONTINUOUS
10
5.49926
20
-3.57449
11
5.49832
21
-3.57356
0
LINE
8
BLACK
6
CONTINUOUS
10
5.49832
20
-3.57356
11
5.49818
21
-3.57323
0
LINE
8
BLACK
6
CONTINUOUS
10
5.49818
20
-3.57323
11
5.49792
21
-3.573
0
LINE
8
BLACK
6
CONTINUOUS
10
5.49792
20
-3.573
11
5.49698
21
-3.57112
0
LINE
8
BLACK
6
CONTINUOUS
10
5.49698
20
-3.57112
11
5.49696
21
-3.57088
0
LINE
8
BLACK
6
CONTINUOUS
10
5.49696
20
-3.57088
11
5.49682
21
-3.57068
0
LINE
8
BLACK
6
CONTINUOUS
10
5.49682
20
-3.57068
11
5.49588
21
-3.56693
0
LINE
8
BLACK
6
CONTINUOUS
10
5.49588
20
-3.56693
11
5.49592
21
-3.56666
0
LINE
8
BLACK
6
CONTINUOUS
10
5.49592
20
-3.56666
11
5.49581
21
-3.56641
0
LINE
8
BLACK
6
CONTINUOUS
10
5.49581
20
-3.56641
11
5.49581
21
-3.56172
0
LINE
8
BLACK
6
CONTINUOUS
10
5.49581
20
-3.56172
11
5.49592
21
-3.56146
0
LINE
8
BLACK
6
CONTINUOUS
10
5.49592
20
-3.56146
11
5.49588
21
-3.5612
0
LINE
8
BLACK
6
CONTINUOUS
10
5.49588
20
-3.5612
11
5.49682
21
-3.55744
0
LINE
8
BLACK
6
CONTINUOUS
10
5.49682
20
-3.55744
11
5.49696
21
-3.55725
0
LINE
8
BLACK
6
CONTINUOUS
10
5.49696
20
-3.55725
11
5.49698
21
-3.557
0
LINE
8
BLACK
6
CONTINUOUS
10
5.49698
20
-3.557
11
5.49792
21
-3.55513
0
LINE
8
BLACK
6
CONTINUOUS
10
5.49792
20
-3.55513
11
5.49818
21
-3.55489
0
LINE
8
BLACK
6
CONTINUOUS
10
5.49818
20
-3.55489
11
5.49832
21
-3.55457
0
LINE
8
BLACK
6
CONTINUOUS
10
5.49832
20
-3.55457
11
5.49926
21
-3.55363
0
LINE
8
BLACK
6
CONTINUOUS
10
5.49926
20
-3.55363
11
5.49959
21
-3.55349
0
LINE
8
BLACK
6
CONTINUOUS
10
5.49959
20
-3.55349
11
5.49982
21
-3.55323
0
LINE
8
BLACK
6
CONTINUOUS
10
5.49982
20
-3.55323
11
5.50169
21
-3.55229
0
LINE
8
BLACK
6
CONTINUOUS
10
5.50169
20
-3.55229
11
5.50219
21
-3.55225
0
LINE
8
BLACK
6
CONTINUOUS
10
5.50219
20
-3.55225
11
5.50265
21
-3.55206
0
LINE
8
BLACK
6
CONTINUOUS
10
5.50265
20
-3.55206
11
5.50453
21
-3.55206
0
LINE
8
BLACK
6
CONTINUOUS
10
5.50453
20
-3.55206
11
5.50499
21
-3.55225
0
LINE
8
BLACK
6
CONTINUOUS
10
5.50316
20
-3.55636
11
5.50205
21
-3.55692
0
LINE
8
BLACK
6
CONTINUOUS
10
5.50205
20
-3.55692
11
5.50161
21
-3.55736
0
LINE
8
BLACK
6
CONTINUOUS
10
5.50161
20
-3.55736
11
5.50093
21
-3.55871
0
LINE
8
BLACK
6
CONTINUOUS
10
5.50093
20
-3.55871
11
5.50011
21
-3.56198
0
LINE
8
BLACK
6
CONTINUOUS
10
5.50011
20
-3.56198
11
5.50011
21
-3.56614
0
LINE
8
BLACK
6
CONTINUOUS
10
5.50011
20
-3.56614
11
5.50093
21
-3.56941
0
LINE
8
BLACK
6
CONTINUOUS
10
5.50093
20
-3.56941
11
5.50161
21
-3.57076
0
LINE
8
BLACK
6
CONTINUOUS
10
5.50161
20
-3.57076
11
5.50205
21
-3.57121
0
LINE
8
BLACK
6
CONTINUOUS
10
5.50205
20
-3.57121
11
5.50316
21
-3.57176
0
LINE
8
BLACK
6
CONTINUOUS
10
5.50316
20
-3.57176
11
5.50402
21
-3.57176
0
LINE
8
BLACK
6
CONTINUOUS
10
5.50402
20
-3.57176
11
5.50513
21
-3.57121
0
LINE
8
BLACK
6
CONTINUOUS
10
5.50513
20
-3.57121
11
5.50558
21
-3.57076
0
LINE
8
BLACK
6
CONTINUOUS
10
5.50558
20
-3.57076
11
5.50625
21
-3.56941
0
LINE
8
BLACK
6
CONTINUOUS
10
5.50625
20
-3.56941
11
5.50707
21
-3.56614
0
LINE
8
BLACK
6
CONTINUOUS
10
5.50707
20
-3.56614
11
5.50707
21
-3.56198
0
LINE
8
BLACK
6
CONTINUOUS
10
5.50707
20
-3.56198
11
5.50625
21
-3.55871
0
LINE
8
BLACK
6
CONTINUOUS
10
5.50625
20
-3.55871
11
5.50558
21
-3.55736
0
LINE
8
BLACK
6
CONTINUOUS
10
5.50558
20
-3.55736
11
5.50513
21
-3.55692
0
LINE
8
BLACK
6
CONTINUOUS
10
5.50513
20
-3.55692
11
5.50402
21
-3.55636
0
LINE
8
BLACK
6
CONTINUOUS
10
5.50402
20
-3.55636
11
5.50316
21
-3.55636
0
LINE
8
BLACK
6
CONTINUOUS
10
5.48717
20
-3.55882
11
5.48767
21
-3.55886
0
LINE
8
BLACK
6
CONTINUOUS
10
5.48767
20
-3.55886
11
5.48826
21
-3.55915
0
LINE
8
BLACK
6
CONTINUOUS
10
5.48826
20
-3.55915
11
5.48952
21
-3.55863
0
LINE
8
BLACK
6
CONTINUOUS
10
5.48952
20
-3.55863
11
5.49104
21
-3.55926
0
LINE
8
BLACK
6
CONTINUOUS
10
5.49104
20
-3.55926
11
5.49167
21
-3.56078
0
LINE
8
BLACK
6
CONTINUOUS
10
5.49167
20
-3.56078
11
5.49167
21
-3.57391
0
LINE
8
BLACK
6
CONTINUOUS
10
5.49167
20
-3.57391
11
5.49104
21
-3.57543
0
LINE
8
BLACK
6
CONTINUOUS
10
5.49104
20
-3.57543
11
5.48952
21
-3.57606
0
LINE
8
BLACK
6
CONTINUOUS
10
5.48952
20
-3.57606
11
5.488
21
-3.57543
0
LINE
8
BLACK
6
CONTINUOUS
10
5.488
20
-3.57543
11
5.48737
21
-3.57391
0
LINE
8
BLACK
6
CONTINUOUS
10
5.48737
20
-3.57391
11
5.48737
21
-3.56355
0
LINE
8
BLACK
6
CONTINUOUS
10
5.48737
20
-3.56355
11
5.48731
21
-3.56348
0
LINE
8
BLACK
6
CONTINUOUS
10
5.48731
20
-3.56348
11
5.4862
21
-3.56293
0
LINE
8
BLACK
6
CONTINUOUS
10
5.4862
20
-3.56293
11
5.4844
21
-3.56293
0
LINE
8
BLACK
6
CONTINUOUS
10
5.4844
20
-3.56293
11
5.48362
21
-3.56332
0
LINE
8
BLACK
6
CONTINUOUS
10
5.48362
20
-3.56332
11
5.48323
21
-3.5641
0
LINE
8
BLACK
6
CONTINUOUS
10
5.48323
20
-3.5641
11
5.48323
21
-3.57391
0
LINE
8
BLACK
6
CONTINUOUS
10
5.48323
20
-3.57391
11
5.4826
21
-3.57543
0
LINE
8
BLACK
6
CONTINUOUS
10
5.4826
20
-3.57543
11
5.48108
21
-3.57606
0
LINE
8
BLACK
6
CONTINUOUS
10
5.48108
20
-3.57606
11
5.47956
21
-3.57543
0
LINE
8
BLACK
6
CONTINUOUS
10
5.47956
20
-3.57543
11
5.47893
21
-3.57391
0
LINE
8
BLACK
6
CONTINUOUS
10
5.47893
20
-3.57391
11
5.47893
21
-3.56359
0
LINE
8
BLACK
6
CONTINUOUS
10
5.47893
20
-3.56359
11
5.47912
21
-3.56313
0
LINE
8
BLACK
6
CONTINUOUS
10
5.47912
20
-3.56313
11
5.47916
21
-3.56263
0
LINE
8
BLACK
6
CONTINUOUS
10
5.47916
20
-3.56263
11
5.48009
21
-3.56076
0
LINE
8
BLACK
6
CONTINUOUS
10
5.48009
20
-3.56076
11
5.48061
21
-3.56031
0
LINE
8
BLACK
6
CONTINUOUS
10
5.48061
20
-3.56031
11
5.48106
21
-3.55979
0
LINE
8
BLACK
6
CONTINUOUS
10
5.48106
20
-3.55979
11
5.48293
21
-3.55886
0
LINE
8
BLACK
6
CONTINUOUS
10
5.48293
20
-3.55886
11
5.48343
21
-3.55882
0
LINE
8
BLACK
6
CONTINUOUS
10
5.48343
20
-3.55882
11
5.48389
21
-3.55863
0
LINE
8
BLACK
6
CONTINUOUS
10
5.48389
20
-3.55863
11
5.48671
21
-3.55863
0
LINE
8
BLACK
6
CONTINUOUS
10
5.48671
20
-3.55863
11
5.48717
21
-3.55882
0
LINE
8
BLACK
6
CONTINUOUS
10
5.29566
20
-3.50434
11
5.29508
21
-3.50295
0
LINE
8
BLACK
6
CONTINUOUS
10
5.29508
20
-3.50295
11
5.29508
21
-3.29705
0
LINE
8
BLACK
6
CONTINUOUS
10
5.29508
20
-3.29705
11
5.29566
21
-3.29566
0
LINE
8
BLACK
6
CONTINUOUS
10
5.29566
20
-3.29566
11
5.29705
21
-3.29508
0
LINE
8
BLACK
6
CONTINUOUS
10
5.29705
20
-3.29508
11
5.50295
21
-3.29508
0
LINE
8
BLACK
6
CONTINUOUS
10
5.50295
20
-3.29508
11
5.50434
21
-3.29566
0
LINE
8
BLACK
6
CONTINUOUS
10
5.50434
20
-3.29566
11
5.50492
21
-3.29705
0
LINE
8
BLACK
6
CONTINUOUS
10
5.50492
20
-3.29705
11
5.50492
21
-3.50295
0
LINE
8
BLACK
6
CONTINUOUS
10
5.50492
20
-3.50295
11
5.50434
21
-3.50434
0
LINE
8
BLACK
6
CONTINUOUS
10
5.50434
20
-3.50434
11
5.50295
21
-3.50492
0
LINE
8
BLACK
6
CONTINUOUS
10
5.50295
20
-3.50492
11
5.29705
21
-3.50492
0
LINE
8
BLACK
6
CONTINUOUS
10
5.29705
20
-3.50492
11
5.29566
21
-3.50434
0
LINE
8
BLACK
6
CONTINUOUS
10
5.29902
20
-3.50098
11
5.34229
21
-3.50098
0
LINE
8
BLACK
6
CONTINUOUS
10
5.34229
20
-3.50098
11
5.29902
21
-3.45771
0
LINE
8
BLACK
6
CONTINUOUS
10
5.29902
20
-3.45771
11
5.29902
21
-3.50098
0
LINE
8
BLACK
6
CONTINUOUS
10
5.29902
20
-3.29902
11
5.29902
21
-3.45214
0
LINE
8
BLACK
6
CONTINUOUS
10
5.29902
20
-3.45214
11
5.34786
21
-3.50098
0
LINE
8
BLACK
6
CONTINUOUS
10
5.34786
20
-3.50098
11
5.50098
21
-3.50098
0
LINE
8
BLACK
6
CONTINUOUS
10
5.50098
20
-3.50098
11
5.50098
21
-3.29902
0
LINE
8
BLACK
6
CONTINUOUS
10
5.50098
20
-3.29902
11
5.29902
21
-3.29902
0
LINE
8
BLACK
6
CONTINUOUS
10
5.36374
20
-3.36786
11
5.3651
21
-3.36804
0
LINE
8
BLACK
6
CONTINUOUS
10
5.3651
20
-3.36804
11
5.36513
21
-3.36807
0
LINE
8
BLACK
6
CONTINUOUS
10
5.36513
20
-3.36807
11
5.36518
21
-3.36807
0
LINE
8
BLACK
6
CONTINUOUS
10
5.36518
20
-3.36807
11
5.36621
21
-3.36897
0
LINE
8
BLACK
6
CONTINUOUS
10
5.36621
20
-3.36897
11
5.36726
21
-3.36985
0
LINE
8
BLACK
6
CONTINUOUS
10
5.36726
20
-3.36985
11
5.37174
21
-3.37658
0
LINE
8
BLACK
6
CONTINUOUS
10
5.37174
20
-3.37658
11
5.37558
21
-3.38041
0
LINE
8
BLACK
6
CONTINUOUS
10
5.37558
20
-3.38041
11
5.37962
21
-3.38243
0
LINE
8
BLACK
6
CONTINUOUS
10
5.37962
20
-3.38243
11
5.3808
21
-3.38325
0
LINE
8
BLACK
6
CONTINUOUS
10
5.3808
20
-3.38325
11
5.38223
21
-3.38568
0
LINE
8
BLACK
6
CONTINUOUS
10
5.38223
20
-3.38568
11
5.38212
21
-3.38849
0
LINE
8
BLACK
6
CONTINUOUS
10
5.38212
20
-3.38849
11
5.38052
21
-3.3908
0
LINE
8
BLACK
6
CONTINUOUS
10
5.38052
20
-3.3908
11
5.37792
21
-3.39188
0
LINE
8
BLACK
6
CONTINUOUS
10
5.37792
20
-3.39188
11
5.37514
21
-3.39138
0
LINE
8
BLACK
6
CONTINUOUS
10
5.37514
20
-3.39138
11
5.37038
21
-3.389
0
LINE
8
BLACK
6
CONTINUOUS
10
5.37038
20
-3.389
11
5.3692
21
-3.38818
0
LINE
8
BLACK
6
CONTINUOUS
10
5.3692
20
-3.38818
11
5.36916
21
-3.3881
0
LINE
8
BLACK
6
CONTINUOUS
10
5.36916
20
-3.3881
11
5.36908
21
-3.38806
0
LINE
8
BLACK
6
CONTINUOUS
10
5.36908
20
-3.38806
11
5.3681
21
-3.38707
0
LINE
8
BLACK
6
CONTINUOUS
10
5.3681
20
-3.38707
11
5.3681
21
-3.41762
0
LINE
8
BLACK
6
CONTINUOUS
10
5.3681
20
-3.41762
11
5.37738
21
-3.41762
0
LINE
8
BLACK
6
CONTINUOUS
10
5.37738
20
-3.41762
11
5.3788
21
-3.41782
0
LINE
8
BLACK
6
CONTINUOUS
10
5.3788
20
-3.41782
11
5.38117
21
-3.41935
0
LINE
8
BLACK
6
CONTINUOUS
10
5.38117
20
-3.41935
11
5.38233
21
-3.42191
0
LINE
8
BLACK
6
CONTINUOUS
10
5.38233
20
-3.42191
11
5.38193
21
-3.4247
0
LINE
8
BLACK
6
CONTINUOUS
10
5.38193
20
-3.4247
11
5.38008
21
-3.42683
0
LINE
8
BLACK
6
CONTINUOUS
10
5.38008
20
-3.42683
11
5.37738
21
-3.42762
0
LINE
8
BLACK
6
CONTINUOUS
10
5.37738
20
-3.42762
11
5.34881
21
-3.42762
0
LINE
8
BLACK
6
CONTINUOUS
10
5.34881
20
-3.42762
11
5.34739
21
-3.42741
0
LINE
8
BLACK
6
CONTINUOUS
10
5.34739
20
-3.42741
11
5.34502
21
-3.42589
0
LINE
8
BLACK
6
CONTINUOUS
10
5.34502
20
-3.42589
11
5.34386
21
-3.42332
0
LINE
8
BLACK
6
CONTINUOUS
10
5.34386
20
-3.42332
11
5.34426
21
-3.42054
0
LINE
8
BLACK
6
CONTINUOUS
10
5.34426
20
-3.42054
11
5.34611
21
-3.41841
0
LINE
8
BLACK
6
CONTINUOUS
10
5.34611
20
-3.41841
11
5.34881
21
-3.41762
0
LINE
8
BLACK
6
CONTINUOUS
10
5.34881
20
-3.41762
11
5.3581
21
-3.41762
0
LINE
8
BLACK
6
CONTINUOUS
10
5.3581
20
-3.41762
11
5.3581
21
-3.37262
0
LINE
8
BLACK
6
CONTINUOUS
10
5.3581
20
-3.37262
11
5.35828
21
-3.37136
0
LINE
8
BLACK
6
CONTINUOUS
10
5.35828
20
-3.37136
11
5.35828
21
-3.37128
0
LINE
8
BLACK
6
CONTINUOUS
10
5.35828
20
-3.37128
11
5.35829
21
-3.37126
0
LINE
8
BLACK
6
CONTINUOUS
10
5.35829
20
-3.37126
11
5.3583
21
-3.3712
0
LINE
8
BLACK
6
CONTINUOUS
10
5.3583
20
-3.3712
11
5.35904
21
-3.37005
0
LINE
8
BLACK
6
CONTINUOUS
10
5.35904
20
-3.37005
11
5.35976
21
-3.36889
0
LINE
8
BLACK
6
CONTINUOUS
10
5.35976
20
-3.36889
11
5.3598
21
-3.36887
0
LINE
8
BLACK
6
CONTINUOUS
10
5.3598
20
-3.36887
11
5.35983
21
-3.36883
0
LINE
8
BLACK
6
CONTINUOUS
10
5.35983
20
-3.36883
11
5.36107
21
-3.36827
0
LINE
8
BLACK
6
CONTINUOUS
10
5.36107
20
-3.36827
11
5.36231
21
-3.36768
0
LINE
8
BLACK
6
CONTINUOUS
10
5.36231
20
-3.36768
11
5.36235
21
-3.36769
0
LINE
8
BLACK
6
CONTINUOUS
10
5.36235
20
-3.36769
11
5.36239
21
-3.36767
0
LINE
8
BLACK
6
CONTINUOUS
10
5.36239
20
-3.36767
11
5.36374
21
-3.36786
0
LINE
8
BLACK
6
CONTINUOUS
10
5.41213
20
-3.36782
11
5.41221
21
-3.36787
0
LINE
8
BLACK
6
CONTINUOUS
10
5.41221
20
-3.36787
11
5.4123
21
-3.36788
0
LINE
8
BLACK
6
CONTINUOUS
10
5.4123
20
-3.36788
11
5.41944
21
-3.37026
0
LINE
8
BLACK
6
CONTINUOUS
10
5.41944
20
-3.37026
11
5.42072
21
-3.3709
0
LINE
8
BLACK
6
CONTINUOUS
10
5.42072
20
-3.3709
11
5.421
21
-3.37125
0
LINE
8
BLACK
6
CONTINUOUS
10
5.421
20
-3.37125
11
5.42139
21
-3.37146
0
LINE
8
BLACK
6
CONTINUOUS
10
5.42139
20
-3.37146
11
5.42615
21
-3.37623
0
LINE
8
BLACK
6
CONTINUOUS
10
5.42615
20
-3.37623
11
5.42701
21
-3.37738
0
LINE
8
BLACK
6
CONTINUOUS
10
5.42701
20
-3.37738
11
5.42703
21
-3.37746
0
LINE
8
BLACK
6
CONTINUOUS
10
5.42703
20
-3.37746
11
5.42709
21
-3.37753
0
LINE
8
BLACK
6
CONTINUOUS
10
5.42709
20
-3.37753
11
5.42947
21
-3.38229
0
LINE
8
BLACK
6
CONTINUOUS
10
5.42947
20
-3.38229
11
5.42976
21
-3.38316
0
LINE
8
BLACK
6
CONTINUOUS
10
5.42976
20
-3.38316
11
5.42985
21
-3.38331
0
LINE
8
BLACK
6
CONTINUOUS
10
5.42985
20
-3.38331
11
5.43223
21
-3.39283
0
LINE
8
BLACK
6
CONTINUOUS
10
5.43223
20
-3.39283
11
5.43234
21
-3.39391
0
LINE
8
BLACK
6
CONTINUOUS
10
5.43234
20
-3.39391
11
5.43238
21
-3.39405
0
LINE
8
BLACK
6
CONTINUOUS
10
5.43238
20
-3.39405
11
5.43238
21
-3.40119
0
LINE
8
BLACK
6
CONTINUOUS
10
5.43238
20
-3.40119
11
5.43223
21
-3.40226
0
LINE
8
BLACK
6
CONTINUOUS
10
5.43223
20
-3.40226
11
5.43223
21
-3.4024
0
LINE
8
BLACK
6
CONTINUOUS
10
5.43223
20
-3.4024
11
5.42985
21
-3.41193
0
LINE
8
BLACK
6
CONTINUOUS
10
5.42985
20
-3.41193
11
5.4295
21
-3.41277
0
LINE
8
BLACK
6
CONTINUOUS
10
5.4295
20
-3.41277
11
5.42947
21
-3.41295
0
LINE
8
BLACK
6
CONTINUOUS
10
5.42947
20
-3.41295
11
5.42709
21
-3.41771
0
LINE
8
BLACK
6
CONTINUOUS
10
5.42709
20
-3.41771
11
5.42627
21
-3.41889
0
LINE
8
BLACK
6
CONTINUOUS
10
5.42627
20
-3.41889
11
5.4262
21
-3.41893
0
LINE
8
BLACK
6
CONTINUOUS
10
5.4262
20
-3.41893
11
5.42615
21
-3.41901
0
LINE
8
BLACK
6
CONTINUOUS
10
5.42615
20
-3.41901
11
5.42139
21
-3.42377
0
LINE
8
BLACK
6
CONTINUOUS
10
5.42139
20
-3.42377
11
5.42024
21
-3.42463
0
LINE
8
BLACK
6
CONTINUOUS
10
5.42024
20
-3.42463
11
5.41981
21
-3.42473
0
LINE
8
BLACK
6
CONTINUOUS
10
5.41981
20
-3.42473
11
5.41944
21
-3.42498
0
LINE
8
BLACK
6
CONTINUOUS
10
5.41944
20
-3.42498
11
5.4123
21
-3.42736
0
LINE
8
BLACK
6
CONTINUOUS
10
5.4123
20
-3.42736
11
5.41088
21
-3.42762
0
LINE
8
BLACK
6
CONTINUOUS
10
5.41088
20
-3.42762
11
5.4108
21
-3.42759
0
LINE
8
BLACK
6
CONTINUOUS
10
5.4108
20
-3.42759
11
5.41071
21
-3.42762
0
LINE
8
BLACK
6
CONTINUOUS
10
5.41071
20
-3.42762
11
5.40595
21
-3.42762
0
LINE
8
BLACK
6
CONTINUOUS
10
5.40595
20
-3.42762
11
5.40453
21
-3.42741
0
LINE
8
BLACK
6
CONTINUOUS
10
5.40453
20
-3.42741
11
5.40446
21
-3.42737
0
LINE
8
BLACK
6
CONTINUOUS
10
5.40446
20
-3.42737
11
5.40437
21
-3.42736
0
LINE
8
BLACK
6
CONTINUOUS
10
5.40437
20
-3.42736
11
5.39723
21
-3.42498
0
LINE
8
BLACK
6
CONTINUOUS
10
5.39723
20
-3.42498
11
5.39595
21
-3.42434
0
LINE
8
BLACK
6
CONTINUOUS
10
5.39595
20
-3.42434
11
5.39567
21
-3.42399
0
LINE
8
BLACK
6
CONTINUOUS
10
5.39567
20
-3.42399
11
5.39527
21
-3.42377
0
LINE
8
BLACK
6
CONTINUOUS
10
5.39527
20
-3.42377
11
5.39289
21
-3.42139
0
LINE
8
BLACK
6
CONTINUOUS
10
5.39289
20
-3.42139
11
5.39203
21
-3.42024
0
LINE
8
BLACK
6
CONTINUOUS
10
5.39203
20
-3.42024
11
5.39144
21
-3.41749
0
LINE
8
BLACK
6
CONTINUOUS
10
5.39144
20
-3.41749
11
5.39243
21
-3.41485
0
LINE
8
BLACK
6
CONTINUOUS
10
5.39243
20
-3.41485
11
5.39469
21
-3.41317
0
LINE
8
BLACK
6
CONTINUOUS
10
5.39469
20
-3.41317
11
5.39749
21
-3.41297
0
LINE
8
BLACK
6
CONTINUOUS
10
5.39749
20
-3.41297
11
5.39996
21
-3.41432
0
LINE
8
BLACK
6
CONTINUOUS
10
5.39996
20
-3.41432
11
5.40151
21
-3.41587
0
LINE
8
BLACK
6
CONTINUOUS
10
5.40151
20
-3.41587
11
5.40676
21
-3.41762
0
LINE
8
BLACK
6
CONTINUOUS
10
5.40676
20
-3.41762
11
5.4099
21
-3.41762
0
LINE
8
BLACK
6
CONTINUOUS
10
5.4099
20
-3.41762
11
5.41516
21
-3.41587
0
LINE
8
BLACK
6
CONTINUOUS
10
5.41516
20
-3.41587
11
5.41851
21
-3.41251
0
LINE
8
BLACK
6
CONTINUOUS
10
5.41851
20
-3.41251
11
5.42028
21
-3.40897
0
LINE
8
BLACK
6
CONTINUOUS
10
5.42028
20
-3.40897
11
5.42238
21
-3.40057
0
LINE
8
BLACK
6
CONTINUOUS
10
5.42238
20
-3.40057
11
5.42238
21
-3.39466
0
LINE
8
BLACK
6
CONTINUOUS
10
5.42238
20
-3.39466
11
5.42028
21
-3.38627
0
LINE
8
BLACK
6
CONTINUOUS
10
5.42028
20
-3.38627
11
5.41851
21
-3.38272
0
LINE
8
BLACK
6
CONTINUOUS
10
5.41851
20
-3.38272
11
5.41516
21
-3.37937
0
LINE
8
BLACK
6
CONTINUOUS
10
5.41516
20
-3.37937
11
5.4099
21
-3.37762
0
LINE
8
BLACK
6
CONTINUOUS
10
5.4099
20
-3.37762
11
5.40676
21
-3.37762
0
LINE
8
BLACK
6
CONTINUOUS
10
5.40676
20
-3.37762
11
5.40151
21
-3.37937
0
LINE
8
BLACK
6
CONTINUOUS
10
5.40151
20
-3.37937
11
5.39996
21
-3.38092
0
LINE
8
BLACK
6
CONTINUOUS
10
5.39996
20
-3.38092
11
5.39881
21
-3.38178
0
LINE
8
BLACK
6
CONTINUOUS
10
5.39881
20
-3.38178
11
5.39606
21
-3.38237
0
LINE
8
BLACK
6
CONTINUOUS
10
5.39606
20
-3.38237
11
5.39343
21
-3.38138
0
LINE
8
BLACK
6
CONTINUOUS
10
5.39343
20
-3.38138
11
5.39174
21
-3.37912
0
LINE
8
BLACK
6
CONTINUOUS
10
5.39174
20
-3.37912
11
5.39154
21
-3.37632
0
LINE
8
BLACK
6
CONTINUOUS
10
5.39154
20
-3.37632
11
5.39289
21
-3.37385
0
LINE
8
BLACK
6
CONTINUOUS
10
5.39289
20
-3.37385
11
5.39527
21
-3.37146
0
LINE
8
BLACK
6
CONTINUOUS
10
5.39527
20
-3.37146
11
5.39642
21
-3.37061
0
LINE
8
BLACK
6
CONTINUOUS
10
5.39642
20
-3.37061
11
5.39686
21
-3.37051
0
LINE
8
BLACK
6
CONTINUOUS
10
5.39686
20
-3.37051
11
5.39723
21
-3.37026
0
LINE
8
BLACK
6
CONTINUOUS
10
5.39723
20
-3.37026
11
5.40437
21
-3.36788
0
LINE
8
BLACK
6
CONTINUOUS
10
5.40437
20
-3.36788
11
5.40578
21
-3.36762
0
LINE
8
BLACK
6
CONTINUOUS
10
5.40578
20
-3.36762
11
5.40587
21
-3.36764
0
LINE
8
BLACK
6
CONTINUOUS
10
5.40587
20
-3.36764
11
5.40595
21
-3.36762
0
LINE
8
BLACK
6
CONTINUOUS
10
5.40595
20
-3.36762
11
5.41071
21
-3.36762
0
LINE
8
BLACK
6
CONTINUOUS
10
5.41071
20
-3.36762
11
5.41213
21
-3.36782
0
LINE
8
BLACK
6
CONTINUOUS
10
5.45089
20
-3.36807
11
5.45302
21
-3.36992
0
LINE
8
BLACK
6
CONTINUOUS
10
5.45302
20
-3.36992
11
5.45381
21
-3.37262
0
LINE
8
BLACK
6
CONTINUOUS
10
5.45381
20
-3.37262
11
5.45381
21
-3.42262
0
LINE
8
BLACK
6
CONTINUOUS
10
5.45381
20
-3.42262
11
5.4536
21
-3.42404
0
LINE
8
BLACK
6
CONTINUOUS
10
5.4536
20
-3.42404
11
5.45208
21
-3.4264
0
LINE
8
BLACK
6
CONTINUOUS
10
5.45208
20
-3.4264
11
5.44951
21
-3.42757
0
LINE
8
BLACK
6
CONTINUOUS
10
5.44951
20
-3.42757
11
5.44673
21
-3.42717
0
LINE
8
BLACK
6
CONTINUOUS
10
5.44673
20
-3.42717
11
5.4446
21
-3.42532
0
LINE
8
BLACK
6
CONTINUOUS
10
5.4446
20
-3.42532
11
5.44381
21
-3.42262
0
LINE
8
BLACK
6
CONTINUOUS
10
5.44381
20
-3.42262
11
5.44381
21
-3.37262
0
LINE
8
BLACK
6
CONTINUOUS
10
5.44381
20
-3.37262
11
5.44402
21
-3.3712
0
LINE
8
BLACK
6
CONTINUOUS
10
5.44402
20
-3.3712
11
5.44554
21
-3.36883
0
LINE
8
BLACK
6
CONTINUOUS
10
5.44554
20
-3.36883
11
5.4481
21
-3.36767
0
LINE
8
BLACK
6
CONTINUOUS
10
5.4481
20
-3.36767
11
5.45089
21
-3.36807
  0
ENDSEC
  0
EOF
