  0
SECTION
  2
HEADER
  9
$ANGBASE
  50
0.0
  9
$ANGDIR
  70
1
  9
$MEASUREMENT
  70
0
  0
ENDSEC
  0
SECTION
  2
TABLES
  0
TABLE
  2
LTYPE
  70
4
  0
LTYPE
  5
40F
  2
CONTINUOUS
  70
0
  3
Solid line
  72
65
  73
0
  40
0.0
  0
LTYPE
  5
410
  2
DASHDOT
 70
0
  3
Dash Dot ____ _ ____ _
 72
65
 73
4
 40
2.0
 49
1.25
 49
-0.25
 49
0.25
 49
-0.25
  0
LTYPE
  5
411
  2
DASHED
 70
0
  3
Dashed __ __ __ __ __
 72
65
 73
2
 40
0.75
 49
0.5
 49
-0.25
  0
LTYPE
  5
43B
  2
DOTTED
 70
0
  3
Dotted .  .  .  .
 72
65
 73
2
 40
0.2
 49
0.0
 49
-0.2
  0
ENDTAB
  0
TABLE
  2
STYLE
  70
4
  0
STYLE
  2
KICAD
  70
0
  40
0
  41
1
  42
1
  50
0
  71
0
  3
isocp.shx
  0
STYLE
  2
KICADB
  70
0
  40
0
  41
1
  42
1
  50
0
  71
0
  3
isocp.shx
  0
STYLE
  2
KICADI
  70
0
  40
0
  41
1
  42
1
  50
15
  71
0
  3
isocp.shx
  0
STYLE
  2
KICADBI
  70
0
  40
0
  41
1
  42
1
  50
15
  71
0
  3
isocp.shx
  0
ENDTAB
  0
TABLE
  2
LAYER
  70
1
  0
LAYER
  2
BLACK
  70
0
  62
7
  6
CONTINUOUS
  0
ENDTAB
  0
ENDSEC
  0
SECTION
  2
ENTITIES
0
LINE
8
BLACK
6
CONTINUOUS
10
4.83081
20
-2.8323
11
4.83292
21
-2.83047
0
LINE
8
BLACK
6
CONTINUOUS
10
4.83292
20
-2.83047
11
4.83498
21
-2.83002
0
LINE
8
BLACK
6
CONTINUOUS
10
4.83498
20
-2.83002
11
5.96502
21
-2.83002
0
LINE
8
BLACK
6
CONTINUOUS
10
5.96502
20
-2.83002
11
5.9677
21
-2.83081
0
LINE
8
BLACK
6
CONTINUOUS
10
5.9677
20
-2.83081
11
5.96953
21
-2.83292
0
LINE
8
BLACK
6
CONTINUOUS
10
5.96953
20
-2.83292
11
5.96998
21
-2.83498
0
LINE
8
BLACK
6
CONTINUOUS
10
5.96998
20
-2.83498
11
5.96998
21
-3.96502
0
LINE
8
BLACK
6
CONTINUOUS
10
5.96998
20
-3.96502
11
5.96919
21
-3.9677
0
LINE
8
BLACK
6
CONTINUOUS
10
5.96919
20
-3.9677
11
5.96708
21
-3.96953
0
LINE
8
BLACK
6
CONTINUOUS
10
5.96708
20
-3.96953
11
5.96502
21
-3.96998
0
LINE
8
BLACK
6
CONTINUOUS
10
5.96502
20
-3.96998
11
4.83498
21
-3.96998
0
LINE
8
BLACK
6
CONTINUOUS
10
4.83498
20
-3.96998
11
4.8323
21
-3.96919
0
LINE
8
BLACK
6
CONTINUOUS
10
4.8323
20
-3.96919
11
4.83047
21
-3.96708
0
LINE
8
BLACK
6
CONTINUOUS
10
4.83047
20
-3.96708
11
4.83002
21
-3.96502
0
LINE
8
BLACK
6
CONTINUOUS
10
4.83002
20
-3.96502
11
4.83002
21
-2.83498
0
LINE
8
BLACK
6
CONTINUOUS
10
4.83002
20
-2.83498
11
4.83081
21
-2.8323
0
LINE
8
BLACK
6
CONTINUOUS
10
5.86023
20
-3.59993
11
5.86053
21
-3.6
0
LINE
8
BLACK
6
CONTINUOUS
10
5.86053
20
-3.6
11
5.88176
21
-3.6
0
LINE
8
BLACK
6
CONTINUOUS
10
5.88176
20
-3.6
11
5.88203
21
-3.59999
0
LINE
8
BLACK
6
CONTINUOUS
10
5.88203
20
-3.59999
11
5.88403
21
-3.59977
0
LINE
8
BLACK
6
CONTINUOUS
10
5.88403
20
-3.59977
11
5.88463
21
-3.59963
0
LINE
8
BLACK
6
CONTINUOUS
10
5.88463
20
-3.59963
11
5.88937
21
-3.59785
0
LINE
8
BLACK
6
CONTINUOUS
10
5.88937
20
-3.59785
11
5.88999
21
-3.59751
0
LINE
8
BLACK
6
CONTINUOUS
10
5.88999
20
-3.59751
11
5.894
21
-3.5945
0
LINE
8
BLACK
6
CONTINUOUS
10
5.894
20
-3.5945
11
5.8945
21
-3.594
0
LINE
8
BLACK
6
CONTINUOUS
10
5.8945
20
-3.594
11
5.89751
21
-3.58999
0
LINE
8
BLACK
6
CONTINUOUS
10
5.89751
20
-3.58999
11
5.89785
21
-3.58937
0
LINE
8
BLACK
6
CONTINUOUS
10
5.89785
20
-3.58937
11
5.89963
21
-3.58463
0
LINE
8
BLACK
6
CONTINUOUS
10
5.89963
20
-3.58463
11
5.89977
21
-3.58403
0
LINE
8
BLACK
6
CONTINUOUS
10
5.89977
20
-3.58403
11
5.89999
21
-3.58203
0
LINE
8
BLACK
6
CONTINUOUS
10
5.89999
20
-3.58203
11
5.9
21
-3.58176
0
LINE
8
BLACK
6
CONTINUOUS
10
5.9
20
-3.58176
11
5.9
21
-3.56071
0
LINE
8
BLACK
6
CONTINUOUS
10
5.9
20
-3.56071
11
5.89982
21
-3.56011
0
LINE
8
BLACK
6
CONTINUOUS
10
5.89982
20
-3.56011
11
5.89977
21
-3.56007
0
LINE
8
BLACK
6
CONTINUOUS
10
5.89977
20
-3.56007
11
5.89947
21
-3.56
0
LINE
8
BLACK
6
CONTINUOUS
10
5.89947
20
-3.56
11
5.88
21
-3.56
0
LINE
8
BLACK
6
CONTINUOUS
10
5.88
20
-3.56
11
5.88
21
-3.58
0
LINE
8
BLACK
6
CONTINUOUS
10
5.88
20
-3.58
11
5.86
21
-3.58
0
LINE
8
BLACK
6
CONTINUOUS
10
5.86
20
-3.58
11
5.86
21
-3.59929
0
LINE
8
BLACK
6
CONTINUOUS
10
5.86
20
-3.59929
11
5.86018
21
-3.59989
0
LINE
8
BLACK
6
CONTINUOUS
10
5.86018
20
-3.59989
11
5.86023
21
-3.59993
0
LINE
8
BLACK
6
CONTINUOUS
10
5.88
20
-3.46
11
5.88
21
-3.48
0
LINE
8
BLACK
6
CONTINUOUS
10
5.88
20
-3.48
11
5.86
21
-3.48
0
LINE
8
BLACK
6
CONTINUOUS
10
5.86
20
-3.48
11
5.86
21
-3.52
0
LINE
8
BLACK
6
CONTINUOUS
10
5.86
20
-3.52
11
5.88
21
-3.52
0
LINE
8
BLACK
6
CONTINUOUS
10
5.88
20
-3.52
11
5.88
21
-3.54
0
LINE
8
BLACK
6
CONTINUOUS
10
5.88
20
-3.54
11
5.89929
21
-3.54
0
LINE
8
BLACK
6
CONTINUOUS
10
5.89929
20
-3.54
11
5.89989
21
-3.53982
0
LINE
8
BLACK
6
CONTINUOUS
10
5.89989
20
-3.53982
11
5.89993
21
-3.53977
0
LINE
8
BLACK
6
CONTINUOUS
10
5.89993
20
-3.53977
11
5.9
21
-3.53947
0
LINE
8
BLACK
6
CONTINUOUS
10
5.9
20
-3.53947
11
5.9
21
-3.51824
0
LINE
8
BLACK
6
CONTINUOUS
10
5.9
20
-3.51824
11
5.89999
21
-3.51797
0
LINE
8
BLACK
6
CONTINUOUS
10
5.89999
20
-3.51797
11
5.89977
21
-3.51597
0
LINE
8
BLACK
6
CONTINUOUS
10
5.89977
20
-3.51597
11
5.89963
21
-3.51537
0
LINE
8
BLACK
6
CONTINUOUS
10
5.89963
20
-3.51537
11
5.89785
21
-3.51063
0
LINE
8
BLACK
6
CONTINUOUS
10
5.89785
20
-3.51063
11
5.89751
21
-3.51001
0
LINE
8
BLACK
6
CONTINUOUS
10
5.89751
20
-3.51001
11
5.8945
21
-3.506
0
LINE
8
BLACK
6
CONTINUOUS
10
5.8945
20
-3.506
11
5.894
21
-3.5055
0
LINE
8
BLACK
6
CONTINUOUS
10
5.894
20
-3.5055
11
5.89196
21
-3.50397
0
LINE
8
BLACK
6
CONTINUOUS
10
5.89196
20
-3.50397
11
5.89029
21
-3.50173
0
LINE
8
BLACK
6
CONTINUOUS
10
5.89029
20
-3.50173
11
5.89009
21
-3.49894
0
LINE
8
BLACK
6
CONTINUOUS
10
5.89009
20
-3.49894
11
5.89143
21
-3.49649
0
LINE
8
BLACK
6
CONTINUOUS
10
5.89143
20
-3.49649
11
5.89196
21
-3.49603
0
LINE
8
BLACK
6
CONTINUOUS
10
5.89196
20
-3.49603
11
5.894
21
-3.4945
0
LINE
8
BLACK
6
CONTINUOUS
10
5.894
20
-3.4945
11
5.8945
21
-3.494
0
LINE
8
BLACK
6
CONTINUOUS
10
5.8945
20
-3.494
11
5.89751
21
-3.48999
0
LINE
8
BLACK
6
CONTINUOUS
10
5.89751
20
-3.48999
11
5.89785
21
-3.48937
0
LINE
8
BLACK
6
CONTINUOUS
10
5.89785
20
-3.48937
11
5.89963
21
-3.48463
0
LINE
8
BLACK
6
CONTINUOUS
10
5.89963
20
-3.48463
11
5.89977
21
-3.48403
0
LINE
8
BLACK
6
CONTINUOUS
10
5.89977
20
-3.48403
11
5.89999
21
-3.48203
0
LINE
8
BLACK
6
CONTINUOUS
10
5.89999
20
-3.48203
11
5.9
21
-3.48176
0
LINE
8
BLACK
6
CONTINUOUS
10
5.9
20
-3.48176
11
5.9
21
-3.46071
0
LINE
8
BLACK
6
CONTINUOUS
10
5.9
20
-3.46071
11
5.89982
21
-3.46011
0
LINE
8
BLACK
6
CONTINUOUS
10
5.89982
20
-3.46011
11
5.89977
21
-3.46007
0
LINE
8
BLACK
6
CONTINUOUS
10
5.89977
20
-3.46007
11
5.89947
21
-3.46
0
LINE
8
BLACK
6
CONTINUOUS
10
5.89947
20
-3.46
11
5.88
21
-3.46
0
LINE
8
BLACK
6
CONTINUOUS
10
5.20307
20
-3.31493
11
5.20337
21
-3.315
0
LINE
8
BLACK
6
CONTINUOUS
10
5.20337
20
-3.315
11
5.22283
21
-3.315
0
LINE
8
BLACK
6
CONTINUOUS
10
5.22283
20
-3.315
11
5.22283
21
-3.3122
0
LINE
8
BLACK
6
CONTINUOUS
10
5.22283
20
-3.3122
11
5.24531
21
-3.3122
0
LINE
8
BLACK
6
CONTINUOUS
10
5.24531
20
-3.3122
11
5.24531
21
-3.29292
0
LINE
8
BLACK
6
CONTINUOUS
10
5.24531
20
-3.29292
11
5.24514
21
-3.29232
0
LINE
8
BLACK
6
CONTINUOUS
10
5.24514
20
-3.29232
11
5.24508
21
-3.29227
0
LINE
8
BLACK
6
CONTINUOUS
10
5.24508
20
-3.29227
11
5.24478
21
-3.2922
0
LINE
8
BLACK
6
CONTINUOUS
10
5.24478
20
-3.2922
11
5.22108
21
-3.2922
0
LINE
8
BLACK
6
CONTINUOUS
10
5.22108
20
-3.2922
11
5.22081
21
-3.29222
0
LINE
8
BLACK
6
CONTINUOUS
10
5.22081
20
-3.29222
11
5.21881
21
-3.29244
0
LINE
8
BLACK
6
CONTINUOUS
10
5.21881
20
-3.29244
11
5.2182
21
-3.29258
0
LINE
8
BLACK
6
CONTINUOUS
10
5.2182
20
-3.29258
11
5.21346
21
-3.29436
0
LINE
8
BLACK
6
CONTINUOUS
10
5.21346
20
-3.29436
11
5.21285
21
-3.29469
0
LINE
8
BLACK
6
CONTINUOUS
10
5.21285
20
-3.29469
11
5.20883
21
-3.29771
0
LINE
8
BLACK
6
CONTINUOUS
10
5.20883
20
-3.29771
11
5.20834
21
-3.2982
0
LINE
8
BLACK
6
CONTINUOUS
10
5.20834
20
-3.2982
11
5.20532
21
-3.30222
0
LINE
8
BLACK
6
CONTINUOUS
10
5.20532
20
-3.30222
11
5.20499
21
-3.30283
0
LINE
8
BLACK
6
CONTINUOUS
10
5.20499
20
-3.30283
11
5.20321
21
-3.30757
0
LINE
8
BLACK
6
CONTINUOUS
10
5.20321
20
-3.30757
11
5.20307
21
-3.30818
0
LINE
8
BLACK
6
CONTINUOUS
10
5.20307
20
-3.30818
11
5.20285
21
-3.31018
0
LINE
8
BLACK
6
CONTINUOUS
10
5.20285
20
-3.31018
11
5.20283
21
-3.31045
0
LINE
8
BLACK
6
CONTINUOUS
10
5.20283
20
-3.31045
11
5.20283
21
-3.31429
0
LINE
8
BLACK
6
CONTINUOUS
10
5.20283
20
-3.31429
11
5.20301
21
-3.31489
0
LINE
8
BLACK
6
CONTINUOUS
10
5.20301
20
-3.31489
11
5.20307
21
-3.31493
0
LINE
8
BLACK
6
CONTINUOUS
10
5.26603
20
-3.2922
11
5.26543
21
-3.29238
0
LINE
8
BLACK
6
CONTINUOUS
10
5.26543
20
-3.29238
11
5.26538
21
-3.29244
0
LINE
8
BLACK
6
CONTINUOUS
10
5.26538
20
-3.29244
11
5.26531
21
-3.29274
0
LINE
8
BLACK
6
CONTINUOUS
10
5.26531
20
-3.29274
11
5.26531
21
-3.3122
0
LINE
8
BLACK
6
CONTINUOUS
10
5.26531
20
-3.3122
11
5.2878
21
-3.3122
0
LINE
8
BLACK
6
CONTINUOUS
10
5.2878
20
-3.3122
11
5.2878
21
-3.315
0
LINE
8
BLACK
6
CONTINUOUS
10
5.2878
20
-3.315
11
5.30708
21
-3.315
0
LINE
8
BLACK
6
CONTINUOUS
10
5.30708
20
-3.315
11
5.30768
21
-3.31482
0
LINE
8
BLACK
6
CONTINUOUS
10
5.30768
20
-3.31482
11
5.30773
21
-3.31477
0
LINE
8
BLACK
6
CONTINUOUS
10
5.30773
20
-3.31477
11
5.3078
21
-3.31447
0
LINE
8
BLACK
6
CONTINUOUS
10
5.3078
20
-3.31447
11
5.3078
21
-3.31045
0
LINE
8
BLACK
6
CONTINUOUS
10
5.3078
20
-3.31045
11
5.30778
21
-3.31018
0
LINE
8
BLACK
6
CONTINUOUS
10
5.30778
20
-3.31018
11
5.30756
21
-3.30818
0
LINE
8
BLACK
6
CONTINUOUS
10
5.30756
20
-3.30818
11
5.30742
21
-3.30757
0
LINE
8
BLACK
6
CONTINUOUS
10
5.30742
20
-3.30757
11
5.30564
21
-3.30283
0
LINE
8
BLACK
6
CONTINUOUS
10
5.30564
20
-3.30283
11
5.30531
21
-3.30222
0
LINE
8
BLACK
6
CONTINUOUS
10
5.30531
20
-3.30222
11
5.30229
21
-3.2982
0
LINE
8
BLACK
6
CONTINUOUS
10
5.30229
20
-3.2982
11
5.3018
21
-3.29771
0
LINE
8
BLACK
6
CONTINUOUS
10
5.3018
20
-3.29771
11
5.29778
21
-3.29469
0
LINE
8
BLACK
6
CONTINUOUS
10
5.29778
20
-3.29469
11
5.29717
21
-3.29436
0
LINE
8
BLACK
6
CONTINUOUS
10
5.29717
20
-3.29436
11
5.29243
21
-3.29258
0
LINE
8
BLACK
6
CONTINUOUS
10
5.29243
20
-3.29258
11
5.29182
21
-3.29244
0
LINE
8
BLACK
6
CONTINUOUS
10
5.29182
20
-3.29244
11
5.28982
21
-3.29222
0
LINE
8
BLACK
6
CONTINUOUS
10
5.28982
20
-3.29222
11
5.28955
21
-3.2922
0
LINE
8
BLACK
6
CONTINUOUS
10
5.28955
20
-3.2922
11
5.26603
21
-3.2922
0
LINE
8
BLACK
6
CONTINUOUS
10
5.06071
20
-3.25
11
5.06011
21
-3.25018
0
LINE
8
BLACK
6
CONTINUOUS
10
5.06011
20
-3.25018
11
5.06007
21
-3.25023
0
LINE
8
BLACK
6
CONTINUOUS
10
5.06007
20
-3.25023
11
5.06
21
-3.25053
0
LINE
8
BLACK
6
CONTINUOUS
10
5.06
20
-3.25053
11
5.06
21
-3.27
0
LINE
8
BLACK
6
CONTINUOUS
10
5.06
20
-3.27
11
5.08
21
-3.27
0
LINE
8
BLACK
6
CONTINUOUS
10
5.08
20
-3.27
11
5.08
21
-3.29
0
LINE
8
BLACK
6
CONTINUOUS
10
5.08
20
-3.29
11
5.09929
21
-3.29
0
LINE
8
BLACK
6
CONTINUOUS
10
5.09929
20
-3.29
11
5.09989
21
-3.28982
0
LINE
8
BLACK
6
CONTINUOUS
10
5.09989
20
-3.28982
11
5.09993
21
-3.28977
0
LINE
8
BLACK
6
CONTINUOUS
10
5.09993
20
-3.28977
11
5.1
21
-3.28947
0
LINE
8
BLACK
6
CONTINUOUS
10
5.1
20
-3.28947
11
5.1
21
-3.26824
0
LINE
8
BLACK
6
CONTINUOUS
10
5.1
20
-3.26824
11
5.09999
21
-3.26797
0
LINE
8
BLACK
6
CONTINUOUS
10
5.09999
20
-3.26797
11
5.09977
21
-3.26597
0
LINE
8
BLACK
6
CONTINUOUS
10
5.09977
20
-3.26597
11
5.09963
21
-3.26537
0
LINE
8
BLACK
6
CONTINUOUS
10
5.09963
20
-3.26537
11
5.09785
21
-3.26063
0
LINE
8
BLACK
6
CONTINUOUS
10
5.09785
20
-3.26063
11
5.09751
21
-3.26001
0
LINE
8
BLACK
6
CONTINUOUS
10
5.09751
20
-3.26001
11
5.0945
21
-3.256
0
LINE
8
BLACK
6
CONTINUOUS
10
5.0945
20
-3.256
11
5.094
21
-3.2555
0
LINE
8
BLACK
6
CONTINUOUS
10
5.094
20
-3.2555
11
5.08999
21
-3.25249
0
LINE
8
BLACK
6
CONTINUOUS
10
5.08999
20
-3.25249
11
5.08937
21
-3.25215
0
LINE
8
BLACK
6
CONTINUOUS
10
5.08937
20
-3.25215
11
5.08463
21
-3.25037
0
LINE
8
BLACK
6
CONTINUOUS
10
5.08463
20
-3.25037
11
5.08403
21
-3.25023
0
LINE
8
BLACK
6
CONTINUOUS
10
5.08403
20
-3.25023
11
5.08203
21
-3.25001
0
LINE
8
BLACK
6
CONTINUOUS
10
5.08203
20
-3.25001
11
5.08176
21
-3.25
0
LINE
8
BLACK
6
CONTINUOUS
10
5.08176
20
-3.25
11
5.06071
21
-3.25
0
LINE
8
BLACK
6
CONTINUOUS
10
4.96071
20
-3.25
11
4.96011
21
-3.25018
0
LINE
8
BLACK
6
CONTINUOUS
10
4.96011
20
-3.25018
11
4.96007
21
-3.25023
0
LINE
8
BLACK
6
CONTINUOUS
10
4.96007
20
-3.25023
11
4.96
21
-3.25053
0
LINE
8
BLACK
6
CONTINUOUS
10
4.96
20
-3.25053
11
4.96
21
-3.27
0
LINE
8
BLACK
6
CONTINUOUS
10
4.96
20
-3.27
11
4.98
21
-3.27
0
LINE
8
BLACK
6
CONTINUOUS
10
4.98
20
-3.27
11
4.98
21
-3.29
0
LINE
8
BLACK
6
CONTINUOUS
10
4.98
20
-3.29
11
5.02
21
-3.29
0
LINE
8
BLACK
6
CONTINUOUS
10
5.02
20
-3.29
11
5.02
21
-3.27
0
LINE
8
BLACK
6
CONTINUOUS
10
5.02
20
-3.27
11
5.04
21
-3.27
0
LINE
8
BLACK
6
CONTINUOUS
10
5.04
20
-3.27
11
5.04
21
-3.25071
0
LINE
8
BLACK
6
CONTINUOUS
10
5.04
20
-3.25071
11
5.03982
21
-3.25011
0
LINE
8
BLACK
6
CONTINUOUS
10
5.03982
20
-3.25011
11
5.03977
21
-3.25007
0
LINE
8
BLACK
6
CONTINUOUS
10
5.03977
20
-3.25007
11
5.03947
21
-3.25
0
LINE
8
BLACK
6
CONTINUOUS
10
5.03947
20
-3.25
11
5.01824
21
-3.25
0
LINE
8
BLACK
6
CONTINUOUS
10
5.01824
20
-3.25
11
5.01797
21
-3.25001
0
LINE
8
BLACK
6
CONTINUOUS
10
5.01797
20
-3.25001
11
5.01597
21
-3.25023
0
LINE
8
BLACK
6
CONTINUOUS
10
5.01597
20
-3.25023
11
5.01537
21
-3.25037
0
LINE
8
BLACK
6
CONTINUOUS
10
5.01537
20
-3.25037
11
5.01063
21
-3.25215
0
LINE
8
BLACK
6
CONTINUOUS
10
5.01063
20
-3.25215
11
5.01001
21
-3.25249
0
LINE
8
BLACK
6
CONTINUOUS
10
5.01001
20
-3.25249
11
5.006
21
-3.2555
0
LINE
8
BLACK
6
CONTINUOUS
10
5.006
20
-3.2555
11
5.0055
21
-3.256
0
LINE
8
BLACK
6
CONTINUOUS
10
5.0055
20
-3.256
11
5.00397
21
-3.25804
0
LINE
8
BLACK
6
CONTINUOUS
10
5.00397
20
-3.25804
11
5.00173
21
-3.25971
0
LINE
8
BLACK
6
CONTINUOUS
10
5.00173
20
-3.25971
11
4.99894
21
-3.25991
0
LINE
8
BLACK
6
CONTINUOUS
10
4.99894
20
-3.25991
11
4.99649
21
-3.25857
0
LINE
8
BLACK
6
CONTINUOUS
10
4.99649
20
-3.25857
11
4.99603
21
-3.25804
0
LINE
8
BLACK
6
CONTINUOUS
10
4.99603
20
-3.25804
11
4.9945
21
-3.256
0
LINE
8
BLACK
6
CONTINUOUS
10
4.9945
20
-3.256
11
4.994
21
-3.2555
0
LINE
8
BLACK
6
CONTINUOUS
10
4.994
20
-3.2555
11
4.98999
21
-3.25249
0
LINE
8
BLACK
6
CONTINUOUS
10
4.98999
20
-3.25249
11
4.98937
21
-3.25215
0
LINE
8
BLACK
6
CONTINUOUS
10
4.98937
20
-3.25215
11
4.98463
21
-3.25037
0
LINE
8
BLACK
6
CONTINUOUS
10
4.98463
20
-3.25037
11
4.98403
21
-3.25023
0
LINE
8
BLACK
6
CONTINUOUS
10
4.98403
20
-3.25023
11
4.98203
21
-3.25001
0
LINE
8
BLACK
6
CONTINUOUS
10
4.98203
20
-3.25001
11
4.98176
21
-3.25
0
LINE
8
BLACK
6
CONTINUOUS
10
4.98176
20
-3.25
11
4.96071
21
-3.25
0
LINE
8
BLACK
6
CONTINUOUS
10
5.06023
20
-3.54993
11
5.06053
21
-3.55
0
LINE
8
BLACK
6
CONTINUOUS
10
5.06053
20
-3.55
11
5.08176
21
-3.55
0
LINE
8
BLACK
6
CONTINUOUS
10
5.08176
20
-3.55
11
5.08203
21
-3.54999
0
LINE
8
BLACK
6
CONTINUOUS
10
5.08203
20
-3.54999
11
5.08403
21
-3.54977
0
LINE
8
BLACK
6
CONTINUOUS
10
5.08403
20
-3.54977
11
5.08463
21
-3.54963
0
LINE
8
BLACK
6
CONTINUOUS
10
5.08463
20
-3.54963
11
5.08937
21
-3.54785
0
LINE
8
BLACK
6
CONTINUOUS
10
5.08937
20
-3.54785
11
5.08999
21
-3.54751
0
LINE
8
BLACK
6
CONTINUOUS
10
5.08999
20
-3.54751
11
5.094
21
-3.5445
0
LINE
8
BLACK
6
CONTINUOUS
10
5.094
20
-3.5445
11
5.0945
21
-3.544
0
LINE
8
BLACK
6
CONTINUOUS
10
5.0945
20
-3.544
11
5.09751
21
-3.53999
0
LINE
8
BLACK
6
CONTINUOUS
10
5.09751
20
-3.53999
11
5.09785
21
-3.53937
0
LINE
8
BLACK
6
CONTINUOUS
10
5.09785
20
-3.53937
11
5.09963
21
-3.53463
0
LINE
8
BLACK
6
CONTINUOUS
10
5.09963
20
-3.53463
11
5.09977
21
-3.53403
0
LINE
8
BLACK
6
CONTINUOUS
10
5.09977
20
-3.53403
11
5.09999
21
-3.53203
0
LINE
8
BLACK
6
CONTINUOUS
10
5.09999
20
-3.53203
11
5.1
21
-3.53176
0
LINE
8
BLACK
6
CONTINUOUS
10
5.1
20
-3.53176
11
5.1
21
-3.51071
0
LINE
8
BLACK
6
CONTINUOUS
10
5.1
20
-3.51071
11
5.09982
21
-3.51011
0
LINE
8
BLACK
6
CONTINUOUS
10
5.09982
20
-3.51011
11
5.09977
21
-3.51007
0
LINE
8
BLACK
6
CONTINUOUS
10
5.09977
20
-3.51007
11
5.09947
21
-3.51
0
LINE
8
BLACK
6
CONTINUOUS
10
5.09947
20
-3.51
11
5.08
21
-3.51
0
LINE
8
BLACK
6
CONTINUOUS
10
5.08
20
-3.51
11
5.08
21
-3.53
0
LINE
8
BLACK
6
CONTINUOUS
10
5.08
20
-3.53
11
5.06
21
-3.53
0
LINE
8
BLACK
6
CONTINUOUS
10
5.06
20
-3.53
11
5.06
21
-3.54929
0
LINE
8
BLACK
6
CONTINUOUS
10
5.06
20
-3.54929
11
5.06018
21
-3.54989
0
LINE
8
BLACK
6
CONTINUOUS
10
5.06018
20
-3.54989
11
5.06023
21
-3.54993
0
LINE
8
BLACK
6
CONTINUOUS
10
4.92
20
-3.53
11
4.92
21
-3.51
0
LINE
8
BLACK
6
CONTINUOUS
10
4.92
20
-3.51
11
4.90071
21
-3.51
0
LINE
8
BLACK
6
CONTINUOUS
10
4.90071
20
-3.51
11
4.90011
21
-3.51018
0
LINE
8
BLACK
6
CONTINUOUS
10
4.90011
20
-3.51018
11
4.90007
21
-3.51023
0
LINE
8
BLACK
6
CONTINUOUS
10
4.90007
20
-3.51023
11
4.9
21
-3.51053
0
LINE
8
BLACK
6
CONTINUOUS
10
4.9
20
-3.51053
11
4.9
21
-3.53176
0
LINE
8
BLACK
6
CONTINUOUS
10
4.9
20
-3.53176
11
4.90001
21
-3.53203
0
LINE
8
BLACK
6
CONTINUOUS
10
4.90001
20
-3.53203
11
4.90023
21
-3.53403
0
LINE
8
BLACK
6
CONTINUOUS
10
4.90023
20
-3.53403
11
4.90037
21
-3.53463
0
LINE
8
BLACK
6
CONTINUOUS
10
4.90037
20
-3.53463
11
4.90215
21
-3.53937
0
LINE
8
BLACK
6
CONTINUOUS
10
4.90215
20
-3.53937
11
4.90249
21
-3.53999
0
LINE
8
BLACK
6
CONTINUOUS
10
4.90249
20
-3.53999
11
4.9055
21
-3.544
0
LINE
8
BLACK
6
CONTINUOUS
10
4.9055
20
-3.544
11
4.906
21
-3.5445
0
LINE
8
BLACK
6
CONTINUOUS
10
4.906
20
-3.5445
11
4.91001
21
-3.54751
0
LINE
8
BLACK
6
CONTINUOUS
10
4.91001
20
-3.54751
11
4.91063
21
-3.54785
0
LINE
8
BLACK
6
CONTINUOUS
10
4.91063
20
-3.54785
11
4.91537
21
-3.54963
0
LINE
8
BLACK
6
CONTINUOUS
10
4.91537
20
-3.54963
11
4.91597
21
-3.54977
0
LINE
8
BLACK
6
CONTINUOUS
10
4.91597
20
-3.54977
11
4.91797
21
-3.54999
0
LINE
8
BLACK
6
CONTINUOUS
10
4.91797
20
-3.54999
11
4.91824
21
-3.55
0
LINE
8
BLACK
6
CONTINUOUS
10
4.91824
20
-3.55
11
4.93929
21
-3.55
0
LINE
8
BLACK
6
CONTINUOUS
10
4.93929
20
-3.55
11
4.93989
21
-3.54982
0
LINE
8
BLACK
6
CONTINUOUS
10
4.93989
20
-3.54982
11
4.93993
21
-3.54977
0
LINE
8
BLACK
6
CONTINUOUS
10
4.93993
20
-3.54977
11
4.94
21
-3.54947
0
LINE
8
BLACK
6
CONTINUOUS
10
4.94
20
-3.54947
11
4.94
21
-3.53
0
LINE
8
BLACK
6
CONTINUOUS
10
4.94
20
-3.53
11
4.92
21
-3.53
0
LINE
8
BLACK
6
CONTINUOUS
10
4.96023
20
-3.54993
11
4.96053
21
-3.55
0
LINE
8
BLACK
6
CONTINUOUS
10
4.96053
20
-3.55
11
4.98176
21
-3.55
0
LINE
8
BLACK
6
CONTINUOUS
10
4.98176
20
-3.55
11
4.98203
21
-3.54999
0
LINE
8
BLACK
6
CONTINUOUS
10
4.98203
20
-3.54999
11
4.98403
21
-3.54977
0
LINE
8
BLACK
6
CONTINUOUS
10
4.98403
20
-3.54977
11
4.98463
21
-3.54963
0
LINE
8
BLACK
6
CONTINUOUS
10
4.98463
20
-3.54963
11
4.98937
21
-3.54785
0
LINE
8
BLACK
6
CONTINUOUS
10
4.98937
20
-3.54785
11
4.98999
21
-3.54751
0
LINE
8
BLACK
6
CONTINUOUS
10
4.98999
20
-3.54751
11
4.994
21
-3.5445
0
LINE
8
BLACK
6
CONTINUOUS
10
4.994
20
-3.5445
11
4.9945
21
-3.544
0
LINE
8
BLACK
6
CONTINUOUS
10
4.9945
20
-3.544
11
4.99603
21
-3.54196
0
LINE
8
BLACK
6
CONTINUOUS
10
4.99603
20
-3.54196
11
4.99827
21
-3.54029
0
LINE
8
BLACK
6
CONTINUOUS
10
4.99827
20
-3.54029
11
5.00106
21
-3.54009
0
LINE
8
BLACK
6
CONTINUOUS
10
5.00106
20
-3.54009
11
5.00351
21
-3.54143
0
LINE
8
BLACK
6
CONTINUOUS
10
5.00351
20
-3.54143
11
5.00397
21
-3.54196
0
LINE
8
BLACK
6
CONTINUOUS
10
5.00397
20
-3.54196
11
5.0055
21
-3.544
0
LINE
8
BLACK
6
CONTINUOUS
10
5.0055
20
-3.544
11
5.006
21
-3.5445
0
LINE
8
BLACK
6
CONTINUOUS
10
5.006
20
-3.5445
11
5.01001
21
-3.54751
0
LINE
8
BLACK
6
CONTINUOUS
10
5.01001
20
-3.54751
11
5.01063
21
-3.54785
0
LINE
8
BLACK
6
CONTINUOUS
10
5.01063
20
-3.54785
11
5.01537
21
-3.54963
0
LINE
8
BLACK
6
CONTINUOUS
10
5.01537
20
-3.54963
11
5.01597
21
-3.54977
0
LINE
8
BLACK
6
CONTINUOUS
10
5.01597
20
-3.54977
11
5.01797
21
-3.54999
0
LINE
8
BLACK
6
CONTINUOUS
10
5.01797
20
-3.54999
11
5.01824
21
-3.55
0
LINE
8
BLACK
6
CONTINUOUS
10
5.01824
20
-3.55
11
5.03929
21
-3.55
0
LINE
8
BLACK
6
CONTINUOUS
10
5.03929
20
-3.55
11
5.03989
21
-3.54982
0
LINE
8
BLACK
6
CONTINUOUS
10
5.03989
20
-3.54982
11
5.03993
21
-3.54977
0
LINE
8
BLACK
6
CONTINUOUS
10
5.03993
20
-3.54977
11
5.04
21
-3.54947
0
LINE
8
BLACK
6
CONTINUOUS
10
5.04
20
-3.54947
11
5.04
21
-3.53
0
LINE
8
BLACK
6
CONTINUOUS
10
5.04
20
-3.53
11
5.02
21
-3.53
0
LINE
8
BLACK
6
CONTINUOUS
10
5.02
20
-3.53
11
5.02
21
-3.51
0
LINE
8
BLACK
6
CONTINUOUS
10
5.02
20
-3.51
11
4.98
21
-3.51
0
LINE
8
BLACK
6
CONTINUOUS
10
4.98
20
-3.51
11
4.98
21
-3.53
0
LINE
8
BLACK
6
CONTINUOUS
10
4.98
20
-3.53
11
4.96
21
-3.53
0
LINE
8
BLACK
6
CONTINUOUS
10
4.96
20
-3.53
11
4.96
21
-3.54929
0
LINE
8
BLACK
6
CONTINUOUS
10
4.96
20
-3.54929
11
4.96018
21
-3.54989
0
LINE
8
BLACK
6
CONTINUOUS
10
4.96018
20
-3.54989
11
4.96023
21
-3.54993
0
LINE
8
BLACK
6
CONTINUOUS
10
5.82
20
-3.58
11
5.82
21
-3.52
0
LINE
8
BLACK
6
CONTINUOUS
10
5.82
20
-3.52
11
5.84
21
-3.52
0
LINE
8
BLACK
6
CONTINUOUS
10
5.84
20
-3.52
11
5.84
21
-3.48
0
LINE
8
BLACK
6
CONTINUOUS
10
5.84
20
-3.48
11
5.82
21
-3.48
0
LINE
8
BLACK
6
CONTINUOUS
10
5.82
20
-3.48
11
5.82
21
-3.42
0
LINE
8
BLACK
6
CONTINUOUS
10
5.82
20
-3.42
11
5.88
21
-3.42
0
LINE
8
BLACK
6
CONTINUOUS
10
5.88
20
-3.42
11
5.88
21
-3.44
0
LINE
8
BLACK
6
CONTINUOUS
10
5.88
20
-3.44
11
5.89929
21
-3.44
0
LINE
8
BLACK
6
CONTINUOUS
10
5.89929
20
-3.44
11
5.89989
21
-3.43982
0
LINE
8
BLACK
6
CONTINUOUS
10
5.89989
20
-3.43982
11
5.89993
21
-3.43977
0
LINE
8
BLACK
6
CONTINUOUS
10
5.89993
20
-3.43977
11
5.9
21
-3.43947
0
LINE
8
BLACK
6
CONTINUOUS
10
5.9
20
-3.43947
11
5.9
21
-3.41824
0
LINE
8
BLACK
6
CONTINUOUS
10
5.9
20
-3.41824
11
5.89999
21
-3.41797
0
LINE
8
BLACK
6
CONTINUOUS
10
5.89999
20
-3.41797
11
5.89977
21
-3.41597
0
LINE
8
BLACK
6
CONTINUOUS
10
5.89977
20
-3.41597
11
5.89963
21
-3.41537
0
LINE
8
BLACK
6
CONTINUOUS
10
5.89963
20
-3.41537
11
5.89785
21
-3.41063
0
LINE
8
BLACK
6
CONTINUOUS
10
5.89785
20
-3.41063
11
5.89751
21
-3.41001
0
LINE
8
BLACK
6
CONTINUOUS
10
5.89751
20
-3.41001
11
5.8945
21
-3.406
0
LINE
8
BLACK
6
CONTINUOUS
10
5.8945
20
-3.406
11
5.894
21
-3.4055
0
LINE
8
BLACK
6
CONTINUOUS
10
5.894
20
-3.4055
11
5.89198
21
-3.40398
0
LINE
8
BLACK
6
CONTINUOUS
10
5.89198
20
-3.40398
11
5.8903
21
-3.40174
0
LINE
8
BLACK
6
CONTINUOUS
10
5.8903
20
-3.40174
11
5.89011
21
-3.39896
0
LINE
8
BLACK
6
CONTINUOUS
10
5.89011
20
-3.39896
11
5.89145
21
-3.3965
0
LINE
8
BLACK
6
CONTINUOUS
10
5.89145
20
-3.3965
11
5.89198
21
-3.39604
0
LINE
8
BLACK
6
CONTINUOUS
10
5.89198
20
-3.39604
11
5.8943
21
-3.3943
0
LINE
8
BLACK
6
CONTINUOUS
10
5.8943
20
-3.3943
11
5.89774
21
-3.38971
0
LINE
8
BLACK
6
CONTINUOUS
10
5.89774
20
-3.38971
11
5.89975
21
-3.38434
0
LINE
8
BLACK
6
CONTINUOUS
10
5.89975
20
-3.38434
11
5.90002
21
-3.3819
0
LINE
8
BLACK
6
CONTINUOUS
10
5.90002
20
-3.3819
11
5.90002
21
-3.3181
0
LINE
8
BLACK
6
CONTINUOUS
10
5.90002
20
-3.3181
11
5.89975
21
-3.31566
0
LINE
8
BLACK
6
CONTINUOUS
10
5.89975
20
-3.31566
11
5.89774
21
-3.31029
0
LINE
8
BLACK
6
CONTINUOUS
10
5.89774
20
-3.31029
11
5.8943
21
-3.3057
0
LINE
8
BLACK
6
CONTINUOUS
10
5.8943
20
-3.3057
11
5.89199
21
-3.30397
0
LINE
8
BLACK
6
CONTINUOUS
10
5.89199
20
-3.30397
11
5.89032
21
-3.30173
0
LINE
8
BLACK
6
CONTINUOUS
10
5.89032
20
-3.30173
11
5.89012
21
-3.29894
0
LINE
8
BLACK
6
CONTINUOUS
10
5.89012
20
-3.29894
11
5.89146
21
-3.29649
0
LINE
8
BLACK
6
CONTINUOUS
10
5.89146
20
-3.29649
11
5.89199
21
-3.29603
0
LINE
8
BLACK
6
CONTINUOUS
10
5.89199
20
-3.29603
11
5.89226
21
-3.29583
0
LINE
8
BLACK
6
CONTINUOUS
10
5.89226
20
-3.29583
11
5.8943
21
-3.2943
0
LINE
8
BLACK
6
CONTINUOUS
10
5.8943
20
-3.2943
11
5.89774
21
-3.28971
0
LINE
8
BLACK
6
CONTINUOUS
10
5.89774
20
-3.28971
11
5.89975
21
-3.28434
0
LINE
8
BLACK
6
CONTINUOUS
10
5.89975
20
-3.28434
11
5.90002
21
-3.2819
0
LINE
8
BLACK
6
CONTINUOUS
10
5.90002
20
-3.2819
11
5.90002
21
-3.2181
0
LINE
8
BLACK
6
CONTINUOUS
10
5.90002
20
-3.2181
11
5.89975
21
-3.21566
0
LINE
8
BLACK
6
CONTINUOUS
10
5.89975
20
-3.21566
11
5.89774
21
-3.21029
0
LINE
8
BLACK
6
CONTINUOUS
10
5.89774
20
-3.21029
11
5.8943
21
-3.2057
0
LINE
8
BLACK
6
CONTINUOUS
10
5.8943
20
-3.2057
11
5.88971
21
-3.20226
0
LINE
8
BLACK
6
CONTINUOUS
10
5.88971
20
-3.20226
11
5.88434
21
-3.20025
0
LINE
8
BLACK
6
CONTINUOUS
10
5.88434
20
-3.20025
11
5.8819
21
-3.19998
0
LINE
8
BLACK
6
CONTINUOUS
10
5.8819
20
-3.19998
11
5.8181
21
-3.19998
0
LINE
8
BLACK
6
CONTINUOUS
10
5.8181
20
-3.19998
11
5.81566
21
-3.20025
0
LINE
8
BLACK
6
CONTINUOUS
10
5.81566
20
-3.20025
11
5.81029
21
-3.20226
0
LINE
8
BLACK
6
CONTINUOUS
10
5.81029
20
-3.20226
11
5.8057
21
-3.2057
0
LINE
8
BLACK
6
CONTINUOUS
10
5.8057
20
-3.2057
11
5.80549
21
-3.20598
0
LINE
8
BLACK
6
CONTINUOUS
10
5.80549
20
-3.20598
11
5.80397
21
-3.20801
0
LINE
8
BLACK
6
CONTINUOUS
10
5.80397
20
-3.20801
11
5.80173
21
-3.20968
0
LINE
8
BLACK
6
CONTINUOUS
10
5.80173
20
-3.20968
11
5.79894
21
-3.20988
0
LINE
8
BLACK
6
CONTINUOUS
10
5.79894
20
-3.20988
11
5.79649
21
-3.20854
0
LINE
8
BLACK
6
CONTINUOUS
10
5.79649
20
-3.20854
11
5.79603
21
-3.20801
0
LINE
8
BLACK
6
CONTINUOUS
10
5.79603
20
-3.20801
11
5.79451
21
-3.20598
0
LINE
8
BLACK
6
CONTINUOUS
10
5.79451
20
-3.20598
11
5.7943
21
-3.2057
0
LINE
8
BLACK
6
CONTINUOUS
10
5.7943
20
-3.2057
11
5.78971
21
-3.20226
0
LINE
8
BLACK
6
CONTINUOUS
10
5.78971
20
-3.20226
11
5.78434
21
-3.20025
0
LINE
8
BLACK
6
CONTINUOUS
10
5.78434
20
-3.20025
11
5.7819
21
-3.19998
0
LINE
8
BLACK
6
CONTINUOUS
10
5.7819
20
-3.19998
11
5.7181
21
-3.19998
0
LINE
8
BLACK
6
CONTINUOUS
10
5.7181
20
-3.19998
11
5.71566
21
-3.20025
0
LINE
8
BLACK
6
CONTINUOUS
10
5.71566
20
-3.20025
11
5.71029
21
-3.20226
0
LINE
8
BLACK
6
CONTINUOUS
10
5.71029
20
-3.20226
11
5.7057
21
-3.2057
0
LINE
8
BLACK
6
CONTINUOUS
10
5.7057
20
-3.2057
11
5.70226
21
-3.21029
0
LINE
8
BLACK
6
CONTINUOUS
10
5.70226
20
-3.21029
11
5.70025
21
-3.21566
0
LINE
8
BLACK
6
CONTINUOUS
10
5.70025
20
-3.21566
11
5.70021
21
-3.21597
0
LINE
8
BLACK
6
CONTINUOUS
10
5.70021
20
-3.21597
11
5.70021
21
-3.21597
0
LINE
8
BLACK
6
CONTINUOUS
10
5.70021
20
-3.21597
11
5.70003
21
-3.21768
0
LINE
8
BLACK
6
CONTINUOUS
10
5.70003
20
-3.21768
11
5.69895
21
-3.22026
0
LINE
8
BLACK
6
CONTINUOUS
10
5.69895
20
-3.22026
11
5.69666
21
-3.22185
0
LINE
8
BLACK
6
CONTINUOUS
10
5.69666
20
-3.22185
11
5.69509
21
-3.22211
0
LINE
8
BLACK
6
CONTINUOUS
10
5.69509
20
-3.22211
11
5.48114
21
-3.22211
0
LINE
8
BLACK
6
CONTINUOUS
10
5.48114
20
-3.22211
11
5.4808
21
-3.22209
0
LINE
8
BLACK
6
CONTINUOUS
10
5.4808
20
-3.22209
11
5.47883
21
-3.22196
0
LINE
8
BLACK
6
CONTINUOUS
10
5.47883
20
-3.22196
11
5.47883
21
-3.22196
0
LINE
8
BLACK
6
CONTINUOUS
10
5.47883
20
-3.22196
11
5.47853
21
-3.22194
0
LINE
8
BLACK
6
CONTINUOUS
10
5.47853
20
-3.22194
11
5.47824
21
-3.22199
0
LINE
8
BLACK
6
CONTINUOUS
10
5.47824
20
-3.22199
11
5.47824
21
-3.22199
0
LINE
8
BLACK
6
CONTINUOUS
10
5.47824
20
-3.22199
11
5.47764
21
-3.22209
0
LINE
8
BLACK
6
CONTINUOUS
10
5.47764
20
-3.22209
11
5.47605
21
-3.22237
0
LINE
8
BLACK
6
CONTINUOUS
10
5.47605
20
-3.22237
11
5.47579
21
-3.22241
0
LINE
8
BLACK
6
CONTINUOUS
10
5.47579
20
-3.22241
11
5.4733
21
-3.22271
0
LINE
8
BLACK
6
CONTINUOUS
10
5.4733
20
-3.22271
11
5.47302
21
-3.22282
0
LINE
8
BLACK
6
CONTINUOUS
10
5.47302
20
-3.22282
11
5.47292
21
-3.22284
0
LINE
8
BLACK
6
CONTINUOUS
10
5.47292
20
-3.22284
11
5.47227
21
-3.22302
0
LINE
8
BLACK
6
CONTINUOUS
10
5.47227
20
-3.22302
11
5.47217
21
-3.22305
0
LINE
8
BLACK
6
CONTINUOUS
10
5.47217
20
-3.22305
11
5.47188
21
-3.2231
0
LINE
8
BLACK
6
CONTINUOUS
10
5.47188
20
-3.2231
11
5.4716
21
-3.22322
0
LINE
8
BLACK
6
CONTINUOUS
10
5.4716
20
-3.22322
11
5.4716
21
-3.22322
0
LINE
8
BLACK
6
CONTINUOUS
10
5.4716
20
-3.22322
11
5.46958
21
-3.22411
0
LINE
8
BLACK
6
CONTINUOUS
10
5.46958
20
-3.22411
11
5.46933
21
-3.22421
0
LINE
8
BLACK
6
CONTINUOUS
10
5.46933
20
-3.22421
11
5.46726
21
-3.22499
0
LINE
8
BLACK
6
CONTINUOUS
10
5.46726
20
-3.22499
11
5.46698
21
-3.2251
0
LINE
8
BLACK
6
CONTINUOUS
10
5.46698
20
-3.2251
11
5.46674
21
-3.22527
0
LINE
8
BLACK
6
CONTINUOUS
10
5.46674
20
-3.22527
11
5.46664
21
-3.22532
0
LINE
8
BLACK
6
CONTINUOUS
10
5.46664
20
-3.22532
11
5.46606
21
-3.22564
0
LINE
8
BLACK
6
CONTINUOUS
10
5.46606
20
-3.22564
11
5.46597
21
-3.22569
0
LINE
8
BLACK
6
CONTINUOUS
10
5.46597
20
-3.22569
11
5.4657
21
-3.22581
0
LINE
8
BLACK
6
CONTINUOUS
10
5.4657
20
-3.22581
11
5.46546
21
-3.226
0
LINE
8
BLACK
6
CONTINUOUS
10
5.46546
20
-3.226
11
5.46546
21
-3.226
0
LINE
8
BLACK
6
CONTINUOUS
10
5.46546
20
-3.226
11
5.46423
21
-3.22694
0
LINE
8
BLACK
6
CONTINUOUS
10
5.46423
20
-3.22694
11
5.4637
21
-3.22735
0
LINE
8
BLACK
6
CONTINUOUS
10
5.4637
20
-3.22735
11
5.46349
21
-3.2275
0
LINE
8
BLACK
6
CONTINUOUS
10
5.46349
20
-3.2275
11
5.46166
21
-3.22875
0
LINE
8
BLACK
6
CONTINUOUS
10
5.46166
20
-3.22875
11
5.46166
21
-3.22875
0
LINE
8
BLACK
6
CONTINUOUS
10
5.46166
20
-3.22875
11
5.46142
21
-3.22892
0
LINE
8
BLACK
6
CONTINUOUS
10
5.46142
20
-3.22892
11
5.46122
21
-3.22915
0
LINE
8
BLACK
6
CONTINUOUS
10
5.46122
20
-3.22915
11
5.46122
21
-3.22915
0
LINE
8
BLACK
6
CONTINUOUS
10
5.46122
20
-3.22915
11
5.45979
21
-3.23075
0
LINE
8
BLACK
6
CONTINUOUS
10
5.45979
20
-3.23075
11
5.45959
21
-3.23096
0
LINE
8
BLACK
6
CONTINUOUS
10
5.45959
20
-3.23096
11
5.31628
21
-3.37427
0
LINE
8
BLACK
6
CONTINUOUS
10
5.31628
20
-3.37427
11
5.31383
21
-3.37561
0
LINE
8
BLACK
6
CONTINUOUS
10
5.31383
20
-3.37561
11
5.31104
21
-3.37541
0
LINE
8
BLACK
6
CONTINUOUS
10
5.31104
20
-3.37541
11
5.3088
21
-3.37373
0
LINE
8
BLACK
6
CONTINUOUS
10
5.3088
20
-3.37373
11
5.30783
21
-3.37112
0
LINE
8
BLACK
6
CONTINUOUS
10
5.30783
20
-3.37112
11
5.30781
21
-3.37076
0
LINE
8
BLACK
6
CONTINUOUS
10
5.30781
20
-3.37076
11
5.30781
21
-3.36031
0
LINE
8
BLACK
6
CONTINUOUS
10
5.30781
20
-3.36031
11
5.30755
21
-3.35786
0
LINE
8
BLACK
6
CONTINUOUS
10
5.30755
20
-3.35786
11
5.30666
21
-3.35549
0
LINE
8
BLACK
6
CONTINUOUS
10
5.30666
20
-3.35549
11
5.30566
21
-3.35282
0
LINE
8
BLACK
6
CONTINUOUS
10
5.30566
20
-3.35282
11
5.30566
21
-3.35282
0
LINE
8
BLACK
6
CONTINUOUS
10
5.30566
20
-3.35282
11
5.30554
21
-3.35249
0
LINE
8
BLACK
6
CONTINUOUS
10
5.30554
20
-3.35249
11
5.30539
21
-3.3523
0
LINE
8
BLACK
6
CONTINUOUS
10
5.30539
20
-3.3523
11
5.30481
21
-3.34963
0
LINE
8
BLACK
6
CONTINUOUS
10
5.30481
20
-3.34963
11
5.30541
21
-3.3476
0
LINE
8
BLACK
6
CONTINUOUS
10
5.30541
20
-3.3476
11
5.30564
21
-3.34717
0
LINE
8
BLACK
6
CONTINUOUS
10
5.30564
20
-3.34717
11
5.30742
21
-3.34243
0
LINE
8
BLACK
6
CONTINUOUS
10
5.30742
20
-3.34243
11
5.30756
21
-3.34182
0
LINE
8
BLACK
6
CONTINUOUS
10
5.30756
20
-3.34182
11
5.30778
21
-3.33982
0
LINE
8
BLACK
6
CONTINUOUS
10
5.30778
20
-3.33982
11
5.3078
21
-3.33955
0
LINE
8
BLACK
6
CONTINUOUS
10
5.3078
20
-3.33955
11
5.3078
21
-3.33571
0
LINE
8
BLACK
6
CONTINUOUS
10
5.3078
20
-3.33571
11
5.30762
21
-3.33511
0
LINE
8
BLACK
6
CONTINUOUS
10
5.30762
20
-3.33511
11
5.30756
21
-3.33507
0
LINE
8
BLACK
6
CONTINUOUS
10
5.30756
20
-3.33507
11
5.30726
21
-3.335
0
LINE
8
BLACK
6
CONTINUOUS
10
5.30726
20
-3.335
11
5.2878
21
-3.335
0
LINE
8
BLACK
6
CONTINUOUS
10
5.2878
20
-3.335
11
5.2878
21
-3.3378
0
LINE
8
BLACK
6
CONTINUOUS
10
5.2878
20
-3.3378
11
5.22283
21
-3.3378
0
LINE
8
BLACK
6
CONTINUOUS
10
5.22283
20
-3.3378
11
5.22283
21
-3.335
0
LINE
8
BLACK
6
CONTINUOUS
10
5.22283
20
-3.335
11
5.20355
21
-3.335
0
LINE
8
BLACK
6
CONTINUOUS
10
5.20355
20
-3.335
11
5.20295
21
-3.33518
0
LINE
8
BLACK
6
CONTINUOUS
10
5.20295
20
-3.33518
11
5.2029
21
-3.33523
0
LINE
8
BLACK
6
CONTINUOUS
10
5.2029
20
-3.33523
11
5.20283
21
-3.33553
0
LINE
8
BLACK
6
CONTINUOUS
10
5.20283
20
-3.33553
11
5.20283
21
-3.33955
0
LINE
8
BLACK
6
CONTINUOUS
10
5.20283
20
-3.33955
11
5.20285
21
-3.33982
0
LINE
8
BLACK
6
CONTINUOUS
10
5.20285
20
-3.33982
11
5.2031
21
-3.34213
0
LINE
8
BLACK
6
CONTINUOUS
10
5.2031
20
-3.34213
11
5.20298
21
-3.34215
0
LINE
8
BLACK
6
CONTINUOUS
10
5.20298
20
-3.34215
11
5.20286
21
-3.34437
0
LINE
8
BLACK
6
CONTINUOUS
10
5.20286
20
-3.34437
11
5.20123
21
-3.34664
0
LINE
8
BLACK
6
CONTINUOUS
10
5.20123
20
-3.34664
11
5.19878
21
-3.34765
0
LINE
8
BLACK
6
CONTINUOUS
10
5.19878
20
-3.34765
11
5.1983
21
-3.34771
0
LINE
8
BLACK
6
CONTINUOUS
10
5.1983
20
-3.34771
11
5.19802
21
-3.34782
0
LINE
8
BLACK
6
CONTINUOUS
10
5.19802
20
-3.34782
11
5.19792
21
-3.34784
0
LINE
8
BLACK
6
CONTINUOUS
10
5.19792
20
-3.34784
11
5.19727
21
-3.34802
0
LINE
8
BLACK
6
CONTINUOUS
10
5.19727
20
-3.34802
11
5.19717
21
-3.34805
0
LINE
8
BLACK
6
CONTINUOUS
10
5.19717
20
-3.34805
11
5.19688
21
-3.3481
0
LINE
8
BLACK
6
CONTINUOUS
10
5.19688
20
-3.3481
11
5.19457
21
-3.34911
0
LINE
8
BLACK
6
CONTINUOUS
10
5.19457
20
-3.34911
11
5.19433
21
-3.34921
0
LINE
8
BLACK
6
CONTINUOUS
10
5.19433
20
-3.34921
11
5.19353
21
-3.34951
0
LINE
8
BLACK
6
CONTINUOUS
10
5.19353
20
-3.34951
11
5.19226
21
-3.34999
0
LINE
8
BLACK
6
CONTINUOUS
10
5.19226
20
-3.34999
11
5.19226
21
-3.34999
0
LINE
8
BLACK
6
CONTINUOUS
10
5.19226
20
-3.34999
11
5.19198
21
-3.3501
0
LINE
8
BLACK
6
CONTINUOUS
10
5.19198
20
-3.3501
11
5.19174
21
-3.35027
0
LINE
8
BLACK
6
CONTINUOUS
10
5.19174
20
-3.35027
11
5.19164
21
-3.35032
0
LINE
8
BLACK
6
CONTINUOUS
10
5.19164
20
-3.35032
11
5.19106
21
-3.35064
0
LINE
8
BLACK
6
CONTINUOUS
10
5.19106
20
-3.35064
11
5.19097
21
-3.35069
0
LINE
8
BLACK
6
CONTINUOUS
10
5.19097
20
-3.35069
11
5.1907
21
-3.35081
0
LINE
8
BLACK
6
CONTINUOUS
10
5.1907
20
-3.35081
11
5.19046
21
-3.351
0
LINE
8
BLACK
6
CONTINUOUS
10
5.19046
20
-3.351
11
5.19046
21
-3.351
0
LINE
8
BLACK
6
CONTINUOUS
10
5.19046
20
-3.351
11
5.1887
21
-3.35235
0
LINE
8
BLACK
6
CONTINUOUS
10
5.1887
20
-3.35235
11
5.18849
21
-3.3525
0
LINE
8
BLACK
6
CONTINUOUS
10
5.18849
20
-3.3525
11
5.18802
21
-3.35282
0
LINE
8
BLACK
6
CONTINUOUS
10
5.18802
20
-3.35282
11
5.18704
21
-3.3535
0
LINE
8
BLACK
6
CONTINUOUS
10
5.18704
20
-3.3535
11
5.18642
21
-3.35392
0
LINE
8
BLACK
6
CONTINUOUS
10
5.18642
20
-3.35392
11
5.18622
21
-3.35415
0
LINE
8
BLACK
6
CONTINUOUS
10
5.18622
20
-3.35415
11
5.18622
21
-3.35415
0
LINE
8
BLACK
6
CONTINUOUS
10
5.18622
20
-3.35415
11
5.18479
21
-3.35575
0
LINE
8
BLACK
6
CONTINUOUS
10
5.18479
20
-3.35575
11
5.18459
21
-3.35596
0
LINE
8
BLACK
6
CONTINUOUS
10
5.18459
20
-3.35596
11
5.16113
21
-3.37942
0
LINE
8
BLACK
6
CONTINUOUS
10
5.16113
20
-3.37942
11
5.16054
21
-3.37993
0
LINE
8
BLACK
6
CONTINUOUS
10
5.16054
20
-3.37993
11
5.15593
21
-3.38327
0
LINE
8
BLACK
6
CONTINUOUS
10
5.15593
20
-3.38327
11
5.1509
21
-3.38886
0
LINE
8
BLACK
6
CONTINUOUS
10
5.1509
20
-3.38886
11
5.15025
21
-3.39
0
LINE
8
BLACK
6
CONTINUOUS
10
5.15025
20
-3.39
11
5.14793
21
-3.39402
0
LINE
8
BLACK
6
CONTINUOUS
10
5.14793
20
-3.39402
11
5.14714
21
-3.39537
0
LINE
8
BLACK
6
CONTINUOUS
10
5.14714
20
-3.39537
11
5.14482
21
-3.40252
0
LINE
8
BLACK
6
CONTINUOUS
10
5.14482
20
-3.40252
11
5.14479
21
-3.40278
0
LINE
8
BLACK
6
CONTINUOUS
10
5.14479
20
-3.40278
11
5.14479
21
-3.40278
0
LINE
8
BLACK
6
CONTINUOUS
10
5.14479
20
-3.40278
11
5.14423
21
-3.40817
0
LINE
8
BLACK
6
CONTINUOUS
10
5.14423
20
-3.40817
11
5.14404
21
-3.41
0
LINE
8
BLACK
6
CONTINUOUS
10
5.14404
20
-3.41
11
5.14406
21
-3.41026
0
LINE
8
BLACK
6
CONTINUOUS
10
5.14406
20
-3.41026
11
5.14466
21
-3.41597
0
LINE
8
BLACK
6
CONTINUOUS
10
5.14466
20
-3.41597
11
5.14482
21
-3.41748
0
LINE
8
BLACK
6
CONTINUOUS
10
5.14482
20
-3.41748
11
5.14714
21
-3.42463
0
LINE
8
BLACK
6
CONTINUOUS
10
5.14714
20
-3.42463
11
5.14727
21
-3.42485
0
LINE
8
BLACK
6
CONTINUOUS
10
5.14727
20
-3.42485
11
5.14727
21
-3.42485
0
LINE
8
BLACK
6
CONTINUOUS
10
5.14727
20
-3.42485
11
5.14861
21
-3.42717
0
LINE
8
BLACK
6
CONTINUOUS
10
5.14861
20
-3.42717
11
5.1509
21
-3.43114
0
LINE
8
BLACK
6
CONTINUOUS
10
5.1509
20
-3.43114
11
5.15108
21
-3.43133
0
LINE
8
BLACK
6
CONTINUOUS
10
5.15108
20
-3.43133
11
5.15108
21
-3.43133
0
LINE
8
BLACK
6
CONTINUOUS
10
5.15108
20
-3.43133
11
5.15405
21
-3.43463
0
LINE
8
BLACK
6
CONTINUOUS
10
5.15405
20
-3.43463
11
5.15593
21
-3.43673
0
LINE
8
BLACK
6
CONTINUOUS
10
5.15593
20
-3.43673
11
5.15719
21
-3.43764
0
LINE
8
BLACK
6
CONTINUOUS
10
5.15719
20
-3.43764
11
5.16061
21
-3.44012
0
LINE
8
BLACK
6
CONTINUOUS
10
5.16061
20
-3.44012
11
5.16202
21
-3.44115
0
LINE
8
BLACK
6
CONTINUOUS
10
5.16202
20
-3.44115
11
5.16225
21
-3.44125
0
LINE
8
BLACK
6
CONTINUOUS
10
5.16225
20
-3.44125
11
5.16226
21
-3.44125
0
LINE
8
BLACK
6
CONTINUOUS
10
5.16226
20
-3.44125
11
5.16865
21
-3.4441
0
LINE
8
BLACK
6
CONTINUOUS
10
5.16865
20
-3.4441
11
5.16889
21
-3.4442
0
LINE
8
BLACK
6
CONTINUOUS
10
5.16889
20
-3.4442
11
5.17244
21
-3.44496
0
LINE
8
BLACK
6
CONTINUOUS
10
5.17244
20
-3.44496
11
5.17599
21
-3.44571
0
LINE
8
BLACK
6
CONTINUOUS
10
5.17599
20
-3.44571
11
5.17599
21
-3.44571
0
LINE
8
BLACK
6
CONTINUOUS
10
5.17599
20
-3.44571
11
5.17624
21
-3.44577
0
LINE
8
BLACK
6
CONTINUOUS
10
5.17624
20
-3.44577
11
5.18376
21
-3.44577
0
LINE
8
BLACK
6
CONTINUOUS
10
5.18376
20
-3.44577
11
5.18401
21
-3.44571
0
LINE
8
BLACK
6
CONTINUOUS
10
5.18401
20
-3.44571
11
5.18401
21
-3.44571
0
LINE
8
BLACK
6
CONTINUOUS
10
5.18401
20
-3.44571
11
5.18756
21
-3.44496
0
LINE
8
BLACK
6
CONTINUOUS
10
5.18756
20
-3.44496
11
5.19111
21
-3.4442
0
LINE
8
BLACK
6
CONTINUOUS
10
5.19111
20
-3.4442
11
5.19149
21
-3.44404
0
LINE
8
BLACK
6
CONTINUOUS
10
5.19149
20
-3.44404
11
5.19282
21
-3.44345
0
LINE
8
BLACK
6
CONTINUOUS
10
5.19282
20
-3.44345
11
5.19722
21
-3.44149
0
LINE
8
BLACK
6
CONTINUOUS
10
5.19722
20
-3.44149
11
5.19999
21
-3.44111
0
LINE
8
BLACK
6
CONTINUOUS
10
5.19999
20
-3.44111
11
5.20252
21
-3.4423
0
LINE
8
BLACK
6
CONTINUOUS
10
5.20252
20
-3.4423
11
5.20388
21
-3.44428
0
LINE
8
BLACK
6
CONTINUOUS
10
5.20388
20
-3.44428
11
5.20456
21
-3.44608
0
LINE
8
BLACK
6
CONTINUOUS
10
5.20456
20
-3.44608
11
5.20509
21
-3.44751
0
LINE
8
BLACK
6
CONTINUOUS
10
5.20509
20
-3.44751
11
5.20523
21
-3.44768
0
LINE
8
BLACK
6
CONTINUOUS
10
5.20523
20
-3.44768
11
5.20581
21
-3.45035
0
LINE
8
BLACK
6
CONTINUOUS
10
5.20581
20
-3.45035
11
5.20523
21
-3.45231
0
LINE
8
BLACK
6
CONTINUOUS
10
5.20523
20
-3.45231
11
5.20509
21
-3.45249
0
LINE
8
BLACK
6
CONTINUOUS
10
5.20509
20
-3.45249
11
5.20497
21
-3.45282
0
LINE
8
BLACK
6
CONTINUOUS
10
5.20497
20
-3.45282
11
5.20497
21
-3.45282
0
LINE
8
BLACK
6
CONTINUOUS
10
5.20497
20
-3.45282
11
5.20454
21
-3.45398
0
LINE
8
BLACK
6
CONTINUOUS
10
5.20454
20
-3.45398
11
5.20308
21
-3.45786
0
LINE
8
BLACK
6
CONTINUOUS
10
5.20308
20
-3.45786
11
5.20281
21
-3.46031
0
LINE
8
BLACK
6
CONTINUOUS
10
5.20281
20
-3.46031
11
5.20281
21
-3.48969
0
LINE
8
BLACK
6
CONTINUOUS
10
5.20281
20
-3.48969
11
5.20308
21
-3.49214
0
LINE
8
BLACK
6
CONTINUOUS
10
5.20308
20
-3.49214
11
5.20509
21
-3.49751
0
LINE
8
BLACK
6
CONTINUOUS
10
5.20509
20
-3.49751
11
5.20853
21
-3.5021
0
LINE
8
BLACK
6
CONTINUOUS
10
5.20853
20
-3.5021
11
5.21312
21
-3.50554
0
LINE
8
BLACK
6
CONTINUOUS
10
5.21312
20
-3.50554
11
5.21849
21
-3.50755
0
LINE
8
BLACK
6
CONTINUOUS
10
5.21849
20
-3.50755
11
5.22094
21
-3.50781
0
LINE
8
BLACK
6
CONTINUOUS
10
5.22094
20
-3.50781
11
5.22246
21
-3.50781
0
LINE
8
BLACK
6
CONTINUOUS
10
5.22246
20
-3.50781
11
5.22514
21
-3.5086
0
LINE
8
BLACK
6
CONTINUOUS
10
5.22514
20
-3.5086
11
5.22697
21
-3.51071
0
LINE
8
BLACK
6
CONTINUOUS
10
5.22697
20
-3.51071
11
5.22742
21
-3.51278
0
LINE
8
BLACK
6
CONTINUOUS
10
5.22742
20
-3.51278
11
5.22742
21
-3.51418
0
LINE
8
BLACK
6
CONTINUOUS
10
5.22742
20
-3.51418
11
5.22741
21
-3.51451
0
LINE
8
BLACK
6
CONTINUOUS
10
5.22741
20
-3.51451
11
5.22731
21
-3.51597
0
LINE
8
BLACK
6
CONTINUOUS
10
5.22731
20
-3.51597
11
5.22725
21
-3.51679
0
LINE
8
BLACK
6
CONTINUOUS
10
5.22725
20
-3.51679
11
5.22731
21
-3.51708
0
LINE
8
BLACK
6
CONTINUOUS
10
5.22731
20
-3.51708
11
5.22731
21
-3.51708
0
LINE
8
BLACK
6
CONTINUOUS
10
5.22731
20
-3.51708
11
5.22769
21
-3.51926
0
LINE
8
BLACK
6
CONTINUOUS
10
5.22769
20
-3.51926
11
5.22773
21
-3.51952
0
LINE
8
BLACK
6
CONTINUOUS
10
5.22773
20
-3.51952
11
5.22803
21
-3.52202
0
LINE
8
BLACK
6
CONTINUOUS
10
5.22803
20
-3.52202
11
5.22813
21
-3.5223
0
LINE
8
BLACK
6
CONTINUOUS
10
5.22813
20
-3.5223
11
5.22816
21
-3.5224
0
LINE
8
BLACK
6
CONTINUOUS
10
5.22816
20
-3.5224
11
5.22833
21
-3.52304
0
LINE
8
BLACK
6
CONTINUOUS
10
5.22833
20
-3.52304
11
5.22836
21
-3.52314
0
LINE
8
BLACK
6
CONTINUOUS
10
5.22836
20
-3.52314
11
5.22842
21
-3.52344
0
LINE
8
BLACK
6
CONTINUOUS
10
5.22842
20
-3.52344
11
5.22854
21
-3.52371
0
LINE
8
BLACK
6
CONTINUOUS
10
5.22854
20
-3.52371
11
5.22943
21
-3.52574
0
LINE
8
BLACK
6
CONTINUOUS
10
5.22943
20
-3.52574
11
5.22952
21
-3.52598
0
LINE
8
BLACK
6
CONTINUOUS
10
5.22952
20
-3.52598
11
5.23041
21
-3.52833
0
LINE
8
BLACK
6
CONTINUOUS
10
5.23041
20
-3.52833
11
5.23058
21
-3.52858
0
LINE
8
BLACK
6
CONTINUOUS
10
5.23058
20
-3.52858
11
5.23063
21
-3.52867
0
LINE
8
BLACK
6
CONTINUOUS
10
5.23063
20
-3.52867
11
5.23096
21
-3.52926
0
LINE
8
BLACK
6
CONTINUOUS
10
5.23096
20
-3.52926
11
5.23101
21
-3.52934
0
LINE
8
BLACK
6
CONTINUOUS
10
5.23101
20
-3.52934
11
5.23113
21
-3.52962
0
LINE
8
BLACK
6
CONTINUOUS
10
5.23113
20
-3.52962
11
5.23131
21
-3.52986
0
LINE
8
BLACK
6
CONTINUOUS
10
5.23131
20
-3.52986
11
5.23266
21
-3.53161
0
LINE
8
BLACK
6
CONTINUOUS
10
5.23266
20
-3.53161
11
5.23281
21
-3.53182
0
LINE
8
BLACK
6
CONTINUOUS
10
5.23281
20
-3.53182
11
5.23407
21
-3.53365
0
LINE
8
BLACK
6
CONTINUOUS
10
5.23407
20
-3.53365
11
5.23407
21
-3.53365
0
LINE
8
BLACK
6
CONTINUOUS
10
5.23407
20
-3.53365
11
5.23424
21
-3.5339
0
LINE
8
BLACK
6
CONTINUOUS
10
5.23424
20
-3.5339
11
5.23446
21
-3.5341
0
LINE
8
BLACK
6
CONTINUOUS
10
5.23446
20
-3.5341
11
5.23446
21
-3.5341
0
LINE
8
BLACK
6
CONTINUOUS
10
5.23446
20
-3.5341
11
5.23607
21
-3.53553
0
LINE
8
BLACK
6
CONTINUOUS
10
5.23607
20
-3.53553
11
5.23628
21
-3.53573
0
LINE
8
BLACK
6
CONTINUOUS
10
5.23628
20
-3.53573
11
5.36947
21
-3.66892
0
LINE
8
BLACK
6
CONTINUOUS
10
5.36947
20
-3.66892
11
5.3697
21
-3.66916
0
LINE
8
BLACK
6
CONTINUOUS
10
5.3697
20
-3.66916
11
5.3712
21
-3.67088
0
LINE
8
BLACK
6
CONTINUOUS
10
5.3712
20
-3.67088
11
5.37144
21
-3.67105
0
LINE
8
BLACK
6
CONTINUOUS
10
5.37144
20
-3.67105
11
5.37326
21
-3.67233
0
LINE
8
BLACK
6
CONTINUOUS
10
5.37326
20
-3.67233
11
5.37346
21
-3.67248
0
LINE
8
BLACK
6
CONTINUOUS
10
5.37346
20
-3.67248
11
5.37544
21
-3.67403
0
LINE
8
BLACK
6
CONTINUOUS
10
5.37544
20
-3.67403
11
5.37572
21
-3.67416
0
LINE
8
BLACK
6
CONTINUOUS
10
5.37572
20
-3.67416
11
5.37581
21
-3.67421
0
LINE
8
BLACK
6
CONTINUOUS
10
5.37581
20
-3.67421
11
5.37639
21
-3.67454
0
LINE
8
BLACK
6
CONTINUOUS
10
5.37639
20
-3.67454
11
5.37648
21
-3.67459
0
LINE
8
BLACK
6
CONTINUOUS
10
5.37648
20
-3.67459
11
5.37672
21
-3.67476
0
LINE
8
BLACK
6
CONTINUOUS
10
5.37672
20
-3.67476
11
5.377
21
-3.67487
0
LINE
8
BLACK
6
CONTINUOUS
10
5.377
20
-3.67487
11
5.377
21
-3.67487
0
LINE
8
BLACK
6
CONTINUOUS
10
5.377
20
-3.67487
11
5.37907
21
-3.67568
0
LINE
8
BLACK
6
CONTINUOUS
10
5.37907
20
-3.67568
11
5.37931
21
-3.67578
0
LINE
8
BLACK
6
CONTINUOUS
10
5.37931
20
-3.67578
11
5.3816
21
-3.67681
0
LINE
8
BLACK
6
CONTINUOUS
10
5.3816
20
-3.67681
11
5.38189
21
-3.67687
0
LINE
8
BLACK
6
CONTINUOUS
10
5.38189
20
-3.67687
11
5.38199
21
-3.6769
0
LINE
8
BLACK
6
CONTINUOUS
10
5.38199
20
-3.6769
11
5.38263
21
-3.67708
0
LINE
8
BLACK
6
CONTINUOUS
10
5.38263
20
-3.67708
11
5.38273
21
-3.67711
0
LINE
8
BLACK
6
CONTINUOUS
10
5.38273
20
-3.67711
11
5.38301
21
-3.67722
0
LINE
8
BLACK
6
CONTINUOUS
10
5.38301
20
-3.67722
11
5.38383
21
-3.67732
0
LINE
8
BLACK
6
CONTINUOUS
10
5.38383
20
-3.67732
11
5.38551
21
-3.67754
0
LINE
8
BLACK
6
CONTINUOUS
10
5.38551
20
-3.67754
11
5.38576
21
-3.67758
0
LINE
8
BLACK
6
CONTINUOUS
10
5.38576
20
-3.67758
11
5.38787
21
-3.67798
0
LINE
8
BLACK
6
CONTINUOUS
10
5.38787
20
-3.67798
11
5.38824
21
-3.67804
0
LINE
8
BLACK
6
CONTINUOUS
10
5.38824
20
-3.67804
11
5.38853
21
-3.67803
0
LINE
8
BLACK
6
CONTINUOUS
10
5.38853
20
-3.67803
11
5.38853
21
-3.67803
0
LINE
8
BLACK
6
CONTINUOUS
10
5.38853
20
-3.67803
11
5.39068
21
-3.6779
0
LINE
8
BLACK
6
CONTINUOUS
10
5.39068
20
-3.6779
11
5.39097
21
-3.67789
0
LINE
8
BLACK
6
CONTINUOUS
10
5.39097
20
-3.67789
11
5.56886
21
-3.67789
0
LINE
8
BLACK
6
CONTINUOUS
10
5.56886
20
-3.67789
11
5.5692
21
-3.67791
0
LINE
8
BLACK
6
CONTINUOUS
10
5.5692
20
-3.67791
11
5.57117
21
-3.67804
0
LINE
8
BLACK
6
CONTINUOUS
10
5.57117
20
-3.67804
11
5.57117
21
-3.67804
0
LINE
8
BLACK
6
CONTINUOUS
10
5.57117
20
-3.67804
11
5.57147
21
-3.67806
0
LINE
8
BLACK
6
CONTINUOUS
10
5.57147
20
-3.67806
11
5.57176
21
-3.67801
0
LINE
8
BLACK
6
CONTINUOUS
10
5.57176
20
-3.67801
11
5.57176
21
-3.67801
0
LINE
8
BLACK
6
CONTINUOUS
10
5.57176
20
-3.67801
11
5.57281
21
-3.67783
0
LINE
8
BLACK
6
CONTINUOUS
10
5.57281
20
-3.67783
11
5.57395
21
-3.67763
0
LINE
8
BLACK
6
CONTINUOUS
10
5.57395
20
-3.67763
11
5.57421
21
-3.67759
0
LINE
8
BLACK
6
CONTINUOUS
10
5.57421
20
-3.67759
11
5.5767
21
-3.67729
0
LINE
8
BLACK
6
CONTINUOUS
10
5.5767
20
-3.67729
11
5.57698
21
-3.67718
0
LINE
8
BLACK
6
CONTINUOUS
10
5.57698
20
-3.67718
11
5.57708
21
-3.67716
0
LINE
8
BLACK
6
CONTINUOUS
10
5.57708
20
-3.67716
11
5.57773
21
-3.67698
0
LINE
8
BLACK
6
CONTINUOUS
10
5.57773
20
-3.67698
11
5.57783
21
-3.67695
0
LINE
8
BLACK
6
CONTINUOUS
10
5.57783
20
-3.67695
11
5.57812
21
-3.6769
0
LINE
8
BLACK
6
CONTINUOUS
10
5.57812
20
-3.6769
11
5.58043
21
-3.67589
0
LINE
8
BLACK
6
CONTINUOUS
10
5.58043
20
-3.67589
11
5.58067
21
-3.67579
0
LINE
8
BLACK
6
CONTINUOUS
10
5.58067
20
-3.67579
11
5.5807
21
-3.67578
0
LINE
8
BLACK
6
CONTINUOUS
10
5.5807
20
-3.67578
11
5.58302
21
-3.6749
0
LINE
8
BLACK
6
CONTINUOUS
10
5.58302
20
-3.6749
11
5.58326
21
-3.67473
0
LINE
8
BLACK
6
CONTINUOUS
10
5.58326
20
-3.67473
11
5.58336
21
-3.67468
0
LINE
8
BLACK
6
CONTINUOUS
10
5.58336
20
-3.67468
11
5.58394
21
-3.67436
0
LINE
8
BLACK
6
CONTINUOUS
10
5.58394
20
-3.67436
11
5.58403
21
-3.67431
0
LINE
8
BLACK
6
CONTINUOUS
10
5.58403
20
-3.67431
11
5.5843
21
-3.67419
0
LINE
8
BLACK
6
CONTINUOUS
10
5.5843
20
-3.67419
11
5.5863
21
-3.67265
0
LINE
8
BLACK
6
CONTINUOUS
10
5.5863
20
-3.67265
11
5.58651
21
-3.6725
0
LINE
8
BLACK
6
CONTINUOUS
10
5.58651
20
-3.6725
11
5.58834
21
-3.67125
0
LINE
8
BLACK
6
CONTINUOUS
10
5.58834
20
-3.67125
11
5.58834
21
-3.67125
0
LINE
8
BLACK
6
CONTINUOUS
10
5.58834
20
-3.67125
11
5.58858
21
-3.67108
0
LINE
8
BLACK
6
CONTINUOUS
10
5.58858
20
-3.67108
11
5.59021
21
-3.66925
0
LINE
8
BLACK
6
CONTINUOUS
10
5.59021
20
-3.66925
11
5.59041
21
-3.66904
0
LINE
8
BLACK
6
CONTINUOUS
10
5.59041
20
-3.66904
11
5.67892
21
-3.58053
0
LINE
8
BLACK
6
CONTINUOUS
10
5.67892
20
-3.58053
11
5.67917
21
-3.5803
0
LINE
8
BLACK
6
CONTINUOUS
10
5.67917
20
-3.5803
11
5.68066
21
-3.579
0
LINE
8
BLACK
6
CONTINUOUS
10
5.68066
20
-3.579
11
5.68066
21
-3.579
0
LINE
8
BLACK
6
CONTINUOUS
10
5.68066
20
-3.579
11
5.68088
21
-3.5788
0
LINE
8
BLACK
6
CONTINUOUS
10
5.68088
20
-3.5788
11
5.68233
21
-3.57674
0
LINE
8
BLACK
6
CONTINUOUS
10
5.68233
20
-3.57674
11
5.68248
21
-3.57654
0
LINE
8
BLACK
6
CONTINUOUS
10
5.68248
20
-3.57654
11
5.68403
21
-3.57456
0
LINE
8
BLACK
6
CONTINUOUS
10
5.68403
20
-3.57456
11
5.68416
21
-3.57428
0
LINE
8
BLACK
6
CONTINUOUS
10
5.68416
20
-3.57428
11
5.68421
21
-3.57419
0
LINE
8
BLACK
6
CONTINUOUS
10
5.68421
20
-3.57419
11
5.68454
21
-3.57362
0
LINE
8
BLACK
6
CONTINUOUS
10
5.68454
20
-3.57362
11
5.68459
21
-3.57352
0
LINE
8
BLACK
6
CONTINUOUS
10
5.68459
20
-3.57352
11
5.68476
21
-3.57328
0
LINE
8
BLACK
6
CONTINUOUS
10
5.68476
20
-3.57328
11
5.68568
21
-3.57093
0
LINE
8
BLACK
6
CONTINUOUS
10
5.68568
20
-3.57093
11
5.68578
21
-3.57069
0
LINE
8
BLACK
6
CONTINUOUS
10
5.68578
20
-3.57069
11
5.68669
21
-3.56868
0
LINE
8
BLACK
6
CONTINUOUS
10
5.68669
20
-3.56868
11
5.68681
21
-3.5684
0
LINE
8
BLACK
6
CONTINUOUS
10
5.68681
20
-3.5684
11
5.68687
21
-3.56811
0
LINE
8
BLACK
6
CONTINUOUS
10
5.68687
20
-3.56811
11
5.6869
21
-3.56801
0
LINE
8
BLACK
6
CONTINUOUS
10
5.6869
20
-3.56801
11
5.68708
21
-3.56737
0
LINE
8
BLACK
6
CONTINUOUS
10
5.68708
20
-3.56737
11
5.68711
21
-3.56727
0
LINE
8
BLACK
6
CONTINUOUS
10
5.68711
20
-3.56727
11
5.68722
21
-3.56699
0
LINE
8
BLACK
6
CONTINUOUS
10
5.68722
20
-3.56699
11
5.68754
21
-3.56449
0
LINE
8
BLACK
6
CONTINUOUS
10
5.68754
20
-3.56449
11
5.68758
21
-3.56424
0
LINE
8
BLACK
6
CONTINUOUS
10
5.68758
20
-3.56424
11
5.68799
21
-3.56206
0
LINE
8
BLACK
6
CONTINUOUS
10
5.68799
20
-3.56206
11
5.68804
21
-3.56176
0
LINE
8
BLACK
6
CONTINUOUS
10
5.68804
20
-3.56176
11
5.6879
21
-3.55932
0
LINE
8
BLACK
6
CONTINUOUS
10
5.6879
20
-3.55932
11
5.68789
21
-3.55903
0
LINE
8
BLACK
6
CONTINUOUS
10
5.68789
20
-3.55903
11
5.68789
21
-3.50361
0
LINE
8
BLACK
6
CONTINUOUS
10
5.68789
20
-3.50361
11
5.68868
21
-3.50093
0
LINE
8
BLACK
6
CONTINUOUS
10
5.68868
20
-3.50093
11
5.68935
21
-3.5001
0
LINE
8
BLACK
6
CONTINUOUS
10
5.68935
20
-3.5001
11
5.69713
21
-3.49232
0
LINE
8
BLACK
6
CONTINUOUS
10
5.69713
20
-3.49232
11
5.69959
21
-3.49098
0
LINE
8
BLACK
6
CONTINUOUS
10
5.69959
20
-3.49098
11
5.70237
21
-3.49118
0
LINE
8
BLACK
6
CONTINUOUS
10
5.70237
20
-3.49118
11
5.70461
21
-3.49285
0
LINE
8
BLACK
6
CONTINUOUS
10
5.70461
20
-3.49285
11
5.7057
21
-3.4943
0
LINE
8
BLACK
6
CONTINUOUS
10
5.7057
20
-3.4943
11
5.70598
21
-3.49451
0
LINE
8
BLACK
6
CONTINUOUS
10
5.70598
20
-3.49451
11
5.70801
21
-3.49603
0
LINE
8
BLACK
6
CONTINUOUS
10
5.70801
20
-3.49603
11
5.70968
21
-3.49827
0
LINE
8
BLACK
6
CONTINUOUS
10
5.70968
20
-3.49827
11
5.70988
21
-3.50106
0
LINE
8
BLACK
6
CONTINUOUS
10
5.70988
20
-3.50106
11
5.70854
21
-3.50351
0
LINE
8
BLACK
6
CONTINUOUS
10
5.70854
20
-3.50351
11
5.70801
21
-3.50397
0
LINE
8
BLACK
6
CONTINUOUS
10
5.70801
20
-3.50397
11
5.7057
21
-3.5057
0
LINE
8
BLACK
6
CONTINUOUS
10
5.7057
20
-3.5057
11
5.70226
21
-3.51029
0
LINE
8
BLACK
6
CONTINUOUS
10
5.70226
20
-3.51029
11
5.70025
21
-3.51566
0
LINE
8
BLACK
6
CONTINUOUS
10
5.70025
20
-3.51566
11
5.69998
21
-3.5181
0
LINE
8
BLACK
6
CONTINUOUS
10
5.69998
20
-3.5181
11
5.69998
21
-3.5819
0
LINE
8
BLACK
6
CONTINUOUS
10
5.69998
20
-3.5819
11
5.70025
21
-3.58434
0
LINE
8
BLACK
6
CONTINUOUS
10
5.70025
20
-3.58434
11
5.70226
21
-3.58971
0
LINE
8
BLACK
6
CONTINUOUS
10
5.70226
20
-3.58971
11
5.7057
21
-3.5943
0
LINE
8
BLACK
6
CONTINUOUS
10
5.7057
20
-3.5943
11
5.71029
21
-3.59774
0
LINE
8
BLACK
6
CONTINUOUS
10
5.71029
20
-3.59774
11
5.71566
21
-3.59975
0
LINE
8
BLACK
6
CONTINUOUS
10
5.71566
20
-3.59975
11
5.7181
21
-3.60002
0
LINE
8
BLACK
6
CONTINUOUS
10
5.7181
20
-3.60002
11
5.7819
21
-3.60002
0
LINE
8
BLACK
6
CONTINUOUS
10
5.7819
20
-3.60002
11
5.78434
21
-3.59975
0
LINE
8
BLACK
6
CONTINUOUS
10
5.78434
20
-3.59975
11
5.78971
21
-3.59774
0
LINE
8
BLACK
6
CONTINUOUS
10
5.78971
20
-3.59774
11
5.7943
21
-3.5943
0
LINE
8
BLACK
6
CONTINUOUS
10
5.7943
20
-3.5943
11
5.79604
21
-3.59198
0
LINE
8
BLACK
6
CONTINUOUS
10
5.79604
20
-3.59198
11
5.79828
21
-3.5903
0
LINE
8
BLACK
6
CONTINUOUS
10
5.79828
20
-3.5903
11
5.80107
21
-3.59011
0
LINE
8
BLACK
6
CONTINUOUS
10
5.80107
20
-3.59011
11
5.80352
21
-3.59145
0
LINE
8
BLACK
6
CONTINUOUS
10
5.80352
20
-3.59145
11
5.80398
21
-3.59198
0
LINE
8
BLACK
6
CONTINUOUS
10
5.80398
20
-3.59198
11
5.8055
21
-3.594
0
LINE
8
BLACK
6
CONTINUOUS
10
5.8055
20
-3.594
11
5.806
21
-3.5945
0
LINE
8
BLACK
6
CONTINUOUS
10
5.806
20
-3.5945
11
5.81001
21
-3.59751
0
LINE
8
BLACK
6
CONTINUOUS
10
5.81001
20
-3.59751
11
5.81063
21
-3.59785
0
LINE
8
BLACK
6
CONTINUOUS
10
5.81063
20
-3.59785
11
5.81537
21
-3.59963
0
LINE
8
BLACK
6
CONTINUOUS
10
5.81537
20
-3.59963
11
5.81597
21
-3.59977
0
LINE
8
BLACK
6
CONTINUOUS
10
5.81597
20
-3.59977
11
5.81797
21
-3.59999
0
LINE
8
BLACK
6
CONTINUOUS
10
5.81797
20
-3.59999
11
5.81824
21
-3.6
0
LINE
8
BLACK
6
CONTINUOUS
10
5.81824
20
-3.6
11
5.83929
21
-3.6
0
LINE
8
BLACK
6
CONTINUOUS
10
5.83929
20
-3.6
11
5.83989
21
-3.59982
0
LINE
8
BLACK
6
CONTINUOUS
10
5.83989
20
-3.59982
11
5.83993
21
-3.59977
0
LINE
8
BLACK
6
CONTINUOUS
10
5.83993
20
-3.59977
11
5.84
21
-3.59947
0
LINE
8
BLACK
6
CONTINUOUS
10
5.84
20
-3.59947
11
5.84
21
-3.58
0
LINE
8
BLACK
6
CONTINUOUS
10
5.84
20
-3.58
11
5.82
21
-3.58
0
LINE
8
BLACK
6
CONTINUOUS
10
4.90023
20
-3.28993
11
4.90053
21
-3.29
0
LINE
8
BLACK
6
CONTINUOUS
10
4.90053
20
-3.29
11
4.92
21
-3.29
0
LINE
8
BLACK
6
CONTINUOUS
10
4.92
20
-3.29
11
4.92
21
-3.27
0
LINE
8
BLACK
6
CONTINUOUS
10
4.92
20
-3.27
11
4.94
21
-3.27
0
LINE
8
BLACK
6
CONTINUOUS
10
4.94
20
-3.27
11
4.94
21
-3.25071
0
LINE
8
BLACK
6
CONTINUOUS
10
4.94
20
-3.25071
11
4.93982
21
-3.25011
0
LINE
8
BLACK
6
CONTINUOUS
10
4.93982
20
-3.25011
11
4.93977
21
-3.25007
0
LINE
8
BLACK
6
CONTINUOUS
10
4.93977
20
-3.25007
11
4.93947
21
-3.25
0
LINE
8
BLACK
6
CONTINUOUS
10
4.93947
20
-3.25
11
4.91824
21
-3.25
0
LINE
8
BLACK
6
CONTINUOUS
10
4.91824
20
-3.25
11
4.91797
21
-3.25001
0
LINE
8
BLACK
6
CONTINUOUS
10
4.91797
20
-3.25001
11
4.91597
21
-3.25023
0
LINE
8
BLACK
6
CONTINUOUS
10
4.91597
20
-3.25023
11
4.91537
21
-3.25037
0
LINE
8
BLACK
6
CONTINUOUS
10
4.91537
20
-3.25037
11
4.91063
21
-3.25215
0
LINE
8
BLACK
6
CONTINUOUS
10
4.91063
20
-3.25215
11
4.91001
21
-3.25249
0
LINE
8
BLACK
6
CONTINUOUS
10
4.91001
20
-3.25249
11
4.906
21
-3.2555
0
LINE
8
BLACK
6
CONTINUOUS
10
4.906
20
-3.2555
11
4.9055
21
-3.256
0
LINE
8
BLACK
6
CONTINUOUS
10
4.9055
20
-3.256
11
4.90249
21
-3.26001
0
LINE
8
BLACK
6
CONTINUOUS
10
4.90249
20
-3.26001
11
4.90215
21
-3.26063
0
LINE
8
BLACK
6
CONTINUOUS
10
4.90215
20
-3.26063
11
4.90037
21
-3.26537
0
LINE
8
BLACK
6
CONTINUOUS
10
4.90037
20
-3.26537
11
4.90023
21
-3.26597
0
LINE
8
BLACK
6
CONTINUOUS
10
4.90023
20
-3.26597
11
4.90001
21
-3.26797
0
LINE
8
BLACK
6
CONTINUOUS
10
4.90001
20
-3.26797
11
4.9
21
-3.26824
0
LINE
8
BLACK
6
CONTINUOUS
10
4.9
20
-3.26824
11
4.9
21
-3.28929
0
LINE
8
BLACK
6
CONTINUOUS
10
4.9
20
-3.28929
11
4.90018
21
-3.28989
0
LINE
8
BLACK
6
CONTINUOUS
10
4.90018
20
-3.28989
11
4.90023
21
-3.28993
0
LINE
8
BLACK
6
CONTINUOUS
10
5.09982
20
-3.31011
11
5.09977
21
-3.31007
0
LINE
8
BLACK
6
CONTINUOUS
10
5.09977
20
-3.31007
11
5.09947
21
-3.31
0
LINE
8
BLACK
6
CONTINUOUS
10
5.09947
20
-3.31
11
5.08
21
-3.31
0
LINE
8
BLACK
6
CONTINUOUS
10
5.08
20
-3.31
11
5.08
21
-3.33
0
LINE
8
BLACK
6
CONTINUOUS
10
5.08
20
-3.33
11
5.02
21
-3.33
0
LINE
8
BLACK
6
CONTINUOUS
10
5.02
20
-3.33
11
5.02
21
-3.31
0
LINE
8
BLACK
6
CONTINUOUS
10
5.02
20
-3.31
11
4.98
21
-3.31
0
LINE
8
BLACK
6
CONTINUOUS
10
4.98
20
-3.31
11
4.98
21
-3.33
0
LINE
8
BLACK
6
CONTINUOUS
10
4.98
20
-3.33
11
4.92
21
-3.33
0
LINE
8
BLACK
6
CONTINUOUS
10
4.92
20
-3.33
11
4.92
21
-3.31
0
LINE
8
BLACK
6
CONTINUOUS
10
4.92
20
-3.31
11
4.90071
21
-3.31
0
LINE
8
BLACK
6
CONTINUOUS
10
4.90071
20
-3.31
11
4.90011
21
-3.31018
0
LINE
8
BLACK
6
CONTINUOUS
10
4.90011
20
-3.31018
11
4.90007
21
-3.31023
0
LINE
8
BLACK
6
CONTINUOUS
10
4.90007
20
-3.31023
11
4.9
21
-3.31053
0
LINE
8
BLACK
6
CONTINUOUS
10
4.9
20
-3.31053
11
4.9
21
-3.33176
0
LINE
8
BLACK
6
CONTINUOUS
10
4.9
20
-3.33176
11
4.90001
21
-3.33203
0
LINE
8
BLACK
6
CONTINUOUS
10
4.90001
20
-3.33203
11
4.90023
21
-3.33403
0
LINE
8
BLACK
6
CONTINUOUS
10
4.90023
20
-3.33403
11
4.90037
21
-3.33463
0
LINE
8
BLACK
6
CONTINUOUS
10
4.90037
20
-3.33463
11
4.90215
21
-3.33937
0
LINE
8
BLACK
6
CONTINUOUS
10
4.90215
20
-3.33937
11
4.90249
21
-3.33999
0
LINE
8
BLACK
6
CONTINUOUS
10
4.90249
20
-3.33999
11
4.9055
21
-3.344
0
LINE
8
BLACK
6
CONTINUOUS
10
4.9055
20
-3.344
11
4.906
21
-3.3445
0
LINE
8
BLACK
6
CONTINUOUS
10
4.906
20
-3.3445
11
4.90802
21
-3.34602
0
LINE
8
BLACK
6
CONTINUOUS
10
4.90802
20
-3.34602
11
4.9097
21
-3.34826
0
LINE
8
BLACK
6
CONTINUOUS
10
4.9097
20
-3.34826
11
4.90989
21
-3.35104
0
LINE
8
BLACK
6
CONTINUOUS
10
4.90989
20
-3.35104
11
4.90855
21
-3.3535
0
LINE
8
BLACK
6
CONTINUOUS
10
4.90855
20
-3.3535
11
4.90802
21
-3.35396
0
LINE
8
BLACK
6
CONTINUOUS
10
4.90802
20
-3.35396
11
4.9057
21
-3.3557
0
LINE
8
BLACK
6
CONTINUOUS
10
4.9057
20
-3.3557
11
4.90226
21
-3.36029
0
LINE
8
BLACK
6
CONTINUOUS
10
4.90226
20
-3.36029
11
4.90025
21
-3.36566
0
LINE
8
BLACK
6
CONTINUOUS
10
4.90025
20
-3.36566
11
4.89998
21
-3.3681
0
LINE
8
BLACK
6
CONTINUOUS
10
4.89998
20
-3.3681
11
4.89998
21
-3.4319
0
LINE
8
BLACK
6
CONTINUOUS
10
4.89998
20
-3.4319
11
4.90025
21
-3.43434
0
LINE
8
BLACK
6
CONTINUOUS
10
4.90025
20
-3.43434
11
4.90226
21
-3.43971
0
LINE
8
BLACK
6
CONTINUOUS
10
4.90226
20
-3.43971
11
4.9057
21
-3.4443
0
LINE
8
BLACK
6
CONTINUOUS
10
4.9057
20
-3.4443
11
4.90802
21
-3.44604
0
LINE
8
BLACK
6
CONTINUOUS
10
4.90802
20
-3.44604
11
4.9097
21
-3.44828
0
LINE
8
BLACK
6
CONTINUOUS
10
4.9097
20
-3.44828
11
4.90989
21
-3.45107
0
LINE
8
BLACK
6
CONTINUOUS
10
4.90989
20
-3.45107
11
4.90855
21
-3.45352
0
LINE
8
BLACK
6
CONTINUOUS
10
4.90855
20
-3.45352
11
4.90802
21
-3.45398
0
LINE
8
BLACK
6
CONTINUOUS
10
4.90802
20
-3.45398
11
4.906
21
-3.4555
0
LINE
8
BLACK
6
CONTINUOUS
10
4.906
20
-3.4555
11
4.9055
21
-3.456
0
LINE
8
BLACK
6
CONTINUOUS
10
4.9055
20
-3.456
11
4.90249
21
-3.46001
0
LINE
8
BLACK
6
CONTINUOUS
10
4.90249
20
-3.46001
11
4.90215
21
-3.46063
0
LINE
8
BLACK
6
CONTINUOUS
10
4.90215
20
-3.46063
11
4.90037
21
-3.46537
0
LINE
8
BLACK
6
CONTINUOUS
10
4.90037
20
-3.46537
11
4.90023
21
-3.46597
0
LINE
8
BLACK
6
CONTINUOUS
10
4.90023
20
-3.46597
11
4.90001
21
-3.46797
0
LINE
8
BLACK
6
CONTINUOUS
10
4.90001
20
-3.46797
11
4.9
21
-3.46824
0
LINE
8
BLACK
6
CONTINUOUS
10
4.9
20
-3.46824
11
4.9
21
-3.48929
0
LINE
8
BLACK
6
CONTINUOUS
10
4.9
20
-3.48929
11
4.90018
21
-3.48989
0
LINE
8
BLACK
6
CONTINUOUS
10
4.90018
20
-3.48989
11
4.90023
21
-3.48993
0
LINE
8
BLACK
6
CONTINUOUS
10
4.90023
20
-3.48993
11
4.90053
21
-3.49
0
LINE
8
BLACK
6
CONTINUOUS
10
4.90053
20
-3.49
11
4.92
21
-3.49
0
LINE
8
BLACK
6
CONTINUOUS
10
4.92
20
-3.49
11
4.92
21
-3.47
0
LINE
8
BLACK
6
CONTINUOUS
10
4.92
20
-3.47
11
4.98
21
-3.47
0
LINE
8
BLACK
6
CONTINUOUS
10
4.98
20
-3.47
11
4.98
21
-3.49
0
LINE
8
BLACK
6
CONTINUOUS
10
4.98
20
-3.49
11
5.02
21
-3.49
0
LINE
8
BLACK
6
CONTINUOUS
10
5.02
20
-3.49
11
5.02
21
-3.47
0
LINE
8
BLACK
6
CONTINUOUS
10
5.02
20
-3.47
11
5.08
21
-3.47
0
LINE
8
BLACK
6
CONTINUOUS
10
5.08
20
-3.47
11
5.08
21
-3.49
0
LINE
8
BLACK
6
CONTINUOUS
10
5.08
20
-3.49
11
5.09929
21
-3.49
0
LINE
8
BLACK
6
CONTINUOUS
10
5.09929
20
-3.49
11
5.09989
21
-3.48982
0
LINE
8
BLACK
6
CONTINUOUS
10
5.09989
20
-3.48982
11
5.09993
21
-3.48977
0
LINE
8
BLACK
6
CONTINUOUS
10
5.09993
20
-3.48977
11
5.1
21
-3.48947
0
LINE
8
BLACK
6
CONTINUOUS
10
5.1
20
-3.48947
11
5.1
21
-3.46824
0
LINE
8
BLACK
6
CONTINUOUS
10
5.1
20
-3.46824
11
5.09999
21
-3.46797
0
LINE
8
BLACK
6
CONTINUOUS
10
5.09999
20
-3.46797
11
5.09977
21
-3.46597
0
LINE
8
BLACK
6
CONTINUOUS
10
5.09977
20
-3.46597
11
5.09963
21
-3.46537
0
LINE
8
BLACK
6
CONTINUOUS
10
5.09963
20
-3.46537
11
5.09785
21
-3.46063
0
LINE
8
BLACK
6
CONTINUOUS
10
5.09785
20
-3.46063
11
5.09751
21
-3.46001
0
LINE
8
BLACK
6
CONTINUOUS
10
5.09751
20
-3.46001
11
5.0945
21
-3.456
0
LINE
8
BLACK
6
CONTINUOUS
10
5.0945
20
-3.456
11
5.094
21
-3.4555
0
LINE
8
BLACK
6
CONTINUOUS
10
5.094
20
-3.4555
11
5.09198
21
-3.45398
0
LINE
8
BLACK
6
CONTINUOUS
10
5.09198
20
-3.45398
11
5.0903
21
-3.45174
0
LINE
8
BLACK
6
CONTINUOUS
10
5.0903
20
-3.45174
11
5.09011
21
-3.44896
0
LINE
8
BLACK
6
CONTINUOUS
10
5.09011
20
-3.44896
11
5.09145
21
-3.4465
0
LINE
8
BLACK
6
CONTINUOUS
10
5.09145
20
-3.4465
11
5.09198
21
-3.44604
0
LINE
8
BLACK
6
CONTINUOUS
10
5.09198
20
-3.44604
11
5.0943
21
-3.4443
0
LINE
8
BLACK
6
CONTINUOUS
10
5.0943
20
-3.4443
11
5.09774
21
-3.43971
0
LINE
8
BLACK
6
CONTINUOUS
10
5.09774
20
-3.43971
11
5.09975
21
-3.43434
0
LINE
8
BLACK
6
CONTINUOUS
10
5.09975
20
-3.43434
11
5.10002
21
-3.4319
0
LINE
8
BLACK
6
CONTINUOUS
10
5.10002
20
-3.4319
11
5.10002
21
-3.3681
0
LINE
8
BLACK
6
CONTINUOUS
10
5.10002
20
-3.3681
11
5.09975
21
-3.36566
0
LINE
8
BLACK
6
CONTINUOUS
10
5.09975
20
-3.36566
11
5.09774
21
-3.36029
0
LINE
8
BLACK
6
CONTINUOUS
10
5.09774
20
-3.36029
11
5.0943
21
-3.3557
0
LINE
8
BLACK
6
CONTINUOUS
10
5.0943
20
-3.3557
11
5.09198
21
-3.35396
0
LINE
8
BLACK
6
CONTINUOUS
10
5.09198
20
-3.35396
11
5.0903
21
-3.35172
0
LINE
8
BLACK
6
CONTINUOUS
10
5.0903
20
-3.35172
11
5.09011
21
-3.34893
0
LINE
8
BLACK
6
CONTINUOUS
10
5.09011
20
-3.34893
11
5.09145
21
-3.34648
0
LINE
8
BLACK
6
CONTINUOUS
10
5.09145
20
-3.34648
11
5.09198
21
-3.34602
0
LINE
8
BLACK
6
CONTINUOUS
10
5.09198
20
-3.34602
11
5.094
21
-3.3445
0
LINE
8
BLACK
6
CONTINUOUS
10
5.094
20
-3.3445
11
5.0945
21
-3.344
0
LINE
8
BLACK
6
CONTINUOUS
10
5.0945
20
-3.344
11
5.09751
21
-3.33999
0
LINE
8
BLACK
6
CONTINUOUS
10
5.09751
20
-3.33999
11
5.09785
21
-3.33937
0
LINE
8
BLACK
6
CONTINUOUS
10
5.09785
20
-3.33937
11
5.09963
21
-3.33463
0
LINE
8
BLACK
6
CONTINUOUS
10
5.09963
20
-3.33463
11
5.09977
21
-3.33403
0
LINE
8
BLACK
6
CONTINUOUS
10
5.09977
20
-3.33403
11
5.09999
21
-3.33203
0
LINE
8
BLACK
6
CONTINUOUS
10
5.09999
20
-3.33203
11
5.1
21
-3.33176
0
LINE
8
BLACK
6
CONTINUOUS
10
5.1
20
-3.33176
11
5.1
21
-3.31071
0
LINE
8
BLACK
6
CONTINUOUS
10
5.1
20
-3.31071
11
5.09982
21
-3.31011
0
LINE
8
BLACK
6
CONTINUOUS
10
5.78
20
-3.48
11
5.72
21
-3.48
0
LINE
8
BLACK
6
CONTINUOUS
10
5.72
20
-3.48
11
5.72
21
-3.45787
0
LINE
8
BLACK
6
CONTINUOUS
10
5.72
20
-3.45787
11
5.70326
21
-3.45787
0
LINE
8
BLACK
6
CONTINUOUS
10
5.70326
20
-3.45787
11
5.66787
21
-3.49326
0
LINE
8
BLACK
6
CONTINUOUS
10
5.66787
20
-3.49326
11
5.66787
21
-3.56001
0
LINE
8
BLACK
6
CONTINUOUS
10
5.66787
20
-3.56001
11
5.66758
21
-3.5613
0
LINE
8
BLACK
6
CONTINUOUS
10
5.66758
20
-3.5613
11
5.66743
21
-3.5626
0
LINE
8
BLACK
6
CONTINUOUS
10
5.66743
20
-3.5626
11
5.66719
21
-3.56299
0
LINE
8
BLACK
6
CONTINUOUS
10
5.66719
20
-3.56299
11
5.66709
21
-3.56343
0
LINE
8
BLACK
6
CONTINUOUS
10
5.66709
20
-3.56343
11
5.66627
21
-3.56445
0
LINE
8
BLACK
6
CONTINUOUS
10
5.66627
20
-3.56445
11
5.66557
21
-3.56557
0
LINE
8
BLACK
6
CONTINUOUS
10
5.66557
20
-3.56557
11
5.57556
21
-3.65558
0
LINE
8
BLACK
6
CONTINUOUS
10
5.57556
20
-3.65558
11
5.57444
21
-3.65628
0
LINE
8
BLACK
6
CONTINUOUS
10
5.57444
20
-3.65628
11
5.57341
21
-3.6571
0
LINE
8
BLACK
6
CONTINUOUS
10
5.57341
20
-3.6571
11
5.57297
21
-3.6572
0
LINE
8
BLACK
6
CONTINUOUS
10
5.57297
20
-3.6572
11
5.57259
21
-3.65744
0
LINE
8
BLACK
6
CONTINUOUS
10
5.57259
20
-3.65744
11
5.57128
21
-3.65758
0
LINE
8
BLACK
6
CONTINUOUS
10
5.57128
20
-3.65758
11
5.57
21
-3.65787
0
LINE
8
BLACK
6
CONTINUOUS
10
5.57
20
-3.65787
11
5.38999
21
-3.65787
0
LINE
8
BLACK
6
CONTINUOUS
10
5.38999
20
-3.65787
11
5.3887
21
-3.65758
0
LINE
8
BLACK
6
CONTINUOUS
10
5.3887
20
-3.65758
11
5.3874
21
-3.65743
0
LINE
8
BLACK
6
CONTINUOUS
10
5.3874
20
-3.65743
11
5.38701
21
-3.65719
0
LINE
8
BLACK
6
CONTINUOUS
10
5.38701
20
-3.65719
11
5.38657
21
-3.65709
0
LINE
8
BLACK
6
CONTINUOUS
10
5.38657
20
-3.65709
11
5.38555
21
-3.65627
0
LINE
8
BLACK
6
CONTINUOUS
10
5.38555
20
-3.65627
11
5.38443
21
-3.65557
0
LINE
8
BLACK
6
CONTINUOUS
10
5.38443
20
-3.65557
11
5.24974
21
-3.52087
0
LINE
8
BLACK
6
CONTINUOUS
10
5.24974
20
-3.52087
11
5.24904
21
-3.51976
0
LINE
8
BLACK
6
CONTINUOUS
10
5.24904
20
-3.51976
11
5.24822
21
-3.51873
0
LINE
8
BLACK
6
CONTINUOUS
10
5.24822
20
-3.51873
11
5.24812
21
-3.51829
0
LINE
8
BLACK
6
CONTINUOUS
10
5.24812
20
-3.51829
11
5.24788
21
-3.5179
0
LINE
8
BLACK
6
CONTINUOUS
10
5.24788
20
-3.5179
11
5.24773
21
-3.5166
0
LINE
8
BLACK
6
CONTINUOUS
10
5.24773
20
-3.5166
11
5.24744
21
-3.51531
0
LINE
8
BLACK
6
CONTINUOUS
10
5.24744
20
-3.51531
11
5.24744
21
-3.4878
0
LINE
8
BLACK
6
CONTINUOUS
10
5.24744
20
-3.4878
11
5.22283
21
-3.4878
0
LINE
8
BLACK
6
CONTINUOUS
10
5.22283
20
-3.4878
11
5.22283
21
-3.4622
0
LINE
8
BLACK
6
CONTINUOUS
10
5.22283
20
-3.4622
11
5.2878
21
-3.4622
0
LINE
8
BLACK
6
CONTINUOUS
10
5.2878
20
-3.4622
11
5.2878
21
-3.4878
0
LINE
8
BLACK
6
CONTINUOUS
10
5.2878
20
-3.4878
11
5.26319
21
-3.4878
0
LINE
8
BLACK
6
CONTINUOUS
10
5.26319
20
-3.4878
11
5.26319
21
-3.51205
0
LINE
8
BLACK
6
CONTINUOUS
10
5.26319
20
-3.51205
11
5.39326
21
-3.64213
0
LINE
8
BLACK
6
CONTINUOUS
10
5.39326
20
-3.64213
11
5.56674
21
-3.64213
0
LINE
8
BLACK
6
CONTINUOUS
10
5.56674
20
-3.64213
11
5.65213
21
-3.55674
0
LINE
8
BLACK
6
CONTINUOUS
10
5.65213
20
-3.55674
11
5.65213
21
-3.48999
0
LINE
8
BLACK
6
CONTINUOUS
10
5.65213
20
-3.48999
11
5.65242
21
-3.4887
0
LINE
8
BLACK
6
CONTINUOUS
10
5.65242
20
-3.4887
11
5.65257
21
-3.4874
0
LINE
8
BLACK
6
CONTINUOUS
10
5.65257
20
-3.4874
11
5.65281
21
-3.48701
0
LINE
8
BLACK
6
CONTINUOUS
10
5.65281
20
-3.48701
11
5.65291
21
-3.48657
0
LINE
8
BLACK
6
CONTINUOUS
10
5.65291
20
-3.48657
11
5.65373
21
-3.48555
0
LINE
8
BLACK
6
CONTINUOUS
10
5.65373
20
-3.48555
11
5.65443
21
-3.48443
0
LINE
8
BLACK
6
CONTINUOUS
10
5.65443
20
-3.48443
11
5.69444
21
-3.44442
0
LINE
8
BLACK
6
CONTINUOUS
10
5.69444
20
-3.44442
11
5.69556
21
-3.44372
0
LINE
8
BLACK
6
CONTINUOUS
10
5.69556
20
-3.44372
11
5.69659
21
-3.4429
0
LINE
8
BLACK
6
CONTINUOUS
10
5.69659
20
-3.4429
11
5.69703
21
-3.4428
0
LINE
8
BLACK
6
CONTINUOUS
10
5.69703
20
-3.4428
11
5.69741
21
-3.44256
0
LINE
8
BLACK
6
CONTINUOUS
10
5.69741
20
-3.44256
11
5.69872
21
-3.44242
0
LINE
8
BLACK
6
CONTINUOUS
10
5.69872
20
-3.44242
11
5.7
21
-3.44213
0
LINE
8
BLACK
6
CONTINUOUS
10
5.7
20
-3.44213
11
5.72
21
-3.44213
0
LINE
8
BLACK
6
CONTINUOUS
10
5.72
20
-3.44213
11
5.72
21
-3.42
0
LINE
8
BLACK
6
CONTINUOUS
10
5.72
20
-3.42
11
5.78
21
-3.42
0
LINE
8
BLACK
6
CONTINUOUS
10
5.78
20
-3.42
11
5.78
21
-3.48
0
LINE
8
BLACK
6
CONTINUOUS
10
5.57717
20
-3.4878
11
5.5575
21
-3.4878
0
LINE
8
BLACK
6
CONTINUOUS
10
5.5575
20
-3.4878
11
5.5575
21
-3.5225
0
LINE
8
BLACK
6
CONTINUOUS
10
5.5575
20
-3.5225
11
5.565
21
-3.5225
0
LINE
8
BLACK
6
CONTINUOUS
10
5.565
20
-3.5225
11
5.565
21
-3.5775
0
LINE
8
BLACK
6
CONTINUOUS
10
5.565
20
-3.5775
11
5.56
21
-3.5775
0
LINE
8
BLACK
6
CONTINUOUS
10
5.56
20
-3.5775
11
5.56
21
-3.598
0
LINE
8
BLACK
6
CONTINUOUS
10
5.56
20
-3.598
11
5.56274
21
-3.60074
0
LINE
8
BLACK
6
CONTINUOUS
10
5.56274
20
-3.60074
11
5.56498
21
-3.60513
0
LINE
8
BLACK
6
CONTINUOUS
10
5.56498
20
-3.60513
11
5.56575
21
-3.61
0
LINE
8
BLACK
6
CONTINUOUS
10
5.56575
20
-3.61
11
5.56498
21
-3.61487
0
LINE
8
BLACK
6
CONTINUOUS
10
5.56498
20
-3.61487
11
5.56274
21
-3.61926
0
LINE
8
BLACK
6
CONTINUOUS
10
5.56274
20
-3.61926
11
5.55926
21
-3.62274
0
LINE
8
BLACK
6
CONTINUOUS
10
5.55926
20
-3.62274
11
5.55487
21
-3.62498
0
LINE
8
BLACK
6
CONTINUOUS
10
5.55487
20
-3.62498
11
5.55
21
-3.62575
0
LINE
8
BLACK
6
CONTINUOUS
10
5.55
20
-3.62575
11
5.54513
21
-3.62498
0
LINE
8
BLACK
6
CONTINUOUS
10
5.54513
20
-3.62498
11
5.54074
21
-3.62274
0
LINE
8
BLACK
6
CONTINUOUS
10
5.54074
20
-3.62274
11
5.53726
21
-3.61926
0
LINE
8
BLACK
6
CONTINUOUS
10
5.53726
20
-3.61926
11
5.53502
21
-3.61487
0
LINE
8
BLACK
6
CONTINUOUS
10
5.53502
20
-3.61487
11
5.53425
21
-3.61
0
LINE
8
BLACK
6
CONTINUOUS
10
5.53425
20
-3.61
11
5.53502
21
-3.60513
0
LINE
8
BLACK
6
CONTINUOUS
10
5.53502
20
-3.60513
11
5.53726
21
-3.60074
0
LINE
8
BLACK
6
CONTINUOUS
10
5.53726
20
-3.60074
11
5.54
21
-3.598
0
LINE
8
BLACK
6
CONTINUOUS
10
5.54
20
-3.598
11
5.54
21
-3.5775
0
LINE
8
BLACK
6
CONTINUOUS
10
5.54
20
-3.5775
11
5.53
21
-3.5775
0
LINE
8
BLACK
6
CONTINUOUS
10
5.53
20
-3.5775
11
5.53
21
-3.5225
0
LINE
8
BLACK
6
CONTINUOUS
10
5.53
20
-3.5225
11
5.5375
21
-3.5225
0
LINE
8
BLACK
6
CONTINUOUS
10
5.5375
20
-3.5225
11
5.5375
21
-3.4878
0
LINE
8
BLACK
6
CONTINUOUS
10
5.5375
20
-3.4878
11
5.5122
21
-3.4878
0
LINE
8
BLACK
6
CONTINUOUS
10
5.5122
20
-3.4878
11
5.5122
21
-3.4622
0
LINE
8
BLACK
6
CONTINUOUS
10
5.5122
20
-3.4622
11
5.57717
21
-3.4622
0
LINE
8
BLACK
6
CONTINUOUS
10
5.57717
20
-3.4622
11
5.57717
21
-3.4878
0
LINE
8
BLACK
6
CONTINUOUS
10
5.29251
20
-3.51195
11
5.29271
21
-3.50916
0
LINE
8
BLACK
6
CONTINUOUS
10
5.29271
20
-3.50916
11
5.29438
21
-3.50692
0
LINE
8
BLACK
6
CONTINUOUS
10
5.29438
20
-3.50692
11
5.29561
21
-3.50625
0
LINE
8
BLACK
6
CONTINUOUS
10
5.29561
20
-3.50625
11
5.29718
21
-3.50566
0
LINE
8
BLACK
6
CONTINUOUS
10
5.29718
20
-3.50566
11
5.29718
21
-3.50566
0
LINE
8
BLACK
6
CONTINUOUS
10
5.29718
20
-3.50566
11
5.29751
21
-3.50554
0
LINE
8
BLACK
6
CONTINUOUS
10
5.29751
20
-3.50554
11
5.3021
21
-3.5021
0
LINE
8
BLACK
6
CONTINUOUS
10
5.3021
20
-3.5021
11
5.30554
21
-3.49751
0
LINE
8
BLACK
6
CONTINUOUS
10
5.30554
20
-3.49751
11
5.30755
21
-3.49214
0
LINE
8
BLACK
6
CONTINUOUS
10
5.30755
20
-3.49214
11
5.30781
21
-3.48969
0
LINE
8
BLACK
6
CONTINUOUS
10
5.30781
20
-3.48969
11
5.30781
21
-3.46031
0
LINE
8
BLACK
6
CONTINUOUS
10
5.30781
20
-3.46031
11
5.30778
21
-3.46
0
LINE
8
BLACK
6
CONTINUOUS
10
5.30778
20
-3.46
11
5.30755
21
-3.45786
0
LINE
8
BLACK
6
CONTINUOUS
10
5.30755
20
-3.45786
11
5.30764
21
-3.45785
0
LINE
8
BLACK
6
CONTINUOUS
10
5.30764
20
-3.45785
11
5.30776
21
-3.45553
0
LINE
8
BLACK
6
CONTINUOUS
10
5.30776
20
-3.45553
11
5.3094
21
-3.45326
0
LINE
8
BLACK
6
CONTINUOUS
10
5.3094
20
-3.45326
11
5.31126
21
-3.45236
0
LINE
8
BLACK
6
CONTINUOUS
10
5.31126
20
-3.45236
11
5.31141
21
-3.45232
0
LINE
8
BLACK
6
CONTINUOUS
10
5.31141
20
-3.45232
11
5.3117
21
-3.45229
0
LINE
8
BLACK
6
CONTINUOUS
10
5.3117
20
-3.45229
11
5.31198
21
-3.45218
0
LINE
8
BLACK
6
CONTINUOUS
10
5.31198
20
-3.45218
11
5.31209
21
-3.45216
0
LINE
8
BLACK
6
CONTINUOUS
10
5.31209
20
-3.45216
11
5.31273
21
-3.45198
0
LINE
8
BLACK
6
CONTINUOUS
10
5.31273
20
-3.45198
11
5.31283
21
-3.45195
0
LINE
8
BLACK
6
CONTINUOUS
10
5.31283
20
-3.45195
11
5.31312
21
-3.4519
0
LINE
8
BLACK
6
CONTINUOUS
10
5.31312
20
-3.4519
11
5.31543
21
-3.45089
0
LINE
8
BLACK
6
CONTINUOUS
10
5.31543
20
-3.45089
11
5.31567
21
-3.45079
0
LINE
8
BLACK
6
CONTINUOUS
10
5.31567
20
-3.45079
11
5.31774
21
-3.45001
0
LINE
8
BLACK
6
CONTINUOUS
10
5.31774
20
-3.45001
11
5.31774
21
-3.45001
0
LINE
8
BLACK
6
CONTINUOUS
10
5.31774
20
-3.45001
11
5.31802
21
-3.4499
0
LINE
8
BLACK
6
CONTINUOUS
10
5.31802
20
-3.4499
11
5.31826
21
-3.44973
0
LINE
8
BLACK
6
CONTINUOUS
10
5.31826
20
-3.44973
11
5.31836
21
-3.44968
0
LINE
8
BLACK
6
CONTINUOUS
10
5.31836
20
-3.44968
11
5.31894
21
-3.44936
0
LINE
8
BLACK
6
CONTINUOUS
10
5.31894
20
-3.44936
11
5.31903
21
-3.44931
0
LINE
8
BLACK
6
CONTINUOUS
10
5.31903
20
-3.44931
11
5.3193
21
-3.44919
0
LINE
8
BLACK
6
CONTINUOUS
10
5.3193
20
-3.44919
11
5.3213
21
-3.44765
0
LINE
8
BLACK
6
CONTINUOUS
10
5.3213
20
-3.44765
11
5.32151
21
-3.4475
0
LINE
8
BLACK
6
CONTINUOUS
10
5.32151
20
-3.4475
11
5.32334
21
-3.44625
0
LINE
8
BLACK
6
CONTINUOUS
10
5.32334
20
-3.44625
11
5.32334
21
-3.44625
0
LINE
8
BLACK
6
CONTINUOUS
10
5.32334
20
-3.44625
11
5.32358
21
-3.44608
0
LINE
8
BLACK
6
CONTINUOUS
10
5.32358
20
-3.44608
11
5.32386
21
-3.44577
0
LINE
8
BLACK
6
CONTINUOUS
10
5.32386
20
-3.44577
11
5.32521
21
-3.44425
0
LINE
8
BLACK
6
CONTINUOUS
10
5.32521
20
-3.44425
11
5.32541
21
-3.44404
0
LINE
8
BLACK
6
CONTINUOUS
10
5.32541
20
-3.44404
11
5.4901
21
-3.27935
0
LINE
8
BLACK
6
CONTINUOUS
10
5.4901
20
-3.27935
11
5.49255
21
-3.27801
0
LINE
8
BLACK
6
CONTINUOUS
10
5.49255
20
-3.27801
11
5.49361
21
-3.27789
0
LINE
8
BLACK
6
CONTINUOUS
10
5.49361
20
-3.27789
11
5.60068
21
-3.27789
0
LINE
8
BLACK
6
CONTINUOUS
10
5.60068
20
-3.27789
11
5.60336
21
-3.27868
0
LINE
8
BLACK
6
CONTINUOUS
10
5.60336
20
-3.27868
11
5.60519
21
-3.28079
0
LINE
8
BLACK
6
CONTINUOUS
10
5.60519
20
-3.28079
11
5.60559
21
-3.28356
0
LINE
8
BLACK
6
CONTINUOUS
10
5.60559
20
-3.28356
11
5.60443
21
-3.2861
0
LINE
8
BLACK
6
CONTINUOUS
10
5.60443
20
-3.2861
11
5.60419
21
-3.28636
0
LINE
8
BLACK
6
CONTINUOUS
10
5.60419
20
-3.28636
11
5.59518
21
-3.29537
0
LINE
8
BLACK
6
CONTINUOUS
10
5.59518
20
-3.29537
11
5.59273
21
-3.29671
0
LINE
8
BLACK
6
CONTINUOUS
10
5.59273
20
-3.29671
11
5.58994
21
-3.29651
0
LINE
8
BLACK
6
CONTINUOUS
10
5.58994
20
-3.29651
11
5.5887
21
-3.29583
0
LINE
8
BLACK
6
CONTINUOUS
10
5.5887
20
-3.29583
11
5.58716
21
-3.29468
0
LINE
8
BLACK
6
CONTINUOUS
10
5.58716
20
-3.29468
11
5.58716
21
-3.29468
0
LINE
8
BLACK
6
CONTINUOUS
10
5.58716
20
-3.29468
11
5.58688
21
-3.29446
0
LINE
8
BLACK
6
CONTINUOUS
10
5.58688
20
-3.29446
11
5.58151
21
-3.29245
0
LINE
8
BLACK
6
CONTINUOUS
10
5.58151
20
-3.29245
11
5.57906
21
-3.29219
0
LINE
8
BLACK
6
CONTINUOUS
10
5.57906
20
-3.29219
11
5.51031
21
-3.29219
0
LINE
8
BLACK
6
CONTINUOUS
10
5.51031
20
-3.29219
11
5.50786
21
-3.29245
0
LINE
8
BLACK
6
CONTINUOUS
10
5.50786
20
-3.29245
11
5.50249
21
-3.29446
0
LINE
8
BLACK
6
CONTINUOUS
10
5.50249
20
-3.29446
11
5.4979
21
-3.2979
0
LINE
8
BLACK
6
CONTINUOUS
10
5.4979
20
-3.2979
11
5.49446
21
-3.30249
0
LINE
8
BLACK
6
CONTINUOUS
10
5.49446
20
-3.30249
11
5.49245
21
-3.30786
0
LINE
8
BLACK
6
CONTINUOUS
10
5.49245
20
-3.30786
11
5.49219
21
-3.31031
0
LINE
8
BLACK
6
CONTINUOUS
10
5.49219
20
-3.31031
11
5.49219
21
-3.33969
0
LINE
8
BLACK
6
CONTINUOUS
10
5.49219
20
-3.33969
11
5.49245
21
-3.34214
0
LINE
8
BLACK
6
CONTINUOUS
10
5.49245
20
-3.34214
11
5.49256
21
-3.34243
0
LINE
8
BLACK
6
CONTINUOUS
10
5.49256
20
-3.34243
11
5.49427
21
-3.34699
0
LINE
8
BLACK
6
CONTINUOUS
10
5.49427
20
-3.34699
11
5.49446
21
-3.34751
0
LINE
8
BLACK
6
CONTINUOUS
10
5.49446
20
-3.34751
11
5.4946
21
-3.34768
0
LINE
8
BLACK
6
CONTINUOUS
10
5.4946
20
-3.34768
11
5.49518
21
-3.35035
0
LINE
8
BLACK
6
CONTINUOUS
10
5.49518
20
-3.35035
11
5.4946
21
-3.35231
0
LINE
8
BLACK
6
CONTINUOUS
10
5.4946
20
-3.35231
11
5.49446
21
-3.35249
0
LINE
8
BLACK
6
CONTINUOUS
10
5.49446
20
-3.35249
11
5.49434
21
-3.35282
0
LINE
8
BLACK
6
CONTINUOUS
10
5.49434
20
-3.35282
11
5.49434
21
-3.35282
0
LINE
8
BLACK
6
CONTINUOUS
10
5.49434
20
-3.35282
11
5.49334
21
-3.35549
0
LINE
8
BLACK
6
CONTINUOUS
10
5.49334
20
-3.35549
11
5.49245
21
-3.35786
0
LINE
8
BLACK
6
CONTINUOUS
10
5.49245
20
-3.35786
11
5.49219
21
-3.36031
0
LINE
8
BLACK
6
CONTINUOUS
10
5.49219
20
-3.36031
11
5.49219
21
-3.38969
0
LINE
8
BLACK
6
CONTINUOUS
10
5.49219
20
-3.38969
11
5.49245
21
-3.39214
0
LINE
8
BLACK
6
CONTINUOUS
10
5.49245
20
-3.39214
11
5.49256
21
-3.39243
0
LINE
8
BLACK
6
CONTINUOUS
10
5.49256
20
-3.39243
11
5.49393
21
-3.39608
0
LINE
8
BLACK
6
CONTINUOUS
10
5.49393
20
-3.39608
11
5.49446
21
-3.39751
0
LINE
8
BLACK
6
CONTINUOUS
10
5.49446
20
-3.39751
11
5.4946
21
-3.39768
0
LINE
8
BLACK
6
CONTINUOUS
10
5.4946
20
-3.39768
11
5.49518
21
-3.40035
0
LINE
8
BLACK
6
CONTINUOUS
10
5.49518
20
-3.40035
11
5.4946
21
-3.40231
0
LINE
8
BLACK
6
CONTINUOUS
10
5.4946
20
-3.40231
11
5.49446
21
-3.40249
0
LINE
8
BLACK
6
CONTINUOUS
10
5.49446
20
-3.40249
11
5.49434
21
-3.40282
0
LINE
8
BLACK
6
CONTINUOUS
10
5.49434
20
-3.40282
11
5.49434
21
-3.40282
0
LINE
8
BLACK
6
CONTINUOUS
10
5.49434
20
-3.40282
11
5.49405
21
-3.40359
0
LINE
8
BLACK
6
CONTINUOUS
10
5.49405
20
-3.40359
11
5.49245
21
-3.40786
0
LINE
8
BLACK
6
CONTINUOUS
10
5.49245
20
-3.40786
11
5.49219
21
-3.41031
0
LINE
8
BLACK
6
CONTINUOUS
10
5.49219
20
-3.41031
11
5.49219
21
-3.43969
0
LINE
8
BLACK
6
CONTINUOUS
10
5.49219
20
-3.43969
11
5.49245
21
-3.44214
0
LINE
8
BLACK
6
CONTINUOUS
10
5.49245
20
-3.44214
11
5.49256
21
-3.44243
0
LINE
8
BLACK
6
CONTINUOUS
10
5.49256
20
-3.44243
11
5.49393
21
-3.44608
0
LINE
8
BLACK
6
CONTINUOUS
10
5.49393
20
-3.44608
11
5.49446
21
-3.44751
0
LINE
8
BLACK
6
CONTINUOUS
10
5.49446
20
-3.44751
11
5.4946
21
-3.44768
0
LINE
8
BLACK
6
CONTINUOUS
10
5.4946
20
-3.44768
11
5.49518
21
-3.45035
0
LINE
8
BLACK
6
CONTINUOUS
10
5.49518
20
-3.45035
11
5.4946
21
-3.45231
0
LINE
8
BLACK
6
CONTINUOUS
10
5.4946
20
-3.45231
11
5.49446
21
-3.45249
0
LINE
8
BLACK
6
CONTINUOUS
10
5.49446
20
-3.45249
11
5.49434
21
-3.45282
0
LINE
8
BLACK
6
CONTINUOUS
10
5.49434
20
-3.45282
11
5.49434
21
-3.45282
0
LINE
8
BLACK
6
CONTINUOUS
10
5.49434
20
-3.45282
11
5.49391
21
-3.45398
0
LINE
8
BLACK
6
CONTINUOUS
10
5.49391
20
-3.45398
11
5.49245
21
-3.45786
0
LINE
8
BLACK
6
CONTINUOUS
10
5.49245
20
-3.45786
11
5.49219
21
-3.46031
0
LINE
8
BLACK
6
CONTINUOUS
10
5.49219
20
-3.46031
11
5.49219
21
-3.48969
0
LINE
8
BLACK
6
CONTINUOUS
10
5.49219
20
-3.48969
11
5.49245
21
-3.49214
0
LINE
8
BLACK
6
CONTINUOUS
10
5.49245
20
-3.49214
11
5.49316
21
-3.49402
0
LINE
8
BLACK
6
CONTINUOUS
10
5.49316
20
-3.49402
11
5.49382
21
-3.4958
0
LINE
8
BLACK
6
CONTINUOUS
10
5.49382
20
-3.4958
11
5.49403
21
-3.49859
0
LINE
8
BLACK
6
CONTINUOUS
10
5.49403
20
-3.49859
11
5.49269
21
-3.50104
0
LINE
8
BLACK
6
CONTINUOUS
10
5.49269
20
-3.50104
11
5.49024
21
-3.50238
0
LINE
8
BLACK
6
CONTINUOUS
10
5.49024
20
-3.50238
11
5.48918
21
-3.5025
0
LINE
8
BLACK
6
CONTINUOUS
10
5.48918
20
-3.5025
11
5.48321
21
-3.5025
0
LINE
8
BLACK
6
CONTINUOUS
10
5.48321
20
-3.5025
11
5.48261
21
-3.50268
0
LINE
8
BLACK
6
CONTINUOUS
10
5.48261
20
-3.50268
11
5.48257
21
-3.50273
0
LINE
8
BLACK
6
CONTINUOUS
10
5.48257
20
-3.50273
11
5.4825
21
-3.50303
0
LINE
8
BLACK
6
CONTINUOUS
10
5.4825
20
-3.50303
11
5.4825
21
-3.5225
0
LINE
8
BLACK
6
CONTINUOUS
10
5.4825
20
-3.5225
11
5.49
21
-3.5225
0
LINE
8
BLACK
6
CONTINUOUS
10
5.49
20
-3.5225
11
5.49
21
-3.5775
0
LINE
8
BLACK
6
CONTINUOUS
10
5.49
20
-3.5775
11
5.4825
21
-3.5775
0
LINE
8
BLACK
6
CONTINUOUS
10
5.4825
20
-3.5775
11
5.4825
21
-3.59679
0
LINE
8
BLACK
6
CONTINUOUS
10
5.4825
20
-3.59679
11
5.48268
21
-3.59739
0
LINE
8
BLACK
6
CONTINUOUS
10
5.48268
20
-3.59739
11
5.48273
21
-3.59743
0
LINE
8
BLACK
6
CONTINUOUS
10
5.48273
20
-3.59743
11
5.48303
21
-3.5975
0
LINE
8
BLACK
6
CONTINUOUS
10
5.48303
20
-3.5975
11
5.49176
21
-3.5975
0
LINE
8
BLACK
6
CONTINUOUS
10
5.49176
20
-3.5975
11
5.49203
21
-3.59749
0
LINE
8
BLACK
6
CONTINUOUS
10
5.49203
20
-3.59749
11
5.49403
21
-3.59727
0
LINE
8
BLACK
6
CONTINUOUS
10
5.49403
20
-3.59727
11
5.49463
21
-3.59713
0
LINE
8
BLACK
6
CONTINUOUS
10
5.49463
20
-3.59713
11
5.49937
21
-3.59535
0
LINE
8
BLACK
6
CONTINUOUS
10
5.49937
20
-3.59535
11
5.49999
21
-3.59501
0
LINE
8
BLACK
6
CONTINUOUS
10
5.49999
20
-3.59501
11
5.504
21
-3.592
0
LINE
8
BLACK
6
CONTINUOUS
10
5.504
20
-3.592
11
5.5045
21
-3.5915
0
LINE
8
BLACK
6
CONTINUOUS
10
5.5045
20
-3.5915
11
5.50602
21
-3.58948
0
LINE
8
BLACK
6
CONTINUOUS
10
5.50602
20
-3.58948
11
5.50826
21
-3.5878
0
LINE
8
BLACK
6
CONTINUOUS
10
5.50826
20
-3.5878
11
5.51104
21
-3.58761
0
LINE
8
BLACK
6
CONTINUOUS
10
5.51104
20
-3.58761
11
5.5135
21
-3.58895
0
LINE
8
BLACK
6
CONTINUOUS
10
5.5135
20
-3.58895
11
5.51396
21
-3.58948
0
LINE
8
BLACK
6
CONTINUOUS
10
5.51396
20
-3.58948
11
5.51556
21
-3.59162
0
LINE
8
BLACK
6
CONTINUOUS
10
5.51556
20
-3.59162
11
5.51556
21
-3.59162
0
LINE
8
BLACK
6
CONTINUOUS
10
5.51556
20
-3.59162
11
5.5157
21
-3.5918
0
LINE
8
BLACK
6
CONTINUOUS
10
5.5157
20
-3.5918
11
5.51567
21
-3.59182
0
LINE
8
BLACK
6
CONTINUOUS
10
5.51567
20
-3.59182
11
5.51687
21
-3.59402
0
LINE
8
BLACK
6
CONTINUOUS
10
5.51687
20
-3.59402
11
5.51674
21
-3.59661
0
LINE
8
BLACK
6
CONTINUOUS
10
5.51674
20
-3.59661
11
5.51482
21
-3.60252
0
LINE
8
BLACK
6
CONTINUOUS
10
5.51482
20
-3.60252
11
5.51404
21
-3.61
0
LINE
8
BLACK
6
CONTINUOUS
10
5.51404
20
-3.61
11
5.51406
21
-3.61026
0
LINE
8
BLACK
6
CONTINUOUS
10
5.51406
20
-3.61026
11
5.51473
21
-3.61663
0
LINE
8
BLACK
6
CONTINUOUS
10
5.51473
20
-3.61663
11
5.51423
21
-3.61938
0
LINE
8
BLACK
6
CONTINUOUS
10
5.51423
20
-3.61938
11
5.51232
21
-3.62142
0
LINE
8
BLACK
6
CONTINUOUS
10
5.51232
20
-3.62142
11
5.5098
21
-3.62211
0
LINE
8
BLACK
6
CONTINUOUS
10
5.5098
20
-3.62211
11
5.40361
21
-3.62211
0
LINE
8
BLACK
6
CONTINUOUS
10
5.40361
20
-3.62211
11
5.40093
21
-3.62132
0
LINE
8
BLACK
6
CONTINUOUS
10
5.40093
20
-3.62132
11
5.4001
21
-3.62065
0
LINE
8
BLACK
6
CONTINUOUS
10
5.4001
20
-3.62065
11
5.29385
21
-3.5144
0
LINE
8
BLACK
6
CONTINUOUS
10
5.29385
20
-3.5144
11
5.29251
21
-3.51195
0
LINE
8
BLACK
6
CONTINUOUS
10
5.43523
20
-3.58153
11
5.43537
21
-3.58213
0
LINE
8
BLACK
6
CONTINUOUS
10
5.43537
20
-3.58213
11
5.43715
21
-3.58687
0
LINE
8
BLACK
6
CONTINUOUS
10
5.43715
20
-3.58687
11
5.43749
21
-3.58749
0
LINE
8
BLACK
6
CONTINUOUS
10
5.43749
20
-3.58749
11
5.4405
21
-3.5915
0
LINE
8
BLACK
6
CONTINUOUS
10
5.4405
20
-3.5915
11
5.441
21
-3.592
0
LINE
8
BLACK
6
CONTINUOUS
10
5.441
20
-3.592
11
5.44501
21
-3.59501
0
LINE
8
BLACK
6
CONTINUOUS
10
5.44501
20
-3.59501
11
5.44563
21
-3.59535
0
LINE
8
BLACK
6
CONTINUOUS
10
5.44563
20
-3.59535
11
5.45037
21
-3.59713
0
LINE
8
BLACK
6
CONTINUOUS
10
5.45037
20
-3.59713
11
5.45097
21
-3.59727
0
LINE
8
BLACK
6
CONTINUOUS
10
5.45097
20
-3.59727
11
5.45297
21
-3.59749
0
LINE
8
BLACK
6
CONTINUOUS
10
5.45297
20
-3.59749
11
5.45324
21
-3.5975
0
LINE
8
BLACK
6
CONTINUOUS
10
5.45324
20
-3.5975
11
5.46179
21
-3.5975
0
LINE
8
BLACK
6
CONTINUOUS
10
5.46179
20
-3.5975
11
5.46239
21
-3.59732
0
LINE
8
BLACK
6
CONTINUOUS
10
5.46239
20
-3.59732
11
5.46243
21
-3.59727
0
LINE
8
BLACK
6
CONTINUOUS
10
5.46243
20
-3.59727
11
5.4625
21
-3.59697
0
LINE
8
BLACK
6
CONTINUOUS
10
5.4625
20
-3.59697
11
5.4625
21
-3.5775
0
LINE
8
BLACK
6
CONTINUOUS
10
5.4625
20
-3.5775
11
5.455
21
-3.5775
0
LINE
8
BLACK
6
CONTINUOUS
10
5.455
20
-3.5775
11
5.455
21
-3.56
0
LINE
8
BLACK
6
CONTINUOUS
10
5.455
20
-3.56
11
5.43571
21
-3.56
0
LINE
8
BLACK
6
CONTINUOUS
10
5.43571
20
-3.56
11
5.43511
21
-3.56018
0
LINE
8
BLACK
6
CONTINUOUS
10
5.43511
20
-3.56018
11
5.43507
21
-3.56023
0
LINE
8
BLACK
6
CONTINUOUS
10
5.43507
20
-3.56023
11
5.435
21
-3.56053
0
LINE
8
BLACK
6
CONTINUOUS
10
5.435
20
-3.56053
11
5.435
21
-3.57926
0
LINE
8
BLACK
6
CONTINUOUS
10
5.435
20
-3.57926
11
5.43501
21
-3.57953
0
LINE
8
BLACK
6
CONTINUOUS
10
5.43501
20
-3.57953
11
5.43523
21
-3.58153
0
LINE
8
BLACK
6
CONTINUOUS
10
5.43523
20
-3.53993
11
5.43553
21
-3.54
0
LINE
8
BLACK
6
CONTINUOUS
10
5.43553
20
-3.54
11
5.455
21
-3.54
0
LINE
8
BLACK
6
CONTINUOUS
10
5.455
20
-3.54
11
5.455
21
-3.5225
0
LINE
8
BLACK
6
CONTINUOUS
10
5.455
20
-3.5225
11
5.4625
21
-3.5225
0
LINE
8
BLACK
6
CONTINUOUS
10
5.4625
20
-3.5225
11
5.4625
21
-3.50321
0
LINE
8
BLACK
6
CONTINUOUS
10
5.4625
20
-3.50321
11
5.46232
21
-3.50261
0
LINE
8
BLACK
6
CONTINUOUS
10
5.46232
20
-3.50261
11
5.46227
21
-3.50257
0
LINE
8
BLACK
6
CONTINUOUS
10
5.46227
20
-3.50257
11
5.46197
21
-3.5025
0
LINE
8
BLACK
6
CONTINUOUS
10
5.46197
20
-3.5025
11
5.45324
21
-3.5025
0
LINE
8
BLACK
6
CONTINUOUS
10
5.45324
20
-3.5025
11
5.45297
21
-3.50251
0
LINE
8
BLACK
6
CONTINUOUS
10
5.45297
20
-3.50251
11
5.45097
21
-3.50273
0
LINE
8
BLACK
6
CONTINUOUS
10
5.45097
20
-3.50273
11
5.45037
21
-3.50287
0
LINE
8
BLACK
6
CONTINUOUS
10
5.45037
20
-3.50287
11
5.44563
21
-3.50465
0
LINE
8
BLACK
6
CONTINUOUS
10
5.44563
20
-3.50465
11
5.44501
21
-3.50499
0
LINE
8
BLACK
6
CONTINUOUS
10
5.44501
20
-3.50499
11
5.441
21
-3.508
0
LINE
8
BLACK
6
CONTINUOUS
10
5.441
20
-3.508
11
5.4405
21
-3.5085
0
LINE
8
BLACK
6
CONTINUOUS
10
5.4405
20
-3.5085
11
5.43749
21
-3.51251
0
LINE
8
BLACK
6
CONTINUOUS
10
5.43749
20
-3.51251
11
5.43715
21
-3.51313
0
LINE
8
BLACK
6
CONTINUOUS
10
5.43715
20
-3.51313
11
5.43537
21
-3.51787
0
LINE
8
BLACK
6
CONTINUOUS
10
5.43537
20
-3.51787
11
5.43523
21
-3.51847
0
LINE
8
BLACK
6
CONTINUOUS
10
5.43523
20
-3.51847
11
5.43501
21
-3.52047
0
LINE
8
BLACK
6
CONTINUOUS
10
5.43501
20
-3.52047
11
5.435
21
-3.52074
0
LINE
8
BLACK
6
CONTINUOUS
10
5.435
20
-3.52074
11
5.435
21
-3.53929
0
LINE
8
BLACK
6
CONTINUOUS
10
5.435
20
-3.53929
11
5.43518
21
-3.53989
0
LINE
8
BLACK
6
CONTINUOUS
10
5.43518
20
-3.53989
11
5.43523
21
-3.53993
0
LINE
8
BLACK
6
CONTINUOUS
10
5.78
20
-3.58
11
5.72
21
-3.58
0
LINE
8
BLACK
6
CONTINUOUS
10
5.72
20
-3.58
11
5.72
21
-3.52
0
LINE
8
BLACK
6
CONTINUOUS
10
5.72
20
-3.52
11
5.78
21
-3.52
0
LINE
8
BLACK
6
CONTINUOUS
10
5.78
20
-3.52
11
5.78
21
-3.58
0
LINE
8
BLACK
6
CONTINUOUS
10
5.78
20
-3.28
11
5.72
21
-3.28
0
LINE
8
BLACK
6
CONTINUOUS
10
5.72
20
-3.28
11
5.72
21
-3.25787
0
LINE
8
BLACK
6
CONTINUOUS
10
5.72
20
-3.25787
11
5.48326
21
-3.25787
0
LINE
8
BLACK
6
CONTINUOUS
10
5.48326
20
-3.25787
11
5.31056
21
-3.43058
0
LINE
8
BLACK
6
CONTINUOUS
10
5.31056
20
-3.43058
11
5.30944
21
-3.43128
0
LINE
8
BLACK
6
CONTINUOUS
10
5.30944
20
-3.43128
11
5.30841
21
-3.4321
0
LINE
8
BLACK
6
CONTINUOUS
10
5.30841
20
-3.4321
11
5.30797
21
-3.4322
0
LINE
8
BLACK
6
CONTINUOUS
10
5.30797
20
-3.4322
11
5.30759
21
-3.43244
0
LINE
8
BLACK
6
CONTINUOUS
10
5.30759
20
-3.43244
11
5.30628
21
-3.43258
0
LINE
8
BLACK
6
CONTINUOUS
10
5.30628
20
-3.43258
11
5.305
21
-3.43287
0
LINE
8
BLACK
6
CONTINUOUS
10
5.305
20
-3.43287
11
5.2878
21
-3.43287
0
LINE
8
BLACK
6
CONTINUOUS
10
5.2878
20
-3.43287
11
5.2878
21
-3.4378
0
LINE
8
BLACK
6
CONTINUOUS
10
5.2878
20
-3.4378
11
5.22283
21
-3.4378
0
LINE
8
BLACK
6
CONTINUOUS
10
5.22283
20
-3.4378
11
5.22283
21
-3.4122
0
LINE
8
BLACK
6
CONTINUOUS
10
5.22283
20
-3.4122
11
5.2878
21
-3.4122
0
LINE
8
BLACK
6
CONTINUOUS
10
5.2878
20
-3.4122
11
5.2878
21
-3.41713
0
LINE
8
BLACK
6
CONTINUOUS
10
5.2878
20
-3.41713
11
5.30174
21
-3.41713
0
LINE
8
BLACK
6
CONTINUOUS
10
5.30174
20
-3.41713
11
5.47444
21
-3.24442
0
LINE
8
BLACK
6
CONTINUOUS
10
5.47444
20
-3.24442
11
5.47556
21
-3.24372
0
LINE
8
BLACK
6
CONTINUOUS
10
5.47556
20
-3.24372
11
5.47659
21
-3.2429
0
LINE
8
BLACK
6
CONTINUOUS
10
5.47659
20
-3.2429
11
5.47703
21
-3.2428
0
LINE
8
BLACK
6
CONTINUOUS
10
5.47703
20
-3.2428
11
5.47741
21
-3.24256
0
LINE
8
BLACK
6
CONTINUOUS
10
5.47741
20
-3.24256
11
5.47872
21
-3.24242
0
LINE
8
BLACK
6
CONTINUOUS
10
5.47872
20
-3.24242
11
5.48
21
-3.24213
0
LINE
8
BLACK
6
CONTINUOUS
10
5.48
20
-3.24213
11
5.72
21
-3.24213
0
LINE
8
BLACK
6
CONTINUOUS
10
5.72
20
-3.24213
11
5.72
21
-3.22
0
LINE
8
BLACK
6
CONTINUOUS
10
5.72
20
-3.22
11
5.78
21
-3.22
0
LINE
8
BLACK
6
CONTINUOUS
10
5.78
20
-3.22
11
5.78
21
-3.28
0
LINE
8
BLACK
6
CONTINUOUS
10
5.57717
20
-3.4378
11
5.5122
21
-3.4378
0
LINE
8
BLACK
6
CONTINUOUS
10
5.5122
20
-3.4378
11
5.5122
21
-3.4122
0
LINE
8
BLACK
6
CONTINUOUS
10
5.5122
20
-3.4122
11
5.57717
21
-3.4122
0
LINE
8
BLACK
6
CONTINUOUS
10
5.57717
20
-3.4122
11
5.57717
21
-3.4378
0
LINE
8
BLACK
6
CONTINUOUS
10
5.2878
20
-3.3878
11
5.22283
21
-3.3878
0
LINE
8
BLACK
6
CONTINUOUS
10
5.22283
20
-3.3878
11
5.22283
21
-3.38287
0
LINE
8
BLACK
6
CONTINUOUS
10
5.22283
20
-3.38287
11
5.20826
21
-3.38287
0
LINE
8
BLACK
6
CONTINUOUS
10
5.20826
20
-3.38287
11
5.19157
21
-3.39957
0
LINE
8
BLACK
6
CONTINUOUS
10
5.19157
20
-3.39957
11
5.19274
21
-3.40074
0
LINE
8
BLACK
6
CONTINUOUS
10
5.19274
20
-3.40074
11
5.19498
21
-3.40513
0
LINE
8
BLACK
6
CONTINUOUS
10
5.19498
20
-3.40513
11
5.19575
21
-3.41
0
LINE
8
BLACK
6
CONTINUOUS
10
5.19575
20
-3.41
11
5.19498
21
-3.41487
0
LINE
8
BLACK
6
CONTINUOUS
10
5.19498
20
-3.41487
11
5.19274
21
-3.41926
0
LINE
8
BLACK
6
CONTINUOUS
10
5.19274
20
-3.41926
11
5.18926
21
-3.42274
0
LINE
8
BLACK
6
CONTINUOUS
10
5.18926
20
-3.42274
11
5.18487
21
-3.42498
0
LINE
8
BLACK
6
CONTINUOUS
10
5.18487
20
-3.42498
11
5.18
21
-3.42575
0
LINE
8
BLACK
6
CONTINUOUS
10
5.18
20
-3.42575
11
5.17513
21
-3.42498
0
LINE
8
BLACK
6
CONTINUOUS
10
5.17513
20
-3.42498
11
5.17074
21
-3.42274
0
LINE
8
BLACK
6
CONTINUOUS
10
5.17074
20
-3.42274
11
5.16726
21
-3.41926
0
LINE
8
BLACK
6
CONTINUOUS
10
5.16726
20
-3.41926
11
5.16502
21
-3.41487
0
LINE
8
BLACK
6
CONTINUOUS
10
5.16502
20
-3.41487
11
5.16425
21
-3.41
0
LINE
8
BLACK
6
CONTINUOUS
10
5.16425
20
-3.41
11
5.16502
21
-3.40513
0
LINE
8
BLACK
6
CONTINUOUS
10
5.16502
20
-3.40513
11
5.16726
21
-3.40074
0
LINE
8
BLACK
6
CONTINUOUS
10
5.16726
20
-3.40074
11
5.17074
21
-3.39726
0
LINE
8
BLACK
6
CONTINUOUS
10
5.17074
20
-3.39726
11
5.17356
21
-3.39583
0
LINE
8
BLACK
6
CONTINUOUS
10
5.17356
20
-3.39583
11
5.17443
21
-3.39443
0
LINE
8
BLACK
6
CONTINUOUS
10
5.17443
20
-3.39443
11
5.19944
21
-3.36942
0
LINE
8
BLACK
6
CONTINUOUS
10
5.19944
20
-3.36942
11
5.20056
21
-3.36872
0
LINE
8
BLACK
6
CONTINUOUS
10
5.20056
20
-3.36872
11
5.20159
21
-3.3679
0
LINE
8
BLACK
6
CONTINUOUS
10
5.20159
20
-3.3679
11
5.20203
21
-3.3678
0
LINE
8
BLACK
6
CONTINUOUS
10
5.20203
20
-3.3678
11
5.20241
21
-3.36756
0
LINE
8
BLACK
6
CONTINUOUS
10
5.20241
20
-3.36756
11
5.20372
21
-3.36742
0
LINE
8
BLACK
6
CONTINUOUS
10
5.20372
20
-3.36742
11
5.205
21
-3.36713
0
LINE
8
BLACK
6
CONTINUOUS
10
5.205
20
-3.36713
11
5.22283
21
-3.36713
0
LINE
8
BLACK
6
CONTINUOUS
10
5.22283
20
-3.36713
11
5.22283
21
-3.3622
0
LINE
8
BLACK
6
CONTINUOUS
10
5.22283
20
-3.3622
11
5.2878
21
-3.3622
0
LINE
8
BLACK
6
CONTINUOUS
10
5.2878
20
-3.3622
11
5.2878
21
-3.3878
0
LINE
8
BLACK
6
CONTINUOUS
10
5.78
20
-3.38
11
5.72
21
-3.38
0
LINE
8
BLACK
6
CONTINUOUS
10
5.72
20
-3.38
11
5.72
21
-3.35787
0
LINE
8
BLACK
6
CONTINUOUS
10
5.72
20
-3.35787
11
5.69326
21
-3.35787
0
LINE
8
BLACK
6
CONTINUOUS
10
5.69326
20
-3.35787
11
5.67056
21
-3.38058
0
LINE
8
BLACK
6
CONTINUOUS
10
5.67056
20
-3.38058
11
5.66944
21
-3.38128
0
LINE
8
BLACK
6
CONTINUOUS
10
5.66944
20
-3.38128
11
5.66841
21
-3.3821
0
LINE
8
BLACK
6
CONTINUOUS
10
5.66841
20
-3.3821
11
5.66797
21
-3.3822
0
LINE
8
BLACK
6
CONTINUOUS
10
5.66797
20
-3.3822
11
5.66759
21
-3.38244
0
LINE
8
BLACK
6
CONTINUOUS
10
5.66759
20
-3.38244
11
5.66628
21
-3.38258
0
LINE
8
BLACK
6
CONTINUOUS
10
5.66628
20
-3.38258
11
5.665
21
-3.38287
0
LINE
8
BLACK
6
CONTINUOUS
10
5.665
20
-3.38287
11
5.57717
21
-3.38287
0
LINE
8
BLACK
6
CONTINUOUS
10
5.57717
20
-3.38287
11
5.57717
21
-3.3878
0
LINE
8
BLACK
6
CONTINUOUS
10
5.57717
20
-3.3878
11
5.5122
21
-3.3878
0
LINE
8
BLACK
6
CONTINUOUS
10
5.5122
20
-3.3878
11
5.5122
21
-3.3622
0
LINE
8
BLACK
6
CONTINUOUS
10
5.5122
20
-3.3622
11
5.57717
21
-3.3622
0
LINE
8
BLACK
6
CONTINUOUS
10
5.57717
20
-3.3622
11
5.57717
21
-3.36713
0
LINE
8
BLACK
6
CONTINUOUS
10
5.57717
20
-3.36713
11
5.66174
21
-3.36713
0
LINE
8
BLACK
6
CONTINUOUS
10
5.66174
20
-3.36713
11
5.68444
21
-3.34442
0
LINE
8
BLACK
6
CONTINUOUS
10
5.68444
20
-3.34442
11
5.68556
21
-3.34372
0
LINE
8
BLACK
6
CONTINUOUS
10
5.68556
20
-3.34372
11
5.68659
21
-3.3429
0
LINE
8
BLACK
6
CONTINUOUS
10
5.68659
20
-3.3429
11
5.68703
21
-3.3428
0
LINE
8
BLACK
6
CONTINUOUS
10
5.68703
20
-3.3428
11
5.68741
21
-3.34256
0
LINE
8
BLACK
6
CONTINUOUS
10
5.68741
20
-3.34256
11
5.68872
21
-3.34242
0
LINE
8
BLACK
6
CONTINUOUS
10
5.68872
20
-3.34242
11
5.69
21
-3.34213
0
LINE
8
BLACK
6
CONTINUOUS
10
5.69
20
-3.34213
11
5.72
21
-3.34213
0
LINE
8
BLACK
6
CONTINUOUS
10
5.72
20
-3.34213
11
5.72
21
-3.32
0
LINE
8
BLACK
6
CONTINUOUS
10
5.72
20
-3.32
11
5.78
21
-3.32
0
LINE
8
BLACK
6
CONTINUOUS
10
5.78
20
-3.32
11
5.78
21
-3.38
0
LINE
8
BLACK
6
CONTINUOUS
10
5.8013
20
-3.29242
11
5.8026
21
-3.29257
0
LINE
8
BLACK
6
CONTINUOUS
10
5.8026
20
-3.29257
11
5.80299
21
-3.29281
0
LINE
8
BLACK
6
CONTINUOUS
10
5.80299
20
-3.29281
11
5.80343
21
-3.29291
0
LINE
8
BLACK
6
CONTINUOUS
10
5.80343
20
-3.29291
11
5.80445
21
-3.29373
0
LINE
8
BLACK
6
CONTINUOUS
10
5.80445
20
-3.29373
11
5.80557
21
-3.29443
0
LINE
8
BLACK
6
CONTINUOUS
10
5.80557
20
-3.29443
11
5.83114
21
-3.32
0
LINE
8
BLACK
6
CONTINUOUS
10
5.83114
20
-3.32
11
5.88
21
-3.32
0
LINE
8
BLACK
6
CONTINUOUS
10
5.88
20
-3.32
11
5.88
21
-3.38
0
LINE
8
BLACK
6
CONTINUOUS
10
5.88
20
-3.38
11
5.82
21
-3.38
0
LINE
8
BLACK
6
CONTINUOUS
10
5.82
20
-3.38
11
5.82
21
-3.33114
0
LINE
8
BLACK
6
CONTINUOUS
10
5.82
20
-3.33114
11
5.79674
21
-3.30787
0
LINE
8
BLACK
6
CONTINUOUS
10
5.79674
20
-3.30787
11
5.63326
21
-3.30787
0
LINE
8
BLACK
6
CONTINUOUS
10
5.63326
20
-3.30787
11
5.61056
21
-3.33058
0
LINE
8
BLACK
6
CONTINUOUS
10
5.61056
20
-3.33058
11
5.60944
21
-3.33128
0
LINE
8
BLACK
6
CONTINUOUS
10
5.60944
20
-3.33128
11
5.60841
21
-3.3321
0
LINE
8
BLACK
6
CONTINUOUS
10
5.60841
20
-3.3321
11
5.60797
21
-3.3322
0
LINE
8
BLACK
6
CONTINUOUS
10
5.60797
20
-3.3322
11
5.60759
21
-3.33244
0
LINE
8
BLACK
6
CONTINUOUS
10
5.60759
20
-3.33244
11
5.60628
21
-3.33258
0
LINE
8
BLACK
6
CONTINUOUS
10
5.60628
20
-3.33258
11
5.605
21
-3.33287
0
LINE
8
BLACK
6
CONTINUOUS
10
5.605
20
-3.33287
11
5.57717
21
-3.33287
0
LINE
8
BLACK
6
CONTINUOUS
10
5.57717
20
-3.33287
11
5.57717
21
-3.3378
0
LINE
8
BLACK
6
CONTINUOUS
10
5.57717
20
-3.3378
11
5.5122
21
-3.3378
0
LINE
8
BLACK
6
CONTINUOUS
10
5.5122
20
-3.3378
11
5.5122
21
-3.3122
0
LINE
8
BLACK
6
CONTINUOUS
10
5.5122
20
-3.3122
11
5.57717
21
-3.3122
0
LINE
8
BLACK
6
CONTINUOUS
10
5.57717
20
-3.3122
11
5.57717
21
-3.31713
0
LINE
8
BLACK
6
CONTINUOUS
10
5.57717
20
-3.31713
11
5.60174
21
-3.31713
0
LINE
8
BLACK
6
CONTINUOUS
10
5.60174
20
-3.31713
11
5.62444
21
-3.29442
0
LINE
8
BLACK
6
CONTINUOUS
10
5.62444
20
-3.29442
11
5.62556
21
-3.29372
0
LINE
8
BLACK
6
CONTINUOUS
10
5.62556
20
-3.29372
11
5.62659
21
-3.2929
0
LINE
8
BLACK
6
CONTINUOUS
10
5.62659
20
-3.2929
11
5.62703
21
-3.2928
0
LINE
8
BLACK
6
CONTINUOUS
10
5.62703
20
-3.2928
11
5.62741
21
-3.29256
0
LINE
8
BLACK
6
CONTINUOUS
10
5.62741
20
-3.29256
11
5.62872
21
-3.29242
0
LINE
8
BLACK
6
CONTINUOUS
10
5.62872
20
-3.29242
11
5.63
21
-3.29213
0
LINE
8
BLACK
6
CONTINUOUS
10
5.63
20
-3.29213
11
5.80001
21
-3.29213
0
LINE
8
BLACK
6
CONTINUOUS
10
5.80001
20
-3.29213
11
5.8013
21
-3.29242
0
LINE
8
BLACK
6
CONTINUOUS
10
5.88
20
-3.28
11
5.82
21
-3.28
0
LINE
8
BLACK
6
CONTINUOUS
10
5.82
20
-3.28
11
5.82
21
-3.22
0
LINE
8
BLACK
6
CONTINUOUS
10
5.82
20
-3.22
11
5.88
21
-3.22
0
LINE
8
BLACK
6
CONTINUOUS
10
5.88
20
-3.22
11
5.88
21
-3.28
0
LINE
8
BLACK
6
CONTINUOUS
10
4.98
20
-3.39
11
5.02
21
-3.39
0
LINE
8
BLACK
6
CONTINUOUS
10
5.02
20
-3.39
11
5.02
21
-3.37
0
LINE
8
BLACK
6
CONTINUOUS
10
5.02
20
-3.37
11
5.08
21
-3.37
0
LINE
8
BLACK
6
CONTINUOUS
10
5.08
20
-3.37
11
5.08
21
-3.43
0
LINE
8
BLACK
6
CONTINUOUS
10
5.08
20
-3.43
11
5.02
21
-3.43
0
LINE
8
BLACK
6
CONTINUOUS
10
5.02
20
-3.43
11
5.02
21
-3.41
0
LINE
8
BLACK
6
CONTINUOUS
10
5.02
20
-3.41
11
4.98
21
-3.41
0
LINE
8
BLACK
6
CONTINUOUS
10
4.98
20
-3.41
11
4.98
21
-3.43
0
LINE
8
BLACK
6
CONTINUOUS
10
4.98
20
-3.43
11
4.92
21
-3.43
0
LINE
8
BLACK
6
CONTINUOUS
10
4.92
20
-3.43
11
4.92
21
-3.37
0
LINE
8
BLACK
6
CONTINUOUS
10
4.92
20
-3.37
11
4.98
21
-3.37
0
LINE
8
BLACK
6
CONTINUOUS
10
4.98
20
-3.37
11
4.98
21
-3.39
0
CIRCLE
8
BLACK
10
5.55
20
-3.61
40
0.00787402
0
CIRCLE
8
BLACK
10
5.28
20
-3.27
40
0.00787402
0
CIRCLE
8
BLACK
10
5.41
20
-3.53
40
0.00787402
0
CIRCLE
8
BLACK
10
5.18
20
-3.33
40
0.00787402
0
CIRCLE
8
BLACK
10
5.37
20
-3.56
40
0.00787402
0
CIRCLE
8
BLACK
10
5.32
20
-3.27
40
0.00787402
0
CIRCLE
8
BLACK
10
5.33
20
-3.33
40
0.00787402
0
CIRCLE
8
BLACK
10
5.36
20
-3.52
40
0.00787402
0
CIRCLE
8
BLACK
10
5.24
20
-3.27
40
0.00787402
0
CIRCLE
8
BLACK
10
5.41
20
-3.57
40
0.00787402
0
CIRCLE
8
BLACK
10
5.18
20
-3.41
40
0.00787402
  0
ENDSEC
  0
EOF
