  0
SECTION
  2
HEADER
  9
$ANGBASE
  50
0.0
  9
$ANGDIR
  70
1
  9
$MEASUREMENT
  70
0
  0
ENDSEC
  0
SECTION
  2
TABLES
  0
TABLE
  2
LTYPE
  70
4
  0
LTYPE
  5
40F
  2
CONTINUOUS
  70
0
  3
Solid line
  72
65
  73
0
  40
0.0
  0
LTYPE
  5
410
  2
DASHDOT
 70
0
  3
Dash Dot ____ _ ____ _
 72
65
 73
4
 40
2.0
 49
1.25
 49
-0.25
 49
0.25
 49
-0.25
  0
LTYPE
  5
411
  2
DASHED
 70
0
  3
Dashed __ __ __ __ __
 72
65
 73
2
 40
0.75
 49
0.5
 49
-0.25
  0
LTYPE
  5
43B
  2
DOTTED
 70
0
  3
Dotted .  .  .  .
 72
65
 73
2
 40
0.2
 49
0.0
 49
-0.2
  0
ENDTAB
  0
TABLE
  2
STYLE
  70
4
  0
STYLE
  2
KICAD
  70
0
  40
0
  41
1
  42
1
  50
0
  71
0
  3
isocp.shx
  0
STYLE
  2
KICADB
  70
0
  40
0
  41
1
  42
1
  50
0
  71
0
  3
isocp.shx
  0
STYLE
  2
KICADI
  70
0
  40
0
  41
1
  42
1
  50
15
  71
0
  3
isocp.shx
  0
STYLE
  2
KICADBI
  70
0
  40
0
  41
1
  42
1
  50
15
  71
0
  3
isocp.shx
  0
ENDTAB
  0
TABLE
  2
LAYER
  70
1
  0
LAYER
  2
BLACK
  70
0
  62
7
  6
CONTINUOUS
  0
ENDTAB
  0
ENDSEC
  0
SECTION
  2
ENTITIES
0
LINE
8
BLACK
6
CONTINUOUS
10
5.42051
20
-3.68368
11
5.43387
21
-3.68685
0
LINE
8
BLACK
6
CONTINUOUS
10
5.43387
20
-3.68685
11
5.44678
21
-3.69155
0
LINE
8
BLACK
6
CONTINUOUS
10
5.44678
20
-3.69155
11
5.45906
21
-3.69771
0
LINE
8
BLACK
6
CONTINUOUS
10
5.45906
20
-3.69771
11
5.47053
21
-3.70526
0
LINE
8
BLACK
6
CONTINUOUS
10
5.47053
20
-3.70526
11
5.48105
21
-3.71409
0
LINE
8
BLACK
6
CONTINUOUS
10
5.48105
20
-3.71409
11
5.49048
21
-3.72408
0
LINE
8
BLACK
6
CONTINUOUS
10
5.49048
20
-3.72408
11
5.49868
21
-3.7351
0
LINE
8
BLACK
6
CONTINUOUS
10
5.49868
20
-3.7351
11
5.50555
21
-3.74699
0
LINE
8
BLACK
6
CONTINUOUS
10
5.50555
20
-3.74699
11
5.51099
21
-3.7596
0
LINE
8
BLACK
6
CONTINUOUS
10
5.51099
20
-3.7596
11
5.51493
21
-3.77276
0
LINE
8
BLACK
6
CONTINUOUS
10
5.51493
20
-3.77276
11
5.51731
21
-3.78629
0
LINE
8
BLACK
6
CONTINUOUS
10
5.51731
20
-3.78629
11
5.51811
21
-3.8
0
LINE
8
BLACK
6
CONTINUOUS
10
5.51811
20
-3.8
11
5.51731
21
-3.81371
0
LINE
8
BLACK
6
CONTINUOUS
10
5.51731
20
-3.81371
11
5.51493
21
-3.82724
0
LINE
8
BLACK
6
CONTINUOUS
10
5.51493
20
-3.82724
11
5.51099
21
-3.8404
0
LINE
8
BLACK
6
CONTINUOUS
10
5.51099
20
-3.8404
11
5.50555
21
-3.85301
0
LINE
8
BLACK
6
CONTINUOUS
10
5.50555
20
-3.85301
11
5.49868
21
-3.8649
0
LINE
8
BLACK
6
CONTINUOUS
10
5.49868
20
-3.8649
11
5.49048
21
-3.87592
0
LINE
8
BLACK
6
CONTINUOUS
10
5.49048
20
-3.87592
11
5.48105
21
-3.88591
0
LINE
8
BLACK
6
CONTINUOUS
10
5.48105
20
-3.88591
11
5.47053
21
-3.89474
0
LINE
8
BLACK
6
CONTINUOUS
10
5.47053
20
-3.89474
11
5.45906
21
-3.90229
0
LINE
8
BLACK
6
CONTINUOUS
10
5.45906
20
-3.90229
11
5.44678
21
-3.90845
0
LINE
8
BLACK
6
CONTINUOUS
10
5.44678
20
-3.90845
11
5.43387
21
-3.91315
0
LINE
8
BLACK
6
CONTINUOUS
10
5.43387
20
-3.91315
11
5.42051
21
-3.91632
0
LINE
8
BLACK
6
CONTINUOUS
10
5.42051
20
-3.91632
11
5.40687
21
-3.91791
0
LINE
8
BLACK
6
CONTINUOUS
10
5.40687
20
-3.91791
11
5.39313
21
-3.91791
0
LINE
8
BLACK
6
CONTINUOUS
10
5.39313
20
-3.91791
11
5.37949
21
-3.91632
0
LINE
8
BLACK
6
CONTINUOUS
10
5.37949
20
-3.91632
11
5.36613
21
-3.91315
0
LINE
8
BLACK
6
CONTINUOUS
10
5.36613
20
-3.91315
11
5.35322
21
-3.90845
0
LINE
8
BLACK
6
CONTINUOUS
10
5.35322
20
-3.90845
11
5.34094
21
-3.90229
0
LINE
8
BLACK
6
CONTINUOUS
10
5.34094
20
-3.90229
11
5.32947
21
-3.89474
0
LINE
8
BLACK
6
CONTINUOUS
10
5.32947
20
-3.89474
11
5.31895
21
-3.88591
0
LINE
8
BLACK
6
CONTINUOUS
10
5.31895
20
-3.88591
11
5.30952
21
-3.87592
0
LINE
8
BLACK
6
CONTINUOUS
10
5.30952
20
-3.87592
11
5.30132
21
-3.8649
0
LINE
8
BLACK
6
CONTINUOUS
10
5.30132
20
-3.8649
11
5.29445
21
-3.85301
0
LINE
8
BLACK
6
CONTINUOUS
10
5.29445
20
-3.85301
11
5.28901
21
-3.8404
0
LINE
8
BLACK
6
CONTINUOUS
10
5.28901
20
-3.8404
11
5.28507
21
-3.82724
0
LINE
8
BLACK
6
CONTINUOUS
10
5.28507
20
-3.82724
11
5.28269
21
-3.81371
0
LINE
8
BLACK
6
CONTINUOUS
10
5.28269
20
-3.81371
11
5.28189
21
-3.8
0
LINE
8
BLACK
6
CONTINUOUS
10
5.28189
20
-3.8
11
5.28269
21
-3.78629
0
LINE
8
BLACK
6
CONTINUOUS
10
5.28269
20
-3.78629
11
5.28507
21
-3.77276
0
LINE
8
BLACK
6
CONTINUOUS
10
5.28507
20
-3.77276
11
5.28901
21
-3.7596
0
LINE
8
BLACK
6
CONTINUOUS
10
5.28901
20
-3.7596
11
5.29445
21
-3.74699
0
LINE
8
BLACK
6
CONTINUOUS
10
5.29445
20
-3.74699
11
5.30132
21
-3.7351
0
LINE
8
BLACK
6
CONTINUOUS
10
5.30132
20
-3.7351
11
5.30952
21
-3.72408
0
LINE
8
BLACK
6
CONTINUOUS
10
5.30952
20
-3.72408
11
5.31895
21
-3.71409
0
LINE
8
BLACK
6
CONTINUOUS
10
5.31895
20
-3.71409
11
5.32947
21
-3.70526
0
LINE
8
BLACK
6
CONTINUOUS
10
5.32947
20
-3.70526
11
5.34094
21
-3.69771
0
LINE
8
BLACK
6
CONTINUOUS
10
5.34094
20
-3.69771
11
5.35322
21
-3.69155
0
LINE
8
BLACK
6
CONTINUOUS
10
5.35322
20
-3.69155
11
5.36613
21
-3.68685
0
LINE
8
BLACK
6
CONTINUOUS
10
5.36613
20
-3.68685
11
5.37949
21
-3.68368
0
LINE
8
BLACK
6
CONTINUOUS
10
5.37949
20
-3.68368
11
5.39313
21
-3.68209
0
LINE
8
BLACK
6
CONTINUOUS
10
5.39313
20
-3.68209
11
5.40687
21
-3.68209
0
LINE
8
BLACK
6
CONTINUOUS
10
5.40687
20
-3.68209
11
5.42051
21
-3.68368
0
LINE
8
BLACK
6
CONTINUOUS
10
5.82051
20
-3.68368
11
5.83387
21
-3.68685
0
LINE
8
BLACK
6
CONTINUOUS
10
5.83387
20
-3.68685
11
5.84678
21
-3.69155
0
LINE
8
BLACK
6
CONTINUOUS
10
5.84678
20
-3.69155
11
5.85906
21
-3.69771
0
LINE
8
BLACK
6
CONTINUOUS
10
5.85906
20
-3.69771
11
5.87053
21
-3.70526
0
LINE
8
BLACK
6
CONTINUOUS
10
5.87053
20
-3.70526
11
5.88105
21
-3.71409
0
LINE
8
BLACK
6
CONTINUOUS
10
5.88105
20
-3.71409
11
5.89048
21
-3.72408
0
LINE
8
BLACK
6
CONTINUOUS
10
5.89048
20
-3.72408
11
5.89868
21
-3.7351
0
LINE
8
BLACK
6
CONTINUOUS
10
5.89868
20
-3.7351
11
5.90555
21
-3.74699
0
LINE
8
BLACK
6
CONTINUOUS
10
5.90555
20
-3.74699
11
5.91099
21
-3.7596
0
LINE
8
BLACK
6
CONTINUOUS
10
5.91099
20
-3.7596
11
5.91493
21
-3.77276
0
LINE
8
BLACK
6
CONTINUOUS
10
5.91493
20
-3.77276
11
5.91731
21
-3.78629
0
LINE
8
BLACK
6
CONTINUOUS
10
5.91731
20
-3.78629
11
5.91811
21
-3.8
0
LINE
8
BLACK
6
CONTINUOUS
10
5.91811
20
-3.8
11
5.91731
21
-3.81371
0
LINE
8
BLACK
6
CONTINUOUS
10
5.91731
20
-3.81371
11
5.91493
21
-3.82724
0
LINE
8
BLACK
6
CONTINUOUS
10
5.91493
20
-3.82724
11
5.91099
21
-3.8404
0
LINE
8
BLACK
6
CONTINUOUS
10
5.91099
20
-3.8404
11
5.90555
21
-3.85301
0
LINE
8
BLACK
6
CONTINUOUS
10
5.90555
20
-3.85301
11
5.89868
21
-3.8649
0
LINE
8
BLACK
6
CONTINUOUS
10
5.89868
20
-3.8649
11
5.89048
21
-3.87592
0
LINE
8
BLACK
6
CONTINUOUS
10
5.89048
20
-3.87592
11
5.88105
21
-3.88591
0
LINE
8
BLACK
6
CONTINUOUS
10
5.88105
20
-3.88591
11
5.87053
21
-3.89474
0
LINE
8
BLACK
6
CONTINUOUS
10
5.87053
20
-3.89474
11
5.85906
21
-3.90229
0
LINE
8
BLACK
6
CONTINUOUS
10
5.85906
20
-3.90229
11
5.84678
21
-3.90845
0
LINE
8
BLACK
6
CONTINUOUS
10
5.84678
20
-3.90845
11
5.83387
21
-3.91315
0
LINE
8
BLACK
6
CONTINUOUS
10
5.83387
20
-3.91315
11
5.82051
21
-3.91632
0
LINE
8
BLACK
6
CONTINUOUS
10
5.82051
20
-3.91632
11
5.80687
21
-3.91791
0
LINE
8
BLACK
6
CONTINUOUS
10
5.80687
20
-3.91791
11
5.79313
21
-3.91791
0
LINE
8
BLACK
6
CONTINUOUS
10
5.79313
20
-3.91791
11
5.77949
21
-3.91632
0
LINE
8
BLACK
6
CONTINUOUS
10
5.77949
20
-3.91632
11
5.76613
21
-3.91315
0
LINE
8
BLACK
6
CONTINUOUS
10
5.76613
20
-3.91315
11
5.75322
21
-3.90845
0
LINE
8
BLACK
6
CONTINUOUS
10
5.75322
20
-3.90845
11
5.74094
21
-3.90229
0
LINE
8
BLACK
6
CONTINUOUS
10
5.74094
20
-3.90229
11
5.72947
21
-3.89474
0
LINE
8
BLACK
6
CONTINUOUS
10
5.72947
20
-3.89474
11
5.71895
21
-3.88591
0
LINE
8
BLACK
6
CONTINUOUS
10
5.71895
20
-3.88591
11
5.70952
21
-3.87592
0
LINE
8
BLACK
6
CONTINUOUS
10
5.70952
20
-3.87592
11
5.70132
21
-3.8649
0
LINE
8
BLACK
6
CONTINUOUS
10
5.70132
20
-3.8649
11
5.69445
21
-3.85301
0
LINE
8
BLACK
6
CONTINUOUS
10
5.69445
20
-3.85301
11
5.68901
21
-3.8404
0
LINE
8
BLACK
6
CONTINUOUS
10
5.68901
20
-3.8404
11
5.68507
21
-3.82724
0
LINE
8
BLACK
6
CONTINUOUS
10
5.68507
20
-3.82724
11
5.68269
21
-3.81371
0
LINE
8
BLACK
6
CONTINUOUS
10
5.68269
20
-3.81371
11
5.68189
21
-3.8
0
LINE
8
BLACK
6
CONTINUOUS
10
5.68189
20
-3.8
11
5.68269
21
-3.78629
0
LINE
8
BLACK
6
CONTINUOUS
10
5.68269
20
-3.78629
11
5.68507
21
-3.77276
0
LINE
8
BLACK
6
CONTINUOUS
10
5.68507
20
-3.77276
11
5.68901
21
-3.7596
0
LINE
8
BLACK
6
CONTINUOUS
10
5.68901
20
-3.7596
11
5.69445
21
-3.74699
0
LINE
8
BLACK
6
CONTINUOUS
10
5.69445
20
-3.74699
11
5.70132
21
-3.7351
0
LINE
8
BLACK
6
CONTINUOUS
10
5.70132
20
-3.7351
11
5.70952
21
-3.72408
0
LINE
8
BLACK
6
CONTINUOUS
10
5.70952
20
-3.72408
11
5.71895
21
-3.71409
0
LINE
8
BLACK
6
CONTINUOUS
10
5.71895
20
-3.71409
11
5.72947
21
-3.70526
0
LINE
8
BLACK
6
CONTINUOUS
10
5.72947
20
-3.70526
11
5.74094
21
-3.69771
0
LINE
8
BLACK
6
CONTINUOUS
10
5.74094
20
-3.69771
11
5.75322
21
-3.69155
0
LINE
8
BLACK
6
CONTINUOUS
10
5.75322
20
-3.69155
11
5.76613
21
-3.68685
0
LINE
8
BLACK
6
CONTINUOUS
10
5.76613
20
-3.68685
11
5.77949
21
-3.68368
0
LINE
8
BLACK
6
CONTINUOUS
10
5.77949
20
-3.68368
11
5.79313
21
-3.68209
0
LINE
8
BLACK
6
CONTINUOUS
10
5.79313
20
-3.68209
11
5.80687
21
-3.68209
0
LINE
8
BLACK
6
CONTINUOUS
10
5.80687
20
-3.68209
11
5.82051
21
-3.68368
0
LINE
8
BLACK
6
CONTINUOUS
10
5.59823
20
-3.78028
11
5.60562
21
-3.78252
0
LINE
8
BLACK
6
CONTINUOUS
10
5.60562
20
-3.78252
11
5.61242
21
-3.78616
0
LINE
8
BLACK
6
CONTINUOUS
10
5.61242
20
-3.78616
11
5.61839
21
-3.79106
0
LINE
8
BLACK
6
CONTINUOUS
10
5.61839
20
-3.79106
11
5.62329
21
-3.79702
0
LINE
8
BLACK
6
CONTINUOUS
10
5.62329
20
-3.79702
11
5.62692
21
-3.80383
0
LINE
8
BLACK
6
CONTINUOUS
10
5.62692
20
-3.80383
11
5.62916
21
-3.81122
0
LINE
8
BLACK
6
CONTINUOUS
10
5.62916
20
-3.81122
11
5.62992
21
-3.8189
0
LINE
8
BLACK
6
CONTINUOUS
10
5.62992
20
-3.8189
11
5.62916
21
-3.82658
0
LINE
8
BLACK
6
CONTINUOUS
10
5.62916
20
-3.82658
11
5.62692
21
-3.83396
0
LINE
8
BLACK
6
CONTINUOUS
10
5.62692
20
-3.83396
11
5.62329
21
-3.84077
0
LINE
8
BLACK
6
CONTINUOUS
10
5.62329
20
-3.84077
11
5.61839
21
-3.84674
0
LINE
8
BLACK
6
CONTINUOUS
10
5.61839
20
-3.84674
11
5.61242
21
-3.85163
0
LINE
8
BLACK
6
CONTINUOUS
10
5.61242
20
-3.85163
11
5.60562
21
-3.85527
0
LINE
8
BLACK
6
CONTINUOUS
10
5.60562
20
-3.85527
11
5.59823
21
-3.85751
0
LINE
8
BLACK
6
CONTINUOUS
10
5.59823
20
-3.85751
11
5.59055
21
-3.85827
0
LINE
8
BLACK
6
CONTINUOUS
10
5.59055
20
-3.85827
11
5.58287
21
-3.85751
0
LINE
8
BLACK
6
CONTINUOUS
10
5.58287
20
-3.85751
11
5.57548
21
-3.85527
0
LINE
8
BLACK
6
CONTINUOUS
10
5.57548
20
-3.85527
11
5.56868
21
-3.85163
0
LINE
8
BLACK
6
CONTINUOUS
10
5.56868
20
-3.85163
11
5.56271
21
-3.84674
0
LINE
8
BLACK
6
CONTINUOUS
10
5.56271
20
-3.84674
11
5.55782
21
-3.84077
0
LINE
8
BLACK
6
CONTINUOUS
10
5.55782
20
-3.84077
11
5.55418
21
-3.83396
0
LINE
8
BLACK
6
CONTINUOUS
10
5.55418
20
-3.83396
11
5.55194
21
-3.82658
0
LINE
8
BLACK
6
CONTINUOUS
10
5.55194
20
-3.82658
11
5.55118
21
-3.8189
0
LINE
8
BLACK
6
CONTINUOUS
10
5.55118
20
-3.8189
11
5.55194
21
-3.81122
0
LINE
8
BLACK
6
CONTINUOUS
10
5.55194
20
-3.81122
11
5.55418
21
-3.80383
0
LINE
8
BLACK
6
CONTINUOUS
10
5.55418
20
-3.80383
11
5.55782
21
-3.79702
0
LINE
8
BLACK
6
CONTINUOUS
10
5.55782
20
-3.79702
11
5.56271
21
-3.79106
0
LINE
8
BLACK
6
CONTINUOUS
10
5.56271
20
-3.79106
11
5.56868
21
-3.78616
0
LINE
8
BLACK
6
CONTINUOUS
10
5.56868
20
-3.78616
11
5.57548
21
-3.78252
0
LINE
8
BLACK
6
CONTINUOUS
10
5.57548
20
-3.78252
11
5.58287
21
-3.78028
0
LINE
8
BLACK
6
CONTINUOUS
10
5.58287
20
-3.78028
11
5.59055
21
-3.77953
0
LINE
8
BLACK
6
CONTINUOUS
10
5.59055
20
-3.77953
11
5.59823
21
-3.78028
0
LINE
8
BLACK
6
CONTINUOUS
10
5.57621
20
-3.6415
11
5.5794
21
-3.64363
0
LINE
8
BLACK
6
CONTINUOUS
10
5.5794
20
-3.64363
11
5.58153
21
-3.64682
0
LINE
8
BLACK
6
CONTINUOUS
10
5.58153
20
-3.64682
11
5.58228
21
-3.65059
0
LINE
8
BLACK
6
CONTINUOUS
10
5.58228
20
-3.65059
11
5.58228
21
-3.68799
0
LINE
8
BLACK
6
CONTINUOUS
10
5.58228
20
-3.68799
11
5.58153
21
-3.69176
0
LINE
8
BLACK
6
CONTINUOUS
10
5.58153
20
-3.69176
11
5.5794
21
-3.69495
0
LINE
8
BLACK
6
CONTINUOUS
10
5.5794
20
-3.69495
11
5.57621
21
-3.69709
0
LINE
8
BLACK
6
CONTINUOUS
10
5.57621
20
-3.69709
11
5.57244
21
-3.69783
0
LINE
8
BLACK
6
CONTINUOUS
10
5.57244
20
-3.69783
11
5.55276
21
-3.69783
0
LINE
8
BLACK
6
CONTINUOUS
10
5.55276
20
-3.69783
11
5.54899
21
-3.69709
0
LINE
8
BLACK
6
CONTINUOUS
10
5.54899
20
-3.69709
11
5.5458
21
-3.69495
0
LINE
8
BLACK
6
CONTINUOUS
10
5.5458
20
-3.69495
11
5.54366
21
-3.69176
0
LINE
8
BLACK
6
CONTINUOUS
10
5.54366
20
-3.69176
11
5.54291
21
-3.68799
0
LINE
8
BLACK
6
CONTINUOUS
10
5.54291
20
-3.68799
11
5.54291
21
-3.65059
0
LINE
8
BLACK
6
CONTINUOUS
10
5.54291
20
-3.65059
11
5.54366
21
-3.64682
0
LINE
8
BLACK
6
CONTINUOUS
10
5.54366
20
-3.64682
11
5.5458
21
-3.64363
0
LINE
8
BLACK
6
CONTINUOUS
10
5.5458
20
-3.64363
11
5.54899
21
-3.6415
0
LINE
8
BLACK
6
CONTINUOUS
10
5.54899
20
-3.6415
11
5.55276
21
-3.64075
0
LINE
8
BLACK
6
CONTINUOUS
10
5.55276
20
-3.64075
11
5.57244
21
-3.64075
0
LINE
8
BLACK
6
CONTINUOUS
10
5.57244
20
-3.64075
11
5.57621
21
-3.6415
0
LINE
8
BLACK
6
CONTINUOUS
10
5.65101
20
-3.6415
11
5.6542
21
-3.64363
0
LINE
8
BLACK
6
CONTINUOUS
10
5.6542
20
-3.64363
11
5.65634
21
-3.64682
0
LINE
8
BLACK
6
CONTINUOUS
10
5.65634
20
-3.64682
11
5.65709
21
-3.65059
0
LINE
8
BLACK
6
CONTINUOUS
10
5.65709
20
-3.65059
11
5.65709
21
-3.68799
0
LINE
8
BLACK
6
CONTINUOUS
10
5.65709
20
-3.68799
11
5.65634
21
-3.69176
0
LINE
8
BLACK
6
CONTINUOUS
10
5.65634
20
-3.69176
11
5.6542
21
-3.69495
0
LINE
8
BLACK
6
CONTINUOUS
10
5.6542
20
-3.69495
11
5.65101
21
-3.69709
0
LINE
8
BLACK
6
CONTINUOUS
10
5.65101
20
-3.69709
11
5.64724
21
-3.69783
0
LINE
8
BLACK
6
CONTINUOUS
10
5.64724
20
-3.69783
11
5.62756
21
-3.69783
0
LINE
8
BLACK
6
CONTINUOUS
10
5.62756
20
-3.69783
11
5.62379
21
-3.69709
0
LINE
8
BLACK
6
CONTINUOUS
10
5.62379
20
-3.69709
11
5.6206
21
-3.69495
0
LINE
8
BLACK
6
CONTINUOUS
10
5.6206
20
-3.69495
11
5.61847
21
-3.69176
0
LINE
8
BLACK
6
CONTINUOUS
10
5.61847
20
-3.69176
11
5.61772
21
-3.68799
0
LINE
8
BLACK
6
CONTINUOUS
10
5.61772
20
-3.68799
11
5.61772
21
-3.65059
0
LINE
8
BLACK
6
CONTINUOUS
10
5.61772
20
-3.65059
11
5.61847
21
-3.64682
0
LINE
8
BLACK
6
CONTINUOUS
10
5.61847
20
-3.64682
11
5.6206
21
-3.64363
0
LINE
8
BLACK
6
CONTINUOUS
10
5.6206
20
-3.64363
11
5.62379
21
-3.6415
0
LINE
8
BLACK
6
CONTINUOUS
10
5.62379
20
-3.6415
11
5.62756
21
-3.64075
0
LINE
8
BLACK
6
CONTINUOUS
10
5.62756
20
-3.64075
11
5.64724
21
-3.64075
0
LINE
8
BLACK
6
CONTINUOUS
10
5.64724
20
-3.64075
11
5.65101
21
-3.6415
0
LINE
8
BLACK
6
CONTINUOUS
10
5.51881
20
-3.55221
11
5.522
21
-3.55434
0
LINE
8
BLACK
6
CONTINUOUS
10
5.522
20
-3.55434
11
5.52413
21
-3.55753
0
LINE
8
BLACK
6
CONTINUOUS
10
5.52413
20
-3.55753
11
5.52488
21
-3.5613
0
LINE
8
BLACK
6
CONTINUOUS
10
5.52488
20
-3.5613
11
5.52488
21
-3.5987
0
LINE
8
BLACK
6
CONTINUOUS
10
5.52488
20
-3.5987
11
5.52413
21
-3.60247
0
LINE
8
BLACK
6
CONTINUOUS
10
5.52413
20
-3.60247
11
5.522
21
-3.60566
0
LINE
8
BLACK
6
CONTINUOUS
10
5.522
20
-3.60566
11
5.51881
21
-3.60779
0
LINE
8
BLACK
6
CONTINUOUS
10
5.51881
20
-3.60779
11
5.51504
21
-3.60854
0
LINE
8
BLACK
6
CONTINUOUS
10
5.51504
20
-3.60854
11
5.49535
21
-3.60854
0
LINE
8
BLACK
6
CONTINUOUS
10
5.49535
20
-3.60854
11
5.49159
21
-3.60779
0
LINE
8
BLACK
6
CONTINUOUS
10
5.49159
20
-3.60779
11
5.48839
21
-3.60566
0
LINE
8
BLACK
6
CONTINUOUS
10
5.48839
20
-3.60566
11
5.48626
21
-3.60247
0
LINE
8
BLACK
6
CONTINUOUS
10
5.48626
20
-3.60247
11
5.48551
21
-3.5987
0
LINE
8
BLACK
6
CONTINUOUS
10
5.48551
20
-3.5987
11
5.48551
21
-3.5613
0
LINE
8
BLACK
6
CONTINUOUS
10
5.48551
20
-3.5613
11
5.48626
21
-3.55753
0
LINE
8
BLACK
6
CONTINUOUS
10
5.48626
20
-3.55753
11
5.48839
21
-3.55434
0
LINE
8
BLACK
6
CONTINUOUS
10
5.48839
20
-3.55434
11
5.49159
21
-3.55221
0
LINE
8
BLACK
6
CONTINUOUS
10
5.49159
20
-3.55221
11
5.49535
21
-3.55146
0
LINE
8
BLACK
6
CONTINUOUS
10
5.49535
20
-3.55146
11
5.51504
21
-3.55146
0
LINE
8
BLACK
6
CONTINUOUS
10
5.51504
20
-3.55146
11
5.51881
21
-3.55221
0
LINE
8
BLACK
6
CONTINUOUS
10
5.59361
20
-3.55221
11
5.5968
21
-3.55434
0
LINE
8
BLACK
6
CONTINUOUS
10
5.5968
20
-3.55434
11
5.59894
21
-3.55753
0
LINE
8
BLACK
6
CONTINUOUS
10
5.59894
20
-3.55753
11
5.59969
21
-3.5613
0
LINE
8
BLACK
6
CONTINUOUS
10
5.59969
20
-3.5613
11
5.59969
21
-3.5987
0
LINE
8
BLACK
6
CONTINUOUS
10
5.59969
20
-3.5987
11
5.59894
21
-3.60247
0
LINE
8
BLACK
6
CONTINUOUS
10
5.59894
20
-3.60247
11
5.5968
21
-3.60566
0
LINE
8
BLACK
6
CONTINUOUS
10
5.5968
20
-3.60566
11
5.59361
21
-3.60779
0
LINE
8
BLACK
6
CONTINUOUS
10
5.59361
20
-3.60779
11
5.58984
21
-3.60854
0
LINE
8
BLACK
6
CONTINUOUS
10
5.58984
20
-3.60854
11
5.57016
21
-3.60854
0
LINE
8
BLACK
6
CONTINUOUS
10
5.57016
20
-3.60854
11
5.56639
21
-3.60779
0
LINE
8
BLACK
6
CONTINUOUS
10
5.56639
20
-3.60779
11
5.5632
21
-3.60566
0
LINE
8
BLACK
6
CONTINUOUS
10
5.5632
20
-3.60566
11
5.56106
21
-3.60247
0
LINE
8
BLACK
6
CONTINUOUS
10
5.56106
20
-3.60247
11
5.56031
21
-3.5987
0
LINE
8
BLACK
6
CONTINUOUS
10
5.56031
20
-3.5987
11
5.56031
21
-3.5613
0
LINE
8
BLACK
6
CONTINUOUS
10
5.56031
20
-3.5613
11
5.56106
21
-3.55753
0
LINE
8
BLACK
6
CONTINUOUS
10
5.56106
20
-3.55753
11
5.5632
21
-3.55434
0
LINE
8
BLACK
6
CONTINUOUS
10
5.5632
20
-3.55434
11
5.56639
21
-3.55221
0
LINE
8
BLACK
6
CONTINUOUS
10
5.56639
20
-3.55221
11
5.57016
21
-3.55146
0
LINE
8
BLACK
6
CONTINUOUS
10
5.57016
20
-3.55146
11
5.58984
21
-3.55146
0
LINE
8
BLACK
6
CONTINUOUS
10
5.58984
20
-3.55146
11
5.59361
21
-3.55221
0
LINE
8
BLACK
6
CONTINUOUS
10
5.75441
20
-3.58
11
5.69441
21
-3.58
0
LINE
8
BLACK
6
CONTINUOUS
10
5.69441
20
-3.58
11
5.69441
21
-3.52
0
LINE
8
BLACK
6
CONTINUOUS
10
5.69441
20
-3.52
11
5.75441
21
-3.52
0
LINE
8
BLACK
6
CONTINUOUS
10
5.75441
20
-3.52
11
5.75441
21
-3.58
0
LINE
8
BLACK
6
CONTINUOUS
10
5.85441
20
-3.58
11
5.79441
21
-3.58
0
LINE
8
BLACK
6
CONTINUOUS
10
5.79441
20
-3.58
11
5.79441
21
-3.52
0
LINE
8
BLACK
6
CONTINUOUS
10
5.79441
20
-3.52
11
5.85441
21
-3.52
0
LINE
8
BLACK
6
CONTINUOUS
10
5.85441
20
-3.52
11
5.85441
21
-3.58
0
LINE
8
BLACK
6
CONTINUOUS
10
5.3578
20
-3.5078
11
5.29283
21
-3.5078
0
LINE
8
BLACK
6
CONTINUOUS
10
5.29283
20
-3.5078
11
5.29283
21
-3.4822
0
LINE
8
BLACK
6
CONTINUOUS
10
5.29283
20
-3.4822
11
5.3578
21
-3.4822
0
LINE
8
BLACK
6
CONTINUOUS
10
5.3578
20
-3.4822
11
5.3578
21
-3.5078
0
LINE
8
BLACK
6
CONTINUOUS
10
5.64717
20
-3.5078
11
5.5822
21
-3.5078
0
LINE
8
BLACK
6
CONTINUOUS
10
5.5822
20
-3.5078
11
5.5822
21
-3.4822
0
LINE
8
BLACK
6
CONTINUOUS
10
5.5822
20
-3.4822
11
5.64717
21
-3.4822
0
LINE
8
BLACK
6
CONTINUOUS
10
5.64717
20
-3.4822
11
5.64717
21
-3.5078
0
LINE
8
BLACK
6
CONTINUOUS
10
5.75441
20
-3.48
11
5.69441
21
-3.48
0
LINE
8
BLACK
6
CONTINUOUS
10
5.69441
20
-3.48
11
5.69441
21
-3.42
0
LINE
8
BLACK
6
CONTINUOUS
10
5.69441
20
-3.42
11
5.75441
21
-3.42
0
LINE
8
BLACK
6
CONTINUOUS
10
5.75441
20
-3.42
11
5.75441
21
-3.48
0
LINE
8
BLACK
6
CONTINUOUS
10
5.85441
20
-3.48
11
5.79441
21
-3.48
0
LINE
8
BLACK
6
CONTINUOUS
10
5.79441
20
-3.48
11
5.79441
21
-3.42
0
LINE
8
BLACK
6
CONTINUOUS
10
5.79441
20
-3.42
11
5.85441
21
-3.42
0
LINE
8
BLACK
6
CONTINUOUS
10
5.85441
20
-3.42
11
5.85441
21
-3.48
0
LINE
8
BLACK
6
CONTINUOUS
10
5.3578
20
-3.4578
11
5.29283
21
-3.4578
0
LINE
8
BLACK
6
CONTINUOUS
10
5.29283
20
-3.4578
11
5.29283
21
-3.4322
0
LINE
8
BLACK
6
CONTINUOUS
10
5.29283
20
-3.4322
11
5.3578
21
-3.4322
0
LINE
8
BLACK
6
CONTINUOUS
10
5.3578
20
-3.4322
11
5.3578
21
-3.4578
0
LINE
8
BLACK
6
CONTINUOUS
10
5.64717
20
-3.4578
11
5.5822
21
-3.4578
0
LINE
8
BLACK
6
CONTINUOUS
10
5.5822
20
-3.4578
11
5.5822
21
-3.4322
0
LINE
8
BLACK
6
CONTINUOUS
10
5.5822
20
-3.4322
11
5.64717
21
-3.4322
0
LINE
8
BLACK
6
CONTINUOUS
10
5.64717
20
-3.4322
11
5.64717
21
-3.4578
0
LINE
8
BLACK
6
CONTINUOUS
10
5.3578
20
-3.4078
11
5.29283
21
-3.4078
0
LINE
8
BLACK
6
CONTINUOUS
10
5.29283
20
-3.4078
11
5.29283
21
-3.3822
0
LINE
8
BLACK
6
CONTINUOUS
10
5.29283
20
-3.3822
11
5.3578
21
-3.3822
0
LINE
8
BLACK
6
CONTINUOUS
10
5.3578
20
-3.3822
11
5.3578
21
-3.4078
0
LINE
8
BLACK
6
CONTINUOUS
10
5.64717
20
-3.4078
11
5.5822
21
-3.4078
0
LINE
8
BLACK
6
CONTINUOUS
10
5.5822
20
-3.4078
11
5.5822
21
-3.3822
0
LINE
8
BLACK
6
CONTINUOUS
10
5.5822
20
-3.3822
11
5.64717
21
-3.3822
0
LINE
8
BLACK
6
CONTINUOUS
10
5.64717
20
-3.3822
11
5.64717
21
-3.4078
0
LINE
8
BLACK
6
CONTINUOUS
10
5.75441
20
-3.38
11
5.69441
21
-3.38
0
LINE
8
BLACK
6
CONTINUOUS
10
5.69441
20
-3.38
11
5.69441
21
-3.32
0
LINE
8
BLACK
6
CONTINUOUS
10
5.69441
20
-3.32
11
5.75441
21
-3.32
0
LINE
8
BLACK
6
CONTINUOUS
10
5.75441
20
-3.32
11
5.75441
21
-3.38
0
LINE
8
BLACK
6
CONTINUOUS
10
5.85441
20
-3.38
11
5.79441
21
-3.38
0
LINE
8
BLACK
6
CONTINUOUS
10
5.79441
20
-3.38
11
5.79441
21
-3.32
0
LINE
8
BLACK
6
CONTINUOUS
10
5.79441
20
-3.32
11
5.85441
21
-3.32
0
LINE
8
BLACK
6
CONTINUOUS
10
5.85441
20
-3.32
11
5.85441
21
-3.38
0
LINE
8
BLACK
6
CONTINUOUS
10
5.94077
20
-3.32555
11
5.94397
21
-3.32769
0
LINE
8
BLACK
6
CONTINUOUS
10
5.94397
20
-3.32769
11
5.9461
21
-3.33088
0
LINE
8
BLACK
6
CONTINUOUS
10
5.9461
20
-3.33088
11
5.94685
21
-3.33465
0
LINE
8
BLACK
6
CONTINUOUS
10
5.94685
20
-3.33465
11
5.94685
21
-3.35827
0
LINE
8
BLACK
6
CONTINUOUS
10
5.94685
20
-3.35827
11
5.9461
21
-3.36203
0
LINE
8
BLACK
6
CONTINUOUS
10
5.9461
20
-3.36203
11
5.94397
21
-3.36523
0
LINE
8
BLACK
6
CONTINUOUS
10
5.94397
20
-3.36523
11
5.94077
21
-3.36736
0
LINE
8
BLACK
6
CONTINUOUS
10
5.94077
20
-3.36736
11
5.93701
21
-3.36811
0
LINE
8
BLACK
6
CONTINUOUS
10
5.93701
20
-3.36811
11
5.91339
21
-3.36811
0
LINE
8
BLACK
6
CONTINUOUS
10
5.91339
20
-3.36811
11
5.90962
21
-3.36736
0
LINE
8
BLACK
6
CONTINUOUS
10
5.90962
20
-3.36736
11
5.90643
21
-3.36523
0
LINE
8
BLACK
6
CONTINUOUS
10
5.90643
20
-3.36523
11
5.90429
21
-3.36203
0
LINE
8
BLACK
6
CONTINUOUS
10
5.90429
20
-3.36203
11
5.90354
21
-3.35827
0
LINE
8
BLACK
6
CONTINUOUS
10
5.90354
20
-3.35827
11
5.90354
21
-3.33465
0
LINE
8
BLACK
6
CONTINUOUS
10
5.90354
20
-3.33465
11
5.90429
21
-3.33088
0
LINE
8
BLACK
6
CONTINUOUS
10
5.90429
20
-3.33088
11
5.90643
21
-3.32769
0
LINE
8
BLACK
6
CONTINUOUS
10
5.90643
20
-3.32769
11
5.90962
21
-3.32555
0
LINE
8
BLACK
6
CONTINUOUS
10
5.90962
20
-3.32555
11
5.91339
21
-3.3248
0
LINE
8
BLACK
6
CONTINUOUS
10
5.91339
20
-3.3248
11
5.93701
21
-3.3248
0
LINE
8
BLACK
6
CONTINUOUS
10
5.93701
20
-3.3248
11
5.94077
21
-3.32555
0
LINE
8
BLACK
6
CONTINUOUS
10
5.3578
20
-3.3578
11
5.29283
21
-3.3578
0
LINE
8
BLACK
6
CONTINUOUS
10
5.29283
20
-3.3578
11
5.29283
21
-3.3322
0
LINE
8
BLACK
6
CONTINUOUS
10
5.29283
20
-3.3322
11
5.3578
21
-3.3322
0
LINE
8
BLACK
6
CONTINUOUS
10
5.3578
20
-3.3322
11
5.3578
21
-3.3578
0
LINE
8
BLACK
6
CONTINUOUS
10
5.64717
20
-3.3578
11
5.5822
21
-3.3578
0
LINE
8
BLACK
6
CONTINUOUS
10
5.5822
20
-3.3578
11
5.5822
21
-3.3322
0
LINE
8
BLACK
6
CONTINUOUS
10
5.5822
20
-3.3322
11
5.64717
21
-3.3322
0
LINE
8
BLACK
6
CONTINUOUS
10
5.64717
20
-3.3322
11
5.64717
21
-3.3578
0
LINE
8
BLACK
6
CONTINUOUS
10
5.75441
20
-3.28
11
5.69441
21
-3.28
0
LINE
8
BLACK
6
CONTINUOUS
10
5.69441
20
-3.28
11
5.69441
21
-3.22
0
LINE
8
BLACK
6
CONTINUOUS
10
5.69441
20
-3.22
11
5.75441
21
-3.22
0
LINE
8
BLACK
6
CONTINUOUS
10
5.75441
20
-3.22
11
5.75441
21
-3.28
0
LINE
8
BLACK
6
CONTINUOUS
10
5.85441
20
-3.28
11
5.79441
21
-3.28
0
LINE
8
BLACK
6
CONTINUOUS
10
5.79441
20
-3.28
11
5.79441
21
-3.22
0
LINE
8
BLACK
6
CONTINUOUS
10
5.79441
20
-3.22
11
5.85441
21
-3.22
0
LINE
8
BLACK
6
CONTINUOUS
10
5.85441
20
-3.22
11
5.85441
21
-3.28
0
LINE
8
BLACK
6
CONTINUOUS
10
5.94077
20
-3.21532
11
5.94397
21
-3.21745
0
LINE
8
BLACK
6
CONTINUOUS
10
5.94397
20
-3.21745
11
5.9461
21
-3.22064
0
LINE
8
BLACK
6
CONTINUOUS
10
5.9461
20
-3.22064
11
5.94685
21
-3.22441
0
LINE
8
BLACK
6
CONTINUOUS
10
5.94685
20
-3.22441
11
5.94685
21
-3.24803
0
LINE
8
BLACK
6
CONTINUOUS
10
5.94685
20
-3.24803
11
5.9461
21
-3.2518
0
LINE
8
BLACK
6
CONTINUOUS
10
5.9461
20
-3.2518
11
5.94397
21
-3.25499
0
LINE
8
BLACK
6
CONTINUOUS
10
5.94397
20
-3.25499
11
5.94077
21
-3.25712
0
LINE
8
BLACK
6
CONTINUOUS
10
5.94077
20
-3.25712
11
5.93701
21
-3.25787
0
LINE
8
BLACK
6
CONTINUOUS
10
5.93701
20
-3.25787
11
5.91339
21
-3.25787
0
LINE
8
BLACK
6
CONTINUOUS
10
5.91339
20
-3.25787
11
5.90962
21
-3.25712
0
LINE
8
BLACK
6
CONTINUOUS
10
5.90962
20
-3.25712
11
5.90643
21
-3.25499
0
LINE
8
BLACK
6
CONTINUOUS
10
5.90643
20
-3.25499
11
5.90429
21
-3.2518
0
LINE
8
BLACK
6
CONTINUOUS
10
5.90429
20
-3.2518
11
5.90354
21
-3.24803
0
LINE
8
BLACK
6
CONTINUOUS
10
5.90354
20
-3.24803
11
5.90354
21
-3.22441
0
LINE
8
BLACK
6
CONTINUOUS
10
5.90354
20
-3.22441
11
5.90429
21
-3.22064
0
LINE
8
BLACK
6
CONTINUOUS
10
5.90429
20
-3.22064
11
5.90643
21
-3.21745
0
LINE
8
BLACK
6
CONTINUOUS
10
5.90643
20
-3.21745
11
5.90962
21
-3.21532
0
LINE
8
BLACK
6
CONTINUOUS
10
5.90962
20
-3.21532
11
5.91339
21
-3.21457
0
LINE
8
BLACK
6
CONTINUOUS
10
5.91339
20
-3.21457
11
5.93701
21
-3.21457
0
LINE
8
BLACK
6
CONTINUOUS
10
5.93701
20
-3.21457
11
5.94077
21
-3.21532
0
LINE
8
BLACK
6
CONTINUOUS
10
5.51949
20
-3.11099
11
5.52688
21
-3.11323
0
LINE
8
BLACK
6
CONTINUOUS
10
5.52688
20
-3.11323
11
5.53368
21
-3.11687
0
LINE
8
BLACK
6
CONTINUOUS
10
5.53368
20
-3.11687
11
5.53965
21
-3.12177
0
LINE
8
BLACK
6
CONTINUOUS
10
5.53965
20
-3.12177
11
5.54455
21
-3.12773
0
LINE
8
BLACK
6
CONTINUOUS
10
5.54455
20
-3.12773
11
5.54818
21
-3.13454
0
LINE
8
BLACK
6
CONTINUOUS
10
5.54818
20
-3.13454
11
5.55042
21
-3.14193
0
LINE
8
BLACK
6
CONTINUOUS
10
5.55042
20
-3.14193
11
5.55118
21
-3.14961
0
LINE
8
BLACK
6
CONTINUOUS
10
5.55118
20
-3.14961
11
5.55042
21
-3.15729
0
LINE
8
BLACK
6
CONTINUOUS
10
5.55042
20
-3.15729
11
5.54818
21
-3.16467
0
LINE
8
BLACK
6
CONTINUOUS
10
5.54818
20
-3.16467
11
5.54455
21
-3.17148
0
LINE
8
BLACK
6
CONTINUOUS
10
5.54455
20
-3.17148
11
5.53965
21
-3.17745
0
LINE
8
BLACK
6
CONTINUOUS
10
5.53965
20
-3.17745
11
5.53368
21
-3.18234
0
LINE
8
BLACK
6
CONTINUOUS
10
5.53368
20
-3.18234
11
5.52688
21
-3.18598
0
LINE
8
BLACK
6
CONTINUOUS
10
5.52688
20
-3.18598
11
5.51949
21
-3.18822
0
LINE
8
BLACK
6
CONTINUOUS
10
5.51949
20
-3.18822
11
5.51181
21
-3.18898
0
LINE
8
BLACK
6
CONTINUOUS
10
5.51181
20
-3.18898
11
5.50413
21
-3.18822
0
LINE
8
BLACK
6
CONTINUOUS
10
5.50413
20
-3.18822
11
5.49674
21
-3.18598
0
LINE
8
BLACK
6
CONTINUOUS
10
5.49674
20
-3.18598
11
5.48994
21
-3.18234
0
LINE
8
BLACK
6
CONTINUOUS
10
5.48994
20
-3.18234
11
5.48397
21
-3.17745
0
LINE
8
BLACK
6
CONTINUOUS
10
5.48397
20
-3.17745
11
5.47908
21
-3.17148
0
LINE
8
BLACK
6
CONTINUOUS
10
5.47908
20
-3.17148
11
5.47544
21
-3.16467
0
LINE
8
BLACK
6
CONTINUOUS
10
5.47544
20
-3.16467
11
5.4732
21
-3.15729
0
LINE
8
BLACK
6
CONTINUOUS
10
5.4732
20
-3.15729
11
5.47244
21
-3.14961
0
LINE
8
BLACK
6
CONTINUOUS
10
5.47244
20
-3.14961
11
5.4732
21
-3.14193
0
LINE
8
BLACK
6
CONTINUOUS
10
5.4732
20
-3.14193
11
5.47544
21
-3.13454
0
LINE
8
BLACK
6
CONTINUOUS
10
5.47544
20
-3.13454
11
5.47908
21
-3.12773
0
LINE
8
BLACK
6
CONTINUOUS
10
5.47908
20
-3.12773
11
5.48397
21
-3.12177
0
LINE
8
BLACK
6
CONTINUOUS
10
5.48397
20
-3.12177
11
5.48994
21
-3.11687
0
LINE
8
BLACK
6
CONTINUOUS
10
5.48994
20
-3.11687
11
5.49674
21
-3.11323
0
LINE
8
BLACK
6
CONTINUOUS
10
5.49674
20
-3.11323
11
5.50413
21
-3.11099
0
LINE
8
BLACK
6
CONTINUOUS
10
5.50413
20
-3.11099
11
5.51181
21
-3.11024
0
LINE
8
BLACK
6
CONTINUOUS
10
5.51181
20
-3.11024
11
5.51949
21
-3.11099
0
LINE
8
BLACK
6
CONTINUOUS
10
5.42051
20
-2.88368
11
5.43387
21
-2.88685
0
LINE
8
BLACK
6
CONTINUOUS
10
5.43387
20
-2.88685
11
5.44678
21
-2.89155
0
LINE
8
BLACK
6
CONTINUOUS
10
5.44678
20
-2.89155
11
5.45906
21
-2.89771
0
LINE
8
BLACK
6
CONTINUOUS
10
5.45906
20
-2.89771
11
5.47053
21
-2.90526
0
LINE
8
BLACK
6
CONTINUOUS
10
5.47053
20
-2.90526
11
5.48105
21
-2.91409
0
LINE
8
BLACK
6
CONTINUOUS
10
5.48105
20
-2.91409
11
5.49048
21
-2.92408
0
LINE
8
BLACK
6
CONTINUOUS
10
5.49048
20
-2.92408
11
5.49868
21
-2.9351
0
LINE
8
BLACK
6
CONTINUOUS
10
5.49868
20
-2.9351
11
5.50555
21
-2.94699
0
LINE
8
BLACK
6
CONTINUOUS
10
5.50555
20
-2.94699
11
5.51099
21
-2.9596
0
LINE
8
BLACK
6
CONTINUOUS
10
5.51099
20
-2.9596
11
5.51493
21
-2.97276
0
LINE
8
BLACK
6
CONTINUOUS
10
5.51493
20
-2.97276
11
5.51731
21
-2.98629
0
LINE
8
BLACK
6
CONTINUOUS
10
5.51731
20
-2.98629
11
5.51811
21
-3
0
LINE
8
BLACK
6
CONTINUOUS
10
5.51811
20
-3
11
5.51731
21
-3.01371
0
LINE
8
BLACK
6
CONTINUOUS
10
5.51731
20
-3.01371
11
5.51493
21
-3.02724
0
LINE
8
BLACK
6
CONTINUOUS
10
5.51493
20
-3.02724
11
5.51099
21
-3.0404
0
LINE
8
BLACK
6
CONTINUOUS
10
5.51099
20
-3.0404
11
5.50555
21
-3.05301
0
LINE
8
BLACK
6
CONTINUOUS
10
5.50555
20
-3.05301
11
5.49868
21
-3.0649
0
LINE
8
BLACK
6
CONTINUOUS
10
5.49868
20
-3.0649
11
5.49048
21
-3.07592
0
LINE
8
BLACK
6
CONTINUOUS
10
5.49048
20
-3.07592
11
5.48105
21
-3.08591
0
LINE
8
BLACK
6
CONTINUOUS
10
5.48105
20
-3.08591
11
5.47053
21
-3.09474
0
LINE
8
BLACK
6
CONTINUOUS
10
5.47053
20
-3.09474
11
5.45906
21
-3.10229
0
LINE
8
BLACK
6
CONTINUOUS
10
5.45906
20
-3.10229
11
5.44678
21
-3.10845
0
LINE
8
BLACK
6
CONTINUOUS
10
5.44678
20
-3.10845
11
5.43387
21
-3.11315
0
LINE
8
BLACK
6
CONTINUOUS
10
5.43387
20
-3.11315
11
5.42051
21
-3.11632
0
LINE
8
BLACK
6
CONTINUOUS
10
5.42051
20
-3.11632
11
5.40687
21
-3.11791
0
LINE
8
BLACK
6
CONTINUOUS
10
5.40687
20
-3.11791
11
5.39313
21
-3.11791
0
LINE
8
BLACK
6
CONTINUOUS
10
5.39313
20
-3.11791
11
5.37949
21
-3.11632
0
LINE
8
BLACK
6
CONTINUOUS
10
5.37949
20
-3.11632
11
5.36613
21
-3.11315
0
LINE
8
BLACK
6
CONTINUOUS
10
5.36613
20
-3.11315
11
5.35322
21
-3.10845
0
LINE
8
BLACK
6
CONTINUOUS
10
5.35322
20
-3.10845
11
5.34094
21
-3.10229
0
LINE
8
BLACK
6
CONTINUOUS
10
5.34094
20
-3.10229
11
5.32947
21
-3.09474
0
LINE
8
BLACK
6
CONTINUOUS
10
5.32947
20
-3.09474
11
5.31895
21
-3.08591
0
LINE
8
BLACK
6
CONTINUOUS
10
5.31895
20
-3.08591
11
5.30952
21
-3.07592
0
LINE
8
BLACK
6
CONTINUOUS
10
5.30952
20
-3.07592
11
5.30132
21
-3.0649
0
LINE
8
BLACK
6
CONTINUOUS
10
5.30132
20
-3.0649
11
5.29445
21
-3.05301
0
LINE
8
BLACK
6
CONTINUOUS
10
5.29445
20
-3.05301
11
5.28901
21
-3.0404
0
LINE
8
BLACK
6
CONTINUOUS
10
5.28901
20
-3.0404
11
5.28507
21
-3.02724
0
LINE
8
BLACK
6
CONTINUOUS
10
5.28507
20
-3.02724
11
5.28269
21
-3.01371
0
LINE
8
BLACK
6
CONTINUOUS
10
5.28269
20
-3.01371
11
5.28189
21
-3
0
LINE
8
BLACK
6
CONTINUOUS
10
5.28189
20
-3
11
5.28269
21
-2.98629
0
LINE
8
BLACK
6
CONTINUOUS
10
5.28269
20
-2.98629
11
5.28507
21
-2.97276
0
LINE
8
BLACK
6
CONTINUOUS
10
5.28507
20
-2.97276
11
5.28901
21
-2.9596
0
LINE
8
BLACK
6
CONTINUOUS
10
5.28901
20
-2.9596
11
5.29445
21
-2.94699
0
LINE
8
BLACK
6
CONTINUOUS
10
5.29445
20
-2.94699
11
5.30132
21
-2.9351
0
LINE
8
BLACK
6
CONTINUOUS
10
5.30132
20
-2.9351
11
5.30952
21
-2.92408
0
LINE
8
BLACK
6
CONTINUOUS
10
5.30952
20
-2.92408
11
5.31895
21
-2.91409
0
LINE
8
BLACK
6
CONTINUOUS
10
5.31895
20
-2.91409
11
5.32947
21
-2.90526
0
LINE
8
BLACK
6
CONTINUOUS
10
5.32947
20
-2.90526
11
5.34094
21
-2.89771
0
LINE
8
BLACK
6
CONTINUOUS
10
5.34094
20
-2.89771
11
5.35322
21
-2.89155
0
LINE
8
BLACK
6
CONTINUOUS
10
5.35322
20
-2.89155
11
5.36613
21
-2.88685
0
LINE
8
BLACK
6
CONTINUOUS
10
5.36613
20
-2.88685
11
5.37949
21
-2.88368
0
LINE
8
BLACK
6
CONTINUOUS
10
5.37949
20
-2.88368
11
5.39313
21
-2.88209
0
LINE
8
BLACK
6
CONTINUOUS
10
5.39313
20
-2.88209
11
5.40687
21
-2.88209
0
LINE
8
BLACK
6
CONTINUOUS
10
5.40687
20
-2.88209
11
5.42051
21
-2.88368
0
LINE
8
BLACK
6
CONTINUOUS
10
5.82051
20
-2.88368
11
5.83387
21
-2.88685
0
LINE
8
BLACK
6
CONTINUOUS
10
5.83387
20
-2.88685
11
5.84678
21
-2.89155
0
LINE
8
BLACK
6
CONTINUOUS
10
5.84678
20
-2.89155
11
5.85906
21
-2.89771
0
LINE
8
BLACK
6
CONTINUOUS
10
5.85906
20
-2.89771
11
5.87053
21
-2.90526
0
LINE
8
BLACK
6
CONTINUOUS
10
5.87053
20
-2.90526
11
5.88105
21
-2.91409
0
LINE
8
BLACK
6
CONTINUOUS
10
5.88105
20
-2.91409
11
5.89048
21
-2.92408
0
LINE
8
BLACK
6
CONTINUOUS
10
5.89048
20
-2.92408
11
5.89868
21
-2.9351
0
LINE
8
BLACK
6
CONTINUOUS
10
5.89868
20
-2.9351
11
5.90555
21
-2.94699
0
LINE
8
BLACK
6
CONTINUOUS
10
5.90555
20
-2.94699
11
5.91099
21
-2.9596
0
LINE
8
BLACK
6
CONTINUOUS
10
5.91099
20
-2.9596
11
5.91493
21
-2.97276
0
LINE
8
BLACK
6
CONTINUOUS
10
5.91493
20
-2.97276
11
5.91731
21
-2.98629
0
LINE
8
BLACK
6
CONTINUOUS
10
5.91731
20
-2.98629
11
5.91811
21
-3
0
LINE
8
BLACK
6
CONTINUOUS
10
5.91811
20
-3
11
5.91731
21
-3.01371
0
LINE
8
BLACK
6
CONTINUOUS
10
5.91731
20
-3.01371
11
5.91493
21
-3.02724
0
LINE
8
BLACK
6
CONTINUOUS
10
5.91493
20
-3.02724
11
5.91099
21
-3.0404
0
LINE
8
BLACK
6
CONTINUOUS
10
5.91099
20
-3.0404
11
5.90555
21
-3.05301
0
LINE
8
BLACK
6
CONTINUOUS
10
5.90555
20
-3.05301
11
5.89868
21
-3.0649
0
LINE
8
BLACK
6
CONTINUOUS
10
5.89868
20
-3.0649
11
5.89048
21
-3.07592
0
LINE
8
BLACK
6
CONTINUOUS
10
5.89048
20
-3.07592
11
5.88105
21
-3.08591
0
LINE
8
BLACK
6
CONTINUOUS
10
5.88105
20
-3.08591
11
5.87053
21
-3.09474
0
LINE
8
BLACK
6
CONTINUOUS
10
5.87053
20
-3.09474
11
5.85906
21
-3.10229
0
LINE
8
BLACK
6
CONTINUOUS
10
5.85906
20
-3.10229
11
5.84678
21
-3.10845
0
LINE
8
BLACK
6
CONTINUOUS
10
5.84678
20
-3.10845
11
5.83387
21
-3.11315
0
LINE
8
BLACK
6
CONTINUOUS
10
5.83387
20
-3.11315
11
5.82051
21
-3.11632
0
LINE
8
BLACK
6
CONTINUOUS
10
5.82051
20
-3.11632
11
5.80687
21
-3.11791
0
LINE
8
BLACK
6
CONTINUOUS
10
5.80687
20
-3.11791
11
5.79313
21
-3.11791
0
LINE
8
BLACK
6
CONTINUOUS
10
5.79313
20
-3.11791
11
5.77949
21
-3.11632
0
LINE
8
BLACK
6
CONTINUOUS
10
5.77949
20
-3.11632
11
5.76613
21
-3.11315
0
LINE
8
BLACK
6
CONTINUOUS
10
5.76613
20
-3.11315
11
5.75322
21
-3.10845
0
LINE
8
BLACK
6
CONTINUOUS
10
5.75322
20
-3.10845
11
5.74094
21
-3.10229
0
LINE
8
BLACK
6
CONTINUOUS
10
5.74094
20
-3.10229
11
5.72947
21
-3.09474
0
LINE
8
BLACK
6
CONTINUOUS
10
5.72947
20
-3.09474
11
5.71895
21
-3.08591
0
LINE
8
BLACK
6
CONTINUOUS
10
5.71895
20
-3.08591
11
5.70952
21
-3.07592
0
LINE
8
BLACK
6
CONTINUOUS
10
5.70952
20
-3.07592
11
5.70132
21
-3.0649
0
LINE
8
BLACK
6
CONTINUOUS
10
5.70132
20
-3.0649
11
5.69445
21
-3.05301
0
LINE
8
BLACK
6
CONTINUOUS
10
5.69445
20
-3.05301
11
5.68901
21
-3.0404
0
LINE
8
BLACK
6
CONTINUOUS
10
5.68901
20
-3.0404
11
5.68507
21
-3.02724
0
LINE
8
BLACK
6
CONTINUOUS
10
5.68507
20
-3.02724
11
5.68269
21
-3.01371
0
LINE
8
BLACK
6
CONTINUOUS
10
5.68269
20
-3.01371
11
5.68189
21
-3
0
LINE
8
BLACK
6
CONTINUOUS
10
5.68189
20
-3
11
5.68269
21
-2.98629
0
LINE
8
BLACK
6
CONTINUOUS
10
5.68269
20
-2.98629
11
5.68507
21
-2.97276
0
LINE
8
BLACK
6
CONTINUOUS
10
5.68507
20
-2.97276
11
5.68901
21
-2.9596
0
LINE
8
BLACK
6
CONTINUOUS
10
5.68901
20
-2.9596
11
5.69445
21
-2.94699
0
LINE
8
BLACK
6
CONTINUOUS
10
5.69445
20
-2.94699
11
5.70132
21
-2.9351
0
LINE
8
BLACK
6
CONTINUOUS
10
5.70132
20
-2.9351
11
5.70952
21
-2.92408
0
LINE
8
BLACK
6
CONTINUOUS
10
5.70952
20
-2.92408
11
5.71895
21
-2.91409
0
LINE
8
BLACK
6
CONTINUOUS
10
5.71895
20
-2.91409
11
5.72947
21
-2.90526
0
LINE
8
BLACK
6
CONTINUOUS
10
5.72947
20
-2.90526
11
5.74094
21
-2.89771
0
LINE
8
BLACK
6
CONTINUOUS
10
5.74094
20
-2.89771
11
5.75322
21
-2.89155
0
LINE
8
BLACK
6
CONTINUOUS
10
5.75322
20
-2.89155
11
5.76613
21
-2.88685
0
LINE
8
BLACK
6
CONTINUOUS
10
5.76613
20
-2.88685
11
5.77949
21
-2.88368
0
LINE
8
BLACK
6
CONTINUOUS
10
5.77949
20
-2.88368
11
5.79313
21
-2.88209
0
LINE
8
BLACK
6
CONTINUOUS
10
5.79313
20
-2.88209
11
5.80687
21
-2.88209
0
LINE
8
BLACK
6
CONTINUOUS
10
5.80687
20
-2.88209
11
5.82051
21
-2.88368
  0
ENDSEC
  0
EOF
