  0
SECTION
  2
HEADER
  9
$ANGBASE
  50
0.0
  9
$ANGDIR
  70
1
  9
$MEASUREMENT
  70
0
  0
ENDSEC
  0
SECTION
  2
TABLES
  0
TABLE
  2
LTYPE
  70
4
  0
LTYPE
  5
40F
  2
CONTINUOUS
  70
0
  3
Solid line
  72
65
  73
0
  40
0.0
  0
LTYPE
  5
410
  2
DASHDOT
 70
0
  3
Dash Dot ____ _ ____ _
 72
65
 73
4
 40
2.0
 49
1.25
 49
-0.25
 49
0.25
 49
-0.25
  0
LTYPE
  5
411
  2
DASHED
 70
0
  3
Dashed __ __ __ __ __
 72
65
 73
2
 40
0.75
 49
0.5
 49
-0.25
  0
LTYPE
  5
43B
  2
DOTTED
 70
0
  3
Dotted .  .  .  .
 72
65
 73
2
 40
0.2
 49
0.0
 49
-0.2
  0
ENDTAB
  0
TABLE
  2
STYLE
  70
4
  0
STYLE
  2
KICAD
  70
0
  40
0
  41
1
  42
1
  50
0
  71
0
  3
isocp.shx
  0
STYLE
  2
KICADB
  70
0
  40
0
  41
1
  42
1
  50
0
  71
0
  3
isocp.shx
  0
STYLE
  2
KICADI
  70
0
  40
0
  41
1
  42
1
  50
15
  71
0
  3
isocp.shx
  0
STYLE
  2
KICADBI
  70
0
  40
0
  41
1
  42
1
  50
15
  71
0
  3
isocp.shx
  0
ENDTAB
  0
TABLE
  2
LAYER
  70
1
  0
LAYER
  2
BLACK
  70
0
  62
7
  6
CONTINUOUS
  0
ENDTAB
  0
ENDSEC
  0
SECTION
  2
ENTITIES
0
LINE
8
BLACK
6
CONTINUOUS
10
0.173521
20
0.074948
11
0.174213
21
0.0732776
0
LINE
8
BLACK
6
CONTINUOUS
10
0.174213
20
0.0732776
11
0.174213
21
0.0527066
0
LINE
8
BLACK
6
CONTINUOUS
10
0.174213
20
0.0527066
11
0.173521
21
0.0510363
0
LINE
8
BLACK
6
CONTINUOUS
10
0.173521
20
0.0510363
11
0.17185
21
0.0503444
0
LINE
8
BLACK
6
CONTINUOUS
10
0.17185
20
0.0503444
11
0.17018
21
0.0510363
0
LINE
8
BLACK
6
CONTINUOUS
10
0.17018
20
0.0510363
11
0.169488
21
0.0527066
0
LINE
8
BLACK
6
CONTINUOUS
10
0.169488
20
0.0527066
11
0.169488
21
0.0732776
0
LINE
8
BLACK
6
CONTINUOUS
10
0.169488
20
0.0732776
11
0.17018
21
0.074948
0
LINE
8
BLACK
6
CONTINUOUS
10
0.17018
20
0.074948
11
0.17185
21
0.0756398
0
LINE
8
BLACK
6
CONTINUOUS
10
0.17185
20
0.0756398
11
0.173521
21
0.074948
0
LINE
8
BLACK
6
CONTINUOUS
10
0.231395
20
0.074948
11
0.232087
21
0.0732776
0
LINE
8
BLACK
6
CONTINUOUS
10
0.232087
20
0.0732776
11
0.232087
21
0.0527066
0
LINE
8
BLACK
6
CONTINUOUS
10
0.232087
20
0.0527066
11
0.231395
21
0.0510363
0
LINE
8
BLACK
6
CONTINUOUS
10
0.231395
20
0.0510363
11
0.229724
21
0.0503444
0
LINE
8
BLACK
6
CONTINUOUS
10
0.229724
20
0.0503444
11
0.228054
21
0.0510363
0
LINE
8
BLACK
6
CONTINUOUS
10
0.228054
20
0.0510363
11
0.227362
21
0.0527066
0
LINE
8
BLACK
6
CONTINUOUS
10
0.227362
20
0.0527066
11
0.227362
21
0.0732776
0
LINE
8
BLACK
6
CONTINUOUS
10
0.227362
20
0.0732776
11
0.228054
21
0.074948
0
LINE
8
BLACK
6
CONTINUOUS
10
0.228054
20
0.074948
11
0.229724
21
0.0756398
0
LINE
8
BLACK
6
CONTINUOUS
10
0.229724
20
0.0756398
11
0.231395
21
0.074948
0
LINE
8
BLACK
6
CONTINUOUS
10
0.256565
20
0.134523
11
0.256735
21
0.134534
0
LINE
8
BLACK
6
CONTINUOUS
10
0.256735
20
0.134534
11
0.257425
21
0.134027
0
LINE
8
BLACK
6
CONTINUOUS
10
0.257425
20
0.134027
11
0.258167
21
0.133598
0
LINE
8
BLACK
6
CONTINUOUS
10
0.258167
20
0.133598
11
0.258225
21
0.133439
0
LINE
8
BLACK
6
CONTINUOUS
10
0.258225
20
0.133439
11
0.258362
21
0.133338
0
LINE
8
BLACK
6
CONTINUOUS
10
0.258362
20
0.133338
11
0.26195
21
0.127957
0
LINE
8
BLACK
6
CONTINUOUS
10
0.26195
20
0.127957
11
0.265154
21
0.124753
0
LINE
8
BLACK
6
CONTINUOUS
10
0.265154
20
0.124753
11
0.268475
21
0.123092
0
LINE
8
BLACK
6
CONTINUOUS
10
0.268475
20
0.123092
11
0.269298
21
0.122482
0
LINE
8
BLACK
6
CONTINUOUS
10
0.269298
20
0.122482
11
0.270101
21
0.120628
0
LINE
8
BLACK
6
CONTINUOUS
10
0.270101
20
0.120628
11
0.269526
21
0.118692
0
LINE
8
BLACK
6
CONTINUOUS
10
0.269526
20
0.118692
11
0.26784
21
0.11758
0
LINE
8
BLACK
6
CONTINUOUS
10
0.26784
20
0.11758
11
0.265834
21
0.11781
0
LINE
8
BLACK
6
CONTINUOUS
10
0.265834
20
0.11781
11
0.262084
21
0.119685
0
LINE
8
BLACK
6
CONTINUOUS
10
0.262084
20
0.119685
11
0.261375
21
0.120211
0
LINE
8
BLACK
6
CONTINUOUS
10
0.261375
20
0.120211
11
0.261317
21
0.120238
0
LINE
8
BLACK
6
CONTINUOUS
10
0.261317
20
0.120238
11
0.258858
21
0.122697
0
LINE
8
BLACK
6
CONTINUOUS
10
0.258858
20
0.122697
11
0.258858
21
0.0952827
0
LINE
8
BLACK
6
CONTINUOUS
10
0.258858
20
0.0952827
11
0.267154
21
0.0952827
0
LINE
8
BLACK
6
CONTINUOUS
10
0.267154
20
0.0952827
11
0.268164
21
0.0951046
0
LINE
8
BLACK
6
CONTINUOUS
10
0.268164
20
0.0951046
11
0.269711
21
0.0938063
0
LINE
8
BLACK
6
CONTINUOUS
10
0.269711
20
0.0938063
11
0.270062
21
0.0918172
0
LINE
8
BLACK
6
CONTINUOUS
10
0.270062
20
0.0918172
11
0.269052
21
0.090068
0
LINE
8
BLACK
6
CONTINUOUS
10
0.269052
20
0.090068
11
0.267154
21
0.0893772
0
LINE
8
BLACK
6
CONTINUOUS
10
0.267154
20
0.0893772
11
0.244657
21
0.0893772
0
LINE
8
BLACK
6
CONTINUOUS
10
0.244657
20
0.0893772
11
0.243647
21
0.0895553
0
LINE
8
BLACK
6
CONTINUOUS
10
0.243647
20
0.0895553
11
0.2421
21
0.0908536
0
LINE
8
BLACK
6
CONTINUOUS
10
0.2421
20
0.0908536
11
0.241749
21
0.0928427
0
LINE
8
BLACK
6
CONTINUOUS
10
0.241749
20
0.0928427
11
0.242759
21
0.0945919
0
LINE
8
BLACK
6
CONTINUOUS
10
0.242759
20
0.0945919
11
0.244657
21
0.0952827
0
LINE
8
BLACK
6
CONTINUOUS
10
0.244657
20
0.0952827
11
0.252953
21
0.0952827
0
LINE
8
BLACK
6
CONTINUOUS
10
0.252953
20
0.0952827
11
0.252953
21
0.1317
0
LINE
8
BLACK
6
CONTINUOUS
10
0.252953
20
0.1317
11
0.253131
21
0.13271
0
LINE
8
BLACK
6
CONTINUOUS
10
0.253131
20
0.13271
11
0.25324
21
0.13284
0
LINE
8
BLACK
6
CONTINUOUS
10
0.25324
20
0.13284
11
0.253259
21
0.133009
0
LINE
8
BLACK
6
CONTINUOUS
10
0.253259
20
0.133009
11
0.253878
21
0.133601
0
LINE
8
BLACK
6
CONTINUOUS
10
0.253878
20
0.133601
11
0.254429
21
0.134257
0
LINE
8
BLACK
6
CONTINUOUS
10
0.254429
20
0.134257
11
0.254596
21
0.134287
0
LINE
8
BLACK
6
CONTINUOUS
10
0.254596
20
0.134287
11
0.254719
21
0.134404
0
LINE
8
BLACK
6
CONTINUOUS
10
0.254719
20
0.134404
11
0.255574
21
0.134459
0
LINE
8
BLACK
6
CONTINUOUS
10
0.255574
20
0.134459
11
0.256418
21
0.134608
0
LINE
8
BLACK
6
CONTINUOUS
10
0.256418
20
0.134608
11
0.256565
21
0.134523
0
LINE
8
BLACK
6
CONTINUOUS
10
0.29427
20
0.1345
11
0.294335
21
0.134501
0
LINE
8
BLACK
6
CONTINUOUS
10
0.294335
20
0.134501
11
0.299959
21
0.132626
0
LINE
8
BLACK
6
CONTINUOUS
10
0.299959
20
0.132626
11
0.300861
21
0.132138
0
LINE
8
BLACK
6
CONTINUOUS
10
0.300861
20
0.132138
11
0.300953
21
0.131988
0
LINE
8
BLACK
6
CONTINUOUS
10
0.300953
20
0.131988
11
0.301113
21
0.131913
0
LINE
8
BLACK
6
CONTINUOUS
10
0.301113
20
0.131913
11
0.304863
21
0.128164
0
LINE
8
BLACK
6
CONTINUOUS
10
0.304863
20
0.128164
11
0.305369
21
0.127441
0
LINE
8
BLACK
6
CONTINUOUS
10
0.305369
20
0.127441
11
0.305416
21
0.127396
0
LINE
8
BLACK
6
CONTINUOUS
10
0.305416
20
0.127396
11
0.30729
21
0.123647
0
LINE
8
BLACK
6
CONTINUOUS
10
0.30729
20
0.123647
11
0.307436
21
0.123158
0
LINE
8
BLACK
6
CONTINUOUS
10
0.307436
20
0.123158
11
0.307514
21
0.123042
0
LINE
8
BLACK
6
CONTINUOUS
10
0.307514
20
0.123042
11
0.309389
21
0.115543
0
LINE
8
BLACK
6
CONTINUOUS
10
0.309389
20
0.115543
11
0.30943
21
0.114955
0
LINE
8
BLACK
6
CONTINUOUS
10
0.30943
20
0.114955
11
0.309477
21
0.114827
0
LINE
8
BLACK
6
CONTINUOUS
10
0.309477
20
0.114827
11
0.309477
21
0.109203
0
LINE
8
BLACK
6
CONTINUOUS
10
0.309477
20
0.109203
11
0.309375
21
0.108623
0
LINE
8
BLACK
6
CONTINUOUS
10
0.309375
20
0.108623
11
0.309389
21
0.108487
0
LINE
8
BLACK
6
CONTINUOUS
10
0.309389
20
0.108487
11
0.307514
21
0.100988
0
LINE
8
BLACK
6
CONTINUOUS
10
0.307514
20
0.100988
11
0.307306
21
0.100522
0
LINE
8
BLACK
6
CONTINUOUS
10
0.307306
20
0.100522
11
0.30729
21
0.100383
0
LINE
8
BLACK
6
CONTINUOUS
10
0.30729
20
0.100383
11
0.305416
21
0.0966338
0
LINE
8
BLACK
6
CONTINUOUS
10
0.305416
20
0.0966338
11
0.30489
21
0.0959248
0
LINE
8
BLACK
6
CONTINUOUS
10
0.30489
20
0.0959248
11
0.304863
21
0.0958664
0
LINE
8
BLACK
6
CONTINUOUS
10
0.304863
20
0.0958664
11
0.301113
21
0.0921168
0
LINE
8
BLACK
6
CONTINUOUS
10
0.301113
20
0.0921168
11
0.300273
21
0.0915286
0
LINE
8
BLACK
6
CONTINUOUS
10
0.300273
20
0.0915286
11
0.300097
21
0.0915133
0
LINE
8
BLACK
6
CONTINUOUS
10
0.300097
20
0.0915133
11
0.299959
21
0.0914035
0
LINE
8
BLACK
6
CONTINUOUS
10
0.299959
20
0.0914035
11
0.294335
21
0.0895287
0
LINE
8
BLACK
6
CONTINUOUS
10
0.294335
20
0.0895287
11
0.293461
21
0.0893993
0
LINE
8
BLACK
6
CONTINUOUS
10
0.293461
20
0.0893993
11
0.293401
21
0.0893772
0
LINE
8
BLACK
6
CONTINUOUS
10
0.293401
20
0.0893772
11
0.289651
21
0.0893772
0
LINE
8
BLACK
6
CONTINUOUS
10
0.289651
20
0.0893772
11
0.288782
21
0.0895305
0
LINE
8
BLACK
6
CONTINUOUS
10
0.288782
20
0.0895305
11
0.288717
21
0.0895287
0
LINE
8
BLACK
6
CONTINUOUS
10
0.288717
20
0.0895287
11
0.283093
21
0.0914035
0
LINE
8
BLACK
6
CONTINUOUS
10
0.283093
20
0.0914035
11
0.282191
21
0.0918918
0
LINE
8
BLACK
6
CONTINUOUS
10
0.282191
20
0.0918918
11
0.282099
21
0.0920422
0
LINE
8
BLACK
6
CONTINUOUS
10
0.282099
20
0.0920422
11
0.281939
21
0.0921169
0
LINE
8
BLACK
6
CONTINUOUS
10
0.281939
20
0.0921169
11
0.280064
21
0.0939917
0
LINE
8
BLACK
6
CONTINUOUS
10
0.280064
20
0.0939917
11
0.279476
21
0.0948317
0
LINE
8
BLACK
6
CONTINUOUS
10
0.279476
20
0.0948317
11
0.2793
21
0.0968438
0
LINE
8
BLACK
6
CONTINUOUS
10
0.2793
20
0.0968438
11
0.280459
21
0.0984983
0
LINE
8
BLACK
6
CONTINUOUS
10
0.280459
20
0.0984983
11
0.28241
21
0.099021
0
LINE
8
BLACK
6
CONTINUOUS
10
0.28241
20
0.099021
11
0.28424
21
0.0981674
0
LINE
8
BLACK
6
CONTINUOUS
10
0.28424
20
0.0981674
11
0.285622
21
0.0967855
0
LINE
8
BLACK
6
CONTINUOUS
10
0.285622
20
0.0967855
11
0.29013
21
0.0952827
0
LINE
8
BLACK
6
CONTINUOUS
10
0.29013
20
0.0952827
11
0.292922
21
0.0952827
0
LINE
8
BLACK
6
CONTINUOUS
10
0.292922
20
0.0952827
11
0.29743
21
0.0967856
0
LINE
8
BLACK
6
CONTINUOUS
10
0.29743
20
0.0967856
11
0.300348
21
0.0997034
0
LINE
8
BLACK
6
CONTINUOUS
10
0.300348
20
0.0997034
11
0.301863
21
0.102734
0
LINE
8
BLACK
6
CONTINUOUS
10
0.301863
20
0.102734
11
0.303571
21
0.109566
0
LINE
8
BLACK
6
CONTINUOUS
10
0.303571
20
0.109566
11
0.303571
21
0.114464
0
LINE
8
BLACK
6
CONTINUOUS
10
0.303571
20
0.114464
11
0.301863
21
0.121296
0
LINE
8
BLACK
6
CONTINUOUS
10
0.301863
20
0.121296
11
0.300348
21
0.124327
0
LINE
8
BLACK
6
CONTINUOUS
10
0.300348
20
0.124327
11
0.29743
21
0.127244
0
LINE
8
BLACK
6
CONTINUOUS
10
0.29743
20
0.127244
11
0.292922
21
0.128747
0
LINE
8
BLACK
6
CONTINUOUS
10
0.292922
20
0.128747
11
0.29013
21
0.128747
0
LINE
8
BLACK
6
CONTINUOUS
10
0.29013
20
0.128747
11
0.285622
21
0.127244
0
LINE
8
BLACK
6
CONTINUOUS
10
0.285622
20
0.127244
11
0.28424
21
0.125863
0
LINE
8
BLACK
6
CONTINUOUS
10
0.28424
20
0.125863
11
0.2834
21
0.125274
0
LINE
8
BLACK
6
CONTINUOUS
10
0.2834
20
0.125274
11
0.281388
21
0.125098
0
LINE
8
BLACK
6
CONTINUOUS
10
0.281388
20
0.125098
11
0.279733
21
0.126257
0
LINE
8
BLACK
6
CONTINUOUS
10
0.279733
20
0.126257
11
0.279211
21
0.128208
0
LINE
8
BLACK
6
CONTINUOUS
10
0.279211
20
0.128208
11
0.280064
21
0.130038
0
LINE
8
BLACK
6
CONTINUOUS
10
0.280064
20
0.130038
11
0.281939
21
0.131913
0
LINE
8
BLACK
6
CONTINUOUS
10
0.281939
20
0.131913
11
0.282779
21
0.132501
0
LINE
8
BLACK
6
CONTINUOUS
10
0.282779
20
0.132501
11
0.282955
21
0.132517
0
LINE
8
BLACK
6
CONTINUOUS
10
0.282955
20
0.132517
11
0.283093
21
0.132626
0
LINE
8
BLACK
6
CONTINUOUS
10
0.283093
20
0.132626
11
0.288717
21
0.134501
0
LINE
8
BLACK
6
CONTINUOUS
10
0.288717
20
0.134501
11
0.289591
21
0.134631
0
LINE
8
BLACK
6
CONTINUOUS
10
0.289591
20
0.134631
11
0.289651
21
0.134653
0
LINE
8
BLACK
6
CONTINUOUS
10
0.289651
20
0.134653
11
0.293401
21
0.134653
0
LINE
8
BLACK
6
CONTINUOUS
10
0.293401
20
0.134653
11
0.29427
21
0.1345
0
LINE
8
BLACK
6
CONTINUOUS
10
0.165499
20
0.142025
11
0.166191
21
0.140354
0
LINE
8
BLACK
6
CONTINUOUS
10
0.166191
20
0.140354
11
0.165499
21
0.138684
0
LINE
8
BLACK
6
CONTINUOUS
10
0.165499
20
0.138684
11
0.163829
21
0.137992
0
LINE
8
BLACK
6
CONTINUOUS
10
0.163829
20
0.137992
11
0.143258
21
0.137992
0
LINE
8
BLACK
6
CONTINUOUS
10
0.143258
20
0.137992
11
0.141587
21
0.138684
0
LINE
8
BLACK
6
CONTINUOUS
10
0.141587
20
0.138684
11
0.140896
21
0.140354
0
LINE
8
BLACK
6
CONTINUOUS
10
0.140896
20
0.140354
11
0.141587
21
0.142025
0
LINE
8
BLACK
6
CONTINUOUS
10
0.141587
20
0.142025
11
0.143258
21
0.142717
0
LINE
8
BLACK
6
CONTINUOUS
10
0.143258
20
0.142717
11
0.163829
21
0.142717
0
LINE
8
BLACK
6
CONTINUOUS
10
0.163829
20
0.142717
11
0.165499
21
0.142025
0
LINE
8
BLACK
6
CONTINUOUS
10
0.239626
20
0.19353
11
0.239762
21
0.193416
0
LINE
8
BLACK
6
CONTINUOUS
10
0.239762
20
0.193416
11
0.239937
21
0.193396
0
LINE
8
BLACK
6
CONTINUOUS
10
0.239937
20
0.193396
11
0.243686
21
0.191521
0
LINE
8
BLACK
6
CONTINUOUS
10
0.243686
20
0.191521
11
0.244395
21
0.190996
0
LINE
8
BLACK
6
CONTINUOUS
10
0.244395
20
0.190996
11
0.244454
21
0.190968
0
LINE
8
BLACK
6
CONTINUOUS
10
0.244454
20
0.190968
11
0.246329
21
0.189094
0
LINE
8
BLACK
6
CONTINUOUS
10
0.246329
20
0.189094
11
0.246917
21
0.188254
0
LINE
8
BLACK
6
CONTINUOUS
10
0.246917
20
0.188254
11
0.247093
21
0.186241
0
LINE
8
BLACK
6
CONTINUOUS
10
0.247093
20
0.186241
11
0.245934
21
0.184587
0
LINE
8
BLACK
6
CONTINUOUS
10
0.245934
20
0.184587
11
0.243983
21
0.184064
0
LINE
8
BLACK
6
CONTINUOUS
10
0.243983
20
0.184064
11
0.242153
21
0.184918
0
LINE
8
BLACK
6
CONTINUOUS
10
0.242153
20
0.184918
11
0.240617
21
0.186454
0
LINE
8
BLACK
6
CONTINUOUS
10
0.240617
20
0.186454
11
0.237919
21
0.187802
0
LINE
8
BLACK
6
CONTINUOUS
10
0.237919
20
0.187802
11
0.22994
21
0.187802
0
LINE
8
BLACK
6
CONTINUOUS
10
0.22994
20
0.187802
11
0.227242
21
0.186454
0
LINE
8
BLACK
6
CONTINUOUS
10
0.227242
20
0.186454
11
0.226045
21
0.185257
0
LINE
8
BLACK
6
CONTINUOUS
10
0.226045
20
0.185257
11
0.224696
21
0.182559
0
LINE
8
BLACK
6
CONTINUOUS
10
0.224696
20
0.182559
11
0.224696
21
0.179986
0
LINE
8
BLACK
6
CONTINUOUS
10
0.224696
20
0.179986
11
0.226199
21
0.175477
0
LINE
8
BLACK
6
CONTINUOUS
10
0.226199
20
0.175477
11
0.248203
21
0.153473
0
LINE
8
BLACK
6
CONTINUOUS
10
0.248203
20
0.153473
11
0.248573
21
0.152945
0
LINE
8
BLACK
6
CONTINUOUS
10
0.248573
20
0.152945
11
0.248673
21
0.152861
0
LINE
8
BLACK
6
CONTINUOUS
10
0.248673
20
0.152861
11
0.248686
21
0.152783
0
LINE
8
BLACK
6
CONTINUOUS
10
0.248686
20
0.152783
11
0.248792
21
0.152633
0
LINE
8
BLACK
6
CONTINUOUS
10
0.248792
20
0.152633
11
0.248869
21
0.151747
0
LINE
8
BLACK
6
CONTINUOUS
10
0.248869
20
0.151747
11
0.249023
21
0.150872
0
LINE
8
BLACK
6
CONTINUOUS
10
0.249023
20
0.150872
11
0.248956
21
0.150755
0
LINE
8
BLACK
6
CONTINUOUS
10
0.248956
20
0.150755
11
0.248968
21
0.150621
0
LINE
8
BLACK
6
CONTINUOUS
10
0.248968
20
0.150621
11
0.248458
21
0.149893
0
LINE
8
BLACK
6
CONTINUOUS
10
0.248458
20
0.149893
11
0.248013
21
0.149123
0
LINE
8
BLACK
6
CONTINUOUS
10
0.248013
20
0.149123
11
0.247887
21
0.149077
0
LINE
8
BLACK
6
CONTINUOUS
10
0.247887
20
0.149077
11
0.247809
21
0.148966
0
LINE
8
BLACK
6
CONTINUOUS
10
0.247809
20
0.148966
11
0.246951
21
0.148736
0
LINE
8
BLACK
6
CONTINUOUS
10
0.246951
20
0.148736
11
0.246115
21
0.148432
0
LINE
8
BLACK
6
CONTINUOUS
10
0.246115
20
0.148432
11
0.221744
21
0.148432
0
LINE
8
BLACK
6
CONTINUOUS
10
0.221744
20
0.148432
11
0.220734
21
0.14861
0
LINE
8
BLACK
6
CONTINUOUS
10
0.220734
20
0.14861
11
0.219186
21
0.149909
0
LINE
8
BLACK
6
CONTINUOUS
10
0.219186
20
0.149909
11
0.218836
21
0.151898
0
LINE
8
BLACK
6
CONTINUOUS
10
0.218836
20
0.151898
11
0.219846
21
0.153647
0
LINE
8
BLACK
6
CONTINUOUS
10
0.219846
20
0.153647
11
0.221744
21
0.154338
0
LINE
8
BLACK
6
CONTINUOUS
10
0.221744
20
0.154338
11
0.238987
21
0.154338
0
LINE
8
BLACK
6
CONTINUOUS
10
0.238987
20
0.154338
11
0.22153
21
0.171794
0
LINE
8
BLACK
6
CONTINUOUS
10
0.22153
20
0.171794
11
0.220942
21
0.172634
0
LINE
8
BLACK
6
CONTINUOUS
10
0.220942
20
0.172634
11
0.220927
21
0.17281
0
LINE
8
BLACK
6
CONTINUOUS
10
0.220927
20
0.17281
11
0.220817
21
0.172949
0
LINE
8
BLACK
6
CONTINUOUS
10
0.220817
20
0.172949
11
0.218942
21
0.178573
0
LINE
8
BLACK
6
CONTINUOUS
10
0.218942
20
0.178573
11
0.218813
21
0.179446
0
LINE
8
BLACK
6
CONTINUOUS
10
0.218813
20
0.179446
11
0.218791
21
0.179507
0
LINE
8
BLACK
6
CONTINUOUS
10
0.218791
20
0.179507
11
0.218791
21
0.183256
0
LINE
8
BLACK
6
CONTINUOUS
10
0.218791
20
0.183256
11
0.218969
21
0.184266
0
LINE
8
BLACK
6
CONTINUOUS
10
0.218969
20
0.184266
11
0.219082
21
0.184401
0
LINE
8
BLACK
6
CONTINUOUS
10
0.219082
20
0.184401
11
0.219102
21
0.184577
0
LINE
8
BLACK
6
CONTINUOUS
10
0.219102
20
0.184577
11
0.220977
21
0.188326
0
LINE
8
BLACK
6
CONTINUOUS
10
0.220977
20
0.188326
11
0.221503
21
0.189035
0
LINE
8
BLACK
6
CONTINUOUS
10
0.221503
20
0.189035
11
0.22153
21
0.189094
0
LINE
8
BLACK
6
CONTINUOUS
10
0.22153
20
0.189094
11
0.223405
21
0.190968
0
LINE
8
BLACK
6
CONTINUOUS
10
0.223405
20
0.190968
11
0.224128
21
0.191475
0
LINE
8
BLACK
6
CONTINUOUS
10
0.224128
20
0.191475
11
0.224173
21
0.191521
0
LINE
8
BLACK
6
CONTINUOUS
10
0.224173
20
0.191521
11
0.227922
21
0.193396
0
LINE
8
BLACK
6
CONTINUOUS
10
0.227922
20
0.193396
11
0.228905
21
0.193689
0
LINE
8
BLACK
6
CONTINUOUS
10
0.228905
20
0.193689
11
0.229077
21
0.193648
0
LINE
8
BLACK
6
CONTINUOUS
10
0.229077
20
0.193648
11
0.229243
21
0.193708
0
LINE
8
BLACK
6
CONTINUOUS
10
0.229243
20
0.193708
11
0.238616
21
0.193708
0
LINE
8
BLACK
6
CONTINUOUS
10
0.238616
20
0.193708
11
0.239626
21
0.19353
0
LINE
8
BLACK
6
CONTINUOUS
10
0.271357
20
0.193555
11
0.271421
21
0.193556
0
LINE
8
BLACK
6
CONTINUOUS
10
0.271421
20
0.193556
11
0.277045
21
0.191682
0
LINE
8
BLACK
6
CONTINUOUS
10
0.277045
20
0.191682
11
0.277947
21
0.191193
0
LINE
8
BLACK
6
CONTINUOUS
10
0.277947
20
0.191193
11
0.27804
21
0.191043
0
LINE
8
BLACK
6
CONTINUOUS
10
0.27804
20
0.191043
11
0.2782
21
0.190968
0
LINE
8
BLACK
6
CONTINUOUS
10
0.2782
20
0.190968
11
0.281949
21
0.187219
0
LINE
8
BLACK
6
CONTINUOUS
10
0.281949
20
0.187219
11
0.282456
21
0.186496
0
LINE
8
BLACK
6
CONTINUOUS
10
0.282456
20
0.186496
11
0.282502
21
0.186451
0
LINE
8
BLACK
6
CONTINUOUS
10
0.282502
20
0.186451
11
0.284377
21
0.182702
0
LINE
8
BLACK
6
CONTINUOUS
10
0.284377
20
0.182702
11
0.284522
21
0.182213
0
LINE
8
BLACK
6
CONTINUOUS
10
0.284522
20
0.182213
11
0.284601
21
0.182097
0
LINE
8
BLACK
6
CONTINUOUS
10
0.284601
20
0.182097
11
0.286475
21
0.174598
0
LINE
8
BLACK
6
CONTINUOUS
10
0.286475
20
0.174598
11
0.286517
21
0.174011
0
LINE
8
BLACK
6
CONTINUOUS
10
0.286517
20
0.174011
11
0.286564
21
0.173882
0
LINE
8
BLACK
6
CONTINUOUS
10
0.286564
20
0.173882
11
0.286564
21
0.168258
0
LINE
8
BLACK
6
CONTINUOUS
10
0.286564
20
0.168258
11
0.286461
21
0.167678
0
LINE
8
BLACK
6
CONTINUOUS
10
0.286461
20
0.167678
11
0.286475
21
0.167542
0
LINE
8
BLACK
6
CONTINUOUS
10
0.286475
20
0.167542
11
0.284601
21
0.160043
0
LINE
8
BLACK
6
CONTINUOUS
10
0.284601
20
0.160043
11
0.284393
21
0.159577
0
LINE
8
BLACK
6
CONTINUOUS
10
0.284393
20
0.159577
11
0.284377
21
0.159438
0
LINE
8
BLACK
6
CONTINUOUS
10
0.284377
20
0.159438
11
0.282502
21
0.155689
0
LINE
8
BLACK
6
CONTINUOUS
10
0.282502
20
0.155689
11
0.281976
21
0.15498
0
LINE
8
BLACK
6
CONTINUOUS
10
0.281976
20
0.15498
11
0.281949
21
0.154922
0
LINE
8
BLACK
6
CONTINUOUS
10
0.281949
20
0.154922
11
0.2782
21
0.151172
0
LINE
8
BLACK
6
CONTINUOUS
10
0.2782
20
0.151172
11
0.27736
21
0.150584
0
LINE
8
BLACK
6
CONTINUOUS
10
0.27736
20
0.150584
11
0.277184
21
0.150568
0
LINE
8
BLACK
6
CONTINUOUS
10
0.277184
20
0.150568
11
0.277045
21
0.150459
0
LINE
8
BLACK
6
CONTINUOUS
10
0.277045
20
0.150459
11
0.271421
21
0.148584
0
LINE
8
BLACK
6
CONTINUOUS
10
0.271421
20
0.148584
11
0.270548
21
0.148454
0
LINE
8
BLACK
6
CONTINUOUS
10
0.270548
20
0.148454
11
0.270487
21
0.148432
0
LINE
8
BLACK
6
CONTINUOUS
10
0.270487
20
0.148432
11
0.266738
21
0.148432
0
LINE
8
BLACK
6
CONTINUOUS
10
0.266738
20
0.148432
11
0.265868
21
0.148586
0
LINE
8
BLACK
6
CONTINUOUS
10
0.265868
20
0.148586
11
0.265804
21
0.148584
0
LINE
8
BLACK
6
CONTINUOUS
10
0.265804
20
0.148584
11
0.26018
21
0.150459
0
LINE
8
BLACK
6
CONTINUOUS
10
0.26018
20
0.150459
11
0.259278
21
0.150947
0
LINE
8
BLACK
6
CONTINUOUS
10
0.259278
20
0.150947
11
0.259186
21
0.151097
0
LINE
8
BLACK
6
CONTINUOUS
10
0.259186
20
0.151097
11
0.259026
21
0.151172
0
LINE
8
BLACK
6
CONTINUOUS
10
0.259026
20
0.151172
11
0.257151
21
0.153047
0
LINE
8
BLACK
6
CONTINUOUS
10
0.257151
20
0.153047
11
0.256563
21
0.153887
0
LINE
8
BLACK
6
CONTINUOUS
10
0.256563
20
0.153887
11
0.256387
21
0.155899
0
LINE
8
BLACK
6
CONTINUOUS
10
0.256387
20
0.155899
11
0.257545
21
0.157553
0
LINE
8
BLACK
6
CONTINUOUS
10
0.257545
20
0.157553
11
0.259496
21
0.158076
0
LINE
8
BLACK
6
CONTINUOUS
10
0.259496
20
0.158076
11
0.261327
21
0.157223
0
LINE
8
BLACK
6
CONTINUOUS
10
0.261327
20
0.157223
11
0.262709
21
0.155841
0
LINE
8
BLACK
6
CONTINUOUS
10
0.262709
20
0.155841
11
0.267217
21
0.154338
0
LINE
8
BLACK
6
CONTINUOUS
10
0.267217
20
0.154338
11
0.270008
21
0.154338
0
LINE
8
BLACK
6
CONTINUOUS
10
0.270008
20
0.154338
11
0.274517
21
0.155841
0
LINE
8
BLACK
6
CONTINUOUS
10
0.274517
20
0.155841
11
0.277434
21
0.158759
0
LINE
8
BLACK
6
CONTINUOUS
10
0.277434
20
0.158759
11
0.27895
21
0.16179
0
LINE
8
BLACK
6
CONTINUOUS
10
0.27895
20
0.16179
11
0.280658
21
0.168622
0
LINE
8
BLACK
6
CONTINUOUS
10
0.280658
20
0.168622
11
0.280658
21
0.173519
0
LINE
8
BLACK
6
CONTINUOUS
10
0.280658
20
0.173519
11
0.27895
21
0.180351
0
LINE
8
BLACK
6
CONTINUOUS
10
0.27895
20
0.180351
11
0.277434
21
0.183382
0
LINE
8
BLACK
6
CONTINUOUS
10
0.277434
20
0.183382
11
0.274517
21
0.1863
0
LINE
8
BLACK
6
CONTINUOUS
10
0.274517
20
0.1863
11
0.270008
21
0.187802
0
LINE
8
BLACK
6
CONTINUOUS
10
0.270008
20
0.187802
11
0.267217
21
0.187802
0
LINE
8
BLACK
6
CONTINUOUS
10
0.267217
20
0.187802
11
0.262709
21
0.1863
0
LINE
8
BLACK
6
CONTINUOUS
10
0.262709
20
0.1863
11
0.261327
21
0.184918
0
LINE
8
BLACK
6
CONTINUOUS
10
0.261327
20
0.184918
11
0.260487
21
0.18433
0
LINE
8
BLACK
6
CONTINUOUS
10
0.260487
20
0.18433
11
0.258475
21
0.184153
0
LINE
8
BLACK
6
CONTINUOUS
10
0.258475
20
0.184153
11
0.25682
21
0.185312
0
LINE
8
BLACK
6
CONTINUOUS
10
0.25682
20
0.185312
11
0.256297
21
0.187263
0
LINE
8
BLACK
6
CONTINUOUS
10
0.256297
20
0.187263
11
0.257151
21
0.189094
0
LINE
8
BLACK
6
CONTINUOUS
10
0.257151
20
0.189094
11
0.259026
21
0.190968
0
LINE
8
BLACK
6
CONTINUOUS
10
0.259026
20
0.190968
11
0.259866
21
0.191556
0
LINE
8
BLACK
6
CONTINUOUS
10
0.259866
20
0.191556
11
0.260042
21
0.191572
0
LINE
8
BLACK
6
CONTINUOUS
10
0.260042
20
0.191572
11
0.26018
21
0.191682
0
LINE
8
BLACK
6
CONTINUOUS
10
0.26018
20
0.191682
11
0.265804
21
0.193556
0
LINE
8
BLACK
6
CONTINUOUS
10
0.265804
20
0.193556
11
0.266677
21
0.193686
0
LINE
8
BLACK
6
CONTINUOUS
10
0.266677
20
0.193686
11
0.266738
21
0.193708
0
LINE
8
BLACK
6
CONTINUOUS
10
0.266738
20
0.193708
11
0.270487
21
0.193708
0
LINE
8
BLACK
6
CONTINUOUS
10
0.270487
20
0.193708
11
0.271357
21
0.193555
0
LINE
8
BLACK
6
CONTINUOUS
10
-0.136302
20
0.210214
11
-0.134944
21
0.210042
0
LINE
8
BLACK
6
CONTINUOUS
10
-0.134944
20
0.210042
11
-0.13491
21
0.210014
0
LINE
8
BLACK
6
CONTINUOUS
10
-0.13491
20
0.210014
11
-0.134867
21
0.210008
0
LINE
8
BLACK
6
CONTINUOUS
10
-0.134867
20
0.210008
11
-0.133833
21
0.209112
0
LINE
8
BLACK
6
CONTINUOUS
10
-0.133833
20
0.209112
11
-0.132784
21
0.208233
0
LINE
8
BLACK
6
CONTINUOUS
10
-0.132784
20
0.208233
11
-0.128297
21
0.201503
0
LINE
8
BLACK
6
CONTINUOUS
10
-0.128297
20
0.201503
11
-0.124459
21
0.197664
0
LINE
8
BLACK
6
CONTINUOUS
10
-0.124459
20
0.197664
11
-0.120422
21
0.195646
0
LINE
8
BLACK
6
CONTINUOUS
10
-0.120422
20
0.195646
11
-0.119253
21
0.194835
0
LINE
8
BLACK
6
CONTINUOUS
10
-0.119253
20
0.194835
11
-0.117814
21
0.192413
0
LINE
8
BLACK
6
CONTINUOUS
10
-0.117814
20
0.192413
11
-0.117914
21
0.189597
0
LINE
8
BLACK
6
CONTINUOUS
10
-0.117914
20
0.189597
11
-0.119519
21
0.187282
0
LINE
8
BLACK
6
CONTINUOUS
10
-0.119519
20
0.187282
11
-0.122122
21
0.186203
0
LINE
8
BLACK
6
CONTINUOUS
10
-0.122122
20
0.186203
11
-0.124894
21
0.186702
0
LINE
8
BLACK
6
CONTINUOUS
10
-0.124894
20
0.186702
11
-0.129656
21
0.189083
0
LINE
8
BLACK
6
CONTINUOUS
10
-0.129656
20
0.189083
11
-0.130826
21
0.189894
0
LINE
8
BLACK
6
CONTINUOUS
10
-0.130826
20
0.189894
11
-0.130874
21
0.189975
0
LINE
8
BLACK
6
CONTINUOUS
10
-0.130874
20
0.189975
11
-0.130956
21
0.19002
0
LINE
8
BLACK
6
CONTINUOUS
10
-0.130956
20
0.19002
11
-0.131944
21
0.191008
0
LINE
8
BLACK
6
CONTINUOUS
10
-0.131944
20
0.191008
11
-0.131944
21
0.16046
0
LINE
8
BLACK
6
CONTINUOUS
10
-0.131944
20
0.16046
11
-0.122658
21
0.16046
0
LINE
8
BLACK
6
CONTINUOUS
10
-0.122658
20
0.16046
11
-0.12125
21
0.160257
0
LINE
8
BLACK
6
CONTINUOUS
10
-0.12125
20
0.160257
11
-0.11888
21
0.158734
0
LINE
8
BLACK
6
CONTINUOUS
10
-0.11888
20
0.158734
11
-0.117709
21
0.156171
0
LINE
8
BLACK
6
CONTINUOUS
10
-0.117709
20
0.156171
11
-0.11811
21
0.153383
0
LINE
8
BLACK
6
CONTINUOUS
10
-0.11811
20
0.153383
11
-0.119955
21
0.151254
0
LINE
8
BLACK
6
CONTINUOUS
10
-0.119955
20
0.151254
11
-0.122658
21
0.15046
0
LINE
8
BLACK
6
CONTINUOUS
10
-0.122658
20
0.15046
11
-0.15123
21
0.15046
0
LINE
8
BLACK
6
CONTINUOUS
10
-0.15123
20
0.15046
11
-0.152639
21
0.150662
0
LINE
8
BLACK
6
CONTINUOUS
10
-0.152639
20
0.150662
11
-0.155009
21
0.152186
0
LINE
8
BLACK
6
CONTINUOUS
10
-0.155009
20
0.152186
11
-0.156179
21
0.154748
0
LINE
8
BLACK
6
CONTINUOUS
10
-0.156179
20
0.154748
11
-0.155778
21
0.157537
0
LINE
8
BLACK
6
CONTINUOUS
10
-0.155778
20
0.157537
11
-0.153933
21
0.159666
0
LINE
8
BLACK
6
CONTINUOUS
10
-0.153933
20
0.159666
11
-0.15123
21
0.16046
0
LINE
8
BLACK
6
CONTINUOUS
10
-0.15123
20
0.16046
11
-0.141944
21
0.16046
0
LINE
8
BLACK
6
CONTINUOUS
10
-0.141944
20
0.16046
11
-0.141944
21
0.20546
0
LINE
8
BLACK
6
CONTINUOUS
10
-0.141944
20
0.20546
11
-0.141763
21
0.206717
0
LINE
8
BLACK
6
CONTINUOUS
10
-0.141763
20
0.206717
11
-0.141765
21
0.206788
0
LINE
8
BLACK
6
CONTINUOUS
10
-0.141765
20
0.206788
11
-0.14175
21
0.206812
0
LINE
8
BLACK
6
CONTINUOUS
10
-0.14175
20
0.206812
11
-0.141742
21
0.206869
0
LINE
8
BLACK
6
CONTINUOUS
10
-0.141742
20
0.206869
11
-0.141001
21
0.208021
0
LINE
8
BLACK
6
CONTINUOUS
10
-0.141001
20
0.208021
11
-0.140281
21
0.209183
0
LINE
8
BLACK
6
CONTINUOUS
10
-0.140281
20
0.209183
11
-0.140242
21
0.209202
0
LINE
8
BLACK
6
CONTINUOUS
10
-0.140242
20
0.209202
11
-0.140218
21
0.209239
0
LINE
8
BLACK
6
CONTINUOUS
10
-0.140218
20
0.209239
11
-0.138974
21
0.209807
0
LINE
8
BLACK
6
CONTINUOUS
10
-0.138974
20
0.209807
11
-0.137739
21
0.210396
0
LINE
8
BLACK
6
CONTINUOUS
10
-0.137739
20
0.210396
11
-0.137695
21
0.210391
0
LINE
8
BLACK
6
CONTINUOUS
10
-0.137695
20
0.210391
11
-0.137656
21
0.210409
0
LINE
8
BLACK
6
CONTINUOUS
10
-0.137656
20
0.210409
11
-0.136302
21
0.210214
0
LINE
8
BLACK
6
CONTINUOUS
10
-0.0879165
20
0.210257
11
-0.0878376
21
0.210207
0
LINE
8
BLACK
6
CONTINUOUS
10
-0.0878376
20
0.210207
11
-0.087744
21
0.210203
0
LINE
8
BLACK
6
CONTINUOUS
10
-0.087744
20
0.210203
11
-0.0806011
21
0.207822
0
LINE
8
BLACK
6
CONTINUOUS
10
-0.0806011
20
0.207822
11
-0.0793288
21
0.207185
0
LINE
8
BLACK
6
CONTINUOUS
10
-0.0793288
20
0.207185
11
-0.0790446
21
0.206832
0
LINE
8
BLACK
6
CONTINUOUS
10
-0.0790446
20
0.206832
11
-0.0786467
21
0.206615
0
LINE
8
BLACK
6
CONTINUOUS
10
-0.0786467
20
0.206615
11
-0.0738848
21
0.201853
0
LINE
8
BLACK
6
CONTINUOUS
10
-0.0738848
20
0.201853
11
-0.0730319
21
0.200713
0
LINE
8
BLACK
6
CONTINUOUS
10
-0.0730319
20
0.200713
11
-0.073012
21
0.200622
0
LINE
8
BLACK
6
CONTINUOUS
10
-0.073012
20
0.200622
11
-0.0729482
21
0.200553
0
LINE
8
BLACK
6
CONTINUOUS
10
-0.0729482
20
0.200553
11
-0.0705672
21
0.195791
0
LINE
8
BLACK
6
CONTINUOUS
10
-0.0705672
20
0.195791
11
-0.0702774
21
0.194919
0
LINE
8
BLACK
6
CONTINUOUS
10
-0.0702774
20
0.194919
11
-0.0701887
21
0.194768
0
LINE
8
BLACK
6
CONTINUOUS
10
-0.0701887
20
0.194768
11
-0.0678077
21
0.185244
0
LINE
8
BLACK
6
CONTINUOUS
10
-0.0678077
20
0.185244
11
-0.0676967
21
0.184162
0
LINE
8
BLACK
6
CONTINUOUS
10
-0.0676967
20
0.184162
11
-0.0676584
21
0.184031
0
LINE
8
BLACK
6
CONTINUOUS
10
-0.0676584
20
0.184031
11
-0.0676584
21
0.176889
0
LINE
8
BLACK
6
CONTINUOUS
10
-0.0676584
20
0.176889
11
-0.0678133
21
0.175812
0
LINE
8
BLACK
6
CONTINUOUS
10
-0.0678133
20
0.175812
11
-0.0678077
21
0.175676
0
LINE
8
BLACK
6
CONTINUOUS
10
-0.0678077
20
0.175676
11
-0.0701887
21
0.166152
0
LINE
8
BLACK
6
CONTINUOUS
10
-0.0701887
20
0.166152
11
-0.0705362
21
0.165301
0
LINE
8
BLACK
6
CONTINUOUS
10
-0.0705362
20
0.165301
11
-0.0705672
21
0.165129
0
LINE
8
BLACK
6
CONTINUOUS
10
-0.0705672
20
0.165129
11
-0.0729482
21
0.160367
0
LINE
8
BLACK
6
CONTINUOUS
10
-0.0729482
20
0.160367
11
-0.0737594
21
0.159197
0
LINE
8
BLACK
6
CONTINUOUS
10
-0.0737594
20
0.159197
11
-0.0738399
21
0.159149
0
LINE
8
BLACK
6
CONTINUOUS
10
-0.0738399
20
0.159149
11
-0.0738848
21
0.159067
0
LINE
8
BLACK
6
CONTINUOUS
10
-0.0738848
20
0.159067
11
-0.0786467
21
0.154305
0
LINE
8
BLACK
6
CONTINUOUS
10
-0.0786467
20
0.154305
11
-0.079786
21
0.153452
0
LINE
8
BLACK
6
CONTINUOUS
10
-0.079786
20
0.153452
11
-0.0802289
21
0.153356
0
LINE
8
BLACK
6
CONTINUOUS
10
-0.0802289
20
0.153356
11
-0.0806011
21
0.153097
0
LINE
8
BLACK
6
CONTINUOUS
10
-0.0806011
20
0.153097
11
-0.087744
21
0.150716
0
LINE
8
BLACK
6
CONTINUOUS
10
-0.087744
20
0.150716
11
-0.0891444
21
0.150463
0
LINE
8
BLACK
6
CONTINUOUS
10
-0.0891444
20
0.150463
11
-0.0892352
21
0.150486
0
LINE
8
BLACK
6
CONTINUOUS
10
-0.0892352
20
0.150486
11
-0.0893251
21
0.15046
0
LINE
8
BLACK
6
CONTINUOUS
10
-0.0893251
20
0.15046
11
-0.094087
21
0.15046
0
LINE
8
BLACK
6
CONTINUOUS
10
-0.094087
20
0.15046
11
-0.0954957
21
0.150662
0
LINE
8
BLACK
6
CONTINUOUS
10
-0.0954957
20
0.150662
11
-0.0955745
21
0.150713
0
LINE
8
BLACK
6
CONTINUOUS
10
-0.0955745
20
0.150713
11
-0.0956681
21
0.150716
0
LINE
8
BLACK
6
CONTINUOUS
10
-0.0956681
20
0.150716
11
-0.102811
21
0.153097
0
LINE
8
BLACK
6
CONTINUOUS
10
-0.102811
20
0.153097
11
-0.104083
21
0.153735
0
LINE
8
BLACK
6
CONTINUOUS
10
-0.104083
20
0.153735
11
-0.104368
21
0.154088
0
LINE
8
BLACK
6
CONTINUOUS
10
-0.104368
20
0.154088
11
-0.104765
21
0.154305
0
LINE
8
BLACK
6
CONTINUOUS
10
-0.104765
20
0.154305
11
-0.107146
21
0.156686
0
LINE
8
BLACK
6
CONTINUOUS
10
-0.107146
20
0.156686
11
-0.107999
21
0.157826
0
LINE
8
BLACK
6
CONTINUOUS
10
-0.107999
20
0.157826
11
-0.108598
21
0.160579
0
LINE
8
BLACK
6
CONTINUOUS
10
-0.108598
20
0.160579
11
-0.107614
21
0.163218
0
LINE
8
BLACK
6
CONTINUOUS
10
-0.107614
20
0.163218
11
-0.105358
21
0.164907
0
LINE
8
BLACK
6
CONTINUOUS
10
-0.105358
20
0.164907
11
-0.102548
21
0.165108
0
LINE
8
BLACK
6
CONTINUOUS
10
-0.102548
20
0.165108
11
-0.100075
21
0.163757
0
LINE
8
BLACK
6
CONTINUOUS
10
-0.100075
20
0.163757
11
-0.098529
21
0.162211
0
LINE
8
BLACK
6
CONTINUOUS
10
-0.098529
20
0.162211
11
-0.0932756
21
0.16046
0
LINE
8
BLACK
6
CONTINUOUS
10
-0.0932756
20
0.16046
11
-0.0901365
21
0.16046
0
LINE
8
BLACK
6
CONTINUOUS
10
-0.0901365
20
0.16046
11
-0.0848831
21
0.162211
0
LINE
8
BLACK
6
CONTINUOUS
10
-0.0848831
20
0.162211
11
-0.0815296
21
0.165565
0
LINE
8
BLACK
6
CONTINUOUS
10
-0.0815296
20
0.165565
11
-0.079757
21
0.16911
0
LINE
8
BLACK
6
CONTINUOUS
10
-0.079757
20
0.16911
11
-0.0776584
21
0.177504
0
LINE
8
BLACK
6
CONTINUOUS
10
-0.0776584
20
0.177504
11
-0.0776584
21
0.183416
0
LINE
8
BLACK
6
CONTINUOUS
10
-0.0776584
20
0.183416
11
-0.079757
21
0.19181
0
LINE
8
BLACK
6
CONTINUOUS
10
-0.079757
20
0.19181
11
-0.0815296
21
0.195355
0
LINE
8
BLACK
6
CONTINUOUS
10
-0.0815296
20
0.195355
11
-0.0848832
21
0.198709
0
LINE
8
BLACK
6
CONTINUOUS
10
-0.0848832
20
0.198709
11
-0.0901365
21
0.20046
0
LINE
8
BLACK
6
CONTINUOUS
10
-0.0901365
20
0.20046
11
-0.0932756
21
0.20046
0
LINE
8
BLACK
6
CONTINUOUS
10
-0.0932756
20
0.20046
11
-0.098529
21
0.198709
0
LINE
8
BLACK
6
CONTINUOUS
10
-0.098529
20
0.198709
11
-0.100075
21
0.197162
0
LINE
8
BLACK
6
CONTINUOUS
10
-0.100075
20
0.197162
11
-0.101215
21
0.19631
0
LINE
8
BLACK
6
CONTINUOUS
10
-0.101215
20
0.19631
11
-0.103968
21
0.195711
0
LINE
8
BLACK
6
CONTINUOUS
10
-0.103968
20
0.195711
11
-0.106607
21
0.196695
0
LINE
8
BLACK
6
CONTINUOUS
10
-0.106607
20
0.196695
11
-0.108296
21
0.198951
0
LINE
8
BLACK
6
CONTINUOUS
10
-0.108296
20
0.198951
11
-0.108497
21
0.201761
0
LINE
8
BLACK
6
CONTINUOUS
10
-0.108497
20
0.201761
11
-0.107146
21
0.204234
0
LINE
8
BLACK
6
CONTINUOUS
10
-0.107146
20
0.204234
11
-0.104765
21
0.206615
0
LINE
8
BLACK
6
CONTINUOUS
10
-0.104765
20
0.206615
11
-0.103626
21
0.207467
0
LINE
8
BLACK
6
CONTINUOUS
10
-0.103626
20
0.207467
11
-0.103183
21
0.207564
0
LINE
8
BLACK
6
CONTINUOUS
10
-0.103183
20
0.207564
11
-0.102811
21
0.207822
0
LINE
8
BLACK
6
CONTINUOUS
10
-0.102811
20
0.207822
11
-0.0956681
21
0.210203
0
LINE
8
BLACK
6
CONTINUOUS
10
-0.0956681
20
0.210203
11
-0.0942677
21
0.210457
0
LINE
8
BLACK
6
CONTINUOUS
10
-0.0942677
20
0.210457
11
-0.0941769
21
0.210434
0
LINE
8
BLACK
6
CONTINUOUS
10
-0.0941769
20
0.210434
11
-0.094087
21
0.21046
0
LINE
8
BLACK
6
CONTINUOUS
10
-0.094087
20
0.21046
11
-0.0893251
21
0.21046
0
LINE
8
BLACK
6
CONTINUOUS
10
-0.0893251
20
0.21046
11
-0.0879165
21
0.210257
0
LINE
8
BLACK
6
CONTINUOUS
10
-0.0491528
20
0.210008
11
-0.0470236
21
0.208163
0
LINE
8
BLACK
6
CONTINUOUS
10
-0.0470236
20
0.208163
11
-0.0462298
21
0.20546
0
LINE
8
BLACK
6
CONTINUOUS
10
-0.0462298
20
0.20546
11
-0.0462298
21
0.15546
0
LINE
8
BLACK
6
CONTINUOUS
10
-0.0462298
20
0.15546
11
-0.0464324
21
0.154051
0
LINE
8
BLACK
6
CONTINUOUS
10
-0.0464324
20
0.154051
11
-0.0479556
21
0.151681
0
LINE
8
BLACK
6
CONTINUOUS
10
-0.0479556
20
0.151681
11
-0.0505183
21
0.150511
0
LINE
8
BLACK
6
CONTINUOUS
10
-0.0505183
20
0.150511
11
-0.0533069
21
0.150912
0
LINE
8
BLACK
6
CONTINUOUS
10
-0.0533069
20
0.150912
11
-0.0554361
21
0.152757
0
LINE
8
BLACK
6
CONTINUOUS
10
-0.0554361
20
0.152757
11
-0.0562298
21
0.15546
0
LINE
8
BLACK
6
CONTINUOUS
10
-0.0562298
20
0.15546
11
-0.0562298
21
0.20546
0
LINE
8
BLACK
6
CONTINUOUS
10
-0.0562298
20
0.20546
11
-0.0560273
21
0.206869
0
LINE
8
BLACK
6
CONTINUOUS
10
-0.0560273
20
0.206869
11
-0.0545041
21
0.209239
0
LINE
8
BLACK
6
CONTINUOUS
10
-0.0545041
20
0.209239
11
-0.0519414
21
0.210409
0
LINE
8
BLACK
6
CONTINUOUS
10
-0.0519414
20
0.210409
11
-0.0491528
21
0.210008
0
LINE
8
BLACK
6
CONTINUOUS
10
0.165499
20
0.199899
11
0.166191
21
0.198228
0
LINE
8
BLACK
6
CONTINUOUS
10
0.166191
20
0.198228
11
0.165499
21
0.196558
0
LINE
8
BLACK
6
CONTINUOUS
10
0.165499
20
0.196558
11
0.163829
21
0.195866
0
LINE
8
BLACK
6
CONTINUOUS
10
0.163829
20
0.195866
11
0.143258
21
0.195866
0
LINE
8
BLACK
6
CONTINUOUS
10
0.143258
20
0.195866
11
0.141587
21
0.196558
0
LINE
8
BLACK
6
CONTINUOUS
10
0.141587
20
0.196558
11
0.140896
21
0.198228
0
LINE
8
BLACK
6
CONTINUOUS
10
0.140896
20
0.198228
11
0.141587
21
0.199899
0
LINE
8
BLACK
6
CONTINUOUS
10
0.141587
20
0.199899
11
0.143258
21
0.200591
0
LINE
8
BLACK
6
CONTINUOUS
10
0.143258
20
0.200591
11
0.163829
21
0.200591
0
LINE
8
BLACK
6
CONTINUOUS
10
0.163829
20
0.200591
11
0.165499
21
0.199899
0
LINE
8
BLACK
6
CONTINUOUS
10
0.134333
20
0.431697
11
0.134957
21
0.431697
0
LINE
8
BLACK
6
CONTINUOUS
10
0.134957
20
0.431697
11
0.135461
21
0.431331
0
LINE
8
BLACK
6
CONTINUOUS
10
0.135461
20
0.431331
11
0.136054
21
0.431138
0
LINE
8
BLACK
6
CONTINUOUS
10
0.136054
20
0.431138
11
0.136421
21
0.430633
0
LINE
8
BLACK
6
CONTINUOUS
10
0.136421
20
0.430633
11
0.136925
21
0.430267
0
LINE
8
BLACK
6
CONTINUOUS
10
0.136925
20
0.430267
11
0.137118
21
0.429674
0
LINE
8
BLACK
6
CONTINUOUS
10
0.137118
20
0.429674
11
0.137484
21
0.429169
0
LINE
8
BLACK
6
CONTINUOUS
10
0.137484
20
0.429169
11
0.137484
21
0.428546
0
LINE
8
BLACK
6
CONTINUOUS
10
0.137484
20
0.428546
11
0.137677
21
0.427953
0
LINE
8
BLACK
6
CONTINUOUS
10
0.137677
20
0.427953
11
0.137677
21
0.222047
0
LINE
8
BLACK
6
CONTINUOUS
10
0.137677
20
0.222047
11
0.137484
21
0.221454
0
LINE
8
BLACK
6
CONTINUOUS
10
0.137484
20
0.221454
11
0.137484
21
0.220831
0
LINE
8
BLACK
6
CONTINUOUS
10
0.137484
20
0.220831
11
0.137118
21
0.220326
0
LINE
8
BLACK
6
CONTINUOUS
10
0.137118
20
0.220326
11
0.136925
21
0.219733
0
LINE
8
BLACK
6
CONTINUOUS
10
0.136925
20
0.219733
11
0.136421
21
0.219367
0
LINE
8
BLACK
6
CONTINUOUS
10
0.136421
20
0.219367
11
0.136054
21
0.218862
0
LINE
8
BLACK
6
CONTINUOUS
10
0.136054
20
0.218862
11
0.135461
21
0.218669
0
LINE
8
BLACK
6
CONTINUOUS
10
0.135461
20
0.218669
11
0.134957
21
0.218303
0
LINE
8
BLACK
6
CONTINUOUS
10
0.134957
20
0.218303
11
0.134333
21
0.218303
0
LINE
8
BLACK
6
CONTINUOUS
10
0.134333
20
0.218303
11
0.13374
21
0.21811
0
LINE
8
BLACK
6
CONTINUOUS
10
0.13374
20
0.21811
11
-0.0631102
21
0.21811
0
LINE
8
BLACK
6
CONTINUOUS
10
-0.0631102
20
0.21811
11
-0.0637033
21
0.218303
0
LINE
8
BLACK
6
CONTINUOUS
10
-0.0637033
20
0.218303
11
-0.0643269
21
0.218303
0
LINE
8
BLACK
6
CONTINUOUS
10
-0.0643269
20
0.218303
11
-0.0648313
21
0.218669
0
LINE
8
BLACK
6
CONTINUOUS
10
-0.0648313
20
0.218669
11
-0.0654244
21
0.218862
0
LINE
8
BLACK
6
CONTINUOUS
10
-0.0654244
20
0.218862
11
-0.0657909
21
0.219367
0
LINE
8
BLACK
6
CONTINUOUS
10
-0.0657909
20
0.219367
11
-0.0662954
21
0.219733
0
LINE
8
BLACK
6
CONTINUOUS
10
-0.0662954
20
0.219733
11
-0.0664881
21
0.220326
0
LINE
8
BLACK
6
CONTINUOUS
10
-0.0664881
20
0.220326
11
-0.0668546
21
0.220831
0
LINE
8
BLACK
6
CONTINUOUS
10
-0.0668546
20
0.220831
11
-0.0668546
21
0.221454
0
LINE
8
BLACK
6
CONTINUOUS
10
-0.0668546
20
0.221454
11
-0.0670472
21
0.222047
0
LINE
8
BLACK
6
CONTINUOUS
10
-0.0670472
20
0.222047
11
-0.0670472
21
0.427953
0
LINE
8
BLACK
6
CONTINUOUS
10
-0.0670472
20
0.427953
11
-0.0668546
21
0.428546
0
LINE
8
BLACK
6
CONTINUOUS
10
-0.0668546
20
0.428546
11
-0.0668546
21
0.429169
0
LINE
8
BLACK
6
CONTINUOUS
10
-0.0668546
20
0.429169
11
-0.0664881
21
0.429674
0
LINE
8
BLACK
6
CONTINUOUS
10
-0.0664881
20
0.429674
11
-0.0662954
21
0.430267
0
LINE
8
BLACK
6
CONTINUOUS
10
-0.0662954
20
0.430267
11
-0.0657909
21
0.430633
0
LINE
8
BLACK
6
CONTINUOUS
10
-0.0657909
20
0.430633
11
-0.0654244
21
0.431138
0
LINE
8
BLACK
6
CONTINUOUS
10
-0.0654244
20
0.431138
11
-0.0648313
21
0.431331
0
LINE
8
BLACK
6
CONTINUOUS
10
-0.0648313
20
0.431331
11
-0.0643269
21
0.431697
0
LINE
8
BLACK
6
CONTINUOUS
10
-0.0643269
20
0.431697
11
-0.0637033
21
0.431697
0
LINE
8
BLACK
6
CONTINUOUS
10
-0.0637033
20
0.431697
11
-0.0631102
21
0.43189
0
LINE
8
BLACK
6
CONTINUOUS
10
-0.0631102
20
0.43189
11
0.13374
21
0.43189
0
LINE
8
BLACK
6
CONTINUOUS
10
0.13374
20
0.43189
11
0.134333
21
0.431697
0
LINE
8
BLACK
6
CONTINUOUS
10
-0.0591732
20
0.424016
11
-0.0591732
21
0.225984
0
LINE
8
BLACK
6
CONTINUOUS
10
-0.0591732
20
0.225984
11
0.129803
21
0.225984
0
LINE
8
BLACK
6
CONTINUOUS
10
0.129803
20
0.225984
11
0.129803
21
0.424016
0
LINE
8
BLACK
6
CONTINUOUS
10
0.129803
20
0.424016
11
-0.0591732
21
0.424016
0
LINE
8
BLACK
6
CONTINUOUS
10
-0.0745756
20
0.22661
11
-0.0731454
21
0.224642
0
LINE
8
BLACK
6
CONTINUOUS
10
-0.0731454
20
0.224642
11
-0.0731454
21
0.222209
0
LINE
8
BLACK
6
CONTINUOUS
10
-0.0731454
20
0.222209
11
-0.0745756
21
0.22024
0
LINE
8
BLACK
6
CONTINUOUS
10
-0.0745756
20
0.22024
11
-0.0768898
21
0.219488
0
LINE
8
BLACK
6
CONTINUOUS
10
-0.0768898
20
0.219488
11
-0.14185
21
0.219488
0
LINE
8
BLACK
6
CONTINUOUS
10
-0.14185
20
0.219488
11
-0.144165
21
0.22024
0
LINE
8
BLACK
6
CONTINUOUS
10
-0.144165
20
0.22024
11
-0.145595
21
0.222209
0
LINE
8
BLACK
6
CONTINUOUS
10
-0.145595
20
0.222209
11
-0.145595
21
0.224642
0
LINE
8
BLACK
6
CONTINUOUS
10
-0.145595
20
0.224642
11
-0.144165
21
0.22661
0
LINE
8
BLACK
6
CONTINUOUS
10
-0.144165
20
0.22661
11
-0.14185
21
0.227362
0
LINE
8
BLACK
6
CONTINUOUS
10
-0.14185
20
0.227362
11
-0.0768898
21
0.227362
0
LINE
8
BLACK
6
CONTINUOUS
10
-0.0768898
20
0.227362
11
-0.0745756
21
0.22661
0
LINE
8
BLACK
6
CONTINUOUS
10
0.566237
20
0.575292
11
0.566929
21
0.573622
0
LINE
8
BLACK
6
CONTINUOUS
10
0.566929
20
0.573622
11
0.566929
21
0.421654
0
LINE
8
BLACK
6
CONTINUOUS
10
0.566929
20
0.421654
11
0.566237
21
0.419983
0
LINE
8
BLACK
6
CONTINUOUS
10
0.566237
20
0.419983
11
0.564567
21
0.419291
0
LINE
8
BLACK
6
CONTINUOUS
10
0.564567
20
0.419291
11
0.485827
21
0.419291
0
LINE
8
BLACK
6
CONTINUOUS
10
0.485827
20
0.419291
11
0.484156
21
0.419983
0
LINE
8
BLACK
6
CONTINUOUS
10
0.484156
20
0.419983
11
0.483465
21
0.421654
0
LINE
8
BLACK
6
CONTINUOUS
10
0.483465
20
0.421654
11
0.483465
21
0.573622
0
LINE
8
BLACK
6
CONTINUOUS
10
0.483465
20
0.573622
11
0.484156
21
0.575292
0
LINE
8
BLACK
6
CONTINUOUS
10
0.484156
20
0.575292
11
0.485827
21
0.575984
0
LINE
8
BLACK
6
CONTINUOUS
10
0.485827
20
0.575984
11
0.487497
21
0.575292
0
LINE
8
BLACK
6
CONTINUOUS
10
0.487497
20
0.575292
11
0.488189
21
0.573622
0
LINE
8
BLACK
6
CONTINUOUS
10
0.488189
20
0.573622
11
0.488189
21
0.424016
0
LINE
8
BLACK
6
CONTINUOUS
10
0.488189
20
0.424016
11
0.562205
21
0.424016
0
LINE
8
BLACK
6
CONTINUOUS
10
0.562205
20
0.424016
11
0.562205
21
0.573622
0
LINE
8
BLACK
6
CONTINUOUS
10
0.562205
20
0.573622
11
0.562897
21
0.575292
0
LINE
8
BLACK
6
CONTINUOUS
10
0.562897
20
0.575292
11
0.564567
21
0.575984
0
LINE
8
BLACK
6
CONTINUOUS
10
0.564567
20
0.575984
11
0.566237
21
0.575292
0
LINE
8
BLACK
6
CONTINUOUS
10
0.502235
20
0.647121
11
0.502404
21
0.647132
0
LINE
8
BLACK
6
CONTINUOUS
10
0.502404
20
0.647132
11
0.503095
21
0.646625
0
LINE
8
BLACK
6
CONTINUOUS
10
0.503095
20
0.646625
11
0.503837
21
0.646196
0
LINE
8
BLACK
6
CONTINUOUS
10
0.503837
20
0.646196
11
0.503895
21
0.646037
0
LINE
8
BLACK
6
CONTINUOUS
10
0.503895
20
0.646037
11
0.504032
21
0.645936
0
LINE
8
BLACK
6
CONTINUOUS
10
0.504032
20
0.645936
11
0.507619
21
0.640555
0
LINE
8
BLACK
6
CONTINUOUS
10
0.507619
20
0.640555
11
0.510823
21
0.637351
0
LINE
8
BLACK
6
CONTINUOUS
10
0.510823
20
0.637351
11
0.514144
21
0.635691
0
LINE
8
BLACK
6
CONTINUOUS
10
0.514144
20
0.635691
11
0.514968
21
0.63508
0
LINE
8
BLACK
6
CONTINUOUS
10
0.514968
20
0.63508
11
0.515771
21
0.633227
0
LINE
8
BLACK
6
CONTINUOUS
10
0.515771
20
0.633227
11
0.515195
21
0.631291
0
LINE
8
BLACK
6
CONTINUOUS
10
0.515195
20
0.631291
11
0.513509
21
0.630178
0
LINE
8
BLACK
6
CONTINUOUS
10
0.513509
20
0.630178
11
0.511503
21
0.630409
0
LINE
8
BLACK
6
CONTINUOUS
10
0.511503
20
0.630409
11
0.507753
21
0.632284
0
LINE
8
BLACK
6
CONTINUOUS
10
0.507753
20
0.632284
11
0.507044
21
0.63281
0
LINE
8
BLACK
6
CONTINUOUS
10
0.507044
20
0.63281
11
0.506986
21
0.632837
0
LINE
8
BLACK
6
CONTINUOUS
10
0.506986
20
0.632837
11
0.504528
21
0.635295
0
LINE
8
BLACK
6
CONTINUOUS
10
0.504528
20
0.635295
11
0.504528
21
0.607881
0
LINE
8
BLACK
6
CONTINUOUS
10
0.504528
20
0.607881
11
0.512823
21
0.607881
0
LINE
8
BLACK
6
CONTINUOUS
10
0.512823
20
0.607881
11
0.513833
21
0.607703
0
LINE
8
BLACK
6
CONTINUOUS
10
0.513833
20
0.607703
11
0.515381
21
0.606405
0
LINE
8
BLACK
6
CONTINUOUS
10
0.515381
20
0.606405
11
0.515731
21
0.604416
0
LINE
8
BLACK
6
CONTINUOUS
10
0.515731
20
0.604416
11
0.514721
21
0.602666
0
LINE
8
BLACK
6
CONTINUOUS
10
0.514721
20
0.602666
11
0.512823
21
0.601976
0
LINE
8
BLACK
6
CONTINUOUS
10
0.512823
20
0.601976
11
0.490326
21
0.601976
0
LINE
8
BLACK
6
CONTINUOUS
10
0.490326
20
0.601976
11
0.489316
21
0.602154
0
LINE
8
BLACK
6
CONTINUOUS
10
0.489316
20
0.602154
11
0.487769
21
0.603452
0
LINE
8
BLACK
6
CONTINUOUS
10
0.487769
20
0.603452
11
0.487418
21
0.605441
0
LINE
8
BLACK
6
CONTINUOUS
10
0.487418
20
0.605441
11
0.488428
21
0.60719
0
LINE
8
BLACK
6
CONTINUOUS
10
0.488428
20
0.60719
11
0.490326
21
0.607881
0
LINE
8
BLACK
6
CONTINUOUS
10
0.490326
20
0.607881
11
0.498622
21
0.607881
0
LINE
8
BLACK
6
CONTINUOUS
10
0.498622
20
0.607881
11
0.498622
21
0.644298
0
LINE
8
BLACK
6
CONTINUOUS
10
0.498622
20
0.644298
11
0.4988
21
0.645308
0
LINE
8
BLACK
6
CONTINUOUS
10
0.4988
20
0.645308
11
0.498909
21
0.645438
0
LINE
8
BLACK
6
CONTINUOUS
10
0.498909
20
0.645438
11
0.498928
21
0.645607
0
LINE
8
BLACK
6
CONTINUOUS
10
0.498928
20
0.645607
11
0.499547
21
0.646199
0
LINE
8
BLACK
6
CONTINUOUS
10
0.499547
20
0.646199
11
0.500098
21
0.646856
0
LINE
8
BLACK
6
CONTINUOUS
10
0.500098
20
0.646856
11
0.500266
21
0.646885
0
LINE
8
BLACK
6
CONTINUOUS
10
0.500266
20
0.646885
11
0.500388
21
0.647002
0
LINE
8
BLACK
6
CONTINUOUS
10
0.500388
20
0.647002
11
0.501244
21
0.647058
0
LINE
8
BLACK
6
CONTINUOUS
10
0.501244
20
0.647058
11
0.502088
21
0.647206
0
LINE
8
BLACK
6
CONTINUOUS
10
0.502088
20
0.647206
11
0.502235
21
0.647121
0
LINE
8
BLACK
6
CONTINUOUS
10
0.550702
20
0.647184
11
0.550831
21
0.647206
0
LINE
8
BLACK
6
CONTINUOUS
10
0.550831
20
0.647206
11
0.550945
21
0.647141
0
LINE
8
BLACK
6
CONTINUOUS
10
0.550945
20
0.647141
11
0.551329
21
0.647073
0
LINE
8
BLACK
6
CONTINUOUS
10
0.551329
20
0.647073
11
0.551916
21
0.64658
0
LINE
8
BLACK
6
CONTINUOUS
10
0.551916
20
0.64658
11
0.552581
21
0.646196
0
LINE
8
BLACK
6
CONTINUOUS
10
0.552581
20
0.646196
11
0.552672
21
0.645946
0
LINE
8
BLACK
6
CONTINUOUS
10
0.552672
20
0.645946
11
0.552876
21
0.645775
0
LINE
8
BLACK
6
CONTINUOUS
10
0.552876
20
0.645775
11
0.553009
21
0.645019
0
LINE
8
BLACK
6
CONTINUOUS
10
0.553009
20
0.645019
11
0.553271
21
0.644298
0
LINE
8
BLACK
6
CONTINUOUS
10
0.553271
20
0.644298
11
0.553271
21
0.604928
0
LINE
8
BLACK
6
CONTINUOUS
10
0.553271
20
0.604928
11
0.553204
21
0.604545
0
LINE
8
BLACK
6
CONTINUOUS
10
0.553204
20
0.604545
11
0.553227
21
0.604416
0
LINE
8
BLACK
6
CONTINUOUS
10
0.553227
20
0.604416
11
0.553161
21
0.604302
0
LINE
8
BLACK
6
CONTINUOUS
10
0.553161
20
0.604302
11
0.553093
21
0.603918
0
LINE
8
BLACK
6
CONTINUOUS
10
0.553093
20
0.603918
11
0.5526
21
0.603331
0
LINE
8
BLACK
6
CONTINUOUS
10
0.5526
20
0.603331
11
0.552217
21
0.602666
0
LINE
8
BLACK
6
CONTINUOUS
10
0.552217
20
0.602666
11
0.551966
21
0.602575
0
LINE
8
BLACK
6
CONTINUOUS
10
0.551966
20
0.602575
11
0.551795
21
0.602371
0
LINE
8
BLACK
6
CONTINUOUS
10
0.551795
20
0.602371
11
0.551039
21
0.602238
0
LINE
8
BLACK
6
CONTINUOUS
10
0.551039
20
0.602238
11
0.550319
21
0.601976
0
LINE
8
BLACK
6
CONTINUOUS
10
0.550319
20
0.601976
11
0.540945
21
0.601976
0
LINE
8
BLACK
6
CONTINUOUS
10
0.540945
20
0.601976
11
0.540075
21
0.602129
0
LINE
8
BLACK
6
CONTINUOUS
10
0.540075
20
0.602129
11
0.540011
21
0.602127
0
LINE
8
BLACK
6
CONTINUOUS
10
0.540011
20
0.602127
11
0.534387
21
0.604002
0
LINE
8
BLACK
6
CONTINUOUS
10
0.534387
20
0.604002
11
0.533485
21
0.60449
0
LINE
8
BLACK
6
CONTINUOUS
10
0.533485
20
0.60449
11
0.533393
21
0.604641
0
LINE
8
BLACK
6
CONTINUOUS
10
0.533393
20
0.604641
11
0.533233
21
0.604715
0
LINE
8
BLACK
6
CONTINUOUS
10
0.533233
20
0.604715
11
0.529483
21
0.608465
0
LINE
8
BLACK
6
CONTINUOUS
10
0.529483
20
0.608465
11
0.528977
21
0.609188
0
LINE
8
BLACK
6
CONTINUOUS
10
0.528977
20
0.609188
11
0.52893
21
0.609232
0
LINE
8
BLACK
6
CONTINUOUS
10
0.52893
20
0.609232
11
0.527055
21
0.612982
0
LINE
8
BLACK
6
CONTINUOUS
10
0.527055
20
0.612982
11
0.52691
21
0.61347
0
LINE
8
BLACK
6
CONTINUOUS
10
0.52691
20
0.61347
11
0.526832
21
0.613586
0
LINE
8
BLACK
6
CONTINUOUS
10
0.526832
20
0.613586
11
0.524957
21
0.621085
0
LINE
8
BLACK
6
CONTINUOUS
10
0.524957
20
0.621085
11
0.524915
21
0.621673
0
LINE
8
BLACK
6
CONTINUOUS
10
0.524915
20
0.621673
11
0.524869
21
0.621801
0
LINE
8
BLACK
6
CONTINUOUS
10
0.524869
20
0.621801
11
0.524869
21
0.627426
0
LINE
8
BLACK
6
CONTINUOUS
10
0.524869
20
0.627426
11
0.524971
21
0.628006
0
LINE
8
BLACK
6
CONTINUOUS
10
0.524971
20
0.628006
11
0.524957
21
0.628142
0
LINE
8
BLACK
6
CONTINUOUS
10
0.524957
20
0.628142
11
0.526832
21
0.635641
0
LINE
8
BLACK
6
CONTINUOUS
10
0.526832
20
0.635641
11
0.527039
21
0.636106
0
LINE
8
BLACK
6
CONTINUOUS
10
0.527039
20
0.636106
11
0.527055
21
0.636245
0
LINE
8
BLACK
6
CONTINUOUS
10
0.527055
20
0.636245
11
0.52893
21
0.639995
0
LINE
8
BLACK
6
CONTINUOUS
10
0.52893
20
0.639995
11
0.529456
21
0.640704
0
LINE
8
BLACK
6
CONTINUOUS
10
0.529456
20
0.640704
11
0.529483
21
0.640762
0
LINE
8
BLACK
6
CONTINUOUS
10
0.529483
20
0.640762
11
0.533233
21
0.644512
0
LINE
8
BLACK
6
CONTINUOUS
10
0.533233
20
0.644512
11
0.534073
21
0.6451
0
LINE
8
BLACK
6
CONTINUOUS
10
0.534073
20
0.6451
11
0.534249
21
0.645115
0
LINE
8
BLACK
6
CONTINUOUS
10
0.534249
20
0.645115
11
0.534387
21
0.645225
0
LINE
8
BLACK
6
CONTINUOUS
10
0.534387
20
0.645225
11
0.540011
21
0.6471
0
LINE
8
BLACK
6
CONTINUOUS
10
0.540011
20
0.6471
11
0.540884
21
0.647229
0
LINE
8
BLACK
6
CONTINUOUS
10
0.540884
20
0.647229
11
0.540945
21
0.647251
0
LINE
8
BLACK
6
CONTINUOUS
10
0.540945
20
0.647251
11
0.550319
21
0.647251
0
LINE
8
BLACK
6
CONTINUOUS
10
0.550319
20
0.647251
11
0.550702
21
0.647184
0
LINE
8
BLACK
6
CONTINUOUS
10
0.536916
20
0.639843
11
0.533998
21
0.636925
0
LINE
8
BLACK
6
CONTINUOUS
10
0.533998
20
0.636925
11
0.532482
21
0.633894
0
LINE
8
BLACK
6
CONTINUOUS
10
0.532482
20
0.633894
11
0.530774
21
0.627062
0
LINE
8
BLACK
6
CONTINUOUS
10
0.530774
20
0.627062
11
0.530774
21
0.622165
0
LINE
8
BLACK
6
CONTINUOUS
10
0.530774
20
0.622165
11
0.532482
21
0.615333
0
LINE
8
BLACK
6
CONTINUOUS
10
0.532482
20
0.615333
11
0.533998
21
0.612302
0
LINE
8
BLACK
6
CONTINUOUS
10
0.533998
20
0.612302
11
0.536916
21
0.609384
0
LINE
8
BLACK
6
CONTINUOUS
10
0.536916
20
0.609384
11
0.541424
21
0.607881
0
LINE
8
BLACK
6
CONTINUOUS
10
0.541424
20
0.607881
11
0.547366
21
0.607881
0
LINE
8
BLACK
6
CONTINUOUS
10
0.547366
20
0.607881
11
0.547366
21
0.641346
0
LINE
8
BLACK
6
CONTINUOUS
10
0.547366
20
0.641346
11
0.541424
21
0.641346
0
LINE
8
BLACK
6
CONTINUOUS
10
0.541424
20
0.641346
11
0.536916
21
0.639843
0
CIRCLE
8
BLACK
10
0.09
20
0.586063
40
0.00688976
0
CIRCLE
8
BLACK
10
0.09
20
0.486063
40
0.00688976
0
CIRCLE
8
BLACK
10
-0.01
20
0.586063
40
0.00688976
0
CIRCLE
8
BLACK
10
-0.01
20
0.486063
40
0.00688976
0
CIRCLE
8
BLACK
10
-0.11
20
0.586063
40
0.00688976
0
CIRCLE
8
BLACK
10
-0.11
20
0.486063
40
0.00688976
0
CIRCLE
8
BLACK
10
0.4
20
0
40
0.00688976
0
CIRCLE
8
BLACK
10
0
20
0.8
40
0.00688976
0
CIRCLE
8
BLACK
10
0.4
20
0.8
40
0.00688976
0
CIRCLE
8
BLACK
10
0.32
20
0.55
40
0.00688976
0
CIRCLE
8
BLACK
10
0.42
20
0.55
40
0.00688976
0
CIRCLE
8
BLACK
10
0.32
20
0.45
40
0.00688976
0
CIRCLE
8
BLACK
10
0.42
20
0.45
40
0.00688976
0
CIRCLE
8
BLACK
10
0.32
20
0.35
40
0.00688976
0
CIRCLE
8
BLACK
10
0.42
20
0.35
40
0.00688976
0
CIRCLE
8
BLACK
10
0.32
20
0.25
40
0.00688976
0
CIRCLE
8
BLACK
10
0.42
20
0.25
40
0.00688976
0
CIRCLE
8
BLACK
10
0
20
0
40
0.00688976
  0
ENDSEC
  0
EOF
