  0
SECTION
  2
HEADER
  9
$ANGBASE
  50
0.0
  9
$ANGDIR
  70
1
  9
$MEASUREMENT
  70
0
  0
ENDSEC
  0
SECTION
  2
TABLES
  0
TABLE
  2
LTYPE
  70
4
  0
LTYPE
  5
40F
  2
CONTINUOUS
  70
0
  3
Solid line
  72
65
  73
0
  40
0.0
  0
LTYPE
  5
410
  2
DASHDOT
 70
0
  3
Dash Dot ____ _ ____ _
 72
65
 73
4
 40
2.0
 49
1.25
 49
-0.25
 49
0.25
 49
-0.25
  0
LTYPE
  5
411
  2
DASHED
 70
0
  3
Dashed __ __ __ __ __
 72
65
 73
2
 40
0.75
 49
0.5
 49
-0.25
  0
LTYPE
  5
43B
  2
DOTTED
 70
0
  3
Dotted .  .  .  .
 72
65
 73
2
 40
0.2
 49
0.0
 49
-0.2
  0
ENDTAB
  0
TABLE
  2
STYLE
  70
4
  0
STYLE
  2
KICAD
  70
0
  40
0
  41
1
  42
1
  50
0
  71
0
  3
isocp.shx
  0
STYLE
  2
KICADB
  70
0
  40
0
  41
1
  42
1
  50
0
  71
0
  3
isocp.shx
  0
STYLE
  2
KICADI
  70
0
  40
0
  41
1
  42
1
  50
15
  71
0
  3
isocp.shx
  0
STYLE
  2
KICADBI
  70
0
  40
0
  41
1
  42
1
  50
15
  71
0
  3
isocp.shx
  0
ENDTAB
  0
TABLE
  2
LAYER
  70
1
  0
LAYER
  2
BLACK
  70
0
  62
7
  6
CONTINUOUS
  0
ENDTAB
  0
ENDSEC
  0
SECTION
  2
ENTITIES
0
LINE
8
BLACK
6
CONTINUOUS
10
5.9877
20
-2.81081
11
5.98953
21
-2.81292
0
LINE
8
BLACK
6
CONTINUOUS
10
5.98953
20
-2.81292
11
5.98998
21
-2.81498
0
LINE
8
BLACK
6
CONTINUOUS
10
5.98998
20
-2.81498
11
5.98998
21
-3.98502
0
LINE
8
BLACK
6
CONTINUOUS
10
5.98998
20
-3.98502
11
5.98919
21
-3.9877
0
LINE
8
BLACK
6
CONTINUOUS
10
5.98919
20
-3.9877
11
5.98708
21
-3.98953
0
LINE
8
BLACK
6
CONTINUOUS
10
5.98708
20
-3.98953
11
5.98502
21
-3.98998
0
LINE
8
BLACK
6
CONTINUOUS
10
5.98502
20
-3.98998
11
5.21498
21
-3.98998
0
LINE
8
BLACK
6
CONTINUOUS
10
5.21498
20
-3.98998
11
5.2123
21
-3.98919
0
LINE
8
BLACK
6
CONTINUOUS
10
5.2123
20
-3.98919
11
5.21047
21
-3.98708
0
LINE
8
BLACK
6
CONTINUOUS
10
5.21047
20
-3.98708
11
5.21002
21
-3.98502
0
LINE
8
BLACK
6
CONTINUOUS
10
5.21002
20
-3.98502
11
5.21002
21
-3.67
0
LINE
8
BLACK
6
CONTINUOUS
10
5.21002
20
-3.67
11
5.21002
21
-3.59
0
LINE
8
BLACK
6
CONTINUOUS
10
5.21002
20
-3.59
11
5.21002
21
-3.57
0
LINE
8
BLACK
6
CONTINUOUS
10
5.21002
20
-3.57
11
5.21002
21
-3.50971
0
LINE
8
BLACK
6
CONTINUOUS
10
5.21002
20
-3.50971
11
5.21002
21
-3.335
0
LINE
8
BLACK
6
CONTINUOUS
10
5.21002
20
-3.335
11
5.21002
21
-3.24
0
LINE
8
BLACK
6
CONTINUOUS
10
5.21002
20
-3.24
11
5.21002
21
-3.22
0
LINE
8
BLACK
6
CONTINUOUS
10
5.21002
20
-3.22
11
5.21002
21
-2.81498
0
LINE
8
BLACK
6
CONTINUOUS
10
5.21002
20
-2.81498
11
5.21081
21
-2.8123
0
LINE
8
BLACK
6
CONTINUOUS
10
5.21081
20
-2.8123
11
5.21292
21
-2.81047
0
LINE
8
BLACK
6
CONTINUOUS
10
5.21292
20
-2.81047
11
5.21498
21
-2.81002
0
LINE
8
BLACK
6
CONTINUOUS
10
5.21498
20
-2.81002
11
5.98502
21
-2.81002
0
LINE
8
BLACK
6
CONTINUOUS
10
5.98502
20
-2.81002
11
5.9877
21
-2.81081
0
LINE
8
BLACK
6
CONTINUOUS
10
5.52291
20
-3.68069
11
5.52333
21
-3.68478
0
LINE
8
BLACK
6
CONTINUOUS
10
5.52333
20
-3.68478
11
5.52333
21
-3.68478
0
LINE
8
BLACK
6
CONTINUOUS
10
5.52333
20
-3.68478
11
5.52553
21
-3.6914
0
LINE
8
BLACK
6
CONTINUOUS
10
5.52553
20
-3.6914
11
5.52919
21
-3.69734
0
LINE
8
BLACK
6
CONTINUOUS
10
5.52919
20
-3.69734
11
5.52919
21
-3.69734
0
LINE
8
BLACK
6
CONTINUOUS
10
5.52919
20
-3.69734
11
5.53412
21
-3.70227
0
LINE
8
BLACK
6
CONTINUOUS
10
5.53412
20
-3.70227
11
5.53412
21
-3.70227
0
LINE
8
BLACK
6
CONTINUOUS
10
5.53412
20
-3.70227
11
5.54006
21
-3.70593
0
LINE
8
BLACK
6
CONTINUOUS
10
5.54006
20
-3.70593
11
5.54668
21
-3.70813
0
LINE
8
BLACK
6
CONTINUOUS
10
5.54668
20
-3.70813
11
5.54668
21
-3.70813
0
LINE
8
BLACK
6
CONTINUOUS
10
5.54668
20
-3.70813
11
5.55077
21
-3.70854
0
LINE
8
BLACK
6
CONTINUOUS
10
5.55077
20
-3.70854
11
5.55077
21
-3.70854
0
LINE
8
BLACK
6
CONTINUOUS
10
5.55077
20
-3.70854
11
5.5526
21
-3.70854
0
LINE
8
BLACK
6
CONTINUOUS
10
5.5526
20
-3.70854
11
5.5526
21
-3.68851
0
LINE
8
BLACK
6
CONTINUOUS
10
5.5526
20
-3.68851
11
5.54899
21
-3.68779
0
LINE
8
BLACK
6
CONTINUOUS
10
5.54899
20
-3.68779
11
5.5458
21
-3.68566
0
LINE
8
BLACK
6
CONTINUOUS
10
5.5458
20
-3.68566
11
5.54366
21
-3.68247
0
LINE
8
BLACK
6
CONTINUOUS
10
5.54366
20
-3.68247
11
5.54291
21
-3.6787
0
LINE
8
BLACK
6
CONTINUOUS
10
5.54291
20
-3.6787
11
5.54291
21
-3.67
0
LINE
8
BLACK
6
CONTINUOUS
10
5.54291
20
-3.67
11
5.52291
21
-3.67
0
LINE
8
BLACK
6
CONTINUOUS
10
5.52291
20
-3.67
11
5.52291
21
-3.68069
0
LINE
8
BLACK
6
CONTINUOUS
10
5.78076
20
-3.1742
11
5.78155
21
-3.1742
0
LINE
8
BLACK
6
CONTINUOUS
10
5.78155
20
-3.1742
11
5.78224
21
-3.1746
0
LINE
8
BLACK
6
CONTINUOUS
10
5.78224
20
-3.1746
11
5.783
21
-3.1748
0
LINE
8
BLACK
6
CONTINUOUS
10
5.783
20
-3.1748
11
5.78356
21
-3.17536
0
LINE
8
BLACK
6
CONTINUOUS
10
5.78356
20
-3.17536
11
5.78424
21
-3.17576
0
LINE
8
BLACK
6
CONTINUOUS
10
5.78424
20
-3.17576
11
5.82849
21
-3.22
0
LINE
8
BLACK
6
CONTINUOUS
10
5.82849
20
-3.22
11
5.88
21
-3.22
0
LINE
8
BLACK
6
CONTINUOUS
10
5.88
20
-3.22
11
5.88
21
-3.27151
0
LINE
8
BLACK
6
CONTINUOUS
10
5.88
20
-3.27151
11
5.91424
21
-3.30576
0
LINE
8
BLACK
6
CONTINUOUS
10
5.91424
20
-3.30576
11
5.91464
21
-3.30644
0
LINE
8
BLACK
6
CONTINUOUS
10
5.91464
20
-3.30644
11
5.9152
21
-3.307
0
LINE
8
BLACK
6
CONTINUOUS
10
5.9152
20
-3.307
11
5.9154
21
-3.30776
0
LINE
8
BLACK
6
CONTINUOUS
10
5.9154
20
-3.30776
11
5.9158
21
-3.30845
0
LINE
8
BLACK
6
CONTINUOUS
10
5.9158
20
-3.30845
11
5.9158
21
-3.30924
0
LINE
8
BLACK
6
CONTINUOUS
10
5.9158
20
-3.30924
11
5.916
21
-3.31
0
LINE
8
BLACK
6
CONTINUOUS
10
5.916
20
-3.31
11
5.916
21
-3.59
0
LINE
8
BLACK
6
CONTINUOUS
10
5.916
20
-3.59
11
5.9158
21
-3.59076
0
LINE
8
BLACK
6
CONTINUOUS
10
5.9158
20
-3.59076
11
5.9158
21
-3.59155
0
LINE
8
BLACK
6
CONTINUOUS
10
5.9158
20
-3.59155
11
5.9154
21
-3.59224
0
LINE
8
BLACK
6
CONTINUOUS
10
5.9154
20
-3.59224
11
5.9152
21
-3.593
0
LINE
8
BLACK
6
CONTINUOUS
10
5.9152
20
-3.593
11
5.91464
21
-3.59356
0
LINE
8
BLACK
6
CONTINUOUS
10
5.91464
20
-3.59356
11
5.91424
21
-3.59424
0
LINE
8
BLACK
6
CONTINUOUS
10
5.91424
20
-3.59424
11
5.88424
21
-3.62424
0
LINE
8
BLACK
6
CONTINUOUS
10
5.88424
20
-3.62424
11
5.88356
21
-3.62464
0
LINE
8
BLACK
6
CONTINUOUS
10
5.88356
20
-3.62464
11
5.883
21
-3.6252
0
LINE
8
BLACK
6
CONTINUOUS
10
5.883
20
-3.6252
11
5.88224
21
-3.6254
0
LINE
8
BLACK
6
CONTINUOUS
10
5.88224
20
-3.6254
11
5.88155
21
-3.6258
0
LINE
8
BLACK
6
CONTINUOUS
10
5.88155
20
-3.6258
11
5.88076
21
-3.6258
0
LINE
8
BLACK
6
CONTINUOUS
10
5.88076
20
-3.6258
11
5.88
21
-3.626
0
LINE
8
BLACK
6
CONTINUOUS
10
5.88
20
-3.626
11
5.73249
21
-3.626
0
LINE
8
BLACK
6
CONTINUOUS
10
5.73249
20
-3.626
11
5.69424
21
-3.66424
0
LINE
8
BLACK
6
CONTINUOUS
10
5.69424
20
-3.66424
11
5.69356
21
-3.66464
0
LINE
8
BLACK
6
CONTINUOUS
10
5.69356
20
-3.66464
11
5.693
21
-3.6652
0
LINE
8
BLACK
6
CONTINUOUS
10
5.693
20
-3.6652
11
5.69224
21
-3.6654
0
LINE
8
BLACK
6
CONTINUOUS
10
5.69224
20
-3.6654
11
5.69155
21
-3.6658
0
LINE
8
BLACK
6
CONTINUOUS
10
5.69155
20
-3.6658
11
5.69076
21
-3.6658
0
LINE
8
BLACK
6
CONTINUOUS
10
5.69076
20
-3.6658
11
5.69
21
-3.666
0
LINE
8
BLACK
6
CONTINUOUS
10
5.69
20
-3.666
11
5.65709
21
-3.666
0
LINE
8
BLACK
6
CONTINUOUS
10
5.65709
20
-3.666
11
5.65709
21
-3.6787
0
LINE
8
BLACK
6
CONTINUOUS
10
5.65709
20
-3.6787
11
5.65634
21
-3.68247
0
LINE
8
BLACK
6
CONTINUOUS
10
5.65634
20
-3.68247
11
5.6542
21
-3.68566
0
LINE
8
BLACK
6
CONTINUOUS
10
5.6542
20
-3.68566
11
5.65101
21
-3.68779
0
LINE
8
BLACK
6
CONTINUOUS
10
5.65101
20
-3.68779
11
5.64724
21
-3.68854
0
LINE
8
BLACK
6
CONTINUOUS
10
5.64724
20
-3.68854
11
5.62756
21
-3.68854
0
LINE
8
BLACK
6
CONTINUOUS
10
5.62756
20
-3.68854
11
5.62379
21
-3.68779
0
LINE
8
BLACK
6
CONTINUOUS
10
5.62379
20
-3.68779
11
5.6206
21
-3.68566
0
LINE
8
BLACK
6
CONTINUOUS
10
5.6206
20
-3.68566
11
5.61847
21
-3.68247
0
LINE
8
BLACK
6
CONTINUOUS
10
5.61847
20
-3.68247
11
5.61772
21
-3.6787
0
LINE
8
BLACK
6
CONTINUOUS
10
5.61772
20
-3.6787
11
5.61772
21
-3.6413
0
LINE
8
BLACK
6
CONTINUOUS
10
5.61772
20
-3.6413
11
5.61847
21
-3.63753
0
LINE
8
BLACK
6
CONTINUOUS
10
5.61847
20
-3.63753
11
5.6206
21
-3.63434
0
LINE
8
BLACK
6
CONTINUOUS
10
5.6206
20
-3.63434
11
5.62379
21
-3.63221
0
LINE
8
BLACK
6
CONTINUOUS
10
5.62379
20
-3.63221
11
5.62756
21
-3.63146
0
LINE
8
BLACK
6
CONTINUOUS
10
5.62756
20
-3.63146
11
5.6314
21
-3.63146
0
LINE
8
BLACK
6
CONTINUOUS
10
5.6314
20
-3.63146
11
5.6314
21
-3.62489
0
LINE
8
BLACK
6
CONTINUOUS
10
5.6314
20
-3.62489
11
5.62251
21
-3.616
0
LINE
8
BLACK
6
CONTINUOUS
10
5.62251
20
-3.616
11
5.61
21
-3.616
0
LINE
8
BLACK
6
CONTINUOUS
10
5.61
20
-3.616
11
5.60924
21
-3.6158
0
LINE
8
BLACK
6
CONTINUOUS
10
5.60924
20
-3.6158
11
5.60845
21
-3.6158
0
LINE
8
BLACK
6
CONTINUOUS
10
5.60845
20
-3.6158
11
5.60776
21
-3.6154
0
LINE
8
BLACK
6
CONTINUOUS
10
5.60776
20
-3.6154
11
5.607
21
-3.6152
0
LINE
8
BLACK
6
CONTINUOUS
10
5.607
20
-3.6152
11
5.60644
21
-3.61464
0
LINE
8
BLACK
6
CONTINUOUS
10
5.60644
20
-3.61464
11
5.60576
21
-3.61424
0
LINE
8
BLACK
6
CONTINUOUS
10
5.60576
20
-3.61424
11
5.59695
21
-3.60544
0
LINE
8
BLACK
6
CONTINUOUS
10
5.59695
20
-3.60544
11
5.5968
21
-3.60566
0
LINE
8
BLACK
6
CONTINUOUS
10
5.5968
20
-3.60566
11
5.59361
21
-3.60779
0
LINE
8
BLACK
6
CONTINUOUS
10
5.59361
20
-3.60779
11
5.58984
21
-3.60854
0
LINE
8
BLACK
6
CONTINUOUS
10
5.58984
20
-3.60854
11
5.57016
21
-3.60854
0
LINE
8
BLACK
6
CONTINUOUS
10
5.57016
20
-3.60854
11
5.56639
21
-3.60779
0
LINE
8
BLACK
6
CONTINUOUS
10
5.56639
20
-3.60779
11
5.5632
21
-3.60566
0
LINE
8
BLACK
6
CONTINUOUS
10
5.5632
20
-3.60566
11
5.56106
21
-3.60247
0
LINE
8
BLACK
6
CONTINUOUS
10
5.56106
20
-3.60247
11
5.56031
21
-3.5987
0
LINE
8
BLACK
6
CONTINUOUS
10
5.56031
20
-3.5987
11
5.56031
21
-3.5613
0
LINE
8
BLACK
6
CONTINUOUS
10
5.56031
20
-3.5613
11
5.56106
21
-3.55753
0
LINE
8
BLACK
6
CONTINUOUS
10
5.56106
20
-3.55753
11
5.5632
21
-3.55434
0
LINE
8
BLACK
6
CONTINUOUS
10
5.5632
20
-3.55434
11
5.56639
21
-3.55221
0
LINE
8
BLACK
6
CONTINUOUS
10
5.56639
20
-3.55221
11
5.57016
21
-3.55146
0
LINE
8
BLACK
6
CONTINUOUS
10
5.57016
20
-3.55146
11
5.58984
21
-3.55146
0
LINE
8
BLACK
6
CONTINUOUS
10
5.58984
20
-3.55146
11
5.59361
21
-3.55221
0
LINE
8
BLACK
6
CONTINUOUS
10
5.59361
20
-3.55221
11
5.5968
21
-3.55434
0
LINE
8
BLACK
6
CONTINUOUS
10
5.5968
20
-3.55434
11
5.59695
21
-3.55456
0
LINE
8
BLACK
6
CONTINUOUS
10
5.59695
20
-3.55456
11
5.60869
21
-3.54283
0
LINE
8
BLACK
6
CONTINUOUS
10
5.60869
20
-3.54283
11
5.60869
21
-3.5078
0
LINE
8
BLACK
6
CONTINUOUS
10
5.60869
20
-3.5078
11
5.5822
21
-3.5078
0
LINE
8
BLACK
6
CONTINUOUS
10
5.5822
20
-3.5078
11
5.5822
21
-3.4822
0
LINE
8
BLACK
6
CONTINUOUS
10
5.5822
20
-3.4822
11
5.64717
21
-3.4822
0
LINE
8
BLACK
6
CONTINUOUS
10
5.64717
20
-3.4822
11
5.64717
21
-3.5078
0
LINE
8
BLACK
6
CONTINUOUS
10
5.64717
20
-3.5078
11
5.62069
21
-3.5078
0
LINE
8
BLACK
6
CONTINUOUS
10
5.62069
20
-3.5078
11
5.62069
21
-3.54531
0
LINE
8
BLACK
6
CONTINUOUS
10
5.62069
20
-3.54531
11
5.62048
21
-3.54608
0
LINE
8
BLACK
6
CONTINUOUS
10
5.62048
20
-3.54608
11
5.62048
21
-3.54687
0
LINE
8
BLACK
6
CONTINUOUS
10
5.62048
20
-3.54687
11
5.62009
21
-3.54755
0
LINE
8
BLACK
6
CONTINUOUS
10
5.62009
20
-3.54755
11
5.61988
21
-3.54831
0
LINE
8
BLACK
6
CONTINUOUS
10
5.61988
20
-3.54831
11
5.61932
21
-3.54887
0
LINE
8
BLACK
6
CONTINUOUS
10
5.61932
20
-3.54887
11
5.61893
21
-3.54956
0
LINE
8
BLACK
6
CONTINUOUS
10
5.61893
20
-3.54956
11
5.59969
21
-3.5688
0
LINE
8
BLACK
6
CONTINUOUS
10
5.59969
20
-3.5688
11
5.59969
21
-3.5912
0
LINE
8
BLACK
6
CONTINUOUS
10
5.59969
20
-3.5912
11
5.61249
21
-3.604
0
LINE
8
BLACK
6
CONTINUOUS
10
5.61249
20
-3.604
11
5.625
21
-3.604
0
LINE
8
BLACK
6
CONTINUOUS
10
5.625
20
-3.604
11
5.62576
21
-3.6042
0
LINE
8
BLACK
6
CONTINUOUS
10
5.62576
20
-3.6042
11
5.62655
21
-3.6042
0
LINE
8
BLACK
6
CONTINUOUS
10
5.62655
20
-3.6042
11
5.62724
21
-3.6046
0
LINE
8
BLACK
6
CONTINUOUS
10
5.62724
20
-3.6046
11
5.628
21
-3.6048
0
LINE
8
BLACK
6
CONTINUOUS
10
5.628
20
-3.6048
11
5.62856
21
-3.60536
0
LINE
8
BLACK
6
CONTINUOUS
10
5.62856
20
-3.60536
11
5.62924
21
-3.60576
0
LINE
8
BLACK
6
CONTINUOUS
10
5.62924
20
-3.60576
11
5.64164
21
-3.61816
0
LINE
8
BLACK
6
CONTINUOUS
10
5.64164
20
-3.61816
11
5.64204
21
-3.61884
0
LINE
8
BLACK
6
CONTINUOUS
10
5.64204
20
-3.61884
11
5.6426
21
-3.6194
0
LINE
8
BLACK
6
CONTINUOUS
10
5.6426
20
-3.6194
11
5.6428
21
-3.62016
0
LINE
8
BLACK
6
CONTINUOUS
10
5.6428
20
-3.62016
11
5.6432
21
-3.62085
0
LINE
8
BLACK
6
CONTINUOUS
10
5.6432
20
-3.62085
11
5.6432
21
-3.62164
0
LINE
8
BLACK
6
CONTINUOUS
10
5.6432
20
-3.62164
11
5.6434
21
-3.6224
0
LINE
8
BLACK
6
CONTINUOUS
10
5.6434
20
-3.6224
11
5.6434
21
-3.63146
0
LINE
8
BLACK
6
CONTINUOUS
10
5.6434
20
-3.63146
11
5.64724
21
-3.63146
0
LINE
8
BLACK
6
CONTINUOUS
10
5.64724
20
-3.63146
11
5.65101
21
-3.63221
0
LINE
8
BLACK
6
CONTINUOUS
10
5.65101
20
-3.63221
11
5.6542
21
-3.63434
0
LINE
8
BLACK
6
CONTINUOUS
10
5.6542
20
-3.63434
11
5.65634
21
-3.63753
0
LINE
8
BLACK
6
CONTINUOUS
10
5.65634
20
-3.63753
11
5.65709
21
-3.6413
0
LINE
8
BLACK
6
CONTINUOUS
10
5.65709
20
-3.6413
11
5.65709
21
-3.654
0
LINE
8
BLACK
6
CONTINUOUS
10
5.65709
20
-3.654
11
5.68751
21
-3.654
0
LINE
8
BLACK
6
CONTINUOUS
10
5.68751
20
-3.654
11
5.72576
21
-3.61576
0
LINE
8
BLACK
6
CONTINUOUS
10
5.72576
20
-3.61576
11
5.72644
21
-3.61536
0
LINE
8
BLACK
6
CONTINUOUS
10
5.72644
20
-3.61536
11
5.727
21
-3.6148
0
LINE
8
BLACK
6
CONTINUOUS
10
5.727
20
-3.6148
11
5.72776
21
-3.6146
0
LINE
8
BLACK
6
CONTINUOUS
10
5.72776
20
-3.6146
11
5.72845
21
-3.6142
0
LINE
8
BLACK
6
CONTINUOUS
10
5.72845
20
-3.6142
11
5.72924
21
-3.6142
0
LINE
8
BLACK
6
CONTINUOUS
10
5.72924
20
-3.6142
11
5.73
21
-3.614
0
LINE
8
BLACK
6
CONTINUOUS
10
5.73
20
-3.614
11
5.87751
21
-3.614
0
LINE
8
BLACK
6
CONTINUOUS
10
5.87751
20
-3.614
11
5.904
21
-3.58751
0
LINE
8
BLACK
6
CONTINUOUS
10
5.904
20
-3.58751
11
5.904
21
-3.31249
0
LINE
8
BLACK
6
CONTINUOUS
10
5.904
20
-3.31249
11
5.87151
21
-3.28
0
LINE
8
BLACK
6
CONTINUOUS
10
5.87151
20
-3.28
11
5.82
21
-3.28
0
LINE
8
BLACK
6
CONTINUOUS
10
5.82
20
-3.28
11
5.82
21
-3.22849
0
LINE
8
BLACK
6
CONTINUOUS
10
5.82
20
-3.22849
11
5.77751
21
-3.186
0
LINE
8
BLACK
6
CONTINUOUS
10
5.77751
20
-3.186
11
5.65249
21
-3.186
0
LINE
8
BLACK
6
CONTINUOUS
10
5.65249
20
-3.186
11
5.60424
21
-3.23424
0
LINE
8
BLACK
6
CONTINUOUS
10
5.60424
20
-3.23424
11
5.60356
21
-3.23464
0
LINE
8
BLACK
6
CONTINUOUS
10
5.60356
20
-3.23464
11
5.603
21
-3.2352
0
LINE
8
BLACK
6
CONTINUOUS
10
5.603
20
-3.2352
11
5.60224
21
-3.2354
0
LINE
8
BLACK
6
CONTINUOUS
10
5.60224
20
-3.2354
11
5.60155
21
-3.2358
0
LINE
8
BLACK
6
CONTINUOUS
10
5.60155
20
-3.2358
11
5.60076
21
-3.2358
0
LINE
8
BLACK
6
CONTINUOUS
10
5.60076
20
-3.2358
11
5.6
21
-3.236
0
LINE
8
BLACK
6
CONTINUOUS
10
5.6
20
-3.236
11
5.55795
21
-3.236
0
LINE
8
BLACK
6
CONTINUOUS
10
5.55795
20
-3.236
11
5.55795
21
-3.26543
0
LINE
8
BLACK
6
CONTINUOUS
10
5.55795
20
-3.26543
11
5.45953
21
-3.26543
0
LINE
8
BLACK
6
CONTINUOUS
10
5.45953
20
-3.26543
11
5.45953
21
-3.19457
0
LINE
8
BLACK
6
CONTINUOUS
10
5.45953
20
-3.19457
11
5.55795
21
-3.19457
0
LINE
8
BLACK
6
CONTINUOUS
10
5.55795
20
-3.19457
11
5.55795
21
-3.224
0
LINE
8
BLACK
6
CONTINUOUS
10
5.55795
20
-3.224
11
5.59751
21
-3.224
0
LINE
8
BLACK
6
CONTINUOUS
10
5.59751
20
-3.224
11
5.64576
21
-3.17576
0
LINE
8
BLACK
6
CONTINUOUS
10
5.64576
20
-3.17576
11
5.64644
21
-3.17536
0
LINE
8
BLACK
6
CONTINUOUS
10
5.64644
20
-3.17536
11
5.647
21
-3.1748
0
LINE
8
BLACK
6
CONTINUOUS
10
5.647
20
-3.1748
11
5.64776
21
-3.1746
0
LINE
8
BLACK
6
CONTINUOUS
10
5.64776
20
-3.1746
11
5.64845
21
-3.1742
0
LINE
8
BLACK
6
CONTINUOUS
10
5.64845
20
-3.1742
11
5.64924
21
-3.1742
0
LINE
8
BLACK
6
CONTINUOUS
10
5.64924
20
-3.1742
11
5.65
21
-3.174
0
LINE
8
BLACK
6
CONTINUOUS
10
5.65
20
-3.174
11
5.78
21
-3.174
0
LINE
8
BLACK
6
CONTINUOUS
10
5.78
20
-3.174
11
5.78076
21
-3.1742
0
LINE
8
BLACK
6
CONTINUOUS
10
5.46551
20
-3.60069
11
5.46593
21
-3.60478
0
LINE
8
BLACK
6
CONTINUOUS
10
5.46593
20
-3.60478
11
5.46593
21
-3.60478
0
LINE
8
BLACK
6
CONTINUOUS
10
5.46593
20
-3.60478
11
5.46812
21
-3.6114
0
LINE
8
BLACK
6
CONTINUOUS
10
5.46812
20
-3.6114
11
5.47179
21
-3.61734
0
LINE
8
BLACK
6
CONTINUOUS
10
5.47179
20
-3.61734
11
5.47179
21
-3.61734
0
LINE
8
BLACK
6
CONTINUOUS
10
5.47179
20
-3.61734
11
5.47672
21
-3.62227
0
LINE
8
BLACK
6
CONTINUOUS
10
5.47672
20
-3.62227
11
5.47672
21
-3.62227
0
LINE
8
BLACK
6
CONTINUOUS
10
5.47672
20
-3.62227
11
5.48266
21
-3.62593
0
LINE
8
BLACK
6
CONTINUOUS
10
5.48266
20
-3.62593
11
5.48928
21
-3.62813
0
LINE
8
BLACK
6
CONTINUOUS
10
5.48928
20
-3.62813
11
5.48928
21
-3.62813
0
LINE
8
BLACK
6
CONTINUOUS
10
5.48928
20
-3.62813
11
5.49337
21
-3.62854
0
LINE
8
BLACK
6
CONTINUOUS
10
5.49337
20
-3.62854
11
5.49337
21
-3.62854
0
LINE
8
BLACK
6
CONTINUOUS
10
5.49337
20
-3.62854
11
5.4952
21
-3.62854
0
LINE
8
BLACK
6
CONTINUOUS
10
5.4952
20
-3.62854
11
5.4952
21
-3.60851
0
LINE
8
BLACK
6
CONTINUOUS
10
5.4952
20
-3.60851
11
5.49159
21
-3.60779
0
LINE
8
BLACK
6
CONTINUOUS
10
5.49159
20
-3.60779
11
5.48839
21
-3.60566
0
LINE
8
BLACK
6
CONTINUOUS
10
5.48839
20
-3.60566
11
5.48626
21
-3.60247
0
LINE
8
BLACK
6
CONTINUOUS
10
5.48626
20
-3.60247
11
5.48551
21
-3.5987
0
LINE
8
BLACK
6
CONTINUOUS
10
5.48551
20
-3.5987
11
5.48551
21
-3.59
0
LINE
8
BLACK
6
CONTINUOUS
10
5.48551
20
-3.59
11
5.46551
21
-3.59
0
LINE
8
BLACK
6
CONTINUOUS
10
5.46551
20
-3.59
11
5.46551
21
-3.60069
0
LINE
8
BLACK
6
CONTINUOUS
10
5.78
20
-3.58
11
5.72
21
-3.58
0
LINE
8
BLACK
6
CONTINUOUS
10
5.72
20
-3.58
11
5.72
21
-3.52
0
LINE
8
BLACK
6
CONTINUOUS
10
5.72
20
-3.52
11
5.78
21
-3.52
0
LINE
8
BLACK
6
CONTINUOUS
10
5.78
20
-3.52
11
5.78
21
-3.58
0
LINE
8
BLACK
6
CONTINUOUS
10
5.88
20
-3.48
11
5.86
21
-3.48
0
LINE
8
BLACK
6
CONTINUOUS
10
5.86
20
-3.48
11
5.86
21
-3.52
0
LINE
8
BLACK
6
CONTINUOUS
10
5.86
20
-3.52
11
5.88
21
-3.52
0
LINE
8
BLACK
6
CONTINUOUS
10
5.88
20
-3.52
11
5.88
21
-3.58
0
LINE
8
BLACK
6
CONTINUOUS
10
5.88
20
-3.58
11
5.82
21
-3.58
0
LINE
8
BLACK
6
CONTINUOUS
10
5.82
20
-3.58
11
5.82
21
-3.52
0
LINE
8
BLACK
6
CONTINUOUS
10
5.82
20
-3.52
11
5.84
21
-3.52
0
LINE
8
BLACK
6
CONTINUOUS
10
5.84
20
-3.52
11
5.84
21
-3.48
0
LINE
8
BLACK
6
CONTINUOUS
10
5.84
20
-3.48
11
5.82
21
-3.48
0
LINE
8
BLACK
6
CONTINUOUS
10
5.82
20
-3.48
11
5.82
21
-3.42
0
LINE
8
BLACK
6
CONTINUOUS
10
5.82
20
-3.42
11
5.88
21
-3.42
0
LINE
8
BLACK
6
CONTINUOUS
10
5.88
20
-3.42
11
5.88
21
-3.48
0
LINE
8
BLACK
6
CONTINUOUS
10
5.48928
20
-3.53187
11
5.48928
21
-3.53187
0
LINE
8
BLACK
6
CONTINUOUS
10
5.48928
20
-3.53187
11
5.48266
21
-3.53407
0
LINE
8
BLACK
6
CONTINUOUS
10
5.48266
20
-3.53407
11
5.47672
21
-3.53773
0
LINE
8
BLACK
6
CONTINUOUS
10
5.47672
20
-3.53773
11
5.47672
21
-3.53773
0
LINE
8
BLACK
6
CONTINUOUS
10
5.47672
20
-3.53773
11
5.47179
21
-3.54266
0
LINE
8
BLACK
6
CONTINUOUS
10
5.47179
20
-3.54266
11
5.47179
21
-3.54266
0
LINE
8
BLACK
6
CONTINUOUS
10
5.47179
20
-3.54266
11
5.46812
21
-3.5486
0
LINE
8
BLACK
6
CONTINUOUS
10
5.46812
20
-3.5486
11
5.46593
21
-3.55522
0
LINE
8
BLACK
6
CONTINUOUS
10
5.46593
20
-3.55522
11
5.46593
21
-3.55522
0
LINE
8
BLACK
6
CONTINUOUS
10
5.46593
20
-3.55522
11
5.46551
21
-3.55931
0
LINE
8
BLACK
6
CONTINUOUS
10
5.46551
20
-3.55931
11
5.46551
21
-3.57
0
LINE
8
BLACK
6
CONTINUOUS
10
5.46551
20
-3.57
11
5.48551
21
-3.57
0
LINE
8
BLACK
6
CONTINUOUS
10
5.48551
20
-3.57
11
5.48551
21
-3.5613
0
LINE
8
BLACK
6
CONTINUOUS
10
5.48551
20
-3.5613
11
5.48626
21
-3.55753
0
LINE
8
BLACK
6
CONTINUOUS
10
5.48626
20
-3.55753
11
5.48839
21
-3.55434
0
LINE
8
BLACK
6
CONTINUOUS
10
5.48839
20
-3.55434
11
5.49159
21
-3.55221
0
LINE
8
BLACK
6
CONTINUOUS
10
5.49159
20
-3.55221
11
5.4952
21
-3.55149
0
LINE
8
BLACK
6
CONTINUOUS
10
5.4952
20
-3.55149
11
5.4952
21
-3.53146
0
LINE
8
BLACK
6
CONTINUOUS
10
5.4952
20
-3.53146
11
5.49337
21
-3.53146
0
LINE
8
BLACK
6
CONTINUOUS
10
5.49337
20
-3.53146
11
5.48928
21
-3.53187
0
LINE
8
BLACK
6
CONTINUOUS
10
5.50487
20
-3.43502
11
5.50926
21
-3.43726
0
LINE
8
BLACK
6
CONTINUOUS
10
5.50926
20
-3.43726
11
5.51274
21
-3.44074
0
LINE
8
BLACK
6
CONTINUOUS
10
5.51274
20
-3.44074
11
5.51498
21
-3.44513
0
LINE
8
BLACK
6
CONTINUOUS
10
5.51498
20
-3.44513
11
5.51575
21
-3.45
0
LINE
8
BLACK
6
CONTINUOUS
10
5.51575
20
-3.45
11
5.51498
21
-3.45487
0
LINE
8
BLACK
6
CONTINUOUS
10
5.51498
20
-3.45487
11
5.51274
21
-3.45926
0
LINE
8
BLACK
6
CONTINUOUS
10
5.51274
20
-3.45926
11
5.50926
21
-3.46274
0
LINE
8
BLACK
6
CONTINUOUS
10
5.50926
20
-3.46274
11
5.50487
21
-3.46498
0
LINE
8
BLACK
6
CONTINUOUS
10
5.50487
20
-3.46498
11
5.5
21
-3.46575
0
LINE
8
BLACK
6
CONTINUOUS
10
5.5
20
-3.46575
11
5.49513
21
-3.46498
0
LINE
8
BLACK
6
CONTINUOUS
10
5.49513
20
-3.46498
11
5.49406
21
-3.46443
0
LINE
8
BLACK
6
CONTINUOUS
10
5.49406
20
-3.46443
11
5.45924
21
-3.49924
0
LINE
8
BLACK
6
CONTINUOUS
10
5.45924
20
-3.49924
11
5.45856
21
-3.49964
0
LINE
8
BLACK
6
CONTINUOUS
10
5.45856
20
-3.49964
11
5.458
21
-3.5002
0
LINE
8
BLACK
6
CONTINUOUS
10
5.458
20
-3.5002
11
5.45724
21
-3.5004
0
LINE
8
BLACK
6
CONTINUOUS
10
5.45724
20
-3.5004
11
5.45655
21
-3.5008
0
LINE
8
BLACK
6
CONTINUOUS
10
5.45655
20
-3.5008
11
5.45576
21
-3.5008
0
LINE
8
BLACK
6
CONTINUOUS
10
5.45576
20
-3.5008
11
5.455
21
-3.501
0
LINE
8
BLACK
6
CONTINUOUS
10
5.455
20
-3.501
11
5.3578
21
-3.501
0
LINE
8
BLACK
6
CONTINUOUS
10
5.3578
20
-3.501
11
5.3578
21
-3.5078
0
LINE
8
BLACK
6
CONTINUOUS
10
5.3578
20
-3.5078
11
5.29283
21
-3.5078
0
LINE
8
BLACK
6
CONTINUOUS
10
5.29283
20
-3.5078
11
5.29283
21
-3.4822
0
LINE
8
BLACK
6
CONTINUOUS
10
5.29283
20
-3.4822
11
5.3578
21
-3.4822
0
LINE
8
BLACK
6
CONTINUOUS
10
5.3578
20
-3.4822
11
5.3578
21
-3.489
0
LINE
8
BLACK
6
CONTINUOUS
10
5.3578
20
-3.489
11
5.45251
21
-3.489
0
LINE
8
BLACK
6
CONTINUOUS
10
5.45251
20
-3.489
11
5.48557
21
-3.45594
0
LINE
8
BLACK
6
CONTINUOUS
10
5.48557
20
-3.45594
11
5.48502
21
-3.45487
0
LINE
8
BLACK
6
CONTINUOUS
10
5.48502
20
-3.45487
11
5.48425
21
-3.45
0
LINE
8
BLACK
6
CONTINUOUS
10
5.48425
20
-3.45
11
5.48502
21
-3.44513
0
LINE
8
BLACK
6
CONTINUOUS
10
5.48502
20
-3.44513
11
5.48726
21
-3.44074
0
LINE
8
BLACK
6
CONTINUOUS
10
5.48726
20
-3.44074
11
5.49074
21
-3.43726
0
LINE
8
BLACK
6
CONTINUOUS
10
5.49074
20
-3.43726
11
5.49513
21
-3.43502
0
LINE
8
BLACK
6
CONTINUOUS
10
5.49513
20
-3.43502
11
5.5
21
-3.43425
0
LINE
8
BLACK
6
CONTINUOUS
10
5.5
20
-3.43425
11
5.50487
21
-3.43502
0
LINE
8
BLACK
6
CONTINUOUS
10
5.78
20
-3.48
11
5.72
21
-3.48
0
LINE
8
BLACK
6
CONTINUOUS
10
5.72
20
-3.48
11
5.72
21
-3.42
0
LINE
8
BLACK
6
CONTINUOUS
10
5.72
20
-3.42
11
5.78
21
-3.42
0
LINE
8
BLACK
6
CONTINUOUS
10
5.78
20
-3.42
11
5.78
21
-3.48
0
LINE
8
BLACK
6
CONTINUOUS
10
5.78
20
-3.28
11
5.72
21
-3.28
0
LINE
8
BLACK
6
CONTINUOUS
10
5.72
20
-3.28
11
5.72
21
-3.256
0
LINE
8
BLACK
6
CONTINUOUS
10
5.72
20
-3.256
11
5.62249
21
-3.256
0
LINE
8
BLACK
6
CONTINUOUS
10
5.62249
20
-3.256
11
5.42924
21
-3.44924
0
LINE
8
BLACK
6
CONTINUOUS
10
5.42924
20
-3.44924
11
5.42856
21
-3.44964
0
LINE
8
BLACK
6
CONTINUOUS
10
5.42856
20
-3.44964
11
5.428
21
-3.4502
0
LINE
8
BLACK
6
CONTINUOUS
10
5.428
20
-3.4502
11
5.42724
21
-3.4504
0
LINE
8
BLACK
6
CONTINUOUS
10
5.42724
20
-3.4504
11
5.42655
21
-3.4508
0
LINE
8
BLACK
6
CONTINUOUS
10
5.42655
20
-3.4508
11
5.42576
21
-3.4508
0
LINE
8
BLACK
6
CONTINUOUS
10
5.42576
20
-3.4508
11
5.425
21
-3.451
0
LINE
8
BLACK
6
CONTINUOUS
10
5.425
20
-3.451
11
5.3578
21
-3.451
0
LINE
8
BLACK
6
CONTINUOUS
10
5.3578
20
-3.451
11
5.3578
21
-3.4578
0
LINE
8
BLACK
6
CONTINUOUS
10
5.3578
20
-3.4578
11
5.29283
21
-3.4578
0
LINE
8
BLACK
6
CONTINUOUS
10
5.29283
20
-3.4578
11
5.29283
21
-3.4322
0
LINE
8
BLACK
6
CONTINUOUS
10
5.29283
20
-3.4322
11
5.3578
21
-3.4322
0
LINE
8
BLACK
6
CONTINUOUS
10
5.3578
20
-3.4322
11
5.3578
21
-3.439
0
LINE
8
BLACK
6
CONTINUOUS
10
5.3578
20
-3.439
11
5.42251
21
-3.439
0
LINE
8
BLACK
6
CONTINUOUS
10
5.42251
20
-3.439
11
5.61576
21
-3.24576
0
LINE
8
BLACK
6
CONTINUOUS
10
5.61576
20
-3.24576
11
5.61644
21
-3.24536
0
LINE
8
BLACK
6
CONTINUOUS
10
5.61644
20
-3.24536
11
5.617
21
-3.2448
0
LINE
8
BLACK
6
CONTINUOUS
10
5.617
20
-3.2448
11
5.61776
21
-3.2446
0
LINE
8
BLACK
6
CONTINUOUS
10
5.61776
20
-3.2446
11
5.61845
21
-3.2442
0
LINE
8
BLACK
6
CONTINUOUS
10
5.61845
20
-3.2442
11
5.61924
21
-3.2442
0
LINE
8
BLACK
6
CONTINUOUS
10
5.61924
20
-3.2442
11
5.62
21
-3.244
0
LINE
8
BLACK
6
CONTINUOUS
10
5.62
20
-3.244
11
5.72
21
-3.244
0
LINE
8
BLACK
6
CONTINUOUS
10
5.72
20
-3.244
11
5.72
21
-3.22
0
LINE
8
BLACK
6
CONTINUOUS
10
5.72
20
-3.22
11
5.78
21
-3.22
0
LINE
8
BLACK
6
CONTINUOUS
10
5.78
20
-3.22
11
5.78
21
-3.28
0
LINE
8
BLACK
6
CONTINUOUS
10
5.64717
20
-3.4578
11
5.5822
21
-3.4578
0
LINE
8
BLACK
6
CONTINUOUS
10
5.5822
20
-3.4578
11
5.5822
21
-3.4322
0
LINE
8
BLACK
6
CONTINUOUS
10
5.5822
20
-3.4322
11
5.64717
21
-3.4322
0
LINE
8
BLACK
6
CONTINUOUS
10
5.64717
20
-3.4322
11
5.64717
21
-3.4578
0
LINE
8
BLACK
6
CONTINUOUS
10
5.3578
20
-3.394
11
5.3856
21
-3.394
0
LINE
8
BLACK
6
CONTINUOUS
10
5.3856
20
-3.394
11
5.38726
21
-3.39074
0
LINE
8
BLACK
6
CONTINUOUS
10
5.38726
20
-3.39074
11
5.39074
21
-3.38726
0
LINE
8
BLACK
6
CONTINUOUS
10
5.39074
20
-3.38726
11
5.39513
21
-3.38502
0
LINE
8
BLACK
6
CONTINUOUS
10
5.39513
20
-3.38502
11
5.4
21
-3.38425
0
LINE
8
BLACK
6
CONTINUOUS
10
5.4
20
-3.38425
11
5.40487
21
-3.38502
0
LINE
8
BLACK
6
CONTINUOUS
10
5.40487
20
-3.38502
11
5.40926
21
-3.38726
0
LINE
8
BLACK
6
CONTINUOUS
10
5.40926
20
-3.38726
11
5.41274
21
-3.39074
0
LINE
8
BLACK
6
CONTINUOUS
10
5.41274
20
-3.39074
11
5.41498
21
-3.39513
0
LINE
8
BLACK
6
CONTINUOUS
10
5.41498
20
-3.39513
11
5.41575
21
-3.4
0
LINE
8
BLACK
6
CONTINUOUS
10
5.41575
20
-3.4
11
5.41498
21
-3.40487
0
LINE
8
BLACK
6
CONTINUOUS
10
5.41498
20
-3.40487
11
5.41274
21
-3.40926
0
LINE
8
BLACK
6
CONTINUOUS
10
5.41274
20
-3.40926
11
5.40926
21
-3.41274
0
LINE
8
BLACK
6
CONTINUOUS
10
5.40926
20
-3.41274
11
5.40487
21
-3.41498
0
LINE
8
BLACK
6
CONTINUOUS
10
5.40487
20
-3.41498
11
5.4
21
-3.41575
0
LINE
8
BLACK
6
CONTINUOUS
10
5.4
20
-3.41575
11
5.39513
21
-3.41498
0
LINE
8
BLACK
6
CONTINUOUS
10
5.39513
20
-3.41498
11
5.39074
21
-3.41274
0
LINE
8
BLACK
6
CONTINUOUS
10
5.39074
20
-3.41274
11
5.38726
21
-3.40926
0
LINE
8
BLACK
6
CONTINUOUS
10
5.38726
20
-3.40926
11
5.3856
21
-3.406
0
LINE
8
BLACK
6
CONTINUOUS
10
5.3856
20
-3.406
11
5.3578
21
-3.406
0
LINE
8
BLACK
6
CONTINUOUS
10
5.3578
20
-3.406
11
5.3578
21
-3.4078
0
LINE
8
BLACK
6
CONTINUOUS
10
5.3578
20
-3.4078
11
5.29283
21
-3.4078
0
LINE
8
BLACK
6
CONTINUOUS
10
5.29283
20
-3.4078
11
5.29283
21
-3.3822
0
LINE
8
BLACK
6
CONTINUOUS
10
5.29283
20
-3.3822
11
5.3578
21
-3.3822
0
LINE
8
BLACK
6
CONTINUOUS
10
5.3578
20
-3.3822
11
5.3578
21
-3.394
0
LINE
8
BLACK
6
CONTINUOUS
10
5.78
20
-3.38
11
5.72849
21
-3.38
0
LINE
8
BLACK
6
CONTINUOUS
10
5.72849
20
-3.38
11
5.70924
21
-3.39924
0
LINE
8
BLACK
6
CONTINUOUS
10
5.70924
20
-3.39924
11
5.70856
21
-3.39964
0
LINE
8
BLACK
6
CONTINUOUS
10
5.70856
20
-3.39964
11
5.708
21
-3.4002
0
LINE
8
BLACK
6
CONTINUOUS
10
5.708
20
-3.4002
11
5.70724
21
-3.4004
0
LINE
8
BLACK
6
CONTINUOUS
10
5.70724
20
-3.4004
11
5.70655
21
-3.4008
0
LINE
8
BLACK
6
CONTINUOUS
10
5.70655
20
-3.4008
11
5.70576
21
-3.4008
0
LINE
8
BLACK
6
CONTINUOUS
10
5.70576
20
-3.4008
11
5.705
21
-3.401
0
LINE
8
BLACK
6
CONTINUOUS
10
5.705
20
-3.401
11
5.64717
21
-3.401
0
LINE
8
BLACK
6
CONTINUOUS
10
5.64717
20
-3.401
11
5.64717
21
-3.4078
0
LINE
8
BLACK
6
CONTINUOUS
10
5.64717
20
-3.4078
11
5.5822
21
-3.4078
0
LINE
8
BLACK
6
CONTINUOUS
10
5.5822
20
-3.4078
11
5.5822
21
-3.3822
0
LINE
8
BLACK
6
CONTINUOUS
10
5.5822
20
-3.3822
11
5.64717
21
-3.3822
0
LINE
8
BLACK
6
CONTINUOUS
10
5.64717
20
-3.3822
11
5.64717
21
-3.389
0
LINE
8
BLACK
6
CONTINUOUS
10
5.64717
20
-3.389
11
5.70251
21
-3.389
0
LINE
8
BLACK
6
CONTINUOUS
10
5.70251
20
-3.389
11
5.72
21
-3.37151
0
LINE
8
BLACK
6
CONTINUOUS
10
5.72
20
-3.37151
11
5.72
21
-3.32
0
LINE
8
BLACK
6
CONTINUOUS
10
5.72
20
-3.32
11
5.78
21
-3.32
0
LINE
8
BLACK
6
CONTINUOUS
10
5.78
20
-3.32
11
5.78
21
-3.38
0
LINE
8
BLACK
6
CONTINUOUS
10
5.80076
20
-3.2942
11
5.80155
21
-3.2942
0
LINE
8
BLACK
6
CONTINUOUS
10
5.80155
20
-3.2942
11
5.80224
21
-3.2946
0
LINE
8
BLACK
6
CONTINUOUS
10
5.80224
20
-3.2946
11
5.803
21
-3.2948
0
LINE
8
BLACK
6
CONTINUOUS
10
5.803
20
-3.2948
11
5.80356
21
-3.29536
0
LINE
8
BLACK
6
CONTINUOUS
10
5.80356
20
-3.29536
11
5.80424
21
-3.29576
0
LINE
8
BLACK
6
CONTINUOUS
10
5.80424
20
-3.29576
11
5.82849
21
-3.32
0
LINE
8
BLACK
6
CONTINUOUS
10
5.82849
20
-3.32
11
5.88
21
-3.32
0
LINE
8
BLACK
6
CONTINUOUS
10
5.88
20
-3.32
11
5.88
21
-3.38
0
LINE
8
BLACK
6
CONTINUOUS
10
5.88
20
-3.38
11
5.82
21
-3.38
0
LINE
8
BLACK
6
CONTINUOUS
10
5.82
20
-3.38
11
5.82
21
-3.32849
0
LINE
8
BLACK
6
CONTINUOUS
10
5.82
20
-3.32849
11
5.79751
21
-3.306
0
LINE
8
BLACK
6
CONTINUOUS
10
5.79751
20
-3.306
11
5.71249
21
-3.306
0
LINE
8
BLACK
6
CONTINUOUS
10
5.71249
20
-3.306
11
5.66924
21
-3.34924
0
LINE
8
BLACK
6
CONTINUOUS
10
5.66924
20
-3.34924
11
5.66856
21
-3.34964
0
LINE
8
BLACK
6
CONTINUOUS
10
5.66856
20
-3.34964
11
5.668
21
-3.3502
0
LINE
8
BLACK
6
CONTINUOUS
10
5.668
20
-3.3502
11
5.66724
21
-3.3504
0
LINE
8
BLACK
6
CONTINUOUS
10
5.66724
20
-3.3504
11
5.66655
21
-3.3508
0
LINE
8
BLACK
6
CONTINUOUS
10
5.66655
20
-3.3508
11
5.66576
21
-3.3508
0
LINE
8
BLACK
6
CONTINUOUS
10
5.66576
20
-3.3508
11
5.665
21
-3.351
0
LINE
8
BLACK
6
CONTINUOUS
10
5.665
20
-3.351
11
5.64717
21
-3.351
0
LINE
8
BLACK
6
CONTINUOUS
10
5.64717
20
-3.351
11
5.64717
21
-3.3578
0
LINE
8
BLACK
6
CONTINUOUS
10
5.64717
20
-3.3578
11
5.5822
21
-3.3578
0
LINE
8
BLACK
6
CONTINUOUS
10
5.5822
20
-3.3578
11
5.5822
21
-3.3322
0
LINE
8
BLACK
6
CONTINUOUS
10
5.5822
20
-3.3322
11
5.64717
21
-3.3322
0
LINE
8
BLACK
6
CONTINUOUS
10
5.64717
20
-3.3322
11
5.64717
21
-3.339
0
LINE
8
BLACK
6
CONTINUOUS
10
5.64717
20
-3.339
11
5.66251
21
-3.339
0
LINE
8
BLACK
6
CONTINUOUS
10
5.66251
20
-3.339
11
5.70576
21
-3.29576
0
LINE
8
BLACK
6
CONTINUOUS
10
5.70576
20
-3.29576
11
5.70644
21
-3.29536
0
LINE
8
BLACK
6
CONTINUOUS
10
5.70644
20
-3.29536
11
5.707
21
-3.2948
0
LINE
8
BLACK
6
CONTINUOUS
10
5.707
20
-3.2948
11
5.70776
21
-3.2946
0
LINE
8
BLACK
6
CONTINUOUS
10
5.70776
20
-3.2946
11
5.70845
21
-3.2942
0
LINE
8
BLACK
6
CONTINUOUS
10
5.70845
20
-3.2942
11
5.70924
21
-3.2942
0
LINE
8
BLACK
6
CONTINUOUS
10
5.70924
20
-3.2942
11
5.71
21
-3.294
0
LINE
8
BLACK
6
CONTINUOUS
10
5.71
20
-3.294
11
5.8
21
-3.294
0
LINE
8
BLACK
6
CONTINUOUS
10
5.8
20
-3.294
11
5.80076
21
-3.2942
0
LINE
8
BLACK
6
CONTINUOUS
10
5.28854
20
-3.31246
11
5.28315
21
-3.31447
0
LINE
8
BLACK
6
CONTINUOUS
10
5.28315
20
-3.31447
11
5.28315
21
-3.31447
0
LINE
8
BLACK
6
CONTINUOUS
10
5.28315
20
-3.31447
11
5.27855
21
-3.31792
0
LINE
8
BLACK
6
CONTINUOUS
10
5.27855
20
-3.31792
11
5.2751
21
-3.32252
0
LINE
8
BLACK
6
CONTINUOUS
10
5.2751
20
-3.32252
11
5.2751
21
-3.32252
0
LINE
8
BLACK
6
CONTINUOUS
10
5.2751
20
-3.32252
11
5.27309
21
-3.32791
0
LINE
8
BLACK
6
CONTINUOUS
10
5.27309
20
-3.32791
11
5.27283
21
-3.33029
0
LINE
8
BLACK
6
CONTINUOUS
10
5.27283
20
-3.33029
11
5.27283
21
-3.33093
0
LINE
8
BLACK
6
CONTINUOUS
10
5.27283
20
-3.33093
11
5.27491
21
-3.335
0
LINE
8
BLACK
6
CONTINUOUS
10
5.27491
20
-3.335
11
5.29283
21
-3.335
0
LINE
8
BLACK
6
CONTINUOUS
10
5.29283
20
-3.335
11
5.29283
21
-3.3322
0
LINE
8
BLACK
6
CONTINUOUS
10
5.29283
20
-3.3322
11
5.31531
21
-3.3322
0
LINE
8
BLACK
6
CONTINUOUS
10
5.31531
20
-3.3322
11
5.31531
21
-3.3122
0
LINE
8
BLACK
6
CONTINUOUS
10
5.31531
20
-3.3122
11
5.29092
21
-3.3122
0
LINE
8
BLACK
6
CONTINUOUS
10
5.29092
20
-3.3122
11
5.28854
21
-3.31246
0
LINE
8
BLACK
6
CONTINUOUS
10
5.33531
20
-3.3322
11
5.3578
21
-3.3322
0
LINE
8
BLACK
6
CONTINUOUS
10
5.3578
20
-3.3322
11
5.3578
21
-3.335
0
LINE
8
BLACK
6
CONTINUOUS
10
5.3578
20
-3.335
11
5.3778
21
-3.335
0
LINE
8
BLACK
6
CONTINUOUS
10
5.3778
20
-3.335
11
5.3778
21
-3.33029
0
LINE
8
BLACK
6
CONTINUOUS
10
5.3778
20
-3.33029
11
5.3778
21
-3.33029
0
LINE
8
BLACK
6
CONTINUOUS
10
5.3778
20
-3.33029
11
5.37754
21
-3.32791
0
LINE
8
BLACK
6
CONTINUOUS
10
5.37754
20
-3.32791
11
5.37553
21
-3.32252
0
LINE
8
BLACK
6
CONTINUOUS
10
5.37553
20
-3.32252
11
5.37553
21
-3.32252
0
LINE
8
BLACK
6
CONTINUOUS
10
5.37553
20
-3.32252
11
5.37208
21
-3.31792
0
LINE
8
BLACK
6
CONTINUOUS
10
5.37208
20
-3.31792
11
5.36748
21
-3.31447
0
LINE
8
BLACK
6
CONTINUOUS
10
5.36748
20
-3.31447
11
5.36209
21
-3.31246
0
LINE
8
BLACK
6
CONTINUOUS
10
5.36209
20
-3.31246
11
5.35971
21
-3.3122
0
LINE
8
BLACK
6
CONTINUOUS
10
5.35971
20
-3.3122
11
5.33531
21
-3.3122
0
LINE
8
BLACK
6
CONTINUOUS
10
5.33531
20
-3.3122
11
5.33531
21
-3.3322
0
LINE
8
BLACK
6
CONTINUOUS
10
5.28205
20
-3.26735
11
5.2823
21
-3.26973
0
LINE
8
BLACK
6
CONTINUOUS
10
5.2823
20
-3.26973
11
5.28431
21
-3.27512
0
LINE
8
BLACK
6
CONTINUOUS
10
5.28431
20
-3.27512
11
5.28431
21
-3.27512
0
LINE
8
BLACK
6
CONTINUOUS
10
5.28431
20
-3.27512
11
5.28776
21
-3.27972
0
LINE
8
BLACK
6
CONTINUOUS
10
5.28776
20
-3.27972
11
5.29236
21
-3.28317
0
LINE
8
BLACK
6
CONTINUOUS
10
5.29236
20
-3.28317
11
5.29775
21
-3.28518
0
LINE
8
BLACK
6
CONTINUOUS
10
5.29775
20
-3.28518
11
5.30013
21
-3.28543
0
LINE
8
BLACK
6
CONTINUOUS
10
5.30013
20
-3.28543
11
5.30013
21
-3.28543
0
LINE
8
BLACK
6
CONTINUOUS
10
5.30013
20
-3.28543
11
5.34126
21
-3.28543
0
LINE
8
BLACK
6
CONTINUOUS
10
5.34126
20
-3.28543
11
5.34126
21
-3.26543
0
LINE
8
BLACK
6
CONTINUOUS
10
5.34126
20
-3.26543
11
5.30205
21
-3.26543
0
LINE
8
BLACK
6
CONTINUOUS
10
5.30205
20
-3.26543
11
5.30205
21
-3.24
0
LINE
8
BLACK
6
CONTINUOUS
10
5.30205
20
-3.24
11
5.28205
21
-3.24
0
LINE
8
BLACK
6
CONTINUOUS
10
5.28205
20
-3.24
11
5.28205
21
-3.26735
0
LINE
8
BLACK
6
CONTINUOUS
10
5.40047
20
-3.26543
11
5.36126
21
-3.26543
0
LINE
8
BLACK
6
CONTINUOUS
10
5.36126
20
-3.26543
11
5.36126
21
-3.28543
0
LINE
8
BLACK
6
CONTINUOUS
10
5.36126
20
-3.28543
11
5.40239
21
-3.28543
0
LINE
8
BLACK
6
CONTINUOUS
10
5.40239
20
-3.28543
11
5.40239
21
-3.28543
0
LINE
8
BLACK
6
CONTINUOUS
10
5.40239
20
-3.28543
11
5.40477
21
-3.28518
0
LINE
8
BLACK
6
CONTINUOUS
10
5.40477
20
-3.28518
11
5.41016
21
-3.28317
0
LINE
8
BLACK
6
CONTINUOUS
10
5.41016
20
-3.28317
11
5.41016
21
-3.28317
0
LINE
8
BLACK
6
CONTINUOUS
10
5.41016
20
-3.28317
11
5.41476
21
-3.27972
0
LINE
8
BLACK
6
CONTINUOUS
10
5.41476
20
-3.27972
11
5.41821
21
-3.27512
0
LINE
8
BLACK
6
CONTINUOUS
10
5.41821
20
-3.27512
11
5.41821
21
-3.27512
0
LINE
8
BLACK
6
CONTINUOUS
10
5.41821
20
-3.27512
11
5.42022
21
-3.26973
0
LINE
8
BLACK
6
CONTINUOUS
10
5.42022
20
-3.26973
11
5.42047
21
-3.26735
0
LINE
8
BLACK
6
CONTINUOUS
10
5.42047
20
-3.26735
11
5.42047
21
-3.26735
0
LINE
8
BLACK
6
CONTINUOUS
10
5.42047
20
-3.26735
11
5.42047
21
-3.24
0
LINE
8
BLACK
6
CONTINUOUS
10
5.42047
20
-3.24
11
5.40047
21
-3.24
0
LINE
8
BLACK
6
CONTINUOUS
10
5.40047
20
-3.24
11
5.40047
21
-3.26543
0
LINE
8
BLACK
6
CONTINUOUS
10
5.29775
20
-3.17482
11
5.29236
21
-3.17683
0
LINE
8
BLACK
6
CONTINUOUS
10
5.29236
20
-3.17683
11
5.29236
21
-3.17683
0
LINE
8
BLACK
6
CONTINUOUS
10
5.29236
20
-3.17683
11
5.28776
21
-3.18028
0
LINE
8
BLACK
6
CONTINUOUS
10
5.28776
20
-3.18028
11
5.28431
21
-3.18488
0
LINE
8
BLACK
6
CONTINUOUS
10
5.28431
20
-3.18488
11
5.28431
21
-3.18488
0
LINE
8
BLACK
6
CONTINUOUS
10
5.28431
20
-3.18488
11
5.2823
21
-3.19027
0
LINE
8
BLACK
6
CONTINUOUS
10
5.2823
20
-3.19027
11
5.28205
21
-3.19265
0
LINE
8
BLACK
6
CONTINUOUS
10
5.28205
20
-3.19265
11
5.28205
21
-3.22
0
LINE
8
BLACK
6
CONTINUOUS
10
5.28205
20
-3.22
11
5.30205
21
-3.22
0
LINE
8
BLACK
6
CONTINUOUS
10
5.30205
20
-3.22
11
5.30205
21
-3.19457
0
LINE
8
BLACK
6
CONTINUOUS
10
5.30205
20
-3.19457
11
5.34126
21
-3.19457
0
LINE
8
BLACK
6
CONTINUOUS
10
5.34126
20
-3.19457
11
5.34126
21
-3.17457
0
LINE
8
BLACK
6
CONTINUOUS
10
5.34126
20
-3.17457
11
5.30013
21
-3.17457
0
LINE
8
BLACK
6
CONTINUOUS
10
5.30013
20
-3.17457
11
5.29775
21
-3.17482
0
LINE
8
BLACK
6
CONTINUOUS
10
5.36126
20
-3.19457
11
5.40047
21
-3.19457
0
LINE
8
BLACK
6
CONTINUOUS
10
5.40047
20
-3.19457
11
5.40047
21
-3.22
0
LINE
8
BLACK
6
CONTINUOUS
10
5.40047
20
-3.22
11
5.42047
21
-3.22
0
LINE
8
BLACK
6
CONTINUOUS
10
5.42047
20
-3.22
11
5.42047
21
-3.19265
0
LINE
8
BLACK
6
CONTINUOUS
10
5.42047
20
-3.19265
11
5.42047
21
-3.19265
0
LINE
8
BLACK
6
CONTINUOUS
10
5.42047
20
-3.19265
11
5.42022
21
-3.19027
0
LINE
8
BLACK
6
CONTINUOUS
10
5.42022
20
-3.19027
11
5.41821
21
-3.18488
0
LINE
8
BLACK
6
CONTINUOUS
10
5.41821
20
-3.18488
11
5.41821
21
-3.18488
0
LINE
8
BLACK
6
CONTINUOUS
10
5.41821
20
-3.18488
11
5.41476
21
-3.18028
0
LINE
8
BLACK
6
CONTINUOUS
10
5.41476
20
-3.18028
11
5.41016
21
-3.17683
0
LINE
8
BLACK
6
CONTINUOUS
10
5.41016
20
-3.17683
11
5.40477
21
-3.17482
0
LINE
8
BLACK
6
CONTINUOUS
10
5.40477
20
-3.17482
11
5.40239
21
-3.17457
0
LINE
8
BLACK
6
CONTINUOUS
10
5.40239
20
-3.17457
11
5.36126
21
-3.17457
0
LINE
8
BLACK
6
CONTINUOUS
10
5.36126
20
-3.17457
11
5.36126
21
-3.19457
0
LINE
8
BLACK
6
CONTINUOUS
10
5.27307
20
-3.51209
11
5.27307
21
-3.51209
0
LINE
8
BLACK
6
CONTINUOUS
10
5.27307
20
-3.51209
11
5.27508
21
-3.51749
0
LINE
8
BLACK
6
CONTINUOUS
10
5.27508
20
-3.51749
11
5.27508
21
-3.51749
0
LINE
8
BLACK
6
CONTINUOUS
10
5.27508
20
-3.51749
11
5.27853
21
-3.5221
0
LINE
8
BLACK
6
CONTINUOUS
10
5.27853
20
-3.5221
11
5.28314
21
-3.52555
0
LINE
8
BLACK
6
CONTINUOUS
10
5.28314
20
-3.52555
11
5.28314
21
-3.52555
0
LINE
8
BLACK
6
CONTINUOUS
10
5.28314
20
-3.52555
11
5.28314
21
-3.52555
0
LINE
8
BLACK
6
CONTINUOUS
10
5.28314
20
-3.52555
11
5.28547
21
-3.52641
0
LINE
8
BLACK
6
CONTINUOUS
10
5.28547
20
-3.52641
11
5.28854
21
-3.52756
0
LINE
8
BLACK
6
CONTINUOUS
10
5.28854
20
-3.52756
11
5.28854
21
-3.52756
0
LINE
8
BLACK
6
CONTINUOUS
10
5.28854
20
-3.52756
11
5.29092
21
-3.52781
0
LINE
8
BLACK
6
CONTINUOUS
10
5.29092
20
-3.52781
11
5.29092
21
-3.52781
0
LINE
8
BLACK
6
CONTINUOUS
10
5.29092
20
-3.52781
11
5.29092
21
-3.52781
0
LINE
8
BLACK
6
CONTINUOUS
10
5.29092
20
-3.52781
11
5.29092
21
-3.52781
0
LINE
8
BLACK
6
CONTINUOUS
10
5.29092
20
-3.52781
11
5.35971
21
-3.52781
0
LINE
8
BLACK
6
CONTINUOUS
10
5.35971
20
-3.52781
11
5.35971
21
-3.52781
0
LINE
8
BLACK
6
CONTINUOUS
10
5.35971
20
-3.52781
11
5.35971
21
-3.52781
0
LINE
8
BLACK
6
CONTINUOUS
10
5.35971
20
-3.52781
11
5.35971
21
-3.52781
0
LINE
8
BLACK
6
CONTINUOUS
10
5.35971
20
-3.52781
11
5.36209
21
-3.52756
0
LINE
8
BLACK
6
CONTINUOUS
10
5.36209
20
-3.52756
11
5.36209
21
-3.52756
0
LINE
8
BLACK
6
CONTINUOUS
10
5.36209
20
-3.52756
11
5.36209
21
-3.52756
0
LINE
8
BLACK
6
CONTINUOUS
10
5.36209
20
-3.52756
11
5.36749
21
-3.52555
0
LINE
8
BLACK
6
CONTINUOUS
10
5.36749
20
-3.52555
11
5.36749
21
-3.52555
0
LINE
8
BLACK
6
CONTINUOUS
10
5.36749
20
-3.52555
11
5.37221
21
-3.52201
0
LINE
8
BLACK
6
CONTINUOUS
10
5.37221
20
-3.52201
11
5.37483
21
-3.52103
0
LINE
8
BLACK
6
CONTINUOUS
10
5.37483
20
-3.52103
11
5.37519
21
-3.52102
0
LINE
8
BLACK
6
CONTINUOUS
10
5.37519
20
-3.52102
11
5.45414
21
-3.52102
0
LINE
8
BLACK
6
CONTINUOUS
10
5.45414
20
-3.52102
11
5.45429
21
-3.52102
0
LINE
8
BLACK
6
CONTINUOUS
10
5.45429
20
-3.52102
11
5.45658
21
-3.52116
0
LINE
8
BLACK
6
CONTINUOUS
10
5.45658
20
-3.52116
11
5.45884
21
-3.52075
0
LINE
8
BLACK
6
CONTINUOUS
10
5.45884
20
-3.52075
11
5.45899
21
-3.52073
0
LINE
8
BLACK
6
CONTINUOUS
10
5.45899
20
-3.52073
11
5.46127
21
-3.52045
0
LINE
8
BLACK
6
CONTINUOUS
10
5.46127
20
-3.52045
11
5.46159
21
-3.52033
0
LINE
8
BLACK
6
CONTINUOUS
10
5.46159
20
-3.52033
11
5.46246
21
-3.52009
0
LINE
8
BLACK
6
CONTINUOUS
10
5.46246
20
-3.52009
11
5.4628
21
-3.52002
0
LINE
8
BLACK
6
CONTINUOUS
10
5.4628
20
-3.52002
11
5.46489
21
-3.51908
0
LINE
8
BLACK
6
CONTINUOUS
10
5.46489
20
-3.51908
11
5.46503
21
-3.51902
0
LINE
8
BLACK
6
CONTINUOUS
10
5.46503
20
-3.51902
11
5.46551
21
-3.51884
0
LINE
8
BLACK
6
CONTINUOUS
10
5.46551
20
-3.51884
11
5.46718
21
-3.51821
0
LINE
8
BLACK
6
CONTINUOUS
10
5.46718
20
-3.51821
11
5.46746
21
-3.51801
0
LINE
8
BLACK
6
CONTINUOUS
10
5.46746
20
-3.51801
11
5.46825
21
-3.51757
0
LINE
8
BLACK
6
CONTINUOUS
10
5.46825
20
-3.51757
11
5.46856
21
-3.51743
0
LINE
8
BLACK
6
CONTINUOUS
10
5.46856
20
-3.51743
11
5.47037
21
-3.51601
0
LINE
8
BLACK
6
CONTINUOUS
10
5.47037
20
-3.51601
11
5.47049
21
-3.51593
0
LINE
8
BLACK
6
CONTINUOUS
10
5.47049
20
-3.51593
11
5.47238
21
-3.51462
0
LINE
8
BLACK
6
CONTINUOUS
10
5.47238
20
-3.51462
11
5.47391
21
-3.5129
0
LINE
8
BLACK
6
CONTINUOUS
10
5.47391
20
-3.5129
11
5.47401
21
-3.51279
0
LINE
8
BLACK
6
CONTINUOUS
10
5.47401
20
-3.51279
11
5.49958
21
-3.48722
0
LINE
8
BLACK
6
CONTINUOUS
10
5.49958
20
-3.48722
11
5.50203
21
-3.48588
0
LINE
8
BLACK
6
CONTINUOUS
10
5.50203
20
-3.48588
11
5.50308
21
-3.48577
0
LINE
8
BLACK
6
CONTINUOUS
10
5.50308
20
-3.48577
11
5.50376
21
-3.48577
0
LINE
8
BLACK
6
CONTINUOUS
10
5.50376
20
-3.48577
11
5.51111
21
-3.4842
0
LINE
8
BLACK
6
CONTINUOUS
10
5.51111
20
-3.4842
11
5.51798
21
-3.48115
0
LINE
8
BLACK
6
CONTINUOUS
10
5.51798
20
-3.48115
11
5.52407
21
-3.47673
0
LINE
8
BLACK
6
CONTINUOUS
10
5.52407
20
-3.47673
11
5.52407
21
-3.47673
0
LINE
8
BLACK
6
CONTINUOUS
10
5.52407
20
-3.47673
11
5.5291
21
-3.47114
0
LINE
8
BLACK
6
CONTINUOUS
10
5.5291
20
-3.47114
11
5.5291
21
-3.47114
0
LINE
8
BLACK
6
CONTINUOUS
10
5.5291
20
-3.47114
11
5.5291
21
-3.47114
0
LINE
8
BLACK
6
CONTINUOUS
10
5.5291
20
-3.47114
11
5.53286
21
-3.46463
0
LINE
8
BLACK
6
CONTINUOUS
10
5.53286
20
-3.46463
11
5.53518
21
-3.45748
0
LINE
8
BLACK
6
CONTINUOUS
10
5.53518
20
-3.45748
11
5.53596
21
-3.45
0
LINE
8
BLACK
6
CONTINUOUS
10
5.53596
20
-3.45
11
5.53518
21
-3.44252
0
LINE
8
BLACK
6
CONTINUOUS
10
5.53518
20
-3.44252
11
5.53286
21
-3.43537
0
LINE
8
BLACK
6
CONTINUOUS
10
5.53286
20
-3.43537
11
5.5291
21
-3.42886
0
LINE
8
BLACK
6
CONTINUOUS
10
5.5291
20
-3.42886
11
5.5291
21
-3.42886
0
LINE
8
BLACK
6
CONTINUOUS
10
5.5291
20
-3.42886
11
5.5291
21
-3.42886
0
LINE
8
BLACK
6
CONTINUOUS
10
5.5291
20
-3.42886
11
5.52407
21
-3.42327
0
LINE
8
BLACK
6
CONTINUOUS
10
5.52407
20
-3.42327
11
5.51798
21
-3.41885
0
LINE
8
BLACK
6
CONTINUOUS
10
5.51798
20
-3.41885
11
5.51111
21
-3.4158
0
LINE
8
BLACK
6
CONTINUOUS
10
5.51111
20
-3.4158
11
5.50351
21
-3.41418
0
LINE
8
BLACK
6
CONTINUOUS
10
5.50351
20
-3.41418
11
5.50353
21
-3.41407
0
LINE
8
BLACK
6
CONTINUOUS
10
5.50353
20
-3.41407
11
5.50139
21
-3.41319
0
LINE
8
BLACK
6
CONTINUOUS
10
5.50139
20
-3.41319
11
5.49979
21
-3.4109
0
LINE
8
BLACK
6
CONTINUOUS
10
5.49979
20
-3.4109
11
5.49968
21
-3.40811
0
LINE
8
BLACK
6
CONTINUOUS
10
5.49968
20
-3.40811
11
5.50098
21
-3.40581
0
LINE
8
BLACK
6
CONTINUOUS
10
5.50098
20
-3.40581
11
5.55372
21
-3.35308
0
LINE
8
BLACK
6
CONTINUOUS
10
5.55372
20
-3.35308
11
5.55617
21
-3.35174
0
LINE
8
BLACK
6
CONTINUOUS
10
5.55617
20
-3.35174
11
5.55896
21
-3.35194
0
LINE
8
BLACK
6
CONTINUOUS
10
5.55896
20
-3.35194
11
5.5612
21
-3.35362
0
LINE
8
BLACK
6
CONTINUOUS
10
5.5612
20
-3.35362
11
5.56217
21
-3.35623
0
LINE
8
BLACK
6
CONTINUOUS
10
5.56217
20
-3.35623
11
5.56219
21
-3.35659
0
LINE
8
BLACK
6
CONTINUOUS
10
5.56219
20
-3.35659
11
5.56219
21
-3.35971
0
LINE
8
BLACK
6
CONTINUOUS
10
5.56219
20
-3.35971
11
5.56244
21
-3.36209
0
LINE
8
BLACK
6
CONTINUOUS
10
5.56244
20
-3.36209
11
5.56244
21
-3.36209
0
LINE
8
BLACK
6
CONTINUOUS
10
5.56244
20
-3.36209
11
5.56445
21
-3.36749
0
LINE
8
BLACK
6
CONTINUOUS
10
5.56445
20
-3.36749
11
5.56453
21
-3.36762
0
LINE
8
BLACK
6
CONTINUOUS
10
5.56453
20
-3.36762
11
5.56456
21
-3.36777
0
LINE
8
BLACK
6
CONTINUOUS
10
5.56456
20
-3.36777
11
5.56458
21
-3.36782
0
LINE
8
BLACK
6
CONTINUOUS
10
5.56458
20
-3.36782
11
5.56457
21
-3.36782
0
LINE
8
BLACK
6
CONTINUOUS
10
5.56457
20
-3.36782
11
5.56512
21
-3.37035
0
LINE
8
BLACK
6
CONTINUOUS
10
5.56512
20
-3.37035
11
5.56453
21
-3.37238
0
LINE
8
BLACK
6
CONTINUOUS
10
5.56453
20
-3.37238
11
5.56445
21
-3.37251
0
LINE
8
BLACK
6
CONTINUOUS
10
5.56445
20
-3.37251
11
5.56244
21
-3.37791
0
LINE
8
BLACK
6
CONTINUOUS
10
5.56244
20
-3.37791
11
5.56244
21
-3.37791
0
LINE
8
BLACK
6
CONTINUOUS
10
5.56244
20
-3.37791
11
5.56219
21
-3.38029
0
LINE
8
BLACK
6
CONTINUOUS
10
5.56219
20
-3.38029
11
5.56219
21
-3.40971
0
LINE
8
BLACK
6
CONTINUOUS
10
5.56219
20
-3.40971
11
5.56244
21
-3.41209
0
LINE
8
BLACK
6
CONTINUOUS
10
5.56244
20
-3.41209
11
5.56244
21
-3.41209
0
LINE
8
BLACK
6
CONTINUOUS
10
5.56244
20
-3.41209
11
5.56445
21
-3.41749
0
LINE
8
BLACK
6
CONTINUOUS
10
5.56445
20
-3.41749
11
5.56453
21
-3.41762
0
LINE
8
BLACK
6
CONTINUOUS
10
5.56453
20
-3.41762
11
5.56456
21
-3.41777
0
LINE
8
BLACK
6
CONTINUOUS
10
5.56456
20
-3.41777
11
5.56458
21
-3.41782
0
LINE
8
BLACK
6
CONTINUOUS
10
5.56458
20
-3.41782
11
5.56457
21
-3.41782
0
LINE
8
BLACK
6
CONTINUOUS
10
5.56457
20
-3.41782
11
5.56512
21
-3.42035
0
LINE
8
BLACK
6
CONTINUOUS
10
5.56512
20
-3.42035
11
5.56453
21
-3.42238
0
LINE
8
BLACK
6
CONTINUOUS
10
5.56453
20
-3.42238
11
5.56445
21
-3.42251
0
LINE
8
BLACK
6
CONTINUOUS
10
5.56445
20
-3.42251
11
5.56244
21
-3.42791
0
LINE
8
BLACK
6
CONTINUOUS
10
5.56244
20
-3.42791
11
5.56244
21
-3.42791
0
LINE
8
BLACK
6
CONTINUOUS
10
5.56244
20
-3.42791
11
5.56219
21
-3.43029
0
LINE
8
BLACK
6
CONTINUOUS
10
5.56219
20
-3.43029
11
5.56219
21
-3.45971
0
LINE
8
BLACK
6
CONTINUOUS
10
5.56219
20
-3.45971
11
5.56244
21
-3.46209
0
LINE
8
BLACK
6
CONTINUOUS
10
5.56244
20
-3.46209
11
5.56244
21
-3.46209
0
LINE
8
BLACK
6
CONTINUOUS
10
5.56244
20
-3.46209
11
5.56445
21
-3.46749
0
LINE
8
BLACK
6
CONTINUOUS
10
5.56445
20
-3.46749
11
5.56453
21
-3.46762
0
LINE
8
BLACK
6
CONTINUOUS
10
5.56453
20
-3.46762
11
5.56456
21
-3.46777
0
LINE
8
BLACK
6
CONTINUOUS
10
5.56456
20
-3.46777
11
5.56458
21
-3.46782
0
LINE
8
BLACK
6
CONTINUOUS
10
5.56458
20
-3.46782
11
5.56457
21
-3.46782
0
LINE
8
BLACK
6
CONTINUOUS
10
5.56457
20
-3.46782
11
5.56512
21
-3.47035
0
LINE
8
BLACK
6
CONTINUOUS
10
5.56512
20
-3.47035
11
5.56453
21
-3.47238
0
LINE
8
BLACK
6
CONTINUOUS
10
5.56453
20
-3.47238
11
5.56445
21
-3.47251
0
LINE
8
BLACK
6
CONTINUOUS
10
5.56445
20
-3.47251
11
5.56244
21
-3.47791
0
LINE
8
BLACK
6
CONTINUOUS
10
5.56244
20
-3.47791
11
5.56244
21
-3.47791
0
LINE
8
BLACK
6
CONTINUOUS
10
5.56244
20
-3.47791
11
5.56219
21
-3.48029
0
LINE
8
BLACK
6
CONTINUOUS
10
5.56219
20
-3.48029
11
5.56219
21
-3.50971
0
LINE
8
BLACK
6
CONTINUOUS
10
5.56219
20
-3.50971
11
5.56244
21
-3.51209
0
LINE
8
BLACK
6
CONTINUOUS
10
5.56244
20
-3.51209
11
5.56244
21
-3.51209
0
LINE
8
BLACK
6
CONTINUOUS
10
5.56244
20
-3.51209
11
5.56445
21
-3.51749
0
LINE
8
BLACK
6
CONTINUOUS
10
5.56445
20
-3.51749
11
5.56445
21
-3.51749
0
LINE
8
BLACK
6
CONTINUOUS
10
5.56445
20
-3.51749
11
5.5679
21
-3.5221
0
LINE
8
BLACK
6
CONTINUOUS
10
5.5679
20
-3.5221
11
5.56874
21
-3.52272
0
LINE
8
BLACK
6
CONTINUOUS
10
5.56874
20
-3.52272
11
5.57042
21
-3.52496
0
LINE
8
BLACK
6
CONTINUOUS
10
5.57042
20
-3.52496
11
5.57062
21
-3.52775
0
LINE
8
BLACK
6
CONTINUOUS
10
5.57062
20
-3.52775
11
5.56928
21
-3.5302
0
LINE
8
BLACK
6
CONTINUOUS
10
5.56928
20
-3.5302
11
5.56682
21
-3.53154
0
LINE
8
BLACK
6
CONTINUOUS
10
5.56682
20
-3.53154
11
5.56627
21
-3.53163
0
LINE
8
BLACK
6
CONTINUOUS
10
5.56627
20
-3.53163
11
5.56408
21
-3.53185
0
LINE
8
BLACK
6
CONTINUOUS
10
5.56408
20
-3.53185
11
5.55745
21
-3.53405
0
LINE
8
BLACK
6
CONTINUOUS
10
5.55745
20
-3.53405
11
5.55151
21
-3.53772
0
LINE
8
BLACK
6
CONTINUOUS
10
5.55151
20
-3.53772
11
5.55151
21
-3.53772
0
LINE
8
BLACK
6
CONTINUOUS
10
5.55151
20
-3.53772
11
5.54657
21
-3.54265
0
LINE
8
BLACK
6
CONTINUOUS
10
5.54657
20
-3.54265
11
5.54648
21
-3.54277
0
LINE
8
BLACK
6
CONTINUOUS
10
5.54648
20
-3.54277
11
5.54639
21
-3.54284
0
LINE
8
BLACK
6
CONTINUOUS
10
5.54639
20
-3.54284
11
5.54637
21
-3.54286
0
LINE
8
BLACK
6
CONTINUOUS
10
5.54637
20
-3.54286
11
5.54637
21
-3.54285
0
LINE
8
BLACK
6
CONTINUOUS
10
5.54637
20
-3.54285
11
5.5442
21
-3.54439
0
LINE
8
BLACK
6
CONTINUOUS
10
5.5442
20
-3.54439
11
5.5414
21
-3.54451
0
LINE
8
BLACK
6
CONTINUOUS
10
5.5414
20
-3.54451
11
5.53899
21
-3.54311
0
LINE
8
BLACK
6
CONTINUOUS
10
5.53899
20
-3.54311
11
5.53869
21
-3.54277
0
LINE
8
BLACK
6
CONTINUOUS
10
5.53869
20
-3.54277
11
5.53861
21
-3.54266
0
LINE
8
BLACK
6
CONTINUOUS
10
5.53861
20
-3.54266
11
5.53367
21
-3.53773
0
LINE
8
BLACK
6
CONTINUOUS
10
5.53367
20
-3.53773
11
5.53367
21
-3.53773
0
LINE
8
BLACK
6
CONTINUOUS
10
5.53367
20
-3.53773
11
5.52774
21
-3.53407
0
LINE
8
BLACK
6
CONTINUOUS
10
5.52774
20
-3.53407
11
5.52111
21
-3.53187
0
LINE
8
BLACK
6
CONTINUOUS
10
5.52111
20
-3.53187
11
5.52111
21
-3.53187
0
LINE
8
BLACK
6
CONTINUOUS
10
5.52111
20
-3.53187
11
5.51703
21
-3.53146
0
LINE
8
BLACK
6
CONTINUOUS
10
5.51703
20
-3.53146
11
5.5152
21
-3.53146
0
LINE
8
BLACK
6
CONTINUOUS
10
5.5152
20
-3.53146
11
5.5152
21
-3.55149
0
LINE
8
BLACK
6
CONTINUOUS
10
5.5152
20
-3.55149
11
5.51881
21
-3.55221
0
LINE
8
BLACK
6
CONTINUOUS
10
5.51881
20
-3.55221
11
5.522
21
-3.55434
0
LINE
8
BLACK
6
CONTINUOUS
10
5.522
20
-3.55434
11
5.52413
21
-3.55753
0
LINE
8
BLACK
6
CONTINUOUS
10
5.52413
20
-3.55753
11
5.52488
21
-3.5613
0
LINE
8
BLACK
6
CONTINUOUS
10
5.52488
20
-3.5613
11
5.52488
21
-3.5987
0
LINE
8
BLACK
6
CONTINUOUS
10
5.52488
20
-3.5987
11
5.52413
21
-3.60247
0
LINE
8
BLACK
6
CONTINUOUS
10
5.52413
20
-3.60247
11
5.522
21
-3.60566
0
LINE
8
BLACK
6
CONTINUOUS
10
5.522
20
-3.60566
11
5.51881
21
-3.60779
0
LINE
8
BLACK
6
CONTINUOUS
10
5.51881
20
-3.60779
11
5.5152
21
-3.60851
0
LINE
8
BLACK
6
CONTINUOUS
10
5.5152
20
-3.60851
11
5.5152
21
-3.62854
0
LINE
8
BLACK
6
CONTINUOUS
10
5.5152
20
-3.62854
11
5.51703
21
-3.62854
0
LINE
8
BLACK
6
CONTINUOUS
10
5.51703
20
-3.62854
11
5.51822
21
-3.62842
0
LINE
8
BLACK
6
CONTINUOUS
10
5.51822
20
-3.62842
11
5.52097
21
-3.62893
0
LINE
8
BLACK
6
CONTINUOUS
10
5.52097
20
-3.62893
11
5.523
21
-3.63085
0
LINE
8
BLACK
6
CONTINUOUS
10
5.523
20
-3.63085
11
5.52368
21
-3.63356
0
LINE
8
BLACK
6
CONTINUOUS
10
5.52368
20
-3.63356
11
5.52343
21
-3.63492
0
LINE
8
BLACK
6
CONTINUOUS
10
5.52343
20
-3.63492
11
5.52333
21
-3.63522
0
LINE
8
BLACK
6
CONTINUOUS
10
5.52333
20
-3.63522
11
5.52333
21
-3.63522
0
LINE
8
BLACK
6
CONTINUOUS
10
5.52333
20
-3.63522
11
5.52291
21
-3.63931
0
LINE
8
BLACK
6
CONTINUOUS
10
5.52291
20
-3.63931
11
5.52291
21
-3.65
0
LINE
8
BLACK
6
CONTINUOUS
10
5.52291
20
-3.65
11
5.54291
21
-3.65
0
LINE
8
BLACK
6
CONTINUOUS
10
5.54291
20
-3.65
11
5.54291
21
-3.6413
0
LINE
8
BLACK
6
CONTINUOUS
10
5.54291
20
-3.6413
11
5.54366
21
-3.63753
0
LINE
8
BLACK
6
CONTINUOUS
10
5.54366
20
-3.63753
11
5.5458
21
-3.63434
0
LINE
8
BLACK
6
CONTINUOUS
10
5.5458
20
-3.63434
11
5.54899
21
-3.63221
0
LINE
8
BLACK
6
CONTINUOUS
10
5.54899
20
-3.63221
11
5.55276
21
-3.63146
0
LINE
8
BLACK
6
CONTINUOUS
10
5.55276
20
-3.63146
11
5.57244
21
-3.63146
0
LINE
8
BLACK
6
CONTINUOUS
10
5.57244
20
-3.63146
11
5.57621
21
-3.63221
0
LINE
8
BLACK
6
CONTINUOUS
10
5.57621
20
-3.63221
11
5.5794
21
-3.63434
0
LINE
8
BLACK
6
CONTINUOUS
10
5.5794
20
-3.63434
11
5.58153
21
-3.63753
0
LINE
8
BLACK
6
CONTINUOUS
10
5.58153
20
-3.63753
11
5.58228
21
-3.6413
0
LINE
8
BLACK
6
CONTINUOUS
10
5.58228
20
-3.6413
11
5.58228
21
-3.6787
0
LINE
8
BLACK
6
CONTINUOUS
10
5.58228
20
-3.6787
11
5.58153
21
-3.68247
0
LINE
8
BLACK
6
CONTINUOUS
10
5.58153
20
-3.68247
11
5.5794
21
-3.68566
0
LINE
8
BLACK
6
CONTINUOUS
10
5.5794
20
-3.68566
11
5.57621
21
-3.68779
0
LINE
8
BLACK
6
CONTINUOUS
10
5.57621
20
-3.68779
11
5.5726
21
-3.68851
0
LINE
8
BLACK
6
CONTINUOUS
10
5.5726
20
-3.68851
11
5.5726
21
-3.70854
0
LINE
8
BLACK
6
CONTINUOUS
10
5.5726
20
-3.70854
11
5.57443
21
-3.70854
0
LINE
8
BLACK
6
CONTINUOUS
10
5.57443
20
-3.70854
11
5.57443
21
-3.70854
0
LINE
8
BLACK
6
CONTINUOUS
10
5.57443
20
-3.70854
11
5.57852
21
-3.70813
0
LINE
8
BLACK
6
CONTINUOUS
10
5.57852
20
-3.70813
11
5.57852
21
-3.70813
0
LINE
8
BLACK
6
CONTINUOUS
10
5.57852
20
-3.70813
11
5.58514
21
-3.70593
0
LINE
8
BLACK
6
CONTINUOUS
10
5.58514
20
-3.70593
11
5.59108
21
-3.70227
0
LINE
8
BLACK
6
CONTINUOUS
10
5.59108
20
-3.70227
11
5.59108
21
-3.70227
0
LINE
8
BLACK
6
CONTINUOUS
10
5.59108
20
-3.70227
11
5.59601
21
-3.69734
0
LINE
8
BLACK
6
CONTINUOUS
10
5.59601
20
-3.69734
11
5.5961
21
-3.69723
0
LINE
8
BLACK
6
CONTINUOUS
10
5.5961
20
-3.69723
11
5.59617
21
-3.69717
0
LINE
8
BLACK
6
CONTINUOUS
10
5.59617
20
-3.69717
11
5.59621
21
-3.69713
0
LINE
8
BLACK
6
CONTINUOUS
10
5.59621
20
-3.69713
11
5.59622
21
-3.69714
0
LINE
8
BLACK
6
CONTINUOUS
10
5.59622
20
-3.69714
11
5.59838
21
-3.69561
0
LINE
8
BLACK
6
CONTINUOUS
10
5.59838
20
-3.69561
11
5.60117
21
-3.69549
0
LINE
8
BLACK
6
CONTINUOUS
10
5.60117
20
-3.69549
11
5.60359
21
-3.69689
0
LINE
8
BLACK
6
CONTINUOUS
10
5.60359
20
-3.69689
11
5.60388
21
-3.69723
0
LINE
8
BLACK
6
CONTINUOUS
10
5.60388
20
-3.69723
11
5.60398
21
-3.69735
0
LINE
8
BLACK
6
CONTINUOUS
10
5.60398
20
-3.69735
11
5.60891
21
-3.70228
0
LINE
8
BLACK
6
CONTINUOUS
10
5.60891
20
-3.70228
11
5.60891
21
-3.70228
0
LINE
8
BLACK
6
CONTINUOUS
10
5.60891
20
-3.70228
11
5.60891
21
-3.70228
0
LINE
8
BLACK
6
CONTINUOUS
10
5.60891
20
-3.70228
11
5.61485
21
-3.70595
0
LINE
8
BLACK
6
CONTINUOUS
10
5.61485
20
-3.70595
11
5.62148
21
-3.70815
0
LINE
8
BLACK
6
CONTINUOUS
10
5.62148
20
-3.70815
11
5.62557
21
-3.70856
0
LINE
8
BLACK
6
CONTINUOUS
10
5.62557
20
-3.70856
11
5.64923
21
-3.70856
0
LINE
8
BLACK
6
CONTINUOUS
10
5.64923
20
-3.70856
11
5.65332
21
-3.70815
0
LINE
8
BLACK
6
CONTINUOUS
10
5.65332
20
-3.70815
11
5.65995
21
-3.70595
0
LINE
8
BLACK
6
CONTINUOUS
10
5.65995
20
-3.70595
11
5.66589
21
-3.70228
0
LINE
8
BLACK
6
CONTINUOUS
10
5.66589
20
-3.70228
11
5.67083
21
-3.69735
0
LINE
8
BLACK
6
CONTINUOUS
10
5.67083
20
-3.69735
11
5.67449
21
-3.69141
0
LINE
8
BLACK
6
CONTINUOUS
10
5.67449
20
-3.69141
11
5.67468
21
-3.69083
0
LINE
8
BLACK
6
CONTINUOUS
10
5.67468
20
-3.69083
11
5.67515
21
-3.68942
0
LINE
8
BLACK
6
CONTINUOUS
10
5.67515
20
-3.68942
11
5.67674
21
-3.68712
0
LINE
8
BLACK
6
CONTINUOUS
10
5.67674
20
-3.68712
11
5.67932
21
-3.68605
0
LINE
8
BLACK
6
CONTINUOUS
10
5.67932
20
-3.68605
11
5.67986
21
-3.68602
0
LINE
8
BLACK
6
CONTINUOUS
10
5.67986
20
-3.68602
11
5.68914
21
-3.68602
0
LINE
8
BLACK
6
CONTINUOUS
10
5.68914
20
-3.68602
11
5.68929
21
-3.68602
0
LINE
8
BLACK
6
CONTINUOUS
10
5.68929
20
-3.68602
11
5.69158
21
-3.68616
0
LINE
8
BLACK
6
CONTINUOUS
10
5.69158
20
-3.68616
11
5.69384
21
-3.68575
0
LINE
8
BLACK
6
CONTINUOUS
10
5.69384
20
-3.68575
11
5.69399
21
-3.68573
0
LINE
8
BLACK
6
CONTINUOUS
10
5.69399
20
-3.68573
11
5.69627
21
-3.68545
0
LINE
8
BLACK
6
CONTINUOUS
10
5.69627
20
-3.68545
11
5.69659
21
-3.68533
0
LINE
8
BLACK
6
CONTINUOUS
10
5.69659
20
-3.68533
11
5.69746
21
-3.68509
0
LINE
8
BLACK
6
CONTINUOUS
10
5.69746
20
-3.68509
11
5.6978
21
-3.68502
0
LINE
8
BLACK
6
CONTINUOUS
10
5.6978
20
-3.68502
11
5.69989
21
-3.68408
0
LINE
8
BLACK
6
CONTINUOUS
10
5.69989
20
-3.68408
11
5.70003
21
-3.68402
0
LINE
8
BLACK
6
CONTINUOUS
10
5.70003
20
-3.68402
11
5.70051
21
-3.68384
0
LINE
8
BLACK
6
CONTINUOUS
10
5.70051
20
-3.68384
11
5.70218
21
-3.68321
0
LINE
8
BLACK
6
CONTINUOUS
10
5.70218
20
-3.68321
11
5.70246
21
-3.68301
0
LINE
8
BLACK
6
CONTINUOUS
10
5.70246
20
-3.68301
11
5.70325
21
-3.68257
0
LINE
8
BLACK
6
CONTINUOUS
10
5.70325
20
-3.68257
11
5.70356
21
-3.68243
0
LINE
8
BLACK
6
CONTINUOUS
10
5.70356
20
-3.68243
11
5.70537
21
-3.68101
0
LINE
8
BLACK
6
CONTINUOUS
10
5.70537
20
-3.68101
11
5.70549
21
-3.68093
0
LINE
8
BLACK
6
CONTINUOUS
10
5.70549
20
-3.68093
11
5.70738
21
-3.67962
0
LINE
8
BLACK
6
CONTINUOUS
10
5.70738
20
-3.67962
11
5.70891
21
-3.6779
0
LINE
8
BLACK
6
CONTINUOUS
10
5.70891
20
-3.6779
11
5.70901
21
-3.67779
0
LINE
8
BLACK
6
CONTINUOUS
10
5.70901
20
-3.67779
11
5.73932
21
-3.64747
0
LINE
8
BLACK
6
CONTINUOUS
10
5.73932
20
-3.64747
11
5.74178
21
-3.64613
0
LINE
8
BLACK
6
CONTINUOUS
10
5.74178
20
-3.64613
11
5.74283
21
-3.64602
0
LINE
8
BLACK
6
CONTINUOUS
10
5.74283
20
-3.64602
11
5.87914
21
-3.64602
0
LINE
8
BLACK
6
CONTINUOUS
10
5.87914
20
-3.64602
11
5.87929
21
-3.64602
0
LINE
8
BLACK
6
CONTINUOUS
10
5.87929
20
-3.64602
11
5.88158
21
-3.64616
0
LINE
8
BLACK
6
CONTINUOUS
10
5.88158
20
-3.64616
11
5.88384
21
-3.64575
0
LINE
8
BLACK
6
CONTINUOUS
10
5.88384
20
-3.64575
11
5.88399
21
-3.64573
0
LINE
8
BLACK
6
CONTINUOUS
10
5.88399
20
-3.64573
11
5.88627
21
-3.64545
0
LINE
8
BLACK
6
CONTINUOUS
10
5.88627
20
-3.64545
11
5.88659
21
-3.64533
0
LINE
8
BLACK
6
CONTINUOUS
10
5.88659
20
-3.64533
11
5.88746
21
-3.64509
0
LINE
8
BLACK
6
CONTINUOUS
10
5.88746
20
-3.64509
11
5.8878
21
-3.64502
0
LINE
8
BLACK
6
CONTINUOUS
10
5.8878
20
-3.64502
11
5.88989
21
-3.64408
0
LINE
8
BLACK
6
CONTINUOUS
10
5.88989
20
-3.64408
11
5.89003
21
-3.64402
0
LINE
8
BLACK
6
CONTINUOUS
10
5.89003
20
-3.64402
11
5.89051
21
-3.64384
0
LINE
8
BLACK
6
CONTINUOUS
10
5.89051
20
-3.64384
11
5.89218
21
-3.64321
0
LINE
8
BLACK
6
CONTINUOUS
10
5.89218
20
-3.64321
11
5.89246
21
-3.64301
0
LINE
8
BLACK
6
CONTINUOUS
10
5.89246
20
-3.64301
11
5.89325
21
-3.64257
0
LINE
8
BLACK
6
CONTINUOUS
10
5.89325
20
-3.64257
11
5.89356
21
-3.64243
0
LINE
8
BLACK
6
CONTINUOUS
10
5.89356
20
-3.64243
11
5.89537
21
-3.64101
0
LINE
8
BLACK
6
CONTINUOUS
10
5.89537
20
-3.64101
11
5.89549
21
-3.64093
0
LINE
8
BLACK
6
CONTINUOUS
10
5.89549
20
-3.64093
11
5.89738
21
-3.63962
0
LINE
8
BLACK
6
CONTINUOUS
10
5.89738
20
-3.63962
11
5.89891
21
-3.6379
0
LINE
8
BLACK
6
CONTINUOUS
10
5.89891
20
-3.6379
11
5.89901
21
-3.63779
0
LINE
8
BLACK
6
CONTINUOUS
10
5.89901
20
-3.63779
11
5.92779
21
-3.60901
0
LINE
8
BLACK
6
CONTINUOUS
10
5.92779
20
-3.60901
11
5.9279
21
-3.60891
0
LINE
8
BLACK
6
CONTINUOUS
10
5.9279
20
-3.60891
11
5.92962
21
-3.60738
0
LINE
8
BLACK
6
CONTINUOUS
10
5.92962
20
-3.60738
11
5.93093
21
-3.60549
0
LINE
8
BLACK
6
CONTINUOUS
10
5.93093
20
-3.60549
11
5.93101
21
-3.60537
0
LINE
8
BLACK
6
CONTINUOUS
10
5.93101
20
-3.60537
11
5.93243
21
-3.60356
0
LINE
8
BLACK
6
CONTINUOUS
10
5.93243
20
-3.60356
11
5.93257
21
-3.60325
0
LINE
8
BLACK
6
CONTINUOUS
10
5.93257
20
-3.60325
11
5.93301
21
-3.60246
0
LINE
8
BLACK
6
CONTINUOUS
10
5.93301
20
-3.60246
11
5.93321
21
-3.60218
0
LINE
8
BLACK
6
CONTINUOUS
10
5.93321
20
-3.60218
11
5.93402
21
-3.60003
0
LINE
8
BLACK
6
CONTINUOUS
10
5.93402
20
-3.60003
11
5.93408
21
-3.59989
0
LINE
8
BLACK
6
CONTINUOUS
10
5.93408
20
-3.59989
11
5.93438
21
-3.59923
0
LINE
8
BLACK
6
CONTINUOUS
10
5.93438
20
-3.59923
11
5.93502
21
-3.5978
0
LINE
8
BLACK
6
CONTINUOUS
10
5.93502
20
-3.5978
11
5.93509
21
-3.59746
0
LINE
8
BLACK
6
CONTINUOUS
10
5.93509
20
-3.59746
11
5.93533
21
-3.59659
0
LINE
8
BLACK
6
CONTINUOUS
10
5.93533
20
-3.59659
11
5.93545
21
-3.59627
0
LINE
8
BLACK
6
CONTINUOUS
10
5.93545
20
-3.59627
11
5.93573
21
-3.59399
0
LINE
8
BLACK
6
CONTINUOUS
10
5.93573
20
-3.59399
11
5.93575
21
-3.59384
0
LINE
8
BLACK
6
CONTINUOUS
10
5.93575
20
-3.59384
11
5.93616
21
-3.59158
0
LINE
8
BLACK
6
CONTINUOUS
10
5.93616
20
-3.59158
11
5.93602
21
-3.58929
0
LINE
8
BLACK
6
CONTINUOUS
10
5.93602
20
-3.58929
11
5.93602
21
-3.58914
0
LINE
8
BLACK
6
CONTINUOUS
10
5.93602
20
-3.58914
11
5.93602
21
-3.31086
0
LINE
8
BLACK
6
CONTINUOUS
10
5.93602
20
-3.31086
11
5.93602
21
-3.31071
0
LINE
8
BLACK
6
CONTINUOUS
10
5.93602
20
-3.31071
11
5.93616
21
-3.30842
0
LINE
8
BLACK
6
CONTINUOUS
10
5.93616
20
-3.30842
11
5.93575
21
-3.30616
0
LINE
8
BLACK
6
CONTINUOUS
10
5.93575
20
-3.30616
11
5.93573
21
-3.30601
0
LINE
8
BLACK
6
CONTINUOUS
10
5.93573
20
-3.30601
11
5.93545
21
-3.30373
0
LINE
8
BLACK
6
CONTINUOUS
10
5.93545
20
-3.30373
11
5.93533
21
-3.30341
0
LINE
8
BLACK
6
CONTINUOUS
10
5.93533
20
-3.30341
11
5.93509
21
-3.30254
0
LINE
8
BLACK
6
CONTINUOUS
10
5.93509
20
-3.30254
11
5.93502
21
-3.3022
0
LINE
8
BLACK
6
CONTINUOUS
10
5.93502
20
-3.3022
11
5.93408
21
-3.30011
0
LINE
8
BLACK
6
CONTINUOUS
10
5.93408
20
-3.30011
11
5.93402
21
-3.29997
0
LINE
8
BLACK
6
CONTINUOUS
10
5.93402
20
-3.29997
11
5.93376
21
-3.29927
0
LINE
8
BLACK
6
CONTINUOUS
10
5.93376
20
-3.29927
11
5.93321
21
-3.29782
0
LINE
8
BLACK
6
CONTINUOUS
10
5.93321
20
-3.29782
11
5.93301
21
-3.29754
0
LINE
8
BLACK
6
CONTINUOUS
10
5.93301
20
-3.29754
11
5.93257
21
-3.29675
0
LINE
8
BLACK
6
CONTINUOUS
10
5.93257
20
-3.29675
11
5.93243
21
-3.29644
0
LINE
8
BLACK
6
CONTINUOUS
10
5.93243
20
-3.29644
11
5.93243
21
-3.29644
0
LINE
8
BLACK
6
CONTINUOUS
10
5.93243
20
-3.29644
11
5.93165
21
-3.29544
0
LINE
8
BLACK
6
CONTINUOUS
10
5.93165
20
-3.29544
11
5.93101
21
-3.29463
0
LINE
8
BLACK
6
CONTINUOUS
10
5.93101
20
-3.29463
11
5.93092
21
-3.29451
0
LINE
8
BLACK
6
CONTINUOUS
10
5.93092
20
-3.29451
11
5.9302
21
-3.29346
0
LINE
8
BLACK
6
CONTINUOUS
10
5.9302
20
-3.29346
11
5.92962
21
-3.29262
0
LINE
8
BLACK
6
CONTINUOUS
10
5.92962
20
-3.29262
11
5.9279
21
-3.29109
0
LINE
8
BLACK
6
CONTINUOUS
10
5.9279
20
-3.29109
11
5.92779
21
-3.29099
0
LINE
8
BLACK
6
CONTINUOUS
10
5.92779
20
-3.29099
11
5.90147
21
-3.26468
0
LINE
8
BLACK
6
CONTINUOUS
10
5.90147
20
-3.26468
11
5.90013
21
-3.26222
0
LINE
8
BLACK
6
CONTINUOUS
10
5.90013
20
-3.26222
11
5.90002
21
-3.26117
0
LINE
8
BLACK
6
CONTINUOUS
10
5.90002
20
-3.26117
11
5.90002
21
-3.21809
0
LINE
8
BLACK
6
CONTINUOUS
10
5.90002
20
-3.21809
11
5.90002
21
-3.21808
0
LINE
8
BLACK
6
CONTINUOUS
10
5.90002
20
-3.21808
11
5.89976
21
-3.2157
0
LINE
8
BLACK
6
CONTINUOUS
10
5.89976
20
-3.2157
11
5.89976
21
-3.2157
0
LINE
8
BLACK
6
CONTINUOUS
10
5.89976
20
-3.2157
11
5.89775
21
-3.21031
0
LINE
8
BLACK
6
CONTINUOUS
10
5.89775
20
-3.21031
11
5.89775
21
-3.21031
0
LINE
8
BLACK
6
CONTINUOUS
10
5.89775
20
-3.21031
11
5.8943
21
-3.2057
0
LINE
8
BLACK
6
CONTINUOUS
10
5.8943
20
-3.2057
11
5.88969
21
-3.20225
0
LINE
8
BLACK
6
CONTINUOUS
10
5.88969
20
-3.20225
11
5.88969
21
-3.20225
0
LINE
8
BLACK
6
CONTINUOUS
10
5.88969
20
-3.20225
11
5.8843
21
-3.20024
0
LINE
8
BLACK
6
CONTINUOUS
10
5.8843
20
-3.20024
11
5.8843
21
-3.20024
0
LINE
8
BLACK
6
CONTINUOUS
10
5.8843
20
-3.20024
11
5.88192
21
-3.19998
0
LINE
8
BLACK
6
CONTINUOUS
10
5.88192
20
-3.19998
11
5.88191
21
-3.19998
0
LINE
8
BLACK
6
CONTINUOUS
10
5.88191
20
-3.19998
11
5.83883
21
-3.19998
0
LINE
8
BLACK
6
CONTINUOUS
10
5.83883
20
-3.19998
11
5.83615
21
-3.19919
0
LINE
8
BLACK
6
CONTINUOUS
10
5.83615
20
-3.19919
11
5.83532
21
-3.19853
0
LINE
8
BLACK
6
CONTINUOUS
10
5.83532
20
-3.19853
11
5.79901
21
-3.16221
0
LINE
8
BLACK
6
CONTINUOUS
10
5.79901
20
-3.16221
11
5.79891
21
-3.1621
0
LINE
8
BLACK
6
CONTINUOUS
10
5.79891
20
-3.1621
11
5.79738
21
-3.16038
0
LINE
8
BLACK
6
CONTINUOUS
10
5.79738
20
-3.16038
11
5.79738
21
-3.16038
0
LINE
8
BLACK
6
CONTINUOUS
10
5.79738
20
-3.16038
11
5.79549
21
-3.15907
0
LINE
8
BLACK
6
CONTINUOUS
10
5.79549
20
-3.15907
11
5.79537
21
-3.15899
0
LINE
8
BLACK
6
CONTINUOUS
10
5.79537
20
-3.15899
11
5.79356
21
-3.15757
0
LINE
8
BLACK
6
CONTINUOUS
10
5.79356
20
-3.15757
11
5.79325
21
-3.15743
0
LINE
8
BLACK
6
CONTINUOUS
10
5.79325
20
-3.15743
11
5.79246
21
-3.15699
0
LINE
8
BLACK
6
CONTINUOUS
10
5.79246
20
-3.15699
11
5.79218
21
-3.15679
0
LINE
8
BLACK
6
CONTINUOUS
10
5.79218
20
-3.15679
11
5.79218
21
-3.15679
0
LINE
8
BLACK
6
CONTINUOUS
10
5.79218
20
-3.15679
11
5.79218
21
-3.15679
0
LINE
8
BLACK
6
CONTINUOUS
10
5.79218
20
-3.15679
11
5.79003
21
-3.15598
0
LINE
8
BLACK
6
CONTINUOUS
10
5.79003
20
-3.15598
11
5.78989
21
-3.15592
0
LINE
8
BLACK
6
CONTINUOUS
10
5.78989
20
-3.15592
11
5.7878
21
-3.15498
0
LINE
8
BLACK
6
CONTINUOUS
10
5.7878
20
-3.15498
11
5.7878
21
-3.15498
0
LINE
8
BLACK
6
CONTINUOUS
10
5.7878
20
-3.15498
11
5.78758
21
-3.15494
0
LINE
8
BLACK
6
CONTINUOUS
10
5.78758
20
-3.15494
11
5.78746
21
-3.15491
0
LINE
8
BLACK
6
CONTINUOUS
10
5.78746
20
-3.15491
11
5.78659
21
-3.15467
0
LINE
8
BLACK
6
CONTINUOUS
10
5.78659
20
-3.15467
11
5.78627
21
-3.15455
0
LINE
8
BLACK
6
CONTINUOUS
10
5.78627
20
-3.15455
11
5.78399
21
-3.15427
0
LINE
8
BLACK
6
CONTINUOUS
10
5.78399
20
-3.15427
11
5.78384
21
-3.15425
0
LINE
8
BLACK
6
CONTINUOUS
10
5.78384
20
-3.15425
11
5.78158
21
-3.15384
0
LINE
8
BLACK
6
CONTINUOUS
10
5.78158
20
-3.15384
11
5.78158
21
-3.15384
0
LINE
8
BLACK
6
CONTINUOUS
10
5.78158
20
-3.15384
11
5.77929
21
-3.15398
0
LINE
8
BLACK
6
CONTINUOUS
10
5.77929
20
-3.15398
11
5.77914
21
-3.15398
0
LINE
8
BLACK
6
CONTINUOUS
10
5.77914
20
-3.15398
11
5.65086
21
-3.15398
0
LINE
8
BLACK
6
CONTINUOUS
10
5.65086
20
-3.15398
11
5.65071
21
-3.15398
0
LINE
8
BLACK
6
CONTINUOUS
10
5.65071
20
-3.15398
11
5.64842
21
-3.15384
0
LINE
8
BLACK
6
CONTINUOUS
10
5.64842
20
-3.15384
11
5.64842
21
-3.15384
0
LINE
8
BLACK
6
CONTINUOUS
10
5.64842
20
-3.15384
11
5.64842
21
-3.15384
0
LINE
8
BLACK
6
CONTINUOUS
10
5.64842
20
-3.15384
11
5.64842
21
-3.15384
0
LINE
8
BLACK
6
CONTINUOUS
10
5.64842
20
-3.15384
11
5.64616
21
-3.15425
0
LINE
8
BLACK
6
CONTINUOUS
10
5.64616
20
-3.15425
11
5.64601
21
-3.15427
0
LINE
8
BLACK
6
CONTINUOUS
10
5.64601
20
-3.15427
11
5.64373
21
-3.15455
0
LINE
8
BLACK
6
CONTINUOUS
10
5.64373
20
-3.15455
11
5.64341
21
-3.15467
0
LINE
8
BLACK
6
CONTINUOUS
10
5.64341
20
-3.15467
11
5.64254
21
-3.15491
0
LINE
8
BLACK
6
CONTINUOUS
10
5.64254
20
-3.15491
11
5.6422
21
-3.15498
0
LINE
8
BLACK
6
CONTINUOUS
10
5.6422
20
-3.15498
11
5.64011
21
-3.15592
0
LINE
8
BLACK
6
CONTINUOUS
10
5.64011
20
-3.15592
11
5.63997
21
-3.15598
0
LINE
8
BLACK
6
CONTINUOUS
10
5.63997
20
-3.15598
11
5.63782
21
-3.15679
0
LINE
8
BLACK
6
CONTINUOUS
10
5.63782
20
-3.15679
11
5.63782
21
-3.15679
0
LINE
8
BLACK
6
CONTINUOUS
10
5.63782
20
-3.15679
11
5.63754
21
-3.15699
0
LINE
8
BLACK
6
CONTINUOUS
10
5.63754
20
-3.15699
11
5.63675
21
-3.15743
0
LINE
8
BLACK
6
CONTINUOUS
10
5.63675
20
-3.15743
11
5.63644
21
-3.15757
0
LINE
8
BLACK
6
CONTINUOUS
10
5.63644
20
-3.15757
11
5.63463
21
-3.15899
0
LINE
8
BLACK
6
CONTINUOUS
10
5.63463
20
-3.15899
11
5.63451
21
-3.15908
0
LINE
8
BLACK
6
CONTINUOUS
10
5.63451
20
-3.15908
11
5.63262
21
-3.16038
0
LINE
8
BLACK
6
CONTINUOUS
10
5.63262
20
-3.16038
11
5.63109
21
-3.1621
0
LINE
8
BLACK
6
CONTINUOUS
10
5.63109
20
-3.1621
11
5.63099
21
-3.16221
0
LINE
8
BLACK
6
CONTINUOUS
10
5.63099
20
-3.16221
11
5.59068
21
-3.20253
0
LINE
8
BLACK
6
CONTINUOUS
10
5.59068
20
-3.20253
11
5.58822
21
-3.20387
0
LINE
8
BLACK
6
CONTINUOUS
10
5.58822
20
-3.20387
11
5.58717
21
-3.20398
0
LINE
8
BLACK
6
CONTINUOUS
10
5.58717
20
-3.20398
11
5.58293
21
-3.20398
0
LINE
8
BLACK
6
CONTINUOUS
10
5.58293
20
-3.20398
11
5.58025
21
-3.20319
0
LINE
8
BLACK
6
CONTINUOUS
10
5.58025
20
-3.20319
11
5.57842
21
-3.20108
0
LINE
8
BLACK
6
CONTINUOUS
10
5.57842
20
-3.20108
11
5.57797
21
-3.19902
0
LINE
8
BLACK
6
CONTINUOUS
10
5.57797
20
-3.19902
11
5.57797
21
-3.19265
0
LINE
8
BLACK
6
CONTINUOUS
10
5.57797
20
-3.19265
11
5.57797
21
-3.19265
0
LINE
8
BLACK
6
CONTINUOUS
10
5.57797
20
-3.19265
11
5.57772
21
-3.19027
0
LINE
8
BLACK
6
CONTINUOUS
10
5.57772
20
-3.19027
11
5.57772
21
-3.19027
0
LINE
8
BLACK
6
CONTINUOUS
10
5.57772
20
-3.19027
11
5.57571
21
-3.18488
0
LINE
8
BLACK
6
CONTINUOUS
10
5.57571
20
-3.18488
11
5.5757
21
-3.18487
0
LINE
8
BLACK
6
CONTINUOUS
10
5.5757
20
-3.18487
11
5.5757
21
-3.18487
0
LINE
8
BLACK
6
CONTINUOUS
10
5.5757
20
-3.18487
11
5.5757
21
-3.18487
0
LINE
8
BLACK
6
CONTINUOUS
10
5.5757
20
-3.18487
11
5.57225
21
-3.18027
0
LINE
8
BLACK
6
CONTINUOUS
10
5.57225
20
-3.18027
11
5.56765
21
-3.17682
0
LINE
8
BLACK
6
CONTINUOUS
10
5.56765
20
-3.17682
11
5.56765
21
-3.17682
0
LINE
8
BLACK
6
CONTINUOUS
10
5.56765
20
-3.17682
11
5.56225
21
-3.1748
0
LINE
8
BLACK
6
CONTINUOUS
10
5.56225
20
-3.1748
11
5.56225
21
-3.1748
0
LINE
8
BLACK
6
CONTINUOUS
10
5.56225
20
-3.1748
11
5.55987
21
-3.17455
0
LINE
8
BLACK
6
CONTINUOUS
10
5.55987
20
-3.17455
11
5.55987
21
-3.17455
0
LINE
8
BLACK
6
CONTINUOUS
10
5.55987
20
-3.17455
11
5.45761
21
-3.17455
0
LINE
8
BLACK
6
CONTINUOUS
10
5.45761
20
-3.17455
11
5.45761
21
-3.17455
0
LINE
8
BLACK
6
CONTINUOUS
10
5.45761
20
-3.17455
11
5.45523
21
-3.1748
0
LINE
8
BLACK
6
CONTINUOUS
10
5.45523
20
-3.1748
11
5.45523
21
-3.1748
0
LINE
8
BLACK
6
CONTINUOUS
10
5.45523
20
-3.1748
11
5.44983
21
-3.17682
0
LINE
8
BLACK
6
CONTINUOUS
10
5.44983
20
-3.17682
11
5.44983
21
-3.17682
0
LINE
8
BLACK
6
CONTINUOUS
10
5.44983
20
-3.17682
11
5.44523
21
-3.18027
0
LINE
8
BLACK
6
CONTINUOUS
10
5.44523
20
-3.18027
11
5.44178
21
-3.18487
0
LINE
8
BLACK
6
CONTINUOUS
10
5.44178
20
-3.18487
11
5.44178
21
-3.18487
0
LINE
8
BLACK
6
CONTINUOUS
10
5.44178
20
-3.18487
11
5.43976
21
-3.19027
0
LINE
8
BLACK
6
CONTINUOUS
10
5.43976
20
-3.19027
11
5.43976
21
-3.19027
0
LINE
8
BLACK
6
CONTINUOUS
10
5.43976
20
-3.19027
11
5.43951
21
-3.19265
0
LINE
8
BLACK
6
CONTINUOUS
10
5.43951
20
-3.19265
11
5.43951
21
-3.26735
0
LINE
8
BLACK
6
CONTINUOUS
10
5.43951
20
-3.26735
11
5.43976
21
-3.26973
0
LINE
8
BLACK
6
CONTINUOUS
10
5.43976
20
-3.26973
11
5.43976
21
-3.26973
0
LINE
8
BLACK
6
CONTINUOUS
10
5.43976
20
-3.26973
11
5.44178
21
-3.27513
0
LINE
8
BLACK
6
CONTINUOUS
10
5.44178
20
-3.27513
11
5.44178
21
-3.27513
0
LINE
8
BLACK
6
CONTINUOUS
10
5.44178
20
-3.27513
11
5.44523
21
-3.27973
0
LINE
8
BLACK
6
CONTINUOUS
10
5.44523
20
-3.27973
11
5.44983
21
-3.28318
0
LINE
8
BLACK
6
CONTINUOUS
10
5.44983
20
-3.28318
11
5.44983
21
-3.28318
0
LINE
8
BLACK
6
CONTINUOUS
10
5.44983
20
-3.28318
11
5.44983
21
-3.28318
0
LINE
8
BLACK
6
CONTINUOUS
10
5.44983
20
-3.28318
11
5.45216
21
-3.28405
0
LINE
8
BLACK
6
CONTINUOUS
10
5.45216
20
-3.28405
11
5.45523
21
-3.2852
0
LINE
8
BLACK
6
CONTINUOUS
10
5.45523
20
-3.2852
11
5.45523
21
-3.2852
0
LINE
8
BLACK
6
CONTINUOUS
10
5.45523
20
-3.2852
11
5.45761
21
-3.28545
0
LINE
8
BLACK
6
CONTINUOUS
10
5.45761
20
-3.28545
11
5.45761
21
-3.28545
0
LINE
8
BLACK
6
CONTINUOUS
10
5.45761
20
-3.28545
11
5.45761
21
-3.28545
0
LINE
8
BLACK
6
CONTINUOUS
10
5.45761
20
-3.28545
11
5.53577
21
-3.28545
0
LINE
8
BLACK
6
CONTINUOUS
10
5.53577
20
-3.28545
11
5.53846
21
-3.28624
0
LINE
8
BLACK
6
CONTINUOUS
10
5.53846
20
-3.28624
11
5.54029
21
-3.28835
0
LINE
8
BLACK
6
CONTINUOUS
10
5.54029
20
-3.28835
11
5.54068
21
-3.29112
0
LINE
8
BLACK
6
CONTINUOUS
10
5.54068
20
-3.29112
11
5.53952
21
-3.29366
0
LINE
8
BLACK
6
CONTINUOUS
10
5.53952
20
-3.29366
11
5.53928
21
-3.29392
0
LINE
8
BLACK
6
CONTINUOUS
10
5.53928
20
-3.29392
11
5.44225
21
-3.39095
0
LINE
8
BLACK
6
CONTINUOUS
10
5.44225
20
-3.39095
11
5.4398
21
-3.39229
0
LINE
8
BLACK
6
CONTINUOUS
10
5.4398
20
-3.39229
11
5.43701
21
-3.39209
0
LINE
8
BLACK
6
CONTINUOUS
10
5.43701
20
-3.39209
11
5.43477
21
-3.39042
0
LINE
8
BLACK
6
CONTINUOUS
10
5.43477
20
-3.39042
11
5.43403
21
-3.38898
0
LINE
8
BLACK
6
CONTINUOUS
10
5.43403
20
-3.38898
11
5.43286
21
-3.38537
0
LINE
8
BLACK
6
CONTINUOUS
10
5.43286
20
-3.38537
11
5.4291
21
-3.37886
0
LINE
8
BLACK
6
CONTINUOUS
10
5.4291
20
-3.37886
11
5.4291
21
-3.37886
0
LINE
8
BLACK
6
CONTINUOUS
10
5.4291
20
-3.37886
11
5.4291
21
-3.37886
0
LINE
8
BLACK
6
CONTINUOUS
10
5.4291
20
-3.37886
11
5.42407
21
-3.37327
0
LINE
8
BLACK
6
CONTINUOUS
10
5.42407
20
-3.37327
11
5.41798
21
-3.36885
0
LINE
8
BLACK
6
CONTINUOUS
10
5.41798
20
-3.36885
11
5.41111
21
-3.3658
0
LINE
8
BLACK
6
CONTINUOUS
10
5.41111
20
-3.3658
11
5.40376
21
-3.36423
0
LINE
8
BLACK
6
CONTINUOUS
10
5.40376
20
-3.36423
11
5.39624
21
-3.36423
0
LINE
8
BLACK
6
CONTINUOUS
10
5.39624
20
-3.36423
11
5.38889
21
-3.3658
0
LINE
8
BLACK
6
CONTINUOUS
10
5.38889
20
-3.3658
11
5.38437
21
-3.3678
0
LINE
8
BLACK
6
CONTINUOUS
10
5.38437
20
-3.3678
11
5.3816
21
-3.36818
0
LINE
8
BLACK
6
CONTINUOUS
10
5.3816
20
-3.36818
11
5.37907
21
-3.36699
0
LINE
8
BLACK
6
CONTINUOUS
10
5.37907
20
-3.36699
11
5.37758
21
-3.36462
0
LINE
8
BLACK
6
CONTINUOUS
10
5.37758
20
-3.36462
11
5.37754
21
-3.3624
0
LINE
8
BLACK
6
CONTINUOUS
10
5.37754
20
-3.3624
11
5.37751
21
-3.3624
0
LINE
8
BLACK
6
CONTINUOUS
10
5.37751
20
-3.3624
11
5.37753
21
-3.36217
0
LINE
8
BLACK
6
CONTINUOUS
10
5.37753
20
-3.36217
11
5.37753
21
-3.36213
0
LINE
8
BLACK
6
CONTINUOUS
10
5.37753
20
-3.36213
11
5.37754
21
-3.36209
0
LINE
8
BLACK
6
CONTINUOUS
10
5.37754
20
-3.36209
11
5.3778
21
-3.35971
0
LINE
8
BLACK
6
CONTINUOUS
10
5.3778
20
-3.35971
11
5.3778
21
-3.35971
0
LINE
8
BLACK
6
CONTINUOUS
10
5.3778
20
-3.35971
11
5.3778
21
-3.355
0
LINE
8
BLACK
6
CONTINUOUS
10
5.3778
20
-3.355
11
5.3578
21
-3.355
0
LINE
8
BLACK
6
CONTINUOUS
10
5.3578
20
-3.355
11
5.3578
21
-3.3578
0
LINE
8
BLACK
6
CONTINUOUS
10
5.3578
20
-3.3578
11
5.29283
21
-3.3578
0
LINE
8
BLACK
6
CONTINUOUS
10
5.29283
20
-3.3578
11
5.29283
21
-3.355
0
LINE
8
BLACK
6
CONTINUOUS
10
5.29283
20
-3.355
11
5.27283
21
-3.355
0
LINE
8
BLACK
6
CONTINUOUS
10
5.27283
20
-3.355
11
5.27283
21
-3.35971
0
LINE
8
BLACK
6
CONTINUOUS
10
5.27283
20
-3.35971
11
5.27309
21
-3.36209
0
LINE
8
BLACK
6
CONTINUOUS
10
5.27309
20
-3.36209
11
5.2751
21
-3.36748
0
LINE
8
BLACK
6
CONTINUOUS
10
5.2751
20
-3.36748
11
5.27517
21
-3.3676
0
LINE
8
BLACK
6
CONTINUOUS
10
5.27517
20
-3.3676
11
5.2752
21
-3.36774
0
LINE
8
BLACK
6
CONTINUOUS
10
5.2752
20
-3.36774
11
5.27522
21
-3.36781
0
LINE
8
BLACK
6
CONTINUOUS
10
5.27522
20
-3.36781
11
5.27521
21
-3.36782
0
LINE
8
BLACK
6
CONTINUOUS
10
5.27521
20
-3.36782
11
5.27576
21
-3.37033
0
LINE
8
BLACK
6
CONTINUOUS
10
5.27576
20
-3.37033
11
5.27517
21
-3.37236
0
LINE
8
BLACK
6
CONTINUOUS
10
5.27517
20
-3.37236
11
5.27508
21
-3.37251
0
LINE
8
BLACK
6
CONTINUOUS
10
5.27508
20
-3.37251
11
5.27307
21
-3.37791
0
LINE
8
BLACK
6
CONTINUOUS
10
5.27307
20
-3.37791
11
5.27307
21
-3.37791
0
LINE
8
BLACK
6
CONTINUOUS
10
5.27307
20
-3.37791
11
5.27281
21
-3.38029
0
LINE
8
BLACK
6
CONTINUOUS
10
5.27281
20
-3.38029
11
5.27281
21
-3.40971
0
LINE
8
BLACK
6
CONTINUOUS
10
5.27281
20
-3.40971
11
5.27307
21
-3.41209
0
LINE
8
BLACK
6
CONTINUOUS
10
5.27307
20
-3.41209
11
5.27307
21
-3.41209
0
LINE
8
BLACK
6
CONTINUOUS
10
5.27307
20
-3.41209
11
5.27508
21
-3.41749
0
LINE
8
BLACK
6
CONTINUOUS
10
5.27508
20
-3.41749
11
5.27516
21
-3.41762
0
LINE
8
BLACK
6
CONTINUOUS
10
5.27516
20
-3.41762
11
5.27519
21
-3.41777
0
LINE
8
BLACK
6
CONTINUOUS
10
5.27519
20
-3.41777
11
5.27521
21
-3.41782
0
LINE
8
BLACK
6
CONTINUOUS
10
5.27521
20
-3.41782
11
5.2752
21
-3.41782
0
LINE
8
BLACK
6
CONTINUOUS
10
5.2752
20
-3.41782
11
5.27575
21
-3.42035
0
LINE
8
BLACK
6
CONTINUOUS
10
5.27575
20
-3.42035
11
5.27516
21
-3.42238
0
LINE
8
BLACK
6
CONTINUOUS
10
5.27516
20
-3.42238
11
5.27508
21
-3.42251
0
LINE
8
BLACK
6
CONTINUOUS
10
5.27508
20
-3.42251
11
5.27307
21
-3.42791
0
LINE
8
BLACK
6
CONTINUOUS
10
5.27307
20
-3.42791
11
5.27307
21
-3.42791
0
LINE
8
BLACK
6
CONTINUOUS
10
5.27307
20
-3.42791
11
5.27281
21
-3.43029
0
LINE
8
BLACK
6
CONTINUOUS
10
5.27281
20
-3.43029
11
5.27281
21
-3.45971
0
LINE
8
BLACK
6
CONTINUOUS
10
5.27281
20
-3.45971
11
5.27307
21
-3.46209
0
LINE
8
BLACK
6
CONTINUOUS
10
5.27307
20
-3.46209
11
5.27307
21
-3.46209
0
LINE
8
BLACK
6
CONTINUOUS
10
5.27307
20
-3.46209
11
5.27508
21
-3.46749
0
LINE
8
BLACK
6
CONTINUOUS
10
5.27508
20
-3.46749
11
5.27516
21
-3.46762
0
LINE
8
BLACK
6
CONTINUOUS
10
5.27516
20
-3.46762
11
5.27519
21
-3.46777
0
LINE
8
BLACK
6
CONTINUOUS
10
5.27519
20
-3.46777
11
5.27521
21
-3.46782
0
LINE
8
BLACK
6
CONTINUOUS
10
5.27521
20
-3.46782
11
5.2752
21
-3.46782
0
LINE
8
BLACK
6
CONTINUOUS
10
5.2752
20
-3.46782
11
5.27575
21
-3.47035
0
LINE
8
BLACK
6
CONTINUOUS
10
5.27575
20
-3.47035
11
5.27516
21
-3.47238
0
LINE
8
BLACK
6
CONTINUOUS
10
5.27516
20
-3.47238
11
5.27508
21
-3.47251
0
LINE
8
BLACK
6
CONTINUOUS
10
5.27508
20
-3.47251
11
5.27307
21
-3.47791
0
LINE
8
BLACK
6
CONTINUOUS
10
5.27307
20
-3.47791
11
5.27307
21
-3.47791
0
LINE
8
BLACK
6
CONTINUOUS
10
5.27307
20
-3.47791
11
5.27281
21
-3.48029
0
LINE
8
BLACK
6
CONTINUOUS
10
5.27281
20
-3.48029
11
5.27281
21
-3.50971
0
LINE
8
BLACK
6
CONTINUOUS
10
5.27281
20
-3.50971
11
5.27307
21
-3.51209
0
CIRCLE
8
BLACK
10
5.8
20
-3.8
40
0.00688976
0
CIRCLE
8
BLACK
10
5.4
20
-3
40
0.00688976
0
CIRCLE
8
BLACK
10
5.8
20
-3
40
0.00688976
0
CIRCLE
8
BLACK
10
5.75
20
-3.25
40
0.00688976
0
CIRCLE
8
BLACK
10
5.85
20
-3.25
40
0.00688976
0
CIRCLE
8
BLACK
10
5.75
20
-3.35
40
0.00688976
0
CIRCLE
8
BLACK
10
5.85
20
-3.35
40
0.00688976
0
CIRCLE
8
BLACK
10
5.75
20
-3.45
40
0.00688976
0
CIRCLE
8
BLACK
10
5.85
20
-3.45
40
0.00688976
0
CIRCLE
8
BLACK
10
5.75
20
-3.55
40
0.00688976
0
CIRCLE
8
BLACK
10
5.85
20
-3.55
40
0.00688976
0
CIRCLE
8
BLACK
10
5.4
20
-3.8
40
0.00688976
0
CIRCLE
8
BLACK
10
5.44
20
-3.6
40
0.00787402
0
CIRCLE
8
BLACK
10
5.26
20
-3.34
40
0.00787402
0
CIRCLE
8
BLACK
10
5.57
20
-3.73
40
0.00787402
0
CIRCLE
8
BLACK
10
5.62
20
-3.73
40
0.00787402
0
CIRCLE
8
BLACK
10
5.26
20
-3.19
40
0.00787402
0
CIRCLE
8
BLACK
10
5.44
20
-3.56
40
0.00787402
0
CIRCLE
8
BLACK
10
5.26
20
-3.27
40
0.00787402
0
CIRCLE
8
BLACK
10
5.4
20
-3.34
40
0.00787402
0
CIRCLE
8
BLACK
10
5.26
20
-3.23
40
0.00787402
0
CIRCLE
8
BLACK
10
5.5
20
-3.65
40
0.00787402
0
CIRCLE
8
BLACK
10
5.5
20
-3.45
40
0.00787402
0
CIRCLE
8
BLACK
10
5.4
20
-3.4
40
0.00787402
  0
ENDSEC
  0
EOF
