  0
SECTION
  2
HEADER
  9
$ANGBASE
  50
0.0
  9
$ANGDIR
  70
1
  9
$MEASUREMENT
  70
0
  0
ENDSEC
  0
SECTION
  2
TABLES
  0
TABLE
  2
LTYPE
  70
4
  0
LTYPE
  5
40F
  2
CONTINUOUS
  70
0
  3
Solid line
  72
65
  73
0
  40
0.0
  0
LTYPE
  5
410
  2
DASHDOT
 70
0
  3
Dash Dot ____ _ ____ _
 72
65
 73
4
 40
2.0
 49
1.25
 49
-0.25
 49
0.25
 49
-0.25
  0
LTYPE
  5
411
  2
DASHED
 70
0
  3
Dashed __ __ __ __ __
 72
65
 73
2
 40
0.75
 49
0.5
 49
-0.25
  0
LTYPE
  5
43B
  2
DOTTED
 70
0
  3
Dotted .  .  .  .
 72
65
 73
2
 40
0.2
 49
0.0
 49
-0.2
  0
ENDTAB
  0
TABLE
  2
STYLE
  70
4
  0
STYLE
  2
KICAD
  70
0
  40
0
  41
1
  42
1
  50
0
  71
0
  3
isocp.shx
  0
STYLE
  2
KICADB
  70
0
  40
0
  41
1
  42
1
  50
0
  71
0
  3
isocp.shx
  0
STYLE
  2
KICADI
  70
0
  40
0
  41
1
  42
1
  50
15
  71
0
  3
isocp.shx
  0
STYLE
  2
KICADBI
  70
0
  40
0
  41
1
  42
1
  50
15
  71
0
  3
isocp.shx
  0
ENDTAB
  0
TABLE
  2
LAYER
  70
1
  0
LAYER
  2
BLACK
  70
0
  62
7
  6
CONTINUOUS
  0
ENDTAB
  0
ENDSEC
  0
SECTION
  2
ENTITIES
0
LINE
8
BLACK
6
CONTINUOUS
10
5.45226
20
-3.5181
11
5.45295
21
-3.52
0
LINE
8
BLACK
6
CONTINUOUS
10
5.45295
20
-3.52
11
5.45295
21
-3.58
0
LINE
8
BLACK
6
CONTINUOUS
10
5.45295
20
-3.58
11
5.45277
21
-3.58101
0
LINE
8
BLACK
6
CONTINUOUS
10
5.45277
20
-3.58101
11
5.45148
21
-3.58256
0
LINE
8
BLACK
6
CONTINUOUS
10
5.45148
20
-3.58256
11
5.44949
21
-3.58291
0
LINE
8
BLACK
6
CONTINUOUS
10
5.44949
20
-3.58291
11
5.44774
21
-3.5819
0
LINE
8
BLACK
6
CONTINUOUS
10
5.44774
20
-3.5819
11
5.44705
21
-3.58
0
LINE
8
BLACK
6
CONTINUOUS
10
5.44705
20
-3.58
11
5.44705
21
-3.52
0
LINE
8
BLACK
6
CONTINUOUS
10
5.44705
20
-3.52
11
5.44723
21
-3.51899
0
LINE
8
BLACK
6
CONTINUOUS
10
5.44723
20
-3.51899
11
5.44852
21
-3.51744
0
LINE
8
BLACK
6
CONTINUOUS
10
5.44852
20
-3.51744
11
5.45051
21
-3.51709
0
LINE
8
BLACK
6
CONTINUOUS
10
5.45051
20
-3.51709
11
5.45226
21
-3.5181
0
LINE
8
BLACK
6
CONTINUOUS
10
5.57226
20
-3.5181
11
5.57295
21
-3.52
0
LINE
8
BLACK
6
CONTINUOUS
10
5.57295
20
-3.52
11
5.57295
21
-3.58
0
LINE
8
BLACK
6
CONTINUOUS
10
5.57295
20
-3.58
11
5.57277
21
-3.58101
0
LINE
8
BLACK
6
CONTINUOUS
10
5.57277
20
-3.58101
11
5.57148
21
-3.58256
0
LINE
8
BLACK
6
CONTINUOUS
10
5.57148
20
-3.58256
11
5.56949
21
-3.58291
0
LINE
8
BLACK
6
CONTINUOUS
10
5.56949
20
-3.58291
11
5.56774
21
-3.5819
0
LINE
8
BLACK
6
CONTINUOUS
10
5.56774
20
-3.5819
11
5.56705
21
-3.58
0
LINE
8
BLACK
6
CONTINUOUS
10
5.56705
20
-3.58
11
5.56705
21
-3.52
0
LINE
8
BLACK
6
CONTINUOUS
10
5.56705
20
-3.52
11
5.56723
21
-3.51899
0
LINE
8
BLACK
6
CONTINUOUS
10
5.56723
20
-3.51899
11
5.56852
21
-3.51744
0
LINE
8
BLACK
6
CONTINUOUS
10
5.56852
20
-3.51744
11
5.57051
21
-3.51709
0
LINE
8
BLACK
6
CONTINUOUS
10
5.57051
20
-3.51709
11
5.57226
21
-3.5181
0
LINE
8
BLACK
6
CONTINUOUS
10
5.52667
20
-3.57833
11
5.52736
21
-3.58
0
LINE
8
BLACK
6
CONTINUOUS
10
5.52736
20
-3.58
11
5.52667
21
-3.58167
0
LINE
8
BLACK
6
CONTINUOUS
10
5.52667
20
-3.58167
11
5.525
21
-3.58236
0
LINE
8
BLACK
6
CONTINUOUS
10
5.525
20
-3.58236
11
5.495
21
-3.58236
0
LINE
8
BLACK
6
CONTINUOUS
10
5.495
20
-3.58236
11
5.49333
21
-3.58167
0
LINE
8
BLACK
6
CONTINUOUS
10
5.49333
20
-3.58167
11
5.49264
21
-3.58
0
LINE
8
BLACK
6
CONTINUOUS
10
5.49264
20
-3.58
11
5.49333
21
-3.57833
0
LINE
8
BLACK
6
CONTINUOUS
10
5.49333
20
-3.57833
11
5.495
21
-3.57764
0
LINE
8
BLACK
6
CONTINUOUS
10
5.495
20
-3.57764
11
5.525
21
-3.57764
0
LINE
8
BLACK
6
CONTINUOUS
10
5.525
20
-3.57764
11
5.52667
21
-3.57833
0
LINE
8
BLACK
6
CONTINUOUS
10
5.59097
20
-3.52562
11
5.59114
21
-3.52561
0
LINE
8
BLACK
6
CONTINUOUS
10
5.59114
20
-3.52561
11
5.59183
21
-3.52611
0
LINE
8
BLACK
6
CONTINUOUS
10
5.59183
20
-3.52611
11
5.59258
21
-3.52654
0
LINE
8
BLACK
6
CONTINUOUS
10
5.59258
20
-3.52654
11
5.59263
21
-3.5267
0
LINE
8
BLACK
6
CONTINUOUS
10
5.59263
20
-3.5267
11
5.59277
21
-3.5268
0
LINE
8
BLACK
6
CONTINUOUS
10
5.59277
20
-3.5268
11
5.59636
21
-3.53218
0
LINE
8
BLACK
6
CONTINUOUS
10
5.59636
20
-3.53218
11
5.59956
21
-3.53539
0
LINE
8
BLACK
6
CONTINUOUS
10
5.59956
20
-3.53539
11
5.60288
21
-3.53705
0
LINE
8
BLACK
6
CONTINUOUS
10
5.60288
20
-3.53705
11
5.60371
21
-3.53766
0
LINE
8
BLACK
6
CONTINUOUS
10
5.60371
20
-3.53766
11
5.60451
21
-3.53951
0
LINE
8
BLACK
6
CONTINUOUS
10
5.60451
20
-3.53951
11
5.60394
21
-3.54145
0
LINE
8
BLACK
6
CONTINUOUS
10
5.60394
20
-3.54145
11
5.60225
21
-3.54256
0
LINE
8
BLACK
6
CONTINUOUS
10
5.60225
20
-3.54256
11
5.60024
21
-3.54233
0
LINE
8
BLACK
6
CONTINUOUS
10
5.60024
20
-3.54233
11
5.59649
21
-3.54046
0
LINE
8
BLACK
6
CONTINUOUS
10
5.59649
20
-3.54046
11
5.59578
21
-3.53993
0
LINE
8
BLACK
6
CONTINUOUS
10
5.59578
20
-3.53993
11
5.59573
21
-3.5399
0
LINE
8
BLACK
6
CONTINUOUS
10
5.59573
20
-3.5399
11
5.59327
21
-3.53744
0
LINE
8
BLACK
6
CONTINUOUS
10
5.59327
20
-3.53744
11
5.59327
21
-3.56486
0
LINE
8
BLACK
6
CONTINUOUS
10
5.59327
20
-3.56486
11
5.60156
21
-3.56486
0
LINE
8
BLACK
6
CONTINUOUS
10
5.60156
20
-3.56486
11
5.60257
21
-3.56504
0
LINE
8
BLACK
6
CONTINUOUS
10
5.60257
20
-3.56504
11
5.60412
21
-3.56633
0
LINE
8
BLACK
6
CONTINUOUS
10
5.60412
20
-3.56633
11
5.60447
21
-3.56832
0
LINE
8
BLACK
6
CONTINUOUS
10
5.60447
20
-3.56832
11
5.60346
21
-3.57007
0
LINE
8
BLACK
6
CONTINUOUS
10
5.60346
20
-3.57007
11
5.60156
21
-3.57076
0
LINE
8
BLACK
6
CONTINUOUS
10
5.60156
20
-3.57076
11
5.57907
21
-3.57076
0
LINE
8
BLACK
6
CONTINUOUS
10
5.57907
20
-3.57076
11
5.57806
21
-3.57058
0
LINE
8
BLACK
6
CONTINUOUS
10
5.57806
20
-3.57058
11
5.57651
21
-3.56929
0
LINE
8
BLACK
6
CONTINUOUS
10
5.57651
20
-3.56929
11
5.57616
21
-3.5673
0
LINE
8
BLACK
6
CONTINUOUS
10
5.57616
20
-3.5673
11
5.57717
21
-3.56555
0
LINE
8
BLACK
6
CONTINUOUS
10
5.57717
20
-3.56555
11
5.57907
21
-3.56486
0
LINE
8
BLACK
6
CONTINUOUS
10
5.57907
20
-3.56486
11
5.58736
21
-3.56486
0
LINE
8
BLACK
6
CONTINUOUS
10
5.58736
20
-3.56486
11
5.58736
21
-3.52844
0
LINE
8
BLACK
6
CONTINUOUS
10
5.58736
20
-3.52844
11
5.58754
21
-3.52743
0
LINE
8
BLACK
6
CONTINUOUS
10
5.58754
20
-3.52743
11
5.58765
21
-3.5273
0
LINE
8
BLACK
6
CONTINUOUS
10
5.58765
20
-3.5273
11
5.58767
21
-3.52713
0
LINE
8
BLACK
6
CONTINUOUS
10
5.58767
20
-3.52713
11
5.58829
21
-3.52654
0
LINE
8
BLACK
6
CONTINUOUS
10
5.58829
20
-3.52654
11
5.58884
21
-3.52588
0
LINE
8
BLACK
6
CONTINUOUS
10
5.58884
20
-3.52588
11
5.58901
21
-3.52585
0
LINE
8
BLACK
6
CONTINUOUS
10
5.58901
20
-3.52585
11
5.58913
21
-3.52574
0
LINE
8
BLACK
6
CONTINUOUS
10
5.58913
20
-3.52574
11
5.58998
21
-3.52568
0
LINE
8
BLACK
6
CONTINUOUS
10
5.58998
20
-3.52568
11
5.59083
21
-3.52553
0
LINE
8
BLACK
6
CONTINUOUS
10
5.59083
20
-3.52553
11
5.59097
21
-3.52562
0
LINE
8
BLACK
6
CONTINUOUS
10
5.62868
20
-3.52564
11
5.62874
21
-3.52564
0
LINE
8
BLACK
6
CONTINUOUS
10
5.62874
20
-3.52564
11
5.63437
21
-3.52751
0
LINE
8
BLACK
6
CONTINUOUS
10
5.63437
20
-3.52751
11
5.63527
21
-3.528
0
LINE
8
BLACK
6
CONTINUOUS
10
5.63527
20
-3.528
11
5.63536
21
-3.52815
0
LINE
8
BLACK
6
CONTINUOUS
10
5.63536
20
-3.52815
11
5.63552
21
-3.52823
0
LINE
8
BLACK
6
CONTINUOUS
10
5.63552
20
-3.52823
11
5.63927
21
-3.53198
0
LINE
8
BLACK
6
CONTINUOUS
10
5.63927
20
-3.53198
11
5.63978
21
-3.5327
0
LINE
8
BLACK
6
CONTINUOUS
10
5.63978
20
-3.5327
11
5.63983
21
-3.53274
0
LINE
8
BLACK
6
CONTINUOUS
10
5.63983
20
-3.53274
11
5.6417
21
-3.53649
0
LINE
8
BLACK
6
CONTINUOUS
10
5.6417
20
-3.53649
11
5.64185
21
-3.53698
0
LINE
8
BLACK
6
CONTINUOUS
10
5.64185
20
-3.53698
11
5.64192
21
-3.5371
0
LINE
8
BLACK
6
CONTINUOUS
10
5.64192
20
-3.5371
11
5.6438
21
-3.5446
0
LINE
8
BLACK
6
CONTINUOUS
10
5.6438
20
-3.5446
11
5.64384
21
-3.54518
0
LINE
8
BLACK
6
CONTINUOUS
10
5.64384
20
-3.54518
11
5.64389
21
-3.54531
0
LINE
8
BLACK
6
CONTINUOUS
10
5.64389
20
-3.54531
11
5.64389
21
-3.55094
0
LINE
8
BLACK
6
CONTINUOUS
10
5.64389
20
-3.55094
11
5.64378
21
-3.55152
0
LINE
8
BLACK
6
CONTINUOUS
10
5.64378
20
-3.55152
11
5.6438
21
-3.55165
0
LINE
8
BLACK
6
CONTINUOUS
10
5.6438
20
-3.55165
11
5.64192
21
-3.55915
0
LINE
8
BLACK
6
CONTINUOUS
10
5.64192
20
-3.55915
11
5.64172
21
-3.55962
0
LINE
8
BLACK
6
CONTINUOUS
10
5.64172
20
-3.55962
11
5.6417
21
-3.55976
0
LINE
8
BLACK
6
CONTINUOUS
10
5.6417
20
-3.55976
11
5.63983
21
-3.56351
0
LINE
8
BLACK
6
CONTINUOUS
10
5.63983
20
-3.56351
11
5.6393
21
-3.56422
0
LINE
8
BLACK
6
CONTINUOUS
10
5.6393
20
-3.56422
11
5.63927
21
-3.56427
0
LINE
8
BLACK
6
CONTINUOUS
10
5.63927
20
-3.56427
11
5.63552
21
-3.56802
0
LINE
8
BLACK
6
CONTINUOUS
10
5.63552
20
-3.56802
11
5.63468
21
-3.56861
0
LINE
8
BLACK
6
CONTINUOUS
10
5.63468
20
-3.56861
11
5.63451
21
-3.56863
0
LINE
8
BLACK
6
CONTINUOUS
10
5.63451
20
-3.56863
11
5.63437
21
-3.56874
0
LINE
8
BLACK
6
CONTINUOUS
10
5.63437
20
-3.56874
11
5.62874
21
-3.57061
0
LINE
8
BLACK
6
CONTINUOUS
10
5.62874
20
-3.57061
11
5.62787
21
-3.57074
0
LINE
8
BLACK
6
CONTINUOUS
10
5.62787
20
-3.57074
11
5.62781
21
-3.57076
0
LINE
8
BLACK
6
CONTINUOUS
10
5.62781
20
-3.57076
11
5.62406
21
-3.57076
0
LINE
8
BLACK
6
CONTINUOUS
10
5.62406
20
-3.57076
11
5.62319
21
-3.57061
0
LINE
8
BLACK
6
CONTINUOUS
10
5.62319
20
-3.57061
11
5.62313
21
-3.57061
0
LINE
8
BLACK
6
CONTINUOUS
10
5.62313
20
-3.57061
11
5.6175
21
-3.56874
0
LINE
8
BLACK
6
CONTINUOUS
10
5.6175
20
-3.56874
11
5.6166
21
-3.56825
0
LINE
8
BLACK
6
CONTINUOUS
10
5.6166
20
-3.56825
11
5.61651
21
-3.5681
0
LINE
8
BLACK
6
CONTINUOUS
10
5.61651
20
-3.5681
11
5.61635
21
-3.56802
0
LINE
8
BLACK
6
CONTINUOUS
10
5.61635
20
-3.56802
11
5.61447
21
-3.56615
0
LINE
8
BLACK
6
CONTINUOUS
10
5.61447
20
-3.56615
11
5.61389
21
-3.56531
0
LINE
8
BLACK
6
CONTINUOUS
10
5.61389
20
-3.56531
11
5.61371
21
-3.5633
0
LINE
8
BLACK
6
CONTINUOUS
10
5.61371
20
-3.5633
11
5.61487
21
-3.56164
0
LINE
8
BLACK
6
CONTINUOUS
10
5.61487
20
-3.56164
11
5.61682
21
-3.56112
0
LINE
8
BLACK
6
CONTINUOUS
10
5.61682
20
-3.56112
11
5.61865
21
-3.56197
0
LINE
8
BLACK
6
CONTINUOUS
10
5.61865
20
-3.56197
11
5.62003
21
-3.56335
0
LINE
8
BLACK
6
CONTINUOUS
10
5.62003
20
-3.56335
11
5.62454
21
-3.56486
0
LINE
8
BLACK
6
CONTINUOUS
10
5.62454
20
-3.56486
11
5.62733
21
-3.56486
0
LINE
8
BLACK
6
CONTINUOUS
10
5.62733
20
-3.56486
11
5.63184
21
-3.56335
0
LINE
8
BLACK
6
CONTINUOUS
10
5.63184
20
-3.56335
11
5.63476
21
-3.56044
0
LINE
8
BLACK
6
CONTINUOUS
10
5.63476
20
-3.56044
11
5.63627
21
-3.55741
0
LINE
8
BLACK
6
CONTINUOUS
10
5.63627
20
-3.55741
11
5.63798
21
-3.55057
0
LINE
8
BLACK
6
CONTINUOUS
10
5.63798
20
-3.55057
11
5.63798
21
-3.54568
0
LINE
8
BLACK
6
CONTINUOUS
10
5.63798
20
-3.54568
11
5.63627
21
-3.53884
0
LINE
8
BLACK
6
CONTINUOUS
10
5.63627
20
-3.53884
11
5.63476
21
-3.53581
0
LINE
8
BLACK
6
CONTINUOUS
10
5.63476
20
-3.53581
11
5.63184
21
-3.5329
0
LINE
8
BLACK
6
CONTINUOUS
10
5.63184
20
-3.5329
11
5.62733
21
-3.53139
0
LINE
8
BLACK
6
CONTINUOUS
10
5.62733
20
-3.53139
11
5.62454
21
-3.53139
0
LINE
8
BLACK
6
CONTINUOUS
10
5.62454
20
-3.53139
11
5.62003
21
-3.5329
0
LINE
8
BLACK
6
CONTINUOUS
10
5.62003
20
-3.5329
11
5.61865
21
-3.53428
0
LINE
8
BLACK
6
CONTINUOUS
10
5.61865
20
-3.53428
11
5.61781
21
-3.53487
0
LINE
8
BLACK
6
CONTINUOUS
10
5.61781
20
-3.53487
11
5.6158
21
-3.53504
0
LINE
8
BLACK
6
CONTINUOUS
10
5.6158
20
-3.53504
11
5.61414
21
-3.53388
0
LINE
8
BLACK
6
CONTINUOUS
10
5.61414
20
-3.53388
11
5.61362
21
-3.53193
0
LINE
8
BLACK
6
CONTINUOUS
10
5.61362
20
-3.53193
11
5.61447
21
-3.5301
0
LINE
8
BLACK
6
CONTINUOUS
10
5.61447
20
-3.5301
11
5.61635
21
-3.52823
0
LINE
8
BLACK
6
CONTINUOUS
10
5.61635
20
-3.52823
11
5.61719
21
-3.52764
0
LINE
8
BLACK
6
CONTINUOUS
10
5.61719
20
-3.52764
11
5.61736
21
-3.52762
0
LINE
8
BLACK
6
CONTINUOUS
10
5.61736
20
-3.52762
11
5.6175
21
-3.52751
0
LINE
8
BLACK
6
CONTINUOUS
10
5.6175
20
-3.52751
11
5.62313
21
-3.52564
0
LINE
8
BLACK
6
CONTINUOUS
10
5.62313
20
-3.52564
11
5.624
21
-3.52551
0
LINE
8
BLACK
6
CONTINUOUS
10
5.624
20
-3.52551
11
5.62406
21
-3.52549
0
LINE
8
BLACK
6
CONTINUOUS
10
5.62406
20
-3.52549
11
5.62781
21
-3.52549
0
LINE
8
BLACK
6
CONTINUOUS
10
5.62781
20
-3.52549
11
5.62868
21
-3.52564
0
LINE
8
BLACK
6
CONTINUOUS
10
5.52667
20
-3.51833
11
5.52736
21
-3.52
0
LINE
8
BLACK
6
CONTINUOUS
10
5.52736
20
-3.52
11
5.52667
21
-3.52167
0
LINE
8
BLACK
6
CONTINUOUS
10
5.52667
20
-3.52167
11
5.525
21
-3.52236
0
LINE
8
BLACK
6
CONTINUOUS
10
5.525
20
-3.52236
11
5.495
21
-3.52236
0
LINE
8
BLACK
6
CONTINUOUS
10
5.495
20
-3.52236
11
5.49333
21
-3.52167
0
LINE
8
BLACK
6
CONTINUOUS
10
5.49333
20
-3.52167
11
5.49264
21
-3.52
0
LINE
8
BLACK
6
CONTINUOUS
10
5.49264
20
-3.52
11
5.49333
21
-3.51833
0
LINE
8
BLACK
6
CONTINUOUS
10
5.49333
20
-3.51833
11
5.495
21
-3.51764
0
LINE
8
BLACK
6
CONTINUOUS
10
5.495
20
-3.51764
11
5.525
21
-3.51764
0
LINE
8
BLACK
6
CONTINUOUS
10
5.525
20
-3.51764
11
5.52667
21
-3.51833
0
LINE
8
BLACK
6
CONTINUOUS
10
5.49902
20
-3.2933
11
5.49964
21
-3.2933
0
LINE
8
BLACK
6
CONTINUOUS
10
5.49964
20
-3.2933
11
5.50015
21
-3.29367
0
LINE
8
BLACK
6
CONTINUOUS
10
5.50015
20
-3.29367
11
5.50074
21
-3.29386
0
LINE
8
BLACK
6
CONTINUOUS
10
5.50074
20
-3.29386
11
5.50111
21
-3.29437
0
LINE
8
BLACK
6
CONTINUOUS
10
5.50111
20
-3.29437
11
5.50161
21
-3.29473
0
LINE
8
BLACK
6
CONTINUOUS
10
5.50161
20
-3.29473
11
5.5018
21
-3.29533
0
LINE
8
BLACK
6
CONTINUOUS
10
5.5018
20
-3.29533
11
5.50217
21
-3.29583
0
LINE
8
BLACK
6
CONTINUOUS
10
5.50217
20
-3.29583
11
5.50217
21
-3.29645
0
LINE
8
BLACK
6
CONTINUOUS
10
5.50217
20
-3.29645
11
5.50236
21
-3.29705
0
LINE
8
BLACK
6
CONTINUOUS
10
5.50236
20
-3.29705
11
5.50236
21
-3.50295
0
LINE
8
BLACK
6
CONTINUOUS
10
5.50236
20
-3.50295
11
5.50217
21
-3.50355
0
LINE
8
BLACK
6
CONTINUOUS
10
5.50217
20
-3.50355
11
5.50217
21
-3.50417
0
LINE
8
BLACK
6
CONTINUOUS
10
5.50217
20
-3.50417
11
5.5018
21
-3.50467
0
LINE
8
BLACK
6
CONTINUOUS
10
5.5018
20
-3.50467
11
5.50161
21
-3.50527
0
LINE
8
BLACK
6
CONTINUOUS
10
5.50161
20
-3.50527
11
5.50111
21
-3.50563
0
LINE
8
BLACK
6
CONTINUOUS
10
5.50111
20
-3.50563
11
5.50074
21
-3.50614
0
LINE
8
BLACK
6
CONTINUOUS
10
5.50074
20
-3.50614
11
5.50015
21
-3.50633
0
LINE
8
BLACK
6
CONTINUOUS
10
5.50015
20
-3.50633
11
5.49964
21
-3.5067
0
LINE
8
BLACK
6
CONTINUOUS
10
5.49964
20
-3.5067
11
5.49902
21
-3.5067
0
LINE
8
BLACK
6
CONTINUOUS
10
5.49902
20
-3.5067
11
5.49843
21
-3.50689
0
LINE
8
BLACK
6
CONTINUOUS
10
5.49843
20
-3.50689
11
5.30157
21
-3.50689
0
LINE
8
BLACK
6
CONTINUOUS
10
5.30157
20
-3.50689
11
5.30098
21
-3.5067
0
LINE
8
BLACK
6
CONTINUOUS
10
5.30098
20
-3.5067
11
5.30036
21
-3.5067
0
LINE
8
BLACK
6
CONTINUOUS
10
5.30036
20
-3.5067
11
5.29985
21
-3.50633
0
LINE
8
BLACK
6
CONTINUOUS
10
5.29985
20
-3.50633
11
5.29926
21
-3.50614
0
LINE
8
BLACK
6
CONTINUOUS
10
5.29926
20
-3.50614
11
5.29889
21
-3.50563
0
LINE
8
BLACK
6
CONTINUOUS
10
5.29889
20
-3.50563
11
5.29839
21
-3.50527
0
LINE
8
BLACK
6
CONTINUOUS
10
5.29839
20
-3.50527
11
5.2982
21
-3.50467
0
LINE
8
BLACK
6
CONTINUOUS
10
5.2982
20
-3.50467
11
5.29783
21
-3.50417
0
LINE
8
BLACK
6
CONTINUOUS
10
5.29783
20
-3.50417
11
5.29783
21
-3.50355
0
LINE
8
BLACK
6
CONTINUOUS
10
5.29783
20
-3.50355
11
5.29764
21
-3.50295
0
LINE
8
BLACK
6
CONTINUOUS
10
5.29764
20
-3.50295
11
5.29764
21
-3.29705
0
LINE
8
BLACK
6
CONTINUOUS
10
5.29764
20
-3.29705
11
5.29783
21
-3.29645
0
LINE
8
BLACK
6
CONTINUOUS
10
5.29783
20
-3.29645
11
5.29783
21
-3.29583
0
LINE
8
BLACK
6
CONTINUOUS
10
5.29783
20
-3.29583
11
5.2982
21
-3.29533
0
LINE
8
BLACK
6
CONTINUOUS
10
5.2982
20
-3.29533
11
5.29839
21
-3.29473
0
LINE
8
BLACK
6
CONTINUOUS
10
5.29839
20
-3.29473
11
5.29889
21
-3.29437
0
LINE
8
BLACK
6
CONTINUOUS
10
5.29889
20
-3.29437
11
5.29926
21
-3.29386
0
LINE
8
BLACK
6
CONTINUOUS
10
5.29926
20
-3.29386
11
5.29985
21
-3.29367
0
LINE
8
BLACK
6
CONTINUOUS
10
5.29985
20
-3.29367
11
5.30036
21
-3.2933
0
LINE
8
BLACK
6
CONTINUOUS
10
5.30036
20
-3.2933
11
5.30098
21
-3.2933
0
LINE
8
BLACK
6
CONTINUOUS
10
5.30098
20
-3.2933
11
5.30157
21
-3.29311
0
LINE
8
BLACK
6
CONTINUOUS
10
5.30157
20
-3.29311
11
5.49843
21
-3.29311
0
LINE
8
BLACK
6
CONTINUOUS
10
5.49843
20
-3.29311
11
5.49902
21
-3.2933
0
LINE
8
BLACK
6
CONTINUOUS
10
5.30551
20
-3.30098
11
5.30551
21
-3.49902
0
LINE
8
BLACK
6
CONTINUOUS
10
5.30551
20
-3.49902
11
5.49449
21
-3.49902
0
LINE
8
BLACK
6
CONTINUOUS
10
5.49449
20
-3.49902
11
5.49449
21
-3.30098
0
LINE
8
BLACK
6
CONTINUOUS
10
5.49449
20
-3.30098
11
5.30551
21
-3.30098
0
LINE
8
BLACK
6
CONTINUOUS
10
5.29011
20
-3.49839
11
5.29154
21
-3.50036
0
LINE
8
BLACK
6
CONTINUOUS
10
5.29154
20
-3.50036
11
5.29154
21
-3.50279
0
LINE
8
BLACK
6
CONTINUOUS
10
5.29154
20
-3.50279
11
5.29011
21
-3.50476
0
LINE
8
BLACK
6
CONTINUOUS
10
5.29011
20
-3.50476
11
5.2878
21
-3.50551
0
LINE
8
BLACK
6
CONTINUOUS
10
5.2878
20
-3.50551
11
5.22283
21
-3.50551
0
LINE
8
BLACK
6
CONTINUOUS
10
5.22283
20
-3.50551
11
5.22052
21
-3.50476
0
LINE
8
BLACK
6
CONTINUOUS
10
5.22052
20
-3.50476
11
5.21909
21
-3.50279
0
LINE
8
BLACK
6
CONTINUOUS
10
5.21909
20
-3.50279
11
5.21909
21
-3.50036
0
LINE
8
BLACK
6
CONTINUOUS
10
5.21909
20
-3.50036
11
5.22052
21
-3.49839
0
LINE
8
BLACK
6
CONTINUOUS
10
5.22052
20
-3.49839
11
5.22283
21
-3.49764
0
LINE
8
BLACK
6
CONTINUOUS
10
5.22283
20
-3.49764
11
5.2878
21
-3.49764
0
LINE
8
BLACK
6
CONTINUOUS
10
5.2878
20
-3.49764
11
5.29011
21
-3.49839
0
LINE
8
BLACK
6
CONTINUOUS
10
5.36374
20
-3.21786
11
5.3651
21
-3.21804
0
LINE
8
BLACK
6
CONTINUOUS
10
5.3651
20
-3.21804
11
5.36513
21
-3.21807
0
LINE
8
BLACK
6
CONTINUOUS
10
5.36513
20
-3.21807
11
5.36518
21
-3.21807
0
LINE
8
BLACK
6
CONTINUOUS
10
5.36518
20
-3.21807
11
5.36621
21
-3.21897
0
LINE
8
BLACK
6
CONTINUOUS
10
5.36621
20
-3.21897
11
5.36726
21
-3.21985
0
LINE
8
BLACK
6
CONTINUOUS
10
5.36726
20
-3.21985
11
5.37174
21
-3.22658
0
LINE
8
BLACK
6
CONTINUOUS
10
5.37174
20
-3.22658
11
5.37558
21
-3.23041
0
LINE
8
BLACK
6
CONTINUOUS
10
5.37558
20
-3.23041
11
5.37962
21
-3.23243
0
LINE
8
BLACK
6
CONTINUOUS
10
5.37962
20
-3.23243
11
5.3808
21
-3.23325
0
LINE
8
BLACK
6
CONTINUOUS
10
5.3808
20
-3.23325
11
5.38223
21
-3.23568
0
LINE
8
BLACK
6
CONTINUOUS
10
5.38223
20
-3.23568
11
5.38212
21
-3.23849
0
LINE
8
BLACK
6
CONTINUOUS
10
5.38212
20
-3.23849
11
5.38052
21
-3.2408
0
LINE
8
BLACK
6
CONTINUOUS
10
5.38052
20
-3.2408
11
5.37792
21
-3.24188
0
LINE
8
BLACK
6
CONTINUOUS
10
5.37792
20
-3.24188
11
5.37514
21
-3.24138
0
LINE
8
BLACK
6
CONTINUOUS
10
5.37514
20
-3.24138
11
5.37038
21
-3.239
0
LINE
8
BLACK
6
CONTINUOUS
10
5.37038
20
-3.239
11
5.3692
21
-3.23818
0
LINE
8
BLACK
6
CONTINUOUS
10
5.3692
20
-3.23818
11
5.36916
21
-3.2381
0
LINE
8
BLACK
6
CONTINUOUS
10
5.36916
20
-3.2381
11
5.36908
21
-3.23806
0
LINE
8
BLACK
6
CONTINUOUS
10
5.36908
20
-3.23806
11
5.3681
21
-3.23707
0
LINE
8
BLACK
6
CONTINUOUS
10
5.3681
20
-3.23707
11
5.3681
21
-3.26762
0
LINE
8
BLACK
6
CONTINUOUS
10
5.3681
20
-3.26762
11
5.37738
21
-3.26762
0
LINE
8
BLACK
6
CONTINUOUS
10
5.37738
20
-3.26762
11
5.3788
21
-3.26782
0
LINE
8
BLACK
6
CONTINUOUS
10
5.3788
20
-3.26782
11
5.38117
21
-3.26935
0
LINE
8
BLACK
6
CONTINUOUS
10
5.38117
20
-3.26935
11
5.38233
21
-3.27191
0
LINE
8
BLACK
6
CONTINUOUS
10
5.38233
20
-3.27191
11
5.38193
21
-3.2747
0
LINE
8
BLACK
6
CONTINUOUS
10
5.38193
20
-3.2747
11
5.38008
21
-3.27683
0
LINE
8
BLACK
6
CONTINUOUS
10
5.38008
20
-3.27683
11
5.37738
21
-3.27762
0
LINE
8
BLACK
6
CONTINUOUS
10
5.37738
20
-3.27762
11
5.34881
21
-3.27762
0
LINE
8
BLACK
6
CONTINUOUS
10
5.34881
20
-3.27762
11
5.34739
21
-3.27741
0
LINE
8
BLACK
6
CONTINUOUS
10
5.34739
20
-3.27741
11
5.34502
21
-3.27589
0
LINE
8
BLACK
6
CONTINUOUS
10
5.34502
20
-3.27589
11
5.34386
21
-3.27332
0
LINE
8
BLACK
6
CONTINUOUS
10
5.34386
20
-3.27332
11
5.34426
21
-3.27054
0
LINE
8
BLACK
6
CONTINUOUS
10
5.34426
20
-3.27054
11
5.34611
21
-3.26841
0
LINE
8
BLACK
6
CONTINUOUS
10
5.34611
20
-3.26841
11
5.34881
21
-3.26762
0
LINE
8
BLACK
6
CONTINUOUS
10
5.34881
20
-3.26762
11
5.3581
21
-3.26762
0
LINE
8
BLACK
6
CONTINUOUS
10
5.3581
20
-3.26762
11
5.3581
21
-3.22262
0
LINE
8
BLACK
6
CONTINUOUS
10
5.3581
20
-3.22262
11
5.35828
21
-3.22136
0
LINE
8
BLACK
6
CONTINUOUS
10
5.35828
20
-3.22136
11
5.35828
21
-3.22128
0
LINE
8
BLACK
6
CONTINUOUS
10
5.35828
20
-3.22128
11
5.35829
21
-3.22126
0
LINE
8
BLACK
6
CONTINUOUS
10
5.35829
20
-3.22126
11
5.3583
21
-3.2212
0
LINE
8
BLACK
6
CONTINUOUS
10
5.3583
20
-3.2212
11
5.35904
21
-3.22005
0
LINE
8
BLACK
6
CONTINUOUS
10
5.35904
20
-3.22005
11
5.35976
21
-3.21889
0
LINE
8
BLACK
6
CONTINUOUS
10
5.35976
20
-3.21889
11
5.3598
21
-3.21887
0
LINE
8
BLACK
6
CONTINUOUS
10
5.3598
20
-3.21887
11
5.35983
21
-3.21883
0
LINE
8
BLACK
6
CONTINUOUS
10
5.35983
20
-3.21883
11
5.36107
21
-3.21827
0
LINE
8
BLACK
6
CONTINUOUS
10
5.36107
20
-3.21827
11
5.36231
21
-3.21768
0
LINE
8
BLACK
6
CONTINUOUS
10
5.36231
20
-3.21768
11
5.36235
21
-3.21769
0
LINE
8
BLACK
6
CONTINUOUS
10
5.36235
20
-3.21769
11
5.36239
21
-3.21767
0
LINE
8
BLACK
6
CONTINUOUS
10
5.36239
20
-3.21767
11
5.36374
21
-3.21786
0
LINE
8
BLACK
6
CONTINUOUS
10
5.41213
20
-3.21782
11
5.41221
21
-3.21787
0
LINE
8
BLACK
6
CONTINUOUS
10
5.41221
20
-3.21787
11
5.4123
21
-3.21788
0
LINE
8
BLACK
6
CONTINUOUS
10
5.4123
20
-3.21788
11
5.41944
21
-3.22026
0
LINE
8
BLACK
6
CONTINUOUS
10
5.41944
20
-3.22026
11
5.42072
21
-3.2209
0
LINE
8
BLACK
6
CONTINUOUS
10
5.42072
20
-3.2209
11
5.421
21
-3.22125
0
LINE
8
BLACK
6
CONTINUOUS
10
5.421
20
-3.22125
11
5.42139
21
-3.22146
0
LINE
8
BLACK
6
CONTINUOUS
10
5.42139
20
-3.22146
11
5.42615
21
-3.22623
0
LINE
8
BLACK
6
CONTINUOUS
10
5.42615
20
-3.22623
11
5.42701
21
-3.22738
0
LINE
8
BLACK
6
CONTINUOUS
10
5.42701
20
-3.22738
11
5.42703
21
-3.22746
0
LINE
8
BLACK
6
CONTINUOUS
10
5.42703
20
-3.22746
11
5.42709
21
-3.22753
0
LINE
8
BLACK
6
CONTINUOUS
10
5.42709
20
-3.22753
11
5.42947
21
-3.23229
0
LINE
8
BLACK
6
CONTINUOUS
10
5.42947
20
-3.23229
11
5.42976
21
-3.23316
0
LINE
8
BLACK
6
CONTINUOUS
10
5.42976
20
-3.23316
11
5.42985
21
-3.23331
0
LINE
8
BLACK
6
CONTINUOUS
10
5.42985
20
-3.23331
11
5.43223
21
-3.24283
0
LINE
8
BLACK
6
CONTINUOUS
10
5.43223
20
-3.24283
11
5.43234
21
-3.24391
0
LINE
8
BLACK
6
CONTINUOUS
10
5.43234
20
-3.24391
11
5.43238
21
-3.24405
0
LINE
8
BLACK
6
CONTINUOUS
10
5.43238
20
-3.24405
11
5.43238
21
-3.25119
0
LINE
8
BLACK
6
CONTINUOUS
10
5.43238
20
-3.25119
11
5.43223
21
-3.25226
0
LINE
8
BLACK
6
CONTINUOUS
10
5.43223
20
-3.25226
11
5.43223
21
-3.2524
0
LINE
8
BLACK
6
CONTINUOUS
10
5.43223
20
-3.2524
11
5.42985
21
-3.26193
0
LINE
8
BLACK
6
CONTINUOUS
10
5.42985
20
-3.26193
11
5.4295
21
-3.26277
0
LINE
8
BLACK
6
CONTINUOUS
10
5.4295
20
-3.26277
11
5.42947
21
-3.26295
0
LINE
8
BLACK
6
CONTINUOUS
10
5.42947
20
-3.26295
11
5.42709
21
-3.26771
0
LINE
8
BLACK
6
CONTINUOUS
10
5.42709
20
-3.26771
11
5.42627
21
-3.26889
0
LINE
8
BLACK
6
CONTINUOUS
10
5.42627
20
-3.26889
11
5.4262
21
-3.26893
0
LINE
8
BLACK
6
CONTINUOUS
10
5.4262
20
-3.26893
11
5.42615
21
-3.26901
0
LINE
8
BLACK
6
CONTINUOUS
10
5.42615
20
-3.26901
11
5.42139
21
-3.27377
0
LINE
8
BLACK
6
CONTINUOUS
10
5.42139
20
-3.27377
11
5.42024
21
-3.27463
0
LINE
8
BLACK
6
CONTINUOUS
10
5.42024
20
-3.27463
11
5.41981
21
-3.27473
0
LINE
8
BLACK
6
CONTINUOUS
10
5.41981
20
-3.27473
11
5.41944
21
-3.27498
0
LINE
8
BLACK
6
CONTINUOUS
10
5.41944
20
-3.27498
11
5.4123
21
-3.27736
0
LINE
8
BLACK
6
CONTINUOUS
10
5.4123
20
-3.27736
11
5.41088
21
-3.27762
0
LINE
8
BLACK
6
CONTINUOUS
10
5.41088
20
-3.27762
11
5.4108
21
-3.27759
0
LINE
8
BLACK
6
CONTINUOUS
10
5.4108
20
-3.27759
11
5.41071
21
-3.27762
0
LINE
8
BLACK
6
CONTINUOUS
10
5.41071
20
-3.27762
11
5.40595
21
-3.27762
0
LINE
8
BLACK
6
CONTINUOUS
10
5.40595
20
-3.27762
11
5.40453
21
-3.27741
0
LINE
8
BLACK
6
CONTINUOUS
10
5.40453
20
-3.27741
11
5.40446
21
-3.27737
0
LINE
8
BLACK
6
CONTINUOUS
10
5.40446
20
-3.27737
11
5.40437
21
-3.27736
0
LINE
8
BLACK
6
CONTINUOUS
10
5.40437
20
-3.27736
11
5.39723
21
-3.27498
0
LINE
8
BLACK
6
CONTINUOUS
10
5.39723
20
-3.27498
11
5.39595
21
-3.27434
0
LINE
8
BLACK
6
CONTINUOUS
10
5.39595
20
-3.27434
11
5.39567
21
-3.27399
0
LINE
8
BLACK
6
CONTINUOUS
10
5.39567
20
-3.27399
11
5.39527
21
-3.27377
0
LINE
8
BLACK
6
CONTINUOUS
10
5.39527
20
-3.27377
11
5.39289
21
-3.27139
0
LINE
8
BLACK
6
CONTINUOUS
10
5.39289
20
-3.27139
11
5.39203
21
-3.27024
0
LINE
8
BLACK
6
CONTINUOUS
10
5.39203
20
-3.27024
11
5.39144
21
-3.26749
0
LINE
8
BLACK
6
CONTINUOUS
10
5.39144
20
-3.26749
11
5.39243
21
-3.26485
0
LINE
8
BLACK
6
CONTINUOUS
10
5.39243
20
-3.26485
11
5.39469
21
-3.26317
0
LINE
8
BLACK
6
CONTINUOUS
10
5.39469
20
-3.26317
11
5.39749
21
-3.26297
0
LINE
8
BLACK
6
CONTINUOUS
10
5.39749
20
-3.26297
11
5.39996
21
-3.26432
0
LINE
8
BLACK
6
CONTINUOUS
10
5.39996
20
-3.26432
11
5.40151
21
-3.26587
0
LINE
8
BLACK
6
CONTINUOUS
10
5.40151
20
-3.26587
11
5.40676
21
-3.26762
0
LINE
8
BLACK
6
CONTINUOUS
10
5.40676
20
-3.26762
11
5.4099
21
-3.26762
0
LINE
8
BLACK
6
CONTINUOUS
10
5.4099
20
-3.26762
11
5.41516
21
-3.26587
0
LINE
8
BLACK
6
CONTINUOUS
10
5.41516
20
-3.26587
11
5.41851
21
-3.26251
0
LINE
8
BLACK
6
CONTINUOUS
10
5.41851
20
-3.26251
11
5.42028
21
-3.25897
0
LINE
8
BLACK
6
CONTINUOUS
10
5.42028
20
-3.25897
11
5.42238
21
-3.25057
0
LINE
8
BLACK
6
CONTINUOUS
10
5.42238
20
-3.25057
11
5.42238
21
-3.24466
0
LINE
8
BLACK
6
CONTINUOUS
10
5.42238
20
-3.24466
11
5.42028
21
-3.23627
0
LINE
8
BLACK
6
CONTINUOUS
10
5.42028
20
-3.23627
11
5.41851
21
-3.23272
0
LINE
8
BLACK
6
CONTINUOUS
10
5.41851
20
-3.23272
11
5.41516
21
-3.22937
0
LINE
8
BLACK
6
CONTINUOUS
10
5.41516
20
-3.22937
11
5.4099
21
-3.22762
0
LINE
8
BLACK
6
CONTINUOUS
10
5.4099
20
-3.22762
11
5.40676
21
-3.22762
0
LINE
8
BLACK
6
CONTINUOUS
10
5.40676
20
-3.22762
11
5.40151
21
-3.22937
0
LINE
8
BLACK
6
CONTINUOUS
10
5.40151
20
-3.22937
11
5.39996
21
-3.23092
0
LINE
8
BLACK
6
CONTINUOUS
10
5.39996
20
-3.23092
11
5.39881
21
-3.23178
0
LINE
8
BLACK
6
CONTINUOUS
10
5.39881
20
-3.23178
11
5.39606
21
-3.23237
0
LINE
8
BLACK
6
CONTINUOUS
10
5.39606
20
-3.23237
11
5.39343
21
-3.23138
0
LINE
8
BLACK
6
CONTINUOUS
10
5.39343
20
-3.23138
11
5.39174
21
-3.22912
0
LINE
8
BLACK
6
CONTINUOUS
10
5.39174
20
-3.22912
11
5.39154
21
-3.22632
0
LINE
8
BLACK
6
CONTINUOUS
10
5.39154
20
-3.22632
11
5.39289
21
-3.22385
0
LINE
8
BLACK
6
CONTINUOUS
10
5.39289
20
-3.22385
11
5.39527
21
-3.22146
0
LINE
8
BLACK
6
CONTINUOUS
10
5.39527
20
-3.22146
11
5.39642
21
-3.22061
0
LINE
8
BLACK
6
CONTINUOUS
10
5.39642
20
-3.22061
11
5.39686
21
-3.22051
0
LINE
8
BLACK
6
CONTINUOUS
10
5.39686
20
-3.22051
11
5.39723
21
-3.22026
0
LINE
8
BLACK
6
CONTINUOUS
10
5.39723
20
-3.22026
11
5.40437
21
-3.21788
0
LINE
8
BLACK
6
CONTINUOUS
10
5.40437
20
-3.21788
11
5.40578
21
-3.21762
0
LINE
8
BLACK
6
CONTINUOUS
10
5.40578
20
-3.21762
11
5.40587
21
-3.21764
0
LINE
8
BLACK
6
CONTINUOUS
10
5.40587
20
-3.21764
11
5.40595
21
-3.21762
0
LINE
8
BLACK
6
CONTINUOUS
10
5.40595
20
-3.21762
11
5.41071
21
-3.21762
0
LINE
8
BLACK
6
CONTINUOUS
10
5.41071
20
-3.21762
11
5.41213
21
-3.21782
0
LINE
8
BLACK
6
CONTINUOUS
10
5.45089
20
-3.21807
11
5.45302
21
-3.21992
0
LINE
8
BLACK
6
CONTINUOUS
10
5.45302
20
-3.21992
11
5.45381
21
-3.22262
0
LINE
8
BLACK
6
CONTINUOUS
10
5.45381
20
-3.22262
11
5.45381
21
-3.27262
0
LINE
8
BLACK
6
CONTINUOUS
10
5.45381
20
-3.27262
11
5.4536
21
-3.27404
0
LINE
8
BLACK
6
CONTINUOUS
10
5.4536
20
-3.27404
11
5.45208
21
-3.2764
0
LINE
8
BLACK
6
CONTINUOUS
10
5.45208
20
-3.2764
11
5.44951
21
-3.27757
0
LINE
8
BLACK
6
CONTINUOUS
10
5.44951
20
-3.27757
11
5.44673
21
-3.27717
0
LINE
8
BLACK
6
CONTINUOUS
10
5.44673
20
-3.27717
11
5.4446
21
-3.27532
0
LINE
8
BLACK
6
CONTINUOUS
10
5.4446
20
-3.27532
11
5.44381
21
-3.27262
0
LINE
8
BLACK
6
CONTINUOUS
10
5.44381
20
-3.27262
11
5.44381
21
-3.22262
0
LINE
8
BLACK
6
CONTINUOUS
10
5.44381
20
-3.22262
11
5.44402
21
-3.2212
0
LINE
8
BLACK
6
CONTINUOUS
10
5.44402
20
-3.2212
11
5.44554
21
-3.21883
0
LINE
8
BLACK
6
CONTINUOUS
10
5.44554
20
-3.21883
11
5.4481
21
-3.21767
0
LINE
8
BLACK
6
CONTINUOUS
10
5.4481
20
-3.21767
11
5.45089
21
-3.21807
  0
ENDSEC
  0
EOF
