  0
SECTION
  2
HEADER
  9
$ANGBASE
  50
0.0
  9
$ANGDIR
  70
1
  9
$MEASUREMENT
  70
0
  0
ENDSEC
  0
SECTION
  2
TABLES
  0
TABLE
  2
LTYPE
  70
4
  0
LTYPE
  5
40F
  2
CONTINUOUS
  70
0
  3
Solid line
  72
65
  73
0
  40
0.0
  0
LTYPE
  5
410
  2
DASHDOT
 70
0
  3
Dash Dot ____ _ ____ _
 72
65
 73
4
 40
2.0
 49
1.25
 49
-0.25
 49
0.25
 49
-0.25
  0
LTYPE
  5
411
  2
DASHED
 70
0
  3
Dashed __ __ __ __ __
 72
65
 73
2
 40
0.75
 49
0.5
 49
-0.25
  0
LTYPE
  5
43B
  2
DOTTED
 70
0
  3
Dotted .  .  .  .
 72
65
 73
2
 40
0.2
 49
0.0
 49
-0.2
  0
ENDTAB
  0
TABLE
  2
STYLE
  70
4
  0
STYLE
  2
KICAD
  70
0
  40
0
  41
1
  42
1
  50
0
  71
0
  3
isocp.shx
  0
STYLE
  2
KICADB
  70
0
  40
0
  41
1
  42
1
  50
0
  71
0
  3
isocp.shx
  0
STYLE
  2
KICADI
  70
0
  40
0
  41
1
  42
1
  50
15
  71
0
  3
isocp.shx
  0
STYLE
  2
KICADBI
  70
0
  40
0
  41
1
  42
1
  50
15
  71
0
  3
isocp.shx
  0
ENDTAB
  0
TABLE
  2
LAYER
  70
1
  0
LAYER
  2
BLACK
  70
0
  62
7
  6
CONTINUOUS
  0
ENDTAB
  0
ENDSEC
  0
SECTION
  2
ENTITIES
0
LINE
8
BLACK
6
CONTINUOUS
10
5.67792
20
-3.77047
11
5.68197
21
-3.75704
0
LINE
8
BLACK
6
CONTINUOUS
10
5.68197
20
-3.75704
11
5.6875
21
-3.74415
0
LINE
8
BLACK
6
CONTINUOUS
10
5.6875
20
-3.74415
11
5.69442
21
-3.73196
0
LINE
8
BLACK
6
CONTINUOUS
10
5.69442
20
-3.73196
11
5.70267
21
-3.72062
0
LINE
8
BLACK
6
CONTINUOUS
10
5.70267
20
-3.72062
11
5.71212
21
-3.71026
0
LINE
8
BLACK
6
CONTINUOUS
10
5.71212
20
-3.71026
11
5.72267
21
-3.70103
0
LINE
8
BLACK
6
CONTINUOUS
10
5.72267
20
-3.70103
11
5.73419
21
-3.69302
0
LINE
8
BLACK
6
CONTINUOUS
10
5.73419
20
-3.69302
11
5.74652
21
-3.68635
0
LINE
8
BLACK
6
CONTINUOUS
10
5.74652
20
-3.68635
11
5.75952
21
-3.6811
0
LINE
8
BLACK
6
CONTINUOUS
10
5.75952
20
-3.6811
11
5.77303
21
-3.67733
0
LINE
8
BLACK
6
CONTINUOUS
10
5.77303
20
-3.67733
11
5.78687
21
-3.67509
0
LINE
8
BLACK
6
CONTINUOUS
10
5.78687
20
-3.67509
11
5.80088
21
-3.6744
0
LINE
8
BLACK
6
CONTINUOUS
10
5.80088
20
-3.6744
11
5.81487
21
-3.67528
0
LINE
8
BLACK
6
CONTINUOUS
10
5.81487
20
-3.67528
11
5.82868
21
-3.67772
0
LINE
8
BLACK
6
CONTINUOUS
10
5.82868
20
-3.67772
11
5.84213
21
-3.68168
0
LINE
8
BLACK
6
CONTINUOUS
10
5.84213
20
-3.68168
11
5.85506
21
-3.68711
0
LINE
8
BLACK
6
CONTINUOUS
10
5.85506
20
-3.68711
11
5.8673
21
-3.69395
0
LINE
8
BLACK
6
CONTINUOUS
10
5.8673
20
-3.69395
11
5.8787
21
-3.70212
0
LINE
8
BLACK
6
CONTINUOUS
10
5.8787
20
-3.70212
11
5.88912
21
-3.7115
0
LINE
8
BLACK
6
CONTINUOUS
10
5.88912
20
-3.7115
11
5.89843
21
-3.72198
0
LINE
8
BLACK
6
CONTINUOUS
10
5.89843
20
-3.72198
11
5.90651
21
-3.73344
0
LINE
8
BLACK
6
CONTINUOUS
10
5.90651
20
-3.73344
11
5.91327
21
-3.74573
0
LINE
8
BLACK
6
CONTINUOUS
10
5.91327
20
-3.74573
11
5.91861
21
-3.75869
0
LINE
8
BLACK
6
CONTINUOUS
10
5.91861
20
-3.75869
11
5.92248
21
-3.77217
0
LINE
8
BLACK
6
CONTINUOUS
10
5.92248
20
-3.77217
11
5.92482
21
-3.786
0
LINE
8
BLACK
6
CONTINUOUS
10
5.92482
20
-3.786
11
5.9256
21
-3.8
0
LINE
8
BLACK
6
CONTINUOUS
10
5.9256
20
-3.8
11
5.92555
21
-3.80351
0
LINE
8
BLACK
6
CONTINUOUS
10
5.92555
20
-3.80351
11
5.92438
21
-3.81748
0
LINE
8
BLACK
6
CONTINUOUS
10
5.92438
20
-3.81748
11
5.92165
21
-3.83124
0
LINE
8
BLACK
6
CONTINUOUS
10
5.92165
20
-3.83124
11
5.91741
21
-3.8446
0
LINE
8
BLACK
6
CONTINUOUS
10
5.91741
20
-3.8446
11
5.91171
21
-3.85741
0
LINE
8
BLACK
6
CONTINUOUS
10
5.91171
20
-3.85741
11
5.90461
21
-3.86951
0
LINE
8
BLACK
6
CONTINUOUS
10
5.90461
20
-3.86951
11
5.89622
21
-3.88073
0
LINE
8
BLACK
6
CONTINUOUS
10
5.89622
20
-3.88073
11
5.88662
21
-3.89096
0
LINE
8
BLACK
6
CONTINUOUS
10
5.88662
20
-3.89096
11
5.87594
21
-3.90004
0
LINE
8
BLACK
6
CONTINUOUS
10
5.87594
20
-3.90004
11
5.86431
21
-3.90789
0
LINE
8
BLACK
6
CONTINUOUS
10
5.86431
20
-3.90789
11
5.85189
21
-3.91438
0
LINE
8
BLACK
6
CONTINUOUS
10
5.85189
20
-3.91438
11
5.83881
21
-3.91945
0
LINE
8
BLACK
6
CONTINUOUS
10
5.83881
20
-3.91945
11
5.82526
21
-3.92303
0
LINE
8
BLACK
6
CONTINUOUS
10
5.82526
20
-3.92303
11
5.81138
21
-3.92508
0
LINE
8
BLACK
6
CONTINUOUS
10
5.81138
20
-3.92508
11
5.79737
21
-3.92557
0
LINE
8
BLACK
6
CONTINUOUS
10
5.79737
20
-3.92557
11
5.78339
21
-3.9245
0
LINE
8
BLACK
6
CONTINUOUS
10
5.78339
20
-3.9245
11
5.76961
21
-3.92187
0
LINE
8
BLACK
6
CONTINUOUS
10
5.76961
20
-3.92187
11
5.75622
21
-3.91772
0
LINE
8
BLACK
6
CONTINUOUS
10
5.75622
20
-3.91772
11
5.74337
21
-3.91211
0
LINE
8
BLACK
6
CONTINUOUS
10
5.74337
20
-3.91211
11
5.73123
21
-3.9051
0
LINE
8
BLACK
6
CONTINUOUS
10
5.73123
20
-3.9051
11
5.71994
21
-3.89678
0
LINE
8
BLACK
6
CONTINUOUS
10
5.71994
20
-3.89678
11
5.70965
21
-3.88725
0
LINE
8
BLACK
6
CONTINUOUS
10
5.70965
20
-3.88725
11
5.70049
21
-3.87663
0
LINE
8
BLACK
6
CONTINUOUS
10
5.70049
20
-3.87663
11
5.69257
21
-3.86506
0
LINE
8
BLACK
6
CONTINUOUS
10
5.69257
20
-3.86506
11
5.68598
21
-3.85268
0
LINE
8
BLACK
6
CONTINUOUS
10
5.68598
20
-3.85268
11
5.68082
21
-3.83965
0
LINE
8
BLACK
6
CONTINUOUS
10
5.68082
20
-3.83965
11
5.67714
21
-3.82611
0
LINE
8
BLACK
6
CONTINUOUS
10
5.67714
20
-3.82611
11
5.675
21
-3.81226
0
LINE
8
BLACK
6
CONTINUOUS
10
5.675
20
-3.81226
11
5.67441
21
-3.79825
0
LINE
8
BLACK
6
CONTINUOUS
10
5.67441
20
-3.79825
11
5.67453
21
-3.79652
0
LINE
8
BLACK
6
CONTINUOUS
10
5.67453
20
-3.79652
11
5.67539
21
-3.78426
0
LINE
8
BLACK
6
CONTINUOUS
10
5.67539
20
-3.78426
11
5.67792
21
-3.77047
0
LINE
8
BLACK
6
CONTINUOUS
10
5.6914
20
-3.8219
11
5.69463
21
-3.83424
0
LINE
8
BLACK
6
CONTINUOUS
10
5.69463
20
-3.83424
11
5.69927
21
-3.84612
0
LINE
8
BLACK
6
CONTINUOUS
10
5.69927
20
-3.84612
11
5.70524
21
-3.85739
0
LINE
8
BLACK
6
CONTINUOUS
10
5.70524
20
-3.85739
11
5.71246
21
-3.8679
0
LINE
8
BLACK
6
CONTINUOUS
10
5.71246
20
-3.8679
11
5.72085
21
-3.87751
0
LINE
8
BLACK
6
CONTINUOUS
10
5.72085
20
-3.87751
11
5.73028
21
-3.8861
0
LINE
8
BLACK
6
CONTINUOUS
10
5.73028
20
-3.8861
11
5.74064
21
-3.89354
0
LINE
8
BLACK
6
CONTINUOUS
10
5.74064
20
-3.89354
11
5.75178
21
-3.89974
0
LINE
8
BLACK
6
CONTINUOUS
10
5.75178
20
-3.89974
11
5.76357
21
-3.90463
0
LINE
8
BLACK
6
CONTINUOUS
10
5.76357
20
-3.90463
11
5.77583
21
-3.90812
0
LINE
8
BLACK
6
CONTINUOUS
10
5.77583
20
-3.90812
11
5.78842
21
-3.91018
0
LINE
8
BLACK
6
CONTINUOUS
10
5.78842
20
-3.91018
11
5.80116
21
-3.91078
0
LINE
8
BLACK
6
CONTINUOUS
10
5.80116
20
-3.91078
11
5.81389
21
-3.90991
0
LINE
8
BLACK
6
CONTINUOUS
10
5.81389
20
-3.90991
11
5.82643
21
-3.90759
0
LINE
8
BLACK
6
CONTINUOUS
10
5.82643
20
-3.90759
11
5.83862
21
-3.90384
0
LINE
8
BLACK
6
CONTINUOUS
10
5.83862
20
-3.90384
11
5.8503
21
-3.89871
0
LINE
8
BLACK
6
CONTINUOUS
10
5.8503
20
-3.89871
11
5.86131
21
-3.89228
0
LINE
8
BLACK
6
CONTINUOUS
10
5.86131
20
-3.89228
11
5.87151
21
-3.88462
0
LINE
8
BLACK
6
CONTINUOUS
10
5.87151
20
-3.88462
11
5.88076
21
-3.87584
0
LINE
8
BLACK
6
CONTINUOUS
10
5.88076
20
-3.87584
11
5.88894
21
-3.86605
0
LINE
8
BLACK
6
CONTINUOUS
10
5.88894
20
-3.86605
11
5.89594
21
-3.85539
0
LINE
8
BLACK
6
CONTINUOUS
10
5.89594
20
-3.85539
11
5.90168
21
-3.844
0
LINE
8
BLACK
6
CONTINUOUS
10
5.90168
20
-3.844
11
5.90606
21
-3.83202
0
LINE
8
BLACK
6
CONTINUOUS
10
5.90606
20
-3.83202
11
5.90904
21
-3.81962
0
LINE
8
BLACK
6
CONTINUOUS
10
5.90904
20
-3.81962
11
5.91057
21
-3.80696
0
LINE
8
BLACK
6
CONTINUOUS
10
5.91057
20
-3.80696
11
5.91079
21
-3.8
0
LINE
8
BLACK
6
CONTINUOUS
10
5.91079
20
-3.8
11
5.91005
21
-3.78727
0
LINE
8
BLACK
6
CONTINUOUS
10
5.91005
20
-3.78727
11
5.90786
21
-3.7747
0
LINE
8
BLACK
6
CONTINUOUS
10
5.90786
20
-3.7747
11
5.90424
21
-3.76247
0
LINE
8
BLACK
6
CONTINUOUS
10
5.90424
20
-3.76247
11
5.89923
21
-3.75074
0
LINE
8
BLACK
6
CONTINUOUS
10
5.89923
20
-3.75074
11
5.89291
21
-3.73966
0
LINE
8
BLACK
6
CONTINUOUS
10
5.89291
20
-3.73966
11
5.88536
21
-3.72938
0
LINE
8
BLACK
6
CONTINUOUS
10
5.88536
20
-3.72938
11
5.87668
21
-3.72004
0
LINE
8
BLACK
6
CONTINUOUS
10
5.87668
20
-3.72004
11
5.86698
21
-3.71175
0
LINE
8
BLACK
6
CONTINUOUS
10
5.86698
20
-3.71175
11
5.8564
21
-3.70464
0
LINE
8
BLACK
6
CONTINUOUS
10
5.8564
20
-3.70464
11
5.84506
21
-3.69879
0
LINE
8
BLACK
6
CONTINUOUS
10
5.84506
20
-3.69879
11
5.83313
21
-3.69428
0
LINE
8
BLACK
6
CONTINUOUS
10
5.83313
20
-3.69428
11
5.82076
21
-3.69117
0
LINE
8
BLACK
6
CONTINUOUS
10
5.82076
20
-3.69117
11
5.80811
21
-3.68951
0
LINE
8
BLACK
6
CONTINUOUS
10
5.80811
20
-3.68951
11
5.79536
21
-3.68931
0
LINE
8
BLACK
6
CONTINUOUS
10
5.79536
20
-3.68931
11
5.78267
21
-3.69058
0
LINE
8
BLACK
6
CONTINUOUS
10
5.78267
20
-3.69058
11
5.77021
21
-3.69329
0
LINE
8
BLACK
6
CONTINUOUS
10
5.77021
20
-3.69329
11
5.75814
21
-3.69743
0
LINE
8
BLACK
6
CONTINUOUS
10
5.75814
20
-3.69743
11
5.74663
21
-3.70292
0
LINE
8
BLACK
6
CONTINUOUS
10
5.74663
20
-3.70292
11
5.73582
21
-3.70969
0
LINE
8
BLACK
6
CONTINUOUS
10
5.73582
20
-3.70969
11
5.72587
21
-3.71767
0
LINE
8
BLACK
6
CONTINUOUS
10
5.72587
20
-3.71767
11
5.7169
21
-3.72673
0
LINE
8
BLACK
6
CONTINUOUS
10
5.7169
20
-3.72673
11
5.70903
21
-3.73677
0
LINE
8
BLACK
6
CONTINUOUS
10
5.70903
20
-3.73677
11
5.70236
21
-3.74765
0
LINE
8
BLACK
6
CONTINUOUS
10
5.70236
20
-3.74765
11
5.69699
21
-3.75922
0
LINE
8
BLACK
6
CONTINUOUS
10
5.69699
20
-3.75922
11
5.69299
21
-3.77133
0
LINE
8
BLACK
6
CONTINUOUS
10
5.69299
20
-3.77133
11
5.6904
21
-3.78382
0
LINE
8
BLACK
6
CONTINUOUS
10
5.6904
20
-3.78382
11
5.68927
21
-3.79652
0
LINE
8
BLACK
6
CONTINUOUS
10
5.68927
20
-3.79652
11
5.6896
21
-3.80927
0
LINE
8
BLACK
6
CONTINUOUS
10
5.6896
20
-3.80927
11
5.6914
21
-3.8219
0
LINE
8
BLACK
6
CONTINUOUS
10
5.27792
20
-3.77047
11
5.28197
21
-3.75704
0
LINE
8
BLACK
6
CONTINUOUS
10
5.28197
20
-3.75704
11
5.2875
21
-3.74415
0
LINE
8
BLACK
6
CONTINUOUS
10
5.2875
20
-3.74415
11
5.29442
21
-3.73196
0
LINE
8
BLACK
6
CONTINUOUS
10
5.29442
20
-3.73196
11
5.30267
21
-3.72062
0
LINE
8
BLACK
6
CONTINUOUS
10
5.30267
20
-3.72062
11
5.31212
21
-3.71026
0
LINE
8
BLACK
6
CONTINUOUS
10
5.31212
20
-3.71026
11
5.32267
21
-3.70103
0
LINE
8
BLACK
6
CONTINUOUS
10
5.32267
20
-3.70103
11
5.33419
21
-3.69302
0
LINE
8
BLACK
6
CONTINUOUS
10
5.33419
20
-3.69302
11
5.34652
21
-3.68635
0
LINE
8
BLACK
6
CONTINUOUS
10
5.34652
20
-3.68635
11
5.35952
21
-3.6811
0
LINE
8
BLACK
6
CONTINUOUS
10
5.35952
20
-3.6811
11
5.37303
21
-3.67733
0
LINE
8
BLACK
6
CONTINUOUS
10
5.37303
20
-3.67733
11
5.38687
21
-3.67509
0
LINE
8
BLACK
6
CONTINUOUS
10
5.38687
20
-3.67509
11
5.40088
21
-3.6744
0
LINE
8
BLACK
6
CONTINUOUS
10
5.40088
20
-3.6744
11
5.41487
21
-3.67528
0
LINE
8
BLACK
6
CONTINUOUS
10
5.41487
20
-3.67528
11
5.42868
21
-3.67772
0
LINE
8
BLACK
6
CONTINUOUS
10
5.42868
20
-3.67772
11
5.44213
21
-3.68168
0
LINE
8
BLACK
6
CONTINUOUS
10
5.44213
20
-3.68168
11
5.45506
21
-3.68711
0
LINE
8
BLACK
6
CONTINUOUS
10
5.45506
20
-3.68711
11
5.4673
21
-3.69395
0
LINE
8
BLACK
6
CONTINUOUS
10
5.4673
20
-3.69395
11
5.4787
21
-3.70212
0
LINE
8
BLACK
6
CONTINUOUS
10
5.4787
20
-3.70212
11
5.48912
21
-3.7115
0
LINE
8
BLACK
6
CONTINUOUS
10
5.48912
20
-3.7115
11
5.49843
21
-3.72198
0
LINE
8
BLACK
6
CONTINUOUS
10
5.49843
20
-3.72198
11
5.50651
21
-3.73344
0
LINE
8
BLACK
6
CONTINUOUS
10
5.50651
20
-3.73344
11
5.51327
21
-3.74573
0
LINE
8
BLACK
6
CONTINUOUS
10
5.51327
20
-3.74573
11
5.51861
21
-3.75869
0
LINE
8
BLACK
6
CONTINUOUS
10
5.51861
20
-3.75869
11
5.52248
21
-3.77217
0
LINE
8
BLACK
6
CONTINUOUS
10
5.52248
20
-3.77217
11
5.52482
21
-3.786
0
LINE
8
BLACK
6
CONTINUOUS
10
5.52482
20
-3.786
11
5.5256
21
-3.8
0
LINE
8
BLACK
6
CONTINUOUS
10
5.5256
20
-3.8
11
5.52555
21
-3.80351
0
LINE
8
BLACK
6
CONTINUOUS
10
5.52555
20
-3.80351
11
5.52438
21
-3.81748
0
LINE
8
BLACK
6
CONTINUOUS
10
5.52438
20
-3.81748
11
5.52165
21
-3.83124
0
LINE
8
BLACK
6
CONTINUOUS
10
5.52165
20
-3.83124
11
5.51741
21
-3.8446
0
LINE
8
BLACK
6
CONTINUOUS
10
5.51741
20
-3.8446
11
5.51171
21
-3.85741
0
LINE
8
BLACK
6
CONTINUOUS
10
5.51171
20
-3.85741
11
5.50461
21
-3.86951
0
LINE
8
BLACK
6
CONTINUOUS
10
5.50461
20
-3.86951
11
5.49622
21
-3.88073
0
LINE
8
BLACK
6
CONTINUOUS
10
5.49622
20
-3.88073
11
5.48662
21
-3.89096
0
LINE
8
BLACK
6
CONTINUOUS
10
5.48662
20
-3.89096
11
5.47594
21
-3.90004
0
LINE
8
BLACK
6
CONTINUOUS
10
5.47594
20
-3.90004
11
5.46431
21
-3.90789
0
LINE
8
BLACK
6
CONTINUOUS
10
5.46431
20
-3.90789
11
5.45189
21
-3.91438
0
LINE
8
BLACK
6
CONTINUOUS
10
5.45189
20
-3.91438
11
5.43881
21
-3.91945
0
LINE
8
BLACK
6
CONTINUOUS
10
5.43881
20
-3.91945
11
5.42526
21
-3.92303
0
LINE
8
BLACK
6
CONTINUOUS
10
5.42526
20
-3.92303
11
5.41138
21
-3.92508
0
LINE
8
BLACK
6
CONTINUOUS
10
5.41138
20
-3.92508
11
5.39737
21
-3.92557
0
LINE
8
BLACK
6
CONTINUOUS
10
5.39737
20
-3.92557
11
5.38339
21
-3.9245
0
LINE
8
BLACK
6
CONTINUOUS
10
5.38339
20
-3.9245
11
5.36961
21
-3.92187
0
LINE
8
BLACK
6
CONTINUOUS
10
5.36961
20
-3.92187
11
5.35622
21
-3.91772
0
LINE
8
BLACK
6
CONTINUOUS
10
5.35622
20
-3.91772
11
5.34337
21
-3.91211
0
LINE
8
BLACK
6
CONTINUOUS
10
5.34337
20
-3.91211
11
5.33123
21
-3.9051
0
LINE
8
BLACK
6
CONTINUOUS
10
5.33123
20
-3.9051
11
5.31994
21
-3.89678
0
LINE
8
BLACK
6
CONTINUOUS
10
5.31994
20
-3.89678
11
5.30965
21
-3.88725
0
LINE
8
BLACK
6
CONTINUOUS
10
5.30965
20
-3.88725
11
5.30049
21
-3.87663
0
LINE
8
BLACK
6
CONTINUOUS
10
5.30049
20
-3.87663
11
5.29257
21
-3.86506
0
LINE
8
BLACK
6
CONTINUOUS
10
5.29257
20
-3.86506
11
5.28598
21
-3.85268
0
LINE
8
BLACK
6
CONTINUOUS
10
5.28598
20
-3.85268
11
5.28082
21
-3.83965
0
LINE
8
BLACK
6
CONTINUOUS
10
5.28082
20
-3.83965
11
5.27714
21
-3.82611
0
LINE
8
BLACK
6
CONTINUOUS
10
5.27714
20
-3.82611
11
5.275
21
-3.81226
0
LINE
8
BLACK
6
CONTINUOUS
10
5.275
20
-3.81226
11
5.27441
21
-3.79825
0
LINE
8
BLACK
6
CONTINUOUS
10
5.27441
20
-3.79825
11
5.27453
21
-3.79652
0
LINE
8
BLACK
6
CONTINUOUS
10
5.27453
20
-3.79652
11
5.27539
21
-3.78426
0
LINE
8
BLACK
6
CONTINUOUS
10
5.27539
20
-3.78426
11
5.27792
21
-3.77047
0
LINE
8
BLACK
6
CONTINUOUS
10
5.2914
20
-3.8219
11
5.29463
21
-3.83424
0
LINE
8
BLACK
6
CONTINUOUS
10
5.29463
20
-3.83424
11
5.29927
21
-3.84612
0
LINE
8
BLACK
6
CONTINUOUS
10
5.29927
20
-3.84612
11
5.30524
21
-3.85739
0
LINE
8
BLACK
6
CONTINUOUS
10
5.30524
20
-3.85739
11
5.31246
21
-3.8679
0
LINE
8
BLACK
6
CONTINUOUS
10
5.31246
20
-3.8679
11
5.32085
21
-3.87751
0
LINE
8
BLACK
6
CONTINUOUS
10
5.32085
20
-3.87751
11
5.33028
21
-3.8861
0
LINE
8
BLACK
6
CONTINUOUS
10
5.33028
20
-3.8861
11
5.34064
21
-3.89354
0
LINE
8
BLACK
6
CONTINUOUS
10
5.34064
20
-3.89354
11
5.35178
21
-3.89974
0
LINE
8
BLACK
6
CONTINUOUS
10
5.35178
20
-3.89974
11
5.36357
21
-3.90463
0
LINE
8
BLACK
6
CONTINUOUS
10
5.36357
20
-3.90463
11
5.37583
21
-3.90812
0
LINE
8
BLACK
6
CONTINUOUS
10
5.37583
20
-3.90812
11
5.38842
21
-3.91018
0
LINE
8
BLACK
6
CONTINUOUS
10
5.38842
20
-3.91018
11
5.40116
21
-3.91078
0
LINE
8
BLACK
6
CONTINUOUS
10
5.40116
20
-3.91078
11
5.41389
21
-3.90991
0
LINE
8
BLACK
6
CONTINUOUS
10
5.41389
20
-3.90991
11
5.42643
21
-3.90759
0
LINE
8
BLACK
6
CONTINUOUS
10
5.42643
20
-3.90759
11
5.43862
21
-3.90384
0
LINE
8
BLACK
6
CONTINUOUS
10
5.43862
20
-3.90384
11
5.4503
21
-3.89871
0
LINE
8
BLACK
6
CONTINUOUS
10
5.4503
20
-3.89871
11
5.46131
21
-3.89228
0
LINE
8
BLACK
6
CONTINUOUS
10
5.46131
20
-3.89228
11
5.47151
21
-3.88462
0
LINE
8
BLACK
6
CONTINUOUS
10
5.47151
20
-3.88462
11
5.48076
21
-3.87584
0
LINE
8
BLACK
6
CONTINUOUS
10
5.48076
20
-3.87584
11
5.48894
21
-3.86605
0
LINE
8
BLACK
6
CONTINUOUS
10
5.48894
20
-3.86605
11
5.49594
21
-3.85539
0
LINE
8
BLACK
6
CONTINUOUS
10
5.49594
20
-3.85539
11
5.50168
21
-3.844
0
LINE
8
BLACK
6
CONTINUOUS
10
5.50168
20
-3.844
11
5.50606
21
-3.83202
0
LINE
8
BLACK
6
CONTINUOUS
10
5.50606
20
-3.83202
11
5.50904
21
-3.81962
0
LINE
8
BLACK
6
CONTINUOUS
10
5.50904
20
-3.81962
11
5.51057
21
-3.80696
0
LINE
8
BLACK
6
CONTINUOUS
10
5.51057
20
-3.80696
11
5.51079
21
-3.8
0
LINE
8
BLACK
6
CONTINUOUS
10
5.51079
20
-3.8
11
5.51005
21
-3.78727
0
LINE
8
BLACK
6
CONTINUOUS
10
5.51005
20
-3.78727
11
5.50786
21
-3.7747
0
LINE
8
BLACK
6
CONTINUOUS
10
5.50786
20
-3.7747
11
5.50424
21
-3.76247
0
LINE
8
BLACK
6
CONTINUOUS
10
5.50424
20
-3.76247
11
5.49923
21
-3.75074
0
LINE
8
BLACK
6
CONTINUOUS
10
5.49923
20
-3.75074
11
5.49291
21
-3.73966
0
LINE
8
BLACK
6
CONTINUOUS
10
5.49291
20
-3.73966
11
5.48536
21
-3.72938
0
LINE
8
BLACK
6
CONTINUOUS
10
5.48536
20
-3.72938
11
5.47668
21
-3.72004
0
LINE
8
BLACK
6
CONTINUOUS
10
5.47668
20
-3.72004
11
5.46698
21
-3.71175
0
LINE
8
BLACK
6
CONTINUOUS
10
5.46698
20
-3.71175
11
5.4564
21
-3.70464
0
LINE
8
BLACK
6
CONTINUOUS
10
5.4564
20
-3.70464
11
5.44506
21
-3.69879
0
LINE
8
BLACK
6
CONTINUOUS
10
5.44506
20
-3.69879
11
5.43313
21
-3.69428
0
LINE
8
BLACK
6
CONTINUOUS
10
5.43313
20
-3.69428
11
5.42076
21
-3.69117
0
LINE
8
BLACK
6
CONTINUOUS
10
5.42076
20
-3.69117
11
5.40811
21
-3.68951
0
LINE
8
BLACK
6
CONTINUOUS
10
5.40811
20
-3.68951
11
5.39536
21
-3.68931
0
LINE
8
BLACK
6
CONTINUOUS
10
5.39536
20
-3.68931
11
5.38267
21
-3.69058
0
LINE
8
BLACK
6
CONTINUOUS
10
5.38267
20
-3.69058
11
5.37021
21
-3.69329
0
LINE
8
BLACK
6
CONTINUOUS
10
5.37021
20
-3.69329
11
5.35814
21
-3.69743
0
LINE
8
BLACK
6
CONTINUOUS
10
5.35814
20
-3.69743
11
5.34663
21
-3.70292
0
LINE
8
BLACK
6
CONTINUOUS
10
5.34663
20
-3.70292
11
5.33582
21
-3.70969
0
LINE
8
BLACK
6
CONTINUOUS
10
5.33582
20
-3.70969
11
5.32587
21
-3.71767
0
LINE
8
BLACK
6
CONTINUOUS
10
5.32587
20
-3.71767
11
5.3169
21
-3.72673
0
LINE
8
BLACK
6
CONTINUOUS
10
5.3169
20
-3.72673
11
5.30903
21
-3.73677
0
LINE
8
BLACK
6
CONTINUOUS
10
5.30903
20
-3.73677
11
5.30236
21
-3.74765
0
LINE
8
BLACK
6
CONTINUOUS
10
5.30236
20
-3.74765
11
5.29699
21
-3.75922
0
LINE
8
BLACK
6
CONTINUOUS
10
5.29699
20
-3.75922
11
5.29299
21
-3.77133
0
LINE
8
BLACK
6
CONTINUOUS
10
5.29299
20
-3.77133
11
5.2904
21
-3.78382
0
LINE
8
BLACK
6
CONTINUOUS
10
5.2904
20
-3.78382
11
5.28927
21
-3.79652
0
LINE
8
BLACK
6
CONTINUOUS
10
5.28927
20
-3.79652
11
5.2896
21
-3.80927
0
LINE
8
BLACK
6
CONTINUOUS
10
5.2896
20
-3.80927
11
5.2914
21
-3.8219
0
LINE
8
BLACK
6
CONTINUOUS
10
5.27792
20
-2.97047
11
5.28197
21
-2.95704
0
LINE
8
BLACK
6
CONTINUOUS
10
5.28197
20
-2.95704
11
5.2875
21
-2.94415
0
LINE
8
BLACK
6
CONTINUOUS
10
5.2875
20
-2.94415
11
5.29442
21
-2.93196
0
LINE
8
BLACK
6
CONTINUOUS
10
5.29442
20
-2.93196
11
5.30267
21
-2.92062
0
LINE
8
BLACK
6
CONTINUOUS
10
5.30267
20
-2.92062
11
5.31212
21
-2.91026
0
LINE
8
BLACK
6
CONTINUOUS
10
5.31212
20
-2.91026
11
5.32267
21
-2.90103
0
LINE
8
BLACK
6
CONTINUOUS
10
5.32267
20
-2.90103
11
5.33419
21
-2.89302
0
LINE
8
BLACK
6
CONTINUOUS
10
5.33419
20
-2.89302
11
5.34652
21
-2.88635
0
LINE
8
BLACK
6
CONTINUOUS
10
5.34652
20
-2.88635
11
5.35952
21
-2.8811
0
LINE
8
BLACK
6
CONTINUOUS
10
5.35952
20
-2.8811
11
5.37303
21
-2.87733
0
LINE
8
BLACK
6
CONTINUOUS
10
5.37303
20
-2.87733
11
5.38687
21
-2.87509
0
LINE
8
BLACK
6
CONTINUOUS
10
5.38687
20
-2.87509
11
5.40088
21
-2.8744
0
LINE
8
BLACK
6
CONTINUOUS
10
5.40088
20
-2.8744
11
5.41487
21
-2.87528
0
LINE
8
BLACK
6
CONTINUOUS
10
5.41487
20
-2.87528
11
5.42868
21
-2.87772
0
LINE
8
BLACK
6
CONTINUOUS
10
5.42868
20
-2.87772
11
5.44213
21
-2.88168
0
LINE
8
BLACK
6
CONTINUOUS
10
5.44213
20
-2.88168
11
5.45506
21
-2.88711
0
LINE
8
BLACK
6
CONTINUOUS
10
5.45506
20
-2.88711
11
5.4673
21
-2.89395
0
LINE
8
BLACK
6
CONTINUOUS
10
5.4673
20
-2.89395
11
5.4787
21
-2.90212
0
LINE
8
BLACK
6
CONTINUOUS
10
5.4787
20
-2.90212
11
5.48912
21
-2.9115
0
LINE
8
BLACK
6
CONTINUOUS
10
5.48912
20
-2.9115
11
5.49843
21
-2.92198
0
LINE
8
BLACK
6
CONTINUOUS
10
5.49843
20
-2.92198
11
5.50651
21
-2.93344
0
LINE
8
BLACK
6
CONTINUOUS
10
5.50651
20
-2.93344
11
5.51327
21
-2.94573
0
LINE
8
BLACK
6
CONTINUOUS
10
5.51327
20
-2.94573
11
5.51861
21
-2.95869
0
LINE
8
BLACK
6
CONTINUOUS
10
5.51861
20
-2.95869
11
5.52248
21
-2.97217
0
LINE
8
BLACK
6
CONTINUOUS
10
5.52248
20
-2.97217
11
5.52482
21
-2.986
0
LINE
8
BLACK
6
CONTINUOUS
10
5.52482
20
-2.986
11
5.5256
21
-3
0
LINE
8
BLACK
6
CONTINUOUS
10
5.5256
20
-3
11
5.52555
21
-3.00351
0
LINE
8
BLACK
6
CONTINUOUS
10
5.52555
20
-3.00351
11
5.52438
21
-3.01748
0
LINE
8
BLACK
6
CONTINUOUS
10
5.52438
20
-3.01748
11
5.52165
21
-3.03124
0
LINE
8
BLACK
6
CONTINUOUS
10
5.52165
20
-3.03124
11
5.51741
21
-3.0446
0
LINE
8
BLACK
6
CONTINUOUS
10
5.51741
20
-3.0446
11
5.51171
21
-3.05741
0
LINE
8
BLACK
6
CONTINUOUS
10
5.51171
20
-3.05741
11
5.50461
21
-3.06951
0
LINE
8
BLACK
6
CONTINUOUS
10
5.50461
20
-3.06951
11
5.49622
21
-3.08073
0
LINE
8
BLACK
6
CONTINUOUS
10
5.49622
20
-3.08073
11
5.48662
21
-3.09096
0
LINE
8
BLACK
6
CONTINUOUS
10
5.48662
20
-3.09096
11
5.47594
21
-3.10004
0
LINE
8
BLACK
6
CONTINUOUS
10
5.47594
20
-3.10004
11
5.46431
21
-3.10789
0
LINE
8
BLACK
6
CONTINUOUS
10
5.46431
20
-3.10789
11
5.45189
21
-3.11438
0
LINE
8
BLACK
6
CONTINUOUS
10
5.45189
20
-3.11438
11
5.43881
21
-3.11945
0
LINE
8
BLACK
6
CONTINUOUS
10
5.43881
20
-3.11945
11
5.42526
21
-3.12303
0
LINE
8
BLACK
6
CONTINUOUS
10
5.42526
20
-3.12303
11
5.41138
21
-3.12508
0
LINE
8
BLACK
6
CONTINUOUS
10
5.41138
20
-3.12508
11
5.39737
21
-3.12557
0
LINE
8
BLACK
6
CONTINUOUS
10
5.39737
20
-3.12557
11
5.38339
21
-3.1245
0
LINE
8
BLACK
6
CONTINUOUS
10
5.38339
20
-3.1245
11
5.36961
21
-3.12187
0
LINE
8
BLACK
6
CONTINUOUS
10
5.36961
20
-3.12187
11
5.35622
21
-3.11772
0
LINE
8
BLACK
6
CONTINUOUS
10
5.35622
20
-3.11772
11
5.34337
21
-3.11211
0
LINE
8
BLACK
6
CONTINUOUS
10
5.34337
20
-3.11211
11
5.33123
21
-3.1051
0
LINE
8
BLACK
6
CONTINUOUS
10
5.33123
20
-3.1051
11
5.31994
21
-3.09678
0
LINE
8
BLACK
6
CONTINUOUS
10
5.31994
20
-3.09678
11
5.30965
21
-3.08725
0
LINE
8
BLACK
6
CONTINUOUS
10
5.30965
20
-3.08725
11
5.30049
21
-3.07663
0
LINE
8
BLACK
6
CONTINUOUS
10
5.30049
20
-3.07663
11
5.29257
21
-3.06506
0
LINE
8
BLACK
6
CONTINUOUS
10
5.29257
20
-3.06506
11
5.28598
21
-3.05268
0
LINE
8
BLACK
6
CONTINUOUS
10
5.28598
20
-3.05268
11
5.28082
21
-3.03965
0
LINE
8
BLACK
6
CONTINUOUS
10
5.28082
20
-3.03965
11
5.27714
21
-3.02611
0
LINE
8
BLACK
6
CONTINUOUS
10
5.27714
20
-3.02611
11
5.275
21
-3.01226
0
LINE
8
BLACK
6
CONTINUOUS
10
5.275
20
-3.01226
11
5.27441
21
-2.99825
0
LINE
8
BLACK
6
CONTINUOUS
10
5.27441
20
-2.99825
11
5.27453
21
-2.99652
0
LINE
8
BLACK
6
CONTINUOUS
10
5.27453
20
-2.99652
11
5.27539
21
-2.98426
0
LINE
8
BLACK
6
CONTINUOUS
10
5.27539
20
-2.98426
11
5.27792
21
-2.97047
0
LINE
8
BLACK
6
CONTINUOUS
10
5.2914
20
-3.0219
11
5.29463
21
-3.03424
0
LINE
8
BLACK
6
CONTINUOUS
10
5.29463
20
-3.03424
11
5.29927
21
-3.04612
0
LINE
8
BLACK
6
CONTINUOUS
10
5.29927
20
-3.04612
11
5.30524
21
-3.05739
0
LINE
8
BLACK
6
CONTINUOUS
10
5.30524
20
-3.05739
11
5.31246
21
-3.0679
0
LINE
8
BLACK
6
CONTINUOUS
10
5.31246
20
-3.0679
11
5.32085
21
-3.07751
0
LINE
8
BLACK
6
CONTINUOUS
10
5.32085
20
-3.07751
11
5.33028
21
-3.0861
0
LINE
8
BLACK
6
CONTINUOUS
10
5.33028
20
-3.0861
11
5.34064
21
-3.09354
0
LINE
8
BLACK
6
CONTINUOUS
10
5.34064
20
-3.09354
11
5.35178
21
-3.09974
0
LINE
8
BLACK
6
CONTINUOUS
10
5.35178
20
-3.09974
11
5.36357
21
-3.10463
0
LINE
8
BLACK
6
CONTINUOUS
10
5.36357
20
-3.10463
11
5.37583
21
-3.10812
0
LINE
8
BLACK
6
CONTINUOUS
10
5.37583
20
-3.10812
11
5.38842
21
-3.11018
0
LINE
8
BLACK
6
CONTINUOUS
10
5.38842
20
-3.11018
11
5.40116
21
-3.11078
0
LINE
8
BLACK
6
CONTINUOUS
10
5.40116
20
-3.11078
11
5.41389
21
-3.10991
0
LINE
8
BLACK
6
CONTINUOUS
10
5.41389
20
-3.10991
11
5.42643
21
-3.10759
0
LINE
8
BLACK
6
CONTINUOUS
10
5.42643
20
-3.10759
11
5.43862
21
-3.10384
0
LINE
8
BLACK
6
CONTINUOUS
10
5.43862
20
-3.10384
11
5.4503
21
-3.09871
0
LINE
8
BLACK
6
CONTINUOUS
10
5.4503
20
-3.09871
11
5.46131
21
-3.09228
0
LINE
8
BLACK
6
CONTINUOUS
10
5.46131
20
-3.09228
11
5.47151
21
-3.08462
0
LINE
8
BLACK
6
CONTINUOUS
10
5.47151
20
-3.08462
11
5.48076
21
-3.07584
0
LINE
8
BLACK
6
CONTINUOUS
10
5.48076
20
-3.07584
11
5.48894
21
-3.06605
0
LINE
8
BLACK
6
CONTINUOUS
10
5.48894
20
-3.06605
11
5.49594
21
-3.05539
0
LINE
8
BLACK
6
CONTINUOUS
10
5.49594
20
-3.05539
11
5.50168
21
-3.044
0
LINE
8
BLACK
6
CONTINUOUS
10
5.50168
20
-3.044
11
5.50606
21
-3.03202
0
LINE
8
BLACK
6
CONTINUOUS
10
5.50606
20
-3.03202
11
5.50904
21
-3.01962
0
LINE
8
BLACK
6
CONTINUOUS
10
5.50904
20
-3.01962
11
5.51057
21
-3.00696
0
LINE
8
BLACK
6
CONTINUOUS
10
5.51057
20
-3.00696
11
5.51079
21
-3
0
LINE
8
BLACK
6
CONTINUOUS
10
5.51079
20
-3
11
5.51005
21
-2.98727
0
LINE
8
BLACK
6
CONTINUOUS
10
5.51005
20
-2.98727
11
5.50786
21
-2.9747
0
LINE
8
BLACK
6
CONTINUOUS
10
5.50786
20
-2.9747
11
5.50424
21
-2.96247
0
LINE
8
BLACK
6
CONTINUOUS
10
5.50424
20
-2.96247
11
5.49923
21
-2.95074
0
LINE
8
BLACK
6
CONTINUOUS
10
5.49923
20
-2.95074
11
5.49291
21
-2.93966
0
LINE
8
BLACK
6
CONTINUOUS
10
5.49291
20
-2.93966
11
5.48536
21
-2.92938
0
LINE
8
BLACK
6
CONTINUOUS
10
5.48536
20
-2.92938
11
5.47668
21
-2.92004
0
LINE
8
BLACK
6
CONTINUOUS
10
5.47668
20
-2.92004
11
5.46698
21
-2.91175
0
LINE
8
BLACK
6
CONTINUOUS
10
5.46698
20
-2.91175
11
5.4564
21
-2.90464
0
LINE
8
BLACK
6
CONTINUOUS
10
5.4564
20
-2.90464
11
5.44506
21
-2.89879
0
LINE
8
BLACK
6
CONTINUOUS
10
5.44506
20
-2.89879
11
5.43313
21
-2.89428
0
LINE
8
BLACK
6
CONTINUOUS
10
5.43313
20
-2.89428
11
5.42076
21
-2.89117
0
LINE
8
BLACK
6
CONTINUOUS
10
5.42076
20
-2.89117
11
5.40811
21
-2.88951
0
LINE
8
BLACK
6
CONTINUOUS
10
5.40811
20
-2.88951
11
5.39536
21
-2.88931
0
LINE
8
BLACK
6
CONTINUOUS
10
5.39536
20
-2.88931
11
5.38267
21
-2.89058
0
LINE
8
BLACK
6
CONTINUOUS
10
5.38267
20
-2.89058
11
5.37021
21
-2.89329
0
LINE
8
BLACK
6
CONTINUOUS
10
5.37021
20
-2.89329
11
5.35814
21
-2.89743
0
LINE
8
BLACK
6
CONTINUOUS
10
5.35814
20
-2.89743
11
5.34663
21
-2.90292
0
LINE
8
BLACK
6
CONTINUOUS
10
5.34663
20
-2.90292
11
5.33582
21
-2.90969
0
LINE
8
BLACK
6
CONTINUOUS
10
5.33582
20
-2.90969
11
5.32587
21
-2.91767
0
LINE
8
BLACK
6
CONTINUOUS
10
5.32587
20
-2.91767
11
5.3169
21
-2.92673
0
LINE
8
BLACK
6
CONTINUOUS
10
5.3169
20
-2.92673
11
5.30903
21
-2.93677
0
LINE
8
BLACK
6
CONTINUOUS
10
5.30903
20
-2.93677
11
5.30236
21
-2.94765
0
LINE
8
BLACK
6
CONTINUOUS
10
5.30236
20
-2.94765
11
5.29699
21
-2.95922
0
LINE
8
BLACK
6
CONTINUOUS
10
5.29699
20
-2.95922
11
5.29299
21
-2.97133
0
LINE
8
BLACK
6
CONTINUOUS
10
5.29299
20
-2.97133
11
5.2904
21
-2.98382
0
LINE
8
BLACK
6
CONTINUOUS
10
5.2904
20
-2.98382
11
5.28927
21
-2.99652
0
LINE
8
BLACK
6
CONTINUOUS
10
5.28927
20
-2.99652
11
5.2896
21
-3.00927
0
LINE
8
BLACK
6
CONTINUOUS
10
5.2896
20
-3.00927
11
5.2914
21
-3.0219
0
LINE
8
BLACK
6
CONTINUOUS
10
5.67792
20
-2.97047
11
5.68197
21
-2.95704
0
LINE
8
BLACK
6
CONTINUOUS
10
5.68197
20
-2.95704
11
5.6875
21
-2.94415
0
LINE
8
BLACK
6
CONTINUOUS
10
5.6875
20
-2.94415
11
5.69442
21
-2.93196
0
LINE
8
BLACK
6
CONTINUOUS
10
5.69442
20
-2.93196
11
5.70267
21
-2.92062
0
LINE
8
BLACK
6
CONTINUOUS
10
5.70267
20
-2.92062
11
5.71212
21
-2.91026
0
LINE
8
BLACK
6
CONTINUOUS
10
5.71212
20
-2.91026
11
5.72267
21
-2.90103
0
LINE
8
BLACK
6
CONTINUOUS
10
5.72267
20
-2.90103
11
5.73419
21
-2.89302
0
LINE
8
BLACK
6
CONTINUOUS
10
5.73419
20
-2.89302
11
5.74652
21
-2.88635
0
LINE
8
BLACK
6
CONTINUOUS
10
5.74652
20
-2.88635
11
5.75952
21
-2.8811
0
LINE
8
BLACK
6
CONTINUOUS
10
5.75952
20
-2.8811
11
5.77303
21
-2.87733
0
LINE
8
BLACK
6
CONTINUOUS
10
5.77303
20
-2.87733
11
5.78687
21
-2.87509
0
LINE
8
BLACK
6
CONTINUOUS
10
5.78687
20
-2.87509
11
5.80088
21
-2.8744
0
LINE
8
BLACK
6
CONTINUOUS
10
5.80088
20
-2.8744
11
5.81487
21
-2.87528
0
LINE
8
BLACK
6
CONTINUOUS
10
5.81487
20
-2.87528
11
5.82868
21
-2.87772
0
LINE
8
BLACK
6
CONTINUOUS
10
5.82868
20
-2.87772
11
5.84213
21
-2.88168
0
LINE
8
BLACK
6
CONTINUOUS
10
5.84213
20
-2.88168
11
5.85506
21
-2.88711
0
LINE
8
BLACK
6
CONTINUOUS
10
5.85506
20
-2.88711
11
5.8673
21
-2.89395
0
LINE
8
BLACK
6
CONTINUOUS
10
5.8673
20
-2.89395
11
5.8787
21
-2.90212
0
LINE
8
BLACK
6
CONTINUOUS
10
5.8787
20
-2.90212
11
5.88912
21
-2.9115
0
LINE
8
BLACK
6
CONTINUOUS
10
5.88912
20
-2.9115
11
5.89843
21
-2.92198
0
LINE
8
BLACK
6
CONTINUOUS
10
5.89843
20
-2.92198
11
5.90651
21
-2.93344
0
LINE
8
BLACK
6
CONTINUOUS
10
5.90651
20
-2.93344
11
5.91327
21
-2.94573
0
LINE
8
BLACK
6
CONTINUOUS
10
5.91327
20
-2.94573
11
5.91861
21
-2.95869
0
LINE
8
BLACK
6
CONTINUOUS
10
5.91861
20
-2.95869
11
5.92248
21
-2.97217
0
LINE
8
BLACK
6
CONTINUOUS
10
5.92248
20
-2.97217
11
5.92482
21
-2.986
0
LINE
8
BLACK
6
CONTINUOUS
10
5.92482
20
-2.986
11
5.9256
21
-3
0
LINE
8
BLACK
6
CONTINUOUS
10
5.9256
20
-3
11
5.92555
21
-3.00351
0
LINE
8
BLACK
6
CONTINUOUS
10
5.92555
20
-3.00351
11
5.92438
21
-3.01748
0
LINE
8
BLACK
6
CONTINUOUS
10
5.92438
20
-3.01748
11
5.92165
21
-3.03124
0
LINE
8
BLACK
6
CONTINUOUS
10
5.92165
20
-3.03124
11
5.91741
21
-3.0446
0
LINE
8
BLACK
6
CONTINUOUS
10
5.91741
20
-3.0446
11
5.91171
21
-3.05741
0
LINE
8
BLACK
6
CONTINUOUS
10
5.91171
20
-3.05741
11
5.90461
21
-3.06951
0
LINE
8
BLACK
6
CONTINUOUS
10
5.90461
20
-3.06951
11
5.89622
21
-3.08073
0
LINE
8
BLACK
6
CONTINUOUS
10
5.89622
20
-3.08073
11
5.88662
21
-3.09096
0
LINE
8
BLACK
6
CONTINUOUS
10
5.88662
20
-3.09096
11
5.87594
21
-3.10004
0
LINE
8
BLACK
6
CONTINUOUS
10
5.87594
20
-3.10004
11
5.86431
21
-3.10789
0
LINE
8
BLACK
6
CONTINUOUS
10
5.86431
20
-3.10789
11
5.85189
21
-3.11438
0
LINE
8
BLACK
6
CONTINUOUS
10
5.85189
20
-3.11438
11
5.83881
21
-3.11945
0
LINE
8
BLACK
6
CONTINUOUS
10
5.83881
20
-3.11945
11
5.82526
21
-3.12303
0
LINE
8
BLACK
6
CONTINUOUS
10
5.82526
20
-3.12303
11
5.81138
21
-3.12508
0
LINE
8
BLACK
6
CONTINUOUS
10
5.81138
20
-3.12508
11
5.79737
21
-3.12557
0
LINE
8
BLACK
6
CONTINUOUS
10
5.79737
20
-3.12557
11
5.78339
21
-3.1245
0
LINE
8
BLACK
6
CONTINUOUS
10
5.78339
20
-3.1245
11
5.76961
21
-3.12187
0
LINE
8
BLACK
6
CONTINUOUS
10
5.76961
20
-3.12187
11
5.75622
21
-3.11772
0
LINE
8
BLACK
6
CONTINUOUS
10
5.75622
20
-3.11772
11
5.74337
21
-3.11211
0
LINE
8
BLACK
6
CONTINUOUS
10
5.74337
20
-3.11211
11
5.73123
21
-3.1051
0
LINE
8
BLACK
6
CONTINUOUS
10
5.73123
20
-3.1051
11
5.71994
21
-3.09678
0
LINE
8
BLACK
6
CONTINUOUS
10
5.71994
20
-3.09678
11
5.70965
21
-3.08725
0
LINE
8
BLACK
6
CONTINUOUS
10
5.70965
20
-3.08725
11
5.70049
21
-3.07663
0
LINE
8
BLACK
6
CONTINUOUS
10
5.70049
20
-3.07663
11
5.69257
21
-3.06506
0
LINE
8
BLACK
6
CONTINUOUS
10
5.69257
20
-3.06506
11
5.68598
21
-3.05268
0
LINE
8
BLACK
6
CONTINUOUS
10
5.68598
20
-3.05268
11
5.68082
21
-3.03965
0
LINE
8
BLACK
6
CONTINUOUS
10
5.68082
20
-3.03965
11
5.67714
21
-3.02611
0
LINE
8
BLACK
6
CONTINUOUS
10
5.67714
20
-3.02611
11
5.675
21
-3.01226
0
LINE
8
BLACK
6
CONTINUOUS
10
5.675
20
-3.01226
11
5.67441
21
-2.99825
0
LINE
8
BLACK
6
CONTINUOUS
10
5.67441
20
-2.99825
11
5.67453
21
-2.99652
0
LINE
8
BLACK
6
CONTINUOUS
10
5.67453
20
-2.99652
11
5.67539
21
-2.98426
0
LINE
8
BLACK
6
CONTINUOUS
10
5.67539
20
-2.98426
11
5.67792
21
-2.97047
0
LINE
8
BLACK
6
CONTINUOUS
10
5.6914
20
-3.0219
11
5.69463
21
-3.03424
0
LINE
8
BLACK
6
CONTINUOUS
10
5.69463
20
-3.03424
11
5.69927
21
-3.04612
0
LINE
8
BLACK
6
CONTINUOUS
10
5.69927
20
-3.04612
11
5.70524
21
-3.05739
0
LINE
8
BLACK
6
CONTINUOUS
10
5.70524
20
-3.05739
11
5.71246
21
-3.0679
0
LINE
8
BLACK
6
CONTINUOUS
10
5.71246
20
-3.0679
11
5.72085
21
-3.07751
0
LINE
8
BLACK
6
CONTINUOUS
10
5.72085
20
-3.07751
11
5.73028
21
-3.0861
0
LINE
8
BLACK
6
CONTINUOUS
10
5.73028
20
-3.0861
11
5.74064
21
-3.09354
0
LINE
8
BLACK
6
CONTINUOUS
10
5.74064
20
-3.09354
11
5.75178
21
-3.09974
0
LINE
8
BLACK
6
CONTINUOUS
10
5.75178
20
-3.09974
11
5.76357
21
-3.10463
0
LINE
8
BLACK
6
CONTINUOUS
10
5.76357
20
-3.10463
11
5.77583
21
-3.10812
0
LINE
8
BLACK
6
CONTINUOUS
10
5.77583
20
-3.10812
11
5.78842
21
-3.11018
0
LINE
8
BLACK
6
CONTINUOUS
10
5.78842
20
-3.11018
11
5.80116
21
-3.11078
0
LINE
8
BLACK
6
CONTINUOUS
10
5.80116
20
-3.11078
11
5.81389
21
-3.10991
0
LINE
8
BLACK
6
CONTINUOUS
10
5.81389
20
-3.10991
11
5.82643
21
-3.10759
0
LINE
8
BLACK
6
CONTINUOUS
10
5.82643
20
-3.10759
11
5.83862
21
-3.10384
0
LINE
8
BLACK
6
CONTINUOUS
10
5.83862
20
-3.10384
11
5.8503
21
-3.09871
0
LINE
8
BLACK
6
CONTINUOUS
10
5.8503
20
-3.09871
11
5.86131
21
-3.09228
0
LINE
8
BLACK
6
CONTINUOUS
10
5.86131
20
-3.09228
11
5.87151
21
-3.08462
0
LINE
8
BLACK
6
CONTINUOUS
10
5.87151
20
-3.08462
11
5.88076
21
-3.07584
0
LINE
8
BLACK
6
CONTINUOUS
10
5.88076
20
-3.07584
11
5.88894
21
-3.06605
0
LINE
8
BLACK
6
CONTINUOUS
10
5.88894
20
-3.06605
11
5.89594
21
-3.05539
0
LINE
8
BLACK
6
CONTINUOUS
10
5.89594
20
-3.05539
11
5.90168
21
-3.044
0
LINE
8
BLACK
6
CONTINUOUS
10
5.90168
20
-3.044
11
5.90606
21
-3.03202
0
LINE
8
BLACK
6
CONTINUOUS
10
5.90606
20
-3.03202
11
5.90904
21
-3.01962
0
LINE
8
BLACK
6
CONTINUOUS
10
5.90904
20
-3.01962
11
5.91057
21
-3.00696
0
LINE
8
BLACK
6
CONTINUOUS
10
5.91057
20
-3.00696
11
5.91079
21
-3
0
LINE
8
BLACK
6
CONTINUOUS
10
5.91079
20
-3
11
5.91005
21
-2.98727
0
LINE
8
BLACK
6
CONTINUOUS
10
5.91005
20
-2.98727
11
5.90786
21
-2.9747
0
LINE
8
BLACK
6
CONTINUOUS
10
5.90786
20
-2.9747
11
5.90424
21
-2.96247
0
LINE
8
BLACK
6
CONTINUOUS
10
5.90424
20
-2.96247
11
5.89923
21
-2.95074
0
LINE
8
BLACK
6
CONTINUOUS
10
5.89923
20
-2.95074
11
5.89291
21
-2.93966
0
LINE
8
BLACK
6
CONTINUOUS
10
5.89291
20
-2.93966
11
5.88536
21
-2.92938
0
LINE
8
BLACK
6
CONTINUOUS
10
5.88536
20
-2.92938
11
5.87668
21
-2.92004
0
LINE
8
BLACK
6
CONTINUOUS
10
5.87668
20
-2.92004
11
5.86698
21
-2.91175
0
LINE
8
BLACK
6
CONTINUOUS
10
5.86698
20
-2.91175
11
5.8564
21
-2.90464
0
LINE
8
BLACK
6
CONTINUOUS
10
5.8564
20
-2.90464
11
5.84506
21
-2.89879
0
LINE
8
BLACK
6
CONTINUOUS
10
5.84506
20
-2.89879
11
5.83313
21
-2.89428
0
LINE
8
BLACK
6
CONTINUOUS
10
5.83313
20
-2.89428
11
5.82076
21
-2.89117
0
LINE
8
BLACK
6
CONTINUOUS
10
5.82076
20
-2.89117
11
5.80811
21
-2.88951
0
LINE
8
BLACK
6
CONTINUOUS
10
5.80811
20
-2.88951
11
5.79536
21
-2.88931
0
LINE
8
BLACK
6
CONTINUOUS
10
5.79536
20
-2.88931
11
5.78267
21
-2.89058
0
LINE
8
BLACK
6
CONTINUOUS
10
5.78267
20
-2.89058
11
5.77021
21
-2.89329
0
LINE
8
BLACK
6
CONTINUOUS
10
5.77021
20
-2.89329
11
5.75814
21
-2.89743
0
LINE
8
BLACK
6
CONTINUOUS
10
5.75814
20
-2.89743
11
5.74663
21
-2.90292
0
LINE
8
BLACK
6
CONTINUOUS
10
5.74663
20
-2.90292
11
5.73582
21
-2.90969
0
LINE
8
BLACK
6
CONTINUOUS
10
5.73582
20
-2.90969
11
5.72587
21
-2.91767
0
LINE
8
BLACK
6
CONTINUOUS
10
5.72587
20
-2.91767
11
5.7169
21
-2.92673
0
LINE
8
BLACK
6
CONTINUOUS
10
5.7169
20
-2.92673
11
5.70903
21
-2.93677
0
LINE
8
BLACK
6
CONTINUOUS
10
5.70903
20
-2.93677
11
5.70236
21
-2.94765
0
LINE
8
BLACK
6
CONTINUOUS
10
5.70236
20
-2.94765
11
5.69699
21
-2.95922
0
LINE
8
BLACK
6
CONTINUOUS
10
5.69699
20
-2.95922
11
5.69299
21
-2.97133
0
LINE
8
BLACK
6
CONTINUOUS
10
5.69299
20
-2.97133
11
5.6904
21
-2.98382
0
LINE
8
BLACK
6
CONTINUOUS
10
5.6904
20
-2.98382
11
5.68927
21
-2.99652
0
LINE
8
BLACK
6
CONTINUOUS
10
5.68927
20
-2.99652
11
5.6896
21
-3.00927
0
LINE
8
BLACK
6
CONTINUOUS
10
5.6896
20
-3.00927
11
5.6914
21
-3.0219
  0
ENDSEC
  0
EOF
