  0
SECTION
  2
HEADER
  9
$ANGBASE
  50
0.0
  9
$ANGDIR
  70
1
  9
$MEASUREMENT
  70
0
  0
ENDSEC
  0
SECTION
  2
TABLES
  0
TABLE
  2
LTYPE
  70
4
  0
LTYPE
  5
40F
  2
CONTINUOUS
  70
0
  3
Solid line
  72
65
  73
0
  40
0.0
  0
LTYPE
  5
410
  2
DASHDOT
 70
0
  3
Dash Dot ____ _ ____ _
 72
65
 73
4
 40
2.0
 49
1.25
 49
-0.25
 49
0.25
 49
-0.25
  0
LTYPE
  5
411
  2
DASHED
 70
0
  3
Dashed __ __ __ __ __
 72
65
 73
2
 40
0.75
 49
0.5
 49
-0.25
  0
LTYPE
  5
43B
  2
DOTTED
 70
0
  3
Dotted .  .  .  .
 72
65
 73
2
 40
0.2
 49
0.0
 49
-0.2
  0
ENDTAB
  0
TABLE
  2
STYLE
  70
4
  0
STYLE
  2
KICAD
  70
0
  40
0
  41
1
  42
1
  50
0
  71
0
  3
isocp.shx
  0
STYLE
  2
KICADB
  70
0
  40
0
  41
1
  42
1
  50
0
  71
0
  3
isocp.shx
  0
STYLE
  2
KICADI
  70
0
  40
0
  41
1
  42
1
  50
15
  71
0
  3
isocp.shx
  0
STYLE
  2
KICADBI
  70
0
  40
0
  41
1
  42
1
  50
15
  71
0
  3
isocp.shx
  0
ENDTAB
  0
TABLE
  2
LAYER
  70
1
  0
LAYER
  2
BLACK
  70
0
  62
7
  6
CONTINUOUS
  0
ENDTAB
  0
ENDSEC
  0
SECTION
  2
ENTITIES
0
LINE
8
BLACK
6
CONTINUOUS
10
5.51196
20
-3.68727
11
5.51265
21
-3.68894
0
LINE
8
BLACK
6
CONTINUOUS
10
5.51265
20
-3.68894
11
5.51196
21
-3.69061
0
LINE
8
BLACK
6
CONTINUOUS
10
5.51196
20
-3.69061
11
5.51029
21
-3.6913
0
LINE
8
BLACK
6
CONTINUOUS
10
5.51029
20
-3.6913
11
5.48971
21
-3.6913
0
LINE
8
BLACK
6
CONTINUOUS
10
5.48971
20
-3.6913
11
5.48804
21
-3.69061
0
LINE
8
BLACK
6
CONTINUOUS
10
5.48804
20
-3.69061
11
5.48735
21
-3.68894
0
LINE
8
BLACK
6
CONTINUOUS
10
5.48735
20
-3.68894
11
5.48804
21
-3.68727
0
LINE
8
BLACK
6
CONTINUOUS
10
5.48804
20
-3.68727
11
5.48971
21
-3.68657
0
LINE
8
BLACK
6
CONTINUOUS
10
5.48971
20
-3.68657
11
5.51029
21
-3.68657
0
LINE
8
BLACK
6
CONTINUOUS
10
5.51029
20
-3.68657
11
5.51196
21
-3.68727
0
LINE
8
BLACK
6
CONTINUOUS
10
5.62868
20
-3.63564
11
5.62874
21
-3.63564
0
LINE
8
BLACK
6
CONTINUOUS
10
5.62874
20
-3.63564
11
5.63437
21
-3.63751
0
LINE
8
BLACK
6
CONTINUOUS
10
5.63437
20
-3.63751
11
5.63527
21
-3.638
0
LINE
8
BLACK
6
CONTINUOUS
10
5.63527
20
-3.638
11
5.63536
21
-3.63815
0
LINE
8
BLACK
6
CONTINUOUS
10
5.63536
20
-3.63815
11
5.63552
21
-3.63823
0
LINE
8
BLACK
6
CONTINUOUS
10
5.63552
20
-3.63823
11
5.63927
21
-3.64198
0
LINE
8
BLACK
6
CONTINUOUS
10
5.63927
20
-3.64198
11
5.63978
21
-3.6427
0
LINE
8
BLACK
6
CONTINUOUS
10
5.63978
20
-3.6427
11
5.63983
21
-3.64274
0
LINE
8
BLACK
6
CONTINUOUS
10
5.63983
20
-3.64274
11
5.6417
21
-3.64649
0
LINE
8
BLACK
6
CONTINUOUS
10
5.6417
20
-3.64649
11
5.64185
21
-3.64698
0
LINE
8
BLACK
6
CONTINUOUS
10
5.64185
20
-3.64698
11
5.64192
21
-3.6471
0
LINE
8
BLACK
6
CONTINUOUS
10
5.64192
20
-3.6471
11
5.6438
21
-3.6546
0
LINE
8
BLACK
6
CONTINUOUS
10
5.6438
20
-3.6546
11
5.64384
21
-3.65518
0
LINE
8
BLACK
6
CONTINUOUS
10
5.64384
20
-3.65518
11
5.64389
21
-3.65531
0
LINE
8
BLACK
6
CONTINUOUS
10
5.64389
20
-3.65531
11
5.64389
21
-3.66094
0
LINE
8
BLACK
6
CONTINUOUS
10
5.64389
20
-3.66094
11
5.64378
21
-3.66152
0
LINE
8
BLACK
6
CONTINUOUS
10
5.64378
20
-3.66152
11
5.6438
21
-3.66165
0
LINE
8
BLACK
6
CONTINUOUS
10
5.6438
20
-3.66165
11
5.64192
21
-3.66915
0
LINE
8
BLACK
6
CONTINUOUS
10
5.64192
20
-3.66915
11
5.64172
21
-3.66962
0
LINE
8
BLACK
6
CONTINUOUS
10
5.64172
20
-3.66962
11
5.6417
21
-3.66976
0
LINE
8
BLACK
6
CONTINUOUS
10
5.6417
20
-3.66976
11
5.63983
21
-3.67351
0
LINE
8
BLACK
6
CONTINUOUS
10
5.63983
20
-3.67351
11
5.6393
21
-3.67422
0
LINE
8
BLACK
6
CONTINUOUS
10
5.6393
20
-3.67422
11
5.63927
21
-3.67427
0
LINE
8
BLACK
6
CONTINUOUS
10
5.63927
20
-3.67427
11
5.63552
21
-3.67802
0
LINE
8
BLACK
6
CONTINUOUS
10
5.63552
20
-3.67802
11
5.63468
21
-3.67861
0
LINE
8
BLACK
6
CONTINUOUS
10
5.63468
20
-3.67861
11
5.63451
21
-3.67863
0
LINE
8
BLACK
6
CONTINUOUS
10
5.63451
20
-3.67863
11
5.63437
21
-3.67874
0
LINE
8
BLACK
6
CONTINUOUS
10
5.63437
20
-3.67874
11
5.62874
21
-3.68061
0
LINE
8
BLACK
6
CONTINUOUS
10
5.62874
20
-3.68061
11
5.62787
21
-3.68074
0
LINE
8
BLACK
6
CONTINUOUS
10
5.62787
20
-3.68074
11
5.62781
21
-3.68076
0
LINE
8
BLACK
6
CONTINUOUS
10
5.62781
20
-3.68076
11
5.62406
21
-3.68076
0
LINE
8
BLACK
6
CONTINUOUS
10
5.62406
20
-3.68076
11
5.62319
21
-3.68061
0
LINE
8
BLACK
6
CONTINUOUS
10
5.62319
20
-3.68061
11
5.62313
21
-3.68061
0
LINE
8
BLACK
6
CONTINUOUS
10
5.62313
20
-3.68061
11
5.6175
21
-3.67874
0
LINE
8
BLACK
6
CONTINUOUS
10
5.6175
20
-3.67874
11
5.6166
21
-3.67825
0
LINE
8
BLACK
6
CONTINUOUS
10
5.6166
20
-3.67825
11
5.61651
21
-3.6781
0
LINE
8
BLACK
6
CONTINUOUS
10
5.61651
20
-3.6781
11
5.61635
21
-3.67802
0
LINE
8
BLACK
6
CONTINUOUS
10
5.61635
20
-3.67802
11
5.61447
21
-3.67615
0
LINE
8
BLACK
6
CONTINUOUS
10
5.61447
20
-3.67615
11
5.61389
21
-3.67531
0
LINE
8
BLACK
6
CONTINUOUS
10
5.61389
20
-3.67531
11
5.61371
21
-3.6733
0
LINE
8
BLACK
6
CONTINUOUS
10
5.61371
20
-3.6733
11
5.61487
21
-3.67164
0
LINE
8
BLACK
6
CONTINUOUS
10
5.61487
20
-3.67164
11
5.61682
21
-3.67112
0
LINE
8
BLACK
6
CONTINUOUS
10
5.61682
20
-3.67112
11
5.61865
21
-3.67197
0
LINE
8
BLACK
6
CONTINUOUS
10
5.61865
20
-3.67197
11
5.62003
21
-3.67335
0
LINE
8
BLACK
6
CONTINUOUS
10
5.62003
20
-3.67335
11
5.62454
21
-3.67486
0
LINE
8
BLACK
6
CONTINUOUS
10
5.62454
20
-3.67486
11
5.62733
21
-3.67486
0
LINE
8
BLACK
6
CONTINUOUS
10
5.62733
20
-3.67486
11
5.63184
21
-3.67335
0
LINE
8
BLACK
6
CONTINUOUS
10
5.63184
20
-3.67335
11
5.63476
21
-3.67044
0
LINE
8
BLACK
6
CONTINUOUS
10
5.63476
20
-3.67044
11
5.63627
21
-3.66741
0
LINE
8
BLACK
6
CONTINUOUS
10
5.63627
20
-3.66741
11
5.63798
21
-3.66057
0
LINE
8
BLACK
6
CONTINUOUS
10
5.63798
20
-3.66057
11
5.63798
21
-3.65568
0
LINE
8
BLACK
6
CONTINUOUS
10
5.63798
20
-3.65568
11
5.63627
21
-3.64884
0
LINE
8
BLACK
6
CONTINUOUS
10
5.63627
20
-3.64884
11
5.63476
21
-3.64581
0
LINE
8
BLACK
6
CONTINUOUS
10
5.63476
20
-3.64581
11
5.63184
21
-3.6429
0
LINE
8
BLACK
6
CONTINUOUS
10
5.63184
20
-3.6429
11
5.62733
21
-3.64139
0
LINE
8
BLACK
6
CONTINUOUS
10
5.62733
20
-3.64139
11
5.62454
21
-3.64139
0
LINE
8
BLACK
6
CONTINUOUS
10
5.62454
20
-3.64139
11
5.62003
21
-3.6429
0
LINE
8
BLACK
6
CONTINUOUS
10
5.62003
20
-3.6429
11
5.61865
21
-3.64428
0
LINE
8
BLACK
6
CONTINUOUS
10
5.61865
20
-3.64428
11
5.61781
21
-3.64487
0
LINE
8
BLACK
6
CONTINUOUS
10
5.61781
20
-3.64487
11
5.6158
21
-3.64504
0
LINE
8
BLACK
6
CONTINUOUS
10
5.6158
20
-3.64504
11
5.61414
21
-3.64388
0
LINE
8
BLACK
6
CONTINUOUS
10
5.61414
20
-3.64388
11
5.61362
21
-3.64193
0
LINE
8
BLACK
6
CONTINUOUS
10
5.61362
20
-3.64193
11
5.61447
21
-3.6401
0
LINE
8
BLACK
6
CONTINUOUS
10
5.61447
20
-3.6401
11
5.61635
21
-3.63823
0
LINE
8
BLACK
6
CONTINUOUS
10
5.61635
20
-3.63823
11
5.61719
21
-3.63764
0
LINE
8
BLACK
6
CONTINUOUS
10
5.61719
20
-3.63764
11
5.61736
21
-3.63762
0
LINE
8
BLACK
6
CONTINUOUS
10
5.61736
20
-3.63762
11
5.6175
21
-3.63751
0
LINE
8
BLACK
6
CONTINUOUS
10
5.6175
20
-3.63751
11
5.62313
21
-3.63564
0
LINE
8
BLACK
6
CONTINUOUS
10
5.62313
20
-3.63564
11
5.624
21
-3.63551
0
LINE
8
BLACK
6
CONTINUOUS
10
5.624
20
-3.63551
11
5.62406
21
-3.63549
0
LINE
8
BLACK
6
CONTINUOUS
10
5.62406
20
-3.63549
11
5.62781
21
-3.63549
0
LINE
8
BLACK
6
CONTINUOUS
10
5.62781
20
-3.63549
11
5.62868
21
-3.63564
0
LINE
8
BLACK
6
CONTINUOUS
10
5.59097
20
-3.63562
11
5.59114
21
-3.63561
0
LINE
8
BLACK
6
CONTINUOUS
10
5.59114
20
-3.63561
11
5.59183
21
-3.63611
0
LINE
8
BLACK
6
CONTINUOUS
10
5.59183
20
-3.63611
11
5.59258
21
-3.63654
0
LINE
8
BLACK
6
CONTINUOUS
10
5.59258
20
-3.63654
11
5.59263
21
-3.6367
0
LINE
8
BLACK
6
CONTINUOUS
10
5.59263
20
-3.6367
11
5.59277
21
-3.6368
0
LINE
8
BLACK
6
CONTINUOUS
10
5.59277
20
-3.6368
11
5.59636
21
-3.64218
0
LINE
8
BLACK
6
CONTINUOUS
10
5.59636
20
-3.64218
11
5.59956
21
-3.64539
0
LINE
8
BLACK
6
CONTINUOUS
10
5.59956
20
-3.64539
11
5.60288
21
-3.64705
0
LINE
8
BLACK
6
CONTINUOUS
10
5.60288
20
-3.64705
11
5.60371
21
-3.64766
0
LINE
8
BLACK
6
CONTINUOUS
10
5.60371
20
-3.64766
11
5.60451
21
-3.64951
0
LINE
8
BLACK
6
CONTINUOUS
10
5.60451
20
-3.64951
11
5.60394
21
-3.65145
0
LINE
8
BLACK
6
CONTINUOUS
10
5.60394
20
-3.65145
11
5.60225
21
-3.65256
0
LINE
8
BLACK
6
CONTINUOUS
10
5.60225
20
-3.65256
11
5.60024
21
-3.65233
0
LINE
8
BLACK
6
CONTINUOUS
10
5.60024
20
-3.65233
11
5.59649
21
-3.65046
0
LINE
8
BLACK
6
CONTINUOUS
10
5.59649
20
-3.65046
11
5.59578
21
-3.64993
0
LINE
8
BLACK
6
CONTINUOUS
10
5.59578
20
-3.64993
11
5.59573
21
-3.6499
0
LINE
8
BLACK
6
CONTINUOUS
10
5.59573
20
-3.6499
11
5.59327
21
-3.64744
0
LINE
8
BLACK
6
CONTINUOUS
10
5.59327
20
-3.64744
11
5.59327
21
-3.67486
0
LINE
8
BLACK
6
CONTINUOUS
10
5.59327
20
-3.67486
11
5.60156
21
-3.67486
0
LINE
8
BLACK
6
CONTINUOUS
10
5.60156
20
-3.67486
11
5.60257
21
-3.67504
0
LINE
8
BLACK
6
CONTINUOUS
10
5.60257
20
-3.67504
11
5.60412
21
-3.67633
0
LINE
8
BLACK
6
CONTINUOUS
10
5.60412
20
-3.67633
11
5.60447
21
-3.67832
0
LINE
8
BLACK
6
CONTINUOUS
10
5.60447
20
-3.67832
11
5.60346
21
-3.68007
0
LINE
8
BLACK
6
CONTINUOUS
10
5.60346
20
-3.68007
11
5.60156
21
-3.68076
0
LINE
8
BLACK
6
CONTINUOUS
10
5.60156
20
-3.68076
11
5.57907
21
-3.68076
0
LINE
8
BLACK
6
CONTINUOUS
10
5.57907
20
-3.68076
11
5.57806
21
-3.68058
0
LINE
8
BLACK
6
CONTINUOUS
10
5.57806
20
-3.68058
11
5.57651
21
-3.67929
0
LINE
8
BLACK
6
CONTINUOUS
10
5.57651
20
-3.67929
11
5.57616
21
-3.6773
0
LINE
8
BLACK
6
CONTINUOUS
10
5.57616
20
-3.6773
11
5.57717
21
-3.67555
0
LINE
8
BLACK
6
CONTINUOUS
10
5.57717
20
-3.67555
11
5.57907
21
-3.67486
0
LINE
8
BLACK
6
CONTINUOUS
10
5.57907
20
-3.67486
11
5.58736
21
-3.67486
0
LINE
8
BLACK
6
CONTINUOUS
10
5.58736
20
-3.67486
11
5.58736
21
-3.63844
0
LINE
8
BLACK
6
CONTINUOUS
10
5.58736
20
-3.63844
11
5.58754
21
-3.63743
0
LINE
8
BLACK
6
CONTINUOUS
10
5.58754
20
-3.63743
11
5.58765
21
-3.6373
0
LINE
8
BLACK
6
CONTINUOUS
10
5.58765
20
-3.6373
11
5.58767
21
-3.63713
0
LINE
8
BLACK
6
CONTINUOUS
10
5.58767
20
-3.63713
11
5.58829
21
-3.63654
0
LINE
8
BLACK
6
CONTINUOUS
10
5.58829
20
-3.63654
11
5.58884
21
-3.63588
0
LINE
8
BLACK
6
CONTINUOUS
10
5.58884
20
-3.63588
11
5.58901
21
-3.63585
0
LINE
8
BLACK
6
CONTINUOUS
10
5.58901
20
-3.63585
11
5.58913
21
-3.63574
0
LINE
8
BLACK
6
CONTINUOUS
10
5.58913
20
-3.63574
11
5.58998
21
-3.63568
0
LINE
8
BLACK
6
CONTINUOUS
10
5.58998
20
-3.63568
11
5.59083
21
-3.63553
0
LINE
8
BLACK
6
CONTINUOUS
10
5.59083
20
-3.63553
11
5.59097
21
-3.63562
0
LINE
8
BLACK
6
CONTINUOUS
10
5.51196
20
-3.62939
11
5.51265
21
-3.63106
0
LINE
8
BLACK
6
CONTINUOUS
10
5.51265
20
-3.63106
11
5.51196
21
-3.63273
0
LINE
8
BLACK
6
CONTINUOUS
10
5.51196
20
-3.63273
11
5.51029
21
-3.63343
0
LINE
8
BLACK
6
CONTINUOUS
10
5.51029
20
-3.63343
11
5.48971
21
-3.63343
0
LINE
8
BLACK
6
CONTINUOUS
10
5.48971
20
-3.63343
11
5.48804
21
-3.63273
0
LINE
8
BLACK
6
CONTINUOUS
10
5.48804
20
-3.63273
11
5.48735
21
-3.63106
0
LINE
8
BLACK
6
CONTINUOUS
10
5.48735
20
-3.63106
11
5.48804
21
-3.62939
0
LINE
8
BLACK
6
CONTINUOUS
10
5.48804
20
-3.62939
11
5.48971
21
-3.6287
0
LINE
8
BLACK
6
CONTINUOUS
10
5.48971
20
-3.6287
11
5.51029
21
-3.6287
0
LINE
8
BLACK
6
CONTINUOUS
10
5.51029
20
-3.6287
11
5.51196
21
-3.62939
0
LINE
8
BLACK
6
CONTINUOUS
10
5.51455
20
-3.59727
11
5.51525
21
-3.59894
0
LINE
8
BLACK
6
CONTINUOUS
10
5.51525
20
-3.59894
11
5.51455
21
-3.60061
0
LINE
8
BLACK
6
CONTINUOUS
10
5.51455
20
-3.60061
11
5.51288
21
-3.6013
0
LINE
8
BLACK
6
CONTINUOUS
10
5.51288
20
-3.6013
11
5.49231
21
-3.6013
0
LINE
8
BLACK
6
CONTINUOUS
10
5.49231
20
-3.6013
11
5.49064
21
-3.60061
0
LINE
8
BLACK
6
CONTINUOUS
10
5.49064
20
-3.60061
11
5.48995
21
-3.59894
0
LINE
8
BLACK
6
CONTINUOUS
10
5.48995
20
-3.59894
11
5.49064
21
-3.59727
0
LINE
8
BLACK
6
CONTINUOUS
10
5.49064
20
-3.59727
11
5.49231
21
-3.59657
0
LINE
8
BLACK
6
CONTINUOUS
10
5.49231
20
-3.59657
11
5.51288
21
-3.59657
0
LINE
8
BLACK
6
CONTINUOUS
10
5.51288
20
-3.59657
11
5.51455
21
-3.59727
0
LINE
8
BLACK
6
CONTINUOUS
10
5.62868
20
-3.54564
11
5.62874
21
-3.54564
0
LINE
8
BLACK
6
CONTINUOUS
10
5.62874
20
-3.54564
11
5.63437
21
-3.54751
0
LINE
8
BLACK
6
CONTINUOUS
10
5.63437
20
-3.54751
11
5.63527
21
-3.548
0
LINE
8
BLACK
6
CONTINUOUS
10
5.63527
20
-3.548
11
5.63536
21
-3.54815
0
LINE
8
BLACK
6
CONTINUOUS
10
5.63536
20
-3.54815
11
5.63552
21
-3.54823
0
LINE
8
BLACK
6
CONTINUOUS
10
5.63552
20
-3.54823
11
5.63927
21
-3.55198
0
LINE
8
BLACK
6
CONTINUOUS
10
5.63927
20
-3.55198
11
5.63978
21
-3.5527
0
LINE
8
BLACK
6
CONTINUOUS
10
5.63978
20
-3.5527
11
5.63983
21
-3.55274
0
LINE
8
BLACK
6
CONTINUOUS
10
5.63983
20
-3.55274
11
5.6417
21
-3.55649
0
LINE
8
BLACK
6
CONTINUOUS
10
5.6417
20
-3.55649
11
5.64185
21
-3.55698
0
LINE
8
BLACK
6
CONTINUOUS
10
5.64185
20
-3.55698
11
5.64192
21
-3.5571
0
LINE
8
BLACK
6
CONTINUOUS
10
5.64192
20
-3.5571
11
5.6438
21
-3.5646
0
LINE
8
BLACK
6
CONTINUOUS
10
5.6438
20
-3.5646
11
5.64384
21
-3.56518
0
LINE
8
BLACK
6
CONTINUOUS
10
5.64384
20
-3.56518
11
5.64389
21
-3.56531
0
LINE
8
BLACK
6
CONTINUOUS
10
5.64389
20
-3.56531
11
5.64389
21
-3.57094
0
LINE
8
BLACK
6
CONTINUOUS
10
5.64389
20
-3.57094
11
5.64378
21
-3.57152
0
LINE
8
BLACK
6
CONTINUOUS
10
5.64378
20
-3.57152
11
5.6438
21
-3.57165
0
LINE
8
BLACK
6
CONTINUOUS
10
5.6438
20
-3.57165
11
5.64192
21
-3.57915
0
LINE
8
BLACK
6
CONTINUOUS
10
5.64192
20
-3.57915
11
5.64172
21
-3.57962
0
LINE
8
BLACK
6
CONTINUOUS
10
5.64172
20
-3.57962
11
5.6417
21
-3.57976
0
LINE
8
BLACK
6
CONTINUOUS
10
5.6417
20
-3.57976
11
5.63983
21
-3.58351
0
LINE
8
BLACK
6
CONTINUOUS
10
5.63983
20
-3.58351
11
5.6393
21
-3.58422
0
LINE
8
BLACK
6
CONTINUOUS
10
5.6393
20
-3.58422
11
5.63927
21
-3.58427
0
LINE
8
BLACK
6
CONTINUOUS
10
5.63927
20
-3.58427
11
5.63552
21
-3.58802
0
LINE
8
BLACK
6
CONTINUOUS
10
5.63552
20
-3.58802
11
5.63468
21
-3.58861
0
LINE
8
BLACK
6
CONTINUOUS
10
5.63468
20
-3.58861
11
5.63451
21
-3.58863
0
LINE
8
BLACK
6
CONTINUOUS
10
5.63451
20
-3.58863
11
5.63437
21
-3.58874
0
LINE
8
BLACK
6
CONTINUOUS
10
5.63437
20
-3.58874
11
5.62874
21
-3.59061
0
LINE
8
BLACK
6
CONTINUOUS
10
5.62874
20
-3.59061
11
5.62787
21
-3.59074
0
LINE
8
BLACK
6
CONTINUOUS
10
5.62787
20
-3.59074
11
5.62781
21
-3.59076
0
LINE
8
BLACK
6
CONTINUOUS
10
5.62781
20
-3.59076
11
5.62406
21
-3.59076
0
LINE
8
BLACK
6
CONTINUOUS
10
5.62406
20
-3.59076
11
5.62319
21
-3.59061
0
LINE
8
BLACK
6
CONTINUOUS
10
5.62319
20
-3.59061
11
5.62313
21
-3.59061
0
LINE
8
BLACK
6
CONTINUOUS
10
5.62313
20
-3.59061
11
5.6175
21
-3.58874
0
LINE
8
BLACK
6
CONTINUOUS
10
5.6175
20
-3.58874
11
5.6166
21
-3.58825
0
LINE
8
BLACK
6
CONTINUOUS
10
5.6166
20
-3.58825
11
5.61651
21
-3.5881
0
LINE
8
BLACK
6
CONTINUOUS
10
5.61651
20
-3.5881
11
5.61635
21
-3.58802
0
LINE
8
BLACK
6
CONTINUOUS
10
5.61635
20
-3.58802
11
5.61447
21
-3.58615
0
LINE
8
BLACK
6
CONTINUOUS
10
5.61447
20
-3.58615
11
5.61389
21
-3.58531
0
LINE
8
BLACK
6
CONTINUOUS
10
5.61389
20
-3.58531
11
5.61371
21
-3.5833
0
LINE
8
BLACK
6
CONTINUOUS
10
5.61371
20
-3.5833
11
5.61487
21
-3.58164
0
LINE
8
BLACK
6
CONTINUOUS
10
5.61487
20
-3.58164
11
5.61682
21
-3.58112
0
LINE
8
BLACK
6
CONTINUOUS
10
5.61682
20
-3.58112
11
5.61865
21
-3.58197
0
LINE
8
BLACK
6
CONTINUOUS
10
5.61865
20
-3.58197
11
5.62003
21
-3.58335
0
LINE
8
BLACK
6
CONTINUOUS
10
5.62003
20
-3.58335
11
5.62454
21
-3.58486
0
LINE
8
BLACK
6
CONTINUOUS
10
5.62454
20
-3.58486
11
5.62733
21
-3.58486
0
LINE
8
BLACK
6
CONTINUOUS
10
5.62733
20
-3.58486
11
5.63184
21
-3.58335
0
LINE
8
BLACK
6
CONTINUOUS
10
5.63184
20
-3.58335
11
5.63476
21
-3.58044
0
LINE
8
BLACK
6
CONTINUOUS
10
5.63476
20
-3.58044
11
5.63627
21
-3.57741
0
LINE
8
BLACK
6
CONTINUOUS
10
5.63627
20
-3.57741
11
5.63798
21
-3.57057
0
LINE
8
BLACK
6
CONTINUOUS
10
5.63798
20
-3.57057
11
5.63798
21
-3.56568
0
LINE
8
BLACK
6
CONTINUOUS
10
5.63798
20
-3.56568
11
5.63627
21
-3.55884
0
LINE
8
BLACK
6
CONTINUOUS
10
5.63627
20
-3.55884
11
5.63476
21
-3.55581
0
LINE
8
BLACK
6
CONTINUOUS
10
5.63476
20
-3.55581
11
5.63184
21
-3.5529
0
LINE
8
BLACK
6
CONTINUOUS
10
5.63184
20
-3.5529
11
5.62733
21
-3.55139
0
LINE
8
BLACK
6
CONTINUOUS
10
5.62733
20
-3.55139
11
5.62454
21
-3.55139
0
LINE
8
BLACK
6
CONTINUOUS
10
5.62454
20
-3.55139
11
5.62003
21
-3.5529
0
LINE
8
BLACK
6
CONTINUOUS
10
5.62003
20
-3.5529
11
5.61865
21
-3.55428
0
LINE
8
BLACK
6
CONTINUOUS
10
5.61865
20
-3.55428
11
5.61781
21
-3.55487
0
LINE
8
BLACK
6
CONTINUOUS
10
5.61781
20
-3.55487
11
5.6158
21
-3.55504
0
LINE
8
BLACK
6
CONTINUOUS
10
5.6158
20
-3.55504
11
5.61414
21
-3.55388
0
LINE
8
BLACK
6
CONTINUOUS
10
5.61414
20
-3.55388
11
5.61362
21
-3.55193
0
LINE
8
BLACK
6
CONTINUOUS
10
5.61362
20
-3.55193
11
5.61447
21
-3.5501
0
LINE
8
BLACK
6
CONTINUOUS
10
5.61447
20
-3.5501
11
5.61635
21
-3.54823
0
LINE
8
BLACK
6
CONTINUOUS
10
5.61635
20
-3.54823
11
5.61719
21
-3.54764
0
LINE
8
BLACK
6
CONTINUOUS
10
5.61719
20
-3.54764
11
5.61736
21
-3.54762
0
LINE
8
BLACK
6
CONTINUOUS
10
5.61736
20
-3.54762
11
5.6175
21
-3.54751
0
LINE
8
BLACK
6
CONTINUOUS
10
5.6175
20
-3.54751
11
5.62313
21
-3.54564
0
LINE
8
BLACK
6
CONTINUOUS
10
5.62313
20
-3.54564
11
5.624
21
-3.54551
0
LINE
8
BLACK
6
CONTINUOUS
10
5.624
20
-3.54551
11
5.62406
21
-3.54549
0
LINE
8
BLACK
6
CONTINUOUS
10
5.62406
20
-3.54549
11
5.62781
21
-3.54549
0
LINE
8
BLACK
6
CONTINUOUS
10
5.62781
20
-3.54549
11
5.62868
21
-3.54564
0
LINE
8
BLACK
6
CONTINUOUS
10
5.59695
20
-3.54567
11
5.59708
21
-3.54578
0
LINE
8
BLACK
6
CONTINUOUS
10
5.59708
20
-3.54578
11
5.59726
21
-3.5458
0
LINE
8
BLACK
6
CONTINUOUS
10
5.59726
20
-3.5458
11
5.60101
21
-3.54767
0
LINE
8
BLACK
6
CONTINUOUS
10
5.60101
20
-3.54767
11
5.60172
21
-3.5482
0
LINE
8
BLACK
6
CONTINUOUS
10
5.60172
20
-3.5482
11
5.60178
21
-3.54823
0
LINE
8
BLACK
6
CONTINUOUS
10
5.60178
20
-3.54823
11
5.60365
21
-3.5501
0
LINE
8
BLACK
6
CONTINUOUS
10
5.60365
20
-3.5501
11
5.60424
21
-3.55094
0
LINE
8
BLACK
6
CONTINUOUS
10
5.60424
20
-3.55094
11
5.60442
21
-3.55295
0
LINE
8
BLACK
6
CONTINUOUS
10
5.60442
20
-3.55295
11
5.60326
21
-3.55461
0
LINE
8
BLACK
6
CONTINUOUS
10
5.60326
20
-3.55461
11
5.60131
21
-3.55513
0
LINE
8
BLACK
6
CONTINUOUS
10
5.60131
20
-3.55513
11
5.59948
21
-3.55428
0
LINE
8
BLACK
6
CONTINUOUS
10
5.59948
20
-3.55428
11
5.59794
21
-3.55274
0
LINE
8
BLACK
6
CONTINUOUS
10
5.59794
20
-3.55274
11
5.59524
21
-3.55139
0
LINE
8
BLACK
6
CONTINUOUS
10
5.59524
20
-3.55139
11
5.58726
21
-3.55139
0
LINE
8
BLACK
6
CONTINUOUS
10
5.58726
20
-3.55139
11
5.58456
21
-3.55274
0
LINE
8
BLACK
6
CONTINUOUS
10
5.58456
20
-3.55274
11
5.58337
21
-3.55394
0
LINE
8
BLACK
6
CONTINUOUS
10
5.58337
20
-3.55394
11
5.58202
21
-3.55664
0
LINE
8
BLACK
6
CONTINUOUS
10
5.58202
20
-3.55664
11
5.58202
21
-3.55921
0
LINE
8
BLACK
6
CONTINUOUS
10
5.58202
20
-3.55921
11
5.58352
21
-3.56372
0
LINE
8
BLACK
6
CONTINUOUS
10
5.58352
20
-3.56372
11
5.60553
21
-3.58572
0
LINE
8
BLACK
6
CONTINUOUS
10
5.60553
20
-3.58572
11
5.6059
21
-3.58625
0
LINE
8
BLACK
6
CONTINUOUS
10
5.6059
20
-3.58625
11
5.606
21
-3.58633
0
LINE
8
BLACK
6
CONTINUOUS
10
5.606
20
-3.58633
11
5.60601
21
-3.58641
0
LINE
8
BLACK
6
CONTINUOUS
10
5.60601
20
-3.58641
11
5.60611
21
-3.58656
0
LINE
8
BLACK
6
CONTINUOUS
10
5.60611
20
-3.58656
11
5.60619
21
-3.58745
0
LINE
8
BLACK
6
CONTINUOUS
10
5.60619
20
-3.58745
11
5.60635
21
-3.58832
0
LINE
8
BLACK
6
CONTINUOUS
10
5.60635
20
-3.58832
11
5.60628
21
-3.58844
0
LINE
8
BLACK
6
CONTINUOUS
10
5.60628
20
-3.58844
11
5.60629
21
-3.58857
0
LINE
8
BLACK
6
CONTINUOUS
10
5.60629
20
-3.58857
11
5.60578
21
-3.5893
0
LINE
8
BLACK
6
CONTINUOUS
10
5.60578
20
-3.5893
11
5.60534
21
-3.59007
0
LINE
8
BLACK
6
CONTINUOUS
10
5.60534
20
-3.59007
11
5.60521
21
-3.59012
0
LINE
8
BLACK
6
CONTINUOUS
10
5.60521
20
-3.59012
11
5.60513
21
-3.59023
0
LINE
8
BLACK
6
CONTINUOUS
10
5.60513
20
-3.59023
11
5.60427
21
-3.59046
0
LINE
8
BLACK
6
CONTINUOUS
10
5.60427
20
-3.59046
11
5.60344
21
-3.59076
0
LINE
8
BLACK
6
CONTINUOUS
10
5.60344
20
-3.59076
11
5.57907
21
-3.59076
0
LINE
8
BLACK
6
CONTINUOUS
10
5.57907
20
-3.59076
11
5.57806
21
-3.59058
0
LINE
8
BLACK
6
CONTINUOUS
10
5.57806
20
-3.59058
11
5.57651
21
-3.58929
0
LINE
8
BLACK
6
CONTINUOUS
10
5.57651
20
-3.58929
11
5.57616
21
-3.5873
0
LINE
8
BLACK
6
CONTINUOUS
10
5.57616
20
-3.5873
11
5.57717
21
-3.58555
0
LINE
8
BLACK
6
CONTINUOUS
10
5.57717
20
-3.58555
11
5.57907
21
-3.58486
0
LINE
8
BLACK
6
CONTINUOUS
10
5.57907
20
-3.58486
11
5.59631
21
-3.58486
0
LINE
8
BLACK
6
CONTINUOUS
10
5.59631
20
-3.58486
11
5.57885
21
-3.5674
0
LINE
8
BLACK
6
CONTINUOUS
10
5.57885
20
-3.5674
11
5.57827
21
-3.56656
0
LINE
8
BLACK
6
CONTINUOUS
10
5.57827
20
-3.56656
11
5.57825
21
-3.56639
0
LINE
8
BLACK
6
CONTINUOUS
10
5.57825
20
-3.56639
11
5.57814
21
-3.56625
0
LINE
8
BLACK
6
CONTINUOUS
10
5.57814
20
-3.56625
11
5.57627
21
-3.56062
0
LINE
8
BLACK
6
CONTINUOUS
10
5.57627
20
-3.56062
11
5.57614
21
-3.55975
0
LINE
8
BLACK
6
CONTINUOUS
10
5.57614
20
-3.55975
11
5.57611
21
-3.55969
0
LINE
8
BLACK
6
CONTINUOUS
10
5.57611
20
-3.55969
11
5.57611
21
-3.55594
0
LINE
8
BLACK
6
CONTINUOUS
10
5.57611
20
-3.55594
11
5.57629
21
-3.55493
0
LINE
8
BLACK
6
CONTINUOUS
10
5.57629
20
-3.55493
11
5.57641
21
-3.55479
0
LINE
8
BLACK
6
CONTINUOUS
10
5.57641
20
-3.55479
11
5.57643
21
-3.55462
0
LINE
8
BLACK
6
CONTINUOUS
10
5.57643
20
-3.55462
11
5.5783
21
-3.55087
0
LINE
8
BLACK
6
CONTINUOUS
10
5.5783
20
-3.55087
11
5.57883
21
-3.55016
0
LINE
8
BLACK
6
CONTINUOUS
10
5.57883
20
-3.55016
11
5.57885
21
-3.5501
0
LINE
8
BLACK
6
CONTINUOUS
10
5.57885
20
-3.5501
11
5.58073
21
-3.54823
0
LINE
8
BLACK
6
CONTINUOUS
10
5.58073
20
-3.54823
11
5.58145
21
-3.54772
0
LINE
8
BLACK
6
CONTINUOUS
10
5.58145
20
-3.54772
11
5.5815
21
-3.54767
0
LINE
8
BLACK
6
CONTINUOUS
10
5.5815
20
-3.54767
11
5.58524
21
-3.5458
0
LINE
8
BLACK
6
CONTINUOUS
10
5.58524
20
-3.5458
11
5.58623
21
-3.54551
0
LINE
8
BLACK
6
CONTINUOUS
10
5.58623
20
-3.54551
11
5.5864
21
-3.54555
0
LINE
8
BLACK
6
CONTINUOUS
10
5.5864
20
-3.54555
11
5.58657
21
-3.54549
0
LINE
8
BLACK
6
CONTINUOUS
10
5.58657
20
-3.54549
11
5.59594
21
-3.54549
0
LINE
8
BLACK
6
CONTINUOUS
10
5.59594
20
-3.54549
11
5.59695
21
-3.54567
0
LINE
8
BLACK
6
CONTINUOUS
10
5.51455
20
-3.53939
11
5.51525
21
-3.54106
0
LINE
8
BLACK
6
CONTINUOUS
10
5.51525
20
-3.54106
11
5.51455
21
-3.54273
0
LINE
8
BLACK
6
CONTINUOUS
10
5.51455
20
-3.54273
11
5.51288
21
-3.54343
0
LINE
8
BLACK
6
CONTINUOUS
10
5.51288
20
-3.54343
11
5.49231
21
-3.54343
0
LINE
8
BLACK
6
CONTINUOUS
10
5.49231
20
-3.54343
11
5.49064
21
-3.54273
0
LINE
8
BLACK
6
CONTINUOUS
10
5.49064
20
-3.54273
11
5.48995
21
-3.54106
0
LINE
8
BLACK
6
CONTINUOUS
10
5.48995
20
-3.54106
11
5.49064
21
-3.53939
0
LINE
8
BLACK
6
CONTINUOUS
10
5.49064
20
-3.53939
11
5.49231
21
-3.5387
0
LINE
8
BLACK
6
CONTINUOUS
10
5.49231
20
-3.5387
11
5.51288
21
-3.5387
0
LINE
8
BLACK
6
CONTINUOUS
10
5.51288
20
-3.5387
11
5.51455
21
-3.53939
0
LINE
8
BLACK
6
CONTINUOUS
10
5.49902
20
-3.2933
11
5.49964
21
-3.2933
0
LINE
8
BLACK
6
CONTINUOUS
10
5.49964
20
-3.2933
11
5.50015
21
-3.29367
0
LINE
8
BLACK
6
CONTINUOUS
10
5.50015
20
-3.29367
11
5.50074
21
-3.29386
0
LINE
8
BLACK
6
CONTINUOUS
10
5.50074
20
-3.29386
11
5.50111
21
-3.29437
0
LINE
8
BLACK
6
CONTINUOUS
10
5.50111
20
-3.29437
11
5.50161
21
-3.29473
0
LINE
8
BLACK
6
CONTINUOUS
10
5.50161
20
-3.29473
11
5.5018
21
-3.29533
0
LINE
8
BLACK
6
CONTINUOUS
10
5.5018
20
-3.29533
11
5.50217
21
-3.29583
0
LINE
8
BLACK
6
CONTINUOUS
10
5.50217
20
-3.29583
11
5.50217
21
-3.29645
0
LINE
8
BLACK
6
CONTINUOUS
10
5.50217
20
-3.29645
11
5.50236
21
-3.29705
0
LINE
8
BLACK
6
CONTINUOUS
10
5.50236
20
-3.29705
11
5.50236
21
-3.50295
0
LINE
8
BLACK
6
CONTINUOUS
10
5.50236
20
-3.50295
11
5.50217
21
-3.50355
0
LINE
8
BLACK
6
CONTINUOUS
10
5.50217
20
-3.50355
11
5.50217
21
-3.50417
0
LINE
8
BLACK
6
CONTINUOUS
10
5.50217
20
-3.50417
11
5.5018
21
-3.50467
0
LINE
8
BLACK
6
CONTINUOUS
10
5.5018
20
-3.50467
11
5.50161
21
-3.50527
0
LINE
8
BLACK
6
CONTINUOUS
10
5.50161
20
-3.50527
11
5.50111
21
-3.50563
0
LINE
8
BLACK
6
CONTINUOUS
10
5.50111
20
-3.50563
11
5.50074
21
-3.50614
0
LINE
8
BLACK
6
CONTINUOUS
10
5.50074
20
-3.50614
11
5.50015
21
-3.50633
0
LINE
8
BLACK
6
CONTINUOUS
10
5.50015
20
-3.50633
11
5.49964
21
-3.5067
0
LINE
8
BLACK
6
CONTINUOUS
10
5.49964
20
-3.5067
11
5.49902
21
-3.5067
0
LINE
8
BLACK
6
CONTINUOUS
10
5.49902
20
-3.5067
11
5.49843
21
-3.50689
0
LINE
8
BLACK
6
CONTINUOUS
10
5.49843
20
-3.50689
11
5.30157
21
-3.50689
0
LINE
8
BLACK
6
CONTINUOUS
10
5.30157
20
-3.50689
11
5.30098
21
-3.5067
0
LINE
8
BLACK
6
CONTINUOUS
10
5.30098
20
-3.5067
11
5.30036
21
-3.5067
0
LINE
8
BLACK
6
CONTINUOUS
10
5.30036
20
-3.5067
11
5.29985
21
-3.50633
0
LINE
8
BLACK
6
CONTINUOUS
10
5.29985
20
-3.50633
11
5.29926
21
-3.50614
0
LINE
8
BLACK
6
CONTINUOUS
10
5.29926
20
-3.50614
11
5.29889
21
-3.50563
0
LINE
8
BLACK
6
CONTINUOUS
10
5.29889
20
-3.50563
11
5.29839
21
-3.50527
0
LINE
8
BLACK
6
CONTINUOUS
10
5.29839
20
-3.50527
11
5.2982
21
-3.50467
0
LINE
8
BLACK
6
CONTINUOUS
10
5.2982
20
-3.50467
11
5.29783
21
-3.50417
0
LINE
8
BLACK
6
CONTINUOUS
10
5.29783
20
-3.50417
11
5.29783
21
-3.50355
0
LINE
8
BLACK
6
CONTINUOUS
10
5.29783
20
-3.50355
11
5.29764
21
-3.50295
0
LINE
8
BLACK
6
CONTINUOUS
10
5.29764
20
-3.50295
11
5.29764
21
-3.29705
0
LINE
8
BLACK
6
CONTINUOUS
10
5.29764
20
-3.29705
11
5.29783
21
-3.29645
0
LINE
8
BLACK
6
CONTINUOUS
10
5.29783
20
-3.29645
11
5.29783
21
-3.29583
0
LINE
8
BLACK
6
CONTINUOUS
10
5.29783
20
-3.29583
11
5.2982
21
-3.29533
0
LINE
8
BLACK
6
CONTINUOUS
10
5.2982
20
-3.29533
11
5.29839
21
-3.29473
0
LINE
8
BLACK
6
CONTINUOUS
10
5.29839
20
-3.29473
11
5.29889
21
-3.29437
0
LINE
8
BLACK
6
CONTINUOUS
10
5.29889
20
-3.29437
11
5.29926
21
-3.29386
0
LINE
8
BLACK
6
CONTINUOUS
10
5.29926
20
-3.29386
11
5.29985
21
-3.29367
0
LINE
8
BLACK
6
CONTINUOUS
10
5.29985
20
-3.29367
11
5.30036
21
-3.2933
0
LINE
8
BLACK
6
CONTINUOUS
10
5.30036
20
-3.2933
11
5.30098
21
-3.2933
0
LINE
8
BLACK
6
CONTINUOUS
10
5.30098
20
-3.2933
11
5.30157
21
-3.29311
0
LINE
8
BLACK
6
CONTINUOUS
10
5.30157
20
-3.29311
11
5.49843
21
-3.29311
0
LINE
8
BLACK
6
CONTINUOUS
10
5.49843
20
-3.29311
11
5.49902
21
-3.2933
0
LINE
8
BLACK
6
CONTINUOUS
10
5.30551
20
-3.30098
11
5.30551
21
-3.49902
0
LINE
8
BLACK
6
CONTINUOUS
10
5.30551
20
-3.49902
11
5.49449
21
-3.49902
0
LINE
8
BLACK
6
CONTINUOUS
10
5.49449
20
-3.49902
11
5.49449
21
-3.30098
0
LINE
8
BLACK
6
CONTINUOUS
10
5.49449
20
-3.30098
11
5.30551
21
-3.30098
0
LINE
8
BLACK
6
CONTINUOUS
10
5.29011
20
-3.49839
11
5.29154
21
-3.50036
0
LINE
8
BLACK
6
CONTINUOUS
10
5.29154
20
-3.50036
11
5.29154
21
-3.50279
0
LINE
8
BLACK
6
CONTINUOUS
10
5.29154
20
-3.50279
11
5.29011
21
-3.50476
0
LINE
8
BLACK
6
CONTINUOUS
10
5.29011
20
-3.50476
11
5.2878
21
-3.50551
0
LINE
8
BLACK
6
CONTINUOUS
10
5.2878
20
-3.50551
11
5.22283
21
-3.50551
0
LINE
8
BLACK
6
CONTINUOUS
10
5.22283
20
-3.50551
11
5.22052
21
-3.50476
0
LINE
8
BLACK
6
CONTINUOUS
10
5.22052
20
-3.50476
11
5.21909
21
-3.50279
0
LINE
8
BLACK
6
CONTINUOUS
10
5.21909
20
-3.50279
11
5.21909
21
-3.50036
0
LINE
8
BLACK
6
CONTINUOUS
10
5.21909
20
-3.50036
11
5.22052
21
-3.49839
0
LINE
8
BLACK
6
CONTINUOUS
10
5.22052
20
-3.49839
11
5.22283
21
-3.49764
0
LINE
8
BLACK
6
CONTINUOUS
10
5.22283
20
-3.49764
11
5.2878
21
-3.49764
0
LINE
8
BLACK
6
CONTINUOUS
10
5.2878
20
-3.49764
11
5.29011
21
-3.49839
0
LINE
8
BLACK
6
CONTINUOUS
10
5.36374
20
-3.21786
11
5.3651
21
-3.21804
0
LINE
8
BLACK
6
CONTINUOUS
10
5.3651
20
-3.21804
11
5.36513
21
-3.21807
0
LINE
8
BLACK
6
CONTINUOUS
10
5.36513
20
-3.21807
11
5.36518
21
-3.21807
0
LINE
8
BLACK
6
CONTINUOUS
10
5.36518
20
-3.21807
11
5.36621
21
-3.21897
0
LINE
8
BLACK
6
CONTINUOUS
10
5.36621
20
-3.21897
11
5.36726
21
-3.21985
0
LINE
8
BLACK
6
CONTINUOUS
10
5.36726
20
-3.21985
11
5.37174
21
-3.22658
0
LINE
8
BLACK
6
CONTINUOUS
10
5.37174
20
-3.22658
11
5.37558
21
-3.23041
0
LINE
8
BLACK
6
CONTINUOUS
10
5.37558
20
-3.23041
11
5.37962
21
-3.23243
0
LINE
8
BLACK
6
CONTINUOUS
10
5.37962
20
-3.23243
11
5.3808
21
-3.23325
0
LINE
8
BLACK
6
CONTINUOUS
10
5.3808
20
-3.23325
11
5.38223
21
-3.23568
0
LINE
8
BLACK
6
CONTINUOUS
10
5.38223
20
-3.23568
11
5.38212
21
-3.23849
0
LINE
8
BLACK
6
CONTINUOUS
10
5.38212
20
-3.23849
11
5.38052
21
-3.2408
0
LINE
8
BLACK
6
CONTINUOUS
10
5.38052
20
-3.2408
11
5.37792
21
-3.24188
0
LINE
8
BLACK
6
CONTINUOUS
10
5.37792
20
-3.24188
11
5.37514
21
-3.24138
0
LINE
8
BLACK
6
CONTINUOUS
10
5.37514
20
-3.24138
11
5.37038
21
-3.239
0
LINE
8
BLACK
6
CONTINUOUS
10
5.37038
20
-3.239
11
5.3692
21
-3.23818
0
LINE
8
BLACK
6
CONTINUOUS
10
5.3692
20
-3.23818
11
5.36916
21
-3.2381
0
LINE
8
BLACK
6
CONTINUOUS
10
5.36916
20
-3.2381
11
5.36908
21
-3.23806
0
LINE
8
BLACK
6
CONTINUOUS
10
5.36908
20
-3.23806
11
5.3681
21
-3.23707
0
LINE
8
BLACK
6
CONTINUOUS
10
5.3681
20
-3.23707
11
5.3681
21
-3.26762
0
LINE
8
BLACK
6
CONTINUOUS
10
5.3681
20
-3.26762
11
5.37738
21
-3.26762
0
LINE
8
BLACK
6
CONTINUOUS
10
5.37738
20
-3.26762
11
5.3788
21
-3.26782
0
LINE
8
BLACK
6
CONTINUOUS
10
5.3788
20
-3.26782
11
5.38117
21
-3.26935
0
LINE
8
BLACK
6
CONTINUOUS
10
5.38117
20
-3.26935
11
5.38233
21
-3.27191
0
LINE
8
BLACK
6
CONTINUOUS
10
5.38233
20
-3.27191
11
5.38193
21
-3.2747
0
LINE
8
BLACK
6
CONTINUOUS
10
5.38193
20
-3.2747
11
5.38008
21
-3.27683
0
LINE
8
BLACK
6
CONTINUOUS
10
5.38008
20
-3.27683
11
5.37738
21
-3.27762
0
LINE
8
BLACK
6
CONTINUOUS
10
5.37738
20
-3.27762
11
5.34881
21
-3.27762
0
LINE
8
BLACK
6
CONTINUOUS
10
5.34881
20
-3.27762
11
5.34739
21
-3.27741
0
LINE
8
BLACK
6
CONTINUOUS
10
5.34739
20
-3.27741
11
5.34502
21
-3.27589
0
LINE
8
BLACK
6
CONTINUOUS
10
5.34502
20
-3.27589
11
5.34386
21
-3.27332
0
LINE
8
BLACK
6
CONTINUOUS
10
5.34386
20
-3.27332
11
5.34426
21
-3.27054
0
LINE
8
BLACK
6
CONTINUOUS
10
5.34426
20
-3.27054
11
5.34611
21
-3.26841
0
LINE
8
BLACK
6
CONTINUOUS
10
5.34611
20
-3.26841
11
5.34881
21
-3.26762
0
LINE
8
BLACK
6
CONTINUOUS
10
5.34881
20
-3.26762
11
5.3581
21
-3.26762
0
LINE
8
BLACK
6
CONTINUOUS
10
5.3581
20
-3.26762
11
5.3581
21
-3.22262
0
LINE
8
BLACK
6
CONTINUOUS
10
5.3581
20
-3.22262
11
5.35828
21
-3.22136
0
LINE
8
BLACK
6
CONTINUOUS
10
5.35828
20
-3.22136
11
5.35828
21
-3.22128
0
LINE
8
BLACK
6
CONTINUOUS
10
5.35828
20
-3.22128
11
5.35829
21
-3.22126
0
LINE
8
BLACK
6
CONTINUOUS
10
5.35829
20
-3.22126
11
5.3583
21
-3.2212
0
LINE
8
BLACK
6
CONTINUOUS
10
5.3583
20
-3.2212
11
5.35904
21
-3.22005
0
LINE
8
BLACK
6
CONTINUOUS
10
5.35904
20
-3.22005
11
5.35976
21
-3.21889
0
LINE
8
BLACK
6
CONTINUOUS
10
5.35976
20
-3.21889
11
5.3598
21
-3.21887
0
LINE
8
BLACK
6
CONTINUOUS
10
5.3598
20
-3.21887
11
5.35983
21
-3.21883
0
LINE
8
BLACK
6
CONTINUOUS
10
5.35983
20
-3.21883
11
5.36107
21
-3.21827
0
LINE
8
BLACK
6
CONTINUOUS
10
5.36107
20
-3.21827
11
5.36231
21
-3.21768
0
LINE
8
BLACK
6
CONTINUOUS
10
5.36231
20
-3.21768
11
5.36235
21
-3.21769
0
LINE
8
BLACK
6
CONTINUOUS
10
5.36235
20
-3.21769
11
5.36239
21
-3.21767
0
LINE
8
BLACK
6
CONTINUOUS
10
5.36239
20
-3.21767
11
5.36374
21
-3.21786
0
LINE
8
BLACK
6
CONTINUOUS
10
5.41213
20
-3.21782
11
5.41221
21
-3.21787
0
LINE
8
BLACK
6
CONTINUOUS
10
5.41221
20
-3.21787
11
5.4123
21
-3.21788
0
LINE
8
BLACK
6
CONTINUOUS
10
5.4123
20
-3.21788
11
5.41944
21
-3.22026
0
LINE
8
BLACK
6
CONTINUOUS
10
5.41944
20
-3.22026
11
5.42072
21
-3.2209
0
LINE
8
BLACK
6
CONTINUOUS
10
5.42072
20
-3.2209
11
5.421
21
-3.22125
0
LINE
8
BLACK
6
CONTINUOUS
10
5.421
20
-3.22125
11
5.42139
21
-3.22146
0
LINE
8
BLACK
6
CONTINUOUS
10
5.42139
20
-3.22146
11
5.42615
21
-3.22623
0
LINE
8
BLACK
6
CONTINUOUS
10
5.42615
20
-3.22623
11
5.42701
21
-3.22738
0
LINE
8
BLACK
6
CONTINUOUS
10
5.42701
20
-3.22738
11
5.42703
21
-3.22746
0
LINE
8
BLACK
6
CONTINUOUS
10
5.42703
20
-3.22746
11
5.42709
21
-3.22753
0
LINE
8
BLACK
6
CONTINUOUS
10
5.42709
20
-3.22753
11
5.42947
21
-3.23229
0
LINE
8
BLACK
6
CONTINUOUS
10
5.42947
20
-3.23229
11
5.42976
21
-3.23316
0
LINE
8
BLACK
6
CONTINUOUS
10
5.42976
20
-3.23316
11
5.42985
21
-3.23331
0
LINE
8
BLACK
6
CONTINUOUS
10
5.42985
20
-3.23331
11
5.43223
21
-3.24283
0
LINE
8
BLACK
6
CONTINUOUS
10
5.43223
20
-3.24283
11
5.43234
21
-3.24391
0
LINE
8
BLACK
6
CONTINUOUS
10
5.43234
20
-3.24391
11
5.43238
21
-3.24405
0
LINE
8
BLACK
6
CONTINUOUS
10
5.43238
20
-3.24405
11
5.43238
21
-3.25119
0
LINE
8
BLACK
6
CONTINUOUS
10
5.43238
20
-3.25119
11
5.43223
21
-3.25226
0
LINE
8
BLACK
6
CONTINUOUS
10
5.43223
20
-3.25226
11
5.43223
21
-3.2524
0
LINE
8
BLACK
6
CONTINUOUS
10
5.43223
20
-3.2524
11
5.42985
21
-3.26193
0
LINE
8
BLACK
6
CONTINUOUS
10
5.42985
20
-3.26193
11
5.4295
21
-3.26277
0
LINE
8
BLACK
6
CONTINUOUS
10
5.4295
20
-3.26277
11
5.42947
21
-3.26295
0
LINE
8
BLACK
6
CONTINUOUS
10
5.42947
20
-3.26295
11
5.42709
21
-3.26771
0
LINE
8
BLACK
6
CONTINUOUS
10
5.42709
20
-3.26771
11
5.42627
21
-3.26889
0
LINE
8
BLACK
6
CONTINUOUS
10
5.42627
20
-3.26889
11
5.4262
21
-3.26893
0
LINE
8
BLACK
6
CONTINUOUS
10
5.4262
20
-3.26893
11
5.42615
21
-3.26901
0
LINE
8
BLACK
6
CONTINUOUS
10
5.42615
20
-3.26901
11
5.42139
21
-3.27377
0
LINE
8
BLACK
6
CONTINUOUS
10
5.42139
20
-3.27377
11
5.42024
21
-3.27463
0
LINE
8
BLACK
6
CONTINUOUS
10
5.42024
20
-3.27463
11
5.41981
21
-3.27473
0
LINE
8
BLACK
6
CONTINUOUS
10
5.41981
20
-3.27473
11
5.41944
21
-3.27498
0
LINE
8
BLACK
6
CONTINUOUS
10
5.41944
20
-3.27498
11
5.4123
21
-3.27736
0
LINE
8
BLACK
6
CONTINUOUS
10
5.4123
20
-3.27736
11
5.41088
21
-3.27762
0
LINE
8
BLACK
6
CONTINUOUS
10
5.41088
20
-3.27762
11
5.4108
21
-3.27759
0
LINE
8
BLACK
6
CONTINUOUS
10
5.4108
20
-3.27759
11
5.41071
21
-3.27762
0
LINE
8
BLACK
6
CONTINUOUS
10
5.41071
20
-3.27762
11
5.40595
21
-3.27762
0
LINE
8
BLACK
6
CONTINUOUS
10
5.40595
20
-3.27762
11
5.40453
21
-3.27741
0
LINE
8
BLACK
6
CONTINUOUS
10
5.40453
20
-3.27741
11
5.40446
21
-3.27737
0
LINE
8
BLACK
6
CONTINUOUS
10
5.40446
20
-3.27737
11
5.40437
21
-3.27736
0
LINE
8
BLACK
6
CONTINUOUS
10
5.40437
20
-3.27736
11
5.39723
21
-3.27498
0
LINE
8
BLACK
6
CONTINUOUS
10
5.39723
20
-3.27498
11
5.39595
21
-3.27434
0
LINE
8
BLACK
6
CONTINUOUS
10
5.39595
20
-3.27434
11
5.39567
21
-3.27399
0
LINE
8
BLACK
6
CONTINUOUS
10
5.39567
20
-3.27399
11
5.39527
21
-3.27377
0
LINE
8
BLACK
6
CONTINUOUS
10
5.39527
20
-3.27377
11
5.39289
21
-3.27139
0
LINE
8
BLACK
6
CONTINUOUS
10
5.39289
20
-3.27139
11
5.39203
21
-3.27024
0
LINE
8
BLACK
6
CONTINUOUS
10
5.39203
20
-3.27024
11
5.39144
21
-3.26749
0
LINE
8
BLACK
6
CONTINUOUS
10
5.39144
20
-3.26749
11
5.39243
21
-3.26485
0
LINE
8
BLACK
6
CONTINUOUS
10
5.39243
20
-3.26485
11
5.39469
21
-3.26317
0
LINE
8
BLACK
6
CONTINUOUS
10
5.39469
20
-3.26317
11
5.39749
21
-3.26297
0
LINE
8
BLACK
6
CONTINUOUS
10
5.39749
20
-3.26297
11
5.39996
21
-3.26432
0
LINE
8
BLACK
6
CONTINUOUS
10
5.39996
20
-3.26432
11
5.40151
21
-3.26587
0
LINE
8
BLACK
6
CONTINUOUS
10
5.40151
20
-3.26587
11
5.40676
21
-3.26762
0
LINE
8
BLACK
6
CONTINUOUS
10
5.40676
20
-3.26762
11
5.4099
21
-3.26762
0
LINE
8
BLACK
6
CONTINUOUS
10
5.4099
20
-3.26762
11
5.41516
21
-3.26587
0
LINE
8
BLACK
6
CONTINUOUS
10
5.41516
20
-3.26587
11
5.41851
21
-3.26251
0
LINE
8
BLACK
6
CONTINUOUS
10
5.41851
20
-3.26251
11
5.42028
21
-3.25897
0
LINE
8
BLACK
6
CONTINUOUS
10
5.42028
20
-3.25897
11
5.42238
21
-3.25057
0
LINE
8
BLACK
6
CONTINUOUS
10
5.42238
20
-3.25057
11
5.42238
21
-3.24466
0
LINE
8
BLACK
6
CONTINUOUS
10
5.42238
20
-3.24466
11
5.42028
21
-3.23627
0
LINE
8
BLACK
6
CONTINUOUS
10
5.42028
20
-3.23627
11
5.41851
21
-3.23272
0
LINE
8
BLACK
6
CONTINUOUS
10
5.41851
20
-3.23272
11
5.41516
21
-3.22937
0
LINE
8
BLACK
6
CONTINUOUS
10
5.41516
20
-3.22937
11
5.4099
21
-3.22762
0
LINE
8
BLACK
6
CONTINUOUS
10
5.4099
20
-3.22762
11
5.40676
21
-3.22762
0
LINE
8
BLACK
6
CONTINUOUS
10
5.40676
20
-3.22762
11
5.40151
21
-3.22937
0
LINE
8
BLACK
6
CONTINUOUS
10
5.40151
20
-3.22937
11
5.39996
21
-3.23092
0
LINE
8
BLACK
6
CONTINUOUS
10
5.39996
20
-3.23092
11
5.39881
21
-3.23178
0
LINE
8
BLACK
6
CONTINUOUS
10
5.39881
20
-3.23178
11
5.39606
21
-3.23237
0
LINE
8
BLACK
6
CONTINUOUS
10
5.39606
20
-3.23237
11
5.39343
21
-3.23138
0
LINE
8
BLACK
6
CONTINUOUS
10
5.39343
20
-3.23138
11
5.39174
21
-3.22912
0
LINE
8
BLACK
6
CONTINUOUS
10
5.39174
20
-3.22912
11
5.39154
21
-3.22632
0
LINE
8
BLACK
6
CONTINUOUS
10
5.39154
20
-3.22632
11
5.39289
21
-3.22385
0
LINE
8
BLACK
6
CONTINUOUS
10
5.39289
20
-3.22385
11
5.39527
21
-3.22146
0
LINE
8
BLACK
6
CONTINUOUS
10
5.39527
20
-3.22146
11
5.39642
21
-3.22061
0
LINE
8
BLACK
6
CONTINUOUS
10
5.39642
20
-3.22061
11
5.39686
21
-3.22051
0
LINE
8
BLACK
6
CONTINUOUS
10
5.39686
20
-3.22051
11
5.39723
21
-3.22026
0
LINE
8
BLACK
6
CONTINUOUS
10
5.39723
20
-3.22026
11
5.40437
21
-3.21788
0
LINE
8
BLACK
6
CONTINUOUS
10
5.40437
20
-3.21788
11
5.40578
21
-3.21762
0
LINE
8
BLACK
6
CONTINUOUS
10
5.40578
20
-3.21762
11
5.40587
21
-3.21764
0
LINE
8
BLACK
6
CONTINUOUS
10
5.40587
20
-3.21764
11
5.40595
21
-3.21762
0
LINE
8
BLACK
6
CONTINUOUS
10
5.40595
20
-3.21762
11
5.41071
21
-3.21762
0
LINE
8
BLACK
6
CONTINUOUS
10
5.41071
20
-3.21762
11
5.41213
21
-3.21782
0
LINE
8
BLACK
6
CONTINUOUS
10
5.45089
20
-3.21807
11
5.45302
21
-3.21992
0
LINE
8
BLACK
6
CONTINUOUS
10
5.45302
20
-3.21992
11
5.45381
21
-3.22262
0
LINE
8
BLACK
6
CONTINUOUS
10
5.45381
20
-3.22262
11
5.45381
21
-3.27262
0
LINE
8
BLACK
6
CONTINUOUS
10
5.45381
20
-3.27262
11
5.4536
21
-3.27404
0
LINE
8
BLACK
6
CONTINUOUS
10
5.4536
20
-3.27404
11
5.45208
21
-3.2764
0
LINE
8
BLACK
6
CONTINUOUS
10
5.45208
20
-3.2764
11
5.44951
21
-3.27757
0
LINE
8
BLACK
6
CONTINUOUS
10
5.44951
20
-3.27757
11
5.44673
21
-3.27717
0
LINE
8
BLACK
6
CONTINUOUS
10
5.44673
20
-3.27717
11
5.4446
21
-3.27532
0
LINE
8
BLACK
6
CONTINUOUS
10
5.4446
20
-3.27532
11
5.44381
21
-3.27262
0
LINE
8
BLACK
6
CONTINUOUS
10
5.44381
20
-3.27262
11
5.44381
21
-3.22262
0
LINE
8
BLACK
6
CONTINUOUS
10
5.44381
20
-3.22262
11
5.44402
21
-3.2212
0
LINE
8
BLACK
6
CONTINUOUS
10
5.44402
20
-3.2212
11
5.44554
21
-3.21883
0
LINE
8
BLACK
6
CONTINUOUS
10
5.44554
20
-3.21883
11
5.4481
21
-3.21767
0
LINE
8
BLACK
6
CONTINUOUS
10
5.4481
20
-3.21767
11
5.45089
21
-3.21807
0
LINE
8
BLACK
6
CONTINUOUS
10
5.48041
20
-3.00337
11
5.4811
21
-3.00504
0
LINE
8
BLACK
6
CONTINUOUS
10
5.4811
20
-3.00504
11
5.48041
21
-3.00671
0
LINE
8
BLACK
6
CONTINUOUS
10
5.48041
20
-3.00671
11
5.47874
21
-3.0074
0
LINE
8
BLACK
6
CONTINUOUS
10
5.47874
20
-3.0074
11
5.2685
21
-3.0074
0
LINE
8
BLACK
6
CONTINUOUS
10
5.2685
20
-3.0074
11
5.2685
21
-3.1326
0
LINE
8
BLACK
6
CONTINUOUS
10
5.2685
20
-3.1326
11
5.47874
21
-3.1326
0
LINE
8
BLACK
6
CONTINUOUS
10
5.47874
20
-3.1326
11
5.48041
21
-3.13329
0
LINE
8
BLACK
6
CONTINUOUS
10
5.48041
20
-3.13329
11
5.4811
21
-3.13496
0
LINE
8
BLACK
6
CONTINUOUS
10
5.4811
20
-3.13496
11
5.48041
21
-3.13663
0
LINE
8
BLACK
6
CONTINUOUS
10
5.48041
20
-3.13663
11
5.47874
21
-3.13732
0
LINE
8
BLACK
6
CONTINUOUS
10
5.47874
20
-3.13732
11
5.26614
21
-3.13732
0
LINE
8
BLACK
6
CONTINUOUS
10
5.26614
20
-3.13732
11
5.26447
21
-3.13663
0
LINE
8
BLACK
6
CONTINUOUS
10
5.26447
20
-3.13663
11
5.26378
21
-3.13496
0
LINE
8
BLACK
6
CONTINUOUS
10
5.26378
20
-3.13496
11
5.26378
21
-3.00504
0
LINE
8
BLACK
6
CONTINUOUS
10
5.26378
20
-3.00504
11
5.26447
21
-3.00337
0
LINE
8
BLACK
6
CONTINUOUS
10
5.26447
20
-3.00337
11
5.26614
21
-3.00268
0
LINE
8
BLACK
6
CONTINUOUS
10
5.26614
20
-3.00268
11
5.47874
21
-3.00268
0
LINE
8
BLACK
6
CONTINUOUS
10
5.47874
20
-3.00268
11
5.48041
21
-3.00337
0
LINE
8
BLACK
6
CONTINUOUS
10
5.38097
20
-2.94562
11
5.38114
21
-2.94561
0
LINE
8
BLACK
6
CONTINUOUS
10
5.38114
20
-2.94561
11
5.38183
21
-2.94611
0
LINE
8
BLACK
6
CONTINUOUS
10
5.38183
20
-2.94611
11
5.38258
21
-2.94654
0
LINE
8
BLACK
6
CONTINUOUS
10
5.38258
20
-2.94654
11
5.38263
21
-2.9467
0
LINE
8
BLACK
6
CONTINUOUS
10
5.38263
20
-2.9467
11
5.38277
21
-2.9468
0
LINE
8
BLACK
6
CONTINUOUS
10
5.38277
20
-2.9468
11
5.38636
21
-2.95218
0
LINE
8
BLACK
6
CONTINUOUS
10
5.38636
20
-2.95218
11
5.38956
21
-2.95539
0
LINE
8
BLACK
6
CONTINUOUS
10
5.38956
20
-2.95539
11
5.39288
21
-2.95705
0
LINE
8
BLACK
6
CONTINUOUS
10
5.39288
20
-2.95705
11
5.39371
21
-2.95766
0
LINE
8
BLACK
6
CONTINUOUS
10
5.39371
20
-2.95766
11
5.39451
21
-2.95951
0
LINE
8
BLACK
6
CONTINUOUS
10
5.39451
20
-2.95951
11
5.39394
21
-2.96145
0
LINE
8
BLACK
6
CONTINUOUS
10
5.39394
20
-2.96145
11
5.39225
21
-2.96256
0
LINE
8
BLACK
6
CONTINUOUS
10
5.39225
20
-2.96256
11
5.39024
21
-2.96233
0
LINE
8
BLACK
6
CONTINUOUS
10
5.39024
20
-2.96233
11
5.38649
21
-2.96046
0
LINE
8
BLACK
6
CONTINUOUS
10
5.38649
20
-2.96046
11
5.38578
21
-2.95993
0
LINE
8
BLACK
6
CONTINUOUS
10
5.38578
20
-2.95993
11
5.38573
21
-2.9599
0
LINE
8
BLACK
6
CONTINUOUS
10
5.38573
20
-2.9599
11
5.38327
21
-2.95744
0
LINE
8
BLACK
6
CONTINUOUS
10
5.38327
20
-2.95744
11
5.38327
21
-2.98486
0
LINE
8
BLACK
6
CONTINUOUS
10
5.38327
20
-2.98486
11
5.39156
21
-2.98486
0
LINE
8
BLACK
6
CONTINUOUS
10
5.39156
20
-2.98486
11
5.39257
21
-2.98504
0
LINE
8
BLACK
6
CONTINUOUS
10
5.39257
20
-2.98504
11
5.39412
21
-2.98633
0
LINE
8
BLACK
6
CONTINUOUS
10
5.39412
20
-2.98633
11
5.39447
21
-2.98832
0
LINE
8
BLACK
6
CONTINUOUS
10
5.39447
20
-2.98832
11
5.39346
21
-2.99007
0
LINE
8
BLACK
6
CONTINUOUS
10
5.39346
20
-2.99007
11
5.39156
21
-2.99076
0
LINE
8
BLACK
6
CONTINUOUS
10
5.39156
20
-2.99076
11
5.36907
21
-2.99076
0
LINE
8
BLACK
6
CONTINUOUS
10
5.36907
20
-2.99076
11
5.36806
21
-2.99058
0
LINE
8
BLACK
6
CONTINUOUS
10
5.36806
20
-2.99058
11
5.36651
21
-2.98929
0
LINE
8
BLACK
6
CONTINUOUS
10
5.36651
20
-2.98929
11
5.36616
21
-2.9873
0
LINE
8
BLACK
6
CONTINUOUS
10
5.36616
20
-2.9873
11
5.36717
21
-2.98555
0
LINE
8
BLACK
6
CONTINUOUS
10
5.36717
20
-2.98555
11
5.36907
21
-2.98486
0
LINE
8
BLACK
6
CONTINUOUS
10
5.36907
20
-2.98486
11
5.37736
21
-2.98486
0
LINE
8
BLACK
6
CONTINUOUS
10
5.37736
20
-2.98486
11
5.37736
21
-2.94844
0
LINE
8
BLACK
6
CONTINUOUS
10
5.37736
20
-2.94844
11
5.37754
21
-2.94743
0
LINE
8
BLACK
6
CONTINUOUS
10
5.37754
20
-2.94743
11
5.37765
21
-2.9473
0
LINE
8
BLACK
6
CONTINUOUS
10
5.37765
20
-2.9473
11
5.37767
21
-2.94713
0
LINE
8
BLACK
6
CONTINUOUS
10
5.37767
20
-2.94713
11
5.37829
21
-2.94654
0
LINE
8
BLACK
6
CONTINUOUS
10
5.37829
20
-2.94654
11
5.37884
21
-2.94588
0
LINE
8
BLACK
6
CONTINUOUS
10
5.37884
20
-2.94588
11
5.37901
21
-2.94585
0
LINE
8
BLACK
6
CONTINUOUS
10
5.37901
20
-2.94585
11
5.37913
21
-2.94574
0
LINE
8
BLACK
6
CONTINUOUS
10
5.37913
20
-2.94574
11
5.37998
21
-2.94568
0
LINE
8
BLACK
6
CONTINUOUS
10
5.37998
20
-2.94568
11
5.38083
21
-2.94553
0
LINE
8
BLACK
6
CONTINUOUS
10
5.38083
20
-2.94553
11
5.38097
21
-2.94562
0
LINE
8
BLACK
6
CONTINUOUS
10
5.42944
20
-2.94556
11
5.42957
21
-2.94553
0
LINE
8
BLACK
6
CONTINUOUS
10
5.42957
20
-2.94553
11
5.42969
21
-2.9456
0
LINE
8
BLACK
6
CONTINUOUS
10
5.42969
20
-2.9456
11
5.43007
21
-2.94567
0
LINE
8
BLACK
6
CONTINUOUS
10
5.43007
20
-2.94567
11
5.43066
21
-2.94616
0
LINE
8
BLACK
6
CONTINUOUS
10
5.43066
20
-2.94616
11
5.43132
21
-2.94654
0
LINE
8
BLACK
6
CONTINUOUS
10
5.43132
20
-2.94654
11
5.43141
21
-2.94679
0
LINE
8
BLACK
6
CONTINUOUS
10
5.43141
20
-2.94679
11
5.43162
21
-2.94696
0
LINE
8
BLACK
6
CONTINUOUS
10
5.43162
20
-2.94696
11
5.43175
21
-2.94772
0
LINE
8
BLACK
6
CONTINUOUS
10
5.43175
20
-2.94772
11
5.43201
21
-2.94844
0
LINE
8
BLACK
6
CONTINUOUS
10
5.43201
20
-2.94844
11
5.43201
21
-2.98781
0
LINE
8
BLACK
6
CONTINUOUS
10
5.43201
20
-2.98781
11
5.43194
21
-2.98819
0
LINE
8
BLACK
6
CONTINUOUS
10
5.43194
20
-2.98819
11
5.43197
21
-2.98832
0
LINE
8
BLACK
6
CONTINUOUS
10
5.43197
20
-2.98832
11
5.4319
21
-2.98844
0
LINE
8
BLACK
6
CONTINUOUS
10
5.4319
20
-2.98844
11
5.43183
21
-2.98882
0
LINE
8
BLACK
6
CONTINUOUS
10
5.43183
20
-2.98882
11
5.43134
21
-2.98941
0
LINE
8
BLACK
6
CONTINUOUS
10
5.43134
20
-2.98941
11
5.43096
21
-2.99007
0
LINE
8
BLACK
6
CONTINUOUS
10
5.43096
20
-2.99007
11
5.43071
21
-2.99016
0
LINE
8
BLACK
6
CONTINUOUS
10
5.43071
20
-2.99016
11
5.43054
21
-2.99037
0
LINE
8
BLACK
6
CONTINUOUS
10
5.43054
20
-2.99037
11
5.42978
21
-2.9905
0
LINE
8
BLACK
6
CONTINUOUS
10
5.42978
20
-2.9905
11
5.42906
21
-2.99076
0
LINE
8
BLACK
6
CONTINUOUS
10
5.42906
20
-2.99076
11
5.41969
21
-2.99076
0
LINE
8
BLACK
6
CONTINUOUS
10
5.41969
20
-2.99076
11
5.41882
21
-2.99061
0
LINE
8
BLACK
6
CONTINUOUS
10
5.41882
20
-2.99061
11
5.41875
21
-2.99061
0
LINE
8
BLACK
6
CONTINUOUS
10
5.41875
20
-2.99061
11
5.41313
21
-2.98874
0
LINE
8
BLACK
6
CONTINUOUS
10
5.41313
20
-2.98874
11
5.41223
21
-2.98825
0
LINE
8
BLACK
6
CONTINUOUS
10
5.41223
20
-2.98825
11
5.41213
21
-2.9881
0
LINE
8
BLACK
6
CONTINUOUS
10
5.41213
20
-2.9881
11
5.41197
21
-2.98802
0
LINE
8
BLACK
6
CONTINUOUS
10
5.41197
20
-2.98802
11
5.40822
21
-2.98427
0
LINE
8
BLACK
6
CONTINUOUS
10
5.40822
20
-2.98427
11
5.40772
21
-2.98355
0
LINE
8
BLACK
6
CONTINUOUS
10
5.40772
20
-2.98355
11
5.40767
21
-2.98351
0
LINE
8
BLACK
6
CONTINUOUS
10
5.40767
20
-2.98351
11
5.4058
21
-2.97976
0
LINE
8
BLACK
6
CONTINUOUS
10
5.4058
20
-2.97976
11
5.40565
21
-2.97927
0
LINE
8
BLACK
6
CONTINUOUS
10
5.40565
20
-2.97927
11
5.40557
21
-2.97915
0
LINE
8
BLACK
6
CONTINUOUS
10
5.40557
20
-2.97915
11
5.4037
21
-2.97165
0
LINE
8
BLACK
6
CONTINUOUS
10
5.4037
20
-2.97165
11
5.40366
21
-2.97107
0
LINE
8
BLACK
6
CONTINUOUS
10
5.40366
20
-2.97107
11
5.40361
21
-2.97094
0
LINE
8
BLACK
6
CONTINUOUS
10
5.40361
20
-2.97094
11
5.40361
21
-2.96531
0
LINE
8
BLACK
6
CONTINUOUS
10
5.40361
20
-2.96531
11
5.40371
21
-2.96473
0
LINE
8
BLACK
6
CONTINUOUS
10
5.40371
20
-2.96473
11
5.4037
21
-2.9646
0
LINE
8
BLACK
6
CONTINUOUS
10
5.4037
20
-2.9646
11
5.40557
21
-2.9571
0
LINE
8
BLACK
6
CONTINUOUS
10
5.40557
20
-2.9571
11
5.40578
21
-2.95663
0
LINE
8
BLACK
6
CONTINUOUS
10
5.40578
20
-2.95663
11
5.4058
21
-2.95649
0
LINE
8
BLACK
6
CONTINUOUS
10
5.4058
20
-2.95649
11
5.40767
21
-2.95274
0
LINE
8
BLACK
6
CONTINUOUS
10
5.40767
20
-2.95274
11
5.4082
21
-2.95203
0
LINE
8
BLACK
6
CONTINUOUS
10
5.4082
20
-2.95203
11
5.40822
21
-2.95198
0
LINE
8
BLACK
6
CONTINUOUS
10
5.40822
20
-2.95198
11
5.41197
21
-2.94823
0
LINE
8
BLACK
6
CONTINUOUS
10
5.41197
20
-2.94823
11
5.41281
21
-2.94764
0
LINE
8
BLACK
6
CONTINUOUS
10
5.41281
20
-2.94764
11
5.41299
21
-2.94762
0
LINE
8
BLACK
6
CONTINUOUS
10
5.41299
20
-2.94762
11
5.41313
21
-2.94751
0
LINE
8
BLACK
6
CONTINUOUS
10
5.41313
20
-2.94751
11
5.41875
21
-2.94564
0
LINE
8
BLACK
6
CONTINUOUS
10
5.41875
20
-2.94564
11
5.41962
21
-2.94551
0
LINE
8
BLACK
6
CONTINUOUS
10
5.41962
20
-2.94551
11
5.41969
21
-2.94549
0
LINE
8
BLACK
6
CONTINUOUS
10
5.41969
20
-2.94549
11
5.42906
21
-2.94549
0
LINE
8
BLACK
6
CONTINUOUS
10
5.42906
20
-2.94549
11
5.42944
21
-2.94556
0
LINE
8
BLACK
6
CONTINUOUS
10
5.42016
20
-2.95139
11
5.41566
21
-2.9529
0
LINE
8
BLACK
6
CONTINUOUS
10
5.41566
20
-2.9529
11
5.41274
21
-2.95581
0
LINE
8
BLACK
6
CONTINUOUS
10
5.41274
20
-2.95581
11
5.41122
21
-2.95884
0
LINE
8
BLACK
6
CONTINUOUS
10
5.41122
20
-2.95884
11
5.40951
21
-2.96568
0
LINE
8
BLACK
6
CONTINUOUS
10
5.40951
20
-2.96568
11
5.40951
21
-2.97057
0
LINE
8
BLACK
6
CONTINUOUS
10
5.40951
20
-2.97057
11
5.41122
21
-2.97741
0
LINE
8
BLACK
6
CONTINUOUS
10
5.41122
20
-2.97741
11
5.41274
21
-2.98044
0
LINE
8
BLACK
6
CONTINUOUS
10
5.41274
20
-2.98044
11
5.41566
21
-2.98335
0
LINE
8
BLACK
6
CONTINUOUS
10
5.41566
20
-2.98335
11
5.42016
21
-2.98486
0
LINE
8
BLACK
6
CONTINUOUS
10
5.42016
20
-2.98486
11
5.42611
21
-2.98486
0
LINE
8
BLACK
6
CONTINUOUS
10
5.42611
20
-2.98486
11
5.42611
21
-2.95139
0
LINE
8
BLACK
6
CONTINUOUS
10
5.42611
20
-2.95139
11
5.42016
21
-2.95139
  0
ENDSEC
  0
EOF
