  0
SECTION
  2
HEADER
  9
$ANGBASE
  50
0.0
  9
$ANGDIR
  70
1
  9
$MEASUREMENT
  70
0
  0
ENDSEC
  0
SECTION
  2
TABLES
  0
TABLE
  2
LTYPE
  70
4
  0
LTYPE
  5
40F
  2
CONTINUOUS
  70
0
  3
Solid line
  72
65
  73
0
  40
0.0
  0
LTYPE
  5
410
  2
DASHDOT
 70
0
  3
Dash Dot ____ _ ____ _
 72
65
 73
4
 40
2.0
 49
1.25
 49
-0.25
 49
0.25
 49
-0.25
  0
LTYPE
  5
411
  2
DASHED
 70
0
  3
Dashed __ __ __ __ __
 72
65
 73
2
 40
0.75
 49
0.5
 49
-0.25
  0
LTYPE
  5
43B
  2
DOTTED
 70
0
  3
Dotted .  .  .  .
 72
65
 73
2
 40
0.2
 49
0.0
 49
-0.2
  0
ENDTAB
  0
TABLE
  2
STYLE
  70
4
  0
STYLE
  2
KICAD
  70
0
  40
0
  41
1
  42
1
  50
0
  71
0
  3
isocp.shx
  0
STYLE
  2
KICADB
  70
0
  40
0
  41
1
  42
1
  50
0
  71
0
  3
isocp.shx
  0
STYLE
  2
KICADI
  70
0
  40
0
  41
1
  42
1
  50
15
  71
0
  3
isocp.shx
  0
STYLE
  2
KICADBI
  70
0
  40
0
  41
1
  42
1
  50
15
  71
0
  3
isocp.shx
  0
ENDTAB
  0
TABLE
  2
LAYER
  70
1
  0
LAYER
  2
BLACK
  70
0
  62
7
  6
CONTINUOUS
  0
ENDTAB
  0
ENDSEC
  0
SECTION
  2
ENTITIES
0
LINE
8
BLACK
6
CONTINUOUS
10
5.59927
20
-3.76946
11
5.60772
21
-3.77173
0
LINE
8
BLACK
6
CONTINUOUS
10
5.60772
20
-3.77173
11
5.61565
21
-3.77543
0
LINE
8
BLACK
6
CONTINUOUS
10
5.61565
20
-3.77543
11
5.62282
21
-3.78044
0
LINE
8
BLACK
6
CONTINUOUS
10
5.62282
20
-3.78044
11
5.629
21
-3.78663
0
LINE
8
BLACK
6
CONTINUOUS
10
5.629
20
-3.78663
11
5.63402
21
-3.7938
0
LINE
8
BLACK
6
CONTINUOUS
10
5.63402
20
-3.7938
11
5.63772
21
-3.80173
0
LINE
8
BLACK
6
CONTINUOUS
10
5.63772
20
-3.80173
11
5.63999
21
-3.81018
0
LINE
8
BLACK
6
CONTINUOUS
10
5.63999
20
-3.81018
11
5.64075
21
-3.8189
0
LINE
8
BLACK
6
CONTINUOUS
10
5.64075
20
-3.8189
11
5.63999
21
-3.82761
0
LINE
8
BLACK
6
CONTINUOUS
10
5.63999
20
-3.82761
11
5.63772
21
-3.83607
0
LINE
8
BLACK
6
CONTINUOUS
10
5.63772
20
-3.83607
11
5.63402
21
-3.844
0
LINE
8
BLACK
6
CONTINUOUS
10
5.63402
20
-3.844
11
5.629
21
-3.85116
0
LINE
8
BLACK
6
CONTINUOUS
10
5.629
20
-3.85116
11
5.62282
21
-3.85735
0
LINE
8
BLACK
6
CONTINUOUS
10
5.62282
20
-3.85735
11
5.61565
21
-3.86237
0
LINE
8
BLACK
6
CONTINUOUS
10
5.61565
20
-3.86237
11
5.60772
21
-3.86607
0
LINE
8
BLACK
6
CONTINUOUS
10
5.60772
20
-3.86607
11
5.59927
21
-3.86833
0
LINE
8
BLACK
6
CONTINUOUS
10
5.59927
20
-3.86833
11
5.59055
21
-3.86909
0
LINE
8
BLACK
6
CONTINUOUS
10
5.59055
20
-3.86909
11
5.58183
21
-3.86833
0
LINE
8
BLACK
6
CONTINUOUS
10
5.58183
20
-3.86833
11
5.57338
21
-3.86607
0
LINE
8
BLACK
6
CONTINUOUS
10
5.57338
20
-3.86607
11
5.56545
21
-3.86237
0
LINE
8
BLACK
6
CONTINUOUS
10
5.56545
20
-3.86237
11
5.55829
21
-3.85735
0
LINE
8
BLACK
6
CONTINUOUS
10
5.55829
20
-3.85735
11
5.5521
21
-3.85116
0
LINE
8
BLACK
6
CONTINUOUS
10
5.5521
20
-3.85116
11
5.54708
21
-3.844
0
LINE
8
BLACK
6
CONTINUOUS
10
5.54708
20
-3.844
11
5.54338
21
-3.83607
0
LINE
8
BLACK
6
CONTINUOUS
10
5.54338
20
-3.83607
11
5.54112
21
-3.82761
0
LINE
8
BLACK
6
CONTINUOUS
10
5.54112
20
-3.82761
11
5.54035
21
-3.8189
0
LINE
8
BLACK
6
CONTINUOUS
10
5.54035
20
-3.8189
11
5.54112
21
-3.81018
0
LINE
8
BLACK
6
CONTINUOUS
10
5.54112
20
-3.81018
11
5.54338
21
-3.80173
0
LINE
8
BLACK
6
CONTINUOUS
10
5.54338
20
-3.80173
11
5.54708
21
-3.7938
0
LINE
8
BLACK
6
CONTINUOUS
10
5.54708
20
-3.7938
11
5.5521
21
-3.78663
0
LINE
8
BLACK
6
CONTINUOUS
10
5.5521
20
-3.78663
11
5.55829
21
-3.78044
0
LINE
8
BLACK
6
CONTINUOUS
10
5.55829
20
-3.78044
11
5.56545
21
-3.77543
0
LINE
8
BLACK
6
CONTINUOUS
10
5.56545
20
-3.77543
11
5.57338
21
-3.77173
0
LINE
8
BLACK
6
CONTINUOUS
10
5.57338
20
-3.77173
11
5.58183
21
-3.76946
0
LINE
8
BLACK
6
CONTINUOUS
10
5.58183
20
-3.76946
11
5.59055
21
-3.7687
0
LINE
8
BLACK
6
CONTINUOUS
10
5.59055
20
-3.7687
11
5.59927
21
-3.76946
0
LINE
8
BLACK
6
CONTINUOUS
10
5.54287
20
-3.8273
11
5.54506
21
-3.83546
0
LINE
8
BLACK
6
CONTINUOUS
10
5.54506
20
-3.83546
11
5.54862
21
-3.8431
0
LINE
8
BLACK
6
CONTINUOUS
10
5.54862
20
-3.8431
11
5.55347
21
-3.85002
0
LINE
8
BLACK
6
CONTINUOUS
10
5.55347
20
-3.85002
11
5.55943
21
-3.85598
0
LINE
8
BLACK
6
CONTINUOUS
10
5.55943
20
-3.85598
11
5.56634
21
-3.86082
0
LINE
8
BLACK
6
CONTINUOUS
10
5.56634
20
-3.86082
11
5.57399
21
-3.86439
0
LINE
8
BLACK
6
CONTINUOUS
10
5.57399
20
-3.86439
11
5.58214
21
-3.86657
0
LINE
8
BLACK
6
CONTINUOUS
10
5.58214
20
-3.86657
11
5.59055
21
-3.86731
0
LINE
8
BLACK
6
CONTINUOUS
10
5.59055
20
-3.86731
11
5.59896
21
-3.86657
0
LINE
8
BLACK
6
CONTINUOUS
10
5.59896
20
-3.86657
11
5.60711
21
-3.86439
0
LINE
8
BLACK
6
CONTINUOUS
10
5.60711
20
-3.86439
11
5.61476
21
-3.86082
0
LINE
8
BLACK
6
CONTINUOUS
10
5.61476
20
-3.86082
11
5.62167
21
-3.85598
0
LINE
8
BLACK
6
CONTINUOUS
10
5.62167
20
-3.85598
11
5.62764
21
-3.85002
0
LINE
8
BLACK
6
CONTINUOUS
10
5.62764
20
-3.85002
11
5.63248
21
-3.8431
0
LINE
8
BLACK
6
CONTINUOUS
10
5.63248
20
-3.8431
11
5.63604
21
-3.83546
0
LINE
8
BLACK
6
CONTINUOUS
10
5.63604
20
-3.83546
11
5.63823
21
-3.8273
0
LINE
8
BLACK
6
CONTINUOUS
10
5.63823
20
-3.8273
11
5.63896
21
-3.8189
0
LINE
8
BLACK
6
CONTINUOUS
10
5.63896
20
-3.8189
11
5.63823
21
-3.81049
0
LINE
8
BLACK
6
CONTINUOUS
10
5.63823
20
-3.81049
11
5.63604
21
-3.80234
0
LINE
8
BLACK
6
CONTINUOUS
10
5.63604
20
-3.80234
11
5.63248
21
-3.79469
0
LINE
8
BLACK
6
CONTINUOUS
10
5.63248
20
-3.79469
11
5.62764
21
-3.78778
0
LINE
8
BLACK
6
CONTINUOUS
10
5.62764
20
-3.78778
11
5.62167
21
-3.78181
0
LINE
8
BLACK
6
CONTINUOUS
10
5.62167
20
-3.78181
11
5.61476
21
-3.77697
0
LINE
8
BLACK
6
CONTINUOUS
10
5.61476
20
-3.77697
11
5.60711
21
-3.7734
0
LINE
8
BLACK
6
CONTINUOUS
10
5.60711
20
-3.7734
11
5.59896
21
-3.77122
0
LINE
8
BLACK
6
CONTINUOUS
10
5.59896
20
-3.77122
11
5.59055
21
-3.77049
0
LINE
8
BLACK
6
CONTINUOUS
10
5.59055
20
-3.77049
11
5.58214
21
-3.77122
0
LINE
8
BLACK
6
CONTINUOUS
10
5.58214
20
-3.77122
11
5.57399
21
-3.7734
0
LINE
8
BLACK
6
CONTINUOUS
10
5.57399
20
-3.7734
11
5.56634
21
-3.77697
0
LINE
8
BLACK
6
CONTINUOUS
10
5.56634
20
-3.77697
11
5.55943
21
-3.78181
0
LINE
8
BLACK
6
CONTINUOUS
10
5.55943
20
-3.78181
11
5.55347
21
-3.78778
0
LINE
8
BLACK
6
CONTINUOUS
10
5.55347
20
-3.78778
11
5.54862
21
-3.79469
0
LINE
8
BLACK
6
CONTINUOUS
10
5.54862
20
-3.79469
11
5.54506
21
-3.80234
0
LINE
8
BLACK
6
CONTINUOUS
10
5.54506
20
-3.80234
11
5.54287
21
-3.81049
0
LINE
8
BLACK
6
CONTINUOUS
10
5.54287
20
-3.81049
11
5.54214
21
-3.8189
0
LINE
8
BLACK
6
CONTINUOUS
10
5.54214
20
-3.8189
11
5.54287
21
-3.8273
0
LINE
8
BLACK
6
CONTINUOUS
10
5.66693
20
-3.62972
11
5.66763
21
-3.63001
0
LINE
8
BLACK
6
CONTINUOUS
10
5.66763
20
-3.63001
11
5.66791
21
-3.63071
0
LINE
8
BLACK
6
CONTINUOUS
10
5.66791
20
-3.63071
11
5.66791
21
-3.70787
0
LINE
8
BLACK
6
CONTINUOUS
10
5.66791
20
-3.70787
11
5.66763
21
-3.70857
0
LINE
8
BLACK
6
CONTINUOUS
10
5.66763
20
-3.70857
11
5.66693
21
-3.70886
0
LINE
8
BLACK
6
CONTINUOUS
10
5.66693
20
-3.70886
11
5.53307
21
-3.70886
0
LINE
8
BLACK
6
CONTINUOUS
10
5.53307
20
-3.70886
11
5.53237
21
-3.70857
0
LINE
8
BLACK
6
CONTINUOUS
10
5.53237
20
-3.70857
11
5.53209
21
-3.70787
0
LINE
8
BLACK
6
CONTINUOUS
10
5.53209
20
-3.70787
11
5.53209
21
-3.63071
0
LINE
8
BLACK
6
CONTINUOUS
10
5.53209
20
-3.63071
11
5.53237
21
-3.63001
0
LINE
8
BLACK
6
CONTINUOUS
10
5.53237
20
-3.63001
11
5.53307
21
-3.62972
0
LINE
8
BLACK
6
CONTINUOUS
10
5.53307
20
-3.62972
11
5.66693
21
-3.62972
0
LINE
8
BLACK
6
CONTINUOUS
10
5.53406
20
-3.63169
11
5.53406
21
-3.70689
0
LINE
8
BLACK
6
CONTINUOUS
10
5.53406
20
-3.70689
11
5.66594
21
-3.70689
0
LINE
8
BLACK
6
CONTINUOUS
10
5.66594
20
-3.70689
11
5.66594
21
-3.63169
0
LINE
8
BLACK
6
CONTINUOUS
10
5.66594
20
-3.63169
11
5.53406
21
-3.63169
0
LINE
8
BLACK
6
CONTINUOUS
10
5.60953
20
-3.54043
11
5.61022
21
-3.54072
0
LINE
8
BLACK
6
CONTINUOUS
10
5.61022
20
-3.54072
11
5.61051
21
-3.54142
0
LINE
8
BLACK
6
CONTINUOUS
10
5.61051
20
-3.54142
11
5.61051
21
-3.61858
0
LINE
8
BLACK
6
CONTINUOUS
10
5.61051
20
-3.61858
11
5.61022
21
-3.61928
0
LINE
8
BLACK
6
CONTINUOUS
10
5.61022
20
-3.61928
11
5.60953
21
-3.61957
0
LINE
8
BLACK
6
CONTINUOUS
10
5.60953
20
-3.61957
11
5.47567
21
-3.61957
0
LINE
8
BLACK
6
CONTINUOUS
10
5.47567
20
-3.61957
11
5.47497
21
-3.61928
0
LINE
8
BLACK
6
CONTINUOUS
10
5.47497
20
-3.61928
11
5.47469
21
-3.61858
0
LINE
8
BLACK
6
CONTINUOUS
10
5.47469
20
-3.61858
11
5.47469
21
-3.54142
0
LINE
8
BLACK
6
CONTINUOUS
10
5.47469
20
-3.54142
11
5.47497
21
-3.54072
0
LINE
8
BLACK
6
CONTINUOUS
10
5.47497
20
-3.54072
11
5.47567
21
-3.54043
0
LINE
8
BLACK
6
CONTINUOUS
10
5.47567
20
-3.54043
11
5.60953
21
-3.54043
0
LINE
8
BLACK
6
CONTINUOUS
10
5.47665
20
-3.5424
11
5.47665
21
-3.6176
0
LINE
8
BLACK
6
CONTINUOUS
10
5.47665
20
-3.6176
11
5.60854
21
-3.6176
0
LINE
8
BLACK
6
CONTINUOUS
10
5.60854
20
-3.6176
11
5.60854
21
-3.5424
0
LINE
8
BLACK
6
CONTINUOUS
10
5.60854
20
-3.5424
11
5.47665
21
-3.5424
0
LINE
8
BLACK
6
CONTINUOUS
10
5.65701
20
-3.30425
11
5.6577
21
-3.30454
0
LINE
8
BLACK
6
CONTINUOUS
10
5.6577
20
-3.30454
11
5.65799
21
-3.30524
0
LINE
8
BLACK
6
CONTINUOUS
10
5.65799
20
-3.30524
11
5.65799
21
-3.53476
0
LINE
8
BLACK
6
CONTINUOUS
10
5.65799
20
-3.53476
11
5.6577
21
-3.53546
0
LINE
8
BLACK
6
CONTINUOUS
10
5.6577
20
-3.53546
11
5.65701
21
-3.53575
0
LINE
8
BLACK
6
CONTINUOUS
10
5.65701
20
-3.53575
11
5.28299
21
-3.53575
0
LINE
8
BLACK
6
CONTINUOUS
10
5.28299
20
-3.53575
11
5.2823
21
-3.53546
0
LINE
8
BLACK
6
CONTINUOUS
10
5.2823
20
-3.53546
11
5.28201
21
-3.53476
0
LINE
8
BLACK
6
CONTINUOUS
10
5.28201
20
-3.53476
11
5.28201
21
-3.30524
0
LINE
8
BLACK
6
CONTINUOUS
10
5.28201
20
-3.30524
11
5.2823
21
-3.30454
0
LINE
8
BLACK
6
CONTINUOUS
10
5.2823
20
-3.30454
11
5.28299
21
-3.30425
0
LINE
8
BLACK
6
CONTINUOUS
10
5.28299
20
-3.30425
11
5.65701
21
-3.30425
0
LINE
8
BLACK
6
CONTINUOUS
10
5.28398
20
-3.30622
11
5.28398
21
-3.53378
0
LINE
8
BLACK
6
CONTINUOUS
10
5.28398
20
-3.53378
11
5.65602
21
-3.53378
0
LINE
8
BLACK
6
CONTINUOUS
10
5.65602
20
-3.53378
11
5.65602
21
-3.30622
0
LINE
8
BLACK
6
CONTINUOUS
10
5.65602
20
-3.30622
11
5.28398
21
-3.30622
0
LINE
8
BLACK
6
CONTINUOUS
10
5.97047
20
-3.20374
11
5.97117
21
-3.20403
0
LINE
8
BLACK
6
CONTINUOUS
10
5.97117
20
-3.20403
11
5.97146
21
-3.20472
0
LINE
8
BLACK
6
CONTINUOUS
10
5.97146
20
-3.20472
11
5.97146
21
-3.37795
0
LINE
8
BLACK
6
CONTINUOUS
10
5.97146
20
-3.37795
11
5.97117
21
-3.37865
0
LINE
8
BLACK
6
CONTINUOUS
10
5.97117
20
-3.37865
11
5.97047
21
-3.37894
0
LINE
8
BLACK
6
CONTINUOUS
10
5.97047
20
-3.37894
11
5.87992
21
-3.37894
0
LINE
8
BLACK
6
CONTINUOUS
10
5.87992
20
-3.37894
11
5.87923
21
-3.37865
0
LINE
8
BLACK
6
CONTINUOUS
10
5.87923
20
-3.37865
11
5.87894
21
-3.37795
0
LINE
8
BLACK
6
CONTINUOUS
10
5.87894
20
-3.37795
11
5.87894
21
-3.20472
0
LINE
8
BLACK
6
CONTINUOUS
10
5.87894
20
-3.20472
11
5.87923
21
-3.20403
0
LINE
8
BLACK
6
CONTINUOUS
10
5.87923
20
-3.20403
11
5.87992
21
-3.20374
0
LINE
8
BLACK
6
CONTINUOUS
10
5.87992
20
-3.20374
11
5.97047
21
-3.20374
0
LINE
8
BLACK
6
CONTINUOUS
10
5.88091
20
-3.20571
11
5.88091
21
-3.37697
0
LINE
8
BLACK
6
CONTINUOUS
10
5.88091
20
-3.37697
11
5.96949
21
-3.37697
0
LINE
8
BLACK
6
CONTINUOUS
10
5.96949
20
-3.37697
11
5.96949
21
-3.20571
0
LINE
8
BLACK
6
CONTINUOUS
10
5.96949
20
-3.20571
11
5.88091
21
-3.20571
0
LINE
8
BLACK
6
CONTINUOUS
10
5.52053
20
-3.10017
11
5.52898
21
-3.10244
0
LINE
8
BLACK
6
CONTINUOUS
10
5.52898
20
-3.10244
11
5.53691
21
-3.10613
0
LINE
8
BLACK
6
CONTINUOUS
10
5.53691
20
-3.10613
11
5.54408
21
-3.11115
0
LINE
8
BLACK
6
CONTINUOUS
10
5.54408
20
-3.11115
11
5.55026
21
-3.11734
0
LINE
8
BLACK
6
CONTINUOUS
10
5.55026
20
-3.11734
11
5.55528
21
-3.12451
0
LINE
8
BLACK
6
CONTINUOUS
10
5.55528
20
-3.12451
11
5.55898
21
-3.13244
0
LINE
8
BLACK
6
CONTINUOUS
10
5.55898
20
-3.13244
11
5.56125
21
-3.14089
0
LINE
8
BLACK
6
CONTINUOUS
10
5.56125
20
-3.14089
11
5.56201
21
-3.14961
0
LINE
8
BLACK
6
CONTINUOUS
10
5.56201
20
-3.14961
11
5.56125
21
-3.15832
0
LINE
8
BLACK
6
CONTINUOUS
10
5.56125
20
-3.15832
11
5.55898
21
-3.16677
0
LINE
8
BLACK
6
CONTINUOUS
10
5.55898
20
-3.16677
11
5.55528
21
-3.1747
0
LINE
8
BLACK
6
CONTINUOUS
10
5.55528
20
-3.1747
11
5.55026
21
-3.18187
0
LINE
8
BLACK
6
CONTINUOUS
10
5.55026
20
-3.18187
11
5.54408
21
-3.18806
0
LINE
8
BLACK
6
CONTINUOUS
10
5.54408
20
-3.18806
11
5.53691
21
-3.19308
0
LINE
8
BLACK
6
CONTINUOUS
10
5.53691
20
-3.19308
11
5.52898
21
-3.19678
0
LINE
8
BLACK
6
CONTINUOUS
10
5.52898
20
-3.19678
11
5.52053
21
-3.19904
0
LINE
8
BLACK
6
CONTINUOUS
10
5.52053
20
-3.19904
11
5.51181
21
-3.1998
0
LINE
8
BLACK
6
CONTINUOUS
10
5.51181
20
-3.1998
11
5.50309
21
-3.19904
0
LINE
8
BLACK
6
CONTINUOUS
10
5.50309
20
-3.19904
11
5.49464
21
-3.19678
0
LINE
8
BLACK
6
CONTINUOUS
10
5.49464
20
-3.19678
11
5.48671
21
-3.19308
0
LINE
8
BLACK
6
CONTINUOUS
10
5.48671
20
-3.19308
11
5.47955
21
-3.18806
0
LINE
8
BLACK
6
CONTINUOUS
10
5.47955
20
-3.18806
11
5.47336
21
-3.18187
0
LINE
8
BLACK
6
CONTINUOUS
10
5.47336
20
-3.18187
11
5.46834
21
-3.1747
0
LINE
8
BLACK
6
CONTINUOUS
10
5.46834
20
-3.1747
11
5.46464
21
-3.16677
0
LINE
8
BLACK
6
CONTINUOUS
10
5.46464
20
-3.16677
11
5.46238
21
-3.15832
0
LINE
8
BLACK
6
CONTINUOUS
10
5.46238
20
-3.15832
11
5.46161
21
-3.14961
0
LINE
8
BLACK
6
CONTINUOUS
10
5.46161
20
-3.14961
11
5.46238
21
-3.14089
0
LINE
8
BLACK
6
CONTINUOUS
10
5.46238
20
-3.14089
11
5.46464
21
-3.13244
0
LINE
8
BLACK
6
CONTINUOUS
10
5.46464
20
-3.13244
11
5.46834
21
-3.12451
0
LINE
8
BLACK
6
CONTINUOUS
10
5.46834
20
-3.12451
11
5.47336
21
-3.11734
0
LINE
8
BLACK
6
CONTINUOUS
10
5.47336
20
-3.11734
11
5.47955
21
-3.11115
0
LINE
8
BLACK
6
CONTINUOUS
10
5.47955
20
-3.11115
11
5.48671
21
-3.10613
0
LINE
8
BLACK
6
CONTINUOUS
10
5.48671
20
-3.10613
11
5.49464
21
-3.10244
0
LINE
8
BLACK
6
CONTINUOUS
10
5.49464
20
-3.10244
11
5.50309
21
-3.10017
0
LINE
8
BLACK
6
CONTINUOUS
10
5.50309
20
-3.10017
11
5.51181
21
-3.09941
0
LINE
8
BLACK
6
CONTINUOUS
10
5.51181
20
-3.09941
11
5.52053
21
-3.10017
0
LINE
8
BLACK
6
CONTINUOUS
10
5.46413
20
-3.15801
11
5.46632
21
-3.16616
0
LINE
8
BLACK
6
CONTINUOUS
10
5.46632
20
-3.16616
11
5.46988
21
-3.17381
0
LINE
8
BLACK
6
CONTINUOUS
10
5.46988
20
-3.17381
11
5.47472
21
-3.18073
0
LINE
8
BLACK
6
CONTINUOUS
10
5.47472
20
-3.18073
11
5.48069
21
-3.18669
0
LINE
8
BLACK
6
CONTINUOUS
10
5.48069
20
-3.18669
11
5.4876
21
-3.19153
0
LINE
8
BLACK
6
CONTINUOUS
10
5.4876
20
-3.19153
11
5.49525
21
-3.1951
0
LINE
8
BLACK
6
CONTINUOUS
10
5.49525
20
-3.1951
11
5.5034
21
-3.19728
0
LINE
8
BLACK
6
CONTINUOUS
10
5.5034
20
-3.19728
11
5.51181
21
-3.19802
0
LINE
8
BLACK
6
CONTINUOUS
10
5.51181
20
-3.19802
11
5.52022
21
-3.19728
0
LINE
8
BLACK
6
CONTINUOUS
10
5.52022
20
-3.19728
11
5.52837
21
-3.1951
0
LINE
8
BLACK
6
CONTINUOUS
10
5.52837
20
-3.1951
11
5.53602
21
-3.19153
0
LINE
8
BLACK
6
CONTINUOUS
10
5.53602
20
-3.19153
11
5.54293
21
-3.18669
0
LINE
8
BLACK
6
CONTINUOUS
10
5.54293
20
-3.18669
11
5.5489
21
-3.18073
0
LINE
8
BLACK
6
CONTINUOUS
10
5.5489
20
-3.18073
11
5.55374
21
-3.17381
0
LINE
8
BLACK
6
CONTINUOUS
10
5.55374
20
-3.17381
11
5.5573
21
-3.16616
0
LINE
8
BLACK
6
CONTINUOUS
10
5.5573
20
-3.16616
11
5.55949
21
-3.15801
0
LINE
8
BLACK
6
CONTINUOUS
10
5.55949
20
-3.15801
11
5.56022
21
-3.14961
0
LINE
8
BLACK
6
CONTINUOUS
10
5.56022
20
-3.14961
11
5.55949
21
-3.1412
0
LINE
8
BLACK
6
CONTINUOUS
10
5.55949
20
-3.1412
11
5.5573
21
-3.13305
0
LINE
8
BLACK
6
CONTINUOUS
10
5.5573
20
-3.13305
11
5.55374
21
-3.1254
0
LINE
8
BLACK
6
CONTINUOUS
10
5.55374
20
-3.1254
11
5.5489
21
-3.11849
0
LINE
8
BLACK
6
CONTINUOUS
10
5.5489
20
-3.11849
11
5.54293
21
-3.11252
0
LINE
8
BLACK
6
CONTINUOUS
10
5.54293
20
-3.11252
11
5.53602
21
-3.10768
0
LINE
8
BLACK
6
CONTINUOUS
10
5.53602
20
-3.10768
11
5.52837
21
-3.10411
0
LINE
8
BLACK
6
CONTINUOUS
10
5.52837
20
-3.10411
11
5.52022
21
-3.10193
0
LINE
8
BLACK
6
CONTINUOUS
10
5.52022
20
-3.10193
11
5.51181
21
-3.10119
0
LINE
8
BLACK
6
CONTINUOUS
10
5.51181
20
-3.10119
11
5.5034
21
-3.10193
0
LINE
8
BLACK
6
CONTINUOUS
10
5.5034
20
-3.10193
11
5.49525
21
-3.10411
0
LINE
8
BLACK
6
CONTINUOUS
10
5.49525
20
-3.10411
11
5.4876
21
-3.10768
0
LINE
8
BLACK
6
CONTINUOUS
10
5.4876
20
-3.10768
11
5.48069
21
-3.11252
0
LINE
8
BLACK
6
CONTINUOUS
10
5.48069
20
-3.11252
11
5.47472
21
-3.11849
0
LINE
8
BLACK
6
CONTINUOUS
10
5.47472
20
-3.11849
11
5.46988
21
-3.1254
0
LINE
8
BLACK
6
CONTINUOUS
10
5.46988
20
-3.1254
11
5.46632
21
-3.13305
0
LINE
8
BLACK
6
CONTINUOUS
10
5.46632
20
-3.13305
11
5.46413
21
-3.1412
0
LINE
8
BLACK
6
CONTINUOUS
10
5.46413
20
-3.1412
11
5.4634
21
-3.14961
0
LINE
8
BLACK
6
CONTINUOUS
10
5.4634
20
-3.14961
11
5.46413
21
-3.15801
  0
ENDSEC
  0
EOF
