  0
SECTION
  2
HEADER
  9
$ANGBASE
  50
0.0
  9
$ANGDIR
  70
1
  9
$MEASUREMENT
  70
0
  0
ENDSEC
  0
SECTION
  2
TABLES
  0
TABLE
  2
LTYPE
  70
4
  0
LTYPE
  5
40F
  2
CONTINUOUS
  70
0
  3
Solid line
  72
65
  73
0
  40
0.0
  0
LTYPE
  5
410
  2
DASHDOT
 70
0
  3
Dash Dot ____ _ ____ _
 72
65
 73
4
 40
2.0
 49
1.25
 49
-0.25
 49
0.25
 49
-0.25
  0
LTYPE
  5
411
  2
DASHED
 70
0
  3
Dashed __ __ __ __ __
 72
65
 73
2
 40
0.75
 49
0.5
 49
-0.25
  0
LTYPE
  5
43B
  2
DOTTED
 70
0
  3
Dotted .  .  .  .
 72
65
 73
2
 40
0.2
 49
0.0
 49
-0.2
  0
ENDTAB
  0
TABLE
  2
STYLE
  70
4
  0
STYLE
  2
KICAD
  70
0
  40
0
  41
1
  42
1
  50
0
  71
0
  3
isocp.shx
  0
STYLE
  2
KICADB
  70
0
  40
0
  41
1
  42
1
  50
0
  71
0
  3
isocp.shx
  0
STYLE
  2
KICADI
  70
0
  40
0
  41
1
  42
1
  50
15
  71
0
  3
isocp.shx
  0
STYLE
  2
KICADBI
  70
0
  40
0
  41
1
  42
1
  50
15
  71
0
  3
isocp.shx
  0
ENDTAB
  0
TABLE
  2
LAYER
  70
1
  0
LAYER
  2
BLACK
  70
0
  62
7
  6
CONTINUOUS
  0
ENDTAB
  0
ENDSEC
  0
SECTION
  2
ENTITIES
0
LINE
8
BLACK
6
CONTINUOUS
10
0.208177
20
-0.060834
11
0.212891
21
-0.0638632
0
LINE
8
BLACK
6
CONTINUOUS
10
0.212891
20
-0.0638632
11
0.21656
21
-0.0680976
0
LINE
8
BLACK
6
CONTINUOUS
10
0.21656
20
-0.0680976
11
0.218888
21
-0.0731943
0
LINE
8
BLACK
6
CONTINUOUS
10
0.218888
20
-0.0731943
11
0.219685
21
-0.0787402
0
LINE
8
BLACK
6
CONTINUOUS
10
0.219685
20
-0.0787402
11
0.218888
21
-0.0842861
0
LINE
8
BLACK
6
CONTINUOUS
10
0.218888
20
-0.0842861
11
0.21656
21
-0.0893827
0
LINE
8
BLACK
6
CONTINUOUS
10
0.21656
20
-0.0893827
11
0.212891
21
-0.0936171
0
LINE
8
BLACK
6
CONTINUOUS
10
0.212891
20
-0.0936171
11
0.208177
21
-0.0966463
0
LINE
8
BLACK
6
CONTINUOUS
10
0.208177
20
-0.0966463
11
0.202801
21
-0.0982248
0
LINE
8
BLACK
6
CONTINUOUS
10
0.202801
20
-0.0982248
11
0.197199
21
-0.0982248
0
LINE
8
BLACK
6
CONTINUOUS
10
0.197199
20
-0.0982248
11
0.191823
21
-0.0966463
0
LINE
8
BLACK
6
CONTINUOUS
10
0.191823
20
-0.0966463
11
0.187109
21
-0.0936171
0
LINE
8
BLACK
6
CONTINUOUS
10
0.187109
20
-0.0936171
11
0.18344
21
-0.0893827
0
LINE
8
BLACK
6
CONTINUOUS
10
0.18344
20
-0.0893827
11
0.181112
21
-0.0842861
0
LINE
8
BLACK
6
CONTINUOUS
10
0.181112
20
-0.0842861
11
0.180315
21
-0.0787402
0
LINE
8
BLACK
6
CONTINUOUS
10
0.180315
20
-0.0787402
11
0.181112
21
-0.0731943
0
LINE
8
BLACK
6
CONTINUOUS
10
0.181112
20
-0.0731943
11
0.18344
21
-0.0680976
0
LINE
8
BLACK
6
CONTINUOUS
10
0.18344
20
-0.0680976
11
0.187109
21
-0.0638632
0
LINE
8
BLACK
6
CONTINUOUS
10
0.187109
20
-0.0638632
11
0.191823
21
-0.060834
0
LINE
8
BLACK
6
CONTINUOUS
10
0.191823
20
-0.060834
11
0.197199
21
-0.0592555
0
LINE
8
BLACK
6
CONTINUOUS
10
0.197199
20
-0.0592555
11
0.202801
21
-0.0592555
0
LINE
8
BLACK
6
CONTINUOUS
10
0.202801
20
-0.0592555
11
0.208177
21
-0.060834
0
LINE
8
BLACK
6
CONTINUOUS
10
0.430341
20
0.581827
11
0.436732
21
0.578981
0
LINE
8
BLACK
6
CONTINUOUS
10
0.436732
20
0.578981
11
0.442392
21
0.574869
0
LINE
8
BLACK
6
CONTINUOUS
10
0.442392
20
0.574869
11
0.447073
21
0.56967
0
LINE
8
BLACK
6
CONTINUOUS
10
0.447073
20
0.56967
11
0.450571
21
0.563611
0
LINE
8
BLACK
6
CONTINUOUS
10
0.450571
20
0.563611
11
0.452733
21
0.556958
0
LINE
8
BLACK
6
CONTINUOUS
10
0.452733
20
0.556958
11
0.453465
21
0.55
0
LINE
8
BLACK
6
CONTINUOUS
10
0.453465
20
0.55
11
0.452733
21
0.543042
0
LINE
8
BLACK
6
CONTINUOUS
10
0.452733
20
0.543042
11
0.450571
21
0.536389
0
LINE
8
BLACK
6
CONTINUOUS
10
0.450571
20
0.536389
11
0.449034
21
0.533727
0
LINE
8
BLACK
6
CONTINUOUS
10
0.449034
20
0.533727
11
0.508836
21
0.473925
0
LINE
8
BLACK
6
CONTINUOUS
10
0.508836
20
0.473925
11
0.509619
21
0.474448
0
LINE
8
BLACK
6
CONTINUOUS
10
0.509619
20
0.474448
11
0.513386
21
0.475197
0
LINE
8
BLACK
6
CONTINUOUS
10
0.513386
20
0.475197
11
0.537008
21
0.475197
0
LINE
8
BLACK
6
CONTINUOUS
10
0.537008
20
0.475197
11
0.540774
21
0.474448
0
LINE
8
BLACK
6
CONTINUOUS
10
0.540774
20
0.474448
11
0.543968
21
0.472314
0
LINE
8
BLACK
6
CONTINUOUS
10
0.543968
20
0.472314
11
0.546101
21
0.469121
0
LINE
8
BLACK
6
CONTINUOUS
10
0.546101
20
0.469121
11
0.54685
21
0.465354
0
LINE
8
BLACK
6
CONTINUOUS
10
0.54685
20
0.465354
11
0.54685
21
0.441732
0
LINE
8
BLACK
6
CONTINUOUS
10
0.54685
20
0.441732
11
0.546101
21
0.437966
0
LINE
8
BLACK
6
CONTINUOUS
10
0.546101
20
0.437966
11
0.543968
21
0.434773
0
LINE
8
BLACK
6
CONTINUOUS
10
0.543968
20
0.434773
11
0.540774
21
0.432639
0
LINE
8
BLACK
6
CONTINUOUS
10
0.540774
20
0.432639
11
0.537008
21
0.43189
0
LINE
8
BLACK
6
CONTINUOUS
10
0.537008
20
0.43189
11
0.535039
21
0.43189
0
LINE
8
BLACK
6
CONTINUOUS
10
0.535039
20
0.43189
11
0.535039
21
0.209449
0
LINE
8
BLACK
6
CONTINUOUS
10
0.535039
20
0.209449
11
0.534838
21
0.208698
0
LINE
8
BLACK
6
CONTINUOUS
10
0.534838
20
0.208698
11
0.534838
21
0.20792
0
LINE
8
BLACK
6
CONTINUOUS
10
0.534838
20
0.20792
11
0.534449
21
0.207247
0
LINE
8
BLACK
6
CONTINUOUS
10
0.534449
20
0.207247
11
0.534248
21
0.206496
0
LINE
8
BLACK
6
CONTINUOUS
10
0.534248
20
0.206496
11
0.533698
21
0.205946
0
LINE
8
BLACK
6
CONTINUOUS
10
0.533698
20
0.205946
11
0.53331
21
0.205273
0
LINE
8
BLACK
6
CONTINUOUS
10
0.53331
20
0.205273
11
0.497877
21
0.16984
0
LINE
8
BLACK
6
CONTINUOUS
10
0.497877
20
0.16984
11
0.497203
21
0.169451
0
LINE
8
BLACK
6
CONTINUOUS
10
0.497203
20
0.169451
11
0.496654
21
0.168901
0
LINE
8
BLACK
6
CONTINUOUS
10
0.496654
20
0.168901
11
0.495903
21
0.1687
0
LINE
8
BLACK
6
CONTINUOUS
10
0.495903
20
0.1687
11
0.495229
21
0.168311
0
LINE
8
BLACK
6
CONTINUOUS
10
0.495229
20
0.168311
11
0.494452
21
0.168311
0
LINE
8
BLACK
6
CONTINUOUS
10
0.494452
20
0.168311
11
0.493701
21
0.16811
0
LINE
8
BLACK
6
CONTINUOUS
10
0.493701
20
0.16811
11
0.21063
21
0.16811
0
LINE
8
BLACK
6
CONTINUOUS
10
0.21063
20
0.16811
11
0.21063
21
0.150591
0
LINE
8
BLACK
6
CONTINUOUS
10
0.21063
20
0.150591
11
0.209881
21
0.146824
0
LINE
8
BLACK
6
CONTINUOUS
10
0.209881
20
0.146824
11
0.207747
21
0.143631
0
LINE
8
BLACK
6
CONTINUOUS
10
0.207747
20
0.143631
11
0.204554
21
0.141497
0
LINE
8
BLACK
6
CONTINUOUS
10
0.204554
20
0.141497
11
0.200787
21
0.140748
0
LINE
8
BLACK
6
CONTINUOUS
10
0.200787
20
0.140748
11
0.185906
21
0.140748
0
LINE
8
BLACK
6
CONTINUOUS
10
0.185906
20
0.140748
11
0.185906
21
0.120079
0
LINE
8
BLACK
6
CONTINUOUS
10
0.185906
20
0.120079
11
0.219488
21
0.120079
0
LINE
8
BLACK
6
CONTINUOUS
10
0.219488
20
0.120079
11
0.223255
21
0.11933
0
LINE
8
BLACK
6
CONTINUOUS
10
0.223255
20
0.11933
11
0.226448
21
0.117196
0
LINE
8
BLACK
6
CONTINUOUS
10
0.226448
20
0.117196
11
0.228581
21
0.114003
0
LINE
8
BLACK
6
CONTINUOUS
10
0.228581
20
0.114003
11
0.229331
21
0.110236
0
LINE
8
BLACK
6
CONTINUOUS
10
0.229331
20
0.110236
11
0.229331
21
0.0905512
0
LINE
8
BLACK
6
CONTINUOUS
10
0.229331
20
0.0905512
11
0.228581
21
0.0867846
0
LINE
8
BLACK
6
CONTINUOUS
10
0.228581
20
0.0867846
11
0.226448
21
0.0835915
0
LINE
8
BLACK
6
CONTINUOUS
10
0.226448
20
0.0835915
11
0.223255
21
0.0814579
0
LINE
8
BLACK
6
CONTINUOUS
10
0.223255
20
0.0814579
11
0.219488
21
0.0807087
0
LINE
8
BLACK
6
CONTINUOUS
10
0.219488
20
0.0807087
11
0.182087
21
0.0807087
0
LINE
8
BLACK
6
CONTINUOUS
10
0.182087
20
0.0807087
11
0.17832
21
0.0814579
0
LINE
8
BLACK
6
CONTINUOUS
10
0.17832
20
0.0814579
11
0.175127
21
0.0835915
0
LINE
8
BLACK
6
CONTINUOUS
10
0.175127
20
0.0835915
11
0.172993
21
0.0867846
0
LINE
8
BLACK
6
CONTINUOUS
10
0.172993
20
0.0867846
11
0.172244
21
0.0905512
0
LINE
8
BLACK
6
CONTINUOUS
10
0.172244
20
0.0905512
11
0.172244
21
0.110236
0
LINE
8
BLACK
6
CONTINUOUS
10
0.172244
20
0.110236
11
0.172993
21
0.114003
0
LINE
8
BLACK
6
CONTINUOUS
10
0.172993
20
0.114003
11
0.174094
21
0.115651
0
LINE
8
BLACK
6
CONTINUOUS
10
0.174094
20
0.115651
11
0.174094
21
0.143703
0
LINE
8
BLACK
6
CONTINUOUS
10
0.174094
20
0.143703
11
0.172009
21
0.146824
0
LINE
8
BLACK
6
CONTINUOUS
10
0.172009
20
0.146824
11
0.17126
21
0.150591
0
LINE
8
BLACK
6
CONTINUOUS
10
0.17126
20
0.150591
11
0.17126
21
0.187992
0
LINE
8
BLACK
6
CONTINUOUS
10
0.17126
20
0.187992
11
0.172009
21
0.191759
0
LINE
8
BLACK
6
CONTINUOUS
10
0.172009
20
0.191759
11
0.174094
21
0.19488
0
LINE
8
BLACK
6
CONTINUOUS
10
0.174094
20
0.19488
11
0.174094
21
0.237205
0
LINE
8
BLACK
6
CONTINUOUS
10
0.174094
20
0.237205
11
0.14752
21
0.237205
0
LINE
8
BLACK
6
CONTINUOUS
10
0.14752
20
0.237205
11
0.14752
21
0.262795
0
LINE
8
BLACK
6
CONTINUOUS
10
0.14752
20
0.262795
11
0.21248
21
0.262795
0
LINE
8
BLACK
6
CONTINUOUS
10
0.21248
20
0.262795
11
0.21248
21
0.237205
0
LINE
8
BLACK
6
CONTINUOUS
10
0.21248
20
0.237205
11
0.185906
21
0.237205
0
LINE
8
BLACK
6
CONTINUOUS
10
0.185906
20
0.237205
11
0.185906
21
0.197835
0
LINE
8
BLACK
6
CONTINUOUS
10
0.185906
20
0.197835
11
0.200787
21
0.197835
0
LINE
8
BLACK
6
CONTINUOUS
10
0.200787
20
0.197835
11
0.204554
21
0.197085
0
LINE
8
BLACK
6
CONTINUOUS
10
0.204554
20
0.197085
11
0.207747
21
0.194952
0
LINE
8
BLACK
6
CONTINUOUS
10
0.207747
20
0.194952
11
0.209881
21
0.191759
0
LINE
8
BLACK
6
CONTINUOUS
10
0.209881
20
0.191759
11
0.21063
21
0.187992
0
LINE
8
BLACK
6
CONTINUOUS
10
0.21063
20
0.187992
11
0.21063
21
0.179921
0
LINE
8
BLACK
6
CONTINUOUS
10
0.21063
20
0.179921
11
0.491255
21
0.179921
0
LINE
8
BLACK
6
CONTINUOUS
10
0.491255
20
0.179921
11
0.523228
21
0.211895
0
LINE
8
BLACK
6
CONTINUOUS
10
0.523228
20
0.211895
11
0.523228
21
0.43189
0
LINE
8
BLACK
6
CONTINUOUS
10
0.523228
20
0.43189
11
0.513386
21
0.43189
0
LINE
8
BLACK
6
CONTINUOUS
10
0.513386
20
0.43189
11
0.509619
21
0.432639
0
LINE
8
BLACK
6
CONTINUOUS
10
0.509619
20
0.432639
11
0.506426
21
0.434773
0
LINE
8
BLACK
6
CONTINUOUS
10
0.506426
20
0.434773
11
0.504293
21
0.437966
0
LINE
8
BLACK
6
CONTINUOUS
10
0.504293
20
0.437966
11
0.503543
21
0.441732
0
LINE
8
BLACK
6
CONTINUOUS
10
0.503543
20
0.441732
11
0.503543
21
0.462514
0
LINE
8
BLACK
6
CONTINUOUS
10
0.503543
20
0.462514
11
0.441543
21
0.524514
0
LINE
8
BLACK
6
CONTINUOUS
10
0.441543
20
0.524514
11
0.436732
21
0.521019
0
LINE
8
BLACK
6
CONTINUOUS
10
0.436732
20
0.521019
11
0.430341
21
0.518173
0
LINE
8
BLACK
6
CONTINUOUS
10
0.430341
20
0.518173
11
0.423498
21
0.516719
0
LINE
8
BLACK
6
CONTINUOUS
10
0.423498
20
0.516719
11
0.416502
21
0.516719
0
LINE
8
BLACK
6
CONTINUOUS
10
0.416502
20
0.516719
11
0.409659
21
0.518173
0
LINE
8
BLACK
6
CONTINUOUS
10
0.409659
20
0.518173
11
0.403268
21
0.521019
0
LINE
8
BLACK
6
CONTINUOUS
10
0.403268
20
0.521019
11
0.397608
21
0.525131
0
LINE
8
BLACK
6
CONTINUOUS
10
0.397608
20
0.525131
11
0.392927
21
0.53033
0
LINE
8
BLACK
6
CONTINUOUS
10
0.392927
20
0.53033
11
0.389429
21
0.536389
0
LINE
8
BLACK
6
CONTINUOUS
10
0.389429
20
0.536389
11
0.387267
21
0.543042
0
LINE
8
BLACK
6
CONTINUOUS
10
0.387267
20
0.543042
11
0.386535
21
0.55
0
LINE
8
BLACK
6
CONTINUOUS
10
0.386535
20
0.55
11
0.387267
21
0.556958
0
LINE
8
BLACK
6
CONTINUOUS
10
0.387267
20
0.556958
11
0.389429
21
0.563611
0
LINE
8
BLACK
6
CONTINUOUS
10
0.389429
20
0.563611
11
0.392927
21
0.56967
0
LINE
8
BLACK
6
CONTINUOUS
10
0.392927
20
0.56967
11
0.397608
21
0.574869
0
LINE
8
BLACK
6
CONTINUOUS
10
0.397608
20
0.574869
11
0.403268
21
0.578981
0
LINE
8
BLACK
6
CONTINUOUS
10
0.403268
20
0.578981
11
0.409659
21
0.581827
0
LINE
8
BLACK
6
CONTINUOUS
10
0.409659
20
0.581827
11
0.416502
21
0.583281
0
LINE
8
BLACK
6
CONTINUOUS
10
0.416502
20
0.583281
11
0.423498
21
0.583281
0
LINE
8
BLACK
6
CONTINUOUS
10
0.423498
20
0.583281
11
0.430341
21
0.581827
0
LINE
8
BLACK
6
CONTINUOUS
10
0.330341
20
0.281827
11
0.336732
21
0.278981
0
LINE
8
BLACK
6
CONTINUOUS
10
0.336732
20
0.278981
11
0.342392
21
0.274869
0
LINE
8
BLACK
6
CONTINUOUS
10
0.342392
20
0.274869
11
0.347073
21
0.26967
0
LINE
8
BLACK
6
CONTINUOUS
10
0.347073
20
0.26967
11
0.350571
21
0.263611
0
LINE
8
BLACK
6
CONTINUOUS
10
0.350571
20
0.263611
11
0.352733
21
0.256958
0
LINE
8
BLACK
6
CONTINUOUS
10
0.352733
20
0.256958
11
0.353465
21
0.25
0
LINE
8
BLACK
6
CONTINUOUS
10
0.353465
20
0.25
11
0.352733
21
0.243042
0
LINE
8
BLACK
6
CONTINUOUS
10
0.352733
20
0.243042
11
0.350571
21
0.236389
0
LINE
8
BLACK
6
CONTINUOUS
10
0.350571
20
0.236389
11
0.347073
21
0.23033
0
LINE
8
BLACK
6
CONTINUOUS
10
0.347073
20
0.23033
11
0.342392
21
0.225131
0
LINE
8
BLACK
6
CONTINUOUS
10
0.342392
20
0.225131
11
0.336732
21
0.221019
0
LINE
8
BLACK
6
CONTINUOUS
10
0.336732
20
0.221019
11
0.330341
21
0.218173
0
LINE
8
BLACK
6
CONTINUOUS
10
0.330341
20
0.218173
11
0.323498
21
0.216719
0
LINE
8
BLACK
6
CONTINUOUS
10
0.323498
20
0.216719
11
0.316502
21
0.216719
0
LINE
8
BLACK
6
CONTINUOUS
10
0.316502
20
0.216719
11
0.309659
21
0.218173
0
LINE
8
BLACK
6
CONTINUOUS
10
0.309659
20
0.218173
11
0.303268
21
0.221019
0
LINE
8
BLACK
6
CONTINUOUS
10
0.303268
20
0.221019
11
0.297608
21
0.225131
0
LINE
8
BLACK
6
CONTINUOUS
10
0.297608
20
0.225131
11
0.292927
21
0.23033
0
LINE
8
BLACK
6
CONTINUOUS
10
0.292927
20
0.23033
11
0.289429
21
0.236389
0
LINE
8
BLACK
6
CONTINUOUS
10
0.289429
20
0.236389
11
0.287267
21
0.243042
0
LINE
8
BLACK
6
CONTINUOUS
10
0.287267
20
0.243042
11
0.286535
21
0.25
0
LINE
8
BLACK
6
CONTINUOUS
10
0.286535
20
0.25
11
0.287267
21
0.256958
0
LINE
8
BLACK
6
CONTINUOUS
10
0.287267
20
0.256958
11
0.289429
21
0.263611
0
LINE
8
BLACK
6
CONTINUOUS
10
0.289429
20
0.263611
11
0.292927
21
0.26967
0
LINE
8
BLACK
6
CONTINUOUS
10
0.292927
20
0.26967
11
0.297608
21
0.274869
0
LINE
8
BLACK
6
CONTINUOUS
10
0.297608
20
0.274869
11
0.303268
21
0.278981
0
LINE
8
BLACK
6
CONTINUOUS
10
0.303268
20
0.278981
11
0.309659
21
0.281827
0
LINE
8
BLACK
6
CONTINUOUS
10
0.309659
20
0.281827
11
0.316502
21
0.283281
0
LINE
8
BLACK
6
CONTINUOUS
10
0.316502
20
0.283281
11
0.323498
21
0.283281
0
LINE
8
BLACK
6
CONTINUOUS
10
0.323498
20
0.283281
11
0.330341
21
0.281827
0
LINE
8
BLACK
6
CONTINUOUS
10
0.398494
20
0.510041
11
0.399724
21
0.50928
0
LINE
8
BLACK
6
CONTINUOUS
10
0.399724
20
0.50928
11
0.407551
21
0.506247
0
LINE
8
BLACK
6
CONTINUOUS
10
0.407551
20
0.506247
11
0.415803
21
0.504705
0
LINE
8
BLACK
6
CONTINUOUS
10
0.415803
20
0.504705
11
0.424197
21
0.504705
0
LINE
8
BLACK
6
CONTINUOUS
10
0.424197
20
0.504705
11
0.432449
21
0.506247
0
LINE
8
BLACK
6
CONTINUOUS
10
0.432449
20
0.506247
11
0.437743
21
0.508298
0
LINE
8
BLACK
6
CONTINUOUS
10
0.437743
20
0.508298
11
0.440148
21
0.508432
0
LINE
8
BLACK
6
CONTINUOUS
10
0.440148
20
0.508432
11
0.441907
21
0.50742
0
LINE
8
BLACK
6
CONTINUOUS
10
0.441907
20
0.50742
11
0.490571
21
0.458756
0
LINE
8
BLACK
6
CONTINUOUS
10
0.490571
20
0.458756
11
0.491665
21
0.456609
0
LINE
8
BLACK
6
CONTINUOUS
10
0.491665
20
0.456609
11
0.491713
21
0.456
0
LINE
8
BLACK
6
CONTINUOUS
10
0.491713
20
0.456
11
0.491713
21
0.440035
0
LINE
8
BLACK
6
CONTINUOUS
10
0.491713
20
0.440035
11
0.492131
21
0.436553
0
LINE
8
BLACK
6
CONTINUOUS
10
0.492131
20
0.436553
11
0.494316
21
0.43101
0
LINE
8
BLACK
6
CONTINUOUS
10
0.494316
20
0.43101
11
0.494316
21
0.43101
0
LINE
8
BLACK
6
CONTINUOUS
10
0.494316
20
0.43101
11
0.494316
21
0.43101
0
LINE
8
BLACK
6
CONTINUOUS
10
0.494316
20
0.43101
11
0.497916
21
0.426263
0
LINE
8
BLACK
6
CONTINUOUS
10
0.497916
20
0.426263
11
0.502664
21
0.422663
0
LINE
8
BLACK
6
CONTINUOUS
10
0.502664
20
0.422663
11
0.502664
21
0.422663
0
LINE
8
BLACK
6
CONTINUOUS
10
0.502664
20
0.422663
11
0.502664
21
0.422663
0
LINE
8
BLACK
6
CONTINUOUS
10
0.502664
20
0.422663
11
0.508206
21
0.420477
0
LINE
8
BLACK
6
CONTINUOUS
10
0.508206
20
0.420477
11
0.508206
21
0.420477
0
LINE
8
BLACK
6
CONTINUOUS
10
0.508206
20
0.420477
11
0.508206
21
0.420477
0
LINE
8
BLACK
6
CONTINUOUS
10
0.508206
20
0.420477
11
0.508206
21
0.420477
0
LINE
8
BLACK
6
CONTINUOUS
10
0.508206
20
0.420477
11
0.508448
21
0.420416
0
LINE
8
BLACK
6
CONTINUOUS
10
0.508448
20
0.420416
11
0.508418
21
0.420295
0
LINE
8
BLACK
6
CONTINUOUS
10
0.508418
20
0.420295
11
0.510146
21
0.419499
0
LINE
8
BLACK
6
CONTINUOUS
10
0.510146
20
0.419499
11
0.511323
21
0.417397
0
LINE
8
BLACK
6
CONTINUOUS
10
0.511323
20
0.417397
11
0.511398
21
0.416636
0
LINE
8
BLACK
6
CONTINUOUS
10
0.511398
20
0.416636
11
0.511398
21
0.21841
0
LINE
8
BLACK
6
CONTINUOUS
10
0.511398
20
0.21841
11
0.510653
21
0.216119
0
LINE
8
BLACK
6
CONTINUOUS
10
0.510653
20
0.216119
11
0.510256
21
0.215654
0
LINE
8
BLACK
6
CONTINUOUS
10
0.510256
20
0.215654
11
0.487496
21
0.192894
0
LINE
8
BLACK
6
CONTINUOUS
10
0.487496
20
0.192894
11
0.485349
21
0.1918
0
LINE
8
BLACK
6
CONTINUOUS
10
0.485349
20
0.1918
11
0.48474
21
0.191752
0
LINE
8
BLACK
6
CONTINUOUS
10
0.48474
20
0.191752
11
0.225255
21
0.191752
0
LINE
8
BLACK
6
CONTINUOUS
10
0.225255
20
0.191752
11
0.222964
21
0.192496
0
LINE
8
BLACK
6
CONTINUOUS
10
0.222964
20
0.192496
11
0.221629
21
0.19422
0
LINE
8
BLACK
6
CONTINUOUS
10
0.221629
20
0.19422
11
0.219857
21
0.198714
0
LINE
8
BLACK
6
CONTINUOUS
10
0.219857
20
0.198714
11
0.219857
21
0.198714
0
LINE
8
BLACK
6
CONTINUOUS
10
0.219857
20
0.198714
11
0.219857
21
0.198714
0
LINE
8
BLACK
6
CONTINUOUS
10
0.219857
20
0.198714
11
0.216257
21
0.203461
0
LINE
8
BLACK
6
CONTINUOUS
10
0.216257
20
0.203461
11
0.21151
21
0.207061
0
LINE
8
BLACK
6
CONTINUOUS
10
0.21151
20
0.207061
11
0.211509
21
0.207061
0
LINE
8
BLACK
6
CONTINUOUS
10
0.211509
20
0.207061
11
0.211509
21
0.207062
0
LINE
8
BLACK
6
CONTINUOUS
10
0.211509
20
0.207062
11
0.205967
21
0.209247
0
LINE
8
BLACK
6
CONTINUOUS
10
0.205967
20
0.209247
11
0.202484
21
0.209665
0
LINE
8
BLACK
6
CONTINUOUS
10
0.202484
20
0.209665
11
0.202484
21
0.209665
0
LINE
8
BLACK
6
CONTINUOUS
10
0.202484
20
0.209665
11
0.201634
21
0.209665
0
LINE
8
BLACK
6
CONTINUOUS
10
0.201634
20
0.209665
11
0.199343
21
0.21041
0
LINE
8
BLACK
6
CONTINUOUS
10
0.199343
20
0.21041
11
0.197927
21
0.212359
0
LINE
8
BLACK
6
CONTINUOUS
10
0.197927
20
0.212359
11
0.197736
21
0.213563
0
LINE
8
BLACK
6
CONTINUOUS
10
0.197736
20
0.213563
11
0.197736
21
0.221476
0
LINE
8
BLACK
6
CONTINUOUS
10
0.197736
20
0.221476
11
0.198481
21
0.223767
0
LINE
8
BLACK
6
CONTINUOUS
10
0.198481
20
0.223767
11
0.200429
21
0.225183
0
LINE
8
BLACK
6
CONTINUOUS
10
0.200429
20
0.225183
11
0.201634
21
0.225374
0
LINE
8
BLACK
6
CONTINUOUS
10
0.201634
20
0.225374
11
0.214246
21
0.225374
0
LINE
8
BLACK
6
CONTINUOUS
10
0.214246
20
0.225374
11
0.214247
21
0.225374
0
LINE
8
BLACK
6
CONTINUOUS
10
0.214247
20
0.225374
11
0.215236
21
0.225489
0
LINE
8
BLACK
6
CONTINUOUS
10
0.215236
20
0.225489
11
0.219282
21
0.227275
0
LINE
8
BLACK
6
CONTINUOUS
10
0.219282
20
0.227275
11
0.22241
21
0.230403
0
LINE
8
BLACK
6
CONTINUOUS
10
0.22241
20
0.230403
11
0.224196
21
0.234449
0
LINE
8
BLACK
6
CONTINUOUS
10
0.224196
20
0.234449
11
0.224311
21
0.235438
0
LINE
8
BLACK
6
CONTINUOUS
10
0.224311
20
0.235438
11
0.224311
21
0.25
0
LINE
8
BLACK
6
CONTINUOUS
10
0.224311
20
0.25
11
0.224311
21
0.264562
0
LINE
8
BLACK
6
CONTINUOUS
10
0.224311
20
0.264562
11
0.224196
21
0.265551
0
LINE
8
BLACK
6
CONTINUOUS
10
0.224196
20
0.265551
11
0.22241
21
0.269597
0
LINE
8
BLACK
6
CONTINUOUS
10
0.22241
20
0.269597
11
0.219763
21
0.272244
0
LINE
8
BLACK
6
CONTINUOUS
10
0.219763
20
0.272244
11
0.218669
21
0.27439
0
LINE
8
BLACK
6
CONTINUOUS
10
0.218669
20
0.27439
11
0.219046
21
0.276769
0
LINE
8
BLACK
6
CONTINUOUS
10
0.219046
20
0.276769
11
0.219763
21
0.277756
0
LINE
8
BLACK
6
CONTINUOUS
10
0.219763
20
0.277756
11
0.22241
21
0.280403
0
LINE
8
BLACK
6
CONTINUOUS
10
0.22241
20
0.280403
11
0.224196
21
0.284449
0
LINE
8
BLACK
6
CONTINUOUS
10
0.224196
20
0.284449
11
0.224311
21
0.285438
0
LINE
8
BLACK
6
CONTINUOUS
10
0.224311
20
0.285438
11
0.224311
21
0.314562
0
LINE
8
BLACK
6
CONTINUOUS
10
0.224311
20
0.314562
11
0.224196
21
0.315551
0
LINE
8
BLACK
6
CONTINUOUS
10
0.224196
20
0.315551
11
0.22241
21
0.319597
0
LINE
8
BLACK
6
CONTINUOUS
10
0.22241
20
0.319597
11
0.219763
21
0.322244
0
LINE
8
BLACK
6
CONTINUOUS
10
0.219763
20
0.322244
11
0.218669
21
0.32439
0
LINE
8
BLACK
6
CONTINUOUS
10
0.218669
20
0.32439
11
0.219046
21
0.326769
0
LINE
8
BLACK
6
CONTINUOUS
10
0.219046
20
0.326769
11
0.219763
21
0.327756
0
LINE
8
BLACK
6
CONTINUOUS
10
0.219763
20
0.327756
11
0.22241
21
0.330403
0
LINE
8
BLACK
6
CONTINUOUS
10
0.22241
20
0.330403
11
0.22241
21
0.330403
0
LINE
8
BLACK
6
CONTINUOUS
10
0.22241
20
0.330403
11
0.222665
21
0.330658
0
LINE
8
BLACK
6
CONTINUOUS
10
0.222665
20
0.330658
11
0.222724
21
0.330599
0
LINE
8
BLACK
6
CONTINUOUS
10
0.222724
20
0.330599
11
0.224252
21
0.331776
0
LINE
8
BLACK
6
CONTINUOUS
10
0.224252
20
0.331776
11
0.224834
21
0.331933
0
LINE
8
BLACK
6
CONTINUOUS
10
0.224834
20
0.331933
11
0.225084
21
0.331981
0
LINE
8
BLACK
6
CONTINUOUS
10
0.225084
20
0.331981
11
0.225084
21
0.331981
0
LINE
8
BLACK
6
CONTINUOUS
10
0.225084
20
0.331981
11
0.227396
21
0.332418
0
LINE
8
BLACK
6
CONTINUOUS
10
0.227396
20
0.332418
11
0.229725
21
0.332769
0
LINE
8
BLACK
6
CONTINUOUS
10
0.229725
20
0.332769
11
0.229725
21
0.332769
0
LINE
8
BLACK
6
CONTINUOUS
10
0.229725
20
0.332769
11
0.230004
21
0.332855
0
LINE
8
BLACK
6
CONTINUOUS
10
0.230004
20
0.332855
11
0.230009
21
0.332839
0
LINE
8
BLACK
6
CONTINUOUS
10
0.230009
20
0.332839
11
0.230095
21
0.332867
0
LINE
8
BLACK
6
CONTINUOUS
10
0.230095
20
0.332867
11
0.230089
21
0.332883
0
LINE
8
BLACK
6
CONTINUOUS
10
0.230089
20
0.332883
11
0.230365
21
0.33298
0
LINE
8
BLACK
6
CONTINUOUS
10
0.230365
20
0.33298
11
0.230365
21
0.33298
0
LINE
8
BLACK
6
CONTINUOUS
10
0.230365
20
0.33298
11
0.231406
21
0.33353
0
LINE
8
BLACK
6
CONTINUOUS
10
0.231406
20
0.33353
11
0.232446
21
0.33408
0
LINE
8
BLACK
6
CONTINUOUS
10
0.232446
20
0.33408
11
0.234567
21
0.335101
0
LINE
8
BLACK
6
CONTINUOUS
10
0.234567
20
0.335101
11
0.234567
21
0.335101
0
LINE
8
BLACK
6
CONTINUOUS
10
0.234567
20
0.335101
11
0.234567
21
0.335101
0
LINE
8
BLACK
6
CONTINUOUS
10
0.234567
20
0.335101
11
0.234567
21
0.335101
0
LINE
8
BLACK
6
CONTINUOUS
10
0.234567
20
0.335101
11
0.234809
21
0.335266
0
LINE
8
BLACK
6
CONTINUOUS
10
0.234809
20
0.335266
11
0.234818
21
0.335251
0
LINE
8
BLACK
6
CONTINUOUS
10
0.234818
20
0.335251
11
0.234892
21
0.335304
0
LINE
8
BLACK
6
CONTINUOUS
10
0.234892
20
0.335304
11
0.234882
21
0.335318
0
LINE
8
BLACK
6
CONTINUOUS
10
0.234882
20
0.335318
11
0.235117
21
0.335491
0
LINE
8
BLACK
6
CONTINUOUS
10
0.235117
20
0.335491
11
0.235117
21
0.335491
0
LINE
8
BLACK
6
CONTINUOUS
10
0.235117
20
0.335491
11
0.235117
21
0.335491
0
LINE
8
BLACK
6
CONTINUOUS
10
0.235117
20
0.335491
11
0.23595
21
0.336324
0
LINE
8
BLACK
6
CONTINUOUS
10
0.23595
20
0.336324
11
0.236782
21
0.337156
0
LINE
8
BLACK
6
CONTINUOUS
10
0.236782
20
0.337156
11
0.237402
21
0.337731
0
LINE
8
BLACK
6
CONTINUOUS
10
0.237402
20
0.337731
11
0.238508
21
0.338757
0
LINE
8
BLACK
6
CONTINUOUS
10
0.238508
20
0.338757
11
0.238508
21
0.338758
0
LINE
8
BLACK
6
CONTINUOUS
10
0.238508
20
0.338758
11
0.23869
21
0.338986
0
LINE
8
BLACK
6
CONTINUOUS
10
0.23869
20
0.338986
11
0.238703
21
0.338975
0
LINE
8
BLACK
6
CONTINUOUS
10
0.238703
20
0.338975
11
0.23904
21
0.339414
0
LINE
8
BLACK
6
CONTINUOUS
10
0.23904
20
0.339414
11
0.272116
21
0.372491
0
LINE
8
BLACK
6
CONTINUOUS
10
0.272116
20
0.372491
11
0.274263
21
0.373584
0
LINE
8
BLACK
6
CONTINUOUS
10
0.274263
20
0.373584
11
0.276642
21
0.373207
0
LINE
8
BLACK
6
CONTINUOUS
10
0.276642
20
0.373207
11
0.278345
21
0.371504
0
LINE
8
BLACK
6
CONTINUOUS
10
0.278345
20
0.371504
11
0.278722
21
0.369125
0
LINE
8
BLACK
6
CONTINUOUS
10
0.278722
20
0.369125
11
0.278362
21
0.367997
0
LINE
8
BLACK
6
CONTINUOUS
10
0.278362
20
0.367997
11
0.277583
21
0.366433
0
LINE
8
BLACK
6
CONTINUOUS
10
0.277583
20
0.366433
11
0.275285
21
0.358359
0
LINE
8
BLACK
6
CONTINUOUS
10
0.275285
20
0.358359
11
0.274511
21
0.35
0
LINE
8
BLACK
6
CONTINUOUS
10
0.274511
20
0.35
11
0.275285
21
0.341641
0
LINE
8
BLACK
6
CONTINUOUS
10
0.275285
20
0.341641
11
0.276022
21
0.339052
0
LINE
8
BLACK
6
CONTINUOUS
10
0.276022
20
0.339052
11
0.277582
21
0.333567
0
LINE
8
BLACK
6
CONTINUOUS
10
0.277582
20
0.333567
11
0.281324
21
0.326053
0
LINE
8
BLACK
6
CONTINUOUS
10
0.281324
20
0.326053
11
0.286383
21
0.319354
0
LINE
8
BLACK
6
CONTINUOUS
10
0.286383
20
0.319354
11
0.289163
21
0.31682
0
LINE
8
BLACK
6
CONTINUOUS
10
0.289163
20
0.31682
11
0.292586
21
0.313699
0
LINE
8
BLACK
6
CONTINUOUS
10
0.292586
20
0.313699
11
0.292587
21
0.313699
0
LINE
8
BLACK
6
CONTINUOUS
10
0.292587
20
0.313699
11
0.296669
21
0.311171
0
LINE
8
BLACK
6
CONTINUOUS
10
0.296669
20
0.311171
11
0.299724
21
0.30928
0
LINE
8
BLACK
6
CONTINUOUS
10
0.299724
20
0.30928
11
0.307551
21
0.306247
0
LINE
8
BLACK
6
CONTINUOUS
10
0.307551
20
0.306247
11
0.315803
21
0.304705
0
LINE
8
BLACK
6
CONTINUOUS
10
0.315803
20
0.304705
11
0.324197
21
0.304705
0
LINE
8
BLACK
6
CONTINUOUS
10
0.324197
20
0.304705
11
0.332449
21
0.306247
0
LINE
8
BLACK
6
CONTINUOUS
10
0.332449
20
0.306247
11
0.340276
21
0.30928
0
LINE
8
BLACK
6
CONTINUOUS
10
0.340276
20
0.30928
11
0.347413
21
0.313699
0
LINE
8
BLACK
6
CONTINUOUS
10
0.347413
20
0.313699
11
0.353617
21
0.319354
0
LINE
8
BLACK
6
CONTINUOUS
10
0.353617
20
0.319354
11
0.358676
21
0.326053
0
LINE
8
BLACK
6
CONTINUOUS
10
0.358676
20
0.326053
11
0.362418
21
0.333567
0
LINE
8
BLACK
6
CONTINUOUS
10
0.362418
20
0.333567
11
0.364248
21
0.34
0
LINE
8
BLACK
6
CONTINUOUS
10
0.364248
20
0.34
11
0.364715
21
0.341641
0
LINE
8
BLACK
6
CONTINUOUS
10
0.364715
20
0.341641
11
0.365489
21
0.35
0
LINE
8
BLACK
6
CONTINUOUS
10
0.365489
20
0.35
11
0.364715
21
0.358359
0
LINE
8
BLACK
6
CONTINUOUS
10
0.364715
20
0.358359
11
0.362418
21
0.366433
0
LINE
8
BLACK
6
CONTINUOUS
10
0.362418
20
0.366433
11
0.358676
21
0.373947
0
LINE
8
BLACK
6
CONTINUOUS
10
0.358676
20
0.373947
11
0.353617
21
0.380646
0
LINE
8
BLACK
6
CONTINUOUS
10
0.353617
20
0.380646
11
0.351399
21
0.382668
0
LINE
8
BLACK
6
CONTINUOUS
10
0.351399
20
0.382668
11
0.347414
21
0.386301
0
LINE
8
BLACK
6
CONTINUOUS
10
0.347414
20
0.386301
11
0.347413
21
0.386301
0
LINE
8
BLACK
6
CONTINUOUS
10
0.347413
20
0.386301
11
0.340277
21
0.39072
0
LINE
8
BLACK
6
CONTINUOUS
10
0.340277
20
0.39072
11
0.340276
21
0.39072
0
LINE
8
BLACK
6
CONTINUOUS
10
0.340276
20
0.39072
11
0.335329
21
0.392637
0
LINE
8
BLACK
6
CONTINUOUS
10
0.335329
20
0.392637
11
0.332449
21
0.393753
0
LINE
8
BLACK
6
CONTINUOUS
10
0.332449
20
0.393753
11
0.332449
21
0.393753
0
LINE
8
BLACK
6
CONTINUOUS
10
0.332449
20
0.393753
11
0.332449
21
0.393753
0
LINE
8
BLACK
6
CONTINUOUS
10
0.332449
20
0.393753
11
0.324197
21
0.395295
0
LINE
8
BLACK
6
CONTINUOUS
10
0.324197
20
0.395295
11
0.315803
21
0.395295
0
LINE
8
BLACK
6
CONTINUOUS
10
0.315803
20
0.395295
11
0.307551
21
0.393753
0
LINE
8
BLACK
6
CONTINUOUS
10
0.307551
20
0.393753
11
0.301645
21
0.391465
0
LINE
8
BLACK
6
CONTINUOUS
10
0.301645
20
0.391465
11
0.29924
21
0.391331
0
LINE
8
BLACK
6
CONTINUOUS
10
0.29924
20
0.391331
11
0.297216
21
0.392637
0
LINE
8
BLACK
6
CONTINUOUS
10
0.297216
20
0.392637
11
0.296346
21
0.394883
0
LINE
8
BLACK
6
CONTINUOUS
10
0.296346
20
0.394883
11
0.296962
21
0.397212
0
LINE
8
BLACK
6
CONTINUOUS
10
0.296962
20
0.397212
11
0.297481
21
0.397855
0
LINE
8
BLACK
6
CONTINUOUS
10
0.297481
20
0.397855
11
0.304685
21
0.405059
0
LINE
8
BLACK
6
CONTINUOUS
10
0.304685
20
0.405059
11
0.306831
21
0.406152
0
LINE
8
BLACK
6
CONTINUOUS
10
0.306831
20
0.406152
11
0.308157
21
0.406134
0
LINE
8
BLACK
6
CONTINUOUS
10
0.308157
20
0.406134
11
0.315803
21
0.404705
0
LINE
8
BLACK
6
CONTINUOUS
10
0.315803
20
0.404705
11
0.315803
21
0.404705
0
LINE
8
BLACK
6
CONTINUOUS
10
0.315803
20
0.404705
11
0.324197
21
0.404705
0
LINE
8
BLACK
6
CONTINUOUS
10
0.324197
20
0.404705
11
0.332449
21
0.406247
0
LINE
8
BLACK
6
CONTINUOUS
10
0.332449
20
0.406247
11
0.340276
21
0.40928
0
LINE
8
BLACK
6
CONTINUOUS
10
0.340276
20
0.40928
11
0.347413
21
0.413699
0
LINE
8
BLACK
6
CONTINUOUS
10
0.347413
20
0.413699
11
0.353617
21
0.419354
0
LINE
8
BLACK
6
CONTINUOUS
10
0.353617
20
0.419354
11
0.358676
21
0.426053
0
LINE
8
BLACK
6
CONTINUOUS
10
0.358676
20
0.426053
11
0.362418
21
0.433567
0
LINE
8
BLACK
6
CONTINUOUS
10
0.362418
20
0.433567
11
0.364715
21
0.441641
0
LINE
8
BLACK
6
CONTINUOUS
10
0.364715
20
0.441641
11
0.365489
21
0.45
0
LINE
8
BLACK
6
CONTINUOUS
10
0.365489
20
0.45
11
0.364715
21
0.458359
0
LINE
8
BLACK
6
CONTINUOUS
10
0.364715
20
0.458359
11
0.362418
21
0.466433
0
LINE
8
BLACK
6
CONTINUOUS
10
0.362418
20
0.466433
11
0.358713
21
0.473873
0
LINE
8
BLACK
6
CONTINUOUS
10
0.358713
20
0.473873
11
0.358358
21
0.476256
0
LINE
8
BLACK
6
CONTINUOUS
10
0.358358
20
0.476256
11
0.359471
21
0.478392
0
LINE
8
BLACK
6
CONTINUOUS
10
0.359471
20
0.478392
11
0.361628
21
0.479465
0
LINE
8
BLACK
6
CONTINUOUS
10
0.361628
20
0.479465
11
0.362202
21
0.479508
0
LINE
8
BLACK
6
CONTINUOUS
10
0.362202
20
0.479508
11
0.366102
21
0.479508
0
LINE
8
BLACK
6
CONTINUOUS
10
0.366102
20
0.479508
11
0.368393
21
0.478764
0
LINE
8
BLACK
6
CONTINUOUS
10
0.368393
20
0.478764
11
0.368858
21
0.478366
0
LINE
8
BLACK
6
CONTINUOUS
10
0.368858
20
0.478366
11
0.376683
21
0.470542
0
LINE
8
BLACK
6
CONTINUOUS
10
0.376683
20
0.470542
11
0.377776
21
0.468395
0
LINE
8
BLACK
6
CONTINUOUS
10
0.377776
20
0.468395
11
0.377587
21
0.466619
0
LINE
8
BLACK
6
CONTINUOUS
10
0.377587
20
0.466619
11
0.377632
21
0.466606
0
LINE
8
BLACK
6
CONTINUOUS
10
0.377632
20
0.466606
11
0.375285
21
0.458359
0
LINE
8
BLACK
6
CONTINUOUS
10
0.375285
20
0.458359
11
0.374511
21
0.45
0
LINE
8
BLACK
6
CONTINUOUS
10
0.374511
20
0.45
11
0.375285
21
0.441641
0
LINE
8
BLACK
6
CONTINUOUS
10
0.375285
20
0.441641
11
0.375742
21
0.440035
0
LINE
8
BLACK
6
CONTINUOUS
10
0.375742
20
0.440035
11
0.37698
21
0.435685
0
LINE
8
BLACK
6
CONTINUOUS
10
0.37698
20
0.435685
11
0.377583
21
0.433567
0
LINE
8
BLACK
6
CONTINUOUS
10
0.377583
20
0.433567
11
0.38122
21
0.426263
0
LINE
8
BLACK
6
CONTINUOUS
10
0.38122
20
0.426263
11
0.381324
21
0.426053
0
LINE
8
BLACK
6
CONTINUOUS
10
0.381324
20
0.426053
11
0.386383
21
0.419354
0
LINE
8
BLACK
6
CONTINUOUS
10
0.386383
20
0.419354
11
0.386383
21
0.419354
0
LINE
8
BLACK
6
CONTINUOUS
10
0.386383
20
0.419354
11
0.392586
21
0.413699
0
LINE
8
BLACK
6
CONTINUOUS
10
0.392586
20
0.413699
11
0.392587
21
0.413699
0
LINE
8
BLACK
6
CONTINUOUS
10
0.392587
20
0.413699
11
0.396669
21
0.411171
0
LINE
8
BLACK
6
CONTINUOUS
10
0.396669
20
0.411171
11
0.399724
21
0.40928
0
LINE
8
BLACK
6
CONTINUOUS
10
0.399724
20
0.40928
11
0.407551
21
0.406247
0
LINE
8
BLACK
6
CONTINUOUS
10
0.407551
20
0.406247
11
0.415803
21
0.404705
0
LINE
8
BLACK
6
CONTINUOUS
10
0.415803
20
0.404705
11
0.424197
21
0.404705
0
LINE
8
BLACK
6
CONTINUOUS
10
0.424197
20
0.404705
11
0.432449
21
0.406247
0
LINE
8
BLACK
6
CONTINUOUS
10
0.432449
20
0.406247
11
0.440276
21
0.40928
0
LINE
8
BLACK
6
CONTINUOUS
10
0.440276
20
0.40928
11
0.447413
21
0.413699
0
LINE
8
BLACK
6
CONTINUOUS
10
0.447413
20
0.413699
11
0.453617
21
0.419354
0
LINE
8
BLACK
6
CONTINUOUS
10
0.453617
20
0.419354
11
0.458676
21
0.426053
0
LINE
8
BLACK
6
CONTINUOUS
10
0.458676
20
0.426053
11
0.462418
21
0.433567
0
LINE
8
BLACK
6
CONTINUOUS
10
0.462418
20
0.433567
11
0.464715
21
0.441641
0
LINE
8
BLACK
6
CONTINUOUS
10
0.464715
20
0.441641
11
0.465489
21
0.45
0
LINE
8
BLACK
6
CONTINUOUS
10
0.465489
20
0.45
11
0.464715
21
0.458359
0
LINE
8
BLACK
6
CONTINUOUS
10
0.464715
20
0.458359
11
0.462418
21
0.466433
0
LINE
8
BLACK
6
CONTINUOUS
10
0.462418
20
0.466433
11
0.458676
21
0.473947
0
LINE
8
BLACK
6
CONTINUOUS
10
0.458676
20
0.473947
11
0.453617
21
0.480646
0
LINE
8
BLACK
6
CONTINUOUS
10
0.453617
20
0.480646
11
0.450779
21
0.483233
0
LINE
8
BLACK
6
CONTINUOUS
10
0.450779
20
0.483233
11
0.447414
21
0.486301
0
LINE
8
BLACK
6
CONTINUOUS
10
0.447414
20
0.486301
11
0.447413
21
0.486301
0
LINE
8
BLACK
6
CONTINUOUS
10
0.447413
20
0.486301
11
0.440277
21
0.49072
0
LINE
8
BLACK
6
CONTINUOUS
10
0.440277
20
0.49072
11
0.440276
21
0.49072
0
LINE
8
BLACK
6
CONTINUOUS
10
0.440276
20
0.49072
11
0.439381
21
0.491067
0
LINE
8
BLACK
6
CONTINUOUS
10
0.439381
20
0.491067
11
0.432449
21
0.493753
0
LINE
8
BLACK
6
CONTINUOUS
10
0.432449
20
0.493753
11
0.432449
21
0.493753
0
LINE
8
BLACK
6
CONTINUOUS
10
0.432449
20
0.493753
11
0.432449
21
0.493753
0
LINE
8
BLACK
6
CONTINUOUS
10
0.432449
20
0.493753
11
0.424197
21
0.495295
0
LINE
8
BLACK
6
CONTINUOUS
10
0.424197
20
0.495295
11
0.415803
21
0.495295
0
LINE
8
BLACK
6
CONTINUOUS
10
0.415803
20
0.495295
11
0.407552
21
0.493753
0
LINE
8
BLACK
6
CONTINUOUS
10
0.407552
20
0.493753
11
0.407551
21
0.493753
0
LINE
8
BLACK
6
CONTINUOUS
10
0.407551
20
0.493753
11
0.407551
21
0.493753
0
LINE
8
BLACK
6
CONTINUOUS
10
0.407551
20
0.493753
11
0.407551
21
0.493753
0
LINE
8
BLACK
6
CONTINUOUS
10
0.407551
20
0.493753
11
0.407551
21
0.493753
0
LINE
8
BLACK
6
CONTINUOUS
10
0.407551
20
0.493753
11
0.407291
21
0.493652
0
LINE
8
BLACK
6
CONTINUOUS
10
0.407291
20
0.493652
11
0.404885
21
0.493519
0
LINE
8
BLACK
6
CONTINUOUS
10
0.404885
20
0.493519
11
0.403127
21
0.49453
0
LINE
8
BLACK
6
CONTINUOUS
10
0.403127
20
0.49453
11
0.393687
21
0.503971
0
LINE
8
BLACK
6
CONTINUOUS
10
0.393687
20
0.503971
11
0.392593
21
0.506117
0
LINE
8
BLACK
6
CONTINUOUS
10
0.392593
20
0.506117
11
0.39297
21
0.508496
0
LINE
8
BLACK
6
CONTINUOUS
10
0.39297
20
0.508496
11
0.394673
21
0.5102
0
LINE
8
BLACK
6
CONTINUOUS
10
0.394673
20
0.5102
11
0.397052
21
0.510577
0
LINE
8
BLACK
6
CONTINUOUS
10
0.397052
20
0.510577
11
0.398494
21
0.510041
0
LINE
8
BLACK
6
CONTINUOUS
10
0.450571
20
0.236389
11
0.447073
21
0.23033
0
LINE
8
BLACK
6
CONTINUOUS
10
0.447073
20
0.23033
11
0.442392
21
0.225131
0
LINE
8
BLACK
6
CONTINUOUS
10
0.442392
20
0.225131
11
0.436732
21
0.221019
0
LINE
8
BLACK
6
CONTINUOUS
10
0.436732
20
0.221019
11
0.430341
21
0.218173
0
LINE
8
BLACK
6
CONTINUOUS
10
0.430341
20
0.218173
11
0.43
21
0.218101
0
LINE
8
BLACK
6
CONTINUOUS
10
0.43
20
0.218101
11
0.43
21
0.205809
0
LINE
8
BLACK
6
CONTINUOUS
10
0.43
20
0.205809
11
0.432443
21
0.206266
0
LINE
8
BLACK
6
CONTINUOUS
10
0.432443
20
0.206266
11
0.440267
21
0.209297
0
LINE
8
BLACK
6
CONTINUOUS
10
0.440267
20
0.209297
11
0.447402
21
0.213715
0
LINE
8
BLACK
6
CONTINUOUS
10
0.447402
20
0.213715
11
0.453602
21
0.219367
0
LINE
8
BLACK
6
CONTINUOUS
10
0.453602
20
0.219367
11
0.453602
21
0.219368
0
LINE
8
BLACK
6
CONTINUOUS
10
0.453602
20
0.219368
11
0.458659
21
0.226063
0
LINE
8
BLACK
6
CONTINUOUS
10
0.458659
20
0.226063
11
0.458659
21
0.226064
0
LINE
8
BLACK
6
CONTINUOUS
10
0.458659
20
0.226064
11
0.462399
21
0.233574
0
LINE
8
BLACK
6
CONTINUOUS
10
0.462399
20
0.233574
11
0.464227
21
0.24
0
LINE
8
BLACK
6
CONTINUOUS
10
0.464227
20
0.24
11
0.451745
21
0.24
0
LINE
8
BLACK
6
CONTINUOUS
10
0.451745
20
0.24
11
0.450571
21
0.236389
0
LINE
8
BLACK
6
CONTINUOUS
10
0.275285
20
0.241641
11
0.275612
21
0.240491
0
LINE
8
BLACK
6
CONTINUOUS
10
0.275612
20
0.240491
11
0.277582
21
0.233567
0
LINE
8
BLACK
6
CONTINUOUS
10
0.277582
20
0.233567
11
0.281324
21
0.226053
0
LINE
8
BLACK
6
CONTINUOUS
10
0.281324
20
0.226053
11
0.286383
21
0.219354
0
LINE
8
BLACK
6
CONTINUOUS
10
0.286383
20
0.219354
11
0.286383
21
0.219354
0
LINE
8
BLACK
6
CONTINUOUS
10
0.286383
20
0.219354
11
0.292586
21
0.213699
0
LINE
8
BLACK
6
CONTINUOUS
10
0.292586
20
0.213699
11
0.292587
21
0.213699
0
LINE
8
BLACK
6
CONTINUOUS
10
0.292587
20
0.213699
11
0.296207
21
0.211457
0
LINE
8
BLACK
6
CONTINUOUS
10
0.296207
20
0.211457
11
0.299724
21
0.20928
0
LINE
8
BLACK
6
CONTINUOUS
10
0.299724
20
0.20928
11
0.307551
21
0.206247
0
LINE
8
BLACK
6
CONTINUOUS
10
0.307551
20
0.206247
11
0.315803
21
0.204705
0
LINE
8
BLACK
6
CONTINUOUS
10
0.315803
20
0.204705
11
0.324197
21
0.204705
0
LINE
8
BLACK
6
CONTINUOUS
10
0.324197
20
0.204705
11
0.332449
21
0.206247
0
LINE
8
BLACK
6
CONTINUOUS
10
0.332449
20
0.206247
11
0.340276
21
0.20928
0
LINE
8
BLACK
6
CONTINUOUS
10
0.340276
20
0.20928
11
0.347413
21
0.213699
0
LINE
8
BLACK
6
CONTINUOUS
10
0.347413
20
0.213699
11
0.353617
21
0.219354
0
LINE
8
BLACK
6
CONTINUOUS
10
0.353617
20
0.219354
11
0.358676
21
0.226053
0
LINE
8
BLACK
6
CONTINUOUS
10
0.358676
20
0.226053
11
0.362418
21
0.233567
0
LINE
8
BLACK
6
CONTINUOUS
10
0.362418
20
0.233567
11
0.364248
21
0.24
0
LINE
8
BLACK
6
CONTINUOUS
10
0.364248
20
0.24
11
0.364715
21
0.241641
0
LINE
8
BLACK
6
CONTINUOUS
10
0.364715
20
0.241641
11
0.365489
21
0.25
0
LINE
8
BLACK
6
CONTINUOUS
10
0.365489
20
0.25
11
0.364715
21
0.258359
0
LINE
8
BLACK
6
CONTINUOUS
10
0.364715
20
0.258359
11
0.362418
21
0.266433
0
LINE
8
BLACK
6
CONTINUOUS
10
0.362418
20
0.266433
11
0.358676
21
0.273947
0
LINE
8
BLACK
6
CONTINUOUS
10
0.358676
20
0.273947
11
0.353617
21
0.280646
0
LINE
8
BLACK
6
CONTINUOUS
10
0.353617
20
0.280646
11
0.351481
21
0.282593
0
LINE
8
BLACK
6
CONTINUOUS
10
0.351481
20
0.282593
11
0.347414
21
0.286301
0
LINE
8
BLACK
6
CONTINUOUS
10
0.347414
20
0.286301
11
0.347413
21
0.286301
0
LINE
8
BLACK
6
CONTINUOUS
10
0.347413
20
0.286301
11
0.340277
21
0.29072
0
LINE
8
BLACK
6
CONTINUOUS
10
0.340277
20
0.29072
11
0.340276
21
0.29072
0
LINE
8
BLACK
6
CONTINUOUS
10
0.340276
20
0.29072
11
0.335649
21
0.292513
0
LINE
8
BLACK
6
CONTINUOUS
10
0.335649
20
0.292513
11
0.332449
21
0.293753
0
LINE
8
BLACK
6
CONTINUOUS
10
0.332449
20
0.293753
11
0.332449
21
0.293753
0
LINE
8
BLACK
6
CONTINUOUS
10
0.332449
20
0.293753
11
0.332449
21
0.293753
0
LINE
8
BLACK
6
CONTINUOUS
10
0.332449
20
0.293753
11
0.324197
21
0.295295
0
LINE
8
BLACK
6
CONTINUOUS
10
0.324197
20
0.295295
11
0.315803
21
0.295295
0
LINE
8
BLACK
6
CONTINUOUS
10
0.315803
20
0.295295
11
0.307551
21
0.293753
0
LINE
8
BLACK
6
CONTINUOUS
10
0.307551
20
0.293753
11
0.299724
21
0.29072
0
LINE
8
BLACK
6
CONTINUOUS
10
0.299724
20
0.29072
11
0.299723
21
0.29072
0
LINE
8
BLACK
6
CONTINUOUS
10
0.299723
20
0.29072
11
0.292587
21
0.286301
0
LINE
8
BLACK
6
CONTINUOUS
10
0.292587
20
0.286301
11
0.292586
21
0.286301
0
LINE
8
BLACK
6
CONTINUOUS
10
0.292586
20
0.286301
11
0.286383
21
0.280646
0
LINE
8
BLACK
6
CONTINUOUS
10
0.286383
20
0.280646
11
0.286383
21
0.280646
0
LINE
8
BLACK
6
CONTINUOUS
10
0.286383
20
0.280646
11
0.286383
21
0.280646
0
LINE
8
BLACK
6
CONTINUOUS
10
0.286383
20
0.280646
11
0.286383
21
0.280646
0
LINE
8
BLACK
6
CONTINUOUS
10
0.286383
20
0.280646
11
0.286383
21
0.280646
0
LINE
8
BLACK
6
CONTINUOUS
10
0.286383
20
0.280646
11
0.281324
21
0.273947
0
LINE
8
BLACK
6
CONTINUOUS
10
0.281324
20
0.273947
11
0.281324
21
0.273947
0
LINE
8
BLACK
6
CONTINUOUS
10
0.281324
20
0.273947
11
0.277583
21
0.266433
0
LINE
8
BLACK
6
CONTINUOUS
10
0.277583
20
0.266433
11
0.275285
21
0.258359
0
LINE
8
BLACK
6
CONTINUOUS
10
0.275285
20
0.258359
11
0.274511
21
0.25
0
LINE
8
BLACK
6
CONTINUOUS
10
0.274511
20
0.25
11
0.275285
21
0.241641
0
LINE
8
BLACK
6
CONTINUOUS
10
0.43
20
0.281899
11
0.430341
21
0.281827
0
LINE
8
BLACK
6
CONTINUOUS
10
0.430341
20
0.281827
11
0.436732
21
0.278981
0
LINE
8
BLACK
6
CONTINUOUS
10
0.436732
20
0.278981
11
0.442392
21
0.274869
0
LINE
8
BLACK
6
CONTINUOUS
10
0.442392
20
0.274869
11
0.447073
21
0.26967
0
LINE
8
BLACK
6
CONTINUOUS
10
0.447073
20
0.26967
11
0.450571
21
0.263611
0
LINE
8
BLACK
6
CONTINUOUS
10
0.450571
20
0.263611
11
0.451745
21
0.26
0
LINE
8
BLACK
6
CONTINUOUS
10
0.451745
20
0.26
11
0.464227
21
0.26
0
LINE
8
BLACK
6
CONTINUOUS
10
0.464227
20
0.26
11
0.462399
21
0.266426
0
LINE
8
BLACK
6
CONTINUOUS
10
0.462399
20
0.266426
11
0.458659
21
0.273936
0
LINE
8
BLACK
6
CONTINUOUS
10
0.458659
20
0.273936
11
0.458659
21
0.273937
0
LINE
8
BLACK
6
CONTINUOUS
10
0.458659
20
0.273937
11
0.453602
21
0.280632
0
LINE
8
BLACK
6
CONTINUOUS
10
0.453602
20
0.280632
11
0.453602
21
0.280633
0
LINE
8
BLACK
6
CONTINUOUS
10
0.453602
20
0.280633
11
0.447402
21
0.286285
0
LINE
8
BLACK
6
CONTINUOUS
10
0.447402
20
0.286285
11
0.447402
21
0.286285
0
LINE
8
BLACK
6
CONTINUOUS
10
0.447402
20
0.286285
11
0.440267
21
0.290703
0
LINE
8
BLACK
6
CONTINUOUS
10
0.440267
20
0.290703
11
0.432443
21
0.293734
0
LINE
8
BLACK
6
CONTINUOUS
10
0.432443
20
0.293734
11
0.432443
21
0.293734
0
LINE
8
BLACK
6
CONTINUOUS
10
0.432443
20
0.293734
11
0.43
21
0.294191
0
LINE
8
BLACK
6
CONTINUOUS
10
0.43
20
0.294191
11
0.43
21
0.281899
0
LINE
8
BLACK
6
CONTINUOUS
10
0.407557
20
0.293734
11
0.407557
21
0.293734
0
LINE
8
BLACK
6
CONTINUOUS
10
0.407557
20
0.293734
11
0.399733
21
0.290703
0
LINE
8
BLACK
6
CONTINUOUS
10
0.399733
20
0.290703
11
0.392598
21
0.286285
0
LINE
8
BLACK
6
CONTINUOUS
10
0.392598
20
0.286285
11
0.386398
21
0.280633
0
LINE
8
BLACK
6
CONTINUOUS
10
0.386398
20
0.280633
11
0.386397
21
0.280632
0
LINE
8
BLACK
6
CONTINUOUS
10
0.386397
20
0.280632
11
0.381341
21
0.273937
0
LINE
8
BLACK
6
CONTINUOUS
10
0.381341
20
0.273937
11
0.381341
21
0.273936
0
LINE
8
BLACK
6
CONTINUOUS
10
0.381341
20
0.273936
11
0.377601
21
0.266426
0
LINE
8
BLACK
6
CONTINUOUS
10
0.377601
20
0.266426
11
0.375773
21
0.26
0
LINE
8
BLACK
6
CONTINUOUS
10
0.375773
20
0.26
11
0.388255
21
0.26
0
LINE
8
BLACK
6
CONTINUOUS
10
0.388255
20
0.26
11
0.389429
21
0.263611
0
LINE
8
BLACK
6
CONTINUOUS
10
0.389429
20
0.263611
11
0.392927
21
0.26967
0
LINE
8
BLACK
6
CONTINUOUS
10
0.392927
20
0.26967
11
0.397608
21
0.274869
0
LINE
8
BLACK
6
CONTINUOUS
10
0.397608
20
0.274869
11
0.403268
21
0.278981
0
LINE
8
BLACK
6
CONTINUOUS
10
0.403268
20
0.278981
11
0.409659
21
0.281827
0
LINE
8
BLACK
6
CONTINUOUS
10
0.409659
20
0.281827
11
0.41
21
0.281899
0
LINE
8
BLACK
6
CONTINUOUS
10
0.41
20
0.281899
11
0.41
21
0.294191
0
LINE
8
BLACK
6
CONTINUOUS
10
0.41
20
0.294191
11
0.407557
21
0.293734
0
LINE
8
BLACK
6
CONTINUOUS
10
0.450571
20
0.336389
11
0.447073
21
0.33033
0
LINE
8
BLACK
6
CONTINUOUS
10
0.447073
20
0.33033
11
0.442392
21
0.325131
0
LINE
8
BLACK
6
CONTINUOUS
10
0.442392
20
0.325131
11
0.436732
21
0.321019
0
LINE
8
BLACK
6
CONTINUOUS
10
0.436732
20
0.321019
11
0.430341
21
0.318173
0
LINE
8
BLACK
6
CONTINUOUS
10
0.430341
20
0.318173
11
0.43
21
0.318101
0
LINE
8
BLACK
6
CONTINUOUS
10
0.43
20
0.318101
11
0.43
21
0.305809
0
LINE
8
BLACK
6
CONTINUOUS
10
0.43
20
0.305809
11
0.432443
21
0.306266
0
LINE
8
BLACK
6
CONTINUOUS
10
0.432443
20
0.306266
11
0.440267
21
0.309297
0
LINE
8
BLACK
6
CONTINUOUS
10
0.440267
20
0.309297
11
0.447402
21
0.313715
0
LINE
8
BLACK
6
CONTINUOUS
10
0.447402
20
0.313715
11
0.453602
21
0.319367
0
LINE
8
BLACK
6
CONTINUOUS
10
0.453602
20
0.319367
11
0.453602
21
0.319368
0
LINE
8
BLACK
6
CONTINUOUS
10
0.453602
20
0.319368
11
0.458659
21
0.326063
0
LINE
8
BLACK
6
CONTINUOUS
10
0.458659
20
0.326063
11
0.458659
21
0.326064
0
LINE
8
BLACK
6
CONTINUOUS
10
0.458659
20
0.326064
11
0.462399
21
0.333574
0
LINE
8
BLACK
6
CONTINUOUS
10
0.462399
20
0.333574
11
0.464227
21
0.34
0
LINE
8
BLACK
6
CONTINUOUS
10
0.464227
20
0.34
11
0.451745
21
0.34
0
LINE
8
BLACK
6
CONTINUOUS
10
0.451745
20
0.34
11
0.450571
21
0.336389
0
LINE
8
BLACK
6
CONTINUOUS
10
0.43
20
0.381899
11
0.430341
21
0.381827
0
LINE
8
BLACK
6
CONTINUOUS
10
0.430341
20
0.381827
11
0.436732
21
0.378981
0
LINE
8
BLACK
6
CONTINUOUS
10
0.436732
20
0.378981
11
0.442392
21
0.374869
0
LINE
8
BLACK
6
CONTINUOUS
10
0.442392
20
0.374869
11
0.447073
21
0.36967
0
LINE
8
BLACK
6
CONTINUOUS
10
0.447073
20
0.36967
11
0.450571
21
0.363611
0
LINE
8
BLACK
6
CONTINUOUS
10
0.450571
20
0.363611
11
0.451745
21
0.36
0
LINE
8
BLACK
6
CONTINUOUS
10
0.451745
20
0.36
11
0.464227
21
0.36
0
LINE
8
BLACK
6
CONTINUOUS
10
0.464227
20
0.36
11
0.462399
21
0.366426
0
LINE
8
BLACK
6
CONTINUOUS
10
0.462399
20
0.366426
11
0.458659
21
0.373936
0
LINE
8
BLACK
6
CONTINUOUS
10
0.458659
20
0.373936
11
0.458659
21
0.373937
0
LINE
8
BLACK
6
CONTINUOUS
10
0.458659
20
0.373937
11
0.453602
21
0.380632
0
LINE
8
BLACK
6
CONTINUOUS
10
0.453602
20
0.380632
11
0.453602
21
0.380633
0
LINE
8
BLACK
6
CONTINUOUS
10
0.453602
20
0.380633
11
0.447402
21
0.386285
0
LINE
8
BLACK
6
CONTINUOUS
10
0.447402
20
0.386285
11
0.447402
21
0.386285
0
LINE
8
BLACK
6
CONTINUOUS
10
0.447402
20
0.386285
11
0.440267
21
0.390703
0
LINE
8
BLACK
6
CONTINUOUS
10
0.440267
20
0.390703
11
0.432443
21
0.393734
0
LINE
8
BLACK
6
CONTINUOUS
10
0.432443
20
0.393734
11
0.432443
21
0.393734
0
LINE
8
BLACK
6
CONTINUOUS
10
0.432443
20
0.393734
11
0.43
21
0.394191
0
LINE
8
BLACK
6
CONTINUOUS
10
0.43
20
0.394191
11
0.43
21
0.381899
0
LINE
8
BLACK
6
CONTINUOUS
10
0.407557
20
0.393734
11
0.407557
21
0.393734
0
LINE
8
BLACK
6
CONTINUOUS
10
0.407557
20
0.393734
11
0.399733
21
0.390703
0
LINE
8
BLACK
6
CONTINUOUS
10
0.399733
20
0.390703
11
0.392598
21
0.386285
0
LINE
8
BLACK
6
CONTINUOUS
10
0.392598
20
0.386285
11
0.386398
21
0.380633
0
LINE
8
BLACK
6
CONTINUOUS
10
0.386398
20
0.380633
11
0.386397
21
0.380632
0
LINE
8
BLACK
6
CONTINUOUS
10
0.386397
20
0.380632
11
0.381341
21
0.373937
0
LINE
8
BLACK
6
CONTINUOUS
10
0.381341
20
0.373937
11
0.381341
21
0.373936
0
LINE
8
BLACK
6
CONTINUOUS
10
0.381341
20
0.373936
11
0.377601
21
0.366426
0
LINE
8
BLACK
6
CONTINUOUS
10
0.377601
20
0.366426
11
0.375773
21
0.36
0
LINE
8
BLACK
6
CONTINUOUS
10
0.375773
20
0.36
11
0.388255
21
0.36
0
LINE
8
BLACK
6
CONTINUOUS
10
0.388255
20
0.36
11
0.389429
21
0.363611
0
LINE
8
BLACK
6
CONTINUOUS
10
0.389429
20
0.363611
11
0.392927
21
0.36967
0
LINE
8
BLACK
6
CONTINUOUS
10
0.392927
20
0.36967
11
0.397608
21
0.374869
0
LINE
8
BLACK
6
CONTINUOUS
10
0.397608
20
0.374869
11
0.403268
21
0.378981
0
LINE
8
BLACK
6
CONTINUOUS
10
0.403268
20
0.378981
11
0.409659
21
0.381827
0
LINE
8
BLACK
6
CONTINUOUS
10
0.409659
20
0.381827
11
0.41
21
0.381899
0
LINE
8
BLACK
6
CONTINUOUS
10
0.41
20
0.381899
11
0.41
21
0.394191
0
LINE
8
BLACK
6
CONTINUOUS
10
0.41
20
0.394191
11
0.407557
21
0.393734
0
LINE
8
BLACK
6
CONTINUOUS
10
0.377601
20
0.233574
11
0.381341
21
0.226064
0
LINE
8
BLACK
6
CONTINUOUS
10
0.381341
20
0.226064
11
0.381341
21
0.226063
0
LINE
8
BLACK
6
CONTINUOUS
10
0.381341
20
0.226063
11
0.386397
21
0.219368
0
LINE
8
BLACK
6
CONTINUOUS
10
0.386397
20
0.219368
11
0.386398
21
0.219367
0
LINE
8
BLACK
6
CONTINUOUS
10
0.386398
20
0.219367
11
0.392598
21
0.213715
0
LINE
8
BLACK
6
CONTINUOUS
10
0.392598
20
0.213715
11
0.392598
21
0.213715
0
LINE
8
BLACK
6
CONTINUOUS
10
0.392598
20
0.213715
11
0.399733
21
0.209297
0
LINE
8
BLACK
6
CONTINUOUS
10
0.399733
20
0.209297
11
0.407557
21
0.206266
0
LINE
8
BLACK
6
CONTINUOUS
10
0.407557
20
0.206266
11
0.41
21
0.205809
0
LINE
8
BLACK
6
CONTINUOUS
10
0.41
20
0.205809
11
0.41
21
0.205809
0
LINE
8
BLACK
6
CONTINUOUS
10
0.41
20
0.205809
11
0.41
21
0.218101
0
LINE
8
BLACK
6
CONTINUOUS
10
0.41
20
0.218101
11
0.409659
21
0.218173
0
LINE
8
BLACK
6
CONTINUOUS
10
0.409659
20
0.218173
11
0.403268
21
0.221019
0
LINE
8
BLACK
6
CONTINUOUS
10
0.403268
20
0.221019
11
0.397608
21
0.225131
0
LINE
8
BLACK
6
CONTINUOUS
10
0.397608
20
0.225131
11
0.392927
21
0.23033
0
LINE
8
BLACK
6
CONTINUOUS
10
0.392927
20
0.23033
11
0.389429
21
0.236389
0
LINE
8
BLACK
6
CONTINUOUS
10
0.389429
20
0.236389
11
0.388255
21
0.24
0
LINE
8
BLACK
6
CONTINUOUS
10
0.388255
20
0.24
11
0.375773
21
0.24
0
LINE
8
BLACK
6
CONTINUOUS
10
0.375773
20
0.24
11
0.377601
21
0.233574
0
LINE
8
BLACK
6
CONTINUOUS
10
0.377601
20
0.333574
11
0.381341
21
0.326064
0
LINE
8
BLACK
6
CONTINUOUS
10
0.381341
20
0.326064
11
0.381341
21
0.326063
0
LINE
8
BLACK
6
CONTINUOUS
10
0.381341
20
0.326063
11
0.386397
21
0.319368
0
LINE
8
BLACK
6
CONTINUOUS
10
0.386397
20
0.319368
11
0.386398
21
0.319367
0
LINE
8
BLACK
6
CONTINUOUS
10
0.386398
20
0.319367
11
0.392598
21
0.313715
0
LINE
8
BLACK
6
CONTINUOUS
10
0.392598
20
0.313715
11
0.392598
21
0.313715
0
LINE
8
BLACK
6
CONTINUOUS
10
0.392598
20
0.313715
11
0.399733
21
0.309297
0
LINE
8
BLACK
6
CONTINUOUS
10
0.399733
20
0.309297
11
0.407557
21
0.306266
0
LINE
8
BLACK
6
CONTINUOUS
10
0.407557
20
0.306266
11
0.41
21
0.305809
0
LINE
8
BLACK
6
CONTINUOUS
10
0.41
20
0.305809
11
0.41
21
0.305809
0
LINE
8
BLACK
6
CONTINUOUS
10
0.41
20
0.305809
11
0.41
21
0.318101
0
LINE
8
BLACK
6
CONTINUOUS
10
0.41
20
0.318101
11
0.409659
21
0.318173
0
LINE
8
BLACK
6
CONTINUOUS
10
0.409659
20
0.318173
11
0.403268
21
0.321019
0
LINE
8
BLACK
6
CONTINUOUS
10
0.403268
20
0.321019
11
0.397608
21
0.325131
0
LINE
8
BLACK
6
CONTINUOUS
10
0.397608
20
0.325131
11
0.392927
21
0.33033
0
LINE
8
BLACK
6
CONTINUOUS
10
0.392927
20
0.33033
11
0.389429
21
0.336389
0
LINE
8
BLACK
6
CONTINUOUS
10
0.389429
20
0.336389
11
0.388255
21
0.34
0
LINE
8
BLACK
6
CONTINUOUS
10
0.388255
20
0.34
11
0.375773
21
0.34
0
LINE
8
BLACK
6
CONTINUOUS
10
0.375773
20
0.34
11
0.377601
21
0.333574
0
LINE
8
BLACK
6
CONTINUOUS
10
0.100929
20
0.29458
11
0.105319
21
0.292343
0
LINE
8
BLACK
6
CONTINUOUS
10
0.105319
20
0.292343
11
0.108803
21
0.288859
0
LINE
8
BLACK
6
CONTINUOUS
10
0.108803
20
0.288859
11
0.11104
21
0.284469
0
LINE
8
BLACK
6
CONTINUOUS
10
0.11104
20
0.284469
11
0.111811
21
0.279602
0
LINE
8
BLACK
6
CONTINUOUS
10
0.111811
20
0.279602
11
0.11104
21
0.274736
0
LINE
8
BLACK
6
CONTINUOUS
10
0.11104
20
0.274736
11
0.108803
21
0.270346
0
LINE
8
BLACK
6
CONTINUOUS
10
0.108803
20
0.270346
11
0.105319
21
0.266862
0
LINE
8
BLACK
6
CONTINUOUS
10
0.105319
20
0.266862
11
0.100929
21
0.264625
0
LINE
8
BLACK
6
CONTINUOUS
10
0.100929
20
0.264625
11
0.096063
21
0.263854
0
LINE
8
BLACK
6
CONTINUOUS
10
0.096063
20
0.263854
11
0.0911966
21
0.264625
0
LINE
8
BLACK
6
CONTINUOUS
10
0.0911966
20
0.264625
11
0.0901197
21
0.265174
0
LINE
8
BLACK
6
CONTINUOUS
10
0.0901197
20
0.265174
11
0.0757033
21
0.250757
0
LINE
8
BLACK
6
CONTINUOUS
10
0.0757033
20
0.250757
11
0.0750191
21
0.250362
0
LINE
8
BLACK
6
CONTINUOUS
10
0.0750191
20
0.250362
11
0.0744606
21
0.249804
0
LINE
8
BLACK
6
CONTINUOUS
10
0.0744606
20
0.249804
11
0.0736976
21
0.249599
0
LINE
8
BLACK
6
CONTINUOUS
10
0.0736976
20
0.249599
11
0.0730135
21
0.249204
0
LINE
8
BLACK
6
CONTINUOUS
10
0.0730135
20
0.249204
11
0.0722236
21
0.249204
0
LINE
8
BLACK
6
CONTINUOUS
10
0.0722236
20
0.249204
11
0.0714606
21
0.249
0
LINE
8
BLACK
6
CONTINUOUS
10
0.0714606
20
0.249
11
-0.0768898
21
0.249
0
LINE
8
BLACK
6
CONTINUOUS
10
-0.0768898
20
0.249
11
-0.0768898
21
0.237205
0
LINE
8
BLACK
6
CONTINUOUS
10
-0.0768898
20
0.237205
11
-0.14185
21
0.237205
0
LINE
8
BLACK
6
CONTINUOUS
10
-0.14185
20
0.237205
11
-0.14185
21
0.262795
0
LINE
8
BLACK
6
CONTINUOUS
10
-0.14185
20
0.262795
11
-0.0768898
21
0.262795
0
LINE
8
BLACK
6
CONTINUOUS
10
-0.0768898
20
0.262795
11
-0.0768898
21
0.261
0
LINE
8
BLACK
6
CONTINUOUS
10
-0.0768898
20
0.261
11
0.0689754
21
0.261
0
LINE
8
BLACK
6
CONTINUOUS
10
0.0689754
20
0.261
11
0.0816344
21
0.273659
0
LINE
8
BLACK
6
CONTINUOUS
10
0.0816344
20
0.273659
11
0.0810857
21
0.274736
0
LINE
8
BLACK
6
CONTINUOUS
10
0.0810857
20
0.274736
11
0.080315
21
0.279602
0
LINE
8
BLACK
6
CONTINUOUS
10
0.080315
20
0.279602
11
0.0810857
21
0.284469
0
LINE
8
BLACK
6
CONTINUOUS
10
0.0810857
20
0.284469
11
0.0833226
21
0.288859
0
LINE
8
BLACK
6
CONTINUOUS
10
0.0833226
20
0.288859
11
0.0868065
21
0.292343
0
LINE
8
BLACK
6
CONTINUOUS
10
0.0868065
20
0.292343
11
0.0911966
21
0.29458
0
LINE
8
BLACK
6
CONTINUOUS
10
0.0911966
20
0.29458
11
0.096063
21
0.29535
0
LINE
8
BLACK
6
CONTINUOUS
10
0.096063
20
0.29535
11
0.100929
21
0.29458
0
LINE
8
BLACK
6
CONTINUOUS
10
0.353465
20
0.516535
11
0.286535
21
0.516535
0
LINE
8
BLACK
6
CONTINUOUS
10
0.286535
20
0.516535
11
0.286535
21
0.544
0
LINE
8
BLACK
6
CONTINUOUS
10
0.286535
20
0.544
11
0.232485
21
0.544
0
LINE
8
BLACK
6
CONTINUOUS
10
0.232485
20
0.544
11
-0.0157574
21
0.295757
0
LINE
8
BLACK
6
CONTINUOUS
10
-0.0157574
20
0.295757
11
-0.0164415
21
0.295362
0
LINE
8
BLACK
6
CONTINUOUS
10
-0.0164415
20
0.295362
11
-0.017
21
0.294804
0
LINE
8
BLACK
6
CONTINUOUS
10
-0.017
20
0.294804
11
-0.017763
21
0.294599
0
LINE
8
BLACK
6
CONTINUOUS
10
-0.017763
20
0.294599
11
-0.0184471
21
0.294204
0
LINE
8
BLACK
6
CONTINUOUS
10
-0.0184471
20
0.294204
11
-0.019237
21
0.294204
0
LINE
8
BLACK
6
CONTINUOUS
10
-0.019237
20
0.294204
11
-0.02
21
0.294
0
LINE
8
BLACK
6
CONTINUOUS
10
-0.02
20
0.294
11
-0.0768898
21
0.294
0
LINE
8
BLACK
6
CONTINUOUS
10
-0.0768898
20
0.294
11
-0.0768898
21
0.287205
0
LINE
8
BLACK
6
CONTINUOUS
10
-0.0768898
20
0.287205
11
-0.14185
21
0.287205
0
LINE
8
BLACK
6
CONTINUOUS
10
-0.14185
20
0.287205
11
-0.14185
21
0.312795
0
LINE
8
BLACK
6
CONTINUOUS
10
-0.14185
20
0.312795
11
-0.0768898
21
0.312795
0
LINE
8
BLACK
6
CONTINUOUS
10
-0.0768898
20
0.312795
11
-0.0768898
21
0.306
0
LINE
8
BLACK
6
CONTINUOUS
10
-0.0768898
20
0.306
11
-0.0224853
21
0.306
0
LINE
8
BLACK
6
CONTINUOUS
10
-0.0224853
20
0.306
11
0.225757
21
0.554243
0
LINE
8
BLACK
6
CONTINUOUS
10
0.225757
20
0.554243
11
0.226441
21
0.554638
0
LINE
8
BLACK
6
CONTINUOUS
10
0.226441
20
0.554638
11
0.227
21
0.555196
0
LINE
8
BLACK
6
CONTINUOUS
10
0.227
20
0.555196
11
0.227763
21
0.555401
0
LINE
8
BLACK
6
CONTINUOUS
10
0.227763
20
0.555401
11
0.228447
21
0.555796
0
LINE
8
BLACK
6
CONTINUOUS
10
0.228447
20
0.555796
11
0.229237
21
0.555796
0
LINE
8
BLACK
6
CONTINUOUS
10
0.229237
20
0.555796
11
0.23
21
0.556
0
LINE
8
BLACK
6
CONTINUOUS
10
0.23
20
0.556
11
0.286535
21
0.556
0
LINE
8
BLACK
6
CONTINUOUS
10
0.286535
20
0.556
11
0.286535
21
0.583465
0
LINE
8
BLACK
6
CONTINUOUS
10
0.286535
20
0.583465
11
0.353465
21
0.583465
0
LINE
8
BLACK
6
CONTINUOUS
10
0.353465
20
0.583465
11
0.353465
21
0.516535
0
LINE
8
BLACK
6
CONTINUOUS
10
0.21248
20
0.287205
11
0.14752
21
0.287205
0
LINE
8
BLACK
6
CONTINUOUS
10
0.14752
20
0.287205
11
0.14752
21
0.312795
0
LINE
8
BLACK
6
CONTINUOUS
10
0.14752
20
0.312795
11
0.21248
21
0.312795
0
LINE
8
BLACK
6
CONTINUOUS
10
0.21248
20
0.312795
11
0.21248
21
0.287205
0
LINE
8
BLACK
6
CONTINUOUS
10
0.330341
20
0.381827
11
0.336732
21
0.378981
0
LINE
8
BLACK
6
CONTINUOUS
10
0.336732
20
0.378981
11
0.342392
21
0.374869
0
LINE
8
BLACK
6
CONTINUOUS
10
0.342392
20
0.374869
11
0.347073
21
0.36967
0
LINE
8
BLACK
6
CONTINUOUS
10
0.347073
20
0.36967
11
0.350571
21
0.363611
0
LINE
8
BLACK
6
CONTINUOUS
10
0.350571
20
0.363611
11
0.352733
21
0.356958
0
LINE
8
BLACK
6
CONTINUOUS
10
0.352733
20
0.356958
11
0.353465
21
0.35
0
LINE
8
BLACK
6
CONTINUOUS
10
0.353465
20
0.35
11
0.352733
21
0.343042
0
LINE
8
BLACK
6
CONTINUOUS
10
0.352733
20
0.343042
11
0.350571
21
0.336389
0
LINE
8
BLACK
6
CONTINUOUS
10
0.350571
20
0.336389
11
0.347073
21
0.33033
0
LINE
8
BLACK
6
CONTINUOUS
10
0.347073
20
0.33033
11
0.342392
21
0.325131
0
LINE
8
BLACK
6
CONTINUOUS
10
0.342392
20
0.325131
11
0.336732
21
0.321019
0
LINE
8
BLACK
6
CONTINUOUS
10
0.336732
20
0.321019
11
0.330341
21
0.318173
0
LINE
8
BLACK
6
CONTINUOUS
10
0.330341
20
0.318173
11
0.323498
21
0.316719
0
LINE
8
BLACK
6
CONTINUOUS
10
0.323498
20
0.316719
11
0.316502
21
0.316719
0
LINE
8
BLACK
6
CONTINUOUS
10
0.316502
20
0.316719
11
0.309659
21
0.318173
0
LINE
8
BLACK
6
CONTINUOUS
10
0.309659
20
0.318173
11
0.303268
21
0.321019
0
LINE
8
BLACK
6
CONTINUOUS
10
0.303268
20
0.321019
11
0.297608
21
0.325131
0
LINE
8
BLACK
6
CONTINUOUS
10
0.297608
20
0.325131
11
0.292927
21
0.33033
0
LINE
8
BLACK
6
CONTINUOUS
10
0.292927
20
0.33033
11
0.289429
21
0.336389
0
LINE
8
BLACK
6
CONTINUOUS
10
0.289429
20
0.336389
11
0.287267
21
0.343042
0
LINE
8
BLACK
6
CONTINUOUS
10
0.287267
20
0.343042
11
0.286535
21
0.35
0
LINE
8
BLACK
6
CONTINUOUS
10
0.286535
20
0.35
11
0.287267
21
0.356958
0
LINE
8
BLACK
6
CONTINUOUS
10
0.287267
20
0.356958
11
0.289429
21
0.363611
0
LINE
8
BLACK
6
CONTINUOUS
10
0.289429
20
0.363611
11
0.292927
21
0.36967
0
LINE
8
BLACK
6
CONTINUOUS
10
0.292927
20
0.36967
11
0.297608
21
0.374869
0
LINE
8
BLACK
6
CONTINUOUS
10
0.297608
20
0.374869
11
0.303268
21
0.378981
0
LINE
8
BLACK
6
CONTINUOUS
10
0.303268
20
0.378981
11
0.309659
21
0.381827
0
LINE
8
BLACK
6
CONTINUOUS
10
0.309659
20
0.381827
11
0.316502
21
0.383281
0
LINE
8
BLACK
6
CONTINUOUS
10
0.316502
20
0.383281
11
0.323498
21
0.383281
0
LINE
8
BLACK
6
CONTINUOUS
10
0.323498
20
0.383281
11
0.330341
21
0.381827
0
LINE
8
BLACK
6
CONTINUOUS
10
-0.145134
20
0.364977
11
-0.140851
21
0.362795
0
LINE
8
BLACK
6
CONTINUOUS
10
-0.140851
20
0.362795
11
-0.0768898
21
0.362795
0
LINE
8
BLACK
6
CONTINUOUS
10
-0.0768898
20
0.362795
11
-0.0768898
21
0.337205
0
LINE
8
BLACK
6
CONTINUOUS
10
-0.0768898
20
0.337205
11
-0.140851
21
0.337205
0
LINE
8
BLACK
6
CONTINUOUS
10
-0.140851
20
0.337205
11
-0.145134
21
0.335023
0
LINE
8
BLACK
6
CONTINUOUS
10
-0.145134
20
0.335023
11
-0.15
21
0.334252
0
LINE
8
BLACK
6
CONTINUOUS
10
-0.15
20
0.334252
11
-0.154866
21
0.335023
0
LINE
8
BLACK
6
CONTINUOUS
10
-0.154866
20
0.335023
11
-0.159256
21
0.33726
0
LINE
8
BLACK
6
CONTINUOUS
10
-0.159256
20
0.33726
11
-0.16274
21
0.340744
0
LINE
8
BLACK
6
CONTINUOUS
10
-0.16274
20
0.340744
11
-0.164977
21
0.345134
0
LINE
8
BLACK
6
CONTINUOUS
10
-0.164977
20
0.345134
11
-0.165748
21
0.35
0
LINE
8
BLACK
6
CONTINUOUS
10
-0.165748
20
0.35
11
-0.164977
21
0.354866
0
LINE
8
BLACK
6
CONTINUOUS
10
-0.164977
20
0.354866
11
-0.16274
21
0.359256
0
LINE
8
BLACK
6
CONTINUOUS
10
-0.16274
20
0.359256
11
-0.159256
21
0.36274
0
LINE
8
BLACK
6
CONTINUOUS
10
-0.159256
20
0.36274
11
-0.154866
21
0.364977
0
LINE
8
BLACK
6
CONTINUOUS
10
-0.154866
20
0.364977
11
-0.15
21
0.365748
0
LINE
8
BLACK
6
CONTINUOUS
10
-0.15
20
0.365748
11
-0.145134
21
0.364977
0
LINE
8
BLACK
6
CONTINUOUS
10
0.330341
20
0.481827
11
0.336732
21
0.478981
0
LINE
8
BLACK
6
CONTINUOUS
10
0.336732
20
0.478981
11
0.342392
21
0.474869
0
LINE
8
BLACK
6
CONTINUOUS
10
0.342392
20
0.474869
11
0.347073
21
0.46967
0
LINE
8
BLACK
6
CONTINUOUS
10
0.347073
20
0.46967
11
0.350571
21
0.463611
0
LINE
8
BLACK
6
CONTINUOUS
10
0.350571
20
0.463611
11
0.352733
21
0.456958
0
LINE
8
BLACK
6
CONTINUOUS
10
0.352733
20
0.456958
11
0.353465
21
0.45
0
LINE
8
BLACK
6
CONTINUOUS
10
0.353465
20
0.45
11
0.352733
21
0.443042
0
LINE
8
BLACK
6
CONTINUOUS
10
0.352733
20
0.443042
11
0.350571
21
0.436389
0
LINE
8
BLACK
6
CONTINUOUS
10
0.350571
20
0.436389
11
0.347073
21
0.43033
0
LINE
8
BLACK
6
CONTINUOUS
10
0.347073
20
0.43033
11
0.342392
21
0.425131
0
LINE
8
BLACK
6
CONTINUOUS
10
0.342392
20
0.425131
11
0.336732
21
0.421019
0
LINE
8
BLACK
6
CONTINUOUS
10
0.336732
20
0.421019
11
0.330341
21
0.418173
0
LINE
8
BLACK
6
CONTINUOUS
10
0.330341
20
0.418173
11
0.323498
21
0.416719
0
LINE
8
BLACK
6
CONTINUOUS
10
0.323498
20
0.416719
11
0.316502
21
0.416719
0
LINE
8
BLACK
6
CONTINUOUS
10
0.316502
20
0.416719
11
0.309659
21
0.418173
0
LINE
8
BLACK
6
CONTINUOUS
10
0.309659
20
0.418173
11
0.303715
21
0.42082
0
LINE
8
BLACK
6
CONTINUOUS
10
0.303715
20
0.42082
11
0.228652
21
0.345757
0
LINE
8
BLACK
6
CONTINUOUS
10
0.228652
20
0.345757
11
0.227968
21
0.345362
0
LINE
8
BLACK
6
CONTINUOUS
10
0.227968
20
0.345362
11
0.227409
21
0.344804
0
LINE
8
BLACK
6
CONTINUOUS
10
0.227409
20
0.344804
11
0.226646
21
0.344599
0
LINE
8
BLACK
6
CONTINUOUS
10
0.226646
20
0.344599
11
0.225962
21
0.344204
0
LINE
8
BLACK
6
CONTINUOUS
10
0.225962
20
0.344204
11
0.225172
21
0.344204
0
LINE
8
BLACK
6
CONTINUOUS
10
0.225172
20
0.344204
11
0.224409
21
0.344
0
LINE
8
BLACK
6
CONTINUOUS
10
0.224409
20
0.344
11
0.21248
21
0.344
0
LINE
8
BLACK
6
CONTINUOUS
10
0.21248
20
0.344
11
0.21248
21
0.337205
0
LINE
8
BLACK
6
CONTINUOUS
10
0.21248
20
0.337205
11
0.14752
21
0.337205
0
LINE
8
BLACK
6
CONTINUOUS
10
0.14752
20
0.337205
11
0.14752
21
0.362795
0
LINE
8
BLACK
6
CONTINUOUS
10
0.14752
20
0.362795
11
0.21248
21
0.362795
0
LINE
8
BLACK
6
CONTINUOUS
10
0.21248
20
0.362795
11
0.21248
21
0.356
0
LINE
8
BLACK
6
CONTINUOUS
10
0.21248
20
0.356
11
0.221924
21
0.356
0
LINE
8
BLACK
6
CONTINUOUS
10
0.221924
20
0.356
11
0.294503
21
0.428579
0
LINE
8
BLACK
6
CONTINUOUS
10
0.294503
20
0.428579
11
0.292927
21
0.43033
0
LINE
8
BLACK
6
CONTINUOUS
10
0.292927
20
0.43033
11
0.289429
21
0.436389
0
LINE
8
BLACK
6
CONTINUOUS
10
0.289429
20
0.436389
11
0.287267
21
0.443042
0
LINE
8
BLACK
6
CONTINUOUS
10
0.287267
20
0.443042
11
0.286535
21
0.45
0
LINE
8
BLACK
6
CONTINUOUS
10
0.286535
20
0.45
11
0.287267
21
0.456958
0
LINE
8
BLACK
6
CONTINUOUS
10
0.287267
20
0.456958
11
0.289429
21
0.463611
0
LINE
8
BLACK
6
CONTINUOUS
10
0.289429
20
0.463611
11
0.292927
21
0.46967
0
LINE
8
BLACK
6
CONTINUOUS
10
0.292927
20
0.46967
11
0.297608
21
0.474869
0
LINE
8
BLACK
6
CONTINUOUS
10
0.297608
20
0.474869
11
0.303268
21
0.478981
0
LINE
8
BLACK
6
CONTINUOUS
10
0.303268
20
0.478981
11
0.309659
21
0.481827
0
LINE
8
BLACK
6
CONTINUOUS
10
0.309659
20
0.481827
11
0.316502
21
0.483281
0
LINE
8
BLACK
6
CONTINUOUS
10
0.316502
20
0.483281
11
0.323498
21
0.483281
0
LINE
8
BLACK
6
CONTINUOUS
10
0.323498
20
0.483281
11
0.330341
21
0.481827
0
LINE
8
BLACK
6
CONTINUOUS
10
0.375865
20
0.503134
11
0.376655
21
0.503134
0
LINE
8
BLACK
6
CONTINUOUS
10
0.376655
20
0.503134
11
0.377339
21
0.502739
0
LINE
8
BLACK
6
CONTINUOUS
10
0.377339
20
0.502739
11
0.378102
21
0.502535
0
LINE
8
BLACK
6
CONTINUOUS
10
0.378102
20
0.502535
11
0.378661
21
0.501976
0
LINE
8
BLACK
6
CONTINUOUS
10
0.378661
20
0.501976
11
0.379345
21
0.501581
0
LINE
8
BLACK
6
CONTINUOUS
10
0.379345
20
0.501581
11
0.402502
21
0.478425
0
LINE
8
BLACK
6
CONTINUOUS
10
0.402502
20
0.478425
11
0.403268
21
0.478981
0
LINE
8
BLACK
6
CONTINUOUS
10
0.403268
20
0.478981
11
0.409659
21
0.481827
0
LINE
8
BLACK
6
CONTINUOUS
10
0.409659
20
0.481827
11
0.416502
21
0.483281
0
LINE
8
BLACK
6
CONTINUOUS
10
0.416502
20
0.483281
11
0.423498
21
0.483281
0
LINE
8
BLACK
6
CONTINUOUS
10
0.423498
20
0.483281
11
0.430341
21
0.481827
0
LINE
8
BLACK
6
CONTINUOUS
10
0.430341
20
0.481827
11
0.436732
21
0.478981
0
LINE
8
BLACK
6
CONTINUOUS
10
0.436732
20
0.478981
11
0.442392
21
0.474869
0
LINE
8
BLACK
6
CONTINUOUS
10
0.442392
20
0.474869
11
0.447073
21
0.46967
0
LINE
8
BLACK
6
CONTINUOUS
10
0.447073
20
0.46967
11
0.450571
21
0.463611
0
LINE
8
BLACK
6
CONTINUOUS
10
0.450571
20
0.463611
11
0.452733
21
0.456958
0
LINE
8
BLACK
6
CONTINUOUS
10
0.452733
20
0.456958
11
0.453465
21
0.45
0
LINE
8
BLACK
6
CONTINUOUS
10
0.453465
20
0.45
11
0.452733
21
0.443042
0
LINE
8
BLACK
6
CONTINUOUS
10
0.452733
20
0.443042
11
0.450571
21
0.436389
0
LINE
8
BLACK
6
CONTINUOUS
10
0.450571
20
0.436389
11
0.447073
21
0.43033
0
LINE
8
BLACK
6
CONTINUOUS
10
0.447073
20
0.43033
11
0.442392
21
0.425131
0
LINE
8
BLACK
6
CONTINUOUS
10
0.442392
20
0.425131
11
0.436732
21
0.421019
0
LINE
8
BLACK
6
CONTINUOUS
10
0.436732
20
0.421019
11
0.430341
21
0.418173
0
LINE
8
BLACK
6
CONTINUOUS
10
0.430341
20
0.418173
11
0.423498
21
0.416719
0
LINE
8
BLACK
6
CONTINUOUS
10
0.423498
20
0.416719
11
0.416502
21
0.416719
0
LINE
8
BLACK
6
CONTINUOUS
10
0.416502
20
0.416719
11
0.409659
21
0.418173
0
LINE
8
BLACK
6
CONTINUOUS
10
0.409659
20
0.418173
11
0.403268
21
0.421019
0
LINE
8
BLACK
6
CONTINUOUS
10
0.403268
20
0.421019
11
0.397608
21
0.425131
0
LINE
8
BLACK
6
CONTINUOUS
10
0.397608
20
0.425131
11
0.392927
21
0.43033
0
LINE
8
BLACK
6
CONTINUOUS
10
0.392927
20
0.43033
11
0.389429
21
0.436389
0
LINE
8
BLACK
6
CONTINUOUS
10
0.389429
20
0.436389
11
0.387267
21
0.443042
0
LINE
8
BLACK
6
CONTINUOUS
10
0.387267
20
0.443042
11
0.386535
21
0.45
0
LINE
8
BLACK
6
CONTINUOUS
10
0.386535
20
0.45
11
0.387267
21
0.456958
0
LINE
8
BLACK
6
CONTINUOUS
10
0.387267
20
0.456958
11
0.389429
21
0.463611
0
LINE
8
BLACK
6
CONTINUOUS
10
0.389429
20
0.463611
11
0.392927
21
0.46967
0
LINE
8
BLACK
6
CONTINUOUS
10
0.392927
20
0.46967
11
0.393571
21
0.470385
0
LINE
8
BLACK
6
CONTINUOUS
10
0.393571
20
0.470385
11
0.372617
21
0.491339
0
LINE
8
BLACK
6
CONTINUOUS
10
0.372617
20
0.491339
11
0.299824
21
0.491339
0
LINE
8
BLACK
6
CONTINUOUS
10
0.299824
20
0.491339
11
0.21248
21
0.403995
0
LINE
8
BLACK
6
CONTINUOUS
10
0.21248
20
0.403995
11
0.21248
21
0.387205
0
LINE
8
BLACK
6
CONTINUOUS
10
0.21248
20
0.387205
11
0.14752
21
0.387205
0
LINE
8
BLACK
6
CONTINUOUS
10
0.14752
20
0.387205
11
0.14752
21
0.412795
0
LINE
8
BLACK
6
CONTINUOUS
10
0.14752
20
0.412795
11
0.20431
21
0.412795
0
LINE
8
BLACK
6
CONTINUOUS
10
0.20431
20
0.412795
11
0.293096
21
0.501581
0
LINE
8
BLACK
6
CONTINUOUS
10
0.293096
20
0.501581
11
0.29378
21
0.501976
0
LINE
8
BLACK
6
CONTINUOUS
10
0.29378
20
0.501976
11
0.294339
21
0.502535
0
LINE
8
BLACK
6
CONTINUOUS
10
0.294339
20
0.502535
11
0.295102
21
0.502739
0
LINE
8
BLACK
6
CONTINUOUS
10
0.295102
20
0.502739
11
0.295786
21
0.503134
0
LINE
8
BLACK
6
CONTINUOUS
10
0.295786
20
0.503134
11
0.296576
21
0.503134
0
LINE
8
BLACK
6
CONTINUOUS
10
0.296576
20
0.503134
11
0.297339
21
0.503339
0
LINE
8
BLACK
6
CONTINUOUS
10
0.297339
20
0.503339
11
0.375102
21
0.503339
0
LINE
8
BLACK
6
CONTINUOUS
10
0.375102
20
0.503339
11
0.375865
21
0.503134
0
LINE
8
BLACK
6
CONTINUOUS
10
0.000341102
20
0.51789
11
0.00673228
21
0.515044
0
LINE
8
BLACK
6
CONTINUOUS
10
0.00673228
20
0.515044
11
0.0123922
21
0.510932
0
LINE
8
BLACK
6
CONTINUOUS
10
0.0123922
20
0.510932
11
0.0170734
21
0.505733
0
LINE
8
BLACK
6
CONTINUOUS
10
0.0170734
20
0.505733
11
0.0205714
21
0.499674
0
LINE
8
BLACK
6
CONTINUOUS
10
0.0205714
20
0.499674
11
0.0227333
21
0.493021
0
LINE
8
BLACK
6
CONTINUOUS
10
0.0227333
20
0.493021
11
0.0234646
21
0.486063
0
LINE
8
BLACK
6
CONTINUOUS
10
0.0234646
20
0.486063
11
0.0227333
21
0.479105
0
LINE
8
BLACK
6
CONTINUOUS
10
0.0227333
20
0.479105
11
0.0205714
21
0.472452
0
LINE
8
BLACK
6
CONTINUOUS
10
0.0205714
20
0.472452
11
0.0170734
21
0.466393
0
LINE
8
BLACK
6
CONTINUOUS
10
0.0170734
20
0.466393
11
0.0123922
21
0.461194
0
LINE
8
BLACK
6
CONTINUOUS
10
0.0123922
20
0.461194
11
0.00673228
21
0.457082
0
LINE
8
BLACK
6
CONTINUOUS
10
0.00673228
20
0.457082
11
0.000341102
21
0.454236
0
LINE
8
BLACK
6
CONTINUOUS
10
0.000341102
20
0.454236
11
-0.00650201
21
0.452782
0
LINE
8
BLACK
6
CONTINUOUS
10
-0.00650201
20
0.452782
11
-0.013498
21
0.452782
0
LINE
8
BLACK
6
CONTINUOUS
10
-0.013498
20
0.452782
11
-0.0203411
21
0.454236
0
LINE
8
BLACK
6
CONTINUOUS
10
-0.0203411
20
0.454236
11
-0.0267323
21
0.457082
0
LINE
8
BLACK
6
CONTINUOUS
10
-0.0267323
20
0.457082
11
-0.0323922
21
0.461194
0
LINE
8
BLACK
6
CONTINUOUS
10
-0.0323922
20
0.461194
11
-0.0370734
21
0.466393
0
LINE
8
BLACK
6
CONTINUOUS
10
-0.0370734
20
0.466393
11
-0.0405714
21
0.472452
0
LINE
8
BLACK
6
CONTINUOUS
10
-0.0405714
20
0.472452
11
-0.0427333
21
0.479105
0
LINE
8
BLACK
6
CONTINUOUS
10
-0.0427333
20
0.479105
11
-0.0434646
21
0.486063
0
LINE
8
BLACK
6
CONTINUOUS
10
-0.0434646
20
0.486063
11
-0.0427333
21
0.493021
0
LINE
8
BLACK
6
CONTINUOUS
10
-0.0427333
20
0.493021
11
-0.0405714
21
0.499674
0
LINE
8
BLACK
6
CONTINUOUS
10
-0.0405714
20
0.499674
11
-0.0370734
21
0.505733
0
LINE
8
BLACK
6
CONTINUOUS
10
-0.0370734
20
0.505733
11
-0.0323922
21
0.510932
0
LINE
8
BLACK
6
CONTINUOUS
10
-0.0323922
20
0.510932
11
-0.0267323
21
0.515044
0
LINE
8
BLACK
6
CONTINUOUS
10
-0.0267323
20
0.515044
11
-0.0203411
21
0.51789
0
LINE
8
BLACK
6
CONTINUOUS
10
-0.0203411
20
0.51789
11
-0.013498
21
0.519344
0
LINE
8
BLACK
6
CONTINUOUS
10
-0.013498
20
0.519344
11
-0.00650201
21
0.519344
0
LINE
8
BLACK
6
CONTINUOUS
10
-0.00650201
20
0.519344
11
0.000341102
21
0.51789
0
LINE
8
BLACK
6
CONTINUOUS
10
0.000341102
20
0.61789
11
0.00673228
21
0.615044
0
LINE
8
BLACK
6
CONTINUOUS
10
0.00673228
20
0.615044
11
0.0123922
21
0.610932
0
LINE
8
BLACK
6
CONTINUOUS
10
0.0123922
20
0.610932
11
0.0170734
21
0.605733
0
LINE
8
BLACK
6
CONTINUOUS
10
0.0170734
20
0.605733
11
0.0205714
21
0.599674
0
LINE
8
BLACK
6
CONTINUOUS
10
0.0205714
20
0.599674
11
0.0227333
21
0.593021
0
LINE
8
BLACK
6
CONTINUOUS
10
0.0227333
20
0.593021
11
0.0234646
21
0.586063
0
LINE
8
BLACK
6
CONTINUOUS
10
0.0234646
20
0.586063
11
0.0227333
21
0.579105
0
LINE
8
BLACK
6
CONTINUOUS
10
0.0227333
20
0.579105
11
0.0205714
21
0.572452
0
LINE
8
BLACK
6
CONTINUOUS
10
0.0205714
20
0.572452
11
0.0170734
21
0.566393
0
LINE
8
BLACK
6
CONTINUOUS
10
0.0170734
20
0.566393
11
0.0123922
21
0.561194
0
LINE
8
BLACK
6
CONTINUOUS
10
0.0123922
20
0.561194
11
0.00673228
21
0.557082
0
LINE
8
BLACK
6
CONTINUOUS
10
0.00673228
20
0.557082
11
0.000341102
21
0.554236
0
LINE
8
BLACK
6
CONTINUOUS
10
0.000341102
20
0.554236
11
-0.00650201
21
0.552782
0
LINE
8
BLACK
6
CONTINUOUS
10
-0.00650201
20
0.552782
11
-0.013498
21
0.552782
0
LINE
8
BLACK
6
CONTINUOUS
10
-0.013498
20
0.552782
11
-0.0203411
21
0.554236
0
LINE
8
BLACK
6
CONTINUOUS
10
-0.0203411
20
0.554236
11
-0.0267323
21
0.557082
0
LINE
8
BLACK
6
CONTINUOUS
10
-0.0267323
20
0.557082
11
-0.0323922
21
0.561194
0
LINE
8
BLACK
6
CONTINUOUS
10
-0.0323922
20
0.561194
11
-0.0370734
21
0.566393
0
LINE
8
BLACK
6
CONTINUOUS
10
-0.0370734
20
0.566393
11
-0.0405714
21
0.572452
0
LINE
8
BLACK
6
CONTINUOUS
10
-0.0405714
20
0.572452
11
-0.0427333
21
0.579105
0
LINE
8
BLACK
6
CONTINUOUS
10
-0.0427333
20
0.579105
11
-0.0434646
21
0.586063
0
LINE
8
BLACK
6
CONTINUOUS
10
-0.0434646
20
0.586063
11
-0.0427333
21
0.593021
0
LINE
8
BLACK
6
CONTINUOUS
10
-0.0427333
20
0.593021
11
-0.0405714
21
0.599674
0
LINE
8
BLACK
6
CONTINUOUS
10
-0.0405714
20
0.599674
11
-0.0370734
21
0.605733
0
LINE
8
BLACK
6
CONTINUOUS
10
-0.0370734
20
0.605733
11
-0.0323922
21
0.610932
0
LINE
8
BLACK
6
CONTINUOUS
10
-0.0323922
20
0.610932
11
-0.0267323
21
0.615044
0
LINE
8
BLACK
6
CONTINUOUS
10
-0.0267323
20
0.615044
11
-0.0203411
21
0.61789
0
LINE
8
BLACK
6
CONTINUOUS
10
-0.0203411
20
0.61789
11
-0.013498
21
0.619344
0
LINE
8
BLACK
6
CONTINUOUS
10
-0.013498
20
0.619344
11
-0.00650201
21
0.619344
0
LINE
8
BLACK
6
CONTINUOUS
10
-0.00650201
20
0.619344
11
0.000341102
21
0.61789
0
LINE
8
BLACK
6
CONTINUOUS
10
0.208177
20
0.726568
11
0.212891
21
0.723538
0
LINE
8
BLACK
6
CONTINUOUS
10
0.212891
20
0.723538
11
0.21656
21
0.719304
0
LINE
8
BLACK
6
CONTINUOUS
10
0.21656
20
0.719304
11
0.218888
21
0.714207
0
LINE
8
BLACK
6
CONTINUOUS
10
0.218888
20
0.714207
11
0.219685
21
0.708661
0
LINE
8
BLACK
6
CONTINUOUS
10
0.219685
20
0.708661
11
0.218888
21
0.703116
0
LINE
8
BLACK
6
CONTINUOUS
10
0.218888
20
0.703116
11
0.21656
21
0.698019
0
LINE
8
BLACK
6
CONTINUOUS
10
0.21656
20
0.698019
11
0.212891
21
0.693784
0
LINE
8
BLACK
6
CONTINUOUS
10
0.212891
20
0.693784
11
0.208177
21
0.690755
0
LINE
8
BLACK
6
CONTINUOUS
10
0.208177
20
0.690755
11
0.202801
21
0.689177
0
LINE
8
BLACK
6
CONTINUOUS
10
0.202801
20
0.689177
11
0.197199
21
0.689177
0
LINE
8
BLACK
6
CONTINUOUS
10
0.197199
20
0.689177
11
0.191823
21
0.690755
0
LINE
8
BLACK
6
CONTINUOUS
10
0.191823
20
0.690755
11
0.187109
21
0.693784
0
LINE
8
BLACK
6
CONTINUOUS
10
0.187109
20
0.693784
11
0.18344
21
0.698019
0
LINE
8
BLACK
6
CONTINUOUS
10
0.18344
20
0.698019
11
0.181112
21
0.703116
0
LINE
8
BLACK
6
CONTINUOUS
10
0.181112
20
0.703116
11
0.180315
21
0.708661
0
LINE
8
BLACK
6
CONTINUOUS
10
0.180315
20
0.708661
11
0.181112
21
0.714207
0
LINE
8
BLACK
6
CONTINUOUS
10
0.181112
20
0.714207
11
0.18344
21
0.719304
0
LINE
8
BLACK
6
CONTINUOUS
10
0.18344
20
0.719304
11
0.187109
21
0.723538
0
LINE
8
BLACK
6
CONTINUOUS
10
0.187109
20
0.723538
11
0.191823
21
0.726568
0
LINE
8
BLACK
6
CONTINUOUS
10
0.191823
20
0.726568
11
0.197199
21
0.728146
0
LINE
8
BLACK
6
CONTINUOUS
10
0.197199
20
0.728146
11
0.202801
21
0.728146
0
LINE
8
BLACK
6
CONTINUOUS
10
0.202801
20
0.728146
11
0.208177
21
0.726568
0
LINE
8
BLACK
6
CONTINUOUS
10
0.588374
20
0.989236
11
0.58979
21
0.987287
0
LINE
8
BLACK
6
CONTINUOUS
10
0.58979
20
0.987287
11
0.58998
21
0.986083
0
LINE
8
BLACK
6
CONTINUOUS
10
0.58998
20
0.986083
11
0.58998
21
-0.186083
0
LINE
8
BLACK
6
CONTINUOUS
10
0.58998
20
-0.186083
11
0.589236
21
-0.188374
0
LINE
8
BLACK
6
CONTINUOUS
10
0.589236
20
-0.188374
11
0.587287
21
-0.18979
0
LINE
8
BLACK
6
CONTINUOUS
10
0.587287
20
-0.18979
11
0.586083
21
-0.18998
0
LINE
8
BLACK
6
CONTINUOUS
10
0.586083
20
-0.18998
11
-0.186083
21
-0.18998
0
LINE
8
BLACK
6
CONTINUOUS
10
-0.186083
20
-0.18998
11
-0.188374
21
-0.189236
0
LINE
8
BLACK
6
CONTINUOUS
10
-0.188374
20
-0.189236
11
-0.18979
21
-0.187287
0
LINE
8
BLACK
6
CONTINUOUS
10
-0.18979
20
-0.187287
11
-0.18998
21
-0.186083
0
LINE
8
BLACK
6
CONTINUOUS
10
-0.18998
20
-0.186083
11
-0.18998
21
-0.0787403
0
LINE
8
BLACK
6
CONTINUOUS
10
-0.18998
20
-0.0787403
11
-0.18998
21
0.0140526
0
LINE
8
BLACK
6
CONTINUOUS
10
-0.18998
20
0.0140526
11
-0.18998
21
0.0355906
0
LINE
8
BLACK
6
CONTINUOUS
10
-0.18998
20
0.0355906
11
-0.18998
21
0.148895
0
LINE
8
BLACK
6
CONTINUOUS
10
-0.18998
20
0.148895
11
-0.18998
21
0.179291
0
LINE
8
BLACK
6
CONTINUOUS
10
-0.18998
20
0.179291
11
-0.18998
21
0.35
0
LINE
8
BLACK
6
CONTINUOUS
10
-0.18998
20
0.35
11
-0.18998
21
0.41
0
LINE
8
BLACK
6
CONTINUOUS
10
-0.18998
20
0.41
11
-0.18998
21
0.476063
0
LINE
8
BLACK
6
CONTINUOUS
10
-0.18998
20
0.476063
11
-0.18998
21
0.576063
0
LINE
8
BLACK
6
CONTINUOUS
10
-0.18998
20
0.576063
11
-0.18998
21
0.708661
0
LINE
8
BLACK
6
CONTINUOUS
10
-0.18998
20
0.708661
11
-0.18998
21
0.986083
0
LINE
8
BLACK
6
CONTINUOUS
10
-0.18998
20
0.986083
11
-0.189236
21
0.988374
0
LINE
8
BLACK
6
CONTINUOUS
10
-0.189236
20
0.988374
11
-0.187287
21
0.98979
0
LINE
8
BLACK
6
CONTINUOUS
10
-0.187287
20
0.98979
11
-0.186083
21
0.98998
0
LINE
8
BLACK
6
CONTINUOUS
10
-0.186083
20
0.98998
11
0.586083
21
0.98998
0
LINE
8
BLACK
6
CONTINUOUS
10
0.586083
20
0.98998
11
0.588374
21
0.989236
0
LINE
8
BLACK
6
CONTINUOUS
10
0.192278
20
-0.0399202
11
0.192278
21
-0.0399203
0
LINE
8
BLACK
6
CONTINUOUS
10
0.192278
20
-0.0399203
11
0.184853
21
-0.0421727
0
LINE
8
BLACK
6
CONTINUOUS
10
0.184853
20
-0.0421727
11
0.184853
21
-0.0421728
0
LINE
8
BLACK
6
CONTINUOUS
10
0.184853
20
-0.0421728
11
0.178011
21
-0.0458302
0
LINE
8
BLACK
6
CONTINUOUS
10
0.178011
20
-0.0458302
11
0.17801
21
-0.0458304
0
LINE
8
BLACK
6
CONTINUOUS
10
0.17801
20
-0.0458304
11
0.172013
21
-0.0507524
0
LINE
8
BLACK
6
CONTINUOUS
10
0.172013
20
-0.0507524
11
0.172012
21
-0.0507528
0
LINE
8
BLACK
6
CONTINUOUS
10
0.172012
20
-0.0507528
11
0.16709
21
-0.0567503
0
LINE
8
BLACK
6
CONTINUOUS
10
0.16709
20
-0.0567503
11
0.16709
21
-0.0567507
0
LINE
8
BLACK
6
CONTINUOUS
10
0.16709
20
-0.0567507
11
0.163433
21
-0.0635932
0
LINE
8
BLACK
6
CONTINUOUS
10
0.163433
20
-0.0635932
11
0.163433
21
-0.0635933
0
LINE
8
BLACK
6
CONTINUOUS
10
0.163433
20
-0.0635933
11
0.16118
21
-0.0710185
0
LINE
8
BLACK
6
CONTINUOUS
10
0.16118
20
-0.0710185
11
0.16118
21
-0.0710186
0
LINE
8
BLACK
6
CONTINUOUS
10
0.16118
20
-0.0710186
11
0.16042
21
-0.07874
0
LINE
8
BLACK
6
CONTINUOUS
10
0.16042
20
-0.07874
11
0.16042
21
-0.0787403
0
LINE
8
BLACK
6
CONTINUOUS
10
0.16042
20
-0.0787403
11
0.16118
21
-0.0864617
0
LINE
8
BLACK
6
CONTINUOUS
10
0.16118
20
-0.0864617
11
0.16118
21
-0.0864618
0
LINE
8
BLACK
6
CONTINUOUS
10
0.16118
20
-0.0864618
11
0.163433
21
-0.093887
0
LINE
8
BLACK
6
CONTINUOUS
10
0.163433
20
-0.093887
11
0.163433
21
-0.0938871
0
LINE
8
BLACK
6
CONTINUOUS
10
0.163433
20
-0.0938871
11
0.166229
21
-0.0991188
0
LINE
8
BLACK
6
CONTINUOUS
10
0.166229
20
-0.0991188
11
0.16709
21
-0.10073
0
LINE
8
BLACK
6
CONTINUOUS
10
0.16709
20
-0.10073
11
0.16709
21
-0.10073
0
LINE
8
BLACK
6
CONTINUOUS
10
0.16709
20
-0.10073
11
0.16709
21
-0.10073
0
LINE
8
BLACK
6
CONTINUOUS
10
0.16709
20
-0.10073
11
0.172012
21
-0.106727
0
LINE
8
BLACK
6
CONTINUOUS
10
0.172012
20
-0.106727
11
0.172013
21
-0.106728
0
LINE
8
BLACK
6
CONTINUOUS
10
0.172013
20
-0.106728
11
0.17801
21
-0.11165
0
LINE
8
BLACK
6
CONTINUOUS
10
0.17801
20
-0.11165
11
0.17801
21
-0.11165
0
LINE
8
BLACK
6
CONTINUOUS
10
0.17801
20
-0.11165
11
0.184853
21
-0.115308
0
LINE
8
BLACK
6
CONTINUOUS
10
0.184853
20
-0.115308
11
0.192278
21
-0.11756
0
LINE
8
BLACK
6
CONTINUOUS
10
0.192278
20
-0.11756
11
0.192278
21
-0.11756
0
LINE
8
BLACK
6
CONTINUOUS
10
0.192278
20
-0.11756
11
0.192278
21
-0.11756
0
LINE
8
BLACK
6
CONTINUOUS
10
0.192278
20
-0.11756
11
0.2
21
-0.118321
0
LINE
8
BLACK
6
CONTINUOUS
10
0.2
20
-0.118321
11
0.2
21
-0.118321
0
LINE
8
BLACK
6
CONTINUOUS
10
0.2
20
-0.118321
11
0.2
21
-0.118321
0
LINE
8
BLACK
6
CONTINUOUS
10
0.2
20
-0.118321
11
0.207721
21
-0.11756
0
LINE
8
BLACK
6
CONTINUOUS
10
0.207721
20
-0.11756
11
0.207722
21
-0.11756
0
LINE
8
BLACK
6
CONTINUOUS
10
0.207722
20
-0.11756
11
0.207722
21
-0.11756
0
LINE
8
BLACK
6
CONTINUOUS
10
0.207722
20
-0.11756
11
0.215147
21
-0.115308
0
LINE
8
BLACK
6
CONTINUOUS
10
0.215147
20
-0.115308
11
0.22199
21
-0.11165
0
LINE
8
BLACK
6
CONTINUOUS
10
0.22199
20
-0.11165
11
0.227988
21
-0.106728
0
LINE
8
BLACK
6
CONTINUOUS
10
0.227988
20
-0.106728
11
0.23291
21
-0.10073
0
LINE
8
BLACK
6
CONTINUOUS
10
0.23291
20
-0.10073
11
0.236567
21
-0.0938869
0
LINE
8
BLACK
6
CONTINUOUS
10
0.236567
20
-0.0938869
11
0.23882
21
-0.0864619
0
LINE
8
BLACK
6
CONTINUOUS
10
0.23882
20
-0.0864619
11
0.23958
21
-0.0787402
0
LINE
8
BLACK
6
CONTINUOUS
10
0.23958
20
-0.0787402
11
0.23958
21
-0.07874
0
LINE
8
BLACK
6
CONTINUOUS
10
0.23958
20
-0.07874
11
0.23882
21
-0.0710186
0
LINE
8
BLACK
6
CONTINUOUS
10
0.23882
20
-0.0710186
11
0.23882
21
-0.0710185
0
LINE
8
BLACK
6
CONTINUOUS
10
0.23882
20
-0.0710185
11
0.23882
21
-0.0710184
0
LINE
8
BLACK
6
CONTINUOUS
10
0.23882
20
-0.0710184
11
0.236567
21
-0.0635934
0
LINE
8
BLACK
6
CONTINUOUS
10
0.236567
20
-0.0635934
11
0.23291
21
-0.0567505
0
LINE
8
BLACK
6
CONTINUOUS
10
0.23291
20
-0.0567505
11
0.23291
21
-0.0567503
0
LINE
8
BLACK
6
CONTINUOUS
10
0.23291
20
-0.0567503
11
0.227988
21
-0.0507528
0
LINE
8
BLACK
6
CONTINUOUS
10
0.227988
20
-0.0507528
11
0.227987
21
-0.0507524
0
LINE
8
BLACK
6
CONTINUOUS
10
0.227987
20
-0.0507524
11
0.22199
21
-0.0458304
0
LINE
8
BLACK
6
CONTINUOUS
10
0.22199
20
-0.0458304
11
0.22199
21
-0.0458304
0
LINE
8
BLACK
6
CONTINUOUS
10
0.22199
20
-0.0458304
11
0.22199
21
-0.0458303
0
LINE
8
BLACK
6
CONTINUOUS
10
0.22199
20
-0.0458303
11
0.220379
21
-0.0449692
0
LINE
8
BLACK
6
CONTINUOUS
10
0.220379
20
-0.0449692
11
0.215147
21
-0.0421728
0
LINE
8
BLACK
6
CONTINUOUS
10
0.215147
20
-0.0421728
11
0.215147
21
-0.0421727
0
LINE
8
BLACK
6
CONTINUOUS
10
0.215147
20
-0.0421727
11
0.207722
21
-0.0399203
0
LINE
8
BLACK
6
CONTINUOUS
10
0.207722
20
-0.0399203
11
0.207721
21
-0.0399202
0
LINE
8
BLACK
6
CONTINUOUS
10
0.207721
20
-0.0399202
11
0.2
21
-0.0391598
0
LINE
8
BLACK
6
CONTINUOUS
10
0.2
20
-0.0391598
11
0.2
21
-0.0391598
0
LINE
8
BLACK
6
CONTINUOUS
10
0.2
20
-0.0391598
11
0.192278
21
-0.0399202
0
LINE
8
BLACK
6
CONTINUOUS
10
0.160433
20
0.0155905
11
0.160433
21
0.0140526
0
LINE
8
BLACK
6
CONTINUOUS
10
0.160433
20
0.0140526
11
0.160851
21
0.0105731
0
LINE
8
BLACK
6
CONTINUOUS
10
0.160851
20
0.0105731
11
0.163035
21
0.00503563
0
LINE
8
BLACK
6
CONTINUOUS
10
0.163035
20
0.00503563
11
0.166631
21
0.000292756
0
LINE
8
BLACK
6
CONTINUOUS
10
0.166631
20
0.000292756
11
0.171374
21
-0.0033039
0
LINE
8
BLACK
6
CONTINUOUS
10
0.171374
20
-0.0033039
11
0.176912
21
-0.00548764
0
LINE
8
BLACK
6
CONTINUOUS
10
0.176912
20
-0.00548764
11
0.180391
21
-0.00590547
0
LINE
8
BLACK
6
CONTINUOUS
10
0.180391
20
-0.00590547
11
0.180391
21
-0.00590551
0
LINE
8
BLACK
6
CONTINUOUS
10
0.180391
20
-0.00590551
11
0.190787
21
-0.00590551
0
LINE
8
BLACK
6
CONTINUOUS
10
0.190787
20
-0.00590551
11
0.190787
21
-0.00590547
0
LINE
8
BLACK
6
CONTINUOUS
10
0.190787
20
-0.00590547
11
0.190787
21
0.00590551
0
LINE
8
BLACK
6
CONTINUOUS
10
0.190787
20
0.00590551
11
0.182087
21
0.00590551
0
LINE
8
BLACK
6
CONTINUOUS
10
0.182087
20
0.00590551
11
0.17832
21
0.00665472
0
LINE
8
BLACK
6
CONTINUOUS
10
0.17832
20
0.00665472
11
0.175127
21
0.00878831
0
LINE
8
BLACK
6
CONTINUOUS
10
0.175127
20
0.00878831
11
0.172993
21
0.0119815
0
LINE
8
BLACK
6
CONTINUOUS
10
0.172993
20
0.0119815
11
0.172275
21
0.0155906
0
LINE
8
BLACK
6
CONTINUOUS
10
0.172275
20
0.0155906
11
0.160433
21
0.0155906
0
LINE
8
BLACK
6
CONTINUOUS
10
0.160433
20
0.0155906
11
0.160433
21
0.0155905
0
LINE
8
BLACK
6
CONTINUOUS
10
0.210787
20
0.0452756
11
0.219488
21
0.0452756
0
LINE
8
BLACK
6
CONTINUOUS
10
0.219488
20
0.0452756
11
0.223255
21
0.0445264
0
LINE
8
BLACK
6
CONTINUOUS
10
0.223255
20
0.0445264
11
0.226448
21
0.0423928
0
LINE
8
BLACK
6
CONTINUOUS
10
0.226448
20
0.0423928
11
0.228581
21
0.0391996
0
LINE
8
BLACK
6
CONTINUOUS
10
0.228581
20
0.0391996
11
0.229299
21
0.0355906
0
LINE
8
BLACK
6
CONTINUOUS
10
0.229299
20
0.0355906
11
0.241142
21
0.0355906
0
LINE
8
BLACK
6
CONTINUOUS
10
0.241142
20
0.0355906
11
0.241142
21
0.0355906
0
LINE
8
BLACK
6
CONTINUOUS
10
0.241142
20
0.0355906
11
0.241142
21
0.0371283
0
LINE
8
BLACK
6
CONTINUOUS
10
0.241142
20
0.0371283
11
0.241142
21
0.0371285
0
LINE
8
BLACK
6
CONTINUOUS
10
0.241142
20
0.0371285
11
0.240724
21
0.040608
0
LINE
8
BLACK
6
CONTINUOUS
10
0.240724
20
0.040608
11
0.23854
21
0.0461455
0
LINE
8
BLACK
6
CONTINUOUS
10
0.23854
20
0.0461455
11
0.234943
21
0.0508884
0
LINE
8
BLACK
6
CONTINUOUS
10
0.234943
20
0.0508884
11
0.230201
21
0.054485
0
LINE
8
BLACK
6
CONTINUOUS
10
0.230201
20
0.054485
11
0.224663
21
0.0566688
0
LINE
8
BLACK
6
CONTINUOUS
10
0.224663
20
0.0566688
11
0.221184
21
0.0570866
0
LINE
8
BLACK
6
CONTINUOUS
10
0.221184
20
0.0570866
11
0.210787
21
0.0570866
0
LINE
8
BLACK
6
CONTINUOUS
10
0.210787
20
0.0570866
11
0.210787
21
0.0452756
0
LINE
8
BLACK
6
CONTINUOUS
10
0.176912
20
0.0566688
11
0.171374
21
0.054485
0
LINE
8
BLACK
6
CONTINUOUS
10
0.171374
20
0.054485
11
0.166631
21
0.0508884
0
LINE
8
BLACK
6
CONTINUOUS
10
0.166631
20
0.0508884
11
0.163035
21
0.0461455
0
LINE
8
BLACK
6
CONTINUOUS
10
0.163035
20
0.0461455
11
0.160851
21
0.040608
0
LINE
8
BLACK
6
CONTINUOUS
10
0.160851
20
0.040608
11
0.160433
21
0.0371285
0
LINE
8
BLACK
6
CONTINUOUS
10
0.160433
20
0.0371285
11
0.160433
21
0.0355906
0
LINE
8
BLACK
6
CONTINUOUS
10
0.160433
20
0.0355906
11
0.160433
21
0.0355906
0
LINE
8
BLACK
6
CONTINUOUS
10
0.160433
20
0.0355906
11
0.172275
21
0.0355906
0
LINE
8
BLACK
6
CONTINUOUS
10
0.172275
20
0.0355906
11
0.172993
21
0.0391996
0
LINE
8
BLACK
6
CONTINUOUS
10
0.172993
20
0.0391996
11
0.175127
21
0.0423928
0
LINE
8
BLACK
6
CONTINUOUS
10
0.175127
20
0.0423928
11
0.17832
21
0.0445264
0
LINE
8
BLACK
6
CONTINUOUS
10
0.17832
20
0.0445264
11
0.182087
21
0.0452756
0
LINE
8
BLACK
6
CONTINUOUS
10
0.182087
20
0.0452756
11
0.190787
21
0.0452756
0
LINE
8
BLACK
6
CONTINUOUS
10
0.190787
20
0.0452756
11
0.190787
21
0.0570866
0
LINE
8
BLACK
6
CONTINUOUS
10
0.190787
20
0.0570866
11
0.180391
21
0.0570866
0
LINE
8
BLACK
6
CONTINUOUS
10
0.180391
20
0.0570866
11
0.176912
21
0.0566688
0
LINE
8
BLACK
6
CONTINUOUS
10
-0.176974
20
0.343351
11
-0.174599
21
0.337089
0
LINE
8
BLACK
6
CONTINUOUS
10
-0.174599
20
0.337089
11
-0.170795
21
0.331578
0
LINE
8
BLACK
6
CONTINUOUS
10
-0.170795
20
0.331578
11
-0.170795
21
0.331578
0
LINE
8
BLACK
6
CONTINUOUS
10
-0.170795
20
0.331578
11
-0.169469
21
0.330403
0
LINE
8
BLACK
6
CONTINUOUS
10
-0.169469
20
0.330403
11
-0.165782
21
0.327136
0
LINE
8
BLACK
6
CONTINUOUS
10
-0.165782
20
0.327136
11
-0.159851
21
0.324024
0
LINE
8
BLACK
6
CONTINUOUS
10
-0.159851
20
0.324024
11
-0.157456
21
0.323434
0
LINE
8
BLACK
6
CONTINUOUS
10
-0.157456
20
0.323434
11
-0.155317
21
0.322906
0
LINE
8
BLACK
6
CONTINUOUS
10
-0.155317
20
0.322906
11
-0.153271
21
0.321636
0
LINE
8
BLACK
6
CONTINUOUS
10
-0.153271
20
0.321636
11
-0.152363
21
0.319404
0
LINE
8
BLACK
6
CONTINUOUS
10
-0.152363
20
0.319404
11
-0.152685
21
0.317548
0
LINE
8
BLACK
6
CONTINUOUS
10
-0.152685
20
0.317548
11
-0.153566
21
0.315551
0
LINE
8
BLACK
6
CONTINUOUS
10
-0.153566
20
0.315551
11
-0.153566
21
0.315551
0
LINE
8
BLACK
6
CONTINUOUS
10
-0.153566
20
0.315551
11
-0.153681
21
0.314562
0
LINE
8
BLACK
6
CONTINUOUS
10
-0.153681
20
0.314562
11
-0.153681
21
0.285439
0
LINE
8
BLACK
6
CONTINUOUS
10
-0.153681
20
0.285439
11
-0.153681
21
0.285438
0
LINE
8
BLACK
6
CONTINUOUS
10
-0.153681
20
0.285438
11
-0.153566
21
0.284449
0
LINE
8
BLACK
6
CONTINUOUS
10
-0.153566
20
0.284449
11
-0.152476
21
0.281981
0
LINE
8
BLACK
6
CONTINUOUS
10
-0.152476
20
0.281981
11
-0.15178
21
0.280403
0
LINE
8
BLACK
6
CONTINUOUS
10
-0.15178
20
0.280403
11
-0.149133
21
0.277756
0
LINE
8
BLACK
6
CONTINUOUS
10
-0.149133
20
0.277756
11
-0.148039
21
0.27561
0
LINE
8
BLACK
6
CONTINUOUS
10
-0.148039
20
0.27561
11
-0.148416
21
0.273231
0
LINE
8
BLACK
6
CONTINUOUS
10
-0.148416
20
0.273231
11
-0.149133
21
0.272244
0
LINE
8
BLACK
6
CONTINUOUS
10
-0.149133
20
0.272244
11
-0.15178
21
0.269597
0
LINE
8
BLACK
6
CONTINUOUS
10
-0.15178
20
0.269597
11
-0.15178
21
0.269597
0
LINE
8
BLACK
6
CONTINUOUS
10
-0.15178
20
0.269597
11
-0.15178
21
0.269597
0
LINE
8
BLACK
6
CONTINUOUS
10
-0.15178
20
0.269597
11
-0.152673
21
0.267574
0
LINE
8
BLACK
6
CONTINUOUS
10
-0.152673
20
0.267574
11
-0.153566
21
0.265551
0
LINE
8
BLACK
6
CONTINUOUS
10
-0.153566
20
0.265551
11
-0.153681
21
0.264562
0
LINE
8
BLACK
6
CONTINUOUS
10
-0.153681
20
0.264562
11
-0.153681
21
0.235439
0
LINE
8
BLACK
6
CONTINUOUS
10
-0.153681
20
0.235439
11
-0.153681
21
0.235438
0
LINE
8
BLACK
6
CONTINUOUS
10
-0.153681
20
0.235438
11
-0.153566
21
0.234449
0
LINE
8
BLACK
6
CONTINUOUS
10
-0.153566
20
0.234449
11
-0.153046
21
0.23327
0
LINE
8
BLACK
6
CONTINUOUS
10
-0.153046
20
0.23327
11
-0.15178
21
0.230403
0
LINE
8
BLACK
6
CONTINUOUS
10
-0.15178
20
0.230403
11
-0.148652
21
0.227275
0
LINE
8
BLACK
6
CONTINUOUS
10
-0.148652
20
0.227275
11
-0.144606
21
0.225489
0
LINE
8
BLACK
6
CONTINUOUS
10
-0.144606
20
0.225489
11
-0.143617
21
0.225374
0
LINE
8
BLACK
6
CONTINUOUS
10
-0.143617
20
0.225374
11
-0.0751235
21
0.225374
0
LINE
8
BLACK
6
CONTINUOUS
10
-0.0751235
20
0.225374
11
-0.0741342
21
0.225489
0
LINE
8
BLACK
6
CONTINUOUS
10
-0.0741342
20
0.225489
11
-0.070088
21
0.227275
0
LINE
8
BLACK
6
CONTINUOUS
10
-0.070088
20
0.227275
11
-0.0669604
21
0.230403
0
LINE
8
BLACK
6
CONTINUOUS
10
-0.0669604
20
0.230403
11
-0.0651738
21
0.234449
0
LINE
8
BLACK
6
CONTINUOUS
10
-0.0651738
20
0.234449
11
-0.0651738
21
0.234449
0
LINE
8
BLACK
6
CONTINUOUS
10
-0.0651738
20
0.234449
11
-0.0650554
21
0.234717
0
LINE
8
BLACK
6
CONTINUOUS
10
-0.0650554
20
0.234717
11
-0.0649653
21
0.234678
0
LINE
8
BLACK
6
CONTINUOUS
10
-0.0649653
20
0.234678
11
-0.063896
21
0.23631
0
LINE
8
BLACK
6
CONTINUOUS
10
-0.063896
20
0.23631
11
-0.0616437
21
0.237165
0
LINE
8
BLACK
6
CONTINUOUS
10
-0.0616437
20
0.237165
11
-0.0614549
21
0.237169
0
LINE
8
BLACK
6
CONTINUOUS
10
-0.0614549
20
0.237169
11
0.0703497
21
0.237169
0
LINE
8
BLACK
6
CONTINUOUS
10
0.0703497
20
0.237169
11
0.070568
21
0.237157
0
LINE
8
BLACK
6
CONTINUOUS
10
0.070568
20
0.237157
11
0.0721348
21
0.236981
0
LINE
8
BLACK
6
CONTINUOUS
10
0.0721348
20
0.236981
11
0.0744473
21
0.237418
0
LINE
8
BLACK
6
CONTINUOUS
10
0.0744473
20
0.237418
11
0.0767757
21
0.237769
0
LINE
8
BLACK
6
CONTINUOUS
10
0.0767757
20
0.237769
11
0.0767759
21
0.237769
0
LINE
8
BLACK
6
CONTINUOUS
10
0.0767759
20
0.237769
11
0.0770551
21
0.237855
0
LINE
8
BLACK
6
CONTINUOUS
10
0.0770551
20
0.237855
11
0.0770602
21
0.237839
0
LINE
8
BLACK
6
CONTINUOUS
10
0.0770602
20
0.237839
11
0.0771462
21
0.237867
0
LINE
8
BLACK
6
CONTINUOUS
10
0.0771462
20
0.237867
11
0.0771405
21
0.237883
0
LINE
8
BLACK
6
CONTINUOUS
10
0.0771405
20
0.237883
11
0.077416
21
0.23798
0
LINE
8
BLACK
6
CONTINUOUS
10
0.077416
20
0.23798
11
0.0774163
21
0.23798
0
LINE
8
BLACK
6
CONTINUOUS
10
0.0774163
20
0.23798
11
0.0784567
21
0.23853
0
LINE
8
BLACK
6
CONTINUOUS
10
0.0784567
20
0.23853
11
0.0794972
21
0.23908
0
LINE
8
BLACK
6
CONTINUOUS
10
0.0794972
20
0.23908
11
0.0816183
21
0.240101
0
LINE
8
BLACK
6
CONTINUOUS
10
0.0816183
20
0.240101
11
0.0816183
21
0.240101
0
LINE
8
BLACK
6
CONTINUOUS
10
0.0816183
20
0.240101
11
0.0816185
21
0.240101
0
LINE
8
BLACK
6
CONTINUOUS
10
0.0816185
20
0.240101
11
0.0816187
21
0.240101
0
LINE
8
BLACK
6
CONTINUOUS
10
0.0816187
20
0.240101
11
0.0818598
21
0.240266
0
LINE
8
BLACK
6
CONTINUOUS
10
0.0818598
20
0.240266
11
0.0818695
21
0.240251
0
LINE
8
BLACK
6
CONTINUOUS
10
0.0818695
20
0.240251
11
0.0819435
21
0.240304
0
LINE
8
BLACK
6
CONTINUOUS
10
0.0819435
20
0.240304
11
0.0819333
21
0.240318
0
LINE
8
BLACK
6
CONTINUOUS
10
0.0819333
20
0.240318
11
0.0821683
21
0.240491
0
LINE
8
BLACK
6
CONTINUOUS
10
0.0821683
20
0.240491
11
0.0821683
21
0.240491
0
LINE
8
BLACK
6
CONTINUOUS
10
0.0821683
20
0.240491
11
0.0821685
21
0.240491
0
LINE
8
BLACK
6
CONTINUOUS
10
0.0821685
20
0.240491
11
0.0830007
21
0.241324
0
LINE
8
BLACK
6
CONTINUOUS
10
0.0830007
20
0.241324
11
0.0838331
21
0.242156
0
LINE
8
BLACK
6
CONTINUOUS
10
0.0838331
20
0.242156
11
0.0855586
21
0.243757
0
LINE
8
BLACK
6
CONTINUOUS
10
0.0855586
20
0.243757
11
0.0857407
21
0.243985
0
LINE
8
BLACK
6
CONTINUOUS
10
0.0857407
20
0.243985
11
0.0857542
21
0.243975
0
LINE
8
BLACK
6
CONTINUOUS
10
0.0857542
20
0.243975
11
0.0860915
21
0.244414
0
LINE
8
BLACK
6
CONTINUOUS
10
0.0860915
20
0.244414
11
0.0925591
21
0.250882
0
LINE
8
BLACK
6
CONTINUOUS
10
0.0925591
20
0.250882
11
0.0947055
21
0.251976
0
LINE
8
BLACK
6
CONTINUOUS
10
0.0947055
20
0.251976
11
0.0953152
21
0.252024
0
LINE
8
BLACK
6
CONTINUOUS
10
0.0953152
20
0.252024
11
0.0994115
21
0.252024
0
LINE
8
BLACK
6
CONTINUOUS
10
0.0994115
20
0.252024
11
0.0994117
21
0.252024
0
LINE
8
BLACK
6
CONTINUOUS
10
0.0994117
20
0.252024
11
0.105914
21
0.253626
0
LINE
8
BLACK
6
CONTINUOUS
10
0.105914
20
0.253626
11
0.111845
21
0.256739
0
LINE
8
BLACK
6
CONTINUOUS
10
0.111845
20
0.256739
11
0.116858
21
0.26118
0
LINE
8
BLACK
6
CONTINUOUS
10
0.116858
20
0.26118
11
0.120662
21
0.266692
0
LINE
8
BLACK
6
CONTINUOUS
10
0.120662
20
0.266692
11
0.123037
21
0.272954
0
LINE
8
BLACK
6
CONTINUOUS
10
0.123037
20
0.272954
11
0.123844
21
0.279602
0
LINE
8
BLACK
6
CONTINUOUS
10
0.123844
20
0.279602
11
0.123747
21
0.280403
0
LINE
8
BLACK
6
CONTINUOUS
10
0.123747
20
0.280403
11
0.123502
21
0.282418
0
LINE
8
BLACK
6
CONTINUOUS
10
0.123502
20
0.282418
11
0.123037
21
0.286251
0
LINE
8
BLACK
6
CONTINUOUS
10
0.123037
20
0.286251
11
0.120662
21
0.292513
0
LINE
8
BLACK
6
CONTINUOUS
10
0.120662
20
0.292513
11
0.116858
21
0.298025
0
LINE
8
BLACK
6
CONTINUOUS
10
0.116858
20
0.298025
11
0.111845
21
0.302466
0
LINE
8
BLACK
6
CONTINUOUS
10
0.111845
20
0.302466
11
0.105914
21
0.305578
0
LINE
8
BLACK
6
CONTINUOUS
10
0.105914
20
0.305578
11
0.105914
21
0.305578
0
LINE
8
BLACK
6
CONTINUOUS
10
0.105914
20
0.305578
11
0.105914
21
0.305578
0
LINE
8
BLACK
6
CONTINUOUS
10
0.105914
20
0.305578
11
0.0994117
21
0.307181
0
LINE
8
BLACK
6
CONTINUOUS
10
0.0994117
20
0.307181
11
0.0994117
21
0.307181
0
LINE
8
BLACK
6
CONTINUOUS
10
0.0994117
20
0.307181
11
0.0927143
21
0.307181
0
LINE
8
BLACK
6
CONTINUOUS
10
0.0927143
20
0.307181
11
0.0927142
21
0.307181
0
LINE
8
BLACK
6
CONTINUOUS
10
0.0927142
20
0.307181
11
0.0862117
21
0.305578
0
LINE
8
BLACK
6
CONTINUOUS
10
0.0862117
20
0.305578
11
0.0802813
21
0.302466
0
LINE
8
BLACK
6
CONTINUOUS
10
0.0802813
20
0.302466
11
0.0752684
21
0.298025
0
LINE
8
BLACK
6
CONTINUOUS
10
0.0752684
20
0.298025
11
0.0752683
21
0.298025
0
LINE
8
BLACK
6
CONTINUOUS
10
0.0752683
20
0.298025
11
0.0723196
21
0.293753
0
LINE
8
BLACK
6
CONTINUOUS
10
0.0723196
20
0.293753
11
0.0714639
21
0.292513
0
LINE
8
BLACK
6
CONTINUOUS
10
0.0714639
20
0.292513
11
0.0691021
21
0.286285
0
LINE
8
BLACK
6
CONTINUOUS
10
0.0691021
20
0.286285
11
0.069089
21
0.286251
0
LINE
8
BLACK
6
CONTINUOUS
10
0.069089
20
0.286251
11
0.0682817
21
0.279602
0
LINE
8
BLACK
6
CONTINUOUS
10
0.0682817
20
0.279602
11
0.0683307
21
0.279199
0
LINE
8
BLACK
6
CONTINUOUS
10
0.0683307
20
0.279199
11
0.0678678
21
0.276835
0
LINE
8
BLACK
6
CONTINUOUS
10
0.0678678
20
0.276835
11
0.0672175
21
0.275973
0
LINE
8
BLACK
6
CONTINUOUS
10
0.0672175
20
0.275973
11
0.0652165
21
0.273972
0
LINE
8
BLACK
6
CONTINUOUS
10
0.0652165
20
0.273972
11
0.0630702
21
0.272879
0
LINE
8
BLACK
6
CONTINUOUS
10
0.0630702
20
0.272879
11
0.0624604
21
0.272831
0
LINE
8
BLACK
6
CONTINUOUS
10
0.0624604
20
0.272831
11
-0.0651229
21
0.272831
0
LINE
8
BLACK
6
CONTINUOUS
10
-0.0651229
20
0.272831
11
-0.0674139
21
0.273575
0
LINE
8
BLACK
6
CONTINUOUS
10
-0.0674139
20
0.273575
11
-0.0688298
21
0.275524
0
LINE
8
BLACK
6
CONTINUOUS
10
-0.0688298
20
0.275524
11
-0.0688298
21
0.277933
0
LINE
8
BLACK
6
CONTINUOUS
10
-0.0688298
20
0.277933
11
-0.0678791
21
0.279484
0
LINE
8
BLACK
6
CONTINUOUS
10
-0.0678791
20
0.279484
11
-0.0669604
21
0.280403
0
LINE
8
BLACK
6
CONTINUOUS
10
-0.0669604
20
0.280403
11
-0.0669604
21
0.280403
0
LINE
8
BLACK
6
CONTINUOUS
10
-0.0669604
20
0.280403
11
-0.0669115
21
0.280474
0
LINE
8
BLACK
6
CONTINUOUS
10
-0.0669115
20
0.280474
11
-0.0668139
21
0.28055
0
LINE
8
BLACK
6
CONTINUOUS
10
-0.0668139
20
0.28055
11
-0.066705
21
0.280658
0
LINE
8
BLACK
6
CONTINUOUS
10
-0.066705
20
0.280658
11
-0.0666909
21
0.280644
0
LINE
8
BLACK
6
CONTINUOUS
10
-0.0666909
20
0.280644
11
-0.0650026
21
0.281944
0
LINE
8
BLACK
6
CONTINUOUS
10
-0.0650026
20
0.281944
11
-0.0636959
21
0.282169
0
LINE
8
BLACK
6
CONTINUOUS
10
-0.0636959
20
0.282169
11
-0.0211109
21
0.282169
0
LINE
8
BLACK
6
CONTINUOUS
10
-0.0211109
20
0.282169
11
-0.0208926
21
0.282157
0
LINE
8
BLACK
6
CONTINUOUS
10
-0.0208926
20
0.282157
11
-0.0193258
21
0.281981
0
LINE
8
BLACK
6
CONTINUOUS
10
-0.0193258
20
0.281981
11
-0.0170133
21
0.282418
0
LINE
8
BLACK
6
CONTINUOUS
10
-0.0170133
20
0.282418
11
-0.0146849
21
0.282769
0
LINE
8
BLACK
6
CONTINUOUS
10
-0.0146849
20
0.282769
11
-0.0146848
21
0.282769
0
LINE
8
BLACK
6
CONTINUOUS
10
-0.0146848
20
0.282769
11
-0.0144056
21
0.282855
0
LINE
8
BLACK
6
CONTINUOUS
10
-0.0144056
20
0.282855
11
-0.0144005
21
0.282839
0
LINE
8
BLACK
6
CONTINUOUS
10
-0.0144005
20
0.282839
11
-0.0143144
21
0.282867
0
LINE
8
BLACK
6
CONTINUOUS
10
-0.0143144
20
0.282867
11
-0.0143202
21
0.282883
0
LINE
8
BLACK
6
CONTINUOUS
10
-0.0143202
20
0.282883
11
-0.0140446
21
0.28298
0
LINE
8
BLACK
6
CONTINUOUS
10
-0.0140446
20
0.28298
11
-0.0140444
21
0.28298
0
LINE
8
BLACK
6
CONTINUOUS
10
-0.0140444
20
0.28298
11
-0.0130039
21
0.28353
0
LINE
8
BLACK
6
CONTINUOUS
10
-0.0130039
20
0.28353
11
-0.0119634
21
0.28408
0
LINE
8
BLACK
6
CONTINUOUS
10
-0.0119634
20
0.28408
11
-0.00984236
21
0.285101
0
LINE
8
BLACK
6
CONTINUOUS
10
-0.00984236
20
0.285101
11
-0.00984236
21
0.285101
0
LINE
8
BLACK
6
CONTINUOUS
10
-0.00984236
20
0.285101
11
-0.00984213
21
0.285101
0
LINE
8
BLACK
6
CONTINUOUS
10
-0.00984213
20
0.285101
11
-0.00984197
21
0.285101
0
LINE
8
BLACK
6
CONTINUOUS
10
-0.00984197
20
0.285101
11
-0.00960087
21
0.285266
0
LINE
8
BLACK
6
CONTINUOUS
10
-0.00960087
20
0.285266
11
-0.00959114
21
0.285251
0
LINE
8
BLACK
6
CONTINUOUS
10
-0.00959114
20
0.285251
11
-0.00951709
21
0.285304
0
LINE
8
BLACK
6
CONTINUOUS
10
-0.00951709
20
0.285304
11
-0.00952732
21
0.285318
0
LINE
8
BLACK
6
CONTINUOUS
10
-0.00952732
20
0.285318
11
-0.00929228
21
0.285491
0
LINE
8
BLACK
6
CONTINUOUS
10
-0.00929228
20
0.285491
11
-0.00929228
21
0.285491
0
LINE
8
BLACK
6
CONTINUOUS
10
-0.00929228
20
0.285491
11
-0.00929217
21
0.285491
0
LINE
8
BLACK
6
CONTINUOUS
10
-0.00929217
20
0.285491
11
-0.00845988
21
0.286324
0
LINE
8
BLACK
6
CONTINUOUS
10
-0.00845988
20
0.286324
11
-0.00762748
21
0.287156
0
LINE
8
BLACK
6
CONTINUOUS
10
-0.00762748
20
0.287156
11
-0.00700764
21
0.287731
0
LINE
8
BLACK
6
CONTINUOUS
10
-0.00700764
20
0.287731
11
-0.00590193
21
0.288757
0
LINE
8
BLACK
6
CONTINUOUS
10
-0.00590193
20
0.288757
11
-0.00590173
21
0.288758
0
LINE
8
BLACK
6
CONTINUOUS
10
-0.00590173
20
0.288758
11
-0.00571976
21
0.288986
0
LINE
8
BLACK
6
CONTINUOUS
10
-0.00571976
20
0.288986
11
-0.00570634
21
0.288975
0
LINE
8
BLACK
6
CONTINUOUS
10
-0.00570634
20
0.288975
11
-0.00536929
21
0.289414
0
LINE
8
BLACK
6
CONTINUOUS
10
-0.00536929
20
0.289414
11
0.236244
21
0.531028
0
LINE
8
BLACK
6
CONTINUOUS
10
0.236244
20
0.531028
11
0.23839
21
0.532121
0
LINE
8
BLACK
6
CONTINUOUS
10
0.23839
20
0.532121
11
0.239
21
0.532169
0
LINE
8
BLACK
6
CONTINUOUS
10
0.239
20
0.532169
11
0.270807
21
0.532169
0
LINE
8
BLACK
6
CONTINUOUS
10
0.270807
20
0.532169
11
0.273098
21
0.531425
0
LINE
8
BLACK
6
CONTINUOUS
10
0.273098
20
0.531425
11
0.274514
21
0.529476
0
LINE
8
BLACK
6
CONTINUOUS
10
0.274514
20
0.529476
11
0.274705
21
0.528272
0
LINE
8
BLACK
6
CONTINUOUS
10
0.274705
20
0.528272
11
0.274705
21
0.514769
0
LINE
8
BLACK
6
CONTINUOUS
10
0.274705
20
0.514769
11
0.274819
21
0.51378
0
LINE
8
BLACK
6
CONTINUOUS
10
0.274819
20
0.51378
11
0.275657
21
0.511883
0
LINE
8
BLACK
6
CONTINUOUS
10
0.275657
20
0.511883
11
0.276606
21
0.509734
0
LINE
8
BLACK
6
CONTINUOUS
10
0.276606
20
0.509734
11
0.277329
21
0.509011
0
LINE
8
BLACK
6
CONTINUOUS
10
0.277329
20
0.509011
11
0.277806
21
0.508534
0
LINE
8
BLACK
6
CONTINUOUS
10
0.277806
20
0.508534
11
0.278899
21
0.506388
0
LINE
8
BLACK
6
CONTINUOUS
10
0.278899
20
0.506388
11
0.278522
21
0.504009
0
LINE
8
BLACK
6
CONTINUOUS
10
0.278522
20
0.504009
11
0.277806
21
0.503022
0
LINE
8
BLACK
6
CONTINUOUS
10
0.277806
20
0.503022
11
0.200551
21
0.425768
0
LINE
8
BLACK
6
CONTINUOUS
10
0.200551
20
0.425768
11
0.198405
21
0.424674
0
LINE
8
BLACK
6
CONTINUOUS
10
0.198405
20
0.424674
11
0.197795
21
0.424626
0
LINE
8
BLACK
6
CONTINUOUS
10
0.197795
20
0.424626
11
0.145754
21
0.424626
0
LINE
8
BLACK
6
CONTINUOUS
10
0.145754
20
0.424626
11
0.145753
21
0.424626
0
LINE
8
BLACK
6
CONTINUOUS
10
0.145753
20
0.424626
11
0.144764
21
0.424511
0
LINE
8
BLACK
6
CONTINUOUS
10
0.144764
20
0.424511
11
0.140718
21
0.422725
0
LINE
8
BLACK
6
CONTINUOUS
10
0.140718
20
0.422725
11
0.13759
21
0.419597
0
LINE
8
BLACK
6
CONTINUOUS
10
0.13759
20
0.419597
11
0.135804
21
0.415551
0
LINE
8
BLACK
6
CONTINUOUS
10
0.135804
20
0.415551
11
0.135689
21
0.414562
0
LINE
8
BLACK
6
CONTINUOUS
10
0.135689
20
0.414562
11
0.135689
21
0.385439
0
LINE
8
BLACK
6
CONTINUOUS
10
0.135689
20
0.385439
11
0.135689
21
0.385438
0
LINE
8
BLACK
6
CONTINUOUS
10
0.135689
20
0.385438
11
0.135804
21
0.384449
0
LINE
8
BLACK
6
CONTINUOUS
10
0.135804
20
0.384449
11
0.13659
21
0.382668
0
LINE
8
BLACK
6
CONTINUOUS
10
0.13659
20
0.382668
11
0.13759
21
0.380403
0
LINE
8
BLACK
6
CONTINUOUS
10
0.13759
20
0.380403
11
0.140237
21
0.377756
0
LINE
8
BLACK
6
CONTINUOUS
10
0.140237
20
0.377756
11
0.141331
21
0.37561
0
LINE
8
BLACK
6
CONTINUOUS
10
0.141331
20
0.37561
11
0.140954
21
0.373231
0
LINE
8
BLACK
6
CONTINUOUS
10
0.140954
20
0.373231
11
0.140237
21
0.372244
0
LINE
8
BLACK
6
CONTINUOUS
10
0.140237
20
0.372244
11
0.13865
21
0.370657
0
LINE
8
BLACK
6
CONTINUOUS
10
0.13865
20
0.370657
11
0.13759
21
0.369597
0
LINE
8
BLACK
6
CONTINUOUS
10
0.13759
20
0.369597
11
0.135804
21
0.365551
0
LINE
8
BLACK
6
CONTINUOUS
10
0.135804
20
0.365551
11
0.135689
21
0.364562
0
LINE
8
BLACK
6
CONTINUOUS
10
0.135689
20
0.364562
11
0.135689
21
0.335439
0
LINE
8
BLACK
6
CONTINUOUS
10
0.135689
20
0.335439
11
0.135689
21
0.335438
0
LINE
8
BLACK
6
CONTINUOUS
10
0.135689
20
0.335438
11
0.135804
21
0.334449
0
LINE
8
BLACK
6
CONTINUOUS
10
0.135804
20
0.334449
11
0.13648
21
0.332917
0
LINE
8
BLACK
6
CONTINUOUS
10
0.13648
20
0.332917
11
0.13759
21
0.330403
0
LINE
8
BLACK
6
CONTINUOUS
10
0.13759
20
0.330403
11
0.140237
21
0.327756
0
LINE
8
BLACK
6
CONTINUOUS
10
0.140237
20
0.327756
11
0.141331
21
0.32561
0
LINE
8
BLACK
6
CONTINUOUS
10
0.141331
20
0.32561
11
0.140954
21
0.323231
0
LINE
8
BLACK
6
CONTINUOUS
10
0.140954
20
0.323231
11
0.140237
21
0.322244
0
LINE
8
BLACK
6
CONTINUOUS
10
0.140237
20
0.322244
11
0.13759
21
0.319597
0
LINE
8
BLACK
6
CONTINUOUS
10
0.13759
20
0.319597
11
0.13759
21
0.319597
0
LINE
8
BLACK
6
CONTINUOUS
10
0.13759
20
0.319597
11
0.135804
21
0.315551
0
LINE
8
BLACK
6
CONTINUOUS
10
0.135804
20
0.315551
11
0.135689
21
0.314562
0
LINE
8
BLACK
6
CONTINUOUS
10
0.135689
20
0.314562
11
0.135689
21
0.285439
0
LINE
8
BLACK
6
CONTINUOUS
10
0.135689
20
0.285439
11
0.135689
21
0.285438
0
LINE
8
BLACK
6
CONTINUOUS
10
0.135689
20
0.285438
11
0.135804
21
0.284449
0
LINE
8
BLACK
6
CONTINUOUS
10
0.135804
20
0.284449
11
0.136894
21
0.281981
0
LINE
8
BLACK
6
CONTINUOUS
10
0.136894
20
0.281981
11
0.13759
21
0.280403
0
LINE
8
BLACK
6
CONTINUOUS
10
0.13759
20
0.280403
11
0.140237
21
0.277756
0
LINE
8
BLACK
6
CONTINUOUS
10
0.140237
20
0.277756
11
0.141331
21
0.27561
0
LINE
8
BLACK
6
CONTINUOUS
10
0.141331
20
0.27561
11
0.140954
21
0.273231
0
LINE
8
BLACK
6
CONTINUOUS
10
0.140954
20
0.273231
11
0.140237
21
0.272244
0
LINE
8
BLACK
6
CONTINUOUS
10
0.140237
20
0.272244
11
0.13759
21
0.269597
0
LINE
8
BLACK
6
CONTINUOUS
10
0.13759
20
0.269597
11
0.13759
21
0.269597
0
LINE
8
BLACK
6
CONTINUOUS
10
0.13759
20
0.269597
11
0.13759
21
0.269597
0
LINE
8
BLACK
6
CONTINUOUS
10
0.13759
20
0.269597
11
0.136697
21
0.267574
0
LINE
8
BLACK
6
CONTINUOUS
10
0.136697
20
0.267574
11
0.135804
21
0.265551
0
LINE
8
BLACK
6
CONTINUOUS
10
0.135804
20
0.265551
11
0.135689
21
0.264562
0
LINE
8
BLACK
6
CONTINUOUS
10
0.135689
20
0.264562
11
0.135689
21
0.235439
0
LINE
8
BLACK
6
CONTINUOUS
10
0.135689
20
0.235439
11
0.135689
21
0.235438
0
LINE
8
BLACK
6
CONTINUOUS
10
0.135689
20
0.235438
11
0.135804
21
0.234449
0
LINE
8
BLACK
6
CONTINUOUS
10
0.135804
20
0.234449
11
0.136325
21
0.23327
0
LINE
8
BLACK
6
CONTINUOUS
10
0.136325
20
0.23327
11
0.13759
21
0.230403
0
LINE
8
BLACK
6
CONTINUOUS
10
0.13759
20
0.230403
11
0.140718
21
0.227275
0
LINE
8
BLACK
6
CONTINUOUS
10
0.140718
20
0.227275
11
0.144764
21
0.225489
0
LINE
8
BLACK
6
CONTINUOUS
10
0.144764
20
0.225489
11
0.145753
21
0.225374
0
LINE
8
BLACK
6
CONTINUOUS
10
0.145753
20
0.225374
11
0.158366
21
0.225374
0
LINE
8
BLACK
6
CONTINUOUS
10
0.158366
20
0.225374
11
0.160657
21
0.22463
0
LINE
8
BLACK
6
CONTINUOUS
10
0.160657
20
0.22463
11
0.162073
21
0.222681
0
LINE
8
BLACK
6
CONTINUOUS
10
0.162073
20
0.222681
11
0.162264
21
0.221476
0
LINE
8
BLACK
6
CONTINUOUS
10
0.162264
20
0.221476
11
0.162264
21
0.20004
0
LINE
8
BLACK
6
CONTINUOUS
10
0.162264
20
0.20004
11
0.161992
21
0.19861
0
LINE
8
BLACK
6
CONTINUOUS
10
0.161992
20
0.19861
11
0.159847
21
0.193172
0
LINE
8
BLACK
6
CONTINUOUS
10
0.159847
20
0.193172
11
0.159429
21
0.189689
0
LINE
8
BLACK
6
CONTINUOUS
10
0.159429
20
0.189689
11
0.159429
21
0.189689
0
LINE
8
BLACK
6
CONTINUOUS
10
0.159429
20
0.189689
11
0.159429
21
0.189689
0
LINE
8
BLACK
6
CONTINUOUS
10
0.159429
20
0.189689
11
0.159429
21
0.148894
0
LINE
8
BLACK
6
CONTINUOUS
10
0.159429
20
0.148894
11
0.159847
21
0.145411
0
LINE
8
BLACK
6
CONTINUOUS
10
0.159847
20
0.145411
11
0.161992
21
0.139972
0
LINE
8
BLACK
6
CONTINUOUS
10
0.161992
20
0.139972
11
0.162264
21
0.138543
0
LINE
8
BLACK
6
CONTINUOUS
10
0.162264
20
0.138543
11
0.162264
21
0.119788
0
LINE
8
BLACK
6
CONTINUOUS
10
0.162264
20
0.119788
11
0.161992
21
0.118359
0
LINE
8
BLACK
6
CONTINUOUS
10
0.161992
20
0.118359
11
0.160832
21
0.115416
0
LINE
8
BLACK
6
CONTINUOUS
10
0.160832
20
0.115416
11
0.160413
21
0.111933
0
LINE
8
BLACK
6
CONTINUOUS
10
0.160413
20
0.111933
11
0.160413
21
0.0888541
0
LINE
8
BLACK
6
CONTINUOUS
10
0.160413
20
0.0888541
11
0.160832
21
0.0853715
0
LINE
8
BLACK
6
CONTINUOUS
10
0.160832
20
0.0853715
11
0.163017
21
0.0798292
0
LINE
8
BLACK
6
CONTINUOUS
10
0.163017
20
0.0798292
11
0.163017
21
0.0798291
0
LINE
8
BLACK
6
CONTINUOUS
10
0.163017
20
0.0798291
11
0.163017
21
0.0798291
0
LINE
8
BLACK
6
CONTINUOUS
10
0.163017
20
0.0798291
11
0.166617
21
0.0750818
0
LINE
8
BLACK
6
CONTINUOUS
10
0.166617
20
0.0750818
11
0.171364
21
0.0714819
0
LINE
8
BLACK
6
CONTINUOUS
10
0.171364
20
0.0714819
11
0.171365
21
0.0714819
0
LINE
8
BLACK
6
CONTINUOUS
10
0.171365
20
0.0714819
11
0.171365
21
0.0714818
0
LINE
8
BLACK
6
CONTINUOUS
10
0.171365
20
0.0714818
11
0.174136
21
0.070389
0
LINE
8
BLACK
6
CONTINUOUS
10
0.174136
20
0.070389
11
0.176907
21
0.0692962
0
LINE
8
BLACK
6
CONTINUOUS
10
0.176907
20
0.0692962
11
0.18039
21
0.068878
0
LINE
8
BLACK
6
CONTINUOUS
10
0.18039
20
0.068878
11
0.18039
21
0.068878
0
LINE
8
BLACK
6
CONTINUOUS
10
0.18039
20
0.068878
11
0.221185
21
0.068878
0
LINE
8
BLACK
6
CONTINUOUS
10
0.221185
20
0.068878
11
0.221185
21
0.068878
0
LINE
8
BLACK
6
CONTINUOUS
10
0.221185
20
0.068878
11
0.224668
21
0.0692962
0
LINE
8
BLACK
6
CONTINUOUS
10
0.224668
20
0.0692962
11
0.23021
21
0.0714819
0
LINE
8
BLACK
6
CONTINUOUS
10
0.23021
20
0.0714819
11
0.234958
21
0.0750818
0
LINE
8
BLACK
6
CONTINUOUS
10
0.234958
20
0.0750818
11
0.238558
21
0.0798291
0
LINE
8
BLACK
6
CONTINUOUS
10
0.238558
20
0.0798291
11
0.240743
21
0.0853715
0
LINE
8
BLACK
6
CONTINUOUS
10
0.240743
20
0.0853715
11
0.241161
21
0.0888543
0
LINE
8
BLACK
6
CONTINUOUS
10
0.241161
20
0.0888543
11
0.241161
21
0.111933
0
LINE
8
BLACK
6
CONTINUOUS
10
0.241161
20
0.111933
11
0.240743
21
0.115416
0
LINE
8
BLACK
6
CONTINUOUS
10
0.240743
20
0.115416
11
0.238558
21
0.120958
0
LINE
8
BLACK
6
CONTINUOUS
10
0.238558
20
0.120958
11
0.234958
21
0.125706
0
LINE
8
BLACK
6
CONTINUOUS
10
0.234958
20
0.125706
11
0.23021
21
0.129306
0
LINE
8
BLACK
6
CONTINUOUS
10
0.23021
20
0.129306
11
0.23021
21
0.129306
0
LINE
8
BLACK
6
CONTINUOUS
10
0.23021
20
0.129306
11
0.23021
21
0.129306
0
LINE
8
BLACK
6
CONTINUOUS
10
0.23021
20
0.129306
11
0.224668
21
0.131491
0
LINE
8
BLACK
6
CONTINUOUS
10
0.224668
20
0.131491
11
0.221183
21
0.13191
0
LINE
8
BLACK
6
CONTINUOUS
10
0.221183
20
0.13191
11
0.218997
21
0.132922
0
LINE
8
BLACK
6
CONTINUOUS
10
0.218997
20
0.132922
11
0.217824
21
0.135026
0
LINE
8
BLACK
6
CONTINUOUS
10
0.217824
20
0.135026
11
0.218111
21
0.137417
0
LINE
8
BLACK
6
CONTINUOUS
10
0.218111
20
0.137417
11
0.218542
21
0.138135
0
LINE
8
BLACK
6
CONTINUOUS
10
0.218542
20
0.138135
11
0.219857
21
0.139868
0
LINE
8
BLACK
6
CONTINUOUS
10
0.219857
20
0.139868
11
0.222042
21
0.145411
0
LINE
8
BLACK
6
CONTINUOUS
10
0.222042
20
0.145411
11
0.222461
21
0.148894
0
LINE
8
BLACK
6
CONTINUOUS
10
0.222461
20
0.148894
11
0.222461
21
0.152382
0
LINE
8
BLACK
6
CONTINUOUS
10
0.222461
20
0.152382
11
0.223205
21
0.154673
0
LINE
8
BLACK
6
CONTINUOUS
10
0.223205
20
0.154673
11
0.225154
21
0.156089
0
LINE
8
BLACK
6
CONTINUOUS
10
0.225154
20
0.156089
11
0.226358
21
0.15628
0
LINE
8
BLACK
6
CONTINUOUS
10
0.226358
20
0.15628
11
0.492595
21
0.15628
0
LINE
8
BLACK
6
CONTINUOUS
10
0.492595
20
0.15628
11
0.492813
21
0.156267
0
LINE
8
BLACK
6
CONTINUOUS
10
0.492813
20
0.156267
11
0.494371
21
0.156092
0
LINE
8
BLACK
6
CONTINUOUS
10
0.494371
20
0.156092
11
0.496672
21
0.156527
0
LINE
8
BLACK
6
CONTINUOUS
10
0.496672
20
0.156527
11
0.498988
21
0.156876
0
LINE
8
BLACK
6
CONTINUOUS
10
0.498988
20
0.156876
11
0.498988
21
0.156876
0
LINE
8
BLACK
6
CONTINUOUS
10
0.498988
20
0.156876
11
0.499267
21
0.156962
0
LINE
8
BLACK
6
CONTINUOUS
10
0.499267
20
0.156962
11
0.499272
21
0.156946
0
LINE
8
BLACK
6
CONTINUOUS
10
0.499272
20
0.156946
11
0.499355
21
0.156973
0
LINE
8
BLACK
6
CONTINUOUS
10
0.499355
20
0.156973
11
0.499349
21
0.156989
0
LINE
8
BLACK
6
CONTINUOUS
10
0.499349
20
0.156989
11
0.499625
21
0.157086
0
LINE
8
BLACK
6
CONTINUOUS
10
0.499625
20
0.157086
11
0.499625
21
0.157086
0
LINE
8
BLACK
6
CONTINUOUS
10
0.499625
20
0.157086
11
0.50017
21
0.157374
0
LINE
8
BLACK
6
CONTINUOUS
10
0.50017
20
0.157374
11
0.501696
21
0.15818
0
LINE
8
BLACK
6
CONTINUOUS
10
0.501696
20
0.15818
11
0.50275
21
0.158688
0
LINE
8
BLACK
6
CONTINUOUS
10
0.50275
20
0.158688
11
0.503805
21
0.159196
0
LINE
8
BLACK
6
CONTINUOUS
10
0.503805
20
0.159196
11
0.503805
21
0.159196
0
LINE
8
BLACK
6
CONTINUOUS
10
0.503805
20
0.159196
11
0.504046
21
0.159361
0
LINE
8
BLACK
6
CONTINUOUS
10
0.504046
20
0.159361
11
0.504056
21
0.159346
0
LINE
8
BLACK
6
CONTINUOUS
10
0.504056
20
0.159346
11
0.504127
21
0.159396
0
LINE
8
BLACK
6
CONTINUOUS
10
0.504127
20
0.159396
11
0.504117
21
0.159411
0
LINE
8
BLACK
6
CONTINUOUS
10
0.504117
20
0.159411
11
0.504352
21
0.159584
0
LINE
8
BLACK
6
CONTINUOUS
10
0.504352
20
0.159584
11
0.504352
21
0.159584
0
LINE
8
BLACK
6
CONTINUOUS
10
0.504352
20
0.159584
11
0.506008
21
0.16124
0
LINE
8
BLACK
6
CONTINUOUS
10
0.506008
20
0.16124
11
0.507724
21
0.162832
0
LINE
8
BLACK
6
CONTINUOUS
10
0.507724
20
0.162832
11
0.507724
21
0.162833
0
LINE
8
BLACK
6
CONTINUOUS
10
0.507724
20
0.162833
11
0.507906
21
0.163061
0
LINE
8
BLACK
6
CONTINUOUS
10
0.507906
20
0.163061
11
0.50792
21
0.16305
0
LINE
8
BLACK
6
CONTINUOUS
10
0.50792
20
0.16305
11
0.508256
21
0.163488
0
LINE
8
BLACK
6
CONTINUOUS
10
0.508256
20
0.163488
11
0.540894
21
0.196126
0
LINE
8
BLACK
6
CONTINUOUS
10
0.540894
20
0.196126
11
0.541056
21
0.196271
0
LINE
8
BLACK
6
CONTINUOUS
10
0.541056
20
0.196271
11
0.542282
21
0.197249
0
LINE
8
BLACK
6
CONTINUOUS
10
0.542282
20
0.197249
11
0.543602
21
0.199184
0
LINE
8
BLACK
6
CONTINUOUS
10
0.543602
20
0.199184
11
0.544992
21
0.201068
0
LINE
8
BLACK
6
CONTINUOUS
10
0.544992
20
0.201068
11
0.544992
21
0.201068
0
LINE
8
BLACK
6
CONTINUOUS
10
0.544992
20
0.201068
11
0.545128
21
0.201326
0
LINE
8
BLACK
6
CONTINUOUS
10
0.545128
20
0.201326
11
0.545144
21
0.201318
0
LINE
8
BLACK
6
CONTINUOUS
10
0.545144
20
0.201318
11
0.545183
21
0.201396
0
LINE
8
BLACK
6
CONTINUOUS
10
0.545183
20
0.201396
11
0.545167
21
0.201403
0
LINE
8
BLACK
6
CONTINUOUS
10
0.545167
20
0.201403
11
0.545294
21
0.201666
0
LINE
8
BLACK
6
CONTINUOUS
10
0.545294
20
0.201666
11
0.545984
21
0.203904
0
LINE
8
BLACK
6
CONTINUOUS
10
0.545984
20
0.203904
11
0.546265
21
0.204705
0
LINE
8
BLACK
6
CONTINUOUS
10
0.546265
20
0.204705
11
0.546758
21
0.206114
0
LINE
8
BLACK
6
CONTINUOUS
10
0.546758
20
0.206114
11
0.546758
21
0.206114
0
LINE
8
BLACK
6
CONTINUOUS
10
0.546758
20
0.206114
11
0.546812
21
0.206401
0
LINE
8
BLACK
6
CONTINUOUS
10
0.546812
20
0.206401
11
0.546829
21
0.206398
0
LINE
8
BLACK
6
CONTINUOUS
10
0.546829
20
0.206398
11
0.546844
21
0.206484
0
LINE
8
BLACK
6
CONTINUOUS
10
0.546844
20
0.206484
11
0.546827
21
0.206487
0
LINE
8
BLACK
6
CONTINUOUS
10
0.546827
20
0.206487
11
0.54687
21
0.206775
0
LINE
8
BLACK
6
CONTINUOUS
10
0.54687
20
0.206775
11
0.54687
21
0.209117
0
LINE
8
BLACK
6
CONTINUOUS
10
0.54687
20
0.209117
11
0.546876
21
0.20928
0
LINE
8
BLACK
6
CONTINUOUS
10
0.546876
20
0.20928
11
0.546958
21
0.211457
0
LINE
8
BLACK
6
CONTINUOUS
10
0.546958
20
0.211457
11
0.546958
21
0.211457
0
LINE
8
BLACK
6
CONTINUOUS
10
0.546958
20
0.211457
11
0.546925
21
0.211747
0
LINE
8
BLACK
6
CONTINUOUS
10
0.546925
20
0.211747
11
0.546942
21
0.211749
0
LINE
8
BLACK
6
CONTINUOUS
10
0.546942
20
0.211749
11
0.54687
21
0.212297
0
LINE
8
BLACK
6
CONTINUOUS
10
0.54687
20
0.212297
11
0.54687
21
0.420075
0
LINE
8
BLACK
6
CONTINUOUS
10
0.54687
20
0.420075
11
0.547614
21
0.422366
0
LINE
8
BLACK
6
CONTINUOUS
10
0.547614
20
0.422366
11
0.548413
21
0.423181
0
LINE
8
BLACK
6
CONTINUOUS
10
0.548413
20
0.423181
11
0.552477
21
0.426263
0
LINE
8
BLACK
6
CONTINUOUS
10
0.552477
20
0.426263
11
0.556077
21
0.43101
0
LINE
8
BLACK
6
CONTINUOUS
10
0.556077
20
0.43101
11
0.558263
21
0.436553
0
LINE
8
BLACK
6
CONTINUOUS
10
0.558263
20
0.436553
11
0.558681
21
0.440035
0
LINE
8
BLACK
6
CONTINUOUS
10
0.558681
20
0.440035
11
0.558681
21
0.467051
0
LINE
8
BLACK
6
CONTINUOUS
10
0.558681
20
0.467051
11
0.558263
21
0.470534
0
LINE
8
BLACK
6
CONTINUOUS
10
0.558263
20
0.470534
11
0.556917
21
0.473947
0
LINE
8
BLACK
6
CONTINUOUS
10
0.556917
20
0.473947
11
0.556077
21
0.476076
0
LINE
8
BLACK
6
CONTINUOUS
10
0.556077
20
0.476076
11
0.556077
21
0.476076
0
LINE
8
BLACK
6
CONTINUOUS
10
0.556077
20
0.476076
11
0.556077
21
0.476076
0
LINE
8
BLACK
6
CONTINUOUS
10
0.556077
20
0.476076
11
0.552477
21
0.480824
0
LINE
8
BLACK
6
CONTINUOUS
10
0.552477
20
0.480824
11
0.54773
21
0.484424
0
LINE
8
BLACK
6
CONTINUOUS
10
0.54773
20
0.484424
11
0.54773
21
0.484424
0
LINE
8
BLACK
6
CONTINUOUS
10
0.54773
20
0.484424
11
0.54773
21
0.484424
0
LINE
8
BLACK
6
CONTINUOUS
10
0.54773
20
0.484424
11
0.542188
21
0.486609
0
LINE
8
BLACK
6
CONTINUOUS
10
0.542188
20
0.486609
11
0.538705
21
0.487028
0
LINE
8
BLACK
6
CONTINUOUS
10
0.538705
20
0.487028
11
0.538705
21
0.487028
0
LINE
8
BLACK
6
CONTINUOUS
10
0.538705
20
0.487028
11
0.514079
21
0.487028
0
LINE
8
BLACK
6
CONTINUOUS
10
0.514079
20
0.487028
11
0.511788
21
0.487772
0
LINE
8
BLACK
6
CONTINUOUS
10
0.511788
20
0.487772
11
0.511323
21
0.488169
0
LINE
8
BLACK
6
CONTINUOUS
10
0.511323
20
0.488169
11
0.464814
21
0.534678
0
LINE
8
BLACK
6
CONTINUOUS
10
0.464814
20
0.534678
11
0.46372
21
0.536825
0
LINE
8
BLACK
6
CONTINUOUS
10
0.46372
20
0.536825
11
0.463821
21
0.538501
0
LINE
8
BLACK
6
CONTINUOUS
10
0.463821
20
0.538501
11
0.464715
21
0.541641
0
LINE
8
BLACK
6
CONTINUOUS
10
0.464715
20
0.541641
11
0.464715
21
0.541641
0
LINE
8
BLACK
6
CONTINUOUS
10
0.464715
20
0.541641
11
0.464715
21
0.541641
0
LINE
8
BLACK
6
CONTINUOUS
10
0.464715
20
0.541641
11
0.465489
21
0.55
0
LINE
8
BLACK
6
CONTINUOUS
10
0.465489
20
0.55
11
0.465139
21
0.55378
0
LINE
8
BLACK
6
CONTINUOUS
10
0.465139
20
0.55378
11
0.464715
21
0.558359
0
LINE
8
BLACK
6
CONTINUOUS
10
0.464715
20
0.558359
11
0.462418
21
0.566433
0
LINE
8
BLACK
6
CONTINUOUS
10
0.462418
20
0.566433
11
0.458759
21
0.57378
0
LINE
8
BLACK
6
CONTINUOUS
10
0.458759
20
0.57378
11
0.458676
21
0.573947
0
LINE
8
BLACK
6
CONTINUOUS
10
0.458676
20
0.573947
11
0.453617
21
0.580646
0
LINE
8
BLACK
6
CONTINUOUS
10
0.453617
20
0.580646
11
0.447675
21
0.586063
0
LINE
8
BLACK
6
CONTINUOUS
10
0.447675
20
0.586063
11
0.447414
21
0.586301
0
LINE
8
BLACK
6
CONTINUOUS
10
0.447414
20
0.586301
11
0.447413
21
0.586301
0
LINE
8
BLACK
6
CONTINUOUS
10
0.447413
20
0.586301
11
0.440277
21
0.59072
0
LINE
8
BLACK
6
CONTINUOUS
10
0.440277
20
0.59072
11
0.440276
21
0.59072
0
LINE
8
BLACK
6
CONTINUOUS
10
0.440276
20
0.59072
11
0.433437
21
0.59337
0
LINE
8
BLACK
6
CONTINUOUS
10
0.433437
20
0.59337
11
0.432449
21
0.593753
0
LINE
8
BLACK
6
CONTINUOUS
10
0.432449
20
0.593753
11
0.432449
21
0.593753
0
LINE
8
BLACK
6
CONTINUOUS
10
0.432449
20
0.593753
11
0.432449
21
0.593753
0
LINE
8
BLACK
6
CONTINUOUS
10
0.432449
20
0.593753
11
0.424197
21
0.595295
0
LINE
8
BLACK
6
CONTINUOUS
10
0.424197
20
0.595295
11
0.415803
21
0.595295
0
LINE
8
BLACK
6
CONTINUOUS
10
0.415803
20
0.595295
11
0.407551
21
0.593753
0
LINE
8
BLACK
6
CONTINUOUS
10
0.407551
20
0.593753
11
0.399724
21
0.59072
0
LINE
8
BLACK
6
CONTINUOUS
10
0.399724
20
0.59072
11
0.399723
21
0.59072
0
LINE
8
BLACK
6
CONTINUOUS
10
0.399723
20
0.59072
11
0.392587
21
0.586301
0
LINE
8
BLACK
6
CONTINUOUS
10
0.392587
20
0.586301
11
0.392586
21
0.586301
0
LINE
8
BLACK
6
CONTINUOUS
10
0.392586
20
0.586301
11
0.386383
21
0.580646
0
LINE
8
BLACK
6
CONTINUOUS
10
0.386383
20
0.580646
11
0.386383
21
0.580646
0
LINE
8
BLACK
6
CONTINUOUS
10
0.386383
20
0.580646
11
0.386383
21
0.580646
0
LINE
8
BLACK
6
CONTINUOUS
10
0.386383
20
0.580646
11
0.386383
21
0.580646
0
LINE
8
BLACK
6
CONTINUOUS
10
0.386383
20
0.580646
11
0.386383
21
0.580646
0
LINE
8
BLACK
6
CONTINUOUS
10
0.386383
20
0.580646
11
0.381324
21
0.573947
0
LINE
8
BLACK
6
CONTINUOUS
10
0.381324
20
0.573947
11
0.381324
21
0.573947
0
LINE
8
BLACK
6
CONTINUOUS
10
0.381324
20
0.573947
11
0.377583
21
0.566433
0
LINE
8
BLACK
6
CONTINUOUS
10
0.377583
20
0.566433
11
0.375285
21
0.558359
0
LINE
8
BLACK
6
CONTINUOUS
10
0.375285
20
0.558359
11
0.374511
21
0.55
0
LINE
8
BLACK
6
CONTINUOUS
10
0.374511
20
0.55
11
0.375285
21
0.541641
0
LINE
8
BLACK
6
CONTINUOUS
10
0.375285
20
0.541641
11
0.376179
21
0.538501
0
LINE
8
BLACK
6
CONTINUOUS
10
0.376179
20
0.538501
11
0.377582
21
0.533567
0
LINE
8
BLACK
6
CONTINUOUS
10
0.377582
20
0.533567
11
0.381324
21
0.526053
0
LINE
8
BLACK
6
CONTINUOUS
10
0.381324
20
0.526053
11
0.381324
21
0.526053
0
LINE
8
BLACK
6
CONTINUOUS
10
0.381324
20
0.526053
11
0.381324
21
0.526053
0
LINE
8
BLACK
6
CONTINUOUS
10
0.381324
20
0.526053
11
0.38584
21
0.520073
0
LINE
8
BLACK
6
CONTINUOUS
10
0.38584
20
0.520073
11
0.386626
21
0.517797
0
LINE
8
BLACK
6
CONTINUOUS
10
0.386626
20
0.517797
11
0.385924
21
0.515492
0
LINE
8
BLACK
6
CONTINUOUS
10
0.385924
20
0.515492
11
0.384002
21
0.514041
0
LINE
8
BLACK
6
CONTINUOUS
10
0.384002
20
0.514041
11
0.381594
21
0.513996
0
LINE
8
BLACK
6
CONTINUOUS
10
0.381594
20
0.513996
11
0.381581
21
0.514
0
LINE
8
BLACK
6
CONTINUOUS
10
0.381581
20
0.514
11
0.380678
21
0.514279
0
LINE
8
BLACK
6
CONTINUOUS
10
0.380678
20
0.514279
11
0.379276
21
0.514769
0
LINE
8
BLACK
6
CONTINUOUS
10
0.379276
20
0.514769
11
0.378455
21
0.515056
0
LINE
8
BLACK
6
CONTINUOUS
10
0.378455
20
0.515056
11
0.378455
21
0.515056
0
LINE
8
BLACK
6
CONTINUOUS
10
0.378455
20
0.515056
11
0.378168
21
0.515111
0
LINE
8
BLACK
6
CONTINUOUS
10
0.378168
20
0.515111
11
0.378171
21
0.515127
0
LINE
8
BLACK
6
CONTINUOUS
10
0.378171
20
0.515127
11
0.378081
21
0.515143
0
LINE
8
BLACK
6
CONTINUOUS
10
0.378081
20
0.515143
11
0.378079
21
0.515126
0
LINE
8
BLACK
6
CONTINUOUS
10
0.378079
20
0.515126
11
0.37779
21
0.515169
0
LINE
8
BLACK
6
CONTINUOUS
10
0.37779
20
0.515169
11
0.37779
21
0.515169
0
LINE
8
BLACK
6
CONTINUOUS
10
0.37779
20
0.515169
11
0.375437
21
0.515169
0
LINE
8
BLACK
6
CONTINUOUS
10
0.375437
20
0.515169
11
0.373083
21
0.515257
0
LINE
8
BLACK
6
CONTINUOUS
10
0.373083
20
0.515257
11
0.373083
21
0.515257
0
LINE
8
BLACK
6
CONTINUOUS
10
0.373083
20
0.515257
11
0.372793
21
0.515225
0
LINE
8
BLACK
6
CONTINUOUS
10
0.372793
20
0.515225
11
0.372791
21
0.515242
0
LINE
8
BLACK
6
CONTINUOUS
10
0.372791
20
0.515242
11
0.372242
21
0.515169
0
LINE
8
BLACK
6
CONTINUOUS
10
0.372242
20
0.515169
11
0.369193
21
0.515169
0
LINE
8
BLACK
6
CONTINUOUS
10
0.369193
20
0.515169
11
0.366902
21
0.515914
0
LINE
8
BLACK
6
CONTINUOUS
10
0.366902
20
0.515914
11
0.365486
21
0.517862
0
LINE
8
BLACK
6
CONTINUOUS
10
0.365486
20
0.517862
11
0.365295
21
0.519067
0
LINE
8
BLACK
6
CONTINUOUS
10
0.365295
20
0.519067
11
0.365295
21
0.585231
0
LINE
8
BLACK
6
CONTINUOUS
10
0.365295
20
0.585231
11
0.365295
21
0.585231
0
LINE
8
BLACK
6
CONTINUOUS
10
0.365295
20
0.585231
11
0.365181
21
0.58622
0
LINE
8
BLACK
6
CONTINUOUS
10
0.365181
20
0.58622
11
0.363394
21
0.590266
0
LINE
8
BLACK
6
CONTINUOUS
10
0.363394
20
0.590266
11
0.360266
21
0.593394
0
LINE
8
BLACK
6
CONTINUOUS
10
0.360266
20
0.593394
11
0.35622
21
0.595181
0
LINE
8
BLACK
6
CONTINUOUS
10
0.35622
20
0.595181
11
0.35622
21
0.595181
0
LINE
8
BLACK
6
CONTINUOUS
10
0.35622
20
0.595181
11
0.35622
21
0.595181
0
LINE
8
BLACK
6
CONTINUOUS
10
0.35622
20
0.595181
11
0.355231
21
0.595295
0
LINE
8
BLACK
6
CONTINUOUS
10
0.355231
20
0.595295
11
0.284769
21
0.595295
0
LINE
8
BLACK
6
CONTINUOUS
10
0.284769
20
0.595295
11
0.284769
21
0.595295
0
LINE
8
BLACK
6
CONTINUOUS
10
0.284769
20
0.595295
11
0.28378
21
0.595181
0
LINE
8
BLACK
6
CONTINUOUS
10
0.28378
20
0.595181
11
0.279734
21
0.593394
0
LINE
8
BLACK
6
CONTINUOUS
10
0.279734
20
0.593394
11
0.276606
21
0.590266
0
LINE
8
BLACK
6
CONTINUOUS
10
0.276606
20
0.590266
11
0.274819
21
0.58622
0
LINE
8
BLACK
6
CONTINUOUS
10
0.274819
20
0.58622
11
0.274705
21
0.585231
0
LINE
8
BLACK
6
CONTINUOUS
10
0.274705
20
0.585231
11
0.274705
21
0.571728
0
LINE
8
BLACK
6
CONTINUOUS
10
0.274705
20
0.571728
11
0.27396
21
0.569437
0
LINE
8
BLACK
6
CONTINUOUS
10
0.27396
20
0.569437
11
0.272012
21
0.568021
0
LINE
8
BLACK
6
CONTINUOUS
10
0.272012
20
0.568021
11
0.270807
21
0.567831
0
LINE
8
BLACK
6
CONTINUOUS
10
0.270807
20
0.567831
11
0.231111
21
0.567831
0
LINE
8
BLACK
6
CONTINUOUS
10
0.231111
20
0.567831
11
0.230893
21
0.567843
0
LINE
8
BLACK
6
CONTINUOUS
10
0.230893
20
0.567843
11
0.229326
21
0.568019
0
LINE
8
BLACK
6
CONTINUOUS
10
0.229326
20
0.568019
11
0.229326
21
0.568019
0
LINE
8
BLACK
6
CONTINUOUS
10
0.229326
20
0.568019
11
0.227013
21
0.567582
0
LINE
8
BLACK
6
CONTINUOUS
10
0.227013
20
0.567582
11
0.224685
21
0.567231
0
LINE
8
BLACK
6
CONTINUOUS
10
0.224685
20
0.567231
11
0.224406
21
0.567145
0
LINE
8
BLACK
6
CONTINUOUS
10
0.224406
20
0.567145
11
0.224401
21
0.567161
0
LINE
8
BLACK
6
CONTINUOUS
10
0.224401
20
0.567161
11
0.224314
21
0.567133
0
LINE
8
BLACK
6
CONTINUOUS
10
0.224314
20
0.567133
11
0.22432
21
0.567117
0
LINE
8
BLACK
6
CONTINUOUS
10
0.22432
20
0.567117
11
0.224044
21
0.56702
0
LINE
8
BLACK
6
CONTINUOUS
10
0.224044
20
0.56702
11
0.221963
21
0.56592
0
LINE
8
BLACK
6
CONTINUOUS
10
0.221963
20
0.56592
11
0.219842
21
0.564899
0
LINE
8
BLACK
6
CONTINUOUS
10
0.219842
20
0.564899
11
0.219601
21
0.564734
0
LINE
8
BLACK
6
CONTINUOUS
10
0.219601
20
0.564734
11
0.219591
21
0.564749
0
LINE
8
BLACK
6
CONTINUOUS
10
0.219591
20
0.564749
11
0.219517
21
0.564696
0
LINE
8
BLACK
6
CONTINUOUS
10
0.219517
20
0.564696
11
0.219527
21
0.564682
0
LINE
8
BLACK
6
CONTINUOUS
10
0.219527
20
0.564682
11
0.219292
21
0.564509
0
LINE
8
BLACK
6
CONTINUOUS
10
0.219292
20
0.564509
11
0.217627
21
0.562844
0
LINE
8
BLACK
6
CONTINUOUS
10
0.217627
20
0.562844
11
0.215902
21
0.561243
0
LINE
8
BLACK
6
CONTINUOUS
10
0.215902
20
0.561243
11
0.21572
21
0.561015
0
LINE
8
BLACK
6
CONTINUOUS
10
0.21572
20
0.561015
11
0.215707
21
0.561025
0
LINE
8
BLACK
6
CONTINUOUS
10
0.215707
20
0.561025
11
0.215369
21
0.560586
0
LINE
8
BLACK
6
CONTINUOUS
10
0.215369
20
0.560586
11
0.141796
21
0.487013
0
LINE
8
BLACK
6
CONTINUOUS
10
0.141796
20
0.487013
11
0.13965
21
0.485919
0
LINE
8
BLACK
6
CONTINUOUS
10
0.13965
20
0.485919
11
0.137271
21
0.486296
0
LINE
8
BLACK
6
CONTINUOUS
10
0.137271
20
0.486296
11
0.135568
21
0.488
0
LINE
8
BLACK
6
CONTINUOUS
10
0.135568
20
0.488
11
0.135159
21
0.48941
0
LINE
8
BLACK
6
CONTINUOUS
10
0.135159
20
0.48941
11
0.134695
21
0.494418
0
LINE
8
BLACK
6
CONTINUOUS
10
0.134695
20
0.494418
11
0.132399
21
0.502489
0
LINE
8
BLACK
6
CONTINUOUS
10
0.132399
20
0.502489
11
0.128659
21
0.509999
0
LINE
8
BLACK
6
CONTINUOUS
10
0.128659
20
0.509999
11
0.128659
21
0.51
0
LINE
8
BLACK
6
CONTINUOUS
10
0.128659
20
0.51
11
0.123602
21
0.516695
0
LINE
8
BLACK
6
CONTINUOUS
10
0.123602
20
0.516695
11
0.123602
21
0.516696
0
LINE
8
BLACK
6
CONTINUOUS
10
0.123602
20
0.516696
11
0.117402
21
0.522348
0
LINE
8
BLACK
6
CONTINUOUS
10
0.117402
20
0.522348
11
0.117402
21
0.522348
0
LINE
8
BLACK
6
CONTINUOUS
10
0.117402
20
0.522348
11
0.110267
21
0.526766
0
LINE
8
BLACK
6
CONTINUOUS
10
0.110267
20
0.526766
11
0.102443
21
0.529797
0
LINE
8
BLACK
6
CONTINUOUS
10
0.102443
20
0.529797
11
0.102443
21
0.529797
0
LINE
8
BLACK
6
CONTINUOUS
10
0.102443
20
0.529797
11
0.1
21
0.530254
0
LINE
8
BLACK
6
CONTINUOUS
10
0.1
20
0.530254
11
0.1
21
0.517962
0
LINE
8
BLACK
6
CONTINUOUS
10
0.1
20
0.517962
11
0.100341
21
0.51789
0
LINE
8
BLACK
6
CONTINUOUS
10
0.100341
20
0.51789
11
0.106732
21
0.515044
0
LINE
8
BLACK
6
CONTINUOUS
10
0.106732
20
0.515044
11
0.112392
21
0.510932
0
LINE
8
BLACK
6
CONTINUOUS
10
0.112392
20
0.510932
11
0.117073
21
0.505733
0
LINE
8
BLACK
6
CONTINUOUS
10
0.117073
20
0.505733
11
0.120571
21
0.499674
0
LINE
8
BLACK
6
CONTINUOUS
10
0.120571
20
0.499674
11
0.122733
21
0.493021
0
LINE
8
BLACK
6
CONTINUOUS
10
0.122733
20
0.493021
11
0.123465
21
0.486063
0
LINE
8
BLACK
6
CONTINUOUS
10
0.123465
20
0.486063
11
0.122733
21
0.479105
0
LINE
8
BLACK
6
CONTINUOUS
10
0.122733
20
0.479105
11
0.120571
21
0.472452
0
LINE
8
BLACK
6
CONTINUOUS
10
0.120571
20
0.472452
11
0.117073
21
0.466393
0
LINE
8
BLACK
6
CONTINUOUS
10
0.117073
20
0.466393
11
0.112392
21
0.461194
0
LINE
8
BLACK
6
CONTINUOUS
10
0.112392
20
0.461194
11
0.106732
21
0.457082
0
LINE
8
BLACK
6
CONTINUOUS
10
0.106732
20
0.457082
11
0.100341
21
0.454236
0
LINE
8
BLACK
6
CONTINUOUS
10
0.100341
20
0.454236
11
0.093498
21
0.452782
0
LINE
8
BLACK
6
CONTINUOUS
10
0.093498
20
0.452782
11
0.086502
21
0.452782
0
LINE
8
BLACK
6
CONTINUOUS
10
0.086502
20
0.452782
11
0.0796589
21
0.454236
0
LINE
8
BLACK
6
CONTINUOUS
10
0.0796589
20
0.454236
11
0.0732677
21
0.457082
0
LINE
8
BLACK
6
CONTINUOUS
10
0.0732677
20
0.457082
11
0.0676078
21
0.461194
0
LINE
8
BLACK
6
CONTINUOUS
10
0.0676078
20
0.461194
11
0.0629266
21
0.466393
0
LINE
8
BLACK
6
CONTINUOUS
10
0.0629266
20
0.466393
11
0.0594286
21
0.472452
0
LINE
8
BLACK
6
CONTINUOUS
10
0.0594286
20
0.472452
11
0.0582552
21
0.476063
0
LINE
8
BLACK
6
CONTINUOUS
10
0.0582552
20
0.476063
11
0.0457727
21
0.476063
0
LINE
8
BLACK
6
CONTINUOUS
10
0.0457727
20
0.476063
11
0.0476009
21
0.469637
0
LINE
8
BLACK
6
CONTINUOUS
10
0.0476009
20
0.469637
11
0.0513408
21
0.462127
0
LINE
8
BLACK
6
CONTINUOUS
10
0.0513408
20
0.462127
11
0.051341
21
0.462126
0
LINE
8
BLACK
6
CONTINUOUS
10
0.051341
20
0.462126
11
0.0563975
21
0.455431
0
LINE
8
BLACK
6
CONTINUOUS
10
0.0563975
20
0.455431
11
0.0563979
21
0.45543
0
LINE
8
BLACK
6
CONTINUOUS
10
0.0563979
20
0.45543
11
0.0625982
21
0.449778
0
LINE
8
BLACK
6
CONTINUOUS
10
0.0625982
20
0.449778
11
0.0625982
21
0.449778
0
LINE
8
BLACK
6
CONTINUOUS
10
0.0625982
20
0.449778
11
0.0697325
21
0.44536
0
LINE
8
BLACK
6
CONTINUOUS
10
0.0697325
20
0.44536
11
0.0775567
21
0.442329
0
LINE
8
BLACK
6
CONTINUOUS
10
0.0775567
20
0.442329
11
0.0858046
21
0.440787
0
LINE
8
BLACK
6
CONTINUOUS
10
0.0858046
20
0.440787
11
0.0861611
21
0.440787
0
LINE
8
BLACK
6
CONTINUOUS
10
0.0861611
20
0.440787
11
0.0884521
21
0.440043
0
LINE
8
BLACK
6
CONTINUOUS
10
0.0884521
20
0.440043
11
0.089868
21
0.438094
0
LINE
8
BLACK
6
CONTINUOUS
10
0.089868
20
0.438094
11
0.089868
21
0.435685
0
LINE
8
BLACK
6
CONTINUOUS
10
0.089868
20
0.435685
11
0.0889172
21
0.434134
0
LINE
8
BLACK
6
CONTINUOUS
10
0.0889172
20
0.434134
11
-0.0262441
21
0.318972
0
LINE
8
BLACK
6
CONTINUOUS
10
-0.0262441
20
0.318972
11
-0.0283905
21
0.317879
0
LINE
8
BLACK
6
CONTINUOUS
10
-0.0283905
20
0.317879
11
-0.0290002
21
0.317831
0
LINE
8
BLACK
6
CONTINUOUS
10
-0.0290002
20
0.317831
11
-0.0636959
21
0.317831
0
LINE
8
BLACK
6
CONTINUOUS
10
-0.0636959
20
0.317831
11
-0.0659869
21
0.318575
0
LINE
8
BLACK
6
CONTINUOUS
10
-0.0659869
20
0.318575
11
-0.0669115
21
0.319526
0
LINE
8
BLACK
6
CONTINUOUS
10
-0.0669115
20
0.319526
11
-0.0669604
21
0.319597
0
LINE
8
BLACK
6
CONTINUOUS
10
-0.0669604
20
0.319597
11
-0.0669604
21
0.319597
0
LINE
8
BLACK
6
CONTINUOUS
10
-0.0669604
20
0.319597
11
-0.0669604
21
0.319597
0
LINE
8
BLACK
6
CONTINUOUS
10
-0.0669604
20
0.319597
11
-0.0696074
21
0.322244
0
LINE
8
BLACK
6
CONTINUOUS
10
-0.0696074
20
0.322244
11
-0.0707009
21
0.32439
0
LINE
8
BLACK
6
CONTINUOUS
10
-0.0707009
20
0.32439
11
-0.0703241
21
0.326769
0
LINE
8
BLACK
6
CONTINUOUS
10
-0.0703241
20
0.326769
11
-0.0696074
21
0.327756
0
LINE
8
BLACK
6
CONTINUOUS
10
-0.0696074
20
0.327756
11
-0.0669604
21
0.330403
0
LINE
8
BLACK
6
CONTINUOUS
10
-0.0669604
20
0.330403
11
-0.0651738
21
0.334449
0
LINE
8
BLACK
6
CONTINUOUS
10
-0.0651738
20
0.334449
11
-0.0650591
21
0.335438
0
LINE
8
BLACK
6
CONTINUOUS
10
-0.0650591
20
0.335438
11
-0.0650591
21
0.364562
0
LINE
8
BLACK
6
CONTINUOUS
10
-0.0650591
20
0.364562
11
-0.0651738
21
0.365551
0
LINE
8
BLACK
6
CONTINUOUS
10
-0.0651738
20
0.365551
11
-0.0669604
21
0.369597
0
LINE
8
BLACK
6
CONTINUOUS
10
-0.0669604
20
0.369597
11
-0.0696213
21
0.372258
0
LINE
8
BLACK
6
CONTINUOUS
10
-0.0696213
20
0.372258
11
-0.0707148
21
0.374404
0
LINE
8
BLACK
6
CONTINUOUS
10
-0.0707148
20
0.374404
11
-0.070338
21
0.376783
0
LINE
8
BLACK
6
CONTINUOUS
10
-0.070338
20
0.376783
11
-0.0696212
21
0.37777
0
LINE
8
BLACK
6
CONTINUOUS
10
-0.0696212
20
0.37777
11
-0.0669769
21
0.380414
0
LINE
8
BLACK
6
CONTINUOUS
10
-0.0669769
20
0.380414
11
-0.0651933
21
0.384454
0
LINE
8
BLACK
6
CONTINUOUS
10
-0.0651933
20
0.384454
11
-0.0650788
21
0.385441
0
LINE
8
BLACK
6
CONTINUOUS
10
-0.0650788
20
0.385441
11
-0.0650787
21
0.385441
0
LINE
8
BLACK
6
CONTINUOUS
10
-0.0650787
20
0.385441
11
-0.0650787
21
0.39
0
LINE
8
BLACK
6
CONTINUOUS
10
-0.0650787
20
0.39
11
-0.0650788
21
0.39
0
LINE
8
BLACK
6
CONTINUOUS
10
-0.0650788
20
0.39
11
-0.0768898
21
0.39
0
LINE
8
BLACK
6
CONTINUOUS
10
-0.0768898
20
0.39
11
-0.0768898
21
0.387205
0
LINE
8
BLACK
6
CONTINUOUS
10
-0.0768898
20
0.387205
11
-0.14185
21
0.387205
0
LINE
8
BLACK
6
CONTINUOUS
10
-0.14185
20
0.387205
11
-0.14185
21
0.39
0
LINE
8
BLACK
6
CONTINUOUS
10
-0.14185
20
0.39
11
-0.153661
21
0.39
0
LINE
8
BLACK
6
CONTINUOUS
10
-0.153661
20
0.39
11
-0.153661
21
0.385441
0
LINE
8
BLACK
6
CONTINUOUS
10
-0.153661
20
0.385441
11
-0.153547
21
0.384454
0
LINE
8
BLACK
6
CONTINUOUS
10
-0.153547
20
0.384454
11
-0.152665
21
0.382457
0
LINE
8
BLACK
6
CONTINUOUS
10
-0.152665
20
0.382457
11
-0.152421
21
0.380061
0
LINE
8
BLACK
6
CONTINUOUS
10
-0.152421
20
0.380061
11
-0.153632
21
0.377978
0
LINE
8
BLACK
6
CONTINUOUS
10
-0.153632
20
0.377978
11
-0.155298
21
0.377098
0
LINE
8
BLACK
6
CONTINUOUS
10
-0.155298
20
0.377098
11
-0.159851
21
0.375976
0
LINE
8
BLACK
6
CONTINUOUS
10
-0.159851
20
0.375976
11
-0.165782
21
0.372864
0
LINE
8
BLACK
6
CONTINUOUS
10
-0.165782
20
0.372864
11
-0.170795
21
0.368422
0
LINE
8
BLACK
6
CONTINUOUS
10
-0.170795
20
0.368422
11
-0.170795
21
0.368422
0
LINE
8
BLACK
6
CONTINUOUS
10
-0.170795
20
0.368422
11
-0.172777
21
0.365551
0
LINE
8
BLACK
6
CONTINUOUS
10
-0.172777
20
0.365551
11
-0.174599
21
0.362911
0
LINE
8
BLACK
6
CONTINUOUS
10
-0.174599
20
0.362911
11
-0.176974
21
0.356649
0
LINE
8
BLACK
6
CONTINUOUS
10
-0.176974
20
0.356649
11
-0.177781
21
0.35
0
LINE
8
BLACK
6
CONTINUOUS
10
-0.177781
20
0.35
11
-0.176974
21
0.343351
0
LINE
8
BLACK
6
CONTINUOUS
10
0.126142
20
0.209646
11
0.126142
21
0.197803
0
LINE
8
BLACK
6
CONTINUOUS
10
0.126142
20
0.197803
11
0.129751
21
0.197085
0
LINE
8
BLACK
6
CONTINUOUS
10
0.129751
20
0.197085
11
0.132944
21
0.194952
0
LINE
8
BLACK
6
CONTINUOUS
10
0.132944
20
0.194952
11
0.135078
21
0.191759
0
LINE
8
BLACK
6
CONTINUOUS
10
0.135078
20
0.191759
11
0.135827
21
0.187992
0
LINE
8
BLACK
6
CONTINUOUS
10
0.135827
20
0.187992
11
0.135827
21
0.179291
0
LINE
8
BLACK
6
CONTINUOUS
10
0.135827
20
0.179291
11
0.147638
21
0.179291
0
LINE
8
BLACK
6
CONTINUOUS
10
0.147638
20
0.179291
11
0.147638
21
0.179291
0
LINE
8
BLACK
6
CONTINUOUS
10
0.147638
20
0.179291
11
0.147638
21
0.189687
0
LINE
8
BLACK
6
CONTINUOUS
10
0.147638
20
0.189687
11
0.147638
21
0.189688
0
LINE
8
BLACK
6
CONTINUOUS
10
0.147638
20
0.189688
11
0.14722
21
0.193167
0
LINE
8
BLACK
6
CONTINUOUS
10
0.14722
20
0.193167
11
0.145036
21
0.198705
0
LINE
8
BLACK
6
CONTINUOUS
10
0.145036
20
0.198705
11
0.14144
21
0.203447
0
LINE
8
BLACK
6
CONTINUOUS
10
0.14144
20
0.203447
11
0.136697
21
0.207044
0
LINE
8
BLACK
6
CONTINUOUS
10
0.136697
20
0.207044
11
0.131159
21
0.209228
0
LINE
8
BLACK
6
CONTINUOUS
10
0.131159
20
0.209228
11
0.12768
21
0.209646
0
LINE
8
BLACK
6
CONTINUOUS
10
0.12768
20
0.209646
11
0.126142
21
0.209646
0
LINE
8
BLACK
6
CONTINUOUS
10
0.126142
20
0.209646
11
0.126142
21
0.209646
0
LINE
8
BLACK
6
CONTINUOUS
10
-0.0993701
20
0.412795
11
-0.0768898
21
0.412795
0
LINE
8
BLACK
6
CONTINUOUS
10
-0.0768898
20
0.412795
11
-0.0768898
21
0.41
0
LINE
8
BLACK
6
CONTINUOUS
10
-0.0768898
20
0.41
11
-0.0650788
21
0.41
0
LINE
8
BLACK
6
CONTINUOUS
10
-0.0650788
20
0.41
11
-0.0650788
21
0.41
0
LINE
8
BLACK
6
CONTINUOUS
10
-0.0650788
20
0.41
11
-0.0650788
21
0.414559
0
LINE
8
BLACK
6
CONTINUOUS
10
-0.0650788
20
0.414559
11
-0.0650788
21
0.414559
0
LINE
8
BLACK
6
CONTINUOUS
10
-0.0650788
20
0.414559
11
-0.0651933
21
0.415546
0
LINE
8
BLACK
6
CONTINUOUS
10
-0.0651933
20
0.415546
11
-0.0669769
21
0.419586
0
LINE
8
BLACK
6
CONTINUOUS
10
-0.0669769
20
0.419586
11
-0.0700993
21
0.422708
0
LINE
8
BLACK
6
CONTINUOUS
10
-0.0700993
20
0.422708
11
-0.0741389
21
0.424492
0
LINE
8
BLACK
6
CONTINUOUS
10
-0.0741389
20
0.424492
11
-0.0751261
21
0.424606
0
LINE
8
BLACK
6
CONTINUOUS
10
-0.0751261
20
0.424606
11
-0.0993701
21
0.424606
0
LINE
8
BLACK
6
CONTINUOUS
10
-0.0993701
20
0.424606
11
-0.0993701
21
0.412795
0
LINE
8
BLACK
6
CONTINUOUS
10
-0.0224487
20
0.529816
11
-0.0302764
21
0.526783
0
LINE
8
BLACK
6
CONTINUOUS
10
-0.0302764
20
0.526783
11
-0.0302766
21
0.526783
0
LINE
8
BLACK
6
CONTINUOUS
10
-0.0302766
20
0.526783
11
-0.0374134
21
0.522364
0
LINE
8
BLACK
6
CONTINUOUS
10
-0.0374134
20
0.522364
11
-0.0374137
21
0.522364
0
LINE
8
BLACK
6
CONTINUOUS
10
-0.0374137
20
0.522364
11
-0.0436167
21
0.516709
0
LINE
8
BLACK
6
CONTINUOUS
10
-0.0436167
20
0.516709
11
-0.0436169
21
0.516709
0
LINE
8
BLACK
6
CONTINUOUS
10
-0.0436169
20
0.516709
11
-0.043617
21
0.516709
0
LINE
8
BLACK
6
CONTINUOUS
10
-0.043617
20
0.516709
11
-0.0436172
21
0.516709
0
LINE
8
BLACK
6
CONTINUOUS
10
-0.0436172
20
0.516709
11
-0.0436171
21
0.516709
0
LINE
8
BLACK
6
CONTINUOUS
10
-0.0436171
20
0.516709
11
-0.0486758
21
0.51001
0
LINE
8
BLACK
6
CONTINUOUS
10
-0.0486758
20
0.51001
11
-0.048676
21
0.51001
0
LINE
8
BLACK
6
CONTINUOUS
10
-0.048676
20
0.51001
11
-0.0524175
21
0.502496
0
LINE
8
BLACK
6
CONTINUOUS
10
-0.0524175
20
0.502496
11
-0.0547148
21
0.494422
0
LINE
8
BLACK
6
CONTINUOUS
10
-0.0547148
20
0.494422
11
-0.0554893
21
0.486063
0
LINE
8
BLACK
6
CONTINUOUS
10
-0.0554893
20
0.486063
11
-0.0547148
21
0.477704
0
LINE
8
BLACK
6
CONTINUOUS
10
-0.0547148
20
0.477704
11
-0.0543026
21
0.476256
0
LINE
8
BLACK
6
CONTINUOUS
10
-0.0543026
20
0.476256
11
-0.0524175
21
0.46963
0
LINE
8
BLACK
6
CONTINUOUS
10
-0.0524175
20
0.46963
11
-0.0486758
21
0.462116
0
LINE
8
BLACK
6
CONTINUOUS
10
-0.0486758
20
0.462116
11
-0.043617
21
0.455417
0
LINE
8
BLACK
6
CONTINUOUS
10
-0.043617
20
0.455417
11
-0.0436167
21
0.455417
0
LINE
8
BLACK
6
CONTINUOUS
10
-0.0436167
20
0.455417
11
-0.0374137
21
0.449762
0
LINE
8
BLACK
6
CONTINUOUS
10
-0.0374137
20
0.449762
11
-0.0374134
21
0.449762
0
LINE
8
BLACK
6
CONTINUOUS
10
-0.0374134
20
0.449762
11
-0.0367551
21
0.449354
0
LINE
8
BLACK
6
CONTINUOUS
10
-0.0367551
20
0.449354
11
-0.0302763
21
0.445343
0
LINE
8
BLACK
6
CONTINUOUS
10
-0.0302763
20
0.445343
11
-0.0224487
21
0.44231
0
LINE
8
BLACK
6
CONTINUOUS
10
-0.0224487
20
0.44231
11
-0.0141972
21
0.440768
0
LINE
8
BLACK
6
CONTINUOUS
10
-0.0141972
20
0.440768
11
-0.00580276
21
0.440768
0
LINE
8
BLACK
6
CONTINUOUS
10
-0.00580276
20
0.440768
11
0.00244874
21
0.44231
0
LINE
8
BLACK
6
CONTINUOUS
10
0.00244874
20
0.44231
11
0.0102763
21
0.445343
0
LINE
8
BLACK
6
CONTINUOUS
10
0.0102763
20
0.445343
11
0.0174135
21
0.449762
0
LINE
8
BLACK
6
CONTINUOUS
10
0.0174135
20
0.449762
11
0.023617
21
0.455417
0
LINE
8
BLACK
6
CONTINUOUS
10
0.023617
20
0.455417
11
0.0286758
21
0.462116
0
LINE
8
BLACK
6
CONTINUOUS
10
0.0286758
20
0.462116
11
0.0324175
21
0.46963
0
LINE
8
BLACK
6
CONTINUOUS
10
0.0324175
20
0.46963
11
0.0347148
21
0.477704
0
LINE
8
BLACK
6
CONTINUOUS
10
0.0347148
20
0.477704
11
0.0354893
21
0.486063
0
LINE
8
BLACK
6
CONTINUOUS
10
0.0354893
20
0.486063
11
0.0347148
21
0.494422
0
LINE
8
BLACK
6
CONTINUOUS
10
0.0347148
20
0.494422
11
0.0324175
21
0.502496
0
LINE
8
BLACK
6
CONTINUOUS
10
0.0324175
20
0.502496
11
0.0286758
21
0.51001
0
LINE
8
BLACK
6
CONTINUOUS
10
0.0286758
20
0.51001
11
0.023617
21
0.516709
0
LINE
8
BLACK
6
CONTINUOUS
10
0.023617
20
0.516709
11
0.0199264
21
0.520073
0
LINE
8
BLACK
6
CONTINUOUS
10
0.0199264
20
0.520073
11
0.0174137
21
0.522364
0
LINE
8
BLACK
6
CONTINUOUS
10
0.0174137
20
0.522364
11
0.0174134
21
0.522364
0
LINE
8
BLACK
6
CONTINUOUS
10
0.0174134
20
0.522364
11
0.0102765
21
0.526783
0
LINE
8
BLACK
6
CONTINUOUS
10
0.0102765
20
0.526783
11
0.0102763
21
0.526783
0
LINE
8
BLACK
6
CONTINUOUS
10
0.0102763
20
0.526783
11
0.00643465
21
0.528272
0
LINE
8
BLACK
6
CONTINUOUS
10
0.00643465
20
0.528272
11
0.00244874
21
0.529816
0
LINE
8
BLACK
6
CONTINUOUS
10
0.00244874
20
0.529816
11
0.0024487
21
0.529816
0
LINE
8
BLACK
6
CONTINUOUS
10
0.0024487
20
0.529816
11
0.00244862
21
0.529816
0
LINE
8
BLACK
6
CONTINUOUS
10
0.00244862
20
0.529816
11
-0.00580276
21
0.531358
0
LINE
8
BLACK
6
CONTINUOUS
10
-0.00580276
20
0.531358
11
-0.0141972
21
0.531358
0
LINE
8
BLACK
6
CONTINUOUS
10
-0.0141972
20
0.531358
11
-0.0224487
21
0.529816
0
LINE
8
BLACK
6
CONTINUOUS
10
-0.0794286
20
0.472452
11
-0.0829266
21
0.466393
0
LINE
8
BLACK
6
CONTINUOUS
10
-0.0829266
20
0.466393
11
-0.0876078
21
0.461194
0
LINE
8
BLACK
6
CONTINUOUS
10
-0.0876078
20
0.461194
11
-0.0932677
21
0.457082
0
LINE
8
BLACK
6
CONTINUOUS
10
-0.0932677
20
0.457082
11
-0.0996589
21
0.454236
0
LINE
8
BLACK
6
CONTINUOUS
10
-0.0996589
20
0.454236
11
-0.1
21
0.454164
0
LINE
8
BLACK
6
CONTINUOUS
10
-0.1
20
0.454164
11
-0.1
21
0.441872
0
LINE
8
BLACK
6
CONTINUOUS
10
-0.1
20
0.441872
11
-0.0975568
21
0.442329
0
LINE
8
BLACK
6
CONTINUOUS
10
-0.0975568
20
0.442329
11
-0.0897326
21
0.44536
0
LINE
8
BLACK
6
CONTINUOUS
10
-0.0897326
20
0.44536
11
-0.0825983
21
0.449778
0
LINE
8
BLACK
6
CONTINUOUS
10
-0.0825983
20
0.449778
11
-0.0763979
21
0.45543
0
LINE
8
BLACK
6
CONTINUOUS
10
-0.0763979
20
0.45543
11
-0.0763975
21
0.455431
0
LINE
8
BLACK
6
CONTINUOUS
10
-0.0763975
20
0.455431
11
-0.0713411
21
0.462126
0
LINE
8
BLACK
6
CONTINUOUS
10
-0.0713411
20
0.462126
11
-0.0713409
21
0.462127
0
LINE
8
BLACK
6
CONTINUOUS
10
-0.0713409
20
0.462127
11
-0.067601
21
0.469637
0
LINE
8
BLACK
6
CONTINUOUS
10
-0.067601
20
0.469637
11
-0.0657727
21
0.476063
0
LINE
8
BLACK
6
CONTINUOUS
10
-0.0657727
20
0.476063
11
-0.0782552
21
0.476063
0
LINE
8
BLACK
6
CONTINUOUS
10
-0.0782552
20
0.476063
11
-0.0794286
21
0.472452
0
LINE
8
BLACK
6
CONTINUOUS
10
0.0775569
20
0.529797
11
0.0775566
21
0.529797
0
LINE
8
BLACK
6
CONTINUOUS
10
0.0775566
20
0.529797
11
0.0697325
21
0.526766
0
LINE
8
BLACK
6
CONTINUOUS
10
0.0697325
20
0.526766
11
0.0625982
21
0.522348
0
LINE
8
BLACK
6
CONTINUOUS
10
0.0625982
20
0.522348
11
0.0563979
21
0.516696
0
LINE
8
BLACK
6
CONTINUOUS
10
0.0563979
20
0.516696
11
0.0563975
21
0.516695
0
LINE
8
BLACK
6
CONTINUOUS
10
0.0563975
20
0.516695
11
0.051341
21
0.51
0
LINE
8
BLACK
6
CONTINUOUS
10
0.051341
20
0.51
11
0.0513408
21
0.509999
0
LINE
8
BLACK
6
CONTINUOUS
10
0.0513408
20
0.509999
11
0.0476009
21
0.502489
0
LINE
8
BLACK
6
CONTINUOUS
10
0.0476009
20
0.502489
11
0.0457727
21
0.496063
0
LINE
8
BLACK
6
CONTINUOUS
10
0.0457727
20
0.496063
11
0.0582552
21
0.496063
0
LINE
8
BLACK
6
CONTINUOUS
10
0.0582552
20
0.496063
11
0.0594286
21
0.499674
0
LINE
8
BLACK
6
CONTINUOUS
10
0.0594286
20
0.499674
11
0.0629266
21
0.505733
0
LINE
8
BLACK
6
CONTINUOUS
10
0.0629266
20
0.505733
11
0.0676078
21
0.510932
0
LINE
8
BLACK
6
CONTINUOUS
10
0.0676078
20
0.510932
11
0.0732677
21
0.515044
0
LINE
8
BLACK
6
CONTINUOUS
10
0.0732677
20
0.515044
11
0.0796589
21
0.51789
0
LINE
8
BLACK
6
CONTINUOUS
10
0.0796589
20
0.51789
11
0.08
21
0.517962
0
LINE
8
BLACK
6
CONTINUOUS
10
0.08
20
0.517962
11
0.08
21
0.530254
0
LINE
8
BLACK
6
CONTINUOUS
10
0.08
20
0.530254
11
0.0775569
21
0.529797
0
LINE
8
BLACK
6
CONTINUOUS
10
-0.1
20
0.517962
11
-0.0996589
21
0.51789
0
LINE
8
BLACK
6
CONTINUOUS
10
-0.0996589
20
0.51789
11
-0.0932677
21
0.515044
0
LINE
8
BLACK
6
CONTINUOUS
10
-0.0932677
20
0.515044
11
-0.0876078
21
0.510932
0
LINE
8
BLACK
6
CONTINUOUS
10
-0.0876078
20
0.510932
11
-0.0829266
21
0.505733
0
LINE
8
BLACK
6
CONTINUOUS
10
-0.0829266
20
0.505733
11
-0.0794286
21
0.499674
0
LINE
8
BLACK
6
CONTINUOUS
10
-0.0794286
20
0.499674
11
-0.0782552
21
0.496063
0
LINE
8
BLACK
6
CONTINUOUS
10
-0.0782552
20
0.496063
11
-0.0657727
21
0.496063
0
LINE
8
BLACK
6
CONTINUOUS
10
-0.0657727
20
0.496063
11
-0.067601
21
0.502489
0
LINE
8
BLACK
6
CONTINUOUS
10
-0.067601
20
0.502489
11
-0.0713409
21
0.509999
0
LINE
8
BLACK
6
CONTINUOUS
10
-0.0713409
20
0.509999
11
-0.0713411
21
0.51
0
LINE
8
BLACK
6
CONTINUOUS
10
-0.0713411
20
0.51
11
-0.0763975
21
0.516695
0
LINE
8
BLACK
6
CONTINUOUS
10
-0.0763975
20
0.516695
11
-0.0763979
21
0.516696
0
LINE
8
BLACK
6
CONTINUOUS
10
-0.0763979
20
0.516696
11
-0.0825983
21
0.522348
0
LINE
8
BLACK
6
CONTINUOUS
10
-0.0825983
20
0.522348
11
-0.0825982
21
0.522348
0
LINE
8
BLACK
6
CONTINUOUS
10
-0.0825982
20
0.522348
11
-0.0897326
21
0.526766
0
LINE
8
BLACK
6
CONTINUOUS
10
-0.0897326
20
0.526766
11
-0.0975567
21
0.529797
0
LINE
8
BLACK
6
CONTINUOUS
10
-0.0975567
20
0.529797
11
-0.0975569
21
0.529797
0
LINE
8
BLACK
6
CONTINUOUS
10
-0.0975569
20
0.529797
11
-0.1
21
0.530254
0
LINE
8
BLACK
6
CONTINUOUS
10
-0.1
20
0.530254
11
-0.1
21
0.517962
0
LINE
8
BLACK
6
CONTINUOUS
10
-0.122443
20
0.529797
11
-0.122443
21
0.529797
0
LINE
8
BLACK
6
CONTINUOUS
10
-0.122443
20
0.529797
11
-0.130267
21
0.526766
0
LINE
8
BLACK
6
CONTINUOUS
10
-0.130267
20
0.526766
11
-0.137402
21
0.522348
0
LINE
8
BLACK
6
CONTINUOUS
10
-0.137402
20
0.522348
11
-0.143602
21
0.516696
0
LINE
8
BLACK
6
CONTINUOUS
10
-0.143602
20
0.516696
11
-0.143603
21
0.516695
0
LINE
8
BLACK
6
CONTINUOUS
10
-0.143603
20
0.516695
11
-0.148659
21
0.51
0
LINE
8
BLACK
6
CONTINUOUS
10
-0.148659
20
0.51
11
-0.148659
21
0.509999
0
LINE
8
BLACK
6
CONTINUOUS
10
-0.148659
20
0.509999
11
-0.152399
21
0.502489
0
LINE
8
BLACK
6
CONTINUOUS
10
-0.152399
20
0.502489
11
-0.154227
21
0.496063
0
LINE
8
BLACK
6
CONTINUOUS
10
-0.154227
20
0.496063
11
-0.141745
21
0.496063
0
LINE
8
BLACK
6
CONTINUOUS
10
-0.141745
20
0.496063
11
-0.140571
21
0.499674
0
LINE
8
BLACK
6
CONTINUOUS
10
-0.140571
20
0.499674
11
-0.137073
21
0.505733
0
LINE
8
BLACK
6
CONTINUOUS
10
-0.137073
20
0.505733
11
-0.132392
21
0.510932
0
LINE
8
BLACK
6
CONTINUOUS
10
-0.132392
20
0.510932
11
-0.126732
21
0.515044
0
LINE
8
BLACK
6
CONTINUOUS
10
-0.126732
20
0.515044
11
-0.120341
21
0.51789
0
LINE
8
BLACK
6
CONTINUOUS
10
-0.120341
20
0.51789
11
-0.12
21
0.517962
0
LINE
8
BLACK
6
CONTINUOUS
10
-0.12
20
0.517962
11
-0.12
21
0.530254
0
LINE
8
BLACK
6
CONTINUOUS
10
-0.12
20
0.530254
11
-0.122443
21
0.529797
0
LINE
8
BLACK
6
CONTINUOUS
10
0.491732
20
0.550273
11
0.49215
21
0.546794
0
LINE
8
BLACK
6
CONTINUOUS
10
0.49215
20
0.546794
11
0.494334
21
0.541256
0
LINE
8
BLACK
6
CONTINUOUS
10
0.494334
20
0.541256
11
0.497931
21
0.536513
0
LINE
8
BLACK
6
CONTINUOUS
10
0.497931
20
0.536513
11
0.502673
21
0.532917
0
LINE
8
BLACK
6
CONTINUOUS
10
0.502673
20
0.532917
11
0.508211
21
0.530733
0
LINE
8
BLACK
6
CONTINUOUS
10
0.508211
20
0.530733
11
0.51169
21
0.530315
0
LINE
8
BLACK
6
CONTINUOUS
10
0.51169
20
0.530315
11
0.511691
21
0.530315
0
LINE
8
BLACK
6
CONTINUOUS
10
0.511691
20
0.530315
11
0.515197
21
0.530315
0
LINE
8
BLACK
6
CONTINUOUS
10
0.515197
20
0.530315
11
0.515197
21
0.530315
0
LINE
8
BLACK
6
CONTINUOUS
10
0.515197
20
0.530315
11
0.515197
21
0.530315
0
LINE
8
BLACK
6
CONTINUOUS
10
0.515197
20
0.530315
11
0.515197
21
0.542126
0
LINE
8
BLACK
6
CONTINUOUS
10
0.515197
20
0.542126
11
0.513386
21
0.542126
0
LINE
8
BLACK
6
CONTINUOUS
10
0.513386
20
0.542126
11
0.509619
21
0.542875
0
LINE
8
BLACK
6
CONTINUOUS
10
0.509619
20
0.542875
11
0.506426
21
0.545009
0
LINE
8
BLACK
6
CONTINUOUS
10
0.506426
20
0.545009
11
0.504293
21
0.548202
0
LINE
8
BLACK
6
CONTINUOUS
10
0.504293
20
0.548202
11
0.503543
21
0.551969
0
LINE
8
BLACK
6
CONTINUOUS
10
0.503543
20
0.551969
11
0.503543
21
0.55378
0
LINE
8
BLACK
6
CONTINUOUS
10
0.503543
20
0.55378
11
0.491732
21
0.55378
0
LINE
8
BLACK
6
CONTINUOUS
10
0.491732
20
0.55378
11
0.491732
21
0.550273
0
LINE
8
BLACK
6
CONTINUOUS
10
-0.0224487
20
0.629816
11
-0.0302764
21
0.626783
0
LINE
8
BLACK
6
CONTINUOUS
10
-0.0302764
20
0.626783
11
-0.0302766
21
0.626783
0
LINE
8
BLACK
6
CONTINUOUS
10
-0.0302766
20
0.626783
11
-0.0374134
21
0.622364
0
LINE
8
BLACK
6
CONTINUOUS
10
-0.0374134
20
0.622364
11
-0.0374137
21
0.622364
0
LINE
8
BLACK
6
CONTINUOUS
10
-0.0374137
20
0.622364
11
-0.0436167
21
0.616709
0
LINE
8
BLACK
6
CONTINUOUS
10
-0.0436167
20
0.616709
11
-0.0436169
21
0.616709
0
LINE
8
BLACK
6
CONTINUOUS
10
-0.0436169
20
0.616709
11
-0.043617
21
0.616709
0
LINE
8
BLACK
6
CONTINUOUS
10
-0.043617
20
0.616709
11
-0.0436172
21
0.616709
0
LINE
8
BLACK
6
CONTINUOUS
10
-0.0436172
20
0.616709
11
-0.0436171
21
0.616709
0
LINE
8
BLACK
6
CONTINUOUS
10
-0.0436171
20
0.616709
11
-0.0486758
21
0.61001
0
LINE
8
BLACK
6
CONTINUOUS
10
-0.0486758
20
0.61001
11
-0.048676
21
0.61001
0
LINE
8
BLACK
6
CONTINUOUS
10
-0.048676
20
0.61001
11
-0.0524175
21
0.602496
0
LINE
8
BLACK
6
CONTINUOUS
10
-0.0524175
20
0.602496
11
-0.0547148
21
0.594422
0
LINE
8
BLACK
6
CONTINUOUS
10
-0.0547148
20
0.594422
11
-0.0552271
21
0.588893
0
LINE
8
BLACK
6
CONTINUOUS
10
-0.0552271
20
0.588893
11
-0.0554893
21
0.586063
0
LINE
8
BLACK
6
CONTINUOUS
10
-0.0554893
20
0.586063
11
-0.0554122
21
0.585231
0
LINE
8
BLACK
6
CONTINUOUS
10
-0.0554122
20
0.585231
11
-0.0547148
21
0.577704
0
LINE
8
BLACK
6
CONTINUOUS
10
-0.0547148
20
0.577704
11
-0.0542478
21
0.576063
0
LINE
8
BLACK
6
CONTINUOUS
10
-0.0542478
20
0.576063
11
-0.0524175
21
0.56963
0
LINE
8
BLACK
6
CONTINUOUS
10
-0.0524175
20
0.56963
11
-0.0486758
21
0.562116
0
LINE
8
BLACK
6
CONTINUOUS
10
-0.0486758
20
0.562116
11
-0.043617
21
0.555417
0
LINE
8
BLACK
6
CONTINUOUS
10
-0.043617
20
0.555417
11
-0.0436167
21
0.555417
0
LINE
8
BLACK
6
CONTINUOUS
10
-0.0436167
20
0.555417
11
-0.0374137
21
0.549762
0
LINE
8
BLACK
6
CONTINUOUS
10
-0.0374137
20
0.549762
11
-0.0374134
21
0.549762
0
LINE
8
BLACK
6
CONTINUOUS
10
-0.0374134
20
0.549762
11
-0.0333311
21
0.547234
0
LINE
8
BLACK
6
CONTINUOUS
10
-0.0333311
20
0.547234
11
-0.0302763
21
0.545343
0
LINE
8
BLACK
6
CONTINUOUS
10
-0.0302763
20
0.545343
11
-0.0224487
21
0.54231
0
LINE
8
BLACK
6
CONTINUOUS
10
-0.0224487
20
0.54231
11
-0.0141972
21
0.540768
0
LINE
8
BLACK
6
CONTINUOUS
10
-0.0141972
20
0.540768
11
-0.00580276
21
0.540768
0
LINE
8
BLACK
6
CONTINUOUS
10
-0.00580276
20
0.540768
11
0.00244874
21
0.54231
0
LINE
8
BLACK
6
CONTINUOUS
10
0.00244874
20
0.54231
11
0.0102763
21
0.545343
0
LINE
8
BLACK
6
CONTINUOUS
10
0.0102763
20
0.545343
11
0.0174135
21
0.549762
0
LINE
8
BLACK
6
CONTINUOUS
10
0.0174135
20
0.549762
11
0.023617
21
0.555417
0
LINE
8
BLACK
6
CONTINUOUS
10
0.023617
20
0.555417
11
0.0286758
21
0.562116
0
LINE
8
BLACK
6
CONTINUOUS
10
0.0286758
20
0.562116
11
0.0324175
21
0.56963
0
LINE
8
BLACK
6
CONTINUOUS
10
0.0324175
20
0.56963
11
0.0347148
21
0.577704
0
LINE
8
BLACK
6
CONTINUOUS
10
0.0347148
20
0.577704
11
0.0354893
21
0.586063
0
LINE
8
BLACK
6
CONTINUOUS
10
0.0354893
20
0.586063
11
0.0347148
21
0.594422
0
LINE
8
BLACK
6
CONTINUOUS
10
0.0347148
20
0.594422
11
0.0342478
21
0.596063
0
LINE
8
BLACK
6
CONTINUOUS
10
0.0342478
20
0.596063
11
0.0324175
21
0.602496
0
LINE
8
BLACK
6
CONTINUOUS
10
0.0324175
20
0.602496
11
0.0286758
21
0.61001
0
LINE
8
BLACK
6
CONTINUOUS
10
0.0286758
20
0.61001
11
0.023617
21
0.616709
0
LINE
8
BLACK
6
CONTINUOUS
10
0.023617
20
0.616709
11
0.0185905
21
0.621291
0
LINE
8
BLACK
6
CONTINUOUS
10
0.0185905
20
0.621291
11
0.0174137
21
0.622364
0
LINE
8
BLACK
6
CONTINUOUS
10
0.0174137
20
0.622364
11
0.0174134
21
0.622364
0
LINE
8
BLACK
6
CONTINUOUS
10
0.0174134
20
0.622364
11
0.0102765
21
0.626783
0
LINE
8
BLACK
6
CONTINUOUS
10
0.0102765
20
0.626783
11
0.0102763
21
0.626783
0
LINE
8
BLACK
6
CONTINUOUS
10
0.0102763
20
0.626783
11
0.00341764
21
0.62944
0
LINE
8
BLACK
6
CONTINUOUS
10
0.00341764
20
0.62944
11
0.00244874
21
0.629816
0
LINE
8
BLACK
6
CONTINUOUS
10
0.00244874
20
0.629816
11
0.0024487
21
0.629816
0
LINE
8
BLACK
6
CONTINUOUS
10
0.0024487
20
0.629816
11
0.00244862
21
0.629816
0
LINE
8
BLACK
6
CONTINUOUS
10
0.00244862
20
0.629816
11
-0.00580276
21
0.631358
0
LINE
8
BLACK
6
CONTINUOUS
10
-0.00580276
20
0.631358
11
-0.0141972
21
0.631358
0
LINE
8
BLACK
6
CONTINUOUS
10
-0.0141972
20
0.631358
11
-0.0224487
21
0.629816
0
LINE
8
BLACK
6
CONTINUOUS
10
0.0447245
20
0.576063
11
0.0447244
21
0.576063
0
LINE
8
BLACK
6
CONTINUOUS
10
0.0447244
20
0.576063
11
0.0447244
21
0.550835
0
LINE
8
BLACK
6
CONTINUOUS
10
0.0447244
20
0.550835
11
0.0448389
21
0.549847
0
LINE
8
BLACK
6
CONTINUOUS
10
0.0448389
20
0.549847
11
0.0466226
21
0.545808
0
LINE
8
BLACK
6
CONTINUOUS
10
0.0466226
20
0.545808
11
0.049745
21
0.542686
0
LINE
8
BLACK
6
CONTINUOUS
10
0.049745
20
0.542686
11
0.0537845
21
0.540902
0
LINE
8
BLACK
6
CONTINUOUS
10
0.0537845
20
0.540902
11
0.0547718
21
0.540787
0
LINE
8
BLACK
6
CONTINUOUS
10
0.0547718
20
0.540787
11
0.0799999
21
0.540787
0
LINE
8
BLACK
6
CONTINUOUS
10
0.0799999
20
0.540787
11
0.08
21
0.540787
0
LINE
8
BLACK
6
CONTINUOUS
10
0.08
20
0.540787
11
0.08
21
0.552598
0
LINE
8
BLACK
6
CONTINUOUS
10
0.08
20
0.552598
11
0.0565354
21
0.552598
0
LINE
8
BLACK
6
CONTINUOUS
10
0.0565354
20
0.552598
11
0.0565354
21
0.576063
0
LINE
8
BLACK
6
CONTINUOUS
10
0.0565354
20
0.576063
11
0.0447245
21
0.576063
0
LINE
8
BLACK
6
CONTINUOUS
10
0.123465
20
0.552598
11
0.1
21
0.552598
0
LINE
8
BLACK
6
CONTINUOUS
10
0.1
20
0.552598
11
0.1
21
0.540787
0
LINE
8
BLACK
6
CONTINUOUS
10
0.1
20
0.540787
11
0.1
21
0.540787
0
LINE
8
BLACK
6
CONTINUOUS
10
0.1
20
0.540787
11
0.125228
21
0.540787
0
LINE
8
BLACK
6
CONTINUOUS
10
0.125228
20
0.540787
11
0.125228
21
0.540787
0
LINE
8
BLACK
6
CONTINUOUS
10
0.125228
20
0.540787
11
0.126216
21
0.540902
0
LINE
8
BLACK
6
CONTINUOUS
10
0.126216
20
0.540902
11
0.130255
21
0.542686
0
LINE
8
BLACK
6
CONTINUOUS
10
0.130255
20
0.542686
11
0.133377
21
0.545808
0
LINE
8
BLACK
6
CONTINUOUS
10
0.133377
20
0.545808
11
0.135161
21
0.549848
0
LINE
8
BLACK
6
CONTINUOUS
10
0.135161
20
0.549848
11
0.135276
21
0.550835
0
LINE
8
BLACK
6
CONTINUOUS
10
0.135276
20
0.550835
11
0.135276
21
0.550835
0
LINE
8
BLACK
6
CONTINUOUS
10
0.135276
20
0.550835
11
0.135276
21
0.576063
0
LINE
8
BLACK
6
CONTINUOUS
10
0.135276
20
0.576063
11
0.135276
21
0.576063
0
LINE
8
BLACK
6
CONTINUOUS
10
0.135276
20
0.576063
11
0.123465
21
0.576063
0
LINE
8
BLACK
6
CONTINUOUS
10
0.123465
20
0.576063
11
0.123465
21
0.552598
0
LINE
8
BLACK
6
CONTINUOUS
10
-0.0794286
20
0.572452
11
-0.0829266
21
0.566393
0
LINE
8
BLACK
6
CONTINUOUS
10
-0.0829266
20
0.566393
11
-0.0876078
21
0.561194
0
LINE
8
BLACK
6
CONTINUOUS
10
-0.0876078
20
0.561194
11
-0.0932677
21
0.557082
0
LINE
8
BLACK
6
CONTINUOUS
10
-0.0932677
20
0.557082
11
-0.0996589
21
0.554236
0
LINE
8
BLACK
6
CONTINUOUS
10
-0.0996589
20
0.554236
11
-0.1
21
0.554164
0
LINE
8
BLACK
6
CONTINUOUS
10
-0.1
20
0.554164
11
-0.1
21
0.541872
0
LINE
8
BLACK
6
CONTINUOUS
10
-0.1
20
0.541872
11
-0.0975568
21
0.542329
0
LINE
8
BLACK
6
CONTINUOUS
10
-0.0975568
20
0.542329
11
-0.0897326
21
0.54536
0
LINE
8
BLACK
6
CONTINUOUS
10
-0.0897326
20
0.54536
11
-0.0825983
21
0.549778
0
LINE
8
BLACK
6
CONTINUOUS
10
-0.0825983
20
0.549778
11
-0.0763979
21
0.55543
0
LINE
8
BLACK
6
CONTINUOUS
10
-0.0763979
20
0.55543
11
-0.0763975
21
0.555431
0
LINE
8
BLACK
6
CONTINUOUS
10
-0.0763975
20
0.555431
11
-0.0713411
21
0.562126
0
LINE
8
BLACK
6
CONTINUOUS
10
-0.0713411
20
0.562126
11
-0.0713409
21
0.562127
0
LINE
8
BLACK
6
CONTINUOUS
10
-0.0713409
20
0.562127
11
-0.067601
21
0.569637
0
LINE
8
BLACK
6
CONTINUOUS
10
-0.067601
20
0.569637
11
-0.0657727
21
0.576063
0
LINE
8
BLACK
6
CONTINUOUS
10
-0.0657727
20
0.576063
11
-0.0782552
21
0.576063
0
LINE
8
BLACK
6
CONTINUOUS
10
-0.0782552
20
0.576063
11
-0.0794286
21
0.572452
0
LINE
8
BLACK
6
CONTINUOUS
10
0.535197
20
0.597244
11
0.535197
21
0.585433
0
LINE
8
BLACK
6
CONTINUOUS
10
0.535197
20
0.585433
11
0.537008
21
0.585433
0
LINE
8
BLACK
6
CONTINUOUS
10
0.537008
20
0.585433
11
0.540774
21
0.584684
0
LINE
8
BLACK
6
CONTINUOUS
10
0.540774
20
0.584684
11
0.543968
21
0.58255
0
LINE
8
BLACK
6
CONTINUOUS
10
0.543968
20
0.58255
11
0.546101
21
0.579357
0
LINE
8
BLACK
6
CONTINUOUS
10
0.546101
20
0.579357
11
0.54685
21
0.575591
0
LINE
8
BLACK
6
CONTINUOUS
10
0.54685
20
0.575591
11
0.54685
21
0.57378
0
LINE
8
BLACK
6
CONTINUOUS
10
0.54685
20
0.57378
11
0.558661
21
0.57378
0
LINE
8
BLACK
6
CONTINUOUS
10
0.558661
20
0.57378
11
0.558661
21
0.57378
0
LINE
8
BLACK
6
CONTINUOUS
10
0.558661
20
0.57378
11
0.558661
21
0.577286
0
LINE
8
BLACK
6
CONTINUOUS
10
0.558661
20
0.577286
11
0.558661
21
0.577286
0
LINE
8
BLACK
6
CONTINUOUS
10
0.558661
20
0.577286
11
0.558244
21
0.580766
0
LINE
8
BLACK
6
CONTINUOUS
10
0.558244
20
0.580766
11
0.55606
21
0.586303
0
LINE
8
BLACK
6
CONTINUOUS
10
0.55606
20
0.586303
11
0.552463
21
0.591046
0
LINE
8
BLACK
6
CONTINUOUS
10
0.552463
20
0.591046
11
0.54772
21
0.594643
0
LINE
8
BLACK
6
CONTINUOUS
10
0.54772
20
0.594643
11
0.542183
21
0.596826
0
LINE
8
BLACK
6
CONTINUOUS
10
0.542183
20
0.596826
11
0.538703
21
0.597244
0
LINE
8
BLACK
6
CONTINUOUS
10
0.538703
20
0.597244
11
0.535197
21
0.597244
0
LINE
8
BLACK
6
CONTINUOUS
10
0.535197
20
0.597244
11
0.535197
21
0.597244
0
LINE
8
BLACK
6
CONTINUOUS
10
0.1
20
0.631339
11
0.1
21
0.619528
0
LINE
8
BLACK
6
CONTINUOUS
10
0.1
20
0.619528
11
0.123465
21
0.619528
0
LINE
8
BLACK
6
CONTINUOUS
10
0.123465
20
0.619528
11
0.123465
21
0.596063
0
LINE
8
BLACK
6
CONTINUOUS
10
0.123465
20
0.596063
11
0.135276
21
0.596063
0
LINE
8
BLACK
6
CONTINUOUS
10
0.135276
20
0.596063
11
0.135276
21
0.596063
0
LINE
8
BLACK
6
CONTINUOUS
10
0.135276
20
0.596063
11
0.135276
21
0.621291
0
LINE
8
BLACK
6
CONTINUOUS
10
0.135276
20
0.621291
11
0.135276
21
0.621291
0
LINE
8
BLACK
6
CONTINUOUS
10
0.135276
20
0.621291
11
0.135161
21
0.622279
0
LINE
8
BLACK
6
CONTINUOUS
10
0.135161
20
0.622279
11
0.133377
21
0.626318
0
LINE
8
BLACK
6
CONTINUOUS
10
0.133377
20
0.626318
11
0.130255
21
0.62944
0
LINE
8
BLACK
6
CONTINUOUS
10
0.130255
20
0.62944
11
0.126215
21
0.631224
0
LINE
8
BLACK
6
CONTINUOUS
10
0.126215
20
0.631224
11
0.125228
21
0.631339
0
LINE
8
BLACK
6
CONTINUOUS
10
0.125228
20
0.631339
11
0.1
21
0.631339
0
LINE
8
BLACK
6
CONTINUOUS
10
0.1
20
0.631339
11
0.1
21
0.631339
0
LINE
8
BLACK
6
CONTINUOUS
10
-0.1
20
0.617962
11
-0.0996589
21
0.61789
0
LINE
8
BLACK
6
CONTINUOUS
10
-0.0996589
20
0.61789
11
-0.0932677
21
0.615044
0
LINE
8
BLACK
6
CONTINUOUS
10
-0.0932677
20
0.615044
11
-0.0876078
21
0.610932
0
LINE
8
BLACK
6
CONTINUOUS
10
-0.0876078
20
0.610932
11
-0.0829266
21
0.605733
0
LINE
8
BLACK
6
CONTINUOUS
10
-0.0829266
20
0.605733
11
-0.0794286
21
0.599674
0
LINE
8
BLACK
6
CONTINUOUS
10
-0.0794286
20
0.599674
11
-0.0782552
21
0.596063
0
LINE
8
BLACK
6
CONTINUOUS
10
-0.0782552
20
0.596063
11
-0.0657727
21
0.596063
0
LINE
8
BLACK
6
CONTINUOUS
10
-0.0657727
20
0.596063
11
-0.067601
21
0.602489
0
LINE
8
BLACK
6
CONTINUOUS
10
-0.067601
20
0.602489
11
-0.0713409
21
0.609999
0
LINE
8
BLACK
6
CONTINUOUS
10
-0.0713409
20
0.609999
11
-0.0713411
21
0.61
0
LINE
8
BLACK
6
CONTINUOUS
10
-0.0713411
20
0.61
11
-0.0763975
21
0.616695
0
LINE
8
BLACK
6
CONTINUOUS
10
-0.0763975
20
0.616695
11
-0.0763979
21
0.616696
0
LINE
8
BLACK
6
CONTINUOUS
10
-0.0763979
20
0.616696
11
-0.0825983
21
0.622348
0
LINE
8
BLACK
6
CONTINUOUS
10
-0.0825983
20
0.622348
11
-0.0825982
21
0.622348
0
LINE
8
BLACK
6
CONTINUOUS
10
-0.0825982
20
0.622348
11
-0.0897326
21
0.626766
0
LINE
8
BLACK
6
CONTINUOUS
10
-0.0897326
20
0.626766
11
-0.0975567
21
0.629797
0
LINE
8
BLACK
6
CONTINUOUS
10
-0.0975567
20
0.629797
11
-0.0975569
21
0.629797
0
LINE
8
BLACK
6
CONTINUOUS
10
-0.0975569
20
0.629797
11
-0.1
21
0.630254
0
LINE
8
BLACK
6
CONTINUOUS
10
-0.1
20
0.630254
11
-0.1
21
0.617962
0
LINE
8
BLACK
6
CONTINUOUS
10
-0.122443
20
0.629797
11
-0.122443
21
0.629797
0
LINE
8
BLACK
6
CONTINUOUS
10
-0.122443
20
0.629797
11
-0.130267
21
0.626766
0
LINE
8
BLACK
6
CONTINUOUS
10
-0.130267
20
0.626766
11
-0.137402
21
0.622348
0
LINE
8
BLACK
6
CONTINUOUS
10
-0.137402
20
0.622348
11
-0.143602
21
0.616696
0
LINE
8
BLACK
6
CONTINUOUS
10
-0.143602
20
0.616696
11
-0.143603
21
0.616695
0
LINE
8
BLACK
6
CONTINUOUS
10
-0.143603
20
0.616695
11
-0.148659
21
0.61
0
LINE
8
BLACK
6
CONTINUOUS
10
-0.148659
20
0.61
11
-0.148659
21
0.609999
0
LINE
8
BLACK
6
CONTINUOUS
10
-0.148659
20
0.609999
11
-0.152399
21
0.602489
0
LINE
8
BLACK
6
CONTINUOUS
10
-0.152399
20
0.602489
11
-0.154227
21
0.596063
0
LINE
8
BLACK
6
CONTINUOUS
10
-0.154227
20
0.596063
11
-0.141745
21
0.596063
0
LINE
8
BLACK
6
CONTINUOUS
10
-0.141745
20
0.596063
11
-0.140571
21
0.599674
0
LINE
8
BLACK
6
CONTINUOUS
10
-0.140571
20
0.599674
11
-0.137073
21
0.605733
0
LINE
8
BLACK
6
CONTINUOUS
10
-0.137073
20
0.605733
11
-0.132392
21
0.610932
0
LINE
8
BLACK
6
CONTINUOUS
10
-0.132392
20
0.610932
11
-0.126732
21
0.615044
0
LINE
8
BLACK
6
CONTINUOUS
10
-0.126732
20
0.615044
11
-0.120341
21
0.61789
0
LINE
8
BLACK
6
CONTINUOUS
10
-0.120341
20
0.61789
11
-0.12
21
0.617962
0
LINE
8
BLACK
6
CONTINUOUS
10
-0.12
20
0.617962
11
-0.12
21
0.630254
0
LINE
8
BLACK
6
CONTINUOUS
10
-0.12
20
0.630254
11
-0.122443
21
0.629797
0
LINE
8
BLACK
6
CONTINUOUS
10
0.192278
20
0.747481
11
0.192278
21
0.747481
0
LINE
8
BLACK
6
CONTINUOUS
10
0.192278
20
0.747481
11
0.184853
21
0.745229
0
LINE
8
BLACK
6
CONTINUOUS
10
0.184853
20
0.745229
11
0.184853
21
0.745229
0
LINE
8
BLACK
6
CONTINUOUS
10
0.184853
20
0.745229
11
0.178011
21
0.741571
0
LINE
8
BLACK
6
CONTINUOUS
10
0.178011
20
0.741571
11
0.17801
21
0.741571
0
LINE
8
BLACK
6
CONTINUOUS
10
0.17801
20
0.741571
11
0.172013
21
0.736649
0
LINE
8
BLACK
6
CONTINUOUS
10
0.172013
20
0.736649
11
0.172012
21
0.736649
0
LINE
8
BLACK
6
CONTINUOUS
10
0.172012
20
0.736649
11
0.16709
21
0.730651
0
LINE
8
BLACK
6
CONTINUOUS
10
0.16709
20
0.730651
11
0.16709
21
0.730651
0
LINE
8
BLACK
6
CONTINUOUS
10
0.16709
20
0.730651
11
0.163433
21
0.723808
0
LINE
8
BLACK
6
CONTINUOUS
10
0.163433
20
0.723808
11
0.163433
21
0.723808
0
LINE
8
BLACK
6
CONTINUOUS
10
0.163433
20
0.723808
11
0.16118
21
0.716383
0
LINE
8
BLACK
6
CONTINUOUS
10
0.16118
20
0.716383
11
0.16118
21
0.716383
0
LINE
8
BLACK
6
CONTINUOUS
10
0.16118
20
0.716383
11
0.16042
21
0.708662
0
LINE
8
BLACK
6
CONTINUOUS
10
0.16042
20
0.708662
11
0.16042
21
0.708661
0
LINE
8
BLACK
6
CONTINUOUS
10
0.16042
20
0.708661
11
0.16118
21
0.70094
0
LINE
8
BLACK
6
CONTINUOUS
10
0.16118
20
0.70094
11
0.16118
21
0.70094
0
LINE
8
BLACK
6
CONTINUOUS
10
0.16118
20
0.70094
11
0.163433
21
0.693515
0
LINE
8
BLACK
6
CONTINUOUS
10
0.163433
20
0.693515
11
0.163433
21
0.693514
0
LINE
8
BLACK
6
CONTINUOUS
10
0.163433
20
0.693514
11
0.166229
21
0.688283
0
LINE
8
BLACK
6
CONTINUOUS
10
0.166229
20
0.688283
11
0.16709
21
0.686672
0
LINE
8
BLACK
6
CONTINUOUS
10
0.16709
20
0.686672
11
0.16709
21
0.686672
0
LINE
8
BLACK
6
CONTINUOUS
10
0.16709
20
0.686672
11
0.16709
21
0.686672
0
LINE
8
BLACK
6
CONTINUOUS
10
0.16709
20
0.686672
11
0.172012
21
0.680674
0
LINE
8
BLACK
6
CONTINUOUS
10
0.172012
20
0.680674
11
0.172013
21
0.680674
0
LINE
8
BLACK
6
CONTINUOUS
10
0.172013
20
0.680674
11
0.17801
21
0.675752
0
LINE
8
BLACK
6
CONTINUOUS
10
0.17801
20
0.675752
11
0.17801
21
0.675752
0
LINE
8
BLACK
6
CONTINUOUS
10
0.17801
20
0.675752
11
0.184853
21
0.672094
0
LINE
8
BLACK
6
CONTINUOUS
10
0.184853
20
0.672094
11
0.192278
21
0.669842
0
LINE
8
BLACK
6
CONTINUOUS
10
0.192278
20
0.669842
11
0.192278
21
0.669842
0
LINE
8
BLACK
6
CONTINUOUS
10
0.192278
20
0.669842
11
0.192278
21
0.669842
0
LINE
8
BLACK
6
CONTINUOUS
10
0.192278
20
0.669842
11
0.2
21
0.669081
0
LINE
8
BLACK
6
CONTINUOUS
10
0.2
20
0.669081
11
0.2
21
0.669081
0
LINE
8
BLACK
6
CONTINUOUS
10
0.2
20
0.669081
11
0.2
21
0.669081
0
LINE
8
BLACK
6
CONTINUOUS
10
0.2
20
0.669081
11
0.207721
21
0.669842
0
LINE
8
BLACK
6
CONTINUOUS
10
0.207721
20
0.669842
11
0.207722
21
0.669842
0
LINE
8
BLACK
6
CONTINUOUS
10
0.207722
20
0.669842
11
0.207722
21
0.669842
0
LINE
8
BLACK
6
CONTINUOUS
10
0.207722
20
0.669842
11
0.215147
21
0.672094
0
LINE
8
BLACK
6
CONTINUOUS
10
0.215147
20
0.672094
11
0.22199
21
0.675752
0
LINE
8
BLACK
6
CONTINUOUS
10
0.22199
20
0.675752
11
0.227988
21
0.680674
0
LINE
8
BLACK
6
CONTINUOUS
10
0.227988
20
0.680674
11
0.23291
21
0.686672
0
LINE
8
BLACK
6
CONTINUOUS
10
0.23291
20
0.686672
11
0.236567
21
0.693515
0
LINE
8
BLACK
6
CONTINUOUS
10
0.236567
20
0.693515
11
0.23882
21
0.70094
0
LINE
8
BLACK
6
CONTINUOUS
10
0.23882
20
0.70094
11
0.23958
21
0.708661
0
LINE
8
BLACK
6
CONTINUOUS
10
0.23958
20
0.708661
11
0.23958
21
0.708662
0
LINE
8
BLACK
6
CONTINUOUS
10
0.23958
20
0.708662
11
0.23882
21
0.716383
0
LINE
8
BLACK
6
CONTINUOUS
10
0.23882
20
0.716383
11
0.23882
21
0.716383
0
LINE
8
BLACK
6
CONTINUOUS
10
0.23882
20
0.716383
11
0.23882
21
0.716383
0
LINE
8
BLACK
6
CONTINUOUS
10
0.23882
20
0.716383
11
0.236567
21
0.723808
0
LINE
8
BLACK
6
CONTINUOUS
10
0.236567
20
0.723808
11
0.23291
21
0.730651
0
LINE
8
BLACK
6
CONTINUOUS
10
0.23291
20
0.730651
11
0.23291
21
0.730651
0
LINE
8
BLACK
6
CONTINUOUS
10
0.23291
20
0.730651
11
0.227988
21
0.736649
0
LINE
8
BLACK
6
CONTINUOUS
10
0.227988
20
0.736649
11
0.227987
21
0.736649
0
LINE
8
BLACK
6
CONTINUOUS
10
0.227987
20
0.736649
11
0.22199
21
0.741571
0
LINE
8
BLACK
6
CONTINUOUS
10
0.22199
20
0.741571
11
0.22199
21
0.741571
0
LINE
8
BLACK
6
CONTINUOUS
10
0.22199
20
0.741571
11
0.22199
21
0.741571
0
LINE
8
BLACK
6
CONTINUOUS
10
0.22199
20
0.741571
11
0.220379
21
0.742432
0
LINE
8
BLACK
6
CONTINUOUS
10
0.220379
20
0.742432
11
0.215147
21
0.745229
0
LINE
8
BLACK
6
CONTINUOUS
10
0.215147
20
0.745229
11
0.215147
21
0.745229
0
LINE
8
BLACK
6
CONTINUOUS
10
0.215147
20
0.745229
11
0.207722
21
0.747481
0
LINE
8
BLACK
6
CONTINUOUS
10
0.207722
20
0.747481
11
0.207721
21
0.747481
0
LINE
8
BLACK
6
CONTINUOUS
10
0.207721
20
0.747481
11
0.2
21
0.748242
0
LINE
8
BLACK
6
CONTINUOUS
10
0.2
20
0.748242
11
0.2
21
0.748242
0
LINE
8
BLACK
6
CONTINUOUS
10
0.2
20
0.748242
11
0.192278
21
0.747481
0
LINE
8
BLACK
6
CONTINUOUS
10
0.210787
20
-0.00590551
11
0.221183
21
-0.00590551
0
LINE
8
BLACK
6
CONTINUOUS
10
0.221183
20
-0.00590551
11
0.221184
21
-0.00590547
0
LINE
8
BLACK
6
CONTINUOUS
10
0.221184
20
-0.00590547
11
0.224663
21
-0.00548764
0
LINE
8
BLACK
6
CONTINUOUS
10
0.224663
20
-0.00548764
11
0.230201
21
-0.0033039
0
LINE
8
BLACK
6
CONTINUOUS
10
0.230201
20
-0.0033039
11
0.234943
21
0.000292756
0
LINE
8
BLACK
6
CONTINUOUS
10
0.234943
20
0.000292756
11
0.23854
21
0.00503563
0
LINE
8
BLACK
6
CONTINUOUS
10
0.23854
20
0.00503563
11
0.240724
21
0.0105731
0
LINE
8
BLACK
6
CONTINUOUS
10
0.240724
20
0.0105731
11
0.241142
21
0.0140526
0
LINE
8
BLACK
6
CONTINUOUS
10
0.241142
20
0.0140526
11
0.241142
21
0.0140528
0
LINE
8
BLACK
6
CONTINUOUS
10
0.241142
20
0.0140528
11
0.241142
21
0.0155905
0
LINE
8
BLACK
6
CONTINUOUS
10
0.241142
20
0.0155905
11
0.241142
21
0.0155906
0
LINE
8
BLACK
6
CONTINUOUS
10
0.241142
20
0.0155906
11
0.229299
21
0.0155906
0
LINE
8
BLACK
6
CONTINUOUS
10
0.229299
20
0.0155906
11
0.228581
21
0.0119815
0
LINE
8
BLACK
6
CONTINUOUS
10
0.228581
20
0.0119815
11
0.226448
21
0.00878831
0
LINE
8
BLACK
6
CONTINUOUS
10
0.226448
20
0.00878831
11
0.223255
21
0.00665472
0
LINE
8
BLACK
6
CONTINUOUS
10
0.223255
20
0.00665472
11
0.219488
21
0.00590551
0
LINE
8
BLACK
6
CONTINUOUS
10
0.219488
20
0.00590551
11
0.210787
21
0.00590551
0
LINE
8
BLACK
6
CONTINUOUS
10
0.210787
20
0.00590551
11
0.210787
21
-0.00590547
0
LINE
8
BLACK
6
CONTINUOUS
10
0.210787
20
-0.00590547
11
0.210787
21
-0.00590551
0
LINE
8
BLACK
6
CONTINUOUS
10
0.126142
20
0.128937
11
0.127679
21
0.128937
0
LINE
8
BLACK
6
CONTINUOUS
10
0.127679
20
0.128937
11
0.12768
21
0.128937
0
LINE
8
BLACK
6
CONTINUOUS
10
0.12768
20
0.128937
11
0.131159
21
0.129355
0
LINE
8
BLACK
6
CONTINUOUS
10
0.131159
20
0.129355
11
0.136697
21
0.131539
0
LINE
8
BLACK
6
CONTINUOUS
10
0.136697
20
0.131539
11
0.14144
21
0.135135
0
LINE
8
BLACK
6
CONTINUOUS
10
0.14144
20
0.135135
11
0.145036
21
0.139878
0
LINE
8
BLACK
6
CONTINUOUS
10
0.145036
20
0.139878
11
0.14722
21
0.145416
0
LINE
8
BLACK
6
CONTINUOUS
10
0.14722
20
0.145416
11
0.147638
21
0.148895
0
LINE
8
BLACK
6
CONTINUOUS
10
0.147638
20
0.148895
11
0.147638
21
0.148895
0
LINE
8
BLACK
6
CONTINUOUS
10
0.147638
20
0.148895
11
0.147638
21
0.159291
0
LINE
8
BLACK
6
CONTINUOUS
10
0.147638
20
0.159291
11
0.135827
21
0.159291
0
LINE
8
BLACK
6
CONTINUOUS
10
0.135827
20
0.159291
11
0.135827
21
0.150591
0
LINE
8
BLACK
6
CONTINUOUS
10
0.135827
20
0.150591
11
0.135078
21
0.146824
0
LINE
8
BLACK
6
CONTINUOUS
10
0.135078
20
0.146824
11
0.132944
21
0.143631
0
LINE
8
BLACK
6
CONTINUOUS
10
0.132944
20
0.143631
11
0.129751
21
0.141497
0
LINE
8
BLACK
6
CONTINUOUS
10
0.129751
20
0.141497
11
0.126142
21
0.140779
0
LINE
8
BLACK
6
CONTINUOUS
10
0.126142
20
0.140779
11
0.126142
21
0.128937
0
LINE
8
BLACK
6
CONTINUOUS
10
0.126142
20
0.128937
11
0.126142
21
0.128937
0
LINE
8
BLACK
6
CONTINUOUS
10
0.0850635
20
0.145416
11
0.0872472
21
0.139878
0
LINE
8
BLACK
6
CONTINUOUS
10
0.0872472
20
0.139878
11
0.0908439
21
0.135135
0
LINE
8
BLACK
6
CONTINUOUS
10
0.0908439
20
0.135135
11
0.0955868
21
0.131539
0
LINE
8
BLACK
6
CONTINUOUS
10
0.0955868
20
0.131539
11
0.101124
21
0.129355
0
LINE
8
BLACK
6
CONTINUOUS
10
0.101124
20
0.129355
11
0.104604
21
0.128937
0
LINE
8
BLACK
6
CONTINUOUS
10
0.104604
20
0.128937
11
0.104604
21
0.128937
0
LINE
8
BLACK
6
CONTINUOUS
10
0.104604
20
0.128937
11
0.106142
21
0.128937
0
LINE
8
BLACK
6
CONTINUOUS
10
0.106142
20
0.128937
11
0.106142
21
0.128937
0
LINE
8
BLACK
6
CONTINUOUS
10
0.106142
20
0.128937
11
0.106142
21
0.128937
0
LINE
8
BLACK
6
CONTINUOUS
10
0.106142
20
0.128937
11
0.106142
21
0.140779
0
LINE
8
BLACK
6
CONTINUOUS
10
0.106142
20
0.140779
11
0.102533
21
0.141497
0
LINE
8
BLACK
6
CONTINUOUS
10
0.102533
20
0.141497
11
0.0993395
21
0.143631
0
LINE
8
BLACK
6
CONTINUOUS
10
0.0993395
20
0.143631
11
0.0972059
21
0.146824
0
LINE
8
BLACK
6
CONTINUOUS
10
0.0972059
20
0.146824
11
0.0964567
21
0.150591
0
LINE
8
BLACK
6
CONTINUOUS
10
0.0964567
20
0.150591
11
0.0964567
21
0.159291
0
LINE
8
BLACK
6
CONTINUOUS
10
0.0964567
20
0.159291
11
0.0846457
21
0.159291
0
LINE
8
BLACK
6
CONTINUOUS
10
0.0846457
20
0.159291
11
0.0846457
21
0.159291
0
LINE
8
BLACK
6
CONTINUOUS
10
0.0846457
20
0.159291
11
0.0846457
21
0.148895
0
LINE
8
BLACK
6
CONTINUOUS
10
0.0846457
20
0.148895
11
0.0850635
21
0.145416
0
LINE
8
BLACK
6
CONTINUOUS
10
0.0846457
20
0.179291
11
0.0964567
21
0.179291
0
LINE
8
BLACK
6
CONTINUOUS
10
0.0964567
20
0.179291
11
0.0964567
21
0.187992
0
LINE
8
BLACK
6
CONTINUOUS
10
0.0964567
20
0.187992
11
0.0972059
21
0.191759
0
LINE
8
BLACK
6
CONTINUOUS
10
0.0972059
20
0.191759
11
0.0993395
21
0.194952
0
LINE
8
BLACK
6
CONTINUOUS
10
0.0993395
20
0.194952
11
0.102533
21
0.197085
0
LINE
8
BLACK
6
CONTINUOUS
10
0.102533
20
0.197085
11
0.106142
21
0.197803
0
LINE
8
BLACK
6
CONTINUOUS
10
0.106142
20
0.197803
11
0.106142
21
0.209646
0
LINE
8
BLACK
6
CONTINUOUS
10
0.106142
20
0.209646
11
0.106142
21
0.209646
0
LINE
8
BLACK
6
CONTINUOUS
10
0.106142
20
0.209646
11
0.104604
21
0.209646
0
LINE
8
BLACK
6
CONTINUOUS
10
0.104604
20
0.209646
11
0.101124
21
0.209228
0
LINE
8
BLACK
6
CONTINUOUS
10
0.101124
20
0.209228
11
0.0955868
21
0.207044
0
LINE
8
BLACK
6
CONTINUOUS
10
0.0955868
20
0.207044
11
0.0908439
21
0.203447
0
LINE
8
BLACK
6
CONTINUOUS
10
0.0908439
20
0.203447
11
0.0872472
21
0.198705
0
LINE
8
BLACK
6
CONTINUOUS
10
0.0872472
20
0.198705
11
0.0850635
21
0.193167
0
LINE
8
BLACK
6
CONTINUOUS
10
0.0850635
20
0.193167
11
0.0846457
21
0.189688
0
LINE
8
BLACK
6
CONTINUOUS
10
0.0846457
20
0.189688
11
0.0846457
21
0.179291
0
LINE
8
BLACK
6
CONTINUOUS
10
0.0846457
20
0.179291
11
0.0846457
21
0.179291
0
LINE
8
BLACK
6
CONTINUOUS
10
-0.153661
20
0.41
11
-0.14185
21
0.41
0
LINE
8
BLACK
6
CONTINUOUS
10
-0.14185
20
0.41
11
-0.14185
21
0.412795
0
LINE
8
BLACK
6
CONTINUOUS
10
-0.14185
20
0.412795
11
-0.11937
21
0.412795
0
LINE
8
BLACK
6
CONTINUOUS
10
-0.11937
20
0.412795
11
-0.11937
21
0.424606
0
LINE
8
BLACK
6
CONTINUOUS
10
-0.11937
20
0.424606
11
-0.143614
21
0.424606
0
LINE
8
BLACK
6
CONTINUOUS
10
-0.143614
20
0.424606
11
-0.143614
21
0.424606
0
LINE
8
BLACK
6
CONTINUOUS
10
-0.143614
20
0.424606
11
-0.144601
21
0.424492
0
LINE
8
BLACK
6
CONTINUOUS
10
-0.144601
20
0.424492
11
-0.148641
21
0.422708
0
LINE
8
BLACK
6
CONTINUOUS
10
-0.148641
20
0.422708
11
-0.151763
21
0.419586
0
LINE
8
BLACK
6
CONTINUOUS
10
-0.151763
20
0.419586
11
-0.153547
21
0.415546
0
LINE
8
BLACK
6
CONTINUOUS
10
-0.153547
20
0.415546
11
-0.153661
21
0.414559
0
LINE
8
BLACK
6
CONTINUOUS
10
-0.153661
20
0.414559
11
-0.153661
21
0.414559
0
LINE
8
BLACK
6
CONTINUOUS
10
-0.153661
20
0.414559
11
-0.153661
21
0.41
0
LINE
8
BLACK
6
CONTINUOUS
10
-0.153661
20
0.41
11
-0.153661
21
0.41
0
LINE
8
BLACK
6
CONTINUOUS
10
-0.152399
20
0.469637
11
-0.148659
21
0.462127
0
LINE
8
BLACK
6
CONTINUOUS
10
-0.148659
20
0.462127
11
-0.148659
21
0.462126
0
LINE
8
BLACK
6
CONTINUOUS
10
-0.148659
20
0.462126
11
-0.143603
21
0.455431
0
LINE
8
BLACK
6
CONTINUOUS
10
-0.143603
20
0.455431
11
-0.143602
21
0.45543
0
LINE
8
BLACK
6
CONTINUOUS
10
-0.143602
20
0.45543
11
-0.137402
21
0.449778
0
LINE
8
BLACK
6
CONTINUOUS
10
-0.137402
20
0.449778
11
-0.137402
21
0.449778
0
LINE
8
BLACK
6
CONTINUOUS
10
-0.137402
20
0.449778
11
-0.130267
21
0.44536
0
LINE
8
BLACK
6
CONTINUOUS
10
-0.130267
20
0.44536
11
-0.122443
21
0.442329
0
LINE
8
BLACK
6
CONTINUOUS
10
-0.122443
20
0.442329
11
-0.12
21
0.441872
0
LINE
8
BLACK
6
CONTINUOUS
10
-0.12
20
0.441872
11
-0.12
21
0.441872
0
LINE
8
BLACK
6
CONTINUOUS
10
-0.12
20
0.441872
11
-0.12
21
0.454164
0
LINE
8
BLACK
6
CONTINUOUS
10
-0.12
20
0.454164
11
-0.120341
21
0.454236
0
LINE
8
BLACK
6
CONTINUOUS
10
-0.120341
20
0.454236
11
-0.126732
21
0.457082
0
LINE
8
BLACK
6
CONTINUOUS
10
-0.126732
20
0.457082
11
-0.132392
21
0.461194
0
LINE
8
BLACK
6
CONTINUOUS
10
-0.132392
20
0.461194
11
-0.137073
21
0.466393
0
LINE
8
BLACK
6
CONTINUOUS
10
-0.137073
20
0.466393
11
-0.140571
21
0.472452
0
LINE
8
BLACK
6
CONTINUOUS
10
-0.140571
20
0.472452
11
-0.141745
21
0.476063
0
LINE
8
BLACK
6
CONTINUOUS
10
-0.141745
20
0.476063
11
-0.154227
21
0.476063
0
LINE
8
BLACK
6
CONTINUOUS
10
-0.154227
20
0.476063
11
-0.152399
21
0.469637
0
LINE
8
BLACK
6
CONTINUOUS
10
0.535197
20
0.530315
11
0.538703
21
0.530315
0
LINE
8
BLACK
6
CONTINUOUS
10
0.538703
20
0.530315
11
0.538703
21
0.530315
0
LINE
8
BLACK
6
CONTINUOUS
10
0.538703
20
0.530315
11
0.542183
21
0.530733
0
LINE
8
BLACK
6
CONTINUOUS
10
0.542183
20
0.530733
11
0.54772
21
0.532917
0
LINE
8
BLACK
6
CONTINUOUS
10
0.54772
20
0.532917
11
0.552463
21
0.536513
0
LINE
8
BLACK
6
CONTINUOUS
10
0.552463
20
0.536513
11
0.55606
21
0.541256
0
LINE
8
BLACK
6
CONTINUOUS
10
0.55606
20
0.541256
11
0.558244
21
0.546794
0
LINE
8
BLACK
6
CONTINUOUS
10
0.558244
20
0.546794
11
0.558661
21
0.550273
0
LINE
8
BLACK
6
CONTINUOUS
10
0.558661
20
0.550273
11
0.558661
21
0.550273
0
LINE
8
BLACK
6
CONTINUOUS
10
0.558661
20
0.550273
11
0.558661
21
0.553779
0
LINE
8
BLACK
6
CONTINUOUS
10
0.558661
20
0.553779
11
0.558661
21
0.55378
0
LINE
8
BLACK
6
CONTINUOUS
10
0.558661
20
0.55378
11
0.54685
21
0.55378
0
LINE
8
BLACK
6
CONTINUOUS
10
0.54685
20
0.55378
11
0.54685
21
0.551969
0
LINE
8
BLACK
6
CONTINUOUS
10
0.54685
20
0.551969
11
0.546101
21
0.548202
0
LINE
8
BLACK
6
CONTINUOUS
10
0.546101
20
0.548202
11
0.543968
21
0.545009
0
LINE
8
BLACK
6
CONTINUOUS
10
0.543968
20
0.545009
11
0.540774
21
0.542875
0
LINE
8
BLACK
6
CONTINUOUS
10
0.540774
20
0.542875
11
0.537008
21
0.542126
0
LINE
8
BLACK
6
CONTINUOUS
10
0.537008
20
0.542126
11
0.535197
21
0.542126
0
LINE
8
BLACK
6
CONTINUOUS
10
0.535197
20
0.542126
11
0.535197
21
0.530315
0
LINE
8
BLACK
6
CONTINUOUS
10
0.535197
20
0.530315
11
0.535197
21
0.530315
0
LINE
8
BLACK
6
CONTINUOUS
10
0.491732
20
0.57378
11
0.503543
21
0.57378
0
LINE
8
BLACK
6
CONTINUOUS
10
0.503543
20
0.57378
11
0.503543
21
0.575591
0
LINE
8
BLACK
6
CONTINUOUS
10
0.503543
20
0.575591
11
0.504293
21
0.579357
0
LINE
8
BLACK
6
CONTINUOUS
10
0.504293
20
0.579357
11
0.506426
21
0.58255
0
LINE
8
BLACK
6
CONTINUOUS
10
0.506426
20
0.58255
11
0.509619
21
0.584684
0
LINE
8
BLACK
6
CONTINUOUS
10
0.509619
20
0.584684
11
0.513386
21
0.585433
0
LINE
8
BLACK
6
CONTINUOUS
10
0.513386
20
0.585433
11
0.515197
21
0.585433
0
LINE
8
BLACK
6
CONTINUOUS
10
0.515197
20
0.585433
11
0.515197
21
0.597244
0
LINE
8
BLACK
6
CONTINUOUS
10
0.515197
20
0.597244
11
0.515197
21
0.597244
0
LINE
8
BLACK
6
CONTINUOUS
10
0.515197
20
0.597244
11
0.51169
21
0.597244
0
LINE
8
BLACK
6
CONTINUOUS
10
0.51169
20
0.597244
11
0.508211
21
0.596826
0
LINE
8
BLACK
6
CONTINUOUS
10
0.508211
20
0.596826
11
0.502673
21
0.594643
0
LINE
8
BLACK
6
CONTINUOUS
10
0.502673
20
0.594643
11
0.497931
21
0.591046
0
LINE
8
BLACK
6
CONTINUOUS
10
0.497931
20
0.591046
11
0.494334
21
0.586303
0
LINE
8
BLACK
6
CONTINUOUS
10
0.494334
20
0.586303
11
0.49215
21
0.580766
0
LINE
8
BLACK
6
CONTINUOUS
10
0.49215
20
0.580766
11
0.491732
21
0.577286
0
LINE
8
BLACK
6
CONTINUOUS
10
0.491732
20
0.577286
11
0.491732
21
0.57378
0
LINE
8
BLACK
6
CONTINUOUS
10
0.491732
20
0.57378
11
0.491732
21
0.57378
0
LINE
8
BLACK
6
CONTINUOUS
10
-0.152399
20
0.569637
11
-0.148659
21
0.562127
0
LINE
8
BLACK
6
CONTINUOUS
10
-0.148659
20
0.562127
11
-0.148659
21
0.562126
0
LINE
8
BLACK
6
CONTINUOUS
10
-0.148659
20
0.562126
11
-0.143603
21
0.555431
0
LINE
8
BLACK
6
CONTINUOUS
10
-0.143603
20
0.555431
11
-0.143602
21
0.55543
0
LINE
8
BLACK
6
CONTINUOUS
10
-0.143602
20
0.55543
11
-0.137402
21
0.549778
0
LINE
8
BLACK
6
CONTINUOUS
10
-0.137402
20
0.549778
11
-0.137402
21
0.549778
0
LINE
8
BLACK
6
CONTINUOUS
10
-0.137402
20
0.549778
11
-0.130267
21
0.54536
0
LINE
8
BLACK
6
CONTINUOUS
10
-0.130267
20
0.54536
11
-0.122443
21
0.542329
0
LINE
8
BLACK
6
CONTINUOUS
10
-0.122443
20
0.542329
11
-0.12
21
0.541872
0
LINE
8
BLACK
6
CONTINUOUS
10
-0.12
20
0.541872
11
-0.12
21
0.541872
0
LINE
8
BLACK
6
CONTINUOUS
10
-0.12
20
0.541872
11
-0.12
21
0.554164
0
LINE
8
BLACK
6
CONTINUOUS
10
-0.12
20
0.554164
11
-0.120341
21
0.554236
0
LINE
8
BLACK
6
CONTINUOUS
10
-0.120341
20
0.554236
11
-0.126732
21
0.557082
0
LINE
8
BLACK
6
CONTINUOUS
10
-0.126732
20
0.557082
11
-0.132392
21
0.561194
0
LINE
8
BLACK
6
CONTINUOUS
10
-0.132392
20
0.561194
11
-0.137073
21
0.566393
0
LINE
8
BLACK
6
CONTINUOUS
10
-0.137073
20
0.566393
11
-0.140571
21
0.572452
0
LINE
8
BLACK
6
CONTINUOUS
10
-0.140571
20
0.572452
11
-0.141745
21
0.576063
0
LINE
8
BLACK
6
CONTINUOUS
10
-0.141745
20
0.576063
11
-0.154227
21
0.576063
0
LINE
8
BLACK
6
CONTINUOUS
10
-0.154227
20
0.576063
11
-0.152399
21
0.569637
0
LINE
8
BLACK
6
CONTINUOUS
10
0.0447244
20
0.596063
11
0.0565354
21
0.596063
0
LINE
8
BLACK
6
CONTINUOUS
10
0.0565354
20
0.596063
11
0.0565354
21
0.619528
0
LINE
8
BLACK
6
CONTINUOUS
10
0.0565354
20
0.619528
11
0.08
21
0.619528
0
LINE
8
BLACK
6
CONTINUOUS
10
0.08
20
0.619528
11
0.08
21
0.631339
0
LINE
8
BLACK
6
CONTINUOUS
10
0.08
20
0.631339
11
0.08
21
0.631339
0
LINE
8
BLACK
6
CONTINUOUS
10
0.08
20
0.631339
11
0.054772
21
0.631339
0
LINE
8
BLACK
6
CONTINUOUS
10
0.054772
20
0.631339
11
0.0547719
21
0.631339
0
LINE
8
BLACK
6
CONTINUOUS
10
0.0547719
20
0.631339
11
0.0537844
21
0.631224
0
LINE
8
BLACK
6
CONTINUOUS
10
0.0537844
20
0.631224
11
0.049745
21
0.62944
0
LINE
8
BLACK
6
CONTINUOUS
10
0.049745
20
0.62944
11
0.0466226
21
0.626318
0
LINE
8
BLACK
6
CONTINUOUS
10
0.0466226
20
0.626318
11
0.0448389
21
0.622278
0
LINE
8
BLACK
6
CONTINUOUS
10
0.0448389
20
0.622278
11
0.0447244
21
0.621291
0
LINE
8
BLACK
6
CONTINUOUS
10
0.0447244
20
0.621291
11
0.0447244
21
0.596063
0
LINE
8
BLACK
6
CONTINUOUS
10
0.0447244
20
0.596063
11
0.0447244
21
0.596063
0
CIRCLE
8
BLACK
10
0.09
20
0.586063
40
0.00688976
0
CIRCLE
8
BLACK
10
0.09
20
0.486063
40
0.00688976
0
CIRCLE
8
BLACK
10
-0.01
20
0.586063
40
0.00688976
0
CIRCLE
8
BLACK
10
-0.01
20
0.486063
40
0.00688976
0
CIRCLE
8
BLACK
10
-0.11
20
0.586063
40
0.00688976
0
CIRCLE
8
BLACK
10
-0.11
20
0.486063
40
0.00688976
0
CIRCLE
8
BLACK
10
0.4
20
0
40
0.00688976
0
CIRCLE
8
BLACK
10
0
20
0.8
40
0.00688976
0
CIRCLE
8
BLACK
10
0.4
20
0.8
40
0.00688976
0
CIRCLE
8
BLACK
10
0.32
20
0.55
40
0.00688976
0
CIRCLE
8
BLACK
10
0.42
20
0.55
40
0.00688976
0
CIRCLE
8
BLACK
10
0.32
20
0.45
40
0.00688976
0
CIRCLE
8
BLACK
10
0.42
20
0.45
40
0.00688976
0
CIRCLE
8
BLACK
10
0.32
20
0.35
40
0.00688976
0
CIRCLE
8
BLACK
10
0.42
20
0.35
40
0.00688976
0
CIRCLE
8
BLACK
10
0.32
20
0.25
40
0.00688976
0
CIRCLE
8
BLACK
10
0.42
20
0.25
40
0.00688976
0
CIRCLE
8
BLACK
10
0
20
0
40
0.00688976
0
CIRCLE
8
BLACK
10
-0.04
20
0.4
40
0.00787402
0
CIRCLE
8
BLACK
10
0.096063
20
0.279602
40
0.00787402
0
CIRCLE
8
BLACK
10
-0.15
20
0.35
40
0.00787402
  0
ENDSEC
  0
EOF
