  0
SECTION
  2
HEADER
  9
$ANGBASE
  50
0.0
  9
$ANGDIR
  70
1
  9
$MEASUREMENT
  70
0
  0
ENDSEC
  0
SECTION
  2
TABLES
  0
TABLE
  2
LTYPE
  70
4
  0
LTYPE
  5
40F
  2
CONTINUOUS
  70
0
  3
Solid line
  72
65
  73
0
  40
0.0
  0
LTYPE
  5
410
  2
DASHDOT
 70
0
  3
Dash Dot ____ _ ____ _
 72
65
 73
4
 40
2.0
 49
1.25
 49
-0.25
 49
0.25
 49
-0.25
  0
LTYPE
  5
411
  2
DASHED
 70
0
  3
Dashed __ __ __ __ __
 72
65
 73
2
 40
0.75
 49
0.5
 49
-0.25
  0
LTYPE
  5
43B
  2
DOTTED
 70
0
  3
Dotted .  .  .  .
 72
65
 73
2
 40
0.2
 49
0.0
 49
-0.2
  0
ENDTAB
  0
TABLE
  2
STYLE
  70
4
  0
STYLE
  2
KICAD
  70
0
  40
0
  41
1
  42
1
  50
0
  71
0
  3
isocp.shx
  0
STYLE
  2
KICADB
  70
0
  40
0
  41
1
  42
1
  50
0
  71
0
  3
isocp.shx
  0
STYLE
  2
KICADI
  70
0
  40
0
  41
1
  42
1
  50
15
  71
0
  3
isocp.shx
  0
STYLE
  2
KICADBI
  70
0
  40
0
  41
1
  42
1
  50
15
  71
0
  3
isocp.shx
  0
ENDTAB
  0
TABLE
  2
LAYER
  70
1
  0
LAYER
  2
BLACK
  70
0
  62
7
  6
CONTINUOUS
  0
ENDTAB
  0
ENDSEC
  0
SECTION
  2
ENTITIES
0
LINE
8
BLACK
6
CONTINUOUS
10
0.223255
20
0.0445264
11
0.226448
21
0.0423928
0
LINE
8
BLACK
6
CONTINUOUS
10
0.226448
20
0.0423928
11
0.228581
21
0.0391996
0
LINE
8
BLACK
6
CONTINUOUS
10
0.228581
20
0.0391996
11
0.229331
21
0.0354331
0
LINE
8
BLACK
6
CONTINUOUS
10
0.229331
20
0.0354331
11
0.229331
21
0.015748
0
LINE
8
BLACK
6
CONTINUOUS
10
0.229331
20
0.015748
11
0.228581
21
0.0119815
0
LINE
8
BLACK
6
CONTINUOUS
10
0.228581
20
0.0119815
11
0.226448
21
0.00878831
0
LINE
8
BLACK
6
CONTINUOUS
10
0.226448
20
0.00878831
11
0.223255
21
0.00665472
0
LINE
8
BLACK
6
CONTINUOUS
10
0.223255
20
0.00665472
11
0.219488
21
0.00590551
0
LINE
8
BLACK
6
CONTINUOUS
10
0.219488
20
0.00590551
11
0.182087
21
0.00590551
0
LINE
8
BLACK
6
CONTINUOUS
10
0.182087
20
0.00590551
11
0.17832
21
0.00665472
0
LINE
8
BLACK
6
CONTINUOUS
10
0.17832
20
0.00665472
11
0.175127
21
0.00878831
0
LINE
8
BLACK
6
CONTINUOUS
10
0.175127
20
0.00878831
11
0.172993
21
0.0119815
0
LINE
8
BLACK
6
CONTINUOUS
10
0.172993
20
0.0119815
11
0.172244
21
0.015748
0
LINE
8
BLACK
6
CONTINUOUS
10
0.172244
20
0.015748
11
0.172244
21
0.0354331
0
LINE
8
BLACK
6
CONTINUOUS
10
0.172244
20
0.0354331
11
0.172993
21
0.0391996
0
LINE
8
BLACK
6
CONTINUOUS
10
0.172993
20
0.0391996
11
0.175127
21
0.0423928
0
LINE
8
BLACK
6
CONTINUOUS
10
0.175127
20
0.0423928
11
0.17832
21
0.0445264
0
LINE
8
BLACK
6
CONTINUOUS
10
0.17832
20
0.0445264
11
0.182087
21
0.0452756
0
LINE
8
BLACK
6
CONTINUOUS
10
0.182087
20
0.0452756
11
0.219488
21
0.0452756
0
LINE
8
BLACK
6
CONTINUOUS
10
0.219488
20
0.0452756
11
0.223255
21
0.0445264
0
LINE
8
BLACK
6
CONTINUOUS
10
0.223255
20
0.11933
11
0.226448
21
0.117196
0
LINE
8
BLACK
6
CONTINUOUS
10
0.226448
20
0.117196
11
0.228581
21
0.114003
0
LINE
8
BLACK
6
CONTINUOUS
10
0.228581
20
0.114003
11
0.229331
21
0.110236
0
LINE
8
BLACK
6
CONTINUOUS
10
0.229331
20
0.110236
11
0.229331
21
0.0905512
0
LINE
8
BLACK
6
CONTINUOUS
10
0.229331
20
0.0905512
11
0.228581
21
0.0867846
0
LINE
8
BLACK
6
CONTINUOUS
10
0.228581
20
0.0867846
11
0.226448
21
0.0835915
0
LINE
8
BLACK
6
CONTINUOUS
10
0.226448
20
0.0835915
11
0.223255
21
0.0814579
0
LINE
8
BLACK
6
CONTINUOUS
10
0.223255
20
0.0814579
11
0.219488
21
0.0807087
0
LINE
8
BLACK
6
CONTINUOUS
10
0.219488
20
0.0807087
11
0.182087
21
0.0807087
0
LINE
8
BLACK
6
CONTINUOUS
10
0.182087
20
0.0807087
11
0.17832
21
0.0814579
0
LINE
8
BLACK
6
CONTINUOUS
10
0.17832
20
0.0814579
11
0.175127
21
0.0835915
0
LINE
8
BLACK
6
CONTINUOUS
10
0.175127
20
0.0835915
11
0.172993
21
0.0867846
0
LINE
8
BLACK
6
CONTINUOUS
10
0.172993
20
0.0867846
11
0.172244
21
0.0905512
0
LINE
8
BLACK
6
CONTINUOUS
10
0.172244
20
0.0905512
11
0.172244
21
0.110236
0
LINE
8
BLACK
6
CONTINUOUS
10
0.172244
20
0.110236
11
0.172993
21
0.114003
0
LINE
8
BLACK
6
CONTINUOUS
10
0.172993
20
0.114003
11
0.175127
21
0.117196
0
LINE
8
BLACK
6
CONTINUOUS
10
0.175127
20
0.117196
11
0.17832
21
0.11933
0
LINE
8
BLACK
6
CONTINUOUS
10
0.17832
20
0.11933
11
0.182087
21
0.120079
0
LINE
8
BLACK
6
CONTINUOUS
10
0.182087
20
0.120079
11
0.219488
21
0.120079
0
LINE
8
BLACK
6
CONTINUOUS
10
0.219488
20
0.120079
11
0.223255
21
0.11933
0
LINE
8
BLACK
6
CONTINUOUS
10
0.129751
20
0.197085
11
0.132944
21
0.194952
0
LINE
8
BLACK
6
CONTINUOUS
10
0.132944
20
0.194952
11
0.135078
21
0.191759
0
LINE
8
BLACK
6
CONTINUOUS
10
0.135078
20
0.191759
11
0.135827
21
0.187992
0
LINE
8
BLACK
6
CONTINUOUS
10
0.135827
20
0.187992
11
0.135827
21
0.150591
0
LINE
8
BLACK
6
CONTINUOUS
10
0.135827
20
0.150591
11
0.135078
21
0.146824
0
LINE
8
BLACK
6
CONTINUOUS
10
0.135078
20
0.146824
11
0.132944
21
0.143631
0
LINE
8
BLACK
6
CONTINUOUS
10
0.132944
20
0.143631
11
0.129751
21
0.141497
0
LINE
8
BLACK
6
CONTINUOUS
10
0.129751
20
0.141497
11
0.125984
21
0.140748
0
LINE
8
BLACK
6
CONTINUOUS
10
0.125984
20
0.140748
11
0.106299
21
0.140748
0
LINE
8
BLACK
6
CONTINUOUS
10
0.106299
20
0.140748
11
0.102533
21
0.141497
0
LINE
8
BLACK
6
CONTINUOUS
10
0.102533
20
0.141497
11
0.0993395
21
0.143631
0
LINE
8
BLACK
6
CONTINUOUS
10
0.0993395
20
0.143631
11
0.0972059
21
0.146824
0
LINE
8
BLACK
6
CONTINUOUS
10
0.0972059
20
0.146824
11
0.0964567
21
0.150591
0
LINE
8
BLACK
6
CONTINUOUS
10
0.0964567
20
0.150591
11
0.0964567
21
0.187992
0
LINE
8
BLACK
6
CONTINUOUS
10
0.0964567
20
0.187992
11
0.0972059
21
0.191759
0
LINE
8
BLACK
6
CONTINUOUS
10
0.0972059
20
0.191759
11
0.0993395
21
0.194952
0
LINE
8
BLACK
6
CONTINUOUS
10
0.0993395
20
0.194952
11
0.102533
21
0.197085
0
LINE
8
BLACK
6
CONTINUOUS
10
0.102533
20
0.197085
11
0.106299
21
0.197835
0
LINE
8
BLACK
6
CONTINUOUS
10
0.106299
20
0.197835
11
0.125984
21
0.197835
0
LINE
8
BLACK
6
CONTINUOUS
10
0.125984
20
0.197835
11
0.129751
21
0.197085
0
LINE
8
BLACK
6
CONTINUOUS
10
0.204554
20
0.197085
11
0.207747
21
0.194952
0
LINE
8
BLACK
6
CONTINUOUS
10
0.207747
20
0.194952
11
0.209881
21
0.191759
0
LINE
8
BLACK
6
CONTINUOUS
10
0.209881
20
0.191759
11
0.21063
21
0.187992
0
LINE
8
BLACK
6
CONTINUOUS
10
0.21063
20
0.187992
11
0.21063
21
0.150591
0
LINE
8
BLACK
6
CONTINUOUS
10
0.21063
20
0.150591
11
0.209881
21
0.146824
0
LINE
8
BLACK
6
CONTINUOUS
10
0.209881
20
0.146824
11
0.207747
21
0.143631
0
LINE
8
BLACK
6
CONTINUOUS
10
0.207747
20
0.143631
11
0.204554
21
0.141497
0
LINE
8
BLACK
6
CONTINUOUS
10
0.204554
20
0.141497
11
0.200787
21
0.140748
0
LINE
8
BLACK
6
CONTINUOUS
10
0.200787
20
0.140748
11
0.181102
21
0.140748
0
LINE
8
BLACK
6
CONTINUOUS
10
0.181102
20
0.140748
11
0.177336
21
0.141497
0
LINE
8
BLACK
6
CONTINUOUS
10
0.177336
20
0.141497
11
0.174143
21
0.143631
0
LINE
8
BLACK
6
CONTINUOUS
10
0.174143
20
0.143631
11
0.172009
21
0.146824
0
LINE
8
BLACK
6
CONTINUOUS
10
0.172009
20
0.146824
11
0.17126
21
0.150591
0
LINE
8
BLACK
6
CONTINUOUS
10
0.17126
20
0.150591
11
0.17126
21
0.187992
0
LINE
8
BLACK
6
CONTINUOUS
10
0.17126
20
0.187992
11
0.172009
21
0.191759
0
LINE
8
BLACK
6
CONTINUOUS
10
0.172009
20
0.191759
11
0.174143
21
0.194952
0
LINE
8
BLACK
6
CONTINUOUS
10
0.174143
20
0.194952
11
0.177336
21
0.197085
0
LINE
8
BLACK
6
CONTINUOUS
10
0.177336
20
0.197085
11
0.181102
21
0.197835
0
LINE
8
BLACK
6
CONTINUOUS
10
0.181102
20
0.197835
11
0.200787
21
0.197835
0
LINE
8
BLACK
6
CONTINUOUS
10
0.200787
20
0.197835
11
0.204554
21
0.197085
0
LINE
8
BLACK
6
CONTINUOUS
10
-0.0768898
20
0.237205
11
-0.14185
21
0.237205
0
LINE
8
BLACK
6
CONTINUOUS
10
-0.14185
20
0.237205
11
-0.14185
21
0.262795
0
LINE
8
BLACK
6
CONTINUOUS
10
-0.14185
20
0.262795
11
-0.0768898
21
0.262795
0
LINE
8
BLACK
6
CONTINUOUS
10
-0.0768898
20
0.262795
11
-0.0768898
21
0.237205
0
LINE
8
BLACK
6
CONTINUOUS
10
0.21248
20
0.237205
11
0.14752
21
0.237205
0
LINE
8
BLACK
6
CONTINUOUS
10
0.14752
20
0.237205
11
0.14752
21
0.262795
0
LINE
8
BLACK
6
CONTINUOUS
10
0.14752
20
0.262795
11
0.21248
21
0.262795
0
LINE
8
BLACK
6
CONTINUOUS
10
0.21248
20
0.262795
11
0.21248
21
0.237205
0
LINE
8
BLACK
6
CONTINUOUS
10
-0.0768898
20
0.287205
11
-0.14185
21
0.287205
0
LINE
8
BLACK
6
CONTINUOUS
10
-0.14185
20
0.287205
11
-0.14185
21
0.312795
0
LINE
8
BLACK
6
CONTINUOUS
10
-0.14185
20
0.312795
11
-0.0768898
21
0.312795
0
LINE
8
BLACK
6
CONTINUOUS
10
-0.0768898
20
0.312795
11
-0.0768898
21
0.287205
0
LINE
8
BLACK
6
CONTINUOUS
10
0.21248
20
0.287205
11
0.14752
21
0.287205
0
LINE
8
BLACK
6
CONTINUOUS
10
0.14752
20
0.287205
11
0.14752
21
0.312795
0
LINE
8
BLACK
6
CONTINUOUS
10
0.14752
20
0.312795
11
0.21248
21
0.312795
0
LINE
8
BLACK
6
CONTINUOUS
10
0.21248
20
0.312795
11
0.21248
21
0.287205
0
LINE
8
BLACK
6
CONTINUOUS
10
-0.0768898
20
0.337205
11
-0.14185
21
0.337205
0
LINE
8
BLACK
6
CONTINUOUS
10
-0.14185
20
0.337205
11
-0.14185
21
0.362795
0
LINE
8
BLACK
6
CONTINUOUS
10
-0.14185
20
0.362795
11
-0.0768898
21
0.362795
0
LINE
8
BLACK
6
CONTINUOUS
10
-0.0768898
20
0.362795
11
-0.0768898
21
0.337205
0
LINE
8
BLACK
6
CONTINUOUS
10
0.21248
20
0.337205
11
0.14752
21
0.337205
0
LINE
8
BLACK
6
CONTINUOUS
10
0.14752
20
0.337205
11
0.14752
21
0.362795
0
LINE
8
BLACK
6
CONTINUOUS
10
0.14752
20
0.362795
11
0.21248
21
0.362795
0
LINE
8
BLACK
6
CONTINUOUS
10
0.21248
20
0.362795
11
0.21248
21
0.337205
0
LINE
8
BLACK
6
CONTINUOUS
10
-0.0768898
20
0.387205
11
-0.14185
21
0.387205
0
LINE
8
BLACK
6
CONTINUOUS
10
-0.14185
20
0.387205
11
-0.14185
21
0.412795
0
LINE
8
BLACK
6
CONTINUOUS
10
-0.14185
20
0.412795
11
-0.0768898
21
0.412795
0
LINE
8
BLACK
6
CONTINUOUS
10
-0.0768898
20
0.412795
11
-0.0768898
21
0.387205
0
LINE
8
BLACK
6
CONTINUOUS
10
0.21248
20
0.387205
11
0.14752
21
0.387205
0
LINE
8
BLACK
6
CONTINUOUS
10
0.14752
20
0.387205
11
0.14752
21
0.412795
0
LINE
8
BLACK
6
CONTINUOUS
10
0.14752
20
0.412795
11
0.21248
21
0.412795
0
LINE
8
BLACK
6
CONTINUOUS
10
0.21248
20
0.412795
11
0.21248
21
0.387205
0
LINE
8
BLACK
6
CONTINUOUS
10
0.540774
20
0.474448
11
0.543968
21
0.472314
0
LINE
8
BLACK
6
CONTINUOUS
10
0.543968
20
0.472314
11
0.546101
21
0.469121
0
LINE
8
BLACK
6
CONTINUOUS
10
0.546101
20
0.469121
11
0.54685
21
0.465354
0
LINE
8
BLACK
6
CONTINUOUS
10
0.54685
20
0.465354
11
0.54685
21
0.441732
0
LINE
8
BLACK
6
CONTINUOUS
10
0.54685
20
0.441732
11
0.546101
21
0.437966
0
LINE
8
BLACK
6
CONTINUOUS
10
0.546101
20
0.437966
11
0.543968
21
0.434773
0
LINE
8
BLACK
6
CONTINUOUS
10
0.543968
20
0.434773
11
0.540774
21
0.432639
0
LINE
8
BLACK
6
CONTINUOUS
10
0.540774
20
0.432639
11
0.537008
21
0.43189
0
LINE
8
BLACK
6
CONTINUOUS
10
0.537008
20
0.43189
11
0.513386
21
0.43189
0
LINE
8
BLACK
6
CONTINUOUS
10
0.513386
20
0.43189
11
0.509619
21
0.432639
0
LINE
8
BLACK
6
CONTINUOUS
10
0.509619
20
0.432639
11
0.506426
21
0.434773
0
LINE
8
BLACK
6
CONTINUOUS
10
0.506426
20
0.434773
11
0.504293
21
0.437966
0
LINE
8
BLACK
6
CONTINUOUS
10
0.504293
20
0.437966
11
0.503543
21
0.441732
0
LINE
8
BLACK
6
CONTINUOUS
10
0.503543
20
0.441732
11
0.503543
21
0.465354
0
LINE
8
BLACK
6
CONTINUOUS
10
0.503543
20
0.465354
11
0.504293
21
0.469121
0
LINE
8
BLACK
6
CONTINUOUS
10
0.504293
20
0.469121
11
0.506426
21
0.472314
0
LINE
8
BLACK
6
CONTINUOUS
10
0.506426
20
0.472314
11
0.509619
21
0.474448
0
LINE
8
BLACK
6
CONTINUOUS
10
0.509619
20
0.474448
11
0.513386
21
0.475197
0
LINE
8
BLACK
6
CONTINUOUS
10
0.513386
20
0.475197
11
0.537008
21
0.475197
0
LINE
8
BLACK
6
CONTINUOUS
10
0.537008
20
0.475197
11
0.540774
21
0.474448
0
LINE
8
BLACK
6
CONTINUOUS
10
0.540774
20
0.584684
11
0.543968
21
0.58255
0
LINE
8
BLACK
6
CONTINUOUS
10
0.543968
20
0.58255
11
0.546101
21
0.579357
0
LINE
8
BLACK
6
CONTINUOUS
10
0.546101
20
0.579357
11
0.54685
21
0.575591
0
LINE
8
BLACK
6
CONTINUOUS
10
0.54685
20
0.575591
11
0.54685
21
0.551969
0
LINE
8
BLACK
6
CONTINUOUS
10
0.54685
20
0.551969
11
0.546101
21
0.548202
0
LINE
8
BLACK
6
CONTINUOUS
10
0.546101
20
0.548202
11
0.543968
21
0.545009
0
LINE
8
BLACK
6
CONTINUOUS
10
0.543968
20
0.545009
11
0.540774
21
0.542875
0
LINE
8
BLACK
6
CONTINUOUS
10
0.540774
20
0.542875
11
0.537008
21
0.542126
0
LINE
8
BLACK
6
CONTINUOUS
10
0.537008
20
0.542126
11
0.513386
21
0.542126
0
LINE
8
BLACK
6
CONTINUOUS
10
0.513386
20
0.542126
11
0.509619
21
0.542875
0
LINE
8
BLACK
6
CONTINUOUS
10
0.509619
20
0.542875
11
0.506426
21
0.545009
0
LINE
8
BLACK
6
CONTINUOUS
10
0.506426
20
0.545009
11
0.504293
21
0.548202
0
LINE
8
BLACK
6
CONTINUOUS
10
0.504293
20
0.548202
11
0.503543
21
0.551969
0
LINE
8
BLACK
6
CONTINUOUS
10
0.503543
20
0.551969
11
0.503543
21
0.575591
0
LINE
8
BLACK
6
CONTINUOUS
10
0.503543
20
0.575591
11
0.504293
21
0.579357
0
LINE
8
BLACK
6
CONTINUOUS
10
0.504293
20
0.579357
11
0.506426
21
0.58255
0
LINE
8
BLACK
6
CONTINUOUS
10
0.506426
20
0.58255
11
0.509619
21
0.584684
0
LINE
8
BLACK
6
CONTINUOUS
10
0.509619
20
0.584684
11
0.513386
21
0.585433
0
LINE
8
BLACK
6
CONTINUOUS
10
0.513386
20
0.585433
11
0.537008
21
0.585433
0
LINE
8
BLACK
6
CONTINUOUS
10
0.537008
20
0.585433
11
0.540774
21
0.584684
  0
ENDSEC
  0
EOF
