  0
SECTION
  2
HEADER
  9
$ANGBASE
  50
0.0
  9
$ANGDIR
  70
1
  9
$MEASUREMENT
  70
0
  0
ENDSEC
  0
SECTION
  2
TABLES
  0
TABLE
  2
LTYPE
  70
4
  0
LTYPE
  5
40F
  2
CONTINUOUS
  70
0
  3
Solid line
  72
65
  73
0
  40
0.0
  0
LTYPE
  5
410
  2
DASHDOT
 70
0
  3
Dash Dot ____ _ ____ _
 72
65
 73
4
 40
2.0
 49
1.25
 49
-0.25
 49
0.25
 49
-0.25
  0
LTYPE
  5
411
  2
DASHED
 70
0
  3
Dashed __ __ __ __ __
 72
65
 73
2
 40
0.75
 49
0.5
 49
-0.25
  0
LTYPE
  5
43B
  2
DOTTED
 70
0
  3
Dotted .  .  .  .
 72
65
 73
2
 40
0.2
 49
0.0
 49
-0.2
  0
ENDTAB
  0
TABLE
  2
STYLE
  70
4
  0
STYLE
  2
KICAD
  70
0
  40
0
  41
1
  42
1
  50
0
  71
0
  3
isocp.shx
  0
STYLE
  2
KICADB
  70
0
  40
0
  41
1
  42
1
  50
0
  71
0
  3
isocp.shx
  0
STYLE
  2
KICADI
  70
0
  40
0
  41
1
  42
1
  50
15
  71
0
  3
isocp.shx
  0
STYLE
  2
KICADBI
  70
0
  40
0
  41
1
  42
1
  50
15
  71
0
  3
isocp.shx
  0
ENDTAB
  0
TABLE
  2
LAYER
  70
1
  0
LAYER
  2
BLACK
  70
0
  62
7
  6
CONTINUOUS
  0
ENDTAB
  0
ENDSEC
  0
SECTION
  2
ENTITIES
0
LINE
8
BLACK
6
CONTINUOUS
10
5.41406
20
-3.67519
11
5.42795
21
-3.67755
0
LINE
8
BLACK
6
CONTINUOUS
10
5.42795
20
-3.67755
11
5.44148
21
-3.68145
0
LINE
8
BLACK
6
CONTINUOUS
10
5.44148
20
-3.68145
11
5.4545
21
-3.68684
0
LINE
8
BLACK
6
CONTINUOUS
10
5.4545
20
-3.68684
11
5.46682
21
-3.69365
0
LINE
8
BLACK
6
CONTINUOUS
10
5.46682
20
-3.69365
11
5.47831
21
-3.7018
0
LINE
8
BLACK
6
CONTINUOUS
10
5.47831
20
-3.7018
11
5.48881
21
-3.71119
0
LINE
8
BLACK
6
CONTINUOUS
10
5.48881
20
-3.71119
11
5.4982
21
-3.72169
0
LINE
8
BLACK
6
CONTINUOUS
10
5.4982
20
-3.72169
11
5.50635
21
-3.73318
0
LINE
8
BLACK
6
CONTINUOUS
10
5.50635
20
-3.73318
11
5.51316
21
-3.7455
0
LINE
8
BLACK
6
CONTINUOUS
10
5.51316
20
-3.7455
11
5.51855
21
-3.75852
0
LINE
8
BLACK
6
CONTINUOUS
10
5.51855
20
-3.75852
11
5.52245
21
-3.77205
0
LINE
8
BLACK
6
CONTINUOUS
10
5.52245
20
-3.77205
11
5.52481
21
-3.78594
0
LINE
8
BLACK
6
CONTINUOUS
10
5.52481
20
-3.78594
11
5.5256
21
-3.8
0
LINE
8
BLACK
6
CONTINUOUS
10
5.5256
20
-3.8
11
5.52481
21
-3.81406
0
LINE
8
BLACK
6
CONTINUOUS
10
5.52481
20
-3.81406
11
5.52245
21
-3.82795
0
LINE
8
BLACK
6
CONTINUOUS
10
5.52245
20
-3.82795
11
5.51855
21
-3.84148
0
LINE
8
BLACK
6
CONTINUOUS
10
5.51855
20
-3.84148
11
5.51316
21
-3.8545
0
LINE
8
BLACK
6
CONTINUOUS
10
5.51316
20
-3.8545
11
5.50635
21
-3.86682
0
LINE
8
BLACK
6
CONTINUOUS
10
5.50635
20
-3.86682
11
5.4982
21
-3.87831
0
LINE
8
BLACK
6
CONTINUOUS
10
5.4982
20
-3.87831
11
5.48881
21
-3.88881
0
LINE
8
BLACK
6
CONTINUOUS
10
5.48881
20
-3.88881
11
5.47831
21
-3.8982
0
LINE
8
BLACK
6
CONTINUOUS
10
5.47831
20
-3.8982
11
5.46682
21
-3.90635
0
LINE
8
BLACK
6
CONTINUOUS
10
5.46682
20
-3.90635
11
5.4545
21
-3.91316
0
LINE
8
BLACK
6
CONTINUOUS
10
5.4545
20
-3.91316
11
5.44148
21
-3.91855
0
LINE
8
BLACK
6
CONTINUOUS
10
5.44148
20
-3.91855
11
5.42795
21
-3.92245
0
LINE
8
BLACK
6
CONTINUOUS
10
5.42795
20
-3.92245
11
5.41406
21
-3.92481
0
LINE
8
BLACK
6
CONTINUOUS
10
5.41406
20
-3.92481
11
5.4
21
-3.9256
0
LINE
8
BLACK
6
CONTINUOUS
10
5.4
20
-3.9256
11
5.38594
21
-3.92481
0
LINE
8
BLACK
6
CONTINUOUS
10
5.38594
20
-3.92481
11
5.37205
21
-3.92245
0
LINE
8
BLACK
6
CONTINUOUS
10
5.37205
20
-3.92245
11
5.35852
21
-3.91855
0
LINE
8
BLACK
6
CONTINUOUS
10
5.35852
20
-3.91855
11
5.3455
21
-3.91316
0
LINE
8
BLACK
6
CONTINUOUS
10
5.3455
20
-3.91316
11
5.33318
21
-3.90635
0
LINE
8
BLACK
6
CONTINUOUS
10
5.33318
20
-3.90635
11
5.32169
21
-3.8982
0
LINE
8
BLACK
6
CONTINUOUS
10
5.32169
20
-3.8982
11
5.31119
21
-3.88881
0
LINE
8
BLACK
6
CONTINUOUS
10
5.31119
20
-3.88881
11
5.3018
21
-3.87831
0
LINE
8
BLACK
6
CONTINUOUS
10
5.3018
20
-3.87831
11
5.29365
21
-3.86682
0
LINE
8
BLACK
6
CONTINUOUS
10
5.29365
20
-3.86682
11
5.28684
21
-3.8545
0
LINE
8
BLACK
6
CONTINUOUS
10
5.28684
20
-3.8545
11
5.28145
21
-3.84148
0
LINE
8
BLACK
6
CONTINUOUS
10
5.28145
20
-3.84148
11
5.27755
21
-3.82795
0
LINE
8
BLACK
6
CONTINUOUS
10
5.27755
20
-3.82795
11
5.27519
21
-3.81406
0
LINE
8
BLACK
6
CONTINUOUS
10
5.27519
20
-3.81406
11
5.2744
21
-3.8
0
LINE
8
BLACK
6
CONTINUOUS
10
5.2744
20
-3.8
11
5.27519
21
-3.78594
0
LINE
8
BLACK
6
CONTINUOUS
10
5.27519
20
-3.78594
11
5.27755
21
-3.77205
0
LINE
8
BLACK
6
CONTINUOUS
10
5.27755
20
-3.77205
11
5.28145
21
-3.75852
0
LINE
8
BLACK
6
CONTINUOUS
10
5.28145
20
-3.75852
11
5.28684
21
-3.7455
0
LINE
8
BLACK
6
CONTINUOUS
10
5.28684
20
-3.7455
11
5.29365
21
-3.73318
0
LINE
8
BLACK
6
CONTINUOUS
10
5.29365
20
-3.73318
11
5.3018
21
-3.72169
0
LINE
8
BLACK
6
CONTINUOUS
10
5.3018
20
-3.72169
11
5.31119
21
-3.71119
0
LINE
8
BLACK
6
CONTINUOUS
10
5.31119
20
-3.71119
11
5.32169
21
-3.7018
0
LINE
8
BLACK
6
CONTINUOUS
10
5.32169
20
-3.7018
11
5.33318
21
-3.69365
0
LINE
8
BLACK
6
CONTINUOUS
10
5.33318
20
-3.69365
11
5.3455
21
-3.68684
0
LINE
8
BLACK
6
CONTINUOUS
10
5.3455
20
-3.68684
11
5.35852
21
-3.68145
0
LINE
8
BLACK
6
CONTINUOUS
10
5.35852
20
-3.68145
11
5.37205
21
-3.67755
0
LINE
8
BLACK
6
CONTINUOUS
10
5.37205
20
-3.67755
11
5.38594
21
-3.67519
0
LINE
8
BLACK
6
CONTINUOUS
10
5.38594
20
-3.67519
11
5.4
21
-3.6744
0
LINE
8
BLACK
6
CONTINUOUS
10
5.4
20
-3.6744
11
5.41406
21
-3.67519
0
LINE
8
BLACK
6
CONTINUOUS
10
5.28996
20
-3.81286
11
5.2922
21
-3.82555
0
LINE
8
BLACK
6
CONTINUOUS
10
5.2922
20
-3.82555
11
5.29589
21
-3.83789
0
LINE
8
BLACK
6
CONTINUOUS
10
5.29589
20
-3.83789
11
5.301
21
-3.84972
0
LINE
8
BLACK
6
CONTINUOUS
10
5.301
20
-3.84972
11
5.30744
21
-3.86088
0
LINE
8
BLACK
6
CONTINUOUS
10
5.30744
20
-3.86088
11
5.31513
21
-3.87121
0
LINE
8
BLACK
6
CONTINUOUS
10
5.31513
20
-3.87121
11
5.32397
21
-3.88058
0
LINE
8
BLACK
6
CONTINUOUS
10
5.32397
20
-3.88058
11
5.33384
21
-3.88887
0
LINE
8
BLACK
6
CONTINUOUS
10
5.33384
20
-3.88887
11
5.34461
21
-3.89594
0
LINE
8
BLACK
6
CONTINUOUS
10
5.34461
20
-3.89594
11
5.35612
21
-3.90173
0
LINE
8
BLACK
6
CONTINUOUS
10
5.35612
20
-3.90173
11
5.36823
21
-3.90613
0
LINE
8
BLACK
6
CONTINUOUS
10
5.36823
20
-3.90613
11
5.38076
21
-3.9091
0
LINE
8
BLACK
6
CONTINUOUS
10
5.38076
20
-3.9091
11
5.39356
21
-3.9106
0
LINE
8
BLACK
6
CONTINUOUS
10
5.39356
20
-3.9106
11
5.40644
21
-3.9106
0
LINE
8
BLACK
6
CONTINUOUS
10
5.40644
20
-3.9106
11
5.41924
21
-3.9091
0
LINE
8
BLACK
6
CONTINUOUS
10
5.41924
20
-3.9091
11
5.43177
21
-3.90613
0
LINE
8
BLACK
6
CONTINUOUS
10
5.43177
20
-3.90613
11
5.44388
21
-3.90173
0
LINE
8
BLACK
6
CONTINUOUS
10
5.44388
20
-3.90173
11
5.45539
21
-3.89594
0
LINE
8
BLACK
6
CONTINUOUS
10
5.45539
20
-3.89594
11
5.46616
21
-3.88887
0
LINE
8
BLACK
6
CONTINUOUS
10
5.46616
20
-3.88887
11
5.47603
21
-3.88058
0
LINE
8
BLACK
6
CONTINUOUS
10
5.47603
20
-3.88058
11
5.48487
21
-3.87121
0
LINE
8
BLACK
6
CONTINUOUS
10
5.48487
20
-3.87121
11
5.49256
21
-3.86088
0
LINE
8
BLACK
6
CONTINUOUS
10
5.49256
20
-3.86088
11
5.499
21
-3.84972
0
LINE
8
BLACK
6
CONTINUOUS
10
5.499
20
-3.84972
11
5.50411
21
-3.83789
0
LINE
8
BLACK
6
CONTINUOUS
10
5.50411
20
-3.83789
11
5.5078
21
-3.82555
0
LINE
8
BLACK
6
CONTINUOUS
10
5.5078
20
-3.82555
11
5.51004
21
-3.81286
0
LINE
8
BLACK
6
CONTINUOUS
10
5.51004
20
-3.81286
11
5.51079
21
-3.8
0
LINE
8
BLACK
6
CONTINUOUS
10
5.51079
20
-3.8
11
5.51004
21
-3.78714
0
LINE
8
BLACK
6
CONTINUOUS
10
5.51004
20
-3.78714
11
5.5078
21
-3.77445
0
LINE
8
BLACK
6
CONTINUOUS
10
5.5078
20
-3.77445
11
5.50411
21
-3.76211
0
LINE
8
BLACK
6
CONTINUOUS
10
5.50411
20
-3.76211
11
5.499
21
-3.75028
0
LINE
8
BLACK
6
CONTINUOUS
10
5.499
20
-3.75028
11
5.49256
21
-3.73912
0
LINE
8
BLACK
6
CONTINUOUS
10
5.49256
20
-3.73912
11
5.48487
21
-3.72879
0
LINE
8
BLACK
6
CONTINUOUS
10
5.48487
20
-3.72879
11
5.47603
21
-3.71942
0
LINE
8
BLACK
6
CONTINUOUS
10
5.47603
20
-3.71942
11
5.46616
21
-3.71113
0
LINE
8
BLACK
6
CONTINUOUS
10
5.46616
20
-3.71113
11
5.45539
21
-3.70406
0
LINE
8
BLACK
6
CONTINUOUS
10
5.45539
20
-3.70406
11
5.44388
21
-3.69827
0
LINE
8
BLACK
6
CONTINUOUS
10
5.44388
20
-3.69827
11
5.43177
21
-3.69387
0
LINE
8
BLACK
6
CONTINUOUS
10
5.43177
20
-3.69387
11
5.41924
21
-3.6909
0
LINE
8
BLACK
6
CONTINUOUS
10
5.41924
20
-3.6909
11
5.40644
21
-3.6894
0
LINE
8
BLACK
6
CONTINUOUS
10
5.40644
20
-3.6894
11
5.39356
21
-3.6894
0
LINE
8
BLACK
6
CONTINUOUS
10
5.39356
20
-3.6894
11
5.38076
21
-3.6909
0
LINE
8
BLACK
6
CONTINUOUS
10
5.38076
20
-3.6909
11
5.36823
21
-3.69387
0
LINE
8
BLACK
6
CONTINUOUS
10
5.36823
20
-3.69387
11
5.35612
21
-3.69827
0
LINE
8
BLACK
6
CONTINUOUS
10
5.35612
20
-3.69827
11
5.34461
21
-3.70406
0
LINE
8
BLACK
6
CONTINUOUS
10
5.34461
20
-3.70406
11
5.33384
21
-3.71113
0
LINE
8
BLACK
6
CONTINUOUS
10
5.33384
20
-3.71113
11
5.32397
21
-3.71942
0
LINE
8
BLACK
6
CONTINUOUS
10
5.32397
20
-3.71942
11
5.31513
21
-3.72879
0
LINE
8
BLACK
6
CONTINUOUS
10
5.31513
20
-3.72879
11
5.30744
21
-3.73912
0
LINE
8
BLACK
6
CONTINUOUS
10
5.30744
20
-3.73912
11
5.301
21
-3.75028
0
LINE
8
BLACK
6
CONTINUOUS
10
5.301
20
-3.75028
11
5.29589
21
-3.76211
0
LINE
8
BLACK
6
CONTINUOUS
10
5.29589
20
-3.76211
11
5.2922
21
-3.77445
0
LINE
8
BLACK
6
CONTINUOUS
10
5.2922
20
-3.77445
11
5.28996
21
-3.78714
0
LINE
8
BLACK
6
CONTINUOUS
10
5.28996
20
-3.78714
11
5.28921
21
-3.8
0
LINE
8
BLACK
6
CONTINUOUS
10
5.28921
20
-3.8
11
5.28996
21
-3.81286
0
LINE
8
BLACK
6
CONTINUOUS
10
5.81406
20
-3.67519
11
5.82795
21
-3.67755
0
LINE
8
BLACK
6
CONTINUOUS
10
5.82795
20
-3.67755
11
5.84148
21
-3.68145
0
LINE
8
BLACK
6
CONTINUOUS
10
5.84148
20
-3.68145
11
5.8545
21
-3.68684
0
LINE
8
BLACK
6
CONTINUOUS
10
5.8545
20
-3.68684
11
5.86682
21
-3.69365
0
LINE
8
BLACK
6
CONTINUOUS
10
5.86682
20
-3.69365
11
5.87831
21
-3.7018
0
LINE
8
BLACK
6
CONTINUOUS
10
5.87831
20
-3.7018
11
5.88881
21
-3.71119
0
LINE
8
BLACK
6
CONTINUOUS
10
5.88881
20
-3.71119
11
5.8982
21
-3.72169
0
LINE
8
BLACK
6
CONTINUOUS
10
5.8982
20
-3.72169
11
5.90635
21
-3.73318
0
LINE
8
BLACK
6
CONTINUOUS
10
5.90635
20
-3.73318
11
5.91316
21
-3.7455
0
LINE
8
BLACK
6
CONTINUOUS
10
5.91316
20
-3.7455
11
5.91855
21
-3.75852
0
LINE
8
BLACK
6
CONTINUOUS
10
5.91855
20
-3.75852
11
5.92245
21
-3.77205
0
LINE
8
BLACK
6
CONTINUOUS
10
5.92245
20
-3.77205
11
5.92481
21
-3.78594
0
LINE
8
BLACK
6
CONTINUOUS
10
5.92481
20
-3.78594
11
5.9256
21
-3.8
0
LINE
8
BLACK
6
CONTINUOUS
10
5.9256
20
-3.8
11
5.92481
21
-3.81406
0
LINE
8
BLACK
6
CONTINUOUS
10
5.92481
20
-3.81406
11
5.92245
21
-3.82795
0
LINE
8
BLACK
6
CONTINUOUS
10
5.92245
20
-3.82795
11
5.91855
21
-3.84148
0
LINE
8
BLACK
6
CONTINUOUS
10
5.91855
20
-3.84148
11
5.91316
21
-3.8545
0
LINE
8
BLACK
6
CONTINUOUS
10
5.91316
20
-3.8545
11
5.90635
21
-3.86682
0
LINE
8
BLACK
6
CONTINUOUS
10
5.90635
20
-3.86682
11
5.8982
21
-3.87831
0
LINE
8
BLACK
6
CONTINUOUS
10
5.8982
20
-3.87831
11
5.88881
21
-3.88881
0
LINE
8
BLACK
6
CONTINUOUS
10
5.88881
20
-3.88881
11
5.87831
21
-3.8982
0
LINE
8
BLACK
6
CONTINUOUS
10
5.87831
20
-3.8982
11
5.86682
21
-3.90635
0
LINE
8
BLACK
6
CONTINUOUS
10
5.86682
20
-3.90635
11
5.8545
21
-3.91316
0
LINE
8
BLACK
6
CONTINUOUS
10
5.8545
20
-3.91316
11
5.84148
21
-3.91855
0
LINE
8
BLACK
6
CONTINUOUS
10
5.84148
20
-3.91855
11
5.82795
21
-3.92245
0
LINE
8
BLACK
6
CONTINUOUS
10
5.82795
20
-3.92245
11
5.81406
21
-3.92481
0
LINE
8
BLACK
6
CONTINUOUS
10
5.81406
20
-3.92481
11
5.8
21
-3.9256
0
LINE
8
BLACK
6
CONTINUOUS
10
5.8
20
-3.9256
11
5.78594
21
-3.92481
0
LINE
8
BLACK
6
CONTINUOUS
10
5.78594
20
-3.92481
11
5.77205
21
-3.92245
0
LINE
8
BLACK
6
CONTINUOUS
10
5.77205
20
-3.92245
11
5.75852
21
-3.91855
0
LINE
8
BLACK
6
CONTINUOUS
10
5.75852
20
-3.91855
11
5.7455
21
-3.91316
0
LINE
8
BLACK
6
CONTINUOUS
10
5.7455
20
-3.91316
11
5.73318
21
-3.90635
0
LINE
8
BLACK
6
CONTINUOUS
10
5.73318
20
-3.90635
11
5.72169
21
-3.8982
0
LINE
8
BLACK
6
CONTINUOUS
10
5.72169
20
-3.8982
11
5.71119
21
-3.88881
0
LINE
8
BLACK
6
CONTINUOUS
10
5.71119
20
-3.88881
11
5.7018
21
-3.87831
0
LINE
8
BLACK
6
CONTINUOUS
10
5.7018
20
-3.87831
11
5.69365
21
-3.86682
0
LINE
8
BLACK
6
CONTINUOUS
10
5.69365
20
-3.86682
11
5.68684
21
-3.8545
0
LINE
8
BLACK
6
CONTINUOUS
10
5.68684
20
-3.8545
11
5.68145
21
-3.84148
0
LINE
8
BLACK
6
CONTINUOUS
10
5.68145
20
-3.84148
11
5.67755
21
-3.82795
0
LINE
8
BLACK
6
CONTINUOUS
10
5.67755
20
-3.82795
11
5.67519
21
-3.81406
0
LINE
8
BLACK
6
CONTINUOUS
10
5.67519
20
-3.81406
11
5.6744
21
-3.8
0
LINE
8
BLACK
6
CONTINUOUS
10
5.6744
20
-3.8
11
5.67519
21
-3.78594
0
LINE
8
BLACK
6
CONTINUOUS
10
5.67519
20
-3.78594
11
5.67755
21
-3.77205
0
LINE
8
BLACK
6
CONTINUOUS
10
5.67755
20
-3.77205
11
5.68145
21
-3.75852
0
LINE
8
BLACK
6
CONTINUOUS
10
5.68145
20
-3.75852
11
5.68684
21
-3.7455
0
LINE
8
BLACK
6
CONTINUOUS
10
5.68684
20
-3.7455
11
5.69365
21
-3.73318
0
LINE
8
BLACK
6
CONTINUOUS
10
5.69365
20
-3.73318
11
5.7018
21
-3.72169
0
LINE
8
BLACK
6
CONTINUOUS
10
5.7018
20
-3.72169
11
5.71119
21
-3.71119
0
LINE
8
BLACK
6
CONTINUOUS
10
5.71119
20
-3.71119
11
5.72169
21
-3.7018
0
LINE
8
BLACK
6
CONTINUOUS
10
5.72169
20
-3.7018
11
5.73318
21
-3.69365
0
LINE
8
BLACK
6
CONTINUOUS
10
5.73318
20
-3.69365
11
5.7455
21
-3.68684
0
LINE
8
BLACK
6
CONTINUOUS
10
5.7455
20
-3.68684
11
5.75852
21
-3.68145
0
LINE
8
BLACK
6
CONTINUOUS
10
5.75852
20
-3.68145
11
5.77205
21
-3.67755
0
LINE
8
BLACK
6
CONTINUOUS
10
5.77205
20
-3.67755
11
5.78594
21
-3.67519
0
LINE
8
BLACK
6
CONTINUOUS
10
5.78594
20
-3.67519
11
5.8
21
-3.6744
0
LINE
8
BLACK
6
CONTINUOUS
10
5.8
20
-3.6744
11
5.81406
21
-3.67519
0
LINE
8
BLACK
6
CONTINUOUS
10
5.68996
20
-3.81286
11
5.6922
21
-3.82555
0
LINE
8
BLACK
6
CONTINUOUS
10
5.6922
20
-3.82555
11
5.69589
21
-3.83789
0
LINE
8
BLACK
6
CONTINUOUS
10
5.69589
20
-3.83789
11
5.701
21
-3.84972
0
LINE
8
BLACK
6
CONTINUOUS
10
5.701
20
-3.84972
11
5.70744
21
-3.86088
0
LINE
8
BLACK
6
CONTINUOUS
10
5.70744
20
-3.86088
11
5.71513
21
-3.87121
0
LINE
8
BLACK
6
CONTINUOUS
10
5.71513
20
-3.87121
11
5.72397
21
-3.88058
0
LINE
8
BLACK
6
CONTINUOUS
10
5.72397
20
-3.88058
11
5.73384
21
-3.88887
0
LINE
8
BLACK
6
CONTINUOUS
10
5.73384
20
-3.88887
11
5.74461
21
-3.89594
0
LINE
8
BLACK
6
CONTINUOUS
10
5.74461
20
-3.89594
11
5.75612
21
-3.90173
0
LINE
8
BLACK
6
CONTINUOUS
10
5.75612
20
-3.90173
11
5.76823
21
-3.90613
0
LINE
8
BLACK
6
CONTINUOUS
10
5.76823
20
-3.90613
11
5.78076
21
-3.9091
0
LINE
8
BLACK
6
CONTINUOUS
10
5.78076
20
-3.9091
11
5.79356
21
-3.9106
0
LINE
8
BLACK
6
CONTINUOUS
10
5.79356
20
-3.9106
11
5.80644
21
-3.9106
0
LINE
8
BLACK
6
CONTINUOUS
10
5.80644
20
-3.9106
11
5.81924
21
-3.9091
0
LINE
8
BLACK
6
CONTINUOUS
10
5.81924
20
-3.9091
11
5.83177
21
-3.90613
0
LINE
8
BLACK
6
CONTINUOUS
10
5.83177
20
-3.90613
11
5.84388
21
-3.90173
0
LINE
8
BLACK
6
CONTINUOUS
10
5.84388
20
-3.90173
11
5.85539
21
-3.89594
0
LINE
8
BLACK
6
CONTINUOUS
10
5.85539
20
-3.89594
11
5.86616
21
-3.88887
0
LINE
8
BLACK
6
CONTINUOUS
10
5.86616
20
-3.88887
11
5.87603
21
-3.88058
0
LINE
8
BLACK
6
CONTINUOUS
10
5.87603
20
-3.88058
11
5.88487
21
-3.87121
0
LINE
8
BLACK
6
CONTINUOUS
10
5.88487
20
-3.87121
11
5.89256
21
-3.86088
0
LINE
8
BLACK
6
CONTINUOUS
10
5.89256
20
-3.86088
11
5.899
21
-3.84972
0
LINE
8
BLACK
6
CONTINUOUS
10
5.899
20
-3.84972
11
5.90411
21
-3.83789
0
LINE
8
BLACK
6
CONTINUOUS
10
5.90411
20
-3.83789
11
5.9078
21
-3.82555
0
LINE
8
BLACK
6
CONTINUOUS
10
5.9078
20
-3.82555
11
5.91004
21
-3.81286
0
LINE
8
BLACK
6
CONTINUOUS
10
5.91004
20
-3.81286
11
5.91079
21
-3.8
0
LINE
8
BLACK
6
CONTINUOUS
10
5.91079
20
-3.8
11
5.91004
21
-3.78714
0
LINE
8
BLACK
6
CONTINUOUS
10
5.91004
20
-3.78714
11
5.9078
21
-3.77445
0
LINE
8
BLACK
6
CONTINUOUS
10
5.9078
20
-3.77445
11
5.90411
21
-3.76211
0
LINE
8
BLACK
6
CONTINUOUS
10
5.90411
20
-3.76211
11
5.899
21
-3.75028
0
LINE
8
BLACK
6
CONTINUOUS
10
5.899
20
-3.75028
11
5.89256
21
-3.73912
0
LINE
8
BLACK
6
CONTINUOUS
10
5.89256
20
-3.73912
11
5.88487
21
-3.72879
0
LINE
8
BLACK
6
CONTINUOUS
10
5.88487
20
-3.72879
11
5.87603
21
-3.71942
0
LINE
8
BLACK
6
CONTINUOUS
10
5.87603
20
-3.71942
11
5.86616
21
-3.71113
0
LINE
8
BLACK
6
CONTINUOUS
10
5.86616
20
-3.71113
11
5.85539
21
-3.70406
0
LINE
8
BLACK
6
CONTINUOUS
10
5.85539
20
-3.70406
11
5.84388
21
-3.69827
0
LINE
8
BLACK
6
CONTINUOUS
10
5.84388
20
-3.69827
11
5.83177
21
-3.69387
0
LINE
8
BLACK
6
CONTINUOUS
10
5.83177
20
-3.69387
11
5.81924
21
-3.6909
0
LINE
8
BLACK
6
CONTINUOUS
10
5.81924
20
-3.6909
11
5.80644
21
-3.6894
0
LINE
8
BLACK
6
CONTINUOUS
10
5.80644
20
-3.6894
11
5.79356
21
-3.6894
0
LINE
8
BLACK
6
CONTINUOUS
10
5.79356
20
-3.6894
11
5.78076
21
-3.6909
0
LINE
8
BLACK
6
CONTINUOUS
10
5.78076
20
-3.6909
11
5.76823
21
-3.69387
0
LINE
8
BLACK
6
CONTINUOUS
10
5.76823
20
-3.69387
11
5.75612
21
-3.69827
0
LINE
8
BLACK
6
CONTINUOUS
10
5.75612
20
-3.69827
11
5.74461
21
-3.70406
0
LINE
8
BLACK
6
CONTINUOUS
10
5.74461
20
-3.70406
11
5.73384
21
-3.71113
0
LINE
8
BLACK
6
CONTINUOUS
10
5.73384
20
-3.71113
11
5.72397
21
-3.71942
0
LINE
8
BLACK
6
CONTINUOUS
10
5.72397
20
-3.71942
11
5.71513
21
-3.72879
0
LINE
8
BLACK
6
CONTINUOUS
10
5.71513
20
-3.72879
11
5.70744
21
-3.73912
0
LINE
8
BLACK
6
CONTINUOUS
10
5.70744
20
-3.73912
11
5.701
21
-3.75028
0
LINE
8
BLACK
6
CONTINUOUS
10
5.701
20
-3.75028
11
5.69589
21
-3.76211
0
LINE
8
BLACK
6
CONTINUOUS
10
5.69589
20
-3.76211
11
5.6922
21
-3.77445
0
LINE
8
BLACK
6
CONTINUOUS
10
5.6922
20
-3.77445
11
5.68996
21
-3.78714
0
LINE
8
BLACK
6
CONTINUOUS
10
5.68996
20
-3.78714
11
5.68921
21
-3.8
0
LINE
8
BLACK
6
CONTINUOUS
10
5.68921
20
-3.8
11
5.68996
21
-3.81286
0
LINE
8
BLACK
6
CONTINUOUS
10
5.41406
20
-2.87519
11
5.42795
21
-2.87755
0
LINE
8
BLACK
6
CONTINUOUS
10
5.42795
20
-2.87755
11
5.44148
21
-2.88145
0
LINE
8
BLACK
6
CONTINUOUS
10
5.44148
20
-2.88145
11
5.4545
21
-2.88684
0
LINE
8
BLACK
6
CONTINUOUS
10
5.4545
20
-2.88684
11
5.46682
21
-2.89365
0
LINE
8
BLACK
6
CONTINUOUS
10
5.46682
20
-2.89365
11
5.47831
21
-2.9018
0
LINE
8
BLACK
6
CONTINUOUS
10
5.47831
20
-2.9018
11
5.48881
21
-2.91119
0
LINE
8
BLACK
6
CONTINUOUS
10
5.48881
20
-2.91119
11
5.4982
21
-2.92169
0
LINE
8
BLACK
6
CONTINUOUS
10
5.4982
20
-2.92169
11
5.50635
21
-2.93318
0
LINE
8
BLACK
6
CONTINUOUS
10
5.50635
20
-2.93318
11
5.51316
21
-2.9455
0
LINE
8
BLACK
6
CONTINUOUS
10
5.51316
20
-2.9455
11
5.51855
21
-2.95852
0
LINE
8
BLACK
6
CONTINUOUS
10
5.51855
20
-2.95852
11
5.52245
21
-2.97205
0
LINE
8
BLACK
6
CONTINUOUS
10
5.52245
20
-2.97205
11
5.52481
21
-2.98594
0
LINE
8
BLACK
6
CONTINUOUS
10
5.52481
20
-2.98594
11
5.5256
21
-3
0
LINE
8
BLACK
6
CONTINUOUS
10
5.5256
20
-3
11
5.52481
21
-3.01406
0
LINE
8
BLACK
6
CONTINUOUS
10
5.52481
20
-3.01406
11
5.52245
21
-3.02795
0
LINE
8
BLACK
6
CONTINUOUS
10
5.52245
20
-3.02795
11
5.51855
21
-3.04148
0
LINE
8
BLACK
6
CONTINUOUS
10
5.51855
20
-3.04148
11
5.51316
21
-3.0545
0
LINE
8
BLACK
6
CONTINUOUS
10
5.51316
20
-3.0545
11
5.50635
21
-3.06682
0
LINE
8
BLACK
6
CONTINUOUS
10
5.50635
20
-3.06682
11
5.4982
21
-3.07831
0
LINE
8
BLACK
6
CONTINUOUS
10
5.4982
20
-3.07831
11
5.48881
21
-3.08881
0
LINE
8
BLACK
6
CONTINUOUS
10
5.48881
20
-3.08881
11
5.47831
21
-3.0982
0
LINE
8
BLACK
6
CONTINUOUS
10
5.47831
20
-3.0982
11
5.46682
21
-3.10635
0
LINE
8
BLACK
6
CONTINUOUS
10
5.46682
20
-3.10635
11
5.4545
21
-3.11316
0
LINE
8
BLACK
6
CONTINUOUS
10
5.4545
20
-3.11316
11
5.44148
21
-3.11855
0
LINE
8
BLACK
6
CONTINUOUS
10
5.44148
20
-3.11855
11
5.42795
21
-3.12245
0
LINE
8
BLACK
6
CONTINUOUS
10
5.42795
20
-3.12245
11
5.41406
21
-3.12481
0
LINE
8
BLACK
6
CONTINUOUS
10
5.41406
20
-3.12481
11
5.4
21
-3.1256
0
LINE
8
BLACK
6
CONTINUOUS
10
5.4
20
-3.1256
11
5.38594
21
-3.12481
0
LINE
8
BLACK
6
CONTINUOUS
10
5.38594
20
-3.12481
11
5.37205
21
-3.12245
0
LINE
8
BLACK
6
CONTINUOUS
10
5.37205
20
-3.12245
11
5.35852
21
-3.11855
0
LINE
8
BLACK
6
CONTINUOUS
10
5.35852
20
-3.11855
11
5.3455
21
-3.11316
0
LINE
8
BLACK
6
CONTINUOUS
10
5.3455
20
-3.11316
11
5.33318
21
-3.10635
0
LINE
8
BLACK
6
CONTINUOUS
10
5.33318
20
-3.10635
11
5.32169
21
-3.0982
0
LINE
8
BLACK
6
CONTINUOUS
10
5.32169
20
-3.0982
11
5.31119
21
-3.08881
0
LINE
8
BLACK
6
CONTINUOUS
10
5.31119
20
-3.08881
11
5.3018
21
-3.07831
0
LINE
8
BLACK
6
CONTINUOUS
10
5.3018
20
-3.07831
11
5.29365
21
-3.06682
0
LINE
8
BLACK
6
CONTINUOUS
10
5.29365
20
-3.06682
11
5.28684
21
-3.0545
0
LINE
8
BLACK
6
CONTINUOUS
10
5.28684
20
-3.0545
11
5.28145
21
-3.04148
0
LINE
8
BLACK
6
CONTINUOUS
10
5.28145
20
-3.04148
11
5.27755
21
-3.02795
0
LINE
8
BLACK
6
CONTINUOUS
10
5.27755
20
-3.02795
11
5.27519
21
-3.01406
0
LINE
8
BLACK
6
CONTINUOUS
10
5.27519
20
-3.01406
11
5.2744
21
-3
0
LINE
8
BLACK
6
CONTINUOUS
10
5.2744
20
-3
11
5.27519
21
-2.98594
0
LINE
8
BLACK
6
CONTINUOUS
10
5.27519
20
-2.98594
11
5.27755
21
-2.97205
0
LINE
8
BLACK
6
CONTINUOUS
10
5.27755
20
-2.97205
11
5.28145
21
-2.95852
0
LINE
8
BLACK
6
CONTINUOUS
10
5.28145
20
-2.95852
11
5.28684
21
-2.9455
0
LINE
8
BLACK
6
CONTINUOUS
10
5.28684
20
-2.9455
11
5.29365
21
-2.93318
0
LINE
8
BLACK
6
CONTINUOUS
10
5.29365
20
-2.93318
11
5.3018
21
-2.92169
0
LINE
8
BLACK
6
CONTINUOUS
10
5.3018
20
-2.92169
11
5.31119
21
-2.91119
0
LINE
8
BLACK
6
CONTINUOUS
10
5.31119
20
-2.91119
11
5.32169
21
-2.9018
0
LINE
8
BLACK
6
CONTINUOUS
10
5.32169
20
-2.9018
11
5.33318
21
-2.89365
0
LINE
8
BLACK
6
CONTINUOUS
10
5.33318
20
-2.89365
11
5.3455
21
-2.88684
0
LINE
8
BLACK
6
CONTINUOUS
10
5.3455
20
-2.88684
11
5.35852
21
-2.88145
0
LINE
8
BLACK
6
CONTINUOUS
10
5.35852
20
-2.88145
11
5.37205
21
-2.87755
0
LINE
8
BLACK
6
CONTINUOUS
10
5.37205
20
-2.87755
11
5.38594
21
-2.87519
0
LINE
8
BLACK
6
CONTINUOUS
10
5.38594
20
-2.87519
11
5.4
21
-2.8744
0
LINE
8
BLACK
6
CONTINUOUS
10
5.4
20
-2.8744
11
5.41406
21
-2.87519
0
LINE
8
BLACK
6
CONTINUOUS
10
5.28996
20
-3.01286
11
5.2922
21
-3.02555
0
LINE
8
BLACK
6
CONTINUOUS
10
5.2922
20
-3.02555
11
5.29589
21
-3.03789
0
LINE
8
BLACK
6
CONTINUOUS
10
5.29589
20
-3.03789
11
5.301
21
-3.04972
0
LINE
8
BLACK
6
CONTINUOUS
10
5.301
20
-3.04972
11
5.30744
21
-3.06088
0
LINE
8
BLACK
6
CONTINUOUS
10
5.30744
20
-3.06088
11
5.31513
21
-3.07121
0
LINE
8
BLACK
6
CONTINUOUS
10
5.31513
20
-3.07121
11
5.32397
21
-3.08058
0
LINE
8
BLACK
6
CONTINUOUS
10
5.32397
20
-3.08058
11
5.33384
21
-3.08887
0
LINE
8
BLACK
6
CONTINUOUS
10
5.33384
20
-3.08887
11
5.34461
21
-3.09594
0
LINE
8
BLACK
6
CONTINUOUS
10
5.34461
20
-3.09594
11
5.35612
21
-3.10173
0
LINE
8
BLACK
6
CONTINUOUS
10
5.35612
20
-3.10173
11
5.36823
21
-3.10613
0
LINE
8
BLACK
6
CONTINUOUS
10
5.36823
20
-3.10613
11
5.38076
21
-3.1091
0
LINE
8
BLACK
6
CONTINUOUS
10
5.38076
20
-3.1091
11
5.39356
21
-3.1106
0
LINE
8
BLACK
6
CONTINUOUS
10
5.39356
20
-3.1106
11
5.40644
21
-3.1106
0
LINE
8
BLACK
6
CONTINUOUS
10
5.40644
20
-3.1106
11
5.41924
21
-3.1091
0
LINE
8
BLACK
6
CONTINUOUS
10
5.41924
20
-3.1091
11
5.43177
21
-3.10613
0
LINE
8
BLACK
6
CONTINUOUS
10
5.43177
20
-3.10613
11
5.44388
21
-3.10173
0
LINE
8
BLACK
6
CONTINUOUS
10
5.44388
20
-3.10173
11
5.45539
21
-3.09594
0
LINE
8
BLACK
6
CONTINUOUS
10
5.45539
20
-3.09594
11
5.46616
21
-3.08887
0
LINE
8
BLACK
6
CONTINUOUS
10
5.46616
20
-3.08887
11
5.47603
21
-3.08058
0
LINE
8
BLACK
6
CONTINUOUS
10
5.47603
20
-3.08058
11
5.48487
21
-3.07121
0
LINE
8
BLACK
6
CONTINUOUS
10
5.48487
20
-3.07121
11
5.49256
21
-3.06088
0
LINE
8
BLACK
6
CONTINUOUS
10
5.49256
20
-3.06088
11
5.499
21
-3.04972
0
LINE
8
BLACK
6
CONTINUOUS
10
5.499
20
-3.04972
11
5.50411
21
-3.03789
0
LINE
8
BLACK
6
CONTINUOUS
10
5.50411
20
-3.03789
11
5.5078
21
-3.02555
0
LINE
8
BLACK
6
CONTINUOUS
10
5.5078
20
-3.02555
11
5.51004
21
-3.01286
0
LINE
8
BLACK
6
CONTINUOUS
10
5.51004
20
-3.01286
11
5.51079
21
-3
0
LINE
8
BLACK
6
CONTINUOUS
10
5.51079
20
-3
11
5.51004
21
-2.98714
0
LINE
8
BLACK
6
CONTINUOUS
10
5.51004
20
-2.98714
11
5.5078
21
-2.97445
0
LINE
8
BLACK
6
CONTINUOUS
10
5.5078
20
-2.97445
11
5.50411
21
-2.96211
0
LINE
8
BLACK
6
CONTINUOUS
10
5.50411
20
-2.96211
11
5.499
21
-2.95028
0
LINE
8
BLACK
6
CONTINUOUS
10
5.499
20
-2.95028
11
5.49256
21
-2.93912
0
LINE
8
BLACK
6
CONTINUOUS
10
5.49256
20
-2.93912
11
5.48487
21
-2.92879
0
LINE
8
BLACK
6
CONTINUOUS
10
5.48487
20
-2.92879
11
5.47603
21
-2.91942
0
LINE
8
BLACK
6
CONTINUOUS
10
5.47603
20
-2.91942
11
5.46616
21
-2.91113
0
LINE
8
BLACK
6
CONTINUOUS
10
5.46616
20
-2.91113
11
5.45539
21
-2.90406
0
LINE
8
BLACK
6
CONTINUOUS
10
5.45539
20
-2.90406
11
5.44388
21
-2.89827
0
LINE
8
BLACK
6
CONTINUOUS
10
5.44388
20
-2.89827
11
5.43177
21
-2.89387
0
LINE
8
BLACK
6
CONTINUOUS
10
5.43177
20
-2.89387
11
5.41924
21
-2.8909
0
LINE
8
BLACK
6
CONTINUOUS
10
5.41924
20
-2.8909
11
5.40644
21
-2.8894
0
LINE
8
BLACK
6
CONTINUOUS
10
5.40644
20
-2.8894
11
5.39356
21
-2.8894
0
LINE
8
BLACK
6
CONTINUOUS
10
5.39356
20
-2.8894
11
5.38076
21
-2.8909
0
LINE
8
BLACK
6
CONTINUOUS
10
5.38076
20
-2.8909
11
5.36823
21
-2.89387
0
LINE
8
BLACK
6
CONTINUOUS
10
5.36823
20
-2.89387
11
5.35612
21
-2.89827
0
LINE
8
BLACK
6
CONTINUOUS
10
5.35612
20
-2.89827
11
5.34461
21
-2.90406
0
LINE
8
BLACK
6
CONTINUOUS
10
5.34461
20
-2.90406
11
5.33384
21
-2.91113
0
LINE
8
BLACK
6
CONTINUOUS
10
5.33384
20
-2.91113
11
5.32397
21
-2.91942
0
LINE
8
BLACK
6
CONTINUOUS
10
5.32397
20
-2.91942
11
5.31513
21
-2.92879
0
LINE
8
BLACK
6
CONTINUOUS
10
5.31513
20
-2.92879
11
5.30744
21
-2.93912
0
LINE
8
BLACK
6
CONTINUOUS
10
5.30744
20
-2.93912
11
5.301
21
-2.95028
0
LINE
8
BLACK
6
CONTINUOUS
10
5.301
20
-2.95028
11
5.29589
21
-2.96211
0
LINE
8
BLACK
6
CONTINUOUS
10
5.29589
20
-2.96211
11
5.2922
21
-2.97445
0
LINE
8
BLACK
6
CONTINUOUS
10
5.2922
20
-2.97445
11
5.28996
21
-2.98714
0
LINE
8
BLACK
6
CONTINUOUS
10
5.28996
20
-2.98714
11
5.28921
21
-3
0
LINE
8
BLACK
6
CONTINUOUS
10
5.28921
20
-3
11
5.28996
21
-3.01286
0
LINE
8
BLACK
6
CONTINUOUS
10
5.81406
20
-2.87519
11
5.82795
21
-2.87755
0
LINE
8
BLACK
6
CONTINUOUS
10
5.82795
20
-2.87755
11
5.84148
21
-2.88145
0
LINE
8
BLACK
6
CONTINUOUS
10
5.84148
20
-2.88145
11
5.8545
21
-2.88684
0
LINE
8
BLACK
6
CONTINUOUS
10
5.8545
20
-2.88684
11
5.86682
21
-2.89365
0
LINE
8
BLACK
6
CONTINUOUS
10
5.86682
20
-2.89365
11
5.87831
21
-2.9018
0
LINE
8
BLACK
6
CONTINUOUS
10
5.87831
20
-2.9018
11
5.88881
21
-2.91119
0
LINE
8
BLACK
6
CONTINUOUS
10
5.88881
20
-2.91119
11
5.8982
21
-2.92169
0
LINE
8
BLACK
6
CONTINUOUS
10
5.8982
20
-2.92169
11
5.90635
21
-2.93318
0
LINE
8
BLACK
6
CONTINUOUS
10
5.90635
20
-2.93318
11
5.91316
21
-2.9455
0
LINE
8
BLACK
6
CONTINUOUS
10
5.91316
20
-2.9455
11
5.91855
21
-2.95852
0
LINE
8
BLACK
6
CONTINUOUS
10
5.91855
20
-2.95852
11
5.92245
21
-2.97205
0
LINE
8
BLACK
6
CONTINUOUS
10
5.92245
20
-2.97205
11
5.92481
21
-2.98594
0
LINE
8
BLACK
6
CONTINUOUS
10
5.92481
20
-2.98594
11
5.9256
21
-3
0
LINE
8
BLACK
6
CONTINUOUS
10
5.9256
20
-3
11
5.92481
21
-3.01406
0
LINE
8
BLACK
6
CONTINUOUS
10
5.92481
20
-3.01406
11
5.92245
21
-3.02795
0
LINE
8
BLACK
6
CONTINUOUS
10
5.92245
20
-3.02795
11
5.91855
21
-3.04148
0
LINE
8
BLACK
6
CONTINUOUS
10
5.91855
20
-3.04148
11
5.91316
21
-3.0545
0
LINE
8
BLACK
6
CONTINUOUS
10
5.91316
20
-3.0545
11
5.90635
21
-3.06682
0
LINE
8
BLACK
6
CONTINUOUS
10
5.90635
20
-3.06682
11
5.8982
21
-3.07831
0
LINE
8
BLACK
6
CONTINUOUS
10
5.8982
20
-3.07831
11
5.88881
21
-3.08881
0
LINE
8
BLACK
6
CONTINUOUS
10
5.88881
20
-3.08881
11
5.87831
21
-3.0982
0
LINE
8
BLACK
6
CONTINUOUS
10
5.87831
20
-3.0982
11
5.86682
21
-3.10635
0
LINE
8
BLACK
6
CONTINUOUS
10
5.86682
20
-3.10635
11
5.8545
21
-3.11316
0
LINE
8
BLACK
6
CONTINUOUS
10
5.8545
20
-3.11316
11
5.84148
21
-3.11855
0
LINE
8
BLACK
6
CONTINUOUS
10
5.84148
20
-3.11855
11
5.82795
21
-3.12245
0
LINE
8
BLACK
6
CONTINUOUS
10
5.82795
20
-3.12245
11
5.81406
21
-3.12481
0
LINE
8
BLACK
6
CONTINUOUS
10
5.81406
20
-3.12481
11
5.8
21
-3.1256
0
LINE
8
BLACK
6
CONTINUOUS
10
5.8
20
-3.1256
11
5.78594
21
-3.12481
0
LINE
8
BLACK
6
CONTINUOUS
10
5.78594
20
-3.12481
11
5.77205
21
-3.12245
0
LINE
8
BLACK
6
CONTINUOUS
10
5.77205
20
-3.12245
11
5.75852
21
-3.11855
0
LINE
8
BLACK
6
CONTINUOUS
10
5.75852
20
-3.11855
11
5.7455
21
-3.11316
0
LINE
8
BLACK
6
CONTINUOUS
10
5.7455
20
-3.11316
11
5.73318
21
-3.10635
0
LINE
8
BLACK
6
CONTINUOUS
10
5.73318
20
-3.10635
11
5.72169
21
-3.0982
0
LINE
8
BLACK
6
CONTINUOUS
10
5.72169
20
-3.0982
11
5.71119
21
-3.08881
0
LINE
8
BLACK
6
CONTINUOUS
10
5.71119
20
-3.08881
11
5.7018
21
-3.07831
0
LINE
8
BLACK
6
CONTINUOUS
10
5.7018
20
-3.07831
11
5.69365
21
-3.06682
0
LINE
8
BLACK
6
CONTINUOUS
10
5.69365
20
-3.06682
11
5.68684
21
-3.0545
0
LINE
8
BLACK
6
CONTINUOUS
10
5.68684
20
-3.0545
11
5.68145
21
-3.04148
0
LINE
8
BLACK
6
CONTINUOUS
10
5.68145
20
-3.04148
11
5.67755
21
-3.02795
0
LINE
8
BLACK
6
CONTINUOUS
10
5.67755
20
-3.02795
11
5.67519
21
-3.01406
0
LINE
8
BLACK
6
CONTINUOUS
10
5.67519
20
-3.01406
11
5.6744
21
-3
0
LINE
8
BLACK
6
CONTINUOUS
10
5.6744
20
-3
11
5.67519
21
-2.98594
0
LINE
8
BLACK
6
CONTINUOUS
10
5.67519
20
-2.98594
11
5.67755
21
-2.97205
0
LINE
8
BLACK
6
CONTINUOUS
10
5.67755
20
-2.97205
11
5.68145
21
-2.95852
0
LINE
8
BLACK
6
CONTINUOUS
10
5.68145
20
-2.95852
11
5.68684
21
-2.9455
0
LINE
8
BLACK
6
CONTINUOUS
10
5.68684
20
-2.9455
11
5.69365
21
-2.93318
0
LINE
8
BLACK
6
CONTINUOUS
10
5.69365
20
-2.93318
11
5.7018
21
-2.92169
0
LINE
8
BLACK
6
CONTINUOUS
10
5.7018
20
-2.92169
11
5.71119
21
-2.91119
0
LINE
8
BLACK
6
CONTINUOUS
10
5.71119
20
-2.91119
11
5.72169
21
-2.9018
0
LINE
8
BLACK
6
CONTINUOUS
10
5.72169
20
-2.9018
11
5.73318
21
-2.89365
0
LINE
8
BLACK
6
CONTINUOUS
10
5.73318
20
-2.89365
11
5.7455
21
-2.88684
0
LINE
8
BLACK
6
CONTINUOUS
10
5.7455
20
-2.88684
11
5.75852
21
-2.88145
0
LINE
8
BLACK
6
CONTINUOUS
10
5.75852
20
-2.88145
11
5.77205
21
-2.87755
0
LINE
8
BLACK
6
CONTINUOUS
10
5.77205
20
-2.87755
11
5.78594
21
-2.87519
0
LINE
8
BLACK
6
CONTINUOUS
10
5.78594
20
-2.87519
11
5.8
21
-2.8744
0
LINE
8
BLACK
6
CONTINUOUS
10
5.8
20
-2.8744
11
5.81406
21
-2.87519
0
LINE
8
BLACK
6
CONTINUOUS
10
5.68996
20
-3.01286
11
5.6922
21
-3.02555
0
LINE
8
BLACK
6
CONTINUOUS
10
5.6922
20
-3.02555
11
5.69589
21
-3.03789
0
LINE
8
BLACK
6
CONTINUOUS
10
5.69589
20
-3.03789
11
5.701
21
-3.04972
0
LINE
8
BLACK
6
CONTINUOUS
10
5.701
20
-3.04972
11
5.70744
21
-3.06088
0
LINE
8
BLACK
6
CONTINUOUS
10
5.70744
20
-3.06088
11
5.71513
21
-3.07121
0
LINE
8
BLACK
6
CONTINUOUS
10
5.71513
20
-3.07121
11
5.72397
21
-3.08058
0
LINE
8
BLACK
6
CONTINUOUS
10
5.72397
20
-3.08058
11
5.73384
21
-3.08887
0
LINE
8
BLACK
6
CONTINUOUS
10
5.73384
20
-3.08887
11
5.74461
21
-3.09594
0
LINE
8
BLACK
6
CONTINUOUS
10
5.74461
20
-3.09594
11
5.75612
21
-3.10173
0
LINE
8
BLACK
6
CONTINUOUS
10
5.75612
20
-3.10173
11
5.76823
21
-3.10613
0
LINE
8
BLACK
6
CONTINUOUS
10
5.76823
20
-3.10613
11
5.78076
21
-3.1091
0
LINE
8
BLACK
6
CONTINUOUS
10
5.78076
20
-3.1091
11
5.79356
21
-3.1106
0
LINE
8
BLACK
6
CONTINUOUS
10
5.79356
20
-3.1106
11
5.80644
21
-3.1106
0
LINE
8
BLACK
6
CONTINUOUS
10
5.80644
20
-3.1106
11
5.81924
21
-3.1091
0
LINE
8
BLACK
6
CONTINUOUS
10
5.81924
20
-3.1091
11
5.83177
21
-3.10613
0
LINE
8
BLACK
6
CONTINUOUS
10
5.83177
20
-3.10613
11
5.84388
21
-3.10173
0
LINE
8
BLACK
6
CONTINUOUS
10
5.84388
20
-3.10173
11
5.85539
21
-3.09594
0
LINE
8
BLACK
6
CONTINUOUS
10
5.85539
20
-3.09594
11
5.86616
21
-3.08887
0
LINE
8
BLACK
6
CONTINUOUS
10
5.86616
20
-3.08887
11
5.87603
21
-3.08058
0
LINE
8
BLACK
6
CONTINUOUS
10
5.87603
20
-3.08058
11
5.88487
21
-3.07121
0
LINE
8
BLACK
6
CONTINUOUS
10
5.88487
20
-3.07121
11
5.89256
21
-3.06088
0
LINE
8
BLACK
6
CONTINUOUS
10
5.89256
20
-3.06088
11
5.899
21
-3.04972
0
LINE
8
BLACK
6
CONTINUOUS
10
5.899
20
-3.04972
11
5.90411
21
-3.03789
0
LINE
8
BLACK
6
CONTINUOUS
10
5.90411
20
-3.03789
11
5.9078
21
-3.02555
0
LINE
8
BLACK
6
CONTINUOUS
10
5.9078
20
-3.02555
11
5.91004
21
-3.01286
0
LINE
8
BLACK
6
CONTINUOUS
10
5.91004
20
-3.01286
11
5.91079
21
-3
0
LINE
8
BLACK
6
CONTINUOUS
10
5.91079
20
-3
11
5.91004
21
-2.98714
0
LINE
8
BLACK
6
CONTINUOUS
10
5.91004
20
-2.98714
11
5.9078
21
-2.97445
0
LINE
8
BLACK
6
CONTINUOUS
10
5.9078
20
-2.97445
11
5.90411
21
-2.96211
0
LINE
8
BLACK
6
CONTINUOUS
10
5.90411
20
-2.96211
11
5.899
21
-2.95028
0
LINE
8
BLACK
6
CONTINUOUS
10
5.899
20
-2.95028
11
5.89256
21
-2.93912
0
LINE
8
BLACK
6
CONTINUOUS
10
5.89256
20
-2.93912
11
5.88487
21
-2.92879
0
LINE
8
BLACK
6
CONTINUOUS
10
5.88487
20
-2.92879
11
5.87603
21
-2.91942
0
LINE
8
BLACK
6
CONTINUOUS
10
5.87603
20
-2.91942
11
5.86616
21
-2.91113
0
LINE
8
BLACK
6
CONTINUOUS
10
5.86616
20
-2.91113
11
5.85539
21
-2.90406
0
LINE
8
BLACK
6
CONTINUOUS
10
5.85539
20
-2.90406
11
5.84388
21
-2.89827
0
LINE
8
BLACK
6
CONTINUOUS
10
5.84388
20
-2.89827
11
5.83177
21
-2.89387
0
LINE
8
BLACK
6
CONTINUOUS
10
5.83177
20
-2.89387
11
5.81924
21
-2.8909
0
LINE
8
BLACK
6
CONTINUOUS
10
5.81924
20
-2.8909
11
5.80644
21
-2.8894
0
LINE
8
BLACK
6
CONTINUOUS
10
5.80644
20
-2.8894
11
5.79356
21
-2.8894
0
LINE
8
BLACK
6
CONTINUOUS
10
5.79356
20
-2.8894
11
5.78076
21
-2.8909
0
LINE
8
BLACK
6
CONTINUOUS
10
5.78076
20
-2.8909
11
5.76823
21
-2.89387
0
LINE
8
BLACK
6
CONTINUOUS
10
5.76823
20
-2.89387
11
5.75612
21
-2.89827
0
LINE
8
BLACK
6
CONTINUOUS
10
5.75612
20
-2.89827
11
5.74461
21
-2.90406
0
LINE
8
BLACK
6
CONTINUOUS
10
5.74461
20
-2.90406
11
5.73384
21
-2.91113
0
LINE
8
BLACK
6
CONTINUOUS
10
5.73384
20
-2.91113
11
5.72397
21
-2.91942
0
LINE
8
BLACK
6
CONTINUOUS
10
5.72397
20
-2.91942
11
5.71513
21
-2.92879
0
LINE
8
BLACK
6
CONTINUOUS
10
5.71513
20
-2.92879
11
5.70744
21
-2.93912
0
LINE
8
BLACK
6
CONTINUOUS
10
5.70744
20
-2.93912
11
5.701
21
-2.95028
0
LINE
8
BLACK
6
CONTINUOUS
10
5.701
20
-2.95028
11
5.69589
21
-2.96211
0
LINE
8
BLACK
6
CONTINUOUS
10
5.69589
20
-2.96211
11
5.6922
21
-2.97445
0
LINE
8
BLACK
6
CONTINUOUS
10
5.6922
20
-2.97445
11
5.68996
21
-2.98714
0
LINE
8
BLACK
6
CONTINUOUS
10
5.68996
20
-2.98714
11
5.68921
21
-3
0
LINE
8
BLACK
6
CONTINUOUS
10
5.68921
20
-3
11
5.68996
21
-3.01286
  0
ENDSEC
  0
EOF
