  0
SECTION
  2
HEADER
  9
$ANGBASE
  50
0.0
  9
$ANGDIR
  70
1
  9
$MEASUREMENT
  70
0
  0
ENDSEC
  0
SECTION
  2
TABLES
  0
TABLE
  2
LTYPE
  70
4
  0
LTYPE
  5
40F
  2
CONTINUOUS
  70
0
  3
Solid line
  72
65
  73
0
  40
0.0
  0
LTYPE
  5
410
  2
DASHDOT
 70
0
  3
Dash Dot ____ _ ____ _
 72
65
 73
4
 40
2.0
 49
1.25
 49
-0.25
 49
0.25
 49
-0.25
  0
LTYPE
  5
411
  2
DASHED
 70
0
  3
Dashed __ __ __ __ __
 72
65
 73
2
 40
0.75
 49
0.5
 49
-0.25
  0
LTYPE
  5
43B
  2
DOTTED
 70
0
  3
Dotted .  .  .  .
 72
65
 73
2
 40
0.2
 49
0.0
 49
-0.2
  0
ENDTAB
  0
TABLE
  2
STYLE
  70
4
  0
STYLE
  2
KICAD
  70
0
  40
0
  41
1
  42
1
  50
0
  71
0
  3
isocp.shx
  0
STYLE
  2
KICADB
  70
0
  40
0
  41
1
  42
1
  50
0
  71
0
  3
isocp.shx
  0
STYLE
  2
KICADI
  70
0
  40
0
  41
1
  42
1
  50
15
  71
0
  3
isocp.shx
  0
STYLE
  2
KICADBI
  70
0
  40
0
  41
1
  42
1
  50
15
  71
0
  3
isocp.shx
  0
ENDTAB
  0
TABLE
  2
LAYER
  70
1
  0
LAYER
  2
BLACK
  70
0
  62
7
  6
CONTINUOUS
  0
ENDTAB
  0
ENDSEC
  0
SECTION
  2
ENTITIES
0
LINE
8
BLACK
6
CONTINUOUS
10
0.127894
20
-0.146365
11
0.128029
21
-0.146479
0
LINE
8
BLACK
6
CONTINUOUS
10
0.128029
20
-0.146479
11
0.128205
21
-0.146499
0
LINE
8
BLACK
6
CONTINUOUS
10
0.128205
20
-0.146499
11
0.131954
21
-0.148374
0
LINE
8
BLACK
6
CONTINUOUS
10
0.131954
20
-0.148374
11
0.132778
21
-0.148984
0
LINE
8
BLACK
6
CONTINUOUS
10
0.132778
20
-0.148984
11
0.133581
21
-0.150838
0
LINE
8
BLACK
6
CONTINUOUS
10
0.133581
20
-0.150838
11
0.133005
21
-0.152774
0
LINE
8
BLACK
6
CONTINUOUS
10
0.133005
20
-0.152774
11
0.13132
21
-0.153887
0
LINE
8
BLACK
6
CONTINUOUS
10
0.13132
20
-0.153887
11
0.129313
21
-0.153656
0
LINE
8
BLACK
6
CONTINUOUS
10
0.129313
20
-0.153656
11
0.126187
21
-0.152093
0
LINE
8
BLACK
6
CONTINUOUS
10
0.126187
20
-0.152093
11
0.120082
21
-0.152093
0
LINE
8
BLACK
6
CONTINUOUS
10
0.120082
20
-0.152093
11
0.117836
21
-0.153215
0
LINE
8
BLACK
6
CONTINUOUS
10
0.117836
20
-0.153215
11
0.116714
21
-0.155461
0
LINE
8
BLACK
6
CONTINUOUS
10
0.116714
20
-0.155461
11
0.116714
21
-0.156689
0
LINE
8
BLACK
6
CONTINUOUS
10
0.116714
20
-0.156689
11
0.118207
21
-0.157436
0
LINE
8
BLACK
6
CONTINUOUS
10
0.118207
20
-0.157436
11
0.126884
21
-0.157436
0
LINE
8
BLACK
6
CONTINUOUS
10
0.126884
20
-0.157436
11
0.127894
21
-0.157614
0
LINE
8
BLACK
6
CONTINUOUS
10
0.127894
20
-0.157614
11
0.128029
21
-0.157727
0
LINE
8
BLACK
6
CONTINUOUS
10
0.128029
20
-0.157727
11
0.128205
21
-0.157747
0
LINE
8
BLACK
6
CONTINUOUS
10
0.128205
20
-0.157747
11
0.131954
21
-0.159622
0
LINE
8
BLACK
6
CONTINUOUS
10
0.131954
20
-0.159622
11
0.132778
21
-0.160233
0
LINE
8
BLACK
6
CONTINUOUS
10
0.132778
20
-0.160233
11
0.132954
21
-0.160639
0
LINE
8
BLACK
6
CONTINUOUS
10
0.132954
20
-0.160639
11
0.133275
21
-0.160943
0
LINE
8
BLACK
6
CONTINUOUS
10
0.133275
20
-0.160943
11
0.135149
21
-0.164692
0
LINE
8
BLACK
6
CONTINUOUS
10
0.135149
20
-0.164692
11
0.135442
21
-0.165675
0
LINE
8
BLACK
6
CONTINUOUS
10
0.135442
20
-0.165675
11
0.135401
21
-0.165847
0
LINE
8
BLACK
6
CONTINUOUS
10
0.135401
20
-0.165847
11
0.135461
21
-0.166013
0
LINE
8
BLACK
6
CONTINUOUS
10
0.135461
20
-0.166013
11
0.135461
21
-0.169762
0
LINE
8
BLACK
6
CONTINUOUS
10
0.135461
20
-0.169762
11
0.135283
21
-0.170772
0
LINE
8
BLACK
6
CONTINUOUS
10
0.135283
20
-0.170772
11
0.13517
21
-0.170907
0
LINE
8
BLACK
6
CONTINUOUS
10
0.13517
20
-0.170907
11
0.135149
21
-0.171083
0
LINE
8
BLACK
6
CONTINUOUS
10
0.135149
20
-0.171083
11
0.133275
21
-0.174832
0
LINE
8
BLACK
6
CONTINUOUS
10
0.133275
20
-0.174832
11
0.132664
21
-0.175656
0
LINE
8
BLACK
6
CONTINUOUS
10
0.132664
20
-0.175656
11
0.132258
21
-0.175832
0
LINE
8
BLACK
6
CONTINUOUS
10
0.132258
20
-0.175832
11
0.131954
21
-0.176153
0
LINE
8
BLACK
6
CONTINUOUS
10
0.131954
20
-0.176153
11
0.128205
21
-0.178028
0
LINE
8
BLACK
6
CONTINUOUS
10
0.128205
20
-0.178028
11
0.127222
21
-0.17832
0
LINE
8
BLACK
6
CONTINUOUS
10
0.127222
20
-0.17832
11
0.12705
21
-0.178279
0
LINE
8
BLACK
6
CONTINUOUS
10
0.12705
20
-0.178279
11
0.126884
21
-0.178339
0
LINE
8
BLACK
6
CONTINUOUS
10
0.126884
20
-0.178339
11
0.11751
21
-0.178339
0
LINE
8
BLACK
6
CONTINUOUS
10
0.11751
20
-0.178339
11
0.1165
21
-0.178161
0
LINE
8
BLACK
6
CONTINUOUS
10
0.1165
20
-0.178161
11
0.116365
21
-0.178048
0
LINE
8
BLACK
6
CONTINUOUS
10
0.116365
20
-0.178048
11
0.11619
21
-0.178028
0
LINE
8
BLACK
6
CONTINUOUS
10
0.11619
20
-0.178028
11
0.115469
21
-0.177667
0
LINE
8
BLACK
6
CONTINUOUS
10
0.115469
20
-0.177667
11
0.115237
21
-0.177944
0
LINE
8
BLACK
6
CONTINUOUS
10
0.115237
20
-0.177944
11
0.113248
21
-0.178294
0
LINE
8
BLACK
6
CONTINUOUS
10
0.113248
20
-0.178294
11
0.111499
21
-0.177285
0
LINE
8
BLACK
6
CONTINUOUS
10
0.111499
20
-0.177285
11
0.110808
21
-0.175387
0
LINE
8
BLACK
6
CONTINUOUS
10
0.110808
20
-0.175387
11
0.110808
21
-0.154764
0
LINE
8
BLACK
6
CONTINUOUS
10
0.110808
20
-0.154764
11
0.110986
21
-0.153754
0
LINE
8
BLACK
6
CONTINUOUS
10
0.110986
20
-0.153754
11
0.1111
21
-0.153619
0
LINE
8
BLACK
6
CONTINUOUS
10
0.1111
20
-0.153619
11
0.11112
21
-0.153444
0
LINE
8
BLACK
6
CONTINUOUS
10
0.11112
20
-0.153444
11
0.112995
21
-0.149694
0
LINE
8
BLACK
6
CONTINUOUS
10
0.112995
20
-0.149694
11
0.113605
21
-0.14887
0
LINE
8
BLACK
6
CONTINUOUS
10
0.113605
20
-0.14887
11
0.114011
21
-0.148695
0
LINE
8
BLACK
6
CONTINUOUS
10
0.114011
20
-0.148695
11
0.114315
21
-0.148374
0
LINE
8
BLACK
6
CONTINUOUS
10
0.114315
20
-0.148374
11
0.118065
21
-0.146499
0
LINE
8
BLACK
6
CONTINUOUS
10
0.118065
20
-0.146499
11
0.119047
21
-0.146206
0
LINE
8
BLACK
6
CONTINUOUS
10
0.119047
20
-0.146206
11
0.119219
21
-0.146247
0
LINE
8
BLACK
6
CONTINUOUS
10
0.119219
20
-0.146247
11
0.119385
21
-0.146187
0
LINE
8
BLACK
6
CONTINUOUS
10
0.119385
20
-0.146187
11
0.126884
21
-0.146187
0
LINE
8
BLACK
6
CONTINUOUS
10
0.126884
20
-0.146187
11
0.127894
21
-0.146365
0
LINE
8
BLACK
6
CONTINUOUS
10
0.116714
20
-0.171687
11
0.118207
21
-0.172434
0
LINE
8
BLACK
6
CONTINUOUS
10
0.118207
20
-0.172434
11
0.126187
21
-0.172434
0
LINE
8
BLACK
6
CONTINUOUS
10
0.126187
20
-0.172434
11
0.128433
21
-0.171311
0
LINE
8
BLACK
6
CONTINUOUS
10
0.128433
20
-0.171311
11
0.129556
21
-0.169065
0
LINE
8
BLACK
6
CONTINUOUS
10
0.129556
20
-0.169065
11
0.129556
21
-0.16671
0
LINE
8
BLACK
6
CONTINUOUS
10
0.129556
20
-0.16671
11
0.128433
21
-0.164464
0
LINE
8
BLACK
6
CONTINUOUS
10
0.128433
20
-0.164464
11
0.126187
21
-0.163341
0
LINE
8
BLACK
6
CONTINUOUS
10
0.126187
20
-0.163341
11
0.11751
21
-0.163341
0
LINE
8
BLACK
6
CONTINUOUS
10
0.11751
20
-0.163341
11
0.116714
21
-0.163201
0
LINE
8
BLACK
6
CONTINUOUS
10
0.116714
20
-0.163201
11
0.116714
21
-0.171687
0
LINE
8
BLACK
6
CONTINUOUS
10
0.178513
20
-0.146365
11
0.178648
21
-0.146479
0
LINE
8
BLACK
6
CONTINUOUS
10
0.178648
20
-0.146479
11
0.178823
21
-0.146499
0
LINE
8
BLACK
6
CONTINUOUS
10
0.178823
20
-0.146499
11
0.182573
21
-0.148374
0
LINE
8
BLACK
6
CONTINUOUS
10
0.182573
20
-0.148374
11
0.183282
21
-0.148899
0
LINE
8
BLACK
6
CONTINUOUS
10
0.183282
20
-0.148899
11
0.18334
21
-0.148927
0
LINE
8
BLACK
6
CONTINUOUS
10
0.18334
20
-0.148927
11
0.185215
21
-0.150801
0
LINE
8
BLACK
6
CONTINUOUS
10
0.185215
20
-0.150801
11
0.185721
21
-0.151525
0
LINE
8
BLACK
6
CONTINUOUS
10
0.185721
20
-0.151525
11
0.185768
21
-0.151569
0
LINE
8
BLACK
6
CONTINUOUS
10
0.185768
20
-0.151569
11
0.187643
21
-0.155318
0
LINE
8
BLACK
6
CONTINUOUS
10
0.187643
20
-0.155318
11
0.187935
21
-0.156301
0
LINE
8
BLACK
6
CONTINUOUS
10
0.187935
20
-0.156301
11
0.187894
21
-0.156473
0
LINE
8
BLACK
6
CONTINUOUS
10
0.187894
20
-0.156473
11
0.187955
21
-0.156639
0
LINE
8
BLACK
6
CONTINUOUS
10
0.187955
20
-0.156639
11
0.187955
21
-0.167887
0
LINE
8
BLACK
6
CONTINUOUS
10
0.187955
20
-0.167887
11
0.187777
21
-0.168897
0
LINE
8
BLACK
6
CONTINUOUS
10
0.187777
20
-0.168897
11
0.187663
21
-0.169033
0
LINE
8
BLACK
6
CONTINUOUS
10
0.187663
20
-0.169033
11
0.187643
21
-0.169208
0
LINE
8
BLACK
6
CONTINUOUS
10
0.187643
20
-0.169208
11
0.185768
21
-0.172958
0
LINE
8
BLACK
6
CONTINUOUS
10
0.185768
20
-0.172958
11
0.185242
21
-0.173667
0
LINE
8
BLACK
6
CONTINUOUS
10
0.185242
20
-0.173667
11
0.185215
21
-0.173725
0
LINE
8
BLACK
6
CONTINUOUS
10
0.185215
20
-0.173725
11
0.18334
21
-0.1756
0
LINE
8
BLACK
6
CONTINUOUS
10
0.18334
20
-0.1756
11
0.182617
21
-0.176106
0
LINE
8
BLACK
6
CONTINUOUS
10
0.182617
20
-0.176106
11
0.182573
21
-0.176153
0
LINE
8
BLACK
6
CONTINUOUS
10
0.182573
20
-0.176153
11
0.178823
21
-0.178028
0
LINE
8
BLACK
6
CONTINUOUS
10
0.178823
20
-0.178028
11
0.17784
21
-0.17832
0
LINE
8
BLACK
6
CONTINUOUS
10
0.17784
20
-0.17832
11
0.177669
21
-0.178279
0
LINE
8
BLACK
6
CONTINUOUS
10
0.177669
20
-0.178279
11
0.177503
21
-0.178339
0
LINE
8
BLACK
6
CONTINUOUS
10
0.177503
20
-0.178339
11
0.170004
21
-0.178339
0
LINE
8
BLACK
6
CONTINUOUS
10
0.170004
20
-0.178339
11
0.168994
21
-0.178161
0
LINE
8
BLACK
6
CONTINUOUS
10
0.168994
20
-0.178161
11
0.168859
21
-0.178048
0
LINE
8
BLACK
6
CONTINUOUS
10
0.168859
20
-0.178048
11
0.168683
21
-0.178028
0
LINE
8
BLACK
6
CONTINUOUS
10
0.168683
20
-0.178028
11
0.164934
21
-0.176153
0
LINE
8
BLACK
6
CONTINUOUS
10
0.164934
20
-0.176153
11
0.16411
21
-0.175542
0
LINE
8
BLACK
6
CONTINUOUS
10
0.16411
20
-0.175542
11
0.163307
21
-0.173689
0
LINE
8
BLACK
6
CONTINUOUS
10
0.163307
20
-0.173689
11
0.163883
21
-0.171753
0
LINE
8
BLACK
6
CONTINUOUS
10
0.163883
20
-0.171753
11
0.165568
21
-0.17064
0
LINE
8
BLACK
6
CONTINUOUS
10
0.165568
20
-0.17064
11
0.167575
21
-0.170871
0
LINE
8
BLACK
6
CONTINUOUS
10
0.167575
20
-0.170871
11
0.170701
21
-0.172434
0
LINE
8
BLACK
6
CONTINUOUS
10
0.170701
20
-0.172434
11
0.176806
21
-0.172434
0
LINE
8
BLACK
6
CONTINUOUS
10
0.176806
20
-0.172434
11
0.179503
21
-0.171085
0
LINE
8
BLACK
6
CONTINUOUS
10
0.179503
20
-0.171085
11
0.1807
21
-0.169888
0
LINE
8
BLACK
6
CONTINUOUS
10
0.1807
20
-0.169888
11
0.182049
21
-0.16719
0
LINE
8
BLACK
6
CONTINUOUS
10
0.182049
20
-0.16719
11
0.182049
21
-0.157336
0
LINE
8
BLACK
6
CONTINUOUS
10
0.182049
20
-0.157336
11
0.1807
21
-0.154638
0
LINE
8
BLACK
6
CONTINUOUS
10
0.1807
20
-0.154638
11
0.179503
21
-0.153441
0
LINE
8
BLACK
6
CONTINUOUS
10
0.179503
20
-0.153441
11
0.176806
21
-0.152093
0
LINE
8
BLACK
6
CONTINUOUS
10
0.176806
20
-0.152093
11
0.170701
21
-0.152093
0
LINE
8
BLACK
6
CONTINUOUS
10
0.170701
20
-0.152093
11
0.167575
21
-0.153656
0
LINE
8
BLACK
6
CONTINUOUS
10
0.167575
20
-0.153656
11
0.166592
21
-0.153948
0
LINE
8
BLACK
6
CONTINUOUS
10
0.166592
20
-0.153948
11
0.164627
21
-0.153479
0
LINE
8
BLACK
6
CONTINUOUS
10
0.164627
20
-0.153479
11
0.163424
21
-0.151856
0
LINE
8
BLACK
6
CONTINUOUS
10
0.163424
20
-0.151856
11
0.163545
21
-0.14984
0
LINE
8
BLACK
6
CONTINUOUS
10
0.163545
20
-0.14984
11
0.164934
21
-0.148374
0
LINE
8
BLACK
6
CONTINUOUS
10
0.164934
20
-0.148374
11
0.168683
21
-0.146499
0
LINE
8
BLACK
6
CONTINUOUS
10
0.168683
20
-0.146499
11
0.169666
21
-0.146206
0
LINE
8
BLACK
6
CONTINUOUS
10
0.169666
20
-0.146206
11
0.169838
21
-0.146247
0
LINE
8
BLACK
6
CONTINUOUS
10
0.169838
20
-0.146247
11
0.170004
21
-0.146187
0
LINE
8
BLACK
6
CONTINUOUS
10
0.170004
20
-0.146187
11
0.177503
21
-0.146187
0
LINE
8
BLACK
6
CONTINUOUS
10
0.177503
20
-0.146187
11
0.178513
21
-0.146365
0
LINE
8
BLACK
6
CONTINUOUS
10
0.22101
20
-0.147242
11
0.2217
21
-0.14914
0
LINE
8
BLACK
6
CONTINUOUS
10
0.2217
20
-0.14914
11
0.2217
21
-0.169762
0
LINE
8
BLACK
6
CONTINUOUS
10
0.2217
20
-0.169762
11
0.221522
21
-0.170772
0
LINE
8
BLACK
6
CONTINUOUS
10
0.221522
20
-0.170772
11
0.221409
21
-0.170907
0
LINE
8
BLACK
6
CONTINUOUS
10
0.221409
20
-0.170907
11
0.221389
21
-0.171083
0
LINE
8
BLACK
6
CONTINUOUS
10
0.221389
20
-0.171083
11
0.219514
21
-0.174832
0
LINE
8
BLACK
6
CONTINUOUS
10
0.219514
20
-0.174832
11
0.218903
21
-0.175656
0
LINE
8
BLACK
6
CONTINUOUS
10
0.218903
20
-0.175656
11
0.218497
21
-0.175832
0
LINE
8
BLACK
6
CONTINUOUS
10
0.218497
20
-0.175832
11
0.218193
21
-0.176153
0
LINE
8
BLACK
6
CONTINUOUS
10
0.218193
20
-0.176153
11
0.214444
21
-0.178028
0
LINE
8
BLACK
6
CONTINUOUS
10
0.214444
20
-0.178028
11
0.213461
21
-0.17832
0
LINE
8
BLACK
6
CONTINUOUS
10
0.213461
20
-0.17832
11
0.213289
21
-0.178279
0
LINE
8
BLACK
6
CONTINUOUS
10
0.213289
20
-0.178279
11
0.213123
21
-0.178339
0
LINE
8
BLACK
6
CONTINUOUS
10
0.213123
20
-0.178339
11
0.207499
21
-0.178339
0
LINE
8
BLACK
6
CONTINUOUS
10
0.207499
20
-0.178339
11
0.206489
21
-0.178161
0
LINE
8
BLACK
6
CONTINUOUS
10
0.206489
20
-0.178161
11
0.206354
21
-0.178048
0
LINE
8
BLACK
6
CONTINUOUS
10
0.206354
20
-0.178048
11
0.206179
21
-0.178028
0
LINE
8
BLACK
6
CONTINUOUS
10
0.206179
20
-0.178028
11
0.204137
21
-0.177007
0
LINE
8
BLACK
6
CONTINUOUS
10
0.204137
20
-0.177007
11
0.203351
21
-0.177944
0
LINE
8
BLACK
6
CONTINUOUS
10
0.203351
20
-0.177944
11
0.201362
21
-0.178294
0
LINE
8
BLACK
6
CONTINUOUS
10
0.201362
20
-0.178294
11
0.199613
21
-0.177285
0
LINE
8
BLACK
6
CONTINUOUS
10
0.199613
20
-0.177285
11
0.198922
21
-0.175387
0
LINE
8
BLACK
6
CONTINUOUS
10
0.198922
20
-0.175387
11
0.198922
21
-0.14914
0
LINE
8
BLACK
6
CONTINUOUS
10
0.198922
20
-0.14914
11
0.1991
21
-0.14813
0
LINE
8
BLACK
6
CONTINUOUS
10
0.1991
20
-0.14813
11
0.200398
21
-0.146583
0
LINE
8
BLACK
6
CONTINUOUS
10
0.200398
20
-0.146583
11
0.202388
21
-0.146232
0
LINE
8
BLACK
6
CONTINUOUS
10
0.202388
20
-0.146232
11
0.204137
21
-0.147242
0
LINE
8
BLACK
6
CONTINUOUS
10
0.204137
20
-0.147242
11
0.204828
21
-0.14914
0
LINE
8
BLACK
6
CONTINUOUS
10
0.204828
20
-0.14914
11
0.204828
21
-0.170414
0
LINE
8
BLACK
6
CONTINUOUS
10
0.204828
20
-0.170414
11
0.205499
21
-0.171085
0
LINE
8
BLACK
6
CONTINUOUS
10
0.205499
20
-0.171085
11
0.208196
21
-0.172434
0
LINE
8
BLACK
6
CONTINUOUS
10
0.208196
20
-0.172434
11
0.212426
21
-0.172434
0
LINE
8
BLACK
6
CONTINUOUS
10
0.212426
20
-0.172434
11
0.214672
21
-0.171311
0
LINE
8
BLACK
6
CONTINUOUS
10
0.214672
20
-0.171311
11
0.215795
21
-0.169065
0
LINE
8
BLACK
6
CONTINUOUS
10
0.215795
20
-0.169065
11
0.215795
21
-0.14914
0
LINE
8
BLACK
6
CONTINUOUS
10
0.215795
20
-0.14914
11
0.215973
21
-0.14813
0
LINE
8
BLACK
6
CONTINUOUS
10
0.215973
20
-0.14813
11
0.217271
21
-0.146583
0
LINE
8
BLACK
6
CONTINUOUS
10
0.217271
20
-0.146583
11
0.21926
21
-0.146232
0
LINE
8
BLACK
6
CONTINUOUS
10
0.21926
20
-0.146232
11
0.22101
21
-0.147242
0
LINE
8
BLACK
6
CONTINUOUS
10
0.239757
20
-0.134119
11
0.240448
21
-0.136016
0
LINE
8
BLACK
6
CONTINUOUS
10
0.240448
20
-0.136016
11
0.240448
21
-0.146343
0
LINE
8
BLACK
6
CONTINUOUS
10
0.240448
20
-0.146343
11
0.240907
21
-0.146206
0
LINE
8
BLACK
6
CONTINUOUS
10
0.240907
20
-0.146206
11
0.241079
21
-0.146247
0
LINE
8
BLACK
6
CONTINUOUS
10
0.241079
20
-0.146247
11
0.241245
21
-0.146187
0
LINE
8
BLACK
6
CONTINUOUS
10
0.241245
20
-0.146187
11
0.248744
21
-0.146187
0
LINE
8
BLACK
6
CONTINUOUS
10
0.248744
20
-0.146187
11
0.249754
21
-0.146365
0
LINE
8
BLACK
6
CONTINUOUS
10
0.249754
20
-0.146365
11
0.249889
21
-0.146479
0
LINE
8
BLACK
6
CONTINUOUS
10
0.249889
20
-0.146479
11
0.250064
21
-0.146499
0
LINE
8
BLACK
6
CONTINUOUS
10
0.250064
20
-0.146499
11
0.253814
21
-0.148374
0
LINE
8
BLACK
6
CONTINUOUS
10
0.253814
20
-0.148374
11
0.254523
21
-0.148899
0
LINE
8
BLACK
6
CONTINUOUS
10
0.254523
20
-0.148899
11
0.254581
21
-0.148927
0
LINE
8
BLACK
6
CONTINUOUS
10
0.254581
20
-0.148927
11
0.256456
21
-0.150801
0
LINE
8
BLACK
6
CONTINUOUS
10
0.256456
20
-0.150801
11
0.256962
21
-0.151525
0
LINE
8
BLACK
6
CONTINUOUS
10
0.256962
20
-0.151525
11
0.257009
21
-0.151569
0
LINE
8
BLACK
6
CONTINUOUS
10
0.257009
20
-0.151569
11
0.258884
21
-0.155318
0
LINE
8
BLACK
6
CONTINUOUS
10
0.258884
20
-0.155318
11
0.259176
21
-0.156301
0
LINE
8
BLACK
6
CONTINUOUS
10
0.259176
20
-0.156301
11
0.259135
21
-0.156473
0
LINE
8
BLACK
6
CONTINUOUS
10
0.259135
20
-0.156473
11
0.259196
21
-0.156639
0
LINE
8
BLACK
6
CONTINUOUS
10
0.259196
20
-0.156639
11
0.259196
21
-0.167887
0
LINE
8
BLACK
6
CONTINUOUS
10
0.259196
20
-0.167887
11
0.259018
21
-0.168897
0
LINE
8
BLACK
6
CONTINUOUS
10
0.259018
20
-0.168897
11
0.258904
21
-0.169033
0
LINE
8
BLACK
6
CONTINUOUS
10
0.258904
20
-0.169033
11
0.258884
21
-0.169208
0
LINE
8
BLACK
6
CONTINUOUS
10
0.258884
20
-0.169208
11
0.257009
21
-0.172958
0
LINE
8
BLACK
6
CONTINUOUS
10
0.257009
20
-0.172958
11
0.256483
21
-0.173667
0
LINE
8
BLACK
6
CONTINUOUS
10
0.256483
20
-0.173667
11
0.256456
21
-0.173725
0
LINE
8
BLACK
6
CONTINUOUS
10
0.256456
20
-0.173725
11
0.254581
21
-0.1756
0
LINE
8
BLACK
6
CONTINUOUS
10
0.254581
20
-0.1756
11
0.253858
21
-0.176106
0
LINE
8
BLACK
6
CONTINUOUS
10
0.253858
20
-0.176106
11
0.253814
21
-0.176153
0
LINE
8
BLACK
6
CONTINUOUS
10
0.253814
20
-0.176153
11
0.250064
21
-0.178028
0
LINE
8
BLACK
6
CONTINUOUS
10
0.250064
20
-0.178028
11
0.249081
21
-0.17832
0
LINE
8
BLACK
6
CONTINUOUS
10
0.249081
20
-0.17832
11
0.24891
21
-0.178279
0
LINE
8
BLACK
6
CONTINUOUS
10
0.24891
20
-0.178279
11
0.248744
21
-0.178339
0
LINE
8
BLACK
6
CONTINUOUS
10
0.248744
20
-0.178339
11
0.241245
21
-0.178339
0
LINE
8
BLACK
6
CONTINUOUS
10
0.241245
20
-0.178339
11
0.240235
21
-0.178161
0
LINE
8
BLACK
6
CONTINUOUS
10
0.240235
20
-0.178161
11
0.2401
21
-0.178048
0
LINE
8
BLACK
6
CONTINUOUS
10
0.2401
20
-0.178048
11
0.239924
21
-0.178028
0
LINE
8
BLACK
6
CONTINUOUS
10
0.239924
20
-0.178028
11
0.239204
21
-0.177667
0
LINE
8
BLACK
6
CONTINUOUS
10
0.239204
20
-0.177667
11
0.238972
21
-0.177944
0
LINE
8
BLACK
6
CONTINUOUS
10
0.238972
20
-0.177944
11
0.236983
21
-0.178294
0
LINE
8
BLACK
6
CONTINUOUS
10
0.236983
20
-0.178294
11
0.235233
21
-0.177285
0
LINE
8
BLACK
6
CONTINUOUS
10
0.235233
20
-0.177285
11
0.234543
21
-0.175387
0
LINE
8
BLACK
6
CONTINUOUS
10
0.234543
20
-0.175387
11
0.234543
21
-0.136016
0
LINE
8
BLACK
6
CONTINUOUS
10
0.234543
20
-0.136016
11
0.234721
21
-0.135007
0
LINE
8
BLACK
6
CONTINUOUS
10
0.234721
20
-0.135007
11
0.236019
21
-0.133459
0
LINE
8
BLACK
6
CONTINUOUS
10
0.236019
20
-0.133459
11
0.238008
21
-0.133109
0
LINE
8
BLACK
6
CONTINUOUS
10
0.238008
20
-0.133109
11
0.239757
21
-0.134119
0
LINE
8
BLACK
6
CONTINUOUS
10
0.240448
20
-0.152839
11
0.240448
21
-0.171687
0
LINE
8
BLACK
6
CONTINUOUS
10
0.240448
20
-0.171687
11
0.241942
21
-0.172434
0
LINE
8
BLACK
6
CONTINUOUS
10
0.241942
20
-0.172434
11
0.248047
21
-0.172434
0
LINE
8
BLACK
6
CONTINUOUS
10
0.248047
20
-0.172434
11
0.250744
21
-0.171085
0
LINE
8
BLACK
6
CONTINUOUS
10
0.250744
20
-0.171085
11
0.251941
21
-0.169888
0
LINE
8
BLACK
6
CONTINUOUS
10
0.251941
20
-0.169888
11
0.25329
21
-0.16719
0
LINE
8
BLACK
6
CONTINUOUS
10
0.25329
20
-0.16719
11
0.25329
21
-0.157336
0
LINE
8
BLACK
6
CONTINUOUS
10
0.25329
20
-0.157336
11
0.251941
21
-0.154638
0
LINE
8
BLACK
6
CONTINUOUS
10
0.251941
20
-0.154638
11
0.250744
21
-0.153441
0
LINE
8
BLACK
6
CONTINUOUS
10
0.250744
20
-0.153441
11
0.248047
21
-0.152093
0
LINE
8
BLACK
6
CONTINUOUS
10
0.248047
20
-0.152093
11
0.241942
21
-0.152093
0
LINE
8
BLACK
6
CONTINUOUS
10
0.241942
20
-0.152093
11
0.240448
21
-0.152839
0
LINE
8
BLACK
6
CONTINUOUS
10
0.097275
20
-0.134119
11
0.0979659
21
-0.136016
0
LINE
8
BLACK
6
CONTINUOUS
10
0.0979659
20
-0.136016
11
0.0979659
21
-0.169762
0
LINE
8
BLACK
6
CONTINUOUS
10
0.0979659
20
-0.169762
11
0.0977878
21
-0.170772
0
LINE
8
BLACK
6
CONTINUOUS
10
0.0977878
20
-0.170772
11
0.0976743
21
-0.170907
0
LINE
8
BLACK
6
CONTINUOUS
10
0.0976743
20
-0.170907
11
0.0976541
21
-0.171083
0
LINE
8
BLACK
6
CONTINUOUS
10
0.0976541
20
-0.171083
11
0.0957794
21
-0.174832
0
LINE
8
BLACK
6
CONTINUOUS
10
0.0957794
20
-0.174832
11
0.0951685
21
-0.175656
0
LINE
8
BLACK
6
CONTINUOUS
10
0.0951685
20
-0.175656
11
0.0947628
21
-0.175832
0
LINE
8
BLACK
6
CONTINUOUS
10
0.0947628
20
-0.175832
11
0.0944589
21
-0.176153
0
LINE
8
BLACK
6
CONTINUOUS
10
0.0944589
20
-0.176153
11
0.0907093
21
-0.178028
0
LINE
8
BLACK
6
CONTINUOUS
10
0.0907093
20
-0.178028
11
0.0897264
21
-0.17832
0
LINE
8
BLACK
6
CONTINUOUS
10
0.0897264
20
-0.17832
11
0.0877619
21
-0.177851
0
LINE
8
BLACK
6
CONTINUOUS
10
0.0877619
20
-0.177851
11
0.0865586
21
-0.176228
0
LINE
8
BLACK
6
CONTINUOUS
10
0.0865586
20
-0.176228
11
0.0866796
21
-0.174212
0
LINE
8
BLACK
6
CONTINUOUS
10
0.0866796
20
-0.174212
11
0.0880683
21
-0.172746
0
LINE
8
BLACK
6
CONTINUOUS
10
0.0880683
20
-0.172746
11
0.0909375
21
-0.171311
0
LINE
8
BLACK
6
CONTINUOUS
10
0.0909375
20
-0.171311
11
0.0920604
21
-0.169065
0
LINE
8
BLACK
6
CONTINUOUS
10
0.0920604
20
-0.169065
11
0.0920604
21
-0.136016
0
LINE
8
BLACK
6
CONTINUOUS
10
0.0920604
20
-0.136016
11
0.0922384
21
-0.135007
0
LINE
8
BLACK
6
CONTINUOUS
10
0.0922384
20
-0.135007
11
0.0935367
21
-0.133459
0
LINE
8
BLACK
6
CONTINUOUS
10
0.0935367
20
-0.133459
11
0.0955259
21
-0.133109
0
LINE
8
BLACK
6
CONTINUOUS
10
0.0955259
20
-0.133109
11
0.097275
21
-0.134119
0
LINE
8
BLACK
6
CONTINUOUS
10
0.151643
20
-0.147242
11
0.152334
21
-0.14914
0
LINE
8
BLACK
6
CONTINUOUS
10
0.152334
20
-0.14914
11
0.152334
21
-0.175387
0
LINE
8
BLACK
6
CONTINUOUS
10
0.152334
20
-0.175387
11
0.152156
21
-0.176396
0
LINE
8
BLACK
6
CONTINUOUS
10
0.152156
20
-0.176396
11
0.150858
21
-0.177944
0
LINE
8
BLACK
6
CONTINUOUS
10
0.150858
20
-0.177944
11
0.148869
21
-0.178294
0
LINE
8
BLACK
6
CONTINUOUS
10
0.148869
20
-0.178294
11
0.147119
21
-0.177285
0
LINE
8
BLACK
6
CONTINUOUS
10
0.147119
20
-0.177285
11
0.146429
21
-0.175387
0
LINE
8
BLACK
6
CONTINUOUS
10
0.146429
20
-0.175387
11
0.146429
21
-0.14914
0
LINE
8
BLACK
6
CONTINUOUS
10
0.146429
20
-0.14914
11
0.146607
21
-0.14813
0
LINE
8
BLACK
6
CONTINUOUS
10
0.146607
20
-0.14813
11
0.147905
21
-0.146583
0
LINE
8
BLACK
6
CONTINUOUS
10
0.147905
20
-0.146583
11
0.149894
21
-0.146232
0
LINE
8
BLACK
6
CONTINUOUS
10
0.149894
20
-0.146232
11
0.151643
21
-0.147242
0
LINE
8
BLACK
6
CONTINUOUS
10
0.275378
20
-0.147242
11
0.276069
21
-0.14914
0
LINE
8
BLACK
6
CONTINUOUS
10
0.276069
20
-0.14914
11
0.276069
21
-0.175387
0
LINE
8
BLACK
6
CONTINUOUS
10
0.276069
20
-0.175387
11
0.275891
21
-0.176396
0
LINE
8
BLACK
6
CONTINUOUS
10
0.275891
20
-0.176396
11
0.274592
21
-0.177944
0
LINE
8
BLACK
6
CONTINUOUS
10
0.274592
20
-0.177944
11
0.272603
21
-0.178294
0
LINE
8
BLACK
6
CONTINUOUS
10
0.272603
20
-0.178294
11
0.270854
21
-0.177285
0
LINE
8
BLACK
6
CONTINUOUS
10
0.270854
20
-0.177285
11
0.270163
21
-0.175387
0
LINE
8
BLACK
6
CONTINUOUS
10
0.270163
20
-0.175387
11
0.270163
21
-0.14914
0
LINE
8
BLACK
6
CONTINUOUS
10
0.270163
20
-0.14914
11
0.270341
21
-0.14813
0
LINE
8
BLACK
6
CONTINUOUS
10
0.270341
20
-0.14813
11
0.271639
21
-0.146583
0
LINE
8
BLACK
6
CONTINUOUS
10
0.271639
20
-0.146583
11
0.273629
21
-0.146232
0
LINE
8
BLACK
6
CONTINUOUS
10
0.273629
20
-0.146232
11
0.275378
21
-0.147242
0
LINE
8
BLACK
6
CONTINUOUS
10
0.307245
20
-0.133131
11
0.307374
21
-0.133109
0
LINE
8
BLACK
6
CONTINUOUS
10
0.307374
20
-0.133109
11
0.307488
21
-0.133174
0
LINE
8
BLACK
6
CONTINUOUS
10
0.307488
20
-0.133174
11
0.307872
21
-0.133242
0
LINE
8
BLACK
6
CONTINUOUS
10
0.307872
20
-0.133242
11
0.308459
21
-0.133735
0
LINE
8
BLACK
6
CONTINUOUS
10
0.308459
20
-0.133735
11
0.309124
21
-0.134119
0
LINE
8
BLACK
6
CONTINUOUS
10
0.309124
20
-0.134119
11
0.309215
21
-0.134369
0
LINE
8
BLACK
6
CONTINUOUS
10
0.309215
20
-0.134369
11
0.309419
21
-0.13454
0
LINE
8
BLACK
6
CONTINUOUS
10
0.309419
20
-0.13454
11
0.309552
21
-0.135296
0
LINE
8
BLACK
6
CONTINUOUS
10
0.309552
20
-0.135296
11
0.309814
21
-0.136016
0
LINE
8
BLACK
6
CONTINUOUS
10
0.309814
20
-0.136016
11
0.309814
21
-0.175387
0
LINE
8
BLACK
6
CONTINUOUS
10
0.309814
20
-0.175387
11
0.309636
21
-0.176396
0
LINE
8
BLACK
6
CONTINUOUS
10
0.309636
20
-0.176396
11
0.308338
21
-0.177944
0
LINE
8
BLACK
6
CONTINUOUS
10
0.308338
20
-0.177944
11
0.306349
21
-0.178294
0
LINE
8
BLACK
6
CONTINUOUS
10
0.306349
20
-0.178294
11
0.3046
21
-0.177285
0
LINE
8
BLACK
6
CONTINUOUS
10
0.3046
20
-0.177285
11
0.303909
21
-0.175387
0
LINE
8
BLACK
6
CONTINUOUS
10
0.303909
20
-0.175387
11
0.303909
21
-0.157717
0
LINE
8
BLACK
6
CONTINUOUS
10
0.303909
20
-0.157717
11
0.293738
21
-0.157717
0
LINE
8
BLACK
6
CONTINUOUS
10
0.293738
20
-0.157717
11
0.292728
21
-0.157539
0
LINE
8
BLACK
6
CONTINUOUS
10
0.292728
20
-0.157539
11
0.291181
21
-0.156241
0
LINE
8
BLACK
6
CONTINUOUS
10
0.291181
20
-0.156241
11
0.29083
21
-0.154251
0
LINE
8
BLACK
6
CONTINUOUS
10
0.29083
20
-0.154251
11
0.29184
21
-0.152502
0
LINE
8
BLACK
6
CONTINUOUS
10
0.29184
20
-0.152502
11
0.293738
21
-0.151811
0
LINE
8
BLACK
6
CONTINUOUS
10
0.293738
20
-0.151811
11
0.303909
21
-0.151811
0
LINE
8
BLACK
6
CONTINUOUS
10
0.303909
20
-0.151811
11
0.303909
21
-0.138969
0
LINE
8
BLACK
6
CONTINUOUS
10
0.303909
20
-0.138969
11
0.288114
21
-0.138969
0
LINE
8
BLACK
6
CONTINUOUS
10
0.288114
20
-0.138969
11
0.287104
21
-0.138791
0
LINE
8
BLACK
6
CONTINUOUS
10
0.287104
20
-0.138791
11
0.285557
21
-0.137493
0
LINE
8
BLACK
6
CONTINUOUS
10
0.285557
20
-0.137493
11
0.285206
21
-0.135504
0
LINE
8
BLACK
6
CONTINUOUS
10
0.285206
20
-0.135504
11
0.286216
21
-0.133755
0
LINE
8
BLACK
6
CONTINUOUS
10
0.286216
20
-0.133755
11
0.288114
21
-0.133064
0
LINE
8
BLACK
6
CONTINUOUS
10
0.288114
20
-0.133064
11
0.306862
21
-0.133064
0
LINE
8
BLACK
6
CONTINUOUS
10
0.306862
20
-0.133064
11
0.307245
21
-0.133131
0
LINE
8
BLACK
6
CONTINUOUS
10
0.149761
20
-0.133132
11
0.149894
21
-0.133109
0
LINE
8
BLACK
6
CONTINUOUS
10
0.149894
20
-0.133109
11
0.150011
21
-0.133176
0
LINE
8
BLACK
6
CONTINUOUS
10
0.150011
20
-0.133176
11
0.150146
21
-0.133164
0
LINE
8
BLACK
6
CONTINUOUS
10
0.150146
20
-0.133164
11
0.150774
21
-0.133604
0
LINE
8
BLACK
6
CONTINUOUS
10
0.150774
20
-0.133604
11
0.151469
21
-0.133929
0
LINE
8
BLACK
6
CONTINUOUS
10
0.151469
20
-0.133929
11
0.153344
21
-0.135803
0
LINE
8
BLACK
6
CONTINUOUS
10
0.153344
20
-0.135803
11
0.153567
21
-0.136122
0
LINE
8
BLACK
6
CONTINUOUS
10
0.153567
20
-0.136122
11
0.153675
21
-0.136198
0
LINE
8
BLACK
6
CONTINUOUS
10
0.153675
20
-0.136198
11
0.153709
21
-0.136324
0
LINE
8
BLACK
6
CONTINUOUS
10
0.153709
20
-0.136324
11
0.153932
21
-0.136643
0
LINE
8
BLACK
6
CONTINUOUS
10
0.153932
20
-0.136643
11
0.153999
21
-0.137408
0
LINE
8
BLACK
6
CONTINUOUS
10
0.153999
20
-0.137408
11
0.154198
21
-0.138149
0
LINE
8
BLACK
6
CONTINUOUS
10
0.154198
20
-0.138149
11
0.154085
21
-0.13839
0
LINE
8
BLACK
6
CONTINUOUS
10
0.154085
20
-0.13839
11
0.154108
21
-0.138655
0
LINE
8
BLACK
6
CONTINUOUS
10
0.154108
20
-0.138655
11
0.153668
21
-0.139284
0
LINE
8
BLACK
6
CONTINUOUS
10
0.153668
20
-0.139284
11
0.153344
21
-0.139979
0
LINE
8
BLACK
6
CONTINUOUS
10
0.153344
20
-0.139979
11
0.151469
21
-0.141854
0
LINE
8
BLACK
6
CONTINUOUS
10
0.151469
20
-0.141854
11
0.15115
21
-0.142077
0
LINE
8
BLACK
6
CONTINUOUS
10
0.15115
20
-0.142077
11
0.151075
21
-0.142185
0
LINE
8
BLACK
6
CONTINUOUS
10
0.151075
20
-0.142185
11
0.150948
21
-0.142219
0
LINE
8
BLACK
6
CONTINUOUS
10
0.150948
20
-0.142219
11
0.150941
21
-0.142224
0
LINE
8
BLACK
6
CONTINUOUS
10
0.150941
20
-0.142224
11
0.150858
21
-0.142323
0
LINE
8
BLACK
6
CONTINUOUS
10
0.150858
20
-0.142323
11
0.150779
21
-0.142337
0
LINE
8
BLACK
6
CONTINUOUS
10
0.150779
20
-0.142337
11
0.150629
21
-0.142442
0
LINE
8
BLACK
6
CONTINUOUS
10
0.150629
20
-0.142442
11
0.149865
21
-0.142509
0
LINE
8
BLACK
6
CONTINUOUS
10
0.149865
20
-0.142509
11
0.149124
21
-0.142708
0
LINE
8
BLACK
6
CONTINUOUS
10
0.149124
20
-0.142708
11
0.149002
21
-0.14265
0
LINE
8
BLACK
6
CONTINUOUS
10
0.149002
20
-0.14265
11
0.148869
21
-0.142674
0
LINE
8
BLACK
6
CONTINUOUS
10
0.148869
20
-0.142674
11
0.148752
21
-0.142606
0
LINE
8
BLACK
6
CONTINUOUS
10
0.148752
20
-0.142606
11
0.148617
21
-0.142618
0
LINE
8
BLACK
6
CONTINUOUS
10
0.148617
20
-0.142618
11
0.147989
21
-0.142178
0
LINE
8
BLACK
6
CONTINUOUS
10
0.147989
20
-0.142178
11
0.147293
21
-0.141854
0
LINE
8
BLACK
6
CONTINUOUS
10
0.147293
20
-0.141854
11
0.145419
21
-0.139979
0
LINE
8
BLACK
6
CONTINUOUS
10
0.145419
20
-0.139979
11
0.145195
21
-0.13966
0
LINE
8
BLACK
6
CONTINUOUS
10
0.145195
20
-0.13966
11
0.145088
21
-0.139585
0
LINE
8
BLACK
6
CONTINUOUS
10
0.145088
20
-0.139585
11
0.145054
21
-0.139458
0
LINE
8
BLACK
6
CONTINUOUS
10
0.145054
20
-0.139458
11
0.14483
21
-0.139139
0
LINE
8
BLACK
6
CONTINUOUS
10
0.14483
20
-0.139139
11
0.144764
21
-0.138375
0
LINE
8
BLACK
6
CONTINUOUS
10
0.144764
20
-0.138375
11
0.144565
21
-0.137634
0
LINE
8
BLACK
6
CONTINUOUS
10
0.144565
20
-0.137634
11
0.144678
21
-0.137393
0
LINE
8
BLACK
6
CONTINUOUS
10
0.144678
20
-0.137393
11
0.144654
21
-0.137127
0
LINE
8
BLACK
6
CONTINUOUS
10
0.144654
20
-0.137127
11
0.145094
21
-0.136499
0
LINE
8
BLACK
6
CONTINUOUS
10
0.145094
20
-0.136499
11
0.145419
21
-0.135803
0
LINE
8
BLACK
6
CONTINUOUS
10
0.145419
20
-0.135803
11
0.147293
21
-0.133929
0
LINE
8
BLACK
6
CONTINUOUS
10
0.147293
20
-0.133929
11
0.147612
21
-0.133705
0
LINE
8
BLACK
6
CONTINUOUS
10
0.147612
20
-0.133705
11
0.147688
21
-0.133598
0
LINE
8
BLACK
6
CONTINUOUS
10
0.147688
20
-0.133598
11
0.147814
21
-0.133564
0
LINE
8
BLACK
6
CONTINUOUS
10
0.147814
20
-0.133564
11
0.147821
21
-0.133559
0
LINE
8
BLACK
6
CONTINUOUS
10
0.147821
20
-0.133559
11
0.147905
21
-0.133459
0
LINE
8
BLACK
6
CONTINUOUS
10
0.147905
20
-0.133459
11
0.147983
21
-0.133445
0
LINE
8
BLACK
6
CONTINUOUS
10
0.147983
20
-0.133445
11
0.148133
21
-0.13334
0
LINE
8
BLACK
6
CONTINUOUS
10
0.148133
20
-0.13334
11
0.148898
21
-0.133274
0
LINE
8
BLACK
6
CONTINUOUS
10
0.148898
20
-0.133274
11
0.149639
21
-0.133075
0
LINE
8
BLACK
6
CONTINUOUS
10
0.149639
20
-0.133075
11
0.149761
21
-0.133132
0
LINE
8
BLACK
6
CONTINUOUS
10
0.273495
20
-0.133132
11
0.273629
21
-0.133109
0
LINE
8
BLACK
6
CONTINUOUS
10
0.273629
20
-0.133109
11
0.273746
21
-0.133176
0
LINE
8
BLACK
6
CONTINUOUS
10
0.273746
20
-0.133176
11
0.27388
21
-0.133164
0
LINE
8
BLACK
6
CONTINUOUS
10
0.27388
20
-0.133164
11
0.274508
21
-0.133604
0
LINE
8
BLACK
6
CONTINUOUS
10
0.274508
20
-0.133604
11
0.275204
21
-0.133929
0
LINE
8
BLACK
6
CONTINUOUS
10
0.275204
20
-0.133929
11
0.277079
21
-0.135803
0
LINE
8
BLACK
6
CONTINUOUS
10
0.277079
20
-0.135803
11
0.277302
21
-0.136122
0
LINE
8
BLACK
6
CONTINUOUS
10
0.277302
20
-0.136122
11
0.277409
21
-0.136198
0
LINE
8
BLACK
6
CONTINUOUS
10
0.277409
20
-0.136198
11
0.277443
21
-0.136324
0
LINE
8
BLACK
6
CONTINUOUS
10
0.277443
20
-0.136324
11
0.277667
21
-0.136643
0
LINE
8
BLACK
6
CONTINUOUS
10
0.277667
20
-0.136643
11
0.277734
21
-0.137408
0
LINE
8
BLACK
6
CONTINUOUS
10
0.277734
20
-0.137408
11
0.277932
21
-0.138149
0
LINE
8
BLACK
6
CONTINUOUS
10
0.277932
20
-0.138149
11
0.277819
21
-0.13839
0
LINE
8
BLACK
6
CONTINUOUS
10
0.277819
20
-0.13839
11
0.277843
21
-0.138655
0
LINE
8
BLACK
6
CONTINUOUS
10
0.277843
20
-0.138655
11
0.277403
21
-0.139284
0
LINE
8
BLACK
6
CONTINUOUS
10
0.277403
20
-0.139284
11
0.277079
21
-0.139979
0
LINE
8
BLACK
6
CONTINUOUS
10
0.277079
20
-0.139979
11
0.275204
21
-0.141854
0
LINE
8
BLACK
6
CONTINUOUS
10
0.275204
20
-0.141854
11
0.274885
21
-0.142077
0
LINE
8
BLACK
6
CONTINUOUS
10
0.274885
20
-0.142077
11
0.274809
21
-0.142185
0
LINE
8
BLACK
6
CONTINUOUS
10
0.274809
20
-0.142185
11
0.274683
21
-0.142219
0
LINE
8
BLACK
6
CONTINUOUS
10
0.274683
20
-0.142219
11
0.274676
21
-0.142224
0
LINE
8
BLACK
6
CONTINUOUS
10
0.274676
20
-0.142224
11
0.274592
21
-0.142323
0
LINE
8
BLACK
6
CONTINUOUS
10
0.274592
20
-0.142323
11
0.274514
21
-0.142337
0
LINE
8
BLACK
6
CONTINUOUS
10
0.274514
20
-0.142337
11
0.274364
21
-0.142442
0
LINE
8
BLACK
6
CONTINUOUS
10
0.274364
20
-0.142442
11
0.273599
21
-0.142509
0
LINE
8
BLACK
6
CONTINUOUS
10
0.273599
20
-0.142509
11
0.272858
21
-0.142708
0
LINE
8
BLACK
6
CONTINUOUS
10
0.272858
20
-0.142708
11
0.272736
21
-0.14265
0
LINE
8
BLACK
6
CONTINUOUS
10
0.272736
20
-0.14265
11
0.272603
21
-0.142674
0
LINE
8
BLACK
6
CONTINUOUS
10
0.272603
20
-0.142674
11
0.272486
21
-0.142606
0
LINE
8
BLACK
6
CONTINUOUS
10
0.272486
20
-0.142606
11
0.272352
21
-0.142618
0
LINE
8
BLACK
6
CONTINUOUS
10
0.272352
20
-0.142618
11
0.271723
21
-0.142178
0
LINE
8
BLACK
6
CONTINUOUS
10
0.271723
20
-0.142178
11
0.271028
21
-0.141854
0
LINE
8
BLACK
6
CONTINUOUS
10
0.271028
20
-0.141854
11
0.269153
21
-0.139979
0
LINE
8
BLACK
6
CONTINUOUS
10
0.269153
20
-0.139979
11
0.26893
21
-0.13966
0
LINE
8
BLACK
6
CONTINUOUS
10
0.26893
20
-0.13966
11
0.268822
21
-0.139585
0
LINE
8
BLACK
6
CONTINUOUS
10
0.268822
20
-0.139585
11
0.268788
21
-0.139458
0
LINE
8
BLACK
6
CONTINUOUS
10
0.268788
20
-0.139458
11
0.268565
21
-0.139139
0
LINE
8
BLACK
6
CONTINUOUS
10
0.268565
20
-0.139139
11
0.268498
21
-0.138375
0
LINE
8
BLACK
6
CONTINUOUS
10
0.268498
20
-0.138375
11
0.2683
21
-0.137634
0
LINE
8
BLACK
6
CONTINUOUS
10
0.2683
20
-0.137634
11
0.268412
21
-0.137393
0
LINE
8
BLACK
6
CONTINUOUS
10
0.268412
20
-0.137393
11
0.268389
21
-0.137127
0
LINE
8
BLACK
6
CONTINUOUS
10
0.268389
20
-0.137127
11
0.268829
21
-0.136499
0
LINE
8
BLACK
6
CONTINUOUS
10
0.268829
20
-0.136499
11
0.269153
21
-0.135803
0
LINE
8
BLACK
6
CONTINUOUS
10
0.269153
20
-0.135803
11
0.271028
21
-0.133929
0
LINE
8
BLACK
6
CONTINUOUS
10
0.271028
20
-0.133929
11
0.271347
21
-0.133705
0
LINE
8
BLACK
6
CONTINUOUS
10
0.271347
20
-0.133705
11
0.271422
21
-0.133598
0
LINE
8
BLACK
6
CONTINUOUS
10
0.271422
20
-0.133598
11
0.271549
21
-0.133564
0
LINE
8
BLACK
6
CONTINUOUS
10
0.271549
20
-0.133564
11
0.271556
21
-0.133559
0
LINE
8
BLACK
6
CONTINUOUS
10
0.271556
20
-0.133559
11
0.271639
21
-0.133459
0
LINE
8
BLACK
6
CONTINUOUS
10
0.271639
20
-0.133459
11
0.271718
21
-0.133445
0
LINE
8
BLACK
6
CONTINUOUS
10
0.271718
20
-0.133445
11
0.271868
21
-0.13334
0
LINE
8
BLACK
6
CONTINUOUS
10
0.271868
20
-0.13334
11
0.272632
21
-0.133274
0
LINE
8
BLACK
6
CONTINUOUS
10
0.272632
20
-0.133274
11
0.273373
21
-0.133075
0
LINE
8
BLACK
6
CONTINUOUS
10
0.273373
20
-0.133075
11
0.273495
21
-0.133132
0
LINE
8
BLACK
6
CONTINUOUS
10
0.18174
20
-0.06902
11
0.181859
21
-0.0689965
0
LINE
8
BLACK
6
CONTINUOUS
10
0.181859
20
-0.0689965
11
0.182145
21
-0.0691878
0
LINE
8
BLACK
6
CONTINUOUS
10
0.182145
20
-0.0691878
11
0.182462
21
-0.0693194
0
LINE
8
BLACK
6
CONTINUOUS
10
0.182462
20
-0.0693194
11
0.182509
21
-0.0694318
0
LINE
8
BLACK
6
CONTINUOUS
10
0.182509
20
-0.0694318
11
0.18261
21
-0.0694994
0
LINE
8
BLACK
6
CONTINUOUS
10
0.18261
20
-0.0694994
11
0.184045
21
-0.0716519
0
LINE
8
BLACK
6
CONTINUOUS
10
0.184045
20
-0.0716519
11
0.185326
21
-0.0729334
0
LINE
8
BLACK
6
CONTINUOUS
10
0.185326
20
-0.0729334
11
0.186655
21
-0.0735976
0
LINE
8
BLACK
6
CONTINUOUS
10
0.186655
20
-0.0735976
11
0.187247
21
-0.0742806
0
LINE
8
BLACK
6
CONTINUOUS
10
0.187247
20
-0.0742806
11
0.187183
21
-0.0751823
0
LINE
8
BLACK
6
CONTINUOUS
10
0.187183
20
-0.0751823
11
0.1865
21
-0.0757745
0
LINE
8
BLACK
6
CONTINUOUS
10
0.1865
20
-0.0757745
11
0.185599
21
-0.0757105
0
LINE
8
BLACK
6
CONTINUOUS
10
0.185599
20
-0.0757105
11
0.184099
21
-0.0749606
0
LINE
8
BLACK
6
CONTINUOUS
10
0.184099
20
-0.0749606
11
0.183971
21
-0.0748137
0
LINE
8
BLACK
6
CONTINUOUS
10
0.183971
20
-0.0748137
11
0.183792
21
-0.0747393
0
LINE
8
BLACK
6
CONTINUOUS
10
0.183792
20
-0.0747393
11
0.182808
21
-0.0737559
0
LINE
8
BLACK
6
CONTINUOUS
10
0.182808
20
-0.0737559
11
0.182808
21
-0.0847215
0
LINE
8
BLACK
6
CONTINUOUS
10
0.182808
20
-0.0847215
11
0.186127
21
-0.0847215
0
LINE
8
BLACK
6
CONTINUOUS
10
0.186127
20
-0.0847215
11
0.186962
21
-0.0850675
0
LINE
8
BLACK
6
CONTINUOUS
10
0.186962
20
-0.0850675
11
0.187308
21
-0.0859026
0
LINE
8
BLACK
6
CONTINUOUS
10
0.187308
20
-0.0859026
11
0.186962
21
-0.0867378
0
LINE
8
BLACK
6
CONTINUOUS
10
0.186962
20
-0.0867378
11
0.186127
21
-0.0870837
0
LINE
8
BLACK
6
CONTINUOUS
10
0.186127
20
-0.0870837
11
0.181627
21
-0.0870837
0
LINE
8
BLACK
6
CONTINUOUS
10
0.181627
20
-0.0870837
11
0.177128
21
-0.0870837
0
LINE
8
BLACK
6
CONTINUOUS
10
0.177128
20
-0.0870837
11
0.176293
21
-0.0867378
0
LINE
8
BLACK
6
CONTINUOUS
10
0.176293
20
-0.0867378
11
0.175947
21
-0.0859026
0
LINE
8
BLACK
6
CONTINUOUS
10
0.175947
20
-0.0859026
11
0.176293
21
-0.0850675
0
LINE
8
BLACK
6
CONTINUOUS
10
0.176293
20
-0.0850675
11
0.177128
21
-0.0847215
0
LINE
8
BLACK
6
CONTINUOUS
10
0.177128
20
-0.0847215
11
0.180446
21
-0.0847215
0
LINE
8
BLACK
6
CONTINUOUS
10
0.180446
20
-0.0847215
11
0.180446
21
-0.0701546
0
LINE
8
BLACK
6
CONTINUOUS
10
0.180446
20
-0.0701546
11
0.180493
21
-0.0700422
0
LINE
8
BLACK
6
CONTINUOUS
10
0.180493
20
-0.0700422
11
0.180469
21
-0.069923
0
LINE
8
BLACK
6
CONTINUOUS
10
0.180469
20
-0.069923
11
0.18066
21
-0.0696372
0
LINE
8
BLACK
6
CONTINUOUS
10
0.18066
20
-0.0696372
11
0.180792
21
-0.0693194
0
LINE
8
BLACK
6
CONTINUOUS
10
0.180792
20
-0.0693194
11
0.180904
21
-0.0692729
0
LINE
8
BLACK
6
CONTINUOUS
10
0.180904
20
-0.0692729
11
0.180972
21
-0.0691719
0
LINE
8
BLACK
6
CONTINUOUS
10
0.180972
20
-0.0691719
11
0.181309
21
-0.0691051
0
LINE
8
BLACK
6
CONTINUOUS
10
0.181309
20
-0.0691051
11
0.181627
21
-0.0689735
0
LINE
8
BLACK
6
CONTINUOUS
10
0.181627
20
-0.0689735
11
0.18174
21
-0.06902
0
LINE
8
BLACK
6
CONTINUOUS
10
0.20196
20
-0.0693194
11
0.202306
21
-0.0701546
0
LINE
8
BLACK
6
CONTINUOUS
10
0.202306
20
-0.0701546
11
0.202306
21
-0.0859026
0
LINE
8
BLACK
6
CONTINUOUS
10
0.202306
20
-0.0859026
11
0.20196
21
-0.0867378
0
LINE
8
BLACK
6
CONTINUOUS
10
0.20196
20
-0.0867378
11
0.201125
21
-0.0870837
0
LINE
8
BLACK
6
CONTINUOUS
10
0.201125
20
-0.0870837
11
0.197375
21
-0.0870837
0
LINE
8
BLACK
6
CONTINUOUS
10
0.197375
20
-0.0870837
11
0.197196
21
-0.0870093
0
LINE
8
BLACK
6
CONTINUOUS
10
0.197196
20
-0.0870093
11
0.197002
21
-0.0870231
0
LINE
8
BLACK
6
CONTINUOUS
10
0.197002
20
-0.0870231
11
0.194752
21
-0.0862733
0
LINE
8
BLACK
6
CONTINUOUS
10
0.194752
20
-0.0862733
11
0.194544
21
-0.0860931
0
LINE
8
BLACK
6
CONTINUOUS
10
0.194544
20
-0.0860931
11
0.19429
21
-0.0859879
0
LINE
8
BLACK
6
CONTINUOUS
10
0.19429
20
-0.0859879
11
0.192791
21
-0.0844881
0
LINE
8
BLACK
6
CONTINUOUS
10
0.192791
20
-0.0844881
11
0.192716
21
-0.0843085
0
LINE
8
BLACK
6
CONTINUOUS
10
0.192716
20
-0.0843085
11
0.192569
21
-0.0841811
0
LINE
8
BLACK
6
CONTINUOUS
10
0.192569
20
-0.0841811
11
0.191819
21
-0.0826813
0
LINE
8
BLACK
6
CONTINUOUS
10
0.191819
20
-0.0826813
11
0.19181
21
-0.0825474
0
LINE
8
BLACK
6
CONTINUOUS
10
0.19181
20
-0.0825474
11
0.19173
21
-0.0824396
0
LINE
8
BLACK
6
CONTINUOUS
10
0.19173
20
-0.0824396
11
0.19098
21
-0.07944
0
LINE
8
BLACK
6
CONTINUOUS
10
0.19098
20
-0.07944
11
0.191002
21
-0.0792919
0
LINE
8
BLACK
6
CONTINUOUS
10
0.191002
20
-0.0792919
11
0.190945
21
-0.0791535
0
LINE
8
BLACK
6
CONTINUOUS
10
0.190945
20
-0.0791535
11
0.190945
21
-0.0769038
0
LINE
8
BLACK
6
CONTINUOUS
10
0.190945
20
-0.0769038
11
0.191002
21
-0.0767654
0
LINE
8
BLACK
6
CONTINUOUS
10
0.191002
20
-0.0767654
11
0.19098
21
-0.0766173
0
LINE
8
BLACK
6
CONTINUOUS
10
0.19098
20
-0.0766173
11
0.19173
21
-0.0736177
0
LINE
8
BLACK
6
CONTINUOUS
10
0.19173
20
-0.0736177
11
0.19181
21
-0.0735098
0
LINE
8
BLACK
6
CONTINUOUS
10
0.19181
20
-0.0735098
11
0.191819
21
-0.0733759
0
LINE
8
BLACK
6
CONTINUOUS
10
0.191819
20
-0.0733759
11
0.192569
21
-0.0718761
0
LINE
8
BLACK
6
CONTINUOUS
10
0.192569
20
-0.0718761
11
0.192716
21
-0.0717487
0
LINE
8
BLACK
6
CONTINUOUS
10
0.192716
20
-0.0717487
11
0.192791
21
-0.0715692
0
LINE
8
BLACK
6
CONTINUOUS
10
0.192791
20
-0.0715692
11
0.19429
21
-0.0700694
0
LINE
8
BLACK
6
CONTINUOUS
10
0.19429
20
-0.0700694
11
0.194544
21
-0.0699641
0
LINE
8
BLACK
6
CONTINUOUS
10
0.194544
20
-0.0699641
11
0.194752
21
-0.0697841
0
LINE
8
BLACK
6
CONTINUOUS
10
0.194752
20
-0.0697841
11
0.197002
21
-0.0690341
0
LINE
8
BLACK
6
CONTINUOUS
10
0.197002
20
-0.0690341
11
0.197196
21
-0.0690479
0
LINE
8
BLACK
6
CONTINUOUS
10
0.197196
20
-0.0690479
11
0.197375
21
-0.0689735
0
LINE
8
BLACK
6
CONTINUOUS
10
0.197375
20
-0.0689735
11
0.201125
21
-0.0689735
0
LINE
8
BLACK
6
CONTINUOUS
10
0.201125
20
-0.0689735
11
0.20196
21
-0.0693194
0
LINE
8
BLACK
6
CONTINUOUS
10
0.195764
20
-0.0719368
11
0.194596
21
-0.0731039
0
LINE
8
BLACK
6
CONTINUOUS
10
0.194596
20
-0.0731039
11
0.19399
21
-0.0743164
0
LINE
8
BLACK
6
CONTINUOUS
10
0.19399
20
-0.0743164
11
0.193307
21
-0.0770491
0
LINE
8
BLACK
6
CONTINUOUS
10
0.193307
20
-0.0770491
11
0.193307
21
-0.0790081
0
LINE
8
BLACK
6
CONTINUOUS
10
0.193307
20
-0.0790081
11
0.19399
21
-0.0817408
0
LINE
8
BLACK
6
CONTINUOUS
10
0.19399
20
-0.0817408
11
0.194596
21
-0.0829533
0
LINE
8
BLACK
6
CONTINUOUS
10
0.194596
20
-0.0829533
11
0.195764
21
-0.0841204
0
LINE
8
BLACK
6
CONTINUOUS
10
0.195764
20
-0.0841204
11
0.197567
21
-0.0847215
0
LINE
8
BLACK
6
CONTINUOUS
10
0.197567
20
-0.0847215
11
0.199944
21
-0.0847215
0
LINE
8
BLACK
6
CONTINUOUS
10
0.199944
20
-0.0847215
11
0.199944
21
-0.0713357
0
LINE
8
BLACK
6
CONTINUOUS
10
0.199944
20
-0.0713357
11
0.197567
21
-0.0713357
0
LINE
8
BLACK
6
CONTINUOUS
10
0.197567
20
-0.0713357
11
0.195764
21
-0.0719368
0
LINE
8
BLACK
6
CONTINUOUS
10
0.209459
20
-0.0693194
11
0.209805
21
-0.0701546
0
LINE
8
BLACK
6
CONTINUOUS
10
0.209805
20
-0.0701546
11
0.209805
21
-0.0859026
0
LINE
8
BLACK
6
CONTINUOUS
10
0.209805
20
-0.0859026
11
0.209459
21
-0.0867378
0
LINE
8
BLACK
6
CONTINUOUS
10
0.209459
20
-0.0867378
11
0.208624
21
-0.0870837
0
LINE
8
BLACK
6
CONTINUOUS
10
0.208624
20
-0.0870837
11
0.207789
21
-0.0867378
0
LINE
8
BLACK
6
CONTINUOUS
10
0.207789
20
-0.0867378
11
0.207443
21
-0.0859026
0
LINE
8
BLACK
6
CONTINUOUS
10
0.207443
20
-0.0859026
11
0.207443
21
-0.0701546
0
LINE
8
BLACK
6
CONTINUOUS
10
0.207443
20
-0.0701546
11
0.207789
21
-0.0693194
0
LINE
8
BLACK
6
CONTINUOUS
10
0.207789
20
-0.0693194
11
0.208624
21
-0.0689735
0
LINE
8
BLACK
6
CONTINUOUS
10
0.208624
20
-0.0689735
11
0.209459
21
-0.0693194
0
LINE
8
BLACK
6
CONTINUOUS
10
0.222957
20
-0.0693194
11
0.223303
21
-0.0701546
0
LINE
8
BLACK
6
CONTINUOUS
10
0.223303
20
-0.0701546
11
0.223303
21
-0.0859026
0
LINE
8
BLACK
6
CONTINUOUS
10
0.223303
20
-0.0859026
11
0.222957
21
-0.0867378
0
LINE
8
BLACK
6
CONTINUOUS
10
0.222957
20
-0.0867378
11
0.222122
21
-0.0870837
0
LINE
8
BLACK
6
CONTINUOUS
10
0.222122
20
-0.0870837
11
0.221287
21
-0.0867378
0
LINE
8
BLACK
6
CONTINUOUS
10
0.221287
20
-0.0867378
11
0.220941
21
-0.0859026
0
LINE
8
BLACK
6
CONTINUOUS
10
0.220941
20
-0.0859026
11
0.220941
21
-0.0788348
0
LINE
8
BLACK
6
CONTINUOUS
10
0.220941
20
-0.0788348
11
0.216873
21
-0.0788348
0
LINE
8
BLACK
6
CONTINUOUS
10
0.216873
20
-0.0788348
11
0.216038
21
-0.0784888
0
LINE
8
BLACK
6
CONTINUOUS
10
0.216038
20
-0.0784888
11
0.215692
21
-0.0776537
0
LINE
8
BLACK
6
CONTINUOUS
10
0.215692
20
-0.0776537
11
0.216038
21
-0.0768185
0
LINE
8
BLACK
6
CONTINUOUS
10
0.216038
20
-0.0768185
11
0.216873
21
-0.0764726
0
LINE
8
BLACK
6
CONTINUOUS
10
0.216873
20
-0.0764726
11
0.220941
21
-0.0764726
0
LINE
8
BLACK
6
CONTINUOUS
10
0.220941
20
-0.0764726
11
0.220941
21
-0.0713357
0
LINE
8
BLACK
6
CONTINUOUS
10
0.220941
20
-0.0713357
11
0.214623
21
-0.0713357
0
LINE
8
BLACK
6
CONTINUOUS
10
0.214623
20
-0.0713357
11
0.213788
21
-0.0709898
0
LINE
8
BLACK
6
CONTINUOUS
10
0.213788
20
-0.0709898
11
0.213442
21
-0.0701546
0
LINE
8
BLACK
6
CONTINUOUS
10
0.213442
20
-0.0701546
11
0.213788
21
-0.0693194
0
LINE
8
BLACK
6
CONTINUOUS
10
0.213788
20
-0.0693194
11
0.214623
21
-0.0689735
0
LINE
8
BLACK
6
CONTINUOUS
10
0.214623
20
-0.0689735
11
0.222122
21
-0.0689735
0
LINE
8
BLACK
6
CONTINUOUS
10
0.222122
20
-0.0689735
11
0.222957
21
-0.0693194
0
LINE
8
BLACK
6
CONTINUOUS
10
0.208065
20
-0.0381959
11
0.21582
21
-0.0405483
0
LINE
8
BLACK
6
CONTINUOUS
10
0.21582
20
-0.0405483
11
0.222966
21
-0.0443684
0
LINE
8
BLACK
6
CONTINUOUS
10
0.222966
20
-0.0443684
11
0.229231
21
-0.0495094
0
LINE
8
BLACK
6
CONTINUOUS
10
0.229231
20
-0.0495094
11
0.234372
21
-0.0557737
0
LINE
8
BLACK
6
CONTINUOUS
10
0.234372
20
-0.0557737
11
0.238192
21
-0.0629206
0
LINE
8
BLACK
6
CONTINUOUS
10
0.238192
20
-0.0629206
11
0.240544
21
-0.0706754
0
LINE
8
BLACK
6
CONTINUOUS
10
0.240544
20
-0.0706754
11
0.241339
21
-0.0787402
0
LINE
8
BLACK
6
CONTINUOUS
10
0.241339
20
-0.0787402
11
0.240544
21
-0.0868049
0
LINE
8
BLACK
6
CONTINUOUS
10
0.240544
20
-0.0868049
11
0.238192
21
-0.0945598
0
LINE
8
BLACK
6
CONTINUOUS
10
0.238192
20
-0.0945598
11
0.234372
21
-0.101707
0
LINE
8
BLACK
6
CONTINUOUS
10
0.234372
20
-0.101707
11
0.229231
21
-0.107971
0
LINE
8
BLACK
6
CONTINUOUS
10
0.229231
20
-0.107971
11
0.222966
21
-0.113112
0
LINE
8
BLACK
6
CONTINUOUS
10
0.222966
20
-0.113112
11
0.21582
21
-0.116932
0
LINE
8
BLACK
6
CONTINUOUS
10
0.21582
20
-0.116932
11
0.208065
21
-0.119284
0
LINE
8
BLACK
6
CONTINUOUS
10
0.208065
20
-0.119284
11
0.2
21
-0.120079
0
LINE
8
BLACK
6
CONTINUOUS
10
0.2
20
-0.120079
11
0.191935
21
-0.119284
0
LINE
8
BLACK
6
CONTINUOUS
10
0.191935
20
-0.119284
11
0.18418
21
-0.116932
0
LINE
8
BLACK
6
CONTINUOUS
10
0.18418
20
-0.116932
11
0.177034
21
-0.113112
0
LINE
8
BLACK
6
CONTINUOUS
10
0.177034
20
-0.113112
11
0.170769
21
-0.107971
0
LINE
8
BLACK
6
CONTINUOUS
10
0.170769
20
-0.107971
11
0.165628
21
-0.101707
0
LINE
8
BLACK
6
CONTINUOUS
10
0.165628
20
-0.101707
11
0.161808
21
-0.0945598
0
LINE
8
BLACK
6
CONTINUOUS
10
0.161808
20
-0.0945598
11
0.159456
21
-0.0868049
0
LINE
8
BLACK
6
CONTINUOUS
10
0.159456
20
-0.0868049
11
0.158661
21
-0.0787402
0
LINE
8
BLACK
6
CONTINUOUS
10
0.158661
20
-0.0787402
11
0.159456
21
-0.0706754
0
LINE
8
BLACK
6
CONTINUOUS
10
0.159456
20
-0.0706754
11
0.161808
21
-0.0629206
0
LINE
8
BLACK
6
CONTINUOUS
10
0.161808
20
-0.0629206
11
0.165628
21
-0.0557737
0
LINE
8
BLACK
6
CONTINUOUS
10
0.165628
20
-0.0557737
11
0.170769
21
-0.0495094
0
LINE
8
BLACK
6
CONTINUOUS
10
0.170769
20
-0.0495094
11
0.177034
21
-0.0443684
0
LINE
8
BLACK
6
CONTINUOUS
10
0.177034
20
-0.0443684
11
0.18418
21
-0.0405483
0
LINE
8
BLACK
6
CONTINUOUS
10
0.18418
20
-0.0405483
11
0.191935
21
-0.0381959
0
LINE
8
BLACK
6
CONTINUOUS
10
0.191935
20
-0.0381959
11
0.2
21
-0.0374016
0
LINE
8
BLACK
6
CONTINUOUS
10
0.2
20
-0.0374016
11
0.208065
21
-0.0381959
0
LINE
8
BLACK
6
CONTINUOUS
10
0.16314
20
-0.0860722
11
0.165278
21
-0.0931224
0
LINE
8
BLACK
6
CONTINUOUS
10
0.165278
20
-0.0931224
11
0.168751
21
-0.0996199
0
LINE
8
BLACK
6
CONTINUOUS
10
0.168751
20
-0.0996199
11
0.173425
21
-0.105315
0
LINE
8
BLACK
6
CONTINUOUS
10
0.173425
20
-0.105315
11
0.17912
21
-0.109989
0
LINE
8
BLACK
6
CONTINUOUS
10
0.17912
20
-0.109989
11
0.185618
21
-0.113462
0
LINE
8
BLACK
6
CONTINUOUS
10
0.185618
20
-0.113462
11
0.192668
21
-0.115601
0
LINE
8
BLACK
6
CONTINUOUS
10
0.192668
20
-0.115601
11
0.2
21
-0.116323
0
LINE
8
BLACK
6
CONTINUOUS
10
0.2
20
-0.116323
11
0.207332
21
-0.115601
0
LINE
8
BLACK
6
CONTINUOUS
10
0.207332
20
-0.115601
11
0.214382
21
-0.113462
0
LINE
8
BLACK
6
CONTINUOUS
10
0.214382
20
-0.113462
11
0.22088
21
-0.109989
0
LINE
8
BLACK
6
CONTINUOUS
10
0.22088
20
-0.109989
11
0.226575
21
-0.105315
0
LINE
8
BLACK
6
CONTINUOUS
10
0.226575
20
-0.105315
11
0.231249
21
-0.0996199
0
LINE
8
BLACK
6
CONTINUOUS
10
0.231249
20
-0.0996199
11
0.234722
21
-0.0931224
0
LINE
8
BLACK
6
CONTINUOUS
10
0.234722
20
-0.0931224
11
0.23686
21
-0.0860722
0
LINE
8
BLACK
6
CONTINUOUS
10
0.23686
20
-0.0860722
11
0.237583
21
-0.0787402
0
LINE
8
BLACK
6
CONTINUOUS
10
0.237583
20
-0.0787402
11
0.23686
21
-0.0714081
0
LINE
8
BLACK
6
CONTINUOUS
10
0.23686
20
-0.0714081
11
0.234722
21
-0.064358
0
LINE
8
BLACK
6
CONTINUOUS
10
0.234722
20
-0.064358
11
0.231249
21
-0.0578604
0
LINE
8
BLACK
6
CONTINUOUS
10
0.231249
20
-0.0578604
11
0.226575
21
-0.0521653
0
LINE
8
BLACK
6
CONTINUOUS
10
0.226575
20
-0.0521653
11
0.22088
21
-0.0474914
0
LINE
8
BLACK
6
CONTINUOUS
10
0.22088
20
-0.0474914
11
0.214382
21
-0.0440184
0
LINE
8
BLACK
6
CONTINUOUS
10
0.214382
20
-0.0440184
11
0.207332
21
-0.0418797
0
LINE
8
BLACK
6
CONTINUOUS
10
0.207332
20
-0.0418797
11
0.2
21
-0.0411576
0
LINE
8
BLACK
6
CONTINUOUS
10
0.2
20
-0.0411576
11
0.192668
21
-0.0418797
0
LINE
8
BLACK
6
CONTINUOUS
10
0.192668
20
-0.0418797
11
0.185618
21
-0.0440184
0
LINE
8
BLACK
6
CONTINUOUS
10
0.185618
20
-0.0440184
11
0.17912
21
-0.0474914
0
LINE
8
BLACK
6
CONTINUOUS
10
0.17912
20
-0.0474914
11
0.173425
21
-0.0521653
0
LINE
8
BLACK
6
CONTINUOUS
10
0.173425
20
-0.0521653
11
0.168751
21
-0.0578604
0
LINE
8
BLACK
6
CONTINUOUS
10
0.168751
20
-0.0578604
11
0.165278
21
-0.064358
0
LINE
8
BLACK
6
CONTINUOUS
10
0.165278
20
-0.064358
11
0.16314
21
-0.0714081
0
LINE
8
BLACK
6
CONTINUOUS
10
0.16314
20
-0.0714081
11
0.162417
21
-0.0787402
0
LINE
8
BLACK
6
CONTINUOUS
10
0.162417
20
-0.0787402
11
0.16314
21
-0.0860722
0
LINE
8
BLACK
6
CONTINUOUS
10
0.210844
20
0.0598874
11
0.211305
21
0.0587739
0
LINE
8
BLACK
6
CONTINUOUS
10
0.211305
20
0.0587739
11
0.211305
21
0.0475253
0
LINE
8
BLACK
6
CONTINUOUS
10
0.211305
20
0.0475253
11
0.210844
21
0.0464118
0
LINE
8
BLACK
6
CONTINUOUS
10
0.210844
20
0.0464118
11
0.20973
21
0.0459505
0
LINE
8
BLACK
6
CONTINUOUS
10
0.20973
20
0.0459505
11
0.208617
21
0.0464118
0
LINE
8
BLACK
6
CONTINUOUS
10
0.208617
20
0.0464118
11
0.208155
21
0.0475253
0
LINE
8
BLACK
6
CONTINUOUS
10
0.208155
20
0.0475253
11
0.208155
21
0.0515748
0
LINE
8
BLACK
6
CONTINUOUS
10
0.208155
20
0.0515748
11
0.190045
21
0.0515748
0
LINE
8
BLACK
6
CONTINUOUS
10
0.190045
20
0.0515748
11
0.189895
21
0.0516369
0
LINE
8
BLACK
6
CONTINUOUS
10
0.189895
20
0.0516369
11
0.189736
21
0.0516054
0
LINE
8
BLACK
6
CONTINUOUS
10
0.189736
20
0.0516054
11
0.189355
21
0.0518606
0
LINE
8
BLACK
6
CONTINUOUS
10
0.189355
20
0.0518606
11
0.188932
21
0.0520361
0
LINE
8
BLACK
6
CONTINUOUS
10
0.188932
20
0.0520361
11
0.18887
21
0.0521859
0
LINE
8
BLACK
6
CONTINUOUS
10
0.18887
20
0.0521859
11
0.188735
21
0.0522761
0
LINE
8
BLACK
6
CONTINUOUS
10
0.188735
20
0.0522761
11
0.188646
21
0.0527259
0
LINE
8
BLACK
6
CONTINUOUS
10
0.188646
20
0.0527259
11
0.18847
21
0.0531496
0
LINE
8
BLACK
6
CONTINUOUS
10
0.18847
20
0.0531496
11
0.188532
21
0.0532994
0
LINE
8
BLACK
6
CONTINUOUS
10
0.188532
20
0.0532994
11
0.188501
21
0.0534585
0
LINE
8
BLACK
6
CONTINUOUS
10
0.188501
20
0.0534585
11
0.188756
21
0.0538395
0
LINE
8
BLACK
6
CONTINUOUS
10
0.188756
20
0.0538395
11
0.188932
21
0.0542631
0
LINE
8
BLACK
6
CONTINUOUS
10
0.188932
20
0.0542631
11
0.189081
21
0.0543252
0
LINE
8
BLACK
6
CONTINUOUS
10
0.189081
20
0.0543252
11
0.189172
21
0.0544599
0
LINE
8
BLACK
6
CONTINUOUS
10
0.189172
20
0.0544599
11
0.191854
21
0.0562482
0
LINE
8
BLACK
6
CONTINUOUS
10
0.191854
20
0.0562482
11
0.193438
21
0.057832
0
LINE
8
BLACK
6
CONTINUOUS
10
0.193438
20
0.057832
11
0.194261
21
0.0594781
0
LINE
8
BLACK
6
CONTINUOUS
10
0.194261
20
0.0594781
11
0.195171
21
0.0602678
0
LINE
8
BLACK
6
CONTINUOUS
10
0.195171
20
0.0602678
11
0.196374
21
0.0601824
0
LINE
8
BLACK
6
CONTINUOUS
10
0.196374
20
0.0601824
11
0.197164
21
0.0592719
0
LINE
8
BLACK
6
CONTINUOUS
10
0.197164
20
0.0592719
11
0.197078
21
0.0580696
0
LINE
8
BLACK
6
CONTINUOUS
10
0.197078
20
0.0580696
11
0.196141
21
0.0561949
0
LINE
8
BLACK
6
CONTINUOUS
10
0.196141
20
0.0561949
11
0.195945
21
0.0560251
0
LINE
8
BLACK
6
CONTINUOUS
10
0.195945
20
0.0560251
11
0.195846
21
0.0557856
0
LINE
8
BLACK
6
CONTINUOUS
10
0.195846
20
0.0557856
11
0.194785
21
0.0547244
0
LINE
8
BLACK
6
CONTINUOUS
10
0.194785
20
0.0547244
11
0.208155
21
0.0547244
0
LINE
8
BLACK
6
CONTINUOUS
10
0.208155
20
0.0547244
11
0.208155
21
0.0587739
0
LINE
8
BLACK
6
CONTINUOUS
10
0.208155
20
0.0587739
11
0.208617
21
0.0598874
0
LINE
8
BLACK
6
CONTINUOUS
10
0.208617
20
0.0598874
11
0.20973
21
0.0603487
0
LINE
8
BLACK
6
CONTINUOUS
10
0.20973
20
0.0603487
11
0.210844
21
0.0598874
0
LINE
8
BLACK
6
CONTINUOUS
10
0.201478
20
0.0799574
11
0.201676
21
0.0799867
0
LINE
8
BLACK
6
CONTINUOUS
10
0.201676
20
0.0799867
11
0.205425
21
0.0790494
0
LINE
8
BLACK
6
CONTINUOUS
10
0.205425
20
0.0790494
11
0.205569
21
0.0789428
0
LINE
8
BLACK
6
CONTINUOUS
10
0.205569
20
0.0789428
11
0.205748
21
0.0789301
0
LINE
8
BLACK
6
CONTINUOUS
10
0.205748
20
0.0789301
11
0.207622
21
0.0779927
0
LINE
8
BLACK
6
CONTINUOUS
10
0.207622
20
0.0779927
11
0.207792
21
0.077797
0
LINE
8
BLACK
6
CONTINUOUS
10
0.207792
20
0.077797
11
0.208032
21
0.0776978
0
LINE
8
BLACK
6
CONTINUOUS
10
0.208032
20
0.0776978
11
0.209906
21
0.075823
0
LINE
8
BLACK
6
CONTINUOUS
10
0.209906
20
0.075823
11
0.210047
21
0.0754843
0
LINE
8
BLACK
6
CONTINUOUS
10
0.210047
20
0.0754843
11
0.210287
21
0.0752074
0
LINE
8
BLACK
6
CONTINUOUS
10
0.210287
20
0.0752074
11
0.211224
21
0.0723953
0
LINE
8
BLACK
6
CONTINUOUS
10
0.211224
20
0.0723953
11
0.211206
21
0.0721367
0
LINE
8
BLACK
6
CONTINUOUS
10
0.211206
20
0.0721367
11
0.211305
21
0.0718973
0
LINE
8
BLACK
6
CONTINUOUS
10
0.211305
20
0.0718973
11
0.211305
21
0.0700225
0
LINE
8
BLACK
6
CONTINUOUS
10
0.211305
20
0.0700225
11
0.211206
21
0.0697831
0
LINE
8
BLACK
6
CONTINUOUS
10
0.211206
20
0.0697831
11
0.211224
21
0.0695246
0
LINE
8
BLACK
6
CONTINUOUS
10
0.211224
20
0.0695246
11
0.210287
21
0.0667124
0
LINE
8
BLACK
6
CONTINUOUS
10
0.210287
20
0.0667124
11
0.210047
21
0.0664355
0
LINE
8
BLACK
6
CONTINUOUS
10
0.210047
20
0.0664355
11
0.209906
21
0.0660968
0
LINE
8
BLACK
6
CONTINUOUS
10
0.209906
20
0.0660968
11
0.208969
21
0.0651594
0
LINE
8
BLACK
6
CONTINUOUS
10
0.208969
20
0.0651594
11
0.207855
21
0.0646982
0
LINE
8
BLACK
6
CONTINUOUS
10
0.207855
20
0.0646982
11
0.206742
21
0.0651594
0
LINE
8
BLACK
6
CONTINUOUS
10
0.206742
20
0.0651594
11
0.206281
21
0.066273
0
LINE
8
BLACK
6
CONTINUOUS
10
0.206281
20
0.066273
11
0.206742
21
0.0673866
0
LINE
8
BLACK
6
CONTINUOUS
10
0.206742
20
0.0673866
11
0.207416
21
0.0680611
0
LINE
8
BLACK
6
CONTINUOUS
10
0.207416
20
0.0680611
11
0.208155
21
0.070278
0
LINE
8
BLACK
6
CONTINUOUS
10
0.208155
20
0.070278
11
0.208155
21
0.0716418
0
LINE
8
BLACK
6
CONTINUOUS
10
0.208155
20
0.0716418
11
0.207416
21
0.0738587
0
LINE
8
BLACK
6
CONTINUOUS
10
0.207416
20
0.0738587
11
0.205985
21
0.0752899
0
LINE
8
BLACK
6
CONTINUOUS
10
0.205985
20
0.0752899
11
0.204494
21
0.0760357
0
LINE
8
BLACK
6
CONTINUOUS
10
0.204494
20
0.0760357
11
0.2011
21
0.0768841
0
LINE
8
BLACK
6
CONTINUOUS
10
0.2011
20
0.0768841
11
0.198676
21
0.0768841
0
LINE
8
BLACK
6
CONTINUOUS
10
0.198676
20
0.0768841
11
0.195282
21
0.0760357
0
LINE
8
BLACK
6
CONTINUOUS
10
0.195282
20
0.0760357
11
0.19379
21
0.07529
0
LINE
8
BLACK
6
CONTINUOUS
10
0.19379
20
0.07529
11
0.192359
21
0.0738587
0
LINE
8
BLACK
6
CONTINUOUS
10
0.192359
20
0.0738587
11
0.19162
21
0.0716418
0
LINE
8
BLACK
6
CONTINUOUS
10
0.19162
20
0.0716418
11
0.19162
21
0.0702781
0
LINE
8
BLACK
6
CONTINUOUS
10
0.19162
20
0.0702781
11
0.192359
21
0.0680611
0
LINE
8
BLACK
6
CONTINUOUS
10
0.192359
20
0.0680611
11
0.193034
21
0.0673865
0
LINE
8
BLACK
6
CONTINUOUS
10
0.193034
20
0.0673865
11
0.193495
21
0.066273
0
LINE
8
BLACK
6
CONTINUOUS
10
0.193495
20
0.066273
11
0.193034
21
0.0651594
0
LINE
8
BLACK
6
CONTINUOUS
10
0.193034
20
0.0651594
11
0.19192
21
0.0646982
0
LINE
8
BLACK
6
CONTINUOUS
10
0.19192
20
0.0646982
11
0.190806
21
0.0651594
0
LINE
8
BLACK
6
CONTINUOUS
10
0.190806
20
0.0651594
11
0.189869
21
0.0660968
0
LINE
8
BLACK
6
CONTINUOUS
10
0.189869
20
0.0660968
11
0.189729
21
0.0664355
0
LINE
8
BLACK
6
CONTINUOUS
10
0.189729
20
0.0664355
11
0.189489
21
0.0667124
0
LINE
8
BLACK
6
CONTINUOUS
10
0.189489
20
0.0667124
11
0.188551
21
0.0695245
0
LINE
8
BLACK
6
CONTINUOUS
10
0.188551
20
0.0695245
11
0.18857
21
0.0697831
0
LINE
8
BLACK
6
CONTINUOUS
10
0.18857
20
0.0697831
11
0.18847
21
0.0700225
0
LINE
8
BLACK
6
CONTINUOUS
10
0.18847
20
0.0700225
11
0.18847
21
0.0718973
0
LINE
8
BLACK
6
CONTINUOUS
10
0.18847
20
0.0718973
11
0.18857
21
0.0721368
0
LINE
8
BLACK
6
CONTINUOUS
10
0.18857
20
0.0721368
11
0.188551
21
0.0723953
0
LINE
8
BLACK
6
CONTINUOUS
10
0.188551
20
0.0723953
11
0.189489
21
0.0752074
0
LINE
8
BLACK
6
CONTINUOUS
10
0.189489
20
0.0752074
11
0.189729
21
0.0754843
0
LINE
8
BLACK
6
CONTINUOUS
10
0.189729
20
0.0754843
11
0.189869
21
0.075823
0
LINE
8
BLACK
6
CONTINUOUS
10
0.189869
20
0.075823
11
0.191744
21
0.0776977
0
LINE
8
BLACK
6
CONTINUOUS
10
0.191744
20
0.0776977
11
0.191983
21
0.0777969
0
LINE
8
BLACK
6
CONTINUOUS
10
0.191983
20
0.0777969
11
0.192153
21
0.0779927
0
LINE
8
BLACK
6
CONTINUOUS
10
0.192153
20
0.0779927
11
0.194028
21
0.0789301
0
LINE
8
BLACK
6
CONTINUOUS
10
0.194028
20
0.0789301
11
0.194206
21
0.0789428
0
LINE
8
BLACK
6
CONTINUOUS
10
0.194206
20
0.0789428
11
0.19435
21
0.0790494
0
LINE
8
BLACK
6
CONTINUOUS
10
0.19435
20
0.0790494
11
0.1981
21
0.0799867
0
LINE
8
BLACK
6
CONTINUOUS
10
0.1981
20
0.0799867
11
0.198297
21
0.0799574
0
LINE
8
BLACK
6
CONTINUOUS
10
0.198297
20
0.0799574
11
0.198482
21
0.0800337
0
LINE
8
BLACK
6
CONTINUOUS
10
0.198482
20
0.0800337
11
0.201294
21
0.0800337
0
LINE
8
BLACK
6
CONTINUOUS
10
0.201294
20
0.0800337
11
0.201478
21
0.0799574
0
LINE
8
BLACK
6
CONTINUOUS
10
0.225394
20
0.104331
11
0.226786
21
0.103754
0
LINE
8
BLACK
6
CONTINUOUS
10
0.226786
20
0.103754
11
0.227362
21
0.102362
0
LINE
8
BLACK
6
CONTINUOUS
10
0.227362
20
0.102362
11
0.227362
21
0.023622
0
LINE
8
BLACK
6
CONTINUOUS
10
0.227362
20
0.023622
11
0.226786
21
0.0222301
0
LINE
8
BLACK
6
CONTINUOUS
10
0.226786
20
0.0222301
11
0.225394
21
0.0216535
0
LINE
8
BLACK
6
CONTINUOUS
10
0.225394
20
0.0216535
11
0.176181
21
0.0216535
0
LINE
8
BLACK
6
CONTINUOUS
10
0.176181
20
0.0216535
11
0.174789
21
0.0222301
0
LINE
8
BLACK
6
CONTINUOUS
10
0.174789
20
0.0222301
11
0.174213
21
0.023622
0
LINE
8
BLACK
6
CONTINUOUS
10
0.174213
20
0.023622
11
0.174213
21
0.102362
0
LINE
8
BLACK
6
CONTINUOUS
10
0.174213
20
0.102362
11
0.174789
21
0.103754
0
LINE
8
BLACK
6
CONTINUOUS
10
0.174789
20
0.103754
11
0.176181
21
0.104331
0
LINE
8
BLACK
6
CONTINUOUS
10
0.176181
20
0.104331
11
0.225394
21
0.104331
0
LINE
8
BLACK
6
CONTINUOUS
10
0.17815
20
0.100394
11
0.17815
21
0.0255906
0
LINE
8
BLACK
6
CONTINUOUS
10
0.17815
20
0.0255906
11
0.223425
21
0.0255906
0
LINE
8
BLACK
6
CONTINUOUS
10
0.223425
20
0.0255906
11
0.223425
21
0.100394
0
LINE
8
BLACK
6
CONTINUOUS
10
0.223425
20
0.100394
11
0.17815
21
0.100394
0
LINE
8
BLACK
6
CONTINUOUS
10
0.146852
20
0.181468
11
0.147217
21
0.181442
0
LINE
8
BLACK
6
CONTINUOUS
10
0.147217
20
0.181442
11
0.149092
21
0.180505
0
LINE
8
BLACK
6
CONTINUOUS
10
0.149092
20
0.180505
11
0.149262
21
0.180309
0
LINE
8
BLACK
6
CONTINUOUS
10
0.149262
20
0.180309
11
0.149501
21
0.18021
0
LINE
8
BLACK
6
CONTINUOUS
10
0.149501
20
0.18021
11
0.150439
21
0.179272
0
LINE
8
BLACK
6
CONTINUOUS
10
0.150439
20
0.179272
11
0.1509
21
0.178159
0
LINE
8
BLACK
6
CONTINUOUS
10
0.1509
20
0.178159
11
0.150439
21
0.177045
0
LINE
8
BLACK
6
CONTINUOUS
10
0.150439
20
0.177045
11
0.149325
21
0.176584
0
LINE
8
BLACK
6
CONTINUOUS
10
0.149325
20
0.176584
11
0.148211
21
0.177045
0
LINE
8
BLACK
6
CONTINUOUS
10
0.148211
20
0.177045
11
0.147455
21
0.177802
0
LINE
8
BLACK
6
CONTINUOUS
10
0.147455
20
0.177802
11
0.146141
21
0.178459
0
LINE
8
BLACK
6
CONTINUOUS
10
0.146141
20
0.178459
11
0.142198
21
0.178459
0
LINE
8
BLACK
6
CONTINUOUS
10
0.142198
20
0.178459
11
0.140884
21
0.177802
0
LINE
8
BLACK
6
CONTINUOUS
10
0.140884
20
0.177802
11
0.140308
21
0.177226
0
LINE
8
BLACK
6
CONTINUOUS
10
0.140308
20
0.177226
11
0.139651
21
0.175912
0
LINE
8
BLACK
6
CONTINUOUS
10
0.139651
20
0.175912
11
0.139651
21
0.174665
0
LINE
8
BLACK
6
CONTINUOUS
10
0.139651
20
0.174665
11
0.14039
21
0.172448
0
LINE
8
BLACK
6
CONTINUOUS
10
0.14039
20
0.172448
11
0.151376
21
0.161462
0
LINE
8
BLACK
6
CONTINUOUS
10
0.151376
20
0.161462
11
0.151837
21
0.160348
0
LINE
8
BLACK
6
CONTINUOUS
10
0.151837
20
0.160348
11
0.151376
21
0.159235
0
LINE
8
BLACK
6
CONTINUOUS
10
0.151376
20
0.159235
11
0.150262
21
0.158774
0
LINE
8
BLACK
6
CONTINUOUS
10
0.150262
20
0.158774
11
0.138076
21
0.158774
0
LINE
8
BLACK
6
CONTINUOUS
10
0.138076
20
0.158774
11
0.136963
21
0.159235
0
LINE
8
BLACK
6
CONTINUOUS
10
0.136963
20
0.159235
11
0.136502
21
0.160348
0
LINE
8
BLACK
6
CONTINUOUS
10
0.136502
20
0.160348
11
0.136963
21
0.161462
0
LINE
8
BLACK
6
CONTINUOUS
10
0.136963
20
0.161462
11
0.138076
21
0.161923
0
LINE
8
BLACK
6
CONTINUOUS
10
0.138076
20
0.161923
11
0.146461
21
0.161923
0
LINE
8
BLACK
6
CONTINUOUS
10
0.146461
20
0.161923
11
0.1379
21
0.170484
0
LINE
8
BLACK
6
CONTINUOUS
10
0.1379
20
0.170484
11
0.13776
21
0.170822
0
LINE
8
BLACK
6
CONTINUOUS
10
0.13776
20
0.170822
11
0.13752
21
0.171099
0
LINE
8
BLACK
6
CONTINUOUS
10
0.13752
20
0.171099
11
0.136582
21
0.173911
0
LINE
8
BLACK
6
CONTINUOUS
10
0.136582
20
0.173911
11
0.136601
21
0.17417
0
LINE
8
BLACK
6
CONTINUOUS
10
0.136601
20
0.17417
11
0.136502
21
0.174409
0
LINE
8
BLACK
6
CONTINUOUS
10
0.136502
20
0.174409
11
0.136502
21
0.176284
0
LINE
8
BLACK
6
CONTINUOUS
10
0.136502
20
0.176284
11
0.136642
21
0.176623
0
LINE
8
BLACK
6
CONTINUOUS
10
0.136642
20
0.176623
11
0.136668
21
0.176988
0
LINE
8
BLACK
6
CONTINUOUS
10
0.136668
20
0.176988
11
0.137605
21
0.178863
0
LINE
8
BLACK
6
CONTINUOUS
10
0.137605
20
0.178863
11
0.137801
21
0.179033
0
LINE
8
BLACK
6
CONTINUOUS
10
0.137801
20
0.179033
11
0.1379
21
0.179272
0
LINE
8
BLACK
6
CONTINUOUS
10
0.1379
20
0.179272
11
0.138838
21
0.18021
0
LINE
8
BLACK
6
CONTINUOUS
10
0.138838
20
0.18021
11
0.139077
21
0.180309
0
LINE
8
BLACK
6
CONTINUOUS
10
0.139077
20
0.180309
11
0.139247
21
0.180505
0
LINE
8
BLACK
6
CONTINUOUS
10
0.139247
20
0.180505
11
0.141122
21
0.181442
0
LINE
8
BLACK
6
CONTINUOUS
10
0.141122
20
0.181442
11
0.141487
21
0.181468
0
LINE
8
BLACK
6
CONTINUOUS
10
0.141487
20
0.181468
11
0.141826
21
0.181608
0
LINE
8
BLACK
6
CONTINUOUS
10
0.141826
20
0.181608
11
0.146513
21
0.181608
0
LINE
8
BLACK
6
CONTINUOUS
10
0.146513
20
0.181608
11
0.146852
21
0.181468
0
LINE
8
BLACK
6
CONTINUOUS
10
0.162688
20
0.181509
11
0.162946
21
0.181527
0
LINE
8
BLACK
6
CONTINUOUS
10
0.162946
20
0.181527
11
0.165759
21
0.18059
0
LINE
8
BLACK
6
CONTINUOUS
10
0.165759
20
0.18059
11
0.166035
21
0.18035
0
LINE
8
BLACK
6
CONTINUOUS
10
0.166035
20
0.18035
11
0.166374
21
0.18021
0
LINE
8
BLACK
6
CONTINUOUS
10
0.166374
20
0.18021
11
0.168249
21
0.178335
0
LINE
8
BLACK
6
CONTINUOUS
10
0.168249
20
0.178335
11
0.168348
21
0.178095
0
LINE
8
BLACK
6
CONTINUOUS
10
0.168348
20
0.178095
11
0.168544
21
0.177926
0
LINE
8
BLACK
6
CONTINUOUS
10
0.168544
20
0.177926
11
0.169481
21
0.176051
0
LINE
8
BLACK
6
CONTINUOUS
10
0.169481
20
0.176051
11
0.169494
21
0.175872
0
LINE
8
BLACK
6
CONTINUOUS
10
0.169494
20
0.175872
11
0.169601
21
0.175729
0
LINE
8
BLACK
6
CONTINUOUS
10
0.169601
20
0.175729
11
0.170538
21
0.171979
0
LINE
8
BLACK
6
CONTINUOUS
10
0.170538
20
0.171979
11
0.170508
21
0.171781
0
LINE
8
BLACK
6
CONTINUOUS
10
0.170508
20
0.171781
11
0.170585
21
0.171597
0
LINE
8
BLACK
6
CONTINUOUS
10
0.170585
20
0.171597
11
0.170585
21
0.168785
0
LINE
8
BLACK
6
CONTINUOUS
10
0.170585
20
0.168785
11
0.170508
21
0.168601
0
LINE
8
BLACK
6
CONTINUOUS
10
0.170508
20
0.168601
11
0.170538
21
0.168403
0
LINE
8
BLACK
6
CONTINUOUS
10
0.170538
20
0.168403
11
0.169601
21
0.164653
0
LINE
8
BLACK
6
CONTINUOUS
10
0.169601
20
0.164653
11
0.169494
21
0.16451
0
LINE
8
BLACK
6
CONTINUOUS
10
0.169494
20
0.16451
11
0.169481
21
0.164331
0
LINE
8
BLACK
6
CONTINUOUS
10
0.169481
20
0.164331
11
0.168544
21
0.162456
0
LINE
8
BLACK
6
CONTINUOUS
10
0.168544
20
0.162456
11
0.168348
21
0.162287
0
LINE
8
BLACK
6
CONTINUOUS
10
0.168348
20
0.162287
11
0.168249
21
0.162047
0
LINE
8
BLACK
6
CONTINUOUS
10
0.168249
20
0.162047
11
0.166374
21
0.160172
0
LINE
8
BLACK
6
CONTINUOUS
10
0.166374
20
0.160172
11
0.166035
21
0.160032
0
LINE
8
BLACK
6
CONTINUOUS
10
0.166035
20
0.160032
11
0.165759
21
0.159792
0
LINE
8
BLACK
6
CONTINUOUS
10
0.165759
20
0.159792
11
0.162946
21
0.158854
0
LINE
8
BLACK
6
CONTINUOUS
10
0.162946
20
0.158854
11
0.162688
21
0.158873
0
LINE
8
BLACK
6
CONTINUOUS
10
0.162688
20
0.158873
11
0.162448
21
0.158774
0
LINE
8
BLACK
6
CONTINUOUS
10
0.162448
20
0.158774
11
0.160574
21
0.158774
0
LINE
8
BLACK
6
CONTINUOUS
10
0.160574
20
0.158774
11
0.160334
21
0.158873
0
LINE
8
BLACK
6
CONTINUOUS
10
0.160334
20
0.158873
11
0.160076
21
0.158854
0
LINE
8
BLACK
6
CONTINUOUS
10
0.160076
20
0.158854
11
0.157264
21
0.159792
0
LINE
8
BLACK
6
CONTINUOUS
10
0.157264
20
0.159792
11
0.156987
21
0.160032
0
LINE
8
BLACK
6
CONTINUOUS
10
0.156987
20
0.160032
11
0.156648
21
0.160172
0
LINE
8
BLACK
6
CONTINUOUS
10
0.156648
20
0.160172
11
0.155711
21
0.16111
0
LINE
8
BLACK
6
CONTINUOUS
10
0.155711
20
0.16111
11
0.155249
21
0.162223
0
LINE
8
BLACK
6
CONTINUOUS
10
0.155249
20
0.162223
11
0.155711
21
0.163337
0
LINE
8
BLACK
6
CONTINUOUS
10
0.155711
20
0.163337
11
0.156824
21
0.163798
0
LINE
8
BLACK
6
CONTINUOUS
10
0.156824
20
0.163798
11
0.157938
21
0.163337
0
LINE
8
BLACK
6
CONTINUOUS
10
0.157938
20
0.163337
11
0.158612
21
0.162662
0
LINE
8
BLACK
6
CONTINUOUS
10
0.158612
20
0.162662
11
0.160829
21
0.161923
0
LINE
8
BLACK
6
CONTINUOUS
10
0.160829
20
0.161923
11
0.162193
21
0.161923
0
LINE
8
BLACK
6
CONTINUOUS
10
0.162193
20
0.161923
11
0.16441
21
0.162662
0
LINE
8
BLACK
6
CONTINUOUS
10
0.16441
20
0.162662
11
0.165841
21
0.164094
0
LINE
8
BLACK
6
CONTINUOUS
10
0.165841
20
0.164094
11
0.166587
21
0.165585
0
LINE
8
BLACK
6
CONTINUOUS
10
0.166587
20
0.165585
11
0.167435
21
0.168979
0
LINE
8
BLACK
6
CONTINUOUS
10
0.167435
20
0.168979
11
0.167435
21
0.171403
0
LINE
8
BLACK
6
CONTINUOUS
10
0.167435
20
0.171403
11
0.166587
21
0.174797
0
LINE
8
BLACK
6
CONTINUOUS
10
0.166587
20
0.174797
11
0.165841
21
0.176289
0
LINE
8
BLACK
6
CONTINUOUS
10
0.165841
20
0.176289
11
0.16441
21
0.17772
0
LINE
8
BLACK
6
CONTINUOUS
10
0.16441
20
0.17772
11
0.162193
21
0.178459
0
LINE
8
BLACK
6
CONTINUOUS
10
0.162193
20
0.178459
11
0.160829
21
0.178459
0
LINE
8
BLACK
6
CONTINUOUS
10
0.160829
20
0.178459
11
0.158612
21
0.17772
0
LINE
8
BLACK
6
CONTINUOUS
10
0.158612
20
0.17772
11
0.157938
21
0.177045
0
LINE
8
BLACK
6
CONTINUOUS
10
0.157938
20
0.177045
11
0.156824
21
0.176584
0
LINE
8
BLACK
6
CONTINUOUS
10
0.156824
20
0.176584
11
0.155711
21
0.177045
0
LINE
8
BLACK
6
CONTINUOUS
10
0.155711
20
0.177045
11
0.155249
21
0.178159
0
LINE
8
BLACK
6
CONTINUOUS
10
0.155249
20
0.178159
11
0.155711
21
0.179272
0
LINE
8
BLACK
6
CONTINUOUS
10
0.155711
20
0.179272
11
0.156648
21
0.18021
0
LINE
8
BLACK
6
CONTINUOUS
10
0.156648
20
0.18021
11
0.156987
21
0.18035
0
LINE
8
BLACK
6
CONTINUOUS
10
0.156987
20
0.18035
11
0.157264
21
0.18059
0
LINE
8
BLACK
6
CONTINUOUS
10
0.157264
20
0.18059
11
0.160076
21
0.181527
0
LINE
8
BLACK
6
CONTINUOUS
10
0.160076
20
0.181527
11
0.160334
21
0.181509
0
LINE
8
BLACK
6
CONTINUOUS
10
0.160334
20
0.181509
11
0.160574
21
0.181608
0
LINE
8
BLACK
6
CONTINUOUS
10
0.160574
20
0.181608
11
0.162448
21
0.181608
0
LINE
8
BLACK
6
CONTINUOUS
10
0.162448
20
0.181608
11
0.162688
21
0.181509
0
LINE
8
BLACK
6
CONTINUOUS
10
0.192913
20
0.195866
11
0.194305
21
0.19529
0
LINE
8
BLACK
6
CONTINUOUS
10
0.194305
20
0.19529
11
0.194882
21
0.193898
0
LINE
8
BLACK
6
CONTINUOUS
10
0.194882
20
0.193898
11
0.194882
21
0.144685
0
LINE
8
BLACK
6
CONTINUOUS
10
0.194882
20
0.144685
11
0.194305
21
0.143293
0
LINE
8
BLACK
6
CONTINUOUS
10
0.194305
20
0.143293
11
0.192913
21
0.142717
0
LINE
8
BLACK
6
CONTINUOUS
10
0.192913
20
0.142717
11
0.114173
21
0.142717
0
LINE
8
BLACK
6
CONTINUOUS
10
0.114173
20
0.142717
11
0.112781
21
0.143293
0
LINE
8
BLACK
6
CONTINUOUS
10
0.112781
20
0.143293
11
0.112205
21
0.144685
0
LINE
8
BLACK
6
CONTINUOUS
10
0.112205
20
0.144685
11
0.112205
21
0.193898
0
LINE
8
BLACK
6
CONTINUOUS
10
0.112205
20
0.193898
11
0.112781
21
0.19529
0
LINE
8
BLACK
6
CONTINUOUS
10
0.112781
20
0.19529
11
0.114173
21
0.195866
0
LINE
8
BLACK
6
CONTINUOUS
10
0.114173
20
0.195866
11
0.192913
21
0.195866
0
LINE
8
BLACK
6
CONTINUOUS
10
0.116142
20
0.191929
11
0.116142
21
0.146654
0
LINE
8
BLACK
6
CONTINUOUS
10
0.116142
20
0.146654
11
0.190945
21
0.146654
0
LINE
8
BLACK
6
CONTINUOUS
10
0.190945
20
0.146654
11
0.190945
21
0.191929
0
LINE
8
BLACK
6
CONTINUOUS
10
0.190945
20
0.191929
11
0.116142
21
0.191929
0
LINE
8
BLACK
6
CONTINUOUS
10
-0.000947283
20
0.357143
11
0.000410551
21
0.356971
0
LINE
8
BLACK
6
CONTINUOUS
10
0.000410551
20
0.356971
11
0.000444016
21
0.356943
0
LINE
8
BLACK
6
CONTINUOUS
10
0.000444016
20
0.356943
11
0.000487283
21
0.356937
0
LINE
8
BLACK
6
CONTINUOUS
10
0.000487283
20
0.356937
11
0.00152154
21
0.356041
0
LINE
8
BLACK
6
CONTINUOUS
10
0.00152154
20
0.356041
11
0.00257043
21
0.355163
0
LINE
8
BLACK
6
CONTINUOUS
10
0.00257043
20
0.355163
11
0.00705768
21
0.348432
0
LINE
8
BLACK
6
CONTINUOUS
10
0.00705768
20
0.348432
11
0.0108957
21
0.344594
0
LINE
8
BLACK
6
CONTINUOUS
10
0.0108957
20
0.344594
11
0.0149319
21
0.342576
0
LINE
8
BLACK
6
CONTINUOUS
10
0.0149319
20
0.342576
11
0.0161013
21
0.341764
0
LINE
8
BLACK
6
CONTINUOUS
10
0.0161013
20
0.341764
11
0.01754
21
0.339342
0
LINE
8
BLACK
6
CONTINUOUS
10
0.01754
20
0.339342
11
0.0174407
21
0.336527
0
LINE
8
BLACK
6
CONTINUOUS
10
0.0174407
20
0.336527
11
0.015835
21
0.334212
0
LINE
8
BLACK
6
CONTINUOUS
10
0.015835
20
0.334212
11
0.0132326
21
0.333132
0
LINE
8
BLACK
6
CONTINUOUS
10
0.0132326
20
0.333132
11
0.0104598
21
0.333631
0
LINE
8
BLACK
6
CONTINUOUS
10
0.0104598
20
0.333631
11
0.00569791
21
0.336012
0
LINE
8
BLACK
6
CONTINUOUS
10
0.00569791
20
0.336012
11
0.00452854
21
0.336823
0
LINE
8
BLACK
6
CONTINUOUS
10
0.00452854
20
0.336823
11
0.00448067
21
0.336904
0
LINE
8
BLACK
6
CONTINUOUS
10
0.00448067
20
0.336904
11
0.00439843
21
0.336949
0
LINE
8
BLACK
6
CONTINUOUS
10
0.00439843
20
0.336949
11
0.0034102
21
0.337937
0
LINE
8
BLACK
6
CONTINUOUS
10
0.0034102
20
0.337937
11
0.0034102
21
0.307389
0
LINE
8
BLACK
6
CONTINUOUS
10
0.0034102
20
0.307389
11
0.0126959
21
0.307389
0
LINE
8
BLACK
6
CONTINUOUS
10
0.0126959
20
0.307389
11
0.0141046
21
0.307187
0
LINE
8
BLACK
6
CONTINUOUS
10
0.0141046
20
0.307187
11
0.0164746
21
0.305663
0
LINE
8
BLACK
6
CONTINUOUS
10
0.0164746
20
0.305663
11
0.017645
21
0.303101
0
LINE
8
BLACK
6
CONTINUOUS
10
0.017645
20
0.303101
11
0.0172441
21
0.300312
0
LINE
8
BLACK
6
CONTINUOUS
10
0.0172441
20
0.300312
11
0.0153991
21
0.298183
0
LINE
8
BLACK
6
CONTINUOUS
10
0.0153991
20
0.298183
11
0.0126959
21
0.297389
0
LINE
8
BLACK
6
CONTINUOUS
10
0.0126959
20
0.297389
11
-0.0158756
21
0.297389
0
LINE
8
BLACK
6
CONTINUOUS
10
-0.0158756
20
0.297389
11
-0.0172842
21
0.297592
0
LINE
8
BLACK
6
CONTINUOUS
10
-0.0172842
20
0.297592
11
-0.0196543
21
0.299115
0
LINE
8
BLACK
6
CONTINUOUS
10
-0.0196543
20
0.299115
11
-0.0208246
21
0.301677
0
LINE
8
BLACK
6
CONTINUOUS
10
-0.0208246
20
0.301677
11
-0.0204237
21
0.304466
0
LINE
8
BLACK
6
CONTINUOUS
10
-0.0204237
20
0.304466
11
-0.0185787
21
0.306595
0
LINE
8
BLACK
6
CONTINUOUS
10
-0.0185787
20
0.306595
11
-0.0158756
21
0.307389
0
LINE
8
BLACK
6
CONTINUOUS
10
-0.0158756
20
0.307389
11
-0.0065898
21
0.307389
0
LINE
8
BLACK
6
CONTINUOUS
10
-0.0065898
20
0.307389
11
-0.0065898
21
0.352389
0
LINE
8
BLACK
6
CONTINUOUS
10
-0.0065898
20
0.352389
11
-0.00640906
21
0.353646
0
LINE
8
BLACK
6
CONTINUOUS
10
-0.00640906
20
0.353646
11
-0.00641024
21
0.353717
0
LINE
8
BLACK
6
CONTINUOUS
10
-0.00641024
20
0.353717
11
-0.00639551
21
0.353741
0
LINE
8
BLACK
6
CONTINUOUS
10
-0.00639551
20
0.353741
11
-0.00638728
21
0.353798
0
LINE
8
BLACK
6
CONTINUOUS
10
-0.00638728
20
0.353798
11
-0.00564681
21
0.35495
0
LINE
8
BLACK
6
CONTINUOUS
10
-0.00564681
20
0.35495
11
-0.00492713
21
0.356112
0
LINE
8
BLACK
6
CONTINUOUS
10
-0.00492713
20
0.356112
11
-0.00488772
21
0.356131
0
LINE
8
BLACK
6
CONTINUOUS
10
-0.00488772
20
0.356131
11
-0.00486409
21
0.356168
0
LINE
8
BLACK
6
CONTINUOUS
10
-0.00486409
20
0.356168
11
-0.00361953
21
0.356736
0
LINE
8
BLACK
6
CONTINUOUS
10
-0.00361953
20
0.356736
11
-0.00238441
21
0.357326
0
LINE
8
BLACK
6
CONTINUOUS
10
-0.00238441
20
0.357326
11
-0.0023411
21
0.35732
0
LINE
8
BLACK
6
CONTINUOUS
10
-0.0023411
20
0.35732
11
-0.00230138
21
0.357338
0
LINE
8
BLACK
6
CONTINUOUS
10
-0.00230138
20
0.357338
11
-0.000947283
21
0.357143
0
LINE
8
BLACK
6
CONTINUOUS
10
0.0474379
20
0.357187
11
0.0475167
21
0.357136
0
LINE
8
BLACK
6
CONTINUOUS
10
0.0475167
20
0.357136
11
0.0476104
21
0.357132
0
LINE
8
BLACK
6
CONTINUOUS
10
0.0476104
20
0.357132
11
0.0547532
21
0.354752
0
LINE
8
BLACK
6
CONTINUOUS
10
0.0547532
20
0.354752
11
0.0560256
21
0.354114
0
LINE
8
BLACK
6
CONTINUOUS
10
0.0560256
20
0.354114
11
0.0563098
21
0.353761
0
LINE
8
BLACK
6
CONTINUOUS
10
0.0563098
20
0.353761
11
0.0567076
21
0.353544
0
LINE
8
BLACK
6
CONTINUOUS
10
0.0567076
20
0.353544
11
0.0614695
21
0.348782
0
LINE
8
BLACK
6
CONTINUOUS
10
0.0614695
20
0.348782
11
0.0623224
21
0.347642
0
LINE
8
BLACK
6
CONTINUOUS
10
0.0623224
20
0.347642
11
0.0623423
21
0.347551
0
LINE
8
BLACK
6
CONTINUOUS
10
0.0623423
20
0.347551
11
0.0624061
21
0.347482
0
LINE
8
BLACK
6
CONTINUOUS
10
0.0624061
20
0.347482
11
0.0647871
21
0.34272
0
LINE
8
BLACK
6
CONTINUOUS
10
0.0647871
20
0.34272
11
0.065077
21
0.341848
0
LINE
8
BLACK
6
CONTINUOUS
10
0.065077
20
0.341848
11
0.0651657
21
0.341697
0
LINE
8
BLACK
6
CONTINUOUS
10
0.0651657
20
0.341697
11
0.0675466
21
0.332173
0
LINE
8
BLACK
6
CONTINUOUS
10
0.0675466
20
0.332173
11
0.0676576
21
0.331091
0
LINE
8
BLACK
6
CONTINUOUS
10
0.0676576
20
0.331091
11
0.0676959
21
0.330961
0
LINE
8
BLACK
6
CONTINUOUS
10
0.0676959
20
0.330961
11
0.0676959
21
0.323818
0
LINE
8
BLACK
6
CONTINUOUS
10
0.0676959
20
0.323818
11
0.0675411
21
0.322741
0
LINE
8
BLACK
6
CONTINUOUS
10
0.0675411
20
0.322741
11
0.0675466
21
0.322605
0
LINE
8
BLACK
6
CONTINUOUS
10
0.0675466
20
0.322605
11
0.0651657
21
0.313081
0
LINE
8
BLACK
6
CONTINUOUS
10
0.0651657
20
0.313081
11
0.0648181
21
0.31223
0
LINE
8
BLACK
6
CONTINUOUS
10
0.0648181
20
0.31223
11
0.0647871
21
0.312058
0
LINE
8
BLACK
6
CONTINUOUS
10
0.0647871
20
0.312058
11
0.0624061
21
0.307296
0
LINE
8
BLACK
6
CONTINUOUS
10
0.0624061
20
0.307296
11
0.061595
21
0.306126
0
LINE
8
BLACK
6
CONTINUOUS
10
0.061595
20
0.306126
11
0.0615144
21
0.306079
0
LINE
8
BLACK
6
CONTINUOUS
10
0.0615144
20
0.306079
11
0.0614695
21
0.305996
0
LINE
8
BLACK
6
CONTINUOUS
10
0.0614695
20
0.305996
11
0.0567076
21
0.301234
0
LINE
8
BLACK
6
CONTINUOUS
10
0.0567076
20
0.301234
11
0.0555683
21
0.300382
0
LINE
8
BLACK
6
CONTINUOUS
10
0.0555683
20
0.300382
11
0.0551254
21
0.300285
0
LINE
8
BLACK
6
CONTINUOUS
10
0.0551254
20
0.300285
11
0.0547532
21
0.300027
0
LINE
8
BLACK
6
CONTINUOUS
10
0.0547532
20
0.300027
11
0.0476104
21
0.297646
0
LINE
8
BLACK
6
CONTINUOUS
10
0.0476104
20
0.297646
11
0.0462099
21
0.297392
0
LINE
8
BLACK
6
CONTINUOUS
10
0.0462099
20
0.297392
11
0.0461191
21
0.297415
0
LINE
8
BLACK
6
CONTINUOUS
10
0.0461191
20
0.297415
11
0.0460292
21
0.297389
0
LINE
8
BLACK
6
CONTINUOUS
10
0.0460292
20
0.297389
11
0.0412673
21
0.297389
0
LINE
8
BLACK
6
CONTINUOUS
10
0.0412673
20
0.297389
11
0.0398587
21
0.297592
0
LINE
8
BLACK
6
CONTINUOUS
10
0.0398587
20
0.297592
11
0.0397798
21
0.297642
0
LINE
8
BLACK
6
CONTINUOUS
10
0.0397798
20
0.297642
11
0.0396862
21
0.297646
0
LINE
8
BLACK
6
CONTINUOUS
10
0.0396862
20
0.297646
11
0.0325433
21
0.300027
0
LINE
8
BLACK
6
CONTINUOUS
10
0.0325433
20
0.300027
11
0.031271
21
0.300664
0
LINE
8
BLACK
6
CONTINUOUS
10
0.031271
20
0.300664
11
0.0309867
21
0.301017
0
LINE
8
BLACK
6
CONTINUOUS
10
0.0309867
20
0.301017
11
0.0305889
21
0.301234
0
LINE
8
BLACK
6
CONTINUOUS
10
0.0305889
20
0.301234
11
0.028208
21
0.303615
0
LINE
8
BLACK
6
CONTINUOUS
10
0.028208
20
0.303615
11
0.0273551
21
0.304755
0
LINE
8
BLACK
6
CONTINUOUS
10
0.0273551
20
0.304755
11
0.0267563
21
0.307508
0
LINE
8
BLACK
6
CONTINUOUS
10
0.0267563
20
0.307508
11
0.0277408
21
0.310147
0
LINE
8
BLACK
6
CONTINUOUS
10
0.0277408
20
0.310147
11
0.0299962
21
0.311836
0
LINE
8
BLACK
6
CONTINUOUS
10
0.0299962
20
0.311836
11
0.0328064
21
0.312037
0
LINE
8
BLACK
6
CONTINUOUS
10
0.0328064
20
0.312037
11
0.0352791
21
0.310686
0
LINE
8
BLACK
6
CONTINUOUS
10
0.0352791
20
0.310686
11
0.0368254
21
0.30914
0
LINE
8
BLACK
6
CONTINUOUS
10
0.0368254
20
0.30914
11
0.0420787
21
0.307389
0
LINE
8
BLACK
6
CONTINUOUS
10
0.0420787
20
0.307389
11
0.0452178
21
0.307389
0
LINE
8
BLACK
6
CONTINUOUS
10
0.0452178
20
0.307389
11
0.0504712
21
0.30914
0
LINE
8
BLACK
6
CONTINUOUS
10
0.0504712
20
0.30914
11
0.0538247
21
0.312494
0
LINE
8
BLACK
6
CONTINUOUS
10
0.0538247
20
0.312494
11
0.0555974
21
0.316039
0
LINE
8
BLACK
6
CONTINUOUS
10
0.0555974
20
0.316039
11
0.0576959
21
0.324433
0
LINE
8
BLACK
6
CONTINUOUS
10
0.0576959
20
0.324433
11
0.0576959
21
0.330345
0
LINE
8
BLACK
6
CONTINUOUS
10
0.0576959
20
0.330345
11
0.0555974
21
0.338739
0
LINE
8
BLACK
6
CONTINUOUS
10
0.0555974
20
0.338739
11
0.0538247
21
0.342284
0
LINE
8
BLACK
6
CONTINUOUS
10
0.0538247
20
0.342284
11
0.0504711
21
0.345638
0
LINE
8
BLACK
6
CONTINUOUS
10
0.0504711
20
0.345638
11
0.0452178
21
0.347389
0
LINE
8
BLACK
6
CONTINUOUS
10
0.0452178
20
0.347389
11
0.0420787
21
0.347389
0
LINE
8
BLACK
6
CONTINUOUS
10
0.0420787
20
0.347389
11
0.0368254
21
0.345638
0
LINE
8
BLACK
6
CONTINUOUS
10
0.0368254
20
0.345638
11
0.0352791
21
0.344092
0
LINE
8
BLACK
6
CONTINUOUS
10
0.0352791
20
0.344092
11
0.0341398
21
0.343239
0
LINE
8
BLACK
6
CONTINUOUS
10
0.0341398
20
0.343239
11
0.0313868
21
0.34264
0
LINE
8
BLACK
6
CONTINUOUS
10
0.0313868
20
0.34264
11
0.0287471
21
0.343624
0
LINE
8
BLACK
6
CONTINUOUS
10
0.0287471
20
0.343624
11
0.0270587
21
0.34588
0
LINE
8
BLACK
6
CONTINUOUS
10
0.0270587
20
0.34588
11
0.0268578
21
0.34869
0
LINE
8
BLACK
6
CONTINUOUS
10
0.0268578
20
0.34869
11
0.028208
21
0.351163
0
LINE
8
BLACK
6
CONTINUOUS
10
0.028208
20
0.351163
11
0.0305889
21
0.353544
0
LINE
8
BLACK
6
CONTINUOUS
10
0.0305889
20
0.353544
11
0.0317282
21
0.354396
0
LINE
8
BLACK
6
CONTINUOUS
10
0.0317282
20
0.354396
11
0.0321711
21
0.354493
0
LINE
8
BLACK
6
CONTINUOUS
10
0.0321711
20
0.354493
11
0.0325433
21
0.354752
0
LINE
8
BLACK
6
CONTINUOUS
10
0.0325433
20
0.354752
11
0.0396862
21
0.357132
0
LINE
8
BLACK
6
CONTINUOUS
10
0.0396862
20
0.357132
11
0.0410866
21
0.357386
0
LINE
8
BLACK
6
CONTINUOUS
10
0.0410866
20
0.357386
11
0.0411774
21
0.357363
0
LINE
8
BLACK
6
CONTINUOUS
10
0.0411774
20
0.357363
11
0.0412673
21
0.357389
0
LINE
8
BLACK
6
CONTINUOUS
10
0.0412673
20
0.357389
11
0.0460292
21
0.357389
0
LINE
8
BLACK
6
CONTINUOUS
10
0.0460292
20
0.357389
11
0.0474379
21
0.357187
0
LINE
8
BLACK
6
CONTINUOUS
10
0.0862016
20
0.356937
11
0.0883307
21
0.355092
0
LINE
8
BLACK
6
CONTINUOUS
10
0.0883307
20
0.355092
11
0.0891245
21
0.352389
0
LINE
8
BLACK
6
CONTINUOUS
10
0.0891245
20
0.352389
11
0.0891245
21
0.302389
0
LINE
8
BLACK
6
CONTINUOUS
10
0.0891245
20
0.302389
11
0.088922
21
0.30098
0
LINE
8
BLACK
6
CONTINUOUS
10
0.088922
20
0.30098
11
0.0873988
21
0.29861
0
LINE
8
BLACK
6
CONTINUOUS
10
0.0873988
20
0.29861
11
0.0848361
21
0.29744
0
LINE
8
BLACK
6
CONTINUOUS
10
0.0848361
20
0.29744
11
0.0820474
21
0.297841
0
LINE
8
BLACK
6
CONTINUOUS
10
0.0820474
20
0.297841
11
0.0799182
21
0.299686
0
LINE
8
BLACK
6
CONTINUOUS
10
0.0799182
20
0.299686
11
0.0791245
21
0.302389
0
LINE
8
BLACK
6
CONTINUOUS
10
0.0791245
20
0.302389
11
0.0791245
21
0.352389
0
LINE
8
BLACK
6
CONTINUOUS
10
0.0791245
20
0.352389
11
0.079327
21
0.353798
0
LINE
8
BLACK
6
CONTINUOUS
10
0.079327
20
0.353798
11
0.0808502
21
0.356168
0
LINE
8
BLACK
6
CONTINUOUS
10
0.0808502
20
0.356168
11
0.0834129
21
0.357338
0
LINE
8
BLACK
6
CONTINUOUS
10
0.0834129
20
0.357338
11
0.0862016
21
0.356937
0
LINE
8
BLACK
6
CONTINUOUS
10
0.138268
20
0.429921
11
0.13966
21
0.429345
0
LINE
8
BLACK
6
CONTINUOUS
10
0.13966
20
0.429345
11
0.140236
21
0.427953
0
LINE
8
BLACK
6
CONTINUOUS
10
0.140236
20
0.427953
11
0.140236
21
0.222047
0
LINE
8
BLACK
6
CONTINUOUS
10
0.140236
20
0.222047
11
0.13966
21
0.220655
0
LINE
8
BLACK
6
CONTINUOUS
10
0.13966
20
0.220655
11
0.138268
21
0.220079
0
LINE
8
BLACK
6
CONTINUOUS
10
0.138268
20
0.220079
11
-0.0676378
21
0.220079
0
LINE
8
BLACK
6
CONTINUOUS
10
-0.0676378
20
0.220079
11
-0.0690297
21
0.220655
0
LINE
8
BLACK
6
CONTINUOUS
10
-0.0690297
20
0.220655
11
-0.0696063
21
0.222047
0
LINE
8
BLACK
6
CONTINUOUS
10
-0.0696063
20
0.222047
11
-0.0696063
21
0.427953
0
LINE
8
BLACK
6
CONTINUOUS
10
-0.0696063
20
0.427953
11
-0.0690297
21
0.429345
0
LINE
8
BLACK
6
CONTINUOUS
10
-0.0690297
20
0.429345
11
-0.0676378
21
0.429921
0
LINE
8
BLACK
6
CONTINUOUS
10
-0.0676378
20
0.429921
11
0.138268
21
0.429921
0
LINE
8
BLACK
6
CONTINUOUS
10
-0.0656693
20
0.224016
11
-0.0223902
21
0.224016
0
LINE
8
BLACK
6
CONTINUOUS
10
-0.0223902
20
0.224016
11
-0.0656693
21
0.267295
0
LINE
8
BLACK
6
CONTINUOUS
10
-0.0656693
20
0.267295
11
-0.0656693
21
0.224016
0
LINE
8
BLACK
6
CONTINUOUS
10
-0.0656693
20
0.425984
11
-0.0656693
21
0.272863
0
LINE
8
BLACK
6
CONTINUOUS
10
-0.0656693
20
0.272863
11
-0.0168224
21
0.224016
0
LINE
8
BLACK
6
CONTINUOUS
10
-0.0168224
20
0.224016
11
0.136299
21
0.224016
0
LINE
8
BLACK
6
CONTINUOUS
10
0.136299
20
0.224016
11
0.136299
21
0.425984
0
LINE
8
BLACK
6
CONTINUOUS
10
0.136299
20
0.425984
11
-0.0656693
21
0.425984
0
LINE
8
BLACK
6
CONTINUOUS
10
0.526589
20
0.539581
11
0.527165
21
0.538189
0
LINE
8
BLACK
6
CONTINUOUS
10
0.527165
20
0.538189
11
0.527165
21
0.520472
0
LINE
8
BLACK
6
CONTINUOUS
10
0.527165
20
0.520472
11
0.540945
21
0.520472
0
LINE
8
BLACK
6
CONTINUOUS
10
0.540945
20
0.520472
11
0.541475
21
0.520253
0
LINE
8
BLACK
6
CONTINUOUS
10
0.541475
20
0.520253
11
0.542037
21
0.520142
0
LINE
8
BLACK
6
CONTINUOUS
10
0.542037
20
0.520142
11
0.54215
21
0.519973
0
LINE
8
BLACK
6
CONTINUOUS
10
0.54215
20
0.519973
11
0.542337
21
0.519896
0
LINE
8
BLACK
6
CONTINUOUS
10
0.542337
20
0.519896
11
0.542556
21
0.519366
0
LINE
8
BLACK
6
CONTINUOUS
10
0.542556
20
0.519366
11
0.542875
21
0.51889
0
LINE
8
BLACK
6
CONTINUOUS
10
0.542875
20
0.51889
11
0.542836
21
0.518691
0
LINE
8
BLACK
6
CONTINUOUS
10
0.542836
20
0.518691
11
0.542913
21
0.518504
0
LINE
8
BLACK
6
CONTINUOUS
10
0.542913
20
0.518504
11
0.542694
21
0.517974
0
LINE
8
BLACK
6
CONTINUOUS
10
0.542694
20
0.517974
11
0.542583
21
0.517412
0
LINE
8
BLACK
6
CONTINUOUS
10
0.542583
20
0.517412
11
0.528875
21
0.49685
0
LINE
8
BLACK
6
CONTINUOUS
10
0.528875
20
0.49685
11
0.54685
21
0.49685
0
LINE
8
BLACK
6
CONTINUOUS
10
0.54685
20
0.49685
11
0.548242
21
0.496274
0
LINE
8
BLACK
6
CONTINUOUS
10
0.548242
20
0.496274
11
0.548819
21
0.494882
0
LINE
8
BLACK
6
CONTINUOUS
10
0.548819
20
0.494882
11
0.548242
21
0.49349
0
LINE
8
BLACK
6
CONTINUOUS
10
0.548242
20
0.49349
11
0.54685
21
0.492913
0
LINE
8
BLACK
6
CONTINUOUS
10
0.54685
20
0.492913
11
0.527165
21
0.492913
0
LINE
8
BLACK
6
CONTINUOUS
10
0.527165
20
0.492913
11
0.527165
21
0.479134
0
LINE
8
BLACK
6
CONTINUOUS
10
0.527165
20
0.479134
11
0.526589
21
0.477742
0
LINE
8
BLACK
6
CONTINUOUS
10
0.526589
20
0.477742
11
0.525197
21
0.477165
0
LINE
8
BLACK
6
CONTINUOUS
10
0.525197
20
0.477165
11
0.523805
21
0.477742
0
LINE
8
BLACK
6
CONTINUOUS
10
0.523805
20
0.477742
11
0.523228
21
0.479134
0
LINE
8
BLACK
6
CONTINUOUS
10
0.523228
20
0.479134
11
0.523228
21
0.492913
0
LINE
8
BLACK
6
CONTINUOUS
10
0.523228
20
0.492913
11
0.503543
21
0.492913
0
LINE
8
BLACK
6
CONTINUOUS
10
0.503543
20
0.492913
11
0.502151
21
0.49349
0
LINE
8
BLACK
6
CONTINUOUS
10
0.502151
20
0.49349
11
0.501575
21
0.494882
0
LINE
8
BLACK
6
CONTINUOUS
10
0.501575
20
0.494882
11
0.502151
21
0.496274
0
LINE
8
BLACK
6
CONTINUOUS
10
0.502151
20
0.496274
11
0.503543
21
0.49685
0
LINE
8
BLACK
6
CONTINUOUS
10
0.503543
20
0.49685
11
0.521519
21
0.49685
0
LINE
8
BLACK
6
CONTINUOUS
10
0.521519
20
0.49685
11
0.507811
21
0.517412
0
LINE
8
BLACK
6
CONTINUOUS
10
0.507811
20
0.517412
11
0.5077
21
0.517974
0
LINE
8
BLACK
6
CONTINUOUS
10
0.5077
20
0.517974
11
0.50748
21
0.518504
0
LINE
8
BLACK
6
CONTINUOUS
10
0.50748
20
0.518504
11
0.507558
21
0.518691
0
LINE
8
BLACK
6
CONTINUOUS
10
0.507558
20
0.518691
11
0.507519
21
0.51889
0
LINE
8
BLACK
6
CONTINUOUS
10
0.507519
20
0.51889
11
0.507838
21
0.519366
0
LINE
8
BLACK
6
CONTINUOUS
10
0.507838
20
0.519366
11
0.508057
21
0.519896
0
LINE
8
BLACK
6
CONTINUOUS
10
0.508057
20
0.519896
11
0.508244
21
0.519973
0
LINE
8
BLACK
6
CONTINUOUS
10
0.508244
20
0.519973
11
0.508357
21
0.520142
0
LINE
8
BLACK
6
CONTINUOUS
10
0.508357
20
0.520142
11
0.508919
21
0.520253
0
LINE
8
BLACK
6
CONTINUOUS
10
0.508919
20
0.520253
11
0.509449
21
0.520472
0
LINE
8
BLACK
6
CONTINUOUS
10
0.509449
20
0.520472
11
0.523228
21
0.520472
0
LINE
8
BLACK
6
CONTINUOUS
10
0.523228
20
0.520472
11
0.523228
21
0.538189
0
LINE
8
BLACK
6
CONTINUOUS
10
0.523228
20
0.538189
11
0.523805
21
0.539581
0
LINE
8
BLACK
6
CONTINUOUS
10
0.523805
20
0.539581
11
0.525197
21
0.540157
0
LINE
8
BLACK
6
CONTINUOUS
10
0.525197
20
0.540157
11
0.526589
21
0.539581
0
LINE
8
BLACK
6
CONTINUOUS
10
0.525197
20
0.516535
11
0.513127
21
0.516535
0
LINE
8
BLACK
6
CONTINUOUS
10
0.513127
20
0.516535
11
0.525197
21
0.498431
0
LINE
8
BLACK
6
CONTINUOUS
10
0.525197
20
0.498431
11
0.537267
21
0.516535
0
LINE
8
BLACK
6
CONTINUOUS
10
0.537267
20
0.516535
11
0.525197
21
0.516535
0
LINE
8
BLACK
6
CONTINUOUS
10
0.56063
20
0.565748
11
0.562022
21
0.565171
0
LINE
8
BLACK
6
CONTINUOUS
10
0.562022
20
0.565171
11
0.562598
21
0.56378
0
LINE
8
BLACK
6
CONTINUOUS
10
0.562598
20
0.56378
11
0.562598
21
0.453543
0
LINE
8
BLACK
6
CONTINUOUS
10
0.562598
20
0.453543
11
0.562022
21
0.452151
0
LINE
8
BLACK
6
CONTINUOUS
10
0.562022
20
0.452151
11
0.56063
21
0.451575
0
LINE
8
BLACK
6
CONTINUOUS
10
0.56063
20
0.451575
11
0.489764
21
0.451575
0
LINE
8
BLACK
6
CONTINUOUS
10
0.489764
20
0.451575
11
0.488372
21
0.452151
0
LINE
8
BLACK
6
CONTINUOUS
10
0.488372
20
0.452151
11
0.487795
21
0.453543
0
LINE
8
BLACK
6
CONTINUOUS
10
0.487795
20
0.453543
11
0.487795
21
0.56378
0
LINE
8
BLACK
6
CONTINUOUS
10
0.487795
20
0.56378
11
0.488372
21
0.565171
0
LINE
8
BLACK
6
CONTINUOUS
10
0.488372
20
0.565171
11
0.489764
21
0.565748
0
LINE
8
BLACK
6
CONTINUOUS
10
0.489764
20
0.565748
11
0.56063
21
0.565748
0
LINE
8
BLACK
6
CONTINUOUS
10
0.491732
20
0.561811
11
0.491732
21
0.455512
0
LINE
8
BLACK
6
CONTINUOUS
10
0.491732
20
0.455512
11
0.558661
21
0.455512
0
LINE
8
BLACK
6
CONTINUOUS
10
0.558661
20
0.455512
11
0.558661
21
0.561811
0
LINE
8
BLACK
6
CONTINUOUS
10
0.558661
20
0.561811
11
0.491732
21
0.561811
0
LINE
8
BLACK
6
CONTINUOUS
10
0.591741
20
0.497597
11
0.592854
21
0.495911
0
LINE
8
BLACK
6
CONTINUOUS
10
0.592854
20
0.495911
11
0.592623
21
0.493904
0
LINE
8
BLACK
6
CONTINUOUS
10
0.592623
20
0.493904
11
0.590748
21
0.490155
0
LINE
8
BLACK
6
CONTINUOUS
10
0.590748
20
0.490155
11
0.590222
21
0.489446
0
LINE
8
BLACK
6
CONTINUOUS
10
0.590222
20
0.489446
11
0.590195
21
0.489388
0
LINE
8
BLACK
6
CONTINUOUS
10
0.590195
20
0.489388
11
0.587736
21
0.486929
0
LINE
8
BLACK
6
CONTINUOUS
10
0.587736
20
0.486929
11
0.61515
21
0.486929
0
LINE
8
BLACK
6
CONTINUOUS
10
0.61515
20
0.486929
11
0.61515
21
0.495225
0
LINE
8
BLACK
6
CONTINUOUS
10
0.61515
20
0.495225
11
0.615328
21
0.496235
0
LINE
8
BLACK
6
CONTINUOUS
10
0.615328
20
0.496235
11
0.616627
21
0.497782
0
LINE
8
BLACK
6
CONTINUOUS
10
0.616627
20
0.497782
11
0.618616
21
0.498133
0
LINE
8
BLACK
6
CONTINUOUS
10
0.618616
20
0.498133
11
0.620365
21
0.497123
0
LINE
8
BLACK
6
CONTINUOUS
10
0.620365
20
0.497123
11
0.621056
21
0.495225
0
LINE
8
BLACK
6
CONTINUOUS
10
0.621056
20
0.495225
11
0.621056
21
0.472728
0
LINE
8
BLACK
6
CONTINUOUS
10
0.621056
20
0.472728
11
0.620878
21
0.471718
0
LINE
8
BLACK
6
CONTINUOUS
10
0.620878
20
0.471718
11
0.619579
21
0.470171
0
LINE
8
BLACK
6
CONTINUOUS
10
0.619579
20
0.470171
11
0.61759
21
0.46982
0
LINE
8
BLACK
6
CONTINUOUS
10
0.61759
20
0.46982
11
0.615841
21
0.47083
0
LINE
8
BLACK
6
CONTINUOUS
10
0.615841
20
0.47083
11
0.61515
21
0.472728
0
LINE
8
BLACK
6
CONTINUOUS
10
0.61515
20
0.472728
11
0.61515
21
0.481024
0
LINE
8
BLACK
6
CONTINUOUS
10
0.61515
20
0.481024
11
0.578733
21
0.481024
0
LINE
8
BLACK
6
CONTINUOUS
10
0.578733
20
0.481024
11
0.577723
21
0.481202
0
LINE
8
BLACK
6
CONTINUOUS
10
0.577723
20
0.481202
11
0.577593
21
0.481311
0
LINE
8
BLACK
6
CONTINUOUS
10
0.577593
20
0.481311
11
0.577424
21
0.481329
0
LINE
8
BLACK
6
CONTINUOUS
10
0.577424
20
0.481329
11
0.576832
21
0.481949
0
LINE
8
BLACK
6
CONTINUOUS
10
0.576832
20
0.481949
11
0.576176
21
0.4825
0
LINE
8
BLACK
6
CONTINUOUS
10
0.576176
20
0.4825
11
0.576146
21
0.482667
0
LINE
8
BLACK
6
CONTINUOUS
10
0.576146
20
0.482667
11
0.576029
21
0.48279
0
LINE
8
BLACK
6
CONTINUOUS
10
0.576029
20
0.48279
11
0.575974
21
0.483645
0
LINE
8
BLACK
6
CONTINUOUS
10
0.575974
20
0.483645
11
0.575825
21
0.484489
0
LINE
8
BLACK
6
CONTINUOUS
10
0.575825
20
0.484489
11
0.57591
21
0.484636
0
LINE
8
BLACK
6
CONTINUOUS
10
0.57591
20
0.484636
11
0.575899
21
0.484806
0
LINE
8
BLACK
6
CONTINUOUS
10
0.575899
20
0.484806
11
0.576407
21
0.485496
0
LINE
8
BLACK
6
CONTINUOUS
10
0.576407
20
0.485496
11
0.576835
21
0.486238
0
LINE
8
BLACK
6
CONTINUOUS
10
0.576835
20
0.486238
11
0.576995
21
0.486296
0
LINE
8
BLACK
6
CONTINUOUS
10
0.576995
20
0.486296
11
0.577095
21
0.486433
0
LINE
8
BLACK
6
CONTINUOUS
10
0.577095
20
0.486433
11
0.582476
21
0.490021
0
LINE
8
BLACK
6
CONTINUOUS
10
0.582476
20
0.490021
11
0.58568
21
0.493225
0
LINE
8
BLACK
6
CONTINUOUS
10
0.58568
20
0.493225
11
0.587341
21
0.496545
0
LINE
8
BLACK
6
CONTINUOUS
10
0.587341
20
0.496545
11
0.587951
21
0.497369
0
LINE
8
BLACK
6
CONTINUOUS
10
0.587951
20
0.497369
11
0.589805
21
0.498172
0
LINE
8
BLACK
6
CONTINUOUS
10
0.589805
20
0.498172
11
0.591741
21
0.497597
0
LINE
8
BLACK
6
CONTINUOUS
10
0.618487
20
0.535605
11
0.618616
21
0.535628
0
LINE
8
BLACK
6
CONTINUOUS
10
0.618616
20
0.535628
11
0.618729
21
0.535563
0
LINE
8
BLACK
6
CONTINUOUS
10
0.618729
20
0.535563
11
0.619113
21
0.535495
0
LINE
8
BLACK
6
CONTINUOUS
10
0.619113
20
0.535495
11
0.619701
21
0.535002
0
LINE
8
BLACK
6
CONTINUOUS
10
0.619701
20
0.535002
11
0.620365
21
0.534618
0
LINE
8
BLACK
6
CONTINUOUS
10
0.620365
20
0.534618
11
0.620456
21
0.534368
0
LINE
8
BLACK
6
CONTINUOUS
10
0.620456
20
0.534368
11
0.62066
21
0.534197
0
LINE
8
BLACK
6
CONTINUOUS
10
0.62066
20
0.534197
11
0.620794
21
0.533441
0
LINE
8
BLACK
6
CONTINUOUS
10
0.620794
20
0.533441
11
0.621056
21
0.53272
0
LINE
8
BLACK
6
CONTINUOUS
10
0.621056
20
0.53272
11
0.621056
21
0.523346
0
LINE
8
BLACK
6
CONTINUOUS
10
0.621056
20
0.523346
11
0.620903
21
0.522477
0
LINE
8
BLACK
6
CONTINUOUS
10
0.620903
20
0.522477
11
0.620904
21
0.522413
0
LINE
8
BLACK
6
CONTINUOUS
10
0.620904
20
0.522413
11
0.61903
21
0.516788
0
LINE
8
BLACK
6
CONTINUOUS
10
0.61903
20
0.516788
11
0.618541
21
0.515887
0
LINE
8
BLACK
6
CONTINUOUS
10
0.618541
20
0.515887
11
0.618391
21
0.515794
0
LINE
8
BLACK
6
CONTINUOUS
10
0.618391
20
0.515794
11
0.618316
21
0.515634
0
LINE
8
BLACK
6
CONTINUOUS
10
0.618316
20
0.515634
11
0.614567
21
0.511885
0
LINE
8
BLACK
6
CONTINUOUS
10
0.614567
20
0.511885
11
0.613844
21
0.511378
0
LINE
8
BLACK
6
CONTINUOUS
10
0.613844
20
0.511378
11
0.613799
21
0.511332
0
LINE
8
BLACK
6
CONTINUOUS
10
0.613799
20
0.511332
11
0.61005
21
0.509457
0
LINE
8
BLACK
6
CONTINUOUS
10
0.61005
20
0.509457
11
0.609561
21
0.509312
0
LINE
8
BLACK
6
CONTINUOUS
10
0.609561
20
0.509312
11
0.609445
21
0.509233
0
LINE
8
BLACK
6
CONTINUOUS
10
0.609445
20
0.509233
11
0.601946
21
0.507359
0
LINE
8
BLACK
6
CONTINUOUS
10
0.601946
20
0.507359
11
0.601358
21
0.507317
0
LINE
8
BLACK
6
CONTINUOUS
10
0.601358
20
0.507317
11
0.60123
21
0.50727
0
LINE
8
BLACK
6
CONTINUOUS
10
0.60123
20
0.50727
11
0.595606
21
0.50727
0
LINE
8
BLACK
6
CONTINUOUS
10
0.595606
20
0.50727
11
0.595026
21
0.507373
0
LINE
8
BLACK
6
CONTINUOUS
10
0.595026
20
0.507373
11
0.59489
21
0.507359
0
LINE
8
BLACK
6
CONTINUOUS
10
0.59489
20
0.507359
11
0.587391
21
0.509233
0
LINE
8
BLACK
6
CONTINUOUS
10
0.587391
20
0.509233
11
0.586925
21
0.509441
0
LINE
8
BLACK
6
CONTINUOUS
10
0.586925
20
0.509441
11
0.586786
21
0.509457
0
LINE
8
BLACK
6
CONTINUOUS
10
0.586786
20
0.509457
11
0.583037
21
0.511332
0
LINE
8
BLACK
6
CONTINUOUS
10
0.583037
20
0.511332
11
0.582328
21
0.511858
0
LINE
8
BLACK
6
CONTINUOUS
10
0.582328
20
0.511858
11
0.582269
21
0.511885
0
LINE
8
BLACK
6
CONTINUOUS
10
0.582269
20
0.511885
11
0.57852
21
0.515634
0
LINE
8
BLACK
6
CONTINUOUS
10
0.57852
20
0.515634
11
0.577932
21
0.516474
0
LINE
8
BLACK
6
CONTINUOUS
10
0.577932
20
0.516474
11
0.577916
21
0.51665
0
LINE
8
BLACK
6
CONTINUOUS
10
0.577916
20
0.51665
11
0.577807
21
0.516788
0
LINE
8
BLACK
6
CONTINUOUS
10
0.577807
20
0.516788
11
0.575932
21
0.522413
0
LINE
8
BLACK
6
CONTINUOUS
10
0.575932
20
0.522413
11
0.575802
21
0.523286
0
LINE
8
BLACK
6
CONTINUOUS
10
0.575802
20
0.523286
11
0.57578
21
0.523346
0
LINE
8
BLACK
6
CONTINUOUS
10
0.57578
20
0.523346
11
0.57578
21
0.53272
0
LINE
8
BLACK
6
CONTINUOUS
10
0.57578
20
0.53272
11
0.575848
21
0.533104
0
LINE
8
BLACK
6
CONTINUOUS
10
0.575848
20
0.533104
11
0.575825
21
0.533233
0
LINE
8
BLACK
6
CONTINUOUS
10
0.575825
20
0.533233
11
0.575891
21
0.533347
0
LINE
8
BLACK
6
CONTINUOUS
10
0.575891
20
0.533347
11
0.575958
21
0.53373
0
LINE
8
BLACK
6
CONTINUOUS
10
0.575958
20
0.53373
11
0.576451
21
0.534318
0
LINE
8
BLACK
6
CONTINUOUS
10
0.576451
20
0.534318
11
0.576835
21
0.534982
0
LINE
8
BLACK
6
CONTINUOUS
10
0.576835
20
0.534982
11
0.577085
21
0.535073
0
LINE
8
BLACK
6
CONTINUOUS
10
0.577085
20
0.535073
11
0.577257
21
0.535277
0
LINE
8
BLACK
6
CONTINUOUS
10
0.577257
20
0.535277
11
0.578012
21
0.535411
0
LINE
8
BLACK
6
CONTINUOUS
10
0.578012
20
0.535411
11
0.578733
21
0.535673
0
LINE
8
BLACK
6
CONTINUOUS
10
0.578733
20
0.535673
11
0.618103
21
0.535673
0
LINE
8
BLACK
6
CONTINUOUS
10
0.618103
20
0.535673
11
0.618487
21
0.535605
0
LINE
8
BLACK
6
CONTINUOUS
10
0.581686
20
0.523826
11
0.583189
21
0.519317
0
LINE
8
BLACK
6
CONTINUOUS
10
0.583189
20
0.519317
11
0.586106
21
0.516399
0
LINE
8
BLACK
6
CONTINUOUS
10
0.586106
20
0.516399
11
0.589137
21
0.514884
0
LINE
8
BLACK
6
CONTINUOUS
10
0.589137
20
0.514884
11
0.595969
21
0.513176
0
LINE
8
BLACK
6
CONTINUOUS
10
0.595969
20
0.513176
11
0.600867
21
0.513176
0
LINE
8
BLACK
6
CONTINUOUS
10
0.600867
20
0.513176
11
0.607699
21
0.514884
0
LINE
8
BLACK
6
CONTINUOUS
10
0.607699
20
0.514884
11
0.61073
21
0.516399
0
LINE
8
BLACK
6
CONTINUOUS
10
0.61073
20
0.516399
11
0.613648
21
0.519317
0
LINE
8
BLACK
6
CONTINUOUS
10
0.613648
20
0.519317
11
0.61515
21
0.523826
0
LINE
8
BLACK
6
CONTINUOUS
10
0.61515
20
0.523826
11
0.61515
21
0.529768
0
LINE
8
BLACK
6
CONTINUOUS
10
0.61515
20
0.529768
11
0.581686
21
0.529768
0
LINE
8
BLACK
6
CONTINUOUS
10
0.581686
20
0.529768
11
0.581686
21
0.523826
0
LINE
8
BLACK
6
CONTINUOUS
10
0.127894
20
0.641036
11
0.128029
21
0.640923
0
LINE
8
BLACK
6
CONTINUOUS
10
0.128029
20
0.640923
11
0.128205
21
0.640903
0
LINE
8
BLACK
6
CONTINUOUS
10
0.128205
20
0.640903
11
0.131954
21
0.639028
0
LINE
8
BLACK
6
CONTINUOUS
10
0.131954
20
0.639028
11
0.132778
21
0.638417
0
LINE
8
BLACK
6
CONTINUOUS
10
0.132778
20
0.638417
11
0.133581
21
0.636564
0
LINE
8
BLACK
6
CONTINUOUS
10
0.133581
20
0.636564
11
0.133005
21
0.634628
0
LINE
8
BLACK
6
CONTINUOUS
10
0.133005
20
0.634628
11
0.13132
21
0.633515
0
LINE
8
BLACK
6
CONTINUOUS
10
0.13132
20
0.633515
11
0.129313
21
0.633746
0
LINE
8
BLACK
6
CONTINUOUS
10
0.129313
20
0.633746
11
0.126187
21
0.635309
0
LINE
8
BLACK
6
CONTINUOUS
10
0.126187
20
0.635309
11
0.120082
21
0.635309
0
LINE
8
BLACK
6
CONTINUOUS
10
0.120082
20
0.635309
11
0.117836
21
0.634186
0
LINE
8
BLACK
6
CONTINUOUS
10
0.117836
20
0.634186
11
0.116714
21
0.63194
0
LINE
8
BLACK
6
CONTINUOUS
10
0.116714
20
0.63194
11
0.116714
21
0.630713
0
LINE
8
BLACK
6
CONTINUOUS
10
0.116714
20
0.630713
11
0.118207
21
0.629966
0
LINE
8
BLACK
6
CONTINUOUS
10
0.118207
20
0.629966
11
0.126884
21
0.629966
0
LINE
8
BLACK
6
CONTINUOUS
10
0.126884
20
0.629966
11
0.127894
21
0.629788
0
LINE
8
BLACK
6
CONTINUOUS
10
0.127894
20
0.629788
11
0.128029
21
0.629674
0
LINE
8
BLACK
6
CONTINUOUS
10
0.128029
20
0.629674
11
0.128205
21
0.629654
0
LINE
8
BLACK
6
CONTINUOUS
10
0.128205
20
0.629654
11
0.131954
21
0.627779
0
LINE
8
BLACK
6
CONTINUOUS
10
0.131954
20
0.627779
11
0.132778
21
0.627169
0
LINE
8
BLACK
6
CONTINUOUS
10
0.132778
20
0.627169
11
0.132954
21
0.626763
0
LINE
8
BLACK
6
CONTINUOUS
10
0.132954
20
0.626763
11
0.133275
21
0.626459
0
LINE
8
BLACK
6
CONTINUOUS
10
0.133275
20
0.626459
11
0.135149
21
0.622709
0
LINE
8
BLACK
6
CONTINUOUS
10
0.135149
20
0.622709
11
0.135442
21
0.621726
0
LINE
8
BLACK
6
CONTINUOUS
10
0.135442
20
0.621726
11
0.135401
21
0.621555
0
LINE
8
BLACK
6
CONTINUOUS
10
0.135401
20
0.621555
11
0.135461
21
0.621389
0
LINE
8
BLACK
6
CONTINUOUS
10
0.135461
20
0.621389
11
0.135461
21
0.617639
0
LINE
8
BLACK
6
CONTINUOUS
10
0.135461
20
0.617639
11
0.135283
21
0.616629
0
LINE
8
BLACK
6
CONTINUOUS
10
0.135283
20
0.616629
11
0.13517
21
0.616494
0
LINE
8
BLACK
6
CONTINUOUS
10
0.13517
20
0.616494
11
0.135149
21
0.616319
0
LINE
8
BLACK
6
CONTINUOUS
10
0.135149
20
0.616319
11
0.133275
21
0.612569
0
LINE
8
BLACK
6
CONTINUOUS
10
0.133275
20
0.612569
11
0.132664
21
0.611746
0
LINE
8
BLACK
6
CONTINUOUS
10
0.132664
20
0.611746
11
0.132258
21
0.61157
0
LINE
8
BLACK
6
CONTINUOUS
10
0.132258
20
0.61157
11
0.131954
21
0.611249
0
LINE
8
BLACK
6
CONTINUOUS
10
0.131954
20
0.611249
11
0.128205
21
0.609374
0
LINE
8
BLACK
6
CONTINUOUS
10
0.128205
20
0.609374
11
0.127222
21
0.609082
0
LINE
8
BLACK
6
CONTINUOUS
10
0.127222
20
0.609082
11
0.12705
21
0.609123
0
LINE
8
BLACK
6
CONTINUOUS
10
0.12705
20
0.609123
11
0.126884
21
0.609062
0
LINE
8
BLACK
6
CONTINUOUS
10
0.126884
20
0.609062
11
0.11751
21
0.609062
0
LINE
8
BLACK
6
CONTINUOUS
10
0.11751
20
0.609062
11
0.1165
21
0.60924
0
LINE
8
BLACK
6
CONTINUOUS
10
0.1165
20
0.60924
11
0.116365
21
0.609354
0
LINE
8
BLACK
6
CONTINUOUS
10
0.116365
20
0.609354
11
0.11619
21
0.609374
0
LINE
8
BLACK
6
CONTINUOUS
10
0.11619
20
0.609374
11
0.115469
21
0.609734
0
LINE
8
BLACK
6
CONTINUOUS
10
0.115469
20
0.609734
11
0.115237
21
0.609458
0
LINE
8
BLACK
6
CONTINUOUS
10
0.115237
20
0.609458
11
0.113248
21
0.609107
0
LINE
8
BLACK
6
CONTINUOUS
10
0.113248
20
0.609107
11
0.111499
21
0.610117
0
LINE
8
BLACK
6
CONTINUOUS
10
0.111499
20
0.610117
11
0.110808
21
0.612015
0
LINE
8
BLACK
6
CONTINUOUS
10
0.110808
20
0.612015
11
0.110808
21
0.632637
0
LINE
8
BLACK
6
CONTINUOUS
10
0.110808
20
0.632637
11
0.110986
21
0.633647
0
LINE
8
BLACK
6
CONTINUOUS
10
0.110986
20
0.633647
11
0.1111
21
0.633783
0
LINE
8
BLACK
6
CONTINUOUS
10
0.1111
20
0.633783
11
0.11112
21
0.633958
0
LINE
8
BLACK
6
CONTINUOUS
10
0.11112
20
0.633958
11
0.112995
21
0.637707
0
LINE
8
BLACK
6
CONTINUOUS
10
0.112995
20
0.637707
11
0.113605
21
0.638531
0
LINE
8
BLACK
6
CONTINUOUS
10
0.113605
20
0.638531
11
0.114011
21
0.638707
0
LINE
8
BLACK
6
CONTINUOUS
10
0.114011
20
0.638707
11
0.114315
21
0.639028
0
LINE
8
BLACK
6
CONTINUOUS
10
0.114315
20
0.639028
11
0.118065
21
0.640903
0
LINE
8
BLACK
6
CONTINUOUS
10
0.118065
20
0.640903
11
0.119047
21
0.641195
0
LINE
8
BLACK
6
CONTINUOUS
10
0.119047
20
0.641195
11
0.119219
21
0.641154
0
LINE
8
BLACK
6
CONTINUOUS
10
0.119219
20
0.641154
11
0.119385
21
0.641214
0
LINE
8
BLACK
6
CONTINUOUS
10
0.119385
20
0.641214
11
0.126884
21
0.641214
0
LINE
8
BLACK
6
CONTINUOUS
10
0.126884
20
0.641214
11
0.127894
21
0.641036
0
LINE
8
BLACK
6
CONTINUOUS
10
0.116714
20
0.615715
11
0.118207
21
0.614968
0
LINE
8
BLACK
6
CONTINUOUS
10
0.118207
20
0.614968
11
0.126187
21
0.614968
0
LINE
8
BLACK
6
CONTINUOUS
10
0.126187
20
0.614968
11
0.128433
21
0.616091
0
LINE
8
BLACK
6
CONTINUOUS
10
0.128433
20
0.616091
11
0.129556
21
0.618336
0
LINE
8
BLACK
6
CONTINUOUS
10
0.129556
20
0.618336
11
0.129556
21
0.620692
0
LINE
8
BLACK
6
CONTINUOUS
10
0.129556
20
0.620692
11
0.128433
21
0.622938
0
LINE
8
BLACK
6
CONTINUOUS
10
0.128433
20
0.622938
11
0.126187
21
0.62406
0
LINE
8
BLACK
6
CONTINUOUS
10
0.126187
20
0.62406
11
0.11751
21
0.62406
0
LINE
8
BLACK
6
CONTINUOUS
10
0.11751
20
0.62406
11
0.116714
21
0.624201
0
LINE
8
BLACK
6
CONTINUOUS
10
0.116714
20
0.624201
11
0.116714
21
0.615715
0
LINE
8
BLACK
6
CONTINUOUS
10
0.178513
20
0.641036
11
0.178648
21
0.640923
0
LINE
8
BLACK
6
CONTINUOUS
10
0.178648
20
0.640923
11
0.178823
21
0.640903
0
LINE
8
BLACK
6
CONTINUOUS
10
0.178823
20
0.640903
11
0.182573
21
0.639028
0
LINE
8
BLACK
6
CONTINUOUS
10
0.182573
20
0.639028
11
0.183282
21
0.638502
0
LINE
8
BLACK
6
CONTINUOUS
10
0.183282
20
0.638502
11
0.18334
21
0.638475
0
LINE
8
BLACK
6
CONTINUOUS
10
0.18334
20
0.638475
11
0.185215
21
0.6366
0
LINE
8
BLACK
6
CONTINUOUS
10
0.185215
20
0.6366
11
0.185721
21
0.635877
0
LINE
8
BLACK
6
CONTINUOUS
10
0.185721
20
0.635877
11
0.185768
21
0.635833
0
LINE
8
BLACK
6
CONTINUOUS
10
0.185768
20
0.635833
11
0.187643
21
0.632083
0
LINE
8
BLACK
6
CONTINUOUS
10
0.187643
20
0.632083
11
0.187935
21
0.6311
0
LINE
8
BLACK
6
CONTINUOUS
10
0.187935
20
0.6311
11
0.187894
21
0.630929
0
LINE
8
BLACK
6
CONTINUOUS
10
0.187894
20
0.630929
11
0.187955
21
0.630763
0
LINE
8
BLACK
6
CONTINUOUS
10
0.187955
20
0.630763
11
0.187955
21
0.619514
0
LINE
8
BLACK
6
CONTINUOUS
10
0.187955
20
0.619514
11
0.187777
21
0.618504
0
LINE
8
BLACK
6
CONTINUOUS
10
0.187777
20
0.618504
11
0.187663
21
0.618369
0
LINE
8
BLACK
6
CONTINUOUS
10
0.187663
20
0.618369
11
0.187643
21
0.618194
0
LINE
8
BLACK
6
CONTINUOUS
10
0.187643
20
0.618194
11
0.185768
21
0.614444
0
LINE
8
BLACK
6
CONTINUOUS
10
0.185768
20
0.614444
11
0.185242
21
0.613735
0
LINE
8
BLACK
6
CONTINUOUS
10
0.185242
20
0.613735
11
0.185215
21
0.613677
0
LINE
8
BLACK
6
CONTINUOUS
10
0.185215
20
0.613677
11
0.18334
21
0.611802
0
LINE
8
BLACK
6
CONTINUOUS
10
0.18334
20
0.611802
11
0.182617
21
0.611296
0
LINE
8
BLACK
6
CONTINUOUS
10
0.182617
20
0.611296
11
0.182573
21
0.611249
0
LINE
8
BLACK
6
CONTINUOUS
10
0.182573
20
0.611249
11
0.178823
21
0.609374
0
LINE
8
BLACK
6
CONTINUOUS
10
0.178823
20
0.609374
11
0.17784
21
0.609082
0
LINE
8
BLACK
6
CONTINUOUS
10
0.17784
20
0.609082
11
0.177669
21
0.609123
0
LINE
8
BLACK
6
CONTINUOUS
10
0.177669
20
0.609123
11
0.177503
21
0.609062
0
LINE
8
BLACK
6
CONTINUOUS
10
0.177503
20
0.609062
11
0.170004
21
0.609062
0
LINE
8
BLACK
6
CONTINUOUS
10
0.170004
20
0.609062
11
0.168994
21
0.60924
0
LINE
8
BLACK
6
CONTINUOUS
10
0.168994
20
0.60924
11
0.168859
21
0.609354
0
LINE
8
BLACK
6
CONTINUOUS
10
0.168859
20
0.609354
11
0.168683
21
0.609374
0
LINE
8
BLACK
6
CONTINUOUS
10
0.168683
20
0.609374
11
0.164934
21
0.611249
0
LINE
8
BLACK
6
CONTINUOUS
10
0.164934
20
0.611249
11
0.16411
21
0.61186
0
LINE
8
BLACK
6
CONTINUOUS
10
0.16411
20
0.61186
11
0.163307
21
0.613713
0
LINE
8
BLACK
6
CONTINUOUS
10
0.163307
20
0.613713
11
0.163883
21
0.615649
0
LINE
8
BLACK
6
CONTINUOUS
10
0.163883
20
0.615649
11
0.165568
21
0.616762
0
LINE
8
BLACK
6
CONTINUOUS
10
0.165568
20
0.616762
11
0.167575
21
0.616531
0
LINE
8
BLACK
6
CONTINUOUS
10
0.167575
20
0.616531
11
0.170701
21
0.614968
0
LINE
8
BLACK
6
CONTINUOUS
10
0.170701
20
0.614968
11
0.176806
21
0.614968
0
LINE
8
BLACK
6
CONTINUOUS
10
0.176806
20
0.614968
11
0.179503
21
0.616316
0
LINE
8
BLACK
6
CONTINUOUS
10
0.179503
20
0.616316
11
0.1807
21
0.617514
0
LINE
8
BLACK
6
CONTINUOUS
10
0.1807
20
0.617514
11
0.182049
21
0.620211
0
LINE
8
BLACK
6
CONTINUOUS
10
0.182049
20
0.620211
11
0.182049
21
0.630066
0
LINE
8
BLACK
6
CONTINUOUS
10
0.182049
20
0.630066
11
0.1807
21
0.632763
0
LINE
8
BLACK
6
CONTINUOUS
10
0.1807
20
0.632763
11
0.179503
21
0.63396
0
LINE
8
BLACK
6
CONTINUOUS
10
0.179503
20
0.63396
11
0.176806
21
0.635309
0
LINE
8
BLACK
6
CONTINUOUS
10
0.176806
20
0.635309
11
0.170701
21
0.635309
0
LINE
8
BLACK
6
CONTINUOUS
10
0.170701
20
0.635309
11
0.167575
21
0.633746
0
LINE
8
BLACK
6
CONTINUOUS
10
0.167575
20
0.633746
11
0.166592
21
0.633454
0
LINE
8
BLACK
6
CONTINUOUS
10
0.166592
20
0.633454
11
0.164627
21
0.633923
0
LINE
8
BLACK
6
CONTINUOUS
10
0.164627
20
0.633923
11
0.163424
21
0.635545
0
LINE
8
BLACK
6
CONTINUOUS
10
0.163424
20
0.635545
11
0.163545
21
0.637561
0
LINE
8
BLACK
6
CONTINUOUS
10
0.163545
20
0.637561
11
0.164934
21
0.639028
0
LINE
8
BLACK
6
CONTINUOUS
10
0.164934
20
0.639028
11
0.168683
21
0.640903
0
LINE
8
BLACK
6
CONTINUOUS
10
0.168683
20
0.640903
11
0.169666
21
0.641195
0
LINE
8
BLACK
6
CONTINUOUS
10
0.169666
20
0.641195
11
0.169838
21
0.641154
0
LINE
8
BLACK
6
CONTINUOUS
10
0.169838
20
0.641154
11
0.170004
21
0.641214
0
LINE
8
BLACK
6
CONTINUOUS
10
0.170004
20
0.641214
11
0.177503
21
0.641214
0
LINE
8
BLACK
6
CONTINUOUS
10
0.177503
20
0.641214
11
0.178513
21
0.641036
0
LINE
8
BLACK
6
CONTINUOUS
10
0.22101
20
0.64016
11
0.2217
21
0.638262
0
LINE
8
BLACK
6
CONTINUOUS
10
0.2217
20
0.638262
11
0.2217
21
0.617639
0
LINE
8
BLACK
6
CONTINUOUS
10
0.2217
20
0.617639
11
0.221522
21
0.616629
0
LINE
8
BLACK
6
CONTINUOUS
10
0.221522
20
0.616629
11
0.221409
21
0.616494
0
LINE
8
BLACK
6
CONTINUOUS
10
0.221409
20
0.616494
11
0.221389
21
0.616319
0
LINE
8
BLACK
6
CONTINUOUS
10
0.221389
20
0.616319
11
0.219514
21
0.612569
0
LINE
8
BLACK
6
CONTINUOUS
10
0.219514
20
0.612569
11
0.218903
21
0.611746
0
LINE
8
BLACK
6
CONTINUOUS
10
0.218903
20
0.611746
11
0.218497
21
0.61157
0
LINE
8
BLACK
6
CONTINUOUS
10
0.218497
20
0.61157
11
0.218193
21
0.611249
0
LINE
8
BLACK
6
CONTINUOUS
10
0.218193
20
0.611249
11
0.214444
21
0.609374
0
LINE
8
BLACK
6
CONTINUOUS
10
0.214444
20
0.609374
11
0.213461
21
0.609082
0
LINE
8
BLACK
6
CONTINUOUS
10
0.213461
20
0.609082
11
0.213289
21
0.609123
0
LINE
8
BLACK
6
CONTINUOUS
10
0.213289
20
0.609123
11
0.213123
21
0.609062
0
LINE
8
BLACK
6
CONTINUOUS
10
0.213123
20
0.609062
11
0.207499
21
0.609062
0
LINE
8
BLACK
6
CONTINUOUS
10
0.207499
20
0.609062
11
0.206489
21
0.60924
0
LINE
8
BLACK
6
CONTINUOUS
10
0.206489
20
0.60924
11
0.206354
21
0.609354
0
LINE
8
BLACK
6
CONTINUOUS
10
0.206354
20
0.609354
11
0.206179
21
0.609374
0
LINE
8
BLACK
6
CONTINUOUS
10
0.206179
20
0.609374
11
0.204137
21
0.610395
0
LINE
8
BLACK
6
CONTINUOUS
10
0.204137
20
0.610395
11
0.203351
21
0.609458
0
LINE
8
BLACK
6
CONTINUOUS
10
0.203351
20
0.609458
11
0.201362
21
0.609107
0
LINE
8
BLACK
6
CONTINUOUS
10
0.201362
20
0.609107
11
0.199613
21
0.610117
0
LINE
8
BLACK
6
CONTINUOUS
10
0.199613
20
0.610117
11
0.198922
21
0.612015
0
LINE
8
BLACK
6
CONTINUOUS
10
0.198922
20
0.612015
11
0.198922
21
0.638262
0
LINE
8
BLACK
6
CONTINUOUS
10
0.198922
20
0.638262
11
0.1991
21
0.639272
0
LINE
8
BLACK
6
CONTINUOUS
10
0.1991
20
0.639272
11
0.200398
21
0.640819
0
LINE
8
BLACK
6
CONTINUOUS
10
0.200398
20
0.640819
11
0.202388
21
0.64117
0
LINE
8
BLACK
6
CONTINUOUS
10
0.202388
20
0.64117
11
0.204137
21
0.64016
0
LINE
8
BLACK
6
CONTINUOUS
10
0.204137
20
0.64016
11
0.204828
21
0.638262
0
LINE
8
BLACK
6
CONTINUOUS
10
0.204828
20
0.638262
11
0.204828
21
0.616988
0
LINE
8
BLACK
6
CONTINUOUS
10
0.204828
20
0.616988
11
0.205499
21
0.616316
0
LINE
8
BLACK
6
CONTINUOUS
10
0.205499
20
0.616316
11
0.208196
21
0.614968
0
LINE
8
BLACK
6
CONTINUOUS
10
0.208196
20
0.614968
11
0.212426
21
0.614968
0
LINE
8
BLACK
6
CONTINUOUS
10
0.212426
20
0.614968
11
0.214672
21
0.616091
0
LINE
8
BLACK
6
CONTINUOUS
10
0.214672
20
0.616091
11
0.215795
21
0.618336
0
LINE
8
BLACK
6
CONTINUOUS
10
0.215795
20
0.618336
11
0.215795
21
0.638262
0
LINE
8
BLACK
6
CONTINUOUS
10
0.215795
20
0.638262
11
0.215973
21
0.639272
0
LINE
8
BLACK
6
CONTINUOUS
10
0.215973
20
0.639272
11
0.217271
21
0.640819
0
LINE
8
BLACK
6
CONTINUOUS
10
0.217271
20
0.640819
11
0.21926
21
0.64117
0
LINE
8
BLACK
6
CONTINUOUS
10
0.21926
20
0.64117
11
0.22101
21
0.64016
0
LINE
8
BLACK
6
CONTINUOUS
10
0.239757
20
0.653283
11
0.240448
21
0.651385
0
LINE
8
BLACK
6
CONTINUOUS
10
0.240448
20
0.651385
11
0.240448
21
0.641059
0
LINE
8
BLACK
6
CONTINUOUS
10
0.240448
20
0.641059
11
0.240907
21
0.641195
0
LINE
8
BLACK
6
CONTINUOUS
10
0.240907
20
0.641195
11
0.241079
21
0.641154
0
LINE
8
BLACK
6
CONTINUOUS
10
0.241079
20
0.641154
11
0.241245
21
0.641214
0
LINE
8
BLACK
6
CONTINUOUS
10
0.241245
20
0.641214
11
0.248744
21
0.641214
0
LINE
8
BLACK
6
CONTINUOUS
10
0.248744
20
0.641214
11
0.249754
21
0.641036
0
LINE
8
BLACK
6
CONTINUOUS
10
0.249754
20
0.641036
11
0.249889
21
0.640923
0
LINE
8
BLACK
6
CONTINUOUS
10
0.249889
20
0.640923
11
0.250064
21
0.640903
0
LINE
8
BLACK
6
CONTINUOUS
10
0.250064
20
0.640903
11
0.253814
21
0.639028
0
LINE
8
BLACK
6
CONTINUOUS
10
0.253814
20
0.639028
11
0.254523
21
0.638502
0
LINE
8
BLACK
6
CONTINUOUS
10
0.254523
20
0.638502
11
0.254581
21
0.638475
0
LINE
8
BLACK
6
CONTINUOUS
10
0.254581
20
0.638475
11
0.256456
21
0.6366
0
LINE
8
BLACK
6
CONTINUOUS
10
0.256456
20
0.6366
11
0.256962
21
0.635877
0
LINE
8
BLACK
6
CONTINUOUS
10
0.256962
20
0.635877
11
0.257009
21
0.635833
0
LINE
8
BLACK
6
CONTINUOUS
10
0.257009
20
0.635833
11
0.258884
21
0.632083
0
LINE
8
BLACK
6
CONTINUOUS
10
0.258884
20
0.632083
11
0.259176
21
0.6311
0
LINE
8
BLACK
6
CONTINUOUS
10
0.259176
20
0.6311
11
0.259135
21
0.630929
0
LINE
8
BLACK
6
CONTINUOUS
10
0.259135
20
0.630929
11
0.259196
21
0.630763
0
LINE
8
BLACK
6
CONTINUOUS
10
0.259196
20
0.630763
11
0.259196
21
0.619514
0
LINE
8
BLACK
6
CONTINUOUS
10
0.259196
20
0.619514
11
0.259018
21
0.618504
0
LINE
8
BLACK
6
CONTINUOUS
10
0.259018
20
0.618504
11
0.258904
21
0.618369
0
LINE
8
BLACK
6
CONTINUOUS
10
0.258904
20
0.618369
11
0.258884
21
0.618194
0
LINE
8
BLACK
6
CONTINUOUS
10
0.258884
20
0.618194
11
0.257009
21
0.614444
0
LINE
8
BLACK
6
CONTINUOUS
10
0.257009
20
0.614444
11
0.256483
21
0.613735
0
LINE
8
BLACK
6
CONTINUOUS
10
0.256483
20
0.613735
11
0.256456
21
0.613677
0
LINE
8
BLACK
6
CONTINUOUS
10
0.256456
20
0.613677
11
0.254581
21
0.611802
0
LINE
8
BLACK
6
CONTINUOUS
10
0.254581
20
0.611802
11
0.253858
21
0.611296
0
LINE
8
BLACK
6
CONTINUOUS
10
0.253858
20
0.611296
11
0.253814
21
0.611249
0
LINE
8
BLACK
6
CONTINUOUS
10
0.253814
20
0.611249
11
0.250064
21
0.609374
0
LINE
8
BLACK
6
CONTINUOUS
10
0.250064
20
0.609374
11
0.249081
21
0.609082
0
LINE
8
BLACK
6
CONTINUOUS
10
0.249081
20
0.609082
11
0.24891
21
0.609123
0
LINE
8
BLACK
6
CONTINUOUS
10
0.24891
20
0.609123
11
0.248744
21
0.609062
0
LINE
8
BLACK
6
CONTINUOUS
10
0.248744
20
0.609062
11
0.241245
21
0.609062
0
LINE
8
BLACK
6
CONTINUOUS
10
0.241245
20
0.609062
11
0.240235
21
0.60924
0
LINE
8
BLACK
6
CONTINUOUS
10
0.240235
20
0.60924
11
0.2401
21
0.609354
0
LINE
8
BLACK
6
CONTINUOUS
10
0.2401
20
0.609354
11
0.239924
21
0.609374
0
LINE
8
BLACK
6
CONTINUOUS
10
0.239924
20
0.609374
11
0.239204
21
0.609734
0
LINE
8
BLACK
6
CONTINUOUS
10
0.239204
20
0.609734
11
0.238972
21
0.609458
0
LINE
8
BLACK
6
CONTINUOUS
10
0.238972
20
0.609458
11
0.236983
21
0.609107
0
LINE
8
BLACK
6
CONTINUOUS
10
0.236983
20
0.609107
11
0.235233
21
0.610117
0
LINE
8
BLACK
6
CONTINUOUS
10
0.235233
20
0.610117
11
0.234543
21
0.612015
0
LINE
8
BLACK
6
CONTINUOUS
10
0.234543
20
0.612015
11
0.234543
21
0.651385
0
LINE
8
BLACK
6
CONTINUOUS
10
0.234543
20
0.651385
11
0.234721
21
0.652395
0
LINE
8
BLACK
6
CONTINUOUS
10
0.234721
20
0.652395
11
0.236019
21
0.653942
0
LINE
8
BLACK
6
CONTINUOUS
10
0.236019
20
0.653942
11
0.238008
21
0.654293
0
LINE
8
BLACK
6
CONTINUOUS
10
0.238008
20
0.654293
11
0.239757
21
0.653283
0
LINE
8
BLACK
6
CONTINUOUS
10
0.240448
20
0.634562
11
0.240448
21
0.615715
0
LINE
8
BLACK
6
CONTINUOUS
10
0.240448
20
0.615715
11
0.241942
21
0.614968
0
LINE
8
BLACK
6
CONTINUOUS
10
0.241942
20
0.614968
11
0.248047
21
0.614968
0
LINE
8
BLACK
6
CONTINUOUS
10
0.248047
20
0.614968
11
0.250744
21
0.616316
0
LINE
8
BLACK
6
CONTINUOUS
10
0.250744
20
0.616316
11
0.251941
21
0.617514
0
LINE
8
BLACK
6
CONTINUOUS
10
0.251941
20
0.617514
11
0.25329
21
0.620211
0
LINE
8
BLACK
6
CONTINUOUS
10
0.25329
20
0.620211
11
0.25329
21
0.630066
0
LINE
8
BLACK
6
CONTINUOUS
10
0.25329
20
0.630066
11
0.251941
21
0.632763
0
LINE
8
BLACK
6
CONTINUOUS
10
0.251941
20
0.632763
11
0.250744
21
0.63396
0
LINE
8
BLACK
6
CONTINUOUS
10
0.250744
20
0.63396
11
0.248047
21
0.635309
0
LINE
8
BLACK
6
CONTINUOUS
10
0.248047
20
0.635309
11
0.241942
21
0.635309
0
LINE
8
BLACK
6
CONTINUOUS
10
0.241942
20
0.635309
11
0.240448
21
0.634562
0
LINE
8
BLACK
6
CONTINUOUS
10
0.097275
20
0.653283
11
0.0979659
21
0.651385
0
LINE
8
BLACK
6
CONTINUOUS
10
0.0979659
20
0.651385
11
0.0979659
21
0.617639
0
LINE
8
BLACK
6
CONTINUOUS
10
0.0979659
20
0.617639
11
0.0977878
21
0.616629
0
LINE
8
BLACK
6
CONTINUOUS
10
0.0977878
20
0.616629
11
0.0976743
21
0.616494
0
LINE
8
BLACK
6
CONTINUOUS
10
0.0976743
20
0.616494
11
0.0976541
21
0.616319
0
LINE
8
BLACK
6
CONTINUOUS
10
0.0976541
20
0.616319
11
0.0957794
21
0.612569
0
LINE
8
BLACK
6
CONTINUOUS
10
0.0957794
20
0.612569
11
0.0951685
21
0.611746
0
LINE
8
BLACK
6
CONTINUOUS
10
0.0951685
20
0.611746
11
0.0947628
21
0.61157
0
LINE
8
BLACK
6
CONTINUOUS
10
0.0947628
20
0.61157
11
0.0944589
21
0.611249
0
LINE
8
BLACK
6
CONTINUOUS
10
0.0944589
20
0.611249
11
0.0907093
21
0.609374
0
LINE
8
BLACK
6
CONTINUOUS
10
0.0907093
20
0.609374
11
0.0897264
21
0.609082
0
LINE
8
BLACK
6
CONTINUOUS
10
0.0897264
20
0.609082
11
0.0877619
21
0.609551
0
LINE
8
BLACK
6
CONTINUOUS
10
0.0877619
20
0.609551
11
0.0865586
21
0.611173
0
LINE
8
BLACK
6
CONTINUOUS
10
0.0865586
20
0.611173
11
0.0866796
21
0.613189
0
LINE
8
BLACK
6
CONTINUOUS
10
0.0866796
20
0.613189
11
0.0880683
21
0.614656
0
LINE
8
BLACK
6
CONTINUOUS
10
0.0880683
20
0.614656
11
0.0909375
21
0.616091
0
LINE
8
BLACK
6
CONTINUOUS
10
0.0909375
20
0.616091
11
0.0920604
21
0.618336
0
LINE
8
BLACK
6
CONTINUOUS
10
0.0920604
20
0.618336
11
0.0920604
21
0.651385
0
LINE
8
BLACK
6
CONTINUOUS
10
0.0920604
20
0.651385
11
0.0922384
21
0.652395
0
LINE
8
BLACK
6
CONTINUOUS
10
0.0922384
20
0.652395
11
0.0935367
21
0.653942
0
LINE
8
BLACK
6
CONTINUOUS
10
0.0935367
20
0.653942
11
0.0955259
21
0.654293
0
LINE
8
BLACK
6
CONTINUOUS
10
0.0955259
20
0.654293
11
0.097275
21
0.653283
0
LINE
8
BLACK
6
CONTINUOUS
10
0.151643
20
0.64016
11
0.152334
21
0.638262
0
LINE
8
BLACK
6
CONTINUOUS
10
0.152334
20
0.638262
11
0.152334
21
0.612015
0
LINE
8
BLACK
6
CONTINUOUS
10
0.152334
20
0.612015
11
0.152156
21
0.611005
0
LINE
8
BLACK
6
CONTINUOUS
10
0.152156
20
0.611005
11
0.150858
21
0.609458
0
LINE
8
BLACK
6
CONTINUOUS
10
0.150858
20
0.609458
11
0.148869
21
0.609107
0
LINE
8
BLACK
6
CONTINUOUS
10
0.148869
20
0.609107
11
0.147119
21
0.610117
0
LINE
8
BLACK
6
CONTINUOUS
10
0.147119
20
0.610117
11
0.146429
21
0.612015
0
LINE
8
BLACK
6
CONTINUOUS
10
0.146429
20
0.612015
11
0.146429
21
0.638262
0
LINE
8
BLACK
6
CONTINUOUS
10
0.146429
20
0.638262
11
0.146607
21
0.639272
0
LINE
8
BLACK
6
CONTINUOUS
10
0.146607
20
0.639272
11
0.147905
21
0.640819
0
LINE
8
BLACK
6
CONTINUOUS
10
0.147905
20
0.640819
11
0.149894
21
0.64117
0
LINE
8
BLACK
6
CONTINUOUS
10
0.149894
20
0.64117
11
0.151643
21
0.64016
0
LINE
8
BLACK
6
CONTINUOUS
10
0.275378
20
0.64016
11
0.276069
21
0.638262
0
LINE
8
BLACK
6
CONTINUOUS
10
0.276069
20
0.638262
11
0.276069
21
0.612015
0
LINE
8
BLACK
6
CONTINUOUS
10
0.276069
20
0.612015
11
0.275891
21
0.611005
0
LINE
8
BLACK
6
CONTINUOUS
10
0.275891
20
0.611005
11
0.274592
21
0.609458
0
LINE
8
BLACK
6
CONTINUOUS
10
0.274592
20
0.609458
11
0.272603
21
0.609107
0
LINE
8
BLACK
6
CONTINUOUS
10
0.272603
20
0.609107
11
0.270854
21
0.610117
0
LINE
8
BLACK
6
CONTINUOUS
10
0.270854
20
0.610117
11
0.270163
21
0.612015
0
LINE
8
BLACK
6
CONTINUOUS
10
0.270163
20
0.612015
11
0.270163
21
0.638262
0
LINE
8
BLACK
6
CONTINUOUS
10
0.270163
20
0.638262
11
0.270341
21
0.639272
0
LINE
8
BLACK
6
CONTINUOUS
10
0.270341
20
0.639272
11
0.271639
21
0.640819
0
LINE
8
BLACK
6
CONTINUOUS
10
0.271639
20
0.640819
11
0.273629
21
0.64117
0
LINE
8
BLACK
6
CONTINUOUS
10
0.273629
20
0.64117
11
0.275378
21
0.64016
0
LINE
8
BLACK
6
CONTINUOUS
10
0.307245
20
0.65427
11
0.307374
21
0.654293
0
LINE
8
BLACK
6
CONTINUOUS
10
0.307374
20
0.654293
11
0.307488
21
0.654227
0
LINE
8
BLACK
6
CONTINUOUS
10
0.307488
20
0.654227
11
0.307872
21
0.65416
0
LINE
8
BLACK
6
CONTINUOUS
10
0.307872
20
0.65416
11
0.308459
21
0.653667
0
LINE
8
BLACK
6
CONTINUOUS
10
0.308459
20
0.653667
11
0.309124
21
0.653283
0
LINE
8
BLACK
6
CONTINUOUS
10
0.309124
20
0.653283
11
0.309215
21
0.653033
0
LINE
8
BLACK
6
CONTINUOUS
10
0.309215
20
0.653033
11
0.309419
21
0.652861
0
LINE
8
BLACK
6
CONTINUOUS
10
0.309419
20
0.652861
11
0.309552
21
0.652106
0
LINE
8
BLACK
6
CONTINUOUS
10
0.309552
20
0.652106
11
0.309814
21
0.651385
0
LINE
8
BLACK
6
CONTINUOUS
10
0.309814
20
0.651385
11
0.309814
21
0.612015
0
LINE
8
BLACK
6
CONTINUOUS
10
0.309814
20
0.612015
11
0.309636
21
0.611005
0
LINE
8
BLACK
6
CONTINUOUS
10
0.309636
20
0.611005
11
0.308338
21
0.609458
0
LINE
8
BLACK
6
CONTINUOUS
10
0.308338
20
0.609458
11
0.306349
21
0.609107
0
LINE
8
BLACK
6
CONTINUOUS
10
0.306349
20
0.609107
11
0.3046
21
0.610117
0
LINE
8
BLACK
6
CONTINUOUS
10
0.3046
20
0.610117
11
0.303909
21
0.612015
0
LINE
8
BLACK
6
CONTINUOUS
10
0.303909
20
0.612015
11
0.303909
21
0.629685
0
LINE
8
BLACK
6
CONTINUOUS
10
0.303909
20
0.629685
11
0.293738
21
0.629685
0
LINE
8
BLACK
6
CONTINUOUS
10
0.293738
20
0.629685
11
0.292728
21
0.629863
0
LINE
8
BLACK
6
CONTINUOUS
10
0.292728
20
0.629863
11
0.291181
21
0.631161
0
LINE
8
BLACK
6
CONTINUOUS
10
0.291181
20
0.631161
11
0.29083
21
0.63315
0
LINE
8
BLACK
6
CONTINUOUS
10
0.29083
20
0.63315
11
0.29184
21
0.634899
0
LINE
8
BLACK
6
CONTINUOUS
10
0.29184
20
0.634899
11
0.293738
21
0.63559
0
LINE
8
BLACK
6
CONTINUOUS
10
0.293738
20
0.63559
11
0.303909
21
0.63559
0
LINE
8
BLACK
6
CONTINUOUS
10
0.303909
20
0.63559
11
0.303909
21
0.648432
0
LINE
8
BLACK
6
CONTINUOUS
10
0.303909
20
0.648432
11
0.288114
21
0.648432
0
LINE
8
BLACK
6
CONTINUOUS
10
0.288114
20
0.648432
11
0.287104
21
0.64861
0
LINE
8
BLACK
6
CONTINUOUS
10
0.287104
20
0.64861
11
0.285557
21
0.649909
0
LINE
8
BLACK
6
CONTINUOUS
10
0.285557
20
0.649909
11
0.285206
21
0.651898
0
LINE
8
BLACK
6
CONTINUOUS
10
0.285206
20
0.651898
11
0.286216
21
0.653647
0
LINE
8
BLACK
6
CONTINUOUS
10
0.286216
20
0.653647
11
0.288114
21
0.654338
0
LINE
8
BLACK
6
CONTINUOUS
10
0.288114
20
0.654338
11
0.306862
21
0.654338
0
LINE
8
BLACK
6
CONTINUOUS
10
0.306862
20
0.654338
11
0.307245
21
0.65427
0
LINE
8
BLACK
6
CONTINUOUS
10
0.149761
20
0.65427
11
0.149894
21
0.654293
0
LINE
8
BLACK
6
CONTINUOUS
10
0.149894
20
0.654293
11
0.150011
21
0.654225
0
LINE
8
BLACK
6
CONTINUOUS
10
0.150011
20
0.654225
11
0.150146
21
0.654237
0
LINE
8
BLACK
6
CONTINUOUS
10
0.150146
20
0.654237
11
0.150774
21
0.653797
0
LINE
8
BLACK
6
CONTINUOUS
10
0.150774
20
0.653797
11
0.151469
21
0.653473
0
LINE
8
BLACK
6
CONTINUOUS
10
0.151469
20
0.653473
11
0.153344
21
0.651598
0
LINE
8
BLACK
6
CONTINUOUS
10
0.153344
20
0.651598
11
0.153567
21
0.651279
0
LINE
8
BLACK
6
CONTINUOUS
10
0.153567
20
0.651279
11
0.153675
21
0.651204
0
LINE
8
BLACK
6
CONTINUOUS
10
0.153675
20
0.651204
11
0.153709
21
0.651077
0
LINE
8
BLACK
6
CONTINUOUS
10
0.153709
20
0.651077
11
0.153932
21
0.650758
0
LINE
8
BLACK
6
CONTINUOUS
10
0.153932
20
0.650758
11
0.153999
21
0.649994
0
LINE
8
BLACK
6
CONTINUOUS
10
0.153999
20
0.649994
11
0.154198
21
0.649253
0
LINE
8
BLACK
6
CONTINUOUS
10
0.154198
20
0.649253
11
0.154085
21
0.649012
0
LINE
8
BLACK
6
CONTINUOUS
10
0.154085
20
0.649012
11
0.154108
21
0.648746
0
LINE
8
BLACK
6
CONTINUOUS
10
0.154108
20
0.648746
11
0.153668
21
0.648118
0
LINE
8
BLACK
6
CONTINUOUS
10
0.153668
20
0.648118
11
0.153344
21
0.647422
0
LINE
8
BLACK
6
CONTINUOUS
10
0.153344
20
0.647422
11
0.151469
21
0.645548
0
LINE
8
BLACK
6
CONTINUOUS
10
0.151469
20
0.645548
11
0.15115
21
0.645324
0
LINE
8
BLACK
6
CONTINUOUS
10
0.15115
20
0.645324
11
0.151075
21
0.645217
0
LINE
8
BLACK
6
CONTINUOUS
10
0.151075
20
0.645217
11
0.150948
21
0.645183
0
LINE
8
BLACK
6
CONTINUOUS
10
0.150948
20
0.645183
11
0.150941
21
0.645178
0
LINE
8
BLACK
6
CONTINUOUS
10
0.150941
20
0.645178
11
0.150858
21
0.645078
0
LINE
8
BLACK
6
CONTINUOUS
10
0.150858
20
0.645078
11
0.150779
21
0.645065
0
LINE
8
BLACK
6
CONTINUOUS
10
0.150779
20
0.645065
11
0.150629
21
0.644959
0
LINE
8
BLACK
6
CONTINUOUS
10
0.150629
20
0.644959
11
0.149865
21
0.644893
0
LINE
8
BLACK
6
CONTINUOUS
10
0.149865
20
0.644893
11
0.149124
21
0.644694
0
LINE
8
BLACK
6
CONTINUOUS
10
0.149124
20
0.644694
11
0.149002
21
0.644751
0
LINE
8
BLACK
6
CONTINUOUS
10
0.149002
20
0.644751
11
0.148869
21
0.644728
0
LINE
8
BLACK
6
CONTINUOUS
10
0.148869
20
0.644728
11
0.148752
21
0.644795
0
LINE
8
BLACK
6
CONTINUOUS
10
0.148752
20
0.644795
11
0.148617
21
0.644783
0
LINE
8
BLACK
6
CONTINUOUS
10
0.148617
20
0.644783
11
0.147989
21
0.645224
0
LINE
8
BLACK
6
CONTINUOUS
10
0.147989
20
0.645224
11
0.147293
21
0.645548
0
LINE
8
BLACK
6
CONTINUOUS
10
0.147293
20
0.645548
11
0.145419
21
0.647422
0
LINE
8
BLACK
6
CONTINUOUS
10
0.145419
20
0.647422
11
0.145195
21
0.647741
0
LINE
8
BLACK
6
CONTINUOUS
10
0.145195
20
0.647741
11
0.145088
21
0.647817
0
LINE
8
BLACK
6
CONTINUOUS
10
0.145088
20
0.647817
11
0.145054
21
0.647943
0
LINE
8
BLACK
6
CONTINUOUS
10
0.145054
20
0.647943
11
0.14483
21
0.648262
0
LINE
8
BLACK
6
CONTINUOUS
10
0.14483
20
0.648262
11
0.144764
21
0.649027
0
LINE
8
BLACK
6
CONTINUOUS
10
0.144764
20
0.649027
11
0.144565
21
0.649768
0
LINE
8
BLACK
6
CONTINUOUS
10
0.144565
20
0.649768
11
0.144678
21
0.650009
0
LINE
8
BLACK
6
CONTINUOUS
10
0.144678
20
0.650009
11
0.144654
21
0.650275
0
LINE
8
BLACK
6
CONTINUOUS
10
0.144654
20
0.650275
11
0.145094
21
0.650903
0
LINE
8
BLACK
6
CONTINUOUS
10
0.145094
20
0.650903
11
0.145419
21
0.651598
0
LINE
8
BLACK
6
CONTINUOUS
10
0.145419
20
0.651598
11
0.147293
21
0.653473
0
LINE
8
BLACK
6
CONTINUOUS
10
0.147293
20
0.653473
11
0.147612
21
0.653696
0
LINE
8
BLACK
6
CONTINUOUS
10
0.147612
20
0.653696
11
0.147688
21
0.653804
0
LINE
8
BLACK
6
CONTINUOUS
10
0.147688
20
0.653804
11
0.147814
21
0.653838
0
LINE
8
BLACK
6
CONTINUOUS
10
0.147814
20
0.653838
11
0.147821
21
0.653843
0
LINE
8
BLACK
6
CONTINUOUS
10
0.147821
20
0.653843
11
0.147905
21
0.653942
0
LINE
8
BLACK
6
CONTINUOUS
10
0.147905
20
0.653942
11
0.147983
21
0.653956
0
LINE
8
BLACK
6
CONTINUOUS
10
0.147983
20
0.653956
11
0.148133
21
0.654061
0
LINE
8
BLACK
6
CONTINUOUS
10
0.148133
20
0.654061
11
0.148898
21
0.654128
0
LINE
8
BLACK
6
CONTINUOUS
10
0.148898
20
0.654128
11
0.149639
21
0.654327
0
LINE
8
BLACK
6
CONTINUOUS
10
0.149639
20
0.654327
11
0.149761
21
0.65427
0
LINE
8
BLACK
6
CONTINUOUS
10
0.273495
20
0.65427
11
0.273629
21
0.654293
0
LINE
8
BLACK
6
CONTINUOUS
10
0.273629
20
0.654293
11
0.273746
21
0.654225
0
LINE
8
BLACK
6
CONTINUOUS
10
0.273746
20
0.654225
11
0.27388
21
0.654237
0
LINE
8
BLACK
6
CONTINUOUS
10
0.27388
20
0.654237
11
0.274508
21
0.653797
0
LINE
8
BLACK
6
CONTINUOUS
10
0.274508
20
0.653797
11
0.275204
21
0.653473
0
LINE
8
BLACK
6
CONTINUOUS
10
0.275204
20
0.653473
11
0.277079
21
0.651598
0
LINE
8
BLACK
6
CONTINUOUS
10
0.277079
20
0.651598
11
0.277302
21
0.651279
0
LINE
8
BLACK
6
CONTINUOUS
10
0.277302
20
0.651279
11
0.277409
21
0.651204
0
LINE
8
BLACK
6
CONTINUOUS
10
0.277409
20
0.651204
11
0.277443
21
0.651077
0
LINE
8
BLACK
6
CONTINUOUS
10
0.277443
20
0.651077
11
0.277667
21
0.650758
0
LINE
8
BLACK
6
CONTINUOUS
10
0.277667
20
0.650758
11
0.277734
21
0.649994
0
LINE
8
BLACK
6
CONTINUOUS
10
0.277734
20
0.649994
11
0.277932
21
0.649253
0
LINE
8
BLACK
6
CONTINUOUS
10
0.277932
20
0.649253
11
0.277819
21
0.649012
0
LINE
8
BLACK
6
CONTINUOUS
10
0.277819
20
0.649012
11
0.277843
21
0.648746
0
LINE
8
BLACK
6
CONTINUOUS
10
0.277843
20
0.648746
11
0.277403
21
0.648118
0
LINE
8
BLACK
6
CONTINUOUS
10
0.277403
20
0.648118
11
0.277079
21
0.647422
0
LINE
8
BLACK
6
CONTINUOUS
10
0.277079
20
0.647422
11
0.275204
21
0.645548
0
LINE
8
BLACK
6
CONTINUOUS
10
0.275204
20
0.645548
11
0.274885
21
0.645324
0
LINE
8
BLACK
6
CONTINUOUS
10
0.274885
20
0.645324
11
0.274809
21
0.645217
0
LINE
8
BLACK
6
CONTINUOUS
10
0.274809
20
0.645217
11
0.274683
21
0.645183
0
LINE
8
BLACK
6
CONTINUOUS
10
0.274683
20
0.645183
11
0.274676
21
0.645178
0
LINE
8
BLACK
6
CONTINUOUS
10
0.274676
20
0.645178
11
0.274592
21
0.645078
0
LINE
8
BLACK
6
CONTINUOUS
10
0.274592
20
0.645078
11
0.274514
21
0.645065
0
LINE
8
BLACK
6
CONTINUOUS
10
0.274514
20
0.645065
11
0.274364
21
0.644959
0
LINE
8
BLACK
6
CONTINUOUS
10
0.274364
20
0.644959
11
0.273599
21
0.644893
0
LINE
8
BLACK
6
CONTINUOUS
10
0.273599
20
0.644893
11
0.272858
21
0.644694
0
LINE
8
BLACK
6
CONTINUOUS
10
0.272858
20
0.644694
11
0.272736
21
0.644751
0
LINE
8
BLACK
6
CONTINUOUS
10
0.272736
20
0.644751
11
0.272603
21
0.644728
0
LINE
8
BLACK
6
CONTINUOUS
10
0.272603
20
0.644728
11
0.272486
21
0.644795
0
LINE
8
BLACK
6
CONTINUOUS
10
0.272486
20
0.644795
11
0.272352
21
0.644783
0
LINE
8
BLACK
6
CONTINUOUS
10
0.272352
20
0.644783
11
0.271723
21
0.645224
0
LINE
8
BLACK
6
CONTINUOUS
10
0.271723
20
0.645224
11
0.271028
21
0.645548
0
LINE
8
BLACK
6
CONTINUOUS
10
0.271028
20
0.645548
11
0.269153
21
0.647422
0
LINE
8
BLACK
6
CONTINUOUS
10
0.269153
20
0.647422
11
0.26893
21
0.647741
0
LINE
8
BLACK
6
CONTINUOUS
10
0.26893
20
0.647741
11
0.268822
21
0.647817
0
LINE
8
BLACK
6
CONTINUOUS
10
0.268822
20
0.647817
11
0.268788
21
0.647943
0
LINE
8
BLACK
6
CONTINUOUS
10
0.268788
20
0.647943
11
0.268565
21
0.648262
0
LINE
8
BLACK
6
CONTINUOUS
10
0.268565
20
0.648262
11
0.268498
21
0.649027
0
LINE
8
BLACK
6
CONTINUOUS
10
0.268498
20
0.649027
11
0.2683
21
0.649768
0
LINE
8
BLACK
6
CONTINUOUS
10
0.2683
20
0.649768
11
0.268412
21
0.650009
0
LINE
8
BLACK
6
CONTINUOUS
10
0.268412
20
0.650009
11
0.268389
21
0.650275
0
LINE
8
BLACK
6
CONTINUOUS
10
0.268389
20
0.650275
11
0.268829
21
0.650903
0
LINE
8
BLACK
6
CONTINUOUS
10
0.268829
20
0.650903
11
0.269153
21
0.651598
0
LINE
8
BLACK
6
CONTINUOUS
10
0.269153
20
0.651598
11
0.271028
21
0.653473
0
LINE
8
BLACK
6
CONTINUOUS
10
0.271028
20
0.653473
11
0.271347
21
0.653696
0
LINE
8
BLACK
6
CONTINUOUS
10
0.271347
20
0.653696
11
0.271422
21
0.653804
0
LINE
8
BLACK
6
CONTINUOUS
10
0.271422
20
0.653804
11
0.271549
21
0.653838
0
LINE
8
BLACK
6
CONTINUOUS
10
0.271549
20
0.653838
11
0.271556
21
0.653843
0
LINE
8
BLACK
6
CONTINUOUS
10
0.271556
20
0.653843
11
0.271639
21
0.653942
0
LINE
8
BLACK
6
CONTINUOUS
10
0.271639
20
0.653942
11
0.271718
21
0.653956
0
LINE
8
BLACK
6
CONTINUOUS
10
0.271718
20
0.653956
11
0.271868
21
0.654061
0
LINE
8
BLACK
6
CONTINUOUS
10
0.271868
20
0.654061
11
0.272632
21
0.654128
0
LINE
8
BLACK
6
CONTINUOUS
10
0.272632
20
0.654128
11
0.273373
21
0.654327
0
LINE
8
BLACK
6
CONTINUOUS
10
0.273373
20
0.654327
11
0.273495
21
0.65427
0
LINE
8
BLACK
6
CONTINUOUS
10
0.184131
20
0.718323
11
0.184405
21
0.718303
0
LINE
8
BLACK
6
CONTINUOUS
10
0.184405
20
0.718303
11
0.185905
21
0.717553
0
LINE
8
BLACK
6
CONTINUOUS
10
0.185905
20
0.717553
11
0.186032
21
0.717407
0
LINE
8
BLACK
6
CONTINUOUS
10
0.186032
20
0.717407
11
0.186212
21
0.717332
0
LINE
8
BLACK
6
CONTINUOUS
10
0.186212
20
0.717332
11
0.186962
21
0.716582
0
LINE
8
BLACK
6
CONTINUOUS
10
0.186962
20
0.716582
11
0.187308
21
0.715747
0
LINE
8
BLACK
6
CONTINUOUS
10
0.187308
20
0.715747
11
0.186962
21
0.714912
0
LINE
8
BLACK
6
CONTINUOUS
10
0.186962
20
0.714912
11
0.186127
21
0.714566
0
LINE
8
BLACK
6
CONTINUOUS
10
0.186127
20
0.714566
11
0.185292
21
0.714912
0
LINE
8
BLACK
6
CONTINUOUS
10
0.185292
20
0.714912
11
0.184677
21
0.715526
0
LINE
8
BLACK
6
CONTINUOUS
10
0.184677
20
0.715526
11
0.183598
21
0.716066
0
LINE
8
BLACK
6
CONTINUOUS
10
0.183598
20
0.716066
11
0.180406
21
0.716066
0
LINE
8
BLACK
6
CONTINUOUS
10
0.180406
20
0.716066
11
0.179327
21
0.715526
0
LINE
8
BLACK
6
CONTINUOUS
10
0.179327
20
0.715526
11
0.178848
21
0.715048
0
LINE
8
BLACK
6
CONTINUOUS
10
0.178848
20
0.715048
11
0.178309
21
0.713969
0
LINE
8
BLACK
6
CONTINUOUS
10
0.178309
20
0.713969
11
0.178309
21
0.712939
0
LINE
8
BLACK
6
CONTINUOUS
10
0.178309
20
0.712939
11
0.17891
21
0.711136
0
LINE
8
BLACK
6
CONTINUOUS
10
0.17891
20
0.711136
11
0.187712
21
0.702334
0
LINE
8
BLACK
6
CONTINUOUS
10
0.187712
20
0.702334
11
0.188058
21
0.701499
0
LINE
8
BLACK
6
CONTINUOUS
10
0.188058
20
0.701499
11
0.187712
21
0.700664
0
LINE
8
BLACK
6
CONTINUOUS
10
0.187712
20
0.700664
11
0.186877
21
0.700318
0
LINE
8
BLACK
6
CONTINUOUS
10
0.186877
20
0.700318
11
0.177128
21
0.700318
0
LINE
8
BLACK
6
CONTINUOUS
10
0.177128
20
0.700318
11
0.176293
21
0.700664
0
LINE
8
BLACK
6
CONTINUOUS
10
0.176293
20
0.700664
11
0.175947
21
0.701499
0
LINE
8
BLACK
6
CONTINUOUS
10
0.175947
20
0.701499
11
0.176293
21
0.702334
0
LINE
8
BLACK
6
CONTINUOUS
10
0.176293
20
0.702334
11
0.177128
21
0.70268
0
LINE
8
BLACK
6
CONTINUOUS
10
0.177128
20
0.70268
11
0.184025
21
0.70268
0
LINE
8
BLACK
6
CONTINUOUS
10
0.184025
20
0.70268
11
0.177043
21
0.709663
0
LINE
8
BLACK
6
CONTINUOUS
10
0.177043
20
0.709663
11
0.176937
21
0.709917
0
LINE
8
BLACK
6
CONTINUOUS
10
0.176937
20
0.709917
11
0.176757
21
0.710124
0
LINE
8
BLACK
6
CONTINUOUS
10
0.176757
20
0.710124
11
0.176007
21
0.712374
0
LINE
8
BLACK
6
CONTINUOUS
10
0.176007
20
0.712374
11
0.176021
21
0.712568
0
LINE
8
BLACK
6
CONTINUOUS
10
0.176021
20
0.712568
11
0.175947
21
0.712748
0
LINE
8
BLACK
6
CONTINUOUS
10
0.175947
20
0.712748
11
0.175947
21
0.714247
0
LINE
8
BLACK
6
CONTINUOUS
10
0.175947
20
0.714247
11
0.176052
21
0.714501
0
LINE
8
BLACK
6
CONTINUOUS
10
0.176052
20
0.714501
11
0.176071
21
0.714776
0
LINE
8
BLACK
6
CONTINUOUS
10
0.176071
20
0.714776
11
0.176821
21
0.716275
0
LINE
8
BLACK
6
CONTINUOUS
10
0.176821
20
0.716275
11
0.176968
21
0.716403
0
LINE
8
BLACK
6
CONTINUOUS
10
0.176968
20
0.716403
11
0.177043
21
0.716582
0
LINE
8
BLACK
6
CONTINUOUS
10
0.177043
20
0.716582
11
0.177792
21
0.717332
0
LINE
8
BLACK
6
CONTINUOUS
10
0.177792
20
0.717332
11
0.177972
21
0.717407
0
LINE
8
BLACK
6
CONTINUOUS
10
0.177972
20
0.717407
11
0.178099
21
0.717553
0
LINE
8
BLACK
6
CONTINUOUS
10
0.178099
20
0.717553
11
0.179599
21
0.718303
0
LINE
8
BLACK
6
CONTINUOUS
10
0.179599
20
0.718303
11
0.179873
21
0.718323
0
LINE
8
BLACK
6
CONTINUOUS
10
0.179873
20
0.718323
11
0.180127
21
0.718428
0
LINE
8
BLACK
6
CONTINUOUS
10
0.180127
20
0.718428
11
0.183877
21
0.718428
0
LINE
8
BLACK
6
CONTINUOUS
10
0.183877
20
0.718428
11
0.184131
21
0.718323
0
LINE
8
BLACK
6
CONTINUOUS
10
0.20196
20
0.718082
11
0.202306
21
0.717247
0
LINE
8
BLACK
6
CONTINUOUS
10
0.202306
20
0.717247
11
0.202306
21
0.701499
0
LINE
8
BLACK
6
CONTINUOUS
10
0.202306
20
0.701499
11
0.20196
21
0.700664
0
LINE
8
BLACK
6
CONTINUOUS
10
0.20196
20
0.700664
11
0.201125
21
0.700318
0
LINE
8
BLACK
6
CONTINUOUS
10
0.201125
20
0.700318
11
0.197375
21
0.700318
0
LINE
8
BLACK
6
CONTINUOUS
10
0.197375
20
0.700318
11
0.197196
21
0.700392
0
LINE
8
BLACK
6
CONTINUOUS
10
0.197196
20
0.700392
11
0.197002
21
0.700378
0
LINE
8
BLACK
6
CONTINUOUS
10
0.197002
20
0.700378
11
0.194752
21
0.701128
0
LINE
8
BLACK
6
CONTINUOUS
10
0.194752
20
0.701128
11
0.194544
21
0.701308
0
LINE
8
BLACK
6
CONTINUOUS
10
0.194544
20
0.701308
11
0.19429
21
0.701414
0
LINE
8
BLACK
6
CONTINUOUS
10
0.19429
20
0.701414
11
0.192791
21
0.702914
0
LINE
8
BLACK
6
CONTINUOUS
10
0.192791
20
0.702914
11
0.192716
21
0.703093
0
LINE
8
BLACK
6
CONTINUOUS
10
0.192716
20
0.703093
11
0.192569
21
0.70322
0
LINE
8
BLACK
6
CONTINUOUS
10
0.192569
20
0.70322
11
0.191819
21
0.70472
0
LINE
8
BLACK
6
CONTINUOUS
10
0.191819
20
0.70472
11
0.19181
21
0.704854
0
LINE
8
BLACK
6
CONTINUOUS
10
0.19181
20
0.704854
11
0.19173
21
0.704962
0
LINE
8
BLACK
6
CONTINUOUS
10
0.19173
20
0.704962
11
0.19098
21
0.707962
0
LINE
8
BLACK
6
CONTINUOUS
10
0.19098
20
0.707962
11
0.191002
21
0.70811
0
LINE
8
BLACK
6
CONTINUOUS
10
0.191002
20
0.70811
11
0.190945
21
0.708248
0
LINE
8
BLACK
6
CONTINUOUS
10
0.190945
20
0.708248
11
0.190945
21
0.710498
0
LINE
8
BLACK
6
CONTINUOUS
10
0.190945
20
0.710498
11
0.191002
21
0.710636
0
LINE
8
BLACK
6
CONTINUOUS
10
0.191002
20
0.710636
11
0.19098
21
0.710784
0
LINE
8
BLACK
6
CONTINUOUS
10
0.19098
20
0.710784
11
0.19173
21
0.713784
0
LINE
8
BLACK
6
CONTINUOUS
10
0.19173
20
0.713784
11
0.19181
21
0.713892
0
LINE
8
BLACK
6
CONTINUOUS
10
0.19181
20
0.713892
11
0.191819
21
0.714026
0
LINE
8
BLACK
6
CONTINUOUS
10
0.191819
20
0.714026
11
0.192569
21
0.715525
0
LINE
8
BLACK
6
CONTINUOUS
10
0.192569
20
0.715525
11
0.192716
21
0.715653
0
LINE
8
BLACK
6
CONTINUOUS
10
0.192716
20
0.715653
11
0.192791
21
0.715832
0
LINE
8
BLACK
6
CONTINUOUS
10
0.192791
20
0.715832
11
0.19429
21
0.717332
0
LINE
8
BLACK
6
CONTINUOUS
10
0.19429
20
0.717332
11
0.194544
21
0.717437
0
LINE
8
BLACK
6
CONTINUOUS
10
0.194544
20
0.717437
11
0.194752
21
0.717618
0
LINE
8
BLACK
6
CONTINUOUS
10
0.194752
20
0.717618
11
0.197002
21
0.718367
0
LINE
8
BLACK
6
CONTINUOUS
10
0.197002
20
0.718367
11
0.197196
21
0.718354
0
LINE
8
BLACK
6
CONTINUOUS
10
0.197196
20
0.718354
11
0.197375
21
0.718428
0
LINE
8
BLACK
6
CONTINUOUS
10
0.197375
20
0.718428
11
0.201125
21
0.718428
0
LINE
8
BLACK
6
CONTINUOUS
10
0.201125
20
0.718428
11
0.20196
21
0.718082
0
LINE
8
BLACK
6
CONTINUOUS
10
0.195764
20
0.715465
11
0.194596
21
0.714298
0
LINE
8
BLACK
6
CONTINUOUS
10
0.194596
20
0.714298
11
0.19399
21
0.713085
0
LINE
8
BLACK
6
CONTINUOUS
10
0.19399
20
0.713085
11
0.193307
21
0.710352
0
LINE
8
BLACK
6
CONTINUOUS
10
0.193307
20
0.710352
11
0.193307
21
0.708393
0
LINE
8
BLACK
6
CONTINUOUS
10
0.193307
20
0.708393
11
0.19399
21
0.705661
0
LINE
8
BLACK
6
CONTINUOUS
10
0.19399
20
0.705661
11
0.194596
21
0.704448
0
LINE
8
BLACK
6
CONTINUOUS
10
0.194596
20
0.704448
11
0.195764
21
0.703281
0
LINE
8
BLACK
6
CONTINUOUS
10
0.195764
20
0.703281
11
0.197567
21
0.70268
0
LINE
8
BLACK
6
CONTINUOUS
10
0.197567
20
0.70268
11
0.199944
21
0.70268
0
LINE
8
BLACK
6
CONTINUOUS
10
0.199944
20
0.70268
11
0.199944
21
0.716066
0
LINE
8
BLACK
6
CONTINUOUS
10
0.199944
20
0.716066
11
0.197567
21
0.716066
0
LINE
8
BLACK
6
CONTINUOUS
10
0.197567
20
0.716066
11
0.195764
21
0.715465
0
LINE
8
BLACK
6
CONTINUOUS
10
0.209459
20
0.718082
11
0.209805
21
0.717247
0
LINE
8
BLACK
6
CONTINUOUS
10
0.209805
20
0.717247
11
0.209805
21
0.701499
0
LINE
8
BLACK
6
CONTINUOUS
10
0.209805
20
0.701499
11
0.209459
21
0.700664
0
LINE
8
BLACK
6
CONTINUOUS
10
0.209459
20
0.700664
11
0.208624
21
0.700318
0
LINE
8
BLACK
6
CONTINUOUS
10
0.208624
20
0.700318
11
0.207789
21
0.700664
0
LINE
8
BLACK
6
CONTINUOUS
10
0.207789
20
0.700664
11
0.207443
21
0.701499
0
LINE
8
BLACK
6
CONTINUOUS
10
0.207443
20
0.701499
11
0.207443
21
0.717247
0
LINE
8
BLACK
6
CONTINUOUS
10
0.207443
20
0.717247
11
0.207789
21
0.718082
0
LINE
8
BLACK
6
CONTINUOUS
10
0.207789
20
0.718082
11
0.208624
21
0.718428
0
LINE
8
BLACK
6
CONTINUOUS
10
0.208624
20
0.718428
11
0.209459
21
0.718082
0
LINE
8
BLACK
6
CONTINUOUS
10
0.222957
20
0.718082
11
0.223303
21
0.717247
0
LINE
8
BLACK
6
CONTINUOUS
10
0.223303
20
0.717247
11
0.223303
21
0.701499
0
LINE
8
BLACK
6
CONTINUOUS
10
0.223303
20
0.701499
11
0.222957
21
0.700664
0
LINE
8
BLACK
6
CONTINUOUS
10
0.222957
20
0.700664
11
0.222122
21
0.700318
0
LINE
8
BLACK
6
CONTINUOUS
10
0.222122
20
0.700318
11
0.221287
21
0.700664
0
LINE
8
BLACK
6
CONTINUOUS
10
0.221287
20
0.700664
11
0.220941
21
0.701499
0
LINE
8
BLACK
6
CONTINUOUS
10
0.220941
20
0.701499
11
0.220941
21
0.708567
0
LINE
8
BLACK
6
CONTINUOUS
10
0.220941
20
0.708567
11
0.216873
21
0.708567
0
LINE
8
BLACK
6
CONTINUOUS
10
0.216873
20
0.708567
11
0.216038
21
0.708913
0
LINE
8
BLACK
6
CONTINUOUS
10
0.216038
20
0.708913
11
0.215692
21
0.709748
0
LINE
8
BLACK
6
CONTINUOUS
10
0.215692
20
0.709748
11
0.216038
21
0.710583
0
LINE
8
BLACK
6
CONTINUOUS
10
0.216038
20
0.710583
11
0.216873
21
0.710929
0
LINE
8
BLACK
6
CONTINUOUS
10
0.216873
20
0.710929
11
0.220941
21
0.710929
0
LINE
8
BLACK
6
CONTINUOUS
10
0.220941
20
0.710929
11
0.220941
21
0.716066
0
LINE
8
BLACK
6
CONTINUOUS
10
0.220941
20
0.716066
11
0.214623
21
0.716066
0
LINE
8
BLACK
6
CONTINUOUS
10
0.214623
20
0.716066
11
0.213788
21
0.716412
0
LINE
8
BLACK
6
CONTINUOUS
10
0.213788
20
0.716412
11
0.213442
21
0.717247
0
LINE
8
BLACK
6
CONTINUOUS
10
0.213442
20
0.717247
11
0.213788
21
0.718082
0
LINE
8
BLACK
6
CONTINUOUS
10
0.213788
20
0.718082
11
0.214623
21
0.718428
0
LINE
8
BLACK
6
CONTINUOUS
10
0.214623
20
0.718428
11
0.222122
21
0.718428
0
LINE
8
BLACK
6
CONTINUOUS
10
0.222122
20
0.718428
11
0.222957
21
0.718082
0
LINE
8
BLACK
6
CONTINUOUS
10
0.208065
20
0.749206
11
0.21582
21
0.746853
0
LINE
8
BLACK
6
CONTINUOUS
10
0.21582
20
0.746853
11
0.222966
21
0.743033
0
LINE
8
BLACK
6
CONTINUOUS
10
0.222966
20
0.743033
11
0.229231
21
0.737892
0
LINE
8
BLACK
6
CONTINUOUS
10
0.229231
20
0.737892
11
0.234372
21
0.731628
0
LINE
8
BLACK
6
CONTINUOUS
10
0.234372
20
0.731628
11
0.238192
21
0.724481
0
LINE
8
BLACK
6
CONTINUOUS
10
0.238192
20
0.724481
11
0.240544
21
0.716726
0
LINE
8
BLACK
6
CONTINUOUS
10
0.240544
20
0.716726
11
0.241339
21
0.708661
0
LINE
8
BLACK
6
CONTINUOUS
10
0.241339
20
0.708661
11
0.240544
21
0.700597
0
LINE
8
BLACK
6
CONTINUOUS
10
0.240544
20
0.700597
11
0.238192
21
0.692842
0
LINE
8
BLACK
6
CONTINUOUS
10
0.238192
20
0.692842
11
0.234372
21
0.685695
0
LINE
8
BLACK
6
CONTINUOUS
10
0.234372
20
0.685695
11
0.229231
21
0.679431
0
LINE
8
BLACK
6
CONTINUOUS
10
0.229231
20
0.679431
11
0.222966
21
0.67429
0
LINE
8
BLACK
6
CONTINUOUS
10
0.222966
20
0.67429
11
0.21582
21
0.67047
0
LINE
8
BLACK
6
CONTINUOUS
10
0.21582
20
0.67047
11
0.208065
21
0.668117
0
LINE
8
BLACK
6
CONTINUOUS
10
0.208065
20
0.668117
11
0.2
21
0.667323
0
LINE
8
BLACK
6
CONTINUOUS
10
0.2
20
0.667323
11
0.191935
21
0.668117
0
LINE
8
BLACK
6
CONTINUOUS
10
0.191935
20
0.668117
11
0.18418
21
0.67047
0
LINE
8
BLACK
6
CONTINUOUS
10
0.18418
20
0.67047
11
0.177034
21
0.67429
0
LINE
8
BLACK
6
CONTINUOUS
10
0.177034
20
0.67429
11
0.170769
21
0.679431
0
LINE
8
BLACK
6
CONTINUOUS
10
0.170769
20
0.679431
11
0.165628
21
0.685695
0
LINE
8
BLACK
6
CONTINUOUS
10
0.165628
20
0.685695
11
0.161808
21
0.692842
0
LINE
8
BLACK
6
CONTINUOUS
10
0.161808
20
0.692842
11
0.159456
21
0.700597
0
LINE
8
BLACK
6
CONTINUOUS
10
0.159456
20
0.700597
11
0.158661
21
0.708661
0
LINE
8
BLACK
6
CONTINUOUS
10
0.158661
20
0.708661
11
0.159456
21
0.716726
0
LINE
8
BLACK
6
CONTINUOUS
10
0.159456
20
0.716726
11
0.161808
21
0.724481
0
LINE
8
BLACK
6
CONTINUOUS
10
0.161808
20
0.724481
11
0.165628
21
0.731628
0
LINE
8
BLACK
6
CONTINUOUS
10
0.165628
20
0.731628
11
0.170769
21
0.737892
0
LINE
8
BLACK
6
CONTINUOUS
10
0.170769
20
0.737892
11
0.177034
21
0.743033
0
LINE
8
BLACK
6
CONTINUOUS
10
0.177034
20
0.743033
11
0.18418
21
0.746853
0
LINE
8
BLACK
6
CONTINUOUS
10
0.18418
20
0.746853
11
0.191935
21
0.749206
0
LINE
8
BLACK
6
CONTINUOUS
10
0.191935
20
0.749206
11
0.2
21
0.75
0
LINE
8
BLACK
6
CONTINUOUS
10
0.2
20
0.75
11
0.208065
21
0.749206
0
LINE
8
BLACK
6
CONTINUOUS
10
0.16314
20
0.701329
11
0.165278
21
0.694279
0
LINE
8
BLACK
6
CONTINUOUS
10
0.165278
20
0.694279
11
0.168751
21
0.687782
0
LINE
8
BLACK
6
CONTINUOUS
10
0.168751
20
0.687782
11
0.173425
21
0.682087
0
LINE
8
BLACK
6
CONTINUOUS
10
0.173425
20
0.682087
11
0.17912
21
0.677413
0
LINE
8
BLACK
6
CONTINUOUS
10
0.17912
20
0.677413
11
0.185618
21
0.67394
0
LINE
8
BLACK
6
CONTINUOUS
10
0.185618
20
0.67394
11
0.192668
21
0.671801
0
LINE
8
BLACK
6
CONTINUOUS
10
0.192668
20
0.671801
11
0.2
21
0.671079
0
LINE
8
BLACK
6
CONTINUOUS
10
0.2
20
0.671079
11
0.207332
21
0.671801
0
LINE
8
BLACK
6
CONTINUOUS
10
0.207332
20
0.671801
11
0.214382
21
0.67394
0
LINE
8
BLACK
6
CONTINUOUS
10
0.214382
20
0.67394
11
0.22088
21
0.677413
0
LINE
8
BLACK
6
CONTINUOUS
10
0.22088
20
0.677413
11
0.226575
21
0.682087
0
LINE
8
BLACK
6
CONTINUOUS
10
0.226575
20
0.682087
11
0.231249
21
0.687782
0
LINE
8
BLACK
6
CONTINUOUS
10
0.231249
20
0.687782
11
0.234722
21
0.694279
0
LINE
8
BLACK
6
CONTINUOUS
10
0.234722
20
0.694279
11
0.23686
21
0.701329
0
LINE
8
BLACK
6
CONTINUOUS
10
0.23686
20
0.701329
11
0.237583
21
0.708661
0
LINE
8
BLACK
6
CONTINUOUS
10
0.237583
20
0.708661
11
0.23686
21
0.715993
0
LINE
8
BLACK
6
CONTINUOUS
10
0.23686
20
0.715993
11
0.234722
21
0.723044
0
LINE
8
BLACK
6
CONTINUOUS
10
0.234722
20
0.723044
11
0.231249
21
0.729541
0
LINE
8
BLACK
6
CONTINUOUS
10
0.231249
20
0.729541
11
0.226575
21
0.735236
0
LINE
8
BLACK
6
CONTINUOUS
10
0.226575
20
0.735236
11
0.22088
21
0.73991
0
LINE
8
BLACK
6
CONTINUOUS
10
0.22088
20
0.73991
11
0.214382
21
0.743383
0
LINE
8
BLACK
6
CONTINUOUS
10
0.214382
20
0.743383
11
0.207332
21
0.745522
0
LINE
8
BLACK
6
CONTINUOUS
10
0.207332
20
0.745522
11
0.2
21
0.746244
0
LINE
8
BLACK
6
CONTINUOUS
10
0.2
20
0.746244
11
0.192668
21
0.745522
0
LINE
8
BLACK
6
CONTINUOUS
10
0.192668
20
0.745522
11
0.185618
21
0.743383
0
LINE
8
BLACK
6
CONTINUOUS
10
0.185618
20
0.743383
11
0.17912
21
0.73991
0
LINE
8
BLACK
6
CONTINUOUS
10
0.17912
20
0.73991
11
0.173425
21
0.735236
0
LINE
8
BLACK
6
CONTINUOUS
10
0.173425
20
0.735236
11
0.168751
21
0.729541
0
LINE
8
BLACK
6
CONTINUOUS
10
0.168751
20
0.729541
11
0.165278
21
0.723044
0
LINE
8
BLACK
6
CONTINUOUS
10
0.165278
20
0.723044
11
0.16314
21
0.715993
0
LINE
8
BLACK
6
CONTINUOUS
10
0.16314
20
0.715993
11
0.162417
21
0.708661
0
LINE
8
BLACK
6
CONTINUOUS
10
0.162417
20
0.708661
11
0.16314
21
0.701329
  0
ENDSEC
  0
EOF
