  0
SECTION
  2
HEADER
  9
$ANGBASE
  50
0.0
  9
$ANGDIR
  70
1
  9
$MEASUREMENT
  70
0
  0
ENDSEC
  0
SECTION
  2
TABLES
  0
TABLE
  2
LTYPE
  70
4
  0
LTYPE
  5
40F
  2
CONTINUOUS
  70
0
  3
Solid line
  72
65
  73
0
  40
0.0
  0
LTYPE
  5
410
  2
DASHDOT
 70
0
  3
Dash Dot ____ _ ____ _
 72
65
 73
4
 40
2.0
 49
1.25
 49
-0.25
 49
0.25
 49
-0.25
  0
LTYPE
  5
411
  2
DASHED
 70
0
  3
Dashed __ __ __ __ __
 72
65
 73
2
 40
0.75
 49
0.5
 49
-0.25
  0
LTYPE
  5
43B
  2
DOTTED
 70
0
  3
Dotted .  .  .  .
 72
65
 73
2
 40
0.2
 49
0.0
 49
-0.2
  0
ENDTAB
  0
TABLE
  2
STYLE
  70
4
  0
STYLE
  2
KICAD
  70
0
  40
0
  41
1
  42
1
  50
0
  71
0
  3
isocp.shx
  0
STYLE
  2
KICADB
  70
0
  40
0
  41
1
  42
1
  50
0
  71
0
  3
isocp.shx
  0
STYLE
  2
KICADI
  70
0
  40
0
  41
1
  42
1
  50
15
  71
0
  3
isocp.shx
  0
STYLE
  2
KICADBI
  70
0
  40
0
  41
1
  42
1
  50
15
  71
0
  3
isocp.shx
  0
ENDTAB
  0
TABLE
  2
LAYER
  70
1
  0
LAYER
  2
BLACK
  70
0
  62
7
  6
CONTINUOUS
  0
ENDTAB
  0
ENDSEC
  0
SECTION
  2
ENTITIES
0
LINE
8
BLACK
6
CONTINUOUS
10
4.83081
20
-2.8323
11
4.83292
21
-2.83047
0
LINE
8
BLACK
6
CONTINUOUS
10
4.83292
20
-2.83047
11
4.83498
21
-2.83002
0
LINE
8
BLACK
6
CONTINUOUS
10
4.83498
20
-2.83002
11
5.96502
21
-2.83002
0
LINE
8
BLACK
6
CONTINUOUS
10
5.96502
20
-2.83002
11
5.9677
21
-2.83081
0
LINE
8
BLACK
6
CONTINUOUS
10
5.9677
20
-2.83081
11
5.96953
21
-2.83292
0
LINE
8
BLACK
6
CONTINUOUS
10
5.96953
20
-2.83292
11
5.96998
21
-2.83498
0
LINE
8
BLACK
6
CONTINUOUS
10
5.96998
20
-2.83498
11
5.96998
21
-3.96502
0
LINE
8
BLACK
6
CONTINUOUS
10
5.96998
20
-3.96502
11
5.96919
21
-3.9677
0
LINE
8
BLACK
6
CONTINUOUS
10
5.96919
20
-3.9677
11
5.96708
21
-3.96953
0
LINE
8
BLACK
6
CONTINUOUS
10
5.96708
20
-3.96953
11
5.96502
21
-3.96998
0
LINE
8
BLACK
6
CONTINUOUS
10
5.96502
20
-3.96998
11
4.83498
21
-3.96998
0
LINE
8
BLACK
6
CONTINUOUS
10
4.83498
20
-3.96998
11
4.8323
21
-3.96919
0
LINE
8
BLACK
6
CONTINUOUS
10
4.8323
20
-3.96919
11
4.83047
21
-3.96708
0
LINE
8
BLACK
6
CONTINUOUS
10
4.83047
20
-3.96708
11
4.83002
21
-3.96502
0
LINE
8
BLACK
6
CONTINUOUS
10
4.83002
20
-3.96502
11
4.83002
21
-2.83498
0
LINE
8
BLACK
6
CONTINUOUS
10
4.83002
20
-2.83498
11
4.83081
21
-2.8323
0
LINE
8
BLACK
6
CONTINUOUS
10
5.86023
20
-3.59993
11
5.86053
21
-3.6
0
LINE
8
BLACK
6
CONTINUOUS
10
5.86053
20
-3.6
11
5.88176
21
-3.6
0
LINE
8
BLACK
6
CONTINUOUS
10
5.88176
20
-3.6
11
5.88203
21
-3.59999
0
LINE
8
BLACK
6
CONTINUOUS
10
5.88203
20
-3.59999
11
5.88403
21
-3.59977
0
LINE
8
BLACK
6
CONTINUOUS
10
5.88403
20
-3.59977
11
5.88463
21
-3.59963
0
LINE
8
BLACK
6
CONTINUOUS
10
5.88463
20
-3.59963
11
5.88937
21
-3.59785
0
LINE
8
BLACK
6
CONTINUOUS
10
5.88937
20
-3.59785
11
5.88999
21
-3.59751
0
LINE
8
BLACK
6
CONTINUOUS
10
5.88999
20
-3.59751
11
5.894
21
-3.5945
0
LINE
8
BLACK
6
CONTINUOUS
10
5.894
20
-3.5945
11
5.8945
21
-3.594
0
LINE
8
BLACK
6
CONTINUOUS
10
5.8945
20
-3.594
11
5.89751
21
-3.58999
0
LINE
8
BLACK
6
CONTINUOUS
10
5.89751
20
-3.58999
11
5.89785
21
-3.58937
0
LINE
8
BLACK
6
CONTINUOUS
10
5.89785
20
-3.58937
11
5.89963
21
-3.58463
0
LINE
8
BLACK
6
CONTINUOUS
10
5.89963
20
-3.58463
11
5.89977
21
-3.58403
0
LINE
8
BLACK
6
CONTINUOUS
10
5.89977
20
-3.58403
11
5.89999
21
-3.58203
0
LINE
8
BLACK
6
CONTINUOUS
10
5.89999
20
-3.58203
11
5.9
21
-3.58176
0
LINE
8
BLACK
6
CONTINUOUS
10
5.9
20
-3.58176
11
5.9
21
-3.56071
0
LINE
8
BLACK
6
CONTINUOUS
10
5.9
20
-3.56071
11
5.89982
21
-3.56011
0
LINE
8
BLACK
6
CONTINUOUS
10
5.89982
20
-3.56011
11
5.89977
21
-3.56007
0
LINE
8
BLACK
6
CONTINUOUS
10
5.89977
20
-3.56007
11
5.89947
21
-3.56
0
LINE
8
BLACK
6
CONTINUOUS
10
5.89947
20
-3.56
11
5.88
21
-3.56
0
LINE
8
BLACK
6
CONTINUOUS
10
5.88
20
-3.56
11
5.88
21
-3.58
0
LINE
8
BLACK
6
CONTINUOUS
10
5.88
20
-3.58
11
5.86
21
-3.58
0
LINE
8
BLACK
6
CONTINUOUS
10
5.86
20
-3.58
11
5.86
21
-3.59929
0
LINE
8
BLACK
6
CONTINUOUS
10
5.86
20
-3.59929
11
5.86018
21
-3.59989
0
LINE
8
BLACK
6
CONTINUOUS
10
5.86018
20
-3.59989
11
5.86023
21
-3.59993
0
LINE
8
BLACK
6
CONTINUOUS
10
5.88
20
-3.46
11
5.88
21
-3.48
0
LINE
8
BLACK
6
CONTINUOUS
10
5.88
20
-3.48
11
5.86
21
-3.48
0
LINE
8
BLACK
6
CONTINUOUS
10
5.86
20
-3.48
11
5.86
21
-3.52
0
LINE
8
BLACK
6
CONTINUOUS
10
5.86
20
-3.52
11
5.88
21
-3.52
0
LINE
8
BLACK
6
CONTINUOUS
10
5.88
20
-3.52
11
5.88
21
-3.54
0
LINE
8
BLACK
6
CONTINUOUS
10
5.88
20
-3.54
11
5.89929
21
-3.54
0
LINE
8
BLACK
6
CONTINUOUS
10
5.89929
20
-3.54
11
5.89989
21
-3.53982
0
LINE
8
BLACK
6
CONTINUOUS
10
5.89989
20
-3.53982
11
5.89993
21
-3.53977
0
LINE
8
BLACK
6
CONTINUOUS
10
5.89993
20
-3.53977
11
5.9
21
-3.53947
0
LINE
8
BLACK
6
CONTINUOUS
10
5.9
20
-3.53947
11
5.9
21
-3.51824
0
LINE
8
BLACK
6
CONTINUOUS
10
5.9
20
-3.51824
11
5.89999
21
-3.51797
0
LINE
8
BLACK
6
CONTINUOUS
10
5.89999
20
-3.51797
11
5.89977
21
-3.51597
0
LINE
8
BLACK
6
CONTINUOUS
10
5.89977
20
-3.51597
11
5.89963
21
-3.51537
0
LINE
8
BLACK
6
CONTINUOUS
10
5.89963
20
-3.51537
11
5.89785
21
-3.51063
0
LINE
8
BLACK
6
CONTINUOUS
10
5.89785
20
-3.51063
11
5.89751
21
-3.51001
0
LINE
8
BLACK
6
CONTINUOUS
10
5.89751
20
-3.51001
11
5.8945
21
-3.506
0
LINE
8
BLACK
6
CONTINUOUS
10
5.8945
20
-3.506
11
5.894
21
-3.5055
0
LINE
8
BLACK
6
CONTINUOUS
10
5.894
20
-3.5055
11
5.89196
21
-3.50397
0
LINE
8
BLACK
6
CONTINUOUS
10
5.89196
20
-3.50397
11
5.89029
21
-3.50173
0
LINE
8
BLACK
6
CONTINUOUS
10
5.89029
20
-3.50173
11
5.89009
21
-3.49894
0
LINE
8
BLACK
6
CONTINUOUS
10
5.89009
20
-3.49894
11
5.89143
21
-3.49649
0
LINE
8
BLACK
6
CONTINUOUS
10
5.89143
20
-3.49649
11
5.89196
21
-3.49603
0
LINE
8
BLACK
6
CONTINUOUS
10
5.89196
20
-3.49603
11
5.894
21
-3.4945
0
LINE
8
BLACK
6
CONTINUOUS
10
5.894
20
-3.4945
11
5.8945
21
-3.494
0
LINE
8
BLACK
6
CONTINUOUS
10
5.8945
20
-3.494
11
5.89751
21
-3.48999
0
LINE
8
BLACK
6
CONTINUOUS
10
5.89751
20
-3.48999
11
5.89785
21
-3.48937
0
LINE
8
BLACK
6
CONTINUOUS
10
5.89785
20
-3.48937
11
5.89963
21
-3.48463
0
LINE
8
BLACK
6
CONTINUOUS
10
5.89963
20
-3.48463
11
5.89977
21
-3.48403
0
LINE
8
BLACK
6
CONTINUOUS
10
5.89977
20
-3.48403
11
5.89999
21
-3.48203
0
LINE
8
BLACK
6
CONTINUOUS
10
5.89999
20
-3.48203
11
5.9
21
-3.48176
0
LINE
8
BLACK
6
CONTINUOUS
10
5.9
20
-3.48176
11
5.9
21
-3.46071
0
LINE
8
BLACK
6
CONTINUOUS
10
5.9
20
-3.46071
11
5.89982
21
-3.46011
0
LINE
8
BLACK
6
CONTINUOUS
10
5.89982
20
-3.46011
11
5.89977
21
-3.46007
0
LINE
8
BLACK
6
CONTINUOUS
10
5.89977
20
-3.46007
11
5.89947
21
-3.46
0
LINE
8
BLACK
6
CONTINUOUS
10
5.89947
20
-3.46
11
5.88
21
-3.46
0
LINE
8
BLACK
6
CONTINUOUS
10
4.96071
20
-3.25
11
4.96011
21
-3.25018
0
LINE
8
BLACK
6
CONTINUOUS
10
4.96011
20
-3.25018
11
4.96007
21
-3.25023
0
LINE
8
BLACK
6
CONTINUOUS
10
4.96007
20
-3.25023
11
4.96
21
-3.25053
0
LINE
8
BLACK
6
CONTINUOUS
10
4.96
20
-3.25053
11
4.96
21
-3.27
0
LINE
8
BLACK
6
CONTINUOUS
10
4.96
20
-3.27
11
4.98
21
-3.27
0
LINE
8
BLACK
6
CONTINUOUS
10
4.98
20
-3.27
11
4.98
21
-3.29
0
LINE
8
BLACK
6
CONTINUOUS
10
4.98
20
-3.29
11
5.02
21
-3.29
0
LINE
8
BLACK
6
CONTINUOUS
10
5.02
20
-3.29
11
5.02
21
-3.27
0
LINE
8
BLACK
6
CONTINUOUS
10
5.02
20
-3.27
11
5.04
21
-3.27
0
LINE
8
BLACK
6
CONTINUOUS
10
5.04
20
-3.27
11
5.04
21
-3.25071
0
LINE
8
BLACK
6
CONTINUOUS
10
5.04
20
-3.25071
11
5.03982
21
-3.25011
0
LINE
8
BLACK
6
CONTINUOUS
10
5.03982
20
-3.25011
11
5.03977
21
-3.25007
0
LINE
8
BLACK
6
CONTINUOUS
10
5.03977
20
-3.25007
11
5.03947
21
-3.25
0
LINE
8
BLACK
6
CONTINUOUS
10
5.03947
20
-3.25
11
5.01824
21
-3.25
0
LINE
8
BLACK
6
CONTINUOUS
10
5.01824
20
-3.25
11
5.01797
21
-3.25001
0
LINE
8
BLACK
6
CONTINUOUS
10
5.01797
20
-3.25001
11
5.01597
21
-3.25023
0
LINE
8
BLACK
6
CONTINUOUS
10
5.01597
20
-3.25023
11
5.01537
21
-3.25037
0
LINE
8
BLACK
6
CONTINUOUS
10
5.01537
20
-3.25037
11
5.01063
21
-3.25215
0
LINE
8
BLACK
6
CONTINUOUS
10
5.01063
20
-3.25215
11
5.01001
21
-3.25249
0
LINE
8
BLACK
6
CONTINUOUS
10
5.01001
20
-3.25249
11
5.006
21
-3.2555
0
LINE
8
BLACK
6
CONTINUOUS
10
5.006
20
-3.2555
11
5.0055
21
-3.256
0
LINE
8
BLACK
6
CONTINUOUS
10
5.0055
20
-3.256
11
5.00397
21
-3.25804
0
LINE
8
BLACK
6
CONTINUOUS
10
5.00397
20
-3.25804
11
5.00173
21
-3.25971
0
LINE
8
BLACK
6
CONTINUOUS
10
5.00173
20
-3.25971
11
4.99894
21
-3.25991
0
LINE
8
BLACK
6
CONTINUOUS
10
4.99894
20
-3.25991
11
4.99649
21
-3.25857
0
LINE
8
BLACK
6
CONTINUOUS
10
4.99649
20
-3.25857
11
4.99603
21
-3.25804
0
LINE
8
BLACK
6
CONTINUOUS
10
4.99603
20
-3.25804
11
4.9945
21
-3.256
0
LINE
8
BLACK
6
CONTINUOUS
10
4.9945
20
-3.256
11
4.994
21
-3.2555
0
LINE
8
BLACK
6
CONTINUOUS
10
4.994
20
-3.2555
11
4.98999
21
-3.25249
0
LINE
8
BLACK
6
CONTINUOUS
10
4.98999
20
-3.25249
11
4.98937
21
-3.25215
0
LINE
8
BLACK
6
CONTINUOUS
10
4.98937
20
-3.25215
11
4.98463
21
-3.25037
0
LINE
8
BLACK
6
CONTINUOUS
10
4.98463
20
-3.25037
11
4.98403
21
-3.25023
0
LINE
8
BLACK
6
CONTINUOUS
10
4.98403
20
-3.25023
11
4.98203
21
-3.25001
0
LINE
8
BLACK
6
CONTINUOUS
10
4.98203
20
-3.25001
11
4.98176
21
-3.25
0
LINE
8
BLACK
6
CONTINUOUS
10
4.98176
20
-3.25
11
4.96071
21
-3.25
0
LINE
8
BLACK
6
CONTINUOUS
10
5.48945
20
-3.01457
11
5.48885
21
-3.01474
0
LINE
8
BLACK
6
CONTINUOUS
10
5.48885
20
-3.01474
11
5.48881
21
-3.0148
0
LINE
8
BLACK
6
CONTINUOUS
10
5.48881
20
-3.0148
11
5.48874
21
-3.0151
0
LINE
8
BLACK
6
CONTINUOUS
10
5.48874
20
-3.0151
11
5.48874
21
-3.03457
0
LINE
8
BLACK
6
CONTINUOUS
10
5.48874
20
-3.03457
11
5.52795
21
-3.03457
0
LINE
8
BLACK
6
CONTINUOUS
10
5.52795
20
-3.03457
11
5.52795
21
-3.06
0
LINE
8
BLACK
6
CONTINUOUS
10
5.52795
20
-3.06
11
5.54724
21
-3.06
0
LINE
8
BLACK
6
CONTINUOUS
10
5.54724
20
-3.06
11
5.54784
21
-3.05982
0
LINE
8
BLACK
6
CONTINUOUS
10
5.54784
20
-3.05982
11
5.54789
21
-3.05977
0
LINE
8
BLACK
6
CONTINUOUS
10
5.54789
20
-3.05977
11
5.54795
21
-3.05947
0
LINE
8
BLACK
6
CONTINUOUS
10
5.54795
20
-3.05947
11
5.54795
21
-3.03281
0
LINE
8
BLACK
6
CONTINUOUS
10
5.54795
20
-3.03281
11
5.54794
21
-3.03254
0
LINE
8
BLACK
6
CONTINUOUS
10
5.54794
20
-3.03254
11
5.54772
21
-3.03054
0
LINE
8
BLACK
6
CONTINUOUS
10
5.54772
20
-3.03054
11
5.54758
21
-3.02994
0
LINE
8
BLACK
6
CONTINUOUS
10
5.54758
20
-3.02994
11
5.5458
21
-3.02519
0
LINE
8
BLACK
6
CONTINUOUS
10
5.5458
20
-3.02519
11
5.54546
21
-3.02458
0
LINE
8
BLACK
6
CONTINUOUS
10
5.54546
20
-3.02458
11
5.54245
21
-3.02056
0
LINE
8
BLACK
6
CONTINUOUS
10
5.54245
20
-3.02056
11
5.54196
21
-3.02007
0
LINE
8
BLACK
6
CONTINUOUS
10
5.54196
20
-3.02007
11
5.53794
21
-3.01706
0
LINE
8
BLACK
6
CONTINUOUS
10
5.53794
20
-3.01706
11
5.53732
21
-3.01672
0
LINE
8
BLACK
6
CONTINUOUS
10
5.53732
20
-3.01672
11
5.53258
21
-3.01494
0
LINE
8
BLACK
6
CONTINUOUS
10
5.53258
20
-3.01494
11
5.53198
21
-3.0148
0
LINE
8
BLACK
6
CONTINUOUS
10
5.53198
20
-3.0148
11
5.52998
21
-3.01458
0
LINE
8
BLACK
6
CONTINUOUS
10
5.52998
20
-3.01458
11
5.52971
21
-3.01457
0
LINE
8
BLACK
6
CONTINUOUS
10
5.52971
20
-3.01457
11
5.48945
21
-3.01457
0
LINE
8
BLACK
6
CONTINUOUS
10
4.96023
20
-3.54993
11
4.96053
21
-3.55
0
LINE
8
BLACK
6
CONTINUOUS
10
4.96053
20
-3.55
11
4.98176
21
-3.55
0
LINE
8
BLACK
6
CONTINUOUS
10
4.98176
20
-3.55
11
4.98203
21
-3.54999
0
LINE
8
BLACK
6
CONTINUOUS
10
4.98203
20
-3.54999
11
4.98403
21
-3.54977
0
LINE
8
BLACK
6
CONTINUOUS
10
4.98403
20
-3.54977
11
4.98463
21
-3.54963
0
LINE
8
BLACK
6
CONTINUOUS
10
4.98463
20
-3.54963
11
4.98937
21
-3.54785
0
LINE
8
BLACK
6
CONTINUOUS
10
4.98937
20
-3.54785
11
4.98999
21
-3.54751
0
LINE
8
BLACK
6
CONTINUOUS
10
4.98999
20
-3.54751
11
4.994
21
-3.5445
0
LINE
8
BLACK
6
CONTINUOUS
10
4.994
20
-3.5445
11
4.9945
21
-3.544
0
LINE
8
BLACK
6
CONTINUOUS
10
4.9945
20
-3.544
11
4.99603
21
-3.54196
0
LINE
8
BLACK
6
CONTINUOUS
10
4.99603
20
-3.54196
11
4.99827
21
-3.54029
0
LINE
8
BLACK
6
CONTINUOUS
10
4.99827
20
-3.54029
11
5.00106
21
-3.54009
0
LINE
8
BLACK
6
CONTINUOUS
10
5.00106
20
-3.54009
11
5.00351
21
-3.54143
0
LINE
8
BLACK
6
CONTINUOUS
10
5.00351
20
-3.54143
11
5.00397
21
-3.54196
0
LINE
8
BLACK
6
CONTINUOUS
10
5.00397
20
-3.54196
11
5.0055
21
-3.544
0
LINE
8
BLACK
6
CONTINUOUS
10
5.0055
20
-3.544
11
5.006
21
-3.5445
0
LINE
8
BLACK
6
CONTINUOUS
10
5.006
20
-3.5445
11
5.01001
21
-3.54751
0
LINE
8
BLACK
6
CONTINUOUS
10
5.01001
20
-3.54751
11
5.01063
21
-3.54785
0
LINE
8
BLACK
6
CONTINUOUS
10
5.01063
20
-3.54785
11
5.01537
21
-3.54963
0
LINE
8
BLACK
6
CONTINUOUS
10
5.01537
20
-3.54963
11
5.01597
21
-3.54977
0
LINE
8
BLACK
6
CONTINUOUS
10
5.01597
20
-3.54977
11
5.01797
21
-3.54999
0
LINE
8
BLACK
6
CONTINUOUS
10
5.01797
20
-3.54999
11
5.01824
21
-3.55
0
LINE
8
BLACK
6
CONTINUOUS
10
5.01824
20
-3.55
11
5.03929
21
-3.55
0
LINE
8
BLACK
6
CONTINUOUS
10
5.03929
20
-3.55
11
5.03989
21
-3.54982
0
LINE
8
BLACK
6
CONTINUOUS
10
5.03989
20
-3.54982
11
5.03993
21
-3.54977
0
LINE
8
BLACK
6
CONTINUOUS
10
5.03993
20
-3.54977
11
5.04
21
-3.54947
0
LINE
8
BLACK
6
CONTINUOUS
10
5.04
20
-3.54947
11
5.04
21
-3.53
0
LINE
8
BLACK
6
CONTINUOUS
10
5.04
20
-3.53
11
5.02
21
-3.53
0
LINE
8
BLACK
6
CONTINUOUS
10
5.02
20
-3.53
11
5.02
21
-3.51
0
LINE
8
BLACK
6
CONTINUOUS
10
5.02
20
-3.51
11
4.98
21
-3.51
0
LINE
8
BLACK
6
CONTINUOUS
10
4.98
20
-3.51
11
4.98
21
-3.53
0
LINE
8
BLACK
6
CONTINUOUS
10
4.98
20
-3.53
11
4.96
21
-3.53
0
LINE
8
BLACK
6
CONTINUOUS
10
4.96
20
-3.53
11
4.96
21
-3.54929
0
LINE
8
BLACK
6
CONTINUOUS
10
4.96
20
-3.54929
11
4.96018
21
-3.54989
0
LINE
8
BLACK
6
CONTINUOUS
10
4.96018
20
-3.54989
11
4.96023
21
-3.54993
0
LINE
8
BLACK
6
CONTINUOUS
10
4.92
20
-3.53
11
4.92
21
-3.51
0
LINE
8
BLACK
6
CONTINUOUS
10
4.92
20
-3.51
11
4.90071
21
-3.51
0
LINE
8
BLACK
6
CONTINUOUS
10
4.90071
20
-3.51
11
4.90011
21
-3.51018
0
LINE
8
BLACK
6
CONTINUOUS
10
4.90011
20
-3.51018
11
4.90007
21
-3.51023
0
LINE
8
BLACK
6
CONTINUOUS
10
4.90007
20
-3.51023
11
4.9
21
-3.51053
0
LINE
8
BLACK
6
CONTINUOUS
10
4.9
20
-3.51053
11
4.9
21
-3.53176
0
LINE
8
BLACK
6
CONTINUOUS
10
4.9
20
-3.53176
11
4.90001
21
-3.53203
0
LINE
8
BLACK
6
CONTINUOUS
10
4.90001
20
-3.53203
11
4.90023
21
-3.53403
0
LINE
8
BLACK
6
CONTINUOUS
10
4.90023
20
-3.53403
11
4.90037
21
-3.53463
0
LINE
8
BLACK
6
CONTINUOUS
10
4.90037
20
-3.53463
11
4.90215
21
-3.53937
0
LINE
8
BLACK
6
CONTINUOUS
10
4.90215
20
-3.53937
11
4.90249
21
-3.53999
0
LINE
8
BLACK
6
CONTINUOUS
10
4.90249
20
-3.53999
11
4.9055
21
-3.544
0
LINE
8
BLACK
6
CONTINUOUS
10
4.9055
20
-3.544
11
4.906
21
-3.5445
0
LINE
8
BLACK
6
CONTINUOUS
10
4.906
20
-3.5445
11
4.91001
21
-3.54751
0
LINE
8
BLACK
6
CONTINUOUS
10
4.91001
20
-3.54751
11
4.91063
21
-3.54785
0
LINE
8
BLACK
6
CONTINUOUS
10
4.91063
20
-3.54785
11
4.91537
21
-3.54963
0
LINE
8
BLACK
6
CONTINUOUS
10
4.91537
20
-3.54963
11
4.91597
21
-3.54977
0
LINE
8
BLACK
6
CONTINUOUS
10
4.91597
20
-3.54977
11
4.91797
21
-3.54999
0
LINE
8
BLACK
6
CONTINUOUS
10
4.91797
20
-3.54999
11
4.91824
21
-3.55
0
LINE
8
BLACK
6
CONTINUOUS
10
4.91824
20
-3.55
11
4.93929
21
-3.55
0
LINE
8
BLACK
6
CONTINUOUS
10
4.93929
20
-3.55
11
4.93989
21
-3.54982
0
LINE
8
BLACK
6
CONTINUOUS
10
4.93989
20
-3.54982
11
4.93993
21
-3.54977
0
LINE
8
BLACK
6
CONTINUOUS
10
4.93993
20
-3.54977
11
4.94
21
-3.54947
0
LINE
8
BLACK
6
CONTINUOUS
10
4.94
20
-3.54947
11
4.94
21
-3.53
0
LINE
8
BLACK
6
CONTINUOUS
10
4.94
20
-3.53
11
4.92
21
-3.53
0
LINE
8
BLACK
6
CONTINUOUS
10
5.48897
20
-3.12537
11
5.48927
21
-3.12543
0
LINE
8
BLACK
6
CONTINUOUS
10
5.48927
20
-3.12543
11
5.52971
21
-3.12543
0
LINE
8
BLACK
6
CONTINUOUS
10
5.52971
20
-3.12543
11
5.52998
21
-3.12542
0
LINE
8
BLACK
6
CONTINUOUS
10
5.52998
20
-3.12542
11
5.53198
21
-3.1252
0
LINE
8
BLACK
6
CONTINUOUS
10
5.53198
20
-3.1252
11
5.53258
21
-3.12506
0
LINE
8
BLACK
6
CONTINUOUS
10
5.53258
20
-3.12506
11
5.53732
21
-3.12328
0
LINE
8
BLACK
6
CONTINUOUS
10
5.53732
20
-3.12328
11
5.53794
21
-3.12294
0
LINE
8
BLACK
6
CONTINUOUS
10
5.53794
20
-3.12294
11
5.54196
21
-3.11993
0
LINE
8
BLACK
6
CONTINUOUS
10
5.54196
20
-3.11993
11
5.54245
21
-3.11944
0
LINE
8
BLACK
6
CONTINUOUS
10
5.54245
20
-3.11944
11
5.54546
21
-3.11542
0
LINE
8
BLACK
6
CONTINUOUS
10
5.54546
20
-3.11542
11
5.5458
21
-3.11481
0
LINE
8
BLACK
6
CONTINUOUS
10
5.5458
20
-3.11481
11
5.54758
21
-3.11006
0
LINE
8
BLACK
6
CONTINUOUS
10
5.54758
20
-3.11006
11
5.54772
21
-3.10946
0
LINE
8
BLACK
6
CONTINUOUS
10
5.54772
20
-3.10946
11
5.54794
21
-3.10746
0
LINE
8
BLACK
6
CONTINUOUS
10
5.54794
20
-3.10746
11
5.54795
21
-3.10719
0
LINE
8
BLACK
6
CONTINUOUS
10
5.54795
20
-3.10719
11
5.54795
21
-3.08071
0
LINE
8
BLACK
6
CONTINUOUS
10
5.54795
20
-3.08071
11
5.54778
21
-3.08011
0
LINE
8
BLACK
6
CONTINUOUS
10
5.54778
20
-3.08011
11
5.54772
21
-3.08007
0
LINE
8
BLACK
6
CONTINUOUS
10
5.54772
20
-3.08007
11
5.54742
21
-3.08
0
LINE
8
BLACK
6
CONTINUOUS
10
5.54742
20
-3.08
11
5.52795
21
-3.08
0
LINE
8
BLACK
6
CONTINUOUS
10
5.52795
20
-3.08
11
5.52795
21
-3.10543
0
LINE
8
BLACK
6
CONTINUOUS
10
5.52795
20
-3.10543
11
5.48874
21
-3.10543
0
LINE
8
BLACK
6
CONTINUOUS
10
5.48874
20
-3.10543
11
5.48874
21
-3.12472
0
LINE
8
BLACK
6
CONTINUOUS
10
5.48874
20
-3.12472
11
5.48892
21
-3.12532
0
LINE
8
BLACK
6
CONTINUOUS
10
5.48892
20
-3.12532
11
5.48897
21
-3.12537
0
LINE
8
BLACK
6
CONTINUOUS
10
4.90023
20
-3.28993
11
4.90053
21
-3.29
0
LINE
8
BLACK
6
CONTINUOUS
10
4.90053
20
-3.29
11
4.92
21
-3.29
0
LINE
8
BLACK
6
CONTINUOUS
10
4.92
20
-3.29
11
4.92
21
-3.27
0
LINE
8
BLACK
6
CONTINUOUS
10
4.92
20
-3.27
11
4.94
21
-3.27
0
LINE
8
BLACK
6
CONTINUOUS
10
4.94
20
-3.27
11
4.94
21
-3.25071
0
LINE
8
BLACK
6
CONTINUOUS
10
4.94
20
-3.25071
11
4.93982
21
-3.25011
0
LINE
8
BLACK
6
CONTINUOUS
10
4.93982
20
-3.25011
11
4.93977
21
-3.25007
0
LINE
8
BLACK
6
CONTINUOUS
10
4.93977
20
-3.25007
11
4.93947
21
-3.25
0
LINE
8
BLACK
6
CONTINUOUS
10
4.93947
20
-3.25
11
4.91824
21
-3.25
0
LINE
8
BLACK
6
CONTINUOUS
10
4.91824
20
-3.25
11
4.91797
21
-3.25001
0
LINE
8
BLACK
6
CONTINUOUS
10
4.91797
20
-3.25001
11
4.91597
21
-3.25023
0
LINE
8
BLACK
6
CONTINUOUS
10
4.91597
20
-3.25023
11
4.91537
21
-3.25037
0
LINE
8
BLACK
6
CONTINUOUS
10
4.91537
20
-3.25037
11
4.91063
21
-3.25215
0
LINE
8
BLACK
6
CONTINUOUS
10
4.91063
20
-3.25215
11
4.91001
21
-3.25249
0
LINE
8
BLACK
6
CONTINUOUS
10
4.91001
20
-3.25249
11
4.906
21
-3.2555
0
LINE
8
BLACK
6
CONTINUOUS
10
4.906
20
-3.2555
11
4.9055
21
-3.256
0
LINE
8
BLACK
6
CONTINUOUS
10
4.9055
20
-3.256
11
4.90249
21
-3.26001
0
LINE
8
BLACK
6
CONTINUOUS
10
4.90249
20
-3.26001
11
4.90215
21
-3.26063
0
LINE
8
BLACK
6
CONTINUOUS
10
4.90215
20
-3.26063
11
4.90037
21
-3.26537
0
LINE
8
BLACK
6
CONTINUOUS
10
4.90037
20
-3.26537
11
4.90023
21
-3.26597
0
LINE
8
BLACK
6
CONTINUOUS
10
4.90023
20
-3.26597
11
4.90001
21
-3.26797
0
LINE
8
BLACK
6
CONTINUOUS
10
4.90001
20
-3.26797
11
4.9
21
-3.26824
0
LINE
8
BLACK
6
CONTINUOUS
10
4.9
20
-3.26824
11
4.9
21
-3.28929
0
LINE
8
BLACK
6
CONTINUOUS
10
4.9
20
-3.28929
11
4.90018
21
-3.28989
0
LINE
8
BLACK
6
CONTINUOUS
10
4.90018
20
-3.28989
11
4.90023
21
-3.28993
0
LINE
8
BLACK
6
CONTINUOUS
10
5.42953
20
-3.10543
11
5.42953
21
-3.08
0
LINE
8
BLACK
6
CONTINUOUS
10
5.42953
20
-3.08
11
5.41024
21
-3.08
0
LINE
8
BLACK
6
CONTINUOUS
10
5.41024
20
-3.08
11
5.40964
21
-3.08018
0
LINE
8
BLACK
6
CONTINUOUS
10
5.40964
20
-3.08018
11
5.40959
21
-3.08023
0
LINE
8
BLACK
6
CONTINUOUS
10
5.40959
20
-3.08023
11
5.40953
21
-3.08053
0
LINE
8
BLACK
6
CONTINUOUS
10
5.40953
20
-3.08053
11
5.40953
21
-3.10719
0
LINE
8
BLACK
6
CONTINUOUS
10
5.40953
20
-3.10719
11
5.40954
21
-3.10746
0
LINE
8
BLACK
6
CONTINUOUS
10
5.40954
20
-3.10746
11
5.40976
21
-3.10946
0
LINE
8
BLACK
6
CONTINUOUS
10
5.40976
20
-3.10946
11
5.4099
21
-3.11006
0
LINE
8
BLACK
6
CONTINUOUS
10
5.4099
20
-3.11006
11
5.41168
21
-3.11481
0
LINE
8
BLACK
6
CONTINUOUS
10
5.41168
20
-3.11481
11
5.41202
21
-3.11542
0
LINE
8
BLACK
6
CONTINUOUS
10
5.41202
20
-3.11542
11
5.41503
21
-3.11944
0
LINE
8
BLACK
6
CONTINUOUS
10
5.41503
20
-3.11944
11
5.41552
21
-3.11993
0
LINE
8
BLACK
6
CONTINUOUS
10
5.41552
20
-3.11993
11
5.41954
21
-3.12294
0
LINE
8
BLACK
6
CONTINUOUS
10
5.41954
20
-3.12294
11
5.42016
21
-3.12328
0
LINE
8
BLACK
6
CONTINUOUS
10
5.42016
20
-3.12328
11
5.4249
21
-3.12506
0
LINE
8
BLACK
6
CONTINUOUS
10
5.4249
20
-3.12506
11
5.4255
21
-3.1252
0
LINE
8
BLACK
6
CONTINUOUS
10
5.4255
20
-3.1252
11
5.4275
21
-3.12542
0
LINE
8
BLACK
6
CONTINUOUS
10
5.4275
20
-3.12542
11
5.42777
21
-3.12543
0
LINE
8
BLACK
6
CONTINUOUS
10
5.42777
20
-3.12543
11
5.46803
21
-3.12543
0
LINE
8
BLACK
6
CONTINUOUS
10
5.46803
20
-3.12543
11
5.46863
21
-3.12526
0
LINE
8
BLACK
6
CONTINUOUS
10
5.46863
20
-3.12526
11
5.46867
21
-3.1252
0
LINE
8
BLACK
6
CONTINUOUS
10
5.46867
20
-3.1252
11
5.46874
21
-3.1249
0
LINE
8
BLACK
6
CONTINUOUS
10
5.46874
20
-3.1249
11
5.46874
21
-3.10543
0
LINE
8
BLACK
6
CONTINUOUS
10
5.46874
20
-3.10543
11
5.42953
21
-3.10543
0
LINE
8
BLACK
6
CONTINUOUS
10
5.40976
20
-3.05993
11
5.41006
21
-3.06
0
LINE
8
BLACK
6
CONTINUOUS
10
5.41006
20
-3.06
11
5.42953
21
-3.06
0
LINE
8
BLACK
6
CONTINUOUS
10
5.42953
20
-3.06
11
5.42953
21
-3.03457
0
LINE
8
BLACK
6
CONTINUOUS
10
5.42953
20
-3.03457
11
5.46874
21
-3.03457
0
LINE
8
BLACK
6
CONTINUOUS
10
5.46874
20
-3.03457
11
5.46874
21
-3.01528
0
LINE
8
BLACK
6
CONTINUOUS
10
5.46874
20
-3.01528
11
5.46856
21
-3.01468
0
LINE
8
BLACK
6
CONTINUOUS
10
5.46856
20
-3.01468
11
5.46851
21
-3.01463
0
LINE
8
BLACK
6
CONTINUOUS
10
5.46851
20
-3.01463
11
5.46821
21
-3.01457
0
LINE
8
BLACK
6
CONTINUOUS
10
5.46821
20
-3.01457
11
5.42777
21
-3.01457
0
LINE
8
BLACK
6
CONTINUOUS
10
5.42777
20
-3.01457
11
5.4275
21
-3.01458
0
LINE
8
BLACK
6
CONTINUOUS
10
5.4275
20
-3.01458
11
5.4255
21
-3.0148
0
LINE
8
BLACK
6
CONTINUOUS
10
5.4255
20
-3.0148
11
5.4249
21
-3.01494
0
LINE
8
BLACK
6
CONTINUOUS
10
5.4249
20
-3.01494
11
5.42016
21
-3.01672
0
LINE
8
BLACK
6
CONTINUOUS
10
5.42016
20
-3.01672
11
5.41954
21
-3.01706
0
LINE
8
BLACK
6
CONTINUOUS
10
5.41954
20
-3.01706
11
5.41552
21
-3.02007
0
LINE
8
BLACK
6
CONTINUOUS
10
5.41552
20
-3.02007
11
5.41503
21
-3.02056
0
LINE
8
BLACK
6
CONTINUOUS
10
5.41503
20
-3.02056
11
5.41202
21
-3.02458
0
LINE
8
BLACK
6
CONTINUOUS
10
5.41202
20
-3.02458
11
5.41168
21
-3.02519
0
LINE
8
BLACK
6
CONTINUOUS
10
5.41168
20
-3.02519
11
5.4099
21
-3.02994
0
LINE
8
BLACK
6
CONTINUOUS
10
5.4099
20
-3.02994
11
5.40976
21
-3.03054
0
LINE
8
BLACK
6
CONTINUOUS
10
5.40976
20
-3.03054
11
5.40954
21
-3.03254
0
LINE
8
BLACK
6
CONTINUOUS
10
5.40954
20
-3.03254
11
5.40953
21
-3.03281
0
LINE
8
BLACK
6
CONTINUOUS
10
5.40953
20
-3.03281
11
5.40953
21
-3.05929
0
LINE
8
BLACK
6
CONTINUOUS
10
5.40953
20
-3.05929
11
5.4097
21
-3.05989
0
LINE
8
BLACK
6
CONTINUOUS
10
5.4097
20
-3.05989
11
5.40976
21
-3.05993
0
LINE
8
BLACK
6
CONTINUOUS
10
4.90226
20
-3.43971
11
4.9057
21
-3.4443
0
LINE
8
BLACK
6
CONTINUOUS
10
4.9057
20
-3.4443
11
4.90802
21
-3.44604
0
LINE
8
BLACK
6
CONTINUOUS
10
4.90802
20
-3.44604
11
4.9097
21
-3.44828
0
LINE
8
BLACK
6
CONTINUOUS
10
4.9097
20
-3.44828
11
4.90989
21
-3.45107
0
LINE
8
BLACK
6
CONTINUOUS
10
4.90989
20
-3.45107
11
4.90855
21
-3.45352
0
LINE
8
BLACK
6
CONTINUOUS
10
4.90855
20
-3.45352
11
4.90802
21
-3.45398
0
LINE
8
BLACK
6
CONTINUOUS
10
4.90802
20
-3.45398
11
4.906
21
-3.4555
0
LINE
8
BLACK
6
CONTINUOUS
10
4.906
20
-3.4555
11
4.9055
21
-3.456
0
LINE
8
BLACK
6
CONTINUOUS
10
4.9055
20
-3.456
11
4.90249
21
-3.46001
0
LINE
8
BLACK
6
CONTINUOUS
10
4.90249
20
-3.46001
11
4.90215
21
-3.46063
0
LINE
8
BLACK
6
CONTINUOUS
10
4.90215
20
-3.46063
11
4.90037
21
-3.46537
0
LINE
8
BLACK
6
CONTINUOUS
10
4.90037
20
-3.46537
11
4.90023
21
-3.46597
0
LINE
8
BLACK
6
CONTINUOUS
10
4.90023
20
-3.46597
11
4.90001
21
-3.46797
0
LINE
8
BLACK
6
CONTINUOUS
10
4.90001
20
-3.46797
11
4.9
21
-3.46824
0
LINE
8
BLACK
6
CONTINUOUS
10
4.9
20
-3.46824
11
4.9
21
-3.48929
0
LINE
8
BLACK
6
CONTINUOUS
10
4.9
20
-3.48929
11
4.90018
21
-3.48989
0
LINE
8
BLACK
6
CONTINUOUS
10
4.90018
20
-3.48989
11
4.90023
21
-3.48993
0
LINE
8
BLACK
6
CONTINUOUS
10
4.90023
20
-3.48993
11
4.90053
21
-3.49
0
LINE
8
BLACK
6
CONTINUOUS
10
4.90053
20
-3.49
11
4.92
21
-3.49
0
LINE
8
BLACK
6
CONTINUOUS
10
4.92
20
-3.49
11
4.92
21
-3.47
0
LINE
8
BLACK
6
CONTINUOUS
10
4.92
20
-3.47
11
4.98
21
-3.47
0
LINE
8
BLACK
6
CONTINUOUS
10
4.98
20
-3.47
11
4.98
21
-3.49
0
LINE
8
BLACK
6
CONTINUOUS
10
4.98
20
-3.49
11
5.02
21
-3.49
0
LINE
8
BLACK
6
CONTINUOUS
10
5.02
20
-3.49
11
5.02
21
-3.47
0
LINE
8
BLACK
6
CONTINUOUS
10
5.02
20
-3.47
11
5.08
21
-3.47
0
LINE
8
BLACK
6
CONTINUOUS
10
5.08
20
-3.47
11
5.08
21
-3.53
0
LINE
8
BLACK
6
CONTINUOUS
10
5.08
20
-3.53
11
5.06
21
-3.53
0
LINE
8
BLACK
6
CONTINUOUS
10
5.06
20
-3.53
11
5.06
21
-3.54929
0
LINE
8
BLACK
6
CONTINUOUS
10
5.06
20
-3.54929
11
5.06018
21
-3.54989
0
LINE
8
BLACK
6
CONTINUOUS
10
5.06018
20
-3.54989
11
5.06023
21
-3.54993
0
LINE
8
BLACK
6
CONTINUOUS
10
5.06023
20
-3.54993
11
5.06053
21
-3.55
0
LINE
8
BLACK
6
CONTINUOUS
10
5.06053
20
-3.55
11
5.08176
21
-3.55
0
LINE
8
BLACK
6
CONTINUOUS
10
5.08176
20
-3.55
11
5.08203
21
-3.54999
0
LINE
8
BLACK
6
CONTINUOUS
10
5.08203
20
-3.54999
11
5.08403
21
-3.54977
0
LINE
8
BLACK
6
CONTINUOUS
10
5.08403
20
-3.54977
11
5.08463
21
-3.54963
0
LINE
8
BLACK
6
CONTINUOUS
10
5.08463
20
-3.54963
11
5.08937
21
-3.54785
0
LINE
8
BLACK
6
CONTINUOUS
10
5.08937
20
-3.54785
11
5.08999
21
-3.54751
0
LINE
8
BLACK
6
CONTINUOUS
10
5.08999
20
-3.54751
11
5.094
21
-3.5445
0
LINE
8
BLACK
6
CONTINUOUS
10
5.094
20
-3.5445
11
5.0945
21
-3.544
0
LINE
8
BLACK
6
CONTINUOUS
10
5.0945
20
-3.544
11
5.09751
21
-3.53999
0
LINE
8
BLACK
6
CONTINUOUS
10
5.09751
20
-3.53999
11
5.09785
21
-3.53937
0
LINE
8
BLACK
6
CONTINUOUS
10
5.09785
20
-3.53937
11
5.09963
21
-3.53463
0
LINE
8
BLACK
6
CONTINUOUS
10
5.09963
20
-3.53463
11
5.09977
21
-3.53403
0
LINE
8
BLACK
6
CONTINUOUS
10
5.09977
20
-3.53403
11
5.09999
21
-3.53203
0
LINE
8
BLACK
6
CONTINUOUS
10
5.09999
20
-3.53203
11
5.1
21
-3.53176
0
LINE
8
BLACK
6
CONTINUOUS
10
5.1
20
-3.53176
11
5.1
21
-3.50443
0
LINE
8
BLACK
6
CONTINUOUS
10
5.1
20
-3.50443
11
5.10079
21
-3.50175
0
LINE
8
BLACK
6
CONTINUOUS
10
5.10079
20
-3.50175
11
5.1029
21
-3.49992
0
LINE
8
BLACK
6
CONTINUOUS
10
5.1029
20
-3.49992
11
5.10567
21
-3.49952
0
LINE
8
BLACK
6
CONTINUOUS
10
5.10567
20
-3.49952
11
5.10821
21
-3.50068
0
LINE
8
BLACK
6
CONTINUOUS
10
5.10821
20
-3.50068
11
5.10847
21
-3.50092
0
LINE
8
BLACK
6
CONTINUOUS
10
5.10847
20
-3.50092
11
5.16853
21
-3.56098
0
LINE
8
BLACK
6
CONTINUOUS
10
5.16853
20
-3.56098
11
5.16987
21
-3.56343
0
LINE
8
BLACK
6
CONTINUOUS
10
5.16987
20
-3.56343
11
5.16998
21
-3.56449
0
LINE
8
BLACK
6
CONTINUOUS
10
5.16998
20
-3.56449
11
5.16998
21
-3.66735
0
LINE
8
BLACK
6
CONTINUOUS
10
5.16998
20
-3.66735
11
5.16992
21
-3.66809
0
LINE
8
BLACK
6
CONTINUOUS
10
5.16992
20
-3.66809
11
5.16984
21
-3.66866
0
LINE
8
BLACK
6
CONTINUOUS
10
5.16984
20
-3.66866
11
5.16984
21
-3.66866
0
LINE
8
BLACK
6
CONTINUOUS
10
5.16984
20
-3.66866
11
5.16979
21
-3.66895
0
LINE
8
BLACK
6
CONTINUOUS
10
5.16979
20
-3.66895
11
5.16982
21
-3.66923
0
LINE
8
BLACK
6
CONTINUOUS
10
5.16982
20
-3.66923
11
5.16982
21
-3.66923
0
LINE
8
BLACK
6
CONTINUOUS
10
5.16982
20
-3.66923
11
5.16996
21
-3.67103
0
LINE
8
BLACK
6
CONTINUOUS
10
5.16996
20
-3.67103
11
5.16998
21
-3.67143
0
LINE
8
BLACK
6
CONTINUOUS
10
5.16998
20
-3.67143
11
5.16998
21
-3.67175
0
LINE
8
BLACK
6
CONTINUOUS
10
5.16998
20
-3.67175
11
5.17011
21
-3.67287
0
LINE
8
BLACK
6
CONTINUOUS
10
5.17011
20
-3.67287
11
5.17013
21
-3.67304
0
LINE
8
BLACK
6
CONTINUOUS
10
5.17013
20
-3.67304
11
5.17036
21
-3.67592
0
LINE
8
BLACK
6
CONTINUOUS
10
5.17036
20
-3.67592
11
5.17045
21
-3.6762
0
LINE
8
BLACK
6
CONTINUOUS
10
5.17045
20
-3.6762
11
5.1705
21
-3.67643
0
LINE
8
BLACK
6
CONTINUOUS
10
5.1705
20
-3.67643
11
5.17055
21
-3.67667
0
LINE
8
BLACK
6
CONTINUOUS
10
5.17055
20
-3.67667
11
5.17059
21
-3.67695
0
LINE
8
BLACK
6
CONTINUOUS
10
5.17059
20
-3.67695
11
5.17068
21
-3.67722
0
LINE
8
BLACK
6
CONTINUOUS
10
5.17068
20
-3.67722
11
5.17068
21
-3.67722
0
LINE
8
BLACK
6
CONTINUOUS
10
5.17068
20
-3.67722
11
5.17157
21
-3.67967
0
LINE
8
BLACK
6
CONTINUOUS
10
5.17157
20
-3.67967
11
5.17163
21
-3.67983
0
LINE
8
BLACK
6
CONTINUOUS
10
5.17163
20
-3.67983
11
5.17252
21
-3.68258
0
LINE
8
BLACK
6
CONTINUOUS
10
5.17252
20
-3.68258
11
5.17267
21
-3.68283
0
LINE
8
BLACK
6
CONTINUOUS
10
5.17267
20
-3.68283
11
5.17277
21
-3.68305
0
LINE
8
BLACK
6
CONTINUOUS
10
5.17277
20
-3.68305
11
5.17288
21
-3.68326
0
LINE
8
BLACK
6
CONTINUOUS
10
5.17288
20
-3.68326
11
5.17298
21
-3.68353
0
LINE
8
BLACK
6
CONTINUOUS
10
5.17298
20
-3.68353
11
5.17313
21
-3.68377
0
LINE
8
BLACK
6
CONTINUOUS
10
5.17313
20
-3.68377
11
5.17456
21
-3.68595
0
LINE
8
BLACK
6
CONTINUOUS
10
5.17456
20
-3.68595
11
5.17465
21
-3.68609
0
LINE
8
BLACK
6
CONTINUOUS
10
5.17465
20
-3.68609
11
5.17615
21
-3.68857
0
LINE
8
BLACK
6
CONTINUOUS
10
5.17615
20
-3.68857
11
5.1763
21
-3.68873
0
LINE
8
BLACK
6
CONTINUOUS
10
5.1763
20
-3.68873
11
5.1763
21
-3.68873
0
LINE
8
BLACK
6
CONTINUOUS
10
5.1763
20
-3.68873
11
5.17644
21
-3.6889
0
LINE
8
BLACK
6
CONTINUOUS
10
5.17644
20
-3.6889
11
5.17644
21
-3.6889
0
LINE
8
BLACK
6
CONTINUOUS
10
5.17644
20
-3.6889
11
5.17654
21
-3.68901
0
LINE
8
BLACK
6
CONTINUOUS
10
5.17654
20
-3.68901
11
5.17666
21
-3.68915
0
LINE
8
BLACK
6
CONTINUOUS
10
5.17666
20
-3.68915
11
5.17681
21
-3.68939
0
LINE
8
BLACK
6
CONTINUOUS
10
5.17681
20
-3.68939
11
5.17702
21
-3.68959
0
LINE
8
BLACK
6
CONTINUOUS
10
5.17702
20
-3.68959
11
5.17904
21
-3.6915
0
LINE
8
BLACK
6
CONTINUOUS
10
5.17904
20
-3.6915
11
5.17913
21
-3.69159
0
LINE
8
BLACK
6
CONTINUOUS
10
5.17913
20
-3.69159
11
5.2569
21
-3.76935
0
LINE
8
BLACK
6
CONTINUOUS
10
5.2569
20
-3.76935
11
5.25738
21
-3.76992
0
LINE
8
BLACK
6
CONTINUOUS
10
5.25738
20
-3.76992
11
5.2579
21
-3.77061
0
LINE
8
BLACK
6
CONTINUOUS
10
5.2579
20
-3.77061
11
5.25812
21
-3.7708
0
LINE
8
BLACK
6
CONTINUOUS
10
5.25812
20
-3.7708
11
5.25949
21
-3.77197
0
LINE
8
BLACK
6
CONTINUOUS
10
5.25949
20
-3.77197
11
5.25979
21
-3.77224
0
LINE
8
BLACK
6
CONTINUOUS
10
5.25979
20
-3.77224
11
5.26001
21
-3.77247
0
LINE
8
BLACK
6
CONTINUOUS
10
5.26001
20
-3.77247
11
5.26013
21
-3.77256
0
LINE
8
BLACK
6
CONTINUOUS
10
5.26013
20
-3.77256
11
5.26013
21
-3.77256
0
LINE
8
BLACK
6
CONTINUOUS
10
5.26013
20
-3.77256
11
5.26089
21
-3.77316
0
LINE
8
BLACK
6
CONTINUOUS
10
5.26089
20
-3.77316
11
5.26103
21
-3.77327
0
LINE
8
BLACK
6
CONTINUOUS
10
5.26103
20
-3.77327
11
5.26301
21
-3.77496
0
LINE
8
BLACK
6
CONTINUOUS
10
5.26301
20
-3.77496
11
5.26301
21
-3.77496
0
LINE
8
BLACK
6
CONTINUOUS
10
5.26301
20
-3.77496
11
5.26323
21
-3.77515
0
LINE
8
BLACK
6
CONTINUOUS
10
5.26323
20
-3.77515
11
5.26349
21
-3.77528
0
LINE
8
BLACK
6
CONTINUOUS
10
5.26349
20
-3.77528
11
5.26369
21
-3.77541
0
LINE
8
BLACK
6
CONTINUOUS
10
5.26369
20
-3.77541
11
5.26389
21
-3.77554
0
LINE
8
BLACK
6
CONTINUOUS
10
5.26389
20
-3.77554
11
5.26412
21
-3.77571
0
LINE
8
BLACK
6
CONTINUOUS
10
5.26412
20
-3.77571
11
5.26438
21
-3.77584
0
LINE
8
BLACK
6
CONTINUOUS
10
5.26438
20
-3.77584
11
5.26674
21
-3.77694
0
LINE
8
BLACK
6
CONTINUOUS
10
5.26674
20
-3.77694
11
5.26689
21
-3.77701
0
LINE
8
BLACK
6
CONTINUOUS
10
5.26689
20
-3.77701
11
5.26946
21
-3.77833
0
LINE
8
BLACK
6
CONTINUOUS
10
5.26946
20
-3.77833
11
5.26974
21
-3.7784
0
LINE
8
BLACK
6
CONTINUOUS
10
5.26974
20
-3.7784
11
5.26997
21
-3.77848
0
LINE
8
BLACK
6
CONTINUOUS
10
5.26997
20
-3.77848
11
5.2702
21
-3.77856
0
LINE
8
BLACK
6
CONTINUOUS
10
5.2702
20
-3.77856
11
5.27046
21
-3.77868
0
LINE
8
BLACK
6
CONTINUOUS
10
5.27046
20
-3.77868
11
5.27329
21
-3.77927
0
LINE
8
BLACK
6
CONTINUOUS
10
5.27329
20
-3.77927
11
5.27346
21
-3.77931
0
LINE
8
BLACK
6
CONTINUOUS
10
5.27346
20
-3.77931
11
5.27626
21
-3.77999
0
LINE
8
BLACK
6
CONTINUOUS
10
5.27626
20
-3.77999
11
5.27648
21
-3.78001
0
LINE
8
BLACK
6
CONTINUOUS
10
5.27648
20
-3.78001
11
5.27648
21
-3.78001
0
LINE
8
BLACK
6
CONTINUOUS
10
5.27648
20
-3.78001
11
5.27671
21
-3.78002
0
LINE
8
BLACK
6
CONTINUOUS
10
5.27671
20
-3.78002
11
5.27671
21
-3.78002
0
LINE
8
BLACK
6
CONTINUOUS
10
5.27671
20
-3.78002
11
5.27686
21
-3.78003
0
LINE
8
BLACK
6
CONTINUOUS
10
5.27686
20
-3.78003
11
5.27703
21
-3.78005
0
LINE
8
BLACK
6
CONTINUOUS
10
5.27703
20
-3.78005
11
5.27731
21
-3.7801
0
LINE
8
BLACK
6
CONTINUOUS
10
5.27731
20
-3.7801
11
5.2776
21
-3.7801
0
LINE
8
BLACK
6
CONTINUOUS
10
5.2776
20
-3.7801
11
5.28038
21
-3.78002
0
LINE
8
BLACK
6
CONTINUOUS
10
5.28038
20
-3.78002
11
5.28051
21
-3.78002
0
LINE
8
BLACK
6
CONTINUOUS
10
5.28051
20
-3.78002
11
5.50735
21
-3.78002
0
LINE
8
BLACK
6
CONTINUOUS
10
5.50735
20
-3.78002
11
5.50809
21
-3.78008
0
LINE
8
BLACK
6
CONTINUOUS
10
5.50809
20
-3.78008
11
5.50866
21
-3.78016
0
LINE
8
BLACK
6
CONTINUOUS
10
5.50866
20
-3.78016
11
5.50866
21
-3.78016
0
LINE
8
BLACK
6
CONTINUOUS
10
5.50866
20
-3.78016
11
5.50895
21
-3.78021
0
LINE
8
BLACK
6
CONTINUOUS
10
5.50895
20
-3.78021
11
5.50923
21
-3.78018
0
LINE
8
BLACK
6
CONTINUOUS
10
5.50923
20
-3.78018
11
5.50923
21
-3.78018
0
LINE
8
BLACK
6
CONTINUOUS
10
5.50923
20
-3.78018
11
5.51103
21
-3.78004
0
LINE
8
BLACK
6
CONTINUOUS
10
5.51103
20
-3.78004
11
5.51143
21
-3.78002
0
LINE
8
BLACK
6
CONTINUOUS
10
5.51143
20
-3.78002
11
5.51175
21
-3.78002
0
LINE
8
BLACK
6
CONTINUOUS
10
5.51175
20
-3.78002
11
5.5119
21
-3.78
0
LINE
8
BLACK
6
CONTINUOUS
10
5.5119
20
-3.78
11
5.5119
21
-3.78
0
LINE
8
BLACK
6
CONTINUOUS
10
5.5119
20
-3.78
11
5.51203
21
-3.77999
0
LINE
8
BLACK
6
CONTINUOUS
10
5.51203
20
-3.77999
11
5.51287
21
-3.77989
0
LINE
8
BLACK
6
CONTINUOUS
10
5.51287
20
-3.77989
11
5.51304
21
-3.77987
0
LINE
8
BLACK
6
CONTINUOUS
10
5.51304
20
-3.77987
11
5.51592
21
-3.77964
0
LINE
8
BLACK
6
CONTINUOUS
10
5.51592
20
-3.77964
11
5.5162
21
-3.77955
0
LINE
8
BLACK
6
CONTINUOUS
10
5.5162
20
-3.77955
11
5.51643
21
-3.7795
0
LINE
8
BLACK
6
CONTINUOUS
10
5.51643
20
-3.7795
11
5.51667
21
-3.77945
0
LINE
8
BLACK
6
CONTINUOUS
10
5.51667
20
-3.77945
11
5.51695
21
-3.77941
0
LINE
8
BLACK
6
CONTINUOUS
10
5.51695
20
-3.77941
11
5.51722
21
-3.77932
0
LINE
8
BLACK
6
CONTINUOUS
10
5.51722
20
-3.77932
11
5.51722
21
-3.77932
0
LINE
8
BLACK
6
CONTINUOUS
10
5.51722
20
-3.77932
11
5.51967
21
-3.77843
0
LINE
8
BLACK
6
CONTINUOUS
10
5.51967
20
-3.77843
11
5.51983
21
-3.77837
0
LINE
8
BLACK
6
CONTINUOUS
10
5.51983
20
-3.77837
11
5.52258
21
-3.77748
0
LINE
8
BLACK
6
CONTINUOUS
10
5.52258
20
-3.77748
11
5.52283
21
-3.77733
0
LINE
8
BLACK
6
CONTINUOUS
10
5.52283
20
-3.77733
11
5.52305
21
-3.77723
0
LINE
8
BLACK
6
CONTINUOUS
10
5.52305
20
-3.77723
11
5.52326
21
-3.77712
0
LINE
8
BLACK
6
CONTINUOUS
10
5.52326
20
-3.77712
11
5.52353
21
-3.77702
0
LINE
8
BLACK
6
CONTINUOUS
10
5.52353
20
-3.77702
11
5.52595
21
-3.77544
0
LINE
8
BLACK
6
CONTINUOUS
10
5.52595
20
-3.77544
11
5.52609
21
-3.77535
0
LINE
8
BLACK
6
CONTINUOUS
10
5.52609
20
-3.77535
11
5.52857
21
-3.77385
0
LINE
8
BLACK
6
CONTINUOUS
10
5.52857
20
-3.77385
11
5.52873
21
-3.7737
0
LINE
8
BLACK
6
CONTINUOUS
10
5.52873
20
-3.7737
11
5.52873
21
-3.7737
0
LINE
8
BLACK
6
CONTINUOUS
10
5.52873
20
-3.7737
11
5.5289
21
-3.77356
0
LINE
8
BLACK
6
CONTINUOUS
10
5.5289
20
-3.77356
11
5.5289
21
-3.77356
0
LINE
8
BLACK
6
CONTINUOUS
10
5.5289
20
-3.77356
11
5.52901
21
-3.77346
0
LINE
8
BLACK
6
CONTINUOUS
10
5.52901
20
-3.77346
11
5.52915
21
-3.77334
0
LINE
8
BLACK
6
CONTINUOUS
10
5.52915
20
-3.77334
11
5.52939
21
-3.77319
0
LINE
8
BLACK
6
CONTINUOUS
10
5.52939
20
-3.77319
11
5.5315
21
-3.77096
0
LINE
8
BLACK
6
CONTINUOUS
10
5.5315
20
-3.77096
11
5.53159
21
-3.77087
0
LINE
8
BLACK
6
CONTINUOUS
10
5.53159
20
-3.77087
11
5.55675
21
-3.7457
0
LINE
8
BLACK
6
CONTINUOUS
10
5.55675
20
-3.7457
11
5.55732
21
-3.74521
0
LINE
8
BLACK
6
CONTINUOUS
10
5.55732
20
-3.74521
11
5.55778
21
-3.74487
0
LINE
8
BLACK
6
CONTINUOUS
10
5.55778
20
-3.74487
11
5.55801
21
-3.7447
0
LINE
8
BLACK
6
CONTINUOUS
10
5.55801
20
-3.7447
11
5.55937
21
-3.74311
0
LINE
8
BLACK
6
CONTINUOUS
10
5.55937
20
-3.74311
11
5.55964
21
-3.74281
0
LINE
8
BLACK
6
CONTINUOUS
10
5.55964
20
-3.74281
11
5.55987
21
-3.74259
0
LINE
8
BLACK
6
CONTINUOUS
10
5.55987
20
-3.74259
11
5.55996
21
-3.74247
0
LINE
8
BLACK
6
CONTINUOUS
10
5.55996
20
-3.74247
11
5.55996
21
-3.74247
0
LINE
8
BLACK
6
CONTINUOUS
10
5.55996
20
-3.74247
11
5.56057
21
-3.7417
0
LINE
8
BLACK
6
CONTINUOUS
10
5.56057
20
-3.7417
11
5.56068
21
-3.74157
0
LINE
8
BLACK
6
CONTINUOUS
10
5.56068
20
-3.74157
11
5.56236
21
-3.73959
0
LINE
8
BLACK
6
CONTINUOUS
10
5.56236
20
-3.73959
11
5.56236
21
-3.73959
0
LINE
8
BLACK
6
CONTINUOUS
10
5.56236
20
-3.73959
11
5.56255
21
-3.73937
0
LINE
8
BLACK
6
CONTINUOUS
10
5.56255
20
-3.73937
11
5.56268
21
-3.73911
0
LINE
8
BLACK
6
CONTINUOUS
10
5.56268
20
-3.73911
11
5.56281
21
-3.73891
0
LINE
8
BLACK
6
CONTINUOUS
10
5.56281
20
-3.73891
11
5.56294
21
-3.73871
0
LINE
8
BLACK
6
CONTINUOUS
10
5.56294
20
-3.73871
11
5.56312
21
-3.73848
0
LINE
8
BLACK
6
CONTINUOUS
10
5.56312
20
-3.73848
11
5.56434
21
-3.73586
0
LINE
8
BLACK
6
CONTINUOUS
10
5.56434
20
-3.73586
11
5.56442
21
-3.73571
0
LINE
8
BLACK
6
CONTINUOUS
10
5.56442
20
-3.73571
11
5.56573
21
-3.73313
0
LINE
8
BLACK
6
CONTINUOUS
10
5.56573
20
-3.73313
11
5.5658
21
-3.73285
0
LINE
8
BLACK
6
CONTINUOUS
10
5.5658
20
-3.73285
11
5.56588
21
-3.73263
0
LINE
8
BLACK
6
CONTINUOUS
10
5.56588
20
-3.73263
11
5.56596
21
-3.7324
0
LINE
8
BLACK
6
CONTINUOUS
10
5.56596
20
-3.7324
11
5.56608
21
-3.73214
0
LINE
8
BLACK
6
CONTINUOUS
10
5.56608
20
-3.73214
11
5.56667
21
-3.72931
0
LINE
8
BLACK
6
CONTINUOUS
10
5.56667
20
-3.72931
11
5.56671
21
-3.72914
0
LINE
8
BLACK
6
CONTINUOUS
10
5.56671
20
-3.72914
11
5.56734
21
-3.72655
0
LINE
8
BLACK
6
CONTINUOUS
10
5.56734
20
-3.72655
11
5.56739
21
-3.72633
0
LINE
8
BLACK
6
CONTINUOUS
10
5.56739
20
-3.72633
11
5.56742
21
-3.72589
0
LINE
8
BLACK
6
CONTINUOUS
10
5.56742
20
-3.72589
11
5.56742
21
-3.72589
0
LINE
8
BLACK
6
CONTINUOUS
10
5.56742
20
-3.72589
11
5.56743
21
-3.72574
0
LINE
8
BLACK
6
CONTINUOUS
10
5.56743
20
-3.72574
11
5.56745
21
-3.72557
0
LINE
8
BLACK
6
CONTINUOUS
10
5.56745
20
-3.72557
11
5.56751
21
-3.72529
0
LINE
8
BLACK
6
CONTINUOUS
10
5.56751
20
-3.72529
11
5.56742
21
-3.72222
0
LINE
8
BLACK
6
CONTINUOUS
10
5.56742
20
-3.72222
11
5.56742
21
-3.72209
0
LINE
8
BLACK
6
CONTINUOUS
10
5.56742
20
-3.72209
11
5.56742
21
-3.70281
0
LINE
8
BLACK
6
CONTINUOUS
10
5.56742
20
-3.70281
11
5.56821
21
-3.70013
0
LINE
8
BLACK
6
CONTINUOUS
10
5.56821
20
-3.70013
11
5.56887
21
-3.69931
0
LINE
8
BLACK
6
CONTINUOUS
10
5.56887
20
-3.69931
11
5.57064
21
-3.69754
0
LINE
8
BLACK
6
CONTINUOUS
10
5.57064
20
-3.69754
11
5.57084
21
-3.69733
0
LINE
8
BLACK
6
CONTINUOUS
10
5.57084
20
-3.69733
11
5.57449
21
-3.69141
0
LINE
8
BLACK
6
CONTINUOUS
10
5.57449
20
-3.69141
11
5.57668
21
-3.6848
0
LINE
8
BLACK
6
CONTINUOUS
10
5.57668
20
-3.6848
11
5.57686
21
-3.68305
0
LINE
8
BLACK
6
CONTINUOUS
10
5.57686
20
-3.68305
11
5.57694
21
-3.68231
0
LINE
8
BLACK
6
CONTINUOUS
10
5.57694
20
-3.68231
11
5.57711
21
-3.68069
0
LINE
8
BLACK
6
CONTINUOUS
10
5.57711
20
-3.68069
11
5.57711
21
-3.63931
0
LINE
8
BLACK
6
CONTINUOUS
10
5.57711
20
-3.63931
11
5.57709
21
-3.63919
0
LINE
8
BLACK
6
CONTINUOUS
10
5.57709
20
-3.63919
11
5.5767
21
-3.63542
0
LINE
8
BLACK
6
CONTINUOUS
10
5.5767
20
-3.63542
11
5.5767
21
-3.63542
0
LINE
8
BLACK
6
CONTINUOUS
10
5.5767
20
-3.63542
11
5.57667
21
-3.63515
0
LINE
8
BLACK
6
CONTINUOUS
10
5.57667
20
-3.63515
11
5.57638
21
-3.63426
0
LINE
8
BLACK
6
CONTINUOUS
10
5.57638
20
-3.63426
11
5.57456
21
-3.62882
0
LINE
8
BLACK
6
CONTINUOUS
10
5.57456
20
-3.62882
11
5.57447
21
-3.62855
0
LINE
8
BLACK
6
CONTINUOUS
10
5.57447
20
-3.62855
11
5.57081
21
-3.62262
0
LINE
8
BLACK
6
CONTINUOUS
10
5.57081
20
-3.62262
11
5.56932
21
-3.62114
0
LINE
8
BLACK
6
CONTINUOUS
10
5.56932
20
-3.62114
11
5.56888
21
-3.6207
0
LINE
8
BLACK
6
CONTINUOUS
10
5.56888
20
-3.6207
11
5.56754
21
-3.61825
0
LINE
8
BLACK
6
CONTINUOUS
10
5.56754
20
-3.61825
11
5.56742
21
-3.61719
0
LINE
8
BLACK
6
CONTINUOUS
10
5.56742
20
-3.61719
11
5.56742
21
-3.61541
0
LINE
8
BLACK
6
CONTINUOUS
10
5.56742
20
-3.61541
11
5.56821
21
-3.61273
0
LINE
8
BLACK
6
CONTINUOUS
10
5.56821
20
-3.61273
11
5.56887
21
-3.61191
0
LINE
8
BLACK
6
CONTINUOUS
10
5.56887
20
-3.61191
11
5.56931
21
-3.61147
0
LINE
8
BLACK
6
CONTINUOUS
10
5.56931
20
-3.61147
11
5.57344
21
-3.60733
0
LINE
8
BLACK
6
CONTINUOUS
10
5.57344
20
-3.60733
11
5.57448
21
-3.60564
0
LINE
8
BLACK
6
CONTINUOUS
10
5.57448
20
-3.60564
11
5.57694
21
-3.60165
0
LINE
8
BLACK
6
CONTINUOUS
10
5.57694
20
-3.60165
11
5.57694
21
-3.60165
0
LINE
8
BLACK
6
CONTINUOUS
10
5.57694
20
-3.60165
11
5.57709
21
-3.60141
0
LINE
8
BLACK
6
CONTINUOUS
10
5.57709
20
-3.60141
11
5.57928
21
-3.5948
0
LINE
8
BLACK
6
CONTINUOUS
10
5.57928
20
-3.5948
11
5.57931
21
-3.5945
0
LINE
8
BLACK
6
CONTINUOUS
10
5.57931
20
-3.5945
11
5.57963
21
-3.59145
0
LINE
8
BLACK
6
CONTINUOUS
10
5.57963
20
-3.59145
11
5.5797
21
-3.59069
0
LINE
8
BLACK
6
CONTINUOUS
10
5.5797
20
-3.59069
11
5.5797
21
-3.54931
0
LINE
8
BLACK
6
CONTINUOUS
10
5.5797
20
-3.54931
11
5.57967
21
-3.54897
0
LINE
8
BLACK
6
CONTINUOUS
10
5.57967
20
-3.54897
11
5.5793
21
-3.54542
0
LINE
8
BLACK
6
CONTINUOUS
10
5.5793
20
-3.54542
11
5.5793
21
-3.54542
0
LINE
8
BLACK
6
CONTINUOUS
10
5.5793
20
-3.54542
11
5.57927
21
-3.54515
0
LINE
8
BLACK
6
CONTINUOUS
10
5.57927
20
-3.54515
11
5.57901
21
-3.54436
0
LINE
8
BLACK
6
CONTINUOUS
10
5.57901
20
-3.54436
11
5.57716
21
-3.53882
0
LINE
8
BLACK
6
CONTINUOUS
10
5.57716
20
-3.53882
11
5.57707
21
-3.53855
0
LINE
8
BLACK
6
CONTINUOUS
10
5.57707
20
-3.53855
11
5.5734
21
-3.53262
0
LINE
8
BLACK
6
CONTINUOUS
10
5.5734
20
-3.53262
11
5.57281
21
-3.53203
0
LINE
8
BLACK
6
CONTINUOUS
10
5.57281
20
-3.53203
11
5.57148
21
-3.5307
0
LINE
8
BLACK
6
CONTINUOUS
10
5.57148
20
-3.5307
11
5.57013
21
-3.52825
0
LINE
8
BLACK
6
CONTINUOUS
10
5.57013
20
-3.52825
11
5.57002
21
-3.52719
0
LINE
8
BLACK
6
CONTINUOUS
10
5.57002
20
-3.52719
11
5.57002
21
-3.51278
0
LINE
8
BLACK
6
CONTINUOUS
10
5.57002
20
-3.51278
11
5.57081
21
-3.51009
0
LINE
8
BLACK
6
CONTINUOUS
10
5.57081
20
-3.51009
11
5.57292
21
-3.50826
0
LINE
8
BLACK
6
CONTINUOUS
10
5.57292
20
-3.50826
11
5.57498
21
-3.50781
0
LINE
8
BLACK
6
CONTINUOUS
10
5.57498
20
-3.50781
11
5.57906
21
-3.50781
0
LINE
8
BLACK
6
CONTINUOUS
10
5.57906
20
-3.50781
11
5.58151
21
-3.50755
0
LINE
8
BLACK
6
CONTINUOUS
10
5.58151
20
-3.50755
11
5.58688
21
-3.50554
0
LINE
8
BLACK
6
CONTINUOUS
10
5.58688
20
-3.50554
11
5.59147
21
-3.5021
0
LINE
8
BLACK
6
CONTINUOUS
10
5.59147
20
-3.5021
11
5.59491
21
-3.49751
0
LINE
8
BLACK
6
CONTINUOUS
10
5.59491
20
-3.49751
11
5.59692
21
-3.49214
0
LINE
8
BLACK
6
CONTINUOUS
10
5.59692
20
-3.49214
11
5.59719
21
-3.48969
0
LINE
8
BLACK
6
CONTINUOUS
10
5.59719
20
-3.48969
11
5.59719
21
-3.46031
0
LINE
8
BLACK
6
CONTINUOUS
10
5.59719
20
-3.46031
11
5.59692
21
-3.45786
0
LINE
8
BLACK
6
CONTINUOUS
10
5.59692
20
-3.45786
11
5.59601
21
-3.45544
0
LINE
8
BLACK
6
CONTINUOUS
10
5.59601
20
-3.45544
11
5.59503
21
-3.45282
0
LINE
8
BLACK
6
CONTINUOUS
10
5.59503
20
-3.45282
11
5.59503
21
-3.45282
0
LINE
8
BLACK
6
CONTINUOUS
10
5.59503
20
-3.45282
11
5.59491
21
-3.45249
0
LINE
8
BLACK
6
CONTINUOUS
10
5.59491
20
-3.45249
11
5.59477
21
-3.45232
0
LINE
8
BLACK
6
CONTINUOUS
10
5.59477
20
-3.45232
11
5.59419
21
-3.44965
0
LINE
8
BLACK
6
CONTINUOUS
10
5.59419
20
-3.44965
11
5.59477
21
-3.44769
0
LINE
8
BLACK
6
CONTINUOUS
10
5.59477
20
-3.44769
11
5.59491
21
-3.44751
0
LINE
8
BLACK
6
CONTINUOUS
10
5.59491
20
-3.44751
11
5.59544
21
-3.44608
0
LINE
8
BLACK
6
CONTINUOUS
10
5.59544
20
-3.44608
11
5.59681
21
-3.44243
0
LINE
8
BLACK
6
CONTINUOUS
10
5.59681
20
-3.44243
11
5.59692
21
-3.44214
0
LINE
8
BLACK
6
CONTINUOUS
10
5.59692
20
-3.44214
11
5.59719
21
-3.43969
0
LINE
8
BLACK
6
CONTINUOUS
10
5.59719
20
-3.43969
11
5.59719
21
-3.41031
0
LINE
8
BLACK
6
CONTINUOUS
10
5.59719
20
-3.41031
11
5.59698
21
-3.40839
0
LINE
8
BLACK
6
CONTINUOUS
10
5.59698
20
-3.40839
11
5.59747
21
-3.40564
0
LINE
8
BLACK
6
CONTINUOUS
10
5.59747
20
-3.40564
11
5.59937
21
-3.40359
0
LINE
8
BLACK
6
CONTINUOUS
10
5.59937
20
-3.40359
11
5.60191
21
-3.40289
0
LINE
8
BLACK
6
CONTINUOUS
10
5.60191
20
-3.40289
11
5.66386
21
-3.40289
0
LINE
8
BLACK
6
CONTINUOUS
10
5.66386
20
-3.40289
11
5.6642
21
-3.40291
0
LINE
8
BLACK
6
CONTINUOUS
10
5.6642
20
-3.40291
11
5.66617
21
-3.40304
0
LINE
8
BLACK
6
CONTINUOUS
10
5.66617
20
-3.40304
11
5.66617
21
-3.40304
0
LINE
8
BLACK
6
CONTINUOUS
10
5.66617
20
-3.40304
11
5.66647
21
-3.40306
0
LINE
8
BLACK
6
CONTINUOUS
10
5.66647
20
-3.40306
11
5.66676
21
-3.40301
0
LINE
8
BLACK
6
CONTINUOUS
10
5.66676
20
-3.40301
11
5.66676
21
-3.40301
0
LINE
8
BLACK
6
CONTINUOUS
10
5.66676
20
-3.40301
11
5.66807
21
-3.40278
0
LINE
8
BLACK
6
CONTINUOUS
10
5.66807
20
-3.40278
11
5.66895
21
-3.40263
0
LINE
8
BLACK
6
CONTINUOUS
10
5.66895
20
-3.40263
11
5.66921
21
-3.40259
0
LINE
8
BLACK
6
CONTINUOUS
10
5.66921
20
-3.40259
11
5.6717
21
-3.40229
0
LINE
8
BLACK
6
CONTINUOUS
10
5.6717
20
-3.40229
11
5.67198
21
-3.40218
0
LINE
8
BLACK
6
CONTINUOUS
10
5.67198
20
-3.40218
11
5.67208
21
-3.40216
0
LINE
8
BLACK
6
CONTINUOUS
10
5.67208
20
-3.40216
11
5.67273
21
-3.40198
0
LINE
8
BLACK
6
CONTINUOUS
10
5.67273
20
-3.40198
11
5.67283
21
-3.40195
0
LINE
8
BLACK
6
CONTINUOUS
10
5.67283
20
-3.40195
11
5.67312
21
-3.4019
0
LINE
8
BLACK
6
CONTINUOUS
10
5.67312
20
-3.4019
11
5.67543
21
-3.40089
0
LINE
8
BLACK
6
CONTINUOUS
10
5.67543
20
-3.40089
11
5.67567
21
-3.40079
0
LINE
8
BLACK
6
CONTINUOUS
10
5.67567
20
-3.40079
11
5.67774
21
-3.40001
0
LINE
8
BLACK
6
CONTINUOUS
10
5.67774
20
-3.40001
11
5.67774
21
-3.40001
0
LINE
8
BLACK
6
CONTINUOUS
10
5.67774
20
-3.40001
11
5.67802
21
-3.3999
0
LINE
8
BLACK
6
CONTINUOUS
10
5.67802
20
-3.3999
11
5.67826
21
-3.39973
0
LINE
8
BLACK
6
CONTINUOUS
10
5.67826
20
-3.39973
11
5.67836
21
-3.39968
0
LINE
8
BLACK
6
CONTINUOUS
10
5.67836
20
-3.39968
11
5.67894
21
-3.39936
0
LINE
8
BLACK
6
CONTINUOUS
10
5.67894
20
-3.39936
11
5.67903
21
-3.39931
0
LINE
8
BLACK
6
CONTINUOUS
10
5.67903
20
-3.39931
11
5.6793
21
-3.39919
0
LINE
8
BLACK
6
CONTINUOUS
10
5.6793
20
-3.39919
11
5.6813
21
-3.39765
0
LINE
8
BLACK
6
CONTINUOUS
10
5.6813
20
-3.39765
11
5.68151
21
-3.3975
0
LINE
8
BLACK
6
CONTINUOUS
10
5.68151
20
-3.3975
11
5.68334
21
-3.39625
0
LINE
8
BLACK
6
CONTINUOUS
10
5.68334
20
-3.39625
11
5.68334
21
-3.39625
0
LINE
8
BLACK
6
CONTINUOUS
10
5.68334
20
-3.39625
11
5.68358
21
-3.39608
0
LINE
8
BLACK
6
CONTINUOUS
10
5.68358
20
-3.39608
11
5.68521
21
-3.39425
0
LINE
8
BLACK
6
CONTINUOUS
10
5.68521
20
-3.39425
11
5.68541
21
-3.39404
0
LINE
8
BLACK
6
CONTINUOUS
10
5.68541
20
-3.39404
11
5.6934
21
-3.38605
0
LINE
8
BLACK
6
CONTINUOUS
10
5.6934
20
-3.38605
11
5.69585
21
-3.38471
0
LINE
8
BLACK
6
CONTINUOUS
10
5.69585
20
-3.38471
11
5.69864
21
-3.38491
0
LINE
8
BLACK
6
CONTINUOUS
10
5.69864
20
-3.38491
11
5.70088
21
-3.38659
0
LINE
8
BLACK
6
CONTINUOUS
10
5.70088
20
-3.38659
11
5.70155
21
-3.38782
0
LINE
8
BLACK
6
CONTINUOUS
10
5.70155
20
-3.38782
11
5.70226
21
-3.38971
0
LINE
8
BLACK
6
CONTINUOUS
10
5.70226
20
-3.38971
11
5.7057
21
-3.3943
0
LINE
8
BLACK
6
CONTINUOUS
10
5.7057
20
-3.3943
11
5.70598
21
-3.39451
0
LINE
8
BLACK
6
CONTINUOUS
10
5.70598
20
-3.39451
11
5.70598
21
-3.39451
0
LINE
8
BLACK
6
CONTINUOUS
10
5.70598
20
-3.39451
11
5.70801
21
-3.39603
0
LINE
8
BLACK
6
CONTINUOUS
10
5.70801
20
-3.39603
11
5.70968
21
-3.39827
0
LINE
8
BLACK
6
CONTINUOUS
10
5.70968
20
-3.39827
11
5.70988
21
-3.40106
0
LINE
8
BLACK
6
CONTINUOUS
10
5.70988
20
-3.40106
11
5.70854
21
-3.40351
0
LINE
8
BLACK
6
CONTINUOUS
10
5.70854
20
-3.40351
11
5.70801
21
-3.40397
0
LINE
8
BLACK
6
CONTINUOUS
10
5.70801
20
-3.40397
11
5.7057
21
-3.4057
0
LINE
8
BLACK
6
CONTINUOUS
10
5.7057
20
-3.4057
11
5.70226
21
-3.41029
0
LINE
8
BLACK
6
CONTINUOUS
10
5.70226
20
-3.41029
11
5.70025
21
-3.41566
0
LINE
8
BLACK
6
CONTINUOUS
10
5.70025
20
-3.41566
11
5.70021
21
-3.41597
0
LINE
8
BLACK
6
CONTINUOUS
10
5.70021
20
-3.41597
11
5.70021
21
-3.41597
0
LINE
8
BLACK
6
CONTINUOUS
10
5.70021
20
-3.41597
11
5.70008
21
-3.41721
0
LINE
8
BLACK
6
CONTINUOUS
10
5.70008
20
-3.41721
11
5.70005
21
-3.41748
0
LINE
8
BLACK
6
CONTINUOUS
10
5.70005
20
-3.41748
11
5.70003
21
-3.41768
0
LINE
8
BLACK
6
CONTINUOUS
10
5.70003
20
-3.41768
11
5.69895
21
-3.42026
0
LINE
8
BLACK
6
CONTINUOUS
10
5.69895
20
-3.42026
11
5.69666
21
-3.42185
0
LINE
8
BLACK
6
CONTINUOUS
10
5.69666
20
-3.42185
11
5.69509
21
-3.42211
0
LINE
8
BLACK
6
CONTINUOUS
10
5.69509
20
-3.42211
11
5.69114
21
-3.42211
0
LINE
8
BLACK
6
CONTINUOUS
10
5.69114
20
-3.42211
11
5.6908
21
-3.42209
0
LINE
8
BLACK
6
CONTINUOUS
10
5.6908
20
-3.42209
11
5.68883
21
-3.42196
0
LINE
8
BLACK
6
CONTINUOUS
10
5.68883
20
-3.42196
11
5.68883
21
-3.42196
0
LINE
8
BLACK
6
CONTINUOUS
10
5.68883
20
-3.42196
11
5.68853
21
-3.42194
0
LINE
8
BLACK
6
CONTINUOUS
10
5.68853
20
-3.42194
11
5.68605
21
-3.42237
0
LINE
8
BLACK
6
CONTINUOUS
10
5.68605
20
-3.42237
11
5.6858
21
-3.42241
0
LINE
8
BLACK
6
CONTINUOUS
10
5.6858
20
-3.42241
11
5.6833
21
-3.42271
0
LINE
8
BLACK
6
CONTINUOUS
10
5.6833
20
-3.42271
11
5.68302
21
-3.42282
0
LINE
8
BLACK
6
CONTINUOUS
10
5.68302
20
-3.42282
11
5.68292
21
-3.42284
0
LINE
8
BLACK
6
CONTINUOUS
10
5.68292
20
-3.42284
11
5.68227
21
-3.42302
0
LINE
8
BLACK
6
CONTINUOUS
10
5.68227
20
-3.42302
11
5.68217
21
-3.42305
0
LINE
8
BLACK
6
CONTINUOUS
10
5.68217
20
-3.42305
11
5.68188
21
-3.4231
0
LINE
8
BLACK
6
CONTINUOUS
10
5.68188
20
-3.4231
11
5.6805
21
-3.42371
0
LINE
8
BLACK
6
CONTINUOUS
10
5.6805
20
-3.42371
11
5.67958
21
-3.42411
0
LINE
8
BLACK
6
CONTINUOUS
10
5.67958
20
-3.42411
11
5.67933
21
-3.42421
0
LINE
8
BLACK
6
CONTINUOUS
10
5.67933
20
-3.42421
11
5.67726
21
-3.42499
0
LINE
8
BLACK
6
CONTINUOUS
10
5.67726
20
-3.42499
11
5.67698
21
-3.4251
0
LINE
8
BLACK
6
CONTINUOUS
10
5.67698
20
-3.4251
11
5.67674
21
-3.42527
0
LINE
8
BLACK
6
CONTINUOUS
10
5.67674
20
-3.42527
11
5.67664
21
-3.42532
0
LINE
8
BLACK
6
CONTINUOUS
10
5.67664
20
-3.42532
11
5.67606
21
-3.42564
0
LINE
8
BLACK
6
CONTINUOUS
10
5.67606
20
-3.42564
11
5.67597
21
-3.42569
0
LINE
8
BLACK
6
CONTINUOUS
10
5.67597
20
-3.42569
11
5.6757
21
-3.42581
0
LINE
8
BLACK
6
CONTINUOUS
10
5.6757
20
-3.42581
11
5.67546
21
-3.426
0
LINE
8
BLACK
6
CONTINUOUS
10
5.67546
20
-3.426
11
5.67546
21
-3.426
0
LINE
8
BLACK
6
CONTINUOUS
10
5.67546
20
-3.426
11
5.67423
21
-3.42694
0
LINE
8
BLACK
6
CONTINUOUS
10
5.67423
20
-3.42694
11
5.6737
21
-3.42735
0
LINE
8
BLACK
6
CONTINUOUS
10
5.6737
20
-3.42735
11
5.67349
21
-3.4275
0
LINE
8
BLACK
6
CONTINUOUS
10
5.67349
20
-3.4275
11
5.67166
21
-3.42875
0
LINE
8
BLACK
6
CONTINUOUS
10
5.67166
20
-3.42875
11
5.67166
21
-3.42875
0
LINE
8
BLACK
6
CONTINUOUS
10
5.67166
20
-3.42875
11
5.67142
21
-3.42892
0
LINE
8
BLACK
6
CONTINUOUS
10
5.67142
20
-3.42892
11
5.67122
21
-3.42915
0
LINE
8
BLACK
6
CONTINUOUS
10
5.67122
20
-3.42915
11
5.67122
21
-3.42915
0
LINE
8
BLACK
6
CONTINUOUS
10
5.67122
20
-3.42915
11
5.66979
21
-3.43075
0
LINE
8
BLACK
6
CONTINUOUS
10
5.66979
20
-3.43075
11
5.66959
21
-3.43096
0
LINE
8
BLACK
6
CONTINUOUS
10
5.66959
20
-3.43096
11
5.65108
21
-3.44947
0
LINE
8
BLACK
6
CONTINUOUS
10
5.65108
20
-3.44947
11
5.65084
21
-3.4497
0
LINE
8
BLACK
6
CONTINUOUS
10
5.65084
20
-3.4497
11
5.64912
21
-3.4512
0
LINE
8
BLACK
6
CONTINUOUS
10
5.64912
20
-3.4512
11
5.64819
21
-3.45252
0
LINE
8
BLACK
6
CONTINUOUS
10
5.64819
20
-3.45252
11
5.64767
21
-3.45326
0
LINE
8
BLACK
6
CONTINUOUS
10
5.64767
20
-3.45326
11
5.64752
21
-3.45347
0
LINE
8
BLACK
6
CONTINUOUS
10
5.64752
20
-3.45347
11
5.64597
21
-3.45544
0
LINE
8
BLACK
6
CONTINUOUS
10
5.64597
20
-3.45544
11
5.64584
21
-3.45572
0
LINE
8
BLACK
6
CONTINUOUS
10
5.64584
20
-3.45572
11
5.64579
21
-3.45581
0
LINE
8
BLACK
6
CONTINUOUS
10
5.64579
20
-3.45581
11
5.64546
21
-3.45638
0
LINE
8
BLACK
6
CONTINUOUS
10
5.64546
20
-3.45638
11
5.64541
21
-3.45648
0
LINE
8
BLACK
6
CONTINUOUS
10
5.64541
20
-3.45648
11
5.64524
21
-3.45672
0
LINE
8
BLACK
6
CONTINUOUS
10
5.64524
20
-3.45672
11
5.64513
21
-3.457
0
LINE
8
BLACK
6
CONTINUOUS
10
5.64513
20
-3.457
11
5.64513
21
-3.457
0
LINE
8
BLACK
6
CONTINUOUS
10
5.64513
20
-3.457
11
5.64432
21
-3.45907
0
LINE
8
BLACK
6
CONTINUOUS
10
5.64432
20
-3.45907
11
5.64422
21
-3.4593
0
LINE
8
BLACK
6
CONTINUOUS
10
5.64422
20
-3.4593
11
5.64319
21
-3.4616
0
LINE
8
BLACK
6
CONTINUOUS
10
5.64319
20
-3.4616
11
5.64313
21
-3.46189
0
LINE
8
BLACK
6
CONTINUOUS
10
5.64313
20
-3.46189
11
5.6431
21
-3.46199
0
LINE
8
BLACK
6
CONTINUOUS
10
5.6431
20
-3.46199
11
5.64292
21
-3.46263
0
LINE
8
BLACK
6
CONTINUOUS
10
5.64292
20
-3.46263
11
5.64289
21
-3.46273
0
LINE
8
BLACK
6
CONTINUOUS
10
5.64289
20
-3.46273
11
5.64278
21
-3.46301
0
LINE
8
BLACK
6
CONTINUOUS
10
5.64278
20
-3.46301
11
5.64275
21
-3.46331
0
LINE
8
BLACK
6
CONTINUOUS
10
5.64275
20
-3.46331
11
5.64275
21
-3.46331
0
LINE
8
BLACK
6
CONTINUOUS
10
5.64275
20
-3.46331
11
5.64246
21
-3.46551
0
LINE
8
BLACK
6
CONTINUOUS
10
5.64246
20
-3.46551
11
5.64242
21
-3.46576
0
LINE
8
BLACK
6
CONTINUOUS
10
5.64242
20
-3.46576
11
5.64196
21
-3.46824
0
LINE
8
BLACK
6
CONTINUOUS
10
5.64196
20
-3.46824
11
5.64197
21
-3.46853
0
LINE
8
BLACK
6
CONTINUOUS
10
5.64197
20
-3.46853
11
5.64197
21
-3.46853
0
LINE
8
BLACK
6
CONTINUOUS
10
5.64197
20
-3.46853
11
5.6421
21
-3.47068
0
LINE
8
BLACK
6
CONTINUOUS
10
5.6421
20
-3.47068
11
5.64211
21
-3.47097
0
LINE
8
BLACK
6
CONTINUOUS
10
5.64211
20
-3.47097
11
5.64211
21
-3.57564
0
LINE
8
BLACK
6
CONTINUOUS
10
5.64211
20
-3.57564
11
5.64132
21
-3.57832
0
LINE
8
BLACK
6
CONTINUOUS
10
5.64132
20
-3.57832
11
5.64116
21
-3.57856
0
LINE
8
BLACK
6
CONTINUOUS
10
5.64116
20
-3.57856
11
5.64108
21
-3.57867
0
LINE
8
BLACK
6
CONTINUOUS
10
5.64108
20
-3.57867
11
5.6409
21
-3.57886
0
LINE
8
BLACK
6
CONTINUOUS
10
5.6409
20
-3.57886
11
5.64077
21
-3.57909
0
LINE
8
BLACK
6
CONTINUOUS
10
5.64077
20
-3.57909
11
5.64077
21
-3.57909
0
LINE
8
BLACK
6
CONTINUOUS
10
5.64077
20
-3.57909
11
5.63792
21
-3.58403
0
LINE
8
BLACK
6
CONTINUOUS
10
5.63792
20
-3.58403
11
5.63714
21
-3.58537
0
LINE
8
BLACK
6
CONTINUOUS
10
5.63714
20
-3.58537
11
5.63482
21
-3.59252
0
LINE
8
BLACK
6
CONTINUOUS
10
5.63482
20
-3.59252
11
5.63479
21
-3.59278
0
LINE
8
BLACK
6
CONTINUOUS
10
5.63479
20
-3.59278
11
5.63479
21
-3.59278
0
LINE
8
BLACK
6
CONTINUOUS
10
5.63479
20
-3.59278
11
5.63458
21
-3.5948
0
LINE
8
BLACK
6
CONTINUOUS
10
5.63458
20
-3.5948
11
5.63404
21
-3.6
0
LINE
8
BLACK
6
CONTINUOUS
10
5.63404
20
-3.6
11
5.63482
21
-3.60748
0
LINE
8
BLACK
6
CONTINUOUS
10
5.63482
20
-3.60748
11
5.63714
21
-3.61463
0
LINE
8
BLACK
6
CONTINUOUS
10
5.63714
20
-3.61463
11
5.6409
21
-3.62114
0
LINE
8
BLACK
6
CONTINUOUS
10
5.6409
20
-3.62114
11
5.64108
21
-3.62133
0
LINE
8
BLACK
6
CONTINUOUS
10
5.64108
20
-3.62133
11
5.64108
21
-3.62133
0
LINE
8
BLACK
6
CONTINUOUS
10
5.64108
20
-3.62133
11
5.64273
21
-3.62317
0
LINE
8
BLACK
6
CONTINUOUS
10
5.64273
20
-3.62317
11
5.64593
21
-3.62673
0
LINE
8
BLACK
6
CONTINUOUS
10
5.64593
20
-3.62673
11
5.65202
21
-3.63115
0
LINE
8
BLACK
6
CONTINUOUS
10
5.65202
20
-3.63115
11
5.65225
21
-3.63125
0
LINE
8
BLACK
6
CONTINUOUS
10
5.65225
20
-3.63125
11
5.65226
21
-3.63125
0
LINE
8
BLACK
6
CONTINUOUS
10
5.65226
20
-3.63125
11
5.65865
21
-3.6341
0
LINE
8
BLACK
6
CONTINUOUS
10
5.65865
20
-3.6341
11
5.65889
21
-3.6342
0
LINE
8
BLACK
6
CONTINUOUS
10
5.65889
20
-3.6342
11
5.66213
21
-3.63489
0
LINE
8
BLACK
6
CONTINUOUS
10
5.66213
20
-3.63489
11
5.66599
21
-3.63571
0
LINE
8
BLACK
6
CONTINUOUS
10
5.66599
20
-3.63571
11
5.66599
21
-3.63571
0
LINE
8
BLACK
6
CONTINUOUS
10
5.66599
20
-3.63571
11
5.66624
21
-3.63577
0
LINE
8
BLACK
6
CONTINUOUS
10
5.66624
20
-3.63577
11
5.67376
21
-3.63577
0
LINE
8
BLACK
6
CONTINUOUS
10
5.67376
20
-3.63577
11
5.67401
21
-3.63571
0
LINE
8
BLACK
6
CONTINUOUS
10
5.67401
20
-3.63571
11
5.67401
21
-3.63571
0
LINE
8
BLACK
6
CONTINUOUS
10
5.67401
20
-3.63571
11
5.67787
21
-3.63489
0
LINE
8
BLACK
6
CONTINUOUS
10
5.67787
20
-3.63489
11
5.68111
21
-3.6342
0
LINE
8
BLACK
6
CONTINUOUS
10
5.68111
20
-3.6342
11
5.68135
21
-3.6341
0
LINE
8
BLACK
6
CONTINUOUS
10
5.68135
20
-3.6341
11
5.68774
21
-3.63125
0
LINE
8
BLACK
6
CONTINUOUS
10
5.68774
20
-3.63125
11
5.68775
21
-3.63125
0
LINE
8
BLACK
6
CONTINUOUS
10
5.68775
20
-3.63125
11
5.68798
21
-3.63115
0
LINE
8
BLACK
6
CONTINUOUS
10
5.68798
20
-3.63115
11
5.69407
21
-3.62673
0
LINE
8
BLACK
6
CONTINUOUS
10
5.69407
20
-3.62673
11
5.69727
21
-3.62317
0
LINE
8
BLACK
6
CONTINUOUS
10
5.69727
20
-3.62317
11
5.69892
21
-3.62133
0
LINE
8
BLACK
6
CONTINUOUS
10
5.69892
20
-3.62133
11
5.69892
21
-3.62133
0
LINE
8
BLACK
6
CONTINUOUS
10
5.69892
20
-3.62133
11
5.6991
21
-3.62114
0
LINE
8
BLACK
6
CONTINUOUS
10
5.6991
20
-3.62114
11
5.70286
21
-3.61463
0
LINE
8
BLACK
6
CONTINUOUS
10
5.70286
20
-3.61463
11
5.70518
21
-3.60748
0
LINE
8
BLACK
6
CONTINUOUS
10
5.70518
20
-3.60748
11
5.70569
21
-3.60264
0
LINE
8
BLACK
6
CONTINUOUS
10
5.70569
20
-3.60264
11
5.70675
21
-3.60006
0
LINE
8
BLACK
6
CONTINUOUS
10
5.70675
20
-3.60006
11
5.70904
21
-3.59846
0
LINE
8
BLACK
6
CONTINUOUS
10
5.70904
20
-3.59846
11
5.71184
21
-3.59835
0
LINE
8
BLACK
6
CONTINUOUS
10
5.71184
20
-3.59835
11
5.71236
21
-3.59852
0
LINE
8
BLACK
6
CONTINUOUS
10
5.71236
20
-3.59852
11
5.71537
21
-3.59964
0
LINE
8
BLACK
6
CONTINUOUS
10
5.71537
20
-3.59964
11
5.71537
21
-3.59964
0
LINE
8
BLACK
6
CONTINUOUS
10
5.71537
20
-3.59964
11
5.71566
21
-3.59975
0
LINE
8
BLACK
6
CONTINUOUS
10
5.71566
20
-3.59975
11
5.7181
21
-3.60002
0
LINE
8
BLACK
6
CONTINUOUS
10
5.7181
20
-3.60002
11
5.7819
21
-3.60002
0
LINE
8
BLACK
6
CONTINUOUS
10
5.7819
20
-3.60002
11
5.78434
21
-3.59975
0
LINE
8
BLACK
6
CONTINUOUS
10
5.78434
20
-3.59975
11
5.78971
21
-3.59774
0
LINE
8
BLACK
6
CONTINUOUS
10
5.78971
20
-3.59774
11
5.7943
21
-3.5943
0
LINE
8
BLACK
6
CONTINUOUS
10
5.7943
20
-3.5943
11
5.79604
21
-3.59198
0
LINE
8
BLACK
6
CONTINUOUS
10
5.79604
20
-3.59198
11
5.79828
21
-3.5903
0
LINE
8
BLACK
6
CONTINUOUS
10
5.79828
20
-3.5903
11
5.80107
21
-3.59011
0
LINE
8
BLACK
6
CONTINUOUS
10
5.80107
20
-3.59011
11
5.80352
21
-3.59145
0
LINE
8
BLACK
6
CONTINUOUS
10
5.80352
20
-3.59145
11
5.80398
21
-3.59198
0
LINE
8
BLACK
6
CONTINUOUS
10
5.80398
20
-3.59198
11
5.8055
21
-3.594
0
LINE
8
BLACK
6
CONTINUOUS
10
5.8055
20
-3.594
11
5.806
21
-3.5945
0
LINE
8
BLACK
6
CONTINUOUS
10
5.806
20
-3.5945
11
5.81001
21
-3.59751
0
LINE
8
BLACK
6
CONTINUOUS
10
5.81001
20
-3.59751
11
5.81063
21
-3.59785
0
LINE
8
BLACK
6
CONTINUOUS
10
5.81063
20
-3.59785
11
5.81537
21
-3.59963
0
LINE
8
BLACK
6
CONTINUOUS
10
5.81537
20
-3.59963
11
5.81597
21
-3.59977
0
LINE
8
BLACK
6
CONTINUOUS
10
5.81597
20
-3.59977
11
5.81797
21
-3.59999
0
LINE
8
BLACK
6
CONTINUOUS
10
5.81797
20
-3.59999
11
5.81824
21
-3.6
0
LINE
8
BLACK
6
CONTINUOUS
10
5.81824
20
-3.6
11
5.83929
21
-3.6
0
LINE
8
BLACK
6
CONTINUOUS
10
5.83929
20
-3.6
11
5.83989
21
-3.59982
0
LINE
8
BLACK
6
CONTINUOUS
10
5.83989
20
-3.59982
11
5.83993
21
-3.59977
0
LINE
8
BLACK
6
CONTINUOUS
10
5.83993
20
-3.59977
11
5.84
21
-3.59947
0
LINE
8
BLACK
6
CONTINUOUS
10
5.84
20
-3.59947
11
5.84
21
-3.58
0
LINE
8
BLACK
6
CONTINUOUS
10
5.84
20
-3.58
11
5.82
21
-3.58
0
LINE
8
BLACK
6
CONTINUOUS
10
5.82
20
-3.58
11
5.82
21
-3.52
0
LINE
8
BLACK
6
CONTINUOUS
10
5.82
20
-3.52
11
5.84
21
-3.52
0
LINE
8
BLACK
6
CONTINUOUS
10
5.84
20
-3.52
11
5.84
21
-3.48
0
LINE
8
BLACK
6
CONTINUOUS
10
5.84
20
-3.48
11
5.82
21
-3.48
0
LINE
8
BLACK
6
CONTINUOUS
10
5.82
20
-3.48
11
5.82
21
-3.42
0
LINE
8
BLACK
6
CONTINUOUS
10
5.82
20
-3.42
11
5.88
21
-3.42
0
LINE
8
BLACK
6
CONTINUOUS
10
5.88
20
-3.42
11
5.88
21
-3.44
0
LINE
8
BLACK
6
CONTINUOUS
10
5.88
20
-3.44
11
5.89929
21
-3.44
0
LINE
8
BLACK
6
CONTINUOUS
10
5.89929
20
-3.44
11
5.89989
21
-3.43982
0
LINE
8
BLACK
6
CONTINUOUS
10
5.89989
20
-3.43982
11
5.89993
21
-3.43977
0
LINE
8
BLACK
6
CONTINUOUS
10
5.89993
20
-3.43977
11
5.9
21
-3.43947
0
LINE
8
BLACK
6
CONTINUOUS
10
5.9
20
-3.43947
11
5.9
21
-3.41824
0
LINE
8
BLACK
6
CONTINUOUS
10
5.9
20
-3.41824
11
5.89999
21
-3.41797
0
LINE
8
BLACK
6
CONTINUOUS
10
5.89999
20
-3.41797
11
5.89977
21
-3.41597
0
LINE
8
BLACK
6
CONTINUOUS
10
5.89977
20
-3.41597
11
5.89963
21
-3.41537
0
LINE
8
BLACK
6
CONTINUOUS
10
5.89963
20
-3.41537
11
5.89785
21
-3.41063
0
LINE
8
BLACK
6
CONTINUOUS
10
5.89785
20
-3.41063
11
5.89751
21
-3.41001
0
LINE
8
BLACK
6
CONTINUOUS
10
5.89751
20
-3.41001
11
5.8945
21
-3.406
0
LINE
8
BLACK
6
CONTINUOUS
10
5.8945
20
-3.406
11
5.894
21
-3.4055
0
LINE
8
BLACK
6
CONTINUOUS
10
5.894
20
-3.4055
11
5.89198
21
-3.40398
0
LINE
8
BLACK
6
CONTINUOUS
10
5.89198
20
-3.40398
11
5.8903
21
-3.40174
0
LINE
8
BLACK
6
CONTINUOUS
10
5.8903
20
-3.40174
11
5.89011
21
-3.39896
0
LINE
8
BLACK
6
CONTINUOUS
10
5.89011
20
-3.39896
11
5.89145
21
-3.3965
0
LINE
8
BLACK
6
CONTINUOUS
10
5.89145
20
-3.3965
11
5.89198
21
-3.39604
0
LINE
8
BLACK
6
CONTINUOUS
10
5.89198
20
-3.39604
11
5.8943
21
-3.3943
0
LINE
8
BLACK
6
CONTINUOUS
10
5.8943
20
-3.3943
11
5.89774
21
-3.38971
0
LINE
8
BLACK
6
CONTINUOUS
10
5.89774
20
-3.38971
11
5.89975
21
-3.38434
0
LINE
8
BLACK
6
CONTINUOUS
10
5.89975
20
-3.38434
11
5.90002
21
-3.3819
0
LINE
8
BLACK
6
CONTINUOUS
10
5.90002
20
-3.3819
11
5.90002
21
-3.3181
0
LINE
8
BLACK
6
CONTINUOUS
10
5.90002
20
-3.3181
11
5.89975
21
-3.31566
0
LINE
8
BLACK
6
CONTINUOUS
10
5.89975
20
-3.31566
11
5.89774
21
-3.31029
0
LINE
8
BLACK
6
CONTINUOUS
10
5.89774
20
-3.31029
11
5.8943
21
-3.3057
0
LINE
8
BLACK
6
CONTINUOUS
10
5.8943
20
-3.3057
11
5.89199
21
-3.30397
0
LINE
8
BLACK
6
CONTINUOUS
10
5.89199
20
-3.30397
11
5.89032
21
-3.30173
0
LINE
8
BLACK
6
CONTINUOUS
10
5.89032
20
-3.30173
11
5.89012
21
-3.29894
0
LINE
8
BLACK
6
CONTINUOUS
10
5.89012
20
-3.29894
11
5.89146
21
-3.29649
0
LINE
8
BLACK
6
CONTINUOUS
10
5.89146
20
-3.29649
11
5.89199
21
-3.29603
0
LINE
8
BLACK
6
CONTINUOUS
10
5.89199
20
-3.29603
11
5.89261
21
-3.29557
0
LINE
8
BLACK
6
CONTINUOUS
10
5.89261
20
-3.29557
11
5.8943
21
-3.2943
0
LINE
8
BLACK
6
CONTINUOUS
10
5.8943
20
-3.2943
11
5.89774
21
-3.28971
0
LINE
8
BLACK
6
CONTINUOUS
10
5.89774
20
-3.28971
11
5.89975
21
-3.28434
0
LINE
8
BLACK
6
CONTINUOUS
10
5.89975
20
-3.28434
11
5.90002
21
-3.2819
0
LINE
8
BLACK
6
CONTINUOUS
10
5.90002
20
-3.2819
11
5.90002
21
-3.2181
0
LINE
8
BLACK
6
CONTINUOUS
10
5.90002
20
-3.2181
11
5.89975
21
-3.21566
0
LINE
8
BLACK
6
CONTINUOUS
10
5.89975
20
-3.21566
11
5.89774
21
-3.21029
0
LINE
8
BLACK
6
CONTINUOUS
10
5.89774
20
-3.21029
11
5.8943
21
-3.2057
0
LINE
8
BLACK
6
CONTINUOUS
10
5.8943
20
-3.2057
11
5.88971
21
-3.20226
0
LINE
8
BLACK
6
CONTINUOUS
10
5.88971
20
-3.20226
11
5.88434
21
-3.20025
0
LINE
8
BLACK
6
CONTINUOUS
10
5.88434
20
-3.20025
11
5.8819
21
-3.19998
0
LINE
8
BLACK
6
CONTINUOUS
10
5.8819
20
-3.19998
11
5.84449
21
-3.19998
0
LINE
8
BLACK
6
CONTINUOUS
10
5.84449
20
-3.19998
11
5.84181
21
-3.19919
0
LINE
8
BLACK
6
CONTINUOUS
10
5.84181
20
-3.19919
11
5.84098
21
-3.19853
0
LINE
8
BLACK
6
CONTINUOUS
10
5.84098
20
-3.19853
11
5.8131
21
-3.17065
0
LINE
8
BLACK
6
CONTINUOUS
10
5.8131
20
-3.17065
11
5.81262
21
-3.17008
0
LINE
8
BLACK
6
CONTINUOUS
10
5.81262
20
-3.17008
11
5.81228
21
-3.16962
0
LINE
8
BLACK
6
CONTINUOUS
10
5.81228
20
-3.16962
11
5.8121
21
-3.16939
0
LINE
8
BLACK
6
CONTINUOUS
10
5.8121
20
-3.16939
11
5.81051
21
-3.16803
0
LINE
8
BLACK
6
CONTINUOUS
10
5.81051
20
-3.16803
11
5.81021
21
-3.16776
0
LINE
8
BLACK
6
CONTINUOUS
10
5.81021
20
-3.16776
11
5.80999
21
-3.16753
0
LINE
8
BLACK
6
CONTINUOUS
10
5.80999
20
-3.16753
11
5.80987
21
-3.16744
0
LINE
8
BLACK
6
CONTINUOUS
10
5.80987
20
-3.16744
11
5.80987
21
-3.16744
0
LINE
8
BLACK
6
CONTINUOUS
10
5.80987
20
-3.16744
11
5.80911
21
-3.16684
0
LINE
8
BLACK
6
CONTINUOUS
10
5.80911
20
-3.16684
11
5.80897
21
-3.16673
0
LINE
8
BLACK
6
CONTINUOUS
10
5.80897
20
-3.16673
11
5.80699
21
-3.16504
0
LINE
8
BLACK
6
CONTINUOUS
10
5.80699
20
-3.16504
11
5.80699
21
-3.16504
0
LINE
8
BLACK
6
CONTINUOUS
10
5.80699
20
-3.16504
11
5.80677
21
-3.16485
0
LINE
8
BLACK
6
CONTINUOUS
10
5.80677
20
-3.16485
11
5.80651
21
-3.16472
0
LINE
8
BLACK
6
CONTINUOUS
10
5.80651
20
-3.16472
11
5.80631
21
-3.16459
0
LINE
8
BLACK
6
CONTINUOUS
10
5.80631
20
-3.16459
11
5.80611
21
-3.16446
0
LINE
8
BLACK
6
CONTINUOUS
10
5.80611
20
-3.16446
11
5.80588
21
-3.16429
0
LINE
8
BLACK
6
CONTINUOUS
10
5.80588
20
-3.16429
11
5.80485
21
-3.1638
0
LINE
8
BLACK
6
CONTINUOUS
10
5.80485
20
-3.1638
11
5.80326
21
-3.16306
0
LINE
8
BLACK
6
CONTINUOUS
10
5.80326
20
-3.16306
11
5.80311
21
-3.16299
0
LINE
8
BLACK
6
CONTINUOUS
10
5.80311
20
-3.16299
11
5.80079
21
-3.1618
0
LINE
8
BLACK
6
CONTINUOUS
10
5.80079
20
-3.1618
11
5.80054
21
-3.16167
0
LINE
8
BLACK
6
CONTINUOUS
10
5.80054
20
-3.16167
11
5.80026
21
-3.1616
0
LINE
8
BLACK
6
CONTINUOUS
10
5.80026
20
-3.1616
11
5.80003
21
-3.16152
0
LINE
8
BLACK
6
CONTINUOUS
10
5.80003
20
-3.16152
11
5.7998
21
-3.16144
0
LINE
8
BLACK
6
CONTINUOUS
10
5.7998
20
-3.16144
11
5.79954
21
-3.16132
0
LINE
8
BLACK
6
CONTINUOUS
10
5.79954
20
-3.16132
11
5.79671
21
-3.16073
0
LINE
8
BLACK
6
CONTINUOUS
10
5.79671
20
-3.16073
11
5.79654
21
-3.16069
0
LINE
8
BLACK
6
CONTINUOUS
10
5.79654
20
-3.16069
11
5.79374
21
-3.16001
0
LINE
8
BLACK
6
CONTINUOUS
10
5.79374
20
-3.16001
11
5.79352
21
-3.15999
0
LINE
8
BLACK
6
CONTINUOUS
10
5.79352
20
-3.15999
11
5.79352
21
-3.15999
0
LINE
8
BLACK
6
CONTINUOUS
10
5.79352
20
-3.15999
11
5.79329
21
-3.15998
0
LINE
8
BLACK
6
CONTINUOUS
10
5.79329
20
-3.15998
11
5.79329
21
-3.15998
0
LINE
8
BLACK
6
CONTINUOUS
10
5.79329
20
-3.15998
11
5.79314
21
-3.15997
0
LINE
8
BLACK
6
CONTINUOUS
10
5.79314
20
-3.15997
11
5.79297
21
-3.15995
0
LINE
8
BLACK
6
CONTINUOUS
10
5.79297
20
-3.15995
11
5.79269
21
-3.1599
0
LINE
8
BLACK
6
CONTINUOUS
10
5.79269
20
-3.1599
11
5.7924
21
-3.1599
0
LINE
8
BLACK
6
CONTINUOUS
10
5.7924
20
-3.1599
11
5.78962
21
-3.15998
0
LINE
8
BLACK
6
CONTINUOUS
10
5.78962
20
-3.15998
11
5.78949
21
-3.15998
0
LINE
8
BLACK
6
CONTINUOUS
10
5.78949
20
-3.15998
11
5.39449
21
-3.15998
0
LINE
8
BLACK
6
CONTINUOUS
10
5.39449
20
-3.15998
11
5.39181
21
-3.15919
0
LINE
8
BLACK
6
CONTINUOUS
10
5.39181
20
-3.15919
11
5.39098
21
-3.15853
0
LINE
8
BLACK
6
CONTINUOUS
10
5.39098
20
-3.15853
11
5.36638
21
-3.13392
0
LINE
8
BLACK
6
CONTINUOUS
10
5.36638
20
-3.13392
11
5.36504
21
-3.13147
0
LINE
8
BLACK
6
CONTINUOUS
10
5.36504
20
-3.13147
11
5.36524
21
-3.12868
0
LINE
8
BLACK
6
CONTINUOUS
10
5.36524
20
-3.12868
11
5.36691
21
-3.12644
0
LINE
8
BLACK
6
CONTINUOUS
10
5.36691
20
-3.12644
11
5.36953
21
-3.12547
0
LINE
8
BLACK
6
CONTINUOUS
10
5.36953
20
-3.12547
11
5.36988
21
-3.12545
0
LINE
8
BLACK
6
CONTINUOUS
10
5.36988
20
-3.12545
11
5.37237
21
-3.12545
0
LINE
8
BLACK
6
CONTINUOUS
10
5.37237
20
-3.12545
11
5.37482
21
-3.12519
0
LINE
8
BLACK
6
CONTINUOUS
10
5.37482
20
-3.12519
11
5.38019
21
-3.12317
0
LINE
8
BLACK
6
CONTINUOUS
10
5.38019
20
-3.12317
11
5.38477
21
-3.11973
0
LINE
8
BLACK
6
CONTINUOUS
10
5.38477
20
-3.11973
11
5.38821
21
-3.11515
0
LINE
8
BLACK
6
CONTINUOUS
10
5.38821
20
-3.11515
11
5.39023
21
-3.10978
0
LINE
8
BLACK
6
CONTINUOUS
10
5.39023
20
-3.10978
11
5.39049
21
-3.10733
0
LINE
8
BLACK
6
CONTINUOUS
10
5.39049
20
-3.10733
11
5.39049
21
-3.03267
0
LINE
8
BLACK
6
CONTINUOUS
10
5.39049
20
-3.03267
11
5.39023
21
-3.03022
0
LINE
8
BLACK
6
CONTINUOUS
10
5.39023
20
-3.03022
11
5.38821
21
-3.02485
0
LINE
8
BLACK
6
CONTINUOUS
10
5.38821
20
-3.02485
11
5.38477
21
-3.02027
0
LINE
8
BLACK
6
CONTINUOUS
10
5.38477
20
-3.02027
11
5.38019
21
-3.01683
0
LINE
8
BLACK
6
CONTINUOUS
10
5.38019
20
-3.01683
11
5.37482
21
-3.01481
0
LINE
8
BLACK
6
CONTINUOUS
10
5.37482
20
-3.01481
11
5.37237
21
-3.01455
0
LINE
8
BLACK
6
CONTINUOUS
10
5.37237
20
-3.01455
11
5.27015
21
-3.01455
0
LINE
8
BLACK
6
CONTINUOUS
10
5.27015
20
-3.01455
11
5.2677
21
-3.01481
0
LINE
8
BLACK
6
CONTINUOUS
10
5.2677
20
-3.01481
11
5.26233
21
-3.01683
0
LINE
8
BLACK
6
CONTINUOUS
10
5.26233
20
-3.01683
11
5.25775
21
-3.02027
0
LINE
8
BLACK
6
CONTINUOUS
10
5.25775
20
-3.02027
11
5.25431
21
-3.02485
0
LINE
8
BLACK
6
CONTINUOUS
10
5.25431
20
-3.02485
11
5.25229
21
-3.03022
0
LINE
8
BLACK
6
CONTINUOUS
10
5.25229
20
-3.03022
11
5.25203
21
-3.03267
0
LINE
8
BLACK
6
CONTINUOUS
10
5.25203
20
-3.03267
11
5.25203
21
-3.03502
0
LINE
8
BLACK
6
CONTINUOUS
10
5.25203
20
-3.03502
11
5.25124
21
-3.0377
0
LINE
8
BLACK
6
CONTINUOUS
10
5.25124
20
-3.0377
11
5.24913
21
-3.03953
0
LINE
8
BLACK
6
CONTINUOUS
10
5.24913
20
-3.03953
11
5.24707
21
-3.03998
0
LINE
8
BLACK
6
CONTINUOUS
10
5.24707
20
-3.03998
11
5.24265
21
-3.03998
0
LINE
8
BLACK
6
CONTINUOUS
10
5.24265
20
-3.03998
11
5.24191
21
-3.03992
0
LINE
8
BLACK
6
CONTINUOUS
10
5.24191
20
-3.03992
11
5.24134
21
-3.03984
0
LINE
8
BLACK
6
CONTINUOUS
10
5.24134
20
-3.03984
11
5.24134
21
-3.03984
0
LINE
8
BLACK
6
CONTINUOUS
10
5.24134
20
-3.03984
11
5.24105
21
-3.03979
0
LINE
8
BLACK
6
CONTINUOUS
10
5.24105
20
-3.03979
11
5.24077
21
-3.03982
0
LINE
8
BLACK
6
CONTINUOUS
10
5.24077
20
-3.03982
11
5.24077
21
-3.03982
0
LINE
8
BLACK
6
CONTINUOUS
10
5.24077
20
-3.03982
11
5.23897
21
-3.03996
0
LINE
8
BLACK
6
CONTINUOUS
10
5.23897
20
-3.03996
11
5.23857
21
-3.03998
0
LINE
8
BLACK
6
CONTINUOUS
10
5.23857
20
-3.03998
11
5.23825
21
-3.03998
0
LINE
8
BLACK
6
CONTINUOUS
10
5.23825
20
-3.03998
11
5.2381
21
-3.04
0
LINE
8
BLACK
6
CONTINUOUS
10
5.2381
20
-3.04
11
5.2381
21
-3.04
0
LINE
8
BLACK
6
CONTINUOUS
10
5.2381
20
-3.04
11
5.23797
21
-3.04001
0
LINE
8
BLACK
6
CONTINUOUS
10
5.23797
20
-3.04001
11
5.23713
21
-3.04011
0
LINE
8
BLACK
6
CONTINUOUS
10
5.23713
20
-3.04011
11
5.23696
21
-3.04013
0
LINE
8
BLACK
6
CONTINUOUS
10
5.23696
20
-3.04013
11
5.23408
21
-3.04036
0
LINE
8
BLACK
6
CONTINUOUS
10
5.23408
20
-3.04036
11
5.2338
21
-3.04045
0
LINE
8
BLACK
6
CONTINUOUS
10
5.2338
20
-3.04045
11
5.23357
21
-3.0405
0
LINE
8
BLACK
6
CONTINUOUS
10
5.23357
20
-3.0405
11
5.23333
21
-3.04055
0
LINE
8
BLACK
6
CONTINUOUS
10
5.23333
20
-3.04055
11
5.23305
21
-3.04059
0
LINE
8
BLACK
6
CONTINUOUS
10
5.23305
20
-3.04059
11
5.23278
21
-3.04068
0
LINE
8
BLACK
6
CONTINUOUS
10
5.23278
20
-3.04068
11
5.23278
21
-3.04068
0
LINE
8
BLACK
6
CONTINUOUS
10
5.23278
20
-3.04068
11
5.23033
21
-3.04157
0
LINE
8
BLACK
6
CONTINUOUS
10
5.23033
20
-3.04157
11
5.23017
21
-3.04163
0
LINE
8
BLACK
6
CONTINUOUS
10
5.23017
20
-3.04163
11
5.22742
21
-3.04252
0
LINE
8
BLACK
6
CONTINUOUS
10
5.22742
20
-3.04252
11
5.22717
21
-3.04267
0
LINE
8
BLACK
6
CONTINUOUS
10
5.22717
20
-3.04267
11
5.22695
21
-3.04277
0
LINE
8
BLACK
6
CONTINUOUS
10
5.22695
20
-3.04277
11
5.22674
21
-3.04288
0
LINE
8
BLACK
6
CONTINUOUS
10
5.22674
20
-3.04288
11
5.22647
21
-3.04298
0
LINE
8
BLACK
6
CONTINUOUS
10
5.22647
20
-3.04298
11
5.22623
21
-3.04313
0
LINE
8
BLACK
6
CONTINUOUS
10
5.22623
20
-3.04313
11
5.22405
21
-3.04456
0
LINE
8
BLACK
6
CONTINUOUS
10
5.22405
20
-3.04456
11
5.22391
21
-3.04465
0
LINE
8
BLACK
6
CONTINUOUS
10
5.22391
20
-3.04465
11
5.22143
21
-3.04615
0
LINE
8
BLACK
6
CONTINUOUS
10
5.22143
20
-3.04615
11
5.22127
21
-3.0463
0
LINE
8
BLACK
6
CONTINUOUS
10
5.22127
20
-3.0463
11
5.22127
21
-3.0463
0
LINE
8
BLACK
6
CONTINUOUS
10
5.22127
20
-3.0463
11
5.2211
21
-3.04644
0
LINE
8
BLACK
6
CONTINUOUS
10
5.2211
20
-3.04644
11
5.2211
21
-3.04644
0
LINE
8
BLACK
6
CONTINUOUS
10
5.2211
20
-3.04644
11
5.22099
21
-3.04654
0
LINE
8
BLACK
6
CONTINUOUS
10
5.22099
20
-3.04654
11
5.22085
21
-3.04666
0
LINE
8
BLACK
6
CONTINUOUS
10
5.22085
20
-3.04666
11
5.22061
21
-3.04681
0
LINE
8
BLACK
6
CONTINUOUS
10
5.22061
20
-3.04681
11
5.22041
21
-3.04702
0
LINE
8
BLACK
6
CONTINUOUS
10
5.22041
20
-3.04702
11
5.2185
21
-3.04904
0
LINE
8
BLACK
6
CONTINUOUS
10
5.2185
20
-3.04904
11
5.21841
21
-3.04913
0
LINE
8
BLACK
6
CONTINUOUS
10
5.21841
20
-3.04913
11
5.14065
21
-3.1269
0
LINE
8
BLACK
6
CONTINUOUS
10
5.14065
20
-3.1269
11
5.14008
21
-3.12738
0
LINE
8
BLACK
6
CONTINUOUS
10
5.14008
20
-3.12738
11
5.13939
21
-3.1279
0
LINE
8
BLACK
6
CONTINUOUS
10
5.13939
20
-3.1279
11
5.1392
21
-3.12812
0
LINE
8
BLACK
6
CONTINUOUS
10
5.1392
20
-3.12812
11
5.1392
21
-3.12812
0
LINE
8
BLACK
6
CONTINUOUS
10
5.1392
20
-3.12812
11
5.13803
21
-3.12949
0
LINE
8
BLACK
6
CONTINUOUS
10
5.13803
20
-3.12949
11
5.13776
21
-3.12979
0
LINE
8
BLACK
6
CONTINUOUS
10
5.13776
20
-3.12979
11
5.13753
21
-3.13001
0
LINE
8
BLACK
6
CONTINUOUS
10
5.13753
20
-3.13001
11
5.13744
21
-3.13013
0
LINE
8
BLACK
6
CONTINUOUS
10
5.13744
20
-3.13013
11
5.13744
21
-3.13013
0
LINE
8
BLACK
6
CONTINUOUS
10
5.13744
20
-3.13013
11
5.13684
21
-3.13089
0
LINE
8
BLACK
6
CONTINUOUS
10
5.13684
20
-3.13089
11
5.13673
21
-3.13103
0
LINE
8
BLACK
6
CONTINUOUS
10
5.13673
20
-3.13103
11
5.13504
21
-3.13301
0
LINE
8
BLACK
6
CONTINUOUS
10
5.13504
20
-3.13301
11
5.13504
21
-3.13301
0
LINE
8
BLACK
6
CONTINUOUS
10
5.13504
20
-3.13301
11
5.13485
21
-3.13323
0
LINE
8
BLACK
6
CONTINUOUS
10
5.13485
20
-3.13323
11
5.13472
21
-3.13349
0
LINE
8
BLACK
6
CONTINUOUS
10
5.13472
20
-3.13349
11
5.13459
21
-3.13369
0
LINE
8
BLACK
6
CONTINUOUS
10
5.13459
20
-3.13369
11
5.13446
21
-3.13389
0
LINE
8
BLACK
6
CONTINUOUS
10
5.13446
20
-3.13389
11
5.13429
21
-3.13412
0
LINE
8
BLACK
6
CONTINUOUS
10
5.13429
20
-3.13412
11
5.13416
21
-3.13438
0
LINE
8
BLACK
6
CONTINUOUS
10
5.13416
20
-3.13438
11
5.13306
21
-3.13674
0
LINE
8
BLACK
6
CONTINUOUS
10
5.13306
20
-3.13674
11
5.13299
21
-3.13689
0
LINE
8
BLACK
6
CONTINUOUS
10
5.13299
20
-3.13689
11
5.13232
21
-3.1382
0
LINE
8
BLACK
6
CONTINUOUS
10
5.13232
20
-3.1382
11
5.13167
21
-3.13946
0
LINE
8
BLACK
6
CONTINUOUS
10
5.13167
20
-3.13946
11
5.1316
21
-3.13974
0
LINE
8
BLACK
6
CONTINUOUS
10
5.1316
20
-3.13974
11
5.13152
21
-3.13997
0
LINE
8
BLACK
6
CONTINUOUS
10
5.13152
20
-3.13997
11
5.13144
21
-3.1402
0
LINE
8
BLACK
6
CONTINUOUS
10
5.13144
20
-3.1402
11
5.13132
21
-3.14046
0
LINE
8
BLACK
6
CONTINUOUS
10
5.13132
20
-3.14046
11
5.13126
21
-3.14074
0
LINE
8
BLACK
6
CONTINUOUS
10
5.13126
20
-3.14074
11
5.13073
21
-3.14329
0
LINE
8
BLACK
6
CONTINUOUS
10
5.13073
20
-3.14329
11
5.13069
21
-3.14346
0
LINE
8
BLACK
6
CONTINUOUS
10
5.13069
20
-3.14346
11
5.13001
21
-3.14626
0
LINE
8
BLACK
6
CONTINUOUS
10
5.13001
20
-3.14626
11
5.12998
21
-3.14671
0
LINE
8
BLACK
6
CONTINUOUS
10
5.12998
20
-3.14671
11
5.12998
21
-3.14671
0
LINE
8
BLACK
6
CONTINUOUS
10
5.12998
20
-3.14671
11
5.12997
21
-3.14686
0
LINE
8
BLACK
6
CONTINUOUS
10
5.12997
20
-3.14686
11
5.12995
21
-3.14703
0
LINE
8
BLACK
6
CONTINUOUS
10
5.12995
20
-3.14703
11
5.1299
21
-3.14731
0
LINE
8
BLACK
6
CONTINUOUS
10
5.1299
20
-3.14731
11
5.1299
21
-3.1476
0
LINE
8
BLACK
6
CONTINUOUS
10
5.1299
20
-3.1476
11
5.12998
21
-3.15038
0
LINE
8
BLACK
6
CONTINUOUS
10
5.12998
20
-3.15038
11
5.12998
21
-3.15051
0
LINE
8
BLACK
6
CONTINUOUS
10
5.12998
20
-3.15051
11
5.12998
21
-3.27551
0
LINE
8
BLACK
6
CONTINUOUS
10
5.12998
20
-3.27551
11
5.12919
21
-3.27819
0
LINE
8
BLACK
6
CONTINUOUS
10
5.12919
20
-3.27819
11
5.12853
21
-3.27902
0
LINE
8
BLACK
6
CONTINUOUS
10
5.12853
20
-3.27902
11
5.10847
21
-3.29908
0
LINE
8
BLACK
6
CONTINUOUS
10
5.10847
20
-3.29908
11
5.10602
21
-3.30042
0
LINE
8
BLACK
6
CONTINUOUS
10
5.10602
20
-3.30042
11
5.10323
21
-3.30022
0
LINE
8
BLACK
6
CONTINUOUS
10
5.10323
20
-3.30022
11
5.10099
21
-3.29854
0
LINE
8
BLACK
6
CONTINUOUS
10
5.10099
20
-3.29854
11
5.10001
21
-3.29592
0
LINE
8
BLACK
6
CONTINUOUS
10
5.10001
20
-3.29592
11
5.1
21
-3.29557
0
LINE
8
BLACK
6
CONTINUOUS
10
5.1
20
-3.29557
11
5.1
21
-3.26824
0
LINE
8
BLACK
6
CONTINUOUS
10
5.1
20
-3.26824
11
5.09999
21
-3.26797
0
LINE
8
BLACK
6
CONTINUOUS
10
5.09999
20
-3.26797
11
5.09977
21
-3.26597
0
LINE
8
BLACK
6
CONTINUOUS
10
5.09977
20
-3.26597
11
5.09963
21
-3.26537
0
LINE
8
BLACK
6
CONTINUOUS
10
5.09963
20
-3.26537
11
5.09785
21
-3.26063
0
LINE
8
BLACK
6
CONTINUOUS
10
5.09785
20
-3.26063
11
5.09751
21
-3.26001
0
LINE
8
BLACK
6
CONTINUOUS
10
5.09751
20
-3.26001
11
5.0945
21
-3.256
0
LINE
8
BLACK
6
CONTINUOUS
10
5.0945
20
-3.256
11
5.094
21
-3.2555
0
LINE
8
BLACK
6
CONTINUOUS
10
5.094
20
-3.2555
11
5.08999
21
-3.25249
0
LINE
8
BLACK
6
CONTINUOUS
10
5.08999
20
-3.25249
11
5.08937
21
-3.25215
0
LINE
8
BLACK
6
CONTINUOUS
10
5.08937
20
-3.25215
11
5.08463
21
-3.25037
0
LINE
8
BLACK
6
CONTINUOUS
10
5.08463
20
-3.25037
11
5.08403
21
-3.25023
0
LINE
8
BLACK
6
CONTINUOUS
10
5.08403
20
-3.25023
11
5.08203
21
-3.25001
0
LINE
8
BLACK
6
CONTINUOUS
10
5.08203
20
-3.25001
11
5.08176
21
-3.25
0
LINE
8
BLACK
6
CONTINUOUS
10
5.08176
20
-3.25
11
5.06071
21
-3.25
0
LINE
8
BLACK
6
CONTINUOUS
10
5.06071
20
-3.25
11
5.06011
21
-3.25018
0
LINE
8
BLACK
6
CONTINUOUS
10
5.06011
20
-3.25018
11
5.06007
21
-3.25023
0
LINE
8
BLACK
6
CONTINUOUS
10
5.06007
20
-3.25023
11
5.06
21
-3.25053
0
LINE
8
BLACK
6
CONTINUOUS
10
5.06
20
-3.25053
11
5.06
21
-3.27
0
LINE
8
BLACK
6
CONTINUOUS
10
5.06
20
-3.27
11
5.08
21
-3.27
0
LINE
8
BLACK
6
CONTINUOUS
10
5.08
20
-3.27
11
5.08
21
-3.33
0
LINE
8
BLACK
6
CONTINUOUS
10
5.08
20
-3.33
11
5.02
21
-3.33
0
LINE
8
BLACK
6
CONTINUOUS
10
5.02
20
-3.33
11
5.02
21
-3.31
0
LINE
8
BLACK
6
CONTINUOUS
10
5.02
20
-3.31
11
4.98
21
-3.31
0
LINE
8
BLACK
6
CONTINUOUS
10
4.98
20
-3.31
11
4.98
21
-3.33
0
LINE
8
BLACK
6
CONTINUOUS
10
4.98
20
-3.33
11
4.92
21
-3.33
0
LINE
8
BLACK
6
CONTINUOUS
10
4.92
20
-3.33
11
4.92
21
-3.31
0
LINE
8
BLACK
6
CONTINUOUS
10
4.92
20
-3.31
11
4.90071
21
-3.31
0
LINE
8
BLACK
6
CONTINUOUS
10
4.90071
20
-3.31
11
4.90011
21
-3.31018
0
LINE
8
BLACK
6
CONTINUOUS
10
4.90011
20
-3.31018
11
4.90007
21
-3.31023
0
LINE
8
BLACK
6
CONTINUOUS
10
4.90007
20
-3.31023
11
4.9
21
-3.31053
0
LINE
8
BLACK
6
CONTINUOUS
10
4.9
20
-3.31053
11
4.9
21
-3.33176
0
LINE
8
BLACK
6
CONTINUOUS
10
4.9
20
-3.33176
11
4.90001
21
-3.33203
0
LINE
8
BLACK
6
CONTINUOUS
10
4.90001
20
-3.33203
11
4.90023
21
-3.33403
0
LINE
8
BLACK
6
CONTINUOUS
10
4.90023
20
-3.33403
11
4.90037
21
-3.33463
0
LINE
8
BLACK
6
CONTINUOUS
10
4.90037
20
-3.33463
11
4.90215
21
-3.33937
0
LINE
8
BLACK
6
CONTINUOUS
10
4.90215
20
-3.33937
11
4.90249
21
-3.33999
0
LINE
8
BLACK
6
CONTINUOUS
10
4.90249
20
-3.33999
11
4.9055
21
-3.344
0
LINE
8
BLACK
6
CONTINUOUS
10
4.9055
20
-3.344
11
4.906
21
-3.3445
0
LINE
8
BLACK
6
CONTINUOUS
10
4.906
20
-3.3445
11
4.90802
21
-3.34602
0
LINE
8
BLACK
6
CONTINUOUS
10
4.90802
20
-3.34602
11
4.9097
21
-3.34826
0
LINE
8
BLACK
6
CONTINUOUS
10
4.9097
20
-3.34826
11
4.90989
21
-3.35104
0
LINE
8
BLACK
6
CONTINUOUS
10
4.90989
20
-3.35104
11
4.90855
21
-3.3535
0
LINE
8
BLACK
6
CONTINUOUS
10
4.90855
20
-3.3535
11
4.90802
21
-3.35396
0
LINE
8
BLACK
6
CONTINUOUS
10
4.90802
20
-3.35396
11
4.9057
21
-3.3557
0
LINE
8
BLACK
6
CONTINUOUS
10
4.9057
20
-3.3557
11
4.90226
21
-3.36029
0
LINE
8
BLACK
6
CONTINUOUS
10
4.90226
20
-3.36029
11
4.90025
21
-3.36566
0
LINE
8
BLACK
6
CONTINUOUS
10
4.90025
20
-3.36566
11
4.89998
21
-3.3681
0
LINE
8
BLACK
6
CONTINUOUS
10
4.89998
20
-3.3681
11
4.89998
21
-3.4319
0
LINE
8
BLACK
6
CONTINUOUS
10
4.89998
20
-3.4319
11
4.90025
21
-3.43434
0
LINE
8
BLACK
6
CONTINUOUS
10
4.90025
20
-3.43434
11
4.90226
21
-3.43971
0
LINE
8
BLACK
6
CONTINUOUS
10
5.27617
20
-3.75924
11
5.27293
21
-3.75707
0
LINE
8
BLACK
6
CONTINUOUS
10
5.27293
20
-3.75707
11
5.19293
21
-3.67707
0
LINE
8
BLACK
6
CONTINUOUS
10
5.19293
20
-3.67707
11
5.19285
21
-3.67695
0
LINE
8
BLACK
6
CONTINUOUS
10
5.19285
20
-3.67695
11
5.19076
21
-3.67383
0
LINE
8
BLACK
6
CONTINUOUS
10
5.19076
20
-3.67383
11
5.19
21
-3.67
0
LINE
8
BLACK
6
CONTINUOUS
10
5.19
20
-3.67
11
5.19
21
-3.55414
0
LINE
8
BLACK
6
CONTINUOUS
10
5.19
20
-3.55414
11
5.06586
21
-3.43
0
LINE
8
BLACK
6
CONTINUOUS
10
5.06586
20
-3.43
11
5.02
21
-3.43
0
LINE
8
BLACK
6
CONTINUOUS
10
5.02
20
-3.43
11
5.02
21
-3.41
0
LINE
8
BLACK
6
CONTINUOUS
10
5.02
20
-3.41
11
4.98
21
-3.41
0
LINE
8
BLACK
6
CONTINUOUS
10
4.98
20
-3.41
11
4.98
21
-3.43
0
LINE
8
BLACK
6
CONTINUOUS
10
4.98
20
-3.43
11
4.92
21
-3.43
0
LINE
8
BLACK
6
CONTINUOUS
10
4.92
20
-3.43
11
4.92
21
-3.37
0
LINE
8
BLACK
6
CONTINUOUS
10
4.92
20
-3.37
11
4.98
21
-3.37
0
LINE
8
BLACK
6
CONTINUOUS
10
4.98
20
-3.37
11
4.98
21
-3.39
0
LINE
8
BLACK
6
CONTINUOUS
10
4.98
20
-3.39
11
5.02
21
-3.39
0
LINE
8
BLACK
6
CONTINUOUS
10
5.02
20
-3.39
11
5.02
21
-3.37
0
LINE
8
BLACK
6
CONTINUOUS
10
5.02
20
-3.37
11
5.06586
21
-3.37
0
LINE
8
BLACK
6
CONTINUOUS
10
5.06586
20
-3.37
11
5.15
21
-3.28586
0
LINE
8
BLACK
6
CONTINUOUS
10
5.15
20
-3.28586
11
5.15
21
-3.15
0
LINE
8
BLACK
6
CONTINUOUS
10
5.15
20
-3.15
11
5.15076
21
-3.14617
0
LINE
8
BLACK
6
CONTINUOUS
10
5.15076
20
-3.14617
11
5.15293
21
-3.14293
0
LINE
8
BLACK
6
CONTINUOUS
10
5.15293
20
-3.14293
11
5.23293
21
-3.06293
0
LINE
8
BLACK
6
CONTINUOUS
10
5.23293
20
-3.06293
11
5.23617
21
-3.06076
0
LINE
8
BLACK
6
CONTINUOUS
10
5.23617
20
-3.06076
11
5.24
21
-3.06
0
LINE
8
BLACK
6
CONTINUOUS
10
5.24
20
-3.06
11
5.27205
21
-3.06
0
LINE
8
BLACK
6
CONTINUOUS
10
5.27205
20
-3.06
11
5.27205
21
-3.03457
0
LINE
8
BLACK
6
CONTINUOUS
10
5.27205
20
-3.03457
11
5.37047
21
-3.03457
0
LINE
8
BLACK
6
CONTINUOUS
10
5.37047
20
-3.03457
11
5.37047
21
-3.10543
0
LINE
8
BLACK
6
CONTINUOUS
10
5.37047
20
-3.10543
11
5.33126
21
-3.10543
0
LINE
8
BLACK
6
CONTINUOUS
10
5.33126
20
-3.10543
11
5.33126
21
-3.12712
0
LINE
8
BLACK
6
CONTINUOUS
10
5.33126
20
-3.12712
11
5.38414
21
-3.18
0
LINE
8
BLACK
6
CONTINUOUS
10
5.38414
20
-3.18
11
5.79
21
-3.18
0
LINE
8
BLACK
6
CONTINUOUS
10
5.79
20
-3.18
11
5.79383
21
-3.18076
0
LINE
8
BLACK
6
CONTINUOUS
10
5.79383
20
-3.18076
11
5.79707
21
-3.18293
0
LINE
8
BLACK
6
CONTINUOUS
10
5.79707
20
-3.18293
11
5.83414
21
-3.22
0
LINE
8
BLACK
6
CONTINUOUS
10
5.83414
20
-3.22
11
5.88
21
-3.22
0
LINE
8
BLACK
6
CONTINUOUS
10
5.88
20
-3.22
11
5.88
21
-3.28
0
LINE
8
BLACK
6
CONTINUOUS
10
5.88
20
-3.28
11
5.82
21
-3.28
0
LINE
8
BLACK
6
CONTINUOUS
10
5.82
20
-3.28
11
5.82
21
-3.23414
0
LINE
8
BLACK
6
CONTINUOUS
10
5.82
20
-3.23414
11
5.78586
21
-3.2
0
LINE
8
BLACK
6
CONTINUOUS
10
5.78586
20
-3.2
11
5.38
21
-3.2
0
LINE
8
BLACK
6
CONTINUOUS
10
5.38
20
-3.2
11
5.37617
21
-3.19924
0
LINE
8
BLACK
6
CONTINUOUS
10
5.37617
20
-3.19924
11
5.37293
21
-3.19707
0
LINE
8
BLACK
6
CONTINUOUS
10
5.37293
20
-3.19707
11
5.31419
21
-3.13833
0
LINE
8
BLACK
6
CONTINUOUS
10
5.31419
20
-3.13833
11
5.3141
21
-3.1382
0
LINE
8
BLACK
6
CONTINUOUS
10
5.3141
20
-3.1382
11
5.31202
21
-3.13509
0
LINE
8
BLACK
6
CONTINUOUS
10
5.31202
20
-3.13509
11
5.31126
21
-3.13126
0
LINE
8
BLACK
6
CONTINUOUS
10
5.31126
20
-3.13126
11
5.31126
21
-3.10543
0
LINE
8
BLACK
6
CONTINUOUS
10
5.31126
20
-3.10543
11
5.27205
21
-3.10543
0
LINE
8
BLACK
6
CONTINUOUS
10
5.27205
20
-3.10543
11
5.27205
21
-3.08
0
LINE
8
BLACK
6
CONTINUOUS
10
5.27205
20
-3.08
11
5.24414
21
-3.08
0
LINE
8
BLACK
6
CONTINUOUS
10
5.24414
20
-3.08
11
5.17
21
-3.15414
0
LINE
8
BLACK
6
CONTINUOUS
10
5.17
20
-3.15414
11
5.17
21
-3.29
0
LINE
8
BLACK
6
CONTINUOUS
10
5.17
20
-3.29
11
5.16924
21
-3.29383
0
LINE
8
BLACK
6
CONTINUOUS
10
5.16924
20
-3.29383
11
5.16707
21
-3.29707
0
LINE
8
BLACK
6
CONTINUOUS
10
5.16707
20
-3.29707
11
5.08
21
-3.38414
0
LINE
8
BLACK
6
CONTINUOUS
10
5.08
20
-3.38414
11
5.08
21
-3.41586
0
LINE
8
BLACK
6
CONTINUOUS
10
5.08
20
-3.41586
11
5.20707
21
-3.54293
0
LINE
8
BLACK
6
CONTINUOUS
10
5.20707
20
-3.54293
11
5.20924
21
-3.54617
0
LINE
8
BLACK
6
CONTINUOUS
10
5.20924
20
-3.54617
11
5.20986
21
-3.54931
0
LINE
8
BLACK
6
CONTINUOUS
10
5.20986
20
-3.54931
11
5.21
21
-3.55
0
LINE
8
BLACK
6
CONTINUOUS
10
5.21
20
-3.55
11
5.21
21
-3.66586
0
LINE
8
BLACK
6
CONTINUOUS
10
5.21
20
-3.66586
11
5.28414
21
-3.74
0
LINE
8
BLACK
6
CONTINUOUS
10
5.28414
20
-3.74
11
5.50586
21
-3.74
0
LINE
8
BLACK
6
CONTINUOUS
10
5.50586
20
-3.74
11
5.5274
21
-3.71846
0
LINE
8
BLACK
6
CONTINUOUS
10
5.5274
20
-3.71846
11
5.5274
21
-3.68851
0
LINE
8
BLACK
6
CONTINUOUS
10
5.5274
20
-3.68851
11
5.52379
21
-3.68779
0
LINE
8
BLACK
6
CONTINUOUS
10
5.52379
20
-3.68779
11
5.5206
21
-3.68566
0
LINE
8
BLACK
6
CONTINUOUS
10
5.5206
20
-3.68566
11
5.51847
21
-3.68247
0
LINE
8
BLACK
6
CONTINUOUS
10
5.51847
20
-3.68247
11
5.51772
21
-3.6787
0
LINE
8
BLACK
6
CONTINUOUS
10
5.51772
20
-3.6787
11
5.51772
21
-3.6413
0
LINE
8
BLACK
6
CONTINUOUS
10
5.51772
20
-3.6413
11
5.51847
21
-3.63753
0
LINE
8
BLACK
6
CONTINUOUS
10
5.51847
20
-3.63753
11
5.5206
21
-3.63434
0
LINE
8
BLACK
6
CONTINUOUS
10
5.5206
20
-3.63434
11
5.52379
21
-3.63221
0
LINE
8
BLACK
6
CONTINUOUS
10
5.52379
20
-3.63221
11
5.5274
21
-3.63149
0
LINE
8
BLACK
6
CONTINUOUS
10
5.5274
20
-3.63149
11
5.5274
21
-3.598
0
LINE
8
BLACK
6
CONTINUOUS
10
5.5274
20
-3.598
11
5.52639
21
-3.59779
0
LINE
8
BLACK
6
CONTINUOUS
10
5.52639
20
-3.59779
11
5.5232
21
-3.59566
0
LINE
8
BLACK
6
CONTINUOUS
10
5.5232
20
-3.59566
11
5.52106
21
-3.59247
0
LINE
8
BLACK
6
CONTINUOUS
10
5.52106
20
-3.59247
11
5.52031
21
-3.5887
0
LINE
8
BLACK
6
CONTINUOUS
10
5.52031
20
-3.5887
11
5.52031
21
-3.5513
0
LINE
8
BLACK
6
CONTINUOUS
10
5.52031
20
-3.5513
11
5.52106
21
-3.54753
0
LINE
8
BLACK
6
CONTINUOUS
10
5.52106
20
-3.54753
11
5.5232
21
-3.54434
0
LINE
8
BLACK
6
CONTINUOUS
10
5.5232
20
-3.54434
11
5.52639
21
-3.54221
0
LINE
8
BLACK
6
CONTINUOUS
10
5.52639
20
-3.54221
11
5.53
21
-3.54149
0
LINE
8
BLACK
6
CONTINUOUS
10
5.53
20
-3.54149
11
5.53
21
-3.4878
0
LINE
8
BLACK
6
CONTINUOUS
10
5.53
20
-3.4878
11
5.5122
21
-3.4878
0
LINE
8
BLACK
6
CONTINUOUS
10
5.5122
20
-3.4878
11
5.5122
21
-3.4622
0
LINE
8
BLACK
6
CONTINUOUS
10
5.5122
20
-3.4622
11
5.57717
21
-3.4622
0
LINE
8
BLACK
6
CONTINUOUS
10
5.57717
20
-3.4622
11
5.57717
21
-3.4878
0
LINE
8
BLACK
6
CONTINUOUS
10
5.57717
20
-3.4878
11
5.55
21
-3.4878
0
LINE
8
BLACK
6
CONTINUOUS
10
5.55
20
-3.4878
11
5.55
21
-3.54149
0
LINE
8
BLACK
6
CONTINUOUS
10
5.55
20
-3.54149
11
5.55361
21
-3.54221
0
LINE
8
BLACK
6
CONTINUOUS
10
5.55361
20
-3.54221
11
5.5568
21
-3.54434
0
LINE
8
BLACK
6
CONTINUOUS
10
5.5568
20
-3.54434
11
5.55894
21
-3.54753
0
LINE
8
BLACK
6
CONTINUOUS
10
5.55894
20
-3.54753
11
5.55969
21
-3.5513
0
LINE
8
BLACK
6
CONTINUOUS
10
5.55969
20
-3.5513
11
5.55969
21
-3.5887
0
LINE
8
BLACK
6
CONTINUOUS
10
5.55969
20
-3.5887
11
5.55894
21
-3.59247
0
LINE
8
BLACK
6
CONTINUOUS
10
5.55894
20
-3.59247
11
5.5568
21
-3.59566
0
LINE
8
BLACK
6
CONTINUOUS
10
5.5568
20
-3.59566
11
5.55361
21
-3.59779
0
LINE
8
BLACK
6
CONTINUOUS
10
5.55361
20
-3.59779
11
5.54984
21
-3.59854
0
LINE
8
BLACK
6
CONTINUOUS
10
5.54984
20
-3.59854
11
5.5474
21
-3.59854
0
LINE
8
BLACK
6
CONTINUOUS
10
5.5474
20
-3.59854
11
5.5474
21
-3.63149
0
LINE
8
BLACK
6
CONTINUOUS
10
5.5474
20
-3.63149
11
5.55101
21
-3.63221
0
LINE
8
BLACK
6
CONTINUOUS
10
5.55101
20
-3.63221
11
5.5542
21
-3.63434
0
LINE
8
BLACK
6
CONTINUOUS
10
5.5542
20
-3.63434
11
5.55634
21
-3.63753
0
LINE
8
BLACK
6
CONTINUOUS
10
5.55634
20
-3.63753
11
5.55709
21
-3.6413
0
LINE
8
BLACK
6
CONTINUOUS
10
5.55709
20
-3.6413
11
5.55709
21
-3.6787
0
LINE
8
BLACK
6
CONTINUOUS
10
5.55709
20
-3.6787
11
5.55634
21
-3.68247
0
LINE
8
BLACK
6
CONTINUOUS
10
5.55634
20
-3.68247
11
5.5542
21
-3.68566
0
LINE
8
BLACK
6
CONTINUOUS
10
5.5542
20
-3.68566
11
5.55101
21
-3.68779
0
LINE
8
BLACK
6
CONTINUOUS
10
5.55101
20
-3.68779
11
5.5474
21
-3.68851
0
LINE
8
BLACK
6
CONTINUOUS
10
5.5474
20
-3.68851
11
5.5474
21
-3.7226
0
LINE
8
BLACK
6
CONTINUOUS
10
5.5474
20
-3.7226
11
5.54664
21
-3.72643
0
LINE
8
BLACK
6
CONTINUOUS
10
5.54664
20
-3.72643
11
5.54447
21
-3.72967
0
LINE
8
BLACK
6
CONTINUOUS
10
5.54447
20
-3.72967
11
5.51707
21
-3.75707
0
LINE
8
BLACK
6
CONTINUOUS
10
5.51707
20
-3.75707
11
5.51383
21
-3.75924
0
LINE
8
BLACK
6
CONTINUOUS
10
5.51383
20
-3.75924
11
5.51
21
-3.76
0
LINE
8
BLACK
6
CONTINUOUS
10
5.51
20
-3.76
11
5.28
21
-3.76
0
LINE
8
BLACK
6
CONTINUOUS
10
5.28
20
-3.76
11
5.27617
21
-3.75924
0
LINE
8
BLACK
6
CONTINUOUS
10
5.78
20
-3.48
11
5.72
21
-3.48
0
LINE
8
BLACK
6
CONTINUOUS
10
5.72
20
-3.48
11
5.72
21
-3.45787
0
LINE
8
BLACK
6
CONTINUOUS
10
5.72
20
-3.45787
11
5.69326
21
-3.45787
0
LINE
8
BLACK
6
CONTINUOUS
10
5.69326
20
-3.45787
11
5.67787
21
-3.47326
0
LINE
8
BLACK
6
CONTINUOUS
10
5.67787
20
-3.47326
11
5.67787
21
-3.58656
0
LINE
8
BLACK
6
CONTINUOUS
10
5.67787
20
-3.58656
11
5.67926
21
-3.58726
0
LINE
8
BLACK
6
CONTINUOUS
10
5.67926
20
-3.58726
11
5.68274
21
-3.59074
0
LINE
8
BLACK
6
CONTINUOUS
10
5.68274
20
-3.59074
11
5.68498
21
-3.59513
0
LINE
8
BLACK
6
CONTINUOUS
10
5.68498
20
-3.59513
11
5.68575
21
-3.6
0
LINE
8
BLACK
6
CONTINUOUS
10
5.68575
20
-3.6
11
5.68498
21
-3.60487
0
LINE
8
BLACK
6
CONTINUOUS
10
5.68498
20
-3.60487
11
5.68274
21
-3.60926
0
LINE
8
BLACK
6
CONTINUOUS
10
5.68274
20
-3.60926
11
5.67926
21
-3.61274
0
LINE
8
BLACK
6
CONTINUOUS
10
5.67926
20
-3.61274
11
5.67487
21
-3.61498
0
LINE
8
BLACK
6
CONTINUOUS
10
5.67487
20
-3.61498
11
5.67
21
-3.61575
0
LINE
8
BLACK
6
CONTINUOUS
10
5.67
20
-3.61575
11
5.66513
21
-3.61498
0
LINE
8
BLACK
6
CONTINUOUS
10
5.66513
20
-3.61498
11
5.66074
21
-3.61274
0
LINE
8
BLACK
6
CONTINUOUS
10
5.66074
20
-3.61274
11
5.65726
21
-3.60926
0
LINE
8
BLACK
6
CONTINUOUS
10
5.65726
20
-3.60926
11
5.65502
21
-3.60487
0
LINE
8
BLACK
6
CONTINUOUS
10
5.65502
20
-3.60487
11
5.65425
21
-3.6
0
LINE
8
BLACK
6
CONTINUOUS
10
5.65425
20
-3.6
11
5.65502
21
-3.59513
0
LINE
8
BLACK
6
CONTINUOUS
10
5.65502
20
-3.59513
11
5.65726
21
-3.59074
0
LINE
8
BLACK
6
CONTINUOUS
10
5.65726
20
-3.59074
11
5.66074
21
-3.58726
0
LINE
8
BLACK
6
CONTINUOUS
10
5.66074
20
-3.58726
11
5.66213
21
-3.58656
0
LINE
8
BLACK
6
CONTINUOUS
10
5.66213
20
-3.58656
11
5.66213
21
-3.46999
0
LINE
8
BLACK
6
CONTINUOUS
10
5.66213
20
-3.46999
11
5.66242
21
-3.4687
0
LINE
8
BLACK
6
CONTINUOUS
10
5.66242
20
-3.4687
11
5.66257
21
-3.4674
0
LINE
8
BLACK
6
CONTINUOUS
10
5.66257
20
-3.4674
11
5.66281
21
-3.46701
0
LINE
8
BLACK
6
CONTINUOUS
10
5.66281
20
-3.46701
11
5.66291
21
-3.46657
0
LINE
8
BLACK
6
CONTINUOUS
10
5.66291
20
-3.46657
11
5.66373
21
-3.46555
0
LINE
8
BLACK
6
CONTINUOUS
10
5.66373
20
-3.46555
11
5.66443
21
-3.46443
0
LINE
8
BLACK
6
CONTINUOUS
10
5.66443
20
-3.46443
11
5.68444
21
-3.44442
0
LINE
8
BLACK
6
CONTINUOUS
10
5.68444
20
-3.44442
11
5.68556
21
-3.44372
0
LINE
8
BLACK
6
CONTINUOUS
10
5.68556
20
-3.44372
11
5.68659
21
-3.4429
0
LINE
8
BLACK
6
CONTINUOUS
10
5.68659
20
-3.4429
11
5.68703
21
-3.4428
0
LINE
8
BLACK
6
CONTINUOUS
10
5.68703
20
-3.4428
11
5.68741
21
-3.44256
0
LINE
8
BLACK
6
CONTINUOUS
10
5.68741
20
-3.44256
11
5.68872
21
-3.44242
0
LINE
8
BLACK
6
CONTINUOUS
10
5.68872
20
-3.44242
11
5.69
21
-3.44213
0
LINE
8
BLACK
6
CONTINUOUS
10
5.69
20
-3.44213
11
5.72
21
-3.44213
0
LINE
8
BLACK
6
CONTINUOUS
10
5.72
20
-3.44213
11
5.72
21
-3.42
0
LINE
8
BLACK
6
CONTINUOUS
10
5.72
20
-3.42
11
5.78
21
-3.42
0
LINE
8
BLACK
6
CONTINUOUS
10
5.78
20
-3.42
11
5.78
21
-3.48
0
LINE
8
BLACK
6
CONTINUOUS
10
5.78
20
-3.58
11
5.72
21
-3.58
0
LINE
8
BLACK
6
CONTINUOUS
10
5.72
20
-3.58
11
5.72
21
-3.52
0
LINE
8
BLACK
6
CONTINUOUS
10
5.72
20
-3.52
11
5.78
21
-3.52
0
LINE
8
BLACK
6
CONTINUOUS
10
5.78
20
-3.52
11
5.78
21
-3.58
0
LINE
8
BLACK
6
CONTINUOUS
10
5.57717
20
-3.4378
11
5.5122
21
-3.4378
0
LINE
8
BLACK
6
CONTINUOUS
10
5.5122
20
-3.4378
11
5.5122
21
-3.4122
0
LINE
8
BLACK
6
CONTINUOUS
10
5.5122
20
-3.4122
11
5.57717
21
-3.4122
0
LINE
8
BLACK
6
CONTINUOUS
10
5.57717
20
-3.4122
11
5.57717
21
-3.4378
0
LINE
8
BLACK
6
CONTINUOUS
10
5.17992
20
-3.31262
11
5.18038
21
-3.31228
0
LINE
8
BLACK
6
CONTINUOUS
10
5.18038
20
-3.31228
11
5.18061
21
-3.3121
0
LINE
8
BLACK
6
CONTINUOUS
10
5.18061
20
-3.3121
11
5.18197
21
-3.31051
0
LINE
8
BLACK
6
CONTINUOUS
10
5.18197
20
-3.31051
11
5.18224
21
-3.31021
0
LINE
8
BLACK
6
CONTINUOUS
10
5.18224
20
-3.31021
11
5.18247
21
-3.30999
0
LINE
8
BLACK
6
CONTINUOUS
10
5.18247
20
-3.30999
11
5.18256
21
-3.30987
0
LINE
8
BLACK
6
CONTINUOUS
10
5.18256
20
-3.30987
11
5.18256
21
-3.30987
0
LINE
8
BLACK
6
CONTINUOUS
10
5.18256
20
-3.30987
11
5.18316
21
-3.30911
0
LINE
8
BLACK
6
CONTINUOUS
10
5.18316
20
-3.30911
11
5.18327
21
-3.30897
0
LINE
8
BLACK
6
CONTINUOUS
10
5.18327
20
-3.30897
11
5.18496
21
-3.30699
0
LINE
8
BLACK
6
CONTINUOUS
10
5.18496
20
-3.30699
11
5.18496
21
-3.30699
0
LINE
8
BLACK
6
CONTINUOUS
10
5.18496
20
-3.30699
11
5.18515
21
-3.30677
0
LINE
8
BLACK
6
CONTINUOUS
10
5.18515
20
-3.30677
11
5.18528
21
-3.30651
0
LINE
8
BLACK
6
CONTINUOUS
10
5.18528
20
-3.30651
11
5.18541
21
-3.30631
0
LINE
8
BLACK
6
CONTINUOUS
10
5.18541
20
-3.30631
11
5.18554
21
-3.30611
0
LINE
8
BLACK
6
CONTINUOUS
10
5.18554
20
-3.30611
11
5.18571
21
-3.30588
0
LINE
8
BLACK
6
CONTINUOUS
10
5.18571
20
-3.30588
11
5.18694
21
-3.30326
0
LINE
8
BLACK
6
CONTINUOUS
10
5.18694
20
-3.30326
11
5.18701
21
-3.30311
0
LINE
8
BLACK
6
CONTINUOUS
10
5.18701
20
-3.30311
11
5.18833
21
-3.30054
0
LINE
8
BLACK
6
CONTINUOUS
10
5.18833
20
-3.30054
11
5.1884
21
-3.30026
0
LINE
8
BLACK
6
CONTINUOUS
10
5.1884
20
-3.30026
11
5.18848
21
-3.30003
0
LINE
8
BLACK
6
CONTINUOUS
10
5.18848
20
-3.30003
11
5.18856
21
-3.2998
0
LINE
8
BLACK
6
CONTINUOUS
10
5.18856
20
-3.2998
11
5.18868
21
-3.29954
0
LINE
8
BLACK
6
CONTINUOUS
10
5.18868
20
-3.29954
11
5.18927
21
-3.29671
0
LINE
8
BLACK
6
CONTINUOUS
10
5.18927
20
-3.29671
11
5.18931
21
-3.29654
0
LINE
8
BLACK
6
CONTINUOUS
10
5.18931
20
-3.29654
11
5.18943
21
-3.29603
0
LINE
8
BLACK
6
CONTINUOUS
10
5.18943
20
-3.29603
11
5.18999
21
-3.29374
0
LINE
8
BLACK
6
CONTINUOUS
10
5.18999
20
-3.29374
11
5.19002
21
-3.29329
0
LINE
8
BLACK
6
CONTINUOUS
10
5.19002
20
-3.29329
11
5.19002
21
-3.29329
0
LINE
8
BLACK
6
CONTINUOUS
10
5.19002
20
-3.29329
11
5.19003
21
-3.29314
0
LINE
8
BLACK
6
CONTINUOUS
10
5.19003
20
-3.29314
11
5.19005
21
-3.29297
0
LINE
8
BLACK
6
CONTINUOUS
10
5.19005
20
-3.29297
11
5.1901
21
-3.29269
0
LINE
8
BLACK
6
CONTINUOUS
10
5.1901
20
-3.29269
11
5.19002
21
-3.28962
0
LINE
8
BLACK
6
CONTINUOUS
10
5.19002
20
-3.28962
11
5.19002
21
-3.28949
0
LINE
8
BLACK
6
CONTINUOUS
10
5.19002
20
-3.28949
11
5.19002
21
-3.16449
0
LINE
8
BLACK
6
CONTINUOUS
10
5.19002
20
-3.16449
11
5.19081
21
-3.16181
0
LINE
8
BLACK
6
CONTINUOUS
10
5.19081
20
-3.16181
11
5.19147
21
-3.16098
0
LINE
8
BLACK
6
CONTINUOUS
10
5.19147
20
-3.16098
11
5.24422
21
-3.10823
0
LINE
8
BLACK
6
CONTINUOUS
10
5.24422
20
-3.10823
11
5.24668
21
-3.10689
0
LINE
8
BLACK
6
CONTINUOUS
10
5.24668
20
-3.10689
11
5.24946
21
-3.10709
0
LINE
8
BLACK
6
CONTINUOUS
10
5.24946
20
-3.10709
11
5.2517
21
-3.10877
0
LINE
8
BLACK
6
CONTINUOUS
10
5.2517
20
-3.10877
11
5.25238
21
-3.11
0
LINE
8
BLACK
6
CONTINUOUS
10
5.25238
20
-3.11
11
5.25418
21
-3.11481
0
LINE
8
BLACK
6
CONTINUOUS
10
5.25418
20
-3.11481
11
5.25431
21
-3.11515
0
LINE
8
BLACK
6
CONTINUOUS
10
5.25431
20
-3.11515
11
5.25775
21
-3.11973
0
LINE
8
BLACK
6
CONTINUOUS
10
5.25775
20
-3.11973
11
5.26233
21
-3.12317
0
LINE
8
BLACK
6
CONTINUOUS
10
5.26233
20
-3.12317
11
5.2677
21
-3.12519
0
LINE
8
BLACK
6
CONTINUOUS
10
5.2677
20
-3.12519
11
5.27015
21
-3.12545
0
LINE
8
BLACK
6
CONTINUOUS
10
5.27015
20
-3.12545
11
5.28612
21
-3.12545
0
LINE
8
BLACK
6
CONTINUOUS
10
5.28612
20
-3.12545
11
5.2888
21
-3.12624
0
LINE
8
BLACK
6
CONTINUOUS
10
5.2888
20
-3.12624
11
5.29063
21
-3.12835
0
LINE
8
BLACK
6
CONTINUOUS
10
5.29063
20
-3.12835
11
5.291
21
-3.13021
0
LINE
8
BLACK
6
CONTINUOUS
10
5.291
20
-3.13021
11
5.29105
21
-3.13021
0
LINE
8
BLACK
6
CONTINUOUS
10
5.29105
20
-3.13021
11
5.29122
21
-3.13229
0
LINE
8
BLACK
6
CONTINUOUS
10
5.29122
20
-3.13229
11
5.29124
21
-3.13269
0
LINE
8
BLACK
6
CONTINUOUS
10
5.29124
20
-3.13269
11
5.29124
21
-3.13301
0
LINE
8
BLACK
6
CONTINUOUS
10
5.29124
20
-3.13301
11
5.29137
21
-3.13413
0
LINE
8
BLACK
6
CONTINUOUS
10
5.29137
20
-3.13413
11
5.29139
21
-3.1343
0
LINE
8
BLACK
6
CONTINUOUS
10
5.29139
20
-3.1343
11
5.29162
21
-3.13718
0
LINE
8
BLACK
6
CONTINUOUS
10
5.29162
20
-3.13718
11
5.29171
21
-3.13746
0
LINE
8
BLACK
6
CONTINUOUS
10
5.29171
20
-3.13746
11
5.29176
21
-3.13769
0
LINE
8
BLACK
6
CONTINUOUS
10
5.29176
20
-3.13769
11
5.29181
21
-3.13793
0
LINE
8
BLACK
6
CONTINUOUS
10
5.29181
20
-3.13793
11
5.29185
21
-3.13821
0
LINE
8
BLACK
6
CONTINUOUS
10
5.29185
20
-3.13821
11
5.29194
21
-3.13848
0
LINE
8
BLACK
6
CONTINUOUS
10
5.29194
20
-3.13848
11
5.29194
21
-3.13848
0
LINE
8
BLACK
6
CONTINUOUS
10
5.29194
20
-3.13848
11
5.29283
21
-3.14093
0
LINE
8
BLACK
6
CONTINUOUS
10
5.29283
20
-3.14093
11
5.29289
21
-3.14109
0
LINE
8
BLACK
6
CONTINUOUS
10
5.29289
20
-3.14109
11
5.29378
21
-3.14384
0
LINE
8
BLACK
6
CONTINUOUS
10
5.29378
20
-3.14384
11
5.29393
21
-3.14409
0
LINE
8
BLACK
6
CONTINUOUS
10
5.29393
20
-3.14409
11
5.29403
21
-3.14431
0
LINE
8
BLACK
6
CONTINUOUS
10
5.29403
20
-3.14431
11
5.29414
21
-3.14452
0
LINE
8
BLACK
6
CONTINUOUS
10
5.29414
20
-3.14452
11
5.29423
21
-3.14479
0
LINE
8
BLACK
6
CONTINUOUS
10
5.29423
20
-3.14479
11
5.29439
21
-3.14503
0
LINE
8
BLACK
6
CONTINUOUS
10
5.29439
20
-3.14503
11
5.29582
21
-3.14721
0
LINE
8
BLACK
6
CONTINUOUS
10
5.29582
20
-3.14721
11
5.29591
21
-3.14735
0
LINE
8
BLACK
6
CONTINUOUS
10
5.29591
20
-3.14735
11
5.29741
21
-3.14983
0
LINE
8
BLACK
6
CONTINUOUS
10
5.29741
20
-3.14983
11
5.29756
21
-3.14999
0
LINE
8
BLACK
6
CONTINUOUS
10
5.29756
20
-3.14999
11
5.29756
21
-3.14999
0
LINE
8
BLACK
6
CONTINUOUS
10
5.29756
20
-3.14999
11
5.2977
21
-3.15016
0
LINE
8
BLACK
6
CONTINUOUS
10
5.2977
20
-3.15016
11
5.2977
21
-3.15016
0
LINE
8
BLACK
6
CONTINUOUS
10
5.2977
20
-3.15016
11
5.2978
21
-3.15027
0
LINE
8
BLACK
6
CONTINUOUS
10
5.2978
20
-3.15027
11
5.29792
21
-3.15041
0
LINE
8
BLACK
6
CONTINUOUS
10
5.29792
20
-3.15041
11
5.29807
21
-3.15065
0
LINE
8
BLACK
6
CONTINUOUS
10
5.29807
20
-3.15065
11
5.29828
21
-3.15085
0
LINE
8
BLACK
6
CONTINUOUS
10
5.29828
20
-3.15085
11
5.3003
21
-3.15276
0
LINE
8
BLACK
6
CONTINUOUS
10
5.3003
20
-3.15276
11
5.30039
21
-3.15285
0
LINE
8
BLACK
6
CONTINUOUS
10
5.30039
20
-3.15285
11
5.3569
21
-3.20935
0
LINE
8
BLACK
6
CONTINUOUS
10
5.3569
20
-3.20935
11
5.35738
21
-3.20992
0
LINE
8
BLACK
6
CONTINUOUS
10
5.35738
20
-3.20992
11
5.3579
21
-3.21061
0
LINE
8
BLACK
6
CONTINUOUS
10
5.3579
20
-3.21061
11
5.35812
21
-3.2108
0
LINE
8
BLACK
6
CONTINUOUS
10
5.35812
20
-3.2108
11
5.35949
21
-3.21197
0
LINE
8
BLACK
6
CONTINUOUS
10
5.35949
20
-3.21197
11
5.35979
21
-3.21224
0
LINE
8
BLACK
6
CONTINUOUS
10
5.35979
20
-3.21224
11
5.36001
21
-3.21247
0
LINE
8
BLACK
6
CONTINUOUS
10
5.36001
20
-3.21247
11
5.36013
21
-3.21256
0
LINE
8
BLACK
6
CONTINUOUS
10
5.36013
20
-3.21256
11
5.36013
21
-3.21256
0
LINE
8
BLACK
6
CONTINUOUS
10
5.36013
20
-3.21256
11
5.36089
21
-3.21316
0
LINE
8
BLACK
6
CONTINUOUS
10
5.36089
20
-3.21316
11
5.36103
21
-3.21327
0
LINE
8
BLACK
6
CONTINUOUS
10
5.36103
20
-3.21327
11
5.36301
21
-3.21496
0
LINE
8
BLACK
6
CONTINUOUS
10
5.36301
20
-3.21496
11
5.36301
21
-3.21496
0
LINE
8
BLACK
6
CONTINUOUS
10
5.36301
20
-3.21496
11
5.36323
21
-3.21515
0
LINE
8
BLACK
6
CONTINUOUS
10
5.36323
20
-3.21515
11
5.36349
21
-3.21528
0
LINE
8
BLACK
6
CONTINUOUS
10
5.36349
20
-3.21528
11
5.36369
21
-3.21541
0
LINE
8
BLACK
6
CONTINUOUS
10
5.36369
20
-3.21541
11
5.36389
21
-3.21554
0
LINE
8
BLACK
6
CONTINUOUS
10
5.36389
20
-3.21554
11
5.36412
21
-3.21571
0
LINE
8
BLACK
6
CONTINUOUS
10
5.36412
20
-3.21571
11
5.36674
21
-3.21694
0
LINE
8
BLACK
6
CONTINUOUS
10
5.36674
20
-3.21694
11
5.36689
21
-3.21701
0
LINE
8
BLACK
6
CONTINUOUS
10
5.36689
20
-3.21701
11
5.36946
21
-3.21833
0
LINE
8
BLACK
6
CONTINUOUS
10
5.36946
20
-3.21833
11
5.36974
21
-3.2184
0
LINE
8
BLACK
6
CONTINUOUS
10
5.36974
20
-3.2184
11
5.36997
21
-3.21848
0
LINE
8
BLACK
6
CONTINUOUS
10
5.36997
20
-3.21848
11
5.3702
21
-3.21856
0
LINE
8
BLACK
6
CONTINUOUS
10
5.3702
20
-3.21856
11
5.37046
21
-3.21868
0
LINE
8
BLACK
6
CONTINUOUS
10
5.37046
20
-3.21868
11
5.37329
21
-3.21927
0
LINE
8
BLACK
6
CONTINUOUS
10
5.37329
20
-3.21927
11
5.37346
21
-3.21931
0
LINE
8
BLACK
6
CONTINUOUS
10
5.37346
20
-3.21931
11
5.37626
21
-3.21999
0
LINE
8
BLACK
6
CONTINUOUS
10
5.37626
20
-3.21999
11
5.37648
21
-3.22001
0
LINE
8
BLACK
6
CONTINUOUS
10
5.37648
20
-3.22001
11
5.37648
21
-3.22001
0
LINE
8
BLACK
6
CONTINUOUS
10
5.37648
20
-3.22001
11
5.37671
21
-3.22002
0
LINE
8
BLACK
6
CONTINUOUS
10
5.37671
20
-3.22002
11
5.37671
21
-3.22002
0
LINE
8
BLACK
6
CONTINUOUS
10
5.37671
20
-3.22002
11
5.37686
21
-3.22003
0
LINE
8
BLACK
6
CONTINUOUS
10
5.37686
20
-3.22003
11
5.37703
21
-3.22005
0
LINE
8
BLACK
6
CONTINUOUS
10
5.37703
20
-3.22005
11
5.37731
21
-3.2201
0
LINE
8
BLACK
6
CONTINUOUS
10
5.37731
20
-3.2201
11
5.38038
21
-3.22002
0
LINE
8
BLACK
6
CONTINUOUS
10
5.38038
20
-3.22002
11
5.38051
21
-3.22002
0
LINE
8
BLACK
6
CONTINUOUS
10
5.38051
20
-3.22002
11
5.45844
21
-3.22002
0
LINE
8
BLACK
6
CONTINUOUS
10
5.45844
20
-3.22002
11
5.46113
21
-3.22081
0
LINE
8
BLACK
6
CONTINUOUS
10
5.46113
20
-3.22081
11
5.46296
21
-3.22292
0
LINE
8
BLACK
6
CONTINUOUS
10
5.46296
20
-3.22292
11
5.46335
21
-3.22569
0
LINE
8
BLACK
6
CONTINUOUS
10
5.46335
20
-3.22569
11
5.46219
21
-3.22823
0
LINE
8
BLACK
6
CONTINUOUS
10
5.46219
20
-3.22823
11
5.46172
21
-3.2287
0
LINE
8
BLACK
6
CONTINUOUS
10
5.46172
20
-3.2287
11
5.46166
21
-3.22875
0
LINE
8
BLACK
6
CONTINUOUS
10
5.46166
20
-3.22875
11
5.46142
21
-3.22892
0
LINE
8
BLACK
6
CONTINUOUS
10
5.46142
20
-3.22892
11
5.46122
21
-3.22915
0
LINE
8
BLACK
6
CONTINUOUS
10
5.46122
20
-3.22915
11
5.46122
21
-3.22915
0
LINE
8
BLACK
6
CONTINUOUS
10
5.46122
20
-3.22915
11
5.45979
21
-3.23075
0
LINE
8
BLACK
6
CONTINUOUS
10
5.45979
20
-3.23075
11
5.45959
21
-3.23096
0
LINE
8
BLACK
6
CONTINUOUS
10
5.45959
20
-3.23096
11
5.31628
21
-3.37427
0
LINE
8
BLACK
6
CONTINUOUS
10
5.31628
20
-3.37427
11
5.31383
21
-3.37561
0
LINE
8
BLACK
6
CONTINUOUS
10
5.31383
20
-3.37561
11
5.31104
21
-3.37541
0
LINE
8
BLACK
6
CONTINUOUS
10
5.31104
20
-3.37541
11
5.3088
21
-3.37373
0
LINE
8
BLACK
6
CONTINUOUS
10
5.3088
20
-3.37373
11
5.30783
21
-3.37112
0
LINE
8
BLACK
6
CONTINUOUS
10
5.30783
20
-3.37112
11
5.30781
21
-3.37076
0
LINE
8
BLACK
6
CONTINUOUS
10
5.30781
20
-3.37076
11
5.30781
21
-3.36031
0
LINE
8
BLACK
6
CONTINUOUS
10
5.30781
20
-3.36031
11
5.30755
21
-3.35786
0
LINE
8
BLACK
6
CONTINUOUS
10
5.30755
20
-3.35786
11
5.30666
21
-3.35549
0
LINE
8
BLACK
6
CONTINUOUS
10
5.30666
20
-3.35549
11
5.30566
21
-3.35282
0
LINE
8
BLACK
6
CONTINUOUS
10
5.30566
20
-3.35282
11
5.30566
21
-3.35282
0
LINE
8
BLACK
6
CONTINUOUS
10
5.30566
20
-3.35282
11
5.30554
21
-3.35249
0
LINE
8
BLACK
6
CONTINUOUS
10
5.30554
20
-3.35249
11
5.30539
21
-3.3523
0
LINE
8
BLACK
6
CONTINUOUS
10
5.30539
20
-3.3523
11
5.30481
21
-3.34963
0
LINE
8
BLACK
6
CONTINUOUS
10
5.30481
20
-3.34963
11
5.30541
21
-3.3476
0
LINE
8
BLACK
6
CONTINUOUS
10
5.30541
20
-3.3476
11
5.30564
21
-3.34717
0
LINE
8
BLACK
6
CONTINUOUS
10
5.30564
20
-3.34717
11
5.30742
21
-3.34243
0
LINE
8
BLACK
6
CONTINUOUS
10
5.30742
20
-3.34243
11
5.30756
21
-3.34182
0
LINE
8
BLACK
6
CONTINUOUS
10
5.30756
20
-3.34182
11
5.30778
21
-3.33982
0
LINE
8
BLACK
6
CONTINUOUS
10
5.30778
20
-3.33982
11
5.3078
21
-3.33955
0
LINE
8
BLACK
6
CONTINUOUS
10
5.3078
20
-3.33955
11
5.3078
21
-3.33571
0
LINE
8
BLACK
6
CONTINUOUS
10
5.3078
20
-3.33571
11
5.30762
21
-3.33511
0
LINE
8
BLACK
6
CONTINUOUS
10
5.30762
20
-3.33511
11
5.30756
21
-3.33507
0
LINE
8
BLACK
6
CONTINUOUS
10
5.30756
20
-3.33507
11
5.30726
21
-3.335
0
LINE
8
BLACK
6
CONTINUOUS
10
5.30726
20
-3.335
11
5.2878
21
-3.335
0
LINE
8
BLACK
6
CONTINUOUS
10
5.2878
20
-3.335
11
5.2878
21
-3.3378
0
LINE
8
BLACK
6
CONTINUOUS
10
5.2878
20
-3.3378
11
5.22283
21
-3.3378
0
LINE
8
BLACK
6
CONTINUOUS
10
5.22283
20
-3.3378
11
5.22283
21
-3.335
0
LINE
8
BLACK
6
CONTINUOUS
10
5.22283
20
-3.335
11
5.20355
21
-3.335
0
LINE
8
BLACK
6
CONTINUOUS
10
5.20355
20
-3.335
11
5.20295
21
-3.33518
0
LINE
8
BLACK
6
CONTINUOUS
10
5.20295
20
-3.33518
11
5.2029
21
-3.33523
0
LINE
8
BLACK
6
CONTINUOUS
10
5.2029
20
-3.33523
11
5.20283
21
-3.33553
0
LINE
8
BLACK
6
CONTINUOUS
10
5.20283
20
-3.33553
11
5.20283
21
-3.33955
0
LINE
8
BLACK
6
CONTINUOUS
10
5.20283
20
-3.33955
11
5.20285
21
-3.33982
0
LINE
8
BLACK
6
CONTINUOUS
10
5.20285
20
-3.33982
11
5.2031
21
-3.34213
0
LINE
8
BLACK
6
CONTINUOUS
10
5.2031
20
-3.34213
11
5.20298
21
-3.34215
0
LINE
8
BLACK
6
CONTINUOUS
10
5.20298
20
-3.34215
11
5.20286
21
-3.34437
0
LINE
8
BLACK
6
CONTINUOUS
10
5.20286
20
-3.34437
11
5.20123
21
-3.34664
0
LINE
8
BLACK
6
CONTINUOUS
10
5.20123
20
-3.34664
11
5.19878
21
-3.34765
0
LINE
8
BLACK
6
CONTINUOUS
10
5.19878
20
-3.34765
11
5.1983
21
-3.34771
0
LINE
8
BLACK
6
CONTINUOUS
10
5.1983
20
-3.34771
11
5.19802
21
-3.34782
0
LINE
8
BLACK
6
CONTINUOUS
10
5.19802
20
-3.34782
11
5.19792
21
-3.34784
0
LINE
8
BLACK
6
CONTINUOUS
10
5.19792
20
-3.34784
11
5.19727
21
-3.34802
0
LINE
8
BLACK
6
CONTINUOUS
10
5.19727
20
-3.34802
11
5.19717
21
-3.34805
0
LINE
8
BLACK
6
CONTINUOUS
10
5.19717
20
-3.34805
11
5.19688
21
-3.3481
0
LINE
8
BLACK
6
CONTINUOUS
10
5.19688
20
-3.3481
11
5.19457
21
-3.34911
0
LINE
8
BLACK
6
CONTINUOUS
10
5.19457
20
-3.34911
11
5.19433
21
-3.34921
0
LINE
8
BLACK
6
CONTINUOUS
10
5.19433
20
-3.34921
11
5.19353
21
-3.34951
0
LINE
8
BLACK
6
CONTINUOUS
10
5.19353
20
-3.34951
11
5.19226
21
-3.34999
0
LINE
8
BLACK
6
CONTINUOUS
10
5.19226
20
-3.34999
11
5.19226
21
-3.34999
0
LINE
8
BLACK
6
CONTINUOUS
10
5.19226
20
-3.34999
11
5.19198
21
-3.3501
0
LINE
8
BLACK
6
CONTINUOUS
10
5.19198
20
-3.3501
11
5.19174
21
-3.35027
0
LINE
8
BLACK
6
CONTINUOUS
10
5.19174
20
-3.35027
11
5.19164
21
-3.35032
0
LINE
8
BLACK
6
CONTINUOUS
10
5.19164
20
-3.35032
11
5.19106
21
-3.35064
0
LINE
8
BLACK
6
CONTINUOUS
10
5.19106
20
-3.35064
11
5.19097
21
-3.35069
0
LINE
8
BLACK
6
CONTINUOUS
10
5.19097
20
-3.35069
11
5.1907
21
-3.35081
0
LINE
8
BLACK
6
CONTINUOUS
10
5.1907
20
-3.35081
11
5.19046
21
-3.351
0
LINE
8
BLACK
6
CONTINUOUS
10
5.19046
20
-3.351
11
5.19046
21
-3.351
0
LINE
8
BLACK
6
CONTINUOUS
10
5.19046
20
-3.351
11
5.1887
21
-3.35235
0
LINE
8
BLACK
6
CONTINUOUS
10
5.1887
20
-3.35235
11
5.18849
21
-3.3525
0
LINE
8
BLACK
6
CONTINUOUS
10
5.18849
20
-3.3525
11
5.18802
21
-3.35282
0
LINE
8
BLACK
6
CONTINUOUS
10
5.18802
20
-3.35282
11
5.18704
21
-3.3535
0
LINE
8
BLACK
6
CONTINUOUS
10
5.18704
20
-3.3535
11
5.18642
21
-3.35392
0
LINE
8
BLACK
6
CONTINUOUS
10
5.18642
20
-3.35392
11
5.18622
21
-3.35415
0
LINE
8
BLACK
6
CONTINUOUS
10
5.18622
20
-3.35415
11
5.18622
21
-3.35415
0
LINE
8
BLACK
6
CONTINUOUS
10
5.18622
20
-3.35415
11
5.18479
21
-3.35575
0
LINE
8
BLACK
6
CONTINUOUS
10
5.18479
20
-3.35575
11
5.18459
21
-3.35596
0
LINE
8
BLACK
6
CONTINUOUS
10
5.18459
20
-3.35596
11
5.16113
21
-3.37942
0
LINE
8
BLACK
6
CONTINUOUS
10
5.16113
20
-3.37942
11
5.16054
21
-3.37993
0
LINE
8
BLACK
6
CONTINUOUS
10
5.16054
20
-3.37993
11
5.15593
21
-3.38327
0
LINE
8
BLACK
6
CONTINUOUS
10
5.15593
20
-3.38327
11
5.1509
21
-3.38886
0
LINE
8
BLACK
6
CONTINUOUS
10
5.1509
20
-3.38886
11
5.15025
21
-3.39
0
LINE
8
BLACK
6
CONTINUOUS
10
5.15025
20
-3.39
11
5.14793
21
-3.39402
0
LINE
8
BLACK
6
CONTINUOUS
10
5.14793
20
-3.39402
11
5.14714
21
-3.39537
0
LINE
8
BLACK
6
CONTINUOUS
10
5.14714
20
-3.39537
11
5.14482
21
-3.40252
0
LINE
8
BLACK
6
CONTINUOUS
10
5.14482
20
-3.40252
11
5.14479
21
-3.40278
0
LINE
8
BLACK
6
CONTINUOUS
10
5.14479
20
-3.40278
11
5.14479
21
-3.40278
0
LINE
8
BLACK
6
CONTINUOUS
10
5.14479
20
-3.40278
11
5.14423
21
-3.40817
0
LINE
8
BLACK
6
CONTINUOUS
10
5.14423
20
-3.40817
11
5.14404
21
-3.41
0
LINE
8
BLACK
6
CONTINUOUS
10
5.14404
20
-3.41
11
5.14406
21
-3.41026
0
LINE
8
BLACK
6
CONTINUOUS
10
5.14406
20
-3.41026
11
5.14466
21
-3.41597
0
LINE
8
BLACK
6
CONTINUOUS
10
5.14466
20
-3.41597
11
5.14482
21
-3.41748
0
LINE
8
BLACK
6
CONTINUOUS
10
5.14482
20
-3.41748
11
5.14714
21
-3.42463
0
LINE
8
BLACK
6
CONTINUOUS
10
5.14714
20
-3.42463
11
5.14727
21
-3.42485
0
LINE
8
BLACK
6
CONTINUOUS
10
5.14727
20
-3.42485
11
5.14727
21
-3.42485
0
LINE
8
BLACK
6
CONTINUOUS
10
5.14727
20
-3.42485
11
5.14742
21
-3.4251
0
LINE
8
BLACK
6
CONTINUOUS
10
5.14742
20
-3.4251
11
5.1509
21
-3.43114
0
LINE
8
BLACK
6
CONTINUOUS
10
5.1509
20
-3.43114
11
5.15108
21
-3.43133
0
LINE
8
BLACK
6
CONTINUOUS
10
5.15108
20
-3.43133
11
5.15108
21
-3.43133
0
LINE
8
BLACK
6
CONTINUOUS
10
5.15108
20
-3.43133
11
5.15405
21
-3.43463
0
LINE
8
BLACK
6
CONTINUOUS
10
5.15405
20
-3.43463
11
5.15593
21
-3.43673
0
LINE
8
BLACK
6
CONTINUOUS
10
5.15593
20
-3.43673
11
5.15719
21
-3.43764
0
LINE
8
BLACK
6
CONTINUOUS
10
5.15719
20
-3.43764
11
5.16061
21
-3.44012
0
LINE
8
BLACK
6
CONTINUOUS
10
5.16061
20
-3.44012
11
5.16202
21
-3.44115
0
LINE
8
BLACK
6
CONTINUOUS
10
5.16202
20
-3.44115
11
5.16225
21
-3.44125
0
LINE
8
BLACK
6
CONTINUOUS
10
5.16225
20
-3.44125
11
5.16226
21
-3.44125
0
LINE
8
BLACK
6
CONTINUOUS
10
5.16226
20
-3.44125
11
5.16461
21
-3.4423
0
LINE
8
BLACK
6
CONTINUOUS
10
5.16461
20
-3.4423
11
5.16889
21
-3.4442
0
LINE
8
BLACK
6
CONTINUOUS
10
5.16889
20
-3.4442
11
5.17244
21
-3.44496
0
LINE
8
BLACK
6
CONTINUOUS
10
5.17244
20
-3.44496
11
5.17599
21
-3.44571
0
LINE
8
BLACK
6
CONTINUOUS
10
5.17599
20
-3.44571
11
5.17599
21
-3.44571
0
LINE
8
BLACK
6
CONTINUOUS
10
5.17599
20
-3.44571
11
5.17624
21
-3.44577
0
LINE
8
BLACK
6
CONTINUOUS
10
5.17624
20
-3.44577
11
5.18376
21
-3.44577
0
LINE
8
BLACK
6
CONTINUOUS
10
5.18376
20
-3.44577
11
5.18401
21
-3.44571
0
LINE
8
BLACK
6
CONTINUOUS
10
5.18401
20
-3.44571
11
5.18401
21
-3.44571
0
LINE
8
BLACK
6
CONTINUOUS
10
5.18401
20
-3.44571
11
5.18756
21
-3.44496
0
LINE
8
BLACK
6
CONTINUOUS
10
5.18756
20
-3.44496
11
5.19111
21
-3.4442
0
LINE
8
BLACK
6
CONTINUOUS
10
5.19111
20
-3.4442
11
5.19722
21
-3.44149
0
LINE
8
BLACK
6
CONTINUOUS
10
5.19722
20
-3.44149
11
5.19999
21
-3.44111
0
LINE
8
BLACK
6
CONTINUOUS
10
5.19999
20
-3.44111
11
5.20252
21
-3.4423
0
LINE
8
BLACK
6
CONTINUOUS
10
5.20252
20
-3.4423
11
5.20388
21
-3.44428
0
LINE
8
BLACK
6
CONTINUOUS
10
5.20388
20
-3.44428
11
5.20456
21
-3.44608
0
LINE
8
BLACK
6
CONTINUOUS
10
5.20456
20
-3.44608
11
5.20509
21
-3.44751
0
LINE
8
BLACK
6
CONTINUOUS
10
5.20509
20
-3.44751
11
5.20523
21
-3.44768
0
LINE
8
BLACK
6
CONTINUOUS
10
5.20523
20
-3.44768
11
5.20581
21
-3.45035
0
LINE
8
BLACK
6
CONTINUOUS
10
5.20581
20
-3.45035
11
5.20523
21
-3.45231
0
LINE
8
BLACK
6
CONTINUOUS
10
5.20523
20
-3.45231
11
5.20509
21
-3.45249
0
LINE
8
BLACK
6
CONTINUOUS
10
5.20509
20
-3.45249
11
5.20497
21
-3.45282
0
LINE
8
BLACK
6
CONTINUOUS
10
5.20497
20
-3.45282
11
5.20497
21
-3.45282
0
LINE
8
BLACK
6
CONTINUOUS
10
5.20497
20
-3.45282
11
5.20399
21
-3.45544
0
LINE
8
BLACK
6
CONTINUOUS
10
5.20399
20
-3.45544
11
5.20308
21
-3.45786
0
LINE
8
BLACK
6
CONTINUOUS
10
5.20308
20
-3.45786
11
5.20281
21
-3.46031
0
LINE
8
BLACK
6
CONTINUOUS
10
5.20281
20
-3.46031
11
5.20281
21
-3.48969
0
LINE
8
BLACK
6
CONTINUOUS
10
5.20281
20
-3.48969
11
5.20308
21
-3.49214
0
LINE
8
BLACK
6
CONTINUOUS
10
5.20308
20
-3.49214
11
5.20509
21
-3.49751
0
LINE
8
BLACK
6
CONTINUOUS
10
5.20509
20
-3.49751
11
5.20853
21
-3.5021
0
LINE
8
BLACK
6
CONTINUOUS
10
5.20853
20
-3.5021
11
5.21312
21
-3.50554
0
LINE
8
BLACK
6
CONTINUOUS
10
5.21312
20
-3.50554
11
5.21849
21
-3.50755
0
LINE
8
BLACK
6
CONTINUOUS
10
5.21849
20
-3.50755
11
5.22094
21
-3.50781
0
LINE
8
BLACK
6
CONTINUOUS
10
5.22094
20
-3.50781
11
5.28969
21
-3.50781
0
LINE
8
BLACK
6
CONTINUOUS
10
5.28969
20
-3.50781
11
5.29214
21
-3.50755
0
LINE
8
BLACK
6
CONTINUOUS
10
5.29214
20
-3.50755
11
5.29751
21
-3.50554
0
LINE
8
BLACK
6
CONTINUOUS
10
5.29751
20
-3.50554
11
5.29779
21
-3.50532
0
LINE
8
BLACK
6
CONTINUOUS
10
5.29779
20
-3.50532
11
5.29779
21
-3.50532
0
LINE
8
BLACK
6
CONTINUOUS
10
5.29779
20
-3.50532
11
5.29971
21
-3.50388
0
LINE
8
BLACK
6
CONTINUOUS
10
5.29971
20
-3.50388
11
5.30233
21
-3.50291
0
LINE
8
BLACK
6
CONTINUOUS
10
5.30233
20
-3.50291
11
5.30269
21
-3.50289
0
LINE
8
BLACK
6
CONTINUOUS
10
5.30269
20
-3.50289
11
5.30987
21
-3.50289
0
LINE
8
BLACK
6
CONTINUOUS
10
5.30987
20
-3.50289
11
5.31255
21
-3.50368
0
LINE
8
BLACK
6
CONTINUOUS
10
5.31255
20
-3.50368
11
5.31439
21
-3.50579
0
LINE
8
BLACK
6
CONTINUOUS
10
5.31439
20
-3.50579
11
5.31471
21
-3.50697
0
LINE
8
BLACK
6
CONTINUOUS
10
5.31471
20
-3.50697
11
5.31474
21
-3.50696
0
LINE
8
BLACK
6
CONTINUOUS
10
5.31474
20
-3.50696
11
5.31479
21
-3.50722
0
LINE
8
BLACK
6
CONTINUOUS
10
5.31479
20
-3.50722
11
5.31482
21
-3.50748
0
LINE
8
BLACK
6
CONTINUOUS
10
5.31482
20
-3.50748
11
5.31714
21
-3.51463
0
LINE
8
BLACK
6
CONTINUOUS
10
5.31714
20
-3.51463
11
5.3209
21
-3.52114
0
LINE
8
BLACK
6
CONTINUOUS
10
5.3209
20
-3.52114
11
5.32108
21
-3.52133
0
LINE
8
BLACK
6
CONTINUOUS
10
5.32108
20
-3.52133
11
5.32108
21
-3.52133
0
LINE
8
BLACK
6
CONTINUOUS
10
5.32108
20
-3.52133
11
5.3237
21
-3.52424
0
LINE
8
BLACK
6
CONTINUOUS
10
5.3237
20
-3.52424
11
5.32593
21
-3.52673
0
LINE
8
BLACK
6
CONTINUOUS
10
5.32593
20
-3.52673
11
5.32803
21
-3.52825
0
LINE
8
BLACK
6
CONTINUOUS
10
5.32803
20
-3.52825
11
5.33176
21
-3.53096
0
LINE
8
BLACK
6
CONTINUOUS
10
5.33176
20
-3.53096
11
5.33202
21
-3.53115
0
LINE
8
BLACK
6
CONTINUOUS
10
5.33202
20
-3.53115
11
5.33225
21
-3.53125
0
LINE
8
BLACK
6
CONTINUOUS
10
5.33225
20
-3.53125
11
5.33226
21
-3.53125
0
LINE
8
BLACK
6
CONTINUOUS
10
5.33226
20
-3.53125
11
5.33849
21
-3.53403
0
LINE
8
BLACK
6
CONTINUOUS
10
5.33849
20
-3.53403
11
5.33889
21
-3.5342
0
LINE
8
BLACK
6
CONTINUOUS
10
5.33889
20
-3.5342
11
5.34256
21
-3.53499
0
LINE
8
BLACK
6
CONTINUOUS
10
5.34256
20
-3.53499
11
5.34599
21
-3.53571
0
LINE
8
BLACK
6
CONTINUOUS
10
5.34599
20
-3.53571
11
5.34599
21
-3.53571
0
LINE
8
BLACK
6
CONTINUOUS
10
5.34599
20
-3.53571
11
5.34624
21
-3.53577
0
LINE
8
BLACK
6
CONTINUOUS
10
5.34624
20
-3.53577
11
5.35376
21
-3.53577
0
LINE
8
BLACK
6
CONTINUOUS
10
5.35376
20
-3.53577
11
5.35401
21
-3.53571
0
LINE
8
BLACK
6
CONTINUOUS
10
5.35401
20
-3.53571
11
5.35401
21
-3.53571
0
LINE
8
BLACK
6
CONTINUOUS
10
5.35401
20
-3.53571
11
5.35744
21
-3.53499
0
LINE
8
BLACK
6
CONTINUOUS
10
5.35744
20
-3.53499
11
5.36111
21
-3.5342
0
LINE
8
BLACK
6
CONTINUOUS
10
5.36111
20
-3.5342
11
5.36151
21
-3.53403
0
LINE
8
BLACK
6
CONTINUOUS
10
5.36151
20
-3.53403
11
5.36774
21
-3.53125
0
LINE
8
BLACK
6
CONTINUOUS
10
5.36774
20
-3.53125
11
5.36775
21
-3.53125
0
LINE
8
BLACK
6
CONTINUOUS
10
5.36775
20
-3.53125
11
5.36798
21
-3.53115
0
LINE
8
BLACK
6
CONTINUOUS
10
5.36798
20
-3.53115
11
5.36824
21
-3.53096
0
LINE
8
BLACK
6
CONTINUOUS
10
5.36824
20
-3.53096
11
5.37197
21
-3.52825
0
LINE
8
BLACK
6
CONTINUOUS
10
5.37197
20
-3.52825
11
5.37407
21
-3.52673
0
LINE
8
BLACK
6
CONTINUOUS
10
5.37407
20
-3.52673
11
5.3763
21
-3.52424
0
LINE
8
BLACK
6
CONTINUOUS
10
5.3763
20
-3.52424
11
5.37892
21
-3.52133
0
LINE
8
BLACK
6
CONTINUOUS
10
5.37892
20
-3.52133
11
5.37892
21
-3.52133
0
LINE
8
BLACK
6
CONTINUOUS
10
5.37892
20
-3.52133
11
5.3791
21
-3.52114
0
LINE
8
BLACK
6
CONTINUOUS
10
5.3791
20
-3.52114
11
5.38286
21
-3.51463
0
LINE
8
BLACK
6
CONTINUOUS
10
5.38286
20
-3.51463
11
5.38518
21
-3.50748
0
LINE
8
BLACK
6
CONTINUOUS
10
5.38518
20
-3.50748
11
5.38521
21
-3.50714
0
LINE
8
BLACK
6
CONTINUOUS
10
5.38521
20
-3.50714
11
5.38594
21
-3.50026
0
LINE
8
BLACK
6
CONTINUOUS
10
5.38594
20
-3.50026
11
5.38596
21
-3.5
0
LINE
8
BLACK
6
CONTINUOUS
10
5.38596
20
-3.5
11
5.38539
21
-3.49451
0
LINE
8
BLACK
6
CONTINUOUS
10
5.38539
20
-3.49451
11
5.38521
21
-3.49278
0
LINE
8
BLACK
6
CONTINUOUS
10
5.38521
20
-3.49278
11
5.38521
21
-3.49278
0
LINE
8
BLACK
6
CONTINUOUS
10
5.38521
20
-3.49278
11
5.38518
21
-3.49252
0
LINE
8
BLACK
6
CONTINUOUS
10
5.38518
20
-3.49252
11
5.38286
21
-3.48537
0
LINE
8
BLACK
6
CONTINUOUS
10
5.38286
20
-3.48537
11
5.3791
21
-3.47886
0
LINE
8
BLACK
6
CONTINUOUS
10
5.3791
20
-3.47886
11
5.37407
21
-3.47327
0
LINE
8
BLACK
6
CONTINUOUS
10
5.37407
20
-3.47327
11
5.36798
21
-3.46885
0
LINE
8
BLACK
6
CONTINUOUS
10
5.36798
20
-3.46885
11
5.36775
21
-3.46875
0
LINE
8
BLACK
6
CONTINUOUS
10
5.36775
20
-3.46875
11
5.36774
21
-3.46875
0
LINE
8
BLACK
6
CONTINUOUS
10
5.36774
20
-3.46875
11
5.36135
21
-3.4659
0
LINE
8
BLACK
6
CONTINUOUS
10
5.36135
20
-3.4659
11
5.36135
21
-3.4659
0
LINE
8
BLACK
6
CONTINUOUS
10
5.36135
20
-3.4659
11
5.36111
21
-3.4658
0
LINE
8
BLACK
6
CONTINUOUS
10
5.36111
20
-3.4658
11
5.3551
21
-3.46452
0
LINE
8
BLACK
6
CONTINUOUS
10
5.3551
20
-3.46452
11
5.35262
21
-3.46317
0
LINE
8
BLACK
6
CONTINUOUS
10
5.35262
20
-3.46317
11
5.34553
21
-3.45608
0
LINE
8
BLACK
6
CONTINUOUS
10
5.34553
20
-3.45608
11
5.3453
21
-3.45583
0
LINE
8
BLACK
6
CONTINUOUS
10
5.3453
20
-3.45583
11
5.344
21
-3.45434
0
LINE
8
BLACK
6
CONTINUOUS
10
5.344
20
-3.45434
11
5.344
21
-3.45434
0
LINE
8
BLACK
6
CONTINUOUS
10
5.344
20
-3.45434
11
5.3438
21
-3.45412
0
LINE
8
BLACK
6
CONTINUOUS
10
5.3438
20
-3.45412
11
5.34174
21
-3.45267
0
LINE
8
BLACK
6
CONTINUOUS
10
5.34174
20
-3.45267
11
5.34153
21
-3.45252
0
LINE
8
BLACK
6
CONTINUOUS
10
5.34153
20
-3.45252
11
5.33979
21
-3.45115
0
LINE
8
BLACK
6
CONTINUOUS
10
5.33979
20
-3.45115
11
5.33956
21
-3.45097
0
LINE
8
BLACK
6
CONTINUOUS
10
5.33956
20
-3.45097
11
5.33928
21
-3.45084
0
LINE
8
BLACK
6
CONTINUOUS
10
5.33928
20
-3.45084
11
5.33919
21
-3.45079
0
LINE
8
BLACK
6
CONTINUOUS
10
5.33919
20
-3.45079
11
5.33862
21
-3.45046
0
LINE
8
BLACK
6
CONTINUOUS
10
5.33862
20
-3.45046
11
5.33852
21
-3.45041
0
LINE
8
BLACK
6
CONTINUOUS
10
5.33852
20
-3.45041
11
5.33828
21
-3.45024
0
LINE
8
BLACK
6
CONTINUOUS
10
5.33828
20
-3.45024
11
5.338
21
-3.45013
0
LINE
8
BLACK
6
CONTINUOUS
10
5.338
20
-3.45013
11
5.338
21
-3.45013
0
LINE
8
BLACK
6
CONTINUOUS
10
5.338
20
-3.45013
11
5.33593
21
-3.44932
0
LINE
8
BLACK
6
CONTINUOUS
10
5.33593
20
-3.44932
11
5.3357
21
-3.44922
0
LINE
8
BLACK
6
CONTINUOUS
10
5.3357
20
-3.44922
11
5.3334
21
-3.44819
0
LINE
8
BLACK
6
CONTINUOUS
10
5.3334
20
-3.44819
11
5.33311
21
-3.44813
0
LINE
8
BLACK
6
CONTINUOUS
10
5.33311
20
-3.44813
11
5.33301
21
-3.4481
0
LINE
8
BLACK
6
CONTINUOUS
10
5.33301
20
-3.4481
11
5.33237
21
-3.44792
0
LINE
8
BLACK
6
CONTINUOUS
10
5.33237
20
-3.44792
11
5.33227
21
-3.44789
0
LINE
8
BLACK
6
CONTINUOUS
10
5.33227
20
-3.44789
11
5.33199
21
-3.44778
0
LINE
8
BLACK
6
CONTINUOUS
10
5.33199
20
-3.44778
11
5.33199
21
-3.44778
0
LINE
8
BLACK
6
CONTINUOUS
10
5.33199
20
-3.44778
11
5.33199
21
-3.44778
0
LINE
8
BLACK
6
CONTINUOUS
10
5.33199
20
-3.44778
11
5.332
21
-3.44777
0
LINE
8
BLACK
6
CONTINUOUS
10
5.332
20
-3.44777
11
5.32977
21
-3.44644
0
LINE
8
BLACK
6
CONTINUOUS
10
5.32977
20
-3.44644
11
5.32852
21
-3.44394
0
LINE
8
BLACK
6
CONTINUOUS
10
5.32852
20
-3.44394
11
5.32882
21
-3.44116
0
LINE
8
BLACK
6
CONTINUOUS
10
5.32882
20
-3.44116
11
5.32989
21
-3.43955
0
LINE
8
BLACK
6
CONTINUOUS
10
5.32989
20
-3.43955
11
5.40883
21
-3.36062
0
LINE
8
BLACK
6
CONTINUOUS
10
5.40883
20
-3.36062
11
5.4901
21
-3.27935
0
LINE
8
BLACK
6
CONTINUOUS
10
5.4901
20
-3.27935
11
5.49255
21
-3.27801
0
LINE
8
BLACK
6
CONTINUOUS
10
5.49255
20
-3.27801
11
5.49361
21
-3.27789
0
LINE
8
BLACK
6
CONTINUOUS
10
5.49361
20
-3.27789
11
5.60068
21
-3.27789
0
LINE
8
BLACK
6
CONTINUOUS
10
5.60068
20
-3.27789
11
5.60336
21
-3.27868
0
LINE
8
BLACK
6
CONTINUOUS
10
5.60336
20
-3.27868
11
5.60519
21
-3.28079
0
LINE
8
BLACK
6
CONTINUOUS
10
5.60519
20
-3.28079
11
5.60559
21
-3.28356
0
LINE
8
BLACK
6
CONTINUOUS
10
5.60559
20
-3.28356
11
5.60443
21
-3.2861
0
LINE
8
BLACK
6
CONTINUOUS
10
5.60443
20
-3.2861
11
5.60419
21
-3.28636
0
LINE
8
BLACK
6
CONTINUOUS
10
5.60419
20
-3.28636
11
5.59518
21
-3.29537
0
LINE
8
BLACK
6
CONTINUOUS
10
5.59518
20
-3.29537
11
5.59273
21
-3.29671
0
LINE
8
BLACK
6
CONTINUOUS
10
5.59273
20
-3.29671
11
5.58994
21
-3.29651
0
LINE
8
BLACK
6
CONTINUOUS
10
5.58994
20
-3.29651
11
5.5887
21
-3.29583
0
LINE
8
BLACK
6
CONTINUOUS
10
5.5887
20
-3.29583
11
5.58716
21
-3.29468
0
LINE
8
BLACK
6
CONTINUOUS
10
5.58716
20
-3.29468
11
5.58716
21
-3.29468
0
LINE
8
BLACK
6
CONTINUOUS
10
5.58716
20
-3.29468
11
5.58688
21
-3.29446
0
LINE
8
BLACK
6
CONTINUOUS
10
5.58688
20
-3.29446
11
5.58151
21
-3.29245
0
LINE
8
BLACK
6
CONTINUOUS
10
5.58151
20
-3.29245
11
5.57906
21
-3.29219
0
LINE
8
BLACK
6
CONTINUOUS
10
5.57906
20
-3.29219
11
5.51031
21
-3.29219
0
LINE
8
BLACK
6
CONTINUOUS
10
5.51031
20
-3.29219
11
5.50786
21
-3.29245
0
LINE
8
BLACK
6
CONTINUOUS
10
5.50786
20
-3.29245
11
5.50249
21
-3.29446
0
LINE
8
BLACK
6
CONTINUOUS
10
5.50249
20
-3.29446
11
5.4979
21
-3.2979
0
LINE
8
BLACK
6
CONTINUOUS
10
5.4979
20
-3.2979
11
5.49446
21
-3.30249
0
LINE
8
BLACK
6
CONTINUOUS
10
5.49446
20
-3.30249
11
5.49245
21
-3.30786
0
LINE
8
BLACK
6
CONTINUOUS
10
5.49245
20
-3.30786
11
5.49219
21
-3.31031
0
LINE
8
BLACK
6
CONTINUOUS
10
5.49219
20
-3.31031
11
5.49219
21
-3.33969
0
LINE
8
BLACK
6
CONTINUOUS
10
5.49219
20
-3.33969
11
5.49245
21
-3.34214
0
LINE
8
BLACK
6
CONTINUOUS
10
5.49245
20
-3.34214
11
5.49256
21
-3.34243
0
LINE
8
BLACK
6
CONTINUOUS
10
5.49256
20
-3.34243
11
5.49427
21
-3.34699
0
LINE
8
BLACK
6
CONTINUOUS
10
5.49427
20
-3.34699
11
5.49446
21
-3.34751
0
LINE
8
BLACK
6
CONTINUOUS
10
5.49446
20
-3.34751
11
5.4946
21
-3.34768
0
LINE
8
BLACK
6
CONTINUOUS
10
5.4946
20
-3.34768
11
5.49518
21
-3.35035
0
LINE
8
BLACK
6
CONTINUOUS
10
5.49518
20
-3.35035
11
5.4946
21
-3.35231
0
LINE
8
BLACK
6
CONTINUOUS
10
5.4946
20
-3.35231
11
5.49446
21
-3.35249
0
LINE
8
BLACK
6
CONTINUOUS
10
5.49446
20
-3.35249
11
5.49434
21
-3.35282
0
LINE
8
BLACK
6
CONTINUOUS
10
5.49434
20
-3.35282
11
5.49434
21
-3.35282
0
LINE
8
BLACK
6
CONTINUOUS
10
5.49434
20
-3.35282
11
5.49334
21
-3.35549
0
LINE
8
BLACK
6
CONTINUOUS
10
5.49334
20
-3.35549
11
5.49245
21
-3.35786
0
LINE
8
BLACK
6
CONTINUOUS
10
5.49245
20
-3.35786
11
5.49219
21
-3.36031
0
LINE
8
BLACK
6
CONTINUOUS
10
5.49219
20
-3.36031
11
5.49219
21
-3.38969
0
LINE
8
BLACK
6
CONTINUOUS
10
5.49219
20
-3.38969
11
5.49245
21
-3.39214
0
LINE
8
BLACK
6
CONTINUOUS
10
5.49245
20
-3.39214
11
5.49256
21
-3.39243
0
LINE
8
BLACK
6
CONTINUOUS
10
5.49256
20
-3.39243
11
5.49393
21
-3.39608
0
LINE
8
BLACK
6
CONTINUOUS
10
5.49393
20
-3.39608
11
5.49446
21
-3.39751
0
LINE
8
BLACK
6
CONTINUOUS
10
5.49446
20
-3.39751
11
5.4946
21
-3.39768
0
LINE
8
BLACK
6
CONTINUOUS
10
5.4946
20
-3.39768
11
5.49518
21
-3.40035
0
LINE
8
BLACK
6
CONTINUOUS
10
5.49518
20
-3.40035
11
5.4946
21
-3.40231
0
LINE
8
BLACK
6
CONTINUOUS
10
5.4946
20
-3.40231
11
5.49446
21
-3.40249
0
LINE
8
BLACK
6
CONTINUOUS
10
5.49446
20
-3.40249
11
5.49434
21
-3.40282
0
LINE
8
BLACK
6
CONTINUOUS
10
5.49434
20
-3.40282
11
5.49434
21
-3.40282
0
LINE
8
BLACK
6
CONTINUOUS
10
5.49434
20
-3.40282
11
5.49405
21
-3.40359
0
LINE
8
BLACK
6
CONTINUOUS
10
5.49405
20
-3.40359
11
5.49245
21
-3.40786
0
LINE
8
BLACK
6
CONTINUOUS
10
5.49245
20
-3.40786
11
5.49219
21
-3.41031
0
LINE
8
BLACK
6
CONTINUOUS
10
5.49219
20
-3.41031
11
5.49219
21
-3.43969
0
LINE
8
BLACK
6
CONTINUOUS
10
5.49219
20
-3.43969
11
5.49245
21
-3.44214
0
LINE
8
BLACK
6
CONTINUOUS
10
5.49245
20
-3.44214
11
5.49256
21
-3.44243
0
LINE
8
BLACK
6
CONTINUOUS
10
5.49256
20
-3.44243
11
5.49393
21
-3.44608
0
LINE
8
BLACK
6
CONTINUOUS
10
5.49393
20
-3.44608
11
5.49446
21
-3.44751
0
LINE
8
BLACK
6
CONTINUOUS
10
5.49446
20
-3.44751
11
5.4946
21
-3.44768
0
LINE
8
BLACK
6
CONTINUOUS
10
5.4946
20
-3.44768
11
5.49518
21
-3.45035
0
LINE
8
BLACK
6
CONTINUOUS
10
5.49518
20
-3.45035
11
5.4946
21
-3.45231
0
LINE
8
BLACK
6
CONTINUOUS
10
5.4946
20
-3.45231
11
5.49446
21
-3.45249
0
LINE
8
BLACK
6
CONTINUOUS
10
5.49446
20
-3.45249
11
5.49434
21
-3.45282
0
LINE
8
BLACK
6
CONTINUOUS
10
5.49434
20
-3.45282
11
5.49434
21
-3.45282
0
LINE
8
BLACK
6
CONTINUOUS
10
5.49434
20
-3.45282
11
5.49336
21
-3.45544
0
LINE
8
BLACK
6
CONTINUOUS
10
5.49336
20
-3.45544
11
5.49245
21
-3.45786
0
LINE
8
BLACK
6
CONTINUOUS
10
5.49245
20
-3.45786
11
5.49219
21
-3.46031
0
LINE
8
BLACK
6
CONTINUOUS
10
5.49219
20
-3.46031
11
5.49219
21
-3.48969
0
LINE
8
BLACK
6
CONTINUOUS
10
5.49219
20
-3.48969
11
5.49245
21
-3.49214
0
LINE
8
BLACK
6
CONTINUOUS
10
5.49245
20
-3.49214
11
5.49446
21
-3.49751
0
LINE
8
BLACK
6
CONTINUOUS
10
5.49446
20
-3.49751
11
5.4979
21
-3.5021
0
LINE
8
BLACK
6
CONTINUOUS
10
5.4979
20
-3.5021
11
5.50249
21
-3.50554
0
LINE
8
BLACK
6
CONTINUOUS
10
5.50249
20
-3.50554
11
5.50282
21
-3.50566
0
LINE
8
BLACK
6
CONTINUOUS
10
5.50282
20
-3.50566
11
5.50676
21
-3.50714
0
LINE
8
BLACK
6
CONTINUOUS
10
5.50676
20
-3.50714
11
5.509
21
-3.50882
0
LINE
8
BLACK
6
CONTINUOUS
10
5.509
20
-3.50882
11
5.50997
21
-3.51144
0
LINE
8
BLACK
6
CONTINUOUS
10
5.50997
20
-3.51144
11
5.50998
21
-3.51178
0
LINE
8
BLACK
6
CONTINUOUS
10
5.50998
20
-3.51178
11
5.50998
21
-3.52719
0
LINE
8
BLACK
6
CONTINUOUS
10
5.50998
20
-3.52719
11
5.50919
21
-3.52987
0
LINE
8
BLACK
6
CONTINUOUS
10
5.50919
20
-3.52987
11
5.50853
21
-3.53069
0
LINE
8
BLACK
6
CONTINUOUS
10
5.50853
20
-3.53069
11
5.50656
21
-3.53267
0
LINE
8
BLACK
6
CONTINUOUS
10
5.50656
20
-3.53267
11
5.50645
21
-3.53284
0
LINE
8
BLACK
6
CONTINUOUS
10
5.50645
20
-3.53284
11
5.5042
21
-3.53444
0
LINE
8
BLACK
6
CONTINUOUS
10
5.5042
20
-3.53444
11
5.50141
21
-3.53457
0
LINE
8
BLACK
6
CONTINUOUS
10
5.50141
20
-3.53457
11
5.49899
21
-3.53317
0
LINE
8
BLACK
6
CONTINUOUS
10
5.49899
20
-3.53317
11
5.4987
21
-3.53283
0
LINE
8
BLACK
6
CONTINUOUS
10
5.4987
20
-3.53283
11
5.49838
21
-3.53243
0
LINE
8
BLACK
6
CONTINUOUS
10
5.49838
20
-3.53243
11
5.49386
21
-3.52792
0
LINE
8
BLACK
6
CONTINUOUS
10
5.49386
20
-3.52792
11
5.49342
21
-3.52757
0
LINE
8
BLACK
6
CONTINUOUS
10
5.49342
20
-3.52757
11
5.48798
21
-3.52422
0
LINE
8
BLACK
6
CONTINUOUS
10
5.48798
20
-3.52422
11
5.48746
21
-3.52398
0
LINE
8
BLACK
6
CONTINUOUS
10
5.48746
20
-3.52398
11
5.48139
21
-3.52196
0
LINE
8
BLACK
6
CONTINUOUS
10
5.48139
20
-3.52196
11
5.48086
21
-3.52185
0
LINE
8
BLACK
6
CONTINUOUS
10
5.48086
20
-3.52185
11
5.47715
21
-3.52147
0
LINE
8
BLACK
6
CONTINUOUS
10
5.47715
20
-3.52147
11
5.4769
21
-3.52146
0
LINE
8
BLACK
6
CONTINUOUS
10
5.4769
20
-3.52146
11
5.47591
21
-3.52146
0
LINE
8
BLACK
6
CONTINUOUS
10
5.47591
20
-3.52146
11
5.47531
21
-3.52163
0
LINE
8
BLACK
6
CONTINUOUS
10
5.47531
20
-3.52163
11
5.47526
21
-3.52169
0
LINE
8
BLACK
6
CONTINUOUS
10
5.47526
20
-3.52169
11
5.4752
21
-3.52199
0
LINE
8
BLACK
6
CONTINUOUS
10
5.4752
20
-3.52199
11
5.4752
21
-3.54149
0
LINE
8
BLACK
6
CONTINUOUS
10
5.4752
20
-3.54149
11
5.47881
21
-3.54221
0
LINE
8
BLACK
6
CONTINUOUS
10
5.47881
20
-3.54221
11
5.482
21
-3.54434
0
LINE
8
BLACK
6
CONTINUOUS
10
5.482
20
-3.54434
11
5.48413
21
-3.54753
0
LINE
8
BLACK
6
CONTINUOUS
10
5.48413
20
-3.54753
11
5.48488
21
-3.5513
0
LINE
8
BLACK
6
CONTINUOUS
10
5.48488
20
-3.5513
11
5.48488
21
-3.5887
0
LINE
8
BLACK
6
CONTINUOUS
10
5.48488
20
-3.5887
11
5.48413
21
-3.59247
0
LINE
8
BLACK
6
CONTINUOUS
10
5.48413
20
-3.59247
11
5.482
21
-3.59566
0
LINE
8
BLACK
6
CONTINUOUS
10
5.482
20
-3.59566
11
5.47881
21
-3.59779
0
LINE
8
BLACK
6
CONTINUOUS
10
5.47881
20
-3.59779
11
5.4752
21
-3.59851
0
LINE
8
BLACK
6
CONTINUOUS
10
5.4752
20
-3.59851
11
5.4752
21
-3.61585
0
LINE
8
BLACK
6
CONTINUOUS
10
5.4752
20
-3.61585
11
5.47441
21
-3.61853
0
LINE
8
BLACK
6
CONTINUOUS
10
5.47441
20
-3.61853
11
5.47366
21
-3.61919
0
LINE
8
BLACK
6
CONTINUOUS
10
5.47366
20
-3.61919
11
5.47367
21
-3.61919
0
LINE
8
BLACK
6
CONTINUOUS
10
5.47367
20
-3.61919
11
5.47266
21
-3.62035
0
LINE
8
BLACK
6
CONTINUOUS
10
5.47266
20
-3.62035
11
5.4726
21
-3.62065
0
LINE
8
BLACK
6
CONTINUOUS
10
5.4726
20
-3.62065
11
5.4726
21
-3.63149
0
LINE
8
BLACK
6
CONTINUOUS
10
5.4726
20
-3.63149
11
5.47621
21
-3.63221
0
LINE
8
BLACK
6
CONTINUOUS
10
5.47621
20
-3.63221
11
5.4794
21
-3.63434
0
LINE
8
BLACK
6
CONTINUOUS
10
5.4794
20
-3.63434
11
5.48153
21
-3.63753
0
LINE
8
BLACK
6
CONTINUOUS
10
5.48153
20
-3.63753
11
5.48228
21
-3.6413
0
LINE
8
BLACK
6
CONTINUOUS
10
5.48228
20
-3.6413
11
5.48228
21
-3.6787
0
LINE
8
BLACK
6
CONTINUOUS
10
5.48228
20
-3.6787
11
5.48153
21
-3.68247
0
LINE
8
BLACK
6
CONTINUOUS
10
5.48153
20
-3.68247
11
5.4794
21
-3.68566
0
LINE
8
BLACK
6
CONTINUOUS
10
5.4794
20
-3.68566
11
5.47621
21
-3.68779
0
LINE
8
BLACK
6
CONTINUOUS
10
5.47621
20
-3.68779
11
5.4726
21
-3.68851
0
LINE
8
BLACK
6
CONTINUOUS
10
5.4726
20
-3.68851
11
5.4726
21
-3.70783
0
LINE
8
BLACK
6
CONTINUOUS
10
5.4726
20
-3.70783
11
5.47277
21
-3.70843
0
LINE
8
BLACK
6
CONTINUOUS
10
5.47277
20
-3.70843
11
5.47283
21
-3.70848
0
LINE
8
BLACK
6
CONTINUOUS
10
5.47283
20
-3.70848
11
5.47313
21
-3.70854
0
LINE
8
BLACK
6
CONTINUOUS
10
5.47313
20
-3.70854
11
5.4743
21
-3.70854
0
LINE
8
BLACK
6
CONTINUOUS
10
5.4743
20
-3.70854
11
5.47455
21
-3.70853
0
LINE
8
BLACK
6
CONTINUOUS
10
5.47455
20
-3.70853
11
5.47832
21
-3.70814
0
LINE
8
BLACK
6
CONTINUOUS
10
5.47832
20
-3.70814
11
5.47884
21
-3.70803
0
LINE
8
BLACK
6
CONTINUOUS
10
5.47884
20
-3.70803
11
5.48491
21
-3.706
0
LINE
8
BLACK
6
CONTINUOUS
10
5.48491
20
-3.706
11
5.48543
21
-3.70576
0
LINE
8
BLACK
6
CONTINUOUS
10
5.48543
20
-3.70576
11
5.49086
21
-3.7024
0
LINE
8
BLACK
6
CONTINUOUS
10
5.49086
20
-3.7024
11
5.49131
21
-3.70204
0
LINE
8
BLACK
6
CONTINUOUS
10
5.49131
20
-3.70204
11
5.49582
21
-3.69753
0
LINE
8
BLACK
6
CONTINUOUS
10
5.49582
20
-3.69753
11
5.49609
21
-3.69717
0
LINE
8
BLACK
6
CONTINUOUS
10
5.49609
20
-3.69717
11
5.49837
21
-3.69556
0
LINE
8
BLACK
6
CONTINUOUS
10
5.49837
20
-3.69556
11
5.50117
21
-3.69543
0
LINE
8
BLACK
6
CONTINUOUS
10
5.50117
20
-3.69543
11
5.50358
21
-3.69683
0
LINE
8
BLACK
6
CONTINUOUS
10
5.50358
20
-3.69683
11
5.50385
21
-3.69714
0
LINE
8
BLACK
6
CONTINUOUS
10
5.50385
20
-3.69714
11
5.504
21
-3.69738
0
LINE
8
BLACK
6
CONTINUOUS
10
5.504
20
-3.69738
11
5.5042
21
-3.69758
0
LINE
8
BLACK
6
CONTINUOUS
10
5.5042
20
-3.69758
11
5.50593
21
-3.6993
0
LINE
8
BLACK
6
CONTINUOUS
10
5.50593
20
-3.6993
11
5.50727
21
-3.70175
0
LINE
8
BLACK
6
CONTINUOUS
10
5.50727
20
-3.70175
11
5.50738
21
-3.70281
0
LINE
8
BLACK
6
CONTINUOUS
10
5.50738
20
-3.70281
11
5.50738
21
-3.70811
0
LINE
8
BLACK
6
CONTINUOUS
10
5.50738
20
-3.70811
11
5.50659
21
-3.71079
0
LINE
8
BLACK
6
CONTINUOUS
10
5.50659
20
-3.71079
11
5.50593
21
-3.71162
0
LINE
8
BLACK
6
CONTINUOUS
10
5.50593
20
-3.71162
11
5.49902
21
-3.71853
0
LINE
8
BLACK
6
CONTINUOUS
10
5.49902
20
-3.71853
11
5.49657
21
-3.71987
0
LINE
8
BLACK
6
CONTINUOUS
10
5.49657
20
-3.71987
11
5.49551
21
-3.71998
0
LINE
8
BLACK
6
CONTINUOUS
10
5.49551
20
-3.71998
11
5.29449
21
-3.71998
0
LINE
8
BLACK
6
CONTINUOUS
10
5.29449
20
-3.71998
11
5.29181
21
-3.71919
0
LINE
8
BLACK
6
CONTINUOUS
10
5.29181
20
-3.71919
11
5.29098
21
-3.71853
0
LINE
8
BLACK
6
CONTINUOUS
10
5.29098
20
-3.71853
11
5.23147
21
-3.65902
0
LINE
8
BLACK
6
CONTINUOUS
10
5.23147
20
-3.65902
11
5.23013
21
-3.65657
0
LINE
8
BLACK
6
CONTINUOUS
10
5.23013
20
-3.65657
11
5.23002
21
-3.65551
0
LINE
8
BLACK
6
CONTINUOUS
10
5.23002
20
-3.65551
11
5.23002
21
-3.55265
0
LINE
8
BLACK
6
CONTINUOUS
10
5.23002
20
-3.55265
11
5.23008
21
-3.55191
0
LINE
8
BLACK
6
CONTINUOUS
10
5.23008
20
-3.55191
11
5.23016
21
-3.55134
0
LINE
8
BLACK
6
CONTINUOUS
10
5.23016
20
-3.55134
11
5.23016
21
-3.55134
0
LINE
8
BLACK
6
CONTINUOUS
10
5.23016
20
-3.55134
11
5.23021
21
-3.55105
0
LINE
8
BLACK
6
CONTINUOUS
10
5.23021
20
-3.55105
11
5.23012
21
-3.54999
0
LINE
8
BLACK
6
CONTINUOUS
10
5.23012
20
-3.54999
11
5.23004
21
-3.54897
0
LINE
8
BLACK
6
CONTINUOUS
10
5.23004
20
-3.54897
11
5.23002
21
-3.54857
0
LINE
8
BLACK
6
CONTINUOUS
10
5.23002
20
-3.54857
11
5.23002
21
-3.54825
0
LINE
8
BLACK
6
CONTINUOUS
10
5.23002
20
-3.54825
11
5.23
21
-3.5481
0
LINE
8
BLACK
6
CONTINUOUS
10
5.23
20
-3.5481
11
5.23
21
-3.5481
0
LINE
8
BLACK
6
CONTINUOUS
10
5.23
20
-3.5481
11
5.22989
21
-3.54713
0
LINE
8
BLACK
6
CONTINUOUS
10
5.22989
20
-3.54713
11
5.22987
21
-3.54696
0
LINE
8
BLACK
6
CONTINUOUS
10
5.22987
20
-3.54696
11
5.22975
21
-3.54548
0
LINE
8
BLACK
6
CONTINUOUS
10
5.22975
20
-3.54548
11
5.22964
21
-3.54408
0
LINE
8
BLACK
6
CONTINUOUS
10
5.22964
20
-3.54408
11
5.22955
21
-3.5438
0
LINE
8
BLACK
6
CONTINUOUS
10
5.22955
20
-3.5438
11
5.2295
21
-3.54357
0
LINE
8
BLACK
6
CONTINUOUS
10
5.2295
20
-3.54357
11
5.22945
21
-3.54333
0
LINE
8
BLACK
6
CONTINUOUS
10
5.22945
20
-3.54333
11
5.22941
21
-3.54305
0
LINE
8
BLACK
6
CONTINUOUS
10
5.22941
20
-3.54305
11
5.22932
21
-3.54278
0
LINE
8
BLACK
6
CONTINUOUS
10
5.22932
20
-3.54278
11
5.22932
21
-3.54278
0
LINE
8
BLACK
6
CONTINUOUS
10
5.22932
20
-3.54278
11
5.22843
21
-3.54033
0
LINE
8
BLACK
6
CONTINUOUS
10
5.22843
20
-3.54033
11
5.22837
21
-3.54017
0
LINE
8
BLACK
6
CONTINUOUS
10
5.22837
20
-3.54017
11
5.22748
21
-3.53742
0
LINE
8
BLACK
6
CONTINUOUS
10
5.22748
20
-3.53742
11
5.22733
21
-3.53717
0
LINE
8
BLACK
6
CONTINUOUS
10
5.22733
20
-3.53717
11
5.22723
21
-3.53695
0
LINE
8
BLACK
6
CONTINUOUS
10
5.22723
20
-3.53695
11
5.22712
21
-3.53674
0
LINE
8
BLACK
6
CONTINUOUS
10
5.22712
20
-3.53674
11
5.22702
21
-3.53647
0
LINE
8
BLACK
6
CONTINUOUS
10
5.22702
20
-3.53647
11
5.22544
21
-3.53405
0
LINE
8
BLACK
6
CONTINUOUS
10
5.22544
20
-3.53405
11
5.22535
21
-3.53391
0
LINE
8
BLACK
6
CONTINUOUS
10
5.22535
20
-3.53391
11
5.22385
21
-3.53143
0
LINE
8
BLACK
6
CONTINUOUS
10
5.22385
20
-3.53143
11
5.22369
21
-3.53125
0
LINE
8
BLACK
6
CONTINUOUS
10
5.22369
20
-3.53125
11
5.22356
21
-3.5311
0
LINE
8
BLACK
6
CONTINUOUS
10
5.22356
20
-3.5311
11
5.22356
21
-3.5311
0
LINE
8
BLACK
6
CONTINUOUS
10
5.22356
20
-3.5311
11
5.22346
21
-3.53099
0
LINE
8
BLACK
6
CONTINUOUS
10
5.22346
20
-3.53099
11
5.22334
21
-3.53085
0
LINE
8
BLACK
6
CONTINUOUS
10
5.22334
20
-3.53085
11
5.22319
21
-3.53061
0
LINE
8
BLACK
6
CONTINUOUS
10
5.22319
20
-3.53061
11
5.22096
21
-3.5285
0
LINE
8
BLACK
6
CONTINUOUS
10
5.22096
20
-3.5285
11
5.22087
21
-3.52841
0
LINE
8
BLACK
6
CONTINUOUS
10
5.22087
20
-3.52841
11
5.10147
21
-3.40902
0
LINE
8
BLACK
6
CONTINUOUS
10
5.10147
20
-3.40902
11
5.10013
21
-3.40657
0
LINE
8
BLACK
6
CONTINUOUS
10
5.10013
20
-3.40657
11
5.10002
21
-3.40551
0
LINE
8
BLACK
6
CONTINUOUS
10
5.10002
20
-3.40551
11
5.10002
21
-3.39449
0
LINE
8
BLACK
6
CONTINUOUS
10
5.10002
20
-3.39449
11
5.10081
21
-3.39181
0
LINE
8
BLACK
6
CONTINUOUS
10
5.10081
20
-3.39181
11
5.10147
21
-3.39098
0
LINE
8
BLACK
6
CONTINUOUS
10
5.10147
20
-3.39098
11
5.16459
21
-3.32786
0
LINE
8
BLACK
6
CONTINUOUS
10
5.16459
20
-3.32786
11
5.16502
21
-3.32513
0
LINE
8
BLACK
6
CONTINUOUS
10
5.16502
20
-3.32513
11
5.16726
21
-3.32074
0
LINE
8
BLACK
6
CONTINUOUS
10
5.16726
20
-3.32074
11
5.17074
21
-3.31726
0
LINE
8
BLACK
6
CONTINUOUS
10
5.17074
20
-3.31726
11
5.17513
21
-3.31502
0
LINE
8
BLACK
6
CONTINUOUS
10
5.17513
20
-3.31502
11
5.17786
21
-3.31459
0
LINE
8
BLACK
6
CONTINUOUS
10
5.17786
20
-3.31459
11
5.17935
21
-3.3131
0
LINE
8
BLACK
6
CONTINUOUS
10
5.17935
20
-3.3131
11
5.17992
21
-3.31262
0
LINE
8
BLACK
6
CONTINUOUS
10
5.42574
20
-3.55993
11
5.42605
21
-3.56
0
LINE
8
BLACK
6
CONTINUOUS
10
5.42605
20
-3.56
11
5.44551
21
-3.56
0
LINE
8
BLACK
6
CONTINUOUS
10
5.44551
20
-3.56
11
5.44551
21
-3.5513
0
LINE
8
BLACK
6
CONTINUOUS
10
5.44551
20
-3.5513
11
5.44626
21
-3.54753
0
LINE
8
BLACK
6
CONTINUOUS
10
5.44626
20
-3.54753
11
5.44839
21
-3.54434
0
LINE
8
BLACK
6
CONTINUOUS
10
5.44839
20
-3.54434
11
5.45159
21
-3.54221
0
LINE
8
BLACK
6
CONTINUOUS
10
5.45159
20
-3.54221
11
5.4552
21
-3.54149
0
LINE
8
BLACK
6
CONTINUOUS
10
5.4552
20
-3.54149
11
5.4552
21
-3.52217
0
LINE
8
BLACK
6
CONTINUOUS
10
5.4552
20
-3.52217
11
5.45502
21
-3.52157
0
LINE
8
BLACK
6
CONTINUOUS
10
5.45502
20
-3.52157
11
5.45497
21
-3.52152
0
LINE
8
BLACK
6
CONTINUOUS
10
5.45497
20
-3.52152
11
5.45466
21
-3.52146
0
LINE
8
BLACK
6
CONTINUOUS
10
5.45466
20
-3.52146
11
5.4535
21
-3.52146
0
LINE
8
BLACK
6
CONTINUOUS
10
5.4535
20
-3.52146
11
5.45324
21
-3.52147
0
LINE
8
BLACK
6
CONTINUOUS
10
5.45324
20
-3.52147
11
5.44948
21
-3.52186
0
LINE
8
BLACK
6
CONTINUOUS
10
5.44948
20
-3.52186
11
5.44895
21
-3.52197
0
LINE
8
BLACK
6
CONTINUOUS
10
5.44895
20
-3.52197
11
5.44288
21
-3.524
0
LINE
8
BLACK
6
CONTINUOUS
10
5.44288
20
-3.524
11
5.44236
21
-3.52424
0
LINE
8
BLACK
6
CONTINUOUS
10
5.44236
20
-3.52424
11
5.43694
21
-3.5276
0
LINE
8
BLACK
6
CONTINUOUS
10
5.43694
20
-3.5276
11
5.43649
21
-3.52796
0
LINE
8
BLACK
6
CONTINUOUS
10
5.43649
20
-3.52796
11
5.43198
21
-3.53247
0
LINE
8
BLACK
6
CONTINUOUS
10
5.43198
20
-3.53247
11
5.43162
21
-3.53292
0
LINE
8
BLACK
6
CONTINUOUS
10
5.43162
20
-3.53292
11
5.42827
21
-3.53836
0
LINE
8
BLACK
6
CONTINUOUS
10
5.42827
20
-3.53836
11
5.42803
21
-3.53887
0
LINE
8
BLACK
6
CONTINUOUS
10
5.42803
20
-3.53887
11
5.42602
21
-3.54495
0
LINE
8
BLACK
6
CONTINUOUS
10
5.42602
20
-3.54495
11
5.42591
21
-3.54548
0
LINE
8
BLACK
6
CONTINUOUS
10
5.42591
20
-3.54548
11
5.42552
21
-3.54919
0
LINE
8
BLACK
6
CONTINUOUS
10
5.42552
20
-3.54919
11
5.42551
21
-3.54944
0
LINE
8
BLACK
6
CONTINUOUS
10
5.42551
20
-3.54944
11
5.42551
21
-3.55929
0
LINE
8
BLACK
6
CONTINUOUS
10
5.42551
20
-3.55929
11
5.42569
21
-3.55989
0
LINE
8
BLACK
6
CONTINUOUS
10
5.42569
20
-3.55989
11
5.42574
21
-3.55993
0
LINE
8
BLACK
6
CONTINUOUS
10
5.42297
20
-3.68119
11
5.42498
21
-3.68513
0
LINE
8
BLACK
6
CONTINUOUS
10
5.42498
20
-3.68513
11
5.42575
21
-3.69
0
LINE
8
BLACK
6
CONTINUOUS
10
5.42575
20
-3.69
11
5.42554
21
-3.69134
0
LINE
8
BLACK
6
CONTINUOUS
10
5.42554
20
-3.69134
11
5.4257
21
-3.69169
0
LINE
8
BLACK
6
CONTINUOUS
10
5.4257
20
-3.69169
11
5.42906
21
-3.69712
0
LINE
8
BLACK
6
CONTINUOUS
10
5.42906
20
-3.69712
11
5.42941
21
-3.69757
0
LINE
8
BLACK
6
CONTINUOUS
10
5.42941
20
-3.69757
11
5.43393
21
-3.70208
0
LINE
8
BLACK
6
CONTINUOUS
10
5.43393
20
-3.70208
11
5.43438
21
-3.70243
0
LINE
8
BLACK
6
CONTINUOUS
10
5.43438
20
-3.70243
11
5.43981
21
-3.70578
0
LINE
8
BLACK
6
CONTINUOUS
10
5.43981
20
-3.70578
11
5.44033
21
-3.70602
0
LINE
8
BLACK
6
CONTINUOUS
10
5.44033
20
-3.70602
11
5.44641
21
-3.70804
0
LINE
8
BLACK
6
CONTINUOUS
10
5.44641
20
-3.70804
11
5.44693
21
-3.70815
0
LINE
8
BLACK
6
CONTINUOUS
10
5.44693
20
-3.70815
11
5.45065
21
-3.70853
0
LINE
8
BLACK
6
CONTINUOUS
10
5.45065
20
-3.70853
11
5.4509
21
-3.70854
0
LINE
8
BLACK
6
CONTINUOUS
10
5.4509
20
-3.70854
11
5.45189
21
-3.70854
0
LINE
8
BLACK
6
CONTINUOUS
10
5.45189
20
-3.70854
11
5.45249
21
-3.70837
0
LINE
8
BLACK
6
CONTINUOUS
10
5.45249
20
-3.70837
11
5.45253
21
-3.70831
0
LINE
8
BLACK
6
CONTINUOUS
10
5.45253
20
-3.70831
11
5.4526
21
-3.70801
0
LINE
8
BLACK
6
CONTINUOUS
10
5.4526
20
-3.70801
11
5.4526
21
-3.68851
0
LINE
8
BLACK
6
CONTINUOUS
10
5.4526
20
-3.68851
11
5.44899
21
-3.68779
0
LINE
8
BLACK
6
CONTINUOUS
10
5.44899
20
-3.68779
11
5.4458
21
-3.68566
0
LINE
8
BLACK
6
CONTINUOUS
10
5.4458
20
-3.68566
11
5.44366
21
-3.68247
0
LINE
8
BLACK
6
CONTINUOUS
10
5.44366
20
-3.68247
11
5.44291
21
-3.6787
0
LINE
8
BLACK
6
CONTINUOUS
10
5.44291
20
-3.6787
11
5.44291
21
-3.67
0
LINE
8
BLACK
6
CONTINUOUS
10
5.44291
20
-3.67
11
5.42363
21
-3.67
0
LINE
8
BLACK
6
CONTINUOUS
10
5.42363
20
-3.67
11
5.42303
21
-3.67018
0
LINE
8
BLACK
6
CONTINUOUS
10
5.42303
20
-3.67018
11
5.42298
21
-3.67023
0
LINE
8
BLACK
6
CONTINUOUS
10
5.42298
20
-3.67023
11
5.42291
21
-3.67053
0
LINE
8
BLACK
6
CONTINUOUS
10
5.42291
20
-3.67053
11
5.42291
21
-3.68055
0
LINE
8
BLACK
6
CONTINUOUS
10
5.42291
20
-3.68055
11
5.42293
21
-3.68081
0
LINE
8
BLACK
6
CONTINUOUS
10
5.42293
20
-3.68081
11
5.42297
21
-3.68119
0
LINE
8
BLACK
6
CONTINUOUS
10
5.42314
20
-3.64993
11
5.42345
21
-3.65
0
LINE
8
BLACK
6
CONTINUOUS
10
5.42345
20
-3.65
11
5.44291
21
-3.65
0
LINE
8
BLACK
6
CONTINUOUS
10
5.44291
20
-3.65
11
5.44291
21
-3.6413
0
LINE
8
BLACK
6
CONTINUOUS
10
5.44291
20
-3.6413
11
5.44366
21
-3.63753
0
LINE
8
BLACK
6
CONTINUOUS
10
5.44366
20
-3.63753
11
5.4458
21
-3.63434
0
LINE
8
BLACK
6
CONTINUOUS
10
5.4458
20
-3.63434
11
5.44899
21
-3.63221
0
LINE
8
BLACK
6
CONTINUOUS
10
5.44899
20
-3.63221
11
5.4526
21
-3.63149
0
LINE
8
BLACK
6
CONTINUOUS
10
5.4526
20
-3.63149
11
5.4526
21
-3.61415
0
LINE
8
BLACK
6
CONTINUOUS
10
5.4526
20
-3.61415
11
5.45339
21
-3.61147
0
LINE
8
BLACK
6
CONTINUOUS
10
5.45339
20
-3.61147
11
5.45414
21
-3.61081
0
LINE
8
BLACK
6
CONTINUOUS
10
5.45414
20
-3.61081
11
5.45413
21
-3.61081
0
LINE
8
BLACK
6
CONTINUOUS
10
5.45413
20
-3.61081
11
5.45513
21
-3.60965
0
LINE
8
BLACK
6
CONTINUOUS
10
5.45513
20
-3.60965
11
5.4552
21
-3.60935
0
LINE
8
BLACK
6
CONTINUOUS
10
5.4552
20
-3.60935
11
5.4552
21
-3.59851
0
LINE
8
BLACK
6
CONTINUOUS
10
5.4552
20
-3.59851
11
5.45159
21
-3.59779
0
LINE
8
BLACK
6
CONTINUOUS
10
5.45159
20
-3.59779
11
5.44839
21
-3.59566
0
LINE
8
BLACK
6
CONTINUOUS
10
5.44839
20
-3.59566
11
5.44626
21
-3.59247
0
LINE
8
BLACK
6
CONTINUOUS
10
5.44626
20
-3.59247
11
5.44551
21
-3.5887
0
LINE
8
BLACK
6
CONTINUOUS
10
5.44551
20
-3.5887
11
5.44551
21
-3.58
0
LINE
8
BLACK
6
CONTINUOUS
10
5.44551
20
-3.58
11
5.42623
21
-3.58
0
LINE
8
BLACK
6
CONTINUOUS
10
5.42623
20
-3.58
11
5.42563
21
-3.58018
0
LINE
8
BLACK
6
CONTINUOUS
10
5.42563
20
-3.58018
11
5.42558
21
-3.58023
0
LINE
8
BLACK
6
CONTINUOUS
10
5.42558
20
-3.58023
11
5.42551
21
-3.58053
0
LINE
8
BLACK
6
CONTINUOUS
10
5.42551
20
-3.58053
11
5.42551
21
-3.58851
0
LINE
8
BLACK
6
CONTINUOUS
10
5.42551
20
-3.58851
11
5.42575
21
-3.59
0
LINE
8
BLACK
6
CONTINUOUS
10
5.42575
20
-3.59
11
5.42556
21
-3.59117
0
LINE
8
BLACK
6
CONTINUOUS
10
5.42556
20
-3.59117
11
5.42592
21
-3.59458
0
LINE
8
BLACK
6
CONTINUOUS
10
5.42592
20
-3.59458
11
5.42603
21
-3.5951
0
LINE
8
BLACK
6
CONTINUOUS
10
5.42603
20
-3.5951
11
5.42805
21
-3.60117
0
LINE
8
BLACK
6
CONTINUOUS
10
5.42805
20
-3.60117
11
5.4283
21
-3.60169
0
LINE
8
BLACK
6
CONTINUOUS
10
5.4283
20
-3.60169
11
5.43166
21
-3.60712
0
LINE
8
BLACK
6
CONTINUOUS
10
5.43166
20
-3.60712
11
5.43201
21
-3.60757
0
LINE
8
BLACK
6
CONTINUOUS
10
5.43201
20
-3.60757
11
5.4347
21
-3.61025
0
LINE
8
BLACK
6
CONTINUOUS
10
5.4347
20
-3.61025
11
5.43604
21
-3.6127
0
LINE
8
BLACK
6
CONTINUOUS
10
5.43604
20
-3.6127
11
5.43585
21
-3.61549
0
LINE
8
BLACK
6
CONTINUOUS
10
5.43585
20
-3.61549
11
5.43428
21
-3.61765
0
LINE
8
BLACK
6
CONTINUOUS
10
5.43428
20
-3.61765
11
5.43389
21
-3.61796
0
LINE
8
BLACK
6
CONTINUOUS
10
5.43389
20
-3.61796
11
5.42938
21
-3.62247
0
LINE
8
BLACK
6
CONTINUOUS
10
5.42938
20
-3.62247
11
5.42903
21
-3.62292
0
LINE
8
BLACK
6
CONTINUOUS
10
5.42903
20
-3.62292
11
5.42568
21
-3.62836
0
LINE
8
BLACK
6
CONTINUOUS
10
5.42568
20
-3.62836
11
5.42543
21
-3.62887
0
LINE
8
BLACK
6
CONTINUOUS
10
5.42543
20
-3.62887
11
5.424
21
-3.63321
0
LINE
8
BLACK
6
CONTINUOUS
10
5.424
20
-3.63321
11
5.42498
21
-3.63513
0
LINE
8
BLACK
6
CONTINUOUS
10
5.42498
20
-3.63513
11
5.42575
21
-3.64
0
LINE
8
BLACK
6
CONTINUOUS
10
5.42575
20
-3.64
11
5.42498
21
-3.64487
0
LINE
8
BLACK
6
CONTINUOUS
10
5.42498
20
-3.64487
11
5.42291
21
-3.64892
0
LINE
8
BLACK
6
CONTINUOUS
10
5.42291
20
-3.64892
11
5.42291
21
-3.64929
0
LINE
8
BLACK
6
CONTINUOUS
10
5.42291
20
-3.64929
11
5.42309
21
-3.64989
0
LINE
8
BLACK
6
CONTINUOUS
10
5.42309
20
-3.64989
11
5.42314
21
-3.64993
0
LINE
8
BLACK
6
CONTINUOUS
10
5.20307
20
-3.31493
11
5.20337
21
-3.315
0
LINE
8
BLACK
6
CONTINUOUS
10
5.20337
20
-3.315
11
5.22283
21
-3.315
0
LINE
8
BLACK
6
CONTINUOUS
10
5.22283
20
-3.315
11
5.22283
21
-3.3122
0
LINE
8
BLACK
6
CONTINUOUS
10
5.22283
20
-3.3122
11
5.24531
21
-3.3122
0
LINE
8
BLACK
6
CONTINUOUS
10
5.24531
20
-3.3122
11
5.24531
21
-3.29292
0
LINE
8
BLACK
6
CONTINUOUS
10
5.24531
20
-3.29292
11
5.24514
21
-3.29232
0
LINE
8
BLACK
6
CONTINUOUS
10
5.24514
20
-3.29232
11
5.24508
21
-3.29227
0
LINE
8
BLACK
6
CONTINUOUS
10
5.24508
20
-3.29227
11
5.24478
21
-3.2922
0
LINE
8
BLACK
6
CONTINUOUS
10
5.24478
20
-3.2922
11
5.22108
21
-3.2922
0
LINE
8
BLACK
6
CONTINUOUS
10
5.22108
20
-3.2922
11
5.22081
21
-3.29222
0
LINE
8
BLACK
6
CONTINUOUS
10
5.22081
20
-3.29222
11
5.21881
21
-3.29244
0
LINE
8
BLACK
6
CONTINUOUS
10
5.21881
20
-3.29244
11
5.2182
21
-3.29258
0
LINE
8
BLACK
6
CONTINUOUS
10
5.2182
20
-3.29258
11
5.21346
21
-3.29436
0
LINE
8
BLACK
6
CONTINUOUS
10
5.21346
20
-3.29436
11
5.21285
21
-3.29469
0
LINE
8
BLACK
6
CONTINUOUS
10
5.21285
20
-3.29469
11
5.20883
21
-3.29771
0
LINE
8
BLACK
6
CONTINUOUS
10
5.20883
20
-3.29771
11
5.20834
21
-3.2982
0
LINE
8
BLACK
6
CONTINUOUS
10
5.20834
20
-3.2982
11
5.20532
21
-3.30222
0
LINE
8
BLACK
6
CONTINUOUS
10
5.20532
20
-3.30222
11
5.20499
21
-3.30283
0
LINE
8
BLACK
6
CONTINUOUS
10
5.20499
20
-3.30283
11
5.20321
21
-3.30757
0
LINE
8
BLACK
6
CONTINUOUS
10
5.20321
20
-3.30757
11
5.20307
21
-3.30818
0
LINE
8
BLACK
6
CONTINUOUS
10
5.20307
20
-3.30818
11
5.20285
21
-3.31018
0
LINE
8
BLACK
6
CONTINUOUS
10
5.20285
20
-3.31018
11
5.20283
21
-3.31045
0
LINE
8
BLACK
6
CONTINUOUS
10
5.20283
20
-3.31045
11
5.20283
21
-3.31429
0
LINE
8
BLACK
6
CONTINUOUS
10
5.20283
20
-3.31429
11
5.20301
21
-3.31489
0
LINE
8
BLACK
6
CONTINUOUS
10
5.20301
20
-3.31489
11
5.20307
21
-3.31493
0
LINE
8
BLACK
6
CONTINUOUS
10
5.26603
20
-3.2922
11
5.26543
21
-3.29238
0
LINE
8
BLACK
6
CONTINUOUS
10
5.26543
20
-3.29238
11
5.26538
21
-3.29244
0
LINE
8
BLACK
6
CONTINUOUS
10
5.26538
20
-3.29244
11
5.26531
21
-3.29274
0
LINE
8
BLACK
6
CONTINUOUS
10
5.26531
20
-3.29274
11
5.26531
21
-3.3122
0
LINE
8
BLACK
6
CONTINUOUS
10
5.26531
20
-3.3122
11
5.2878
21
-3.3122
0
LINE
8
BLACK
6
CONTINUOUS
10
5.2878
20
-3.3122
11
5.2878
21
-3.315
0
LINE
8
BLACK
6
CONTINUOUS
10
5.2878
20
-3.315
11
5.30708
21
-3.315
0
LINE
8
BLACK
6
CONTINUOUS
10
5.30708
20
-3.315
11
5.30768
21
-3.31482
0
LINE
8
BLACK
6
CONTINUOUS
10
5.30768
20
-3.31482
11
5.30773
21
-3.31477
0
LINE
8
BLACK
6
CONTINUOUS
10
5.30773
20
-3.31477
11
5.3078
21
-3.31447
0
LINE
8
BLACK
6
CONTINUOUS
10
5.3078
20
-3.31447
11
5.3078
21
-3.31045
0
LINE
8
BLACK
6
CONTINUOUS
10
5.3078
20
-3.31045
11
5.30778
21
-3.31018
0
LINE
8
BLACK
6
CONTINUOUS
10
5.30778
20
-3.31018
11
5.30756
21
-3.30818
0
LINE
8
BLACK
6
CONTINUOUS
10
5.30756
20
-3.30818
11
5.30742
21
-3.30757
0
LINE
8
BLACK
6
CONTINUOUS
10
5.30742
20
-3.30757
11
5.30564
21
-3.30283
0
LINE
8
BLACK
6
CONTINUOUS
10
5.30564
20
-3.30283
11
5.30531
21
-3.30222
0
LINE
8
BLACK
6
CONTINUOUS
10
5.30531
20
-3.30222
11
5.30229
21
-3.2982
0
LINE
8
BLACK
6
CONTINUOUS
10
5.30229
20
-3.2982
11
5.3018
21
-3.29771
0
LINE
8
BLACK
6
CONTINUOUS
10
5.3018
20
-3.29771
11
5.29778
21
-3.29469
0
LINE
8
BLACK
6
CONTINUOUS
10
5.29778
20
-3.29469
11
5.29717
21
-3.29436
0
LINE
8
BLACK
6
CONTINUOUS
10
5.29717
20
-3.29436
11
5.29243
21
-3.29258
0
LINE
8
BLACK
6
CONTINUOUS
10
5.29243
20
-3.29258
11
5.29182
21
-3.29244
0
LINE
8
BLACK
6
CONTINUOUS
10
5.29182
20
-3.29244
11
5.28982
21
-3.29222
0
LINE
8
BLACK
6
CONTINUOUS
10
5.28982
20
-3.29222
11
5.28955
21
-3.2922
0
LINE
8
BLACK
6
CONTINUOUS
10
5.28955
20
-3.2922
11
5.26603
21
-3.2922
0
LINE
8
BLACK
6
CONTINUOUS
10
5.2878
20
-3.46713
11
5.32501
21
-3.46713
0
LINE
8
BLACK
6
CONTINUOUS
10
5.32501
20
-3.46713
11
5.3263
21
-3.46742
0
LINE
8
BLACK
6
CONTINUOUS
10
5.3263
20
-3.46742
11
5.3276
21
-3.46757
0
LINE
8
BLACK
6
CONTINUOUS
10
5.3276
20
-3.46757
11
5.32799
21
-3.46781
0
LINE
8
BLACK
6
CONTINUOUS
10
5.32799
20
-3.46781
11
5.32843
21
-3.46791
0
LINE
8
BLACK
6
CONTINUOUS
10
5.32843
20
-3.46791
11
5.32945
21
-3.46873
0
LINE
8
BLACK
6
CONTINUOUS
10
5.32945
20
-3.46873
11
5.33057
21
-3.46943
0
LINE
8
BLACK
6
CONTINUOUS
10
5.33057
20
-3.46943
11
5.34602
21
-3.48488
0
LINE
8
BLACK
6
CONTINUOUS
10
5.34602
20
-3.48488
11
5.35
21
-3.48425
0
LINE
8
BLACK
6
CONTINUOUS
10
5.35
20
-3.48425
11
5.35487
21
-3.48502
0
LINE
8
BLACK
6
CONTINUOUS
10
5.35487
20
-3.48502
11
5.35926
21
-3.48726
0
LINE
8
BLACK
6
CONTINUOUS
10
5.35926
20
-3.48726
11
5.36274
21
-3.49074
0
LINE
8
BLACK
6
CONTINUOUS
10
5.36274
20
-3.49074
11
5.36498
21
-3.49513
0
LINE
8
BLACK
6
CONTINUOUS
10
5.36498
20
-3.49513
11
5.36575
21
-3.5
0
LINE
8
BLACK
6
CONTINUOUS
10
5.36575
20
-3.5
11
5.36498
21
-3.50487
0
LINE
8
BLACK
6
CONTINUOUS
10
5.36498
20
-3.50487
11
5.36274
21
-3.50926
0
LINE
8
BLACK
6
CONTINUOUS
10
5.36274
20
-3.50926
11
5.35926
21
-3.51274
0
LINE
8
BLACK
6
CONTINUOUS
10
5.35926
20
-3.51274
11
5.35487
21
-3.51498
0
LINE
8
BLACK
6
CONTINUOUS
10
5.35487
20
-3.51498
11
5.35
21
-3.51575
0
LINE
8
BLACK
6
CONTINUOUS
10
5.35
20
-3.51575
11
5.34513
21
-3.51498
0
LINE
8
BLACK
6
CONTINUOUS
10
5.34513
20
-3.51498
11
5.34074
21
-3.51274
0
LINE
8
BLACK
6
CONTINUOUS
10
5.34074
20
-3.51274
11
5.33726
21
-3.50926
0
LINE
8
BLACK
6
CONTINUOUS
10
5.33726
20
-3.50926
11
5.33502
21
-3.50487
0
LINE
8
BLACK
6
CONTINUOUS
10
5.33502
20
-3.50487
11
5.33425
21
-3.5
0
LINE
8
BLACK
6
CONTINUOUS
10
5.33425
20
-3.5
11
5.33488
21
-3.49602
0
LINE
8
BLACK
6
CONTINUOUS
10
5.33488
20
-3.49602
11
5.32174
21
-3.48287
0
LINE
8
BLACK
6
CONTINUOUS
10
5.32174
20
-3.48287
11
5.2878
21
-3.48287
0
LINE
8
BLACK
6
CONTINUOUS
10
5.2878
20
-3.48287
11
5.2878
21
-3.4878
0
LINE
8
BLACK
6
CONTINUOUS
10
5.2878
20
-3.4878
11
5.22283
21
-3.4878
0
LINE
8
BLACK
6
CONTINUOUS
10
5.22283
20
-3.4878
11
5.22283
21
-3.4622
0
LINE
8
BLACK
6
CONTINUOUS
10
5.22283
20
-3.4622
11
5.2878
21
-3.4622
0
LINE
8
BLACK
6
CONTINUOUS
10
5.2878
20
-3.4622
11
5.2878
21
-3.46713
0
LINE
8
BLACK
6
CONTINUOUS
10
5.78
20
-3.28
11
5.72
21
-3.28
0
LINE
8
BLACK
6
CONTINUOUS
10
5.72
20
-3.28
11
5.72
21
-3.25787
0
LINE
8
BLACK
6
CONTINUOUS
10
5.72
20
-3.25787
11
5.48326
21
-3.25787
0
LINE
8
BLACK
6
CONTINUOUS
10
5.48326
20
-3.25787
11
5.31056
21
-3.43058
0
LINE
8
BLACK
6
CONTINUOUS
10
5.31056
20
-3.43058
11
5.30944
21
-3.43128
0
LINE
8
BLACK
6
CONTINUOUS
10
5.30944
20
-3.43128
11
5.30841
21
-3.4321
0
LINE
8
BLACK
6
CONTINUOUS
10
5.30841
20
-3.4321
11
5.30797
21
-3.4322
0
LINE
8
BLACK
6
CONTINUOUS
10
5.30797
20
-3.4322
11
5.30759
21
-3.43244
0
LINE
8
BLACK
6
CONTINUOUS
10
5.30759
20
-3.43244
11
5.30628
21
-3.43258
0
LINE
8
BLACK
6
CONTINUOUS
10
5.30628
20
-3.43258
11
5.305
21
-3.43287
0
LINE
8
BLACK
6
CONTINUOUS
10
5.305
20
-3.43287
11
5.2878
21
-3.43287
0
LINE
8
BLACK
6
CONTINUOUS
10
5.2878
20
-3.43287
11
5.2878
21
-3.4378
0
LINE
8
BLACK
6
CONTINUOUS
10
5.2878
20
-3.4378
11
5.22283
21
-3.4378
0
LINE
8
BLACK
6
CONTINUOUS
10
5.22283
20
-3.4378
11
5.22283
21
-3.4122
0
LINE
8
BLACK
6
CONTINUOUS
10
5.22283
20
-3.4122
11
5.2878
21
-3.4122
0
LINE
8
BLACK
6
CONTINUOUS
10
5.2878
20
-3.4122
11
5.2878
21
-3.41713
0
LINE
8
BLACK
6
CONTINUOUS
10
5.2878
20
-3.41713
11
5.30174
21
-3.41713
0
LINE
8
BLACK
6
CONTINUOUS
10
5.30174
20
-3.41713
11
5.47444
21
-3.24442
0
LINE
8
BLACK
6
CONTINUOUS
10
5.47444
20
-3.24442
11
5.47556
21
-3.24372
0
LINE
8
BLACK
6
CONTINUOUS
10
5.47556
20
-3.24372
11
5.47659
21
-3.2429
0
LINE
8
BLACK
6
CONTINUOUS
10
5.47659
20
-3.2429
11
5.47703
21
-3.2428
0
LINE
8
BLACK
6
CONTINUOUS
10
5.47703
20
-3.2428
11
5.47741
21
-3.24256
0
LINE
8
BLACK
6
CONTINUOUS
10
5.47741
20
-3.24256
11
5.47872
21
-3.24242
0
LINE
8
BLACK
6
CONTINUOUS
10
5.47872
20
-3.24242
11
5.48
21
-3.24213
0
LINE
8
BLACK
6
CONTINUOUS
10
5.48
20
-3.24213
11
5.72
21
-3.24213
0
LINE
8
BLACK
6
CONTINUOUS
10
5.72
20
-3.24213
11
5.72
21
-3.22
0
LINE
8
BLACK
6
CONTINUOUS
10
5.72
20
-3.22
11
5.78
21
-3.22
0
LINE
8
BLACK
6
CONTINUOUS
10
5.78
20
-3.22
11
5.78
21
-3.28
0
LINE
8
BLACK
6
CONTINUOUS
10
5.2878
20
-3.3878
11
5.22283
21
-3.3878
0
LINE
8
BLACK
6
CONTINUOUS
10
5.22283
20
-3.3878
11
5.22283
21
-3.38287
0
LINE
8
BLACK
6
CONTINUOUS
10
5.22283
20
-3.38287
11
5.20826
21
-3.38287
0
LINE
8
BLACK
6
CONTINUOUS
10
5.20826
20
-3.38287
11
5.19157
21
-3.39957
0
LINE
8
BLACK
6
CONTINUOUS
10
5.19157
20
-3.39957
11
5.19274
21
-3.40074
0
LINE
8
BLACK
6
CONTINUOUS
10
5.19274
20
-3.40074
11
5.19498
21
-3.40513
0
LINE
8
BLACK
6
CONTINUOUS
10
5.19498
20
-3.40513
11
5.19575
21
-3.41
0
LINE
8
BLACK
6
CONTINUOUS
10
5.19575
20
-3.41
11
5.19498
21
-3.41487
0
LINE
8
BLACK
6
CONTINUOUS
10
5.19498
20
-3.41487
11
5.19274
21
-3.41926
0
LINE
8
BLACK
6
CONTINUOUS
10
5.19274
20
-3.41926
11
5.18926
21
-3.42274
0
LINE
8
BLACK
6
CONTINUOUS
10
5.18926
20
-3.42274
11
5.18487
21
-3.42498
0
LINE
8
BLACK
6
CONTINUOUS
10
5.18487
20
-3.42498
11
5.18
21
-3.42575
0
LINE
8
BLACK
6
CONTINUOUS
10
5.18
20
-3.42575
11
5.17513
21
-3.42498
0
LINE
8
BLACK
6
CONTINUOUS
10
5.17513
20
-3.42498
11
5.17074
21
-3.42274
0
LINE
8
BLACK
6
CONTINUOUS
10
5.17074
20
-3.42274
11
5.16726
21
-3.41926
0
LINE
8
BLACK
6
CONTINUOUS
10
5.16726
20
-3.41926
11
5.16502
21
-3.41487
0
LINE
8
BLACK
6
CONTINUOUS
10
5.16502
20
-3.41487
11
5.16425
21
-3.41
0
LINE
8
BLACK
6
CONTINUOUS
10
5.16425
20
-3.41
11
5.16502
21
-3.40513
0
LINE
8
BLACK
6
CONTINUOUS
10
5.16502
20
-3.40513
11
5.16726
21
-3.40074
0
LINE
8
BLACK
6
CONTINUOUS
10
5.16726
20
-3.40074
11
5.17074
21
-3.39726
0
LINE
8
BLACK
6
CONTINUOUS
10
5.17074
20
-3.39726
11
5.17356
21
-3.39583
0
LINE
8
BLACK
6
CONTINUOUS
10
5.17356
20
-3.39583
11
5.17443
21
-3.39443
0
LINE
8
BLACK
6
CONTINUOUS
10
5.17443
20
-3.39443
11
5.19944
21
-3.36942
0
LINE
8
BLACK
6
CONTINUOUS
10
5.19944
20
-3.36942
11
5.20056
21
-3.36872
0
LINE
8
BLACK
6
CONTINUOUS
10
5.20056
20
-3.36872
11
5.20159
21
-3.3679
0
LINE
8
BLACK
6
CONTINUOUS
10
5.20159
20
-3.3679
11
5.20203
21
-3.3678
0
LINE
8
BLACK
6
CONTINUOUS
10
5.20203
20
-3.3678
11
5.20241
21
-3.36756
0
LINE
8
BLACK
6
CONTINUOUS
10
5.20241
20
-3.36756
11
5.20372
21
-3.36742
0
LINE
8
BLACK
6
CONTINUOUS
10
5.20372
20
-3.36742
11
5.205
21
-3.36713
0
LINE
8
BLACK
6
CONTINUOUS
10
5.205
20
-3.36713
11
5.22283
21
-3.36713
0
LINE
8
BLACK
6
CONTINUOUS
10
5.22283
20
-3.36713
11
5.22283
21
-3.3622
0
LINE
8
BLACK
6
CONTINUOUS
10
5.22283
20
-3.3622
11
5.2878
21
-3.3622
0
LINE
8
BLACK
6
CONTINUOUS
10
5.2878
20
-3.3622
11
5.2878
21
-3.3878
0
LINE
8
BLACK
6
CONTINUOUS
10
5.78
20
-3.38
11
5.72
21
-3.38
0
LINE
8
BLACK
6
CONTINUOUS
10
5.72
20
-3.38
11
5.72
21
-3.35787
0
LINE
8
BLACK
6
CONTINUOUS
10
5.72
20
-3.35787
11
5.69326
21
-3.35787
0
LINE
8
BLACK
6
CONTINUOUS
10
5.69326
20
-3.35787
11
5.67056
21
-3.38058
0
LINE
8
BLACK
6
CONTINUOUS
10
5.67056
20
-3.38058
11
5.66944
21
-3.38128
0
LINE
8
BLACK
6
CONTINUOUS
10
5.66944
20
-3.38128
11
5.66841
21
-3.3821
0
LINE
8
BLACK
6
CONTINUOUS
10
5.66841
20
-3.3821
11
5.66797
21
-3.3822
0
LINE
8
BLACK
6
CONTINUOUS
10
5.66797
20
-3.3822
11
5.66759
21
-3.38244
0
LINE
8
BLACK
6
CONTINUOUS
10
5.66759
20
-3.38244
11
5.66628
21
-3.38258
0
LINE
8
BLACK
6
CONTINUOUS
10
5.66628
20
-3.38258
11
5.665
21
-3.38287
0
LINE
8
BLACK
6
CONTINUOUS
10
5.665
20
-3.38287
11
5.57717
21
-3.38287
0
LINE
8
BLACK
6
CONTINUOUS
10
5.57717
20
-3.38287
11
5.57717
21
-3.3878
0
LINE
8
BLACK
6
CONTINUOUS
10
5.57717
20
-3.3878
11
5.5122
21
-3.3878
0
LINE
8
BLACK
6
CONTINUOUS
10
5.5122
20
-3.3878
11
5.5122
21
-3.3622
0
LINE
8
BLACK
6
CONTINUOUS
10
5.5122
20
-3.3622
11
5.57717
21
-3.3622
0
LINE
8
BLACK
6
CONTINUOUS
10
5.57717
20
-3.3622
11
5.57717
21
-3.36713
0
LINE
8
BLACK
6
CONTINUOUS
10
5.57717
20
-3.36713
11
5.66174
21
-3.36713
0
LINE
8
BLACK
6
CONTINUOUS
10
5.66174
20
-3.36713
11
5.68444
21
-3.34442
0
LINE
8
BLACK
6
CONTINUOUS
10
5.68444
20
-3.34442
11
5.68556
21
-3.34372
0
LINE
8
BLACK
6
CONTINUOUS
10
5.68556
20
-3.34372
11
5.68659
21
-3.3429
0
LINE
8
BLACK
6
CONTINUOUS
10
5.68659
20
-3.3429
11
5.68703
21
-3.3428
0
LINE
8
BLACK
6
CONTINUOUS
10
5.68703
20
-3.3428
11
5.68741
21
-3.34256
0
LINE
8
BLACK
6
CONTINUOUS
10
5.68741
20
-3.34256
11
5.68872
21
-3.34242
0
LINE
8
BLACK
6
CONTINUOUS
10
5.68872
20
-3.34242
11
5.69
21
-3.34213
0
LINE
8
BLACK
6
CONTINUOUS
10
5.69
20
-3.34213
11
5.72
21
-3.34213
0
LINE
8
BLACK
6
CONTINUOUS
10
5.72
20
-3.34213
11
5.72
21
-3.32
0
LINE
8
BLACK
6
CONTINUOUS
10
5.72
20
-3.32
11
5.78
21
-3.32
0
LINE
8
BLACK
6
CONTINUOUS
10
5.78
20
-3.32
11
5.78
21
-3.38
0
LINE
8
BLACK
6
CONTINUOUS
10
5.8013
20
-3.29242
11
5.8026
21
-3.29257
0
LINE
8
BLACK
6
CONTINUOUS
10
5.8026
20
-3.29257
11
5.80299
21
-3.29281
0
LINE
8
BLACK
6
CONTINUOUS
10
5.80299
20
-3.29281
11
5.80343
21
-3.29291
0
LINE
8
BLACK
6
CONTINUOUS
10
5.80343
20
-3.29291
11
5.80445
21
-3.29373
0
LINE
8
BLACK
6
CONTINUOUS
10
5.80445
20
-3.29373
11
5.80557
21
-3.29443
0
LINE
8
BLACK
6
CONTINUOUS
10
5.80557
20
-3.29443
11
5.83114
21
-3.32
0
LINE
8
BLACK
6
CONTINUOUS
10
5.83114
20
-3.32
11
5.88
21
-3.32
0
LINE
8
BLACK
6
CONTINUOUS
10
5.88
20
-3.32
11
5.88
21
-3.38
0
LINE
8
BLACK
6
CONTINUOUS
10
5.88
20
-3.38
11
5.82
21
-3.38
0
LINE
8
BLACK
6
CONTINUOUS
10
5.82
20
-3.38
11
5.82
21
-3.33114
0
LINE
8
BLACK
6
CONTINUOUS
10
5.82
20
-3.33114
11
5.79674
21
-3.30787
0
LINE
8
BLACK
6
CONTINUOUS
10
5.79674
20
-3.30787
11
5.63326
21
-3.30787
0
LINE
8
BLACK
6
CONTINUOUS
10
5.63326
20
-3.30787
11
5.61056
21
-3.33058
0
LINE
8
BLACK
6
CONTINUOUS
10
5.61056
20
-3.33058
11
5.60944
21
-3.33128
0
LINE
8
BLACK
6
CONTINUOUS
10
5.60944
20
-3.33128
11
5.60841
21
-3.3321
0
LINE
8
BLACK
6
CONTINUOUS
10
5.60841
20
-3.3321
11
5.60797
21
-3.3322
0
LINE
8
BLACK
6
CONTINUOUS
10
5.60797
20
-3.3322
11
5.60759
21
-3.33244
0
LINE
8
BLACK
6
CONTINUOUS
10
5.60759
20
-3.33244
11
5.60628
21
-3.33258
0
LINE
8
BLACK
6
CONTINUOUS
10
5.60628
20
-3.33258
11
5.605
21
-3.33287
0
LINE
8
BLACK
6
CONTINUOUS
10
5.605
20
-3.33287
11
5.57717
21
-3.33287
0
LINE
8
BLACK
6
CONTINUOUS
10
5.57717
20
-3.33287
11
5.57717
21
-3.3378
0
LINE
8
BLACK
6
CONTINUOUS
10
5.57717
20
-3.3378
11
5.5122
21
-3.3378
0
LINE
8
BLACK
6
CONTINUOUS
10
5.5122
20
-3.3378
11
5.5122
21
-3.3122
0
LINE
8
BLACK
6
CONTINUOUS
10
5.5122
20
-3.3122
11
5.57717
21
-3.3122
0
LINE
8
BLACK
6
CONTINUOUS
10
5.57717
20
-3.3122
11
5.57717
21
-3.31713
0
LINE
8
BLACK
6
CONTINUOUS
10
5.57717
20
-3.31713
11
5.60174
21
-3.31713
0
LINE
8
BLACK
6
CONTINUOUS
10
5.60174
20
-3.31713
11
5.62444
21
-3.29442
0
LINE
8
BLACK
6
CONTINUOUS
10
5.62444
20
-3.29442
11
5.62556
21
-3.29372
0
LINE
8
BLACK
6
CONTINUOUS
10
5.62556
20
-3.29372
11
5.62659
21
-3.2929
0
LINE
8
BLACK
6
CONTINUOUS
10
5.62659
20
-3.2929
11
5.62703
21
-3.2928
0
LINE
8
BLACK
6
CONTINUOUS
10
5.62703
20
-3.2928
11
5.62741
21
-3.29256
0
LINE
8
BLACK
6
CONTINUOUS
10
5.62741
20
-3.29256
11
5.62872
21
-3.29242
0
LINE
8
BLACK
6
CONTINUOUS
10
5.62872
20
-3.29242
11
5.63
21
-3.29213
0
LINE
8
BLACK
6
CONTINUOUS
10
5.63
20
-3.29213
11
5.80001
21
-3.29213
0
LINE
8
BLACK
6
CONTINUOUS
10
5.80001
20
-3.29213
11
5.8013
21
-3.29242
0
CIRCLE
8
BLACK
10
5.28
20
-3.27
40
0.00787402
0
CIRCLE
8
BLACK
10
5.57
20
-3.02
40
0.00787402
0
CIRCLE
8
BLACK
10
5.41
20
-3.54
40
0.00787402
0
CIRCLE
8
BLACK
10
5.57
20
-3.07
40
0.00787402
0
CIRCLE
8
BLACK
10
5.18
20
-3.33
40
0.00787402
0
CIRCLE
8
BLACK
10
5.32
20
-3.27
40
0.00787402
0
CIRCLE
8
BLACK
10
5.33
20
-3.33
40
0.00787402
0
CIRCLE
8
BLACK
10
5.41
20
-3.69
40
0.00787402
0
CIRCLE
8
BLACK
10
5.57
20
-3.12
40
0.00787402
0
CIRCLE
8
BLACK
10
5.24
20
-3.27
40
0.00787402
0
CIRCLE
8
BLACK
10
5.41
20
-3.64
40
0.00787402
0
CIRCLE
8
BLACK
10
5.41
20
-3.59
40
0.00787402
0
CIRCLE
8
BLACK
10
5.35
20
-3.5
40
0.00787402
0
CIRCLE
8
BLACK
10
5.67
20
-3.6
40
0.00787402
0
CIRCLE
8
BLACK
10
5.18
20
-3.41
40
0.00787402
  0
ENDSEC
  0
EOF
