  0
SECTION
  2
HEADER
  9
$ANGBASE
  50
0.0
  9
$ANGDIR
  70
1
  9
$MEASUREMENT
  70
0
  0
ENDSEC
  0
SECTION
  2
TABLES
  0
TABLE
  2
LTYPE
  70
4
  0
LTYPE
  5
40F
  2
CONTINUOUS
  70
0
  3
Solid line
  72
65
  73
0
  40
0.0
  0
LTYPE
  5
410
  2
DASHDOT
 70
0
  3
Dash Dot ____ _ ____ _
 72
65
 73
4
 40
2.0
 49
1.25
 49
-0.25
 49
0.25
 49
-0.25
  0
LTYPE
  5
411
  2
DASHED
 70
0
  3
Dashed __ __ __ __ __
 72
65
 73
2
 40
0.75
 49
0.5
 49
-0.25
  0
LTYPE
  5
43B
  2
DOTTED
 70
0
  3
Dotted .  .  .  .
 72
65
 73
2
 40
0.2
 49
0.0
 49
-0.2
  0
ENDTAB
  0
TABLE
  2
STYLE
  70
4
  0
STYLE
  2
KICAD
  70
0
  40
0
  41
1
  42
1
  50
0
  71
0
  3
isocp.shx
  0
STYLE
  2
KICADB
  70
0
  40
0
  41
1
  42
1
  50
0
  71
0
  3
isocp.shx
  0
STYLE
  2
KICADI
  70
0
  40
0
  41
1
  42
1
  50
15
  71
0
  3
isocp.shx
  0
STYLE
  2
KICADBI
  70
0
  40
0
  41
1
  42
1
  50
15
  71
0
  3
isocp.shx
  0
ENDTAB
  0
TABLE
  2
LAYER
  70
1
  0
LAYER
  2
BLACK
  70
0
  62
7
  6
CONTINUOUS
  0
ENDTAB
  0
ENDSEC
  0
SECTION
  2
ENTITIES
0
LINE
8
BLACK
6
CONTINUOUS
10
5.61196
20
-3.68727
11
5.61265
21
-3.68894
0
LINE
8
BLACK
6
CONTINUOUS
10
5.61265
20
-3.68894
11
5.61196
21
-3.69061
0
LINE
8
BLACK
6
CONTINUOUS
10
5.61196
20
-3.69061
11
5.61029
21
-3.6913
0
LINE
8
BLACK
6
CONTINUOUS
10
5.61029
20
-3.6913
11
5.58971
21
-3.6913
0
LINE
8
BLACK
6
CONTINUOUS
10
5.58971
20
-3.6913
11
5.58804
21
-3.69061
0
LINE
8
BLACK
6
CONTINUOUS
10
5.58804
20
-3.69061
11
5.58735
21
-3.68894
0
LINE
8
BLACK
6
CONTINUOUS
10
5.58735
20
-3.68894
11
5.58804
21
-3.68727
0
LINE
8
BLACK
6
CONTINUOUS
10
5.58804
20
-3.68727
11
5.58971
21
-3.68657
0
LINE
8
BLACK
6
CONTINUOUS
10
5.58971
20
-3.68657
11
5.61029
21
-3.68657
0
LINE
8
BLACK
6
CONTINUOUS
10
5.61029
20
-3.68657
11
5.61196
21
-3.68727
0
LINE
8
BLACK
6
CONTINUOUS
10
5.72868
20
-3.63564
11
5.72874
21
-3.63564
0
LINE
8
BLACK
6
CONTINUOUS
10
5.72874
20
-3.63564
11
5.73437
21
-3.63751
0
LINE
8
BLACK
6
CONTINUOUS
10
5.73437
20
-3.63751
11
5.73527
21
-3.638
0
LINE
8
BLACK
6
CONTINUOUS
10
5.73527
20
-3.638
11
5.73536
21
-3.63815
0
LINE
8
BLACK
6
CONTINUOUS
10
5.73536
20
-3.63815
11
5.73552
21
-3.63823
0
LINE
8
BLACK
6
CONTINUOUS
10
5.73552
20
-3.63823
11
5.73927
21
-3.64198
0
LINE
8
BLACK
6
CONTINUOUS
10
5.73927
20
-3.64198
11
5.73978
21
-3.6427
0
LINE
8
BLACK
6
CONTINUOUS
10
5.73978
20
-3.6427
11
5.73983
21
-3.64274
0
LINE
8
BLACK
6
CONTINUOUS
10
5.73983
20
-3.64274
11
5.7417
21
-3.64649
0
LINE
8
BLACK
6
CONTINUOUS
10
5.7417
20
-3.64649
11
5.74185
21
-3.64698
0
LINE
8
BLACK
6
CONTINUOUS
10
5.74185
20
-3.64698
11
5.74192
21
-3.6471
0
LINE
8
BLACK
6
CONTINUOUS
10
5.74192
20
-3.6471
11
5.7438
21
-3.6546
0
LINE
8
BLACK
6
CONTINUOUS
10
5.7438
20
-3.6546
11
5.74384
21
-3.65518
0
LINE
8
BLACK
6
CONTINUOUS
10
5.74384
20
-3.65518
11
5.74389
21
-3.65531
0
LINE
8
BLACK
6
CONTINUOUS
10
5.74389
20
-3.65531
11
5.74389
21
-3.66094
0
LINE
8
BLACK
6
CONTINUOUS
10
5.74389
20
-3.66094
11
5.74378
21
-3.66152
0
LINE
8
BLACK
6
CONTINUOUS
10
5.74378
20
-3.66152
11
5.7438
21
-3.66165
0
LINE
8
BLACK
6
CONTINUOUS
10
5.7438
20
-3.66165
11
5.74192
21
-3.66915
0
LINE
8
BLACK
6
CONTINUOUS
10
5.74192
20
-3.66915
11
5.74172
21
-3.66962
0
LINE
8
BLACK
6
CONTINUOUS
10
5.74172
20
-3.66962
11
5.7417
21
-3.66976
0
LINE
8
BLACK
6
CONTINUOUS
10
5.7417
20
-3.66976
11
5.73983
21
-3.67351
0
LINE
8
BLACK
6
CONTINUOUS
10
5.73983
20
-3.67351
11
5.7393
21
-3.67422
0
LINE
8
BLACK
6
CONTINUOUS
10
5.7393
20
-3.67422
11
5.73927
21
-3.67427
0
LINE
8
BLACK
6
CONTINUOUS
10
5.73927
20
-3.67427
11
5.73552
21
-3.67802
0
LINE
8
BLACK
6
CONTINUOUS
10
5.73552
20
-3.67802
11
5.73468
21
-3.67861
0
LINE
8
BLACK
6
CONTINUOUS
10
5.73468
20
-3.67861
11
5.73451
21
-3.67863
0
LINE
8
BLACK
6
CONTINUOUS
10
5.73451
20
-3.67863
11
5.73437
21
-3.67874
0
LINE
8
BLACK
6
CONTINUOUS
10
5.73437
20
-3.67874
11
5.72874
21
-3.68061
0
LINE
8
BLACK
6
CONTINUOUS
10
5.72874
20
-3.68061
11
5.72787
21
-3.68074
0
LINE
8
BLACK
6
CONTINUOUS
10
5.72787
20
-3.68074
11
5.72781
21
-3.68076
0
LINE
8
BLACK
6
CONTINUOUS
10
5.72781
20
-3.68076
11
5.72406
21
-3.68076
0
LINE
8
BLACK
6
CONTINUOUS
10
5.72406
20
-3.68076
11
5.72319
21
-3.68061
0
LINE
8
BLACK
6
CONTINUOUS
10
5.72319
20
-3.68061
11
5.72313
21
-3.68061
0
LINE
8
BLACK
6
CONTINUOUS
10
5.72313
20
-3.68061
11
5.7175
21
-3.67874
0
LINE
8
BLACK
6
CONTINUOUS
10
5.7175
20
-3.67874
11
5.7166
21
-3.67825
0
LINE
8
BLACK
6
CONTINUOUS
10
5.7166
20
-3.67825
11
5.71651
21
-3.6781
0
LINE
8
BLACK
6
CONTINUOUS
10
5.71651
20
-3.6781
11
5.71635
21
-3.67802
0
LINE
8
BLACK
6
CONTINUOUS
10
5.71635
20
-3.67802
11
5.71447
21
-3.67615
0
LINE
8
BLACK
6
CONTINUOUS
10
5.71447
20
-3.67615
11
5.71389
21
-3.67531
0
LINE
8
BLACK
6
CONTINUOUS
10
5.71389
20
-3.67531
11
5.71371
21
-3.6733
0
LINE
8
BLACK
6
CONTINUOUS
10
5.71371
20
-3.6733
11
5.71487
21
-3.67164
0
LINE
8
BLACK
6
CONTINUOUS
10
5.71487
20
-3.67164
11
5.71682
21
-3.67112
0
LINE
8
BLACK
6
CONTINUOUS
10
5.71682
20
-3.67112
11
5.71865
21
-3.67197
0
LINE
8
BLACK
6
CONTINUOUS
10
5.71865
20
-3.67197
11
5.72003
21
-3.67335
0
LINE
8
BLACK
6
CONTINUOUS
10
5.72003
20
-3.67335
11
5.72454
21
-3.67486
0
LINE
8
BLACK
6
CONTINUOUS
10
5.72454
20
-3.67486
11
5.72733
21
-3.67486
0
LINE
8
BLACK
6
CONTINUOUS
10
5.72733
20
-3.67486
11
5.73184
21
-3.67335
0
LINE
8
BLACK
6
CONTINUOUS
10
5.73184
20
-3.67335
11
5.73476
21
-3.67044
0
LINE
8
BLACK
6
CONTINUOUS
10
5.73476
20
-3.67044
11
5.73627
21
-3.66741
0
LINE
8
BLACK
6
CONTINUOUS
10
5.73627
20
-3.66741
11
5.73798
21
-3.66057
0
LINE
8
BLACK
6
CONTINUOUS
10
5.73798
20
-3.66057
11
5.73798
21
-3.65568
0
LINE
8
BLACK
6
CONTINUOUS
10
5.73798
20
-3.65568
11
5.73627
21
-3.64884
0
LINE
8
BLACK
6
CONTINUOUS
10
5.73627
20
-3.64884
11
5.73476
21
-3.64581
0
LINE
8
BLACK
6
CONTINUOUS
10
5.73476
20
-3.64581
11
5.73184
21
-3.6429
0
LINE
8
BLACK
6
CONTINUOUS
10
5.73184
20
-3.6429
11
5.72733
21
-3.64139
0
LINE
8
BLACK
6
CONTINUOUS
10
5.72733
20
-3.64139
11
5.72454
21
-3.64139
0
LINE
8
BLACK
6
CONTINUOUS
10
5.72454
20
-3.64139
11
5.72003
21
-3.6429
0
LINE
8
BLACK
6
CONTINUOUS
10
5.72003
20
-3.6429
11
5.71865
21
-3.64428
0
LINE
8
BLACK
6
CONTINUOUS
10
5.71865
20
-3.64428
11
5.71781
21
-3.64487
0
LINE
8
BLACK
6
CONTINUOUS
10
5.71781
20
-3.64487
11
5.7158
21
-3.64504
0
LINE
8
BLACK
6
CONTINUOUS
10
5.7158
20
-3.64504
11
5.71414
21
-3.64388
0
LINE
8
BLACK
6
CONTINUOUS
10
5.71414
20
-3.64388
11
5.71362
21
-3.64193
0
LINE
8
BLACK
6
CONTINUOUS
10
5.71362
20
-3.64193
11
5.71447
21
-3.6401
0
LINE
8
BLACK
6
CONTINUOUS
10
5.71447
20
-3.6401
11
5.71635
21
-3.63823
0
LINE
8
BLACK
6
CONTINUOUS
10
5.71635
20
-3.63823
11
5.71719
21
-3.63764
0
LINE
8
BLACK
6
CONTINUOUS
10
5.71719
20
-3.63764
11
5.71736
21
-3.63762
0
LINE
8
BLACK
6
CONTINUOUS
10
5.71736
20
-3.63762
11
5.7175
21
-3.63751
0
LINE
8
BLACK
6
CONTINUOUS
10
5.7175
20
-3.63751
11
5.72313
21
-3.63564
0
LINE
8
BLACK
6
CONTINUOUS
10
5.72313
20
-3.63564
11
5.724
21
-3.63551
0
LINE
8
BLACK
6
CONTINUOUS
10
5.724
20
-3.63551
11
5.72406
21
-3.63549
0
LINE
8
BLACK
6
CONTINUOUS
10
5.72406
20
-3.63549
11
5.72781
21
-3.63549
0
LINE
8
BLACK
6
CONTINUOUS
10
5.72781
20
-3.63549
11
5.72868
21
-3.63564
0
LINE
8
BLACK
6
CONTINUOUS
10
5.69097
20
-3.63562
11
5.69114
21
-3.63561
0
LINE
8
BLACK
6
CONTINUOUS
10
5.69114
20
-3.63561
11
5.69183
21
-3.63611
0
LINE
8
BLACK
6
CONTINUOUS
10
5.69183
20
-3.63611
11
5.69258
21
-3.63654
0
LINE
8
BLACK
6
CONTINUOUS
10
5.69258
20
-3.63654
11
5.69263
21
-3.6367
0
LINE
8
BLACK
6
CONTINUOUS
10
5.69263
20
-3.6367
11
5.69277
21
-3.6368
0
LINE
8
BLACK
6
CONTINUOUS
10
5.69277
20
-3.6368
11
5.69636
21
-3.64218
0
LINE
8
BLACK
6
CONTINUOUS
10
5.69636
20
-3.64218
11
5.69956
21
-3.64539
0
LINE
8
BLACK
6
CONTINUOUS
10
5.69956
20
-3.64539
11
5.70288
21
-3.64705
0
LINE
8
BLACK
6
CONTINUOUS
10
5.70288
20
-3.64705
11
5.70371
21
-3.64766
0
LINE
8
BLACK
6
CONTINUOUS
10
5.70371
20
-3.64766
11
5.70451
21
-3.64951
0
LINE
8
BLACK
6
CONTINUOUS
10
5.70451
20
-3.64951
11
5.70394
21
-3.65145
0
LINE
8
BLACK
6
CONTINUOUS
10
5.70394
20
-3.65145
11
5.70225
21
-3.65256
0
LINE
8
BLACK
6
CONTINUOUS
10
5.70225
20
-3.65256
11
5.70024
21
-3.65233
0
LINE
8
BLACK
6
CONTINUOUS
10
5.70024
20
-3.65233
11
5.69649
21
-3.65046
0
LINE
8
BLACK
6
CONTINUOUS
10
5.69649
20
-3.65046
11
5.69578
21
-3.64993
0
LINE
8
BLACK
6
CONTINUOUS
10
5.69578
20
-3.64993
11
5.69573
21
-3.6499
0
LINE
8
BLACK
6
CONTINUOUS
10
5.69573
20
-3.6499
11
5.69327
21
-3.64744
0
LINE
8
BLACK
6
CONTINUOUS
10
5.69327
20
-3.64744
11
5.69327
21
-3.67486
0
LINE
8
BLACK
6
CONTINUOUS
10
5.69327
20
-3.67486
11
5.70156
21
-3.67486
0
LINE
8
BLACK
6
CONTINUOUS
10
5.70156
20
-3.67486
11
5.70257
21
-3.67504
0
LINE
8
BLACK
6
CONTINUOUS
10
5.70257
20
-3.67504
11
5.70412
21
-3.67633
0
LINE
8
BLACK
6
CONTINUOUS
10
5.70412
20
-3.67633
11
5.70447
21
-3.67832
0
LINE
8
BLACK
6
CONTINUOUS
10
5.70447
20
-3.67832
11
5.70346
21
-3.68007
0
LINE
8
BLACK
6
CONTINUOUS
10
5.70346
20
-3.68007
11
5.70156
21
-3.68076
0
LINE
8
BLACK
6
CONTINUOUS
10
5.70156
20
-3.68076
11
5.67907
21
-3.68076
0
LINE
8
BLACK
6
CONTINUOUS
10
5.67907
20
-3.68076
11
5.67806
21
-3.68058
0
LINE
8
BLACK
6
CONTINUOUS
10
5.67806
20
-3.68058
11
5.67651
21
-3.67929
0
LINE
8
BLACK
6
CONTINUOUS
10
5.67651
20
-3.67929
11
5.67616
21
-3.6773
0
LINE
8
BLACK
6
CONTINUOUS
10
5.67616
20
-3.6773
11
5.67717
21
-3.67555
0
LINE
8
BLACK
6
CONTINUOUS
10
5.67717
20
-3.67555
11
5.67907
21
-3.67486
0
LINE
8
BLACK
6
CONTINUOUS
10
5.67907
20
-3.67486
11
5.68736
21
-3.67486
0
LINE
8
BLACK
6
CONTINUOUS
10
5.68736
20
-3.67486
11
5.68736
21
-3.63844
0
LINE
8
BLACK
6
CONTINUOUS
10
5.68736
20
-3.63844
11
5.68754
21
-3.63743
0
LINE
8
BLACK
6
CONTINUOUS
10
5.68754
20
-3.63743
11
5.68765
21
-3.6373
0
LINE
8
BLACK
6
CONTINUOUS
10
5.68765
20
-3.6373
11
5.68767
21
-3.63713
0
LINE
8
BLACK
6
CONTINUOUS
10
5.68767
20
-3.63713
11
5.68829
21
-3.63654
0
LINE
8
BLACK
6
CONTINUOUS
10
5.68829
20
-3.63654
11
5.68884
21
-3.63588
0
LINE
8
BLACK
6
CONTINUOUS
10
5.68884
20
-3.63588
11
5.68901
21
-3.63585
0
LINE
8
BLACK
6
CONTINUOUS
10
5.68901
20
-3.63585
11
5.68913
21
-3.63574
0
LINE
8
BLACK
6
CONTINUOUS
10
5.68913
20
-3.63574
11
5.68998
21
-3.63568
0
LINE
8
BLACK
6
CONTINUOUS
10
5.68998
20
-3.63568
11
5.69083
21
-3.63553
0
LINE
8
BLACK
6
CONTINUOUS
10
5.69083
20
-3.63553
11
5.69097
21
-3.63562
0
LINE
8
BLACK
6
CONTINUOUS
10
5.61196
20
-3.62939
11
5.61265
21
-3.63106
0
LINE
8
BLACK
6
CONTINUOUS
10
5.61265
20
-3.63106
11
5.61196
21
-3.63273
0
LINE
8
BLACK
6
CONTINUOUS
10
5.61196
20
-3.63273
11
5.61029
21
-3.63343
0
LINE
8
BLACK
6
CONTINUOUS
10
5.61029
20
-3.63343
11
5.58971
21
-3.63343
0
LINE
8
BLACK
6
CONTINUOUS
10
5.58971
20
-3.63343
11
5.58804
21
-3.63273
0
LINE
8
BLACK
6
CONTINUOUS
10
5.58804
20
-3.63273
11
5.58735
21
-3.63106
0
LINE
8
BLACK
6
CONTINUOUS
10
5.58735
20
-3.63106
11
5.58804
21
-3.62939
0
LINE
8
BLACK
6
CONTINUOUS
10
5.58804
20
-3.62939
11
5.58971
21
-3.6287
0
LINE
8
BLACK
6
CONTINUOUS
10
5.58971
20
-3.6287
11
5.61029
21
-3.6287
0
LINE
8
BLACK
6
CONTINUOUS
10
5.61029
20
-3.6287
11
5.61196
21
-3.62939
0
LINE
8
BLACK
6
CONTINUOUS
10
5.55455
20
-3.60727
11
5.55525
21
-3.60894
0
LINE
8
BLACK
6
CONTINUOUS
10
5.55525
20
-3.60894
11
5.55455
21
-3.61061
0
LINE
8
BLACK
6
CONTINUOUS
10
5.55455
20
-3.61061
11
5.55288
21
-3.6113
0
LINE
8
BLACK
6
CONTINUOUS
10
5.55288
20
-3.6113
11
5.53231
21
-3.6113
0
LINE
8
BLACK
6
CONTINUOUS
10
5.53231
20
-3.6113
11
5.53064
21
-3.61061
0
LINE
8
BLACK
6
CONTINUOUS
10
5.53064
20
-3.61061
11
5.52995
21
-3.60894
0
LINE
8
BLACK
6
CONTINUOUS
10
5.52995
20
-3.60894
11
5.53064
21
-3.60727
0
LINE
8
BLACK
6
CONTINUOUS
10
5.53064
20
-3.60727
11
5.53231
21
-3.60657
0
LINE
8
BLACK
6
CONTINUOUS
10
5.53231
20
-3.60657
11
5.55288
21
-3.60657
0
LINE
8
BLACK
6
CONTINUOUS
10
5.55288
20
-3.60657
11
5.55455
21
-3.60727
0
LINE
8
BLACK
6
CONTINUOUS
10
5.66868
20
-3.55564
11
5.66874
21
-3.55564
0
LINE
8
BLACK
6
CONTINUOUS
10
5.66874
20
-3.55564
11
5.67437
21
-3.55751
0
LINE
8
BLACK
6
CONTINUOUS
10
5.67437
20
-3.55751
11
5.67527
21
-3.558
0
LINE
8
BLACK
6
CONTINUOUS
10
5.67527
20
-3.558
11
5.67536
21
-3.55815
0
LINE
8
BLACK
6
CONTINUOUS
10
5.67536
20
-3.55815
11
5.67552
21
-3.55823
0
LINE
8
BLACK
6
CONTINUOUS
10
5.67552
20
-3.55823
11
5.67927
21
-3.56198
0
LINE
8
BLACK
6
CONTINUOUS
10
5.67927
20
-3.56198
11
5.67978
21
-3.5627
0
LINE
8
BLACK
6
CONTINUOUS
10
5.67978
20
-3.5627
11
5.67983
21
-3.56274
0
LINE
8
BLACK
6
CONTINUOUS
10
5.67983
20
-3.56274
11
5.6817
21
-3.56649
0
LINE
8
BLACK
6
CONTINUOUS
10
5.6817
20
-3.56649
11
5.68185
21
-3.56698
0
LINE
8
BLACK
6
CONTINUOUS
10
5.68185
20
-3.56698
11
5.68192
21
-3.5671
0
LINE
8
BLACK
6
CONTINUOUS
10
5.68192
20
-3.5671
11
5.6838
21
-3.5746
0
LINE
8
BLACK
6
CONTINUOUS
10
5.6838
20
-3.5746
11
5.68384
21
-3.57518
0
LINE
8
BLACK
6
CONTINUOUS
10
5.68384
20
-3.57518
11
5.68389
21
-3.57531
0
LINE
8
BLACK
6
CONTINUOUS
10
5.68389
20
-3.57531
11
5.68389
21
-3.58094
0
LINE
8
BLACK
6
CONTINUOUS
10
5.68389
20
-3.58094
11
5.68378
21
-3.58152
0
LINE
8
BLACK
6
CONTINUOUS
10
5.68378
20
-3.58152
11
5.6838
21
-3.58165
0
LINE
8
BLACK
6
CONTINUOUS
10
5.6838
20
-3.58165
11
5.68192
21
-3.58915
0
LINE
8
BLACK
6
CONTINUOUS
10
5.68192
20
-3.58915
11
5.68172
21
-3.58962
0
LINE
8
BLACK
6
CONTINUOUS
10
5.68172
20
-3.58962
11
5.6817
21
-3.58976
0
LINE
8
BLACK
6
CONTINUOUS
10
5.6817
20
-3.58976
11
5.67983
21
-3.59351
0
LINE
8
BLACK
6
CONTINUOUS
10
5.67983
20
-3.59351
11
5.6793
21
-3.59422
0
LINE
8
BLACK
6
CONTINUOUS
10
5.6793
20
-3.59422
11
5.67927
21
-3.59427
0
LINE
8
BLACK
6
CONTINUOUS
10
5.67927
20
-3.59427
11
5.67552
21
-3.59802
0
LINE
8
BLACK
6
CONTINUOUS
10
5.67552
20
-3.59802
11
5.67468
21
-3.59861
0
LINE
8
BLACK
6
CONTINUOUS
10
5.67468
20
-3.59861
11
5.67451
21
-3.59863
0
LINE
8
BLACK
6
CONTINUOUS
10
5.67451
20
-3.59863
11
5.67437
21
-3.59874
0
LINE
8
BLACK
6
CONTINUOUS
10
5.67437
20
-3.59874
11
5.66874
21
-3.60061
0
LINE
8
BLACK
6
CONTINUOUS
10
5.66874
20
-3.60061
11
5.66787
21
-3.60074
0
LINE
8
BLACK
6
CONTINUOUS
10
5.66787
20
-3.60074
11
5.66781
21
-3.60076
0
LINE
8
BLACK
6
CONTINUOUS
10
5.66781
20
-3.60076
11
5.66406
21
-3.60076
0
LINE
8
BLACK
6
CONTINUOUS
10
5.66406
20
-3.60076
11
5.66319
21
-3.60061
0
LINE
8
BLACK
6
CONTINUOUS
10
5.66319
20
-3.60061
11
5.66313
21
-3.60061
0
LINE
8
BLACK
6
CONTINUOUS
10
5.66313
20
-3.60061
11
5.6575
21
-3.59874
0
LINE
8
BLACK
6
CONTINUOUS
10
5.6575
20
-3.59874
11
5.6566
21
-3.59825
0
LINE
8
BLACK
6
CONTINUOUS
10
5.6566
20
-3.59825
11
5.65651
21
-3.5981
0
LINE
8
BLACK
6
CONTINUOUS
10
5.65651
20
-3.5981
11
5.65635
21
-3.59802
0
LINE
8
BLACK
6
CONTINUOUS
10
5.65635
20
-3.59802
11
5.65447
21
-3.59615
0
LINE
8
BLACK
6
CONTINUOUS
10
5.65447
20
-3.59615
11
5.65389
21
-3.59531
0
LINE
8
BLACK
6
CONTINUOUS
10
5.65389
20
-3.59531
11
5.65371
21
-3.5933
0
LINE
8
BLACK
6
CONTINUOUS
10
5.65371
20
-3.5933
11
5.65487
21
-3.59164
0
LINE
8
BLACK
6
CONTINUOUS
10
5.65487
20
-3.59164
11
5.65682
21
-3.59112
0
LINE
8
BLACK
6
CONTINUOUS
10
5.65682
20
-3.59112
11
5.65865
21
-3.59197
0
LINE
8
BLACK
6
CONTINUOUS
10
5.65865
20
-3.59197
11
5.66003
21
-3.59335
0
LINE
8
BLACK
6
CONTINUOUS
10
5.66003
20
-3.59335
11
5.66454
21
-3.59486
0
LINE
8
BLACK
6
CONTINUOUS
10
5.66454
20
-3.59486
11
5.66733
21
-3.59486
0
LINE
8
BLACK
6
CONTINUOUS
10
5.66733
20
-3.59486
11
5.67184
21
-3.59335
0
LINE
8
BLACK
6
CONTINUOUS
10
5.67184
20
-3.59335
11
5.67476
21
-3.59044
0
LINE
8
BLACK
6
CONTINUOUS
10
5.67476
20
-3.59044
11
5.67627
21
-3.58741
0
LINE
8
BLACK
6
CONTINUOUS
10
5.67627
20
-3.58741
11
5.67798
21
-3.58057
0
LINE
8
BLACK
6
CONTINUOUS
10
5.67798
20
-3.58057
11
5.67798
21
-3.57568
0
LINE
8
BLACK
6
CONTINUOUS
10
5.67798
20
-3.57568
11
5.67627
21
-3.56884
0
LINE
8
BLACK
6
CONTINUOUS
10
5.67627
20
-3.56884
11
5.67476
21
-3.56581
0
LINE
8
BLACK
6
CONTINUOUS
10
5.67476
20
-3.56581
11
5.67184
21
-3.5629
0
LINE
8
BLACK
6
CONTINUOUS
10
5.67184
20
-3.5629
11
5.66733
21
-3.56139
0
LINE
8
BLACK
6
CONTINUOUS
10
5.66733
20
-3.56139
11
5.66454
21
-3.56139
0
LINE
8
BLACK
6
CONTINUOUS
10
5.66454
20
-3.56139
11
5.66003
21
-3.5629
0
LINE
8
BLACK
6
CONTINUOUS
10
5.66003
20
-3.5629
11
5.65865
21
-3.56428
0
LINE
8
BLACK
6
CONTINUOUS
10
5.65865
20
-3.56428
11
5.65781
21
-3.56487
0
LINE
8
BLACK
6
CONTINUOUS
10
5.65781
20
-3.56487
11
5.6558
21
-3.56504
0
LINE
8
BLACK
6
CONTINUOUS
10
5.6558
20
-3.56504
11
5.65414
21
-3.56388
0
LINE
8
BLACK
6
CONTINUOUS
10
5.65414
20
-3.56388
11
5.65362
21
-3.56193
0
LINE
8
BLACK
6
CONTINUOUS
10
5.65362
20
-3.56193
11
5.65447
21
-3.5601
0
LINE
8
BLACK
6
CONTINUOUS
10
5.65447
20
-3.5601
11
5.65635
21
-3.55823
0
LINE
8
BLACK
6
CONTINUOUS
10
5.65635
20
-3.55823
11
5.65719
21
-3.55764
0
LINE
8
BLACK
6
CONTINUOUS
10
5.65719
20
-3.55764
11
5.65736
21
-3.55762
0
LINE
8
BLACK
6
CONTINUOUS
10
5.65736
20
-3.55762
11
5.6575
21
-3.55751
0
LINE
8
BLACK
6
CONTINUOUS
10
5.6575
20
-3.55751
11
5.66313
21
-3.55564
0
LINE
8
BLACK
6
CONTINUOUS
10
5.66313
20
-3.55564
11
5.664
21
-3.55551
0
LINE
8
BLACK
6
CONTINUOUS
10
5.664
20
-3.55551
11
5.66406
21
-3.55549
0
LINE
8
BLACK
6
CONTINUOUS
10
5.66406
20
-3.55549
11
5.66781
21
-3.55549
0
LINE
8
BLACK
6
CONTINUOUS
10
5.66781
20
-3.55549
11
5.66868
21
-3.55564
0
LINE
8
BLACK
6
CONTINUOUS
10
5.63695
20
-3.55567
11
5.63708
21
-3.55578
0
LINE
8
BLACK
6
CONTINUOUS
10
5.63708
20
-3.55578
11
5.63726
21
-3.5558
0
LINE
8
BLACK
6
CONTINUOUS
10
5.63726
20
-3.5558
11
5.64101
21
-3.55767
0
LINE
8
BLACK
6
CONTINUOUS
10
5.64101
20
-3.55767
11
5.64172
21
-3.5582
0
LINE
8
BLACK
6
CONTINUOUS
10
5.64172
20
-3.5582
11
5.64178
21
-3.55823
0
LINE
8
BLACK
6
CONTINUOUS
10
5.64178
20
-3.55823
11
5.64365
21
-3.5601
0
LINE
8
BLACK
6
CONTINUOUS
10
5.64365
20
-3.5601
11
5.64424
21
-3.56094
0
LINE
8
BLACK
6
CONTINUOUS
10
5.64424
20
-3.56094
11
5.64442
21
-3.56295
0
LINE
8
BLACK
6
CONTINUOUS
10
5.64442
20
-3.56295
11
5.64326
21
-3.56461
0
LINE
8
BLACK
6
CONTINUOUS
10
5.64326
20
-3.56461
11
5.64131
21
-3.56513
0
LINE
8
BLACK
6
CONTINUOUS
10
5.64131
20
-3.56513
11
5.63948
21
-3.56428
0
LINE
8
BLACK
6
CONTINUOUS
10
5.63948
20
-3.56428
11
5.63794
21
-3.56274
0
LINE
8
BLACK
6
CONTINUOUS
10
5.63794
20
-3.56274
11
5.63524
21
-3.56139
0
LINE
8
BLACK
6
CONTINUOUS
10
5.63524
20
-3.56139
11
5.62726
21
-3.56139
0
LINE
8
BLACK
6
CONTINUOUS
10
5.62726
20
-3.56139
11
5.62456
21
-3.56274
0
LINE
8
BLACK
6
CONTINUOUS
10
5.62456
20
-3.56274
11
5.62337
21
-3.56394
0
LINE
8
BLACK
6
CONTINUOUS
10
5.62337
20
-3.56394
11
5.62202
21
-3.56664
0
LINE
8
BLACK
6
CONTINUOUS
10
5.62202
20
-3.56664
11
5.62202
21
-3.56921
0
LINE
8
BLACK
6
CONTINUOUS
10
5.62202
20
-3.56921
11
5.62352
21
-3.57372
0
LINE
8
BLACK
6
CONTINUOUS
10
5.62352
20
-3.57372
11
5.64553
21
-3.59572
0
LINE
8
BLACK
6
CONTINUOUS
10
5.64553
20
-3.59572
11
5.6459
21
-3.59625
0
LINE
8
BLACK
6
CONTINUOUS
10
5.6459
20
-3.59625
11
5.646
21
-3.59633
0
LINE
8
BLACK
6
CONTINUOUS
10
5.646
20
-3.59633
11
5.64601
21
-3.59641
0
LINE
8
BLACK
6
CONTINUOUS
10
5.64601
20
-3.59641
11
5.64611
21
-3.59656
0
LINE
8
BLACK
6
CONTINUOUS
10
5.64611
20
-3.59656
11
5.64619
21
-3.59745
0
LINE
8
BLACK
6
CONTINUOUS
10
5.64619
20
-3.59745
11
5.64635
21
-3.59832
0
LINE
8
BLACK
6
CONTINUOUS
10
5.64635
20
-3.59832
11
5.64628
21
-3.59844
0
LINE
8
BLACK
6
CONTINUOUS
10
5.64628
20
-3.59844
11
5.64629
21
-3.59857
0
LINE
8
BLACK
6
CONTINUOUS
10
5.64629
20
-3.59857
11
5.64578
21
-3.5993
0
LINE
8
BLACK
6
CONTINUOUS
10
5.64578
20
-3.5993
11
5.64534
21
-3.60007
0
LINE
8
BLACK
6
CONTINUOUS
10
5.64534
20
-3.60007
11
5.64521
21
-3.60012
0
LINE
8
BLACK
6
CONTINUOUS
10
5.64521
20
-3.60012
11
5.64513
21
-3.60023
0
LINE
8
BLACK
6
CONTINUOUS
10
5.64513
20
-3.60023
11
5.64427
21
-3.60046
0
LINE
8
BLACK
6
CONTINUOUS
10
5.64427
20
-3.60046
11
5.64344
21
-3.60076
0
LINE
8
BLACK
6
CONTINUOUS
10
5.64344
20
-3.60076
11
5.61907
21
-3.60076
0
LINE
8
BLACK
6
CONTINUOUS
10
5.61907
20
-3.60076
11
5.61806
21
-3.60058
0
LINE
8
BLACK
6
CONTINUOUS
10
5.61806
20
-3.60058
11
5.61651
21
-3.59929
0
LINE
8
BLACK
6
CONTINUOUS
10
5.61651
20
-3.59929
11
5.61616
21
-3.5973
0
LINE
8
BLACK
6
CONTINUOUS
10
5.61616
20
-3.5973
11
5.61717
21
-3.59555
0
LINE
8
BLACK
6
CONTINUOUS
10
5.61717
20
-3.59555
11
5.61907
21
-3.59486
0
LINE
8
BLACK
6
CONTINUOUS
10
5.61907
20
-3.59486
11
5.63631
21
-3.59486
0
LINE
8
BLACK
6
CONTINUOUS
10
5.63631
20
-3.59486
11
5.61885
21
-3.5774
0
LINE
8
BLACK
6
CONTINUOUS
10
5.61885
20
-3.5774
11
5.61827
21
-3.57656
0
LINE
8
BLACK
6
CONTINUOUS
10
5.61827
20
-3.57656
11
5.61825
21
-3.57639
0
LINE
8
BLACK
6
CONTINUOUS
10
5.61825
20
-3.57639
11
5.61814
21
-3.57625
0
LINE
8
BLACK
6
CONTINUOUS
10
5.61814
20
-3.57625
11
5.61627
21
-3.57062
0
LINE
8
BLACK
6
CONTINUOUS
10
5.61627
20
-3.57062
11
5.61614
21
-3.56975
0
LINE
8
BLACK
6
CONTINUOUS
10
5.61614
20
-3.56975
11
5.61611
21
-3.56969
0
LINE
8
BLACK
6
CONTINUOUS
10
5.61611
20
-3.56969
11
5.61611
21
-3.56594
0
LINE
8
BLACK
6
CONTINUOUS
10
5.61611
20
-3.56594
11
5.61629
21
-3.56493
0
LINE
8
BLACK
6
CONTINUOUS
10
5.61629
20
-3.56493
11
5.61641
21
-3.56479
0
LINE
8
BLACK
6
CONTINUOUS
10
5.61641
20
-3.56479
11
5.61643
21
-3.56462
0
LINE
8
BLACK
6
CONTINUOUS
10
5.61643
20
-3.56462
11
5.6183
21
-3.56087
0
LINE
8
BLACK
6
CONTINUOUS
10
5.6183
20
-3.56087
11
5.61883
21
-3.56016
0
LINE
8
BLACK
6
CONTINUOUS
10
5.61883
20
-3.56016
11
5.61885
21
-3.5601
0
LINE
8
BLACK
6
CONTINUOUS
10
5.61885
20
-3.5601
11
5.62073
21
-3.55823
0
LINE
8
BLACK
6
CONTINUOUS
10
5.62073
20
-3.55823
11
5.62145
21
-3.55772
0
LINE
8
BLACK
6
CONTINUOUS
10
5.62145
20
-3.55772
11
5.6215
21
-3.55767
0
LINE
8
BLACK
6
CONTINUOUS
10
5.6215
20
-3.55767
11
5.62524
21
-3.5558
0
LINE
8
BLACK
6
CONTINUOUS
10
5.62524
20
-3.5558
11
5.62623
21
-3.55551
0
LINE
8
BLACK
6
CONTINUOUS
10
5.62623
20
-3.55551
11
5.6264
21
-3.55555
0
LINE
8
BLACK
6
CONTINUOUS
10
5.6264
20
-3.55555
11
5.62657
21
-3.55549
0
LINE
8
BLACK
6
CONTINUOUS
10
5.62657
20
-3.55549
11
5.63594
21
-3.55549
0
LINE
8
BLACK
6
CONTINUOUS
10
5.63594
20
-3.55549
11
5.63695
21
-3.55567
0
LINE
8
BLACK
6
CONTINUOUS
10
5.55455
20
-3.54939
11
5.55525
21
-3.55106
0
LINE
8
BLACK
6
CONTINUOUS
10
5.55525
20
-3.55106
11
5.55455
21
-3.55273
0
LINE
8
BLACK
6
CONTINUOUS
10
5.55455
20
-3.55273
11
5.55288
21
-3.55343
0
LINE
8
BLACK
6
CONTINUOUS
10
5.55288
20
-3.55343
11
5.53231
21
-3.55343
0
LINE
8
BLACK
6
CONTINUOUS
10
5.53231
20
-3.55343
11
5.53064
21
-3.55273
0
LINE
8
BLACK
6
CONTINUOUS
10
5.53064
20
-3.55273
11
5.52995
21
-3.55106
0
LINE
8
BLACK
6
CONTINUOUS
10
5.52995
20
-3.55106
11
5.53064
21
-3.54939
0
LINE
8
BLACK
6
CONTINUOUS
10
5.53064
20
-3.54939
11
5.53231
21
-3.5487
0
LINE
8
BLACK
6
CONTINUOUS
10
5.53231
20
-3.5487
11
5.55288
21
-3.5487
0
LINE
8
BLACK
6
CONTINUOUS
10
5.55288
20
-3.5487
11
5.55455
21
-3.54939
0
LINE
8
BLACK
6
CONTINUOUS
10
5.56902
20
-3.3133
11
5.56964
21
-3.3133
0
LINE
8
BLACK
6
CONTINUOUS
10
5.56964
20
-3.3133
11
5.57015
21
-3.31367
0
LINE
8
BLACK
6
CONTINUOUS
10
5.57015
20
-3.31367
11
5.57074
21
-3.31386
0
LINE
8
BLACK
6
CONTINUOUS
10
5.57074
20
-3.31386
11
5.57111
21
-3.31437
0
LINE
8
BLACK
6
CONTINUOUS
10
5.57111
20
-3.31437
11
5.57161
21
-3.31473
0
LINE
8
BLACK
6
CONTINUOUS
10
5.57161
20
-3.31473
11
5.5718
21
-3.31533
0
LINE
8
BLACK
6
CONTINUOUS
10
5.5718
20
-3.31533
11
5.57217
21
-3.31583
0
LINE
8
BLACK
6
CONTINUOUS
10
5.57217
20
-3.31583
11
5.57217
21
-3.31645
0
LINE
8
BLACK
6
CONTINUOUS
10
5.57217
20
-3.31645
11
5.57236
21
-3.31705
0
LINE
8
BLACK
6
CONTINUOUS
10
5.57236
20
-3.31705
11
5.57236
21
-3.52295
0
LINE
8
BLACK
6
CONTINUOUS
10
5.57236
20
-3.52295
11
5.57217
21
-3.52355
0
LINE
8
BLACK
6
CONTINUOUS
10
5.57217
20
-3.52355
11
5.57217
21
-3.52417
0
LINE
8
BLACK
6
CONTINUOUS
10
5.57217
20
-3.52417
11
5.5718
21
-3.52467
0
LINE
8
BLACK
6
CONTINUOUS
10
5.5718
20
-3.52467
11
5.57161
21
-3.52527
0
LINE
8
BLACK
6
CONTINUOUS
10
5.57161
20
-3.52527
11
5.57111
21
-3.52563
0
LINE
8
BLACK
6
CONTINUOUS
10
5.57111
20
-3.52563
11
5.57074
21
-3.52614
0
LINE
8
BLACK
6
CONTINUOUS
10
5.57074
20
-3.52614
11
5.57015
21
-3.52633
0
LINE
8
BLACK
6
CONTINUOUS
10
5.57015
20
-3.52633
11
5.56964
21
-3.5267
0
LINE
8
BLACK
6
CONTINUOUS
10
5.56964
20
-3.5267
11
5.56902
21
-3.5267
0
LINE
8
BLACK
6
CONTINUOUS
10
5.56902
20
-3.5267
11
5.56843
21
-3.52689
0
LINE
8
BLACK
6
CONTINUOUS
10
5.56843
20
-3.52689
11
5.37157
21
-3.52689
0
LINE
8
BLACK
6
CONTINUOUS
10
5.37157
20
-3.52689
11
5.37098
21
-3.5267
0
LINE
8
BLACK
6
CONTINUOUS
10
5.37098
20
-3.5267
11
5.37036
21
-3.5267
0
LINE
8
BLACK
6
CONTINUOUS
10
5.37036
20
-3.5267
11
5.36985
21
-3.52633
0
LINE
8
BLACK
6
CONTINUOUS
10
5.36985
20
-3.52633
11
5.36926
21
-3.52614
0
LINE
8
BLACK
6
CONTINUOUS
10
5.36926
20
-3.52614
11
5.36889
21
-3.52563
0
LINE
8
BLACK
6
CONTINUOUS
10
5.36889
20
-3.52563
11
5.36839
21
-3.52527
0
LINE
8
BLACK
6
CONTINUOUS
10
5.36839
20
-3.52527
11
5.3682
21
-3.52467
0
LINE
8
BLACK
6
CONTINUOUS
10
5.3682
20
-3.52467
11
5.36783
21
-3.52417
0
LINE
8
BLACK
6
CONTINUOUS
10
5.36783
20
-3.52417
11
5.36783
21
-3.52355
0
LINE
8
BLACK
6
CONTINUOUS
10
5.36783
20
-3.52355
11
5.36764
21
-3.52295
0
LINE
8
BLACK
6
CONTINUOUS
10
5.36764
20
-3.52295
11
5.36764
21
-3.31705
0
LINE
8
BLACK
6
CONTINUOUS
10
5.36764
20
-3.31705
11
5.36783
21
-3.31645
0
LINE
8
BLACK
6
CONTINUOUS
10
5.36783
20
-3.31645
11
5.36783
21
-3.31583
0
LINE
8
BLACK
6
CONTINUOUS
10
5.36783
20
-3.31583
11
5.3682
21
-3.31533
0
LINE
8
BLACK
6
CONTINUOUS
10
5.3682
20
-3.31533
11
5.36839
21
-3.31473
0
LINE
8
BLACK
6
CONTINUOUS
10
5.36839
20
-3.31473
11
5.36889
21
-3.31437
0
LINE
8
BLACK
6
CONTINUOUS
10
5.36889
20
-3.31437
11
5.36926
21
-3.31386
0
LINE
8
BLACK
6
CONTINUOUS
10
5.36926
20
-3.31386
11
5.36985
21
-3.31367
0
LINE
8
BLACK
6
CONTINUOUS
10
5.36985
20
-3.31367
11
5.37036
21
-3.3133
0
LINE
8
BLACK
6
CONTINUOUS
10
5.37036
20
-3.3133
11
5.37098
21
-3.3133
0
LINE
8
BLACK
6
CONTINUOUS
10
5.37098
20
-3.3133
11
5.37157
21
-3.31311
0
LINE
8
BLACK
6
CONTINUOUS
10
5.37157
20
-3.31311
11
5.56843
21
-3.31311
0
LINE
8
BLACK
6
CONTINUOUS
10
5.56843
20
-3.31311
11
5.56902
21
-3.3133
0
LINE
8
BLACK
6
CONTINUOUS
10
5.37551
20
-3.32098
11
5.37551
21
-3.51902
0
LINE
8
BLACK
6
CONTINUOUS
10
5.37551
20
-3.51902
11
5.56449
21
-3.51902
0
LINE
8
BLACK
6
CONTINUOUS
10
5.56449
20
-3.51902
11
5.56449
21
-3.32098
0
LINE
8
BLACK
6
CONTINUOUS
10
5.56449
20
-3.32098
11
5.37551
21
-3.32098
0
LINE
8
BLACK
6
CONTINUOUS
10
5.48213
20
-3.38782
11
5.48221
21
-3.38787
0
LINE
8
BLACK
6
CONTINUOUS
10
5.48221
20
-3.38787
11
5.4823
21
-3.38788
0
LINE
8
BLACK
6
CONTINUOUS
10
5.4823
20
-3.38788
11
5.48944
21
-3.39026
0
LINE
8
BLACK
6
CONTINUOUS
10
5.48944
20
-3.39026
11
5.49072
21
-3.3909
0
LINE
8
BLACK
6
CONTINUOUS
10
5.49072
20
-3.3909
11
5.491
21
-3.39125
0
LINE
8
BLACK
6
CONTINUOUS
10
5.491
20
-3.39125
11
5.49139
21
-3.39146
0
LINE
8
BLACK
6
CONTINUOUS
10
5.49139
20
-3.39146
11
5.49615
21
-3.39623
0
LINE
8
BLACK
6
CONTINUOUS
10
5.49615
20
-3.39623
11
5.49701
21
-3.39738
0
LINE
8
BLACK
6
CONTINUOUS
10
5.49701
20
-3.39738
11
5.49703
21
-3.39746
0
LINE
8
BLACK
6
CONTINUOUS
10
5.49703
20
-3.39746
11
5.49709
21
-3.39753
0
LINE
8
BLACK
6
CONTINUOUS
10
5.49709
20
-3.39753
11
5.49947
21
-3.40229
0
LINE
8
BLACK
6
CONTINUOUS
10
5.49947
20
-3.40229
11
5.49976
21
-3.40316
0
LINE
8
BLACK
6
CONTINUOUS
10
5.49976
20
-3.40316
11
5.49985
21
-3.40331
0
LINE
8
BLACK
6
CONTINUOUS
10
5.49985
20
-3.40331
11
5.50223
21
-3.41283
0
LINE
8
BLACK
6
CONTINUOUS
10
5.50223
20
-3.41283
11
5.50234
21
-3.41391
0
LINE
8
BLACK
6
CONTINUOUS
10
5.50234
20
-3.41391
11
5.50238
21
-3.41405
0
LINE
8
BLACK
6
CONTINUOUS
10
5.50238
20
-3.41405
11
5.50238
21
-3.42119
0
LINE
8
BLACK
6
CONTINUOUS
10
5.50238
20
-3.42119
11
5.50223
21
-3.42226
0
LINE
8
BLACK
6
CONTINUOUS
10
5.50223
20
-3.42226
11
5.50223
21
-3.4224
0
LINE
8
BLACK
6
CONTINUOUS
10
5.50223
20
-3.4224
11
5.49985
21
-3.43193
0
LINE
8
BLACK
6
CONTINUOUS
10
5.49985
20
-3.43193
11
5.4995
21
-3.43277
0
LINE
8
BLACK
6
CONTINUOUS
10
5.4995
20
-3.43277
11
5.49947
21
-3.43295
0
LINE
8
BLACK
6
CONTINUOUS
10
5.49947
20
-3.43295
11
5.49709
21
-3.43771
0
LINE
8
BLACK
6
CONTINUOUS
10
5.49709
20
-3.43771
11
5.49627
21
-3.43889
0
LINE
8
BLACK
6
CONTINUOUS
10
5.49627
20
-3.43889
11
5.4962
21
-3.43893
0
LINE
8
BLACK
6
CONTINUOUS
10
5.4962
20
-3.43893
11
5.49615
21
-3.43901
0
LINE
8
BLACK
6
CONTINUOUS
10
5.49615
20
-3.43901
11
5.49139
21
-3.44377
0
LINE
8
BLACK
6
CONTINUOUS
10
5.49139
20
-3.44377
11
5.49024
21
-3.44463
0
LINE
8
BLACK
6
CONTINUOUS
10
5.49024
20
-3.44463
11
5.48981
21
-3.44473
0
LINE
8
BLACK
6
CONTINUOUS
10
5.48981
20
-3.44473
11
5.48944
21
-3.44498
0
LINE
8
BLACK
6
CONTINUOUS
10
5.48944
20
-3.44498
11
5.4823
21
-3.44736
0
LINE
8
BLACK
6
CONTINUOUS
10
5.4823
20
-3.44736
11
5.48088
21
-3.44762
0
LINE
8
BLACK
6
CONTINUOUS
10
5.48088
20
-3.44762
11
5.4808
21
-3.44759
0
LINE
8
BLACK
6
CONTINUOUS
10
5.4808
20
-3.44759
11
5.48071
21
-3.44762
0
LINE
8
BLACK
6
CONTINUOUS
10
5.48071
20
-3.44762
11
5.47595
21
-3.44762
0
LINE
8
BLACK
6
CONTINUOUS
10
5.47595
20
-3.44762
11
5.47453
21
-3.44741
0
LINE
8
BLACK
6
CONTINUOUS
10
5.47453
20
-3.44741
11
5.47446
21
-3.44737
0
LINE
8
BLACK
6
CONTINUOUS
10
5.47446
20
-3.44737
11
5.47437
21
-3.44736
0
LINE
8
BLACK
6
CONTINUOUS
10
5.47437
20
-3.44736
11
5.46723
21
-3.44498
0
LINE
8
BLACK
6
CONTINUOUS
10
5.46723
20
-3.44498
11
5.46595
21
-3.44434
0
LINE
8
BLACK
6
CONTINUOUS
10
5.46595
20
-3.44434
11
5.46567
21
-3.44399
0
LINE
8
BLACK
6
CONTINUOUS
10
5.46567
20
-3.44399
11
5.46527
21
-3.44377
0
LINE
8
BLACK
6
CONTINUOUS
10
5.46527
20
-3.44377
11
5.46289
21
-3.44139
0
LINE
8
BLACK
6
CONTINUOUS
10
5.46289
20
-3.44139
11
5.46203
21
-3.44024
0
LINE
8
BLACK
6
CONTINUOUS
10
5.46203
20
-3.44024
11
5.46144
21
-3.43749
0
LINE
8
BLACK
6
CONTINUOUS
10
5.46144
20
-3.43749
11
5.46243
21
-3.43485
0
LINE
8
BLACK
6
CONTINUOUS
10
5.46243
20
-3.43485
11
5.46469
21
-3.43317
0
LINE
8
BLACK
6
CONTINUOUS
10
5.46469
20
-3.43317
11
5.46749
21
-3.43297
0
LINE
8
BLACK
6
CONTINUOUS
10
5.46749
20
-3.43297
11
5.46996
21
-3.43432
0
LINE
8
BLACK
6
CONTINUOUS
10
5.46996
20
-3.43432
11
5.47151
21
-3.43587
0
LINE
8
BLACK
6
CONTINUOUS
10
5.47151
20
-3.43587
11
5.47676
21
-3.43762
0
LINE
8
BLACK
6
CONTINUOUS
10
5.47676
20
-3.43762
11
5.4799
21
-3.43762
0
LINE
8
BLACK
6
CONTINUOUS
10
5.4799
20
-3.43762
11
5.48516
21
-3.43587
0
LINE
8
BLACK
6
CONTINUOUS
10
5.48516
20
-3.43587
11
5.48851
21
-3.43251
0
LINE
8
BLACK
6
CONTINUOUS
10
5.48851
20
-3.43251
11
5.49028
21
-3.42897
0
LINE
8
BLACK
6
CONTINUOUS
10
5.49028
20
-3.42897
11
5.49238
21
-3.42057
0
LINE
8
BLACK
6
CONTINUOUS
10
5.49238
20
-3.42057
11
5.49238
21
-3.41466
0
LINE
8
BLACK
6
CONTINUOUS
10
5.49238
20
-3.41466
11
5.49028
21
-3.40627
0
LINE
8
BLACK
6
CONTINUOUS
10
5.49028
20
-3.40627
11
5.48851
21
-3.40272
0
LINE
8
BLACK
6
CONTINUOUS
10
5.48851
20
-3.40272
11
5.48516
21
-3.39937
0
LINE
8
BLACK
6
CONTINUOUS
10
5.48516
20
-3.39937
11
5.4799
21
-3.39762
0
LINE
8
BLACK
6
CONTINUOUS
10
5.4799
20
-3.39762
11
5.47676
21
-3.39762
0
LINE
8
BLACK
6
CONTINUOUS
10
5.47676
20
-3.39762
11
5.47151
21
-3.39937
0
LINE
8
BLACK
6
CONTINUOUS
10
5.47151
20
-3.39937
11
5.46996
21
-3.40092
0
LINE
8
BLACK
6
CONTINUOUS
10
5.46996
20
-3.40092
11
5.46881
21
-3.40178
0
LINE
8
BLACK
6
CONTINUOUS
10
5.46881
20
-3.40178
11
5.46606
21
-3.40237
0
LINE
8
BLACK
6
CONTINUOUS
10
5.46606
20
-3.40237
11
5.46343
21
-3.40138
0
LINE
8
BLACK
6
CONTINUOUS
10
5.46343
20
-3.40138
11
5.46174
21
-3.39912
0
LINE
8
BLACK
6
CONTINUOUS
10
5.46174
20
-3.39912
11
5.46154
21
-3.39632
0
LINE
8
BLACK
6
CONTINUOUS
10
5.46154
20
-3.39632
11
5.46289
21
-3.39385
0
LINE
8
BLACK
6
CONTINUOUS
10
5.46289
20
-3.39385
11
5.46527
21
-3.39146
0
LINE
8
BLACK
6
CONTINUOUS
10
5.46527
20
-3.39146
11
5.46642
21
-3.39061
0
LINE
8
BLACK
6
CONTINUOUS
10
5.46642
20
-3.39061
11
5.46686
21
-3.39051
0
LINE
8
BLACK
6
CONTINUOUS
10
5.46686
20
-3.39051
11
5.46723
21
-3.39026
0
LINE
8
BLACK
6
CONTINUOUS
10
5.46723
20
-3.39026
11
5.47437
21
-3.38788
0
LINE
8
BLACK
6
CONTINUOUS
10
5.47437
20
-3.38788
11
5.47578
21
-3.38762
0
LINE
8
BLACK
6
CONTINUOUS
10
5.47578
20
-3.38762
11
5.47587
21
-3.38764
0
LINE
8
BLACK
6
CONTINUOUS
10
5.47587
20
-3.38764
11
5.47595
21
-3.38762
0
LINE
8
BLACK
6
CONTINUOUS
10
5.47595
20
-3.38762
11
5.48071
21
-3.38762
0
LINE
8
BLACK
6
CONTINUOUS
10
5.48071
20
-3.38762
11
5.48213
21
-3.38782
0
LINE
8
BLACK
6
CONTINUOUS
10
5.43374
20
-3.38786
11
5.4351
21
-3.38804
0
LINE
8
BLACK
6
CONTINUOUS
10
5.4351
20
-3.38804
11
5.43513
21
-3.38807
0
LINE
8
BLACK
6
CONTINUOUS
10
5.43513
20
-3.38807
11
5.43518
21
-3.38807
0
LINE
8
BLACK
6
CONTINUOUS
10
5.43518
20
-3.38807
11
5.43621
21
-3.38897
0
LINE
8
BLACK
6
CONTINUOUS
10
5.43621
20
-3.38897
11
5.43726
21
-3.38985
0
LINE
8
BLACK
6
CONTINUOUS
10
5.43726
20
-3.38985
11
5.44174
21
-3.39658
0
LINE
8
BLACK
6
CONTINUOUS
10
5.44174
20
-3.39658
11
5.44558
21
-3.40041
0
LINE
8
BLACK
6
CONTINUOUS
10
5.44558
20
-3.40041
11
5.44962
21
-3.40243
0
LINE
8
BLACK
6
CONTINUOUS
10
5.44962
20
-3.40243
11
5.4508
21
-3.40325
0
LINE
8
BLACK
6
CONTINUOUS
10
5.4508
20
-3.40325
11
5.45223
21
-3.40568
0
LINE
8
BLACK
6
CONTINUOUS
10
5.45223
20
-3.40568
11
5.45212
21
-3.40849
0
LINE
8
BLACK
6
CONTINUOUS
10
5.45212
20
-3.40849
11
5.45052
21
-3.4108
0
LINE
8
BLACK
6
CONTINUOUS
10
5.45052
20
-3.4108
11
5.44792
21
-3.41188
0
LINE
8
BLACK
6
CONTINUOUS
10
5.44792
20
-3.41188
11
5.44514
21
-3.41138
0
LINE
8
BLACK
6
CONTINUOUS
10
5.44514
20
-3.41138
11
5.44038
21
-3.409
0
LINE
8
BLACK
6
CONTINUOUS
10
5.44038
20
-3.409
11
5.4392
21
-3.40818
0
LINE
8
BLACK
6
CONTINUOUS
10
5.4392
20
-3.40818
11
5.43916
21
-3.4081
0
LINE
8
BLACK
6
CONTINUOUS
10
5.43916
20
-3.4081
11
5.43908
21
-3.40806
0
LINE
8
BLACK
6
CONTINUOUS
10
5.43908
20
-3.40806
11
5.4381
21
-3.40707
0
LINE
8
BLACK
6
CONTINUOUS
10
5.4381
20
-3.40707
11
5.4381
21
-3.43762
0
LINE
8
BLACK
6
CONTINUOUS
10
5.4381
20
-3.43762
11
5.44738
21
-3.43762
0
LINE
8
BLACK
6
CONTINUOUS
10
5.44738
20
-3.43762
11
5.4488
21
-3.43782
0
LINE
8
BLACK
6
CONTINUOUS
10
5.4488
20
-3.43782
11
5.45117
21
-3.43935
0
LINE
8
BLACK
6
CONTINUOUS
10
5.45117
20
-3.43935
11
5.45233
21
-3.44191
0
LINE
8
BLACK
6
CONTINUOUS
10
5.45233
20
-3.44191
11
5.45193
21
-3.4447
0
LINE
8
BLACK
6
CONTINUOUS
10
5.45193
20
-3.4447
11
5.45008
21
-3.44683
0
LINE
8
BLACK
6
CONTINUOUS
10
5.45008
20
-3.44683
11
5.44738
21
-3.44762
0
LINE
8
BLACK
6
CONTINUOUS
10
5.44738
20
-3.44762
11
5.41881
21
-3.44762
0
LINE
8
BLACK
6
CONTINUOUS
10
5.41881
20
-3.44762
11
5.41739
21
-3.44741
0
LINE
8
BLACK
6
CONTINUOUS
10
5.41739
20
-3.44741
11
5.41502
21
-3.44589
0
LINE
8
BLACK
6
CONTINUOUS
10
5.41502
20
-3.44589
11
5.41386
21
-3.44332
0
LINE
8
BLACK
6
CONTINUOUS
10
5.41386
20
-3.44332
11
5.41426
21
-3.44054
0
LINE
8
BLACK
6
CONTINUOUS
10
5.41426
20
-3.44054
11
5.41611
21
-3.43841
0
LINE
8
BLACK
6
CONTINUOUS
10
5.41611
20
-3.43841
11
5.41881
21
-3.43762
0
LINE
8
BLACK
6
CONTINUOUS
10
5.41881
20
-3.43762
11
5.4281
21
-3.43762
0
LINE
8
BLACK
6
CONTINUOUS
10
5.4281
20
-3.43762
11
5.4281
21
-3.39262
0
LINE
8
BLACK
6
CONTINUOUS
10
5.4281
20
-3.39262
11
5.42828
21
-3.39136
0
LINE
8
BLACK
6
CONTINUOUS
10
5.42828
20
-3.39136
11
5.42828
21
-3.39128
0
LINE
8
BLACK
6
CONTINUOUS
10
5.42828
20
-3.39128
11
5.42829
21
-3.39126
0
LINE
8
BLACK
6
CONTINUOUS
10
5.42829
20
-3.39126
11
5.4283
21
-3.3912
0
LINE
8
BLACK
6
CONTINUOUS
10
5.4283
20
-3.3912
11
5.42904
21
-3.39005
0
LINE
8
BLACK
6
CONTINUOUS
10
5.42904
20
-3.39005
11
5.42976
21
-3.38889
0
LINE
8
BLACK
6
CONTINUOUS
10
5.42976
20
-3.38889
11
5.4298
21
-3.38887
0
LINE
8
BLACK
6
CONTINUOUS
10
5.4298
20
-3.38887
11
5.42983
21
-3.38883
0
LINE
8
BLACK
6
CONTINUOUS
10
5.42983
20
-3.38883
11
5.43107
21
-3.38827
0
LINE
8
BLACK
6
CONTINUOUS
10
5.43107
20
-3.38827
11
5.43231
21
-3.38768
0
LINE
8
BLACK
6
CONTINUOUS
10
5.43231
20
-3.38768
11
5.43235
21
-3.38769
0
LINE
8
BLACK
6
CONTINUOUS
10
5.43235
20
-3.38769
11
5.43239
21
-3.38767
0
LINE
8
BLACK
6
CONTINUOUS
10
5.43239
20
-3.38767
11
5.43374
21
-3.38786
0
LINE
8
BLACK
6
CONTINUOUS
10
5.52089
20
-3.38807
11
5.52302
21
-3.38992
0
LINE
8
BLACK
6
CONTINUOUS
10
5.52302
20
-3.38992
11
5.52381
21
-3.39262
0
LINE
8
BLACK
6
CONTINUOUS
10
5.52381
20
-3.39262
11
5.52381
21
-3.44262
0
LINE
8
BLACK
6
CONTINUOUS
10
5.52381
20
-3.44262
11
5.5236
21
-3.44404
0
LINE
8
BLACK
6
CONTINUOUS
10
5.5236
20
-3.44404
11
5.52208
21
-3.4464
0
LINE
8
BLACK
6
CONTINUOUS
10
5.52208
20
-3.4464
11
5.51951
21
-3.44757
0
LINE
8
BLACK
6
CONTINUOUS
10
5.51951
20
-3.44757
11
5.51673
21
-3.44717
0
LINE
8
BLACK
6
CONTINUOUS
10
5.51673
20
-3.44717
11
5.5146
21
-3.44532
0
LINE
8
BLACK
6
CONTINUOUS
10
5.5146
20
-3.44532
11
5.51381
21
-3.44262
0
LINE
8
BLACK
6
CONTINUOUS
10
5.51381
20
-3.44262
11
5.51381
21
-3.39262
0
LINE
8
BLACK
6
CONTINUOUS
10
5.51381
20
-3.39262
11
5.51402
21
-3.3912
0
LINE
8
BLACK
6
CONTINUOUS
10
5.51402
20
-3.3912
11
5.51554
21
-3.38883
0
LINE
8
BLACK
6
CONTINUOUS
10
5.51554
20
-3.38883
11
5.51811
21
-3.38767
0
LINE
8
BLACK
6
CONTINUOUS
10
5.51811
20
-3.38767
11
5.52089
21
-3.38807
0
LINE
8
BLACK
6
CONTINUOUS
10
5.36011
20
-3.51839
11
5.36154
21
-3.52036
0
LINE
8
BLACK
6
CONTINUOUS
10
5.36154
20
-3.52036
11
5.36154
21
-3.52279
0
LINE
8
BLACK
6
CONTINUOUS
10
5.36154
20
-3.52279
11
5.36011
21
-3.52476
0
LINE
8
BLACK
6
CONTINUOUS
10
5.36011
20
-3.52476
11
5.3578
21
-3.52551
0
LINE
8
BLACK
6
CONTINUOUS
10
5.3578
20
-3.52551
11
5.29283
21
-3.52551
0
LINE
8
BLACK
6
CONTINUOUS
10
5.29283
20
-3.52551
11
5.29052
21
-3.52476
0
LINE
8
BLACK
6
CONTINUOUS
10
5.29052
20
-3.52476
11
5.28909
21
-3.52279
0
LINE
8
BLACK
6
CONTINUOUS
10
5.28909
20
-3.52279
11
5.28909
21
-3.52036
0
LINE
8
BLACK
6
CONTINUOUS
10
5.28909
20
-3.52036
11
5.29052
21
-3.51839
0
LINE
8
BLACK
6
CONTINUOUS
10
5.29052
20
-3.51839
11
5.29283
21
-3.51764
0
LINE
8
BLACK
6
CONTINUOUS
10
5.29283
20
-3.51764
11
5.3578
21
-3.51764
0
LINE
8
BLACK
6
CONTINUOUS
10
5.3578
20
-3.51764
11
5.36011
21
-3.51839
0
LINE
8
BLACK
6
CONTINUOUS
10
5.34959
20
-3.29663
11
5.3489
21
-3.29496
0
LINE
8
BLACK
6
CONTINUOUS
10
5.3489
20
-3.29496
11
5.34959
21
-3.29329
0
LINE
8
BLACK
6
CONTINUOUS
10
5.34959
20
-3.29329
11
5.35126
21
-3.2926
0
LINE
8
BLACK
6
CONTINUOUS
10
5.35126
20
-3.2926
11
5.5615
21
-3.2926
0
LINE
8
BLACK
6
CONTINUOUS
10
5.5615
20
-3.2926
11
5.5615
21
-3.1674
0
LINE
8
BLACK
6
CONTINUOUS
10
5.5615
20
-3.1674
11
5.35126
21
-3.1674
0
LINE
8
BLACK
6
CONTINUOUS
10
5.35126
20
-3.1674
11
5.34959
21
-3.16671
0
LINE
8
BLACK
6
CONTINUOUS
10
5.34959
20
-3.16671
11
5.3489
21
-3.16504
0
LINE
8
BLACK
6
CONTINUOUS
10
5.3489
20
-3.16504
11
5.34959
21
-3.16337
0
LINE
8
BLACK
6
CONTINUOUS
10
5.34959
20
-3.16337
11
5.35126
21
-3.16268
0
LINE
8
BLACK
6
CONTINUOUS
10
5.35126
20
-3.16268
11
5.56386
21
-3.16268
0
LINE
8
BLACK
6
CONTINUOUS
10
5.56386
20
-3.16268
11
5.56553
21
-3.16337
0
LINE
8
BLACK
6
CONTINUOUS
10
5.56553
20
-3.16337
11
5.56622
21
-3.16504
0
LINE
8
BLACK
6
CONTINUOUS
10
5.56622
20
-3.16504
11
5.56622
21
-3.29496
0
LINE
8
BLACK
6
CONTINUOUS
10
5.56622
20
-3.29496
11
5.56553
21
-3.29663
0
LINE
8
BLACK
6
CONTINUOUS
10
5.56553
20
-3.29663
11
5.56386
21
-3.29732
0
LINE
8
BLACK
6
CONTINUOUS
10
5.56386
20
-3.29732
11
5.35126
21
-3.29732
0
LINE
8
BLACK
6
CONTINUOUS
10
5.35126
20
-3.29732
11
5.34959
21
-3.29663
0
LINE
8
BLACK
6
CONTINUOUS
10
5.59097
20
-3.20562
11
5.59114
21
-3.20561
0
LINE
8
BLACK
6
CONTINUOUS
10
5.59114
20
-3.20561
11
5.59183
21
-3.20611
0
LINE
8
BLACK
6
CONTINUOUS
10
5.59183
20
-3.20611
11
5.59258
21
-3.20654
0
LINE
8
BLACK
6
CONTINUOUS
10
5.59258
20
-3.20654
11
5.59263
21
-3.2067
0
LINE
8
BLACK
6
CONTINUOUS
10
5.59263
20
-3.2067
11
5.59277
21
-3.2068
0
LINE
8
BLACK
6
CONTINUOUS
10
5.59277
20
-3.2068
11
5.59636
21
-3.21218
0
LINE
8
BLACK
6
CONTINUOUS
10
5.59636
20
-3.21218
11
5.59956
21
-3.21539
0
LINE
8
BLACK
6
CONTINUOUS
10
5.59956
20
-3.21539
11
5.60288
21
-3.21705
0
LINE
8
BLACK
6
CONTINUOUS
10
5.60288
20
-3.21705
11
5.60371
21
-3.21766
0
LINE
8
BLACK
6
CONTINUOUS
10
5.60371
20
-3.21766
11
5.60451
21
-3.21951
0
LINE
8
BLACK
6
CONTINUOUS
10
5.60451
20
-3.21951
11
5.60394
21
-3.22145
0
LINE
8
BLACK
6
CONTINUOUS
10
5.60394
20
-3.22145
11
5.60225
21
-3.22256
0
LINE
8
BLACK
6
CONTINUOUS
10
5.60225
20
-3.22256
11
5.60024
21
-3.22233
0
LINE
8
BLACK
6
CONTINUOUS
10
5.60024
20
-3.22233
11
5.59649
21
-3.22046
0
LINE
8
BLACK
6
CONTINUOUS
10
5.59649
20
-3.22046
11
5.59578
21
-3.21993
0
LINE
8
BLACK
6
CONTINUOUS
10
5.59578
20
-3.21993
11
5.59573
21
-3.2199
0
LINE
8
BLACK
6
CONTINUOUS
10
5.59573
20
-3.2199
11
5.59327
21
-3.21744
0
LINE
8
BLACK
6
CONTINUOUS
10
5.59327
20
-3.21744
11
5.59327
21
-3.24486
0
LINE
8
BLACK
6
CONTINUOUS
10
5.59327
20
-3.24486
11
5.60156
21
-3.24486
0
LINE
8
BLACK
6
CONTINUOUS
10
5.60156
20
-3.24486
11
5.60257
21
-3.24504
0
LINE
8
BLACK
6
CONTINUOUS
10
5.60257
20
-3.24504
11
5.60412
21
-3.24633
0
LINE
8
BLACK
6
CONTINUOUS
10
5.60412
20
-3.24633
11
5.60447
21
-3.24832
0
LINE
8
BLACK
6
CONTINUOUS
10
5.60447
20
-3.24832
11
5.60346
21
-3.25007
0
LINE
8
BLACK
6
CONTINUOUS
10
5.60346
20
-3.25007
11
5.60156
21
-3.25076
0
LINE
8
BLACK
6
CONTINUOUS
10
5.60156
20
-3.25076
11
5.57907
21
-3.25076
0
LINE
8
BLACK
6
CONTINUOUS
10
5.57907
20
-3.25076
11
5.57806
21
-3.25058
0
LINE
8
BLACK
6
CONTINUOUS
10
5.57806
20
-3.25058
11
5.57651
21
-3.24929
0
LINE
8
BLACK
6
CONTINUOUS
10
5.57651
20
-3.24929
11
5.57616
21
-3.2473
0
LINE
8
BLACK
6
CONTINUOUS
10
5.57616
20
-3.2473
11
5.57717
21
-3.24555
0
LINE
8
BLACK
6
CONTINUOUS
10
5.57717
20
-3.24555
11
5.57907
21
-3.24486
0
LINE
8
BLACK
6
CONTINUOUS
10
5.57907
20
-3.24486
11
5.58736
21
-3.24486
0
LINE
8
BLACK
6
CONTINUOUS
10
5.58736
20
-3.24486
11
5.58736
21
-3.20844
0
LINE
8
BLACK
6
CONTINUOUS
10
5.58736
20
-3.20844
11
5.58754
21
-3.20743
0
LINE
8
BLACK
6
CONTINUOUS
10
5.58754
20
-3.20743
11
5.58765
21
-3.2073
0
LINE
8
BLACK
6
CONTINUOUS
10
5.58765
20
-3.2073
11
5.58767
21
-3.20713
0
LINE
8
BLACK
6
CONTINUOUS
10
5.58767
20
-3.20713
11
5.58829
21
-3.20654
0
LINE
8
BLACK
6
CONTINUOUS
10
5.58829
20
-3.20654
11
5.58884
21
-3.20588
0
LINE
8
BLACK
6
CONTINUOUS
10
5.58884
20
-3.20588
11
5.58901
21
-3.20585
0
LINE
8
BLACK
6
CONTINUOUS
10
5.58901
20
-3.20585
11
5.58913
21
-3.20574
0
LINE
8
BLACK
6
CONTINUOUS
10
5.58913
20
-3.20574
11
5.58998
21
-3.20568
0
LINE
8
BLACK
6
CONTINUOUS
10
5.58998
20
-3.20568
11
5.59083
21
-3.20553
0
LINE
8
BLACK
6
CONTINUOUS
10
5.59083
20
-3.20553
11
5.59097
21
-3.20562
0
LINE
8
BLACK
6
CONTINUOUS
10
5.63944
20
-3.20556
11
5.63957
21
-3.20553
0
LINE
8
BLACK
6
CONTINUOUS
10
5.63957
20
-3.20553
11
5.63969
21
-3.2056
0
LINE
8
BLACK
6
CONTINUOUS
10
5.63969
20
-3.2056
11
5.64007
21
-3.20567
0
LINE
8
BLACK
6
CONTINUOUS
10
5.64007
20
-3.20567
11
5.64066
21
-3.20616
0
LINE
8
BLACK
6
CONTINUOUS
10
5.64066
20
-3.20616
11
5.64132
21
-3.20654
0
LINE
8
BLACK
6
CONTINUOUS
10
5.64132
20
-3.20654
11
5.64141
21
-3.20679
0
LINE
8
BLACK
6
CONTINUOUS
10
5.64141
20
-3.20679
11
5.64162
21
-3.20696
0
LINE
8
BLACK
6
CONTINUOUS
10
5.64162
20
-3.20696
11
5.64175
21
-3.20772
0
LINE
8
BLACK
6
CONTINUOUS
10
5.64175
20
-3.20772
11
5.64201
21
-3.20844
0
LINE
8
BLACK
6
CONTINUOUS
10
5.64201
20
-3.20844
11
5.64201
21
-3.24781
0
LINE
8
BLACK
6
CONTINUOUS
10
5.64201
20
-3.24781
11
5.64194
21
-3.24819
0
LINE
8
BLACK
6
CONTINUOUS
10
5.64194
20
-3.24819
11
5.64197
21
-3.24832
0
LINE
8
BLACK
6
CONTINUOUS
10
5.64197
20
-3.24832
11
5.6419
21
-3.24844
0
LINE
8
BLACK
6
CONTINUOUS
10
5.6419
20
-3.24844
11
5.64183
21
-3.24882
0
LINE
8
BLACK
6
CONTINUOUS
10
5.64183
20
-3.24882
11
5.64134
21
-3.24941
0
LINE
8
BLACK
6
CONTINUOUS
10
5.64134
20
-3.24941
11
5.64096
21
-3.25007
0
LINE
8
BLACK
6
CONTINUOUS
10
5.64096
20
-3.25007
11
5.64071
21
-3.25016
0
LINE
8
BLACK
6
CONTINUOUS
10
5.64071
20
-3.25016
11
5.64054
21
-3.25037
0
LINE
8
BLACK
6
CONTINUOUS
10
5.64054
20
-3.25037
11
5.63978
21
-3.2505
0
LINE
8
BLACK
6
CONTINUOUS
10
5.63978
20
-3.2505
11
5.63906
21
-3.25076
0
LINE
8
BLACK
6
CONTINUOUS
10
5.63906
20
-3.25076
11
5.62969
21
-3.25076
0
LINE
8
BLACK
6
CONTINUOUS
10
5.62969
20
-3.25076
11
5.62882
21
-3.25061
0
LINE
8
BLACK
6
CONTINUOUS
10
5.62882
20
-3.25061
11
5.62875
21
-3.25061
0
LINE
8
BLACK
6
CONTINUOUS
10
5.62875
20
-3.25061
11
5.62313
21
-3.24874
0
LINE
8
BLACK
6
CONTINUOUS
10
5.62313
20
-3.24874
11
5.62223
21
-3.24825
0
LINE
8
BLACK
6
CONTINUOUS
10
5.62223
20
-3.24825
11
5.62213
21
-3.2481
0
LINE
8
BLACK
6
CONTINUOUS
10
5.62213
20
-3.2481
11
5.62197
21
-3.24802
0
LINE
8
BLACK
6
CONTINUOUS
10
5.62197
20
-3.24802
11
5.61822
21
-3.24427
0
LINE
8
BLACK
6
CONTINUOUS
10
5.61822
20
-3.24427
11
5.61772
21
-3.24355
0
LINE
8
BLACK
6
CONTINUOUS
10
5.61772
20
-3.24355
11
5.61767
21
-3.24351
0
LINE
8
BLACK
6
CONTINUOUS
10
5.61767
20
-3.24351
11
5.6158
21
-3.23976
0
LINE
8
BLACK
6
CONTINUOUS
10
5.6158
20
-3.23976
11
5.61565
21
-3.23927
0
LINE
8
BLACK
6
CONTINUOUS
10
5.61565
20
-3.23927
11
5.61557
21
-3.23915
0
LINE
8
BLACK
6
CONTINUOUS
10
5.61557
20
-3.23915
11
5.6137
21
-3.23165
0
LINE
8
BLACK
6
CONTINUOUS
10
5.6137
20
-3.23165
11
5.61366
21
-3.23107
0
LINE
8
BLACK
6
CONTINUOUS
10
5.61366
20
-3.23107
11
5.61361
21
-3.23094
0
LINE
8
BLACK
6
CONTINUOUS
10
5.61361
20
-3.23094
11
5.61361
21
-3.22531
0
LINE
8
BLACK
6
CONTINUOUS
10
5.61361
20
-3.22531
11
5.61371
21
-3.22473
0
LINE
8
BLACK
6
CONTINUOUS
10
5.61371
20
-3.22473
11
5.6137
21
-3.2246
0
LINE
8
BLACK
6
CONTINUOUS
10
5.6137
20
-3.2246
11
5.61557
21
-3.2171
0
LINE
8
BLACK
6
CONTINUOUS
10
5.61557
20
-3.2171
11
5.61578
21
-3.21663
0
LINE
8
BLACK
6
CONTINUOUS
10
5.61578
20
-3.21663
11
5.6158
21
-3.21649
0
LINE
8
BLACK
6
CONTINUOUS
10
5.6158
20
-3.21649
11
5.61767
21
-3.21274
0
LINE
8
BLACK
6
CONTINUOUS
10
5.61767
20
-3.21274
11
5.6182
21
-3.21203
0
LINE
8
BLACK
6
CONTINUOUS
10
5.6182
20
-3.21203
11
5.61822
21
-3.21198
0
LINE
8
BLACK
6
CONTINUOUS
10
5.61822
20
-3.21198
11
5.62197
21
-3.20823
0
LINE
8
BLACK
6
CONTINUOUS
10
5.62197
20
-3.20823
11
5.62281
21
-3.20764
0
LINE
8
BLACK
6
CONTINUOUS
10
5.62281
20
-3.20764
11
5.62299
21
-3.20762
0
LINE
8
BLACK
6
CONTINUOUS
10
5.62299
20
-3.20762
11
5.62313
21
-3.20751
0
LINE
8
BLACK
6
CONTINUOUS
10
5.62313
20
-3.20751
11
5.62875
21
-3.20564
0
LINE
8
BLACK
6
CONTINUOUS
10
5.62875
20
-3.20564
11
5.62962
21
-3.20551
0
LINE
8
BLACK
6
CONTINUOUS
10
5.62962
20
-3.20551
11
5.62969
21
-3.20549
0
LINE
8
BLACK
6
CONTINUOUS
10
5.62969
20
-3.20549
11
5.63906
21
-3.20549
0
LINE
8
BLACK
6
CONTINUOUS
10
5.63906
20
-3.20549
11
5.63944
21
-3.20556
0
LINE
8
BLACK
6
CONTINUOUS
10
5.63016
20
-3.21139
11
5.62566
21
-3.2129
0
LINE
8
BLACK
6
CONTINUOUS
10
5.62566
20
-3.2129
11
5.62274
21
-3.21581
0
LINE
8
BLACK
6
CONTINUOUS
10
5.62274
20
-3.21581
11
5.62122
21
-3.21884
0
LINE
8
BLACK
6
CONTINUOUS
10
5.62122
20
-3.21884
11
5.61951
21
-3.22568
0
LINE
8
BLACK
6
CONTINUOUS
10
5.61951
20
-3.22568
11
5.61951
21
-3.23057
0
LINE
8
BLACK
6
CONTINUOUS
10
5.61951
20
-3.23057
11
5.62122
21
-3.23741
0
LINE
8
BLACK
6
CONTINUOUS
10
5.62122
20
-3.23741
11
5.62274
21
-3.24044
0
LINE
8
BLACK
6
CONTINUOUS
10
5.62274
20
-3.24044
11
5.62566
21
-3.24335
0
LINE
8
BLACK
6
CONTINUOUS
10
5.62566
20
-3.24335
11
5.63016
21
-3.24486
0
LINE
8
BLACK
6
CONTINUOUS
10
5.63016
20
-3.24486
11
5.63611
21
-3.24486
0
LINE
8
BLACK
6
CONTINUOUS
10
5.63611
20
-3.24486
11
5.63611
21
-3.21139
0
LINE
8
BLACK
6
CONTINUOUS
10
5.63611
20
-3.21139
11
5.63016
21
-3.21139
  0
ENDSEC
  0
EOF
