  0
SECTION
  2
HEADER
  9
$ANGBASE
  50
0.0
  9
$ANGDIR
  70
1
  9
$MEASUREMENT
  70
0
  0
ENDSEC
  0
SECTION
  2
TABLES
  0
TABLE
  2
LTYPE
  70
4
  0
LTYPE
  5
40F
  2
CONTINUOUS
  70
0
  3
Solid line
  72
65
  73
0
  40
0.0
  0
LTYPE
  5
410
  2
DASHDOT
 70
0
  3
Dash Dot ____ _ ____ _
 72
65
 73
4
 40
2.0
 49
1.25
 49
-0.25
 49
0.25
 49
-0.25
  0
LTYPE
  5
411
  2
DASHED
 70
0
  3
Dashed __ __ __ __ __
 72
65
 73
2
 40
0.75
 49
0.5
 49
-0.25
  0
LTYPE
  5
43B
  2
DOTTED
 70
0
  3
Dotted .  .  .  .
 72
65
 73
2
 40
0.2
 49
0.0
 49
-0.2
  0
ENDTAB
  0
TABLE
  2
STYLE
  70
4
  0
STYLE
  2
KICAD
  70
0
  40
0
  41
1
  42
1
  50
0
  71
0
  3
isocp.shx
  0
STYLE
  2
KICADB
  70
0
  40
0
  41
1
  42
1
  50
0
  71
0
  3
isocp.shx
  0
STYLE
  2
KICADI
  70
0
  40
0
  41
1
  42
1
  50
15
  71
0
  3
isocp.shx
  0
STYLE
  2
KICADBI
  70
0
  40
0
  41
1
  42
1
  50
15
  71
0
  3
isocp.shx
  0
ENDTAB
  0
TABLE
  2
LAYER
  70
1
  0
LAYER
  2
BLACK
  70
0
  62
7
  6
CONTINUOUS
  0
ENDTAB
  0
ENDSEC
  0
SECTION
  2
ENTITIES
0
LINE
8
BLACK
6
CONTINUOUS
10
5.38164
20
-3.80824
11
5.38233
21
-3.81013
0
LINE
8
BLACK
6
CONTINUOUS
10
5.38233
20
-3.81013
11
5.38233
21
-3.84655
0
LINE
8
BLACK
6
CONTINUOUS
10
5.38233
20
-3.84655
11
5.39813
21
-3.84655
0
LINE
8
BLACK
6
CONTINUOUS
10
5.39813
20
-3.84655
11
5.39914
21
-3.84673
0
LINE
8
BLACK
6
CONTINUOUS
10
5.39914
20
-3.84673
11
5.40068
21
-3.84803
0
LINE
8
BLACK
6
CONTINUOUS
10
5.40068
20
-3.84803
11
5.40103
21
-3.85002
0
LINE
8
BLACK
6
CONTINUOUS
10
5.40103
20
-3.85002
11
5.40002
21
-3.85177
0
LINE
8
BLACK
6
CONTINUOUS
10
5.40002
20
-3.85177
11
5.39813
21
-3.85246
0
LINE
8
BLACK
6
CONTINUOUS
10
5.39813
20
-3.85246
11
5.37938
21
-3.85246
0
LINE
8
BLACK
6
CONTINUOUS
10
5.37938
20
-3.85246
11
5.37899
21
-3.85239
0
LINE
8
BLACK
6
CONTINUOUS
10
5.37899
20
-3.85239
11
5.37886
21
-3.85241
0
LINE
8
BLACK
6
CONTINUOUS
10
5.37886
20
-3.85241
11
5.37875
21
-3.85235
0
LINE
8
BLACK
6
CONTINUOUS
10
5.37875
20
-3.85235
11
5.37837
21
-3.85228
0
LINE
8
BLACK
6
CONTINUOUS
10
5.37837
20
-3.85228
11
5.37778
21
-3.85178
0
LINE
8
BLACK
6
CONTINUOUS
10
5.37778
20
-3.85178
11
5.37712
21
-3.8514
0
LINE
8
BLACK
6
CONTINUOUS
10
5.37712
20
-3.8514
11
5.37702
21
-3.85115
0
LINE
8
BLACK
6
CONTINUOUS
10
5.37702
20
-3.85115
11
5.37682
21
-3.85098
0
LINE
8
BLACK
6
CONTINUOUS
10
5.37682
20
-3.85098
11
5.37669
21
-3.85022
0
LINE
8
BLACK
6
CONTINUOUS
10
5.37669
20
-3.85022
11
5.37642
21
-3.8495
0
LINE
8
BLACK
6
CONTINUOUS
10
5.37642
20
-3.8495
11
5.37642
21
-3.81013
0
LINE
8
BLACK
6
CONTINUOUS
10
5.37642
20
-3.81013
11
5.3766
21
-3.80912
0
LINE
8
BLACK
6
CONTINUOUS
10
5.3766
20
-3.80912
11
5.3779
21
-3.80758
0
LINE
8
BLACK
6
CONTINUOUS
10
5.3779
20
-3.80758
11
5.37989
21
-3.80723
0
LINE
8
BLACK
6
CONTINUOUS
10
5.37989
20
-3.80723
11
5.38164
21
-3.80824
0
LINE
8
BLACK
6
CONTINUOUS
10
5.45913
20
-3.80736
11
5.45926
21
-3.80747
0
LINE
8
BLACK
6
CONTINUOUS
10
5.45926
20
-3.80747
11
5.45944
21
-3.80749
0
LINE
8
BLACK
6
CONTINUOUS
10
5.45944
20
-3.80749
11
5.46319
21
-3.80937
0
LINE
8
BLACK
6
CONTINUOUS
10
5.46319
20
-3.80937
11
5.4639
21
-3.80989
0
LINE
8
BLACK
6
CONTINUOUS
10
5.4639
20
-3.80989
11
5.46396
21
-3.80992
0
LINE
8
BLACK
6
CONTINUOUS
10
5.46396
20
-3.80992
11
5.46583
21
-3.81179
0
LINE
8
BLACK
6
CONTINUOUS
10
5.46583
20
-3.81179
11
5.46634
21
-3.81252
0
LINE
8
BLACK
6
CONTINUOUS
10
5.46634
20
-3.81252
11
5.46638
21
-3.81256
0
LINE
8
BLACK
6
CONTINUOUS
10
5.46638
20
-3.81256
11
5.46826
21
-3.81631
0
LINE
8
BLACK
6
CONTINUOUS
10
5.46826
20
-3.81631
11
5.46855
21
-3.81729
0
LINE
8
BLACK
6
CONTINUOUS
10
5.46855
20
-3.81729
11
5.46851
21
-3.81747
0
LINE
8
BLACK
6
CONTINUOUS
10
5.46851
20
-3.81747
11
5.46857
21
-3.81763
0
LINE
8
BLACK
6
CONTINUOUS
10
5.46857
20
-3.81763
11
5.46857
21
-3.82138
0
LINE
8
BLACK
6
CONTINUOUS
10
5.46857
20
-3.82138
11
5.46839
21
-3.82239
0
LINE
8
BLACK
6
CONTINUOUS
10
5.46839
20
-3.82239
11
5.46828
21
-3.82253
0
LINE
8
BLACK
6
CONTINUOUS
10
5.46828
20
-3.82253
11
5.46826
21
-3.8227
0
LINE
8
BLACK
6
CONTINUOUS
10
5.46826
20
-3.8227
11
5.46638
21
-3.82645
0
LINE
8
BLACK
6
CONTINUOUS
10
5.46638
20
-3.82645
11
5.46586
21
-3.82716
0
LINE
8
BLACK
6
CONTINUOUS
10
5.46586
20
-3.82716
11
5.46583
21
-3.82722
0
LINE
8
BLACK
6
CONTINUOUS
10
5.46583
20
-3.82722
11
5.46495
21
-3.8281
0
LINE
8
BLACK
6
CONTINUOUS
10
5.46495
20
-3.8281
11
5.46558
21
-3.82844
0
LINE
8
BLACK
6
CONTINUOUS
10
5.46558
20
-3.82844
11
5.46567
21
-3.82859
0
LINE
8
BLACK
6
CONTINUOUS
10
5.46567
20
-3.82859
11
5.46583
21
-3.82867
0
LINE
8
BLACK
6
CONTINUOUS
10
5.46583
20
-3.82867
11
5.4677
21
-3.83054
0
LINE
8
BLACK
6
CONTINUOUS
10
5.4677
20
-3.83054
11
5.46821
21
-3.83127
0
LINE
8
BLACK
6
CONTINUOUS
10
5.46821
20
-3.83127
11
5.46826
21
-3.83131
0
LINE
8
BLACK
6
CONTINUOUS
10
5.46826
20
-3.83131
11
5.47013
21
-3.83506
0
LINE
8
BLACK
6
CONTINUOUS
10
5.47013
20
-3.83506
11
5.47042
21
-3.83604
0
LINE
8
BLACK
6
CONTINUOUS
10
5.47042
20
-3.83604
11
5.47038
21
-3.83621
0
LINE
8
BLACK
6
CONTINUOUS
10
5.47038
20
-3.83621
11
5.47044
21
-3.83638
0
LINE
8
BLACK
6
CONTINUOUS
10
5.47044
20
-3.83638
11
5.47044
21
-3.842
0
LINE
8
BLACK
6
CONTINUOUS
10
5.47044
20
-3.842
11
5.47027
21
-3.84301
0
LINE
8
BLACK
6
CONTINUOUS
10
5.47027
20
-3.84301
11
5.47015
21
-3.84315
0
LINE
8
BLACK
6
CONTINUOUS
10
5.47015
20
-3.84315
11
5.47013
21
-3.84332
0
LINE
8
BLACK
6
CONTINUOUS
10
5.47013
20
-3.84332
11
5.46826
21
-3.84707
0
LINE
8
BLACK
6
CONTINUOUS
10
5.46826
20
-3.84707
11
5.46773
21
-3.84778
0
LINE
8
BLACK
6
CONTINUOUS
10
5.46773
20
-3.84778
11
5.4677
21
-3.84784
0
LINE
8
BLACK
6
CONTINUOUS
10
5.4677
20
-3.84784
11
5.46583
21
-3.84972
0
LINE
8
BLACK
6
CONTINUOUS
10
5.46583
20
-3.84972
11
5.46511
21
-3.85022
0
LINE
8
BLACK
6
CONTINUOUS
10
5.46511
20
-3.85022
11
5.46506
21
-3.85027
0
LINE
8
BLACK
6
CONTINUOUS
10
5.46506
20
-3.85027
11
5.46131
21
-3.85214
0
LINE
8
BLACK
6
CONTINUOUS
10
5.46131
20
-3.85214
11
5.46033
21
-3.85244
0
LINE
8
BLACK
6
CONTINUOUS
10
5.46033
20
-3.85244
11
5.46016
21
-3.8524
0
LINE
8
BLACK
6
CONTINUOUS
10
5.46016
20
-3.8524
11
5.45999
21
-3.85246
0
LINE
8
BLACK
6
CONTINUOUS
10
5.45999
20
-3.85246
11
5.44499
21
-3.85246
0
LINE
8
BLACK
6
CONTINUOUS
10
5.44499
20
-3.85246
11
5.44461
21
-3.85239
0
LINE
8
BLACK
6
CONTINUOUS
10
5.44461
20
-3.85239
11
5.44448
21
-3.85241
0
LINE
8
BLACK
6
CONTINUOUS
10
5.44448
20
-3.85241
11
5.44437
21
-3.85235
0
LINE
8
BLACK
6
CONTINUOUS
10
5.44437
20
-3.85235
11
5.44398
21
-3.85228
0
LINE
8
BLACK
6
CONTINUOUS
10
5.44398
20
-3.85228
11
5.4434
21
-3.85178
0
LINE
8
BLACK
6
CONTINUOUS
10
5.4434
20
-3.85178
11
5.44273
21
-3.8514
0
LINE
8
BLACK
6
CONTINUOUS
10
5.44273
20
-3.8514
11
5.44264
21
-3.85115
0
LINE
8
BLACK
6
CONTINUOUS
10
5.44264
20
-3.85115
11
5.44244
21
-3.85098
0
LINE
8
BLACK
6
CONTINUOUS
10
5.44244
20
-3.85098
11
5.4423
21
-3.85022
0
LINE
8
BLACK
6
CONTINUOUS
10
5.4423
20
-3.85022
11
5.44204
21
-3.8495
0
LINE
8
BLACK
6
CONTINUOUS
10
5.44204
20
-3.8495
11
5.44204
21
-3.81013
0
LINE
8
BLACK
6
CONTINUOUS
10
5.44204
20
-3.81013
11
5.44211
21
-3.80975
0
LINE
8
BLACK
6
CONTINUOUS
10
5.44211
20
-3.80975
11
5.44209
21
-3.80962
0
LINE
8
BLACK
6
CONTINUOUS
10
5.44209
20
-3.80962
11
5.44215
21
-3.80951
0
LINE
8
BLACK
6
CONTINUOUS
10
5.44215
20
-3.80951
11
5.44222
21
-3.80912
0
LINE
8
BLACK
6
CONTINUOUS
10
5.44222
20
-3.80912
11
5.44271
21
-3.80854
0
LINE
8
BLACK
6
CONTINUOUS
10
5.44271
20
-3.80854
11
5.4431
21
-3.80787
0
LINE
8
BLACK
6
CONTINUOUS
10
5.4431
20
-3.80787
11
5.44335
21
-3.80778
0
LINE
8
BLACK
6
CONTINUOUS
10
5.44335
20
-3.80778
11
5.44352
21
-3.80758
0
LINE
8
BLACK
6
CONTINUOUS
10
5.44352
20
-3.80758
11
5.44427
21
-3.80744
0
LINE
8
BLACK
6
CONTINUOUS
10
5.44427
20
-3.80744
11
5.44499
21
-3.80718
0
LINE
8
BLACK
6
CONTINUOUS
10
5.44499
20
-3.80718
11
5.45812
21
-3.80718
0
LINE
8
BLACK
6
CONTINUOUS
10
5.45812
20
-3.80718
11
5.45913
21
-3.80736
0
LINE
8
BLACK
6
CONTINUOUS
10
5.44795
20
-3.83183
11
5.44795
21
-3.84655
0
LINE
8
BLACK
6
CONTINUOUS
10
5.44795
20
-3.84655
11
5.4593
21
-3.84655
0
LINE
8
BLACK
6
CONTINUOUS
10
5.4593
20
-3.84655
11
5.46199
21
-3.8452
0
LINE
8
BLACK
6
CONTINUOUS
10
5.46199
20
-3.8452
11
5.46319
21
-3.844
0
LINE
8
BLACK
6
CONTINUOUS
10
5.46319
20
-3.844
11
5.46454
21
-3.84131
0
LINE
8
BLACK
6
CONTINUOUS
10
5.46454
20
-3.84131
11
5.46454
21
-3.83708
0
LINE
8
BLACK
6
CONTINUOUS
10
5.46454
20
-3.83708
11
5.46319
21
-3.83438
0
LINE
8
BLACK
6
CONTINUOUS
10
5.46319
20
-3.83438
11
5.46215
21
-3.83334
0
LINE
8
BLACK
6
CONTINUOUS
10
5.46215
20
-3.83334
11
5.45764
21
-3.83183
0
LINE
8
BLACK
6
CONTINUOUS
10
5.45764
20
-3.83183
11
5.44795
21
-3.83183
0
LINE
8
BLACK
6
CONTINUOUS
10
5.44795
20
-3.81309
11
5.44795
21
-3.82593
0
LINE
8
BLACK
6
CONTINUOUS
10
5.44795
20
-3.82593
11
5.45742
21
-3.82593
0
LINE
8
BLACK
6
CONTINUOUS
10
5.45742
20
-3.82593
11
5.46012
21
-3.82458
0
LINE
8
BLACK
6
CONTINUOUS
10
5.46012
20
-3.82458
11
5.46132
21
-3.82338
0
LINE
8
BLACK
6
CONTINUOUS
10
5.46132
20
-3.82338
11
5.46266
21
-3.82068
0
LINE
8
BLACK
6
CONTINUOUS
10
5.46266
20
-3.82068
11
5.46266
21
-3.81833
0
LINE
8
BLACK
6
CONTINUOUS
10
5.46266
20
-3.81833
11
5.46132
21
-3.81563
0
LINE
8
BLACK
6
CONTINUOUS
10
5.46132
20
-3.81563
11
5.46012
21
-3.81443
0
LINE
8
BLACK
6
CONTINUOUS
10
5.46012
20
-3.81443
11
5.45742
21
-3.81309
0
LINE
8
BLACK
6
CONTINUOUS
10
5.45742
20
-3.81309
11
5.44795
21
-3.81309
0
LINE
8
BLACK
6
CONTINUOUS
10
5.41923
20
-3.8074
11
5.42015
21
-3.80754
0
LINE
8
BLACK
6
CONTINUOUS
10
5.42015
20
-3.80754
11
5.42021
21
-3.8076
0
LINE
8
BLACK
6
CONTINUOUS
10
5.42021
20
-3.8076
11
5.42029
21
-3.80762
0
LINE
8
BLACK
6
CONTINUOUS
10
5.42029
20
-3.80762
11
5.42087
21
-3.80835
0
LINE
8
BLACK
6
CONTINUOUS
10
5.42087
20
-3.80835
11
5.42149
21
-3.80905
0
LINE
8
BLACK
6
CONTINUOUS
10
5.42149
20
-3.80905
11
5.4215
21
-3.80913
0
LINE
8
BLACK
6
CONTINUOUS
10
5.4215
20
-3.80913
11
5.42155
21
-3.8092
0
LINE
8
BLACK
6
CONTINUOUS
10
5.42155
20
-3.8092
11
5.43467
21
-3.84857
0
LINE
8
BLACK
6
CONTINUOUS
10
5.43467
20
-3.84857
11
5.43482
21
-3.84958
0
LINE
8
BLACK
6
CONTINUOUS
10
5.43482
20
-3.84958
11
5.43408
21
-3.85146
0
LINE
8
BLACK
6
CONTINUOUS
10
5.43408
20
-3.85146
11
5.4323
21
-3.85242
0
LINE
8
BLACK
6
CONTINUOUS
10
5.4323
20
-3.85242
11
5.43033
21
-3.85202
0
LINE
8
BLACK
6
CONTINUOUS
10
5.43033
20
-3.85202
11
5.42907
21
-3.85044
0
LINE
8
BLACK
6
CONTINUOUS
10
5.42907
20
-3.85044
11
5.42599
21
-3.84121
0
LINE
8
BLACK
6
CONTINUOUS
10
5.42599
20
-3.84121
11
5.4115
21
-3.84121
0
LINE
8
BLACK
6
CONTINUOUS
10
5.4115
20
-3.84121
11
5.40843
21
-3.85044
0
LINE
8
BLACK
6
CONTINUOUS
10
5.40843
20
-3.85044
11
5.40794
21
-3.85134
0
LINE
8
BLACK
6
CONTINUOUS
10
5.40794
20
-3.85134
11
5.40622
21
-3.8524
0
LINE
8
BLACK
6
CONTINUOUS
10
5.40622
20
-3.8524
11
5.40422
21
-3.8521
0
LINE
8
BLACK
6
CONTINUOUS
10
5.40422
20
-3.8521
11
5.40288
21
-3.85059
0
LINE
8
BLACK
6
CONTINUOUS
10
5.40288
20
-3.85059
11
5.40282
21
-3.84857
0
LINE
8
BLACK
6
CONTINUOUS
10
5.40282
20
-3.84857
11
5.41595
21
-3.8092
0
LINE
8
BLACK
6
CONTINUOUS
10
5.41595
20
-3.8092
11
5.41643
21
-3.8083
0
LINE
8
BLACK
6
CONTINUOUS
10
5.41643
20
-3.8083
11
5.41651
21
-3.80825
0
LINE
8
BLACK
6
CONTINUOUS
10
5.41651
20
-3.80825
11
5.41654
21
-3.80817
0
LINE
8
BLACK
6
CONTINUOUS
10
5.41654
20
-3.80817
11
5.41736
21
-3.80773
0
LINE
8
BLACK
6
CONTINUOUS
10
5.41736
20
-3.80773
11
5.41816
21
-3.80724
0
LINE
8
BLACK
6
CONTINUOUS
10
5.41816
20
-3.80724
11
5.41824
21
-3.80725
0
LINE
8
BLACK
6
CONTINUOUS
10
5.41824
20
-3.80725
11
5.41831
21
-3.80721
0
LINE
8
BLACK
6
CONTINUOUS
10
5.41831
20
-3.80721
11
5.41923
21
-3.8074
0
LINE
8
BLACK
6
CONTINUOUS
10
5.41347
20
-3.8353
11
5.42402
21
-3.8353
0
LINE
8
BLACK
6
CONTINUOUS
10
5.42402
20
-3.8353
11
5.41875
21
-3.81947
0
LINE
8
BLACK
6
CONTINUOUS
10
5.41875
20
-3.81947
11
5.41347
21
-3.8353
0
LINE
8
BLACK
6
CONTINUOUS
10
5.36075
20
-3.80729
11
5.36114
21
-3.80723
0
LINE
8
BLACK
6
CONTINUOUS
10
5.36114
20
-3.80723
11
5.3617
21
-3.80755
0
LINE
8
BLACK
6
CONTINUOUS
10
5.3617
20
-3.80755
11
5.36232
21
-3.80771
0
LINE
8
BLACK
6
CONTINUOUS
10
5.36232
20
-3.80771
11
5.36255
21
-3.80804
0
LINE
8
BLACK
6
CONTINUOUS
10
5.36255
20
-3.80804
11
5.36289
21
-3.80824
0
LINE
8
BLACK
6
CONTINUOUS
10
5.36289
20
-3.80824
11
5.36311
21
-3.80884
0
LINE
8
BLACK
6
CONTINUOUS
10
5.36311
20
-3.80884
11
5.36348
21
-3.80937
0
LINE
8
BLACK
6
CONTINUOUS
10
5.36348
20
-3.80937
11
5.36345
21
-3.80976
0
LINE
8
BLACK
6
CONTINUOUS
10
5.36345
20
-3.80976
11
5.36358
21
-3.81013
0
LINE
8
BLACK
6
CONTINUOUS
10
5.36358
20
-3.81013
11
5.36358
21
-3.8495
0
LINE
8
BLACK
6
CONTINUOUS
10
5.36358
20
-3.8495
11
5.3634
21
-3.85051
0
LINE
8
BLACK
6
CONTINUOUS
10
5.3634
20
-3.85051
11
5.36211
21
-3.85206
0
LINE
8
BLACK
6
CONTINUOUS
10
5.36211
20
-3.85206
11
5.36012
21
-3.85241
0
LINE
8
BLACK
6
CONTINUOUS
10
5.36012
20
-3.85241
11
5.35837
21
-3.8514
0
LINE
8
BLACK
6
CONTINUOUS
10
5.35837
20
-3.8514
11
5.35768
21
-3.8495
0
LINE
8
BLACK
6
CONTINUOUS
10
5.35768
20
-3.8495
11
5.35768
21
-3.82344
0
LINE
8
BLACK
6
CONTINUOUS
10
5.35768
20
-3.82344
11
5.35018
21
-3.8395
0
LINE
8
BLACK
6
CONTINUOUS
10
5.35018
20
-3.8395
11
5.34996
21
-3.83982
0
LINE
8
BLACK
6
CONTINUOUS
10
5.34996
20
-3.83982
11
5.34993
21
-3.83995
0
LINE
8
BLACK
6
CONTINUOUS
10
5.34993
20
-3.83995
11
5.34982
21
-3.84002
0
LINE
8
BLACK
6
CONTINUOUS
10
5.34982
20
-3.84002
11
5.34959
21
-3.84034
0
LINE
8
BLACK
6
CONTINUOUS
10
5.34959
20
-3.84034
11
5.3489
21
-3.84067
0
LINE
8
BLACK
6
CONTINUOUS
10
5.3489
20
-3.84067
11
5.34827
21
-3.84111
0
LINE
8
BLACK
6
CONTINUOUS
10
5.34827
20
-3.84111
11
5.34801
21
-3.84108
0
LINE
8
BLACK
6
CONTINUOUS
10
5.34801
20
-3.84108
11
5.34776
21
-3.8412
0
LINE
8
BLACK
6
CONTINUOUS
10
5.34776
20
-3.8412
11
5.34702
21
-3.841
0
LINE
8
BLACK
6
CONTINUOUS
10
5.34702
20
-3.841
11
5.34626
21
-3.84093
0
LINE
8
BLACK
6
CONTINUOUS
10
5.34626
20
-3.84093
11
5.34607
21
-3.84074
0
LINE
8
BLACK
6
CONTINUOUS
10
5.34607
20
-3.84074
11
5.34581
21
-3.84067
0
LINE
8
BLACK
6
CONTINUOUS
10
5.34581
20
-3.84067
11
5.34537
21
-3.84004
0
LINE
8
BLACK
6
CONTINUOUS
10
5.34537
20
-3.84004
11
5.34483
21
-3.8395
0
LINE
8
BLACK
6
CONTINUOUS
10
5.34483
20
-3.8395
11
5.33734
21
-3.82344
0
LINE
8
BLACK
6
CONTINUOUS
10
5.33734
20
-3.82344
11
5.33734
21
-3.8495
0
LINE
8
BLACK
6
CONTINUOUS
10
5.33734
20
-3.8495
11
5.33716
21
-3.85051
0
LINE
8
BLACK
6
CONTINUOUS
10
5.33716
20
-3.85051
11
5.33586
21
-3.85206
0
LINE
8
BLACK
6
CONTINUOUS
10
5.33586
20
-3.85206
11
5.33387
21
-3.85241
0
LINE
8
BLACK
6
CONTINUOUS
10
5.33387
20
-3.85241
11
5.33212
21
-3.8514
0
LINE
8
BLACK
6
CONTINUOUS
10
5.33212
20
-3.8514
11
5.33143
21
-3.8495
0
LINE
8
BLACK
6
CONTINUOUS
10
5.33143
20
-3.8495
11
5.33143
21
-3.81013
0
LINE
8
BLACK
6
CONTINUOUS
10
5.33143
20
-3.81013
11
5.33161
21
-3.80912
0
LINE
8
BLACK
6
CONTINUOUS
10
5.33161
20
-3.80912
11
5.33186
21
-3.80882
0
LINE
8
BLACK
6
CONTINUOUS
10
5.33186
20
-3.80882
11
5.33196
21
-3.80844
0
LINE
8
BLACK
6
CONTINUOUS
10
5.33196
20
-3.80844
11
5.33249
21
-3.80807
0
LINE
8
BLACK
6
CONTINUOUS
10
5.33249
20
-3.80807
11
5.33291
21
-3.80758
0
LINE
8
BLACK
6
CONTINUOUS
10
5.33291
20
-3.80758
11
5.3333
21
-3.80751
0
LINE
8
BLACK
6
CONTINUOUS
10
5.3333
20
-3.80751
11
5.33362
21
-3.80728
0
LINE
8
BLACK
6
CONTINUOUS
10
5.33362
20
-3.80728
11
5.33426
21
-3.80734
0
LINE
8
BLACK
6
CONTINUOUS
10
5.33426
20
-3.80734
11
5.3349
21
-3.80723
0
LINE
8
BLACK
6
CONTINUOUS
10
5.3349
20
-3.80723
11
5.33524
21
-3.80742
0
LINE
8
BLACK
6
CONTINUOUS
10
5.33524
20
-3.80742
11
5.33563
21
-3.80746
0
LINE
8
BLACK
6
CONTINUOUS
10
5.33563
20
-3.80746
11
5.33609
21
-3.80791
0
LINE
8
BLACK
6
CONTINUOUS
10
5.33609
20
-3.80791
11
5.33665
21
-3.80824
0
LINE
8
BLACK
6
CONTINUOUS
10
5.33665
20
-3.80824
11
5.33678
21
-3.80861
0
LINE
8
BLACK
6
CONTINUOUS
10
5.33678
20
-3.80861
11
5.33706
21
-3.80888
0
LINE
8
BLACK
6
CONTINUOUS
10
5.33706
20
-3.80888
11
5.34751
21
-3.83127
0
LINE
8
BLACK
6
CONTINUOUS
10
5.34751
20
-3.83127
11
5.35795
21
-3.80888
0
LINE
8
BLACK
6
CONTINUOUS
10
5.35795
20
-3.80888
11
5.35854
21
-3.80804
0
LINE
8
BLACK
6
CONTINUOUS
10
5.35854
20
-3.80804
11
5.3589
21
-3.80788
0
LINE
8
BLACK
6
CONTINUOUS
10
5.3589
20
-3.80788
11
5.35915
21
-3.80758
0
LINE
8
BLACK
6
CONTINUOUS
10
5.35915
20
-3.80758
11
5.35979
21
-3.80746
0
LINE
8
BLACK
6
CONTINUOUS
10
5.35979
20
-3.80746
11
5.36037
21
-3.80719
0
LINE
8
BLACK
6
CONTINUOUS
10
5.36037
20
-3.80719
11
5.36075
21
-3.80729
0
LINE
8
BLACK
6
CONTINUOUS
10
5.44319
20
-3.74397
11
5.44333
21
-3.74409
0
LINE
8
BLACK
6
CONTINUOUS
10
5.44333
20
-3.74409
11
5.4435
21
-3.74411
0
LINE
8
BLACK
6
CONTINUOUS
10
5.4435
20
-3.74411
11
5.44725
21
-3.74598
0
LINE
8
BLACK
6
CONTINUOUS
10
5.44725
20
-3.74598
11
5.44796
21
-3.74651
0
LINE
8
BLACK
6
CONTINUOUS
10
5.44796
20
-3.74651
11
5.44802
21
-3.74653
0
LINE
8
BLACK
6
CONTINUOUS
10
5.44802
20
-3.74653
11
5.44989
21
-3.74841
0
LINE
8
BLACK
6
CONTINUOUS
10
5.44989
20
-3.74841
11
5.4504
21
-3.74913
0
LINE
8
BLACK
6
CONTINUOUS
10
5.4504
20
-3.74913
11
5.45045
21
-3.74918
0
LINE
8
BLACK
6
CONTINUOUS
10
5.45045
20
-3.74918
11
5.45232
21
-3.75293
0
LINE
8
BLACK
6
CONTINUOUS
10
5.45232
20
-3.75293
11
5.45247
21
-3.75341
0
LINE
8
BLACK
6
CONTINUOUS
10
5.45247
20
-3.75341
11
5.45255
21
-3.75353
0
LINE
8
BLACK
6
CONTINUOUS
10
5.45255
20
-3.75353
11
5.45442
21
-3.76103
0
LINE
8
BLACK
6
CONTINUOUS
10
5.45442
20
-3.76103
11
5.45446
21
-3.76162
0
LINE
8
BLACK
6
CONTINUOUS
10
5.45446
20
-3.76162
11
5.45451
21
-3.76175
0
LINE
8
BLACK
6
CONTINUOUS
10
5.45451
20
-3.76175
11
5.45451
21
-3.77112
0
LINE
8
BLACK
6
CONTINUOUS
10
5.45451
20
-3.77112
11
5.45441
21
-3.7717
0
LINE
8
BLACK
6
CONTINUOUS
10
5.45441
20
-3.7717
11
5.45442
21
-3.77184
0
LINE
8
BLACK
6
CONTINUOUS
10
5.45442
20
-3.77184
11
5.45255
21
-3.77933
0
LINE
8
BLACK
6
CONTINUOUS
10
5.45255
20
-3.77933
11
5.45234
21
-3.7798
0
LINE
8
BLACK
6
CONTINUOUS
10
5.45234
20
-3.7798
11
5.45232
21
-3.77994
0
LINE
8
BLACK
6
CONTINUOUS
10
5.45232
20
-3.77994
11
5.45045
21
-3.78369
0
LINE
8
BLACK
6
CONTINUOUS
10
5.45045
20
-3.78369
11
5.44992
21
-3.7844
0
LINE
8
BLACK
6
CONTINUOUS
10
5.44992
20
-3.7844
11
5.44989
21
-3.78446
0
LINE
8
BLACK
6
CONTINUOUS
10
5.44989
20
-3.78446
11
5.44802
21
-3.78633
0
LINE
8
BLACK
6
CONTINUOUS
10
5.44802
20
-3.78633
11
5.4473
21
-3.78684
0
LINE
8
BLACK
6
CONTINUOUS
10
5.4473
20
-3.78684
11
5.44725
21
-3.78688
0
LINE
8
BLACK
6
CONTINUOUS
10
5.44725
20
-3.78688
11
5.4435
21
-3.78876
0
LINE
8
BLACK
6
CONTINUOUS
10
5.4435
20
-3.78876
11
5.44252
21
-3.78905
0
LINE
8
BLACK
6
CONTINUOUS
10
5.44252
20
-3.78905
11
5.44235
21
-3.78901
0
LINE
8
BLACK
6
CONTINUOUS
10
5.44235
20
-3.78901
11
5.44218
21
-3.78907
0
LINE
8
BLACK
6
CONTINUOUS
10
5.44218
20
-3.78907
11
5.43843
21
-3.78907
0
LINE
8
BLACK
6
CONTINUOUS
10
5.43843
20
-3.78907
11
5.43742
21
-3.78889
0
LINE
8
BLACK
6
CONTINUOUS
10
5.43742
20
-3.78889
11
5.43729
21
-3.78878
0
LINE
8
BLACK
6
CONTINUOUS
10
5.43729
20
-3.78878
11
5.43711
21
-3.78876
0
LINE
8
BLACK
6
CONTINUOUS
10
5.43711
20
-3.78876
11
5.43336
21
-3.78688
0
LINE
8
BLACK
6
CONTINUOUS
10
5.43336
20
-3.78688
11
5.43265
21
-3.78636
0
LINE
8
BLACK
6
CONTINUOUS
10
5.43265
20
-3.78636
11
5.4326
21
-3.78633
0
LINE
8
BLACK
6
CONTINUOUS
10
5.4326
20
-3.78633
11
5.43072
21
-3.78446
0
LINE
8
BLACK
6
CONTINUOUS
10
5.43072
20
-3.78446
11
5.43021
21
-3.78373
0
LINE
8
BLACK
6
CONTINUOUS
10
5.43021
20
-3.78373
11
5.43017
21
-3.78369
0
LINE
8
BLACK
6
CONTINUOUS
10
5.43017
20
-3.78369
11
5.42829
21
-3.77994
0
LINE
8
BLACK
6
CONTINUOUS
10
5.42829
20
-3.77994
11
5.42815
21
-3.77945
0
LINE
8
BLACK
6
CONTINUOUS
10
5.42815
20
-3.77945
11
5.42807
21
-3.77933
0
LINE
8
BLACK
6
CONTINUOUS
10
5.42807
20
-3.77933
11
5.42619
21
-3.77184
0
LINE
8
BLACK
6
CONTINUOUS
10
5.42619
20
-3.77184
11
5.42615
21
-3.77125
0
LINE
8
BLACK
6
CONTINUOUS
10
5.42615
20
-3.77125
11
5.42611
21
-3.77112
0
LINE
8
BLACK
6
CONTINUOUS
10
5.42611
20
-3.77112
11
5.42611
21
-3.76175
0
LINE
8
BLACK
6
CONTINUOUS
10
5.42611
20
-3.76175
11
5.42621
21
-3.76117
0
LINE
8
BLACK
6
CONTINUOUS
10
5.42621
20
-3.76117
11
5.42619
21
-3.76103
0
LINE
8
BLACK
6
CONTINUOUS
10
5.42619
20
-3.76103
11
5.42807
21
-3.75353
0
LINE
8
BLACK
6
CONTINUOUS
10
5.42807
20
-3.75353
11
5.42828
21
-3.75306
0
LINE
8
BLACK
6
CONTINUOUS
10
5.42828
20
-3.75306
11
5.42829
21
-3.75293
0
LINE
8
BLACK
6
CONTINUOUS
10
5.42829
20
-3.75293
11
5.43017
21
-3.74918
0
LINE
8
BLACK
6
CONTINUOUS
10
5.43017
20
-3.74918
11
5.43069
21
-3.74847
0
LINE
8
BLACK
6
CONTINUOUS
10
5.43069
20
-3.74847
11
5.43072
21
-3.74841
0
LINE
8
BLACK
6
CONTINUOUS
10
5.43072
20
-3.74841
11
5.4326
21
-3.74653
0
LINE
8
BLACK
6
CONTINUOUS
10
5.4326
20
-3.74653
11
5.43332
21
-3.74603
0
LINE
8
BLACK
6
CONTINUOUS
10
5.43332
20
-3.74603
11
5.43336
21
-3.74598
0
LINE
8
BLACK
6
CONTINUOUS
10
5.43336
20
-3.74598
11
5.43711
21
-3.74411
0
LINE
8
BLACK
6
CONTINUOUS
10
5.43711
20
-3.74411
11
5.4381
21
-3.74381
0
LINE
8
BLACK
6
CONTINUOUS
10
5.4381
20
-3.74381
11
5.43827
21
-3.74385
0
LINE
8
BLACK
6
CONTINUOUS
10
5.43827
20
-3.74385
11
5.43843
21
-3.74379
0
LINE
8
BLACK
6
CONTINUOUS
10
5.43843
20
-3.74379
11
5.44218
21
-3.74379
0
LINE
8
BLACK
6
CONTINUOUS
10
5.44218
20
-3.74379
11
5.44319
21
-3.74397
0
LINE
8
BLACK
6
CONTINUOUS
10
5.43913
20
-3.7497
11
5.43643
21
-3.75105
0
LINE
8
BLACK
6
CONTINUOUS
10
5.43643
20
-3.75105
11
5.43524
21
-3.75225
0
LINE
8
BLACK
6
CONTINUOUS
10
5.43524
20
-3.75225
11
5.43372
21
-3.75528
0
LINE
8
BLACK
6
CONTINUOUS
10
5.43372
20
-3.75528
11
5.43201
21
-3.76211
0
LINE
8
BLACK
6
CONTINUOUS
10
5.43201
20
-3.76211
11
5.43201
21
-3.77076
0
LINE
8
BLACK
6
CONTINUOUS
10
5.43201
20
-3.77076
11
5.43372
21
-3.77759
0
LINE
8
BLACK
6
CONTINUOUS
10
5.43372
20
-3.77759
11
5.43524
21
-3.78062
0
LINE
8
BLACK
6
CONTINUOUS
10
5.43524
20
-3.78062
11
5.43643
21
-3.78182
0
LINE
8
BLACK
6
CONTINUOUS
10
5.43643
20
-3.78182
11
5.43913
21
-3.78316
0
LINE
8
BLACK
6
CONTINUOUS
10
5.43913
20
-3.78316
11
5.44149
21
-3.78316
0
LINE
8
BLACK
6
CONTINUOUS
10
5.44149
20
-3.78316
11
5.44418
21
-3.78182
0
LINE
8
BLACK
6
CONTINUOUS
10
5.44418
20
-3.78182
11
5.44538
21
-3.78062
0
LINE
8
BLACK
6
CONTINUOUS
10
5.44538
20
-3.78062
11
5.4469
21
-3.77759
0
LINE
8
BLACK
6
CONTINUOUS
10
5.4469
20
-3.77759
11
5.4486
21
-3.77076
0
LINE
8
BLACK
6
CONTINUOUS
10
5.4486
20
-3.77076
11
5.4486
21
-3.76211
0
LINE
8
BLACK
6
CONTINUOUS
10
5.4486
20
-3.76211
11
5.4469
21
-3.75528
0
LINE
8
BLACK
6
CONTINUOUS
10
5.4469
20
-3.75528
11
5.44538
21
-3.75225
0
LINE
8
BLACK
6
CONTINUOUS
10
5.44538
20
-3.75225
11
5.44418
21
-3.75105
0
LINE
8
BLACK
6
CONTINUOUS
10
5.44418
20
-3.75105
11
5.44149
21
-3.7497
0
LINE
8
BLACK
6
CONTINUOUS
10
5.44149
20
-3.7497
11
5.43913
21
-3.7497
0
LINE
8
BLACK
6
CONTINUOUS
10
5.47815
20
-3.74387
11
5.47832
21
-3.74384
0
LINE
8
BLACK
6
CONTINUOUS
10
5.47832
20
-3.74384
11
5.47906
21
-3.74427
0
LINE
8
BLACK
6
CONTINUOUS
10
5.47906
20
-3.74427
11
5.47984
21
-3.74461
0
LINE
8
BLACK
6
CONTINUOUS
10
5.47984
20
-3.74461
11
5.47992
21
-3.74476
0
LINE
8
BLACK
6
CONTINUOUS
10
5.47992
20
-3.74476
11
5.48006
21
-3.74485
0
LINE
8
BLACK
6
CONTINUOUS
10
5.48006
20
-3.74485
11
5.48036
21
-3.74565
0
LINE
8
BLACK
6
CONTINUOUS
10
5.48036
20
-3.74565
11
5.48074
21
-3.74642
0
LINE
8
BLACK
6
CONTINUOUS
10
5.48074
20
-3.74642
11
5.4807
21
-3.74659
0
LINE
8
BLACK
6
CONTINUOUS
10
5.4807
20
-3.74659
11
5.48076
21
-3.74675
0
LINE
8
BLACK
6
CONTINUOUS
10
5.48076
20
-3.74675
11
5.48076
21
-3.78316
0
LINE
8
BLACK
6
CONTINUOUS
10
5.48076
20
-3.78316
11
5.48905
21
-3.78316
0
LINE
8
BLACK
6
CONTINUOUS
10
5.48905
20
-3.78316
11
5.49006
21
-3.78334
0
LINE
8
BLACK
6
CONTINUOUS
10
5.49006
20
-3.78334
11
5.49161
21
-3.78464
0
LINE
8
BLACK
6
CONTINUOUS
10
5.49161
20
-3.78464
11
5.49196
21
-3.78663
0
LINE
8
BLACK
6
CONTINUOUS
10
5.49196
20
-3.78663
11
5.49095
21
-3.78838
0
LINE
8
BLACK
6
CONTINUOUS
10
5.49095
20
-3.78838
11
5.48905
21
-3.78907
0
LINE
8
BLACK
6
CONTINUOUS
10
5.48905
20
-3.78907
11
5.46655
21
-3.78907
0
LINE
8
BLACK
6
CONTINUOUS
10
5.46655
20
-3.78907
11
5.46554
21
-3.78889
0
LINE
8
BLACK
6
CONTINUOUS
10
5.46554
20
-3.78889
11
5.464
21
-3.78759
0
LINE
8
BLACK
6
CONTINUOUS
10
5.464
20
-3.78759
11
5.46365
21
-3.7856
0
LINE
8
BLACK
6
CONTINUOUS
10
5.46365
20
-3.7856
11
5.46466
21
-3.78386
0
LINE
8
BLACK
6
CONTINUOUS
10
5.46466
20
-3.78386
11
5.46655
21
-3.78316
0
LINE
8
BLACK
6
CONTINUOUS
10
5.46655
20
-3.78316
11
5.47485
21
-3.78316
0
LINE
8
BLACK
6
CONTINUOUS
10
5.47485
20
-3.78316
11
5.47485
21
-3.75575
0
LINE
8
BLACK
6
CONTINUOUS
10
5.47485
20
-3.75575
11
5.47239
21
-3.75821
0
LINE
8
BLACK
6
CONTINUOUS
10
5.47239
20
-3.75821
11
5.47167
21
-3.75872
0
LINE
8
BLACK
6
CONTINUOUS
10
5.47167
20
-3.75872
11
5.47162
21
-3.75876
0
LINE
8
BLACK
6
CONTINUOUS
10
5.47162
20
-3.75876
11
5.46787
21
-3.76064
0
LINE
8
BLACK
6
CONTINUOUS
10
5.46787
20
-3.76064
11
5.46689
21
-3.76093
0
LINE
8
BLACK
6
CONTINUOUS
10
5.46689
20
-3.76093
11
5.46493
21
-3.76046
0
LINE
8
BLACK
6
CONTINUOUS
10
5.46493
20
-3.76046
11
5.46372
21
-3.75884
0
LINE
8
BLACK
6
CONTINUOUS
10
5.46372
20
-3.75884
11
5.46385
21
-3.75682
0
LINE
8
BLACK
6
CONTINUOUS
10
5.46385
20
-3.75682
11
5.46523
21
-3.75535
0
LINE
8
BLACK
6
CONTINUOUS
10
5.46523
20
-3.75535
11
5.46855
21
-3.75369
0
LINE
8
BLACK
6
CONTINUOUS
10
5.46855
20
-3.75369
11
5.47176
21
-3.75049
0
LINE
8
BLACK
6
CONTINUOUS
10
5.47176
20
-3.75049
11
5.47535
21
-3.74511
0
LINE
8
BLACK
6
CONTINUOUS
10
5.47535
20
-3.74511
11
5.47605
21
-3.74437
0
LINE
8
BLACK
6
CONTINUOUS
10
5.47605
20
-3.74437
11
5.47622
21
-3.74432
0
LINE
8
BLACK
6
CONTINUOUS
10
5.47622
20
-3.74432
11
5.47633
21
-3.74419
0
LINE
8
BLACK
6
CONTINUOUS
10
5.47633
20
-3.74419
11
5.47717
21
-3.74404
0
LINE
8
BLACK
6
CONTINUOUS
10
5.47717
20
-3.74404
11
5.47799
21
-3.7438
0
LINE
8
BLACK
6
CONTINUOUS
10
5.47799
20
-3.7438
11
5.47815
21
-3.74387
0
LINE
8
BLACK
6
CONTINUOUS
10
5.51391
20
-3.74401
11
5.51483
21
-3.74415
0
LINE
8
BLACK
6
CONTINUOUS
10
5.51483
20
-3.74415
11
5.51489
21
-3.74421
0
LINE
8
BLACK
6
CONTINUOUS
10
5.51489
20
-3.74421
11
5.51497
21
-3.74423
0
LINE
8
BLACK
6
CONTINUOUS
10
5.51497
20
-3.74423
11
5.51555
21
-3.74496
0
LINE
8
BLACK
6
CONTINUOUS
10
5.51555
20
-3.74496
11
5.51617
21
-3.74566
0
LINE
8
BLACK
6
CONTINUOUS
10
5.51617
20
-3.74566
11
5.51617
21
-3.74575
0
LINE
8
BLACK
6
CONTINUOUS
10
5.51617
20
-3.74575
11
5.51622
21
-3.74581
0
LINE
8
BLACK
6
CONTINUOUS
10
5.51622
20
-3.74581
11
5.52935
21
-3.78518
0
LINE
8
BLACK
6
CONTINUOUS
10
5.52935
20
-3.78518
11
5.5295
21
-3.7862
0
LINE
8
BLACK
6
CONTINUOUS
10
5.5295
20
-3.7862
11
5.52876
21
-3.78808
0
LINE
8
BLACK
6
CONTINUOUS
10
5.52876
20
-3.78808
11
5.52698
21
-3.78904
0
LINE
8
BLACK
6
CONTINUOUS
10
5.52698
20
-3.78904
11
5.525
21
-3.78863
0
LINE
8
BLACK
6
CONTINUOUS
10
5.525
20
-3.78863
11
5.52375
21
-3.78705
0
LINE
8
BLACK
6
CONTINUOUS
10
5.52375
20
-3.78705
11
5.52067
21
-3.77782
0
LINE
8
BLACK
6
CONTINUOUS
10
5.52067
20
-3.77782
11
5.50618
21
-3.77782
0
LINE
8
BLACK
6
CONTINUOUS
10
5.50618
20
-3.77782
11
5.5031
21
-3.78705
0
LINE
8
BLACK
6
CONTINUOUS
10
5.5031
20
-3.78705
11
5.50261
21
-3.78795
0
LINE
8
BLACK
6
CONTINUOUS
10
5.50261
20
-3.78795
11
5.50089
21
-3.78901
0
LINE
8
BLACK
6
CONTINUOUS
10
5.50089
20
-3.78901
11
5.49889
21
-3.78871
0
LINE
8
BLACK
6
CONTINUOUS
10
5.49889
20
-3.78871
11
5.49755
21
-3.7872
0
LINE
8
BLACK
6
CONTINUOUS
10
5.49755
20
-3.7872
11
5.4975
21
-3.78518
0
LINE
8
BLACK
6
CONTINUOUS
10
5.4975
20
-3.78518
11
5.51062
21
-3.74581
0
LINE
8
BLACK
6
CONTINUOUS
10
5.51062
20
-3.74581
11
5.51111
21
-3.74491
0
LINE
8
BLACK
6
CONTINUOUS
10
5.51111
20
-3.74491
11
5.51118
21
-3.74487
0
LINE
8
BLACK
6
CONTINUOUS
10
5.51118
20
-3.74487
11
5.51121
21
-3.74479
0
LINE
8
BLACK
6
CONTINUOUS
10
5.51121
20
-3.74479
11
5.51204
21
-3.74434
0
LINE
8
BLACK
6
CONTINUOUS
10
5.51204
20
-3.74434
11
5.51283
21
-3.74385
0
LINE
8
BLACK
6
CONTINUOUS
10
5.51283
20
-3.74385
11
5.51292
21
-3.74387
0
LINE
8
BLACK
6
CONTINUOUS
10
5.51292
20
-3.74387
11
5.51299
21
-3.74383
0
LINE
8
BLACK
6
CONTINUOUS
10
5.51299
20
-3.74383
11
5.51391
21
-3.74401
0
LINE
8
BLACK
6
CONTINUOUS
10
5.50815
20
-3.77192
11
5.5187
21
-3.77192
0
LINE
8
BLACK
6
CONTINUOUS
10
5.5187
20
-3.77192
11
5.51342
21
-3.75608
0
LINE
8
BLACK
6
CONTINUOUS
10
5.51342
20
-3.75608
11
5.50815
21
-3.77192
0
LINE
8
BLACK
6
CONTINUOUS
10
5.36017
20
-3.74401
11
5.3611
21
-3.74415
0
LINE
8
BLACK
6
CONTINUOUS
10
5.3611
20
-3.74415
11
5.36115
21
-3.74421
0
LINE
8
BLACK
6
CONTINUOUS
10
5.36115
20
-3.74421
11
5.36124
21
-3.74423
0
LINE
8
BLACK
6
CONTINUOUS
10
5.36124
20
-3.74423
11
5.36182
21
-3.74496
0
LINE
8
BLACK
6
CONTINUOUS
10
5.36182
20
-3.74496
11
5.36244
21
-3.74566
0
LINE
8
BLACK
6
CONTINUOUS
10
5.36244
20
-3.74566
11
5.36244
21
-3.74575
0
LINE
8
BLACK
6
CONTINUOUS
10
5.36244
20
-3.74575
11
5.36249
21
-3.74581
0
LINE
8
BLACK
6
CONTINUOUS
10
5.36249
20
-3.74581
11
5.37562
21
-3.78518
0
LINE
8
BLACK
6
CONTINUOUS
10
5.37562
20
-3.78518
11
5.37577
21
-3.7862
0
LINE
8
BLACK
6
CONTINUOUS
10
5.37577
20
-3.7862
11
5.37503
21
-3.78808
0
LINE
8
BLACK
6
CONTINUOUS
10
5.37503
20
-3.78808
11
5.37325
21
-3.78904
0
LINE
8
BLACK
6
CONTINUOUS
10
5.37325
20
-3.78904
11
5.37127
21
-3.78863
0
LINE
8
BLACK
6
CONTINUOUS
10
5.37127
20
-3.78863
11
5.37001
21
-3.78705
0
LINE
8
BLACK
6
CONTINUOUS
10
5.37001
20
-3.78705
11
5.36694
21
-3.77782
0
LINE
8
BLACK
6
CONTINUOUS
10
5.36694
20
-3.77782
11
5.35245
21
-3.77782
0
LINE
8
BLACK
6
CONTINUOUS
10
5.35245
20
-3.77782
11
5.34937
21
-3.78705
0
LINE
8
BLACK
6
CONTINUOUS
10
5.34937
20
-3.78705
11
5.34888
21
-3.78795
0
LINE
8
BLACK
6
CONTINUOUS
10
5.34888
20
-3.78795
11
5.34716
21
-3.78901
0
LINE
8
BLACK
6
CONTINUOUS
10
5.34716
20
-3.78901
11
5.34516
21
-3.78871
0
LINE
8
BLACK
6
CONTINUOUS
10
5.34516
20
-3.78871
11
5.34382
21
-3.7872
0
LINE
8
BLACK
6
CONTINUOUS
10
5.34382
20
-3.7872
11
5.34377
21
-3.78518
0
LINE
8
BLACK
6
CONTINUOUS
10
5.34377
20
-3.78518
11
5.35689
21
-3.74581
0
LINE
8
BLACK
6
CONTINUOUS
10
5.35689
20
-3.74581
11
5.35738
21
-3.74491
0
LINE
8
BLACK
6
CONTINUOUS
10
5.35738
20
-3.74491
11
5.35745
21
-3.74487
0
LINE
8
BLACK
6
CONTINUOUS
10
5.35745
20
-3.74487
11
5.35748
21
-3.74479
0
LINE
8
BLACK
6
CONTINUOUS
10
5.35748
20
-3.74479
11
5.3583
21
-3.74434
0
LINE
8
BLACK
6
CONTINUOUS
10
5.3583
20
-3.74434
11
5.3591
21
-3.74385
0
LINE
8
BLACK
6
CONTINUOUS
10
5.3591
20
-3.74385
11
5.35918
21
-3.74387
0
LINE
8
BLACK
6
CONTINUOUS
10
5.35918
20
-3.74387
11
5.35926
21
-3.74383
0
LINE
8
BLACK
6
CONTINUOUS
10
5.35926
20
-3.74383
11
5.36017
21
-3.74401
0
LINE
8
BLACK
6
CONTINUOUS
10
5.35442
20
-3.77192
11
5.36497
21
-3.77192
0
LINE
8
BLACK
6
CONTINUOUS
10
5.36497
20
-3.77192
11
5.35969
21
-3.75608
0
LINE
8
BLACK
6
CONTINUOUS
10
5.35969
20
-3.75608
11
5.35442
21
-3.77192
0
LINE
8
BLACK
6
CONTINUOUS
10
5.29884
20
-3.74397
11
5.30038
21
-3.74527
0
LINE
8
BLACK
6
CONTINUOUS
10
5.30038
20
-3.74527
11
5.30073
21
-3.74726
0
LINE
8
BLACK
6
CONTINUOUS
10
5.30073
20
-3.74726
11
5.29972
21
-3.74901
0
LINE
8
BLACK
6
CONTINUOUS
10
5.29972
20
-3.74901
11
5.29783
21
-3.7497
0
LINE
8
BLACK
6
CONTINUOUS
10
5.29783
20
-3.7497
11
5.28203
21
-3.7497
0
LINE
8
BLACK
6
CONTINUOUS
10
5.28203
20
-3.7497
11
5.28203
21
-3.76254
0
LINE
8
BLACK
6
CONTINUOUS
10
5.28203
20
-3.76254
11
5.2922
21
-3.76254
0
LINE
8
BLACK
6
CONTINUOUS
10
5.2922
20
-3.76254
11
5.29321
21
-3.76272
0
LINE
8
BLACK
6
CONTINUOUS
10
5.29321
20
-3.76272
11
5.29476
21
-3.76402
0
LINE
8
BLACK
6
CONTINUOUS
10
5.29476
20
-3.76402
11
5.29511
21
-3.76601
0
LINE
8
BLACK
6
CONTINUOUS
10
5.29511
20
-3.76601
11
5.2941
21
-3.76776
0
LINE
8
BLACK
6
CONTINUOUS
10
5.2941
20
-3.76776
11
5.2922
21
-3.76845
0
LINE
8
BLACK
6
CONTINUOUS
10
5.2922
20
-3.76845
11
5.28203
21
-3.76845
0
LINE
8
BLACK
6
CONTINUOUS
10
5.28203
20
-3.76845
11
5.28203
21
-3.78612
0
LINE
8
BLACK
6
CONTINUOUS
10
5.28203
20
-3.78612
11
5.28185
21
-3.78713
0
LINE
8
BLACK
6
CONTINUOUS
10
5.28185
20
-3.78713
11
5.28055
21
-3.78867
0
LINE
8
BLACK
6
CONTINUOUS
10
5.28055
20
-3.78867
11
5.27856
21
-3.78903
0
LINE
8
BLACK
6
CONTINUOUS
10
5.27856
20
-3.78903
11
5.27682
21
-3.78802
0
LINE
8
BLACK
6
CONTINUOUS
10
5.27682
20
-3.78802
11
5.27612
21
-3.78612
0
LINE
8
BLACK
6
CONTINUOUS
10
5.27612
20
-3.78612
11
5.27612
21
-3.74675
0
LINE
8
BLACK
6
CONTINUOUS
10
5.27612
20
-3.74675
11
5.27619
21
-3.74636
0
LINE
8
BLACK
6
CONTINUOUS
10
5.27619
20
-3.74636
11
5.27617
21
-3.74623
0
LINE
8
BLACK
6
CONTINUOUS
10
5.27617
20
-3.74623
11
5.27624
21
-3.74612
0
LINE
8
BLACK
6
CONTINUOUS
10
5.27624
20
-3.74612
11
5.2763
21
-3.74574
0
LINE
8
BLACK
6
CONTINUOUS
10
5.2763
20
-3.74574
11
5.2768
21
-3.74515
0
LINE
8
BLACK
6
CONTINUOUS
10
5.2768
20
-3.74515
11
5.27718
21
-3.74449
0
LINE
8
BLACK
6
CONTINUOUS
10
5.27718
20
-3.74449
11
5.27743
21
-3.74439
0
LINE
8
BLACK
6
CONTINUOUS
10
5.27743
20
-3.74439
11
5.2776
21
-3.74419
0
LINE
8
BLACK
6
CONTINUOUS
10
5.2776
20
-3.74419
11
5.27836
21
-3.74406
0
LINE
8
BLACK
6
CONTINUOUS
10
5.27836
20
-3.74406
11
5.27908
21
-3.74379
0
LINE
8
BLACK
6
CONTINUOUS
10
5.27908
20
-3.74379
11
5.29783
21
-3.74379
0
LINE
8
BLACK
6
CONTINUOUS
10
5.29783
20
-3.74379
11
5.29884
21
-3.74397
0
LINE
8
BLACK
6
CONTINUOUS
10
5.32883
20
-3.74397
11
5.32897
21
-3.74409
0
LINE
8
BLACK
6
CONTINUOUS
10
5.32897
20
-3.74409
11
5.32914
21
-3.74411
0
LINE
8
BLACK
6
CONTINUOUS
10
5.32914
20
-3.74411
11
5.33289
21
-3.74598
0
LINE
8
BLACK
6
CONTINUOUS
10
5.33289
20
-3.74598
11
5.3336
21
-3.74651
0
LINE
8
BLACK
6
CONTINUOUS
10
5.3336
20
-3.74651
11
5.33366
21
-3.74653
0
LINE
8
BLACK
6
CONTINUOUS
10
5.33366
20
-3.74653
11
5.33553
21
-3.74841
0
LINE
8
BLACK
6
CONTINUOUS
10
5.33553
20
-3.74841
11
5.33604
21
-3.74913
0
LINE
8
BLACK
6
CONTINUOUS
10
5.33604
20
-3.74913
11
5.33609
21
-3.74918
0
LINE
8
BLACK
6
CONTINUOUS
10
5.33609
20
-3.74918
11
5.33796
21
-3.75293
0
LINE
8
BLACK
6
CONTINUOUS
10
5.33796
20
-3.75293
11
5.33825
21
-3.75391
0
LINE
8
BLACK
6
CONTINUOUS
10
5.33825
20
-3.75391
11
5.33821
21
-3.75408
0
LINE
8
BLACK
6
CONTINUOUS
10
5.33821
20
-3.75408
11
5.33827
21
-3.75425
0
LINE
8
BLACK
6
CONTINUOUS
10
5.33827
20
-3.75425
11
5.33827
21
-3.75987
0
LINE
8
BLACK
6
CONTINUOUS
10
5.33827
20
-3.75987
11
5.3381
21
-3.76088
0
LINE
8
BLACK
6
CONTINUOUS
10
5.3381
20
-3.76088
11
5.33798
21
-3.76102
0
LINE
8
BLACK
6
CONTINUOUS
10
5.33798
20
-3.76102
11
5.33796
21
-3.76119
0
LINE
8
BLACK
6
CONTINUOUS
10
5.33796
20
-3.76119
11
5.33609
21
-3.76494
0
LINE
8
BLACK
6
CONTINUOUS
10
5.33609
20
-3.76494
11
5.33556
21
-3.76565
0
LINE
8
BLACK
6
CONTINUOUS
10
5.33556
20
-3.76565
11
5.33553
21
-3.76571
0
LINE
8
BLACK
6
CONTINUOUS
10
5.33553
20
-3.76571
11
5.33366
21
-3.76758
0
LINE
8
BLACK
6
CONTINUOUS
10
5.33366
20
-3.76758
11
5.33294
21
-3.76809
0
LINE
8
BLACK
6
CONTINUOUS
10
5.33294
20
-3.76809
11
5.33289
21
-3.76814
0
LINE
8
BLACK
6
CONTINUOUS
10
5.33289
20
-3.76814
11
5.32914
21
-3.77001
0
LINE
8
BLACK
6
CONTINUOUS
10
5.32914
20
-3.77001
11
5.32816
21
-3.7703
0
LINE
8
BLACK
6
CONTINUOUS
10
5.32816
20
-3.7703
11
5.32799
21
-3.77026
0
LINE
8
BLACK
6
CONTINUOUS
10
5.32799
20
-3.77026
11
5.32786
21
-3.77031
0
LINE
8
BLACK
6
CONTINUOUS
10
5.32786
20
-3.77031
11
5.33774
21
-3.78442
0
LINE
8
BLACK
6
CONTINUOUS
10
5.33774
20
-3.78442
11
5.33817
21
-3.78535
0
LINE
8
BLACK
6
CONTINUOUS
10
5.33817
20
-3.78535
11
5.338
21
-3.78737
0
LINE
8
BLACK
6
CONTINUOUS
10
5.338
20
-3.78737
11
5.33657
21
-3.78879
0
LINE
8
BLACK
6
CONTINUOUS
10
5.33657
20
-3.78879
11
5.33456
21
-3.78897
0
LINE
8
BLACK
6
CONTINUOUS
10
5.33456
20
-3.78897
11
5.3329
21
-3.78781
0
LINE
8
BLACK
6
CONTINUOUS
10
5.3329
20
-3.78781
11
5.32066
21
-3.77032
0
LINE
8
BLACK
6
CONTINUOUS
10
5.32066
20
-3.77032
11
5.31578
21
-3.77032
0
LINE
8
BLACK
6
CONTINUOUS
10
5.31578
20
-3.77032
11
5.31578
21
-3.78612
0
LINE
8
BLACK
6
CONTINUOUS
10
5.31578
20
-3.78612
11
5.3156
21
-3.78713
0
LINE
8
BLACK
6
CONTINUOUS
10
5.3156
20
-3.78713
11
5.3143
21
-3.78867
0
LINE
8
BLACK
6
CONTINUOUS
10
5.3143
20
-3.78867
11
5.31231
21
-3.78903
0
LINE
8
BLACK
6
CONTINUOUS
10
5.31231
20
-3.78903
11
5.31056
21
-3.78802
0
LINE
8
BLACK
6
CONTINUOUS
10
5.31056
20
-3.78802
11
5.30987
21
-3.78612
0
LINE
8
BLACK
6
CONTINUOUS
10
5.30987
20
-3.78612
11
5.30987
21
-3.74675
0
LINE
8
BLACK
6
CONTINUOUS
10
5.30987
20
-3.74675
11
5.30994
21
-3.74636
0
LINE
8
BLACK
6
CONTINUOUS
10
5.30994
20
-3.74636
11
5.30992
21
-3.74623
0
LINE
8
BLACK
6
CONTINUOUS
10
5.30992
20
-3.74623
11
5.30998
21
-3.74612
0
LINE
8
BLACK
6
CONTINUOUS
10
5.30998
20
-3.74612
11
5.31005
21
-3.74574
0
LINE
8
BLACK
6
CONTINUOUS
10
5.31005
20
-3.74574
11
5.31054
21
-3.74515
0
LINE
8
BLACK
6
CONTINUOUS
10
5.31054
20
-3.74515
11
5.31093
21
-3.74449
0
LINE
8
BLACK
6
CONTINUOUS
10
5.31093
20
-3.74449
11
5.31118
21
-3.74439
0
LINE
8
BLACK
6
CONTINUOUS
10
5.31118
20
-3.74439
11
5.31135
21
-3.74419
0
LINE
8
BLACK
6
CONTINUOUS
10
5.31135
20
-3.74419
11
5.3121
21
-3.74406
0
LINE
8
BLACK
6
CONTINUOUS
10
5.3121
20
-3.74406
11
5.31282
21
-3.74379
0
LINE
8
BLACK
6
CONTINUOUS
10
5.31282
20
-3.74379
11
5.32782
21
-3.74379
0
LINE
8
BLACK
6
CONTINUOUS
10
5.32782
20
-3.74379
11
5.32883
21
-3.74397
0
LINE
8
BLACK
6
CONTINUOUS
10
5.31578
20
-3.7497
11
5.31578
21
-3.76442
0
LINE
8
BLACK
6
CONTINUOUS
10
5.31578
20
-3.76442
11
5.32712
21
-3.76442
0
LINE
8
BLACK
6
CONTINUOUS
10
5.32712
20
-3.76442
11
5.32982
21
-3.76307
0
LINE
8
BLACK
6
CONTINUOUS
10
5.32982
20
-3.76307
11
5.33102
21
-3.76187
0
LINE
8
BLACK
6
CONTINUOUS
10
5.33102
20
-3.76187
11
5.33237
21
-3.75917
0
LINE
8
BLACK
6
CONTINUOUS
10
5.33237
20
-3.75917
11
5.33237
21
-3.75494
0
LINE
8
BLACK
6
CONTINUOUS
10
5.33237
20
-3.75494
11
5.33102
21
-3.75225
0
LINE
8
BLACK
6
CONTINUOUS
10
5.33102
20
-3.75225
11
5.32982
21
-3.75105
0
LINE
8
BLACK
6
CONTINUOUS
10
5.32982
20
-3.75105
11
5.32712
21
-3.7497
0
LINE
8
BLACK
6
CONTINUOUS
10
5.32712
20
-3.7497
11
5.31578
21
-3.7497
0
LINE
8
BLACK
6
CONTINUOUS
10
5.41231
20
-3.74391
11
5.4127
21
-3.74384
0
LINE
8
BLACK
6
CONTINUOUS
10
5.4127
20
-3.74384
11
5.41326
21
-3.74416
0
LINE
8
BLACK
6
CONTINUOUS
10
5.41326
20
-3.74416
11
5.41388
21
-3.74433
0
LINE
8
BLACK
6
CONTINUOUS
10
5.41388
20
-3.74433
11
5.41411
21
-3.74465
0
LINE
8
BLACK
6
CONTINUOUS
10
5.41411
20
-3.74465
11
5.41445
21
-3.74485
0
LINE
8
BLACK
6
CONTINUOUS
10
5.41445
20
-3.74485
11
5.41467
21
-3.74546
0
LINE
8
BLACK
6
CONTINUOUS
10
5.41467
20
-3.74546
11
5.41504
21
-3.74598
0
LINE
8
BLACK
6
CONTINUOUS
10
5.41504
20
-3.74598
11
5.415
21
-3.74638
0
LINE
8
BLACK
6
CONTINUOUS
10
5.415
20
-3.74638
11
5.41514
21
-3.74675
0
LINE
8
BLACK
6
CONTINUOUS
10
5.41514
20
-3.74675
11
5.41514
21
-3.78612
0
LINE
8
BLACK
6
CONTINUOUS
10
5.41514
20
-3.78612
11
5.41496
21
-3.78713
0
LINE
8
BLACK
6
CONTINUOUS
10
5.41496
20
-3.78713
11
5.41366
21
-3.78867
0
LINE
8
BLACK
6
CONTINUOUS
10
5.41366
20
-3.78867
11
5.41167
21
-3.78903
0
LINE
8
BLACK
6
CONTINUOUS
10
5.41167
20
-3.78903
11
5.40992
21
-3.78802
0
LINE
8
BLACK
6
CONTINUOUS
10
5.40992
20
-3.78802
11
5.40923
21
-3.78612
0
LINE
8
BLACK
6
CONTINUOUS
10
5.40923
20
-3.78612
11
5.40923
21
-3.76006
0
LINE
8
BLACK
6
CONTINUOUS
10
5.40923
20
-3.76006
11
5.40174
21
-3.77612
0
LINE
8
BLACK
6
CONTINUOUS
10
5.40174
20
-3.77612
11
5.40152
21
-3.77644
0
LINE
8
BLACK
6
CONTINUOUS
10
5.40152
20
-3.77644
11
5.40148
21
-3.77656
0
LINE
8
BLACK
6
CONTINUOUS
10
5.40148
20
-3.77656
11
5.40137
21
-3.77664
0
LINE
8
BLACK
6
CONTINUOUS
10
5.40137
20
-3.77664
11
5.40115
21
-3.77696
0
LINE
8
BLACK
6
CONTINUOUS
10
5.40115
20
-3.77696
11
5.40046
21
-3.77728
0
LINE
8
BLACK
6
CONTINUOUS
10
5.40046
20
-3.77728
11
5.39983
21
-3.77772
0
LINE
8
BLACK
6
CONTINUOUS
10
5.39983
20
-3.77772
11
5.39956
21
-3.7777
0
LINE
8
BLACK
6
CONTINUOUS
10
5.39956
20
-3.7777
11
5.39932
21
-3.77781
0
LINE
8
BLACK
6
CONTINUOUS
10
5.39932
20
-3.77781
11
5.39858
21
-3.77761
0
LINE
8
BLACK
6
CONTINUOUS
10
5.39858
20
-3.77761
11
5.39782
21
-3.77755
0
LINE
8
BLACK
6
CONTINUOUS
10
5.39782
20
-3.77755
11
5.39763
21
-3.77736
0
LINE
8
BLACK
6
CONTINUOUS
10
5.39763
20
-3.77736
11
5.39737
21
-3.77729
0
LINE
8
BLACK
6
CONTINUOUS
10
5.39737
20
-3.77729
11
5.39693
21
-3.77666
0
LINE
8
BLACK
6
CONTINUOUS
10
5.39693
20
-3.77666
11
5.39639
21
-3.77612
0
LINE
8
BLACK
6
CONTINUOUS
10
5.39639
20
-3.77612
11
5.38889
21
-3.76006
0
LINE
8
BLACK
6
CONTINUOUS
10
5.38889
20
-3.76006
11
5.38889
21
-3.78612
0
LINE
8
BLACK
6
CONTINUOUS
10
5.38889
20
-3.78612
11
5.38871
21
-3.78713
0
LINE
8
BLACK
6
CONTINUOUS
10
5.38871
20
-3.78713
11
5.38742
21
-3.78867
0
LINE
8
BLACK
6
CONTINUOUS
10
5.38742
20
-3.78867
11
5.38543
21
-3.78903
0
LINE
8
BLACK
6
CONTINUOUS
10
5.38543
20
-3.78903
11
5.38368
21
-3.78802
0
LINE
8
BLACK
6
CONTINUOUS
10
5.38368
20
-3.78802
11
5.38299
21
-3.78612
0
LINE
8
BLACK
6
CONTINUOUS
10
5.38299
20
-3.78612
11
5.38299
21
-3.74675
0
LINE
8
BLACK
6
CONTINUOUS
10
5.38299
20
-3.74675
11
5.38316
21
-3.74574
0
LINE
8
BLACK
6
CONTINUOUS
10
5.38316
20
-3.74574
11
5.38342
21
-3.74544
0
LINE
8
BLACK
6
CONTINUOUS
10
5.38342
20
-3.74544
11
5.38352
21
-3.74505
0
LINE
8
BLACK
6
CONTINUOUS
10
5.38352
20
-3.74505
11
5.38405
21
-3.74468
0
LINE
8
BLACK
6
CONTINUOUS
10
5.38405
20
-3.74468
11
5.38446
21
-3.74419
0
LINE
8
BLACK
6
CONTINUOUS
10
5.38446
20
-3.74419
11
5.38485
21
-3.74412
0
LINE
8
BLACK
6
CONTINUOUS
10
5.38485
20
-3.74412
11
5.38517
21
-3.7439
0
LINE
8
BLACK
6
CONTINUOUS
10
5.38517
20
-3.7439
11
5.38582
21
-3.74395
0
LINE
8
BLACK
6
CONTINUOUS
10
5.38582
20
-3.74395
11
5.38645
21
-3.74384
0
LINE
8
BLACK
6
CONTINUOUS
10
5.38645
20
-3.74384
11
5.38679
21
-3.74404
0
LINE
8
BLACK
6
CONTINUOUS
10
5.38679
20
-3.74404
11
5.38719
21
-3.74407
0
LINE
8
BLACK
6
CONTINUOUS
10
5.38719
20
-3.74407
11
5.38764
21
-3.74453
0
LINE
8
BLACK
6
CONTINUOUS
10
5.38764
20
-3.74453
11
5.3882
21
-3.74485
0
LINE
8
BLACK
6
CONTINUOUS
10
5.3882
20
-3.74485
11
5.38834
21
-3.74522
0
LINE
8
BLACK
6
CONTINUOUS
10
5.38834
20
-3.74522
11
5.38861
21
-3.7455
0
LINE
8
BLACK
6
CONTINUOUS
10
5.38861
20
-3.7455
11
5.39906
21
-3.76789
0
LINE
8
BLACK
6
CONTINUOUS
10
5.39906
20
-3.76789
11
5.40951
21
-3.7455
0
LINE
8
BLACK
6
CONTINUOUS
10
5.40951
20
-3.7455
11
5.4101
21
-3.74466
0
LINE
8
BLACK
6
CONTINUOUS
10
5.4101
20
-3.74466
11
5.41046
21
-3.74449
0
LINE
8
BLACK
6
CONTINUOUS
10
5.41046
20
-3.74449
11
5.41071
21
-3.74419
0
LINE
8
BLACK
6
CONTINUOUS
10
5.41071
20
-3.74419
11
5.41134
21
-3.74408
0
LINE
8
BLACK
6
CONTINUOUS
10
5.41134
20
-3.74408
11
5.41193
21
-3.74381
0
LINE
8
BLACK
6
CONTINUOUS
10
5.41193
20
-3.74381
11
5.41231
21
-3.74391
0
LINE
8
BLACK
6
CONTINUOUS
10
5.90038
20
-3.19711
11
5.90051
21
-3.19709
0
LINE
8
BLACK
6
CONTINUOUS
10
5.90051
20
-3.19709
11
5.90063
21
-3.19716
0
LINE
8
BLACK
6
CONTINUOUS
10
5.90063
20
-3.19716
11
5.90101
21
-3.19723
0
LINE
8
BLACK
6
CONTINUOUS
10
5.90101
20
-3.19723
11
5.9016
21
-3.19772
0
LINE
8
BLACK
6
CONTINUOUS
10
5.9016
20
-3.19772
11
5.90226
21
-3.1981
0
LINE
8
BLACK
6
CONTINUOUS
10
5.90226
20
-3.1981
11
5.90235
21
-3.19835
0
LINE
8
BLACK
6
CONTINUOUS
10
5.90235
20
-3.19835
11
5.90256
21
-3.19852
0
LINE
8
BLACK
6
CONTINUOUS
10
5.90256
20
-3.19852
11
5.90269
21
-3.19928
0
LINE
8
BLACK
6
CONTINUOUS
10
5.90269
20
-3.19928
11
5.90295
21
-3.2
0
LINE
8
BLACK
6
CONTINUOUS
10
5.90295
20
-3.2
11
5.90295
21
-3.6
0
LINE
8
BLACK
6
CONTINUOUS
10
5.90295
20
-3.6
11
5.90289
21
-3.60038
0
LINE
8
BLACK
6
CONTINUOUS
10
5.90289
20
-3.60038
11
5.90291
21
-3.60051
0
LINE
8
BLACK
6
CONTINUOUS
10
5.90291
20
-3.60051
11
5.90284
21
-3.60063
0
LINE
8
BLACK
6
CONTINUOUS
10
5.90284
20
-3.60063
11
5.90277
21
-3.60101
0
LINE
8
BLACK
6
CONTINUOUS
10
5.90277
20
-3.60101
11
5.90228
21
-3.6016
0
LINE
8
BLACK
6
CONTINUOUS
10
5.90228
20
-3.6016
11
5.9019
21
-3.60226
0
LINE
8
BLACK
6
CONTINUOUS
10
5.9019
20
-3.60226
11
5.90165
21
-3.60235
0
LINE
8
BLACK
6
CONTINUOUS
10
5.90165
20
-3.60235
11
5.90148
21
-3.60256
0
LINE
8
BLACK
6
CONTINUOUS
10
5.90148
20
-3.60256
11
5.90072
21
-3.60269
0
LINE
8
BLACK
6
CONTINUOUS
10
5.90072
20
-3.60269
11
5.9
21
-3.60295
0
LINE
8
BLACK
6
CONTINUOUS
10
5.9
20
-3.60295
11
5.7
21
-3.60295
0
LINE
8
BLACK
6
CONTINUOUS
10
5.7
20
-3.60295
11
5.69962
21
-3.60289
0
LINE
8
BLACK
6
CONTINUOUS
10
5.69962
20
-3.60289
11
5.69949
21
-3.60291
0
LINE
8
BLACK
6
CONTINUOUS
10
5.69949
20
-3.60291
11
5.69937
21
-3.60284
0
LINE
8
BLACK
6
CONTINUOUS
10
5.69937
20
-3.60284
11
5.69899
21
-3.60277
0
LINE
8
BLACK
6
CONTINUOUS
10
5.69899
20
-3.60277
11
5.6984
21
-3.60228
0
LINE
8
BLACK
6
CONTINUOUS
10
5.6984
20
-3.60228
11
5.69774
21
-3.6019
0
LINE
8
BLACK
6
CONTINUOUS
10
5.69774
20
-3.6019
11
5.69765
21
-3.60165
0
LINE
8
BLACK
6
CONTINUOUS
10
5.69765
20
-3.60165
11
5.69744
21
-3.60148
0
LINE
8
BLACK
6
CONTINUOUS
10
5.69744
20
-3.60148
11
5.69731
21
-3.60072
0
LINE
8
BLACK
6
CONTINUOUS
10
5.69731
20
-3.60072
11
5.69705
21
-3.6
0
LINE
8
BLACK
6
CONTINUOUS
10
5.69705
20
-3.6
11
5.69705
21
-3.2
0
LINE
8
BLACK
6
CONTINUOUS
10
5.69705
20
-3.2
11
5.69711
21
-3.19962
0
LINE
8
BLACK
6
CONTINUOUS
10
5.69711
20
-3.19962
11
5.69709
21
-3.19949
0
LINE
8
BLACK
6
CONTINUOUS
10
5.69709
20
-3.19949
11
5.69716
21
-3.19937
0
LINE
8
BLACK
6
CONTINUOUS
10
5.69716
20
-3.19937
11
5.69723
21
-3.19899
0
LINE
8
BLACK
6
CONTINUOUS
10
5.69723
20
-3.19899
11
5.69772
21
-3.1984
0
LINE
8
BLACK
6
CONTINUOUS
10
5.69772
20
-3.1984
11
5.6981
21
-3.19774
0
LINE
8
BLACK
6
CONTINUOUS
10
5.6981
20
-3.19774
11
5.69835
21
-3.19765
0
LINE
8
BLACK
6
CONTINUOUS
10
5.69835
20
-3.19765
11
5.69852
21
-3.19744
0
LINE
8
BLACK
6
CONTINUOUS
10
5.69852
20
-3.19744
11
5.69928
21
-3.19731
0
LINE
8
BLACK
6
CONTINUOUS
10
5.69928
20
-3.19731
11
5.7
21
-3.19705
0
LINE
8
BLACK
6
CONTINUOUS
10
5.7
20
-3.19705
11
5.9
21
-3.19705
0
LINE
8
BLACK
6
CONTINUOUS
10
5.9
20
-3.19705
11
5.90038
21
-3.19711
0
LINE
8
BLACK
6
CONTINUOUS
10
5.70295
20
-3.20295
11
5.70295
21
-3.59705
0
LINE
8
BLACK
6
CONTINUOUS
10
5.70295
20
-3.59705
11
5.89705
21
-3.59705
0
LINE
8
BLACK
6
CONTINUOUS
10
5.89705
20
-3.59705
11
5.89705
21
-3.20295
0
LINE
8
BLACK
6
CONTINUOUS
10
5.89705
20
-3.20295
11
5.70295
21
-3.20295
0
LINE
8
BLACK
6
CONTINUOUS
10
5.88
20
-3.58
11
5.82
21
-3.58
0
LINE
8
BLACK
6
CONTINUOUS
10
5.82
20
-3.58
11
5.82
21
-3.52
0
LINE
8
BLACK
6
CONTINUOUS
10
5.82
20
-3.52
11
5.88
21
-3.52
0
LINE
8
BLACK
6
CONTINUOUS
10
5.88
20
-3.52
11
5.88
21
-3.58
0
LINE
8
BLACK
6
CONTINUOUS
10
5.78
20
-3.58
11
5.72
21
-3.58
0
LINE
8
BLACK
6
CONTINUOUS
10
5.72
20
-3.58
11
5.72
21
-3.52
0
LINE
8
BLACK
6
CONTINUOUS
10
5.72
20
-3.52
11
5.78
21
-3.52
0
LINE
8
BLACK
6
CONTINUOUS
10
5.78
20
-3.52
11
5.78
21
-3.58
0
LINE
8
BLACK
6
CONTINUOUS
10
5.88
20
-3.48
11
5.82
21
-3.48
0
LINE
8
BLACK
6
CONTINUOUS
10
5.82
20
-3.48
11
5.82
21
-3.42
0
LINE
8
BLACK
6
CONTINUOUS
10
5.82
20
-3.42
11
5.88
21
-3.42
0
LINE
8
BLACK
6
CONTINUOUS
10
5.88
20
-3.42
11
5.88
21
-3.48
0
LINE
8
BLACK
6
CONTINUOUS
10
5.78
20
-3.48
11
5.72
21
-3.48
0
LINE
8
BLACK
6
CONTINUOUS
10
5.72
20
-3.48
11
5.72
21
-3.42
0
LINE
8
BLACK
6
CONTINUOUS
10
5.72
20
-3.42
11
5.78
21
-3.42
0
LINE
8
BLACK
6
CONTINUOUS
10
5.78
20
-3.42
11
5.78
21
-3.48
0
LINE
8
BLACK
6
CONTINUOUS
10
5.88
20
-3.38
11
5.82
21
-3.38
0
LINE
8
BLACK
6
CONTINUOUS
10
5.82
20
-3.38
11
5.82
21
-3.32
0
LINE
8
BLACK
6
CONTINUOUS
10
5.82
20
-3.32
11
5.88
21
-3.32
0
LINE
8
BLACK
6
CONTINUOUS
10
5.88
20
-3.32
11
5.88
21
-3.38
0
LINE
8
BLACK
6
CONTINUOUS
10
5.78
20
-3.38
11
5.72
21
-3.38
0
LINE
8
BLACK
6
CONTINUOUS
10
5.72
20
-3.38
11
5.72
21
-3.32
0
LINE
8
BLACK
6
CONTINUOUS
10
5.72
20
-3.32
11
5.78
21
-3.32
0
LINE
8
BLACK
6
CONTINUOUS
10
5.78
20
-3.32
11
5.78
21
-3.38
0
LINE
8
BLACK
6
CONTINUOUS
10
5.88
20
-3.28
11
5.82
21
-3.28
0
LINE
8
BLACK
6
CONTINUOUS
10
5.82
20
-3.28
11
5.82
21
-3.22
0
LINE
8
BLACK
6
CONTINUOUS
10
5.82
20
-3.22
11
5.88
21
-3.22
0
LINE
8
BLACK
6
CONTINUOUS
10
5.88
20
-3.22
11
5.88
21
-3.28
0
LINE
8
BLACK
6
CONTINUOUS
10
5.78
20
-3.28
11
5.72
21
-3.28
0
LINE
8
BLACK
6
CONTINUOUS
10
5.72
20
-3.28
11
5.72
21
-3.22
0
LINE
8
BLACK
6
CONTINUOUS
10
5.72
20
-3.22
11
5.78
21
-3.22
0
LINE
8
BLACK
6
CONTINUOUS
10
5.78
20
-3.22
11
5.78
21
-3.28
0
LINE
8
BLACK
6
CONTINUOUS
10
5.6052
20
-3.53607
11
5.60631
21
-3.53776
0
LINE
8
BLACK
6
CONTINUOUS
10
5.60631
20
-3.53776
11
5.61298
21
-3.56574
0
LINE
8
BLACK
6
CONTINUOUS
10
5.61298
20
-3.56574
11
5.61746
21
-3.54893
0
LINE
8
BLACK
6
CONTINUOUS
10
5.61746
20
-3.54893
11
5.61789
21
-3.548
0
LINE
8
BLACK
6
CONTINUOUS
10
5.61789
20
-3.548
11
5.61812
21
-3.54784
0
LINE
8
BLACK
6
CONTINUOUS
10
5.61812
20
-3.54784
11
5.61823
21
-3.5476
0
LINE
8
BLACK
6
CONTINUOUS
10
5.61823
20
-3.5476
11
5.61892
21
-3.54728
0
LINE
8
BLACK
6
CONTINUOUS
10
5.61892
20
-3.54728
11
5.61955
21
-3.54684
0
LINE
8
BLACK
6
CONTINUOUS
10
5.61955
20
-3.54684
11
5.61982
21
-3.54686
0
LINE
8
BLACK
6
CONTINUOUS
10
5.61982
20
-3.54686
11
5.62006
21
-3.54675
0
LINE
8
BLACK
6
CONTINUOUS
10
5.62006
20
-3.54675
11
5.6208
21
-3.54695
0
LINE
8
BLACK
6
CONTINUOUS
10
5.6208
20
-3.54695
11
5.62156
21
-3.54701
0
LINE
8
BLACK
6
CONTINUOUS
10
5.62156
20
-3.54701
11
5.62175
21
-3.5472
0
LINE
8
BLACK
6
CONTINUOUS
10
5.62175
20
-3.5472
11
5.62201
21
-3.54727
0
LINE
8
BLACK
6
CONTINUOUS
10
5.62201
20
-3.54727
11
5.62245
21
-3.5479
0
LINE
8
BLACK
6
CONTINUOUS
10
5.62245
20
-3.5479
11
5.62299
21
-3.54844
0
LINE
8
BLACK
6
CONTINUOUS
10
5.62299
20
-3.54844
11
5.62301
21
-3.54871
0
LINE
8
BLACK
6
CONTINUOUS
10
5.62301
20
-3.54871
11
5.62317
21
-3.54893
0
LINE
8
BLACK
6
CONTINUOUS
10
5.62317
20
-3.54893
11
5.62765
21
-3.56574
0
LINE
8
BLACK
6
CONTINUOUS
10
5.62765
20
-3.56574
11
5.63432
21
-3.53776
0
LINE
8
BLACK
6
CONTINUOUS
10
5.63432
20
-3.53776
11
5.63472
21
-3.53682
0
LINE
8
BLACK
6
CONTINUOUS
10
5.63472
20
-3.53682
11
5.63634
21
-3.53561
0
LINE
8
BLACK
6
CONTINUOUS
10
5.63634
20
-3.53561
11
5.63836
21
-3.53573
0
LINE
8
BLACK
6
CONTINUOUS
10
5.63836
20
-3.53573
11
5.63983
21
-3.53712
0
LINE
8
BLACK
6
CONTINUOUS
10
5.63983
20
-3.53712
11
5.64006
21
-3.53912
0
LINE
8
BLACK
6
CONTINUOUS
10
5.64006
20
-3.53912
11
5.63069
21
-3.57849
0
LINE
8
BLACK
6
CONTINUOUS
10
5.63069
20
-3.57849
11
5.63028
21
-3.57944
0
LINE
8
BLACK
6
CONTINUOUS
10
5.63028
20
-3.57944
11
5.63003
21
-3.57962
0
LINE
8
BLACK
6
CONTINUOUS
10
5.63003
20
-3.57962
11
5.6299
21
-3.5799
0
LINE
8
BLACK
6
CONTINUOUS
10
5.6299
20
-3.5799
11
5.62924
21
-3.58021
0
LINE
8
BLACK
6
CONTINUOUS
10
5.62924
20
-3.58021
11
5.62866
21
-3.58064
0
LINE
8
BLACK
6
CONTINUOUS
10
5.62866
20
-3.58064
11
5.62835
21
-3.58062
0
LINE
8
BLACK
6
CONTINUOUS
10
5.62835
20
-3.58062
11
5.62807
21
-3.58075
0
LINE
8
BLACK
6
CONTINUOUS
10
5.62807
20
-3.58075
11
5.62737
21
-3.58056
0
LINE
8
BLACK
6
CONTINUOUS
10
5.62737
20
-3.58056
11
5.62664
21
-3.58052
0
LINE
8
BLACK
6
CONTINUOUS
10
5.62664
20
-3.58052
11
5.62642
21
-3.58031
0
LINE
8
BLACK
6
CONTINUOUS
10
5.62642
20
-3.58031
11
5.62612
21
-3.58023
0
LINE
8
BLACK
6
CONTINUOUS
10
5.62612
20
-3.58023
11
5.6257
21
-3.57963
0
LINE
8
BLACK
6
CONTINUOUS
10
5.6257
20
-3.57963
11
5.62517
21
-3.57913
0
LINE
8
BLACK
6
CONTINUOUS
10
5.62517
20
-3.57913
11
5.62514
21
-3.57883
0
LINE
8
BLACK
6
CONTINUOUS
10
5.62514
20
-3.57883
11
5.62496
21
-3.57857
0
LINE
8
BLACK
6
CONTINUOUS
10
5.62496
20
-3.57857
11
5.62031
21
-3.56115
0
LINE
8
BLACK
6
CONTINUOUS
10
5.62031
20
-3.56115
11
5.61567
21
-3.57857
0
LINE
8
BLACK
6
CONTINUOUS
10
5.61567
20
-3.57857
11
5.61524
21
-3.5795
0
LINE
8
BLACK
6
CONTINUOUS
10
5.61524
20
-3.5795
11
5.61498
21
-3.57968
0
LINE
8
BLACK
6
CONTINUOUS
10
5.61498
20
-3.57968
11
5.61484
21
-3.57996
0
LINE
8
BLACK
6
CONTINUOUS
10
5.61484
20
-3.57996
11
5.61418
21
-3.58024
0
LINE
8
BLACK
6
CONTINUOUS
10
5.61418
20
-3.58024
11
5.61358
21
-3.58066
0
LINE
8
BLACK
6
CONTINUOUS
10
5.61358
20
-3.58066
11
5.61327
21
-3.58063
0
LINE
8
BLACK
6
CONTINUOUS
10
5.61327
20
-3.58063
11
5.61299
21
-3.58076
0
LINE
8
BLACK
6
CONTINUOUS
10
5.61299
20
-3.58076
11
5.61229
21
-3.58055
0
LINE
8
BLACK
6
CONTINUOUS
10
5.61229
20
-3.58055
11
5.61157
21
-3.58049
0
LINE
8
BLACK
6
CONTINUOUS
10
5.61157
20
-3.58049
11
5.61135
21
-3.58027
0
LINE
8
BLACK
6
CONTINUOUS
10
5.61135
20
-3.58027
11
5.61106
21
-3.58018
0
LINE
8
BLACK
6
CONTINUOUS
10
5.61106
20
-3.58018
11
5.61066
21
-3.57957
0
LINE
8
BLACK
6
CONTINUOUS
10
5.61066
20
-3.57957
11
5.61014
21
-3.57906
0
LINE
8
BLACK
6
CONTINUOUS
10
5.61014
20
-3.57906
11
5.61011
21
-3.57875
0
LINE
8
BLACK
6
CONTINUOUS
10
5.61011
20
-3.57875
11
5.60994
21
-3.57849
0
LINE
8
BLACK
6
CONTINUOUS
10
5.60994
20
-3.57849
11
5.60057
21
-3.53912
0
LINE
8
BLACK
6
CONTINUOUS
10
5.60057
20
-3.53912
11
5.60051
21
-3.5381
0
LINE
8
BLACK
6
CONTINUOUS
10
5.60051
20
-3.5381
11
5.60141
21
-3.53629
0
LINE
8
BLACK
6
CONTINUOUS
10
5.60141
20
-3.53629
11
5.60327
21
-3.53549
0
LINE
8
BLACK
6
CONTINUOUS
10
5.60327
20
-3.53549
11
5.6052
21
-3.53607
0
LINE
8
BLACK
6
CONTINUOUS
10
5.66819
20
-3.53567
11
5.66833
21
-3.53578
0
LINE
8
BLACK
6
CONTINUOUS
10
5.66833
20
-3.53578
11
5.6685
21
-3.5358
0
LINE
8
BLACK
6
CONTINUOUS
10
5.6685
20
-3.5358
11
5.67225
21
-3.53767
0
LINE
8
BLACK
6
CONTINUOUS
10
5.67225
20
-3.53767
11
5.67296
21
-3.5382
0
LINE
8
BLACK
6
CONTINUOUS
10
5.67296
20
-3.5382
11
5.67302
21
-3.53823
0
LINE
8
BLACK
6
CONTINUOUS
10
5.67302
20
-3.53823
11
5.6749
21
-3.5401
0
LINE
8
BLACK
6
CONTINUOUS
10
5.6749
20
-3.5401
11
5.6754
21
-3.54082
0
LINE
8
BLACK
6
CONTINUOUS
10
5.6754
20
-3.54082
11
5.67545
21
-3.54087
0
LINE
8
BLACK
6
CONTINUOUS
10
5.67545
20
-3.54087
11
5.67732
21
-3.54462
0
LINE
8
BLACK
6
CONTINUOUS
10
5.67732
20
-3.54462
11
5.67762
21
-3.5456
0
LINE
8
BLACK
6
CONTINUOUS
10
5.67762
20
-3.5456
11
5.67758
21
-3.54577
0
LINE
8
BLACK
6
CONTINUOUS
10
5.67758
20
-3.54577
11
5.67764
21
-3.54594
0
LINE
8
BLACK
6
CONTINUOUS
10
5.67764
20
-3.54594
11
5.67764
21
-3.55156
0
LINE
8
BLACK
6
CONTINUOUS
10
5.67764
20
-3.55156
11
5.67746
21
-3.55257
0
LINE
8
BLACK
6
CONTINUOUS
10
5.67746
20
-3.55257
11
5.67734
21
-3.55271
0
LINE
8
BLACK
6
CONTINUOUS
10
5.67734
20
-3.55271
11
5.67732
21
-3.55288
0
LINE
8
BLACK
6
CONTINUOUS
10
5.67732
20
-3.55288
11
5.67545
21
-3.55663
0
LINE
8
BLACK
6
CONTINUOUS
10
5.67545
20
-3.55663
11
5.67492
21
-3.55734
0
LINE
8
BLACK
6
CONTINUOUS
10
5.67492
20
-3.55734
11
5.6749
21
-3.5574
0
LINE
8
BLACK
6
CONTINUOUS
10
5.6749
20
-3.5574
11
5.67302
21
-3.55928
0
LINE
8
BLACK
6
CONTINUOUS
10
5.67302
20
-3.55928
11
5.6723
21
-3.55978
0
LINE
8
BLACK
6
CONTINUOUS
10
5.6723
20
-3.55978
11
5.67225
21
-3.55983
0
LINE
8
BLACK
6
CONTINUOUS
10
5.67225
20
-3.55983
11
5.6685
21
-3.5617
0
LINE
8
BLACK
6
CONTINUOUS
10
5.6685
20
-3.5617
11
5.66752
21
-3.562
0
LINE
8
BLACK
6
CONTINUOUS
10
5.66752
20
-3.562
11
5.66735
21
-3.56195
0
LINE
8
BLACK
6
CONTINUOUS
10
5.66735
20
-3.56195
11
5.66718
21
-3.56202
0
LINE
8
BLACK
6
CONTINUOUS
10
5.66718
20
-3.56202
11
5.65514
21
-3.56202
0
LINE
8
BLACK
6
CONTINUOUS
10
5.65514
20
-3.56202
11
5.65514
21
-3.57781
0
LINE
8
BLACK
6
CONTINUOUS
10
5.65514
20
-3.57781
11
5.65496
21
-3.57882
0
LINE
8
BLACK
6
CONTINUOUS
10
5.65496
20
-3.57882
11
5.65366
21
-3.58037
0
LINE
8
BLACK
6
CONTINUOUS
10
5.65366
20
-3.58037
11
5.65167
21
-3.58072
0
LINE
8
BLACK
6
CONTINUOUS
10
5.65167
20
-3.58072
11
5.64992
21
-3.57971
0
LINE
8
BLACK
6
CONTINUOUS
10
5.64992
20
-3.57971
11
5.64923
21
-3.57781
0
LINE
8
BLACK
6
CONTINUOUS
10
5.64923
20
-3.57781
11
5.64923
21
-3.53844
0
LINE
8
BLACK
6
CONTINUOUS
10
5.64923
20
-3.53844
11
5.6493
21
-3.53806
0
LINE
8
BLACK
6
CONTINUOUS
10
5.6493
20
-3.53806
11
5.64928
21
-3.53793
0
LINE
8
BLACK
6
CONTINUOUS
10
5.64928
20
-3.53793
11
5.64934
21
-3.53781
0
LINE
8
BLACK
6
CONTINUOUS
10
5.64934
20
-3.53781
11
5.64941
21
-3.53743
0
LINE
8
BLACK
6
CONTINUOUS
10
5.64941
20
-3.53743
11
5.6499
21
-3.53684
0
LINE
8
BLACK
6
CONTINUOUS
10
5.6499
20
-3.53684
11
5.65029
21
-3.53618
0
LINE
8
BLACK
6
CONTINUOUS
10
5.65029
20
-3.53618
11
5.65054
21
-3.53609
0
LINE
8
BLACK
6
CONTINUOUS
10
5.65054
20
-3.53609
11
5.65071
21
-3.53588
0
LINE
8
BLACK
6
CONTINUOUS
10
5.65071
20
-3.53588
11
5.65147
21
-3.53575
0
LINE
8
BLACK
6
CONTINUOUS
10
5.65147
20
-3.53575
11
5.65219
21
-3.53549
0
LINE
8
BLACK
6
CONTINUOUS
10
5.65219
20
-3.53549
11
5.66718
21
-3.53549
0
LINE
8
BLACK
6
CONTINUOUS
10
5.66718
20
-3.53549
11
5.66819
21
-3.53567
0
LINE
8
BLACK
6
CONTINUOUS
10
5.65514
20
-3.54139
11
5.65514
21
-3.55611
0
LINE
8
BLACK
6
CONTINUOUS
10
5.65514
20
-3.55611
11
5.66649
21
-3.55611
0
LINE
8
BLACK
6
CONTINUOUS
10
5.66649
20
-3.55611
11
5.66918
21
-3.55476
0
LINE
8
BLACK
6
CONTINUOUS
10
5.66918
20
-3.55476
11
5.67038
21
-3.55356
0
LINE
8
BLACK
6
CONTINUOUS
10
5.67038
20
-3.55356
11
5.67173
21
-3.55087
0
LINE
8
BLACK
6
CONTINUOUS
10
5.67173
20
-3.55087
11
5.67173
21
-3.54664
0
LINE
8
BLACK
6
CONTINUOUS
10
5.67173
20
-3.54664
11
5.67038
21
-3.54394
0
LINE
8
BLACK
6
CONTINUOUS
10
5.67038
20
-3.54394
11
5.66918
21
-3.54274
0
LINE
8
BLACK
6
CONTINUOUS
10
5.66918
20
-3.54274
11
5.66649
21
-3.54139
0
LINE
8
BLACK
6
CONTINUOUS
10
5.66649
20
-3.54139
11
5.65514
21
-3.54139
0
LINE
8
BLACK
6
CONTINUOUS
10
5.92695
20
-3.52567
11
5.92708
21
-3.52578
0
LINE
8
BLACK
6
CONTINUOUS
10
5.92708
20
-3.52578
11
5.92726
21
-3.5258
0
LINE
8
BLACK
6
CONTINUOUS
10
5.92726
20
-3.5258
11
5.93101
21
-3.52767
0
LINE
8
BLACK
6
CONTINUOUS
10
5.93101
20
-3.52767
11
5.93183
21
-3.52828
0
LINE
8
BLACK
6
CONTINUOUS
10
5.93183
20
-3.52828
11
5.93264
21
-3.53014
0
LINE
8
BLACK
6
CONTINUOUS
10
5.93264
20
-3.53014
11
5.93206
21
-3.53207
0
LINE
8
BLACK
6
CONTINUOUS
10
5.93206
20
-3.53207
11
5.93037
21
-3.53319
0
LINE
8
BLACK
6
CONTINUOUS
10
5.93037
20
-3.53319
11
5.92837
21
-3.53296
0
LINE
8
BLACK
6
CONTINUOUS
10
5.92837
20
-3.53296
11
5.92524
21
-3.53139
0
LINE
8
BLACK
6
CONTINUOUS
10
5.92524
20
-3.53139
11
5.92079
21
-3.53139
0
LINE
8
BLACK
6
CONTINUOUS
10
5.92079
20
-3.53139
11
5.91629
21
-3.5329
0
LINE
8
BLACK
6
CONTINUOUS
10
5.91629
20
-3.5329
11
5.91337
21
-3.53581
0
LINE
8
BLACK
6
CONTINUOUS
10
5.91337
20
-3.53581
11
5.91185
21
-3.53884
0
LINE
8
BLACK
6
CONTINUOUS
10
5.91185
20
-3.53884
11
5.91014
21
-3.54568
0
LINE
8
BLACK
6
CONTINUOUS
10
5.91014
20
-3.54568
11
5.91014
21
-3.55057
0
LINE
8
BLACK
6
CONTINUOUS
10
5.91014
20
-3.55057
11
5.91185
21
-3.55741
0
LINE
8
BLACK
6
CONTINUOUS
10
5.91185
20
-3.55741
11
5.91337
21
-3.56044
0
LINE
8
BLACK
6
CONTINUOUS
10
5.91337
20
-3.56044
11
5.91629
21
-3.56335
0
LINE
8
BLACK
6
CONTINUOUS
10
5.91629
20
-3.56335
11
5.92079
21
-3.56486
0
LINE
8
BLACK
6
CONTINUOUS
10
5.92079
20
-3.56486
11
5.92359
21
-3.56486
0
LINE
8
BLACK
6
CONTINUOUS
10
5.92359
20
-3.56486
11
5.92809
21
-3.56335
0
LINE
8
BLACK
6
CONTINUOUS
10
5.92809
20
-3.56335
11
5.92861
21
-3.56284
0
LINE
8
BLACK
6
CONTINUOUS
10
5.92861
20
-3.56284
11
5.92861
21
-3.55389
0
LINE
8
BLACK
6
CONTINUOUS
10
5.92861
20
-3.55389
11
5.92406
21
-3.55389
0
LINE
8
BLACK
6
CONTINUOUS
10
5.92406
20
-3.55389
11
5.92305
21
-3.55371
0
LINE
8
BLACK
6
CONTINUOUS
10
5.92305
20
-3.55371
11
5.92151
21
-3.55241
0
LINE
8
BLACK
6
CONTINUOUS
10
5.92151
20
-3.55241
11
5.92116
21
-3.55042
0
LINE
8
BLACK
6
CONTINUOUS
10
5.92116
20
-3.55042
11
5.92217
21
-3.54868
0
LINE
8
BLACK
6
CONTINUOUS
10
5.92217
20
-3.54868
11
5.92406
21
-3.54798
0
LINE
8
BLACK
6
CONTINUOUS
10
5.92406
20
-3.54798
11
5.93156
21
-3.54798
0
LINE
8
BLACK
6
CONTINUOUS
10
5.93156
20
-3.54798
11
5.93195
21
-3.54805
0
LINE
8
BLACK
6
CONTINUOUS
10
5.93195
20
-3.54805
11
5.93208
21
-3.54803
0
LINE
8
BLACK
6
CONTINUOUS
10
5.93208
20
-3.54803
11
5.93219
21
-3.5481
0
LINE
8
BLACK
6
CONTINUOUS
10
5.93219
20
-3.5481
11
5.93257
21
-3.54816
0
LINE
8
BLACK
6
CONTINUOUS
10
5.93257
20
-3.54816
11
5.93316
21
-3.54866
0
LINE
8
BLACK
6
CONTINUOUS
10
5.93316
20
-3.54866
11
5.93383
21
-3.54904
0
LINE
8
BLACK
6
CONTINUOUS
10
5.93383
20
-3.54904
11
5.93392
21
-3.54929
0
LINE
8
BLACK
6
CONTINUOUS
10
5.93392
20
-3.54929
11
5.93412
21
-3.54946
0
LINE
8
BLACK
6
CONTINUOUS
10
5.93412
20
-3.54946
11
5.93425
21
-3.55022
0
LINE
8
BLACK
6
CONTINUOUS
10
5.93425
20
-3.55022
11
5.93452
21
-3.55094
0
LINE
8
BLACK
6
CONTINUOUS
10
5.93452
20
-3.55094
11
5.93452
21
-3.56406
0
LINE
8
BLACK
6
CONTINUOUS
10
5.93452
20
-3.56406
11
5.93448
21
-3.56424
0
LINE
8
BLACK
6
CONTINUOUS
10
5.93448
20
-3.56424
11
5.93451
21
-3.56432
0
LINE
8
BLACK
6
CONTINUOUS
10
5.93451
20
-3.56432
11
5.93445
21
-3.56444
0
LINE
8
BLACK
6
CONTINUOUS
10
5.93445
20
-3.56444
11
5.93434
21
-3.56507
0
LINE
8
BLACK
6
CONTINUOUS
10
5.93434
20
-3.56507
11
5.93392
21
-3.56556
0
LINE
8
BLACK
6
CONTINUOUS
10
5.93392
20
-3.56556
11
5.93365
21
-3.56615
0
LINE
8
BLACK
6
CONTINUOUS
10
5.93365
20
-3.56615
11
5.93178
21
-3.56802
0
LINE
8
BLACK
6
CONTINUOUS
10
5.93178
20
-3.56802
11
5.93094
21
-3.56861
0
LINE
8
BLACK
6
CONTINUOUS
10
5.93094
20
-3.56861
11
5.93076
21
-3.56863
0
LINE
8
BLACK
6
CONTINUOUS
10
5.93076
20
-3.56863
11
5.93062
21
-3.56874
0
LINE
8
BLACK
6
CONTINUOUS
10
5.93062
20
-3.56874
11
5.925
21
-3.57061
0
LINE
8
BLACK
6
CONTINUOUS
10
5.925
20
-3.57061
11
5.92413
21
-3.57074
0
LINE
8
BLACK
6
CONTINUOUS
10
5.92413
20
-3.57074
11
5.92406
21
-3.57076
0
LINE
8
BLACK
6
CONTINUOUS
10
5.92406
20
-3.57076
11
5.92031
21
-3.57076
0
LINE
8
BLACK
6
CONTINUOUS
10
5.92031
20
-3.57076
11
5.91945
21
-3.57061
0
LINE
8
BLACK
6
CONTINUOUS
10
5.91945
20
-3.57061
11
5.91938
21
-3.57061
0
LINE
8
BLACK
6
CONTINUOUS
10
5.91938
20
-3.57061
11
5.91376
21
-3.56874
0
LINE
8
BLACK
6
CONTINUOUS
10
5.91376
20
-3.56874
11
5.91286
21
-3.56825
0
LINE
8
BLACK
6
CONTINUOUS
10
5.91286
20
-3.56825
11
5.91276
21
-3.5681
0
LINE
8
BLACK
6
CONTINUOUS
10
5.91276
20
-3.5681
11
5.9126
21
-3.56802
0
LINE
8
BLACK
6
CONTINUOUS
10
5.9126
20
-3.56802
11
5.90885
21
-3.56427
0
LINE
8
BLACK
6
CONTINUOUS
10
5.90885
20
-3.56427
11
5.90835
21
-3.56355
0
LINE
8
BLACK
6
CONTINUOUS
10
5.90835
20
-3.56355
11
5.9083
21
-3.56351
0
LINE
8
BLACK
6
CONTINUOUS
10
5.9083
20
-3.56351
11
5.90643
21
-3.55976
0
LINE
8
BLACK
6
CONTINUOUS
10
5.90643
20
-3.55976
11
5.90628
21
-3.55927
0
LINE
8
BLACK
6
CONTINUOUS
10
5.90628
20
-3.55927
11
5.9062
21
-3.55915
0
LINE
8
BLACK
6
CONTINUOUS
10
5.9062
20
-3.55915
11
5.90433
21
-3.55165
0
LINE
8
BLACK
6
CONTINUOUS
10
5.90433
20
-3.55165
11
5.90429
21
-3.55107
0
LINE
8
BLACK
6
CONTINUOUS
10
5.90429
20
-3.55107
11
5.90424
21
-3.55094
0
LINE
8
BLACK
6
CONTINUOUS
10
5.90424
20
-3.55094
11
5.90424
21
-3.54531
0
LINE
8
BLACK
6
CONTINUOUS
10
5.90424
20
-3.54531
11
5.90434
21
-3.54473
0
LINE
8
BLACK
6
CONTINUOUS
10
5.90434
20
-3.54473
11
5.90433
21
-3.5446
0
LINE
8
BLACK
6
CONTINUOUS
10
5.90433
20
-3.5446
11
5.9062
21
-3.5371
0
LINE
8
BLACK
6
CONTINUOUS
10
5.9062
20
-3.5371
11
5.90641
21
-3.53663
0
LINE
8
BLACK
6
CONTINUOUS
10
5.90641
20
-3.53663
11
5.90643
21
-3.53649
0
LINE
8
BLACK
6
CONTINUOUS
10
5.90643
20
-3.53649
11
5.9083
21
-3.53274
0
LINE
8
BLACK
6
CONTINUOUS
10
5.9083
20
-3.53274
11
5.90883
21
-3.53203
0
LINE
8
BLACK
6
CONTINUOUS
10
5.90883
20
-3.53203
11
5.90885
21
-3.53198
0
LINE
8
BLACK
6
CONTINUOUS
10
5.90885
20
-3.53198
11
5.9126
21
-3.52823
0
LINE
8
BLACK
6
CONTINUOUS
10
5.9126
20
-3.52823
11
5.91344
21
-3.52764
0
LINE
8
BLACK
6
CONTINUOUS
10
5.91344
20
-3.52764
11
5.91362
21
-3.52762
0
LINE
8
BLACK
6
CONTINUOUS
10
5.91362
20
-3.52762
11
5.91376
21
-3.52751
0
LINE
8
BLACK
6
CONTINUOUS
10
5.91376
20
-3.52751
11
5.91938
21
-3.52564
0
LINE
8
BLACK
6
CONTINUOUS
10
5.91938
20
-3.52564
11
5.92025
21
-3.52551
0
LINE
8
BLACK
6
CONTINUOUS
10
5.92025
20
-3.52551
11
5.92031
21
-3.52549
0
LINE
8
BLACK
6
CONTINUOUS
10
5.92031
20
-3.52549
11
5.92594
21
-3.52549
0
LINE
8
BLACK
6
CONTINUOUS
10
5.92594
20
-3.52549
11
5.92695
21
-3.52567
0
LINE
8
BLACK
6
CONTINUOUS
10
5.9732
20
-3.52654
11
5.97389
21
-3.52844
0
LINE
8
BLACK
6
CONTINUOUS
10
5.97389
20
-3.52844
11
5.97389
21
-3.56781
0
LINE
8
BLACK
6
CONTINUOUS
10
5.97389
20
-3.56781
11
5.97371
21
-3.56882
0
LINE
8
BLACK
6
CONTINUOUS
10
5.97371
20
-3.56882
11
5.97353
21
-3.56903
0
LINE
8
BLACK
6
CONTINUOUS
10
5.97353
20
-3.56903
11
5.97348
21
-3.5693
0
LINE
8
BLACK
6
CONTINUOUS
10
5.97348
20
-3.5693
11
5.9729
21
-3.56978
0
LINE
8
BLACK
6
CONTINUOUS
10
5.9729
20
-3.56978
11
5.97241
21
-3.57037
0
LINE
8
BLACK
6
CONTINUOUS
10
5.97241
20
-3.57037
11
5.97214
21
-3.57041
0
LINE
8
BLACK
6
CONTINUOUS
10
5.97214
20
-3.57041
11
5.97193
21
-3.57059
0
LINE
8
BLACK
6
CONTINUOUS
10
5.97193
20
-3.57059
11
5.97117
21
-3.57059
0
LINE
8
BLACK
6
CONTINUOUS
10
5.97117
20
-3.57059
11
5.97042
21
-3.57072
0
LINE
8
BLACK
6
CONTINUOUS
10
5.97042
20
-3.57072
11
5.97018
21
-3.57058
0
LINE
8
BLACK
6
CONTINUOUS
10
5.97018
20
-3.57058
11
5.96991
21
-3.57058
0
LINE
8
BLACK
6
CONTINUOUS
10
5.96991
20
-3.57058
11
5.96933
21
-3.57009
0
LINE
8
BLACK
6
CONTINUOUS
10
5.96933
20
-3.57009
11
5.96867
21
-3.56971
0
LINE
8
BLACK
6
CONTINUOUS
10
5.96867
20
-3.56971
11
5.96858
21
-3.56945
0
LINE
8
BLACK
6
CONTINUOUS
10
5.96858
20
-3.56945
11
5.96837
21
-3.56928
0
LINE
8
BLACK
6
CONTINUOUS
10
5.96837
20
-3.56928
11
5.95139
21
-3.53956
0
LINE
8
BLACK
6
CONTINUOUS
10
5.95139
20
-3.53956
11
5.95139
21
-3.56781
0
LINE
8
BLACK
6
CONTINUOUS
10
5.95139
20
-3.56781
11
5.95121
21
-3.56882
0
LINE
8
BLACK
6
CONTINUOUS
10
5.95121
20
-3.56882
11
5.94991
21
-3.57037
0
LINE
8
BLACK
6
CONTINUOUS
10
5.94991
20
-3.57037
11
5.94792
21
-3.57072
0
LINE
8
BLACK
6
CONTINUOUS
10
5.94792
20
-3.57072
11
5.94617
21
-3.56971
0
LINE
8
BLACK
6
CONTINUOUS
10
5.94617
20
-3.56971
11
5.94548
21
-3.56781
0
LINE
8
BLACK
6
CONTINUOUS
10
5.94548
20
-3.56781
11
5.94548
21
-3.52844
0
LINE
8
BLACK
6
CONTINUOUS
10
5.94548
20
-3.52844
11
5.94566
21
-3.52743
0
LINE
8
BLACK
6
CONTINUOUS
10
5.94566
20
-3.52743
11
5.94584
21
-3.52722
0
LINE
8
BLACK
6
CONTINUOUS
10
5.94584
20
-3.52722
11
5.94589
21
-3.52695
0
LINE
8
BLACK
6
CONTINUOUS
10
5.94589
20
-3.52695
11
5.94647
21
-3.52647
0
LINE
8
BLACK
6
CONTINUOUS
10
5.94647
20
-3.52647
11
5.94696
21
-3.52588
0
LINE
8
BLACK
6
CONTINUOUS
10
5.94696
20
-3.52588
11
5.94723
21
-3.52584
0
LINE
8
BLACK
6
CONTINUOUS
10
5.94723
20
-3.52584
11
5.94744
21
-3.52566
0
LINE
8
BLACK
6
CONTINUOUS
10
5.94744
20
-3.52566
11
5.9482
21
-3.52566
0
LINE
8
BLACK
6
CONTINUOUS
10
5.9482
20
-3.52566
11
5.94895
21
-3.52553
0
LINE
8
BLACK
6
CONTINUOUS
10
5.94895
20
-3.52553
11
5.94919
21
-3.52567
0
LINE
8
BLACK
6
CONTINUOUS
10
5.94919
20
-3.52567
11
5.94946
21
-3.52567
0
LINE
8
BLACK
6
CONTINUOUS
10
5.94946
20
-3.52567
11
5.95004
21
-3.52616
0
LINE
8
BLACK
6
CONTINUOUS
10
5.95004
20
-3.52616
11
5.9507
21
-3.52654
0
LINE
8
BLACK
6
CONTINUOUS
10
5.9507
20
-3.52654
11
5.95079
21
-3.5268
0
LINE
8
BLACK
6
CONTINUOUS
10
5.95079
20
-3.5268
11
5.951
21
-3.52698
0
LINE
8
BLACK
6
CONTINUOUS
10
5.951
20
-3.52698
11
5.96798
21
-3.55669
0
LINE
8
BLACK
6
CONTINUOUS
10
5.96798
20
-3.55669
11
5.96798
21
-3.52844
0
LINE
8
BLACK
6
CONTINUOUS
10
5.96798
20
-3.52844
11
5.96816
21
-3.52743
0
LINE
8
BLACK
6
CONTINUOUS
10
5.96816
20
-3.52743
11
5.96946
21
-3.52588
0
LINE
8
BLACK
6
CONTINUOUS
10
5.96946
20
-3.52588
11
5.97145
21
-3.52553
0
LINE
8
BLACK
6
CONTINUOUS
10
5.97145
20
-3.52553
11
5.9732
21
-3.52654
0
LINE
8
BLACK
6
CONTINUOUS
10
5.10038
20
-3.24711
11
5.10051
21
-3.24709
0
LINE
8
BLACK
6
CONTINUOUS
10
5.10051
20
-3.24709
11
5.10063
21
-3.24716
0
LINE
8
BLACK
6
CONTINUOUS
10
5.10063
20
-3.24716
11
5.10101
21
-3.24723
0
LINE
8
BLACK
6
CONTINUOUS
10
5.10101
20
-3.24723
11
5.1016
21
-3.24772
0
LINE
8
BLACK
6
CONTINUOUS
10
5.1016
20
-3.24772
11
5.10226
21
-3.2481
0
LINE
8
BLACK
6
CONTINUOUS
10
5.10226
20
-3.2481
11
5.10235
21
-3.24835
0
LINE
8
BLACK
6
CONTINUOUS
10
5.10235
20
-3.24835
11
5.10256
21
-3.24852
0
LINE
8
BLACK
6
CONTINUOUS
10
5.10256
20
-3.24852
11
5.10269
21
-3.24928
0
LINE
8
BLACK
6
CONTINUOUS
10
5.10269
20
-3.24928
11
5.10295
21
-3.25
0
LINE
8
BLACK
6
CONTINUOUS
10
5.10295
20
-3.25
11
5.10295
21
-3.55
0
LINE
8
BLACK
6
CONTINUOUS
10
5.10295
20
-3.55
11
5.10289
21
-3.55038
0
LINE
8
BLACK
6
CONTINUOUS
10
5.10289
20
-3.55038
11
5.10291
21
-3.55051
0
LINE
8
BLACK
6
CONTINUOUS
10
5.10291
20
-3.55051
11
5.10284
21
-3.55063
0
LINE
8
BLACK
6
CONTINUOUS
10
5.10284
20
-3.55063
11
5.10277
21
-3.55101
0
LINE
8
BLACK
6
CONTINUOUS
10
5.10277
20
-3.55101
11
5.10228
21
-3.5516
0
LINE
8
BLACK
6
CONTINUOUS
10
5.10228
20
-3.5516
11
5.1019
21
-3.55226
0
LINE
8
BLACK
6
CONTINUOUS
10
5.1019
20
-3.55226
11
5.10165
21
-3.55235
0
LINE
8
BLACK
6
CONTINUOUS
10
5.10165
20
-3.55235
11
5.10148
21
-3.55256
0
LINE
8
BLACK
6
CONTINUOUS
10
5.10148
20
-3.55256
11
5.10072
21
-3.55269
0
LINE
8
BLACK
6
CONTINUOUS
10
5.10072
20
-3.55269
11
5.1
21
-3.55295
0
LINE
8
BLACK
6
CONTINUOUS
10
5.1
20
-3.55295
11
4.9
21
-3.55295
0
LINE
8
BLACK
6
CONTINUOUS
10
4.9
20
-3.55295
11
4.89962
21
-3.55289
0
LINE
8
BLACK
6
CONTINUOUS
10
4.89962
20
-3.55289
11
4.89949
21
-3.55291
0
LINE
8
BLACK
6
CONTINUOUS
10
4.89949
20
-3.55291
11
4.89937
21
-3.55284
0
LINE
8
BLACK
6
CONTINUOUS
10
4.89937
20
-3.55284
11
4.89899
21
-3.55277
0
LINE
8
BLACK
6
CONTINUOUS
10
4.89899
20
-3.55277
11
4.8984
21
-3.55228
0
LINE
8
BLACK
6
CONTINUOUS
10
4.8984
20
-3.55228
11
4.89774
21
-3.5519
0
LINE
8
BLACK
6
CONTINUOUS
10
4.89774
20
-3.5519
11
4.89765
21
-3.55165
0
LINE
8
BLACK
6
CONTINUOUS
10
4.89765
20
-3.55165
11
4.89744
21
-3.55148
0
LINE
8
BLACK
6
CONTINUOUS
10
4.89744
20
-3.55148
11
4.89731
21
-3.55072
0
LINE
8
BLACK
6
CONTINUOUS
10
4.89731
20
-3.55072
11
4.89705
21
-3.55
0
LINE
8
BLACK
6
CONTINUOUS
10
4.89705
20
-3.55
11
4.89705
21
-3.25
0
LINE
8
BLACK
6
CONTINUOUS
10
4.89705
20
-3.25
11
4.89711
21
-3.24962
0
LINE
8
BLACK
6
CONTINUOUS
10
4.89711
20
-3.24962
11
4.89709
21
-3.24949
0
LINE
8
BLACK
6
CONTINUOUS
10
4.89709
20
-3.24949
11
4.89716
21
-3.24937
0
LINE
8
BLACK
6
CONTINUOUS
10
4.89716
20
-3.24937
11
4.89723
21
-3.24899
0
LINE
8
BLACK
6
CONTINUOUS
10
4.89723
20
-3.24899
11
4.89772
21
-3.2484
0
LINE
8
BLACK
6
CONTINUOUS
10
4.89772
20
-3.2484
11
4.8981
21
-3.24774
0
LINE
8
BLACK
6
CONTINUOUS
10
4.8981
20
-3.24774
11
4.89835
21
-3.24765
0
LINE
8
BLACK
6
CONTINUOUS
10
4.89835
20
-3.24765
11
4.89852
21
-3.24744
0
LINE
8
BLACK
6
CONTINUOUS
10
4.89852
20
-3.24744
11
4.89928
21
-3.24731
0
LINE
8
BLACK
6
CONTINUOUS
10
4.89928
20
-3.24731
11
4.9
21
-3.24705
0
LINE
8
BLACK
6
CONTINUOUS
10
4.9
20
-3.24705
11
5.1
21
-3.24705
0
LINE
8
BLACK
6
CONTINUOUS
10
5.1
20
-3.24705
11
5.10038
21
-3.24711
0
LINE
8
BLACK
6
CONTINUOUS
10
4.90295
20
-3.25295
11
4.90295
21
-3.54705
0
LINE
8
BLACK
6
CONTINUOUS
10
4.90295
20
-3.54705
11
5.09705
21
-3.54705
0
LINE
8
BLACK
6
CONTINUOUS
10
5.09705
20
-3.54705
11
5.09705
21
-3.25295
0
LINE
8
BLACK
6
CONTINUOUS
10
5.09705
20
-3.25295
11
4.90295
21
-3.25295
0
LINE
8
BLACK
6
CONTINUOUS
10
5.13088
20
-3.51065
11
5.13102
21
-3.51076
0
LINE
8
BLACK
6
CONTINUOUS
10
5.13102
20
-3.51076
11
5.13119
21
-3.51078
0
LINE
8
BLACK
6
CONTINUOUS
10
5.13119
20
-3.51078
11
5.13494
21
-3.51266
0
LINE
8
BLACK
6
CONTINUOUS
10
5.13494
20
-3.51266
11
5.13565
21
-3.51318
0
LINE
8
BLACK
6
CONTINUOUS
10
5.13565
20
-3.51318
11
5.13571
21
-3.51321
0
LINE
8
BLACK
6
CONTINUOUS
10
5.13571
20
-3.51321
11
5.13758
21
-3.51508
0
LINE
8
BLACK
6
CONTINUOUS
10
5.13758
20
-3.51508
11
5.13809
21
-3.51581
0
LINE
8
BLACK
6
CONTINUOUS
10
5.13809
20
-3.51581
11
5.13814
21
-3.51585
0
LINE
8
BLACK
6
CONTINUOUS
10
5.13814
20
-3.51585
11
5.14001
21
-3.5196
0
LINE
8
BLACK
6
CONTINUOUS
10
5.14001
20
-3.5196
11
5.1403
21
-3.52058
0
LINE
8
BLACK
6
CONTINUOUS
10
5.1403
20
-3.52058
11
5.14026
21
-3.52076
0
LINE
8
BLACK
6
CONTINUOUS
10
5.14026
20
-3.52076
11
5.14032
21
-3.52092
0
LINE
8
BLACK
6
CONTINUOUS
10
5.14032
20
-3.52092
11
5.14032
21
-3.53297
0
LINE
8
BLACK
6
CONTINUOUS
10
5.14032
20
-3.53297
11
5.15612
21
-3.53297
0
LINE
8
BLACK
6
CONTINUOUS
10
5.15612
20
-3.53297
11
5.15713
21
-3.53315
0
LINE
8
BLACK
6
CONTINUOUS
10
5.15713
20
-3.53315
11
5.15867
21
-3.53444
0
LINE
8
BLACK
6
CONTINUOUS
10
5.15867
20
-3.53444
11
5.15903
21
-3.53643
0
LINE
8
BLACK
6
CONTINUOUS
10
5.15903
20
-3.53643
11
5.15802
21
-3.53818
0
LINE
8
BLACK
6
CONTINUOUS
10
5.15802
20
-3.53818
11
5.15612
21
-3.53887
0
LINE
8
BLACK
6
CONTINUOUS
10
5.15612
20
-3.53887
11
5.11675
21
-3.53887
0
LINE
8
BLACK
6
CONTINUOUS
10
5.11675
20
-3.53887
11
5.11636
21
-3.53881
0
LINE
8
BLACK
6
CONTINUOUS
10
5.11636
20
-3.53881
11
5.11623
21
-3.53883
0
LINE
8
BLACK
6
CONTINUOUS
10
5.11623
20
-3.53883
11
5.11612
21
-3.53876
0
LINE
8
BLACK
6
CONTINUOUS
10
5.11612
20
-3.53876
11
5.11574
21
-3.5387
0
LINE
8
BLACK
6
CONTINUOUS
10
5.11574
20
-3.5387
11
5.11515
21
-3.5382
0
LINE
8
BLACK
6
CONTINUOUS
10
5.11515
20
-3.5382
11
5.11449
21
-3.53782
0
LINE
8
BLACK
6
CONTINUOUS
10
5.11449
20
-3.53782
11
5.11439
21
-3.53757
0
LINE
8
BLACK
6
CONTINUOUS
10
5.11439
20
-3.53757
11
5.11419
21
-3.5374
0
LINE
8
BLACK
6
CONTINUOUS
10
5.11419
20
-3.5374
11
5.11406
21
-3.53664
0
LINE
8
BLACK
6
CONTINUOUS
10
5.11406
20
-3.53664
11
5.11379
21
-3.53592
0
LINE
8
BLACK
6
CONTINUOUS
10
5.11379
20
-3.53592
11
5.11379
21
-3.52092
0
LINE
8
BLACK
6
CONTINUOUS
10
5.11379
20
-3.52092
11
5.11397
21
-3.51991
0
LINE
8
BLACK
6
CONTINUOUS
10
5.11397
20
-3.51991
11
5.11409
21
-3.51978
0
LINE
8
BLACK
6
CONTINUOUS
10
5.11409
20
-3.51978
11
5.11411
21
-3.5196
0
LINE
8
BLACK
6
CONTINUOUS
10
5.11411
20
-3.5196
11
5.11598
21
-3.51585
0
LINE
8
BLACK
6
CONTINUOUS
10
5.11598
20
-3.51585
11
5.11651
21
-3.51514
0
LINE
8
BLACK
6
CONTINUOUS
10
5.11651
20
-3.51514
11
5.11653
21
-3.51508
0
LINE
8
BLACK
6
CONTINUOUS
10
5.11653
20
-3.51508
11
5.11841
21
-3.51321
0
LINE
8
BLACK
6
CONTINUOUS
10
5.11841
20
-3.51321
11
5.11913
21
-3.5127
0
LINE
8
BLACK
6
CONTINUOUS
10
5.11913
20
-3.5127
11
5.11918
21
-3.51266
0
LINE
8
BLACK
6
CONTINUOUS
10
5.11918
20
-3.51266
11
5.12293
21
-3.51078
0
LINE
8
BLACK
6
CONTINUOUS
10
5.12293
20
-3.51078
11
5.12391
21
-3.51049
0
LINE
8
BLACK
6
CONTINUOUS
10
5.12391
20
-3.51049
11
5.12408
21
-3.51053
0
LINE
8
BLACK
6
CONTINUOUS
10
5.12408
20
-3.51053
11
5.12425
21
-3.51047
0
LINE
8
BLACK
6
CONTINUOUS
10
5.12425
20
-3.51047
11
5.12987
21
-3.51047
0
LINE
8
BLACK
6
CONTINUOUS
10
5.12987
20
-3.51047
11
5.13088
21
-3.51065
0
LINE
8
BLACK
6
CONTINUOUS
10
5.12494
20
-3.51638
11
5.12225
21
-3.51772
0
LINE
8
BLACK
6
CONTINUOUS
10
5.12225
20
-3.51772
11
5.12105
21
-3.51892
0
LINE
8
BLACK
6
CONTINUOUS
10
5.12105
20
-3.51892
11
5.1197
21
-3.52162
0
LINE
8
BLACK
6
CONTINUOUS
10
5.1197
20
-3.52162
11
5.1197
21
-3.53297
0
LINE
8
BLACK
6
CONTINUOUS
10
5.1197
20
-3.53297
11
5.13442
21
-3.53297
0
LINE
8
BLACK
6
CONTINUOUS
10
5.13442
20
-3.53297
11
5.13442
21
-3.52162
0
LINE
8
BLACK
6
CONTINUOUS
10
5.13442
20
-3.52162
11
5.13307
21
-3.51892
0
LINE
8
BLACK
6
CONTINUOUS
10
5.13307
20
-3.51892
11
5.13187
21
-3.51772
0
LINE
8
BLACK
6
CONTINUOUS
10
5.13187
20
-3.51772
11
5.12917
21
-3.51638
0
LINE
8
BLACK
6
CONTINUOUS
10
5.12917
20
-3.51638
11
5.12494
21
-3.51638
0
LINE
8
BLACK
6
CONTINUOUS
10
5.22177
20
-3.50309
11
5.22246
21
-3.50499
0
LINE
8
BLACK
6
CONTINUOUS
10
5.22246
20
-3.50499
11
5.22246
21
-3.52748
0
LINE
8
BLACK
6
CONTINUOUS
10
5.22246
20
-3.52748
11
5.22228
21
-3.52849
0
LINE
8
BLACK
6
CONTINUOUS
10
5.22228
20
-3.52849
11
5.22098
21
-3.53004
0
LINE
8
BLACK
6
CONTINUOUS
10
5.22098
20
-3.53004
11
5.21899
21
-3.53039
0
LINE
8
BLACK
6
CONTINUOUS
10
5.21899
20
-3.53039
11
5.21724
21
-3.52938
0
LINE
8
BLACK
6
CONTINUOUS
10
5.21724
20
-3.52938
11
5.21655
21
-3.52748
0
LINE
8
BLACK
6
CONTINUOUS
10
5.21655
20
-3.52748
11
5.21655
21
-3.51919
0
LINE
8
BLACK
6
CONTINUOUS
10
5.21655
20
-3.51919
11
5.18914
21
-3.51919
0
LINE
8
BLACK
6
CONTINUOUS
10
5.18914
20
-3.51919
11
5.19159
21
-3.52165
0
LINE
8
BLACK
6
CONTINUOUS
10
5.19159
20
-3.52165
11
5.1921
21
-3.52237
0
LINE
8
BLACK
6
CONTINUOUS
10
5.1921
20
-3.52237
11
5.19215
21
-3.52241
0
LINE
8
BLACK
6
CONTINUOUS
10
5.19215
20
-3.52241
11
5.19402
21
-3.52616
0
LINE
8
BLACK
6
CONTINUOUS
10
5.19402
20
-3.52616
11
5.19432
21
-3.52715
0
LINE
8
BLACK
6
CONTINUOUS
10
5.19432
20
-3.52715
11
5.19385
21
-3.52911
0
LINE
8
BLACK
6
CONTINUOUS
10
5.19385
20
-3.52911
11
5.19222
21
-3.53031
0
LINE
8
BLACK
6
CONTINUOUS
10
5.19222
20
-3.53031
11
5.19021
21
-3.53019
0
LINE
8
BLACK
6
CONTINUOUS
10
5.19021
20
-3.53019
11
5.18874
21
-3.5288
0
LINE
8
BLACK
6
CONTINUOUS
10
5.18874
20
-3.5288
11
5.18708
21
-3.52548
0
LINE
8
BLACK
6
CONTINUOUS
10
5.18708
20
-3.52548
11
5.18388
21
-3.52228
0
LINE
8
BLACK
6
CONTINUOUS
10
5.18388
20
-3.52228
11
5.1785
21
-3.51869
0
LINE
8
BLACK
6
CONTINUOUS
10
5.1785
20
-3.51869
11
5.17775
21
-3.51798
0
LINE
8
BLACK
6
CONTINUOUS
10
5.17775
20
-3.51798
11
5.17771
21
-3.51782
0
LINE
8
BLACK
6
CONTINUOUS
10
5.17771
20
-3.51782
11
5.17758
21
-3.51771
0
LINE
8
BLACK
6
CONTINUOUS
10
5.17758
20
-3.51771
11
5.17743
21
-3.51687
0
LINE
8
BLACK
6
CONTINUOUS
10
5.17743
20
-3.51687
11
5.17719
21
-3.51605
0
LINE
8
BLACK
6
CONTINUOUS
10
5.17719
20
-3.51605
11
5.17725
21
-3.51589
0
LINE
8
BLACK
6
CONTINUOUS
10
5.17725
20
-3.51589
11
5.17723
21
-3.51572
0
LINE
8
BLACK
6
CONTINUOUS
10
5.17723
20
-3.51572
11
5.17765
21
-3.51498
0
LINE
8
BLACK
6
CONTINUOUS
10
5.17765
20
-3.51498
11
5.178
21
-3.5142
0
LINE
8
BLACK
6
CONTINUOUS
10
5.178
20
-3.5142
11
5.17815
21
-3.51412
0
LINE
8
BLACK
6
CONTINUOUS
10
5.17815
20
-3.51412
11
5.17824
21
-3.51397
0
LINE
8
BLACK
6
CONTINUOUS
10
5.17824
20
-3.51397
11
5.17904
21
-3.51368
0
LINE
8
BLACK
6
CONTINUOUS
10
5.17904
20
-3.51368
11
5.17981
21
-3.5133
0
LINE
8
BLACK
6
CONTINUOUS
10
5.17981
20
-3.5133
11
5.17997
21
-3.51334
0
LINE
8
BLACK
6
CONTINUOUS
10
5.17997
20
-3.51334
11
5.18013
21
-3.51328
0
LINE
8
BLACK
6
CONTINUOUS
10
5.18013
20
-3.51328
11
5.21655
21
-3.51328
0
LINE
8
BLACK
6
CONTINUOUS
10
5.21655
20
-3.51328
11
5.21655
21
-3.50499
0
LINE
8
BLACK
6
CONTINUOUS
10
5.21655
20
-3.50499
11
5.21673
21
-3.50398
0
LINE
8
BLACK
6
CONTINUOUS
10
5.21673
20
-3.50398
11
5.21803
21
-3.50243
0
LINE
8
BLACK
6
CONTINUOUS
10
5.21803
20
-3.50243
11
5.22002
21
-3.50208
0
LINE
8
BLACK
6
CONTINUOUS
10
5.22002
20
-3.50208
11
5.22177
21
-3.50309
0
LINE
8
BLACK
6
CONTINUOUS
10
5.59681
20
-3.5301
11
5.59526
21
-3.5288
0
LINE
8
BLACK
6
CONTINUOUS
10
5.59526
20
-3.5288
11
5.59491
21
-3.52681
0
LINE
8
BLACK
6
CONTINUOUS
10
5.59491
20
-3.52681
11
5.59592
21
-3.52506
0
LINE
8
BLACK
6
CONTINUOUS
10
5.59592
20
-3.52506
11
5.59782
21
-3.52437
0
LINE
8
BLACK
6
CONTINUOUS
10
5.59782
20
-3.52437
11
5.68218
21
-3.52437
0
LINE
8
BLACK
6
CONTINUOUS
10
5.68218
20
-3.52437
11
5.68319
21
-3.52455
0
LINE
8
BLACK
6
CONTINUOUS
10
5.68319
20
-3.52455
11
5.68474
21
-3.52585
0
LINE
8
BLACK
6
CONTINUOUS
10
5.68474
20
-3.52585
11
5.68509
21
-3.52784
0
LINE
8
BLACK
6
CONTINUOUS
10
5.68509
20
-3.52784
11
5.68408
21
-3.52958
0
LINE
8
BLACK
6
CONTINUOUS
10
5.68408
20
-3.52958
11
5.68218
21
-3.53028
0
LINE
8
BLACK
6
CONTINUOUS
10
5.68218
20
-3.53028
11
5.59782
21
-3.53028
0
LINE
8
BLACK
6
CONTINUOUS
10
5.59782
20
-3.53028
11
5.59681
21
-3.5301
0
LINE
8
BLACK
6
CONTINUOUS
10
5.14357
20
-3.46933
11
5.14371
21
-3.46931
0
LINE
8
BLACK
6
CONTINUOUS
10
5.14371
20
-3.46931
11
5.15121
21
-3.47119
0
LINE
8
BLACK
6
CONTINUOUS
10
5.15121
20
-3.47119
11
5.15215
21
-3.47161
0
LINE
8
BLACK
6
CONTINUOUS
10
5.15215
20
-3.47161
11
5.15232
21
-3.47184
0
LINE
8
BLACK
6
CONTINUOUS
10
5.15232
20
-3.47184
11
5.15258
21
-3.47197
0
LINE
8
BLACK
6
CONTINUOUS
10
5.15258
20
-3.47197
11
5.15633
21
-3.47571
0
LINE
8
BLACK
6
CONTINUOUS
10
5.15633
20
-3.47571
11
5.15684
21
-3.47644
0
LINE
8
BLACK
6
CONTINUOUS
10
5.15684
20
-3.47644
11
5.15688
21
-3.47648
0
LINE
8
BLACK
6
CONTINUOUS
10
5.15688
20
-3.47648
11
5.15876
21
-3.48023
0
LINE
8
BLACK
6
CONTINUOUS
10
5.15876
20
-3.48023
11
5.15905
21
-3.48121
0
LINE
8
BLACK
6
CONTINUOUS
10
5.15905
20
-3.48121
11
5.15901
21
-3.48139
0
LINE
8
BLACK
6
CONTINUOUS
10
5.15901
20
-3.48139
11
5.15907
21
-3.48155
0
LINE
8
BLACK
6
CONTINUOUS
10
5.15907
20
-3.48155
11
5.15907
21
-3.48905
0
LINE
8
BLACK
6
CONTINUOUS
10
5.15907
20
-3.48905
11
5.15889
21
-3.49006
0
LINE
8
BLACK
6
CONTINUOUS
10
5.15889
20
-3.49006
11
5.15878
21
-3.4902
0
LINE
8
BLACK
6
CONTINUOUS
10
5.15878
20
-3.4902
11
5.15876
21
-3.49037
0
LINE
8
BLACK
6
CONTINUOUS
10
5.15876
20
-3.49037
11
5.15688
21
-3.49412
0
LINE
8
BLACK
6
CONTINUOUS
10
5.15688
20
-3.49412
11
5.15636
21
-3.49483
0
LINE
8
BLACK
6
CONTINUOUS
10
5.15636
20
-3.49483
11
5.15633
21
-3.49489
0
LINE
8
BLACK
6
CONTINUOUS
10
5.15633
20
-3.49489
11
5.15258
21
-3.49864
0
LINE
8
BLACK
6
CONTINUOUS
10
5.15258
20
-3.49864
11
5.15174
21
-3.49923
0
LINE
8
BLACK
6
CONTINUOUS
10
5.15174
20
-3.49923
11
5.15145
21
-3.49925
0
LINE
8
BLACK
6
CONTINUOUS
10
5.15145
20
-3.49925
11
5.15121
21
-3.49941
0
LINE
8
BLACK
6
CONTINUOUS
10
5.15121
20
-3.49941
11
5.14371
21
-3.50129
0
LINE
8
BLACK
6
CONTINUOUS
10
5.14371
20
-3.50129
11
5.14312
21
-3.50133
0
LINE
8
BLACK
6
CONTINUOUS
10
5.14312
20
-3.50133
11
5.14299
21
-3.50138
0
LINE
8
BLACK
6
CONTINUOUS
10
5.14299
20
-3.50138
11
5.12987
21
-3.50138
0
LINE
8
BLACK
6
CONTINUOUS
10
5.12987
20
-3.50138
11
5.12929
21
-3.50128
0
LINE
8
BLACK
6
CONTINUOUS
10
5.12929
20
-3.50128
11
5.12915
21
-3.50129
0
LINE
8
BLACK
6
CONTINUOUS
10
5.12915
20
-3.50129
11
5.12166
21
-3.49941
0
LINE
8
BLACK
6
CONTINUOUS
10
5.12166
20
-3.49941
11
5.12072
21
-3.499
0
LINE
8
BLACK
6
CONTINUOUS
10
5.12072
20
-3.499
11
5.12055
21
-3.49876
0
LINE
8
BLACK
6
CONTINUOUS
10
5.12055
20
-3.49876
11
5.12028
21
-3.49864
0
LINE
8
BLACK
6
CONTINUOUS
10
5.12028
20
-3.49864
11
5.11653
21
-3.49489
0
LINE
8
BLACK
6
CONTINUOUS
10
5.11653
20
-3.49489
11
5.11603
21
-3.49417
0
LINE
8
BLACK
6
CONTINUOUS
10
5.11603
20
-3.49417
11
5.11598
21
-3.49412
0
LINE
8
BLACK
6
CONTINUOUS
10
5.11598
20
-3.49412
11
5.11411
21
-3.49037
0
LINE
8
BLACK
6
CONTINUOUS
10
5.11411
20
-3.49037
11
5.11381
21
-3.48939
0
LINE
8
BLACK
6
CONTINUOUS
10
5.11381
20
-3.48939
11
5.11385
21
-3.48922
0
LINE
8
BLACK
6
CONTINUOUS
10
5.11385
20
-3.48922
11
5.11379
21
-3.48905
0
LINE
8
BLACK
6
CONTINUOUS
10
5.11379
20
-3.48905
11
5.11379
21
-3.48155
0
LINE
8
BLACK
6
CONTINUOUS
10
5.11379
20
-3.48155
11
5.11397
21
-3.48054
0
LINE
8
BLACK
6
CONTINUOUS
10
5.11397
20
-3.48054
11
5.11409
21
-3.48041
0
LINE
8
BLACK
6
CONTINUOUS
10
5.11409
20
-3.48041
11
5.11411
21
-3.48023
0
LINE
8
BLACK
6
CONTINUOUS
10
5.11411
20
-3.48023
11
5.11598
21
-3.47648
0
LINE
8
BLACK
6
CONTINUOUS
10
5.11598
20
-3.47648
11
5.11651
21
-3.47577
0
LINE
8
BLACK
6
CONTINUOUS
10
5.11651
20
-3.47577
11
5.11653
21
-3.47571
0
LINE
8
BLACK
6
CONTINUOUS
10
5.11653
20
-3.47571
11
5.12028
21
-3.47197
0
LINE
8
BLACK
6
CONTINUOUS
10
5.12028
20
-3.47197
11
5.12112
21
-3.47138
0
LINE
8
BLACK
6
CONTINUOUS
10
5.12112
20
-3.47138
11
5.12141
21
-3.47135
0
LINE
8
BLACK
6
CONTINUOUS
10
5.12141
20
-3.47135
11
5.12166
21
-3.47119
0
LINE
8
BLACK
6
CONTINUOUS
10
5.12166
20
-3.47119
11
5.12915
21
-3.46931
0
LINE
8
BLACK
6
CONTINUOUS
10
5.12915
20
-3.46931
11
5.12974
21
-3.46927
0
LINE
8
BLACK
6
CONTINUOUS
10
5.12974
20
-3.46927
11
5.12987
21
-3.46923
0
LINE
8
BLACK
6
CONTINUOUS
10
5.12987
20
-3.46923
11
5.14299
21
-3.46923
0
LINE
8
BLACK
6
CONTINUOUS
10
5.14299
20
-3.46923
11
5.14357
21
-3.46933
0
LINE
8
BLACK
6
CONTINUOUS
10
5.13023
20
-3.47513
11
5.12388
21
-3.47672
0
LINE
8
BLACK
6
CONTINUOUS
10
5.12388
20
-3.47672
11
5.12105
21
-3.47955
0
LINE
8
BLACK
6
CONTINUOUS
10
5.12105
20
-3.47955
11
5.1197
21
-3.48225
0
LINE
8
BLACK
6
CONTINUOUS
10
5.1197
20
-3.48225
11
5.1197
21
-3.48835
0
LINE
8
BLACK
6
CONTINUOUS
10
5.1197
20
-3.48835
11
5.12105
21
-3.49105
0
LINE
8
BLACK
6
CONTINUOUS
10
5.12105
20
-3.49105
11
5.12388
21
-3.49388
0
LINE
8
BLACK
6
CONTINUOUS
10
5.12388
20
-3.49388
11
5.13023
21
-3.49547
0
LINE
8
BLACK
6
CONTINUOUS
10
5.13023
20
-3.49547
11
5.14263
21
-3.49547
0
LINE
8
BLACK
6
CONTINUOUS
10
5.14263
20
-3.49547
11
5.14898
21
-3.49388
0
LINE
8
BLACK
6
CONTINUOUS
10
5.14898
20
-3.49388
11
5.15182
21
-3.49105
0
LINE
8
BLACK
6
CONTINUOUS
10
5.15182
20
-3.49105
11
5.15316
21
-3.48835
0
LINE
8
BLACK
6
CONTINUOUS
10
5.15316
20
-3.48835
11
5.15316
21
-3.48225
0
LINE
8
BLACK
6
CONTINUOUS
10
5.15316
20
-3.48225
11
5.15182
21
-3.47955
0
LINE
8
BLACK
6
CONTINUOUS
10
5.15182
20
-3.47955
11
5.14898
21
-3.47672
0
LINE
8
BLACK
6
CONTINUOUS
10
5.14898
20
-3.47672
11
5.14263
21
-3.47513
0
LINE
8
BLACK
6
CONTINUOUS
10
5.14263
20
-3.47513
11
5.13023
21
-3.47513
0
LINE
8
BLACK
6
CONTINUOUS
10
5.21813
20
-3.48341
11
5.21839
21
-3.48339
0
LINE
8
BLACK
6
CONTINUOUS
10
5.21839
20
-3.48339
11
5.21902
21
-3.48383
0
LINE
8
BLACK
6
CONTINUOUS
10
5.21902
20
-3.48383
11
5.21972
21
-3.48415
0
LINE
8
BLACK
6
CONTINUOUS
10
5.21972
20
-3.48415
11
5.22159
21
-3.48603
0
LINE
8
BLACK
6
CONTINUOUS
10
5.22159
20
-3.48603
11
5.22181
21
-3.48635
0
LINE
8
BLACK
6
CONTINUOUS
10
5.22181
20
-3.48635
11
5.22192
21
-3.48642
0
LINE
8
BLACK
6
CONTINUOUS
10
5.22192
20
-3.48642
11
5.22196
21
-3.48655
0
LINE
8
BLACK
6
CONTINUOUS
10
5.22196
20
-3.48655
11
5.22196
21
-3.48655
0
LINE
8
BLACK
6
CONTINUOUS
10
5.22196
20
-3.48655
11
5.22206
21
-3.48664
0
LINE
8
BLACK
6
CONTINUOUS
10
5.22206
20
-3.48664
11
5.22207
21
-3.48672
0
LINE
8
BLACK
6
CONTINUOUS
10
5.22207
20
-3.48672
11
5.22218
21
-3.48687
0
LINE
8
BLACK
6
CONTINUOUS
10
5.22218
20
-3.48687
11
5.22225
21
-3.48763
0
LINE
8
BLACK
6
CONTINUOUS
10
5.22225
20
-3.48763
11
5.22244
21
-3.48837
0
LINE
8
BLACK
6
CONTINUOUS
10
5.22244
20
-3.48837
11
5.22239
21
-3.48849
0
LINE
8
BLACK
6
CONTINUOUS
10
5.22239
20
-3.48849
11
5.22241
21
-3.48863
0
LINE
8
BLACK
6
CONTINUOUS
10
5.22241
20
-3.48863
11
5.22234
21
-3.48874
0
LINE
8
BLACK
6
CONTINUOUS
10
5.22234
20
-3.48874
11
5.22236
21
-3.48888
0
LINE
8
BLACK
6
CONTINUOUS
10
5.22236
20
-3.48888
11
5.22192
21
-3.48951
0
LINE
8
BLACK
6
CONTINUOUS
10
5.22192
20
-3.48951
11
5.22159
21
-3.4902
0
LINE
8
BLACK
6
CONTINUOUS
10
5.22159
20
-3.4902
11
5.21972
21
-3.49208
0
LINE
8
BLACK
6
CONTINUOUS
10
5.21972
20
-3.49208
11
5.2194
21
-3.4923
0
LINE
8
BLACK
6
CONTINUOUS
10
5.2194
20
-3.4923
11
5.21932
21
-3.49241
0
LINE
8
BLACK
6
CONTINUOUS
10
5.21932
20
-3.49241
11
5.2192
21
-3.49244
0
LINE
8
BLACK
6
CONTINUOUS
10
5.2192
20
-3.49244
11
5.21888
21
-3.49266
0
LINE
8
BLACK
6
CONTINUOUS
10
5.21888
20
-3.49266
11
5.21811
21
-3.49273
0
LINE
8
BLACK
6
CONTINUOUS
10
5.21811
20
-3.49273
11
5.21737
21
-3.49293
0
LINE
8
BLACK
6
CONTINUOUS
10
5.21737
20
-3.49293
11
5.21713
21
-3.49282
0
LINE
8
BLACK
6
CONTINUOUS
10
5.21713
20
-3.49282
11
5.21686
21
-3.49284
0
LINE
8
BLACK
6
CONTINUOUS
10
5.21686
20
-3.49284
11
5.21624
21
-3.4924
0
LINE
8
BLACK
6
CONTINUOUS
10
5.21624
20
-3.4924
11
5.21554
21
-3.49208
0
LINE
8
BLACK
6
CONTINUOUS
10
5.21554
20
-3.49208
11
5.21367
21
-3.4902
0
LINE
8
BLACK
6
CONTINUOUS
10
5.21367
20
-3.4902
11
5.21344
21
-3.48988
0
LINE
8
BLACK
6
CONTINUOUS
10
5.21344
20
-3.48988
11
5.21333
21
-3.48981
0
LINE
8
BLACK
6
CONTINUOUS
10
5.21333
20
-3.48981
11
5.2133
21
-3.48968
0
LINE
8
BLACK
6
CONTINUOUS
10
5.2133
20
-3.48968
11
5.2133
21
-3.48967
0
LINE
8
BLACK
6
CONTINUOUS
10
5.2133
20
-3.48967
11
5.2132
21
-3.48959
0
LINE
8
BLACK
6
CONTINUOUS
10
5.2132
20
-3.48959
11
5.21318
21
-3.48951
0
LINE
8
BLACK
6
CONTINUOUS
10
5.21318
20
-3.48951
11
5.21308
21
-3.48936
0
LINE
8
BLACK
6
CONTINUOUS
10
5.21308
20
-3.48936
11
5.21301
21
-3.4886
0
LINE
8
BLACK
6
CONTINUOUS
10
5.21301
20
-3.4886
11
5.21281
21
-3.48786
0
LINE
8
BLACK
6
CONTINUOUS
10
5.21281
20
-3.48786
11
5.21287
21
-3.48773
0
LINE
8
BLACK
6
CONTINUOUS
10
5.21287
20
-3.48773
11
5.21285
21
-3.4876
0
LINE
8
BLACK
6
CONTINUOUS
10
5.21285
20
-3.4876
11
5.21291
21
-3.48748
0
LINE
8
BLACK
6
CONTINUOUS
10
5.21291
20
-3.48748
11
5.2129
21
-3.48735
0
LINE
8
BLACK
6
CONTINUOUS
10
5.2129
20
-3.48735
11
5.21334
21
-3.48672
0
LINE
8
BLACK
6
CONTINUOUS
10
5.21334
20
-3.48672
11
5.21367
21
-3.48603
0
LINE
8
BLACK
6
CONTINUOUS
10
5.21367
20
-3.48603
11
5.21554
21
-3.48415
0
LINE
8
BLACK
6
CONTINUOUS
10
5.21554
20
-3.48415
11
5.21586
21
-3.48393
0
LINE
8
BLACK
6
CONTINUOUS
10
5.21586
20
-3.48393
11
5.21593
21
-3.48382
0
LINE
8
BLACK
6
CONTINUOUS
10
5.21593
20
-3.48382
11
5.21606
21
-3.48379
0
LINE
8
BLACK
6
CONTINUOUS
10
5.21606
20
-3.48379
11
5.21638
21
-3.48356
0
LINE
8
BLACK
6
CONTINUOUS
10
5.21638
20
-3.48356
11
5.21714
21
-3.4835
0
LINE
8
BLACK
6
CONTINUOUS
10
5.21714
20
-3.4835
11
5.21789
21
-3.4833
0
LINE
8
BLACK
6
CONTINUOUS
10
5.21789
20
-3.4833
11
5.21813
21
-3.48341
0
LINE
8
BLACK
6
CONTINUOUS
10
5.66618
20
-3.43564
11
5.66624
21
-3.43564
0
LINE
8
BLACK
6
CONTINUOUS
10
5.66624
20
-3.43564
11
5.67187
21
-3.43751
0
LINE
8
BLACK
6
CONTINUOUS
10
5.67187
20
-3.43751
11
5.67277
21
-3.438
0
LINE
8
BLACK
6
CONTINUOUS
10
5.67277
20
-3.438
11
5.67383
21
-3.43972
0
LINE
8
BLACK
6
CONTINUOUS
10
5.67383
20
-3.43972
11
5.67353
21
-3.44172
0
LINE
8
BLACK
6
CONTINUOUS
10
5.67353
20
-3.44172
11
5.67202
21
-3.44306
0
LINE
8
BLACK
6
CONTINUOUS
10
5.67202
20
-3.44306
11
5.67
21
-3.44312
0
LINE
8
BLACK
6
CONTINUOUS
10
5.67
20
-3.44312
11
5.66483
21
-3.44139
0
LINE
8
BLACK
6
CONTINUOUS
10
5.66483
20
-3.44139
11
5.65663
21
-3.44139
0
LINE
8
BLACK
6
CONTINUOUS
10
5.65663
20
-3.44139
11
5.65393
21
-3.44274
0
LINE
8
BLACK
6
CONTINUOUS
10
5.65393
20
-3.44274
11
5.65274
21
-3.44394
0
LINE
8
BLACK
6
CONTINUOUS
10
5.65274
20
-3.44394
11
5.65139
21
-3.44664
0
LINE
8
BLACK
6
CONTINUOUS
10
5.65139
20
-3.44664
11
5.65139
21
-3.44899
0
LINE
8
BLACK
6
CONTINUOUS
10
5.65139
20
-3.44899
11
5.65274
21
-3.45169
0
LINE
8
BLACK
6
CONTINUOUS
10
5.65274
20
-3.45169
11
5.65394
21
-3.45289
0
LINE
8
BLACK
6
CONTINUOUS
10
5.65394
20
-3.45289
11
5.65697
21
-3.4544
0
LINE
8
BLACK
6
CONTINUOUS
10
5.65697
20
-3.4544
11
5.66415
21
-3.4562
0
LINE
8
BLACK
6
CONTINUOUS
10
5.66415
20
-3.4562
11
5.66462
21
-3.45641
0
LINE
8
BLACK
6
CONTINUOUS
10
5.66462
20
-3.45641
11
5.66476
21
-3.45642
0
LINE
8
BLACK
6
CONTINUOUS
10
5.66476
20
-3.45642
11
5.6685
21
-3.4583
0
LINE
8
BLACK
6
CONTINUOUS
10
5.6685
20
-3.4583
11
5.66921
21
-3.45882
0
LINE
8
BLACK
6
CONTINUOUS
10
5.66921
20
-3.45882
11
5.66927
21
-3.45885
0
LINE
8
BLACK
6
CONTINUOUS
10
5.66927
20
-3.45885
11
5.67115
21
-3.46072
0
LINE
8
BLACK
6
CONTINUOUS
10
5.67115
20
-3.46072
11
5.67165
21
-3.46145
0
LINE
8
BLACK
6
CONTINUOUS
10
5.67165
20
-3.46145
11
5.6717
21
-3.46149
0
LINE
8
BLACK
6
CONTINUOUS
10
5.6717
20
-3.46149
11
5.67357
21
-3.46524
0
LINE
8
BLACK
6
CONTINUOUS
10
5.67357
20
-3.46524
11
5.67387
21
-3.46622
0
LINE
8
BLACK
6
CONTINUOUS
10
5.67387
20
-3.46622
11
5.67383
21
-3.4664
0
LINE
8
BLACK
6
CONTINUOUS
10
5.67383
20
-3.4664
11
5.67389
21
-3.46656
0
LINE
8
BLACK
6
CONTINUOUS
10
5.67389
20
-3.46656
11
5.67389
21
-3.47031
0
LINE
8
BLACK
6
CONTINUOUS
10
5.67389
20
-3.47031
11
5.67371
21
-3.47132
0
LINE
8
BLACK
6
CONTINUOUS
10
5.67371
20
-3.47132
11
5.67359
21
-3.47146
0
LINE
8
BLACK
6
CONTINUOUS
10
5.67359
20
-3.47146
11
5.67357
21
-3.47163
0
LINE
8
BLACK
6
CONTINUOUS
10
5.67357
20
-3.47163
11
5.6717
21
-3.47538
0
LINE
8
BLACK
6
CONTINUOUS
10
5.6717
20
-3.47538
11
5.67117
21
-3.47609
0
LINE
8
BLACK
6
CONTINUOUS
10
5.67117
20
-3.47609
11
5.67115
21
-3.47615
0
LINE
8
BLACK
6
CONTINUOUS
10
5.67115
20
-3.47615
11
5.66927
21
-3.47802
0
LINE
8
BLACK
6
CONTINUOUS
10
5.66927
20
-3.47802
11
5.66855
21
-3.47853
0
LINE
8
BLACK
6
CONTINUOUS
10
5.66855
20
-3.47853
11
5.6685
21
-3.47858
0
LINE
8
BLACK
6
CONTINUOUS
10
5.6685
20
-3.47858
11
5.66476
21
-3.48045
0
LINE
8
BLACK
6
CONTINUOUS
10
5.66476
20
-3.48045
11
5.66377
21
-3.48074
0
LINE
8
BLACK
6
CONTINUOUS
10
5.66377
20
-3.48074
11
5.6636
21
-3.4807
0
LINE
8
BLACK
6
CONTINUOUS
10
5.6636
20
-3.4807
11
5.66343
21
-3.48076
0
LINE
8
BLACK
6
CONTINUOUS
10
5.66343
20
-3.48076
11
5.65406
21
-3.48076
0
LINE
8
BLACK
6
CONTINUOUS
10
5.65406
20
-3.48076
11
5.65319
21
-3.48061
0
LINE
8
BLACK
6
CONTINUOUS
10
5.65319
20
-3.48061
11
5.65313
21
-3.48061
0
LINE
8
BLACK
6
CONTINUOUS
10
5.65313
20
-3.48061
11
5.6475
21
-3.47874
0
LINE
8
BLACK
6
CONTINUOUS
10
5.6475
20
-3.47874
11
5.6466
21
-3.47825
0
LINE
8
BLACK
6
CONTINUOUS
10
5.6466
20
-3.47825
11
5.64554
21
-3.47653
0
LINE
8
BLACK
6
CONTINUOUS
10
5.64554
20
-3.47653
11
5.64584
21
-3.47453
0
LINE
8
BLACK
6
CONTINUOUS
10
5.64584
20
-3.47453
11
5.64735
21
-3.47319
0
LINE
8
BLACK
6
CONTINUOUS
10
5.64735
20
-3.47319
11
5.64937
21
-3.47313
0
LINE
8
BLACK
6
CONTINUOUS
10
5.64937
20
-3.47313
11
5.65454
21
-3.47486
0
LINE
8
BLACK
6
CONTINUOUS
10
5.65454
20
-3.47486
11
5.66274
21
-3.47486
0
LINE
8
BLACK
6
CONTINUOUS
10
5.66274
20
-3.47486
11
5.66543
21
-3.47351
0
LINE
8
BLACK
6
CONTINUOUS
10
5.66543
20
-3.47351
11
5.66663
21
-3.47231
0
LINE
8
BLACK
6
CONTINUOUS
10
5.66663
20
-3.47231
11
5.66798
21
-3.46961
0
LINE
8
BLACK
6
CONTINUOUS
10
5.66798
20
-3.46961
11
5.66798
21
-3.46726
0
LINE
8
BLACK
6
CONTINUOUS
10
5.66798
20
-3.46726
11
5.66663
21
-3.46456
0
LINE
8
BLACK
6
CONTINUOUS
10
5.66663
20
-3.46456
11
5.66543
21
-3.46336
0
LINE
8
BLACK
6
CONTINUOUS
10
5.66543
20
-3.46336
11
5.6624
21
-3.46185
0
LINE
8
BLACK
6
CONTINUOUS
10
5.6624
20
-3.46185
11
5.65522
21
-3.46005
0
LINE
8
BLACK
6
CONTINUOUS
10
5.65522
20
-3.46005
11
5.65475
21
-3.45984
0
LINE
8
BLACK
6
CONTINUOUS
10
5.65475
20
-3.45984
11
5.65461
21
-3.45983
0
LINE
8
BLACK
6
CONTINUOUS
10
5.65461
20
-3.45983
11
5.65087
21
-3.45795
0
LINE
8
BLACK
6
CONTINUOUS
10
5.65087
20
-3.45795
11
5.65016
21
-3.45743
0
LINE
8
BLACK
6
CONTINUOUS
10
5.65016
20
-3.45743
11
5.6501
21
-3.4574
0
LINE
8
BLACK
6
CONTINUOUS
10
5.6501
20
-3.4574
11
5.64822
21
-3.45553
0
LINE
8
BLACK
6
CONTINUOUS
10
5.64822
20
-3.45553
11
5.64772
21
-3.4548
0
LINE
8
BLACK
6
CONTINUOUS
10
5.64772
20
-3.4548
11
5.64767
21
-3.45476
0
LINE
8
BLACK
6
CONTINUOUS
10
5.64767
20
-3.45476
11
5.6458
21
-3.45101
0
LINE
8
BLACK
6
CONTINUOUS
10
5.6458
20
-3.45101
11
5.6455
21
-3.45003
0
LINE
8
BLACK
6
CONTINUOUS
10
5.6455
20
-3.45003
11
5.64554
21
-3.44985
0
LINE
8
BLACK
6
CONTINUOUS
10
5.64554
20
-3.44985
11
5.64548
21
-3.44969
0
LINE
8
BLACK
6
CONTINUOUS
10
5.64548
20
-3.44969
11
5.64548
21
-3.44594
0
LINE
8
BLACK
6
CONTINUOUS
10
5.64548
20
-3.44594
11
5.64566
21
-3.44493
0
LINE
8
BLACK
6
CONTINUOUS
10
5.64566
20
-3.44493
11
5.64578
21
-3.44479
0
LINE
8
BLACK
6
CONTINUOUS
10
5.64578
20
-3.44479
11
5.6458
21
-3.44462
0
LINE
8
BLACK
6
CONTINUOUS
10
5.6458
20
-3.44462
11
5.64767
21
-3.44087
0
LINE
8
BLACK
6
CONTINUOUS
10
5.64767
20
-3.44087
11
5.6482
21
-3.44016
0
LINE
8
BLACK
6
CONTINUOUS
10
5.6482
20
-3.44016
11
5.64822
21
-3.4401
0
LINE
8
BLACK
6
CONTINUOUS
10
5.64822
20
-3.4401
11
5.6501
21
-3.43823
0
LINE
8
BLACK
6
CONTINUOUS
10
5.6501
20
-3.43823
11
5.65082
21
-3.43772
0
LINE
8
BLACK
6
CONTINUOUS
10
5.65082
20
-3.43772
11
5.65087
21
-3.43767
0
LINE
8
BLACK
6
CONTINUOUS
10
5.65087
20
-3.43767
11
5.65461
21
-3.4358
0
LINE
8
BLACK
6
CONTINUOUS
10
5.65461
20
-3.4358
11
5.6556
21
-3.43551
0
LINE
8
BLACK
6
CONTINUOUS
10
5.6556
20
-3.43551
11
5.65577
21
-3.43555
0
LINE
8
BLACK
6
CONTINUOUS
10
5.65577
20
-3.43555
11
5.65594
21
-3.43549
0
LINE
8
BLACK
6
CONTINUOUS
10
5.65594
20
-3.43549
11
5.66531
21
-3.43549
0
LINE
8
BLACK
6
CONTINUOUS
10
5.66531
20
-3.43549
11
5.66618
21
-3.43564
0
LINE
8
BLACK
6
CONTINUOUS
10
5.62681
20
-3.43564
11
5.62687
21
-3.43564
0
LINE
8
BLACK
6
CONTINUOUS
10
5.62687
20
-3.43564
11
5.6325
21
-3.43751
0
LINE
8
BLACK
6
CONTINUOUS
10
5.6325
20
-3.43751
11
5.6334
21
-3.438
0
LINE
8
BLACK
6
CONTINUOUS
10
5.6334
20
-3.438
11
5.63349
21
-3.43815
0
LINE
8
BLACK
6
CONTINUOUS
10
5.63349
20
-3.43815
11
5.63365
21
-3.43823
0
LINE
8
BLACK
6
CONTINUOUS
10
5.63365
20
-3.43823
11
5.63553
21
-3.4401
0
LINE
8
BLACK
6
CONTINUOUS
10
5.63553
20
-3.4401
11
5.63611
21
-3.44094
0
LINE
8
BLACK
6
CONTINUOUS
10
5.63611
20
-3.44094
11
5.63629
21
-3.44295
0
LINE
8
BLACK
6
CONTINUOUS
10
5.63629
20
-3.44295
11
5.63513
21
-3.44461
0
LINE
8
BLACK
6
CONTINUOUS
10
5.63513
20
-3.44461
11
5.63318
21
-3.44513
0
LINE
8
BLACK
6
CONTINUOUS
10
5.63318
20
-3.44513
11
5.63135
21
-3.44428
0
LINE
8
BLACK
6
CONTINUOUS
10
5.63135
20
-3.44428
11
5.62997
21
-3.4429
0
LINE
8
BLACK
6
CONTINUOUS
10
5.62997
20
-3.4429
11
5.62546
21
-3.44139
0
LINE
8
BLACK
6
CONTINUOUS
10
5.62546
20
-3.44139
11
5.62267
21
-3.44139
0
LINE
8
BLACK
6
CONTINUOUS
10
5.62267
20
-3.44139
11
5.61816
21
-3.4429
0
LINE
8
BLACK
6
CONTINUOUS
10
5.61816
20
-3.4429
11
5.61524
21
-3.44581
0
LINE
8
BLACK
6
CONTINUOUS
10
5.61524
20
-3.44581
11
5.61373
21
-3.44884
0
LINE
8
BLACK
6
CONTINUOUS
10
5.61373
20
-3.44884
11
5.61202
21
-3.45568
0
LINE
8
BLACK
6
CONTINUOUS
10
5.61202
20
-3.45568
11
5.61202
21
-3.46057
0
LINE
8
BLACK
6
CONTINUOUS
10
5.61202
20
-3.46057
11
5.61373
21
-3.46741
0
LINE
8
BLACK
6
CONTINUOUS
10
5.61373
20
-3.46741
11
5.61524
21
-3.47044
0
LINE
8
BLACK
6
CONTINUOUS
10
5.61524
20
-3.47044
11
5.61816
21
-3.47335
0
LINE
8
BLACK
6
CONTINUOUS
10
5.61816
20
-3.47335
11
5.62267
21
-3.47486
0
LINE
8
BLACK
6
CONTINUOUS
10
5.62267
20
-3.47486
11
5.62546
21
-3.47486
0
LINE
8
BLACK
6
CONTINUOUS
10
5.62546
20
-3.47486
11
5.62997
21
-3.47335
0
LINE
8
BLACK
6
CONTINUOUS
10
5.62997
20
-3.47335
11
5.63135
21
-3.47197
0
LINE
8
BLACK
6
CONTINUOUS
10
5.63135
20
-3.47197
11
5.63219
21
-3.47138
0
LINE
8
BLACK
6
CONTINUOUS
10
5.63219
20
-3.47138
11
5.6342
21
-3.47121
0
LINE
8
BLACK
6
CONTINUOUS
10
5.6342
20
-3.47121
11
5.63586
21
-3.47237
0
LINE
8
BLACK
6
CONTINUOUS
10
5.63586
20
-3.47237
11
5.63638
21
-3.47432
0
LINE
8
BLACK
6
CONTINUOUS
10
5.63638
20
-3.47432
11
5.63553
21
-3.47615
0
LINE
8
BLACK
6
CONTINUOUS
10
5.63553
20
-3.47615
11
5.63365
21
-3.47802
0
LINE
8
BLACK
6
CONTINUOUS
10
5.63365
20
-3.47802
11
5.63281
21
-3.47861
0
LINE
8
BLACK
6
CONTINUOUS
10
5.63281
20
-3.47861
11
5.63264
21
-3.47863
0
LINE
8
BLACK
6
CONTINUOUS
10
5.63264
20
-3.47863
11
5.6325
21
-3.47874
0
LINE
8
BLACK
6
CONTINUOUS
10
5.6325
20
-3.47874
11
5.62687
21
-3.48061
0
LINE
8
BLACK
6
CONTINUOUS
10
5.62687
20
-3.48061
11
5.626
21
-3.48074
0
LINE
8
BLACK
6
CONTINUOUS
10
5.626
20
-3.48074
11
5.62594
21
-3.48076
0
LINE
8
BLACK
6
CONTINUOUS
10
5.62594
20
-3.48076
11
5.62219
21
-3.48076
0
LINE
8
BLACK
6
CONTINUOUS
10
5.62219
20
-3.48076
11
5.62132
21
-3.48061
0
LINE
8
BLACK
6
CONTINUOUS
10
5.62132
20
-3.48061
11
5.62126
21
-3.48061
0
LINE
8
BLACK
6
CONTINUOUS
10
5.62126
20
-3.48061
11
5.61563
21
-3.47874
0
LINE
8
BLACK
6
CONTINUOUS
10
5.61563
20
-3.47874
11
5.61473
21
-3.47825
0
LINE
8
BLACK
6
CONTINUOUS
10
5.61473
20
-3.47825
11
5.61464
21
-3.4781
0
LINE
8
BLACK
6
CONTINUOUS
10
5.61464
20
-3.4781
11
5.61448
21
-3.47802
0
LINE
8
BLACK
6
CONTINUOUS
10
5.61448
20
-3.47802
11
5.61073
21
-3.47427
0
LINE
8
BLACK
6
CONTINUOUS
10
5.61073
20
-3.47427
11
5.61022
21
-3.47355
0
LINE
8
BLACK
6
CONTINUOUS
10
5.61022
20
-3.47355
11
5.61017
21
-3.47351
0
LINE
8
BLACK
6
CONTINUOUS
10
5.61017
20
-3.47351
11
5.6083
21
-3.46976
0
LINE
8
BLACK
6
CONTINUOUS
10
5.6083
20
-3.46976
11
5.60815
21
-3.46927
0
LINE
8
BLACK
6
CONTINUOUS
10
5.60815
20
-3.46927
11
5.60808
21
-3.46915
0
LINE
8
BLACK
6
CONTINUOUS
10
5.60808
20
-3.46915
11
5.6062
21
-3.46165
0
LINE
8
BLACK
6
CONTINUOUS
10
5.6062
20
-3.46165
11
5.60616
21
-3.46107
0
LINE
8
BLACK
6
CONTINUOUS
10
5.60616
20
-3.46107
11
5.60611
21
-3.46094
0
LINE
8
BLACK
6
CONTINUOUS
10
5.60611
20
-3.46094
11
5.60611
21
-3.45531
0
LINE
8
BLACK
6
CONTINUOUS
10
5.60611
20
-3.45531
11
5.60622
21
-3.45473
0
LINE
8
BLACK
6
CONTINUOUS
10
5.60622
20
-3.45473
11
5.6062
21
-3.4546
0
LINE
8
BLACK
6
CONTINUOUS
10
5.6062
20
-3.4546
11
5.60808
21
-3.4471
0
LINE
8
BLACK
6
CONTINUOUS
10
5.60808
20
-3.4471
11
5.60828
21
-3.44663
0
LINE
8
BLACK
6
CONTINUOUS
10
5.60828
20
-3.44663
11
5.6083
21
-3.44649
0
LINE
8
BLACK
6
CONTINUOUS
10
5.6083
20
-3.44649
11
5.61017
21
-3.44274
0
LINE
8
BLACK
6
CONTINUOUS
10
5.61017
20
-3.44274
11
5.6107
21
-3.44203
0
LINE
8
BLACK
6
CONTINUOUS
10
5.6107
20
-3.44203
11
5.61073
21
-3.44198
0
LINE
8
BLACK
6
CONTINUOUS
10
5.61073
20
-3.44198
11
5.61448
21
-3.43823
0
LINE
8
BLACK
6
CONTINUOUS
10
5.61448
20
-3.43823
11
5.61532
21
-3.43764
0
LINE
8
BLACK
6
CONTINUOUS
10
5.61532
20
-3.43764
11
5.61549
21
-3.43762
0
LINE
8
BLACK
6
CONTINUOUS
10
5.61549
20
-3.43762
11
5.61563
21
-3.43751
0
LINE
8
BLACK
6
CONTINUOUS
10
5.61563
20
-3.43751
11
5.62126
21
-3.43564
0
LINE
8
BLACK
6
CONTINUOUS
10
5.62126
20
-3.43564
11
5.62213
21
-3.43551
0
LINE
8
BLACK
6
CONTINUOUS
10
5.62213
20
-3.43551
11
5.62219
21
-3.43549
0
LINE
8
BLACK
6
CONTINUOUS
10
5.62219
20
-3.43549
11
5.62594
21
-3.43549
0
LINE
8
BLACK
6
CONTINUOUS
10
5.62594
20
-3.43549
11
5.62681
21
-3.43564
0
LINE
8
BLACK
6
CONTINUOUS
10
5.19052
20
-3.44597
11
5.19065
21
-3.44608
0
LINE
8
BLACK
6
CONTINUOUS
10
5.19065
20
-3.44608
11
5.19083
21
-3.4461
0
LINE
8
BLACK
6
CONTINUOUS
10
5.19083
20
-3.4461
11
5.19458
21
-3.44798
0
LINE
8
BLACK
6
CONTINUOUS
10
5.19458
20
-3.44798
11
5.19529
21
-3.4485
0
LINE
8
BLACK
6
CONTINUOUS
10
5.19529
20
-3.4485
11
5.19534
21
-3.44853
0
LINE
8
BLACK
6
CONTINUOUS
10
5.19534
20
-3.44853
11
5.19701
21
-3.45019
0
LINE
8
BLACK
6
CONTINUOUS
10
5.19701
20
-3.45019
11
5.19867
21
-3.44853
0
LINE
8
BLACK
6
CONTINUOUS
10
5.19867
20
-3.44853
11
5.19939
21
-3.44802
0
LINE
8
BLACK
6
CONTINUOUS
10
5.19939
20
-3.44802
11
5.19944
21
-3.44798
0
LINE
8
BLACK
6
CONTINUOUS
10
5.19944
20
-3.44798
11
5.20318
21
-3.4461
0
LINE
8
BLACK
6
CONTINUOUS
10
5.20318
20
-3.4461
11
5.20417
21
-3.44581
0
LINE
8
BLACK
6
CONTINUOUS
10
5.20417
20
-3.44581
11
5.20434
21
-3.44585
0
LINE
8
BLACK
6
CONTINUOUS
10
5.20434
20
-3.44585
11
5.20451
21
-3.44579
0
LINE
8
BLACK
6
CONTINUOUS
10
5.20451
20
-3.44579
11
5.212
21
-3.44579
0
LINE
8
BLACK
6
CONTINUOUS
10
5.212
20
-3.44579
11
5.21301
21
-3.44597
0
LINE
8
BLACK
6
CONTINUOUS
10
5.21301
20
-3.44597
11
5.21315
21
-3.44608
0
LINE
8
BLACK
6
CONTINUOUS
10
5.21315
20
-3.44608
11
5.21332
21
-3.4461
0
LINE
8
BLACK
6
CONTINUOUS
10
5.21332
20
-3.4461
11
5.21707
21
-3.44798
0
LINE
8
BLACK
6
CONTINUOUS
10
5.21707
20
-3.44798
11
5.21778
21
-3.4485
0
LINE
8
BLACK
6
CONTINUOUS
10
5.21778
20
-3.4485
11
5.21784
21
-3.44853
0
LINE
8
BLACK
6
CONTINUOUS
10
5.21784
20
-3.44853
11
5.21972
21
-3.45041
0
LINE
8
BLACK
6
CONTINUOUS
10
5.21972
20
-3.45041
11
5.22022
21
-3.45113
0
LINE
8
BLACK
6
CONTINUOUS
10
5.22022
20
-3.45113
11
5.22027
21
-3.45117
0
LINE
8
BLACK
6
CONTINUOUS
10
5.22027
20
-3.45117
11
5.22214
21
-3.45492
0
LINE
8
BLACK
6
CONTINUOUS
10
5.22214
20
-3.45492
11
5.22244
21
-3.45591
0
LINE
8
BLACK
6
CONTINUOUS
10
5.22244
20
-3.45591
11
5.2224
21
-3.45608
0
LINE
8
BLACK
6
CONTINUOUS
10
5.2224
20
-3.45608
11
5.22246
21
-3.45624
0
LINE
8
BLACK
6
CONTINUOUS
10
5.22246
20
-3.45624
11
5.22246
21
-3.46374
0
LINE
8
BLACK
6
CONTINUOUS
10
5.22246
20
-3.46374
11
5.22228
21
-3.46475
0
LINE
8
BLACK
6
CONTINUOUS
10
5.22228
20
-3.46475
11
5.22216
21
-3.46489
0
LINE
8
BLACK
6
CONTINUOUS
10
5.22216
20
-3.46489
11
5.22214
21
-3.46506
0
LINE
8
BLACK
6
CONTINUOUS
10
5.22214
20
-3.46506
11
5.22027
21
-3.46881
0
LINE
8
BLACK
6
CONTINUOUS
10
5.22027
20
-3.46881
11
5.21974
21
-3.46952
0
LINE
8
BLACK
6
CONTINUOUS
10
5.21974
20
-3.46952
11
5.21972
21
-3.46958
0
LINE
8
BLACK
6
CONTINUOUS
10
5.21972
20
-3.46958
11
5.21784
21
-3.47145
0
LINE
8
BLACK
6
CONTINUOUS
10
5.21784
20
-3.47145
11
5.21712
21
-3.47196
0
LINE
8
BLACK
6
CONTINUOUS
10
5.21712
20
-3.47196
11
5.21707
21
-3.47201
0
LINE
8
BLACK
6
CONTINUOUS
10
5.21707
20
-3.47201
11
5.21332
21
-3.47388
0
LINE
8
BLACK
6
CONTINUOUS
10
5.21332
20
-3.47388
11
5.21234
21
-3.47417
0
LINE
8
BLACK
6
CONTINUOUS
10
5.21234
20
-3.47417
11
5.21217
21
-3.47413
0
LINE
8
BLACK
6
CONTINUOUS
10
5.21217
20
-3.47413
11
5.212
21
-3.47419
0
LINE
8
BLACK
6
CONTINUOUS
10
5.212
20
-3.47419
11
5.20451
21
-3.47419
0
LINE
8
BLACK
6
CONTINUOUS
10
5.20451
20
-3.47419
11
5.2035
21
-3.47402
0
LINE
8
BLACK
6
CONTINUOUS
10
5.2035
20
-3.47402
11
5.20336
21
-3.4739
0
LINE
8
BLACK
6
CONTINUOUS
10
5.20336
20
-3.4739
11
5.20318
21
-3.47388
0
LINE
8
BLACK
6
CONTINUOUS
10
5.20318
20
-3.47388
11
5.19944
21
-3.47201
0
LINE
8
BLACK
6
CONTINUOUS
10
5.19944
20
-3.47201
11
5.19873
21
-3.47148
0
LINE
8
BLACK
6
CONTINUOUS
10
5.19873
20
-3.47148
11
5.19867
21
-3.47145
0
LINE
8
BLACK
6
CONTINUOUS
10
5.19867
20
-3.47145
11
5.19701
21
-3.46979
0
LINE
8
BLACK
6
CONTINUOUS
10
5.19701
20
-3.46979
11
5.19534
21
-3.47145
0
LINE
8
BLACK
6
CONTINUOUS
10
5.19534
20
-3.47145
11
5.19462
21
-3.47196
0
LINE
8
BLACK
6
CONTINUOUS
10
5.19462
20
-3.47196
11
5.19458
21
-3.47201
0
LINE
8
BLACK
6
CONTINUOUS
10
5.19458
20
-3.47201
11
5.19083
21
-3.47388
0
LINE
8
BLACK
6
CONTINUOUS
10
5.19083
20
-3.47388
11
5.18984
21
-3.47417
0
LINE
8
BLACK
6
CONTINUOUS
10
5.18984
20
-3.47417
11
5.18967
21
-3.47413
0
LINE
8
BLACK
6
CONTINUOUS
10
5.18967
20
-3.47413
11
5.18951
21
-3.47419
0
LINE
8
BLACK
6
CONTINUOUS
10
5.18951
20
-3.47419
11
5.18763
21
-3.47419
0
LINE
8
BLACK
6
CONTINUOUS
10
5.18763
20
-3.47419
11
5.18662
21
-3.47402
0
LINE
8
BLACK
6
CONTINUOUS
10
5.18662
20
-3.47402
11
5.18649
21
-3.4739
0
LINE
8
BLACK
6
CONTINUOUS
10
5.18649
20
-3.4739
11
5.18631
21
-3.47388
0
LINE
8
BLACK
6
CONTINUOUS
10
5.18631
20
-3.47388
11
5.18256
21
-3.47201
0
LINE
8
BLACK
6
CONTINUOUS
10
5.18256
20
-3.47201
11
5.18185
21
-3.47148
0
LINE
8
BLACK
6
CONTINUOUS
10
5.18185
20
-3.47148
11
5.18179
21
-3.47145
0
LINE
8
BLACK
6
CONTINUOUS
10
5.18179
20
-3.47145
11
5.17992
21
-3.46958
0
LINE
8
BLACK
6
CONTINUOUS
10
5.17992
20
-3.46958
11
5.17941
21
-3.46886
0
LINE
8
BLACK
6
CONTINUOUS
10
5.17941
20
-3.46886
11
5.17937
21
-3.46881
0
LINE
8
BLACK
6
CONTINUOUS
10
5.17937
20
-3.46881
11
5.17749
21
-3.46506
0
LINE
8
BLACK
6
CONTINUOUS
10
5.17749
20
-3.46506
11
5.1772
21
-3.46408
0
LINE
8
BLACK
6
CONTINUOUS
10
5.1772
20
-3.46408
11
5.17724
21
-3.46391
0
LINE
8
BLACK
6
CONTINUOUS
10
5.17724
20
-3.46391
11
5.17718
21
-3.46374
0
LINE
8
BLACK
6
CONTINUOUS
10
5.17718
20
-3.46374
11
5.17718
21
-3.45624
0
LINE
8
BLACK
6
CONTINUOUS
10
5.17718
20
-3.45624
11
5.17736
21
-3.45523
0
LINE
8
BLACK
6
CONTINUOUS
10
5.17736
20
-3.45523
11
5.17747
21
-3.4551
0
LINE
8
BLACK
6
CONTINUOUS
10
5.17747
20
-3.4551
11
5.17749
21
-3.45492
0
LINE
8
BLACK
6
CONTINUOUS
10
5.17749
20
-3.45492
11
5.17937
21
-3.45117
0
LINE
8
BLACK
6
CONTINUOUS
10
5.17937
20
-3.45117
11
5.17989
21
-3.45046
0
LINE
8
BLACK
6
CONTINUOUS
10
5.17989
20
-3.45046
11
5.17992
21
-3.45041
0
LINE
8
BLACK
6
CONTINUOUS
10
5.17992
20
-3.45041
11
5.18179
21
-3.44853
0
LINE
8
BLACK
6
CONTINUOUS
10
5.18179
20
-3.44853
11
5.18252
21
-3.44802
0
LINE
8
BLACK
6
CONTINUOUS
10
5.18252
20
-3.44802
11
5.18256
21
-3.44798
0
LINE
8
BLACK
6
CONTINUOUS
10
5.18256
20
-3.44798
11
5.18631
21
-3.4461
0
LINE
8
BLACK
6
CONTINUOUS
10
5.18631
20
-3.4461
11
5.18729
21
-3.44581
0
LINE
8
BLACK
6
CONTINUOUS
10
5.18729
20
-3.44581
11
5.18747
21
-3.44585
0
LINE
8
BLACK
6
CONTINUOUS
10
5.18747
20
-3.44585
11
5.18763
21
-3.44579
0
LINE
8
BLACK
6
CONTINUOUS
10
5.18763
20
-3.44579
11
5.18951
21
-3.44579
0
LINE
8
BLACK
6
CONTINUOUS
10
5.18951
20
-3.44579
11
5.19052
21
-3.44597
0
LINE
8
BLACK
6
CONTINUOUS
10
5.2052
20
-3.4517
11
5.2025
21
-3.45305
0
LINE
8
BLACK
6
CONTINUOUS
10
5.2025
20
-3.45305
11
5.20131
21
-3.45424
0
LINE
8
BLACK
6
CONTINUOUS
10
5.20131
20
-3.45424
11
5.19996
21
-3.45694
0
LINE
8
BLACK
6
CONTINUOUS
10
5.19996
20
-3.45694
11
5.19996
21
-3.46304
0
LINE
8
BLACK
6
CONTINUOUS
10
5.19996
20
-3.46304
11
5.20131
21
-3.46574
0
LINE
8
BLACK
6
CONTINUOUS
10
5.20131
20
-3.46574
11
5.2025
21
-3.46694
0
LINE
8
BLACK
6
CONTINUOUS
10
5.2025
20
-3.46694
11
5.2052
21
-3.46829
0
LINE
8
BLACK
6
CONTINUOUS
10
5.2052
20
-3.46829
11
5.21131
21
-3.46829
0
LINE
8
BLACK
6
CONTINUOUS
10
5.21131
20
-3.46829
11
5.214
21
-3.46694
0
LINE
8
BLACK
6
CONTINUOUS
10
5.214
20
-3.46694
11
5.2152
21
-3.46574
0
LINE
8
BLACK
6
CONTINUOUS
10
5.2152
20
-3.46574
11
5.21655
21
-3.46304
0
LINE
8
BLACK
6
CONTINUOUS
10
5.21655
20
-3.46304
11
5.21655
21
-3.45694
0
LINE
8
BLACK
6
CONTINUOUS
10
5.21655
20
-3.45694
11
5.2152
21
-3.45424
0
LINE
8
BLACK
6
CONTINUOUS
10
5.2152
20
-3.45424
11
5.214
21
-3.45305
0
LINE
8
BLACK
6
CONTINUOUS
10
5.214
20
-3.45305
11
5.21131
21
-3.4517
0
LINE
8
BLACK
6
CONTINUOUS
10
5.21131
20
-3.4517
11
5.2052
21
-3.4517
0
LINE
8
BLACK
6
CONTINUOUS
10
5.18833
20
-3.4517
11
5.18563
21
-3.45305
0
LINE
8
BLACK
6
CONTINUOUS
10
5.18563
20
-3.45305
11
5.18443
21
-3.45424
0
LINE
8
BLACK
6
CONTINUOUS
10
5.18443
20
-3.45424
11
5.18309
21
-3.45694
0
LINE
8
BLACK
6
CONTINUOUS
10
5.18309
20
-3.45694
11
5.18309
21
-3.46304
0
LINE
8
BLACK
6
CONTINUOUS
10
5.18309
20
-3.46304
11
5.18443
21
-3.46574
0
LINE
8
BLACK
6
CONTINUOUS
10
5.18443
20
-3.46574
11
5.18563
21
-3.46694
0
LINE
8
BLACK
6
CONTINUOUS
10
5.18563
20
-3.46694
11
5.18833
21
-3.46829
0
LINE
8
BLACK
6
CONTINUOUS
10
5.18833
20
-3.46829
11
5.18881
21
-3.46829
0
LINE
8
BLACK
6
CONTINUOUS
10
5.18881
20
-3.46829
11
5.19151
21
-3.46694
0
LINE
8
BLACK
6
CONTINUOUS
10
5.19151
20
-3.46694
11
5.1927
21
-3.46574
0
LINE
8
BLACK
6
CONTINUOUS
10
5.1927
20
-3.46574
11
5.19405
21
-3.46304
0
LINE
8
BLACK
6
CONTINUOUS
10
5.19405
20
-3.46304
11
5.19405
21
-3.45694
0
LINE
8
BLACK
6
CONTINUOUS
10
5.19405
20
-3.45694
11
5.1927
21
-3.45424
0
LINE
8
BLACK
6
CONTINUOUS
10
5.1927
20
-3.45424
11
5.19151
21
-3.45305
0
LINE
8
BLACK
6
CONTINUOUS
10
5.19151
20
-3.45305
11
5.18881
21
-3.4517
0
LINE
8
BLACK
6
CONTINUOUS
10
5.18881
20
-3.4517
11
5.18833
21
-3.4517
0
LINE
8
BLACK
6
CONTINUOUS
10
5.92695
20
-3.42567
11
5.92708
21
-3.42578
0
LINE
8
BLACK
6
CONTINUOUS
10
5.92708
20
-3.42578
11
5.92726
21
-3.4258
0
LINE
8
BLACK
6
CONTINUOUS
10
5.92726
20
-3.4258
11
5.93101
21
-3.42767
0
LINE
8
BLACK
6
CONTINUOUS
10
5.93101
20
-3.42767
11
5.93183
21
-3.42828
0
LINE
8
BLACK
6
CONTINUOUS
10
5.93183
20
-3.42828
11
5.93264
21
-3.43014
0
LINE
8
BLACK
6
CONTINUOUS
10
5.93264
20
-3.43014
11
5.93206
21
-3.43207
0
LINE
8
BLACK
6
CONTINUOUS
10
5.93206
20
-3.43207
11
5.93037
21
-3.43319
0
LINE
8
BLACK
6
CONTINUOUS
10
5.93037
20
-3.43319
11
5.92837
21
-3.43296
0
LINE
8
BLACK
6
CONTINUOUS
10
5.92837
20
-3.43296
11
5.92524
21
-3.43139
0
LINE
8
BLACK
6
CONTINUOUS
10
5.92524
20
-3.43139
11
5.92079
21
-3.43139
0
LINE
8
BLACK
6
CONTINUOUS
10
5.92079
20
-3.43139
11
5.91629
21
-3.4329
0
LINE
8
BLACK
6
CONTINUOUS
10
5.91629
20
-3.4329
11
5.91337
21
-3.43581
0
LINE
8
BLACK
6
CONTINUOUS
10
5.91337
20
-3.43581
11
5.91185
21
-3.43884
0
LINE
8
BLACK
6
CONTINUOUS
10
5.91185
20
-3.43884
11
5.91014
21
-3.44568
0
LINE
8
BLACK
6
CONTINUOUS
10
5.91014
20
-3.44568
11
5.91014
21
-3.45057
0
LINE
8
BLACK
6
CONTINUOUS
10
5.91014
20
-3.45057
11
5.91185
21
-3.45741
0
LINE
8
BLACK
6
CONTINUOUS
10
5.91185
20
-3.45741
11
5.91337
21
-3.46044
0
LINE
8
BLACK
6
CONTINUOUS
10
5.91337
20
-3.46044
11
5.91629
21
-3.46335
0
LINE
8
BLACK
6
CONTINUOUS
10
5.91629
20
-3.46335
11
5.92079
21
-3.46486
0
LINE
8
BLACK
6
CONTINUOUS
10
5.92079
20
-3.46486
11
5.92359
21
-3.46486
0
LINE
8
BLACK
6
CONTINUOUS
10
5.92359
20
-3.46486
11
5.92809
21
-3.46335
0
LINE
8
BLACK
6
CONTINUOUS
10
5.92809
20
-3.46335
11
5.92861
21
-3.46284
0
LINE
8
BLACK
6
CONTINUOUS
10
5.92861
20
-3.46284
11
5.92861
21
-3.45389
0
LINE
8
BLACK
6
CONTINUOUS
10
5.92861
20
-3.45389
11
5.92406
21
-3.45389
0
LINE
8
BLACK
6
CONTINUOUS
10
5.92406
20
-3.45389
11
5.92305
21
-3.45371
0
LINE
8
BLACK
6
CONTINUOUS
10
5.92305
20
-3.45371
11
5.92151
21
-3.45241
0
LINE
8
BLACK
6
CONTINUOUS
10
5.92151
20
-3.45241
11
5.92116
21
-3.45042
0
LINE
8
BLACK
6
CONTINUOUS
10
5.92116
20
-3.45042
11
5.92217
21
-3.44868
0
LINE
8
BLACK
6
CONTINUOUS
10
5.92217
20
-3.44868
11
5.92406
21
-3.44798
0
LINE
8
BLACK
6
CONTINUOUS
10
5.92406
20
-3.44798
11
5.93156
21
-3.44798
0
LINE
8
BLACK
6
CONTINUOUS
10
5.93156
20
-3.44798
11
5.93195
21
-3.44805
0
LINE
8
BLACK
6
CONTINUOUS
10
5.93195
20
-3.44805
11
5.93208
21
-3.44803
0
LINE
8
BLACK
6
CONTINUOUS
10
5.93208
20
-3.44803
11
5.93219
21
-3.4481
0
LINE
8
BLACK
6
CONTINUOUS
10
5.93219
20
-3.4481
11
5.93257
21
-3.44816
0
LINE
8
BLACK
6
CONTINUOUS
10
5.93257
20
-3.44816
11
5.93316
21
-3.44866
0
LINE
8
BLACK
6
CONTINUOUS
10
5.93316
20
-3.44866
11
5.93383
21
-3.44904
0
LINE
8
BLACK
6
CONTINUOUS
10
5.93383
20
-3.44904
11
5.93392
21
-3.44929
0
LINE
8
BLACK
6
CONTINUOUS
10
5.93392
20
-3.44929
11
5.93412
21
-3.44946
0
LINE
8
BLACK
6
CONTINUOUS
10
5.93412
20
-3.44946
11
5.93425
21
-3.45022
0
LINE
8
BLACK
6
CONTINUOUS
10
5.93425
20
-3.45022
11
5.93452
21
-3.45094
0
LINE
8
BLACK
6
CONTINUOUS
10
5.93452
20
-3.45094
11
5.93452
21
-3.46406
0
LINE
8
BLACK
6
CONTINUOUS
10
5.93452
20
-3.46406
11
5.93448
21
-3.46424
0
LINE
8
BLACK
6
CONTINUOUS
10
5.93448
20
-3.46424
11
5.93451
21
-3.46432
0
LINE
8
BLACK
6
CONTINUOUS
10
5.93451
20
-3.46432
11
5.93445
21
-3.46444
0
LINE
8
BLACK
6
CONTINUOUS
10
5.93445
20
-3.46444
11
5.93434
21
-3.46507
0
LINE
8
BLACK
6
CONTINUOUS
10
5.93434
20
-3.46507
11
5.93392
21
-3.46556
0
LINE
8
BLACK
6
CONTINUOUS
10
5.93392
20
-3.46556
11
5.93365
21
-3.46615
0
LINE
8
BLACK
6
CONTINUOUS
10
5.93365
20
-3.46615
11
5.93178
21
-3.46802
0
LINE
8
BLACK
6
CONTINUOUS
10
5.93178
20
-3.46802
11
5.93094
21
-3.46861
0
LINE
8
BLACK
6
CONTINUOUS
10
5.93094
20
-3.46861
11
5.93076
21
-3.46863
0
LINE
8
BLACK
6
CONTINUOUS
10
5.93076
20
-3.46863
11
5.93062
21
-3.46874
0
LINE
8
BLACK
6
CONTINUOUS
10
5.93062
20
-3.46874
11
5.925
21
-3.47061
0
LINE
8
BLACK
6
CONTINUOUS
10
5.925
20
-3.47061
11
5.92413
21
-3.47074
0
LINE
8
BLACK
6
CONTINUOUS
10
5.92413
20
-3.47074
11
5.92406
21
-3.47076
0
LINE
8
BLACK
6
CONTINUOUS
10
5.92406
20
-3.47076
11
5.92031
21
-3.47076
0
LINE
8
BLACK
6
CONTINUOUS
10
5.92031
20
-3.47076
11
5.91945
21
-3.47061
0
LINE
8
BLACK
6
CONTINUOUS
10
5.91945
20
-3.47061
11
5.91938
21
-3.47061
0
LINE
8
BLACK
6
CONTINUOUS
10
5.91938
20
-3.47061
11
5.91376
21
-3.46874
0
LINE
8
BLACK
6
CONTINUOUS
10
5.91376
20
-3.46874
11
5.91286
21
-3.46825
0
LINE
8
BLACK
6
CONTINUOUS
10
5.91286
20
-3.46825
11
5.91276
21
-3.4681
0
LINE
8
BLACK
6
CONTINUOUS
10
5.91276
20
-3.4681
11
5.9126
21
-3.46802
0
LINE
8
BLACK
6
CONTINUOUS
10
5.9126
20
-3.46802
11
5.90885
21
-3.46427
0
LINE
8
BLACK
6
CONTINUOUS
10
5.90885
20
-3.46427
11
5.90835
21
-3.46355
0
LINE
8
BLACK
6
CONTINUOUS
10
5.90835
20
-3.46355
11
5.9083
21
-3.46351
0
LINE
8
BLACK
6
CONTINUOUS
10
5.9083
20
-3.46351
11
5.90643
21
-3.45976
0
LINE
8
BLACK
6
CONTINUOUS
10
5.90643
20
-3.45976
11
5.90628
21
-3.45927
0
LINE
8
BLACK
6
CONTINUOUS
10
5.90628
20
-3.45927
11
5.9062
21
-3.45915
0
LINE
8
BLACK
6
CONTINUOUS
10
5.9062
20
-3.45915
11
5.90433
21
-3.45165
0
LINE
8
BLACK
6
CONTINUOUS
10
5.90433
20
-3.45165
11
5.90429
21
-3.45107
0
LINE
8
BLACK
6
CONTINUOUS
10
5.90429
20
-3.45107
11
5.90424
21
-3.45094
0
LINE
8
BLACK
6
CONTINUOUS
10
5.90424
20
-3.45094
11
5.90424
21
-3.44531
0
LINE
8
BLACK
6
CONTINUOUS
10
5.90424
20
-3.44531
11
5.90434
21
-3.44473
0
LINE
8
BLACK
6
CONTINUOUS
10
5.90434
20
-3.44473
11
5.90433
21
-3.4446
0
LINE
8
BLACK
6
CONTINUOUS
10
5.90433
20
-3.4446
11
5.9062
21
-3.4371
0
LINE
8
BLACK
6
CONTINUOUS
10
5.9062
20
-3.4371
11
5.90641
21
-3.43663
0
LINE
8
BLACK
6
CONTINUOUS
10
5.90641
20
-3.43663
11
5.90643
21
-3.43649
0
LINE
8
BLACK
6
CONTINUOUS
10
5.90643
20
-3.43649
11
5.9083
21
-3.43274
0
LINE
8
BLACK
6
CONTINUOUS
10
5.9083
20
-3.43274
11
5.90883
21
-3.43203
0
LINE
8
BLACK
6
CONTINUOUS
10
5.90883
20
-3.43203
11
5.90885
21
-3.43198
0
LINE
8
BLACK
6
CONTINUOUS
10
5.90885
20
-3.43198
11
5.9126
21
-3.42823
0
LINE
8
BLACK
6
CONTINUOUS
10
5.9126
20
-3.42823
11
5.91344
21
-3.42764
0
LINE
8
BLACK
6
CONTINUOUS
10
5.91344
20
-3.42764
11
5.91362
21
-3.42762
0
LINE
8
BLACK
6
CONTINUOUS
10
5.91362
20
-3.42762
11
5.91376
21
-3.42751
0
LINE
8
BLACK
6
CONTINUOUS
10
5.91376
20
-3.42751
11
5.91938
21
-3.42564
0
LINE
8
BLACK
6
CONTINUOUS
10
5.91938
20
-3.42564
11
5.92025
21
-3.42551
0
LINE
8
BLACK
6
CONTINUOUS
10
5.92025
20
-3.42551
11
5.92031
21
-3.42549
0
LINE
8
BLACK
6
CONTINUOUS
10
5.92031
20
-3.42549
11
5.92594
21
-3.42549
0
LINE
8
BLACK
6
CONTINUOUS
10
5.92594
20
-3.42549
11
5.92695
21
-3.42567
0
LINE
8
BLACK
6
CONTINUOUS
10
5.9732
20
-3.42654
11
5.97389
21
-3.42844
0
LINE
8
BLACK
6
CONTINUOUS
10
5.97389
20
-3.42844
11
5.97389
21
-3.46781
0
LINE
8
BLACK
6
CONTINUOUS
10
5.97389
20
-3.46781
11
5.97371
21
-3.46882
0
LINE
8
BLACK
6
CONTINUOUS
10
5.97371
20
-3.46882
11
5.97353
21
-3.46903
0
LINE
8
BLACK
6
CONTINUOUS
10
5.97353
20
-3.46903
11
5.97348
21
-3.4693
0
LINE
8
BLACK
6
CONTINUOUS
10
5.97348
20
-3.4693
11
5.9729
21
-3.46978
0
LINE
8
BLACK
6
CONTINUOUS
10
5.9729
20
-3.46978
11
5.97241
21
-3.47037
0
LINE
8
BLACK
6
CONTINUOUS
10
5.97241
20
-3.47037
11
5.97214
21
-3.47041
0
LINE
8
BLACK
6
CONTINUOUS
10
5.97214
20
-3.47041
11
5.97193
21
-3.47059
0
LINE
8
BLACK
6
CONTINUOUS
10
5.97193
20
-3.47059
11
5.97117
21
-3.47059
0
LINE
8
BLACK
6
CONTINUOUS
10
5.97117
20
-3.47059
11
5.97042
21
-3.47072
0
LINE
8
BLACK
6
CONTINUOUS
10
5.97042
20
-3.47072
11
5.97018
21
-3.47058
0
LINE
8
BLACK
6
CONTINUOUS
10
5.97018
20
-3.47058
11
5.96991
21
-3.47058
0
LINE
8
BLACK
6
CONTINUOUS
10
5.96991
20
-3.47058
11
5.96933
21
-3.47009
0
LINE
8
BLACK
6
CONTINUOUS
10
5.96933
20
-3.47009
11
5.96867
21
-3.46971
0
LINE
8
BLACK
6
CONTINUOUS
10
5.96867
20
-3.46971
11
5.96858
21
-3.46945
0
LINE
8
BLACK
6
CONTINUOUS
10
5.96858
20
-3.46945
11
5.96837
21
-3.46928
0
LINE
8
BLACK
6
CONTINUOUS
10
5.96837
20
-3.46928
11
5.95139
21
-3.43956
0
LINE
8
BLACK
6
CONTINUOUS
10
5.95139
20
-3.43956
11
5.95139
21
-3.46781
0
LINE
8
BLACK
6
CONTINUOUS
10
5.95139
20
-3.46781
11
5.95121
21
-3.46882
0
LINE
8
BLACK
6
CONTINUOUS
10
5.95121
20
-3.46882
11
5.94991
21
-3.47037
0
LINE
8
BLACK
6
CONTINUOUS
10
5.94991
20
-3.47037
11
5.94792
21
-3.47072
0
LINE
8
BLACK
6
CONTINUOUS
10
5.94792
20
-3.47072
11
5.94617
21
-3.46971
0
LINE
8
BLACK
6
CONTINUOUS
10
5.94617
20
-3.46971
11
5.94548
21
-3.46781
0
LINE
8
BLACK
6
CONTINUOUS
10
5.94548
20
-3.46781
11
5.94548
21
-3.42844
0
LINE
8
BLACK
6
CONTINUOUS
10
5.94548
20
-3.42844
11
5.94566
21
-3.42743
0
LINE
8
BLACK
6
CONTINUOUS
10
5.94566
20
-3.42743
11
5.94584
21
-3.42722
0
LINE
8
BLACK
6
CONTINUOUS
10
5.94584
20
-3.42722
11
5.94589
21
-3.42695
0
LINE
8
BLACK
6
CONTINUOUS
10
5.94589
20
-3.42695
11
5.94647
21
-3.42647
0
LINE
8
BLACK
6
CONTINUOUS
10
5.94647
20
-3.42647
11
5.94696
21
-3.42588
0
LINE
8
BLACK
6
CONTINUOUS
10
5.94696
20
-3.42588
11
5.94723
21
-3.42584
0
LINE
8
BLACK
6
CONTINUOUS
10
5.94723
20
-3.42584
11
5.94744
21
-3.42566
0
LINE
8
BLACK
6
CONTINUOUS
10
5.94744
20
-3.42566
11
5.9482
21
-3.42566
0
LINE
8
BLACK
6
CONTINUOUS
10
5.9482
20
-3.42566
11
5.94895
21
-3.42553
0
LINE
8
BLACK
6
CONTINUOUS
10
5.94895
20
-3.42553
11
5.94919
21
-3.42567
0
LINE
8
BLACK
6
CONTINUOUS
10
5.94919
20
-3.42567
11
5.94946
21
-3.42567
0
LINE
8
BLACK
6
CONTINUOUS
10
5.94946
20
-3.42567
11
5.95004
21
-3.42616
0
LINE
8
BLACK
6
CONTINUOUS
10
5.95004
20
-3.42616
11
5.9507
21
-3.42654
0
LINE
8
BLACK
6
CONTINUOUS
10
5.9507
20
-3.42654
11
5.95079
21
-3.4268
0
LINE
8
BLACK
6
CONTINUOUS
10
5.95079
20
-3.4268
11
5.951
21
-3.42698
0
LINE
8
BLACK
6
CONTINUOUS
10
5.951
20
-3.42698
11
5.96798
21
-3.45669
0
LINE
8
BLACK
6
CONTINUOUS
10
5.96798
20
-3.45669
11
5.96798
21
-3.42844
0
LINE
8
BLACK
6
CONTINUOUS
10
5.96798
20
-3.42844
11
5.96816
21
-3.42743
0
LINE
8
BLACK
6
CONTINUOUS
10
5.96816
20
-3.42743
11
5.96946
21
-3.42588
0
LINE
8
BLACK
6
CONTINUOUS
10
5.96946
20
-3.42588
11
5.97145
21
-3.42553
0
LINE
8
BLACK
6
CONTINUOUS
10
5.97145
20
-3.42553
11
5.9732
21
-3.42654
0
LINE
8
BLACK
6
CONTINUOUS
10
5.1568
20
-3.43181
11
5.15774
21
-3.43222
0
LINE
8
BLACK
6
CONTINUOUS
10
5.15774
20
-3.43222
11
5.15793
21
-3.43247
0
LINE
8
BLACK
6
CONTINUOUS
10
5.15793
20
-3.43247
11
5.15821
21
-3.4326
0
LINE
8
BLACK
6
CONTINUOUS
10
5.15821
20
-3.4326
11
5.15851
21
-3.43326
0
LINE
8
BLACK
6
CONTINUOUS
10
5.15851
20
-3.43326
11
5.15895
21
-3.43384
0
LINE
8
BLACK
6
CONTINUOUS
10
5.15895
20
-3.43384
11
5.15893
21
-3.43415
0
LINE
8
BLACK
6
CONTINUOUS
10
5.15893
20
-3.43415
11
5.15906
21
-3.43443
0
LINE
8
BLACK
6
CONTINUOUS
10
5.15906
20
-3.43443
11
5.15887
21
-3.43513
0
LINE
8
BLACK
6
CONTINUOUS
10
5.15887
20
-3.43513
11
5.15883
21
-3.43586
0
LINE
8
BLACK
6
CONTINUOUS
10
5.15883
20
-3.43586
11
5.15861
21
-3.43608
0
LINE
8
BLACK
6
CONTINUOUS
10
5.15861
20
-3.43608
11
5.15853
21
-3.43638
0
LINE
8
BLACK
6
CONTINUOUS
10
5.15853
20
-3.43638
11
5.15794
21
-3.4368
0
LINE
8
BLACK
6
CONTINUOUS
10
5.15794
20
-3.4368
11
5.15744
21
-3.43732
0
LINE
8
BLACK
6
CONTINUOUS
10
5.15744
20
-3.43732
11
5.15713
21
-3.43736
0
LINE
8
BLACK
6
CONTINUOUS
10
5.15713
20
-3.43736
11
5.15688
21
-3.43754
0
LINE
8
BLACK
6
CONTINUOUS
10
5.15688
20
-3.43754
11
5.13946
21
-3.44218
0
LINE
8
BLACK
6
CONTINUOUS
10
5.13946
20
-3.44218
11
5.15688
21
-3.44683
0
LINE
8
BLACK
6
CONTINUOUS
10
5.15688
20
-3.44683
11
5.15781
21
-3.44726
0
LINE
8
BLACK
6
CONTINUOUS
10
5.15781
20
-3.44726
11
5.15799
21
-3.44751
0
LINE
8
BLACK
6
CONTINUOUS
10
5.15799
20
-3.44751
11
5.15826
21
-3.44765
0
LINE
8
BLACK
6
CONTINUOUS
10
5.15826
20
-3.44765
11
5.15855
21
-3.44832
0
LINE
8
BLACK
6
CONTINUOUS
10
5.15855
20
-3.44832
11
5.15897
21
-3.44891
0
LINE
8
BLACK
6
CONTINUOUS
10
5.15897
20
-3.44891
11
5.15894
21
-3.44922
0
LINE
8
BLACK
6
CONTINUOUS
10
5.15894
20
-3.44922
11
5.15906
21
-3.44951
0
LINE
8
BLACK
6
CONTINUOUS
10
5.15906
20
-3.44951
11
5.15886
21
-3.4502
0
LINE
8
BLACK
6
CONTINUOUS
10
5.15886
20
-3.4502
11
5.15879
21
-3.45093
0
LINE
8
BLACK
6
CONTINUOUS
10
5.15879
20
-3.45093
11
5.15858
21
-3.45115
0
LINE
8
BLACK
6
CONTINUOUS
10
5.15858
20
-3.45115
11
5.15849
21
-3.45144
0
LINE
8
BLACK
6
CONTINUOUS
10
5.15849
20
-3.45144
11
5.15788
21
-3.45184
0
LINE
8
BLACK
6
CONTINUOUS
10
5.15788
20
-3.45184
11
5.15737
21
-3.45236
0
LINE
8
BLACK
6
CONTINUOUS
10
5.15737
20
-3.45236
11
5.15706
21
-3.45238
0
LINE
8
BLACK
6
CONTINUOUS
10
5.15706
20
-3.45238
11
5.1568
21
-3.45255
0
LINE
8
BLACK
6
CONTINUOUS
10
5.1568
20
-3.45255
11
5.11743
21
-3.46193
0
LINE
8
BLACK
6
CONTINUOUS
10
5.11743
20
-3.46193
11
5.11641
21
-3.46199
0
LINE
8
BLACK
6
CONTINUOUS
10
5.11641
20
-3.46199
11
5.1146
21
-3.46108
0
LINE
8
BLACK
6
CONTINUOUS
10
5.1146
20
-3.46108
11
5.1138
21
-3.45923
0
LINE
8
BLACK
6
CONTINUOUS
10
5.1138
20
-3.45923
11
5.11438
21
-3.45729
0
LINE
8
BLACK
6
CONTINUOUS
10
5.11438
20
-3.45729
11
5.11606
21
-3.45618
0
LINE
8
BLACK
6
CONTINUOUS
10
5.11606
20
-3.45618
11
5.14405
21
-3.44952
0
LINE
8
BLACK
6
CONTINUOUS
10
5.14405
20
-3.44952
11
5.12724
21
-3.44504
0
LINE
8
BLACK
6
CONTINUOUS
10
5.12724
20
-3.44504
11
5.12631
21
-3.4446
0
LINE
8
BLACK
6
CONTINUOUS
10
5.12631
20
-3.4446
11
5.12615
21
-3.44438
0
LINE
8
BLACK
6
CONTINUOUS
10
5.12615
20
-3.44438
11
5.12591
21
-3.44427
0
LINE
8
BLACK
6
CONTINUOUS
10
5.12591
20
-3.44427
11
5.12558
21
-3.44357
0
LINE
8
BLACK
6
CONTINUOUS
10
5.12558
20
-3.44357
11
5.12514
21
-3.44295
0
LINE
8
BLACK
6
CONTINUOUS
10
5.12514
20
-3.44295
11
5.12517
21
-3.44268
0
LINE
8
BLACK
6
CONTINUOUS
10
5.12517
20
-3.44268
11
5.12505
21
-3.44244
0
LINE
8
BLACK
6
CONTINUOUS
10
5.12505
20
-3.44244
11
5.12525
21
-3.4417
0
LINE
8
BLACK
6
CONTINUOUS
10
5.12525
20
-3.4417
11
5.12532
21
-3.44094
0
LINE
8
BLACK
6
CONTINUOUS
10
5.12532
20
-3.44094
11
5.12551
21
-3.44075
0
LINE
8
BLACK
6
CONTINUOUS
10
5.12551
20
-3.44075
11
5.12558
21
-3.44049
0
LINE
8
BLACK
6
CONTINUOUS
10
5.12558
20
-3.44049
11
5.12621
21
-3.44005
0
LINE
8
BLACK
6
CONTINUOUS
10
5.12621
20
-3.44005
11
5.12674
21
-3.43951
0
LINE
8
BLACK
6
CONTINUOUS
10
5.12674
20
-3.43951
11
5.12701
21
-3.43948
0
LINE
8
BLACK
6
CONTINUOUS
10
5.12701
20
-3.43948
11
5.12724
21
-3.43933
0
LINE
8
BLACK
6
CONTINUOUS
10
5.12724
20
-3.43933
11
5.14405
21
-3.43485
0
LINE
8
BLACK
6
CONTINUOUS
10
5.14405
20
-3.43485
11
5.11606
21
-3.42818
0
LINE
8
BLACK
6
CONTINUOUS
10
5.11606
20
-3.42818
11
5.11512
21
-3.42777
0
LINE
8
BLACK
6
CONTINUOUS
10
5.11512
20
-3.42777
11
5.11392
21
-3.42615
0
LINE
8
BLACK
6
CONTINUOUS
10
5.11392
20
-3.42615
11
5.11404
21
-3.42414
0
LINE
8
BLACK
6
CONTINUOUS
10
5.11404
20
-3.42414
11
5.11542
21
-3.42267
0
LINE
8
BLACK
6
CONTINUOUS
10
5.11542
20
-3.42267
11
5.11743
21
-3.42244
0
LINE
8
BLACK
6
CONTINUOUS
10
5.11743
20
-3.42244
11
5.1568
21
-3.43181
0
LINE
8
BLACK
6
CONTINUOUS
10
5.20677
20
-3.39998
11
5.20746
21
-3.40187
0
LINE
8
BLACK
6
CONTINUOUS
10
5.20746
20
-3.40187
11
5.20746
21
-3.43187
0
LINE
8
BLACK
6
CONTINUOUS
10
5.20746
20
-3.43187
11
5.20728
21
-3.43288
0
LINE
8
BLACK
6
CONTINUOUS
10
5.20728
20
-3.43288
11
5.20598
21
-3.43443
0
LINE
8
BLACK
6
CONTINUOUS
10
5.20598
20
-3.43443
11
5.20399
21
-3.43478
0
LINE
8
BLACK
6
CONTINUOUS
10
5.20399
20
-3.43478
11
5.20224
21
-3.43377
0
LINE
8
BLACK
6
CONTINUOUS
10
5.20224
20
-3.43377
11
5.20155
21
-3.43187
0
LINE
8
BLACK
6
CONTINUOUS
10
5.20155
20
-3.43187
11
5.20155
21
-3.40187
0
LINE
8
BLACK
6
CONTINUOUS
10
5.20155
20
-3.40187
11
5.20173
21
-3.40086
0
LINE
8
BLACK
6
CONTINUOUS
10
5.20173
20
-3.40086
11
5.20303
21
-3.39932
0
LINE
8
BLACK
6
CONTINUOUS
10
5.20303
20
-3.39932
11
5.20502
21
-3.39897
0
LINE
8
BLACK
6
CONTINUOUS
10
5.20502
20
-3.39897
11
5.20677
21
-3.39998
0
LINE
8
BLACK
6
CONTINUOUS
10
5.60056
20
-3.4301
11
5.59901
21
-3.4288
0
LINE
8
BLACK
6
CONTINUOUS
10
5.59901
20
-3.4288
11
5.59866
21
-3.42681
0
LINE
8
BLACK
6
CONTINUOUS
10
5.59866
20
-3.42681
11
5.59967
21
-3.42506
0
LINE
8
BLACK
6
CONTINUOUS
10
5.59967
20
-3.42506
11
5.60157
21
-3.42437
0
LINE
8
BLACK
6
CONTINUOUS
10
5.60157
20
-3.42437
11
5.67843
21
-3.42437
0
LINE
8
BLACK
6
CONTINUOUS
10
5.67843
20
-3.42437
11
5.67944
21
-3.42455
0
LINE
8
BLACK
6
CONTINUOUS
10
5.67944
20
-3.42455
11
5.68099
21
-3.42585
0
LINE
8
BLACK
6
CONTINUOUS
10
5.68099
20
-3.42585
11
5.68134
21
-3.42784
0
LINE
8
BLACK
6
CONTINUOUS
10
5.68134
20
-3.42784
11
5.68033
21
-3.42958
0
LINE
8
BLACK
6
CONTINUOUS
10
5.68033
20
-3.42958
11
5.67843
21
-3.43028
0
LINE
8
BLACK
6
CONTINUOUS
10
5.67843
20
-3.43028
11
5.60157
21
-3.43028
0
LINE
8
BLACK
6
CONTINUOUS
10
5.60157
20
-3.43028
11
5.60056
21
-3.4301
0
LINE
8
BLACK
6
CONTINUOUS
10
5.15838
20
-3.38967
11
5.15907
21
-3.39156
0
LINE
8
BLACK
6
CONTINUOUS
10
5.15907
20
-3.39156
11
5.15907
21
-3.41031
0
LINE
8
BLACK
6
CONTINUOUS
10
5.15907
20
-3.41031
11
5.159
21
-3.41069
0
LINE
8
BLACK
6
CONTINUOUS
10
5.159
20
-3.41069
11
5.15903
21
-3.41082
0
LINE
8
BLACK
6
CONTINUOUS
10
5.15903
20
-3.41082
11
5.15896
21
-3.41094
0
LINE
8
BLACK
6
CONTINUOUS
10
5.15896
20
-3.41094
11
5.15889
21
-3.41132
0
LINE
8
BLACK
6
CONTINUOUS
10
5.15889
20
-3.41132
11
5.1584
21
-3.41191
0
LINE
8
BLACK
6
CONTINUOUS
10
5.1584
20
-3.41191
11
5.15802
21
-3.41257
0
LINE
8
BLACK
6
CONTINUOUS
10
5.15802
20
-3.41257
11
5.15776
21
-3.41266
0
LINE
8
BLACK
6
CONTINUOUS
10
5.15776
20
-3.41266
11
5.15759
21
-3.41287
0
LINE
8
BLACK
6
CONTINUOUS
10
5.15759
20
-3.41287
11
5.15684
21
-3.413
0
LINE
8
BLACK
6
CONTINUOUS
10
5.15684
20
-3.413
11
5.15612
21
-3.41326
0
LINE
8
BLACK
6
CONTINUOUS
10
5.15612
20
-3.41326
11
5.11675
21
-3.41326
0
LINE
8
BLACK
6
CONTINUOUS
10
5.11675
20
-3.41326
11
5.11636
21
-3.4132
0
LINE
8
BLACK
6
CONTINUOUS
10
5.11636
20
-3.4132
11
5.11623
21
-3.41322
0
LINE
8
BLACK
6
CONTINUOUS
10
5.11623
20
-3.41322
11
5.11612
21
-3.41315
0
LINE
8
BLACK
6
CONTINUOUS
10
5.11612
20
-3.41315
11
5.11574
21
-3.41309
0
LINE
8
BLACK
6
CONTINUOUS
10
5.11574
20
-3.41309
11
5.11515
21
-3.41259
0
LINE
8
BLACK
6
CONTINUOUS
10
5.11515
20
-3.41259
11
5.11449
21
-3.41221
0
LINE
8
BLACK
6
CONTINUOUS
10
5.11449
20
-3.41221
11
5.11439
21
-3.41196
0
LINE
8
BLACK
6
CONTINUOUS
10
5.11439
20
-3.41196
11
5.11419
21
-3.41179
0
LINE
8
BLACK
6
CONTINUOUS
10
5.11419
20
-3.41179
11
5.11406
21
-3.41103
0
LINE
8
BLACK
6
CONTINUOUS
10
5.11406
20
-3.41103
11
5.11379
21
-3.41031
0
LINE
8
BLACK
6
CONTINUOUS
10
5.11379
20
-3.41031
11
5.11379
21
-3.39156
0
LINE
8
BLACK
6
CONTINUOUS
10
5.11379
20
-3.39156
11
5.11397
21
-3.39055
0
LINE
8
BLACK
6
CONTINUOUS
10
5.11397
20
-3.39055
11
5.11527
21
-3.38901
0
LINE
8
BLACK
6
CONTINUOUS
10
5.11527
20
-3.38901
11
5.11726
21
-3.38866
0
LINE
8
BLACK
6
CONTINUOUS
10
5.11726
20
-3.38866
11
5.11901
21
-3.38967
0
LINE
8
BLACK
6
CONTINUOUS
10
5.11901
20
-3.38967
11
5.1197
21
-3.39156
0
LINE
8
BLACK
6
CONTINUOUS
10
5.1197
20
-3.39156
11
5.1197
21
-3.40736
0
LINE
8
BLACK
6
CONTINUOUS
10
5.1197
20
-3.40736
11
5.13254
21
-3.40736
0
LINE
8
BLACK
6
CONTINUOUS
10
5.13254
20
-3.40736
11
5.13254
21
-3.39719
0
LINE
8
BLACK
6
CONTINUOUS
10
5.13254
20
-3.39719
11
5.13272
21
-3.39618
0
LINE
8
BLACK
6
CONTINUOUS
10
5.13272
20
-3.39618
11
5.13402
21
-3.39463
0
LINE
8
BLACK
6
CONTINUOUS
10
5.13402
20
-3.39463
11
5.13601
21
-3.39428
0
LINE
8
BLACK
6
CONTINUOUS
10
5.13601
20
-3.39428
11
5.13776
21
-3.39529
0
LINE
8
BLACK
6
CONTINUOUS
10
5.13776
20
-3.39529
11
5.13845
21
-3.39719
0
LINE
8
BLACK
6
CONTINUOUS
10
5.13845
20
-3.39719
11
5.13845
21
-3.40736
0
LINE
8
BLACK
6
CONTINUOUS
10
5.13845
20
-3.40736
11
5.15316
21
-3.40736
0
LINE
8
BLACK
6
CONTINUOUS
10
5.15316
20
-3.40736
11
5.15316
21
-3.39156
0
LINE
8
BLACK
6
CONTINUOUS
10
5.15316
20
-3.39156
11
5.15334
21
-3.39055
0
LINE
8
BLACK
6
CONTINUOUS
10
5.15334
20
-3.39055
11
5.15464
21
-3.38901
0
LINE
8
BLACK
6
CONTINUOUS
10
5.15464
20
-3.38901
11
5.15663
21
-3.38866
0
LINE
8
BLACK
6
CONTINUOUS
10
5.15663
20
-3.38866
11
5.15838
21
-3.38967
0
LINE
8
BLACK
6
CONTINUOUS
10
5.21301
20
-3.35973
11
5.21315
21
-3.35984
0
LINE
8
BLACK
6
CONTINUOUS
10
5.21315
20
-3.35984
11
5.21332
21
-3.35986
0
LINE
8
BLACK
6
CONTINUOUS
10
5.21332
20
-3.35986
11
5.21707
21
-3.36174
0
LINE
8
BLACK
6
CONTINUOUS
10
5.21707
20
-3.36174
11
5.21778
21
-3.36226
0
LINE
8
BLACK
6
CONTINUOUS
10
5.21778
20
-3.36226
11
5.21784
21
-3.36229
0
LINE
8
BLACK
6
CONTINUOUS
10
5.21784
20
-3.36229
11
5.21972
21
-3.36417
0
LINE
8
BLACK
6
CONTINUOUS
10
5.21972
20
-3.36417
11
5.22022
21
-3.36489
0
LINE
8
BLACK
6
CONTINUOUS
10
5.22022
20
-3.36489
11
5.22027
21
-3.36493
0
LINE
8
BLACK
6
CONTINUOUS
10
5.22027
20
-3.36493
11
5.22214
21
-3.36868
0
LINE
8
BLACK
6
CONTINUOUS
10
5.22214
20
-3.36868
11
5.22244
21
-3.36967
0
LINE
8
BLACK
6
CONTINUOUS
10
5.22244
20
-3.36967
11
5.2224
21
-3.36984
0
LINE
8
BLACK
6
CONTINUOUS
10
5.2224
20
-3.36984
11
5.22246
21
-3.37
0
LINE
8
BLACK
6
CONTINUOUS
10
5.22246
20
-3.37
11
5.22246
21
-3.38125
0
LINE
8
BLACK
6
CONTINUOUS
10
5.22246
20
-3.38125
11
5.22228
21
-3.38226
0
LINE
8
BLACK
6
CONTINUOUS
10
5.22228
20
-3.38226
11
5.22216
21
-3.3824
0
LINE
8
BLACK
6
CONTINUOUS
10
5.22216
20
-3.3824
11
5.22214
21
-3.38257
0
LINE
8
BLACK
6
CONTINUOUS
10
5.22214
20
-3.38257
11
5.22027
21
-3.38632
0
LINE
8
BLACK
6
CONTINUOUS
10
5.22027
20
-3.38632
11
5.21974
21
-3.38703
0
LINE
8
BLACK
6
CONTINUOUS
10
5.21974
20
-3.38703
11
5.21972
21
-3.38709
0
LINE
8
BLACK
6
CONTINUOUS
10
5.21972
20
-3.38709
11
5.21784
21
-3.38896
0
LINE
8
BLACK
6
CONTINUOUS
10
5.21784
20
-3.38896
11
5.217
21
-3.38955
0
LINE
8
BLACK
6
CONTINUOUS
10
5.217
20
-3.38955
11
5.21499
21
-3.38973
0
LINE
8
BLACK
6
CONTINUOUS
10
5.21499
20
-3.38973
11
5.21333
21
-3.38857
0
LINE
8
BLACK
6
CONTINUOUS
10
5.21333
20
-3.38857
11
5.21281
21
-3.38662
0
LINE
8
BLACK
6
CONTINUOUS
10
5.21281
20
-3.38662
11
5.21367
21
-3.38479
0
LINE
8
BLACK
6
CONTINUOUS
10
5.21367
20
-3.38479
11
5.2152
21
-3.38325
0
LINE
8
BLACK
6
CONTINUOUS
10
5.2152
20
-3.38325
11
5.21655
21
-3.38056
0
LINE
8
BLACK
6
CONTINUOUS
10
5.21655
20
-3.38056
11
5.21655
21
-3.3707
0
LINE
8
BLACK
6
CONTINUOUS
10
5.21655
20
-3.3707
11
5.2152
21
-3.368
0
LINE
8
BLACK
6
CONTINUOUS
10
5.2152
20
-3.368
11
5.214
21
-3.36681
0
LINE
8
BLACK
6
CONTINUOUS
10
5.214
20
-3.36681
11
5.21131
21
-3.36546
0
LINE
8
BLACK
6
CONTINUOUS
10
5.21131
20
-3.36546
11
5.20333
21
-3.36546
0
LINE
8
BLACK
6
CONTINUOUS
10
5.20333
20
-3.36546
11
5.20063
21
-3.36681
0
LINE
8
BLACK
6
CONTINUOUS
10
5.20063
20
-3.36681
11
5.19943
21
-3.368
0
LINE
8
BLACK
6
CONTINUOUS
10
5.19943
20
-3.368
11
5.19808
21
-3.3707
0
LINE
8
BLACK
6
CONTINUOUS
10
5.19808
20
-3.3707
11
5.19808
21
-3.37563
0
LINE
8
BLACK
6
CONTINUOUS
10
5.19808
20
-3.37563
11
5.19801
21
-3.37607
0
LINE
8
BLACK
6
CONTINUOUS
10
5.19801
20
-3.37607
11
5.19803
21
-3.3762
0
LINE
8
BLACK
6
CONTINUOUS
10
5.19803
20
-3.3762
11
5.19796
21
-3.37631
0
LINE
8
BLACK
6
CONTINUOUS
10
5.19796
20
-3.37631
11
5.19791
21
-3.37664
0
LINE
8
BLACK
6
CONTINUOUS
10
5.19791
20
-3.37664
11
5.19739
21
-3.37725
0
LINE
8
BLACK
6
CONTINUOUS
10
5.19739
20
-3.37725
11
5.19698
21
-3.37793
0
LINE
8
BLACK
6
CONTINUOUS
10
5.19698
20
-3.37793
11
5.19676
21
-3.378
0
LINE
8
BLACK
6
CONTINUOUS
10
5.19676
20
-3.378
11
5.19661
21
-3.37819
0
LINE
8
BLACK
6
CONTINUOUS
10
5.19661
20
-3.37819
11
5.19582
21
-3.37832
0
LINE
8
BLACK
6
CONTINUOUS
10
5.19582
20
-3.37832
11
5.19507
21
-3.37858
0
LINE
8
BLACK
6
CONTINUOUS
10
5.19507
20
-3.37858
11
5.19485
21
-3.3785
0
LINE
8
BLACK
6
CONTINUOUS
10
5.19485
20
-3.3785
11
5.19462
21
-3.37854
0
LINE
8
BLACK
6
CONTINUOUS
10
5.19462
20
-3.37854
11
5.19393
21
-3.37814
0
LINE
8
BLACK
6
CONTINUOUS
10
5.19393
20
-3.37814
11
5.19319
21
-3.37785
0
LINE
8
BLACK
6
CONTINUOUS
10
5.19319
20
-3.37785
11
5.18309
21
-3.36901
0
LINE
8
BLACK
6
CONTINUOUS
10
5.18309
20
-3.36901
11
5.18309
21
-3.38688
0
LINE
8
BLACK
6
CONTINUOUS
10
5.18309
20
-3.38688
11
5.18291
21
-3.38789
0
LINE
8
BLACK
6
CONTINUOUS
10
5.18291
20
-3.38789
11
5.18161
21
-3.38943
0
LINE
8
BLACK
6
CONTINUOUS
10
5.18161
20
-3.38943
11
5.17962
21
-3.38978
0
LINE
8
BLACK
6
CONTINUOUS
10
5.17962
20
-3.38978
11
5.17787
21
-3.38877
0
LINE
8
BLACK
6
CONTINUOUS
10
5.17787
20
-3.38877
11
5.17718
21
-3.38688
0
LINE
8
BLACK
6
CONTINUOUS
10
5.17718
20
-3.38688
11
5.17718
21
-3.3625
0
LINE
8
BLACK
6
CONTINUOUS
10
5.17718
20
-3.3625
11
5.17726
21
-3.36207
0
LINE
8
BLACK
6
CONTINUOUS
10
5.17726
20
-3.36207
11
5.17724
21
-3.36193
0
LINE
8
BLACK
6
CONTINUOUS
10
5.17724
20
-3.36193
11
5.1773
21
-3.36183
0
LINE
8
BLACK
6
CONTINUOUS
10
5.1773
20
-3.36183
11
5.17736
21
-3.36149
0
LINE
8
BLACK
6
CONTINUOUS
10
5.17736
20
-3.36149
11
5.17787
21
-3.36088
0
LINE
8
BLACK
6
CONTINUOUS
10
5.17787
20
-3.36088
11
5.17828
21
-3.3602
0
LINE
8
BLACK
6
CONTINUOUS
10
5.17828
20
-3.3602
11
5.17851
21
-3.36013
0
LINE
8
BLACK
6
CONTINUOUS
10
5.17851
20
-3.36013
11
5.17866
21
-3.35995
0
LINE
8
BLACK
6
CONTINUOUS
10
5.17866
20
-3.35995
11
5.17944
21
-3.35981
0
LINE
8
BLACK
6
CONTINUOUS
10
5.17944
20
-3.35981
11
5.18019
21
-3.35955
0
LINE
8
BLACK
6
CONTINUOUS
10
5.18019
20
-3.35955
11
5.18041
21
-3.35964
0
LINE
8
BLACK
6
CONTINUOUS
10
5.18041
20
-3.35964
11
5.18065
21
-3.3596
0
LINE
8
BLACK
6
CONTINUOUS
10
5.18065
20
-3.3596
11
5.18134
21
-3.35999
0
LINE
8
BLACK
6
CONTINUOUS
10
5.18134
20
-3.35999
11
5.18208
21
-3.36028
0
LINE
8
BLACK
6
CONTINUOUS
10
5.18208
20
-3.36028
11
5.19231
21
-3.36924
0
LINE
8
BLACK
6
CONTINUOUS
10
5.19231
20
-3.36924
11
5.19236
21
-3.36899
0
LINE
8
BLACK
6
CONTINUOUS
10
5.19236
20
-3.36899
11
5.19247
21
-3.36886
0
LINE
8
BLACK
6
CONTINUOUS
10
5.19247
20
-3.36886
11
5.19249
21
-3.36868
0
LINE
8
BLACK
6
CONTINUOUS
10
5.19249
20
-3.36868
11
5.19436
21
-3.36493
0
LINE
8
BLACK
6
CONTINUOUS
10
5.19436
20
-3.36493
11
5.19489
21
-3.36422
0
LINE
8
BLACK
6
CONTINUOUS
10
5.19489
20
-3.36422
11
5.19492
21
-3.36417
0
LINE
8
BLACK
6
CONTINUOUS
10
5.19492
20
-3.36417
11
5.19679
21
-3.36229
0
LINE
8
BLACK
6
CONTINUOUS
10
5.19679
20
-3.36229
11
5.19752
21
-3.36179
0
LINE
8
BLACK
6
CONTINUOUS
10
5.19752
20
-3.36179
11
5.19756
21
-3.36174
0
LINE
8
BLACK
6
CONTINUOUS
10
5.19756
20
-3.36174
11
5.20131
21
-3.35986
0
LINE
8
BLACK
6
CONTINUOUS
10
5.20131
20
-3.35986
11
5.20229
21
-3.35957
0
LINE
8
BLACK
6
CONTINUOUS
10
5.20229
20
-3.35957
11
5.20246
21
-3.35961
0
LINE
8
BLACK
6
CONTINUOUS
10
5.20246
20
-3.35961
11
5.20263
21
-3.35955
0
LINE
8
BLACK
6
CONTINUOUS
10
5.20263
20
-3.35955
11
5.212
21
-3.35955
0
LINE
8
BLACK
6
CONTINUOUS
10
5.212
20
-3.35955
11
5.21301
21
-3.35973
0
LINE
8
BLACK
6
CONTINUOUS
10
5.6643
20
-3.33564
11
5.66437
21
-3.33564
0
LINE
8
BLACK
6
CONTINUOUS
10
5.66437
20
-3.33564
11
5.66999
21
-3.33751
0
LINE
8
BLACK
6
CONTINUOUS
10
5.66999
20
-3.33751
11
5.67089
21
-3.338
0
LINE
8
BLACK
6
CONTINUOUS
10
5.67089
20
-3.338
11
5.67099
21
-3.33815
0
LINE
8
BLACK
6
CONTINUOUS
10
5.67099
20
-3.33815
11
5.67115
21
-3.33823
0
LINE
8
BLACK
6
CONTINUOUS
10
5.67115
20
-3.33823
11
5.67302
21
-3.3401
0
LINE
8
BLACK
6
CONTINUOUS
10
5.67302
20
-3.3401
11
5.67361
21
-3.34094
0
LINE
8
BLACK
6
CONTINUOUS
10
5.67361
20
-3.34094
11
5.67379
21
-3.34295
0
LINE
8
BLACK
6
CONTINUOUS
10
5.67379
20
-3.34295
11
5.67263
21
-3.34461
0
LINE
8
BLACK
6
CONTINUOUS
10
5.67263
20
-3.34461
11
5.67068
21
-3.34513
0
LINE
8
BLACK
6
CONTINUOUS
10
5.67068
20
-3.34513
11
5.66885
21
-3.34428
0
LINE
8
BLACK
6
CONTINUOUS
10
5.66885
20
-3.34428
11
5.66746
21
-3.3429
0
LINE
8
BLACK
6
CONTINUOUS
10
5.66746
20
-3.3429
11
5.66296
21
-3.34139
0
LINE
8
BLACK
6
CONTINUOUS
10
5.66296
20
-3.34139
11
5.66016
21
-3.34139
0
LINE
8
BLACK
6
CONTINUOUS
10
5.66016
20
-3.34139
11
5.65566
21
-3.3429
0
LINE
8
BLACK
6
CONTINUOUS
10
5.65566
20
-3.3429
11
5.65274
21
-3.34581
0
LINE
8
BLACK
6
CONTINUOUS
10
5.65274
20
-3.34581
11
5.65122
21
-3.34884
0
LINE
8
BLACK
6
CONTINUOUS
10
5.65122
20
-3.34884
11
5.64951
21
-3.35568
0
LINE
8
BLACK
6
CONTINUOUS
10
5.64951
20
-3.35568
11
5.64951
21
-3.36057
0
LINE
8
BLACK
6
CONTINUOUS
10
5.64951
20
-3.36057
11
5.65122
21
-3.36741
0
LINE
8
BLACK
6
CONTINUOUS
10
5.65122
20
-3.36741
11
5.65274
21
-3.37044
0
LINE
8
BLACK
6
CONTINUOUS
10
5.65274
20
-3.37044
11
5.65566
21
-3.37335
0
LINE
8
BLACK
6
CONTINUOUS
10
5.65566
20
-3.37335
11
5.66016
21
-3.37486
0
LINE
8
BLACK
6
CONTINUOUS
10
5.66016
20
-3.37486
11
5.66296
21
-3.37486
0
LINE
8
BLACK
6
CONTINUOUS
10
5.66296
20
-3.37486
11
5.66746
21
-3.37335
0
LINE
8
BLACK
6
CONTINUOUS
10
5.66746
20
-3.37335
11
5.66885
21
-3.37197
0
LINE
8
BLACK
6
CONTINUOUS
10
5.66885
20
-3.37197
11
5.66969
21
-3.37138
0
LINE
8
BLACK
6
CONTINUOUS
10
5.66969
20
-3.37138
11
5.6717
21
-3.37121
0
LINE
8
BLACK
6
CONTINUOUS
10
5.6717
20
-3.37121
11
5.67335
21
-3.37237
0
LINE
8
BLACK
6
CONTINUOUS
10
5.67335
20
-3.37237
11
5.67388
21
-3.37432
0
LINE
8
BLACK
6
CONTINUOUS
10
5.67388
20
-3.37432
11
5.67302
21
-3.37615
0
LINE
8
BLACK
6
CONTINUOUS
10
5.67302
20
-3.37615
11
5.67115
21
-3.37802
0
LINE
8
BLACK
6
CONTINUOUS
10
5.67115
20
-3.37802
11
5.67031
21
-3.37861
0
LINE
8
BLACK
6
CONTINUOUS
10
5.67031
20
-3.37861
11
5.67013
21
-3.37863
0
LINE
8
BLACK
6
CONTINUOUS
10
5.67013
20
-3.37863
11
5.66999
21
-3.37874
0
LINE
8
BLACK
6
CONTINUOUS
10
5.66999
20
-3.37874
11
5.66437
21
-3.38061
0
LINE
8
BLACK
6
CONTINUOUS
10
5.66437
20
-3.38061
11
5.6635
21
-3.38074
0
LINE
8
BLACK
6
CONTINUOUS
10
5.6635
20
-3.38074
11
5.66343
21
-3.38076
0
LINE
8
BLACK
6
CONTINUOUS
10
5.66343
20
-3.38076
11
5.65969
21
-3.38076
0
LINE
8
BLACK
6
CONTINUOUS
10
5.65969
20
-3.38076
11
5.65882
21
-3.38061
0
LINE
8
BLACK
6
CONTINUOUS
10
5.65882
20
-3.38061
11
5.65875
21
-3.38061
0
LINE
8
BLACK
6
CONTINUOUS
10
5.65875
20
-3.38061
11
5.65313
21
-3.37874
0
LINE
8
BLACK
6
CONTINUOUS
10
5.65313
20
-3.37874
11
5.65223
21
-3.37825
0
LINE
8
BLACK
6
CONTINUOUS
10
5.65223
20
-3.37825
11
5.65213
21
-3.3781
0
LINE
8
BLACK
6
CONTINUOUS
10
5.65213
20
-3.3781
11
5.65197
21
-3.37802
0
LINE
8
BLACK
6
CONTINUOUS
10
5.65197
20
-3.37802
11
5.64822
21
-3.37427
0
LINE
8
BLACK
6
CONTINUOUS
10
5.64822
20
-3.37427
11
5.64772
21
-3.37355
0
LINE
8
BLACK
6
CONTINUOUS
10
5.64772
20
-3.37355
11
5.64767
21
-3.37351
0
LINE
8
BLACK
6
CONTINUOUS
10
5.64767
20
-3.37351
11
5.6458
21
-3.36976
0
LINE
8
BLACK
6
CONTINUOUS
10
5.6458
20
-3.36976
11
5.64565
21
-3.36927
0
LINE
8
BLACK
6
CONTINUOUS
10
5.64565
20
-3.36927
11
5.64557
21
-3.36915
0
LINE
8
BLACK
6
CONTINUOUS
10
5.64557
20
-3.36915
11
5.6437
21
-3.36165
0
LINE
8
BLACK
6
CONTINUOUS
10
5.6437
20
-3.36165
11
5.64366
21
-3.36107
0
LINE
8
BLACK
6
CONTINUOUS
10
5.64366
20
-3.36107
11
5.64361
21
-3.36094
0
LINE
8
BLACK
6
CONTINUOUS
10
5.64361
20
-3.36094
11
5.64361
21
-3.35531
0
LINE
8
BLACK
6
CONTINUOUS
10
5.64361
20
-3.35531
11
5.64371
21
-3.35473
0
LINE
8
BLACK
6
CONTINUOUS
10
5.64371
20
-3.35473
11
5.6437
21
-3.3546
0
LINE
8
BLACK
6
CONTINUOUS
10
5.6437
20
-3.3546
11
5.64557
21
-3.3471
0
LINE
8
BLACK
6
CONTINUOUS
10
5.64557
20
-3.3471
11
5.64578
21
-3.34663
0
LINE
8
BLACK
6
CONTINUOUS
10
5.64578
20
-3.34663
11
5.6458
21
-3.34649
0
LINE
8
BLACK
6
CONTINUOUS
10
5.6458
20
-3.34649
11
5.64767
21
-3.34274
0
LINE
8
BLACK
6
CONTINUOUS
10
5.64767
20
-3.34274
11
5.6482
21
-3.34203
0
LINE
8
BLACK
6
CONTINUOUS
10
5.6482
20
-3.34203
11
5.64822
21
-3.34198
0
LINE
8
BLACK
6
CONTINUOUS
10
5.64822
20
-3.34198
11
5.65197
21
-3.33823
0
LINE
8
BLACK
6
CONTINUOUS
10
5.65197
20
-3.33823
11
5.65281
21
-3.33764
0
LINE
8
BLACK
6
CONTINUOUS
10
5.65281
20
-3.33764
11
5.65299
21
-3.33762
0
LINE
8
BLACK
6
CONTINUOUS
10
5.65299
20
-3.33762
11
5.65313
21
-3.33751
0
LINE
8
BLACK
6
CONTINUOUS
10
5.65313
20
-3.33751
11
5.65875
21
-3.33564
0
LINE
8
BLACK
6
CONTINUOUS
10
5.65875
20
-3.33564
11
5.65962
21
-3.33551
0
LINE
8
BLACK
6
CONTINUOUS
10
5.65962
20
-3.33551
11
5.65969
21
-3.33549
0
LINE
8
BLACK
6
CONTINUOUS
10
5.65969
20
-3.33549
11
5.66343
21
-3.33549
0
LINE
8
BLACK
6
CONTINUOUS
10
5.66343
20
-3.33549
11
5.6643
21
-3.33564
0
LINE
8
BLACK
6
CONTINUOUS
10
5.62681
20
-3.33564
11
5.62687
21
-3.33564
0
LINE
8
BLACK
6
CONTINUOUS
10
5.62687
20
-3.33564
11
5.6325
21
-3.33751
0
LINE
8
BLACK
6
CONTINUOUS
10
5.6325
20
-3.33751
11
5.6334
21
-3.338
0
LINE
8
BLACK
6
CONTINUOUS
10
5.6334
20
-3.338
11
5.63446
21
-3.33972
0
LINE
8
BLACK
6
CONTINUOUS
10
5.63446
20
-3.33972
11
5.63416
21
-3.34172
0
LINE
8
BLACK
6
CONTINUOUS
10
5.63416
20
-3.34172
11
5.63265
21
-3.34306
0
LINE
8
BLACK
6
CONTINUOUS
10
5.63265
20
-3.34306
11
5.63063
21
-3.34312
0
LINE
8
BLACK
6
CONTINUOUS
10
5.63063
20
-3.34312
11
5.62546
21
-3.34139
0
LINE
8
BLACK
6
CONTINUOUS
10
5.62546
20
-3.34139
11
5.61726
21
-3.34139
0
LINE
8
BLACK
6
CONTINUOUS
10
5.61726
20
-3.34139
11
5.61456
21
-3.34274
0
LINE
8
BLACK
6
CONTINUOUS
10
5.61456
20
-3.34274
11
5.61337
21
-3.34394
0
LINE
8
BLACK
6
CONTINUOUS
10
5.61337
20
-3.34394
11
5.61202
21
-3.34664
0
LINE
8
BLACK
6
CONTINUOUS
10
5.61202
20
-3.34664
11
5.61202
21
-3.34899
0
LINE
8
BLACK
6
CONTINUOUS
10
5.61202
20
-3.34899
11
5.61337
21
-3.35169
0
LINE
8
BLACK
6
CONTINUOUS
10
5.61337
20
-3.35169
11
5.61456
21
-3.35289
0
LINE
8
BLACK
6
CONTINUOUS
10
5.61456
20
-3.35289
11
5.6176
21
-3.3544
0
LINE
8
BLACK
6
CONTINUOUS
10
5.6176
20
-3.3544
11
5.62478
21
-3.3562
0
LINE
8
BLACK
6
CONTINUOUS
10
5.62478
20
-3.3562
11
5.62525
21
-3.35641
0
LINE
8
BLACK
6
CONTINUOUS
10
5.62525
20
-3.35641
11
5.62538
21
-3.35642
0
LINE
8
BLACK
6
CONTINUOUS
10
5.62538
20
-3.35642
11
5.62913
21
-3.3583
0
LINE
8
BLACK
6
CONTINUOUS
10
5.62913
20
-3.3583
11
5.62984
21
-3.35882
0
LINE
8
BLACK
6
CONTINUOUS
10
5.62984
20
-3.35882
11
5.6299
21
-3.35885
0
LINE
8
BLACK
6
CONTINUOUS
10
5.6299
20
-3.35885
11
5.63178
21
-3.36072
0
LINE
8
BLACK
6
CONTINUOUS
10
5.63178
20
-3.36072
11
5.63228
21
-3.36145
0
LINE
8
BLACK
6
CONTINUOUS
10
5.63228
20
-3.36145
11
5.63233
21
-3.36149
0
LINE
8
BLACK
6
CONTINUOUS
10
5.63233
20
-3.36149
11
5.6342
21
-3.36524
0
LINE
8
BLACK
6
CONTINUOUS
10
5.6342
20
-3.36524
11
5.6345
21
-3.36622
0
LINE
8
BLACK
6
CONTINUOUS
10
5.6345
20
-3.36622
11
5.63446
21
-3.3664
0
LINE
8
BLACK
6
CONTINUOUS
10
5.63446
20
-3.3664
11
5.63452
21
-3.36656
0
LINE
8
BLACK
6
CONTINUOUS
10
5.63452
20
-3.36656
11
5.63452
21
-3.37031
0
LINE
8
BLACK
6
CONTINUOUS
10
5.63452
20
-3.37031
11
5.63434
21
-3.37132
0
LINE
8
BLACK
6
CONTINUOUS
10
5.63434
20
-3.37132
11
5.63422
21
-3.37146
0
LINE
8
BLACK
6
CONTINUOUS
10
5.63422
20
-3.37146
11
5.6342
21
-3.37163
0
LINE
8
BLACK
6
CONTINUOUS
10
5.6342
20
-3.37163
11
5.63233
21
-3.37538
0
LINE
8
BLACK
6
CONTINUOUS
10
5.63233
20
-3.37538
11
5.6318
21
-3.37609
0
LINE
8
BLACK
6
CONTINUOUS
10
5.6318
20
-3.37609
11
5.63178
21
-3.37615
0
LINE
8
BLACK
6
CONTINUOUS
10
5.63178
20
-3.37615
11
5.6299
21
-3.37802
0
LINE
8
BLACK
6
CONTINUOUS
10
5.6299
20
-3.37802
11
5.62918
21
-3.37853
0
LINE
8
BLACK
6
CONTINUOUS
10
5.62918
20
-3.37853
11
5.62913
21
-3.37858
0
LINE
8
BLACK
6
CONTINUOUS
10
5.62913
20
-3.37858
11
5.62538
21
-3.38045
0
LINE
8
BLACK
6
CONTINUOUS
10
5.62538
20
-3.38045
11
5.6244
21
-3.38074
0
LINE
8
BLACK
6
CONTINUOUS
10
5.6244
20
-3.38074
11
5.62423
21
-3.3807
0
LINE
8
BLACK
6
CONTINUOUS
10
5.62423
20
-3.3807
11
5.62406
21
-3.38076
0
LINE
8
BLACK
6
CONTINUOUS
10
5.62406
20
-3.38076
11
5.61469
21
-3.38076
0
LINE
8
BLACK
6
CONTINUOUS
10
5.61469
20
-3.38076
11
5.61382
21
-3.38061
0
LINE
8
BLACK
6
CONTINUOUS
10
5.61382
20
-3.38061
11
5.61376
21
-3.38061
0
LINE
8
BLACK
6
CONTINUOUS
10
5.61376
20
-3.38061
11
5.60813
21
-3.37874
0
LINE
8
BLACK
6
CONTINUOUS
10
5.60813
20
-3.37874
11
5.60723
21
-3.37825
0
LINE
8
BLACK
6
CONTINUOUS
10
5.60723
20
-3.37825
11
5.60617
21
-3.37653
0
LINE
8
BLACK
6
CONTINUOUS
10
5.60617
20
-3.37653
11
5.60647
21
-3.37453
0
LINE
8
BLACK
6
CONTINUOUS
10
5.60647
20
-3.37453
11
5.60798
21
-3.37319
0
LINE
8
BLACK
6
CONTINUOUS
10
5.60798
20
-3.37319
11
5.61
21
-3.37313
0
LINE
8
BLACK
6
CONTINUOUS
10
5.61
20
-3.37313
11
5.61517
21
-3.37486
0
LINE
8
BLACK
6
CONTINUOUS
10
5.61517
20
-3.37486
11
5.62337
21
-3.37486
0
LINE
8
BLACK
6
CONTINUOUS
10
5.62337
20
-3.37486
11
5.62606
21
-3.37351
0
LINE
8
BLACK
6
CONTINUOUS
10
5.62606
20
-3.37351
11
5.62726
21
-3.37231
0
LINE
8
BLACK
6
CONTINUOUS
10
5.62726
20
-3.37231
11
5.62861
21
-3.36961
0
LINE
8
BLACK
6
CONTINUOUS
10
5.62861
20
-3.36961
11
5.62861
21
-3.36726
0
LINE
8
BLACK
6
CONTINUOUS
10
5.62861
20
-3.36726
11
5.62726
21
-3.36456
0
LINE
8
BLACK
6
CONTINUOUS
10
5.62726
20
-3.36456
11
5.62606
21
-3.36336
0
LINE
8
BLACK
6
CONTINUOUS
10
5.62606
20
-3.36336
11
5.62303
21
-3.36185
0
LINE
8
BLACK
6
CONTINUOUS
10
5.62303
20
-3.36185
11
5.61585
21
-3.36005
0
LINE
8
BLACK
6
CONTINUOUS
10
5.61585
20
-3.36005
11
5.61538
21
-3.35984
0
LINE
8
BLACK
6
CONTINUOUS
10
5.61538
20
-3.35984
11
5.61524
21
-3.35983
0
LINE
8
BLACK
6
CONTINUOUS
10
5.61524
20
-3.35983
11
5.6115
21
-3.35795
0
LINE
8
BLACK
6
CONTINUOUS
10
5.6115
20
-3.35795
11
5.61079
21
-3.35743
0
LINE
8
BLACK
6
CONTINUOUS
10
5.61079
20
-3.35743
11
5.61073
21
-3.3574
0
LINE
8
BLACK
6
CONTINUOUS
10
5.61073
20
-3.3574
11
5.60885
21
-3.35553
0
LINE
8
BLACK
6
CONTINUOUS
10
5.60885
20
-3.35553
11
5.60835
21
-3.3548
0
LINE
8
BLACK
6
CONTINUOUS
10
5.60835
20
-3.3548
11
5.6083
21
-3.35476
0
LINE
8
BLACK
6
CONTINUOUS
10
5.6083
20
-3.35476
11
5.60643
21
-3.35101
0
LINE
8
BLACK
6
CONTINUOUS
10
5.60643
20
-3.35101
11
5.60613
21
-3.35003
0
LINE
8
BLACK
6
CONTINUOUS
10
5.60613
20
-3.35003
11
5.60617
21
-3.34985
0
LINE
8
BLACK
6
CONTINUOUS
10
5.60617
20
-3.34985
11
5.60611
21
-3.34969
0
LINE
8
BLACK
6
CONTINUOUS
10
5.60611
20
-3.34969
11
5.60611
21
-3.34594
0
LINE
8
BLACK
6
CONTINUOUS
10
5.60611
20
-3.34594
11
5.60629
21
-3.34493
0
LINE
8
BLACK
6
CONTINUOUS
10
5.60629
20
-3.34493
11
5.60641
21
-3.34479
0
LINE
8
BLACK
6
CONTINUOUS
10
5.60641
20
-3.34479
11
5.60643
21
-3.34462
0
LINE
8
BLACK
6
CONTINUOUS
10
5.60643
20
-3.34462
11
5.6083
21
-3.34087
0
LINE
8
BLACK
6
CONTINUOUS
10
5.6083
20
-3.34087
11
5.60883
21
-3.34016
0
LINE
8
BLACK
6
CONTINUOUS
10
5.60883
20
-3.34016
11
5.60885
21
-3.3401
0
LINE
8
BLACK
6
CONTINUOUS
10
5.60885
20
-3.3401
11
5.61073
21
-3.33823
0
LINE
8
BLACK
6
CONTINUOUS
10
5.61073
20
-3.33823
11
5.61145
21
-3.33772
0
LINE
8
BLACK
6
CONTINUOUS
10
5.61145
20
-3.33772
11
5.6115
21
-3.33767
0
LINE
8
BLACK
6
CONTINUOUS
10
5.6115
20
-3.33767
11
5.61524
21
-3.3358
0
LINE
8
BLACK
6
CONTINUOUS
10
5.61524
20
-3.3358
11
5.61623
21
-3.33551
0
LINE
8
BLACK
6
CONTINUOUS
10
5.61623
20
-3.33551
11
5.6164
21
-3.33555
0
LINE
8
BLACK
6
CONTINUOUS
10
5.6164
20
-3.33555
11
5.61657
21
-3.33549
0
LINE
8
BLACK
6
CONTINUOUS
10
5.61657
20
-3.33549
11
5.62594
21
-3.33549
0
LINE
8
BLACK
6
CONTINUOUS
10
5.62594
20
-3.33549
11
5.62681
21
-3.33564
0
LINE
8
BLACK
6
CONTINUOUS
10
5.13088
20
-3.34942
11
5.13102
21
-3.34953
0
LINE
8
BLACK
6
CONTINUOUS
10
5.13102
20
-3.34953
11
5.13119
21
-3.34955
0
LINE
8
BLACK
6
CONTINUOUS
10
5.13119
20
-3.34955
11
5.13494
21
-3.35143
0
LINE
8
BLACK
6
CONTINUOUS
10
5.13494
20
-3.35143
11
5.13565
21
-3.35195
0
LINE
8
BLACK
6
CONTINUOUS
10
5.13565
20
-3.35195
11
5.13571
21
-3.35198
0
LINE
8
BLACK
6
CONTINUOUS
10
5.13571
20
-3.35198
11
5.13758
21
-3.35386
0
LINE
8
BLACK
6
CONTINUOUS
10
5.13758
20
-3.35386
11
5.13809
21
-3.35458
0
LINE
8
BLACK
6
CONTINUOUS
10
5.13809
20
-3.35458
11
5.13814
21
-3.35462
0
LINE
8
BLACK
6
CONTINUOUS
10
5.13814
20
-3.35462
11
5.14001
21
-3.35837
0
LINE
8
BLACK
6
CONTINUOUS
10
5.14001
20
-3.35837
11
5.1403
21
-3.35935
0
LINE
8
BLACK
6
CONTINUOUS
10
5.1403
20
-3.35935
11
5.14026
21
-3.35953
0
LINE
8
BLACK
6
CONTINUOUS
10
5.14026
20
-3.35953
11
5.14031
21
-3.35966
0
LINE
8
BLACK
6
CONTINUOUS
10
5.14031
20
-3.35966
11
5.15442
21
-3.34977
0
LINE
8
BLACK
6
CONTINUOUS
10
5.15442
20
-3.34977
11
5.15535
21
-3.34934
0
LINE
8
BLACK
6
CONTINUOUS
10
5.15535
20
-3.34934
11
5.15737
21
-3.34952
0
LINE
8
BLACK
6
CONTINUOUS
10
5.15737
20
-3.34952
11
5.15879
21
-3.35095
0
LINE
8
BLACK
6
CONTINUOUS
10
5.15879
20
-3.35095
11
5.15897
21
-3.35296
0
LINE
8
BLACK
6
CONTINUOUS
10
5.15897
20
-3.35296
11
5.15781
21
-3.35461
0
LINE
8
BLACK
6
CONTINUOUS
10
5.15781
20
-3.35461
11
5.14032
21
-3.36685
0
LINE
8
BLACK
6
CONTINUOUS
10
5.14032
20
-3.36685
11
5.14032
21
-3.37174
0
LINE
8
BLACK
6
CONTINUOUS
10
5.14032
20
-3.37174
11
5.15612
21
-3.37174
0
LINE
8
BLACK
6
CONTINUOUS
10
5.15612
20
-3.37174
11
5.15713
21
-3.37192
0
LINE
8
BLACK
6
CONTINUOUS
10
5.15713
20
-3.37192
11
5.15867
21
-3.37321
0
LINE
8
BLACK
6
CONTINUOUS
10
5.15867
20
-3.37321
11
5.15903
21
-3.3752
0
LINE
8
BLACK
6
CONTINUOUS
10
5.15903
20
-3.3752
11
5.15802
21
-3.37695
0
LINE
8
BLACK
6
CONTINUOUS
10
5.15802
20
-3.37695
11
5.15612
21
-3.37764
0
LINE
8
BLACK
6
CONTINUOUS
10
5.15612
20
-3.37764
11
5.11675
21
-3.37764
0
LINE
8
BLACK
6
CONTINUOUS
10
5.11675
20
-3.37764
11
5.11636
21
-3.37758
0
LINE
8
BLACK
6
CONTINUOUS
10
5.11636
20
-3.37758
11
5.11623
21
-3.3776
0
LINE
8
BLACK
6
CONTINUOUS
10
5.11623
20
-3.3776
11
5.11612
21
-3.37753
0
LINE
8
BLACK
6
CONTINUOUS
10
5.11612
20
-3.37753
11
5.11574
21
-3.37747
0
LINE
8
BLACK
6
CONTINUOUS
10
5.11574
20
-3.37747
11
5.11515
21
-3.37697
0
LINE
8
BLACK
6
CONTINUOUS
10
5.11515
20
-3.37697
11
5.11449
21
-3.37659
0
LINE
8
BLACK
6
CONTINUOUS
10
5.11449
20
-3.37659
11
5.11439
21
-3.37634
0
LINE
8
BLACK
6
CONTINUOUS
10
5.11439
20
-3.37634
11
5.11419
21
-3.37617
0
LINE
8
BLACK
6
CONTINUOUS
10
5.11419
20
-3.37617
11
5.11406
21
-3.37541
0
LINE
8
BLACK
6
CONTINUOUS
10
5.11406
20
-3.37541
11
5.11379
21
-3.37469
0
LINE
8
BLACK
6
CONTINUOUS
10
5.11379
20
-3.37469
11
5.11379
21
-3.35969
0
LINE
8
BLACK
6
CONTINUOUS
10
5.11379
20
-3.35969
11
5.11397
21
-3.35868
0
LINE
8
BLACK
6
CONTINUOUS
10
5.11397
20
-3.35868
11
5.11409
21
-3.35855
0
LINE
8
BLACK
6
CONTINUOUS
10
5.11409
20
-3.35855
11
5.11411
21
-3.35837
0
LINE
8
BLACK
6
CONTINUOUS
10
5.11411
20
-3.35837
11
5.11598
21
-3.35462
0
LINE
8
BLACK
6
CONTINUOUS
10
5.11598
20
-3.35462
11
5.11651
21
-3.35391
0
LINE
8
BLACK
6
CONTINUOUS
10
5.11651
20
-3.35391
11
5.11653
21
-3.35386
0
LINE
8
BLACK
6
CONTINUOUS
10
5.11653
20
-3.35386
11
5.11841
21
-3.35198
0
LINE
8
BLACK
6
CONTINUOUS
10
5.11841
20
-3.35198
11
5.11913
21
-3.35147
0
LINE
8
BLACK
6
CONTINUOUS
10
5.11913
20
-3.35147
11
5.11918
21
-3.35143
0
LINE
8
BLACK
6
CONTINUOUS
10
5.11918
20
-3.35143
11
5.12293
21
-3.34955
0
LINE
8
BLACK
6
CONTINUOUS
10
5.12293
20
-3.34955
11
5.12391
21
-3.34926
0
LINE
8
BLACK
6
CONTINUOUS
10
5.12391
20
-3.34926
11
5.12408
21
-3.3493
0
LINE
8
BLACK
6
CONTINUOUS
10
5.12408
20
-3.3493
11
5.12425
21
-3.34924
0
LINE
8
BLACK
6
CONTINUOUS
10
5.12425
20
-3.34924
11
5.12987
21
-3.34924
0
LINE
8
BLACK
6
CONTINUOUS
10
5.12987
20
-3.34924
11
5.13088
21
-3.34942
0
LINE
8
BLACK
6
CONTINUOUS
10
5.12494
20
-3.35515
11
5.12225
21
-3.35649
0
LINE
8
BLACK
6
CONTINUOUS
10
5.12225
20
-3.35649
11
5.12105
21
-3.35769
0
LINE
8
BLACK
6
CONTINUOUS
10
5.12105
20
-3.35769
11
5.1197
21
-3.36039
0
LINE
8
BLACK
6
CONTINUOUS
10
5.1197
20
-3.36039
11
5.1197
21
-3.37174
0
LINE
8
BLACK
6
CONTINUOUS
10
5.1197
20
-3.37174
11
5.13442
21
-3.37174
0
LINE
8
BLACK
6
CONTINUOUS
10
5.13442
20
-3.37174
11
5.13442
21
-3.36039
0
LINE
8
BLACK
6
CONTINUOUS
10
5.13442
20
-3.36039
11
5.13307
21
-3.35769
0
LINE
8
BLACK
6
CONTINUOUS
10
5.13307
20
-3.35769
11
5.13187
21
-3.35649
0
LINE
8
BLACK
6
CONTINUOUS
10
5.13187
20
-3.35649
11
5.12917
21
-3.35515
0
LINE
8
BLACK
6
CONTINUOUS
10
5.12917
20
-3.35515
11
5.12494
21
-3.35515
0
LINE
8
BLACK
6
CONTINUOUS
10
5.96726
20
-3.32567
11
5.96739
21
-3.32578
0
LINE
8
BLACK
6
CONTINUOUS
10
5.96739
20
-3.32578
11
5.96757
21
-3.3258
0
LINE
8
BLACK
6
CONTINUOUS
10
5.96757
20
-3.3258
11
5.97132
21
-3.32767
0
LINE
8
BLACK
6
CONTINUOUS
10
5.97132
20
-3.32767
11
5.97203
21
-3.3282
0
LINE
8
BLACK
6
CONTINUOUS
10
5.97203
20
-3.3282
11
5.97208
21
-3.32823
0
LINE
8
BLACK
6
CONTINUOUS
10
5.97208
20
-3.32823
11
5.97583
21
-3.33198
0
LINE
8
BLACK
6
CONTINUOUS
10
5.97583
20
-3.33198
11
5.97642
21
-3.33282
0
LINE
8
BLACK
6
CONTINUOUS
10
5.97642
20
-3.33282
11
5.97645
21
-3.33311
0
LINE
8
BLACK
6
CONTINUOUS
10
5.97645
20
-3.33311
11
5.97661
21
-3.33335
0
LINE
8
BLACK
6
CONTINUOUS
10
5.97661
20
-3.33335
11
5.97849
21
-3.34085
0
LINE
8
BLACK
6
CONTINUOUS
10
5.97849
20
-3.34085
11
5.97853
21
-3.34144
0
LINE
8
BLACK
6
CONTINUOUS
10
5.97853
20
-3.34144
11
5.97857
21
-3.34156
0
LINE
8
BLACK
6
CONTINUOUS
10
5.97857
20
-3.34156
11
5.97857
21
-3.35469
0
LINE
8
BLACK
6
CONTINUOUS
10
5.97857
20
-3.35469
11
5.97847
21
-3.35527
0
LINE
8
BLACK
6
CONTINUOUS
10
5.97847
20
-3.35527
11
5.97849
21
-3.3554
0
LINE
8
BLACK
6
CONTINUOUS
10
5.97849
20
-3.3554
11
5.97661
21
-3.3629
0
LINE
8
BLACK
6
CONTINUOUS
10
5.97661
20
-3.3629
11
5.97619
21
-3.36384
0
LINE
8
BLACK
6
CONTINUOUS
10
5.97619
20
-3.36384
11
5.97596
21
-3.36401
0
LINE
8
BLACK
6
CONTINUOUS
10
5.97596
20
-3.36401
11
5.97583
21
-3.36427
0
LINE
8
BLACK
6
CONTINUOUS
10
5.97583
20
-3.36427
11
5.97208
21
-3.36802
0
LINE
8
BLACK
6
CONTINUOUS
10
5.97208
20
-3.36802
11
5.97136
21
-3.36853
0
LINE
8
BLACK
6
CONTINUOUS
10
5.97136
20
-3.36853
11
5.97132
21
-3.36858
0
LINE
8
BLACK
6
CONTINUOUS
10
5.97132
20
-3.36858
11
5.96757
21
-3.37045
0
LINE
8
BLACK
6
CONTINUOUS
10
5.96757
20
-3.37045
11
5.96658
21
-3.37074
0
LINE
8
BLACK
6
CONTINUOUS
10
5.96658
20
-3.37074
11
5.96641
21
-3.3707
0
LINE
8
BLACK
6
CONTINUOUS
10
5.96641
20
-3.3707
11
5.96625
21
-3.37076
0
LINE
8
BLACK
6
CONTINUOUS
10
5.96625
20
-3.37076
11
5.95875
21
-3.37076
0
LINE
8
BLACK
6
CONTINUOUS
10
5.95875
20
-3.37076
11
5.95774
21
-3.37058
0
LINE
8
BLACK
6
CONTINUOUS
10
5.95774
20
-3.37058
11
5.9576
21
-3.37047
0
LINE
8
BLACK
6
CONTINUOUS
10
5.9576
20
-3.37047
11
5.95743
21
-3.37045
0
LINE
8
BLACK
6
CONTINUOUS
10
5.95743
20
-3.37045
11
5.95368
21
-3.36858
0
LINE
8
BLACK
6
CONTINUOUS
10
5.95368
20
-3.36858
11
5.95297
21
-3.36805
0
LINE
8
BLACK
6
CONTINUOUS
10
5.95297
20
-3.36805
11
5.95291
21
-3.36802
0
LINE
8
BLACK
6
CONTINUOUS
10
5.95291
20
-3.36802
11
5.94916
21
-3.36427
0
LINE
8
BLACK
6
CONTINUOUS
10
5.94916
20
-3.36427
11
5.94857
21
-3.36343
0
LINE
8
BLACK
6
CONTINUOUS
10
5.94857
20
-3.36343
11
5.94855
21
-3.36314
0
LINE
8
BLACK
6
CONTINUOUS
10
5.94855
20
-3.36314
11
5.94838
21
-3.3629
0
LINE
8
BLACK
6
CONTINUOUS
10
5.94838
20
-3.3629
11
5.94651
21
-3.3554
0
LINE
8
BLACK
6
CONTINUOUS
10
5.94651
20
-3.3554
11
5.94647
21
-3.35482
0
LINE
8
BLACK
6
CONTINUOUS
10
5.94647
20
-3.35482
11
5.94642
21
-3.35469
0
LINE
8
BLACK
6
CONTINUOUS
10
5.94642
20
-3.35469
11
5.94642
21
-3.34156
0
LINE
8
BLACK
6
CONTINUOUS
10
5.94642
20
-3.34156
11
5.94652
21
-3.34098
0
LINE
8
BLACK
6
CONTINUOUS
10
5.94652
20
-3.34098
11
5.94651
21
-3.34085
0
LINE
8
BLACK
6
CONTINUOUS
10
5.94651
20
-3.34085
11
5.94838
21
-3.33335
0
LINE
8
BLACK
6
CONTINUOUS
10
5.94838
20
-3.33335
11
5.9488
21
-3.33241
0
LINE
8
BLACK
6
CONTINUOUS
10
5.9488
20
-3.33241
11
5.94904
21
-3.33224
0
LINE
8
BLACK
6
CONTINUOUS
10
5.94904
20
-3.33224
11
5.94916
21
-3.33198
0
LINE
8
BLACK
6
CONTINUOUS
10
5.94916
20
-3.33198
11
5.95291
21
-3.32823
0
LINE
8
BLACK
6
CONTINUOUS
10
5.95291
20
-3.32823
11
5.95363
21
-3.32772
0
LINE
8
BLACK
6
CONTINUOUS
10
5.95363
20
-3.32772
11
5.95368
21
-3.32767
0
LINE
8
BLACK
6
CONTINUOUS
10
5.95368
20
-3.32767
11
5.95743
21
-3.3258
0
LINE
8
BLACK
6
CONTINUOUS
10
5.95743
20
-3.3258
11
5.95841
21
-3.32551
0
LINE
8
BLACK
6
CONTINUOUS
10
5.95841
20
-3.32551
11
5.95858
21
-3.32555
0
LINE
8
BLACK
6
CONTINUOUS
10
5.95858
20
-3.32555
11
5.95875
21
-3.32549
0
LINE
8
BLACK
6
CONTINUOUS
10
5.95875
20
-3.32549
11
5.96625
21
-3.32549
0
LINE
8
BLACK
6
CONTINUOUS
10
5.96625
20
-3.32549
11
5.96726
21
-3.32567
0
LINE
8
BLACK
6
CONTINUOUS
10
5.95944
20
-3.33139
11
5.95675
21
-3.33274
0
LINE
8
BLACK
6
CONTINUOUS
10
5.95675
20
-3.33274
11
5.95391
21
-3.33557
0
LINE
8
BLACK
6
CONTINUOUS
10
5.95391
20
-3.33557
11
5.95233
21
-3.34193
0
LINE
8
BLACK
6
CONTINUOUS
10
5.95233
20
-3.34193
11
5.95233
21
-3.35432
0
LINE
8
BLACK
6
CONTINUOUS
10
5.95233
20
-3.35432
11
5.95391
21
-3.36068
0
LINE
8
BLACK
6
CONTINUOUS
10
5.95391
20
-3.36068
11
5.95675
21
-3.36351
0
LINE
8
BLACK
6
CONTINUOUS
10
5.95675
20
-3.36351
11
5.95944
21
-3.36486
0
LINE
8
BLACK
6
CONTINUOUS
10
5.95944
20
-3.36486
11
5.96555
21
-3.36486
0
LINE
8
BLACK
6
CONTINUOUS
10
5.96555
20
-3.36486
11
5.96825
21
-3.36351
0
LINE
8
BLACK
6
CONTINUOUS
10
5.96825
20
-3.36351
11
5.97108
21
-3.36068
0
LINE
8
BLACK
6
CONTINUOUS
10
5.97108
20
-3.36068
11
5.97267
21
-3.35432
0
LINE
8
BLACK
6
CONTINUOUS
10
5.97267
20
-3.35432
11
5.97267
21
-3.34193
0
LINE
8
BLACK
6
CONTINUOUS
10
5.97267
20
-3.34193
11
5.97108
21
-3.33557
0
LINE
8
BLACK
6
CONTINUOUS
10
5.97108
20
-3.33557
11
5.96825
21
-3.33274
0
LINE
8
BLACK
6
CONTINUOUS
10
5.96825
20
-3.33274
11
5.96555
21
-3.33139
0
LINE
8
BLACK
6
CONTINUOUS
10
5.96555
20
-3.33139
11
5.95944
21
-3.33139
0
LINE
8
BLACK
6
CONTINUOUS
10
5.93263
20
-3.3256
11
5.93301
21
-3.32553
0
LINE
8
BLACK
6
CONTINUOUS
10
5.93301
20
-3.32553
11
5.93357
21
-3.32585
0
LINE
8
BLACK
6
CONTINUOUS
10
5.93357
20
-3.32585
11
5.9342
21
-3.32602
0
LINE
8
BLACK
6
CONTINUOUS
10
5.9342
20
-3.32602
11
5.93442
21
-3.32635
0
LINE
8
BLACK
6
CONTINUOUS
10
5.93442
20
-3.32635
11
5.93476
21
-3.32654
0
LINE
8
BLACK
6
CONTINUOUS
10
5.93476
20
-3.32654
11
5.93498
21
-3.32715
0
LINE
8
BLACK
6
CONTINUOUS
10
5.93498
20
-3.32715
11
5.93535
21
-3.32768
0
LINE
8
BLACK
6
CONTINUOUS
10
5.93535
20
-3.32768
11
5.93532
21
-3.32807
0
LINE
8
BLACK
6
CONTINUOUS
10
5.93532
20
-3.32807
11
5.93545
21
-3.32844
0
LINE
8
BLACK
6
CONTINUOUS
10
5.93545
20
-3.32844
11
5.93545
21
-3.36781
0
LINE
8
BLACK
6
CONTINUOUS
10
5.93545
20
-3.36781
11
5.93528
21
-3.36882
0
LINE
8
BLACK
6
CONTINUOUS
10
5.93528
20
-3.36882
11
5.93398
21
-3.37037
0
LINE
8
BLACK
6
CONTINUOUS
10
5.93398
20
-3.37037
11
5.93199
21
-3.37072
0
LINE
8
BLACK
6
CONTINUOUS
10
5.93199
20
-3.37072
11
5.93024
21
-3.36971
0
LINE
8
BLACK
6
CONTINUOUS
10
5.93024
20
-3.36971
11
5.92955
21
-3.36781
0
LINE
8
BLACK
6
CONTINUOUS
10
5.92955
20
-3.36781
11
5.92955
21
-3.34175
0
LINE
8
BLACK
6
CONTINUOUS
10
5.92955
20
-3.34175
11
5.92205
21
-3.35781
0
LINE
8
BLACK
6
CONTINUOUS
10
5.92205
20
-3.35781
11
5.92183
21
-3.35813
0
LINE
8
BLACK
6
CONTINUOUS
10
5.92183
20
-3.35813
11
5.9218
21
-3.35825
0
LINE
8
BLACK
6
CONTINUOUS
10
5.9218
20
-3.35825
11
5.92169
21
-3.35833
0
LINE
8
BLACK
6
CONTINUOUS
10
5.92169
20
-3.35833
11
5.92146
21
-3.35865
0
LINE
8
BLACK
6
CONTINUOUS
10
5.92146
20
-3.35865
11
5.92077
21
-3.35897
0
LINE
8
BLACK
6
CONTINUOUS
10
5.92077
20
-3.35897
11
5.92014
21
-3.35941
0
LINE
8
BLACK
6
CONTINUOUS
10
5.92014
20
-3.35941
11
5.91988
21
-3.35939
0
LINE
8
BLACK
6
CONTINUOUS
10
5.91988
20
-3.35939
11
5.91963
21
-3.3595
0
LINE
8
BLACK
6
CONTINUOUS
10
5.91963
20
-3.3595
11
5.91889
21
-3.3593
0
LINE
8
BLACK
6
CONTINUOUS
10
5.91889
20
-3.3593
11
5.91813
21
-3.35924
0
LINE
8
BLACK
6
CONTINUOUS
10
5.91813
20
-3.35924
11
5.91794
21
-3.35905
0
LINE
8
BLACK
6
CONTINUOUS
10
5.91794
20
-3.35905
11
5.91768
21
-3.35898
0
LINE
8
BLACK
6
CONTINUOUS
10
5.91768
20
-3.35898
11
5.91724
21
-3.35835
0
LINE
8
BLACK
6
CONTINUOUS
10
5.91724
20
-3.35835
11
5.9167
21
-3.35781
0
LINE
8
BLACK
6
CONTINUOUS
10
5.9167
20
-3.35781
11
5.90921
21
-3.34175
0
LINE
8
BLACK
6
CONTINUOUS
10
5.90921
20
-3.34175
11
5.90921
21
-3.36781
0
LINE
8
BLACK
6
CONTINUOUS
10
5.90921
20
-3.36781
11
5.90903
21
-3.36882
0
LINE
8
BLACK
6
CONTINUOUS
10
5.90903
20
-3.36882
11
5.90773
21
-3.37037
0
LINE
8
BLACK
6
CONTINUOUS
10
5.90773
20
-3.37037
11
5.90574
21
-3.37072
0
LINE
8
BLACK
6
CONTINUOUS
10
5.90574
20
-3.37072
11
5.90399
21
-3.36971
0
LINE
8
BLACK
6
CONTINUOUS
10
5.90399
20
-3.36971
11
5.9033
21
-3.36781
0
LINE
8
BLACK
6
CONTINUOUS
10
5.9033
20
-3.36781
11
5.9033
21
-3.32844
0
LINE
8
BLACK
6
CONTINUOUS
10
5.9033
20
-3.32844
11
5.90348
21
-3.32743
0
LINE
8
BLACK
6
CONTINUOUS
10
5.90348
20
-3.32743
11
5.90373
21
-3.32713
0
LINE
8
BLACK
6
CONTINUOUS
10
5.90373
20
-3.32713
11
5.90383
21
-3.32675
0
LINE
8
BLACK
6
CONTINUOUS
10
5.90383
20
-3.32675
11
5.90436
21
-3.32638
0
LINE
8
BLACK
6
CONTINUOUS
10
5.90436
20
-3.32638
11
5.90478
21
-3.32588
0
LINE
8
BLACK
6
CONTINUOUS
10
5.90478
20
-3.32588
11
5.90517
21
-3.32581
0
LINE
8
BLACK
6
CONTINUOUS
10
5.90517
20
-3.32581
11
5.90549
21
-3.32559
0
LINE
8
BLACK
6
CONTINUOUS
10
5.90549
20
-3.32559
11
5.90613
21
-3.32564
0
LINE
8
BLACK
6
CONTINUOUS
10
5.90613
20
-3.32564
11
5.90677
21
-3.32553
0
LINE
8
BLACK
6
CONTINUOUS
10
5.90677
20
-3.32553
11
5.90711
21
-3.32573
0
LINE
8
BLACK
6
CONTINUOUS
10
5.90711
20
-3.32573
11
5.9075
21
-3.32576
0
LINE
8
BLACK
6
CONTINUOUS
10
5.9075
20
-3.32576
11
5.90796
21
-3.32622
0
LINE
8
BLACK
6
CONTINUOUS
10
5.90796
20
-3.32622
11
5.90852
21
-3.32654
0
LINE
8
BLACK
6
CONTINUOUS
10
5.90852
20
-3.32654
11
5.90865
21
-3.32691
0
LINE
8
BLACK
6
CONTINUOUS
10
5.90865
20
-3.32691
11
5.90893
21
-3.32719
0
LINE
8
BLACK
6
CONTINUOUS
10
5.90893
20
-3.32719
11
5.91938
21
-3.34958
0
LINE
8
BLACK
6
CONTINUOUS
10
5.91938
20
-3.34958
11
5.92983
21
-3.32719
0
LINE
8
BLACK
6
CONTINUOUS
10
5.92983
20
-3.32719
11
5.93041
21
-3.32635
0
LINE
8
BLACK
6
CONTINUOUS
10
5.93041
20
-3.32635
11
5.93077
21
-3.32619
0
LINE
8
BLACK
6
CONTINUOUS
10
5.93077
20
-3.32619
11
5.93102
21
-3.32588
0
LINE
8
BLACK
6
CONTINUOUS
10
5.93102
20
-3.32588
11
5.93166
21
-3.32577
0
LINE
8
BLACK
6
CONTINUOUS
10
5.93166
20
-3.32577
11
5.93224
21
-3.3255
0
LINE
8
BLACK
6
CONTINUOUS
10
5.93224
20
-3.3255
11
5.93263
21
-3.3256
0
LINE
8
BLACK
6
CONTINUOUS
10
5.21813
20
-3.34093
11
5.21839
21
-3.3409
0
LINE
8
BLACK
6
CONTINUOUS
10
5.21839
20
-3.3409
11
5.21902
21
-3.34134
0
LINE
8
BLACK
6
CONTINUOUS
10
5.21902
20
-3.34134
11
5.21972
21
-3.34167
0
LINE
8
BLACK
6
CONTINUOUS
10
5.21972
20
-3.34167
11
5.22159
21
-3.34354
0
LINE
8
BLACK
6
CONTINUOUS
10
5.22159
20
-3.34354
11
5.22181
21
-3.34386
0
LINE
8
BLACK
6
CONTINUOUS
10
5.22181
20
-3.34386
11
5.22192
21
-3.34394
0
LINE
8
BLACK
6
CONTINUOUS
10
5.22192
20
-3.34394
11
5.22196
21
-3.34406
0
LINE
8
BLACK
6
CONTINUOUS
10
5.22196
20
-3.34406
11
5.22196
21
-3.34407
0
LINE
8
BLACK
6
CONTINUOUS
10
5.22196
20
-3.34407
11
5.22206
21
-3.34416
0
LINE
8
BLACK
6
CONTINUOUS
10
5.22206
20
-3.34416
11
5.22207
21
-3.34423
0
LINE
8
BLACK
6
CONTINUOUS
10
5.22207
20
-3.34423
11
5.22218
21
-3.34438
0
LINE
8
BLACK
6
CONTINUOUS
10
5.22218
20
-3.34438
11
5.22225
21
-3.34515
0
LINE
8
BLACK
6
CONTINUOUS
10
5.22225
20
-3.34515
11
5.22244
21
-3.34589
0
LINE
8
BLACK
6
CONTINUOUS
10
5.22244
20
-3.34589
11
5.22239
21
-3.34601
0
LINE
8
BLACK
6
CONTINUOUS
10
5.22239
20
-3.34601
11
5.22241
21
-3.34614
0
LINE
8
BLACK
6
CONTINUOUS
10
5.22241
20
-3.34614
11
5.22234
21
-3.34626
0
LINE
8
BLACK
6
CONTINUOUS
10
5.22234
20
-3.34626
11
5.22236
21
-3.3464
0
LINE
8
BLACK
6
CONTINUOUS
10
5.22236
20
-3.3464
11
5.22192
21
-3.34702
0
LINE
8
BLACK
6
CONTINUOUS
10
5.22192
20
-3.34702
11
5.22159
21
-3.34772
0
LINE
8
BLACK
6
CONTINUOUS
10
5.22159
20
-3.34772
11
5.21972
21
-3.34959
0
LINE
8
BLACK
6
CONTINUOUS
10
5.21972
20
-3.34959
11
5.2194
21
-3.34982
0
LINE
8
BLACK
6
CONTINUOUS
10
5.2194
20
-3.34982
11
5.21932
21
-3.34993
0
LINE
8
BLACK
6
CONTINUOUS
10
5.21932
20
-3.34993
11
5.2192
21
-3.34996
0
LINE
8
BLACK
6
CONTINUOUS
10
5.2192
20
-3.34996
11
5.21888
21
-3.35018
0
LINE
8
BLACK
6
CONTINUOUS
10
5.21888
20
-3.35018
11
5.21811
21
-3.35025
0
LINE
8
BLACK
6
CONTINUOUS
10
5.21811
20
-3.35025
11
5.21737
21
-3.35045
0
LINE
8
BLACK
6
CONTINUOUS
10
5.21737
20
-3.35045
11
5.21713
21
-3.35034
0
LINE
8
BLACK
6
CONTINUOUS
10
5.21713
20
-3.35034
11
5.21686
21
-3.35036
0
LINE
8
BLACK
6
CONTINUOUS
10
5.21686
20
-3.35036
11
5.21624
21
-3.34992
0
LINE
8
BLACK
6
CONTINUOUS
10
5.21624
20
-3.34992
11
5.21554
21
-3.34959
0
LINE
8
BLACK
6
CONTINUOUS
10
5.21554
20
-3.34959
11
5.21367
21
-3.34772
0
LINE
8
BLACK
6
CONTINUOUS
10
5.21367
20
-3.34772
11
5.21344
21
-3.3474
0
LINE
8
BLACK
6
CONTINUOUS
10
5.21344
20
-3.3474
11
5.21333
21
-3.34733
0
LINE
8
BLACK
6
CONTINUOUS
10
5.21333
20
-3.34733
11
5.2133
21
-3.3472
0
LINE
8
BLACK
6
CONTINUOUS
10
5.2133
20
-3.3472
11
5.2133
21
-3.34719
0
LINE
8
BLACK
6
CONTINUOUS
10
5.2133
20
-3.34719
11
5.2132
21
-3.34711
0
LINE
8
BLACK
6
CONTINUOUS
10
5.2132
20
-3.34711
11
5.21318
21
-3.34703
0
LINE
8
BLACK
6
CONTINUOUS
10
5.21318
20
-3.34703
11
5.21308
21
-3.34688
0
LINE
8
BLACK
6
CONTINUOUS
10
5.21308
20
-3.34688
11
5.21301
21
-3.34612
0
LINE
8
BLACK
6
CONTINUOUS
10
5.21301
20
-3.34612
11
5.21281
21
-3.34537
0
LINE
8
BLACK
6
CONTINUOUS
10
5.21281
20
-3.34537
11
5.21287
21
-3.34525
0
LINE
8
BLACK
6
CONTINUOUS
10
5.21287
20
-3.34525
11
5.21285
21
-3.34512
0
LINE
8
BLACK
6
CONTINUOUS
10
5.21285
20
-3.34512
11
5.21291
21
-3.345
0
LINE
8
BLACK
6
CONTINUOUS
10
5.21291
20
-3.345
11
5.2129
21
-3.34487
0
LINE
8
BLACK
6
CONTINUOUS
10
5.2129
20
-3.34487
11
5.21334
21
-3.34424
0
LINE
8
BLACK
6
CONTINUOUS
10
5.21334
20
-3.34424
11
5.21367
21
-3.34354
0
LINE
8
BLACK
6
CONTINUOUS
10
5.21367
20
-3.34354
11
5.21554
21
-3.34167
0
LINE
8
BLACK
6
CONTINUOUS
10
5.21554
20
-3.34167
11
5.21586
21
-3.34145
0
LINE
8
BLACK
6
CONTINUOUS
10
5.21586
20
-3.34145
11
5.21593
21
-3.34134
0
LINE
8
BLACK
6
CONTINUOUS
10
5.21593
20
-3.34134
11
5.21606
21
-3.3413
0
LINE
8
BLACK
6
CONTINUOUS
10
5.21606
20
-3.3413
11
5.21638
21
-3.34108
0
LINE
8
BLACK
6
CONTINUOUS
10
5.21638
20
-3.34108
11
5.21714
21
-3.34101
0
LINE
8
BLACK
6
CONTINUOUS
10
5.21714
20
-3.34101
11
5.21789
21
-3.34082
0
LINE
8
BLACK
6
CONTINUOUS
10
5.21789
20
-3.34082
11
5.21813
21
-3.34093
0
LINE
8
BLACK
6
CONTINUOUS
10
5.21301
20
-3.30349
11
5.21315
21
-3.3036
0
LINE
8
BLACK
6
CONTINUOUS
10
5.21315
20
-3.3036
11
5.21332
21
-3.30362
0
LINE
8
BLACK
6
CONTINUOUS
10
5.21332
20
-3.30362
11
5.21707
21
-3.3055
0
LINE
8
BLACK
6
CONTINUOUS
10
5.21707
20
-3.3055
11
5.21778
21
-3.30602
0
LINE
8
BLACK
6
CONTINUOUS
10
5.21778
20
-3.30602
11
5.21784
21
-3.30605
0
LINE
8
BLACK
6
CONTINUOUS
10
5.21784
20
-3.30605
11
5.21972
21
-3.30792
0
LINE
8
BLACK
6
CONTINUOUS
10
5.21972
20
-3.30792
11
5.22022
21
-3.30865
0
LINE
8
BLACK
6
CONTINUOUS
10
5.22022
20
-3.30865
11
5.22027
21
-3.30869
0
LINE
8
BLACK
6
CONTINUOUS
10
5.22027
20
-3.30869
11
5.22214
21
-3.31244
0
LINE
8
BLACK
6
CONTINUOUS
10
5.22214
20
-3.31244
11
5.22244
21
-3.31342
0
LINE
8
BLACK
6
CONTINUOUS
10
5.22244
20
-3.31342
11
5.2224
21
-3.31359
0
LINE
8
BLACK
6
CONTINUOUS
10
5.2224
20
-3.31359
11
5.22246
21
-3.31376
0
LINE
8
BLACK
6
CONTINUOUS
10
5.22246
20
-3.31376
11
5.22246
21
-3.32126
0
LINE
8
BLACK
6
CONTINUOUS
10
5.22246
20
-3.32126
11
5.22228
21
-3.32227
0
LINE
8
BLACK
6
CONTINUOUS
10
5.22228
20
-3.32227
11
5.22216
21
-3.3224
0
LINE
8
BLACK
6
CONTINUOUS
10
5.22216
20
-3.3224
11
5.22214
21
-3.32258
0
LINE
8
BLACK
6
CONTINUOUS
10
5.22214
20
-3.32258
11
5.22027
21
-3.32633
0
LINE
8
BLACK
6
CONTINUOUS
10
5.22027
20
-3.32633
11
5.21974
21
-3.32704
0
LINE
8
BLACK
6
CONTINUOUS
10
5.21974
20
-3.32704
11
5.21972
21
-3.3271
0
LINE
8
BLACK
6
CONTINUOUS
10
5.21972
20
-3.3271
11
5.21784
21
-3.32897
0
LINE
8
BLACK
6
CONTINUOUS
10
5.21784
20
-3.32897
11
5.21712
21
-3.32948
0
LINE
8
BLACK
6
CONTINUOUS
10
5.21712
20
-3.32948
11
5.21707
21
-3.32953
0
LINE
8
BLACK
6
CONTINUOUS
10
5.21707
20
-3.32953
11
5.21332
21
-3.3314
0
LINE
8
BLACK
6
CONTINUOUS
10
5.21332
20
-3.3314
11
5.21234
21
-3.33169
0
LINE
8
BLACK
6
CONTINUOUS
10
5.21234
20
-3.33169
11
5.21217
21
-3.33165
0
LINE
8
BLACK
6
CONTINUOUS
10
5.21217
20
-3.33165
11
5.212
21
-3.33171
0
LINE
8
BLACK
6
CONTINUOUS
10
5.212
20
-3.33171
11
5.19701
21
-3.33171
0
LINE
8
BLACK
6
CONTINUOUS
10
5.19701
20
-3.33171
11
5.19643
21
-3.33161
0
LINE
8
BLACK
6
CONTINUOUS
10
5.19643
20
-3.33161
11
5.19629
21
-3.33162
0
LINE
8
BLACK
6
CONTINUOUS
10
5.19629
20
-3.33162
11
5.18879
21
-3.32975
0
LINE
8
BLACK
6
CONTINUOUS
10
5.18879
20
-3.32975
11
5.18789
21
-3.32934
0
LINE
8
BLACK
6
CONTINUOUS
10
5.18789
20
-3.32934
11
5.18787
21
-3.32934
0
LINE
8
BLACK
6
CONTINUOUS
10
5.18787
20
-3.32934
11
5.18224
21
-3.32559
0
LINE
8
BLACK
6
CONTINUOUS
10
5.18224
20
-3.32559
11
5.18192
21
-3.32528
0
LINE
8
BLACK
6
CONTINUOUS
10
5.18192
20
-3.32528
11
5.18179
21
-3.32522
0
LINE
8
BLACK
6
CONTINUOUS
10
5.18179
20
-3.32522
11
5.17992
21
-3.32335
0
LINE
8
BLACK
6
CONTINUOUS
10
5.17992
20
-3.32335
11
5.17941
21
-3.32262
0
LINE
8
BLACK
6
CONTINUOUS
10
5.17941
20
-3.32262
11
5.17937
21
-3.32258
0
LINE
8
BLACK
6
CONTINUOUS
10
5.17937
20
-3.32258
11
5.17749
21
-3.31883
0
LINE
8
BLACK
6
CONTINUOUS
10
5.17749
20
-3.31883
11
5.1772
21
-3.31785
0
LINE
8
BLACK
6
CONTINUOUS
10
5.1772
20
-3.31785
11
5.17724
21
-3.31768
0
LINE
8
BLACK
6
CONTINUOUS
10
5.17724
20
-3.31768
11
5.17718
21
-3.31751
0
LINE
8
BLACK
6
CONTINUOUS
10
5.17718
20
-3.31751
11
5.17718
21
-3.31001
0
LINE
8
BLACK
6
CONTINUOUS
10
5.17718
20
-3.31001
11
5.17736
21
-3.309
0
LINE
8
BLACK
6
CONTINUOUS
10
5.17736
20
-3.309
11
5.17866
21
-3.30745
0
LINE
8
BLACK
6
CONTINUOUS
10
5.17866
20
-3.30745
11
5.18065
21
-3.3071
0
LINE
8
BLACK
6
CONTINUOUS
10
5.18065
20
-3.3071
11
5.18239
21
-3.30811
0
LINE
8
BLACK
6
CONTINUOUS
10
5.18239
20
-3.30811
11
5.18309
21
-3.31001
0
LINE
8
BLACK
6
CONTINUOUS
10
5.18309
20
-3.31001
11
5.18309
21
-3.31681
0
LINE
8
BLACK
6
CONTINUOUS
10
5.18309
20
-3.31681
11
5.18443
21
-3.31951
0
LINE
8
BLACK
6
CONTINUOUS
10
5.18443
20
-3.31951
11
5.18576
21
-3.32084
0
LINE
8
BLACK
6
CONTINUOUS
10
5.18576
20
-3.32084
11
5.19072
21
-3.32414
0
LINE
8
BLACK
6
CONTINUOUS
10
5.19072
20
-3.32414
11
5.19364
21
-3.32487
0
LINE
8
BLACK
6
CONTINUOUS
10
5.19364
20
-3.32487
11
5.19249
21
-3.32258
0
LINE
8
BLACK
6
CONTINUOUS
10
5.19249
20
-3.32258
11
5.1922
21
-3.3216
0
LINE
8
BLACK
6
CONTINUOUS
10
5.1922
20
-3.3216
11
5.19224
21
-3.32143
0
LINE
8
BLACK
6
CONTINUOUS
10
5.19224
20
-3.32143
11
5.19218
21
-3.32126
0
LINE
8
BLACK
6
CONTINUOUS
10
5.19218
20
-3.32126
11
5.19218
21
-3.31376
0
LINE
8
BLACK
6
CONTINUOUS
10
5.19218
20
-3.31376
11
5.19236
21
-3.31275
0
LINE
8
BLACK
6
CONTINUOUS
10
5.19236
20
-3.31275
11
5.19247
21
-3.31262
0
LINE
8
BLACK
6
CONTINUOUS
10
5.19247
20
-3.31262
11
5.19249
21
-3.31244
0
LINE
8
BLACK
6
CONTINUOUS
10
5.19249
20
-3.31244
11
5.19436
21
-3.30869
0
LINE
8
BLACK
6
CONTINUOUS
10
5.19436
20
-3.30869
11
5.19489
21
-3.30798
0
LINE
8
BLACK
6
CONTINUOUS
10
5.19489
20
-3.30798
11
5.19492
21
-3.30792
0
LINE
8
BLACK
6
CONTINUOUS
10
5.19492
20
-3.30792
11
5.19679
21
-3.30605
0
LINE
8
BLACK
6
CONTINUOUS
10
5.19679
20
-3.30605
11
5.19752
21
-3.30554
0
LINE
8
BLACK
6
CONTINUOUS
10
5.19752
20
-3.30554
11
5.19756
21
-3.3055
0
LINE
8
BLACK
6
CONTINUOUS
10
5.19756
20
-3.3055
11
5.20131
21
-3.30362
0
LINE
8
BLACK
6
CONTINUOUS
10
5.20131
20
-3.30362
11
5.20229
21
-3.30333
0
LINE
8
BLACK
6
CONTINUOUS
10
5.20229
20
-3.30333
11
5.20246
21
-3.30337
0
LINE
8
BLACK
6
CONTINUOUS
10
5.20246
20
-3.30337
11
5.20263
21
-3.30331
0
LINE
8
BLACK
6
CONTINUOUS
10
5.20263
20
-3.30331
11
5.212
21
-3.30331
0
LINE
8
BLACK
6
CONTINUOUS
10
5.212
20
-3.30331
11
5.21301
21
-3.30349
0
LINE
8
BLACK
6
CONTINUOUS
10
5.20333
20
-3.30921
11
5.20063
21
-3.31056
0
LINE
8
BLACK
6
CONTINUOUS
10
5.20063
20
-3.31056
11
5.19943
21
-3.31176
0
LINE
8
BLACK
6
CONTINUOUS
10
5.19943
20
-3.31176
11
5.19808
21
-3.31446
0
LINE
8
BLACK
6
CONTINUOUS
10
5.19808
20
-3.31446
11
5.19808
21
-3.32056
0
LINE
8
BLACK
6
CONTINUOUS
10
5.19808
20
-3.32056
11
5.19943
21
-3.32326
0
LINE
8
BLACK
6
CONTINUOUS
10
5.19943
20
-3.32326
11
5.20063
21
-3.32446
0
LINE
8
BLACK
6
CONTINUOUS
10
5.20063
20
-3.32446
11
5.20333
21
-3.32581
0
LINE
8
BLACK
6
CONTINUOUS
10
5.20333
20
-3.32581
11
5.21131
21
-3.32581
0
LINE
8
BLACK
6
CONTINUOUS
10
5.21131
20
-3.32581
11
5.214
21
-3.32446
0
LINE
8
BLACK
6
CONTINUOUS
10
5.214
20
-3.32446
11
5.2152
21
-3.32326
0
LINE
8
BLACK
6
CONTINUOUS
10
5.2152
20
-3.32326
11
5.21655
21
-3.32056
0
LINE
8
BLACK
6
CONTINUOUS
10
5.21655
20
-3.32056
11
5.21655
21
-3.31446
0
LINE
8
BLACK
6
CONTINUOUS
10
5.21655
20
-3.31446
11
5.2152
21
-3.31176
0
LINE
8
BLACK
6
CONTINUOUS
10
5.2152
20
-3.31176
11
5.214
21
-3.31056
0
LINE
8
BLACK
6
CONTINUOUS
10
5.214
20
-3.31056
11
5.21131
21
-3.30921
0
LINE
8
BLACK
6
CONTINUOUS
10
5.21131
20
-3.30921
11
5.20333
21
-3.30921
0
LINE
8
BLACK
6
CONTINUOUS
10
5.15713
20
-3.30255
11
5.15867
21
-3.30385
0
LINE
8
BLACK
6
CONTINUOUS
10
5.15867
20
-3.30385
11
5.15903
21
-3.30584
0
LINE
8
BLACK
6
CONTINUOUS
10
5.15903
20
-3.30584
11
5.15802
21
-3.30759
0
LINE
8
BLACK
6
CONTINUOUS
10
5.15802
20
-3.30759
11
5.15612
21
-3.30828
0
LINE
8
BLACK
6
CONTINUOUS
10
5.15612
20
-3.30828
11
5.11675
21
-3.30828
0
LINE
8
BLACK
6
CONTINUOUS
10
5.11675
20
-3.30828
11
5.11574
21
-3.3081
0
LINE
8
BLACK
6
CONTINUOUS
10
5.11574
20
-3.3081
11
5.11419
21
-3.3068
0
LINE
8
BLACK
6
CONTINUOUS
10
5.11419
20
-3.3068
11
5.11384
21
-3.30481
0
LINE
8
BLACK
6
CONTINUOUS
10
5.11384
20
-3.30481
11
5.11485
21
-3.30306
0
LINE
8
BLACK
6
CONTINUOUS
10
5.11485
20
-3.30306
11
5.11675
21
-3.30237
0
LINE
8
BLACK
6
CONTINUOUS
10
5.11675
20
-3.30237
11
5.15612
21
-3.30237
0
LINE
8
BLACK
6
CONTINUOUS
10
5.15612
20
-3.30237
11
5.15713
21
-3.30255
0
LINE
8
BLACK
6
CONTINUOUS
10
5.22044
20
-3.27909
11
5.22134
21
-3.27958
0
LINE
8
BLACK
6
CONTINUOUS
10
5.22134
20
-3.27958
11
5.22138
21
-3.27965
0
LINE
8
BLACK
6
CONTINUOUS
10
5.22138
20
-3.27965
11
5.22146
21
-3.27968
0
LINE
8
BLACK
6
CONTINUOUS
10
5.22146
20
-3.27968
11
5.22191
21
-3.2805
0
LINE
8
BLACK
6
CONTINUOUS
10
5.22191
20
-3.2805
11
5.2224
21
-3.2813
0
LINE
8
BLACK
6
CONTINUOUS
10
5.2224
20
-3.2813
11
5.22238
21
-3.28138
0
LINE
8
BLACK
6
CONTINUOUS
10
5.22238
20
-3.28138
11
5.22242
21
-3.28146
0
LINE
8
BLACK
6
CONTINUOUS
10
5.22242
20
-3.28146
11
5.22224
21
-3.28237
0
LINE
8
BLACK
6
CONTINUOUS
10
5.22224
20
-3.28237
11
5.2221
21
-3.2833
0
LINE
8
BLACK
6
CONTINUOUS
10
5.2221
20
-3.2833
11
5.22204
21
-3.28335
0
LINE
8
BLACK
6
CONTINUOUS
10
5.22204
20
-3.28335
11
5.22202
21
-3.28344
0
LINE
8
BLACK
6
CONTINUOUS
10
5.22202
20
-3.28344
11
5.22129
21
-3.28402
0
LINE
8
BLACK
6
CONTINUOUS
10
5.22129
20
-3.28402
11
5.22059
21
-3.28464
0
LINE
8
BLACK
6
CONTINUOUS
10
5.22059
20
-3.28464
11
5.2205
21
-3.28464
0
LINE
8
BLACK
6
CONTINUOUS
10
5.2205
20
-3.28464
11
5.22044
21
-3.28469
0
LINE
8
BLACK
6
CONTINUOUS
10
5.22044
20
-3.28469
11
5.18107
21
-3.29781
0
LINE
8
BLACK
6
CONTINUOUS
10
5.18107
20
-3.29781
11
5.18005
21
-3.29796
0
LINE
8
BLACK
6
CONTINUOUS
10
5.18005
20
-3.29796
11
5.17817
21
-3.29722
0
LINE
8
BLACK
6
CONTINUOUS
10
5.17817
20
-3.29722
11
5.17721
21
-3.29545
0
LINE
8
BLACK
6
CONTINUOUS
10
5.17721
20
-3.29545
11
5.17762
21
-3.29347
0
LINE
8
BLACK
6
CONTINUOUS
10
5.17762
20
-3.29347
11
5.1792
21
-3.29221
0
LINE
8
BLACK
6
CONTINUOUS
10
5.1792
20
-3.29221
11
5.21017
21
-3.28189
0
LINE
8
BLACK
6
CONTINUOUS
10
5.21017
20
-3.28189
11
5.1792
21
-3.27157
0
LINE
8
BLACK
6
CONTINUOUS
10
5.1792
20
-3.27157
11
5.1783
21
-3.27108
0
LINE
8
BLACK
6
CONTINUOUS
10
5.1783
20
-3.27108
11
5.17724
21
-3.26936
0
LINE
8
BLACK
6
CONTINUOUS
10
5.17724
20
-3.26936
11
5.17754
21
-3.26736
0
LINE
8
BLACK
6
CONTINUOUS
10
5.17754
20
-3.26736
11
5.17905
21
-3.26602
0
LINE
8
BLACK
6
CONTINUOUS
10
5.17905
20
-3.26602
11
5.18107
21
-3.26597
0
LINE
8
BLACK
6
CONTINUOUS
10
5.18107
20
-3.26597
11
5.22044
21
-3.27909
0
LINE
8
BLACK
6
CONTINUOUS
10
5.15713
20
-3.2613
11
5.15734
21
-3.26148
0
LINE
8
BLACK
6
CONTINUOUS
10
5.15734
20
-3.26148
11
5.15761
21
-3.26153
0
LINE
8
BLACK
6
CONTINUOUS
10
5.15761
20
-3.26153
11
5.15809
21
-3.26211
0
LINE
8
BLACK
6
CONTINUOUS
10
5.15809
20
-3.26211
11
5.15867
21
-3.2626
0
LINE
8
BLACK
6
CONTINUOUS
10
5.15867
20
-3.2626
11
5.15872
21
-3.26287
0
LINE
8
BLACK
6
CONTINUOUS
10
5.15872
20
-3.26287
11
5.1589
21
-3.26308
0
LINE
8
BLACK
6
CONTINUOUS
10
5.1589
20
-3.26308
11
5.15889
21
-3.26384
0
LINE
8
BLACK
6
CONTINUOUS
10
5.15889
20
-3.26384
11
5.15903
21
-3.26459
0
LINE
8
BLACK
6
CONTINUOUS
10
5.15903
20
-3.26459
11
5.15889
21
-3.26483
0
LINE
8
BLACK
6
CONTINUOUS
10
5.15889
20
-3.26483
11
5.15889
21
-3.2651
0
LINE
8
BLACK
6
CONTINUOUS
10
5.15889
20
-3.2651
11
5.1584
21
-3.26568
0
LINE
8
BLACK
6
CONTINUOUS
10
5.1584
20
-3.26568
11
5.15802
21
-3.26634
0
LINE
8
BLACK
6
CONTINUOUS
10
5.15802
20
-3.26634
11
5.15776
21
-3.26643
0
LINE
8
BLACK
6
CONTINUOUS
10
5.15776
20
-3.26643
11
5.15758
21
-3.26664
0
LINE
8
BLACK
6
CONTINUOUS
10
5.15758
20
-3.26664
11
5.12787
21
-3.28362
0
LINE
8
BLACK
6
CONTINUOUS
10
5.12787
20
-3.28362
11
5.15612
21
-3.28362
0
LINE
8
BLACK
6
CONTINUOUS
10
5.15612
20
-3.28362
11
5.15713
21
-3.2838
0
LINE
8
BLACK
6
CONTINUOUS
10
5.15713
20
-3.2838
11
5.15867
21
-3.2851
0
LINE
8
BLACK
6
CONTINUOUS
10
5.15867
20
-3.2851
11
5.15903
21
-3.28709
0
LINE
8
BLACK
6
CONTINUOUS
10
5.15903
20
-3.28709
11
5.15802
21
-3.28884
0
LINE
8
BLACK
6
CONTINUOUS
10
5.15802
20
-3.28884
11
5.15612
21
-3.28953
0
LINE
8
BLACK
6
CONTINUOUS
10
5.15612
20
-3.28953
11
5.11675
21
-3.28953
0
LINE
8
BLACK
6
CONTINUOUS
10
5.11675
20
-3.28953
11
5.11574
21
-3.28935
0
LINE
8
BLACK
6
CONTINUOUS
10
5.11574
20
-3.28935
11
5.11553
21
-3.28918
0
LINE
8
BLACK
6
CONTINUOUS
10
5.11553
20
-3.28918
11
5.11526
21
-3.28913
0
LINE
8
BLACK
6
CONTINUOUS
10
5.11526
20
-3.28913
11
5.11477
21
-3.28854
0
LINE
8
BLACK
6
CONTINUOUS
10
5.11477
20
-3.28854
11
5.11419
21
-3.28805
0
LINE
8
BLACK
6
CONTINUOUS
10
5.11419
20
-3.28805
11
5.11414
21
-3.28778
0
LINE
8
BLACK
6
CONTINUOUS
10
5.11414
20
-3.28778
11
5.11397
21
-3.28757
0
LINE
8
BLACK
6
CONTINUOUS
10
5.11397
20
-3.28757
11
5.11397
21
-3.28681
0
LINE
8
BLACK
6
CONTINUOUS
10
5.11397
20
-3.28681
11
5.11384
21
-3.28606
0
LINE
8
BLACK
6
CONTINUOUS
10
5.11384
20
-3.28606
11
5.11398
21
-3.28583
0
LINE
8
BLACK
6
CONTINUOUS
10
5.11398
20
-3.28583
11
5.11398
21
-3.28555
0
LINE
8
BLACK
6
CONTINUOUS
10
5.11398
20
-3.28555
11
5.11447
21
-3.28497
0
LINE
8
BLACK
6
CONTINUOUS
10
5.11447
20
-3.28497
11
5.11485
21
-3.28431
0
LINE
8
BLACK
6
CONTINUOUS
10
5.11485
20
-3.28431
11
5.11511
21
-3.28422
0
LINE
8
BLACK
6
CONTINUOUS
10
5.11511
20
-3.28422
11
5.11528
21
-3.28401
0
LINE
8
BLACK
6
CONTINUOUS
10
5.11528
20
-3.28401
11
5.145
21
-3.26703
0
LINE
8
BLACK
6
CONTINUOUS
10
5.145
20
-3.26703
11
5.11675
21
-3.26703
0
LINE
8
BLACK
6
CONTINUOUS
10
5.11675
20
-3.26703
11
5.11574
21
-3.26685
0
LINE
8
BLACK
6
CONTINUOUS
10
5.11574
20
-3.26685
11
5.11419
21
-3.26556
0
LINE
8
BLACK
6
CONTINUOUS
10
5.11419
20
-3.26556
11
5.11384
21
-3.26357
0
LINE
8
BLACK
6
CONTINUOUS
10
5.11384
20
-3.26357
11
5.11485
21
-3.26182
0
LINE
8
BLACK
6
CONTINUOUS
10
5.11485
20
-3.26182
11
5.11675
21
-3.26113
0
LINE
8
BLACK
6
CONTINUOUS
10
5.11675
20
-3.26113
11
5.15612
21
-3.26113
0
LINE
8
BLACK
6
CONTINUOUS
10
5.15612
20
-3.26113
11
5.15713
21
-3.2613
0
LINE
8
BLACK
6
CONTINUOUS
10
5.9568
20
-3.22564
11
5.95687
21
-3.22564
0
LINE
8
BLACK
6
CONTINUOUS
10
5.95687
20
-3.22564
11
5.96249
21
-3.22751
0
LINE
8
BLACK
6
CONTINUOUS
10
5.96249
20
-3.22751
11
5.9634
21
-3.228
0
LINE
8
BLACK
6
CONTINUOUS
10
5.9634
20
-3.228
11
5.96349
21
-3.22815
0
LINE
8
BLACK
6
CONTINUOUS
10
5.96349
20
-3.22815
11
5.96365
21
-3.22823
0
LINE
8
BLACK
6
CONTINUOUS
10
5.96365
20
-3.22823
11
5.9674
21
-3.23198
0
LINE
8
BLACK
6
CONTINUOUS
10
5.9674
20
-3.23198
11
5.9679
21
-3.2327
0
LINE
8
BLACK
6
CONTINUOUS
10
5.9679
20
-3.2327
11
5.96795
21
-3.23274
0
LINE
8
BLACK
6
CONTINUOUS
10
5.96795
20
-3.23274
11
5.96983
21
-3.23649
0
LINE
8
BLACK
6
CONTINUOUS
10
5.96983
20
-3.23649
11
5.96997
21
-3.23698
0
LINE
8
BLACK
6
CONTINUOUS
10
5.96997
20
-3.23698
11
5.97005
21
-3.2371
0
LINE
8
BLACK
6
CONTINUOUS
10
5.97005
20
-3.2371
11
5.97192
21
-3.2446
0
LINE
8
BLACK
6
CONTINUOUS
10
5.97192
20
-3.2446
11
5.97196
21
-3.24518
0
LINE
8
BLACK
6
CONTINUOUS
10
5.97196
20
-3.24518
11
5.97201
21
-3.24531
0
LINE
8
BLACK
6
CONTINUOUS
10
5.97201
20
-3.24531
11
5.97201
21
-3.25094
0
LINE
8
BLACK
6
CONTINUOUS
10
5.97201
20
-3.25094
11
5.97191
21
-3.25152
0
LINE
8
BLACK
6
CONTINUOUS
10
5.97191
20
-3.25152
11
5.97192
21
-3.25165
0
LINE
8
BLACK
6
CONTINUOUS
10
5.97192
20
-3.25165
11
5.97005
21
-3.25915
0
LINE
8
BLACK
6
CONTINUOUS
10
5.97005
20
-3.25915
11
5.96984
21
-3.25962
0
LINE
8
BLACK
6
CONTINUOUS
10
5.96984
20
-3.25962
11
5.96983
21
-3.25976
0
LINE
8
BLACK
6
CONTINUOUS
10
5.96983
20
-3.25976
11
5.96795
21
-3.26351
0
LINE
8
BLACK
6
CONTINUOUS
10
5.96795
20
-3.26351
11
5.96742
21
-3.26422
0
LINE
8
BLACK
6
CONTINUOUS
10
5.96742
20
-3.26422
11
5.9674
21
-3.26427
0
LINE
8
BLACK
6
CONTINUOUS
10
5.9674
20
-3.26427
11
5.96365
21
-3.26802
0
LINE
8
BLACK
6
CONTINUOUS
10
5.96365
20
-3.26802
11
5.96281
21
-3.26861
0
LINE
8
BLACK
6
CONTINUOUS
10
5.96281
20
-3.26861
11
5.96263
21
-3.26863
0
LINE
8
BLACK
6
CONTINUOUS
10
5.96263
20
-3.26863
11
5.96249
21
-3.26874
0
LINE
8
BLACK
6
CONTINUOUS
10
5.96249
20
-3.26874
11
5.95687
21
-3.27061
0
LINE
8
BLACK
6
CONTINUOUS
10
5.95687
20
-3.27061
11
5.956
21
-3.27074
0
LINE
8
BLACK
6
CONTINUOUS
10
5.956
20
-3.27074
11
5.95594
21
-3.27076
0
LINE
8
BLACK
6
CONTINUOUS
10
5.95594
20
-3.27076
11
5.94656
21
-3.27076
0
LINE
8
BLACK
6
CONTINUOUS
10
5.94656
20
-3.27076
11
5.94618
21
-3.2707
0
LINE
8
BLACK
6
CONTINUOUS
10
5.94618
20
-3.2707
11
5.94605
21
-3.27072
0
LINE
8
BLACK
6
CONTINUOUS
10
5.94605
20
-3.27072
11
5.94594
21
-3.27065
0
LINE
8
BLACK
6
CONTINUOUS
10
5.94594
20
-3.27065
11
5.94555
21
-3.27058
0
LINE
8
BLACK
6
CONTINUOUS
10
5.94555
20
-3.27058
11
5.94496
21
-3.27009
0
LINE
8
BLACK
6
CONTINUOUS
10
5.94496
20
-3.27009
11
5.9443
21
-3.26971
0
LINE
8
BLACK
6
CONTINUOUS
10
5.9443
20
-3.26971
11
5.94421
21
-3.26946
0
LINE
8
BLACK
6
CONTINUOUS
10
5.94421
20
-3.26946
11
5.944
21
-3.26929
0
LINE
8
BLACK
6
CONTINUOUS
10
5.944
20
-3.26929
11
5.94387
21
-3.26853
0
LINE
8
BLACK
6
CONTINUOUS
10
5.94387
20
-3.26853
11
5.94361
21
-3.26781
0
LINE
8
BLACK
6
CONTINUOUS
10
5.94361
20
-3.26781
11
5.94361
21
-3.22844
0
LINE
8
BLACK
6
CONTINUOUS
10
5.94361
20
-3.22844
11
5.94368
21
-3.22806
0
LINE
8
BLACK
6
CONTINUOUS
10
5.94368
20
-3.22806
11
5.94365
21
-3.22793
0
LINE
8
BLACK
6
CONTINUOUS
10
5.94365
20
-3.22793
11
5.94372
21
-3.22781
0
LINE
8
BLACK
6
CONTINUOUS
10
5.94372
20
-3.22781
11
5.94379
21
-3.22743
0
LINE
8
BLACK
6
CONTINUOUS
10
5.94379
20
-3.22743
11
5.94428
21
-3.22684
0
LINE
8
BLACK
6
CONTINUOUS
10
5.94428
20
-3.22684
11
5.94466
21
-3.22618
0
LINE
8
BLACK
6
CONTINUOUS
10
5.94466
20
-3.22618
11
5.94491
21
-3.22609
0
LINE
8
BLACK
6
CONTINUOUS
10
5.94491
20
-3.22609
11
5.94509
21
-3.22588
0
LINE
8
BLACK
6
CONTINUOUS
10
5.94509
20
-3.22588
11
5.94584
21
-3.22575
0
LINE
8
BLACK
6
CONTINUOUS
10
5.94584
20
-3.22575
11
5.94656
21
-3.22549
0
LINE
8
BLACK
6
CONTINUOUS
10
5.94656
20
-3.22549
11
5.95594
21
-3.22549
0
LINE
8
BLACK
6
CONTINUOUS
10
5.95594
20
-3.22549
11
5.9568
21
-3.22564
0
LINE
8
BLACK
6
CONTINUOUS
10
5.94951
20
-3.23139
11
5.94951
21
-3.26486
0
LINE
8
BLACK
6
CONTINUOUS
10
5.94951
20
-3.26486
11
5.95546
21
-3.26486
0
LINE
8
BLACK
6
CONTINUOUS
10
5.95546
20
-3.26486
11
5.95996
21
-3.26335
0
LINE
8
BLACK
6
CONTINUOUS
10
5.95996
20
-3.26335
11
5.96288
21
-3.26044
0
LINE
8
BLACK
6
CONTINUOUS
10
5.96288
20
-3.26044
11
5.9644
21
-3.25741
0
LINE
8
BLACK
6
CONTINUOUS
10
5.9644
20
-3.25741
11
5.96611
21
-3.25057
0
LINE
8
BLACK
6
CONTINUOUS
10
5.96611
20
-3.25057
11
5.96611
21
-3.24568
0
LINE
8
BLACK
6
CONTINUOUS
10
5.96611
20
-3.24568
11
5.9644
21
-3.23884
0
LINE
8
BLACK
6
CONTINUOUS
10
5.9644
20
-3.23884
11
5.96288
21
-3.23581
0
LINE
8
BLACK
6
CONTINUOUS
10
5.96288
20
-3.23581
11
5.95996
21
-3.2329
0
LINE
8
BLACK
6
CONTINUOUS
10
5.95996
20
-3.2329
11
5.95546
21
-3.23139
0
LINE
8
BLACK
6
CONTINUOUS
10
5.95546
20
-3.23139
11
5.94951
21
-3.23139
0
LINE
8
BLACK
6
CONTINUOUS
10
5.90874
20
-3.22592
11
5.90999
21
-3.22751
0
LINE
8
BLACK
6
CONTINUOUS
10
5.90999
20
-3.22751
11
5.92031
21
-3.25847
0
LINE
8
BLACK
6
CONTINUOUS
10
5.92031
20
-3.25847
11
5.93064
21
-3.22751
0
LINE
8
BLACK
6
CONTINUOUS
10
5.93064
20
-3.22751
11
5.93113
21
-3.2266
0
LINE
8
BLACK
6
CONTINUOUS
10
5.93113
20
-3.2266
11
5.93285
21
-3.22555
0
LINE
8
BLACK
6
CONTINUOUS
10
5.93285
20
-3.22555
11
5.93484
21
-3.22584
0
LINE
8
BLACK
6
CONTINUOUS
10
5.93484
20
-3.22584
11
5.93618
21
-3.22735
0
LINE
8
BLACK
6
CONTINUOUS
10
5.93618
20
-3.22735
11
5.93624
21
-3.22937
0
LINE
8
BLACK
6
CONTINUOUS
10
5.93624
20
-3.22937
11
5.92312
21
-3.26874
0
LINE
8
BLACK
6
CONTINUOUS
10
5.92312
20
-3.26874
11
5.92263
21
-3.26965
0
LINE
8
BLACK
6
CONTINUOUS
10
5.92263
20
-3.26965
11
5.92256
21
-3.26969
0
LINE
8
BLACK
6
CONTINUOUS
10
5.92256
20
-3.26969
11
5.92252
21
-3.26977
0
LINE
8
BLACK
6
CONTINUOUS
10
5.92252
20
-3.26977
11
5.9217
21
-3.27021
0
LINE
8
BLACK
6
CONTINUOUS
10
5.9217
20
-3.27021
11
5.92091
21
-3.2707
0
LINE
8
BLACK
6
CONTINUOUS
10
5.92091
20
-3.2707
11
5.92082
21
-3.27069
0
LINE
8
BLACK
6
CONTINUOUS
10
5.92082
20
-3.27069
11
5.92075
21
-3.27073
0
LINE
8
BLACK
6
CONTINUOUS
10
5.92075
20
-3.27073
11
5.91983
21
-3.27054
0
LINE
8
BLACK
6
CONTINUOUS
10
5.91983
20
-3.27054
11
5.91891
21
-3.27041
0
LINE
8
BLACK
6
CONTINUOUS
10
5.91891
20
-3.27041
11
5.91885
21
-3.27034
0
LINE
8
BLACK
6
CONTINUOUS
10
5.91885
20
-3.27034
11
5.91877
21
-3.27033
0
LINE
8
BLACK
6
CONTINUOUS
10
5.91877
20
-3.27033
11
5.91819
21
-3.26959
0
LINE
8
BLACK
6
CONTINUOUS
10
5.91819
20
-3.26959
11
5.91757
21
-3.2689
0
LINE
8
BLACK
6
CONTINUOUS
10
5.91757
20
-3.2689
11
5.91757
21
-3.26881
0
LINE
8
BLACK
6
CONTINUOUS
10
5.91757
20
-3.26881
11
5.91751
21
-3.26874
0
LINE
8
BLACK
6
CONTINUOUS
10
5.91751
20
-3.26874
11
5.90439
21
-3.22937
0
LINE
8
BLACK
6
CONTINUOUS
10
5.90439
20
-3.22937
11
5.90424
21
-3.22836
0
LINE
8
BLACK
6
CONTINUOUS
10
5.90424
20
-3.22836
11
5.90498
21
-3.22648
0
LINE
8
BLACK
6
CONTINUOUS
10
5.90498
20
-3.22648
11
5.90676
21
-3.22552
0
LINE
8
BLACK
6
CONTINUOUS
10
5.90676
20
-3.22552
11
5.90874
21
-3.22592
0
LINE
8
BLACK
6
CONTINUOUS
10
5.64387
20
-3.2256
11
5.64426
21
-3.22553
0
LINE
8
BLACK
6
CONTINUOUS
10
5.64426
20
-3.22553
11
5.64482
21
-3.22585
0
LINE
8
BLACK
6
CONTINUOUS
10
5.64482
20
-3.22585
11
5.64544
21
-3.22602
0
LINE
8
BLACK
6
CONTINUOUS
10
5.64544
20
-3.22602
11
5.64567
21
-3.22635
0
LINE
8
BLACK
6
CONTINUOUS
10
5.64567
20
-3.22635
11
5.64601
21
-3.22654
0
LINE
8
BLACK
6
CONTINUOUS
10
5.64601
20
-3.22654
11
5.64623
21
-3.22715
0
LINE
8
BLACK
6
CONTINUOUS
10
5.64623
20
-3.22715
11
5.6466
21
-3.22768
0
LINE
8
BLACK
6
CONTINUOUS
10
5.6466
20
-3.22768
11
5.64657
21
-3.22807
0
LINE
8
BLACK
6
CONTINUOUS
10
5.64657
20
-3.22807
11
5.6467
21
-3.22844
0
LINE
8
BLACK
6
CONTINUOUS
10
5.6467
20
-3.22844
11
5.6467
21
-3.26781
0
LINE
8
BLACK
6
CONTINUOUS
10
5.6467
20
-3.26781
11
5.64652
21
-3.26882
0
LINE
8
BLACK
6
CONTINUOUS
10
5.64652
20
-3.26882
11
5.64523
21
-3.27037
0
LINE
8
BLACK
6
CONTINUOUS
10
5.64523
20
-3.27037
11
5.64324
21
-3.27072
0
LINE
8
BLACK
6
CONTINUOUS
10
5.64324
20
-3.27072
11
5.64149
21
-3.26971
0
LINE
8
BLACK
6
CONTINUOUS
10
5.64149
20
-3.26971
11
5.6408
21
-3.26781
0
LINE
8
BLACK
6
CONTINUOUS
10
5.6408
20
-3.26781
11
5.6408
21
-3.24175
0
LINE
8
BLACK
6
CONTINUOUS
10
5.6408
20
-3.24175
11
5.6333
21
-3.25781
0
LINE
8
BLACK
6
CONTINUOUS
10
5.6333
20
-3.25781
11
5.63308
21
-3.25813
0
LINE
8
BLACK
6
CONTINUOUS
10
5.63308
20
-3.25813
11
5.63305
21
-3.25825
0
LINE
8
BLACK
6
CONTINUOUS
10
5.63305
20
-3.25825
11
5.63294
21
-3.25833
0
LINE
8
BLACK
6
CONTINUOUS
10
5.63294
20
-3.25833
11
5.63271
21
-3.25865
0
LINE
8
BLACK
6
CONTINUOUS
10
5.63271
20
-3.25865
11
5.63202
21
-3.25897
0
LINE
8
BLACK
6
CONTINUOUS
10
5.63202
20
-3.25897
11
5.63139
21
-3.25941
0
LINE
8
BLACK
6
CONTINUOUS
10
5.63139
20
-3.25941
11
5.63112
21
-3.25939
0
LINE
8
BLACK
6
CONTINUOUS
10
5.63112
20
-3.25939
11
5.63088
21
-3.2595
0
LINE
8
BLACK
6
CONTINUOUS
10
5.63088
20
-3.2595
11
5.63014
21
-3.2593
0
LINE
8
BLACK
6
CONTINUOUS
10
5.63014
20
-3.2593
11
5.62938
21
-3.25924
0
LINE
8
BLACK
6
CONTINUOUS
10
5.62938
20
-3.25924
11
5.62919
21
-3.25905
0
LINE
8
BLACK
6
CONTINUOUS
10
5.62919
20
-3.25905
11
5.62893
21
-3.25898
0
LINE
8
BLACK
6
CONTINUOUS
10
5.62893
20
-3.25898
11
5.62849
21
-3.25835
0
LINE
8
BLACK
6
CONTINUOUS
10
5.62849
20
-3.25835
11
5.62795
21
-3.25781
0
LINE
8
BLACK
6
CONTINUOUS
10
5.62795
20
-3.25781
11
5.62046
21
-3.24175
0
LINE
8
BLACK
6
CONTINUOUS
10
5.62046
20
-3.24175
11
5.62046
21
-3.26781
0
LINE
8
BLACK
6
CONTINUOUS
10
5.62046
20
-3.26781
11
5.62028
21
-3.26882
0
LINE
8
BLACK
6
CONTINUOUS
10
5.62028
20
-3.26882
11
5.61898
21
-3.27037
0
LINE
8
BLACK
6
CONTINUOUS
10
5.61898
20
-3.27037
11
5.61699
21
-3.27072
0
LINE
8
BLACK
6
CONTINUOUS
10
5.61699
20
-3.27072
11
5.61524
21
-3.26971
0
LINE
8
BLACK
6
CONTINUOUS
10
5.61524
20
-3.26971
11
5.61455
21
-3.26781
0
LINE
8
BLACK
6
CONTINUOUS
10
5.61455
20
-3.26781
11
5.61455
21
-3.22844
0
LINE
8
BLACK
6
CONTINUOUS
10
5.61455
20
-3.22844
11
5.61473
21
-3.22743
0
LINE
8
BLACK
6
CONTINUOUS
10
5.61473
20
-3.22743
11
5.61498
21
-3.22713
0
LINE
8
BLACK
6
CONTINUOUS
10
5.61498
20
-3.22713
11
5.61508
21
-3.22675
0
LINE
8
BLACK
6
CONTINUOUS
10
5.61508
20
-3.22675
11
5.61561
21
-3.22638
0
LINE
8
BLACK
6
CONTINUOUS
10
5.61561
20
-3.22638
11
5.61603
21
-3.22588
0
LINE
8
BLACK
6
CONTINUOUS
10
5.61603
20
-3.22588
11
5.61641
21
-3.22581
0
LINE
8
BLACK
6
CONTINUOUS
10
5.61641
20
-3.22581
11
5.61674
21
-3.22559
0
LINE
8
BLACK
6
CONTINUOUS
10
5.61674
20
-3.22559
11
5.61738
21
-3.22564
0
LINE
8
BLACK
6
CONTINUOUS
10
5.61738
20
-3.22564
11
5.61802
21
-3.22553
0
LINE
8
BLACK
6
CONTINUOUS
10
5.61802
20
-3.22553
11
5.61836
21
-3.22573
0
LINE
8
BLACK
6
CONTINUOUS
10
5.61836
20
-3.22573
11
5.61875
21
-3.22576
0
LINE
8
BLACK
6
CONTINUOUS
10
5.61875
20
-3.22576
11
5.61921
21
-3.22622
0
LINE
8
BLACK
6
CONTINUOUS
10
5.61921
20
-3.22622
11
5.61976
21
-3.22654
0
LINE
8
BLACK
6
CONTINUOUS
10
5.61976
20
-3.22654
11
5.6199
21
-3.22691
0
LINE
8
BLACK
6
CONTINUOUS
10
5.6199
20
-3.22691
11
5.62018
21
-3.22719
0
LINE
8
BLACK
6
CONTINUOUS
10
5.62018
20
-3.22719
11
5.63063
21
-3.24958
0
LINE
8
BLACK
6
CONTINUOUS
10
5.63063
20
-3.24958
11
5.64107
21
-3.22719
0
LINE
8
BLACK
6
CONTINUOUS
10
5.64107
20
-3.22719
11
5.64166
21
-3.22635
0
LINE
8
BLACK
6
CONTINUOUS
10
5.64166
20
-3.22635
11
5.64202
21
-3.22619
0
LINE
8
BLACK
6
CONTINUOUS
10
5.64202
20
-3.22619
11
5.64227
21
-3.22588
0
LINE
8
BLACK
6
CONTINUOUS
10
5.64227
20
-3.22588
11
5.64291
21
-3.22577
0
LINE
8
BLACK
6
CONTINUOUS
10
5.64291
20
-3.22577
11
5.64349
21
-3.2255
0
LINE
8
BLACK
6
CONTINUOUS
10
5.64349
20
-3.2255
11
5.64387
21
-3.2256
0
LINE
8
BLACK
6
CONTINUOUS
10
5.66476
20
-3.22654
11
5.66545
21
-3.22844
0
LINE
8
BLACK
6
CONTINUOUS
10
5.66545
20
-3.22844
11
5.66545
21
-3.26781
0
LINE
8
BLACK
6
CONTINUOUS
10
5.66545
20
-3.26781
11
5.66527
21
-3.26882
0
LINE
8
BLACK
6
CONTINUOUS
10
5.66527
20
-3.26882
11
5.66397
21
-3.27037
0
LINE
8
BLACK
6
CONTINUOUS
10
5.66397
20
-3.27037
11
5.66198
21
-3.27072
0
LINE
8
BLACK
6
CONTINUOUS
10
5.66198
20
-3.27072
11
5.66024
21
-3.26971
0
LINE
8
BLACK
6
CONTINUOUS
10
5.66024
20
-3.26971
11
5.65954
21
-3.26781
0
LINE
8
BLACK
6
CONTINUOUS
10
5.65954
20
-3.26781
11
5.65954
21
-3.22844
0
LINE
8
BLACK
6
CONTINUOUS
10
5.65954
20
-3.22844
11
5.65972
21
-3.22743
0
LINE
8
BLACK
6
CONTINUOUS
10
5.65972
20
-3.22743
11
5.66102
21
-3.22588
0
LINE
8
BLACK
6
CONTINUOUS
10
5.66102
20
-3.22588
11
5.66301
21
-3.22553
0
LINE
8
BLACK
6
CONTINUOUS
10
5.66301
20
-3.22553
11
5.66476
21
-3.22654
  0
ENDSEC
  0
EOF
