  0
SECTION
  2
HEADER
  9
$ANGBASE
  50
0.0
  9
$ANGDIR
  70
1
  9
$MEASUREMENT
  70
0
  0
ENDSEC
  0
SECTION
  2
TABLES
  0
TABLE
  2
LTYPE
  70
4
  0
LTYPE
  5
40F
  2
CONTINUOUS
  70
0
  3
Solid line
  72
65
  73
0
  40
0.0
  0
LTYPE
  5
410
  2
DASHDOT
 70
0
  3
Dash Dot ____ _ ____ _
 72
65
 73
4
 40
2.0
 49
1.25
 49
-0.25
 49
0.25
 49
-0.25
  0
LTYPE
  5
411
  2
DASHED
 70
0
  3
Dashed __ __ __ __ __
 72
65
 73
2
 40
0.75
 49
0.5
 49
-0.25
  0
LTYPE
  5
43B
  2
DOTTED
 70
0
  3
Dotted .  .  .  .
 72
65
 73
2
 40
0.2
 49
0.0
 49
-0.2
  0
ENDTAB
  0
TABLE
  2
STYLE
  70
4
  0
STYLE
  2
KICAD
  70
0
  40
0
  41
1
  42
1
  50
0
  71
0
  3
isocp.shx
  0
STYLE
  2
KICADB
  70
0
  40
0
  41
1
  42
1
  50
0
  71
0
  3
isocp.shx
  0
STYLE
  2
KICADI
  70
0
  40
0
  41
1
  42
1
  50
15
  71
0
  3
isocp.shx
  0
STYLE
  2
KICADBI
  70
0
  40
0
  41
1
  42
1
  50
15
  71
0
  3
isocp.shx
  0
ENDTAB
  0
TABLE
  2
LAYER
  70
1
  0
LAYER
  2
BLACK
  70
0
  62
7
  6
CONTINUOUS
  0
ENDTAB
  0
ENDSEC
  0
SECTION
  2
ENTITIES
0
LINE
8
BLACK
6
CONTINUOUS
10
5.55409
20
-3.70176
11
5.55426
21
-3.70175
0
LINE
8
BLACK
6
CONTINUOUS
10
5.55426
20
-3.70175
11
5.55495
21
-3.70226
0
LINE
8
BLACK
6
CONTINUOUS
10
5.55495
20
-3.70226
11
5.55569
21
-3.70268
0
LINE
8
BLACK
6
CONTINUOUS
10
5.55569
20
-3.70268
11
5.55575
21
-3.70284
0
LINE
8
BLACK
6
CONTINUOUS
10
5.55575
20
-3.70284
11
5.55589
21
-3.70294
0
LINE
8
BLACK
6
CONTINUOUS
10
5.55589
20
-3.70294
11
5.55947
21
-3.70833
0
LINE
8
BLACK
6
CONTINUOUS
10
5.55947
20
-3.70833
11
5.56268
21
-3.71153
0
LINE
8
BLACK
6
CONTINUOUS
10
5.56268
20
-3.71153
11
5.566
21
-3.71319
0
LINE
8
BLACK
6
CONTINUOUS
10
5.566
20
-3.71319
11
5.56682
21
-3.7138
0
LINE
8
BLACK
6
CONTINUOUS
10
5.56682
20
-3.7138
11
5.56763
21
-3.71565
0
LINE
8
BLACK
6
CONTINUOUS
10
5.56763
20
-3.71565
11
5.56705
21
-3.71759
0
LINE
8
BLACK
6
CONTINUOUS
10
5.56705
20
-3.71759
11
5.56537
21
-3.7187
0
LINE
8
BLACK
6
CONTINUOUS
10
5.56537
20
-3.7187
11
5.56336
21
-3.71847
0
LINE
8
BLACK
6
CONTINUOUS
10
5.56336
20
-3.71847
11
5.55961
21
-3.7166
0
LINE
8
BLACK
6
CONTINUOUS
10
5.55961
20
-3.7166
11
5.5589
21
-3.71607
0
LINE
8
BLACK
6
CONTINUOUS
10
5.5589
20
-3.71607
11
5.55884
21
-3.71604
0
LINE
8
BLACK
6
CONTINUOUS
10
5.55884
20
-3.71604
11
5.55638
21
-3.71359
0
LINE
8
BLACK
6
CONTINUOUS
10
5.55638
20
-3.71359
11
5.55638
21
-3.741
0
LINE
8
BLACK
6
CONTINUOUS
10
5.55638
20
-3.741
11
5.56468
21
-3.741
0
LINE
8
BLACK
6
CONTINUOUS
10
5.56468
20
-3.741
11
5.56569
21
-3.74118
0
LINE
8
BLACK
6
CONTINUOUS
10
5.56569
20
-3.74118
11
5.56724
21
-3.74248
0
LINE
8
BLACK
6
CONTINUOUS
10
5.56724
20
-3.74248
11
5.56759
21
-3.74446
0
LINE
8
BLACK
6
CONTINUOUS
10
5.56759
20
-3.74446
11
5.56658
21
-3.74621
0
LINE
8
BLACK
6
CONTINUOUS
10
5.56658
20
-3.74621
11
5.56468
21
-3.7469
0
LINE
8
BLACK
6
CONTINUOUS
10
5.56468
20
-3.7469
11
5.54218
21
-3.7469
0
LINE
8
BLACK
6
CONTINUOUS
10
5.54218
20
-3.7469
11
5.54117
21
-3.74673
0
LINE
8
BLACK
6
CONTINUOUS
10
5.54117
20
-3.74673
11
5.53963
21
-3.74543
0
LINE
8
BLACK
6
CONTINUOUS
10
5.53963
20
-3.74543
11
5.53927
21
-3.74344
0
LINE
8
BLACK
6
CONTINUOUS
10
5.53927
20
-3.74344
11
5.54028
21
-3.74169
0
LINE
8
BLACK
6
CONTINUOUS
10
5.54028
20
-3.74169
11
5.54218
21
-3.741
0
LINE
8
BLACK
6
CONTINUOUS
10
5.54218
20
-3.741
11
5.55048
21
-3.741
0
LINE
8
BLACK
6
CONTINUOUS
10
5.55048
20
-3.741
11
5.55048
21
-3.70458
0
LINE
8
BLACK
6
CONTINUOUS
10
5.55048
20
-3.70458
11
5.55066
21
-3.70357
0
LINE
8
BLACK
6
CONTINUOUS
10
5.55066
20
-3.70357
11
5.55077
21
-3.70344
0
LINE
8
BLACK
6
CONTINUOUS
10
5.55077
20
-3.70344
11
5.55078
21
-3.70327
0
LINE
8
BLACK
6
CONTINUOUS
10
5.55078
20
-3.70327
11
5.5514
21
-3.70268
0
LINE
8
BLACK
6
CONTINUOUS
10
5.5514
20
-3.70268
11
5.55195
21
-3.70202
0
LINE
8
BLACK
6
CONTINUOUS
10
5.55195
20
-3.70202
11
5.55212
21
-3.702
0
LINE
8
BLACK
6
CONTINUOUS
10
5.55212
20
-3.702
11
5.55224
21
-3.70188
0
LINE
8
BLACK
6
CONTINUOUS
10
5.55224
20
-3.70188
11
5.5531
21
-3.70182
0
LINE
8
BLACK
6
CONTINUOUS
10
5.5531
20
-3.70182
11
5.55394
21
-3.70167
0
LINE
8
BLACK
6
CONTINUOUS
10
5.55394
20
-3.70167
11
5.55409
21
-3.70176
0
LINE
8
BLACK
6
CONTINUOUS
10
5.49008
20
-3.71581
11
5.49077
21
-3.71771
0
LINE
8
BLACK
6
CONTINUOUS
10
5.49077
20
-3.71771
11
5.49077
21
-3.73833
0
LINE
8
BLACK
6
CONTINUOUS
10
5.49077
20
-3.73833
11
5.49059
21
-3.73934
0
LINE
8
BLACK
6
CONTINUOUS
10
5.49059
20
-3.73934
11
5.49048
21
-3.73947
0
LINE
8
BLACK
6
CONTINUOUS
10
5.49048
20
-3.73947
11
5.49046
21
-3.73965
0
LINE
8
BLACK
6
CONTINUOUS
10
5.49046
20
-3.73965
11
5.48858
21
-3.7434
0
LINE
8
BLACK
6
CONTINUOUS
10
5.48858
20
-3.7434
11
5.48797
21
-3.74422
0
LINE
8
BLACK
6
CONTINUOUS
10
5.48797
20
-3.74422
11
5.48756
21
-3.7444
0
LINE
8
BLACK
6
CONTINUOUS
10
5.48756
20
-3.7444
11
5.48726
21
-3.74472
0
LINE
8
BLACK
6
CONTINUOUS
10
5.48726
20
-3.74472
11
5.48351
21
-3.74659
0
LINE
8
BLACK
6
CONTINUOUS
10
5.48351
20
-3.74659
11
5.48253
21
-3.74689
0
LINE
8
BLACK
6
CONTINUOUS
10
5.48253
20
-3.74689
11
5.48236
21
-3.74684
0
LINE
8
BLACK
6
CONTINUOUS
10
5.48236
20
-3.74684
11
5.48219
21
-3.7469
0
LINE
8
BLACK
6
CONTINUOUS
10
5.48219
20
-3.7469
11
5.47657
21
-3.7469
0
LINE
8
BLACK
6
CONTINUOUS
10
5.47657
20
-3.7469
11
5.47556
21
-3.74673
0
LINE
8
BLACK
6
CONTINUOUS
10
5.47556
20
-3.74673
11
5.47542
21
-3.74661
0
LINE
8
BLACK
6
CONTINUOUS
10
5.47542
20
-3.74661
11
5.47524
21
-3.74659
0
LINE
8
BLACK
6
CONTINUOUS
10
5.47524
20
-3.74659
11
5.4732
21
-3.74557
0
LINE
8
BLACK
6
CONTINUOUS
10
5.4732
20
-3.74557
11
5.47242
21
-3.74651
0
LINE
8
BLACK
6
CONTINUOUS
10
5.47242
20
-3.74651
11
5.47043
21
-3.74686
0
LINE
8
BLACK
6
CONTINUOUS
10
5.47043
20
-3.74686
11
5.46868
21
-3.74585
0
LINE
8
BLACK
6
CONTINUOUS
10
5.46868
20
-3.74585
11
5.46799
21
-3.74395
0
LINE
8
BLACK
6
CONTINUOUS
10
5.46799
20
-3.74395
11
5.46799
21
-3.71771
0
LINE
8
BLACK
6
CONTINUOUS
10
5.46799
20
-3.71771
11
5.46817
21
-3.7167
0
LINE
8
BLACK
6
CONTINUOUS
10
5.46817
20
-3.7167
11
5.46946
21
-3.71515
0
LINE
8
BLACK
6
CONTINUOUS
10
5.46946
20
-3.71515
11
5.47145
21
-3.7148
0
LINE
8
BLACK
6
CONTINUOUS
10
5.47145
20
-3.7148
11
5.4732
21
-3.71581
0
LINE
8
BLACK
6
CONTINUOUS
10
5.4732
20
-3.71581
11
5.47389
21
-3.71771
0
LINE
8
BLACK
6
CONTINUOUS
10
5.47389
20
-3.71771
11
5.47389
21
-3.73898
0
LINE
8
BLACK
6
CONTINUOUS
10
5.47389
20
-3.73898
11
5.47456
21
-3.73965
0
LINE
8
BLACK
6
CONTINUOUS
10
5.47456
20
-3.73965
11
5.47726
21
-3.741
0
LINE
8
BLACK
6
CONTINUOUS
10
5.47726
20
-3.741
11
5.48149
21
-3.741
0
LINE
8
BLACK
6
CONTINUOUS
10
5.48149
20
-3.741
11
5.48374
21
-3.73988
0
LINE
8
BLACK
6
CONTINUOUS
10
5.48374
20
-3.73988
11
5.48486
21
-3.73763
0
LINE
8
BLACK
6
CONTINUOUS
10
5.48486
20
-3.73763
11
5.48486
21
-3.71771
0
LINE
8
BLACK
6
CONTINUOUS
10
5.48486
20
-3.71771
11
5.48504
21
-3.7167
0
LINE
8
BLACK
6
CONTINUOUS
10
5.48504
20
-3.7167
11
5.48634
21
-3.71515
0
LINE
8
BLACK
6
CONTINUOUS
10
5.48634
20
-3.71515
11
5.48833
21
-3.7148
0
LINE
8
BLACK
6
CONTINUOUS
10
5.48833
20
-3.7148
11
5.49008
21
-3.71581
0
LINE
8
BLACK
6
CONTINUOUS
10
5.51882
20
-3.70181
11
5.51896
21
-3.70192
0
LINE
8
BLACK
6
CONTINUOUS
10
5.51896
20
-3.70192
11
5.51913
21
-3.70194
0
LINE
8
BLACK
6
CONTINUOUS
10
5.51913
20
-3.70194
11
5.52288
21
-3.70382
0
LINE
8
BLACK
6
CONTINUOUS
10
5.52288
20
-3.70382
11
5.52359
21
-3.70434
0
LINE
8
BLACK
6
CONTINUOUS
10
5.52359
20
-3.70434
11
5.52365
21
-3.70437
0
LINE
8
BLACK
6
CONTINUOUS
10
5.52365
20
-3.70437
11
5.52552
21
-3.70624
0
LINE
8
BLACK
6
CONTINUOUS
10
5.52552
20
-3.70624
11
5.52603
21
-3.70697
0
LINE
8
BLACK
6
CONTINUOUS
10
5.52603
20
-3.70697
11
5.52608
21
-3.70701
0
LINE
8
BLACK
6
CONTINUOUS
10
5.52608
20
-3.70701
11
5.52795
21
-3.71076
0
LINE
8
BLACK
6
CONTINUOUS
10
5.52795
20
-3.71076
11
5.5281
21
-3.71125
0
LINE
8
BLACK
6
CONTINUOUS
10
5.5281
20
-3.71125
11
5.52817
21
-3.71136
0
LINE
8
BLACK
6
CONTINUOUS
10
5.52817
20
-3.71136
11
5.53005
21
-3.71886
0
LINE
8
BLACK
6
CONTINUOUS
10
5.53005
20
-3.71886
11
5.53009
21
-3.71945
0
LINE
8
BLACK
6
CONTINUOUS
10
5.53009
20
-3.71945
11
5.53014
21
-3.71958
0
LINE
8
BLACK
6
CONTINUOUS
10
5.53014
20
-3.71958
11
5.53014
21
-3.72895
0
LINE
8
BLACK
6
CONTINUOUS
10
5.53014
20
-3.72895
11
5.53003
21
-3.72953
0
LINE
8
BLACK
6
CONTINUOUS
10
5.53003
20
-3.72953
11
5.53005
21
-3.72967
0
LINE
8
BLACK
6
CONTINUOUS
10
5.53005
20
-3.72967
11
5.52817
21
-3.73717
0
LINE
8
BLACK
6
CONTINUOUS
10
5.52817
20
-3.73717
11
5.52797
21
-3.73763
0
LINE
8
BLACK
6
CONTINUOUS
10
5.52797
20
-3.73763
11
5.52795
21
-3.73777
0
LINE
8
BLACK
6
CONTINUOUS
10
5.52795
20
-3.73777
11
5.52608
21
-3.74152
0
LINE
8
BLACK
6
CONTINUOUS
10
5.52608
20
-3.74152
11
5.52555
21
-3.74223
0
LINE
8
BLACK
6
CONTINUOUS
10
5.52555
20
-3.74223
11
5.52552
21
-3.74229
0
LINE
8
BLACK
6
CONTINUOUS
10
5.52552
20
-3.74229
11
5.52365
21
-3.74417
0
LINE
8
BLACK
6
CONTINUOUS
10
5.52365
20
-3.74417
11
5.52292
21
-3.74467
0
LINE
8
BLACK
6
CONTINUOUS
10
5.52292
20
-3.74467
11
5.52288
21
-3.74472
0
LINE
8
BLACK
6
CONTINUOUS
10
5.52288
20
-3.74472
11
5.51913
21
-3.74659
0
LINE
8
BLACK
6
CONTINUOUS
10
5.51913
20
-3.74659
11
5.51815
21
-3.74689
0
LINE
8
BLACK
6
CONTINUOUS
10
5.51815
20
-3.74689
11
5.51798
21
-3.74684
0
LINE
8
BLACK
6
CONTINUOUS
10
5.51798
20
-3.74684
11
5.51781
21
-3.7469
0
LINE
8
BLACK
6
CONTINUOUS
10
5.51781
20
-3.7469
11
5.51406
21
-3.7469
0
LINE
8
BLACK
6
CONTINUOUS
10
5.51406
20
-3.7469
11
5.51305
21
-3.74673
0
LINE
8
BLACK
6
CONTINUOUS
10
5.51305
20
-3.74673
11
5.51292
21
-3.74661
0
LINE
8
BLACK
6
CONTINUOUS
10
5.51292
20
-3.74661
11
5.51274
21
-3.74659
0
LINE
8
BLACK
6
CONTINUOUS
10
5.51274
20
-3.74659
11
5.50899
21
-3.74472
0
LINE
8
BLACK
6
CONTINUOUS
10
5.50899
20
-3.74472
11
5.50828
21
-3.74419
0
LINE
8
BLACK
6
CONTINUOUS
10
5.50828
20
-3.74419
11
5.50822
21
-3.74417
0
LINE
8
BLACK
6
CONTINUOUS
10
5.50822
20
-3.74417
11
5.50635
21
-3.74229
0
LINE
8
BLACK
6
CONTINUOUS
10
5.50635
20
-3.74229
11
5.50584
21
-3.74157
0
LINE
8
BLACK
6
CONTINUOUS
10
5.50584
20
-3.74157
11
5.5058
21
-3.74152
0
LINE
8
BLACK
6
CONTINUOUS
10
5.5058
20
-3.74152
11
5.50392
21
-3.73777
0
LINE
8
BLACK
6
CONTINUOUS
10
5.50392
20
-3.73777
11
5.50378
21
-3.73728
0
LINE
8
BLACK
6
CONTINUOUS
10
5.50378
20
-3.73728
11
5.5037
21
-3.73717
0
LINE
8
BLACK
6
CONTINUOUS
10
5.5037
20
-3.73717
11
5.50182
21
-3.72967
0
LINE
8
BLACK
6
CONTINUOUS
10
5.50182
20
-3.72967
11
5.50178
21
-3.72908
0
LINE
8
BLACK
6
CONTINUOUS
10
5.50178
20
-3.72908
11
5.50173
21
-3.72895
0
LINE
8
BLACK
6
CONTINUOUS
10
5.50173
20
-3.72895
11
5.50173
21
-3.71958
0
LINE
8
BLACK
6
CONTINUOUS
10
5.50173
20
-3.71958
11
5.50184
21
-3.719
0
LINE
8
BLACK
6
CONTINUOUS
10
5.50184
20
-3.719
11
5.50182
21
-3.71886
0
LINE
8
BLACK
6
CONTINUOUS
10
5.50182
20
-3.71886
11
5.5037
21
-3.71136
0
LINE
8
BLACK
6
CONTINUOUS
10
5.5037
20
-3.71136
11
5.5039
21
-3.7109
0
LINE
8
BLACK
6
CONTINUOUS
10
5.5039
20
-3.7109
11
5.50392
21
-3.71076
0
LINE
8
BLACK
6
CONTINUOUS
10
5.50392
20
-3.71076
11
5.5058
21
-3.70701
0
LINE
8
BLACK
6
CONTINUOUS
10
5.5058
20
-3.70701
11
5.50632
21
-3.7063
0
LINE
8
BLACK
6
CONTINUOUS
10
5.50632
20
-3.7063
11
5.50635
21
-3.70624
0
LINE
8
BLACK
6
CONTINUOUS
10
5.50635
20
-3.70624
11
5.50822
21
-3.70437
0
LINE
8
BLACK
6
CONTINUOUS
10
5.50822
20
-3.70437
11
5.50895
21
-3.70386
0
LINE
8
BLACK
6
CONTINUOUS
10
5.50895
20
-3.70386
11
5.50899
21
-3.70382
0
LINE
8
BLACK
6
CONTINUOUS
10
5.50899
20
-3.70382
11
5.51274
21
-3.70194
0
LINE
8
BLACK
6
CONTINUOUS
10
5.51274
20
-3.70194
11
5.51372
21
-3.70165
0
LINE
8
BLACK
6
CONTINUOUS
10
5.51372
20
-3.70165
11
5.51389
21
-3.70169
0
LINE
8
BLACK
6
CONTINUOUS
10
5.51389
20
-3.70169
11
5.51406
21
-3.70163
0
LINE
8
BLACK
6
CONTINUOUS
10
5.51406
20
-3.70163
11
5.51781
21
-3.70163
0
LINE
8
BLACK
6
CONTINUOUS
10
5.51781
20
-3.70163
11
5.51882
21
-3.70181
0
LINE
8
BLACK
6
CONTINUOUS
10
5.51476
20
-3.70753
11
5.51206
21
-3.70888
0
LINE
8
BLACK
6
CONTINUOUS
10
5.51206
20
-3.70888
11
5.51086
21
-3.71008
0
LINE
8
BLACK
6
CONTINUOUS
10
5.51086
20
-3.71008
11
5.50935
21
-3.71311
0
LINE
8
BLACK
6
CONTINUOUS
10
5.50935
20
-3.71311
11
5.50764
21
-3.71994
0
LINE
8
BLACK
6
CONTINUOUS
10
5.50764
20
-3.71994
11
5.50764
21
-3.72859
0
LINE
8
BLACK
6
CONTINUOUS
10
5.50764
20
-3.72859
11
5.50935
21
-3.73542
0
LINE
8
BLACK
6
CONTINUOUS
10
5.50935
20
-3.73542
11
5.51086
21
-3.73845
0
LINE
8
BLACK
6
CONTINUOUS
10
5.51086
20
-3.73845
11
5.51206
21
-3.73965
0
LINE
8
BLACK
6
CONTINUOUS
10
5.51206
20
-3.73965
11
5.51476
21
-3.741
0
LINE
8
BLACK
6
CONTINUOUS
10
5.51476
20
-3.741
11
5.51711
21
-3.741
0
LINE
8
BLACK
6
CONTINUOUS
10
5.51711
20
-3.741
11
5.51981
21
-3.73965
0
LINE
8
BLACK
6
CONTINUOUS
10
5.51981
20
-3.73965
11
5.52101
21
-3.73845
0
LINE
8
BLACK
6
CONTINUOUS
10
5.52101
20
-3.73845
11
5.52252
21
-3.73542
0
LINE
8
BLACK
6
CONTINUOUS
10
5.52252
20
-3.73542
11
5.52423
21
-3.72859
0
LINE
8
BLACK
6
CONTINUOUS
10
5.52423
20
-3.72859
11
5.52423
21
-3.71994
0
LINE
8
BLACK
6
CONTINUOUS
10
5.52423
20
-3.71994
11
5.52252
21
-3.71311
0
LINE
8
BLACK
6
CONTINUOUS
10
5.52252
20
-3.71311
11
5.52101
21
-3.71008
0
LINE
8
BLACK
6
CONTINUOUS
10
5.52101
20
-3.71008
11
5.51981
21
-3.70888
0
LINE
8
BLACK
6
CONTINUOUS
10
5.51981
20
-3.70888
11
5.51711
21
-3.70753
0
LINE
8
BLACK
6
CONTINUOUS
10
5.51711
20
-3.70753
11
5.51476
21
-3.70753
0
LINE
8
BLACK
6
CONTINUOUS
10
5.45258
20
-3.7017
11
5.45271
21
-3.70167
0
LINE
8
BLACK
6
CONTINUOUS
10
5.45271
20
-3.70167
11
5.45282
21
-3.70174
0
LINE
8
BLACK
6
CONTINUOUS
10
5.45282
20
-3.70174
11
5.4532
21
-3.70181
0
LINE
8
BLACK
6
CONTINUOUS
10
5.4532
20
-3.70181
11
5.45379
21
-3.7023
0
LINE
8
BLACK
6
CONTINUOUS
10
5.45379
20
-3.7023
11
5.45446
21
-3.70268
0
LINE
8
BLACK
6
CONTINUOUS
10
5.45446
20
-3.70268
11
5.45455
21
-3.70293
0
LINE
8
BLACK
6
CONTINUOUS
10
5.45455
20
-3.70293
11
5.45475
21
-3.70311
0
LINE
8
BLACK
6
CONTINUOUS
10
5.45475
20
-3.70311
11
5.45488
21
-3.70386
0
LINE
8
BLACK
6
CONTINUOUS
10
5.45488
20
-3.70386
11
5.45515
21
-3.70458
0
LINE
8
BLACK
6
CONTINUOUS
10
5.45515
20
-3.70458
11
5.45515
21
-3.74395
0
LINE
8
BLACK
6
CONTINUOUS
10
5.45515
20
-3.74395
11
5.45497
21
-3.74496
0
LINE
8
BLACK
6
CONTINUOUS
10
5.45497
20
-3.74496
11
5.45367
21
-3.74651
0
LINE
8
BLACK
6
CONTINUOUS
10
5.45367
20
-3.74651
11
5.45168
21
-3.74686
0
LINE
8
BLACK
6
CONTINUOUS
10
5.45168
20
-3.74686
11
5.44993
21
-3.74585
0
LINE
8
BLACK
6
CONTINUOUS
10
5.44993
20
-3.74585
11
5.44924
21
-3.74395
0
LINE
8
BLACK
6
CONTINUOUS
10
5.44924
20
-3.74395
11
5.44924
21
-3.72628
0
LINE
8
BLACK
6
CONTINUOUS
10
5.44924
20
-3.72628
11
5.43907
21
-3.72628
0
LINE
8
BLACK
6
CONTINUOUS
10
5.43907
20
-3.72628
11
5.43806
21
-3.7261
0
LINE
8
BLACK
6
CONTINUOUS
10
5.43806
20
-3.7261
11
5.43651
21
-3.72481
0
LINE
8
BLACK
6
CONTINUOUS
10
5.43651
20
-3.72481
11
5.43616
21
-3.72282
0
LINE
8
BLACK
6
CONTINUOUS
10
5.43616
20
-3.72282
11
5.43717
21
-3.72107
0
LINE
8
BLACK
6
CONTINUOUS
10
5.43717
20
-3.72107
11
5.43907
21
-3.72038
0
LINE
8
BLACK
6
CONTINUOUS
10
5.43907
20
-3.72038
11
5.44924
21
-3.72038
0
LINE
8
BLACK
6
CONTINUOUS
10
5.44924
20
-3.72038
11
5.44924
21
-3.70753
0
LINE
8
BLACK
6
CONTINUOUS
10
5.44924
20
-3.70753
11
5.43345
21
-3.70753
0
LINE
8
BLACK
6
CONTINUOUS
10
5.43345
20
-3.70753
11
5.43244
21
-3.70736
0
LINE
8
BLACK
6
CONTINUOUS
10
5.43244
20
-3.70736
11
5.43089
21
-3.70606
0
LINE
8
BLACK
6
CONTINUOUS
10
5.43089
20
-3.70606
11
5.43054
21
-3.70407
0
LINE
8
BLACK
6
CONTINUOUS
10
5.43054
20
-3.70407
11
5.43155
21
-3.70232
0
LINE
8
BLACK
6
CONTINUOUS
10
5.43155
20
-3.70232
11
5.43345
21
-3.70163
0
LINE
8
BLACK
6
CONTINUOUS
10
5.43345
20
-3.70163
11
5.45219
21
-3.70163
0
LINE
8
BLACK
6
CONTINUOUS
10
5.45219
20
-3.70163
11
5.45258
21
-3.7017
0
LINE
8
BLACK
6
CONTINUOUS
10
5.45924
20
-3.686
11
5.45866
21
-3.68461
0
LINE
8
BLACK
6
CONTINUOUS
10
5.45866
20
-3.68461
11
5.45866
21
-3.63539
0
LINE
8
BLACK
6
CONTINUOUS
10
5.45866
20
-3.63539
11
5.45924
21
-3.634
0
LINE
8
BLACK
6
CONTINUOUS
10
5.45924
20
-3.634
11
5.46063
21
-3.63343
0
LINE
8
BLACK
6
CONTINUOUS
10
5.46063
20
-3.63343
11
5.46871
21
-3.63343
0
LINE
8
BLACK
6
CONTINUOUS
10
5.46871
20
-3.63343
11
5.46871
21
-3.63268
0
LINE
8
BLACK
6
CONTINUOUS
10
5.46871
20
-3.63268
11
5.46804
21
-3.63201
0
LINE
8
BLACK
6
CONTINUOUS
10
5.46804
20
-3.63201
11
5.46534
21
-3.63066
0
LINE
8
BLACK
6
CONTINUOUS
10
5.46534
20
-3.63066
11
5.46111
21
-3.63066
0
LINE
8
BLACK
6
CONTINUOUS
10
5.46111
20
-3.63066
11
5.45887
21
-3.63178
0
LINE
8
BLACK
6
CONTINUOUS
10
5.45887
20
-3.63178
11
5.45774
21
-3.63403
0
LINE
8
BLACK
6
CONTINUOUS
10
5.45774
20
-3.63403
11
5.45774
21
-3.65395
0
LINE
8
BLACK
6
CONTINUOUS
10
5.45774
20
-3.65395
11
5.45757
21
-3.65496
0
LINE
8
BLACK
6
CONTINUOUS
10
5.45757
20
-3.65496
11
5.45627
21
-3.65651
0
LINE
8
BLACK
6
CONTINUOUS
10
5.45627
20
-3.65651
11
5.45428
21
-3.65686
0
LINE
8
BLACK
6
CONTINUOUS
10
5.45428
20
-3.65686
11
5.45253
21
-3.65585
0
LINE
8
BLACK
6
CONTINUOUS
10
5.45253
20
-3.65585
11
5.45184
21
-3.65395
0
LINE
8
BLACK
6
CONTINUOUS
10
5.45184
20
-3.65395
11
5.45184
21
-3.63333
0
LINE
8
BLACK
6
CONTINUOUS
10
5.45184
20
-3.63333
11
5.45202
21
-3.63232
0
LINE
8
BLACK
6
CONTINUOUS
10
5.45202
20
-3.63232
11
5.45213
21
-3.63218
0
LINE
8
BLACK
6
CONTINUOUS
10
5.45213
20
-3.63218
11
5.45215
21
-3.63201
0
LINE
8
BLACK
6
CONTINUOUS
10
5.45215
20
-3.63201
11
5.45403
21
-3.62826
0
LINE
8
BLACK
6
CONTINUOUS
10
5.45403
20
-3.62826
11
5.45464
21
-3.62744
0
LINE
8
BLACK
6
CONTINUOUS
10
5.45464
20
-3.62744
11
5.45504
21
-3.62726
0
LINE
8
BLACK
6
CONTINUOUS
10
5.45504
20
-3.62726
11
5.45535
21
-3.62694
0
LINE
8
BLACK
6
CONTINUOUS
10
5.45535
20
-3.62694
11
5.4591
21
-3.62506
0
LINE
8
BLACK
6
CONTINUOUS
10
5.4591
20
-3.62506
11
5.46008
21
-3.62477
0
LINE
8
BLACK
6
CONTINUOUS
10
5.46008
20
-3.62477
11
5.46025
21
-3.62481
0
LINE
8
BLACK
6
CONTINUOUS
10
5.46025
20
-3.62481
11
5.46042
21
-3.62475
0
LINE
8
BLACK
6
CONTINUOUS
10
5.46042
20
-3.62475
11
5.46604
21
-3.62475
0
LINE
8
BLACK
6
CONTINUOUS
10
5.46604
20
-3.62475
11
5.46705
21
-3.62493
0
LINE
8
BLACK
6
CONTINUOUS
10
5.46705
20
-3.62493
11
5.46719
21
-3.62504
0
LINE
8
BLACK
6
CONTINUOUS
10
5.46719
20
-3.62504
11
5.46736
21
-3.62506
0
LINE
8
BLACK
6
CONTINUOUS
10
5.46736
20
-3.62506
11
5.4694
21
-3.62608
0
LINE
8
BLACK
6
CONTINUOUS
10
5.4694
20
-3.62608
11
5.47019
21
-3.62515
0
LINE
8
BLACK
6
CONTINUOUS
10
5.47019
20
-3.62515
11
5.47218
21
-3.6248
0
LINE
8
BLACK
6
CONTINUOUS
10
5.47218
20
-3.6248
11
5.47393
21
-3.62581
0
LINE
8
BLACK
6
CONTINUOUS
10
5.47393
20
-3.62581
11
5.47462
21
-3.62771
0
LINE
8
BLACK
6
CONTINUOUS
10
5.47462
20
-3.62771
11
5.47462
21
-3.63343
0
LINE
8
BLACK
6
CONTINUOUS
10
5.47462
20
-3.63343
11
5.48558
21
-3.63343
0
LINE
8
BLACK
6
CONTINUOUS
10
5.48558
20
-3.63343
11
5.48558
21
-3.62958
0
LINE
8
BLACK
6
CONTINUOUS
10
5.48558
20
-3.62958
11
5.48569
21
-3.629
0
LINE
8
BLACK
6
CONTINUOUS
10
5.48569
20
-3.629
11
5.48567
21
-3.62886
0
LINE
8
BLACK
6
CONTINUOUS
10
5.48567
20
-3.62886
11
5.48755
21
-3.62136
0
LINE
8
BLACK
6
CONTINUOUS
10
5.48755
20
-3.62136
11
5.48776
21
-3.6209
0
LINE
8
BLACK
6
CONTINUOUS
10
5.48776
20
-3.6209
11
5.48777
21
-3.62076
0
LINE
8
BLACK
6
CONTINUOUS
10
5.48777
20
-3.62076
11
5.48965
21
-3.61701
0
LINE
8
BLACK
6
CONTINUOUS
10
5.48965
20
-3.61701
11
5.49017
21
-3.6163
0
LINE
8
BLACK
6
CONTINUOUS
10
5.49017
20
-3.6163
11
5.4902
21
-3.61624
0
LINE
8
BLACK
6
CONTINUOUS
10
5.4902
20
-3.61624
11
5.49207
21
-3.61437
0
LINE
8
BLACK
6
CONTINUOUS
10
5.49207
20
-3.61437
11
5.4928
21
-3.61386
0
LINE
8
BLACK
6
CONTINUOUS
10
5.4928
20
-3.61386
11
5.49284
21
-3.61382
0
LINE
8
BLACK
6
CONTINUOUS
10
5.49284
20
-3.61382
11
5.49659
21
-3.61194
0
LINE
8
BLACK
6
CONTINUOUS
10
5.49659
20
-3.61194
11
5.49757
21
-3.61165
0
LINE
8
BLACK
6
CONTINUOUS
10
5.49757
20
-3.61165
11
5.49775
21
-3.61169
0
LINE
8
BLACK
6
CONTINUOUS
10
5.49775
20
-3.61169
11
5.49791
21
-3.61163
0
LINE
8
BLACK
6
CONTINUOUS
10
5.49791
20
-3.61163
11
5.50166
21
-3.61163
0
LINE
8
BLACK
6
CONTINUOUS
10
5.50166
20
-3.61163
11
5.50267
21
-3.61181
0
LINE
8
BLACK
6
CONTINUOUS
10
5.50267
20
-3.61181
11
5.50281
21
-3.61192
0
LINE
8
BLACK
6
CONTINUOUS
10
5.50281
20
-3.61192
11
5.50298
21
-3.61194
0
LINE
8
BLACK
6
CONTINUOUS
10
5.50298
20
-3.61194
11
5.50673
21
-3.61382
0
LINE
8
BLACK
6
CONTINUOUS
10
5.50673
20
-3.61382
11
5.50744
21
-3.61434
0
LINE
8
BLACK
6
CONTINUOUS
10
5.50744
20
-3.61434
11
5.5075
21
-3.61437
0
LINE
8
BLACK
6
CONTINUOUS
10
5.5075
20
-3.61437
11
5.50937
21
-3.61624
0
LINE
8
BLACK
6
CONTINUOUS
10
5.50937
20
-3.61624
11
5.50988
21
-3.61697
0
LINE
8
BLACK
6
CONTINUOUS
10
5.50988
20
-3.61697
11
5.50993
21
-3.61701
0
LINE
8
BLACK
6
CONTINUOUS
10
5.50993
20
-3.61701
11
5.5118
21
-3.62076
0
LINE
8
BLACK
6
CONTINUOUS
10
5.5118
20
-3.62076
11
5.51195
21
-3.62125
0
LINE
8
BLACK
6
CONTINUOUS
10
5.51195
20
-3.62125
11
5.51202
21
-3.62136
0
LINE
8
BLACK
6
CONTINUOUS
10
5.51202
20
-3.62136
11
5.5139
21
-3.62886
0
LINE
8
BLACK
6
CONTINUOUS
10
5.5139
20
-3.62886
11
5.51394
21
-3.62945
0
LINE
8
BLACK
6
CONTINUOUS
10
5.51394
20
-3.62945
11
5.51399
21
-3.62958
0
LINE
8
BLACK
6
CONTINUOUS
10
5.51399
20
-3.62958
11
5.51399
21
-3.63343
0
LINE
8
BLACK
6
CONTINUOUS
10
5.51399
20
-3.63343
11
5.52308
21
-3.63343
0
LINE
8
BLACK
6
CONTINUOUS
10
5.52308
20
-3.63343
11
5.52308
21
-3.62958
0
LINE
8
BLACK
6
CONTINUOUS
10
5.52308
20
-3.62958
11
5.52318
21
-3.629
0
LINE
8
BLACK
6
CONTINUOUS
10
5.52318
20
-3.629
11
5.52317
21
-3.62886
0
LINE
8
BLACK
6
CONTINUOUS
10
5.52317
20
-3.62886
11
5.52504
21
-3.62136
0
LINE
8
BLACK
6
CONTINUOUS
10
5.52504
20
-3.62136
11
5.52525
21
-3.6209
0
LINE
8
BLACK
6
CONTINUOUS
10
5.52525
20
-3.6209
11
5.52527
21
-3.62076
0
LINE
8
BLACK
6
CONTINUOUS
10
5.52527
20
-3.62076
11
5.52714
21
-3.61701
0
LINE
8
BLACK
6
CONTINUOUS
10
5.52714
20
-3.61701
11
5.52767
21
-3.6163
0
LINE
8
BLACK
6
CONTINUOUS
10
5.52767
20
-3.6163
11
5.52769
21
-3.61624
0
LINE
8
BLACK
6
CONTINUOUS
10
5.52769
20
-3.61624
11
5.52957
21
-3.61437
0
LINE
8
BLACK
6
CONTINUOUS
10
5.52957
20
-3.61437
11
5.53029
21
-3.61386
0
LINE
8
BLACK
6
CONTINUOUS
10
5.53029
20
-3.61386
11
5.53034
21
-3.61382
0
LINE
8
BLACK
6
CONTINUOUS
10
5.53034
20
-3.61382
11
5.53409
21
-3.61194
0
LINE
8
BLACK
6
CONTINUOUS
10
5.53409
20
-3.61194
11
5.53507
21
-3.61165
0
LINE
8
BLACK
6
CONTINUOUS
10
5.53507
20
-3.61165
11
5.53524
21
-3.61169
0
LINE
8
BLACK
6
CONTINUOUS
10
5.53524
20
-3.61169
11
5.53541
21
-3.61163
0
LINE
8
BLACK
6
CONTINUOUS
10
5.53541
20
-3.61163
11
5.53916
21
-3.61163
0
LINE
8
BLACK
6
CONTINUOUS
10
5.53916
20
-3.61163
11
5.54017
21
-3.61181
0
LINE
8
BLACK
6
CONTINUOUS
10
5.54017
20
-3.61181
11
5.5403
21
-3.61192
0
LINE
8
BLACK
6
CONTINUOUS
10
5.5403
20
-3.61192
11
5.54048
21
-3.61194
0
LINE
8
BLACK
6
CONTINUOUS
10
5.54048
20
-3.61194
11
5.54423
21
-3.61382
0
LINE
8
BLACK
6
CONTINUOUS
10
5.54423
20
-3.61382
11
5.54494
21
-3.61434
0
LINE
8
BLACK
6
CONTINUOUS
10
5.54494
20
-3.61434
11
5.54499
21
-3.61437
0
LINE
8
BLACK
6
CONTINUOUS
10
5.54499
20
-3.61437
11
5.54687
21
-3.61624
0
LINE
8
BLACK
6
CONTINUOUS
10
5.54687
20
-3.61624
11
5.54737
21
-3.61697
0
LINE
8
BLACK
6
CONTINUOUS
10
5.54737
20
-3.61697
11
5.54742
21
-3.61701
0
LINE
8
BLACK
6
CONTINUOUS
10
5.54742
20
-3.61701
11
5.5493
21
-3.62076
0
LINE
8
BLACK
6
CONTINUOUS
10
5.5493
20
-3.62076
11
5.54944
21
-3.62125
0
LINE
8
BLACK
6
CONTINUOUS
10
5.54944
20
-3.62125
11
5.54952
21
-3.62136
0
LINE
8
BLACK
6
CONTINUOUS
10
5.54952
20
-3.62136
11
5.55139
21
-3.62886
0
LINE
8
BLACK
6
CONTINUOUS
10
5.55139
20
-3.62886
11
5.55144
21
-3.62945
0
LINE
8
BLACK
6
CONTINUOUS
10
5.55144
20
-3.62945
11
5.55148
21
-3.62958
0
LINE
8
BLACK
6
CONTINUOUS
10
5.55148
20
-3.62958
11
5.55148
21
-3.63895
0
LINE
8
BLACK
6
CONTINUOUS
10
5.55148
20
-3.63895
11
5.55138
21
-3.63953
0
LINE
8
BLACK
6
CONTINUOUS
10
5.55138
20
-3.63953
11
5.55139
21
-3.63967
0
LINE
8
BLACK
6
CONTINUOUS
10
5.55139
20
-3.63967
11
5.54952
21
-3.64717
0
LINE
8
BLACK
6
CONTINUOUS
10
5.54952
20
-3.64717
11
5.54931
21
-3.64763
0
LINE
8
BLACK
6
CONTINUOUS
10
5.54931
20
-3.64763
11
5.5493
21
-3.64777
0
LINE
8
BLACK
6
CONTINUOUS
10
5.5493
20
-3.64777
11
5.54742
21
-3.65152
0
LINE
8
BLACK
6
CONTINUOUS
10
5.54742
20
-3.65152
11
5.5469
21
-3.65223
0
LINE
8
BLACK
6
CONTINUOUS
10
5.5469
20
-3.65223
11
5.54687
21
-3.65229
0
LINE
8
BLACK
6
CONTINUOUS
10
5.54687
20
-3.65229
11
5.54499
21
-3.65417
0
LINE
8
BLACK
6
CONTINUOUS
10
5.54499
20
-3.65417
11
5.54427
21
-3.65467
0
LINE
8
BLACK
6
CONTINUOUS
10
5.54427
20
-3.65467
11
5.54423
21
-3.65472
0
LINE
8
BLACK
6
CONTINUOUS
10
5.54423
20
-3.65472
11
5.54134
21
-3.65616
0
LINE
8
BLACK
6
CONTINUOUS
10
5.54134
20
-3.65616
11
5.54134
21
-3.68461
0
LINE
8
BLACK
6
CONTINUOUS
10
5.54134
20
-3.68461
11
5.54076
21
-3.686
0
LINE
8
BLACK
6
CONTINUOUS
10
5.54076
20
-3.686
11
5.53937
21
-3.68657
0
LINE
8
BLACK
6
CONTINUOUS
10
5.53937
20
-3.68657
11
5.46063
21
-3.68657
0
LINE
8
BLACK
6
CONTINUOUS
10
5.46063
20
-3.68657
11
5.45924
21
-3.686
0
LINE
8
BLACK
6
CONTINUOUS
10
5.48342
20
-3.67002
11
5.48296
21
-3.66891
0
LINE
8
BLACK
6
CONTINUOUS
10
5.48296
20
-3.66891
11
5.48342
21
-3.66779
0
LINE
8
BLACK
6
CONTINUOUS
10
5.48342
20
-3.66779
11
5.48453
21
-3.66733
0
LINE
8
BLACK
6
CONTINUOUS
10
5.48453
20
-3.66733
11
5.48858
21
-3.66733
0
LINE
8
BLACK
6
CONTINUOUS
10
5.48858
20
-3.66733
11
5.48858
21
-3.6494
0
LINE
8
BLACK
6
CONTINUOUS
10
5.48858
20
-3.6494
11
5.48777
21
-3.64777
0
LINE
8
BLACK
6
CONTINUOUS
10
5.48777
20
-3.64777
11
5.48763
21
-3.64729
0
LINE
8
BLACK
6
CONTINUOUS
10
5.48763
20
-3.64729
11
5.48755
21
-3.64717
0
LINE
8
BLACK
6
CONTINUOUS
10
5.48755
20
-3.64717
11
5.48567
21
-3.63967
0
LINE
8
BLACK
6
CONTINUOUS
10
5.48567
20
-3.63967
11
5.48563
21
-3.63908
0
LINE
8
BLACK
6
CONTINUOUS
10
5.48563
20
-3.63908
11
5.48558
21
-3.63895
0
LINE
8
BLACK
6
CONTINUOUS
10
5.48558
20
-3.63895
11
5.48558
21
-3.63736
0
LINE
8
BLACK
6
CONTINUOUS
10
5.48558
20
-3.63736
11
5.47462
21
-3.63736
0
LINE
8
BLACK
6
CONTINUOUS
10
5.47462
20
-3.63736
11
5.47462
21
-3.65395
0
LINE
8
BLACK
6
CONTINUOUS
10
5.47462
20
-3.65395
11
5.47444
21
-3.65496
0
LINE
8
BLACK
6
CONTINUOUS
10
5.47444
20
-3.65496
11
5.47314
21
-3.65651
0
LINE
8
BLACK
6
CONTINUOUS
10
5.47314
20
-3.65651
11
5.47115
21
-3.65686
0
LINE
8
BLACK
6
CONTINUOUS
10
5.47115
20
-3.65686
11
5.4694
21
-3.65585
0
LINE
8
BLACK
6
CONTINUOUS
10
5.4694
20
-3.65585
11
5.46871
21
-3.65395
0
LINE
8
BLACK
6
CONTINUOUS
10
5.46871
20
-3.65395
11
5.46871
21
-3.63736
0
LINE
8
BLACK
6
CONTINUOUS
10
5.46871
20
-3.63736
11
5.4626
21
-3.63736
0
LINE
8
BLACK
6
CONTINUOUS
10
5.4626
20
-3.63736
11
5.4626
21
-3.68264
0
LINE
8
BLACK
6
CONTINUOUS
10
5.4626
20
-3.68264
11
5.5374
21
-3.68264
0
LINE
8
BLACK
6
CONTINUOUS
10
5.5374
20
-3.68264
11
5.5374
21
-3.6569
0
LINE
8
BLACK
6
CONTINUOUS
10
5.5374
20
-3.6569
11
5.53541
21
-3.6569
0
LINE
8
BLACK
6
CONTINUOUS
10
5.53541
20
-3.6569
11
5.5344
21
-3.65673
0
LINE
8
BLACK
6
CONTINUOUS
10
5.5344
20
-3.65673
11
5.53426
21
-3.65661
0
LINE
8
BLACK
6
CONTINUOUS
10
5.53426
20
-3.65661
11
5.53409
21
-3.65659
0
LINE
8
BLACK
6
CONTINUOUS
10
5.53409
20
-3.65659
11
5.53034
21
-3.65472
0
LINE
8
BLACK
6
CONTINUOUS
10
5.53034
20
-3.65472
11
5.52963
21
-3.65419
0
LINE
8
BLACK
6
CONTINUOUS
10
5.52963
20
-3.65419
11
5.52957
21
-3.65417
0
LINE
8
BLACK
6
CONTINUOUS
10
5.52957
20
-3.65417
11
5.52769
21
-3.65229
0
LINE
8
BLACK
6
CONTINUOUS
10
5.52769
20
-3.65229
11
5.52719
21
-3.65157
0
LINE
8
BLACK
6
CONTINUOUS
10
5.52719
20
-3.65157
11
5.52714
21
-3.65152
0
LINE
8
BLACK
6
CONTINUOUS
10
5.52714
20
-3.65152
11
5.52527
21
-3.64777
0
LINE
8
BLACK
6
CONTINUOUS
10
5.52527
20
-3.64777
11
5.52512
21
-3.64729
0
LINE
8
BLACK
6
CONTINUOUS
10
5.52512
20
-3.64729
11
5.52504
21
-3.64717
0
LINE
8
BLACK
6
CONTINUOUS
10
5.52504
20
-3.64717
11
5.52317
21
-3.63967
0
LINE
8
BLACK
6
CONTINUOUS
10
5.52317
20
-3.63967
11
5.52313
21
-3.63908
0
LINE
8
BLACK
6
CONTINUOUS
10
5.52313
20
-3.63908
11
5.52308
21
-3.63895
0
LINE
8
BLACK
6
CONTINUOUS
10
5.52308
20
-3.63895
11
5.52308
21
-3.63736
0
LINE
8
BLACK
6
CONTINUOUS
10
5.52308
20
-3.63736
11
5.51399
21
-3.63736
0
LINE
8
BLACK
6
CONTINUOUS
10
5.51399
20
-3.63736
11
5.51399
21
-3.63895
0
LINE
8
BLACK
6
CONTINUOUS
10
5.51399
20
-3.63895
11
5.51389
21
-3.63953
0
LINE
8
BLACK
6
CONTINUOUS
10
5.51389
20
-3.63953
11
5.5139
21
-3.63967
0
LINE
8
BLACK
6
CONTINUOUS
10
5.5139
20
-3.63967
11
5.51202
21
-3.64717
0
LINE
8
BLACK
6
CONTINUOUS
10
5.51202
20
-3.64717
11
5.51182
21
-3.64763
0
LINE
8
BLACK
6
CONTINUOUS
10
5.51182
20
-3.64763
11
5.5118
21
-3.64777
0
LINE
8
BLACK
6
CONTINUOUS
10
5.5118
20
-3.64777
11
5.51148
21
-3.64842
0
LINE
8
BLACK
6
CONTINUOUS
10
5.51148
20
-3.64842
11
5.51222
21
-3.64866
0
LINE
8
BLACK
6
CONTINUOUS
10
5.51222
20
-3.64866
11
5.51249
21
-3.6489
0
LINE
8
BLACK
6
CONTINUOUS
10
5.51249
20
-3.6489
11
5.51283
21
-3.64904
0
LINE
8
BLACK
6
CONTINUOUS
10
5.51283
20
-3.64904
11
5.51471
21
-3.65092
0
LINE
8
BLACK
6
CONTINUOUS
10
5.51471
20
-3.65092
11
5.5148
21
-3.65116
0
LINE
8
BLACK
6
CONTINUOUS
10
5.5148
20
-3.65116
11
5.515
21
-3.65133
0
LINE
8
BLACK
6
CONTINUOUS
10
5.515
20
-3.65133
11
5.51594
21
-3.6532
0
LINE
8
BLACK
6
CONTINUOUS
10
5.51594
20
-3.6532
11
5.51595
21
-3.65338
0
LINE
8
BLACK
6
CONTINUOUS
10
5.51595
20
-3.65338
11
5.51606
21
-3.65353
0
LINE
8
BLACK
6
CONTINUOUS
10
5.51606
20
-3.65353
11
5.51699
21
-3.65727
0
LINE
8
BLACK
6
CONTINUOUS
10
5.51699
20
-3.65727
11
5.51697
21
-3.65747
0
LINE
8
BLACK
6
CONTINUOUS
10
5.51697
20
-3.65747
11
5.51704
21
-3.65766
0
LINE
8
BLACK
6
CONTINUOUS
10
5.51704
20
-3.65766
11
5.51704
21
-3.66047
0
LINE
8
BLACK
6
CONTINUOUS
10
5.51704
20
-3.66047
11
5.51697
21
-3.66065
0
LINE
8
BLACK
6
CONTINUOUS
10
5.51697
20
-3.66065
11
5.51699
21
-3.66085
0
LINE
8
BLACK
6
CONTINUOUS
10
5.51699
20
-3.66085
11
5.51606
21
-3.6646
0
LINE
8
BLACK
6
CONTINUOUS
10
5.51606
20
-3.6646
11
5.51595
21
-3.66474
0
LINE
8
BLACK
6
CONTINUOUS
10
5.51595
20
-3.66474
11
5.51594
21
-3.66492
0
LINE
8
BLACK
6
CONTINUOUS
10
5.51594
20
-3.66492
11
5.515
21
-3.6668
0
LINE
8
BLACK
6
CONTINUOUS
10
5.515
20
-3.6668
11
5.5148
21
-3.66697
0
LINE
8
BLACK
6
CONTINUOUS
10
5.5148
20
-3.66697
11
5.51471
21
-3.66721
0
LINE
8
BLACK
6
CONTINUOUS
10
5.51471
20
-3.66721
11
5.51283
21
-3.66908
0
LINE
8
BLACK
6
CONTINUOUS
10
5.51283
20
-3.66908
11
5.51249
21
-3.66922
0
LINE
8
BLACK
6
CONTINUOUS
10
5.51249
20
-3.66922
11
5.51222
21
-3.66946
0
LINE
8
BLACK
6
CONTINUOUS
10
5.51222
20
-3.66946
11
5.5094
21
-3.6704
0
LINE
8
BLACK
6
CONTINUOUS
10
5.5094
20
-3.6704
11
5.50914
21
-3.67038
0
LINE
8
BLACK
6
CONTINUOUS
10
5.50914
20
-3.67038
11
5.50891
21
-3.67048
0
LINE
8
BLACK
6
CONTINUOUS
10
5.50891
20
-3.67048
11
5.50703
21
-3.67048
0
LINE
8
BLACK
6
CONTINUOUS
10
5.50703
20
-3.67048
11
5.50679
21
-3.67038
0
LINE
8
BLACK
6
CONTINUOUS
10
5.50679
20
-3.67038
11
5.50653
21
-3.6704
0
LINE
8
BLACK
6
CONTINUOUS
10
5.50653
20
-3.6704
11
5.50372
21
-3.66946
0
LINE
8
BLACK
6
CONTINUOUS
10
5.50372
20
-3.66946
11
5.50344
21
-3.66922
0
LINE
8
BLACK
6
CONTINUOUS
10
5.50344
20
-3.66922
11
5.5031
21
-3.66908
0
LINE
8
BLACK
6
CONTINUOUS
10
5.5031
20
-3.66908
11
5.50217
21
-3.66814
0
LINE
8
BLACK
6
CONTINUOUS
10
5.50217
20
-3.66814
11
5.50171
21
-3.66703
0
LINE
8
BLACK
6
CONTINUOUS
10
5.50171
20
-3.66703
11
5.50217
21
-3.66592
0
LINE
8
BLACK
6
CONTINUOUS
10
5.50217
20
-3.66592
11
5.50328
21
-3.66546
0
LINE
8
BLACK
6
CONTINUOUS
10
5.50328
20
-3.66546
11
5.50439
21
-3.66592
0
LINE
8
BLACK
6
CONTINUOUS
10
5.50439
20
-3.66592
11
5.50507
21
-3.66659
0
LINE
8
BLACK
6
CONTINUOUS
10
5.50507
20
-3.66659
11
5.50729
21
-3.66733
0
LINE
8
BLACK
6
CONTINUOUS
10
5.50729
20
-3.66733
11
5.50865
21
-3.66733
0
LINE
8
BLACK
6
CONTINUOUS
10
5.50865
20
-3.66733
11
5.51087
21
-3.66659
0
LINE
8
BLACK
6
CONTINUOUS
10
5.51087
20
-3.66659
11
5.5123
21
-3.66516
0
LINE
8
BLACK
6
CONTINUOUS
10
5.5123
20
-3.66516
11
5.51304
21
-3.66367
0
LINE
8
BLACK
6
CONTINUOUS
10
5.51304
20
-3.66367
11
5.51389
21
-3.66027
0
LINE
8
BLACK
6
CONTINUOUS
10
5.51389
20
-3.66027
11
5.51389
21
-3.65785
0
LINE
8
BLACK
6
CONTINUOUS
10
5.51389
20
-3.65785
11
5.51304
21
-3.65446
0
LINE
8
BLACK
6
CONTINUOUS
10
5.51304
20
-3.65446
11
5.5123
21
-3.65297
0
LINE
8
BLACK
6
CONTINUOUS
10
5.5123
20
-3.65297
11
5.51087
21
-3.65153
0
LINE
8
BLACK
6
CONTINUOUS
10
5.51087
20
-3.65153
11
5.51006
21
-3.65126
0
LINE
8
BLACK
6
CONTINUOUS
10
5.51006
20
-3.65126
11
5.50993
21
-3.65152
0
LINE
8
BLACK
6
CONTINUOUS
10
5.50993
20
-3.65152
11
5.5094
21
-3.65223
0
LINE
8
BLACK
6
CONTINUOUS
10
5.5094
20
-3.65223
11
5.50937
21
-3.65229
0
LINE
8
BLACK
6
CONTINUOUS
10
5.50937
20
-3.65229
11
5.5075
21
-3.65417
0
LINE
8
BLACK
6
CONTINUOUS
10
5.5075
20
-3.65417
11
5.50678
21
-3.65467
0
LINE
8
BLACK
6
CONTINUOUS
10
5.50678
20
-3.65467
11
5.50673
21
-3.65472
0
LINE
8
BLACK
6
CONTINUOUS
10
5.50673
20
-3.65472
11
5.50298
21
-3.65659
0
LINE
8
BLACK
6
CONTINUOUS
10
5.50298
20
-3.65659
11
5.502
21
-3.65689
0
LINE
8
BLACK
6
CONTINUOUS
10
5.502
20
-3.65689
11
5.50183
21
-3.65684
0
LINE
8
BLACK
6
CONTINUOUS
10
5.50183
20
-3.65684
11
5.50166
21
-3.6569
0
LINE
8
BLACK
6
CONTINUOUS
10
5.50166
20
-3.6569
11
5.49791
21
-3.6569
0
LINE
8
BLACK
6
CONTINUOUS
10
5.49791
20
-3.6569
11
5.4969
21
-3.65673
0
LINE
8
BLACK
6
CONTINUOUS
10
5.4969
20
-3.65673
11
5.49677
21
-3.65661
0
LINE
8
BLACK
6
CONTINUOUS
10
5.49677
20
-3.65661
11
5.49659
21
-3.65659
0
LINE
8
BLACK
6
CONTINUOUS
10
5.49659
20
-3.65659
11
5.49605
21
-3.65632
0
LINE
8
BLACK
6
CONTINUOUS
10
5.49605
20
-3.65632
11
5.49508
21
-3.65625
0
LINE
8
BLACK
6
CONTINUOUS
10
5.49508
20
-3.65625
11
5.4932
21
-3.65532
0
LINE
8
BLACK
6
CONTINUOUS
10
5.4932
20
-3.65532
11
5.49303
21
-3.65512
0
LINE
8
BLACK
6
CONTINUOUS
10
5.49303
20
-3.65512
11
5.49279
21
-3.65502
0
LINE
8
BLACK
6
CONTINUOUS
10
5.49279
20
-3.65502
11
5.49173
21
-3.65396
0
LINE
8
BLACK
6
CONTINUOUS
10
5.49173
20
-3.65396
11
5.49173
21
-3.66733
0
LINE
8
BLACK
6
CONTINUOUS
10
5.49173
20
-3.66733
11
5.49578
21
-3.66733
0
LINE
8
BLACK
6
CONTINUOUS
10
5.49578
20
-3.66733
11
5.4969
21
-3.66779
0
LINE
8
BLACK
6
CONTINUOUS
10
5.4969
20
-3.66779
11
5.49736
21
-3.66891
0
LINE
8
BLACK
6
CONTINUOUS
10
5.49736
20
-3.66891
11
5.4969
21
-3.67002
0
LINE
8
BLACK
6
CONTINUOUS
10
5.4969
20
-3.67002
11
5.49578
21
-3.67048
0
LINE
8
BLACK
6
CONTINUOUS
10
5.49578
20
-3.67048
11
5.48453
21
-3.67048
0
LINE
8
BLACK
6
CONTINUOUS
10
5.48453
20
-3.67048
11
5.48342
21
-3.67002
0
LINE
8
BLACK
6
CONTINUOUS
10
5.52899
20
-3.63736
11
5.52899
21
-3.63859
0
LINE
8
BLACK
6
CONTINUOUS
10
5.52899
20
-3.63859
11
5.53069
21
-3.64542
0
LINE
8
BLACK
6
CONTINUOUS
10
5.53069
20
-3.64542
11
5.53221
21
-3.64845
0
LINE
8
BLACK
6
CONTINUOUS
10
5.53221
20
-3.64845
11
5.53341
21
-3.64965
0
LINE
8
BLACK
6
CONTINUOUS
10
5.53341
20
-3.64965
11
5.5361
21
-3.651
0
LINE
8
BLACK
6
CONTINUOUS
10
5.5361
20
-3.651
11
5.5374
21
-3.651
0
LINE
8
BLACK
6
CONTINUOUS
10
5.5374
20
-3.651
11
5.5374
21
-3.63736
0
LINE
8
BLACK
6
CONTINUOUS
10
5.5374
20
-3.63736
11
5.52899
21
-3.63736
0
LINE
8
BLACK
6
CONTINUOUS
10
5.49149
20
-3.63736
11
5.49149
21
-3.63859
0
LINE
8
BLACK
6
CONTINUOUS
10
5.49149
20
-3.63859
11
5.4932
21
-3.64542
0
LINE
8
BLACK
6
CONTINUOUS
10
5.4932
20
-3.64542
11
5.49471
21
-3.64845
0
LINE
8
BLACK
6
CONTINUOUS
10
5.49471
20
-3.64845
11
5.49591
21
-3.64965
0
LINE
8
BLACK
6
CONTINUOUS
10
5.49591
20
-3.64965
11
5.49861
21
-3.651
0
LINE
8
BLACK
6
CONTINUOUS
10
5.49861
20
-3.651
11
5.50096
21
-3.651
0
LINE
8
BLACK
6
CONTINUOUS
10
5.50096
20
-3.651
11
5.50195
21
-3.65051
0
LINE
8
BLACK
6
CONTINUOUS
10
5.50195
20
-3.65051
11
5.50217
21
-3.64998
0
LINE
8
BLACK
6
CONTINUOUS
10
5.50217
20
-3.64998
11
5.5031
21
-3.64904
0
LINE
8
BLACK
6
CONTINUOUS
10
5.5031
20
-3.64904
11
5.50344
21
-3.6489
0
LINE
8
BLACK
6
CONTINUOUS
10
5.50344
20
-3.6489
11
5.50372
21
-3.64866
0
LINE
8
BLACK
6
CONTINUOUS
10
5.50372
20
-3.64866
11
5.50496
21
-3.64825
0
LINE
8
BLACK
6
CONTINUOUS
10
5.50496
20
-3.64825
11
5.50637
21
-3.64542
0
LINE
8
BLACK
6
CONTINUOUS
10
5.50637
20
-3.64542
11
5.50808
21
-3.63859
0
LINE
8
BLACK
6
CONTINUOUS
10
5.50808
20
-3.63859
11
5.50808
21
-3.63736
0
LINE
8
BLACK
6
CONTINUOUS
10
5.50808
20
-3.63736
11
5.49149
21
-3.63736
0
LINE
8
BLACK
6
CONTINUOUS
10
5.54134
20
-3.63539
11
5.54134
21
-3.64947
0
LINE
8
BLACK
6
CONTINUOUS
10
5.54134
20
-3.64947
11
5.54235
21
-3.64845
0
LINE
8
BLACK
6
CONTINUOUS
10
5.54235
20
-3.64845
11
5.54387
21
-3.64542
0
LINE
8
BLACK
6
CONTINUOUS
10
5.54387
20
-3.64542
11
5.54558
21
-3.63859
0
LINE
8
BLACK
6
CONTINUOUS
10
5.54558
20
-3.63859
11
5.54558
21
-3.62994
0
LINE
8
BLACK
6
CONTINUOUS
10
5.54558
20
-3.62994
11
5.54387
21
-3.62311
0
LINE
8
BLACK
6
CONTINUOUS
10
5.54387
20
-3.62311
11
5.54235
21
-3.62008
0
LINE
8
BLACK
6
CONTINUOUS
10
5.54235
20
-3.62008
11
5.54116
21
-3.61888
0
LINE
8
BLACK
6
CONTINUOUS
10
5.54116
20
-3.61888
11
5.53846
21
-3.61753
0
LINE
8
BLACK
6
CONTINUOUS
10
5.53846
20
-3.61753
11
5.5361
21
-3.61753
0
LINE
8
BLACK
6
CONTINUOUS
10
5.5361
20
-3.61753
11
5.53341
21
-3.61888
0
LINE
8
BLACK
6
CONTINUOUS
10
5.53341
20
-3.61888
11
5.53221
21
-3.62008
0
LINE
8
BLACK
6
CONTINUOUS
10
5.53221
20
-3.62008
11
5.53069
21
-3.62311
0
LINE
8
BLACK
6
CONTINUOUS
10
5.53069
20
-3.62311
11
5.52899
21
-3.62994
0
LINE
8
BLACK
6
CONTINUOUS
10
5.52899
20
-3.62994
11
5.52899
21
-3.63343
0
LINE
8
BLACK
6
CONTINUOUS
10
5.52899
20
-3.63343
11
5.53937
21
-3.63343
0
LINE
8
BLACK
6
CONTINUOUS
10
5.53937
20
-3.63343
11
5.54076
21
-3.634
0
LINE
8
BLACK
6
CONTINUOUS
10
5.54076
20
-3.634
11
5.54134
21
-3.63539
0
LINE
8
BLACK
6
CONTINUOUS
10
5.49861
20
-3.61753
11
5.49591
21
-3.61888
0
LINE
8
BLACK
6
CONTINUOUS
10
5.49591
20
-3.61888
11
5.49471
21
-3.62008
0
LINE
8
BLACK
6
CONTINUOUS
10
5.49471
20
-3.62008
11
5.4932
21
-3.62311
0
LINE
8
BLACK
6
CONTINUOUS
10
5.4932
20
-3.62311
11
5.49149
21
-3.62994
0
LINE
8
BLACK
6
CONTINUOUS
10
5.49149
20
-3.62994
11
5.49149
21
-3.63343
0
LINE
8
BLACK
6
CONTINUOUS
10
5.49149
20
-3.63343
11
5.50808
21
-3.63343
0
LINE
8
BLACK
6
CONTINUOUS
10
5.50808
20
-3.63343
11
5.50808
21
-3.62994
0
LINE
8
BLACK
6
CONTINUOUS
10
5.50808
20
-3.62994
11
5.50637
21
-3.62311
0
LINE
8
BLACK
6
CONTINUOUS
10
5.50637
20
-3.62311
11
5.50486
21
-3.62008
0
LINE
8
BLACK
6
CONTINUOUS
10
5.50486
20
-3.62008
11
5.50366
21
-3.61888
0
LINE
8
BLACK
6
CONTINUOUS
10
5.50366
20
-3.61888
11
5.50096
21
-3.61753
0
LINE
8
BLACK
6
CONTINUOUS
10
5.50096
20
-3.61753
11
5.49861
21
-3.61753
0
LINE
8
BLACK
6
CONTINUOUS
10
5.57544
20
-3.61176
11
5.57561
21
-3.61175
0
LINE
8
BLACK
6
CONTINUOUS
10
5.57561
20
-3.61175
11
5.5763
21
-3.61226
0
LINE
8
BLACK
6
CONTINUOUS
10
5.5763
20
-3.61226
11
5.57704
21
-3.61268
0
LINE
8
BLACK
6
CONTINUOUS
10
5.57704
20
-3.61268
11
5.5771
21
-3.61284
0
LINE
8
BLACK
6
CONTINUOUS
10
5.5771
20
-3.61284
11
5.57723
21
-3.61294
0
LINE
8
BLACK
6
CONTINUOUS
10
5.57723
20
-3.61294
11
5.58082
21
-3.61833
0
LINE
8
BLACK
6
CONTINUOUS
10
5.58082
20
-3.61833
11
5.58403
21
-3.62153
0
LINE
8
BLACK
6
CONTINUOUS
10
5.58403
20
-3.62153
11
5.58735
21
-3.62319
0
LINE
8
BLACK
6
CONTINUOUS
10
5.58735
20
-3.62319
11
5.58817
21
-3.6238
0
LINE
8
BLACK
6
CONTINUOUS
10
5.58817
20
-3.6238
11
5.58897
21
-3.62565
0
LINE
8
BLACK
6
CONTINUOUS
10
5.58897
20
-3.62565
11
5.5884
21
-3.62759
0
LINE
8
BLACK
6
CONTINUOUS
10
5.5884
20
-3.62759
11
5.58671
21
-3.6287
0
LINE
8
BLACK
6
CONTINUOUS
10
5.58671
20
-3.6287
11
5.5847
21
-3.62847
0
LINE
8
BLACK
6
CONTINUOUS
10
5.5847
20
-3.62847
11
5.58096
21
-3.6266
0
LINE
8
BLACK
6
CONTINUOUS
10
5.58096
20
-3.6266
11
5.58025
21
-3.62607
0
LINE
8
BLACK
6
CONTINUOUS
10
5.58025
20
-3.62607
11
5.58019
21
-3.62604
0
LINE
8
BLACK
6
CONTINUOUS
10
5.58019
20
-3.62604
11
5.57773
21
-3.62359
0
LINE
8
BLACK
6
CONTINUOUS
10
5.57773
20
-3.62359
11
5.57773
21
-3.651
0
LINE
8
BLACK
6
CONTINUOUS
10
5.57773
20
-3.651
11
5.58603
21
-3.651
0
LINE
8
BLACK
6
CONTINUOUS
10
5.58603
20
-3.651
11
5.58704
21
-3.65118
0
LINE
8
BLACK
6
CONTINUOUS
10
5.58704
20
-3.65118
11
5.58858
21
-3.65248
0
LINE
8
BLACK
6
CONTINUOUS
10
5.58858
20
-3.65248
11
5.58893
21
-3.65446
0
LINE
8
BLACK
6
CONTINUOUS
10
5.58893
20
-3.65446
11
5.58792
21
-3.65621
0
LINE
8
BLACK
6
CONTINUOUS
10
5.58792
20
-3.65621
11
5.58603
21
-3.6569
0
LINE
8
BLACK
6
CONTINUOUS
10
5.58603
20
-3.6569
11
5.56353
21
-3.6569
0
LINE
8
BLACK
6
CONTINUOUS
10
5.56353
20
-3.6569
11
5.56252
21
-3.65673
0
LINE
8
BLACK
6
CONTINUOUS
10
5.56252
20
-3.65673
11
5.56097
21
-3.65543
0
LINE
8
BLACK
6
CONTINUOUS
10
5.56097
20
-3.65543
11
5.56062
21
-3.65344
0
LINE
8
BLACK
6
CONTINUOUS
10
5.56062
20
-3.65344
11
5.56163
21
-3.65169
0
LINE
8
BLACK
6
CONTINUOUS
10
5.56163
20
-3.65169
11
5.56353
21
-3.651
0
LINE
8
BLACK
6
CONTINUOUS
10
5.56353
20
-3.651
11
5.57182
21
-3.651
0
LINE
8
BLACK
6
CONTINUOUS
10
5.57182
20
-3.651
11
5.57182
21
-3.61458
0
LINE
8
BLACK
6
CONTINUOUS
10
5.57182
20
-3.61458
11
5.572
21
-3.61357
0
LINE
8
BLACK
6
CONTINUOUS
10
5.572
20
-3.61357
11
5.57211
21
-3.61344
0
LINE
8
BLACK
6
CONTINUOUS
10
5.57211
20
-3.61344
11
5.57213
21
-3.61327
0
LINE
8
BLACK
6
CONTINUOUS
10
5.57213
20
-3.61327
11
5.57275
21
-3.61268
0
LINE
8
BLACK
6
CONTINUOUS
10
5.57275
20
-3.61268
11
5.5733
21
-3.61202
0
LINE
8
BLACK
6
CONTINUOUS
10
5.5733
20
-3.61202
11
5.57347
21
-3.612
0
LINE
8
BLACK
6
CONTINUOUS
10
5.57347
20
-3.612
11
5.57359
21
-3.61188
0
LINE
8
BLACK
6
CONTINUOUS
10
5.57359
20
-3.61188
11
5.57445
21
-3.61182
0
LINE
8
BLACK
6
CONTINUOUS
10
5.57445
20
-3.61182
11
5.57529
21
-3.61167
0
LINE
8
BLACK
6
CONTINUOUS
10
5.57529
20
-3.61167
11
5.57544
21
-3.61176
0
LINE
8
BLACK
6
CONTINUOUS
10
5.43643
20
-3.6117
11
5.43656
21
-3.61167
0
LINE
8
BLACK
6
CONTINUOUS
10
5.43656
20
-3.61167
11
5.43667
21
-3.61174
0
LINE
8
BLACK
6
CONTINUOUS
10
5.43667
20
-3.61174
11
5.43705
21
-3.61181
0
LINE
8
BLACK
6
CONTINUOUS
10
5.43705
20
-3.61181
11
5.43764
21
-3.6123
0
LINE
8
BLACK
6
CONTINUOUS
10
5.43764
20
-3.6123
11
5.43831
21
-3.61268
0
LINE
8
BLACK
6
CONTINUOUS
10
5.43831
20
-3.61268
11
5.4384
21
-3.61293
0
LINE
8
BLACK
6
CONTINUOUS
10
5.4384
20
-3.61293
11
5.4386
21
-3.61311
0
LINE
8
BLACK
6
CONTINUOUS
10
5.4386
20
-3.61311
11
5.43873
21
-3.61386
0
LINE
8
BLACK
6
CONTINUOUS
10
5.43873
20
-3.61386
11
5.439
21
-3.61458
0
LINE
8
BLACK
6
CONTINUOUS
10
5.439
20
-3.61458
11
5.439
21
-3.65395
0
LINE
8
BLACK
6
CONTINUOUS
10
5.439
20
-3.65395
11
5.43882
21
-3.65496
0
LINE
8
BLACK
6
CONTINUOUS
10
5.43882
20
-3.65496
11
5.43752
21
-3.65651
0
LINE
8
BLACK
6
CONTINUOUS
10
5.43752
20
-3.65651
11
5.43553
21
-3.65686
0
LINE
8
BLACK
6
CONTINUOUS
10
5.43553
20
-3.65686
11
5.43378
21
-3.65585
0
LINE
8
BLACK
6
CONTINUOUS
10
5.43378
20
-3.65585
11
5.43309
21
-3.65395
0
LINE
8
BLACK
6
CONTINUOUS
10
5.43309
20
-3.65395
11
5.43309
21
-3.63628
0
LINE
8
BLACK
6
CONTINUOUS
10
5.43309
20
-3.63628
11
5.42292
21
-3.63628
0
LINE
8
BLACK
6
CONTINUOUS
10
5.42292
20
-3.63628
11
5.42191
21
-3.6361
0
LINE
8
BLACK
6
CONTINUOUS
10
5.42191
20
-3.6361
11
5.42036
21
-3.63481
0
LINE
8
BLACK
6
CONTINUOUS
10
5.42036
20
-3.63481
11
5.42001
21
-3.63282
0
LINE
8
BLACK
6
CONTINUOUS
10
5.42001
20
-3.63282
11
5.42102
21
-3.63107
0
LINE
8
BLACK
6
CONTINUOUS
10
5.42102
20
-3.63107
11
5.42292
21
-3.63038
0
LINE
8
BLACK
6
CONTINUOUS
10
5.42292
20
-3.63038
11
5.43309
21
-3.63038
0
LINE
8
BLACK
6
CONTINUOUS
10
5.43309
20
-3.63038
11
5.43309
21
-3.61753
0
LINE
8
BLACK
6
CONTINUOUS
10
5.43309
20
-3.61753
11
5.4173
21
-3.61753
0
LINE
8
BLACK
6
CONTINUOUS
10
5.4173
20
-3.61753
11
5.41629
21
-3.61736
0
LINE
8
BLACK
6
CONTINUOUS
10
5.41629
20
-3.61736
11
5.41474
21
-3.61606
0
LINE
8
BLACK
6
CONTINUOUS
10
5.41474
20
-3.61606
11
5.41439
21
-3.61407
0
LINE
8
BLACK
6
CONTINUOUS
10
5.41439
20
-3.61407
11
5.4154
21
-3.61232
0
LINE
8
BLACK
6
CONTINUOUS
10
5.4154
20
-3.61232
11
5.4173
21
-3.61163
0
LINE
8
BLACK
6
CONTINUOUS
10
5.4173
20
-3.61163
11
5.43604
21
-3.61163
0
LINE
8
BLACK
6
CONTINUOUS
10
5.43604
20
-3.61163
11
5.43643
21
-3.6117
0
LINE
8
BLACK
6
CONTINUOUS
10
5.46184
20
-3.596
11
5.46126
21
-3.59461
0
LINE
8
BLACK
6
CONTINUOUS
10
5.46126
20
-3.59461
11
5.46126
21
-3.54539
0
LINE
8
BLACK
6
CONTINUOUS
10
5.46126
20
-3.54539
11
5.46184
21
-3.544
0
LINE
8
BLACK
6
CONTINUOUS
10
5.46184
20
-3.544
11
5.46323
21
-3.54343
0
LINE
8
BLACK
6
CONTINUOUS
10
5.46323
20
-3.54343
11
5.54197
21
-3.54343
0
LINE
8
BLACK
6
CONTINUOUS
10
5.54197
20
-3.54343
11
5.54336
21
-3.544
0
LINE
8
BLACK
6
CONTINUOUS
10
5.54336
20
-3.544
11
5.54394
21
-3.54539
0
LINE
8
BLACK
6
CONTINUOUS
10
5.54394
20
-3.54539
11
5.54394
21
-3.59461
0
LINE
8
BLACK
6
CONTINUOUS
10
5.54394
20
-3.59461
11
5.54336
21
-3.596
0
LINE
8
BLACK
6
CONTINUOUS
10
5.54336
20
-3.596
11
5.54197
21
-3.59657
0
LINE
8
BLACK
6
CONTINUOUS
10
5.54197
20
-3.59657
11
5.46323
21
-3.59657
0
LINE
8
BLACK
6
CONTINUOUS
10
5.46323
20
-3.59657
11
5.46184
21
-3.596
0
LINE
8
BLACK
6
CONTINUOUS
10
5.4652
20
-3.54736
11
5.4652
21
-3.59264
0
LINE
8
BLACK
6
CONTINUOUS
10
5.4652
20
-3.59264
11
5.54
21
-3.59264
0
LINE
8
BLACK
6
CONTINUOUS
10
5.54
20
-3.59264
11
5.54
21
-3.54736
0
LINE
8
BLACK
6
CONTINUOUS
10
5.54
20
-3.54736
11
5.4652
21
-3.54736
0
LINE
8
BLACK
6
CONTINUOUS
10
5.48602
20
-3.58002
11
5.48556
21
-3.57891
0
LINE
8
BLACK
6
CONTINUOUS
10
5.48556
20
-3.57891
11
5.48602
21
-3.57779
0
LINE
8
BLACK
6
CONTINUOUS
10
5.48602
20
-3.57779
11
5.48713
21
-3.57733
0
LINE
8
BLACK
6
CONTINUOUS
10
5.48713
20
-3.57733
11
5.49552
21
-3.57733
0
LINE
8
BLACK
6
CONTINUOUS
10
5.49552
20
-3.57733
11
5.48696
21
-3.56877
0
LINE
8
BLACK
6
CONTINUOUS
10
5.48696
20
-3.56877
11
5.48682
21
-3.56843
0
LINE
8
BLACK
6
CONTINUOUS
10
5.48682
20
-3.56843
11
5.48658
21
-3.56815
0
LINE
8
BLACK
6
CONTINUOUS
10
5.48658
20
-3.56815
11
5.48564
21
-3.56534
0
LINE
8
BLACK
6
CONTINUOUS
10
5.48564
20
-3.56534
11
5.48566
21
-3.56508
0
LINE
8
BLACK
6
CONTINUOUS
10
5.48566
20
-3.56508
11
5.48556
21
-3.56484
0
LINE
8
BLACK
6
CONTINUOUS
10
5.48556
20
-3.56484
11
5.48556
21
-3.56297
0
LINE
8
BLACK
6
CONTINUOUS
10
5.48556
20
-3.56297
11
5.4857
21
-3.56263
0
LINE
8
BLACK
6
CONTINUOUS
10
5.4857
20
-3.56263
11
5.48572
21
-3.56227
0
LINE
8
BLACK
6
CONTINUOUS
10
5.48572
20
-3.56227
11
5.48666
21
-3.56039
0
LINE
8
BLACK
6
CONTINUOUS
10
5.48666
20
-3.56039
11
5.48686
21
-3.56022
0
LINE
8
BLACK
6
CONTINUOUS
10
5.48686
20
-3.56022
11
5.48696
21
-3.55998
0
LINE
8
BLACK
6
CONTINUOUS
10
5.48696
20
-3.55998
11
5.48789
21
-3.55904
0
LINE
8
BLACK
6
CONTINUOUS
10
5.48789
20
-3.55904
11
5.48813
21
-3.55894
0
LINE
8
BLACK
6
CONTINUOUS
10
5.48813
20
-3.55894
11
5.4883
21
-3.55875
0
LINE
8
BLACK
6
CONTINUOUS
10
5.4883
20
-3.55875
11
5.49018
21
-3.55781
0
LINE
8
BLACK
6
CONTINUOUS
10
5.49018
20
-3.55781
11
5.49054
21
-3.55779
0
LINE
8
BLACK
6
CONTINUOUS
10
5.49054
20
-3.55779
11
5.49088
21
-3.55765
0
LINE
8
BLACK
6
CONTINUOUS
10
5.49088
20
-3.55765
11
5.49557
21
-3.55765
0
LINE
8
BLACK
6
CONTINUOUS
10
5.49557
20
-3.55765
11
5.49591
21
-3.55779
0
LINE
8
BLACK
6
CONTINUOUS
10
5.49591
20
-3.55779
11
5.49627
21
-3.55781
0
LINE
8
BLACK
6
CONTINUOUS
10
5.49627
20
-3.55781
11
5.49815
21
-3.55875
0
LINE
8
BLACK
6
CONTINUOUS
10
5.49815
20
-3.55875
11
5.49832
21
-3.55894
0
LINE
8
BLACK
6
CONTINUOUS
10
5.49832
20
-3.55894
11
5.49856
21
-3.55904
0
LINE
8
BLACK
6
CONTINUOUS
10
5.49856
20
-3.55904
11
5.49949
21
-3.55998
0
LINE
8
BLACK
6
CONTINUOUS
10
5.49949
20
-3.55998
11
5.49995
21
-3.56109
0
LINE
8
BLACK
6
CONTINUOUS
10
5.49995
20
-3.56109
11
5.49949
21
-3.56221
0
LINE
8
BLACK
6
CONTINUOUS
10
5.49949
20
-3.56221
11
5.49838
21
-3.56267
0
LINE
8
BLACK
6
CONTINUOUS
10
5.49838
20
-3.56267
11
5.49727
21
-3.56221
0
LINE
8
BLACK
6
CONTINUOUS
10
5.49727
20
-3.56221
11
5.49651
21
-3.56145
0
LINE
8
BLACK
6
CONTINUOUS
10
5.49651
20
-3.56145
11
5.4952
21
-3.56079
0
LINE
8
BLACK
6
CONTINUOUS
10
5.4952
20
-3.56079
11
5.49125
21
-3.56079
0
LINE
8
BLACK
6
CONTINUOUS
10
5.49125
20
-3.56079
11
5.48994
21
-3.56145
0
LINE
8
BLACK
6
CONTINUOUS
10
5.48994
20
-3.56145
11
5.48936
21
-3.56203
0
LINE
8
BLACK
6
CONTINUOUS
10
5.48936
20
-3.56203
11
5.48871
21
-3.56334
0
LINE
8
BLACK
6
CONTINUOUS
10
5.48871
20
-3.56334
11
5.48871
21
-3.56459
0
LINE
8
BLACK
6
CONTINUOUS
10
5.48871
20
-3.56459
11
5.48945
21
-3.56681
0
LINE
8
BLACK
6
CONTINUOUS
10
5.48945
20
-3.56681
11
5.50043
21
-3.57779
0
LINE
8
BLACK
6
CONTINUOUS
10
5.50043
20
-3.57779
11
5.50089
21
-3.57891
0
LINE
8
BLACK
6
CONTINUOUS
10
5.50089
20
-3.57891
11
5.50043
21
-3.58002
0
LINE
8
BLACK
6
CONTINUOUS
10
5.50043
20
-3.58002
11
5.49932
21
-3.58048
0
LINE
8
BLACK
6
CONTINUOUS
10
5.49932
20
-3.58048
11
5.48713
21
-3.58048
0
LINE
8
BLACK
6
CONTINUOUS
10
5.48713
20
-3.58048
11
5.48602
21
-3.58002
0
LINE
8
BLACK
6
CONTINUOUS
10
5.51174
20
-3.55774
11
5.512
21
-3.55773
0
LINE
8
BLACK
6
CONTINUOUS
10
5.512
20
-3.55773
11
5.51481
21
-3.55866
0
LINE
8
BLACK
6
CONTINUOUS
10
5.51481
20
-3.55866
11
5.51509
21
-3.5589
0
LINE
8
BLACK
6
CONTINUOUS
10
5.51509
20
-3.5589
11
5.51543
21
-3.55904
0
LINE
8
BLACK
6
CONTINUOUS
10
5.51543
20
-3.55904
11
5.5173
21
-3.56092
0
LINE
8
BLACK
6
CONTINUOUS
10
5.5173
20
-3.56092
11
5.5174
21
-3.56116
0
LINE
8
BLACK
6
CONTINUOUS
10
5.5174
20
-3.56116
11
5.5176
21
-3.56133
0
LINE
8
BLACK
6
CONTINUOUS
10
5.5176
20
-3.56133
11
5.51854
21
-3.5632
0
LINE
8
BLACK
6
CONTINUOUS
10
5.51854
20
-3.5632
11
5.51855
21
-3.56338
0
LINE
8
BLACK
6
CONTINUOUS
10
5.51855
20
-3.56338
11
5.51866
21
-3.56353
0
LINE
8
BLACK
6
CONTINUOUS
10
5.51866
20
-3.56353
11
5.51959
21
-3.56727
0
LINE
8
BLACK
6
CONTINUOUS
10
5.51959
20
-3.56727
11
5.51956
21
-3.56747
0
LINE
8
BLACK
6
CONTINUOUS
10
5.51956
20
-3.56747
11
5.51964
21
-3.56766
0
LINE
8
BLACK
6
CONTINUOUS
10
5.51964
20
-3.56766
11
5.51964
21
-3.57047
0
LINE
8
BLACK
6
CONTINUOUS
10
5.51964
20
-3.57047
11
5.51956
21
-3.57065
0
LINE
8
BLACK
6
CONTINUOUS
10
5.51956
20
-3.57065
11
5.51959
21
-3.57085
0
LINE
8
BLACK
6
CONTINUOUS
10
5.51959
20
-3.57085
11
5.51866
21
-3.5746
0
LINE
8
BLACK
6
CONTINUOUS
10
5.51866
20
-3.5746
11
5.51855
21
-3.57474
0
LINE
8
BLACK
6
CONTINUOUS
10
5.51855
20
-3.57474
11
5.51854
21
-3.57492
0
LINE
8
BLACK
6
CONTINUOUS
10
5.51854
20
-3.57492
11
5.5176
21
-3.5768
0
LINE
8
BLACK
6
CONTINUOUS
10
5.5176
20
-3.5768
11
5.5174
21
-3.57697
0
LINE
8
BLACK
6
CONTINUOUS
10
5.5174
20
-3.57697
11
5.5173
21
-3.57721
0
LINE
8
BLACK
6
CONTINUOUS
10
5.5173
20
-3.57721
11
5.51543
21
-3.57908
0
LINE
8
BLACK
6
CONTINUOUS
10
5.51543
20
-3.57908
11
5.51509
21
-3.57922
0
LINE
8
BLACK
6
CONTINUOUS
10
5.51509
20
-3.57922
11
5.51481
21
-3.57946
0
LINE
8
BLACK
6
CONTINUOUS
10
5.51481
20
-3.57946
11
5.512
21
-3.5804
0
LINE
8
BLACK
6
CONTINUOUS
10
5.512
20
-3.5804
11
5.51174
21
-3.58038
0
LINE
8
BLACK
6
CONTINUOUS
10
5.51174
20
-3.58038
11
5.5115
21
-3.58048
0
LINE
8
BLACK
6
CONTINUOUS
10
5.5115
20
-3.58048
11
5.50963
21
-3.58048
0
LINE
8
BLACK
6
CONTINUOUS
10
5.50963
20
-3.58048
11
5.50939
21
-3.58038
0
LINE
8
BLACK
6
CONTINUOUS
10
5.50939
20
-3.58038
11
5.50913
21
-3.5804
0
LINE
8
BLACK
6
CONTINUOUS
10
5.50913
20
-3.5804
11
5.50632
21
-3.57946
0
LINE
8
BLACK
6
CONTINUOUS
10
5.50632
20
-3.57946
11
5.50604
21
-3.57922
0
LINE
8
BLACK
6
CONTINUOUS
10
5.50604
20
-3.57922
11
5.5057
21
-3.57908
0
LINE
8
BLACK
6
CONTINUOUS
10
5.5057
20
-3.57908
11
5.50477
21
-3.57814
0
LINE
8
BLACK
6
CONTINUOUS
10
5.50477
20
-3.57814
11
5.5043
21
-3.57703
0
LINE
8
BLACK
6
CONTINUOUS
10
5.5043
20
-3.57703
11
5.50477
21
-3.57592
0
LINE
8
BLACK
6
CONTINUOUS
10
5.50477
20
-3.57592
11
5.50588
21
-3.57546
0
LINE
8
BLACK
6
CONTINUOUS
10
5.50588
20
-3.57546
11
5.50699
21
-3.57592
0
LINE
8
BLACK
6
CONTINUOUS
10
5.50699
20
-3.57592
11
5.50767
21
-3.57659
0
LINE
8
BLACK
6
CONTINUOUS
10
5.50767
20
-3.57659
11
5.50988
21
-3.57733
0
LINE
8
BLACK
6
CONTINUOUS
10
5.50988
20
-3.57733
11
5.51125
21
-3.57733
0
LINE
8
BLACK
6
CONTINUOUS
10
5.51125
20
-3.57733
11
5.51347
21
-3.57659
0
LINE
8
BLACK
6
CONTINUOUS
10
5.51347
20
-3.57659
11
5.5149
21
-3.57516
0
LINE
8
BLACK
6
CONTINUOUS
10
5.5149
20
-3.57516
11
5.51564
21
-3.57367
0
LINE
8
BLACK
6
CONTINUOUS
10
5.51564
20
-3.57367
11
5.51649
21
-3.57027
0
LINE
8
BLACK
6
CONTINUOUS
10
5.51649
20
-3.57027
11
5.51649
21
-3.56785
0
LINE
8
BLACK
6
CONTINUOUS
10
5.51649
20
-3.56785
11
5.51564
21
-3.56446
0
LINE
8
BLACK
6
CONTINUOUS
10
5.51564
20
-3.56446
11
5.5149
21
-3.56297
0
LINE
8
BLACK
6
CONTINUOUS
10
5.5149
20
-3.56297
11
5.51347
21
-3.56153
0
LINE
8
BLACK
6
CONTINUOUS
10
5.51347
20
-3.56153
11
5.51125
21
-3.56079
0
LINE
8
BLACK
6
CONTINUOUS
10
5.51125
20
-3.56079
11
5.50988
21
-3.56079
0
LINE
8
BLACK
6
CONTINUOUS
10
5.50988
20
-3.56079
11
5.50767
21
-3.56153
0
LINE
8
BLACK
6
CONTINUOUS
10
5.50767
20
-3.56153
11
5.50699
21
-3.56221
0
LINE
8
BLACK
6
CONTINUOUS
10
5.50699
20
-3.56221
11
5.50588
21
-3.56267
0
LINE
8
BLACK
6
CONTINUOUS
10
5.50588
20
-3.56267
11
5.50477
21
-3.56221
0
LINE
8
BLACK
6
CONTINUOUS
10
5.50477
20
-3.56221
11
5.5043
21
-3.56109
0
LINE
8
BLACK
6
CONTINUOUS
10
5.5043
20
-3.56109
11
5.50477
21
-3.55998
0
LINE
8
BLACK
6
CONTINUOUS
10
5.50477
20
-3.55998
11
5.5057
21
-3.55904
0
LINE
8
BLACK
6
CONTINUOUS
10
5.5057
20
-3.55904
11
5.50604
21
-3.5589
0
LINE
8
BLACK
6
CONTINUOUS
10
5.50604
20
-3.5589
11
5.50632
21
-3.55866
0
LINE
8
BLACK
6
CONTINUOUS
10
5.50632
20
-3.55866
11
5.50913
21
-3.55773
0
LINE
8
BLACK
6
CONTINUOUS
10
5.50913
20
-3.55773
11
5.50939
21
-3.55774
0
LINE
8
BLACK
6
CONTINUOUS
10
5.50939
20
-3.55774
11
5.50963
21
-3.55765
0
LINE
8
BLACK
6
CONTINUOUS
10
5.50963
20
-3.55765
11
5.5115
21
-3.55765
0
LINE
8
BLACK
6
CONTINUOUS
10
5.5115
20
-3.55765
11
5.51174
21
-3.55774
0
LINE
8
BLACK
6
CONTINUOUS
10
5.29566
20
-3.50434
11
5.29508
21
-3.50295
0
LINE
8
BLACK
6
CONTINUOUS
10
5.29508
20
-3.50295
11
5.29508
21
-3.29705
0
LINE
8
BLACK
6
CONTINUOUS
10
5.29508
20
-3.29705
11
5.29566
21
-3.29566
0
LINE
8
BLACK
6
CONTINUOUS
10
5.29566
20
-3.29566
11
5.29705
21
-3.29508
0
LINE
8
BLACK
6
CONTINUOUS
10
5.29705
20
-3.29508
11
5.50295
21
-3.29508
0
LINE
8
BLACK
6
CONTINUOUS
10
5.50295
20
-3.29508
11
5.50434
21
-3.29566
0
LINE
8
BLACK
6
CONTINUOUS
10
5.50434
20
-3.29566
11
5.50492
21
-3.29705
0
LINE
8
BLACK
6
CONTINUOUS
10
5.50492
20
-3.29705
11
5.50492
21
-3.50295
0
LINE
8
BLACK
6
CONTINUOUS
10
5.50492
20
-3.50295
11
5.50434
21
-3.50434
0
LINE
8
BLACK
6
CONTINUOUS
10
5.50434
20
-3.50434
11
5.50295
21
-3.50492
0
LINE
8
BLACK
6
CONTINUOUS
10
5.50295
20
-3.50492
11
5.29705
21
-3.50492
0
LINE
8
BLACK
6
CONTINUOUS
10
5.29705
20
-3.50492
11
5.29566
21
-3.50434
0
LINE
8
BLACK
6
CONTINUOUS
10
5.29902
20
-3.50098
11
5.34229
21
-3.50098
0
LINE
8
BLACK
6
CONTINUOUS
10
5.34229
20
-3.50098
11
5.29902
21
-3.45771
0
LINE
8
BLACK
6
CONTINUOUS
10
5.29902
20
-3.45771
11
5.29902
21
-3.50098
0
LINE
8
BLACK
6
CONTINUOUS
10
5.29902
20
-3.29902
11
5.29902
21
-3.45214
0
LINE
8
BLACK
6
CONTINUOUS
10
5.29902
20
-3.45214
11
5.34786
21
-3.50098
0
LINE
8
BLACK
6
CONTINUOUS
10
5.34786
20
-3.50098
11
5.50098
21
-3.50098
0
LINE
8
BLACK
6
CONTINUOUS
10
5.50098
20
-3.50098
11
5.50098
21
-3.29902
0
LINE
8
BLACK
6
CONTINUOUS
10
5.50098
20
-3.29902
11
5.29902
21
-3.29902
0
LINE
8
BLACK
6
CONTINUOUS
10
5.36374
20
-3.36786
11
5.3651
21
-3.36804
0
LINE
8
BLACK
6
CONTINUOUS
10
5.3651
20
-3.36804
11
5.36513
21
-3.36807
0
LINE
8
BLACK
6
CONTINUOUS
10
5.36513
20
-3.36807
11
5.36518
21
-3.36807
0
LINE
8
BLACK
6
CONTINUOUS
10
5.36518
20
-3.36807
11
5.36621
21
-3.36897
0
LINE
8
BLACK
6
CONTINUOUS
10
5.36621
20
-3.36897
11
5.36726
21
-3.36985
0
LINE
8
BLACK
6
CONTINUOUS
10
5.36726
20
-3.36985
11
5.37174
21
-3.37658
0
LINE
8
BLACK
6
CONTINUOUS
10
5.37174
20
-3.37658
11
5.37558
21
-3.38041
0
LINE
8
BLACK
6
CONTINUOUS
10
5.37558
20
-3.38041
11
5.37962
21
-3.38243
0
LINE
8
BLACK
6
CONTINUOUS
10
5.37962
20
-3.38243
11
5.3808
21
-3.38325
0
LINE
8
BLACK
6
CONTINUOUS
10
5.3808
20
-3.38325
11
5.38223
21
-3.38568
0
LINE
8
BLACK
6
CONTINUOUS
10
5.38223
20
-3.38568
11
5.38212
21
-3.38849
0
LINE
8
BLACK
6
CONTINUOUS
10
5.38212
20
-3.38849
11
5.38052
21
-3.3908
0
LINE
8
BLACK
6
CONTINUOUS
10
5.38052
20
-3.3908
11
5.37792
21
-3.39188
0
LINE
8
BLACK
6
CONTINUOUS
10
5.37792
20
-3.39188
11
5.37514
21
-3.39138
0
LINE
8
BLACK
6
CONTINUOUS
10
5.37514
20
-3.39138
11
5.37038
21
-3.389
0
LINE
8
BLACK
6
CONTINUOUS
10
5.37038
20
-3.389
11
5.3692
21
-3.38818
0
LINE
8
BLACK
6
CONTINUOUS
10
5.3692
20
-3.38818
11
5.36916
21
-3.3881
0
LINE
8
BLACK
6
CONTINUOUS
10
5.36916
20
-3.3881
11
5.36908
21
-3.38806
0
LINE
8
BLACK
6
CONTINUOUS
10
5.36908
20
-3.38806
11
5.3681
21
-3.38707
0
LINE
8
BLACK
6
CONTINUOUS
10
5.3681
20
-3.38707
11
5.3681
21
-3.41762
0
LINE
8
BLACK
6
CONTINUOUS
10
5.3681
20
-3.41762
11
5.37738
21
-3.41762
0
LINE
8
BLACK
6
CONTINUOUS
10
5.37738
20
-3.41762
11
5.3788
21
-3.41782
0
LINE
8
BLACK
6
CONTINUOUS
10
5.3788
20
-3.41782
11
5.38117
21
-3.41935
0
LINE
8
BLACK
6
CONTINUOUS
10
5.38117
20
-3.41935
11
5.38233
21
-3.42191
0
LINE
8
BLACK
6
CONTINUOUS
10
5.38233
20
-3.42191
11
5.38193
21
-3.4247
0
LINE
8
BLACK
6
CONTINUOUS
10
5.38193
20
-3.4247
11
5.38008
21
-3.42683
0
LINE
8
BLACK
6
CONTINUOUS
10
5.38008
20
-3.42683
11
5.37738
21
-3.42762
0
LINE
8
BLACK
6
CONTINUOUS
10
5.37738
20
-3.42762
11
5.34881
21
-3.42762
0
LINE
8
BLACK
6
CONTINUOUS
10
5.34881
20
-3.42762
11
5.34739
21
-3.42741
0
LINE
8
BLACK
6
CONTINUOUS
10
5.34739
20
-3.42741
11
5.34502
21
-3.42589
0
LINE
8
BLACK
6
CONTINUOUS
10
5.34502
20
-3.42589
11
5.34386
21
-3.42332
0
LINE
8
BLACK
6
CONTINUOUS
10
5.34386
20
-3.42332
11
5.34426
21
-3.42054
0
LINE
8
BLACK
6
CONTINUOUS
10
5.34426
20
-3.42054
11
5.34611
21
-3.41841
0
LINE
8
BLACK
6
CONTINUOUS
10
5.34611
20
-3.41841
11
5.34881
21
-3.41762
0
LINE
8
BLACK
6
CONTINUOUS
10
5.34881
20
-3.41762
11
5.3581
21
-3.41762
0
LINE
8
BLACK
6
CONTINUOUS
10
5.3581
20
-3.41762
11
5.3581
21
-3.37262
0
LINE
8
BLACK
6
CONTINUOUS
10
5.3581
20
-3.37262
11
5.35828
21
-3.37136
0
LINE
8
BLACK
6
CONTINUOUS
10
5.35828
20
-3.37136
11
5.35828
21
-3.37128
0
LINE
8
BLACK
6
CONTINUOUS
10
5.35828
20
-3.37128
11
5.35829
21
-3.37126
0
LINE
8
BLACK
6
CONTINUOUS
10
5.35829
20
-3.37126
11
5.3583
21
-3.3712
0
LINE
8
BLACK
6
CONTINUOUS
10
5.3583
20
-3.3712
11
5.35904
21
-3.37005
0
LINE
8
BLACK
6
CONTINUOUS
10
5.35904
20
-3.37005
11
5.35976
21
-3.36889
0
LINE
8
BLACK
6
CONTINUOUS
10
5.35976
20
-3.36889
11
5.3598
21
-3.36887
0
LINE
8
BLACK
6
CONTINUOUS
10
5.3598
20
-3.36887
11
5.35983
21
-3.36883
0
LINE
8
BLACK
6
CONTINUOUS
10
5.35983
20
-3.36883
11
5.36107
21
-3.36827
0
LINE
8
BLACK
6
CONTINUOUS
10
5.36107
20
-3.36827
11
5.36231
21
-3.36768
0
LINE
8
BLACK
6
CONTINUOUS
10
5.36231
20
-3.36768
11
5.36235
21
-3.36769
0
LINE
8
BLACK
6
CONTINUOUS
10
5.36235
20
-3.36769
11
5.36239
21
-3.36767
0
LINE
8
BLACK
6
CONTINUOUS
10
5.36239
20
-3.36767
11
5.36374
21
-3.36786
0
LINE
8
BLACK
6
CONTINUOUS
10
5.41213
20
-3.36782
11
5.41221
21
-3.36787
0
LINE
8
BLACK
6
CONTINUOUS
10
5.41221
20
-3.36787
11
5.4123
21
-3.36788
0
LINE
8
BLACK
6
CONTINUOUS
10
5.4123
20
-3.36788
11
5.41944
21
-3.37026
0
LINE
8
BLACK
6
CONTINUOUS
10
5.41944
20
-3.37026
11
5.42072
21
-3.3709
0
LINE
8
BLACK
6
CONTINUOUS
10
5.42072
20
-3.3709
11
5.421
21
-3.37125
0
LINE
8
BLACK
6
CONTINUOUS
10
5.421
20
-3.37125
11
5.42139
21
-3.37146
0
LINE
8
BLACK
6
CONTINUOUS
10
5.42139
20
-3.37146
11
5.42615
21
-3.37623
0
LINE
8
BLACK
6
CONTINUOUS
10
5.42615
20
-3.37623
11
5.42701
21
-3.37738
0
LINE
8
BLACK
6
CONTINUOUS
10
5.42701
20
-3.37738
11
5.42703
21
-3.37746
0
LINE
8
BLACK
6
CONTINUOUS
10
5.42703
20
-3.37746
11
5.42709
21
-3.37753
0
LINE
8
BLACK
6
CONTINUOUS
10
5.42709
20
-3.37753
11
5.42947
21
-3.38229
0
LINE
8
BLACK
6
CONTINUOUS
10
5.42947
20
-3.38229
11
5.42976
21
-3.38316
0
LINE
8
BLACK
6
CONTINUOUS
10
5.42976
20
-3.38316
11
5.42985
21
-3.38331
0
LINE
8
BLACK
6
CONTINUOUS
10
5.42985
20
-3.38331
11
5.43223
21
-3.39283
0
LINE
8
BLACK
6
CONTINUOUS
10
5.43223
20
-3.39283
11
5.43234
21
-3.39391
0
LINE
8
BLACK
6
CONTINUOUS
10
5.43234
20
-3.39391
11
5.43238
21
-3.39405
0
LINE
8
BLACK
6
CONTINUOUS
10
5.43238
20
-3.39405
11
5.43238
21
-3.40119
0
LINE
8
BLACK
6
CONTINUOUS
10
5.43238
20
-3.40119
11
5.43223
21
-3.40226
0
LINE
8
BLACK
6
CONTINUOUS
10
5.43223
20
-3.40226
11
5.43223
21
-3.4024
0
LINE
8
BLACK
6
CONTINUOUS
10
5.43223
20
-3.4024
11
5.42985
21
-3.41193
0
LINE
8
BLACK
6
CONTINUOUS
10
5.42985
20
-3.41193
11
5.4295
21
-3.41277
0
LINE
8
BLACK
6
CONTINUOUS
10
5.4295
20
-3.41277
11
5.42947
21
-3.41295
0
LINE
8
BLACK
6
CONTINUOUS
10
5.42947
20
-3.41295
11
5.42709
21
-3.41771
0
LINE
8
BLACK
6
CONTINUOUS
10
5.42709
20
-3.41771
11
5.42627
21
-3.41889
0
LINE
8
BLACK
6
CONTINUOUS
10
5.42627
20
-3.41889
11
5.4262
21
-3.41893
0
LINE
8
BLACK
6
CONTINUOUS
10
5.4262
20
-3.41893
11
5.42615
21
-3.41901
0
LINE
8
BLACK
6
CONTINUOUS
10
5.42615
20
-3.41901
11
5.42139
21
-3.42377
0
LINE
8
BLACK
6
CONTINUOUS
10
5.42139
20
-3.42377
11
5.42024
21
-3.42463
0
LINE
8
BLACK
6
CONTINUOUS
10
5.42024
20
-3.42463
11
5.41981
21
-3.42473
0
LINE
8
BLACK
6
CONTINUOUS
10
5.41981
20
-3.42473
11
5.41944
21
-3.42498
0
LINE
8
BLACK
6
CONTINUOUS
10
5.41944
20
-3.42498
11
5.4123
21
-3.42736
0
LINE
8
BLACK
6
CONTINUOUS
10
5.4123
20
-3.42736
11
5.41088
21
-3.42762
0
LINE
8
BLACK
6
CONTINUOUS
10
5.41088
20
-3.42762
11
5.4108
21
-3.42759
0
LINE
8
BLACK
6
CONTINUOUS
10
5.4108
20
-3.42759
11
5.41071
21
-3.42762
0
LINE
8
BLACK
6
CONTINUOUS
10
5.41071
20
-3.42762
11
5.40595
21
-3.42762
0
LINE
8
BLACK
6
CONTINUOUS
10
5.40595
20
-3.42762
11
5.40453
21
-3.42741
0
LINE
8
BLACK
6
CONTINUOUS
10
5.40453
20
-3.42741
11
5.40446
21
-3.42737
0
LINE
8
BLACK
6
CONTINUOUS
10
5.40446
20
-3.42737
11
5.40437
21
-3.42736
0
LINE
8
BLACK
6
CONTINUOUS
10
5.40437
20
-3.42736
11
5.39723
21
-3.42498
0
LINE
8
BLACK
6
CONTINUOUS
10
5.39723
20
-3.42498
11
5.39595
21
-3.42434
0
LINE
8
BLACK
6
CONTINUOUS
10
5.39595
20
-3.42434
11
5.39567
21
-3.42399
0
LINE
8
BLACK
6
CONTINUOUS
10
5.39567
20
-3.42399
11
5.39527
21
-3.42377
0
LINE
8
BLACK
6
CONTINUOUS
10
5.39527
20
-3.42377
11
5.39289
21
-3.42139
0
LINE
8
BLACK
6
CONTINUOUS
10
5.39289
20
-3.42139
11
5.39203
21
-3.42024
0
LINE
8
BLACK
6
CONTINUOUS
10
5.39203
20
-3.42024
11
5.39144
21
-3.41749
0
LINE
8
BLACK
6
CONTINUOUS
10
5.39144
20
-3.41749
11
5.39243
21
-3.41485
0
LINE
8
BLACK
6
CONTINUOUS
10
5.39243
20
-3.41485
11
5.39469
21
-3.41317
0
LINE
8
BLACK
6
CONTINUOUS
10
5.39469
20
-3.41317
11
5.39749
21
-3.41297
0
LINE
8
BLACK
6
CONTINUOUS
10
5.39749
20
-3.41297
11
5.39996
21
-3.41432
0
LINE
8
BLACK
6
CONTINUOUS
10
5.39996
20
-3.41432
11
5.40151
21
-3.41587
0
LINE
8
BLACK
6
CONTINUOUS
10
5.40151
20
-3.41587
11
5.40676
21
-3.41762
0
LINE
8
BLACK
6
CONTINUOUS
10
5.40676
20
-3.41762
11
5.4099
21
-3.41762
0
LINE
8
BLACK
6
CONTINUOUS
10
5.4099
20
-3.41762
11
5.41516
21
-3.41587
0
LINE
8
BLACK
6
CONTINUOUS
10
5.41516
20
-3.41587
11
5.41851
21
-3.41251
0
LINE
8
BLACK
6
CONTINUOUS
10
5.41851
20
-3.41251
11
5.42028
21
-3.40897
0
LINE
8
BLACK
6
CONTINUOUS
10
5.42028
20
-3.40897
11
5.42238
21
-3.40057
0
LINE
8
BLACK
6
CONTINUOUS
10
5.42238
20
-3.40057
11
5.42238
21
-3.39466
0
LINE
8
BLACK
6
CONTINUOUS
10
5.42238
20
-3.39466
11
5.42028
21
-3.38627
0
LINE
8
BLACK
6
CONTINUOUS
10
5.42028
20
-3.38627
11
5.41851
21
-3.38272
0
LINE
8
BLACK
6
CONTINUOUS
10
5.41851
20
-3.38272
11
5.41516
21
-3.37937
0
LINE
8
BLACK
6
CONTINUOUS
10
5.41516
20
-3.37937
11
5.4099
21
-3.37762
0
LINE
8
BLACK
6
CONTINUOUS
10
5.4099
20
-3.37762
11
5.40676
21
-3.37762
0
LINE
8
BLACK
6
CONTINUOUS
10
5.40676
20
-3.37762
11
5.40151
21
-3.37937
0
LINE
8
BLACK
6
CONTINUOUS
10
5.40151
20
-3.37937
11
5.39996
21
-3.38092
0
LINE
8
BLACK
6
CONTINUOUS
10
5.39996
20
-3.38092
11
5.39881
21
-3.38178
0
LINE
8
BLACK
6
CONTINUOUS
10
5.39881
20
-3.38178
11
5.39606
21
-3.38237
0
LINE
8
BLACK
6
CONTINUOUS
10
5.39606
20
-3.38237
11
5.39343
21
-3.38138
0
LINE
8
BLACK
6
CONTINUOUS
10
5.39343
20
-3.38138
11
5.39174
21
-3.37912
0
LINE
8
BLACK
6
CONTINUOUS
10
5.39174
20
-3.37912
11
5.39154
21
-3.37632
0
LINE
8
BLACK
6
CONTINUOUS
10
5.39154
20
-3.37632
11
5.39289
21
-3.37385
0
LINE
8
BLACK
6
CONTINUOUS
10
5.39289
20
-3.37385
11
5.39527
21
-3.37146
0
LINE
8
BLACK
6
CONTINUOUS
10
5.39527
20
-3.37146
11
5.39642
21
-3.37061
0
LINE
8
BLACK
6
CONTINUOUS
10
5.39642
20
-3.37061
11
5.39686
21
-3.37051
0
LINE
8
BLACK
6
CONTINUOUS
10
5.39686
20
-3.37051
11
5.39723
21
-3.37026
0
LINE
8
BLACK
6
CONTINUOUS
10
5.39723
20
-3.37026
11
5.40437
21
-3.36788
0
LINE
8
BLACK
6
CONTINUOUS
10
5.40437
20
-3.36788
11
5.40578
21
-3.36762
0
LINE
8
BLACK
6
CONTINUOUS
10
5.40578
20
-3.36762
11
5.40587
21
-3.36764
0
LINE
8
BLACK
6
CONTINUOUS
10
5.40587
20
-3.36764
11
5.40595
21
-3.36762
0
LINE
8
BLACK
6
CONTINUOUS
10
5.40595
20
-3.36762
11
5.41071
21
-3.36762
0
LINE
8
BLACK
6
CONTINUOUS
10
5.41071
20
-3.36762
11
5.41213
21
-3.36782
0
LINE
8
BLACK
6
CONTINUOUS
10
5.45089
20
-3.36807
11
5.45302
21
-3.36992
0
LINE
8
BLACK
6
CONTINUOUS
10
5.45302
20
-3.36992
11
5.45381
21
-3.37262
0
LINE
8
BLACK
6
CONTINUOUS
10
5.45381
20
-3.37262
11
5.45381
21
-3.42262
0
LINE
8
BLACK
6
CONTINUOUS
10
5.45381
20
-3.42262
11
5.4536
21
-3.42404
0
LINE
8
BLACK
6
CONTINUOUS
10
5.4536
20
-3.42404
11
5.45208
21
-3.4264
0
LINE
8
BLACK
6
CONTINUOUS
10
5.45208
20
-3.4264
11
5.44951
21
-3.42757
0
LINE
8
BLACK
6
CONTINUOUS
10
5.44951
20
-3.42757
11
5.44673
21
-3.42717
0
LINE
8
BLACK
6
CONTINUOUS
10
5.44673
20
-3.42717
11
5.4446
21
-3.42532
0
LINE
8
BLACK
6
CONTINUOUS
10
5.4446
20
-3.42532
11
5.44381
21
-3.42262
0
LINE
8
BLACK
6
CONTINUOUS
10
5.44381
20
-3.42262
11
5.44381
21
-3.37262
0
LINE
8
BLACK
6
CONTINUOUS
10
5.44381
20
-3.37262
11
5.44402
21
-3.3712
0
LINE
8
BLACK
6
CONTINUOUS
10
5.44402
20
-3.3712
11
5.44554
21
-3.36883
0
LINE
8
BLACK
6
CONTINUOUS
10
5.44554
20
-3.36883
11
5.4481
21
-3.36767
0
LINE
8
BLACK
6
CONTINUOUS
10
5.4481
20
-3.36767
11
5.45089
21
-3.36807
0
LINE
8
BLACK
6
CONTINUOUS
10
5.42944
20
-3.14398
11
5.42957
21
-3.14396
0
LINE
8
BLACK
6
CONTINUOUS
10
5.42957
20
-3.14396
11
5.42969
21
-3.14402
0
LINE
8
BLACK
6
CONTINUOUS
10
5.42969
20
-3.14402
11
5.43007
21
-3.14409
0
LINE
8
BLACK
6
CONTINUOUS
10
5.43007
20
-3.14409
11
5.43066
21
-3.14458
0
LINE
8
BLACK
6
CONTINUOUS
10
5.43066
20
-3.14458
11
5.43132
21
-3.14497
0
LINE
8
BLACK
6
CONTINUOUS
10
5.43132
20
-3.14497
11
5.43141
21
-3.14522
0
LINE
8
BLACK
6
CONTINUOUS
10
5.43141
20
-3.14522
11
5.43162
21
-3.14539
0
LINE
8
BLACK
6
CONTINUOUS
10
5.43162
20
-3.14539
11
5.43175
21
-3.14614
0
LINE
8
BLACK
6
CONTINUOUS
10
5.43175
20
-3.14614
11
5.43201
21
-3.14687
0
LINE
8
BLACK
6
CONTINUOUS
10
5.43201
20
-3.14687
11
5.43201
21
-3.18624
0
LINE
8
BLACK
6
CONTINUOUS
10
5.43201
20
-3.18624
11
5.43194
21
-3.18662
0
LINE
8
BLACK
6
CONTINUOUS
10
5.43194
20
-3.18662
11
5.43197
21
-3.18675
0
LINE
8
BLACK
6
CONTINUOUS
10
5.43197
20
-3.18675
11
5.4319
21
-3.18686
0
LINE
8
BLACK
6
CONTINUOUS
10
5.4319
20
-3.18686
11
5.43183
21
-3.18725
0
LINE
8
BLACK
6
CONTINUOUS
10
5.43183
20
-3.18725
11
5.43134
21
-3.18783
0
LINE
8
BLACK
6
CONTINUOUS
10
5.43134
20
-3.18783
11
5.43096
21
-3.1885
0
LINE
8
BLACK
6
CONTINUOUS
10
5.43096
20
-3.1885
11
5.43071
21
-3.18859
0
LINE
8
BLACK
6
CONTINUOUS
10
5.43071
20
-3.18859
11
5.43054
21
-3.18879
0
LINE
8
BLACK
6
CONTINUOUS
10
5.43054
20
-3.18879
11
5.42978
21
-3.18893
0
LINE
8
BLACK
6
CONTINUOUS
10
5.42978
20
-3.18893
11
5.42906
21
-3.18919
0
LINE
8
BLACK
6
CONTINUOUS
10
5.42906
20
-3.18919
11
5.41969
21
-3.18919
0
LINE
8
BLACK
6
CONTINUOUS
10
5.41969
20
-3.18919
11
5.41882
21
-3.18903
0
LINE
8
BLACK
6
CONTINUOUS
10
5.41882
20
-3.18903
11
5.41875
21
-3.18904
0
LINE
8
BLACK
6
CONTINUOUS
10
5.41875
20
-3.18904
11
5.41313
21
-3.18716
0
LINE
8
BLACK
6
CONTINUOUS
10
5.41313
20
-3.18716
11
5.41223
21
-3.18667
0
LINE
8
BLACK
6
CONTINUOUS
10
5.41223
20
-3.18667
11
5.41213
21
-3.18652
0
LINE
8
BLACK
6
CONTINUOUS
10
5.41213
20
-3.18652
11
5.41197
21
-3.18645
0
LINE
8
BLACK
6
CONTINUOUS
10
5.41197
20
-3.18645
11
5.40822
21
-3.1827
0
LINE
8
BLACK
6
CONTINUOUS
10
5.40822
20
-3.1827
11
5.40772
21
-3.18198
0
LINE
8
BLACK
6
CONTINUOUS
10
5.40772
20
-3.18198
11
5.40767
21
-3.18193
0
LINE
8
BLACK
6
CONTINUOUS
10
5.40767
20
-3.18193
11
5.4058
21
-3.17818
0
LINE
8
BLACK
6
CONTINUOUS
10
5.4058
20
-3.17818
11
5.40565
21
-3.17769
0
LINE
8
BLACK
6
CONTINUOUS
10
5.40565
20
-3.17769
11
5.40557
21
-3.17758
0
LINE
8
BLACK
6
CONTINUOUS
10
5.40557
20
-3.17758
11
5.4037
21
-3.17008
0
LINE
8
BLACK
6
CONTINUOUS
10
5.4037
20
-3.17008
11
5.40366
21
-3.16949
0
LINE
8
BLACK
6
CONTINUOUS
10
5.40366
20
-3.16949
11
5.40361
21
-3.16936
0
LINE
8
BLACK
6
CONTINUOUS
10
5.40361
20
-3.16936
11
5.40361
21
-3.16374
0
LINE
8
BLACK
6
CONTINUOUS
10
5.40361
20
-3.16374
11
5.40371
21
-3.16316
0
LINE
8
BLACK
6
CONTINUOUS
10
5.40371
20
-3.16316
11
5.4037
21
-3.16302
0
LINE
8
BLACK
6
CONTINUOUS
10
5.4037
20
-3.16302
11
5.40557
21
-3.15552
0
LINE
8
BLACK
6
CONTINUOUS
10
5.40557
20
-3.15552
11
5.40578
21
-3.15506
0
LINE
8
BLACK
6
CONTINUOUS
10
5.40578
20
-3.15506
11
5.4058
21
-3.15492
0
LINE
8
BLACK
6
CONTINUOUS
10
5.4058
20
-3.15492
11
5.40767
21
-3.15117
0
LINE
8
BLACK
6
CONTINUOUS
10
5.40767
20
-3.15117
11
5.4082
21
-3.15046
0
LINE
8
BLACK
6
CONTINUOUS
10
5.4082
20
-3.15046
11
5.40822
21
-3.1504
0
LINE
8
BLACK
6
CONTINUOUS
10
5.40822
20
-3.1504
11
5.41197
21
-3.14665
0
LINE
8
BLACK
6
CONTINUOUS
10
5.41197
20
-3.14665
11
5.41281
21
-3.14606
0
LINE
8
BLACK
6
CONTINUOUS
10
5.41281
20
-3.14606
11
5.41299
21
-3.14605
0
LINE
8
BLACK
6
CONTINUOUS
10
5.41299
20
-3.14605
11
5.41313
21
-3.14594
0
LINE
8
BLACK
6
CONTINUOUS
10
5.41313
20
-3.14594
11
5.41875
21
-3.14406
0
LINE
8
BLACK
6
CONTINUOUS
10
5.41875
20
-3.14406
11
5.41962
21
-3.14393
0
LINE
8
BLACK
6
CONTINUOUS
10
5.41962
20
-3.14393
11
5.41969
21
-3.14391
0
LINE
8
BLACK
6
CONTINUOUS
10
5.41969
20
-3.14391
11
5.42906
21
-3.14391
0
LINE
8
BLACK
6
CONTINUOUS
10
5.42906
20
-3.14391
11
5.42944
21
-3.14398
0
LINE
8
BLACK
6
CONTINUOUS
10
5.42016
20
-3.14982
11
5.41566
21
-3.15132
0
LINE
8
BLACK
6
CONTINUOUS
10
5.41566
20
-3.15132
11
5.41274
21
-3.15424
0
LINE
8
BLACK
6
CONTINUOUS
10
5.41274
20
-3.15424
11
5.41122
21
-3.15727
0
LINE
8
BLACK
6
CONTINUOUS
10
5.41122
20
-3.15727
11
5.40951
21
-3.1641
0
LINE
8
BLACK
6
CONTINUOUS
10
5.40951
20
-3.1641
11
5.40951
21
-3.169
0
LINE
8
BLACK
6
CONTINUOUS
10
5.40951
20
-3.169
11
5.41122
21
-3.17583
0
LINE
8
BLACK
6
CONTINUOUS
10
5.41122
20
-3.17583
11
5.41274
21
-3.17886
0
LINE
8
BLACK
6
CONTINUOUS
10
5.41274
20
-3.17886
11
5.41566
21
-3.18178
0
LINE
8
BLACK
6
CONTINUOUS
10
5.41566
20
-3.18178
11
5.42016
21
-3.18328
0
LINE
8
BLACK
6
CONTINUOUS
10
5.42016
20
-3.18328
11
5.42611
21
-3.18328
0
LINE
8
BLACK
6
CONTINUOUS
10
5.42611
20
-3.18328
11
5.42611
21
-3.14982
0
LINE
8
BLACK
6
CONTINUOUS
10
5.42611
20
-3.14982
11
5.42016
21
-3.14982
0
LINE
8
BLACK
6
CONTINUOUS
10
5.38097
20
-3.14404
11
5.38114
21
-3.14403
0
LINE
8
BLACK
6
CONTINUOUS
10
5.38114
20
-3.14403
11
5.38183
21
-3.14454
0
LINE
8
BLACK
6
CONTINUOUS
10
5.38183
20
-3.14454
11
5.38258
21
-3.14497
0
LINE
8
BLACK
6
CONTINUOUS
10
5.38258
20
-3.14497
11
5.38263
21
-3.14513
0
LINE
8
BLACK
6
CONTINUOUS
10
5.38263
20
-3.14513
11
5.38277
21
-3.14523
0
LINE
8
BLACK
6
CONTINUOUS
10
5.38277
20
-3.14523
11
5.38636
21
-3.15061
0
LINE
8
BLACK
6
CONTINUOUS
10
5.38636
20
-3.15061
11
5.38956
21
-3.15381
0
LINE
8
BLACK
6
CONTINUOUS
10
5.38956
20
-3.15381
11
5.39288
21
-3.15547
0
LINE
8
BLACK
6
CONTINUOUS
10
5.39288
20
-3.15547
11
5.39371
21
-3.15608
0
LINE
8
BLACK
6
CONTINUOUS
10
5.39371
20
-3.15608
11
5.39451
21
-3.15794
0
LINE
8
BLACK
6
CONTINUOUS
10
5.39451
20
-3.15794
11
5.39394
21
-3.15987
0
LINE
8
BLACK
6
CONTINUOUS
10
5.39394
20
-3.15987
11
5.39225
21
-3.16099
0
LINE
8
BLACK
6
CONTINUOUS
10
5.39225
20
-3.16099
11
5.39024
21
-3.16075
0
LINE
8
BLACK
6
CONTINUOUS
10
5.39024
20
-3.16075
11
5.38649
21
-3.15888
0
LINE
8
BLACK
6
CONTINUOUS
10
5.38649
20
-3.15888
11
5.38578
21
-3.15835
0
LINE
8
BLACK
6
CONTINUOUS
10
5.38578
20
-3.15835
11
5.38573
21
-3.15833
0
LINE
8
BLACK
6
CONTINUOUS
10
5.38573
20
-3.15833
11
5.38327
21
-3.15587
0
LINE
8
BLACK
6
CONTINUOUS
10
5.38327
20
-3.15587
11
5.38327
21
-3.18328
0
LINE
8
BLACK
6
CONTINUOUS
10
5.38327
20
-3.18328
11
5.39156
21
-3.18328
0
LINE
8
BLACK
6
CONTINUOUS
10
5.39156
20
-3.18328
11
5.39257
21
-3.18346
0
LINE
8
BLACK
6
CONTINUOUS
10
5.39257
20
-3.18346
11
5.39412
21
-3.18476
0
LINE
8
BLACK
6
CONTINUOUS
10
5.39412
20
-3.18476
11
5.39447
21
-3.18675
0
LINE
8
BLACK
6
CONTINUOUS
10
5.39447
20
-3.18675
11
5.39346
21
-3.1885
0
LINE
8
BLACK
6
CONTINUOUS
10
5.39346
20
-3.1885
11
5.39156
21
-3.18919
0
LINE
8
BLACK
6
CONTINUOUS
10
5.39156
20
-3.18919
11
5.36907
21
-3.18919
0
LINE
8
BLACK
6
CONTINUOUS
10
5.36907
20
-3.18919
11
5.36806
21
-3.18901
0
LINE
8
BLACK
6
CONTINUOUS
10
5.36806
20
-3.18901
11
5.36651
21
-3.18771
0
LINE
8
BLACK
6
CONTINUOUS
10
5.36651
20
-3.18771
11
5.36616
21
-3.18572
0
LINE
8
BLACK
6
CONTINUOUS
10
5.36616
20
-3.18572
11
5.36717
21
-3.18397
0
LINE
8
BLACK
6
CONTINUOUS
10
5.36717
20
-3.18397
11
5.36907
21
-3.18328
0
LINE
8
BLACK
6
CONTINUOUS
10
5.36907
20
-3.18328
11
5.37736
21
-3.18328
0
LINE
8
BLACK
6
CONTINUOUS
10
5.37736
20
-3.18328
11
5.37736
21
-3.14687
0
LINE
8
BLACK
6
CONTINUOUS
10
5.37736
20
-3.14687
11
5.37754
21
-3.14586
0
LINE
8
BLACK
6
CONTINUOUS
10
5.37754
20
-3.14586
11
5.37765
21
-3.14573
0
LINE
8
BLACK
6
CONTINUOUS
10
5.37765
20
-3.14573
11
5.37767
21
-3.14556
0
LINE
8
BLACK
6
CONTINUOUS
10
5.37767
20
-3.14556
11
5.37829
21
-3.14496
0
LINE
8
BLACK
6
CONTINUOUS
10
5.37829
20
-3.14496
11
5.37884
21
-3.14431
0
LINE
8
BLACK
6
CONTINUOUS
10
5.37884
20
-3.14431
11
5.37901
21
-3.14428
0
LINE
8
BLACK
6
CONTINUOUS
10
5.37901
20
-3.14428
11
5.37913
21
-3.14416
0
LINE
8
BLACK
6
CONTINUOUS
10
5.37913
20
-3.14416
11
5.37998
21
-3.14411
0
LINE
8
BLACK
6
CONTINUOUS
10
5.37998
20
-3.14411
11
5.38083
21
-3.14396
0
LINE
8
BLACK
6
CONTINUOUS
10
5.38083
20
-3.14396
11
5.38097
21
-3.14404
0
LINE
8
BLACK
6
CONTINUOUS
10
5.30806
20
-3.13045
11
5.30748
21
-3.12906
0
LINE
8
BLACK
6
CONTINUOUS
10
5.30748
20
-3.12906
11
5.30748
21
-3.01094
0
LINE
8
BLACK
6
CONTINUOUS
10
5.30748
20
-3.01094
11
5.30806
21
-3.00955
0
LINE
8
BLACK
6
CONTINUOUS
10
5.30806
20
-3.00955
11
5.30945
21
-3.00898
0
LINE
8
BLACK
6
CONTINUOUS
10
5.30945
20
-3.00898
11
5.49055
21
-3.00898
0
LINE
8
BLACK
6
CONTINUOUS
10
5.49055
20
-3.00898
11
5.49194
21
-3.00955
0
LINE
8
BLACK
6
CONTINUOUS
10
5.49194
20
-3.00955
11
5.49252
21
-3.01094
0
LINE
8
BLACK
6
CONTINUOUS
10
5.49252
20
-3.01094
11
5.49252
21
-3.12906
0
LINE
8
BLACK
6
CONTINUOUS
10
5.49252
20
-3.12906
11
5.49194
21
-3.13045
0
LINE
8
BLACK
6
CONTINUOUS
10
5.49194
20
-3.13045
11
5.49055
21
-3.13102
0
LINE
8
BLACK
6
CONTINUOUS
10
5.49055
20
-3.13102
11
5.30945
21
-3.13102
0
LINE
8
BLACK
6
CONTINUOUS
10
5.30945
20
-3.13102
11
5.30806
21
-3.13045
0
LINE
8
BLACK
6
CONTINUOUS
10
5.31142
20
-3.01291
11
5.31142
21
-3.12709
0
LINE
8
BLACK
6
CONTINUOUS
10
5.31142
20
-3.12709
11
5.48858
21
-3.12709
0
LINE
8
BLACK
6
CONTINUOUS
10
5.48858
20
-3.12709
11
5.48858
21
-3.01291
0
LINE
8
BLACK
6
CONTINUOUS
10
5.48858
20
-3.01291
11
5.31142
21
-3.01291
0
LINE
8
BLACK
6
CONTINUOUS
10
5.37582
20
-3.03707
11
5.3764
21
-3.03846
0
LINE
8
BLACK
6
CONTINUOUS
10
5.3764
20
-3.03846
11
5.3764
21
-3.06633
0
LINE
8
BLACK
6
CONTINUOUS
10
5.3764
20
-3.06633
11
5.41866
21
-3.03881
0
LINE
8
BLACK
6
CONTINUOUS
10
5.41866
20
-3.03881
11
5.41921
21
-3.03871
0
LINE
8
BLACK
6
CONTINUOUS
10
5.41921
20
-3.03871
11
5.41973
21
-3.03849
0
LINE
8
BLACK
6
CONTINUOUS
10
5.41973
20
-3.03849
11
5.41993
21
-3.03857
0
LINE
8
BLACK
6
CONTINUOUS
10
5.41993
20
-3.03857
11
5.42014
21
-3.03853
0
LINE
8
BLACK
6
CONTINUOUS
10
5.42014
20
-3.03853
11
5.4206
21
-3.03885
0
LINE
8
BLACK
6
CONTINUOUS
10
5.4206
20
-3.03885
11
5.42112
21
-3.03907
0
LINE
8
BLACK
6
CONTINUOUS
10
5.42112
20
-3.03907
11
5.42121
21
-3.03926
0
LINE
8
BLACK
6
CONTINUOUS
10
5.42121
20
-3.03926
11
5.42138
21
-3.03939
0
LINE
8
BLACK
6
CONTINUOUS
10
5.42138
20
-3.03939
11
5.42148
21
-3.03994
0
LINE
8
BLACK
6
CONTINUOUS
10
5.42148
20
-3.03994
11
5.4217
21
-3.04046
0
LINE
8
BLACK
6
CONTINUOUS
10
5.4217
20
-3.04046
11
5.4217
21
-3.06799
0
LINE
8
BLACK
6
CONTINUOUS
10
5.4217
20
-3.06799
11
5.45903
21
-3.06799
0
LINE
8
BLACK
6
CONTINUOUS
10
5.45903
20
-3.06799
11
5.46042
21
-3.06857
0
LINE
8
BLACK
6
CONTINUOUS
10
5.46042
20
-3.06857
11
5.461
21
-3.06996
0
LINE
8
BLACK
6
CONTINUOUS
10
5.461
20
-3.06996
11
5.46042
21
-3.07135
0
LINE
8
BLACK
6
CONTINUOUS
10
5.46042
20
-3.07135
11
5.45903
21
-3.07193
0
LINE
8
BLACK
6
CONTINUOUS
10
5.45903
20
-3.07193
11
5.4217
21
-3.07193
0
LINE
8
BLACK
6
CONTINUOUS
10
5.4217
20
-3.07193
11
5.4217
21
-3.10146
0
LINE
8
BLACK
6
CONTINUOUS
10
5.4217
20
-3.10146
11
5.42147
21
-3.10201
0
LINE
8
BLACK
6
CONTINUOUS
10
5.42147
20
-3.10201
11
5.42135
21
-3.10258
0
LINE
8
BLACK
6
CONTINUOUS
10
5.42135
20
-3.10258
11
5.42119
21
-3.10268
0
LINE
8
BLACK
6
CONTINUOUS
10
5.42119
20
-3.10268
11
5.42112
21
-3.10285
0
LINE
8
BLACK
6
CONTINUOUS
10
5.42112
20
-3.10285
11
5.42058
21
-3.10308
0
LINE
8
BLACK
6
CONTINUOUS
10
5.42058
20
-3.10308
11
5.42008
21
-3.1034
0
LINE
8
BLACK
6
CONTINUOUS
10
5.42008
20
-3.1034
11
5.4199
21
-3.10336
0
LINE
8
BLACK
6
CONTINUOUS
10
5.4199
20
-3.10336
11
5.41973
21
-3.10343
0
LINE
8
BLACK
6
CONTINUOUS
10
5.41973
20
-3.10343
11
5.41919
21
-3.1032
0
LINE
8
BLACK
6
CONTINUOUS
10
5.41919
20
-3.1032
11
5.41861
21
-3.10308
0
LINE
8
BLACK
6
CONTINUOUS
10
5.41861
20
-3.10308
11
5.3764
21
-3.07373
0
LINE
8
BLACK
6
CONTINUOUS
10
5.3764
20
-3.07373
11
5.3764
21
-3.10146
0
LINE
8
BLACK
6
CONTINUOUS
10
5.3764
20
-3.10146
11
5.37582
21
-3.10285
0
LINE
8
BLACK
6
CONTINUOUS
10
5.37582
20
-3.10285
11
5.37443
21
-3.10343
0
LINE
8
BLACK
6
CONTINUOUS
10
5.37443
20
-3.10343
11
5.37304
21
-3.10285
0
LINE
8
BLACK
6
CONTINUOUS
10
5.37304
20
-3.10285
11
5.37246
21
-3.10146
0
LINE
8
BLACK
6
CONTINUOUS
10
5.37246
20
-3.10146
11
5.37246
21
-3.07193
0
LINE
8
BLACK
6
CONTINUOUS
10
5.37246
20
-3.07193
11
5.33893
21
-3.07193
0
LINE
8
BLACK
6
CONTINUOUS
10
5.33893
20
-3.07193
11
5.33754
21
-3.07135
0
LINE
8
BLACK
6
CONTINUOUS
10
5.33754
20
-3.07135
11
5.33696
21
-3.06996
0
LINE
8
BLACK
6
CONTINUOUS
10
5.33696
20
-3.06996
11
5.33754
21
-3.06857
0
LINE
8
BLACK
6
CONTINUOUS
10
5.33754
20
-3.06857
11
5.33893
21
-3.06799
0
LINE
8
BLACK
6
CONTINUOUS
10
5.33893
20
-3.06799
11
5.37246
21
-3.06799
0
LINE
8
BLACK
6
CONTINUOUS
10
5.37246
20
-3.06799
11
5.37246
21
-3.03846
0
LINE
8
BLACK
6
CONTINUOUS
10
5.37246
20
-3.03846
11
5.37304
21
-3.03707
0
LINE
8
BLACK
6
CONTINUOUS
10
5.37304
20
-3.03707
11
5.37443
21
-3.03649
0
LINE
8
BLACK
6
CONTINUOUS
10
5.37443
20
-3.03649
11
5.37582
21
-3.03707
0
LINE
8
BLACK
6
CONTINUOUS
10
5.37796
20
-3.07001
11
5.41776
21
-3.09769
0
LINE
8
BLACK
6
CONTINUOUS
10
5.41776
20
-3.09769
11
5.41776
21
-3.04409
0
LINE
8
BLACK
6
CONTINUOUS
10
5.41776
20
-3.04409
11
5.37796
21
-3.07001
0
LINE
8
BLACK
6
CONTINUOUS
10
5.2804
20
-2.98168
11
5.28109
21
-2.98357
0
LINE
8
BLACK
6
CONTINUOUS
10
5.28109
20
-2.98357
11
5.28109
21
-2.98475
0
LINE
8
BLACK
6
CONTINUOUS
10
5.28109
20
-2.98475
11
5.28244
21
-2.98745
0
LINE
8
BLACK
6
CONTINUOUS
10
5.28244
20
-2.98745
11
5.28398
21
-2.98898
0
LINE
8
BLACK
6
CONTINUOUS
10
5.28398
20
-2.98898
11
5.28457
21
-2.98982
0
LINE
8
BLACK
6
CONTINUOUS
10
5.28457
20
-2.98982
11
5.28474
21
-2.99184
0
LINE
8
BLACK
6
CONTINUOUS
10
5.28474
20
-2.99184
11
5.28358
21
-2.99349
0
LINE
8
BLACK
6
CONTINUOUS
10
5.28358
20
-2.99349
11
5.28163
21
-2.99401
0
LINE
8
BLACK
6
CONTINUOUS
10
5.28163
20
-2.99401
11
5.2798
21
-2.99316
0
LINE
8
BLACK
6
CONTINUOUS
10
5.2798
20
-2.99316
11
5.27793
21
-2.99129
0
LINE
8
BLACK
6
CONTINUOUS
10
5.27793
20
-2.99129
11
5.27742
21
-2.99056
0
LINE
8
BLACK
6
CONTINUOUS
10
5.27742
20
-2.99056
11
5.27737
21
-2.99052
0
LINE
8
BLACK
6
CONTINUOUS
10
5.27737
20
-2.99052
11
5.2755
21
-2.98677
0
LINE
8
BLACK
6
CONTINUOUS
10
5.2755
20
-2.98677
11
5.27521
21
-2.98579
0
LINE
8
BLACK
6
CONTINUOUS
10
5.27521
20
-2.98579
11
5.27525
21
-2.98561
0
LINE
8
BLACK
6
CONTINUOUS
10
5.27525
20
-2.98561
11
5.27519
21
-2.98545
0
LINE
8
BLACK
6
CONTINUOUS
10
5.27519
20
-2.98545
11
5.27519
21
-2.98357
0
LINE
8
BLACK
6
CONTINUOUS
10
5.27519
20
-2.98357
11
5.27537
21
-2.98256
0
LINE
8
BLACK
6
CONTINUOUS
10
5.27537
20
-2.98256
11
5.27666
21
-2.98102
0
LINE
8
BLACK
6
CONTINUOUS
10
5.27666
20
-2.98102
11
5.27865
21
-2.98067
0
LINE
8
BLACK
6
CONTINUOUS
10
5.27865
20
-2.98067
11
5.2804
21
-2.98168
0
LINE
8
BLACK
6
CONTINUOUS
10
5.31766
20
-2.94315
11
5.31773
21
-2.94313
0
LINE
8
BLACK
6
CONTINUOUS
10
5.31773
20
-2.94313
11
5.31784
21
-2.94318
0
LINE
8
BLACK
6
CONTINUOUS
10
5.31784
20
-2.94318
11
5.31852
21
-2.9433
0
LINE
8
BLACK
6
CONTINUOUS
10
5.31852
20
-2.9433
11
5.319
21
-2.94371
0
LINE
8
BLACK
6
CONTINUOUS
10
5.319
20
-2.94371
11
5.31957
21
-2.94396
0
LINE
8
BLACK
6
CONTINUOUS
10
5.31957
20
-2.94396
11
5.31975
21
-2.94434
0
LINE
8
BLACK
6
CONTINUOUS
10
5.31975
20
-2.94434
11
5.32007
21
-2.9446
0
LINE
8
BLACK
6
CONTINUOUS
10
5.32007
20
-2.9446
11
5.32018
21
-2.94522
0
LINE
8
BLACK
6
CONTINUOUS
10
5.32018
20
-2.94522
11
5.32045
21
-2.94578
0
LINE
8
BLACK
6
CONTINUOUS
10
5.32045
20
-2.94578
11
5.32232
21
-2.96453
0
LINE
8
BLACK
6
CONTINUOUS
10
5.32232
20
-2.96453
11
5.32225
21
-2.96555
0
LINE
8
BLACK
6
CONTINUOUS
10
5.32225
20
-2.96555
11
5.32224
21
-2.96557
0
LINE
8
BLACK
6
CONTINUOUS
10
5.32224
20
-2.96557
11
5.32224
21
-2.96559
0
LINE
8
BLACK
6
CONTINUOUS
10
5.32224
20
-2.96559
11
5.32167
21
-2.9664
0
LINE
8
BLACK
6
CONTINUOUS
10
5.32167
20
-2.9664
11
5.32111
21
-2.96722
0
LINE
8
BLACK
6
CONTINUOUS
10
5.32111
20
-2.96722
11
5.32109
21
-2.96723
0
LINE
8
BLACK
6
CONTINUOUS
10
5.32109
20
-2.96723
11
5.32108
21
-2.96724
0
LINE
8
BLACK
6
CONTINUOUS
10
5.32108
20
-2.96724
11
5.32012
21
-2.9675
0
LINE
8
BLACK
6
CONTINUOUS
10
5.32012
20
-2.9675
11
5.31916
21
-2.96777
0
LINE
8
BLACK
6
CONTINUOUS
10
5.31916
20
-2.96777
11
5.31915
21
-2.96776
0
LINE
8
BLACK
6
CONTINUOUS
10
5.31915
20
-2.96776
11
5.31913
21
-2.96777
0
LINE
8
BLACK
6
CONTINUOUS
10
5.31913
20
-2.96777
11
5.31823
21
-2.96735
0
LINE
8
BLACK
6
CONTINUOUS
10
5.31823
20
-2.96735
11
5.31732
21
-2.96694
0
LINE
8
BLACK
6
CONTINUOUS
10
5.31732
20
-2.96694
11
5.31731
21
-2.96692
0
LINE
8
BLACK
6
CONTINUOUS
10
5.31731
20
-2.96692
11
5.3173
21
-2.96691
0
LINE
8
BLACK
6
CONTINUOUS
10
5.3173
20
-2.96691
11
5.31576
21
-2.96538
0
LINE
8
BLACK
6
CONTINUOUS
10
5.31576
20
-2.96538
11
5.31306
21
-2.96403
0
LINE
8
BLACK
6
CONTINUOUS
10
5.31306
20
-2.96403
11
5.30508
21
-2.96403
0
LINE
8
BLACK
6
CONTINUOUS
10
5.30508
20
-2.96403
11
5.30239
21
-2.96538
0
LINE
8
BLACK
6
CONTINUOUS
10
5.30239
20
-2.96538
11
5.30119
21
-2.96657
0
LINE
8
BLACK
6
CONTINUOUS
10
5.30119
20
-2.96657
11
5.29984
21
-2.96927
0
LINE
8
BLACK
6
CONTINUOUS
10
5.29984
20
-2.96927
11
5.29984
21
-2.97725
0
LINE
8
BLACK
6
CONTINUOUS
10
5.29984
20
-2.97725
11
5.30119
21
-2.97995
0
LINE
8
BLACK
6
CONTINUOUS
10
5.30119
20
-2.97995
11
5.30239
21
-2.98115
0
LINE
8
BLACK
6
CONTINUOUS
10
5.30239
20
-2.98115
11
5.30508
21
-2.9825
0
LINE
8
BLACK
6
CONTINUOUS
10
5.30508
20
-2.9825
11
5.31306
21
-2.9825
0
LINE
8
BLACK
6
CONTINUOUS
10
5.31306
20
-2.9825
11
5.31576
21
-2.98115
0
LINE
8
BLACK
6
CONTINUOUS
10
5.31576
20
-2.98115
11
5.3173
21
-2.97961
0
LINE
8
BLACK
6
CONTINUOUS
10
5.3173
20
-2.97961
11
5.31814
21
-2.97902
0
LINE
8
BLACK
6
CONTINUOUS
10
5.31814
20
-2.97902
11
5.32015
21
-2.97885
0
LINE
8
BLACK
6
CONTINUOUS
10
5.32015
20
-2.97885
11
5.3218
21
-2.98
0
LINE
8
BLACK
6
CONTINUOUS
10
5.3218
20
-2.98
11
5.32233
21
-2.98196
0
LINE
8
BLACK
6
CONTINUOUS
10
5.32233
20
-2.98196
11
5.32147
21
-2.98379
0
LINE
8
BLACK
6
CONTINUOUS
10
5.32147
20
-2.98379
11
5.3196
21
-2.98566
0
LINE
8
BLACK
6
CONTINUOUS
10
5.3196
20
-2.98566
11
5.31888
21
-2.98617
0
LINE
8
BLACK
6
CONTINUOUS
10
5.31888
20
-2.98617
11
5.31883
21
-2.98621
0
LINE
8
BLACK
6
CONTINUOUS
10
5.31883
20
-2.98621
11
5.31508
21
-2.98809
0
LINE
8
BLACK
6
CONTINUOUS
10
5.31508
20
-2.98809
11
5.3141
21
-2.98838
0
LINE
8
BLACK
6
CONTINUOUS
10
5.3141
20
-2.98838
11
5.31393
21
-2.98834
0
LINE
8
BLACK
6
CONTINUOUS
10
5.31393
20
-2.98834
11
5.31376
21
-2.9884
0
LINE
8
BLACK
6
CONTINUOUS
10
5.31376
20
-2.9884
11
5.30439
21
-2.9884
0
LINE
8
BLACK
6
CONTINUOUS
10
5.30439
20
-2.9884
11
5.30338
21
-2.98822
0
LINE
8
BLACK
6
CONTINUOUS
10
5.30338
20
-2.98822
11
5.30324
21
-2.98811
0
LINE
8
BLACK
6
CONTINUOUS
10
5.30324
20
-2.98811
11
5.30307
21
-2.98809
0
LINE
8
BLACK
6
CONTINUOUS
10
5.30307
20
-2.98809
11
5.29932
21
-2.98621
0
LINE
8
BLACK
6
CONTINUOUS
10
5.29932
20
-2.98621
11
5.29861
21
-2.98569
0
LINE
8
BLACK
6
CONTINUOUS
10
5.29861
20
-2.98569
11
5.29855
21
-2.98566
0
LINE
8
BLACK
6
CONTINUOUS
10
5.29855
20
-2.98566
11
5.29667
21
-2.98379
0
LINE
8
BLACK
6
CONTINUOUS
10
5.29667
20
-2.98379
11
5.29617
21
-2.98306
0
LINE
8
BLACK
6
CONTINUOUS
10
5.29617
20
-2.98306
11
5.29612
21
-2.98302
0
LINE
8
BLACK
6
CONTINUOUS
10
5.29612
20
-2.98302
11
5.29425
21
-2.97927
0
LINE
8
BLACK
6
CONTINUOUS
10
5.29425
20
-2.97927
11
5.29395
21
-2.97829
0
LINE
8
BLACK
6
CONTINUOUS
10
5.29395
20
-2.97829
11
5.294
21
-2.97811
0
LINE
8
BLACK
6
CONTINUOUS
10
5.294
20
-2.97811
11
5.29394
21
-2.97795
0
LINE
8
BLACK
6
CONTINUOUS
10
5.29394
20
-2.97795
11
5.29394
21
-2.96858
0
LINE
8
BLACK
6
CONTINUOUS
10
5.29394
20
-2.96858
11
5.29411
21
-2.96757
0
LINE
8
BLACK
6
CONTINUOUS
10
5.29411
20
-2.96757
11
5.29423
21
-2.96743
0
LINE
8
BLACK
6
CONTINUOUS
10
5.29423
20
-2.96743
11
5.29425
21
-2.96725
0
LINE
8
BLACK
6
CONTINUOUS
10
5.29425
20
-2.96725
11
5.29612
21
-2.96351
0
LINE
8
BLACK
6
CONTINUOUS
10
5.29612
20
-2.96351
11
5.29665
21
-2.9628
0
LINE
8
BLACK
6
CONTINUOUS
10
5.29665
20
-2.9628
11
5.29667
21
-2.96274
0
LINE
8
BLACK
6
CONTINUOUS
10
5.29667
20
-2.96274
11
5.29855
21
-2.96086
0
LINE
8
BLACK
6
CONTINUOUS
10
5.29855
20
-2.96086
11
5.29927
21
-2.96036
0
LINE
8
BLACK
6
CONTINUOUS
10
5.29927
20
-2.96036
11
5.29932
21
-2.96031
0
LINE
8
BLACK
6
CONTINUOUS
10
5.29932
20
-2.96031
11
5.30307
21
-2.95844
0
LINE
8
BLACK
6
CONTINUOUS
10
5.30307
20
-2.95844
11
5.30405
21
-2.95814
0
LINE
8
BLACK
6
CONTINUOUS
10
5.30405
20
-2.95814
11
5.30422
21
-2.95818
0
LINE
8
BLACK
6
CONTINUOUS
10
5.30422
20
-2.95818
11
5.30439
21
-2.95812
0
LINE
8
BLACK
6
CONTINUOUS
10
5.30439
20
-2.95812
11
5.31376
21
-2.95812
0
LINE
8
BLACK
6
CONTINUOUS
10
5.31376
20
-2.95812
11
5.31477
21
-2.9583
0
LINE
8
BLACK
6
CONTINUOUS
10
5.31477
20
-2.9583
11
5.31491
21
-2.95841
0
LINE
8
BLACK
6
CONTINUOUS
10
5.31491
20
-2.95841
11
5.31508
21
-2.95844
0
LINE
8
BLACK
6
CONTINUOUS
10
5.31508
20
-2.95844
11
5.31582
21
-2.9588
0
LINE
8
BLACK
6
CONTINUOUS
10
5.31582
20
-2.9588
11
5.31484
21
-2.94903
0
LINE
8
BLACK
6
CONTINUOUS
10
5.31484
20
-2.94903
11
5.29876
21
-2.94903
0
LINE
8
BLACK
6
CONTINUOUS
10
5.29876
20
-2.94903
11
5.29775
21
-2.94885
0
LINE
8
BLACK
6
CONTINUOUS
10
5.29775
20
-2.94885
11
5.29621
21
-2.94755
0
LINE
8
BLACK
6
CONTINUOUS
10
5.29621
20
-2.94755
11
5.29585
21
-2.94557
0
LINE
8
BLACK
6
CONTINUOUS
10
5.29585
20
-2.94557
11
5.29686
21
-2.94382
0
LINE
8
BLACK
6
CONTINUOUS
10
5.29686
20
-2.94382
11
5.29876
21
-2.94313
0
LINE
8
BLACK
6
CONTINUOUS
10
5.29876
20
-2.94313
11
5.31751
21
-2.94313
0
LINE
8
BLACK
6
CONTINUOUS
10
5.31751
20
-2.94313
11
5.31766
21
-2.94315
0
LINE
8
BLACK
6
CONTINUOUS
10
5.39525
20
-2.94328
11
5.39531
21
-2.94328
0
LINE
8
BLACK
6
CONTINUOUS
10
5.39531
20
-2.94328
11
5.40093
21
-2.94515
0
LINE
8
BLACK
6
CONTINUOUS
10
5.40093
20
-2.94515
11
5.40184
21
-2.94564
0
LINE
8
BLACK
6
CONTINUOUS
10
5.40184
20
-2.94564
11
5.40193
21
-2.94579
0
LINE
8
BLACK
6
CONTINUOUS
10
5.40193
20
-2.94579
11
5.40209
21
-2.94586
0
LINE
8
BLACK
6
CONTINUOUS
10
5.40209
20
-2.94586
11
5.40584
21
-2.94961
0
LINE
8
BLACK
6
CONTINUOUS
10
5.40584
20
-2.94961
11
5.40634
21
-2.95034
0
LINE
8
BLACK
6
CONTINUOUS
10
5.40634
20
-2.95034
11
5.40639
21
-2.95038
0
LINE
8
BLACK
6
CONTINUOUS
10
5.40639
20
-2.95038
11
5.40827
21
-2.95413
0
LINE
8
BLACK
6
CONTINUOUS
10
5.40827
20
-2.95413
11
5.40841
21
-2.95462
0
LINE
8
BLACK
6
CONTINUOUS
10
5.40841
20
-2.95462
11
5.40849
21
-2.95474
0
LINE
8
BLACK
6
CONTINUOUS
10
5.40849
20
-2.95474
11
5.41036
21
-2.96223
0
LINE
8
BLACK
6
CONTINUOUS
10
5.41036
20
-2.96223
11
5.41041
21
-2.96282
0
LINE
8
BLACK
6
CONTINUOUS
10
5.41041
20
-2.96282
11
5.41045
21
-2.96295
0
LINE
8
BLACK
6
CONTINUOUS
10
5.41045
20
-2.96295
11
5.41045
21
-2.96858
0
LINE
8
BLACK
6
CONTINUOUS
10
5.41045
20
-2.96858
11
5.41035
21
-2.96916
0
LINE
8
BLACK
6
CONTINUOUS
10
5.41035
20
-2.96916
11
5.41036
21
-2.96929
0
LINE
8
BLACK
6
CONTINUOUS
10
5.41036
20
-2.96929
11
5.40849
21
-2.97679
0
LINE
8
BLACK
6
CONTINUOUS
10
5.40849
20
-2.97679
11
5.40828
21
-2.97726
0
LINE
8
BLACK
6
CONTINUOUS
10
5.40828
20
-2.97726
11
5.40827
21
-2.97739
0
LINE
8
BLACK
6
CONTINUOUS
10
5.40827
20
-2.97739
11
5.40639
21
-2.98114
0
LINE
8
BLACK
6
CONTINUOUS
10
5.40639
20
-2.98114
11
5.40586
21
-2.98185
0
LINE
8
BLACK
6
CONTINUOUS
10
5.40586
20
-2.98185
11
5.40584
21
-2.98191
0
LINE
8
BLACK
6
CONTINUOUS
10
5.40584
20
-2.98191
11
5.40209
21
-2.98566
0
LINE
8
BLACK
6
CONTINUOUS
10
5.40209
20
-2.98566
11
5.40125
21
-2.98625
0
LINE
8
BLACK
6
CONTINUOUS
10
5.40125
20
-2.98625
11
5.40107
21
-2.98626
0
LINE
8
BLACK
6
CONTINUOUS
10
5.40107
20
-2.98626
11
5.40093
21
-2.98637
0
LINE
8
BLACK
6
CONTINUOUS
10
5.40093
20
-2.98637
11
5.39531
21
-2.98825
0
LINE
8
BLACK
6
CONTINUOUS
10
5.39531
20
-2.98825
11
5.39444
21
-2.98838
0
LINE
8
BLACK
6
CONTINUOUS
10
5.39444
20
-2.98838
11
5.39438
21
-2.9884
0
LINE
8
BLACK
6
CONTINUOUS
10
5.39438
20
-2.9884
11
5.39063
21
-2.9884
0
LINE
8
BLACK
6
CONTINUOUS
10
5.39063
20
-2.9884
11
5.38976
21
-2.98825
0
LINE
8
BLACK
6
CONTINUOUS
10
5.38976
20
-2.98825
11
5.38969
21
-2.98825
0
LINE
8
BLACK
6
CONTINUOUS
10
5.38969
20
-2.98825
11
5.38407
21
-2.98637
0
LINE
8
BLACK
6
CONTINUOUS
10
5.38407
20
-2.98637
11
5.38317
21
-2.98589
0
LINE
8
BLACK
6
CONTINUOUS
10
5.38317
20
-2.98589
11
5.38307
21
-2.98574
0
LINE
8
BLACK
6
CONTINUOUS
10
5.38307
20
-2.98574
11
5.38291
21
-2.98566
0
LINE
8
BLACK
6
CONTINUOUS
10
5.38291
20
-2.98566
11
5.38104
21
-2.98379
0
LINE
8
BLACK
6
CONTINUOUS
10
5.38104
20
-2.98379
11
5.38045
21
-2.98295
0
LINE
8
BLACK
6
CONTINUOUS
10
5.38045
20
-2.98295
11
5.38027
21
-2.98093
0
LINE
8
BLACK
6
CONTINUOUS
10
5.38027
20
-2.98093
11
5.38143
21
-2.97928
0
LINE
8
BLACK
6
CONTINUOUS
10
5.38143
20
-2.97928
11
5.38338
21
-2.97876
0
LINE
8
BLACK
6
CONTINUOUS
10
5.38338
20
-2.97876
11
5.38521
21
-2.97961
0
LINE
8
BLACK
6
CONTINUOUS
10
5.38521
20
-2.97961
11
5.3866
21
-2.98099
0
LINE
8
BLACK
6
CONTINUOUS
10
5.3866
20
-2.98099
11
5.39111
21
-2.9825
0
LINE
8
BLACK
6
CONTINUOUS
10
5.39111
20
-2.9825
11
5.3939
21
-2.9825
0
LINE
8
BLACK
6
CONTINUOUS
10
5.3939
20
-2.9825
11
5.3984
21
-2.98099
0
LINE
8
BLACK
6
CONTINUOUS
10
5.3984
20
-2.98099
11
5.40132
21
-2.97807
0
LINE
8
BLACK
6
CONTINUOUS
10
5.40132
20
-2.97807
11
5.40284
21
-2.97504
0
LINE
8
BLACK
6
CONTINUOUS
10
5.40284
20
-2.97504
11
5.40455
21
-2.96821
0
LINE
8
BLACK
6
CONTINUOUS
10
5.40455
20
-2.96821
11
5.40455
21
-2.96331
0
LINE
8
BLACK
6
CONTINUOUS
10
5.40455
20
-2.96331
11
5.40284
21
-2.95648
0
LINE
8
BLACK
6
CONTINUOUS
10
5.40284
20
-2.95648
11
5.40132
21
-2.95345
0
LINE
8
BLACK
6
CONTINUOUS
10
5.40132
20
-2.95345
11
5.3984
21
-2.95053
0
LINE
8
BLACK
6
CONTINUOUS
10
5.3984
20
-2.95053
11
5.3939
21
-2.94903
0
LINE
8
BLACK
6
CONTINUOUS
10
5.3939
20
-2.94903
11
5.39111
21
-2.94903
0
LINE
8
BLACK
6
CONTINUOUS
10
5.39111
20
-2.94903
11
5.3866
21
-2.95053
0
LINE
8
BLACK
6
CONTINUOUS
10
5.3866
20
-2.95053
11
5.38521
21
-2.95192
0
LINE
8
BLACK
6
CONTINUOUS
10
5.38521
20
-2.95192
11
5.38437
21
-2.9525
0
LINE
8
BLACK
6
CONTINUOUS
10
5.38437
20
-2.9525
11
5.38236
21
-2.95268
0
LINE
8
BLACK
6
CONTINUOUS
10
5.38236
20
-2.95268
11
5.38071
21
-2.95152
0
LINE
8
BLACK
6
CONTINUOUS
10
5.38071
20
-2.95152
11
5.38019
21
-2.94957
0
LINE
8
BLACK
6
CONTINUOUS
10
5.38019
20
-2.94957
11
5.38104
21
-2.94774
0
LINE
8
BLACK
6
CONTINUOUS
10
5.38104
20
-2.94774
11
5.38291
21
-2.94586
0
LINE
8
BLACK
6
CONTINUOUS
10
5.38291
20
-2.94586
11
5.38375
21
-2.94528
0
LINE
8
BLACK
6
CONTINUOUS
10
5.38375
20
-2.94528
11
5.38393
21
-2.94526
0
LINE
8
BLACK
6
CONTINUOUS
10
5.38393
20
-2.94526
11
5.38407
21
-2.94515
0
LINE
8
BLACK
6
CONTINUOUS
10
5.38407
20
-2.94515
11
5.38969
21
-2.94328
0
LINE
8
BLACK
6
CONTINUOUS
10
5.38969
20
-2.94328
11
5.39057
21
-2.94315
0
LINE
8
BLACK
6
CONTINUOUS
10
5.39057
20
-2.94315
11
5.39063
21
-2.94313
0
LINE
8
BLACK
6
CONTINUOUS
10
5.39063
20
-2.94313
11
5.39438
21
-2.94313
0
LINE
8
BLACK
6
CONTINUOUS
10
5.39438
20
-2.94313
11
5.39525
21
-2.94328
0
LINE
8
BLACK
6
CONTINUOUS
10
5.59161
20
-2.94319
11
5.59174
21
-2.94317
0
LINE
8
BLACK
6
CONTINUOUS
10
5.59174
20
-2.94317
11
5.59185
21
-2.94324
0
LINE
8
BLACK
6
CONTINUOUS
10
5.59185
20
-2.94324
11
5.59224
21
-2.9433
0
LINE
8
BLACK
6
CONTINUOUS
10
5.59224
20
-2.9433
11
5.59282
21
-2.9438
0
LINE
8
BLACK
6
CONTINUOUS
10
5.59282
20
-2.9438
11
5.59349
21
-2.94418
0
LINE
8
BLACK
6
CONTINUOUS
10
5.59349
20
-2.94418
11
5.59358
21
-2.94443
0
LINE
8
BLACK
6
CONTINUOUS
10
5.59358
20
-2.94443
11
5.59378
21
-2.9446
0
LINE
8
BLACK
6
CONTINUOUS
10
5.59378
20
-2.9446
11
5.59392
21
-2.94536
0
LINE
8
BLACK
6
CONTINUOUS
10
5.59392
20
-2.94536
11
5.59418
21
-2.94608
0
LINE
8
BLACK
6
CONTINUOUS
10
5.59418
20
-2.94608
11
5.59418
21
-2.98545
0
LINE
8
BLACK
6
CONTINUOUS
10
5.59418
20
-2.98545
11
5.59411
21
-2.98583
0
LINE
8
BLACK
6
CONTINUOUS
10
5.59411
20
-2.98583
11
5.59413
21
-2.98596
0
LINE
8
BLACK
6
CONTINUOUS
10
5.59413
20
-2.98596
11
5.59407
21
-2.98607
0
LINE
8
BLACK
6
CONTINUOUS
10
5.59407
20
-2.98607
11
5.594
21
-2.98646
0
LINE
8
BLACK
6
CONTINUOUS
10
5.594
20
-2.98646
11
5.59351
21
-2.98705
0
LINE
8
BLACK
6
CONTINUOUS
10
5.59351
20
-2.98705
11
5.59312
21
-2.98771
0
LINE
8
BLACK
6
CONTINUOUS
10
5.59312
20
-2.98771
11
5.59287
21
-2.9878
0
LINE
8
BLACK
6
CONTINUOUS
10
5.59287
20
-2.9878
11
5.5927
21
-2.98801
0
LINE
8
BLACK
6
CONTINUOUS
10
5.5927
20
-2.98801
11
5.59195
21
-2.98814
0
LINE
8
BLACK
6
CONTINUOUS
10
5.59195
20
-2.98814
11
5.59123
21
-2.9884
0
LINE
8
BLACK
6
CONTINUOUS
10
5.59123
20
-2.9884
11
5.57623
21
-2.9884
0
LINE
8
BLACK
6
CONTINUOUS
10
5.57623
20
-2.9884
11
5.57522
21
-2.98822
0
LINE
8
BLACK
6
CONTINUOUS
10
5.57522
20
-2.98822
11
5.57508
21
-2.98811
0
LINE
8
BLACK
6
CONTINUOUS
10
5.57508
20
-2.98811
11
5.57491
21
-2.98809
0
LINE
8
BLACK
6
CONTINUOUS
10
5.57491
20
-2.98809
11
5.57116
21
-2.98621
0
LINE
8
BLACK
6
CONTINUOUS
10
5.57116
20
-2.98621
11
5.57045
21
-2.98569
0
LINE
8
BLACK
6
CONTINUOUS
10
5.57045
20
-2.98569
11
5.57039
21
-2.98566
0
LINE
8
BLACK
6
CONTINUOUS
10
5.57039
20
-2.98566
11
5.56852
21
-2.98379
0
LINE
8
BLACK
6
CONTINUOUS
10
5.56852
20
-2.98379
11
5.56801
21
-2.98306
0
LINE
8
BLACK
6
CONTINUOUS
10
5.56801
20
-2.98306
11
5.56796
21
-2.98302
0
LINE
8
BLACK
6
CONTINUOUS
10
5.56796
20
-2.98302
11
5.56609
21
-2.97927
0
LINE
8
BLACK
6
CONTINUOUS
10
5.56609
20
-2.97927
11
5.5658
21
-2.97829
0
LINE
8
BLACK
6
CONTINUOUS
10
5.5658
20
-2.97829
11
5.56584
21
-2.97811
0
LINE
8
BLACK
6
CONTINUOUS
10
5.56584
20
-2.97811
11
5.56578
21
-2.97795
0
LINE
8
BLACK
6
CONTINUOUS
10
5.56578
20
-2.97795
11
5.56578
21
-2.97232
0
LINE
8
BLACK
6
CONTINUOUS
10
5.56578
20
-2.97232
11
5.56595
21
-2.97131
0
LINE
8
BLACK
6
CONTINUOUS
10
5.56595
20
-2.97131
11
5.56607
21
-2.97118
0
LINE
8
BLACK
6
CONTINUOUS
10
5.56607
20
-2.97118
11
5.56609
21
-2.971
0
LINE
8
BLACK
6
CONTINUOUS
10
5.56609
20
-2.971
11
5.56796
21
-2.96725
0
LINE
8
BLACK
6
CONTINUOUS
10
5.56796
20
-2.96725
11
5.56849
21
-2.96655
0
LINE
8
BLACK
6
CONTINUOUS
10
5.56849
20
-2.96655
11
5.56852
21
-2.96649
0
LINE
8
BLACK
6
CONTINUOUS
10
5.56852
20
-2.96649
11
5.57039
21
-2.96461
0
LINE
8
BLACK
6
CONTINUOUS
10
5.57039
20
-2.96461
11
5.57123
21
-2.96402
0
LINE
8
BLACK
6
CONTINUOUS
10
5.57123
20
-2.96402
11
5.57125
21
-2.96402
0
LINE
8
BLACK
6
CONTINUOUS
10
5.57125
20
-2.96402
11
5.57039
21
-2.96316
0
LINE
8
BLACK
6
CONTINUOUS
10
5.57039
20
-2.96316
11
5.56988
21
-2.96244
0
LINE
8
BLACK
6
CONTINUOUS
10
5.56988
20
-2.96244
11
5.56984
21
-2.9624
0
LINE
8
BLACK
6
CONTINUOUS
10
5.56984
20
-2.9624
11
5.56796
21
-2.95865
0
LINE
8
BLACK
6
CONTINUOUS
10
5.56796
20
-2.95865
11
5.56767
21
-2.95766
0
LINE
8
BLACK
6
CONTINUOUS
10
5.56767
20
-2.95766
11
5.56771
21
-2.95749
0
LINE
8
BLACK
6
CONTINUOUS
10
5.56771
20
-2.95749
11
5.56765
21
-2.95733
0
LINE
8
BLACK
6
CONTINUOUS
10
5.56765
20
-2.95733
11
5.56765
21
-2.95358
0
LINE
8
BLACK
6
CONTINUOUS
10
5.56765
20
-2.95358
11
5.56783
21
-2.95257
0
LINE
8
BLACK
6
CONTINUOUS
10
5.56783
20
-2.95257
11
5.56794
21
-2.95243
0
LINE
8
BLACK
6
CONTINUOUS
10
5.56794
20
-2.95243
11
5.56796
21
-2.95226
0
LINE
8
BLACK
6
CONTINUOUS
10
5.56796
20
-2.95226
11
5.56984
21
-2.94851
0
LINE
8
BLACK
6
CONTINUOUS
10
5.56984
20
-2.94851
11
5.57036
21
-2.9478
0
LINE
8
BLACK
6
CONTINUOUS
10
5.57036
20
-2.9478
11
5.57039
21
-2.94774
0
LINE
8
BLACK
6
CONTINUOUS
10
5.57039
20
-2.94774
11
5.57227
21
-2.94586
0
LINE
8
BLACK
6
CONTINUOUS
10
5.57227
20
-2.94586
11
5.57299
21
-2.94536
0
LINE
8
BLACK
6
CONTINUOUS
10
5.57299
20
-2.94536
11
5.57303
21
-2.94531
0
LINE
8
BLACK
6
CONTINUOUS
10
5.57303
20
-2.94531
11
5.57678
21
-2.94344
0
LINE
8
BLACK
6
CONTINUOUS
10
5.57678
20
-2.94344
11
5.57777
21
-2.94314
0
LINE
8
BLACK
6
CONTINUOUS
10
5.57777
20
-2.94314
11
5.57794
21
-2.94319
0
LINE
8
BLACK
6
CONTINUOUS
10
5.57794
20
-2.94319
11
5.5781
21
-2.94313
0
LINE
8
BLACK
6
CONTINUOUS
10
5.5781
20
-2.94313
11
5.59123
21
-2.94313
0
LINE
8
BLACK
6
CONTINUOUS
10
5.59123
20
-2.94313
11
5.59161
21
-2.94319
0
LINE
8
BLACK
6
CONTINUOUS
10
5.57858
20
-2.96778
11
5.57407
21
-2.96928
0
LINE
8
BLACK
6
CONTINUOUS
10
5.57407
20
-2.96928
11
5.57303
21
-2.97032
0
LINE
8
BLACK
6
CONTINUOUS
10
5.57303
20
-2.97032
11
5.57168
21
-2.97302
0
LINE
8
BLACK
6
CONTINUOUS
10
5.57168
20
-2.97302
11
5.57168
21
-2.97725
0
LINE
8
BLACK
6
CONTINUOUS
10
5.57168
20
-2.97725
11
5.57303
21
-2.97995
0
LINE
8
BLACK
6
CONTINUOUS
10
5.57303
20
-2.97995
11
5.57423
21
-2.98115
0
LINE
8
BLACK
6
CONTINUOUS
10
5.57423
20
-2.98115
11
5.57693
21
-2.9825
0
LINE
8
BLACK
6
CONTINUOUS
10
5.57693
20
-2.9825
11
5.58827
21
-2.9825
0
LINE
8
BLACK
6
CONTINUOUS
10
5.58827
20
-2.9825
11
5.58827
21
-2.96778
0
LINE
8
BLACK
6
CONTINUOUS
10
5.58827
20
-2.96778
11
5.57858
21
-2.96778
0
LINE
8
BLACK
6
CONTINUOUS
10
5.5788
20
-2.94903
11
5.5761
21
-2.95038
0
LINE
8
BLACK
6
CONTINUOUS
10
5.5761
20
-2.95038
11
5.57491
21
-2.95158
0
LINE
8
BLACK
6
CONTINUOUS
10
5.57491
20
-2.95158
11
5.57356
21
-2.95427
0
LINE
8
BLACK
6
CONTINUOUS
10
5.57356
20
-2.95427
11
5.57356
21
-2.95663
0
LINE
8
BLACK
6
CONTINUOUS
10
5.57356
20
-2.95663
11
5.57491
21
-2.95933
0
LINE
8
BLACK
6
CONTINUOUS
10
5.57491
20
-2.95933
11
5.5761
21
-2.96052
0
LINE
8
BLACK
6
CONTINUOUS
10
5.5761
20
-2.96052
11
5.5788
21
-2.96187
0
LINE
8
BLACK
6
CONTINUOUS
10
5.5788
20
-2.96187
11
5.58827
21
-2.96187
0
LINE
8
BLACK
6
CONTINUOUS
10
5.58827
20
-2.96187
11
5.58827
21
-2.94903
0
LINE
8
BLACK
6
CONTINUOUS
10
5.58827
20
-2.94903
11
5.5788
21
-2.94903
0
LINE
8
BLACK
6
CONTINUOUS
10
5.55662
20
-2.9433
11
5.55816
21
-2.9446
0
LINE
8
BLACK
6
CONTINUOUS
10
5.55816
20
-2.9446
11
5.55851
21
-2.94659
0
LINE
8
BLACK
6
CONTINUOUS
10
5.55851
20
-2.94659
11
5.5575
21
-2.94834
0
LINE
8
BLACK
6
CONTINUOUS
10
5.5575
20
-2.94834
11
5.55561
21
-2.94903
0
LINE
8
BLACK
6
CONTINUOUS
10
5.55561
20
-2.94903
11
5.53488
21
-2.94903
0
LINE
8
BLACK
6
CONTINUOUS
10
5.53488
20
-2.94903
11
5.55806
21
-2.98381
0
LINE
8
BLACK
6
CONTINUOUS
10
5.55806
20
-2.98381
11
5.55812
21
-2.98393
0
LINE
8
BLACK
6
CONTINUOUS
10
5.55812
20
-2.98393
11
5.55816
21
-2.98397
0
LINE
8
BLACK
6
CONTINUOUS
10
5.55816
20
-2.98397
11
5.55818
21
-2.98408
0
LINE
8
BLACK
6
CONTINUOUS
10
5.55818
20
-2.98408
11
5.55847
21
-2.98475
0
LINE
8
BLACK
6
CONTINUOUS
10
5.55847
20
-2.98475
11
5.55841
21
-2.98536
0
LINE
8
BLACK
6
CONTINUOUS
10
5.55841
20
-2.98536
11
5.55851
21
-2.98596
0
LINE
8
BLACK
6
CONTINUOUS
10
5.55851
20
-2.98596
11
5.5583
21
-2.98633
0
LINE
8
BLACK
6
CONTINUOUS
10
5.5583
20
-2.98633
11
5.55825
21
-2.98676
0
LINE
8
BLACK
6
CONTINUOUS
10
5.55825
20
-2.98676
11
5.55781
21
-2.98718
0
LINE
8
BLACK
6
CONTINUOUS
10
5.55781
20
-2.98718
11
5.5575
21
-2.98771
0
LINE
8
BLACK
6
CONTINUOUS
10
5.5575
20
-2.98771
11
5.5571
21
-2.98786
0
LINE
8
BLACK
6
CONTINUOUS
10
5.5571
20
-2.98786
11
5.55679
21
-2.98815
0
LINE
8
BLACK
6
CONTINUOUS
10
5.55679
20
-2.98815
11
5.55618
21
-2.98819
0
LINE
8
BLACK
6
CONTINUOUS
10
5.55618
20
-2.98819
11
5.55561
21
-2.9884
0
LINE
8
BLACK
6
CONTINUOUS
10
5.55561
20
-2.9884
11
5.52936
21
-2.9884
0
LINE
8
BLACK
6
CONTINUOUS
10
5.52936
20
-2.9884
11
5.52835
21
-2.98822
0
LINE
8
BLACK
6
CONTINUOUS
10
5.52835
20
-2.98822
11
5.5268
21
-2.98692
0
LINE
8
BLACK
6
CONTINUOUS
10
5.5268
20
-2.98692
11
5.52645
21
-2.98494
0
LINE
8
BLACK
6
CONTINUOUS
10
5.52645
20
-2.98494
11
5.52746
21
-2.98319
0
LINE
8
BLACK
6
CONTINUOUS
10
5.52746
20
-2.98319
11
5.52936
21
-2.9825
0
LINE
8
BLACK
6
CONTINUOUS
10
5.52936
20
-2.9825
11
5.55009
21
-2.9825
0
LINE
8
BLACK
6
CONTINUOUS
10
5.55009
20
-2.9825
11
5.5269
21
-2.94772
0
LINE
8
BLACK
6
CONTINUOUS
10
5.5269
20
-2.94772
11
5.52685
21
-2.94759
0
LINE
8
BLACK
6
CONTINUOUS
10
5.52685
20
-2.94759
11
5.5268
21
-2.94755
0
LINE
8
BLACK
6
CONTINUOUS
10
5.5268
20
-2.94755
11
5.52678
21
-2.94744
0
LINE
8
BLACK
6
CONTINUOUS
10
5.52678
20
-2.94744
11
5.52649
21
-2.94678
0
LINE
8
BLACK
6
CONTINUOUS
10
5.52649
20
-2.94678
11
5.52656
21
-2.94617
0
LINE
8
BLACK
6
CONTINUOUS
10
5.52656
20
-2.94617
11
5.52645
21
-2.94557
0
LINE
8
BLACK
6
CONTINUOUS
10
5.52645
20
-2.94557
11
5.52666
21
-2.94519
0
LINE
8
BLACK
6
CONTINUOUS
10
5.52666
20
-2.94519
11
5.52671
21
-2.94477
0
LINE
8
BLACK
6
CONTINUOUS
10
5.52671
20
-2.94477
11
5.52715
21
-2.94435
0
LINE
8
BLACK
6
CONTINUOUS
10
5.52715
20
-2.94435
11
5.52746
21
-2.94382
0
LINE
8
BLACK
6
CONTINUOUS
10
5.52746
20
-2.94382
11
5.52786
21
-2.94367
0
LINE
8
BLACK
6
CONTINUOUS
10
5.52786
20
-2.94367
11
5.52817
21
-2.94337
0
LINE
8
BLACK
6
CONTINUOUS
10
5.52817
20
-2.94337
11
5.52878
21
-2.94333
0
LINE
8
BLACK
6
CONTINUOUS
10
5.52878
20
-2.94333
11
5.52936
21
-2.94313
0
LINE
8
BLACK
6
CONTINUOUS
10
5.52936
20
-2.94313
11
5.55561
21
-2.94313
0
LINE
8
BLACK
6
CONTINUOUS
10
5.55561
20
-2.94313
11
5.55662
21
-2.9433
0
LINE
8
BLACK
6
CONTINUOUS
10
5.48077
20
-2.94315
11
5.48084
21
-2.94313
0
LINE
8
BLACK
6
CONTINUOUS
10
5.48084
20
-2.94313
11
5.48095
21
-2.94318
0
LINE
8
BLACK
6
CONTINUOUS
10
5.48095
20
-2.94318
11
5.48162
21
-2.9433
0
LINE
8
BLACK
6
CONTINUOUS
10
5.48162
20
-2.9433
11
5.48211
21
-2.94371
0
LINE
8
BLACK
6
CONTINUOUS
10
5.48211
20
-2.94371
11
5.48268
21
-2.94396
0
LINE
8
BLACK
6
CONTINUOUS
10
5.48268
20
-2.94396
11
5.48286
21
-2.94434
0
LINE
8
BLACK
6
CONTINUOUS
10
5.48286
20
-2.94434
11
5.48317
21
-2.9446
0
LINE
8
BLACK
6
CONTINUOUS
10
5.48317
20
-2.9446
11
5.48328
21
-2.94522
0
LINE
8
BLACK
6
CONTINUOUS
10
5.48328
20
-2.94522
11
5.48355
21
-2.94578
0
LINE
8
BLACK
6
CONTINUOUS
10
5.48355
20
-2.94578
11
5.48543
21
-2.96453
0
LINE
8
BLACK
6
CONTINUOUS
10
5.48543
20
-2.96453
11
5.48535
21
-2.96555
0
LINE
8
BLACK
6
CONTINUOUS
10
5.48535
20
-2.96555
11
5.48534
21
-2.96557
0
LINE
8
BLACK
6
CONTINUOUS
10
5.48534
20
-2.96557
11
5.48534
21
-2.96559
0
LINE
8
BLACK
6
CONTINUOUS
10
5.48534
20
-2.96559
11
5.48477
21
-2.9664
0
LINE
8
BLACK
6
CONTINUOUS
10
5.48477
20
-2.9664
11
5.48421
21
-2.96722
0
LINE
8
BLACK
6
CONTINUOUS
10
5.48421
20
-2.96722
11
5.48419
21
-2.96723
0
LINE
8
BLACK
6
CONTINUOUS
10
5.48419
20
-2.96723
11
5.48418
21
-2.96724
0
LINE
8
BLACK
6
CONTINUOUS
10
5.48418
20
-2.96724
11
5.48322
21
-2.9675
0
LINE
8
BLACK
6
CONTINUOUS
10
5.48322
20
-2.9675
11
5.48227
21
-2.96777
0
LINE
8
BLACK
6
CONTINUOUS
10
5.48227
20
-2.96777
11
5.48225
21
-2.96776
0
LINE
8
BLACK
6
CONTINUOUS
10
5.48225
20
-2.96776
11
5.48223
21
-2.96777
0
LINE
8
BLACK
6
CONTINUOUS
10
5.48223
20
-2.96777
11
5.48133
21
-2.96735
0
LINE
8
BLACK
6
CONTINUOUS
10
5.48133
20
-2.96735
11
5.48043
21
-2.96694
0
LINE
8
BLACK
6
CONTINUOUS
10
5.48043
20
-2.96694
11
5.48042
21
-2.96692
0
LINE
8
BLACK
6
CONTINUOUS
10
5.48042
20
-2.96692
11
5.4804
21
-2.96691
0
LINE
8
BLACK
6
CONTINUOUS
10
5.4804
20
-2.96691
11
5.47887
21
-2.96538
0
LINE
8
BLACK
6
CONTINUOUS
10
5.47887
20
-2.96538
11
5.47617
21
-2.96403
0
LINE
8
BLACK
6
CONTINUOUS
10
5.47617
20
-2.96403
11
5.46819
21
-2.96403
0
LINE
8
BLACK
6
CONTINUOUS
10
5.46819
20
-2.96403
11
5.46549
21
-2.96538
0
LINE
8
BLACK
6
CONTINUOUS
10
5.46549
20
-2.96538
11
5.46429
21
-2.96657
0
LINE
8
BLACK
6
CONTINUOUS
10
5.46429
20
-2.96657
11
5.46295
21
-2.96927
0
LINE
8
BLACK
6
CONTINUOUS
10
5.46295
20
-2.96927
11
5.46295
21
-2.97725
0
LINE
8
BLACK
6
CONTINUOUS
10
5.46295
20
-2.97725
11
5.46429
21
-2.97995
0
LINE
8
BLACK
6
CONTINUOUS
10
5.46429
20
-2.97995
11
5.46549
21
-2.98115
0
LINE
8
BLACK
6
CONTINUOUS
10
5.46549
20
-2.98115
11
5.46819
21
-2.9825
0
LINE
8
BLACK
6
CONTINUOUS
10
5.46819
20
-2.9825
11
5.47617
21
-2.9825
0
LINE
8
BLACK
6
CONTINUOUS
10
5.47617
20
-2.9825
11
5.47887
21
-2.98115
0
LINE
8
BLACK
6
CONTINUOUS
10
5.47887
20
-2.98115
11
5.4804
21
-2.97961
0
LINE
8
BLACK
6
CONTINUOUS
10
5.4804
20
-2.97961
11
5.48124
21
-2.97902
0
LINE
8
BLACK
6
CONTINUOUS
10
5.48124
20
-2.97902
11
5.48325
21
-2.97885
0
LINE
8
BLACK
6
CONTINUOUS
10
5.48325
20
-2.97885
11
5.48491
21
-2.98
0
LINE
8
BLACK
6
CONTINUOUS
10
5.48491
20
-2.98
11
5.48543
21
-2.98196
0
LINE
8
BLACK
6
CONTINUOUS
10
5.48543
20
-2.98196
11
5.48458
21
-2.98379
0
LINE
8
BLACK
6
CONTINUOUS
10
5.48458
20
-2.98379
11
5.4827
21
-2.98566
0
LINE
8
BLACK
6
CONTINUOUS
10
5.4827
20
-2.98566
11
5.48198
21
-2.98617
0
LINE
8
BLACK
6
CONTINUOUS
10
5.48198
20
-2.98617
11
5.48194
21
-2.98621
0
LINE
8
BLACK
6
CONTINUOUS
10
5.48194
20
-2.98621
11
5.47819
21
-2.98809
0
LINE
8
BLACK
6
CONTINUOUS
10
5.47819
20
-2.98809
11
5.4772
21
-2.98838
0
LINE
8
BLACK
6
CONTINUOUS
10
5.4772
20
-2.98838
11
5.47703
21
-2.98834
0
LINE
8
BLACK
6
CONTINUOUS
10
5.47703
20
-2.98834
11
5.47687
21
-2.9884
0
LINE
8
BLACK
6
CONTINUOUS
10
5.47687
20
-2.9884
11
5.46749
21
-2.9884
0
LINE
8
BLACK
6
CONTINUOUS
10
5.46749
20
-2.9884
11
5.46648
21
-2.98822
0
LINE
8
BLACK
6
CONTINUOUS
10
5.46648
20
-2.98822
11
5.46635
21
-2.98811
0
LINE
8
BLACK
6
CONTINUOUS
10
5.46635
20
-2.98811
11
5.46617
21
-2.98809
0
LINE
8
BLACK
6
CONTINUOUS
10
5.46617
20
-2.98809
11
5.46242
21
-2.98621
0
LINE
8
BLACK
6
CONTINUOUS
10
5.46242
20
-2.98621
11
5.46171
21
-2.98569
0
LINE
8
BLACK
6
CONTINUOUS
10
5.46171
20
-2.98569
11
5.46165
21
-2.98566
0
LINE
8
BLACK
6
CONTINUOUS
10
5.46165
20
-2.98566
11
5.45978
21
-2.98379
0
LINE
8
BLACK
6
CONTINUOUS
10
5.45978
20
-2.98379
11
5.45927
21
-2.98306
0
LINE
8
BLACK
6
CONTINUOUS
10
5.45927
20
-2.98306
11
5.45923
21
-2.98302
0
LINE
8
BLACK
6
CONTINUOUS
10
5.45923
20
-2.98302
11
5.45735
21
-2.97927
0
LINE
8
BLACK
6
CONTINUOUS
10
5.45735
20
-2.97927
11
5.45706
21
-2.97829
0
LINE
8
BLACK
6
CONTINUOUS
10
5.45706
20
-2.97829
11
5.4571
21
-2.97811
0
LINE
8
BLACK
6
CONTINUOUS
10
5.4571
20
-2.97811
11
5.45704
21
-2.97795
0
LINE
8
BLACK
6
CONTINUOUS
10
5.45704
20
-2.97795
11
5.45704
21
-2.96858
0
LINE
8
BLACK
6
CONTINUOUS
10
5.45704
20
-2.96858
11
5.45722
21
-2.96757
0
LINE
8
BLACK
6
CONTINUOUS
10
5.45722
20
-2.96757
11
5.45733
21
-2.96743
0
LINE
8
BLACK
6
CONTINUOUS
10
5.45733
20
-2.96743
11
5.45735
21
-2.96725
0
LINE
8
BLACK
6
CONTINUOUS
10
5.45735
20
-2.96725
11
5.45923
21
-2.96351
0
LINE
8
BLACK
6
CONTINUOUS
10
5.45923
20
-2.96351
11
5.45975
21
-2.9628
0
LINE
8
BLACK
6
CONTINUOUS
10
5.45975
20
-2.9628
11
5.45978
21
-2.96274
0
LINE
8
BLACK
6
CONTINUOUS
10
5.45978
20
-2.96274
11
5.46165
21
-2.96086
0
LINE
8
BLACK
6
CONTINUOUS
10
5.46165
20
-2.96086
11
5.46238
21
-2.96036
0
LINE
8
BLACK
6
CONTINUOUS
10
5.46238
20
-2.96036
11
5.46242
21
-2.96031
0
LINE
8
BLACK
6
CONTINUOUS
10
5.46242
20
-2.96031
11
5.46617
21
-2.95844
0
LINE
8
BLACK
6
CONTINUOUS
10
5.46617
20
-2.95844
11
5.46715
21
-2.95814
0
LINE
8
BLACK
6
CONTINUOUS
10
5.46715
20
-2.95814
11
5.46733
21
-2.95818
0
LINE
8
BLACK
6
CONTINUOUS
10
5.46733
20
-2.95818
11
5.46749
21
-2.95812
0
LINE
8
BLACK
6
CONTINUOUS
10
5.46749
20
-2.95812
11
5.47687
21
-2.95812
0
LINE
8
BLACK
6
CONTINUOUS
10
5.47687
20
-2.95812
11
5.47788
21
-2.9583
0
LINE
8
BLACK
6
CONTINUOUS
10
5.47788
20
-2.9583
11
5.47801
21
-2.95841
0
LINE
8
BLACK
6
CONTINUOUS
10
5.47801
20
-2.95841
11
5.47819
21
-2.95844
0
LINE
8
BLACK
6
CONTINUOUS
10
5.47819
20
-2.95844
11
5.47892
21
-2.9588
0
LINE
8
BLACK
6
CONTINUOUS
10
5.47892
20
-2.9588
11
5.47794
21
-2.94903
0
LINE
8
BLACK
6
CONTINUOUS
10
5.47794
20
-2.94903
11
5.46187
21
-2.94903
0
LINE
8
BLACK
6
CONTINUOUS
10
5.46187
20
-2.94903
11
5.46086
21
-2.94885
0
LINE
8
BLACK
6
CONTINUOUS
10
5.46086
20
-2.94885
11
5.45931
21
-2.94755
0
LINE
8
BLACK
6
CONTINUOUS
10
5.45931
20
-2.94755
11
5.45896
21
-2.94557
0
LINE
8
BLACK
6
CONTINUOUS
10
5.45896
20
-2.94557
11
5.45997
21
-2.94382
0
LINE
8
BLACK
6
CONTINUOUS
10
5.45997
20
-2.94382
11
5.46187
21
-2.94313
0
LINE
8
BLACK
6
CONTINUOUS
10
5.46187
20
-2.94313
11
5.48061
21
-2.94313
0
LINE
8
BLACK
6
CONTINUOUS
10
5.48061
20
-2.94313
11
5.48077
21
-2.94315
0
LINE
8
BLACK
6
CONTINUOUS
10
5.44327
20
-2.94315
11
5.44334
21
-2.94313
0
LINE
8
BLACK
6
CONTINUOUS
10
5.44334
20
-2.94313
11
5.44345
21
-2.94318
0
LINE
8
BLACK
6
CONTINUOUS
10
5.44345
20
-2.94318
11
5.44413
21
-2.9433
0
LINE
8
BLACK
6
CONTINUOUS
10
5.44413
20
-2.9433
11
5.44461
21
-2.94371
0
LINE
8
BLACK
6
CONTINUOUS
10
5.44461
20
-2.94371
11
5.44518
21
-2.94396
0
LINE
8
BLACK
6
CONTINUOUS
10
5.44518
20
-2.94396
11
5.44536
21
-2.94434
0
LINE
8
BLACK
6
CONTINUOUS
10
5.44536
20
-2.94434
11
5.44568
21
-2.9446
0
LINE
8
BLACK
6
CONTINUOUS
10
5.44568
20
-2.9446
11
5.44579
21
-2.94522
0
LINE
8
BLACK
6
CONTINUOUS
10
5.44579
20
-2.94522
11
5.44606
21
-2.94578
0
LINE
8
BLACK
6
CONTINUOUS
10
5.44606
20
-2.94578
11
5.44793
21
-2.96453
0
LINE
8
BLACK
6
CONTINUOUS
10
5.44793
20
-2.96453
11
5.44786
21
-2.96555
0
LINE
8
BLACK
6
CONTINUOUS
10
5.44786
20
-2.96555
11
5.44784
21
-2.96557
0
LINE
8
BLACK
6
CONTINUOUS
10
5.44784
20
-2.96557
11
5.44785
21
-2.96559
0
LINE
8
BLACK
6
CONTINUOUS
10
5.44785
20
-2.96559
11
5.44728
21
-2.9664
0
LINE
8
BLACK
6
CONTINUOUS
10
5.44728
20
-2.9664
11
5.44672
21
-2.96722
0
LINE
8
BLACK
6
CONTINUOUS
10
5.44672
20
-2.96722
11
5.4467
21
-2.96723
0
LINE
8
BLACK
6
CONTINUOUS
10
5.4467
20
-2.96723
11
5.44669
21
-2.96724
0
LINE
8
BLACK
6
CONTINUOUS
10
5.44669
20
-2.96724
11
5.44573
21
-2.9675
0
LINE
8
BLACK
6
CONTINUOUS
10
5.44573
20
-2.9675
11
5.44477
21
-2.96777
0
LINE
8
BLACK
6
CONTINUOUS
10
5.44477
20
-2.96777
11
5.44476
21
-2.96776
0
LINE
8
BLACK
6
CONTINUOUS
10
5.44476
20
-2.96776
11
5.44474
21
-2.96777
0
LINE
8
BLACK
6
CONTINUOUS
10
5.44474
20
-2.96777
11
5.44384
21
-2.96735
0
LINE
8
BLACK
6
CONTINUOUS
10
5.44384
20
-2.96735
11
5.44293
21
-2.96694
0
LINE
8
BLACK
6
CONTINUOUS
10
5.44293
20
-2.96694
11
5.44292
21
-2.96692
0
LINE
8
BLACK
6
CONTINUOUS
10
5.44292
20
-2.96692
11
5.44291
21
-2.96691
0
LINE
8
BLACK
6
CONTINUOUS
10
5.44291
20
-2.96691
11
5.44137
21
-2.96538
0
LINE
8
BLACK
6
CONTINUOUS
10
5.44137
20
-2.96538
11
5.43867
21
-2.96403
0
LINE
8
BLACK
6
CONTINUOUS
10
5.43867
20
-2.96403
11
5.43069
21
-2.96403
0
LINE
8
BLACK
6
CONTINUOUS
10
5.43069
20
-2.96403
11
5.428
21
-2.96538
0
LINE
8
BLACK
6
CONTINUOUS
10
5.428
20
-2.96538
11
5.4268
21
-2.96657
0
LINE
8
BLACK
6
CONTINUOUS
10
5.4268
20
-2.96657
11
5.42545
21
-2.96927
0
LINE
8
BLACK
6
CONTINUOUS
10
5.42545
20
-2.96927
11
5.42545
21
-2.97725
0
LINE
8
BLACK
6
CONTINUOUS
10
5.42545
20
-2.97725
11
5.4268
21
-2.97995
0
LINE
8
BLACK
6
CONTINUOUS
10
5.4268
20
-2.97995
11
5.428
21
-2.98115
0
LINE
8
BLACK
6
CONTINUOUS
10
5.428
20
-2.98115
11
5.43069
21
-2.9825
0
LINE
8
BLACK
6
CONTINUOUS
10
5.43069
20
-2.9825
11
5.43867
21
-2.9825
0
LINE
8
BLACK
6
CONTINUOUS
10
5.43867
20
-2.9825
11
5.44137
21
-2.98115
0
LINE
8
BLACK
6
CONTINUOUS
10
5.44137
20
-2.98115
11
5.44291
21
-2.97961
0
LINE
8
BLACK
6
CONTINUOUS
10
5.44291
20
-2.97961
11
5.44375
21
-2.97902
0
LINE
8
BLACK
6
CONTINUOUS
10
5.44375
20
-2.97902
11
5.44576
21
-2.97885
0
LINE
8
BLACK
6
CONTINUOUS
10
5.44576
20
-2.97885
11
5.44741
21
-2.98
0
LINE
8
BLACK
6
CONTINUOUS
10
5.44741
20
-2.98
11
5.44794
21
-2.98196
0
LINE
8
BLACK
6
CONTINUOUS
10
5.44794
20
-2.98196
11
5.44708
21
-2.98379
0
LINE
8
BLACK
6
CONTINUOUS
10
5.44708
20
-2.98379
11
5.44521
21
-2.98566
0
LINE
8
BLACK
6
CONTINUOUS
10
5.44521
20
-2.98566
11
5.44448
21
-2.98617
0
LINE
8
BLACK
6
CONTINUOUS
10
5.44448
20
-2.98617
11
5.44444
21
-2.98621
0
LINE
8
BLACK
6
CONTINUOUS
10
5.44444
20
-2.98621
11
5.44069
21
-2.98809
0
LINE
8
BLACK
6
CONTINUOUS
10
5.44069
20
-2.98809
11
5.43971
21
-2.98838
0
LINE
8
BLACK
6
CONTINUOUS
10
5.43971
20
-2.98838
11
5.43954
21
-2.98834
0
LINE
8
BLACK
6
CONTINUOUS
10
5.43954
20
-2.98834
11
5.43937
21
-2.9884
0
LINE
8
BLACK
6
CONTINUOUS
10
5.43937
20
-2.9884
11
5.43
21
-2.9884
0
LINE
8
BLACK
6
CONTINUOUS
10
5.43
20
-2.9884
11
5.42899
21
-2.98822
0
LINE
8
BLACK
6
CONTINUOUS
10
5.42899
20
-2.98822
11
5.42885
21
-2.98811
0
LINE
8
BLACK
6
CONTINUOUS
10
5.42885
20
-2.98811
11
5.42868
21
-2.98809
0
LINE
8
BLACK
6
CONTINUOUS
10
5.42868
20
-2.98809
11
5.42493
21
-2.98621
0
LINE
8
BLACK
6
CONTINUOUS
10
5.42493
20
-2.98621
11
5.42422
21
-2.98569
0
LINE
8
BLACK
6
CONTINUOUS
10
5.42422
20
-2.98569
11
5.42416
21
-2.98566
0
LINE
8
BLACK
6
CONTINUOUS
10
5.42416
20
-2.98566
11
5.42228
21
-2.98379
0
LINE
8
BLACK
6
CONTINUOUS
10
5.42228
20
-2.98379
11
5.42178
21
-2.98306
0
LINE
8
BLACK
6
CONTINUOUS
10
5.42178
20
-2.98306
11
5.42173
21
-2.98302
0
LINE
8
BLACK
6
CONTINUOUS
10
5.42173
20
-2.98302
11
5.41986
21
-2.97927
0
LINE
8
BLACK
6
CONTINUOUS
10
5.41986
20
-2.97927
11
5.41956
21
-2.97829
0
LINE
8
BLACK
6
CONTINUOUS
10
5.41956
20
-2.97829
11
5.4196
21
-2.97811
0
LINE
8
BLACK
6
CONTINUOUS
10
5.4196
20
-2.97811
11
5.41954
21
-2.97795
0
LINE
8
BLACK
6
CONTINUOUS
10
5.41954
20
-2.97795
11
5.41954
21
-2.96858
0
LINE
8
BLACK
6
CONTINUOUS
10
5.41954
20
-2.96858
11
5.41972
21
-2.96757
0
LINE
8
BLACK
6
CONTINUOUS
10
5.41972
20
-2.96757
11
5.41984
21
-2.96743
0
LINE
8
BLACK
6
CONTINUOUS
10
5.41984
20
-2.96743
11
5.41986
21
-2.96725
0
LINE
8
BLACK
6
CONTINUOUS
10
5.41986
20
-2.96725
11
5.42173
21
-2.96351
0
LINE
8
BLACK
6
CONTINUOUS
10
5.42173
20
-2.96351
11
5.42226
21
-2.9628
0
LINE
8
BLACK
6
CONTINUOUS
10
5.42226
20
-2.9628
11
5.42228
21
-2.96274
0
LINE
8
BLACK
6
CONTINUOUS
10
5.42228
20
-2.96274
11
5.42416
21
-2.96086
0
LINE
8
BLACK
6
CONTINUOUS
10
5.42416
20
-2.96086
11
5.42488
21
-2.96036
0
LINE
8
BLACK
6
CONTINUOUS
10
5.42488
20
-2.96036
11
5.42493
21
-2.96031
0
LINE
8
BLACK
6
CONTINUOUS
10
5.42493
20
-2.96031
11
5.42868
21
-2.95844
0
LINE
8
BLACK
6
CONTINUOUS
10
5.42868
20
-2.95844
11
5.42966
21
-2.95814
0
LINE
8
BLACK
6
CONTINUOUS
10
5.42966
20
-2.95814
11
5.42983
21
-2.95818
0
LINE
8
BLACK
6
CONTINUOUS
10
5.42983
20
-2.95818
11
5.43
21
-2.95812
0
LINE
8
BLACK
6
CONTINUOUS
10
5.43
20
-2.95812
11
5.43937
21
-2.95812
0
LINE
8
BLACK
6
CONTINUOUS
10
5.43937
20
-2.95812
11
5.44038
21
-2.9583
0
LINE
8
BLACK
6
CONTINUOUS
10
5.44038
20
-2.9583
11
5.44052
21
-2.95841
0
LINE
8
BLACK
6
CONTINUOUS
10
5.44052
20
-2.95841
11
5.44069
21
-2.95844
0
LINE
8
BLACK
6
CONTINUOUS
10
5.44069
20
-2.95844
11
5.44142
21
-2.9588
0
LINE
8
BLACK
6
CONTINUOUS
10
5.44142
20
-2.9588
11
5.44045
21
-2.94903
0
LINE
8
BLACK
6
CONTINUOUS
10
5.44045
20
-2.94903
11
5.42437
21
-2.94903
0
LINE
8
BLACK
6
CONTINUOUS
10
5.42437
20
-2.94903
11
5.42336
21
-2.94885
0
LINE
8
BLACK
6
CONTINUOUS
10
5.42336
20
-2.94885
11
5.42181
21
-2.94755
0
LINE
8
BLACK
6
CONTINUOUS
10
5.42181
20
-2.94755
11
5.42146
21
-2.94557
0
LINE
8
BLACK
6
CONTINUOUS
10
5.42146
20
-2.94557
11
5.42247
21
-2.94382
0
LINE
8
BLACK
6
CONTINUOUS
10
5.42247
20
-2.94382
11
5.42437
21
-2.94313
0
LINE
8
BLACK
6
CONTINUOUS
10
5.42437
20
-2.94313
11
5.44312
21
-2.94313
0
LINE
8
BLACK
6
CONTINUOUS
10
5.44312
20
-2.94313
11
5.44327
21
-2.94315
0
LINE
8
BLACK
6
CONTINUOUS
10
5.2529
20
-2.9433
11
5.25304
21
-2.94342
0
LINE
8
BLACK
6
CONTINUOUS
10
5.25304
20
-2.94342
11
5.25321
21
-2.94344
0
LINE
8
BLACK
6
CONTINUOUS
10
5.25321
20
-2.94344
11
5.25696
21
-2.94531
0
LINE
8
BLACK
6
CONTINUOUS
10
5.25696
20
-2.94531
11
5.25767
21
-2.94584
0
LINE
8
BLACK
6
CONTINUOUS
10
5.25767
20
-2.94584
11
5.25773
21
-2.94586
0
LINE
8
BLACK
6
CONTINUOUS
10
5.25773
20
-2.94586
11
5.25961
21
-2.94774
0
LINE
8
BLACK
6
CONTINUOUS
10
5.25961
20
-2.94774
11
5.25986
21
-2.94811
0
LINE
8
BLACK
6
CONTINUOUS
10
5.25986
20
-2.94811
11
5.25997
21
-2.94819
0
LINE
8
BLACK
6
CONTINUOUS
10
5.25997
20
-2.94819
11
5.26372
21
-2.95381
0
LINE
8
BLACK
6
CONTINUOUS
10
5.26372
20
-2.95381
11
5.26412
21
-2.95472
0
LINE
8
BLACK
6
CONTINUOUS
10
5.26412
20
-2.95472
11
5.26413
21
-2.95474
0
LINE
8
BLACK
6
CONTINUOUS
10
5.26413
20
-2.95474
11
5.26601
21
-2.96223
0
LINE
8
BLACK
6
CONTINUOUS
10
5.26601
20
-2.96223
11
5.26605
21
-2.96282
0
LINE
8
BLACK
6
CONTINUOUS
10
5.26605
20
-2.96282
11
5.26609
21
-2.96295
0
LINE
8
BLACK
6
CONTINUOUS
10
5.26609
20
-2.96295
11
5.26609
21
-2.97795
0
LINE
8
BLACK
6
CONTINUOUS
10
5.26609
20
-2.97795
11
5.26592
21
-2.97896
0
LINE
8
BLACK
6
CONTINUOUS
10
5.26592
20
-2.97896
11
5.2658
21
-2.97909
0
LINE
8
BLACK
6
CONTINUOUS
10
5.2658
20
-2.97909
11
5.26578
21
-2.97927
0
LINE
8
BLACK
6
CONTINUOUS
10
5.26578
20
-2.97927
11
5.26391
21
-2.98302
0
LINE
8
BLACK
6
CONTINUOUS
10
5.26391
20
-2.98302
11
5.26338
21
-2.98373
0
LINE
8
BLACK
6
CONTINUOUS
10
5.26338
20
-2.98373
11
5.26336
21
-2.98379
0
LINE
8
BLACK
6
CONTINUOUS
10
5.26336
20
-2.98379
11
5.26148
21
-2.98566
0
LINE
8
BLACK
6
CONTINUOUS
10
5.26148
20
-2.98566
11
5.26076
21
-2.98617
0
LINE
8
BLACK
6
CONTINUOUS
10
5.26076
20
-2.98617
11
5.26071
21
-2.98621
0
LINE
8
BLACK
6
CONTINUOUS
10
5.26071
20
-2.98621
11
5.25696
21
-2.98809
0
LINE
8
BLACK
6
CONTINUOUS
10
5.25696
20
-2.98809
11
5.25598
21
-2.98838
0
LINE
8
BLACK
6
CONTINUOUS
10
5.25598
20
-2.98838
11
5.25581
21
-2.98834
0
LINE
8
BLACK
6
CONTINUOUS
10
5.25581
20
-2.98834
11
5.25564
21
-2.9884
0
LINE
8
BLACK
6
CONTINUOUS
10
5.25564
20
-2.9884
11
5.24814
21
-2.9884
0
LINE
8
BLACK
6
CONTINUOUS
10
5.24814
20
-2.9884
11
5.24713
21
-2.98822
0
LINE
8
BLACK
6
CONTINUOUS
10
5.24713
20
-2.98822
11
5.247
21
-2.98811
0
LINE
8
BLACK
6
CONTINUOUS
10
5.247
20
-2.98811
11
5.24682
21
-2.98809
0
LINE
8
BLACK
6
CONTINUOUS
10
5.24682
20
-2.98809
11
5.24307
21
-2.98621
0
LINE
8
BLACK
6
CONTINUOUS
10
5.24307
20
-2.98621
11
5.24236
21
-2.98569
0
LINE
8
BLACK
6
CONTINUOUS
10
5.24236
20
-2.98569
11
5.24231
21
-2.98566
0
LINE
8
BLACK
6
CONTINUOUS
10
5.24231
20
-2.98566
11
5.24043
21
-2.98379
0
LINE
8
BLACK
6
CONTINUOUS
10
5.24043
20
-2.98379
11
5.23993
21
-2.98306
0
LINE
8
BLACK
6
CONTINUOUS
10
5.23993
20
-2.98306
11
5.23988
21
-2.98302
0
LINE
8
BLACK
6
CONTINUOUS
10
5.23988
20
-2.98302
11
5.238
21
-2.97927
0
LINE
8
BLACK
6
CONTINUOUS
10
5.238
20
-2.97927
11
5.23771
21
-2.97829
0
LINE
8
BLACK
6
CONTINUOUS
10
5.23771
20
-2.97829
11
5.23775
21
-2.97811
0
LINE
8
BLACK
6
CONTINUOUS
10
5.23775
20
-2.97811
11
5.23769
21
-2.97795
0
LINE
8
BLACK
6
CONTINUOUS
10
5.23769
20
-2.97795
11
5.23769
21
-2.96858
0
LINE
8
BLACK
6
CONTINUOUS
10
5.23769
20
-2.96858
11
5.23787
21
-2.96757
0
LINE
8
BLACK
6
CONTINUOUS
10
5.23787
20
-2.96757
11
5.23798
21
-2.96743
0
LINE
8
BLACK
6
CONTINUOUS
10
5.23798
20
-2.96743
11
5.238
21
-2.96725
0
LINE
8
BLACK
6
CONTINUOUS
10
5.238
20
-2.96725
11
5.23988
21
-2.96351
0
LINE
8
BLACK
6
CONTINUOUS
10
5.23988
20
-2.96351
11
5.2404
21
-2.9628
0
LINE
8
BLACK
6
CONTINUOUS
10
5.2404
20
-2.9628
11
5.24043
21
-2.96274
0
LINE
8
BLACK
6
CONTINUOUS
10
5.24043
20
-2.96274
11
5.24231
21
-2.96086
0
LINE
8
BLACK
6
CONTINUOUS
10
5.24231
20
-2.96086
11
5.24303
21
-2.96036
0
LINE
8
BLACK
6
CONTINUOUS
10
5.24303
20
-2.96036
11
5.24307
21
-2.96031
0
LINE
8
BLACK
6
CONTINUOUS
10
5.24307
20
-2.96031
11
5.24682
21
-2.95844
0
LINE
8
BLACK
6
CONTINUOUS
10
5.24682
20
-2.95844
11
5.24781
21
-2.95814
0
LINE
8
BLACK
6
CONTINUOUS
10
5.24781
20
-2.95814
11
5.24798
21
-2.95818
0
LINE
8
BLACK
6
CONTINUOUS
10
5.24798
20
-2.95818
11
5.24814
21
-2.95812
0
LINE
8
BLACK
6
CONTINUOUS
10
5.24814
20
-2.95812
11
5.25564
21
-2.95812
0
LINE
8
BLACK
6
CONTINUOUS
10
5.25564
20
-2.95812
11
5.25665
21
-2.9583
0
LINE
8
BLACK
6
CONTINUOUS
10
5.25665
20
-2.9583
11
5.25679
21
-2.95841
0
LINE
8
BLACK
6
CONTINUOUS
10
5.25679
20
-2.95841
11
5.25696
21
-2.95844
0
LINE
8
BLACK
6
CONTINUOUS
10
5.25696
20
-2.95844
11
5.25926
21
-2.95958
0
LINE
8
BLACK
6
CONTINUOUS
10
5.25926
20
-2.95958
11
5.25853
21
-2.95666
0
LINE
8
BLACK
6
CONTINUOUS
10
5.25853
20
-2.95666
11
5.25522
21
-2.95171
0
LINE
8
BLACK
6
CONTINUOUS
10
5.25522
20
-2.95171
11
5.25389
21
-2.95038
0
LINE
8
BLACK
6
CONTINUOUS
10
5.25389
20
-2.95038
11
5.2512
21
-2.94903
0
LINE
8
BLACK
6
CONTINUOUS
10
5.2512
20
-2.94903
11
5.24439
21
-2.94903
0
LINE
8
BLACK
6
CONTINUOUS
10
5.24439
20
-2.94903
11
5.24338
21
-2.94885
0
LINE
8
BLACK
6
CONTINUOUS
10
5.24338
20
-2.94885
11
5.24184
21
-2.94755
0
LINE
8
BLACK
6
CONTINUOUS
10
5.24184
20
-2.94755
11
5.24149
21
-2.94557
0
LINE
8
BLACK
6
CONTINUOUS
10
5.24149
20
-2.94557
11
5.2425
21
-2.94382
0
LINE
8
BLACK
6
CONTINUOUS
10
5.2425
20
-2.94382
11
5.24439
21
-2.94313
0
LINE
8
BLACK
6
CONTINUOUS
10
5.24439
20
-2.94313
11
5.25189
21
-2.94313
0
LINE
8
BLACK
6
CONTINUOUS
10
5.25189
20
-2.94313
11
5.2529
21
-2.9433
0
LINE
8
BLACK
6
CONTINUOUS
10
5.24884
20
-2.96403
11
5.24614
21
-2.96538
0
LINE
8
BLACK
6
CONTINUOUS
10
5.24614
20
-2.96538
11
5.24495
21
-2.96657
0
LINE
8
BLACK
6
CONTINUOUS
10
5.24495
20
-2.96657
11
5.2436
21
-2.96927
0
LINE
8
BLACK
6
CONTINUOUS
10
5.2436
20
-2.96927
11
5.2436
21
-2.97725
0
LINE
8
BLACK
6
CONTINUOUS
10
5.2436
20
-2.97725
11
5.24495
21
-2.97995
0
LINE
8
BLACK
6
CONTINUOUS
10
5.24495
20
-2.97995
11
5.24614
21
-2.98115
0
LINE
8
BLACK
6
CONTINUOUS
10
5.24614
20
-2.98115
11
5.24884
21
-2.9825
0
LINE
8
BLACK
6
CONTINUOUS
10
5.24884
20
-2.9825
11
5.25495
21
-2.9825
0
LINE
8
BLACK
6
CONTINUOUS
10
5.25495
20
-2.9825
11
5.25764
21
-2.98115
0
LINE
8
BLACK
6
CONTINUOUS
10
5.25764
20
-2.98115
11
5.25884
21
-2.97995
0
LINE
8
BLACK
6
CONTINUOUS
10
5.25884
20
-2.97995
11
5.26019
21
-2.97725
0
LINE
8
BLACK
6
CONTINUOUS
10
5.26019
20
-2.97725
11
5.26019
21
-2.96927
0
LINE
8
BLACK
6
CONTINUOUS
10
5.26019
20
-2.96927
11
5.25884
21
-2.96657
0
LINE
8
BLACK
6
CONTINUOUS
10
5.25884
20
-2.96657
11
5.25764
21
-2.96538
0
LINE
8
BLACK
6
CONTINUOUS
10
5.25764
20
-2.96538
11
5.25495
21
-2.96403
0
LINE
8
BLACK
6
CONTINUOUS
10
5.25495
20
-2.96403
11
5.24884
21
-2.96403
0
LINE
8
BLACK
6
CONTINUOUS
10
5.2047
20
-2.94356
11
5.20595
21
-2.94514
0
LINE
8
BLACK
6
CONTINUOUS
10
5.20595
20
-2.94514
11
5.21627
21
-2.97611
0
LINE
8
BLACK
6
CONTINUOUS
10
5.21627
20
-2.97611
11
5.2266
21
-2.94514
0
LINE
8
BLACK
6
CONTINUOUS
10
5.2266
20
-2.94514
11
5.22708
21
-2.94424
0
LINE
8
BLACK
6
CONTINUOUS
10
5.22708
20
-2.94424
11
5.2288
21
-2.94319
0
LINE
8
BLACK
6
CONTINUOUS
10
5.2288
20
-2.94319
11
5.2308
21
-2.94348
0
LINE
8
BLACK
6
CONTINUOUS
10
5.2308
20
-2.94348
11
5.23214
21
-2.94499
0
LINE
8
BLACK
6
CONTINUOUS
10
5.23214
20
-2.94499
11
5.2322
21
-2.94701
0
LINE
8
BLACK
6
CONTINUOUS
10
5.2322
20
-2.94701
11
5.21907
21
-2.98638
0
LINE
8
BLACK
6
CONTINUOUS
10
5.21907
20
-2.98638
11
5.21859
21
-2.98728
0
LINE
8
BLACK
6
CONTINUOUS
10
5.21859
20
-2.98728
11
5.21851
21
-2.98733
0
LINE
8
BLACK
6
CONTINUOUS
10
5.21851
20
-2.98733
11
5.21848
21
-2.98741
0
LINE
8
BLACK
6
CONTINUOUS
10
5.21848
20
-2.98741
11
5.21766
21
-2.98785
0
LINE
8
BLACK
6
CONTINUOUS
10
5.21766
20
-2.98785
11
5.21686
21
-2.98834
0
LINE
8
BLACK
6
CONTINUOUS
10
5.21686
20
-2.98834
11
5.21678
21
-2.98833
0
LINE
8
BLACK
6
CONTINUOUS
10
5.21678
20
-2.98833
11
5.21671
21
-2.98837
0
LINE
8
BLACK
6
CONTINUOUS
10
5.21671
20
-2.98837
11
5.21579
21
-2.98818
0
LINE
8
BLACK
6
CONTINUOUS
10
5.21579
20
-2.98818
11
5.21487
21
-2.98804
0
LINE
8
BLACK
6
CONTINUOUS
10
5.21487
20
-2.98804
11
5.21481
21
-2.98798
0
LINE
8
BLACK
6
CONTINUOUS
10
5.21481
20
-2.98798
11
5.21473
21
-2.98796
0
LINE
8
BLACK
6
CONTINUOUS
10
5.21473
20
-2.98796
11
5.21415
21
-2.98723
0
LINE
8
BLACK
6
CONTINUOUS
10
5.21415
20
-2.98723
11
5.21353
21
-2.98653
0
LINE
8
BLACK
6
CONTINUOUS
10
5.21353
20
-2.98653
11
5.21352
21
-2.98645
0
LINE
8
BLACK
6
CONTINUOUS
10
5.21352
20
-2.98645
11
5.21347
21
-2.98638
0
LINE
8
BLACK
6
CONTINUOUS
10
5.21347
20
-2.98638
11
5.20035
21
-2.94701
0
LINE
8
BLACK
6
CONTINUOUS
10
5.20035
20
-2.94701
11
5.2002
21
-2.946
0
LINE
8
BLACK
6
CONTINUOUS
10
5.2002
20
-2.946
11
5.20094
21
-2.94412
0
LINE
8
BLACK
6
CONTINUOUS
10
5.20094
20
-2.94412
11
5.20272
21
-2.94316
0
LINE
8
BLACK
6
CONTINUOUS
10
5.20272
20
-2.94316
11
5.2047
21
-2.94356
0
LINE
8
BLACK
6
CONTINUOUS
10
5.49528
20
-2.94356
11
5.49654
21
-2.94514
0
LINE
8
BLACK
6
CONTINUOUS
10
5.49654
20
-2.94514
11
5.50686
21
-2.97611
0
LINE
8
BLACK
6
CONTINUOUS
10
5.50686
20
-2.97611
11
5.51718
21
-2.94514
0
LINE
8
BLACK
6
CONTINUOUS
10
5.51718
20
-2.94514
11
5.51767
21
-2.94424
0
LINE
8
BLACK
6
CONTINUOUS
10
5.51767
20
-2.94424
11
5.51939
21
-2.94319
0
LINE
8
BLACK
6
CONTINUOUS
10
5.51939
20
-2.94319
11
5.52139
21
-2.94348
0
LINE
8
BLACK
6
CONTINUOUS
10
5.52139
20
-2.94348
11
5.52273
21
-2.94499
0
LINE
8
BLACK
6
CONTINUOUS
10
5.52273
20
-2.94499
11
5.52279
21
-2.94701
0
LINE
8
BLACK
6
CONTINUOUS
10
5.52279
20
-2.94701
11
5.50966
21
-2.98638
0
LINE
8
BLACK
6
CONTINUOUS
10
5.50966
20
-2.98638
11
5.50917
21
-2.98728
0
LINE
8
BLACK
6
CONTINUOUS
10
5.50917
20
-2.98728
11
5.5091
21
-2.98733
0
LINE
8
BLACK
6
CONTINUOUS
10
5.5091
20
-2.98733
11
5.50907
21
-2.98741
0
LINE
8
BLACK
6
CONTINUOUS
10
5.50907
20
-2.98741
11
5.50825
21
-2.98785
0
LINE
8
BLACK
6
CONTINUOUS
10
5.50825
20
-2.98785
11
5.50745
21
-2.98834
0
LINE
8
BLACK
6
CONTINUOUS
10
5.50745
20
-2.98834
11
5.50737
21
-2.98833
0
LINE
8
BLACK
6
CONTINUOUS
10
5.50737
20
-2.98833
11
5.50729
21
-2.98837
0
LINE
8
BLACK
6
CONTINUOUS
10
5.50729
20
-2.98837
11
5.50638
21
-2.98818
0
LINE
8
BLACK
6
CONTINUOUS
10
5.50638
20
-2.98818
11
5.50546
21
-2.98804
0
LINE
8
BLACK
6
CONTINUOUS
10
5.50546
20
-2.98804
11
5.5054
21
-2.98798
0
LINE
8
BLACK
6
CONTINUOUS
10
5.5054
20
-2.98798
11
5.50532
21
-2.98796
0
LINE
8
BLACK
6
CONTINUOUS
10
5.50532
20
-2.98796
11
5.50474
21
-2.98723
0
LINE
8
BLACK
6
CONTINUOUS
10
5.50474
20
-2.98723
11
5.50412
21
-2.98653
0
LINE
8
BLACK
6
CONTINUOUS
10
5.50412
20
-2.98653
11
5.50411
21
-2.98645
0
LINE
8
BLACK
6
CONTINUOUS
10
5.50411
20
-2.98645
11
5.50406
21
-2.98638
0
LINE
8
BLACK
6
CONTINUOUS
10
5.50406
20
-2.98638
11
5.49094
21
-2.94701
0
LINE
8
BLACK
6
CONTINUOUS
10
5.49094
20
-2.94701
11
5.49079
21
-2.946
0
LINE
8
BLACK
6
CONTINUOUS
10
5.49079
20
-2.946
11
5.49153
21
-2.94412
0
LINE
8
BLACK
6
CONTINUOUS
10
5.49153
20
-2.94412
11
5.49331
21
-2.94316
0
LINE
8
BLACK
6
CONTINUOUS
10
5.49331
20
-2.94316
11
5.49528
21
-2.94356
0
LINE
8
BLACK
6
CONTINUOUS
10
5.36726
20
-2.96768
11
5.36881
21
-2.96897
0
LINE
8
BLACK
6
CONTINUOUS
10
5.36881
20
-2.96897
11
5.36916
21
-2.97096
0
LINE
8
BLACK
6
CONTINUOUS
10
5.36916
20
-2.97096
11
5.36815
21
-2.97271
0
LINE
8
BLACK
6
CONTINUOUS
10
5.36815
20
-2.97271
11
5.36625
21
-2.9734
0
LINE
8
BLACK
6
CONTINUOUS
10
5.36625
20
-2.9734
11
5.33626
21
-2.9734
0
LINE
8
BLACK
6
CONTINUOUS
10
5.33626
20
-2.9734
11
5.33525
21
-2.97322
0
LINE
8
BLACK
6
CONTINUOUS
10
5.33525
20
-2.97322
11
5.3337
21
-2.97193
0
LINE
8
BLACK
6
CONTINUOUS
10
5.3337
20
-2.97193
11
5.33335
21
-2.96994
0
LINE
8
BLACK
6
CONTINUOUS
10
5.33335
20
-2.96994
11
5.33436
21
-2.96819
0
LINE
8
BLACK
6
CONTINUOUS
10
5.33436
20
-2.96819
11
5.33626
21
-2.9675
0
LINE
8
BLACK
6
CONTINUOUS
10
5.33626
20
-2.9675
11
5.36625
21
-2.9675
0
LINE
8
BLACK
6
CONTINUOUS
10
5.36625
20
-2.9675
11
5.36726
21
-2.96768
  0
ENDSEC
  0
EOF
