  0
SECTION
  2
HEADER
  9
$ANGBASE
  50
0.0
  9
$ANGDIR
  70
1
  9
$MEASUREMENT
  70
0
  0
ENDSEC
  0
SECTION
  2
TABLES
  0
TABLE
  2
LTYPE
  70
4
  0
LTYPE
  5
40F
  2
CONTINUOUS
  70
0
  3
Solid line
  72
65
  73
0
  40
0.0
  0
LTYPE
  5
410
  2
DASHDOT
 70
0
  3
Dash Dot ____ _ ____ _
 72
65
 73
4
 40
2.0
 49
1.25
 49
-0.25
 49
0.25
 49
-0.25
  0
LTYPE
  5
411
  2
DASHED
 70
0
  3
Dashed __ __ __ __ __
 72
65
 73
2
 40
0.75
 49
0.5
 49
-0.25
  0
LTYPE
  5
43B
  2
DOTTED
 70
0
  3
Dotted .  .  .  .
 72
65
 73
2
 40
0.2
 49
0.0
 49
-0.2
  0
ENDTAB
  0
TABLE
  2
STYLE
  70
4
  0
STYLE
  2
KICAD
  70
0
  40
0
  41
1
  42
1
  50
0
  71
0
  3
isocp.shx
  0
STYLE
  2
KICADB
  70
0
  40
0
  41
1
  42
1
  50
0
  71
0
  3
isocp.shx
  0
STYLE
  2
KICADI
  70
0
  40
0
  41
1
  42
1
  50
15
  71
0
  3
isocp.shx
  0
STYLE
  2
KICADBI
  70
0
  40
0
  41
1
  42
1
  50
15
  71
0
  3
isocp.shx
  0
ENDTAB
  0
TABLE
  2
LAYER
  70
1
  0
LAYER
  2
BLACK
  70
0
  62
7
  6
CONTINUOUS
  0
ENDTAB
  0
ENDSEC
  0
SECTION
  2
ENTITIES
0
LINE
8
BLACK
6
CONTINUOUS
10
-0.0251336
20
0.364977
11
-0.0207435
21
0.36274
0
LINE
8
BLACK
6
CONTINUOUS
10
-0.0207435
20
0.36274
11
-0.0172596
21
0.359256
0
LINE
8
BLACK
6
CONTINUOUS
10
-0.0172596
20
0.359256
11
-0.0150227
21
0.354866
0
LINE
8
BLACK
6
CONTINUOUS
10
-0.0150227
20
0.354866
11
-0.014252
21
0.35
0
LINE
8
BLACK
6
CONTINUOUS
10
-0.014252
20
0.35
11
-0.0150227
21
0.345134
0
LINE
8
BLACK
6
CONTINUOUS
10
-0.0150227
20
0.345134
11
-0.0172596
21
0.340744
0
LINE
8
BLACK
6
CONTINUOUS
10
-0.0172596
20
0.340744
11
-0.0207435
21
0.33726
0
LINE
8
BLACK
6
CONTINUOUS
10
-0.0207435
20
0.33726
11
-0.024
21
0.3356
0
LINE
8
BLACK
6
CONTINUOUS
10
-0.024
20
0.3356
11
-0.024
21
0.322485
0
LINE
8
BLACK
6
CONTINUOUS
10
-0.024
20
0.322485
11
0.0712254
21
0.22726
0
LINE
8
BLACK
6
CONTINUOUS
10
0.0712254
20
0.22726
11
0.293184
21
0.22726
0
LINE
8
BLACK
6
CONTINUOUS
10
0.293184
20
0.22726
11
0.294503
21
0.228579
0
LINE
8
BLACK
6
CONTINUOUS
10
0.294503
20
0.228579
11
0.292927
21
0.23033
0
LINE
8
BLACK
6
CONTINUOUS
10
0.292927
20
0.23033
11
0.289429
21
0.236389
0
LINE
8
BLACK
6
CONTINUOUS
10
0.289429
20
0.236389
11
0.287267
21
0.243042
0
LINE
8
BLACK
6
CONTINUOUS
10
0.287267
20
0.243042
11
0.286535
21
0.25
0
LINE
8
BLACK
6
CONTINUOUS
10
0.286535
20
0.25
11
0.287267
21
0.256958
0
LINE
8
BLACK
6
CONTINUOUS
10
0.287267
20
0.256958
11
0.289429
21
0.263611
0
LINE
8
BLACK
6
CONTINUOUS
10
0.289429
20
0.263611
11
0.292927
21
0.26967
0
LINE
8
BLACK
6
CONTINUOUS
10
0.292927
20
0.26967
11
0.297608
21
0.274869
0
LINE
8
BLACK
6
CONTINUOUS
10
0.297608
20
0.274869
11
0.303268
21
0.278981
0
LINE
8
BLACK
6
CONTINUOUS
10
0.303268
20
0.278981
11
0.309659
21
0.281827
0
LINE
8
BLACK
6
CONTINUOUS
10
0.309659
20
0.281827
11
0.316502
21
0.283281
0
LINE
8
BLACK
6
CONTINUOUS
10
0.316502
20
0.283281
11
0.323498
21
0.283281
0
LINE
8
BLACK
6
CONTINUOUS
10
0.323498
20
0.283281
11
0.330341
21
0.281827
0
LINE
8
BLACK
6
CONTINUOUS
10
0.330341
20
0.281827
11
0.336732
21
0.278981
0
LINE
8
BLACK
6
CONTINUOUS
10
0.336732
20
0.278981
11
0.342392
21
0.274869
0
LINE
8
BLACK
6
CONTINUOUS
10
0.342392
20
0.274869
11
0.347073
21
0.26967
0
LINE
8
BLACK
6
CONTINUOUS
10
0.347073
20
0.26967
11
0.350571
21
0.263611
0
LINE
8
BLACK
6
CONTINUOUS
10
0.350571
20
0.263611
11
0.352733
21
0.256958
0
LINE
8
BLACK
6
CONTINUOUS
10
0.352733
20
0.256958
11
0.353465
21
0.25
0
LINE
8
BLACK
6
CONTINUOUS
10
0.353465
20
0.25
11
0.352733
21
0.243042
0
LINE
8
BLACK
6
CONTINUOUS
10
0.352733
20
0.243042
11
0.350571
21
0.236389
0
LINE
8
BLACK
6
CONTINUOUS
10
0.350571
20
0.236389
11
0.347073
21
0.23033
0
LINE
8
BLACK
6
CONTINUOUS
10
0.347073
20
0.23033
11
0.342392
21
0.225131
0
LINE
8
BLACK
6
CONTINUOUS
10
0.342392
20
0.225131
11
0.336732
21
0.221019
0
LINE
8
BLACK
6
CONTINUOUS
10
0.336732
20
0.221019
11
0.330341
21
0.218173
0
LINE
8
BLACK
6
CONTINUOUS
10
0.330341
20
0.218173
11
0.323498
21
0.216719
0
LINE
8
BLACK
6
CONTINUOUS
10
0.323498
20
0.216719
11
0.316502
21
0.216719
0
LINE
8
BLACK
6
CONTINUOUS
10
0.316502
20
0.216719
11
0.309659
21
0.218173
0
LINE
8
BLACK
6
CONTINUOUS
10
0.309659
20
0.218173
11
0.303715
21
0.22082
0
LINE
8
BLACK
6
CONTINUOUS
10
0.303715
20
0.22082
11
0.299912
21
0.217017
0
LINE
8
BLACK
6
CONTINUOUS
10
0.299912
20
0.217017
11
0.299228
21
0.216622
0
LINE
8
BLACK
6
CONTINUOUS
10
0.299228
20
0.216622
11
0.298669
21
0.216064
0
LINE
8
BLACK
6
CONTINUOUS
10
0.298669
20
0.216064
11
0.297906
21
0.215859
0
LINE
8
BLACK
6
CONTINUOUS
10
0.297906
20
0.215859
11
0.297222
21
0.215464
0
LINE
8
BLACK
6
CONTINUOUS
10
0.297222
20
0.215464
11
0.296432
21
0.215464
0
LINE
8
BLACK
6
CONTINUOUS
10
0.296432
20
0.215464
11
0.295669
21
0.21526
0
LINE
8
BLACK
6
CONTINUOUS
10
0.295669
20
0.21526
11
0.0687402
21
0.21526
0
LINE
8
BLACK
6
CONTINUOUS
10
0.0687402
20
0.21526
11
0.0679772
21
0.215464
0
LINE
8
BLACK
6
CONTINUOUS
10
0.0679772
20
0.215464
11
0.0671872
21
0.215464
0
LINE
8
BLACK
6
CONTINUOUS
10
0.0671872
20
0.215464
11
0.0665031
21
0.215859
0
LINE
8
BLACK
6
CONTINUOUS
10
0.0665031
20
0.215859
11
0.0657402
21
0.216064
0
LINE
8
BLACK
6
CONTINUOUS
10
0.0657402
20
0.216064
11
0.0651816
21
0.216622
0
LINE
8
BLACK
6
CONTINUOUS
10
0.0651816
20
0.216622
11
0.0644975
21
0.217017
0
LINE
8
BLACK
6
CONTINUOUS
10
0.0644975
20
0.217017
11
-0.0342426
21
0.315757
0
LINE
8
BLACK
6
CONTINUOUS
10
-0.0342426
20
0.315757
11
-0.0346376
21
0.316441
0
LINE
8
BLACK
6
CONTINUOUS
10
-0.0346376
20
0.316441
11
-0.0351961
21
0.317
0
LINE
8
BLACK
6
CONTINUOUS
10
-0.0351961
20
0.317
11
-0.0354006
21
0.317763
0
LINE
8
BLACK
6
CONTINUOUS
10
-0.0354006
20
0.317763
11
-0.0357956
21
0.318447
0
LINE
8
BLACK
6
CONTINUOUS
10
-0.0357956
20
0.318447
11
-0.0357956
21
0.319237
0
LINE
8
BLACK
6
CONTINUOUS
10
-0.0357956
20
0.319237
11
-0.036
21
0.32
0
LINE
8
BLACK
6
CONTINUOUS
10
-0.036
20
0.32
11
-0.036
21
0.3356
0
LINE
8
BLACK
6
CONTINUOUS
10
-0.036
20
0.3356
11
-0.0392565
21
0.33726
0
LINE
8
BLACK
6
CONTINUOUS
10
-0.0392565
20
0.33726
11
-0.0427404
21
0.340744
0
LINE
8
BLACK
6
CONTINUOUS
10
-0.0427404
20
0.340744
11
-0.0449773
21
0.345134
0
LINE
8
BLACK
6
CONTINUOUS
10
-0.0449773
20
0.345134
11
-0.045748
21
0.35
0
LINE
8
BLACK
6
CONTINUOUS
10
-0.045748
20
0.35
11
-0.0449773
21
0.354866
0
LINE
8
BLACK
6
CONTINUOUS
10
-0.0449773
20
0.354866
11
-0.0427404
21
0.359256
0
LINE
8
BLACK
6
CONTINUOUS
10
-0.0427404
20
0.359256
11
-0.0392565
21
0.36274
0
LINE
8
BLACK
6
CONTINUOUS
10
-0.0392565
20
0.36274
11
-0.0348664
21
0.364977
0
LINE
8
BLACK
6
CONTINUOUS
10
-0.0348664
20
0.364977
11
-0.03
21
0.365748
0
LINE
8
BLACK
6
CONTINUOUS
10
-0.03
20
0.365748
11
-0.0251336
21
0.364977
0
LINE
8
BLACK
6
CONTINUOUS
10
0.330341
20
0.381827
11
0.336732
21
0.378981
0
LINE
8
BLACK
6
CONTINUOUS
10
0.336732
20
0.378981
11
0.342392
21
0.374869
0
LINE
8
BLACK
6
CONTINUOUS
10
0.342392
20
0.374869
11
0.347073
21
0.36967
0
LINE
8
BLACK
6
CONTINUOUS
10
0.347073
20
0.36967
11
0.350571
21
0.363611
0
LINE
8
BLACK
6
CONTINUOUS
10
0.350571
20
0.363611
11
0.352733
21
0.356958
0
LINE
8
BLACK
6
CONTINUOUS
10
0.352733
20
0.356958
11
0.353465
21
0.35
0
LINE
8
BLACK
6
CONTINUOUS
10
0.353465
20
0.35
11
0.352733
21
0.343042
0
LINE
8
BLACK
6
CONTINUOUS
10
0.352733
20
0.343042
11
0.350571
21
0.336389
0
LINE
8
BLACK
6
CONTINUOUS
10
0.350571
20
0.336389
11
0.347073
21
0.33033
0
LINE
8
BLACK
6
CONTINUOUS
10
0.347073
20
0.33033
11
0.342392
21
0.325131
0
LINE
8
BLACK
6
CONTINUOUS
10
0.342392
20
0.325131
11
0.336732
21
0.321019
0
LINE
8
BLACK
6
CONTINUOUS
10
0.336732
20
0.321019
11
0.330341
21
0.318173
0
LINE
8
BLACK
6
CONTINUOUS
10
0.330341
20
0.318173
11
0.323498
21
0.316719
0
LINE
8
BLACK
6
CONTINUOUS
10
0.323498
20
0.316719
11
0.316502
21
0.316719
0
LINE
8
BLACK
6
CONTINUOUS
10
0.316502
20
0.316719
11
0.309659
21
0.318173
0
LINE
8
BLACK
6
CONTINUOUS
10
0.309659
20
0.318173
11
0.303268
21
0.321019
0
LINE
8
BLACK
6
CONTINUOUS
10
0.303268
20
0.321019
11
0.297608
21
0.325131
0
LINE
8
BLACK
6
CONTINUOUS
10
0.297608
20
0.325131
11
0.292927
21
0.33033
0
LINE
8
BLACK
6
CONTINUOUS
10
0.292927
20
0.33033
11
0.289429
21
0.336389
0
LINE
8
BLACK
6
CONTINUOUS
10
0.289429
20
0.336389
11
0.287267
21
0.343042
0
LINE
8
BLACK
6
CONTINUOUS
10
0.287267
20
0.343042
11
0.287166
21
0.344
0
LINE
8
BLACK
6
CONTINUOUS
10
0.287166
20
0.344
11
0.168946
21
0.344
0
LINE
8
BLACK
6
CONTINUOUS
10
0.168946
20
0.344
11
0.110492
21
0.285546
0
LINE
8
BLACK
6
CONTINUOUS
10
0.110492
20
0.285546
11
0.11104
21
0.284469
0
LINE
8
BLACK
6
CONTINUOUS
10
0.11104
20
0.284469
11
0.111811
21
0.279602
0
LINE
8
BLACK
6
CONTINUOUS
10
0.111811
20
0.279602
11
0.11104
21
0.274736
0
LINE
8
BLACK
6
CONTINUOUS
10
0.11104
20
0.274736
11
0.108803
21
0.270346
0
LINE
8
BLACK
6
CONTINUOUS
10
0.108803
20
0.270346
11
0.105319
21
0.266862
0
LINE
8
BLACK
6
CONTINUOUS
10
0.105319
20
0.266862
11
0.100929
21
0.264625
0
LINE
8
BLACK
6
CONTINUOUS
10
0.100929
20
0.264625
11
0.096063
21
0.263854
0
LINE
8
BLACK
6
CONTINUOUS
10
0.096063
20
0.263854
11
0.0911966
21
0.264625
0
LINE
8
BLACK
6
CONTINUOUS
10
0.0911966
20
0.264625
11
0.0868065
21
0.266862
0
LINE
8
BLACK
6
CONTINUOUS
10
0.0868065
20
0.266862
11
0.0833226
21
0.270346
0
LINE
8
BLACK
6
CONTINUOUS
10
0.0833226
20
0.270346
11
0.0810857
21
0.274736
0
LINE
8
BLACK
6
CONTINUOUS
10
0.0810857
20
0.274736
11
0.080315
21
0.279602
0
LINE
8
BLACK
6
CONTINUOUS
10
0.080315
20
0.279602
11
0.0810857
21
0.284469
0
LINE
8
BLACK
6
CONTINUOUS
10
0.0810857
20
0.284469
11
0.0833226
21
0.288859
0
LINE
8
BLACK
6
CONTINUOUS
10
0.0833226
20
0.288859
11
0.0868065
21
0.292343
0
LINE
8
BLACK
6
CONTINUOUS
10
0.0868065
20
0.292343
11
0.0911966
21
0.29458
0
LINE
8
BLACK
6
CONTINUOUS
10
0.0911966
20
0.29458
11
0.096063
21
0.29535
0
LINE
8
BLACK
6
CONTINUOUS
10
0.096063
20
0.29535
11
0.100929
21
0.29458
0
LINE
8
BLACK
6
CONTINUOUS
10
0.100929
20
0.29458
11
0.102006
21
0.294031
0
LINE
8
BLACK
6
CONTINUOUS
10
0.102006
20
0.294031
11
0.162218
21
0.354243
0
LINE
8
BLACK
6
CONTINUOUS
10
0.162218
20
0.354243
11
0.162902
21
0.354638
0
LINE
8
BLACK
6
CONTINUOUS
10
0.162902
20
0.354638
11
0.163461
21
0.355196
0
LINE
8
BLACK
6
CONTINUOUS
10
0.163461
20
0.355196
11
0.164224
21
0.355401
0
LINE
8
BLACK
6
CONTINUOUS
10
0.164224
20
0.355401
11
0.164908
21
0.355796
0
LINE
8
BLACK
6
CONTINUOUS
10
0.164908
20
0.355796
11
0.165698
21
0.355796
0
LINE
8
BLACK
6
CONTINUOUS
10
0.165698
20
0.355796
11
0.166461
21
0.356
0
LINE
8
BLACK
6
CONTINUOUS
10
0.166461
20
0.356
11
0.287166
21
0.356
0
LINE
8
BLACK
6
CONTINUOUS
10
0.287166
20
0.356
11
0.287267
21
0.356958
0
LINE
8
BLACK
6
CONTINUOUS
10
0.287267
20
0.356958
11
0.289429
21
0.363611
0
LINE
8
BLACK
6
CONTINUOUS
10
0.289429
20
0.363611
11
0.292927
21
0.36967
0
LINE
8
BLACK
6
CONTINUOUS
10
0.292927
20
0.36967
11
0.297608
21
0.374869
0
LINE
8
BLACK
6
CONTINUOUS
10
0.297608
20
0.374869
11
0.303268
21
0.378981
0
LINE
8
BLACK
6
CONTINUOUS
10
0.303268
20
0.378981
11
0.309659
21
0.381827
0
LINE
8
BLACK
6
CONTINUOUS
10
0.309659
20
0.381827
11
0.316502
21
0.383281
0
LINE
8
BLACK
6
CONTINUOUS
10
0.316502
20
0.383281
11
0.323498
21
0.383281
0
LINE
8
BLACK
6
CONTINUOUS
10
0.323498
20
0.383281
11
0.330341
21
0.381827
0
LINE
8
BLACK
6
CONTINUOUS
10
0.330341
20
0.481827
11
0.336732
21
0.478981
0
LINE
8
BLACK
6
CONTINUOUS
10
0.336732
20
0.478981
11
0.342392
21
0.474869
0
LINE
8
BLACK
6
CONTINUOUS
10
0.342392
20
0.474869
11
0.347073
21
0.46967
0
LINE
8
BLACK
6
CONTINUOUS
10
0.347073
20
0.46967
11
0.350571
21
0.463611
0
LINE
8
BLACK
6
CONTINUOUS
10
0.350571
20
0.463611
11
0.352733
21
0.456958
0
LINE
8
BLACK
6
CONTINUOUS
10
0.352733
20
0.456958
11
0.353465
21
0.45
0
LINE
8
BLACK
6
CONTINUOUS
10
0.353465
20
0.45
11
0.352733
21
0.443042
0
LINE
8
BLACK
6
CONTINUOUS
10
0.352733
20
0.443042
11
0.350571
21
0.436389
0
LINE
8
BLACK
6
CONTINUOUS
10
0.350571
20
0.436389
11
0.347073
21
0.43033
0
LINE
8
BLACK
6
CONTINUOUS
10
0.347073
20
0.43033
11
0.342392
21
0.425131
0
LINE
8
BLACK
6
CONTINUOUS
10
0.342392
20
0.425131
11
0.336732
21
0.421019
0
LINE
8
BLACK
6
CONTINUOUS
10
0.336732
20
0.421019
11
0.330341
21
0.418173
0
LINE
8
BLACK
6
CONTINUOUS
10
0.330341
20
0.418173
11
0.323498
21
0.416719
0
LINE
8
BLACK
6
CONTINUOUS
10
0.323498
20
0.416719
11
0.316502
21
0.416719
0
LINE
8
BLACK
6
CONTINUOUS
10
0.316502
20
0.416719
11
0.309659
21
0.418173
0
LINE
8
BLACK
6
CONTINUOUS
10
0.309659
20
0.418173
11
0.303268
21
0.421019
0
LINE
8
BLACK
6
CONTINUOUS
10
0.303268
20
0.421019
11
0.297608
21
0.425131
0
LINE
8
BLACK
6
CONTINUOUS
10
0.297608
20
0.425131
11
0.292927
21
0.43033
0
LINE
8
BLACK
6
CONTINUOUS
10
0.292927
20
0.43033
11
0.289429
21
0.436389
0
LINE
8
BLACK
6
CONTINUOUS
10
0.289429
20
0.436389
11
0.287267
21
0.443042
0
LINE
8
BLACK
6
CONTINUOUS
10
0.287267
20
0.443042
11
0.286535
21
0.45
0
LINE
8
BLACK
6
CONTINUOUS
10
0.286535
20
0.45
11
0.287267
21
0.456958
0
LINE
8
BLACK
6
CONTINUOUS
10
0.287267
20
0.456958
11
0.289429
21
0.463611
0
LINE
8
BLACK
6
CONTINUOUS
10
0.289429
20
0.463611
11
0.292927
21
0.46967
0
LINE
8
BLACK
6
CONTINUOUS
10
0.292927
20
0.46967
11
0.297608
21
0.474869
0
LINE
8
BLACK
6
CONTINUOUS
10
0.297608
20
0.474869
11
0.303268
21
0.478981
0
LINE
8
BLACK
6
CONTINUOUS
10
0.303268
20
0.478981
11
0.309659
21
0.481827
0
LINE
8
BLACK
6
CONTINUOUS
10
0.309659
20
0.481827
11
0.316502
21
0.483281
0
LINE
8
BLACK
6
CONTINUOUS
10
0.316502
20
0.483281
11
0.323498
21
0.483281
0
LINE
8
BLACK
6
CONTINUOUS
10
0.323498
20
0.483281
11
0.330341
21
0.481827
0
LINE
8
BLACK
6
CONTINUOUS
10
0.430341
20
0.481827
11
0.436732
21
0.478981
0
LINE
8
BLACK
6
CONTINUOUS
10
0.436732
20
0.478981
11
0.442392
21
0.474869
0
LINE
8
BLACK
6
CONTINUOUS
10
0.442392
20
0.474869
11
0.447073
21
0.46967
0
LINE
8
BLACK
6
CONTINUOUS
10
0.447073
20
0.46967
11
0.450571
21
0.463611
0
LINE
8
BLACK
6
CONTINUOUS
10
0.450571
20
0.463611
11
0.452733
21
0.456958
0
LINE
8
BLACK
6
CONTINUOUS
10
0.452733
20
0.456958
11
0.453465
21
0.45
0
LINE
8
BLACK
6
CONTINUOUS
10
0.453465
20
0.45
11
0.452733
21
0.443042
0
LINE
8
BLACK
6
CONTINUOUS
10
0.452733
20
0.443042
11
0.450571
21
0.436389
0
LINE
8
BLACK
6
CONTINUOUS
10
0.450571
20
0.436389
11
0.447073
21
0.43033
0
LINE
8
BLACK
6
CONTINUOUS
10
0.447073
20
0.43033
11
0.442392
21
0.425131
0
LINE
8
BLACK
6
CONTINUOUS
10
0.442392
20
0.425131
11
0.436732
21
0.421019
0
LINE
8
BLACK
6
CONTINUOUS
10
0.436732
20
0.421019
11
0.430341
21
0.418173
0
LINE
8
BLACK
6
CONTINUOUS
10
0.430341
20
0.418173
11
0.423498
21
0.416719
0
LINE
8
BLACK
6
CONTINUOUS
10
0.423498
20
0.416719
11
0.416502
21
0.416719
0
LINE
8
BLACK
6
CONTINUOUS
10
0.416502
20
0.416719
11
0.409659
21
0.418173
0
LINE
8
BLACK
6
CONTINUOUS
10
0.409659
20
0.418173
11
0.403268
21
0.421019
0
LINE
8
BLACK
6
CONTINUOUS
10
0.403268
20
0.421019
11
0.397608
21
0.425131
0
LINE
8
BLACK
6
CONTINUOUS
10
0.397608
20
0.425131
11
0.392927
21
0.43033
0
LINE
8
BLACK
6
CONTINUOUS
10
0.392927
20
0.43033
11
0.389429
21
0.436389
0
LINE
8
BLACK
6
CONTINUOUS
10
0.389429
20
0.436389
11
0.387267
21
0.443042
0
LINE
8
BLACK
6
CONTINUOUS
10
0.387267
20
0.443042
11
0.386535
21
0.45
0
LINE
8
BLACK
6
CONTINUOUS
10
0.386535
20
0.45
11
0.387267
21
0.456958
0
LINE
8
BLACK
6
CONTINUOUS
10
0.387267
20
0.456958
11
0.389429
21
0.463611
0
LINE
8
BLACK
6
CONTINUOUS
10
0.389429
20
0.463611
11
0.392927
21
0.46967
0
LINE
8
BLACK
6
CONTINUOUS
10
0.392927
20
0.46967
11
0.397608
21
0.474869
0
LINE
8
BLACK
6
CONTINUOUS
10
0.397608
20
0.474869
11
0.403268
21
0.478981
0
LINE
8
BLACK
6
CONTINUOUS
10
0.403268
20
0.478981
11
0.409659
21
0.481827
0
LINE
8
BLACK
6
CONTINUOUS
10
0.409659
20
0.481827
11
0.416502
21
0.483281
0
LINE
8
BLACK
6
CONTINUOUS
10
0.416502
20
0.483281
11
0.423498
21
0.483281
0
LINE
8
BLACK
6
CONTINUOUS
10
0.423498
20
0.483281
11
0.430341
21
0.481827
0
LINE
8
BLACK
6
CONTINUOUS
10
0.332075
20
0.646793
11
0.333388
21
0.646645
0
LINE
8
BLACK
6
CONTINUOUS
10
0.333388
20
0.646645
11
0.333767
21
0.646407
0
LINE
8
BLACK
6
CONTINUOUS
10
0.333767
20
0.646407
11
0.334204
21
0.646307
0
LINE
8
BLACK
6
CONTINUOUS
10
0.334204
20
0.646307
11
0.335237
21
0.645483
0
LINE
8
BLACK
6
CONTINUOUS
10
0.335237
20
0.645483
11
0.336355
21
0.64478
0
LINE
8
BLACK
6
CONTINUOUS
10
0.336355
20
0.64478
11
0.402623
21
0.578513
0
LINE
8
BLACK
6
CONTINUOUS
10
0.402623
20
0.578513
11
0.403268
21
0.578981
0
LINE
8
BLACK
6
CONTINUOUS
10
0.403268
20
0.578981
11
0.409659
21
0.581827
0
LINE
8
BLACK
6
CONTINUOUS
10
0.409659
20
0.581827
11
0.416502
21
0.583281
0
LINE
8
BLACK
6
CONTINUOUS
10
0.416502
20
0.583281
11
0.423498
21
0.583281
0
LINE
8
BLACK
6
CONTINUOUS
10
0.423498
20
0.583281
11
0.430341
21
0.581827
0
LINE
8
BLACK
6
CONTINUOUS
10
0.430341
20
0.581827
11
0.436732
21
0.578981
0
LINE
8
BLACK
6
CONTINUOUS
10
0.436732
20
0.578981
11
0.442392
21
0.574869
0
LINE
8
BLACK
6
CONTINUOUS
10
0.442392
20
0.574869
11
0.447073
21
0.56967
0
LINE
8
BLACK
6
CONTINUOUS
10
0.447073
20
0.56967
11
0.450571
21
0.563611
0
LINE
8
BLACK
6
CONTINUOUS
10
0.450571
20
0.563611
11
0.452733
21
0.556958
0
LINE
8
BLACK
6
CONTINUOUS
10
0.452733
20
0.556958
11
0.453465
21
0.55
0
LINE
8
BLACK
6
CONTINUOUS
10
0.453465
20
0.55
11
0.452733
21
0.543042
0
LINE
8
BLACK
6
CONTINUOUS
10
0.452733
20
0.543042
11
0.450571
21
0.536389
0
LINE
8
BLACK
6
CONTINUOUS
10
0.450571
20
0.536389
11
0.447073
21
0.53033
0
LINE
8
BLACK
6
CONTINUOUS
10
0.447073
20
0.53033
11
0.442392
21
0.525131
0
LINE
8
BLACK
6
CONTINUOUS
10
0.442392
20
0.525131
11
0.436732
21
0.521019
0
LINE
8
BLACK
6
CONTINUOUS
10
0.436732
20
0.521019
11
0.430341
21
0.518173
0
LINE
8
BLACK
6
CONTINUOUS
10
0.430341
20
0.518173
11
0.423498
21
0.516719
0
LINE
8
BLACK
6
CONTINUOUS
10
0.423498
20
0.516719
11
0.416502
21
0.516719
0
LINE
8
BLACK
6
CONTINUOUS
10
0.416502
20
0.516719
11
0.409659
21
0.518173
0
LINE
8
BLACK
6
CONTINUOUS
10
0.409659
20
0.518173
11
0.403268
21
0.521019
0
LINE
8
BLACK
6
CONTINUOUS
10
0.403268
20
0.521019
11
0.397608
21
0.525131
0
LINE
8
BLACK
6
CONTINUOUS
10
0.397608
20
0.525131
11
0.392927
21
0.53033
0
LINE
8
BLACK
6
CONTINUOUS
10
0.392927
20
0.53033
11
0.389429
21
0.536389
0
LINE
8
BLACK
6
CONTINUOUS
10
0.389429
20
0.536389
11
0.387267
21
0.543042
0
LINE
8
BLACK
6
CONTINUOUS
10
0.387267
20
0.543042
11
0.386535
21
0.55
0
LINE
8
BLACK
6
CONTINUOUS
10
0.386535
20
0.55
11
0.387267
21
0.556958
0
LINE
8
BLACK
6
CONTINUOUS
10
0.387267
20
0.556958
11
0.389429
21
0.563611
0
LINE
8
BLACK
6
CONTINUOUS
10
0.389429
20
0.563611
11
0.391561
21
0.567304
0
LINE
8
BLACK
6
CONTINUOUS
10
0.391561
20
0.567304
11
0.327526
21
0.631339
0
LINE
8
BLACK
6
CONTINUOUS
10
0.327526
20
0.631339
11
0.0424741
21
0.631339
0
LINE
8
BLACK
6
CONTINUOUS
10
0.0424741
20
0.631339
11
0.0169763
21
0.605841
0
LINE
8
BLACK
6
CONTINUOUS
10
0.0169763
20
0.605841
11
0.0170734
21
0.605733
0
LINE
8
BLACK
6
CONTINUOUS
10
0.0170734
20
0.605733
11
0.0205714
21
0.599674
0
LINE
8
BLACK
6
CONTINUOUS
10
0.0205714
20
0.599674
11
0.0227333
21
0.593021
0
LINE
8
BLACK
6
CONTINUOUS
10
0.0227333
20
0.593021
11
0.0234646
21
0.586063
0
LINE
8
BLACK
6
CONTINUOUS
10
0.0234646
20
0.586063
11
0.0227333
21
0.579105
0
LINE
8
BLACK
6
CONTINUOUS
10
0.0227333
20
0.579105
11
0.0205714
21
0.572452
0
LINE
8
BLACK
6
CONTINUOUS
10
0.0205714
20
0.572452
11
0.0170734
21
0.566393
0
LINE
8
BLACK
6
CONTINUOUS
10
0.0170734
20
0.566393
11
0.0123922
21
0.561194
0
LINE
8
BLACK
6
CONTINUOUS
10
0.0123922
20
0.561194
11
0.00673228
21
0.557082
0
LINE
8
BLACK
6
CONTINUOUS
10
0.00673228
20
0.557082
11
0.00492126
21
0.556276
0
LINE
8
BLACK
6
CONTINUOUS
10
0.00492126
20
0.556276
11
0.00492126
21
0.515851
0
LINE
8
BLACK
6
CONTINUOUS
10
0.00492126
20
0.515851
11
0.00673228
21
0.515044
0
LINE
8
BLACK
6
CONTINUOUS
10
0.00673228
20
0.515044
11
0.0123922
21
0.510932
0
LINE
8
BLACK
6
CONTINUOUS
10
0.0123922
20
0.510932
11
0.0170734
21
0.505733
0
LINE
8
BLACK
6
CONTINUOUS
10
0.0170734
20
0.505733
11
0.0205714
21
0.499674
0
LINE
8
BLACK
6
CONTINUOUS
10
0.0205714
20
0.499674
11
0.0227333
21
0.493021
0
LINE
8
BLACK
6
CONTINUOUS
10
0.0227333
20
0.493021
11
0.0234646
21
0.486063
0
LINE
8
BLACK
6
CONTINUOUS
10
0.0234646
20
0.486063
11
0.0227333
21
0.479105
0
LINE
8
BLACK
6
CONTINUOUS
10
0.0227333
20
0.479105
11
0.0205714
21
0.472452
0
LINE
8
BLACK
6
CONTINUOUS
10
0.0205714
20
0.472452
11
0.0170734
21
0.466393
0
LINE
8
BLACK
6
CONTINUOUS
10
0.0170734
20
0.466393
11
0.0123922
21
0.461194
0
LINE
8
BLACK
6
CONTINUOUS
10
0.0123922
20
0.461194
11
0.00673228
21
0.457082
0
LINE
8
BLACK
6
CONTINUOUS
10
0.00673228
20
0.457082
11
0.000341102
21
0.454236
0
LINE
8
BLACK
6
CONTINUOUS
10
0.000341102
20
0.454236
11
-0.00650201
21
0.452782
0
LINE
8
BLACK
6
CONTINUOUS
10
-0.00650201
20
0.452782
11
-0.013498
21
0.452782
0
LINE
8
BLACK
6
CONTINUOUS
10
-0.013498
20
0.452782
11
-0.0203411
21
0.454236
0
LINE
8
BLACK
6
CONTINUOUS
10
-0.0203411
20
0.454236
11
-0.0267323
21
0.457082
0
LINE
8
BLACK
6
CONTINUOUS
10
-0.0267323
20
0.457082
11
-0.0323922
21
0.461194
0
LINE
8
BLACK
6
CONTINUOUS
10
-0.0323922
20
0.461194
11
-0.0370734
21
0.466393
0
LINE
8
BLACK
6
CONTINUOUS
10
-0.0370734
20
0.466393
11
-0.0405714
21
0.472452
0
LINE
8
BLACK
6
CONTINUOUS
10
-0.0405714
20
0.472452
11
-0.0427333
21
0.479105
0
LINE
8
BLACK
6
CONTINUOUS
10
-0.0427333
20
0.479105
11
-0.0434646
21
0.486063
0
LINE
8
BLACK
6
CONTINUOUS
10
-0.0434646
20
0.486063
11
-0.0427333
21
0.493021
0
LINE
8
BLACK
6
CONTINUOUS
10
-0.0427333
20
0.493021
11
-0.0405714
21
0.499674
0
LINE
8
BLACK
6
CONTINUOUS
10
-0.0405714
20
0.499674
11
-0.0370734
21
0.505733
0
LINE
8
BLACK
6
CONTINUOUS
10
-0.0370734
20
0.505733
11
-0.0323922
21
0.510932
0
LINE
8
BLACK
6
CONTINUOUS
10
-0.0323922
20
0.510932
11
-0.0267323
21
0.515044
0
LINE
8
BLACK
6
CONTINUOUS
10
-0.0267323
20
0.515044
11
-0.0203411
21
0.51789
0
LINE
8
BLACK
6
CONTINUOUS
10
-0.0203411
20
0.51789
11
-0.013498
21
0.519344
0
LINE
8
BLACK
6
CONTINUOUS
10
-0.013498
20
0.519344
11
-0.00650201
21
0.519344
0
LINE
8
BLACK
6
CONTINUOUS
10
-0.00650201
20
0.519344
11
-0.00492126
21
0.519008
0
LINE
8
BLACK
6
CONTINUOUS
10
-0.00492126
20
0.519008
11
-0.00492126
21
0.553118
0
LINE
8
BLACK
6
CONTINUOUS
10
-0.00492126
20
0.553118
11
-0.00650201
21
0.552782
0
LINE
8
BLACK
6
CONTINUOUS
10
-0.00650201
20
0.552782
11
-0.013498
21
0.552782
0
LINE
8
BLACK
6
CONTINUOUS
10
-0.013498
20
0.552782
11
-0.0203411
21
0.554236
0
LINE
8
BLACK
6
CONTINUOUS
10
-0.0203411
20
0.554236
11
-0.0267323
21
0.557082
0
LINE
8
BLACK
6
CONTINUOUS
10
-0.0267323
20
0.557082
11
-0.0323922
21
0.561194
0
LINE
8
BLACK
6
CONTINUOUS
10
-0.0323922
20
0.561194
11
-0.0370734
21
0.566393
0
LINE
8
BLACK
6
CONTINUOUS
10
-0.0370734
20
0.566393
11
-0.0405714
21
0.572452
0
LINE
8
BLACK
6
CONTINUOUS
10
-0.0405714
20
0.572452
11
-0.0427333
21
0.579105
0
LINE
8
BLACK
6
CONTINUOUS
10
-0.0427333
20
0.579105
11
-0.0434646
21
0.586063
0
LINE
8
BLACK
6
CONTINUOUS
10
-0.0434646
20
0.586063
11
-0.0427333
21
0.593021
0
LINE
8
BLACK
6
CONTINUOUS
10
-0.0427333
20
0.593021
11
-0.0405714
21
0.599674
0
LINE
8
BLACK
6
CONTINUOUS
10
-0.0405714
20
0.599674
11
-0.0370734
21
0.605733
0
LINE
8
BLACK
6
CONTINUOUS
10
-0.0370734
20
0.605733
11
-0.0323922
21
0.610932
0
LINE
8
BLACK
6
CONTINUOUS
10
-0.0323922
20
0.610932
11
-0.0267323
21
0.615044
0
LINE
8
BLACK
6
CONTINUOUS
10
-0.0267323
20
0.615044
11
-0.0203411
21
0.61789
0
LINE
8
BLACK
6
CONTINUOUS
10
-0.0203411
20
0.61789
11
-0.013498
21
0.619344
0
LINE
8
BLACK
6
CONTINUOUS
10
-0.013498
20
0.619344
11
-0.00650201
21
0.619344
0
LINE
8
BLACK
6
CONTINUOUS
10
-0.00650201
20
0.619344
11
0.000341102
21
0.61789
0
LINE
8
BLACK
6
CONTINUOUS
10
0.000341102
20
0.61789
11
0.0047785
21
0.615914
0
LINE
8
BLACK
6
CONTINUOUS
10
0.0047785
20
0.615914
11
0.0336448
21
0.64478
0
LINE
8
BLACK
6
CONTINUOUS
10
0.0336448
20
0.64478
11
0.0347634
21
0.645483
0
LINE
8
BLACK
6
CONTINUOUS
10
0.0347634
20
0.645483
11
0.0357962
21
0.646307
0
LINE
8
BLACK
6
CONTINUOUS
10
0.0357962
20
0.646307
11
0.0362328
21
0.646407
0
LINE
8
BLACK
6
CONTINUOUS
10
0.0362328
20
0.646407
11
0.036612
21
0.646645
0
LINE
8
BLACK
6
CONTINUOUS
10
0.036612
20
0.646645
11
0.0379246
21
0.646793
0
LINE
8
BLACK
6
CONTINUOUS
10
0.0379246
20
0.646793
11
0.0392126
21
0.647087
0
LINE
8
BLACK
6
CONTINUOUS
10
0.0392126
20
0.647087
11
0.330787
21
0.647087
0
LINE
8
BLACK
6
CONTINUOUS
10
0.330787
20
0.647087
11
0.332075
21
0.646793
0
LINE
8
BLACK
6
CONTINUOUS
10
0.353465
20
0.516535
11
0.286535
21
0.516535
0
LINE
8
BLACK
6
CONTINUOUS
10
0.286535
20
0.516535
11
0.286535
21
0.583465
0
LINE
8
BLACK
6
CONTINUOUS
10
0.286535
20
0.583465
11
0.353465
21
0.583465
0
LINE
8
BLACK
6
CONTINUOUS
10
0.353465
20
0.583465
11
0.353465
21
0.516535
0
LINE
8
BLACK
6
CONTINUOUS
10
0.568689
20
0.969551
11
0.570105
21
0.967602
0
LINE
8
BLACK
6
CONTINUOUS
10
0.570105
20
0.967602
11
0.570295
21
0.966398
0
LINE
8
BLACK
6
CONTINUOUS
10
0.570295
20
0.966398
11
0.570295
21
-0.166398
0
LINE
8
BLACK
6
CONTINUOUS
10
0.570295
20
-0.166398
11
0.569551
21
-0.168689
0
LINE
8
BLACK
6
CONTINUOUS
10
0.569551
20
-0.168689
11
0.567602
21
-0.170105
0
LINE
8
BLACK
6
CONTINUOUS
10
0.567602
20
-0.170105
11
0.566398
21
-0.170295
0
LINE
8
BLACK
6
CONTINUOUS
10
0.566398
20
-0.170295
11
-0.166398
21
-0.170295
0
LINE
8
BLACK
6
CONTINUOUS
10
-0.166398
20
-0.170295
11
-0.168689
21
-0.169551
0
LINE
8
BLACK
6
CONTINUOUS
10
-0.168689
20
-0.169551
11
-0.170105
21
-0.167602
0
LINE
8
BLACK
6
CONTINUOUS
10
-0.170105
20
-0.167602
11
-0.170295
21
-0.166398
0
LINE
8
BLACK
6
CONTINUOUS
10
-0.170295
20
-0.166398
11
-0.170295
21
0.35
0
LINE
8
BLACK
6
CONTINUOUS
10
-0.170295
20
0.35
11
-0.170295
21
0.476063
0
LINE
8
BLACK
6
CONTINUOUS
10
-0.170295
20
0.476063
11
-0.170295
21
0.576063
0
LINE
8
BLACK
6
CONTINUOUS
10
-0.170295
20
0.576063
11
-0.170295
21
0.966398
0
LINE
8
BLACK
6
CONTINUOUS
10
-0.170295
20
0.966398
11
-0.169551
21
0.968689
0
LINE
8
BLACK
6
CONTINUOUS
10
-0.169551
20
0.968689
11
-0.167602
21
0.970105
0
LINE
8
BLACK
6
CONTINUOUS
10
-0.167602
20
0.970105
11
-0.166398
21
0.970295
0
LINE
8
BLACK
6
CONTINUOUS
10
-0.166398
20
0.970295
11
0.566398
21
0.970295
0
LINE
8
BLACK
6
CONTINUOUS
10
0.566398
20
0.970295
11
0.568689
21
0.969551
0
LINE
8
BLACK
6
CONTINUOUS
10
0.450571
20
0.236389
11
0.447073
21
0.23033
0
LINE
8
BLACK
6
CONTINUOUS
10
0.447073
20
0.23033
11
0.442392
21
0.225131
0
LINE
8
BLACK
6
CONTINUOUS
10
0.442392
20
0.225131
11
0.436732
21
0.221019
0
LINE
8
BLACK
6
CONTINUOUS
10
0.436732
20
0.221019
11
0.430341
21
0.218173
0
LINE
8
BLACK
6
CONTINUOUS
10
0.430341
20
0.218173
11
0.43
21
0.218101
0
LINE
8
BLACK
6
CONTINUOUS
10
0.43
20
0.218101
11
0.43
21
0.205809
0
LINE
8
BLACK
6
CONTINUOUS
10
0.43
20
0.205809
11
0.432443
21
0.206266
0
LINE
8
BLACK
6
CONTINUOUS
10
0.432443
20
0.206266
11
0.440267
21
0.209297
0
LINE
8
BLACK
6
CONTINUOUS
10
0.440267
20
0.209297
11
0.447402
21
0.213715
0
LINE
8
BLACK
6
CONTINUOUS
10
0.447402
20
0.213715
11
0.453602
21
0.219367
0
LINE
8
BLACK
6
CONTINUOUS
10
0.453602
20
0.219367
11
0.453602
21
0.219368
0
LINE
8
BLACK
6
CONTINUOUS
10
0.453602
20
0.219368
11
0.458659
21
0.226063
0
LINE
8
BLACK
6
CONTINUOUS
10
0.458659
20
0.226063
11
0.458659
21
0.226064
0
LINE
8
BLACK
6
CONTINUOUS
10
0.458659
20
0.226064
11
0.462399
21
0.233574
0
LINE
8
BLACK
6
CONTINUOUS
10
0.462399
20
0.233574
11
0.464227
21
0.24
0
LINE
8
BLACK
6
CONTINUOUS
10
0.464227
20
0.24
11
0.451745
21
0.24
0
LINE
8
BLACK
6
CONTINUOUS
10
0.451745
20
0.24
11
0.450571
21
0.236389
0
LINE
8
BLACK
6
CONTINUOUS
10
-0.056974
20
0.343351
11
-0.0545991
21
0.337089
0
LINE
8
BLACK
6
CONTINUOUS
10
-0.0545991
20
0.337089
11
-0.0507946
21
0.331578
0
LINE
8
BLACK
6
CONTINUOUS
10
-0.0507946
20
0.331578
11
-0.0491437
21
0.330115
0
LINE
8
BLACK
6
CONTINUOUS
10
-0.0491437
20
0.330115
11
-0.0479226
21
0.328039
0
LINE
8
BLACK
6
CONTINUOUS
10
-0.0479226
20
0.328039
11
-0.0478307
21
0.327198
0
LINE
8
BLACK
6
CONTINUOUS
10
-0.0478307
20
0.327198
11
-0.0478307
21
0.321111
0
LINE
8
BLACK
6
CONTINUOUS
10
-0.0478307
20
0.321111
11
-0.047843
21
0.320893
0
LINE
8
BLACK
6
CONTINUOUS
10
-0.047843
20
0.320893
11
-0.0480148
21
0.319368
0
LINE
8
BLACK
6
CONTINUOUS
10
-0.0480148
20
0.319368
11
-0.0480195
21
0.319326
0
LINE
8
BLACK
6
CONTINUOUS
10
-0.0480195
20
0.319326
11
-0.047582
21
0.317013
0
LINE
8
BLACK
6
CONTINUOUS
10
-0.047582
20
0.317013
11
-0.0473754
21
0.315643
0
LINE
8
BLACK
6
CONTINUOUS
10
-0.0473754
20
0.315643
11
-0.0472311
21
0.314685
0
LINE
8
BLACK
6
CONTINUOUS
10
-0.0472311
20
0.314685
11
-0.047145
21
0.314406
0
LINE
8
BLACK
6
CONTINUOUS
10
-0.047145
20
0.314406
11
-0.0471613
21
0.314401
0
LINE
8
BLACK
6
CONTINUOUS
10
-0.0471613
20
0.314401
11
-0.0471328
21
0.314314
0
LINE
8
BLACK
6
CONTINUOUS
10
-0.0471328
20
0.314314
11
-0.0471166
21
0.31432
0
LINE
8
BLACK
6
CONTINUOUS
10
-0.0471166
20
0.31432
11
-0.0470203
21
0.314045
0
LINE
8
BLACK
6
CONTINUOUS
10
-0.0470203
20
0.314045
11
-0.0470202
21
0.314044
0
LINE
8
BLACK
6
CONTINUOUS
10
-0.0470202
20
0.314044
11
-0.0470202
21
0.314044
0
LINE
8
BLACK
6
CONTINUOUS
10
-0.0470202
20
0.314044
11
-0.0470201
21
0.314044
0
LINE
8
BLACK
6
CONTINUOUS
10
-0.0470201
20
0.314044
11
-0.0459204
21
0.311963
0
LINE
8
BLACK
6
CONTINUOUS
10
-0.0459204
20
0.311963
11
-0.0448988
21
0.309842
0
LINE
8
BLACK
6
CONTINUOUS
10
-0.0448988
20
0.309842
11
-0.0447343
21
0.309601
0
LINE
8
BLACK
6
CONTINUOUS
10
-0.0447343
20
0.309601
11
-0.0447484
21
0.309591
0
LINE
8
BLACK
6
CONTINUOUS
10
-0.0447484
20
0.309591
11
-0.0446959
21
0.309517
0
LINE
8
BLACK
6
CONTINUOUS
10
-0.0446959
20
0.309517
11
-0.0446821
21
0.309527
0
LINE
8
BLACK
6
CONTINUOUS
10
-0.0446821
20
0.309527
11
-0.0445086
21
0.309292
0
LINE
8
BLACK
6
CONTINUOUS
10
-0.0445086
20
0.309292
11
-0.042844
21
0.307627
0
LINE
8
BLACK
6
CONTINUOUS
10
-0.042844
20
0.307627
11
-0.0424743
21
0.307229
0
LINE
8
BLACK
6
CONTINUOUS
10
-0.0424743
20
0.307229
11
-0.0412428
21
0.305902
0
LINE
8
BLACK
6
CONTINUOUS
10
-0.0412428
20
0.305902
11
-0.0412428
21
0.305902
0
LINE
8
BLACK
6
CONTINUOUS
10
-0.0412428
20
0.305902
11
-0.0412427
21
0.305902
0
LINE
8
BLACK
6
CONTINUOUS
10
-0.0412427
20
0.305902
11
-0.0410144
21
0.30572
0
LINE
8
BLACK
6
CONTINUOUS
10
-0.0410144
20
0.30572
11
-0.0410251
21
0.305706
0
LINE
8
BLACK
6
CONTINUOUS
10
-0.0410251
20
0.305706
11
-0.0405856
21
0.305369
0
LINE
8
BLACK
6
CONTINUOUS
10
-0.0405856
20
0.305369
11
0.0553465
21
0.209437
0
LINE
8
BLACK
6
CONTINUOUS
10
0.0553465
20
0.209437
11
0.0554922
21
0.209274
0
LINE
8
BLACK
6
CONTINUOUS
10
0.0554922
20
0.209274
11
0.0564753
21
0.208041
0
LINE
8
BLACK
6
CONTINUOUS
10
0.0564753
20
0.208041
11
0.0584091
21
0.206723
0
LINE
8
BLACK
6
CONTINUOUS
10
0.0584091
20
0.206723
11
0.0584199
21
0.206716
0
LINE
8
BLACK
6
CONTINUOUS
10
0.0584199
20
0.206716
11
0.0603143
21
0.205317
0
LINE
8
BLACK
6
CONTINUOUS
10
0.0603143
20
0.205317
11
0.0603144
21
0.205317
0
LINE
8
BLACK
6
CONTINUOUS
10
0.0603144
20
0.205317
11
0.0605727
21
0.205181
0
LINE
8
BLACK
6
CONTINUOUS
10
0.0605727
20
0.205181
11
0.0605646
21
0.205166
0
LINE
8
BLACK
6
CONTINUOUS
10
0.0605646
20
0.205166
11
0.0606455
21
0.205125
0
LINE
8
BLACK
6
CONTINUOUS
10
0.0606455
20
0.205125
11
0.060653
21
0.20514
0
LINE
8
BLACK
6
CONTINUOUS
10
0.060653
20
0.20514
11
0.0609163
21
0.205013
0
LINE
8
BLACK
6
CONTINUOUS
10
0.0609163
20
0.205013
11
0.0631649
21
0.20432
0
LINE
8
BLACK
6
CONTINUOUS
10
0.0631649
20
0.20432
11
0.063165
21
0.20432
0
LINE
8
BLACK
6
CONTINUOUS
10
0.063165
20
0.20432
11
0.0653878
21
0.203542
0
LINE
8
BLACK
6
CONTINUOUS
10
0.0653878
20
0.203542
11
0.0653879
21
0.203542
0
LINE
8
BLACK
6
CONTINUOUS
10
0.0653879
20
0.203542
11
0.0656746
21
0.203488
0
LINE
8
BLACK
6
CONTINUOUS
10
0.0656746
20
0.203488
11
0.0656714
21
0.203471
0
LINE
8
BLACK
6
CONTINUOUS
10
0.0656714
20
0.203471
11
0.0657611
21
0.203456
0
LINE
8
BLACK
6
CONTINUOUS
10
0.0657611
20
0.203456
11
0.0657637
21
0.203473
0
LINE
8
BLACK
6
CONTINUOUS
10
0.0657637
20
0.203473
11
0.0660526
21
0.203429
0
LINE
8
BLACK
6
CONTINUOUS
10
0.0660526
20
0.203429
11
0.068406
21
0.203429
0
LINE
8
BLACK
6
CONTINUOUS
10
0.068406
20
0.203429
11
0.0707591
21
0.203341
0
LINE
8
BLACK
6
CONTINUOUS
10
0.0707591
20
0.203341
11
0.0707594
21
0.203341
0
LINE
8
BLACK
6
CONTINUOUS
10
0.0707594
20
0.203341
11
0.0710494
21
0.203374
0
LINE
8
BLACK
6
CONTINUOUS
10
0.0710494
20
0.203374
11
0.0710513
21
0.203357
0
LINE
8
BLACK
6
CONTINUOUS
10
0.0710513
20
0.203357
11
0.0716008
21
0.203429
0
LINE
8
BLACK
6
CONTINUOUS
10
0.0716008
20
0.203429
11
0.294558
21
0.203429
0
LINE
8
BLACK
6
CONTINUOUS
10
0.294558
20
0.203429
11
0.294777
21
0.203417
0
LINE
8
BLACK
6
CONTINUOUS
10
0.294777
20
0.203417
11
0.296344
21
0.20324
0
LINE
8
BLACK
6
CONTINUOUS
10
0.296344
20
0.20324
11
0.298656
21
0.203678
0
LINE
8
BLACK
6
CONTINUOUS
10
0.298656
20
0.203678
11
0.300984
21
0.204029
0
LINE
8
BLACK
6
CONTINUOUS
10
0.300984
20
0.204029
11
0.300985
21
0.204029
0
LINE
8
BLACK
6
CONTINUOUS
10
0.300985
20
0.204029
11
0.301264
21
0.204115
0
LINE
8
BLACK
6
CONTINUOUS
10
0.301264
20
0.204115
11
0.301269
21
0.204099
0
LINE
8
BLACK
6
CONTINUOUS
10
0.301269
20
0.204099
11
0.301355
21
0.204127
0
LINE
8
BLACK
6
CONTINUOUS
10
0.301355
20
0.204127
11
0.301349
21
0.204143
0
LINE
8
BLACK
6
CONTINUOUS
10
0.301349
20
0.204143
11
0.301625
21
0.20424
0
LINE
8
BLACK
6
CONTINUOUS
10
0.301625
20
0.20424
11
0.301625
21
0.20424
0
LINE
8
BLACK
6
CONTINUOUS
10
0.301625
20
0.20424
11
0.303329
21
0.20514
0
LINE
8
BLACK
6
CONTINUOUS
10
0.303329
20
0.20514
11
0.303706
21
0.205339
0
LINE
8
BLACK
6
CONTINUOUS
10
0.303706
20
0.205339
11
0.304278
21
0.205615
0
LINE
8
BLACK
6
CONTINUOUS
10
0.304278
20
0.205615
11
0.304988
21
0.205957
0
LINE
8
BLACK
6
CONTINUOUS
10
0.304988
20
0.205957
11
0.307375
21
0.20628
0
LINE
8
BLACK
6
CONTINUOUS
10
0.307375
20
0.20628
11
0.307395
21
0.206276
0
LINE
8
BLACK
6
CONTINUOUS
10
0.307395
20
0.206276
11
0.307551
21
0.206247
0
LINE
8
BLACK
6
CONTINUOUS
10
0.307551
20
0.206247
11
0.307551
21
0.206247
0
LINE
8
BLACK
6
CONTINUOUS
10
0.307551
20
0.206247
11
0.315803
21
0.204705
0
LINE
8
BLACK
6
CONTINUOUS
10
0.315803
20
0.204705
11
0.324197
21
0.204705
0
LINE
8
BLACK
6
CONTINUOUS
10
0.324197
20
0.204705
11
0.332449
21
0.206247
0
LINE
8
BLACK
6
CONTINUOUS
10
0.332449
20
0.206247
11
0.340276
21
0.20928
0
LINE
8
BLACK
6
CONTINUOUS
10
0.340276
20
0.20928
11
0.347413
21
0.213699
0
LINE
8
BLACK
6
CONTINUOUS
10
0.347413
20
0.213699
11
0.353617
21
0.219354
0
LINE
8
BLACK
6
CONTINUOUS
10
0.353617
20
0.219354
11
0.358676
21
0.226053
0
LINE
8
BLACK
6
CONTINUOUS
10
0.358676
20
0.226053
11
0.362418
21
0.233567
0
LINE
8
BLACK
6
CONTINUOUS
10
0.362418
20
0.233567
11
0.364248
21
0.24
0
LINE
8
BLACK
6
CONTINUOUS
10
0.364248
20
0.24
11
0.364715
21
0.241641
0
LINE
8
BLACK
6
CONTINUOUS
10
0.364715
20
0.241641
11
0.365489
21
0.25
0
LINE
8
BLACK
6
CONTINUOUS
10
0.365489
20
0.25
11
0.364715
21
0.258359
0
LINE
8
BLACK
6
CONTINUOUS
10
0.364715
20
0.258359
11
0.362418
21
0.266433
0
LINE
8
BLACK
6
CONTINUOUS
10
0.362418
20
0.266433
11
0.358676
21
0.273947
0
LINE
8
BLACK
6
CONTINUOUS
10
0.358676
20
0.273947
11
0.353617
21
0.280646
0
LINE
8
BLACK
6
CONTINUOUS
10
0.353617
20
0.280646
11
0.350781
21
0.283231
0
LINE
8
BLACK
6
CONTINUOUS
10
0.350781
20
0.283231
11
0.347414
21
0.286301
0
LINE
8
BLACK
6
CONTINUOUS
10
0.347414
20
0.286301
11
0.347413
21
0.286301
0
LINE
8
BLACK
6
CONTINUOUS
10
0.347413
20
0.286301
11
0.340277
21
0.29072
0
LINE
8
BLACK
6
CONTINUOUS
10
0.340277
20
0.29072
11
0.340276
21
0.29072
0
LINE
8
BLACK
6
CONTINUOUS
10
0.340276
20
0.29072
11
0.335649
21
0.292513
0
LINE
8
BLACK
6
CONTINUOUS
10
0.335649
20
0.292513
11
0.332449
21
0.293753
0
LINE
8
BLACK
6
CONTINUOUS
10
0.332449
20
0.293753
11
0.332449
21
0.293753
0
LINE
8
BLACK
6
CONTINUOUS
10
0.332449
20
0.293753
11
0.332449
21
0.293753
0
LINE
8
BLACK
6
CONTINUOUS
10
0.332449
20
0.293753
11
0.324197
21
0.295295
0
LINE
8
BLACK
6
CONTINUOUS
10
0.324197
20
0.295295
11
0.315803
21
0.295295
0
LINE
8
BLACK
6
CONTINUOUS
10
0.315803
20
0.295295
11
0.307551
21
0.293753
0
LINE
8
BLACK
6
CONTINUOUS
10
0.307551
20
0.293753
11
0.299724
21
0.29072
0
LINE
8
BLACK
6
CONTINUOUS
10
0.299724
20
0.29072
11
0.299723
21
0.29072
0
LINE
8
BLACK
6
CONTINUOUS
10
0.299723
20
0.29072
11
0.292587
21
0.286301
0
LINE
8
BLACK
6
CONTINUOUS
10
0.292587
20
0.286301
11
0.292586
21
0.286301
0
LINE
8
BLACK
6
CONTINUOUS
10
0.292586
20
0.286301
11
0.286383
21
0.280646
0
LINE
8
BLACK
6
CONTINUOUS
10
0.286383
20
0.280646
11
0.286383
21
0.280646
0
LINE
8
BLACK
6
CONTINUOUS
10
0.286383
20
0.280646
11
0.286383
21
0.280646
0
LINE
8
BLACK
6
CONTINUOUS
10
0.286383
20
0.280646
11
0.286383
21
0.280646
0
LINE
8
BLACK
6
CONTINUOUS
10
0.286383
20
0.280646
11
0.286383
21
0.280646
0
LINE
8
BLACK
6
CONTINUOUS
10
0.286383
20
0.280646
11
0.281324
21
0.273947
0
LINE
8
BLACK
6
CONTINUOUS
10
0.281324
20
0.273947
11
0.281324
21
0.273947
0
LINE
8
BLACK
6
CONTINUOUS
10
0.281324
20
0.273947
11
0.277583
21
0.266433
0
LINE
8
BLACK
6
CONTINUOUS
10
0.277583
20
0.266433
11
0.275285
21
0.258359
0
LINE
8
BLACK
6
CONTINUOUS
10
0.275285
20
0.258359
11
0.274773
21
0.25283
0
LINE
8
BLACK
6
CONTINUOUS
10
0.274773
20
0.25283
11
0.274511
21
0.25
0
LINE
8
BLACK
6
CONTINUOUS
10
0.274511
20
0.25
11
0.274773
21
0.24717
0
LINE
8
BLACK
6
CONTINUOUS
10
0.274773
20
0.24717
11
0.275127
21
0.243348
0
LINE
8
BLACK
6
CONTINUOUS
10
0.275127
20
0.243348
11
0.274597
21
0.240998
0
LINE
8
BLACK
6
CONTINUOUS
10
0.274597
20
0.240998
11
0.272787
21
0.239408
0
LINE
8
BLACK
6
CONTINUOUS
10
0.272787
20
0.239408
11
0.271246
21
0.239091
0
LINE
8
BLACK
6
CONTINUOUS
10
0.271246
20
0.239091
11
0.0777404
21
0.239091
0
LINE
8
BLACK
6
CONTINUOUS
10
0.0777404
20
0.239091
11
0.0754494
21
0.239835
0
LINE
8
BLACK
6
CONTINUOUS
10
0.0754494
20
0.239835
11
0.0749843
21
0.240232
0
LINE
8
BLACK
6
CONTINUOUS
10
0.0749843
20
0.240232
11
0.0356141
21
0.279602
0
LINE
8
BLACK
6
CONTINUOUS
10
0.0356141
20
0.279602
11
-0.0100719
21
0.325288
0
LINE
8
BLACK
6
CONTINUOUS
10
-0.0100719
20
0.325288
11
-0.0111655
21
0.327435
0
LINE
8
BLACK
6
CONTINUOUS
10
-0.0111655
20
0.327435
11
-0.0107887
21
0.329814
0
LINE
8
BLACK
6
CONTINUOUS
10
-0.0107887
20
0.329814
11
-0.00990055
21
0.330962
0
LINE
8
BLACK
6
CONTINUOUS
10
-0.00990055
20
0.330962
11
-0.00920539
21
0.331578
0
LINE
8
BLACK
6
CONTINUOUS
10
-0.00920539
20
0.331578
11
-0.00540087
21
0.337089
0
LINE
8
BLACK
6
CONTINUOUS
10
-0.00540087
20
0.337089
11
-0.00302598
21
0.343351
0
LINE
8
BLACK
6
CONTINUOUS
10
-0.00302598
20
0.343351
11
-0.0022187
21
0.35
0
LINE
8
BLACK
6
CONTINUOUS
10
-0.0022187
20
0.35
11
-0.00302598
21
0.356649
0
LINE
8
BLACK
6
CONTINUOUS
10
-0.00302598
20
0.356649
11
-0.00540087
21
0.362911
0
LINE
8
BLACK
6
CONTINUOUS
10
-0.00540087
20
0.362911
11
-0.00920539
21
0.368422
0
LINE
8
BLACK
6
CONTINUOUS
10
-0.00920539
20
0.368422
11
-0.0104225
21
0.369501
0
LINE
8
BLACK
6
CONTINUOUS
10
-0.0104225
20
0.369501
11
-0.0142184
21
0.372864
0
LINE
8
BLACK
6
CONTINUOUS
10
-0.0142184
20
0.372864
11
-0.0142184
21
0.372864
0
LINE
8
BLACK
6
CONTINUOUS
10
-0.0142184
20
0.372864
11
-0.0201486
21
0.375976
0
LINE
8
BLACK
6
CONTINUOUS
10
-0.0201486
20
0.375976
11
-0.0201487
21
0.375976
0
LINE
8
BLACK
6
CONTINUOUS
10
-0.0201487
20
0.375976
11
-0.0201487
21
0.375976
0
LINE
8
BLACK
6
CONTINUOUS
10
-0.0201487
20
0.375976
11
-0.0266513
21
0.377579
0
LINE
8
BLACK
6
CONTINUOUS
10
-0.0266513
20
0.377579
11
-0.0266513
21
0.377579
0
LINE
8
BLACK
6
CONTINUOUS
10
-0.0266513
20
0.377579
11
-0.0333487
21
0.377579
0
LINE
8
BLACK
6
CONTINUOUS
10
-0.0333487
20
0.377579
11
-0.0333488
21
0.377579
0
LINE
8
BLACK
6
CONTINUOUS
10
-0.0333488
20
0.377579
11
-0.0398513
21
0.375976
0
LINE
8
BLACK
6
CONTINUOUS
10
-0.0398513
20
0.375976
11
-0.0457817
21
0.372864
0
LINE
8
BLACK
6
CONTINUOUS
10
-0.0457817
20
0.372864
11
-0.0507946
21
0.368422
0
LINE
8
BLACK
6
CONTINUOUS
10
-0.0507946
20
0.368422
11
-0.0507946
21
0.368422
0
LINE
8
BLACK
6
CONTINUOUS
10
-0.0507946
20
0.368422
11
-0.0533306
21
0.364748
0
LINE
8
BLACK
6
CONTINUOUS
10
-0.0533306
20
0.364748
11
-0.0545991
21
0.362911
0
LINE
8
BLACK
6
CONTINUOUS
10
-0.0545991
20
0.362911
11
-0.056974
21
0.356649
0
LINE
8
BLACK
6
CONTINUOUS
10
-0.056974
20
0.356649
11
-0.0577813
21
0.35
0
LINE
8
BLACK
6
CONTINUOUS
10
-0.0577813
20
0.35
11
-0.056974
21
0.343351
0
LINE
8
BLACK
6
CONTINUOUS
10
0.43
20
0.281899
11
0.430341
21
0.281827
0
LINE
8
BLACK
6
CONTINUOUS
10
0.430341
20
0.281827
11
0.436732
21
0.278981
0
LINE
8
BLACK
6
CONTINUOUS
10
0.436732
20
0.278981
11
0.442392
21
0.274869
0
LINE
8
BLACK
6
CONTINUOUS
10
0.442392
20
0.274869
11
0.447073
21
0.26967
0
LINE
8
BLACK
6
CONTINUOUS
10
0.447073
20
0.26967
11
0.450571
21
0.263611
0
LINE
8
BLACK
6
CONTINUOUS
10
0.450571
20
0.263611
11
0.451745
21
0.26
0
LINE
8
BLACK
6
CONTINUOUS
10
0.451745
20
0.26
11
0.464227
21
0.26
0
LINE
8
BLACK
6
CONTINUOUS
10
0.464227
20
0.26
11
0.462399
21
0.266426
0
LINE
8
BLACK
6
CONTINUOUS
10
0.462399
20
0.266426
11
0.458659
21
0.273936
0
LINE
8
BLACK
6
CONTINUOUS
10
0.458659
20
0.273936
11
0.458659
21
0.273937
0
LINE
8
BLACK
6
CONTINUOUS
10
0.458659
20
0.273937
11
0.453602
21
0.280632
0
LINE
8
BLACK
6
CONTINUOUS
10
0.453602
20
0.280632
11
0.453602
21
0.280633
0
LINE
8
BLACK
6
CONTINUOUS
10
0.453602
20
0.280633
11
0.447402
21
0.286285
0
LINE
8
BLACK
6
CONTINUOUS
10
0.447402
20
0.286285
11
0.447402
21
0.286285
0
LINE
8
BLACK
6
CONTINUOUS
10
0.447402
20
0.286285
11
0.440267
21
0.290703
0
LINE
8
BLACK
6
CONTINUOUS
10
0.440267
20
0.290703
11
0.432443
21
0.293734
0
LINE
8
BLACK
6
CONTINUOUS
10
0.432443
20
0.293734
11
0.432443
21
0.293734
0
LINE
8
BLACK
6
CONTINUOUS
10
0.432443
20
0.293734
11
0.43
21
0.294191
0
LINE
8
BLACK
6
CONTINUOUS
10
0.43
20
0.294191
11
0.43
21
0.281899
0
LINE
8
BLACK
6
CONTINUOUS
10
0.407557
20
0.293734
11
0.407557
21
0.293734
0
LINE
8
BLACK
6
CONTINUOUS
10
0.407557
20
0.293734
11
0.399733
21
0.290703
0
LINE
8
BLACK
6
CONTINUOUS
10
0.399733
20
0.290703
11
0.392598
21
0.286285
0
LINE
8
BLACK
6
CONTINUOUS
10
0.392598
20
0.286285
11
0.386398
21
0.280633
0
LINE
8
BLACK
6
CONTINUOUS
10
0.386398
20
0.280633
11
0.386397
21
0.280632
0
LINE
8
BLACK
6
CONTINUOUS
10
0.386397
20
0.280632
11
0.381341
21
0.273937
0
LINE
8
BLACK
6
CONTINUOUS
10
0.381341
20
0.273937
11
0.381341
21
0.273936
0
LINE
8
BLACK
6
CONTINUOUS
10
0.381341
20
0.273936
11
0.377601
21
0.266426
0
LINE
8
BLACK
6
CONTINUOUS
10
0.377601
20
0.266426
11
0.375773
21
0.26
0
LINE
8
BLACK
6
CONTINUOUS
10
0.375773
20
0.26
11
0.388255
21
0.26
0
LINE
8
BLACK
6
CONTINUOUS
10
0.388255
20
0.26
11
0.389429
21
0.263611
0
LINE
8
BLACK
6
CONTINUOUS
10
0.389429
20
0.263611
11
0.392927
21
0.26967
0
LINE
8
BLACK
6
CONTINUOUS
10
0.392927
20
0.26967
11
0.397608
21
0.274869
0
LINE
8
BLACK
6
CONTINUOUS
10
0.397608
20
0.274869
11
0.403268
21
0.278981
0
LINE
8
BLACK
6
CONTINUOUS
10
0.403268
20
0.278981
11
0.409659
21
0.281827
0
LINE
8
BLACK
6
CONTINUOUS
10
0.409659
20
0.281827
11
0.41
21
0.281899
0
LINE
8
BLACK
6
CONTINUOUS
10
0.41
20
0.281899
11
0.41
21
0.294191
0
LINE
8
BLACK
6
CONTINUOUS
10
0.41
20
0.294191
11
0.407557
21
0.293734
0
LINE
8
BLACK
6
CONTINUOUS
10
0.069089
20
0.272954
11
0.0714639
21
0.266692
0
LINE
8
BLACK
6
CONTINUOUS
10
0.0714639
20
0.266692
11
0.0752684
21
0.26118
0
LINE
8
BLACK
6
CONTINUOUS
10
0.0752684
20
0.26118
11
0.0802814
21
0.256739
0
LINE
8
BLACK
6
CONTINUOUS
10
0.0802814
20
0.256739
11
0.0862116
21
0.253626
0
LINE
8
BLACK
6
CONTINUOUS
10
0.0862116
20
0.253626
11
0.0927143
21
0.252024
0
LINE
8
BLACK
6
CONTINUOUS
10
0.0927143
20
0.252024
11
0.0927144
21
0.252024
0
LINE
8
BLACK
6
CONTINUOUS
10
0.0927144
20
0.252024
11
0.0994115
21
0.252024
0
LINE
8
BLACK
6
CONTINUOUS
10
0.0994115
20
0.252024
11
0.0994117
21
0.252024
0
LINE
8
BLACK
6
CONTINUOUS
10
0.0994117
20
0.252024
11
0.105914
21
0.253626
0
LINE
8
BLACK
6
CONTINUOUS
10
0.105914
20
0.253626
11
0.111845
21
0.256739
0
LINE
8
BLACK
6
CONTINUOUS
10
0.111845
20
0.256739
11
0.116858
21
0.26118
0
LINE
8
BLACK
6
CONTINUOUS
10
0.116858
20
0.26118
11
0.120662
21
0.266692
0
LINE
8
BLACK
6
CONTINUOUS
10
0.120662
20
0.266692
11
0.123037
21
0.272954
0
LINE
8
BLACK
6
CONTINUOUS
10
0.123037
20
0.272954
11
0.123844
21
0.279602
0
LINE
8
BLACK
6
CONTINUOUS
10
0.123844
20
0.279602
11
0.123795
21
0.280006
0
LINE
8
BLACK
6
CONTINUOUS
10
0.123795
20
0.280006
11
0.124258
21
0.282369
0
LINE
8
BLACK
6
CONTINUOUS
10
0.124258
20
0.282369
11
0.124908
21
0.283231
0
LINE
8
BLACK
6
CONTINUOUS
10
0.124908
20
0.283231
11
0.172705
21
0.331028
0
LINE
8
BLACK
6
CONTINUOUS
10
0.172705
20
0.331028
11
0.174851
21
0.332121
0
LINE
8
BLACK
6
CONTINUOUS
10
0.174851
20
0.332121
11
0.175461
21
0.332169
0
LINE
8
BLACK
6
CONTINUOUS
10
0.175461
20
0.332169
11
0.275865
21
0.332169
0
LINE
8
BLACK
6
CONTINUOUS
10
0.275865
20
0.332169
11
0.278156
21
0.331425
0
LINE
8
BLACK
6
CONTINUOUS
10
0.278156
20
0.331425
11
0.279354
21
0.330009
0
LINE
8
BLACK
6
CONTINUOUS
10
0.279354
20
0.330009
11
0.281324
21
0.326053
0
LINE
8
BLACK
6
CONTINUOUS
10
0.281324
20
0.326053
11
0.281324
21
0.326053
0
LINE
8
BLACK
6
CONTINUOUS
10
0.281324
20
0.326053
11
0.281324
21
0.326053
0
LINE
8
BLACK
6
CONTINUOUS
10
0.281324
20
0.326053
11
0.286383
21
0.319354
0
LINE
8
BLACK
6
CONTINUOUS
10
0.286383
20
0.319354
11
0.286383
21
0.319354
0
LINE
8
BLACK
6
CONTINUOUS
10
0.286383
20
0.319354
11
0.292586
21
0.313699
0
LINE
8
BLACK
6
CONTINUOUS
10
0.292586
20
0.313699
11
0.292587
21
0.313699
0
LINE
8
BLACK
6
CONTINUOUS
10
0.292587
20
0.313699
11
0.295389
21
0.311963
0
LINE
8
BLACK
6
CONTINUOUS
10
0.295389
20
0.311963
11
0.299724
21
0.30928
0
LINE
8
BLACK
6
CONTINUOUS
10
0.299724
20
0.30928
11
0.307551
21
0.306247
0
LINE
8
BLACK
6
CONTINUOUS
10
0.307551
20
0.306247
11
0.315803
21
0.304705
0
LINE
8
BLACK
6
CONTINUOUS
10
0.315803
20
0.304705
11
0.324197
21
0.304705
0
LINE
8
BLACK
6
CONTINUOUS
10
0.324197
20
0.304705
11
0.332449
21
0.306247
0
LINE
8
BLACK
6
CONTINUOUS
10
0.332449
20
0.306247
11
0.340276
21
0.30928
0
LINE
8
BLACK
6
CONTINUOUS
10
0.340276
20
0.30928
11
0.347413
21
0.313699
0
LINE
8
BLACK
6
CONTINUOUS
10
0.347413
20
0.313699
11
0.353617
21
0.319354
0
LINE
8
BLACK
6
CONTINUOUS
10
0.353617
20
0.319354
11
0.358676
21
0.326053
0
LINE
8
BLACK
6
CONTINUOUS
10
0.358676
20
0.326053
11
0.362418
21
0.333567
0
LINE
8
BLACK
6
CONTINUOUS
10
0.362418
20
0.333567
11
0.364248
21
0.34
0
LINE
8
BLACK
6
CONTINUOUS
10
0.364248
20
0.34
11
0.364715
21
0.341641
0
LINE
8
BLACK
6
CONTINUOUS
10
0.364715
20
0.341641
11
0.365489
21
0.35
0
LINE
8
BLACK
6
CONTINUOUS
10
0.365489
20
0.35
11
0.364715
21
0.358359
0
LINE
8
BLACK
6
CONTINUOUS
10
0.364715
20
0.358359
11
0.362418
21
0.366433
0
LINE
8
BLACK
6
CONTINUOUS
10
0.362418
20
0.366433
11
0.358676
21
0.373947
0
LINE
8
BLACK
6
CONTINUOUS
10
0.358676
20
0.373947
11
0.353617
21
0.380646
0
LINE
8
BLACK
6
CONTINUOUS
10
0.353617
20
0.380646
11
0.351481
21
0.382593
0
LINE
8
BLACK
6
CONTINUOUS
10
0.351481
20
0.382593
11
0.347414
21
0.386301
0
LINE
8
BLACK
6
CONTINUOUS
10
0.347414
20
0.386301
11
0.347413
21
0.386301
0
LINE
8
BLACK
6
CONTINUOUS
10
0.347413
20
0.386301
11
0.340277
21
0.39072
0
LINE
8
BLACK
6
CONTINUOUS
10
0.340277
20
0.39072
11
0.340276
21
0.39072
0
LINE
8
BLACK
6
CONTINUOUS
10
0.340276
20
0.39072
11
0.340276
21
0.39072
0
LINE
8
BLACK
6
CONTINUOUS
10
0.340276
20
0.39072
11
0.332449
21
0.393753
0
LINE
8
BLACK
6
CONTINUOUS
10
0.332449
20
0.393753
11
0.332449
21
0.393753
0
LINE
8
BLACK
6
CONTINUOUS
10
0.332449
20
0.393753
11
0.332449
21
0.393753
0
LINE
8
BLACK
6
CONTINUOUS
10
0.332449
20
0.393753
11
0.324197
21
0.395295
0
LINE
8
BLACK
6
CONTINUOUS
10
0.324197
20
0.395295
11
0.315803
21
0.395295
0
LINE
8
BLACK
6
CONTINUOUS
10
0.315803
20
0.395295
11
0.307551
21
0.393753
0
LINE
8
BLACK
6
CONTINUOUS
10
0.307551
20
0.393753
11
0.299724
21
0.39072
0
LINE
8
BLACK
6
CONTINUOUS
10
0.299724
20
0.39072
11
0.299723
21
0.39072
0
LINE
8
BLACK
6
CONTINUOUS
10
0.299723
20
0.39072
11
0.292587
21
0.386301
0
LINE
8
BLACK
6
CONTINUOUS
10
0.292587
20
0.386301
11
0.292586
21
0.386301
0
LINE
8
BLACK
6
CONTINUOUS
10
0.292586
20
0.386301
11
0.286383
21
0.380646
0
LINE
8
BLACK
6
CONTINUOUS
10
0.286383
20
0.380646
11
0.286383
21
0.380646
0
LINE
8
BLACK
6
CONTINUOUS
10
0.286383
20
0.380646
11
0.286383
21
0.380646
0
LINE
8
BLACK
6
CONTINUOUS
10
0.286383
20
0.380646
11
0.286383
21
0.380646
0
LINE
8
BLACK
6
CONTINUOUS
10
0.286383
20
0.380646
11
0.286383
21
0.380646
0
LINE
8
BLACK
6
CONTINUOUS
10
0.286383
20
0.380646
11
0.281324
21
0.373947
0
LINE
8
BLACK
6
CONTINUOUS
10
0.281324
20
0.373947
11
0.281324
21
0.373947
0
LINE
8
BLACK
6
CONTINUOUS
10
0.281324
20
0.373947
11
0.279354
21
0.369991
0
LINE
8
BLACK
6
CONTINUOUS
10
0.279354
20
0.369991
11
0.277667
21
0.368272
0
LINE
8
BLACK
6
CONTINUOUS
10
0.277667
20
0.368272
11
0.275865
21
0.367831
0
LINE
8
BLACK
6
CONTINUOUS
10
0.275865
20
0.367831
11
0.167572
21
0.367831
0
LINE
8
BLACK
6
CONTINUOUS
10
0.167572
20
0.367831
11
0.167353
21
0.367843
0
LINE
8
BLACK
6
CONTINUOUS
10
0.167353
20
0.367843
11
0.165786
21
0.368019
0
LINE
8
BLACK
6
CONTINUOUS
10
0.165786
20
0.368019
11
0.165786
21
0.368019
0
LINE
8
BLACK
6
CONTINUOUS
10
0.165786
20
0.368019
11
0.163474
21
0.367582
0
LINE
8
BLACK
6
CONTINUOUS
10
0.163474
20
0.367582
11
0.161146
21
0.367231
0
LINE
8
BLACK
6
CONTINUOUS
10
0.161146
20
0.367231
11
0.160867
21
0.367145
0
LINE
8
BLACK
6
CONTINUOUS
10
0.160867
20
0.367145
11
0.160862
21
0.367161
0
LINE
8
BLACK
6
CONTINUOUS
10
0.160862
20
0.367161
11
0.160775
21
0.367133
0
LINE
8
BLACK
6
CONTINUOUS
10
0.160775
20
0.367133
11
0.160781
21
0.367117
0
LINE
8
BLACK
6
CONTINUOUS
10
0.160781
20
0.367117
11
0.160505
21
0.36702
0
LINE
8
BLACK
6
CONTINUOUS
10
0.160505
20
0.36702
11
0.158424
21
0.365921
0
LINE
8
BLACK
6
CONTINUOUS
10
0.158424
20
0.365921
11
0.156303
21
0.364899
0
LINE
8
BLACK
6
CONTINUOUS
10
0.156303
20
0.364899
11
0.156061
21
0.364734
0
LINE
8
BLACK
6
CONTINUOUS
10
0.156061
20
0.364734
11
0.156052
21
0.364748
0
LINE
8
BLACK
6
CONTINUOUS
10
0.156052
20
0.364748
11
0.155978
21
0.364696
0
LINE
8
BLACK
6
CONTINUOUS
10
0.155978
20
0.364696
11
0.155988
21
0.364682
0
LINE
8
BLACK
6
CONTINUOUS
10
0.155988
20
0.364682
11
0.155753
21
0.364509
0
LINE
8
BLACK
6
CONTINUOUS
10
0.155753
20
0.364509
11
0.154089
21
0.362844
0
LINE
8
BLACK
6
CONTINUOUS
10
0.154089
20
0.362844
11
0.152363
21
0.361243
0
LINE
8
BLACK
6
CONTINUOUS
10
0.152363
20
0.361243
11
0.15218
21
0.361014
0
LINE
8
BLACK
6
CONTINUOUS
10
0.15218
20
0.361014
11
0.152167
21
0.361025
0
LINE
8
BLACK
6
CONTINUOUS
10
0.152167
20
0.361025
11
0.15183
21
0.360586
0
LINE
8
BLACK
6
CONTINUOUS
10
0.15183
20
0.360586
11
0.0995669
21
0.308323
0
LINE
8
BLACK
6
CONTINUOUS
10
0.0995669
20
0.308323
11
0.0974206
21
0.307229
0
LINE
8
BLACK
6
CONTINUOUS
10
0.0974206
20
0.307229
11
0.0968108
21
0.307181
0
LINE
8
BLACK
6
CONTINUOUS
10
0.0968108
20
0.307181
11
0.0927142
21
0.307181
0
LINE
8
BLACK
6
CONTINUOUS
10
0.0927142
20
0.307181
11
0.0862117
21
0.305578
0
LINE
8
BLACK
6
CONTINUOUS
10
0.0862117
20
0.305578
11
0.0802813
21
0.302466
0
LINE
8
BLACK
6
CONTINUOUS
10
0.0802813
20
0.302466
11
0.0752684
21
0.298025
0
LINE
8
BLACK
6
CONTINUOUS
10
0.0752684
20
0.298025
11
0.0752683
21
0.298025
0
LINE
8
BLACK
6
CONTINUOUS
10
0.0752683
20
0.298025
11
0.0723196
21
0.293753
0
LINE
8
BLACK
6
CONTINUOUS
10
0.0723196
20
0.293753
11
0.0714639
21
0.292513
0
LINE
8
BLACK
6
CONTINUOUS
10
0.0714639
20
0.292513
11
0.0691021
21
0.286285
0
LINE
8
BLACK
6
CONTINUOUS
10
0.0691021
20
0.286285
11
0.069089
21
0.286251
0
LINE
8
BLACK
6
CONTINUOUS
10
0.069089
20
0.286251
11
0.0684084
21
0.280646
0
LINE
8
BLACK
6
CONTINUOUS
10
0.0684084
20
0.280646
11
0.0682817
21
0.279602
0
LINE
8
BLACK
6
CONTINUOUS
10
0.0682817
20
0.279602
11
0.069089
21
0.272954
0
LINE
8
BLACK
6
CONTINUOUS
10
0.450571
20
0.336389
11
0.447073
21
0.33033
0
LINE
8
BLACK
6
CONTINUOUS
10
0.447073
20
0.33033
11
0.442392
21
0.325131
0
LINE
8
BLACK
6
CONTINUOUS
10
0.442392
20
0.325131
11
0.436732
21
0.321019
0
LINE
8
BLACK
6
CONTINUOUS
10
0.436732
20
0.321019
11
0.430341
21
0.318173
0
LINE
8
BLACK
6
CONTINUOUS
10
0.430341
20
0.318173
11
0.43
21
0.318101
0
LINE
8
BLACK
6
CONTINUOUS
10
0.43
20
0.318101
11
0.43
21
0.305809
0
LINE
8
BLACK
6
CONTINUOUS
10
0.43
20
0.305809
11
0.432443
21
0.306266
0
LINE
8
BLACK
6
CONTINUOUS
10
0.432443
20
0.306266
11
0.440267
21
0.309297
0
LINE
8
BLACK
6
CONTINUOUS
10
0.440267
20
0.309297
11
0.447402
21
0.313715
0
LINE
8
BLACK
6
CONTINUOUS
10
0.447402
20
0.313715
11
0.453602
21
0.319367
0
LINE
8
BLACK
6
CONTINUOUS
10
0.453602
20
0.319367
11
0.453602
21
0.319368
0
LINE
8
BLACK
6
CONTINUOUS
10
0.453602
20
0.319368
11
0.458659
21
0.326063
0
LINE
8
BLACK
6
CONTINUOUS
10
0.458659
20
0.326063
11
0.458659
21
0.326064
0
LINE
8
BLACK
6
CONTINUOUS
10
0.458659
20
0.326064
11
0.462399
21
0.333574
0
LINE
8
BLACK
6
CONTINUOUS
10
0.462399
20
0.333574
11
0.464227
21
0.34
0
LINE
8
BLACK
6
CONTINUOUS
10
0.464227
20
0.34
11
0.451745
21
0.34
0
LINE
8
BLACK
6
CONTINUOUS
10
0.451745
20
0.34
11
0.450571
21
0.336389
0
LINE
8
BLACK
6
CONTINUOUS
10
0.43
20
0.381899
11
0.430341
21
0.381827
0
LINE
8
BLACK
6
CONTINUOUS
10
0.430341
20
0.381827
11
0.436732
21
0.378981
0
LINE
8
BLACK
6
CONTINUOUS
10
0.436732
20
0.378981
11
0.442392
21
0.374869
0
LINE
8
BLACK
6
CONTINUOUS
10
0.442392
20
0.374869
11
0.447073
21
0.36967
0
LINE
8
BLACK
6
CONTINUOUS
10
0.447073
20
0.36967
11
0.450571
21
0.363611
0
LINE
8
BLACK
6
CONTINUOUS
10
0.450571
20
0.363611
11
0.451745
21
0.36
0
LINE
8
BLACK
6
CONTINUOUS
10
0.451745
20
0.36
11
0.464227
21
0.36
0
LINE
8
BLACK
6
CONTINUOUS
10
0.464227
20
0.36
11
0.462399
21
0.366426
0
LINE
8
BLACK
6
CONTINUOUS
10
0.462399
20
0.366426
11
0.458659
21
0.373936
0
LINE
8
BLACK
6
CONTINUOUS
10
0.458659
20
0.373936
11
0.458659
21
0.373937
0
LINE
8
BLACK
6
CONTINUOUS
10
0.458659
20
0.373937
11
0.453602
21
0.380632
0
LINE
8
BLACK
6
CONTINUOUS
10
0.453602
20
0.380632
11
0.453602
21
0.380633
0
LINE
8
BLACK
6
CONTINUOUS
10
0.453602
20
0.380633
11
0.447402
21
0.386285
0
LINE
8
BLACK
6
CONTINUOUS
10
0.447402
20
0.386285
11
0.447402
21
0.386285
0
LINE
8
BLACK
6
CONTINUOUS
10
0.447402
20
0.386285
11
0.440267
21
0.390703
0
LINE
8
BLACK
6
CONTINUOUS
10
0.440267
20
0.390703
11
0.432443
21
0.393734
0
LINE
8
BLACK
6
CONTINUOUS
10
0.432443
20
0.393734
11
0.432443
21
0.393734
0
LINE
8
BLACK
6
CONTINUOUS
10
0.432443
20
0.393734
11
0.43
21
0.394191
0
LINE
8
BLACK
6
CONTINUOUS
10
0.43
20
0.394191
11
0.43
21
0.381899
0
LINE
8
BLACK
6
CONTINUOUS
10
0.407557
20
0.393734
11
0.407557
21
0.393734
0
LINE
8
BLACK
6
CONTINUOUS
10
0.407557
20
0.393734
11
0.399733
21
0.390703
0
LINE
8
BLACK
6
CONTINUOUS
10
0.399733
20
0.390703
11
0.392598
21
0.386285
0
LINE
8
BLACK
6
CONTINUOUS
10
0.392598
20
0.386285
11
0.386398
21
0.380633
0
LINE
8
BLACK
6
CONTINUOUS
10
0.386398
20
0.380633
11
0.386397
21
0.380632
0
LINE
8
BLACK
6
CONTINUOUS
10
0.386397
20
0.380632
11
0.381341
21
0.373937
0
LINE
8
BLACK
6
CONTINUOUS
10
0.381341
20
0.373937
11
0.381341
21
0.373936
0
LINE
8
BLACK
6
CONTINUOUS
10
0.381341
20
0.373936
11
0.377601
21
0.366426
0
LINE
8
BLACK
6
CONTINUOUS
10
0.377601
20
0.366426
11
0.375773
21
0.36
0
LINE
8
BLACK
6
CONTINUOUS
10
0.375773
20
0.36
11
0.388255
21
0.36
0
LINE
8
BLACK
6
CONTINUOUS
10
0.388255
20
0.36
11
0.389429
21
0.363611
0
LINE
8
BLACK
6
CONTINUOUS
10
0.389429
20
0.363611
11
0.392927
21
0.36967
0
LINE
8
BLACK
6
CONTINUOUS
10
0.392927
20
0.36967
11
0.397608
21
0.374869
0
LINE
8
BLACK
6
CONTINUOUS
10
0.397608
20
0.374869
11
0.403268
21
0.378981
0
LINE
8
BLACK
6
CONTINUOUS
10
0.403268
20
0.378981
11
0.409659
21
0.381827
0
LINE
8
BLACK
6
CONTINUOUS
10
0.409659
20
0.381827
11
0.41
21
0.381899
0
LINE
8
BLACK
6
CONTINUOUS
10
0.41
20
0.381899
11
0.41
21
0.394191
0
LINE
8
BLACK
6
CONTINUOUS
10
0.41
20
0.394191
11
0.407557
21
0.393734
0
LINE
8
BLACK
6
CONTINUOUS
10
0.123602
20
0.45543
11
0.123602
21
0.455431
0
LINE
8
BLACK
6
CONTINUOUS
10
0.123602
20
0.455431
11
0.128659
21
0.462126
0
LINE
8
BLACK
6
CONTINUOUS
10
0.128659
20
0.462126
11
0.128659
21
0.462127
0
LINE
8
BLACK
6
CONTINUOUS
10
0.128659
20
0.462127
11
0.132399
21
0.469637
0
LINE
8
BLACK
6
CONTINUOUS
10
0.132399
20
0.469637
11
0.134227
21
0.476063
0
LINE
8
BLACK
6
CONTINUOUS
10
0.134227
20
0.476063
11
0.121745
21
0.476063
0
LINE
8
BLACK
6
CONTINUOUS
10
0.121745
20
0.476063
11
0.120571
21
0.472452
0
LINE
8
BLACK
6
CONTINUOUS
10
0.120571
20
0.472452
11
0.117073
21
0.466393
0
LINE
8
BLACK
6
CONTINUOUS
10
0.117073
20
0.466393
11
0.112392
21
0.461194
0
LINE
8
BLACK
6
CONTINUOUS
10
0.112392
20
0.461194
11
0.106732
21
0.457082
0
LINE
8
BLACK
6
CONTINUOUS
10
0.106732
20
0.457082
11
0.100341
21
0.454236
0
LINE
8
BLACK
6
CONTINUOUS
10
0.100341
20
0.454236
11
0.1
21
0.454164
0
LINE
8
BLACK
6
CONTINUOUS
10
0.1
20
0.454164
11
0.1
21
0.441872
0
LINE
8
BLACK
6
CONTINUOUS
10
0.1
20
0.441872
11
0.102443
21
0.442329
0
LINE
8
BLACK
6
CONTINUOUS
10
0.102443
20
0.442329
11
0.110267
21
0.44536
0
LINE
8
BLACK
6
CONTINUOUS
10
0.110267
20
0.44536
11
0.117402
21
0.449778
0
LINE
8
BLACK
6
CONTINUOUS
10
0.117402
20
0.449778
11
0.117646
21
0.45
0
LINE
8
BLACK
6
CONTINUOUS
10
0.117646
20
0.45
11
0.123602
21
0.45543
0
LINE
8
BLACK
6
CONTINUOUS
10
0.275285
20
0.441641
11
0.276199
21
0.43843
0
LINE
8
BLACK
6
CONTINUOUS
10
0.276199
20
0.43843
11
0.277582
21
0.433567
0
LINE
8
BLACK
6
CONTINUOUS
10
0.277582
20
0.433567
11
0.281324
21
0.426053
0
LINE
8
BLACK
6
CONTINUOUS
10
0.281324
20
0.426053
11
0.286383
21
0.419354
0
LINE
8
BLACK
6
CONTINUOUS
10
0.286383
20
0.419354
11
0.286383
21
0.419354
0
LINE
8
BLACK
6
CONTINUOUS
10
0.286383
20
0.419354
11
0.292586
21
0.413699
0
LINE
8
BLACK
6
CONTINUOUS
10
0.292586
20
0.413699
11
0.292587
21
0.413699
0
LINE
8
BLACK
6
CONTINUOUS
10
0.292587
20
0.413699
11
0.296669
21
0.411171
0
LINE
8
BLACK
6
CONTINUOUS
10
0.296669
20
0.411171
11
0.299724
21
0.40928
0
LINE
8
BLACK
6
CONTINUOUS
10
0.299724
20
0.40928
11
0.307551
21
0.406247
0
LINE
8
BLACK
6
CONTINUOUS
10
0.307551
20
0.406247
11
0.315803
21
0.404705
0
LINE
8
BLACK
6
CONTINUOUS
10
0.315803
20
0.404705
11
0.324197
21
0.404705
0
LINE
8
BLACK
6
CONTINUOUS
10
0.324197
20
0.404705
11
0.332449
21
0.406247
0
LINE
8
BLACK
6
CONTINUOUS
10
0.332449
20
0.406247
11
0.340276
21
0.40928
0
LINE
8
BLACK
6
CONTINUOUS
10
0.340276
20
0.40928
11
0.347413
21
0.413699
0
LINE
8
BLACK
6
CONTINUOUS
10
0.347413
20
0.413699
11
0.353617
21
0.419354
0
LINE
8
BLACK
6
CONTINUOUS
10
0.353617
20
0.419354
11
0.358676
21
0.426053
0
LINE
8
BLACK
6
CONTINUOUS
10
0.358676
20
0.426053
11
0.362418
21
0.433567
0
LINE
8
BLACK
6
CONTINUOUS
10
0.362418
20
0.433567
11
0.364715
21
0.441641
0
LINE
8
BLACK
6
CONTINUOUS
10
0.364715
20
0.441641
11
0.365489
21
0.45
0
LINE
8
BLACK
6
CONTINUOUS
10
0.365489
20
0.45
11
0.364715
21
0.458359
0
LINE
8
BLACK
6
CONTINUOUS
10
0.364715
20
0.458359
11
0.362418
21
0.466433
0
LINE
8
BLACK
6
CONTINUOUS
10
0.362418
20
0.466433
11
0.358676
21
0.473947
0
LINE
8
BLACK
6
CONTINUOUS
10
0.358676
20
0.473947
11
0.353617
21
0.480646
0
LINE
8
BLACK
6
CONTINUOUS
10
0.353617
20
0.480646
11
0.347675
21
0.486063
0
LINE
8
BLACK
6
CONTINUOUS
10
0.347675
20
0.486063
11
0.347414
21
0.486301
0
LINE
8
BLACK
6
CONTINUOUS
10
0.347414
20
0.486301
11
0.347413
21
0.486301
0
LINE
8
BLACK
6
CONTINUOUS
10
0.347413
20
0.486301
11
0.340277
21
0.49072
0
LINE
8
BLACK
6
CONTINUOUS
10
0.340277
20
0.49072
11
0.340276
21
0.49072
0
LINE
8
BLACK
6
CONTINUOUS
10
0.340276
20
0.49072
11
0.332449
21
0.493753
0
LINE
8
BLACK
6
CONTINUOUS
10
0.332449
20
0.493753
11
0.324197
21
0.495295
0
LINE
8
BLACK
6
CONTINUOUS
10
0.324197
20
0.495295
11
0.315803
21
0.495295
0
LINE
8
BLACK
6
CONTINUOUS
10
0.315803
20
0.495295
11
0.307551
21
0.493753
0
LINE
8
BLACK
6
CONTINUOUS
10
0.307551
20
0.493753
11
0.299724
21
0.49072
0
LINE
8
BLACK
6
CONTINUOUS
10
0.299724
20
0.49072
11
0.299723
21
0.49072
0
LINE
8
BLACK
6
CONTINUOUS
10
0.299723
20
0.49072
11
0.292587
21
0.486301
0
LINE
8
BLACK
6
CONTINUOUS
10
0.292587
20
0.486301
11
0.292586
21
0.486301
0
LINE
8
BLACK
6
CONTINUOUS
10
0.292586
20
0.486301
11
0.286383
21
0.480646
0
LINE
8
BLACK
6
CONTINUOUS
10
0.286383
20
0.480646
11
0.286383
21
0.480646
0
LINE
8
BLACK
6
CONTINUOUS
10
0.286383
20
0.480646
11
0.286383
21
0.480646
0
LINE
8
BLACK
6
CONTINUOUS
10
0.286383
20
0.480646
11
0.286383
21
0.480646
0
LINE
8
BLACK
6
CONTINUOUS
10
0.286383
20
0.480646
11
0.286383
21
0.480646
0
LINE
8
BLACK
6
CONTINUOUS
10
0.286383
20
0.480646
11
0.281324
21
0.473947
0
LINE
8
BLACK
6
CONTINUOUS
10
0.281324
20
0.473947
11
0.281324
21
0.473947
0
LINE
8
BLACK
6
CONTINUOUS
10
0.281324
20
0.473947
11
0.277583
21
0.466433
0
LINE
8
BLACK
6
CONTINUOUS
10
0.277583
20
0.466433
11
0.275285
21
0.458359
0
LINE
8
BLACK
6
CONTINUOUS
10
0.275285
20
0.458359
11
0.274511
21
0.45
0
LINE
8
BLACK
6
CONTINUOUS
10
0.274511
20
0.45
11
0.275285
21
0.441641
0
LINE
8
BLACK
6
CONTINUOUS
10
0.375285
20
0.441641
11
0.376199
21
0.43843
0
LINE
8
BLACK
6
CONTINUOUS
10
0.376199
20
0.43843
11
0.377582
21
0.433567
0
LINE
8
BLACK
6
CONTINUOUS
10
0.377582
20
0.433567
11
0.381324
21
0.426053
0
LINE
8
BLACK
6
CONTINUOUS
10
0.381324
20
0.426053
11
0.386383
21
0.419354
0
LINE
8
BLACK
6
CONTINUOUS
10
0.386383
20
0.419354
11
0.386383
21
0.419354
0
LINE
8
BLACK
6
CONTINUOUS
10
0.386383
20
0.419354
11
0.392586
21
0.413699
0
LINE
8
BLACK
6
CONTINUOUS
10
0.392586
20
0.413699
11
0.392587
21
0.413699
0
LINE
8
BLACK
6
CONTINUOUS
10
0.392587
20
0.413699
11
0.396669
21
0.411171
0
LINE
8
BLACK
6
CONTINUOUS
10
0.396669
20
0.411171
11
0.399724
21
0.40928
0
LINE
8
BLACK
6
CONTINUOUS
10
0.399724
20
0.40928
11
0.407551
21
0.406247
0
LINE
8
BLACK
6
CONTINUOUS
10
0.407551
20
0.406247
11
0.415803
21
0.404705
0
LINE
8
BLACK
6
CONTINUOUS
10
0.415803
20
0.404705
11
0.424197
21
0.404705
0
LINE
8
BLACK
6
CONTINUOUS
10
0.424197
20
0.404705
11
0.432449
21
0.406247
0
LINE
8
BLACK
6
CONTINUOUS
10
0.432449
20
0.406247
11
0.440276
21
0.40928
0
LINE
8
BLACK
6
CONTINUOUS
10
0.440276
20
0.40928
11
0.447413
21
0.413699
0
LINE
8
BLACK
6
CONTINUOUS
10
0.447413
20
0.413699
11
0.453617
21
0.419354
0
LINE
8
BLACK
6
CONTINUOUS
10
0.453617
20
0.419354
11
0.458676
21
0.426053
0
LINE
8
BLACK
6
CONTINUOUS
10
0.458676
20
0.426053
11
0.462418
21
0.433567
0
LINE
8
BLACK
6
CONTINUOUS
10
0.462418
20
0.433567
11
0.464715
21
0.441641
0
LINE
8
BLACK
6
CONTINUOUS
10
0.464715
20
0.441641
11
0.465489
21
0.45
0
LINE
8
BLACK
6
CONTINUOUS
10
0.465489
20
0.45
11
0.464715
21
0.458359
0
LINE
8
BLACK
6
CONTINUOUS
10
0.464715
20
0.458359
11
0.462418
21
0.466433
0
LINE
8
BLACK
6
CONTINUOUS
10
0.462418
20
0.466433
11
0.458676
21
0.473947
0
LINE
8
BLACK
6
CONTINUOUS
10
0.458676
20
0.473947
11
0.453617
21
0.480646
0
LINE
8
BLACK
6
CONTINUOUS
10
0.453617
20
0.480646
11
0.447675
21
0.486063
0
LINE
8
BLACK
6
CONTINUOUS
10
0.447675
20
0.486063
11
0.447414
21
0.486301
0
LINE
8
BLACK
6
CONTINUOUS
10
0.447414
20
0.486301
11
0.447413
21
0.486301
0
LINE
8
BLACK
6
CONTINUOUS
10
0.447413
20
0.486301
11
0.440277
21
0.49072
0
LINE
8
BLACK
6
CONTINUOUS
10
0.440277
20
0.49072
11
0.440276
21
0.49072
0
LINE
8
BLACK
6
CONTINUOUS
10
0.440276
20
0.49072
11
0.432449
21
0.493753
0
LINE
8
BLACK
6
CONTINUOUS
10
0.432449
20
0.493753
11
0.424197
21
0.495295
0
LINE
8
BLACK
6
CONTINUOUS
10
0.424197
20
0.495295
11
0.415803
21
0.495295
0
LINE
8
BLACK
6
CONTINUOUS
10
0.415803
20
0.495295
11
0.407551
21
0.493753
0
LINE
8
BLACK
6
CONTINUOUS
10
0.407551
20
0.493753
11
0.399724
21
0.49072
0
LINE
8
BLACK
6
CONTINUOUS
10
0.399724
20
0.49072
11
0.399723
21
0.49072
0
LINE
8
BLACK
6
CONTINUOUS
10
0.399723
20
0.49072
11
0.392587
21
0.486301
0
LINE
8
BLACK
6
CONTINUOUS
10
0.392587
20
0.486301
11
0.392586
21
0.486301
0
LINE
8
BLACK
6
CONTINUOUS
10
0.392586
20
0.486301
11
0.386383
21
0.480646
0
LINE
8
BLACK
6
CONTINUOUS
10
0.386383
20
0.480646
11
0.386383
21
0.480646
0
LINE
8
BLACK
6
CONTINUOUS
10
0.386383
20
0.480646
11
0.386383
21
0.480646
0
LINE
8
BLACK
6
CONTINUOUS
10
0.386383
20
0.480646
11
0.386383
21
0.480646
0
LINE
8
BLACK
6
CONTINUOUS
10
0.386383
20
0.480646
11
0.386383
21
0.480646
0
LINE
8
BLACK
6
CONTINUOUS
10
0.386383
20
0.480646
11
0.381324
21
0.473947
0
LINE
8
BLACK
6
CONTINUOUS
10
0.381324
20
0.473947
11
0.381324
21
0.473947
0
LINE
8
BLACK
6
CONTINUOUS
10
0.381324
20
0.473947
11
0.377583
21
0.466433
0
LINE
8
BLACK
6
CONTINUOUS
10
0.377583
20
0.466433
11
0.375285
21
0.458359
0
LINE
8
BLACK
6
CONTINUOUS
10
0.375285
20
0.458359
11
0.374511
21
0.45
0
LINE
8
BLACK
6
CONTINUOUS
10
0.374511
20
0.45
11
0.375285
21
0.441641
0
LINE
8
BLACK
6
CONTINUOUS
10
0.0398376
20
0.659012
11
0.038578
21
0.658922
0
LINE
8
BLACK
6
CONTINUOUS
10
0.038578
20
0.658922
11
0.0384389
21
0.658917
0
LINE
8
BLACK
6
CONTINUOUS
10
0.0384389
20
0.658917
11
0.0378031
21
0.658917
0
LINE
8
BLACK
6
CONTINUOUS
10
0.0378031
20
0.658917
11
0.0371737
21
0.658827
0
LINE
8
BLACK
6
CONTINUOUS
10
0.0371737
20
0.658827
11
0.0370354
21
0.658812
0
LINE
8
BLACK
6
CONTINUOUS
10
0.0370354
20
0.658812
11
0.034981
21
0.658665
0
LINE
8
BLACK
6
CONTINUOUS
10
0.034981
20
0.658665
11
0.0347036
21
0.658562
0
LINE
8
BLACK
6
CONTINUOUS
10
0.0347036
20
0.658562
11
0.033897
21
0.658356
0
LINE
8
BLACK
6
CONTINUOUS
10
0.033897
20
0.658356
11
0.0336042
21
0.658314
0
LINE
8
BLACK
6
CONTINUOUS
10
0.0336042
20
0.658314
11
0.0336041
21
0.658314
0
LINE
8
BLACK
6
CONTINUOUS
10
0.0336041
20
0.658314
11
0.0336041
21
0.658314
0
LINE
8
BLACK
6
CONTINUOUS
10
0.0336041
20
0.658314
11
0.033604
21
0.658314
0
LINE
8
BLACK
6
CONTINUOUS
10
0.033604
20
0.658314
11
0.0336039
21
0.658314
0
LINE
8
BLACK
6
CONTINUOUS
10
0.0336039
20
0.658314
11
0.0317307
21
0.657458
0
LINE
8
BLACK
6
CONTINUOUS
10
0.0317307
20
0.657458
11
0.0316022
21
0.657405
0
LINE
8
BLACK
6
CONTINUOUS
10
0.0316022
20
0.657405
11
0.0296721
21
0.656685
0
LINE
8
BLACK
6
CONTINUOUS
10
0.0296721
20
0.656685
11
0.029672
21
0.656685
0
LINE
8
BLACK
6
CONTINUOUS
10
0.029672
20
0.656685
11
0.0294349
21
0.656507
0
LINE
8
BLACK
6
CONTINUOUS
10
0.0294349
20
0.656507
11
0.028719
21
0.656083
0
LINE
8
BLACK
6
CONTINUOUS
10
0.028719
20
0.656083
11
0.0284498
21
0.65596
0
LINE
8
BLACK
6
CONTINUOUS
10
0.0284498
20
0.65596
11
0.0268936
21
0.654611
0
LINE
8
BLACK
6
CONTINUOUS
10
0.0268936
20
0.654611
11
0.0267854
21
0.654524
0
LINE
8
BLACK
6
CONTINUOUS
10
0.0267854
20
0.654524
11
0.0262759
21
0.654143
0
LINE
8
BLACK
6
CONTINUOUS
10
0.0262759
20
0.654143
11
0.0258262
21
0.653693
0
LINE
8
BLACK
6
CONTINUOUS
10
0.0258262
20
0.653693
11
0.0257244
21
0.653598
0
LINE
8
BLACK
6
CONTINUOUS
10
0.0257244
20
0.653598
11
0.0241677
21
0.652249
0
LINE
8
BLACK
6
CONTINUOUS
10
0.0241677
20
0.652249
11
0.0241676
21
0.652249
0
LINE
8
BLACK
6
CONTINUOUS
10
0.0241676
20
0.652249
11
0.0240076
21
0.652
0
LINE
8
BLACK
6
CONTINUOUS
10
0.0240076
20
0.652
11
0.023485
21
0.651352
0
LINE
8
BLACK
6
CONTINUOUS
10
0.023485
20
0.651352
11
0.00348043
21
0.631347
0
LINE
8
BLACK
6
CONTINUOUS
10
0.00348043
20
0.631347
11
0.00133409
21
0.630254
0
LINE
8
BLACK
6
CONTINUOUS
10
0.00133409
20
0.630254
11
8.18898e-06
21
0.630272
0
LINE
8
BLACK
6
CONTINUOUS
10
8.18898e-06
20
0.630272
11
-0.00580276
21
0.631358
0
LINE
8
BLACK
6
CONTINUOUS
10
-0.00580276
20
0.631358
11
-0.0141972
21
0.631358
0
LINE
8
BLACK
6
CONTINUOUS
10
-0.0141972
20
0.631358
11
-0.0224487
21
0.629816
0
LINE
8
BLACK
6
CONTINUOUS
10
-0.0224487
20
0.629816
11
-0.0302764
21
0.626783
0
LINE
8
BLACK
6
CONTINUOUS
10
-0.0302764
20
0.626783
11
-0.0302766
21
0.626783
0
LINE
8
BLACK
6
CONTINUOUS
10
-0.0302766
20
0.626783
11
-0.0374134
21
0.622364
0
LINE
8
BLACK
6
CONTINUOUS
10
-0.0374134
20
0.622364
11
-0.0374137
21
0.622364
0
LINE
8
BLACK
6
CONTINUOUS
10
-0.0374137
20
0.622364
11
-0.0436167
21
0.616709
0
LINE
8
BLACK
6
CONTINUOUS
10
-0.0436167
20
0.616709
11
-0.0436169
21
0.616709
0
LINE
8
BLACK
6
CONTINUOUS
10
-0.0436169
20
0.616709
11
-0.043617
21
0.616709
0
LINE
8
BLACK
6
CONTINUOUS
10
-0.043617
20
0.616709
11
-0.0436172
21
0.616709
0
LINE
8
BLACK
6
CONTINUOUS
10
-0.0436172
20
0.616709
11
-0.0436171
21
0.616709
0
LINE
8
BLACK
6
CONTINUOUS
10
-0.0436171
20
0.616709
11
-0.0486758
21
0.61001
0
LINE
8
BLACK
6
CONTINUOUS
10
-0.0486758
20
0.61001
11
-0.048676
21
0.61001
0
LINE
8
BLACK
6
CONTINUOUS
10
-0.048676
20
0.61001
11
-0.0524175
21
0.602496
0
LINE
8
BLACK
6
CONTINUOUS
10
-0.0524175
20
0.602496
11
-0.0547148
21
0.594422
0
LINE
8
BLACK
6
CONTINUOUS
10
-0.0547148
20
0.594422
11
-0.0554893
21
0.586063
0
LINE
8
BLACK
6
CONTINUOUS
10
-0.0554893
20
0.586063
11
-0.0547148
21
0.577704
0
LINE
8
BLACK
6
CONTINUOUS
10
-0.0547148
20
0.577704
11
-0.0542478
21
0.576063
0
LINE
8
BLACK
6
CONTINUOUS
10
-0.0542478
20
0.576063
11
-0.0524428
21
0.569719
0
LINE
8
BLACK
6
CONTINUOUS
10
-0.0524428
20
0.569719
11
-0.0524175
21
0.56963
0
LINE
8
BLACK
6
CONTINUOUS
10
-0.0524175
20
0.56963
11
-0.0489989
21
0.562765
0
LINE
8
BLACK
6
CONTINUOUS
10
-0.0489989
20
0.562765
11
-0.0486758
21
0.562116
0
LINE
8
BLACK
6
CONTINUOUS
10
-0.0486758
20
0.562116
11
-0.043617
21
0.555417
0
LINE
8
BLACK
6
CONTINUOUS
10
-0.043617
20
0.555417
11
-0.0436167
21
0.555417
0
LINE
8
BLACK
6
CONTINUOUS
10
-0.0436167
20
0.555417
11
-0.0374137
21
0.549762
0
LINE
8
BLACK
6
CONTINUOUS
10
-0.0374137
20
0.549762
11
-0.0374134
21
0.549762
0
LINE
8
BLACK
6
CONTINUOUS
10
-0.0374134
20
0.549762
11
-0.0373602
21
0.549729
0
LINE
8
BLACK
6
CONTINUOUS
10
-0.0373602
20
0.549729
11
-0.0302763
21
0.545343
0
LINE
8
BLACK
6
CONTINUOUS
10
-0.0302763
20
0.545343
11
-0.0224487
21
0.54231
0
LINE
8
BLACK
6
CONTINUOUS
10
-0.0224487
20
0.54231
11
-0.0199333
21
0.54184
0
LINE
8
BLACK
6
CONTINUOUS
10
-0.0199333
20
0.54184
11
-0.0178183
21
0.540687
0
LINE
8
BLACK
6
CONTINUOUS
10
-0.0178183
20
0.540687
11
-0.0167845
21
0.538512
0
LINE
8
BLACK
6
CONTINUOUS
10
-0.0167845
20
0.538512
11
-0.016752
21
0.538009
0
LINE
8
BLACK
6
CONTINUOUS
10
-0.016752
20
0.538009
11
-0.016752
21
0.534117
0
LINE
8
BLACK
6
CONTINUOUS
10
-0.016752
20
0.534117
11
-0.0174963
21
0.531826
0
LINE
8
BLACK
6
CONTINUOUS
10
-0.0174963
20
0.531826
11
-0.0194452
21
0.53041
0
LINE
8
BLACK
6
CONTINUOUS
10
-0.0194452
20
0.53041
11
-0.0199333
21
0.530286
0
LINE
8
BLACK
6
CONTINUOUS
10
-0.0199333
20
0.530286
11
-0.0224487
21
0.529816
0
LINE
8
BLACK
6
CONTINUOUS
10
-0.0224487
20
0.529816
11
-0.0302764
21
0.526783
0
LINE
8
BLACK
6
CONTINUOUS
10
-0.0302764
20
0.526783
11
-0.0302766
21
0.526783
0
LINE
8
BLACK
6
CONTINUOUS
10
-0.0302766
20
0.526783
11
-0.0374134
21
0.522364
0
LINE
8
BLACK
6
CONTINUOUS
10
-0.0374134
20
0.522364
11
-0.0374137
21
0.522364
0
LINE
8
BLACK
6
CONTINUOUS
10
-0.0374137
20
0.522364
11
-0.0436167
21
0.516709
0
LINE
8
BLACK
6
CONTINUOUS
10
-0.0436167
20
0.516709
11
-0.0436169
21
0.516709
0
LINE
8
BLACK
6
CONTINUOUS
10
-0.0436169
20
0.516709
11
-0.043617
21
0.516709
0
LINE
8
BLACK
6
CONTINUOUS
10
-0.043617
20
0.516709
11
-0.0436172
21
0.516709
0
LINE
8
BLACK
6
CONTINUOUS
10
-0.0436172
20
0.516709
11
-0.0436171
21
0.516709
0
LINE
8
BLACK
6
CONTINUOUS
10
-0.0436171
20
0.516709
11
-0.0486758
21
0.51001
0
LINE
8
BLACK
6
CONTINUOUS
10
-0.0486758
20
0.51001
11
-0.048676
21
0.51001
0
LINE
8
BLACK
6
CONTINUOUS
10
-0.048676
20
0.51001
11
-0.0524175
21
0.502496
0
LINE
8
BLACK
6
CONTINUOUS
10
-0.0524175
20
0.502496
11
-0.0547148
21
0.494422
0
LINE
8
BLACK
6
CONTINUOUS
10
-0.0547148
20
0.494422
11
-0.0554893
21
0.486063
0
LINE
8
BLACK
6
CONTINUOUS
10
-0.0554893
20
0.486063
11
-0.0547148
21
0.477704
0
LINE
8
BLACK
6
CONTINUOUS
10
-0.0547148
20
0.477704
11
-0.0542478
21
0.476063
0
LINE
8
BLACK
6
CONTINUOUS
10
-0.0542478
20
0.476063
11
-0.0524175
21
0.46963
0
LINE
8
BLACK
6
CONTINUOUS
10
-0.0524175
20
0.46963
11
-0.0486758
21
0.462116
0
LINE
8
BLACK
6
CONTINUOUS
10
-0.0486758
20
0.462116
11
-0.043617
21
0.455417
0
LINE
8
BLACK
6
CONTINUOUS
10
-0.043617
20
0.455417
11
-0.0436167
21
0.455417
0
LINE
8
BLACK
6
CONTINUOUS
10
-0.0436167
20
0.455417
11
-0.0374137
21
0.449762
0
LINE
8
BLACK
6
CONTINUOUS
10
-0.0374137
20
0.449762
11
-0.0374134
21
0.449762
0
LINE
8
BLACK
6
CONTINUOUS
10
-0.0374134
20
0.449762
11
-0.0333311
21
0.447234
0
LINE
8
BLACK
6
CONTINUOUS
10
-0.0333311
20
0.447234
11
-0.0302763
21
0.445343
0
LINE
8
BLACK
6
CONTINUOUS
10
-0.0302763
20
0.445343
11
-0.0224487
21
0.44231
0
LINE
8
BLACK
6
CONTINUOUS
10
-0.0224487
20
0.44231
11
-0.0141972
21
0.440768
0
LINE
8
BLACK
6
CONTINUOUS
10
-0.0141972
20
0.440768
11
-0.00580276
21
0.440768
0
LINE
8
BLACK
6
CONTINUOUS
10
-0.00580276
20
0.440768
11
0.00244874
21
0.44231
0
LINE
8
BLACK
6
CONTINUOUS
10
0.00244874
20
0.44231
11
0.0102763
21
0.445343
0
LINE
8
BLACK
6
CONTINUOUS
10
0.0102763
20
0.445343
11
0.0174135
21
0.449762
0
LINE
8
BLACK
6
CONTINUOUS
10
0.0174135
20
0.449762
11
0.023617
21
0.455417
0
LINE
8
BLACK
6
CONTINUOUS
10
0.023617
20
0.455417
11
0.0286758
21
0.462116
0
LINE
8
BLACK
6
CONTINUOUS
10
0.0286758
20
0.462116
11
0.0324175
21
0.46963
0
LINE
8
BLACK
6
CONTINUOUS
10
0.0324175
20
0.46963
11
0.0342478
21
0.476063
0
LINE
8
BLACK
6
CONTINUOUS
10
0.0342478
20
0.476063
11
0.0347148
21
0.477704
0
LINE
8
BLACK
6
CONTINUOUS
10
0.0347148
20
0.477704
11
0.0354893
21
0.486063
0
LINE
8
BLACK
6
CONTINUOUS
10
0.0354893
20
0.486063
11
0.0347148
21
0.494422
0
LINE
8
BLACK
6
CONTINUOUS
10
0.0347148
20
0.494422
11
0.0324175
21
0.502496
0
LINE
8
BLACK
6
CONTINUOUS
10
0.0324175
20
0.502496
11
0.0286758
21
0.51001
0
LINE
8
BLACK
6
CONTINUOUS
10
0.0286758
20
0.51001
11
0.023617
21
0.516709
0
LINE
8
BLACK
6
CONTINUOUS
10
0.023617
20
0.516709
11
0.0207155
21
0.519354
0
LINE
8
BLACK
6
CONTINUOUS
10
0.0207155
20
0.519354
11
0.0180238
21
0.521808
0
LINE
8
BLACK
6
CONTINUOUS
10
0.0180238
20
0.521808
11
0.0168322
21
0.523901
0
LINE
8
BLACK
6
CONTINUOUS
10
0.0168322
20
0.523901
11
0.016752
21
0.524688
0
LINE
8
BLACK
6
CONTINUOUS
10
0.016752
20
0.524688
11
0.016752
21
0.547438
0
LINE
8
BLACK
6
CONTINUOUS
10
0.016752
20
0.547438
11
0.0174963
21
0.549729
0
LINE
8
BLACK
6
CONTINUOUS
10
0.0174963
20
0.549729
11
0.0180236
21
0.550318
0
LINE
8
BLACK
6
CONTINUOUS
10
0.0180236
20
0.550318
11
0.023617
21
0.555417
0
LINE
8
BLACK
6
CONTINUOUS
10
0.023617
20
0.555417
11
0.0286758
21
0.562116
0
LINE
8
BLACK
6
CONTINUOUS
10
0.0286758
20
0.562116
11
0.0324175
21
0.56963
0
LINE
8
BLACK
6
CONTINUOUS
10
0.0324175
20
0.56963
11
0.0347148
21
0.577704
0
LINE
8
BLACK
6
CONTINUOUS
10
0.0347148
20
0.577704
11
0.0354893
21
0.586063
0
LINE
8
BLACK
6
CONTINUOUS
10
0.0354893
20
0.586063
11
0.0347148
21
0.594422
0
LINE
8
BLACK
6
CONTINUOUS
10
0.0347148
20
0.594422
11
0.0325891
21
0.601893
0
LINE
8
BLACK
6
CONTINUOUS
10
0.0325891
20
0.601893
11
0.0326781
21
0.6043
0
LINE
8
BLACK
6
CONTINUOUS
10
0.0326781
20
0.6043
11
0.0335819
21
0.605715
0
LINE
8
BLACK
6
CONTINUOUS
10
0.0335819
20
0.605715
11
0.0380707
21
0.610204
0
LINE
8
BLACK
6
CONTINUOUS
10
0.0380707
20
0.610204
11
0.040217
21
0.611298
0
LINE
8
BLACK
6
CONTINUOUS
10
0.040217
20
0.611298
11
0.0425963
21
0.610921
0
LINE
8
BLACK
6
CONTINUOUS
10
0.0425963
20
0.610921
11
0.0442996
21
0.609217
0
LINE
8
BLACK
6
CONTINUOUS
10
0.0442996
20
0.609217
11
0.0447244
21
0.607448
0
LINE
8
BLACK
6
CONTINUOUS
10
0.0447244
20
0.607448
11
0.0447244
21
0.596063
0
LINE
8
BLACK
6
CONTINUOUS
10
0.0447244
20
0.596063
11
0.0447244
21
0.596063
0
LINE
8
BLACK
6
CONTINUOUS
10
0.0447244
20
0.596063
11
0.0565354
21
0.596063
0
LINE
8
BLACK
6
CONTINUOUS
10
0.0565354
20
0.596063
11
0.0565354
21
0.619528
0
LINE
8
BLACK
6
CONTINUOUS
10
0.0565354
20
0.619528
11
0.123465
21
0.619528
0
LINE
8
BLACK
6
CONTINUOUS
10
0.123465
20
0.619528
11
0.123465
21
0.596063
0
LINE
8
BLACK
6
CONTINUOUS
10
0.123465
20
0.596063
11
0.135276
21
0.596063
0
LINE
8
BLACK
6
CONTINUOUS
10
0.135276
20
0.596063
11
0.135276
21
0.596063
0
LINE
8
BLACK
6
CONTINUOUS
10
0.135276
20
0.596063
11
0.135276
21
0.61561
0
LINE
8
BLACK
6
CONTINUOUS
10
0.135276
20
0.61561
11
0.13602
21
0.617901
0
LINE
8
BLACK
6
CONTINUOUS
10
0.13602
20
0.617901
11
0.137969
21
0.619317
0
LINE
8
BLACK
6
CONTINUOUS
10
0.137969
20
0.619317
11
0.139173
21
0.619508
0
LINE
8
BLACK
6
CONTINUOUS
10
0.139173
20
0.619508
11
0.321011
21
0.619508
0
LINE
8
BLACK
6
CONTINUOUS
10
0.321011
20
0.619508
11
0.323302
21
0.618764
0
LINE
8
BLACK
6
CONTINUOUS
10
0.323302
20
0.618764
11
0.323767
21
0.618366
0
LINE
8
BLACK
6
CONTINUOUS
10
0.323767
20
0.618366
11
0.340184
21
0.601949
0
LINE
8
BLACK
6
CONTINUOUS
10
0.340184
20
0.601949
11
0.341278
21
0.599803
0
LINE
8
BLACK
6
CONTINUOUS
10
0.341278
20
0.599803
11
0.340901
21
0.597423
0
LINE
8
BLACK
6
CONTINUOUS
10
0.340901
20
0.597423
11
0.339198
21
0.59572
0
LINE
8
BLACK
6
CONTINUOUS
10
0.339198
20
0.59572
11
0.337428
21
0.595295
0
LINE
8
BLACK
6
CONTINUOUS
10
0.337428
20
0.595295
11
0.284769
21
0.595295
0
LINE
8
BLACK
6
CONTINUOUS
10
0.284769
20
0.595295
11
0.284769
21
0.595295
0
LINE
8
BLACK
6
CONTINUOUS
10
0.284769
20
0.595295
11
0.28378
21
0.595181
0
LINE
8
BLACK
6
CONTINUOUS
10
0.28378
20
0.595181
11
0.279734
21
0.593394
0
LINE
8
BLACK
6
CONTINUOUS
10
0.279734
20
0.593394
11
0.276606
21
0.590266
0
LINE
8
BLACK
6
CONTINUOUS
10
0.276606
20
0.590266
11
0.274819
21
0.58622
0
LINE
8
BLACK
6
CONTINUOUS
10
0.274819
20
0.58622
11
0.274705
21
0.585231
0
LINE
8
BLACK
6
CONTINUOUS
10
0.274705
20
0.585231
11
0.274705
21
0.514769
0
LINE
8
BLACK
6
CONTINUOUS
10
0.274705
20
0.514769
11
0.274705
21
0.514769
0
LINE
8
BLACK
6
CONTINUOUS
10
0.274705
20
0.514769
11
0.274819
21
0.51378
0
LINE
8
BLACK
6
CONTINUOUS
10
0.274819
20
0.51378
11
0.274855
21
0.513699
0
LINE
8
BLACK
6
CONTINUOUS
10
0.274855
20
0.513699
11
0.276606
21
0.509734
0
LINE
8
BLACK
6
CONTINUOUS
10
0.276606
20
0.509734
11
0.279734
21
0.506606
0
LINE
8
BLACK
6
CONTINUOUS
10
0.279734
20
0.506606
11
0.28378
21
0.504819
0
LINE
8
BLACK
6
CONTINUOUS
10
0.28378
20
0.504819
11
0.284769
21
0.504705
0
LINE
8
BLACK
6
CONTINUOUS
10
0.284769
20
0.504705
11
0.355231
21
0.504705
0
LINE
8
BLACK
6
CONTINUOUS
10
0.355231
20
0.504705
11
0.35622
21
0.504819
0
LINE
8
BLACK
6
CONTINUOUS
10
0.35622
20
0.504819
11
0.360266
21
0.506606
0
LINE
8
BLACK
6
CONTINUOUS
10
0.360266
20
0.506606
11
0.363394
21
0.509734
0
LINE
8
BLACK
6
CONTINUOUS
10
0.363394
20
0.509734
11
0.365181
21
0.51378
0
LINE
8
BLACK
6
CONTINUOUS
10
0.365181
20
0.51378
11
0.365295
21
0.514769
0
LINE
8
BLACK
6
CONTINUOUS
10
0.365295
20
0.514769
11
0.365295
21
0.567428
0
LINE
8
BLACK
6
CONTINUOUS
10
0.365295
20
0.567428
11
0.36604
21
0.569719
0
LINE
8
BLACK
6
CONTINUOUS
10
0.36604
20
0.569719
11
0.367988
21
0.571135
0
LINE
8
BLACK
6
CONTINUOUS
10
0.367988
20
0.571135
11
0.370397
21
0.571135
0
LINE
8
BLACK
6
CONTINUOUS
10
0.370397
20
0.571135
11
0.371949
21
0.570184
0
LINE
8
BLACK
6
CONTINUOUS
10
0.371949
20
0.570184
11
0.375546
21
0.566587
0
LINE
8
BLACK
6
CONTINUOUS
10
0.375546
20
0.566587
11
0.37664
21
0.564441
0
LINE
8
BLACK
6
CONTINUOUS
10
0.37664
20
0.564441
11
0.376539
21
0.562765
0
LINE
8
BLACK
6
CONTINUOUS
10
0.376539
20
0.562765
11
0.375285
21
0.558359
0
LINE
8
BLACK
6
CONTINUOUS
10
0.375285
20
0.558359
11
0.374511
21
0.55
0
LINE
8
BLACK
6
CONTINUOUS
10
0.374511
20
0.55
11
0.374748
21
0.547438
0
LINE
8
BLACK
6
CONTINUOUS
10
0.374748
20
0.547438
11
0.375285
21
0.541641
0
LINE
8
BLACK
6
CONTINUOUS
10
0.375285
20
0.541641
11
0.377582
21
0.533567
0
LINE
8
BLACK
6
CONTINUOUS
10
0.377582
20
0.533567
11
0.381324
21
0.526053
0
LINE
8
BLACK
6
CONTINUOUS
10
0.381324
20
0.526053
11
0.386383
21
0.519354
0
LINE
8
BLACK
6
CONTINUOUS
10
0.386383
20
0.519354
11
0.386383
21
0.519354
0
LINE
8
BLACK
6
CONTINUOUS
10
0.386383
20
0.519354
11
0.392586
21
0.513699
0
LINE
8
BLACK
6
CONTINUOUS
10
0.392586
20
0.513699
11
0.392587
21
0.513699
0
LINE
8
BLACK
6
CONTINUOUS
10
0.392587
20
0.513699
11
0.396669
21
0.511171
0
LINE
8
BLACK
6
CONTINUOUS
10
0.396669
20
0.511171
11
0.399724
21
0.50928
0
LINE
8
BLACK
6
CONTINUOUS
10
0.399724
20
0.50928
11
0.407551
21
0.506247
0
LINE
8
BLACK
6
CONTINUOUS
10
0.407551
20
0.506247
11
0.415803
21
0.504705
0
LINE
8
BLACK
6
CONTINUOUS
10
0.415803
20
0.504705
11
0.424197
21
0.504705
0
LINE
8
BLACK
6
CONTINUOUS
10
0.424197
20
0.504705
11
0.432449
21
0.506247
0
LINE
8
BLACK
6
CONTINUOUS
10
0.432449
20
0.506247
11
0.440276
21
0.50928
0
LINE
8
BLACK
6
CONTINUOUS
10
0.440276
20
0.50928
11
0.447413
21
0.513699
0
LINE
8
BLACK
6
CONTINUOUS
10
0.447413
20
0.513699
11
0.453617
21
0.519354
0
LINE
8
BLACK
6
CONTINUOUS
10
0.453617
20
0.519354
11
0.458676
21
0.526053
0
LINE
8
BLACK
6
CONTINUOUS
10
0.458676
20
0.526053
11
0.462418
21
0.533567
0
LINE
8
BLACK
6
CONTINUOUS
10
0.462418
20
0.533567
11
0.464715
21
0.541641
0
LINE
8
BLACK
6
CONTINUOUS
10
0.464715
20
0.541641
11
0.465489
21
0.55
0
LINE
8
BLACK
6
CONTINUOUS
10
0.465489
20
0.55
11
0.464715
21
0.558359
0
LINE
8
BLACK
6
CONTINUOUS
10
0.464715
20
0.558359
11
0.462418
21
0.566433
0
LINE
8
BLACK
6
CONTINUOUS
10
0.462418
20
0.566433
11
0.458676
21
0.573947
0
LINE
8
BLACK
6
CONTINUOUS
10
0.458676
20
0.573947
11
0.453617
21
0.580646
0
LINE
8
BLACK
6
CONTINUOUS
10
0.453617
20
0.580646
11
0.447675
21
0.586063
0
LINE
8
BLACK
6
CONTINUOUS
10
0.447675
20
0.586063
11
0.447414
21
0.586301
0
LINE
8
BLACK
6
CONTINUOUS
10
0.447414
20
0.586301
11
0.447413
21
0.586301
0
LINE
8
BLACK
6
CONTINUOUS
10
0.447413
20
0.586301
11
0.440277
21
0.59072
0
LINE
8
BLACK
6
CONTINUOUS
10
0.440277
20
0.59072
11
0.440276
21
0.59072
0
LINE
8
BLACK
6
CONTINUOUS
10
0.440276
20
0.59072
11
0.433437
21
0.59337
0
LINE
8
BLACK
6
CONTINUOUS
10
0.433437
20
0.59337
11
0.432449
21
0.593753
0
LINE
8
BLACK
6
CONTINUOUS
10
0.432449
20
0.593753
11
0.432449
21
0.593753
0
LINE
8
BLACK
6
CONTINUOUS
10
0.432449
20
0.593753
11
0.432449
21
0.593753
0
LINE
8
BLACK
6
CONTINUOUS
10
0.432449
20
0.593753
11
0.424197
21
0.595295
0
LINE
8
BLACK
6
CONTINUOUS
10
0.424197
20
0.595295
11
0.415803
21
0.595295
0
LINE
8
BLACK
6
CONTINUOUS
10
0.415803
20
0.595295
11
0.407551
21
0.593753
0
LINE
8
BLACK
6
CONTINUOUS
10
0.407551
20
0.593753
11
0.407442
21
0.59371
0
LINE
8
BLACK
6
CONTINUOUS
10
0.407442
20
0.59371
11
0.407393
21
0.593708
0
LINE
8
BLACK
6
CONTINUOUS
10
0.407393
20
0.593708
11
0.407378
21
0.593703
0
LINE
8
BLACK
6
CONTINUOUS
10
0.407378
20
0.593703
11
0.407377
21
0.593707
0
LINE
8
BLACK
6
CONTINUOUS
10
0.407377
20
0.593707
11
0.405037
21
0.593577
0
LINE
8
BLACK
6
CONTINUOUS
10
0.405037
20
0.593577
11
0.403278
21
0.594589
0
LINE
8
BLACK
6
CONTINUOUS
10
0.403278
20
0.594589
11
0.346515
21
0.651352
0
LINE
8
BLACK
6
CONTINUOUS
10
0.346515
20
0.651352
11
0.345992
21
0.652001
0
LINE
8
BLACK
6
CONTINUOUS
10
0.345992
20
0.652001
11
0.345832
21
0.652249
0
LINE
8
BLACK
6
CONTINUOUS
10
0.345832
20
0.652249
11
0.345832
21
0.652249
0
LINE
8
BLACK
6
CONTINUOUS
10
0.345832
20
0.652249
11
0.344276
21
0.653598
0
LINE
8
BLACK
6
CONTINUOUS
10
0.344276
20
0.653598
11
0.344174
21
0.653692
0
LINE
8
BLACK
6
CONTINUOUS
10
0.344174
20
0.653692
11
0.343724
21
0.654142
0
LINE
8
BLACK
6
CONTINUOUS
10
0.343724
20
0.654142
11
0.343724
21
0.654143
0
LINE
8
BLACK
6
CONTINUOUS
10
0.343724
20
0.654143
11
0.343214
21
0.654524
0
LINE
8
BLACK
6
CONTINUOUS
10
0.343214
20
0.654524
11
0.343107
21
0.654611
0
LINE
8
BLACK
6
CONTINUOUS
10
0.343107
20
0.654611
11
0.34155
21
0.65596
0
LINE
8
BLACK
6
CONTINUOUS
10
0.34155
20
0.65596
11
0.341281
21
0.656083
0
LINE
8
BLACK
6
CONTINUOUS
10
0.341281
20
0.656083
11
0.340565
21
0.656508
0
LINE
8
BLACK
6
CONTINUOUS
10
0.340565
20
0.656508
11
0.340523
21
0.656539
0
LINE
8
BLACK
6
CONTINUOUS
10
0.340523
20
0.656539
11
0.340328
21
0.656685
0
LINE
8
BLACK
6
CONTINUOUS
10
0.340328
20
0.656685
11
0.340328
21
0.656685
0
LINE
8
BLACK
6
CONTINUOUS
10
0.340328
20
0.656685
11
0.340328
21
0.656685
0
LINE
8
BLACK
6
CONTINUOUS
10
0.340328
20
0.656685
11
0.338398
21
0.657405
0
LINE
8
BLACK
6
CONTINUOUS
10
0.338398
20
0.657405
11
0.33827
21
0.657458
0
LINE
8
BLACK
6
CONTINUOUS
10
0.33827
20
0.657458
11
0.336396
21
0.658314
0
LINE
8
BLACK
6
CONTINUOUS
10
0.336396
20
0.658314
11
0.336396
21
0.658314
0
LINE
8
BLACK
6
CONTINUOUS
10
0.336396
20
0.658314
11
0.336103
21
0.658356
0
LINE
8
BLACK
6
CONTINUOUS
10
0.336103
20
0.658356
11
0.335296
21
0.658562
0
LINE
8
BLACK
6
CONTINUOUS
10
0.335296
20
0.658562
11
0.335019
21
0.658665
0
LINE
8
BLACK
6
CONTINUOUS
10
0.335019
20
0.658665
11
0.335019
21
0.658665
0
LINE
8
BLACK
6
CONTINUOUS
10
0.335019
20
0.658665
11
0.332965
21
0.658812
0
LINE
8
BLACK
6
CONTINUOUS
10
0.332965
20
0.658812
11
0.332826
21
0.658827
0
LINE
8
BLACK
6
CONTINUOUS
10
0.332826
20
0.658827
11
0.332197
21
0.658917
0
LINE
8
BLACK
6
CONTINUOUS
10
0.332197
20
0.658917
11
0.332197
21
0.658917
0
LINE
8
BLACK
6
CONTINUOUS
10
0.332197
20
0.658917
11
0.331561
21
0.658917
0
LINE
8
BLACK
6
CONTINUOUS
10
0.331561
20
0.658917
11
0.331422
21
0.658922
0
LINE
8
BLACK
6
CONTINUOUS
10
0.331422
20
0.658922
11
0.330246
21
0.659006
0
LINE
8
BLACK
6
CONTINUOUS
10
0.330246
20
0.659006
11
0.329367
21
0.659069
0
LINE
8
BLACK
6
CONTINUOUS
10
0.329367
20
0.659069
11
0.329367
21
0.659069
0
LINE
8
BLACK
6
CONTINUOUS
10
0.329367
20
0.659069
11
0.329367
21
0.659069
0
LINE
8
BLACK
6
CONTINUOUS
10
0.329367
20
0.659069
11
0.329078
21
0.659006
0
LINE
8
BLACK
6
CONTINUOUS
10
0.329078
20
0.659006
11
0.32825
21
0.658917
0
LINE
8
BLACK
6
CONTINUOUS
10
0.32825
20
0.658917
11
0.0417502
21
0.658917
0
LINE
8
BLACK
6
CONTINUOUS
10
0.0417502
20
0.658917
11
0.0409217
21
0.659006
0
LINE
8
BLACK
6
CONTINUOUS
10
0.0409217
20
0.659006
11
0.0406328
21
0.659069
0
LINE
8
BLACK
6
CONTINUOUS
10
0.0406328
20
0.659069
11
0.0406328
21
0.659069
0
LINE
8
BLACK
6
CONTINUOUS
10
0.0406328
20
0.659069
11
0.0398376
21
0.659012
0
LINE
8
BLACK
6
CONTINUOUS
10
-0.0794286
20
0.472452
11
-0.0829266
21
0.466393
0
LINE
8
BLACK
6
CONTINUOUS
10
-0.0829266
20
0.466393
11
-0.0876078
21
0.461194
0
LINE
8
BLACK
6
CONTINUOUS
10
-0.0876078
20
0.461194
11
-0.0932677
21
0.457082
0
LINE
8
BLACK
6
CONTINUOUS
10
-0.0932677
20
0.457082
11
-0.0996589
21
0.454236
0
LINE
8
BLACK
6
CONTINUOUS
10
-0.0996589
20
0.454236
11
-0.1
21
0.454164
0
LINE
8
BLACK
6
CONTINUOUS
10
-0.1
20
0.454164
11
-0.1
21
0.441872
0
LINE
8
BLACK
6
CONTINUOUS
10
-0.1
20
0.441872
11
-0.0975568
21
0.442329
0
LINE
8
BLACK
6
CONTINUOUS
10
-0.0975568
20
0.442329
11
-0.0897326
21
0.44536
0
LINE
8
BLACK
6
CONTINUOUS
10
-0.0897326
20
0.44536
11
-0.0825983
21
0.449778
0
LINE
8
BLACK
6
CONTINUOUS
10
-0.0825983
20
0.449778
11
-0.0763979
21
0.45543
0
LINE
8
BLACK
6
CONTINUOUS
10
-0.0763979
20
0.45543
11
-0.0763975
21
0.455431
0
LINE
8
BLACK
6
CONTINUOUS
10
-0.0763975
20
0.455431
11
-0.0713411
21
0.462126
0
LINE
8
BLACK
6
CONTINUOUS
10
-0.0713411
20
0.462126
11
-0.0713409
21
0.462127
0
LINE
8
BLACK
6
CONTINUOUS
10
-0.0713409
20
0.462127
11
-0.067601
21
0.469637
0
LINE
8
BLACK
6
CONTINUOUS
10
-0.067601
20
0.469637
11
-0.0657727
21
0.476063
0
LINE
8
BLACK
6
CONTINUOUS
10
-0.0657727
20
0.476063
11
-0.0782552
21
0.476063
0
LINE
8
BLACK
6
CONTINUOUS
10
-0.0782552
20
0.476063
11
-0.0794286
21
0.472452
0
LINE
8
BLACK
6
CONTINUOUS
10
0.1
20
0.517962
11
0.100341
21
0.51789
0
LINE
8
BLACK
6
CONTINUOUS
10
0.100341
20
0.51789
11
0.106732
21
0.515044
0
LINE
8
BLACK
6
CONTINUOUS
10
0.106732
20
0.515044
11
0.112392
21
0.510932
0
LINE
8
BLACK
6
CONTINUOUS
10
0.112392
20
0.510932
11
0.117073
21
0.505733
0
LINE
8
BLACK
6
CONTINUOUS
10
0.117073
20
0.505733
11
0.120571
21
0.499674
0
LINE
8
BLACK
6
CONTINUOUS
10
0.120571
20
0.499674
11
0.121745
21
0.496063
0
LINE
8
BLACK
6
CONTINUOUS
10
0.121745
20
0.496063
11
0.134227
21
0.496063
0
LINE
8
BLACK
6
CONTINUOUS
10
0.134227
20
0.496063
11
0.132399
21
0.502489
0
LINE
8
BLACK
6
CONTINUOUS
10
0.132399
20
0.502489
11
0.128659
21
0.509999
0
LINE
8
BLACK
6
CONTINUOUS
10
0.128659
20
0.509999
11
0.128659
21
0.51
0
LINE
8
BLACK
6
CONTINUOUS
10
0.128659
20
0.51
11
0.123602
21
0.516695
0
LINE
8
BLACK
6
CONTINUOUS
10
0.123602
20
0.516695
11
0.123602
21
0.516696
0
LINE
8
BLACK
6
CONTINUOUS
10
0.123602
20
0.516696
11
0.117402
21
0.522348
0
LINE
8
BLACK
6
CONTINUOUS
10
0.117402
20
0.522348
11
0.117402
21
0.522348
0
LINE
8
BLACK
6
CONTINUOUS
10
0.117402
20
0.522348
11
0.110267
21
0.526766
0
LINE
8
BLACK
6
CONTINUOUS
10
0.110267
20
0.526766
11
0.102443
21
0.529797
0
LINE
8
BLACK
6
CONTINUOUS
10
0.102443
20
0.529797
11
0.102443
21
0.529797
0
LINE
8
BLACK
6
CONTINUOUS
10
0.102443
20
0.529797
11
0.1
21
0.530254
0
LINE
8
BLACK
6
CONTINUOUS
10
0.1
20
0.530254
11
0.1
21
0.517962
0
LINE
8
BLACK
6
CONTINUOUS
10
0.0775569
20
0.529797
11
0.0775566
21
0.529797
0
LINE
8
BLACK
6
CONTINUOUS
10
0.0775566
20
0.529797
11
0.0697325
21
0.526766
0
LINE
8
BLACK
6
CONTINUOUS
10
0.0697325
20
0.526766
11
0.0625982
21
0.522348
0
LINE
8
BLACK
6
CONTINUOUS
10
0.0625982
20
0.522348
11
0.0563979
21
0.516696
0
LINE
8
BLACK
6
CONTINUOUS
10
0.0563979
20
0.516696
11
0.0563975
21
0.516695
0
LINE
8
BLACK
6
CONTINUOUS
10
0.0563975
20
0.516695
11
0.051341
21
0.51
0
LINE
8
BLACK
6
CONTINUOUS
10
0.051341
20
0.51
11
0.0513408
21
0.509999
0
LINE
8
BLACK
6
CONTINUOUS
10
0.0513408
20
0.509999
11
0.0476009
21
0.502489
0
LINE
8
BLACK
6
CONTINUOUS
10
0.0476009
20
0.502489
11
0.0457727
21
0.496063
0
LINE
8
BLACK
6
CONTINUOUS
10
0.0457727
20
0.496063
11
0.0582552
21
0.496063
0
LINE
8
BLACK
6
CONTINUOUS
10
0.0582552
20
0.496063
11
0.0594286
21
0.499674
0
LINE
8
BLACK
6
CONTINUOUS
10
0.0594286
20
0.499674
11
0.0629266
21
0.505733
0
LINE
8
BLACK
6
CONTINUOUS
10
0.0629266
20
0.505733
11
0.0676078
21
0.510932
0
LINE
8
BLACK
6
CONTINUOUS
10
0.0676078
20
0.510932
11
0.0732677
21
0.515044
0
LINE
8
BLACK
6
CONTINUOUS
10
0.0732677
20
0.515044
11
0.0796589
21
0.51789
0
LINE
8
BLACK
6
CONTINUOUS
10
0.0796589
20
0.51789
11
0.08
21
0.517962
0
LINE
8
BLACK
6
CONTINUOUS
10
0.08
20
0.517962
11
0.08
21
0.530254
0
LINE
8
BLACK
6
CONTINUOUS
10
0.08
20
0.530254
11
0.0775569
21
0.529797
0
LINE
8
BLACK
6
CONTINUOUS
10
-0.1
20
0.517962
11
-0.0996589
21
0.51789
0
LINE
8
BLACK
6
CONTINUOUS
10
-0.0996589
20
0.51789
11
-0.0932677
21
0.515044
0
LINE
8
BLACK
6
CONTINUOUS
10
-0.0932677
20
0.515044
11
-0.0876078
21
0.510932
0
LINE
8
BLACK
6
CONTINUOUS
10
-0.0876078
20
0.510932
11
-0.0829266
21
0.505733
0
LINE
8
BLACK
6
CONTINUOUS
10
-0.0829266
20
0.505733
11
-0.0794286
21
0.499674
0
LINE
8
BLACK
6
CONTINUOUS
10
-0.0794286
20
0.499674
11
-0.0782552
21
0.496063
0
LINE
8
BLACK
6
CONTINUOUS
10
-0.0782552
20
0.496063
11
-0.0657727
21
0.496063
0
LINE
8
BLACK
6
CONTINUOUS
10
-0.0657727
20
0.496063
11
-0.067601
21
0.502489
0
LINE
8
BLACK
6
CONTINUOUS
10
-0.067601
20
0.502489
11
-0.0713409
21
0.509999
0
LINE
8
BLACK
6
CONTINUOUS
10
-0.0713409
20
0.509999
11
-0.0713411
21
0.51
0
LINE
8
BLACK
6
CONTINUOUS
10
-0.0713411
20
0.51
11
-0.0763975
21
0.516695
0
LINE
8
BLACK
6
CONTINUOUS
10
-0.0763975
20
0.516695
11
-0.0763979
21
0.516696
0
LINE
8
BLACK
6
CONTINUOUS
10
-0.0763979
20
0.516696
11
-0.0825983
21
0.522348
0
LINE
8
BLACK
6
CONTINUOUS
10
-0.0825983
20
0.522348
11
-0.0825982
21
0.522348
0
LINE
8
BLACK
6
CONTINUOUS
10
-0.0825982
20
0.522348
11
-0.0897326
21
0.526766
0
LINE
8
BLACK
6
CONTINUOUS
10
-0.0897326
20
0.526766
11
-0.0975567
21
0.529797
0
LINE
8
BLACK
6
CONTINUOUS
10
-0.0975567
20
0.529797
11
-0.0975569
21
0.529797
0
LINE
8
BLACK
6
CONTINUOUS
10
-0.0975569
20
0.529797
11
-0.1
21
0.530254
0
LINE
8
BLACK
6
CONTINUOUS
10
-0.1
20
0.530254
11
-0.1
21
0.517962
0
LINE
8
BLACK
6
CONTINUOUS
10
-0.122443
20
0.529797
11
-0.122443
21
0.529797
0
LINE
8
BLACK
6
CONTINUOUS
10
-0.122443
20
0.529797
11
-0.130267
21
0.526766
0
LINE
8
BLACK
6
CONTINUOUS
10
-0.130267
20
0.526766
11
-0.137402
21
0.522348
0
LINE
8
BLACK
6
CONTINUOUS
10
-0.137402
20
0.522348
11
-0.143602
21
0.516696
0
LINE
8
BLACK
6
CONTINUOUS
10
-0.143602
20
0.516696
11
-0.143603
21
0.516695
0
LINE
8
BLACK
6
CONTINUOUS
10
-0.143603
20
0.516695
11
-0.148659
21
0.51
0
LINE
8
BLACK
6
CONTINUOUS
10
-0.148659
20
0.51
11
-0.148659
21
0.509999
0
LINE
8
BLACK
6
CONTINUOUS
10
-0.148659
20
0.509999
11
-0.152399
21
0.502489
0
LINE
8
BLACK
6
CONTINUOUS
10
-0.152399
20
0.502489
11
-0.154227
21
0.496063
0
LINE
8
BLACK
6
CONTINUOUS
10
-0.154227
20
0.496063
11
-0.141745
21
0.496063
0
LINE
8
BLACK
6
CONTINUOUS
10
-0.141745
20
0.496063
11
-0.140571
21
0.499674
0
LINE
8
BLACK
6
CONTINUOUS
10
-0.140571
20
0.499674
11
-0.137073
21
0.505733
0
LINE
8
BLACK
6
CONTINUOUS
10
-0.137073
20
0.505733
11
-0.132392
21
0.510932
0
LINE
8
BLACK
6
CONTINUOUS
10
-0.132392
20
0.510932
11
-0.126732
21
0.515044
0
LINE
8
BLACK
6
CONTINUOUS
10
-0.126732
20
0.515044
11
-0.120341
21
0.51789
0
LINE
8
BLACK
6
CONTINUOUS
10
-0.120341
20
0.51789
11
-0.12
21
0.517962
0
LINE
8
BLACK
6
CONTINUOUS
10
-0.12
20
0.517962
11
-0.12
21
0.530254
0
LINE
8
BLACK
6
CONTINUOUS
10
-0.12
20
0.530254
11
-0.122443
21
0.529797
0
LINE
8
BLACK
6
CONTINUOUS
10
0.0447245
20
0.576063
11
0.0447244
21
0.576063
0
LINE
8
BLACK
6
CONTINUOUS
10
0.0447244
20
0.576063
11
0.0447244
21
0.550835
0
LINE
8
BLACK
6
CONTINUOUS
10
0.0447244
20
0.550835
11
0.0448389
21
0.549847
0
LINE
8
BLACK
6
CONTINUOUS
10
0.0448389
20
0.549847
11
0.0466226
21
0.545808
0
LINE
8
BLACK
6
CONTINUOUS
10
0.0466226
20
0.545808
11
0.049745
21
0.542686
0
LINE
8
BLACK
6
CONTINUOUS
10
0.049745
20
0.542686
11
0.0537845
21
0.540902
0
LINE
8
BLACK
6
CONTINUOUS
10
0.0537845
20
0.540902
11
0.0547718
21
0.540787
0
LINE
8
BLACK
6
CONTINUOUS
10
0.0547718
20
0.540787
11
0.0799999
21
0.540787
0
LINE
8
BLACK
6
CONTINUOUS
10
0.0799999
20
0.540787
11
0.08
21
0.540787
0
LINE
8
BLACK
6
CONTINUOUS
10
0.08
20
0.540787
11
0.08
21
0.552598
0
LINE
8
BLACK
6
CONTINUOUS
10
0.08
20
0.552598
11
0.0565354
21
0.552598
0
LINE
8
BLACK
6
CONTINUOUS
10
0.0565354
20
0.552598
11
0.0565354
21
0.576063
0
LINE
8
BLACK
6
CONTINUOUS
10
0.0565354
20
0.576063
11
0.0447245
21
0.576063
0
LINE
8
BLACK
6
CONTINUOUS
10
0.123465
20
0.552598
11
0.1
21
0.552598
0
LINE
8
BLACK
6
CONTINUOUS
10
0.1
20
0.552598
11
0.1
21
0.540787
0
LINE
8
BLACK
6
CONTINUOUS
10
0.1
20
0.540787
11
0.1
21
0.540787
0
LINE
8
BLACK
6
CONTINUOUS
10
0.1
20
0.540787
11
0.125228
21
0.540787
0
LINE
8
BLACK
6
CONTINUOUS
10
0.125228
20
0.540787
11
0.125228
21
0.540787
0
LINE
8
BLACK
6
CONTINUOUS
10
0.125228
20
0.540787
11
0.126216
21
0.540902
0
LINE
8
BLACK
6
CONTINUOUS
10
0.126216
20
0.540902
11
0.130255
21
0.542686
0
LINE
8
BLACK
6
CONTINUOUS
10
0.130255
20
0.542686
11
0.133377
21
0.545808
0
LINE
8
BLACK
6
CONTINUOUS
10
0.133377
20
0.545808
11
0.135161
21
0.549848
0
LINE
8
BLACK
6
CONTINUOUS
10
0.135161
20
0.549848
11
0.135276
21
0.550835
0
LINE
8
BLACK
6
CONTINUOUS
10
0.135276
20
0.550835
11
0.135276
21
0.550835
0
LINE
8
BLACK
6
CONTINUOUS
10
0.135276
20
0.550835
11
0.135276
21
0.576063
0
LINE
8
BLACK
6
CONTINUOUS
10
0.135276
20
0.576063
11
0.135276
21
0.576063
0
LINE
8
BLACK
6
CONTINUOUS
10
0.135276
20
0.576063
11
0.123465
21
0.576063
0
LINE
8
BLACK
6
CONTINUOUS
10
0.123465
20
0.576063
11
0.123465
21
0.552598
0
LINE
8
BLACK
6
CONTINUOUS
10
-0.0794286
20
0.572452
11
-0.0829266
21
0.566393
0
LINE
8
BLACK
6
CONTINUOUS
10
-0.0829266
20
0.566393
11
-0.0876078
21
0.561194
0
LINE
8
BLACK
6
CONTINUOUS
10
-0.0876078
20
0.561194
11
-0.0932677
21
0.557082
0
LINE
8
BLACK
6
CONTINUOUS
10
-0.0932677
20
0.557082
11
-0.0996589
21
0.554236
0
LINE
8
BLACK
6
CONTINUOUS
10
-0.0996589
20
0.554236
11
-0.1
21
0.554164
0
LINE
8
BLACK
6
CONTINUOUS
10
-0.1
20
0.554164
11
-0.1
21
0.541872
0
LINE
8
BLACK
6
CONTINUOUS
10
-0.1
20
0.541872
11
-0.0975568
21
0.542329
0
LINE
8
BLACK
6
CONTINUOUS
10
-0.0975568
20
0.542329
11
-0.0897326
21
0.54536
0
LINE
8
BLACK
6
CONTINUOUS
10
-0.0897326
20
0.54536
11
-0.0825983
21
0.549778
0
LINE
8
BLACK
6
CONTINUOUS
10
-0.0825983
20
0.549778
11
-0.0763979
21
0.55543
0
LINE
8
BLACK
6
CONTINUOUS
10
-0.0763979
20
0.55543
11
-0.0763975
21
0.555431
0
LINE
8
BLACK
6
CONTINUOUS
10
-0.0763975
20
0.555431
11
-0.0713411
21
0.562126
0
LINE
8
BLACK
6
CONTINUOUS
10
-0.0713411
20
0.562126
11
-0.0713409
21
0.562127
0
LINE
8
BLACK
6
CONTINUOUS
10
-0.0713409
20
0.562127
11
-0.067601
21
0.569637
0
LINE
8
BLACK
6
CONTINUOUS
10
-0.067601
20
0.569637
11
-0.0657727
21
0.576063
0
LINE
8
BLACK
6
CONTINUOUS
10
-0.0657727
20
0.576063
11
-0.0782552
21
0.576063
0
LINE
8
BLACK
6
CONTINUOUS
10
-0.0782552
20
0.576063
11
-0.0794286
21
0.572452
0
LINE
8
BLACK
6
CONTINUOUS
10
-0.1
20
0.617962
11
-0.0996589
21
0.61789
0
LINE
8
BLACK
6
CONTINUOUS
10
-0.0996589
20
0.61789
11
-0.0932677
21
0.615044
0
LINE
8
BLACK
6
CONTINUOUS
10
-0.0932677
20
0.615044
11
-0.0876078
21
0.610932
0
LINE
8
BLACK
6
CONTINUOUS
10
-0.0876078
20
0.610932
11
-0.0829266
21
0.605733
0
LINE
8
BLACK
6
CONTINUOUS
10
-0.0829266
20
0.605733
11
-0.0794286
21
0.599674
0
LINE
8
BLACK
6
CONTINUOUS
10
-0.0794286
20
0.599674
11
-0.0782552
21
0.596063
0
LINE
8
BLACK
6
CONTINUOUS
10
-0.0782552
20
0.596063
11
-0.0657727
21
0.596063
0
LINE
8
BLACK
6
CONTINUOUS
10
-0.0657727
20
0.596063
11
-0.067601
21
0.602489
0
LINE
8
BLACK
6
CONTINUOUS
10
-0.067601
20
0.602489
11
-0.0713409
21
0.609999
0
LINE
8
BLACK
6
CONTINUOUS
10
-0.0713409
20
0.609999
11
-0.0713411
21
0.61
0
LINE
8
BLACK
6
CONTINUOUS
10
-0.0713411
20
0.61
11
-0.0763975
21
0.616695
0
LINE
8
BLACK
6
CONTINUOUS
10
-0.0763975
20
0.616695
11
-0.0763979
21
0.616696
0
LINE
8
BLACK
6
CONTINUOUS
10
-0.0763979
20
0.616696
11
-0.0825983
21
0.622348
0
LINE
8
BLACK
6
CONTINUOUS
10
-0.0825983
20
0.622348
11
-0.0825982
21
0.622348
0
LINE
8
BLACK
6
CONTINUOUS
10
-0.0825982
20
0.622348
11
-0.0897326
21
0.626766
0
LINE
8
BLACK
6
CONTINUOUS
10
-0.0897326
20
0.626766
11
-0.0975567
21
0.629797
0
LINE
8
BLACK
6
CONTINUOUS
10
-0.0975567
20
0.629797
11
-0.0975569
21
0.629797
0
LINE
8
BLACK
6
CONTINUOUS
10
-0.0975569
20
0.629797
11
-0.1
21
0.630254
0
LINE
8
BLACK
6
CONTINUOUS
10
-0.1
20
0.630254
11
-0.1
21
0.617962
0
LINE
8
BLACK
6
CONTINUOUS
10
-0.122443
20
0.629797
11
-0.122443
21
0.629797
0
LINE
8
BLACK
6
CONTINUOUS
10
-0.122443
20
0.629797
11
-0.130267
21
0.626766
0
LINE
8
BLACK
6
CONTINUOUS
10
-0.130267
20
0.626766
11
-0.137402
21
0.622348
0
LINE
8
BLACK
6
CONTINUOUS
10
-0.137402
20
0.622348
11
-0.143602
21
0.616696
0
LINE
8
BLACK
6
CONTINUOUS
10
-0.143602
20
0.616696
11
-0.143603
21
0.616695
0
LINE
8
BLACK
6
CONTINUOUS
10
-0.143603
20
0.616695
11
-0.148659
21
0.61
0
LINE
8
BLACK
6
CONTINUOUS
10
-0.148659
20
0.61
11
-0.148659
21
0.609999
0
LINE
8
BLACK
6
CONTINUOUS
10
-0.148659
20
0.609999
11
-0.152399
21
0.602489
0
LINE
8
BLACK
6
CONTINUOUS
10
-0.152399
20
0.602489
11
-0.154227
21
0.596063
0
LINE
8
BLACK
6
CONTINUOUS
10
-0.154227
20
0.596063
11
-0.141745
21
0.596063
0
LINE
8
BLACK
6
CONTINUOUS
10
-0.141745
20
0.596063
11
-0.140571
21
0.599674
0
LINE
8
BLACK
6
CONTINUOUS
10
-0.140571
20
0.599674
11
-0.137073
21
0.605733
0
LINE
8
BLACK
6
CONTINUOUS
10
-0.137073
20
0.605733
11
-0.132392
21
0.610932
0
LINE
8
BLACK
6
CONTINUOUS
10
-0.132392
20
0.610932
11
-0.126732
21
0.615044
0
LINE
8
BLACK
6
CONTINUOUS
10
-0.126732
20
0.615044
11
-0.120341
21
0.61789
0
LINE
8
BLACK
6
CONTINUOUS
10
-0.120341
20
0.61789
11
-0.12
21
0.617962
0
LINE
8
BLACK
6
CONTINUOUS
10
-0.12
20
0.617962
11
-0.12
21
0.630254
0
LINE
8
BLACK
6
CONTINUOUS
10
-0.12
20
0.630254
11
-0.122443
21
0.629797
0
LINE
8
BLACK
6
CONTINUOUS
10
0.377601
20
0.233574
11
0.381341
21
0.226064
0
LINE
8
BLACK
6
CONTINUOUS
10
0.381341
20
0.226064
11
0.381341
21
0.226063
0
LINE
8
BLACK
6
CONTINUOUS
10
0.381341
20
0.226063
11
0.386397
21
0.219368
0
LINE
8
BLACK
6
CONTINUOUS
10
0.386397
20
0.219368
11
0.386398
21
0.219367
0
LINE
8
BLACK
6
CONTINUOUS
10
0.386398
20
0.219367
11
0.392598
21
0.213715
0
LINE
8
BLACK
6
CONTINUOUS
10
0.392598
20
0.213715
11
0.392598
21
0.213715
0
LINE
8
BLACK
6
CONTINUOUS
10
0.392598
20
0.213715
11
0.399733
21
0.209297
0
LINE
8
BLACK
6
CONTINUOUS
10
0.399733
20
0.209297
11
0.407557
21
0.206266
0
LINE
8
BLACK
6
CONTINUOUS
10
0.407557
20
0.206266
11
0.41
21
0.205809
0
LINE
8
BLACK
6
CONTINUOUS
10
0.41
20
0.205809
11
0.41
21
0.205809
0
LINE
8
BLACK
6
CONTINUOUS
10
0.41
20
0.205809
11
0.41
21
0.218101
0
LINE
8
BLACK
6
CONTINUOUS
10
0.41
20
0.218101
11
0.409659
21
0.218173
0
LINE
8
BLACK
6
CONTINUOUS
10
0.409659
20
0.218173
11
0.403268
21
0.221019
0
LINE
8
BLACK
6
CONTINUOUS
10
0.403268
20
0.221019
11
0.397608
21
0.225131
0
LINE
8
BLACK
6
CONTINUOUS
10
0.397608
20
0.225131
11
0.392927
21
0.23033
0
LINE
8
BLACK
6
CONTINUOUS
10
0.392927
20
0.23033
11
0.389429
21
0.236389
0
LINE
8
BLACK
6
CONTINUOUS
10
0.389429
20
0.236389
11
0.388255
21
0.24
0
LINE
8
BLACK
6
CONTINUOUS
10
0.388255
20
0.24
11
0.375773
21
0.24
0
LINE
8
BLACK
6
CONTINUOUS
10
0.375773
20
0.24
11
0.377601
21
0.233574
0
LINE
8
BLACK
6
CONTINUOUS
10
0.377601
20
0.333574
11
0.381341
21
0.326064
0
LINE
8
BLACK
6
CONTINUOUS
10
0.381341
20
0.326064
11
0.381341
21
0.326063
0
LINE
8
BLACK
6
CONTINUOUS
10
0.381341
20
0.326063
11
0.386397
21
0.319368
0
LINE
8
BLACK
6
CONTINUOUS
10
0.386397
20
0.319368
11
0.386398
21
0.319367
0
LINE
8
BLACK
6
CONTINUOUS
10
0.386398
20
0.319367
11
0.392598
21
0.313715
0
LINE
8
BLACK
6
CONTINUOUS
10
0.392598
20
0.313715
11
0.392598
21
0.313715
0
LINE
8
BLACK
6
CONTINUOUS
10
0.392598
20
0.313715
11
0.399733
21
0.309297
0
LINE
8
BLACK
6
CONTINUOUS
10
0.399733
20
0.309297
11
0.407557
21
0.306266
0
LINE
8
BLACK
6
CONTINUOUS
10
0.407557
20
0.306266
11
0.41
21
0.305809
0
LINE
8
BLACK
6
CONTINUOUS
10
0.41
20
0.305809
11
0.41
21
0.305809
0
LINE
8
BLACK
6
CONTINUOUS
10
0.41
20
0.305809
11
0.41
21
0.318101
0
LINE
8
BLACK
6
CONTINUOUS
10
0.41
20
0.318101
11
0.409659
21
0.318173
0
LINE
8
BLACK
6
CONTINUOUS
10
0.409659
20
0.318173
11
0.403268
21
0.321019
0
LINE
8
BLACK
6
CONTINUOUS
10
0.403268
20
0.321019
11
0.397608
21
0.325131
0
LINE
8
BLACK
6
CONTINUOUS
10
0.397608
20
0.325131
11
0.392927
21
0.33033
0
LINE
8
BLACK
6
CONTINUOUS
10
0.392927
20
0.33033
11
0.389429
21
0.336389
0
LINE
8
BLACK
6
CONTINUOUS
10
0.389429
20
0.336389
11
0.388255
21
0.34
0
LINE
8
BLACK
6
CONTINUOUS
10
0.388255
20
0.34
11
0.375773
21
0.34
0
LINE
8
BLACK
6
CONTINUOUS
10
0.375773
20
0.34
11
0.377601
21
0.333574
0
LINE
8
BLACK
6
CONTINUOUS
10
-0.152399
20
0.469637
11
-0.148659
21
0.462127
0
LINE
8
BLACK
6
CONTINUOUS
10
-0.148659
20
0.462127
11
-0.148659
21
0.462126
0
LINE
8
BLACK
6
CONTINUOUS
10
-0.148659
20
0.462126
11
-0.143603
21
0.455431
0
LINE
8
BLACK
6
CONTINUOUS
10
-0.143603
20
0.455431
11
-0.143602
21
0.45543
0
LINE
8
BLACK
6
CONTINUOUS
10
-0.143602
20
0.45543
11
-0.137402
21
0.449778
0
LINE
8
BLACK
6
CONTINUOUS
10
-0.137402
20
0.449778
11
-0.137402
21
0.449778
0
LINE
8
BLACK
6
CONTINUOUS
10
-0.137402
20
0.449778
11
-0.130267
21
0.44536
0
LINE
8
BLACK
6
CONTINUOUS
10
-0.130267
20
0.44536
11
-0.122443
21
0.442329
0
LINE
8
BLACK
6
CONTINUOUS
10
-0.122443
20
0.442329
11
-0.12
21
0.441872
0
LINE
8
BLACK
6
CONTINUOUS
10
-0.12
20
0.441872
11
-0.12
21
0.441872
0
LINE
8
BLACK
6
CONTINUOUS
10
-0.12
20
0.441872
11
-0.12
21
0.454164
0
LINE
8
BLACK
6
CONTINUOUS
10
-0.12
20
0.454164
11
-0.120341
21
0.454236
0
LINE
8
BLACK
6
CONTINUOUS
10
-0.120341
20
0.454236
11
-0.126732
21
0.457082
0
LINE
8
BLACK
6
CONTINUOUS
10
-0.126732
20
0.457082
11
-0.132392
21
0.461194
0
LINE
8
BLACK
6
CONTINUOUS
10
-0.132392
20
0.461194
11
-0.137073
21
0.466393
0
LINE
8
BLACK
6
CONTINUOUS
10
-0.137073
20
0.466393
11
-0.140571
21
0.472452
0
LINE
8
BLACK
6
CONTINUOUS
10
-0.140571
20
0.472452
11
-0.141745
21
0.476063
0
LINE
8
BLACK
6
CONTINUOUS
10
-0.141745
20
0.476063
11
-0.154227
21
0.476063
0
LINE
8
BLACK
6
CONTINUOUS
10
-0.154227
20
0.476063
11
-0.152399
21
0.469637
0
LINE
8
BLACK
6
CONTINUOUS
10
0.0476009
20
0.469637
11
0.0513408
21
0.462127
0
LINE
8
BLACK
6
CONTINUOUS
10
0.0513408
20
0.462127
11
0.051341
21
0.462126
0
LINE
8
BLACK
6
CONTINUOUS
10
0.051341
20
0.462126
11
0.0563975
21
0.455431
0
LINE
8
BLACK
6
CONTINUOUS
10
0.0563975
20
0.455431
11
0.0563979
21
0.45543
0
LINE
8
BLACK
6
CONTINUOUS
10
0.0563979
20
0.45543
11
0.0625982
21
0.449778
0
LINE
8
BLACK
6
CONTINUOUS
10
0.0625982
20
0.449778
11
0.0625982
21
0.449778
0
LINE
8
BLACK
6
CONTINUOUS
10
0.0625982
20
0.449778
11
0.0697325
21
0.44536
0
LINE
8
BLACK
6
CONTINUOUS
10
0.0697325
20
0.44536
11
0.0775567
21
0.442329
0
LINE
8
BLACK
6
CONTINUOUS
10
0.0775567
20
0.442329
11
0.08
21
0.441872
0
LINE
8
BLACK
6
CONTINUOUS
10
0.08
20
0.441872
11
0.08
21
0.441872
0
LINE
8
BLACK
6
CONTINUOUS
10
0.08
20
0.441872
11
0.08
21
0.454164
0
LINE
8
BLACK
6
CONTINUOUS
10
0.08
20
0.454164
11
0.0796589
21
0.454236
0
LINE
8
BLACK
6
CONTINUOUS
10
0.0796589
20
0.454236
11
0.0732677
21
0.457082
0
LINE
8
BLACK
6
CONTINUOUS
10
0.0732677
20
0.457082
11
0.0676078
21
0.461194
0
LINE
8
BLACK
6
CONTINUOUS
10
0.0676078
20
0.461194
11
0.0629266
21
0.466393
0
LINE
8
BLACK
6
CONTINUOUS
10
0.0629266
20
0.466393
11
0.0594286
21
0.472452
0
LINE
8
BLACK
6
CONTINUOUS
10
0.0594286
20
0.472452
11
0.0582552
21
0.476063
0
LINE
8
BLACK
6
CONTINUOUS
10
0.0582552
20
0.476063
11
0.0457727
21
0.476063
0
LINE
8
BLACK
6
CONTINUOUS
10
0.0457727
20
0.476063
11
0.0476009
21
0.469637
0
LINE
8
BLACK
6
CONTINUOUS
10
-0.152399
20
0.569637
11
-0.148659
21
0.562127
0
LINE
8
BLACK
6
CONTINUOUS
10
-0.148659
20
0.562127
11
-0.148659
21
0.562126
0
LINE
8
BLACK
6
CONTINUOUS
10
-0.148659
20
0.562126
11
-0.143603
21
0.555431
0
LINE
8
BLACK
6
CONTINUOUS
10
-0.143603
20
0.555431
11
-0.143602
21
0.55543
0
LINE
8
BLACK
6
CONTINUOUS
10
-0.143602
20
0.55543
11
-0.137402
21
0.549778
0
LINE
8
BLACK
6
CONTINUOUS
10
-0.137402
20
0.549778
11
-0.137402
21
0.549778
0
LINE
8
BLACK
6
CONTINUOUS
10
-0.137402
20
0.549778
11
-0.130267
21
0.54536
0
LINE
8
BLACK
6
CONTINUOUS
10
-0.130267
20
0.54536
11
-0.122443
21
0.542329
0
LINE
8
BLACK
6
CONTINUOUS
10
-0.122443
20
0.542329
11
-0.12
21
0.541872
0
LINE
8
BLACK
6
CONTINUOUS
10
-0.12
20
0.541872
11
-0.12
21
0.541872
0
LINE
8
BLACK
6
CONTINUOUS
10
-0.12
20
0.541872
11
-0.12
21
0.554164
0
LINE
8
BLACK
6
CONTINUOUS
10
-0.12
20
0.554164
11
-0.120341
21
0.554236
0
LINE
8
BLACK
6
CONTINUOUS
10
-0.120341
20
0.554236
11
-0.126732
21
0.557082
0
LINE
8
BLACK
6
CONTINUOUS
10
-0.126732
20
0.557082
11
-0.132392
21
0.561194
0
LINE
8
BLACK
6
CONTINUOUS
10
-0.132392
20
0.561194
11
-0.137073
21
0.566393
0
LINE
8
BLACK
6
CONTINUOUS
10
-0.137073
20
0.566393
11
-0.140571
21
0.572452
0
LINE
8
BLACK
6
CONTINUOUS
10
-0.140571
20
0.572452
11
-0.141745
21
0.576063
0
LINE
8
BLACK
6
CONTINUOUS
10
-0.141745
20
0.576063
11
-0.154227
21
0.576063
0
LINE
8
BLACK
6
CONTINUOUS
10
-0.154227
20
0.576063
11
-0.152399
21
0.569637
0
CIRCLE
8
BLACK
10
0.09
20
0.586063
40
0.00688976
0
CIRCLE
8
BLACK
10
0.09
20
0.486063
40
0.00688976
0
CIRCLE
8
BLACK
10
-0.01
20
0.586063
40
0.00688976
0
CIRCLE
8
BLACK
10
-0.01
20
0.486063
40
0.00688976
0
CIRCLE
8
BLACK
10
-0.11
20
0.586063
40
0.00688976
0
CIRCLE
8
BLACK
10
-0.11
20
0.486063
40
0.00688976
0
CIRCLE
8
BLACK
10
0.4
20
0
40
0.00688976
0
CIRCLE
8
BLACK
10
0
20
0.8
40
0.00688976
0
CIRCLE
8
BLACK
10
0.4
20
0.8
40
0.00688976
0
CIRCLE
8
BLACK
10
0.32
20
0.55
40
0.00688976
0
CIRCLE
8
BLACK
10
0.42
20
0.55
40
0.00688976
0
CIRCLE
8
BLACK
10
0.32
20
0.45
40
0.00688976
0
CIRCLE
8
BLACK
10
0.42
20
0.45
40
0.00688976
0
CIRCLE
8
BLACK
10
0.32
20
0.35
40
0.00688976
0
CIRCLE
8
BLACK
10
0.42
20
0.35
40
0.00688976
0
CIRCLE
8
BLACK
10
0.32
20
0.25
40
0.00688976
0
CIRCLE
8
BLACK
10
0.42
20
0.25
40
0.00688976
0
CIRCLE
8
BLACK
10
0
20
0
40
0.00688976
0
CIRCLE
8
BLACK
10
0.096063
20
0.279602
40
0.00787402
0
CIRCLE
8
BLACK
10
-0.03
20
0.35
40
0.00787402
  0
ENDSEC
  0
EOF
