  0
SECTION
  2
HEADER
  9
$ANGBASE
  50
0.0
  9
$ANGDIR
  70
1
  9
$MEASUREMENT
  70
0
  0
ENDSEC
  0
SECTION
  2
TABLES
  0
TABLE
  2
LTYPE
  70
4
  0
LTYPE
  5
40F
  2
CONTINUOUS
  70
0
  3
Solid line
  72
65
  73
0
  40
0.0
  0
LTYPE
  5
410
  2
DASHDOT
 70
0
  3
Dash Dot ____ _ ____ _
 72
65
 73
4
 40
2.0
 49
1.25
 49
-0.25
 49
0.25
 49
-0.25
  0
LTYPE
  5
411
  2
DASHED
 70
0
  3
Dashed __ __ __ __ __
 72
65
 73
2
 40
0.75
 49
0.5
 49
-0.25
  0
LTYPE
  5
43B
  2
DOTTED
 70
0
  3
Dotted .  .  .  .
 72
65
 73
2
 40
0.2
 49
0.0
 49
-0.2
  0
ENDTAB
  0
TABLE
  2
STYLE
  70
4
  0
STYLE
  2
KICAD
  70
0
  40
0
  41
1
  42
1
  50
0
  71
0
  3
isocp.shx
  0
STYLE
  2
KICADB
  70
0
  40
0
  41
1
  42
1
  50
0
  71
0
  3
isocp.shx
  0
STYLE
  2
KICADI
  70
0
  40
0
  41
1
  42
1
  50
15
  71
0
  3
isocp.shx
  0
STYLE
  2
KICADBI
  70
0
  40
0
  41
1
  42
1
  50
15
  71
0
  3
isocp.shx
  0
ENDTAB
  0
TABLE
  2
LAYER
  70
1
  0
LAYER
  2
BLACK
  70
0
  62
7
  6
CONTINUOUS
  0
ENDTAB
  0
ENDSEC
  0
SECTION
  2
ENTITIES
0
LINE
8
BLACK
6
CONTINUOUS
10
5.65409
20
-3.70176
11
5.65426
21
-3.70175
0
LINE
8
BLACK
6
CONTINUOUS
10
5.65426
20
-3.70175
11
5.65495
21
-3.70226
0
LINE
8
BLACK
6
CONTINUOUS
10
5.65495
20
-3.70226
11
5.65569
21
-3.70268
0
LINE
8
BLACK
6
CONTINUOUS
10
5.65569
20
-3.70268
11
5.65575
21
-3.70284
0
LINE
8
BLACK
6
CONTINUOUS
10
5.65575
20
-3.70284
11
5.65589
21
-3.70294
0
LINE
8
BLACK
6
CONTINUOUS
10
5.65589
20
-3.70294
11
5.65947
21
-3.70833
0
LINE
8
BLACK
6
CONTINUOUS
10
5.65947
20
-3.70833
11
5.66268
21
-3.71153
0
LINE
8
BLACK
6
CONTINUOUS
10
5.66268
20
-3.71153
11
5.666
21
-3.71319
0
LINE
8
BLACK
6
CONTINUOUS
10
5.666
20
-3.71319
11
5.66682
21
-3.7138
0
LINE
8
BLACK
6
CONTINUOUS
10
5.66682
20
-3.7138
11
5.66763
21
-3.71565
0
LINE
8
BLACK
6
CONTINUOUS
10
5.66763
20
-3.71565
11
5.66705
21
-3.71759
0
LINE
8
BLACK
6
CONTINUOUS
10
5.66705
20
-3.71759
11
5.66537
21
-3.7187
0
LINE
8
BLACK
6
CONTINUOUS
10
5.66537
20
-3.7187
11
5.66336
21
-3.71847
0
LINE
8
BLACK
6
CONTINUOUS
10
5.66336
20
-3.71847
11
5.65961
21
-3.7166
0
LINE
8
BLACK
6
CONTINUOUS
10
5.65961
20
-3.7166
11
5.6589
21
-3.71607
0
LINE
8
BLACK
6
CONTINUOUS
10
5.6589
20
-3.71607
11
5.65884
21
-3.71604
0
LINE
8
BLACK
6
CONTINUOUS
10
5.65884
20
-3.71604
11
5.65638
21
-3.71359
0
LINE
8
BLACK
6
CONTINUOUS
10
5.65638
20
-3.71359
11
5.65638
21
-3.741
0
LINE
8
BLACK
6
CONTINUOUS
10
5.65638
20
-3.741
11
5.66468
21
-3.741
0
LINE
8
BLACK
6
CONTINUOUS
10
5.66468
20
-3.741
11
5.66569
21
-3.74118
0
LINE
8
BLACK
6
CONTINUOUS
10
5.66569
20
-3.74118
11
5.66724
21
-3.74248
0
LINE
8
BLACK
6
CONTINUOUS
10
5.66724
20
-3.74248
11
5.66759
21
-3.74446
0
LINE
8
BLACK
6
CONTINUOUS
10
5.66759
20
-3.74446
11
5.66658
21
-3.74621
0
LINE
8
BLACK
6
CONTINUOUS
10
5.66658
20
-3.74621
11
5.66468
21
-3.7469
0
LINE
8
BLACK
6
CONTINUOUS
10
5.66468
20
-3.7469
11
5.64218
21
-3.7469
0
LINE
8
BLACK
6
CONTINUOUS
10
5.64218
20
-3.7469
11
5.64117
21
-3.74673
0
LINE
8
BLACK
6
CONTINUOUS
10
5.64117
20
-3.74673
11
5.63963
21
-3.74543
0
LINE
8
BLACK
6
CONTINUOUS
10
5.63963
20
-3.74543
11
5.63927
21
-3.74344
0
LINE
8
BLACK
6
CONTINUOUS
10
5.63927
20
-3.74344
11
5.64028
21
-3.74169
0
LINE
8
BLACK
6
CONTINUOUS
10
5.64028
20
-3.74169
11
5.64218
21
-3.741
0
LINE
8
BLACK
6
CONTINUOUS
10
5.64218
20
-3.741
11
5.65048
21
-3.741
0
LINE
8
BLACK
6
CONTINUOUS
10
5.65048
20
-3.741
11
5.65048
21
-3.70458
0
LINE
8
BLACK
6
CONTINUOUS
10
5.65048
20
-3.70458
11
5.65066
21
-3.70357
0
LINE
8
BLACK
6
CONTINUOUS
10
5.65066
20
-3.70357
11
5.65077
21
-3.70344
0
LINE
8
BLACK
6
CONTINUOUS
10
5.65077
20
-3.70344
11
5.65078
21
-3.70327
0
LINE
8
BLACK
6
CONTINUOUS
10
5.65078
20
-3.70327
11
5.6514
21
-3.70268
0
LINE
8
BLACK
6
CONTINUOUS
10
5.6514
20
-3.70268
11
5.65195
21
-3.70202
0
LINE
8
BLACK
6
CONTINUOUS
10
5.65195
20
-3.70202
11
5.65212
21
-3.702
0
LINE
8
BLACK
6
CONTINUOUS
10
5.65212
20
-3.702
11
5.65224
21
-3.70188
0
LINE
8
BLACK
6
CONTINUOUS
10
5.65224
20
-3.70188
11
5.6531
21
-3.70182
0
LINE
8
BLACK
6
CONTINUOUS
10
5.6531
20
-3.70182
11
5.65394
21
-3.70167
0
LINE
8
BLACK
6
CONTINUOUS
10
5.65394
20
-3.70167
11
5.65409
21
-3.70176
0
LINE
8
BLACK
6
CONTINUOUS
10
5.59008
20
-3.71581
11
5.59077
21
-3.71771
0
LINE
8
BLACK
6
CONTINUOUS
10
5.59077
20
-3.71771
11
5.59077
21
-3.73833
0
LINE
8
BLACK
6
CONTINUOUS
10
5.59077
20
-3.73833
11
5.59059
21
-3.73934
0
LINE
8
BLACK
6
CONTINUOUS
10
5.59059
20
-3.73934
11
5.59048
21
-3.73947
0
LINE
8
BLACK
6
CONTINUOUS
10
5.59048
20
-3.73947
11
5.59046
21
-3.73965
0
LINE
8
BLACK
6
CONTINUOUS
10
5.59046
20
-3.73965
11
5.58858
21
-3.7434
0
LINE
8
BLACK
6
CONTINUOUS
10
5.58858
20
-3.7434
11
5.58797
21
-3.74422
0
LINE
8
BLACK
6
CONTINUOUS
10
5.58797
20
-3.74422
11
5.58756
21
-3.7444
0
LINE
8
BLACK
6
CONTINUOUS
10
5.58756
20
-3.7444
11
5.58726
21
-3.74472
0
LINE
8
BLACK
6
CONTINUOUS
10
5.58726
20
-3.74472
11
5.58351
21
-3.74659
0
LINE
8
BLACK
6
CONTINUOUS
10
5.58351
20
-3.74659
11
5.58253
21
-3.74689
0
LINE
8
BLACK
6
CONTINUOUS
10
5.58253
20
-3.74689
11
5.58236
21
-3.74684
0
LINE
8
BLACK
6
CONTINUOUS
10
5.58236
20
-3.74684
11
5.58219
21
-3.7469
0
LINE
8
BLACK
6
CONTINUOUS
10
5.58219
20
-3.7469
11
5.57657
21
-3.7469
0
LINE
8
BLACK
6
CONTINUOUS
10
5.57657
20
-3.7469
11
5.57556
21
-3.74673
0
LINE
8
BLACK
6
CONTINUOUS
10
5.57556
20
-3.74673
11
5.57542
21
-3.74661
0
LINE
8
BLACK
6
CONTINUOUS
10
5.57542
20
-3.74661
11
5.57524
21
-3.74659
0
LINE
8
BLACK
6
CONTINUOUS
10
5.57524
20
-3.74659
11
5.5732
21
-3.74557
0
LINE
8
BLACK
6
CONTINUOUS
10
5.5732
20
-3.74557
11
5.57242
21
-3.74651
0
LINE
8
BLACK
6
CONTINUOUS
10
5.57242
20
-3.74651
11
5.57043
21
-3.74686
0
LINE
8
BLACK
6
CONTINUOUS
10
5.57043
20
-3.74686
11
5.56868
21
-3.74585
0
LINE
8
BLACK
6
CONTINUOUS
10
5.56868
20
-3.74585
11
5.56799
21
-3.74395
0
LINE
8
BLACK
6
CONTINUOUS
10
5.56799
20
-3.74395
11
5.56799
21
-3.71771
0
LINE
8
BLACK
6
CONTINUOUS
10
5.56799
20
-3.71771
11
5.56817
21
-3.7167
0
LINE
8
BLACK
6
CONTINUOUS
10
5.56817
20
-3.7167
11
5.56946
21
-3.71515
0
LINE
8
BLACK
6
CONTINUOUS
10
5.56946
20
-3.71515
11
5.57145
21
-3.7148
0
LINE
8
BLACK
6
CONTINUOUS
10
5.57145
20
-3.7148
11
5.5732
21
-3.71581
0
LINE
8
BLACK
6
CONTINUOUS
10
5.5732
20
-3.71581
11
5.57389
21
-3.71771
0
LINE
8
BLACK
6
CONTINUOUS
10
5.57389
20
-3.71771
11
5.57389
21
-3.73898
0
LINE
8
BLACK
6
CONTINUOUS
10
5.57389
20
-3.73898
11
5.57456
21
-3.73965
0
LINE
8
BLACK
6
CONTINUOUS
10
5.57456
20
-3.73965
11
5.57726
21
-3.741
0
LINE
8
BLACK
6
CONTINUOUS
10
5.57726
20
-3.741
11
5.58149
21
-3.741
0
LINE
8
BLACK
6
CONTINUOUS
10
5.58149
20
-3.741
11
5.58374
21
-3.73988
0
LINE
8
BLACK
6
CONTINUOUS
10
5.58374
20
-3.73988
11
5.58486
21
-3.73763
0
LINE
8
BLACK
6
CONTINUOUS
10
5.58486
20
-3.73763
11
5.58486
21
-3.71771
0
LINE
8
BLACK
6
CONTINUOUS
10
5.58486
20
-3.71771
11
5.58504
21
-3.7167
0
LINE
8
BLACK
6
CONTINUOUS
10
5.58504
20
-3.7167
11
5.58634
21
-3.71515
0
LINE
8
BLACK
6
CONTINUOUS
10
5.58634
20
-3.71515
11
5.58833
21
-3.7148
0
LINE
8
BLACK
6
CONTINUOUS
10
5.58833
20
-3.7148
11
5.59008
21
-3.71581
0
LINE
8
BLACK
6
CONTINUOUS
10
5.61882
20
-3.70181
11
5.61896
21
-3.70192
0
LINE
8
BLACK
6
CONTINUOUS
10
5.61896
20
-3.70192
11
5.61913
21
-3.70194
0
LINE
8
BLACK
6
CONTINUOUS
10
5.61913
20
-3.70194
11
5.62288
21
-3.70382
0
LINE
8
BLACK
6
CONTINUOUS
10
5.62288
20
-3.70382
11
5.62359
21
-3.70434
0
LINE
8
BLACK
6
CONTINUOUS
10
5.62359
20
-3.70434
11
5.62365
21
-3.70437
0
LINE
8
BLACK
6
CONTINUOUS
10
5.62365
20
-3.70437
11
5.62552
21
-3.70624
0
LINE
8
BLACK
6
CONTINUOUS
10
5.62552
20
-3.70624
11
5.62603
21
-3.70697
0
LINE
8
BLACK
6
CONTINUOUS
10
5.62603
20
-3.70697
11
5.62608
21
-3.70701
0
LINE
8
BLACK
6
CONTINUOUS
10
5.62608
20
-3.70701
11
5.62795
21
-3.71076
0
LINE
8
BLACK
6
CONTINUOUS
10
5.62795
20
-3.71076
11
5.6281
21
-3.71125
0
LINE
8
BLACK
6
CONTINUOUS
10
5.6281
20
-3.71125
11
5.62817
21
-3.71136
0
LINE
8
BLACK
6
CONTINUOUS
10
5.62817
20
-3.71136
11
5.63005
21
-3.71886
0
LINE
8
BLACK
6
CONTINUOUS
10
5.63005
20
-3.71886
11
5.63009
21
-3.71945
0
LINE
8
BLACK
6
CONTINUOUS
10
5.63009
20
-3.71945
11
5.63014
21
-3.71958
0
LINE
8
BLACK
6
CONTINUOUS
10
5.63014
20
-3.71958
11
5.63014
21
-3.72895
0
LINE
8
BLACK
6
CONTINUOUS
10
5.63014
20
-3.72895
11
5.63003
21
-3.72953
0
LINE
8
BLACK
6
CONTINUOUS
10
5.63003
20
-3.72953
11
5.63005
21
-3.72967
0
LINE
8
BLACK
6
CONTINUOUS
10
5.63005
20
-3.72967
11
5.62817
21
-3.73717
0
LINE
8
BLACK
6
CONTINUOUS
10
5.62817
20
-3.73717
11
5.62797
21
-3.73763
0
LINE
8
BLACK
6
CONTINUOUS
10
5.62797
20
-3.73763
11
5.62795
21
-3.73777
0
LINE
8
BLACK
6
CONTINUOUS
10
5.62795
20
-3.73777
11
5.62608
21
-3.74152
0
LINE
8
BLACK
6
CONTINUOUS
10
5.62608
20
-3.74152
11
5.62555
21
-3.74223
0
LINE
8
BLACK
6
CONTINUOUS
10
5.62555
20
-3.74223
11
5.62552
21
-3.74229
0
LINE
8
BLACK
6
CONTINUOUS
10
5.62552
20
-3.74229
11
5.62365
21
-3.74417
0
LINE
8
BLACK
6
CONTINUOUS
10
5.62365
20
-3.74417
11
5.62292
21
-3.74467
0
LINE
8
BLACK
6
CONTINUOUS
10
5.62292
20
-3.74467
11
5.62288
21
-3.74472
0
LINE
8
BLACK
6
CONTINUOUS
10
5.62288
20
-3.74472
11
5.61913
21
-3.74659
0
LINE
8
BLACK
6
CONTINUOUS
10
5.61913
20
-3.74659
11
5.61815
21
-3.74689
0
LINE
8
BLACK
6
CONTINUOUS
10
5.61815
20
-3.74689
11
5.61798
21
-3.74684
0
LINE
8
BLACK
6
CONTINUOUS
10
5.61798
20
-3.74684
11
5.61781
21
-3.7469
0
LINE
8
BLACK
6
CONTINUOUS
10
5.61781
20
-3.7469
11
5.61406
21
-3.7469
0
LINE
8
BLACK
6
CONTINUOUS
10
5.61406
20
-3.7469
11
5.61305
21
-3.74673
0
LINE
8
BLACK
6
CONTINUOUS
10
5.61305
20
-3.74673
11
5.61292
21
-3.74661
0
LINE
8
BLACK
6
CONTINUOUS
10
5.61292
20
-3.74661
11
5.61274
21
-3.74659
0
LINE
8
BLACK
6
CONTINUOUS
10
5.61274
20
-3.74659
11
5.60899
21
-3.74472
0
LINE
8
BLACK
6
CONTINUOUS
10
5.60899
20
-3.74472
11
5.60828
21
-3.74419
0
LINE
8
BLACK
6
CONTINUOUS
10
5.60828
20
-3.74419
11
5.60822
21
-3.74417
0
LINE
8
BLACK
6
CONTINUOUS
10
5.60822
20
-3.74417
11
5.60635
21
-3.74229
0
LINE
8
BLACK
6
CONTINUOUS
10
5.60635
20
-3.74229
11
5.60584
21
-3.74157
0
LINE
8
BLACK
6
CONTINUOUS
10
5.60584
20
-3.74157
11
5.6058
21
-3.74152
0
LINE
8
BLACK
6
CONTINUOUS
10
5.6058
20
-3.74152
11
5.60392
21
-3.73777
0
LINE
8
BLACK
6
CONTINUOUS
10
5.60392
20
-3.73777
11
5.60378
21
-3.73728
0
LINE
8
BLACK
6
CONTINUOUS
10
5.60378
20
-3.73728
11
5.6037
21
-3.73717
0
LINE
8
BLACK
6
CONTINUOUS
10
5.6037
20
-3.73717
11
5.60182
21
-3.72967
0
LINE
8
BLACK
6
CONTINUOUS
10
5.60182
20
-3.72967
11
5.60178
21
-3.72908
0
LINE
8
BLACK
6
CONTINUOUS
10
5.60178
20
-3.72908
11
5.60173
21
-3.72895
0
LINE
8
BLACK
6
CONTINUOUS
10
5.60173
20
-3.72895
11
5.60173
21
-3.71958
0
LINE
8
BLACK
6
CONTINUOUS
10
5.60173
20
-3.71958
11
5.60184
21
-3.719
0
LINE
8
BLACK
6
CONTINUOUS
10
5.60184
20
-3.719
11
5.60182
21
-3.71886
0
LINE
8
BLACK
6
CONTINUOUS
10
5.60182
20
-3.71886
11
5.6037
21
-3.71136
0
LINE
8
BLACK
6
CONTINUOUS
10
5.6037
20
-3.71136
11
5.6039
21
-3.7109
0
LINE
8
BLACK
6
CONTINUOUS
10
5.6039
20
-3.7109
11
5.60392
21
-3.71076
0
LINE
8
BLACK
6
CONTINUOUS
10
5.60392
20
-3.71076
11
5.6058
21
-3.70701
0
LINE
8
BLACK
6
CONTINUOUS
10
5.6058
20
-3.70701
11
5.60632
21
-3.7063
0
LINE
8
BLACK
6
CONTINUOUS
10
5.60632
20
-3.7063
11
5.60635
21
-3.70624
0
LINE
8
BLACK
6
CONTINUOUS
10
5.60635
20
-3.70624
11
5.60822
21
-3.70437
0
LINE
8
BLACK
6
CONTINUOUS
10
5.60822
20
-3.70437
11
5.60895
21
-3.70386
0
LINE
8
BLACK
6
CONTINUOUS
10
5.60895
20
-3.70386
11
5.60899
21
-3.70382
0
LINE
8
BLACK
6
CONTINUOUS
10
5.60899
20
-3.70382
11
5.61274
21
-3.70194
0
LINE
8
BLACK
6
CONTINUOUS
10
5.61274
20
-3.70194
11
5.61372
21
-3.70165
0
LINE
8
BLACK
6
CONTINUOUS
10
5.61372
20
-3.70165
11
5.61389
21
-3.70169
0
LINE
8
BLACK
6
CONTINUOUS
10
5.61389
20
-3.70169
11
5.61406
21
-3.70163
0
LINE
8
BLACK
6
CONTINUOUS
10
5.61406
20
-3.70163
11
5.61781
21
-3.70163
0
LINE
8
BLACK
6
CONTINUOUS
10
5.61781
20
-3.70163
11
5.61882
21
-3.70181
0
LINE
8
BLACK
6
CONTINUOUS
10
5.61476
20
-3.70753
11
5.61206
21
-3.70888
0
LINE
8
BLACK
6
CONTINUOUS
10
5.61206
20
-3.70888
11
5.61086
21
-3.71008
0
LINE
8
BLACK
6
CONTINUOUS
10
5.61086
20
-3.71008
11
5.60935
21
-3.71311
0
LINE
8
BLACK
6
CONTINUOUS
10
5.60935
20
-3.71311
11
5.60764
21
-3.71994
0
LINE
8
BLACK
6
CONTINUOUS
10
5.60764
20
-3.71994
11
5.60764
21
-3.72859
0
LINE
8
BLACK
6
CONTINUOUS
10
5.60764
20
-3.72859
11
5.60935
21
-3.73542
0
LINE
8
BLACK
6
CONTINUOUS
10
5.60935
20
-3.73542
11
5.61086
21
-3.73845
0
LINE
8
BLACK
6
CONTINUOUS
10
5.61086
20
-3.73845
11
5.61206
21
-3.73965
0
LINE
8
BLACK
6
CONTINUOUS
10
5.61206
20
-3.73965
11
5.61476
21
-3.741
0
LINE
8
BLACK
6
CONTINUOUS
10
5.61476
20
-3.741
11
5.61711
21
-3.741
0
LINE
8
BLACK
6
CONTINUOUS
10
5.61711
20
-3.741
11
5.61981
21
-3.73965
0
LINE
8
BLACK
6
CONTINUOUS
10
5.61981
20
-3.73965
11
5.62101
21
-3.73845
0
LINE
8
BLACK
6
CONTINUOUS
10
5.62101
20
-3.73845
11
5.62252
21
-3.73542
0
LINE
8
BLACK
6
CONTINUOUS
10
5.62252
20
-3.73542
11
5.62423
21
-3.72859
0
LINE
8
BLACK
6
CONTINUOUS
10
5.62423
20
-3.72859
11
5.62423
21
-3.71994
0
LINE
8
BLACK
6
CONTINUOUS
10
5.62423
20
-3.71994
11
5.62252
21
-3.71311
0
LINE
8
BLACK
6
CONTINUOUS
10
5.62252
20
-3.71311
11
5.62101
21
-3.71008
0
LINE
8
BLACK
6
CONTINUOUS
10
5.62101
20
-3.71008
11
5.61981
21
-3.70888
0
LINE
8
BLACK
6
CONTINUOUS
10
5.61981
20
-3.70888
11
5.61711
21
-3.70753
0
LINE
8
BLACK
6
CONTINUOUS
10
5.61711
20
-3.70753
11
5.61476
21
-3.70753
0
LINE
8
BLACK
6
CONTINUOUS
10
5.55258
20
-3.7017
11
5.55271
21
-3.70167
0
LINE
8
BLACK
6
CONTINUOUS
10
5.55271
20
-3.70167
11
5.55282
21
-3.70174
0
LINE
8
BLACK
6
CONTINUOUS
10
5.55282
20
-3.70174
11
5.5532
21
-3.70181
0
LINE
8
BLACK
6
CONTINUOUS
10
5.5532
20
-3.70181
11
5.55379
21
-3.7023
0
LINE
8
BLACK
6
CONTINUOUS
10
5.55379
20
-3.7023
11
5.55446
21
-3.70268
0
LINE
8
BLACK
6
CONTINUOUS
10
5.55446
20
-3.70268
11
5.55455
21
-3.70293
0
LINE
8
BLACK
6
CONTINUOUS
10
5.55455
20
-3.70293
11
5.55475
21
-3.70311
0
LINE
8
BLACK
6
CONTINUOUS
10
5.55475
20
-3.70311
11
5.55488
21
-3.70386
0
LINE
8
BLACK
6
CONTINUOUS
10
5.55488
20
-3.70386
11
5.55515
21
-3.70458
0
LINE
8
BLACK
6
CONTINUOUS
10
5.55515
20
-3.70458
11
5.55515
21
-3.74395
0
LINE
8
BLACK
6
CONTINUOUS
10
5.55515
20
-3.74395
11
5.55497
21
-3.74496
0
LINE
8
BLACK
6
CONTINUOUS
10
5.55497
20
-3.74496
11
5.55367
21
-3.74651
0
LINE
8
BLACK
6
CONTINUOUS
10
5.55367
20
-3.74651
11
5.55168
21
-3.74686
0
LINE
8
BLACK
6
CONTINUOUS
10
5.55168
20
-3.74686
11
5.54993
21
-3.74585
0
LINE
8
BLACK
6
CONTINUOUS
10
5.54993
20
-3.74585
11
5.54924
21
-3.74395
0
LINE
8
BLACK
6
CONTINUOUS
10
5.54924
20
-3.74395
11
5.54924
21
-3.72628
0
LINE
8
BLACK
6
CONTINUOUS
10
5.54924
20
-3.72628
11
5.53907
21
-3.72628
0
LINE
8
BLACK
6
CONTINUOUS
10
5.53907
20
-3.72628
11
5.53806
21
-3.7261
0
LINE
8
BLACK
6
CONTINUOUS
10
5.53806
20
-3.7261
11
5.53651
21
-3.72481
0
LINE
8
BLACK
6
CONTINUOUS
10
5.53651
20
-3.72481
11
5.53616
21
-3.72282
0
LINE
8
BLACK
6
CONTINUOUS
10
5.53616
20
-3.72282
11
5.53717
21
-3.72107
0
LINE
8
BLACK
6
CONTINUOUS
10
5.53717
20
-3.72107
11
5.53907
21
-3.72038
0
LINE
8
BLACK
6
CONTINUOUS
10
5.53907
20
-3.72038
11
5.54924
21
-3.72038
0
LINE
8
BLACK
6
CONTINUOUS
10
5.54924
20
-3.72038
11
5.54924
21
-3.70753
0
LINE
8
BLACK
6
CONTINUOUS
10
5.54924
20
-3.70753
11
5.53345
21
-3.70753
0
LINE
8
BLACK
6
CONTINUOUS
10
5.53345
20
-3.70753
11
5.53244
21
-3.70736
0
LINE
8
BLACK
6
CONTINUOUS
10
5.53244
20
-3.70736
11
5.53089
21
-3.70606
0
LINE
8
BLACK
6
CONTINUOUS
10
5.53089
20
-3.70606
11
5.53054
21
-3.70407
0
LINE
8
BLACK
6
CONTINUOUS
10
5.53054
20
-3.70407
11
5.53155
21
-3.70232
0
LINE
8
BLACK
6
CONTINUOUS
10
5.53155
20
-3.70232
11
5.53345
21
-3.70163
0
LINE
8
BLACK
6
CONTINUOUS
10
5.53345
20
-3.70163
11
5.55219
21
-3.70163
0
LINE
8
BLACK
6
CONTINUOUS
10
5.55219
20
-3.70163
11
5.55258
21
-3.7017
0
LINE
8
BLACK
6
CONTINUOUS
10
5.64134
20
-3.63539
11
5.64134
21
-3.68461
0
LINE
8
BLACK
6
CONTINUOUS
10
5.64134
20
-3.68461
11
5.64076
21
-3.686
0
LINE
8
BLACK
6
CONTINUOUS
10
5.64076
20
-3.686
11
5.63937
21
-3.68657
0
LINE
8
BLACK
6
CONTINUOUS
10
5.63937
20
-3.68657
11
5.56063
21
-3.68657
0
LINE
8
BLACK
6
CONTINUOUS
10
5.56063
20
-3.68657
11
5.55924
21
-3.686
0
LINE
8
BLACK
6
CONTINUOUS
10
5.55924
20
-3.686
11
5.55866
21
-3.68461
0
LINE
8
BLACK
6
CONTINUOUS
10
5.55866
20
-3.68461
11
5.55866
21
-3.63539
0
LINE
8
BLACK
6
CONTINUOUS
10
5.55866
20
-3.63539
11
5.55924
21
-3.634
0
LINE
8
BLACK
6
CONTINUOUS
10
5.55924
20
-3.634
11
5.56063
21
-3.63343
0
LINE
8
BLACK
6
CONTINUOUS
10
5.56063
20
-3.63343
11
5.56453
21
-3.63343
0
LINE
8
BLACK
6
CONTINUOUS
10
5.56453
20
-3.63343
11
5.56504
21
-3.63136
0
LINE
8
BLACK
6
CONTINUOUS
10
5.56504
20
-3.63136
11
5.56525
21
-3.6309
0
LINE
8
BLACK
6
CONTINUOUS
10
5.56525
20
-3.6309
11
5.56527
21
-3.63076
0
LINE
8
BLACK
6
CONTINUOUS
10
5.56527
20
-3.63076
11
5.56714
21
-3.62701
0
LINE
8
BLACK
6
CONTINUOUS
10
5.56714
20
-3.62701
11
5.56767
21
-3.6263
0
LINE
8
BLACK
6
CONTINUOUS
10
5.56767
20
-3.6263
11
5.56769
21
-3.62624
0
LINE
8
BLACK
6
CONTINUOUS
10
5.56769
20
-3.62624
11
5.56957
21
-3.62437
0
LINE
8
BLACK
6
CONTINUOUS
10
5.56957
20
-3.62437
11
5.57029
21
-3.62386
0
LINE
8
BLACK
6
CONTINUOUS
10
5.57029
20
-3.62386
11
5.57034
21
-3.62382
0
LINE
8
BLACK
6
CONTINUOUS
10
5.57034
20
-3.62382
11
5.57409
21
-3.62194
0
LINE
8
BLACK
6
CONTINUOUS
10
5.57409
20
-3.62194
11
5.57507
21
-3.62165
0
LINE
8
BLACK
6
CONTINUOUS
10
5.57507
20
-3.62165
11
5.57524
21
-3.62169
0
LINE
8
BLACK
6
CONTINUOUS
10
5.57524
20
-3.62169
11
5.57541
21
-3.62163
0
LINE
8
BLACK
6
CONTINUOUS
10
5.57541
20
-3.62163
11
5.57916
21
-3.62163
0
LINE
8
BLACK
6
CONTINUOUS
10
5.57916
20
-3.62163
11
5.58017
21
-3.62181
0
LINE
8
BLACK
6
CONTINUOUS
10
5.58017
20
-3.62181
11
5.5803
21
-3.62192
0
LINE
8
BLACK
6
CONTINUOUS
10
5.5803
20
-3.62192
11
5.58048
21
-3.62194
0
LINE
8
BLACK
6
CONTINUOUS
10
5.58048
20
-3.62194
11
5.58423
21
-3.62382
0
LINE
8
BLACK
6
CONTINUOUS
10
5.58423
20
-3.62382
11
5.58494
21
-3.62434
0
LINE
8
BLACK
6
CONTINUOUS
10
5.58494
20
-3.62434
11
5.58499
21
-3.62437
0
LINE
8
BLACK
6
CONTINUOUS
10
5.58499
20
-3.62437
11
5.58687
21
-3.62624
0
LINE
8
BLACK
6
CONTINUOUS
10
5.58687
20
-3.62624
11
5.58737
21
-3.62697
0
LINE
8
BLACK
6
CONTINUOUS
10
5.58737
20
-3.62697
11
5.58742
21
-3.62701
0
LINE
8
BLACK
6
CONTINUOUS
10
5.58742
20
-3.62701
11
5.5893
21
-3.63076
0
LINE
8
BLACK
6
CONTINUOUS
10
5.5893
20
-3.63076
11
5.58944
21
-3.63125
0
LINE
8
BLACK
6
CONTINUOUS
10
5.58944
20
-3.63125
11
5.58952
21
-3.63136
0
LINE
8
BLACK
6
CONTINUOUS
10
5.58952
20
-3.63136
11
5.59004
21
-3.63343
0
LINE
8
BLACK
6
CONTINUOUS
10
5.59004
20
-3.63343
11
5.61182
21
-3.63343
0
LINE
8
BLACK
6
CONTINUOUS
10
5.61182
20
-3.63343
11
5.61182
21
-3.62458
0
LINE
8
BLACK
6
CONTINUOUS
10
5.61182
20
-3.62458
11
5.612
21
-3.62357
0
LINE
8
BLACK
6
CONTINUOUS
10
5.612
20
-3.62357
11
5.61211
21
-3.62344
0
LINE
8
BLACK
6
CONTINUOUS
10
5.61211
20
-3.62344
11
5.61213
21
-3.62327
0
LINE
8
BLACK
6
CONTINUOUS
10
5.61213
20
-3.62327
11
5.61275
21
-3.62268
0
LINE
8
BLACK
6
CONTINUOUS
10
5.61275
20
-3.62268
11
5.6133
21
-3.62202
0
LINE
8
BLACK
6
CONTINUOUS
10
5.6133
20
-3.62202
11
5.61347
21
-3.622
0
LINE
8
BLACK
6
CONTINUOUS
10
5.61347
20
-3.622
11
5.61359
21
-3.62188
0
LINE
8
BLACK
6
CONTINUOUS
10
5.61359
20
-3.62188
11
5.61445
21
-3.62182
0
LINE
8
BLACK
6
CONTINUOUS
10
5.61445
20
-3.62182
11
5.61529
21
-3.62167
0
LINE
8
BLACK
6
CONTINUOUS
10
5.61529
20
-3.62167
11
5.61544
21
-3.62176
0
LINE
8
BLACK
6
CONTINUOUS
10
5.61544
20
-3.62176
11
5.61561
21
-3.62175
0
LINE
8
BLACK
6
CONTINUOUS
10
5.61561
20
-3.62175
11
5.6163
21
-3.62226
0
LINE
8
BLACK
6
CONTINUOUS
10
5.6163
20
-3.62226
11
5.61704
21
-3.62268
0
LINE
8
BLACK
6
CONTINUOUS
10
5.61704
20
-3.62268
11
5.6171
21
-3.62284
0
LINE
8
BLACK
6
CONTINUOUS
10
5.6171
20
-3.62284
11
5.61723
21
-3.62294
0
LINE
8
BLACK
6
CONTINUOUS
10
5.61723
20
-3.62294
11
5.62082
21
-3.62833
0
LINE
8
BLACK
6
CONTINUOUS
10
5.62082
20
-3.62833
11
5.62403
21
-3.63153
0
LINE
8
BLACK
6
CONTINUOUS
10
5.62403
20
-3.63153
11
5.62735
21
-3.63319
0
LINE
8
BLACK
6
CONTINUOUS
10
5.62735
20
-3.63319
11
5.62766
21
-3.63343
0
LINE
8
BLACK
6
CONTINUOUS
10
5.62766
20
-3.63343
11
5.63937
21
-3.63343
0
LINE
8
BLACK
6
CONTINUOUS
10
5.63937
20
-3.63343
11
5.64076
21
-3.634
0
LINE
8
BLACK
6
CONTINUOUS
10
5.64076
20
-3.634
11
5.64134
21
-3.63539
0
LINE
8
BLACK
6
CONTINUOUS
10
5.58342
20
-3.67002
11
5.58296
21
-3.66891
0
LINE
8
BLACK
6
CONTINUOUS
10
5.58296
20
-3.66891
11
5.58342
21
-3.66779
0
LINE
8
BLACK
6
CONTINUOUS
10
5.58342
20
-3.66779
11
5.58453
21
-3.66733
0
LINE
8
BLACK
6
CONTINUOUS
10
5.58453
20
-3.66733
11
5.58858
21
-3.66733
0
LINE
8
BLACK
6
CONTINUOUS
10
5.58858
20
-3.66733
11
5.58858
21
-3.6592
0
LINE
8
BLACK
6
CONTINUOUS
10
5.58858
20
-3.6592
11
5.58742
21
-3.66152
0
LINE
8
BLACK
6
CONTINUOUS
10
5.58742
20
-3.66152
11
5.5869
21
-3.66223
0
LINE
8
BLACK
6
CONTINUOUS
10
5.5869
20
-3.66223
11
5.58687
21
-3.66229
0
LINE
8
BLACK
6
CONTINUOUS
10
5.58687
20
-3.66229
11
5.58499
21
-3.66417
0
LINE
8
BLACK
6
CONTINUOUS
10
5.58499
20
-3.66417
11
5.58427
21
-3.66467
0
LINE
8
BLACK
6
CONTINUOUS
10
5.58427
20
-3.66467
11
5.58423
21
-3.66472
0
LINE
8
BLACK
6
CONTINUOUS
10
5.58423
20
-3.66472
11
5.58048
21
-3.66659
0
LINE
8
BLACK
6
CONTINUOUS
10
5.58048
20
-3.66659
11
5.57949
21
-3.66689
0
LINE
8
BLACK
6
CONTINUOUS
10
5.57949
20
-3.66689
11
5.57932
21
-3.66684
0
LINE
8
BLACK
6
CONTINUOUS
10
5.57932
20
-3.66684
11
5.57916
21
-3.6669
0
LINE
8
BLACK
6
CONTINUOUS
10
5.57916
20
-3.6669
11
5.57541
21
-3.6669
0
LINE
8
BLACK
6
CONTINUOUS
10
5.57541
20
-3.6669
11
5.5744
21
-3.66673
0
LINE
8
BLACK
6
CONTINUOUS
10
5.5744
20
-3.66673
11
5.57426
21
-3.66661
0
LINE
8
BLACK
6
CONTINUOUS
10
5.57426
20
-3.66661
11
5.57409
21
-3.66659
0
LINE
8
BLACK
6
CONTINUOUS
10
5.57409
20
-3.66659
11
5.57034
21
-3.66472
0
LINE
8
BLACK
6
CONTINUOUS
10
5.57034
20
-3.66472
11
5.56963
21
-3.66419
0
LINE
8
BLACK
6
CONTINUOUS
10
5.56963
20
-3.66419
11
5.56957
21
-3.66417
0
LINE
8
BLACK
6
CONTINUOUS
10
5.56957
20
-3.66417
11
5.56769
21
-3.66229
0
LINE
8
BLACK
6
CONTINUOUS
10
5.56769
20
-3.66229
11
5.56719
21
-3.66157
0
LINE
8
BLACK
6
CONTINUOUS
10
5.56719
20
-3.66157
11
5.56714
21
-3.66152
0
LINE
8
BLACK
6
CONTINUOUS
10
5.56714
20
-3.66152
11
5.56527
21
-3.65777
0
LINE
8
BLACK
6
CONTINUOUS
10
5.56527
20
-3.65777
11
5.56512
21
-3.65728
0
LINE
8
BLACK
6
CONTINUOUS
10
5.56512
20
-3.65728
11
5.56504
21
-3.65717
0
LINE
8
BLACK
6
CONTINUOUS
10
5.56504
20
-3.65717
11
5.56317
21
-3.64967
0
LINE
8
BLACK
6
CONTINUOUS
10
5.56317
20
-3.64967
11
5.56313
21
-3.64908
0
LINE
8
BLACK
6
CONTINUOUS
10
5.56313
20
-3.64908
11
5.56308
21
-3.64895
0
LINE
8
BLACK
6
CONTINUOUS
10
5.56308
20
-3.64895
11
5.56308
21
-3.63958
0
LINE
8
BLACK
6
CONTINUOUS
10
5.56308
20
-3.63958
11
5.56318
21
-3.639
0
LINE
8
BLACK
6
CONTINUOUS
10
5.56318
20
-3.639
11
5.56317
21
-3.63886
0
LINE
8
BLACK
6
CONTINUOUS
10
5.56317
20
-3.63886
11
5.56354
21
-3.63736
0
LINE
8
BLACK
6
CONTINUOUS
10
5.56354
20
-3.63736
11
5.5626
21
-3.63736
0
LINE
8
BLACK
6
CONTINUOUS
10
5.5626
20
-3.63736
11
5.5626
21
-3.68264
0
LINE
8
BLACK
6
CONTINUOUS
10
5.5626
20
-3.68264
11
5.6374
21
-3.68264
0
LINE
8
BLACK
6
CONTINUOUS
10
5.6374
20
-3.68264
11
5.6374
21
-3.63736
0
LINE
8
BLACK
6
CONTINUOUS
10
5.6374
20
-3.63736
11
5.62846
21
-3.63736
0
LINE
8
BLACK
6
CONTINUOUS
10
5.62846
20
-3.63736
11
5.6284
21
-3.63759
0
LINE
8
BLACK
6
CONTINUOUS
10
5.6284
20
-3.63759
11
5.62671
21
-3.6387
0
LINE
8
BLACK
6
CONTINUOUS
10
5.62671
20
-3.6387
11
5.6247
21
-3.63847
0
LINE
8
BLACK
6
CONTINUOUS
10
5.6247
20
-3.63847
11
5.62249
21
-3.63736
0
LINE
8
BLACK
6
CONTINUOUS
10
5.62249
20
-3.63736
11
5.61773
21
-3.63736
0
LINE
8
BLACK
6
CONTINUOUS
10
5.61773
20
-3.63736
11
5.61773
21
-3.661
0
LINE
8
BLACK
6
CONTINUOUS
10
5.61773
20
-3.661
11
5.62603
21
-3.661
0
LINE
8
BLACK
6
CONTINUOUS
10
5.62603
20
-3.661
11
5.62704
21
-3.66118
0
LINE
8
BLACK
6
CONTINUOUS
10
5.62704
20
-3.66118
11
5.62858
21
-3.66248
0
LINE
8
BLACK
6
CONTINUOUS
10
5.62858
20
-3.66248
11
5.62893
21
-3.66446
0
LINE
8
BLACK
6
CONTINUOUS
10
5.62893
20
-3.66446
11
5.62792
21
-3.66621
0
LINE
8
BLACK
6
CONTINUOUS
10
5.62792
20
-3.66621
11
5.62603
21
-3.6669
0
LINE
8
BLACK
6
CONTINUOUS
10
5.62603
20
-3.6669
11
5.61488
21
-3.6669
0
LINE
8
BLACK
6
CONTINUOUS
10
5.61488
20
-3.6669
11
5.6148
21
-3.66697
0
LINE
8
BLACK
6
CONTINUOUS
10
5.6148
20
-3.66697
11
5.61471
21
-3.66721
0
LINE
8
BLACK
6
CONTINUOUS
10
5.61471
20
-3.66721
11
5.61283
21
-3.66908
0
LINE
8
BLACK
6
CONTINUOUS
10
5.61283
20
-3.66908
11
5.61249
21
-3.66922
0
LINE
8
BLACK
6
CONTINUOUS
10
5.61249
20
-3.66922
11
5.61222
21
-3.66946
0
LINE
8
BLACK
6
CONTINUOUS
10
5.61222
20
-3.66946
11
5.6094
21
-3.6704
0
LINE
8
BLACK
6
CONTINUOUS
10
5.6094
20
-3.6704
11
5.60914
21
-3.67038
0
LINE
8
BLACK
6
CONTINUOUS
10
5.60914
20
-3.67038
11
5.60891
21
-3.67048
0
LINE
8
BLACK
6
CONTINUOUS
10
5.60891
20
-3.67048
11
5.60703
21
-3.67048
0
LINE
8
BLACK
6
CONTINUOUS
10
5.60703
20
-3.67048
11
5.60679
21
-3.67038
0
LINE
8
BLACK
6
CONTINUOUS
10
5.60679
20
-3.67038
11
5.60653
21
-3.6704
0
LINE
8
BLACK
6
CONTINUOUS
10
5.60653
20
-3.6704
11
5.60372
21
-3.66946
0
LINE
8
BLACK
6
CONTINUOUS
10
5.60372
20
-3.66946
11
5.60344
21
-3.66922
0
LINE
8
BLACK
6
CONTINUOUS
10
5.60344
20
-3.66922
11
5.6031
21
-3.66908
0
LINE
8
BLACK
6
CONTINUOUS
10
5.6031
20
-3.66908
11
5.60217
21
-3.66814
0
LINE
8
BLACK
6
CONTINUOUS
10
5.60217
20
-3.66814
11
5.60171
21
-3.66703
0
LINE
8
BLACK
6
CONTINUOUS
10
5.60171
20
-3.66703
11
5.60201
21
-3.6663
0
LINE
8
BLACK
6
CONTINUOUS
10
5.60201
20
-3.6663
11
5.60097
21
-3.66543
0
LINE
8
BLACK
6
CONTINUOUS
10
5.60097
20
-3.66543
11
5.60062
21
-3.66344
0
LINE
8
BLACK
6
CONTINUOUS
10
5.60062
20
-3.66344
11
5.60163
21
-3.66169
0
LINE
8
BLACK
6
CONTINUOUS
10
5.60163
20
-3.66169
11
5.60353
21
-3.661
0
LINE
8
BLACK
6
CONTINUOUS
10
5.60353
20
-3.661
11
5.61182
21
-3.661
0
LINE
8
BLACK
6
CONTINUOUS
10
5.61182
20
-3.661
11
5.61182
21
-3.65249
0
LINE
8
BLACK
6
CONTINUOUS
10
5.61182
20
-3.65249
11
5.61087
21
-3.65153
0
LINE
8
BLACK
6
CONTINUOUS
10
5.61087
20
-3.65153
11
5.60865
21
-3.65079
0
LINE
8
BLACK
6
CONTINUOUS
10
5.60865
20
-3.65079
11
5.60729
21
-3.65079
0
LINE
8
BLACK
6
CONTINUOUS
10
5.60729
20
-3.65079
11
5.60507
21
-3.65153
0
LINE
8
BLACK
6
CONTINUOUS
10
5.60507
20
-3.65153
11
5.60439
21
-3.65221
0
LINE
8
BLACK
6
CONTINUOUS
10
5.60439
20
-3.65221
11
5.60328
21
-3.65267
0
LINE
8
BLACK
6
CONTINUOUS
10
5.60328
20
-3.65267
11
5.60217
21
-3.65221
0
LINE
8
BLACK
6
CONTINUOUS
10
5.60217
20
-3.65221
11
5.60171
21
-3.65109
0
LINE
8
BLACK
6
CONTINUOUS
10
5.60171
20
-3.65109
11
5.60217
21
-3.64998
0
LINE
8
BLACK
6
CONTINUOUS
10
5.60217
20
-3.64998
11
5.6031
21
-3.64904
0
LINE
8
BLACK
6
CONTINUOUS
10
5.6031
20
-3.64904
11
5.60344
21
-3.6489
0
LINE
8
BLACK
6
CONTINUOUS
10
5.60344
20
-3.6489
11
5.60372
21
-3.64866
0
LINE
8
BLACK
6
CONTINUOUS
10
5.60372
20
-3.64866
11
5.60653
21
-3.64773
0
LINE
8
BLACK
6
CONTINUOUS
10
5.60653
20
-3.64773
11
5.60679
21
-3.64774
0
LINE
8
BLACK
6
CONTINUOUS
10
5.60679
20
-3.64774
11
5.60703
21
-3.64765
0
LINE
8
BLACK
6
CONTINUOUS
10
5.60703
20
-3.64765
11
5.60891
21
-3.64765
0
LINE
8
BLACK
6
CONTINUOUS
10
5.60891
20
-3.64765
11
5.60914
21
-3.64774
0
LINE
8
BLACK
6
CONTINUOUS
10
5.60914
20
-3.64774
11
5.6094
21
-3.64773
0
LINE
8
BLACK
6
CONTINUOUS
10
5.6094
20
-3.64773
11
5.61182
21
-3.64853
0
LINE
8
BLACK
6
CONTINUOUS
10
5.61182
20
-3.64853
11
5.61182
21
-3.63736
0
LINE
8
BLACK
6
CONTINUOUS
10
5.61182
20
-3.63736
11
5.59102
21
-3.63736
0
LINE
8
BLACK
6
CONTINUOUS
10
5.59102
20
-3.63736
11
5.59139
21
-3.63886
0
LINE
8
BLACK
6
CONTINUOUS
10
5.59139
20
-3.63886
11
5.59144
21
-3.63945
0
LINE
8
BLACK
6
CONTINUOUS
10
5.59144
20
-3.63945
11
5.59148
21
-3.63958
0
LINE
8
BLACK
6
CONTINUOUS
10
5.59148
20
-3.63958
11
5.59148
21
-3.64837
0
LINE
8
BLACK
6
CONTINUOUS
10
5.59148
20
-3.64837
11
5.59326
21
-3.65103
0
LINE
8
BLACK
6
CONTINUOUS
10
5.59326
20
-3.65103
11
5.59484
21
-3.65261
0
LINE
8
BLACK
6
CONTINUOUS
10
5.59484
20
-3.65261
11
5.59649
21
-3.65344
0
LINE
8
BLACK
6
CONTINUOUS
10
5.59649
20
-3.65344
11
5.59728
21
-3.65435
0
LINE
8
BLACK
6
CONTINUOUS
10
5.59728
20
-3.65435
11
5.59719
21
-3.65555
0
LINE
8
BLACK
6
CONTINUOUS
10
5.59719
20
-3.65555
11
5.59628
21
-3.65634
0
LINE
8
BLACK
6
CONTINUOUS
10
5.59628
20
-3.65634
11
5.59508
21
-3.65625
0
LINE
8
BLACK
6
CONTINUOUS
10
5.59508
20
-3.65625
11
5.5932
21
-3.65532
0
LINE
8
BLACK
6
CONTINUOUS
10
5.5932
20
-3.65532
11
5.59303
21
-3.65512
0
LINE
8
BLACK
6
CONTINUOUS
10
5.59303
20
-3.65512
11
5.59279
21
-3.65502
0
LINE
8
BLACK
6
CONTINUOUS
10
5.59279
20
-3.65502
11
5.59173
21
-3.65396
0
LINE
8
BLACK
6
CONTINUOUS
10
5.59173
20
-3.65396
11
5.59173
21
-3.66733
0
LINE
8
BLACK
6
CONTINUOUS
10
5.59173
20
-3.66733
11
5.59578
21
-3.66733
0
LINE
8
BLACK
6
CONTINUOUS
10
5.59578
20
-3.66733
11
5.5969
21
-3.66779
0
LINE
8
BLACK
6
CONTINUOUS
10
5.5969
20
-3.66779
11
5.59736
21
-3.66891
0
LINE
8
BLACK
6
CONTINUOUS
10
5.59736
20
-3.66891
11
5.5969
21
-3.67002
0
LINE
8
BLACK
6
CONTINUOUS
10
5.5969
20
-3.67002
11
5.59578
21
-3.67048
0
LINE
8
BLACK
6
CONTINUOUS
10
5.59578
20
-3.67048
11
5.58453
21
-3.67048
0
LINE
8
BLACK
6
CONTINUOUS
10
5.58453
20
-3.67048
11
5.58342
21
-3.67002
0
LINE
8
BLACK
6
CONTINUOUS
10
5.60601
20
-3.6669
11
5.60729
21
-3.66733
0
LINE
8
BLACK
6
CONTINUOUS
10
5.60729
20
-3.66733
11
5.60865
21
-3.66733
0
LINE
8
BLACK
6
CONTINUOUS
10
5.60865
20
-3.66733
11
5.60993
21
-3.6669
0
LINE
8
BLACK
6
CONTINUOUS
10
5.60993
20
-3.6669
11
5.60601
21
-3.6669
0
LINE
8
BLACK
6
CONTINUOUS
10
5.56963
20
-3.63736
11
5.56899
21
-3.63994
0
LINE
8
BLACK
6
CONTINUOUS
10
5.56899
20
-3.63994
11
5.56899
21
-3.64859
0
LINE
8
BLACK
6
CONTINUOUS
10
5.56899
20
-3.64859
11
5.57069
21
-3.65542
0
LINE
8
BLACK
6
CONTINUOUS
10
5.57069
20
-3.65542
11
5.57221
21
-3.65845
0
LINE
8
BLACK
6
CONTINUOUS
10
5.57221
20
-3.65845
11
5.57341
21
-3.65965
0
LINE
8
BLACK
6
CONTINUOUS
10
5.57341
20
-3.65965
11
5.5761
21
-3.661
0
LINE
8
BLACK
6
CONTINUOUS
10
5.5761
20
-3.661
11
5.57846
21
-3.661
0
LINE
8
BLACK
6
CONTINUOUS
10
5.57846
20
-3.661
11
5.58116
21
-3.65965
0
LINE
8
BLACK
6
CONTINUOUS
10
5.58116
20
-3.65965
11
5.58235
21
-3.65845
0
LINE
8
BLACK
6
CONTINUOUS
10
5.58235
20
-3.65845
11
5.58387
21
-3.65542
0
LINE
8
BLACK
6
CONTINUOUS
10
5.58387
20
-3.65542
11
5.58558
21
-3.64859
0
LINE
8
BLACK
6
CONTINUOUS
10
5.58558
20
-3.64859
11
5.58558
21
-3.63994
0
LINE
8
BLACK
6
CONTINUOUS
10
5.58558
20
-3.63994
11
5.58493
21
-3.63736
0
LINE
8
BLACK
6
CONTINUOUS
10
5.58493
20
-3.63736
11
5.56963
21
-3.63736
0
LINE
8
BLACK
6
CONTINUOUS
10
5.5761
20
-3.62753
11
5.57341
21
-3.62888
0
LINE
8
BLACK
6
CONTINUOUS
10
5.57341
20
-3.62888
11
5.57221
21
-3.63008
0
LINE
8
BLACK
6
CONTINUOUS
10
5.57221
20
-3.63008
11
5.57069
21
-3.63311
0
LINE
8
BLACK
6
CONTINUOUS
10
5.57069
20
-3.63311
11
5.57062
21
-3.63343
0
LINE
8
BLACK
6
CONTINUOUS
10
5.57062
20
-3.63343
11
5.58395
21
-3.63343
0
LINE
8
BLACK
6
CONTINUOUS
10
5.58395
20
-3.63343
11
5.58387
21
-3.63311
0
LINE
8
BLACK
6
CONTINUOUS
10
5.58387
20
-3.63311
11
5.58235
21
-3.63008
0
LINE
8
BLACK
6
CONTINUOUS
10
5.58235
20
-3.63008
11
5.58116
21
-3.62888
0
LINE
8
BLACK
6
CONTINUOUS
10
5.58116
20
-3.62888
11
5.57846
21
-3.62753
0
LINE
8
BLACK
6
CONTINUOUS
10
5.57846
20
-3.62753
11
5.5761
21
-3.62753
0
LINE
8
BLACK
6
CONTINUOUS
10
5.54267
20
-3.62181
11
5.54281
21
-3.62192
0
LINE
8
BLACK
6
CONTINUOUS
10
5.54281
20
-3.62192
11
5.54298
21
-3.62194
0
LINE
8
BLACK
6
CONTINUOUS
10
5.54298
20
-3.62194
11
5.54673
21
-3.62382
0
LINE
8
BLACK
6
CONTINUOUS
10
5.54673
20
-3.62382
11
5.54744
21
-3.62434
0
LINE
8
BLACK
6
CONTINUOUS
10
5.54744
20
-3.62434
11
5.5475
21
-3.62437
0
LINE
8
BLACK
6
CONTINUOUS
10
5.5475
20
-3.62437
11
5.54937
21
-3.62624
0
LINE
8
BLACK
6
CONTINUOUS
10
5.54937
20
-3.62624
11
5.54988
21
-3.62697
0
LINE
8
BLACK
6
CONTINUOUS
10
5.54988
20
-3.62697
11
5.54993
21
-3.62701
0
LINE
8
BLACK
6
CONTINUOUS
10
5.54993
20
-3.62701
11
5.5518
21
-3.63076
0
LINE
8
BLACK
6
CONTINUOUS
10
5.5518
20
-3.63076
11
5.55195
21
-3.63125
0
LINE
8
BLACK
6
CONTINUOUS
10
5.55195
20
-3.63125
11
5.55202
21
-3.63136
0
LINE
8
BLACK
6
CONTINUOUS
10
5.55202
20
-3.63136
11
5.5539
21
-3.63886
0
LINE
8
BLACK
6
CONTINUOUS
10
5.5539
20
-3.63886
11
5.55394
21
-3.63945
0
LINE
8
BLACK
6
CONTINUOUS
10
5.55394
20
-3.63945
11
5.55399
21
-3.63958
0
LINE
8
BLACK
6
CONTINUOUS
10
5.55399
20
-3.63958
11
5.55399
21
-3.64895
0
LINE
8
BLACK
6
CONTINUOUS
10
5.55399
20
-3.64895
11
5.55389
21
-3.64953
0
LINE
8
BLACK
6
CONTINUOUS
10
5.55389
20
-3.64953
11
5.5539
21
-3.64967
0
LINE
8
BLACK
6
CONTINUOUS
10
5.5539
20
-3.64967
11
5.55202
21
-3.65717
0
LINE
8
BLACK
6
CONTINUOUS
10
5.55202
20
-3.65717
11
5.55182
21
-3.65763
0
LINE
8
BLACK
6
CONTINUOUS
10
5.55182
20
-3.65763
11
5.5518
21
-3.65777
0
LINE
8
BLACK
6
CONTINUOUS
10
5.5518
20
-3.65777
11
5.54993
21
-3.66152
0
LINE
8
BLACK
6
CONTINUOUS
10
5.54993
20
-3.66152
11
5.5494
21
-3.66223
0
LINE
8
BLACK
6
CONTINUOUS
10
5.5494
20
-3.66223
11
5.54937
21
-3.66229
0
LINE
8
BLACK
6
CONTINUOUS
10
5.54937
20
-3.66229
11
5.5475
21
-3.66417
0
LINE
8
BLACK
6
CONTINUOUS
10
5.5475
20
-3.66417
11
5.54678
21
-3.66467
0
LINE
8
BLACK
6
CONTINUOUS
10
5.54678
20
-3.66467
11
5.54673
21
-3.66472
0
LINE
8
BLACK
6
CONTINUOUS
10
5.54673
20
-3.66472
11
5.54298
21
-3.66659
0
LINE
8
BLACK
6
CONTINUOUS
10
5.54298
20
-3.66659
11
5.542
21
-3.66689
0
LINE
8
BLACK
6
CONTINUOUS
10
5.542
20
-3.66689
11
5.54183
21
-3.66684
0
LINE
8
BLACK
6
CONTINUOUS
10
5.54183
20
-3.66684
11
5.54166
21
-3.6669
0
LINE
8
BLACK
6
CONTINUOUS
10
5.54166
20
-3.6669
11
5.53791
21
-3.6669
0
LINE
8
BLACK
6
CONTINUOUS
10
5.53791
20
-3.6669
11
5.5369
21
-3.66673
0
LINE
8
BLACK
6
CONTINUOUS
10
5.5369
20
-3.66673
11
5.53677
21
-3.66661
0
LINE
8
BLACK
6
CONTINUOUS
10
5.53677
20
-3.66661
11
5.53659
21
-3.66659
0
LINE
8
BLACK
6
CONTINUOUS
10
5.53659
20
-3.66659
11
5.53284
21
-3.66472
0
LINE
8
BLACK
6
CONTINUOUS
10
5.53284
20
-3.66472
11
5.53213
21
-3.66419
0
LINE
8
BLACK
6
CONTINUOUS
10
5.53213
20
-3.66419
11
5.53207
21
-3.66417
0
LINE
8
BLACK
6
CONTINUOUS
10
5.53207
20
-3.66417
11
5.5302
21
-3.66229
0
LINE
8
BLACK
6
CONTINUOUS
10
5.5302
20
-3.66229
11
5.52969
21
-3.66157
0
LINE
8
BLACK
6
CONTINUOUS
10
5.52969
20
-3.66157
11
5.52965
21
-3.66152
0
LINE
8
BLACK
6
CONTINUOUS
10
5.52965
20
-3.66152
11
5.52777
21
-3.65777
0
LINE
8
BLACK
6
CONTINUOUS
10
5.52777
20
-3.65777
11
5.52763
21
-3.65728
0
LINE
8
BLACK
6
CONTINUOUS
10
5.52763
20
-3.65728
11
5.52755
21
-3.65717
0
LINE
8
BLACK
6
CONTINUOUS
10
5.52755
20
-3.65717
11
5.52567
21
-3.64967
0
LINE
8
BLACK
6
CONTINUOUS
10
5.52567
20
-3.64967
11
5.52563
21
-3.64908
0
LINE
8
BLACK
6
CONTINUOUS
10
5.52563
20
-3.64908
11
5.52558
21
-3.64895
0
LINE
8
BLACK
6
CONTINUOUS
10
5.52558
20
-3.64895
11
5.52558
21
-3.63958
0
LINE
8
BLACK
6
CONTINUOUS
10
5.52558
20
-3.63958
11
5.52569
21
-3.639
0
LINE
8
BLACK
6
CONTINUOUS
10
5.52569
20
-3.639
11
5.52567
21
-3.63886
0
LINE
8
BLACK
6
CONTINUOUS
10
5.52567
20
-3.63886
11
5.52755
21
-3.63136
0
LINE
8
BLACK
6
CONTINUOUS
10
5.52755
20
-3.63136
11
5.52776
21
-3.6309
0
LINE
8
BLACK
6
CONTINUOUS
10
5.52776
20
-3.6309
11
5.52777
21
-3.63076
0
LINE
8
BLACK
6
CONTINUOUS
10
5.52777
20
-3.63076
11
5.52965
21
-3.62701
0
LINE
8
BLACK
6
CONTINUOUS
10
5.52965
20
-3.62701
11
5.53017
21
-3.6263
0
LINE
8
BLACK
6
CONTINUOUS
10
5.53017
20
-3.6263
11
5.5302
21
-3.62624
0
LINE
8
BLACK
6
CONTINUOUS
10
5.5302
20
-3.62624
11
5.53207
21
-3.62437
0
LINE
8
BLACK
6
CONTINUOUS
10
5.53207
20
-3.62437
11
5.5328
21
-3.62386
0
LINE
8
BLACK
6
CONTINUOUS
10
5.5328
20
-3.62386
11
5.53284
21
-3.62382
0
LINE
8
BLACK
6
CONTINUOUS
10
5.53284
20
-3.62382
11
5.53659
21
-3.62194
0
LINE
8
BLACK
6
CONTINUOUS
10
5.53659
20
-3.62194
11
5.53757
21
-3.62165
0
LINE
8
BLACK
6
CONTINUOUS
10
5.53757
20
-3.62165
11
5.53775
21
-3.62169
0
LINE
8
BLACK
6
CONTINUOUS
10
5.53775
20
-3.62169
11
5.53791
21
-3.62163
0
LINE
8
BLACK
6
CONTINUOUS
10
5.53791
20
-3.62163
11
5.54166
21
-3.62163
0
LINE
8
BLACK
6
CONTINUOUS
10
5.54166
20
-3.62163
11
5.54267
21
-3.62181
0
LINE
8
BLACK
6
CONTINUOUS
10
5.53861
20
-3.62753
11
5.53591
21
-3.62888
0
LINE
8
BLACK
6
CONTINUOUS
10
5.53591
20
-3.62888
11
5.53471
21
-3.63008
0
LINE
8
BLACK
6
CONTINUOUS
10
5.53471
20
-3.63008
11
5.5332
21
-3.63311
0
LINE
8
BLACK
6
CONTINUOUS
10
5.5332
20
-3.63311
11
5.53149
21
-3.63994
0
LINE
8
BLACK
6
CONTINUOUS
10
5.53149
20
-3.63994
11
5.53149
21
-3.64859
0
LINE
8
BLACK
6
CONTINUOUS
10
5.53149
20
-3.64859
11
5.5332
21
-3.65542
0
LINE
8
BLACK
6
CONTINUOUS
10
5.5332
20
-3.65542
11
5.53471
21
-3.65845
0
LINE
8
BLACK
6
CONTINUOUS
10
5.53471
20
-3.65845
11
5.53591
21
-3.65965
0
LINE
8
BLACK
6
CONTINUOUS
10
5.53591
20
-3.65965
11
5.53861
21
-3.661
0
LINE
8
BLACK
6
CONTINUOUS
10
5.53861
20
-3.661
11
5.54096
21
-3.661
0
LINE
8
BLACK
6
CONTINUOUS
10
5.54096
20
-3.661
11
5.54366
21
-3.65965
0
LINE
8
BLACK
6
CONTINUOUS
10
5.54366
20
-3.65965
11
5.54486
21
-3.65845
0
LINE
8
BLACK
6
CONTINUOUS
10
5.54486
20
-3.65845
11
5.54637
21
-3.65542
0
LINE
8
BLACK
6
CONTINUOUS
10
5.54637
20
-3.65542
11
5.54808
21
-3.64859
0
LINE
8
BLACK
6
CONTINUOUS
10
5.54808
20
-3.64859
11
5.54808
21
-3.63994
0
LINE
8
BLACK
6
CONTINUOUS
10
5.54808
20
-3.63994
11
5.54637
21
-3.63311
0
LINE
8
BLACK
6
CONTINUOUS
10
5.54637
20
-3.63311
11
5.54486
21
-3.63008
0
LINE
8
BLACK
6
CONTINUOUS
10
5.54486
20
-3.63008
11
5.54366
21
-3.62888
0
LINE
8
BLACK
6
CONTINUOUS
10
5.54366
20
-3.62888
11
5.54096
21
-3.62753
0
LINE
8
BLACK
6
CONTINUOUS
10
5.54096
20
-3.62753
11
5.53861
21
-3.62753
0
LINE
8
BLACK
6
CONTINUOUS
10
5.47643
20
-3.6217
11
5.47656
21
-3.62167
0
LINE
8
BLACK
6
CONTINUOUS
10
5.47656
20
-3.62167
11
5.47667
21
-3.62174
0
LINE
8
BLACK
6
CONTINUOUS
10
5.47667
20
-3.62174
11
5.47705
21
-3.62181
0
LINE
8
BLACK
6
CONTINUOUS
10
5.47705
20
-3.62181
11
5.47764
21
-3.6223
0
LINE
8
BLACK
6
CONTINUOUS
10
5.47764
20
-3.6223
11
5.47831
21
-3.62268
0
LINE
8
BLACK
6
CONTINUOUS
10
5.47831
20
-3.62268
11
5.4784
21
-3.62293
0
LINE
8
BLACK
6
CONTINUOUS
10
5.4784
20
-3.62293
11
5.4786
21
-3.62311
0
LINE
8
BLACK
6
CONTINUOUS
10
5.4786
20
-3.62311
11
5.47873
21
-3.62386
0
LINE
8
BLACK
6
CONTINUOUS
10
5.47873
20
-3.62386
11
5.479
21
-3.62458
0
LINE
8
BLACK
6
CONTINUOUS
10
5.479
20
-3.62458
11
5.479
21
-3.66395
0
LINE
8
BLACK
6
CONTINUOUS
10
5.479
20
-3.66395
11
5.47882
21
-3.66496
0
LINE
8
BLACK
6
CONTINUOUS
10
5.47882
20
-3.66496
11
5.47752
21
-3.66651
0
LINE
8
BLACK
6
CONTINUOUS
10
5.47752
20
-3.66651
11
5.47553
21
-3.66686
0
LINE
8
BLACK
6
CONTINUOUS
10
5.47553
20
-3.66686
11
5.47378
21
-3.66585
0
LINE
8
BLACK
6
CONTINUOUS
10
5.47378
20
-3.66585
11
5.47309
21
-3.66395
0
LINE
8
BLACK
6
CONTINUOUS
10
5.47309
20
-3.66395
11
5.47309
21
-3.64628
0
LINE
8
BLACK
6
CONTINUOUS
10
5.47309
20
-3.64628
11
5.46292
21
-3.64628
0
LINE
8
BLACK
6
CONTINUOUS
10
5.46292
20
-3.64628
11
5.46191
21
-3.6461
0
LINE
8
BLACK
6
CONTINUOUS
10
5.46191
20
-3.6461
11
5.46036
21
-3.64481
0
LINE
8
BLACK
6
CONTINUOUS
10
5.46036
20
-3.64481
11
5.46001
21
-3.64282
0
LINE
8
BLACK
6
CONTINUOUS
10
5.46001
20
-3.64282
11
5.46102
21
-3.64107
0
LINE
8
BLACK
6
CONTINUOUS
10
5.46102
20
-3.64107
11
5.46292
21
-3.64038
0
LINE
8
BLACK
6
CONTINUOUS
10
5.46292
20
-3.64038
11
5.47309
21
-3.64038
0
LINE
8
BLACK
6
CONTINUOUS
10
5.47309
20
-3.64038
11
5.47309
21
-3.62753
0
LINE
8
BLACK
6
CONTINUOUS
10
5.47309
20
-3.62753
11
5.4573
21
-3.62753
0
LINE
8
BLACK
6
CONTINUOUS
10
5.4573
20
-3.62753
11
5.45629
21
-3.62736
0
LINE
8
BLACK
6
CONTINUOUS
10
5.45629
20
-3.62736
11
5.45474
21
-3.62606
0
LINE
8
BLACK
6
CONTINUOUS
10
5.45474
20
-3.62606
11
5.45439
21
-3.62407
0
LINE
8
BLACK
6
CONTINUOUS
10
5.45439
20
-3.62407
11
5.4554
21
-3.62232
0
LINE
8
BLACK
6
CONTINUOUS
10
5.4554
20
-3.62232
11
5.4573
21
-3.62163
0
LINE
8
BLACK
6
CONTINUOUS
10
5.4573
20
-3.62163
11
5.47604
21
-3.62163
0
LINE
8
BLACK
6
CONTINUOUS
10
5.47604
20
-3.62163
11
5.47643
21
-3.6217
0
LINE
8
BLACK
6
CONTINUOUS
10
5.50705
20
-3.63493
11
5.50719
21
-3.63504
0
LINE
8
BLACK
6
CONTINUOUS
10
5.50719
20
-3.63504
11
5.50736
21
-3.63506
0
LINE
8
BLACK
6
CONTINUOUS
10
5.50736
20
-3.63506
11
5.5094
21
-3.63608
0
LINE
8
BLACK
6
CONTINUOUS
10
5.5094
20
-3.63608
11
5.51019
21
-3.63515
0
LINE
8
BLACK
6
CONTINUOUS
10
5.51019
20
-3.63515
11
5.51218
21
-3.6348
0
LINE
8
BLACK
6
CONTINUOUS
10
5.51218
20
-3.6348
11
5.51393
21
-3.63581
0
LINE
8
BLACK
6
CONTINUOUS
10
5.51393
20
-3.63581
11
5.51462
21
-3.63771
0
LINE
8
BLACK
6
CONTINUOUS
10
5.51462
20
-3.63771
11
5.51462
21
-3.66395
0
LINE
8
BLACK
6
CONTINUOUS
10
5.51462
20
-3.66395
11
5.51444
21
-3.66496
0
LINE
8
BLACK
6
CONTINUOUS
10
5.51444
20
-3.66496
11
5.51314
21
-3.66651
0
LINE
8
BLACK
6
CONTINUOUS
10
5.51314
20
-3.66651
11
5.51115
21
-3.66686
0
LINE
8
BLACK
6
CONTINUOUS
10
5.51115
20
-3.66686
11
5.5094
21
-3.66585
0
LINE
8
BLACK
6
CONTINUOUS
10
5.5094
20
-3.66585
11
5.50871
21
-3.66395
0
LINE
8
BLACK
6
CONTINUOUS
10
5.50871
20
-3.66395
11
5.50871
21
-3.64268
0
LINE
8
BLACK
6
CONTINUOUS
10
5.50871
20
-3.64268
11
5.50804
21
-3.64201
0
LINE
8
BLACK
6
CONTINUOUS
10
5.50804
20
-3.64201
11
5.50534
21
-3.64066
0
LINE
8
BLACK
6
CONTINUOUS
10
5.50534
20
-3.64066
11
5.50111
21
-3.64066
0
LINE
8
BLACK
6
CONTINUOUS
10
5.50111
20
-3.64066
11
5.49887
21
-3.64178
0
LINE
8
BLACK
6
CONTINUOUS
10
5.49887
20
-3.64178
11
5.49774
21
-3.64403
0
LINE
8
BLACK
6
CONTINUOUS
10
5.49774
20
-3.64403
11
5.49774
21
-3.66395
0
LINE
8
BLACK
6
CONTINUOUS
10
5.49774
20
-3.66395
11
5.49757
21
-3.66496
0
LINE
8
BLACK
6
CONTINUOUS
10
5.49757
20
-3.66496
11
5.49627
21
-3.66651
0
LINE
8
BLACK
6
CONTINUOUS
10
5.49627
20
-3.66651
11
5.49428
21
-3.66686
0
LINE
8
BLACK
6
CONTINUOUS
10
5.49428
20
-3.66686
11
5.49253
21
-3.66585
0
LINE
8
BLACK
6
CONTINUOUS
10
5.49253
20
-3.66585
11
5.49184
21
-3.66395
0
LINE
8
BLACK
6
CONTINUOUS
10
5.49184
20
-3.66395
11
5.49184
21
-3.64333
0
LINE
8
BLACK
6
CONTINUOUS
10
5.49184
20
-3.64333
11
5.49202
21
-3.64232
0
LINE
8
BLACK
6
CONTINUOUS
10
5.49202
20
-3.64232
11
5.49213
21
-3.64218
0
LINE
8
BLACK
6
CONTINUOUS
10
5.49213
20
-3.64218
11
5.49215
21
-3.64201
0
LINE
8
BLACK
6
CONTINUOUS
10
5.49215
20
-3.64201
11
5.49403
21
-3.63826
0
LINE
8
BLACK
6
CONTINUOUS
10
5.49403
20
-3.63826
11
5.49464
21
-3.63744
0
LINE
8
BLACK
6
CONTINUOUS
10
5.49464
20
-3.63744
11
5.49504
21
-3.63726
0
LINE
8
BLACK
6
CONTINUOUS
10
5.49504
20
-3.63726
11
5.49535
21
-3.63694
0
LINE
8
BLACK
6
CONTINUOUS
10
5.49535
20
-3.63694
11
5.4991
21
-3.63506
0
LINE
8
BLACK
6
CONTINUOUS
10
5.4991
20
-3.63506
11
5.50008
21
-3.63477
0
LINE
8
BLACK
6
CONTINUOUS
10
5.50008
20
-3.63477
11
5.50025
21
-3.63481
0
LINE
8
BLACK
6
CONTINUOUS
10
5.50025
20
-3.63481
11
5.50042
21
-3.63475
0
LINE
8
BLACK
6
CONTINUOUS
10
5.50042
20
-3.63475
11
5.50604
21
-3.63475
0
LINE
8
BLACK
6
CONTINUOUS
10
5.50604
20
-3.63475
11
5.50705
21
-3.63493
0
LINE
8
BLACK
6
CONTINUOUS
10
5.50184
20
-3.606
11
5.50126
21
-3.60461
0
LINE
8
BLACK
6
CONTINUOUS
10
5.50126
20
-3.60461
11
5.50126
21
-3.55539
0
LINE
8
BLACK
6
CONTINUOUS
10
5.50126
20
-3.55539
11
5.50184
21
-3.554
0
LINE
8
BLACK
6
CONTINUOUS
10
5.50184
20
-3.554
11
5.50323
21
-3.55343
0
LINE
8
BLACK
6
CONTINUOUS
10
5.50323
20
-3.55343
11
5.58197
21
-3.55343
0
LINE
8
BLACK
6
CONTINUOUS
10
5.58197
20
-3.55343
11
5.58336
21
-3.554
0
LINE
8
BLACK
6
CONTINUOUS
10
5.58336
20
-3.554
11
5.58394
21
-3.55539
0
LINE
8
BLACK
6
CONTINUOUS
10
5.58394
20
-3.55539
11
5.58394
21
-3.60461
0
LINE
8
BLACK
6
CONTINUOUS
10
5.58394
20
-3.60461
11
5.58336
21
-3.606
0
LINE
8
BLACK
6
CONTINUOUS
10
5.58336
20
-3.606
11
5.58197
21
-3.60657
0
LINE
8
BLACK
6
CONTINUOUS
10
5.58197
20
-3.60657
11
5.50323
21
-3.60657
0
LINE
8
BLACK
6
CONTINUOUS
10
5.50323
20
-3.60657
11
5.50184
21
-3.606
0
LINE
8
BLACK
6
CONTINUOUS
10
5.5052
20
-3.55736
11
5.5052
21
-3.60264
0
LINE
8
BLACK
6
CONTINUOUS
10
5.5052
20
-3.60264
11
5.58
21
-3.60264
0
LINE
8
BLACK
6
CONTINUOUS
10
5.58
20
-3.60264
11
5.58
21
-3.55736
0
LINE
8
BLACK
6
CONTINUOUS
10
5.58
20
-3.55736
11
5.5052
21
-3.55736
0
LINE
8
BLACK
6
CONTINUOUS
10
5.52602
20
-3.59002
11
5.52556
21
-3.58891
0
LINE
8
BLACK
6
CONTINUOUS
10
5.52556
20
-3.58891
11
5.52602
21
-3.58779
0
LINE
8
BLACK
6
CONTINUOUS
10
5.52602
20
-3.58779
11
5.52713
21
-3.58733
0
LINE
8
BLACK
6
CONTINUOUS
10
5.52713
20
-3.58733
11
5.53552
21
-3.58733
0
LINE
8
BLACK
6
CONTINUOUS
10
5.53552
20
-3.58733
11
5.52696
21
-3.57877
0
LINE
8
BLACK
6
CONTINUOUS
10
5.52696
20
-3.57877
11
5.52682
21
-3.57843
0
LINE
8
BLACK
6
CONTINUOUS
10
5.52682
20
-3.57843
11
5.52658
21
-3.57815
0
LINE
8
BLACK
6
CONTINUOUS
10
5.52658
20
-3.57815
11
5.52564
21
-3.57534
0
LINE
8
BLACK
6
CONTINUOUS
10
5.52564
20
-3.57534
11
5.52566
21
-3.57508
0
LINE
8
BLACK
6
CONTINUOUS
10
5.52566
20
-3.57508
11
5.52556
21
-3.57484
0
LINE
8
BLACK
6
CONTINUOUS
10
5.52556
20
-3.57484
11
5.52556
21
-3.57297
0
LINE
8
BLACK
6
CONTINUOUS
10
5.52556
20
-3.57297
11
5.5257
21
-3.57263
0
LINE
8
BLACK
6
CONTINUOUS
10
5.5257
20
-3.57263
11
5.52572
21
-3.57227
0
LINE
8
BLACK
6
CONTINUOUS
10
5.52572
20
-3.57227
11
5.52666
21
-3.57039
0
LINE
8
BLACK
6
CONTINUOUS
10
5.52666
20
-3.57039
11
5.52686
21
-3.57022
0
LINE
8
BLACK
6
CONTINUOUS
10
5.52686
20
-3.57022
11
5.52696
21
-3.56998
0
LINE
8
BLACK
6
CONTINUOUS
10
5.52696
20
-3.56998
11
5.52789
21
-3.56904
0
LINE
8
BLACK
6
CONTINUOUS
10
5.52789
20
-3.56904
11
5.52813
21
-3.56894
0
LINE
8
BLACK
6
CONTINUOUS
10
5.52813
20
-3.56894
11
5.5283
21
-3.56875
0
LINE
8
BLACK
6
CONTINUOUS
10
5.5283
20
-3.56875
11
5.53018
21
-3.56781
0
LINE
8
BLACK
6
CONTINUOUS
10
5.53018
20
-3.56781
11
5.53054
21
-3.56779
0
LINE
8
BLACK
6
CONTINUOUS
10
5.53054
20
-3.56779
11
5.53088
21
-3.56765
0
LINE
8
BLACK
6
CONTINUOUS
10
5.53088
20
-3.56765
11
5.53557
21
-3.56765
0
LINE
8
BLACK
6
CONTINUOUS
10
5.53557
20
-3.56765
11
5.53591
21
-3.56779
0
LINE
8
BLACK
6
CONTINUOUS
10
5.53591
20
-3.56779
11
5.53627
21
-3.56781
0
LINE
8
BLACK
6
CONTINUOUS
10
5.53627
20
-3.56781
11
5.53815
21
-3.56875
0
LINE
8
BLACK
6
CONTINUOUS
10
5.53815
20
-3.56875
11
5.53832
21
-3.56894
0
LINE
8
BLACK
6
CONTINUOUS
10
5.53832
20
-3.56894
11
5.53856
21
-3.56904
0
LINE
8
BLACK
6
CONTINUOUS
10
5.53856
20
-3.56904
11
5.53949
21
-3.56998
0
LINE
8
BLACK
6
CONTINUOUS
10
5.53949
20
-3.56998
11
5.53995
21
-3.57109
0
LINE
8
BLACK
6
CONTINUOUS
10
5.53995
20
-3.57109
11
5.53949
21
-3.57221
0
LINE
8
BLACK
6
CONTINUOUS
10
5.53949
20
-3.57221
11
5.53838
21
-3.57267
0
LINE
8
BLACK
6
CONTINUOUS
10
5.53838
20
-3.57267
11
5.53727
21
-3.57221
0
LINE
8
BLACK
6
CONTINUOUS
10
5.53727
20
-3.57221
11
5.53651
21
-3.57145
0
LINE
8
BLACK
6
CONTINUOUS
10
5.53651
20
-3.57145
11
5.5352
21
-3.57079
0
LINE
8
BLACK
6
CONTINUOUS
10
5.5352
20
-3.57079
11
5.53125
21
-3.57079
0
LINE
8
BLACK
6
CONTINUOUS
10
5.53125
20
-3.57079
11
5.52994
21
-3.57145
0
LINE
8
BLACK
6
CONTINUOUS
10
5.52994
20
-3.57145
11
5.52936
21
-3.57203
0
LINE
8
BLACK
6
CONTINUOUS
10
5.52936
20
-3.57203
11
5.52871
21
-3.57334
0
LINE
8
BLACK
6
CONTINUOUS
10
5.52871
20
-3.57334
11
5.52871
21
-3.57459
0
LINE
8
BLACK
6
CONTINUOUS
10
5.52871
20
-3.57459
11
5.52945
21
-3.57681
0
LINE
8
BLACK
6
CONTINUOUS
10
5.52945
20
-3.57681
11
5.54043
21
-3.58779
0
LINE
8
BLACK
6
CONTINUOUS
10
5.54043
20
-3.58779
11
5.54089
21
-3.58891
0
LINE
8
BLACK
6
CONTINUOUS
10
5.54089
20
-3.58891
11
5.54043
21
-3.59002
0
LINE
8
BLACK
6
CONTINUOUS
10
5.54043
20
-3.59002
11
5.53932
21
-3.59048
0
LINE
8
BLACK
6
CONTINUOUS
10
5.53932
20
-3.59048
11
5.52713
21
-3.59048
0
LINE
8
BLACK
6
CONTINUOUS
10
5.52713
20
-3.59048
11
5.52602
21
-3.59002
0
LINE
8
BLACK
6
CONTINUOUS
10
5.55174
20
-3.56774
11
5.552
21
-3.56773
0
LINE
8
BLACK
6
CONTINUOUS
10
5.552
20
-3.56773
11
5.55481
21
-3.56866
0
LINE
8
BLACK
6
CONTINUOUS
10
5.55481
20
-3.56866
11
5.55509
21
-3.5689
0
LINE
8
BLACK
6
CONTINUOUS
10
5.55509
20
-3.5689
11
5.55543
21
-3.56904
0
LINE
8
BLACK
6
CONTINUOUS
10
5.55543
20
-3.56904
11
5.5573
21
-3.57092
0
LINE
8
BLACK
6
CONTINUOUS
10
5.5573
20
-3.57092
11
5.5574
21
-3.57116
0
LINE
8
BLACK
6
CONTINUOUS
10
5.5574
20
-3.57116
11
5.5576
21
-3.57133
0
LINE
8
BLACK
6
CONTINUOUS
10
5.5576
20
-3.57133
11
5.55854
21
-3.5732
0
LINE
8
BLACK
6
CONTINUOUS
10
5.55854
20
-3.5732
11
5.55855
21
-3.57338
0
LINE
8
BLACK
6
CONTINUOUS
10
5.55855
20
-3.57338
11
5.55866
21
-3.57353
0
LINE
8
BLACK
6
CONTINUOUS
10
5.55866
20
-3.57353
11
5.55959
21
-3.57727
0
LINE
8
BLACK
6
CONTINUOUS
10
5.55959
20
-3.57727
11
5.55956
21
-3.57747
0
LINE
8
BLACK
6
CONTINUOUS
10
5.55956
20
-3.57747
11
5.55964
21
-3.57766
0
LINE
8
BLACK
6
CONTINUOUS
10
5.55964
20
-3.57766
11
5.55964
21
-3.58047
0
LINE
8
BLACK
6
CONTINUOUS
10
5.55964
20
-3.58047
11
5.55956
21
-3.58065
0
LINE
8
BLACK
6
CONTINUOUS
10
5.55956
20
-3.58065
11
5.55959
21
-3.58085
0
LINE
8
BLACK
6
CONTINUOUS
10
5.55959
20
-3.58085
11
5.55866
21
-3.5846
0
LINE
8
BLACK
6
CONTINUOUS
10
5.55866
20
-3.5846
11
5.55855
21
-3.58474
0
LINE
8
BLACK
6
CONTINUOUS
10
5.55855
20
-3.58474
11
5.55854
21
-3.58492
0
LINE
8
BLACK
6
CONTINUOUS
10
5.55854
20
-3.58492
11
5.5576
21
-3.5868
0
LINE
8
BLACK
6
CONTINUOUS
10
5.5576
20
-3.5868
11
5.5574
21
-3.58697
0
LINE
8
BLACK
6
CONTINUOUS
10
5.5574
20
-3.58697
11
5.5573
21
-3.58721
0
LINE
8
BLACK
6
CONTINUOUS
10
5.5573
20
-3.58721
11
5.55543
21
-3.58908
0
LINE
8
BLACK
6
CONTINUOUS
10
5.55543
20
-3.58908
11
5.55509
21
-3.58922
0
LINE
8
BLACK
6
CONTINUOUS
10
5.55509
20
-3.58922
11
5.55481
21
-3.58946
0
LINE
8
BLACK
6
CONTINUOUS
10
5.55481
20
-3.58946
11
5.552
21
-3.5904
0
LINE
8
BLACK
6
CONTINUOUS
10
5.552
20
-3.5904
11
5.55174
21
-3.59038
0
LINE
8
BLACK
6
CONTINUOUS
10
5.55174
20
-3.59038
11
5.5515
21
-3.59048
0
LINE
8
BLACK
6
CONTINUOUS
10
5.5515
20
-3.59048
11
5.54963
21
-3.59048
0
LINE
8
BLACK
6
CONTINUOUS
10
5.54963
20
-3.59048
11
5.54939
21
-3.59038
0
LINE
8
BLACK
6
CONTINUOUS
10
5.54939
20
-3.59038
11
5.54913
21
-3.5904
0
LINE
8
BLACK
6
CONTINUOUS
10
5.54913
20
-3.5904
11
5.54632
21
-3.58946
0
LINE
8
BLACK
6
CONTINUOUS
10
5.54632
20
-3.58946
11
5.54604
21
-3.58922
0
LINE
8
BLACK
6
CONTINUOUS
10
5.54604
20
-3.58922
11
5.5457
21
-3.58908
0
LINE
8
BLACK
6
CONTINUOUS
10
5.5457
20
-3.58908
11
5.54477
21
-3.58814
0
LINE
8
BLACK
6
CONTINUOUS
10
5.54477
20
-3.58814
11
5.5443
21
-3.58703
0
LINE
8
BLACK
6
CONTINUOUS
10
5.5443
20
-3.58703
11
5.54477
21
-3.58592
0
LINE
8
BLACK
6
CONTINUOUS
10
5.54477
20
-3.58592
11
5.54588
21
-3.58546
0
LINE
8
BLACK
6
CONTINUOUS
10
5.54588
20
-3.58546
11
5.54699
21
-3.58592
0
LINE
8
BLACK
6
CONTINUOUS
10
5.54699
20
-3.58592
11
5.54767
21
-3.58659
0
LINE
8
BLACK
6
CONTINUOUS
10
5.54767
20
-3.58659
11
5.54988
21
-3.58733
0
LINE
8
BLACK
6
CONTINUOUS
10
5.54988
20
-3.58733
11
5.55125
21
-3.58733
0
LINE
8
BLACK
6
CONTINUOUS
10
5.55125
20
-3.58733
11
5.55347
21
-3.58659
0
LINE
8
BLACK
6
CONTINUOUS
10
5.55347
20
-3.58659
11
5.5549
21
-3.58516
0
LINE
8
BLACK
6
CONTINUOUS
10
5.5549
20
-3.58516
11
5.55564
21
-3.58367
0
LINE
8
BLACK
6
CONTINUOUS
10
5.55564
20
-3.58367
11
5.55649
21
-3.58027
0
LINE
8
BLACK
6
CONTINUOUS
10
5.55649
20
-3.58027
11
5.55649
21
-3.57785
0
LINE
8
BLACK
6
CONTINUOUS
10
5.55649
20
-3.57785
11
5.55564
21
-3.57446
0
LINE
8
BLACK
6
CONTINUOUS
10
5.55564
20
-3.57446
11
5.5549
21
-3.57297
0
LINE
8
BLACK
6
CONTINUOUS
10
5.5549
20
-3.57297
11
5.55347
21
-3.57153
0
LINE
8
BLACK
6
CONTINUOUS
10
5.55347
20
-3.57153
11
5.55125
21
-3.57079
0
LINE
8
BLACK
6
CONTINUOUS
10
5.55125
20
-3.57079
11
5.54988
21
-3.57079
0
LINE
8
BLACK
6
CONTINUOUS
10
5.54988
20
-3.57079
11
5.54767
21
-3.57153
0
LINE
8
BLACK
6
CONTINUOUS
10
5.54767
20
-3.57153
11
5.54699
21
-3.57221
0
LINE
8
BLACK
6
CONTINUOUS
10
5.54699
20
-3.57221
11
5.54588
21
-3.57267
0
LINE
8
BLACK
6
CONTINUOUS
10
5.54588
20
-3.57267
11
5.54477
21
-3.57221
0
LINE
8
BLACK
6
CONTINUOUS
10
5.54477
20
-3.57221
11
5.5443
21
-3.57109
0
LINE
8
BLACK
6
CONTINUOUS
10
5.5443
20
-3.57109
11
5.54477
21
-3.56998
0
LINE
8
BLACK
6
CONTINUOUS
10
5.54477
20
-3.56998
11
5.5457
21
-3.56904
0
LINE
8
BLACK
6
CONTINUOUS
10
5.5457
20
-3.56904
11
5.54604
21
-3.5689
0
LINE
8
BLACK
6
CONTINUOUS
10
5.54604
20
-3.5689
11
5.54632
21
-3.56866
0
LINE
8
BLACK
6
CONTINUOUS
10
5.54632
20
-3.56866
11
5.54913
21
-3.56773
0
LINE
8
BLACK
6
CONTINUOUS
10
5.54913
20
-3.56773
11
5.54939
21
-3.56774
0
LINE
8
BLACK
6
CONTINUOUS
10
5.54939
20
-3.56774
11
5.54963
21
-3.56765
0
LINE
8
BLACK
6
CONTINUOUS
10
5.54963
20
-3.56765
11
5.5515
21
-3.56765
0
LINE
8
BLACK
6
CONTINUOUS
10
5.5515
20
-3.56765
11
5.55174
21
-3.56774
0
LINE
8
BLACK
6
CONTINUOUS
10
5.57492
20
-3.31705
11
5.57492
21
-3.32882
0
LINE
8
BLACK
6
CONTINUOUS
10
5.57492
20
-3.32882
11
5.58806
21
-3.34853
0
LINE
8
BLACK
6
CONTINUOUS
10
5.58806
20
-3.34853
11
5.58812
21
-3.34866
0
LINE
8
BLACK
6
CONTINUOUS
10
5.58812
20
-3.34866
11
5.58816
21
-3.3487
0
LINE
8
BLACK
6
CONTINUOUS
10
5.58816
20
-3.3487
11
5.58818
21
-3.34881
0
LINE
8
BLACK
6
CONTINUOUS
10
5.58818
20
-3.34881
11
5.58847
21
-3.34947
0
LINE
8
BLACK
6
CONTINUOUS
10
5.58847
20
-3.34947
11
5.58841
21
-3.35008
0
LINE
8
BLACK
6
CONTINUOUS
10
5.58841
20
-3.35008
11
5.58851
21
-3.35069
0
LINE
8
BLACK
6
CONTINUOUS
10
5.58851
20
-3.35069
11
5.5883
21
-3.35106
0
LINE
8
BLACK
6
CONTINUOUS
10
5.5883
20
-3.35106
11
5.58825
21
-3.35148
0
LINE
8
BLACK
6
CONTINUOUS
10
5.58825
20
-3.35148
11
5.58781
21
-3.3519
0
LINE
8
BLACK
6
CONTINUOUS
10
5.58781
20
-3.3519
11
5.5875
21
-3.35243
0
LINE
8
BLACK
6
CONTINUOUS
10
5.5875
20
-3.35243
11
5.5871
21
-3.35258
0
LINE
8
BLACK
6
CONTINUOUS
10
5.5871
20
-3.35258
11
5.58679
21
-3.35288
0
LINE
8
BLACK
6
CONTINUOUS
10
5.58679
20
-3.35288
11
5.58618
21
-3.35292
0
LINE
8
BLACK
6
CONTINUOUS
10
5.58618
20
-3.35292
11
5.58561
21
-3.35313
0
LINE
8
BLACK
6
CONTINUOUS
10
5.58561
20
-3.35313
11
5.57492
21
-3.35313
0
LINE
8
BLACK
6
CONTINUOUS
10
5.57492
20
-3.35313
11
5.57492
21
-3.52295
0
LINE
8
BLACK
6
CONTINUOUS
10
5.57492
20
-3.52295
11
5.57434
21
-3.52434
0
LINE
8
BLACK
6
CONTINUOUS
10
5.57434
20
-3.52434
11
5.57295
21
-3.52492
0
LINE
8
BLACK
6
CONTINUOUS
10
5.57295
20
-3.52492
11
5.36705
21
-3.52492
0
LINE
8
BLACK
6
CONTINUOUS
10
5.36705
20
-3.52492
11
5.36566
21
-3.52434
0
LINE
8
BLACK
6
CONTINUOUS
10
5.36566
20
-3.52434
11
5.36508
21
-3.52295
0
LINE
8
BLACK
6
CONTINUOUS
10
5.36508
20
-3.52295
11
5.36508
21
-3.33781
0
LINE
8
BLACK
6
CONTINUOUS
10
5.36508
20
-3.33781
11
5.3637
21
-3.33665
0
LINE
8
BLACK
6
CONTINUOUS
10
5.3637
20
-3.33665
11
5.36335
21
-3.33466
0
LINE
8
BLACK
6
CONTINUOUS
10
5.36335
20
-3.33466
11
5.36436
21
-3.33291
0
LINE
8
BLACK
6
CONTINUOUS
10
5.36436
20
-3.33291
11
5.36508
21
-3.33265
0
LINE
8
BLACK
6
CONTINUOUS
10
5.36508
20
-3.33265
11
5.36508
21
-3.31705
0
LINE
8
BLACK
6
CONTINUOUS
10
5.36508
20
-3.31705
11
5.36566
21
-3.31566
0
LINE
8
BLACK
6
CONTINUOUS
10
5.36566
20
-3.31566
11
5.36705
21
-3.31508
0
LINE
8
BLACK
6
CONTINUOUS
10
5.36705
20
-3.31508
11
5.4104
21
-3.31508
0
LINE
8
BLACK
6
CONTINUOUS
10
5.4104
20
-3.31508
11
5.41019
21
-3.31429
0
LINE
8
BLACK
6
CONTINUOUS
10
5.41019
20
-3.31429
11
5.41104
21
-3.31246
0
LINE
8
BLACK
6
CONTINUOUS
10
5.41104
20
-3.31246
11
5.41291
21
-3.31059
0
LINE
8
BLACK
6
CONTINUOUS
10
5.41291
20
-3.31059
11
5.41375
21
-3.31
0
LINE
8
BLACK
6
CONTINUOUS
10
5.41375
20
-3.31
11
5.41393
21
-3.30999
0
LINE
8
BLACK
6
CONTINUOUS
10
5.41393
20
-3.30999
11
5.41407
21
-3.30988
0
LINE
8
BLACK
6
CONTINUOUS
10
5.41407
20
-3.30988
11
5.41969
21
-3.308
0
LINE
8
BLACK
6
CONTINUOUS
10
5.41969
20
-3.308
11
5.42057
21
-3.30787
0
LINE
8
BLACK
6
CONTINUOUS
10
5.42057
20
-3.30787
11
5.42063
21
-3.30785
0
LINE
8
BLACK
6
CONTINUOUS
10
5.42063
20
-3.30785
11
5.42438
21
-3.30785
0
LINE
8
BLACK
6
CONTINUOUS
10
5.42438
20
-3.30785
11
5.42525
21
-3.308
0
LINE
8
BLACK
6
CONTINUOUS
10
5.42525
20
-3.308
11
5.42531
21
-3.308
0
LINE
8
BLACK
6
CONTINUOUS
10
5.42531
20
-3.308
11
5.43093
21
-3.30988
0
LINE
8
BLACK
6
CONTINUOUS
10
5.43093
20
-3.30988
11
5.43184
21
-3.31036
0
LINE
8
BLACK
6
CONTINUOUS
10
5.43184
20
-3.31036
11
5.43193
21
-3.31051
0
LINE
8
BLACK
6
CONTINUOUS
10
5.43193
20
-3.31051
11
5.43209
21
-3.31059
0
LINE
8
BLACK
6
CONTINUOUS
10
5.43209
20
-3.31059
11
5.43584
21
-3.31434
0
LINE
8
BLACK
6
CONTINUOUS
10
5.43584
20
-3.31434
11
5.43634
21
-3.31506
0
LINE
8
BLACK
6
CONTINUOUS
10
5.43634
20
-3.31506
11
5.43636
21
-3.31508
0
LINE
8
BLACK
6
CONTINUOUS
10
5.43636
20
-3.31508
11
5.47058
21
-3.31508
0
LINE
8
BLACK
6
CONTINUOUS
10
5.47058
20
-3.31508
11
5.47045
21
-3.31376
0
LINE
8
BLACK
6
CONTINUOUS
10
5.47045
20
-3.31376
11
5.45437
21
-3.31376
0
LINE
8
BLACK
6
CONTINUOUS
10
5.45437
20
-3.31376
11
5.45336
21
-3.31358
0
LINE
8
BLACK
6
CONTINUOUS
10
5.45336
20
-3.31358
11
5.45181
21
-3.31228
0
LINE
8
BLACK
6
CONTINUOUS
10
5.45181
20
-3.31228
11
5.45146
21
-3.31029
0
LINE
8
BLACK
6
CONTINUOUS
10
5.45146
20
-3.31029
11
5.45247
21
-3.30854
0
LINE
8
BLACK
6
CONTINUOUS
10
5.45247
20
-3.30854
11
5.45437
21
-3.30785
0
LINE
8
BLACK
6
CONTINUOUS
10
5.45437
20
-3.30785
11
5.47312
21
-3.30785
0
LINE
8
BLACK
6
CONTINUOUS
10
5.47312
20
-3.30785
11
5.47327
21
-3.30788
0
LINE
8
BLACK
6
CONTINUOUS
10
5.47327
20
-3.30788
11
5.47334
21
-3.30786
0
LINE
8
BLACK
6
CONTINUOUS
10
5.47334
20
-3.30786
11
5.47345
21
-3.30791
0
LINE
8
BLACK
6
CONTINUOUS
10
5.47345
20
-3.30791
11
5.47413
21
-3.30803
0
LINE
8
BLACK
6
CONTINUOUS
10
5.47413
20
-3.30803
11
5.47461
21
-3.30843
0
LINE
8
BLACK
6
CONTINUOUS
10
5.47461
20
-3.30843
11
5.47518
21
-3.30869
0
LINE
8
BLACK
6
CONTINUOUS
10
5.47518
20
-3.30869
11
5.47536
21
-3.30906
0
LINE
8
BLACK
6
CONTINUOUS
10
5.47536
20
-3.30906
11
5.47568
21
-3.30933
0
LINE
8
BLACK
6
CONTINUOUS
10
5.47568
20
-3.30933
11
5.47579
21
-3.30994
0
LINE
8
BLACK
6
CONTINUOUS
10
5.47579
20
-3.30994
11
5.47606
21
-3.31051
0
LINE
8
BLACK
6
CONTINUOUS
10
5.47606
20
-3.31051
11
5.47651
21
-3.31508
0
LINE
8
BLACK
6
CONTINUOUS
10
5.47651
20
-3.31508
11
5.50808
21
-3.31508
0
LINE
8
BLACK
6
CONTINUOUS
10
5.50808
20
-3.31508
11
5.50794
21
-3.31376
0
LINE
8
BLACK
6
CONTINUOUS
10
5.50794
20
-3.31376
11
5.49187
21
-3.31376
0
LINE
8
BLACK
6
CONTINUOUS
10
5.49187
20
-3.31376
11
5.49086
21
-3.31358
0
LINE
8
BLACK
6
CONTINUOUS
10
5.49086
20
-3.31358
11
5.48931
21
-3.31228
0
LINE
8
BLACK
6
CONTINUOUS
10
5.48931
20
-3.31228
11
5.48896
21
-3.31029
0
LINE
8
BLACK
6
CONTINUOUS
10
5.48896
20
-3.31029
11
5.48997
21
-3.30854
0
LINE
8
BLACK
6
CONTINUOUS
10
5.48997
20
-3.30854
11
5.49187
21
-3.30785
0
LINE
8
BLACK
6
CONTINUOUS
10
5.49187
20
-3.30785
11
5.51061
21
-3.30785
0
LINE
8
BLACK
6
CONTINUOUS
10
5.51061
20
-3.30785
11
5.51077
21
-3.30788
0
LINE
8
BLACK
6
CONTINUOUS
10
5.51077
20
-3.30788
11
5.51084
21
-3.30786
0
LINE
8
BLACK
6
CONTINUOUS
10
5.51084
20
-3.30786
11
5.51095
21
-3.30791
0
LINE
8
BLACK
6
CONTINUOUS
10
5.51095
20
-3.30791
11
5.51162
21
-3.30803
0
LINE
8
BLACK
6
CONTINUOUS
10
5.51162
20
-3.30803
11
5.51211
21
-3.30843
0
LINE
8
BLACK
6
CONTINUOUS
10
5.51211
20
-3.30843
11
5.51268
21
-3.30869
0
LINE
8
BLACK
6
CONTINUOUS
10
5.51268
20
-3.30869
11
5.51286
21
-3.30906
0
LINE
8
BLACK
6
CONTINUOUS
10
5.51286
20
-3.30906
11
5.51317
21
-3.30933
0
LINE
8
BLACK
6
CONTINUOUS
10
5.51317
20
-3.30933
11
5.51328
21
-3.30994
0
LINE
8
BLACK
6
CONTINUOUS
10
5.51328
20
-3.30994
11
5.51355
21
-3.31051
0
LINE
8
BLACK
6
CONTINUOUS
10
5.51355
20
-3.31051
11
5.51401
21
-3.31508
0
LINE
8
BLACK
6
CONTINUOUS
10
5.51401
20
-3.31508
11
5.52205
21
-3.31508
0
LINE
8
BLACK
6
CONTINUOUS
10
5.52205
20
-3.31508
11
5.52094
21
-3.31174
0
LINE
8
BLACK
6
CONTINUOUS
10
5.52094
20
-3.31174
11
5.52079
21
-3.31072
0
LINE
8
BLACK
6
CONTINUOUS
10
5.52079
20
-3.31072
11
5.52153
21
-3.30884
0
LINE
8
BLACK
6
CONTINUOUS
10
5.52153
20
-3.30884
11
5.52331
21
-3.30788
0
LINE
8
BLACK
6
CONTINUOUS
10
5.52331
20
-3.30788
11
5.52528
21
-3.30829
0
LINE
8
BLACK
6
CONTINUOUS
10
5.52528
20
-3.30829
11
5.52654
21
-3.30987
0
LINE
8
BLACK
6
CONTINUOUS
10
5.52654
20
-3.30987
11
5.52828
21
-3.31508
0
LINE
8
BLACK
6
CONTINUOUS
10
5.52828
20
-3.31508
11
5.54545
21
-3.31508
0
LINE
8
BLACK
6
CONTINUOUS
10
5.54545
20
-3.31508
11
5.54718
21
-3.30987
0
LINE
8
BLACK
6
CONTINUOUS
10
5.54718
20
-3.30987
11
5.54767
21
-3.30897
0
LINE
8
BLACK
6
CONTINUOUS
10
5.54767
20
-3.30897
11
5.54939
21
-3.30791
0
LINE
8
BLACK
6
CONTINUOUS
10
5.54939
20
-3.30791
11
5.55139
21
-3.30821
0
LINE
8
BLACK
6
CONTINUOUS
10
5.55139
20
-3.30821
11
5.55273
21
-3.30972
0
LINE
8
BLACK
6
CONTINUOUS
10
5.55273
20
-3.30972
11
5.55279
21
-3.31174
0
LINE
8
BLACK
6
CONTINUOUS
10
5.55279
20
-3.31174
11
5.55167
21
-3.31508
0
LINE
8
BLACK
6
CONTINUOUS
10
5.55167
20
-3.31508
11
5.55866
21
-3.31508
0
LINE
8
BLACK
6
CONTINUOUS
10
5.55866
20
-3.31508
11
5.5569
21
-3.31244
0
LINE
8
BLACK
6
CONTINUOUS
10
5.5569
20
-3.31244
11
5.55685
21
-3.31232
0
LINE
8
BLACK
6
CONTINUOUS
10
5.55685
20
-3.31232
11
5.5568
21
-3.31228
0
LINE
8
BLACK
6
CONTINUOUS
10
5.5568
20
-3.31228
11
5.55678
21
-3.31217
0
LINE
8
BLACK
6
CONTINUOUS
10
5.55678
20
-3.31217
11
5.55649
21
-3.3115
0
LINE
8
BLACK
6
CONTINUOUS
10
5.55649
20
-3.3115
11
5.55656
21
-3.31089
0
LINE
8
BLACK
6
CONTINUOUS
10
5.55656
20
-3.31089
11
5.55645
21
-3.31029
0
LINE
8
BLACK
6
CONTINUOUS
10
5.55645
20
-3.31029
11
5.55666
21
-3.30992
0
LINE
8
BLACK
6
CONTINUOUS
10
5.55666
20
-3.30992
11
5.55671
21
-3.30949
0
LINE
8
BLACK
6
CONTINUOUS
10
5.55671
20
-3.30949
11
5.55715
21
-3.30907
0
LINE
8
BLACK
6
CONTINUOUS
10
5.55715
20
-3.30907
11
5.55746
21
-3.30854
0
LINE
8
BLACK
6
CONTINUOUS
10
5.55746
20
-3.30854
11
5.55786
21
-3.30839
0
LINE
8
BLACK
6
CONTINUOUS
10
5.55786
20
-3.30839
11
5.55817
21
-3.3081
0
LINE
8
BLACK
6
CONTINUOUS
10
5.55817
20
-3.3081
11
5.55878
21
-3.30806
0
LINE
8
BLACK
6
CONTINUOUS
10
5.55878
20
-3.30806
11
5.55936
21
-3.30785
0
LINE
8
BLACK
6
CONTINUOUS
10
5.55936
20
-3.30785
11
5.58561
21
-3.30785
0
LINE
8
BLACK
6
CONTINUOUS
10
5.58561
20
-3.30785
11
5.58662
21
-3.30803
0
LINE
8
BLACK
6
CONTINUOUS
10
5.58662
20
-3.30803
11
5.58816
21
-3.30933
0
LINE
8
BLACK
6
CONTINUOUS
10
5.58816
20
-3.30933
11
5.58851
21
-3.31132
0
LINE
8
BLACK
6
CONTINUOUS
10
5.58851
20
-3.31132
11
5.5875
21
-3.31306
0
LINE
8
BLACK
6
CONTINUOUS
10
5.5875
20
-3.31306
11
5.58561
21
-3.31376
0
LINE
8
BLACK
6
CONTINUOUS
10
5.58561
20
-3.31376
11
5.56488
21
-3.31376
0
LINE
8
BLACK
6
CONTINUOUS
10
5.56488
20
-3.31376
11
5.56576
21
-3.31508
0
LINE
8
BLACK
6
CONTINUOUS
10
5.56576
20
-3.31508
11
5.57295
21
-3.31508
0
LINE
8
BLACK
6
CONTINUOUS
10
5.57295
20
-3.31508
11
5.57434
21
-3.31566
0
LINE
8
BLACK
6
CONTINUOUS
10
5.57434
20
-3.31566
11
5.57492
21
-3.31705
0
LINE
8
BLACK
6
CONTINUOUS
10
5.36902
20
-3.52098
11
5.41229
21
-3.52098
0
LINE
8
BLACK
6
CONTINUOUS
10
5.41229
20
-3.52098
11
5.36902
21
-3.47771
0
LINE
8
BLACK
6
CONTINUOUS
10
5.36902
20
-3.47771
11
5.36902
21
-3.52098
0
LINE
8
BLACK
6
CONTINUOUS
10
5.55036
20
-3.31902
11
5.53966
21
-3.35111
0
LINE
8
BLACK
6
CONTINUOUS
10
5.53966
20
-3.35111
11
5.53917
21
-3.35201
0
LINE
8
BLACK
6
CONTINUOUS
10
5.53917
20
-3.35201
11
5.5391
21
-3.35205
0
LINE
8
BLACK
6
CONTINUOUS
10
5.5391
20
-3.35205
11
5.53907
21
-3.35213
0
LINE
8
BLACK
6
CONTINUOUS
10
5.53907
20
-3.35213
11
5.53825
21
-3.35258
0
LINE
8
BLACK
6
CONTINUOUS
10
5.53825
20
-3.35258
11
5.53745
21
-3.35307
0
LINE
8
BLACK
6
CONTINUOUS
10
5.53745
20
-3.35307
11
5.53737
21
-3.35305
0
LINE
8
BLACK
6
CONTINUOUS
10
5.53737
20
-3.35305
11
5.53729
21
-3.35309
0
LINE
8
BLACK
6
CONTINUOUS
10
5.53729
20
-3.35309
11
5.53638
21
-3.35291
0
LINE
8
BLACK
6
CONTINUOUS
10
5.53638
20
-3.35291
11
5.53546
21
-3.35277
0
LINE
8
BLACK
6
CONTINUOUS
10
5.53546
20
-3.35277
11
5.5354
21
-3.35271
0
LINE
8
BLACK
6
CONTINUOUS
10
5.5354
20
-3.35271
11
5.53532
21
-3.35269
0
LINE
8
BLACK
6
CONTINUOUS
10
5.53532
20
-3.35269
11
5.53474
21
-3.35196
0
LINE
8
BLACK
6
CONTINUOUS
10
5.53474
20
-3.35196
11
5.53412
21
-3.35126
0
LINE
8
BLACK
6
CONTINUOUS
10
5.53412
20
-3.35126
11
5.53411
21
-3.35117
0
LINE
8
BLACK
6
CONTINUOUS
10
5.53411
20
-3.35117
11
5.53406
21
-3.35111
0
LINE
8
BLACK
6
CONTINUOUS
10
5.53406
20
-3.35111
11
5.52336
21
-3.31902
0
LINE
8
BLACK
6
CONTINUOUS
10
5.52336
20
-3.31902
11
5.5144
21
-3.31902
0
LINE
8
BLACK
6
CONTINUOUS
10
5.5144
20
-3.31902
11
5.51543
21
-3.32926
0
LINE
8
BLACK
6
CONTINUOUS
10
5.51543
20
-3.32926
11
5.51535
21
-3.33028
0
LINE
8
BLACK
6
CONTINUOUS
10
5.51535
20
-3.33028
11
5.51534
21
-3.33029
0
LINE
8
BLACK
6
CONTINUOUS
10
5.51534
20
-3.33029
11
5.51534
21
-3.33031
0
LINE
8
BLACK
6
CONTINUOUS
10
5.51534
20
-3.33031
11
5.51477
21
-3.33113
0
LINE
8
BLACK
6
CONTINUOUS
10
5.51477
20
-3.33113
11
5.51421
21
-3.33195
0
LINE
8
BLACK
6
CONTINUOUS
10
5.51421
20
-3.33195
11
5.51419
21
-3.33195
0
LINE
8
BLACK
6
CONTINUOUS
10
5.51419
20
-3.33195
11
5.51418
21
-3.33197
0
LINE
8
BLACK
6
CONTINUOUS
10
5.51418
20
-3.33197
11
5.51322
21
-3.33223
0
LINE
8
BLACK
6
CONTINUOUS
10
5.51322
20
-3.33223
11
5.51227
21
-3.33249
0
LINE
8
BLACK
6
CONTINUOUS
10
5.51227
20
-3.33249
11
5.51225
21
-3.33249
0
LINE
8
BLACK
6
CONTINUOUS
10
5.51225
20
-3.33249
11
5.51223
21
-3.33249
0
LINE
8
BLACK
6
CONTINUOUS
10
5.51223
20
-3.33249
11
5.51133
21
-3.33207
0
LINE
8
BLACK
6
CONTINUOUS
10
5.51133
20
-3.33207
11
5.51043
21
-3.33166
0
LINE
8
BLACK
6
CONTINUOUS
10
5.51043
20
-3.33166
11
5.51042
21
-3.33165
0
LINE
8
BLACK
6
CONTINUOUS
10
5.51042
20
-3.33165
11
5.5104
21
-3.33164
0
LINE
8
BLACK
6
CONTINUOUS
10
5.5104
20
-3.33164
11
5.50887
21
-3.3301
0
LINE
8
BLACK
6
CONTINUOUS
10
5.50887
20
-3.3301
11
5.50617
21
-3.32875
0
LINE
8
BLACK
6
CONTINUOUS
10
5.50617
20
-3.32875
11
5.49819
21
-3.32875
0
LINE
8
BLACK
6
CONTINUOUS
10
5.49819
20
-3.32875
11
5.49549
21
-3.3301
0
LINE
8
BLACK
6
CONTINUOUS
10
5.49549
20
-3.3301
11
5.49429
21
-3.3313
0
LINE
8
BLACK
6
CONTINUOUS
10
5.49429
20
-3.3313
11
5.49295
21
-3.334
0
LINE
8
BLACK
6
CONTINUOUS
10
5.49295
20
-3.334
11
5.49295
21
-3.34198
0
LINE
8
BLACK
6
CONTINUOUS
10
5.49295
20
-3.34198
11
5.49429
21
-3.34467
0
LINE
8
BLACK
6
CONTINUOUS
10
5.49429
20
-3.34467
11
5.49549
21
-3.34587
0
LINE
8
BLACK
6
CONTINUOUS
10
5.49549
20
-3.34587
11
5.49819
21
-3.34722
0
LINE
8
BLACK
6
CONTINUOUS
10
5.49819
20
-3.34722
11
5.50617
21
-3.34722
0
LINE
8
BLACK
6
CONTINUOUS
10
5.50617
20
-3.34722
11
5.50887
21
-3.34587
0
LINE
8
BLACK
6
CONTINUOUS
10
5.50887
20
-3.34587
11
5.5104
21
-3.34434
0
LINE
8
BLACK
6
CONTINUOUS
10
5.5104
20
-3.34434
11
5.51124
21
-3.34375
0
LINE
8
BLACK
6
CONTINUOUS
10
5.51124
20
-3.34375
11
5.51325
21
-3.34357
0
LINE
8
BLACK
6
CONTINUOUS
10
5.51325
20
-3.34357
11
5.51491
21
-3.34473
0
LINE
8
BLACK
6
CONTINUOUS
10
5.51491
20
-3.34473
11
5.51543
21
-3.34668
0
LINE
8
BLACK
6
CONTINUOUS
10
5.51543
20
-3.34668
11
5.51458
21
-3.34851
0
LINE
8
BLACK
6
CONTINUOUS
10
5.51458
20
-3.34851
11
5.5127
21
-3.35039
0
LINE
8
BLACK
6
CONTINUOUS
10
5.5127
20
-3.35039
11
5.51198
21
-3.35089
0
LINE
8
BLACK
6
CONTINUOUS
10
5.51198
20
-3.35089
11
5.51194
21
-3.35094
0
LINE
8
BLACK
6
CONTINUOUS
10
5.51194
20
-3.35094
11
5.50819
21
-3.35281
0
LINE
8
BLACK
6
CONTINUOUS
10
5.50819
20
-3.35281
11
5.5072
21
-3.35311
0
LINE
8
BLACK
6
CONTINUOUS
10
5.5072
20
-3.35311
11
5.50703
21
-3.35306
0
LINE
8
BLACK
6
CONTINUOUS
10
5.50703
20
-3.35306
11
5.50687
21
-3.35313
0
LINE
8
BLACK
6
CONTINUOUS
10
5.50687
20
-3.35313
11
5.49749
21
-3.35313
0
LINE
8
BLACK
6
CONTINUOUS
10
5.49749
20
-3.35313
11
5.49648
21
-3.35295
0
LINE
8
BLACK
6
CONTINUOUS
10
5.49648
20
-3.35295
11
5.49635
21
-3.35283
0
LINE
8
BLACK
6
CONTINUOUS
10
5.49635
20
-3.35283
11
5.49617
21
-3.35281
0
LINE
8
BLACK
6
CONTINUOUS
10
5.49617
20
-3.35281
11
5.49242
21
-3.35094
0
LINE
8
BLACK
6
CONTINUOUS
10
5.49242
20
-3.35094
11
5.49171
21
-3.35041
0
LINE
8
BLACK
6
CONTINUOUS
10
5.49171
20
-3.35041
11
5.49165
21
-3.35039
0
LINE
8
BLACK
6
CONTINUOUS
10
5.49165
20
-3.35039
11
5.48978
21
-3.34851
0
LINE
8
BLACK
6
CONTINUOUS
10
5.48978
20
-3.34851
11
5.48927
21
-3.34779
0
LINE
8
BLACK
6
CONTINUOUS
10
5.48927
20
-3.34779
11
5.48923
21
-3.34774
0
LINE
8
BLACK
6
CONTINUOUS
10
5.48923
20
-3.34774
11
5.48735
21
-3.34399
0
LINE
8
BLACK
6
CONTINUOUS
10
5.48735
20
-3.34399
11
5.48706
21
-3.34301
0
LINE
8
BLACK
6
CONTINUOUS
10
5.48706
20
-3.34301
11
5.4871
21
-3.34284
0
LINE
8
BLACK
6
CONTINUOUS
10
5.4871
20
-3.34284
11
5.48704
21
-3.34267
0
LINE
8
BLACK
6
CONTINUOUS
10
5.48704
20
-3.34267
11
5.48704
21
-3.3333
0
LINE
8
BLACK
6
CONTINUOUS
10
5.48704
20
-3.3333
11
5.48722
21
-3.33229
0
LINE
8
BLACK
6
CONTINUOUS
10
5.48722
20
-3.33229
11
5.48733
21
-3.33215
0
LINE
8
BLACK
6
CONTINUOUS
10
5.48733
20
-3.33215
11
5.48735
21
-3.33198
0
LINE
8
BLACK
6
CONTINUOUS
10
5.48735
20
-3.33198
11
5.48923
21
-3.32823
0
LINE
8
BLACK
6
CONTINUOUS
10
5.48923
20
-3.32823
11
5.48975
21
-3.32752
0
LINE
8
BLACK
6
CONTINUOUS
10
5.48975
20
-3.32752
11
5.48978
21
-3.32746
0
LINE
8
BLACK
6
CONTINUOUS
10
5.48978
20
-3.32746
11
5.49165
21
-3.32559
0
LINE
8
BLACK
6
CONTINUOUS
10
5.49165
20
-3.32559
11
5.49238
21
-3.32508
0
LINE
8
BLACK
6
CONTINUOUS
10
5.49238
20
-3.32508
11
5.49242
21
-3.32503
0
LINE
8
BLACK
6
CONTINUOUS
10
5.49242
20
-3.32503
11
5.49617
21
-3.32316
0
LINE
8
BLACK
6
CONTINUOUS
10
5.49617
20
-3.32316
11
5.49715
21
-3.32287
0
LINE
8
BLACK
6
CONTINUOUS
10
5.49715
20
-3.32287
11
5.49733
21
-3.32291
0
LINE
8
BLACK
6
CONTINUOUS
10
5.49733
20
-3.32291
11
5.49749
21
-3.32285
0
LINE
8
BLACK
6
CONTINUOUS
10
5.49749
20
-3.32285
11
5.50687
21
-3.32285
0
LINE
8
BLACK
6
CONTINUOUS
10
5.50687
20
-3.32285
11
5.50788
21
-3.32303
0
LINE
8
BLACK
6
CONTINUOUS
10
5.50788
20
-3.32303
11
5.50801
21
-3.32314
0
LINE
8
BLACK
6
CONTINUOUS
10
5.50801
20
-3.32314
11
5.50819
21
-3.32316
0
LINE
8
BLACK
6
CONTINUOUS
10
5.50819
20
-3.32316
11
5.50892
21
-3.32353
0
LINE
8
BLACK
6
CONTINUOUS
10
5.50892
20
-3.32353
11
5.50847
21
-3.31902
0
LINE
8
BLACK
6
CONTINUOUS
10
5.50847
20
-3.31902
11
5.47691
21
-3.31902
0
LINE
8
BLACK
6
CONTINUOUS
10
5.47691
20
-3.31902
11
5.47793
21
-3.32926
0
LINE
8
BLACK
6
CONTINUOUS
10
5.47793
20
-3.32926
11
5.47786
21
-3.33028
0
LINE
8
BLACK
6
CONTINUOUS
10
5.47786
20
-3.33028
11
5.47784
21
-3.33029
0
LINE
8
BLACK
6
CONTINUOUS
10
5.47784
20
-3.33029
11
5.47785
21
-3.33031
0
LINE
8
BLACK
6
CONTINUOUS
10
5.47785
20
-3.33031
11
5.47728
21
-3.33113
0
LINE
8
BLACK
6
CONTINUOUS
10
5.47728
20
-3.33113
11
5.47672
21
-3.33195
0
LINE
8
BLACK
6
CONTINUOUS
10
5.47672
20
-3.33195
11
5.4767
21
-3.33195
0
LINE
8
BLACK
6
CONTINUOUS
10
5.4767
20
-3.33195
11
5.47669
21
-3.33197
0
LINE
8
BLACK
6
CONTINUOUS
10
5.47669
20
-3.33197
11
5.47573
21
-3.33223
0
LINE
8
BLACK
6
CONTINUOUS
10
5.47573
20
-3.33223
11
5.47477
21
-3.33249
0
LINE
8
BLACK
6
CONTINUOUS
10
5.47477
20
-3.33249
11
5.47476
21
-3.33249
0
LINE
8
BLACK
6
CONTINUOUS
10
5.47476
20
-3.33249
11
5.47474
21
-3.33249
0
LINE
8
BLACK
6
CONTINUOUS
10
5.47474
20
-3.33249
11
5.47384
21
-3.33207
0
LINE
8
BLACK
6
CONTINUOUS
10
5.47384
20
-3.33207
11
5.47293
21
-3.33166
0
LINE
8
BLACK
6
CONTINUOUS
10
5.47293
20
-3.33166
11
5.47292
21
-3.33165
0
LINE
8
BLACK
6
CONTINUOUS
10
5.47292
20
-3.33165
11
5.47291
21
-3.33164
0
LINE
8
BLACK
6
CONTINUOUS
10
5.47291
20
-3.33164
11
5.47137
21
-3.3301
0
LINE
8
BLACK
6
CONTINUOUS
10
5.47137
20
-3.3301
11
5.46867
21
-3.32875
0
LINE
8
BLACK
6
CONTINUOUS
10
5.46867
20
-3.32875
11
5.46069
21
-3.32875
0
LINE
8
BLACK
6
CONTINUOUS
10
5.46069
20
-3.32875
11
5.458
21
-3.3301
0
LINE
8
BLACK
6
CONTINUOUS
10
5.458
20
-3.3301
11
5.4568
21
-3.3313
0
LINE
8
BLACK
6
CONTINUOUS
10
5.4568
20
-3.3313
11
5.45545
21
-3.334
0
LINE
8
BLACK
6
CONTINUOUS
10
5.45545
20
-3.334
11
5.45545
21
-3.34198
0
LINE
8
BLACK
6
CONTINUOUS
10
5.45545
20
-3.34198
11
5.4568
21
-3.34467
0
LINE
8
BLACK
6
CONTINUOUS
10
5.4568
20
-3.34467
11
5.458
21
-3.34587
0
LINE
8
BLACK
6
CONTINUOUS
10
5.458
20
-3.34587
11
5.46069
21
-3.34722
0
LINE
8
BLACK
6
CONTINUOUS
10
5.46069
20
-3.34722
11
5.46867
21
-3.34722
0
LINE
8
BLACK
6
CONTINUOUS
10
5.46867
20
-3.34722
11
5.47137
21
-3.34587
0
LINE
8
BLACK
6
CONTINUOUS
10
5.47137
20
-3.34587
11
5.47291
21
-3.34434
0
LINE
8
BLACK
6
CONTINUOUS
10
5.47291
20
-3.34434
11
5.47375
21
-3.34375
0
LINE
8
BLACK
6
CONTINUOUS
10
5.47375
20
-3.34375
11
5.47576
21
-3.34357
0
LINE
8
BLACK
6
CONTINUOUS
10
5.47576
20
-3.34357
11
5.47741
21
-3.34473
0
LINE
8
BLACK
6
CONTINUOUS
10
5.47741
20
-3.34473
11
5.47794
21
-3.34668
0
LINE
8
BLACK
6
CONTINUOUS
10
5.47794
20
-3.34668
11
5.47708
21
-3.34851
0
LINE
8
BLACK
6
CONTINUOUS
10
5.47708
20
-3.34851
11
5.47521
21
-3.35039
0
LINE
8
BLACK
6
CONTINUOUS
10
5.47521
20
-3.35039
11
5.47448
21
-3.35089
0
LINE
8
BLACK
6
CONTINUOUS
10
5.47448
20
-3.35089
11
5.47444
21
-3.35094
0
LINE
8
BLACK
6
CONTINUOUS
10
5.47444
20
-3.35094
11
5.47069
21
-3.35281
0
LINE
8
BLACK
6
CONTINUOUS
10
5.47069
20
-3.35281
11
5.46971
21
-3.35311
0
LINE
8
BLACK
6
CONTINUOUS
10
5.46971
20
-3.35311
11
5.46954
21
-3.35306
0
LINE
8
BLACK
6
CONTINUOUS
10
5.46954
20
-3.35306
11
5.46937
21
-3.35313
0
LINE
8
BLACK
6
CONTINUOUS
10
5.46937
20
-3.35313
11
5.46
21
-3.35313
0
LINE
8
BLACK
6
CONTINUOUS
10
5.46
20
-3.35313
11
5.45899
21
-3.35295
0
LINE
8
BLACK
6
CONTINUOUS
10
5.45899
20
-3.35295
11
5.45885
21
-3.35283
0
LINE
8
BLACK
6
CONTINUOUS
10
5.45885
20
-3.35283
11
5.45868
21
-3.35281
0
LINE
8
BLACK
6
CONTINUOUS
10
5.45868
20
-3.35281
11
5.45493
21
-3.35094
0
LINE
8
BLACK
6
CONTINUOUS
10
5.45493
20
-3.35094
11
5.45422
21
-3.35041
0
LINE
8
BLACK
6
CONTINUOUS
10
5.45422
20
-3.35041
11
5.45416
21
-3.35039
0
LINE
8
BLACK
6
CONTINUOUS
10
5.45416
20
-3.35039
11
5.45228
21
-3.34851
0
LINE
8
BLACK
6
CONTINUOUS
10
5.45228
20
-3.34851
11
5.45178
21
-3.34779
0
LINE
8
BLACK
6
CONTINUOUS
10
5.45178
20
-3.34779
11
5.45173
21
-3.34774
0
LINE
8
BLACK
6
CONTINUOUS
10
5.45173
20
-3.34774
11
5.44986
21
-3.34399
0
LINE
8
BLACK
6
CONTINUOUS
10
5.44986
20
-3.34399
11
5.44956
21
-3.34301
0
LINE
8
BLACK
6
CONTINUOUS
10
5.44956
20
-3.34301
11
5.4496
21
-3.34284
0
LINE
8
BLACK
6
CONTINUOUS
10
5.4496
20
-3.34284
11
5.44954
21
-3.34267
0
LINE
8
BLACK
6
CONTINUOUS
10
5.44954
20
-3.34267
11
5.44954
21
-3.3333
0
LINE
8
BLACK
6
CONTINUOUS
10
5.44954
20
-3.3333
11
5.44972
21
-3.33229
0
LINE
8
BLACK
6
CONTINUOUS
10
5.44972
20
-3.33229
11
5.44984
21
-3.33215
0
LINE
8
BLACK
6
CONTINUOUS
10
5.44984
20
-3.33215
11
5.44986
21
-3.33198
0
LINE
8
BLACK
6
CONTINUOUS
10
5.44986
20
-3.33198
11
5.45173
21
-3.32823
0
LINE
8
BLACK
6
CONTINUOUS
10
5.45173
20
-3.32823
11
5.45226
21
-3.32752
0
LINE
8
BLACK
6
CONTINUOUS
10
5.45226
20
-3.32752
11
5.45228
21
-3.32746
0
LINE
8
BLACK
6
CONTINUOUS
10
5.45228
20
-3.32746
11
5.45416
21
-3.32559
0
LINE
8
BLACK
6
CONTINUOUS
10
5.45416
20
-3.32559
11
5.45488
21
-3.32508
0
LINE
8
BLACK
6
CONTINUOUS
10
5.45488
20
-3.32508
11
5.45493
21
-3.32503
0
LINE
8
BLACK
6
CONTINUOUS
10
5.45493
20
-3.32503
11
5.45868
21
-3.32316
0
LINE
8
BLACK
6
CONTINUOUS
10
5.45868
20
-3.32316
11
5.45966
21
-3.32287
0
LINE
8
BLACK
6
CONTINUOUS
10
5.45966
20
-3.32287
11
5.45983
21
-3.32291
0
LINE
8
BLACK
6
CONTINUOUS
10
5.45983
20
-3.32291
11
5.46
21
-3.32285
0
LINE
8
BLACK
6
CONTINUOUS
10
5.46
20
-3.32285
11
5.46937
21
-3.32285
0
LINE
8
BLACK
6
CONTINUOUS
10
5.46937
20
-3.32285
11
5.47038
21
-3.32303
0
LINE
8
BLACK
6
CONTINUOUS
10
5.47038
20
-3.32303
11
5.47052
21
-3.32314
0
LINE
8
BLACK
6
CONTINUOUS
10
5.47052
20
-3.32314
11
5.47069
21
-3.32316
0
LINE
8
BLACK
6
CONTINUOUS
10
5.47069
20
-3.32316
11
5.47142
21
-3.32353
0
LINE
8
BLACK
6
CONTINUOUS
10
5.47142
20
-3.32353
11
5.47097
21
-3.31902
0
LINE
8
BLACK
6
CONTINUOUS
10
5.47097
20
-3.31902
11
5.43831
21
-3.31902
0
LINE
8
BLACK
6
CONTINUOUS
10
5.43831
20
-3.31902
11
5.43841
21
-3.31934
0
LINE
8
BLACK
6
CONTINUOUS
10
5.43841
20
-3.31934
11
5.43849
21
-3.31946
0
LINE
8
BLACK
6
CONTINUOUS
10
5.43849
20
-3.31946
11
5.44036
21
-3.32696
0
LINE
8
BLACK
6
CONTINUOUS
10
5.44036
20
-3.32696
11
5.44041
21
-3.32755
0
LINE
8
BLACK
6
CONTINUOUS
10
5.44041
20
-3.32755
11
5.44045
21
-3.32768
0
LINE
8
BLACK
6
CONTINUOUS
10
5.44045
20
-3.32768
11
5.44045
21
-3.3333
0
LINE
8
BLACK
6
CONTINUOUS
10
5.44045
20
-3.3333
11
5.44035
21
-3.33388
0
LINE
8
BLACK
6
CONTINUOUS
10
5.44035
20
-3.33388
11
5.44036
21
-3.33402
0
LINE
8
BLACK
6
CONTINUOUS
10
5.44036
20
-3.33402
11
5.43849
21
-3.34151
0
LINE
8
BLACK
6
CONTINUOUS
10
5.43849
20
-3.34151
11
5.43828
21
-3.34198
0
LINE
8
BLACK
6
CONTINUOUS
10
5.43828
20
-3.34198
11
5.43827
21
-3.34212
0
LINE
8
BLACK
6
CONTINUOUS
10
5.43827
20
-3.34212
11
5.43639
21
-3.34587
0
LINE
8
BLACK
6
CONTINUOUS
10
5.43639
20
-3.34587
11
5.43586
21
-3.34658
0
LINE
8
BLACK
6
CONTINUOUS
10
5.43586
20
-3.34658
11
5.43584
21
-3.34664
0
LINE
8
BLACK
6
CONTINUOUS
10
5.43584
20
-3.34664
11
5.43209
21
-3.35039
0
LINE
8
BLACK
6
CONTINUOUS
10
5.43209
20
-3.35039
11
5.43125
21
-3.35097
0
LINE
8
BLACK
6
CONTINUOUS
10
5.43125
20
-3.35097
11
5.43107
21
-3.35099
0
LINE
8
BLACK
6
CONTINUOUS
10
5.43107
20
-3.35099
11
5.43093
21
-3.3511
0
LINE
8
BLACK
6
CONTINUOUS
10
5.43093
20
-3.3511
11
5.42531
21
-3.35297
0
LINE
8
BLACK
6
CONTINUOUS
10
5.42531
20
-3.35297
11
5.42444
21
-3.3531
0
LINE
8
BLACK
6
CONTINUOUS
10
5.42444
20
-3.3531
11
5.42438
21
-3.35313
0
LINE
8
BLACK
6
CONTINUOUS
10
5.42438
20
-3.35313
11
5.42063
21
-3.35313
0
LINE
8
BLACK
6
CONTINUOUS
10
5.42063
20
-3.35313
11
5.41976
21
-3.35297
0
LINE
8
BLACK
6
CONTINUOUS
10
5.41976
20
-3.35297
11
5.41969
21
-3.35297
0
LINE
8
BLACK
6
CONTINUOUS
10
5.41969
20
-3.35297
11
5.41407
21
-3.3511
0
LINE
8
BLACK
6
CONTINUOUS
10
5.41407
20
-3.3511
11
5.41317
21
-3.35061
0
LINE
8
BLACK
6
CONTINUOUS
10
5.41317
20
-3.35061
11
5.41307
21
-3.35046
0
LINE
8
BLACK
6
CONTINUOUS
10
5.41307
20
-3.35046
11
5.41291
21
-3.35039
0
LINE
8
BLACK
6
CONTINUOUS
10
5.41291
20
-3.35039
11
5.41104
21
-3.34851
0
LINE
8
BLACK
6
CONTINUOUS
10
5.41104
20
-3.34851
11
5.41045
21
-3.34767
0
LINE
8
BLACK
6
CONTINUOUS
10
5.41045
20
-3.34767
11
5.41027
21
-3.34566
0
LINE
8
BLACK
6
CONTINUOUS
10
5.41027
20
-3.34566
11
5.41143
21
-3.344
0
LINE
8
BLACK
6
CONTINUOUS
10
5.41143
20
-3.344
11
5.41338
21
-3.34348
0
LINE
8
BLACK
6
CONTINUOUS
10
5.41338
20
-3.34348
11
5.41521
21
-3.34434
0
LINE
8
BLACK
6
CONTINUOUS
10
5.41521
20
-3.34434
11
5.4166
21
-3.34572
0
LINE
8
BLACK
6
CONTINUOUS
10
5.4166
20
-3.34572
11
5.42111
21
-3.34722
0
LINE
8
BLACK
6
CONTINUOUS
10
5.42111
20
-3.34722
11
5.4239
21
-3.34722
0
LINE
8
BLACK
6
CONTINUOUS
10
5.4239
20
-3.34722
11
5.4284
21
-3.34572
0
LINE
8
BLACK
6
CONTINUOUS
10
5.4284
20
-3.34572
11
5.43132
21
-3.3428
0
LINE
8
BLACK
6
CONTINUOUS
10
5.43132
20
-3.3428
11
5.43284
21
-3.33977
0
LINE
8
BLACK
6
CONTINUOUS
10
5.43284
20
-3.33977
11
5.43455
21
-3.33294
0
LINE
8
BLACK
6
CONTINUOUS
10
5.43455
20
-3.33294
11
5.43455
21
-3.32804
0
LINE
8
BLACK
6
CONTINUOUS
10
5.43455
20
-3.32804
11
5.43284
21
-3.32121
0
LINE
8
BLACK
6
CONTINUOUS
10
5.43284
20
-3.32121
11
5.43174
21
-3.31902
0
LINE
8
BLACK
6
CONTINUOUS
10
5.43174
20
-3.31902
11
5.36902
21
-3.31902
0
LINE
8
BLACK
6
CONTINUOUS
10
5.36902
20
-3.31902
11
5.36902
21
-3.33222
0
LINE
8
BLACK
6
CONTINUOUS
10
5.36902
20
-3.33222
11
5.39625
21
-3.33222
0
LINE
8
BLACK
6
CONTINUOUS
10
5.39625
20
-3.33222
11
5.39726
21
-3.3324
0
LINE
8
BLACK
6
CONTINUOUS
10
5.39726
20
-3.3324
11
5.39881
21
-3.3337
0
LINE
8
BLACK
6
CONTINUOUS
10
5.39881
20
-3.3337
11
5.39916
21
-3.33569
0
LINE
8
BLACK
6
CONTINUOUS
10
5.39916
20
-3.33569
11
5.39815
21
-3.33744
0
LINE
8
BLACK
6
CONTINUOUS
10
5.39815
20
-3.33744
11
5.39625
21
-3.33813
0
LINE
8
BLACK
6
CONTINUOUS
10
5.39625
20
-3.33813
11
5.36902
21
-3.33813
0
LINE
8
BLACK
6
CONTINUOUS
10
5.36902
20
-3.33813
11
5.36902
21
-3.47214
0
LINE
8
BLACK
6
CONTINUOUS
10
5.36902
20
-3.47214
11
5.41786
21
-3.52098
0
LINE
8
BLACK
6
CONTINUOUS
10
5.41786
20
-3.52098
11
5.57098
21
-3.52098
0
LINE
8
BLACK
6
CONTINUOUS
10
5.57098
20
-3.52098
11
5.57098
21
-3.35313
0
LINE
8
BLACK
6
CONTINUOUS
10
5.57098
20
-3.35313
11
5.55936
21
-3.35313
0
LINE
8
BLACK
6
CONTINUOUS
10
5.55936
20
-3.35313
11
5.55835
21
-3.35295
0
LINE
8
BLACK
6
CONTINUOUS
10
5.55835
20
-3.35295
11
5.5568
21
-3.35165
0
LINE
8
BLACK
6
CONTINUOUS
10
5.5568
20
-3.35165
11
5.55645
21
-3.34966
0
LINE
8
BLACK
6
CONTINUOUS
10
5.55645
20
-3.34966
11
5.55746
21
-3.34791
0
LINE
8
BLACK
6
CONTINUOUS
10
5.55746
20
-3.34791
11
5.55936
21
-3.34722
0
LINE
8
BLACK
6
CONTINUOUS
10
5.55936
20
-3.34722
11
5.57098
21
-3.34722
0
LINE
8
BLACK
6
CONTINUOUS
10
5.57098
20
-3.34722
11
5.57098
21
-3.33356
0
LINE
8
BLACK
6
CONTINUOUS
10
5.57098
20
-3.33356
11
5.56129
21
-3.31902
0
LINE
8
BLACK
6
CONTINUOUS
10
5.56129
20
-3.31902
11
5.55036
21
-3.31902
0
LINE
8
BLACK
6
CONTINUOUS
10
5.57492
20
-3.34722
11
5.58009
21
-3.34722
0
LINE
8
BLACK
6
CONTINUOUS
10
5.58009
20
-3.34722
11
5.57492
21
-3.33947
0
LINE
8
BLACK
6
CONTINUOUS
10
5.57492
20
-3.33947
11
5.57492
21
-3.34722
0
LINE
8
BLACK
6
CONTINUOUS
10
5.52959
20
-3.31902
11
5.53686
21
-3.34084
0
LINE
8
BLACK
6
CONTINUOUS
10
5.53686
20
-3.34084
11
5.54413
21
-3.31902
0
LINE
8
BLACK
6
CONTINUOUS
10
5.54413
20
-3.31902
11
5.52959
21
-3.31902
0
LINE
8
BLACK
6
CONTINUOUS
10
5.56838
20
-3.31902
11
5.57098
21
-3.32292
0
LINE
8
BLACK
6
CONTINUOUS
10
5.57098
20
-3.32292
11
5.57098
21
-3.31902
0
LINE
8
BLACK
6
CONTINUOUS
10
5.57098
20
-3.31902
11
5.56838
21
-3.31902
0
LINE
8
BLACK
6
CONTINUOUS
10
5.42111
20
-3.31376
11
5.41713
21
-3.31508
0
LINE
8
BLACK
6
CONTINUOUS
10
5.41713
20
-3.31508
11
5.42787
21
-3.31508
0
LINE
8
BLACK
6
CONTINUOUS
10
5.42787
20
-3.31508
11
5.4239
21
-3.31376
0
LINE
8
BLACK
6
CONTINUOUS
10
5.4239
20
-3.31376
11
5.42111
21
-3.31376
0
LINE
8
BLACK
6
CONTINUOUS
10
5.48213
20
-3.38782
11
5.48221
21
-3.38787
0
LINE
8
BLACK
6
CONTINUOUS
10
5.48221
20
-3.38787
11
5.4823
21
-3.38788
0
LINE
8
BLACK
6
CONTINUOUS
10
5.4823
20
-3.38788
11
5.48944
21
-3.39026
0
LINE
8
BLACK
6
CONTINUOUS
10
5.48944
20
-3.39026
11
5.49072
21
-3.3909
0
LINE
8
BLACK
6
CONTINUOUS
10
5.49072
20
-3.3909
11
5.491
21
-3.39125
0
LINE
8
BLACK
6
CONTINUOUS
10
5.491
20
-3.39125
11
5.49139
21
-3.39146
0
LINE
8
BLACK
6
CONTINUOUS
10
5.49139
20
-3.39146
11
5.49615
21
-3.39623
0
LINE
8
BLACK
6
CONTINUOUS
10
5.49615
20
-3.39623
11
5.49701
21
-3.39738
0
LINE
8
BLACK
6
CONTINUOUS
10
5.49701
20
-3.39738
11
5.49703
21
-3.39746
0
LINE
8
BLACK
6
CONTINUOUS
10
5.49703
20
-3.39746
11
5.49709
21
-3.39753
0
LINE
8
BLACK
6
CONTINUOUS
10
5.49709
20
-3.39753
11
5.49947
21
-3.40229
0
LINE
8
BLACK
6
CONTINUOUS
10
5.49947
20
-3.40229
11
5.49976
21
-3.40316
0
LINE
8
BLACK
6
CONTINUOUS
10
5.49976
20
-3.40316
11
5.49985
21
-3.40331
0
LINE
8
BLACK
6
CONTINUOUS
10
5.49985
20
-3.40331
11
5.50223
21
-3.41283
0
LINE
8
BLACK
6
CONTINUOUS
10
5.50223
20
-3.41283
11
5.50234
21
-3.41391
0
LINE
8
BLACK
6
CONTINUOUS
10
5.50234
20
-3.41391
11
5.50238
21
-3.41405
0
LINE
8
BLACK
6
CONTINUOUS
10
5.50238
20
-3.41405
11
5.50238
21
-3.42119
0
LINE
8
BLACK
6
CONTINUOUS
10
5.50238
20
-3.42119
11
5.50223
21
-3.42226
0
LINE
8
BLACK
6
CONTINUOUS
10
5.50223
20
-3.42226
11
5.50223
21
-3.4224
0
LINE
8
BLACK
6
CONTINUOUS
10
5.50223
20
-3.4224
11
5.49985
21
-3.43193
0
LINE
8
BLACK
6
CONTINUOUS
10
5.49985
20
-3.43193
11
5.4995
21
-3.43277
0
LINE
8
BLACK
6
CONTINUOUS
10
5.4995
20
-3.43277
11
5.49947
21
-3.43295
0
LINE
8
BLACK
6
CONTINUOUS
10
5.49947
20
-3.43295
11
5.49709
21
-3.43771
0
LINE
8
BLACK
6
CONTINUOUS
10
5.49709
20
-3.43771
11
5.49627
21
-3.43889
0
LINE
8
BLACK
6
CONTINUOUS
10
5.49627
20
-3.43889
11
5.4962
21
-3.43893
0
LINE
8
BLACK
6
CONTINUOUS
10
5.4962
20
-3.43893
11
5.49615
21
-3.43901
0
LINE
8
BLACK
6
CONTINUOUS
10
5.49615
20
-3.43901
11
5.49139
21
-3.44377
0
LINE
8
BLACK
6
CONTINUOUS
10
5.49139
20
-3.44377
11
5.49024
21
-3.44463
0
LINE
8
BLACK
6
CONTINUOUS
10
5.49024
20
-3.44463
11
5.48981
21
-3.44473
0
LINE
8
BLACK
6
CONTINUOUS
10
5.48981
20
-3.44473
11
5.48944
21
-3.44498
0
LINE
8
BLACK
6
CONTINUOUS
10
5.48944
20
-3.44498
11
5.4823
21
-3.44736
0
LINE
8
BLACK
6
CONTINUOUS
10
5.4823
20
-3.44736
11
5.48088
21
-3.44762
0
LINE
8
BLACK
6
CONTINUOUS
10
5.48088
20
-3.44762
11
5.4808
21
-3.44759
0
LINE
8
BLACK
6
CONTINUOUS
10
5.4808
20
-3.44759
11
5.48071
21
-3.44762
0
LINE
8
BLACK
6
CONTINUOUS
10
5.48071
20
-3.44762
11
5.47595
21
-3.44762
0
LINE
8
BLACK
6
CONTINUOUS
10
5.47595
20
-3.44762
11
5.47453
21
-3.44741
0
LINE
8
BLACK
6
CONTINUOUS
10
5.47453
20
-3.44741
11
5.47446
21
-3.44737
0
LINE
8
BLACK
6
CONTINUOUS
10
5.47446
20
-3.44737
11
5.47437
21
-3.44736
0
LINE
8
BLACK
6
CONTINUOUS
10
5.47437
20
-3.44736
11
5.46723
21
-3.44498
0
LINE
8
BLACK
6
CONTINUOUS
10
5.46723
20
-3.44498
11
5.46595
21
-3.44434
0
LINE
8
BLACK
6
CONTINUOUS
10
5.46595
20
-3.44434
11
5.46567
21
-3.44399
0
LINE
8
BLACK
6
CONTINUOUS
10
5.46567
20
-3.44399
11
5.46527
21
-3.44377
0
LINE
8
BLACK
6
CONTINUOUS
10
5.46527
20
-3.44377
11
5.46289
21
-3.44139
0
LINE
8
BLACK
6
CONTINUOUS
10
5.46289
20
-3.44139
11
5.46203
21
-3.44024
0
LINE
8
BLACK
6
CONTINUOUS
10
5.46203
20
-3.44024
11
5.46144
21
-3.43749
0
LINE
8
BLACK
6
CONTINUOUS
10
5.46144
20
-3.43749
11
5.46243
21
-3.43485
0
LINE
8
BLACK
6
CONTINUOUS
10
5.46243
20
-3.43485
11
5.46469
21
-3.43317
0
LINE
8
BLACK
6
CONTINUOUS
10
5.46469
20
-3.43317
11
5.46749
21
-3.43297
0
LINE
8
BLACK
6
CONTINUOUS
10
5.46749
20
-3.43297
11
5.46996
21
-3.43432
0
LINE
8
BLACK
6
CONTINUOUS
10
5.46996
20
-3.43432
11
5.47151
21
-3.43587
0
LINE
8
BLACK
6
CONTINUOUS
10
5.47151
20
-3.43587
11
5.47676
21
-3.43762
0
LINE
8
BLACK
6
CONTINUOUS
10
5.47676
20
-3.43762
11
5.4799
21
-3.43762
0
LINE
8
BLACK
6
CONTINUOUS
10
5.4799
20
-3.43762
11
5.48516
21
-3.43587
0
LINE
8
BLACK
6
CONTINUOUS
10
5.48516
20
-3.43587
11
5.48851
21
-3.43251
0
LINE
8
BLACK
6
CONTINUOUS
10
5.48851
20
-3.43251
11
5.49028
21
-3.42897
0
LINE
8
BLACK
6
CONTINUOUS
10
5.49028
20
-3.42897
11
5.49238
21
-3.42057
0
LINE
8
BLACK
6
CONTINUOUS
10
5.49238
20
-3.42057
11
5.49238
21
-3.41466
0
LINE
8
BLACK
6
CONTINUOUS
10
5.49238
20
-3.41466
11
5.49028
21
-3.40627
0
LINE
8
BLACK
6
CONTINUOUS
10
5.49028
20
-3.40627
11
5.48851
21
-3.40272
0
LINE
8
BLACK
6
CONTINUOUS
10
5.48851
20
-3.40272
11
5.48516
21
-3.39937
0
LINE
8
BLACK
6
CONTINUOUS
10
5.48516
20
-3.39937
11
5.4799
21
-3.39762
0
LINE
8
BLACK
6
CONTINUOUS
10
5.4799
20
-3.39762
11
5.47676
21
-3.39762
0
LINE
8
BLACK
6
CONTINUOUS
10
5.47676
20
-3.39762
11
5.47151
21
-3.39937
0
LINE
8
BLACK
6
CONTINUOUS
10
5.47151
20
-3.39937
11
5.46996
21
-3.40092
0
LINE
8
BLACK
6
CONTINUOUS
10
5.46996
20
-3.40092
11
5.46881
21
-3.40178
0
LINE
8
BLACK
6
CONTINUOUS
10
5.46881
20
-3.40178
11
5.46606
21
-3.40237
0
LINE
8
BLACK
6
CONTINUOUS
10
5.46606
20
-3.40237
11
5.46343
21
-3.40138
0
LINE
8
BLACK
6
CONTINUOUS
10
5.46343
20
-3.40138
11
5.46174
21
-3.39912
0
LINE
8
BLACK
6
CONTINUOUS
10
5.46174
20
-3.39912
11
5.46154
21
-3.39632
0
LINE
8
BLACK
6
CONTINUOUS
10
5.46154
20
-3.39632
11
5.46289
21
-3.39385
0
LINE
8
BLACK
6
CONTINUOUS
10
5.46289
20
-3.39385
11
5.46527
21
-3.39146
0
LINE
8
BLACK
6
CONTINUOUS
10
5.46527
20
-3.39146
11
5.46642
21
-3.39061
0
LINE
8
BLACK
6
CONTINUOUS
10
5.46642
20
-3.39061
11
5.46686
21
-3.39051
0
LINE
8
BLACK
6
CONTINUOUS
10
5.46686
20
-3.39051
11
5.46723
21
-3.39026
0
LINE
8
BLACK
6
CONTINUOUS
10
5.46723
20
-3.39026
11
5.47437
21
-3.38788
0
LINE
8
BLACK
6
CONTINUOUS
10
5.47437
20
-3.38788
11
5.47578
21
-3.38762
0
LINE
8
BLACK
6
CONTINUOUS
10
5.47578
20
-3.38762
11
5.47587
21
-3.38764
0
LINE
8
BLACK
6
CONTINUOUS
10
5.47587
20
-3.38764
11
5.47595
21
-3.38762
0
LINE
8
BLACK
6
CONTINUOUS
10
5.47595
20
-3.38762
11
5.48071
21
-3.38762
0
LINE
8
BLACK
6
CONTINUOUS
10
5.48071
20
-3.38762
11
5.48213
21
-3.38782
0
LINE
8
BLACK
6
CONTINUOUS
10
5.43374
20
-3.38786
11
5.4351
21
-3.38804
0
LINE
8
BLACK
6
CONTINUOUS
10
5.4351
20
-3.38804
11
5.43513
21
-3.38807
0
LINE
8
BLACK
6
CONTINUOUS
10
5.43513
20
-3.38807
11
5.43518
21
-3.38807
0
LINE
8
BLACK
6
CONTINUOUS
10
5.43518
20
-3.38807
11
5.43621
21
-3.38897
0
LINE
8
BLACK
6
CONTINUOUS
10
5.43621
20
-3.38897
11
5.43726
21
-3.38985
0
LINE
8
BLACK
6
CONTINUOUS
10
5.43726
20
-3.38985
11
5.44174
21
-3.39658
0
LINE
8
BLACK
6
CONTINUOUS
10
5.44174
20
-3.39658
11
5.44558
21
-3.40041
0
LINE
8
BLACK
6
CONTINUOUS
10
5.44558
20
-3.40041
11
5.44962
21
-3.40243
0
LINE
8
BLACK
6
CONTINUOUS
10
5.44962
20
-3.40243
11
5.4508
21
-3.40325
0
LINE
8
BLACK
6
CONTINUOUS
10
5.4508
20
-3.40325
11
5.45223
21
-3.40568
0
LINE
8
BLACK
6
CONTINUOUS
10
5.45223
20
-3.40568
11
5.45212
21
-3.40849
0
LINE
8
BLACK
6
CONTINUOUS
10
5.45212
20
-3.40849
11
5.45052
21
-3.4108
0
LINE
8
BLACK
6
CONTINUOUS
10
5.45052
20
-3.4108
11
5.44792
21
-3.41188
0
LINE
8
BLACK
6
CONTINUOUS
10
5.44792
20
-3.41188
11
5.44514
21
-3.41138
0
LINE
8
BLACK
6
CONTINUOUS
10
5.44514
20
-3.41138
11
5.44038
21
-3.409
0
LINE
8
BLACK
6
CONTINUOUS
10
5.44038
20
-3.409
11
5.4392
21
-3.40818
0
LINE
8
BLACK
6
CONTINUOUS
10
5.4392
20
-3.40818
11
5.43916
21
-3.4081
0
LINE
8
BLACK
6
CONTINUOUS
10
5.43916
20
-3.4081
11
5.43908
21
-3.40806
0
LINE
8
BLACK
6
CONTINUOUS
10
5.43908
20
-3.40806
11
5.4381
21
-3.40707
0
LINE
8
BLACK
6
CONTINUOUS
10
5.4381
20
-3.40707
11
5.4381
21
-3.43762
0
LINE
8
BLACK
6
CONTINUOUS
10
5.4381
20
-3.43762
11
5.44738
21
-3.43762
0
LINE
8
BLACK
6
CONTINUOUS
10
5.44738
20
-3.43762
11
5.4488
21
-3.43782
0
LINE
8
BLACK
6
CONTINUOUS
10
5.4488
20
-3.43782
11
5.45117
21
-3.43935
0
LINE
8
BLACK
6
CONTINUOUS
10
5.45117
20
-3.43935
11
5.45233
21
-3.44191
0
LINE
8
BLACK
6
CONTINUOUS
10
5.45233
20
-3.44191
11
5.45193
21
-3.4447
0
LINE
8
BLACK
6
CONTINUOUS
10
5.45193
20
-3.4447
11
5.45008
21
-3.44683
0
LINE
8
BLACK
6
CONTINUOUS
10
5.45008
20
-3.44683
11
5.44738
21
-3.44762
0
LINE
8
BLACK
6
CONTINUOUS
10
5.44738
20
-3.44762
11
5.41881
21
-3.44762
0
LINE
8
BLACK
6
CONTINUOUS
10
5.41881
20
-3.44762
11
5.41739
21
-3.44741
0
LINE
8
BLACK
6
CONTINUOUS
10
5.41739
20
-3.44741
11
5.41502
21
-3.44589
0
LINE
8
BLACK
6
CONTINUOUS
10
5.41502
20
-3.44589
11
5.41386
21
-3.44332
0
LINE
8
BLACK
6
CONTINUOUS
10
5.41386
20
-3.44332
11
5.41426
21
-3.44054
0
LINE
8
BLACK
6
CONTINUOUS
10
5.41426
20
-3.44054
11
5.41611
21
-3.43841
0
LINE
8
BLACK
6
CONTINUOUS
10
5.41611
20
-3.43841
11
5.41881
21
-3.43762
0
LINE
8
BLACK
6
CONTINUOUS
10
5.41881
20
-3.43762
11
5.4281
21
-3.43762
0
LINE
8
BLACK
6
CONTINUOUS
10
5.4281
20
-3.43762
11
5.4281
21
-3.39262
0
LINE
8
BLACK
6
CONTINUOUS
10
5.4281
20
-3.39262
11
5.42828
21
-3.39136
0
LINE
8
BLACK
6
CONTINUOUS
10
5.42828
20
-3.39136
11
5.42828
21
-3.39128
0
LINE
8
BLACK
6
CONTINUOUS
10
5.42828
20
-3.39128
11
5.42829
21
-3.39126
0
LINE
8
BLACK
6
CONTINUOUS
10
5.42829
20
-3.39126
11
5.4283
21
-3.3912
0
LINE
8
BLACK
6
CONTINUOUS
10
5.4283
20
-3.3912
11
5.42904
21
-3.39005
0
LINE
8
BLACK
6
CONTINUOUS
10
5.42904
20
-3.39005
11
5.42976
21
-3.38889
0
LINE
8
BLACK
6
CONTINUOUS
10
5.42976
20
-3.38889
11
5.4298
21
-3.38887
0
LINE
8
BLACK
6
CONTINUOUS
10
5.4298
20
-3.38887
11
5.42983
21
-3.38883
0
LINE
8
BLACK
6
CONTINUOUS
10
5.42983
20
-3.38883
11
5.43107
21
-3.38827
0
LINE
8
BLACK
6
CONTINUOUS
10
5.43107
20
-3.38827
11
5.43231
21
-3.38768
0
LINE
8
BLACK
6
CONTINUOUS
10
5.43231
20
-3.38768
11
5.43235
21
-3.38769
0
LINE
8
BLACK
6
CONTINUOUS
10
5.43235
20
-3.38769
11
5.43239
21
-3.38767
0
LINE
8
BLACK
6
CONTINUOUS
10
5.43239
20
-3.38767
11
5.43374
21
-3.38786
0
LINE
8
BLACK
6
CONTINUOUS
10
5.52089
20
-3.38807
11
5.52302
21
-3.38992
0
LINE
8
BLACK
6
CONTINUOUS
10
5.52302
20
-3.38992
11
5.52381
21
-3.39262
0
LINE
8
BLACK
6
CONTINUOUS
10
5.52381
20
-3.39262
11
5.52381
21
-3.44262
0
LINE
8
BLACK
6
CONTINUOUS
10
5.52381
20
-3.44262
11
5.5236
21
-3.44404
0
LINE
8
BLACK
6
CONTINUOUS
10
5.5236
20
-3.44404
11
5.52208
21
-3.4464
0
LINE
8
BLACK
6
CONTINUOUS
10
5.52208
20
-3.4464
11
5.51951
21
-3.44757
0
LINE
8
BLACK
6
CONTINUOUS
10
5.51951
20
-3.44757
11
5.51673
21
-3.44717
0
LINE
8
BLACK
6
CONTINUOUS
10
5.51673
20
-3.44717
11
5.5146
21
-3.44532
0
LINE
8
BLACK
6
CONTINUOUS
10
5.5146
20
-3.44532
11
5.51381
21
-3.44262
0
LINE
8
BLACK
6
CONTINUOUS
10
5.51381
20
-3.44262
11
5.51381
21
-3.39262
0
LINE
8
BLACK
6
CONTINUOUS
10
5.51381
20
-3.39262
11
5.51402
21
-3.3912
0
LINE
8
BLACK
6
CONTINUOUS
10
5.51402
20
-3.3912
11
5.51554
21
-3.38883
0
LINE
8
BLACK
6
CONTINUOUS
10
5.51554
20
-3.38883
11
5.51811
21
-3.38767
0
LINE
8
BLACK
6
CONTINUOUS
10
5.51811
20
-3.38767
11
5.52089
21
-3.38807
0
LINE
8
BLACK
6
CONTINUOUS
10
5.3104
20
-3.3464
11
5.31109
21
-3.3483
0
LINE
8
BLACK
6
CONTINUOUS
10
5.31109
20
-3.3483
11
5.31109
21
-3.34948
0
LINE
8
BLACK
6
CONTINUOUS
10
5.31109
20
-3.34948
11
5.31244
21
-3.35217
0
LINE
8
BLACK
6
CONTINUOUS
10
5.31244
20
-3.35217
11
5.31398
21
-3.35371
0
LINE
8
BLACK
6
CONTINUOUS
10
5.31398
20
-3.35371
11
5.31457
21
-3.35455
0
LINE
8
BLACK
6
CONTINUOUS
10
5.31457
20
-3.35455
11
5.31474
21
-3.35656
0
LINE
8
BLACK
6
CONTINUOUS
10
5.31474
20
-3.35656
11
5.31358
21
-3.35822
0
LINE
8
BLACK
6
CONTINUOUS
10
5.31358
20
-3.35822
11
5.31163
21
-3.35874
0
LINE
8
BLACK
6
CONTINUOUS
10
5.31163
20
-3.35874
11
5.3098
21
-3.35788
0
LINE
8
BLACK
6
CONTINUOUS
10
5.3098
20
-3.35788
11
5.30793
21
-3.35601
0
LINE
8
BLACK
6
CONTINUOUS
10
5.30793
20
-3.35601
11
5.30742
21
-3.35529
0
LINE
8
BLACK
6
CONTINUOUS
10
5.30742
20
-3.35529
11
5.30737
21
-3.35524
0
LINE
8
BLACK
6
CONTINUOUS
10
5.30737
20
-3.35524
11
5.3055
21
-3.35149
0
LINE
8
BLACK
6
CONTINUOUS
10
5.3055
20
-3.35149
11
5.30521
21
-3.35051
0
LINE
8
BLACK
6
CONTINUOUS
10
5.30521
20
-3.35051
11
5.30525
21
-3.35034
0
LINE
8
BLACK
6
CONTINUOUS
10
5.30525
20
-3.35034
11
5.30519
21
-3.35017
0
LINE
8
BLACK
6
CONTINUOUS
10
5.30519
20
-3.35017
11
5.30519
21
-3.3483
0
LINE
8
BLACK
6
CONTINUOUS
10
5.30519
20
-3.3483
11
5.30537
21
-3.34729
0
LINE
8
BLACK
6
CONTINUOUS
10
5.30537
20
-3.34729
11
5.30666
21
-3.34574
0
LINE
8
BLACK
6
CONTINUOUS
10
5.30666
20
-3.34574
11
5.30865
21
-3.34539
0
LINE
8
BLACK
6
CONTINUOUS
10
5.30865
20
-3.34539
11
5.3104
21
-3.3464
0
LINE
8
BLACK
6
CONTINUOUS
10
5.62161
20
-3.30792
11
5.62174
21
-3.30789
0
LINE
8
BLACK
6
CONTINUOUS
10
5.62174
20
-3.30789
11
5.62185
21
-3.30796
0
LINE
8
BLACK
6
CONTINUOUS
10
5.62185
20
-3.30796
11
5.62224
21
-3.30803
0
LINE
8
BLACK
6
CONTINUOUS
10
5.62224
20
-3.30803
11
5.62282
21
-3.30852
0
LINE
8
BLACK
6
CONTINUOUS
10
5.62282
20
-3.30852
11
5.62349
21
-3.3089
0
LINE
8
BLACK
6
CONTINUOUS
10
5.62349
20
-3.3089
11
5.62358
21
-3.30915
0
LINE
8
BLACK
6
CONTINUOUS
10
5.62358
20
-3.30915
11
5.62378
21
-3.30933
0
LINE
8
BLACK
6
CONTINUOUS
10
5.62378
20
-3.30933
11
5.62392
21
-3.31008
0
LINE
8
BLACK
6
CONTINUOUS
10
5.62392
20
-3.31008
11
5.62418
21
-3.3108
0
LINE
8
BLACK
6
CONTINUOUS
10
5.62418
20
-3.3108
11
5.62418
21
-3.35017
0
LINE
8
BLACK
6
CONTINUOUS
10
5.62418
20
-3.35017
11
5.62411
21
-3.35056
0
LINE
8
BLACK
6
CONTINUOUS
10
5.62411
20
-3.35056
11
5.62413
21
-3.35069
0
LINE
8
BLACK
6
CONTINUOUS
10
5.62413
20
-3.35069
11
5.62407
21
-3.3508
0
LINE
8
BLACK
6
CONTINUOUS
10
5.62407
20
-3.3508
11
5.624
21
-3.35118
0
LINE
8
BLACK
6
CONTINUOUS
10
5.624
20
-3.35118
11
5.62351
21
-3.35177
0
LINE
8
BLACK
6
CONTINUOUS
10
5.62351
20
-3.35177
11
5.62312
21
-3.35243
0
LINE
8
BLACK
6
CONTINUOUS
10
5.62312
20
-3.35243
11
5.62287
21
-3.35253
0
LINE
8
BLACK
6
CONTINUOUS
10
5.62287
20
-3.35253
11
5.6227
21
-3.35273
0
LINE
8
BLACK
6
CONTINUOUS
10
5.6227
20
-3.35273
11
5.62195
21
-3.35286
0
LINE
8
BLACK
6
CONTINUOUS
10
5.62195
20
-3.35286
11
5.62123
21
-3.35313
0
LINE
8
BLACK
6
CONTINUOUS
10
5.62123
20
-3.35313
11
5.60623
21
-3.35313
0
LINE
8
BLACK
6
CONTINUOUS
10
5.60623
20
-3.35313
11
5.60522
21
-3.35295
0
LINE
8
BLACK
6
CONTINUOUS
10
5.60522
20
-3.35295
11
5.60508
21
-3.35283
0
LINE
8
BLACK
6
CONTINUOUS
10
5.60508
20
-3.35283
11
5.60491
21
-3.35281
0
LINE
8
BLACK
6
CONTINUOUS
10
5.60491
20
-3.35281
11
5.60116
21
-3.35094
0
LINE
8
BLACK
6
CONTINUOUS
10
5.60116
20
-3.35094
11
5.60045
21
-3.35041
0
LINE
8
BLACK
6
CONTINUOUS
10
5.60045
20
-3.35041
11
5.60039
21
-3.35039
0
LINE
8
BLACK
6
CONTINUOUS
10
5.60039
20
-3.35039
11
5.59852
21
-3.34851
0
LINE
8
BLACK
6
CONTINUOUS
10
5.59852
20
-3.34851
11
5.59801
21
-3.34779
0
LINE
8
BLACK
6
CONTINUOUS
10
5.59801
20
-3.34779
11
5.59796
21
-3.34774
0
LINE
8
BLACK
6
CONTINUOUS
10
5.59796
20
-3.34774
11
5.59609
21
-3.34399
0
LINE
8
BLACK
6
CONTINUOUS
10
5.59609
20
-3.34399
11
5.5958
21
-3.34301
0
LINE
8
BLACK
6
CONTINUOUS
10
5.5958
20
-3.34301
11
5.59584
21
-3.34284
0
LINE
8
BLACK
6
CONTINUOUS
10
5.59584
20
-3.34284
11
5.59578
21
-3.34267
0
LINE
8
BLACK
6
CONTINUOUS
10
5.59578
20
-3.34267
11
5.59578
21
-3.33705
0
LINE
8
BLACK
6
CONTINUOUS
10
5.59578
20
-3.33705
11
5.59595
21
-3.33604
0
LINE
8
BLACK
6
CONTINUOUS
10
5.59595
20
-3.33604
11
5.59607
21
-3.3359
0
LINE
8
BLACK
6
CONTINUOUS
10
5.59607
20
-3.3359
11
5.59609
21
-3.33573
0
LINE
8
BLACK
6
CONTINUOUS
10
5.59609
20
-3.33573
11
5.59796
21
-3.33198
0
LINE
8
BLACK
6
CONTINUOUS
10
5.59796
20
-3.33198
11
5.59849
21
-3.33127
0
LINE
8
BLACK
6
CONTINUOUS
10
5.59849
20
-3.33127
11
5.59852
21
-3.33121
0
LINE
8
BLACK
6
CONTINUOUS
10
5.59852
20
-3.33121
11
5.60039
21
-3.32934
0
LINE
8
BLACK
6
CONTINUOUS
10
5.60039
20
-3.32934
11
5.60123
21
-3.32875
0
LINE
8
BLACK
6
CONTINUOUS
10
5.60123
20
-3.32875
11
5.60125
21
-3.32875
0
LINE
8
BLACK
6
CONTINUOUS
10
5.60125
20
-3.32875
11
5.60039
21
-3.32789
0
LINE
8
BLACK
6
CONTINUOUS
10
5.60039
20
-3.32789
11
5.59988
21
-3.32717
0
LINE
8
BLACK
6
CONTINUOUS
10
5.59988
20
-3.32717
11
5.59984
21
-3.32712
0
LINE
8
BLACK
6
CONTINUOUS
10
5.59984
20
-3.32712
11
5.59796
21
-3.32337
0
LINE
8
BLACK
6
CONTINUOUS
10
5.59796
20
-3.32337
11
5.59767
21
-3.32239
0
LINE
8
BLACK
6
CONTINUOUS
10
5.59767
20
-3.32239
11
5.59771
21
-3.32222
0
LINE
8
BLACK
6
CONTINUOUS
10
5.59771
20
-3.32222
11
5.59765
21
-3.32205
0
LINE
8
BLACK
6
CONTINUOUS
10
5.59765
20
-3.32205
11
5.59765
21
-3.3183
0
LINE
8
BLACK
6
CONTINUOUS
10
5.59765
20
-3.3183
11
5.59783
21
-3.31729
0
LINE
8
BLACK
6
CONTINUOUS
10
5.59783
20
-3.31729
11
5.59794
21
-3.31716
0
LINE
8
BLACK
6
CONTINUOUS
10
5.59794
20
-3.31716
11
5.59796
21
-3.31698
0
LINE
8
BLACK
6
CONTINUOUS
10
5.59796
20
-3.31698
11
5.59984
21
-3.31323
0
LINE
8
BLACK
6
CONTINUOUS
10
5.59984
20
-3.31323
11
5.60036
21
-3.31252
0
LINE
8
BLACK
6
CONTINUOUS
10
5.60036
20
-3.31252
11
5.60039
21
-3.31246
0
LINE
8
BLACK
6
CONTINUOUS
10
5.60039
20
-3.31246
11
5.60227
21
-3.31059
0
LINE
8
BLACK
6
CONTINUOUS
10
5.60227
20
-3.31059
11
5.60299
21
-3.31008
0
LINE
8
BLACK
6
CONTINUOUS
10
5.60299
20
-3.31008
11
5.60303
21
-3.31004
0
LINE
8
BLACK
6
CONTINUOUS
10
5.60303
20
-3.31004
11
5.60678
21
-3.30816
0
LINE
8
BLACK
6
CONTINUOUS
10
5.60678
20
-3.30816
11
5.60777
21
-3.30787
0
LINE
8
BLACK
6
CONTINUOUS
10
5.60777
20
-3.30787
11
5.60794
21
-3.30791
0
LINE
8
BLACK
6
CONTINUOUS
10
5.60794
20
-3.30791
11
5.6081
21
-3.30785
0
LINE
8
BLACK
6
CONTINUOUS
10
5.6081
20
-3.30785
11
5.62123
21
-3.30785
0
LINE
8
BLACK
6
CONTINUOUS
10
5.62123
20
-3.30785
11
5.62161
21
-3.30792
0
LINE
8
BLACK
6
CONTINUOUS
10
5.60858
20
-3.3325
11
5.60407
21
-3.33401
0
LINE
8
BLACK
6
CONTINUOUS
10
5.60407
20
-3.33401
11
5.60303
21
-3.33505
0
LINE
8
BLACK
6
CONTINUOUS
10
5.60303
20
-3.33505
11
5.60168
21
-3.33775
0
LINE
8
BLACK
6
CONTINUOUS
10
5.60168
20
-3.33775
11
5.60168
21
-3.34198
0
LINE
8
BLACK
6
CONTINUOUS
10
5.60168
20
-3.34198
11
5.60303
21
-3.34467
0
LINE
8
BLACK
6
CONTINUOUS
10
5.60303
20
-3.34467
11
5.60423
21
-3.34587
0
LINE
8
BLACK
6
CONTINUOUS
10
5.60423
20
-3.34587
11
5.60692
21
-3.34722
0
LINE
8
BLACK
6
CONTINUOUS
10
5.60692
20
-3.34722
11
5.61827
21
-3.34722
0
LINE
8
BLACK
6
CONTINUOUS
10
5.61827
20
-3.34722
11
5.61827
21
-3.3325
0
LINE
8
BLACK
6
CONTINUOUS
10
5.61827
20
-3.3325
11
5.60858
21
-3.3325
0
LINE
8
BLACK
6
CONTINUOUS
10
5.6088
20
-3.31376
11
5.6061
21
-3.3151
0
LINE
8
BLACK
6
CONTINUOUS
10
5.6061
20
-3.3151
11
5.60491
21
-3.3163
0
LINE
8
BLACK
6
CONTINUOUS
10
5.60491
20
-3.3163
11
5.60356
21
-3.319
0
LINE
8
BLACK
6
CONTINUOUS
10
5.60356
20
-3.319
11
5.60356
21
-3.32135
0
LINE
8
BLACK
6
CONTINUOUS
10
5.60356
20
-3.32135
11
5.60491
21
-3.32405
0
LINE
8
BLACK
6
CONTINUOUS
10
5.60491
20
-3.32405
11
5.6061
21
-3.32525
0
LINE
8
BLACK
6
CONTINUOUS
10
5.6061
20
-3.32525
11
5.6088
21
-3.3266
0
LINE
8
BLACK
6
CONTINUOUS
10
5.6088
20
-3.3266
11
5.61827
21
-3.3266
0
LINE
8
BLACK
6
CONTINUOUS
10
5.61827
20
-3.3266
11
5.61827
21
-3.31376
0
LINE
8
BLACK
6
CONTINUOUS
10
5.61827
20
-3.31376
11
5.6088
21
-3.31376
0
LINE
8
BLACK
6
CONTINUOUS
10
5.2829
20
-3.30803
11
5.28304
21
-3.30814
0
LINE
8
BLACK
6
CONTINUOUS
10
5.28304
20
-3.30814
11
5.28321
21
-3.30816
0
LINE
8
BLACK
6
CONTINUOUS
10
5.28321
20
-3.30816
11
5.28696
21
-3.31004
0
LINE
8
BLACK
6
CONTINUOUS
10
5.28696
20
-3.31004
11
5.28767
21
-3.31056
0
LINE
8
BLACK
6
CONTINUOUS
10
5.28767
20
-3.31056
11
5.28773
21
-3.31059
0
LINE
8
BLACK
6
CONTINUOUS
10
5.28773
20
-3.31059
11
5.28961
21
-3.31246
0
LINE
8
BLACK
6
CONTINUOUS
10
5.28961
20
-3.31246
11
5.28986
21
-3.31283
0
LINE
8
BLACK
6
CONTINUOUS
10
5.28986
20
-3.31283
11
5.28997
21
-3.31291
0
LINE
8
BLACK
6
CONTINUOUS
10
5.28997
20
-3.31291
11
5.29372
21
-3.31854
0
LINE
8
BLACK
6
CONTINUOUS
10
5.29372
20
-3.31854
11
5.29412
21
-3.31945
0
LINE
8
BLACK
6
CONTINUOUS
10
5.29412
20
-3.31945
11
5.29413
21
-3.31946
0
LINE
8
BLACK
6
CONTINUOUS
10
5.29413
20
-3.31946
11
5.29601
21
-3.32696
0
LINE
8
BLACK
6
CONTINUOUS
10
5.29601
20
-3.32696
11
5.29605
21
-3.32755
0
LINE
8
BLACK
6
CONTINUOUS
10
5.29605
20
-3.32755
11
5.29609
21
-3.32768
0
LINE
8
BLACK
6
CONTINUOUS
10
5.29609
20
-3.32768
11
5.29609
21
-3.34267
0
LINE
8
BLACK
6
CONTINUOUS
10
5.29609
20
-3.34267
11
5.29592
21
-3.34368
0
LINE
8
BLACK
6
CONTINUOUS
10
5.29592
20
-3.34368
11
5.2958
21
-3.34382
0
LINE
8
BLACK
6
CONTINUOUS
10
5.2958
20
-3.34382
11
5.29578
21
-3.34399
0
LINE
8
BLACK
6
CONTINUOUS
10
5.29578
20
-3.34399
11
5.29391
21
-3.34774
0
LINE
8
BLACK
6
CONTINUOUS
10
5.29391
20
-3.34774
11
5.29338
21
-3.34845
0
LINE
8
BLACK
6
CONTINUOUS
10
5.29338
20
-3.34845
11
5.29336
21
-3.34851
0
LINE
8
BLACK
6
CONTINUOUS
10
5.29336
20
-3.34851
11
5.29148
21
-3.35039
0
LINE
8
BLACK
6
CONTINUOUS
10
5.29148
20
-3.35039
11
5.29076
21
-3.35089
0
LINE
8
BLACK
6
CONTINUOUS
10
5.29076
20
-3.35089
11
5.29071
21
-3.35094
0
LINE
8
BLACK
6
CONTINUOUS
10
5.29071
20
-3.35094
11
5.28696
21
-3.35281
0
LINE
8
BLACK
6
CONTINUOUS
10
5.28696
20
-3.35281
11
5.28598
21
-3.35311
0
LINE
8
BLACK
6
CONTINUOUS
10
5.28598
20
-3.35311
11
5.28581
21
-3.35306
0
LINE
8
BLACK
6
CONTINUOUS
10
5.28581
20
-3.35306
11
5.28564
21
-3.35313
0
LINE
8
BLACK
6
CONTINUOUS
10
5.28564
20
-3.35313
11
5.27814
21
-3.35313
0
LINE
8
BLACK
6
CONTINUOUS
10
5.27814
20
-3.35313
11
5.27713
21
-3.35295
0
LINE
8
BLACK
6
CONTINUOUS
10
5.27713
20
-3.35295
11
5.277
21
-3.35283
0
LINE
8
BLACK
6
CONTINUOUS
10
5.277
20
-3.35283
11
5.27682
21
-3.35281
0
LINE
8
BLACK
6
CONTINUOUS
10
5.27682
20
-3.35281
11
5.27307
21
-3.35094
0
LINE
8
BLACK
6
CONTINUOUS
10
5.27307
20
-3.35094
11
5.27236
21
-3.35041
0
LINE
8
BLACK
6
CONTINUOUS
10
5.27236
20
-3.35041
11
5.27231
21
-3.35039
0
LINE
8
BLACK
6
CONTINUOUS
10
5.27231
20
-3.35039
11
5.27043
21
-3.34851
0
LINE
8
BLACK
6
CONTINUOUS
10
5.27043
20
-3.34851
11
5.26993
21
-3.34779
0
LINE
8
BLACK
6
CONTINUOUS
10
5.26993
20
-3.34779
11
5.26988
21
-3.34774
0
LINE
8
BLACK
6
CONTINUOUS
10
5.26988
20
-3.34774
11
5.268
21
-3.34399
0
LINE
8
BLACK
6
CONTINUOUS
10
5.268
20
-3.34399
11
5.26771
21
-3.34301
0
LINE
8
BLACK
6
CONTINUOUS
10
5.26771
20
-3.34301
11
5.26775
21
-3.34284
0
LINE
8
BLACK
6
CONTINUOUS
10
5.26775
20
-3.34284
11
5.26769
21
-3.34267
0
LINE
8
BLACK
6
CONTINUOUS
10
5.26769
20
-3.34267
11
5.26769
21
-3.3333
0
LINE
8
BLACK
6
CONTINUOUS
10
5.26769
20
-3.3333
11
5.26787
21
-3.33229
0
LINE
8
BLACK
6
CONTINUOUS
10
5.26787
20
-3.33229
11
5.26798
21
-3.33215
0
LINE
8
BLACK
6
CONTINUOUS
10
5.26798
20
-3.33215
11
5.268
21
-3.33198
0
LINE
8
BLACK
6
CONTINUOUS
10
5.268
20
-3.33198
11
5.26988
21
-3.32823
0
LINE
8
BLACK
6
CONTINUOUS
10
5.26988
20
-3.32823
11
5.2704
21
-3.32752
0
LINE
8
BLACK
6
CONTINUOUS
10
5.2704
20
-3.32752
11
5.27043
21
-3.32746
0
LINE
8
BLACK
6
CONTINUOUS
10
5.27043
20
-3.32746
11
5.27231
21
-3.32559
0
LINE
8
BLACK
6
CONTINUOUS
10
5.27231
20
-3.32559
11
5.27303
21
-3.32508
0
LINE
8
BLACK
6
CONTINUOUS
10
5.27303
20
-3.32508
11
5.27307
21
-3.32503
0
LINE
8
BLACK
6
CONTINUOUS
10
5.27307
20
-3.32503
11
5.27682
21
-3.32316
0
LINE
8
BLACK
6
CONTINUOUS
10
5.27682
20
-3.32316
11
5.27781
21
-3.32287
0
LINE
8
BLACK
6
CONTINUOUS
10
5.27781
20
-3.32287
11
5.27798
21
-3.32291
0
LINE
8
BLACK
6
CONTINUOUS
10
5.27798
20
-3.32291
11
5.27814
21
-3.32285
0
LINE
8
BLACK
6
CONTINUOUS
10
5.27814
20
-3.32285
11
5.28564
21
-3.32285
0
LINE
8
BLACK
6
CONTINUOUS
10
5.28564
20
-3.32285
11
5.28665
21
-3.32303
0
LINE
8
BLACK
6
CONTINUOUS
10
5.28665
20
-3.32303
11
5.28679
21
-3.32314
0
LINE
8
BLACK
6
CONTINUOUS
10
5.28679
20
-3.32314
11
5.28696
21
-3.32316
0
LINE
8
BLACK
6
CONTINUOUS
10
5.28696
20
-3.32316
11
5.28926
21
-3.32431
0
LINE
8
BLACK
6
CONTINUOUS
10
5.28926
20
-3.32431
11
5.28853
21
-3.32139
0
LINE
8
BLACK
6
CONTINUOUS
10
5.28853
20
-3.32139
11
5.28522
21
-3.31643
0
LINE
8
BLACK
6
CONTINUOUS
10
5.28522
20
-3.31643
11
5.28389
21
-3.3151
0
LINE
8
BLACK
6
CONTINUOUS
10
5.28389
20
-3.3151
11
5.2812
21
-3.31376
0
LINE
8
BLACK
6
CONTINUOUS
10
5.2812
20
-3.31376
11
5.27439
21
-3.31376
0
LINE
8
BLACK
6
CONTINUOUS
10
5.27439
20
-3.31376
11
5.27338
21
-3.31358
0
LINE
8
BLACK
6
CONTINUOUS
10
5.27338
20
-3.31358
11
5.27184
21
-3.31228
0
LINE
8
BLACK
6
CONTINUOUS
10
5.27184
20
-3.31228
11
5.27149
21
-3.31029
0
LINE
8
BLACK
6
CONTINUOUS
10
5.27149
20
-3.31029
11
5.2725
21
-3.30854
0
LINE
8
BLACK
6
CONTINUOUS
10
5.2725
20
-3.30854
11
5.27439
21
-3.30785
0
LINE
8
BLACK
6
CONTINUOUS
10
5.27439
20
-3.30785
11
5.28189
21
-3.30785
0
LINE
8
BLACK
6
CONTINUOUS
10
5.28189
20
-3.30785
11
5.2829
21
-3.30803
0
LINE
8
BLACK
6
CONTINUOUS
10
5.27884
20
-3.32875
11
5.27614
21
-3.3301
0
LINE
8
BLACK
6
CONTINUOUS
10
5.27614
20
-3.3301
11
5.27495
21
-3.3313
0
LINE
8
BLACK
6
CONTINUOUS
10
5.27495
20
-3.3313
11
5.2736
21
-3.334
0
LINE
8
BLACK
6
CONTINUOUS
10
5.2736
20
-3.334
11
5.2736
21
-3.34198
0
LINE
8
BLACK
6
CONTINUOUS
10
5.2736
20
-3.34198
11
5.27495
21
-3.34467
0
LINE
8
BLACK
6
CONTINUOUS
10
5.27495
20
-3.34467
11
5.27614
21
-3.34587
0
LINE
8
BLACK
6
CONTINUOUS
10
5.27614
20
-3.34587
11
5.27884
21
-3.34722
0
LINE
8
BLACK
6
CONTINUOUS
10
5.27884
20
-3.34722
11
5.28495
21
-3.34722
0
LINE
8
BLACK
6
CONTINUOUS
10
5.28495
20
-3.34722
11
5.28764
21
-3.34587
0
LINE
8
BLACK
6
CONTINUOUS
10
5.28764
20
-3.34587
11
5.28884
21
-3.34467
0
LINE
8
BLACK
6
CONTINUOUS
10
5.28884
20
-3.34467
11
5.29019
21
-3.34198
0
LINE
8
BLACK
6
CONTINUOUS
10
5.29019
20
-3.34198
11
5.29019
21
-3.334
0
LINE
8
BLACK
6
CONTINUOUS
10
5.29019
20
-3.334
11
5.28884
21
-3.3313
0
LINE
8
BLACK
6
CONTINUOUS
10
5.28884
20
-3.3313
11
5.28764
21
-3.3301
0
LINE
8
BLACK
6
CONTINUOUS
10
5.28764
20
-3.3301
11
5.28495
21
-3.32875
0
LINE
8
BLACK
6
CONTINUOUS
10
5.28495
20
-3.32875
11
5.27884
21
-3.32875
0
LINE
8
BLACK
6
CONTINUOUS
10
5.34766
20
-3.30788
11
5.34773
21
-3.30786
0
LINE
8
BLACK
6
CONTINUOUS
10
5.34773
20
-3.30786
11
5.34784
21
-3.30791
0
LINE
8
BLACK
6
CONTINUOUS
10
5.34784
20
-3.30791
11
5.34852
21
-3.30803
0
LINE
8
BLACK
6
CONTINUOUS
10
5.34852
20
-3.30803
11
5.349
21
-3.30843
0
LINE
8
BLACK
6
CONTINUOUS
10
5.349
20
-3.30843
11
5.34957
21
-3.30869
0
LINE
8
BLACK
6
CONTINUOUS
10
5.34957
20
-3.30869
11
5.34975
21
-3.30906
0
LINE
8
BLACK
6
CONTINUOUS
10
5.34975
20
-3.30906
11
5.35007
21
-3.30933
0
LINE
8
BLACK
6
CONTINUOUS
10
5.35007
20
-3.30933
11
5.35018
21
-3.30994
0
LINE
8
BLACK
6
CONTINUOUS
10
5.35018
20
-3.30994
11
5.35045
21
-3.31051
0
LINE
8
BLACK
6
CONTINUOUS
10
5.35045
20
-3.31051
11
5.35232
21
-3.32926
0
LINE
8
BLACK
6
CONTINUOUS
10
5.35232
20
-3.32926
11
5.35225
21
-3.33028
0
LINE
8
BLACK
6
CONTINUOUS
10
5.35225
20
-3.33028
11
5.35224
21
-3.33029
0
LINE
8
BLACK
6
CONTINUOUS
10
5.35224
20
-3.33029
11
5.35224
21
-3.33031
0
LINE
8
BLACK
6
CONTINUOUS
10
5.35224
20
-3.33031
11
5.35167
21
-3.33113
0
LINE
8
BLACK
6
CONTINUOUS
10
5.35167
20
-3.33113
11
5.35111
21
-3.33195
0
LINE
8
BLACK
6
CONTINUOUS
10
5.35111
20
-3.33195
11
5.35109
21
-3.33195
0
LINE
8
BLACK
6
CONTINUOUS
10
5.35109
20
-3.33195
11
5.35108
21
-3.33197
0
LINE
8
BLACK
6
CONTINUOUS
10
5.35108
20
-3.33197
11
5.35012
21
-3.33223
0
LINE
8
BLACK
6
CONTINUOUS
10
5.35012
20
-3.33223
11
5.34916
21
-3.33249
0
LINE
8
BLACK
6
CONTINUOUS
10
5.34916
20
-3.33249
11
5.34915
21
-3.33249
0
LINE
8
BLACK
6
CONTINUOUS
10
5.34915
20
-3.33249
11
5.34913
21
-3.33249
0
LINE
8
BLACK
6
CONTINUOUS
10
5.34913
20
-3.33249
11
5.34823
21
-3.33207
0
LINE
8
BLACK
6
CONTINUOUS
10
5.34823
20
-3.33207
11
5.34732
21
-3.33166
0
LINE
8
BLACK
6
CONTINUOUS
10
5.34732
20
-3.33166
11
5.34731
21
-3.33165
0
LINE
8
BLACK
6
CONTINUOUS
10
5.34731
20
-3.33165
11
5.3473
21
-3.33164
0
LINE
8
BLACK
6
CONTINUOUS
10
5.3473
20
-3.33164
11
5.34576
21
-3.3301
0
LINE
8
BLACK
6
CONTINUOUS
10
5.34576
20
-3.3301
11
5.34306
21
-3.32875
0
LINE
8
BLACK
6
CONTINUOUS
10
5.34306
20
-3.32875
11
5.33508
21
-3.32875
0
LINE
8
BLACK
6
CONTINUOUS
10
5.33508
20
-3.32875
11
5.33239
21
-3.3301
0
LINE
8
BLACK
6
CONTINUOUS
10
5.33239
20
-3.3301
11
5.33119
21
-3.3313
0
LINE
8
BLACK
6
CONTINUOUS
10
5.33119
20
-3.3313
11
5.32984
21
-3.334
0
LINE
8
BLACK
6
CONTINUOUS
10
5.32984
20
-3.334
11
5.32984
21
-3.34198
0
LINE
8
BLACK
6
CONTINUOUS
10
5.32984
20
-3.34198
11
5.33119
21
-3.34467
0
LINE
8
BLACK
6
CONTINUOUS
10
5.33119
20
-3.34467
11
5.33239
21
-3.34587
0
LINE
8
BLACK
6
CONTINUOUS
10
5.33239
20
-3.34587
11
5.33508
21
-3.34722
0
LINE
8
BLACK
6
CONTINUOUS
10
5.33508
20
-3.34722
11
5.34306
21
-3.34722
0
LINE
8
BLACK
6
CONTINUOUS
10
5.34306
20
-3.34722
11
5.34576
21
-3.34587
0
LINE
8
BLACK
6
CONTINUOUS
10
5.34576
20
-3.34587
11
5.3473
21
-3.34434
0
LINE
8
BLACK
6
CONTINUOUS
10
5.3473
20
-3.34434
11
5.34814
21
-3.34375
0
LINE
8
BLACK
6
CONTINUOUS
10
5.34814
20
-3.34375
11
5.35015
21
-3.34357
0
LINE
8
BLACK
6
CONTINUOUS
10
5.35015
20
-3.34357
11
5.3518
21
-3.34473
0
LINE
8
BLACK
6
CONTINUOUS
10
5.3518
20
-3.34473
11
5.35233
21
-3.34668
0
LINE
8
BLACK
6
CONTINUOUS
10
5.35233
20
-3.34668
11
5.35147
21
-3.34851
0
LINE
8
BLACK
6
CONTINUOUS
10
5.35147
20
-3.34851
11
5.3496
21
-3.35039
0
LINE
8
BLACK
6
CONTINUOUS
10
5.3496
20
-3.35039
11
5.34888
21
-3.35089
0
LINE
8
BLACK
6
CONTINUOUS
10
5.34888
20
-3.35089
11
5.34883
21
-3.35094
0
LINE
8
BLACK
6
CONTINUOUS
10
5.34883
20
-3.35094
11
5.34508
21
-3.35281
0
LINE
8
BLACK
6
CONTINUOUS
10
5.34508
20
-3.35281
11
5.3441
21
-3.35311
0
LINE
8
BLACK
6
CONTINUOUS
10
5.3441
20
-3.35311
11
5.34393
21
-3.35306
0
LINE
8
BLACK
6
CONTINUOUS
10
5.34393
20
-3.35306
11
5.34376
21
-3.35313
0
LINE
8
BLACK
6
CONTINUOUS
10
5.34376
20
-3.35313
11
5.33439
21
-3.35313
0
LINE
8
BLACK
6
CONTINUOUS
10
5.33439
20
-3.35313
11
5.33338
21
-3.35295
0
LINE
8
BLACK
6
CONTINUOUS
10
5.33338
20
-3.35295
11
5.33324
21
-3.35283
0
LINE
8
BLACK
6
CONTINUOUS
10
5.33324
20
-3.35283
11
5.33307
21
-3.35281
0
LINE
8
BLACK
6
CONTINUOUS
10
5.33307
20
-3.35281
11
5.32932
21
-3.35094
0
LINE
8
BLACK
6
CONTINUOUS
10
5.32932
20
-3.35094
11
5.32861
21
-3.35041
0
LINE
8
BLACK
6
CONTINUOUS
10
5.32861
20
-3.35041
11
5.32855
21
-3.35039
0
LINE
8
BLACK
6
CONTINUOUS
10
5.32855
20
-3.35039
11
5.32667
21
-3.34851
0
LINE
8
BLACK
6
CONTINUOUS
10
5.32667
20
-3.34851
11
5.32617
21
-3.34779
0
LINE
8
BLACK
6
CONTINUOUS
10
5.32617
20
-3.34779
11
5.32612
21
-3.34774
0
LINE
8
BLACK
6
CONTINUOUS
10
5.32612
20
-3.34774
11
5.32425
21
-3.34399
0
LINE
8
BLACK
6
CONTINUOUS
10
5.32425
20
-3.34399
11
5.32395
21
-3.34301
0
LINE
8
BLACK
6
CONTINUOUS
10
5.32395
20
-3.34301
11
5.324
21
-3.34284
0
LINE
8
BLACK
6
CONTINUOUS
10
5.324
20
-3.34284
11
5.32394
21
-3.34267
0
LINE
8
BLACK
6
CONTINUOUS
10
5.32394
20
-3.34267
11
5.32394
21
-3.3333
0
LINE
8
BLACK
6
CONTINUOUS
10
5.32394
20
-3.3333
11
5.32411
21
-3.33229
0
LINE
8
BLACK
6
CONTINUOUS
10
5.32411
20
-3.33229
11
5.32423
21
-3.33215
0
LINE
8
BLACK
6
CONTINUOUS
10
5.32423
20
-3.33215
11
5.32425
21
-3.33198
0
LINE
8
BLACK
6
CONTINUOUS
10
5.32425
20
-3.33198
11
5.32612
21
-3.32823
0
LINE
8
BLACK
6
CONTINUOUS
10
5.32612
20
-3.32823
11
5.32665
21
-3.32752
0
LINE
8
BLACK
6
CONTINUOUS
10
5.32665
20
-3.32752
11
5.32667
21
-3.32746
0
LINE
8
BLACK
6
CONTINUOUS
10
5.32667
20
-3.32746
11
5.32855
21
-3.32559
0
LINE
8
BLACK
6
CONTINUOUS
10
5.32855
20
-3.32559
11
5.32927
21
-3.32508
0
LINE
8
BLACK
6
CONTINUOUS
10
5.32927
20
-3.32508
11
5.32932
21
-3.32503
0
LINE
8
BLACK
6
CONTINUOUS
10
5.32932
20
-3.32503
11
5.33307
21
-3.32316
0
LINE
8
BLACK
6
CONTINUOUS
10
5.33307
20
-3.32316
11
5.33405
21
-3.32287
0
LINE
8
BLACK
6
CONTINUOUS
10
5.33405
20
-3.32287
11
5.33422
21
-3.32291
0
LINE
8
BLACK
6
CONTINUOUS
10
5.33422
20
-3.32291
11
5.33439
21
-3.32285
0
LINE
8
BLACK
6
CONTINUOUS
10
5.33439
20
-3.32285
11
5.34376
21
-3.32285
0
LINE
8
BLACK
6
CONTINUOUS
10
5.34376
20
-3.32285
11
5.34477
21
-3.32303
0
LINE
8
BLACK
6
CONTINUOUS
10
5.34477
20
-3.32303
11
5.34491
21
-3.32314
0
LINE
8
BLACK
6
CONTINUOUS
10
5.34491
20
-3.32314
11
5.34508
21
-3.32316
0
LINE
8
BLACK
6
CONTINUOUS
10
5.34508
20
-3.32316
11
5.34582
21
-3.32353
0
LINE
8
BLACK
6
CONTINUOUS
10
5.34582
20
-3.32353
11
5.34484
21
-3.31376
0
LINE
8
BLACK
6
CONTINUOUS
10
5.34484
20
-3.31376
11
5.32876
21
-3.31376
0
LINE
8
BLACK
6
CONTINUOUS
10
5.32876
20
-3.31376
11
5.32775
21
-3.31358
0
LINE
8
BLACK
6
CONTINUOUS
10
5.32775
20
-3.31358
11
5.32621
21
-3.31228
0
LINE
8
BLACK
6
CONTINUOUS
10
5.32621
20
-3.31228
11
5.32585
21
-3.31029
0
LINE
8
BLACK
6
CONTINUOUS
10
5.32585
20
-3.31029
11
5.32686
21
-3.30854
0
LINE
8
BLACK
6
CONTINUOUS
10
5.32686
20
-3.30854
11
5.32876
21
-3.30785
0
LINE
8
BLACK
6
CONTINUOUS
10
5.32876
20
-3.30785
11
5.34751
21
-3.30785
0
LINE
8
BLACK
6
CONTINUOUS
10
5.34751
20
-3.30785
11
5.34766
21
-3.30788
0
LINE
8
BLACK
6
CONTINUOUS
10
5.2347
20
-3.30829
11
5.23595
21
-3.30987
0
LINE
8
BLACK
6
CONTINUOUS
10
5.23595
20
-3.30987
11
5.24627
21
-3.34084
0
LINE
8
BLACK
6
CONTINUOUS
10
5.24627
20
-3.34084
11
5.2566
21
-3.30987
0
LINE
8
BLACK
6
CONTINUOUS
10
5.2566
20
-3.30987
11
5.25708
21
-3.30897
0
LINE
8
BLACK
6
CONTINUOUS
10
5.25708
20
-3.30897
11
5.2588
21
-3.30791
0
LINE
8
BLACK
6
CONTINUOUS
10
5.2588
20
-3.30791
11
5.2608
21
-3.30821
0
LINE
8
BLACK
6
CONTINUOUS
10
5.2608
20
-3.30821
11
5.26214
21
-3.30972
0
LINE
8
BLACK
6
CONTINUOUS
10
5.26214
20
-3.30972
11
5.2622
21
-3.31174
0
LINE
8
BLACK
6
CONTINUOUS
10
5.2622
20
-3.31174
11
5.24907
21
-3.35111
0
LINE
8
BLACK
6
CONTINUOUS
10
5.24907
20
-3.35111
11
5.24859
21
-3.35201
0
LINE
8
BLACK
6
CONTINUOUS
10
5.24859
20
-3.35201
11
5.24851
21
-3.35205
0
LINE
8
BLACK
6
CONTINUOUS
10
5.24851
20
-3.35205
11
5.24848
21
-3.35213
0
LINE
8
BLACK
6
CONTINUOUS
10
5.24848
20
-3.35213
11
5.24766
21
-3.35258
0
LINE
8
BLACK
6
CONTINUOUS
10
5.24766
20
-3.35258
11
5.24686
21
-3.35307
0
LINE
8
BLACK
6
CONTINUOUS
10
5.24686
20
-3.35307
11
5.24678
21
-3.35305
0
LINE
8
BLACK
6
CONTINUOUS
10
5.24678
20
-3.35305
11
5.24671
21
-3.35309
0
LINE
8
BLACK
6
CONTINUOUS
10
5.24671
20
-3.35309
11
5.24579
21
-3.35291
0
LINE
8
BLACK
6
CONTINUOUS
10
5.24579
20
-3.35291
11
5.24487
21
-3.35277
0
LINE
8
BLACK
6
CONTINUOUS
10
5.24487
20
-3.35277
11
5.24481
21
-3.35271
0
LINE
8
BLACK
6
CONTINUOUS
10
5.24481
20
-3.35271
11
5.24473
21
-3.35269
0
LINE
8
BLACK
6
CONTINUOUS
10
5.24473
20
-3.35269
11
5.24415
21
-3.35196
0
LINE
8
BLACK
6
CONTINUOUS
10
5.24415
20
-3.35196
11
5.24353
21
-3.35126
0
LINE
8
BLACK
6
CONTINUOUS
10
5.24353
20
-3.35126
11
5.24352
21
-3.35117
0
LINE
8
BLACK
6
CONTINUOUS
10
5.24352
20
-3.35117
11
5.24347
21
-3.35111
0
LINE
8
BLACK
6
CONTINUOUS
10
5.24347
20
-3.35111
11
5.23035
21
-3.31174
0
LINE
8
BLACK
6
CONTINUOUS
10
5.23035
20
-3.31174
11
5.2302
21
-3.31072
0
LINE
8
BLACK
6
CONTINUOUS
10
5.2302
20
-3.31072
11
5.23094
21
-3.30884
0
LINE
8
BLACK
6
CONTINUOUS
10
5.23094
20
-3.30884
11
5.23272
21
-3.30788
0
LINE
8
BLACK
6
CONTINUOUS
10
5.23272
20
-3.30788
11
5.2347
21
-3.30829
0
LINE
8
BLACK
6
CONTINUOUS
10
5.33806
20
-3.29045
11
5.33748
21
-3.28906
0
LINE
8
BLACK
6
CONTINUOUS
10
5.33748
20
-3.28906
11
5.33748
21
-3.17094
0
LINE
8
BLACK
6
CONTINUOUS
10
5.33748
20
-3.17094
11
5.33806
21
-3.16955
0
LINE
8
BLACK
6
CONTINUOUS
10
5.33806
20
-3.16955
11
5.33945
21
-3.16898
0
LINE
8
BLACK
6
CONTINUOUS
10
5.33945
20
-3.16898
11
5.52055
21
-3.16898
0
LINE
8
BLACK
6
CONTINUOUS
10
5.52055
20
-3.16898
11
5.52194
21
-3.16955
0
LINE
8
BLACK
6
CONTINUOUS
10
5.52194
20
-3.16955
11
5.52252
21
-3.17094
0
LINE
8
BLACK
6
CONTINUOUS
10
5.52252
20
-3.17094
11
5.52252
21
-3.28906
0
LINE
8
BLACK
6
CONTINUOUS
10
5.52252
20
-3.28906
11
5.52194
21
-3.29045
0
LINE
8
BLACK
6
CONTINUOUS
10
5.52194
20
-3.29045
11
5.52055
21
-3.29102
0
LINE
8
BLACK
6
CONTINUOUS
10
5.52055
20
-3.29102
11
5.33945
21
-3.29102
0
LINE
8
BLACK
6
CONTINUOUS
10
5.33945
20
-3.29102
11
5.33806
21
-3.29045
0
LINE
8
BLACK
6
CONTINUOUS
10
5.34142
20
-3.17291
11
5.34142
21
-3.28709
0
LINE
8
BLACK
6
CONTINUOUS
10
5.34142
20
-3.28709
11
5.51858
21
-3.28709
0
LINE
8
BLACK
6
CONTINUOUS
10
5.51858
20
-3.28709
11
5.51858
21
-3.17291
0
LINE
8
BLACK
6
CONTINUOUS
10
5.51858
20
-3.17291
11
5.34142
21
-3.17291
0
LINE
8
BLACK
6
CONTINUOUS
10
5.45696
20
-3.19715
11
5.45754
21
-3.19854
0
LINE
8
BLACK
6
CONTINUOUS
10
5.45754
20
-3.19854
11
5.45754
21
-3.22807
0
LINE
8
BLACK
6
CONTINUOUS
10
5.45754
20
-3.22807
11
5.49107
21
-3.22807
0
LINE
8
BLACK
6
CONTINUOUS
10
5.49107
20
-3.22807
11
5.49246
21
-3.22865
0
LINE
8
BLACK
6
CONTINUOUS
10
5.49246
20
-3.22865
11
5.49304
21
-3.23004
0
LINE
8
BLACK
6
CONTINUOUS
10
5.49304
20
-3.23004
11
5.49246
21
-3.23143
0
LINE
8
BLACK
6
CONTINUOUS
10
5.49246
20
-3.23143
11
5.49107
21
-3.23201
0
LINE
8
BLACK
6
CONTINUOUS
10
5.49107
20
-3.23201
11
5.45754
21
-3.23201
0
LINE
8
BLACK
6
CONTINUOUS
10
5.45754
20
-3.23201
11
5.45754
21
-3.26154
0
LINE
8
BLACK
6
CONTINUOUS
10
5.45754
20
-3.26154
11
5.45696
21
-3.26293
0
LINE
8
BLACK
6
CONTINUOUS
10
5.45696
20
-3.26293
11
5.45557
21
-3.26351
0
LINE
8
BLACK
6
CONTINUOUS
10
5.45557
20
-3.26351
11
5.45418
21
-3.26293
0
LINE
8
BLACK
6
CONTINUOUS
10
5.45418
20
-3.26293
11
5.4536
21
-3.26154
0
LINE
8
BLACK
6
CONTINUOUS
10
5.4536
20
-3.26154
11
5.4536
21
-3.23367
0
LINE
8
BLACK
6
CONTINUOUS
10
5.4536
20
-3.23367
11
5.41134
21
-3.26119
0
LINE
8
BLACK
6
CONTINUOUS
10
5.41134
20
-3.26119
11
5.41079
21
-3.26129
0
LINE
8
BLACK
6
CONTINUOUS
10
5.41079
20
-3.26129
11
5.41027
21
-3.26151
0
LINE
8
BLACK
6
CONTINUOUS
10
5.41027
20
-3.26151
11
5.41007
21
-3.26143
0
LINE
8
BLACK
6
CONTINUOUS
10
5.41007
20
-3.26143
11
5.40986
21
-3.26147
0
LINE
8
BLACK
6
CONTINUOUS
10
5.40986
20
-3.26147
11
5.4094
21
-3.26115
0
LINE
8
BLACK
6
CONTINUOUS
10
5.4094
20
-3.26115
11
5.40888
21
-3.26093
0
LINE
8
BLACK
6
CONTINUOUS
10
5.40888
20
-3.26093
11
5.40879
21
-3.26073
0
LINE
8
BLACK
6
CONTINUOUS
10
5.40879
20
-3.26073
11
5.40862
21
-3.26061
0
LINE
8
BLACK
6
CONTINUOUS
10
5.40862
20
-3.26061
11
5.40852
21
-3.26006
0
LINE
8
BLACK
6
CONTINUOUS
10
5.40852
20
-3.26006
11
5.4083
21
-3.25954
0
LINE
8
BLACK
6
CONTINUOUS
10
5.4083
20
-3.25954
11
5.4083
21
-3.23201
0
LINE
8
BLACK
6
CONTINUOUS
10
5.4083
20
-3.23201
11
5.37097
21
-3.23201
0
LINE
8
BLACK
6
CONTINUOUS
10
5.37097
20
-3.23201
11
5.36958
21
-3.23143
0
LINE
8
BLACK
6
CONTINUOUS
10
5.36958
20
-3.23143
11
5.369
21
-3.23004
0
LINE
8
BLACK
6
CONTINUOUS
10
5.369
20
-3.23004
11
5.36958
21
-3.22865
0
LINE
8
BLACK
6
CONTINUOUS
10
5.36958
20
-3.22865
11
5.37097
21
-3.22807
0
LINE
8
BLACK
6
CONTINUOUS
10
5.37097
20
-3.22807
11
5.4083
21
-3.22807
0
LINE
8
BLACK
6
CONTINUOUS
10
5.4083
20
-3.22807
11
5.4083
21
-3.19854
0
LINE
8
BLACK
6
CONTINUOUS
10
5.4083
20
-3.19854
11
5.40853
21
-3.19799
0
LINE
8
BLACK
6
CONTINUOUS
10
5.40853
20
-3.19799
11
5.40865
21
-3.19742
0
LINE
8
BLACK
6
CONTINUOUS
10
5.40865
20
-3.19742
11
5.40881
21
-3.19732
0
LINE
8
BLACK
6
CONTINUOUS
10
5.40881
20
-3.19732
11
5.40888
21
-3.19715
0
LINE
8
BLACK
6
CONTINUOUS
10
5.40888
20
-3.19715
11
5.40942
21
-3.19692
0
LINE
8
BLACK
6
CONTINUOUS
10
5.40942
20
-3.19692
11
5.40992
21
-3.1966
0
LINE
8
BLACK
6
CONTINUOUS
10
5.40992
20
-3.1966
11
5.4101
21
-3.19664
0
LINE
8
BLACK
6
CONTINUOUS
10
5.4101
20
-3.19664
11
5.41027
21
-3.19657
0
LINE
8
BLACK
6
CONTINUOUS
10
5.41027
20
-3.19657
11
5.41081
21
-3.1968
0
LINE
8
BLACK
6
CONTINUOUS
10
5.41081
20
-3.1968
11
5.41139
21
-3.19692
0
LINE
8
BLACK
6
CONTINUOUS
10
5.41139
20
-3.19692
11
5.4536
21
-3.22627
0
LINE
8
BLACK
6
CONTINUOUS
10
5.4536
20
-3.22627
11
5.4536
21
-3.19854
0
LINE
8
BLACK
6
CONTINUOUS
10
5.4536
20
-3.19854
11
5.45418
21
-3.19715
0
LINE
8
BLACK
6
CONTINUOUS
10
5.45418
20
-3.19715
11
5.45557
21
-3.19657
0
LINE
8
BLACK
6
CONTINUOUS
10
5.45557
20
-3.19657
11
5.45696
21
-3.19715
0
LINE
8
BLACK
6
CONTINUOUS
10
5.41224
20
-3.25591
11
5.45204
21
-3.22999
0
LINE
8
BLACK
6
CONTINUOUS
10
5.45204
20
-3.22999
11
5.41224
21
-3.20231
0
LINE
8
BLACK
6
CONTINUOUS
10
5.41224
20
-3.20231
11
5.41224
21
-3.25591
0
LINE
8
BLACK
6
CONTINUOUS
10
5.41097
20
-3.10719
11
5.41114
21
-3.10718
0
LINE
8
BLACK
6
CONTINUOUS
10
5.41114
20
-3.10718
11
5.41183
21
-3.10769
0
LINE
8
BLACK
6
CONTINUOUS
10
5.41183
20
-3.10769
11
5.41258
21
-3.10812
0
LINE
8
BLACK
6
CONTINUOUS
10
5.41258
20
-3.10812
11
5.41263
21
-3.10828
0
LINE
8
BLACK
6
CONTINUOUS
10
5.41263
20
-3.10828
11
5.41277
21
-3.10838
0
LINE
8
BLACK
6
CONTINUOUS
10
5.41277
20
-3.10838
11
5.41636
21
-3.11376
0
LINE
8
BLACK
6
CONTINUOUS
10
5.41636
20
-3.11376
11
5.41956
21
-3.11696
0
LINE
8
BLACK
6
CONTINUOUS
10
5.41956
20
-3.11696
11
5.42288
21
-3.11862
0
LINE
8
BLACK
6
CONTINUOUS
10
5.42288
20
-3.11862
11
5.42371
21
-3.11923
0
LINE
8
BLACK
6
CONTINUOUS
10
5.42371
20
-3.11923
11
5.42451
21
-3.12109
0
LINE
8
BLACK
6
CONTINUOUS
10
5.42451
20
-3.12109
11
5.42394
21
-3.12302
0
LINE
8
BLACK
6
CONTINUOUS
10
5.42394
20
-3.12302
11
5.42225
21
-3.12414
0
LINE
8
BLACK
6
CONTINUOUS
10
5.42225
20
-3.12414
11
5.42024
21
-3.1239
0
LINE
8
BLACK
6
CONTINUOUS
10
5.42024
20
-3.1239
11
5.41649
21
-3.12203
0
LINE
8
BLACK
6
CONTINUOUS
10
5.41649
20
-3.12203
11
5.41578
21
-3.1215
0
LINE
8
BLACK
6
CONTINUOUS
10
5.41578
20
-3.1215
11
5.41573
21
-3.12148
0
LINE
8
BLACK
6
CONTINUOUS
10
5.41573
20
-3.12148
11
5.41327
21
-3.11902
0
LINE
8
BLACK
6
CONTINUOUS
10
5.41327
20
-3.11902
11
5.41327
21
-3.14643
0
LINE
8
BLACK
6
CONTINUOUS
10
5.41327
20
-3.14643
11
5.42156
21
-3.14643
0
LINE
8
BLACK
6
CONTINUOUS
10
5.42156
20
-3.14643
11
5.42257
21
-3.14661
0
LINE
8
BLACK
6
CONTINUOUS
10
5.42257
20
-3.14661
11
5.42412
21
-3.14791
0
LINE
8
BLACK
6
CONTINUOUS
10
5.42412
20
-3.14791
11
5.42447
21
-3.1499
0
LINE
8
BLACK
6
CONTINUOUS
10
5.42447
20
-3.1499
11
5.42346
21
-3.15165
0
LINE
8
BLACK
6
CONTINUOUS
10
5.42346
20
-3.15165
11
5.42156
21
-3.15234
0
LINE
8
BLACK
6
CONTINUOUS
10
5.42156
20
-3.15234
11
5.39907
21
-3.15234
0
LINE
8
BLACK
6
CONTINUOUS
10
5.39907
20
-3.15234
11
5.39806
21
-3.15216
0
LINE
8
BLACK
6
CONTINUOUS
10
5.39806
20
-3.15216
11
5.39651
21
-3.15086
0
LINE
8
BLACK
6
CONTINUOUS
10
5.39651
20
-3.15086
11
5.39616
21
-3.14887
0
LINE
8
BLACK
6
CONTINUOUS
10
5.39616
20
-3.14887
11
5.39717
21
-3.14712
0
LINE
8
BLACK
6
CONTINUOUS
10
5.39717
20
-3.14712
11
5.39907
21
-3.14643
0
LINE
8
BLACK
6
CONTINUOUS
10
5.39907
20
-3.14643
11
5.40736
21
-3.14643
0
LINE
8
BLACK
6
CONTINUOUS
10
5.40736
20
-3.14643
11
5.40736
21
-3.11001
0
LINE
8
BLACK
6
CONTINUOUS
10
5.40736
20
-3.11001
11
5.40754
21
-3.10901
0
LINE
8
BLACK
6
CONTINUOUS
10
5.40754
20
-3.10901
11
5.40765
21
-3.10887
0
LINE
8
BLACK
6
CONTINUOUS
10
5.40765
20
-3.10887
11
5.40767
21
-3.10871
0
LINE
8
BLACK
6
CONTINUOUS
10
5.40767
20
-3.10871
11
5.40829
21
-3.10811
0
LINE
8
BLACK
6
CONTINUOUS
10
5.40829
20
-3.10811
11
5.40884
21
-3.10746
0
LINE
8
BLACK
6
CONTINUOUS
10
5.40884
20
-3.10746
11
5.40901
21
-3.10743
0
LINE
8
BLACK
6
CONTINUOUS
10
5.40901
20
-3.10743
11
5.40913
21
-3.10731
0
LINE
8
BLACK
6
CONTINUOUS
10
5.40913
20
-3.10731
11
5.40998
21
-3.10726
0
LINE
8
BLACK
6
CONTINUOUS
10
5.40998
20
-3.10726
11
5.41083
21
-3.10711
0
LINE
8
BLACK
6
CONTINUOUS
10
5.41083
20
-3.10711
11
5.41097
21
-3.10719
0
LINE
8
BLACK
6
CONTINUOUS
10
5.45944
20
-3.10713
11
5.45957
21
-3.10711
0
LINE
8
BLACK
6
CONTINUOUS
10
5.45957
20
-3.10711
11
5.45969
21
-3.10717
0
LINE
8
BLACK
6
CONTINUOUS
10
5.45969
20
-3.10717
11
5.46007
21
-3.10724
0
LINE
8
BLACK
6
CONTINUOUS
10
5.46007
20
-3.10724
11
5.46066
21
-3.10773
0
LINE
8
BLACK
6
CONTINUOUS
10
5.46066
20
-3.10773
11
5.46132
21
-3.10812
0
LINE
8
BLACK
6
CONTINUOUS
10
5.46132
20
-3.10812
11
5.46141
21
-3.10837
0
LINE
8
BLACK
6
CONTINUOUS
10
5.46141
20
-3.10837
11
5.46162
21
-3.10854
0
LINE
8
BLACK
6
CONTINUOUS
10
5.46162
20
-3.10854
11
5.46175
21
-3.10929
0
LINE
8
BLACK
6
CONTINUOUS
10
5.46175
20
-3.10929
11
5.46201
21
-3.11001
0
LINE
8
BLACK
6
CONTINUOUS
10
5.46201
20
-3.11001
11
5.46201
21
-3.14939
0
LINE
8
BLACK
6
CONTINUOUS
10
5.46201
20
-3.14939
11
5.46194
21
-3.14977
0
LINE
8
BLACK
6
CONTINUOUS
10
5.46194
20
-3.14977
11
5.46197
21
-3.1499
0
LINE
8
BLACK
6
CONTINUOUS
10
5.46197
20
-3.1499
11
5.4619
21
-3.15001
0
LINE
8
BLACK
6
CONTINUOUS
10
5.4619
20
-3.15001
11
5.46183
21
-3.15039
0
LINE
8
BLACK
6
CONTINUOUS
10
5.46183
20
-3.15039
11
5.46134
21
-3.15098
0
LINE
8
BLACK
6
CONTINUOUS
10
5.46134
20
-3.15098
11
5.46096
21
-3.15165
0
LINE
8
BLACK
6
CONTINUOUS
10
5.46096
20
-3.15165
11
5.46071
21
-3.15174
0
LINE
8
BLACK
6
CONTINUOUS
10
5.46071
20
-3.15174
11
5.46054
21
-3.15194
0
LINE
8
BLACK
6
CONTINUOUS
10
5.46054
20
-3.15194
11
5.45978
21
-3.15208
0
LINE
8
BLACK
6
CONTINUOUS
10
5.45978
20
-3.15208
11
5.45906
21
-3.15234
0
LINE
8
BLACK
6
CONTINUOUS
10
5.45906
20
-3.15234
11
5.44969
21
-3.15234
0
LINE
8
BLACK
6
CONTINUOUS
10
5.44969
20
-3.15234
11
5.44882
21
-3.15218
0
LINE
8
BLACK
6
CONTINUOUS
10
5.44882
20
-3.15218
11
5.44875
21
-3.15219
0
LINE
8
BLACK
6
CONTINUOUS
10
5.44875
20
-3.15219
11
5.44313
21
-3.15031
0
LINE
8
BLACK
6
CONTINUOUS
10
5.44313
20
-3.15031
11
5.44223
21
-3.14982
0
LINE
8
BLACK
6
CONTINUOUS
10
5.44223
20
-3.14982
11
5.44213
21
-3.14967
0
LINE
8
BLACK
6
CONTINUOUS
10
5.44213
20
-3.14967
11
5.44197
21
-3.1496
0
LINE
8
BLACK
6
CONTINUOUS
10
5.44197
20
-3.1496
11
5.43822
21
-3.14585
0
LINE
8
BLACK
6
CONTINUOUS
10
5.43822
20
-3.14585
11
5.43772
21
-3.14513
0
LINE
8
BLACK
6
CONTINUOUS
10
5.43772
20
-3.14513
11
5.43767
21
-3.14508
0
LINE
8
BLACK
6
CONTINUOUS
10
5.43767
20
-3.14508
11
5.4358
21
-3.14133
0
LINE
8
BLACK
6
CONTINUOUS
10
5.4358
20
-3.14133
11
5.43565
21
-3.14084
0
LINE
8
BLACK
6
CONTINUOUS
10
5.43565
20
-3.14084
11
5.43557
21
-3.14073
0
LINE
8
BLACK
6
CONTINUOUS
10
5.43557
20
-3.14073
11
5.4337
21
-3.13323
0
LINE
8
BLACK
6
CONTINUOUS
10
5.4337
20
-3.13323
11
5.43366
21
-3.13264
0
LINE
8
BLACK
6
CONTINUOUS
10
5.43366
20
-3.13264
11
5.43361
21
-3.13251
0
LINE
8
BLACK
6
CONTINUOUS
10
5.43361
20
-3.13251
11
5.43361
21
-3.12689
0
LINE
8
BLACK
6
CONTINUOUS
10
5.43361
20
-3.12689
11
5.43371
21
-3.12631
0
LINE
8
BLACK
6
CONTINUOUS
10
5.43371
20
-3.12631
11
5.4337
21
-3.12617
0
LINE
8
BLACK
6
CONTINUOUS
10
5.4337
20
-3.12617
11
5.43557
21
-3.11867
0
LINE
8
BLACK
6
CONTINUOUS
10
5.43557
20
-3.11867
11
5.43578
21
-3.11821
0
LINE
8
BLACK
6
CONTINUOUS
10
5.43578
20
-3.11821
11
5.4358
21
-3.11807
0
LINE
8
BLACK
6
CONTINUOUS
10
5.4358
20
-3.11807
11
5.43767
21
-3.11432
0
LINE
8
BLACK
6
CONTINUOUS
10
5.43767
20
-3.11432
11
5.4382
21
-3.11361
0
LINE
8
BLACK
6
CONTINUOUS
10
5.4382
20
-3.11361
11
5.43822
21
-3.11355
0
LINE
8
BLACK
6
CONTINUOUS
10
5.43822
20
-3.11355
11
5.44197
21
-3.1098
0
LINE
8
BLACK
6
CONTINUOUS
10
5.44197
20
-3.1098
11
5.44281
21
-3.10921
0
LINE
8
BLACK
6
CONTINUOUS
10
5.44281
20
-3.10921
11
5.44299
21
-3.1092
0
LINE
8
BLACK
6
CONTINUOUS
10
5.44299
20
-3.1092
11
5.44313
21
-3.10909
0
LINE
8
BLACK
6
CONTINUOUS
10
5.44313
20
-3.10909
11
5.44875
21
-3.10721
0
LINE
8
BLACK
6
CONTINUOUS
10
5.44875
20
-3.10721
11
5.44962
21
-3.10708
0
LINE
8
BLACK
6
CONTINUOUS
10
5.44962
20
-3.10708
11
5.44969
21
-3.10706
0
LINE
8
BLACK
6
CONTINUOUS
10
5.44969
20
-3.10706
11
5.45906
21
-3.10706
0
LINE
8
BLACK
6
CONTINUOUS
10
5.45906
20
-3.10706
11
5.45944
21
-3.10713
0
LINE
8
BLACK
6
CONTINUOUS
10
5.45016
20
-3.11297
11
5.44566
21
-3.11447
0
LINE
8
BLACK
6
CONTINUOUS
10
5.44566
20
-3.11447
11
5.44274
21
-3.11739
0
LINE
8
BLACK
6
CONTINUOUS
10
5.44274
20
-3.11739
11
5.44122
21
-3.12042
0
LINE
8
BLACK
6
CONTINUOUS
10
5.44122
20
-3.12042
11
5.43951
21
-3.12725
0
LINE
8
BLACK
6
CONTINUOUS
10
5.43951
20
-3.12725
11
5.43951
21
-3.13215
0
LINE
8
BLACK
6
CONTINUOUS
10
5.43951
20
-3.13215
11
5.44122
21
-3.13898
0
LINE
8
BLACK
6
CONTINUOUS
10
5.44122
20
-3.13898
11
5.44274
21
-3.14201
0
LINE
8
BLACK
6
CONTINUOUS
10
5.44274
20
-3.14201
11
5.44566
21
-3.14493
0
LINE
8
BLACK
6
CONTINUOUS
10
5.44566
20
-3.14493
11
5.45016
21
-3.14643
0
LINE
8
BLACK
6
CONTINUOUS
10
5.45016
20
-3.14643
11
5.45611
21
-3.14643
0
LINE
8
BLACK
6
CONTINUOUS
10
5.45611
20
-3.14643
11
5.45611
21
-3.11297
0
LINE
8
BLACK
6
CONTINUOUS
10
5.45611
20
-3.11297
11
5.45016
21
-3.11297
  0
ENDSEC
  0
EOF
