  0
SECTION
  2
HEADER
  9
$ANGBASE
  50
0.0
  9
$ANGDIR
  70
1
  9
$MEASUREMENT
  70
0
  0
ENDSEC
  0
SECTION
  2
TABLES
  0
TABLE
  2
LTYPE
  70
4
  0
LTYPE
  5
40F
  2
CONTINUOUS
  70
0
  3
Solid line
  72
65
  73
0
  40
0.0
  0
LTYPE
  5
410
  2
DASHDOT
 70
0
  3
Dash Dot ____ _ ____ _
 72
65
 73
4
 40
2.0
 49
1.25
 49
-0.25
 49
0.25
 49
-0.25
  0
LTYPE
  5
411
  2
DASHED
 70
0
  3
Dashed __ __ __ __ __
 72
65
 73
2
 40
0.75
 49
0.5
 49
-0.25
  0
LTYPE
  5
43B
  2
DOTTED
 70
0
  3
Dotted .  .  .  .
 72
65
 73
2
 40
0.2
 49
0.0
 49
-0.2
  0
ENDTAB
  0
TABLE
  2
STYLE
  70
4
  0
STYLE
  2
KICAD
  70
0
  40
0
  41
1
  42
1
  50
0
  71
0
  3
isocp.shx
  0
STYLE
  2
KICADB
  70
0
  40
0
  41
1
  42
1
  50
0
  71
0
  3
isocp.shx
  0
STYLE
  2
KICADI
  70
0
  40
0
  41
1
  42
1
  50
15
  71
0
  3
isocp.shx
  0
STYLE
  2
KICADBI
  70
0
  40
0
  41
1
  42
1
  50
15
  71
0
  3
isocp.shx
  0
ENDTAB
  0
TABLE
  2
LAYER
  70
1
  0
LAYER
  2
BLACK
  70
0
  62
7
  6
CONTINUOUS
  0
ENDTAB
  0
ENDSEC
  0
SECTION
  2
ENTITIES
0
LINE
8
BLACK
6
CONTINUOUS
10
5.44038
20
-3.34711
11
5.44051
21
-3.34709
0
LINE
8
BLACK
6
CONTINUOUS
10
5.44051
20
-3.34709
11
5.44063
21
-3.34716
0
LINE
8
BLACK
6
CONTINUOUS
10
5.44063
20
-3.34716
11
5.44101
21
-3.34723
0
LINE
8
BLACK
6
CONTINUOUS
10
5.44101
20
-3.34723
11
5.4416
21
-3.34772
0
LINE
8
BLACK
6
CONTINUOUS
10
5.4416
20
-3.34772
11
5.44226
21
-3.3481
0
LINE
8
BLACK
6
CONTINUOUS
10
5.44226
20
-3.3481
11
5.44235
21
-3.34835
0
LINE
8
BLACK
6
CONTINUOUS
10
5.44235
20
-3.34835
11
5.44256
21
-3.34852
0
LINE
8
BLACK
6
CONTINUOUS
10
5.44256
20
-3.34852
11
5.44269
21
-3.34928
0
LINE
8
BLACK
6
CONTINUOUS
10
5.44269
20
-3.34928
11
5.44295
21
-3.35
0
LINE
8
BLACK
6
CONTINUOUS
10
5.44295
20
-3.35
11
5.44295
21
-3.65
0
LINE
8
BLACK
6
CONTINUOUS
10
5.44295
20
-3.65
11
5.44289
21
-3.65038
0
LINE
8
BLACK
6
CONTINUOUS
10
5.44289
20
-3.65038
11
5.44291
21
-3.65051
0
LINE
8
BLACK
6
CONTINUOUS
10
5.44291
20
-3.65051
11
5.44284
21
-3.65063
0
LINE
8
BLACK
6
CONTINUOUS
10
5.44284
20
-3.65063
11
5.44277
21
-3.65101
0
LINE
8
BLACK
6
CONTINUOUS
10
5.44277
20
-3.65101
11
5.44228
21
-3.6516
0
LINE
8
BLACK
6
CONTINUOUS
10
5.44228
20
-3.6516
11
5.4419
21
-3.65226
0
LINE
8
BLACK
6
CONTINUOUS
10
5.4419
20
-3.65226
11
5.44165
21
-3.65235
0
LINE
8
BLACK
6
CONTINUOUS
10
5.44165
20
-3.65235
11
5.44148
21
-3.65256
0
LINE
8
BLACK
6
CONTINUOUS
10
5.44148
20
-3.65256
11
5.44072
21
-3.65269
0
LINE
8
BLACK
6
CONTINUOUS
10
5.44072
20
-3.65269
11
5.44
21
-3.65295
0
LINE
8
BLACK
6
CONTINUOUS
10
5.44
20
-3.65295
11
5.24
21
-3.65295
0
LINE
8
BLACK
6
CONTINUOUS
10
5.24
20
-3.65295
11
5.23962
21
-3.65289
0
LINE
8
BLACK
6
CONTINUOUS
10
5.23962
20
-3.65289
11
5.23949
21
-3.65291
0
LINE
8
BLACK
6
CONTINUOUS
10
5.23949
20
-3.65291
11
5.23937
21
-3.65284
0
LINE
8
BLACK
6
CONTINUOUS
10
5.23937
20
-3.65284
11
5.23899
21
-3.65277
0
LINE
8
BLACK
6
CONTINUOUS
10
5.23899
20
-3.65277
11
5.2384
21
-3.65228
0
LINE
8
BLACK
6
CONTINUOUS
10
5.2384
20
-3.65228
11
5.23774
21
-3.6519
0
LINE
8
BLACK
6
CONTINUOUS
10
5.23774
20
-3.6519
11
5.23765
21
-3.65165
0
LINE
8
BLACK
6
CONTINUOUS
10
5.23765
20
-3.65165
11
5.23744
21
-3.65148
0
LINE
8
BLACK
6
CONTINUOUS
10
5.23744
20
-3.65148
11
5.23731
21
-3.65072
0
LINE
8
BLACK
6
CONTINUOUS
10
5.23731
20
-3.65072
11
5.23705
21
-3.65
0
LINE
8
BLACK
6
CONTINUOUS
10
5.23705
20
-3.65
11
5.23705
21
-3.35
0
LINE
8
BLACK
6
CONTINUOUS
10
5.23705
20
-3.35
11
5.23711
21
-3.34962
0
LINE
8
BLACK
6
CONTINUOUS
10
5.23711
20
-3.34962
11
5.23709
21
-3.34949
0
LINE
8
BLACK
6
CONTINUOUS
10
5.23709
20
-3.34949
11
5.23716
21
-3.34937
0
LINE
8
BLACK
6
CONTINUOUS
10
5.23716
20
-3.34937
11
5.23723
21
-3.34899
0
LINE
8
BLACK
6
CONTINUOUS
10
5.23723
20
-3.34899
11
5.23772
21
-3.3484
0
LINE
8
BLACK
6
CONTINUOUS
10
5.23772
20
-3.3484
11
5.2381
21
-3.34774
0
LINE
8
BLACK
6
CONTINUOUS
10
5.2381
20
-3.34774
11
5.23835
21
-3.34765
0
LINE
8
BLACK
6
CONTINUOUS
10
5.23835
20
-3.34765
11
5.23852
21
-3.34744
0
LINE
8
BLACK
6
CONTINUOUS
10
5.23852
20
-3.34744
11
5.23928
21
-3.34731
0
LINE
8
BLACK
6
CONTINUOUS
10
5.23928
20
-3.34731
11
5.24
21
-3.34705
0
LINE
8
BLACK
6
CONTINUOUS
10
5.24
20
-3.34705
11
5.44
21
-3.34705
0
LINE
8
BLACK
6
CONTINUOUS
10
5.44
20
-3.34705
11
5.44038
21
-3.34711
0
LINE
8
BLACK
6
CONTINUOUS
10
5.24295
20
-3.35295
11
5.24295
21
-3.64705
0
LINE
8
BLACK
6
CONTINUOUS
10
5.24295
20
-3.64705
11
5.43705
21
-3.64705
0
LINE
8
BLACK
6
CONTINUOUS
10
5.43705
20
-3.64705
11
5.43705
21
-3.35295
0
LINE
8
BLACK
6
CONTINUOUS
10
5.43705
20
-3.35295
11
5.24295
21
-3.35295
0
LINE
8
BLACK
6
CONTINUOUS
10
5.84
20
-3.63
11
5.78
21
-3.63
0
LINE
8
BLACK
6
CONTINUOUS
10
5.78
20
-3.63
11
5.78
21
-3.57
0
LINE
8
BLACK
6
CONTINUOUS
10
5.78
20
-3.57
11
5.84
21
-3.57
0
LINE
8
BLACK
6
CONTINUOUS
10
5.84
20
-3.57
11
5.84
21
-3.63
0
LINE
8
BLACK
6
CONTINUOUS
10
5.94
20
-3.63
11
5.88
21
-3.63
0
LINE
8
BLACK
6
CONTINUOUS
10
5.88
20
-3.63
11
5.88
21
-3.57
0
LINE
8
BLACK
6
CONTINUOUS
10
5.88
20
-3.57
11
5.94
21
-3.57
0
LINE
8
BLACK
6
CONTINUOUS
10
5.94
20
-3.57
11
5.94
21
-3.63
0
LINE
8
BLACK
6
CONTINUOUS
10
5.84
20
-3.53
11
5.78
21
-3.53
0
LINE
8
BLACK
6
CONTINUOUS
10
5.78
20
-3.53
11
5.78
21
-3.47
0
LINE
8
BLACK
6
CONTINUOUS
10
5.78
20
-3.47
11
5.84
21
-3.47
0
LINE
8
BLACK
6
CONTINUOUS
10
5.84
20
-3.47
11
5.84
21
-3.53
0
LINE
8
BLACK
6
CONTINUOUS
10
5.94
20
-3.53
11
5.88
21
-3.53
0
LINE
8
BLACK
6
CONTINUOUS
10
5.88
20
-3.53
11
5.88
21
-3.47
0
LINE
8
BLACK
6
CONTINUOUS
10
5.88
20
-3.47
11
5.94
21
-3.47
0
LINE
8
BLACK
6
CONTINUOUS
10
5.94
20
-3.47
11
5.94
21
-3.53
0
LINE
8
BLACK
6
CONTINUOUS
10
5.84
20
-3.43
11
5.78
21
-3.43
0
LINE
8
BLACK
6
CONTINUOUS
10
5.78
20
-3.43
11
5.78
21
-3.37
0
LINE
8
BLACK
6
CONTINUOUS
10
5.78
20
-3.37
11
5.84
21
-3.37
0
LINE
8
BLACK
6
CONTINUOUS
10
5.84
20
-3.37
11
5.84
21
-3.43
0
LINE
8
BLACK
6
CONTINUOUS
10
5.94
20
-3.43
11
5.88
21
-3.43
0
LINE
8
BLACK
6
CONTINUOUS
10
5.88
20
-3.43
11
5.88
21
-3.37
0
LINE
8
BLACK
6
CONTINUOUS
10
5.88
20
-3.37
11
5.94
21
-3.37
0
LINE
8
BLACK
6
CONTINUOUS
10
5.94
20
-3.37
11
5.94
21
-3.43
0
LINE
8
BLACK
6
CONTINUOUS
10
5.84
20
-3.33
11
5.78
21
-3.33
0
LINE
8
BLACK
6
CONTINUOUS
10
5.78
20
-3.33
11
5.78
21
-3.27
0
LINE
8
BLACK
6
CONTINUOUS
10
5.78
20
-3.27
11
5.84
21
-3.27
0
LINE
8
BLACK
6
CONTINUOUS
10
5.84
20
-3.27
11
5.84
21
-3.33
0
LINE
8
BLACK
6
CONTINUOUS
10
5.94
20
-3.33
11
5.88
21
-3.33
0
LINE
8
BLACK
6
CONTINUOUS
10
5.88
20
-3.33
11
5.88
21
-3.27
0
LINE
8
BLACK
6
CONTINUOUS
10
5.88
20
-3.27
11
5.94
21
-3.27
0
LINE
8
BLACK
6
CONTINUOUS
10
5.94
20
-3.27
11
5.94
21
-3.33
0
LINE
8
BLACK
6
CONTINUOUS
10
5.84
20
-3.23
11
5.78
21
-3.23
0
LINE
8
BLACK
6
CONTINUOUS
10
5.78
20
-3.23
11
5.78
21
-3.17
0
LINE
8
BLACK
6
CONTINUOUS
10
5.78
20
-3.17
11
5.84
21
-3.17
0
LINE
8
BLACK
6
CONTINUOUS
10
5.84
20
-3.17
11
5.84
21
-3.23
0
LINE
8
BLACK
6
CONTINUOUS
10
5.94
20
-3.23
11
5.88
21
-3.23
0
LINE
8
BLACK
6
CONTINUOUS
10
5.88
20
-3.23
11
5.88
21
-3.17
0
LINE
8
BLACK
6
CONTINUOUS
10
5.88
20
-3.17
11
5.94
21
-3.17
0
LINE
8
BLACK
6
CONTINUOUS
10
5.94
20
-3.17
11
5.94
21
-3.23
0
LINE
8
BLACK
6
CONTINUOUS
10
5.96038
20
-3.14711
11
5.96051
21
-3.14709
0
LINE
8
BLACK
6
CONTINUOUS
10
5.96051
20
-3.14709
11
5.96063
21
-3.14716
0
LINE
8
BLACK
6
CONTINUOUS
10
5.96063
20
-3.14716
11
5.96101
21
-3.14723
0
LINE
8
BLACK
6
CONTINUOUS
10
5.96101
20
-3.14723
11
5.9616
21
-3.14772
0
LINE
8
BLACK
6
CONTINUOUS
10
5.9616
20
-3.14772
11
5.96226
21
-3.1481
0
LINE
8
BLACK
6
CONTINUOUS
10
5.96226
20
-3.1481
11
5.96235
21
-3.14835
0
LINE
8
BLACK
6
CONTINUOUS
10
5.96235
20
-3.14835
11
5.96256
21
-3.14852
0
LINE
8
BLACK
6
CONTINUOUS
10
5.96256
20
-3.14852
11
5.96269
21
-3.14928
0
LINE
8
BLACK
6
CONTINUOUS
10
5.96269
20
-3.14928
11
5.96295
21
-3.15
0
LINE
8
BLACK
6
CONTINUOUS
10
5.96295
20
-3.15
11
5.96295
21
-3.65
0
LINE
8
BLACK
6
CONTINUOUS
10
5.96295
20
-3.65
11
5.96289
21
-3.65038
0
LINE
8
BLACK
6
CONTINUOUS
10
5.96289
20
-3.65038
11
5.96291
21
-3.65051
0
LINE
8
BLACK
6
CONTINUOUS
10
5.96291
20
-3.65051
11
5.96284
21
-3.65063
0
LINE
8
BLACK
6
CONTINUOUS
10
5.96284
20
-3.65063
11
5.96277
21
-3.65101
0
LINE
8
BLACK
6
CONTINUOUS
10
5.96277
20
-3.65101
11
5.96228
21
-3.6516
0
LINE
8
BLACK
6
CONTINUOUS
10
5.96228
20
-3.6516
11
5.9619
21
-3.65226
0
LINE
8
BLACK
6
CONTINUOUS
10
5.9619
20
-3.65226
11
5.96165
21
-3.65235
0
LINE
8
BLACK
6
CONTINUOUS
10
5.96165
20
-3.65235
11
5.96148
21
-3.65256
0
LINE
8
BLACK
6
CONTINUOUS
10
5.96148
20
-3.65256
11
5.96072
21
-3.65269
0
LINE
8
BLACK
6
CONTINUOUS
10
5.96072
20
-3.65269
11
5.96
21
-3.65295
0
LINE
8
BLACK
6
CONTINUOUS
10
5.96
20
-3.65295
11
5.76
21
-3.65295
0
LINE
8
BLACK
6
CONTINUOUS
10
5.76
20
-3.65295
11
5.75962
21
-3.65289
0
LINE
8
BLACK
6
CONTINUOUS
10
5.75962
20
-3.65289
11
5.75949
21
-3.65291
0
LINE
8
BLACK
6
CONTINUOUS
10
5.75949
20
-3.65291
11
5.75937
21
-3.65284
0
LINE
8
BLACK
6
CONTINUOUS
10
5.75937
20
-3.65284
11
5.75899
21
-3.65277
0
LINE
8
BLACK
6
CONTINUOUS
10
5.75899
20
-3.65277
11
5.7584
21
-3.65228
0
LINE
8
BLACK
6
CONTINUOUS
10
5.7584
20
-3.65228
11
5.75774
21
-3.6519
0
LINE
8
BLACK
6
CONTINUOUS
10
5.75774
20
-3.6519
11
5.75765
21
-3.65165
0
LINE
8
BLACK
6
CONTINUOUS
10
5.75765
20
-3.65165
11
5.75744
21
-3.65148
0
LINE
8
BLACK
6
CONTINUOUS
10
5.75744
20
-3.65148
11
5.75731
21
-3.65072
0
LINE
8
BLACK
6
CONTINUOUS
10
5.75731
20
-3.65072
11
5.75705
21
-3.65
0
LINE
8
BLACK
6
CONTINUOUS
10
5.75705
20
-3.65
11
5.75705
21
-3.15
0
LINE
8
BLACK
6
CONTINUOUS
10
5.75705
20
-3.15
11
5.75711
21
-3.14962
0
LINE
8
BLACK
6
CONTINUOUS
10
5.75711
20
-3.14962
11
5.75709
21
-3.14949
0
LINE
8
BLACK
6
CONTINUOUS
10
5.75709
20
-3.14949
11
5.75716
21
-3.14937
0
LINE
8
BLACK
6
CONTINUOUS
10
5.75716
20
-3.14937
11
5.75723
21
-3.14899
0
LINE
8
BLACK
6
CONTINUOUS
10
5.75723
20
-3.14899
11
5.75772
21
-3.1484
0
LINE
8
BLACK
6
CONTINUOUS
10
5.75772
20
-3.1484
11
5.7581
21
-3.14774
0
LINE
8
BLACK
6
CONTINUOUS
10
5.7581
20
-3.14774
11
5.75835
21
-3.14765
0
LINE
8
BLACK
6
CONTINUOUS
10
5.75835
20
-3.14765
11
5.75852
21
-3.14744
0
LINE
8
BLACK
6
CONTINUOUS
10
5.75852
20
-3.14744
11
5.75928
21
-3.14731
0
LINE
8
BLACK
6
CONTINUOUS
10
5.75928
20
-3.14731
11
5.76
21
-3.14705
0
LINE
8
BLACK
6
CONTINUOUS
10
5.76
20
-3.14705
11
5.96
21
-3.14705
0
LINE
8
BLACK
6
CONTINUOUS
10
5.96
20
-3.14705
11
5.96038
21
-3.14711
0
LINE
8
BLACK
6
CONTINUOUS
10
5.76295
20
-3.15295
11
5.76295
21
-3.64705
0
LINE
8
BLACK
6
CONTINUOUS
10
5.76295
20
-3.64705
11
5.95705
21
-3.64705
0
LINE
8
BLACK
6
CONTINUOUS
10
5.95705
20
-3.64705
11
5.95705
21
-3.15295
0
LINE
8
BLACK
6
CONTINUOUS
10
5.95705
20
-3.15295
11
5.76295
21
-3.15295
0
LINE
8
BLACK
6
CONTINUOUS
10
5.50342
20
-3.60278
11
5.50438
21
-3.60455
0
LINE
8
BLACK
6
CONTINUOUS
10
5.50438
20
-3.60455
11
5.50398
21
-3.60653
0
LINE
8
BLACK
6
CONTINUOUS
10
5.50398
20
-3.60653
11
5.5024
21
-3.60779
0
LINE
8
BLACK
6
CONTINUOUS
10
5.5024
20
-3.60779
11
5.47143
21
-3.61811
0
LINE
8
BLACK
6
CONTINUOUS
10
5.47143
20
-3.61811
11
5.5024
21
-3.62843
0
LINE
8
BLACK
6
CONTINUOUS
10
5.5024
20
-3.62843
11
5.5033
21
-3.62892
0
LINE
8
BLACK
6
CONTINUOUS
10
5.5033
20
-3.62892
11
5.50436
21
-3.63064
0
LINE
8
BLACK
6
CONTINUOUS
10
5.50436
20
-3.63064
11
5.50406
21
-3.63264
0
LINE
8
BLACK
6
CONTINUOUS
10
5.50406
20
-3.63264
11
5.50255
21
-3.63398
0
LINE
8
BLACK
6
CONTINUOUS
10
5.50255
20
-3.63398
11
5.50053
21
-3.63403
0
LINE
8
BLACK
6
CONTINUOUS
10
5.50053
20
-3.63403
11
5.46116
21
-3.62091
0
LINE
8
BLACK
6
CONTINUOUS
10
5.46116
20
-3.62091
11
5.46026
21
-3.62042
0
LINE
8
BLACK
6
CONTINUOUS
10
5.46026
20
-3.62042
11
5.46021
21
-3.62035
0
LINE
8
BLACK
6
CONTINUOUS
10
5.46021
20
-3.62035
11
5.46013
21
-3.62032
0
LINE
8
BLACK
6
CONTINUOUS
10
5.46013
20
-3.62032
11
5.45969
21
-3.6195
0
LINE
8
BLACK
6
CONTINUOUS
10
5.45969
20
-3.6195
11
5.4592
21
-3.6187
0
LINE
8
BLACK
6
CONTINUOUS
10
5.4592
20
-3.6187
11
5.45921
21
-3.61862
0
LINE
8
BLACK
6
CONTINUOUS
10
5.45921
20
-3.61862
11
5.45917
21
-3.61854
0
LINE
8
BLACK
6
CONTINUOUS
10
5.45917
20
-3.61854
11
5.45936
21
-3.61763
0
LINE
8
BLACK
6
CONTINUOUS
10
5.45936
20
-3.61763
11
5.4595
21
-3.6167
0
LINE
8
BLACK
6
CONTINUOUS
10
5.4595
20
-3.6167
11
5.45956
21
-3.61665
0
LINE
8
BLACK
6
CONTINUOUS
10
5.45956
20
-3.61665
11
5.45958
21
-3.61656
0
LINE
8
BLACK
6
CONTINUOUS
10
5.45958
20
-3.61656
11
5.46031
21
-3.61598
0
LINE
8
BLACK
6
CONTINUOUS
10
5.46031
20
-3.61598
11
5.46101
21
-3.61536
0
LINE
8
BLACK
6
CONTINUOUS
10
5.46101
20
-3.61536
11
5.46109
21
-3.61536
0
LINE
8
BLACK
6
CONTINUOUS
10
5.46109
20
-3.61536
11
5.46116
21
-3.61531
0
LINE
8
BLACK
6
CONTINUOUS
10
5.46116
20
-3.61531
11
5.50053
21
-3.60219
0
LINE
8
BLACK
6
CONTINUOUS
10
5.50053
20
-3.60219
11
5.50154
21
-3.60204
0
LINE
8
BLACK
6
CONTINUOUS
10
5.50154
20
-3.60204
11
5.50342
21
-3.60278
0
LINE
8
BLACK
6
CONTINUOUS
10
5.69681
20
-3.58574
11
5.69687
21
-3.58573
0
LINE
8
BLACK
6
CONTINUOUS
10
5.69687
20
-3.58573
11
5.7025
21
-3.58761
0
LINE
8
BLACK
6
CONTINUOUS
10
5.7025
20
-3.58761
11
5.7034
21
-3.5881
0
LINE
8
BLACK
6
CONTINUOUS
10
5.7034
20
-3.5881
11
5.70349
21
-3.58825
0
LINE
8
BLACK
6
CONTINUOUS
10
5.70349
20
-3.58825
11
5.70365
21
-3.58832
0
LINE
8
BLACK
6
CONTINUOUS
10
5.70365
20
-3.58832
11
5.70553
21
-3.5902
0
LINE
8
BLACK
6
CONTINUOUS
10
5.70553
20
-3.5902
11
5.70611
21
-3.59104
0
LINE
8
BLACK
6
CONTINUOUS
10
5.70611
20
-3.59104
11
5.70629
21
-3.59305
0
LINE
8
BLACK
6
CONTINUOUS
10
5.70629
20
-3.59305
11
5.70513
21
-3.5947
0
LINE
8
BLACK
6
CONTINUOUS
10
5.70513
20
-3.5947
11
5.70318
21
-3.59523
0
LINE
8
BLACK
6
CONTINUOUS
10
5.70318
20
-3.59523
11
5.70135
21
-3.59437
0
LINE
8
BLACK
6
CONTINUOUS
10
5.70135
20
-3.59437
11
5.69997
21
-3.59299
0
LINE
8
BLACK
6
CONTINUOUS
10
5.69997
20
-3.59299
11
5.69546
21
-3.59149
0
LINE
8
BLACK
6
CONTINUOUS
10
5.69546
20
-3.59149
11
5.69267
21
-3.59149
0
LINE
8
BLACK
6
CONTINUOUS
10
5.69267
20
-3.59149
11
5.68816
21
-3.59299
0
LINE
8
BLACK
6
CONTINUOUS
10
5.68816
20
-3.59299
11
5.68524
21
-3.59591
0
LINE
8
BLACK
6
CONTINUOUS
10
5.68524
20
-3.59591
11
5.68373
21
-3.59894
0
LINE
8
BLACK
6
CONTINUOUS
10
5.68373
20
-3.59894
11
5.68202
21
-3.60577
0
LINE
8
BLACK
6
CONTINUOUS
10
5.68202
20
-3.60577
11
5.68202
21
-3.61067
0
LINE
8
BLACK
6
CONTINUOUS
10
5.68202
20
-3.61067
11
5.68373
21
-3.6175
0
LINE
8
BLACK
6
CONTINUOUS
10
5.68373
20
-3.6175
11
5.68524
21
-3.62053
0
LINE
8
BLACK
6
CONTINUOUS
10
5.68524
20
-3.62053
11
5.68816
21
-3.62345
0
LINE
8
BLACK
6
CONTINUOUS
10
5.68816
20
-3.62345
11
5.69267
21
-3.62495
0
LINE
8
BLACK
6
CONTINUOUS
10
5.69267
20
-3.62495
11
5.69546
21
-3.62495
0
LINE
8
BLACK
6
CONTINUOUS
10
5.69546
20
-3.62495
11
5.69997
21
-3.62345
0
LINE
8
BLACK
6
CONTINUOUS
10
5.69997
20
-3.62345
11
5.70135
21
-3.62207
0
LINE
8
BLACK
6
CONTINUOUS
10
5.70135
20
-3.62207
11
5.70219
21
-3.62148
0
LINE
8
BLACK
6
CONTINUOUS
10
5.70219
20
-3.62148
11
5.7042
21
-3.6213
0
LINE
8
BLACK
6
CONTINUOUS
10
5.7042
20
-3.6213
11
5.70586
21
-3.62246
0
LINE
8
BLACK
6
CONTINUOUS
10
5.70586
20
-3.62246
11
5.70638
21
-3.62441
0
LINE
8
BLACK
6
CONTINUOUS
10
5.70638
20
-3.62441
11
5.70553
21
-3.62624
0
LINE
8
BLACK
6
CONTINUOUS
10
5.70553
20
-3.62624
11
5.70365
21
-3.62812
0
LINE
8
BLACK
6
CONTINUOUS
10
5.70365
20
-3.62812
11
5.70281
21
-3.62871
0
LINE
8
BLACK
6
CONTINUOUS
10
5.70281
20
-3.62871
11
5.70264
21
-3.62872
0
LINE
8
BLACK
6
CONTINUOUS
10
5.70264
20
-3.62872
11
5.7025
21
-3.62883
0
LINE
8
BLACK
6
CONTINUOUS
10
5.7025
20
-3.62883
11
5.69687
21
-3.63071
0
LINE
8
BLACK
6
CONTINUOUS
10
5.69687
20
-3.63071
11
5.696
21
-3.63084
0
LINE
8
BLACK
6
CONTINUOUS
10
5.696
20
-3.63084
11
5.69594
21
-3.63086
0
LINE
8
BLACK
6
CONTINUOUS
10
5.69594
20
-3.63086
11
5.69219
21
-3.63086
0
LINE
8
BLACK
6
CONTINUOUS
10
5.69219
20
-3.63086
11
5.69132
21
-3.63071
0
LINE
8
BLACK
6
CONTINUOUS
10
5.69132
20
-3.63071
11
5.69126
21
-3.63071
0
LINE
8
BLACK
6
CONTINUOUS
10
5.69126
20
-3.63071
11
5.68563
21
-3.62883
0
LINE
8
BLACK
6
CONTINUOUS
10
5.68563
20
-3.62883
11
5.68473
21
-3.62834
0
LINE
8
BLACK
6
CONTINUOUS
10
5.68473
20
-3.62834
11
5.68464
21
-3.62819
0
LINE
8
BLACK
6
CONTINUOUS
10
5.68464
20
-3.62819
11
5.68448
21
-3.62812
0
LINE
8
BLACK
6
CONTINUOUS
10
5.68448
20
-3.62812
11
5.68073
21
-3.62437
0
LINE
8
BLACK
6
CONTINUOUS
10
5.68073
20
-3.62437
11
5.68022
21
-3.62365
0
LINE
8
BLACK
6
CONTINUOUS
10
5.68022
20
-3.62365
11
5.68017
21
-3.6236
0
LINE
8
BLACK
6
CONTINUOUS
10
5.68017
20
-3.6236
11
5.6783
21
-3.61985
0
LINE
8
BLACK
6
CONTINUOUS
10
5.6783
20
-3.61985
11
5.67815
21
-3.61936
0
LINE
8
BLACK
6
CONTINUOUS
10
5.67815
20
-3.61936
11
5.67808
21
-3.61925
0
LINE
8
BLACK
6
CONTINUOUS
10
5.67808
20
-3.61925
11
5.6762
21
-3.61175
0
LINE
8
BLACK
6
CONTINUOUS
10
5.6762
20
-3.61175
11
5.67616
21
-3.61116
0
LINE
8
BLACK
6
CONTINUOUS
10
5.67616
20
-3.61116
11
5.67611
21
-3.61103
0
LINE
8
BLACK
6
CONTINUOUS
10
5.67611
20
-3.61103
11
5.67611
21
-3.60541
0
LINE
8
BLACK
6
CONTINUOUS
10
5.67611
20
-3.60541
11
5.67622
21
-3.60483
0
LINE
8
BLACK
6
CONTINUOUS
10
5.67622
20
-3.60483
11
5.6762
21
-3.60469
0
LINE
8
BLACK
6
CONTINUOUS
10
5.6762
20
-3.60469
11
5.67808
21
-3.59719
0
LINE
8
BLACK
6
CONTINUOUS
10
5.67808
20
-3.59719
11
5.67828
21
-3.59673
0
LINE
8
BLACK
6
CONTINUOUS
10
5.67828
20
-3.59673
11
5.6783
21
-3.59659
0
LINE
8
BLACK
6
CONTINUOUS
10
5.6783
20
-3.59659
11
5.68017
21
-3.59284
0
LINE
8
BLACK
6
CONTINUOUS
10
5.68017
20
-3.59284
11
5.6807
21
-3.59213
0
LINE
8
BLACK
6
CONTINUOUS
10
5.6807
20
-3.59213
11
5.68073
21
-3.59207
0
LINE
8
BLACK
6
CONTINUOUS
10
5.68073
20
-3.59207
11
5.68448
21
-3.58832
0
LINE
8
BLACK
6
CONTINUOUS
10
5.68448
20
-3.58832
11
5.68532
21
-3.58773
0
LINE
8
BLACK
6
CONTINUOUS
10
5.68532
20
-3.58773
11
5.68549
21
-3.58772
0
LINE
8
BLACK
6
CONTINUOUS
10
5.68549
20
-3.58772
11
5.68563
21
-3.58761
0
LINE
8
BLACK
6
CONTINUOUS
10
5.68563
20
-3.58761
11
5.69126
21
-3.58573
0
LINE
8
BLACK
6
CONTINUOUS
10
5.69126
20
-3.58573
11
5.69213
21
-3.58561
0
LINE
8
BLACK
6
CONTINUOUS
10
5.69213
20
-3.58561
11
5.69219
21
-3.58558
0
LINE
8
BLACK
6
CONTINUOUS
10
5.69219
20
-3.58558
11
5.69594
21
-3.58558
0
LINE
8
BLACK
6
CONTINUOUS
10
5.69594
20
-3.58558
11
5.69681
21
-3.58574
0
LINE
8
BLACK
6
CONTINUOUS
10
5.73618
20
-3.58574
11
5.73624
21
-3.58573
0
LINE
8
BLACK
6
CONTINUOUS
10
5.73624
20
-3.58573
11
5.74187
21
-3.58761
0
LINE
8
BLACK
6
CONTINUOUS
10
5.74187
20
-3.58761
11
5.74277
21
-3.5881
0
LINE
8
BLACK
6
CONTINUOUS
10
5.74277
20
-3.5881
11
5.74383
21
-3.58982
0
LINE
8
BLACK
6
CONTINUOUS
10
5.74383
20
-3.58982
11
5.74353
21
-3.59182
0
LINE
8
BLACK
6
CONTINUOUS
10
5.74353
20
-3.59182
11
5.74202
21
-3.59316
0
LINE
8
BLACK
6
CONTINUOUS
10
5.74202
20
-3.59316
11
5.74
21
-3.59321
0
LINE
8
BLACK
6
CONTINUOUS
10
5.74
20
-3.59321
11
5.73483
21
-3.59149
0
LINE
8
BLACK
6
CONTINUOUS
10
5.73483
20
-3.59149
11
5.72663
21
-3.59149
0
LINE
8
BLACK
6
CONTINUOUS
10
5.72663
20
-3.59149
11
5.72394
21
-3.59284
0
LINE
8
BLACK
6
CONTINUOUS
10
5.72394
20
-3.59284
11
5.72274
21
-3.59403
0
LINE
8
BLACK
6
CONTINUOUS
10
5.72274
20
-3.59403
11
5.72139
21
-3.59673
0
LINE
8
BLACK
6
CONTINUOUS
10
5.72139
20
-3.59673
11
5.72139
21
-3.59909
0
LINE
8
BLACK
6
CONTINUOUS
10
5.72139
20
-3.59909
11
5.72274
21
-3.60179
0
LINE
8
BLACK
6
CONTINUOUS
10
5.72274
20
-3.60179
11
5.72394
21
-3.60298
0
LINE
8
BLACK
6
CONTINUOUS
10
5.72394
20
-3.60298
11
5.72697
21
-3.6045
0
LINE
8
BLACK
6
CONTINUOUS
10
5.72697
20
-3.6045
11
5.73415
21
-3.60629
0
LINE
8
BLACK
6
CONTINUOUS
10
5.73415
20
-3.60629
11
5.73462
21
-3.6065
0
LINE
8
BLACK
6
CONTINUOUS
10
5.73462
20
-3.6065
11
5.73476
21
-3.60652
0
LINE
8
BLACK
6
CONTINUOUS
10
5.73476
20
-3.60652
11
5.7385
21
-3.60839
0
LINE
8
BLACK
6
CONTINUOUS
10
5.7385
20
-3.60839
11
5.73921
21
-3.60892
0
LINE
8
BLACK
6
CONTINUOUS
10
5.73921
20
-3.60892
11
5.73927
21
-3.60895
0
LINE
8
BLACK
6
CONTINUOUS
10
5.73927
20
-3.60895
11
5.74115
21
-3.61082
0
LINE
8
BLACK
6
CONTINUOUS
10
5.74115
20
-3.61082
11
5.74165
21
-3.61154
0
LINE
8
BLACK
6
CONTINUOUS
10
5.74165
20
-3.61154
11
5.7417
21
-3.61159
0
LINE
8
BLACK
6
CONTINUOUS
10
5.7417
20
-3.61159
11
5.74357
21
-3.61534
0
LINE
8
BLACK
6
CONTINUOUS
10
5.74357
20
-3.61534
11
5.74387
21
-3.61632
0
LINE
8
BLACK
6
CONTINUOUS
10
5.74387
20
-3.61632
11
5.74383
21
-3.61649
0
LINE
8
BLACK
6
CONTINUOUS
10
5.74383
20
-3.61649
11
5.74389
21
-3.61666
0
LINE
8
BLACK
6
CONTINUOUS
10
5.74389
20
-3.61666
11
5.74389
21
-3.62041
0
LINE
8
BLACK
6
CONTINUOUS
10
5.74389
20
-3.62041
11
5.74371
21
-3.62142
0
LINE
8
BLACK
6
CONTINUOUS
10
5.74371
20
-3.62142
11
5.74359
21
-3.62155
0
LINE
8
BLACK
6
CONTINUOUS
10
5.74359
20
-3.62155
11
5.74357
21
-3.62173
0
LINE
8
BLACK
6
CONTINUOUS
10
5.74357
20
-3.62173
11
5.7417
21
-3.62548
0
LINE
8
BLACK
6
CONTINUOUS
10
5.7417
20
-3.62548
11
5.74117
21
-3.62619
0
LINE
8
BLACK
6
CONTINUOUS
10
5.74117
20
-3.62619
11
5.74115
21
-3.62624
0
LINE
8
BLACK
6
CONTINUOUS
10
5.74115
20
-3.62624
11
5.73927
21
-3.62812
0
LINE
8
BLACK
6
CONTINUOUS
10
5.73927
20
-3.62812
11
5.73855
21
-3.62863
0
LINE
8
BLACK
6
CONTINUOUS
10
5.73855
20
-3.62863
11
5.7385
21
-3.62867
0
LINE
8
BLACK
6
CONTINUOUS
10
5.7385
20
-3.62867
11
5.73476
21
-3.63055
0
LINE
8
BLACK
6
CONTINUOUS
10
5.73476
20
-3.63055
11
5.73377
21
-3.63084
0
LINE
8
BLACK
6
CONTINUOUS
10
5.73377
20
-3.63084
11
5.7336
21
-3.6308
0
LINE
8
BLACK
6
CONTINUOUS
10
5.7336
20
-3.6308
11
5.73343
21
-3.63086
0
LINE
8
BLACK
6
CONTINUOUS
10
5.73343
20
-3.63086
11
5.72406
21
-3.63086
0
LINE
8
BLACK
6
CONTINUOUS
10
5.72406
20
-3.63086
11
5.72319
21
-3.63071
0
LINE
8
BLACK
6
CONTINUOUS
10
5.72319
20
-3.63071
11
5.72313
21
-3.63071
0
LINE
8
BLACK
6
CONTINUOUS
10
5.72313
20
-3.63071
11
5.7175
21
-3.62883
0
LINE
8
BLACK
6
CONTINUOUS
10
5.7175
20
-3.62883
11
5.7166
21
-3.62834
0
LINE
8
BLACK
6
CONTINUOUS
10
5.7166
20
-3.62834
11
5.71554
21
-3.62662
0
LINE
8
BLACK
6
CONTINUOUS
10
5.71554
20
-3.62662
11
5.71584
21
-3.62463
0
LINE
8
BLACK
6
CONTINUOUS
10
5.71584
20
-3.62463
11
5.71735
21
-3.62329
0
LINE
8
BLACK
6
CONTINUOUS
10
5.71735
20
-3.62329
11
5.71937
21
-3.62323
0
LINE
8
BLACK
6
CONTINUOUS
10
5.71937
20
-3.62323
11
5.72454
21
-3.62495
0
LINE
8
BLACK
6
CONTINUOUS
10
5.72454
20
-3.62495
11
5.73274
21
-3.62495
0
LINE
8
BLACK
6
CONTINUOUS
10
5.73274
20
-3.62495
11
5.73543
21
-3.6236
0
LINE
8
BLACK
6
CONTINUOUS
10
5.73543
20
-3.6236
11
5.73663
21
-3.62241
0
LINE
8
BLACK
6
CONTINUOUS
10
5.73663
20
-3.62241
11
5.73798
21
-3.61971
0
LINE
8
BLACK
6
CONTINUOUS
10
5.73798
20
-3.61971
11
5.73798
21
-3.61735
0
LINE
8
BLACK
6
CONTINUOUS
10
5.73798
20
-3.61735
11
5.73663
21
-3.61466
0
LINE
8
BLACK
6
CONTINUOUS
10
5.73663
20
-3.61466
11
5.73543
21
-3.61346
0
LINE
8
BLACK
6
CONTINUOUS
10
5.73543
20
-3.61346
11
5.7324
21
-3.61194
0
LINE
8
BLACK
6
CONTINUOUS
10
5.7324
20
-3.61194
11
5.72522
21
-3.61015
0
LINE
8
BLACK
6
CONTINUOUS
10
5.72522
20
-3.61015
11
5.72475
21
-3.60994
0
LINE
8
BLACK
6
CONTINUOUS
10
5.72475
20
-3.60994
11
5.72462
21
-3.60992
0
LINE
8
BLACK
6
CONTINUOUS
10
5.72462
20
-3.60992
11
5.72087
21
-3.60805
0
LINE
8
BLACK
6
CONTINUOUS
10
5.72087
20
-3.60805
11
5.72016
21
-3.60752
0
LINE
8
BLACK
6
CONTINUOUS
10
5.72016
20
-3.60752
11
5.7201
21
-3.6075
0
LINE
8
BLACK
6
CONTINUOUS
10
5.7201
20
-3.6075
11
5.71822
21
-3.60562
0
LINE
8
BLACK
6
CONTINUOUS
10
5.71822
20
-3.60562
11
5.71772
21
-3.6049
0
LINE
8
BLACK
6
CONTINUOUS
10
5.71772
20
-3.6049
11
5.71767
21
-3.60485
0
LINE
8
BLACK
6
CONTINUOUS
10
5.71767
20
-3.60485
11
5.7158
21
-3.60111
0
LINE
8
BLACK
6
CONTINUOUS
10
5.7158
20
-3.60111
11
5.7155
21
-3.60012
0
LINE
8
BLACK
6
CONTINUOUS
10
5.7155
20
-3.60012
11
5.71554
21
-3.59995
0
LINE
8
BLACK
6
CONTINUOUS
10
5.71554
20
-3.59995
11
5.71548
21
-3.59978
0
LINE
8
BLACK
6
CONTINUOUS
10
5.71548
20
-3.59978
11
5.71548
21
-3.59604
0
LINE
8
BLACK
6
CONTINUOUS
10
5.71548
20
-3.59604
11
5.71566
21
-3.59503
0
LINE
8
BLACK
6
CONTINUOUS
10
5.71566
20
-3.59503
11
5.71578
21
-3.59489
0
LINE
8
BLACK
6
CONTINUOUS
10
5.71578
20
-3.59489
11
5.7158
21
-3.59471
0
LINE
8
BLACK
6
CONTINUOUS
10
5.7158
20
-3.59471
11
5.71767
21
-3.59097
0
LINE
8
BLACK
6
CONTINUOUS
10
5.71767
20
-3.59097
11
5.7182
21
-3.59026
0
LINE
8
BLACK
6
CONTINUOUS
10
5.7182
20
-3.59026
11
5.71822
21
-3.5902
0
LINE
8
BLACK
6
CONTINUOUS
10
5.71822
20
-3.5902
11
5.7201
21
-3.58832
0
LINE
8
BLACK
6
CONTINUOUS
10
5.7201
20
-3.58832
11
5.72082
21
-3.58782
0
LINE
8
BLACK
6
CONTINUOUS
10
5.72082
20
-3.58782
11
5.72087
21
-3.58777
0
LINE
8
BLACK
6
CONTINUOUS
10
5.72087
20
-3.58777
11
5.72462
21
-3.5859
0
LINE
8
BLACK
6
CONTINUOUS
10
5.72462
20
-3.5859
11
5.7256
21
-3.5856
0
LINE
8
BLACK
6
CONTINUOUS
10
5.7256
20
-3.5856
11
5.72577
21
-3.58564
0
LINE
8
BLACK
6
CONTINUOUS
10
5.72577
20
-3.58564
11
5.72594
21
-3.58558
0
LINE
8
BLACK
6
CONTINUOUS
10
5.72594
20
-3.58558
11
5.73531
21
-3.58558
0
LINE
8
BLACK
6
CONTINUOUS
10
5.73531
20
-3.58558
11
5.73618
21
-3.58574
0
LINE
8
BLACK
6
CONTINUOUS
10
5.48517
20
-3.56839
11
5.48531
21
-3.56838
0
LINE
8
BLACK
6
CONTINUOUS
10
5.48531
20
-3.56838
11
5.49281
21
-3.57025
0
LINE
8
BLACK
6
CONTINUOUS
10
5.49281
20
-3.57025
11
5.49371
21
-3.57065
0
LINE
8
BLACK
6
CONTINUOUS
10
5.49371
20
-3.57065
11
5.49373
21
-3.57066
0
LINE
8
BLACK
6
CONTINUOUS
10
5.49373
20
-3.57066
11
5.49935
21
-3.57441
0
LINE
8
BLACK
6
CONTINUOUS
10
5.49935
20
-3.57441
11
5.49968
21
-3.57472
0
LINE
8
BLACK
6
CONTINUOUS
10
5.49968
20
-3.57472
11
5.4998
21
-3.57478
0
LINE
8
BLACK
6
CONTINUOUS
10
5.4998
20
-3.57478
11
5.50168
21
-3.57665
0
LINE
8
BLACK
6
CONTINUOUS
10
5.50168
20
-3.57665
11
5.50218
21
-3.57738
0
LINE
8
BLACK
6
CONTINUOUS
10
5.50218
20
-3.57738
11
5.50223
21
-3.57742
0
LINE
8
BLACK
6
CONTINUOUS
10
5.50223
20
-3.57742
11
5.5041
21
-3.58117
0
LINE
8
BLACK
6
CONTINUOUS
10
5.5041
20
-3.58117
11
5.5044
21
-3.58215
0
LINE
8
BLACK
6
CONTINUOUS
10
5.5044
20
-3.58215
11
5.50436
21
-3.58232
0
LINE
8
BLACK
6
CONTINUOUS
10
5.50436
20
-3.58232
11
5.50442
21
-3.58249
0
LINE
8
BLACK
6
CONTINUOUS
10
5.50442
20
-3.58249
11
5.50442
21
-3.58999
0
LINE
8
BLACK
6
CONTINUOUS
10
5.50442
20
-3.58999
11
5.50424
21
-3.591
0
LINE
8
BLACK
6
CONTINUOUS
10
5.50424
20
-3.591
11
5.50294
21
-3.59255
0
LINE
8
BLACK
6
CONTINUOUS
10
5.50294
20
-3.59255
11
5.50095
21
-3.5929
0
LINE
8
BLACK
6
CONTINUOUS
10
5.50095
20
-3.5929
11
5.4992
21
-3.59189
0
LINE
8
BLACK
6
CONTINUOUS
10
5.4992
20
-3.59189
11
5.49851
21
-3.58999
0
LINE
8
BLACK
6
CONTINUOUS
10
5.49851
20
-3.58999
11
5.49851
21
-3.58319
0
LINE
8
BLACK
6
CONTINUOUS
10
5.49851
20
-3.58319
11
5.49716
21
-3.58049
0
LINE
8
BLACK
6
CONTINUOUS
10
5.49716
20
-3.58049
11
5.49583
21
-3.57916
0
LINE
8
BLACK
6
CONTINUOUS
10
5.49583
20
-3.57916
11
5.49088
21
-3.57586
0
LINE
8
BLACK
6
CONTINUOUS
10
5.49088
20
-3.57586
11
5.48796
21
-3.57513
0
LINE
8
BLACK
6
CONTINUOUS
10
5.48796
20
-3.57513
11
5.48911
21
-3.57742
0
LINE
8
BLACK
6
CONTINUOUS
10
5.48911
20
-3.57742
11
5.4894
21
-3.5784
0
LINE
8
BLACK
6
CONTINUOUS
10
5.4894
20
-3.5784
11
5.48936
21
-3.57857
0
LINE
8
BLACK
6
CONTINUOUS
10
5.48936
20
-3.57857
11
5.48942
21
-3.57874
0
LINE
8
BLACK
6
CONTINUOUS
10
5.48942
20
-3.57874
11
5.48942
21
-3.58624
0
LINE
8
BLACK
6
CONTINUOUS
10
5.48942
20
-3.58624
11
5.48924
21
-3.58725
0
LINE
8
BLACK
6
CONTINUOUS
10
5.48924
20
-3.58725
11
5.48913
21
-3.58738
0
LINE
8
BLACK
6
CONTINUOUS
10
5.48913
20
-3.58738
11
5.48911
21
-3.58756
0
LINE
8
BLACK
6
CONTINUOUS
10
5.48911
20
-3.58756
11
5.48723
21
-3.59131
0
LINE
8
BLACK
6
CONTINUOUS
10
5.48723
20
-3.59131
11
5.48671
21
-3.59202
0
LINE
8
BLACK
6
CONTINUOUS
10
5.48671
20
-3.59202
11
5.48668
21
-3.59208
0
LINE
8
BLACK
6
CONTINUOUS
10
5.48668
20
-3.59208
11
5.4848
21
-3.59395
0
LINE
8
BLACK
6
CONTINUOUS
10
5.4848
20
-3.59395
11
5.48408
21
-3.59446
0
LINE
8
BLACK
6
CONTINUOUS
10
5.48408
20
-3.59446
11
5.48404
21
-3.5945
0
LINE
8
BLACK
6
CONTINUOUS
10
5.48404
20
-3.5945
11
5.48029
21
-3.59638
0
LINE
8
BLACK
6
CONTINUOUS
10
5.48029
20
-3.59638
11
5.4793
21
-3.59667
0
LINE
8
BLACK
6
CONTINUOUS
10
5.4793
20
-3.59667
11
5.47913
21
-3.59663
0
LINE
8
BLACK
6
CONTINUOUS
10
5.47913
20
-3.59663
11
5.47897
21
-3.59669
0
LINE
8
BLACK
6
CONTINUOUS
10
5.47897
20
-3.59669
11
5.46959
21
-3.59669
0
LINE
8
BLACK
6
CONTINUOUS
10
5.46959
20
-3.59669
11
5.46858
21
-3.59651
0
LINE
8
BLACK
6
CONTINUOUS
10
5.46858
20
-3.59651
11
5.46845
21
-3.5964
0
LINE
8
BLACK
6
CONTINUOUS
10
5.46845
20
-3.5964
11
5.46827
21
-3.59638
0
LINE
8
BLACK
6
CONTINUOUS
10
5.46827
20
-3.59638
11
5.46452
21
-3.5945
0
LINE
8
BLACK
6
CONTINUOUS
10
5.46452
20
-3.5945
11
5.46381
21
-3.59398
0
LINE
8
BLACK
6
CONTINUOUS
10
5.46381
20
-3.59398
11
5.46376
21
-3.59395
0
LINE
8
BLACK
6
CONTINUOUS
10
5.46376
20
-3.59395
11
5.46188
21
-3.59208
0
LINE
8
BLACK
6
CONTINUOUS
10
5.46188
20
-3.59208
11
5.46137
21
-3.59135
0
LINE
8
BLACK
6
CONTINUOUS
10
5.46137
20
-3.59135
11
5.46133
21
-3.59131
0
LINE
8
BLACK
6
CONTINUOUS
10
5.46133
20
-3.59131
11
5.45945
21
-3.58756
0
LINE
8
BLACK
6
CONTINUOUS
10
5.45945
20
-3.58756
11
5.45916
21
-3.58658
0
LINE
8
BLACK
6
CONTINUOUS
10
5.45916
20
-3.58658
11
5.4592
21
-3.58641
0
LINE
8
BLACK
6
CONTINUOUS
10
5.4592
20
-3.58641
11
5.45914
21
-3.58624
0
LINE
8
BLACK
6
CONTINUOUS
10
5.45914
20
-3.58624
11
5.45914
21
-3.57874
0
LINE
8
BLACK
6
CONTINUOUS
10
5.45914
20
-3.57874
11
5.45932
21
-3.57773
0
LINE
8
BLACK
6
CONTINUOUS
10
5.45932
20
-3.57773
11
5.45943
21
-3.57759
0
LINE
8
BLACK
6
CONTINUOUS
10
5.45943
20
-3.57759
11
5.45945
21
-3.57742
0
LINE
8
BLACK
6
CONTINUOUS
10
5.45945
20
-3.57742
11
5.46133
21
-3.57367
0
LINE
8
BLACK
6
CONTINUOUS
10
5.46133
20
-3.57367
11
5.46185
21
-3.57296
0
LINE
8
BLACK
6
CONTINUOUS
10
5.46185
20
-3.57296
11
5.46188
21
-3.5729
0
LINE
8
BLACK
6
CONTINUOUS
10
5.46188
20
-3.5729
11
5.46376
21
-3.57103
0
LINE
8
BLACK
6
CONTINUOUS
10
5.46376
20
-3.57103
11
5.46448
21
-3.57052
0
LINE
8
BLACK
6
CONTINUOUS
10
5.46448
20
-3.57052
11
5.46452
21
-3.57047
0
LINE
8
BLACK
6
CONTINUOUS
10
5.46452
20
-3.57047
11
5.46827
21
-3.5686
0
LINE
8
BLACK
6
CONTINUOUS
10
5.46827
20
-3.5686
11
5.46926
21
-3.56831
0
LINE
8
BLACK
6
CONTINUOUS
10
5.46926
20
-3.56831
11
5.46943
21
-3.56835
0
LINE
8
BLACK
6
CONTINUOUS
10
5.46943
20
-3.56835
11
5.46959
21
-3.56829
0
LINE
8
BLACK
6
CONTINUOUS
10
5.46959
20
-3.56829
11
5.48459
21
-3.56829
0
LINE
8
BLACK
6
CONTINUOUS
10
5.48459
20
-3.56829
11
5.48517
21
-3.56839
0
LINE
8
BLACK
6
CONTINUOUS
10
5.46759
20
-3.57554
11
5.4664
21
-3.57674
0
LINE
8
BLACK
6
CONTINUOUS
10
5.4664
20
-3.57674
11
5.46505
21
-3.57944
0
LINE
8
BLACK
6
CONTINUOUS
10
5.46505
20
-3.57944
11
5.46505
21
-3.58554
0
LINE
8
BLACK
6
CONTINUOUS
10
5.46505
20
-3.58554
11
5.4664
21
-3.58824
0
LINE
8
BLACK
6
CONTINUOUS
10
5.4664
20
-3.58824
11
5.46759
21
-3.58944
0
LINE
8
BLACK
6
CONTINUOUS
10
5.46759
20
-3.58944
11
5.47029
21
-3.59079
0
LINE
8
BLACK
6
CONTINUOUS
10
5.47029
20
-3.59079
11
5.47827
21
-3.59079
0
LINE
8
BLACK
6
CONTINUOUS
10
5.47827
20
-3.59079
11
5.48097
21
-3.58944
0
LINE
8
BLACK
6
CONTINUOUS
10
5.48097
20
-3.58944
11
5.48216
21
-3.58824
0
LINE
8
BLACK
6
CONTINUOUS
10
5.48216
20
-3.58824
11
5.48351
21
-3.58554
0
LINE
8
BLACK
6
CONTINUOUS
10
5.48351
20
-3.58554
11
5.48351
21
-3.57944
0
LINE
8
BLACK
6
CONTINUOUS
10
5.48351
20
-3.57944
11
5.48216
21
-3.57674
0
LINE
8
BLACK
6
CONTINUOUS
10
5.48216
20
-3.57674
11
5.48097
21
-3.57554
0
LINE
8
BLACK
6
CONTINUOUS
10
5.48097
20
-3.57554
11
5.47827
21
-3.57419
0
LINE
8
BLACK
6
CONTINUOUS
10
5.47827
20
-3.57419
11
5.47029
21
-3.57419
0
LINE
8
BLACK
6
CONTINUOUS
10
5.47029
20
-3.57419
11
5.46759
21
-3.57554
0
LINE
8
BLACK
6
CONTINUOUS
10
5.74551
20
-3.57483
11
5.74705
21
-3.57613
0
LINE
8
BLACK
6
CONTINUOUS
10
5.74705
20
-3.57613
11
5.7474
21
-3.57812
0
LINE
8
BLACK
6
CONTINUOUS
10
5.7474
20
-3.57812
11
5.74639
21
-3.57987
0
LINE
8
BLACK
6
CONTINUOUS
10
5.74639
20
-3.57987
11
5.7445
21
-3.58056
0
LINE
8
BLACK
6
CONTINUOUS
10
5.7445
20
-3.58056
11
5.6755
21
-3.58056
0
LINE
8
BLACK
6
CONTINUOUS
10
5.6755
20
-3.58056
11
5.67449
21
-3.58038
0
LINE
8
BLACK
6
CONTINUOUS
10
5.67449
20
-3.58038
11
5.67295
21
-3.57908
0
LINE
8
BLACK
6
CONTINUOUS
10
5.67295
20
-3.57908
11
5.6726
21
-3.57709
0
LINE
8
BLACK
6
CONTINUOUS
10
5.6726
20
-3.57709
11
5.67361
21
-3.57534
0
LINE
8
BLACK
6
CONTINUOUS
10
5.67361
20
-3.57534
11
5.6755
21
-3.57465
0
LINE
8
BLACK
6
CONTINUOUS
10
5.6755
20
-3.57465
11
5.7445
21
-3.57465
0
LINE
8
BLACK
6
CONTINUOUS
10
5.7445
20
-3.57465
11
5.74551
21
-3.57483
0
LINE
8
BLACK
6
CONTINUOUS
10
5.46447
20
-3.54966
11
5.46473
21
-3.54964
0
LINE
8
BLACK
6
CONTINUOUS
10
5.46473
20
-3.54964
11
5.46536
21
-3.55008
0
LINE
8
BLACK
6
CONTINUOUS
10
5.46536
20
-3.55008
11
5.46606
21
-3.55041
0
LINE
8
BLACK
6
CONTINUOUS
10
5.46606
20
-3.55041
11
5.46793
21
-3.55228
0
LINE
8
BLACK
6
CONTINUOUS
10
5.46793
20
-3.55228
11
5.46815
21
-3.5526
0
LINE
8
BLACK
6
CONTINUOUS
10
5.46815
20
-3.5526
11
5.46826
21
-3.55267
0
LINE
8
BLACK
6
CONTINUOUS
10
5.46826
20
-3.55267
11
5.4683
21
-3.5528
0
LINE
8
BLACK
6
CONTINUOUS
10
5.4683
20
-3.5528
11
5.4683
21
-3.55281
0
LINE
8
BLACK
6
CONTINUOUS
10
5.4683
20
-3.55281
11
5.4684
21
-3.55289
0
LINE
8
BLACK
6
CONTINUOUS
10
5.4684
20
-3.55289
11
5.46841
21
-3.55297
0
LINE
8
BLACK
6
CONTINUOUS
10
5.46841
20
-3.55297
11
5.46852
21
-3.55312
0
LINE
8
BLACK
6
CONTINUOUS
10
5.46852
20
-3.55312
11
5.46859
21
-3.55388
0
LINE
8
BLACK
6
CONTINUOUS
10
5.46859
20
-3.55388
11
5.46878
21
-3.55463
0
LINE
8
BLACK
6
CONTINUOUS
10
5.46878
20
-3.55463
11
5.46873
21
-3.55475
0
LINE
8
BLACK
6
CONTINUOUS
10
5.46873
20
-3.55475
11
5.46875
21
-3.55488
0
LINE
8
BLACK
6
CONTINUOUS
10
5.46875
20
-3.55488
11
5.46868
21
-3.555
0
LINE
8
BLACK
6
CONTINUOUS
10
5.46868
20
-3.555
11
5.4687
21
-3.55513
0
LINE
8
BLACK
6
CONTINUOUS
10
5.4687
20
-3.55513
11
5.46826
21
-3.55576
0
LINE
8
BLACK
6
CONTINUOUS
10
5.46826
20
-3.55576
11
5.46793
21
-3.55646
0
LINE
8
BLACK
6
CONTINUOUS
10
5.46793
20
-3.55646
11
5.46606
21
-3.55833
0
LINE
8
BLACK
6
CONTINUOUS
10
5.46606
20
-3.55833
11
5.46574
21
-3.55855
0
LINE
8
BLACK
6
CONTINUOUS
10
5.46574
20
-3.55855
11
5.46566
21
-3.55866
0
LINE
8
BLACK
6
CONTINUOUS
10
5.46566
20
-3.55866
11
5.46554
21
-3.5587
0
LINE
8
BLACK
6
CONTINUOUS
10
5.46554
20
-3.5587
11
5.46522
21
-3.55892
0
LINE
8
BLACK
6
CONTINUOUS
10
5.46522
20
-3.55892
11
5.46445
21
-3.55899
0
LINE
8
BLACK
6
CONTINUOUS
10
5.46445
20
-3.55899
11
5.46371
21
-3.55918
0
LINE
8
BLACK
6
CONTINUOUS
10
5.46371
20
-3.55918
11
5.46347
21
-3.55907
0
LINE
8
BLACK
6
CONTINUOUS
10
5.46347
20
-3.55907
11
5.4632
21
-3.5591
0
LINE
8
BLACK
6
CONTINUOUS
10
5.4632
20
-3.5591
11
5.46258
21
-3.55865
0
LINE
8
BLACK
6
CONTINUOUS
10
5.46258
20
-3.55865
11
5.46188
21
-3.55833
0
LINE
8
BLACK
6
CONTINUOUS
10
5.46188
20
-3.55833
11
5.46001
21
-3.55646
0
LINE
8
BLACK
6
CONTINUOUS
10
5.46001
20
-3.55646
11
5.45978
21
-3.55614
0
LINE
8
BLACK
6
CONTINUOUS
10
5.45978
20
-3.55614
11
5.45967
21
-3.55606
0
LINE
8
BLACK
6
CONTINUOUS
10
5.45967
20
-3.55606
11
5.45964
21
-3.55594
0
LINE
8
BLACK
6
CONTINUOUS
10
5.45964
20
-3.55594
11
5.45964
21
-3.55593
0
LINE
8
BLACK
6
CONTINUOUS
10
5.45964
20
-3.55593
11
5.45954
21
-3.55584
0
LINE
8
BLACK
6
CONTINUOUS
10
5.45954
20
-3.55584
11
5.45952
21
-3.55577
0
LINE
8
BLACK
6
CONTINUOUS
10
5.45952
20
-3.55577
11
5.45942
21
-3.55562
0
LINE
8
BLACK
6
CONTINUOUS
10
5.45942
20
-3.55562
11
5.45935
21
-3.55485
0
LINE
8
BLACK
6
CONTINUOUS
10
5.45935
20
-3.55485
11
5.45915
21
-3.55411
0
LINE
8
BLACK
6
CONTINUOUS
10
5.45915
20
-3.55411
11
5.45921
21
-3.55399
0
LINE
8
BLACK
6
CONTINUOUS
10
5.45921
20
-3.55399
11
5.45919
21
-3.55386
0
LINE
8
BLACK
6
CONTINUOUS
10
5.45919
20
-3.55386
11
5.45925
21
-3.55374
0
LINE
8
BLACK
6
CONTINUOUS
10
5.45925
20
-3.55374
11
5.45924
21
-3.5536
0
LINE
8
BLACK
6
CONTINUOUS
10
5.45924
20
-3.5536
11
5.45968
21
-3.55298
0
LINE
8
BLACK
6
CONTINUOUS
10
5.45968
20
-3.55298
11
5.46001
21
-3.55228
0
LINE
8
BLACK
6
CONTINUOUS
10
5.46001
20
-3.55228
11
5.46188
21
-3.55041
0
LINE
8
BLACK
6
CONTINUOUS
10
5.46188
20
-3.55041
11
5.4622
21
-3.55018
0
LINE
8
BLACK
6
CONTINUOUS
10
5.4622
20
-3.55018
11
5.46227
21
-3.55007
0
LINE
8
BLACK
6
CONTINUOUS
10
5.46227
20
-3.55007
11
5.4624
21
-3.55004
0
LINE
8
BLACK
6
CONTINUOUS
10
5.4624
20
-3.55004
11
5.46272
21
-3.54982
0
LINE
8
BLACK
6
CONTINUOUS
10
5.46272
20
-3.54982
11
5.46348
21
-3.54975
0
LINE
8
BLACK
6
CONTINUOUS
10
5.46348
20
-3.54975
11
5.46423
21
-3.54955
0
LINE
8
BLACK
6
CONTINUOUS
10
5.46423
20
-3.54955
11
5.46447
21
-3.54966
0
LINE
8
BLACK
6
CONTINUOUS
10
5.50373
20
-3.51123
11
5.50442
21
-3.51312
0
LINE
8
BLACK
6
CONTINUOUS
10
5.50442
20
-3.51312
11
5.50442
21
-3.5375
0
LINE
8
BLACK
6
CONTINUOUS
10
5.50442
20
-3.5375
11
5.50434
21
-3.53793
0
LINE
8
BLACK
6
CONTINUOUS
10
5.50434
20
-3.53793
11
5.50436
21
-3.53807
0
LINE
8
BLACK
6
CONTINUOUS
10
5.50436
20
-3.53807
11
5.5043
21
-3.53817
0
LINE
8
BLACK
6
CONTINUOUS
10
5.5043
20
-3.53817
11
5.50424
21
-3.53851
0
LINE
8
BLACK
6
CONTINUOUS
10
5.50424
20
-3.53851
11
5.50373
21
-3.53911
0
LINE
8
BLACK
6
CONTINUOUS
10
5.50373
20
-3.53911
11
5.50331
21
-3.5398
0
LINE
8
BLACK
6
CONTINUOUS
10
5.50331
20
-3.5398
11
5.50309
21
-3.53987
0
LINE
8
BLACK
6
CONTINUOUS
10
5.50309
20
-3.53987
11
5.50294
21
-3.54005
0
LINE
8
BLACK
6
CONTINUOUS
10
5.50294
20
-3.54005
11
5.50216
21
-3.54019
0
LINE
8
BLACK
6
CONTINUOUS
10
5.50216
20
-3.54019
11
5.5014
21
-3.54045
0
LINE
8
BLACK
6
CONTINUOUS
10
5.5014
20
-3.54045
11
5.50118
21
-3.54036
0
LINE
8
BLACK
6
CONTINUOUS
10
5.50118
20
-3.54036
11
5.50095
21
-3.5404
0
LINE
8
BLACK
6
CONTINUOUS
10
5.50095
20
-3.5404
11
5.50026
21
-3.54001
0
LINE
8
BLACK
6
CONTINUOUS
10
5.50026
20
-3.54001
11
5.49952
21
-3.53972
0
LINE
8
BLACK
6
CONTINUOUS
10
5.49952
20
-3.53972
11
5.48928
21
-3.53076
0
LINE
8
BLACK
6
CONTINUOUS
10
5.48928
20
-3.53076
11
5.48924
21
-3.53101
0
LINE
8
BLACK
6
CONTINUOUS
10
5.48924
20
-3.53101
11
5.48913
21
-3.53114
0
LINE
8
BLACK
6
CONTINUOUS
10
5.48913
20
-3.53114
11
5.48911
21
-3.53132
0
LINE
8
BLACK
6
CONTINUOUS
10
5.48911
20
-3.53132
11
5.48723
21
-3.53507
0
LINE
8
BLACK
6
CONTINUOUS
10
5.48723
20
-3.53507
11
5.48671
21
-3.53578
0
LINE
8
BLACK
6
CONTINUOUS
10
5.48671
20
-3.53578
11
5.48668
21
-3.53583
0
LINE
8
BLACK
6
CONTINUOUS
10
5.48668
20
-3.53583
11
5.4848
21
-3.53771
0
LINE
8
BLACK
6
CONTINUOUS
10
5.4848
20
-3.53771
11
5.48408
21
-3.53821
0
LINE
8
BLACK
6
CONTINUOUS
10
5.48408
20
-3.53821
11
5.48404
21
-3.53826
0
LINE
8
BLACK
6
CONTINUOUS
10
5.48404
20
-3.53826
11
5.48029
21
-3.54014
0
LINE
8
BLACK
6
CONTINUOUS
10
5.48029
20
-3.54014
11
5.4793
21
-3.54043
0
LINE
8
BLACK
6
CONTINUOUS
10
5.4793
20
-3.54043
11
5.47913
21
-3.54039
0
LINE
8
BLACK
6
CONTINUOUS
10
5.47913
20
-3.54039
11
5.47897
21
-3.54045
0
LINE
8
BLACK
6
CONTINUOUS
10
5.47897
20
-3.54045
11
5.46959
21
-3.54045
0
LINE
8
BLACK
6
CONTINUOUS
10
5.46959
20
-3.54045
11
5.46858
21
-3.54027
0
LINE
8
BLACK
6
CONTINUOUS
10
5.46858
20
-3.54027
11
5.46845
21
-3.54016
0
LINE
8
BLACK
6
CONTINUOUS
10
5.46845
20
-3.54016
11
5.46827
21
-3.54014
0
LINE
8
BLACK
6
CONTINUOUS
10
5.46827
20
-3.54014
11
5.46452
21
-3.53826
0
LINE
8
BLACK
6
CONTINUOUS
10
5.46452
20
-3.53826
11
5.46381
21
-3.53774
0
LINE
8
BLACK
6
CONTINUOUS
10
5.46381
20
-3.53774
11
5.46376
21
-3.53771
0
LINE
8
BLACK
6
CONTINUOUS
10
5.46376
20
-3.53771
11
5.46188
21
-3.53583
0
LINE
8
BLACK
6
CONTINUOUS
10
5.46188
20
-3.53583
11
5.46137
21
-3.53511
0
LINE
8
BLACK
6
CONTINUOUS
10
5.46137
20
-3.53511
11
5.46133
21
-3.53507
0
LINE
8
BLACK
6
CONTINUOUS
10
5.46133
20
-3.53507
11
5.45945
21
-3.53132
0
LINE
8
BLACK
6
CONTINUOUS
10
5.45945
20
-3.53132
11
5.45916
21
-3.53033
0
LINE
8
BLACK
6
CONTINUOUS
10
5.45916
20
-3.53033
11
5.4592
21
-3.53016
0
LINE
8
BLACK
6
CONTINUOUS
10
5.4592
20
-3.53016
11
5.45914
21
-3.53
0
LINE
8
BLACK
6
CONTINUOUS
10
5.45914
20
-3.53
11
5.45914
21
-3.51875
0
LINE
8
BLACK
6
CONTINUOUS
10
5.45914
20
-3.51875
11
5.45932
21
-3.51774
0
LINE
8
BLACK
6
CONTINUOUS
10
5.45932
20
-3.51774
11
5.45943
21
-3.5176
0
LINE
8
BLACK
6
CONTINUOUS
10
5.45943
20
-3.5176
11
5.45945
21
-3.51743
0
LINE
8
BLACK
6
CONTINUOUS
10
5.45945
20
-3.51743
11
5.46133
21
-3.51368
0
LINE
8
BLACK
6
CONTINUOUS
10
5.46133
20
-3.51368
11
5.46185
21
-3.51297
0
LINE
8
BLACK
6
CONTINUOUS
10
5.46185
20
-3.51297
11
5.46188
21
-3.51291
0
LINE
8
BLACK
6
CONTINUOUS
10
5.46188
20
-3.51291
11
5.46376
21
-3.51104
0
LINE
8
BLACK
6
CONTINUOUS
10
5.46376
20
-3.51104
11
5.4646
21
-3.51045
0
LINE
8
BLACK
6
CONTINUOUS
10
5.4646
20
-3.51045
11
5.46661
21
-3.51027
0
LINE
8
BLACK
6
CONTINUOUS
10
5.46661
20
-3.51027
11
5.46826
21
-3.51143
0
LINE
8
BLACK
6
CONTINUOUS
10
5.46826
20
-3.51143
11
5.46878
21
-3.51338
0
LINE
8
BLACK
6
CONTINUOUS
10
5.46878
20
-3.51338
11
5.46793
21
-3.51521
0
LINE
8
BLACK
6
CONTINUOUS
10
5.46793
20
-3.51521
11
5.4664
21
-3.51675
0
LINE
8
BLACK
6
CONTINUOUS
10
5.4664
20
-3.51675
11
5.46505
21
-3.51944
0
LINE
8
BLACK
6
CONTINUOUS
10
5.46505
20
-3.51944
11
5.46505
21
-3.5293
0
LINE
8
BLACK
6
CONTINUOUS
10
5.46505
20
-3.5293
11
5.4664
21
-3.532
0
LINE
8
BLACK
6
CONTINUOUS
10
5.4664
20
-3.532
11
5.46759
21
-3.53319
0
LINE
8
BLACK
6
CONTINUOUS
10
5.46759
20
-3.53319
11
5.47029
21
-3.53454
0
LINE
8
BLACK
6
CONTINUOUS
10
5.47029
20
-3.53454
11
5.47827
21
-3.53454
0
LINE
8
BLACK
6
CONTINUOUS
10
5.47827
20
-3.53454
11
5.48097
21
-3.53319
0
LINE
8
BLACK
6
CONTINUOUS
10
5.48097
20
-3.53319
11
5.48216
21
-3.532
0
LINE
8
BLACK
6
CONTINUOUS
10
5.48216
20
-3.532
11
5.48351
21
-3.5293
0
LINE
8
BLACK
6
CONTINUOUS
10
5.48351
20
-3.5293
11
5.48351
21
-3.52437
0
LINE
8
BLACK
6
CONTINUOUS
10
5.48351
20
-3.52437
11
5.48359
21
-3.52393
0
LINE
8
BLACK
6
CONTINUOUS
10
5.48359
20
-3.52393
11
5.48357
21
-3.5238
0
LINE
8
BLACK
6
CONTINUOUS
10
5.48357
20
-3.5238
11
5.48363
21
-3.52369
0
LINE
8
BLACK
6
CONTINUOUS
10
5.48363
20
-3.52369
11
5.48369
21
-3.52336
0
LINE
8
BLACK
6
CONTINUOUS
10
5.48369
20
-3.52336
11
5.4842
21
-3.52275
0
LINE
8
BLACK
6
CONTINUOUS
10
5.4842
20
-3.52275
11
5.48461
21
-3.52207
0
LINE
8
BLACK
6
CONTINUOUS
10
5.48461
20
-3.52207
11
5.48484
21
-3.522
0
LINE
8
BLACK
6
CONTINUOUS
10
5.48484
20
-3.522
11
5.48499
21
-3.52181
0
LINE
8
BLACK
6
CONTINUOUS
10
5.48499
20
-3.52181
11
5.48577
21
-3.52168
0
LINE
8
BLACK
6
CONTINUOUS
10
5.48577
20
-3.52168
11
5.48653
21
-3.52142
0
LINE
8
BLACK
6
CONTINUOUS
10
5.48653
20
-3.52142
11
5.48675
21
-3.5215
0
LINE
8
BLACK
6
CONTINUOUS
10
5.48675
20
-3.5215
11
5.48698
21
-3.52146
0
LINE
8
BLACK
6
CONTINUOUS
10
5.48698
20
-3.52146
11
5.48767
21
-3.52186
0
LINE
8
BLACK
6
CONTINUOUS
10
5.48767
20
-3.52186
11
5.48841
21
-3.52215
0
LINE
8
BLACK
6
CONTINUOUS
10
5.48841
20
-3.52215
11
5.49851
21
-3.53099
0
LINE
8
BLACK
6
CONTINUOUS
10
5.49851
20
-3.53099
11
5.49851
21
-3.51312
0
LINE
8
BLACK
6
CONTINUOUS
10
5.49851
20
-3.51312
11
5.49869
21
-3.51211
0
LINE
8
BLACK
6
CONTINUOUS
10
5.49869
20
-3.51211
11
5.49999
21
-3.51057
0
LINE
8
BLACK
6
CONTINUOUS
10
5.49999
20
-3.51057
11
5.50198
21
-3.51022
0
LINE
8
BLACK
6
CONTINUOUS
10
5.50198
20
-3.51022
11
5.50373
21
-3.51123
0
LINE
8
BLACK
6
CONTINUOUS
10
5.69774
20
-3.47574
11
5.69781
21
-3.47573
0
LINE
8
BLACK
6
CONTINUOUS
10
5.69781
20
-3.47573
11
5.70343
21
-3.47761
0
LINE
8
BLACK
6
CONTINUOUS
10
5.70343
20
-3.47761
11
5.70433
21
-3.4781
0
LINE
8
BLACK
6
CONTINUOUS
10
5.70433
20
-3.4781
11
5.70539
21
-3.47982
0
LINE
8
BLACK
6
CONTINUOUS
10
5.70539
20
-3.47982
11
5.70509
21
-3.48182
0
LINE
8
BLACK
6
CONTINUOUS
10
5.70509
20
-3.48182
11
5.70358
21
-3.48316
0
LINE
8
BLACK
6
CONTINUOUS
10
5.70358
20
-3.48316
11
5.70156
21
-3.48321
0
LINE
8
BLACK
6
CONTINUOUS
10
5.70156
20
-3.48321
11
5.69639
21
-3.48149
0
LINE
8
BLACK
6
CONTINUOUS
10
5.69639
20
-3.48149
11
5.6882
21
-3.48149
0
LINE
8
BLACK
6
CONTINUOUS
10
5.6882
20
-3.48149
11
5.6855
21
-3.48284
0
LINE
8
BLACK
6
CONTINUOUS
10
5.6855
20
-3.48284
11
5.6843
21
-3.48403
0
LINE
8
BLACK
6
CONTINUOUS
10
5.6843
20
-3.48403
11
5.68295
21
-3.48673
0
LINE
8
BLACK
6
CONTINUOUS
10
5.68295
20
-3.48673
11
5.68295
21
-3.48909
0
LINE
8
BLACK
6
CONTINUOUS
10
5.68295
20
-3.48909
11
5.6843
21
-3.49179
0
LINE
8
BLACK
6
CONTINUOUS
10
5.6843
20
-3.49179
11
5.6855
21
-3.49298
0
LINE
8
BLACK
6
CONTINUOUS
10
5.6855
20
-3.49298
11
5.68853
21
-3.4945
0
LINE
8
BLACK
6
CONTINUOUS
10
5.68853
20
-3.4945
11
5.69571
21
-3.49629
0
LINE
8
BLACK
6
CONTINUOUS
10
5.69571
20
-3.49629
11
5.69618
21
-3.4965
0
LINE
8
BLACK
6
CONTINUOUS
10
5.69618
20
-3.4965
11
5.69632
21
-3.49652
0
LINE
8
BLACK
6
CONTINUOUS
10
5.69632
20
-3.49652
11
5.70007
21
-3.49839
0
LINE
8
BLACK
6
CONTINUOUS
10
5.70007
20
-3.49839
11
5.70078
21
-3.49892
0
LINE
8
BLACK
6
CONTINUOUS
10
5.70078
20
-3.49892
11
5.70084
21
-3.49895
0
LINE
8
BLACK
6
CONTINUOUS
10
5.70084
20
-3.49895
11
5.70271
21
-3.50082
0
LINE
8
BLACK
6
CONTINUOUS
10
5.70271
20
-3.50082
11
5.70322
21
-3.50154
0
LINE
8
BLACK
6
CONTINUOUS
10
5.70322
20
-3.50154
11
5.70326
21
-3.50159
0
LINE
8
BLACK
6
CONTINUOUS
10
5.70326
20
-3.50159
11
5.70514
21
-3.50534
0
LINE
8
BLACK
6
CONTINUOUS
10
5.70514
20
-3.50534
11
5.70543
21
-3.50632
0
LINE
8
BLACK
6
CONTINUOUS
10
5.70543
20
-3.50632
11
5.70539
21
-3.50649
0
LINE
8
BLACK
6
CONTINUOUS
10
5.70539
20
-3.50649
11
5.70545
21
-3.50666
0
LINE
8
BLACK
6
CONTINUOUS
10
5.70545
20
-3.50666
11
5.70545
21
-3.51041
0
LINE
8
BLACK
6
CONTINUOUS
10
5.70545
20
-3.51041
11
5.70527
21
-3.51142
0
LINE
8
BLACK
6
CONTINUOUS
10
5.70527
20
-3.51142
11
5.70516
21
-3.51155
0
LINE
8
BLACK
6
CONTINUOUS
10
5.70516
20
-3.51155
11
5.70514
21
-3.51173
0
LINE
8
BLACK
6
CONTINUOUS
10
5.70514
20
-3.51173
11
5.70326
21
-3.51548
0
LINE
8
BLACK
6
CONTINUOUS
10
5.70326
20
-3.51548
11
5.70274
21
-3.51619
0
LINE
8
BLACK
6
CONTINUOUS
10
5.70274
20
-3.51619
11
5.70271
21
-3.51624
0
LINE
8
BLACK
6
CONTINUOUS
10
5.70271
20
-3.51624
11
5.70084
21
-3.51812
0
LINE
8
BLACK
6
CONTINUOUS
10
5.70084
20
-3.51812
11
5.70011
21
-3.51863
0
LINE
8
BLACK
6
CONTINUOUS
10
5.70011
20
-3.51863
11
5.70007
21
-3.51867
0
LINE
8
BLACK
6
CONTINUOUS
10
5.70007
20
-3.51867
11
5.69632
21
-3.52055
0
LINE
8
BLACK
6
CONTINUOUS
10
5.69632
20
-3.52055
11
5.69534
21
-3.52084
0
LINE
8
BLACK
6
CONTINUOUS
10
5.69534
20
-3.52084
11
5.69516
21
-3.5208
0
LINE
8
BLACK
6
CONTINUOUS
10
5.69516
20
-3.5208
11
5.695
21
-3.52086
0
LINE
8
BLACK
6
CONTINUOUS
10
5.695
20
-3.52086
11
5.68562
21
-3.52086
0
LINE
8
BLACK
6
CONTINUOUS
10
5.68562
20
-3.52086
11
5.68475
21
-3.52071
0
LINE
8
BLACK
6
CONTINUOUS
10
5.68475
20
-3.52071
11
5.68469
21
-3.52071
0
LINE
8
BLACK
6
CONTINUOUS
10
5.68469
20
-3.52071
11
5.67907
21
-3.51883
0
LINE
8
BLACK
6
CONTINUOUS
10
5.67907
20
-3.51883
11
5.67816
21
-3.51834
0
LINE
8
BLACK
6
CONTINUOUS
10
5.67816
20
-3.51834
11
5.67711
21
-3.51662
0
LINE
8
BLACK
6
CONTINUOUS
10
5.67711
20
-3.51662
11
5.6774
21
-3.51463
0
LINE
8
BLACK
6
CONTINUOUS
10
5.6774
20
-3.51463
11
5.67891
21
-3.51329
0
LINE
8
BLACK
6
CONTINUOUS
10
5.67891
20
-3.51329
11
5.68093
21
-3.51323
0
LINE
8
BLACK
6
CONTINUOUS
10
5.68093
20
-3.51323
11
5.6861
21
-3.51495
0
LINE
8
BLACK
6
CONTINUOUS
10
5.6861
20
-3.51495
11
5.6943
21
-3.51495
0
LINE
8
BLACK
6
CONTINUOUS
10
5.6943
20
-3.51495
11
5.697
21
-3.5136
0
LINE
8
BLACK
6
CONTINUOUS
10
5.697
20
-3.5136
11
5.6982
21
-3.51241
0
LINE
8
BLACK
6
CONTINUOUS
10
5.6982
20
-3.51241
11
5.69954
21
-3.50971
0
LINE
8
BLACK
6
CONTINUOUS
10
5.69954
20
-3.50971
11
5.69954
21
-3.50735
0
LINE
8
BLACK
6
CONTINUOUS
10
5.69954
20
-3.50735
11
5.6982
21
-3.50466
0
LINE
8
BLACK
6
CONTINUOUS
10
5.6982
20
-3.50466
11
5.697
21
-3.50346
0
LINE
8
BLACK
6
CONTINUOUS
10
5.697
20
-3.50346
11
5.69397
21
-3.50194
0
LINE
8
BLACK
6
CONTINUOUS
10
5.69397
20
-3.50194
11
5.68678
21
-3.50015
0
LINE
8
BLACK
6
CONTINUOUS
10
5.68678
20
-3.50015
11
5.68632
21
-3.49994
0
LINE
8
BLACK
6
CONTINUOUS
10
5.68632
20
-3.49994
11
5.68618
21
-3.49992
0
LINE
8
BLACK
6
CONTINUOUS
10
5.68618
20
-3.49992
11
5.68243
21
-3.49805
0
LINE
8
BLACK
6
CONTINUOUS
10
5.68243
20
-3.49805
11
5.68172
21
-3.49752
0
LINE
8
BLACK
6
CONTINUOUS
10
5.68172
20
-3.49752
11
5.68166
21
-3.4975
0
LINE
8
BLACK
6
CONTINUOUS
10
5.68166
20
-3.4975
11
5.67979
21
-3.49562
0
LINE
8
BLACK
6
CONTINUOUS
10
5.67979
20
-3.49562
11
5.67928
21
-3.4949
0
LINE
8
BLACK
6
CONTINUOUS
10
5.67928
20
-3.4949
11
5.67923
21
-3.49485
0
LINE
8
BLACK
6
CONTINUOUS
10
5.67923
20
-3.49485
11
5.67736
21
-3.49111
0
LINE
8
BLACK
6
CONTINUOUS
10
5.67736
20
-3.49111
11
5.67707
21
-3.49012
0
LINE
8
BLACK
6
CONTINUOUS
10
5.67707
20
-3.49012
11
5.67711
21
-3.48995
0
LINE
8
BLACK
6
CONTINUOUS
10
5.67711
20
-3.48995
11
5.67705
21
-3.48978
0
LINE
8
BLACK
6
CONTINUOUS
10
5.67705
20
-3.48978
11
5.67705
21
-3.48604
0
LINE
8
BLACK
6
CONTINUOUS
10
5.67705
20
-3.48604
11
5.67723
21
-3.48503
0
LINE
8
BLACK
6
CONTINUOUS
10
5.67723
20
-3.48503
11
5.67734
21
-3.48489
0
LINE
8
BLACK
6
CONTINUOUS
10
5.67734
20
-3.48489
11
5.67736
21
-3.48471
0
LINE
8
BLACK
6
CONTINUOUS
10
5.67736
20
-3.48471
11
5.67923
21
-3.48097
0
LINE
8
BLACK
6
CONTINUOUS
10
5.67923
20
-3.48097
11
5.67976
21
-3.48026
0
LINE
8
BLACK
6
CONTINUOUS
10
5.67976
20
-3.48026
11
5.67979
21
-3.4802
0
LINE
8
BLACK
6
CONTINUOUS
10
5.67979
20
-3.4802
11
5.68166
21
-3.47832
0
LINE
8
BLACK
6
CONTINUOUS
10
5.68166
20
-3.47832
11
5.68238
21
-3.47782
0
LINE
8
BLACK
6
CONTINUOUS
10
5.68238
20
-3.47782
11
5.68243
21
-3.47777
0
LINE
8
BLACK
6
CONTINUOUS
10
5.68243
20
-3.47777
11
5.68618
21
-3.4759
0
LINE
8
BLACK
6
CONTINUOUS
10
5.68618
20
-3.4759
11
5.68716
21
-3.4756
0
LINE
8
BLACK
6
CONTINUOUS
10
5.68716
20
-3.4756
11
5.68733
21
-3.47564
0
LINE
8
BLACK
6
CONTINUOUS
10
5.68733
20
-3.47564
11
5.6875
21
-3.47558
0
LINE
8
BLACK
6
CONTINUOUS
10
5.6875
20
-3.47558
11
5.69687
21
-3.47558
0
LINE
8
BLACK
6
CONTINUOUS
10
5.69687
20
-3.47558
11
5.69774
21
-3.47574
0
LINE
8
BLACK
6
CONTINUOUS
10
5.73538
20
-3.47576
11
5.73551
21
-3.47587
0
LINE
8
BLACK
6
CONTINUOUS
10
5.73551
20
-3.47587
11
5.73569
21
-3.4759
0
LINE
8
BLACK
6
CONTINUOUS
10
5.73569
20
-3.4759
11
5.73944
21
-3.47777
0
LINE
8
BLACK
6
CONTINUOUS
10
5.73944
20
-3.47777
11
5.74015
21
-3.4783
0
LINE
8
BLACK
6
CONTINUOUS
10
5.74015
20
-3.4783
11
5.74021
21
-3.47832
0
LINE
8
BLACK
6
CONTINUOUS
10
5.74021
20
-3.47832
11
5.74396
21
-3.48207
0
LINE
8
BLACK
6
CONTINUOUS
10
5.74396
20
-3.48207
11
5.74454
21
-3.48291
0
LINE
8
BLACK
6
CONTINUOUS
10
5.74454
20
-3.48291
11
5.74457
21
-3.4832
0
LINE
8
BLACK
6
CONTINUOUS
10
5.74457
20
-3.4832
11
5.74473
21
-3.48344
0
LINE
8
BLACK
6
CONTINUOUS
10
5.74473
20
-3.48344
11
5.74661
21
-3.49094
0
LINE
8
BLACK
6
CONTINUOUS
10
5.74661
20
-3.49094
11
5.74665
21
-3.49153
0
LINE
8
BLACK
6
CONTINUOUS
10
5.74665
20
-3.49153
11
5.74669
21
-3.49166
0
LINE
8
BLACK
6
CONTINUOUS
10
5.74669
20
-3.49166
11
5.74669
21
-3.50478
0
LINE
8
BLACK
6
CONTINUOUS
10
5.74669
20
-3.50478
11
5.74659
21
-3.50536
0
LINE
8
BLACK
6
CONTINUOUS
10
5.74659
20
-3.50536
11
5.74661
21
-3.5055
0
LINE
8
BLACK
6
CONTINUOUS
10
5.74661
20
-3.5055
11
5.74473
21
-3.513
0
LINE
8
BLACK
6
CONTINUOUS
10
5.74473
20
-3.513
11
5.74431
21
-3.51393
0
LINE
8
BLACK
6
CONTINUOUS
10
5.74431
20
-3.51393
11
5.74408
21
-3.51411
0
LINE
8
BLACK
6
CONTINUOUS
10
5.74408
20
-3.51411
11
5.74396
21
-3.51437
0
LINE
8
BLACK
6
CONTINUOUS
10
5.74396
20
-3.51437
11
5.74021
21
-3.51812
0
LINE
8
BLACK
6
CONTINUOUS
10
5.74021
20
-3.51812
11
5.73948
21
-3.51863
0
LINE
8
BLACK
6
CONTINUOUS
10
5.73948
20
-3.51863
11
5.73944
21
-3.51867
0
LINE
8
BLACK
6
CONTINUOUS
10
5.73944
20
-3.51867
11
5.73569
21
-3.52055
0
LINE
8
BLACK
6
CONTINUOUS
10
5.73569
20
-3.52055
11
5.73471
21
-3.52084
0
LINE
8
BLACK
6
CONTINUOUS
10
5.73471
20
-3.52084
11
5.73453
21
-3.5208
0
LINE
8
BLACK
6
CONTINUOUS
10
5.73453
20
-3.5208
11
5.73437
21
-3.52086
0
LINE
8
BLACK
6
CONTINUOUS
10
5.73437
20
-3.52086
11
5.72687
21
-3.52086
0
LINE
8
BLACK
6
CONTINUOUS
10
5.72687
20
-3.52086
11
5.72586
21
-3.52068
0
LINE
8
BLACK
6
CONTINUOUS
10
5.72586
20
-3.52068
11
5.72572
21
-3.52057
0
LINE
8
BLACK
6
CONTINUOUS
10
5.72572
20
-3.52057
11
5.72555
21
-3.52055
0
LINE
8
BLACK
6
CONTINUOUS
10
5.72555
20
-3.52055
11
5.7218
21
-3.51867
0
LINE
8
BLACK
6
CONTINUOUS
10
5.7218
20
-3.51867
11
5.72109
21
-3.51815
0
LINE
8
BLACK
6
CONTINUOUS
10
5.72109
20
-3.51815
11
5.72103
21
-3.51812
0
LINE
8
BLACK
6
CONTINUOUS
10
5.72103
20
-3.51812
11
5.71728
21
-3.51437
0
LINE
8
BLACK
6
CONTINUOUS
10
5.71728
20
-3.51437
11
5.71669
21
-3.51353
0
LINE
8
BLACK
6
CONTINUOUS
10
5.71669
20
-3.51353
11
5.71667
21
-3.51324
0
LINE
8
BLACK
6
CONTINUOUS
10
5.71667
20
-3.51324
11
5.71651
21
-3.513
0
LINE
8
BLACK
6
CONTINUOUS
10
5.71651
20
-3.513
11
5.71463
21
-3.5055
0
LINE
8
BLACK
6
CONTINUOUS
10
5.71463
20
-3.5055
11
5.71459
21
-3.50491
0
LINE
8
BLACK
6
CONTINUOUS
10
5.71459
20
-3.50491
11
5.71454
21
-3.50478
0
LINE
8
BLACK
6
CONTINUOUS
10
5.71454
20
-3.50478
11
5.71454
21
-3.49166
0
LINE
8
BLACK
6
CONTINUOUS
10
5.71454
20
-3.49166
11
5.71464
21
-3.49108
0
LINE
8
BLACK
6
CONTINUOUS
10
5.71464
20
-3.49108
11
5.71463
21
-3.49094
0
LINE
8
BLACK
6
CONTINUOUS
10
5.71463
20
-3.49094
11
5.71651
21
-3.48344
0
LINE
8
BLACK
6
CONTINUOUS
10
5.71651
20
-3.48344
11
5.71692
21
-3.48251
0
LINE
8
BLACK
6
CONTINUOUS
10
5.71692
20
-3.48251
11
5.71716
21
-3.48234
0
LINE
8
BLACK
6
CONTINUOUS
10
5.71716
20
-3.48234
11
5.71728
21
-3.48207
0
LINE
8
BLACK
6
CONTINUOUS
10
5.71728
20
-3.48207
11
5.72103
21
-3.47832
0
LINE
8
BLACK
6
CONTINUOUS
10
5.72103
20
-3.47832
11
5.72175
21
-3.47782
0
LINE
8
BLACK
6
CONTINUOUS
10
5.72175
20
-3.47782
11
5.7218
21
-3.47777
0
LINE
8
BLACK
6
CONTINUOUS
10
5.7218
20
-3.47777
11
5.72555
21
-3.4759
0
LINE
8
BLACK
6
CONTINUOUS
10
5.72555
20
-3.4759
11
5.72653
21
-3.4756
0
LINE
8
BLACK
6
CONTINUOUS
10
5.72653
20
-3.4756
11
5.7267
21
-3.47564
0
LINE
8
BLACK
6
CONTINUOUS
10
5.7267
20
-3.47564
11
5.72687
21
-3.47558
0
LINE
8
BLACK
6
CONTINUOUS
10
5.72687
20
-3.47558
11
5.73437
21
-3.47558
0
LINE
8
BLACK
6
CONTINUOUS
10
5.73437
20
-3.47558
11
5.73538
21
-3.47576
0
LINE
8
BLACK
6
CONTINUOUS
10
5.72487
20
-3.48284
11
5.72204
21
-3.48567
0
LINE
8
BLACK
6
CONTINUOUS
10
5.72204
20
-3.48567
11
5.72045
21
-3.49202
0
LINE
8
BLACK
6
CONTINUOUS
10
5.72045
20
-3.49202
11
5.72045
21
-3.50442
0
LINE
8
BLACK
6
CONTINUOUS
10
5.72045
20
-3.50442
11
5.72204
21
-3.51077
0
LINE
8
BLACK
6
CONTINUOUS
10
5.72204
20
-3.51077
11
5.72487
21
-3.5136
0
LINE
8
BLACK
6
CONTINUOUS
10
5.72487
20
-3.5136
11
5.72757
21
-3.51495
0
LINE
8
BLACK
6
CONTINUOUS
10
5.72757
20
-3.51495
11
5.73367
21
-3.51495
0
LINE
8
BLACK
6
CONTINUOUS
10
5.73367
20
-3.51495
11
5.73637
21
-3.5136
0
LINE
8
BLACK
6
CONTINUOUS
10
5.73637
20
-3.5136
11
5.7392
21
-3.51077
0
LINE
8
BLACK
6
CONTINUOUS
10
5.7392
20
-3.51077
11
5.74079
21
-3.50442
0
LINE
8
BLACK
6
CONTINUOUS
10
5.74079
20
-3.50442
11
5.74079
21
-3.49202
0
LINE
8
BLACK
6
CONTINUOUS
10
5.74079
20
-3.49202
11
5.7392
21
-3.48567
0
LINE
8
BLACK
6
CONTINUOUS
10
5.7392
20
-3.48567
11
5.73637
21
-3.48284
0
LINE
8
BLACK
6
CONTINUOUS
10
5.73637
20
-3.48284
11
5.73367
21
-3.48149
0
LINE
8
BLACK
6
CONTINUOUS
10
5.73367
20
-3.48149
11
5.72757
21
-3.48149
0
LINE
8
BLACK
6
CONTINUOUS
10
5.72757
20
-3.48149
11
5.72487
21
-3.48284
0
LINE
8
BLACK
6
CONTINUOUS
10
5.6445
20
-3.4757
11
5.64489
21
-3.47563
0
LINE
8
BLACK
6
CONTINUOUS
10
5.64489
20
-3.47563
11
5.64545
21
-3.47595
0
LINE
8
BLACK
6
CONTINUOUS
10
5.64545
20
-3.47595
11
5.64607
21
-3.47612
0
LINE
8
BLACK
6
CONTINUOUS
10
5.64607
20
-3.47612
11
5.6463
21
-3.47644
0
LINE
8
BLACK
6
CONTINUOUS
10
5.6463
20
-3.47644
11
5.64664
21
-3.47664
0
LINE
8
BLACK
6
CONTINUOUS
10
5.64664
20
-3.47664
11
5.64686
21
-3.47724
0
LINE
8
BLACK
6
CONTINUOUS
10
5.64686
20
-3.47724
11
5.64723
21
-3.47777
0
LINE
8
BLACK
6
CONTINUOUS
10
5.64723
20
-3.47777
11
5.6472
21
-3.47817
0
LINE
8
BLACK
6
CONTINUOUS
10
5.6472
20
-3.47817
11
5.64733
21
-3.47854
0
LINE
8
BLACK
6
CONTINUOUS
10
5.64733
20
-3.47854
11
5.64733
21
-3.51791
0
LINE
8
BLACK
6
CONTINUOUS
10
5.64733
20
-3.51791
11
5.64715
21
-3.51892
0
LINE
8
BLACK
6
CONTINUOUS
10
5.64715
20
-3.51892
11
5.64586
21
-3.52046
0
LINE
8
BLACK
6
CONTINUOUS
10
5.64586
20
-3.52046
11
5.64387
21
-3.52081
0
LINE
8
BLACK
6
CONTINUOUS
10
5.64387
20
-3.52081
11
5.64212
21
-3.5198
0
LINE
8
BLACK
6
CONTINUOUS
10
5.64212
20
-3.5198
11
5.64143
21
-3.51791
0
LINE
8
BLACK
6
CONTINUOUS
10
5.64143
20
-3.51791
11
5.64143
21
-3.49185
0
LINE
8
BLACK
6
CONTINUOUS
10
5.64143
20
-3.49185
11
5.63393
21
-3.50791
0
LINE
8
BLACK
6
CONTINUOUS
10
5.63393
20
-3.50791
11
5.63371
21
-3.50822
0
LINE
8
BLACK
6
CONTINUOUS
10
5.63371
20
-3.50822
11
5.63368
21
-3.50835
0
LINE
8
BLACK
6
CONTINUOUS
10
5.63368
20
-3.50835
11
5.63357
21
-3.50843
0
LINE
8
BLACK
6
CONTINUOUS
10
5.63357
20
-3.50843
11
5.63334
21
-3.50875
0
LINE
8
BLACK
6
CONTINUOUS
10
5.63334
20
-3.50875
11
5.63265
21
-3.50907
0
LINE
8
BLACK
6
CONTINUOUS
10
5.63265
20
-3.50907
11
5.63202
21
-3.50951
0
LINE
8
BLACK
6
CONTINUOUS
10
5.63202
20
-3.50951
11
5.63175
21
-3.50949
0
LINE
8
BLACK
6
CONTINUOUS
10
5.63175
20
-3.50949
11
5.63151
21
-3.5096
0
LINE
8
BLACK
6
CONTINUOUS
10
5.63151
20
-3.5096
11
5.63077
21
-3.5094
0
LINE
8
BLACK
6
CONTINUOUS
10
5.63077
20
-3.5094
11
5.63001
21
-3.50933
0
LINE
8
BLACK
6
CONTINUOUS
10
5.63001
20
-3.50933
11
5.62982
21
-3.50915
0
LINE
8
BLACK
6
CONTINUOUS
10
5.62982
20
-3.50915
11
5.62956
21
-3.50908
0
LINE
8
BLACK
6
CONTINUOUS
10
5.62956
20
-3.50908
11
5.62912
21
-3.50845
0
LINE
8
BLACK
6
CONTINUOUS
10
5.62912
20
-3.50845
11
5.62858
21
-3.50791
0
LINE
8
BLACK
6
CONTINUOUS
10
5.62858
20
-3.50791
11
5.62109
21
-3.49185
0
LINE
8
BLACK
6
CONTINUOUS
10
5.62109
20
-3.49185
11
5.62109
21
-3.51791
0
LINE
8
BLACK
6
CONTINUOUS
10
5.62109
20
-3.51791
11
5.62091
21
-3.51892
0
LINE
8
BLACK
6
CONTINUOUS
10
5.62091
20
-3.51892
11
5.61961
21
-3.52046
0
LINE
8
BLACK
6
CONTINUOUS
10
5.61961
20
-3.52046
11
5.61762
21
-3.52081
0
LINE
8
BLACK
6
CONTINUOUS
10
5.61762
20
-3.52081
11
5.61587
21
-3.5198
0
LINE
8
BLACK
6
CONTINUOUS
10
5.61587
20
-3.5198
11
5.61518
21
-3.51791
0
LINE
8
BLACK
6
CONTINUOUS
10
5.61518
20
-3.51791
11
5.61518
21
-3.47854
0
LINE
8
BLACK
6
CONTINUOUS
10
5.61518
20
-3.47854
11
5.61536
21
-3.47753
0
LINE
8
BLACK
6
CONTINUOUS
10
5.61536
20
-3.47753
11
5.61561
21
-3.47722
0
LINE
8
BLACK
6
CONTINUOUS
10
5.61561
20
-3.47722
11
5.61571
21
-3.47684
0
LINE
8
BLACK
6
CONTINUOUS
10
5.61571
20
-3.47684
11
5.61624
21
-3.47647
0
LINE
8
BLACK
6
CONTINUOUS
10
5.61624
20
-3.47647
11
5.61666
21
-3.47598
0
LINE
8
BLACK
6
CONTINUOUS
10
5.61666
20
-3.47598
11
5.61704
21
-3.47591
0
LINE
8
BLACK
6
CONTINUOUS
10
5.61704
20
-3.47591
11
5.61737
21
-3.47568
0
LINE
8
BLACK
6
CONTINUOUS
10
5.61737
20
-3.47568
11
5.61801
21
-3.47574
0
LINE
8
BLACK
6
CONTINUOUS
10
5.61801
20
-3.47574
11
5.61865
21
-3.47563
0
LINE
8
BLACK
6
CONTINUOUS
10
5.61865
20
-3.47563
11
5.61899
21
-3.47583
0
LINE
8
BLACK
6
CONTINUOUS
10
5.61899
20
-3.47583
11
5.61938
21
-3.47586
0
LINE
8
BLACK
6
CONTINUOUS
10
5.61938
20
-3.47586
11
5.61984
21
-3.47632
0
LINE
8
BLACK
6
CONTINUOUS
10
5.61984
20
-3.47632
11
5.62039
21
-3.47664
0
LINE
8
BLACK
6
CONTINUOUS
10
5.62039
20
-3.47664
11
5.62053
21
-3.47701
0
LINE
8
BLACK
6
CONTINUOUS
10
5.62053
20
-3.47701
11
5.62081
21
-3.47729
0
LINE
8
BLACK
6
CONTINUOUS
10
5.62081
20
-3.47729
11
5.63126
21
-3.49968
0
LINE
8
BLACK
6
CONTINUOUS
10
5.63126
20
-3.49968
11
5.6417
21
-3.47729
0
LINE
8
BLACK
6
CONTINUOUS
10
5.6417
20
-3.47729
11
5.64229
21
-3.47645
0
LINE
8
BLACK
6
CONTINUOUS
10
5.64229
20
-3.47645
11
5.64265
21
-3.47628
0
LINE
8
BLACK
6
CONTINUOUS
10
5.64265
20
-3.47628
11
5.6429
21
-3.47598
0
LINE
8
BLACK
6
CONTINUOUS
10
5.6429
20
-3.47598
11
5.64354
21
-3.47587
0
LINE
8
BLACK
6
CONTINUOUS
10
5.64354
20
-3.47587
11
5.64412
21
-3.47559
0
LINE
8
BLACK
6
CONTINUOUS
10
5.64412
20
-3.47559
11
5.6445
21
-3.4757
0
LINE
8
BLACK
6
CONTINUOUS
10
5.66539
20
-3.47664
11
5.66608
21
-3.47854
0
LINE
8
BLACK
6
CONTINUOUS
10
5.66608
20
-3.47854
11
5.66608
21
-3.51791
0
LINE
8
BLACK
6
CONTINUOUS
10
5.66608
20
-3.51791
11
5.6659
21
-3.51892
0
LINE
8
BLACK
6
CONTINUOUS
10
5.6659
20
-3.51892
11
5.6646
21
-3.52046
0
LINE
8
BLACK
6
CONTINUOUS
10
5.6646
20
-3.52046
11
5.66261
21
-3.52081
0
LINE
8
BLACK
6
CONTINUOUS
10
5.66261
20
-3.52081
11
5.66087
21
-3.5198
0
LINE
8
BLACK
6
CONTINUOUS
10
5.66087
20
-3.5198
11
5.66017
21
-3.51791
0
LINE
8
BLACK
6
CONTINUOUS
10
5.66017
20
-3.51791
11
5.66017
21
-3.47854
0
LINE
8
BLACK
6
CONTINUOUS
10
5.66017
20
-3.47854
11
5.66035
21
-3.47753
0
LINE
8
BLACK
6
CONTINUOUS
10
5.66035
20
-3.47753
11
5.66165
21
-3.47598
0
LINE
8
BLACK
6
CONTINUOUS
10
5.66165
20
-3.47598
11
5.66364
21
-3.47563
0
LINE
8
BLACK
6
CONTINUOUS
10
5.66364
20
-3.47563
11
5.66539
21
-3.47664
0
LINE
8
BLACK
6
CONTINUOUS
10
5.47935
20
-3.46623
11
5.48004
21
-3.46813
0
LINE
8
BLACK
6
CONTINUOUS
10
5.48004
20
-3.46813
11
5.48004
21
-3.49813
0
LINE
8
BLACK
6
CONTINUOUS
10
5.48004
20
-3.49813
11
5.47987
21
-3.49914
0
LINE
8
BLACK
6
CONTINUOUS
10
5.47987
20
-3.49914
11
5.47857
21
-3.50068
0
LINE
8
BLACK
6
CONTINUOUS
10
5.47857
20
-3.50068
11
5.47658
21
-3.50103
0
LINE
8
BLACK
6
CONTINUOUS
10
5.47658
20
-3.50103
11
5.47483
21
-3.50002
0
LINE
8
BLACK
6
CONTINUOUS
10
5.47483
20
-3.50002
11
5.47414
21
-3.49813
0
LINE
8
BLACK
6
CONTINUOUS
10
5.47414
20
-3.49813
11
5.47414
21
-3.46813
0
LINE
8
BLACK
6
CONTINUOUS
10
5.47414
20
-3.46813
11
5.47432
21
-3.46712
0
LINE
8
BLACK
6
CONTINUOUS
10
5.47432
20
-3.46712
11
5.47562
21
-3.46557
0
LINE
8
BLACK
6
CONTINUOUS
10
5.47562
20
-3.46557
11
5.4776
21
-3.46522
0
LINE
8
BLACK
6
CONTINUOUS
10
5.4776
20
-3.46522
11
5.47935
21
-3.46623
0
LINE
8
BLACK
6
CONTINUOUS
10
5.4781
20
-3.42598
11
5.47824
21
-3.4261
0
LINE
8
BLACK
6
CONTINUOUS
10
5.47824
20
-3.4261
11
5.47841
21
-3.42612
0
LINE
8
BLACK
6
CONTINUOUS
10
5.47841
20
-3.42612
11
5.48216
21
-3.42799
0
LINE
8
BLACK
6
CONTINUOUS
10
5.48216
20
-3.42799
11
5.48287
21
-3.42852
0
LINE
8
BLACK
6
CONTINUOUS
10
5.48287
20
-3.42852
11
5.48293
21
-3.42855
0
LINE
8
BLACK
6
CONTINUOUS
10
5.48293
20
-3.42855
11
5.48459
21
-3.43021
0
LINE
8
BLACK
6
CONTINUOUS
10
5.48459
20
-3.43021
11
5.48625
21
-3.42855
0
LINE
8
BLACK
6
CONTINUOUS
10
5.48625
20
-3.42855
11
5.48698
21
-3.42804
0
LINE
8
BLACK
6
CONTINUOUS
10
5.48698
20
-3.42804
11
5.48702
21
-3.42799
0
LINE
8
BLACK
6
CONTINUOUS
10
5.48702
20
-3.42799
11
5.49077
21
-3.42612
0
LINE
8
BLACK
6
CONTINUOUS
10
5.49077
20
-3.42612
11
5.49175
21
-3.42583
0
LINE
8
BLACK
6
CONTINUOUS
10
5.49175
20
-3.42583
11
5.49192
21
-3.42587
0
LINE
8
BLACK
6
CONTINUOUS
10
5.49192
20
-3.42587
11
5.49209
21
-3.42581
0
LINE
8
BLACK
6
CONTINUOUS
10
5.49209
20
-3.42581
11
5.49396
21
-3.42581
0
LINE
8
BLACK
6
CONTINUOUS
10
5.49396
20
-3.42581
11
5.49497
21
-3.42598
0
LINE
8
BLACK
6
CONTINUOUS
10
5.49497
20
-3.42598
11
5.49511
21
-3.4261
0
LINE
8
BLACK
6
CONTINUOUS
10
5.49511
20
-3.4261
11
5.49529
21
-3.42612
0
LINE
8
BLACK
6
CONTINUOUS
10
5.49529
20
-3.42612
11
5.49903
21
-3.42799
0
LINE
8
BLACK
6
CONTINUOUS
10
5.49903
20
-3.42799
11
5.49974
21
-3.42852
0
LINE
8
BLACK
6
CONTINUOUS
10
5.49974
20
-3.42852
11
5.4998
21
-3.42855
0
LINE
8
BLACK
6
CONTINUOUS
10
5.4998
20
-3.42855
11
5.50168
21
-3.43042
0
LINE
8
BLACK
6
CONTINUOUS
10
5.50168
20
-3.43042
11
5.50218
21
-3.43114
0
LINE
8
BLACK
6
CONTINUOUS
10
5.50218
20
-3.43114
11
5.50223
21
-3.43119
0
LINE
8
BLACK
6
CONTINUOUS
10
5.50223
20
-3.43119
11
5.5041
21
-3.43494
0
LINE
8
BLACK
6
CONTINUOUS
10
5.5041
20
-3.43494
11
5.5044
21
-3.43592
0
LINE
8
BLACK
6
CONTINUOUS
10
5.5044
20
-3.43592
11
5.50436
21
-3.43609
0
LINE
8
BLACK
6
CONTINUOUS
10
5.50436
20
-3.43609
11
5.50442
21
-3.43626
0
LINE
8
BLACK
6
CONTINUOUS
10
5.50442
20
-3.43626
11
5.50442
21
-3.44376
0
LINE
8
BLACK
6
CONTINUOUS
10
5.50442
20
-3.44376
11
5.50424
21
-3.44477
0
LINE
8
BLACK
6
CONTINUOUS
10
5.50424
20
-3.44477
11
5.50412
21
-3.4449
0
LINE
8
BLACK
6
CONTINUOUS
10
5.50412
20
-3.4449
11
5.5041
21
-3.44508
0
LINE
8
BLACK
6
CONTINUOUS
10
5.5041
20
-3.44508
11
5.50223
21
-3.44883
0
LINE
8
BLACK
6
CONTINUOUS
10
5.50223
20
-3.44883
11
5.5017
21
-3.44954
0
LINE
8
BLACK
6
CONTINUOUS
10
5.5017
20
-3.44954
11
5.50168
21
-3.44959
0
LINE
8
BLACK
6
CONTINUOUS
10
5.50168
20
-3.44959
11
5.4998
21
-3.45147
0
LINE
8
BLACK
6
CONTINUOUS
10
5.4998
20
-3.45147
11
5.49908
21
-3.45198
0
LINE
8
BLACK
6
CONTINUOUS
10
5.49908
20
-3.45198
11
5.49903
21
-3.45202
0
LINE
8
BLACK
6
CONTINUOUS
10
5.49903
20
-3.45202
11
5.49529
21
-3.4539
0
LINE
8
BLACK
6
CONTINUOUS
10
5.49529
20
-3.4539
11
5.4943
21
-3.45419
0
LINE
8
BLACK
6
CONTINUOUS
10
5.4943
20
-3.45419
11
5.49413
21
-3.45415
0
LINE
8
BLACK
6
CONTINUOUS
10
5.49413
20
-3.45415
11
5.49396
21
-3.45421
0
LINE
8
BLACK
6
CONTINUOUS
10
5.49396
20
-3.45421
11
5.49209
21
-3.45421
0
LINE
8
BLACK
6
CONTINUOUS
10
5.49209
20
-3.45421
11
5.49108
21
-3.45403
0
LINE
8
BLACK
6
CONTINUOUS
10
5.49108
20
-3.45403
11
5.49094
21
-3.45392
0
LINE
8
BLACK
6
CONTINUOUS
10
5.49094
20
-3.45392
11
5.49077
21
-3.4539
0
LINE
8
BLACK
6
CONTINUOUS
10
5.49077
20
-3.4539
11
5.48702
21
-3.45202
0
LINE
8
BLACK
6
CONTINUOUS
10
5.48702
20
-3.45202
11
5.48631
21
-3.4515
0
LINE
8
BLACK
6
CONTINUOUS
10
5.48631
20
-3.4515
11
5.48625
21
-3.45147
0
LINE
8
BLACK
6
CONTINUOUS
10
5.48625
20
-3.45147
11
5.48459
21
-3.44981
0
LINE
8
BLACK
6
CONTINUOUS
10
5.48459
20
-3.44981
11
5.48293
21
-3.45147
0
LINE
8
BLACK
6
CONTINUOUS
10
5.48293
20
-3.45147
11
5.48221
21
-3.45198
0
LINE
8
BLACK
6
CONTINUOUS
10
5.48221
20
-3.45198
11
5.48216
21
-3.45202
0
LINE
8
BLACK
6
CONTINUOUS
10
5.48216
20
-3.45202
11
5.47841
21
-3.4539
0
LINE
8
BLACK
6
CONTINUOUS
10
5.47841
20
-3.4539
11
5.47743
21
-3.45419
0
LINE
8
BLACK
6
CONTINUOUS
10
5.47743
20
-3.45419
11
5.47726
21
-3.45415
0
LINE
8
BLACK
6
CONTINUOUS
10
5.47726
20
-3.45415
11
5.47709
21
-3.45421
0
LINE
8
BLACK
6
CONTINUOUS
10
5.47709
20
-3.45421
11
5.46959
21
-3.45421
0
LINE
8
BLACK
6
CONTINUOUS
10
5.46959
20
-3.45421
11
5.46858
21
-3.45403
0
LINE
8
BLACK
6
CONTINUOUS
10
5.46858
20
-3.45403
11
5.46845
21
-3.45392
0
LINE
8
BLACK
6
CONTINUOUS
10
5.46845
20
-3.45392
11
5.46827
21
-3.4539
0
LINE
8
BLACK
6
CONTINUOUS
10
5.46827
20
-3.4539
11
5.46452
21
-3.45202
0
LINE
8
BLACK
6
CONTINUOUS
10
5.46452
20
-3.45202
11
5.46381
21
-3.4515
0
LINE
8
BLACK
6
CONTINUOUS
10
5.46381
20
-3.4515
11
5.46376
21
-3.45147
0
LINE
8
BLACK
6
CONTINUOUS
10
5.46376
20
-3.45147
11
5.46188
21
-3.44959
0
LINE
8
BLACK
6
CONTINUOUS
10
5.46188
20
-3.44959
11
5.46137
21
-3.44887
0
LINE
8
BLACK
6
CONTINUOUS
10
5.46137
20
-3.44887
11
5.46133
21
-3.44883
0
LINE
8
BLACK
6
CONTINUOUS
10
5.46133
20
-3.44883
11
5.45945
21
-3.44508
0
LINE
8
BLACK
6
CONTINUOUS
10
5.45945
20
-3.44508
11
5.45916
21
-3.44409
0
LINE
8
BLACK
6
CONTINUOUS
10
5.45916
20
-3.44409
11
5.4592
21
-3.44392
0
LINE
8
BLACK
6
CONTINUOUS
10
5.4592
20
-3.44392
11
5.45914
21
-3.44376
0
LINE
8
BLACK
6
CONTINUOUS
10
5.45914
20
-3.44376
11
5.45914
21
-3.43626
0
LINE
8
BLACK
6
CONTINUOUS
10
5.45914
20
-3.43626
11
5.45932
21
-3.43525
0
LINE
8
BLACK
6
CONTINUOUS
10
5.45932
20
-3.43525
11
5.45943
21
-3.43511
0
LINE
8
BLACK
6
CONTINUOUS
10
5.45943
20
-3.43511
11
5.45945
21
-3.43494
0
LINE
8
BLACK
6
CONTINUOUS
10
5.45945
20
-3.43494
11
5.46133
21
-3.43119
0
LINE
8
BLACK
6
CONTINUOUS
10
5.46133
20
-3.43119
11
5.46185
21
-3.43048
0
LINE
8
BLACK
6
CONTINUOUS
10
5.46185
20
-3.43048
11
5.46188
21
-3.43042
0
LINE
8
BLACK
6
CONTINUOUS
10
5.46188
20
-3.43042
11
5.46376
21
-3.42855
0
LINE
8
BLACK
6
CONTINUOUS
10
5.46376
20
-3.42855
11
5.46448
21
-3.42804
0
LINE
8
BLACK
6
CONTINUOUS
10
5.46448
20
-3.42804
11
5.46452
21
-3.42799
0
LINE
8
BLACK
6
CONTINUOUS
10
5.46452
20
-3.42799
11
5.46827
21
-3.42612
0
LINE
8
BLACK
6
CONTINUOUS
10
5.46827
20
-3.42612
11
5.46926
21
-3.42583
0
LINE
8
BLACK
6
CONTINUOUS
10
5.46926
20
-3.42583
11
5.46943
21
-3.42587
0
LINE
8
BLACK
6
CONTINUOUS
10
5.46943
20
-3.42587
11
5.46959
21
-3.42581
0
LINE
8
BLACK
6
CONTINUOUS
10
5.46959
20
-3.42581
11
5.47709
21
-3.42581
0
LINE
8
BLACK
6
CONTINUOUS
10
5.47709
20
-3.42581
11
5.4781
21
-3.42598
0
LINE
8
BLACK
6
CONTINUOUS
10
5.46759
20
-3.43306
11
5.4664
21
-3.43426
0
LINE
8
BLACK
6
CONTINUOUS
10
5.4664
20
-3.43426
11
5.46505
21
-3.43696
0
LINE
8
BLACK
6
CONTINUOUS
10
5.46505
20
-3.43696
11
5.46505
21
-3.44306
0
LINE
8
BLACK
6
CONTINUOUS
10
5.46505
20
-3.44306
11
5.4664
21
-3.44576
0
LINE
8
BLACK
6
CONTINUOUS
10
5.4664
20
-3.44576
11
5.46759
21
-3.44695
0
LINE
8
BLACK
6
CONTINUOUS
10
5.46759
20
-3.44695
11
5.47029
21
-3.4483
0
LINE
8
BLACK
6
CONTINUOUS
10
5.47029
20
-3.4483
11
5.47639
21
-3.4483
0
LINE
8
BLACK
6
CONTINUOUS
10
5.47639
20
-3.4483
11
5.47909
21
-3.44695
0
LINE
8
BLACK
6
CONTINUOUS
10
5.47909
20
-3.44695
11
5.48029
21
-3.44576
0
LINE
8
BLACK
6
CONTINUOUS
10
5.48029
20
-3.44576
11
5.48164
21
-3.44306
0
LINE
8
BLACK
6
CONTINUOUS
10
5.48164
20
-3.44306
11
5.48164
21
-3.43695
0
LINE
8
BLACK
6
CONTINUOUS
10
5.48164
20
-3.43695
11
5.48029
21
-3.43426
0
LINE
8
BLACK
6
CONTINUOUS
10
5.48029
20
-3.43426
11
5.47909
21
-3.43306
0
LINE
8
BLACK
6
CONTINUOUS
10
5.47909
20
-3.43306
11
5.47639
21
-3.43171
0
LINE
8
BLACK
6
CONTINUOUS
10
5.47639
20
-3.43171
11
5.47029
21
-3.43171
0
LINE
8
BLACK
6
CONTINUOUS
10
5.47029
20
-3.43171
11
5.46759
21
-3.43306
0
LINE
8
BLACK
6
CONTINUOUS
10
5.49009
20
-3.43306
11
5.48889
21
-3.43426
0
LINE
8
BLACK
6
CONTINUOUS
10
5.48889
20
-3.43426
11
5.48754
21
-3.43695
0
LINE
8
BLACK
6
CONTINUOUS
10
5.48754
20
-3.43695
11
5.48754
21
-3.44306
0
LINE
8
BLACK
6
CONTINUOUS
10
5.48754
20
-3.44306
11
5.48889
21
-3.44576
0
LINE
8
BLACK
6
CONTINUOUS
10
5.48889
20
-3.44576
11
5.49009
21
-3.44695
0
LINE
8
BLACK
6
CONTINUOUS
10
5.49009
20
-3.44695
11
5.49279
21
-3.4483
0
LINE
8
BLACK
6
CONTINUOUS
10
5.49279
20
-3.4483
11
5.49327
21
-3.4483
0
LINE
8
BLACK
6
CONTINUOUS
10
5.49327
20
-3.4483
11
5.49597
21
-3.44695
0
LINE
8
BLACK
6
CONTINUOUS
10
5.49597
20
-3.44695
11
5.49716
21
-3.44576
0
LINE
8
BLACK
6
CONTINUOUS
10
5.49716
20
-3.44576
11
5.49851
21
-3.44306
0
LINE
8
BLACK
6
CONTINUOUS
10
5.49851
20
-3.44306
11
5.49851
21
-3.43695
0
LINE
8
BLACK
6
CONTINUOUS
10
5.49851
20
-3.43695
11
5.49716
21
-3.43426
0
LINE
8
BLACK
6
CONTINUOUS
10
5.49716
20
-3.43426
11
5.49597
21
-3.43306
0
LINE
8
BLACK
6
CONTINUOUS
10
5.49597
20
-3.43306
11
5.49327
21
-3.43171
0
LINE
8
BLACK
6
CONTINUOUS
10
5.49327
20
-3.43171
11
5.49279
21
-3.43171
0
LINE
8
BLACK
6
CONTINUOUS
10
5.49279
20
-3.43171
11
5.49009
21
-3.43306
0
LINE
8
BLACK
6
CONTINUOUS
10
5.6752
20
-3.38617
11
5.67631
21
-3.38785
0
LINE
8
BLACK
6
CONTINUOUS
10
5.67631
20
-3.38785
11
5.68298
21
-3.41584
0
LINE
8
BLACK
6
CONTINUOUS
10
5.68298
20
-3.41584
11
5.68746
21
-3.39902
0
LINE
8
BLACK
6
CONTINUOUS
10
5.68746
20
-3.39902
11
5.68789
21
-3.39809
0
LINE
8
BLACK
6
CONTINUOUS
10
5.68789
20
-3.39809
11
5.68812
21
-3.39794
0
LINE
8
BLACK
6
CONTINUOUS
10
5.68812
20
-3.39794
11
5.68823
21
-3.39769
0
LINE
8
BLACK
6
CONTINUOUS
10
5.68823
20
-3.39769
11
5.68892
21
-3.39737
0
LINE
8
BLACK
6
CONTINUOUS
10
5.68892
20
-3.39737
11
5.68955
21
-3.39693
0
LINE
8
BLACK
6
CONTINUOUS
10
5.68955
20
-3.39693
11
5.68982
21
-3.39696
0
LINE
8
BLACK
6
CONTINUOUS
10
5.68982
20
-3.39696
11
5.69006
21
-3.39684
0
LINE
8
BLACK
6
CONTINUOUS
10
5.69006
20
-3.39684
11
5.6908
21
-3.39704
0
LINE
8
BLACK
6
CONTINUOUS
10
5.6908
20
-3.39704
11
5.69156
21
-3.39711
0
LINE
8
BLACK
6
CONTINUOUS
10
5.69156
20
-3.39711
11
5.69175
21
-3.3973
0
LINE
8
BLACK
6
CONTINUOUS
10
5.69175
20
-3.3973
11
5.69201
21
-3.39737
0
LINE
8
BLACK
6
CONTINUOUS
10
5.69201
20
-3.39737
11
5.69245
21
-3.39799
0
LINE
8
BLACK
6
CONTINUOUS
10
5.69245
20
-3.39799
11
5.69299
21
-3.39853
0
LINE
8
BLACK
6
CONTINUOUS
10
5.69299
20
-3.39853
11
5.69301
21
-3.3988
0
LINE
8
BLACK
6
CONTINUOUS
10
5.69301
20
-3.3988
11
5.69317
21
-3.39902
0
LINE
8
BLACK
6
CONTINUOUS
10
5.69317
20
-3.39902
11
5.69765
21
-3.41584
0
LINE
8
BLACK
6
CONTINUOUS
10
5.69765
20
-3.41584
11
5.70432
21
-3.38785
0
LINE
8
BLACK
6
CONTINUOUS
10
5.70432
20
-3.38785
11
5.70472
21
-3.38691
0
LINE
8
BLACK
6
CONTINUOUS
10
5.70472
20
-3.38691
11
5.70634
21
-3.38571
0
LINE
8
BLACK
6
CONTINUOUS
10
5.70634
20
-3.38571
11
5.70836
21
-3.38583
0
LINE
8
BLACK
6
CONTINUOUS
10
5.70836
20
-3.38583
11
5.70983
21
-3.38721
0
LINE
8
BLACK
6
CONTINUOUS
10
5.70983
20
-3.38721
11
5.71006
21
-3.38922
0
LINE
8
BLACK
6
CONTINUOUS
10
5.71006
20
-3.38922
11
5.70069
21
-3.42859
0
LINE
8
BLACK
6
CONTINUOUS
10
5.70069
20
-3.42859
11
5.70028
21
-3.42953
0
LINE
8
BLACK
6
CONTINUOUS
10
5.70028
20
-3.42953
11
5.70003
21
-3.42972
0
LINE
8
BLACK
6
CONTINUOUS
10
5.70003
20
-3.42972
11
5.6999
21
-3.43
0
LINE
8
BLACK
6
CONTINUOUS
10
5.6999
20
-3.43
11
5.69924
21
-3.4303
0
LINE
8
BLACK
6
CONTINUOUS
10
5.69924
20
-3.4303
11
5.69866
21
-3.43074
0
LINE
8
BLACK
6
CONTINUOUS
10
5.69866
20
-3.43074
11
5.69835
21
-3.43072
0
LINE
8
BLACK
6
CONTINUOUS
10
5.69835
20
-3.43072
11
5.69807
21
-3.43085
0
LINE
8
BLACK
6
CONTINUOUS
10
5.69807
20
-3.43085
11
5.69737
21
-3.43066
0
LINE
8
BLACK
6
CONTINUOUS
10
5.69737
20
-3.43066
11
5.69664
21
-3.43062
0
LINE
8
BLACK
6
CONTINUOUS
10
5.69664
20
-3.43062
11
5.69642
21
-3.4304
0
LINE
8
BLACK
6
CONTINUOUS
10
5.69642
20
-3.4304
11
5.69612
21
-3.43032
0
LINE
8
BLACK
6
CONTINUOUS
10
5.69612
20
-3.43032
11
5.6957
21
-3.42973
0
LINE
8
BLACK
6
CONTINUOUS
10
5.6957
20
-3.42973
11
5.69517
21
-3.42923
0
LINE
8
BLACK
6
CONTINUOUS
10
5.69517
20
-3.42923
11
5.69514
21
-3.42892
0
LINE
8
BLACK
6
CONTINUOUS
10
5.69514
20
-3.42892
11
5.69496
21
-3.42867
0
LINE
8
BLACK
6
CONTINUOUS
10
5.69496
20
-3.42867
11
5.69031
21
-3.41124
0
LINE
8
BLACK
6
CONTINUOUS
10
5.69031
20
-3.41124
11
5.68567
21
-3.42867
0
LINE
8
BLACK
6
CONTINUOUS
10
5.68567
20
-3.42867
11
5.68524
21
-3.4296
0
LINE
8
BLACK
6
CONTINUOUS
10
5.68524
20
-3.4296
11
5.68498
21
-3.42977
0
LINE
8
BLACK
6
CONTINUOUS
10
5.68498
20
-3.42977
11
5.68484
21
-3.43005
0
LINE
8
BLACK
6
CONTINUOUS
10
5.68484
20
-3.43005
11
5.68418
21
-3.43034
0
LINE
8
BLACK
6
CONTINUOUS
10
5.68418
20
-3.43034
11
5.68358
21
-3.43076
0
LINE
8
BLACK
6
CONTINUOUS
10
5.68358
20
-3.43076
11
5.68327
21
-3.43073
0
LINE
8
BLACK
6
CONTINUOUS
10
5.68327
20
-3.43073
11
5.68299
21
-3.43085
0
LINE
8
BLACK
6
CONTINUOUS
10
5.68299
20
-3.43085
11
5.68229
21
-3.43065
0
LINE
8
BLACK
6
CONTINUOUS
10
5.68229
20
-3.43065
11
5.68157
21
-3.43058
0
LINE
8
BLACK
6
CONTINUOUS
10
5.68157
20
-3.43058
11
5.68135
21
-3.43037
0
LINE
8
BLACK
6
CONTINUOUS
10
5.68135
20
-3.43037
11
5.68106
21
-3.43028
0
LINE
8
BLACK
6
CONTINUOUS
10
5.68106
20
-3.43028
11
5.68066
21
-3.42967
0
LINE
8
BLACK
6
CONTINUOUS
10
5.68066
20
-3.42967
11
5.68014
21
-3.42916
0
LINE
8
BLACK
6
CONTINUOUS
10
5.68014
20
-3.42916
11
5.68011
21
-3.42885
0
LINE
8
BLACK
6
CONTINUOUS
10
5.68011
20
-3.42885
11
5.67994
21
-3.42859
0
LINE
8
BLACK
6
CONTINUOUS
10
5.67994
20
-3.42859
11
5.67057
21
-3.38922
0
LINE
8
BLACK
6
CONTINUOUS
10
5.67057
20
-3.38922
11
5.67051
21
-3.3882
0
LINE
8
BLACK
6
CONTINUOUS
10
5.67051
20
-3.3882
11
5.67141
21
-3.38639
0
LINE
8
BLACK
6
CONTINUOUS
10
5.67141
20
-3.38639
11
5.67327
21
-3.38559
0
LINE
8
BLACK
6
CONTINUOUS
10
5.67327
20
-3.38559
11
5.6752
21
-3.38617
0
LINE
8
BLACK
6
CONTINUOUS
10
5.73819
20
-3.38576
11
5.73833
21
-3.38587
0
LINE
8
BLACK
6
CONTINUOUS
10
5.73833
20
-3.38587
11
5.7385
21
-3.3859
0
LINE
8
BLACK
6
CONTINUOUS
10
5.7385
20
-3.3859
11
5.74225
21
-3.38777
0
LINE
8
BLACK
6
CONTINUOUS
10
5.74225
20
-3.38777
11
5.74296
21
-3.3883
0
LINE
8
BLACK
6
CONTINUOUS
10
5.74296
20
-3.3883
11
5.74302
21
-3.38832
0
LINE
8
BLACK
6
CONTINUOUS
10
5.74302
20
-3.38832
11
5.7449
21
-3.3902
0
LINE
8
BLACK
6
CONTINUOUS
10
5.7449
20
-3.3902
11
5.7454
21
-3.39092
0
LINE
8
BLACK
6
CONTINUOUS
10
5.7454
20
-3.39092
11
5.74545
21
-3.39097
0
LINE
8
BLACK
6
CONTINUOUS
10
5.74545
20
-3.39097
11
5.74732
21
-3.39471
0
LINE
8
BLACK
6
CONTINUOUS
10
5.74732
20
-3.39471
11
5.74762
21
-3.3957
0
LINE
8
BLACK
6
CONTINUOUS
10
5.74762
20
-3.3957
11
5.74758
21
-3.39587
0
LINE
8
BLACK
6
CONTINUOUS
10
5.74758
20
-3.39587
11
5.74764
21
-3.39604
0
LINE
8
BLACK
6
CONTINUOUS
10
5.74764
20
-3.39604
11
5.74764
21
-3.40166
0
LINE
8
BLACK
6
CONTINUOUS
10
5.74764
20
-3.40166
11
5.74746
21
-3.40267
0
LINE
8
BLACK
6
CONTINUOUS
10
5.74746
20
-3.40267
11
5.74734
21
-3.4028
0
LINE
8
BLACK
6
CONTINUOUS
10
5.74734
20
-3.4028
11
5.74732
21
-3.40298
0
LINE
8
BLACK
6
CONTINUOUS
10
5.74732
20
-3.40298
11
5.74545
21
-3.40673
0
LINE
8
BLACK
6
CONTINUOUS
10
5.74545
20
-3.40673
11
5.74492
21
-3.40744
0
LINE
8
BLACK
6
CONTINUOUS
10
5.74492
20
-3.40744
11
5.7449
21
-3.4075
0
LINE
8
BLACK
6
CONTINUOUS
10
5.7449
20
-3.4075
11
5.74302
21
-3.40937
0
LINE
8
BLACK
6
CONTINUOUS
10
5.74302
20
-3.40937
11
5.7423
21
-3.40988
0
LINE
8
BLACK
6
CONTINUOUS
10
5.7423
20
-3.40988
11
5.74225
21
-3.40992
0
LINE
8
BLACK
6
CONTINUOUS
10
5.74225
20
-3.40992
11
5.7385
21
-3.4118
0
LINE
8
BLACK
6
CONTINUOUS
10
5.7385
20
-3.4118
11
5.73752
21
-3.41209
0
LINE
8
BLACK
6
CONTINUOUS
10
5.73752
20
-3.41209
11
5.73735
21
-3.41205
0
LINE
8
BLACK
6
CONTINUOUS
10
5.73735
20
-3.41205
11
5.73718
21
-3.41211
0
LINE
8
BLACK
6
CONTINUOUS
10
5.73718
20
-3.41211
11
5.72514
21
-3.41211
0
LINE
8
BLACK
6
CONTINUOUS
10
5.72514
20
-3.41211
11
5.72514
21
-3.42791
0
LINE
8
BLACK
6
CONTINUOUS
10
5.72514
20
-3.42791
11
5.72496
21
-3.42892
0
LINE
8
BLACK
6
CONTINUOUS
10
5.72496
20
-3.42892
11
5.72366
21
-3.43046
0
LINE
8
BLACK
6
CONTINUOUS
10
5.72366
20
-3.43046
11
5.72167
21
-3.43081
0
LINE
8
BLACK
6
CONTINUOUS
10
5.72167
20
-3.43081
11
5.71992
21
-3.4298
0
LINE
8
BLACK
6
CONTINUOUS
10
5.71992
20
-3.4298
11
5.71923
21
-3.42791
0
LINE
8
BLACK
6
CONTINUOUS
10
5.71923
20
-3.42791
11
5.71923
21
-3.38854
0
LINE
8
BLACK
6
CONTINUOUS
10
5.71923
20
-3.38854
11
5.7193
21
-3.38815
0
LINE
8
BLACK
6
CONTINUOUS
10
5.7193
20
-3.38815
11
5.71928
21
-3.38802
0
LINE
8
BLACK
6
CONTINUOUS
10
5.71928
20
-3.38802
11
5.71934
21
-3.38791
0
LINE
8
BLACK
6
CONTINUOUS
10
5.71934
20
-3.38791
11
5.71941
21
-3.38753
0
LINE
8
BLACK
6
CONTINUOUS
10
5.71941
20
-3.38753
11
5.7199
21
-3.38694
0
LINE
8
BLACK
6
CONTINUOUS
10
5.7199
20
-3.38694
11
5.72029
21
-3.38627
0
LINE
8
BLACK
6
CONTINUOUS
10
5.72029
20
-3.38627
11
5.72054
21
-3.38618
0
LINE
8
BLACK
6
CONTINUOUS
10
5.72054
20
-3.38618
11
5.72071
21
-3.38598
0
LINE
8
BLACK
6
CONTINUOUS
10
5.72071
20
-3.38598
11
5.72147
21
-3.38585
0
LINE
8
BLACK
6
CONTINUOUS
10
5.72147
20
-3.38585
11
5.72219
21
-3.38558
0
LINE
8
BLACK
6
CONTINUOUS
10
5.72219
20
-3.38558
11
5.73718
21
-3.38558
0
LINE
8
BLACK
6
CONTINUOUS
10
5.73718
20
-3.38558
11
5.73819
21
-3.38576
0
LINE
8
BLACK
6
CONTINUOUS
10
5.72514
20
-3.40621
11
5.73649
21
-3.40621
0
LINE
8
BLACK
6
CONTINUOUS
10
5.73649
20
-3.40621
11
5.73918
21
-3.40486
0
LINE
8
BLACK
6
CONTINUOUS
10
5.73918
20
-3.40486
11
5.74038
21
-3.40366
0
LINE
8
BLACK
6
CONTINUOUS
10
5.74038
20
-3.40366
11
5.74173
21
-3.40096
0
LINE
8
BLACK
6
CONTINUOUS
10
5.74173
20
-3.40096
11
5.74173
21
-3.39673
0
LINE
8
BLACK
6
CONTINUOUS
10
5.74173
20
-3.39673
11
5.74038
21
-3.39403
0
LINE
8
BLACK
6
CONTINUOUS
10
5.74038
20
-3.39403
11
5.73918
21
-3.39284
0
LINE
8
BLACK
6
CONTINUOUS
10
5.73918
20
-3.39284
11
5.73649
21
-3.39149
0
LINE
8
BLACK
6
CONTINUOUS
10
5.73649
20
-3.39149
11
5.72514
21
-3.39149
0
LINE
8
BLACK
6
CONTINUOUS
10
5.72514
20
-3.39149
11
5.72514
21
-3.40621
0
LINE
8
BLACK
6
CONTINUOUS
10
5.46447
20
-3.40718
11
5.46473
21
-3.40716
0
LINE
8
BLACK
6
CONTINUOUS
10
5.46473
20
-3.40716
11
5.46536
21
-3.4076
0
LINE
8
BLACK
6
CONTINUOUS
10
5.46536
20
-3.4076
11
5.46606
21
-3.40792
0
LINE
8
BLACK
6
CONTINUOUS
10
5.46606
20
-3.40792
11
5.46793
21
-3.4098
0
LINE
8
BLACK
6
CONTINUOUS
10
5.46793
20
-3.4098
11
5.46815
21
-3.41012
0
LINE
8
BLACK
6
CONTINUOUS
10
5.46815
20
-3.41012
11
5.46826
21
-3.41019
0
LINE
8
BLACK
6
CONTINUOUS
10
5.46826
20
-3.41019
11
5.4683
21
-3.41032
0
LINE
8
BLACK
6
CONTINUOUS
10
5.4683
20
-3.41032
11
5.4683
21
-3.41033
0
LINE
8
BLACK
6
CONTINUOUS
10
5.4683
20
-3.41033
11
5.4684
21
-3.41041
0
LINE
8
BLACK
6
CONTINUOUS
10
5.4684
20
-3.41041
11
5.46841
21
-3.41049
0
LINE
8
BLACK
6
CONTINUOUS
10
5.46841
20
-3.41049
11
5.46852
21
-3.41064
0
LINE
8
BLACK
6
CONTINUOUS
10
5.46852
20
-3.41064
11
5.46859
21
-3.4114
0
LINE
8
BLACK
6
CONTINUOUS
10
5.46859
20
-3.4114
11
5.46878
21
-3.41214
0
LINE
8
BLACK
6
CONTINUOUS
10
5.46878
20
-3.41214
11
5.46873
21
-3.41227
0
LINE
8
BLACK
6
CONTINUOUS
10
5.46873
20
-3.41227
11
5.46875
21
-3.4124
0
LINE
8
BLACK
6
CONTINUOUS
10
5.46875
20
-3.4124
11
5.46868
21
-3.41252
0
LINE
8
BLACK
6
CONTINUOUS
10
5.46868
20
-3.41252
11
5.4687
21
-3.41265
0
LINE
8
BLACK
6
CONTINUOUS
10
5.4687
20
-3.41265
11
5.46826
21
-3.41328
0
LINE
8
BLACK
6
CONTINUOUS
10
5.46826
20
-3.41328
11
5.46793
21
-3.41397
0
LINE
8
BLACK
6
CONTINUOUS
10
5.46793
20
-3.41397
11
5.46606
21
-3.41585
0
LINE
8
BLACK
6
CONTINUOUS
10
5.46606
20
-3.41585
11
5.46574
21
-3.41607
0
LINE
8
BLACK
6
CONTINUOUS
10
5.46574
20
-3.41607
11
5.46566
21
-3.41618
0
LINE
8
BLACK
6
CONTINUOUS
10
5.46566
20
-3.41618
11
5.46554
21
-3.41621
0
LINE
8
BLACK
6
CONTINUOUS
10
5.46554
20
-3.41621
11
5.46522
21
-3.41644
0
LINE
8
BLACK
6
CONTINUOUS
10
5.46522
20
-3.41644
11
5.46445
21
-3.4165
0
LINE
8
BLACK
6
CONTINUOUS
10
5.46445
20
-3.4165
11
5.46371
21
-3.4167
0
LINE
8
BLACK
6
CONTINUOUS
10
5.46371
20
-3.4167
11
5.46347
21
-3.41659
0
LINE
8
BLACK
6
CONTINUOUS
10
5.46347
20
-3.41659
11
5.4632
21
-3.41661
0
LINE
8
BLACK
6
CONTINUOUS
10
5.4632
20
-3.41661
11
5.46258
21
-3.41617
0
LINE
8
BLACK
6
CONTINUOUS
10
5.46258
20
-3.41617
11
5.46188
21
-3.41585
0
LINE
8
BLACK
6
CONTINUOUS
10
5.46188
20
-3.41585
11
5.46001
21
-3.41397
0
LINE
8
BLACK
6
CONTINUOUS
10
5.46001
20
-3.41397
11
5.45978
21
-3.41365
0
LINE
8
BLACK
6
CONTINUOUS
10
5.45978
20
-3.41365
11
5.45967
21
-3.41358
0
LINE
8
BLACK
6
CONTINUOUS
10
5.45967
20
-3.41358
11
5.45964
21
-3.41345
0
LINE
8
BLACK
6
CONTINUOUS
10
5.45964
20
-3.41345
11
5.45964
21
-3.41345
0
LINE
8
BLACK
6
CONTINUOUS
10
5.45964
20
-3.41345
11
5.45954
21
-3.41336
0
LINE
8
BLACK
6
CONTINUOUS
10
5.45954
20
-3.41336
11
5.45952
21
-3.41328
0
LINE
8
BLACK
6
CONTINUOUS
10
5.45952
20
-3.41328
11
5.45942
21
-3.41313
0
LINE
8
BLACK
6
CONTINUOUS
10
5.45942
20
-3.41313
11
5.45935
21
-3.41237
0
LINE
8
BLACK
6
CONTINUOUS
10
5.45935
20
-3.41237
11
5.45915
21
-3.41163
0
LINE
8
BLACK
6
CONTINUOUS
10
5.45915
20
-3.41163
11
5.45921
21
-3.41151
0
LINE
8
BLACK
6
CONTINUOUS
10
5.45921
20
-3.41151
11
5.45919
21
-3.41137
0
LINE
8
BLACK
6
CONTINUOUS
10
5.45919
20
-3.41137
11
5.45925
21
-3.41126
0
LINE
8
BLACK
6
CONTINUOUS
10
5.45925
20
-3.41126
11
5.45924
21
-3.41112
0
LINE
8
BLACK
6
CONTINUOUS
10
5.45924
20
-3.41112
11
5.45968
21
-3.41049
0
LINE
8
BLACK
6
CONTINUOUS
10
5.45968
20
-3.41049
11
5.46001
21
-3.4098
0
LINE
8
BLACK
6
CONTINUOUS
10
5.46001
20
-3.4098
11
5.46188
21
-3.40792
0
LINE
8
BLACK
6
CONTINUOUS
10
5.46188
20
-3.40792
11
5.4622
21
-3.4077
0
LINE
8
BLACK
6
CONTINUOUS
10
5.4622
20
-3.4077
11
5.46227
21
-3.40759
0
LINE
8
BLACK
6
CONTINUOUS
10
5.46227
20
-3.40759
11
5.4624
21
-3.40756
0
LINE
8
BLACK
6
CONTINUOUS
10
5.4624
20
-3.40756
11
5.46272
21
-3.40734
0
LINE
8
BLACK
6
CONTINUOUS
10
5.46272
20
-3.40734
11
5.46348
21
-3.40727
0
LINE
8
BLACK
6
CONTINUOUS
10
5.46348
20
-3.40727
11
5.46423
21
-3.40707
0
LINE
8
BLACK
6
CONTINUOUS
10
5.46423
20
-3.40707
11
5.46447
21
-3.40718
0
LINE
8
BLACK
6
CONTINUOUS
10
5.46436
20
-3.37062
11
5.46505
21
-3.37252
0
LINE
8
BLACK
6
CONTINUOUS
10
5.46505
20
-3.37252
11
5.46505
21
-3.38081
0
LINE
8
BLACK
6
CONTINUOUS
10
5.46505
20
-3.38081
11
5.49246
21
-3.38081
0
LINE
8
BLACK
6
CONTINUOUS
10
5.49246
20
-3.38081
11
5.49
21
-3.37835
0
LINE
8
BLACK
6
CONTINUOUS
10
5.49
20
-3.37835
11
5.4895
21
-3.37763
0
LINE
8
BLACK
6
CONTINUOUS
10
5.4895
20
-3.37763
11
5.48945
21
-3.37759
0
LINE
8
BLACK
6
CONTINUOUS
10
5.48945
20
-3.37759
11
5.48757
21
-3.37384
0
LINE
8
BLACK
6
CONTINUOUS
10
5.48757
20
-3.37384
11
5.48728
21
-3.37285
0
LINE
8
BLACK
6
CONTINUOUS
10
5.48728
20
-3.37285
11
5.48775
21
-3.37089
0
LINE
8
BLACK
6
CONTINUOUS
10
5.48775
20
-3.37089
11
5.48937
21
-3.36969
0
LINE
8
BLACK
6
CONTINUOUS
10
5.48937
20
-3.36969
11
5.49139
21
-3.36981
0
LINE
8
BLACK
6
CONTINUOUS
10
5.49139
20
-3.36981
11
5.49286
21
-3.3712
0
LINE
8
BLACK
6
CONTINUOUS
10
5.49286
20
-3.3712
11
5.49452
21
-3.37452
0
LINE
8
BLACK
6
CONTINUOUS
10
5.49452
20
-3.37452
11
5.49772
21
-3.37772
0
LINE
8
BLACK
6
CONTINUOUS
10
5.49772
20
-3.37772
11
5.5031
21
-3.38131
0
LINE
8
BLACK
6
CONTINUOUS
10
5.5031
20
-3.38131
11
5.50384
21
-3.38202
0
LINE
8
BLACK
6
CONTINUOUS
10
5.50384
20
-3.38202
11
5.50389
21
-3.38218
0
LINE
8
BLACK
6
CONTINUOUS
10
5.50389
20
-3.38218
11
5.50402
21
-3.38229
0
LINE
8
BLACK
6
CONTINUOUS
10
5.50402
20
-3.38229
11
5.50417
21
-3.38313
0
LINE
8
BLACK
6
CONTINUOUS
10
5.50417
20
-3.38313
11
5.50441
21
-3.38395
0
LINE
8
BLACK
6
CONTINUOUS
10
5.50441
20
-3.38395
11
5.50434
21
-3.38411
0
LINE
8
BLACK
6
CONTINUOUS
10
5.50434
20
-3.38411
11
5.50437
21
-3.38428
0
LINE
8
BLACK
6
CONTINUOUS
10
5.50437
20
-3.38428
11
5.50394
21
-3.38502
0
LINE
8
BLACK
6
CONTINUOUS
10
5.50394
20
-3.38502
11
5.5036
21
-3.3858
0
LINE
8
BLACK
6
CONTINUOUS
10
5.5036
20
-3.3858
11
5.50345
21
-3.38588
0
LINE
8
BLACK
6
CONTINUOUS
10
5.50345
20
-3.38588
11
5.50336
21
-3.38603
0
LINE
8
BLACK
6
CONTINUOUS
10
5.50336
20
-3.38603
11
5.50256
21
-3.38632
0
LINE
8
BLACK
6
CONTINUOUS
10
5.50256
20
-3.38632
11
5.50179
21
-3.3867
0
LINE
8
BLACK
6
CONTINUOUS
10
5.50179
20
-3.3867
11
5.50162
21
-3.38666
0
LINE
8
BLACK
6
CONTINUOUS
10
5.50162
20
-3.38666
11
5.50146
21
-3.38672
0
LINE
8
BLACK
6
CONTINUOUS
10
5.50146
20
-3.38672
11
5.46505
21
-3.38672
0
LINE
8
BLACK
6
CONTINUOUS
10
5.46505
20
-3.38672
11
5.46505
21
-3.39501
0
LINE
8
BLACK
6
CONTINUOUS
10
5.46505
20
-3.39501
11
5.46487
21
-3.39602
0
LINE
8
BLACK
6
CONTINUOUS
10
5.46487
20
-3.39602
11
5.46357
21
-3.39757
0
LINE
8
BLACK
6
CONTINUOUS
10
5.46357
20
-3.39757
11
5.46158
21
-3.39792
0
LINE
8
BLACK
6
CONTINUOUS
10
5.46158
20
-3.39792
11
5.45983
21
-3.39691
0
LINE
8
BLACK
6
CONTINUOUS
10
5.45983
20
-3.39691
11
5.45914
21
-3.39501
0
LINE
8
BLACK
6
CONTINUOUS
10
5.45914
20
-3.39501
11
5.45914
21
-3.37252
0
LINE
8
BLACK
6
CONTINUOUS
10
5.45914
20
-3.37252
11
5.45932
21
-3.37151
0
LINE
8
BLACK
6
CONTINUOUS
10
5.45932
20
-3.37151
11
5.46062
21
-3.36996
0
LINE
8
BLACK
6
CONTINUOUS
10
5.46062
20
-3.36996
11
5.46261
21
-3.36961
0
LINE
8
BLACK
6
CONTINUOUS
10
5.46261
20
-3.36961
11
5.46436
21
-3.37062
0
LINE
8
BLACK
6
CONTINUOUS
10
5.74926
20
-3.37483
11
5.7508
21
-3.37613
0
LINE
8
BLACK
6
CONTINUOUS
10
5.7508
20
-3.37613
11
5.75115
21
-3.37812
0
LINE
8
BLACK
6
CONTINUOUS
10
5.75115
20
-3.37812
11
5.75014
21
-3.37987
0
LINE
8
BLACK
6
CONTINUOUS
10
5.75014
20
-3.37987
11
5.74825
21
-3.38056
0
LINE
8
BLACK
6
CONTINUOUS
10
5.74825
20
-3.38056
11
5.67175
21
-3.38056
0
LINE
8
BLACK
6
CONTINUOUS
10
5.67175
20
-3.38056
11
5.67074
21
-3.38038
0
LINE
8
BLACK
6
CONTINUOUS
10
5.67074
20
-3.38038
11
5.6692
21
-3.37908
0
LINE
8
BLACK
6
CONTINUOUS
10
5.6692
20
-3.37908
11
5.66885
21
-3.37709
0
LINE
8
BLACK
6
CONTINUOUS
10
5.66885
20
-3.37709
11
5.66986
21
-3.37534
0
LINE
8
BLACK
6
CONTINUOUS
10
5.66986
20
-3.37534
11
5.67175
21
-3.37465
0
LINE
8
BLACK
6
CONTINUOUS
10
5.67175
20
-3.37465
11
5.74825
21
-3.37465
0
LINE
8
BLACK
6
CONTINUOUS
10
5.74825
20
-3.37465
11
5.74926
21
-3.37483
0
LINE
8
BLACK
6
CONTINUOUS
10
5.67914
20
-3.27576
11
5.67927
21
-3.27587
0
LINE
8
BLACK
6
CONTINUOUS
10
5.67927
20
-3.27587
11
5.67945
21
-3.2759
0
LINE
8
BLACK
6
CONTINUOUS
10
5.67945
20
-3.2759
11
5.6832
21
-3.27777
0
LINE
8
BLACK
6
CONTINUOUS
10
5.6832
20
-3.27777
11
5.6839
21
-3.2783
0
LINE
8
BLACK
6
CONTINUOUS
10
5.6839
20
-3.2783
11
5.68396
21
-3.27832
0
LINE
8
BLACK
6
CONTINUOUS
10
5.68396
20
-3.27832
11
5.68771
21
-3.28207
0
LINE
8
BLACK
6
CONTINUOUS
10
5.68771
20
-3.28207
11
5.6883
21
-3.28291
0
LINE
8
BLACK
6
CONTINUOUS
10
5.6883
20
-3.28291
11
5.68833
21
-3.2832
0
LINE
8
BLACK
6
CONTINUOUS
10
5.68833
20
-3.2832
11
5.68849
21
-3.28344
0
LINE
8
BLACK
6
CONTINUOUS
10
5.68849
20
-3.28344
11
5.69036
21
-3.29094
0
LINE
8
BLACK
6
CONTINUOUS
10
5.69036
20
-3.29094
11
5.69041
21
-3.29153
0
LINE
8
BLACK
6
CONTINUOUS
10
5.69041
20
-3.29153
11
5.69045
21
-3.29166
0
LINE
8
BLACK
6
CONTINUOUS
10
5.69045
20
-3.29166
11
5.69045
21
-3.30478
0
LINE
8
BLACK
6
CONTINUOUS
10
5.69045
20
-3.30478
11
5.69035
21
-3.30536
0
LINE
8
BLACK
6
CONTINUOUS
10
5.69035
20
-3.30536
11
5.69036
21
-3.3055
0
LINE
8
BLACK
6
CONTINUOUS
10
5.69036
20
-3.3055
11
5.68849
21
-3.313
0
LINE
8
BLACK
6
CONTINUOUS
10
5.68849
20
-3.313
11
5.68807
21
-3.31393
0
LINE
8
BLACK
6
CONTINUOUS
10
5.68807
20
-3.31393
11
5.68784
21
-3.31411
0
LINE
8
BLACK
6
CONTINUOUS
10
5.68784
20
-3.31411
11
5.68771
21
-3.31437
0
LINE
8
BLACK
6
CONTINUOUS
10
5.68771
20
-3.31437
11
5.68396
21
-3.31812
0
LINE
8
BLACK
6
CONTINUOUS
10
5.68396
20
-3.31812
11
5.68324
21
-3.31863
0
LINE
8
BLACK
6
CONTINUOUS
10
5.68324
20
-3.31863
11
5.6832
21
-3.31867
0
LINE
8
BLACK
6
CONTINUOUS
10
5.6832
20
-3.31867
11
5.67945
21
-3.32055
0
LINE
8
BLACK
6
CONTINUOUS
10
5.67945
20
-3.32055
11
5.67846
21
-3.32084
0
LINE
8
BLACK
6
CONTINUOUS
10
5.67846
20
-3.32084
11
5.67829
21
-3.3208
0
LINE
8
BLACK
6
CONTINUOUS
10
5.67829
20
-3.3208
11
5.67813
21
-3.32086
0
LINE
8
BLACK
6
CONTINUOUS
10
5.67813
20
-3.32086
11
5.67063
21
-3.32086
0
LINE
8
BLACK
6
CONTINUOUS
10
5.67063
20
-3.32086
11
5.66962
21
-3.32068
0
LINE
8
BLACK
6
CONTINUOUS
10
5.66962
20
-3.32068
11
5.66948
21
-3.32057
0
LINE
8
BLACK
6
CONTINUOUS
10
5.66948
20
-3.32057
11
5.66931
21
-3.32055
0
LINE
8
BLACK
6
CONTINUOUS
10
5.66931
20
-3.32055
11
5.66556
21
-3.31867
0
LINE
8
BLACK
6
CONTINUOUS
10
5.66556
20
-3.31867
11
5.66485
21
-3.31815
0
LINE
8
BLACK
6
CONTINUOUS
10
5.66485
20
-3.31815
11
5.66479
21
-3.31812
0
LINE
8
BLACK
6
CONTINUOUS
10
5.66479
20
-3.31812
11
5.66104
21
-3.31437
0
LINE
8
BLACK
6
CONTINUOUS
10
5.66104
20
-3.31437
11
5.66045
21
-3.31353
0
LINE
8
BLACK
6
CONTINUOUS
10
5.66045
20
-3.31353
11
5.66043
21
-3.31324
0
LINE
8
BLACK
6
CONTINUOUS
10
5.66043
20
-3.31324
11
5.66026
21
-3.313
0
LINE
8
BLACK
6
CONTINUOUS
10
5.66026
20
-3.313
11
5.65839
21
-3.3055
0
LINE
8
BLACK
6
CONTINUOUS
10
5.65839
20
-3.3055
11
5.65835
21
-3.30491
0
LINE
8
BLACK
6
CONTINUOUS
10
5.65835
20
-3.30491
11
5.6583
21
-3.30478
0
LINE
8
BLACK
6
CONTINUOUS
10
5.6583
20
-3.30478
11
5.6583
21
-3.29166
0
LINE
8
BLACK
6
CONTINUOUS
10
5.6583
20
-3.29166
11
5.6584
21
-3.29108
0
LINE
8
BLACK
6
CONTINUOUS
10
5.6584
20
-3.29108
11
5.65839
21
-3.29094
0
LINE
8
BLACK
6
CONTINUOUS
10
5.65839
20
-3.29094
11
5.66026
21
-3.28344
0
LINE
8
BLACK
6
CONTINUOUS
10
5.66026
20
-3.28344
11
5.66068
21
-3.28251
0
LINE
8
BLACK
6
CONTINUOUS
10
5.66068
20
-3.28251
11
5.66092
21
-3.28234
0
LINE
8
BLACK
6
CONTINUOUS
10
5.66092
20
-3.28234
11
5.66104
21
-3.28207
0
LINE
8
BLACK
6
CONTINUOUS
10
5.66104
20
-3.28207
11
5.66479
21
-3.27832
0
LINE
8
BLACK
6
CONTINUOUS
10
5.66479
20
-3.27832
11
5.66551
21
-3.27782
0
LINE
8
BLACK
6
CONTINUOUS
10
5.66551
20
-3.27782
11
5.66556
21
-3.27777
0
LINE
8
BLACK
6
CONTINUOUS
10
5.66556
20
-3.27777
11
5.66931
21
-3.2759
0
LINE
8
BLACK
6
CONTINUOUS
10
5.66931
20
-3.2759
11
5.67029
21
-3.2756
0
LINE
8
BLACK
6
CONTINUOUS
10
5.67029
20
-3.2756
11
5.67046
21
-3.27564
0
LINE
8
BLACK
6
CONTINUOUS
10
5.67046
20
-3.27564
11
5.67063
21
-3.27558
0
LINE
8
BLACK
6
CONTINUOUS
10
5.67063
20
-3.27558
11
5.67813
21
-3.27558
0
LINE
8
BLACK
6
CONTINUOUS
10
5.67813
20
-3.27558
11
5.67914
21
-3.27576
0
LINE
8
BLACK
6
CONTINUOUS
10
5.66863
20
-3.28284
11
5.66579
21
-3.28567
0
LINE
8
BLACK
6
CONTINUOUS
10
5.66579
20
-3.28567
11
5.66421
21
-3.29202
0
LINE
8
BLACK
6
CONTINUOUS
10
5.66421
20
-3.29202
11
5.66421
21
-3.30442
0
LINE
8
BLACK
6
CONTINUOUS
10
5.66421
20
-3.30442
11
5.66579
21
-3.31077
0
LINE
8
BLACK
6
CONTINUOUS
10
5.66579
20
-3.31077
11
5.66863
21
-3.3136
0
LINE
8
BLACK
6
CONTINUOUS
10
5.66863
20
-3.3136
11
5.67132
21
-3.31495
0
LINE
8
BLACK
6
CONTINUOUS
10
5.67132
20
-3.31495
11
5.67743
21
-3.31495
0
LINE
8
BLACK
6
CONTINUOUS
10
5.67743
20
-3.31495
11
5.68013
21
-3.3136
0
LINE
8
BLACK
6
CONTINUOUS
10
5.68013
20
-3.3136
11
5.68296
21
-3.31077
0
LINE
8
BLACK
6
CONTINUOUS
10
5.68296
20
-3.31077
11
5.68455
21
-3.30442
0
LINE
8
BLACK
6
CONTINUOUS
10
5.68455
20
-3.30442
11
5.68455
21
-3.29202
0
LINE
8
BLACK
6
CONTINUOUS
10
5.68455
20
-3.29202
11
5.68296
21
-3.28567
0
LINE
8
BLACK
6
CONTINUOUS
10
5.68296
20
-3.28567
11
5.68013
21
-3.28284
0
LINE
8
BLACK
6
CONTINUOUS
10
5.68013
20
-3.28284
11
5.67743
21
-3.28149
0
LINE
8
BLACK
6
CONTINUOUS
10
5.67743
20
-3.28149
11
5.67132
21
-3.28149
0
LINE
8
BLACK
6
CONTINUOUS
10
5.67132
20
-3.28149
11
5.66863
21
-3.28284
0
LINE
8
BLACK
6
CONTINUOUS
10
5.72024
20
-3.27574
11
5.7203
21
-3.27573
0
LINE
8
BLACK
6
CONTINUOUS
10
5.7203
20
-3.27573
11
5.72593
21
-3.27761
0
LINE
8
BLACK
6
CONTINUOUS
10
5.72593
20
-3.27761
11
5.72683
21
-3.2781
0
LINE
8
BLACK
6
CONTINUOUS
10
5.72683
20
-3.2781
11
5.72789
21
-3.27982
0
LINE
8
BLACK
6
CONTINUOUS
10
5.72789
20
-3.27982
11
5.72759
21
-3.28182
0
LINE
8
BLACK
6
CONTINUOUS
10
5.72759
20
-3.28182
11
5.72608
21
-3.28316
0
LINE
8
BLACK
6
CONTINUOUS
10
5.72608
20
-3.28316
11
5.72406
21
-3.28321
0
LINE
8
BLACK
6
CONTINUOUS
10
5.72406
20
-3.28321
11
5.71889
21
-3.28149
0
LINE
8
BLACK
6
CONTINUOUS
10
5.71889
20
-3.28149
11
5.71069
21
-3.28149
0
LINE
8
BLACK
6
CONTINUOUS
10
5.71069
20
-3.28149
11
5.708
21
-3.28284
0
LINE
8
BLACK
6
CONTINUOUS
10
5.708
20
-3.28284
11
5.7068
21
-3.28403
0
LINE
8
BLACK
6
CONTINUOUS
10
5.7068
20
-3.28403
11
5.70545
21
-3.28673
0
LINE
8
BLACK
6
CONTINUOUS
10
5.70545
20
-3.28673
11
5.70545
21
-3.28909
0
LINE
8
BLACK
6
CONTINUOUS
10
5.70545
20
-3.28909
11
5.7068
21
-3.29179
0
LINE
8
BLACK
6
CONTINUOUS
10
5.7068
20
-3.29179
11
5.708
21
-3.29298
0
LINE
8
BLACK
6
CONTINUOUS
10
5.708
20
-3.29298
11
5.71103
21
-3.2945
0
LINE
8
BLACK
6
CONTINUOUS
10
5.71103
20
-3.2945
11
5.71821
21
-3.29629
0
LINE
8
BLACK
6
CONTINUOUS
10
5.71821
20
-3.29629
11
5.71868
21
-3.2965
0
LINE
8
BLACK
6
CONTINUOUS
10
5.71868
20
-3.2965
11
5.71882
21
-3.29652
0
LINE
8
BLACK
6
CONTINUOUS
10
5.71882
20
-3.29652
11
5.72257
21
-3.29839
0
LINE
8
BLACK
6
CONTINUOUS
10
5.72257
20
-3.29839
11
5.72327
21
-3.29892
0
LINE
8
BLACK
6
CONTINUOUS
10
5.72327
20
-3.29892
11
5.72333
21
-3.29895
0
LINE
8
BLACK
6
CONTINUOUS
10
5.72333
20
-3.29895
11
5.72521
21
-3.30082
0
LINE
8
BLACK
6
CONTINUOUS
10
5.72521
20
-3.30082
11
5.72571
21
-3.30154
0
LINE
8
BLACK
6
CONTINUOUS
10
5.72571
20
-3.30154
11
5.72576
21
-3.30159
0
LINE
8
BLACK
6
CONTINUOUS
10
5.72576
20
-3.30159
11
5.72764
21
-3.30534
0
LINE
8
BLACK
6
CONTINUOUS
10
5.72764
20
-3.30534
11
5.72793
21
-3.30632
0
LINE
8
BLACK
6
CONTINUOUS
10
5.72793
20
-3.30632
11
5.72789
21
-3.30649
0
LINE
8
BLACK
6
CONTINUOUS
10
5.72789
20
-3.30649
11
5.72795
21
-3.30666
0
LINE
8
BLACK
6
CONTINUOUS
10
5.72795
20
-3.30666
11
5.72795
21
-3.31041
0
LINE
8
BLACK
6
CONTINUOUS
10
5.72795
20
-3.31041
11
5.72777
21
-3.31142
0
LINE
8
BLACK
6
CONTINUOUS
10
5.72777
20
-3.31142
11
5.72766
21
-3.31155
0
LINE
8
BLACK
6
CONTINUOUS
10
5.72766
20
-3.31155
11
5.72764
21
-3.31173
0
LINE
8
BLACK
6
CONTINUOUS
10
5.72764
20
-3.31173
11
5.72576
21
-3.31548
0
LINE
8
BLACK
6
CONTINUOUS
10
5.72576
20
-3.31548
11
5.72523
21
-3.31619
0
LINE
8
BLACK
6
CONTINUOUS
10
5.72523
20
-3.31619
11
5.72521
21
-3.31624
0
LINE
8
BLACK
6
CONTINUOUS
10
5.72521
20
-3.31624
11
5.72333
21
-3.31812
0
LINE
8
BLACK
6
CONTINUOUS
10
5.72333
20
-3.31812
11
5.72261
21
-3.31863
0
LINE
8
BLACK
6
CONTINUOUS
10
5.72261
20
-3.31863
11
5.72257
21
-3.31867
0
LINE
8
BLACK
6
CONTINUOUS
10
5.72257
20
-3.31867
11
5.71882
21
-3.32055
0
LINE
8
BLACK
6
CONTINUOUS
10
5.71882
20
-3.32055
11
5.71783
21
-3.32084
0
LINE
8
BLACK
6
CONTINUOUS
10
5.71783
20
-3.32084
11
5.71766
21
-3.3208
0
LINE
8
BLACK
6
CONTINUOUS
10
5.71766
20
-3.3208
11
5.7175
21
-3.32086
0
LINE
8
BLACK
6
CONTINUOUS
10
5.7175
20
-3.32086
11
5.70812
21
-3.32086
0
LINE
8
BLACK
6
CONTINUOUS
10
5.70812
20
-3.32086
11
5.70725
21
-3.32071
0
LINE
8
BLACK
6
CONTINUOUS
10
5.70725
20
-3.32071
11
5.70719
21
-3.32071
0
LINE
8
BLACK
6
CONTINUOUS
10
5.70719
20
-3.32071
11
5.70156
21
-3.31883
0
LINE
8
BLACK
6
CONTINUOUS
10
5.70156
20
-3.31883
11
5.70066
21
-3.31834
0
LINE
8
BLACK
6
CONTINUOUS
10
5.70066
20
-3.31834
11
5.6996
21
-3.31662
0
LINE
8
BLACK
6
CONTINUOUS
10
5.6996
20
-3.31662
11
5.6999
21
-3.31463
0
LINE
8
BLACK
6
CONTINUOUS
10
5.6999
20
-3.31463
11
5.70141
21
-3.31329
0
LINE
8
BLACK
6
CONTINUOUS
10
5.70141
20
-3.31329
11
5.70343
21
-3.31323
0
LINE
8
BLACK
6
CONTINUOUS
10
5.70343
20
-3.31323
11
5.7086
21
-3.31495
0
LINE
8
BLACK
6
CONTINUOUS
10
5.7086
20
-3.31495
11
5.7168
21
-3.31495
0
LINE
8
BLACK
6
CONTINUOUS
10
5.7168
20
-3.31495
11
5.7195
21
-3.3136
0
LINE
8
BLACK
6
CONTINUOUS
10
5.7195
20
-3.3136
11
5.72069
21
-3.31241
0
LINE
8
BLACK
6
CONTINUOUS
10
5.72069
20
-3.31241
11
5.72204
21
-3.30971
0
LINE
8
BLACK
6
CONTINUOUS
10
5.72204
20
-3.30971
11
5.72204
21
-3.30735
0
LINE
8
BLACK
6
CONTINUOUS
10
5.72204
20
-3.30735
11
5.72069
21
-3.30466
0
LINE
8
BLACK
6
CONTINUOUS
10
5.72069
20
-3.30466
11
5.7195
21
-3.30346
0
LINE
8
BLACK
6
CONTINUOUS
10
5.7195
20
-3.30346
11
5.71646
21
-3.30194
0
LINE
8
BLACK
6
CONTINUOUS
10
5.71646
20
-3.30194
11
5.70928
21
-3.30015
0
LINE
8
BLACK
6
CONTINUOUS
10
5.70928
20
-3.30015
11
5.70881
21
-3.29994
0
LINE
8
BLACK
6
CONTINUOUS
10
5.70881
20
-3.29994
11
5.70868
21
-3.29992
0
LINE
8
BLACK
6
CONTINUOUS
10
5.70868
20
-3.29992
11
5.70493
21
-3.29805
0
LINE
8
BLACK
6
CONTINUOUS
10
5.70493
20
-3.29805
11
5.70422
21
-3.29752
0
LINE
8
BLACK
6
CONTINUOUS
10
5.70422
20
-3.29752
11
5.70416
21
-3.2975
0
LINE
8
BLACK
6
CONTINUOUS
10
5.70416
20
-3.2975
11
5.70228
21
-3.29562
0
LINE
8
BLACK
6
CONTINUOUS
10
5.70228
20
-3.29562
11
5.70178
21
-3.2949
0
LINE
8
BLACK
6
CONTINUOUS
10
5.70178
20
-3.2949
11
5.70173
21
-3.29485
0
LINE
8
BLACK
6
CONTINUOUS
10
5.70173
20
-3.29485
11
5.69986
21
-3.29111
0
LINE
8
BLACK
6
CONTINUOUS
10
5.69986
20
-3.29111
11
5.69956
21
-3.29012
0
LINE
8
BLACK
6
CONTINUOUS
10
5.69956
20
-3.29012
11
5.6996
21
-3.28995
0
LINE
8
BLACK
6
CONTINUOUS
10
5.6996
20
-3.28995
11
5.69954
21
-3.28978
0
LINE
8
BLACK
6
CONTINUOUS
10
5.69954
20
-3.28978
11
5.69954
21
-3.28604
0
LINE
8
BLACK
6
CONTINUOUS
10
5.69954
20
-3.28604
11
5.69972
21
-3.28503
0
LINE
8
BLACK
6
CONTINUOUS
10
5.69972
20
-3.28503
11
5.69984
21
-3.28489
0
LINE
8
BLACK
6
CONTINUOUS
10
5.69984
20
-3.28489
11
5.69986
21
-3.28471
0
LINE
8
BLACK
6
CONTINUOUS
10
5.69986
20
-3.28471
11
5.70173
21
-3.28097
0
LINE
8
BLACK
6
CONTINUOUS
10
5.70173
20
-3.28097
11
5.70226
21
-3.28026
0
LINE
8
BLACK
6
CONTINUOUS
10
5.70226
20
-3.28026
11
5.70228
21
-3.2802
0
LINE
8
BLACK
6
CONTINUOUS
10
5.70228
20
-3.2802
11
5.70416
21
-3.27832
0
LINE
8
BLACK
6
CONTINUOUS
10
5.70416
20
-3.27832
11
5.70488
21
-3.27782
0
LINE
8
BLACK
6
CONTINUOUS
10
5.70488
20
-3.27782
11
5.70493
21
-3.27777
0
LINE
8
BLACK
6
CONTINUOUS
10
5.70493
20
-3.27777
11
5.70868
21
-3.2759
0
LINE
8
BLACK
6
CONTINUOUS
10
5.70868
20
-3.2759
11
5.70966
21
-3.2756
0
LINE
8
BLACK
6
CONTINUOUS
10
5.70966
20
-3.2756
11
5.70983
21
-3.27564
0
LINE
8
BLACK
6
CONTINUOUS
10
5.70983
20
-3.27564
11
5.71
21
-3.27558
0
LINE
8
BLACK
6
CONTINUOUS
10
5.71
20
-3.27558
11
5.71937
21
-3.27558
0
LINE
8
BLACK
6
CONTINUOUS
10
5.71937
20
-3.27558
11
5.72024
21
-3.27574
0
LINE
8
BLACK
6
CONTINUOUS
10
5.6445
20
-3.2757
11
5.64489
21
-3.27563
0
LINE
8
BLACK
6
CONTINUOUS
10
5.64489
20
-3.27563
11
5.64545
21
-3.27595
0
LINE
8
BLACK
6
CONTINUOUS
10
5.64545
20
-3.27595
11
5.64607
21
-3.27612
0
LINE
8
BLACK
6
CONTINUOUS
10
5.64607
20
-3.27612
11
5.6463
21
-3.27644
0
LINE
8
BLACK
6
CONTINUOUS
10
5.6463
20
-3.27644
11
5.64664
21
-3.27664
0
LINE
8
BLACK
6
CONTINUOUS
10
5.64664
20
-3.27664
11
5.64686
21
-3.27724
0
LINE
8
BLACK
6
CONTINUOUS
10
5.64686
20
-3.27724
11
5.64723
21
-3.27777
0
LINE
8
BLACK
6
CONTINUOUS
10
5.64723
20
-3.27777
11
5.6472
21
-3.27817
0
LINE
8
BLACK
6
CONTINUOUS
10
5.6472
20
-3.27817
11
5.64733
21
-3.27854
0
LINE
8
BLACK
6
CONTINUOUS
10
5.64733
20
-3.27854
11
5.64733
21
-3.31791
0
LINE
8
BLACK
6
CONTINUOUS
10
5.64733
20
-3.31791
11
5.64715
21
-3.31892
0
LINE
8
BLACK
6
CONTINUOUS
10
5.64715
20
-3.31892
11
5.64586
21
-3.32046
0
LINE
8
BLACK
6
CONTINUOUS
10
5.64586
20
-3.32046
11
5.64387
21
-3.32081
0
LINE
8
BLACK
6
CONTINUOUS
10
5.64387
20
-3.32081
11
5.64212
21
-3.3198
0
LINE
8
BLACK
6
CONTINUOUS
10
5.64212
20
-3.3198
11
5.64143
21
-3.31791
0
LINE
8
BLACK
6
CONTINUOUS
10
5.64143
20
-3.31791
11
5.64143
21
-3.29185
0
LINE
8
BLACK
6
CONTINUOUS
10
5.64143
20
-3.29185
11
5.63393
21
-3.30791
0
LINE
8
BLACK
6
CONTINUOUS
10
5.63393
20
-3.30791
11
5.63371
21
-3.30822
0
LINE
8
BLACK
6
CONTINUOUS
10
5.63371
20
-3.30822
11
5.63368
21
-3.30835
0
LINE
8
BLACK
6
CONTINUOUS
10
5.63368
20
-3.30835
11
5.63357
21
-3.30843
0
LINE
8
BLACK
6
CONTINUOUS
10
5.63357
20
-3.30843
11
5.63334
21
-3.30875
0
LINE
8
BLACK
6
CONTINUOUS
10
5.63334
20
-3.30875
11
5.63265
21
-3.30907
0
LINE
8
BLACK
6
CONTINUOUS
10
5.63265
20
-3.30907
11
5.63202
21
-3.30951
0
LINE
8
BLACK
6
CONTINUOUS
10
5.63202
20
-3.30951
11
5.63175
21
-3.30949
0
LINE
8
BLACK
6
CONTINUOUS
10
5.63175
20
-3.30949
11
5.63151
21
-3.3096
0
LINE
8
BLACK
6
CONTINUOUS
10
5.63151
20
-3.3096
11
5.63077
21
-3.3094
0
LINE
8
BLACK
6
CONTINUOUS
10
5.63077
20
-3.3094
11
5.63001
21
-3.30933
0
LINE
8
BLACK
6
CONTINUOUS
10
5.63001
20
-3.30933
11
5.62982
21
-3.30915
0
LINE
8
BLACK
6
CONTINUOUS
10
5.62982
20
-3.30915
11
5.62956
21
-3.30908
0
LINE
8
BLACK
6
CONTINUOUS
10
5.62956
20
-3.30908
11
5.62912
21
-3.30845
0
LINE
8
BLACK
6
CONTINUOUS
10
5.62912
20
-3.30845
11
5.62858
21
-3.30791
0
LINE
8
BLACK
6
CONTINUOUS
10
5.62858
20
-3.30791
11
5.62109
21
-3.29185
0
LINE
8
BLACK
6
CONTINUOUS
10
5.62109
20
-3.29185
11
5.62109
21
-3.31791
0
LINE
8
BLACK
6
CONTINUOUS
10
5.62109
20
-3.31791
11
5.62091
21
-3.31892
0
LINE
8
BLACK
6
CONTINUOUS
10
5.62091
20
-3.31892
11
5.61961
21
-3.32046
0
LINE
8
BLACK
6
CONTINUOUS
10
5.61961
20
-3.32046
11
5.61762
21
-3.32081
0
LINE
8
BLACK
6
CONTINUOUS
10
5.61762
20
-3.32081
11
5.61587
21
-3.3198
0
LINE
8
BLACK
6
CONTINUOUS
10
5.61587
20
-3.3198
11
5.61518
21
-3.31791
0
LINE
8
BLACK
6
CONTINUOUS
10
5.61518
20
-3.31791
11
5.61518
21
-3.27854
0
LINE
8
BLACK
6
CONTINUOUS
10
5.61518
20
-3.27854
11
5.61536
21
-3.27753
0
LINE
8
BLACK
6
CONTINUOUS
10
5.61536
20
-3.27753
11
5.61561
21
-3.27722
0
LINE
8
BLACK
6
CONTINUOUS
10
5.61561
20
-3.27722
11
5.61571
21
-3.27684
0
LINE
8
BLACK
6
CONTINUOUS
10
5.61571
20
-3.27684
11
5.61624
21
-3.27647
0
LINE
8
BLACK
6
CONTINUOUS
10
5.61624
20
-3.27647
11
5.61666
21
-3.27598
0
LINE
8
BLACK
6
CONTINUOUS
10
5.61666
20
-3.27598
11
5.61704
21
-3.27591
0
LINE
8
BLACK
6
CONTINUOUS
10
5.61704
20
-3.27591
11
5.61737
21
-3.27568
0
LINE
8
BLACK
6
CONTINUOUS
10
5.61737
20
-3.27568
11
5.61801
21
-3.27574
0
LINE
8
BLACK
6
CONTINUOUS
10
5.61801
20
-3.27574
11
5.61865
21
-3.27563
0
LINE
8
BLACK
6
CONTINUOUS
10
5.61865
20
-3.27563
11
5.61899
21
-3.27583
0
LINE
8
BLACK
6
CONTINUOUS
10
5.61899
20
-3.27583
11
5.61938
21
-3.27586
0
LINE
8
BLACK
6
CONTINUOUS
10
5.61938
20
-3.27586
11
5.61984
21
-3.27632
0
LINE
8
BLACK
6
CONTINUOUS
10
5.61984
20
-3.27632
11
5.62039
21
-3.27664
0
LINE
8
BLACK
6
CONTINUOUS
10
5.62039
20
-3.27664
11
5.62053
21
-3.27701
0
LINE
8
BLACK
6
CONTINUOUS
10
5.62053
20
-3.27701
11
5.62081
21
-3.27729
0
LINE
8
BLACK
6
CONTINUOUS
10
5.62081
20
-3.27729
11
5.63126
21
-3.29968
0
LINE
8
BLACK
6
CONTINUOUS
10
5.63126
20
-3.29968
11
5.6417
21
-3.27729
0
LINE
8
BLACK
6
CONTINUOUS
10
5.6417
20
-3.27729
11
5.64229
21
-3.27645
0
LINE
8
BLACK
6
CONTINUOUS
10
5.64229
20
-3.27645
11
5.64265
21
-3.27628
0
LINE
8
BLACK
6
CONTINUOUS
10
5.64265
20
-3.27628
11
5.6429
21
-3.27598
0
LINE
8
BLACK
6
CONTINUOUS
10
5.6429
20
-3.27598
11
5.64354
21
-3.27587
0
LINE
8
BLACK
6
CONTINUOUS
10
5.64354
20
-3.27587
11
5.64412
21
-3.27559
0
LINE
8
BLACK
6
CONTINUOUS
10
5.64412
20
-3.27559
11
5.6445
21
-3.2757
0
LINE
8
BLACK
6
CONTINUOUS
10
5.74413
20
-3.27664
11
5.74482
21
-3.27854
0
LINE
8
BLACK
6
CONTINUOUS
10
5.74482
20
-3.27854
11
5.74482
21
-3.31791
0
LINE
8
BLACK
6
CONTINUOUS
10
5.74482
20
-3.31791
11
5.74464
21
-3.31892
0
LINE
8
BLACK
6
CONTINUOUS
10
5.74464
20
-3.31892
11
5.74334
21
-3.32046
0
LINE
8
BLACK
6
CONTINUOUS
10
5.74334
20
-3.32046
11
5.74135
21
-3.32081
0
LINE
8
BLACK
6
CONTINUOUS
10
5.74135
20
-3.32081
11
5.73961
21
-3.3198
0
LINE
8
BLACK
6
CONTINUOUS
10
5.73961
20
-3.3198
11
5.73891
21
-3.31791
0
LINE
8
BLACK
6
CONTINUOUS
10
5.73891
20
-3.31791
11
5.73891
21
-3.27854
0
LINE
8
BLACK
6
CONTINUOUS
10
5.73891
20
-3.27854
11
5.73909
21
-3.27753
0
LINE
8
BLACK
6
CONTINUOUS
10
5.73909
20
-3.27753
11
5.74039
21
-3.27598
0
LINE
8
BLACK
6
CONTINUOUS
10
5.74039
20
-3.27598
11
5.74238
21
-3.27563
0
LINE
8
BLACK
6
CONTINUOUS
10
5.74238
20
-3.27563
11
5.74413
21
-3.27664
0
LINE
8
BLACK
6
CONTINUOUS
10
5.31946
20
-3.23833
11
5.32015
21
-3.24023
0
LINE
8
BLACK
6
CONTINUOUS
10
5.32015
20
-3.24023
11
5.32015
21
-3.27665
0
LINE
8
BLACK
6
CONTINUOUS
10
5.32015
20
-3.27665
11
5.33594
21
-3.27665
0
LINE
8
BLACK
6
CONTINUOUS
10
5.33594
20
-3.27665
11
5.33695
21
-3.27682
0
LINE
8
BLACK
6
CONTINUOUS
10
5.33695
20
-3.27682
11
5.3385
21
-3.27812
0
LINE
8
BLACK
6
CONTINUOUS
10
5.3385
20
-3.27812
11
5.33885
21
-3.28011
0
LINE
8
BLACK
6
CONTINUOUS
10
5.33885
20
-3.28011
11
5.33784
21
-3.28186
0
LINE
8
BLACK
6
CONTINUOUS
10
5.33784
20
-3.28186
11
5.33594
21
-3.28255
0
LINE
8
BLACK
6
CONTINUOUS
10
5.33594
20
-3.28255
11
5.3172
21
-3.28255
0
LINE
8
BLACK
6
CONTINUOUS
10
5.3172
20
-3.28255
11
5.31681
21
-3.28248
0
LINE
8
BLACK
6
CONTINUOUS
10
5.31681
20
-3.28248
11
5.31668
21
-3.28251
0
LINE
8
BLACK
6
CONTINUOUS
10
5.31668
20
-3.28251
11
5.31657
21
-3.28244
0
LINE
8
BLACK
6
CONTINUOUS
10
5.31657
20
-3.28244
11
5.31619
21
-3.28237
0
LINE
8
BLACK
6
CONTINUOUS
10
5.31619
20
-3.28237
11
5.3156
21
-3.28188
0
LINE
8
BLACK
6
CONTINUOUS
10
5.3156
20
-3.28188
11
5.31493
21
-3.2815
0
LINE
8
BLACK
6
CONTINUOUS
10
5.31493
20
-3.2815
11
5.31484
21
-3.28125
0
LINE
8
BLACK
6
CONTINUOUS
10
5.31484
20
-3.28125
11
5.31464
21
-3.28108
0
LINE
8
BLACK
6
CONTINUOUS
10
5.31464
20
-3.28108
11
5.3145
21
-3.28032
0
LINE
8
BLACK
6
CONTINUOUS
10
5.3145
20
-3.28032
11
5.31424
21
-3.2796
0
LINE
8
BLACK
6
CONTINUOUS
10
5.31424
20
-3.2796
11
5.31424
21
-3.24023
0
LINE
8
BLACK
6
CONTINUOUS
10
5.31424
20
-3.24023
11
5.31442
21
-3.23922
0
LINE
8
BLACK
6
CONTINUOUS
10
5.31442
20
-3.23922
11
5.31572
21
-3.23767
0
LINE
8
BLACK
6
CONTINUOUS
10
5.31572
20
-3.23767
11
5.31771
21
-3.23732
0
LINE
8
BLACK
6
CONTINUOUS
10
5.31771
20
-3.23732
11
5.31946
21
-3.23833
0
LINE
8
BLACK
6
CONTINUOUS
10
5.39695
20
-3.23745
11
5.39708
21
-3.23757
0
LINE
8
BLACK
6
CONTINUOUS
10
5.39708
20
-3.23757
11
5.39726
21
-3.23759
0
LINE
8
BLACK
6
CONTINUOUS
10
5.39726
20
-3.23759
11
5.40101
21
-3.23946
0
LINE
8
BLACK
6
CONTINUOUS
10
5.40101
20
-3.23946
11
5.40171
21
-3.23999
0
LINE
8
BLACK
6
CONTINUOUS
10
5.40171
20
-3.23999
11
5.40177
21
-3.24002
0
LINE
8
BLACK
6
CONTINUOUS
10
5.40177
20
-3.24002
11
5.40365
21
-3.24189
0
LINE
8
BLACK
6
CONTINUOUS
10
5.40365
20
-3.24189
11
5.40415
21
-3.24261
0
LINE
8
BLACK
6
CONTINUOUS
10
5.40415
20
-3.24261
11
5.4042
21
-3.24266
0
LINE
8
BLACK
6
CONTINUOUS
10
5.4042
20
-3.24266
11
5.40608
21
-3.24641
0
LINE
8
BLACK
6
CONTINUOUS
10
5.40608
20
-3.24641
11
5.40637
21
-3.24739
0
LINE
8
BLACK
6
CONTINUOUS
10
5.40637
20
-3.24739
11
5.40633
21
-3.24756
0
LINE
8
BLACK
6
CONTINUOUS
10
5.40633
20
-3.24756
11
5.40639
21
-3.24773
0
LINE
8
BLACK
6
CONTINUOUS
10
5.40639
20
-3.24773
11
5.40639
21
-3.25148
0
LINE
8
BLACK
6
CONTINUOUS
10
5.40639
20
-3.25148
11
5.40621
21
-3.25249
0
LINE
8
BLACK
6
CONTINUOUS
10
5.40621
20
-3.25249
11
5.4061
21
-3.25262
0
LINE
8
BLACK
6
CONTINUOUS
10
5.4061
20
-3.25262
11
5.40608
21
-3.2528
0
LINE
8
BLACK
6
CONTINUOUS
10
5.40608
20
-3.2528
11
5.4042
21
-3.25655
0
LINE
8
BLACK
6
CONTINUOUS
10
5.4042
20
-3.25655
11
5.40367
21
-3.25726
0
LINE
8
BLACK
6
CONTINUOUS
10
5.40367
20
-3.25726
11
5.40365
21
-3.25732
0
LINE
8
BLACK
6
CONTINUOUS
10
5.40365
20
-3.25732
11
5.40277
21
-3.2582
0
LINE
8
BLACK
6
CONTINUOUS
10
5.40277
20
-3.2582
11
5.4034
21
-3.25854
0
LINE
8
BLACK
6
CONTINUOUS
10
5.4034
20
-3.25854
11
5.40349
21
-3.25869
0
LINE
8
BLACK
6
CONTINUOUS
10
5.40349
20
-3.25869
11
5.40365
21
-3.25876
0
LINE
8
BLACK
6
CONTINUOUS
10
5.40365
20
-3.25876
11
5.40552
21
-3.26064
0
LINE
8
BLACK
6
CONTINUOUS
10
5.40552
20
-3.26064
11
5.40603
21
-3.26136
0
LINE
8
BLACK
6
CONTINUOUS
10
5.40603
20
-3.26136
11
5.40608
21
-3.26141
0
LINE
8
BLACK
6
CONTINUOUS
10
5.40608
20
-3.26141
11
5.40795
21
-3.26516
0
LINE
8
BLACK
6
CONTINUOUS
10
5.40795
20
-3.26516
11
5.40824
21
-3.26614
0
LINE
8
BLACK
6
CONTINUOUS
10
5.40824
20
-3.26614
11
5.4082
21
-3.26631
0
LINE
8
BLACK
6
CONTINUOUS
10
5.4082
20
-3.26631
11
5.40826
21
-3.26648
0
LINE
8
BLACK
6
CONTINUOUS
10
5.40826
20
-3.26648
11
5.40826
21
-3.2721
0
LINE
8
BLACK
6
CONTINUOUS
10
5.40826
20
-3.2721
11
5.40808
21
-3.27311
0
LINE
8
BLACK
6
CONTINUOUS
10
5.40808
20
-3.27311
11
5.40797
21
-3.27325
0
LINE
8
BLACK
6
CONTINUOUS
10
5.40797
20
-3.27325
11
5.40795
21
-3.27342
0
LINE
8
BLACK
6
CONTINUOUS
10
5.40795
20
-3.27342
11
5.40608
21
-3.27717
0
LINE
8
BLACK
6
CONTINUOUS
10
5.40608
20
-3.27717
11
5.40555
21
-3.27788
0
LINE
8
BLACK
6
CONTINUOUS
10
5.40555
20
-3.27788
11
5.40552
21
-3.27794
0
LINE
8
BLACK
6
CONTINUOUS
10
5.40552
20
-3.27794
11
5.40365
21
-3.27981
0
LINE
8
BLACK
6
CONTINUOUS
10
5.40365
20
-3.27981
11
5.40292
21
-3.28032
0
LINE
8
BLACK
6
CONTINUOUS
10
5.40292
20
-3.28032
11
5.40288
21
-3.28037
0
LINE
8
BLACK
6
CONTINUOUS
10
5.40288
20
-3.28037
11
5.39913
21
-3.28224
0
LINE
8
BLACK
6
CONTINUOUS
10
5.39913
20
-3.28224
11
5.39815
21
-3.28253
0
LINE
8
BLACK
6
CONTINUOUS
10
5.39815
20
-3.28253
11
5.39798
21
-3.28249
0
LINE
8
BLACK
6
CONTINUOUS
10
5.39798
20
-3.28249
11
5.39781
21
-3.28255
0
LINE
8
BLACK
6
CONTINUOUS
10
5.39781
20
-3.28255
11
5.38281
21
-3.28255
0
LINE
8
BLACK
6
CONTINUOUS
10
5.38281
20
-3.28255
11
5.38243
21
-3.28248
0
LINE
8
BLACK
6
CONTINUOUS
10
5.38243
20
-3.28248
11
5.3823
21
-3.28251
0
LINE
8
BLACK
6
CONTINUOUS
10
5.3823
20
-3.28251
11
5.38219
21
-3.28244
0
LINE
8
BLACK
6
CONTINUOUS
10
5.38219
20
-3.28244
11
5.3818
21
-3.28237
0
LINE
8
BLACK
6
CONTINUOUS
10
5.3818
20
-3.28237
11
5.38121
21
-3.28188
0
LINE
8
BLACK
6
CONTINUOUS
10
5.38121
20
-3.28188
11
5.38055
21
-3.2815
0
LINE
8
BLACK
6
CONTINUOUS
10
5.38055
20
-3.2815
11
5.38046
21
-3.28125
0
LINE
8
BLACK
6
CONTINUOUS
10
5.38046
20
-3.28125
11
5.38026
21
-3.28108
0
LINE
8
BLACK
6
CONTINUOUS
10
5.38026
20
-3.28108
11
5.38012
21
-3.28032
0
LINE
8
BLACK
6
CONTINUOUS
10
5.38012
20
-3.28032
11
5.37986
21
-3.2796
0
LINE
8
BLACK
6
CONTINUOUS
10
5.37986
20
-3.2796
11
5.37986
21
-3.24023
0
LINE
8
BLACK
6
CONTINUOUS
10
5.37986
20
-3.24023
11
5.37993
21
-3.23985
0
LINE
8
BLACK
6
CONTINUOUS
10
5.37993
20
-3.23985
11
5.3799
21
-3.23972
0
LINE
8
BLACK
6
CONTINUOUS
10
5.3799
20
-3.23972
11
5.37997
21
-3.2396
0
LINE
8
BLACK
6
CONTINUOUS
10
5.37997
20
-3.2396
11
5.38004
21
-3.23922
0
LINE
8
BLACK
6
CONTINUOUS
10
5.38004
20
-3.23922
11
5.38053
21
-3.23863
0
LINE
8
BLACK
6
CONTINUOUS
10
5.38053
20
-3.23863
11
5.38091
21
-3.23797
0
LINE
8
BLACK
6
CONTINUOUS
10
5.38091
20
-3.23797
11
5.38116
21
-3.23788
0
LINE
8
BLACK
6
CONTINUOUS
10
5.38116
20
-3.23788
11
5.38134
21
-3.23767
0
LINE
8
BLACK
6
CONTINUOUS
10
5.38134
20
-3.23767
11
5.38209
21
-3.23754
0
LINE
8
BLACK
6
CONTINUOUS
10
5.38209
20
-3.23754
11
5.38281
21
-3.23728
0
LINE
8
BLACK
6
CONTINUOUS
10
5.38281
20
-3.23728
11
5.39594
21
-3.23728
0
LINE
8
BLACK
6
CONTINUOUS
10
5.39594
20
-3.23728
11
5.39695
21
-3.23745
0
LINE
8
BLACK
6
CONTINUOUS
10
5.38576
20
-3.27665
11
5.39711
21
-3.27665
0
LINE
8
BLACK
6
CONTINUOUS
10
5.39711
20
-3.27665
11
5.39981
21
-3.2753
0
LINE
8
BLACK
6
CONTINUOUS
10
5.39981
20
-3.2753
11
5.40101
21
-3.2741
0
LINE
8
BLACK
6
CONTINUOUS
10
5.40101
20
-3.2741
11
5.40236
21
-3.2714
0
LINE
8
BLACK
6
CONTINUOUS
10
5.40236
20
-3.2714
11
5.40236
21
-3.26717
0
LINE
8
BLACK
6
CONTINUOUS
10
5.40236
20
-3.26717
11
5.40101
21
-3.26448
0
LINE
8
BLACK
6
CONTINUOUS
10
5.40101
20
-3.26448
11
5.39996
21
-3.26343
0
LINE
8
BLACK
6
CONTINUOUS
10
5.39996
20
-3.26343
11
5.39546
21
-3.26193
0
LINE
8
BLACK
6
CONTINUOUS
10
5.39546
20
-3.26193
11
5.38576
21
-3.26193
0
LINE
8
BLACK
6
CONTINUOUS
10
5.38576
20
-3.26193
11
5.38576
21
-3.27665
0
LINE
8
BLACK
6
CONTINUOUS
10
5.38576
20
-3.25602
11
5.39524
21
-3.25602
0
LINE
8
BLACK
6
CONTINUOUS
10
5.39524
20
-3.25602
11
5.39794
21
-3.25468
0
LINE
8
BLACK
6
CONTINUOUS
10
5.39794
20
-3.25468
11
5.39913
21
-3.25348
0
LINE
8
BLACK
6
CONTINUOUS
10
5.39913
20
-3.25348
11
5.40048
21
-3.25078
0
LINE
8
BLACK
6
CONTINUOUS
10
5.40048
20
-3.25078
11
5.40048
21
-3.24843
0
LINE
8
BLACK
6
CONTINUOUS
10
5.40048
20
-3.24843
11
5.39913
21
-3.24573
0
LINE
8
BLACK
6
CONTINUOUS
10
5.39913
20
-3.24573
11
5.39794
21
-3.24453
0
LINE
8
BLACK
6
CONTINUOUS
10
5.39794
20
-3.24453
11
5.39524
21
-3.24318
0
LINE
8
BLACK
6
CONTINUOUS
10
5.39524
20
-3.24318
11
5.38576
21
-3.24318
0
LINE
8
BLACK
6
CONTINUOUS
10
5.38576
20
-3.24318
11
5.38576
21
-3.25602
0
LINE
8
BLACK
6
CONTINUOUS
10
5.45506
20
-3.25058
11
5.4552
21
-3.25069
0
LINE
8
BLACK
6
CONTINUOUS
10
5.4552
20
-3.25069
11
5.45537
21
-3.25071
0
LINE
8
BLACK
6
CONTINUOUS
10
5.45537
20
-3.25071
11
5.45912
21
-3.25259
0
LINE
8
BLACK
6
CONTINUOUS
10
5.45912
20
-3.25259
11
5.45995
21
-3.2532
0
LINE
8
BLACK
6
CONTINUOUS
10
5.45995
20
-3.2532
11
5.46075
21
-3.25505
0
LINE
8
BLACK
6
CONTINUOUS
10
5.46075
20
-3.25505
11
5.46017
21
-3.25699
0
LINE
8
BLACK
6
CONTINUOUS
10
5.46017
20
-3.25699
11
5.45849
21
-3.2581
0
LINE
8
BLACK
6
CONTINUOUS
10
5.45849
20
-3.2581
11
5.45648
21
-3.25787
0
LINE
8
BLACK
6
CONTINUOUS
10
5.45648
20
-3.25787
11
5.45336
21
-3.25631
0
LINE
8
BLACK
6
CONTINUOUS
10
5.45336
20
-3.25631
11
5.44725
21
-3.25631
0
LINE
8
BLACK
6
CONTINUOUS
10
5.44725
20
-3.25631
11
5.44455
21
-3.25765
0
LINE
8
BLACK
6
CONTINUOUS
10
5.44455
20
-3.25765
11
5.44336
21
-3.25885
0
LINE
8
BLACK
6
CONTINUOUS
10
5.44336
20
-3.25885
11
5.44201
21
-3.26155
0
LINE
8
BLACK
6
CONTINUOUS
10
5.44201
20
-3.26155
11
5.44201
21
-3.2714
0
LINE
8
BLACK
6
CONTINUOUS
10
5.44201
20
-3.2714
11
5.44336
21
-3.2741
0
LINE
8
BLACK
6
CONTINUOUS
10
5.44336
20
-3.2741
11
5.44455
21
-3.2753
0
LINE
8
BLACK
6
CONTINUOUS
10
5.44455
20
-3.2753
11
5.44725
21
-3.27665
0
LINE
8
BLACK
6
CONTINUOUS
10
5.44725
20
-3.27665
11
5.45336
21
-3.27665
0
LINE
8
BLACK
6
CONTINUOUS
10
5.45336
20
-3.27665
11
5.45648
21
-3.27508
0
LINE
8
BLACK
6
CONTINUOUS
10
5.45648
20
-3.27508
11
5.45747
21
-3.27479
0
LINE
8
BLACK
6
CONTINUOUS
10
5.45747
20
-3.27479
11
5.45943
21
-3.27526
0
LINE
8
BLACK
6
CONTINUOUS
10
5.45943
20
-3.27526
11
5.46063
21
-3.27688
0
LINE
8
BLACK
6
CONTINUOUS
10
5.46063
20
-3.27688
11
5.46051
21
-3.2789
0
LINE
8
BLACK
6
CONTINUOUS
10
5.46051
20
-3.2789
11
5.45912
21
-3.28037
0
LINE
8
BLACK
6
CONTINUOUS
10
5.45912
20
-3.28037
11
5.45537
21
-3.28224
0
LINE
8
BLACK
6
CONTINUOUS
10
5.45537
20
-3.28224
11
5.45439
21
-3.28253
0
LINE
8
BLACK
6
CONTINUOUS
10
5.45439
20
-3.28253
11
5.45422
21
-3.28249
0
LINE
8
BLACK
6
CONTINUOUS
10
5.45422
20
-3.28249
11
5.45405
21
-3.28255
0
LINE
8
BLACK
6
CONTINUOUS
10
5.45405
20
-3.28255
11
5.44655
21
-3.28255
0
LINE
8
BLACK
6
CONTINUOUS
10
5.44655
20
-3.28255
11
5.44554
21
-3.28237
0
LINE
8
BLACK
6
CONTINUOUS
10
5.44554
20
-3.28237
11
5.44541
21
-3.28226
0
LINE
8
BLACK
6
CONTINUOUS
10
5.44541
20
-3.28226
11
5.44523
21
-3.28224
0
LINE
8
BLACK
6
CONTINUOUS
10
5.44523
20
-3.28224
11
5.44148
21
-3.28037
0
LINE
8
BLACK
6
CONTINUOUS
10
5.44148
20
-3.28037
11
5.44077
21
-3.27984
0
LINE
8
BLACK
6
CONTINUOUS
10
5.44077
20
-3.27984
11
5.44072
21
-3.27981
0
LINE
8
BLACK
6
CONTINUOUS
10
5.44072
20
-3.27981
11
5.43884
21
-3.27794
0
LINE
8
BLACK
6
CONTINUOUS
10
5.43884
20
-3.27794
11
5.43834
21
-3.27721
0
LINE
8
BLACK
6
CONTINUOUS
10
5.43834
20
-3.27721
11
5.43829
21
-3.27717
0
LINE
8
BLACK
6
CONTINUOUS
10
5.43829
20
-3.27717
11
5.43641
21
-3.27342
0
LINE
8
BLACK
6
CONTINUOUS
10
5.43641
20
-3.27342
11
5.43612
21
-3.27244
0
LINE
8
BLACK
6
CONTINUOUS
10
5.43612
20
-3.27244
11
5.43616
21
-3.27227
0
LINE
8
BLACK
6
CONTINUOUS
10
5.43616
20
-3.27227
11
5.4361
21
-3.2721
0
LINE
8
BLACK
6
CONTINUOUS
10
5.4361
20
-3.2721
11
5.4361
21
-3.26085
0
LINE
8
BLACK
6
CONTINUOUS
10
5.4361
20
-3.26085
11
5.43628
21
-3.25984
0
LINE
8
BLACK
6
CONTINUOUS
10
5.43628
20
-3.25984
11
5.43639
21
-3.25971
0
LINE
8
BLACK
6
CONTINUOUS
10
5.43639
20
-3.25971
11
5.43641
21
-3.25953
0
LINE
8
BLACK
6
CONTINUOUS
10
5.43641
20
-3.25953
11
5.43829
21
-3.25578
0
LINE
8
BLACK
6
CONTINUOUS
10
5.43829
20
-3.25578
11
5.43881
21
-3.25507
0
LINE
8
BLACK
6
CONTINUOUS
10
5.43881
20
-3.25507
11
5.43884
21
-3.25501
0
LINE
8
BLACK
6
CONTINUOUS
10
5.43884
20
-3.25501
11
5.44072
21
-3.25314
0
LINE
8
BLACK
6
CONTINUOUS
10
5.44072
20
-3.25314
11
5.44144
21
-3.25263
0
LINE
8
BLACK
6
CONTINUOUS
10
5.44144
20
-3.25263
11
5.44148
21
-3.25259
0
LINE
8
BLACK
6
CONTINUOUS
10
5.44148
20
-3.25259
11
5.44523
21
-3.25071
0
LINE
8
BLACK
6
CONTINUOUS
10
5.44523
20
-3.25071
11
5.44622
21
-3.25042
0
LINE
8
BLACK
6
CONTINUOUS
10
5.44622
20
-3.25042
11
5.44639
21
-3.25046
0
LINE
8
BLACK
6
CONTINUOUS
10
5.44639
20
-3.25046
11
5.44655
21
-3.2504
0
LINE
8
BLACK
6
CONTINUOUS
10
5.44655
20
-3.2504
11
5.45405
21
-3.2504
0
LINE
8
BLACK
6
CONTINUOUS
10
5.45405
20
-3.2504
11
5.45506
21
-3.25058
0
LINE
8
BLACK
6
CONTINUOUS
10
5.49185
20
-3.25045
11
5.49197
21
-3.25043
0
LINE
8
BLACK
6
CONTINUOUS
10
5.49197
20
-3.25043
11
5.49209
21
-3.2505
0
LINE
8
BLACK
6
CONTINUOUS
10
5.49209
20
-3.2505
11
5.49256
21
-3.25058
0
LINE
8
BLACK
6
CONTINUOUS
10
5.49256
20
-3.25058
11
5.49311
21
-3.25104
0
LINE
8
BLACK
6
CONTINUOUS
10
5.49311
20
-3.25104
11
5.49375
21
-3.25138
0
LINE
8
BLACK
6
CONTINUOUS
10
5.49375
20
-3.25138
11
5.49387
21
-3.25167
0
LINE
8
BLACK
6
CONTINUOUS
10
5.49387
20
-3.25167
11
5.49411
21
-3.25188
0
LINE
8
BLACK
6
CONTINUOUS
10
5.49411
20
-3.25188
11
5.49423
21
-3.25259
0
LINE
8
BLACK
6
CONTINUOUS
10
5.49423
20
-3.25259
11
5.4945
21
-3.25326
0
LINE
8
BLACK
6
CONTINUOUS
10
5.4945
20
-3.25326
11
5.4944
21
-3.25356
0
LINE
8
BLACK
6
CONTINUOUS
10
5.4944
20
-3.25356
11
5.49446
21
-3.25387
0
LINE
8
BLACK
6
CONTINUOUS
10
5.49446
20
-3.25387
11
5.4941
21
-3.25449
0
LINE
8
BLACK
6
CONTINUOUS
10
5.4941
20
-3.25449
11
5.49387
21
-3.25518
0
LINE
8
BLACK
6
CONTINUOUS
10
5.49387
20
-3.25518
11
5.477
21
-3.27665
0
LINE
8
BLACK
6
CONTINUOUS
10
5.477
20
-3.27665
11
5.49155
21
-3.27665
0
LINE
8
BLACK
6
CONTINUOUS
10
5.49155
20
-3.27665
11
5.49256
21
-3.27682
0
LINE
8
BLACK
6
CONTINUOUS
10
5.49256
20
-3.27682
11
5.49411
21
-3.27812
0
LINE
8
BLACK
6
CONTINUOUS
10
5.49411
20
-3.27812
11
5.49446
21
-3.28011
0
LINE
8
BLACK
6
CONTINUOUS
10
5.49446
20
-3.28011
11
5.49345
21
-3.28186
0
LINE
8
BLACK
6
CONTINUOUS
10
5.49345
20
-3.28186
11
5.49155
21
-3.28255
0
LINE
8
BLACK
6
CONTINUOUS
10
5.49155
20
-3.28255
11
5.47093
21
-3.28255
0
LINE
8
BLACK
6
CONTINUOUS
10
5.47093
20
-3.28255
11
5.47062
21
-3.2825
0
LINE
8
BLACK
6
CONTINUOUS
10
5.47062
20
-3.2825
11
5.47051
21
-3.28252
0
LINE
8
BLACK
6
CONTINUOUS
10
5.47051
20
-3.28252
11
5.47038
21
-3.28246
0
LINE
8
BLACK
6
CONTINUOUS
10
5.47038
20
-3.28246
11
5.46992
21
-3.28237
0
LINE
8
BLACK
6
CONTINUOUS
10
5.46992
20
-3.28237
11
5.46936
21
-3.28191
0
LINE
8
BLACK
6
CONTINUOUS
10
5.46936
20
-3.28191
11
5.46873
21
-3.28157
0
LINE
8
BLACK
6
CONTINUOUS
10
5.46873
20
-3.28157
11
5.46861
21
-3.28128
0
LINE
8
BLACK
6
CONTINUOUS
10
5.46861
20
-3.28128
11
5.46837
21
-3.28108
0
LINE
8
BLACK
6
CONTINUOUS
10
5.46837
20
-3.28108
11
5.46824
21
-3.28036
0
LINE
8
BLACK
6
CONTINUOUS
10
5.46824
20
-3.28036
11
5.46797
21
-3.27969
0
LINE
8
BLACK
6
CONTINUOUS
10
5.46797
20
-3.27969
11
5.46807
21
-3.2794
0
LINE
8
BLACK
6
CONTINUOUS
10
5.46807
20
-3.2794
11
5.46802
21
-3.27909
0
LINE
8
BLACK
6
CONTINUOUS
10
5.46802
20
-3.27909
11
5.46838
21
-3.27846
0
LINE
8
BLACK
6
CONTINUOUS
10
5.46838
20
-3.27846
11
5.4686
21
-3.27777
0
LINE
8
BLACK
6
CONTINUOUS
10
5.4686
20
-3.27777
11
5.48547
21
-3.25631
0
LINE
8
BLACK
6
CONTINUOUS
10
5.48547
20
-3.25631
11
5.47093
21
-3.25631
0
LINE
8
BLACK
6
CONTINUOUS
10
5.47093
20
-3.25631
11
5.46992
21
-3.25613
0
LINE
8
BLACK
6
CONTINUOUS
10
5.46992
20
-3.25613
11
5.46837
21
-3.25483
0
LINE
8
BLACK
6
CONTINUOUS
10
5.46837
20
-3.25483
11
5.46802
21
-3.25284
0
LINE
8
BLACK
6
CONTINUOUS
10
5.46802
20
-3.25284
11
5.46903
21
-3.25109
0
LINE
8
BLACK
6
CONTINUOUS
10
5.46903
20
-3.25109
11
5.47093
21
-3.2504
0
LINE
8
BLACK
6
CONTINUOUS
10
5.47093
20
-3.2504
11
5.49155
21
-3.2504
0
LINE
8
BLACK
6
CONTINUOUS
10
5.49155
20
-3.2504
11
5.49185
21
-3.25045
0
LINE
8
BLACK
6
CONTINUOUS
10
5.42256
20
-3.27297
11
5.4227
21
-3.27294
0
LINE
8
BLACK
6
CONTINUOUS
10
5.4227
20
-3.27294
11
5.42281
21
-3.27301
0
LINE
8
BLACK
6
CONTINUOUS
10
5.42281
20
-3.27301
11
5.42295
21
-3.273
0
LINE
8
BLACK
6
CONTINUOUS
10
5.42295
20
-3.273
11
5.42357
21
-3.27344
0
LINE
8
BLACK
6
CONTINUOUS
10
5.42357
20
-3.27344
11
5.42427
21
-3.27376
0
LINE
8
BLACK
6
CONTINUOUS
10
5.42427
20
-3.27376
11
5.42614
21
-3.27564
0
LINE
8
BLACK
6
CONTINUOUS
10
5.42614
20
-3.27564
11
5.42637
21
-3.27596
0
LINE
8
BLACK
6
CONTINUOUS
10
5.42637
20
-3.27596
11
5.42648
21
-3.27603
0
LINE
8
BLACK
6
CONTINUOUS
10
5.42648
20
-3.27603
11
5.42651
21
-3.27616
0
LINE
8
BLACK
6
CONTINUOUS
10
5.42651
20
-3.27616
11
5.42673
21
-3.27648
0
LINE
8
BLACK
6
CONTINUOUS
10
5.42673
20
-3.27648
11
5.4268
21
-3.27724
0
LINE
8
BLACK
6
CONTINUOUS
10
5.4268
20
-3.27724
11
5.427
21
-3.27798
0
LINE
8
BLACK
6
CONTINUOUS
10
5.427
20
-3.27798
11
5.42689
21
-3.27822
0
LINE
8
BLACK
6
CONTINUOUS
10
5.42689
20
-3.27822
11
5.42691
21
-3.27849
0
LINE
8
BLACK
6
CONTINUOUS
10
5.42691
20
-3.27849
11
5.42647
21
-3.27912
0
LINE
8
BLACK
6
CONTINUOUS
10
5.42647
20
-3.27912
11
5.42614
21
-3.27981
0
LINE
8
BLACK
6
CONTINUOUS
10
5.42614
20
-3.27981
11
5.42427
21
-3.28169
0
LINE
8
BLACK
6
CONTINUOUS
10
5.42427
20
-3.28169
11
5.42395
21
-3.28191
0
LINE
8
BLACK
6
CONTINUOUS
10
5.42395
20
-3.28191
11
5.42388
21
-3.28202
0
LINE
8
BLACK
6
CONTINUOUS
10
5.42388
20
-3.28202
11
5.42375
21
-3.28205
0
LINE
8
BLACK
6
CONTINUOUS
10
5.42375
20
-3.28205
11
5.42374
21
-3.28206
0
LINE
8
BLACK
6
CONTINUOUS
10
5.42374
20
-3.28206
11
5.42366
21
-3.28216
0
LINE
8
BLACK
6
CONTINUOUS
10
5.42366
20
-3.28216
11
5.42358
21
-3.28217
0
LINE
8
BLACK
6
CONTINUOUS
10
5.42358
20
-3.28217
11
5.42343
21
-3.28228
0
LINE
8
BLACK
6
CONTINUOUS
10
5.42343
20
-3.28228
11
5.42267
21
-3.28234
0
LINE
8
BLACK
6
CONTINUOUS
10
5.42267
20
-3.28234
11
5.42192
21
-3.28254
0
LINE
8
BLACK
6
CONTINUOUS
10
5.42192
20
-3.28254
11
5.4218
21
-3.28248
0
LINE
8
BLACK
6
CONTINUOUS
10
5.4218
20
-3.28248
11
5.42167
21
-3.28251
0
LINE
8
BLACK
6
CONTINUOUS
10
5.42167
20
-3.28251
11
5.42155
21
-3.28244
0
LINE
8
BLACK
6
CONTINUOUS
10
5.42155
20
-3.28244
11
5.42142
21
-3.28245
0
LINE
8
BLACK
6
CONTINUOUS
10
5.42142
20
-3.28245
11
5.42079
21
-3.28201
0
LINE
8
BLACK
6
CONTINUOUS
10
5.42079
20
-3.28201
11
5.42009
21
-3.28169
0
LINE
8
BLACK
6
CONTINUOUS
10
5.42009
20
-3.28169
11
5.41822
21
-3.27981
0
LINE
8
BLACK
6
CONTINUOUS
10
5.41822
20
-3.27981
11
5.418
21
-3.27949
0
LINE
8
BLACK
6
CONTINUOUS
10
5.418
20
-3.27949
11
5.41789
21
-3.27942
0
LINE
8
BLACK
6
CONTINUOUS
10
5.41789
20
-3.27942
11
5.41785
21
-3.27929
0
LINE
8
BLACK
6
CONTINUOUS
10
5.41785
20
-3.27929
11
5.41763
21
-3.27897
0
LINE
8
BLACK
6
CONTINUOUS
10
5.41763
20
-3.27897
11
5.41756
21
-3.27821
0
LINE
8
BLACK
6
CONTINUOUS
10
5.41756
20
-3.27821
11
5.41737
21
-3.27747
0
LINE
8
BLACK
6
CONTINUOUS
10
5.41737
20
-3.27747
11
5.41748
21
-3.27723
0
LINE
8
BLACK
6
CONTINUOUS
10
5.41748
20
-3.27723
11
5.41746
21
-3.27696
0
LINE
8
BLACK
6
CONTINUOUS
10
5.41746
20
-3.27696
11
5.4179
21
-3.27633
0
LINE
8
BLACK
6
CONTINUOUS
10
5.4179
20
-3.27633
11
5.41822
21
-3.27564
0
LINE
8
BLACK
6
CONTINUOUS
10
5.41822
20
-3.27564
11
5.42009
21
-3.27376
0
LINE
8
BLACK
6
CONTINUOUS
10
5.42009
20
-3.27376
11
5.42041
21
-3.27354
0
LINE
8
BLACK
6
CONTINUOUS
10
5.42041
20
-3.27354
11
5.42049
21
-3.27343
0
LINE
8
BLACK
6
CONTINUOUS
10
5.42049
20
-3.27343
11
5.42062
21
-3.2734
0
LINE
8
BLACK
6
CONTINUOUS
10
5.42062
20
-3.2734
11
5.42062
21
-3.27339
0
LINE
8
BLACK
6
CONTINUOUS
10
5.42062
20
-3.27339
11
5.42071
21
-3.27329
0
LINE
8
BLACK
6
CONTINUOUS
10
5.42071
20
-3.27329
11
5.42078
21
-3.27328
0
LINE
8
BLACK
6
CONTINUOUS
10
5.42078
20
-3.27328
11
5.42093
21
-3.27317
0
LINE
8
BLACK
6
CONTINUOUS
10
5.42093
20
-3.27317
11
5.4217
21
-3.27311
0
LINE
8
BLACK
6
CONTINUOUS
10
5.4217
20
-3.27311
11
5.42244
21
-3.27291
0
LINE
8
BLACK
6
CONTINUOUS
10
5.42244
20
-3.27291
11
5.42256
21
-3.27297
0
LINE
8
BLACK
6
CONTINUOUS
10
5.35705
20
-3.2375
11
5.35797
21
-3.23763
0
LINE
8
BLACK
6
CONTINUOUS
10
5.35797
20
-3.23763
11
5.35803
21
-3.2377
0
LINE
8
BLACK
6
CONTINUOUS
10
5.35803
20
-3.2377
11
5.35811
21
-3.23771
0
LINE
8
BLACK
6
CONTINUOUS
10
5.35811
20
-3.23771
11
5.35869
21
-3.23844
0
LINE
8
BLACK
6
CONTINUOUS
10
5.35869
20
-3.23844
11
5.35931
21
-3.23914
0
LINE
8
BLACK
6
CONTINUOUS
10
5.35931
20
-3.23914
11
5.35931
21
-3.23923
0
LINE
8
BLACK
6
CONTINUOUS
10
5.35931
20
-3.23923
11
5.35937
21
-3.2393
0
LINE
8
BLACK
6
CONTINUOUS
10
5.35937
20
-3.2393
11
5.37249
21
-3.27867
0
LINE
8
BLACK
6
CONTINUOUS
10
5.37249
20
-3.27867
11
5.37264
21
-3.27968
0
LINE
8
BLACK
6
CONTINUOUS
10
5.37264
20
-3.27968
11
5.3719
21
-3.28156
0
LINE
8
BLACK
6
CONTINUOUS
10
5.3719
20
-3.28156
11
5.37012
21
-3.28252
0
LINE
8
BLACK
6
CONTINUOUS
10
5.37012
20
-3.28252
11
5.36814
21
-3.28212
0
LINE
8
BLACK
6
CONTINUOUS
10
5.36814
20
-3.28212
11
5.36689
21
-3.28053
0
LINE
8
BLACK
6
CONTINUOUS
10
5.36689
20
-3.28053
11
5.36381
21
-3.2713
0
LINE
8
BLACK
6
CONTINUOUS
10
5.36381
20
-3.2713
11
5.34932
21
-3.2713
0
LINE
8
BLACK
6
CONTINUOUS
10
5.34932
20
-3.2713
11
5.34624
21
-3.28053
0
LINE
8
BLACK
6
CONTINUOUS
10
5.34624
20
-3.28053
11
5.34575
21
-3.28143
0
LINE
8
BLACK
6
CONTINUOUS
10
5.34575
20
-3.28143
11
5.34403
21
-3.28249
0
LINE
8
BLACK
6
CONTINUOUS
10
5.34403
20
-3.28249
11
5.34204
21
-3.2822
0
LINE
8
BLACK
6
CONTINUOUS
10
5.34204
20
-3.2822
11
5.3407
21
-3.28068
0
LINE
8
BLACK
6
CONTINUOUS
10
5.3407
20
-3.28068
11
5.34064
21
-3.27867
0
LINE
8
BLACK
6
CONTINUOUS
10
5.34064
20
-3.27867
11
5.35376
21
-3.2393
0
LINE
8
BLACK
6
CONTINUOUS
10
5.35376
20
-3.2393
11
5.35425
21
-3.23839
0
LINE
8
BLACK
6
CONTINUOUS
10
5.35425
20
-3.23839
11
5.35432
21
-3.23835
0
LINE
8
BLACK
6
CONTINUOUS
10
5.35432
20
-3.23835
11
5.35436
21
-3.23827
0
LINE
8
BLACK
6
CONTINUOUS
10
5.35436
20
-3.23827
11
5.35518
21
-3.23783
0
LINE
8
BLACK
6
CONTINUOUS
10
5.35518
20
-3.23783
11
5.35597
21
-3.23734
0
LINE
8
BLACK
6
CONTINUOUS
10
5.35597
20
-3.23734
11
5.35606
21
-3.23735
0
LINE
8
BLACK
6
CONTINUOUS
10
5.35606
20
-3.23735
11
5.35613
21
-3.23731
0
LINE
8
BLACK
6
CONTINUOUS
10
5.35613
20
-3.23731
11
5.35705
21
-3.2375
0
LINE
8
BLACK
6
CONTINUOUS
10
5.35129
20
-3.2654
11
5.36184
21
-3.2654
0
LINE
8
BLACK
6
CONTINUOUS
10
5.36184
20
-3.2654
11
5.35657
21
-3.24957
0
LINE
8
BLACK
6
CONTINUOUS
10
5.35657
20
-3.24957
11
5.35129
21
-3.2654
0
LINE
8
BLACK
6
CONTINUOUS
10
5.29857
20
-3.23739
11
5.29896
21
-3.23732
0
LINE
8
BLACK
6
CONTINUOUS
10
5.29896
20
-3.23732
11
5.29952
21
-3.23764
0
LINE
8
BLACK
6
CONTINUOUS
10
5.29952
20
-3.23764
11
5.30014
21
-3.23781
0
LINE
8
BLACK
6
CONTINUOUS
10
5.30014
20
-3.23781
11
5.30037
21
-3.23813
0
LINE
8
BLACK
6
CONTINUOUS
10
5.30037
20
-3.23813
11
5.30071
21
-3.23833
0
LINE
8
BLACK
6
CONTINUOUS
10
5.30071
20
-3.23833
11
5.30093
21
-3.23894
0
LINE
8
BLACK
6
CONTINUOUS
10
5.30093
20
-3.23894
11
5.3013
21
-3.23947
0
LINE
8
BLACK
6
CONTINUOUS
10
5.3013
20
-3.23947
11
5.30127
21
-3.23986
0
LINE
8
BLACK
6
CONTINUOUS
10
5.30127
20
-3.23986
11
5.3014
21
-3.24023
0
LINE
8
BLACK
6
CONTINUOUS
10
5.3014
20
-3.24023
11
5.3014
21
-3.2796
0
LINE
8
BLACK
6
CONTINUOUS
10
5.3014
20
-3.2796
11
5.30122
21
-3.28061
0
LINE
8
BLACK
6
CONTINUOUS
10
5.30122
20
-3.28061
11
5.29992
21
-3.28216
0
LINE
8
BLACK
6
CONTINUOUS
10
5.29992
20
-3.28216
11
5.29793
21
-3.28251
0
LINE
8
BLACK
6
CONTINUOUS
10
5.29793
20
-3.28251
11
5.29619
21
-3.2815
0
LINE
8
BLACK
6
CONTINUOUS
10
5.29619
20
-3.2815
11
5.29549
21
-3.2796
0
LINE
8
BLACK
6
CONTINUOUS
10
5.29549
20
-3.2796
11
5.29549
21
-3.25354
0
LINE
8
BLACK
6
CONTINUOUS
10
5.29549
20
-3.25354
11
5.288
21
-3.2696
0
LINE
8
BLACK
6
CONTINUOUS
10
5.288
20
-3.2696
11
5.28778
21
-3.26992
0
LINE
8
BLACK
6
CONTINUOUS
10
5.28778
20
-3.26992
11
5.28774
21
-3.27004
0
LINE
8
BLACK
6
CONTINUOUS
10
5.28774
20
-3.27004
11
5.28764
21
-3.27012
0
LINE
8
BLACK
6
CONTINUOUS
10
5.28764
20
-3.27012
11
5.28741
21
-3.27044
0
LINE
8
BLACK
6
CONTINUOUS
10
5.28741
20
-3.27044
11
5.28672
21
-3.27076
0
LINE
8
BLACK
6
CONTINUOUS
10
5.28672
20
-3.27076
11
5.28609
21
-3.2712
0
LINE
8
BLACK
6
CONTINUOUS
10
5.28609
20
-3.2712
11
5.28582
21
-3.27118
0
LINE
8
BLACK
6
CONTINUOUS
10
5.28582
20
-3.27118
11
5.28558
21
-3.27129
0
LINE
8
BLACK
6
CONTINUOUS
10
5.28558
20
-3.27129
11
5.28484
21
-3.27109
0
LINE
8
BLACK
6
CONTINUOUS
10
5.28484
20
-3.27109
11
5.28408
21
-3.27103
0
LINE
8
BLACK
6
CONTINUOUS
10
5.28408
20
-3.27103
11
5.28389
21
-3.27084
0
LINE
8
BLACK
6
CONTINUOUS
10
5.28389
20
-3.27084
11
5.28363
21
-3.27077
0
LINE
8
BLACK
6
CONTINUOUS
10
5.28363
20
-3.27077
11
5.28319
21
-3.27014
0
LINE
8
BLACK
6
CONTINUOUS
10
5.28319
20
-3.27014
11
5.28265
21
-3.2696
0
LINE
8
BLACK
6
CONTINUOUS
10
5.28265
20
-3.2696
11
5.27515
21
-3.25354
0
LINE
8
BLACK
6
CONTINUOUS
10
5.27515
20
-3.25354
11
5.27515
21
-3.2796
0
LINE
8
BLACK
6
CONTINUOUS
10
5.27515
20
-3.2796
11
5.27498
21
-3.28061
0
LINE
8
BLACK
6
CONTINUOUS
10
5.27498
20
-3.28061
11
5.27368
21
-3.28216
0
LINE
8
BLACK
6
CONTINUOUS
10
5.27368
20
-3.28216
11
5.27169
21
-3.28251
0
LINE
8
BLACK
6
CONTINUOUS
10
5.27169
20
-3.28251
11
5.26994
21
-3.2815
0
LINE
8
BLACK
6
CONTINUOUS
10
5.26994
20
-3.2815
11
5.26925
21
-3.2796
0
LINE
8
BLACK
6
CONTINUOUS
10
5.26925
20
-3.2796
11
5.26925
21
-3.24023
0
LINE
8
BLACK
6
CONTINUOUS
10
5.26925
20
-3.24023
11
5.26943
21
-3.23922
0
LINE
8
BLACK
6
CONTINUOUS
10
5.26943
20
-3.23922
11
5.26968
21
-3.23892
0
LINE
8
BLACK
6
CONTINUOUS
10
5.26968
20
-3.23892
11
5.26978
21
-3.23854
0
LINE
8
BLACK
6
CONTINUOUS
10
5.26978
20
-3.23854
11
5.27031
21
-3.23817
0
LINE
8
BLACK
6
CONTINUOUS
10
5.27031
20
-3.23817
11
5.27072
21
-3.23767
0
LINE
8
BLACK
6
CONTINUOUS
10
5.27072
20
-3.23767
11
5.27111
21
-3.2376
0
LINE
8
BLACK
6
CONTINUOUS
10
5.27111
20
-3.2376
11
5.27144
21
-3.23738
0
LINE
8
BLACK
6
CONTINUOUS
10
5.27144
20
-3.23738
11
5.27208
21
-3.23743
0
LINE
8
BLACK
6
CONTINUOUS
10
5.27208
20
-3.23743
11
5.27271
21
-3.23732
0
LINE
8
BLACK
6
CONTINUOUS
10
5.27271
20
-3.23732
11
5.27306
21
-3.23752
0
LINE
8
BLACK
6
CONTINUOUS
10
5.27306
20
-3.23752
11
5.27345
21
-3.23755
0
LINE
8
BLACK
6
CONTINUOUS
10
5.27345
20
-3.23755
11
5.2739
21
-3.23801
0
LINE
8
BLACK
6
CONTINUOUS
10
5.2739
20
-3.23801
11
5.27446
21
-3.23833
0
LINE
8
BLACK
6
CONTINUOUS
10
5.27446
20
-3.23833
11
5.2746
21
-3.2387
0
LINE
8
BLACK
6
CONTINUOUS
10
5.2746
20
-3.2387
11
5.27488
21
-3.23898
0
LINE
8
BLACK
6
CONTINUOUS
10
5.27488
20
-3.23898
11
5.28532
21
-3.26137
0
LINE
8
BLACK
6
CONTINUOUS
10
5.28532
20
-3.26137
11
5.29577
21
-3.23898
0
LINE
8
BLACK
6
CONTINUOUS
10
5.29577
20
-3.23898
11
5.29636
21
-3.23814
0
LINE
8
BLACK
6
CONTINUOUS
10
5.29636
20
-3.23814
11
5.29672
21
-3.23797
0
LINE
8
BLACK
6
CONTINUOUS
10
5.29672
20
-3.23797
11
5.29697
21
-3.23767
0
LINE
8
BLACK
6
CONTINUOUS
10
5.29697
20
-3.23767
11
5.29761
21
-3.23756
0
LINE
8
BLACK
6
CONTINUOUS
10
5.29761
20
-3.23756
11
5.29819
21
-3.23729
0
LINE
8
BLACK
6
CONTINUOUS
10
5.29819
20
-3.23729
11
5.29857
21
-3.23739
0
LINE
8
BLACK
6
CONTINUOUS
10
5.66712
20
-3.17574
11
5.66719
21
-3.17573
0
LINE
8
BLACK
6
CONTINUOUS
10
5.66719
20
-3.17573
11
5.67281
21
-3.17761
0
LINE
8
BLACK
6
CONTINUOUS
10
5.67281
20
-3.17761
11
5.67371
21
-3.1781
0
LINE
8
BLACK
6
CONTINUOUS
10
5.67371
20
-3.1781
11
5.67477
21
-3.17982
0
LINE
8
BLACK
6
CONTINUOUS
10
5.67477
20
-3.17982
11
5.67448
21
-3.18182
0
LINE
8
BLACK
6
CONTINUOUS
10
5.67448
20
-3.18182
11
5.67296
21
-3.18316
0
LINE
8
BLACK
6
CONTINUOUS
10
5.67296
20
-3.18316
11
5.67094
21
-3.18321
0
LINE
8
BLACK
6
CONTINUOUS
10
5.67094
20
-3.18321
11
5.66578
21
-3.18149
0
LINE
8
BLACK
6
CONTINUOUS
10
5.66578
20
-3.18149
11
5.65758
21
-3.18149
0
LINE
8
BLACK
6
CONTINUOUS
10
5.65758
20
-3.18149
11
5.65488
21
-3.18284
0
LINE
8
BLACK
6
CONTINUOUS
10
5.65488
20
-3.18284
11
5.65368
21
-3.18403
0
LINE
8
BLACK
6
CONTINUOUS
10
5.65368
20
-3.18403
11
5.65233
21
-3.18673
0
LINE
8
BLACK
6
CONTINUOUS
10
5.65233
20
-3.18673
11
5.65233
21
-3.18909
0
LINE
8
BLACK
6
CONTINUOUS
10
5.65233
20
-3.18909
11
5.65368
21
-3.19179
0
LINE
8
BLACK
6
CONTINUOUS
10
5.65368
20
-3.19179
11
5.65488
21
-3.19298
0
LINE
8
BLACK
6
CONTINUOUS
10
5.65488
20
-3.19298
11
5.65791
21
-3.1945
0
LINE
8
BLACK
6
CONTINUOUS
10
5.65791
20
-3.1945
11
5.6651
21
-3.19629
0
LINE
8
BLACK
6
CONTINUOUS
10
5.6651
20
-3.19629
11
5.66556
21
-3.1965
0
LINE
8
BLACK
6
CONTINUOUS
10
5.66556
20
-3.1965
11
5.6657
21
-3.19652
0
LINE
8
BLACK
6
CONTINUOUS
10
5.6657
20
-3.19652
11
5.66945
21
-3.19839
0
LINE
8
BLACK
6
CONTINUOUS
10
5.66945
20
-3.19839
11
5.67016
21
-3.19892
0
LINE
8
BLACK
6
CONTINUOUS
10
5.67016
20
-3.19892
11
5.67022
21
-3.19895
0
LINE
8
BLACK
6
CONTINUOUS
10
5.67022
20
-3.19895
11
5.67209
21
-3.20082
0
LINE
8
BLACK
6
CONTINUOUS
10
5.67209
20
-3.20082
11
5.6726
21
-3.20154
0
LINE
8
BLACK
6
CONTINUOUS
10
5.6726
20
-3.20154
11
5.67264
21
-3.20159
0
LINE
8
BLACK
6
CONTINUOUS
10
5.67264
20
-3.20159
11
5.67452
21
-3.20534
0
LINE
8
BLACK
6
CONTINUOUS
10
5.67452
20
-3.20534
11
5.67481
21
-3.20632
0
LINE
8
BLACK
6
CONTINUOUS
10
5.67481
20
-3.20632
11
5.67477
21
-3.20649
0
LINE
8
BLACK
6
CONTINUOUS
10
5.67477
20
-3.20649
11
5.67483
21
-3.20666
0
LINE
8
BLACK
6
CONTINUOUS
10
5.67483
20
-3.20666
11
5.67483
21
-3.21041
0
LINE
8
BLACK
6
CONTINUOUS
10
5.67483
20
-3.21041
11
5.67465
21
-3.21142
0
LINE
8
BLACK
6
CONTINUOUS
10
5.67465
20
-3.21142
11
5.67454
21
-3.21155
0
LINE
8
BLACK
6
CONTINUOUS
10
5.67454
20
-3.21155
11
5.67452
21
-3.21173
0
LINE
8
BLACK
6
CONTINUOUS
10
5.67452
20
-3.21173
11
5.67264
21
-3.21548
0
LINE
8
BLACK
6
CONTINUOUS
10
5.67264
20
-3.21548
11
5.67212
21
-3.21619
0
LINE
8
BLACK
6
CONTINUOUS
10
5.67212
20
-3.21619
11
5.67209
21
-3.21624
0
LINE
8
BLACK
6
CONTINUOUS
10
5.67209
20
-3.21624
11
5.67022
21
-3.21812
0
LINE
8
BLACK
6
CONTINUOUS
10
5.67022
20
-3.21812
11
5.66949
21
-3.21863
0
LINE
8
BLACK
6
CONTINUOUS
10
5.66949
20
-3.21863
11
5.66945
21
-3.21867
0
LINE
8
BLACK
6
CONTINUOUS
10
5.66945
20
-3.21867
11
5.6657
21
-3.22055
0
LINE
8
BLACK
6
CONTINUOUS
10
5.6657
20
-3.22055
11
5.66472
21
-3.22084
0
LINE
8
BLACK
6
CONTINUOUS
10
5.66472
20
-3.22084
11
5.66455
21
-3.2208
0
LINE
8
BLACK
6
CONTINUOUS
10
5.66455
20
-3.2208
11
5.66438
21
-3.22086
0
LINE
8
BLACK
6
CONTINUOUS
10
5.66438
20
-3.22086
11
5.65501
21
-3.22086
0
LINE
8
BLACK
6
CONTINUOUS
10
5.65501
20
-3.22086
11
5.65414
21
-3.22071
0
LINE
8
BLACK
6
CONTINUOUS
10
5.65414
20
-3.22071
11
5.65407
21
-3.22071
0
LINE
8
BLACK
6
CONTINUOUS
10
5.65407
20
-3.22071
11
5.64845
21
-3.21883
0
LINE
8
BLACK
6
CONTINUOUS
10
5.64845
20
-3.21883
11
5.64755
21
-3.21834
0
LINE
8
BLACK
6
CONTINUOUS
10
5.64755
20
-3.21834
11
5.64649
21
-3.21662
0
LINE
8
BLACK
6
CONTINUOUS
10
5.64649
20
-3.21662
11
5.64678
21
-3.21463
0
LINE
8
BLACK
6
CONTINUOUS
10
5.64678
20
-3.21463
11
5.6483
21
-3.21329
0
LINE
8
BLACK
6
CONTINUOUS
10
5.6483
20
-3.21329
11
5.65032
21
-3.21323
0
LINE
8
BLACK
6
CONTINUOUS
10
5.65032
20
-3.21323
11
5.65548
21
-3.21495
0
LINE
8
BLACK
6
CONTINUOUS
10
5.65548
20
-3.21495
11
5.66368
21
-3.21495
0
LINE
8
BLACK
6
CONTINUOUS
10
5.66368
20
-3.21495
11
5.66638
21
-3.2136
0
LINE
8
BLACK
6
CONTINUOUS
10
5.66638
20
-3.2136
11
5.66758
21
-3.21241
0
LINE
8
BLACK
6
CONTINUOUS
10
5.66758
20
-3.21241
11
5.66893
21
-3.20971
0
LINE
8
BLACK
6
CONTINUOUS
10
5.66893
20
-3.20971
11
5.66893
21
-3.20735
0
LINE
8
BLACK
6
CONTINUOUS
10
5.66893
20
-3.20735
11
5.66758
21
-3.20466
0
LINE
8
BLACK
6
CONTINUOUS
10
5.66758
20
-3.20466
11
5.66638
21
-3.20346
0
LINE
8
BLACK
6
CONTINUOUS
10
5.66638
20
-3.20346
11
5.66335
21
-3.20194
0
LINE
8
BLACK
6
CONTINUOUS
10
5.66335
20
-3.20194
11
5.65616
21
-3.20015
0
LINE
8
BLACK
6
CONTINUOUS
10
5.65616
20
-3.20015
11
5.6557
21
-3.19994
0
LINE
8
BLACK
6
CONTINUOUS
10
5.6557
20
-3.19994
11
5.65556
21
-3.19992
0
LINE
8
BLACK
6
CONTINUOUS
10
5.65556
20
-3.19992
11
5.65181
21
-3.19805
0
LINE
8
BLACK
6
CONTINUOUS
10
5.65181
20
-3.19805
11
5.6511
21
-3.19752
0
LINE
8
BLACK
6
CONTINUOUS
10
5.6511
20
-3.19752
11
5.65104
21
-3.1975
0
LINE
8
BLACK
6
CONTINUOUS
10
5.65104
20
-3.1975
11
5.64917
21
-3.19562
0
LINE
8
BLACK
6
CONTINUOUS
10
5.64917
20
-3.19562
11
5.64866
21
-3.1949
0
LINE
8
BLACK
6
CONTINUOUS
10
5.64866
20
-3.1949
11
5.64862
21
-3.19485
0
LINE
8
BLACK
6
CONTINUOUS
10
5.64862
20
-3.19485
11
5.64674
21
-3.19111
0
LINE
8
BLACK
6
CONTINUOUS
10
5.64674
20
-3.19111
11
5.64645
21
-3.19012
0
LINE
8
BLACK
6
CONTINUOUS
10
5.64645
20
-3.19012
11
5.64649
21
-3.18995
0
LINE
8
BLACK
6
CONTINUOUS
10
5.64649
20
-3.18995
11
5.64643
21
-3.18978
0
LINE
8
BLACK
6
CONTINUOUS
10
5.64643
20
-3.18978
11
5.64643
21
-3.18604
0
LINE
8
BLACK
6
CONTINUOUS
10
5.64643
20
-3.18604
11
5.64661
21
-3.18503
0
LINE
8
BLACK
6
CONTINUOUS
10
5.64661
20
-3.18503
11
5.64672
21
-3.18489
0
LINE
8
BLACK
6
CONTINUOUS
10
5.64672
20
-3.18489
11
5.64674
21
-3.18471
0
LINE
8
BLACK
6
CONTINUOUS
10
5.64674
20
-3.18471
11
5.64862
21
-3.18097
0
LINE
8
BLACK
6
CONTINUOUS
10
5.64862
20
-3.18097
11
5.64914
21
-3.18026
0
LINE
8
BLACK
6
CONTINUOUS
10
5.64914
20
-3.18026
11
5.64917
21
-3.1802
0
LINE
8
BLACK
6
CONTINUOUS
10
5.64917
20
-3.1802
11
5.65104
21
-3.17832
0
LINE
8
BLACK
6
CONTINUOUS
10
5.65104
20
-3.17832
11
5.65177
21
-3.17782
0
LINE
8
BLACK
6
CONTINUOUS
10
5.65177
20
-3.17782
11
5.65181
21
-3.17777
0
LINE
8
BLACK
6
CONTINUOUS
10
5.65181
20
-3.17777
11
5.65556
21
-3.1759
0
LINE
8
BLACK
6
CONTINUOUS
10
5.65556
20
-3.1759
11
5.65654
21
-3.1756
0
LINE
8
BLACK
6
CONTINUOUS
10
5.65654
20
-3.1756
11
5.65671
21
-3.17564
0
LINE
8
BLACK
6
CONTINUOUS
10
5.65671
20
-3.17564
11
5.65688
21
-3.17558
0
LINE
8
BLACK
6
CONTINUOUS
10
5.65688
20
-3.17558
11
5.66625
21
-3.17558
0
LINE
8
BLACK
6
CONTINUOUS
10
5.66625
20
-3.17558
11
5.66712
21
-3.17574
0
LINE
8
BLACK
6
CONTINUOUS
10
5.70462
20
-3.17574
11
5.70468
21
-3.17573
0
LINE
8
BLACK
6
CONTINUOUS
10
5.70468
20
-3.17573
11
5.71031
21
-3.17761
0
LINE
8
BLACK
6
CONTINUOUS
10
5.71031
20
-3.17761
11
5.71121
21
-3.1781
0
LINE
8
BLACK
6
CONTINUOUS
10
5.71121
20
-3.1781
11
5.7113
21
-3.17825
0
LINE
8
BLACK
6
CONTINUOUS
10
5.7113
20
-3.17825
11
5.71146
21
-3.17832
0
LINE
8
BLACK
6
CONTINUOUS
10
5.71146
20
-3.17832
11
5.71334
21
-3.1802
0
LINE
8
BLACK
6
CONTINUOUS
10
5.71334
20
-3.1802
11
5.71392
21
-3.18104
0
LINE
8
BLACK
6
CONTINUOUS
10
5.71392
20
-3.18104
11
5.7141
21
-3.18305
0
LINE
8
BLACK
6
CONTINUOUS
10
5.7141
20
-3.18305
11
5.71294
21
-3.1847
0
LINE
8
BLACK
6
CONTINUOUS
10
5.71294
20
-3.1847
11
5.71099
21
-3.18523
0
LINE
8
BLACK
6
CONTINUOUS
10
5.71099
20
-3.18523
11
5.70916
21
-3.18437
0
LINE
8
BLACK
6
CONTINUOUS
10
5.70916
20
-3.18437
11
5.70778
21
-3.18299
0
LINE
8
BLACK
6
CONTINUOUS
10
5.70778
20
-3.18299
11
5.70327
21
-3.18149
0
LINE
8
BLACK
6
CONTINUOUS
10
5.70327
20
-3.18149
11
5.70048
21
-3.18149
0
LINE
8
BLACK
6
CONTINUOUS
10
5.70048
20
-3.18149
11
5.69597
21
-3.18299
0
LINE
8
BLACK
6
CONTINUOUS
10
5.69597
20
-3.18299
11
5.69305
21
-3.18591
0
LINE
8
BLACK
6
CONTINUOUS
10
5.69305
20
-3.18591
11
5.69154
21
-3.18894
0
LINE
8
BLACK
6
CONTINUOUS
10
5.69154
20
-3.18894
11
5.68983
21
-3.19577
0
LINE
8
BLACK
6
CONTINUOUS
10
5.68983
20
-3.19577
11
5.68983
21
-3.20067
0
LINE
8
BLACK
6
CONTINUOUS
10
5.68983
20
-3.20067
11
5.69154
21
-3.2075
0
LINE
8
BLACK
6
CONTINUOUS
10
5.69154
20
-3.2075
11
5.69305
21
-3.21053
0
LINE
8
BLACK
6
CONTINUOUS
10
5.69305
20
-3.21053
11
5.69597
21
-3.21345
0
LINE
8
BLACK
6
CONTINUOUS
10
5.69597
20
-3.21345
11
5.70048
21
-3.21495
0
LINE
8
BLACK
6
CONTINUOUS
10
5.70048
20
-3.21495
11
5.70327
21
-3.21495
0
LINE
8
BLACK
6
CONTINUOUS
10
5.70327
20
-3.21495
11
5.70778
21
-3.21345
0
LINE
8
BLACK
6
CONTINUOUS
10
5.70778
20
-3.21345
11
5.70916
21
-3.21207
0
LINE
8
BLACK
6
CONTINUOUS
10
5.70916
20
-3.21207
11
5.71
21
-3.21148
0
LINE
8
BLACK
6
CONTINUOUS
10
5.71
20
-3.21148
11
5.71201
21
-3.2113
0
LINE
8
BLACK
6
CONTINUOUS
10
5.71201
20
-3.2113
11
5.71367
21
-3.21246
0
LINE
8
BLACK
6
CONTINUOUS
10
5.71367
20
-3.21246
11
5.71419
21
-3.21441
0
LINE
8
BLACK
6
CONTINUOUS
10
5.71419
20
-3.21441
11
5.71334
21
-3.21624
0
LINE
8
BLACK
6
CONTINUOUS
10
5.71334
20
-3.21624
11
5.71146
21
-3.21812
0
LINE
8
BLACK
6
CONTINUOUS
10
5.71146
20
-3.21812
11
5.71062
21
-3.21871
0
LINE
8
BLACK
6
CONTINUOUS
10
5.71062
20
-3.21871
11
5.71045
21
-3.21872
0
LINE
8
BLACK
6
CONTINUOUS
10
5.71045
20
-3.21872
11
5.71031
21
-3.21883
0
LINE
8
BLACK
6
CONTINUOUS
10
5.71031
20
-3.21883
11
5.70468
21
-3.22071
0
LINE
8
BLACK
6
CONTINUOUS
10
5.70468
20
-3.22071
11
5.70381
21
-3.22084
0
LINE
8
BLACK
6
CONTINUOUS
10
5.70381
20
-3.22084
11
5.70375
21
-3.22086
0
LINE
8
BLACK
6
CONTINUOUS
10
5.70375
20
-3.22086
11
5.7
21
-3.22086
0
LINE
8
BLACK
6
CONTINUOUS
10
5.7
20
-3.22086
11
5.69913
21
-3.22071
0
LINE
8
BLACK
6
CONTINUOUS
10
5.69913
20
-3.22071
11
5.69907
21
-3.22071
0
LINE
8
BLACK
6
CONTINUOUS
10
5.69907
20
-3.22071
11
5.69344
21
-3.21883
0
LINE
8
BLACK
6
CONTINUOUS
10
5.69344
20
-3.21883
11
5.69254
21
-3.21834
0
LINE
8
BLACK
6
CONTINUOUS
10
5.69254
20
-3.21834
11
5.69245
21
-3.21819
0
LINE
8
BLACK
6
CONTINUOUS
10
5.69245
20
-3.21819
11
5.69229
21
-3.21812
0
LINE
8
BLACK
6
CONTINUOUS
10
5.69229
20
-3.21812
11
5.68854
21
-3.21437
0
LINE
8
BLACK
6
CONTINUOUS
10
5.68854
20
-3.21437
11
5.68803
21
-3.21365
0
LINE
8
BLACK
6
CONTINUOUS
10
5.68803
20
-3.21365
11
5.68799
21
-3.2136
0
LINE
8
BLACK
6
CONTINUOUS
10
5.68799
20
-3.2136
11
5.68611
21
-3.20985
0
LINE
8
BLACK
6
CONTINUOUS
10
5.68611
20
-3.20985
11
5.68597
21
-3.20936
0
LINE
8
BLACK
6
CONTINUOUS
10
5.68597
20
-3.20936
11
5.68589
21
-3.20925
0
LINE
8
BLACK
6
CONTINUOUS
10
5.68589
20
-3.20925
11
5.68401
21
-3.20175
0
LINE
8
BLACK
6
CONTINUOUS
10
5.68401
20
-3.20175
11
5.68397
21
-3.20116
0
LINE
8
BLACK
6
CONTINUOUS
10
5.68397
20
-3.20116
11
5.68392
21
-3.20103
0
LINE
8
BLACK
6
CONTINUOUS
10
5.68392
20
-3.20103
11
5.68392
21
-3.19541
0
LINE
8
BLACK
6
CONTINUOUS
10
5.68392
20
-3.19541
11
5.68403
21
-3.19483
0
LINE
8
BLACK
6
CONTINUOUS
10
5.68403
20
-3.19483
11
5.68401
21
-3.19469
0
LINE
8
BLACK
6
CONTINUOUS
10
5.68401
20
-3.19469
11
5.68589
21
-3.18719
0
LINE
8
BLACK
6
CONTINUOUS
10
5.68589
20
-3.18719
11
5.68609
21
-3.18673
0
LINE
8
BLACK
6
CONTINUOUS
10
5.68609
20
-3.18673
11
5.68611
21
-3.18659
0
LINE
8
BLACK
6
CONTINUOUS
10
5.68611
20
-3.18659
11
5.68799
21
-3.18284
0
LINE
8
BLACK
6
CONTINUOUS
10
5.68799
20
-3.18284
11
5.68851
21
-3.18213
0
LINE
8
BLACK
6
CONTINUOUS
10
5.68851
20
-3.18213
11
5.68854
21
-3.18207
0
LINE
8
BLACK
6
CONTINUOUS
10
5.68854
20
-3.18207
11
5.69229
21
-3.17832
0
LINE
8
BLACK
6
CONTINUOUS
10
5.69229
20
-3.17832
11
5.69313
21
-3.17773
0
LINE
8
BLACK
6
CONTINUOUS
10
5.69313
20
-3.17773
11
5.6933
21
-3.17772
0
LINE
8
BLACK
6
CONTINUOUS
10
5.6933
20
-3.17772
11
5.69344
21
-3.17761
0
LINE
8
BLACK
6
CONTINUOUS
10
5.69344
20
-3.17761
11
5.69907
21
-3.17573
0
LINE
8
BLACK
6
CONTINUOUS
10
5.69907
20
-3.17573
11
5.69994
21
-3.17561
0
LINE
8
BLACK
6
CONTINUOUS
10
5.69994
20
-3.17561
11
5.7
21
-3.17558
0
LINE
8
BLACK
6
CONTINUOUS
10
5.7
20
-3.17558
11
5.70375
21
-3.17558
0
LINE
8
BLACK
6
CONTINUOUS
10
5.70375
20
-3.17558
11
5.70462
21
-3.17574
0
LINE
8
BLACK
6
CONTINUOUS
10
5.73038
20
-3.17664
11
5.73107
21
-3.17854
0
LINE
8
BLACK
6
CONTINUOUS
10
5.73107
20
-3.17854
11
5.73107
21
-3.1939
0
LINE
8
BLACK
6
CONTINUOUS
10
5.73107
20
-3.1939
11
5.74853
21
-3.17645
0
LINE
8
BLACK
6
CONTINUOUS
10
5.74853
20
-3.17645
11
5.74937
21
-3.17586
0
LINE
8
BLACK
6
CONTINUOUS
10
5.74937
20
-3.17586
11
5.75138
21
-3.17568
0
LINE
8
BLACK
6
CONTINUOUS
10
5.75138
20
-3.17568
11
5.75304
21
-3.17684
0
LINE
8
BLACK
6
CONTINUOUS
10
5.75304
20
-3.17684
11
5.75356
21
-3.17879
0
LINE
8
BLACK
6
CONTINUOUS
10
5.75356
20
-3.17879
11
5.75271
21
-3.18062
0
LINE
8
BLACK
6
CONTINUOUS
10
5.75271
20
-3.18062
11
5.73764
21
-3.19569
0
LINE
8
BLACK
6
CONTINUOUS
10
5.73764
20
-3.19569
11
5.75298
21
-3.21613
0
LINE
8
BLACK
6
CONTINUOUS
10
5.75298
20
-3.21613
11
5.75344
21
-3.21705
0
LINE
8
BLACK
6
CONTINUOUS
10
5.75344
20
-3.21705
11
5.75333
21
-3.21907
0
LINE
8
BLACK
6
CONTINUOUS
10
5.75333
20
-3.21907
11
5.75195
21
-3.22054
0
LINE
8
BLACK
6
CONTINUOUS
10
5.75195
20
-3.22054
11
5.74995
21
-3.22078
0
LINE
8
BLACK
6
CONTINUOUS
10
5.74995
20
-3.22078
11
5.74826
21
-3.21968
0
LINE
8
BLACK
6
CONTINUOUS
10
5.74826
20
-3.21968
11
5.73343
21
-3.1999
0
LINE
8
BLACK
6
CONTINUOUS
10
5.73343
20
-3.1999
11
5.73107
21
-3.20226
0
LINE
8
BLACK
6
CONTINUOUS
10
5.73107
20
-3.20226
11
5.73107
21
-3.21791
0
LINE
8
BLACK
6
CONTINUOUS
10
5.73107
20
-3.21791
11
5.7309
21
-3.21892
0
LINE
8
BLACK
6
CONTINUOUS
10
5.7309
20
-3.21892
11
5.7296
21
-3.22046
0
LINE
8
BLACK
6
CONTINUOUS
10
5.7296
20
-3.22046
11
5.72761
21
-3.22081
0
LINE
8
BLACK
6
CONTINUOUS
10
5.72761
20
-3.22081
11
5.72586
21
-3.2198
0
LINE
8
BLACK
6
CONTINUOUS
10
5.72586
20
-3.2198
11
5.72517
21
-3.21791
0
LINE
8
BLACK
6
CONTINUOUS
10
5.72517
20
-3.21791
11
5.72517
21
-3.17854
0
LINE
8
BLACK
6
CONTINUOUS
10
5.72517
20
-3.17854
11
5.72535
21
-3.17753
0
LINE
8
BLACK
6
CONTINUOUS
10
5.72535
20
-3.17753
11
5.72665
21
-3.17598
0
LINE
8
BLACK
6
CONTINUOUS
10
5.72665
20
-3.17598
11
5.72863
21
-3.17563
0
LINE
8
BLACK
6
CONTINUOUS
10
5.72863
20
-3.17563
11
5.73038
21
-3.17664
0
LINE
8
BLACK
6
CONTINUOUS
10
5.42319
20
-3.17407
11
5.42333
21
-3.17418
0
LINE
8
BLACK
6
CONTINUOUS
10
5.42333
20
-3.17418
11
5.4235
21
-3.1742
0
LINE
8
BLACK
6
CONTINUOUS
10
5.4235
20
-3.1742
11
5.42725
21
-3.17608
0
LINE
8
BLACK
6
CONTINUOUS
10
5.42725
20
-3.17608
11
5.42796
21
-3.1766
0
LINE
8
BLACK
6
CONTINUOUS
10
5.42796
20
-3.1766
11
5.42802
21
-3.17663
0
LINE
8
BLACK
6
CONTINUOUS
10
5.42802
20
-3.17663
11
5.42989
21
-3.1785
0
LINE
8
BLACK
6
CONTINUOUS
10
5.42989
20
-3.1785
11
5.4304
21
-3.17923
0
LINE
8
BLACK
6
CONTINUOUS
10
5.4304
20
-3.17923
11
5.43045
21
-3.17927
0
LINE
8
BLACK
6
CONTINUOUS
10
5.43045
20
-3.17927
11
5.43232
21
-3.18302
0
LINE
8
BLACK
6
CONTINUOUS
10
5.43232
20
-3.18302
11
5.43247
21
-3.18351
0
LINE
8
BLACK
6
CONTINUOUS
10
5.43247
20
-3.18351
11
5.43255
21
-3.18363
0
LINE
8
BLACK
6
CONTINUOUS
10
5.43255
20
-3.18363
11
5.43442
21
-3.19113
0
LINE
8
BLACK
6
CONTINUOUS
10
5.43442
20
-3.19113
11
5.43446
21
-3.19171
0
LINE
8
BLACK
6
CONTINUOUS
10
5.43446
20
-3.19171
11
5.43451
21
-3.19184
0
LINE
8
BLACK
6
CONTINUOUS
10
5.43451
20
-3.19184
11
5.43451
21
-3.20122
0
LINE
8
BLACK
6
CONTINUOUS
10
5.43451
20
-3.20122
11
5.43441
21
-3.2018
0
LINE
8
BLACK
6
CONTINUOUS
10
5.43441
20
-3.2018
11
5.43442
21
-3.20193
0
LINE
8
BLACK
6
CONTINUOUS
10
5.43442
20
-3.20193
11
5.43255
21
-3.20943
0
LINE
8
BLACK
6
CONTINUOUS
10
5.43255
20
-3.20943
11
5.43234
21
-3.2099
0
LINE
8
BLACK
6
CONTINUOUS
10
5.43234
20
-3.2099
11
5.43232
21
-3.21003
0
LINE
8
BLACK
6
CONTINUOUS
10
5.43232
20
-3.21003
11
5.43045
21
-3.21378
0
LINE
8
BLACK
6
CONTINUOUS
10
5.43045
20
-3.21378
11
5.42992
21
-3.21449
0
LINE
8
BLACK
6
CONTINUOUS
10
5.42992
20
-3.21449
11
5.42989
21
-3.21455
0
LINE
8
BLACK
6
CONTINUOUS
10
5.42989
20
-3.21455
11
5.42802
21
-3.21643
0
LINE
8
BLACK
6
CONTINUOUS
10
5.42802
20
-3.21643
11
5.4273
21
-3.21693
0
LINE
8
BLACK
6
CONTINUOUS
10
5.4273
20
-3.21693
11
5.42725
21
-3.21698
0
LINE
8
BLACK
6
CONTINUOUS
10
5.42725
20
-3.21698
11
5.4235
21
-3.21885
0
LINE
8
BLACK
6
CONTINUOUS
10
5.4235
20
-3.21885
11
5.42252
21
-3.21915
0
LINE
8
BLACK
6
CONTINUOUS
10
5.42252
20
-3.21915
11
5.42235
21
-3.21911
0
LINE
8
BLACK
6
CONTINUOUS
10
5.42235
20
-3.21911
11
5.42218
21
-3.21917
0
LINE
8
BLACK
6
CONTINUOUS
10
5.42218
20
-3.21917
11
5.41843
21
-3.21917
0
LINE
8
BLACK
6
CONTINUOUS
10
5.41843
20
-3.21917
11
5.41742
21
-3.21899
0
LINE
8
BLACK
6
CONTINUOUS
10
5.41742
20
-3.21899
11
5.41729
21
-3.21887
0
LINE
8
BLACK
6
CONTINUOUS
10
5.41729
20
-3.21887
11
5.41711
21
-3.21885
0
LINE
8
BLACK
6
CONTINUOUS
10
5.41711
20
-3.21885
11
5.41336
21
-3.21698
0
LINE
8
BLACK
6
CONTINUOUS
10
5.41336
20
-3.21698
11
5.41265
21
-3.21645
0
LINE
8
BLACK
6
CONTINUOUS
10
5.41265
20
-3.21645
11
5.4126
21
-3.21643
0
LINE
8
BLACK
6
CONTINUOUS
10
5.4126
20
-3.21643
11
5.41072
21
-3.21455
0
LINE
8
BLACK
6
CONTINUOUS
10
5.41072
20
-3.21455
11
5.41021
21
-3.21383
0
LINE
8
BLACK
6
CONTINUOUS
10
5.41021
20
-3.21383
11
5.41017
21
-3.21378
0
LINE
8
BLACK
6
CONTINUOUS
10
5.41017
20
-3.21378
11
5.40829
21
-3.21003
0
LINE
8
BLACK
6
CONTINUOUS
10
5.40829
20
-3.21003
11
5.40815
21
-3.20955
0
LINE
8
BLACK
6
CONTINUOUS
10
5.40815
20
-3.20955
11
5.40807
21
-3.20943
0
LINE
8
BLACK
6
CONTINUOUS
10
5.40807
20
-3.20943
11
5.40619
21
-3.20193
0
LINE
8
BLACK
6
CONTINUOUS
10
5.40619
20
-3.20193
11
5.40615
21
-3.20134
0
LINE
8
BLACK
6
CONTINUOUS
10
5.40615
20
-3.20134
11
5.40611
21
-3.20122
0
LINE
8
BLACK
6
CONTINUOUS
10
5.40611
20
-3.20122
11
5.40611
21
-3.19184
0
LINE
8
BLACK
6
CONTINUOUS
10
5.40611
20
-3.19184
11
5.40621
21
-3.19126
0
LINE
8
BLACK
6
CONTINUOUS
10
5.40621
20
-3.19126
11
5.40619
21
-3.19113
0
LINE
8
BLACK
6
CONTINUOUS
10
5.40619
20
-3.19113
11
5.40807
21
-3.18363
0
LINE
8
BLACK
6
CONTINUOUS
10
5.40807
20
-3.18363
11
5.40828
21
-3.18316
0
LINE
8
BLACK
6
CONTINUOUS
10
5.40828
20
-3.18316
11
5.40829
21
-3.18302
0
LINE
8
BLACK
6
CONTINUOUS
10
5.40829
20
-3.18302
11
5.41017
21
-3.17927
0
LINE
8
BLACK
6
CONTINUOUS
10
5.41017
20
-3.17927
11
5.41069
21
-3.17856
0
LINE
8
BLACK
6
CONTINUOUS
10
5.41069
20
-3.17856
11
5.41072
21
-3.1785
0
LINE
8
BLACK
6
CONTINUOUS
10
5.41072
20
-3.1785
11
5.4126
21
-3.17663
0
LINE
8
BLACK
6
CONTINUOUS
10
5.4126
20
-3.17663
11
5.41332
21
-3.17612
0
LINE
8
BLACK
6
CONTINUOUS
10
5.41332
20
-3.17612
11
5.41336
21
-3.17608
0
LINE
8
BLACK
6
CONTINUOUS
10
5.41336
20
-3.17608
11
5.41711
21
-3.1742
0
LINE
8
BLACK
6
CONTINUOUS
10
5.41711
20
-3.1742
11
5.4181
21
-3.17391
0
LINE
8
BLACK
6
CONTINUOUS
10
5.4181
20
-3.17391
11
5.41827
21
-3.17395
0
LINE
8
BLACK
6
CONTINUOUS
10
5.41827
20
-3.17395
11
5.41843
21
-3.17389
0
LINE
8
BLACK
6
CONTINUOUS
10
5.41843
20
-3.17389
11
5.42218
21
-3.17389
0
LINE
8
BLACK
6
CONTINUOUS
10
5.42218
20
-3.17389
11
5.42319
21
-3.17407
0
LINE
8
BLACK
6
CONTINUOUS
10
5.41643
20
-3.18114
11
5.41524
21
-3.18234
0
LINE
8
BLACK
6
CONTINUOUS
10
5.41524
20
-3.18234
11
5.41372
21
-3.18537
0
LINE
8
BLACK
6
CONTINUOUS
10
5.41372
20
-3.18537
11
5.41201
21
-3.1922
0
LINE
8
BLACK
6
CONTINUOUS
10
5.41201
20
-3.1922
11
5.41201
21
-3.20085
0
LINE
8
BLACK
6
CONTINUOUS
10
5.41201
20
-3.20085
11
5.41372
21
-3.20768
0
LINE
8
BLACK
6
CONTINUOUS
10
5.41372
20
-3.20768
11
5.41524
21
-3.21071
0
LINE
8
BLACK
6
CONTINUOUS
10
5.41524
20
-3.21071
11
5.41643
21
-3.21191
0
LINE
8
BLACK
6
CONTINUOUS
10
5.41643
20
-3.21191
11
5.41913
21
-3.21326
0
LINE
8
BLACK
6
CONTINUOUS
10
5.41913
20
-3.21326
11
5.42149
21
-3.21326
0
LINE
8
BLACK
6
CONTINUOUS
10
5.42149
20
-3.21326
11
5.42418
21
-3.21191
0
LINE
8
BLACK
6
CONTINUOUS
10
5.42418
20
-3.21191
11
5.42538
21
-3.21071
0
LINE
8
BLACK
6
CONTINUOUS
10
5.42538
20
-3.21071
11
5.4269
21
-3.20768
0
LINE
8
BLACK
6
CONTINUOUS
10
5.4269
20
-3.20768
11
5.4286
21
-3.20085
0
LINE
8
BLACK
6
CONTINUOUS
10
5.4286
20
-3.20085
11
5.4286
21
-3.1922
0
LINE
8
BLACK
6
CONTINUOUS
10
5.4286
20
-3.1922
11
5.4269
21
-3.18537
0
LINE
8
BLACK
6
CONTINUOUS
10
5.4269
20
-3.18537
11
5.42538
21
-3.18234
0
LINE
8
BLACK
6
CONTINUOUS
10
5.42538
20
-3.18234
11
5.42418
21
-3.18114
0
LINE
8
BLACK
6
CONTINUOUS
10
5.42418
20
-3.18114
11
5.42149
21
-3.1798
0
LINE
8
BLACK
6
CONTINUOUS
10
5.42149
20
-3.1798
11
5.41913
21
-3.1798
0
LINE
8
BLACK
6
CONTINUOUS
10
5.41913
20
-3.1798
11
5.41643
21
-3.18114
0
LINE
8
BLACK
6
CONTINUOUS
10
5.45815
20
-3.17396
11
5.45832
21
-3.17394
0
LINE
8
BLACK
6
CONTINUOUS
10
5.45832
20
-3.17394
11
5.45906
21
-3.17436
0
LINE
8
BLACK
6
CONTINUOUS
10
5.45906
20
-3.17436
11
5.45984
21
-3.17471
0
LINE
8
BLACK
6
CONTINUOUS
10
5.45984
20
-3.17471
11
5.45992
21
-3.17486
0
LINE
8
BLACK
6
CONTINUOUS
10
5.45992
20
-3.17486
11
5.46006
21
-3.17495
0
LINE
8
BLACK
6
CONTINUOUS
10
5.46006
20
-3.17495
11
5.46036
21
-3.17575
0
LINE
8
BLACK
6
CONTINUOUS
10
5.46036
20
-3.17575
11
5.46074
21
-3.17652
0
LINE
8
BLACK
6
CONTINUOUS
10
5.46074
20
-3.17652
11
5.4607
21
-3.17668
0
LINE
8
BLACK
6
CONTINUOUS
10
5.4607
20
-3.17668
11
5.46076
21
-3.17684
0
LINE
8
BLACK
6
CONTINUOUS
10
5.46076
20
-3.17684
11
5.46076
21
-3.21326
0
LINE
8
BLACK
6
CONTINUOUS
10
5.46076
20
-3.21326
11
5.46905
21
-3.21326
0
LINE
8
BLACK
6
CONTINUOUS
10
5.46905
20
-3.21326
11
5.47006
21
-3.21344
0
LINE
8
BLACK
6
CONTINUOUS
10
5.47006
20
-3.21344
11
5.47161
21
-3.21474
0
LINE
8
BLACK
6
CONTINUOUS
10
5.47161
20
-3.21474
11
5.47196
21
-3.21673
0
LINE
8
BLACK
6
CONTINUOUS
10
5.47196
20
-3.21673
11
5.47095
21
-3.21848
0
LINE
8
BLACK
6
CONTINUOUS
10
5.47095
20
-3.21848
11
5.46905
21
-3.21917
0
LINE
8
BLACK
6
CONTINUOUS
10
5.46905
20
-3.21917
11
5.44655
21
-3.21917
0
LINE
8
BLACK
6
CONTINUOUS
10
5.44655
20
-3.21917
11
5.44554
21
-3.21899
0
LINE
8
BLACK
6
CONTINUOUS
10
5.44554
20
-3.21899
11
5.444
21
-3.21769
0
LINE
8
BLACK
6
CONTINUOUS
10
5.444
20
-3.21769
11
5.44365
21
-3.2157
0
LINE
8
BLACK
6
CONTINUOUS
10
5.44365
20
-3.2157
11
5.44466
21
-3.21395
0
LINE
8
BLACK
6
CONTINUOUS
10
5.44466
20
-3.21395
11
5.44655
21
-3.21326
0
LINE
8
BLACK
6
CONTINUOUS
10
5.44655
20
-3.21326
11
5.45485
21
-3.21326
0
LINE
8
BLACK
6
CONTINUOUS
10
5.45485
20
-3.21326
11
5.45485
21
-3.18585
0
LINE
8
BLACK
6
CONTINUOUS
10
5.45485
20
-3.18585
11
5.45239
21
-3.1883
0
LINE
8
BLACK
6
CONTINUOUS
10
5.45239
20
-3.1883
11
5.45167
21
-3.18881
0
LINE
8
BLACK
6
CONTINUOUS
10
5.45167
20
-3.18881
11
5.45162
21
-3.18886
0
LINE
8
BLACK
6
CONTINUOUS
10
5.45162
20
-3.18886
11
5.44787
21
-3.19073
0
LINE
8
BLACK
6
CONTINUOUS
10
5.44787
20
-3.19073
11
5.44689
21
-3.19103
0
LINE
8
BLACK
6
CONTINUOUS
10
5.44689
20
-3.19103
11
5.44493
21
-3.19056
0
LINE
8
BLACK
6
CONTINUOUS
10
5.44493
20
-3.19056
11
5.44372
21
-3.18893
0
LINE
8
BLACK
6
CONTINUOUS
10
5.44372
20
-3.18893
11
5.44384
21
-3.18692
0
LINE
8
BLACK
6
CONTINUOUS
10
5.44384
20
-3.18692
11
5.44523
21
-3.18545
0
LINE
8
BLACK
6
CONTINUOUS
10
5.44523
20
-3.18545
11
5.44855
21
-3.18379
0
LINE
8
BLACK
6
CONTINUOUS
10
5.44855
20
-3.18379
11
5.45176
21
-3.18059
0
LINE
8
BLACK
6
CONTINUOUS
10
5.45176
20
-3.18059
11
5.45535
21
-3.17521
0
LINE
8
BLACK
6
CONTINUOUS
10
5.45535
20
-3.17521
11
5.45605
21
-3.17446
0
LINE
8
BLACK
6
CONTINUOUS
10
5.45605
20
-3.17446
11
5.45622
21
-3.17442
0
LINE
8
BLACK
6
CONTINUOUS
10
5.45622
20
-3.17442
11
5.45633
21
-3.17429
0
LINE
8
BLACK
6
CONTINUOUS
10
5.45633
20
-3.17429
11
5.45717
21
-3.17414
0
LINE
8
BLACK
6
CONTINUOUS
10
5.45717
20
-3.17414
11
5.45799
21
-3.1739
0
LINE
8
BLACK
6
CONTINUOUS
10
5.45799
20
-3.1739
11
5.45815
21
-3.17396
0
LINE
8
BLACK
6
CONTINUOUS
10
5.34017
20
-3.17411
11
5.3411
21
-3.17425
0
LINE
8
BLACK
6
CONTINUOUS
10
5.3411
20
-3.17425
11
5.34115
21
-3.17431
0
LINE
8
BLACK
6
CONTINUOUS
10
5.34115
20
-3.17431
11
5.34124
21
-3.17433
0
LINE
8
BLACK
6
CONTINUOUS
10
5.34124
20
-3.17433
11
5.34182
21
-3.17506
0
LINE
8
BLACK
6
CONTINUOUS
10
5.34182
20
-3.17506
11
5.34244
21
-3.17576
0
LINE
8
BLACK
6
CONTINUOUS
10
5.34244
20
-3.17576
11
5.34244
21
-3.17584
0
LINE
8
BLACK
6
CONTINUOUS
10
5.34244
20
-3.17584
11
5.34249
21
-3.17591
0
LINE
8
BLACK
6
CONTINUOUS
10
5.34249
20
-3.17591
11
5.35562
21
-3.21528
0
LINE
8
BLACK
6
CONTINUOUS
10
5.35562
20
-3.21528
11
5.35577
21
-3.21629
0
LINE
8
BLACK
6
CONTINUOUS
10
5.35577
20
-3.21629
11
5.35503
21
-3.21817
0
LINE
8
BLACK
6
CONTINUOUS
10
5.35503
20
-3.21817
11
5.35325
21
-3.21913
0
LINE
8
BLACK
6
CONTINUOUS
10
5.35325
20
-3.21913
11
5.35127
21
-3.21873
0
LINE
8
BLACK
6
CONTINUOUS
10
5.35127
20
-3.21873
11
5.35001
21
-3.21715
0
LINE
8
BLACK
6
CONTINUOUS
10
5.35001
20
-3.21715
11
5.34694
21
-3.20792
0
LINE
8
BLACK
6
CONTINUOUS
10
5.34694
20
-3.20792
11
5.33245
21
-3.20792
0
LINE
8
BLACK
6
CONTINUOUS
10
5.33245
20
-3.20792
11
5.32937
21
-3.21715
0
LINE
8
BLACK
6
CONTINUOUS
10
5.32937
20
-3.21715
11
5.32888
21
-3.21805
0
LINE
8
BLACK
6
CONTINUOUS
10
5.32888
20
-3.21805
11
5.32716
21
-3.21911
0
LINE
8
BLACK
6
CONTINUOUS
10
5.32716
20
-3.21911
11
5.32516
21
-3.21881
0
LINE
8
BLACK
6
CONTINUOUS
10
5.32516
20
-3.21881
11
5.32382
21
-3.2173
0
LINE
8
BLACK
6
CONTINUOUS
10
5.32382
20
-3.2173
11
5.32377
21
-3.21528
0
LINE
8
BLACK
6
CONTINUOUS
10
5.32377
20
-3.21528
11
5.33689
21
-3.17591
0
LINE
8
BLACK
6
CONTINUOUS
10
5.33689
20
-3.17591
11
5.33738
21
-3.17501
0
LINE
8
BLACK
6
CONTINUOUS
10
5.33738
20
-3.17501
11
5.33745
21
-3.17496
0
LINE
8
BLACK
6
CONTINUOUS
10
5.33745
20
-3.17496
11
5.33748
21
-3.17488
0
LINE
8
BLACK
6
CONTINUOUS
10
5.33748
20
-3.17488
11
5.3383
21
-3.17444
0
LINE
8
BLACK
6
CONTINUOUS
10
5.3383
20
-3.17444
11
5.3391
21
-3.17395
0
LINE
8
BLACK
6
CONTINUOUS
10
5.3391
20
-3.17395
11
5.33918
21
-3.17396
0
LINE
8
BLACK
6
CONTINUOUS
10
5.33918
20
-3.17396
11
5.33926
21
-3.17392
0
LINE
8
BLACK
6
CONTINUOUS
10
5.33926
20
-3.17392
11
5.34017
21
-3.17411
0
LINE
8
BLACK
6
CONTINUOUS
10
5.33442
20
-3.20201
11
5.34497
21
-3.20201
0
LINE
8
BLACK
6
CONTINUOUS
10
5.34497
20
-3.20201
11
5.33969
21
-3.18618
0
LINE
8
BLACK
6
CONTINUOUS
10
5.33969
20
-3.18618
11
5.33442
21
-3.20201
0
LINE
8
BLACK
6
CONTINUOUS
10
5.49391
20
-3.17411
11
5.49483
21
-3.17425
0
LINE
8
BLACK
6
CONTINUOUS
10
5.49483
20
-3.17425
11
5.49489
21
-3.17431
0
LINE
8
BLACK
6
CONTINUOUS
10
5.49489
20
-3.17431
11
5.49497
21
-3.17433
0
LINE
8
BLACK
6
CONTINUOUS
10
5.49497
20
-3.17433
11
5.49555
21
-3.17506
0
LINE
8
BLACK
6
CONTINUOUS
10
5.49555
20
-3.17506
11
5.49617
21
-3.17576
0
LINE
8
BLACK
6
CONTINUOUS
10
5.49617
20
-3.17576
11
5.49617
21
-3.17584
0
LINE
8
BLACK
6
CONTINUOUS
10
5.49617
20
-3.17584
11
5.49622
21
-3.17591
0
LINE
8
BLACK
6
CONTINUOUS
10
5.49622
20
-3.17591
11
5.50935
21
-3.21528
0
LINE
8
BLACK
6
CONTINUOUS
10
5.50935
20
-3.21528
11
5.5095
21
-3.21629
0
LINE
8
BLACK
6
CONTINUOUS
10
5.5095
20
-3.21629
11
5.50876
21
-3.21817
0
LINE
8
BLACK
6
CONTINUOUS
10
5.50876
20
-3.21817
11
5.50698
21
-3.21913
0
LINE
8
BLACK
6
CONTINUOUS
10
5.50698
20
-3.21913
11
5.505
21
-3.21873
0
LINE
8
BLACK
6
CONTINUOUS
10
5.505
20
-3.21873
11
5.50375
21
-3.21715
0
LINE
8
BLACK
6
CONTINUOUS
10
5.50375
20
-3.21715
11
5.50067
21
-3.20792
0
LINE
8
BLACK
6
CONTINUOUS
10
5.50067
20
-3.20792
11
5.48618
21
-3.20792
0
LINE
8
BLACK
6
CONTINUOUS
10
5.48618
20
-3.20792
11
5.4831
21
-3.21715
0
LINE
8
BLACK
6
CONTINUOUS
10
5.4831
20
-3.21715
11
5.48261
21
-3.21805
0
LINE
8
BLACK
6
CONTINUOUS
10
5.48261
20
-3.21805
11
5.48089
21
-3.21911
0
LINE
8
BLACK
6
CONTINUOUS
10
5.48089
20
-3.21911
11
5.47889
21
-3.21881
0
LINE
8
BLACK
6
CONTINUOUS
10
5.47889
20
-3.21881
11
5.47755
21
-3.2173
0
LINE
8
BLACK
6
CONTINUOUS
10
5.47755
20
-3.2173
11
5.4775
21
-3.21528
0
LINE
8
BLACK
6
CONTINUOUS
10
5.4775
20
-3.21528
11
5.49062
21
-3.17591
0
LINE
8
BLACK
6
CONTINUOUS
10
5.49062
20
-3.17591
11
5.49111
21
-3.17501
0
LINE
8
BLACK
6
CONTINUOUS
10
5.49111
20
-3.17501
11
5.49118
21
-3.17496
0
LINE
8
BLACK
6
CONTINUOUS
10
5.49118
20
-3.17496
11
5.49121
21
-3.17488
0
LINE
8
BLACK
6
CONTINUOUS
10
5.49121
20
-3.17488
11
5.49204
21
-3.17444
0
LINE
8
BLACK
6
CONTINUOUS
10
5.49204
20
-3.17444
11
5.49283
21
-3.17395
0
LINE
8
BLACK
6
CONTINUOUS
10
5.49283
20
-3.17395
11
5.49292
21
-3.17396
0
LINE
8
BLACK
6
CONTINUOUS
10
5.49292
20
-3.17396
11
5.49299
21
-3.17392
0
LINE
8
BLACK
6
CONTINUOUS
10
5.49299
20
-3.17392
11
5.49391
21
-3.17411
0
LINE
8
BLACK
6
CONTINUOUS
10
5.48815
20
-3.20201
11
5.4987
21
-3.20201
0
LINE
8
BLACK
6
CONTINUOUS
10
5.4987
20
-3.20201
11
5.49342
21
-3.18618
0
LINE
8
BLACK
6
CONTINUOUS
10
5.49342
20
-3.18618
11
5.48815
21
-3.20201
0
LINE
8
BLACK
6
CONTINUOUS
10
5.27884
20
-3.17407
11
5.28038
21
-3.17537
0
LINE
8
BLACK
6
CONTINUOUS
10
5.28038
20
-3.17537
11
5.28073
21
-3.17736
0
LINE
8
BLACK
6
CONTINUOUS
10
5.28073
20
-3.17736
11
5.27972
21
-3.17911
0
LINE
8
BLACK
6
CONTINUOUS
10
5.27972
20
-3.17911
11
5.27783
21
-3.1798
0
LINE
8
BLACK
6
CONTINUOUS
10
5.27783
20
-3.1798
11
5.26203
21
-3.1798
0
LINE
8
BLACK
6
CONTINUOUS
10
5.26203
20
-3.1798
11
5.26203
21
-3.19264
0
LINE
8
BLACK
6
CONTINUOUS
10
5.26203
20
-3.19264
11
5.2722
21
-3.19264
0
LINE
8
BLACK
6
CONTINUOUS
10
5.2722
20
-3.19264
11
5.27321
21
-3.19282
0
LINE
8
BLACK
6
CONTINUOUS
10
5.27321
20
-3.19282
11
5.27476
21
-3.19411
0
LINE
8
BLACK
6
CONTINUOUS
10
5.27476
20
-3.19411
11
5.27511
21
-3.1961
0
LINE
8
BLACK
6
CONTINUOUS
10
5.27511
20
-3.1961
11
5.2741
21
-3.19785
0
LINE
8
BLACK
6
CONTINUOUS
10
5.2741
20
-3.19785
11
5.2722
21
-3.19854
0
LINE
8
BLACK
6
CONTINUOUS
10
5.2722
20
-3.19854
11
5.26203
21
-3.19854
0
LINE
8
BLACK
6
CONTINUOUS
10
5.26203
20
-3.19854
11
5.26203
21
-3.21621
0
LINE
8
BLACK
6
CONTINUOUS
10
5.26203
20
-3.21621
11
5.26185
21
-3.21722
0
LINE
8
BLACK
6
CONTINUOUS
10
5.26185
20
-3.21722
11
5.26055
21
-3.21877
0
LINE
8
BLACK
6
CONTINUOUS
10
5.26055
20
-3.21877
11
5.25856
21
-3.21912
0
LINE
8
BLACK
6
CONTINUOUS
10
5.25856
20
-3.21912
11
5.25682
21
-3.21811
0
LINE
8
BLACK
6
CONTINUOUS
10
5.25682
20
-3.21811
11
5.25612
21
-3.21621
0
LINE
8
BLACK
6
CONTINUOUS
10
5.25612
20
-3.21621
11
5.25612
21
-3.17684
0
LINE
8
BLACK
6
CONTINUOUS
10
5.25612
20
-3.17684
11
5.25619
21
-3.17646
0
LINE
8
BLACK
6
CONTINUOUS
10
5.25619
20
-3.17646
11
5.25617
21
-3.17633
0
LINE
8
BLACK
6
CONTINUOUS
10
5.25617
20
-3.17633
11
5.25624
21
-3.17622
0
LINE
8
BLACK
6
CONTINUOUS
10
5.25624
20
-3.17622
11
5.2563
21
-3.17583
0
LINE
8
BLACK
6
CONTINUOUS
10
5.2563
20
-3.17583
11
5.2568
21
-3.17525
0
LINE
8
BLACK
6
CONTINUOUS
10
5.2568
20
-3.17525
11
5.25718
21
-3.17458
0
LINE
8
BLACK
6
CONTINUOUS
10
5.25718
20
-3.17458
11
5.25743
21
-3.17449
0
LINE
8
BLACK
6
CONTINUOUS
10
5.25743
20
-3.17449
11
5.2576
21
-3.17429
0
LINE
8
BLACK
6
CONTINUOUS
10
5.2576
20
-3.17429
11
5.25836
21
-3.17415
0
LINE
8
BLACK
6
CONTINUOUS
10
5.25836
20
-3.17415
11
5.25908
21
-3.17389
0
LINE
8
BLACK
6
CONTINUOUS
10
5.25908
20
-3.17389
11
5.27783
21
-3.17389
0
LINE
8
BLACK
6
CONTINUOUS
10
5.27783
20
-3.17389
11
5.27884
21
-3.17407
0
LINE
8
BLACK
6
CONTINUOUS
10
5.30883
20
-3.17407
11
5.30897
21
-3.17418
0
LINE
8
BLACK
6
CONTINUOUS
10
5.30897
20
-3.17418
11
5.30914
21
-3.1742
0
LINE
8
BLACK
6
CONTINUOUS
10
5.30914
20
-3.1742
11
5.31289
21
-3.17608
0
LINE
8
BLACK
6
CONTINUOUS
10
5.31289
20
-3.17608
11
5.3136
21
-3.1766
0
LINE
8
BLACK
6
CONTINUOUS
10
5.3136
20
-3.1766
11
5.31366
21
-3.17663
0
LINE
8
BLACK
6
CONTINUOUS
10
5.31366
20
-3.17663
11
5.31553
21
-3.1785
0
LINE
8
BLACK
6
CONTINUOUS
10
5.31553
20
-3.1785
11
5.31604
21
-3.17923
0
LINE
8
BLACK
6
CONTINUOUS
10
5.31604
20
-3.17923
11
5.31609
21
-3.17927
0
LINE
8
BLACK
6
CONTINUOUS
10
5.31609
20
-3.17927
11
5.31796
21
-3.18302
0
LINE
8
BLACK
6
CONTINUOUS
10
5.31796
20
-3.18302
11
5.31825
21
-3.184
0
LINE
8
BLACK
6
CONTINUOUS
10
5.31825
20
-3.184
11
5.31821
21
-3.18418
0
LINE
8
BLACK
6
CONTINUOUS
10
5.31821
20
-3.18418
11
5.31827
21
-3.18434
0
LINE
8
BLACK
6
CONTINUOUS
10
5.31827
20
-3.18434
11
5.31827
21
-3.18997
0
LINE
8
BLACK
6
CONTINUOUS
10
5.31827
20
-3.18997
11
5.3181
21
-3.19098
0
LINE
8
BLACK
6
CONTINUOUS
10
5.3181
20
-3.19098
11
5.31798
21
-3.19111
0
LINE
8
BLACK
6
CONTINUOUS
10
5.31798
20
-3.19111
11
5.31796
21
-3.19129
0
LINE
8
BLACK
6
CONTINUOUS
10
5.31796
20
-3.19129
11
5.31609
21
-3.19504
0
LINE
8
BLACK
6
CONTINUOUS
10
5.31609
20
-3.19504
11
5.31556
21
-3.19575
0
LINE
8
BLACK
6
CONTINUOUS
10
5.31556
20
-3.19575
11
5.31553
21
-3.1958
0
LINE
8
BLACK
6
CONTINUOUS
10
5.31553
20
-3.1958
11
5.31366
21
-3.19768
0
LINE
8
BLACK
6
CONTINUOUS
10
5.31366
20
-3.19768
11
5.31294
21
-3.19819
0
LINE
8
BLACK
6
CONTINUOUS
10
5.31294
20
-3.19819
11
5.31289
21
-3.19823
0
LINE
8
BLACK
6
CONTINUOUS
10
5.31289
20
-3.19823
11
5.30914
21
-3.20011
0
LINE
8
BLACK
6
CONTINUOUS
10
5.30914
20
-3.20011
11
5.30816
21
-3.2004
0
LINE
8
BLACK
6
CONTINUOUS
10
5.30816
20
-3.2004
11
5.30799
21
-3.20036
0
LINE
8
BLACK
6
CONTINUOUS
10
5.30799
20
-3.20036
11
5.30786
21
-3.2004
0
LINE
8
BLACK
6
CONTINUOUS
10
5.30786
20
-3.2004
11
5.31774
21
-3.21452
0
LINE
8
BLACK
6
CONTINUOUS
10
5.31774
20
-3.21452
11
5.31817
21
-3.21545
0
LINE
8
BLACK
6
CONTINUOUS
10
5.31817
20
-3.21545
11
5.318
21
-3.21746
0
LINE
8
BLACK
6
CONTINUOUS
10
5.318
20
-3.21746
11
5.31657
21
-3.21889
0
LINE
8
BLACK
6
CONTINUOUS
10
5.31657
20
-3.21889
11
5.31456
21
-3.21907
0
LINE
8
BLACK
6
CONTINUOUS
10
5.31456
20
-3.21907
11
5.3129
21
-3.21791
0
LINE
8
BLACK
6
CONTINUOUS
10
5.3129
20
-3.21791
11
5.30066
21
-3.20042
0
LINE
8
BLACK
6
CONTINUOUS
10
5.30066
20
-3.20042
11
5.29578
21
-3.20042
0
LINE
8
BLACK
6
CONTINUOUS
10
5.29578
20
-3.20042
11
5.29578
21
-3.21621
0
LINE
8
BLACK
6
CONTINUOUS
10
5.29578
20
-3.21621
11
5.2956
21
-3.21722
0
LINE
8
BLACK
6
CONTINUOUS
10
5.2956
20
-3.21722
11
5.2943
21
-3.21877
0
LINE
8
BLACK
6
CONTINUOUS
10
5.2943
20
-3.21877
11
5.29231
21
-3.21912
0
LINE
8
BLACK
6
CONTINUOUS
10
5.29231
20
-3.21912
11
5.29056
21
-3.21811
0
LINE
8
BLACK
6
CONTINUOUS
10
5.29056
20
-3.21811
11
5.28987
21
-3.21621
0
LINE
8
BLACK
6
CONTINUOUS
10
5.28987
20
-3.21621
11
5.28987
21
-3.17684
0
LINE
8
BLACK
6
CONTINUOUS
10
5.28987
20
-3.17684
11
5.28994
21
-3.17646
0
LINE
8
BLACK
6
CONTINUOUS
10
5.28994
20
-3.17646
11
5.28992
21
-3.17633
0
LINE
8
BLACK
6
CONTINUOUS
10
5.28992
20
-3.17633
11
5.28998
21
-3.17622
0
LINE
8
BLACK
6
CONTINUOUS
10
5.28998
20
-3.17622
11
5.29005
21
-3.17583
0
LINE
8
BLACK
6
CONTINUOUS
10
5.29005
20
-3.17583
11
5.29054
21
-3.17525
0
LINE
8
BLACK
6
CONTINUOUS
10
5.29054
20
-3.17525
11
5.29093
21
-3.17458
0
LINE
8
BLACK
6
CONTINUOUS
10
5.29093
20
-3.17458
11
5.29118
21
-3.17449
0
LINE
8
BLACK
6
CONTINUOUS
10
5.29118
20
-3.17449
11
5.29135
21
-3.17429
0
LINE
8
BLACK
6
CONTINUOUS
10
5.29135
20
-3.17429
11
5.2921
21
-3.17415
0
LINE
8
BLACK
6
CONTINUOUS
10
5.2921
20
-3.17415
11
5.29282
21
-3.17389
0
LINE
8
BLACK
6
CONTINUOUS
10
5.29282
20
-3.17389
11
5.30782
21
-3.17389
0
LINE
8
BLACK
6
CONTINUOUS
10
5.30782
20
-3.17389
11
5.30883
21
-3.17407
0
LINE
8
BLACK
6
CONTINUOUS
10
5.29578
20
-3.19451
11
5.30712
21
-3.19451
0
LINE
8
BLACK
6
CONTINUOUS
10
5.30712
20
-3.19451
11
5.30982
21
-3.19316
0
LINE
8
BLACK
6
CONTINUOUS
10
5.30982
20
-3.19316
11
5.31102
21
-3.19197
0
LINE
8
BLACK
6
CONTINUOUS
10
5.31102
20
-3.19197
11
5.31237
21
-3.18927
0
LINE
8
BLACK
6
CONTINUOUS
10
5.31237
20
-3.18927
11
5.31237
21
-3.18504
0
LINE
8
BLACK
6
CONTINUOUS
10
5.31237
20
-3.18504
11
5.31102
21
-3.18234
0
LINE
8
BLACK
6
CONTINUOUS
10
5.31102
20
-3.18234
11
5.30982
21
-3.18114
0
LINE
8
BLACK
6
CONTINUOUS
10
5.30982
20
-3.18114
11
5.30712
21
-3.1798
0
LINE
8
BLACK
6
CONTINUOUS
10
5.30712
20
-3.1798
11
5.29578
21
-3.1798
0
LINE
8
BLACK
6
CONTINUOUS
10
5.29578
20
-3.1798
11
5.29578
21
-3.19451
0
LINE
8
BLACK
6
CONTINUOUS
10
5.39231
20
-3.174
11
5.3927
21
-3.17394
0
LINE
8
BLACK
6
CONTINUOUS
10
5.3927
20
-3.17394
11
5.39326
21
-3.17426
0
LINE
8
BLACK
6
CONTINUOUS
10
5.39326
20
-3.17426
11
5.39388
21
-3.17442
0
LINE
8
BLACK
6
CONTINUOUS
10
5.39388
20
-3.17442
11
5.39411
21
-3.17475
0
LINE
8
BLACK
6
CONTINUOUS
10
5.39411
20
-3.17475
11
5.39445
21
-3.17495
0
LINE
8
BLACK
6
CONTINUOUS
10
5.39445
20
-3.17495
11
5.39467
21
-3.17555
0
LINE
8
BLACK
6
CONTINUOUS
10
5.39467
20
-3.17555
11
5.39504
21
-3.17608
0
LINE
8
BLACK
6
CONTINUOUS
10
5.39504
20
-3.17608
11
5.395
21
-3.17647
0
LINE
8
BLACK
6
CONTINUOUS
10
5.395
20
-3.17647
11
5.39514
21
-3.17684
0
LINE
8
BLACK
6
CONTINUOUS
10
5.39514
20
-3.17684
11
5.39514
21
-3.21621
0
LINE
8
BLACK
6
CONTINUOUS
10
5.39514
20
-3.21621
11
5.39496
21
-3.21722
0
LINE
8
BLACK
6
CONTINUOUS
10
5.39496
20
-3.21722
11
5.39366
21
-3.21877
0
LINE
8
BLACK
6
CONTINUOUS
10
5.39366
20
-3.21877
11
5.39167
21
-3.21912
0
LINE
8
BLACK
6
CONTINUOUS
10
5.39167
20
-3.21912
11
5.38992
21
-3.21811
0
LINE
8
BLACK
6
CONTINUOUS
10
5.38992
20
-3.21811
11
5.38923
21
-3.21621
0
LINE
8
BLACK
6
CONTINUOUS
10
5.38923
20
-3.21621
11
5.38923
21
-3.19015
0
LINE
8
BLACK
6
CONTINUOUS
10
5.38923
20
-3.19015
11
5.38174
21
-3.20621
0
LINE
8
BLACK
6
CONTINUOUS
10
5.38174
20
-3.20621
11
5.38152
21
-3.20653
0
LINE
8
BLACK
6
CONTINUOUS
10
5.38152
20
-3.20653
11
5.38148
21
-3.20666
0
LINE
8
BLACK
6
CONTINUOUS
10
5.38148
20
-3.20666
11
5.38137
21
-3.20673
0
LINE
8
BLACK
6
CONTINUOUS
10
5.38137
20
-3.20673
11
5.38115
21
-3.20705
0
LINE
8
BLACK
6
CONTINUOUS
10
5.38115
20
-3.20705
11
5.38046
21
-3.20738
0
LINE
8
BLACK
6
CONTINUOUS
10
5.38046
20
-3.20738
11
5.37983
21
-3.20782
0
LINE
8
BLACK
6
CONTINUOUS
10
5.37983
20
-3.20782
11
5.37956
21
-3.20779
0
LINE
8
BLACK
6
CONTINUOUS
10
5.37956
20
-3.20779
11
5.37932
21
-3.20791
0
LINE
8
BLACK
6
CONTINUOUS
10
5.37932
20
-3.20791
11
5.37858
21
-3.20771
0
LINE
8
BLACK
6
CONTINUOUS
10
5.37858
20
-3.20771
11
5.37782
21
-3.20764
0
LINE
8
BLACK
6
CONTINUOUS
10
5.37782
20
-3.20764
11
5.37763
21
-3.20745
0
LINE
8
BLACK
6
CONTINUOUS
10
5.37763
20
-3.20745
11
5.37737
21
-3.20738
0
LINE
8
BLACK
6
CONTINUOUS
10
5.37737
20
-3.20738
11
5.37693
21
-3.20676
0
LINE
8
BLACK
6
CONTINUOUS
10
5.37693
20
-3.20676
11
5.37639
21
-3.20621
0
LINE
8
BLACK
6
CONTINUOUS
10
5.37639
20
-3.20621
11
5.36889
21
-3.19015
0
LINE
8
BLACK
6
CONTINUOUS
10
5.36889
20
-3.19015
11
5.36889
21
-3.21621
0
LINE
8
BLACK
6
CONTINUOUS
10
5.36889
20
-3.21621
11
5.36871
21
-3.21722
0
LINE
8
BLACK
6
CONTINUOUS
10
5.36871
20
-3.21722
11
5.36742
21
-3.21877
0
LINE
8
BLACK
6
CONTINUOUS
10
5.36742
20
-3.21877
11
5.36543
21
-3.21912
0
LINE
8
BLACK
6
CONTINUOUS
10
5.36543
20
-3.21912
11
5.36368
21
-3.21811
0
LINE
8
BLACK
6
CONTINUOUS
10
5.36368
20
-3.21811
11
5.36299
21
-3.21621
0
LINE
8
BLACK
6
CONTINUOUS
10
5.36299
20
-3.21621
11
5.36299
21
-3.17684
0
LINE
8
BLACK
6
CONTINUOUS
10
5.36299
20
-3.17684
11
5.36316
21
-3.17583
0
LINE
8
BLACK
6
CONTINUOUS
10
5.36316
20
-3.17583
11
5.36342
21
-3.17553
0
LINE
8
BLACK
6
CONTINUOUS
10
5.36342
20
-3.17553
11
5.36352
21
-3.17515
0
LINE
8
BLACK
6
CONTINUOUS
10
5.36352
20
-3.17515
11
5.36405
21
-3.17478
0
LINE
8
BLACK
6
CONTINUOUS
10
5.36405
20
-3.17478
11
5.36446
21
-3.17429
0
LINE
8
BLACK
6
CONTINUOUS
10
5.36446
20
-3.17429
11
5.36485
21
-3.17422
0
LINE
8
BLACK
6
CONTINUOUS
10
5.36485
20
-3.17422
11
5.36517
21
-3.17399
0
LINE
8
BLACK
6
CONTINUOUS
10
5.36517
20
-3.17399
11
5.36582
21
-3.17405
0
LINE
8
BLACK
6
CONTINUOUS
10
5.36582
20
-3.17405
11
5.36645
21
-3.17394
0
LINE
8
BLACK
6
CONTINUOUS
10
5.36645
20
-3.17394
11
5.36679
21
-3.17413
0
LINE
8
BLACK
6
CONTINUOUS
10
5.36679
20
-3.17413
11
5.36719
21
-3.17417
0
LINE
8
BLACK
6
CONTINUOUS
10
5.36719
20
-3.17417
11
5.36764
21
-3.17462
0
LINE
8
BLACK
6
CONTINUOUS
10
5.36764
20
-3.17462
11
5.3682
21
-3.17495
0
LINE
8
BLACK
6
CONTINUOUS
10
5.3682
20
-3.17495
11
5.36834
21
-3.17532
0
LINE
8
BLACK
6
CONTINUOUS
10
5.36834
20
-3.17532
11
5.36862
21
-3.17559
0
LINE
8
BLACK
6
CONTINUOUS
10
5.36862
20
-3.17559
11
5.37906
21
-3.19798
0
LINE
8
BLACK
6
CONTINUOUS
10
5.37906
20
-3.19798
11
5.38951
21
-3.17559
0
LINE
8
BLACK
6
CONTINUOUS
10
5.38951
20
-3.17559
11
5.3901
21
-3.17475
0
LINE
8
BLACK
6
CONTINUOUS
10
5.3901
20
-3.17475
11
5.39046
21
-3.17459
0
LINE
8
BLACK
6
CONTINUOUS
10
5.39046
20
-3.17459
11
5.39071
21
-3.17429
0
LINE
8
BLACK
6
CONTINUOUS
10
5.39071
20
-3.17429
11
5.39134
21
-3.17417
0
LINE
8
BLACK
6
CONTINUOUS
10
5.39134
20
-3.17417
11
5.39193
21
-3.1739
0
LINE
8
BLACK
6
CONTINUOUS
10
5.39193
20
-3.1739
11
5.39231
21
-3.174
0
CIRCLE
8
BLACK
10
5.4
20
-3.8
40
0.00688976
0
CIRCLE
8
BLACK
10
5.81
20
-3.2
40
0.00688976
0
CIRCLE
8
BLACK
10
5.91
20
-3.2
40
0.00688976
0
CIRCLE
8
BLACK
10
5.81
20
-3.3
40
0.00688976
0
CIRCLE
8
BLACK
10
5.91
20
-3.3
40
0.00688976
0
CIRCLE
8
BLACK
10
5.81
20
-3.4
40
0.00688976
0
CIRCLE
8
BLACK
10
5.91
20
-3.4
40
0.00688976
0
CIRCLE
8
BLACK
10
5.81
20
-3.5
40
0.00688976
0
CIRCLE
8
BLACK
10
5.91
20
-3.5
40
0.00688976
0
CIRCLE
8
BLACK
10
5.81
20
-3.6
40
0.00688976
0
CIRCLE
8
BLACK
10
5.91
20
-3.6
40
0.00688976
0
CIRCLE
8
BLACK
10
5.8
20
-3
40
0.00688976
0
CIRCLE
8
BLACK
10
5.4
20
-3
40
0.00688976
0
CIRCLE
8
BLACK
10
5.8
20
-3.8
40
0.00688976
0
CIRCLE
8
BLACK
10
5.29
20
-3.4
40
0.00688976
0
CIRCLE
8
BLACK
10
5.39
20
-3.4
40
0.00688976
0
CIRCLE
8
BLACK
10
5.29
20
-3.5
40
0.00688976
0
CIRCLE
8
BLACK
10
5.39
20
-3.5
40
0.00688976
0
CIRCLE
8
BLACK
10
5.29
20
-3.6
40
0.00688976
0
CIRCLE
8
BLACK
10
5.39
20
-3.6
40
0.00688976
  0
ENDSEC
  0
EOF
