  0
SECTION
  2
HEADER
  9
$ANGBASE
  50
0.0
  9
$ANGDIR
  70
1
  9
$MEASUREMENT
  70
0
  0
ENDSEC
  0
SECTION
  2
TABLES
  0
TABLE
  2
LTYPE
  70
4
  0
LTYPE
  5
40F
  2
CONTINUOUS
  70
0
  3
Solid line
  72
65
  73
0
  40
0.0
  0
LTYPE
  5
410
  2
DASHDOT
 70
0
  3
Dash Dot ____ _ ____ _
 72
65
 73
4
 40
2.0
 49
1.25
 49
-0.25
 49
0.25
 49
-0.25
  0
LTYPE
  5
411
  2
DASHED
 70
0
  3
Dashed __ __ __ __ __
 72
65
 73
2
 40
0.75
 49
0.5
 49
-0.25
  0
LTYPE
  5
43B
  2
DOTTED
 70
0
  3
Dotted .  .  .  .
 72
65
 73
2
 40
0.2
 49
0.0
 49
-0.2
  0
ENDTAB
  0
TABLE
  2
STYLE
  70
4
  0
STYLE
  2
KICAD
  70
0
  40
0
  41
1
  42
1
  50
0
  71
0
  3
isocp.shx
  0
STYLE
  2
KICADB
  70
0
  40
0
  41
1
  42
1
  50
0
  71
0
  3
isocp.shx
  0
STYLE
  2
KICADI
  70
0
  40
0
  41
1
  42
1
  50
15
  71
0
  3
isocp.shx
  0
STYLE
  2
KICADBI
  70
0
  40
0
  41
1
  42
1
  50
15
  71
0
  3
isocp.shx
  0
ENDTAB
  0
TABLE
  2
LAYER
  70
1
  0
LAYER
  2
BLACK
  70
0
  62
7
  6
CONTINUOUS
  0
ENDTAB
  0
ENDSEC
  0
SECTION
  2
ENTITIES
0
LINE
8
BLACK
6
CONTINUOUS
10
5.23081
20
-2.8323
11
5.23292
21
-2.83047
0
LINE
8
BLACK
6
CONTINUOUS
10
5.23292
20
-2.83047
11
5.23498
21
-2.83002
0
LINE
8
BLACK
6
CONTINUOUS
10
5.23498
20
-2.83002
11
5.96502
21
-2.83002
0
LINE
8
BLACK
6
CONTINUOUS
10
5.96502
20
-2.83002
11
5.9677
21
-2.83081
0
LINE
8
BLACK
6
CONTINUOUS
10
5.9677
20
-2.83081
11
5.96953
21
-2.83292
0
LINE
8
BLACK
6
CONTINUOUS
10
5.96953
20
-2.83292
11
5.96998
21
-2.83498
0
LINE
8
BLACK
6
CONTINUOUS
10
5.96998
20
-2.83498
11
5.96998
21
-3.96502
0
LINE
8
BLACK
6
CONTINUOUS
10
5.96998
20
-3.96502
11
5.96919
21
-3.9677
0
LINE
8
BLACK
6
CONTINUOUS
10
5.96919
20
-3.9677
11
5.96708
21
-3.96953
0
LINE
8
BLACK
6
CONTINUOUS
10
5.96708
20
-3.96953
11
5.96502
21
-3.96998
0
LINE
8
BLACK
6
CONTINUOUS
10
5.96502
20
-3.96998
11
5.23498
21
-3.96998
0
LINE
8
BLACK
6
CONTINUOUS
10
5.23498
20
-3.96998
11
5.2323
21
-3.96919
0
LINE
8
BLACK
6
CONTINUOUS
10
5.2323
20
-3.96919
11
5.23047
21
-3.96708
0
LINE
8
BLACK
6
CONTINUOUS
10
5.23047
20
-3.96708
11
5.23002
21
-3.96502
0
LINE
8
BLACK
6
CONTINUOUS
10
5.23002
20
-3.96502
11
5.23002
21
-2.83498
0
LINE
8
BLACK
6
CONTINUOUS
10
5.23002
20
-2.83498
11
5.23081
21
-2.8323
0
LINE
8
BLACK
6
CONTINUOUS
10
5.52332
20
-3.68458
11
5.52343
21
-3.6851
0
LINE
8
BLACK
6
CONTINUOUS
10
5.52343
20
-3.6851
11
5.52546
21
-3.69117
0
LINE
8
BLACK
6
CONTINUOUS
10
5.52546
20
-3.69117
11
5.5257
21
-3.69169
0
LINE
8
BLACK
6
CONTINUOUS
10
5.5257
20
-3.69169
11
5.52906
21
-3.69712
0
LINE
8
BLACK
6
CONTINUOUS
10
5.52906
20
-3.69712
11
5.52941
21
-3.69757
0
LINE
8
BLACK
6
CONTINUOUS
10
5.52941
20
-3.69757
11
5.53393
21
-3.70208
0
LINE
8
BLACK
6
CONTINUOUS
10
5.53393
20
-3.70208
11
5.53438
21
-3.70243
0
LINE
8
BLACK
6
CONTINUOUS
10
5.53438
20
-3.70243
11
5.53981
21
-3.70578
0
LINE
8
BLACK
6
CONTINUOUS
10
5.53981
20
-3.70578
11
5.54033
21
-3.70602
0
LINE
8
BLACK
6
CONTINUOUS
10
5.54033
20
-3.70602
11
5.54641
21
-3.70804
0
LINE
8
BLACK
6
CONTINUOUS
10
5.54641
20
-3.70804
11
5.54693
21
-3.70815
0
LINE
8
BLACK
6
CONTINUOUS
10
5.54693
20
-3.70815
11
5.55065
21
-3.70853
0
LINE
8
BLACK
6
CONTINUOUS
10
5.55065
20
-3.70853
11
5.5509
21
-3.70854
0
LINE
8
BLACK
6
CONTINUOUS
10
5.5509
20
-3.70854
11
5.55189
21
-3.70854
0
LINE
8
BLACK
6
CONTINUOUS
10
5.55189
20
-3.70854
11
5.55249
21
-3.70837
0
LINE
8
BLACK
6
CONTINUOUS
10
5.55249
20
-3.70837
11
5.55253
21
-3.70831
0
LINE
8
BLACK
6
CONTINUOUS
10
5.55253
20
-3.70831
11
5.5526
21
-3.70801
0
LINE
8
BLACK
6
CONTINUOUS
10
5.5526
20
-3.70801
11
5.5526
21
-3.68851
0
LINE
8
BLACK
6
CONTINUOUS
10
5.5526
20
-3.68851
11
5.54899
21
-3.68779
0
LINE
8
BLACK
6
CONTINUOUS
10
5.54899
20
-3.68779
11
5.5458
21
-3.68566
0
LINE
8
BLACK
6
CONTINUOUS
10
5.5458
20
-3.68566
11
5.54366
21
-3.68247
0
LINE
8
BLACK
6
CONTINUOUS
10
5.54366
20
-3.68247
11
5.54291
21
-3.6787
0
LINE
8
BLACK
6
CONTINUOUS
10
5.54291
20
-3.6787
11
5.54291
21
-3.67
0
LINE
8
BLACK
6
CONTINUOUS
10
5.54291
20
-3.67
11
5.52363
21
-3.67
0
LINE
8
BLACK
6
CONTINUOUS
10
5.52363
20
-3.67
11
5.52303
21
-3.67018
0
LINE
8
BLACK
6
CONTINUOUS
10
5.52303
20
-3.67018
11
5.52298
21
-3.67023
0
LINE
8
BLACK
6
CONTINUOUS
10
5.52298
20
-3.67023
11
5.52291
21
-3.67053
0
LINE
8
BLACK
6
CONTINUOUS
10
5.52291
20
-3.67053
11
5.52291
21
-3.68055
0
LINE
8
BLACK
6
CONTINUOUS
10
5.52291
20
-3.68055
11
5.52293
21
-3.68081
0
LINE
8
BLACK
6
CONTINUOUS
10
5.52293
20
-3.68081
11
5.52332
21
-3.68458
0
LINE
8
BLACK
6
CONTINUOUS
10
5.46592
20
-3.60458
11
5.46603
21
-3.6051
0
LINE
8
BLACK
6
CONTINUOUS
10
5.46603
20
-3.6051
11
5.46805
21
-3.61117
0
LINE
8
BLACK
6
CONTINUOUS
10
5.46805
20
-3.61117
11
5.4683
21
-3.61169
0
LINE
8
BLACK
6
CONTINUOUS
10
5.4683
20
-3.61169
11
5.47166
21
-3.61712
0
LINE
8
BLACK
6
CONTINUOUS
10
5.47166
20
-3.61712
11
5.47201
21
-3.61757
0
LINE
8
BLACK
6
CONTINUOUS
10
5.47201
20
-3.61757
11
5.47653
21
-3.62208
0
LINE
8
BLACK
6
CONTINUOUS
10
5.47653
20
-3.62208
11
5.47698
21
-3.62243
0
LINE
8
BLACK
6
CONTINUOUS
10
5.47698
20
-3.62243
11
5.48241
21
-3.62578
0
LINE
8
BLACK
6
CONTINUOUS
10
5.48241
20
-3.62578
11
5.48293
21
-3.62602
0
LINE
8
BLACK
6
CONTINUOUS
10
5.48293
20
-3.62602
11
5.489
21
-3.62804
0
LINE
8
BLACK
6
CONTINUOUS
10
5.489
20
-3.62804
11
5.48953
21
-3.62815
0
LINE
8
BLACK
6
CONTINUOUS
10
5.48953
20
-3.62815
11
5.49325
21
-3.62853
0
LINE
8
BLACK
6
CONTINUOUS
10
5.49325
20
-3.62853
11
5.4935
21
-3.62854
0
LINE
8
BLACK
6
CONTINUOUS
10
5.4935
20
-3.62854
11
5.49448
21
-3.62854
0
LINE
8
BLACK
6
CONTINUOUS
10
5.49448
20
-3.62854
11
5.49508
21
-3.62837
0
LINE
8
BLACK
6
CONTINUOUS
10
5.49508
20
-3.62837
11
5.49513
21
-3.62831
0
LINE
8
BLACK
6
CONTINUOUS
10
5.49513
20
-3.62831
11
5.4952
21
-3.62801
0
LINE
8
BLACK
6
CONTINUOUS
10
5.4952
20
-3.62801
11
5.4952
21
-3.60851
0
LINE
8
BLACK
6
CONTINUOUS
10
5.4952
20
-3.60851
11
5.49159
21
-3.60779
0
LINE
8
BLACK
6
CONTINUOUS
10
5.49159
20
-3.60779
11
5.48839
21
-3.60566
0
LINE
8
BLACK
6
CONTINUOUS
10
5.48839
20
-3.60566
11
5.48626
21
-3.60247
0
LINE
8
BLACK
6
CONTINUOUS
10
5.48626
20
-3.60247
11
5.48551
21
-3.5987
0
LINE
8
BLACK
6
CONTINUOUS
10
5.48551
20
-3.5987
11
5.48551
21
-3.59
0
LINE
8
BLACK
6
CONTINUOUS
10
5.48551
20
-3.59
11
5.46623
21
-3.59
0
LINE
8
BLACK
6
CONTINUOUS
10
5.46623
20
-3.59
11
5.46563
21
-3.59018
0
LINE
8
BLACK
6
CONTINUOUS
10
5.46563
20
-3.59018
11
5.46558
21
-3.59023
0
LINE
8
BLACK
6
CONTINUOUS
10
5.46558
20
-3.59023
11
5.46551
21
-3.59053
0
LINE
8
BLACK
6
CONTINUOUS
10
5.46551
20
-3.59053
11
5.46551
21
-3.60055
0
LINE
8
BLACK
6
CONTINUOUS
10
5.46551
20
-3.60055
11
5.46553
21
-3.60081
0
LINE
8
BLACK
6
CONTINUOUS
10
5.46553
20
-3.60081
11
5.46592
21
-3.60458
0
LINE
8
BLACK
6
CONTINUOUS
10
5.46574
20
-3.56993
11
5.46605
21
-3.57
0
LINE
8
BLACK
6
CONTINUOUS
10
5.46605
20
-3.57
11
5.48551
21
-3.57
0
LINE
8
BLACK
6
CONTINUOUS
10
5.48551
20
-3.57
11
5.48551
21
-3.5613
0
LINE
8
BLACK
6
CONTINUOUS
10
5.48551
20
-3.5613
11
5.48626
21
-3.55753
0
LINE
8
BLACK
6
CONTINUOUS
10
5.48626
20
-3.55753
11
5.48839
21
-3.55434
0
LINE
8
BLACK
6
CONTINUOUS
10
5.48839
20
-3.55434
11
5.49159
21
-3.55221
0
LINE
8
BLACK
6
CONTINUOUS
10
5.49159
20
-3.55221
11
5.4952
21
-3.55149
0
LINE
8
BLACK
6
CONTINUOUS
10
5.4952
20
-3.55149
11
5.4952
21
-3.53217
0
LINE
8
BLACK
6
CONTINUOUS
10
5.4952
20
-3.53217
11
5.49502
21
-3.53157
0
LINE
8
BLACK
6
CONTINUOUS
10
5.49502
20
-3.53157
11
5.49497
21
-3.53152
0
LINE
8
BLACK
6
CONTINUOUS
10
5.49497
20
-3.53152
11
5.49466
21
-3.53146
0
LINE
8
BLACK
6
CONTINUOUS
10
5.49466
20
-3.53146
11
5.4935
21
-3.53146
0
LINE
8
BLACK
6
CONTINUOUS
10
5.4935
20
-3.53146
11
5.49324
21
-3.53147
0
LINE
8
BLACK
6
CONTINUOUS
10
5.49324
20
-3.53147
11
5.48948
21
-3.53186
0
LINE
8
BLACK
6
CONTINUOUS
10
5.48948
20
-3.53186
11
5.48895
21
-3.53197
0
LINE
8
BLACK
6
CONTINUOUS
10
5.48895
20
-3.53197
11
5.48288
21
-3.534
0
LINE
8
BLACK
6
CONTINUOUS
10
5.48288
20
-3.534
11
5.48236
21
-3.53424
0
LINE
8
BLACK
6
CONTINUOUS
10
5.48236
20
-3.53424
11
5.47694
21
-3.5376
0
LINE
8
BLACK
6
CONTINUOUS
10
5.47694
20
-3.5376
11
5.47649
21
-3.53796
0
LINE
8
BLACK
6
CONTINUOUS
10
5.47649
20
-3.53796
11
5.47198
21
-3.54247
0
LINE
8
BLACK
6
CONTINUOUS
10
5.47198
20
-3.54247
11
5.47162
21
-3.54292
0
LINE
8
BLACK
6
CONTINUOUS
10
5.47162
20
-3.54292
11
5.46827
21
-3.54836
0
LINE
8
BLACK
6
CONTINUOUS
10
5.46827
20
-3.54836
11
5.46803
21
-3.54887
0
LINE
8
BLACK
6
CONTINUOUS
10
5.46803
20
-3.54887
11
5.46602
21
-3.55495
0
LINE
8
BLACK
6
CONTINUOUS
10
5.46602
20
-3.55495
11
5.46591
21
-3.55548
0
LINE
8
BLACK
6
CONTINUOUS
10
5.46591
20
-3.55548
11
5.46552
21
-3.55919
0
LINE
8
BLACK
6
CONTINUOUS
10
5.46552
20
-3.55919
11
5.46551
21
-3.55944
0
LINE
8
BLACK
6
CONTINUOUS
10
5.46551
20
-3.55944
11
5.46551
21
-3.56929
0
LINE
8
BLACK
6
CONTINUOUS
10
5.46551
20
-3.56929
11
5.46569
21
-3.56989
0
LINE
8
BLACK
6
CONTINUOUS
10
5.46569
20
-3.56989
11
5.46574
21
-3.56993
0
LINE
8
BLACK
6
CONTINUOUS
10
5.33603
20
-3.3122
11
5.33543
21
-3.31238
0
LINE
8
BLACK
6
CONTINUOUS
10
5.33543
20
-3.31238
11
5.33538
21
-3.31244
0
LINE
8
BLACK
6
CONTINUOUS
10
5.33538
20
-3.31244
11
5.33531
21
-3.31274
0
LINE
8
BLACK
6
CONTINUOUS
10
5.33531
20
-3.31274
11
5.33531
21
-3.3322
0
LINE
8
BLACK
6
CONTINUOUS
10
5.33531
20
-3.3322
11
5.3578
21
-3.3322
0
LINE
8
BLACK
6
CONTINUOUS
10
5.3578
20
-3.3322
11
5.3578
21
-3.335
0
LINE
8
BLACK
6
CONTINUOUS
10
5.3578
20
-3.335
11
5.37708
21
-3.335
0
LINE
8
BLACK
6
CONTINUOUS
10
5.37708
20
-3.335
11
5.37768
21
-3.33482
0
LINE
8
BLACK
6
CONTINUOUS
10
5.37768
20
-3.33482
11
5.37773
21
-3.33477
0
LINE
8
BLACK
6
CONTINUOUS
10
5.37773
20
-3.33477
11
5.3778
21
-3.33447
0
LINE
8
BLACK
6
CONTINUOUS
10
5.3778
20
-3.33447
11
5.3778
21
-3.33045
0
LINE
8
BLACK
6
CONTINUOUS
10
5.3778
20
-3.33045
11
5.37778
21
-3.33018
0
LINE
8
BLACK
6
CONTINUOUS
10
5.37778
20
-3.33018
11
5.37756
21
-3.32818
0
LINE
8
BLACK
6
CONTINUOUS
10
5.37756
20
-3.32818
11
5.37742
21
-3.32757
0
LINE
8
BLACK
6
CONTINUOUS
10
5.37742
20
-3.32757
11
5.37564
21
-3.32283
0
LINE
8
BLACK
6
CONTINUOUS
10
5.37564
20
-3.32283
11
5.37531
21
-3.32222
0
LINE
8
BLACK
6
CONTINUOUS
10
5.37531
20
-3.32222
11
5.37229
21
-3.3182
0
LINE
8
BLACK
6
CONTINUOUS
10
5.37229
20
-3.3182
11
5.3718
21
-3.31771
0
LINE
8
BLACK
6
CONTINUOUS
10
5.3718
20
-3.31771
11
5.36778
21
-3.31469
0
LINE
8
BLACK
6
CONTINUOUS
10
5.36778
20
-3.31469
11
5.36717
21
-3.31436
0
LINE
8
BLACK
6
CONTINUOUS
10
5.36717
20
-3.31436
11
5.36243
21
-3.31258
0
LINE
8
BLACK
6
CONTINUOUS
10
5.36243
20
-3.31258
11
5.36182
21
-3.31244
0
LINE
8
BLACK
6
CONTINUOUS
10
5.36182
20
-3.31244
11
5.35982
21
-3.31222
0
LINE
8
BLACK
6
CONTINUOUS
10
5.35982
20
-3.31222
11
5.35955
21
-3.3122
0
LINE
8
BLACK
6
CONTINUOUS
10
5.35955
20
-3.3122
11
5.33603
21
-3.3122
0
LINE
8
BLACK
6
CONTINUOUS
10
5.29108
20
-3.3122
11
5.29081
21
-3.31222
0
LINE
8
BLACK
6
CONTINUOUS
10
5.29081
20
-3.31222
11
5.28881
21
-3.31244
0
LINE
8
BLACK
6
CONTINUOUS
10
5.28881
20
-3.31244
11
5.2882
21
-3.31258
0
LINE
8
BLACK
6
CONTINUOUS
10
5.2882
20
-3.31258
11
5.28346
21
-3.31436
0
LINE
8
BLACK
6
CONTINUOUS
10
5.28346
20
-3.31436
11
5.28285
21
-3.31469
0
LINE
8
BLACK
6
CONTINUOUS
10
5.28285
20
-3.31469
11
5.27883
21
-3.31771
0
LINE
8
BLACK
6
CONTINUOUS
10
5.27883
20
-3.31771
11
5.27834
21
-3.3182
0
LINE
8
BLACK
6
CONTINUOUS
10
5.27834
20
-3.3182
11
5.27532
21
-3.32222
0
LINE
8
BLACK
6
CONTINUOUS
10
5.27532
20
-3.32222
11
5.27499
21
-3.32283
0
LINE
8
BLACK
6
CONTINUOUS
10
5.27499
20
-3.32283
11
5.27321
21
-3.32757
0
LINE
8
BLACK
6
CONTINUOUS
10
5.27321
20
-3.32757
11
5.27307
21
-3.32818
0
LINE
8
BLACK
6
CONTINUOUS
10
5.27307
20
-3.32818
11
5.27285
21
-3.33018
0
LINE
8
BLACK
6
CONTINUOUS
10
5.27285
20
-3.33018
11
5.27283
21
-3.33045
0
LINE
8
BLACK
6
CONTINUOUS
10
5.27283
20
-3.33045
11
5.27283
21
-3.33093
0
LINE
8
BLACK
6
CONTINUOUS
10
5.27283
20
-3.33093
11
5.27491
21
-3.335
0
LINE
8
BLACK
6
CONTINUOUS
10
5.27491
20
-3.335
11
5.29283
21
-3.335
0
LINE
8
BLACK
6
CONTINUOUS
10
5.29283
20
-3.335
11
5.29283
21
-3.3322
0
LINE
8
BLACK
6
CONTINUOUS
10
5.29283
20
-3.3322
11
5.31531
21
-3.3322
0
LINE
8
BLACK
6
CONTINUOUS
10
5.31531
20
-3.3322
11
5.31531
21
-3.31292
0
LINE
8
BLACK
6
CONTINUOUS
10
5.31531
20
-3.31292
11
5.31514
21
-3.31232
0
LINE
8
BLACK
6
CONTINUOUS
10
5.31514
20
-3.31232
11
5.31508
21
-3.31227
0
LINE
8
BLACK
6
CONTINUOUS
10
5.31508
20
-3.31227
11
5.31478
21
-3.3122
0
LINE
8
BLACK
6
CONTINUOUS
10
5.31478
20
-3.3122
11
5.29108
21
-3.3122
0
LINE
8
BLACK
6
CONTINUOUS
10
5.36149
20
-3.28537
11
5.36179
21
-3.28543
0
LINE
8
BLACK
6
CONTINUOUS
10
5.36179
20
-3.28543
11
5.40223
21
-3.28543
0
LINE
8
BLACK
6
CONTINUOUS
10
5.40223
20
-3.28543
11
5.4025
21
-3.28542
0
LINE
8
BLACK
6
CONTINUOUS
10
5.4025
20
-3.28542
11
5.4045
21
-3.2852
0
LINE
8
BLACK
6
CONTINUOUS
10
5.4045
20
-3.2852
11
5.4051
21
-3.28506
0
LINE
8
BLACK
6
CONTINUOUS
10
5.4051
20
-3.28506
11
5.40984
21
-3.28328
0
LINE
8
BLACK
6
CONTINUOUS
10
5.40984
20
-3.28328
11
5.41046
21
-3.28294
0
LINE
8
BLACK
6
CONTINUOUS
10
5.41046
20
-3.28294
11
5.41448
21
-3.27993
0
LINE
8
BLACK
6
CONTINUOUS
10
5.41448
20
-3.27993
11
5.41497
21
-3.27944
0
LINE
8
BLACK
6
CONTINUOUS
10
5.41497
20
-3.27944
11
5.41798
21
-3.27542
0
LINE
8
BLACK
6
CONTINUOUS
10
5.41798
20
-3.27542
11
5.41832
21
-3.27481
0
LINE
8
BLACK
6
CONTINUOUS
10
5.41832
20
-3.27481
11
5.4201
21
-3.27006
0
LINE
8
BLACK
6
CONTINUOUS
10
5.4201
20
-3.27006
11
5.42024
21
-3.26946
0
LINE
8
BLACK
6
CONTINUOUS
10
5.42024
20
-3.26946
11
5.42046
21
-3.26746
0
LINE
8
BLACK
6
CONTINUOUS
10
5.42046
20
-3.26746
11
5.42047
21
-3.26719
0
LINE
8
BLACK
6
CONTINUOUS
10
5.42047
20
-3.26719
11
5.42047
21
-3.24071
0
LINE
8
BLACK
6
CONTINUOUS
10
5.42047
20
-3.24071
11
5.4203
21
-3.24011
0
LINE
8
BLACK
6
CONTINUOUS
10
5.4203
20
-3.24011
11
5.42024
21
-3.24007
0
LINE
8
BLACK
6
CONTINUOUS
10
5.42024
20
-3.24007
11
5.41994
21
-3.24
0
LINE
8
BLACK
6
CONTINUOUS
10
5.41994
20
-3.24
11
5.40047
21
-3.24
0
LINE
8
BLACK
6
CONTINUOUS
10
5.40047
20
-3.24
11
5.40047
21
-3.26543
0
LINE
8
BLACK
6
CONTINUOUS
10
5.40047
20
-3.26543
11
5.36126
21
-3.26543
0
LINE
8
BLACK
6
CONTINUOUS
10
5.36126
20
-3.26543
11
5.36126
21
-3.28472
0
LINE
8
BLACK
6
CONTINUOUS
10
5.36126
20
-3.28472
11
5.36144
21
-3.28532
0
LINE
8
BLACK
6
CONTINUOUS
10
5.36144
20
-3.28532
11
5.36149
21
-3.28537
0
LINE
8
BLACK
6
CONTINUOUS
10
5.28228
20
-3.21993
11
5.28258
21
-3.22
0
LINE
8
BLACK
6
CONTINUOUS
10
5.28258
20
-3.22
11
5.30205
21
-3.22
0
LINE
8
BLACK
6
CONTINUOUS
10
5.30205
20
-3.22
11
5.30205
21
-3.19457
0
LINE
8
BLACK
6
CONTINUOUS
10
5.30205
20
-3.19457
11
5.34126
21
-3.19457
0
LINE
8
BLACK
6
CONTINUOUS
10
5.34126
20
-3.19457
11
5.34126
21
-3.17528
0
LINE
8
BLACK
6
CONTINUOUS
10
5.34126
20
-3.17528
11
5.34108
21
-3.17468
0
LINE
8
BLACK
6
CONTINUOUS
10
5.34108
20
-3.17468
11
5.34103
21
-3.17463
0
LINE
8
BLACK
6
CONTINUOUS
10
5.34103
20
-3.17463
11
5.34073
21
-3.17457
0
LINE
8
BLACK
6
CONTINUOUS
10
5.34073
20
-3.17457
11
5.30029
21
-3.17457
0
LINE
8
BLACK
6
CONTINUOUS
10
5.30029
20
-3.17457
11
5.30002
21
-3.17458
0
LINE
8
BLACK
6
CONTINUOUS
10
5.30002
20
-3.17458
11
5.29802
21
-3.1748
0
LINE
8
BLACK
6
CONTINUOUS
10
5.29802
20
-3.1748
11
5.29742
21
-3.17494
0
LINE
8
BLACK
6
CONTINUOUS
10
5.29742
20
-3.17494
11
5.29268
21
-3.17672
0
LINE
8
BLACK
6
CONTINUOUS
10
5.29268
20
-3.17672
11
5.29206
21
-3.17706
0
LINE
8
BLACK
6
CONTINUOUS
10
5.29206
20
-3.17706
11
5.28804
21
-3.18007
0
LINE
8
BLACK
6
CONTINUOUS
10
5.28804
20
-3.18007
11
5.28755
21
-3.18056
0
LINE
8
BLACK
6
CONTINUOUS
10
5.28755
20
-3.18056
11
5.28454
21
-3.18458
0
LINE
8
BLACK
6
CONTINUOUS
10
5.28454
20
-3.18458
11
5.2842
21
-3.18519
0
LINE
8
BLACK
6
CONTINUOUS
10
5.2842
20
-3.18519
11
5.28242
21
-3.18994
0
LINE
8
BLACK
6
CONTINUOUS
10
5.28242
20
-3.18994
11
5.28228
21
-3.19054
0
LINE
8
BLACK
6
CONTINUOUS
10
5.28228
20
-3.19054
11
5.28206
21
-3.19254
0
LINE
8
BLACK
6
CONTINUOUS
10
5.28206
20
-3.19254
11
5.28205
21
-3.19281
0
LINE
8
BLACK
6
CONTINUOUS
10
5.28205
20
-3.19281
11
5.28205
21
-3.21929
0
LINE
8
BLACK
6
CONTINUOUS
10
5.28205
20
-3.21929
11
5.28222
21
-3.21989
0
LINE
8
BLACK
6
CONTINUOUS
10
5.28222
20
-3.21989
11
5.28228
21
-3.21993
0
LINE
8
BLACK
6
CONTINUOUS
10
5.36197
20
-3.17457
11
5.36137
21
-3.17474
0
LINE
8
BLACK
6
CONTINUOUS
10
5.36137
20
-3.17474
11
5.36133
21
-3.1748
0
LINE
8
BLACK
6
CONTINUOUS
10
5.36133
20
-3.1748
11
5.36126
21
-3.1751
0
LINE
8
BLACK
6
CONTINUOUS
10
5.36126
20
-3.1751
11
5.36126
21
-3.19457
0
LINE
8
BLACK
6
CONTINUOUS
10
5.36126
20
-3.19457
11
5.40047
21
-3.19457
0
LINE
8
BLACK
6
CONTINUOUS
10
5.40047
20
-3.19457
11
5.40047
21
-3.22
0
LINE
8
BLACK
6
CONTINUOUS
10
5.40047
20
-3.22
11
5.41976
21
-3.22
0
LINE
8
BLACK
6
CONTINUOUS
10
5.41976
20
-3.22
11
5.42036
21
-3.21982
0
LINE
8
BLACK
6
CONTINUOUS
10
5.42036
20
-3.21982
11
5.42041
21
-3.21977
0
LINE
8
BLACK
6
CONTINUOUS
10
5.42041
20
-3.21977
11
5.42047
21
-3.21947
0
LINE
8
BLACK
6
CONTINUOUS
10
5.42047
20
-3.21947
11
5.42047
21
-3.19281
0
LINE
8
BLACK
6
CONTINUOUS
10
5.42047
20
-3.19281
11
5.42046
21
-3.19254
0
LINE
8
BLACK
6
CONTINUOUS
10
5.42046
20
-3.19254
11
5.42024
21
-3.19054
0
LINE
8
BLACK
6
CONTINUOUS
10
5.42024
20
-3.19054
11
5.4201
21
-3.18994
0
LINE
8
BLACK
6
CONTINUOUS
10
5.4201
20
-3.18994
11
5.41832
21
-3.18519
0
LINE
8
BLACK
6
CONTINUOUS
10
5.41832
20
-3.18519
11
5.41798
21
-3.18458
0
LINE
8
BLACK
6
CONTINUOUS
10
5.41798
20
-3.18458
11
5.41497
21
-3.18056
0
LINE
8
BLACK
6
CONTINUOUS
10
5.41497
20
-3.18056
11
5.41448
21
-3.18007
0
LINE
8
BLACK
6
CONTINUOUS
10
5.41448
20
-3.18007
11
5.41046
21
-3.17706
0
LINE
8
BLACK
6
CONTINUOUS
10
5.41046
20
-3.17706
11
5.40984
21
-3.17672
0
LINE
8
BLACK
6
CONTINUOUS
10
5.40984
20
-3.17672
11
5.4051
21
-3.17494
0
LINE
8
BLACK
6
CONTINUOUS
10
5.4051
20
-3.17494
11
5.4045
21
-3.1748
0
LINE
8
BLACK
6
CONTINUOUS
10
5.4045
20
-3.1748
11
5.4025
21
-3.17458
0
LINE
8
BLACK
6
CONTINUOUS
10
5.4025
20
-3.17458
11
5.40223
21
-3.17457
0
LINE
8
BLACK
6
CONTINUOUS
10
5.40223
20
-3.17457
11
5.36197
21
-3.17457
0
LINE
8
BLACK
6
CONTINUOUS
10
5.27509
20
-3.51751
11
5.27853
21
-3.5221
0
LINE
8
BLACK
6
CONTINUOUS
10
5.27853
20
-3.5221
11
5.28312
21
-3.52554
0
LINE
8
BLACK
6
CONTINUOUS
10
5.28312
20
-3.52554
11
5.28849
21
-3.52755
0
LINE
8
BLACK
6
CONTINUOUS
10
5.28849
20
-3.52755
11
5.29094
21
-3.52781
0
LINE
8
BLACK
6
CONTINUOUS
10
5.29094
20
-3.52781
11
5.35969
21
-3.52781
0
LINE
8
BLACK
6
CONTINUOUS
10
5.35969
20
-3.52781
11
5.36214
21
-3.52755
0
LINE
8
BLACK
6
CONTINUOUS
10
5.36214
20
-3.52755
11
5.36751
21
-3.52554
0
LINE
8
BLACK
6
CONTINUOUS
10
5.36751
20
-3.52554
11
5.3721
21
-3.5221
0
LINE
8
BLACK
6
CONTINUOUS
10
5.3721
20
-3.5221
11
5.37217
21
-3.52219
0
LINE
8
BLACK
6
CONTINUOUS
10
5.37217
20
-3.52219
11
5.3741
21
-3.52113
0
LINE
8
BLACK
6
CONTINUOUS
10
5.3741
20
-3.52113
11
5.37516
21
-3.52102
0
LINE
8
BLACK
6
CONTINUOUS
10
5.37516
20
-3.52102
11
5.45393
21
-3.52102
0
LINE
8
BLACK
6
CONTINUOUS
10
5.45393
20
-3.52102
11
5.45426
21
-3.52103
0
LINE
8
BLACK
6
CONTINUOUS
10
5.45426
20
-3.52103
11
5.45637
21
-3.52117
0
LINE
8
BLACK
6
CONTINUOUS
10
5.45637
20
-3.52117
11
5.45667
21
-3.52112
0
LINE
8
BLACK
6
CONTINUOUS
10
5.45667
20
-3.52112
11
5.45667
21
-3.52112
0
LINE
8
BLACK
6
CONTINUOUS
10
5.45667
20
-3.52112
11
5.45766
21
-3.52095
0
LINE
8
BLACK
6
CONTINUOUS
10
5.45766
20
-3.52095
11
5.45868
21
-3.52077
0
LINE
8
BLACK
6
CONTINUOUS
10
5.45868
20
-3.52077
11
5.45893
21
-3.52074
0
LINE
8
BLACK
6
CONTINUOUS
10
5.45893
20
-3.52074
11
5.45965
21
-3.52065
0
LINE
8
BLACK
6
CONTINUOUS
10
5.45965
20
-3.52065
11
5.46096
21
-3.52049
0
LINE
8
BLACK
6
CONTINUOUS
10
5.46096
20
-3.52049
11
5.46096
21
-3.52049
0
LINE
8
BLACK
6
CONTINUOUS
10
5.46096
20
-3.52049
11
5.46125
21
-3.52045
0
LINE
8
BLACK
6
CONTINUOUS
10
5.46125
20
-3.52045
11
5.46153
21
-3.52035
0
LINE
8
BLACK
6
CONTINUOUS
10
5.46153
20
-3.52035
11
5.46181
21
-3.52028
0
LINE
8
BLACK
6
CONTINUOUS
10
5.46181
20
-3.52028
11
5.46201
21
-3.52023
0
LINE
8
BLACK
6
CONTINUOUS
10
5.46201
20
-3.52023
11
5.46228
21
-3.52014
0
LINE
8
BLACK
6
CONTINUOUS
10
5.46228
20
-3.52014
11
5.46258
21
-3.52009
0
LINE
8
BLACK
6
CONTINUOUS
10
5.46258
20
-3.52009
11
5.46472
21
-3.51915
0
LINE
8
BLACK
6
CONTINUOUS
10
5.46472
20
-3.51915
11
5.46496
21
-3.51905
0
LINE
8
BLACK
6
CONTINUOUS
10
5.46496
20
-3.51905
11
5.46686
21
-3.51833
0
LINE
8
BLACK
6
CONTINUOUS
10
5.46686
20
-3.51833
11
5.46686
21
-3.51833
0
LINE
8
BLACK
6
CONTINUOUS
10
5.46686
20
-3.51833
11
5.46714
21
-3.51823
0
LINE
8
BLACK
6
CONTINUOUS
10
5.46714
20
-3.51823
11
5.46739
21
-3.51806
0
LINE
8
BLACK
6
CONTINUOUS
10
5.46739
20
-3.51806
11
5.46764
21
-3.51793
0
LINE
8
BLACK
6
CONTINUOUS
10
5.46764
20
-3.51793
11
5.46783
21
-3.51782
0
LINE
8
BLACK
6
CONTINUOUS
10
5.46783
20
-3.51782
11
5.46807
21
-3.51768
0
LINE
8
BLACK
6
CONTINUOUS
10
5.46807
20
-3.51768
11
5.46834
21
-3.51756
0
LINE
8
BLACK
6
CONTINUOUS
10
5.46834
20
-3.51756
11
5.4702
21
-3.51614
0
LINE
8
BLACK
6
CONTINUOUS
10
5.4702
20
-3.51614
11
5.47041
21
-3.51599
0
LINE
8
BLACK
6
CONTINUOUS
10
5.47041
20
-3.51599
11
5.47088
21
-3.51566
0
LINE
8
BLACK
6
CONTINUOUS
10
5.47088
20
-3.51566
11
5.47233
21
-3.51466
0
LINE
8
BLACK
6
CONTINUOUS
10
5.47233
20
-3.51466
11
5.47385
21
-3.51296
0
LINE
8
BLACK
6
CONTINUOUS
10
5.47385
20
-3.51296
11
5.47404
21
-3.51275
0
LINE
8
BLACK
6
CONTINUOUS
10
5.47404
20
-3.51275
11
5.4868
21
-3.5
0
LINE
8
BLACK
6
CONTINUOUS
10
5.4868
20
-3.5
11
5.49958
21
-3.48722
0
LINE
8
BLACK
6
CONTINUOUS
10
5.49958
20
-3.48722
11
5.50203
21
-3.48588
0
LINE
8
BLACK
6
CONTINUOUS
10
5.50203
20
-3.48588
11
5.50308
21
-3.48577
0
LINE
8
BLACK
6
CONTINUOUS
10
5.50308
20
-3.48577
11
5.50376
21
-3.48577
0
LINE
8
BLACK
6
CONTINUOUS
10
5.50376
20
-3.48577
11
5.50401
21
-3.48571
0
LINE
8
BLACK
6
CONTINUOUS
10
5.50401
20
-3.48571
11
5.50401
21
-3.48571
0
LINE
8
BLACK
6
CONTINUOUS
10
5.50401
20
-3.48571
11
5.50744
21
-3.48499
0
LINE
8
BLACK
6
CONTINUOUS
10
5.50744
20
-3.48499
11
5.51111
21
-3.4842
0
LINE
8
BLACK
6
CONTINUOUS
10
5.51111
20
-3.4842
11
5.51135
21
-3.4841
0
LINE
8
BLACK
6
CONTINUOUS
10
5.51135
20
-3.4841
11
5.51774
21
-3.48125
0
LINE
8
BLACK
6
CONTINUOUS
10
5.51774
20
-3.48125
11
5.51775
21
-3.48125
0
LINE
8
BLACK
6
CONTINUOUS
10
5.51775
20
-3.48125
11
5.51798
21
-3.48115
0
LINE
8
BLACK
6
CONTINUOUS
10
5.51798
20
-3.48115
11
5.52407
21
-3.47673
0
LINE
8
BLACK
6
CONTINUOUS
10
5.52407
20
-3.47673
11
5.5291
21
-3.47114
0
LINE
8
BLACK
6
CONTINUOUS
10
5.5291
20
-3.47114
11
5.53286
21
-3.46463
0
LINE
8
BLACK
6
CONTINUOUS
10
5.53286
20
-3.46463
11
5.53518
21
-3.45748
0
LINE
8
BLACK
6
CONTINUOUS
10
5.53518
20
-3.45748
11
5.53596
21
-3.45
0
LINE
8
BLACK
6
CONTINUOUS
10
5.53596
20
-3.45
11
5.53518
21
-3.44252
0
LINE
8
BLACK
6
CONTINUOUS
10
5.53518
20
-3.44252
11
5.53286
21
-3.43537
0
LINE
8
BLACK
6
CONTINUOUS
10
5.53286
20
-3.43537
11
5.5291
21
-3.42886
0
LINE
8
BLACK
6
CONTINUOUS
10
5.5291
20
-3.42886
11
5.52407
21
-3.42327
0
LINE
8
BLACK
6
CONTINUOUS
10
5.52407
20
-3.42327
11
5.51798
21
-3.41885
0
LINE
8
BLACK
6
CONTINUOUS
10
5.51798
20
-3.41885
11
5.51775
21
-3.41875
0
LINE
8
BLACK
6
CONTINUOUS
10
5.51775
20
-3.41875
11
5.51774
21
-3.41875
0
LINE
8
BLACK
6
CONTINUOUS
10
5.51774
20
-3.41875
11
5.51135
21
-3.4159
0
LINE
8
BLACK
6
CONTINUOUS
10
5.51135
20
-3.4159
11
5.51135
21
-3.4159
0
LINE
8
BLACK
6
CONTINUOUS
10
5.51135
20
-3.4159
11
5.51111
21
-3.4158
0
LINE
8
BLACK
6
CONTINUOUS
10
5.51111
20
-3.4158
11
5.50391
21
-3.41426
0
LINE
8
BLACK
6
CONTINUOUS
10
5.50391
20
-3.41426
11
5.50391
21
-3.41426
0
LINE
8
BLACK
6
CONTINUOUS
10
5.50391
20
-3.41426
11
5.50376
21
-3.41423
0
LINE
8
BLACK
6
CONTINUOUS
10
5.50376
20
-3.41423
11
5.50377
21
-3.4142
0
LINE
8
BLACK
6
CONTINUOUS
10
5.50377
20
-3.4142
11
5.50136
21
-3.41322
0
LINE
8
BLACK
6
CONTINUOUS
10
5.50136
20
-3.41322
11
5.49976
21
-3.41092
0
LINE
8
BLACK
6
CONTINUOUS
10
5.49976
20
-3.41092
11
5.49966
21
-3.40813
0
LINE
8
BLACK
6
CONTINUOUS
10
5.49966
20
-3.40813
11
5.50096
21
-3.40584
0
LINE
8
BLACK
6
CONTINUOUS
10
5.50096
20
-3.40584
11
5.55372
21
-3.35308
0
LINE
8
BLACK
6
CONTINUOUS
10
5.55372
20
-3.35308
11
5.55617
21
-3.35174
0
LINE
8
BLACK
6
CONTINUOUS
10
5.55617
20
-3.35174
11
5.55896
21
-3.35194
0
LINE
8
BLACK
6
CONTINUOUS
10
5.55896
20
-3.35194
11
5.5612
21
-3.35362
0
LINE
8
BLACK
6
CONTINUOUS
10
5.5612
20
-3.35362
11
5.56217
21
-3.35623
0
LINE
8
BLACK
6
CONTINUOUS
10
5.56217
20
-3.35623
11
5.56219
21
-3.35659
0
LINE
8
BLACK
6
CONTINUOUS
10
5.56219
20
-3.35659
11
5.56219
21
-3.35969
0
LINE
8
BLACK
6
CONTINUOUS
10
5.56219
20
-3.35969
11
5.56245
21
-3.36214
0
LINE
8
BLACK
6
CONTINUOUS
10
5.56245
20
-3.36214
11
5.56256
21
-3.36243
0
LINE
8
BLACK
6
CONTINUOUS
10
5.56256
20
-3.36243
11
5.56393
21
-3.36608
0
LINE
8
BLACK
6
CONTINUOUS
10
5.56393
20
-3.36608
11
5.56446
21
-3.36751
0
LINE
8
BLACK
6
CONTINUOUS
10
5.56446
20
-3.36751
11
5.5646
21
-3.36768
0
LINE
8
BLACK
6
CONTINUOUS
10
5.5646
20
-3.36768
11
5.56518
21
-3.37035
0
LINE
8
BLACK
6
CONTINUOUS
10
5.56518
20
-3.37035
11
5.5646
21
-3.37231
0
LINE
8
BLACK
6
CONTINUOUS
10
5.5646
20
-3.37231
11
5.56446
21
-3.37249
0
LINE
8
BLACK
6
CONTINUOUS
10
5.56446
20
-3.37249
11
5.56434
21
-3.37282
0
LINE
8
BLACK
6
CONTINUOUS
10
5.56434
20
-3.37282
11
5.56434
21
-3.37282
0
LINE
8
BLACK
6
CONTINUOUS
10
5.56434
20
-3.37282
11
5.56315
21
-3.376
0
LINE
8
BLACK
6
CONTINUOUS
10
5.56315
20
-3.376
11
5.56245
21
-3.37786
0
LINE
8
BLACK
6
CONTINUOUS
10
5.56245
20
-3.37786
11
5.56219
21
-3.38031
0
LINE
8
BLACK
6
CONTINUOUS
10
5.56219
20
-3.38031
11
5.56219
21
-3.40969
0
LINE
8
BLACK
6
CONTINUOUS
10
5.56219
20
-3.40969
11
5.56245
21
-3.41214
0
LINE
8
BLACK
6
CONTINUOUS
10
5.56245
20
-3.41214
11
5.56315
21
-3.414
0
LINE
8
BLACK
6
CONTINUOUS
10
5.56315
20
-3.414
11
5.56386
21
-3.4159
0
LINE
8
BLACK
6
CONTINUOUS
10
5.56386
20
-3.4159
11
5.56446
21
-3.41751
0
LINE
8
BLACK
6
CONTINUOUS
10
5.56446
20
-3.41751
11
5.5646
21
-3.41768
0
LINE
8
BLACK
6
CONTINUOUS
10
5.5646
20
-3.41768
11
5.56518
21
-3.42035
0
LINE
8
BLACK
6
CONTINUOUS
10
5.56518
20
-3.42035
11
5.5646
21
-3.42231
0
LINE
8
BLACK
6
CONTINUOUS
10
5.5646
20
-3.42231
11
5.56446
21
-3.42249
0
LINE
8
BLACK
6
CONTINUOUS
10
5.56446
20
-3.42249
11
5.56434
21
-3.42282
0
LINE
8
BLACK
6
CONTINUOUS
10
5.56434
20
-3.42282
11
5.56434
21
-3.42282
0
LINE
8
BLACK
6
CONTINUOUS
10
5.56434
20
-3.42282
11
5.56355
21
-3.42493
0
LINE
8
BLACK
6
CONTINUOUS
10
5.56355
20
-3.42493
11
5.56245
21
-3.42786
0
LINE
8
BLACK
6
CONTINUOUS
10
5.56245
20
-3.42786
11
5.56219
21
-3.43031
0
LINE
8
BLACK
6
CONTINUOUS
10
5.56219
20
-3.43031
11
5.56219
21
-3.45969
0
LINE
8
BLACK
6
CONTINUOUS
10
5.56219
20
-3.45969
11
5.56245
21
-3.46214
0
LINE
8
BLACK
6
CONTINUOUS
10
5.56245
20
-3.46214
11
5.56446
21
-3.46751
0
LINE
8
BLACK
6
CONTINUOUS
10
5.56446
20
-3.46751
11
5.5646
21
-3.46768
0
LINE
8
BLACK
6
CONTINUOUS
10
5.5646
20
-3.46768
11
5.56518
21
-3.47035
0
LINE
8
BLACK
6
CONTINUOUS
10
5.56518
20
-3.47035
11
5.5646
21
-3.47231
0
LINE
8
BLACK
6
CONTINUOUS
10
5.5646
20
-3.47231
11
5.56446
21
-3.47249
0
LINE
8
BLACK
6
CONTINUOUS
10
5.56446
20
-3.47249
11
5.56245
21
-3.47786
0
LINE
8
BLACK
6
CONTINUOUS
10
5.56245
20
-3.47786
11
5.56219
21
-3.48031
0
LINE
8
BLACK
6
CONTINUOUS
10
5.56219
20
-3.48031
11
5.56219
21
-3.50969
0
LINE
8
BLACK
6
CONTINUOUS
10
5.56219
20
-3.50969
11
5.56245
21
-3.51214
0
LINE
8
BLACK
6
CONTINUOUS
10
5.56245
20
-3.51214
11
5.56446
21
-3.51751
0
LINE
8
BLACK
6
CONTINUOUS
10
5.56446
20
-3.51751
11
5.5679
21
-3.5221
0
LINE
8
BLACK
6
CONTINUOUS
10
5.5679
20
-3.5221
11
5.56819
21
-3.52231
0
LINE
8
BLACK
6
CONTINUOUS
10
5.56819
20
-3.52231
11
5.56819
21
-3.52231
0
LINE
8
BLACK
6
CONTINUOUS
10
5.56819
20
-3.52231
11
5.56875
21
-3.52273
0
LINE
8
BLACK
6
CONTINUOUS
10
5.56875
20
-3.52273
11
5.57042
21
-3.52497
0
LINE
8
BLACK
6
CONTINUOUS
10
5.57042
20
-3.52497
11
5.57062
21
-3.52776
0
LINE
8
BLACK
6
CONTINUOUS
10
5.57062
20
-3.52776
11
5.56928
21
-3.53021
0
LINE
8
BLACK
6
CONTINUOUS
10
5.56928
20
-3.53021
11
5.56682
21
-3.53155
0
LINE
8
BLACK
6
CONTINUOUS
10
5.56682
20
-3.53155
11
5.56628
21
-3.53163
0
LINE
8
BLACK
6
CONTINUOUS
10
5.56628
20
-3.53163
11
5.56428
21
-3.53184
0
LINE
8
BLACK
6
CONTINUOUS
10
5.56428
20
-3.53184
11
5.56428
21
-3.53184
0
LINE
8
BLACK
6
CONTINUOUS
10
5.56428
20
-3.53184
11
5.56401
21
-3.53187
0
LINE
8
BLACK
6
CONTINUOUS
10
5.56401
20
-3.53187
11
5.56375
21
-3.53195
0
LINE
8
BLACK
6
CONTINUOUS
10
5.56375
20
-3.53195
11
5.56375
21
-3.53195
0
LINE
8
BLACK
6
CONTINUOUS
10
5.56375
20
-3.53195
11
5.55855
21
-3.53369
0
LINE
8
BLACK
6
CONTINUOUS
10
5.55855
20
-3.53369
11
5.5574
21
-3.53407
0
LINE
8
BLACK
6
CONTINUOUS
10
5.5574
20
-3.53407
11
5.55148
21
-3.53774
0
LINE
8
BLACK
6
CONTINUOUS
10
5.55148
20
-3.53774
11
5.54656
21
-3.54267
0
LINE
8
BLACK
6
CONTINUOUS
10
5.54656
20
-3.54267
11
5.54645
21
-3.54284
0
LINE
8
BLACK
6
CONTINUOUS
10
5.54645
20
-3.54284
11
5.5442
21
-3.54444
0
LINE
8
BLACK
6
CONTINUOUS
10
5.5442
20
-3.54444
11
5.54141
21
-3.54457
0
LINE
8
BLACK
6
CONTINUOUS
10
5.54141
20
-3.54457
11
5.53899
21
-3.54317
0
LINE
8
BLACK
6
CONTINUOUS
10
5.53899
20
-3.54317
11
5.5387
21
-3.54283
0
LINE
8
BLACK
6
CONTINUOUS
10
5.5387
20
-3.54283
11
5.53838
21
-3.54243
0
LINE
8
BLACK
6
CONTINUOUS
10
5.53838
20
-3.54243
11
5.53386
21
-3.53792
0
LINE
8
BLACK
6
CONTINUOUS
10
5.53386
20
-3.53792
11
5.53342
21
-3.53757
0
LINE
8
BLACK
6
CONTINUOUS
10
5.53342
20
-3.53757
11
5.52798
21
-3.53422
0
LINE
8
BLACK
6
CONTINUOUS
10
5.52798
20
-3.53422
11
5.52746
21
-3.53398
0
LINE
8
BLACK
6
CONTINUOUS
10
5.52746
20
-3.53398
11
5.52139
21
-3.53196
0
LINE
8
BLACK
6
CONTINUOUS
10
5.52139
20
-3.53196
11
5.52086
21
-3.53185
0
LINE
8
BLACK
6
CONTINUOUS
10
5.52086
20
-3.53185
11
5.51715
21
-3.53147
0
LINE
8
BLACK
6
CONTINUOUS
10
5.51715
20
-3.53147
11
5.5169
21
-3.53146
0
LINE
8
BLACK
6
CONTINUOUS
10
5.5169
20
-3.53146
11
5.51591
21
-3.53146
0
LINE
8
BLACK
6
CONTINUOUS
10
5.51591
20
-3.53146
11
5.51531
21
-3.53163
0
LINE
8
BLACK
6
CONTINUOUS
10
5.51531
20
-3.53163
11
5.51526
21
-3.53169
0
LINE
8
BLACK
6
CONTINUOUS
10
5.51526
20
-3.53169
11
5.5152
21
-3.53199
0
LINE
8
BLACK
6
CONTINUOUS
10
5.5152
20
-3.53199
11
5.5152
21
-3.55149
0
LINE
8
BLACK
6
CONTINUOUS
10
5.5152
20
-3.55149
11
5.51881
21
-3.55221
0
LINE
8
BLACK
6
CONTINUOUS
10
5.51881
20
-3.55221
11
5.522
21
-3.55434
0
LINE
8
BLACK
6
CONTINUOUS
10
5.522
20
-3.55434
11
5.52413
21
-3.55753
0
LINE
8
BLACK
6
CONTINUOUS
10
5.52413
20
-3.55753
11
5.52488
21
-3.5613
0
LINE
8
BLACK
6
CONTINUOUS
10
5.52488
20
-3.5613
11
5.52488
21
-3.5987
0
LINE
8
BLACK
6
CONTINUOUS
10
5.52488
20
-3.5987
11
5.52413
21
-3.60247
0
LINE
8
BLACK
6
CONTINUOUS
10
5.52413
20
-3.60247
11
5.522
21
-3.60566
0
LINE
8
BLACK
6
CONTINUOUS
10
5.522
20
-3.60566
11
5.51881
21
-3.60779
0
LINE
8
BLACK
6
CONTINUOUS
10
5.51881
20
-3.60779
11
5.5152
21
-3.60851
0
LINE
8
BLACK
6
CONTINUOUS
10
5.5152
20
-3.60851
11
5.5152
21
-3.62783
0
LINE
8
BLACK
6
CONTINUOUS
10
5.5152
20
-3.62783
11
5.51537
21
-3.62843
0
LINE
8
BLACK
6
CONTINUOUS
10
5.51537
20
-3.62843
11
5.51543
21
-3.62848
0
LINE
8
BLACK
6
CONTINUOUS
10
5.51543
20
-3.62848
11
5.51573
21
-3.62854
0
LINE
8
BLACK
6
CONTINUOUS
10
5.51573
20
-3.62854
11
5.51689
21
-3.62854
0
LINE
8
BLACK
6
CONTINUOUS
10
5.51689
20
-3.62854
11
5.51715
21
-3.62853
0
LINE
8
BLACK
6
CONTINUOUS
10
5.51715
20
-3.62853
11
5.51821
21
-3.62842
0
LINE
8
BLACK
6
CONTINUOUS
10
5.51821
20
-3.62842
11
5.52096
21
-3.62893
0
LINE
8
BLACK
6
CONTINUOUS
10
5.52096
20
-3.62893
11
5.523
21
-3.63084
0
LINE
8
BLACK
6
CONTINUOUS
10
5.523
20
-3.63084
11
5.52368
21
-3.63355
0
LINE
8
BLACK
6
CONTINUOUS
10
5.52368
20
-3.63355
11
5.52347
21
-3.63468
0
LINE
8
BLACK
6
CONTINUOUS
10
5.52347
20
-3.63468
11
5.52348
21
-3.63468
0
LINE
8
BLACK
6
CONTINUOUS
10
5.52348
20
-3.63468
11
5.52345
21
-3.63479
0
LINE
8
BLACK
6
CONTINUOUS
10
5.52345
20
-3.63479
11
5.52343
21
-3.63492
0
LINE
8
BLACK
6
CONTINUOUS
10
5.52343
20
-3.63492
11
5.52342
21
-3.63495
0
LINE
8
BLACK
6
CONTINUOUS
10
5.52342
20
-3.63495
11
5.52331
21
-3.63548
0
LINE
8
BLACK
6
CONTINUOUS
10
5.52331
20
-3.63548
11
5.52293
21
-3.63919
0
LINE
8
BLACK
6
CONTINUOUS
10
5.52293
20
-3.63919
11
5.52291
21
-3.63944
0
LINE
8
BLACK
6
CONTINUOUS
10
5.52291
20
-3.63944
11
5.52291
21
-3.64929
0
LINE
8
BLACK
6
CONTINUOUS
10
5.52291
20
-3.64929
11
5.52309
21
-3.64989
0
LINE
8
BLACK
6
CONTINUOUS
10
5.52309
20
-3.64989
11
5.52314
21
-3.64993
0
LINE
8
BLACK
6
CONTINUOUS
10
5.52314
20
-3.64993
11
5.52345
21
-3.65
0
LINE
8
BLACK
6
CONTINUOUS
10
5.52345
20
-3.65
11
5.54291
21
-3.65
0
LINE
8
BLACK
6
CONTINUOUS
10
5.54291
20
-3.65
11
5.54291
21
-3.6413
0
LINE
8
BLACK
6
CONTINUOUS
10
5.54291
20
-3.6413
11
5.54366
21
-3.63753
0
LINE
8
BLACK
6
CONTINUOUS
10
5.54366
20
-3.63753
11
5.5458
21
-3.63434
0
LINE
8
BLACK
6
CONTINUOUS
10
5.5458
20
-3.63434
11
5.54899
21
-3.63221
0
LINE
8
BLACK
6
CONTINUOUS
10
5.54899
20
-3.63221
11
5.55276
21
-3.63146
0
LINE
8
BLACK
6
CONTINUOUS
10
5.55276
20
-3.63146
11
5.57244
21
-3.63146
0
LINE
8
BLACK
6
CONTINUOUS
10
5.57244
20
-3.63146
11
5.57621
21
-3.63221
0
LINE
8
BLACK
6
CONTINUOUS
10
5.57621
20
-3.63221
11
5.5794
21
-3.63434
0
LINE
8
BLACK
6
CONTINUOUS
10
5.5794
20
-3.63434
11
5.58153
21
-3.63753
0
LINE
8
BLACK
6
CONTINUOUS
10
5.58153
20
-3.63753
11
5.58228
21
-3.6413
0
LINE
8
BLACK
6
CONTINUOUS
10
5.58228
20
-3.6413
11
5.58228
21
-3.6787
0
LINE
8
BLACK
6
CONTINUOUS
10
5.58228
20
-3.6787
11
5.58153
21
-3.68247
0
LINE
8
BLACK
6
CONTINUOUS
10
5.58153
20
-3.68247
11
5.5794
21
-3.68566
0
LINE
8
BLACK
6
CONTINUOUS
10
5.5794
20
-3.68566
11
5.57621
21
-3.68779
0
LINE
8
BLACK
6
CONTINUOUS
10
5.57621
20
-3.68779
11
5.5726
21
-3.68851
0
LINE
8
BLACK
6
CONTINUOUS
10
5.5726
20
-3.68851
11
5.5726
21
-3.70783
0
LINE
8
BLACK
6
CONTINUOUS
10
5.5726
20
-3.70783
11
5.57277
21
-3.70843
0
LINE
8
BLACK
6
CONTINUOUS
10
5.57277
20
-3.70843
11
5.57283
21
-3.70848
0
LINE
8
BLACK
6
CONTINUOUS
10
5.57283
20
-3.70848
11
5.57313
21
-3.70854
0
LINE
8
BLACK
6
CONTINUOUS
10
5.57313
20
-3.70854
11
5.5743
21
-3.70854
0
LINE
8
BLACK
6
CONTINUOUS
10
5.5743
20
-3.70854
11
5.57455
21
-3.70853
0
LINE
8
BLACK
6
CONTINUOUS
10
5.57455
20
-3.70853
11
5.57832
21
-3.70814
0
LINE
8
BLACK
6
CONTINUOUS
10
5.57832
20
-3.70814
11
5.57884
21
-3.70803
0
LINE
8
BLACK
6
CONTINUOUS
10
5.57884
20
-3.70803
11
5.58491
21
-3.706
0
LINE
8
BLACK
6
CONTINUOUS
10
5.58491
20
-3.706
11
5.58543
21
-3.70576
0
LINE
8
BLACK
6
CONTINUOUS
10
5.58543
20
-3.70576
11
5.59086
21
-3.7024
0
LINE
8
BLACK
6
CONTINUOUS
10
5.59086
20
-3.7024
11
5.59131
21
-3.70204
0
LINE
8
BLACK
6
CONTINUOUS
10
5.59131
20
-3.70204
11
5.59582
21
-3.69753
0
LINE
8
BLACK
6
CONTINUOUS
10
5.59582
20
-3.69753
11
5.59609
21
-3.69717
0
LINE
8
BLACK
6
CONTINUOUS
10
5.59609
20
-3.69717
11
5.59837
21
-3.69556
0
LINE
8
BLACK
6
CONTINUOUS
10
5.59837
20
-3.69556
11
5.60117
21
-3.69543
0
LINE
8
BLACK
6
CONTINUOUS
10
5.60117
20
-3.69543
11
5.60358
21
-3.69683
0
LINE
8
BLACK
6
CONTINUOUS
10
5.60358
20
-3.69683
11
5.60385
21
-3.69714
0
LINE
8
BLACK
6
CONTINUOUS
10
5.60385
20
-3.69714
11
5.604
21
-3.69738
0
LINE
8
BLACK
6
CONTINUOUS
10
5.604
20
-3.69738
11
5.60893
21
-3.7023
0
LINE
8
BLACK
6
CONTINUOUS
10
5.60893
20
-3.7023
11
5.60917
21
-3.70245
0
LINE
8
BLACK
6
CONTINUOUS
10
5.60917
20
-3.70245
11
5.60917
21
-3.70245
0
LINE
8
BLACK
6
CONTINUOUS
10
5.60917
20
-3.70245
11
5.61458
21
-3.70578
0
LINE
8
BLACK
6
CONTINUOUS
10
5.61458
20
-3.70578
11
5.61485
21
-3.70595
0
LINE
8
BLACK
6
CONTINUOUS
10
5.61485
20
-3.70595
11
5.61799
21
-3.70699
0
LINE
8
BLACK
6
CONTINUOUS
10
5.61799
20
-3.70699
11
5.62121
21
-3.70806
0
LINE
8
BLACK
6
CONTINUOUS
10
5.62121
20
-3.70806
11
5.62121
21
-3.70806
0
LINE
8
BLACK
6
CONTINUOUS
10
5.62121
20
-3.70806
11
5.62146
21
-3.70814
0
LINE
8
BLACK
6
CONTINUOUS
10
5.62146
20
-3.70814
11
5.62173
21
-3.70817
0
LINE
8
BLACK
6
CONTINUOUS
10
5.62173
20
-3.70817
11
5.62173
21
-3.70817
0
LINE
8
BLACK
6
CONTINUOUS
10
5.62173
20
-3.70817
11
5.62343
21
-3.70834
0
LINE
8
BLACK
6
CONTINUOUS
10
5.62343
20
-3.70834
11
5.62557
21
-3.70856
0
LINE
8
BLACK
6
CONTINUOUS
10
5.62557
20
-3.70856
11
5.64923
21
-3.70856
0
LINE
8
BLACK
6
CONTINUOUS
10
5.64923
20
-3.70856
11
5.64936
21
-3.70855
0
LINE
8
BLACK
6
CONTINUOUS
10
5.64936
20
-3.70855
11
5.64936
21
-3.70855
0
LINE
8
BLACK
6
CONTINUOUS
10
5.64936
20
-3.70855
11
5.65312
21
-3.70816
0
LINE
8
BLACK
6
CONTINUOUS
10
5.65312
20
-3.70816
11
5.65312
21
-3.70816
0
LINE
8
BLACK
6
CONTINUOUS
10
5.65312
20
-3.70816
11
5.65339
21
-3.70813
0
LINE
8
BLACK
6
CONTINUOUS
10
5.65339
20
-3.70813
11
5.65365
21
-3.70805
0
LINE
8
BLACK
6
CONTINUOUS
10
5.65365
20
-3.70805
11
5.65365
21
-3.70805
0
LINE
8
BLACK
6
CONTINUOUS
10
5.65365
20
-3.70805
11
5.65885
21
-3.70631
0
LINE
8
BLACK
6
CONTINUOUS
10
5.65885
20
-3.70631
11
5.66
21
-3.70593
0
LINE
8
BLACK
6
CONTINUOUS
10
5.66
20
-3.70593
11
5.66592
21
-3.70226
0
LINE
8
BLACK
6
CONTINUOUS
10
5.66592
20
-3.70226
11
5.67084
21
-3.69733
0
LINE
8
BLACK
6
CONTINUOUS
10
5.67084
20
-3.69733
11
5.67449
21
-3.69141
0
LINE
8
BLACK
6
CONTINUOUS
10
5.67449
20
-3.69141
11
5.67515
21
-3.68942
0
LINE
8
BLACK
6
CONTINUOUS
10
5.67515
20
-3.68942
11
5.67674
21
-3.68712
0
LINE
8
BLACK
6
CONTINUOUS
10
5.67674
20
-3.68712
11
5.67933
21
-3.68605
0
LINE
8
BLACK
6
CONTINUOUS
10
5.67933
20
-3.68605
11
5.67986
21
-3.68602
0
LINE
8
BLACK
6
CONTINUOUS
10
5.67986
20
-3.68602
11
5.68893
21
-3.68602
0
LINE
8
BLACK
6
CONTINUOUS
10
5.68893
20
-3.68602
11
5.68926
21
-3.68603
0
LINE
8
BLACK
6
CONTINUOUS
10
5.68926
20
-3.68603
11
5.69137
21
-3.68617
0
LINE
8
BLACK
6
CONTINUOUS
10
5.69137
20
-3.68617
11
5.69167
21
-3.68612
0
LINE
8
BLACK
6
CONTINUOUS
10
5.69167
20
-3.68612
11
5.69167
21
-3.68612
0
LINE
8
BLACK
6
CONTINUOUS
10
5.69167
20
-3.68612
11
5.69266
21
-3.68595
0
LINE
8
BLACK
6
CONTINUOUS
10
5.69266
20
-3.68595
11
5.69368
21
-3.68577
0
LINE
8
BLACK
6
CONTINUOUS
10
5.69368
20
-3.68577
11
5.69393
21
-3.68574
0
LINE
8
BLACK
6
CONTINUOUS
10
5.69393
20
-3.68574
11
5.69465
21
-3.68565
0
LINE
8
BLACK
6
CONTINUOUS
10
5.69465
20
-3.68565
11
5.69596
21
-3.68549
0
LINE
8
BLACK
6
CONTINUOUS
10
5.69596
20
-3.68549
11
5.69596
21
-3.68549
0
LINE
8
BLACK
6
CONTINUOUS
10
5.69596
20
-3.68549
11
5.69625
21
-3.68545
0
LINE
8
BLACK
6
CONTINUOUS
10
5.69625
20
-3.68545
11
5.69653
21
-3.68535
0
LINE
8
BLACK
6
CONTINUOUS
10
5.69653
20
-3.68535
11
5.69681
21
-3.68528
0
LINE
8
BLACK
6
CONTINUOUS
10
5.69681
20
-3.68528
11
5.69701
21
-3.68523
0
LINE
8
BLACK
6
CONTINUOUS
10
5.69701
20
-3.68523
11
5.69728
21
-3.68514
0
LINE
8
BLACK
6
CONTINUOUS
10
5.69728
20
-3.68514
11
5.69758
21
-3.68509
0
LINE
8
BLACK
6
CONTINUOUS
10
5.69758
20
-3.68509
11
5.69972
21
-3.68415
0
LINE
8
BLACK
6
CONTINUOUS
10
5.69972
20
-3.68415
11
5.69996
21
-3.68405
0
LINE
8
BLACK
6
CONTINUOUS
10
5.69996
20
-3.68405
11
5.70186
21
-3.68333
0
LINE
8
BLACK
6
CONTINUOUS
10
5.70186
20
-3.68333
11
5.70186
21
-3.68333
0
LINE
8
BLACK
6
CONTINUOUS
10
5.70186
20
-3.68333
11
5.70214
21
-3.68323
0
LINE
8
BLACK
6
CONTINUOUS
10
5.70214
20
-3.68323
11
5.70239
21
-3.68306
0
LINE
8
BLACK
6
CONTINUOUS
10
5.70239
20
-3.68306
11
5.70264
21
-3.68293
0
LINE
8
BLACK
6
CONTINUOUS
10
5.70264
20
-3.68293
11
5.70283
21
-3.68282
0
LINE
8
BLACK
6
CONTINUOUS
10
5.70283
20
-3.68282
11
5.70307
21
-3.68268
0
LINE
8
BLACK
6
CONTINUOUS
10
5.70307
20
-3.68268
11
5.70334
21
-3.68256
0
LINE
8
BLACK
6
CONTINUOUS
10
5.70334
20
-3.68256
11
5.7052
21
-3.68114
0
LINE
8
BLACK
6
CONTINUOUS
10
5.7052
20
-3.68114
11
5.70541
21
-3.68099
0
LINE
8
BLACK
6
CONTINUOUS
10
5.70541
20
-3.68099
11
5.70566
21
-3.68081
0
LINE
8
BLACK
6
CONTINUOUS
10
5.70566
20
-3.68081
11
5.70733
21
-3.67966
0
LINE
8
BLACK
6
CONTINUOUS
10
5.70733
20
-3.67966
11
5.70885
21
-3.67796
0
LINE
8
BLACK
6
CONTINUOUS
10
5.70885
20
-3.67796
11
5.70904
21
-3.67775
0
LINE
8
BLACK
6
CONTINUOUS
10
5.70904
20
-3.67775
11
5.73932
21
-3.64747
0
LINE
8
BLACK
6
CONTINUOUS
10
5.73932
20
-3.64747
11
5.74178
21
-3.64613
0
LINE
8
BLACK
6
CONTINUOUS
10
5.74178
20
-3.64613
11
5.74283
21
-3.64602
0
LINE
8
BLACK
6
CONTINUOUS
10
5.74283
20
-3.64602
11
5.87893
21
-3.64602
0
LINE
8
BLACK
6
CONTINUOUS
10
5.87893
20
-3.64602
11
5.87926
21
-3.64603
0
LINE
8
BLACK
6
CONTINUOUS
10
5.87926
20
-3.64603
11
5.88137
21
-3.64617
0
LINE
8
BLACK
6
CONTINUOUS
10
5.88137
20
-3.64617
11
5.88167
21
-3.64612
0
LINE
8
BLACK
6
CONTINUOUS
10
5.88167
20
-3.64612
11
5.88167
21
-3.64612
0
LINE
8
BLACK
6
CONTINUOUS
10
5.88167
20
-3.64612
11
5.88266
21
-3.64595
0
LINE
8
BLACK
6
CONTINUOUS
10
5.88266
20
-3.64595
11
5.88368
21
-3.64577
0
LINE
8
BLACK
6
CONTINUOUS
10
5.88368
20
-3.64577
11
5.88393
21
-3.64574
0
LINE
8
BLACK
6
CONTINUOUS
10
5.88393
20
-3.64574
11
5.88465
21
-3.64565
0
LINE
8
BLACK
6
CONTINUOUS
10
5.88465
20
-3.64565
11
5.88596
21
-3.64549
0
LINE
8
BLACK
6
CONTINUOUS
10
5.88596
20
-3.64549
11
5.88596
21
-3.64549
0
LINE
8
BLACK
6
CONTINUOUS
10
5.88596
20
-3.64549
11
5.88625
21
-3.64545
0
LINE
8
BLACK
6
CONTINUOUS
10
5.88625
20
-3.64545
11
5.88653
21
-3.64535
0
LINE
8
BLACK
6
CONTINUOUS
10
5.88653
20
-3.64535
11
5.88681
21
-3.64528
0
LINE
8
BLACK
6
CONTINUOUS
10
5.88681
20
-3.64528
11
5.88701
21
-3.64523
0
LINE
8
BLACK
6
CONTINUOUS
10
5.88701
20
-3.64523
11
5.88728
21
-3.64514
0
LINE
8
BLACK
6
CONTINUOUS
10
5.88728
20
-3.64514
11
5.88758
21
-3.64509
0
LINE
8
BLACK
6
CONTINUOUS
10
5.88758
20
-3.64509
11
5.88972
21
-3.64415
0
LINE
8
BLACK
6
CONTINUOUS
10
5.88972
20
-3.64415
11
5.88996
21
-3.64405
0
LINE
8
BLACK
6
CONTINUOUS
10
5.88996
20
-3.64405
11
5.89186
21
-3.64333
0
LINE
8
BLACK
6
CONTINUOUS
10
5.89186
20
-3.64333
11
5.89186
21
-3.64333
0
LINE
8
BLACK
6
CONTINUOUS
10
5.89186
20
-3.64333
11
5.89214
21
-3.64323
0
LINE
8
BLACK
6
CONTINUOUS
10
5.89214
20
-3.64323
11
5.89239
21
-3.64306
0
LINE
8
BLACK
6
CONTINUOUS
10
5.89239
20
-3.64306
11
5.89264
21
-3.64293
0
LINE
8
BLACK
6
CONTINUOUS
10
5.89264
20
-3.64293
11
5.89283
21
-3.64282
0
LINE
8
BLACK
6
CONTINUOUS
10
5.89283
20
-3.64282
11
5.89307
21
-3.64268
0
LINE
8
BLACK
6
CONTINUOUS
10
5.89307
20
-3.64268
11
5.89334
21
-3.64256
0
LINE
8
BLACK
6
CONTINUOUS
10
5.89334
20
-3.64256
11
5.8952
21
-3.64114
0
LINE
8
BLACK
6
CONTINUOUS
10
5.8952
20
-3.64114
11
5.89541
21
-3.64099
0
LINE
8
BLACK
6
CONTINUOUS
10
5.89541
20
-3.64099
11
5.89733
21
-3.63966
0
LINE
8
BLACK
6
CONTINUOUS
10
5.89733
20
-3.63966
11
5.89885
21
-3.63796
0
LINE
8
BLACK
6
CONTINUOUS
10
5.89885
20
-3.63796
11
5.89905
21
-3.63775
0
LINE
8
BLACK
6
CONTINUOUS
10
5.89905
20
-3.63775
11
5.92764
21
-3.60916
0
LINE
8
BLACK
6
CONTINUOUS
10
5.92764
20
-3.60916
11
5.92789
21
-3.60893
0
LINE
8
BLACK
6
CONTINUOUS
10
5.92789
20
-3.60893
11
5.92925
21
-3.60774
0
LINE
8
BLACK
6
CONTINUOUS
10
5.92925
20
-3.60774
11
5.92948
21
-3.60754
0
LINE
8
BLACK
6
CONTINUOUS
10
5.92948
20
-3.60754
11
5.93082
21
-3.60563
0
LINE
8
BLACK
6
CONTINUOUS
10
5.93082
20
-3.60563
11
5.93098
21
-3.60542
0
LINE
8
BLACK
6
CONTINUOUS
10
5.93098
20
-3.60542
11
5.93224
21
-3.60381
0
LINE
8
BLACK
6
CONTINUOUS
10
5.93224
20
-3.60381
11
5.93242
21
-3.60358
0
LINE
8
BLACK
6
CONTINUOUS
10
5.93242
20
-3.60358
11
5.93254
21
-3.60331
0
LINE
8
BLACK
6
CONTINUOUS
10
5.93254
20
-3.60331
11
5.93269
21
-3.60306
0
LINE
8
BLACK
6
CONTINUOUS
10
5.93269
20
-3.60306
11
5.93279
21
-3.60288
0
LINE
8
BLACK
6
CONTINUOUS
10
5.93279
20
-3.60288
11
5.93293
21
-3.60263
0
LINE
8
BLACK
6
CONTINUOUS
10
5.93293
20
-3.60263
11
5.9331
21
-3.60239
0
LINE
8
BLACK
6
CONTINUOUS
10
5.9331
20
-3.60239
11
5.93395
21
-3.60021
0
LINE
8
BLACK
6
CONTINUOUS
10
5.93395
20
-3.60021
11
5.93405
21
-3.59997
0
LINE
8
BLACK
6
CONTINUOUS
10
5.93405
20
-3.59997
11
5.93415
21
-3.59976
0
LINE
8
BLACK
6
CONTINUOUS
10
5.93415
20
-3.59976
11
5.93501
21
-3.59784
0
LINE
8
BLACK
6
CONTINUOUS
10
5.93501
20
-3.59784
11
5.93507
21
-3.59754
0
LINE
8
BLACK
6
CONTINUOUS
10
5.93507
20
-3.59754
11
5.93515
21
-3.59727
0
LINE
8
BLACK
6
CONTINUOUS
10
5.93515
20
-3.59727
11
5.93521
21
-3.59707
0
LINE
8
BLACK
6
CONTINUOUS
10
5.93521
20
-3.59707
11
5.93528
21
-3.5968
0
LINE
8
BLACK
6
CONTINUOUS
10
5.93528
20
-3.5968
11
5.93539
21
-3.59652
0
LINE
8
BLACK
6
CONTINUOUS
10
5.93539
20
-3.59652
11
5.93569
21
-3.5942
0
LINE
8
BLACK
6
CONTINUOUS
10
5.93569
20
-3.5942
11
5.93573
21
-3.59394
0
LINE
8
BLACK
6
CONTINUOUS
10
5.93573
20
-3.59394
11
5.9361
21
-3.59194
0
LINE
8
BLACK
6
CONTINUOUS
10
5.9361
20
-3.59194
11
5.9361
21
-3.59194
0
LINE
8
BLACK
6
CONTINUOUS
10
5.9361
20
-3.59194
11
5.93616
21
-3.59165
0
LINE
8
BLACK
6
CONTINUOUS
10
5.93616
20
-3.59165
11
5.93603
21
-3.58937
0
LINE
8
BLACK
6
CONTINUOUS
10
5.93603
20
-3.58937
11
5.93602
21
-3.58909
0
LINE
8
BLACK
6
CONTINUOUS
10
5.93602
20
-3.58909
11
5.93602
21
-3.31107
0
LINE
8
BLACK
6
CONTINUOUS
10
5.93602
20
-3.31107
11
5.93603
21
-3.31074
0
LINE
8
BLACK
6
CONTINUOUS
10
5.93603
20
-3.31074
11
5.93615
21
-3.30893
0
LINE
8
BLACK
6
CONTINUOUS
10
5.93615
20
-3.30893
11
5.93615
21
-3.30893
0
LINE
8
BLACK
6
CONTINUOUS
10
5.93615
20
-3.30893
11
5.93617
21
-3.30863
0
LINE
8
BLACK
6
CONTINUOUS
10
5.93617
20
-3.30863
11
5.93577
21
-3.30633
0
LINE
8
BLACK
6
CONTINUOUS
10
5.93577
20
-3.30633
11
5.93574
21
-3.30607
0
LINE
8
BLACK
6
CONTINUOUS
10
5.93574
20
-3.30607
11
5.93549
21
-3.30404
0
LINE
8
BLACK
6
CONTINUOUS
10
5.93549
20
-3.30404
11
5.93549
21
-3.30404
0
LINE
8
BLACK
6
CONTINUOUS
10
5.93549
20
-3.30404
11
5.93545
21
-3.30375
0
LINE
8
BLACK
6
CONTINUOUS
10
5.93545
20
-3.30375
11
5.93535
21
-3.30347
0
LINE
8
BLACK
6
CONTINUOUS
10
5.93535
20
-3.30347
11
5.93528
21
-3.30319
0
LINE
8
BLACK
6
CONTINUOUS
10
5.93528
20
-3.30319
11
5.93523
21
-3.30299
0
LINE
8
BLACK
6
CONTINUOUS
10
5.93523
20
-3.30299
11
5.93514
21
-3.30272
0
LINE
8
BLACK
6
CONTINUOUS
10
5.93514
20
-3.30272
11
5.93509
21
-3.30242
0
LINE
8
BLACK
6
CONTINUOUS
10
5.93509
20
-3.30242
11
5.93415
21
-3.30028
0
LINE
8
BLACK
6
CONTINUOUS
10
5.93415
20
-3.30028
11
5.93405
21
-3.30004
0
LINE
8
BLACK
6
CONTINUOUS
10
5.93405
20
-3.30004
11
5.93333
21
-3.29814
0
LINE
8
BLACK
6
CONTINUOUS
10
5.93333
20
-3.29814
11
5.93333
21
-3.29814
0
LINE
8
BLACK
6
CONTINUOUS
10
5.93333
20
-3.29814
11
5.93323
21
-3.29786
0
LINE
8
BLACK
6
CONTINUOUS
10
5.93323
20
-3.29786
11
5.93306
21
-3.29761
0
LINE
8
BLACK
6
CONTINUOUS
10
5.93306
20
-3.29761
11
5.93293
21
-3.29736
0
LINE
8
BLACK
6
CONTINUOUS
10
5.93293
20
-3.29736
11
5.93283
21
-3.29718
0
LINE
8
BLACK
6
CONTINUOUS
10
5.93283
20
-3.29718
11
5.93268
21
-3.29693
0
LINE
8
BLACK
6
CONTINUOUS
10
5.93268
20
-3.29693
11
5.93256
21
-3.29666
0
LINE
8
BLACK
6
CONTINUOUS
10
5.93256
20
-3.29666
11
5.93114
21
-3.2948
0
LINE
8
BLACK
6
CONTINUOUS
10
5.93114
20
-3.2948
11
5.93098
21
-3.29459
0
LINE
8
BLACK
6
CONTINUOUS
10
5.93098
20
-3.29459
11
5.92983
21
-3.29291
0
LINE
8
BLACK
6
CONTINUOUS
10
5.92983
20
-3.29291
11
5.92983
21
-3.29291
0
LINE
8
BLACK
6
CONTINUOUS
10
5.92983
20
-3.29291
11
5.92966
21
-3.29267
0
LINE
8
BLACK
6
CONTINUOUS
10
5.92966
20
-3.29267
11
5.92796
21
-3.29115
0
LINE
8
BLACK
6
CONTINUOUS
10
5.92796
20
-3.29115
11
5.92775
21
-3.29095
0
LINE
8
BLACK
6
CONTINUOUS
10
5.92775
20
-3.29095
11
5.90147
21
-3.26468
0
LINE
8
BLACK
6
CONTINUOUS
10
5.90147
20
-3.26468
11
5.90013
21
-3.26222
0
LINE
8
BLACK
6
CONTINUOUS
10
5.90013
20
-3.26222
11
5.90002
21
-3.26117
0
LINE
8
BLACK
6
CONTINUOUS
10
5.90002
20
-3.26117
11
5.90002
21
-3.2181
0
LINE
8
BLACK
6
CONTINUOUS
10
5.90002
20
-3.2181
11
5.89975
21
-3.21566
0
LINE
8
BLACK
6
CONTINUOUS
10
5.89975
20
-3.21566
11
5.89774
21
-3.21029
0
LINE
8
BLACK
6
CONTINUOUS
10
5.89774
20
-3.21029
11
5.8943
21
-3.2057
0
LINE
8
BLACK
6
CONTINUOUS
10
5.8943
20
-3.2057
11
5.88971
21
-3.20226
0
LINE
8
BLACK
6
CONTINUOUS
10
5.88971
20
-3.20226
11
5.88434
21
-3.20025
0
LINE
8
BLACK
6
CONTINUOUS
10
5.88434
20
-3.20025
11
5.8819
21
-3.19998
0
LINE
8
BLACK
6
CONTINUOUS
10
5.8819
20
-3.19998
11
5.83883
21
-3.19998
0
LINE
8
BLACK
6
CONTINUOUS
10
5.83883
20
-3.19998
11
5.83615
21
-3.19919
0
LINE
8
BLACK
6
CONTINUOUS
10
5.83615
20
-3.19919
11
5.83532
21
-3.19853
0
LINE
8
BLACK
6
CONTINUOUS
10
5.83532
20
-3.19853
11
5.79916
21
-3.16236
0
LINE
8
BLACK
6
CONTINUOUS
10
5.79916
20
-3.16236
11
5.79893
21
-3.16211
0
LINE
8
BLACK
6
CONTINUOUS
10
5.79893
20
-3.16211
11
5.79754
21
-3.16052
0
LINE
8
BLACK
6
CONTINUOUS
10
5.79754
20
-3.16052
11
5.79563
21
-3.15918
0
LINE
8
BLACK
6
CONTINUOUS
10
5.79563
20
-3.15918
11
5.79542
21
-3.15902
0
LINE
8
BLACK
6
CONTINUOUS
10
5.79542
20
-3.15902
11
5.79541
21
-3.15902
0
LINE
8
BLACK
6
CONTINUOUS
10
5.79541
20
-3.15902
11
5.79358
21
-3.15758
0
LINE
8
BLACK
6
CONTINUOUS
10
5.79358
20
-3.15758
11
5.79331
21
-3.15746
0
LINE
8
BLACK
6
CONTINUOUS
10
5.79331
20
-3.15746
11
5.79306
21
-3.15731
0
LINE
8
BLACK
6
CONTINUOUS
10
5.79306
20
-3.15731
11
5.79288
21
-3.15721
0
LINE
8
BLACK
6
CONTINUOUS
10
5.79288
20
-3.15721
11
5.79263
21
-3.15707
0
LINE
8
BLACK
6
CONTINUOUS
10
5.79263
20
-3.15707
11
5.79239
21
-3.1569
0
LINE
8
BLACK
6
CONTINUOUS
10
5.79239
20
-3.1569
11
5.79021
21
-3.15605
0
LINE
8
BLACK
6
CONTINUOUS
10
5.79021
20
-3.15605
11
5.78997
21
-3.15595
0
LINE
8
BLACK
6
CONTINUOUS
10
5.78997
20
-3.15595
11
5.78974
21
-3.15585
0
LINE
8
BLACK
6
CONTINUOUS
10
5.78974
20
-3.15585
11
5.78784
21
-3.15499
0
LINE
8
BLACK
6
CONTINUOUS
10
5.78784
20
-3.15499
11
5.78754
21
-3.15493
0
LINE
8
BLACK
6
CONTINUOUS
10
5.78754
20
-3.15493
11
5.78727
21
-3.15485
0
LINE
8
BLACK
6
CONTINUOUS
10
5.78727
20
-3.15485
11
5.78707
21
-3.15479
0
LINE
8
BLACK
6
CONTINUOUS
10
5.78707
20
-3.15479
11
5.7868
21
-3.15472
0
LINE
8
BLACK
6
CONTINUOUS
10
5.7868
20
-3.15472
11
5.78652
21
-3.15461
0
LINE
8
BLACK
6
CONTINUOUS
10
5.78652
20
-3.15461
11
5.78622
21
-3.15457
0
LINE
8
BLACK
6
CONTINUOUS
10
5.78622
20
-3.15457
11
5.78622
21
-3.15457
0
LINE
8
BLACK
6
CONTINUOUS
10
5.78622
20
-3.15457
11
5.78523
21
-3.15444
0
LINE
8
BLACK
6
CONTINUOUS
10
5.78523
20
-3.15444
11
5.7842
21
-3.15431
0
LINE
8
BLACK
6
CONTINUOUS
10
5.7842
20
-3.15431
11
5.78394
21
-3.15427
0
LINE
8
BLACK
6
CONTINUOUS
10
5.78394
20
-3.15427
11
5.78165
21
-3.15384
0
LINE
8
BLACK
6
CONTINUOUS
10
5.78165
20
-3.15384
11
5.78135
21
-3.15386
0
LINE
8
BLACK
6
CONTINUOUS
10
5.78135
20
-3.15386
11
5.78135
21
-3.15386
0
LINE
8
BLACK
6
CONTINUOUS
10
5.78135
20
-3.15386
11
5.77937
21
-3.15397
0
LINE
8
BLACK
6
CONTINUOUS
10
5.77937
20
-3.15397
11
5.77909
21
-3.15398
0
LINE
8
BLACK
6
CONTINUOUS
10
5.77909
20
-3.15398
11
5.65107
21
-3.15398
0
LINE
8
BLACK
6
CONTINUOUS
10
5.65107
20
-3.15398
11
5.65074
21
-3.15397
0
LINE
8
BLACK
6
CONTINUOUS
10
5.65074
20
-3.15397
11
5.64893
21
-3.15385
0
LINE
8
BLACK
6
CONTINUOUS
10
5.64893
20
-3.15385
11
5.64893
21
-3.15385
0
LINE
8
BLACK
6
CONTINUOUS
10
5.64893
20
-3.15385
11
5.64863
21
-3.15383
0
LINE
8
BLACK
6
CONTINUOUS
10
5.64863
20
-3.15383
11
5.64833
21
-3.15388
0
LINE
8
BLACK
6
CONTINUOUS
10
5.64833
20
-3.15388
11
5.64833
21
-3.15388
0
LINE
8
BLACK
6
CONTINUOUS
10
5.64833
20
-3.15388
11
5.64691
21
-3.15413
0
LINE
8
BLACK
6
CONTINUOUS
10
5.64691
20
-3.15413
11
5.64633
21
-3.15423
0
LINE
8
BLACK
6
CONTINUOUS
10
5.64633
20
-3.15423
11
5.64607
21
-3.15426
0
LINE
8
BLACK
6
CONTINUOUS
10
5.64607
20
-3.15426
11
5.64555
21
-3.15433
0
LINE
8
BLACK
6
CONTINUOUS
10
5.64555
20
-3.15433
11
5.64404
21
-3.15451
0
LINE
8
BLACK
6
CONTINUOUS
10
5.64404
20
-3.15451
11
5.64404
21
-3.15451
0
LINE
8
BLACK
6
CONTINUOUS
10
5.64404
20
-3.15451
11
5.64375
21
-3.15455
0
LINE
8
BLACK
6
CONTINUOUS
10
5.64375
20
-3.15455
11
5.64347
21
-3.15465
0
LINE
8
BLACK
6
CONTINUOUS
10
5.64347
20
-3.15465
11
5.64319
21
-3.15472
0
LINE
8
BLACK
6
CONTINUOUS
10
5.64319
20
-3.15472
11
5.64299
21
-3.15477
0
LINE
8
BLACK
6
CONTINUOUS
10
5.64299
20
-3.15477
11
5.64272
21
-3.15486
0
LINE
8
BLACK
6
CONTINUOUS
10
5.64272
20
-3.15486
11
5.64242
21
-3.15491
0
LINE
8
BLACK
6
CONTINUOUS
10
5.64242
20
-3.15491
11
5.64215
21
-3.15503
0
LINE
8
BLACK
6
CONTINUOUS
10
5.64215
20
-3.15503
11
5.64215
21
-3.15503
0
LINE
8
BLACK
6
CONTINUOUS
10
5.64215
20
-3.15503
11
5.64028
21
-3.15585
0
LINE
8
BLACK
6
CONTINUOUS
10
5.64028
20
-3.15585
11
5.64004
21
-3.15595
0
LINE
8
BLACK
6
CONTINUOUS
10
5.64004
20
-3.15595
11
5.63976
21
-3.15605
0
LINE
8
BLACK
6
CONTINUOUS
10
5.63976
20
-3.15605
11
5.63814
21
-3.15667
0
LINE
8
BLACK
6
CONTINUOUS
10
5.63814
20
-3.15667
11
5.63814
21
-3.15667
0
LINE
8
BLACK
6
CONTINUOUS
10
5.63814
20
-3.15667
11
5.63786
21
-3.15677
0
LINE
8
BLACK
6
CONTINUOUS
10
5.63786
20
-3.15677
11
5.63761
21
-3.15694
0
LINE
8
BLACK
6
CONTINUOUS
10
5.63761
20
-3.15694
11
5.63736
21
-3.15707
0
LINE
8
BLACK
6
CONTINUOUS
10
5.63736
20
-3.15707
11
5.63718
21
-3.15717
0
LINE
8
BLACK
6
CONTINUOUS
10
5.63718
20
-3.15717
11
5.63693
21
-3.15732
0
LINE
8
BLACK
6
CONTINUOUS
10
5.63693
20
-3.15732
11
5.63666
21
-3.15744
0
LINE
8
BLACK
6
CONTINUOUS
10
5.63666
20
-3.15744
11
5.63642
21
-3.15762
0
LINE
8
BLACK
6
CONTINUOUS
10
5.63642
20
-3.15762
11
5.63642
21
-3.15762
0
LINE
8
BLACK
6
CONTINUOUS
10
5.63642
20
-3.15762
11
5.6348
21
-3.15886
0
LINE
8
BLACK
6
CONTINUOUS
10
5.6348
20
-3.15886
11
5.63459
21
-3.15902
0
LINE
8
BLACK
6
CONTINUOUS
10
5.63459
20
-3.15902
11
5.63291
21
-3.16017
0
LINE
8
BLACK
6
CONTINUOUS
10
5.63291
20
-3.16017
11
5.63291
21
-3.16017
0
LINE
8
BLACK
6
CONTINUOUS
10
5.63291
20
-3.16017
11
5.63267
21
-3.16034
0
LINE
8
BLACK
6
CONTINUOUS
10
5.63267
20
-3.16034
11
5.63247
21
-3.16056
0
LINE
8
BLACK
6
CONTINUOUS
10
5.63247
20
-3.16056
11
5.63247
21
-3.16056
0
LINE
8
BLACK
6
CONTINUOUS
10
5.63247
20
-3.16056
11
5.63115
21
-3.16204
0
LINE
8
BLACK
6
CONTINUOUS
10
5.63115
20
-3.16204
11
5.63095
21
-3.16225
0
LINE
8
BLACK
6
CONTINUOUS
10
5.63095
20
-3.16225
11
5.59068
21
-3.20253
0
LINE
8
BLACK
6
CONTINUOUS
10
5.59068
20
-3.20253
11
5.58822
21
-3.20387
0
LINE
8
BLACK
6
CONTINUOUS
10
5.58822
20
-3.20387
11
5.58717
21
-3.20398
0
LINE
8
BLACK
6
CONTINUOUS
10
5.58717
20
-3.20398
11
5.58293
21
-3.20398
0
LINE
8
BLACK
6
CONTINUOUS
10
5.58293
20
-3.20398
11
5.58025
21
-3.20319
0
LINE
8
BLACK
6
CONTINUOUS
10
5.58025
20
-3.20319
11
5.57842
21
-3.20108
0
LINE
8
BLACK
6
CONTINUOUS
10
5.57842
20
-3.20108
11
5.57797
21
-3.19902
0
LINE
8
BLACK
6
CONTINUOUS
10
5.57797
20
-3.19902
11
5.57797
21
-3.19267
0
LINE
8
BLACK
6
CONTINUOUS
10
5.57797
20
-3.19267
11
5.57771
21
-3.19022
0
LINE
8
BLACK
6
CONTINUOUS
10
5.57771
20
-3.19022
11
5.57569
21
-3.18485
0
LINE
8
BLACK
6
CONTINUOUS
10
5.57569
20
-3.18485
11
5.57225
21
-3.18027
0
LINE
8
BLACK
6
CONTINUOUS
10
5.57225
20
-3.18027
11
5.56767
21
-3.17683
0
LINE
8
BLACK
6
CONTINUOUS
10
5.56767
20
-3.17683
11
5.5623
21
-3.17481
0
LINE
8
BLACK
6
CONTINUOUS
10
5.5623
20
-3.17481
11
5.55985
21
-3.17455
0
LINE
8
BLACK
6
CONTINUOUS
10
5.55985
20
-3.17455
11
5.45763
21
-3.17455
0
LINE
8
BLACK
6
CONTINUOUS
10
5.45763
20
-3.17455
11
5.45518
21
-3.17481
0
LINE
8
BLACK
6
CONTINUOUS
10
5.45518
20
-3.17481
11
5.44981
21
-3.17683
0
LINE
8
BLACK
6
CONTINUOUS
10
5.44981
20
-3.17683
11
5.44523
21
-3.18027
0
LINE
8
BLACK
6
CONTINUOUS
10
5.44523
20
-3.18027
11
5.44179
21
-3.18485
0
LINE
8
BLACK
6
CONTINUOUS
10
5.44179
20
-3.18485
11
5.43977
21
-3.19022
0
LINE
8
BLACK
6
CONTINUOUS
10
5.43977
20
-3.19022
11
5.43951
21
-3.19267
0
LINE
8
BLACK
6
CONTINUOUS
10
5.43951
20
-3.19267
11
5.43951
21
-3.26733
0
LINE
8
BLACK
6
CONTINUOUS
10
5.43951
20
-3.26733
11
5.43977
21
-3.26978
0
LINE
8
BLACK
6
CONTINUOUS
10
5.43977
20
-3.26978
11
5.44179
21
-3.27515
0
LINE
8
BLACK
6
CONTINUOUS
10
5.44179
20
-3.27515
11
5.44523
21
-3.27973
0
LINE
8
BLACK
6
CONTINUOUS
10
5.44523
20
-3.27973
11
5.44981
21
-3.28317
0
LINE
8
BLACK
6
CONTINUOUS
10
5.44981
20
-3.28317
11
5.45518
21
-3.28519
0
LINE
8
BLACK
6
CONTINUOUS
10
5.45518
20
-3.28519
11
5.45763
21
-3.28545
0
LINE
8
BLACK
6
CONTINUOUS
10
5.45763
20
-3.28545
11
5.53577
21
-3.28545
0
LINE
8
BLACK
6
CONTINUOUS
10
5.53577
20
-3.28545
11
5.53846
21
-3.28624
0
LINE
8
BLACK
6
CONTINUOUS
10
5.53846
20
-3.28624
11
5.54029
21
-3.28835
0
LINE
8
BLACK
6
CONTINUOUS
10
5.54029
20
-3.28835
11
5.54068
21
-3.29112
0
LINE
8
BLACK
6
CONTINUOUS
10
5.54068
20
-3.29112
11
5.53952
21
-3.29366
0
LINE
8
BLACK
6
CONTINUOUS
10
5.53952
20
-3.29366
11
5.53928
21
-3.29392
0
LINE
8
BLACK
6
CONTINUOUS
10
5.53928
20
-3.29392
11
5.44225
21
-3.39095
0
LINE
8
BLACK
6
CONTINUOUS
10
5.44225
20
-3.39095
11
5.4398
21
-3.39229
0
LINE
8
BLACK
6
CONTINUOUS
10
5.4398
20
-3.39229
11
5.43701
21
-3.39209
0
LINE
8
BLACK
6
CONTINUOUS
10
5.43701
20
-3.39209
11
5.43477
21
-3.39042
0
LINE
8
BLACK
6
CONTINUOUS
10
5.43477
20
-3.39042
11
5.43403
21
-3.38898
0
LINE
8
BLACK
6
CONTINUOUS
10
5.43403
20
-3.38898
11
5.43294
21
-3.38562
0
LINE
8
BLACK
6
CONTINUOUS
10
5.43294
20
-3.38562
11
5.43286
21
-3.38537
0
LINE
8
BLACK
6
CONTINUOUS
10
5.43286
20
-3.38537
11
5.4291
21
-3.37886
0
LINE
8
BLACK
6
CONTINUOUS
10
5.4291
20
-3.37886
11
5.42407
21
-3.37327
0
LINE
8
BLACK
6
CONTINUOUS
10
5.42407
20
-3.37327
11
5.41798
21
-3.36885
0
LINE
8
BLACK
6
CONTINUOUS
10
5.41798
20
-3.36885
11
5.41775
21
-3.36875
0
LINE
8
BLACK
6
CONTINUOUS
10
5.41775
20
-3.36875
11
5.41774
21
-3.36875
0
LINE
8
BLACK
6
CONTINUOUS
10
5.41774
20
-3.36875
11
5.41135
21
-3.3659
0
LINE
8
BLACK
6
CONTINUOUS
10
5.41135
20
-3.3659
11
5.41135
21
-3.3659
0
LINE
8
BLACK
6
CONTINUOUS
10
5.41135
20
-3.3659
11
5.41111
21
-3.3658
0
LINE
8
BLACK
6
CONTINUOUS
10
5.41111
20
-3.3658
11
5.40744
21
-3.36501
0
LINE
8
BLACK
6
CONTINUOUS
10
5.40744
20
-3.36501
11
5.40401
21
-3.36429
0
LINE
8
BLACK
6
CONTINUOUS
10
5.40401
20
-3.36429
11
5.40401
21
-3.36429
0
LINE
8
BLACK
6
CONTINUOUS
10
5.40401
20
-3.36429
11
5.40376
21
-3.36423
0
LINE
8
BLACK
6
CONTINUOUS
10
5.40376
20
-3.36423
11
5.39624
21
-3.36423
0
LINE
8
BLACK
6
CONTINUOUS
10
5.39624
20
-3.36423
11
5.39599
21
-3.36429
0
LINE
8
BLACK
6
CONTINUOUS
10
5.39599
20
-3.36429
11
5.39599
21
-3.36429
0
LINE
8
BLACK
6
CONTINUOUS
10
5.39599
20
-3.36429
11
5.39256
21
-3.36501
0
LINE
8
BLACK
6
CONTINUOUS
10
5.39256
20
-3.36501
11
5.38889
21
-3.3658
0
LINE
8
BLACK
6
CONTINUOUS
10
5.38889
20
-3.3658
11
5.38865
21
-3.3659
0
LINE
8
BLACK
6
CONTINUOUS
10
5.38865
20
-3.3659
11
5.38865
21
-3.3659
0
LINE
8
BLACK
6
CONTINUOUS
10
5.38865
20
-3.3659
11
5.38761
21
-3.36636
0
LINE
8
BLACK
6
CONTINUOUS
10
5.38761
20
-3.36636
11
5.38433
21
-3.36782
0
LINE
8
BLACK
6
CONTINUOUS
10
5.38433
20
-3.36782
11
5.38156
21
-3.3682
0
LINE
8
BLACK
6
CONTINUOUS
10
5.38156
20
-3.3682
11
5.37903
21
-3.36701
0
LINE
8
BLACK
6
CONTINUOUS
10
5.37903
20
-3.36701
11
5.37754
21
-3.36464
0
LINE
8
BLACK
6
CONTINUOUS
10
5.37754
20
-3.36464
11
5.37749
21
-3.36214
0
LINE
8
BLACK
6
CONTINUOUS
10
5.37749
20
-3.36214
11
5.37756
21
-3.36183
0
LINE
8
BLACK
6
CONTINUOUS
10
5.37756
20
-3.36183
11
5.37778
21
-3.35982
0
LINE
8
BLACK
6
CONTINUOUS
10
5.37778
20
-3.35982
11
5.3778
21
-3.35955
0
LINE
8
BLACK
6
CONTINUOUS
10
5.3778
20
-3.35955
11
5.3778
21
-3.35571
0
LINE
8
BLACK
6
CONTINUOUS
10
5.3778
20
-3.35571
11
5.37762
21
-3.35511
0
LINE
8
BLACK
6
CONTINUOUS
10
5.37762
20
-3.35511
11
5.37756
21
-3.35507
0
LINE
8
BLACK
6
CONTINUOUS
10
5.37756
20
-3.35507
11
5.37726
21
-3.355
0
LINE
8
BLACK
6
CONTINUOUS
10
5.37726
20
-3.355
11
5.3578
21
-3.355
0
LINE
8
BLACK
6
CONTINUOUS
10
5.3578
20
-3.355
11
5.3578
21
-3.3578
0
LINE
8
BLACK
6
CONTINUOUS
10
5.3578
20
-3.3578
11
5.29283
21
-3.3578
0
LINE
8
BLACK
6
CONTINUOUS
10
5.29283
20
-3.3578
11
5.29283
21
-3.355
0
LINE
8
BLACK
6
CONTINUOUS
10
5.29283
20
-3.355
11
5.27355
21
-3.355
0
LINE
8
BLACK
6
CONTINUOUS
10
5.27355
20
-3.355
11
5.27295
21
-3.35518
0
LINE
8
BLACK
6
CONTINUOUS
10
5.27295
20
-3.35518
11
5.2729
21
-3.35523
0
LINE
8
BLACK
6
CONTINUOUS
10
5.2729
20
-3.35523
11
5.27283
21
-3.35553
0
LINE
8
BLACK
6
CONTINUOUS
10
5.27283
20
-3.35553
11
5.27283
21
-3.35955
0
LINE
8
BLACK
6
CONTINUOUS
10
5.27283
20
-3.35955
11
5.27285
21
-3.35982
0
LINE
8
BLACK
6
CONTINUOUS
10
5.27285
20
-3.35982
11
5.27307
21
-3.36182
0
LINE
8
BLACK
6
CONTINUOUS
10
5.27307
20
-3.36182
11
5.27321
21
-3.36243
0
LINE
8
BLACK
6
CONTINUOUS
10
5.27321
20
-3.36243
11
5.27499
21
-3.36717
0
LINE
8
BLACK
6
CONTINUOUS
10
5.27499
20
-3.36717
11
5.27522
21
-3.3676
0
LINE
8
BLACK
6
CONTINUOUS
10
5.27522
20
-3.3676
11
5.27582
21
-3.37033
0
LINE
8
BLACK
6
CONTINUOUS
10
5.27582
20
-3.37033
11
5.27524
21
-3.37229
0
LINE
8
BLACK
6
CONTINUOUS
10
5.27524
20
-3.37229
11
5.27509
21
-3.37249
0
LINE
8
BLACK
6
CONTINUOUS
10
5.27509
20
-3.37249
11
5.27497
21
-3.37282
0
LINE
8
BLACK
6
CONTINUOUS
10
5.27497
20
-3.37282
11
5.27497
21
-3.37282
0
LINE
8
BLACK
6
CONTINUOUS
10
5.27497
20
-3.37282
11
5.27378
21
-3.376
0
LINE
8
BLACK
6
CONTINUOUS
10
5.27378
20
-3.376
11
5.27308
21
-3.37786
0
LINE
8
BLACK
6
CONTINUOUS
10
5.27308
20
-3.37786
11
5.27281
21
-3.38031
0
LINE
8
BLACK
6
CONTINUOUS
10
5.27281
20
-3.38031
11
5.27281
21
-3.40969
0
LINE
8
BLACK
6
CONTINUOUS
10
5.27281
20
-3.40969
11
5.27308
21
-3.41214
0
LINE
8
BLACK
6
CONTINUOUS
10
5.27308
20
-3.41214
11
5.27378
21
-3.414
0
LINE
8
BLACK
6
CONTINUOUS
10
5.27378
20
-3.414
11
5.27449
21
-3.4159
0
LINE
8
BLACK
6
CONTINUOUS
10
5.27449
20
-3.4159
11
5.27509
21
-3.41751
0
LINE
8
BLACK
6
CONTINUOUS
10
5.27509
20
-3.41751
11
5.27523
21
-3.41768
0
LINE
8
BLACK
6
CONTINUOUS
10
5.27523
20
-3.41768
11
5.27581
21
-3.42035
0
LINE
8
BLACK
6
CONTINUOUS
10
5.27581
20
-3.42035
11
5.27523
21
-3.42231
0
LINE
8
BLACK
6
CONTINUOUS
10
5.27523
20
-3.42231
11
5.27509
21
-3.42249
0
LINE
8
BLACK
6
CONTINUOUS
10
5.27509
20
-3.42249
11
5.27497
21
-3.42282
0
LINE
8
BLACK
6
CONTINUOUS
10
5.27497
20
-3.42282
11
5.27497
21
-3.42282
0
LINE
8
BLACK
6
CONTINUOUS
10
5.27497
20
-3.42282
11
5.27418
21
-3.42493
0
LINE
8
BLACK
6
CONTINUOUS
10
5.27418
20
-3.42493
11
5.27308
21
-3.42786
0
LINE
8
BLACK
6
CONTINUOUS
10
5.27308
20
-3.42786
11
5.27281
21
-3.43031
0
LINE
8
BLACK
6
CONTINUOUS
10
5.27281
20
-3.43031
11
5.27281
21
-3.45969
0
LINE
8
BLACK
6
CONTINUOUS
10
5.27281
20
-3.45969
11
5.27308
21
-3.46214
0
LINE
8
BLACK
6
CONTINUOUS
10
5.27308
20
-3.46214
11
5.27509
21
-3.46751
0
LINE
8
BLACK
6
CONTINUOUS
10
5.27509
20
-3.46751
11
5.27523
21
-3.46768
0
LINE
8
BLACK
6
CONTINUOUS
10
5.27523
20
-3.46768
11
5.27581
21
-3.47035
0
LINE
8
BLACK
6
CONTINUOUS
10
5.27581
20
-3.47035
11
5.27523
21
-3.47231
0
LINE
8
BLACK
6
CONTINUOUS
10
5.27523
20
-3.47231
11
5.27509
21
-3.47249
0
LINE
8
BLACK
6
CONTINUOUS
10
5.27509
20
-3.47249
11
5.27308
21
-3.47786
0
LINE
8
BLACK
6
CONTINUOUS
10
5.27308
20
-3.47786
11
5.27281
21
-3.48031
0
LINE
8
BLACK
6
CONTINUOUS
10
5.27281
20
-3.48031
11
5.27281
21
-3.50969
0
LINE
8
BLACK
6
CONTINUOUS
10
5.27281
20
-3.50969
11
5.27308
21
-3.51214
0
LINE
8
BLACK
6
CONTINUOUS
10
5.27308
20
-3.51214
11
5.27509
21
-3.51751
0
LINE
8
BLACK
6
CONTINUOUS
10
5.28228
20
-3.26946
11
5.28242
21
-3.27006
0
LINE
8
BLACK
6
CONTINUOUS
10
5.28242
20
-3.27006
11
5.2842
21
-3.27481
0
LINE
8
BLACK
6
CONTINUOUS
10
5.2842
20
-3.27481
11
5.28454
21
-3.27542
0
LINE
8
BLACK
6
CONTINUOUS
10
5.28454
20
-3.27542
11
5.28755
21
-3.27944
0
LINE
8
BLACK
6
CONTINUOUS
10
5.28755
20
-3.27944
11
5.28804
21
-3.27993
0
LINE
8
BLACK
6
CONTINUOUS
10
5.28804
20
-3.27993
11
5.29206
21
-3.28294
0
LINE
8
BLACK
6
CONTINUOUS
10
5.29206
20
-3.28294
11
5.29268
21
-3.28328
0
LINE
8
BLACK
6
CONTINUOUS
10
5.29268
20
-3.28328
11
5.29742
21
-3.28506
0
LINE
8
BLACK
6
CONTINUOUS
10
5.29742
20
-3.28506
11
5.29802
21
-3.2852
0
LINE
8
BLACK
6
CONTINUOUS
10
5.29802
20
-3.2852
11
5.30002
21
-3.28542
0
LINE
8
BLACK
6
CONTINUOUS
10
5.30002
20
-3.28542
11
5.30029
21
-3.28543
0
LINE
8
BLACK
6
CONTINUOUS
10
5.30029
20
-3.28543
11
5.34055
21
-3.28543
0
LINE
8
BLACK
6
CONTINUOUS
10
5.34055
20
-3.28543
11
5.34115
21
-3.28526
0
LINE
8
BLACK
6
CONTINUOUS
10
5.34115
20
-3.28526
11
5.34119
21
-3.2852
0
LINE
8
BLACK
6
CONTINUOUS
10
5.34119
20
-3.2852
11
5.34126
21
-3.2849
0
LINE
8
BLACK
6
CONTINUOUS
10
5.34126
20
-3.2849
11
5.34126
21
-3.26543
0
LINE
8
BLACK
6
CONTINUOUS
10
5.34126
20
-3.26543
11
5.30205
21
-3.26543
0
LINE
8
BLACK
6
CONTINUOUS
10
5.30205
20
-3.26543
11
5.30205
21
-3.24
0
LINE
8
BLACK
6
CONTINUOUS
10
5.30205
20
-3.24
11
5.28276
21
-3.24
0
LINE
8
BLACK
6
CONTINUOUS
10
5.28276
20
-3.24
11
5.28216
21
-3.24018
0
LINE
8
BLACK
6
CONTINUOUS
10
5.28216
20
-3.24018
11
5.28211
21
-3.24023
0
LINE
8
BLACK
6
CONTINUOUS
10
5.28211
20
-3.24023
11
5.28205
21
-3.24053
0
LINE
8
BLACK
6
CONTINUOUS
10
5.28205
20
-3.24053
11
5.28205
21
-3.26719
0
LINE
8
BLACK
6
CONTINUOUS
10
5.28205
20
-3.26719
11
5.28206
21
-3.26746
0
LINE
8
BLACK
6
CONTINUOUS
10
5.28206
20
-3.26746
11
5.28228
21
-3.26946
0
LINE
8
BLACK
6
CONTINUOUS
10
5.78076
20
-3.1742
11
5.78155
21
-3.1742
0
LINE
8
BLACK
6
CONTINUOUS
10
5.78155
20
-3.1742
11
5.78224
21
-3.1746
0
LINE
8
BLACK
6
CONTINUOUS
10
5.78224
20
-3.1746
11
5.783
21
-3.1748
0
LINE
8
BLACK
6
CONTINUOUS
10
5.783
20
-3.1748
11
5.78356
21
-3.17536
0
LINE
8
BLACK
6
CONTINUOUS
10
5.78356
20
-3.17536
11
5.78424
21
-3.17576
0
LINE
8
BLACK
6
CONTINUOUS
10
5.78424
20
-3.17576
11
5.82849
21
-3.22
0
LINE
8
BLACK
6
CONTINUOUS
10
5.82849
20
-3.22
11
5.88
21
-3.22
0
LINE
8
BLACK
6
CONTINUOUS
10
5.88
20
-3.22
11
5.88
21
-3.27151
0
LINE
8
BLACK
6
CONTINUOUS
10
5.88
20
-3.27151
11
5.91424
21
-3.30576
0
LINE
8
BLACK
6
CONTINUOUS
10
5.91424
20
-3.30576
11
5.91464
21
-3.30644
0
LINE
8
BLACK
6
CONTINUOUS
10
5.91464
20
-3.30644
11
5.9152
21
-3.307
0
LINE
8
BLACK
6
CONTINUOUS
10
5.9152
20
-3.307
11
5.9154
21
-3.30776
0
LINE
8
BLACK
6
CONTINUOUS
10
5.9154
20
-3.30776
11
5.9158
21
-3.30845
0
LINE
8
BLACK
6
CONTINUOUS
10
5.9158
20
-3.30845
11
5.9158
21
-3.30924
0
LINE
8
BLACK
6
CONTINUOUS
10
5.9158
20
-3.30924
11
5.916
21
-3.31
0
LINE
8
BLACK
6
CONTINUOUS
10
5.916
20
-3.31
11
5.916
21
-3.59
0
LINE
8
BLACK
6
CONTINUOUS
10
5.916
20
-3.59
11
5.9158
21
-3.59076
0
LINE
8
BLACK
6
CONTINUOUS
10
5.9158
20
-3.59076
11
5.9158
21
-3.59155
0
LINE
8
BLACK
6
CONTINUOUS
10
5.9158
20
-3.59155
11
5.9154
21
-3.59224
0
LINE
8
BLACK
6
CONTINUOUS
10
5.9154
20
-3.59224
11
5.9152
21
-3.593
0
LINE
8
BLACK
6
CONTINUOUS
10
5.9152
20
-3.593
11
5.91464
21
-3.59356
0
LINE
8
BLACK
6
CONTINUOUS
10
5.91464
20
-3.59356
11
5.91424
21
-3.59424
0
LINE
8
BLACK
6
CONTINUOUS
10
5.91424
20
-3.59424
11
5.88424
21
-3.62424
0
LINE
8
BLACK
6
CONTINUOUS
10
5.88424
20
-3.62424
11
5.88356
21
-3.62464
0
LINE
8
BLACK
6
CONTINUOUS
10
5.88356
20
-3.62464
11
5.883
21
-3.6252
0
LINE
8
BLACK
6
CONTINUOUS
10
5.883
20
-3.6252
11
5.88224
21
-3.6254
0
LINE
8
BLACK
6
CONTINUOUS
10
5.88224
20
-3.6254
11
5.88155
21
-3.6258
0
LINE
8
BLACK
6
CONTINUOUS
10
5.88155
20
-3.6258
11
5.88076
21
-3.6258
0
LINE
8
BLACK
6
CONTINUOUS
10
5.88076
20
-3.6258
11
5.88
21
-3.626
0
LINE
8
BLACK
6
CONTINUOUS
10
5.88
20
-3.626
11
5.73249
21
-3.626
0
LINE
8
BLACK
6
CONTINUOUS
10
5.73249
20
-3.626
11
5.69424
21
-3.66424
0
LINE
8
BLACK
6
CONTINUOUS
10
5.69424
20
-3.66424
11
5.69356
21
-3.66464
0
LINE
8
BLACK
6
CONTINUOUS
10
5.69356
20
-3.66464
11
5.693
21
-3.6652
0
LINE
8
BLACK
6
CONTINUOUS
10
5.693
20
-3.6652
11
5.69224
21
-3.6654
0
LINE
8
BLACK
6
CONTINUOUS
10
5.69224
20
-3.6654
11
5.69155
21
-3.6658
0
LINE
8
BLACK
6
CONTINUOUS
10
5.69155
20
-3.6658
11
5.69076
21
-3.6658
0
LINE
8
BLACK
6
CONTINUOUS
10
5.69076
20
-3.6658
11
5.69
21
-3.666
0
LINE
8
BLACK
6
CONTINUOUS
10
5.69
20
-3.666
11
5.65709
21
-3.666
0
LINE
8
BLACK
6
CONTINUOUS
10
5.65709
20
-3.666
11
5.65709
21
-3.6787
0
LINE
8
BLACK
6
CONTINUOUS
10
5.65709
20
-3.6787
11
5.65634
21
-3.68247
0
LINE
8
BLACK
6
CONTINUOUS
10
5.65634
20
-3.68247
11
5.6542
21
-3.68566
0
LINE
8
BLACK
6
CONTINUOUS
10
5.6542
20
-3.68566
11
5.65101
21
-3.68779
0
LINE
8
BLACK
6
CONTINUOUS
10
5.65101
20
-3.68779
11
5.64724
21
-3.68854
0
LINE
8
BLACK
6
CONTINUOUS
10
5.64724
20
-3.68854
11
5.62756
21
-3.68854
0
LINE
8
BLACK
6
CONTINUOUS
10
5.62756
20
-3.68854
11
5.62379
21
-3.68779
0
LINE
8
BLACK
6
CONTINUOUS
10
5.62379
20
-3.68779
11
5.6206
21
-3.68566
0
LINE
8
BLACK
6
CONTINUOUS
10
5.6206
20
-3.68566
11
5.61847
21
-3.68247
0
LINE
8
BLACK
6
CONTINUOUS
10
5.61847
20
-3.68247
11
5.61772
21
-3.6787
0
LINE
8
BLACK
6
CONTINUOUS
10
5.61772
20
-3.6787
11
5.61772
21
-3.6413
0
LINE
8
BLACK
6
CONTINUOUS
10
5.61772
20
-3.6413
11
5.61847
21
-3.63753
0
LINE
8
BLACK
6
CONTINUOUS
10
5.61847
20
-3.63753
11
5.6206
21
-3.63434
0
LINE
8
BLACK
6
CONTINUOUS
10
5.6206
20
-3.63434
11
5.62379
21
-3.63221
0
LINE
8
BLACK
6
CONTINUOUS
10
5.62379
20
-3.63221
11
5.62756
21
-3.63146
0
LINE
8
BLACK
6
CONTINUOUS
10
5.62756
20
-3.63146
11
5.6314
21
-3.63146
0
LINE
8
BLACK
6
CONTINUOUS
10
5.6314
20
-3.63146
11
5.6314
21
-3.62489
0
LINE
8
BLACK
6
CONTINUOUS
10
5.6314
20
-3.62489
11
5.62251
21
-3.616
0
LINE
8
BLACK
6
CONTINUOUS
10
5.62251
20
-3.616
11
5.61
21
-3.616
0
LINE
8
BLACK
6
CONTINUOUS
10
5.61
20
-3.616
11
5.60924
21
-3.6158
0
LINE
8
BLACK
6
CONTINUOUS
10
5.60924
20
-3.6158
11
5.60845
21
-3.6158
0
LINE
8
BLACK
6
CONTINUOUS
10
5.60845
20
-3.6158
11
5.60776
21
-3.6154
0
LINE
8
BLACK
6
CONTINUOUS
10
5.60776
20
-3.6154
11
5.607
21
-3.6152
0
LINE
8
BLACK
6
CONTINUOUS
10
5.607
20
-3.6152
11
5.60644
21
-3.61464
0
LINE
8
BLACK
6
CONTINUOUS
10
5.60644
20
-3.61464
11
5.60576
21
-3.61424
0
LINE
8
BLACK
6
CONTINUOUS
10
5.60576
20
-3.61424
11
5.59695
21
-3.60544
0
LINE
8
BLACK
6
CONTINUOUS
10
5.59695
20
-3.60544
11
5.5968
21
-3.60566
0
LINE
8
BLACK
6
CONTINUOUS
10
5.5968
20
-3.60566
11
5.59361
21
-3.60779
0
LINE
8
BLACK
6
CONTINUOUS
10
5.59361
20
-3.60779
11
5.58984
21
-3.60854
0
LINE
8
BLACK
6
CONTINUOUS
10
5.58984
20
-3.60854
11
5.57016
21
-3.60854
0
LINE
8
BLACK
6
CONTINUOUS
10
5.57016
20
-3.60854
11
5.56639
21
-3.60779
0
LINE
8
BLACK
6
CONTINUOUS
10
5.56639
20
-3.60779
11
5.5632
21
-3.60566
0
LINE
8
BLACK
6
CONTINUOUS
10
5.5632
20
-3.60566
11
5.56106
21
-3.60247
0
LINE
8
BLACK
6
CONTINUOUS
10
5.56106
20
-3.60247
11
5.56031
21
-3.5987
0
LINE
8
BLACK
6
CONTINUOUS
10
5.56031
20
-3.5987
11
5.56031
21
-3.5613
0
LINE
8
BLACK
6
CONTINUOUS
10
5.56031
20
-3.5613
11
5.56106
21
-3.55753
0
LINE
8
BLACK
6
CONTINUOUS
10
5.56106
20
-3.55753
11
5.5632
21
-3.55434
0
LINE
8
BLACK
6
CONTINUOUS
10
5.5632
20
-3.55434
11
5.56639
21
-3.55221
0
LINE
8
BLACK
6
CONTINUOUS
10
5.56639
20
-3.55221
11
5.57016
21
-3.55146
0
LINE
8
BLACK
6
CONTINUOUS
10
5.57016
20
-3.55146
11
5.58984
21
-3.55146
0
LINE
8
BLACK
6
CONTINUOUS
10
5.58984
20
-3.55146
11
5.59361
21
-3.55221
0
LINE
8
BLACK
6
CONTINUOUS
10
5.59361
20
-3.55221
11
5.5968
21
-3.55434
0
LINE
8
BLACK
6
CONTINUOUS
10
5.5968
20
-3.55434
11
5.59695
21
-3.55456
0
LINE
8
BLACK
6
CONTINUOUS
10
5.59695
20
-3.55456
11
5.60869
21
-3.54283
0
LINE
8
BLACK
6
CONTINUOUS
10
5.60869
20
-3.54283
11
5.60869
21
-3.5078
0
LINE
8
BLACK
6
CONTINUOUS
10
5.60869
20
-3.5078
11
5.5822
21
-3.5078
0
LINE
8
BLACK
6
CONTINUOUS
10
5.5822
20
-3.5078
11
5.5822
21
-3.4822
0
LINE
8
BLACK
6
CONTINUOUS
10
5.5822
20
-3.4822
11
5.64717
21
-3.4822
0
LINE
8
BLACK
6
CONTINUOUS
10
5.64717
20
-3.4822
11
5.64717
21
-3.5078
0
LINE
8
BLACK
6
CONTINUOUS
10
5.64717
20
-3.5078
11
5.62069
21
-3.5078
0
LINE
8
BLACK
6
CONTINUOUS
10
5.62069
20
-3.5078
11
5.62069
21
-3.54531
0
LINE
8
BLACK
6
CONTINUOUS
10
5.62069
20
-3.54531
11
5.62048
21
-3.54608
0
LINE
8
BLACK
6
CONTINUOUS
10
5.62048
20
-3.54608
11
5.62048
21
-3.54687
0
LINE
8
BLACK
6
CONTINUOUS
10
5.62048
20
-3.54687
11
5.62009
21
-3.54755
0
LINE
8
BLACK
6
CONTINUOUS
10
5.62009
20
-3.54755
11
5.61988
21
-3.54831
0
LINE
8
BLACK
6
CONTINUOUS
10
5.61988
20
-3.54831
11
5.61932
21
-3.54887
0
LINE
8
BLACK
6
CONTINUOUS
10
5.61932
20
-3.54887
11
5.61893
21
-3.54956
0
LINE
8
BLACK
6
CONTINUOUS
10
5.61893
20
-3.54956
11
5.59969
21
-3.5688
0
LINE
8
BLACK
6
CONTINUOUS
10
5.59969
20
-3.5688
11
5.59969
21
-3.5912
0
LINE
8
BLACK
6
CONTINUOUS
10
5.59969
20
-3.5912
11
5.61249
21
-3.604
0
LINE
8
BLACK
6
CONTINUOUS
10
5.61249
20
-3.604
11
5.625
21
-3.604
0
LINE
8
BLACK
6
CONTINUOUS
10
5.625
20
-3.604
11
5.62576
21
-3.6042
0
LINE
8
BLACK
6
CONTINUOUS
10
5.62576
20
-3.6042
11
5.62655
21
-3.6042
0
LINE
8
BLACK
6
CONTINUOUS
10
5.62655
20
-3.6042
11
5.62724
21
-3.6046
0
LINE
8
BLACK
6
CONTINUOUS
10
5.62724
20
-3.6046
11
5.628
21
-3.6048
0
LINE
8
BLACK
6
CONTINUOUS
10
5.628
20
-3.6048
11
5.62856
21
-3.60536
0
LINE
8
BLACK
6
CONTINUOUS
10
5.62856
20
-3.60536
11
5.62924
21
-3.60576
0
LINE
8
BLACK
6
CONTINUOUS
10
5.62924
20
-3.60576
11
5.64164
21
-3.61816
0
LINE
8
BLACK
6
CONTINUOUS
10
5.64164
20
-3.61816
11
5.64204
21
-3.61884
0
LINE
8
BLACK
6
CONTINUOUS
10
5.64204
20
-3.61884
11
5.6426
21
-3.6194
0
LINE
8
BLACK
6
CONTINUOUS
10
5.6426
20
-3.6194
11
5.6428
21
-3.62016
0
LINE
8
BLACK
6
CONTINUOUS
10
5.6428
20
-3.62016
11
5.6432
21
-3.62085
0
LINE
8
BLACK
6
CONTINUOUS
10
5.6432
20
-3.62085
11
5.6432
21
-3.62164
0
LINE
8
BLACK
6
CONTINUOUS
10
5.6432
20
-3.62164
11
5.6434
21
-3.6224
0
LINE
8
BLACK
6
CONTINUOUS
10
5.6434
20
-3.6224
11
5.6434
21
-3.63146
0
LINE
8
BLACK
6
CONTINUOUS
10
5.6434
20
-3.63146
11
5.64724
21
-3.63146
0
LINE
8
BLACK
6
CONTINUOUS
10
5.64724
20
-3.63146
11
5.65101
21
-3.63221
0
LINE
8
BLACK
6
CONTINUOUS
10
5.65101
20
-3.63221
11
5.6542
21
-3.63434
0
LINE
8
BLACK
6
CONTINUOUS
10
5.6542
20
-3.63434
11
5.65634
21
-3.63753
0
LINE
8
BLACK
6
CONTINUOUS
10
5.65634
20
-3.63753
11
5.65709
21
-3.6413
0
LINE
8
BLACK
6
CONTINUOUS
10
5.65709
20
-3.6413
11
5.65709
21
-3.654
0
LINE
8
BLACK
6
CONTINUOUS
10
5.65709
20
-3.654
11
5.68751
21
-3.654
0
LINE
8
BLACK
6
CONTINUOUS
10
5.68751
20
-3.654
11
5.72576
21
-3.61576
0
LINE
8
BLACK
6
CONTINUOUS
10
5.72576
20
-3.61576
11
5.72644
21
-3.61536
0
LINE
8
BLACK
6
CONTINUOUS
10
5.72644
20
-3.61536
11
5.727
21
-3.6148
0
LINE
8
BLACK
6
CONTINUOUS
10
5.727
20
-3.6148
11
5.72776
21
-3.6146
0
LINE
8
BLACK
6
CONTINUOUS
10
5.72776
20
-3.6146
11
5.72845
21
-3.6142
0
LINE
8
BLACK
6
CONTINUOUS
10
5.72845
20
-3.6142
11
5.72924
21
-3.6142
0
LINE
8
BLACK
6
CONTINUOUS
10
5.72924
20
-3.6142
11
5.73
21
-3.614
0
LINE
8
BLACK
6
CONTINUOUS
10
5.73
20
-3.614
11
5.87751
21
-3.614
0
LINE
8
BLACK
6
CONTINUOUS
10
5.87751
20
-3.614
11
5.904
21
-3.58751
0
LINE
8
BLACK
6
CONTINUOUS
10
5.904
20
-3.58751
11
5.904
21
-3.31249
0
LINE
8
BLACK
6
CONTINUOUS
10
5.904
20
-3.31249
11
5.87151
21
-3.28
0
LINE
8
BLACK
6
CONTINUOUS
10
5.87151
20
-3.28
11
5.82
21
-3.28
0
LINE
8
BLACK
6
CONTINUOUS
10
5.82
20
-3.28
11
5.82
21
-3.22849
0
LINE
8
BLACK
6
CONTINUOUS
10
5.82
20
-3.22849
11
5.77751
21
-3.186
0
LINE
8
BLACK
6
CONTINUOUS
10
5.77751
20
-3.186
11
5.65249
21
-3.186
0
LINE
8
BLACK
6
CONTINUOUS
10
5.65249
20
-3.186
11
5.60424
21
-3.23424
0
LINE
8
BLACK
6
CONTINUOUS
10
5.60424
20
-3.23424
11
5.60356
21
-3.23464
0
LINE
8
BLACK
6
CONTINUOUS
10
5.60356
20
-3.23464
11
5.603
21
-3.2352
0
LINE
8
BLACK
6
CONTINUOUS
10
5.603
20
-3.2352
11
5.60224
21
-3.2354
0
LINE
8
BLACK
6
CONTINUOUS
10
5.60224
20
-3.2354
11
5.60155
21
-3.2358
0
LINE
8
BLACK
6
CONTINUOUS
10
5.60155
20
-3.2358
11
5.60076
21
-3.2358
0
LINE
8
BLACK
6
CONTINUOUS
10
5.60076
20
-3.2358
11
5.6
21
-3.236
0
LINE
8
BLACK
6
CONTINUOUS
10
5.6
20
-3.236
11
5.55795
21
-3.236
0
LINE
8
BLACK
6
CONTINUOUS
10
5.55795
20
-3.236
11
5.55795
21
-3.26543
0
LINE
8
BLACK
6
CONTINUOUS
10
5.55795
20
-3.26543
11
5.45953
21
-3.26543
0
LINE
8
BLACK
6
CONTINUOUS
10
5.45953
20
-3.26543
11
5.45953
21
-3.19457
0
LINE
8
BLACK
6
CONTINUOUS
10
5.45953
20
-3.19457
11
5.55795
21
-3.19457
0
LINE
8
BLACK
6
CONTINUOUS
10
5.55795
20
-3.19457
11
5.55795
21
-3.224
0
LINE
8
BLACK
6
CONTINUOUS
10
5.55795
20
-3.224
11
5.59751
21
-3.224
0
LINE
8
BLACK
6
CONTINUOUS
10
5.59751
20
-3.224
11
5.64576
21
-3.17576
0
LINE
8
BLACK
6
CONTINUOUS
10
5.64576
20
-3.17576
11
5.64644
21
-3.17536
0
LINE
8
BLACK
6
CONTINUOUS
10
5.64644
20
-3.17536
11
5.647
21
-3.1748
0
LINE
8
BLACK
6
CONTINUOUS
10
5.647
20
-3.1748
11
5.64776
21
-3.1746
0
LINE
8
BLACK
6
CONTINUOUS
10
5.64776
20
-3.1746
11
5.64845
21
-3.1742
0
LINE
8
BLACK
6
CONTINUOUS
10
5.64845
20
-3.1742
11
5.64924
21
-3.1742
0
LINE
8
BLACK
6
CONTINUOUS
10
5.64924
20
-3.1742
11
5.65
21
-3.174
0
LINE
8
BLACK
6
CONTINUOUS
10
5.65
20
-3.174
11
5.78
21
-3.174
0
LINE
8
BLACK
6
CONTINUOUS
10
5.78
20
-3.174
11
5.78076
21
-3.1742
0
LINE
8
BLACK
6
CONTINUOUS
10
5.78
20
-3.58
11
5.72
21
-3.58
0
LINE
8
BLACK
6
CONTINUOUS
10
5.72
20
-3.58
11
5.72
21
-3.52
0
LINE
8
BLACK
6
CONTINUOUS
10
5.72
20
-3.52
11
5.78
21
-3.52
0
LINE
8
BLACK
6
CONTINUOUS
10
5.78
20
-3.52
11
5.78
21
-3.58
0
LINE
8
BLACK
6
CONTINUOUS
10
5.88
20
-3.48
11
5.86
21
-3.48
0
LINE
8
BLACK
6
CONTINUOUS
10
5.86
20
-3.48
11
5.86
21
-3.52
0
LINE
8
BLACK
6
CONTINUOUS
10
5.86
20
-3.52
11
5.88
21
-3.52
0
LINE
8
BLACK
6
CONTINUOUS
10
5.88
20
-3.52
11
5.88
21
-3.58
0
LINE
8
BLACK
6
CONTINUOUS
10
5.88
20
-3.58
11
5.82
21
-3.58
0
LINE
8
BLACK
6
CONTINUOUS
10
5.82
20
-3.58
11
5.82
21
-3.52
0
LINE
8
BLACK
6
CONTINUOUS
10
5.82
20
-3.52
11
5.84
21
-3.52
0
LINE
8
BLACK
6
CONTINUOUS
10
5.84
20
-3.52
11
5.84
21
-3.48
0
LINE
8
BLACK
6
CONTINUOUS
10
5.84
20
-3.48
11
5.82
21
-3.48
0
LINE
8
BLACK
6
CONTINUOUS
10
5.82
20
-3.48
11
5.82
21
-3.42
0
LINE
8
BLACK
6
CONTINUOUS
10
5.82
20
-3.42
11
5.88
21
-3.42
0
LINE
8
BLACK
6
CONTINUOUS
10
5.88
20
-3.42
11
5.88
21
-3.48
0
LINE
8
BLACK
6
CONTINUOUS
10
5.78
20
-3.48
11
5.72
21
-3.48
0
LINE
8
BLACK
6
CONTINUOUS
10
5.72
20
-3.48
11
5.72
21
-3.42
0
LINE
8
BLACK
6
CONTINUOUS
10
5.72
20
-3.42
11
5.78
21
-3.42
0
LINE
8
BLACK
6
CONTINUOUS
10
5.78
20
-3.42
11
5.78
21
-3.48
0
LINE
8
BLACK
6
CONTINUOUS
10
5.64717
20
-3.4578
11
5.5822
21
-3.4578
0
LINE
8
BLACK
6
CONTINUOUS
10
5.5822
20
-3.4578
11
5.5822
21
-3.4322
0
LINE
8
BLACK
6
CONTINUOUS
10
5.5822
20
-3.4322
11
5.64717
21
-3.4322
0
LINE
8
BLACK
6
CONTINUOUS
10
5.64717
20
-3.4322
11
5.64717
21
-3.4578
0
LINE
8
BLACK
6
CONTINUOUS
10
5.78
20
-3.38
11
5.72849
21
-3.38
0
LINE
8
BLACK
6
CONTINUOUS
10
5.72849
20
-3.38
11
5.70924
21
-3.39924
0
LINE
8
BLACK
6
CONTINUOUS
10
5.70924
20
-3.39924
11
5.70856
21
-3.39964
0
LINE
8
BLACK
6
CONTINUOUS
10
5.70856
20
-3.39964
11
5.708
21
-3.4002
0
LINE
8
BLACK
6
CONTINUOUS
10
5.708
20
-3.4002
11
5.70724
21
-3.4004
0
LINE
8
BLACK
6
CONTINUOUS
10
5.70724
20
-3.4004
11
5.70655
21
-3.4008
0
LINE
8
BLACK
6
CONTINUOUS
10
5.70655
20
-3.4008
11
5.70576
21
-3.4008
0
LINE
8
BLACK
6
CONTINUOUS
10
5.70576
20
-3.4008
11
5.705
21
-3.401
0
LINE
8
BLACK
6
CONTINUOUS
10
5.705
20
-3.401
11
5.64717
21
-3.401
0
LINE
8
BLACK
6
CONTINUOUS
10
5.64717
20
-3.401
11
5.64717
21
-3.4078
0
LINE
8
BLACK
6
CONTINUOUS
10
5.64717
20
-3.4078
11
5.5822
21
-3.4078
0
LINE
8
BLACK
6
CONTINUOUS
10
5.5822
20
-3.4078
11
5.5822
21
-3.3822
0
LINE
8
BLACK
6
CONTINUOUS
10
5.5822
20
-3.3822
11
5.64717
21
-3.3822
0
LINE
8
BLACK
6
CONTINUOUS
10
5.64717
20
-3.3822
11
5.64717
21
-3.389
0
LINE
8
BLACK
6
CONTINUOUS
10
5.64717
20
-3.389
11
5.70251
21
-3.389
0
LINE
8
BLACK
6
CONTINUOUS
10
5.70251
20
-3.389
11
5.72
21
-3.37151
0
LINE
8
BLACK
6
CONTINUOUS
10
5.72
20
-3.37151
11
5.72
21
-3.32
0
LINE
8
BLACK
6
CONTINUOUS
10
5.72
20
-3.32
11
5.78
21
-3.32
0
LINE
8
BLACK
6
CONTINUOUS
10
5.78
20
-3.32
11
5.78
21
-3.38
0
LINE
8
BLACK
6
CONTINUOUS
10
5.80076
20
-3.2942
11
5.80155
21
-3.2942
0
LINE
8
BLACK
6
CONTINUOUS
10
5.80155
20
-3.2942
11
5.80224
21
-3.2946
0
LINE
8
BLACK
6
CONTINUOUS
10
5.80224
20
-3.2946
11
5.803
21
-3.2948
0
LINE
8
BLACK
6
CONTINUOUS
10
5.803
20
-3.2948
11
5.80356
21
-3.29536
0
LINE
8
BLACK
6
CONTINUOUS
10
5.80356
20
-3.29536
11
5.80424
21
-3.29576
0
LINE
8
BLACK
6
CONTINUOUS
10
5.80424
20
-3.29576
11
5.82849
21
-3.32
0
LINE
8
BLACK
6
CONTINUOUS
10
5.82849
20
-3.32
11
5.88
21
-3.32
0
LINE
8
BLACK
6
CONTINUOUS
10
5.88
20
-3.32
11
5.88
21
-3.38
0
LINE
8
BLACK
6
CONTINUOUS
10
5.88
20
-3.38
11
5.82
21
-3.38
0
LINE
8
BLACK
6
CONTINUOUS
10
5.82
20
-3.38
11
5.82
21
-3.32849
0
LINE
8
BLACK
6
CONTINUOUS
10
5.82
20
-3.32849
11
5.79751
21
-3.306
0
LINE
8
BLACK
6
CONTINUOUS
10
5.79751
20
-3.306
11
5.71249
21
-3.306
0
LINE
8
BLACK
6
CONTINUOUS
10
5.71249
20
-3.306
11
5.66924
21
-3.34924
0
LINE
8
BLACK
6
CONTINUOUS
10
5.66924
20
-3.34924
11
5.66856
21
-3.34964
0
LINE
8
BLACK
6
CONTINUOUS
10
5.66856
20
-3.34964
11
5.668
21
-3.3502
0
LINE
8
BLACK
6
CONTINUOUS
10
5.668
20
-3.3502
11
5.66724
21
-3.3504
0
LINE
8
BLACK
6
CONTINUOUS
10
5.66724
20
-3.3504
11
5.66655
21
-3.3508
0
LINE
8
BLACK
6
CONTINUOUS
10
5.66655
20
-3.3508
11
5.66576
21
-3.3508
0
LINE
8
BLACK
6
CONTINUOUS
10
5.66576
20
-3.3508
11
5.665
21
-3.351
0
LINE
8
BLACK
6
CONTINUOUS
10
5.665
20
-3.351
11
5.64717
21
-3.351
0
LINE
8
BLACK
6
CONTINUOUS
10
5.64717
20
-3.351
11
5.64717
21
-3.3578
0
LINE
8
BLACK
6
CONTINUOUS
10
5.64717
20
-3.3578
11
5.5822
21
-3.3578
0
LINE
8
BLACK
6
CONTINUOUS
10
5.5822
20
-3.3578
11
5.5822
21
-3.3322
0
LINE
8
BLACK
6
CONTINUOUS
10
5.5822
20
-3.3322
11
5.64717
21
-3.3322
0
LINE
8
BLACK
6
CONTINUOUS
10
5.64717
20
-3.3322
11
5.64717
21
-3.339
0
LINE
8
BLACK
6
CONTINUOUS
10
5.64717
20
-3.339
11
5.66251
21
-3.339
0
LINE
8
BLACK
6
CONTINUOUS
10
5.66251
20
-3.339
11
5.70576
21
-3.29576
0
LINE
8
BLACK
6
CONTINUOUS
10
5.70576
20
-3.29576
11
5.70644
21
-3.29536
0
LINE
8
BLACK
6
CONTINUOUS
10
5.70644
20
-3.29536
11
5.707
21
-3.2948
0
LINE
8
BLACK
6
CONTINUOUS
10
5.707
20
-3.2948
11
5.70776
21
-3.2946
0
LINE
8
BLACK
6
CONTINUOUS
10
5.70776
20
-3.2946
11
5.70845
21
-3.2942
0
LINE
8
BLACK
6
CONTINUOUS
10
5.70845
20
-3.2942
11
5.70924
21
-3.2942
0
LINE
8
BLACK
6
CONTINUOUS
10
5.70924
20
-3.2942
11
5.71
21
-3.294
0
LINE
8
BLACK
6
CONTINUOUS
10
5.71
20
-3.294
11
5.8
21
-3.294
0
LINE
8
BLACK
6
CONTINUOUS
10
5.8
20
-3.294
11
5.80076
21
-3.2942
0
LINE
8
BLACK
6
CONTINUOUS
10
5.50487
20
-3.43502
11
5.50926
21
-3.43726
0
LINE
8
BLACK
6
CONTINUOUS
10
5.50926
20
-3.43726
11
5.51274
21
-3.44074
0
LINE
8
BLACK
6
CONTINUOUS
10
5.51274
20
-3.44074
11
5.51498
21
-3.44513
0
LINE
8
BLACK
6
CONTINUOUS
10
5.51498
20
-3.44513
11
5.51575
21
-3.45
0
LINE
8
BLACK
6
CONTINUOUS
10
5.51575
20
-3.45
11
5.51498
21
-3.45487
0
LINE
8
BLACK
6
CONTINUOUS
10
5.51498
20
-3.45487
11
5.51274
21
-3.45926
0
LINE
8
BLACK
6
CONTINUOUS
10
5.51274
20
-3.45926
11
5.50926
21
-3.46274
0
LINE
8
BLACK
6
CONTINUOUS
10
5.50926
20
-3.46274
11
5.50487
21
-3.46498
0
LINE
8
BLACK
6
CONTINUOUS
10
5.50487
20
-3.46498
11
5.5
21
-3.46575
0
LINE
8
BLACK
6
CONTINUOUS
10
5.5
20
-3.46575
11
5.49513
21
-3.46498
0
LINE
8
BLACK
6
CONTINUOUS
10
5.49513
20
-3.46498
11
5.49406
21
-3.46443
0
LINE
8
BLACK
6
CONTINUOUS
10
5.49406
20
-3.46443
11
5.45924
21
-3.49924
0
LINE
8
BLACK
6
CONTINUOUS
10
5.45924
20
-3.49924
11
5.45856
21
-3.49964
0
LINE
8
BLACK
6
CONTINUOUS
10
5.45856
20
-3.49964
11
5.458
21
-3.5002
0
LINE
8
BLACK
6
CONTINUOUS
10
5.458
20
-3.5002
11
5.45724
21
-3.5004
0
LINE
8
BLACK
6
CONTINUOUS
10
5.45724
20
-3.5004
11
5.45655
21
-3.5008
0
LINE
8
BLACK
6
CONTINUOUS
10
5.45655
20
-3.5008
11
5.45576
21
-3.5008
0
LINE
8
BLACK
6
CONTINUOUS
10
5.45576
20
-3.5008
11
5.455
21
-3.501
0
LINE
8
BLACK
6
CONTINUOUS
10
5.455
20
-3.501
11
5.3578
21
-3.501
0
LINE
8
BLACK
6
CONTINUOUS
10
5.3578
20
-3.501
11
5.3578
21
-3.5078
0
LINE
8
BLACK
6
CONTINUOUS
10
5.3578
20
-3.5078
11
5.29283
21
-3.5078
0
LINE
8
BLACK
6
CONTINUOUS
10
5.29283
20
-3.5078
11
5.29283
21
-3.4822
0
LINE
8
BLACK
6
CONTINUOUS
10
5.29283
20
-3.4822
11
5.3578
21
-3.4822
0
LINE
8
BLACK
6
CONTINUOUS
10
5.3578
20
-3.4822
11
5.3578
21
-3.489
0
LINE
8
BLACK
6
CONTINUOUS
10
5.3578
20
-3.489
11
5.45251
21
-3.489
0
LINE
8
BLACK
6
CONTINUOUS
10
5.45251
20
-3.489
11
5.48557
21
-3.45594
0
LINE
8
BLACK
6
CONTINUOUS
10
5.48557
20
-3.45594
11
5.48502
21
-3.45487
0
LINE
8
BLACK
6
CONTINUOUS
10
5.48502
20
-3.45487
11
5.48425
21
-3.45
0
LINE
8
BLACK
6
CONTINUOUS
10
5.48425
20
-3.45
11
5.48502
21
-3.44513
0
LINE
8
BLACK
6
CONTINUOUS
10
5.48502
20
-3.44513
11
5.48726
21
-3.44074
0
LINE
8
BLACK
6
CONTINUOUS
10
5.48726
20
-3.44074
11
5.49074
21
-3.43726
0
LINE
8
BLACK
6
CONTINUOUS
10
5.49074
20
-3.43726
11
5.49513
21
-3.43502
0
LINE
8
BLACK
6
CONTINUOUS
10
5.49513
20
-3.43502
11
5.5
21
-3.43425
0
LINE
8
BLACK
6
CONTINUOUS
10
5.5
20
-3.43425
11
5.50487
21
-3.43502
0
LINE
8
BLACK
6
CONTINUOUS
10
5.78
20
-3.28
11
5.72
21
-3.28
0
LINE
8
BLACK
6
CONTINUOUS
10
5.72
20
-3.28
11
5.72
21
-3.256
0
LINE
8
BLACK
6
CONTINUOUS
10
5.72
20
-3.256
11
5.62249
21
-3.256
0
LINE
8
BLACK
6
CONTINUOUS
10
5.62249
20
-3.256
11
5.42924
21
-3.44924
0
LINE
8
BLACK
6
CONTINUOUS
10
5.42924
20
-3.44924
11
5.42856
21
-3.44964
0
LINE
8
BLACK
6
CONTINUOUS
10
5.42856
20
-3.44964
11
5.428
21
-3.4502
0
LINE
8
BLACK
6
CONTINUOUS
10
5.428
20
-3.4502
11
5.42724
21
-3.4504
0
LINE
8
BLACK
6
CONTINUOUS
10
5.42724
20
-3.4504
11
5.42655
21
-3.4508
0
LINE
8
BLACK
6
CONTINUOUS
10
5.42655
20
-3.4508
11
5.42576
21
-3.4508
0
LINE
8
BLACK
6
CONTINUOUS
10
5.42576
20
-3.4508
11
5.425
21
-3.451
0
LINE
8
BLACK
6
CONTINUOUS
10
5.425
20
-3.451
11
5.3578
21
-3.451
0
LINE
8
BLACK
6
CONTINUOUS
10
5.3578
20
-3.451
11
5.3578
21
-3.4578
0
LINE
8
BLACK
6
CONTINUOUS
10
5.3578
20
-3.4578
11
5.29283
21
-3.4578
0
LINE
8
BLACK
6
CONTINUOUS
10
5.29283
20
-3.4578
11
5.29283
21
-3.4322
0
LINE
8
BLACK
6
CONTINUOUS
10
5.29283
20
-3.4322
11
5.3578
21
-3.4322
0
LINE
8
BLACK
6
CONTINUOUS
10
5.3578
20
-3.4322
11
5.3578
21
-3.439
0
LINE
8
BLACK
6
CONTINUOUS
10
5.3578
20
-3.439
11
5.42251
21
-3.439
0
LINE
8
BLACK
6
CONTINUOUS
10
5.42251
20
-3.439
11
5.61576
21
-3.24576
0
LINE
8
BLACK
6
CONTINUOUS
10
5.61576
20
-3.24576
11
5.61644
21
-3.24536
0
LINE
8
BLACK
6
CONTINUOUS
10
5.61644
20
-3.24536
11
5.617
21
-3.2448
0
LINE
8
BLACK
6
CONTINUOUS
10
5.617
20
-3.2448
11
5.61776
21
-3.2446
0
LINE
8
BLACK
6
CONTINUOUS
10
5.61776
20
-3.2446
11
5.61845
21
-3.2442
0
LINE
8
BLACK
6
CONTINUOUS
10
5.61845
20
-3.2442
11
5.61924
21
-3.2442
0
LINE
8
BLACK
6
CONTINUOUS
10
5.61924
20
-3.2442
11
5.62
21
-3.244
0
LINE
8
BLACK
6
CONTINUOUS
10
5.62
20
-3.244
11
5.72
21
-3.244
0
LINE
8
BLACK
6
CONTINUOUS
10
5.72
20
-3.244
11
5.72
21
-3.22
0
LINE
8
BLACK
6
CONTINUOUS
10
5.72
20
-3.22
11
5.78
21
-3.22
0
LINE
8
BLACK
6
CONTINUOUS
10
5.78
20
-3.22
11
5.78
21
-3.28
0
LINE
8
BLACK
6
CONTINUOUS
10
5.3578
20
-3.394
11
5.3856
21
-3.394
0
LINE
8
BLACK
6
CONTINUOUS
10
5.3856
20
-3.394
11
5.38726
21
-3.39074
0
LINE
8
BLACK
6
CONTINUOUS
10
5.38726
20
-3.39074
11
5.39074
21
-3.38726
0
LINE
8
BLACK
6
CONTINUOUS
10
5.39074
20
-3.38726
11
5.39513
21
-3.38502
0
LINE
8
BLACK
6
CONTINUOUS
10
5.39513
20
-3.38502
11
5.4
21
-3.38425
0
LINE
8
BLACK
6
CONTINUOUS
10
5.4
20
-3.38425
11
5.40487
21
-3.38502
0
LINE
8
BLACK
6
CONTINUOUS
10
5.40487
20
-3.38502
11
5.40926
21
-3.38726
0
LINE
8
BLACK
6
CONTINUOUS
10
5.40926
20
-3.38726
11
5.41274
21
-3.39074
0
LINE
8
BLACK
6
CONTINUOUS
10
5.41274
20
-3.39074
11
5.41498
21
-3.39513
0
LINE
8
BLACK
6
CONTINUOUS
10
5.41498
20
-3.39513
11
5.41575
21
-3.4
0
LINE
8
BLACK
6
CONTINUOUS
10
5.41575
20
-3.4
11
5.41498
21
-3.40487
0
LINE
8
BLACK
6
CONTINUOUS
10
5.41498
20
-3.40487
11
5.41274
21
-3.40926
0
LINE
8
BLACK
6
CONTINUOUS
10
5.41274
20
-3.40926
11
5.40926
21
-3.41274
0
LINE
8
BLACK
6
CONTINUOUS
10
5.40926
20
-3.41274
11
5.40487
21
-3.41498
0
LINE
8
BLACK
6
CONTINUOUS
10
5.40487
20
-3.41498
11
5.4
21
-3.41575
0
LINE
8
BLACK
6
CONTINUOUS
10
5.4
20
-3.41575
11
5.39513
21
-3.41498
0
LINE
8
BLACK
6
CONTINUOUS
10
5.39513
20
-3.41498
11
5.39074
21
-3.41274
0
LINE
8
BLACK
6
CONTINUOUS
10
5.39074
20
-3.41274
11
5.38726
21
-3.40926
0
LINE
8
BLACK
6
CONTINUOUS
10
5.38726
20
-3.40926
11
5.3856
21
-3.406
0
LINE
8
BLACK
6
CONTINUOUS
10
5.3856
20
-3.406
11
5.3578
21
-3.406
0
LINE
8
BLACK
6
CONTINUOUS
10
5.3578
20
-3.406
11
5.3578
21
-3.4078
0
LINE
8
BLACK
6
CONTINUOUS
10
5.3578
20
-3.4078
11
5.29283
21
-3.4078
0
LINE
8
BLACK
6
CONTINUOUS
10
5.29283
20
-3.4078
11
5.29283
21
-3.3822
0
LINE
8
BLACK
6
CONTINUOUS
10
5.29283
20
-3.3822
11
5.3578
21
-3.3822
0
LINE
8
BLACK
6
CONTINUOUS
10
5.3578
20
-3.3822
11
5.3578
21
-3.394
0
CIRCLE
8
BLACK
10
5.44
20
-3.6
40
0.00787402
0
CIRCLE
8
BLACK
10
5.26
20
-3.34
40
0.00787402
0
CIRCLE
8
BLACK
10
5.57
20
-3.73
40
0.00787402
0
CIRCLE
8
BLACK
10
5.62
20
-3.73
40
0.00787402
0
CIRCLE
8
BLACK
10
5.26
20
-3.19
40
0.00787402
0
CIRCLE
8
BLACK
10
5.44
20
-3.56
40
0.00787402
0
CIRCLE
8
BLACK
10
5.26
20
-3.27
40
0.00787402
0
CIRCLE
8
BLACK
10
5.4
20
-3.34
40
0.00787402
0
CIRCLE
8
BLACK
10
5.26
20
-3.23
40
0.00787402
0
CIRCLE
8
BLACK
10
5.5
20
-3.65
40
0.00787402
0
CIRCLE
8
BLACK
10
5.5
20
-3.45
40
0.00787402
0
CIRCLE
8
BLACK
10
5.4
20
-3.4
40
0.00787402
  0
ENDSEC
  0
EOF
