  0
SECTION
  2
HEADER
  9
$ANGBASE
  50
0.0
  9
$ANGDIR
  70
1
  9
$MEASUREMENT
  70
0
  0
ENDSEC
  0
SECTION
  2
TABLES
  0
TABLE
  2
LTYPE
  70
4
  0
LTYPE
  5
40F
  2
CONTINUOUS
  70
0
  3
Solid line
  72
65
  73
0
  40
0.0
  0
LTYPE
  5
410
  2
DASHDOT
 70
0
  3
Dash Dot ____ _ ____ _
 72
65
 73
4
 40
2.0
 49
1.25
 49
-0.25
 49
0.25
 49
-0.25
  0
LTYPE
  5
411
  2
DASHED
 70
0
  3
Dashed __ __ __ __ __
 72
65
 73
2
 40
0.75
 49
0.5
 49
-0.25
  0
LTYPE
  5
43B
  2
DOTTED
 70
0
  3
Dotted .  .  .  .
 72
65
 73
2
 40
0.2
 49
0.0
 49
-0.2
  0
ENDTAB
  0
TABLE
  2
STYLE
  70
4
  0
STYLE
  2
KICAD
  70
0
  40
0
  41
1
  42
1
  50
0
  71
0
  3
isocp.shx
  0
STYLE
  2
KICADB
  70
0
  40
0
  41
1
  42
1
  50
0
  71
0
  3
isocp.shx
  0
STYLE
  2
KICADI
  70
0
  40
0
  41
1
  42
1
  50
15
  71
0
  3
isocp.shx
  0
STYLE
  2
KICADBI
  70
0
  40
0
  41
1
  42
1
  50
15
  71
0
  3
isocp.shx
  0
ENDTAB
  0
TABLE
  2
LAYER
  70
1
  0
LAYER
  2
BLACK
  70
0
  62
7
  6
CONTINUOUS
  0
ENDTAB
  0
ENDSEC
  0
SECTION
  2
ENTITIES
0
LINE
8
BLACK
6
CONTINUOUS
10
5.59008
20
-3.7159
11
5.59077
21
-3.7178
0
LINE
8
BLACK
6
CONTINUOUS
10
5.59077
20
-3.7178
11
5.59077
21
-3.73842
0
LINE
8
BLACK
6
CONTINUOUS
10
5.59077
20
-3.73842
11
5.59059
21
-3.73943
0
LINE
8
BLACK
6
CONTINUOUS
10
5.59059
20
-3.73943
11
5.59048
21
-3.73957
0
LINE
8
BLACK
6
CONTINUOUS
10
5.59048
20
-3.73957
11
5.59045
21
-3.73974
0
LINE
8
BLACK
6
CONTINUOUS
10
5.59045
20
-3.73974
11
5.58858
21
-3.74349
0
LINE
8
BLACK
6
CONTINUOUS
10
5.58858
20
-3.74349
11
5.58797
21
-3.74432
0
LINE
8
BLACK
6
CONTINUOUS
10
5.58797
20
-3.74432
11
5.58756
21
-3.74449
0
LINE
8
BLACK
6
CONTINUOUS
10
5.58756
20
-3.74449
11
5.58726
21
-3.74481
0
LINE
8
BLACK
6
CONTINUOUS
10
5.58726
20
-3.74481
11
5.58351
21
-3.74669
0
LINE
8
BLACK
6
CONTINUOUS
10
5.58351
20
-3.74669
11
5.58253
21
-3.74698
0
LINE
8
BLACK
6
CONTINUOUS
10
5.58253
20
-3.74698
11
5.58236
21
-3.74694
0
LINE
8
BLACK
6
CONTINUOUS
10
5.58236
20
-3.74694
11
5.58219
21
-3.747
0
LINE
8
BLACK
6
CONTINUOUS
10
5.58219
20
-3.747
11
5.57657
21
-3.747
0
LINE
8
BLACK
6
CONTINUOUS
10
5.57657
20
-3.747
11
5.57556
21
-3.74682
0
LINE
8
BLACK
6
CONTINUOUS
10
5.57556
20
-3.74682
11
5.57542
21
-3.74671
0
LINE
8
BLACK
6
CONTINUOUS
10
5.57542
20
-3.74671
11
5.57524
21
-3.74669
0
LINE
8
BLACK
6
CONTINUOUS
10
5.57524
20
-3.74669
11
5.5732
21
-3.74567
0
LINE
8
BLACK
6
CONTINUOUS
10
5.5732
20
-3.74567
11
5.57242
21
-3.74661
0
LINE
8
BLACK
6
CONTINUOUS
10
5.57242
20
-3.74661
11
5.57043
21
-3.74696
0
LINE
8
BLACK
6
CONTINUOUS
10
5.57043
20
-3.74696
11
5.56868
21
-3.74595
0
LINE
8
BLACK
6
CONTINUOUS
10
5.56868
20
-3.74595
11
5.56799
21
-3.74405
0
LINE
8
BLACK
6
CONTINUOUS
10
5.56799
20
-3.74405
11
5.56799
21
-3.7178
0
LINE
8
BLACK
6
CONTINUOUS
10
5.56799
20
-3.7178
11
5.56817
21
-3.71679
0
LINE
8
BLACK
6
CONTINUOUS
10
5.56817
20
-3.71679
11
5.56946
21
-3.71524
0
LINE
8
BLACK
6
CONTINUOUS
10
5.56946
20
-3.71524
11
5.57145
21
-3.71489
0
LINE
8
BLACK
6
CONTINUOUS
10
5.57145
20
-3.71489
11
5.5732
21
-3.7159
0
LINE
8
BLACK
6
CONTINUOUS
10
5.5732
20
-3.7159
11
5.57389
21
-3.7178
0
LINE
8
BLACK
6
CONTINUOUS
10
5.57389
20
-3.7178
11
5.57389
21
-3.73908
0
LINE
8
BLACK
6
CONTINUOUS
10
5.57389
20
-3.73908
11
5.57456
21
-3.73975
0
LINE
8
BLACK
6
CONTINUOUS
10
5.57456
20
-3.73975
11
5.57726
21
-3.7411
0
LINE
8
BLACK
6
CONTINUOUS
10
5.57726
20
-3.7411
11
5.58149
21
-3.7411
0
LINE
8
BLACK
6
CONTINUOUS
10
5.58149
20
-3.7411
11
5.58374
21
-3.73997
0
LINE
8
BLACK
6
CONTINUOUS
10
5.58374
20
-3.73997
11
5.58486
21
-3.73773
0
LINE
8
BLACK
6
CONTINUOUS
10
5.58486
20
-3.73773
11
5.58486
21
-3.7178
0
LINE
8
BLACK
6
CONTINUOUS
10
5.58486
20
-3.7178
11
5.58504
21
-3.71679
0
LINE
8
BLACK
6
CONTINUOUS
10
5.58504
20
-3.71679
11
5.58634
21
-3.71524
0
LINE
8
BLACK
6
CONTINUOUS
10
5.58634
20
-3.71524
11
5.58833
21
-3.71489
0
LINE
8
BLACK
6
CONTINUOUS
10
5.58833
20
-3.71489
11
5.59008
21
-3.7159
0
LINE
8
BLACK
6
CONTINUOUS
10
5.61882
20
-3.7019
11
5.61896
21
-3.70202
0
LINE
8
BLACK
6
CONTINUOUS
10
5.61896
20
-3.70202
11
5.61913
21
-3.70204
0
LINE
8
BLACK
6
CONTINUOUS
10
5.61913
20
-3.70204
11
5.62288
21
-3.70391
0
LINE
8
BLACK
6
CONTINUOUS
10
5.62288
20
-3.70391
11
5.62359
21
-3.70444
0
LINE
8
BLACK
6
CONTINUOUS
10
5.62359
20
-3.70444
11
5.62365
21
-3.70446
0
LINE
8
BLACK
6
CONTINUOUS
10
5.62365
20
-3.70446
11
5.62552
21
-3.70634
0
LINE
8
BLACK
6
CONTINUOUS
10
5.62552
20
-3.70634
11
5.62603
21
-3.70706
0
LINE
8
BLACK
6
CONTINUOUS
10
5.62603
20
-3.70706
11
5.62608
21
-3.70711
0
LINE
8
BLACK
6
CONTINUOUS
10
5.62608
20
-3.70711
11
5.62795
21
-3.71086
0
LINE
8
BLACK
6
CONTINUOUS
10
5.62795
20
-3.71086
11
5.6281
21
-3.71134
0
LINE
8
BLACK
6
CONTINUOUS
10
5.6281
20
-3.71134
11
5.62817
21
-3.71146
0
LINE
8
BLACK
6
CONTINUOUS
10
5.62817
20
-3.71146
11
5.63005
21
-3.71896
0
LINE
8
BLACK
6
CONTINUOUS
10
5.63005
20
-3.71896
11
5.63009
21
-3.71955
0
LINE
8
BLACK
6
CONTINUOUS
10
5.63009
20
-3.71955
11
5.63014
21
-3.71968
0
LINE
8
BLACK
6
CONTINUOUS
10
5.63014
20
-3.71968
11
5.63014
21
-3.72905
0
LINE
8
BLACK
6
CONTINUOUS
10
5.63014
20
-3.72905
11
5.63003
21
-3.72963
0
LINE
8
BLACK
6
CONTINUOUS
10
5.63003
20
-3.72963
11
5.63005
21
-3.72977
0
LINE
8
BLACK
6
CONTINUOUS
10
5.63005
20
-3.72977
11
5.62817
21
-3.73727
0
LINE
8
BLACK
6
CONTINUOUS
10
5.62817
20
-3.73727
11
5.62797
21
-3.73773
0
LINE
8
BLACK
6
CONTINUOUS
10
5.62797
20
-3.73773
11
5.62795
21
-3.73787
0
LINE
8
BLACK
6
CONTINUOUS
10
5.62795
20
-3.73787
11
5.62608
21
-3.74162
0
LINE
8
BLACK
6
CONTINUOUS
10
5.62608
20
-3.74162
11
5.62555
21
-3.74233
0
LINE
8
BLACK
6
CONTINUOUS
10
5.62555
20
-3.74233
11
5.62552
21
-3.74239
0
LINE
8
BLACK
6
CONTINUOUS
10
5.62552
20
-3.74239
11
5.62365
21
-3.74426
0
LINE
8
BLACK
6
CONTINUOUS
10
5.62365
20
-3.74426
11
5.62292
21
-3.74477
0
LINE
8
BLACK
6
CONTINUOUS
10
5.62292
20
-3.74477
11
5.62288
21
-3.74481
0
LINE
8
BLACK
6
CONTINUOUS
10
5.62288
20
-3.74481
11
5.61913
21
-3.74669
0
LINE
8
BLACK
6
CONTINUOUS
10
5.61913
20
-3.74669
11
5.61815
21
-3.74698
0
LINE
8
BLACK
6
CONTINUOUS
10
5.61815
20
-3.74698
11
5.61798
21
-3.74694
0
LINE
8
BLACK
6
CONTINUOUS
10
5.61798
20
-3.74694
11
5.61781
21
-3.747
0
LINE
8
BLACK
6
CONTINUOUS
10
5.61781
20
-3.747
11
5.61406
21
-3.747
0
LINE
8
BLACK
6
CONTINUOUS
10
5.61406
20
-3.747
11
5.61305
21
-3.74682
0
LINE
8
BLACK
6
CONTINUOUS
10
5.61305
20
-3.74682
11
5.61292
21
-3.74671
0
LINE
8
BLACK
6
CONTINUOUS
10
5.61292
20
-3.74671
11
5.61274
21
-3.74669
0
LINE
8
BLACK
6
CONTINUOUS
10
5.61274
20
-3.74669
11
5.60899
21
-3.74481
0
LINE
8
BLACK
6
CONTINUOUS
10
5.60899
20
-3.74481
11
5.60828
21
-3.74429
0
LINE
8
BLACK
6
CONTINUOUS
10
5.60828
20
-3.74429
11
5.60822
21
-3.74426
0
LINE
8
BLACK
6
CONTINUOUS
10
5.60822
20
-3.74426
11
5.60635
21
-3.74239
0
LINE
8
BLACK
6
CONTINUOUS
10
5.60635
20
-3.74239
11
5.60584
21
-3.74166
0
LINE
8
BLACK
6
CONTINUOUS
10
5.60584
20
-3.74166
11
5.6058
21
-3.74162
0
LINE
8
BLACK
6
CONTINUOUS
10
5.6058
20
-3.74162
11
5.60392
21
-3.73787
0
LINE
8
BLACK
6
CONTINUOUS
10
5.60392
20
-3.73787
11
5.60378
21
-3.73738
0
LINE
8
BLACK
6
CONTINUOUS
10
5.60378
20
-3.73738
11
5.6037
21
-3.73727
0
LINE
8
BLACK
6
CONTINUOUS
10
5.6037
20
-3.73727
11
5.60182
21
-3.72977
0
LINE
8
BLACK
6
CONTINUOUS
10
5.60182
20
-3.72977
11
5.60178
21
-3.72918
0
LINE
8
BLACK
6
CONTINUOUS
10
5.60178
20
-3.72918
11
5.60173
21
-3.72905
0
LINE
8
BLACK
6
CONTINUOUS
10
5.60173
20
-3.72905
11
5.60173
21
-3.71968
0
LINE
8
BLACK
6
CONTINUOUS
10
5.60173
20
-3.71968
11
5.60184
21
-3.7191
0
LINE
8
BLACK
6
CONTINUOUS
10
5.60184
20
-3.7191
11
5.60182
21
-3.71896
0
LINE
8
BLACK
6
CONTINUOUS
10
5.60182
20
-3.71896
11
5.6037
21
-3.71146
0
LINE
8
BLACK
6
CONTINUOUS
10
5.6037
20
-3.71146
11
5.6039
21
-3.711
0
LINE
8
BLACK
6
CONTINUOUS
10
5.6039
20
-3.711
11
5.60392
21
-3.71086
0
LINE
8
BLACK
6
CONTINUOUS
10
5.60392
20
-3.71086
11
5.6058
21
-3.70711
0
LINE
8
BLACK
6
CONTINUOUS
10
5.6058
20
-3.70711
11
5.60632
21
-3.7064
0
LINE
8
BLACK
6
CONTINUOUS
10
5.60632
20
-3.7064
11
5.60635
21
-3.70634
0
LINE
8
BLACK
6
CONTINUOUS
10
5.60635
20
-3.70634
11
5.60822
21
-3.70446
0
LINE
8
BLACK
6
CONTINUOUS
10
5.60822
20
-3.70446
11
5.60895
21
-3.70396
0
LINE
8
BLACK
6
CONTINUOUS
10
5.60895
20
-3.70396
11
5.60899
21
-3.70391
0
LINE
8
BLACK
6
CONTINUOUS
10
5.60899
20
-3.70391
11
5.61274
21
-3.70204
0
LINE
8
BLACK
6
CONTINUOUS
10
5.61274
20
-3.70204
11
5.61372
21
-3.70174
0
LINE
8
BLACK
6
CONTINUOUS
10
5.61372
20
-3.70174
11
5.61389
21
-3.70179
0
LINE
8
BLACK
6
CONTINUOUS
10
5.61389
20
-3.70179
11
5.61406
21
-3.70173
0
LINE
8
BLACK
6
CONTINUOUS
10
5.61406
20
-3.70173
11
5.61781
21
-3.70173
0
LINE
8
BLACK
6
CONTINUOUS
10
5.61781
20
-3.70173
11
5.61882
21
-3.7019
0
LINE
8
BLACK
6
CONTINUOUS
10
5.61206
20
-3.70898
11
5.61086
21
-3.71018
0
LINE
8
BLACK
6
CONTINUOUS
10
5.61086
20
-3.71018
11
5.60935
21
-3.71321
0
LINE
8
BLACK
6
CONTINUOUS
10
5.60935
20
-3.71321
11
5.60764
21
-3.72004
0
LINE
8
BLACK
6
CONTINUOUS
10
5.60764
20
-3.72004
11
5.60764
21
-3.72869
0
LINE
8
BLACK
6
CONTINUOUS
10
5.60764
20
-3.72869
11
5.60935
21
-3.73552
0
LINE
8
BLACK
6
CONTINUOUS
10
5.60935
20
-3.73552
11
5.61086
21
-3.73855
0
LINE
8
BLACK
6
CONTINUOUS
10
5.61086
20
-3.73855
11
5.61206
21
-3.73975
0
LINE
8
BLACK
6
CONTINUOUS
10
5.61206
20
-3.73975
11
5.61476
21
-3.7411
0
LINE
8
BLACK
6
CONTINUOUS
10
5.61476
20
-3.7411
11
5.61711
21
-3.7411
0
LINE
8
BLACK
6
CONTINUOUS
10
5.61711
20
-3.7411
11
5.61981
21
-3.73975
0
LINE
8
BLACK
6
CONTINUOUS
10
5.61981
20
-3.73975
11
5.62101
21
-3.73855
0
LINE
8
BLACK
6
CONTINUOUS
10
5.62101
20
-3.73855
11
5.62252
21
-3.73552
0
LINE
8
BLACK
6
CONTINUOUS
10
5.62252
20
-3.73552
11
5.62423
21
-3.72869
0
LINE
8
BLACK
6
CONTINUOUS
10
5.62423
20
-3.72869
11
5.62423
21
-3.72004
0
LINE
8
BLACK
6
CONTINUOUS
10
5.62423
20
-3.72004
11
5.62252
21
-3.71321
0
LINE
8
BLACK
6
CONTINUOUS
10
5.62252
20
-3.71321
11
5.62101
21
-3.71018
0
LINE
8
BLACK
6
CONTINUOUS
10
5.62101
20
-3.71018
11
5.61981
21
-3.70898
0
LINE
8
BLACK
6
CONTINUOUS
10
5.61981
20
-3.70898
11
5.61711
21
-3.70763
0
LINE
8
BLACK
6
CONTINUOUS
10
5.61711
20
-3.70763
11
5.61476
21
-3.70763
0
LINE
8
BLACK
6
CONTINUOUS
10
5.61476
20
-3.70763
11
5.61206
21
-3.70898
0
LINE
8
BLACK
6
CONTINUOUS
10
5.65409
20
-3.70185
11
5.65426
21
-3.70184
0
LINE
8
BLACK
6
CONTINUOUS
10
5.65426
20
-3.70184
11
5.65495
21
-3.70235
0
LINE
8
BLACK
6
CONTINUOUS
10
5.65495
20
-3.70235
11
5.65569
21
-3.70278
0
LINE
8
BLACK
6
CONTINUOUS
10
5.65569
20
-3.70278
11
5.65575
21
-3.70294
0
LINE
8
BLACK
6
CONTINUOUS
10
5.65575
20
-3.70294
11
5.65589
21
-3.70304
0
LINE
8
BLACK
6
CONTINUOUS
10
5.65589
20
-3.70304
11
5.65947
21
-3.70842
0
LINE
8
BLACK
6
CONTINUOUS
10
5.65947
20
-3.70842
11
5.66268
21
-3.71162
0
LINE
8
BLACK
6
CONTINUOUS
10
5.66268
20
-3.71162
11
5.666
21
-3.71329
0
LINE
8
BLACK
6
CONTINUOUS
10
5.666
20
-3.71329
11
5.66682
21
-3.7139
0
LINE
8
BLACK
6
CONTINUOUS
10
5.66682
20
-3.7139
11
5.66763
21
-3.71575
0
LINE
8
BLACK
6
CONTINUOUS
10
5.66763
20
-3.71575
11
5.66705
21
-3.71769
0
LINE
8
BLACK
6
CONTINUOUS
10
5.66705
20
-3.71769
11
5.66537
21
-3.7188
0
LINE
8
BLACK
6
CONTINUOUS
10
5.66537
20
-3.7188
11
5.66336
21
-3.71857
0
LINE
8
BLACK
6
CONTINUOUS
10
5.66336
20
-3.71857
11
5.65961
21
-3.71669
0
LINE
8
BLACK
6
CONTINUOUS
10
5.65961
20
-3.71669
11
5.6589
21
-3.71617
0
LINE
8
BLACK
6
CONTINUOUS
10
5.6589
20
-3.71617
11
5.65884
21
-3.71614
0
LINE
8
BLACK
6
CONTINUOUS
10
5.65884
20
-3.71614
11
5.65638
21
-3.71368
0
LINE
8
BLACK
6
CONTINUOUS
10
5.65638
20
-3.71368
11
5.65638
21
-3.7411
0
LINE
8
BLACK
6
CONTINUOUS
10
5.65638
20
-3.7411
11
5.66468
21
-3.7411
0
LINE
8
BLACK
6
CONTINUOUS
10
5.66468
20
-3.7411
11
5.66569
21
-3.74127
0
LINE
8
BLACK
6
CONTINUOUS
10
5.66569
20
-3.74127
11
5.66724
21
-3.74257
0
LINE
8
BLACK
6
CONTINUOUS
10
5.66724
20
-3.74257
11
5.66759
21
-3.74456
0
LINE
8
BLACK
6
CONTINUOUS
10
5.66759
20
-3.74456
11
5.66658
21
-3.74631
0
LINE
8
BLACK
6
CONTINUOUS
10
5.66658
20
-3.74631
11
5.66468
21
-3.747
0
LINE
8
BLACK
6
CONTINUOUS
10
5.66468
20
-3.747
11
5.64218
21
-3.747
0
LINE
8
BLACK
6
CONTINUOUS
10
5.64218
20
-3.747
11
5.64117
21
-3.74682
0
LINE
8
BLACK
6
CONTINUOUS
10
5.64117
20
-3.74682
11
5.63963
21
-3.74552
0
LINE
8
BLACK
6
CONTINUOUS
10
5.63963
20
-3.74552
11
5.63927
21
-3.74354
0
LINE
8
BLACK
6
CONTINUOUS
10
5.63927
20
-3.74354
11
5.64028
21
-3.74179
0
LINE
8
BLACK
6
CONTINUOUS
10
5.64028
20
-3.74179
11
5.64218
21
-3.7411
0
LINE
8
BLACK
6
CONTINUOUS
10
5.64218
20
-3.7411
11
5.65048
21
-3.7411
0
LINE
8
BLACK
6
CONTINUOUS
10
5.65048
20
-3.7411
11
5.65048
21
-3.70468
0
LINE
8
BLACK
6
CONTINUOUS
10
5.65048
20
-3.70468
11
5.65066
21
-3.70367
0
LINE
8
BLACK
6
CONTINUOUS
10
5.65066
20
-3.70367
11
5.65077
21
-3.70354
0
LINE
8
BLACK
6
CONTINUOUS
10
5.65077
20
-3.70354
11
5.65078
21
-3.70337
0
LINE
8
BLACK
6
CONTINUOUS
10
5.65078
20
-3.70337
11
5.6514
21
-3.70278
0
LINE
8
BLACK
6
CONTINUOUS
10
5.6514
20
-3.70278
11
5.65195
21
-3.70212
0
LINE
8
BLACK
6
CONTINUOUS
10
5.65195
20
-3.70212
11
5.65212
21
-3.70209
0
LINE
8
BLACK
6
CONTINUOUS
10
5.65212
20
-3.70209
11
5.65224
21
-3.70197
0
LINE
8
BLACK
6
CONTINUOUS
10
5.65224
20
-3.70197
11
5.6531
21
-3.70192
0
LINE
8
BLACK
6
CONTINUOUS
10
5.6531
20
-3.70192
11
5.65394
21
-3.70177
0
LINE
8
BLACK
6
CONTINUOUS
10
5.65394
20
-3.70177
11
5.65409
21
-3.70185
0
LINE
8
BLACK
6
CONTINUOUS
10
5.55258
20
-3.70179
11
5.55271
21
-3.70177
0
LINE
8
BLACK
6
CONTINUOUS
10
5.55271
20
-3.70177
11
5.55282
21
-3.70184
0
LINE
8
BLACK
6
CONTINUOUS
10
5.55282
20
-3.70184
11
5.5532
21
-3.7019
0
LINE
8
BLACK
6
CONTINUOUS
10
5.5532
20
-3.7019
11
5.55379
21
-3.7024
0
LINE
8
BLACK
6
CONTINUOUS
10
5.55379
20
-3.7024
11
5.55446
21
-3.70278
0
LINE
8
BLACK
6
CONTINUOUS
10
5.55446
20
-3.70278
11
5.55455
21
-3.70303
0
LINE
8
BLACK
6
CONTINUOUS
10
5.55455
20
-3.70303
11
5.55475
21
-3.7032
0
LINE
8
BLACK
6
CONTINUOUS
10
5.55475
20
-3.7032
11
5.55488
21
-3.70396
0
LINE
8
BLACK
6
CONTINUOUS
10
5.55488
20
-3.70396
11
5.55515
21
-3.70468
0
LINE
8
BLACK
6
CONTINUOUS
10
5.55515
20
-3.70468
11
5.55515
21
-3.74405
0
LINE
8
BLACK
6
CONTINUOUS
10
5.55515
20
-3.74405
11
5.55497
21
-3.74506
0
LINE
8
BLACK
6
CONTINUOUS
10
5.55497
20
-3.74506
11
5.55367
21
-3.74661
0
LINE
8
BLACK
6
CONTINUOUS
10
5.55367
20
-3.74661
11
5.55168
21
-3.74696
0
LINE
8
BLACK
6
CONTINUOUS
10
5.55168
20
-3.74696
11
5.54993
21
-3.74595
0
LINE
8
BLACK
6
CONTINUOUS
10
5.54993
20
-3.74595
11
5.54924
21
-3.74405
0
LINE
8
BLACK
6
CONTINUOUS
10
5.54924
20
-3.74405
11
5.54924
21
-3.72638
0
LINE
8
BLACK
6
CONTINUOUS
10
5.54924
20
-3.72638
11
5.53907
21
-3.72638
0
LINE
8
BLACK
6
CONTINUOUS
10
5.53907
20
-3.72638
11
5.53806
21
-3.7262
0
LINE
8
BLACK
6
CONTINUOUS
10
5.53806
20
-3.7262
11
5.53651
21
-3.7249
0
LINE
8
BLACK
6
CONTINUOUS
10
5.53651
20
-3.7249
11
5.53616
21
-3.72291
0
LINE
8
BLACK
6
CONTINUOUS
10
5.53616
20
-3.72291
11
5.53717
21
-3.72116
0
LINE
8
BLACK
6
CONTINUOUS
10
5.53717
20
-3.72116
11
5.53907
21
-3.72047
0
LINE
8
BLACK
6
CONTINUOUS
10
5.53907
20
-3.72047
11
5.54924
21
-3.72047
0
LINE
8
BLACK
6
CONTINUOUS
10
5.54924
20
-3.72047
11
5.54924
21
-3.70763
0
LINE
8
BLACK
6
CONTINUOUS
10
5.54924
20
-3.70763
11
5.53345
21
-3.70763
0
LINE
8
BLACK
6
CONTINUOUS
10
5.53345
20
-3.70763
11
5.53244
21
-3.70745
0
LINE
8
BLACK
6
CONTINUOUS
10
5.53244
20
-3.70745
11
5.53089
21
-3.70615
0
LINE
8
BLACK
6
CONTINUOUS
10
5.53089
20
-3.70615
11
5.53054
21
-3.70417
0
LINE
8
BLACK
6
CONTINUOUS
10
5.53054
20
-3.70417
11
5.53155
21
-3.70242
0
LINE
8
BLACK
6
CONTINUOUS
10
5.53155
20
-3.70242
11
5.53345
21
-3.70173
0
LINE
8
BLACK
6
CONTINUOUS
10
5.53345
20
-3.70173
11
5.55219
21
-3.70173
0
LINE
8
BLACK
6
CONTINUOUS
10
5.55219
20
-3.70173
11
5.55258
21
-3.70179
0
LINE
8
BLACK
6
CONTINUOUS
10
5.58017
20
-3.6219
11
5.5803
21
-3.62202
0
LINE
8
BLACK
6
CONTINUOUS
10
5.5803
20
-3.62202
11
5.58048
21
-3.62204
0
LINE
8
BLACK
6
CONTINUOUS
10
5.58048
20
-3.62204
11
5.58423
21
-3.62391
0
LINE
8
BLACK
6
CONTINUOUS
10
5.58423
20
-3.62391
11
5.58494
21
-3.62444
0
LINE
8
BLACK
6
CONTINUOUS
10
5.58494
20
-3.62444
11
5.58499
21
-3.62446
0
LINE
8
BLACK
6
CONTINUOUS
10
5.58499
20
-3.62446
11
5.58687
21
-3.62634
0
LINE
8
BLACK
6
CONTINUOUS
10
5.58687
20
-3.62634
11
5.58737
21
-3.62706
0
LINE
8
BLACK
6
CONTINUOUS
10
5.58737
20
-3.62706
11
5.58742
21
-3.62711
0
LINE
8
BLACK
6
CONTINUOUS
10
5.58742
20
-3.62711
11
5.5893
21
-3.63086
0
LINE
8
BLACK
6
CONTINUOUS
10
5.5893
20
-3.63086
11
5.58944
21
-3.63134
0
LINE
8
BLACK
6
CONTINUOUS
10
5.58944
20
-3.63134
11
5.58952
21
-3.63146
0
LINE
8
BLACK
6
CONTINUOUS
10
5.58952
20
-3.63146
11
5.59001
21
-3.63343
0
LINE
8
BLACK
6
CONTINUOUS
10
5.59001
20
-3.63343
11
5.61182
21
-3.63343
0
LINE
8
BLACK
6
CONTINUOUS
10
5.61182
20
-3.63343
11
5.61182
21
-3.62468
0
LINE
8
BLACK
6
CONTINUOUS
10
5.61182
20
-3.62468
11
5.612
21
-3.62367
0
LINE
8
BLACK
6
CONTINUOUS
10
5.612
20
-3.62367
11
5.61211
21
-3.62354
0
LINE
8
BLACK
6
CONTINUOUS
10
5.61211
20
-3.62354
11
5.61213
21
-3.62337
0
LINE
8
BLACK
6
CONTINUOUS
10
5.61213
20
-3.62337
11
5.61275
21
-3.62278
0
LINE
8
BLACK
6
CONTINUOUS
10
5.61275
20
-3.62278
11
5.6133
21
-3.62212
0
LINE
8
BLACK
6
CONTINUOUS
10
5.6133
20
-3.62212
11
5.61347
21
-3.62209
0
LINE
8
BLACK
6
CONTINUOUS
10
5.61347
20
-3.62209
11
5.61359
21
-3.62197
0
LINE
8
BLACK
6
CONTINUOUS
10
5.61359
20
-3.62197
11
5.61445
21
-3.62192
0
LINE
8
BLACK
6
CONTINUOUS
10
5.61445
20
-3.62192
11
5.61529
21
-3.62177
0
LINE
8
BLACK
6
CONTINUOUS
10
5.61529
20
-3.62177
11
5.61544
21
-3.62185
0
LINE
8
BLACK
6
CONTINUOUS
10
5.61544
20
-3.62185
11
5.61561
21
-3.62184
0
LINE
8
BLACK
6
CONTINUOUS
10
5.61561
20
-3.62184
11
5.6163
21
-3.62235
0
LINE
8
BLACK
6
CONTINUOUS
10
5.6163
20
-3.62235
11
5.61704
21
-3.62278
0
LINE
8
BLACK
6
CONTINUOUS
10
5.61704
20
-3.62278
11
5.6171
21
-3.62294
0
LINE
8
BLACK
6
CONTINUOUS
10
5.6171
20
-3.62294
11
5.61723
21
-3.62304
0
LINE
8
BLACK
6
CONTINUOUS
10
5.61723
20
-3.62304
11
5.62082
21
-3.62842
0
LINE
8
BLACK
6
CONTINUOUS
10
5.62082
20
-3.62842
11
5.62403
21
-3.63163
0
LINE
8
BLACK
6
CONTINUOUS
10
5.62403
20
-3.63163
11
5.62735
21
-3.63329
0
LINE
8
BLACK
6
CONTINUOUS
10
5.62735
20
-3.63329
11
5.62753
21
-3.63343
0
LINE
8
BLACK
6
CONTINUOUS
10
5.62753
20
-3.63343
11
5.63937
21
-3.63343
0
LINE
8
BLACK
6
CONTINUOUS
10
5.63937
20
-3.63343
11
5.64076
21
-3.634
0
LINE
8
BLACK
6
CONTINUOUS
10
5.64076
20
-3.634
11
5.64134
21
-3.63539
0
LINE
8
BLACK
6
CONTINUOUS
10
5.64134
20
-3.63539
11
5.64134
21
-3.68461
0
LINE
8
BLACK
6
CONTINUOUS
10
5.64134
20
-3.68461
11
5.64076
21
-3.686
0
LINE
8
BLACK
6
CONTINUOUS
10
5.64076
20
-3.686
11
5.63937
21
-3.68657
0
LINE
8
BLACK
6
CONTINUOUS
10
5.63937
20
-3.68657
11
5.56063
21
-3.68657
0
LINE
8
BLACK
6
CONTINUOUS
10
5.56063
20
-3.68657
11
5.55924
21
-3.686
0
LINE
8
BLACK
6
CONTINUOUS
10
5.55924
20
-3.686
11
5.55866
21
-3.68461
0
LINE
8
BLACK
6
CONTINUOUS
10
5.55866
20
-3.68461
11
5.55866
21
-3.63539
0
LINE
8
BLACK
6
CONTINUOUS
10
5.55866
20
-3.63539
11
5.55924
21
-3.634
0
LINE
8
BLACK
6
CONTINUOUS
10
5.55924
20
-3.634
11
5.56063
21
-3.63343
0
LINE
8
BLACK
6
CONTINUOUS
10
5.56063
20
-3.63343
11
5.56455
21
-3.63343
0
LINE
8
BLACK
6
CONTINUOUS
10
5.56455
20
-3.63343
11
5.56504
21
-3.63146
0
LINE
8
BLACK
6
CONTINUOUS
10
5.56504
20
-3.63146
11
5.56525
21
-3.631
0
LINE
8
BLACK
6
CONTINUOUS
10
5.56525
20
-3.631
11
5.56527
21
-3.63086
0
LINE
8
BLACK
6
CONTINUOUS
10
5.56527
20
-3.63086
11
5.56714
21
-3.62711
0
LINE
8
BLACK
6
CONTINUOUS
10
5.56714
20
-3.62711
11
5.56767
21
-3.6264
0
LINE
8
BLACK
6
CONTINUOUS
10
5.56767
20
-3.6264
11
5.56769
21
-3.62634
0
LINE
8
BLACK
6
CONTINUOUS
10
5.56769
20
-3.62634
11
5.56957
21
-3.62446
0
LINE
8
BLACK
6
CONTINUOUS
10
5.56957
20
-3.62446
11
5.57029
21
-3.62396
0
LINE
8
BLACK
6
CONTINUOUS
10
5.57029
20
-3.62396
11
5.57034
21
-3.62391
0
LINE
8
BLACK
6
CONTINUOUS
10
5.57034
20
-3.62391
11
5.57409
21
-3.62204
0
LINE
8
BLACK
6
CONTINUOUS
10
5.57409
20
-3.62204
11
5.57507
21
-3.62174
0
LINE
8
BLACK
6
CONTINUOUS
10
5.57507
20
-3.62174
11
5.57524
21
-3.62179
0
LINE
8
BLACK
6
CONTINUOUS
10
5.57524
20
-3.62179
11
5.57541
21
-3.62173
0
LINE
8
BLACK
6
CONTINUOUS
10
5.57541
20
-3.62173
11
5.57916
21
-3.62173
0
LINE
8
BLACK
6
CONTINUOUS
10
5.57916
20
-3.62173
11
5.58017
21
-3.6219
0
LINE
8
BLACK
6
CONTINUOUS
10
5.62849
20
-3.63736
11
5.6284
21
-3.63769
0
LINE
8
BLACK
6
CONTINUOUS
10
5.6284
20
-3.63769
11
5.62671
21
-3.6388
0
LINE
8
BLACK
6
CONTINUOUS
10
5.62671
20
-3.6388
11
5.6247
21
-3.63857
0
LINE
8
BLACK
6
CONTINUOUS
10
5.6247
20
-3.63857
11
5.62229
21
-3.63736
0
LINE
8
BLACK
6
CONTINUOUS
10
5.62229
20
-3.63736
11
5.61773
21
-3.63736
0
LINE
8
BLACK
6
CONTINUOUS
10
5.61773
20
-3.63736
11
5.61773
21
-3.6611
0
LINE
8
BLACK
6
CONTINUOUS
10
5.61773
20
-3.6611
11
5.62603
21
-3.6611
0
LINE
8
BLACK
6
CONTINUOUS
10
5.62603
20
-3.6611
11
5.62704
21
-3.66127
0
LINE
8
BLACK
6
CONTINUOUS
10
5.62704
20
-3.66127
11
5.62858
21
-3.66257
0
LINE
8
BLACK
6
CONTINUOUS
10
5.62858
20
-3.66257
11
5.62893
21
-3.66456
0
LINE
8
BLACK
6
CONTINUOUS
10
5.62893
20
-3.66456
11
5.62792
21
-3.66631
0
LINE
8
BLACK
6
CONTINUOUS
10
5.62792
20
-3.66631
11
5.62603
21
-3.667
0
LINE
8
BLACK
6
CONTINUOUS
10
5.62603
20
-3.667
11
5.61481
21
-3.667
0
LINE
8
BLACK
6
CONTINUOUS
10
5.61481
20
-3.667
11
5.6148
21
-3.667
0
LINE
8
BLACK
6
CONTINUOUS
10
5.6148
20
-3.667
11
5.61471
21
-3.66724
0
LINE
8
BLACK
6
CONTINUOUS
10
5.61471
20
-3.66724
11
5.61283
21
-3.66912
0
LINE
8
BLACK
6
CONTINUOUS
10
5.61283
20
-3.66912
11
5.61249
21
-3.66926
0
LINE
8
BLACK
6
CONTINUOUS
10
5.61249
20
-3.66926
11
5.61222
21
-3.6695
0
LINE
8
BLACK
6
CONTINUOUS
10
5.61222
20
-3.6695
11
5.6094
21
-3.67044
0
LINE
8
BLACK
6
CONTINUOUS
10
5.6094
20
-3.67044
11
5.60914
21
-3.67042
0
LINE
8
BLACK
6
CONTINUOUS
10
5.60914
20
-3.67042
11
5.60891
21
-3.67052
0
LINE
8
BLACK
6
CONTINUOUS
10
5.60891
20
-3.67052
11
5.60703
21
-3.67052
0
LINE
8
BLACK
6
CONTINUOUS
10
5.60703
20
-3.67052
11
5.60679
21
-3.67042
0
LINE
8
BLACK
6
CONTINUOUS
10
5.60679
20
-3.67042
11
5.60653
21
-3.67044
0
LINE
8
BLACK
6
CONTINUOUS
10
5.60653
20
-3.67044
11
5.60372
21
-3.6695
0
LINE
8
BLACK
6
CONTINUOUS
10
5.60372
20
-3.6695
11
5.60344
21
-3.66926
0
LINE
8
BLACK
6
CONTINUOUS
10
5.60344
20
-3.66926
11
5.6031
21
-3.66912
0
LINE
8
BLACK
6
CONTINUOUS
10
5.6031
20
-3.66912
11
5.60217
21
-3.66818
0
LINE
8
BLACK
6
CONTINUOUS
10
5.60217
20
-3.66818
11
5.60171
21
-3.66707
0
LINE
8
BLACK
6
CONTINUOUS
10
5.60171
20
-3.66707
11
5.60199
21
-3.66638
0
LINE
8
BLACK
6
CONTINUOUS
10
5.60199
20
-3.66638
11
5.60097
21
-3.66552
0
LINE
8
BLACK
6
CONTINUOUS
10
5.60097
20
-3.66552
11
5.60062
21
-3.66354
0
LINE
8
BLACK
6
CONTINUOUS
10
5.60062
20
-3.66354
11
5.60163
21
-3.66179
0
LINE
8
BLACK
6
CONTINUOUS
10
5.60163
20
-3.66179
11
5.60353
21
-3.6611
0
LINE
8
BLACK
6
CONTINUOUS
10
5.60353
20
-3.6611
11
5.61182
21
-3.6611
0
LINE
8
BLACK
6
CONTINUOUS
10
5.61182
20
-3.6611
11
5.61182
21
-3.65253
0
LINE
8
BLACK
6
CONTINUOUS
10
5.61182
20
-3.65253
11
5.61087
21
-3.65157
0
LINE
8
BLACK
6
CONTINUOUS
10
5.61087
20
-3.65157
11
5.60865
21
-3.65083
0
LINE
8
BLACK
6
CONTINUOUS
10
5.60865
20
-3.65083
11
5.60729
21
-3.65083
0
LINE
8
BLACK
6
CONTINUOUS
10
5.60729
20
-3.65083
11
5.60507
21
-3.65157
0
LINE
8
BLACK
6
CONTINUOUS
10
5.60507
20
-3.65157
11
5.60439
21
-3.65225
0
LINE
8
BLACK
6
CONTINUOUS
10
5.60439
20
-3.65225
11
5.60328
21
-3.65271
0
LINE
8
BLACK
6
CONTINUOUS
10
5.60328
20
-3.65271
11
5.60217
21
-3.65225
0
LINE
8
BLACK
6
CONTINUOUS
10
5.60217
20
-3.65225
11
5.60171
21
-3.65113
0
LINE
8
BLACK
6
CONTINUOUS
10
5.60171
20
-3.65113
11
5.60217
21
-3.65002
0
LINE
8
BLACK
6
CONTINUOUS
10
5.60217
20
-3.65002
11
5.6031
21
-3.64908
0
LINE
8
BLACK
6
CONTINUOUS
10
5.6031
20
-3.64908
11
5.60344
21
-3.64894
0
LINE
8
BLACK
6
CONTINUOUS
10
5.60344
20
-3.64894
11
5.60372
21
-3.6487
0
LINE
8
BLACK
6
CONTINUOUS
10
5.60372
20
-3.6487
11
5.60653
21
-3.64776
0
LINE
8
BLACK
6
CONTINUOUS
10
5.60653
20
-3.64776
11
5.60679
21
-3.64778
0
LINE
8
BLACK
6
CONTINUOUS
10
5.60679
20
-3.64778
11
5.60703
21
-3.64768
0
LINE
8
BLACK
6
CONTINUOUS
10
5.60703
20
-3.64768
11
5.60891
21
-3.64768
0
LINE
8
BLACK
6
CONTINUOUS
10
5.60891
20
-3.64768
11
5.60914
21
-3.64778
0
LINE
8
BLACK
6
CONTINUOUS
10
5.60914
20
-3.64778
11
5.6094
21
-3.64776
0
LINE
8
BLACK
6
CONTINUOUS
10
5.6094
20
-3.64776
11
5.61182
21
-3.64857
0
LINE
8
BLACK
6
CONTINUOUS
10
5.61182
20
-3.64857
11
5.61182
21
-3.63736
0
LINE
8
BLACK
6
CONTINUOUS
10
5.61182
20
-3.63736
11
5.591
21
-3.63736
0
LINE
8
BLACK
6
CONTINUOUS
10
5.591
20
-3.63736
11
5.59139
21
-3.63896
0
LINE
8
BLACK
6
CONTINUOUS
10
5.59139
20
-3.63896
11
5.59144
21
-3.63955
0
LINE
8
BLACK
6
CONTINUOUS
10
5.59144
20
-3.63955
11
5.59148
21
-3.63968
0
LINE
8
BLACK
6
CONTINUOUS
10
5.59148
20
-3.63968
11
5.59148
21
-3.64841
0
LINE
8
BLACK
6
CONTINUOUS
10
5.59148
20
-3.64841
11
5.59326
21
-3.65107
0
LINE
8
BLACK
6
CONTINUOUS
10
5.59326
20
-3.65107
11
5.59484
21
-3.65265
0
LINE
8
BLACK
6
CONTINUOUS
10
5.59484
20
-3.65265
11
5.59649
21
-3.65347
0
LINE
8
BLACK
6
CONTINUOUS
10
5.59649
20
-3.65347
11
5.59728
21
-3.65438
0
LINE
8
BLACK
6
CONTINUOUS
10
5.59728
20
-3.65438
11
5.59719
21
-3.65559
0
LINE
8
BLACK
6
CONTINUOUS
10
5.59719
20
-3.65559
11
5.59628
21
-3.65638
0
LINE
8
BLACK
6
CONTINUOUS
10
5.59628
20
-3.65638
11
5.59508
21
-3.65629
0
LINE
8
BLACK
6
CONTINUOUS
10
5.59508
20
-3.65629
11
5.5932
21
-3.65535
0
LINE
8
BLACK
6
CONTINUOUS
10
5.5932
20
-3.65535
11
5.59303
21
-3.65516
0
LINE
8
BLACK
6
CONTINUOUS
10
5.59303
20
-3.65516
11
5.59279
21
-3.65506
0
LINE
8
BLACK
6
CONTINUOUS
10
5.59279
20
-3.65506
11
5.59173
21
-3.654
0
LINE
8
BLACK
6
CONTINUOUS
10
5.59173
20
-3.654
11
5.59173
21
-3.66737
0
LINE
8
BLACK
6
CONTINUOUS
10
5.59173
20
-3.66737
11
5.59578
21
-3.66737
0
LINE
8
BLACK
6
CONTINUOUS
10
5.59578
20
-3.66737
11
5.5969
21
-3.66783
0
LINE
8
BLACK
6
CONTINUOUS
10
5.5969
20
-3.66783
11
5.59736
21
-3.66894
0
LINE
8
BLACK
6
CONTINUOUS
10
5.59736
20
-3.66894
11
5.5969
21
-3.67006
0
LINE
8
BLACK
6
CONTINUOUS
10
5.5969
20
-3.67006
11
5.59578
21
-3.67052
0
LINE
8
BLACK
6
CONTINUOUS
10
5.59578
20
-3.67052
11
5.59016
21
-3.67052
0
LINE
8
BLACK
6
CONTINUOUS
10
5.59016
20
-3.67052
11
5.58453
21
-3.67052
0
LINE
8
BLACK
6
CONTINUOUS
10
5.58453
20
-3.67052
11
5.58342
21
-3.67006
0
LINE
8
BLACK
6
CONTINUOUS
10
5.58342
20
-3.67006
11
5.58296
21
-3.66894
0
LINE
8
BLACK
6
CONTINUOUS
10
5.58296
20
-3.66894
11
5.58342
21
-3.66783
0
LINE
8
BLACK
6
CONTINUOUS
10
5.58342
20
-3.66783
11
5.58453
21
-3.66737
0
LINE
8
BLACK
6
CONTINUOUS
10
5.58453
20
-3.66737
11
5.58858
21
-3.66737
0
LINE
8
BLACK
6
CONTINUOUS
10
5.58858
20
-3.66737
11
5.58858
21
-3.6593
0
LINE
8
BLACK
6
CONTINUOUS
10
5.58858
20
-3.6593
11
5.58742
21
-3.66162
0
LINE
8
BLACK
6
CONTINUOUS
10
5.58742
20
-3.66162
11
5.5869
21
-3.66233
0
LINE
8
BLACK
6
CONTINUOUS
10
5.5869
20
-3.66233
11
5.58687
21
-3.66239
0
LINE
8
BLACK
6
CONTINUOUS
10
5.58687
20
-3.66239
11
5.58499
21
-3.66426
0
LINE
8
BLACK
6
CONTINUOUS
10
5.58499
20
-3.66426
11
5.58427
21
-3.66477
0
LINE
8
BLACK
6
CONTINUOUS
10
5.58427
20
-3.66477
11
5.58423
21
-3.66481
0
LINE
8
BLACK
6
CONTINUOUS
10
5.58423
20
-3.66481
11
5.58048
21
-3.66669
0
LINE
8
BLACK
6
CONTINUOUS
10
5.58048
20
-3.66669
11
5.57949
21
-3.66698
0
LINE
8
BLACK
6
CONTINUOUS
10
5.57949
20
-3.66698
11
5.57932
21
-3.66694
0
LINE
8
BLACK
6
CONTINUOUS
10
5.57932
20
-3.66694
11
5.57916
21
-3.667
0
LINE
8
BLACK
6
CONTINUOUS
10
5.57916
20
-3.667
11
5.57541
21
-3.667
0
LINE
8
BLACK
6
CONTINUOUS
10
5.57541
20
-3.667
11
5.5744
21
-3.66682
0
LINE
8
BLACK
6
CONTINUOUS
10
5.5744
20
-3.66682
11
5.57426
21
-3.66671
0
LINE
8
BLACK
6
CONTINUOUS
10
5.57426
20
-3.66671
11
5.57409
21
-3.66669
0
LINE
8
BLACK
6
CONTINUOUS
10
5.57409
20
-3.66669
11
5.57034
21
-3.66481
0
LINE
8
BLACK
6
CONTINUOUS
10
5.57034
20
-3.66481
11
5.56963
21
-3.66429
0
LINE
8
BLACK
6
CONTINUOUS
10
5.56963
20
-3.66429
11
5.56957
21
-3.66426
0
LINE
8
BLACK
6
CONTINUOUS
10
5.56957
20
-3.66426
11
5.56769
21
-3.66239
0
LINE
8
BLACK
6
CONTINUOUS
10
5.56769
20
-3.66239
11
5.56719
21
-3.66166
0
LINE
8
BLACK
6
CONTINUOUS
10
5.56719
20
-3.66166
11
5.56714
21
-3.66162
0
LINE
8
BLACK
6
CONTINUOUS
10
5.56714
20
-3.66162
11
5.56527
21
-3.65787
0
LINE
8
BLACK
6
CONTINUOUS
10
5.56527
20
-3.65787
11
5.56512
21
-3.65738
0
LINE
8
BLACK
6
CONTINUOUS
10
5.56512
20
-3.65738
11
5.56504
21
-3.65727
0
LINE
8
BLACK
6
CONTINUOUS
10
5.56504
20
-3.65727
11
5.56317
21
-3.64977
0
LINE
8
BLACK
6
CONTINUOUS
10
5.56317
20
-3.64977
11
5.56313
21
-3.64918
0
LINE
8
BLACK
6
CONTINUOUS
10
5.56313
20
-3.64918
11
5.56308
21
-3.64905
0
LINE
8
BLACK
6
CONTINUOUS
10
5.56308
20
-3.64905
11
5.56308
21
-3.63968
0
LINE
8
BLACK
6
CONTINUOUS
10
5.56308
20
-3.63968
11
5.56318
21
-3.6391
0
LINE
8
BLACK
6
CONTINUOUS
10
5.56318
20
-3.6391
11
5.56317
21
-3.63896
0
LINE
8
BLACK
6
CONTINUOUS
10
5.56317
20
-3.63896
11
5.56357
21
-3.63736
0
LINE
8
BLACK
6
CONTINUOUS
10
5.56357
20
-3.63736
11
5.5626
21
-3.63736
0
LINE
8
BLACK
6
CONTINUOUS
10
5.5626
20
-3.63736
11
5.5626
21
-3.68264
0
LINE
8
BLACK
6
CONTINUOUS
10
5.5626
20
-3.68264
11
5.6374
21
-3.68264
0
LINE
8
BLACK
6
CONTINUOUS
10
5.6374
20
-3.68264
11
5.6374
21
-3.63736
0
LINE
8
BLACK
6
CONTINUOUS
10
5.6374
20
-3.63736
11
5.62849
21
-3.63736
0
LINE
8
BLACK
6
CONTINUOUS
10
5.60618
20
-3.667
11
5.60729
21
-3.66737
0
LINE
8
BLACK
6
CONTINUOUS
10
5.60729
20
-3.66737
11
5.60865
21
-3.66737
0
LINE
8
BLACK
6
CONTINUOUS
10
5.60865
20
-3.66737
11
5.60975
21
-3.667
0
LINE
8
BLACK
6
CONTINUOUS
10
5.60975
20
-3.667
11
5.60618
21
-3.667
0
LINE
8
BLACK
6
CONTINUOUS
10
5.56966
20
-3.63736
11
5.56899
21
-3.64004
0
LINE
8
BLACK
6
CONTINUOUS
10
5.56899
20
-3.64004
11
5.56899
21
-3.64869
0
LINE
8
BLACK
6
CONTINUOUS
10
5.56899
20
-3.64869
11
5.57069
21
-3.65552
0
LINE
8
BLACK
6
CONTINUOUS
10
5.57069
20
-3.65552
11
5.57221
21
-3.65855
0
LINE
8
BLACK
6
CONTINUOUS
10
5.57221
20
-3.65855
11
5.57341
21
-3.65975
0
LINE
8
BLACK
6
CONTINUOUS
10
5.57341
20
-3.65975
11
5.5761
21
-3.6611
0
LINE
8
BLACK
6
CONTINUOUS
10
5.5761
20
-3.6611
11
5.57846
21
-3.6611
0
LINE
8
BLACK
6
CONTINUOUS
10
5.57846
20
-3.6611
11
5.58116
21
-3.65975
0
LINE
8
BLACK
6
CONTINUOUS
10
5.58116
20
-3.65975
11
5.58235
21
-3.65855
0
LINE
8
BLACK
6
CONTINUOUS
10
5.58235
20
-3.65855
11
5.58387
21
-3.65552
0
LINE
8
BLACK
6
CONTINUOUS
10
5.58387
20
-3.65552
11
5.58558
21
-3.64869
0
LINE
8
BLACK
6
CONTINUOUS
10
5.58558
20
-3.64869
11
5.58558
21
-3.64004
0
LINE
8
BLACK
6
CONTINUOUS
10
5.58558
20
-3.64004
11
5.58491
21
-3.63736
0
LINE
8
BLACK
6
CONTINUOUS
10
5.58491
20
-3.63736
11
5.56966
21
-3.63736
0
LINE
8
BLACK
6
CONTINUOUS
10
5.57341
20
-3.62898
11
5.57221
21
-3.63018
0
LINE
8
BLACK
6
CONTINUOUS
10
5.57221
20
-3.63018
11
5.57069
21
-3.63321
0
LINE
8
BLACK
6
CONTINUOUS
10
5.57069
20
-3.63321
11
5.57064
21
-3.63343
0
LINE
8
BLACK
6
CONTINUOUS
10
5.57064
20
-3.63343
11
5.58392
21
-3.63343
0
LINE
8
BLACK
6
CONTINUOUS
10
5.58392
20
-3.63343
11
5.58387
21
-3.63321
0
LINE
8
BLACK
6
CONTINUOUS
10
5.58387
20
-3.63321
11
5.58235
21
-3.63018
0
LINE
8
BLACK
6
CONTINUOUS
10
5.58235
20
-3.63018
11
5.58116
21
-3.62898
0
LINE
8
BLACK
6
CONTINUOUS
10
5.58116
20
-3.62898
11
5.57846
21
-3.62763
0
LINE
8
BLACK
6
CONTINUOUS
10
5.57846
20
-3.62763
11
5.5761
21
-3.62763
0
LINE
8
BLACK
6
CONTINUOUS
10
5.5761
20
-3.62763
11
5.57341
21
-3.62898
0
LINE
8
BLACK
6
CONTINUOUS
10
5.54267
20
-3.6219
11
5.54281
21
-3.62202
0
LINE
8
BLACK
6
CONTINUOUS
10
5.54281
20
-3.62202
11
5.54298
21
-3.62204
0
LINE
8
BLACK
6
CONTINUOUS
10
5.54298
20
-3.62204
11
5.54673
21
-3.62391
0
LINE
8
BLACK
6
CONTINUOUS
10
5.54673
20
-3.62391
11
5.54744
21
-3.62444
0
LINE
8
BLACK
6
CONTINUOUS
10
5.54744
20
-3.62444
11
5.5475
21
-3.62446
0
LINE
8
BLACK
6
CONTINUOUS
10
5.5475
20
-3.62446
11
5.54937
21
-3.62634
0
LINE
8
BLACK
6
CONTINUOUS
10
5.54937
20
-3.62634
11
5.54988
21
-3.62706
0
LINE
8
BLACK
6
CONTINUOUS
10
5.54988
20
-3.62706
11
5.54993
21
-3.62711
0
LINE
8
BLACK
6
CONTINUOUS
10
5.54993
20
-3.62711
11
5.5518
21
-3.63086
0
LINE
8
BLACK
6
CONTINUOUS
10
5.5518
20
-3.63086
11
5.55195
21
-3.63134
0
LINE
8
BLACK
6
CONTINUOUS
10
5.55195
20
-3.63134
11
5.55202
21
-3.63146
0
LINE
8
BLACK
6
CONTINUOUS
10
5.55202
20
-3.63146
11
5.5539
21
-3.63896
0
LINE
8
BLACK
6
CONTINUOUS
10
5.5539
20
-3.63896
11
5.55394
21
-3.63955
0
LINE
8
BLACK
6
CONTINUOUS
10
5.55394
20
-3.63955
11
5.55399
21
-3.63968
0
LINE
8
BLACK
6
CONTINUOUS
10
5.55399
20
-3.63968
11
5.55399
21
-3.64905
0
LINE
8
BLACK
6
CONTINUOUS
10
5.55399
20
-3.64905
11
5.55389
21
-3.64963
0
LINE
8
BLACK
6
CONTINUOUS
10
5.55389
20
-3.64963
11
5.5539
21
-3.64977
0
LINE
8
BLACK
6
CONTINUOUS
10
5.5539
20
-3.64977
11
5.55202
21
-3.65727
0
LINE
8
BLACK
6
CONTINUOUS
10
5.55202
20
-3.65727
11
5.55182
21
-3.65773
0
LINE
8
BLACK
6
CONTINUOUS
10
5.55182
20
-3.65773
11
5.5518
21
-3.65787
0
LINE
8
BLACK
6
CONTINUOUS
10
5.5518
20
-3.65787
11
5.54993
21
-3.66162
0
LINE
8
BLACK
6
CONTINUOUS
10
5.54993
20
-3.66162
11
5.5494
21
-3.66233
0
LINE
8
BLACK
6
CONTINUOUS
10
5.5494
20
-3.66233
11
5.54937
21
-3.66239
0
LINE
8
BLACK
6
CONTINUOUS
10
5.54937
20
-3.66239
11
5.5475
21
-3.66426
0
LINE
8
BLACK
6
CONTINUOUS
10
5.5475
20
-3.66426
11
5.54678
21
-3.66477
0
LINE
8
BLACK
6
CONTINUOUS
10
5.54678
20
-3.66477
11
5.54673
21
-3.66481
0
LINE
8
BLACK
6
CONTINUOUS
10
5.54673
20
-3.66481
11
5.54298
21
-3.66669
0
LINE
8
BLACK
6
CONTINUOUS
10
5.54298
20
-3.66669
11
5.542
21
-3.66698
0
LINE
8
BLACK
6
CONTINUOUS
10
5.542
20
-3.66698
11
5.54183
21
-3.66694
0
LINE
8
BLACK
6
CONTINUOUS
10
5.54183
20
-3.66694
11
5.54166
21
-3.667
0
LINE
8
BLACK
6
CONTINUOUS
10
5.54166
20
-3.667
11
5.53791
21
-3.667
0
LINE
8
BLACK
6
CONTINUOUS
10
5.53791
20
-3.667
11
5.5369
21
-3.66682
0
LINE
8
BLACK
6
CONTINUOUS
10
5.5369
20
-3.66682
11
5.53677
21
-3.66671
0
LINE
8
BLACK
6
CONTINUOUS
10
5.53677
20
-3.66671
11
5.53659
21
-3.66669
0
LINE
8
BLACK
6
CONTINUOUS
10
5.53659
20
-3.66669
11
5.53284
21
-3.66481
0
LINE
8
BLACK
6
CONTINUOUS
10
5.53284
20
-3.66481
11
5.53213
21
-3.66429
0
LINE
8
BLACK
6
CONTINUOUS
10
5.53213
20
-3.66429
11
5.53207
21
-3.66426
0
LINE
8
BLACK
6
CONTINUOUS
10
5.53207
20
-3.66426
11
5.5302
21
-3.66239
0
LINE
8
BLACK
6
CONTINUOUS
10
5.5302
20
-3.66239
11
5.52969
21
-3.66166
0
LINE
8
BLACK
6
CONTINUOUS
10
5.52969
20
-3.66166
11
5.52965
21
-3.66162
0
LINE
8
BLACK
6
CONTINUOUS
10
5.52965
20
-3.66162
11
5.52777
21
-3.65787
0
LINE
8
BLACK
6
CONTINUOUS
10
5.52777
20
-3.65787
11
5.52763
21
-3.65738
0
LINE
8
BLACK
6
CONTINUOUS
10
5.52763
20
-3.65738
11
5.52755
21
-3.65727
0
LINE
8
BLACK
6
CONTINUOUS
10
5.52755
20
-3.65727
11
5.52567
21
-3.64977
0
LINE
8
BLACK
6
CONTINUOUS
10
5.52567
20
-3.64977
11
5.52563
21
-3.64918
0
LINE
8
BLACK
6
CONTINUOUS
10
5.52563
20
-3.64918
11
5.52558
21
-3.64905
0
LINE
8
BLACK
6
CONTINUOUS
10
5.52558
20
-3.64905
11
5.52558
21
-3.63968
0
LINE
8
BLACK
6
CONTINUOUS
10
5.52558
20
-3.63968
11
5.52569
21
-3.6391
0
LINE
8
BLACK
6
CONTINUOUS
10
5.52569
20
-3.6391
11
5.52567
21
-3.63896
0
LINE
8
BLACK
6
CONTINUOUS
10
5.52567
20
-3.63896
11
5.52755
21
-3.63146
0
LINE
8
BLACK
6
CONTINUOUS
10
5.52755
20
-3.63146
11
5.52776
21
-3.631
0
LINE
8
BLACK
6
CONTINUOUS
10
5.52776
20
-3.631
11
5.52777
21
-3.63086
0
LINE
8
BLACK
6
CONTINUOUS
10
5.52777
20
-3.63086
11
5.52965
21
-3.62711
0
LINE
8
BLACK
6
CONTINUOUS
10
5.52965
20
-3.62711
11
5.53017
21
-3.6264
0
LINE
8
BLACK
6
CONTINUOUS
10
5.53017
20
-3.6264
11
5.5302
21
-3.62634
0
LINE
8
BLACK
6
CONTINUOUS
10
5.5302
20
-3.62634
11
5.53207
21
-3.62446
0
LINE
8
BLACK
6
CONTINUOUS
10
5.53207
20
-3.62446
11
5.5328
21
-3.62396
0
LINE
8
BLACK
6
CONTINUOUS
10
5.5328
20
-3.62396
11
5.53284
21
-3.62391
0
LINE
8
BLACK
6
CONTINUOUS
10
5.53284
20
-3.62391
11
5.53659
21
-3.62204
0
LINE
8
BLACK
6
CONTINUOUS
10
5.53659
20
-3.62204
11
5.53757
21
-3.62174
0
LINE
8
BLACK
6
CONTINUOUS
10
5.53757
20
-3.62174
11
5.53775
21
-3.62179
0
LINE
8
BLACK
6
CONTINUOUS
10
5.53775
20
-3.62179
11
5.53791
21
-3.62173
0
LINE
8
BLACK
6
CONTINUOUS
10
5.53791
20
-3.62173
11
5.54166
21
-3.62173
0
LINE
8
BLACK
6
CONTINUOUS
10
5.54166
20
-3.62173
11
5.54267
21
-3.6219
0
LINE
8
BLACK
6
CONTINUOUS
10
5.53591
20
-3.62898
11
5.53471
21
-3.63018
0
LINE
8
BLACK
6
CONTINUOUS
10
5.53471
20
-3.63018
11
5.5332
21
-3.63321
0
LINE
8
BLACK
6
CONTINUOUS
10
5.5332
20
-3.63321
11
5.53149
21
-3.64004
0
LINE
8
BLACK
6
CONTINUOUS
10
5.53149
20
-3.64004
11
5.53149
21
-3.64869
0
LINE
8
BLACK
6
CONTINUOUS
10
5.53149
20
-3.64869
11
5.5332
21
-3.65552
0
LINE
8
BLACK
6
CONTINUOUS
10
5.5332
20
-3.65552
11
5.53471
21
-3.65855
0
LINE
8
BLACK
6
CONTINUOUS
10
5.53471
20
-3.65855
11
5.53591
21
-3.65975
0
LINE
8
BLACK
6
CONTINUOUS
10
5.53591
20
-3.65975
11
5.53861
21
-3.6611
0
LINE
8
BLACK
6
CONTINUOUS
10
5.53861
20
-3.6611
11
5.54096
21
-3.6611
0
LINE
8
BLACK
6
CONTINUOUS
10
5.54096
20
-3.6611
11
5.54366
21
-3.65975
0
LINE
8
BLACK
6
CONTINUOUS
10
5.54366
20
-3.65975
11
5.54486
21
-3.65855
0
LINE
8
BLACK
6
CONTINUOUS
10
5.54486
20
-3.65855
11
5.54637
21
-3.65552
0
LINE
8
BLACK
6
CONTINUOUS
10
5.54637
20
-3.65552
11
5.54808
21
-3.64869
0
LINE
8
BLACK
6
CONTINUOUS
10
5.54808
20
-3.64869
11
5.54808
21
-3.64004
0
LINE
8
BLACK
6
CONTINUOUS
10
5.54808
20
-3.64004
11
5.54637
21
-3.63321
0
LINE
8
BLACK
6
CONTINUOUS
10
5.54637
20
-3.63321
11
5.54486
21
-3.63018
0
LINE
8
BLACK
6
CONTINUOUS
10
5.54486
20
-3.63018
11
5.54366
21
-3.62898
0
LINE
8
BLACK
6
CONTINUOUS
10
5.54366
20
-3.62898
11
5.54096
21
-3.62763
0
LINE
8
BLACK
6
CONTINUOUS
10
5.54096
20
-3.62763
11
5.53861
21
-3.62763
0
LINE
8
BLACK
6
CONTINUOUS
10
5.53861
20
-3.62763
11
5.53591
21
-3.62898
0
LINE
8
BLACK
6
CONTINUOUS
10
5.47643
20
-3.62179
11
5.47656
21
-3.62177
0
LINE
8
BLACK
6
CONTINUOUS
10
5.47656
20
-3.62177
11
5.47667
21
-3.62184
0
LINE
8
BLACK
6
CONTINUOUS
10
5.47667
20
-3.62184
11
5.47705
21
-3.6219
0
LINE
8
BLACK
6
CONTINUOUS
10
5.47705
20
-3.6219
11
5.47764
21
-3.6224
0
LINE
8
BLACK
6
CONTINUOUS
10
5.47764
20
-3.6224
11
5.47831
21
-3.62278
0
LINE
8
BLACK
6
CONTINUOUS
10
5.47831
20
-3.62278
11
5.4784
21
-3.62303
0
LINE
8
BLACK
6
CONTINUOUS
10
5.4784
20
-3.62303
11
5.4786
21
-3.6232
0
LINE
8
BLACK
6
CONTINUOUS
10
5.4786
20
-3.6232
11
5.47873
21
-3.62396
0
LINE
8
BLACK
6
CONTINUOUS
10
5.47873
20
-3.62396
11
5.479
21
-3.62468
0
LINE
8
BLACK
6
CONTINUOUS
10
5.479
20
-3.62468
11
5.479
21
-3.66405
0
LINE
8
BLACK
6
CONTINUOUS
10
5.479
20
-3.66405
11
5.47882
21
-3.66506
0
LINE
8
BLACK
6
CONTINUOUS
10
5.47882
20
-3.66506
11
5.47752
21
-3.66661
0
LINE
8
BLACK
6
CONTINUOUS
10
5.47752
20
-3.66661
11
5.47553
21
-3.66696
0
LINE
8
BLACK
6
CONTINUOUS
10
5.47553
20
-3.66696
11
5.47378
21
-3.66595
0
LINE
8
BLACK
6
CONTINUOUS
10
5.47378
20
-3.66595
11
5.47309
21
-3.66405
0
LINE
8
BLACK
6
CONTINUOUS
10
5.47309
20
-3.66405
11
5.47309
21
-3.64638
0
LINE
8
BLACK
6
CONTINUOUS
10
5.47309
20
-3.64638
11
5.46292
21
-3.64638
0
LINE
8
BLACK
6
CONTINUOUS
10
5.46292
20
-3.64638
11
5.46191
21
-3.6462
0
LINE
8
BLACK
6
CONTINUOUS
10
5.46191
20
-3.6462
11
5.46036
21
-3.6449
0
LINE
8
BLACK
6
CONTINUOUS
10
5.46036
20
-3.6449
11
5.46001
21
-3.64291
0
LINE
8
BLACK
6
CONTINUOUS
10
5.46001
20
-3.64291
11
5.46102
21
-3.64116
0
LINE
8
BLACK
6
CONTINUOUS
10
5.46102
20
-3.64116
11
5.46292
21
-3.64047
0
LINE
8
BLACK
6
CONTINUOUS
10
5.46292
20
-3.64047
11
5.47309
21
-3.64047
0
LINE
8
BLACK
6
CONTINUOUS
10
5.47309
20
-3.64047
11
5.47309
21
-3.62763
0
LINE
8
BLACK
6
CONTINUOUS
10
5.47309
20
-3.62763
11
5.4573
21
-3.62763
0
LINE
8
BLACK
6
CONTINUOUS
10
5.4573
20
-3.62763
11
5.45629
21
-3.62745
0
LINE
8
BLACK
6
CONTINUOUS
10
5.45629
20
-3.62745
11
5.45474
21
-3.62615
0
LINE
8
BLACK
6
CONTINUOUS
10
5.45474
20
-3.62615
11
5.45439
21
-3.62417
0
LINE
8
BLACK
6
CONTINUOUS
10
5.45439
20
-3.62417
11
5.4554
21
-3.62242
0
LINE
8
BLACK
6
CONTINUOUS
10
5.4554
20
-3.62242
11
5.4573
21
-3.62173
0
LINE
8
BLACK
6
CONTINUOUS
10
5.4573
20
-3.62173
11
5.47604
21
-3.62173
0
LINE
8
BLACK
6
CONTINUOUS
10
5.47604
20
-3.62173
11
5.47643
21
-3.62179
0
LINE
8
BLACK
6
CONTINUOUS
10
5.50705
20
-3.63503
11
5.50719
21
-3.63514
0
LINE
8
BLACK
6
CONTINUOUS
10
5.50719
20
-3.63514
11
5.50736
21
-3.63516
0
LINE
8
BLACK
6
CONTINUOUS
10
5.50736
20
-3.63516
11
5.5094
21
-3.63618
0
LINE
8
BLACK
6
CONTINUOUS
10
5.5094
20
-3.63618
11
5.51019
21
-3.63524
0
LINE
8
BLACK
6
CONTINUOUS
10
5.51019
20
-3.63524
11
5.51218
21
-3.63489
0
LINE
8
BLACK
6
CONTINUOUS
10
5.51218
20
-3.63489
11
5.51393
21
-3.6359
0
LINE
8
BLACK
6
CONTINUOUS
10
5.51393
20
-3.6359
11
5.51462
21
-3.6378
0
LINE
8
BLACK
6
CONTINUOUS
10
5.51462
20
-3.6378
11
5.51462
21
-3.66405
0
LINE
8
BLACK
6
CONTINUOUS
10
5.51462
20
-3.66405
11
5.51444
21
-3.66506
0
LINE
8
BLACK
6
CONTINUOUS
10
5.51444
20
-3.66506
11
5.51314
21
-3.66661
0
LINE
8
BLACK
6
CONTINUOUS
10
5.51314
20
-3.66661
11
5.51115
21
-3.66696
0
LINE
8
BLACK
6
CONTINUOUS
10
5.51115
20
-3.66696
11
5.5094
21
-3.66595
0
LINE
8
BLACK
6
CONTINUOUS
10
5.5094
20
-3.66595
11
5.50871
21
-3.66405
0
LINE
8
BLACK
6
CONTINUOUS
10
5.50871
20
-3.66405
11
5.50871
21
-3.64277
0
LINE
8
BLACK
6
CONTINUOUS
10
5.50871
20
-3.64277
11
5.50804
21
-3.6421
0
LINE
8
BLACK
6
CONTINUOUS
10
5.50804
20
-3.6421
11
5.50534
21
-3.64075
0
LINE
8
BLACK
6
CONTINUOUS
10
5.50534
20
-3.64075
11
5.50111
21
-3.64075
0
LINE
8
BLACK
6
CONTINUOUS
10
5.50111
20
-3.64075
11
5.49887
21
-3.64188
0
LINE
8
BLACK
6
CONTINUOUS
10
5.49887
20
-3.64188
11
5.49774
21
-3.64412
0
LINE
8
BLACK
6
CONTINUOUS
10
5.49774
20
-3.64412
11
5.49774
21
-3.66405
0
LINE
8
BLACK
6
CONTINUOUS
10
5.49774
20
-3.66405
11
5.49757
21
-3.66506
0
LINE
8
BLACK
6
CONTINUOUS
10
5.49757
20
-3.66506
11
5.49627
21
-3.66661
0
LINE
8
BLACK
6
CONTINUOUS
10
5.49627
20
-3.66661
11
5.49428
21
-3.66696
0
LINE
8
BLACK
6
CONTINUOUS
10
5.49428
20
-3.66696
11
5.49253
21
-3.66595
0
LINE
8
BLACK
6
CONTINUOUS
10
5.49253
20
-3.66595
11
5.49184
21
-3.66405
0
LINE
8
BLACK
6
CONTINUOUS
10
5.49184
20
-3.66405
11
5.49184
21
-3.64343
0
LINE
8
BLACK
6
CONTINUOUS
10
5.49184
20
-3.64343
11
5.49202
21
-3.64242
0
LINE
8
BLACK
6
CONTINUOUS
10
5.49202
20
-3.64242
11
5.49213
21
-3.64228
0
LINE
8
BLACK
6
CONTINUOUS
10
5.49213
20
-3.64228
11
5.49215
21
-3.64211
0
LINE
8
BLACK
6
CONTINUOUS
10
5.49215
20
-3.64211
11
5.49403
21
-3.63836
0
LINE
8
BLACK
6
CONTINUOUS
10
5.49403
20
-3.63836
11
5.49464
21
-3.63753
0
LINE
8
BLACK
6
CONTINUOUS
10
5.49464
20
-3.63753
11
5.49504
21
-3.63736
0
LINE
8
BLACK
6
CONTINUOUS
10
5.49504
20
-3.63736
11
5.49535
21
-3.63704
0
LINE
8
BLACK
6
CONTINUOUS
10
5.49535
20
-3.63704
11
5.4991
21
-3.63516
0
LINE
8
BLACK
6
CONTINUOUS
10
5.4991
20
-3.63516
11
5.50008
21
-3.63487
0
LINE
8
BLACK
6
CONTINUOUS
10
5.50008
20
-3.63487
11
5.50025
21
-3.63491
0
LINE
8
BLACK
6
CONTINUOUS
10
5.50025
20
-3.63491
11
5.50042
21
-3.63485
0
LINE
8
BLACK
6
CONTINUOUS
10
5.50042
20
-3.63485
11
5.50604
21
-3.63485
0
LINE
8
BLACK
6
CONTINUOUS
10
5.50604
20
-3.63485
11
5.50705
21
-3.63503
0
LINE
8
BLACK
6
CONTINUOUS
10
5.53591
20
-3.56782
11
5.53627
21
-3.56785
0
LINE
8
BLACK
6
CONTINUOUS
10
5.53627
20
-3.56785
11
5.53815
21
-3.56879
0
LINE
8
BLACK
6
CONTINUOUS
10
5.53815
20
-3.56879
11
5.53832
21
-3.56898
0
LINE
8
BLACK
6
CONTINUOUS
10
5.53832
20
-3.56898
11
5.53856
21
-3.56908
0
LINE
8
BLACK
6
CONTINUOUS
10
5.53856
20
-3.56908
11
5.53949
21
-3.57002
0
LINE
8
BLACK
6
CONTINUOUS
10
5.53949
20
-3.57002
11
5.53995
21
-3.57113
0
LINE
8
BLACK
6
CONTINUOUS
10
5.53995
20
-3.57113
11
5.53949
21
-3.57225
0
LINE
8
BLACK
6
CONTINUOUS
10
5.53949
20
-3.57225
11
5.53838
21
-3.57271
0
LINE
8
BLACK
6
CONTINUOUS
10
5.53838
20
-3.57271
11
5.53727
21
-3.57225
0
LINE
8
BLACK
6
CONTINUOUS
10
5.53727
20
-3.57225
11
5.53651
21
-3.57149
0
LINE
8
BLACK
6
CONTINUOUS
10
5.53651
20
-3.57149
11
5.5352
21
-3.57083
0
LINE
8
BLACK
6
CONTINUOUS
10
5.5352
20
-3.57083
11
5.53125
21
-3.57083
0
LINE
8
BLACK
6
CONTINUOUS
10
5.53125
20
-3.57083
11
5.52994
21
-3.57149
0
LINE
8
BLACK
6
CONTINUOUS
10
5.52994
20
-3.57149
11
5.52936
21
-3.57207
0
LINE
8
BLACK
6
CONTINUOUS
10
5.52936
20
-3.57207
11
5.52871
21
-3.57338
0
LINE
8
BLACK
6
CONTINUOUS
10
5.52871
20
-3.57338
11
5.52871
21
-3.57463
0
LINE
8
BLACK
6
CONTINUOUS
10
5.52871
20
-3.57463
11
5.52945
21
-3.57684
0
LINE
8
BLACK
6
CONTINUOUS
10
5.52945
20
-3.57684
11
5.54043
21
-3.58783
0
LINE
8
BLACK
6
CONTINUOUS
10
5.54043
20
-3.58783
11
5.54089
21
-3.58894
0
LINE
8
BLACK
6
CONTINUOUS
10
5.54089
20
-3.58894
11
5.54043
21
-3.59006
0
LINE
8
BLACK
6
CONTINUOUS
10
5.54043
20
-3.59006
11
5.53932
21
-3.59052
0
LINE
8
BLACK
6
CONTINUOUS
10
5.53932
20
-3.59052
11
5.52713
21
-3.59052
0
LINE
8
BLACK
6
CONTINUOUS
10
5.52713
20
-3.59052
11
5.52602
21
-3.59006
0
LINE
8
BLACK
6
CONTINUOUS
10
5.52602
20
-3.59006
11
5.52556
21
-3.58894
0
LINE
8
BLACK
6
CONTINUOUS
10
5.52556
20
-3.58894
11
5.52602
21
-3.58783
0
LINE
8
BLACK
6
CONTINUOUS
10
5.52602
20
-3.58783
11
5.52713
21
-3.58737
0
LINE
8
BLACK
6
CONTINUOUS
10
5.52713
20
-3.58737
11
5.53552
21
-3.58737
0
LINE
8
BLACK
6
CONTINUOUS
10
5.53552
20
-3.58737
11
5.52696
21
-3.57881
0
LINE
8
BLACK
6
CONTINUOUS
10
5.52696
20
-3.57881
11
5.52682
21
-3.57847
0
LINE
8
BLACK
6
CONTINUOUS
10
5.52682
20
-3.57847
11
5.52658
21
-3.57819
0
LINE
8
BLACK
6
CONTINUOUS
10
5.52658
20
-3.57819
11
5.52564
21
-3.57538
0
LINE
8
BLACK
6
CONTINUOUS
10
5.52564
20
-3.57538
11
5.52566
21
-3.57512
0
LINE
8
BLACK
6
CONTINUOUS
10
5.52566
20
-3.57512
11
5.52556
21
-3.57488
0
LINE
8
BLACK
6
CONTINUOUS
10
5.52556
20
-3.57488
11
5.52556
21
-3.57301
0
LINE
8
BLACK
6
CONTINUOUS
10
5.52556
20
-3.57301
11
5.5257
21
-3.57267
0
LINE
8
BLACK
6
CONTINUOUS
10
5.5257
20
-3.57267
11
5.52572
21
-3.5723
0
LINE
8
BLACK
6
CONTINUOUS
10
5.52572
20
-3.5723
11
5.52666
21
-3.57043
0
LINE
8
BLACK
6
CONTINUOUS
10
5.52666
20
-3.57043
11
5.52686
21
-3.57026
0
LINE
8
BLACK
6
CONTINUOUS
10
5.52686
20
-3.57026
11
5.52696
21
-3.57002
0
LINE
8
BLACK
6
CONTINUOUS
10
5.52696
20
-3.57002
11
5.52789
21
-3.56908
0
LINE
8
BLACK
6
CONTINUOUS
10
5.52789
20
-3.56908
11
5.52813
21
-3.56898
0
LINE
8
BLACK
6
CONTINUOUS
10
5.52813
20
-3.56898
11
5.5283
21
-3.56879
0
LINE
8
BLACK
6
CONTINUOUS
10
5.5283
20
-3.56879
11
5.53018
21
-3.56785
0
LINE
8
BLACK
6
CONTINUOUS
10
5.53018
20
-3.56785
11
5.53054
21
-3.56782
0
LINE
8
BLACK
6
CONTINUOUS
10
5.53054
20
-3.56782
11
5.53088
21
-3.56768
0
LINE
8
BLACK
6
CONTINUOUS
10
5.53088
20
-3.56768
11
5.53557
21
-3.56768
0
LINE
8
BLACK
6
CONTINUOUS
10
5.53557
20
-3.56768
11
5.53591
21
-3.56782
0
LINE
8
BLACK
6
CONTINUOUS
10
5.55174
20
-3.56778
11
5.552
21
-3.56776
0
LINE
8
BLACK
6
CONTINUOUS
10
5.552
20
-3.56776
11
5.55481
21
-3.5687
0
LINE
8
BLACK
6
CONTINUOUS
10
5.55481
20
-3.5687
11
5.55509
21
-3.56894
0
LINE
8
BLACK
6
CONTINUOUS
10
5.55509
20
-3.56894
11
5.55543
21
-3.56908
0
LINE
8
BLACK
6
CONTINUOUS
10
5.55543
20
-3.56908
11
5.5573
21
-3.57096
0
LINE
8
BLACK
6
CONTINUOUS
10
5.5573
20
-3.57096
11
5.5574
21
-3.5712
0
LINE
8
BLACK
6
CONTINUOUS
10
5.5574
20
-3.5712
11
5.5576
21
-3.57137
0
LINE
8
BLACK
6
CONTINUOUS
10
5.5576
20
-3.57137
11
5.55854
21
-3.57324
0
LINE
8
BLACK
6
CONTINUOUS
10
5.55854
20
-3.57324
11
5.55855
21
-3.57342
0
LINE
8
BLACK
6
CONTINUOUS
10
5.55855
20
-3.57342
11
5.55866
21
-3.57356
0
LINE
8
BLACK
6
CONTINUOUS
10
5.55866
20
-3.57356
11
5.55959
21
-3.57731
0
LINE
8
BLACK
6
CONTINUOUS
10
5.55959
20
-3.57731
11
5.55956
21
-3.57751
0
LINE
8
BLACK
6
CONTINUOUS
10
5.55956
20
-3.57751
11
5.55964
21
-3.57769
0
LINE
8
BLACK
6
CONTINUOUS
10
5.55964
20
-3.57769
11
5.55964
21
-3.58051
0
LINE
8
BLACK
6
CONTINUOUS
10
5.55964
20
-3.58051
11
5.55956
21
-3.58069
0
LINE
8
BLACK
6
CONTINUOUS
10
5.55956
20
-3.58069
11
5.55959
21
-3.58089
0
LINE
8
BLACK
6
CONTINUOUS
10
5.55959
20
-3.58089
11
5.55866
21
-3.58464
0
LINE
8
BLACK
6
CONTINUOUS
10
5.55866
20
-3.58464
11
5.55855
21
-3.58478
0
LINE
8
BLACK
6
CONTINUOUS
10
5.55855
20
-3.58478
11
5.55854
21
-3.58496
0
LINE
8
BLACK
6
CONTINUOUS
10
5.55854
20
-3.58496
11
5.5576
21
-3.58683
0
LINE
8
BLACK
6
CONTINUOUS
10
5.5576
20
-3.58683
11
5.5574
21
-3.587
0
LINE
8
BLACK
6
CONTINUOUS
10
5.5574
20
-3.587
11
5.5573
21
-3.58724
0
LINE
8
BLACK
6
CONTINUOUS
10
5.5573
20
-3.58724
11
5.55543
21
-3.58912
0
LINE
8
BLACK
6
CONTINUOUS
10
5.55543
20
-3.58912
11
5.55509
21
-3.58926
0
LINE
8
BLACK
6
CONTINUOUS
10
5.55509
20
-3.58926
11
5.55481
21
-3.5895
0
LINE
8
BLACK
6
CONTINUOUS
10
5.55481
20
-3.5895
11
5.552
21
-3.59044
0
LINE
8
BLACK
6
CONTINUOUS
10
5.552
20
-3.59044
11
5.55174
21
-3.59042
0
LINE
8
BLACK
6
CONTINUOUS
10
5.55174
20
-3.59042
11
5.5515
21
-3.59052
0
LINE
8
BLACK
6
CONTINUOUS
10
5.5515
20
-3.59052
11
5.54963
21
-3.59052
0
LINE
8
BLACK
6
CONTINUOUS
10
5.54963
20
-3.59052
11
5.54939
21
-3.59042
0
LINE
8
BLACK
6
CONTINUOUS
10
5.54939
20
-3.59042
11
5.54913
21
-3.59044
0
LINE
8
BLACK
6
CONTINUOUS
10
5.54913
20
-3.59044
11
5.54632
21
-3.5895
0
LINE
8
BLACK
6
CONTINUOUS
10
5.54632
20
-3.5895
11
5.54604
21
-3.58926
0
LINE
8
BLACK
6
CONTINUOUS
10
5.54604
20
-3.58926
11
5.5457
21
-3.58912
0
LINE
8
BLACK
6
CONTINUOUS
10
5.5457
20
-3.58912
11
5.54477
21
-3.58818
0
LINE
8
BLACK
6
CONTINUOUS
10
5.54477
20
-3.58818
11
5.5443
21
-3.58707
0
LINE
8
BLACK
6
CONTINUOUS
10
5.5443
20
-3.58707
11
5.54477
21
-3.58595
0
LINE
8
BLACK
6
CONTINUOUS
10
5.54477
20
-3.58595
11
5.54588
21
-3.58549
0
LINE
8
BLACK
6
CONTINUOUS
10
5.54588
20
-3.58549
11
5.54699
21
-3.58595
0
LINE
8
BLACK
6
CONTINUOUS
10
5.54699
20
-3.58595
11
5.54767
21
-3.58663
0
LINE
8
BLACK
6
CONTINUOUS
10
5.54767
20
-3.58663
11
5.54988
21
-3.58737
0
LINE
8
BLACK
6
CONTINUOUS
10
5.54988
20
-3.58737
11
5.55125
21
-3.58737
0
LINE
8
BLACK
6
CONTINUOUS
10
5.55125
20
-3.58737
11
5.55346
21
-3.58663
0
LINE
8
BLACK
6
CONTINUOUS
10
5.55346
20
-3.58663
11
5.5549
21
-3.5852
0
LINE
8
BLACK
6
CONTINUOUS
10
5.5549
20
-3.5852
11
5.55564
21
-3.58371
0
LINE
8
BLACK
6
CONTINUOUS
10
5.55564
20
-3.58371
11
5.55649
21
-3.58031
0
LINE
8
BLACK
6
CONTINUOUS
10
5.55649
20
-3.58031
11
5.55649
21
-3.57789
0
LINE
8
BLACK
6
CONTINUOUS
10
5.55649
20
-3.57789
11
5.55564
21
-3.57449
0
LINE
8
BLACK
6
CONTINUOUS
10
5.55564
20
-3.57449
11
5.5549
21
-3.573
0
LINE
8
BLACK
6
CONTINUOUS
10
5.5549
20
-3.573
11
5.55346
21
-3.57157
0
LINE
8
BLACK
6
CONTINUOUS
10
5.55346
20
-3.57157
11
5.55125
21
-3.57083
0
LINE
8
BLACK
6
CONTINUOUS
10
5.55125
20
-3.57083
11
5.54988
21
-3.57083
0
LINE
8
BLACK
6
CONTINUOUS
10
5.54988
20
-3.57083
11
5.54767
21
-3.57157
0
LINE
8
BLACK
6
CONTINUOUS
10
5.54767
20
-3.57157
11
5.54699
21
-3.57225
0
LINE
8
BLACK
6
CONTINUOUS
10
5.54699
20
-3.57225
11
5.54588
21
-3.57271
0
LINE
8
BLACK
6
CONTINUOUS
10
5.54588
20
-3.57271
11
5.54477
21
-3.57225
0
LINE
8
BLACK
6
CONTINUOUS
10
5.54477
20
-3.57225
11
5.5443
21
-3.57113
0
LINE
8
BLACK
6
CONTINUOUS
10
5.5443
20
-3.57113
11
5.54477
21
-3.57002
0
LINE
8
BLACK
6
CONTINUOUS
10
5.54477
20
-3.57002
11
5.5457
21
-3.56908
0
LINE
8
BLACK
6
CONTINUOUS
10
5.5457
20
-3.56908
11
5.54604
21
-3.56894
0
LINE
8
BLACK
6
CONTINUOUS
10
5.54604
20
-3.56894
11
5.54632
21
-3.5687
0
LINE
8
BLACK
6
CONTINUOUS
10
5.54632
20
-3.5687
11
5.54913
21
-3.56776
0
LINE
8
BLACK
6
CONTINUOUS
10
5.54913
20
-3.56776
11
5.54939
21
-3.56778
0
LINE
8
BLACK
6
CONTINUOUS
10
5.54939
20
-3.56778
11
5.54963
21
-3.56768
0
LINE
8
BLACK
6
CONTINUOUS
10
5.54963
20
-3.56768
11
5.5515
21
-3.56768
0
LINE
8
BLACK
6
CONTINUOUS
10
5.5515
20
-3.56768
11
5.55174
21
-3.56778
0
LINE
8
BLACK
6
CONTINUOUS
10
5.58197
20
-3.55343
11
5.58336
21
-3.554
0
LINE
8
BLACK
6
CONTINUOUS
10
5.58336
20
-3.554
11
5.58394
21
-3.55539
0
LINE
8
BLACK
6
CONTINUOUS
10
5.58394
20
-3.55539
11
5.58394
21
-3.60461
0
LINE
8
BLACK
6
CONTINUOUS
10
5.58394
20
-3.60461
11
5.58336
21
-3.606
0
LINE
8
BLACK
6
CONTINUOUS
10
5.58336
20
-3.606
11
5.58197
21
-3.60657
0
LINE
8
BLACK
6
CONTINUOUS
10
5.58197
20
-3.60657
11
5.50323
21
-3.60657
0
LINE
8
BLACK
6
CONTINUOUS
10
5.50323
20
-3.60657
11
5.50184
21
-3.606
0
LINE
8
BLACK
6
CONTINUOUS
10
5.50184
20
-3.606
11
5.50126
21
-3.60461
0
LINE
8
BLACK
6
CONTINUOUS
10
5.50126
20
-3.60461
11
5.50126
21
-3.55539
0
LINE
8
BLACK
6
CONTINUOUS
10
5.50126
20
-3.55539
11
5.50184
21
-3.554
0
LINE
8
BLACK
6
CONTINUOUS
10
5.50184
20
-3.554
11
5.50323
21
-3.55343
0
LINE
8
BLACK
6
CONTINUOUS
10
5.50323
20
-3.55343
11
5.58197
21
-3.55343
0
LINE
8
BLACK
6
CONTINUOUS
10
5.5052
20
-3.55736
11
5.5052
21
-3.60264
0
LINE
8
BLACK
6
CONTINUOUS
10
5.5052
20
-3.60264
11
5.58
21
-3.60264
0
LINE
8
BLACK
6
CONTINUOUS
10
5.58
20
-3.60264
11
5.58
21
-3.55736
0
LINE
8
BLACK
6
CONTINUOUS
10
5.58
20
-3.55736
11
5.5052
21
-3.55736
0
LINE
8
BLACK
6
CONTINUOUS
10
5.43374
20
-3.38786
11
5.4351
21
-3.38803
0
LINE
8
BLACK
6
CONTINUOUS
10
5.4351
20
-3.38803
11
5.43513
21
-3.38806
0
LINE
8
BLACK
6
CONTINUOUS
10
5.43513
20
-3.38806
11
5.43517
21
-3.38806
0
LINE
8
BLACK
6
CONTINUOUS
10
5.43517
20
-3.38806
11
5.43621
21
-3.38896
0
LINE
8
BLACK
6
CONTINUOUS
10
5.43621
20
-3.38896
11
5.43726
21
-3.38984
0
LINE
8
BLACK
6
CONTINUOUS
10
5.43726
20
-3.38984
11
5.44174
21
-3.39657
0
LINE
8
BLACK
6
CONTINUOUS
10
5.44174
20
-3.39657
11
5.44558
21
-3.40041
0
LINE
8
BLACK
6
CONTINUOUS
10
5.44558
20
-3.40041
11
5.44962
21
-3.40242
0
LINE
8
BLACK
6
CONTINUOUS
10
5.44962
20
-3.40242
11
5.45079
21
-3.40324
0
LINE
8
BLACK
6
CONTINUOUS
10
5.45079
20
-3.40324
11
5.45223
21
-3.40566
0
LINE
8
BLACK
6
CONTINUOUS
10
5.45223
20
-3.40566
11
5.45213
21
-3.40847
0
LINE
8
BLACK
6
CONTINUOUS
10
5.45213
20
-3.40847
11
5.45052
21
-3.41079
0
LINE
8
BLACK
6
CONTINUOUS
10
5.45052
20
-3.41079
11
5.44792
21
-3.41187
0
LINE
8
BLACK
6
CONTINUOUS
10
5.44792
20
-3.41187
11
5.44514
21
-3.41137
0
LINE
8
BLACK
6
CONTINUOUS
10
5.44514
20
-3.41137
11
5.44038
21
-3.40899
0
LINE
8
BLACK
6
CONTINUOUS
10
5.44038
20
-3.40899
11
5.43921
21
-3.40818
0
LINE
8
BLACK
6
CONTINUOUS
10
5.43921
20
-3.40818
11
5.43917
21
-3.4081
0
LINE
8
BLACK
6
CONTINUOUS
10
5.43917
20
-3.4081
11
5.43908
21
-3.40805
0
LINE
8
BLACK
6
CONTINUOUS
10
5.43908
20
-3.40805
11
5.4381
21
-3.40706
0
LINE
8
BLACK
6
CONTINUOUS
10
5.4381
20
-3.40706
11
5.4381
21
-3.43761
0
LINE
8
BLACK
6
CONTINUOUS
10
5.4381
20
-3.43761
11
5.44738
21
-3.43761
0
LINE
8
BLACK
6
CONTINUOUS
10
5.44738
20
-3.43761
11
5.44879
21
-3.43781
0
LINE
8
BLACK
6
CONTINUOUS
10
5.44879
20
-3.43781
11
5.45116
21
-3.43934
0
LINE
8
BLACK
6
CONTINUOUS
10
5.45116
20
-3.43934
11
5.45233
21
-3.4419
0
LINE
8
BLACK
6
CONTINUOUS
10
5.45233
20
-3.4419
11
5.45193
21
-3.44469
0
LINE
8
BLACK
6
CONTINUOUS
10
5.45193
20
-3.44469
11
5.45008
21
-3.44682
0
LINE
8
BLACK
6
CONTINUOUS
10
5.45008
20
-3.44682
11
5.44738
21
-3.44761
0
LINE
8
BLACK
6
CONTINUOUS
10
5.44738
20
-3.44761
11
5.41881
21
-3.44761
0
LINE
8
BLACK
6
CONTINUOUS
10
5.41881
20
-3.44761
11
5.4174
21
-3.44741
0
LINE
8
BLACK
6
CONTINUOUS
10
5.4174
20
-3.44741
11
5.41503
21
-3.44589
0
LINE
8
BLACK
6
CONTINUOUS
10
5.41503
20
-3.44589
11
5.41386
21
-3.44332
0
LINE
8
BLACK
6
CONTINUOUS
10
5.41386
20
-3.44332
11
5.41426
21
-3.44053
0
LINE
8
BLACK
6
CONTINUOUS
10
5.41426
20
-3.44053
11
5.41611
21
-3.4384
0
LINE
8
BLACK
6
CONTINUOUS
10
5.41611
20
-3.4384
11
5.41881
21
-3.43761
0
LINE
8
BLACK
6
CONTINUOUS
10
5.41881
20
-3.43761
11
5.4281
21
-3.43761
0
LINE
8
BLACK
6
CONTINUOUS
10
5.4281
20
-3.43761
11
5.4281
21
-3.39261
0
LINE
8
BLACK
6
CONTINUOUS
10
5.4281
20
-3.39261
11
5.42828
21
-3.39135
0
LINE
8
BLACK
6
CONTINUOUS
10
5.42828
20
-3.39135
11
5.42827
21
-3.39128
0
LINE
8
BLACK
6
CONTINUOUS
10
5.42827
20
-3.39128
11
5.42829
21
-3.39126
0
LINE
8
BLACK
6
CONTINUOUS
10
5.42829
20
-3.39126
11
5.4283
21
-3.3912
0
LINE
8
BLACK
6
CONTINUOUS
10
5.4283
20
-3.3912
11
5.42904
21
-3.39005
0
LINE
8
BLACK
6
CONTINUOUS
10
5.42904
20
-3.39005
11
5.42976
21
-3.38889
0
LINE
8
BLACK
6
CONTINUOUS
10
5.42976
20
-3.38889
11
5.4298
21
-3.38887
0
LINE
8
BLACK
6
CONTINUOUS
10
5.4298
20
-3.38887
11
5.42982
21
-3.38883
0
LINE
8
BLACK
6
CONTINUOUS
10
5.42982
20
-3.38883
11
5.43107
21
-3.38826
0
LINE
8
BLACK
6
CONTINUOUS
10
5.43107
20
-3.38826
11
5.4323
21
-3.38767
0
LINE
8
BLACK
6
CONTINUOUS
10
5.4323
20
-3.38767
11
5.43234
21
-3.38768
0
LINE
8
BLACK
6
CONTINUOUS
10
5.43234
20
-3.38768
11
5.43238
21
-3.38766
0
LINE
8
BLACK
6
CONTINUOUS
10
5.43238
20
-3.38766
11
5.43374
21
-3.38786
0
LINE
8
BLACK
6
CONTINUOUS
10
5.48212
20
-3.38781
11
5.4822
21
-3.38786
0
LINE
8
BLACK
6
CONTINUOUS
10
5.4822
20
-3.38786
11
5.4823
21
-3.38787
0
LINE
8
BLACK
6
CONTINUOUS
10
5.4823
20
-3.38787
11
5.48944
21
-3.39025
0
LINE
8
BLACK
6
CONTINUOUS
10
5.48944
20
-3.39025
11
5.49071
21
-3.39089
0
LINE
8
BLACK
6
CONTINUOUS
10
5.49071
20
-3.39089
11
5.49099
21
-3.39124
0
LINE
8
BLACK
6
CONTINUOUS
10
5.49099
20
-3.39124
11
5.49139
21
-3.39146
0
LINE
8
BLACK
6
CONTINUOUS
10
5.49139
20
-3.39146
11
5.49615
21
-3.39622
0
LINE
8
BLACK
6
CONTINUOUS
10
5.49615
20
-3.39622
11
5.49701
21
-3.39736
0
LINE
8
BLACK
6
CONTINUOUS
10
5.49701
20
-3.39736
11
5.49703
21
-3.39745
0
LINE
8
BLACK
6
CONTINUOUS
10
5.49703
20
-3.39745
11
5.49709
21
-3.39752
0
LINE
8
BLACK
6
CONTINUOUS
10
5.49709
20
-3.39752
11
5.49947
21
-3.40228
0
LINE
8
BLACK
6
CONTINUOUS
10
5.49947
20
-3.40228
11
5.49976
21
-3.40315
0
LINE
8
BLACK
6
CONTINUOUS
10
5.49976
20
-3.40315
11
5.49985
21
-3.4033
0
LINE
8
BLACK
6
CONTINUOUS
10
5.49985
20
-3.4033
11
5.50223
21
-3.41283
0
LINE
8
BLACK
6
CONTINUOUS
10
5.50223
20
-3.41283
11
5.50234
21
-3.41391
0
LINE
8
BLACK
6
CONTINUOUS
10
5.50234
20
-3.41391
11
5.50238
21
-3.41404
0
LINE
8
BLACK
6
CONTINUOUS
10
5.50238
20
-3.41404
11
5.50238
21
-3.42118
0
LINE
8
BLACK
6
CONTINUOUS
10
5.50238
20
-3.42118
11
5.50223
21
-3.42226
0
LINE
8
BLACK
6
CONTINUOUS
10
5.50223
20
-3.42226
11
5.50223
21
-3.4224
0
LINE
8
BLACK
6
CONTINUOUS
10
5.50223
20
-3.4224
11
5.49985
21
-3.43192
0
LINE
8
BLACK
6
CONTINUOUS
10
5.49985
20
-3.43192
11
5.4995
21
-3.43277
0
LINE
8
BLACK
6
CONTINUOUS
10
5.4995
20
-3.43277
11
5.49947
21
-3.43294
0
LINE
8
BLACK
6
CONTINUOUS
10
5.49947
20
-3.43294
11
5.49709
21
-3.4377
0
LINE
8
BLACK
6
CONTINUOUS
10
5.49709
20
-3.4377
11
5.49628
21
-3.43887
0
LINE
8
BLACK
6
CONTINUOUS
10
5.49628
20
-3.43887
11
5.4962
21
-3.43892
0
LINE
8
BLACK
6
CONTINUOUS
10
5.4962
20
-3.43892
11
5.49615
21
-3.439
0
LINE
8
BLACK
6
CONTINUOUS
10
5.49615
20
-3.439
11
5.49139
21
-3.44377
0
LINE
8
BLACK
6
CONTINUOUS
10
5.49139
20
-3.44377
11
5.49025
21
-3.44462
0
LINE
8
BLACK
6
CONTINUOUS
10
5.49025
20
-3.44462
11
5.48981
21
-3.44471
0
LINE
8
BLACK
6
CONTINUOUS
10
5.48981
20
-3.44471
11
5.48944
21
-3.44497
0
LINE
8
BLACK
6
CONTINUOUS
10
5.48944
20
-3.44497
11
5.4823
21
-3.44735
0
LINE
8
BLACK
6
CONTINUOUS
10
5.4823
20
-3.44735
11
5.48089
21
-3.44761
0
LINE
8
BLACK
6
CONTINUOUS
10
5.48089
20
-3.44761
11
5.4808
21
-3.44758
0
LINE
8
BLACK
6
CONTINUOUS
10
5.4808
20
-3.44758
11
5.48071
21
-3.44761
0
LINE
8
BLACK
6
CONTINUOUS
10
5.48071
20
-3.44761
11
5.47595
21
-3.44761
0
LINE
8
BLACK
6
CONTINUOUS
10
5.47595
20
-3.44761
11
5.47454
21
-3.44741
0
LINE
8
BLACK
6
CONTINUOUS
10
5.47454
20
-3.44741
11
5.47446
21
-3.44736
0
LINE
8
BLACK
6
CONTINUOUS
10
5.47446
20
-3.44736
11
5.47437
21
-3.44735
0
LINE
8
BLACK
6
CONTINUOUS
10
5.47437
20
-3.44735
11
5.46723
21
-3.44497
0
LINE
8
BLACK
6
CONTINUOUS
10
5.46723
20
-3.44497
11
5.46596
21
-3.44434
0
LINE
8
BLACK
6
CONTINUOUS
10
5.46596
20
-3.44434
11
5.46567
21
-3.44398
0
LINE
8
BLACK
6
CONTINUOUS
10
5.46567
20
-3.44398
11
5.46527
21
-3.44377
0
LINE
8
BLACK
6
CONTINUOUS
10
5.46527
20
-3.44377
11
5.46289
21
-3.44138
0
LINE
8
BLACK
6
CONTINUOUS
10
5.46289
20
-3.44138
11
5.46204
21
-3.44025
0
LINE
8
BLACK
6
CONTINUOUS
10
5.46204
20
-3.44025
11
5.46144
21
-3.43749
0
LINE
8
BLACK
6
CONTINUOUS
10
5.46144
20
-3.43749
11
5.46243
21
-3.43485
0
LINE
8
BLACK
6
CONTINUOUS
10
5.46243
20
-3.43485
11
5.46468
21
-3.43316
0
LINE
8
BLACK
6
CONTINUOUS
10
5.46468
20
-3.43316
11
5.46749
21
-3.43296
0
LINE
8
BLACK
6
CONTINUOUS
10
5.46749
20
-3.43296
11
5.46996
21
-3.43431
0
LINE
8
BLACK
6
CONTINUOUS
10
5.46996
20
-3.43431
11
5.47151
21
-3.43586
0
LINE
8
BLACK
6
CONTINUOUS
10
5.47151
20
-3.43586
11
5.47676
21
-3.43761
0
LINE
8
BLACK
6
CONTINUOUS
10
5.47676
20
-3.43761
11
5.4799
21
-3.43761
0
LINE
8
BLACK
6
CONTINUOUS
10
5.4799
20
-3.43761
11
5.48516
21
-3.43586
0
LINE
8
BLACK
6
CONTINUOUS
10
5.48516
20
-3.43586
11
5.48851
21
-3.43251
0
LINE
8
BLACK
6
CONTINUOUS
10
5.48851
20
-3.43251
11
5.49028
21
-3.42896
0
LINE
8
BLACK
6
CONTINUOUS
10
5.49028
20
-3.42896
11
5.49238
21
-3.42057
0
LINE
8
BLACK
6
CONTINUOUS
10
5.49238
20
-3.42057
11
5.49238
21
-3.41465
0
LINE
8
BLACK
6
CONTINUOUS
10
5.49238
20
-3.41465
11
5.49028
21
-3.40626
0
LINE
8
BLACK
6
CONTINUOUS
10
5.49028
20
-3.40626
11
5.48851
21
-3.40272
0
LINE
8
BLACK
6
CONTINUOUS
10
5.48851
20
-3.40272
11
5.48516
21
-3.39936
0
LINE
8
BLACK
6
CONTINUOUS
10
5.48516
20
-3.39936
11
5.4799
21
-3.39761
0
LINE
8
BLACK
6
CONTINUOUS
10
5.4799
20
-3.39761
11
5.47676
21
-3.39761
0
LINE
8
BLACK
6
CONTINUOUS
10
5.47676
20
-3.39761
11
5.47151
21
-3.39936
0
LINE
8
BLACK
6
CONTINUOUS
10
5.47151
20
-3.39936
11
5.46996
21
-3.40091
0
LINE
8
BLACK
6
CONTINUOUS
10
5.46996
20
-3.40091
11
5.46882
21
-3.40176
0
LINE
8
BLACK
6
CONTINUOUS
10
5.46882
20
-3.40176
11
5.46607
21
-3.40236
0
LINE
8
BLACK
6
CONTINUOUS
10
5.46607
20
-3.40236
11
5.46343
21
-3.40138
0
LINE
8
BLACK
6
CONTINUOUS
10
5.46343
20
-3.40138
11
5.46174
21
-3.39912
0
LINE
8
BLACK
6
CONTINUOUS
10
5.46174
20
-3.39912
11
5.46154
21
-3.39631
0
LINE
8
BLACK
6
CONTINUOUS
10
5.46154
20
-3.39631
11
5.46289
21
-3.39384
0
LINE
8
BLACK
6
CONTINUOUS
10
5.46289
20
-3.39384
11
5.46527
21
-3.39146
0
LINE
8
BLACK
6
CONTINUOUS
10
5.46527
20
-3.39146
11
5.46641
21
-3.3906
0
LINE
8
BLACK
6
CONTINUOUS
10
5.46641
20
-3.3906
11
5.46686
21
-3.39051
0
LINE
8
BLACK
6
CONTINUOUS
10
5.46686
20
-3.39051
11
5.46723
21
-3.39025
0
LINE
8
BLACK
6
CONTINUOUS
10
5.46723
20
-3.39025
11
5.47437
21
-3.38787
0
LINE
8
BLACK
6
CONTINUOUS
10
5.47437
20
-3.38787
11
5.47577
21
-3.38761
0
LINE
8
BLACK
6
CONTINUOUS
10
5.47577
20
-3.38761
11
5.47586
21
-3.38764
0
LINE
8
BLACK
6
CONTINUOUS
10
5.47586
20
-3.38764
11
5.47595
21
-3.38761
0
LINE
8
BLACK
6
CONTINUOUS
10
5.47595
20
-3.38761
11
5.48071
21
-3.38761
0
LINE
8
BLACK
6
CONTINUOUS
10
5.48071
20
-3.38761
11
5.48212
21
-3.38781
0
LINE
8
BLACK
6
CONTINUOUS
10
5.52089
20
-3.38806
11
5.52302
21
-3.38991
0
LINE
8
BLACK
6
CONTINUOUS
10
5.52302
20
-3.38991
11
5.52381
21
-3.39261
0
LINE
8
BLACK
6
CONTINUOUS
10
5.52381
20
-3.39261
11
5.52381
21
-3.44261
0
LINE
8
BLACK
6
CONTINUOUS
10
5.52381
20
-3.44261
11
5.52361
21
-3.44402
0
LINE
8
BLACK
6
CONTINUOUS
10
5.52361
20
-3.44402
11
5.52208
21
-3.44639
0
LINE
8
BLACK
6
CONTINUOUS
10
5.52208
20
-3.44639
11
5.51952
21
-3.44756
0
LINE
8
BLACK
6
CONTINUOUS
10
5.51952
20
-3.44756
11
5.51673
21
-3.44716
0
LINE
8
BLACK
6
CONTINUOUS
10
5.51673
20
-3.44716
11
5.5146
21
-3.44531
0
LINE
8
BLACK
6
CONTINUOUS
10
5.5146
20
-3.44531
11
5.51381
21
-3.44261
0
LINE
8
BLACK
6
CONTINUOUS
10
5.51381
20
-3.44261
11
5.51381
21
-3.39261
0
LINE
8
BLACK
6
CONTINUOUS
10
5.51381
20
-3.39261
11
5.51401
21
-3.3912
0
LINE
8
BLACK
6
CONTINUOUS
10
5.51401
20
-3.3912
11
5.51554
21
-3.38883
0
LINE
8
BLACK
6
CONTINUOUS
10
5.51554
20
-3.38883
11
5.5181
21
-3.38766
0
LINE
8
BLACK
6
CONTINUOUS
10
5.5181
20
-3.38766
11
5.52089
21
-3.38806
0
LINE
8
BLACK
6
CONTINUOUS
10
5.42525
20
-3.3081
11
5.42531
21
-3.3081
0
LINE
8
BLACK
6
CONTINUOUS
10
5.42531
20
-3.3081
11
5.43093
21
-3.30997
0
LINE
8
BLACK
6
CONTINUOUS
10
5.43093
20
-3.30997
11
5.43184
21
-3.31046
0
LINE
8
BLACK
6
CONTINUOUS
10
5.43184
20
-3.31046
11
5.43193
21
-3.31061
0
LINE
8
BLACK
6
CONTINUOUS
10
5.43193
20
-3.31061
11
5.43209
21
-3.31069
0
LINE
8
BLACK
6
CONTINUOUS
10
5.43209
20
-3.31069
11
5.43584
21
-3.31443
0
LINE
8
BLACK
6
CONTINUOUS
10
5.43584
20
-3.31443
11
5.43629
21
-3.31508
0
LINE
8
BLACK
6
CONTINUOUS
10
5.43629
20
-3.31508
11
5.47057
21
-3.31508
0
LINE
8
BLACK
6
CONTINUOUS
10
5.47057
20
-3.31508
11
5.47045
21
-3.31385
0
LINE
8
BLACK
6
CONTINUOUS
10
5.47045
20
-3.31385
11
5.45437
21
-3.31385
0
LINE
8
BLACK
6
CONTINUOUS
10
5.45437
20
-3.31385
11
5.45336
21
-3.31367
0
LINE
8
BLACK
6
CONTINUOUS
10
5.45336
20
-3.31367
11
5.45181
21
-3.31237
0
LINE
8
BLACK
6
CONTINUOUS
10
5.45181
20
-3.31237
11
5.45146
21
-3.31039
0
LINE
8
BLACK
6
CONTINUOUS
10
5.45146
20
-3.31039
11
5.45247
21
-3.30864
0
LINE
8
BLACK
6
CONTINUOUS
10
5.45247
20
-3.30864
11
5.45437
21
-3.30795
0
LINE
8
BLACK
6
CONTINUOUS
10
5.45437
20
-3.30795
11
5.47312
21
-3.30795
0
LINE
8
BLACK
6
CONTINUOUS
10
5.47312
20
-3.30795
11
5.47327
21
-3.30797
0
LINE
8
BLACK
6
CONTINUOUS
10
5.47327
20
-3.30797
11
5.47334
21
-3.30795
0
LINE
8
BLACK
6
CONTINUOUS
10
5.47334
20
-3.30795
11
5.47345
21
-3.308
0
LINE
8
BLACK
6
CONTINUOUS
10
5.47345
20
-3.308
11
5.47413
21
-3.30812
0
LINE
8
BLACK
6
CONTINUOUS
10
5.47413
20
-3.30812
11
5.47461
21
-3.30853
0
LINE
8
BLACK
6
CONTINUOUS
10
5.47461
20
-3.30853
11
5.47518
21
-3.30878
0
LINE
8
BLACK
6
CONTINUOUS
10
5.47518
20
-3.30878
11
5.47536
21
-3.30916
0
LINE
8
BLACK
6
CONTINUOUS
10
5.47536
20
-3.30916
11
5.47568
21
-3.30942
0
LINE
8
BLACK
6
CONTINUOUS
10
5.47568
20
-3.30942
11
5.47579
21
-3.31004
0
LINE
8
BLACK
6
CONTINUOUS
10
5.47579
20
-3.31004
11
5.47606
21
-3.3106
0
LINE
8
BLACK
6
CONTINUOUS
10
5.47606
20
-3.3106
11
5.47651
21
-3.31508
0
LINE
8
BLACK
6
CONTINUOUS
10
5.47651
20
-3.31508
11
5.50807
21
-3.31508
0
LINE
8
BLACK
6
CONTINUOUS
10
5.50807
20
-3.31508
11
5.50794
21
-3.31385
0
LINE
8
BLACK
6
CONTINUOUS
10
5.50794
20
-3.31385
11
5.49187
21
-3.31385
0
LINE
8
BLACK
6
CONTINUOUS
10
5.49187
20
-3.31385
11
5.49086
21
-3.31367
0
LINE
8
BLACK
6
CONTINUOUS
10
5.49086
20
-3.31367
11
5.48931
21
-3.31237
0
LINE
8
BLACK
6
CONTINUOUS
10
5.48931
20
-3.31237
11
5.48896
21
-3.31039
0
LINE
8
BLACK
6
CONTINUOUS
10
5.48896
20
-3.31039
11
5.48997
21
-3.30864
0
LINE
8
BLACK
6
CONTINUOUS
10
5.48997
20
-3.30864
11
5.49187
21
-3.30795
0
LINE
8
BLACK
6
CONTINUOUS
10
5.49187
20
-3.30795
11
5.51061
21
-3.30795
0
LINE
8
BLACK
6
CONTINUOUS
10
5.51061
20
-3.30795
11
5.51077
21
-3.30797
0
LINE
8
BLACK
6
CONTINUOUS
10
5.51077
20
-3.30797
11
5.51084
21
-3.30795
0
LINE
8
BLACK
6
CONTINUOUS
10
5.51084
20
-3.30795
11
5.51095
21
-3.308
0
LINE
8
BLACK
6
CONTINUOUS
10
5.51095
20
-3.308
11
5.51162
21
-3.30812
0
LINE
8
BLACK
6
CONTINUOUS
10
5.51162
20
-3.30812
11
5.51211
21
-3.30853
0
LINE
8
BLACK
6
CONTINUOUS
10
5.51211
20
-3.30853
11
5.51268
21
-3.30878
0
LINE
8
BLACK
6
CONTINUOUS
10
5.51268
20
-3.30878
11
5.51286
21
-3.30916
0
LINE
8
BLACK
6
CONTINUOUS
10
5.51286
20
-3.30916
11
5.51317
21
-3.30942
0
LINE
8
BLACK
6
CONTINUOUS
10
5.51317
20
-3.30942
11
5.51328
21
-3.31004
0
LINE
8
BLACK
6
CONTINUOUS
10
5.51328
20
-3.31004
11
5.51355
21
-3.3106
0
LINE
8
BLACK
6
CONTINUOUS
10
5.51355
20
-3.3106
11
5.514
21
-3.31508
0
LINE
8
BLACK
6
CONTINUOUS
10
5.514
20
-3.31508
11
5.52202
21
-3.31508
0
LINE
8
BLACK
6
CONTINUOUS
10
5.52202
20
-3.31508
11
5.52094
21
-3.31183
0
LINE
8
BLACK
6
CONTINUOUS
10
5.52094
20
-3.31183
11
5.52079
21
-3.31082
0
LINE
8
BLACK
6
CONTINUOUS
10
5.52079
20
-3.31082
11
5.52153
21
-3.30894
0
LINE
8
BLACK
6
CONTINUOUS
10
5.52153
20
-3.30894
11
5.52331
21
-3.30798
0
LINE
8
BLACK
6
CONTINUOUS
10
5.52331
20
-3.30798
11
5.52528
21
-3.30838
0
LINE
8
BLACK
6
CONTINUOUS
10
5.52528
20
-3.30838
11
5.52654
21
-3.30996
0
LINE
8
BLACK
6
CONTINUOUS
10
5.52654
20
-3.30996
11
5.52824
21
-3.31508
0
LINE
8
BLACK
6
CONTINUOUS
10
5.52824
20
-3.31508
11
5.54548
21
-3.31508
0
LINE
8
BLACK
6
CONTINUOUS
10
5.54548
20
-3.31508
11
5.54718
21
-3.30996
0
LINE
8
BLACK
6
CONTINUOUS
10
5.54718
20
-3.30996
11
5.54767
21
-3.30906
0
LINE
8
BLACK
6
CONTINUOUS
10
5.54767
20
-3.30906
11
5.54939
21
-3.30801
0
LINE
8
BLACK
6
CONTINUOUS
10
5.54939
20
-3.30801
11
5.55139
21
-3.3083
0
LINE
8
BLACK
6
CONTINUOUS
10
5.55139
20
-3.3083
11
5.55273
21
-3.30981
0
LINE
8
BLACK
6
CONTINUOUS
10
5.55273
20
-3.30981
11
5.55279
21
-3.31183
0
LINE
8
BLACK
6
CONTINUOUS
10
5.55279
20
-3.31183
11
5.5517
21
-3.31508
0
LINE
8
BLACK
6
CONTINUOUS
10
5.5517
20
-3.31508
11
5.5586
21
-3.31508
0
LINE
8
BLACK
6
CONTINUOUS
10
5.5586
20
-3.31508
11
5.5569
21
-3.31254
0
LINE
8
BLACK
6
CONTINUOUS
10
5.5569
20
-3.31254
11
5.55685
21
-3.31241
0
LINE
8
BLACK
6
CONTINUOUS
10
5.55685
20
-3.31241
11
5.5568
21
-3.31237
0
LINE
8
BLACK
6
CONTINUOUS
10
5.5568
20
-3.31237
11
5.55678
21
-3.31226
0
LINE
8
BLACK
6
CONTINUOUS
10
5.55678
20
-3.31226
11
5.55649
21
-3.3116
0
LINE
8
BLACK
6
CONTINUOUS
10
5.55649
20
-3.3116
11
5.55656
21
-3.31099
0
LINE
8
BLACK
6
CONTINUOUS
10
5.55656
20
-3.31099
11
5.55645
21
-3.31039
0
LINE
8
BLACK
6
CONTINUOUS
10
5.55645
20
-3.31039
11
5.55666
21
-3.31001
0
LINE
8
BLACK
6
CONTINUOUS
10
5.55666
20
-3.31001
11
5.55671
21
-3.30959
0
LINE
8
BLACK
6
CONTINUOUS
10
5.55671
20
-3.30959
11
5.55715
21
-3.30917
0
LINE
8
BLACK
6
CONTINUOUS
10
5.55715
20
-3.30917
11
5.55746
21
-3.30864
0
LINE
8
BLACK
6
CONTINUOUS
10
5.55746
20
-3.30864
11
5.55786
21
-3.30849
0
LINE
8
BLACK
6
CONTINUOUS
10
5.55786
20
-3.30849
11
5.55817
21
-3.30819
0
LINE
8
BLACK
6
CONTINUOUS
10
5.55817
20
-3.30819
11
5.55878
21
-3.30816
0
LINE
8
BLACK
6
CONTINUOUS
10
5.55878
20
-3.30816
11
5.55936
21
-3.30795
0
LINE
8
BLACK
6
CONTINUOUS
10
5.55936
20
-3.30795
11
5.58561
21
-3.30795
0
LINE
8
BLACK
6
CONTINUOUS
10
5.58561
20
-3.30795
11
5.58662
21
-3.30812
0
LINE
8
BLACK
6
CONTINUOUS
10
5.58662
20
-3.30812
11
5.58816
21
-3.30942
0
LINE
8
BLACK
6
CONTINUOUS
10
5.58816
20
-3.30942
11
5.58851
21
-3.31141
0
LINE
8
BLACK
6
CONTINUOUS
10
5.58851
20
-3.31141
11
5.5875
21
-3.31316
0
LINE
8
BLACK
6
CONTINUOUS
10
5.5875
20
-3.31316
11
5.58561
21
-3.31385
0
LINE
8
BLACK
6
CONTINUOUS
10
5.58561
20
-3.31385
11
5.56488
21
-3.31385
0
LINE
8
BLACK
6
CONTINUOUS
10
5.56488
20
-3.31385
11
5.56569
21
-3.31508
0
LINE
8
BLACK
6
CONTINUOUS
10
5.56569
20
-3.31508
11
5.57295
21
-3.31508
0
LINE
8
BLACK
6
CONTINUOUS
10
5.57295
20
-3.31508
11
5.57434
21
-3.31566
0
LINE
8
BLACK
6
CONTINUOUS
10
5.57434
20
-3.31566
11
5.57492
21
-3.31705
0
LINE
8
BLACK
6
CONTINUOUS
10
5.57492
20
-3.31705
11
5.57492
21
-3.32892
0
LINE
8
BLACK
6
CONTINUOUS
10
5.57492
20
-3.32892
11
5.58806
21
-3.34863
0
LINE
8
BLACK
6
CONTINUOUS
10
5.58806
20
-3.34863
11
5.58812
21
-3.34875
0
LINE
8
BLACK
6
CONTINUOUS
10
5.58812
20
-3.34875
11
5.58816
21
-3.34879
0
LINE
8
BLACK
6
CONTINUOUS
10
5.58816
20
-3.34879
11
5.58818
21
-3.3489
0
LINE
8
BLACK
6
CONTINUOUS
10
5.58818
20
-3.3489
11
5.58847
21
-3.34957
0
LINE
8
BLACK
6
CONTINUOUS
10
5.58847
20
-3.34957
11
5.58841
21
-3.35018
0
LINE
8
BLACK
6
CONTINUOUS
10
5.58841
20
-3.35018
11
5.58851
21
-3.35078
0
LINE
8
BLACK
6
CONTINUOUS
10
5.58851
20
-3.35078
11
5.5883
21
-3.35115
0
LINE
8
BLACK
6
CONTINUOUS
10
5.5883
20
-3.35115
11
5.58825
21
-3.35158
0
LINE
8
BLACK
6
CONTINUOUS
10
5.58825
20
-3.35158
11
5.58781
21
-3.352
0
LINE
8
BLACK
6
CONTINUOUS
10
5.58781
20
-3.352
11
5.5875
21
-3.35253
0
LINE
8
BLACK
6
CONTINUOUS
10
5.5875
20
-3.35253
11
5.5871
21
-3.35268
0
LINE
8
BLACK
6
CONTINUOUS
10
5.5871
20
-3.35268
11
5.58679
21
-3.35297
0
LINE
8
BLACK
6
CONTINUOUS
10
5.58679
20
-3.35297
11
5.58618
21
-3.35301
0
LINE
8
BLACK
6
CONTINUOUS
10
5.58618
20
-3.35301
11
5.58561
21
-3.35322
0
LINE
8
BLACK
6
CONTINUOUS
10
5.58561
20
-3.35322
11
5.57492
21
-3.35322
0
LINE
8
BLACK
6
CONTINUOUS
10
5.57492
20
-3.35322
11
5.57492
21
-3.52295
0
LINE
8
BLACK
6
CONTINUOUS
10
5.57492
20
-3.52295
11
5.57434
21
-3.52434
0
LINE
8
BLACK
6
CONTINUOUS
10
5.57434
20
-3.52434
11
5.57295
21
-3.52492
0
LINE
8
BLACK
6
CONTINUOUS
10
5.57295
20
-3.52492
11
5.36705
21
-3.52492
0
LINE
8
BLACK
6
CONTINUOUS
10
5.36705
20
-3.52492
11
5.36566
21
-3.52434
0
LINE
8
BLACK
6
CONTINUOUS
10
5.36566
20
-3.52434
11
5.36508
21
-3.52295
0
LINE
8
BLACK
6
CONTINUOUS
10
5.36508
20
-3.52295
11
5.36508
21
-3.52295
0
LINE
8
BLACK
6
CONTINUOUS
10
5.36508
20
-3.52295
11
5.36508
21
-3.3379
0
LINE
8
BLACK
6
CONTINUOUS
10
5.36508
20
-3.3379
11
5.3637
21
-3.33675
0
LINE
8
BLACK
6
CONTINUOUS
10
5.3637
20
-3.33675
11
5.36335
21
-3.33476
0
LINE
8
BLACK
6
CONTINUOUS
10
5.36335
20
-3.33476
11
5.36436
21
-3.33301
0
LINE
8
BLACK
6
CONTINUOUS
10
5.36436
20
-3.33301
11
5.36508
21
-3.33275
0
LINE
8
BLACK
6
CONTINUOUS
10
5.36508
20
-3.33275
11
5.36508
21
-3.31705
0
LINE
8
BLACK
6
CONTINUOUS
10
5.36508
20
-3.31705
11
5.36566
21
-3.31566
0
LINE
8
BLACK
6
CONTINUOUS
10
5.36566
20
-3.31566
11
5.36705
21
-3.31508
0
LINE
8
BLACK
6
CONTINUOUS
10
5.36705
20
-3.31508
11
5.41037
21
-3.31508
0
LINE
8
BLACK
6
CONTINUOUS
10
5.41037
20
-3.31508
11
5.41019
21
-3.31439
0
LINE
8
BLACK
6
CONTINUOUS
10
5.41019
20
-3.31439
11
5.41104
21
-3.31256
0
LINE
8
BLACK
6
CONTINUOUS
10
5.41104
20
-3.31256
11
5.41291
21
-3.31069
0
LINE
8
BLACK
6
CONTINUOUS
10
5.41291
20
-3.31069
11
5.41375
21
-3.3101
0
LINE
8
BLACK
6
CONTINUOUS
10
5.41375
20
-3.3101
11
5.41393
21
-3.31008
0
LINE
8
BLACK
6
CONTINUOUS
10
5.41393
20
-3.31008
11
5.41407
21
-3.30997
0
LINE
8
BLACK
6
CONTINUOUS
10
5.41407
20
-3.30997
11
5.41969
21
-3.3081
0
LINE
8
BLACK
6
CONTINUOUS
10
5.41969
20
-3.3081
11
5.42057
21
-3.30797
0
LINE
8
BLACK
6
CONTINUOUS
10
5.42057
20
-3.30797
11
5.42063
21
-3.30795
0
LINE
8
BLACK
6
CONTINUOUS
10
5.42063
20
-3.30795
11
5.42438
21
-3.30795
0
LINE
8
BLACK
6
CONTINUOUS
10
5.42438
20
-3.30795
11
5.42525
21
-3.3081
0
LINE
8
BLACK
6
CONTINUOUS
10
5.36902
20
-3.52098
11
5.41229
21
-3.52098
0
LINE
8
BLACK
6
CONTINUOUS
10
5.41229
20
-3.52098
11
5.36902
21
-3.47771
0
LINE
8
BLACK
6
CONTINUOUS
10
5.36902
20
-3.47771
11
5.36902
21
-3.52098
0
LINE
8
BLACK
6
CONTINUOUS
10
5.55039
20
-3.31902
11
5.53966
21
-3.3512
0
LINE
8
BLACK
6
CONTINUOUS
10
5.53966
20
-3.3512
11
5.53917
21
-3.3521
0
LINE
8
BLACK
6
CONTINUOUS
10
5.53917
20
-3.3521
11
5.5391
21
-3.35215
0
LINE
8
BLACK
6
CONTINUOUS
10
5.5391
20
-3.35215
11
5.53907
21
-3.35223
0
LINE
8
BLACK
6
CONTINUOUS
10
5.53907
20
-3.35223
11
5.53825
21
-3.35267
0
LINE
8
BLACK
6
CONTINUOUS
10
5.53825
20
-3.35267
11
5.53745
21
-3.35316
0
LINE
8
BLACK
6
CONTINUOUS
10
5.53745
20
-3.35316
11
5.53737
21
-3.35315
0
LINE
8
BLACK
6
CONTINUOUS
10
5.53737
20
-3.35315
11
5.53729
21
-3.35319
0
LINE
8
BLACK
6
CONTINUOUS
10
5.53729
20
-3.35319
11
5.53638
21
-3.353
0
LINE
8
BLACK
6
CONTINUOUS
10
5.53638
20
-3.353
11
5.53546
21
-3.35286
0
LINE
8
BLACK
6
CONTINUOUS
10
5.53546
20
-3.35286
11
5.5354
21
-3.3528
0
LINE
8
BLACK
6
CONTINUOUS
10
5.5354
20
-3.3528
11
5.53532
21
-3.35278
0
LINE
8
BLACK
6
CONTINUOUS
10
5.53532
20
-3.35278
11
5.53474
21
-3.35205
0
LINE
8
BLACK
6
CONTINUOUS
10
5.53474
20
-3.35205
11
5.53412
21
-3.35135
0
LINE
8
BLACK
6
CONTINUOUS
10
5.53412
20
-3.35135
11
5.53411
21
-3.35127
0
LINE
8
BLACK
6
CONTINUOUS
10
5.53411
20
-3.35127
11
5.53406
21
-3.3512
0
LINE
8
BLACK
6
CONTINUOUS
10
5.53406
20
-3.3512
11
5.52333
21
-3.31902
0
LINE
8
BLACK
6
CONTINUOUS
10
5.52333
20
-3.31902
11
5.51439
21
-3.31902
0
LINE
8
BLACK
6
CONTINUOUS
10
5.51439
20
-3.31902
11
5.51543
21
-3.32935
0
LINE
8
BLACK
6
CONTINUOUS
10
5.51543
20
-3.32935
11
5.51535
21
-3.33037
0
LINE
8
BLACK
6
CONTINUOUS
10
5.51535
20
-3.33037
11
5.51534
21
-3.33039
0
LINE
8
BLACK
6
CONTINUOUS
10
5.51534
20
-3.33039
11
5.51534
21
-3.33041
0
LINE
8
BLACK
6
CONTINUOUS
10
5.51534
20
-3.33041
11
5.51477
21
-3.33122
0
LINE
8
BLACK
6
CONTINUOUS
10
5.51477
20
-3.33122
11
5.51421
21
-3.33204
0
LINE
8
BLACK
6
CONTINUOUS
10
5.51421
20
-3.33204
11
5.51419
21
-3.33205
0
LINE
8
BLACK
6
CONTINUOUS
10
5.51419
20
-3.33205
11
5.51418
21
-3.33206
0
LINE
8
BLACK
6
CONTINUOUS
10
5.51418
20
-3.33206
11
5.51322
21
-3.33232
0
LINE
8
BLACK
6
CONTINUOUS
10
5.51322
20
-3.33232
11
5.51227
21
-3.33259
0
LINE
8
BLACK
6
CONTINUOUS
10
5.51227
20
-3.33259
11
5.51225
21
-3.33258
0
LINE
8
BLACK
6
CONTINUOUS
10
5.51225
20
-3.33258
11
5.51223
21
-3.33259
0
LINE
8
BLACK
6
CONTINUOUS
10
5.51223
20
-3.33259
11
5.51133
21
-3.33217
0
LINE
8
BLACK
6
CONTINUOUS
10
5.51133
20
-3.33217
11
5.51043
21
-3.33176
0
LINE
8
BLACK
6
CONTINUOUS
10
5.51043
20
-3.33176
11
5.51042
21
-3.33174
0
LINE
8
BLACK
6
CONTINUOUS
10
5.51042
20
-3.33174
11
5.5104
21
-3.33173
0
LINE
8
BLACK
6
CONTINUOUS
10
5.5104
20
-3.33173
11
5.50887
21
-3.3302
0
LINE
8
BLACK
6
CONTINUOUS
10
5.50887
20
-3.3302
11
5.50617
21
-3.32885
0
LINE
8
BLACK
6
CONTINUOUS
10
5.50617
20
-3.32885
11
5.49819
21
-3.32885
0
LINE
8
BLACK
6
CONTINUOUS
10
5.49819
20
-3.32885
11
5.49549
21
-3.3302
0
LINE
8
BLACK
6
CONTINUOUS
10
5.49549
20
-3.3302
11
5.49429
21
-3.3314
0
LINE
8
BLACK
6
CONTINUOUS
10
5.49429
20
-3.3314
11
5.49295
21
-3.33409
0
LINE
8
BLACK
6
CONTINUOUS
10
5.49295
20
-3.33409
11
5.49295
21
-3.34207
0
LINE
8
BLACK
6
CONTINUOUS
10
5.49295
20
-3.34207
11
5.49429
21
-3.34477
0
LINE
8
BLACK
6
CONTINUOUS
10
5.49429
20
-3.34477
11
5.49549
21
-3.34597
0
LINE
8
BLACK
6
CONTINUOUS
10
5.49549
20
-3.34597
11
5.49819
21
-3.34732
0
LINE
8
BLACK
6
CONTINUOUS
10
5.49819
20
-3.34732
11
5.50617
21
-3.34732
0
LINE
8
BLACK
6
CONTINUOUS
10
5.50617
20
-3.34732
11
5.50887
21
-3.34597
0
LINE
8
BLACK
6
CONTINUOUS
10
5.50887
20
-3.34597
11
5.5104
21
-3.34443
0
LINE
8
BLACK
6
CONTINUOUS
10
5.5104
20
-3.34443
11
5.51124
21
-3.34384
0
LINE
8
BLACK
6
CONTINUOUS
10
5.51124
20
-3.34384
11
5.51325
21
-3.34367
0
LINE
8
BLACK
6
CONTINUOUS
10
5.51325
20
-3.34367
11
5.51491
21
-3.34483
0
LINE
8
BLACK
6
CONTINUOUS
10
5.51491
20
-3.34483
11
5.51543
21
-3.34678
0
LINE
8
BLACK
6
CONTINUOUS
10
5.51543
20
-3.34678
11
5.51458
21
-3.34861
0
LINE
8
BLACK
6
CONTINUOUS
10
5.51458
20
-3.34861
11
5.5127
21
-3.35048
0
LINE
8
BLACK
6
CONTINUOUS
10
5.5127
20
-3.35048
11
5.51198
21
-3.35099
0
LINE
8
BLACK
6
CONTINUOUS
10
5.51198
20
-3.35099
11
5.51194
21
-3.35103
0
LINE
8
BLACK
6
CONTINUOUS
10
5.51194
20
-3.35103
11
5.50819
21
-3.35291
0
LINE
8
BLACK
6
CONTINUOUS
10
5.50819
20
-3.35291
11
5.5072
21
-3.3532
0
LINE
8
BLACK
6
CONTINUOUS
10
5.5072
20
-3.3532
11
5.50703
21
-3.35316
0
LINE
8
BLACK
6
CONTINUOUS
10
5.50703
20
-3.35316
11
5.50687
21
-3.35322
0
LINE
8
BLACK
6
CONTINUOUS
10
5.50687
20
-3.35322
11
5.49749
21
-3.35322
0
LINE
8
BLACK
6
CONTINUOUS
10
5.49749
20
-3.35322
11
5.49648
21
-3.35304
0
LINE
8
BLACK
6
CONTINUOUS
10
5.49648
20
-3.35304
11
5.49635
21
-3.35293
0
LINE
8
BLACK
6
CONTINUOUS
10
5.49635
20
-3.35293
11
5.49617
21
-3.35291
0
LINE
8
BLACK
6
CONTINUOUS
10
5.49617
20
-3.35291
11
5.49242
21
-3.35103
0
LINE
8
BLACK
6
CONTINUOUS
10
5.49242
20
-3.35103
11
5.49171
21
-3.35051
0
LINE
8
BLACK
6
CONTINUOUS
10
5.49171
20
-3.35051
11
5.49165
21
-3.35048
0
LINE
8
BLACK
6
CONTINUOUS
10
5.49165
20
-3.35048
11
5.48978
21
-3.34861
0
LINE
8
BLACK
6
CONTINUOUS
10
5.48978
20
-3.34861
11
5.48927
21
-3.34788
0
LINE
8
BLACK
6
CONTINUOUS
10
5.48927
20
-3.34788
11
5.48923
21
-3.34784
0
LINE
8
BLACK
6
CONTINUOUS
10
5.48923
20
-3.34784
11
5.48735
21
-3.34409
0
LINE
8
BLACK
6
CONTINUOUS
10
5.48735
20
-3.34409
11
5.48706
21
-3.34311
0
LINE
8
BLACK
6
CONTINUOUS
10
5.48706
20
-3.34311
11
5.4871
21
-3.34294
0
LINE
8
BLACK
6
CONTINUOUS
10
5.4871
20
-3.34294
11
5.48704
21
-3.34277
0
LINE
8
BLACK
6
CONTINUOUS
10
5.48704
20
-3.34277
11
5.48704
21
-3.3334
0
LINE
8
BLACK
6
CONTINUOUS
10
5.48704
20
-3.3334
11
5.48722
21
-3.33239
0
LINE
8
BLACK
6
CONTINUOUS
10
5.48722
20
-3.33239
11
5.48733
21
-3.33225
0
LINE
8
BLACK
6
CONTINUOUS
10
5.48733
20
-3.33225
11
5.48735
21
-3.33208
0
LINE
8
BLACK
6
CONTINUOUS
10
5.48735
20
-3.33208
11
5.48923
21
-3.32833
0
LINE
8
BLACK
6
CONTINUOUS
10
5.48923
20
-3.32833
11
5.48975
21
-3.32762
0
LINE
8
BLACK
6
CONTINUOUS
10
5.48975
20
-3.32762
11
5.48978
21
-3.32756
0
LINE
8
BLACK
6
CONTINUOUS
10
5.48978
20
-3.32756
11
5.49165
21
-3.32568
0
LINE
8
BLACK
6
CONTINUOUS
10
5.49165
20
-3.32568
11
5.49238
21
-3.32518
0
LINE
8
BLACK
6
CONTINUOUS
10
5.49238
20
-3.32518
11
5.49242
21
-3.32513
0
LINE
8
BLACK
6
CONTINUOUS
10
5.49242
20
-3.32513
11
5.49617
21
-3.32326
0
LINE
8
BLACK
6
CONTINUOUS
10
5.49617
20
-3.32326
11
5.49715
21
-3.32296
0
LINE
8
BLACK
6
CONTINUOUS
10
5.49715
20
-3.32296
11
5.49733
21
-3.323
0
LINE
8
BLACK
6
CONTINUOUS
10
5.49733
20
-3.323
11
5.49749
21
-3.32294
0
LINE
8
BLACK
6
CONTINUOUS
10
5.49749
20
-3.32294
11
5.50687
21
-3.32294
0
LINE
8
BLACK
6
CONTINUOUS
10
5.50687
20
-3.32294
11
5.50788
21
-3.32312
0
LINE
8
BLACK
6
CONTINUOUS
10
5.50788
20
-3.32312
11
5.50801
21
-3.32324
0
LINE
8
BLACK
6
CONTINUOUS
10
5.50801
20
-3.32324
11
5.50819
21
-3.32326
0
LINE
8
BLACK
6
CONTINUOUS
10
5.50819
20
-3.32326
11
5.50892
21
-3.32362
0
LINE
8
BLACK
6
CONTINUOUS
10
5.50892
20
-3.32362
11
5.50846
21
-3.31902
0
LINE
8
BLACK
6
CONTINUOUS
10
5.50846
20
-3.31902
11
5.4769
21
-3.31902
0
LINE
8
BLACK
6
CONTINUOUS
10
5.4769
20
-3.31902
11
5.47793
21
-3.32935
0
LINE
8
BLACK
6
CONTINUOUS
10
5.47793
20
-3.32935
11
5.47786
21
-3.33037
0
LINE
8
BLACK
6
CONTINUOUS
10
5.47786
20
-3.33037
11
5.47784
21
-3.33039
0
LINE
8
BLACK
6
CONTINUOUS
10
5.47784
20
-3.33039
11
5.47785
21
-3.33041
0
LINE
8
BLACK
6
CONTINUOUS
10
5.47785
20
-3.33041
11
5.47728
21
-3.33122
0
LINE
8
BLACK
6
CONTINUOUS
10
5.47728
20
-3.33122
11
5.47672
21
-3.33204
0
LINE
8
BLACK
6
CONTINUOUS
10
5.47672
20
-3.33204
11
5.4767
21
-3.33205
0
LINE
8
BLACK
6
CONTINUOUS
10
5.4767
20
-3.33205
11
5.47669
21
-3.33206
0
LINE
8
BLACK
6
CONTINUOUS
10
5.47669
20
-3.33206
11
5.47573
21
-3.33232
0
LINE
8
BLACK
6
CONTINUOUS
10
5.47573
20
-3.33232
11
5.47477
21
-3.33259
0
LINE
8
BLACK
6
CONTINUOUS
10
5.47477
20
-3.33259
11
5.47476
21
-3.33258
0
LINE
8
BLACK
6
CONTINUOUS
10
5.47476
20
-3.33258
11
5.47474
21
-3.33259
0
LINE
8
BLACK
6
CONTINUOUS
10
5.47474
20
-3.33259
11
5.47384
21
-3.33217
0
LINE
8
BLACK
6
CONTINUOUS
10
5.47384
20
-3.33217
11
5.47293
21
-3.33176
0
LINE
8
BLACK
6
CONTINUOUS
10
5.47293
20
-3.33176
11
5.47292
21
-3.33174
0
LINE
8
BLACK
6
CONTINUOUS
10
5.47292
20
-3.33174
11
5.47291
21
-3.33173
0
LINE
8
BLACK
6
CONTINUOUS
10
5.47291
20
-3.33173
11
5.47137
21
-3.3302
0
LINE
8
BLACK
6
CONTINUOUS
10
5.47137
20
-3.3302
11
5.46867
21
-3.32885
0
LINE
8
BLACK
6
CONTINUOUS
10
5.46867
20
-3.32885
11
5.46069
21
-3.32885
0
LINE
8
BLACK
6
CONTINUOUS
10
5.46069
20
-3.32885
11
5.458
21
-3.3302
0
LINE
8
BLACK
6
CONTINUOUS
10
5.458
20
-3.3302
11
5.4568
21
-3.3314
0
LINE
8
BLACK
6
CONTINUOUS
10
5.4568
20
-3.3314
11
5.45545
21
-3.33409
0
LINE
8
BLACK
6
CONTINUOUS
10
5.45545
20
-3.33409
11
5.45545
21
-3.34207
0
LINE
8
BLACK
6
CONTINUOUS
10
5.45545
20
-3.34207
11
5.4568
21
-3.34477
0
LINE
8
BLACK
6
CONTINUOUS
10
5.4568
20
-3.34477
11
5.458
21
-3.34597
0
LINE
8
BLACK
6
CONTINUOUS
10
5.458
20
-3.34597
11
5.46069
21
-3.34732
0
LINE
8
BLACK
6
CONTINUOUS
10
5.46069
20
-3.34732
11
5.46867
21
-3.34732
0
LINE
8
BLACK
6
CONTINUOUS
10
5.46867
20
-3.34732
11
5.47137
21
-3.34597
0
LINE
8
BLACK
6
CONTINUOUS
10
5.47137
20
-3.34597
11
5.47291
21
-3.34443
0
LINE
8
BLACK
6
CONTINUOUS
10
5.47291
20
-3.34443
11
5.47375
21
-3.34384
0
LINE
8
BLACK
6
CONTINUOUS
10
5.47375
20
-3.34384
11
5.47576
21
-3.34367
0
LINE
8
BLACK
6
CONTINUOUS
10
5.47576
20
-3.34367
11
5.47741
21
-3.34483
0
LINE
8
BLACK
6
CONTINUOUS
10
5.47741
20
-3.34483
11
5.47794
21
-3.34678
0
LINE
8
BLACK
6
CONTINUOUS
10
5.47794
20
-3.34678
11
5.47708
21
-3.34861
0
LINE
8
BLACK
6
CONTINUOUS
10
5.47708
20
-3.34861
11
5.47521
21
-3.35048
0
LINE
8
BLACK
6
CONTINUOUS
10
5.47521
20
-3.35048
11
5.47448
21
-3.35099
0
LINE
8
BLACK
6
CONTINUOUS
10
5.47448
20
-3.35099
11
5.47444
21
-3.35103
0
LINE
8
BLACK
6
CONTINUOUS
10
5.47444
20
-3.35103
11
5.47069
21
-3.35291
0
LINE
8
BLACK
6
CONTINUOUS
10
5.47069
20
-3.35291
11
5.46971
21
-3.3532
0
LINE
8
BLACK
6
CONTINUOUS
10
5.46971
20
-3.3532
11
5.46954
21
-3.35316
0
LINE
8
BLACK
6
CONTINUOUS
10
5.46954
20
-3.35316
11
5.46937
21
-3.35322
0
LINE
8
BLACK
6
CONTINUOUS
10
5.46937
20
-3.35322
11
5.46
21
-3.35322
0
LINE
8
BLACK
6
CONTINUOUS
10
5.46
20
-3.35322
11
5.45899
21
-3.35304
0
LINE
8
BLACK
6
CONTINUOUS
10
5.45899
20
-3.35304
11
5.45885
21
-3.35293
0
LINE
8
BLACK
6
CONTINUOUS
10
5.45885
20
-3.35293
11
5.45868
21
-3.35291
0
LINE
8
BLACK
6
CONTINUOUS
10
5.45868
20
-3.35291
11
5.45493
21
-3.35103
0
LINE
8
BLACK
6
CONTINUOUS
10
5.45493
20
-3.35103
11
5.45422
21
-3.35051
0
LINE
8
BLACK
6
CONTINUOUS
10
5.45422
20
-3.35051
11
5.45416
21
-3.35048
0
LINE
8
BLACK
6
CONTINUOUS
10
5.45416
20
-3.35048
11
5.45228
21
-3.34861
0
LINE
8
BLACK
6
CONTINUOUS
10
5.45228
20
-3.34861
11
5.45178
21
-3.34788
0
LINE
8
BLACK
6
CONTINUOUS
10
5.45178
20
-3.34788
11
5.45173
21
-3.34784
0
LINE
8
BLACK
6
CONTINUOUS
10
5.45173
20
-3.34784
11
5.44986
21
-3.34409
0
LINE
8
BLACK
6
CONTINUOUS
10
5.44986
20
-3.34409
11
5.44956
21
-3.34311
0
LINE
8
BLACK
6
CONTINUOUS
10
5.44956
20
-3.34311
11
5.4496
21
-3.34294
0
LINE
8
BLACK
6
CONTINUOUS
10
5.4496
20
-3.34294
11
5.44954
21
-3.34277
0
LINE
8
BLACK
6
CONTINUOUS
10
5.44954
20
-3.34277
11
5.44954
21
-3.3334
0
LINE
8
BLACK
6
CONTINUOUS
10
5.44954
20
-3.3334
11
5.44972
21
-3.33239
0
LINE
8
BLACK
6
CONTINUOUS
10
5.44972
20
-3.33239
11
5.44984
21
-3.33225
0
LINE
8
BLACK
6
CONTINUOUS
10
5.44984
20
-3.33225
11
5.44986
21
-3.33208
0
LINE
8
BLACK
6
CONTINUOUS
10
5.44986
20
-3.33208
11
5.45173
21
-3.32833
0
LINE
8
BLACK
6
CONTINUOUS
10
5.45173
20
-3.32833
11
5.45226
21
-3.32762
0
LINE
8
BLACK
6
CONTINUOUS
10
5.45226
20
-3.32762
11
5.45228
21
-3.32756
0
LINE
8
BLACK
6
CONTINUOUS
10
5.45228
20
-3.32756
11
5.45416
21
-3.32568
0
LINE
8
BLACK
6
CONTINUOUS
10
5.45416
20
-3.32568
11
5.45488
21
-3.32518
0
LINE
8
BLACK
6
CONTINUOUS
10
5.45488
20
-3.32518
11
5.45493
21
-3.32513
0
LINE
8
BLACK
6
CONTINUOUS
10
5.45493
20
-3.32513
11
5.45868
21
-3.32326
0
LINE
8
BLACK
6
CONTINUOUS
10
5.45868
20
-3.32326
11
5.45966
21
-3.32296
0
LINE
8
BLACK
6
CONTINUOUS
10
5.45966
20
-3.32296
11
5.45983
21
-3.323
0
LINE
8
BLACK
6
CONTINUOUS
10
5.45983
20
-3.323
11
5.46
21
-3.32294
0
LINE
8
BLACK
6
CONTINUOUS
10
5.46
20
-3.32294
11
5.46937
21
-3.32294
0
LINE
8
BLACK
6
CONTINUOUS
10
5.46937
20
-3.32294
11
5.47038
21
-3.32312
0
LINE
8
BLACK
6
CONTINUOUS
10
5.47038
20
-3.32312
11
5.47052
21
-3.32324
0
LINE
8
BLACK
6
CONTINUOUS
10
5.47052
20
-3.32324
11
5.47069
21
-3.32326
0
LINE
8
BLACK
6
CONTINUOUS
10
5.47069
20
-3.32326
11
5.47142
21
-3.32362
0
LINE
8
BLACK
6
CONTINUOUS
10
5.47142
20
-3.32362
11
5.47096
21
-3.31902
0
LINE
8
BLACK
6
CONTINUOUS
10
5.47096
20
-3.31902
11
5.43828
21
-3.31902
0
LINE
8
BLACK
6
CONTINUOUS
10
5.43828
20
-3.31902
11
5.43841
21
-3.31944
0
LINE
8
BLACK
6
CONTINUOUS
10
5.43841
20
-3.31944
11
5.43849
21
-3.31956
0
LINE
8
BLACK
6
CONTINUOUS
10
5.43849
20
-3.31956
11
5.44036
21
-3.32706
0
LINE
8
BLACK
6
CONTINUOUS
10
5.44036
20
-3.32706
11
5.44041
21
-3.32764
0
LINE
8
BLACK
6
CONTINUOUS
10
5.44041
20
-3.32764
11
5.44045
21
-3.32777
0
LINE
8
BLACK
6
CONTINUOUS
10
5.44045
20
-3.32777
11
5.44045
21
-3.3334
0
LINE
8
BLACK
6
CONTINUOUS
10
5.44045
20
-3.3334
11
5.44035
21
-3.33398
0
LINE
8
BLACK
6
CONTINUOUS
10
5.44035
20
-3.33398
11
5.44036
21
-3.33411
0
LINE
8
BLACK
6
CONTINUOUS
10
5.44036
20
-3.33411
11
5.43849
21
-3.34161
0
LINE
8
BLACK
6
CONTINUOUS
10
5.43849
20
-3.34161
11
5.43828
21
-3.34208
0
LINE
8
BLACK
6
CONTINUOUS
10
5.43828
20
-3.34208
11
5.43827
21
-3.34222
0
LINE
8
BLACK
6
CONTINUOUS
10
5.43827
20
-3.34222
11
5.43639
21
-3.34596
0
LINE
8
BLACK
6
CONTINUOUS
10
5.43639
20
-3.34596
11
5.43586
21
-3.34667
0
LINE
8
BLACK
6
CONTINUOUS
10
5.43586
20
-3.34667
11
5.43584
21
-3.34673
0
LINE
8
BLACK
6
CONTINUOUS
10
5.43584
20
-3.34673
11
5.43209
21
-3.35048
0
LINE
8
BLACK
6
CONTINUOUS
10
5.43209
20
-3.35048
11
5.43125
21
-3.35107
0
LINE
8
BLACK
6
CONTINUOUS
10
5.43125
20
-3.35107
11
5.43107
21
-3.35109
0
LINE
8
BLACK
6
CONTINUOUS
10
5.43107
20
-3.35109
11
5.43093
21
-3.35119
0
LINE
8
BLACK
6
CONTINUOUS
10
5.43093
20
-3.35119
11
5.42531
21
-3.35307
0
LINE
8
BLACK
6
CONTINUOUS
10
5.42531
20
-3.35307
11
5.42444
21
-3.3532
0
LINE
8
BLACK
6
CONTINUOUS
10
5.42444
20
-3.3532
11
5.42438
21
-3.35322
0
LINE
8
BLACK
6
CONTINUOUS
10
5.42438
20
-3.35322
11
5.42063
21
-3.35322
0
LINE
8
BLACK
6
CONTINUOUS
10
5.42063
20
-3.35322
11
5.41976
21
-3.35307
0
LINE
8
BLACK
6
CONTINUOUS
10
5.41976
20
-3.35307
11
5.41969
21
-3.35307
0
LINE
8
BLACK
6
CONTINUOUS
10
5.41969
20
-3.35307
11
5.41407
21
-3.35119
0
LINE
8
BLACK
6
CONTINUOUS
10
5.41407
20
-3.35119
11
5.41317
21
-3.35071
0
LINE
8
BLACK
6
CONTINUOUS
10
5.41317
20
-3.35071
11
5.41307
21
-3.35056
0
LINE
8
BLACK
6
CONTINUOUS
10
5.41307
20
-3.35056
11
5.41291
21
-3.35048
0
LINE
8
BLACK
6
CONTINUOUS
10
5.41291
20
-3.35048
11
5.41104
21
-3.34861
0
LINE
8
BLACK
6
CONTINUOUS
10
5.41104
20
-3.34861
11
5.41045
21
-3.34777
0
LINE
8
BLACK
6
CONTINUOUS
10
5.41045
20
-3.34777
11
5.41027
21
-3.34575
0
LINE
8
BLACK
6
CONTINUOUS
10
5.41027
20
-3.34575
11
5.41143
21
-3.3441
0
LINE
8
BLACK
6
CONTINUOUS
10
5.41143
20
-3.3441
11
5.41338
21
-3.34358
0
LINE
8
BLACK
6
CONTINUOUS
10
5.41338
20
-3.34358
11
5.41522
21
-3.34443
0
LINE
8
BLACK
6
CONTINUOUS
10
5.41522
20
-3.34443
11
5.4166
21
-3.34581
0
LINE
8
BLACK
6
CONTINUOUS
10
5.4166
20
-3.34581
11
5.42111
21
-3.34732
0
LINE
8
BLACK
6
CONTINUOUS
10
5.42111
20
-3.34732
11
5.4239
21
-3.34732
0
LINE
8
BLACK
6
CONTINUOUS
10
5.4239
20
-3.34732
11
5.4284
21
-3.34581
0
LINE
8
BLACK
6
CONTINUOUS
10
5.4284
20
-3.34581
11
5.43132
21
-3.3429
0
LINE
8
BLACK
6
CONTINUOUS
10
5.43132
20
-3.3429
11
5.43284
21
-3.33986
0
LINE
8
BLACK
6
CONTINUOUS
10
5.43284
20
-3.33986
11
5.43455
21
-3.33303
0
LINE
8
BLACK
6
CONTINUOUS
10
5.43455
20
-3.33303
11
5.43455
21
-3.32813
0
LINE
8
BLACK
6
CONTINUOUS
10
5.43455
20
-3.32813
11
5.43284
21
-3.3213
0
LINE
8
BLACK
6
CONTINUOUS
10
5.43284
20
-3.3213
11
5.43169
21
-3.31902
0
LINE
8
BLACK
6
CONTINUOUS
10
5.43169
20
-3.31902
11
5.36902
21
-3.31902
0
LINE
8
BLACK
6
CONTINUOUS
10
5.36902
20
-3.31902
11
5.36902
21
-3.33232
0
LINE
8
BLACK
6
CONTINUOUS
10
5.36902
20
-3.33232
11
5.39625
21
-3.33232
0
LINE
8
BLACK
6
CONTINUOUS
10
5.39625
20
-3.33232
11
5.39726
21
-3.3325
0
LINE
8
BLACK
6
CONTINUOUS
10
5.39726
20
-3.3325
11
5.39881
21
-3.33379
0
LINE
8
BLACK
6
CONTINUOUS
10
5.39881
20
-3.33379
11
5.39916
21
-3.33578
0
LINE
8
BLACK
6
CONTINUOUS
10
5.39916
20
-3.33578
11
5.39815
21
-3.33753
0
LINE
8
BLACK
6
CONTINUOUS
10
5.39815
20
-3.33753
11
5.39625
21
-3.33822
0
LINE
8
BLACK
6
CONTINUOUS
10
5.39625
20
-3.33822
11
5.36902
21
-3.33822
0
LINE
8
BLACK
6
CONTINUOUS
10
5.36902
20
-3.33822
11
5.36902
21
-3.47214
0
LINE
8
BLACK
6
CONTINUOUS
10
5.36902
20
-3.47214
11
5.41786
21
-3.52098
0
LINE
8
BLACK
6
CONTINUOUS
10
5.41786
20
-3.52098
11
5.57098
21
-3.52098
0
LINE
8
BLACK
6
CONTINUOUS
10
5.57098
20
-3.52098
11
5.57098
21
-3.35322
0
LINE
8
BLACK
6
CONTINUOUS
10
5.57098
20
-3.35322
11
5.55936
21
-3.35322
0
LINE
8
BLACK
6
CONTINUOUS
10
5.55936
20
-3.35322
11
5.55835
21
-3.35304
0
LINE
8
BLACK
6
CONTINUOUS
10
5.55835
20
-3.35304
11
5.5568
21
-3.35174
0
LINE
8
BLACK
6
CONTINUOUS
10
5.5568
20
-3.35174
11
5.55645
21
-3.34976
0
LINE
8
BLACK
6
CONTINUOUS
10
5.55645
20
-3.34976
11
5.55746
21
-3.34801
0
LINE
8
BLACK
6
CONTINUOUS
10
5.55746
20
-3.34801
11
5.55936
21
-3.34732
0
LINE
8
BLACK
6
CONTINUOUS
10
5.55936
20
-3.34732
11
5.57098
21
-3.34732
0
LINE
8
BLACK
6
CONTINUOUS
10
5.57098
20
-3.34732
11
5.57098
21
-3.33366
0
LINE
8
BLACK
6
CONTINUOUS
10
5.57098
20
-3.33366
11
5.56122
21
-3.31902
0
LINE
8
BLACK
6
CONTINUOUS
10
5.56122
20
-3.31902
11
5.55039
21
-3.31902
0
LINE
8
BLACK
6
CONTINUOUS
10
5.57492
20
-3.34732
11
5.58009
21
-3.34732
0
LINE
8
BLACK
6
CONTINUOUS
10
5.58009
20
-3.34732
11
5.57492
21
-3.33957
0
LINE
8
BLACK
6
CONTINUOUS
10
5.57492
20
-3.33957
11
5.57492
21
-3.34732
0
LINE
8
BLACK
6
CONTINUOUS
10
5.52956
20
-3.31902
11
5.53686
21
-3.34093
0
LINE
8
BLACK
6
CONTINUOUS
10
5.53686
20
-3.34093
11
5.54417
21
-3.31902
0
LINE
8
BLACK
6
CONTINUOUS
10
5.54417
20
-3.31902
11
5.52956
21
-3.31902
0
LINE
8
BLACK
6
CONTINUOUS
10
5.56832
20
-3.31902
11
5.57098
21
-3.32301
0
LINE
8
BLACK
6
CONTINUOUS
10
5.57098
20
-3.32301
11
5.57098
21
-3.31902
0
LINE
8
BLACK
6
CONTINUOUS
10
5.57098
20
-3.31902
11
5.56832
21
-3.31902
0
LINE
8
BLACK
6
CONTINUOUS
10
5.41742
20
-3.31508
11
5.42758
21
-3.31508
0
LINE
8
BLACK
6
CONTINUOUS
10
5.42758
20
-3.31508
11
5.4239
21
-3.31385
0
LINE
8
BLACK
6
CONTINUOUS
10
5.4239
20
-3.31385
11
5.42111
21
-3.31385
0
LINE
8
BLACK
6
CONTINUOUS
10
5.42111
20
-3.31385
11
5.41742
21
-3.31508
0
LINE
8
BLACK
6
CONTINUOUS
10
5.3104
20
-3.3465
11
5.31109
21
-3.34839
0
LINE
8
BLACK
6
CONTINUOUS
10
5.31109
20
-3.34839
11
5.31109
21
-3.34957
0
LINE
8
BLACK
6
CONTINUOUS
10
5.31109
20
-3.34957
11
5.31244
21
-3.35227
0
LINE
8
BLACK
6
CONTINUOUS
10
5.31244
20
-3.35227
11
5.31398
21
-3.3538
0
LINE
8
BLACK
6
CONTINUOUS
10
5.31398
20
-3.3538
11
5.31457
21
-3.35464
0
LINE
8
BLACK
6
CONTINUOUS
10
5.31457
20
-3.35464
11
5.31474
21
-3.35666
0
LINE
8
BLACK
6
CONTINUOUS
10
5.31474
20
-3.35666
11
5.31358
21
-3.35831
0
LINE
8
BLACK
6
CONTINUOUS
10
5.31358
20
-3.35831
11
5.31163
21
-3.35883
0
LINE
8
BLACK
6
CONTINUOUS
10
5.31163
20
-3.35883
11
5.3098
21
-3.35798
0
LINE
8
BLACK
6
CONTINUOUS
10
5.3098
20
-3.35798
11
5.30793
21
-3.35611
0
LINE
8
BLACK
6
CONTINUOUS
10
5.30793
20
-3.35611
11
5.30742
21
-3.35538
0
LINE
8
BLACK
6
CONTINUOUS
10
5.30742
20
-3.35538
11
5.30737
21
-3.35534
0
LINE
8
BLACK
6
CONTINUOUS
10
5.30737
20
-3.35534
11
5.3055
21
-3.35159
0
LINE
8
BLACK
6
CONTINUOUS
10
5.3055
20
-3.35159
11
5.30521
21
-3.35061
0
LINE
8
BLACK
6
CONTINUOUS
10
5.30521
20
-3.35061
11
5.30525
21
-3.35043
0
LINE
8
BLACK
6
CONTINUOUS
10
5.30525
20
-3.35043
11
5.30519
21
-3.35027
0
LINE
8
BLACK
6
CONTINUOUS
10
5.30519
20
-3.35027
11
5.30519
21
-3.34839
0
LINE
8
BLACK
6
CONTINUOUS
10
5.30519
20
-3.34839
11
5.30537
21
-3.34738
0
LINE
8
BLACK
6
CONTINUOUS
10
5.30537
20
-3.34738
11
5.30666
21
-3.34584
0
LINE
8
BLACK
6
CONTINUOUS
10
5.30666
20
-3.34584
11
5.30865
21
-3.34549
0
LINE
8
BLACK
6
CONTINUOUS
10
5.30865
20
-3.34549
11
5.3104
21
-3.3465
0
LINE
8
BLACK
6
CONTINUOUS
10
5.2829
20
-3.30812
11
5.28304
21
-3.30824
0
LINE
8
BLACK
6
CONTINUOUS
10
5.28304
20
-3.30824
11
5.28321
21
-3.30826
0
LINE
8
BLACK
6
CONTINUOUS
10
5.28321
20
-3.30826
11
5.28696
21
-3.31013
0
LINE
8
BLACK
6
CONTINUOUS
10
5.28696
20
-3.31013
11
5.28767
21
-3.31066
0
LINE
8
BLACK
6
CONTINUOUS
10
5.28767
20
-3.31066
11
5.28773
21
-3.31069
0
LINE
8
BLACK
6
CONTINUOUS
10
5.28773
20
-3.31069
11
5.28961
21
-3.31256
0
LINE
8
BLACK
6
CONTINUOUS
10
5.28961
20
-3.31256
11
5.28986
21
-3.31293
0
LINE
8
BLACK
6
CONTINUOUS
10
5.28986
20
-3.31293
11
5.28997
21
-3.31301
0
LINE
8
BLACK
6
CONTINUOUS
10
5.28997
20
-3.31301
11
5.29372
21
-3.31863
0
LINE
8
BLACK
6
CONTINUOUS
10
5.29372
20
-3.31863
11
5.29412
21
-3.31954
0
LINE
8
BLACK
6
CONTINUOUS
10
5.29412
20
-3.31954
11
5.29413
21
-3.31956
0
LINE
8
BLACK
6
CONTINUOUS
10
5.29413
20
-3.31956
11
5.29601
21
-3.32706
0
LINE
8
BLACK
6
CONTINUOUS
10
5.29601
20
-3.32706
11
5.29605
21
-3.32764
0
LINE
8
BLACK
6
CONTINUOUS
10
5.29605
20
-3.32764
11
5.29609
21
-3.32777
0
LINE
8
BLACK
6
CONTINUOUS
10
5.29609
20
-3.32777
11
5.29609
21
-3.34277
0
LINE
8
BLACK
6
CONTINUOUS
10
5.29609
20
-3.34277
11
5.29592
21
-3.34378
0
LINE
8
BLACK
6
CONTINUOUS
10
5.29592
20
-3.34378
11
5.2958
21
-3.34391
0
LINE
8
BLACK
6
CONTINUOUS
10
5.2958
20
-3.34391
11
5.29578
21
-3.34409
0
LINE
8
BLACK
6
CONTINUOUS
10
5.29578
20
-3.34409
11
5.29391
21
-3.34784
0
LINE
8
BLACK
6
CONTINUOUS
10
5.29391
20
-3.34784
11
5.29338
21
-3.34855
0
LINE
8
BLACK
6
CONTINUOUS
10
5.29338
20
-3.34855
11
5.29336
21
-3.34861
0
LINE
8
BLACK
6
CONTINUOUS
10
5.29336
20
-3.34861
11
5.29148
21
-3.35048
0
LINE
8
BLACK
6
CONTINUOUS
10
5.29148
20
-3.35048
11
5.29076
21
-3.35099
0
LINE
8
BLACK
6
CONTINUOUS
10
5.29076
20
-3.35099
11
5.29071
21
-3.35103
0
LINE
8
BLACK
6
CONTINUOUS
10
5.29071
20
-3.35103
11
5.28696
21
-3.35291
0
LINE
8
BLACK
6
CONTINUOUS
10
5.28696
20
-3.35291
11
5.28598
21
-3.3532
0
LINE
8
BLACK
6
CONTINUOUS
10
5.28598
20
-3.3532
11
5.28581
21
-3.35316
0
LINE
8
BLACK
6
CONTINUOUS
10
5.28581
20
-3.35316
11
5.28564
21
-3.35322
0
LINE
8
BLACK
6
CONTINUOUS
10
5.28564
20
-3.35322
11
5.27814
21
-3.35322
0
LINE
8
BLACK
6
CONTINUOUS
10
5.27814
20
-3.35322
11
5.27713
21
-3.35304
0
LINE
8
BLACK
6
CONTINUOUS
10
5.27713
20
-3.35304
11
5.277
21
-3.35293
0
LINE
8
BLACK
6
CONTINUOUS
10
5.277
20
-3.35293
11
5.27682
21
-3.35291
0
LINE
8
BLACK
6
CONTINUOUS
10
5.27682
20
-3.35291
11
5.27307
21
-3.35103
0
LINE
8
BLACK
6
CONTINUOUS
10
5.27307
20
-3.35103
11
5.27236
21
-3.35051
0
LINE
8
BLACK
6
CONTINUOUS
10
5.27236
20
-3.35051
11
5.27231
21
-3.35048
0
LINE
8
BLACK
6
CONTINUOUS
10
5.27231
20
-3.35048
11
5.27043
21
-3.34861
0
LINE
8
BLACK
6
CONTINUOUS
10
5.27043
20
-3.34861
11
5.26993
21
-3.34788
0
LINE
8
BLACK
6
CONTINUOUS
10
5.26993
20
-3.34788
11
5.26988
21
-3.34784
0
LINE
8
BLACK
6
CONTINUOUS
10
5.26988
20
-3.34784
11
5.268
21
-3.34409
0
LINE
8
BLACK
6
CONTINUOUS
10
5.268
20
-3.34409
11
5.26771
21
-3.34311
0
LINE
8
BLACK
6
CONTINUOUS
10
5.26771
20
-3.34311
11
5.26775
21
-3.34294
0
LINE
8
BLACK
6
CONTINUOUS
10
5.26775
20
-3.34294
11
5.26769
21
-3.34277
0
LINE
8
BLACK
6
CONTINUOUS
10
5.26769
20
-3.34277
11
5.26769
21
-3.3334
0
LINE
8
BLACK
6
CONTINUOUS
10
5.26769
20
-3.3334
11
5.26787
21
-3.33239
0
LINE
8
BLACK
6
CONTINUOUS
10
5.26787
20
-3.33239
11
5.26798
21
-3.33225
0
LINE
8
BLACK
6
CONTINUOUS
10
5.26798
20
-3.33225
11
5.268
21
-3.33208
0
LINE
8
BLACK
6
CONTINUOUS
10
5.268
20
-3.33208
11
5.26988
21
-3.32833
0
LINE
8
BLACK
6
CONTINUOUS
10
5.26988
20
-3.32833
11
5.2704
21
-3.32762
0
LINE
8
BLACK
6
CONTINUOUS
10
5.2704
20
-3.32762
11
5.27043
21
-3.32756
0
LINE
8
BLACK
6
CONTINUOUS
10
5.27043
20
-3.32756
11
5.27231
21
-3.32568
0
LINE
8
BLACK
6
CONTINUOUS
10
5.27231
20
-3.32568
11
5.27303
21
-3.32518
0
LINE
8
BLACK
6
CONTINUOUS
10
5.27303
20
-3.32518
11
5.27307
21
-3.32513
0
LINE
8
BLACK
6
CONTINUOUS
10
5.27307
20
-3.32513
11
5.27682
21
-3.32326
0
LINE
8
BLACK
6
CONTINUOUS
10
5.27682
20
-3.32326
11
5.27781
21
-3.32296
0
LINE
8
BLACK
6
CONTINUOUS
10
5.27781
20
-3.32296
11
5.27798
21
-3.323
0
LINE
8
BLACK
6
CONTINUOUS
10
5.27798
20
-3.323
11
5.27814
21
-3.32294
0
LINE
8
BLACK
6
CONTINUOUS
10
5.27814
20
-3.32294
11
5.28564
21
-3.32294
0
LINE
8
BLACK
6
CONTINUOUS
10
5.28564
20
-3.32294
11
5.28665
21
-3.32312
0
LINE
8
BLACK
6
CONTINUOUS
10
5.28665
20
-3.32312
11
5.28679
21
-3.32324
0
LINE
8
BLACK
6
CONTINUOUS
10
5.28679
20
-3.32324
11
5.28696
21
-3.32326
0
LINE
8
BLACK
6
CONTINUOUS
10
5.28696
20
-3.32326
11
5.28926
21
-3.3244
0
LINE
8
BLACK
6
CONTINUOUS
10
5.28926
20
-3.3244
11
5.28853
21
-3.32148
0
LINE
8
BLACK
6
CONTINUOUS
10
5.28853
20
-3.32148
11
5.28522
21
-3.31653
0
LINE
8
BLACK
6
CONTINUOUS
10
5.28522
20
-3.31653
11
5.28389
21
-3.3152
0
LINE
8
BLACK
6
CONTINUOUS
10
5.28389
20
-3.3152
11
5.2812
21
-3.31385
0
LINE
8
BLACK
6
CONTINUOUS
10
5.2812
20
-3.31385
11
5.27439
21
-3.31385
0
LINE
8
BLACK
6
CONTINUOUS
10
5.27439
20
-3.31385
11
5.27338
21
-3.31367
0
LINE
8
BLACK
6
CONTINUOUS
10
5.27338
20
-3.31367
11
5.27184
21
-3.31237
0
LINE
8
BLACK
6
CONTINUOUS
10
5.27184
20
-3.31237
11
5.27149
21
-3.31039
0
LINE
8
BLACK
6
CONTINUOUS
10
5.27149
20
-3.31039
11
5.2725
21
-3.30864
0
LINE
8
BLACK
6
CONTINUOUS
10
5.2725
20
-3.30864
11
5.27439
21
-3.30795
0
LINE
8
BLACK
6
CONTINUOUS
10
5.27439
20
-3.30795
11
5.28189
21
-3.30795
0
LINE
8
BLACK
6
CONTINUOUS
10
5.28189
20
-3.30795
11
5.2829
21
-3.30812
0
LINE
8
BLACK
6
CONTINUOUS
10
5.27614
20
-3.3302
11
5.27495
21
-3.3314
0
LINE
8
BLACK
6
CONTINUOUS
10
5.27495
20
-3.3314
11
5.2736
21
-3.33409
0
LINE
8
BLACK
6
CONTINUOUS
10
5.2736
20
-3.33409
11
5.2736
21
-3.34207
0
LINE
8
BLACK
6
CONTINUOUS
10
5.2736
20
-3.34207
11
5.27495
21
-3.34477
0
LINE
8
BLACK
6
CONTINUOUS
10
5.27495
20
-3.34477
11
5.27614
21
-3.34597
0
LINE
8
BLACK
6
CONTINUOUS
10
5.27614
20
-3.34597
11
5.27884
21
-3.34732
0
LINE
8
BLACK
6
CONTINUOUS
10
5.27884
20
-3.34732
11
5.28495
21
-3.34732
0
LINE
8
BLACK
6
CONTINUOUS
10
5.28495
20
-3.34732
11
5.28764
21
-3.34597
0
LINE
8
BLACK
6
CONTINUOUS
10
5.28764
20
-3.34597
11
5.28884
21
-3.34477
0
LINE
8
BLACK
6
CONTINUOUS
10
5.28884
20
-3.34477
11
5.29019
21
-3.34207
0
LINE
8
BLACK
6
CONTINUOUS
10
5.29019
20
-3.34207
11
5.29019
21
-3.33409
0
LINE
8
BLACK
6
CONTINUOUS
10
5.29019
20
-3.33409
11
5.28884
21
-3.3314
0
LINE
8
BLACK
6
CONTINUOUS
10
5.28884
20
-3.3314
11
5.28764
21
-3.3302
0
LINE
8
BLACK
6
CONTINUOUS
10
5.28764
20
-3.3302
11
5.28495
21
-3.32885
0
LINE
8
BLACK
6
CONTINUOUS
10
5.28495
20
-3.32885
11
5.27884
21
-3.32885
0
LINE
8
BLACK
6
CONTINUOUS
10
5.27884
20
-3.32885
11
5.27614
21
-3.3302
0
LINE
8
BLACK
6
CONTINUOUS
10
5.34766
20
-3.30797
11
5.34773
21
-3.30795
0
LINE
8
BLACK
6
CONTINUOUS
10
5.34773
20
-3.30795
11
5.34784
21
-3.308
0
LINE
8
BLACK
6
CONTINUOUS
10
5.34784
20
-3.308
11
5.34852
21
-3.30812
0
LINE
8
BLACK
6
CONTINUOUS
10
5.34852
20
-3.30812
11
5.349
21
-3.30853
0
LINE
8
BLACK
6
CONTINUOUS
10
5.349
20
-3.30853
11
5.34957
21
-3.30878
0
LINE
8
BLACK
6
CONTINUOUS
10
5.34957
20
-3.30878
11
5.34975
21
-3.30916
0
LINE
8
BLACK
6
CONTINUOUS
10
5.34975
20
-3.30916
11
5.35007
21
-3.30942
0
LINE
8
BLACK
6
CONTINUOUS
10
5.35007
20
-3.30942
11
5.35018
21
-3.31004
0
LINE
8
BLACK
6
CONTINUOUS
10
5.35018
20
-3.31004
11
5.35045
21
-3.3106
0
LINE
8
BLACK
6
CONTINUOUS
10
5.35045
20
-3.3106
11
5.35232
21
-3.32935
0
LINE
8
BLACK
6
CONTINUOUS
10
5.35232
20
-3.32935
11
5.35225
21
-3.33037
0
LINE
8
BLACK
6
CONTINUOUS
10
5.35225
20
-3.33037
11
5.35224
21
-3.33039
0
LINE
8
BLACK
6
CONTINUOUS
10
5.35224
20
-3.33039
11
5.35224
21
-3.33041
0
LINE
8
BLACK
6
CONTINUOUS
10
5.35224
20
-3.33041
11
5.35167
21
-3.33122
0
LINE
8
BLACK
6
CONTINUOUS
10
5.35167
20
-3.33122
11
5.35111
21
-3.33204
0
LINE
8
BLACK
6
CONTINUOUS
10
5.35111
20
-3.33204
11
5.35109
21
-3.33205
0
LINE
8
BLACK
6
CONTINUOUS
10
5.35109
20
-3.33205
11
5.35108
21
-3.33206
0
LINE
8
BLACK
6
CONTINUOUS
10
5.35108
20
-3.33206
11
5.35012
21
-3.33232
0
LINE
8
BLACK
6
CONTINUOUS
10
5.35012
20
-3.33232
11
5.34916
21
-3.33259
0
LINE
8
BLACK
6
CONTINUOUS
10
5.34916
20
-3.33259
11
5.34915
21
-3.33258
0
LINE
8
BLACK
6
CONTINUOUS
10
5.34915
20
-3.33258
11
5.34913
21
-3.33259
0
LINE
8
BLACK
6
CONTINUOUS
10
5.34913
20
-3.33259
11
5.34823
21
-3.33217
0
LINE
8
BLACK
6
CONTINUOUS
10
5.34823
20
-3.33217
11
5.34732
21
-3.33176
0
LINE
8
BLACK
6
CONTINUOUS
10
5.34732
20
-3.33176
11
5.34731
21
-3.33174
0
LINE
8
BLACK
6
CONTINUOUS
10
5.34731
20
-3.33174
11
5.3473
21
-3.33173
0
LINE
8
BLACK
6
CONTINUOUS
10
5.3473
20
-3.33173
11
5.34576
21
-3.3302
0
LINE
8
BLACK
6
CONTINUOUS
10
5.34576
20
-3.3302
11
5.34306
21
-3.32885
0
LINE
8
BLACK
6
CONTINUOUS
10
5.34306
20
-3.32885
11
5.33508
21
-3.32885
0
LINE
8
BLACK
6
CONTINUOUS
10
5.33508
20
-3.32885
11
5.33239
21
-3.3302
0
LINE
8
BLACK
6
CONTINUOUS
10
5.33239
20
-3.3302
11
5.33119
21
-3.3314
0
LINE
8
BLACK
6
CONTINUOUS
10
5.33119
20
-3.3314
11
5.32984
21
-3.33409
0
LINE
8
BLACK
6
CONTINUOUS
10
5.32984
20
-3.33409
11
5.32984
21
-3.34207
0
LINE
8
BLACK
6
CONTINUOUS
10
5.32984
20
-3.34207
11
5.33119
21
-3.34477
0
LINE
8
BLACK
6
CONTINUOUS
10
5.33119
20
-3.34477
11
5.33239
21
-3.34597
0
LINE
8
BLACK
6
CONTINUOUS
10
5.33239
20
-3.34597
11
5.33508
21
-3.34732
0
LINE
8
BLACK
6
CONTINUOUS
10
5.33508
20
-3.34732
11
5.34306
21
-3.34732
0
LINE
8
BLACK
6
CONTINUOUS
10
5.34306
20
-3.34732
11
5.34576
21
-3.34597
0
LINE
8
BLACK
6
CONTINUOUS
10
5.34576
20
-3.34597
11
5.3473
21
-3.34443
0
LINE
8
BLACK
6
CONTINUOUS
10
5.3473
20
-3.34443
11
5.34814
21
-3.34384
0
LINE
8
BLACK
6
CONTINUOUS
10
5.34814
20
-3.34384
11
5.35015
21
-3.34367
0
LINE
8
BLACK
6
CONTINUOUS
10
5.35015
20
-3.34367
11
5.3518
21
-3.34483
0
LINE
8
BLACK
6
CONTINUOUS
10
5.3518
20
-3.34483
11
5.35233
21
-3.34678
0
LINE
8
BLACK
6
CONTINUOUS
10
5.35233
20
-3.34678
11
5.35147
21
-3.34861
0
LINE
8
BLACK
6
CONTINUOUS
10
5.35147
20
-3.34861
11
5.3496
21
-3.35048
0
LINE
8
BLACK
6
CONTINUOUS
10
5.3496
20
-3.35048
11
5.34888
21
-3.35099
0
LINE
8
BLACK
6
CONTINUOUS
10
5.34888
20
-3.35099
11
5.34883
21
-3.35103
0
LINE
8
BLACK
6
CONTINUOUS
10
5.34883
20
-3.35103
11
5.34508
21
-3.35291
0
LINE
8
BLACK
6
CONTINUOUS
10
5.34508
20
-3.35291
11
5.3441
21
-3.3532
0
LINE
8
BLACK
6
CONTINUOUS
10
5.3441
20
-3.3532
11
5.34393
21
-3.35316
0
LINE
8
BLACK
6
CONTINUOUS
10
5.34393
20
-3.35316
11
5.34376
21
-3.35322
0
LINE
8
BLACK
6
CONTINUOUS
10
5.34376
20
-3.35322
11
5.33439
21
-3.35322
0
LINE
8
BLACK
6
CONTINUOUS
10
5.33439
20
-3.35322
11
5.33338
21
-3.35304
0
LINE
8
BLACK
6
CONTINUOUS
10
5.33338
20
-3.35304
11
5.33324
21
-3.35293
0
LINE
8
BLACK
6
CONTINUOUS
10
5.33324
20
-3.35293
11
5.33307
21
-3.35291
0
LINE
8
BLACK
6
CONTINUOUS
10
5.33307
20
-3.35291
11
5.32932
21
-3.35103
0
LINE
8
BLACK
6
CONTINUOUS
10
5.32932
20
-3.35103
11
5.32861
21
-3.35051
0
LINE
8
BLACK
6
CONTINUOUS
10
5.32861
20
-3.35051
11
5.32855
21
-3.35048
0
LINE
8
BLACK
6
CONTINUOUS
10
5.32855
20
-3.35048
11
5.32667
21
-3.34861
0
LINE
8
BLACK
6
CONTINUOUS
10
5.32667
20
-3.34861
11
5.32617
21
-3.34788
0
LINE
8
BLACK
6
CONTINUOUS
10
5.32617
20
-3.34788
11
5.32612
21
-3.34784
0
LINE
8
BLACK
6
CONTINUOUS
10
5.32612
20
-3.34784
11
5.32425
21
-3.34409
0
LINE
8
BLACK
6
CONTINUOUS
10
5.32425
20
-3.34409
11
5.32395
21
-3.34311
0
LINE
8
BLACK
6
CONTINUOUS
10
5.32395
20
-3.34311
11
5.324
21
-3.34294
0
LINE
8
BLACK
6
CONTINUOUS
10
5.324
20
-3.34294
11
5.32394
21
-3.34277
0
LINE
8
BLACK
6
CONTINUOUS
10
5.32394
20
-3.34277
11
5.32394
21
-3.3334
0
LINE
8
BLACK
6
CONTINUOUS
10
5.32394
20
-3.3334
11
5.32411
21
-3.33239
0
LINE
8
BLACK
6
CONTINUOUS
10
5.32411
20
-3.33239
11
5.32423
21
-3.33225
0
LINE
8
BLACK
6
CONTINUOUS
10
5.32423
20
-3.33225
11
5.32425
21
-3.33208
0
LINE
8
BLACK
6
CONTINUOUS
10
5.32425
20
-3.33208
11
5.32612
21
-3.32833
0
LINE
8
BLACK
6
CONTINUOUS
10
5.32612
20
-3.32833
11
5.32665
21
-3.32762
0
LINE
8
BLACK
6
CONTINUOUS
10
5.32665
20
-3.32762
11
5.32667
21
-3.32756
0
LINE
8
BLACK
6
CONTINUOUS
10
5.32667
20
-3.32756
11
5.32855
21
-3.32568
0
LINE
8
BLACK
6
CONTINUOUS
10
5.32855
20
-3.32568
11
5.32927
21
-3.32518
0
LINE
8
BLACK
6
CONTINUOUS
10
5.32927
20
-3.32518
11
5.32932
21
-3.32513
0
LINE
8
BLACK
6
CONTINUOUS
10
5.32932
20
-3.32513
11
5.33307
21
-3.32326
0
LINE
8
BLACK
6
CONTINUOUS
10
5.33307
20
-3.32326
11
5.33405
21
-3.32296
0
LINE
8
BLACK
6
CONTINUOUS
10
5.33405
20
-3.32296
11
5.33422
21
-3.323
0
LINE
8
BLACK
6
CONTINUOUS
10
5.33422
20
-3.323
11
5.33439
21
-3.32294
0
LINE
8
BLACK
6
CONTINUOUS
10
5.33439
20
-3.32294
11
5.34376
21
-3.32294
0
LINE
8
BLACK
6
CONTINUOUS
10
5.34376
20
-3.32294
11
5.34477
21
-3.32312
0
LINE
8
BLACK
6
CONTINUOUS
10
5.34477
20
-3.32312
11
5.34491
21
-3.32324
0
LINE
8
BLACK
6
CONTINUOUS
10
5.34491
20
-3.32324
11
5.34508
21
-3.32326
0
LINE
8
BLACK
6
CONTINUOUS
10
5.34508
20
-3.32326
11
5.34582
21
-3.32362
0
LINE
8
BLACK
6
CONTINUOUS
10
5.34582
20
-3.32362
11
5.34484
21
-3.31385
0
LINE
8
BLACK
6
CONTINUOUS
10
5.34484
20
-3.31385
11
5.32876
21
-3.31385
0
LINE
8
BLACK
6
CONTINUOUS
10
5.32876
20
-3.31385
11
5.32775
21
-3.31367
0
LINE
8
BLACK
6
CONTINUOUS
10
5.32775
20
-3.31367
11
5.32621
21
-3.31237
0
LINE
8
BLACK
6
CONTINUOUS
10
5.32621
20
-3.31237
11
5.32585
21
-3.31039
0
LINE
8
BLACK
6
CONTINUOUS
10
5.32585
20
-3.31039
11
5.32686
21
-3.30864
0
LINE
8
BLACK
6
CONTINUOUS
10
5.32686
20
-3.30864
11
5.32876
21
-3.30795
0
LINE
8
BLACK
6
CONTINUOUS
10
5.32876
20
-3.30795
11
5.34751
21
-3.30795
0
LINE
8
BLACK
6
CONTINUOUS
10
5.34751
20
-3.30795
11
5.34766
21
-3.30797
0
LINE
8
BLACK
6
CONTINUOUS
10
5.62161
20
-3.30801
11
5.62174
21
-3.30799
0
LINE
8
BLACK
6
CONTINUOUS
10
5.62174
20
-3.30799
11
5.62185
21
-3.30806
0
LINE
8
BLACK
6
CONTINUOUS
10
5.62185
20
-3.30806
11
5.62224
21
-3.30812
0
LINE
8
BLACK
6
CONTINUOUS
10
5.62224
20
-3.30812
11
5.62282
21
-3.30862
0
LINE
8
BLACK
6
CONTINUOUS
10
5.62282
20
-3.30862
11
5.62349
21
-3.309
0
LINE
8
BLACK
6
CONTINUOUS
10
5.62349
20
-3.309
11
5.62358
21
-3.30925
0
LINE
8
BLACK
6
CONTINUOUS
10
5.62358
20
-3.30925
11
5.62378
21
-3.30942
0
LINE
8
BLACK
6
CONTINUOUS
10
5.62378
20
-3.30942
11
5.62392
21
-3.31018
0
LINE
8
BLACK
6
CONTINUOUS
10
5.62392
20
-3.31018
11
5.62418
21
-3.3109
0
LINE
8
BLACK
6
CONTINUOUS
10
5.62418
20
-3.3109
11
5.62418
21
-3.35027
0
LINE
8
BLACK
6
CONTINUOUS
10
5.62418
20
-3.35027
11
5.62411
21
-3.35065
0
LINE
8
BLACK
6
CONTINUOUS
10
5.62411
20
-3.35065
11
5.62413
21
-3.35078
0
LINE
8
BLACK
6
CONTINUOUS
10
5.62413
20
-3.35078
11
5.62407
21
-3.35089
0
LINE
8
BLACK
6
CONTINUOUS
10
5.62407
20
-3.35089
11
5.624
21
-3.35128
0
LINE
8
BLACK
6
CONTINUOUS
10
5.624
20
-3.35128
11
5.62351
21
-3.35187
0
LINE
8
BLACK
6
CONTINUOUS
10
5.62351
20
-3.35187
11
5.62312
21
-3.35253
0
LINE
8
BLACK
6
CONTINUOUS
10
5.62312
20
-3.35253
11
5.62287
21
-3.35262
0
LINE
8
BLACK
6
CONTINUOUS
10
5.62287
20
-3.35262
11
5.6227
21
-3.35283
0
LINE
8
BLACK
6
CONTINUOUS
10
5.6227
20
-3.35283
11
5.62195
21
-3.35296
0
LINE
8
BLACK
6
CONTINUOUS
10
5.62195
20
-3.35296
11
5.62123
21
-3.35322
0
LINE
8
BLACK
6
CONTINUOUS
10
5.62123
20
-3.35322
11
5.60623
21
-3.35322
0
LINE
8
BLACK
6
CONTINUOUS
10
5.60623
20
-3.35322
11
5.60522
21
-3.35304
0
LINE
8
BLACK
6
CONTINUOUS
10
5.60522
20
-3.35304
11
5.60508
21
-3.35293
0
LINE
8
BLACK
6
CONTINUOUS
10
5.60508
20
-3.35293
11
5.60491
21
-3.35291
0
LINE
8
BLACK
6
CONTINUOUS
10
5.60491
20
-3.35291
11
5.60116
21
-3.35103
0
LINE
8
BLACK
6
CONTINUOUS
10
5.60116
20
-3.35103
11
5.60045
21
-3.35051
0
LINE
8
BLACK
6
CONTINUOUS
10
5.60045
20
-3.35051
11
5.60039
21
-3.35048
0
LINE
8
BLACK
6
CONTINUOUS
10
5.60039
20
-3.35048
11
5.59852
21
-3.34861
0
LINE
8
BLACK
6
CONTINUOUS
10
5.59852
20
-3.34861
11
5.59801
21
-3.34788
0
LINE
8
BLACK
6
CONTINUOUS
10
5.59801
20
-3.34788
11
5.59796
21
-3.34784
0
LINE
8
BLACK
6
CONTINUOUS
10
5.59796
20
-3.34784
11
5.59609
21
-3.34409
0
LINE
8
BLACK
6
CONTINUOUS
10
5.59609
20
-3.34409
11
5.5958
21
-3.34311
0
LINE
8
BLACK
6
CONTINUOUS
10
5.5958
20
-3.34311
11
5.59584
21
-3.34294
0
LINE
8
BLACK
6
CONTINUOUS
10
5.59584
20
-3.34294
11
5.59578
21
-3.34277
0
LINE
8
BLACK
6
CONTINUOUS
10
5.59578
20
-3.34277
11
5.59578
21
-3.33715
0
LINE
8
BLACK
6
CONTINUOUS
10
5.59578
20
-3.33715
11
5.59595
21
-3.33614
0
LINE
8
BLACK
6
CONTINUOUS
10
5.59595
20
-3.33614
11
5.59607
21
-3.336
0
LINE
8
BLACK
6
CONTINUOUS
10
5.59607
20
-3.336
11
5.59609
21
-3.33582
0
LINE
8
BLACK
6
CONTINUOUS
10
5.59609
20
-3.33582
11
5.59796
21
-3.33208
0
LINE
8
BLACK
6
CONTINUOUS
10
5.59796
20
-3.33208
11
5.59849
21
-3.33137
0
LINE
8
BLACK
6
CONTINUOUS
10
5.59849
20
-3.33137
11
5.59852
21
-3.33131
0
LINE
8
BLACK
6
CONTINUOUS
10
5.59852
20
-3.33131
11
5.60039
21
-3.32943
0
LINE
8
BLACK
6
CONTINUOUS
10
5.60039
20
-3.32943
11
5.60123
21
-3.32884
0
LINE
8
BLACK
6
CONTINUOUS
10
5.60123
20
-3.32884
11
5.60125
21
-3.32884
0
LINE
8
BLACK
6
CONTINUOUS
10
5.60125
20
-3.32884
11
5.60039
21
-3.32798
0
LINE
8
BLACK
6
CONTINUOUS
10
5.60039
20
-3.32798
11
5.59988
21
-3.32726
0
LINE
8
BLACK
6
CONTINUOUS
10
5.59988
20
-3.32726
11
5.59984
21
-3.32722
0
LINE
8
BLACK
6
CONTINUOUS
10
5.59984
20
-3.32722
11
5.59796
21
-3.32347
0
LINE
8
BLACK
6
CONTINUOUS
10
5.59796
20
-3.32347
11
5.59767
21
-3.32248
0
LINE
8
BLACK
6
CONTINUOUS
10
5.59767
20
-3.32248
11
5.59771
21
-3.32231
0
LINE
8
BLACK
6
CONTINUOUS
10
5.59771
20
-3.32231
11
5.59765
21
-3.32215
0
LINE
8
BLACK
6
CONTINUOUS
10
5.59765
20
-3.32215
11
5.59765
21
-3.3184
0
LINE
8
BLACK
6
CONTINUOUS
10
5.59765
20
-3.3184
11
5.59783
21
-3.31739
0
LINE
8
BLACK
6
CONTINUOUS
10
5.59783
20
-3.31739
11
5.59794
21
-3.31725
0
LINE
8
BLACK
6
CONTINUOUS
10
5.59794
20
-3.31725
11
5.59796
21
-3.31708
0
LINE
8
BLACK
6
CONTINUOUS
10
5.59796
20
-3.31708
11
5.59984
21
-3.31333
0
LINE
8
BLACK
6
CONTINUOUS
10
5.59984
20
-3.31333
11
5.60036
21
-3.31262
0
LINE
8
BLACK
6
CONTINUOUS
10
5.60036
20
-3.31262
11
5.60039
21
-3.31256
0
LINE
8
BLACK
6
CONTINUOUS
10
5.60039
20
-3.31256
11
5.60227
21
-3.31069
0
LINE
8
BLACK
6
CONTINUOUS
10
5.60227
20
-3.31069
11
5.60299
21
-3.31018
0
LINE
8
BLACK
6
CONTINUOUS
10
5.60299
20
-3.31018
11
5.60303
21
-3.31013
0
LINE
8
BLACK
6
CONTINUOUS
10
5.60303
20
-3.31013
11
5.60678
21
-3.30826
0
LINE
8
BLACK
6
CONTINUOUS
10
5.60678
20
-3.30826
11
5.60777
21
-3.30796
0
LINE
8
BLACK
6
CONTINUOUS
10
5.60777
20
-3.30796
11
5.60794
21
-3.30801
0
LINE
8
BLACK
6
CONTINUOUS
10
5.60794
20
-3.30801
11
5.6081
21
-3.30795
0
LINE
8
BLACK
6
CONTINUOUS
10
5.6081
20
-3.30795
11
5.62123
21
-3.30795
0
LINE
8
BLACK
6
CONTINUOUS
10
5.62123
20
-3.30795
11
5.62161
21
-3.30801
0
LINE
8
BLACK
6
CONTINUOUS
10
5.60407
20
-3.3341
11
5.60303
21
-3.33514
0
LINE
8
BLACK
6
CONTINUOUS
10
5.60303
20
-3.33514
11
5.60168
21
-3.33784
0
LINE
8
BLACK
6
CONTINUOUS
10
5.60168
20
-3.33784
11
5.60168
21
-3.34207
0
LINE
8
BLACK
6
CONTINUOUS
10
5.60168
20
-3.34207
11
5.60303
21
-3.34477
0
LINE
8
BLACK
6
CONTINUOUS
10
5.60303
20
-3.34477
11
5.60423
21
-3.34597
0
LINE
8
BLACK
6
CONTINUOUS
10
5.60423
20
-3.34597
11
5.60692
21
-3.34732
0
LINE
8
BLACK
6
CONTINUOUS
10
5.60692
20
-3.34732
11
5.61827
21
-3.34732
0
LINE
8
BLACK
6
CONTINUOUS
10
5.61827
20
-3.34732
11
5.61827
21
-3.3326
0
LINE
8
BLACK
6
CONTINUOUS
10
5.61827
20
-3.3326
11
5.60858
21
-3.3326
0
LINE
8
BLACK
6
CONTINUOUS
10
5.60858
20
-3.3326
11
5.60407
21
-3.3341
0
LINE
8
BLACK
6
CONTINUOUS
10
5.6061
20
-3.3152
11
5.60491
21
-3.3164
0
LINE
8
BLACK
6
CONTINUOUS
10
5.60491
20
-3.3164
11
5.60356
21
-3.31909
0
LINE
8
BLACK
6
CONTINUOUS
10
5.60356
20
-3.31909
11
5.60356
21
-3.32145
0
LINE
8
BLACK
6
CONTINUOUS
10
5.60356
20
-3.32145
11
5.60491
21
-3.32415
0
LINE
8
BLACK
6
CONTINUOUS
10
5.60491
20
-3.32415
11
5.6061
21
-3.32534
0
LINE
8
BLACK
6
CONTINUOUS
10
5.6061
20
-3.32534
11
5.6088
21
-3.32669
0
LINE
8
BLACK
6
CONTINUOUS
10
5.6088
20
-3.32669
11
5.61827
21
-3.32669
0
LINE
8
BLACK
6
CONTINUOUS
10
5.61827
20
-3.32669
11
5.61827
21
-3.31385
0
LINE
8
BLACK
6
CONTINUOUS
10
5.61827
20
-3.31385
11
5.6088
21
-3.31385
0
LINE
8
BLACK
6
CONTINUOUS
10
5.6088
20
-3.31385
11
5.6061
21
-3.3152
0
LINE
8
BLACK
6
CONTINUOUS
10
5.2347
20
-3.30838
11
5.23595
21
-3.30996
0
LINE
8
BLACK
6
CONTINUOUS
10
5.23595
20
-3.30996
11
5.24627
21
-3.34093
0
LINE
8
BLACK
6
CONTINUOUS
10
5.24627
20
-3.34093
11
5.2566
21
-3.30996
0
LINE
8
BLACK
6
CONTINUOUS
10
5.2566
20
-3.30996
11
5.25708
21
-3.30906
0
LINE
8
BLACK
6
CONTINUOUS
10
5.25708
20
-3.30906
11
5.2588
21
-3.30801
0
LINE
8
BLACK
6
CONTINUOUS
10
5.2588
20
-3.30801
11
5.2608
21
-3.3083
0
LINE
8
BLACK
6
CONTINUOUS
10
5.2608
20
-3.3083
11
5.26214
21
-3.30981
0
LINE
8
BLACK
6
CONTINUOUS
10
5.26214
20
-3.30981
11
5.2622
21
-3.31183
0
LINE
8
BLACK
6
CONTINUOUS
10
5.2622
20
-3.31183
11
5.24907
21
-3.3512
0
LINE
8
BLACK
6
CONTINUOUS
10
5.24907
20
-3.3512
11
5.24859
21
-3.3521
0
LINE
8
BLACK
6
CONTINUOUS
10
5.24859
20
-3.3521
11
5.24851
21
-3.35215
0
LINE
8
BLACK
6
CONTINUOUS
10
5.24851
20
-3.35215
11
5.24848
21
-3.35223
0
LINE
8
BLACK
6
CONTINUOUS
10
5.24848
20
-3.35223
11
5.24766
21
-3.35267
0
LINE
8
BLACK
6
CONTINUOUS
10
5.24766
20
-3.35267
11
5.24686
21
-3.35316
0
LINE
8
BLACK
6
CONTINUOUS
10
5.24686
20
-3.35316
11
5.24678
21
-3.35315
0
LINE
8
BLACK
6
CONTINUOUS
10
5.24678
20
-3.35315
11
5.24671
21
-3.35319
0
LINE
8
BLACK
6
CONTINUOUS
10
5.24671
20
-3.35319
11
5.24579
21
-3.353
0
LINE
8
BLACK
6
CONTINUOUS
10
5.24579
20
-3.353
11
5.24487
21
-3.35286
0
LINE
8
BLACK
6
CONTINUOUS
10
5.24487
20
-3.35286
11
5.24481
21
-3.3528
0
LINE
8
BLACK
6
CONTINUOUS
10
5.24481
20
-3.3528
11
5.24473
21
-3.35278
0
LINE
8
BLACK
6
CONTINUOUS
10
5.24473
20
-3.35278
11
5.24415
21
-3.35205
0
LINE
8
BLACK
6
CONTINUOUS
10
5.24415
20
-3.35205
11
5.24353
21
-3.35135
0
LINE
8
BLACK
6
CONTINUOUS
10
5.24353
20
-3.35135
11
5.24352
21
-3.35127
0
LINE
8
BLACK
6
CONTINUOUS
10
5.24352
20
-3.35127
11
5.24347
21
-3.3512
0
LINE
8
BLACK
6
CONTINUOUS
10
5.24347
20
-3.3512
11
5.23035
21
-3.31183
0
LINE
8
BLACK
6
CONTINUOUS
10
5.23035
20
-3.31183
11
5.2302
21
-3.31082
0
LINE
8
BLACK
6
CONTINUOUS
10
5.2302
20
-3.31082
11
5.23094
21
-3.30894
0
LINE
8
BLACK
6
CONTINUOUS
10
5.23094
20
-3.30894
11
5.23272
21
-3.30798
0
LINE
8
BLACK
6
CONTINUOUS
10
5.23272
20
-3.30798
11
5.2347
21
-3.30838
0
LINE
8
BLACK
6
CONTINUOUS
10
5.45696
20
-3.19715
11
5.45754
21
-3.19854
0
LINE
8
BLACK
6
CONTINUOUS
10
5.45754
20
-3.19854
11
5.45754
21
-3.22807
0
LINE
8
BLACK
6
CONTINUOUS
10
5.45754
20
-3.22807
11
5.49107
21
-3.22807
0
LINE
8
BLACK
6
CONTINUOUS
10
5.49107
20
-3.22807
11
5.49246
21
-3.22865
0
LINE
8
BLACK
6
CONTINUOUS
10
5.49246
20
-3.22865
11
5.49304
21
-3.23004
0
LINE
8
BLACK
6
CONTINUOUS
10
5.49304
20
-3.23004
11
5.49246
21
-3.23143
0
LINE
8
BLACK
6
CONTINUOUS
10
5.49246
20
-3.23143
11
5.49107
21
-3.23201
0
LINE
8
BLACK
6
CONTINUOUS
10
5.49107
20
-3.23201
11
5.45754
21
-3.23201
0
LINE
8
BLACK
6
CONTINUOUS
10
5.45754
20
-3.23201
11
5.45754
21
-3.26154
0
LINE
8
BLACK
6
CONTINUOUS
10
5.45754
20
-3.26154
11
5.45696
21
-3.26293
0
LINE
8
BLACK
6
CONTINUOUS
10
5.45696
20
-3.26293
11
5.45557
21
-3.26351
0
LINE
8
BLACK
6
CONTINUOUS
10
5.45557
20
-3.26351
11
5.45418
21
-3.26293
0
LINE
8
BLACK
6
CONTINUOUS
10
5.45418
20
-3.26293
11
5.4536
21
-3.26154
0
LINE
8
BLACK
6
CONTINUOUS
10
5.4536
20
-3.26154
11
5.4536
21
-3.23367
0
LINE
8
BLACK
6
CONTINUOUS
10
5.4536
20
-3.23367
11
5.41134
21
-3.26119
0
LINE
8
BLACK
6
CONTINUOUS
10
5.41134
20
-3.26119
11
5.41079
21
-3.26129
0
LINE
8
BLACK
6
CONTINUOUS
10
5.41079
20
-3.26129
11
5.41027
21
-3.26151
0
LINE
8
BLACK
6
CONTINUOUS
10
5.41027
20
-3.26151
11
5.41007
21
-3.26143
0
LINE
8
BLACK
6
CONTINUOUS
10
5.41007
20
-3.26143
11
5.40986
21
-3.26147
0
LINE
8
BLACK
6
CONTINUOUS
10
5.40986
20
-3.26147
11
5.4094
21
-3.26115
0
LINE
8
BLACK
6
CONTINUOUS
10
5.4094
20
-3.26115
11
5.40888
21
-3.26093
0
LINE
8
BLACK
6
CONTINUOUS
10
5.40888
20
-3.26093
11
5.40879
21
-3.26073
0
LINE
8
BLACK
6
CONTINUOUS
10
5.40879
20
-3.26073
11
5.40862
21
-3.26061
0
LINE
8
BLACK
6
CONTINUOUS
10
5.40862
20
-3.26061
11
5.40852
21
-3.26006
0
LINE
8
BLACK
6
CONTINUOUS
10
5.40852
20
-3.26006
11
5.4083
21
-3.25954
0
LINE
8
BLACK
6
CONTINUOUS
10
5.4083
20
-3.25954
11
5.4083
21
-3.23201
0
LINE
8
BLACK
6
CONTINUOUS
10
5.4083
20
-3.23201
11
5.37097
21
-3.23201
0
LINE
8
BLACK
6
CONTINUOUS
10
5.37097
20
-3.23201
11
5.36958
21
-3.23143
0
LINE
8
BLACK
6
CONTINUOUS
10
5.36958
20
-3.23143
11
5.369
21
-3.23004
0
LINE
8
BLACK
6
CONTINUOUS
10
5.369
20
-3.23004
11
5.36958
21
-3.22865
0
LINE
8
BLACK
6
CONTINUOUS
10
5.36958
20
-3.22865
11
5.37097
21
-3.22807
0
LINE
8
BLACK
6
CONTINUOUS
10
5.37097
20
-3.22807
11
5.4083
21
-3.22807
0
LINE
8
BLACK
6
CONTINUOUS
10
5.4083
20
-3.22807
11
5.4083
21
-3.19854
0
LINE
8
BLACK
6
CONTINUOUS
10
5.4083
20
-3.19854
11
5.40853
21
-3.19799
0
LINE
8
BLACK
6
CONTINUOUS
10
5.40853
20
-3.19799
11
5.40865
21
-3.19742
0
LINE
8
BLACK
6
CONTINUOUS
10
5.40865
20
-3.19742
11
5.40881
21
-3.19732
0
LINE
8
BLACK
6
CONTINUOUS
10
5.40881
20
-3.19732
11
5.40888
21
-3.19715
0
LINE
8
BLACK
6
CONTINUOUS
10
5.40888
20
-3.19715
11
5.40942
21
-3.19692
0
LINE
8
BLACK
6
CONTINUOUS
10
5.40942
20
-3.19692
11
5.40992
21
-3.1966
0
LINE
8
BLACK
6
CONTINUOUS
10
5.40992
20
-3.1966
11
5.4101
21
-3.19664
0
LINE
8
BLACK
6
CONTINUOUS
10
5.4101
20
-3.19664
11
5.41027
21
-3.19657
0
LINE
8
BLACK
6
CONTINUOUS
10
5.41027
20
-3.19657
11
5.41081
21
-3.1968
0
LINE
8
BLACK
6
CONTINUOUS
10
5.41081
20
-3.1968
11
5.41139
21
-3.19692
0
LINE
8
BLACK
6
CONTINUOUS
10
5.41139
20
-3.19692
11
5.4536
21
-3.22627
0
LINE
8
BLACK
6
CONTINUOUS
10
5.4536
20
-3.22627
11
5.4536
21
-3.19854
0
LINE
8
BLACK
6
CONTINUOUS
10
5.4536
20
-3.19854
11
5.45418
21
-3.19715
0
LINE
8
BLACK
6
CONTINUOUS
10
5.45418
20
-3.19715
11
5.45557
21
-3.19657
0
LINE
8
BLACK
6
CONTINUOUS
10
5.45557
20
-3.19657
11
5.45696
21
-3.19715
0
LINE
8
BLACK
6
CONTINUOUS
10
5.41224
20
-3.25591
11
5.45204
21
-3.22999
0
LINE
8
BLACK
6
CONTINUOUS
10
5.45204
20
-3.22999
11
5.41224
21
-3.20231
0
LINE
8
BLACK
6
CONTINUOUS
10
5.41224
20
-3.20231
11
5.41224
21
-3.25591
0
LINE
8
BLACK
6
CONTINUOUS
10
5.52055
20
-3.16898
11
5.52194
21
-3.16955
0
LINE
8
BLACK
6
CONTINUOUS
10
5.52194
20
-3.16955
11
5.52252
21
-3.17094
0
LINE
8
BLACK
6
CONTINUOUS
10
5.52252
20
-3.17094
11
5.52252
21
-3.28906
0
LINE
8
BLACK
6
CONTINUOUS
10
5.52252
20
-3.28906
11
5.52194
21
-3.29045
0
LINE
8
BLACK
6
CONTINUOUS
10
5.52194
20
-3.29045
11
5.52055
21
-3.29102
0
LINE
8
BLACK
6
CONTINUOUS
10
5.52055
20
-3.29102
11
5.33945
21
-3.29102
0
LINE
8
BLACK
6
CONTINUOUS
10
5.33945
20
-3.29102
11
5.33806
21
-3.29045
0
LINE
8
BLACK
6
CONTINUOUS
10
5.33806
20
-3.29045
11
5.33748
21
-3.28906
0
LINE
8
BLACK
6
CONTINUOUS
10
5.33748
20
-3.28906
11
5.33748
21
-3.17094
0
LINE
8
BLACK
6
CONTINUOUS
10
5.33748
20
-3.17094
11
5.33806
21
-3.16955
0
LINE
8
BLACK
6
CONTINUOUS
10
5.33806
20
-3.16955
11
5.33945
21
-3.16898
0
LINE
8
BLACK
6
CONTINUOUS
10
5.33945
20
-3.16898
11
5.52055
21
-3.16898
0
LINE
8
BLACK
6
CONTINUOUS
10
5.34142
20
-3.17291
11
5.34142
21
-3.28709
0
LINE
8
BLACK
6
CONTINUOUS
10
5.34142
20
-3.28709
11
5.51858
21
-3.28709
0
LINE
8
BLACK
6
CONTINUOUS
10
5.51858
20
-3.28709
11
5.51858
21
-3.17291
0
LINE
8
BLACK
6
CONTINUOUS
10
5.51858
20
-3.17291
11
5.34142
21
-3.17291
0
LINE
8
BLACK
6
CONTINUOUS
10
5.41097
20
-3.10729
11
5.41114
21
-3.10728
0
LINE
8
BLACK
6
CONTINUOUS
10
5.41114
20
-3.10728
11
5.41183
21
-3.10778
0
LINE
8
BLACK
6
CONTINUOUS
10
5.41183
20
-3.10778
11
5.41258
21
-3.10821
0
LINE
8
BLACK
6
CONTINUOUS
10
5.41258
20
-3.10821
11
5.41263
21
-3.10837
0
LINE
8
BLACK
6
CONTINUOUS
10
5.41263
20
-3.10837
11
5.41277
21
-3.10847
0
LINE
8
BLACK
6
CONTINUOUS
10
5.41277
20
-3.10847
11
5.41636
21
-3.11385
0
LINE
8
BLACK
6
CONTINUOUS
10
5.41636
20
-3.11385
11
5.41956
21
-3.11706
0
LINE
8
BLACK
6
CONTINUOUS
10
5.41956
20
-3.11706
11
5.42288
21
-3.11872
0
LINE
8
BLACK
6
CONTINUOUS
10
5.42288
20
-3.11872
11
5.42371
21
-3.11933
0
LINE
8
BLACK
6
CONTINUOUS
10
5.42371
20
-3.11933
11
5.42451
21
-3.12118
0
LINE
8
BLACK
6
CONTINUOUS
10
5.42451
20
-3.12118
11
5.42394
21
-3.12312
0
LINE
8
BLACK
6
CONTINUOUS
10
5.42394
20
-3.12312
11
5.42225
21
-3.12423
0
LINE
8
BLACK
6
CONTINUOUS
10
5.42225
20
-3.12423
11
5.42024
21
-3.124
0
LINE
8
BLACK
6
CONTINUOUS
10
5.42024
20
-3.124
11
5.41649
21
-3.12213
0
LINE
8
BLACK
6
CONTINUOUS
10
5.41649
20
-3.12213
11
5.41578
21
-3.1216
0
LINE
8
BLACK
6
CONTINUOUS
10
5.41578
20
-3.1216
11
5.41573
21
-3.12157
0
LINE
8
BLACK
6
CONTINUOUS
10
5.41573
20
-3.12157
11
5.41327
21
-3.11911
0
LINE
8
BLACK
6
CONTINUOUS
10
5.41327
20
-3.11911
11
5.41327
21
-3.14653
0
LINE
8
BLACK
6
CONTINUOUS
10
5.41327
20
-3.14653
11
5.42156
21
-3.14653
0
LINE
8
BLACK
6
CONTINUOUS
10
5.42156
20
-3.14653
11
5.42257
21
-3.14671
0
LINE
8
BLACK
6
CONTINUOUS
10
5.42257
20
-3.14671
11
5.42412
21
-3.148
0
LINE
8
BLACK
6
CONTINUOUS
10
5.42412
20
-3.148
11
5.42447
21
-3.14999
0
LINE
8
BLACK
6
CONTINUOUS
10
5.42447
20
-3.14999
11
5.42346
21
-3.15174
0
LINE
8
BLACK
6
CONTINUOUS
10
5.42346
20
-3.15174
11
5.42156
21
-3.15243
0
LINE
8
BLACK
6
CONTINUOUS
10
5.42156
20
-3.15243
11
5.39907
21
-3.15243
0
LINE
8
BLACK
6
CONTINUOUS
10
5.39907
20
-3.15243
11
5.39806
21
-3.15226
0
LINE
8
BLACK
6
CONTINUOUS
10
5.39806
20
-3.15226
11
5.39651
21
-3.15096
0
LINE
8
BLACK
6
CONTINUOUS
10
5.39651
20
-3.15096
11
5.39616
21
-3.14897
0
LINE
8
BLACK
6
CONTINUOUS
10
5.39616
20
-3.14897
11
5.39717
21
-3.14722
0
LINE
8
BLACK
6
CONTINUOUS
10
5.39717
20
-3.14722
11
5.39907
21
-3.14653
0
LINE
8
BLACK
6
CONTINUOUS
10
5.39907
20
-3.14653
11
5.40736
21
-3.14653
0
LINE
8
BLACK
6
CONTINUOUS
10
5.40736
20
-3.14653
11
5.40736
21
-3.11011
0
LINE
8
BLACK
6
CONTINUOUS
10
5.40736
20
-3.11011
11
5.40754
21
-3.1091
0
LINE
8
BLACK
6
CONTINUOUS
10
5.40754
20
-3.1091
11
5.40765
21
-3.10897
0
LINE
8
BLACK
6
CONTINUOUS
10
5.40765
20
-3.10897
11
5.40767
21
-3.1088
0
LINE
8
BLACK
6
CONTINUOUS
10
5.40767
20
-3.1088
11
5.40829
21
-3.10821
0
LINE
8
BLACK
6
CONTINUOUS
10
5.40829
20
-3.10821
11
5.40884
21
-3.10755
0
LINE
8
BLACK
6
CONTINUOUS
10
5.40884
20
-3.10755
11
5.40901
21
-3.10752
0
LINE
8
BLACK
6
CONTINUOUS
10
5.40901
20
-3.10752
11
5.40913
21
-3.10741
0
LINE
8
BLACK
6
CONTINUOUS
10
5.40913
20
-3.10741
11
5.40998
21
-3.10735
0
LINE
8
BLACK
6
CONTINUOUS
10
5.40998
20
-3.10735
11
5.41083
21
-3.1072
0
LINE
8
BLACK
6
CONTINUOUS
10
5.41083
20
-3.1072
11
5.41097
21
-3.10729
0
LINE
8
BLACK
6
CONTINUOUS
10
5.45944
20
-3.10723
11
5.45957
21
-3.1072
0
LINE
8
BLACK
6
CONTINUOUS
10
5.45957
20
-3.1072
11
5.45969
21
-3.10727
0
LINE
8
BLACK
6
CONTINUOUS
10
5.45969
20
-3.10727
11
5.46007
21
-3.10734
0
LINE
8
BLACK
6
CONTINUOUS
10
5.46007
20
-3.10734
11
5.46066
21
-3.10783
0
LINE
8
BLACK
6
CONTINUOUS
10
5.46066
20
-3.10783
11
5.46132
21
-3.10821
0
LINE
8
BLACK
6
CONTINUOUS
10
5.46132
20
-3.10821
11
5.46141
21
-3.10846
0
LINE
8
BLACK
6
CONTINUOUS
10
5.46141
20
-3.10846
11
5.46162
21
-3.10863
0
LINE
8
BLACK
6
CONTINUOUS
10
5.46162
20
-3.10863
11
5.46175
21
-3.10939
0
LINE
8
BLACK
6
CONTINUOUS
10
5.46175
20
-3.10939
11
5.46201
21
-3.11011
0
LINE
8
BLACK
6
CONTINUOUS
10
5.46201
20
-3.11011
11
5.46201
21
-3.14948
0
LINE
8
BLACK
6
CONTINUOUS
10
5.46201
20
-3.14948
11
5.46194
21
-3.14986
0
LINE
8
BLACK
6
CONTINUOUS
10
5.46194
20
-3.14986
11
5.46197
21
-3.14999
0
LINE
8
BLACK
6
CONTINUOUS
10
5.46197
20
-3.14999
11
5.4619
21
-3.15011
0
LINE
8
BLACK
6
CONTINUOUS
10
5.4619
20
-3.15011
11
5.46183
21
-3.15049
0
LINE
8
BLACK
6
CONTINUOUS
10
5.46183
20
-3.15049
11
5.46134
21
-3.15108
0
LINE
8
BLACK
6
CONTINUOUS
10
5.46134
20
-3.15108
11
5.46096
21
-3.15174
0
LINE
8
BLACK
6
CONTINUOUS
10
5.46096
20
-3.15174
11
5.46071
21
-3.15183
0
LINE
8
BLACK
6
CONTINUOUS
10
5.46071
20
-3.15183
11
5.46054
21
-3.15204
0
LINE
8
BLACK
6
CONTINUOUS
10
5.46054
20
-3.15204
11
5.45978
21
-3.15217
0
LINE
8
BLACK
6
CONTINUOUS
10
5.45978
20
-3.15217
11
5.45906
21
-3.15243
0
LINE
8
BLACK
6
CONTINUOUS
10
5.45906
20
-3.15243
11
5.44968
21
-3.15243
0
LINE
8
BLACK
6
CONTINUOUS
10
5.44968
20
-3.15243
11
5.44882
21
-3.15228
0
LINE
8
BLACK
6
CONTINUOUS
10
5.44882
20
-3.15228
11
5.44875
21
-3.15228
0
LINE
8
BLACK
6
CONTINUOUS
10
5.44875
20
-3.15228
11
5.44313
21
-3.15041
0
LINE
8
BLACK
6
CONTINUOUS
10
5.44313
20
-3.15041
11
5.44223
21
-3.14992
0
LINE
8
BLACK
6
CONTINUOUS
10
5.44223
20
-3.14992
11
5.44213
21
-3.14977
0
LINE
8
BLACK
6
CONTINUOUS
10
5.44213
20
-3.14977
11
5.44197
21
-3.14969
0
LINE
8
BLACK
6
CONTINUOUS
10
5.44197
20
-3.14969
11
5.43822
21
-3.14594
0
LINE
8
BLACK
6
CONTINUOUS
10
5.43822
20
-3.14594
11
5.43772
21
-3.14522
0
LINE
8
BLACK
6
CONTINUOUS
10
5.43772
20
-3.14522
11
5.43767
21
-3.14518
0
LINE
8
BLACK
6
CONTINUOUS
10
5.43767
20
-3.14518
11
5.4358
21
-3.14143
0
LINE
8
BLACK
6
CONTINUOUS
10
5.4358
20
-3.14143
11
5.43565
21
-3.14094
0
LINE
8
BLACK
6
CONTINUOUS
10
5.43565
20
-3.14094
11
5.43557
21
-3.14082
0
LINE
8
BLACK
6
CONTINUOUS
10
5.43557
20
-3.14082
11
5.4337
21
-3.13332
0
LINE
8
BLACK
6
CONTINUOUS
10
5.4337
20
-3.13332
11
5.43366
21
-3.13274
0
LINE
8
BLACK
6
CONTINUOUS
10
5.43366
20
-3.13274
11
5.43361
21
-3.13261
0
LINE
8
BLACK
6
CONTINUOUS
10
5.43361
20
-3.13261
11
5.43361
21
-3.12698
0
LINE
8
BLACK
6
CONTINUOUS
10
5.43361
20
-3.12698
11
5.43371
21
-3.1264
0
LINE
8
BLACK
6
CONTINUOUS
10
5.43371
20
-3.1264
11
5.4337
21
-3.12627
0
LINE
8
BLACK
6
CONTINUOUS
10
5.4337
20
-3.12627
11
5.43557
21
-3.11877
0
LINE
8
BLACK
6
CONTINUOUS
10
5.43557
20
-3.11877
11
5.43578
21
-3.1183
0
LINE
8
BLACK
6
CONTINUOUS
10
5.43578
20
-3.1183
11
5.4358
21
-3.11816
0
LINE
8
BLACK
6
CONTINUOUS
10
5.4358
20
-3.11816
11
5.43767
21
-3.11441
0
LINE
8
BLACK
6
CONTINUOUS
10
5.43767
20
-3.11441
11
5.4382
21
-3.11371
0
LINE
8
BLACK
6
CONTINUOUS
10
5.4382
20
-3.11371
11
5.43822
21
-3.11365
0
LINE
8
BLACK
6
CONTINUOUS
10
5.43822
20
-3.11365
11
5.44197
21
-3.1099
0
LINE
8
BLACK
6
CONTINUOUS
10
5.44197
20
-3.1099
11
5.44281
21
-3.10931
0
LINE
8
BLACK
6
CONTINUOUS
10
5.44281
20
-3.10931
11
5.44299
21
-3.10929
0
LINE
8
BLACK
6
CONTINUOUS
10
5.44299
20
-3.10929
11
5.44313
21
-3.10918
0
LINE
8
BLACK
6
CONTINUOUS
10
5.44313
20
-3.10918
11
5.44875
21
-3.10731
0
LINE
8
BLACK
6
CONTINUOUS
10
5.44875
20
-3.10731
11
5.44962
21
-3.10718
0
LINE
8
BLACK
6
CONTINUOUS
10
5.44962
20
-3.10718
11
5.44968
21
-3.10716
0
LINE
8
BLACK
6
CONTINUOUS
10
5.44968
20
-3.10716
11
5.45906
21
-3.10716
0
LINE
8
BLACK
6
CONTINUOUS
10
5.45906
20
-3.10716
11
5.45944
21
-3.10723
0
LINE
8
BLACK
6
CONTINUOUS
10
5.44566
20
-3.11457
11
5.44274
21
-3.11748
0
LINE
8
BLACK
6
CONTINUOUS
10
5.44274
20
-3.11748
11
5.44122
21
-3.12052
0
LINE
8
BLACK
6
CONTINUOUS
10
5.44122
20
-3.12052
11
5.43951
21
-3.12735
0
LINE
8
BLACK
6
CONTINUOUS
10
5.43951
20
-3.12735
11
5.43951
21
-3.13224
0
LINE
8
BLACK
6
CONTINUOUS
10
5.43951
20
-3.13224
11
5.44122
21
-3.13908
0
LINE
8
BLACK
6
CONTINUOUS
10
5.44122
20
-3.13908
11
5.44274
21
-3.14211
0
LINE
8
BLACK
6
CONTINUOUS
10
5.44274
20
-3.14211
11
5.44566
21
-3.14503
0
LINE
8
BLACK
6
CONTINUOUS
10
5.44566
20
-3.14503
11
5.45016
21
-3.14653
0
LINE
8
BLACK
6
CONTINUOUS
10
5.45016
20
-3.14653
11
5.45611
21
-3.14653
0
LINE
8
BLACK
6
CONTINUOUS
10
5.45611
20
-3.14653
11
5.45611
21
-3.11306
0
LINE
8
BLACK
6
CONTINUOUS
10
5.45611
20
-3.11306
11
5.45016
21
-3.11306
0
LINE
8
BLACK
6
CONTINUOUS
10
5.45016
20
-3.11306
11
5.44566
21
-3.11457
  0
ENDSEC
  0
EOF
