  0
SECTION
  2
HEADER
  9
$ANGBASE
  50
0.0
  9
$ANGDIR
  70
1
  9
$MEASUREMENT
  70
0
  0
ENDSEC
  0
SECTION
  2
TABLES
  0
TABLE
  2
LTYPE
  70
4
  0
LTYPE
  5
40F
  2
CONTINUOUS
  70
0
  3
Solid line
  72
65
  73
0
  40
0.0
  0
LTYPE
  5
410
  2
DASHDOT
 70
0
  3
Dash Dot ____ _ ____ _
 72
65
 73
4
 40
2.0
 49
1.25
 49
-0.25
 49
0.25
 49
-0.25
  0
LTYPE
  5
411
  2
DASHED
 70
0
  3
Dashed __ __ __ __ __
 72
65
 73
2
 40
0.75
 49
0.5
 49
-0.25
  0
LTYPE
  5
43B
  2
DOTTED
 70
0
  3
Dotted .  .  .  .
 72
65
 73
2
 40
0.2
 49
0.0
 49
-0.2
  0
ENDTAB
  0
TABLE
  2
STYLE
  70
4
  0
STYLE
  2
KICAD
  70
0
  40
0
  41
1
  42
1
  50
0
  71
0
  3
isocp.shx
  0
STYLE
  2
KICADB
  70
0
  40
0
  41
1
  42
1
  50
0
  71
0
  3
isocp.shx
  0
STYLE
  2
KICADI
  70
0
  40
0
  41
1
  42
1
  50
15
  71
0
  3
isocp.shx
  0
STYLE
  2
KICADBI
  70
0
  40
0
  41
1
  42
1
  50
15
  71
0
  3
isocp.shx
  0
ENDTAB
  0
TABLE
  2
LAYER
  70
1
  0
LAYER
  2
BLACK
  70
0
  62
7
  6
CONTINUOUS
  0
ENDTAB
  0
ENDSEC
  0
SECTION
  2
ENTITIES
0
LINE
8
BLACK
6
CONTINUOUS
10
5.51845
20
-3.88652
11
5.51858
21
-3.88664
0
LINE
8
BLACK
6
CONTINUOUS
10
5.51858
20
-3.88664
11
5.51876
21
-3.88666
0
LINE
8
BLACK
6
CONTINUOUS
10
5.51876
20
-3.88666
11
5.52251
21
-3.88853
0
LINE
8
BLACK
6
CONTINUOUS
10
5.52251
20
-3.88853
11
5.52333
21
-3.88914
0
LINE
8
BLACK
6
CONTINUOUS
10
5.52333
20
-3.88914
11
5.52413
21
-3.891
0
LINE
8
BLACK
6
CONTINUOUS
10
5.52413
20
-3.891
11
5.52356
21
-3.89293
0
LINE
8
BLACK
6
CONTINUOUS
10
5.52356
20
-3.89293
11
5.52187
21
-3.89404
0
LINE
8
BLACK
6
CONTINUOUS
10
5.52187
20
-3.89404
11
5.51986
21
-3.89381
0
LINE
8
BLACK
6
CONTINUOUS
10
5.51986
20
-3.89381
11
5.51674
21
-3.89225
0
LINE
8
BLACK
6
CONTINUOUS
10
5.51674
20
-3.89225
11
5.51063
21
-3.89225
0
LINE
8
BLACK
6
CONTINUOUS
10
5.51063
20
-3.89225
11
5.50839
21
-3.89337
0
LINE
8
BLACK
6
CONTINUOUS
10
5.50839
20
-3.89337
11
5.50726
21
-3.89562
0
LINE
8
BLACK
6
CONTINUOUS
10
5.50726
20
-3.89562
11
5.50726
21
-3.89685
0
LINE
8
BLACK
6
CONTINUOUS
10
5.50726
20
-3.89685
11
5.50876
21
-3.89759
0
LINE
8
BLACK
6
CONTINUOUS
10
5.50876
20
-3.89759
11
5.51744
21
-3.89759
0
LINE
8
BLACK
6
CONTINUOUS
10
5.51744
20
-3.89759
11
5.51845
21
-3.89777
0
LINE
8
BLACK
6
CONTINUOUS
10
5.51845
20
-3.89777
11
5.51858
21
-3.89788
0
LINE
8
BLACK
6
CONTINUOUS
10
5.51858
20
-3.89788
11
5.51876
21
-3.8979
0
LINE
8
BLACK
6
CONTINUOUS
10
5.51876
20
-3.8979
11
5.52251
21
-3.89978
0
LINE
8
BLACK
6
CONTINUOUS
10
5.52251
20
-3.89978
11
5.52333
21
-3.90039
0
LINE
8
BLACK
6
CONTINUOUS
10
5.52333
20
-3.90039
11
5.5235
21
-3.9008
0
LINE
8
BLACK
6
CONTINUOUS
10
5.5235
20
-3.9008
11
5.52383
21
-3.9011
0
LINE
8
BLACK
6
CONTINUOUS
10
5.52383
20
-3.9011
11
5.5257
21
-3.90485
0
LINE
8
BLACK
6
CONTINUOUS
10
5.5257
20
-3.90485
11
5.52599
21
-3.90583
0
LINE
8
BLACK
6
CONTINUOUS
10
5.52599
20
-3.90583
11
5.52595
21
-3.906
0
LINE
8
BLACK
6
CONTINUOUS
10
5.52595
20
-3.906
11
5.52601
21
-3.90617
0
LINE
8
BLACK
6
CONTINUOUS
10
5.52601
20
-3.90617
11
5.52601
21
-3.90992
0
LINE
8
BLACK
6
CONTINUOUS
10
5.52601
20
-3.90992
11
5.52583
21
-3.91093
0
LINE
8
BLACK
6
CONTINUOUS
10
5.52583
20
-3.91093
11
5.52572
21
-3.91106
0
LINE
8
BLACK
6
CONTINUOUS
10
5.52572
20
-3.91106
11
5.5257
21
-3.91124
0
LINE
8
BLACK
6
CONTINUOUS
10
5.5257
20
-3.91124
11
5.52383
21
-3.91499
0
LINE
8
BLACK
6
CONTINUOUS
10
5.52383
20
-3.91499
11
5.52321
21
-3.91581
0
LINE
8
BLACK
6
CONTINUOUS
10
5.52321
20
-3.91581
11
5.52281
21
-3.91599
0
LINE
8
BLACK
6
CONTINUOUS
10
5.52281
20
-3.91599
11
5.52251
21
-3.91631
0
LINE
8
BLACK
6
CONTINUOUS
10
5.52251
20
-3.91631
11
5.51876
21
-3.91819
0
LINE
8
BLACK
6
CONTINUOUS
10
5.51876
20
-3.91819
11
5.51777
21
-3.91848
0
LINE
8
BLACK
6
CONTINUOUS
10
5.51777
20
-3.91848
11
5.5176
21
-3.91844
0
LINE
8
BLACK
6
CONTINUOUS
10
5.5176
20
-3.91844
11
5.51744
21
-3.9185
0
LINE
8
BLACK
6
CONTINUOUS
10
5.51744
20
-3.9185
11
5.50806
21
-3.9185
0
LINE
8
BLACK
6
CONTINUOUS
10
5.50806
20
-3.9185
11
5.50705
21
-3.91832
0
LINE
8
BLACK
6
CONTINUOUS
10
5.50705
20
-3.91832
11
5.50692
21
-3.91821
0
LINE
8
BLACK
6
CONTINUOUS
10
5.50692
20
-3.91821
11
5.50674
21
-3.91819
0
LINE
8
BLACK
6
CONTINUOUS
10
5.50674
20
-3.91819
11
5.50602
21
-3.91782
0
LINE
8
BLACK
6
CONTINUOUS
10
5.50602
20
-3.91782
11
5.50579
21
-3.9181
0
LINE
8
BLACK
6
CONTINUOUS
10
5.50579
20
-3.9181
11
5.5038
21
-3.91845
0
LINE
8
BLACK
6
CONTINUOUS
10
5.5038
20
-3.91845
11
5.50205
21
-3.91744
0
LINE
8
BLACK
6
CONTINUOUS
10
5.50205
20
-3.91744
11
5.50136
21
-3.91554
0
LINE
8
BLACK
6
CONTINUOUS
10
5.50136
20
-3.91554
11
5.50136
21
-3.89492
0
LINE
8
BLACK
6
CONTINUOUS
10
5.50136
20
-3.89492
11
5.50154
21
-3.89391
0
LINE
8
BLACK
6
CONTINUOUS
10
5.50154
20
-3.89391
11
5.50165
21
-3.89378
0
LINE
8
BLACK
6
CONTINUOUS
10
5.50165
20
-3.89378
11
5.50167
21
-3.8936
0
LINE
8
BLACK
6
CONTINUOUS
10
5.50167
20
-3.8936
11
5.50355
21
-3.88985
0
LINE
8
BLACK
6
CONTINUOUS
10
5.50355
20
-3.88985
11
5.50416
21
-3.88903
0
LINE
8
BLACK
6
CONTINUOUS
10
5.50416
20
-3.88903
11
5.50456
21
-3.88885
0
LINE
8
BLACK
6
CONTINUOUS
10
5.50456
20
-3.88885
11
5.50487
21
-3.88853
0
LINE
8
BLACK
6
CONTINUOUS
10
5.50487
20
-3.88853
11
5.50862
21
-3.88666
0
LINE
8
BLACK
6
CONTINUOUS
10
5.50862
20
-3.88666
11
5.5096
21
-3.88636
0
LINE
8
BLACK
6
CONTINUOUS
10
5.5096
20
-3.88636
11
5.50977
21
-3.8864
0
LINE
8
BLACK
6
CONTINUOUS
10
5.50977
20
-3.8864
11
5.50994
21
-3.88634
0
LINE
8
BLACK
6
CONTINUOUS
10
5.50994
20
-3.88634
11
5.51744
21
-3.88634
0
LINE
8
BLACK
6
CONTINUOUS
10
5.51744
20
-3.88634
11
5.51845
21
-3.88652
0
LINE
8
BLACK
6
CONTINUOUS
10
5.50726
20
-3.91184
11
5.50876
21
-3.91259
0
LINE
8
BLACK
6
CONTINUOUS
10
5.50876
20
-3.91259
11
5.51674
21
-3.91259
0
LINE
8
BLACK
6
CONTINUOUS
10
5.51674
20
-3.91259
11
5.51898
21
-3.91147
0
LINE
8
BLACK
6
CONTINUOUS
10
5.51898
20
-3.91147
11
5.52011
21
-3.90922
0
LINE
8
BLACK
6
CONTINUOUS
10
5.52011
20
-3.90922
11
5.52011
21
-3.90687
0
LINE
8
BLACK
6
CONTINUOUS
10
5.52011
20
-3.90687
11
5.51898
21
-3.90462
0
LINE
8
BLACK
6
CONTINUOUS
10
5.51898
20
-3.90462
11
5.51674
21
-3.9035
0
LINE
8
BLACK
6
CONTINUOUS
10
5.51674
20
-3.9035
11
5.50806
21
-3.9035
0
LINE
8
BLACK
6
CONTINUOUS
10
5.50806
20
-3.9035
11
5.50726
21
-3.90336
0
LINE
8
BLACK
6
CONTINUOUS
10
5.50726
20
-3.90336
11
5.50726
21
-3.91184
0
LINE
8
BLACK
6
CONTINUOUS
10
5.56906
20
-3.88652
11
5.5692
21
-3.88664
0
LINE
8
BLACK
6
CONTINUOUS
10
5.5692
20
-3.88664
11
5.56937
21
-3.88666
0
LINE
8
BLACK
6
CONTINUOUS
10
5.56937
20
-3.88666
11
5.57312
21
-3.88853
0
LINE
8
BLACK
6
CONTINUOUS
10
5.57312
20
-3.88853
11
5.57383
21
-3.88906
0
LINE
8
BLACK
6
CONTINUOUS
10
5.57383
20
-3.88906
11
5.57389
21
-3.88908
0
LINE
8
BLACK
6
CONTINUOUS
10
5.57389
20
-3.88908
11
5.57577
21
-3.89096
0
LINE
8
BLACK
6
CONTINUOUS
10
5.57577
20
-3.89096
11
5.57627
21
-3.89168
0
LINE
8
BLACK
6
CONTINUOUS
10
5.57627
20
-3.89168
11
5.57632
21
-3.89173
0
LINE
8
BLACK
6
CONTINUOUS
10
5.57632
20
-3.89173
11
5.57819
21
-3.89548
0
LINE
8
BLACK
6
CONTINUOUS
10
5.57819
20
-3.89548
11
5.57849
21
-3.89646
0
LINE
8
BLACK
6
CONTINUOUS
10
5.57849
20
-3.89646
11
5.57845
21
-3.89663
0
LINE
8
BLACK
6
CONTINUOUS
10
5.57845
20
-3.89663
11
5.57851
21
-3.8968
0
LINE
8
BLACK
6
CONTINUOUS
10
5.57851
20
-3.8968
11
5.57851
21
-3.90804
0
LINE
8
BLACK
6
CONTINUOUS
10
5.57851
20
-3.90804
11
5.57833
21
-3.90905
0
LINE
8
BLACK
6
CONTINUOUS
10
5.57833
20
-3.90905
11
5.57821
21
-3.90919
0
LINE
8
BLACK
6
CONTINUOUS
10
5.57821
20
-3.90919
11
5.57819
21
-3.90937
0
LINE
8
BLACK
6
CONTINUOUS
10
5.57819
20
-3.90937
11
5.57632
21
-3.91311
0
LINE
8
BLACK
6
CONTINUOUS
10
5.57632
20
-3.91311
11
5.57579
21
-3.91382
0
LINE
8
BLACK
6
CONTINUOUS
10
5.57579
20
-3.91382
11
5.57577
21
-3.91388
0
LINE
8
BLACK
6
CONTINUOUS
10
5.57577
20
-3.91388
11
5.57389
21
-3.91576
0
LINE
8
BLACK
6
CONTINUOUS
10
5.57389
20
-3.91576
11
5.57317
21
-3.91626
0
LINE
8
BLACK
6
CONTINUOUS
10
5.57317
20
-3.91626
11
5.57312
21
-3.91631
0
LINE
8
BLACK
6
CONTINUOUS
10
5.57312
20
-3.91631
11
5.56937
21
-3.91819
0
LINE
8
BLACK
6
CONTINUOUS
10
5.56937
20
-3.91819
11
5.56839
21
-3.91848
0
LINE
8
BLACK
6
CONTINUOUS
10
5.56839
20
-3.91848
11
5.56822
21
-3.91844
0
LINE
8
BLACK
6
CONTINUOUS
10
5.56822
20
-3.91844
11
5.56805
21
-3.9185
0
LINE
8
BLACK
6
CONTINUOUS
10
5.56805
20
-3.9185
11
5.56055
21
-3.9185
0
LINE
8
BLACK
6
CONTINUOUS
10
5.56055
20
-3.9185
11
5.55954
21
-3.91832
0
LINE
8
BLACK
6
CONTINUOUS
10
5.55954
20
-3.91832
11
5.55941
21
-3.91821
0
LINE
8
BLACK
6
CONTINUOUS
10
5.55941
20
-3.91821
11
5.55923
21
-3.91819
0
LINE
8
BLACK
6
CONTINUOUS
10
5.55923
20
-3.91819
11
5.55548
21
-3.91631
0
LINE
8
BLACK
6
CONTINUOUS
10
5.55548
20
-3.91631
11
5.55466
21
-3.9157
0
LINE
8
BLACK
6
CONTINUOUS
10
5.55466
20
-3.9157
11
5.55386
21
-3.91385
0
LINE
8
BLACK
6
CONTINUOUS
10
5.55386
20
-3.91385
11
5.55443
21
-3.91191
0
LINE
8
BLACK
6
CONTINUOUS
10
5.55443
20
-3.91191
11
5.55612
21
-3.9108
0
LINE
8
BLACK
6
CONTINUOUS
10
5.55612
20
-3.9108
11
5.55813
21
-3.91103
0
LINE
8
BLACK
6
CONTINUOUS
10
5.55813
20
-3.91103
11
5.56125
21
-3.91259
0
LINE
8
BLACK
6
CONTINUOUS
10
5.56125
20
-3.91259
11
5.56736
21
-3.91259
0
LINE
8
BLACK
6
CONTINUOUS
10
5.56736
20
-3.91259
11
5.57005
21
-3.91124
0
LINE
8
BLACK
6
CONTINUOUS
10
5.57005
20
-3.91124
11
5.57125
21
-3.91005
0
LINE
8
BLACK
6
CONTINUOUS
10
5.57125
20
-3.91005
11
5.5726
21
-3.90735
0
LINE
8
BLACK
6
CONTINUOUS
10
5.5726
20
-3.90735
11
5.5726
21
-3.89749
0
LINE
8
BLACK
6
CONTINUOUS
10
5.5726
20
-3.89749
11
5.57125
21
-3.8948
0
LINE
8
BLACK
6
CONTINUOUS
10
5.57125
20
-3.8948
11
5.57005
21
-3.8936
0
LINE
8
BLACK
6
CONTINUOUS
10
5.57005
20
-3.8936
11
5.56736
21
-3.89225
0
LINE
8
BLACK
6
CONTINUOUS
10
5.56736
20
-3.89225
11
5.56125
21
-3.89225
0
LINE
8
BLACK
6
CONTINUOUS
10
5.56125
20
-3.89225
11
5.55813
21
-3.89381
0
LINE
8
BLACK
6
CONTINUOUS
10
5.55813
20
-3.89381
11
5.55714
21
-3.89411
0
LINE
8
BLACK
6
CONTINUOUS
10
5.55714
20
-3.89411
11
5.55518
21
-3.89364
0
LINE
8
BLACK
6
CONTINUOUS
10
5.55518
20
-3.89364
11
5.55398
21
-3.89201
0
LINE
8
BLACK
6
CONTINUOUS
10
5.55398
20
-3.89201
11
5.5541
21
-3.89
0
LINE
8
BLACK
6
CONTINUOUS
10
5.5541
20
-3.89
11
5.55548
21
-3.88853
0
LINE
8
BLACK
6
CONTINUOUS
10
5.55548
20
-3.88853
11
5.55923
21
-3.88666
0
LINE
8
BLACK
6
CONTINUOUS
10
5.55923
20
-3.88666
11
5.56022
21
-3.88636
0
LINE
8
BLACK
6
CONTINUOUS
10
5.56022
20
-3.88636
11
5.56039
21
-3.8864
0
LINE
8
BLACK
6
CONTINUOUS
10
5.56039
20
-3.8864
11
5.56055
21
-3.88634
0
LINE
8
BLACK
6
CONTINUOUS
10
5.56055
20
-3.88634
11
5.56805
21
-3.88634
0
LINE
8
BLACK
6
CONTINUOUS
10
5.56805
20
-3.88634
11
5.56906
21
-3.88652
0
LINE
8
BLACK
6
CONTINUOUS
10
5.61156
20
-3.8874
11
5.61225
21
-3.8893
0
LINE
8
BLACK
6
CONTINUOUS
10
5.61225
20
-3.8893
11
5.61225
21
-3.90992
0
LINE
8
BLACK
6
CONTINUOUS
10
5.61225
20
-3.90992
11
5.61207
21
-3.91093
0
LINE
8
BLACK
6
CONTINUOUS
10
5.61207
20
-3.91093
11
5.61196
21
-3.91106
0
LINE
8
BLACK
6
CONTINUOUS
10
5.61196
20
-3.91106
11
5.61194
21
-3.91124
0
LINE
8
BLACK
6
CONTINUOUS
10
5.61194
20
-3.91124
11
5.61007
21
-3.91499
0
LINE
8
BLACK
6
CONTINUOUS
10
5.61007
20
-3.91499
11
5.60945
21
-3.91581
0
LINE
8
BLACK
6
CONTINUOUS
10
5.60945
20
-3.91581
11
5.60905
21
-3.91599
0
LINE
8
BLACK
6
CONTINUOUS
10
5.60905
20
-3.91599
11
5.60874
21
-3.91631
0
LINE
8
BLACK
6
CONTINUOUS
10
5.60874
20
-3.91631
11
5.605
21
-3.91819
0
LINE
8
BLACK
6
CONTINUOUS
10
5.605
20
-3.91819
11
5.60401
21
-3.91848
0
LINE
8
BLACK
6
CONTINUOUS
10
5.60401
20
-3.91848
11
5.60384
21
-3.91844
0
LINE
8
BLACK
6
CONTINUOUS
10
5.60384
20
-3.91844
11
5.60367
21
-3.9185
0
LINE
8
BLACK
6
CONTINUOUS
10
5.60367
20
-3.9185
11
5.59805
21
-3.9185
0
LINE
8
BLACK
6
CONTINUOUS
10
5.59805
20
-3.9185
11
5.59704
21
-3.91832
0
LINE
8
BLACK
6
CONTINUOUS
10
5.59704
20
-3.91832
11
5.59691
21
-3.91821
0
LINE
8
BLACK
6
CONTINUOUS
10
5.59691
20
-3.91821
11
5.59673
21
-3.91819
0
LINE
8
BLACK
6
CONTINUOUS
10
5.59673
20
-3.91819
11
5.59469
21
-3.91716
0
LINE
8
BLACK
6
CONTINUOUS
10
5.59469
20
-3.91716
11
5.5939
21
-3.9181
0
LINE
8
BLACK
6
CONTINUOUS
10
5.5939
20
-3.9181
11
5.59191
21
-3.91845
0
LINE
8
BLACK
6
CONTINUOUS
10
5.59191
20
-3.91845
11
5.59016
21
-3.91744
0
LINE
8
BLACK
6
CONTINUOUS
10
5.59016
20
-3.91744
11
5.58947
21
-3.91554
0
LINE
8
BLACK
6
CONTINUOUS
10
5.58947
20
-3.91554
11
5.58947
21
-3.8893
0
LINE
8
BLACK
6
CONTINUOUS
10
5.58947
20
-3.8893
11
5.58965
21
-3.88829
0
LINE
8
BLACK
6
CONTINUOUS
10
5.58965
20
-3.88829
11
5.59095
21
-3.88674
0
LINE
8
BLACK
6
CONTINUOUS
10
5.59095
20
-3.88674
11
5.59294
21
-3.88639
0
LINE
8
BLACK
6
CONTINUOUS
10
5.59294
20
-3.88639
11
5.59469
21
-3.8874
0
LINE
8
BLACK
6
CONTINUOUS
10
5.59469
20
-3.8874
11
5.59538
21
-3.8893
0
LINE
8
BLACK
6
CONTINUOUS
10
5.59538
20
-3.8893
11
5.59538
21
-3.91057
0
LINE
8
BLACK
6
CONTINUOUS
10
5.59538
20
-3.91057
11
5.59605
21
-3.91124
0
LINE
8
BLACK
6
CONTINUOUS
10
5.59605
20
-3.91124
11
5.59875
21
-3.91259
0
LINE
8
BLACK
6
CONTINUOUS
10
5.59875
20
-3.91259
11
5.60298
21
-3.91259
0
LINE
8
BLACK
6
CONTINUOUS
10
5.60298
20
-3.91259
11
5.60522
21
-3.91147
0
LINE
8
BLACK
6
CONTINUOUS
10
5.60522
20
-3.91147
11
5.60635
21
-3.90922
0
LINE
8
BLACK
6
CONTINUOUS
10
5.60635
20
-3.90922
11
5.60635
21
-3.8893
0
LINE
8
BLACK
6
CONTINUOUS
10
5.60635
20
-3.8893
11
5.60652
21
-3.88829
0
LINE
8
BLACK
6
CONTINUOUS
10
5.60652
20
-3.88829
11
5.60782
21
-3.88674
0
LINE
8
BLACK
6
CONTINUOUS
10
5.60782
20
-3.88674
11
5.60981
21
-3.88639
0
LINE
8
BLACK
6
CONTINUOUS
10
5.60981
20
-3.88639
11
5.61156
21
-3.8874
0
LINE
8
BLACK
6
CONTINUOUS
10
5.63031
20
-3.87428
11
5.631
21
-3.87617
0
LINE
8
BLACK
6
CONTINUOUS
10
5.631
20
-3.87617
11
5.631
21
-3.8865
0
LINE
8
BLACK
6
CONTINUOUS
10
5.631
20
-3.8865
11
5.63146
21
-3.88636
0
LINE
8
BLACK
6
CONTINUOUS
10
5.63146
20
-3.88636
11
5.63163
21
-3.8864
0
LINE
8
BLACK
6
CONTINUOUS
10
5.63163
20
-3.8864
11
5.6318
21
-3.88634
0
LINE
8
BLACK
6
CONTINUOUS
10
5.6318
20
-3.88634
11
5.6393
21
-3.88634
0
LINE
8
BLACK
6
CONTINUOUS
10
5.6393
20
-3.88634
11
5.6403
21
-3.88652
0
LINE
8
BLACK
6
CONTINUOUS
10
5.6403
20
-3.88652
11
5.64044
21
-3.88664
0
LINE
8
BLACK
6
CONTINUOUS
10
5.64044
20
-3.88664
11
5.64062
21
-3.88666
0
LINE
8
BLACK
6
CONTINUOUS
10
5.64062
20
-3.88666
11
5.64437
21
-3.88853
0
LINE
8
BLACK
6
CONTINUOUS
10
5.64437
20
-3.88853
11
5.64507
21
-3.88906
0
LINE
8
BLACK
6
CONTINUOUS
10
5.64507
20
-3.88906
11
5.64513
21
-3.88908
0
LINE
8
BLACK
6
CONTINUOUS
10
5.64513
20
-3.88908
11
5.64701
21
-3.89096
0
LINE
8
BLACK
6
CONTINUOUS
10
5.64701
20
-3.89096
11
5.64751
21
-3.89168
0
LINE
8
BLACK
6
CONTINUOUS
10
5.64751
20
-3.89168
11
5.64756
21
-3.89173
0
LINE
8
BLACK
6
CONTINUOUS
10
5.64756
20
-3.89173
11
5.64944
21
-3.89548
0
LINE
8
BLACK
6
CONTINUOUS
10
5.64944
20
-3.89548
11
5.64973
21
-3.89646
0
LINE
8
BLACK
6
CONTINUOUS
10
5.64973
20
-3.89646
11
5.64969
21
-3.89663
0
LINE
8
BLACK
6
CONTINUOUS
10
5.64969
20
-3.89663
11
5.64975
21
-3.8968
0
LINE
8
BLACK
6
CONTINUOUS
10
5.64975
20
-3.8968
11
5.64975
21
-3.90804
0
LINE
8
BLACK
6
CONTINUOUS
10
5.64975
20
-3.90804
11
5.64957
21
-3.90905
0
LINE
8
BLACK
6
CONTINUOUS
10
5.64957
20
-3.90905
11
5.64946
21
-3.90919
0
LINE
8
BLACK
6
CONTINUOUS
10
5.64946
20
-3.90919
11
5.64944
21
-3.90937
0
LINE
8
BLACK
6
CONTINUOUS
10
5.64944
20
-3.90937
11
5.64756
21
-3.91311
0
LINE
8
BLACK
6
CONTINUOUS
10
5.64756
20
-3.91311
11
5.64703
21
-3.91382
0
LINE
8
BLACK
6
CONTINUOUS
10
5.64703
20
-3.91382
11
5.64701
21
-3.91388
0
LINE
8
BLACK
6
CONTINUOUS
10
5.64701
20
-3.91388
11
5.64513
21
-3.91576
0
LINE
8
BLACK
6
CONTINUOUS
10
5.64513
20
-3.91576
11
5.64441
21
-3.91626
0
LINE
8
BLACK
6
CONTINUOUS
10
5.64441
20
-3.91626
11
5.64437
21
-3.91631
0
LINE
8
BLACK
6
CONTINUOUS
10
5.64437
20
-3.91631
11
5.64062
21
-3.91819
0
LINE
8
BLACK
6
CONTINUOUS
10
5.64062
20
-3.91819
11
5.63963
21
-3.91848
0
LINE
8
BLACK
6
CONTINUOUS
10
5.63963
20
-3.91848
11
5.63946
21
-3.91844
0
LINE
8
BLACK
6
CONTINUOUS
10
5.63946
20
-3.91844
11
5.6393
21
-3.9185
0
LINE
8
BLACK
6
CONTINUOUS
10
5.6393
20
-3.9185
11
5.6318
21
-3.9185
0
LINE
8
BLACK
6
CONTINUOUS
10
5.6318
20
-3.9185
11
5.63079
21
-3.91832
0
LINE
8
BLACK
6
CONTINUOUS
10
5.63079
20
-3.91832
11
5.63065
21
-3.91821
0
LINE
8
BLACK
6
CONTINUOUS
10
5.63065
20
-3.91821
11
5.63048
21
-3.91819
0
LINE
8
BLACK
6
CONTINUOUS
10
5.63048
20
-3.91819
11
5.62975
21
-3.91782
0
LINE
8
BLACK
6
CONTINUOUS
10
5.62975
20
-3.91782
11
5.62952
21
-3.9181
0
LINE
8
BLACK
6
CONTINUOUS
10
5.62952
20
-3.9181
11
5.62753
21
-3.91845
0
LINE
8
BLACK
6
CONTINUOUS
10
5.62753
20
-3.91845
11
5.62578
21
-3.91744
0
LINE
8
BLACK
6
CONTINUOUS
10
5.62578
20
-3.91744
11
5.62509
21
-3.91554
0
LINE
8
BLACK
6
CONTINUOUS
10
5.62509
20
-3.91554
11
5.62509
21
-3.87617
0
LINE
8
BLACK
6
CONTINUOUS
10
5.62509
20
-3.87617
11
5.62527
21
-3.87516
0
LINE
8
BLACK
6
CONTINUOUS
10
5.62527
20
-3.87516
11
5.62657
21
-3.87362
0
LINE
8
BLACK
6
CONTINUOUS
10
5.62657
20
-3.87362
11
5.62856
21
-3.87327
0
LINE
8
BLACK
6
CONTINUOUS
10
5.62856
20
-3.87327
11
5.63031
21
-3.87428
0
LINE
8
BLACK
6
CONTINUOUS
10
5.631
20
-3.893
11
5.631
21
-3.91184
0
LINE
8
BLACK
6
CONTINUOUS
10
5.631
20
-3.91184
11
5.63249
21
-3.91259
0
LINE
8
BLACK
6
CONTINUOUS
10
5.63249
20
-3.91259
11
5.6386
21
-3.91259
0
LINE
8
BLACK
6
CONTINUOUS
10
5.6386
20
-3.91259
11
5.6413
21
-3.91124
0
LINE
8
BLACK
6
CONTINUOUS
10
5.6413
20
-3.91124
11
5.64249
21
-3.91005
0
LINE
8
BLACK
6
CONTINUOUS
10
5.64249
20
-3.91005
11
5.64384
21
-3.90735
0
LINE
8
BLACK
6
CONTINUOUS
10
5.64384
20
-3.90735
11
5.64384
21
-3.89749
0
LINE
8
BLACK
6
CONTINUOUS
10
5.64384
20
-3.89749
11
5.64249
21
-3.8948
0
LINE
8
BLACK
6
CONTINUOUS
10
5.64249
20
-3.8948
11
5.6413
21
-3.8936
0
LINE
8
BLACK
6
CONTINUOUS
10
5.6413
20
-3.8936
11
5.6386
21
-3.89225
0
LINE
8
BLACK
6
CONTINUOUS
10
5.6386
20
-3.89225
11
5.63249
21
-3.89225
0
LINE
8
BLACK
6
CONTINUOUS
10
5.63249
20
-3.89225
11
5.631
21
-3.893
0
LINE
8
BLACK
6
CONTINUOUS
10
5.48783
20
-3.87428
11
5.48852
21
-3.87617
0
LINE
8
BLACK
6
CONTINUOUS
10
5.48852
20
-3.87617
11
5.48852
21
-3.90992
0
LINE
8
BLACK
6
CONTINUOUS
10
5.48852
20
-3.90992
11
5.48834
21
-3.91093
0
LINE
8
BLACK
6
CONTINUOUS
10
5.48834
20
-3.91093
11
5.48823
21
-3.91106
0
LINE
8
BLACK
6
CONTINUOUS
10
5.48823
20
-3.91106
11
5.48821
21
-3.91124
0
LINE
8
BLACK
6
CONTINUOUS
10
5.48821
20
-3.91124
11
5.48633
21
-3.91499
0
LINE
8
BLACK
6
CONTINUOUS
10
5.48633
20
-3.91499
11
5.48572
21
-3.91581
0
LINE
8
BLACK
6
CONTINUOUS
10
5.48572
20
-3.91581
11
5.48531
21
-3.91599
0
LINE
8
BLACK
6
CONTINUOUS
10
5.48531
20
-3.91599
11
5.48501
21
-3.91631
0
LINE
8
BLACK
6
CONTINUOUS
10
5.48501
20
-3.91631
11
5.48126
21
-3.91819
0
LINE
8
BLACK
6
CONTINUOUS
10
5.48126
20
-3.91819
11
5.48028
21
-3.91848
0
LINE
8
BLACK
6
CONTINUOUS
10
5.48028
20
-3.91848
11
5.47831
21
-3.91801
0
LINE
8
BLACK
6
CONTINUOUS
10
5.47831
20
-3.91801
11
5.47711
21
-3.91639
0
LINE
8
BLACK
6
CONTINUOUS
10
5.47711
20
-3.91639
11
5.47723
21
-3.91437
0
LINE
8
BLACK
6
CONTINUOUS
10
5.47723
20
-3.91437
11
5.47862
21
-3.9129
0
LINE
8
BLACK
6
CONTINUOUS
10
5.47862
20
-3.9129
11
5.48149
21
-3.91147
0
LINE
8
BLACK
6
CONTINUOUS
10
5.48149
20
-3.91147
11
5.48261
21
-3.90922
0
LINE
8
BLACK
6
CONTINUOUS
10
5.48261
20
-3.90922
11
5.48261
21
-3.87617
0
LINE
8
BLACK
6
CONTINUOUS
10
5.48261
20
-3.87617
11
5.48279
21
-3.87516
0
LINE
8
BLACK
6
CONTINUOUS
10
5.48279
20
-3.87516
11
5.48409
21
-3.87362
0
LINE
8
BLACK
6
CONTINUOUS
10
5.48409
20
-3.87362
11
5.48608
21
-3.87327
0
LINE
8
BLACK
6
CONTINUOUS
10
5.48608
20
-3.87327
11
5.48783
21
-3.87428
0
LINE
8
BLACK
6
CONTINUOUS
10
5.54219
20
-3.8874
11
5.54289
21
-3.8893
0
LINE
8
BLACK
6
CONTINUOUS
10
5.54289
20
-3.8893
11
5.54289
21
-3.91554
0
LINE
8
BLACK
6
CONTINUOUS
10
5.54289
20
-3.91554
11
5.54271
21
-3.91655
0
LINE
8
BLACK
6
CONTINUOUS
10
5.54271
20
-3.91655
11
5.54141
21
-3.9181
0
LINE
8
BLACK
6
CONTINUOUS
10
5.54141
20
-3.9181
11
5.53942
21
-3.91845
0
LINE
8
BLACK
6
CONTINUOUS
10
5.53942
20
-3.91845
11
5.53767
21
-3.91744
0
LINE
8
BLACK
6
CONTINUOUS
10
5.53767
20
-3.91744
11
5.53698
21
-3.91554
0
LINE
8
BLACK
6
CONTINUOUS
10
5.53698
20
-3.91554
11
5.53698
21
-3.8893
0
LINE
8
BLACK
6
CONTINUOUS
10
5.53698
20
-3.8893
11
5.53716
21
-3.88829
0
LINE
8
BLACK
6
CONTINUOUS
10
5.53716
20
-3.88829
11
5.53846
21
-3.88674
0
LINE
8
BLACK
6
CONTINUOUS
10
5.53846
20
-3.88674
11
5.54045
21
-3.88639
0
LINE
8
BLACK
6
CONTINUOUS
10
5.54045
20
-3.88639
11
5.54219
21
-3.8874
0
LINE
8
BLACK
6
CONTINUOUS
10
5.66593
20
-3.8874
11
5.66662
21
-3.8893
0
LINE
8
BLACK
6
CONTINUOUS
10
5.66662
20
-3.8893
11
5.66662
21
-3.91554
0
LINE
8
BLACK
6
CONTINUOUS
10
5.66662
20
-3.91554
11
5.66644
21
-3.91655
0
LINE
8
BLACK
6
CONTINUOUS
10
5.66644
20
-3.91655
11
5.66514
21
-3.9181
0
LINE
8
BLACK
6
CONTINUOUS
10
5.66514
20
-3.9181
11
5.66315
21
-3.91845
0
LINE
8
BLACK
6
CONTINUOUS
10
5.66315
20
-3.91845
11
5.66141
21
-3.91744
0
LINE
8
BLACK
6
CONTINUOUS
10
5.66141
20
-3.91744
11
5.66071
21
-3.91554
0
LINE
8
BLACK
6
CONTINUOUS
10
5.66071
20
-3.91554
11
5.66071
21
-3.8893
0
LINE
8
BLACK
6
CONTINUOUS
10
5.66071
20
-3.8893
11
5.66089
21
-3.88829
0
LINE
8
BLACK
6
CONTINUOUS
10
5.66089
20
-3.88829
11
5.66219
21
-3.88674
0
LINE
8
BLACK
6
CONTINUOUS
10
5.66219
20
-3.88674
11
5.66418
21
-3.88639
0
LINE
8
BLACK
6
CONTINUOUS
10
5.66418
20
-3.88639
11
5.66593
21
-3.8874
0
LINE
8
BLACK
6
CONTINUOUS
10
5.6978
20
-3.87329
11
5.69793
21
-3.87327
0
LINE
8
BLACK
6
CONTINUOUS
10
5.69793
20
-3.87327
11
5.69804
21
-3.87333
0
LINE
8
BLACK
6
CONTINUOUS
10
5.69804
20
-3.87333
11
5.69842
21
-3.8734
0
LINE
8
BLACK
6
CONTINUOUS
10
5.69842
20
-3.8734
11
5.69901
21
-3.87389
0
LINE
8
BLACK
6
CONTINUOUS
10
5.69901
20
-3.87389
11
5.69967
21
-3.87428
0
LINE
8
BLACK
6
CONTINUOUS
10
5.69967
20
-3.87428
11
5.69977
21
-3.87453
0
LINE
8
BLACK
6
CONTINUOUS
10
5.69977
20
-3.87453
11
5.69997
21
-3.8747
0
LINE
8
BLACK
6
CONTINUOUS
10
5.69997
20
-3.8747
11
5.7001
21
-3.87545
0
LINE
8
BLACK
6
CONTINUOUS
10
5.7001
20
-3.87545
11
5.70037
21
-3.87617
0
LINE
8
BLACK
6
CONTINUOUS
10
5.70037
20
-3.87617
11
5.70037
21
-3.91554
0
LINE
8
BLACK
6
CONTINUOUS
10
5.70037
20
-3.91554
11
5.70019
21
-3.91655
0
LINE
8
BLACK
6
CONTINUOUS
10
5.70019
20
-3.91655
11
5.69889
21
-3.9181
0
LINE
8
BLACK
6
CONTINUOUS
10
5.69889
20
-3.9181
11
5.6969
21
-3.91845
0
LINE
8
BLACK
6
CONTINUOUS
10
5.6969
20
-3.91845
11
5.69515
21
-3.91744
0
LINE
8
BLACK
6
CONTINUOUS
10
5.69515
20
-3.91744
11
5.69446
21
-3.91554
0
LINE
8
BLACK
6
CONTINUOUS
10
5.69446
20
-3.91554
11
5.69446
21
-3.89787
0
LINE
8
BLACK
6
CONTINUOUS
10
5.69446
20
-3.89787
11
5.68429
21
-3.89787
0
LINE
8
BLACK
6
CONTINUOUS
10
5.68429
20
-3.89787
11
5.68328
21
-3.8977
0
LINE
8
BLACK
6
CONTINUOUS
10
5.68328
20
-3.8977
11
5.68173
21
-3.8964
0
LINE
8
BLACK
6
CONTINUOUS
10
5.68173
20
-3.8964
11
5.68138
21
-3.89441
0
LINE
8
BLACK
6
CONTINUOUS
10
5.68138
20
-3.89441
11
5.68239
21
-3.89266
0
LINE
8
BLACK
6
CONTINUOUS
10
5.68239
20
-3.89266
11
5.68429
21
-3.89197
0
LINE
8
BLACK
6
CONTINUOUS
10
5.68429
20
-3.89197
11
5.69446
21
-3.89197
0
LINE
8
BLACK
6
CONTINUOUS
10
5.69446
20
-3.89197
11
5.69446
21
-3.87913
0
LINE
8
BLACK
6
CONTINUOUS
10
5.69446
20
-3.87913
11
5.67867
21
-3.87913
0
LINE
8
BLACK
6
CONTINUOUS
10
5.67867
20
-3.87913
11
5.67766
21
-3.87895
0
LINE
8
BLACK
6
CONTINUOUS
10
5.67766
20
-3.87895
11
5.67611
21
-3.87765
0
LINE
8
BLACK
6
CONTINUOUS
10
5.67611
20
-3.87765
11
5.67576
21
-3.87566
0
LINE
8
BLACK
6
CONTINUOUS
10
5.67576
20
-3.87566
11
5.67677
21
-3.87391
0
LINE
8
BLACK
6
CONTINUOUS
10
5.67677
20
-3.87391
11
5.67867
21
-3.87322
0
LINE
8
BLACK
6
CONTINUOUS
10
5.67867
20
-3.87322
11
5.69741
21
-3.87322
0
LINE
8
BLACK
6
CONTINUOUS
10
5.69741
20
-3.87322
11
5.6978
21
-3.87329
0
LINE
8
BLACK
6
CONTINUOUS
10
5.54031
20
-3.87329
11
5.54045
21
-3.87327
0
LINE
8
BLACK
6
CONTINUOUS
10
5.54045
20
-3.87327
11
5.54056
21
-3.87333
0
LINE
8
BLACK
6
CONTINUOUS
10
5.54056
20
-3.87333
11
5.5407
21
-3.87332
0
LINE
8
BLACK
6
CONTINUOUS
10
5.5407
20
-3.87332
11
5.54133
21
-3.87376
0
LINE
8
BLACK
6
CONTINUOUS
10
5.54133
20
-3.87376
11
5.54202
21
-3.87409
0
LINE
8
BLACK
6
CONTINUOUS
10
5.54202
20
-3.87409
11
5.5439
21
-3.87596
0
LINE
8
BLACK
6
CONTINUOUS
10
5.5439
20
-3.87596
11
5.54412
21
-3.87628
0
LINE
8
BLACK
6
CONTINUOUS
10
5.54412
20
-3.87628
11
5.54423
21
-3.87636
0
LINE
8
BLACK
6
CONTINUOUS
10
5.54423
20
-3.87636
11
5.54426
21
-3.87648
0
LINE
8
BLACK
6
CONTINUOUS
10
5.54426
20
-3.87648
11
5.54448
21
-3.8768
0
LINE
8
BLACK
6
CONTINUOUS
10
5.54448
20
-3.8768
11
5.54455
21
-3.87757
0
LINE
8
BLACK
6
CONTINUOUS
10
5.54455
20
-3.87757
11
5.54475
21
-3.87831
0
LINE
8
BLACK
6
CONTINUOUS
10
5.54475
20
-3.87831
11
5.54464
21
-3.87855
0
LINE
8
BLACK
6
CONTINUOUS
10
5.54464
20
-3.87855
11
5.54466
21
-3.87881
0
LINE
8
BLACK
6
CONTINUOUS
10
5.54466
20
-3.87881
11
5.54422
21
-3.87944
0
LINE
8
BLACK
6
CONTINUOUS
10
5.54422
20
-3.87944
11
5.5439
21
-3.88014
0
LINE
8
BLACK
6
CONTINUOUS
10
5.5439
20
-3.88014
11
5.54202
21
-3.88201
0
LINE
8
BLACK
6
CONTINUOUS
10
5.54202
20
-3.88201
11
5.5417
21
-3.88223
0
LINE
8
BLACK
6
CONTINUOUS
10
5.5417
20
-3.88223
11
5.54163
21
-3.88234
0
LINE
8
BLACK
6
CONTINUOUS
10
5.54163
20
-3.88234
11
5.5415
21
-3.88238
0
LINE
8
BLACK
6
CONTINUOUS
10
5.5415
20
-3.88238
11
5.54149
21
-3.88238
0
LINE
8
BLACK
6
CONTINUOUS
10
5.54149
20
-3.88238
11
5.54141
21
-3.88248
0
LINE
8
BLACK
6
CONTINUOUS
10
5.54141
20
-3.88248
11
5.54133
21
-3.88249
0
LINE
8
BLACK
6
CONTINUOUS
10
5.54133
20
-3.88249
11
5.54118
21
-3.8826
0
LINE
8
BLACK
6
CONTINUOUS
10
5.54118
20
-3.8826
11
5.54042
21
-3.88267
0
LINE
8
BLACK
6
CONTINUOUS
10
5.54042
20
-3.88267
11
5.53968
21
-3.88286
0
LINE
8
BLACK
6
CONTINUOUS
10
5.53968
20
-3.88286
11
5.53955
21
-3.88281
0
LINE
8
BLACK
6
CONTINUOUS
10
5.53955
20
-3.88281
11
5.53942
21
-3.88283
0
LINE
8
BLACK
6
CONTINUOUS
10
5.53942
20
-3.88283
11
5.5393
21
-3.88276
0
LINE
8
BLACK
6
CONTINUOUS
10
5.5393
20
-3.88276
11
5.53917
21
-3.88278
0
LINE
8
BLACK
6
CONTINUOUS
10
5.53917
20
-3.88278
11
5.53854
21
-3.88234
0
LINE
8
BLACK
6
CONTINUOUS
10
5.53854
20
-3.88234
11
5.53784
21
-3.88201
0
LINE
8
BLACK
6
CONTINUOUS
10
5.53784
20
-3.88201
11
5.53597
21
-3.88014
0
LINE
8
BLACK
6
CONTINUOUS
10
5.53597
20
-3.88014
11
5.53575
21
-3.87982
0
LINE
8
BLACK
6
CONTINUOUS
10
5.53575
20
-3.87982
11
5.53564
21
-3.87974
0
LINE
8
BLACK
6
CONTINUOUS
10
5.53564
20
-3.87974
11
5.5356
21
-3.87962
0
LINE
8
BLACK
6
CONTINUOUS
10
5.5356
20
-3.87962
11
5.53538
21
-3.8793
0
LINE
8
BLACK
6
CONTINUOUS
10
5.53538
20
-3.8793
11
5.53531
21
-3.87853
0
LINE
8
BLACK
6
CONTINUOUS
10
5.53531
20
-3.87853
11
5.53512
21
-3.87779
0
LINE
8
BLACK
6
CONTINUOUS
10
5.53512
20
-3.87779
11
5.53523
21
-3.87755
0
LINE
8
BLACK
6
CONTINUOUS
10
5.53523
20
-3.87755
11
5.53521
21
-3.87728
0
LINE
8
BLACK
6
CONTINUOUS
10
5.53521
20
-3.87728
11
5.53565
21
-3.87666
0
LINE
8
BLACK
6
CONTINUOUS
10
5.53565
20
-3.87666
11
5.53597
21
-3.87596
0
LINE
8
BLACK
6
CONTINUOUS
10
5.53597
20
-3.87596
11
5.53784
21
-3.87409
0
LINE
8
BLACK
6
CONTINUOUS
10
5.53784
20
-3.87409
11
5.53816
21
-3.87386
0
LINE
8
BLACK
6
CONTINUOUS
10
5.53816
20
-3.87386
11
5.53824
21
-3.87376
0
LINE
8
BLACK
6
CONTINUOUS
10
5.53824
20
-3.87376
11
5.53837
21
-3.87372
0
LINE
8
BLACK
6
CONTINUOUS
10
5.53837
20
-3.87372
11
5.53837
21
-3.87372
0
LINE
8
BLACK
6
CONTINUOUS
10
5.53837
20
-3.87372
11
5.53846
21
-3.87362
0
LINE
8
BLACK
6
CONTINUOUS
10
5.53846
20
-3.87362
11
5.53853
21
-3.8736
0
LINE
8
BLACK
6
CONTINUOUS
10
5.53853
20
-3.8736
11
5.53868
21
-3.8735
0
LINE
8
BLACK
6
CONTINUOUS
10
5.53868
20
-3.8735
11
5.53945
21
-3.87343
0
LINE
8
BLACK
6
CONTINUOUS
10
5.53945
20
-3.87343
11
5.54019
21
-3.87323
0
LINE
8
BLACK
6
CONTINUOUS
10
5.54019
20
-3.87323
11
5.54031
21
-3.87329
0
LINE
8
BLACK
6
CONTINUOUS
10
5.66405
20
-3.87329
11
5.66418
21
-3.87327
0
LINE
8
BLACK
6
CONTINUOUS
10
5.66418
20
-3.87327
11
5.6643
21
-3.87333
0
LINE
8
BLACK
6
CONTINUOUS
10
5.6643
20
-3.87333
11
5.66443
21
-3.87332
0
LINE
8
BLACK
6
CONTINUOUS
10
5.66443
20
-3.87332
11
5.66506
21
-3.87376
0
LINE
8
BLACK
6
CONTINUOUS
10
5.66506
20
-3.87376
11
5.66575
21
-3.87409
0
LINE
8
BLACK
6
CONTINUOUS
10
5.66575
20
-3.87409
11
5.66763
21
-3.87596
0
LINE
8
BLACK
6
CONTINUOUS
10
5.66763
20
-3.87596
11
5.66785
21
-3.87628
0
LINE
8
BLACK
6
CONTINUOUS
10
5.66785
20
-3.87628
11
5.66796
21
-3.87636
0
LINE
8
BLACK
6
CONTINUOUS
10
5.66796
20
-3.87636
11
5.66799
21
-3.87648
0
LINE
8
BLACK
6
CONTINUOUS
10
5.66799
20
-3.87648
11
5.66822
21
-3.8768
0
LINE
8
BLACK
6
CONTINUOUS
10
5.66822
20
-3.8768
11
5.66828
21
-3.87757
0
LINE
8
BLACK
6
CONTINUOUS
10
5.66828
20
-3.87757
11
5.66848
21
-3.87831
0
LINE
8
BLACK
6
CONTINUOUS
10
5.66848
20
-3.87831
11
5.66837
21
-3.87855
0
LINE
8
BLACK
6
CONTINUOUS
10
5.66837
20
-3.87855
11
5.66839
21
-3.87881
0
LINE
8
BLACK
6
CONTINUOUS
10
5.66839
20
-3.87881
11
5.66795
21
-3.87944
0
LINE
8
BLACK
6
CONTINUOUS
10
5.66795
20
-3.87944
11
5.66763
21
-3.88014
0
LINE
8
BLACK
6
CONTINUOUS
10
5.66763
20
-3.88014
11
5.66575
21
-3.88201
0
LINE
8
BLACK
6
CONTINUOUS
10
5.66575
20
-3.88201
11
5.66544
21
-3.88223
0
LINE
8
BLACK
6
CONTINUOUS
10
5.66544
20
-3.88223
11
5.66536
21
-3.88234
0
LINE
8
BLACK
6
CONTINUOUS
10
5.66536
20
-3.88234
11
5.66523
21
-3.88238
0
LINE
8
BLACK
6
CONTINUOUS
10
5.66523
20
-3.88238
11
5.66523
21
-3.88238
0
LINE
8
BLACK
6
CONTINUOUS
10
5.66523
20
-3.88238
11
5.66514
21
-3.88248
0
LINE
8
BLACK
6
CONTINUOUS
10
5.66514
20
-3.88248
11
5.66507
21
-3.88249
0
LINE
8
BLACK
6
CONTINUOUS
10
5.66507
20
-3.88249
11
5.66491
21
-3.8826
0
LINE
8
BLACK
6
CONTINUOUS
10
5.66491
20
-3.8826
11
5.66415
21
-3.88267
0
LINE
8
BLACK
6
CONTINUOUS
10
5.66415
20
-3.88267
11
5.66341
21
-3.88286
0
LINE
8
BLACK
6
CONTINUOUS
10
5.66341
20
-3.88286
11
5.66329
21
-3.88281
0
LINE
8
BLACK
6
CONTINUOUS
10
5.66329
20
-3.88281
11
5.66315
21
-3.88283
0
LINE
8
BLACK
6
CONTINUOUS
10
5.66315
20
-3.88283
11
5.66304
21
-3.88276
0
LINE
8
BLACK
6
CONTINUOUS
10
5.66304
20
-3.88276
11
5.6629
21
-3.88278
0
LINE
8
BLACK
6
CONTINUOUS
10
5.6629
20
-3.88278
11
5.66227
21
-3.88234
0
LINE
8
BLACK
6
CONTINUOUS
10
5.66227
20
-3.88234
11
5.66158
21
-3.88201
0
LINE
8
BLACK
6
CONTINUOUS
10
5.66158
20
-3.88201
11
5.6597
21
-3.88014
0
LINE
8
BLACK
6
CONTINUOUS
10
5.6597
20
-3.88014
11
5.65948
21
-3.87982
0
LINE
8
BLACK
6
CONTINUOUS
10
5.65948
20
-3.87982
11
5.65937
21
-3.87974
0
LINE
8
BLACK
6
CONTINUOUS
10
5.65937
20
-3.87974
11
5.65934
21
-3.87962
0
LINE
8
BLACK
6
CONTINUOUS
10
5.65934
20
-3.87962
11
5.65912
21
-3.8793
0
LINE
8
BLACK
6
CONTINUOUS
10
5.65912
20
-3.8793
11
5.65905
21
-3.87853
0
LINE
8
BLACK
6
CONTINUOUS
10
5.65905
20
-3.87853
11
5.65885
21
-3.87779
0
LINE
8
BLACK
6
CONTINUOUS
10
5.65885
20
-3.87779
11
5.65896
21
-3.87755
0
LINE
8
BLACK
6
CONTINUOUS
10
5.65896
20
-3.87755
11
5.65894
21
-3.87728
0
LINE
8
BLACK
6
CONTINUOUS
10
5.65894
20
-3.87728
11
5.65938
21
-3.87666
0
LINE
8
BLACK
6
CONTINUOUS
10
5.65938
20
-3.87666
11
5.6597
21
-3.87596
0
LINE
8
BLACK
6
CONTINUOUS
10
5.6597
20
-3.87596
11
5.66158
21
-3.87409
0
LINE
8
BLACK
6
CONTINUOUS
10
5.66158
20
-3.87409
11
5.6619
21
-3.87386
0
LINE
8
BLACK
6
CONTINUOUS
10
5.6619
20
-3.87386
11
5.66197
21
-3.87376
0
LINE
8
BLACK
6
CONTINUOUS
10
5.66197
20
-3.87376
11
5.6621
21
-3.87372
0
LINE
8
BLACK
6
CONTINUOUS
10
5.6621
20
-3.87372
11
5.66211
21
-3.87372
0
LINE
8
BLACK
6
CONTINUOUS
10
5.66211
20
-3.87372
11
5.66219
21
-3.87362
0
LINE
8
BLACK
6
CONTINUOUS
10
5.66219
20
-3.87362
11
5.66227
21
-3.8736
0
LINE
8
BLACK
6
CONTINUOUS
10
5.66227
20
-3.8736
11
5.66242
21
-3.8735
0
LINE
8
BLACK
6
CONTINUOUS
10
5.66242
20
-3.8735
11
5.66318
21
-3.87343
0
LINE
8
BLACK
6
CONTINUOUS
10
5.66318
20
-3.87343
11
5.66392
21
-3.87323
0
LINE
8
BLACK
6
CONTINUOUS
10
5.66392
20
-3.87323
11
5.66405
21
-3.87329
0
LINE
8
BLACK
6
CONTINUOUS
10
5.57229
20
-3.80918
11
5.57241
21
-3.80915
0
LINE
8
BLACK
6
CONTINUOUS
10
5.57241
20
-3.80915
11
5.5727
21
-3.80935
0
LINE
8
BLACK
6
CONTINUOUS
10
5.5727
20
-3.80935
11
5.57301
21
-3.80948
0
LINE
8
BLACK
6
CONTINUOUS
10
5.57301
20
-3.80948
11
5.57306
21
-3.80959
0
LINE
8
BLACK
6
CONTINUOUS
10
5.57306
20
-3.80959
11
5.57316
21
-3.80966
0
LINE
8
BLACK
6
CONTINUOUS
10
5.57316
20
-3.80966
11
5.5746
21
-3.81181
0
LINE
8
BLACK
6
CONTINUOUS
10
5.5746
20
-3.81181
11
5.57588
21
-3.81309
0
LINE
8
BLACK
6
CONTINUOUS
10
5.57588
20
-3.81309
11
5.57721
21
-3.81376
0
LINE
8
BLACK
6
CONTINUOUS
10
5.57721
20
-3.81376
11
5.5778
21
-3.81444
0
LINE
8
BLACK
6
CONTINUOUS
10
5.5778
20
-3.81444
11
5.57773
21
-3.81534
0
LINE
8
BLACK
6
CONTINUOUS
10
5.57773
20
-3.81534
11
5.57705
21
-3.81593
0
LINE
8
BLACK
6
CONTINUOUS
10
5.57705
20
-3.81593
11
5.57615
21
-3.81587
0
LINE
8
BLACK
6
CONTINUOUS
10
5.57615
20
-3.81587
11
5.57465
21
-3.81512
0
LINE
8
BLACK
6
CONTINUOUS
10
5.57465
20
-3.81512
11
5.57452
21
-3.81497
0
LINE
8
BLACK
6
CONTINUOUS
10
5.57452
20
-3.81497
11
5.57434
21
-3.8149
0
LINE
8
BLACK
6
CONTINUOUS
10
5.57434
20
-3.8149
11
5.57336
21
-3.81391
0
LINE
8
BLACK
6
CONTINUOUS
10
5.57336
20
-3.81391
11
5.57336
21
-3.82488
0
LINE
8
BLACK
6
CONTINUOUS
10
5.57336
20
-3.82488
11
5.57668
21
-3.82488
0
LINE
8
BLACK
6
CONTINUOUS
10
5.57668
20
-3.82488
11
5.57751
21
-3.82522
0
LINE
8
BLACK
6
CONTINUOUS
10
5.57751
20
-3.82522
11
5.57786
21
-3.82606
0
LINE
8
BLACK
6
CONTINUOUS
10
5.57786
20
-3.82606
11
5.57751
21
-3.8269
0
LINE
8
BLACK
6
CONTINUOUS
10
5.57751
20
-3.8269
11
5.57668
21
-3.82724
0
LINE
8
BLACK
6
CONTINUOUS
10
5.57668
20
-3.82724
11
5.57218
21
-3.82724
0
LINE
8
BLACK
6
CONTINUOUS
10
5.57218
20
-3.82724
11
5.56768
21
-3.82724
0
LINE
8
BLACK
6
CONTINUOUS
10
5.56768
20
-3.82724
11
5.56684
21
-3.8269
0
LINE
8
BLACK
6
CONTINUOUS
10
5.56684
20
-3.8269
11
5.5665
21
-3.82606
0
LINE
8
BLACK
6
CONTINUOUS
10
5.5665
20
-3.82606
11
5.56684
21
-3.82522
0
LINE
8
BLACK
6
CONTINUOUS
10
5.56684
20
-3.82522
11
5.56768
21
-3.82488
0
LINE
8
BLACK
6
CONTINUOUS
10
5.56768
20
-3.82488
11
5.571
21
-3.82488
0
LINE
8
BLACK
6
CONTINUOUS
10
5.571
20
-3.82488
11
5.571
21
-3.81031
0
LINE
8
BLACK
6
CONTINUOUS
10
5.571
20
-3.81031
11
5.57104
21
-3.8102
0
LINE
8
BLACK
6
CONTINUOUS
10
5.57104
20
-3.8102
11
5.57102
21
-3.81008
0
LINE
8
BLACK
6
CONTINUOUS
10
5.57102
20
-3.81008
11
5.57121
21
-3.80979
0
LINE
8
BLACK
6
CONTINUOUS
10
5.57121
20
-3.80979
11
5.57134
21
-3.80948
0
LINE
8
BLACK
6
CONTINUOUS
10
5.57134
20
-3.80948
11
5.57146
21
-3.80943
0
LINE
8
BLACK
6
CONTINUOUS
10
5.57146
20
-3.80943
11
5.57152
21
-3.80933
0
LINE
8
BLACK
6
CONTINUOUS
10
5.57152
20
-3.80933
11
5.57186
21
-3.80926
0
LINE
8
BLACK
6
CONTINUOUS
10
5.57186
20
-3.80926
11
5.57218
21
-3.80913
0
LINE
8
BLACK
6
CONTINUOUS
10
5.57218
20
-3.80913
11
5.57229
21
-3.80918
0
LINE
8
BLACK
6
CONTINUOUS
10
5.59251
20
-3.80948
11
5.59286
21
-3.81031
0
LINE
8
BLACK
6
CONTINUOUS
10
5.59286
20
-3.81031
11
5.59286
21
-3.82606
0
LINE
8
BLACK
6
CONTINUOUS
10
5.59286
20
-3.82606
11
5.59251
21
-3.8269
0
LINE
8
BLACK
6
CONTINUOUS
10
5.59251
20
-3.8269
11
5.59168
21
-3.82724
0
LINE
8
BLACK
6
CONTINUOUS
10
5.59168
20
-3.82724
11
5.58793
21
-3.82724
0
LINE
8
BLACK
6
CONTINUOUS
10
5.58793
20
-3.82724
11
5.58775
21
-3.82717
0
LINE
8
BLACK
6
CONTINUOUS
10
5.58775
20
-3.82717
11
5.58755
21
-3.82718
0
LINE
8
BLACK
6
CONTINUOUS
10
5.58755
20
-3.82718
11
5.5853
21
-3.82643
0
LINE
8
BLACK
6
CONTINUOUS
10
5.5853
20
-3.82643
11
5.5851
21
-3.82625
0
LINE
8
BLACK
6
CONTINUOUS
10
5.5851
20
-3.82625
11
5.58484
21
-3.82615
0
LINE
8
BLACK
6
CONTINUOUS
10
5.58484
20
-3.82615
11
5.58334
21
-3.82465
0
LINE
8
BLACK
6
CONTINUOUS
10
5.58334
20
-3.82465
11
5.58327
21
-3.82447
0
LINE
8
BLACK
6
CONTINUOUS
10
5.58327
20
-3.82447
11
5.58312
21
-3.82434
0
LINE
8
BLACK
6
CONTINUOUS
10
5.58312
20
-3.82434
11
5.58237
21
-3.82284
0
LINE
8
BLACK
6
CONTINUOUS
10
5.58237
20
-3.82284
11
5.58236
21
-3.8227
0
LINE
8
BLACK
6
CONTINUOUS
10
5.58236
20
-3.8227
11
5.58228
21
-3.8226
0
LINE
8
BLACK
6
CONTINUOUS
10
5.58228
20
-3.8226
11
5.58153
21
-3.8196
0
LINE
8
BLACK
6
CONTINUOUS
10
5.58153
20
-3.8196
11
5.58155
21
-3.81945
0
LINE
8
BLACK
6
CONTINUOUS
10
5.58155
20
-3.81945
11
5.5815
21
-3.81931
0
LINE
8
BLACK
6
CONTINUOUS
10
5.5815
20
-3.81931
11
5.5815
21
-3.81706
0
LINE
8
BLACK
6
CONTINUOUS
10
5.5815
20
-3.81706
11
5.58155
21
-3.81692
0
LINE
8
BLACK
6
CONTINUOUS
10
5.58155
20
-3.81692
11
5.58153
21
-3.81677
0
LINE
8
BLACK
6
CONTINUOUS
10
5.58153
20
-3.81677
11
5.58228
21
-3.81378
0
LINE
8
BLACK
6
CONTINUOUS
10
5.58228
20
-3.81378
11
5.58236
21
-3.81367
0
LINE
8
BLACK
6
CONTINUOUS
10
5.58236
20
-3.81367
11
5.58237
21
-3.81353
0
LINE
8
BLACK
6
CONTINUOUS
10
5.58237
20
-3.81353
11
5.58312
21
-3.81203
0
LINE
8
BLACK
6
CONTINUOUS
10
5.58312
20
-3.81203
11
5.58327
21
-3.81191
0
LINE
8
BLACK
6
CONTINUOUS
10
5.58327
20
-3.81191
11
5.58334
21
-3.81173
0
LINE
8
BLACK
6
CONTINUOUS
10
5.58334
20
-3.81173
11
5.58484
21
-3.81023
0
LINE
8
BLACK
6
CONTINUOUS
10
5.58484
20
-3.81023
11
5.5851
21
-3.81012
0
LINE
8
BLACK
6
CONTINUOUS
10
5.5851
20
-3.81012
11
5.5853
21
-3.80994
0
LINE
8
BLACK
6
CONTINUOUS
10
5.5853
20
-3.80994
11
5.58755
21
-3.80919
0
LINE
8
BLACK
6
CONTINUOUS
10
5.58755
20
-3.80919
11
5.58775
21
-3.80921
0
LINE
8
BLACK
6
CONTINUOUS
10
5.58775
20
-3.80921
11
5.58793
21
-3.80913
0
LINE
8
BLACK
6
CONTINUOUS
10
5.58793
20
-3.80913
11
5.59168
21
-3.80913
0
LINE
8
BLACK
6
CONTINUOUS
10
5.59168
20
-3.80913
11
5.59251
21
-3.80948
0
LINE
8
BLACK
6
CONTINUOUS
10
5.58631
20
-3.81209
11
5.58515
21
-3.81326
0
LINE
8
BLACK
6
CONTINUOUS
10
5.58515
20
-3.81326
11
5.58454
21
-3.81447
0
LINE
8
BLACK
6
CONTINUOUS
10
5.58454
20
-3.81447
11
5.58386
21
-3.81721
0
LINE
8
BLACK
6
CONTINUOUS
10
5.58386
20
-3.81721
11
5.58386
21
-3.81917
0
LINE
8
BLACK
6
CONTINUOUS
10
5.58386
20
-3.81917
11
5.58454
21
-3.8219
0
LINE
8
BLACK
6
CONTINUOUS
10
5.58454
20
-3.8219
11
5.58515
21
-3.82311
0
LINE
8
BLACK
6
CONTINUOUS
10
5.58515
20
-3.82311
11
5.58631
21
-3.82428
0
LINE
8
BLACK
6
CONTINUOUS
10
5.58631
20
-3.82428
11
5.58812
21
-3.82488
0
LINE
8
BLACK
6
CONTINUOUS
10
5.58812
20
-3.82488
11
5.59049
21
-3.82488
0
LINE
8
BLACK
6
CONTINUOUS
10
5.59049
20
-3.82488
11
5.59049
21
-3.81149
0
LINE
8
BLACK
6
CONTINUOUS
10
5.59049
20
-3.81149
11
5.58812
21
-3.81149
0
LINE
8
BLACK
6
CONTINUOUS
10
5.58812
20
-3.81149
11
5.58631
21
-3.81209
0
LINE
8
BLACK
6
CONTINUOUS
10
5.60001
20
-3.80948
11
5.60036
21
-3.81031
0
LINE
8
BLACK
6
CONTINUOUS
10
5.60036
20
-3.81031
11
5.60036
21
-3.82606
0
LINE
8
BLACK
6
CONTINUOUS
10
5.60036
20
-3.82606
11
5.60001
21
-3.8269
0
LINE
8
BLACK
6
CONTINUOUS
10
5.60001
20
-3.8269
11
5.59918
21
-3.82724
0
LINE
8
BLACK
6
CONTINUOUS
10
5.59918
20
-3.82724
11
5.59834
21
-3.8269
0
LINE
8
BLACK
6
CONTINUOUS
10
5.59834
20
-3.8269
11
5.59799
21
-3.82606
0
LINE
8
BLACK
6
CONTINUOUS
10
5.59799
20
-3.82606
11
5.59799
21
-3.81031
0
LINE
8
BLACK
6
CONTINUOUS
10
5.59799
20
-3.81031
11
5.59834
21
-3.80948
0
LINE
8
BLACK
6
CONTINUOUS
10
5.59834
20
-3.80948
11
5.59918
21
-3.80913
0
LINE
8
BLACK
6
CONTINUOUS
10
5.59918
20
-3.80913
11
5.60001
21
-3.80948
0
LINE
8
BLACK
6
CONTINUOUS
10
5.61351
20
-3.80948
11
5.61385
21
-3.81031
0
LINE
8
BLACK
6
CONTINUOUS
10
5.61385
20
-3.81031
11
5.61385
21
-3.82606
0
LINE
8
BLACK
6
CONTINUOUS
10
5.61385
20
-3.82606
11
5.61351
21
-3.8269
0
LINE
8
BLACK
6
CONTINUOUS
10
5.61351
20
-3.8269
11
5.61267
21
-3.82724
0
LINE
8
BLACK
6
CONTINUOUS
10
5.61267
20
-3.82724
11
5.61184
21
-3.8269
0
LINE
8
BLACK
6
CONTINUOUS
10
5.61184
20
-3.8269
11
5.61149
21
-3.82606
0
LINE
8
BLACK
6
CONTINUOUS
10
5.61149
20
-3.82606
11
5.61149
21
-3.81899
0
LINE
8
BLACK
6
CONTINUOUS
10
5.61149
20
-3.81899
11
5.60742
21
-3.81899
0
LINE
8
BLACK
6
CONTINUOUS
10
5.60742
20
-3.81899
11
5.60659
21
-3.81865
0
LINE
8
BLACK
6
CONTINUOUS
10
5.60659
20
-3.81865
11
5.60624
21
-3.81781
0
LINE
8
BLACK
6
CONTINUOUS
10
5.60624
20
-3.81781
11
5.60659
21
-3.81698
0
LINE
8
BLACK
6
CONTINUOUS
10
5.60659
20
-3.81698
11
5.60742
21
-3.81663
0
LINE
8
BLACK
6
CONTINUOUS
10
5.60742
20
-3.81663
11
5.61149
21
-3.81663
0
LINE
8
BLACK
6
CONTINUOUS
10
5.61149
20
-3.81663
11
5.61149
21
-3.81149
0
LINE
8
BLACK
6
CONTINUOUS
10
5.61149
20
-3.81149
11
5.60517
21
-3.81149
0
LINE
8
BLACK
6
CONTINUOUS
10
5.60517
20
-3.81149
11
5.60434
21
-3.81115
0
LINE
8
BLACK
6
CONTINUOUS
10
5.60434
20
-3.81115
11
5.60399
21
-3.81031
0
LINE
8
BLACK
6
CONTINUOUS
10
5.60399
20
-3.81031
11
5.60434
21
-3.80948
0
LINE
8
BLACK
6
CONTINUOUS
10
5.60434
20
-3.80948
11
5.60517
21
-3.80913
0
LINE
8
BLACK
6
CONTINUOUS
10
5.60517
20
-3.80913
11
5.61267
21
-3.80913
0
LINE
8
BLACK
6
CONTINUOUS
10
5.61267
20
-3.80913
11
5.61351
21
-3.80948
0
LINE
8
BLACK
6
CONTINUOUS
10
5.59862
20
-3.77835
11
5.60637
21
-3.78071
0
LINE
8
BLACK
6
CONTINUOUS
10
5.60637
20
-3.78071
11
5.61352
21
-3.78453
0
LINE
8
BLACK
6
CONTINUOUS
10
5.61352
20
-3.78453
11
5.61978
21
-3.78967
0
LINE
8
BLACK
6
CONTINUOUS
10
5.61978
20
-3.78967
11
5.62492
21
-3.79593
0
LINE
8
BLACK
6
CONTINUOUS
10
5.62492
20
-3.79593
11
5.62874
21
-3.80308
0
LINE
8
BLACK
6
CONTINUOUS
10
5.62874
20
-3.80308
11
5.6311
21
-3.81083
0
LINE
8
BLACK
6
CONTINUOUS
10
5.6311
20
-3.81083
11
5.63189
21
-3.8189
0
LINE
8
BLACK
6
CONTINUOUS
10
5.63189
20
-3.8189
11
5.6311
21
-3.82696
0
LINE
8
BLACK
6
CONTINUOUS
10
5.6311
20
-3.82696
11
5.62874
21
-3.83472
0
LINE
8
BLACK
6
CONTINUOUS
10
5.62874
20
-3.83472
11
5.62492
21
-3.84186
0
LINE
8
BLACK
6
CONTINUOUS
10
5.62492
20
-3.84186
11
5.61978
21
-3.84813
0
LINE
8
BLACK
6
CONTINUOUS
10
5.61978
20
-3.84813
11
5.61352
21
-3.85327
0
LINE
8
BLACK
6
CONTINUOUS
10
5.61352
20
-3.85327
11
5.60637
21
-3.85709
0
LINE
8
BLACK
6
CONTINUOUS
10
5.60637
20
-3.85709
11
5.59862
21
-3.85944
0
LINE
8
BLACK
6
CONTINUOUS
10
5.59862
20
-3.85944
11
5.59055
21
-3.86024
0
LINE
8
BLACK
6
CONTINUOUS
10
5.59055
20
-3.86024
11
5.58249
21
-3.85944
0
LINE
8
BLACK
6
CONTINUOUS
10
5.58249
20
-3.85944
11
5.57473
21
-3.85709
0
LINE
8
BLACK
6
CONTINUOUS
10
5.57473
20
-3.85709
11
5.56758
21
-3.85327
0
LINE
8
BLACK
6
CONTINUOUS
10
5.56758
20
-3.85327
11
5.56132
21
-3.84813
0
LINE
8
BLACK
6
CONTINUOUS
10
5.56132
20
-3.84813
11
5.55618
21
-3.84186
0
LINE
8
BLACK
6
CONTINUOUS
10
5.55618
20
-3.84186
11
5.55236
21
-3.83472
0
LINE
8
BLACK
6
CONTINUOUS
10
5.55236
20
-3.83472
11
5.55001
21
-3.82696
0
LINE
8
BLACK
6
CONTINUOUS
10
5.55001
20
-3.82696
11
5.54921
21
-3.8189
0
LINE
8
BLACK
6
CONTINUOUS
10
5.54921
20
-3.8189
11
5.55001
21
-3.81083
0
LINE
8
BLACK
6
CONTINUOUS
10
5.55001
20
-3.81083
11
5.55236
21
-3.80308
0
LINE
8
BLACK
6
CONTINUOUS
10
5.55236
20
-3.80308
11
5.55618
21
-3.79593
0
LINE
8
BLACK
6
CONTINUOUS
10
5.55618
20
-3.79593
11
5.56132
21
-3.78967
0
LINE
8
BLACK
6
CONTINUOUS
10
5.56132
20
-3.78967
11
5.56758
21
-3.78453
0
LINE
8
BLACK
6
CONTINUOUS
10
5.56758
20
-3.78453
11
5.57473
21
-3.78071
0
LINE
8
BLACK
6
CONTINUOUS
10
5.57473
20
-3.78071
11
5.58249
21
-3.77835
0
LINE
8
BLACK
6
CONTINUOUS
10
5.58249
20
-3.77835
11
5.59055
21
-3.77756
0
LINE
8
BLACK
6
CONTINUOUS
10
5.59055
20
-3.77756
11
5.59862
21
-3.77835
0
LINE
8
BLACK
6
CONTINUOUS
10
5.55369
20
-3.82623
11
5.55583
21
-3.83328
0
LINE
8
BLACK
6
CONTINUOUS
10
5.55583
20
-3.83328
11
5.5593
21
-3.83978
0
LINE
8
BLACK
6
CONTINUOUS
10
5.5593
20
-3.83978
11
5.56398
21
-3.84547
0
LINE
8
BLACK
6
CONTINUOUS
10
5.56398
20
-3.84547
11
5.56967
21
-3.85015
0
LINE
8
BLACK
6
CONTINUOUS
10
5.56967
20
-3.85015
11
5.57617
21
-3.85362
0
LINE
8
BLACK
6
CONTINUOUS
10
5.57617
20
-3.85362
11
5.58322
21
-3.85576
0
LINE
8
BLACK
6
CONTINUOUS
10
5.58322
20
-3.85576
11
5.59055
21
-3.85648
0
LINE
8
BLACK
6
CONTINUOUS
10
5.59055
20
-3.85648
11
5.59788
21
-3.85576
0
LINE
8
BLACK
6
CONTINUOUS
10
5.59788
20
-3.85576
11
5.60493
21
-3.85362
0
LINE
8
BLACK
6
CONTINUOUS
10
5.60493
20
-3.85362
11
5.61143
21
-3.85015
0
LINE
8
BLACK
6
CONTINUOUS
10
5.61143
20
-3.85015
11
5.61713
21
-3.84547
0
LINE
8
BLACK
6
CONTINUOUS
10
5.61713
20
-3.84547
11
5.6218
21
-3.83978
0
LINE
8
BLACK
6
CONTINUOUS
10
5.6218
20
-3.83978
11
5.62527
21
-3.83328
0
LINE
8
BLACK
6
CONTINUOUS
10
5.62527
20
-3.83328
11
5.62741
21
-3.82623
0
LINE
8
BLACK
6
CONTINUOUS
10
5.62741
20
-3.82623
11
5.62813
21
-3.8189
0
LINE
8
BLACK
6
CONTINUOUS
10
5.62813
20
-3.8189
11
5.62741
21
-3.81157
0
LINE
8
BLACK
6
CONTINUOUS
10
5.62741
20
-3.81157
11
5.62527
21
-3.80452
0
LINE
8
BLACK
6
CONTINUOUS
10
5.62527
20
-3.80452
11
5.6218
21
-3.79802
0
LINE
8
BLACK
6
CONTINUOUS
10
5.6218
20
-3.79802
11
5.61713
21
-3.79232
0
LINE
8
BLACK
6
CONTINUOUS
10
5.61713
20
-3.79232
11
5.61143
21
-3.78765
0
LINE
8
BLACK
6
CONTINUOUS
10
5.61143
20
-3.78765
11
5.60493
21
-3.78418
0
LINE
8
BLACK
6
CONTINUOUS
10
5.60493
20
-3.78418
11
5.59788
21
-3.78204
0
LINE
8
BLACK
6
CONTINUOUS
10
5.59788
20
-3.78204
11
5.59055
21
-3.78132
0
LINE
8
BLACK
6
CONTINUOUS
10
5.59055
20
-3.78132
11
5.58322
21
-3.78204
0
LINE
8
BLACK
6
CONTINUOUS
10
5.58322
20
-3.78204
11
5.57617
21
-3.78418
0
LINE
8
BLACK
6
CONTINUOUS
10
5.57617
20
-3.78418
11
5.56967
21
-3.78765
0
LINE
8
BLACK
6
CONTINUOUS
10
5.56967
20
-3.78765
11
5.56398
21
-3.79232
0
LINE
8
BLACK
6
CONTINUOUS
10
5.56398
20
-3.79232
11
5.5593
21
-3.79802
0
LINE
8
BLACK
6
CONTINUOUS
10
5.5593
20
-3.79802
11
5.55583
21
-3.80452
0
LINE
8
BLACK
6
CONTINUOUS
10
5.55583
20
-3.80452
11
5.55369
21
-3.81157
0
LINE
8
BLACK
6
CONTINUOUS
10
5.55369
20
-3.81157
11
5.55297
21
-3.8189
0
LINE
8
BLACK
6
CONTINUOUS
10
5.55297
20
-3.8189
11
5.55369
21
-3.82623
0
LINE
8
BLACK
6
CONTINUOUS
10
5.59008
20
-3.72519
11
5.59077
21
-3.72709
0
LINE
8
BLACK
6
CONTINUOUS
10
5.59077
20
-3.72709
11
5.59077
21
-3.74771
0
LINE
8
BLACK
6
CONTINUOUS
10
5.59077
20
-3.74771
11
5.59059
21
-3.74872
0
LINE
8
BLACK
6
CONTINUOUS
10
5.59059
20
-3.74872
11
5.59048
21
-3.74886
0
LINE
8
BLACK
6
CONTINUOUS
10
5.59048
20
-3.74886
11
5.59045
21
-3.74904
0
LINE
8
BLACK
6
CONTINUOUS
10
5.59045
20
-3.74904
11
5.58858
21
-3.75279
0
LINE
8
BLACK
6
CONTINUOUS
10
5.58858
20
-3.75279
11
5.58797
21
-3.75361
0
LINE
8
BLACK
6
CONTINUOUS
10
5.58797
20
-3.75361
11
5.58756
21
-3.75378
0
LINE
8
BLACK
6
CONTINUOUS
10
5.58756
20
-3.75378
11
5.58726
21
-3.75411
0
LINE
8
BLACK
6
CONTINUOUS
10
5.58726
20
-3.75411
11
5.58351
21
-3.75598
0
LINE
8
BLACK
6
CONTINUOUS
10
5.58351
20
-3.75598
11
5.58253
21
-3.75627
0
LINE
8
BLACK
6
CONTINUOUS
10
5.58253
20
-3.75627
11
5.58236
21
-3.75623
0
LINE
8
BLACK
6
CONTINUOUS
10
5.58236
20
-3.75623
11
5.58219
21
-3.75629
0
LINE
8
BLACK
6
CONTINUOUS
10
5.58219
20
-3.75629
11
5.57657
21
-3.75629
0
LINE
8
BLACK
6
CONTINUOUS
10
5.57657
20
-3.75629
11
5.57556
21
-3.75611
0
LINE
8
BLACK
6
CONTINUOUS
10
5.57556
20
-3.75611
11
5.57542
21
-3.756
0
LINE
8
BLACK
6
CONTINUOUS
10
5.57542
20
-3.756
11
5.57524
21
-3.75598
0
LINE
8
BLACK
6
CONTINUOUS
10
5.57524
20
-3.75598
11
5.5732
21
-3.75496
0
LINE
8
BLACK
6
CONTINUOUS
10
5.5732
20
-3.75496
11
5.57242
21
-3.7559
0
LINE
8
BLACK
6
CONTINUOUS
10
5.57242
20
-3.7559
11
5.57043
21
-3.75625
0
LINE
8
BLACK
6
CONTINUOUS
10
5.57043
20
-3.75625
11
5.56868
21
-3.75524
0
LINE
8
BLACK
6
CONTINUOUS
10
5.56868
20
-3.75524
11
5.56799
21
-3.75334
0
LINE
8
BLACK
6
CONTINUOUS
10
5.56799
20
-3.75334
11
5.56799
21
-3.72709
0
LINE
8
BLACK
6
CONTINUOUS
10
5.56799
20
-3.72709
11
5.56817
21
-3.72608
0
LINE
8
BLACK
6
CONTINUOUS
10
5.56817
20
-3.72608
11
5.56946
21
-3.72454
0
LINE
8
BLACK
6
CONTINUOUS
10
5.56946
20
-3.72454
11
5.57145
21
-3.72418
0
LINE
8
BLACK
6
CONTINUOUS
10
5.57145
20
-3.72418
11
5.5732
21
-3.72519
0
LINE
8
BLACK
6
CONTINUOUS
10
5.5732
20
-3.72519
11
5.57389
21
-3.72709
0
LINE
8
BLACK
6
CONTINUOUS
10
5.57389
20
-3.72709
11
5.57389
21
-3.74837
0
LINE
8
BLACK
6
CONTINUOUS
10
5.57389
20
-3.74837
11
5.57456
21
-3.74904
0
LINE
8
BLACK
6
CONTINUOUS
10
5.57456
20
-3.74904
11
5.57726
21
-3.75039
0
LINE
8
BLACK
6
CONTINUOUS
10
5.57726
20
-3.75039
11
5.58149
21
-3.75039
0
LINE
8
BLACK
6
CONTINUOUS
10
5.58149
20
-3.75039
11
5.58374
21
-3.74926
0
LINE
8
BLACK
6
CONTINUOUS
10
5.58374
20
-3.74926
11
5.58486
21
-3.74702
0
LINE
8
BLACK
6
CONTINUOUS
10
5.58486
20
-3.74702
11
5.58486
21
-3.72709
0
LINE
8
BLACK
6
CONTINUOUS
10
5.58486
20
-3.72709
11
5.58504
21
-3.72608
0
LINE
8
BLACK
6
CONTINUOUS
10
5.58504
20
-3.72608
11
5.58634
21
-3.72454
0
LINE
8
BLACK
6
CONTINUOUS
10
5.58634
20
-3.72454
11
5.58833
21
-3.72418
0
LINE
8
BLACK
6
CONTINUOUS
10
5.58833
20
-3.72418
11
5.59008
21
-3.72519
0
LINE
8
BLACK
6
CONTINUOUS
10
5.61882
20
-3.71119
11
5.61896
21
-3.71131
0
LINE
8
BLACK
6
CONTINUOUS
10
5.61896
20
-3.71131
11
5.61913
21
-3.71133
0
LINE
8
BLACK
6
CONTINUOUS
10
5.61913
20
-3.71133
11
5.62288
21
-3.7132
0
LINE
8
BLACK
6
CONTINUOUS
10
5.62288
20
-3.7132
11
5.62359
21
-3.71373
0
LINE
8
BLACK
6
CONTINUOUS
10
5.62359
20
-3.71373
11
5.62365
21
-3.71376
0
LINE
8
BLACK
6
CONTINUOUS
10
5.62365
20
-3.71376
11
5.62552
21
-3.71563
0
LINE
8
BLACK
6
CONTINUOUS
10
5.62552
20
-3.71563
11
5.62603
21
-3.71635
0
LINE
8
BLACK
6
CONTINUOUS
10
5.62603
20
-3.71635
11
5.62608
21
-3.7164
0
LINE
8
BLACK
6
CONTINUOUS
10
5.62608
20
-3.7164
11
5.62795
21
-3.72015
0
LINE
8
BLACK
6
CONTINUOUS
10
5.62795
20
-3.72015
11
5.6281
21
-3.72064
0
LINE
8
BLACK
6
CONTINUOUS
10
5.6281
20
-3.72064
11
5.62817
21
-3.72075
0
LINE
8
BLACK
6
CONTINUOUS
10
5.62817
20
-3.72075
11
5.63005
21
-3.72825
0
LINE
8
BLACK
6
CONTINUOUS
10
5.63005
20
-3.72825
11
5.63009
21
-3.72884
0
LINE
8
BLACK
6
CONTINUOUS
10
5.63009
20
-3.72884
11
5.63014
21
-3.72897
0
LINE
8
BLACK
6
CONTINUOUS
10
5.63014
20
-3.72897
11
5.63014
21
-3.73834
0
LINE
8
BLACK
6
CONTINUOUS
10
5.63014
20
-3.73834
11
5.63003
21
-3.73892
0
LINE
8
BLACK
6
CONTINUOUS
10
5.63003
20
-3.73892
11
5.63005
21
-3.73906
0
LINE
8
BLACK
6
CONTINUOUS
10
5.63005
20
-3.73906
11
5.62817
21
-3.74656
0
LINE
8
BLACK
6
CONTINUOUS
10
5.62817
20
-3.74656
11
5.62797
21
-3.74702
0
LINE
8
BLACK
6
CONTINUOUS
10
5.62797
20
-3.74702
11
5.62795
21
-3.74716
0
LINE
8
BLACK
6
CONTINUOUS
10
5.62795
20
-3.74716
11
5.62608
21
-3.75091
0
LINE
8
BLACK
6
CONTINUOUS
10
5.62608
20
-3.75091
11
5.62555
21
-3.75162
0
LINE
8
BLACK
6
CONTINUOUS
10
5.62555
20
-3.75162
11
5.62552
21
-3.75168
0
LINE
8
BLACK
6
CONTINUOUS
10
5.62552
20
-3.75168
11
5.62365
21
-3.75355
0
LINE
8
BLACK
6
CONTINUOUS
10
5.62365
20
-3.75355
11
5.62292
21
-3.75406
0
LINE
8
BLACK
6
CONTINUOUS
10
5.62292
20
-3.75406
11
5.62288
21
-3.75411
0
LINE
8
BLACK
6
CONTINUOUS
10
5.62288
20
-3.75411
11
5.61913
21
-3.75598
0
LINE
8
BLACK
6
CONTINUOUS
10
5.61913
20
-3.75598
11
5.61815
21
-3.75627
0
LINE
8
BLACK
6
CONTINUOUS
10
5.61815
20
-3.75627
11
5.61798
21
-3.75623
0
LINE
8
BLACK
6
CONTINUOUS
10
5.61798
20
-3.75623
11
5.61781
21
-3.75629
0
LINE
8
BLACK
6
CONTINUOUS
10
5.61781
20
-3.75629
11
5.61406
21
-3.75629
0
LINE
8
BLACK
6
CONTINUOUS
10
5.61406
20
-3.75629
11
5.61305
21
-3.75611
0
LINE
8
BLACK
6
CONTINUOUS
10
5.61305
20
-3.75611
11
5.61292
21
-3.756
0
LINE
8
BLACK
6
CONTINUOUS
10
5.61292
20
-3.756
11
5.61274
21
-3.75598
0
LINE
8
BLACK
6
CONTINUOUS
10
5.61274
20
-3.75598
11
5.60899
21
-3.75411
0
LINE
8
BLACK
6
CONTINUOUS
10
5.60899
20
-3.75411
11
5.60828
21
-3.75358
0
LINE
8
BLACK
6
CONTINUOUS
10
5.60828
20
-3.75358
11
5.60822
21
-3.75355
0
LINE
8
BLACK
6
CONTINUOUS
10
5.60822
20
-3.75355
11
5.60635
21
-3.75168
0
LINE
8
BLACK
6
CONTINUOUS
10
5.60635
20
-3.75168
11
5.60584
21
-3.75095
0
LINE
8
BLACK
6
CONTINUOUS
10
5.60584
20
-3.75095
11
5.6058
21
-3.75091
0
LINE
8
BLACK
6
CONTINUOUS
10
5.6058
20
-3.75091
11
5.60392
21
-3.74716
0
LINE
8
BLACK
6
CONTINUOUS
10
5.60392
20
-3.74716
11
5.60378
21
-3.74667
0
LINE
8
BLACK
6
CONTINUOUS
10
5.60378
20
-3.74667
11
5.6037
21
-3.74656
0
LINE
8
BLACK
6
CONTINUOUS
10
5.6037
20
-3.74656
11
5.60182
21
-3.73906
0
LINE
8
BLACK
6
CONTINUOUS
10
5.60182
20
-3.73906
11
5.60178
21
-3.73847
0
LINE
8
BLACK
6
CONTINUOUS
10
5.60178
20
-3.73847
11
5.60173
21
-3.73834
0
LINE
8
BLACK
6
CONTINUOUS
10
5.60173
20
-3.73834
11
5.60173
21
-3.72897
0
LINE
8
BLACK
6
CONTINUOUS
10
5.60173
20
-3.72897
11
5.60184
21
-3.72839
0
LINE
8
BLACK
6
CONTINUOUS
10
5.60184
20
-3.72839
11
5.60182
21
-3.72825
0
LINE
8
BLACK
6
CONTINUOUS
10
5.60182
20
-3.72825
11
5.6037
21
-3.72075
0
LINE
8
BLACK
6
CONTINUOUS
10
5.6037
20
-3.72075
11
5.6039
21
-3.72029
0
LINE
8
BLACK
6
CONTINUOUS
10
5.6039
20
-3.72029
11
5.60392
21
-3.72015
0
LINE
8
BLACK
6
CONTINUOUS
10
5.60392
20
-3.72015
11
5.6058
21
-3.7164
0
LINE
8
BLACK
6
CONTINUOUS
10
5.6058
20
-3.7164
11
5.60632
21
-3.71569
0
LINE
8
BLACK
6
CONTINUOUS
10
5.60632
20
-3.71569
11
5.60635
21
-3.71563
0
LINE
8
BLACK
6
CONTINUOUS
10
5.60635
20
-3.71563
11
5.60822
21
-3.71376
0
LINE
8
BLACK
6
CONTINUOUS
10
5.60822
20
-3.71376
11
5.60895
21
-3.71325
0
LINE
8
BLACK
6
CONTINUOUS
10
5.60895
20
-3.71325
11
5.60899
21
-3.7132
0
LINE
8
BLACK
6
CONTINUOUS
10
5.60899
20
-3.7132
11
5.61274
21
-3.71133
0
LINE
8
BLACK
6
CONTINUOUS
10
5.61274
20
-3.71133
11
5.61372
21
-3.71104
0
LINE
8
BLACK
6
CONTINUOUS
10
5.61372
20
-3.71104
11
5.61389
21
-3.71108
0
LINE
8
BLACK
6
CONTINUOUS
10
5.61389
20
-3.71108
11
5.61406
21
-3.71102
0
LINE
8
BLACK
6
CONTINUOUS
10
5.61406
20
-3.71102
11
5.61781
21
-3.71102
0
LINE
8
BLACK
6
CONTINUOUS
10
5.61781
20
-3.71102
11
5.61882
21
-3.71119
0
LINE
8
BLACK
6
CONTINUOUS
10
5.61206
20
-3.71827
11
5.61086
21
-3.71947
0
LINE
8
BLACK
6
CONTINUOUS
10
5.61086
20
-3.71947
11
5.60935
21
-3.7225
0
LINE
8
BLACK
6
CONTINUOUS
10
5.60935
20
-3.7225
11
5.60764
21
-3.72933
0
LINE
8
BLACK
6
CONTINUOUS
10
5.60764
20
-3.72933
11
5.60764
21
-3.73798
0
LINE
8
BLACK
6
CONTINUOUS
10
5.60764
20
-3.73798
11
5.60935
21
-3.74481
0
LINE
8
BLACK
6
CONTINUOUS
10
5.60935
20
-3.74481
11
5.61086
21
-3.74784
0
LINE
8
BLACK
6
CONTINUOUS
10
5.61086
20
-3.74784
11
5.61206
21
-3.74904
0
LINE
8
BLACK
6
CONTINUOUS
10
5.61206
20
-3.74904
11
5.61476
21
-3.75039
0
LINE
8
BLACK
6
CONTINUOUS
10
5.61476
20
-3.75039
11
5.61711
21
-3.75039
0
LINE
8
BLACK
6
CONTINUOUS
10
5.61711
20
-3.75039
11
5.61981
21
-3.74904
0
LINE
8
BLACK
6
CONTINUOUS
10
5.61981
20
-3.74904
11
5.62101
21
-3.74784
0
LINE
8
BLACK
6
CONTINUOUS
10
5.62101
20
-3.74784
11
5.62252
21
-3.74481
0
LINE
8
BLACK
6
CONTINUOUS
10
5.62252
20
-3.74481
11
5.62423
21
-3.73798
0
LINE
8
BLACK
6
CONTINUOUS
10
5.62423
20
-3.73798
11
5.62423
21
-3.72933
0
LINE
8
BLACK
6
CONTINUOUS
10
5.62423
20
-3.72933
11
5.62252
21
-3.7225
0
LINE
8
BLACK
6
CONTINUOUS
10
5.62252
20
-3.7225
11
5.62101
21
-3.71947
0
LINE
8
BLACK
6
CONTINUOUS
10
5.62101
20
-3.71947
11
5.61981
21
-3.71827
0
LINE
8
BLACK
6
CONTINUOUS
10
5.61981
20
-3.71827
11
5.61711
21
-3.71692
0
LINE
8
BLACK
6
CONTINUOUS
10
5.61711
20
-3.71692
11
5.61476
21
-3.71692
0
LINE
8
BLACK
6
CONTINUOUS
10
5.61476
20
-3.71692
11
5.61206
21
-3.71827
0
LINE
8
BLACK
6
CONTINUOUS
10
5.65409
20
-3.71115
11
5.65426
21
-3.71114
0
LINE
8
BLACK
6
CONTINUOUS
10
5.65426
20
-3.71114
11
5.65495
21
-3.71164
0
LINE
8
BLACK
6
CONTINUOUS
10
5.65495
20
-3.71164
11
5.65569
21
-3.71207
0
LINE
8
BLACK
6
CONTINUOUS
10
5.65569
20
-3.71207
11
5.65575
21
-3.71223
0
LINE
8
BLACK
6
CONTINUOUS
10
5.65575
20
-3.71223
11
5.65589
21
-3.71233
0
LINE
8
BLACK
6
CONTINUOUS
10
5.65589
20
-3.71233
11
5.65947
21
-3.71771
0
LINE
8
BLACK
6
CONTINUOUS
10
5.65947
20
-3.71771
11
5.66268
21
-3.72092
0
LINE
8
BLACK
6
CONTINUOUS
10
5.66268
20
-3.72092
11
5.666
21
-3.72258
0
LINE
8
BLACK
6
CONTINUOUS
10
5.666
20
-3.72258
11
5.66682
21
-3.72319
0
LINE
8
BLACK
6
CONTINUOUS
10
5.66682
20
-3.72319
11
5.66763
21
-3.72504
0
LINE
8
BLACK
6
CONTINUOUS
10
5.66763
20
-3.72504
11
5.66705
21
-3.72698
0
LINE
8
BLACK
6
CONTINUOUS
10
5.66705
20
-3.72698
11
5.66537
21
-3.72809
0
LINE
8
BLACK
6
CONTINUOUS
10
5.66537
20
-3.72809
11
5.66336
21
-3.72786
0
LINE
8
BLACK
6
CONTINUOUS
10
5.66336
20
-3.72786
11
5.65961
21
-3.72598
0
LINE
8
BLACK
6
CONTINUOUS
10
5.65961
20
-3.72598
11
5.6589
21
-3.72546
0
LINE
8
BLACK
6
CONTINUOUS
10
5.6589
20
-3.72546
11
5.65884
21
-3.72543
0
LINE
8
BLACK
6
CONTINUOUS
10
5.65884
20
-3.72543
11
5.65638
21
-3.72297
0
LINE
8
BLACK
6
CONTINUOUS
10
5.65638
20
-3.72297
11
5.65638
21
-3.75039
0
LINE
8
BLACK
6
CONTINUOUS
10
5.65638
20
-3.75039
11
5.66468
21
-3.75039
0
LINE
8
BLACK
6
CONTINUOUS
10
5.66468
20
-3.75039
11
5.66569
21
-3.75056
0
LINE
8
BLACK
6
CONTINUOUS
10
5.66569
20
-3.75056
11
5.66724
21
-3.75186
0
LINE
8
BLACK
6
CONTINUOUS
10
5.66724
20
-3.75186
11
5.66759
21
-3.75385
0
LINE
8
BLACK
6
CONTINUOUS
10
5.66759
20
-3.75385
11
5.66658
21
-3.7556
0
LINE
8
BLACK
6
CONTINUOUS
10
5.66658
20
-3.7556
11
5.66468
21
-3.75629
0
LINE
8
BLACK
6
CONTINUOUS
10
5.66468
20
-3.75629
11
5.64218
21
-3.75629
0
LINE
8
BLACK
6
CONTINUOUS
10
5.64218
20
-3.75629
11
5.64117
21
-3.75611
0
LINE
8
BLACK
6
CONTINUOUS
10
5.64117
20
-3.75611
11
5.63963
21
-3.75482
0
LINE
8
BLACK
6
CONTINUOUS
10
5.63963
20
-3.75482
11
5.63927
21
-3.75283
0
LINE
8
BLACK
6
CONTINUOUS
10
5.63927
20
-3.75283
11
5.64028
21
-3.75108
0
LINE
8
BLACK
6
CONTINUOUS
10
5.64028
20
-3.75108
11
5.64218
21
-3.75039
0
LINE
8
BLACK
6
CONTINUOUS
10
5.64218
20
-3.75039
11
5.65048
21
-3.75039
0
LINE
8
BLACK
6
CONTINUOUS
10
5.65048
20
-3.75039
11
5.65048
21
-3.71397
0
LINE
8
BLACK
6
CONTINUOUS
10
5.65048
20
-3.71397
11
5.65066
21
-3.71296
0
LINE
8
BLACK
6
CONTINUOUS
10
5.65066
20
-3.71296
11
5.65077
21
-3.71283
0
LINE
8
BLACK
6
CONTINUOUS
10
5.65077
20
-3.71283
11
5.65078
21
-3.71266
0
LINE
8
BLACK
6
CONTINUOUS
10
5.65078
20
-3.71266
11
5.6514
21
-3.71207
0
LINE
8
BLACK
6
CONTINUOUS
10
5.6514
20
-3.71207
11
5.65195
21
-3.71141
0
LINE
8
BLACK
6
CONTINUOUS
10
5.65195
20
-3.71141
11
5.65212
21
-3.71138
0
LINE
8
BLACK
6
CONTINUOUS
10
5.65212
20
-3.71138
11
5.65224
21
-3.71127
0
LINE
8
BLACK
6
CONTINUOUS
10
5.65224
20
-3.71127
11
5.6531
21
-3.71121
0
LINE
8
BLACK
6
CONTINUOUS
10
5.6531
20
-3.71121
11
5.65394
21
-3.71106
0
LINE
8
BLACK
6
CONTINUOUS
10
5.65394
20
-3.71106
11
5.65409
21
-3.71115
0
LINE
8
BLACK
6
CONTINUOUS
10
5.55258
20
-3.71108
11
5.55271
21
-3.71106
0
LINE
8
BLACK
6
CONTINUOUS
10
5.55271
20
-3.71106
11
5.55282
21
-3.71113
0
LINE
8
BLACK
6
CONTINUOUS
10
5.55282
20
-3.71113
11
5.5532
21
-3.71119
0
LINE
8
BLACK
6
CONTINUOUS
10
5.5532
20
-3.71119
11
5.55379
21
-3.71169
0
LINE
8
BLACK
6
CONTINUOUS
10
5.55379
20
-3.71169
11
5.55446
21
-3.71207
0
LINE
8
BLACK
6
CONTINUOUS
10
5.55446
20
-3.71207
11
5.55455
21
-3.71232
0
LINE
8
BLACK
6
CONTINUOUS
10
5.55455
20
-3.71232
11
5.55475
21
-3.71249
0
LINE
8
BLACK
6
CONTINUOUS
10
5.55475
20
-3.71249
11
5.55488
21
-3.71325
0
LINE
8
BLACK
6
CONTINUOUS
10
5.55488
20
-3.71325
11
5.55515
21
-3.71397
0
LINE
8
BLACK
6
CONTINUOUS
10
5.55515
20
-3.71397
11
5.55515
21
-3.75334
0
LINE
8
BLACK
6
CONTINUOUS
10
5.55515
20
-3.75334
11
5.55497
21
-3.75435
0
LINE
8
BLACK
6
CONTINUOUS
10
5.55497
20
-3.75435
11
5.55367
21
-3.7559
0
LINE
8
BLACK
6
CONTINUOUS
10
5.55367
20
-3.7559
11
5.55168
21
-3.75625
0
LINE
8
BLACK
6
CONTINUOUS
10
5.55168
20
-3.75625
11
5.54993
21
-3.75524
0
LINE
8
BLACK
6
CONTINUOUS
10
5.54993
20
-3.75524
11
5.54924
21
-3.75334
0
LINE
8
BLACK
6
CONTINUOUS
10
5.54924
20
-3.75334
11
5.54924
21
-3.73567
0
LINE
8
BLACK
6
CONTINUOUS
10
5.54924
20
-3.73567
11
5.53907
21
-3.73567
0
LINE
8
BLACK
6
CONTINUOUS
10
5.53907
20
-3.73567
11
5.53806
21
-3.73549
0
LINE
8
BLACK
6
CONTINUOUS
10
5.53806
20
-3.73549
11
5.53651
21
-3.73419
0
LINE
8
BLACK
6
CONTINUOUS
10
5.53651
20
-3.73419
11
5.53616
21
-3.7322
0
LINE
8
BLACK
6
CONTINUOUS
10
5.53616
20
-3.7322
11
5.53717
21
-3.73045
0
LINE
8
BLACK
6
CONTINUOUS
10
5.53717
20
-3.73045
11
5.53907
21
-3.72976
0
LINE
8
BLACK
6
CONTINUOUS
10
5.53907
20
-3.72976
11
5.54924
21
-3.72976
0
LINE
8
BLACK
6
CONTINUOUS
10
5.54924
20
-3.72976
11
5.54924
21
-3.71692
0
LINE
8
BLACK
6
CONTINUOUS
10
5.54924
20
-3.71692
11
5.53345
21
-3.71692
0
LINE
8
BLACK
6
CONTINUOUS
10
5.53345
20
-3.71692
11
5.53244
21
-3.71674
0
LINE
8
BLACK
6
CONTINUOUS
10
5.53244
20
-3.71674
11
5.53089
21
-3.71545
0
LINE
8
BLACK
6
CONTINUOUS
10
5.53089
20
-3.71545
11
5.53054
21
-3.71346
0
LINE
8
BLACK
6
CONTINUOUS
10
5.53054
20
-3.71346
11
5.53155
21
-3.71171
0
LINE
8
BLACK
6
CONTINUOUS
10
5.53155
20
-3.71171
11
5.53345
21
-3.71102
0
LINE
8
BLACK
6
CONTINUOUS
10
5.53345
20
-3.71102
11
5.55219
21
-3.71102
0
LINE
8
BLACK
6
CONTINUOUS
10
5.55219
20
-3.71102
11
5.55258
21
-3.71108
0
LINE
8
BLACK
6
CONTINUOUS
10
5.58017
20
-3.6219
11
5.5803
21
-3.62202
0
LINE
8
BLACK
6
CONTINUOUS
10
5.5803
20
-3.62202
11
5.58048
21
-3.62204
0
LINE
8
BLACK
6
CONTINUOUS
10
5.58048
20
-3.62204
11
5.58423
21
-3.62391
0
LINE
8
BLACK
6
CONTINUOUS
10
5.58423
20
-3.62391
11
5.58494
21
-3.62444
0
LINE
8
BLACK
6
CONTINUOUS
10
5.58494
20
-3.62444
11
5.58499
21
-3.62446
0
LINE
8
BLACK
6
CONTINUOUS
10
5.58499
20
-3.62446
11
5.58687
21
-3.62634
0
LINE
8
BLACK
6
CONTINUOUS
10
5.58687
20
-3.62634
11
5.58737
21
-3.62706
0
LINE
8
BLACK
6
CONTINUOUS
10
5.58737
20
-3.62706
11
5.58742
21
-3.62711
0
LINE
8
BLACK
6
CONTINUOUS
10
5.58742
20
-3.62711
11
5.5893
21
-3.63086
0
LINE
8
BLACK
6
CONTINUOUS
10
5.5893
20
-3.63086
11
5.58944
21
-3.63134
0
LINE
8
BLACK
6
CONTINUOUS
10
5.58944
20
-3.63134
11
5.58952
21
-3.63146
0
LINE
8
BLACK
6
CONTINUOUS
10
5.58952
20
-3.63146
11
5.59139
21
-3.63896
0
LINE
8
BLACK
6
CONTINUOUS
10
5.59139
20
-3.63896
11
5.59144
21
-3.63955
0
LINE
8
BLACK
6
CONTINUOUS
10
5.59144
20
-3.63955
11
5.59148
21
-3.63968
0
LINE
8
BLACK
6
CONTINUOUS
10
5.59148
20
-3.63968
11
5.59148
21
-3.64272
0
LINE
8
BLACK
6
CONTINUOUS
10
5.59148
20
-3.64272
11
5.61182
21
-3.64272
0
LINE
8
BLACK
6
CONTINUOUS
10
5.61182
20
-3.64272
11
5.61182
21
-3.62468
0
LINE
8
BLACK
6
CONTINUOUS
10
5.61182
20
-3.62468
11
5.612
21
-3.62367
0
LINE
8
BLACK
6
CONTINUOUS
10
5.612
20
-3.62367
11
5.61211
21
-3.62354
0
LINE
8
BLACK
6
CONTINUOUS
10
5.61211
20
-3.62354
11
5.61213
21
-3.62337
0
LINE
8
BLACK
6
CONTINUOUS
10
5.61213
20
-3.62337
11
5.61275
21
-3.62278
0
LINE
8
BLACK
6
CONTINUOUS
10
5.61275
20
-3.62278
11
5.6133
21
-3.62212
0
LINE
8
BLACK
6
CONTINUOUS
10
5.6133
20
-3.62212
11
5.61347
21
-3.62209
0
LINE
8
BLACK
6
CONTINUOUS
10
5.61347
20
-3.62209
11
5.61359
21
-3.62197
0
LINE
8
BLACK
6
CONTINUOUS
10
5.61359
20
-3.62197
11
5.61445
21
-3.62192
0
LINE
8
BLACK
6
CONTINUOUS
10
5.61445
20
-3.62192
11
5.61529
21
-3.62177
0
LINE
8
BLACK
6
CONTINUOUS
10
5.61529
20
-3.62177
11
5.61544
21
-3.62185
0
LINE
8
BLACK
6
CONTINUOUS
10
5.61544
20
-3.62185
11
5.61561
21
-3.62184
0
LINE
8
BLACK
6
CONTINUOUS
10
5.61561
20
-3.62184
11
5.6163
21
-3.62235
0
LINE
8
BLACK
6
CONTINUOUS
10
5.6163
20
-3.62235
11
5.61704
21
-3.62278
0
LINE
8
BLACK
6
CONTINUOUS
10
5.61704
20
-3.62278
11
5.6171
21
-3.62294
0
LINE
8
BLACK
6
CONTINUOUS
10
5.6171
20
-3.62294
11
5.61723
21
-3.62304
0
LINE
8
BLACK
6
CONTINUOUS
10
5.61723
20
-3.62304
11
5.62082
21
-3.62842
0
LINE
8
BLACK
6
CONTINUOUS
10
5.62082
20
-3.62842
11
5.62403
21
-3.63163
0
LINE
8
BLACK
6
CONTINUOUS
10
5.62403
20
-3.63163
11
5.62735
21
-3.63329
0
LINE
8
BLACK
6
CONTINUOUS
10
5.62735
20
-3.63329
11
5.62817
21
-3.6339
0
LINE
8
BLACK
6
CONTINUOUS
10
5.62817
20
-3.6339
11
5.62897
21
-3.63575
0
LINE
8
BLACK
6
CONTINUOUS
10
5.62897
20
-3.63575
11
5.6284
21
-3.63769
0
LINE
8
BLACK
6
CONTINUOUS
10
5.6284
20
-3.63769
11
5.62671
21
-3.6388
0
LINE
8
BLACK
6
CONTINUOUS
10
5.62671
20
-3.6388
11
5.6247
21
-3.63857
0
LINE
8
BLACK
6
CONTINUOUS
10
5.6247
20
-3.63857
11
5.62096
21
-3.63669
0
LINE
8
BLACK
6
CONTINUOUS
10
5.62096
20
-3.63669
11
5.62025
21
-3.63617
0
LINE
8
BLACK
6
CONTINUOUS
10
5.62025
20
-3.63617
11
5.62019
21
-3.63614
0
LINE
8
BLACK
6
CONTINUOUS
10
5.62019
20
-3.63614
11
5.61773
21
-3.63368
0
LINE
8
BLACK
6
CONTINUOUS
10
5.61773
20
-3.63368
11
5.61773
21
-3.64272
0
LINE
8
BLACK
6
CONTINUOUS
10
5.61773
20
-3.64272
11
5.63937
21
-3.64272
0
LINE
8
BLACK
6
CONTINUOUS
10
5.63937
20
-3.64272
11
5.64076
21
-3.64329
0
LINE
8
BLACK
6
CONTINUOUS
10
5.64076
20
-3.64329
11
5.64134
21
-3.64469
0
LINE
8
BLACK
6
CONTINUOUS
10
5.64134
20
-3.64469
11
5.64134
21
-3.6939
0
LINE
8
BLACK
6
CONTINUOUS
10
5.64134
20
-3.6939
11
5.64076
21
-3.69529
0
LINE
8
BLACK
6
CONTINUOUS
10
5.64076
20
-3.69529
11
5.63937
21
-3.69587
0
LINE
8
BLACK
6
CONTINUOUS
10
5.63937
20
-3.69587
11
5.56063
21
-3.69587
0
LINE
8
BLACK
6
CONTINUOUS
10
5.56063
20
-3.69587
11
5.55924
21
-3.69529
0
LINE
8
BLACK
6
CONTINUOUS
10
5.55924
20
-3.69529
11
5.55866
21
-3.6939
0
LINE
8
BLACK
6
CONTINUOUS
10
5.55866
20
-3.6939
11
5.55866
21
-3.64469
0
LINE
8
BLACK
6
CONTINUOUS
10
5.55866
20
-3.64469
11
5.55924
21
-3.64329
0
LINE
8
BLACK
6
CONTINUOUS
10
5.55924
20
-3.64329
11
5.56063
21
-3.64272
0
LINE
8
BLACK
6
CONTINUOUS
10
5.56063
20
-3.64272
11
5.56308
21
-3.64272
0
LINE
8
BLACK
6
CONTINUOUS
10
5.56308
20
-3.64272
11
5.56308
21
-3.63968
0
LINE
8
BLACK
6
CONTINUOUS
10
5.56308
20
-3.63968
11
5.56318
21
-3.6391
0
LINE
8
BLACK
6
CONTINUOUS
10
5.56318
20
-3.6391
11
5.56317
21
-3.63896
0
LINE
8
BLACK
6
CONTINUOUS
10
5.56317
20
-3.63896
11
5.56504
21
-3.63146
0
LINE
8
BLACK
6
CONTINUOUS
10
5.56504
20
-3.63146
11
5.56525
21
-3.631
0
LINE
8
BLACK
6
CONTINUOUS
10
5.56525
20
-3.631
11
5.56527
21
-3.63086
0
LINE
8
BLACK
6
CONTINUOUS
10
5.56527
20
-3.63086
11
5.56714
21
-3.62711
0
LINE
8
BLACK
6
CONTINUOUS
10
5.56714
20
-3.62711
11
5.56767
21
-3.6264
0
LINE
8
BLACK
6
CONTINUOUS
10
5.56767
20
-3.6264
11
5.56769
21
-3.62634
0
LINE
8
BLACK
6
CONTINUOUS
10
5.56769
20
-3.62634
11
5.56957
21
-3.62446
0
LINE
8
BLACK
6
CONTINUOUS
10
5.56957
20
-3.62446
11
5.57029
21
-3.62396
0
LINE
8
BLACK
6
CONTINUOUS
10
5.57029
20
-3.62396
11
5.57034
21
-3.62391
0
LINE
8
BLACK
6
CONTINUOUS
10
5.57034
20
-3.62391
11
5.57409
21
-3.62204
0
LINE
8
BLACK
6
CONTINUOUS
10
5.57409
20
-3.62204
11
5.57507
21
-3.62174
0
LINE
8
BLACK
6
CONTINUOUS
10
5.57507
20
-3.62174
11
5.57524
21
-3.62179
0
LINE
8
BLACK
6
CONTINUOUS
10
5.57524
20
-3.62179
11
5.57541
21
-3.62173
0
LINE
8
BLACK
6
CONTINUOUS
10
5.57541
20
-3.62173
11
5.57916
21
-3.62173
0
LINE
8
BLACK
6
CONTINUOUS
10
5.57916
20
-3.62173
11
5.58017
21
-3.6219
0
LINE
8
BLACK
6
CONTINUOUS
10
5.61773
20
-3.64665
11
5.61773
21
-3.6611
0
LINE
8
BLACK
6
CONTINUOUS
10
5.61773
20
-3.6611
11
5.62603
21
-3.6611
0
LINE
8
BLACK
6
CONTINUOUS
10
5.62603
20
-3.6611
11
5.62704
21
-3.66127
0
LINE
8
BLACK
6
CONTINUOUS
10
5.62704
20
-3.66127
11
5.62858
21
-3.66257
0
LINE
8
BLACK
6
CONTINUOUS
10
5.62858
20
-3.66257
11
5.62893
21
-3.66456
0
LINE
8
BLACK
6
CONTINUOUS
10
5.62893
20
-3.66456
11
5.62792
21
-3.66631
0
LINE
8
BLACK
6
CONTINUOUS
10
5.62792
20
-3.66631
11
5.62603
21
-3.667
0
LINE
8
BLACK
6
CONTINUOUS
10
5.62603
20
-3.667
11
5.61704
21
-3.667
0
LINE
8
BLACK
6
CONTINUOUS
10
5.61704
20
-3.667
11
5.61704
21
-3.6698
0
LINE
8
BLACK
6
CONTINUOUS
10
5.61704
20
-3.6698
11
5.61697
21
-3.66998
0
LINE
8
BLACK
6
CONTINUOUS
10
5.61697
20
-3.66998
11
5.61699
21
-3.67018
0
LINE
8
BLACK
6
CONTINUOUS
10
5.61699
20
-3.67018
11
5.61606
21
-3.67393
0
LINE
8
BLACK
6
CONTINUOUS
10
5.61606
20
-3.67393
11
5.61595
21
-3.67407
0
LINE
8
BLACK
6
CONTINUOUS
10
5.61595
20
-3.67407
11
5.61594
21
-3.67425
0
LINE
8
BLACK
6
CONTINUOUS
10
5.61594
20
-3.67425
11
5.615
21
-3.67613
0
LINE
8
BLACK
6
CONTINUOUS
10
5.615
20
-3.67613
11
5.6148
21
-3.6763
0
LINE
8
BLACK
6
CONTINUOUS
10
5.6148
20
-3.6763
11
5.61471
21
-3.67654
0
LINE
8
BLACK
6
CONTINUOUS
10
5.61471
20
-3.67654
11
5.61283
21
-3.67841
0
LINE
8
BLACK
6
CONTINUOUS
10
5.61283
20
-3.67841
11
5.61249
21
-3.67855
0
LINE
8
BLACK
6
CONTINUOUS
10
5.61249
20
-3.67855
11
5.61222
21
-3.67879
0
LINE
8
BLACK
6
CONTINUOUS
10
5.61222
20
-3.67879
11
5.6094
21
-3.67973
0
LINE
8
BLACK
6
CONTINUOUS
10
5.6094
20
-3.67973
11
5.60914
21
-3.67971
0
LINE
8
BLACK
6
CONTINUOUS
10
5.60914
20
-3.67971
11
5.60891
21
-3.67981
0
LINE
8
BLACK
6
CONTINUOUS
10
5.60891
20
-3.67981
11
5.60703
21
-3.67981
0
LINE
8
BLACK
6
CONTINUOUS
10
5.60703
20
-3.67981
11
5.60679
21
-3.67971
0
LINE
8
BLACK
6
CONTINUOUS
10
5.60679
20
-3.67971
11
5.60653
21
-3.67973
0
LINE
8
BLACK
6
CONTINUOUS
10
5.60653
20
-3.67973
11
5.60372
21
-3.67879
0
LINE
8
BLACK
6
CONTINUOUS
10
5.60372
20
-3.67879
11
5.60344
21
-3.67855
0
LINE
8
BLACK
6
CONTINUOUS
10
5.60344
20
-3.67855
11
5.6031
21
-3.67841
0
LINE
8
BLACK
6
CONTINUOUS
10
5.6031
20
-3.67841
11
5.60217
21
-3.67747
0
LINE
8
BLACK
6
CONTINUOUS
10
5.60217
20
-3.67747
11
5.60171
21
-3.67636
0
LINE
8
BLACK
6
CONTINUOUS
10
5.60171
20
-3.67636
11
5.60217
21
-3.67525
0
LINE
8
BLACK
6
CONTINUOUS
10
5.60217
20
-3.67525
11
5.60328
21
-3.67478
0
LINE
8
BLACK
6
CONTINUOUS
10
5.60328
20
-3.67478
11
5.60439
21
-3.67525
0
LINE
8
BLACK
6
CONTINUOUS
10
5.60439
20
-3.67525
11
5.60507
21
-3.67592
0
LINE
8
BLACK
6
CONTINUOUS
10
5.60507
20
-3.67592
11
5.60729
21
-3.67666
0
LINE
8
BLACK
6
CONTINUOUS
10
5.60729
20
-3.67666
11
5.60865
21
-3.67666
0
LINE
8
BLACK
6
CONTINUOUS
10
5.60865
20
-3.67666
11
5.61087
21
-3.67592
0
LINE
8
BLACK
6
CONTINUOUS
10
5.61087
20
-3.67592
11
5.6123
21
-3.67449
0
LINE
8
BLACK
6
CONTINUOUS
10
5.6123
20
-3.67449
11
5.61304
21
-3.673
0
LINE
8
BLACK
6
CONTINUOUS
10
5.61304
20
-3.673
11
5.61389
21
-3.6696
0
LINE
8
BLACK
6
CONTINUOUS
10
5.61389
20
-3.6696
11
5.61389
21
-3.66718
0
LINE
8
BLACK
6
CONTINUOUS
10
5.61389
20
-3.66718
11
5.61385
21
-3.667
0
LINE
8
BLACK
6
CONTINUOUS
10
5.61385
20
-3.667
11
5.60353
21
-3.667
0
LINE
8
BLACK
6
CONTINUOUS
10
5.60353
20
-3.667
11
5.60252
21
-3.66682
0
LINE
8
BLACK
6
CONTINUOUS
10
5.60252
20
-3.66682
11
5.60097
21
-3.66552
0
LINE
8
BLACK
6
CONTINUOUS
10
5.60097
20
-3.66552
11
5.60062
21
-3.66354
0
LINE
8
BLACK
6
CONTINUOUS
10
5.60062
20
-3.66354
11
5.60163
21
-3.66179
0
LINE
8
BLACK
6
CONTINUOUS
10
5.60163
20
-3.66179
11
5.60224
21
-3.66157
0
LINE
8
BLACK
6
CONTINUOUS
10
5.60224
20
-3.66157
11
5.60217
21
-3.66154
0
LINE
8
BLACK
6
CONTINUOUS
10
5.60217
20
-3.66154
11
5.60171
21
-3.66042
0
LINE
8
BLACK
6
CONTINUOUS
10
5.60171
20
-3.66042
11
5.60217
21
-3.65931
0
LINE
8
BLACK
6
CONTINUOUS
10
5.60217
20
-3.65931
11
5.6031
21
-3.65837
0
LINE
8
BLACK
6
CONTINUOUS
10
5.6031
20
-3.65837
11
5.60344
21
-3.65823
0
LINE
8
BLACK
6
CONTINUOUS
10
5.60344
20
-3.65823
11
5.60372
21
-3.65799
0
LINE
8
BLACK
6
CONTINUOUS
10
5.60372
20
-3.65799
11
5.60653
21
-3.65706
0
LINE
8
BLACK
6
CONTINUOUS
10
5.60653
20
-3.65706
11
5.60679
21
-3.65707
0
LINE
8
BLACK
6
CONTINUOUS
10
5.60679
20
-3.65707
11
5.60703
21
-3.65697
0
LINE
8
BLACK
6
CONTINUOUS
10
5.60703
20
-3.65697
11
5.60891
21
-3.65697
0
LINE
8
BLACK
6
CONTINUOUS
10
5.60891
20
-3.65697
11
5.60914
21
-3.65707
0
LINE
8
BLACK
6
CONTINUOUS
10
5.60914
20
-3.65707
11
5.6094
21
-3.65706
0
LINE
8
BLACK
6
CONTINUOUS
10
5.6094
20
-3.65706
11
5.61182
21
-3.65786
0
LINE
8
BLACK
6
CONTINUOUS
10
5.61182
20
-3.65786
11
5.61182
21
-3.64665
0
LINE
8
BLACK
6
CONTINUOUS
10
5.61182
20
-3.64665
11
5.59148
21
-3.64665
0
LINE
8
BLACK
6
CONTINUOUS
10
5.59148
20
-3.64665
11
5.59148
21
-3.64905
0
LINE
8
BLACK
6
CONTINUOUS
10
5.59148
20
-3.64905
11
5.59138
21
-3.64963
0
LINE
8
BLACK
6
CONTINUOUS
10
5.59138
20
-3.64963
11
5.59139
21
-3.64977
0
LINE
8
BLACK
6
CONTINUOUS
10
5.59139
20
-3.64977
11
5.58954
21
-3.65719
0
LINE
8
BLACK
6
CONTINUOUS
10
5.58954
20
-3.65719
11
5.58973
21
-3.65715
0
LINE
8
BLACK
6
CONTINUOUS
10
5.58973
20
-3.65715
11
5.59016
21
-3.65697
0
LINE
8
BLACK
6
CONTINUOUS
10
5.59016
20
-3.65697
11
5.59031
21
-3.65704
0
LINE
8
BLACK
6
CONTINUOUS
10
5.59031
20
-3.65704
11
5.59047
21
-3.657
0
LINE
8
BLACK
6
CONTINUOUS
10
5.59047
20
-3.657
11
5.59085
21
-3.65726
0
LINE
8
BLACK
6
CONTINUOUS
10
5.59085
20
-3.65726
11
5.59127
21
-3.65744
0
LINE
8
BLACK
6
CONTINUOUS
10
5.59127
20
-3.65744
11
5.59133
21
-3.65759
0
LINE
8
BLACK
6
CONTINUOUS
10
5.59133
20
-3.65759
11
5.59147
21
-3.65768
0
LINE
8
BLACK
6
CONTINUOUS
10
5.59147
20
-3.65768
11
5.59326
21
-3.66036
0
LINE
8
BLACK
6
CONTINUOUS
10
5.59326
20
-3.66036
11
5.59484
21
-3.66194
0
LINE
8
BLACK
6
CONTINUOUS
10
5.59484
20
-3.66194
11
5.59649
21
-3.66276
0
LINE
8
BLACK
6
CONTINUOUS
10
5.59649
20
-3.66276
11
5.59728
21
-3.66368
0
LINE
8
BLACK
6
CONTINUOUS
10
5.59728
20
-3.66368
11
5.59719
21
-3.66488
0
LINE
8
BLACK
6
CONTINUOUS
10
5.59719
20
-3.66488
11
5.59628
21
-3.66567
0
LINE
8
BLACK
6
CONTINUOUS
10
5.59628
20
-3.66567
11
5.59508
21
-3.66558
0
LINE
8
BLACK
6
CONTINUOUS
10
5.59508
20
-3.66558
11
5.5932
21
-3.66464
0
LINE
8
BLACK
6
CONTINUOUS
10
5.5932
20
-3.66464
11
5.59303
21
-3.66445
0
LINE
8
BLACK
6
CONTINUOUS
10
5.59303
20
-3.66445
11
5.59279
21
-3.66435
0
LINE
8
BLACK
6
CONTINUOUS
10
5.59279
20
-3.66435
11
5.59173
21
-3.66329
0
LINE
8
BLACK
6
CONTINUOUS
10
5.59173
20
-3.66329
11
5.59173
21
-3.67666
0
LINE
8
BLACK
6
CONTINUOUS
10
5.59173
20
-3.67666
11
5.59578
21
-3.67666
0
LINE
8
BLACK
6
CONTINUOUS
10
5.59578
20
-3.67666
11
5.5969
21
-3.67712
0
LINE
8
BLACK
6
CONTINUOUS
10
5.5969
20
-3.67712
11
5.59736
21
-3.67823
0
LINE
8
BLACK
6
CONTINUOUS
10
5.59736
20
-3.67823
11
5.5969
21
-3.67935
0
LINE
8
BLACK
6
CONTINUOUS
10
5.5969
20
-3.67935
11
5.59578
21
-3.67981
0
LINE
8
BLACK
6
CONTINUOUS
10
5.59578
20
-3.67981
11
5.59016
21
-3.67981
0
LINE
8
BLACK
6
CONTINUOUS
10
5.59016
20
-3.67981
11
5.58453
21
-3.67981
0
LINE
8
BLACK
6
CONTINUOUS
10
5.58453
20
-3.67981
11
5.58342
21
-3.67935
0
LINE
8
BLACK
6
CONTINUOUS
10
5.58342
20
-3.67935
11
5.58296
21
-3.67823
0
LINE
8
BLACK
6
CONTINUOUS
10
5.58296
20
-3.67823
11
5.58342
21
-3.67712
0
LINE
8
BLACK
6
CONTINUOUS
10
5.58342
20
-3.67712
11
5.58453
21
-3.67666
0
LINE
8
BLACK
6
CONTINUOUS
10
5.58453
20
-3.67666
11
5.58858
21
-3.67666
0
LINE
8
BLACK
6
CONTINUOUS
10
5.58858
20
-3.67666
11
5.58858
21
-3.6593
0
LINE
8
BLACK
6
CONTINUOUS
10
5.58858
20
-3.6593
11
5.58742
21
-3.66162
0
LINE
8
BLACK
6
CONTINUOUS
10
5.58742
20
-3.66162
11
5.5869
21
-3.66233
0
LINE
8
BLACK
6
CONTINUOUS
10
5.5869
20
-3.66233
11
5.58687
21
-3.66239
0
LINE
8
BLACK
6
CONTINUOUS
10
5.58687
20
-3.66239
11
5.58499
21
-3.66426
0
LINE
8
BLACK
6
CONTINUOUS
10
5.58499
20
-3.66426
11
5.58427
21
-3.66477
0
LINE
8
BLACK
6
CONTINUOUS
10
5.58427
20
-3.66477
11
5.58423
21
-3.66481
0
LINE
8
BLACK
6
CONTINUOUS
10
5.58423
20
-3.66481
11
5.58048
21
-3.66669
0
LINE
8
BLACK
6
CONTINUOUS
10
5.58048
20
-3.66669
11
5.57949
21
-3.66698
0
LINE
8
BLACK
6
CONTINUOUS
10
5.57949
20
-3.66698
11
5.57932
21
-3.66694
0
LINE
8
BLACK
6
CONTINUOUS
10
5.57932
20
-3.66694
11
5.57916
21
-3.667
0
LINE
8
BLACK
6
CONTINUOUS
10
5.57916
20
-3.667
11
5.57541
21
-3.667
0
LINE
8
BLACK
6
CONTINUOUS
10
5.57541
20
-3.667
11
5.5744
21
-3.66682
0
LINE
8
BLACK
6
CONTINUOUS
10
5.5744
20
-3.66682
11
5.57426
21
-3.66671
0
LINE
8
BLACK
6
CONTINUOUS
10
5.57426
20
-3.66671
11
5.57409
21
-3.66669
0
LINE
8
BLACK
6
CONTINUOUS
10
5.57409
20
-3.66669
11
5.57034
21
-3.66481
0
LINE
8
BLACK
6
CONTINUOUS
10
5.57034
20
-3.66481
11
5.56963
21
-3.66429
0
LINE
8
BLACK
6
CONTINUOUS
10
5.56963
20
-3.66429
11
5.56957
21
-3.66426
0
LINE
8
BLACK
6
CONTINUOUS
10
5.56957
20
-3.66426
11
5.56769
21
-3.66239
0
LINE
8
BLACK
6
CONTINUOUS
10
5.56769
20
-3.66239
11
5.56719
21
-3.66166
0
LINE
8
BLACK
6
CONTINUOUS
10
5.56719
20
-3.66166
11
5.56714
21
-3.66162
0
LINE
8
BLACK
6
CONTINUOUS
10
5.56714
20
-3.66162
11
5.56527
21
-3.65787
0
LINE
8
BLACK
6
CONTINUOUS
10
5.56527
20
-3.65787
11
5.56512
21
-3.65738
0
LINE
8
BLACK
6
CONTINUOUS
10
5.56512
20
-3.65738
11
5.56504
21
-3.65727
0
LINE
8
BLACK
6
CONTINUOUS
10
5.56504
20
-3.65727
11
5.56317
21
-3.64977
0
LINE
8
BLACK
6
CONTINUOUS
10
5.56317
20
-3.64977
11
5.56313
21
-3.64918
0
LINE
8
BLACK
6
CONTINUOUS
10
5.56313
20
-3.64918
11
5.56308
21
-3.64905
0
LINE
8
BLACK
6
CONTINUOUS
10
5.56308
20
-3.64905
11
5.56308
21
-3.64665
0
LINE
8
BLACK
6
CONTINUOUS
10
5.56308
20
-3.64665
11
5.5626
21
-3.64665
0
LINE
8
BLACK
6
CONTINUOUS
10
5.5626
20
-3.64665
11
5.5626
21
-3.69193
0
LINE
8
BLACK
6
CONTINUOUS
10
5.5626
20
-3.69193
11
5.6374
21
-3.69193
0
LINE
8
BLACK
6
CONTINUOUS
10
5.6374
20
-3.69193
11
5.6374
21
-3.64665
0
LINE
8
BLACK
6
CONTINUOUS
10
5.6374
20
-3.64665
11
5.61773
21
-3.64665
0
LINE
8
BLACK
6
CONTINUOUS
10
5.60507
20
-3.66086
11
5.60484
21
-3.6611
0
LINE
8
BLACK
6
CONTINUOUS
10
5.60484
20
-3.6611
11
5.6111
21
-3.6611
0
LINE
8
BLACK
6
CONTINUOUS
10
5.6111
20
-3.6611
11
5.61087
21
-3.66086
0
LINE
8
BLACK
6
CONTINUOUS
10
5.61087
20
-3.66086
11
5.60865
21
-3.66012
0
LINE
8
BLACK
6
CONTINUOUS
10
5.60865
20
-3.66012
11
5.60729
21
-3.66012
0
LINE
8
BLACK
6
CONTINUOUS
10
5.60729
20
-3.66012
11
5.60507
21
-3.66086
0
LINE
8
BLACK
6
CONTINUOUS
10
5.56899
20
-3.64665
11
5.56899
21
-3.64869
0
LINE
8
BLACK
6
CONTINUOUS
10
5.56899
20
-3.64869
11
5.57069
21
-3.65552
0
LINE
8
BLACK
6
CONTINUOUS
10
5.57069
20
-3.65552
11
5.57221
21
-3.65855
0
LINE
8
BLACK
6
CONTINUOUS
10
5.57221
20
-3.65855
11
5.57341
21
-3.65975
0
LINE
8
BLACK
6
CONTINUOUS
10
5.57341
20
-3.65975
11
5.5761
21
-3.6611
0
LINE
8
BLACK
6
CONTINUOUS
10
5.5761
20
-3.6611
11
5.57846
21
-3.6611
0
LINE
8
BLACK
6
CONTINUOUS
10
5.57846
20
-3.6611
11
5.58116
21
-3.65975
0
LINE
8
BLACK
6
CONTINUOUS
10
5.58116
20
-3.65975
11
5.58235
21
-3.65855
0
LINE
8
BLACK
6
CONTINUOUS
10
5.58235
20
-3.65855
11
5.58387
21
-3.65552
0
LINE
8
BLACK
6
CONTINUOUS
10
5.58387
20
-3.65552
11
5.58558
21
-3.64869
0
LINE
8
BLACK
6
CONTINUOUS
10
5.58558
20
-3.64869
11
5.58558
21
-3.64665
0
LINE
8
BLACK
6
CONTINUOUS
10
5.58558
20
-3.64665
11
5.56899
21
-3.64665
0
LINE
8
BLACK
6
CONTINUOUS
10
5.57341
20
-3.62898
11
5.57221
21
-3.63018
0
LINE
8
BLACK
6
CONTINUOUS
10
5.57221
20
-3.63018
11
5.57069
21
-3.63321
0
LINE
8
BLACK
6
CONTINUOUS
10
5.57069
20
-3.63321
11
5.56899
21
-3.64004
0
LINE
8
BLACK
6
CONTINUOUS
10
5.56899
20
-3.64004
11
5.56899
21
-3.64272
0
LINE
8
BLACK
6
CONTINUOUS
10
5.56899
20
-3.64272
11
5.58558
21
-3.64272
0
LINE
8
BLACK
6
CONTINUOUS
10
5.58558
20
-3.64272
11
5.58558
21
-3.64004
0
LINE
8
BLACK
6
CONTINUOUS
10
5.58558
20
-3.64004
11
5.58387
21
-3.63321
0
LINE
8
BLACK
6
CONTINUOUS
10
5.58387
20
-3.63321
11
5.58235
21
-3.63018
0
LINE
8
BLACK
6
CONTINUOUS
10
5.58235
20
-3.63018
11
5.58116
21
-3.62898
0
LINE
8
BLACK
6
CONTINUOUS
10
5.58116
20
-3.62898
11
5.57846
21
-3.62763
0
LINE
8
BLACK
6
CONTINUOUS
10
5.57846
20
-3.62763
11
5.5761
21
-3.62763
0
LINE
8
BLACK
6
CONTINUOUS
10
5.5761
20
-3.62763
11
5.57341
21
-3.62898
0
LINE
8
BLACK
6
CONTINUOUS
10
5.54267
20
-3.6219
11
5.54281
21
-3.62202
0
LINE
8
BLACK
6
CONTINUOUS
10
5.54281
20
-3.62202
11
5.54298
21
-3.62204
0
LINE
8
BLACK
6
CONTINUOUS
10
5.54298
20
-3.62204
11
5.54673
21
-3.62391
0
LINE
8
BLACK
6
CONTINUOUS
10
5.54673
20
-3.62391
11
5.54744
21
-3.62444
0
LINE
8
BLACK
6
CONTINUOUS
10
5.54744
20
-3.62444
11
5.5475
21
-3.62446
0
LINE
8
BLACK
6
CONTINUOUS
10
5.5475
20
-3.62446
11
5.54937
21
-3.62634
0
LINE
8
BLACK
6
CONTINUOUS
10
5.54937
20
-3.62634
11
5.54988
21
-3.62706
0
LINE
8
BLACK
6
CONTINUOUS
10
5.54988
20
-3.62706
11
5.54993
21
-3.62711
0
LINE
8
BLACK
6
CONTINUOUS
10
5.54993
20
-3.62711
11
5.5518
21
-3.63086
0
LINE
8
BLACK
6
CONTINUOUS
10
5.5518
20
-3.63086
11
5.55195
21
-3.63134
0
LINE
8
BLACK
6
CONTINUOUS
10
5.55195
20
-3.63134
11
5.55202
21
-3.63146
0
LINE
8
BLACK
6
CONTINUOUS
10
5.55202
20
-3.63146
11
5.5539
21
-3.63896
0
LINE
8
BLACK
6
CONTINUOUS
10
5.5539
20
-3.63896
11
5.55394
21
-3.63955
0
LINE
8
BLACK
6
CONTINUOUS
10
5.55394
20
-3.63955
11
5.55399
21
-3.63968
0
LINE
8
BLACK
6
CONTINUOUS
10
5.55399
20
-3.63968
11
5.55399
21
-3.64905
0
LINE
8
BLACK
6
CONTINUOUS
10
5.55399
20
-3.64905
11
5.55389
21
-3.64963
0
LINE
8
BLACK
6
CONTINUOUS
10
5.55389
20
-3.64963
11
5.5539
21
-3.64977
0
LINE
8
BLACK
6
CONTINUOUS
10
5.5539
20
-3.64977
11
5.55202
21
-3.65727
0
LINE
8
BLACK
6
CONTINUOUS
10
5.55202
20
-3.65727
11
5.55182
21
-3.65773
0
LINE
8
BLACK
6
CONTINUOUS
10
5.55182
20
-3.65773
11
5.5518
21
-3.65787
0
LINE
8
BLACK
6
CONTINUOUS
10
5.5518
20
-3.65787
11
5.54993
21
-3.66162
0
LINE
8
BLACK
6
CONTINUOUS
10
5.54993
20
-3.66162
11
5.5494
21
-3.66233
0
LINE
8
BLACK
6
CONTINUOUS
10
5.5494
20
-3.66233
11
5.54937
21
-3.66239
0
LINE
8
BLACK
6
CONTINUOUS
10
5.54937
20
-3.66239
11
5.5475
21
-3.66426
0
LINE
8
BLACK
6
CONTINUOUS
10
5.5475
20
-3.66426
11
5.54678
21
-3.66477
0
LINE
8
BLACK
6
CONTINUOUS
10
5.54678
20
-3.66477
11
5.54673
21
-3.66481
0
LINE
8
BLACK
6
CONTINUOUS
10
5.54673
20
-3.66481
11
5.54298
21
-3.66669
0
LINE
8
BLACK
6
CONTINUOUS
10
5.54298
20
-3.66669
11
5.542
21
-3.66698
0
LINE
8
BLACK
6
CONTINUOUS
10
5.542
20
-3.66698
11
5.54183
21
-3.66694
0
LINE
8
BLACK
6
CONTINUOUS
10
5.54183
20
-3.66694
11
5.54166
21
-3.667
0
LINE
8
BLACK
6
CONTINUOUS
10
5.54166
20
-3.667
11
5.53791
21
-3.667
0
LINE
8
BLACK
6
CONTINUOUS
10
5.53791
20
-3.667
11
5.5369
21
-3.66682
0
LINE
8
BLACK
6
CONTINUOUS
10
5.5369
20
-3.66682
11
5.53677
21
-3.66671
0
LINE
8
BLACK
6
CONTINUOUS
10
5.53677
20
-3.66671
11
5.53659
21
-3.66669
0
LINE
8
BLACK
6
CONTINUOUS
10
5.53659
20
-3.66669
11
5.53284
21
-3.66481
0
LINE
8
BLACK
6
CONTINUOUS
10
5.53284
20
-3.66481
11
5.53213
21
-3.66429
0
LINE
8
BLACK
6
CONTINUOUS
10
5.53213
20
-3.66429
11
5.53207
21
-3.66426
0
LINE
8
BLACK
6
CONTINUOUS
10
5.53207
20
-3.66426
11
5.5302
21
-3.66239
0
LINE
8
BLACK
6
CONTINUOUS
10
5.5302
20
-3.66239
11
5.52969
21
-3.66166
0
LINE
8
BLACK
6
CONTINUOUS
10
5.52969
20
-3.66166
11
5.52965
21
-3.66162
0
LINE
8
BLACK
6
CONTINUOUS
10
5.52965
20
-3.66162
11
5.52777
21
-3.65787
0
LINE
8
BLACK
6
CONTINUOUS
10
5.52777
20
-3.65787
11
5.52763
21
-3.65738
0
LINE
8
BLACK
6
CONTINUOUS
10
5.52763
20
-3.65738
11
5.52755
21
-3.65727
0
LINE
8
BLACK
6
CONTINUOUS
10
5.52755
20
-3.65727
11
5.52567
21
-3.64977
0
LINE
8
BLACK
6
CONTINUOUS
10
5.52567
20
-3.64977
11
5.52563
21
-3.64918
0
LINE
8
BLACK
6
CONTINUOUS
10
5.52563
20
-3.64918
11
5.52558
21
-3.64905
0
LINE
8
BLACK
6
CONTINUOUS
10
5.52558
20
-3.64905
11
5.52558
21
-3.63968
0
LINE
8
BLACK
6
CONTINUOUS
10
5.52558
20
-3.63968
11
5.52569
21
-3.6391
0
LINE
8
BLACK
6
CONTINUOUS
10
5.52569
20
-3.6391
11
5.52567
21
-3.63896
0
LINE
8
BLACK
6
CONTINUOUS
10
5.52567
20
-3.63896
11
5.52755
21
-3.63146
0
LINE
8
BLACK
6
CONTINUOUS
10
5.52755
20
-3.63146
11
5.52776
21
-3.631
0
LINE
8
BLACK
6
CONTINUOUS
10
5.52776
20
-3.631
11
5.52777
21
-3.63086
0
LINE
8
BLACK
6
CONTINUOUS
10
5.52777
20
-3.63086
11
5.52965
21
-3.62711
0
LINE
8
BLACK
6
CONTINUOUS
10
5.52965
20
-3.62711
11
5.53017
21
-3.6264
0
LINE
8
BLACK
6
CONTINUOUS
10
5.53017
20
-3.6264
11
5.5302
21
-3.62634
0
LINE
8
BLACK
6
CONTINUOUS
10
5.5302
20
-3.62634
11
5.53207
21
-3.62446
0
LINE
8
BLACK
6
CONTINUOUS
10
5.53207
20
-3.62446
11
5.5328
21
-3.62396
0
LINE
8
BLACK
6
CONTINUOUS
10
5.5328
20
-3.62396
11
5.53284
21
-3.62391
0
LINE
8
BLACK
6
CONTINUOUS
10
5.53284
20
-3.62391
11
5.53659
21
-3.62204
0
LINE
8
BLACK
6
CONTINUOUS
10
5.53659
20
-3.62204
11
5.53757
21
-3.62174
0
LINE
8
BLACK
6
CONTINUOUS
10
5.53757
20
-3.62174
11
5.53775
21
-3.62179
0
LINE
8
BLACK
6
CONTINUOUS
10
5.53775
20
-3.62179
11
5.53791
21
-3.62173
0
LINE
8
BLACK
6
CONTINUOUS
10
5.53791
20
-3.62173
11
5.54166
21
-3.62173
0
LINE
8
BLACK
6
CONTINUOUS
10
5.54166
20
-3.62173
11
5.54267
21
-3.6219
0
LINE
8
BLACK
6
CONTINUOUS
10
5.53591
20
-3.62898
11
5.53471
21
-3.63018
0
LINE
8
BLACK
6
CONTINUOUS
10
5.53471
20
-3.63018
11
5.5332
21
-3.63321
0
LINE
8
BLACK
6
CONTINUOUS
10
5.5332
20
-3.63321
11
5.53149
21
-3.64004
0
LINE
8
BLACK
6
CONTINUOUS
10
5.53149
20
-3.64004
11
5.53149
21
-3.64869
0
LINE
8
BLACK
6
CONTINUOUS
10
5.53149
20
-3.64869
11
5.5332
21
-3.65552
0
LINE
8
BLACK
6
CONTINUOUS
10
5.5332
20
-3.65552
11
5.53471
21
-3.65855
0
LINE
8
BLACK
6
CONTINUOUS
10
5.53471
20
-3.65855
11
5.53591
21
-3.65975
0
LINE
8
BLACK
6
CONTINUOUS
10
5.53591
20
-3.65975
11
5.53861
21
-3.6611
0
LINE
8
BLACK
6
CONTINUOUS
10
5.53861
20
-3.6611
11
5.54096
21
-3.6611
0
LINE
8
BLACK
6
CONTINUOUS
10
5.54096
20
-3.6611
11
5.54366
21
-3.65975
0
LINE
8
BLACK
6
CONTINUOUS
10
5.54366
20
-3.65975
11
5.54486
21
-3.65855
0
LINE
8
BLACK
6
CONTINUOUS
10
5.54486
20
-3.65855
11
5.54637
21
-3.65552
0
LINE
8
BLACK
6
CONTINUOUS
10
5.54637
20
-3.65552
11
5.54808
21
-3.64869
0
LINE
8
BLACK
6
CONTINUOUS
10
5.54808
20
-3.64869
11
5.54808
21
-3.64004
0
LINE
8
BLACK
6
CONTINUOUS
10
5.54808
20
-3.64004
11
5.54637
21
-3.63321
0
LINE
8
BLACK
6
CONTINUOUS
10
5.54637
20
-3.63321
11
5.54486
21
-3.63018
0
LINE
8
BLACK
6
CONTINUOUS
10
5.54486
20
-3.63018
11
5.54366
21
-3.62898
0
LINE
8
BLACK
6
CONTINUOUS
10
5.54366
20
-3.62898
11
5.54096
21
-3.62763
0
LINE
8
BLACK
6
CONTINUOUS
10
5.54096
20
-3.62763
11
5.53861
21
-3.62763
0
LINE
8
BLACK
6
CONTINUOUS
10
5.53861
20
-3.62763
11
5.53591
21
-3.62898
0
LINE
8
BLACK
6
CONTINUOUS
10
5.47643
20
-3.62179
11
5.47656
21
-3.62177
0
LINE
8
BLACK
6
CONTINUOUS
10
5.47656
20
-3.62177
11
5.47667
21
-3.62184
0
LINE
8
BLACK
6
CONTINUOUS
10
5.47667
20
-3.62184
11
5.47705
21
-3.6219
0
LINE
8
BLACK
6
CONTINUOUS
10
5.47705
20
-3.6219
11
5.47764
21
-3.6224
0
LINE
8
BLACK
6
CONTINUOUS
10
5.47764
20
-3.6224
11
5.47831
21
-3.62278
0
LINE
8
BLACK
6
CONTINUOUS
10
5.47831
20
-3.62278
11
5.4784
21
-3.62303
0
LINE
8
BLACK
6
CONTINUOUS
10
5.4784
20
-3.62303
11
5.4786
21
-3.6232
0
LINE
8
BLACK
6
CONTINUOUS
10
5.4786
20
-3.6232
11
5.47873
21
-3.62396
0
LINE
8
BLACK
6
CONTINUOUS
10
5.47873
20
-3.62396
11
5.479
21
-3.62468
0
LINE
8
BLACK
6
CONTINUOUS
10
5.479
20
-3.62468
11
5.479
21
-3.66405
0
LINE
8
BLACK
6
CONTINUOUS
10
5.479
20
-3.66405
11
5.47882
21
-3.66506
0
LINE
8
BLACK
6
CONTINUOUS
10
5.47882
20
-3.66506
11
5.47752
21
-3.66661
0
LINE
8
BLACK
6
CONTINUOUS
10
5.47752
20
-3.66661
11
5.47553
21
-3.66696
0
LINE
8
BLACK
6
CONTINUOUS
10
5.47553
20
-3.66696
11
5.47378
21
-3.66595
0
LINE
8
BLACK
6
CONTINUOUS
10
5.47378
20
-3.66595
11
5.47309
21
-3.66405
0
LINE
8
BLACK
6
CONTINUOUS
10
5.47309
20
-3.66405
11
5.47309
21
-3.64638
0
LINE
8
BLACK
6
CONTINUOUS
10
5.47309
20
-3.64638
11
5.46292
21
-3.64638
0
LINE
8
BLACK
6
CONTINUOUS
10
5.46292
20
-3.64638
11
5.46191
21
-3.6462
0
LINE
8
BLACK
6
CONTINUOUS
10
5.46191
20
-3.6462
11
5.46036
21
-3.6449
0
LINE
8
BLACK
6
CONTINUOUS
10
5.46036
20
-3.6449
11
5.46001
21
-3.64291
0
LINE
8
BLACK
6
CONTINUOUS
10
5.46001
20
-3.64291
11
5.46102
21
-3.64116
0
LINE
8
BLACK
6
CONTINUOUS
10
5.46102
20
-3.64116
11
5.46292
21
-3.64047
0
LINE
8
BLACK
6
CONTINUOUS
10
5.46292
20
-3.64047
11
5.47309
21
-3.64047
0
LINE
8
BLACK
6
CONTINUOUS
10
5.47309
20
-3.64047
11
5.47309
21
-3.62763
0
LINE
8
BLACK
6
CONTINUOUS
10
5.47309
20
-3.62763
11
5.4573
21
-3.62763
0
LINE
8
BLACK
6
CONTINUOUS
10
5.4573
20
-3.62763
11
5.45629
21
-3.62745
0
LINE
8
BLACK
6
CONTINUOUS
10
5.45629
20
-3.62745
11
5.45474
21
-3.62615
0
LINE
8
BLACK
6
CONTINUOUS
10
5.45474
20
-3.62615
11
5.45439
21
-3.62417
0
LINE
8
BLACK
6
CONTINUOUS
10
5.45439
20
-3.62417
11
5.4554
21
-3.62242
0
LINE
8
BLACK
6
CONTINUOUS
10
5.4554
20
-3.62242
11
5.4573
21
-3.62173
0
LINE
8
BLACK
6
CONTINUOUS
10
5.4573
20
-3.62173
11
5.47604
21
-3.62173
0
LINE
8
BLACK
6
CONTINUOUS
10
5.47604
20
-3.62173
11
5.47643
21
-3.62179
0
LINE
8
BLACK
6
CONTINUOUS
10
5.50705
20
-3.63503
11
5.50719
21
-3.63514
0
LINE
8
BLACK
6
CONTINUOUS
10
5.50719
20
-3.63514
11
5.50736
21
-3.63516
0
LINE
8
BLACK
6
CONTINUOUS
10
5.50736
20
-3.63516
11
5.5094
21
-3.63618
0
LINE
8
BLACK
6
CONTINUOUS
10
5.5094
20
-3.63618
11
5.51019
21
-3.63524
0
LINE
8
BLACK
6
CONTINUOUS
10
5.51019
20
-3.63524
11
5.51218
21
-3.63489
0
LINE
8
BLACK
6
CONTINUOUS
10
5.51218
20
-3.63489
11
5.51393
21
-3.6359
0
LINE
8
BLACK
6
CONTINUOUS
10
5.51393
20
-3.6359
11
5.51462
21
-3.6378
0
LINE
8
BLACK
6
CONTINUOUS
10
5.51462
20
-3.6378
11
5.51462
21
-3.66405
0
LINE
8
BLACK
6
CONTINUOUS
10
5.51462
20
-3.66405
11
5.51444
21
-3.66506
0
LINE
8
BLACK
6
CONTINUOUS
10
5.51444
20
-3.66506
11
5.51314
21
-3.66661
0
LINE
8
BLACK
6
CONTINUOUS
10
5.51314
20
-3.66661
11
5.51115
21
-3.66696
0
LINE
8
BLACK
6
CONTINUOUS
10
5.51115
20
-3.66696
11
5.5094
21
-3.66595
0
LINE
8
BLACK
6
CONTINUOUS
10
5.5094
20
-3.66595
11
5.50871
21
-3.66405
0
LINE
8
BLACK
6
CONTINUOUS
10
5.50871
20
-3.66405
11
5.50871
21
-3.64277
0
LINE
8
BLACK
6
CONTINUOUS
10
5.50871
20
-3.64277
11
5.50804
21
-3.6421
0
LINE
8
BLACK
6
CONTINUOUS
10
5.50804
20
-3.6421
11
5.50534
21
-3.64075
0
LINE
8
BLACK
6
CONTINUOUS
10
5.50534
20
-3.64075
11
5.50111
21
-3.64075
0
LINE
8
BLACK
6
CONTINUOUS
10
5.50111
20
-3.64075
11
5.49887
21
-3.64188
0
LINE
8
BLACK
6
CONTINUOUS
10
5.49887
20
-3.64188
11
5.49774
21
-3.64412
0
LINE
8
BLACK
6
CONTINUOUS
10
5.49774
20
-3.64412
11
5.49774
21
-3.66405
0
LINE
8
BLACK
6
CONTINUOUS
10
5.49774
20
-3.66405
11
5.49757
21
-3.66506
0
LINE
8
BLACK
6
CONTINUOUS
10
5.49757
20
-3.66506
11
5.49627
21
-3.66661
0
LINE
8
BLACK
6
CONTINUOUS
10
5.49627
20
-3.66661
11
5.49428
21
-3.66696
0
LINE
8
BLACK
6
CONTINUOUS
10
5.49428
20
-3.66696
11
5.49253
21
-3.66595
0
LINE
8
BLACK
6
CONTINUOUS
10
5.49253
20
-3.66595
11
5.49184
21
-3.66405
0
LINE
8
BLACK
6
CONTINUOUS
10
5.49184
20
-3.66405
11
5.49184
21
-3.64343
0
LINE
8
BLACK
6
CONTINUOUS
10
5.49184
20
-3.64343
11
5.49202
21
-3.64242
0
LINE
8
BLACK
6
CONTINUOUS
10
5.49202
20
-3.64242
11
5.49213
21
-3.64228
0
LINE
8
BLACK
6
CONTINUOUS
10
5.49213
20
-3.64228
11
5.49215
21
-3.64211
0
LINE
8
BLACK
6
CONTINUOUS
10
5.49215
20
-3.64211
11
5.49403
21
-3.63836
0
LINE
8
BLACK
6
CONTINUOUS
10
5.49403
20
-3.63836
11
5.49464
21
-3.63753
0
LINE
8
BLACK
6
CONTINUOUS
10
5.49464
20
-3.63753
11
5.49504
21
-3.63736
0
LINE
8
BLACK
6
CONTINUOUS
10
5.49504
20
-3.63736
11
5.49535
21
-3.63704
0
LINE
8
BLACK
6
CONTINUOUS
10
5.49535
20
-3.63704
11
5.4991
21
-3.63516
0
LINE
8
BLACK
6
CONTINUOUS
10
5.4991
20
-3.63516
11
5.50008
21
-3.63487
0
LINE
8
BLACK
6
CONTINUOUS
10
5.50008
20
-3.63487
11
5.50025
21
-3.63491
0
LINE
8
BLACK
6
CONTINUOUS
10
5.50025
20
-3.63491
11
5.50042
21
-3.63485
0
LINE
8
BLACK
6
CONTINUOUS
10
5.50042
20
-3.63485
11
5.50604
21
-3.63485
0
LINE
8
BLACK
6
CONTINUOUS
10
5.50604
20
-3.63485
11
5.50705
21
-3.63503
0
LINE
8
BLACK
6
CONTINUOUS
10
5.53591
20
-3.56782
11
5.53627
21
-3.56785
0
LINE
8
BLACK
6
CONTINUOUS
10
5.53627
20
-3.56785
11
5.53815
21
-3.56879
0
LINE
8
BLACK
6
CONTINUOUS
10
5.53815
20
-3.56879
11
5.53832
21
-3.56898
0
LINE
8
BLACK
6
CONTINUOUS
10
5.53832
20
-3.56898
11
5.53856
21
-3.56908
0
LINE
8
BLACK
6
CONTINUOUS
10
5.53856
20
-3.56908
11
5.53949
21
-3.57002
0
LINE
8
BLACK
6
CONTINUOUS
10
5.53949
20
-3.57002
11
5.53995
21
-3.57113
0
LINE
8
BLACK
6
CONTINUOUS
10
5.53995
20
-3.57113
11
5.53949
21
-3.57225
0
LINE
8
BLACK
6
CONTINUOUS
10
5.53949
20
-3.57225
11
5.53838
21
-3.57271
0
LINE
8
BLACK
6
CONTINUOUS
10
5.53838
20
-3.57271
11
5.53727
21
-3.57225
0
LINE
8
BLACK
6
CONTINUOUS
10
5.53727
20
-3.57225
11
5.53651
21
-3.57149
0
LINE
8
BLACK
6
CONTINUOUS
10
5.53651
20
-3.57149
11
5.5352
21
-3.57083
0
LINE
8
BLACK
6
CONTINUOUS
10
5.5352
20
-3.57083
11
5.53125
21
-3.57083
0
LINE
8
BLACK
6
CONTINUOUS
10
5.53125
20
-3.57083
11
5.52994
21
-3.57149
0
LINE
8
BLACK
6
CONTINUOUS
10
5.52994
20
-3.57149
11
5.52936
21
-3.57207
0
LINE
8
BLACK
6
CONTINUOUS
10
5.52936
20
-3.57207
11
5.52871
21
-3.57338
0
LINE
8
BLACK
6
CONTINUOUS
10
5.52871
20
-3.57338
11
5.52871
21
-3.57463
0
LINE
8
BLACK
6
CONTINUOUS
10
5.52871
20
-3.57463
11
5.52945
21
-3.57684
0
LINE
8
BLACK
6
CONTINUOUS
10
5.52945
20
-3.57684
11
5.54043
21
-3.58783
0
LINE
8
BLACK
6
CONTINUOUS
10
5.54043
20
-3.58783
11
5.54089
21
-3.58894
0
LINE
8
BLACK
6
CONTINUOUS
10
5.54089
20
-3.58894
11
5.54043
21
-3.59006
0
LINE
8
BLACK
6
CONTINUOUS
10
5.54043
20
-3.59006
11
5.53932
21
-3.59052
0
LINE
8
BLACK
6
CONTINUOUS
10
5.53932
20
-3.59052
11
5.52713
21
-3.59052
0
LINE
8
BLACK
6
CONTINUOUS
10
5.52713
20
-3.59052
11
5.52602
21
-3.59006
0
LINE
8
BLACK
6
CONTINUOUS
10
5.52602
20
-3.59006
11
5.52556
21
-3.58894
0
LINE
8
BLACK
6
CONTINUOUS
10
5.52556
20
-3.58894
11
5.52602
21
-3.58783
0
LINE
8
BLACK
6
CONTINUOUS
10
5.52602
20
-3.58783
11
5.52713
21
-3.58737
0
LINE
8
BLACK
6
CONTINUOUS
10
5.52713
20
-3.58737
11
5.53552
21
-3.58737
0
LINE
8
BLACK
6
CONTINUOUS
10
5.53552
20
-3.58737
11
5.52696
21
-3.57881
0
LINE
8
BLACK
6
CONTINUOUS
10
5.52696
20
-3.57881
11
5.52682
21
-3.57847
0
LINE
8
BLACK
6
CONTINUOUS
10
5.52682
20
-3.57847
11
5.52658
21
-3.57819
0
LINE
8
BLACK
6
CONTINUOUS
10
5.52658
20
-3.57819
11
5.52564
21
-3.57538
0
LINE
8
BLACK
6
CONTINUOUS
10
5.52564
20
-3.57538
11
5.52566
21
-3.57512
0
LINE
8
BLACK
6
CONTINUOUS
10
5.52566
20
-3.57512
11
5.52556
21
-3.57488
0
LINE
8
BLACK
6
CONTINUOUS
10
5.52556
20
-3.57488
11
5.52556
21
-3.57301
0
LINE
8
BLACK
6
CONTINUOUS
10
5.52556
20
-3.57301
11
5.5257
21
-3.57267
0
LINE
8
BLACK
6
CONTINUOUS
10
5.5257
20
-3.57267
11
5.52572
21
-3.5723
0
LINE
8
BLACK
6
CONTINUOUS
10
5.52572
20
-3.5723
11
5.52666
21
-3.57043
0
LINE
8
BLACK
6
CONTINUOUS
10
5.52666
20
-3.57043
11
5.52686
21
-3.57026
0
LINE
8
BLACK
6
CONTINUOUS
10
5.52686
20
-3.57026
11
5.52696
21
-3.57002
0
LINE
8
BLACK
6
CONTINUOUS
10
5.52696
20
-3.57002
11
5.52789
21
-3.56908
0
LINE
8
BLACK
6
CONTINUOUS
10
5.52789
20
-3.56908
11
5.52813
21
-3.56898
0
LINE
8
BLACK
6
CONTINUOUS
10
5.52813
20
-3.56898
11
5.5283
21
-3.56879
0
LINE
8
BLACK
6
CONTINUOUS
10
5.5283
20
-3.56879
11
5.53018
21
-3.56785
0
LINE
8
BLACK
6
CONTINUOUS
10
5.53018
20
-3.56785
11
5.53054
21
-3.56782
0
LINE
8
BLACK
6
CONTINUOUS
10
5.53054
20
-3.56782
11
5.53088
21
-3.56768
0
LINE
8
BLACK
6
CONTINUOUS
10
5.53088
20
-3.56768
11
5.53557
21
-3.56768
0
LINE
8
BLACK
6
CONTINUOUS
10
5.53557
20
-3.56768
11
5.53591
21
-3.56782
0
LINE
8
BLACK
6
CONTINUOUS
10
5.55174
20
-3.56778
11
5.552
21
-3.56776
0
LINE
8
BLACK
6
CONTINUOUS
10
5.552
20
-3.56776
11
5.55481
21
-3.5687
0
LINE
8
BLACK
6
CONTINUOUS
10
5.55481
20
-3.5687
11
5.55509
21
-3.56894
0
LINE
8
BLACK
6
CONTINUOUS
10
5.55509
20
-3.56894
11
5.55543
21
-3.56908
0
LINE
8
BLACK
6
CONTINUOUS
10
5.55543
20
-3.56908
11
5.5573
21
-3.57096
0
LINE
8
BLACK
6
CONTINUOUS
10
5.5573
20
-3.57096
11
5.5574
21
-3.5712
0
LINE
8
BLACK
6
CONTINUOUS
10
5.5574
20
-3.5712
11
5.5576
21
-3.57137
0
LINE
8
BLACK
6
CONTINUOUS
10
5.5576
20
-3.57137
11
5.55854
21
-3.57324
0
LINE
8
BLACK
6
CONTINUOUS
10
5.55854
20
-3.57324
11
5.55855
21
-3.57342
0
LINE
8
BLACK
6
CONTINUOUS
10
5.55855
20
-3.57342
11
5.55866
21
-3.57356
0
LINE
8
BLACK
6
CONTINUOUS
10
5.55866
20
-3.57356
11
5.55959
21
-3.57731
0
LINE
8
BLACK
6
CONTINUOUS
10
5.55959
20
-3.57731
11
5.55956
21
-3.57751
0
LINE
8
BLACK
6
CONTINUOUS
10
5.55956
20
-3.57751
11
5.55964
21
-3.57769
0
LINE
8
BLACK
6
CONTINUOUS
10
5.55964
20
-3.57769
11
5.55964
21
-3.58051
0
LINE
8
BLACK
6
CONTINUOUS
10
5.55964
20
-3.58051
11
5.55956
21
-3.58069
0
LINE
8
BLACK
6
CONTINUOUS
10
5.55956
20
-3.58069
11
5.55959
21
-3.58089
0
LINE
8
BLACK
6
CONTINUOUS
10
5.55959
20
-3.58089
11
5.55866
21
-3.58464
0
LINE
8
BLACK
6
CONTINUOUS
10
5.55866
20
-3.58464
11
5.55855
21
-3.58478
0
LINE
8
BLACK
6
CONTINUOUS
10
5.55855
20
-3.58478
11
5.55854
21
-3.58496
0
LINE
8
BLACK
6
CONTINUOUS
10
5.55854
20
-3.58496
11
5.5576
21
-3.58683
0
LINE
8
BLACK
6
CONTINUOUS
10
5.5576
20
-3.58683
11
5.5574
21
-3.587
0
LINE
8
BLACK
6
CONTINUOUS
10
5.5574
20
-3.587
11
5.5573
21
-3.58724
0
LINE
8
BLACK
6
CONTINUOUS
10
5.5573
20
-3.58724
11
5.55543
21
-3.58912
0
LINE
8
BLACK
6
CONTINUOUS
10
5.55543
20
-3.58912
11
5.55509
21
-3.58926
0
LINE
8
BLACK
6
CONTINUOUS
10
5.55509
20
-3.58926
11
5.55481
21
-3.5895
0
LINE
8
BLACK
6
CONTINUOUS
10
5.55481
20
-3.5895
11
5.552
21
-3.59044
0
LINE
8
BLACK
6
CONTINUOUS
10
5.552
20
-3.59044
11
5.55174
21
-3.59042
0
LINE
8
BLACK
6
CONTINUOUS
10
5.55174
20
-3.59042
11
5.5515
21
-3.59052
0
LINE
8
BLACK
6
CONTINUOUS
10
5.5515
20
-3.59052
11
5.54963
21
-3.59052
0
LINE
8
BLACK
6
CONTINUOUS
10
5.54963
20
-3.59052
11
5.54939
21
-3.59042
0
LINE
8
BLACK
6
CONTINUOUS
10
5.54939
20
-3.59042
11
5.54913
21
-3.59044
0
LINE
8
BLACK
6
CONTINUOUS
10
5.54913
20
-3.59044
11
5.54632
21
-3.5895
0
LINE
8
BLACK
6
CONTINUOUS
10
5.54632
20
-3.5895
11
5.54604
21
-3.58926
0
LINE
8
BLACK
6
CONTINUOUS
10
5.54604
20
-3.58926
11
5.5457
21
-3.58912
0
LINE
8
BLACK
6
CONTINUOUS
10
5.5457
20
-3.58912
11
5.54477
21
-3.58818
0
LINE
8
BLACK
6
CONTINUOUS
10
5.54477
20
-3.58818
11
5.5443
21
-3.58707
0
LINE
8
BLACK
6
CONTINUOUS
10
5.5443
20
-3.58707
11
5.54477
21
-3.58595
0
LINE
8
BLACK
6
CONTINUOUS
10
5.54477
20
-3.58595
11
5.54588
21
-3.58549
0
LINE
8
BLACK
6
CONTINUOUS
10
5.54588
20
-3.58549
11
5.54699
21
-3.58595
0
LINE
8
BLACK
6
CONTINUOUS
10
5.54699
20
-3.58595
11
5.54767
21
-3.58663
0
LINE
8
BLACK
6
CONTINUOUS
10
5.54767
20
-3.58663
11
5.54988
21
-3.58737
0
LINE
8
BLACK
6
CONTINUOUS
10
5.54988
20
-3.58737
11
5.55125
21
-3.58737
0
LINE
8
BLACK
6
CONTINUOUS
10
5.55125
20
-3.58737
11
5.55346
21
-3.58663
0
LINE
8
BLACK
6
CONTINUOUS
10
5.55346
20
-3.58663
11
5.5549
21
-3.5852
0
LINE
8
BLACK
6
CONTINUOUS
10
5.5549
20
-3.5852
11
5.55564
21
-3.58371
0
LINE
8
BLACK
6
CONTINUOUS
10
5.55564
20
-3.58371
11
5.55649
21
-3.58031
0
LINE
8
BLACK
6
CONTINUOUS
10
5.55649
20
-3.58031
11
5.55649
21
-3.57789
0
LINE
8
BLACK
6
CONTINUOUS
10
5.55649
20
-3.57789
11
5.55564
21
-3.57449
0
LINE
8
BLACK
6
CONTINUOUS
10
5.55564
20
-3.57449
11
5.5549
21
-3.573
0
LINE
8
BLACK
6
CONTINUOUS
10
5.5549
20
-3.573
11
5.55346
21
-3.57157
0
LINE
8
BLACK
6
CONTINUOUS
10
5.55346
20
-3.57157
11
5.55125
21
-3.57083
0
LINE
8
BLACK
6
CONTINUOUS
10
5.55125
20
-3.57083
11
5.54988
21
-3.57083
0
LINE
8
BLACK
6
CONTINUOUS
10
5.54988
20
-3.57083
11
5.54767
21
-3.57157
0
LINE
8
BLACK
6
CONTINUOUS
10
5.54767
20
-3.57157
11
5.54699
21
-3.57225
0
LINE
8
BLACK
6
CONTINUOUS
10
5.54699
20
-3.57225
11
5.54588
21
-3.57271
0
LINE
8
BLACK
6
CONTINUOUS
10
5.54588
20
-3.57271
11
5.54477
21
-3.57225
0
LINE
8
BLACK
6
CONTINUOUS
10
5.54477
20
-3.57225
11
5.5443
21
-3.57113
0
LINE
8
BLACK
6
CONTINUOUS
10
5.5443
20
-3.57113
11
5.54477
21
-3.57002
0
LINE
8
BLACK
6
CONTINUOUS
10
5.54477
20
-3.57002
11
5.5457
21
-3.56908
0
LINE
8
BLACK
6
CONTINUOUS
10
5.5457
20
-3.56908
11
5.54604
21
-3.56894
0
LINE
8
BLACK
6
CONTINUOUS
10
5.54604
20
-3.56894
11
5.54632
21
-3.5687
0
LINE
8
BLACK
6
CONTINUOUS
10
5.54632
20
-3.5687
11
5.54913
21
-3.56776
0
LINE
8
BLACK
6
CONTINUOUS
10
5.54913
20
-3.56776
11
5.54939
21
-3.56778
0
LINE
8
BLACK
6
CONTINUOUS
10
5.54939
20
-3.56778
11
5.54963
21
-3.56768
0
LINE
8
BLACK
6
CONTINUOUS
10
5.54963
20
-3.56768
11
5.5515
21
-3.56768
0
LINE
8
BLACK
6
CONTINUOUS
10
5.5515
20
-3.56768
11
5.55174
21
-3.56778
0
LINE
8
BLACK
6
CONTINUOUS
10
5.58197
20
-3.55343
11
5.58336
21
-3.554
0
LINE
8
BLACK
6
CONTINUOUS
10
5.58336
20
-3.554
11
5.58394
21
-3.55539
0
LINE
8
BLACK
6
CONTINUOUS
10
5.58394
20
-3.55539
11
5.58394
21
-3.60461
0
LINE
8
BLACK
6
CONTINUOUS
10
5.58394
20
-3.60461
11
5.58336
21
-3.606
0
LINE
8
BLACK
6
CONTINUOUS
10
5.58336
20
-3.606
11
5.58197
21
-3.60657
0
LINE
8
BLACK
6
CONTINUOUS
10
5.58197
20
-3.60657
11
5.50323
21
-3.60657
0
LINE
8
BLACK
6
CONTINUOUS
10
5.50323
20
-3.60657
11
5.50184
21
-3.606
0
LINE
8
BLACK
6
CONTINUOUS
10
5.50184
20
-3.606
11
5.50126
21
-3.60461
0
LINE
8
BLACK
6
CONTINUOUS
10
5.50126
20
-3.60461
11
5.50126
21
-3.55539
0
LINE
8
BLACK
6
CONTINUOUS
10
5.50126
20
-3.55539
11
5.50184
21
-3.554
0
LINE
8
BLACK
6
CONTINUOUS
10
5.50184
20
-3.554
11
5.50323
21
-3.55343
0
LINE
8
BLACK
6
CONTINUOUS
10
5.50323
20
-3.55343
11
5.58197
21
-3.55343
0
LINE
8
BLACK
6
CONTINUOUS
10
5.5052
20
-3.55736
11
5.5052
21
-3.60264
0
LINE
8
BLACK
6
CONTINUOUS
10
5.5052
20
-3.60264
11
5.58
21
-3.60264
0
LINE
8
BLACK
6
CONTINUOUS
10
5.58
20
-3.60264
11
5.58
21
-3.55736
0
LINE
8
BLACK
6
CONTINUOUS
10
5.58
20
-3.55736
11
5.5052
21
-3.55736
0
LINE
8
BLACK
6
CONTINUOUS
10
5.43374
20
-3.38786
11
5.4351
21
-3.38803
0
LINE
8
BLACK
6
CONTINUOUS
10
5.4351
20
-3.38803
11
5.43513
21
-3.38806
0
LINE
8
BLACK
6
CONTINUOUS
10
5.43513
20
-3.38806
11
5.43517
21
-3.38806
0
LINE
8
BLACK
6
CONTINUOUS
10
5.43517
20
-3.38806
11
5.43621
21
-3.38896
0
LINE
8
BLACK
6
CONTINUOUS
10
5.43621
20
-3.38896
11
5.43726
21
-3.38984
0
LINE
8
BLACK
6
CONTINUOUS
10
5.43726
20
-3.38984
11
5.44174
21
-3.39657
0
LINE
8
BLACK
6
CONTINUOUS
10
5.44174
20
-3.39657
11
5.44558
21
-3.40041
0
LINE
8
BLACK
6
CONTINUOUS
10
5.44558
20
-3.40041
11
5.44962
21
-3.40242
0
LINE
8
BLACK
6
CONTINUOUS
10
5.44962
20
-3.40242
11
5.45079
21
-3.40324
0
LINE
8
BLACK
6
CONTINUOUS
10
5.45079
20
-3.40324
11
5.45223
21
-3.40566
0
LINE
8
BLACK
6
CONTINUOUS
10
5.45223
20
-3.40566
11
5.45213
21
-3.40847
0
LINE
8
BLACK
6
CONTINUOUS
10
5.45213
20
-3.40847
11
5.45052
21
-3.41079
0
LINE
8
BLACK
6
CONTINUOUS
10
5.45052
20
-3.41079
11
5.44792
21
-3.41187
0
LINE
8
BLACK
6
CONTINUOUS
10
5.44792
20
-3.41187
11
5.44514
21
-3.41137
0
LINE
8
BLACK
6
CONTINUOUS
10
5.44514
20
-3.41137
11
5.44038
21
-3.40899
0
LINE
8
BLACK
6
CONTINUOUS
10
5.44038
20
-3.40899
11
5.43921
21
-3.40818
0
LINE
8
BLACK
6
CONTINUOUS
10
5.43921
20
-3.40818
11
5.43917
21
-3.4081
0
LINE
8
BLACK
6
CONTINUOUS
10
5.43917
20
-3.4081
11
5.43908
21
-3.40805
0
LINE
8
BLACK
6
CONTINUOUS
10
5.43908
20
-3.40805
11
5.4381
21
-3.40706
0
LINE
8
BLACK
6
CONTINUOUS
10
5.4381
20
-3.40706
11
5.4381
21
-3.43761
0
LINE
8
BLACK
6
CONTINUOUS
10
5.4381
20
-3.43761
11
5.44738
21
-3.43761
0
LINE
8
BLACK
6
CONTINUOUS
10
5.44738
20
-3.43761
11
5.44879
21
-3.43781
0
LINE
8
BLACK
6
CONTINUOUS
10
5.44879
20
-3.43781
11
5.45116
21
-3.43934
0
LINE
8
BLACK
6
CONTINUOUS
10
5.45116
20
-3.43934
11
5.45233
21
-3.4419
0
LINE
8
BLACK
6
CONTINUOUS
10
5.45233
20
-3.4419
11
5.45193
21
-3.44469
0
LINE
8
BLACK
6
CONTINUOUS
10
5.45193
20
-3.44469
11
5.45008
21
-3.44682
0
LINE
8
BLACK
6
CONTINUOUS
10
5.45008
20
-3.44682
11
5.44738
21
-3.44761
0
LINE
8
BLACK
6
CONTINUOUS
10
5.44738
20
-3.44761
11
5.41881
21
-3.44761
0
LINE
8
BLACK
6
CONTINUOUS
10
5.41881
20
-3.44761
11
5.4174
21
-3.44741
0
LINE
8
BLACK
6
CONTINUOUS
10
5.4174
20
-3.44741
11
5.41503
21
-3.44589
0
LINE
8
BLACK
6
CONTINUOUS
10
5.41503
20
-3.44589
11
5.41386
21
-3.44332
0
LINE
8
BLACK
6
CONTINUOUS
10
5.41386
20
-3.44332
11
5.41426
21
-3.44053
0
LINE
8
BLACK
6
CONTINUOUS
10
5.41426
20
-3.44053
11
5.41611
21
-3.4384
0
LINE
8
BLACK
6
CONTINUOUS
10
5.41611
20
-3.4384
11
5.41881
21
-3.43761
0
LINE
8
BLACK
6
CONTINUOUS
10
5.41881
20
-3.43761
11
5.4281
21
-3.43761
0
LINE
8
BLACK
6
CONTINUOUS
10
5.4281
20
-3.43761
11
5.4281
21
-3.39261
0
LINE
8
BLACK
6
CONTINUOUS
10
5.4281
20
-3.39261
11
5.42828
21
-3.39135
0
LINE
8
BLACK
6
CONTINUOUS
10
5.42828
20
-3.39135
11
5.42827
21
-3.39128
0
LINE
8
BLACK
6
CONTINUOUS
10
5.42827
20
-3.39128
11
5.42829
21
-3.39126
0
LINE
8
BLACK
6
CONTINUOUS
10
5.42829
20
-3.39126
11
5.4283
21
-3.3912
0
LINE
8
BLACK
6
CONTINUOUS
10
5.4283
20
-3.3912
11
5.42904
21
-3.39005
0
LINE
8
BLACK
6
CONTINUOUS
10
5.42904
20
-3.39005
11
5.42976
21
-3.38889
0
LINE
8
BLACK
6
CONTINUOUS
10
5.42976
20
-3.38889
11
5.4298
21
-3.38887
0
LINE
8
BLACK
6
CONTINUOUS
10
5.4298
20
-3.38887
11
5.42982
21
-3.38883
0
LINE
8
BLACK
6
CONTINUOUS
10
5.42982
20
-3.38883
11
5.43107
21
-3.38826
0
LINE
8
BLACK
6
CONTINUOUS
10
5.43107
20
-3.38826
11
5.4323
21
-3.38767
0
LINE
8
BLACK
6
CONTINUOUS
10
5.4323
20
-3.38767
11
5.43234
21
-3.38768
0
LINE
8
BLACK
6
CONTINUOUS
10
5.43234
20
-3.38768
11
5.43238
21
-3.38766
0
LINE
8
BLACK
6
CONTINUOUS
10
5.43238
20
-3.38766
11
5.43374
21
-3.38786
0
LINE
8
BLACK
6
CONTINUOUS
10
5.48212
20
-3.38781
11
5.4822
21
-3.38786
0
LINE
8
BLACK
6
CONTINUOUS
10
5.4822
20
-3.38786
11
5.4823
21
-3.38787
0
LINE
8
BLACK
6
CONTINUOUS
10
5.4823
20
-3.38787
11
5.48944
21
-3.39025
0
LINE
8
BLACK
6
CONTINUOUS
10
5.48944
20
-3.39025
11
5.49071
21
-3.39089
0
LINE
8
BLACK
6
CONTINUOUS
10
5.49071
20
-3.39089
11
5.49099
21
-3.39124
0
LINE
8
BLACK
6
CONTINUOUS
10
5.49099
20
-3.39124
11
5.49139
21
-3.39146
0
LINE
8
BLACK
6
CONTINUOUS
10
5.49139
20
-3.39146
11
5.49615
21
-3.39622
0
LINE
8
BLACK
6
CONTINUOUS
10
5.49615
20
-3.39622
11
5.49701
21
-3.39736
0
LINE
8
BLACK
6
CONTINUOUS
10
5.49701
20
-3.39736
11
5.49703
21
-3.39745
0
LINE
8
BLACK
6
CONTINUOUS
10
5.49703
20
-3.39745
11
5.49709
21
-3.39752
0
LINE
8
BLACK
6
CONTINUOUS
10
5.49709
20
-3.39752
11
5.49947
21
-3.40228
0
LINE
8
BLACK
6
CONTINUOUS
10
5.49947
20
-3.40228
11
5.49976
21
-3.40315
0
LINE
8
BLACK
6
CONTINUOUS
10
5.49976
20
-3.40315
11
5.49985
21
-3.4033
0
LINE
8
BLACK
6
CONTINUOUS
10
5.49985
20
-3.4033
11
5.50223
21
-3.41283
0
LINE
8
BLACK
6
CONTINUOUS
10
5.50223
20
-3.41283
11
5.50234
21
-3.41391
0
LINE
8
BLACK
6
CONTINUOUS
10
5.50234
20
-3.41391
11
5.50238
21
-3.41404
0
LINE
8
BLACK
6
CONTINUOUS
10
5.50238
20
-3.41404
11
5.50238
21
-3.42118
0
LINE
8
BLACK
6
CONTINUOUS
10
5.50238
20
-3.42118
11
5.50223
21
-3.42226
0
LINE
8
BLACK
6
CONTINUOUS
10
5.50223
20
-3.42226
11
5.50223
21
-3.4224
0
LINE
8
BLACK
6
CONTINUOUS
10
5.50223
20
-3.4224
11
5.49985
21
-3.43192
0
LINE
8
BLACK
6
CONTINUOUS
10
5.49985
20
-3.43192
11
5.4995
21
-3.43277
0
LINE
8
BLACK
6
CONTINUOUS
10
5.4995
20
-3.43277
11
5.49947
21
-3.43294
0
LINE
8
BLACK
6
CONTINUOUS
10
5.49947
20
-3.43294
11
5.49709
21
-3.4377
0
LINE
8
BLACK
6
CONTINUOUS
10
5.49709
20
-3.4377
11
5.49628
21
-3.43887
0
LINE
8
BLACK
6
CONTINUOUS
10
5.49628
20
-3.43887
11
5.4962
21
-3.43892
0
LINE
8
BLACK
6
CONTINUOUS
10
5.4962
20
-3.43892
11
5.49615
21
-3.439
0
LINE
8
BLACK
6
CONTINUOUS
10
5.49615
20
-3.439
11
5.49139
21
-3.44377
0
LINE
8
BLACK
6
CONTINUOUS
10
5.49139
20
-3.44377
11
5.49025
21
-3.44462
0
LINE
8
BLACK
6
CONTINUOUS
10
5.49025
20
-3.44462
11
5.48981
21
-3.44471
0
LINE
8
BLACK
6
CONTINUOUS
10
5.48981
20
-3.44471
11
5.48944
21
-3.44497
0
LINE
8
BLACK
6
CONTINUOUS
10
5.48944
20
-3.44497
11
5.4823
21
-3.44735
0
LINE
8
BLACK
6
CONTINUOUS
10
5.4823
20
-3.44735
11
5.48089
21
-3.44761
0
LINE
8
BLACK
6
CONTINUOUS
10
5.48089
20
-3.44761
11
5.4808
21
-3.44758
0
LINE
8
BLACK
6
CONTINUOUS
10
5.4808
20
-3.44758
11
5.48071
21
-3.44761
0
LINE
8
BLACK
6
CONTINUOUS
10
5.48071
20
-3.44761
11
5.47595
21
-3.44761
0
LINE
8
BLACK
6
CONTINUOUS
10
5.47595
20
-3.44761
11
5.47454
21
-3.44741
0
LINE
8
BLACK
6
CONTINUOUS
10
5.47454
20
-3.44741
11
5.47446
21
-3.44736
0
LINE
8
BLACK
6
CONTINUOUS
10
5.47446
20
-3.44736
11
5.47437
21
-3.44735
0
LINE
8
BLACK
6
CONTINUOUS
10
5.47437
20
-3.44735
11
5.46723
21
-3.44497
0
LINE
8
BLACK
6
CONTINUOUS
10
5.46723
20
-3.44497
11
5.46596
21
-3.44434
0
LINE
8
BLACK
6
CONTINUOUS
10
5.46596
20
-3.44434
11
5.46567
21
-3.44398
0
LINE
8
BLACK
6
CONTINUOUS
10
5.46567
20
-3.44398
11
5.46527
21
-3.44377
0
LINE
8
BLACK
6
CONTINUOUS
10
5.46527
20
-3.44377
11
5.46289
21
-3.44138
0
LINE
8
BLACK
6
CONTINUOUS
10
5.46289
20
-3.44138
11
5.46204
21
-3.44025
0
LINE
8
BLACK
6
CONTINUOUS
10
5.46204
20
-3.44025
11
5.46144
21
-3.43749
0
LINE
8
BLACK
6
CONTINUOUS
10
5.46144
20
-3.43749
11
5.46243
21
-3.43485
0
LINE
8
BLACK
6
CONTINUOUS
10
5.46243
20
-3.43485
11
5.46468
21
-3.43316
0
LINE
8
BLACK
6
CONTINUOUS
10
5.46468
20
-3.43316
11
5.46749
21
-3.43296
0
LINE
8
BLACK
6
CONTINUOUS
10
5.46749
20
-3.43296
11
5.46996
21
-3.43431
0
LINE
8
BLACK
6
CONTINUOUS
10
5.46996
20
-3.43431
11
5.47151
21
-3.43586
0
LINE
8
BLACK
6
CONTINUOUS
10
5.47151
20
-3.43586
11
5.47676
21
-3.43761
0
LINE
8
BLACK
6
CONTINUOUS
10
5.47676
20
-3.43761
11
5.4799
21
-3.43761
0
LINE
8
BLACK
6
CONTINUOUS
10
5.4799
20
-3.43761
11
5.48516
21
-3.43586
0
LINE
8
BLACK
6
CONTINUOUS
10
5.48516
20
-3.43586
11
5.48851
21
-3.43251
0
LINE
8
BLACK
6
CONTINUOUS
10
5.48851
20
-3.43251
11
5.49028
21
-3.42896
0
LINE
8
BLACK
6
CONTINUOUS
10
5.49028
20
-3.42896
11
5.49238
21
-3.42057
0
LINE
8
BLACK
6
CONTINUOUS
10
5.49238
20
-3.42057
11
5.49238
21
-3.41465
0
LINE
8
BLACK
6
CONTINUOUS
10
5.49238
20
-3.41465
11
5.49028
21
-3.40626
0
LINE
8
BLACK
6
CONTINUOUS
10
5.49028
20
-3.40626
11
5.48851
21
-3.40272
0
LINE
8
BLACK
6
CONTINUOUS
10
5.48851
20
-3.40272
11
5.48516
21
-3.39936
0
LINE
8
BLACK
6
CONTINUOUS
10
5.48516
20
-3.39936
11
5.4799
21
-3.39761
0
LINE
8
BLACK
6
CONTINUOUS
10
5.4799
20
-3.39761
11
5.47676
21
-3.39761
0
LINE
8
BLACK
6
CONTINUOUS
10
5.47676
20
-3.39761
11
5.47151
21
-3.39936
0
LINE
8
BLACK
6
CONTINUOUS
10
5.47151
20
-3.39936
11
5.46996
21
-3.40091
0
LINE
8
BLACK
6
CONTINUOUS
10
5.46996
20
-3.40091
11
5.46882
21
-3.40176
0
LINE
8
BLACK
6
CONTINUOUS
10
5.46882
20
-3.40176
11
5.46607
21
-3.40236
0
LINE
8
BLACK
6
CONTINUOUS
10
5.46607
20
-3.40236
11
5.46343
21
-3.40138
0
LINE
8
BLACK
6
CONTINUOUS
10
5.46343
20
-3.40138
11
5.46174
21
-3.39912
0
LINE
8
BLACK
6
CONTINUOUS
10
5.46174
20
-3.39912
11
5.46154
21
-3.39631
0
LINE
8
BLACK
6
CONTINUOUS
10
5.46154
20
-3.39631
11
5.46289
21
-3.39384
0
LINE
8
BLACK
6
CONTINUOUS
10
5.46289
20
-3.39384
11
5.46527
21
-3.39146
0
LINE
8
BLACK
6
CONTINUOUS
10
5.46527
20
-3.39146
11
5.46641
21
-3.3906
0
LINE
8
BLACK
6
CONTINUOUS
10
5.46641
20
-3.3906
11
5.46686
21
-3.39051
0
LINE
8
BLACK
6
CONTINUOUS
10
5.46686
20
-3.39051
11
5.46723
21
-3.39025
0
LINE
8
BLACK
6
CONTINUOUS
10
5.46723
20
-3.39025
11
5.47437
21
-3.38787
0
LINE
8
BLACK
6
CONTINUOUS
10
5.47437
20
-3.38787
11
5.47577
21
-3.38761
0
LINE
8
BLACK
6
CONTINUOUS
10
5.47577
20
-3.38761
11
5.47586
21
-3.38764
0
LINE
8
BLACK
6
CONTINUOUS
10
5.47586
20
-3.38764
11
5.47595
21
-3.38761
0
LINE
8
BLACK
6
CONTINUOUS
10
5.47595
20
-3.38761
11
5.48071
21
-3.38761
0
LINE
8
BLACK
6
CONTINUOUS
10
5.48071
20
-3.38761
11
5.48212
21
-3.38781
0
LINE
8
BLACK
6
CONTINUOUS
10
5.52089
20
-3.38806
11
5.52302
21
-3.38991
0
LINE
8
BLACK
6
CONTINUOUS
10
5.52302
20
-3.38991
11
5.52381
21
-3.39261
0
LINE
8
BLACK
6
CONTINUOUS
10
5.52381
20
-3.39261
11
5.52381
21
-3.44261
0
LINE
8
BLACK
6
CONTINUOUS
10
5.52381
20
-3.44261
11
5.52361
21
-3.44402
0
LINE
8
BLACK
6
CONTINUOUS
10
5.52361
20
-3.44402
11
5.52208
21
-3.44639
0
LINE
8
BLACK
6
CONTINUOUS
10
5.52208
20
-3.44639
11
5.51952
21
-3.44756
0
LINE
8
BLACK
6
CONTINUOUS
10
5.51952
20
-3.44756
11
5.51673
21
-3.44716
0
LINE
8
BLACK
6
CONTINUOUS
10
5.51673
20
-3.44716
11
5.5146
21
-3.44531
0
LINE
8
BLACK
6
CONTINUOUS
10
5.5146
20
-3.44531
11
5.51381
21
-3.44261
0
LINE
8
BLACK
6
CONTINUOUS
10
5.51381
20
-3.44261
11
5.51381
21
-3.39261
0
LINE
8
BLACK
6
CONTINUOUS
10
5.51381
20
-3.39261
11
5.51401
21
-3.3912
0
LINE
8
BLACK
6
CONTINUOUS
10
5.51401
20
-3.3912
11
5.51554
21
-3.38883
0
LINE
8
BLACK
6
CONTINUOUS
10
5.51554
20
-3.38883
11
5.5181
21
-3.38766
0
LINE
8
BLACK
6
CONTINUOUS
10
5.5181
20
-3.38766
11
5.52089
21
-3.38806
0
LINE
8
BLACK
6
CONTINUOUS
10
5.57295
20
-3.31508
11
5.57434
21
-3.31566
0
LINE
8
BLACK
6
CONTINUOUS
10
5.57434
20
-3.31566
11
5.57492
21
-3.31705
0
LINE
8
BLACK
6
CONTINUOUS
10
5.57492
20
-3.31705
11
5.57492
21
-3.52295
0
LINE
8
BLACK
6
CONTINUOUS
10
5.57492
20
-3.52295
11
5.57434
21
-3.52434
0
LINE
8
BLACK
6
CONTINUOUS
10
5.57434
20
-3.52434
11
5.57295
21
-3.52492
0
LINE
8
BLACK
6
CONTINUOUS
10
5.57295
20
-3.52492
11
5.36705
21
-3.52492
0
LINE
8
BLACK
6
CONTINUOUS
10
5.36705
20
-3.52492
11
5.36566
21
-3.52434
0
LINE
8
BLACK
6
CONTINUOUS
10
5.36566
20
-3.52434
11
5.36508
21
-3.52295
0
LINE
8
BLACK
6
CONTINUOUS
10
5.36508
20
-3.52295
11
5.36508
21
-3.52295
0
LINE
8
BLACK
6
CONTINUOUS
10
5.36508
20
-3.52295
11
5.36508
21
-3.31705
0
LINE
8
BLACK
6
CONTINUOUS
10
5.36508
20
-3.31705
11
5.36566
21
-3.31566
0
LINE
8
BLACK
6
CONTINUOUS
10
5.36566
20
-3.31566
11
5.36705
21
-3.31508
0
LINE
8
BLACK
6
CONTINUOUS
10
5.36705
20
-3.31508
11
5.57295
21
-3.31508
0
LINE
8
BLACK
6
CONTINUOUS
10
5.36902
20
-3.52098
11
5.41229
21
-3.52098
0
LINE
8
BLACK
6
CONTINUOUS
10
5.41229
20
-3.52098
11
5.36902
21
-3.47771
0
LINE
8
BLACK
6
CONTINUOUS
10
5.36902
20
-3.47771
11
5.36902
21
-3.52098
0
LINE
8
BLACK
6
CONTINUOUS
10
5.36902
20
-3.31902
11
5.36902
21
-3.47214
0
LINE
8
BLACK
6
CONTINUOUS
10
5.36902
20
-3.47214
11
5.41786
21
-3.52098
0
LINE
8
BLACK
6
CONTINUOUS
10
5.41786
20
-3.52098
11
5.57098
21
-3.52098
0
LINE
8
BLACK
6
CONTINUOUS
10
5.57098
20
-3.52098
11
5.57098
21
-3.31902
0
LINE
8
BLACK
6
CONTINUOUS
10
5.57098
20
-3.31902
11
5.36902
21
-3.31902
0
LINE
8
BLACK
6
CONTINUOUS
10
5.92659
20
-3.26042
11
5.92717
21
-3.26181
0
LINE
8
BLACK
6
CONTINUOUS
10
5.92717
20
-3.26181
11
5.92717
21
-3.27953
0
LINE
8
BLACK
6
CONTINUOUS
10
5.92717
20
-3.27953
11
5.94094
21
-3.27953
0
LINE
8
BLACK
6
CONTINUOUS
10
5.94094
20
-3.27953
11
5.94147
21
-3.27975
0
LINE
8
BLACK
6
CONTINUOUS
10
5.94147
20
-3.27975
11
5.94204
21
-3.27986
0
LINE
8
BLACK
6
CONTINUOUS
10
5.94204
20
-3.27986
11
5.94215
21
-3.28003
0
LINE
8
BLACK
6
CONTINUOUS
10
5.94215
20
-3.28003
11
5.94234
21
-3.2801
0
LINE
8
BLACK
6
CONTINUOUS
10
5.94234
20
-3.2801
11
5.94256
21
-3.28063
0
LINE
8
BLACK
6
CONTINUOUS
10
5.94256
20
-3.28063
11
5.94288
21
-3.28111
0
LINE
8
BLACK
6
CONTINUOUS
10
5.94288
20
-3.28111
11
5.94284
21
-3.28131
0
LINE
8
BLACK
6
CONTINUOUS
10
5.94284
20
-3.28131
11
5.94291
21
-3.2815
0
LINE
8
BLACK
6
CONTINUOUS
10
5.94291
20
-3.2815
11
5.94269
21
-3.28203
0
LINE
8
BLACK
6
CONTINUOUS
10
5.94269
20
-3.28203
11
5.94258
21
-3.28259
0
LINE
8
BLACK
6
CONTINUOUS
10
5.94258
20
-3.28259
11
5.92888
21
-3.30315
0
LINE
8
BLACK
6
CONTINUOUS
10
5.92888
20
-3.30315
11
5.94685
21
-3.30315
0
LINE
8
BLACK
6
CONTINUOUS
10
5.94685
20
-3.30315
11
5.94824
21
-3.30373
0
LINE
8
BLACK
6
CONTINUOUS
10
5.94824
20
-3.30373
11
5.94882
21
-3.30512
0
LINE
8
BLACK
6
CONTINUOUS
10
5.94882
20
-3.30512
11
5.94824
21
-3.30651
0
LINE
8
BLACK
6
CONTINUOUS
10
5.94824
20
-3.30651
11
5.94685
21
-3.30709
0
LINE
8
BLACK
6
CONTINUOUS
10
5.94685
20
-3.30709
11
5.92717
21
-3.30709
0
LINE
8
BLACK
6
CONTINUOUS
10
5.92717
20
-3.30709
11
5.92717
21
-3.32087
0
LINE
8
BLACK
6
CONTINUOUS
10
5.92717
20
-3.32087
11
5.92659
21
-3.32226
0
LINE
8
BLACK
6
CONTINUOUS
10
5.92659
20
-3.32226
11
5.9252
21
-3.32283
0
LINE
8
BLACK
6
CONTINUOUS
10
5.9252
20
-3.32283
11
5.9238
21
-3.32226
0
LINE
8
BLACK
6
CONTINUOUS
10
5.9238
20
-3.32226
11
5.92323
21
-3.32087
0
LINE
8
BLACK
6
CONTINUOUS
10
5.92323
20
-3.32087
11
5.92323
21
-3.30709
0
LINE
8
BLACK
6
CONTINUOUS
10
5.92323
20
-3.30709
11
5.90354
21
-3.30709
0
LINE
8
BLACK
6
CONTINUOUS
10
5.90354
20
-3.30709
11
5.90215
21
-3.30651
0
LINE
8
BLACK
6
CONTINUOUS
10
5.90215
20
-3.30651
11
5.90157
21
-3.30512
0
LINE
8
BLACK
6
CONTINUOUS
10
5.90157
20
-3.30512
11
5.90215
21
-3.30373
0
LINE
8
BLACK
6
CONTINUOUS
10
5.90215
20
-3.30373
11
5.90354
21
-3.30315
0
LINE
8
BLACK
6
CONTINUOUS
10
5.90354
20
-3.30315
11
5.92152
21
-3.30315
0
LINE
8
BLACK
6
CONTINUOUS
10
5.92152
20
-3.30315
11
5.90781
21
-3.28259
0
LINE
8
BLACK
6
CONTINUOUS
10
5.90781
20
-3.28259
11
5.9077
21
-3.28203
0
LINE
8
BLACK
6
CONTINUOUS
10
5.9077
20
-3.28203
11
5.90748
21
-3.2815
0
LINE
8
BLACK
6
CONTINUOUS
10
5.90748
20
-3.2815
11
5.90756
21
-3.28131
0
LINE
8
BLACK
6
CONTINUOUS
10
5.90756
20
-3.28131
11
5.90752
21
-3.28111
0
LINE
8
BLACK
6
CONTINUOUS
10
5.90752
20
-3.28111
11
5.90784
21
-3.28063
0
LINE
8
BLACK
6
CONTINUOUS
10
5.90784
20
-3.28063
11
5.90806
21
-3.2801
0
LINE
8
BLACK
6
CONTINUOUS
10
5.90806
20
-3.2801
11
5.90824
21
-3.28003
0
LINE
8
BLACK
6
CONTINUOUS
10
5.90824
20
-3.28003
11
5.90836
21
-3.27986
0
LINE
8
BLACK
6
CONTINUOUS
10
5.90836
20
-3.27986
11
5.90892
21
-3.27975
0
LINE
8
BLACK
6
CONTINUOUS
10
5.90892
20
-3.27975
11
5.90945
21
-3.27953
0
LINE
8
BLACK
6
CONTINUOUS
10
5.90945
20
-3.27953
11
5.92323
21
-3.27953
0
LINE
8
BLACK
6
CONTINUOUS
10
5.92323
20
-3.27953
11
5.92323
21
-3.26181
0
LINE
8
BLACK
6
CONTINUOUS
10
5.92323
20
-3.26181
11
5.9238
21
-3.26042
0
LINE
8
BLACK
6
CONTINUOUS
10
5.9238
20
-3.26042
11
5.9252
21
-3.25984
0
LINE
8
BLACK
6
CONTINUOUS
10
5.9252
20
-3.25984
11
5.92659
21
-3.26042
0
LINE
8
BLACK
6
CONTINUOUS
10
5.9252
20
-3.28346
11
5.91313
21
-3.28346
0
LINE
8
BLACK
6
CONTINUOUS
10
5.91313
20
-3.28346
11
5.9252
21
-3.30157
0
LINE
8
BLACK
6
CONTINUOUS
10
5.9252
20
-3.30157
11
5.93727
21
-3.28346
0
LINE
8
BLACK
6
CONTINUOUS
10
5.93727
20
-3.28346
11
5.9252
21
-3.28346
0
LINE
8
BLACK
6
CONTINUOUS
10
5.96063
20
-3.23425
11
5.96202
21
-3.23483
0
LINE
8
BLACK
6
CONTINUOUS
10
5.96202
20
-3.23483
11
5.9626
21
-3.23622
0
LINE
8
BLACK
6
CONTINUOUS
10
5.9626
20
-3.23622
11
5.9626
21
-3.34646
0
LINE
8
BLACK
6
CONTINUOUS
10
5.9626
20
-3.34646
11
5.96202
21
-3.34785
0
LINE
8
BLACK
6
CONTINUOUS
10
5.96202
20
-3.34785
11
5.96063
21
-3.34843
0
LINE
8
BLACK
6
CONTINUOUS
10
5.96063
20
-3.34843
11
5.88976
21
-3.34843
0
LINE
8
BLACK
6
CONTINUOUS
10
5.88976
20
-3.34843
11
5.88837
21
-3.34785
0
LINE
8
BLACK
6
CONTINUOUS
10
5.88837
20
-3.34785
11
5.8878
21
-3.34646
0
LINE
8
BLACK
6
CONTINUOUS
10
5.8878
20
-3.34646
11
5.8878
21
-3.23622
0
LINE
8
BLACK
6
CONTINUOUS
10
5.8878
20
-3.23622
11
5.88837
21
-3.23483
0
LINE
8
BLACK
6
CONTINUOUS
10
5.88837
20
-3.23483
11
5.88976
21
-3.23425
0
LINE
8
BLACK
6
CONTINUOUS
10
5.88976
20
-3.23425
11
5.96063
21
-3.23425
0
LINE
8
BLACK
6
CONTINUOUS
10
5.89173
20
-3.23819
11
5.89173
21
-3.34449
0
LINE
8
BLACK
6
CONTINUOUS
10
5.89173
20
-3.34449
11
5.95866
21
-3.34449
0
LINE
8
BLACK
6
CONTINUOUS
10
5.95866
20
-3.34449
11
5.95866
21
-3.23819
0
LINE
8
BLACK
6
CONTINUOUS
10
5.95866
20
-3.23819
11
5.89173
21
-3.23819
0
LINE
8
BLACK
6
CONTINUOUS
10
5.99174
20
-3.3024
11
5.99285
21
-3.30409
0
LINE
8
BLACK
6
CONTINUOUS
10
5.99285
20
-3.30409
11
5.99262
21
-3.3061
0
LINE
8
BLACK
6
CONTINUOUS
10
5.99262
20
-3.3061
11
5.99075
21
-3.30985
0
LINE
8
BLACK
6
CONTINUOUS
10
5.99075
20
-3.30985
11
5.99022
21
-3.31055
0
LINE
8
BLACK
6
CONTINUOUS
10
5.99022
20
-3.31055
11
5.99019
21
-3.31061
0
LINE
8
BLACK
6
CONTINUOUS
10
5.99019
20
-3.31061
11
5.98774
21
-3.31307
0
LINE
8
BLACK
6
CONTINUOUS
10
5.98774
20
-3.31307
11
6.01515
21
-3.31307
0
LINE
8
BLACK
6
CONTINUOUS
10
6.01515
20
-3.31307
11
6.01515
21
-3.30478
0
LINE
8
BLACK
6
CONTINUOUS
10
6.01515
20
-3.30478
11
6.01533
21
-3.30377
0
LINE
8
BLACK
6
CONTINUOUS
10
6.01533
20
-3.30377
11
6.01663
21
-3.30222
0
LINE
8
BLACK
6
CONTINUOUS
10
6.01663
20
-3.30222
11
6.01862
21
-3.30187
0
LINE
8
BLACK
6
CONTINUOUS
10
6.01862
20
-3.30187
11
6.02037
21
-3.30288
0
LINE
8
BLACK
6
CONTINUOUS
10
6.02037
20
-3.30288
11
6.02106
21
-3.30478
0
LINE
8
BLACK
6
CONTINUOUS
10
6.02106
20
-3.30478
11
6.02106
21
-3.32727
0
LINE
8
BLACK
6
CONTINUOUS
10
6.02106
20
-3.32727
11
6.02088
21
-3.32828
0
LINE
8
BLACK
6
CONTINUOUS
10
6.02088
20
-3.32828
11
6.01958
21
-3.32983
0
LINE
8
BLACK
6
CONTINUOUS
10
6.01958
20
-3.32983
11
6.01759
21
-3.33018
0
LINE
8
BLACK
6
CONTINUOUS
10
6.01759
20
-3.33018
11
6.01584
21
-3.32917
0
LINE
8
BLACK
6
CONTINUOUS
10
6.01584
20
-3.32917
11
6.01515
21
-3.32727
0
LINE
8
BLACK
6
CONTINUOUS
10
6.01515
20
-3.32727
11
6.01515
21
-3.31898
0
LINE
8
BLACK
6
CONTINUOUS
10
6.01515
20
-3.31898
11
5.97873
21
-3.31898
0
LINE
8
BLACK
6
CONTINUOUS
10
5.97873
20
-3.31898
11
5.97772
21
-3.3188
0
LINE
8
BLACK
6
CONTINUOUS
10
5.97772
20
-3.3188
11
5.97759
21
-3.31869
0
LINE
8
BLACK
6
CONTINUOUS
10
5.97759
20
-3.31869
11
5.97742
21
-3.31867
0
LINE
8
BLACK
6
CONTINUOUS
10
5.97742
20
-3.31867
11
5.97683
21
-3.31805
0
LINE
8
BLACK
6
CONTINUOUS
10
5.97683
20
-3.31805
11
5.97618
21
-3.3175
0
LINE
8
BLACK
6
CONTINUOUS
10
5.97618
20
-3.3175
11
5.97615
21
-3.31733
0
LINE
8
BLACK
6
CONTINUOUS
10
5.97615
20
-3.31733
11
5.97603
21
-3.31721
0
LINE
8
BLACK
6
CONTINUOUS
10
5.97603
20
-3.31721
11
5.97597
21
-3.31635
0
LINE
8
BLACK
6
CONTINUOUS
10
5.97597
20
-3.31635
11
5.97583
21
-3.31551
0
LINE
8
BLACK
6
CONTINUOUS
10
5.97583
20
-3.31551
11
5.97591
21
-3.31536
0
LINE
8
BLACK
6
CONTINUOUS
10
5.97591
20
-3.31536
11
5.9759
21
-3.31519
0
LINE
8
BLACK
6
CONTINUOUS
10
5.9759
20
-3.31519
11
5.97641
21
-3.3145
0
LINE
8
BLACK
6
CONTINUOUS
10
5.97641
20
-3.3145
11
5.97684
21
-3.31376
0
LINE
8
BLACK
6
CONTINUOUS
10
5.97684
20
-3.31376
11
5.97699
21
-3.3137
0
LINE
8
BLACK
6
CONTINUOUS
10
5.97699
20
-3.3137
11
5.9771
21
-3.31357
0
LINE
8
BLACK
6
CONTINUOUS
10
5.9771
20
-3.31357
11
5.98248
21
-3.30998
0
LINE
8
BLACK
6
CONTINUOUS
10
5.98248
20
-3.30998
11
5.98568
21
-3.30678
0
LINE
8
BLACK
6
CONTINUOUS
10
5.98568
20
-3.30678
11
5.98734
21
-3.30345
0
LINE
8
BLACK
6
CONTINUOUS
10
5.98734
20
-3.30345
11
5.98795
21
-3.30263
0
LINE
8
BLACK
6
CONTINUOUS
10
5.98795
20
-3.30263
11
5.9898
21
-3.30183
0
LINE
8
BLACK
6
CONTINUOUS
10
5.9898
20
-3.30183
11
5.99174
21
-3.3024
0
LINE
8
BLACK
6
CONTINUOUS
10
6.01849
20
-3.26439
11
6.01862
21
-3.26437
0
LINE
8
BLACK
6
CONTINUOUS
10
6.01862
20
-3.26437
11
6.01873
21
-3.26444
0
LINE
8
BLACK
6
CONTINUOUS
10
6.01873
20
-3.26444
11
6.01911
21
-3.26451
0
LINE
8
BLACK
6
CONTINUOUS
10
6.01911
20
-3.26451
11
6.0197
21
-3.265
0
LINE
8
BLACK
6
CONTINUOUS
10
6.0197
20
-3.265
11
6.02037
21
-3.26538
0
LINE
8
BLACK
6
CONTINUOUS
10
6.02037
20
-3.26538
11
6.02046
21
-3.26563
0
LINE
8
BLACK
6
CONTINUOUS
10
6.02046
20
-3.26563
11
6.02066
21
-3.2658
0
LINE
8
BLACK
6
CONTINUOUS
10
6.02066
20
-3.2658
11
6.02079
21
-3.26656
0
LINE
8
BLACK
6
CONTINUOUS
10
6.02079
20
-3.26656
11
6.02106
21
-3.26728
0
LINE
8
BLACK
6
CONTINUOUS
10
6.02106
20
-3.26728
11
6.02106
21
-3.27665
0
LINE
8
BLACK
6
CONTINUOUS
10
6.02106
20
-3.27665
11
6.0209
21
-3.27752
0
LINE
8
BLACK
6
CONTINUOUS
10
6.0209
20
-3.27752
11
6.0209
21
-3.27759
0
LINE
8
BLACK
6
CONTINUOUS
10
6.0209
20
-3.27759
11
6.01903
21
-3.28321
0
LINE
8
BLACK
6
CONTINUOUS
10
6.01903
20
-3.28321
11
6.01854
21
-3.28411
0
LINE
8
BLACK
6
CONTINUOUS
10
6.01854
20
-3.28411
11
6.01839
21
-3.28421
0
LINE
8
BLACK
6
CONTINUOUS
10
6.01839
20
-3.28421
11
6.01832
21
-3.28437
0
LINE
8
BLACK
6
CONTINUOUS
10
6.01832
20
-3.28437
11
6.01457
21
-3.28812
0
LINE
8
BLACK
6
CONTINUOUS
10
6.01457
20
-3.28812
11
6.01384
21
-3.28862
0
LINE
8
BLACK
6
CONTINUOUS
10
6.01384
20
-3.28862
11
6.0138
21
-3.28867
0
LINE
8
BLACK
6
CONTINUOUS
10
6.0138
20
-3.28867
11
6.01005
21
-3.29054
0
LINE
8
BLACK
6
CONTINUOUS
10
6.01005
20
-3.29054
11
6.00956
21
-3.29069
0
LINE
8
BLACK
6
CONTINUOUS
10
6.00956
20
-3.29069
11
6.00945
21
-3.29077
0
LINE
8
BLACK
6
CONTINUOUS
10
6.00945
20
-3.29077
11
6.00195
21
-3.29264
0
LINE
8
BLACK
6
CONTINUOUS
10
6.00195
20
-3.29264
11
6.00136
21
-3.29268
0
LINE
8
BLACK
6
CONTINUOUS
10
6.00136
20
-3.29268
11
6.00123
21
-3.29273
0
LINE
8
BLACK
6
CONTINUOUS
10
6.00123
20
-3.29273
11
5.99561
21
-3.29273
0
LINE
8
BLACK
6
CONTINUOUS
10
5.99561
20
-3.29273
11
5.99503
21
-3.29263
0
LINE
8
BLACK
6
CONTINUOUS
10
5.99503
20
-3.29263
11
5.99489
21
-3.29264
0
LINE
8
BLACK
6
CONTINUOUS
10
5.99489
20
-3.29264
11
5.98739
21
-3.29077
0
LINE
8
BLACK
6
CONTINUOUS
10
5.98739
20
-3.29077
11
5.98693
21
-3.29056
0
LINE
8
BLACK
6
CONTINUOUS
10
5.98693
20
-3.29056
11
5.98679
21
-3.29054
0
LINE
8
BLACK
6
CONTINUOUS
10
5.98679
20
-3.29054
11
5.98304
21
-3.28867
0
LINE
8
BLACK
6
CONTINUOUS
10
5.98304
20
-3.28867
11
5.98233
21
-3.28814
0
LINE
8
BLACK
6
CONTINUOUS
10
5.98233
20
-3.28814
11
5.98227
21
-3.28812
0
LINE
8
BLACK
6
CONTINUOUS
10
5.98227
20
-3.28812
11
5.97852
21
-3.28437
0
LINE
8
BLACK
6
CONTINUOUS
10
5.97852
20
-3.28437
11
5.97793
21
-3.28353
0
LINE
8
BLACK
6
CONTINUOUS
10
5.97793
20
-3.28353
11
5.97792
21
-3.28335
0
LINE
8
BLACK
6
CONTINUOUS
10
5.97792
20
-3.28335
11
5.97781
21
-3.28321
0
LINE
8
BLACK
6
CONTINUOUS
10
5.97781
20
-3.28321
11
5.97593
21
-3.27759
0
LINE
8
BLACK
6
CONTINUOUS
10
5.97593
20
-3.27759
11
5.9758
21
-3.27671
0
LINE
8
BLACK
6
CONTINUOUS
10
5.9758
20
-3.27671
11
5.97578
21
-3.27665
0
LINE
8
BLACK
6
CONTINUOUS
10
5.97578
20
-3.27665
11
5.97578
21
-3.26728
0
LINE
8
BLACK
6
CONTINUOUS
10
5.97578
20
-3.26728
11
5.97585
21
-3.2669
0
LINE
8
BLACK
6
CONTINUOUS
10
5.97585
20
-3.2669
11
5.97583
21
-3.26677
0
LINE
8
BLACK
6
CONTINUOUS
10
5.97583
20
-3.26677
11
5.97589
21
-3.26665
0
LINE
8
BLACK
6
CONTINUOUS
10
5.97589
20
-3.26665
11
5.97596
21
-3.26627
0
LINE
8
BLACK
6
CONTINUOUS
10
5.97596
20
-3.26627
11
5.97645
21
-3.26568
0
LINE
8
BLACK
6
CONTINUOUS
10
5.97645
20
-3.26568
11
5.97684
21
-3.26502
0
LINE
8
BLACK
6
CONTINUOUS
10
5.97684
20
-3.26502
11
5.97709
21
-3.26493
0
LINE
8
BLACK
6
CONTINUOUS
10
5.97709
20
-3.26493
11
5.97726
21
-3.26472
0
LINE
8
BLACK
6
CONTINUOUS
10
5.97726
20
-3.26472
11
5.97801
21
-3.26459
0
LINE
8
BLACK
6
CONTINUOUS
10
5.97801
20
-3.26459
11
5.97873
21
-3.26433
0
LINE
8
BLACK
6
CONTINUOUS
10
5.97873
20
-3.26433
11
6.0181
21
-3.26433
0
LINE
8
BLACK
6
CONTINUOUS
10
6.0181
20
-3.26433
11
6.01849
21
-3.26439
0
LINE
8
BLACK
6
CONTINUOUS
10
5.98169
20
-3.27617
11
5.98319
21
-3.28068
0
LINE
8
BLACK
6
CONTINUOUS
10
5.98319
20
-3.28068
11
5.98611
21
-3.2836
0
LINE
8
BLACK
6
CONTINUOUS
10
5.98611
20
-3.2836
11
5.98914
21
-3.28512
0
LINE
8
BLACK
6
CONTINUOUS
10
5.98914
20
-3.28512
11
5.99597
21
-3.28682
0
LINE
8
BLACK
6
CONTINUOUS
10
5.99597
20
-3.28682
11
6.00087
21
-3.28682
0
LINE
8
BLACK
6
CONTINUOUS
10
6.00087
20
-3.28682
11
6.0077
21
-3.28512
0
LINE
8
BLACK
6
CONTINUOUS
10
6.0077
20
-3.28512
11
6.01073
21
-3.2836
0
LINE
8
BLACK
6
CONTINUOUS
10
6.01073
20
-3.2836
11
6.01365
21
-3.28068
0
LINE
8
BLACK
6
CONTINUOUS
10
6.01365
20
-3.28068
11
6.01515
21
-3.27617
0
LINE
8
BLACK
6
CONTINUOUS
10
6.01515
20
-3.27617
11
6.01515
21
-3.27023
0
LINE
8
BLACK
6
CONTINUOUS
10
6.01515
20
-3.27023
11
5.98169
21
-3.27023
0
LINE
8
BLACK
6
CONTINUOUS
10
5.98169
20
-3.27023
11
5.98169
21
-3.27617
0
LINE
8
BLACK
6
CONTINUOUS
10
5.43971
20
-3.21723
11
5.43984
21
-3.21734
0
LINE
8
BLACK
6
CONTINUOUS
10
5.43984
20
-3.21734
11
5.44002
21
-3.21736
0
LINE
8
BLACK
6
CONTINUOUS
10
5.44002
20
-3.21736
11
5.44377
21
-3.21924
0
LINE
8
BLACK
6
CONTINUOUS
10
5.44377
20
-3.21924
11
5.44459
21
-3.21985
0
LINE
8
BLACK
6
CONTINUOUS
10
5.44459
20
-3.21985
11
5.44539
21
-3.2217
0
LINE
8
BLACK
6
CONTINUOUS
10
5.44539
20
-3.2217
11
5.44482
21
-3.22364
0
LINE
8
BLACK
6
CONTINUOUS
10
5.44482
20
-3.22364
11
5.44313
21
-3.22475
0
LINE
8
BLACK
6
CONTINUOUS
10
5.44313
20
-3.22475
11
5.44112
21
-3.22452
0
LINE
8
BLACK
6
CONTINUOUS
10
5.44112
20
-3.22452
11
5.438
21
-3.22296
0
LINE
8
BLACK
6
CONTINUOUS
10
5.438
20
-3.22296
11
5.43189
21
-3.22296
0
LINE
8
BLACK
6
CONTINUOUS
10
5.43189
20
-3.22296
11
5.42965
21
-3.22408
0
LINE
8
BLACK
6
CONTINUOUS
10
5.42965
20
-3.22408
11
5.42852
21
-3.22633
0
LINE
8
BLACK
6
CONTINUOUS
10
5.42852
20
-3.22633
11
5.42852
21
-3.22755
0
LINE
8
BLACK
6
CONTINUOUS
10
5.42852
20
-3.22755
11
5.43002
21
-3.2283
0
LINE
8
BLACK
6
CONTINUOUS
10
5.43002
20
-3.2283
11
5.4387
21
-3.2283
0
LINE
8
BLACK
6
CONTINUOUS
10
5.4387
20
-3.2283
11
5.43971
21
-3.22848
0
LINE
8
BLACK
6
CONTINUOUS
10
5.43971
20
-3.22848
11
5.43984
21
-3.22859
0
LINE
8
BLACK
6
CONTINUOUS
10
5.43984
20
-3.22859
11
5.44002
21
-3.22861
0
LINE
8
BLACK
6
CONTINUOUS
10
5.44002
20
-3.22861
11
5.44377
21
-3.23049
0
LINE
8
BLACK
6
CONTINUOUS
10
5.44377
20
-3.23049
11
5.44459
21
-3.2311
0
LINE
8
BLACK
6
CONTINUOUS
10
5.44459
20
-3.2311
11
5.44476
21
-3.2315
0
LINE
8
BLACK
6
CONTINUOUS
10
5.44476
20
-3.2315
11
5.44509
21
-3.23181
0
LINE
8
BLACK
6
CONTINUOUS
10
5.44509
20
-3.23181
11
5.44696
21
-3.23556
0
LINE
8
BLACK
6
CONTINUOUS
10
5.44696
20
-3.23556
11
5.44725
21
-3.23654
0
LINE
8
BLACK
6
CONTINUOUS
10
5.44725
20
-3.23654
11
5.44721
21
-3.23671
0
LINE
8
BLACK
6
CONTINUOUS
10
5.44721
20
-3.23671
11
5.44727
21
-3.23688
0
LINE
8
BLACK
6
CONTINUOUS
10
5.44727
20
-3.23688
11
5.44727
21
-3.24063
0
LINE
8
BLACK
6
CONTINUOUS
10
5.44727
20
-3.24063
11
5.44709
21
-3.24164
0
LINE
8
BLACK
6
CONTINUOUS
10
5.44709
20
-3.24164
11
5.44698
21
-3.24177
0
LINE
8
BLACK
6
CONTINUOUS
10
5.44698
20
-3.24177
11
5.44696
21
-3.24195
0
LINE
8
BLACK
6
CONTINUOUS
10
5.44696
20
-3.24195
11
5.44509
21
-3.2457
0
LINE
8
BLACK
6
CONTINUOUS
10
5.44509
20
-3.2457
11
5.44447
21
-3.24652
0
LINE
8
BLACK
6
CONTINUOUS
10
5.44447
20
-3.24652
11
5.44407
21
-3.2467
0
LINE
8
BLACK
6
CONTINUOUS
10
5.44407
20
-3.2467
11
5.44377
21
-3.24702
0
LINE
8
BLACK
6
CONTINUOUS
10
5.44377
20
-3.24702
11
5.44002
21
-3.24889
0
LINE
8
BLACK
6
CONTINUOUS
10
5.44002
20
-3.24889
11
5.43903
21
-3.24919
0
LINE
8
BLACK
6
CONTINUOUS
10
5.43903
20
-3.24919
11
5.43886
21
-3.24915
0
LINE
8
BLACK
6
CONTINUOUS
10
5.43886
20
-3.24915
11
5.4387
21
-3.24921
0
LINE
8
BLACK
6
CONTINUOUS
10
5.4387
20
-3.24921
11
5.42932
21
-3.24921
0
LINE
8
BLACK
6
CONTINUOUS
10
5.42932
20
-3.24921
11
5.42831
21
-3.24903
0
LINE
8
BLACK
6
CONTINUOUS
10
5.42831
20
-3.24903
11
5.42818
21
-3.24891
0
LINE
8
BLACK
6
CONTINUOUS
10
5.42818
20
-3.24891
11
5.428
21
-3.24889
0
LINE
8
BLACK
6
CONTINUOUS
10
5.428
20
-3.24889
11
5.42728
21
-3.24853
0
LINE
8
BLACK
6
CONTINUOUS
10
5.42728
20
-3.24853
11
5.42705
21
-3.24881
0
LINE
8
BLACK
6
CONTINUOUS
10
5.42705
20
-3.24881
11
5.42506
21
-3.24916
0
LINE
8
BLACK
6
CONTINUOUS
10
5.42506
20
-3.24916
11
5.42331
21
-3.24815
0
LINE
8
BLACK
6
CONTINUOUS
10
5.42331
20
-3.24815
11
5.42262
21
-3.24625
0
LINE
8
BLACK
6
CONTINUOUS
10
5.42262
20
-3.24625
11
5.42262
21
-3.22563
0
LINE
8
BLACK
6
CONTINUOUS
10
5.42262
20
-3.22563
11
5.4228
21
-3.22462
0
LINE
8
BLACK
6
CONTINUOUS
10
5.4228
20
-3.22462
11
5.42291
21
-3.22449
0
LINE
8
BLACK
6
CONTINUOUS
10
5.42291
20
-3.22449
11
5.42293
21
-3.22431
0
LINE
8
BLACK
6
CONTINUOUS
10
5.42293
20
-3.22431
11
5.42481
21
-3.22056
0
LINE
8
BLACK
6
CONTINUOUS
10
5.42481
20
-3.22056
11
5.42542
21
-3.21974
0
LINE
8
BLACK
6
CONTINUOUS
10
5.42542
20
-3.21974
11
5.42582
21
-3.21956
0
LINE
8
BLACK
6
CONTINUOUS
10
5.42582
20
-3.21956
11
5.42613
21
-3.21924
0
LINE
8
BLACK
6
CONTINUOUS
10
5.42613
20
-3.21924
11
5.42988
21
-3.21736
0
LINE
8
BLACK
6
CONTINUOUS
10
5.42988
20
-3.21736
11
5.43086
21
-3.21707
0
LINE
8
BLACK
6
CONTINUOUS
10
5.43086
20
-3.21707
11
5.43103
21
-3.21711
0
LINE
8
BLACK
6
CONTINUOUS
10
5.43103
20
-3.21711
11
5.4312
21
-3.21705
0
LINE
8
BLACK
6
CONTINUOUS
10
5.4312
20
-3.21705
11
5.4387
21
-3.21705
0
LINE
8
BLACK
6
CONTINUOUS
10
5.4387
20
-3.21705
11
5.43971
21
-3.21723
0
LINE
8
BLACK
6
CONTINUOUS
10
5.42852
20
-3.24255
11
5.43002
21
-3.2433
0
LINE
8
BLACK
6
CONTINUOUS
10
5.43002
20
-3.2433
11
5.438
21
-3.2433
0
LINE
8
BLACK
6
CONTINUOUS
10
5.438
20
-3.2433
11
5.44024
21
-3.24218
0
LINE
8
BLACK
6
CONTINUOUS
10
5.44024
20
-3.24218
11
5.44137
21
-3.23993
0
LINE
8
BLACK
6
CONTINUOUS
10
5.44137
20
-3.23993
11
5.44137
21
-3.23758
0
LINE
8
BLACK
6
CONTINUOUS
10
5.44137
20
-3.23758
11
5.44024
21
-3.23533
0
LINE
8
BLACK
6
CONTINUOUS
10
5.44024
20
-3.23533
11
5.438
21
-3.23421
0
LINE
8
BLACK
6
CONTINUOUS
10
5.438
20
-3.23421
11
5.42932
21
-3.23421
0
LINE
8
BLACK
6
CONTINUOUS
10
5.42932
20
-3.23421
11
5.42852
21
-3.23407
0
LINE
8
BLACK
6
CONTINUOUS
10
5.42852
20
-3.23407
11
5.42852
21
-3.24255
0
LINE
8
BLACK
6
CONTINUOUS
10
5.49032
20
-3.21723
11
5.49046
21
-3.21734
0
LINE
8
BLACK
6
CONTINUOUS
10
5.49046
20
-3.21734
11
5.49063
21
-3.21736
0
LINE
8
BLACK
6
CONTINUOUS
10
5.49063
20
-3.21736
11
5.49438
21
-3.21924
0
LINE
8
BLACK
6
CONTINUOUS
10
5.49438
20
-3.21924
11
5.49509
21
-3.21977
0
LINE
8
BLACK
6
CONTINUOUS
10
5.49509
20
-3.21977
11
5.49515
21
-3.21979
0
LINE
8
BLACK
6
CONTINUOUS
10
5.49515
20
-3.21979
11
5.49703
21
-3.22167
0
LINE
8
BLACK
6
CONTINUOUS
10
5.49703
20
-3.22167
11
5.49753
21
-3.22239
0
LINE
8
BLACK
6
CONTINUOUS
10
5.49753
20
-3.22239
11
5.49758
21
-3.22243
0
LINE
8
BLACK
6
CONTINUOUS
10
5.49758
20
-3.22243
11
5.49945
21
-3.22618
0
LINE
8
BLACK
6
CONTINUOUS
10
5.49945
20
-3.22618
11
5.49975
21
-3.22717
0
LINE
8
BLACK
6
CONTINUOUS
10
5.49975
20
-3.22717
11
5.49971
21
-3.22734
0
LINE
8
BLACK
6
CONTINUOUS
10
5.49971
20
-3.22734
11
5.49977
21
-3.22751
0
LINE
8
BLACK
6
CONTINUOUS
10
5.49977
20
-3.22751
11
5.49977
21
-3.23875
0
LINE
8
BLACK
6
CONTINUOUS
10
5.49977
20
-3.23875
11
5.49959
21
-3.23976
0
LINE
8
BLACK
6
CONTINUOUS
10
5.49959
20
-3.23976
11
5.49947
21
-3.2399
0
LINE
8
BLACK
6
CONTINUOUS
10
5.49947
20
-3.2399
11
5.49945
21
-3.24007
0
LINE
8
BLACK
6
CONTINUOUS
10
5.49945
20
-3.24007
11
5.49758
21
-3.24382
0
LINE
8
BLACK
6
CONTINUOUS
10
5.49758
20
-3.24382
11
5.49705
21
-3.24453
0
LINE
8
BLACK
6
CONTINUOUS
10
5.49705
20
-3.24453
11
5.49703
21
-3.24459
0
LINE
8
BLACK
6
CONTINUOUS
10
5.49703
20
-3.24459
11
5.49515
21
-3.24647
0
LINE
8
BLACK
6
CONTINUOUS
10
5.49515
20
-3.24647
11
5.49443
21
-3.24697
0
LINE
8
BLACK
6
CONTINUOUS
10
5.49443
20
-3.24697
11
5.49438
21
-3.24702
0
LINE
8
BLACK
6
CONTINUOUS
10
5.49438
20
-3.24702
11
5.49063
21
-3.24889
0
LINE
8
BLACK
6
CONTINUOUS
10
5.49063
20
-3.24889
11
5.48965
21
-3.24919
0
LINE
8
BLACK
6
CONTINUOUS
10
5.48965
20
-3.24919
11
5.48948
21
-3.24915
0
LINE
8
BLACK
6
CONTINUOUS
10
5.48948
20
-3.24915
11
5.48931
21
-3.24921
0
LINE
8
BLACK
6
CONTINUOUS
10
5.48931
20
-3.24921
11
5.48181
21
-3.24921
0
LINE
8
BLACK
6
CONTINUOUS
10
5.48181
20
-3.24921
11
5.4808
21
-3.24903
0
LINE
8
BLACK
6
CONTINUOUS
10
5.4808
20
-3.24903
11
5.48067
21
-3.24891
0
LINE
8
BLACK
6
CONTINUOUS
10
5.48067
20
-3.24891
11
5.48049
21
-3.24889
0
LINE
8
BLACK
6
CONTINUOUS
10
5.48049
20
-3.24889
11
5.47674
21
-3.24702
0
LINE
8
BLACK
6
CONTINUOUS
10
5.47674
20
-3.24702
11
5.47592
21
-3.24641
0
LINE
8
BLACK
6
CONTINUOUS
10
5.47592
20
-3.24641
11
5.47512
21
-3.24455
0
LINE
8
BLACK
6
CONTINUOUS
10
5.47512
20
-3.24455
11
5.47569
21
-3.24262
0
LINE
8
BLACK
6
CONTINUOUS
10
5.47569
20
-3.24262
11
5.47738
21
-3.24151
0
LINE
8
BLACK
6
CONTINUOUS
10
5.47738
20
-3.24151
11
5.47939
21
-3.24174
0
LINE
8
BLACK
6
CONTINUOUS
10
5.47939
20
-3.24174
11
5.48251
21
-3.2433
0
LINE
8
BLACK
6
CONTINUOUS
10
5.48251
20
-3.2433
11
5.48862
21
-3.2433
0
LINE
8
BLACK
6
CONTINUOUS
10
5.48862
20
-3.2433
11
5.49131
21
-3.24195
0
LINE
8
BLACK
6
CONTINUOUS
10
5.49131
20
-3.24195
11
5.49251
21
-3.24075
0
LINE
8
BLACK
6
CONTINUOUS
10
5.49251
20
-3.24075
11
5.49386
21
-3.23806
0
LINE
8
BLACK
6
CONTINUOUS
10
5.49386
20
-3.23806
11
5.49386
21
-3.2282
0
LINE
8
BLACK
6
CONTINUOUS
10
5.49386
20
-3.2282
11
5.49251
21
-3.2255
0
LINE
8
BLACK
6
CONTINUOUS
10
5.49251
20
-3.2255
11
5.49131
21
-3.22431
0
LINE
8
BLACK
6
CONTINUOUS
10
5.49131
20
-3.22431
11
5.48862
21
-3.22296
0
LINE
8
BLACK
6
CONTINUOUS
10
5.48862
20
-3.22296
11
5.48251
21
-3.22296
0
LINE
8
BLACK
6
CONTINUOUS
10
5.48251
20
-3.22296
11
5.47939
21
-3.22452
0
LINE
8
BLACK
6
CONTINUOUS
10
5.47939
20
-3.22452
11
5.4784
21
-3.22481
0
LINE
8
BLACK
6
CONTINUOUS
10
5.4784
20
-3.22481
11
5.47644
21
-3.22434
0
LINE
8
BLACK
6
CONTINUOUS
10
5.47644
20
-3.22434
11
5.47523
21
-3.22272
0
LINE
8
BLACK
6
CONTINUOUS
10
5.47523
20
-3.22272
11
5.47536
21
-3.22071
0
LINE
8
BLACK
6
CONTINUOUS
10
5.47536
20
-3.22071
11
5.47674
21
-3.21924
0
LINE
8
BLACK
6
CONTINUOUS
10
5.47674
20
-3.21924
11
5.48049
21
-3.21736
0
LINE
8
BLACK
6
CONTINUOUS
10
5.48049
20
-3.21736
11
5.48148
21
-3.21707
0
LINE
8
BLACK
6
CONTINUOUS
10
5.48148
20
-3.21707
11
5.48165
21
-3.21711
0
LINE
8
BLACK
6
CONTINUOUS
10
5.48165
20
-3.21711
11
5.48181
21
-3.21705
0
LINE
8
BLACK
6
CONTINUOUS
10
5.48181
20
-3.21705
11
5.48931
21
-3.21705
0
LINE
8
BLACK
6
CONTINUOUS
10
5.48931
20
-3.21705
11
5.49032
21
-3.21723
0
LINE
8
BLACK
6
CONTINUOUS
10
5.53282
20
-3.21811
11
5.53351
21
-3.22001
0
LINE
8
BLACK
6
CONTINUOUS
10
5.53351
20
-3.22001
11
5.53351
21
-3.24063
0
LINE
8
BLACK
6
CONTINUOUS
10
5.53351
20
-3.24063
11
5.53333
21
-3.24164
0
LINE
8
BLACK
6
CONTINUOUS
10
5.53333
20
-3.24164
11
5.53322
21
-3.24177
0
LINE
8
BLACK
6
CONTINUOUS
10
5.53322
20
-3.24177
11
5.5332
21
-3.24195
0
LINE
8
BLACK
6
CONTINUOUS
10
5.5332
20
-3.24195
11
5.53132
21
-3.2457
0
LINE
8
BLACK
6
CONTINUOUS
10
5.53132
20
-3.2457
11
5.53071
21
-3.24652
0
LINE
8
BLACK
6
CONTINUOUS
10
5.53071
20
-3.24652
11
5.53031
21
-3.2467
0
LINE
8
BLACK
6
CONTINUOUS
10
5.53031
20
-3.2467
11
5.53
21
-3.24702
0
LINE
8
BLACK
6
CONTINUOUS
10
5.53
20
-3.24702
11
5.52625
21
-3.24889
0
LINE
8
BLACK
6
CONTINUOUS
10
5.52625
20
-3.24889
11
5.52527
21
-3.24919
0
LINE
8
BLACK
6
CONTINUOUS
10
5.52527
20
-3.24919
11
5.5251
21
-3.24915
0
LINE
8
BLACK
6
CONTINUOUS
10
5.5251
20
-3.24915
11
5.52493
21
-3.24921
0
LINE
8
BLACK
6
CONTINUOUS
10
5.52493
20
-3.24921
11
5.51931
21
-3.24921
0
LINE
8
BLACK
6
CONTINUOUS
10
5.51931
20
-3.24921
11
5.5183
21
-3.24903
0
LINE
8
BLACK
6
CONTINUOUS
10
5.5183
20
-3.24903
11
5.51816
21
-3.24891
0
LINE
8
BLACK
6
CONTINUOUS
10
5.51816
20
-3.24891
11
5.51799
21
-3.24889
0
LINE
8
BLACK
6
CONTINUOUS
10
5.51799
20
-3.24889
11
5.51595
21
-3.24787
0
LINE
8
BLACK
6
CONTINUOUS
10
5.51595
20
-3.24787
11
5.51516
21
-3.24881
0
LINE
8
BLACK
6
CONTINUOUS
10
5.51516
20
-3.24881
11
5.51317
21
-3.24916
0
LINE
8
BLACK
6
CONTINUOUS
10
5.51317
20
-3.24916
11
5.51142
21
-3.24815
0
LINE
8
BLACK
6
CONTINUOUS
10
5.51142
20
-3.24815
11
5.51073
21
-3.24625
0
LINE
8
BLACK
6
CONTINUOUS
10
5.51073
20
-3.24625
11
5.51073
21
-3.22001
0
LINE
8
BLACK
6
CONTINUOUS
10
5.51073
20
-3.22001
11
5.51091
21
-3.219
0
LINE
8
BLACK
6
CONTINUOUS
10
5.51091
20
-3.219
11
5.51221
21
-3.21745
0
LINE
8
BLACK
6
CONTINUOUS
10
5.51221
20
-3.21745
11
5.5142
21
-3.2171
0
LINE
8
BLACK
6
CONTINUOUS
10
5.5142
20
-3.2171
11
5.51595
21
-3.21811
0
LINE
8
BLACK
6
CONTINUOUS
10
5.51595
20
-3.21811
11
5.51664
21
-3.22001
0
LINE
8
BLACK
6
CONTINUOUS
10
5.51664
20
-3.22001
11
5.51664
21
-3.24128
0
LINE
8
BLACK
6
CONTINUOUS
10
5.51664
20
-3.24128
11
5.51731
21
-3.24195
0
LINE
8
BLACK
6
CONTINUOUS
10
5.51731
20
-3.24195
11
5.52001
21
-3.2433
0
LINE
8
BLACK
6
CONTINUOUS
10
5.52001
20
-3.2433
11
5.52424
21
-3.2433
0
LINE
8
BLACK
6
CONTINUOUS
10
5.52424
20
-3.2433
11
5.52648
21
-3.24218
0
LINE
8
BLACK
6
CONTINUOUS
10
5.52648
20
-3.24218
11
5.52761
21
-3.23993
0
LINE
8
BLACK
6
CONTINUOUS
10
5.52761
20
-3.23993
11
5.52761
21
-3.22001
0
LINE
8
BLACK
6
CONTINUOUS
10
5.52761
20
-3.22001
11
5.52778
21
-3.219
0
LINE
8
BLACK
6
CONTINUOUS
10
5.52778
20
-3.219
11
5.52908
21
-3.21745
0
LINE
8
BLACK
6
CONTINUOUS
10
5.52908
20
-3.21745
11
5.53107
21
-3.2171
0
LINE
8
BLACK
6
CONTINUOUS
10
5.53107
20
-3.2171
11
5.53282
21
-3.21811
0
LINE
8
BLACK
6
CONTINUOUS
10
5.55157
20
-3.20498
11
5.55226
21
-3.20688
0
LINE
8
BLACK
6
CONTINUOUS
10
5.55226
20
-3.20688
11
5.55226
21
-3.21721
0
LINE
8
BLACK
6
CONTINUOUS
10
5.55226
20
-3.21721
11
5.55272
21
-3.21707
0
LINE
8
BLACK
6
CONTINUOUS
10
5.55272
20
-3.21707
11
5.55289
21
-3.21711
0
LINE
8
BLACK
6
CONTINUOUS
10
5.55289
20
-3.21711
11
5.55306
21
-3.21705
0
LINE
8
BLACK
6
CONTINUOUS
10
5.55306
20
-3.21705
11
5.56055
21
-3.21705
0
LINE
8
BLACK
6
CONTINUOUS
10
5.56055
20
-3.21705
11
5.56156
21
-3.21723
0
LINE
8
BLACK
6
CONTINUOUS
10
5.56156
20
-3.21723
11
5.5617
21
-3.21734
0
LINE
8
BLACK
6
CONTINUOUS
10
5.5617
20
-3.21734
11
5.56188
21
-3.21736
0
LINE
8
BLACK
6
CONTINUOUS
10
5.56188
20
-3.21736
11
5.56562
21
-3.21924
0
LINE
8
BLACK
6
CONTINUOUS
10
5.56562
20
-3.21924
11
5.56633
21
-3.21977
0
LINE
8
BLACK
6
CONTINUOUS
10
5.56633
20
-3.21977
11
5.56639
21
-3.21979
0
LINE
8
BLACK
6
CONTINUOUS
10
5.56639
20
-3.21979
11
5.56827
21
-3.22167
0
LINE
8
BLACK
6
CONTINUOUS
10
5.56827
20
-3.22167
11
5.56877
21
-3.22239
0
LINE
8
BLACK
6
CONTINUOUS
10
5.56877
20
-3.22239
11
5.56882
21
-3.22243
0
LINE
8
BLACK
6
CONTINUOUS
10
5.56882
20
-3.22243
11
5.57069
21
-3.22618
0
LINE
8
BLACK
6
CONTINUOUS
10
5.57069
20
-3.22618
11
5.57099
21
-3.22717
0
LINE
8
BLACK
6
CONTINUOUS
10
5.57099
20
-3.22717
11
5.57095
21
-3.22734
0
LINE
8
BLACK
6
CONTINUOUS
10
5.57095
20
-3.22734
11
5.57101
21
-3.22751
0
LINE
8
BLACK
6
CONTINUOUS
10
5.57101
20
-3.22751
11
5.57101
21
-3.23875
0
LINE
8
BLACK
6
CONTINUOUS
10
5.57101
20
-3.23875
11
5.57083
21
-3.23976
0
LINE
8
BLACK
6
CONTINUOUS
10
5.57083
20
-3.23976
11
5.57072
21
-3.2399
0
LINE
8
BLACK
6
CONTINUOUS
10
5.57072
20
-3.2399
11
5.57069
21
-3.24007
0
LINE
8
BLACK
6
CONTINUOUS
10
5.57069
20
-3.24007
11
5.56882
21
-3.24382
0
LINE
8
BLACK
6
CONTINUOUS
10
5.56882
20
-3.24382
11
5.56829
21
-3.24453
0
LINE
8
BLACK
6
CONTINUOUS
10
5.56829
20
-3.24453
11
5.56827
21
-3.24459
0
LINE
8
BLACK
6
CONTINUOUS
10
5.56827
20
-3.24459
11
5.56639
21
-3.24647
0
LINE
8
BLACK
6
CONTINUOUS
10
5.56639
20
-3.24647
11
5.56567
21
-3.24697
0
LINE
8
BLACK
6
CONTINUOUS
10
5.56567
20
-3.24697
11
5.56562
21
-3.24702
0
LINE
8
BLACK
6
CONTINUOUS
10
5.56562
20
-3.24702
11
5.56188
21
-3.24889
0
LINE
8
BLACK
6
CONTINUOUS
10
5.56188
20
-3.24889
11
5.56089
21
-3.24919
0
LINE
8
BLACK
6
CONTINUOUS
10
5.56089
20
-3.24919
11
5.56072
21
-3.24915
0
LINE
8
BLACK
6
CONTINUOUS
10
5.56072
20
-3.24915
11
5.56055
21
-3.24921
0
LINE
8
BLACK
6
CONTINUOUS
10
5.56055
20
-3.24921
11
5.55306
21
-3.24921
0
LINE
8
BLACK
6
CONTINUOUS
10
5.55306
20
-3.24921
11
5.55205
21
-3.24903
0
LINE
8
BLACK
6
CONTINUOUS
10
5.55205
20
-3.24903
11
5.55191
21
-3.24891
0
LINE
8
BLACK
6
CONTINUOUS
10
5.55191
20
-3.24891
11
5.55174
21
-3.24889
0
LINE
8
BLACK
6
CONTINUOUS
10
5.55174
20
-3.24889
11
5.55101
21
-3.24853
0
LINE
8
BLACK
6
CONTINUOUS
10
5.55101
20
-3.24853
11
5.55078
21
-3.24881
0
LINE
8
BLACK
6
CONTINUOUS
10
5.55078
20
-3.24881
11
5.54879
21
-3.24916
0
LINE
8
BLACK
6
CONTINUOUS
10
5.54879
20
-3.24916
11
5.54704
21
-3.24815
0
LINE
8
BLACK
6
CONTINUOUS
10
5.54704
20
-3.24815
11
5.54635
21
-3.24625
0
LINE
8
BLACK
6
CONTINUOUS
10
5.54635
20
-3.24625
11
5.54635
21
-3.20688
0
LINE
8
BLACK
6
CONTINUOUS
10
5.54635
20
-3.20688
11
5.54653
21
-3.20587
0
LINE
8
BLACK
6
CONTINUOUS
10
5.54653
20
-3.20587
11
5.54783
21
-3.20433
0
LINE
8
BLACK
6
CONTINUOUS
10
5.54783
20
-3.20433
11
5.54982
21
-3.20397
0
LINE
8
BLACK
6
CONTINUOUS
10
5.54982
20
-3.20397
11
5.55157
21
-3.20498
0
LINE
8
BLACK
6
CONTINUOUS
10
5.55226
20
-3.22371
11
5.55226
21
-3.24255
0
LINE
8
BLACK
6
CONTINUOUS
10
5.55226
20
-3.24255
11
5.55375
21
-3.2433
0
LINE
8
BLACK
6
CONTINUOUS
10
5.55375
20
-3.2433
11
5.55986
21
-3.2433
0
LINE
8
BLACK
6
CONTINUOUS
10
5.55986
20
-3.2433
11
5.56256
21
-3.24195
0
LINE
8
BLACK
6
CONTINUOUS
10
5.56256
20
-3.24195
11
5.56375
21
-3.24075
0
LINE
8
BLACK
6
CONTINUOUS
10
5.56375
20
-3.24075
11
5.5651
21
-3.23806
0
LINE
8
BLACK
6
CONTINUOUS
10
5.5651
20
-3.23806
11
5.5651
21
-3.2282
0
LINE
8
BLACK
6
CONTINUOUS
10
5.5651
20
-3.2282
11
5.56375
21
-3.2255
0
LINE
8
BLACK
6
CONTINUOUS
10
5.56375
20
-3.2255
11
5.56256
21
-3.22431
0
LINE
8
BLACK
6
CONTINUOUS
10
5.56256
20
-3.22431
11
5.55986
21
-3.22296
0
LINE
8
BLACK
6
CONTINUOUS
10
5.55986
20
-3.22296
11
5.55375
21
-3.22296
0
LINE
8
BLACK
6
CONTINUOUS
10
5.55375
20
-3.22296
11
5.55226
21
-3.22371
0
LINE
8
BLACK
6
CONTINUOUS
10
5.40909
20
-3.20498
11
5.40978
21
-3.20688
0
LINE
8
BLACK
6
CONTINUOUS
10
5.40978
20
-3.20688
11
5.40978
21
-3.24063
0
LINE
8
BLACK
6
CONTINUOUS
10
5.40978
20
-3.24063
11
5.4096
21
-3.24164
0
LINE
8
BLACK
6
CONTINUOUS
10
5.4096
20
-3.24164
11
5.40949
21
-3.24177
0
LINE
8
BLACK
6
CONTINUOUS
10
5.40949
20
-3.24177
11
5.40947
21
-3.24195
0
LINE
8
BLACK
6
CONTINUOUS
10
5.40947
20
-3.24195
11
5.40759
21
-3.2457
0
LINE
8
BLACK
6
CONTINUOUS
10
5.40759
20
-3.2457
11
5.40698
21
-3.24652
0
LINE
8
BLACK
6
CONTINUOUS
10
5.40698
20
-3.24652
11
5.40657
21
-3.2467
0
LINE
8
BLACK
6
CONTINUOUS
10
5.40657
20
-3.2467
11
5.40627
21
-3.24702
0
LINE
8
BLACK
6
CONTINUOUS
10
5.40627
20
-3.24702
11
5.40252
21
-3.24889
0
LINE
8
BLACK
6
CONTINUOUS
10
5.40252
20
-3.24889
11
5.40154
21
-3.24919
0
LINE
8
BLACK
6
CONTINUOUS
10
5.40154
20
-3.24919
11
5.39957
21
-3.24872
0
LINE
8
BLACK
6
CONTINUOUS
10
5.39957
20
-3.24872
11
5.39837
21
-3.24709
0
LINE
8
BLACK
6
CONTINUOUS
10
5.39837
20
-3.24709
11
5.39849
21
-3.24508
0
LINE
8
BLACK
6
CONTINUOUS
10
5.39849
20
-3.24508
11
5.39988
21
-3.24361
0
LINE
8
BLACK
6
CONTINUOUS
10
5.39988
20
-3.24361
11
5.40275
21
-3.24218
0
LINE
8
BLACK
6
CONTINUOUS
10
5.40275
20
-3.24218
11
5.40387
21
-3.23993
0
LINE
8
BLACK
6
CONTINUOUS
10
5.40387
20
-3.23993
11
5.40387
21
-3.20688
0
LINE
8
BLACK
6
CONTINUOUS
10
5.40387
20
-3.20688
11
5.40405
21
-3.20587
0
LINE
8
BLACK
6
CONTINUOUS
10
5.40405
20
-3.20587
11
5.40535
21
-3.20433
0
LINE
8
BLACK
6
CONTINUOUS
10
5.40535
20
-3.20433
11
5.40734
21
-3.20397
0
LINE
8
BLACK
6
CONTINUOUS
10
5.40734
20
-3.20397
11
5.40909
21
-3.20498
0
LINE
8
BLACK
6
CONTINUOUS
10
5.46345
20
-3.21811
11
5.46415
21
-3.22001
0
LINE
8
BLACK
6
CONTINUOUS
10
5.46415
20
-3.22001
11
5.46415
21
-3.24625
0
LINE
8
BLACK
6
CONTINUOUS
10
5.46415
20
-3.24625
11
5.46397
21
-3.24726
0
LINE
8
BLACK
6
CONTINUOUS
10
5.46397
20
-3.24726
11
5.46267
21
-3.24881
0
LINE
8
BLACK
6
CONTINUOUS
10
5.46267
20
-3.24881
11
5.46068
21
-3.24916
0
LINE
8
BLACK
6
CONTINUOUS
10
5.46068
20
-3.24916
11
5.45893
21
-3.24815
0
LINE
8
BLACK
6
CONTINUOUS
10
5.45893
20
-3.24815
11
5.45824
21
-3.24625
0
LINE
8
BLACK
6
CONTINUOUS
10
5.45824
20
-3.24625
11
5.45824
21
-3.22001
0
LINE
8
BLACK
6
CONTINUOUS
10
5.45824
20
-3.22001
11
5.45842
21
-3.219
0
LINE
8
BLACK
6
CONTINUOUS
10
5.45842
20
-3.219
11
5.45972
21
-3.21745
0
LINE
8
BLACK
6
CONTINUOUS
10
5.45972
20
-3.21745
11
5.46171
21
-3.2171
0
LINE
8
BLACK
6
CONTINUOUS
10
5.46171
20
-3.2171
11
5.46345
21
-3.21811
0
LINE
8
BLACK
6
CONTINUOUS
10
5.58719
20
-3.21811
11
5.58788
21
-3.22001
0
LINE
8
BLACK
6
CONTINUOUS
10
5.58788
20
-3.22001
11
5.58788
21
-3.24625
0
LINE
8
BLACK
6
CONTINUOUS
10
5.58788
20
-3.24625
11
5.5877
21
-3.24726
0
LINE
8
BLACK
6
CONTINUOUS
10
5.5877
20
-3.24726
11
5.5864
21
-3.24881
0
LINE
8
BLACK
6
CONTINUOUS
10
5.5864
20
-3.24881
11
5.58441
21
-3.24916
0
LINE
8
BLACK
6
CONTINUOUS
10
5.58441
20
-3.24916
11
5.58266
21
-3.24815
0
LINE
8
BLACK
6
CONTINUOUS
10
5.58266
20
-3.24815
11
5.58197
21
-3.24625
0
LINE
8
BLACK
6
CONTINUOUS
10
5.58197
20
-3.24625
11
5.58197
21
-3.22001
0
LINE
8
BLACK
6
CONTINUOUS
10
5.58197
20
-3.22001
11
5.58215
21
-3.219
0
LINE
8
BLACK
6
CONTINUOUS
10
5.58215
20
-3.219
11
5.58345
21
-3.21745
0
LINE
8
BLACK
6
CONTINUOUS
10
5.58345
20
-3.21745
11
5.58544
21
-3.2171
0
LINE
8
BLACK
6
CONTINUOUS
10
5.58544
20
-3.2171
11
5.58719
21
-3.21811
0
LINE
8
BLACK
6
CONTINUOUS
10
5.61906
20
-3.204
11
5.61919
21
-3.20397
0
LINE
8
BLACK
6
CONTINUOUS
10
5.61919
20
-3.20397
11
5.6193
21
-3.20404
0
LINE
8
BLACK
6
CONTINUOUS
10
5.6193
20
-3.20404
11
5.61968
21
-3.20411
0
LINE
8
BLACK
6
CONTINUOUS
10
5.61968
20
-3.20411
11
5.62027
21
-3.2046
0
LINE
8
BLACK
6
CONTINUOUS
10
5.62027
20
-3.2046
11
5.62093
21
-3.20498
0
LINE
8
BLACK
6
CONTINUOUS
10
5.62093
20
-3.20498
11
5.62103
21
-3.20523
0
LINE
8
BLACK
6
CONTINUOUS
10
5.62103
20
-3.20523
11
5.62123
21
-3.20541
0
LINE
8
BLACK
6
CONTINUOUS
10
5.62123
20
-3.20541
11
5.62136
21
-3.20616
0
LINE
8
BLACK
6
CONTINUOUS
10
5.62136
20
-3.20616
11
5.62163
21
-3.20688
0
LINE
8
BLACK
6
CONTINUOUS
10
5.62163
20
-3.20688
11
5.62163
21
-3.24625
0
LINE
8
BLACK
6
CONTINUOUS
10
5.62163
20
-3.24625
11
5.62145
21
-3.24726
0
LINE
8
BLACK
6
CONTINUOUS
10
5.62145
20
-3.24726
11
5.62015
21
-3.24881
0
LINE
8
BLACK
6
CONTINUOUS
10
5.62015
20
-3.24881
11
5.61816
21
-3.24916
0
LINE
8
BLACK
6
CONTINUOUS
10
5.61816
20
-3.24916
11
5.61641
21
-3.24815
0
LINE
8
BLACK
6
CONTINUOUS
10
5.61641
20
-3.24815
11
5.61572
21
-3.24625
0
LINE
8
BLACK
6
CONTINUOUS
10
5.61572
20
-3.24625
11
5.61572
21
-3.22858
0
LINE
8
BLACK
6
CONTINUOUS
10
5.61572
20
-3.22858
11
5.60555
21
-3.22858
0
LINE
8
BLACK
6
CONTINUOUS
10
5.60555
20
-3.22858
11
5.60454
21
-3.2284
0
LINE
8
BLACK
6
CONTINUOUS
10
5.60454
20
-3.2284
11
5.60299
21
-3.22711
0
LINE
8
BLACK
6
CONTINUOUS
10
5.60299
20
-3.22711
11
5.60264
21
-3.22512
0
LINE
8
BLACK
6
CONTINUOUS
10
5.60264
20
-3.22512
11
5.60365
21
-3.22337
0
LINE
8
BLACK
6
CONTINUOUS
10
5.60365
20
-3.22337
11
5.60555
21
-3.22268
0
LINE
8
BLACK
6
CONTINUOUS
10
5.60555
20
-3.22268
11
5.61572
21
-3.22268
0
LINE
8
BLACK
6
CONTINUOUS
10
5.61572
20
-3.22268
11
5.61572
21
-3.20984
0
LINE
8
BLACK
6
CONTINUOUS
10
5.61572
20
-3.20984
11
5.59992
21
-3.20984
0
LINE
8
BLACK
6
CONTINUOUS
10
5.59992
20
-3.20984
11
5.59892
21
-3.20966
0
LINE
8
BLACK
6
CONTINUOUS
10
5.59892
20
-3.20966
11
5.59737
21
-3.20836
0
LINE
8
BLACK
6
CONTINUOUS
10
5.59737
20
-3.20836
11
5.59702
21
-3.20637
0
LINE
8
BLACK
6
CONTINUOUS
10
5.59702
20
-3.20637
11
5.59803
21
-3.20462
0
LINE
8
BLACK
6
CONTINUOUS
10
5.59803
20
-3.20462
11
5.59992
21
-3.20393
0
LINE
8
BLACK
6
CONTINUOUS
10
5.59992
20
-3.20393
11
5.61867
21
-3.20393
0
LINE
8
BLACK
6
CONTINUOUS
10
5.61867
20
-3.20393
11
5.61906
21
-3.204
0
LINE
8
BLACK
6
CONTINUOUS
10
5.46157
20
-3.204
11
5.46171
21
-3.20397
0
LINE
8
BLACK
6
CONTINUOUS
10
5.46171
20
-3.20397
11
5.46182
21
-3.20404
0
LINE
8
BLACK
6
CONTINUOUS
10
5.46182
20
-3.20404
11
5.46196
21
-3.20403
0
LINE
8
BLACK
6
CONTINUOUS
10
5.46196
20
-3.20403
11
5.46258
21
-3.20447
0
LINE
8
BLACK
6
CONTINUOUS
10
5.46258
20
-3.20447
11
5.46328
21
-3.20479
0
LINE
8
BLACK
6
CONTINUOUS
10
5.46328
20
-3.20479
11
5.46516
21
-3.20667
0
LINE
8
BLACK
6
CONTINUOUS
10
5.46516
20
-3.20667
11
5.46538
21
-3.20699
0
LINE
8
BLACK
6
CONTINUOUS
10
5.46538
20
-3.20699
11
5.46549
21
-3.20706
0
LINE
8
BLACK
6
CONTINUOUS
10
5.46549
20
-3.20706
11
5.46552
21
-3.20719
0
LINE
8
BLACK
6
CONTINUOUS
10
5.46552
20
-3.20719
11
5.46574
21
-3.20751
0
LINE
8
BLACK
6
CONTINUOUS
10
5.46574
20
-3.20751
11
5.46581
21
-3.20827
0
LINE
8
BLACK
6
CONTINUOUS
10
5.46581
20
-3.20827
11
5.46601
21
-3.20901
0
LINE
8
BLACK
6
CONTINUOUS
10
5.46601
20
-3.20901
11
5.4659
21
-3.20926
0
LINE
8
BLACK
6
CONTINUOUS
10
5.4659
20
-3.20926
11
5.46592
21
-3.20952
0
LINE
8
BLACK
6
CONTINUOUS
10
5.46592
20
-3.20952
11
5.46548
21
-3.21015
0
LINE
8
BLACK
6
CONTINUOUS
10
5.46548
20
-3.21015
11
5.46516
21
-3.21085
0
LINE
8
BLACK
6
CONTINUOUS
10
5.46516
20
-3.21085
11
5.46328
21
-3.21272
0
LINE
8
BLACK
6
CONTINUOUS
10
5.46328
20
-3.21272
11
5.46296
21
-3.21294
0
LINE
8
BLACK
6
CONTINUOUS
10
5.46296
20
-3.21294
11
5.46289
21
-3.21305
0
LINE
8
BLACK
6
CONTINUOUS
10
5.46289
20
-3.21305
11
5.46276
21
-3.21308
0
LINE
8
BLACK
6
CONTINUOUS
10
5.46276
20
-3.21308
11
5.46275
21
-3.21309
0
LINE
8
BLACK
6
CONTINUOUS
10
5.46275
20
-3.21309
11
5.46267
21
-3.21319
0
LINE
8
BLACK
6
CONTINUOUS
10
5.46267
20
-3.21319
11
5.46259
21
-3.2132
0
LINE
8
BLACK
6
CONTINUOUS
10
5.46259
20
-3.2132
11
5.46244
21
-3.21331
0
LINE
8
BLACK
6
CONTINUOUS
10
5.46244
20
-3.21331
11
5.46168
21
-3.21338
0
LINE
8
BLACK
6
CONTINUOUS
10
5.46168
20
-3.21338
11
5.46093
21
-3.21357
0
LINE
8
BLACK
6
CONTINUOUS
10
5.46093
20
-3.21357
11
5.46081
21
-3.21352
0
LINE
8
BLACK
6
CONTINUOUS
10
5.46081
20
-3.21352
11
5.46068
21
-3.21354
0
LINE
8
BLACK
6
CONTINUOUS
10
5.46068
20
-3.21354
11
5.46056
21
-3.21347
0
LINE
8
BLACK
6
CONTINUOUS
10
5.46056
20
-3.21347
11
5.46043
21
-3.21348
0
LINE
8
BLACK
6
CONTINUOUS
10
5.46043
20
-3.21348
11
5.4598
21
-3.21304
0
LINE
8
BLACK
6
CONTINUOUS
10
5.4598
20
-3.21304
11
5.4591
21
-3.21272
0
LINE
8
BLACK
6
CONTINUOUS
10
5.4591
20
-3.21272
11
5.45723
21
-3.21085
0
LINE
8
BLACK
6
CONTINUOUS
10
5.45723
20
-3.21085
11
5.45701
21
-3.21053
0
LINE
8
BLACK
6
CONTINUOUS
10
5.45701
20
-3.21053
11
5.4569
21
-3.21045
0
LINE
8
BLACK
6
CONTINUOUS
10
5.4569
20
-3.21045
11
5.45686
21
-3.21032
0
LINE
8
BLACK
6
CONTINUOUS
10
5.45686
20
-3.21032
11
5.45664
21
-3.21001
0
LINE
8
BLACK
6
CONTINUOUS
10
5.45664
20
-3.21001
11
5.45657
21
-3.20924
0
LINE
8
BLACK
6
CONTINUOUS
10
5.45657
20
-3.20924
11
5.45638
21
-3.2085
0
LINE
8
BLACK
6
CONTINUOUS
10
5.45638
20
-3.2085
11
5.45649
21
-3.20826
0
LINE
8
BLACK
6
CONTINUOUS
10
5.45649
20
-3.20826
11
5.45647
21
-3.20799
0
LINE
8
BLACK
6
CONTINUOUS
10
5.45647
20
-3.20799
11
5.45691
21
-3.20736
0
LINE
8
BLACK
6
CONTINUOUS
10
5.45691
20
-3.20736
11
5.45723
21
-3.20667
0
LINE
8
BLACK
6
CONTINUOUS
10
5.45723
20
-3.20667
11
5.4591
21
-3.20479
0
LINE
8
BLACK
6
CONTINUOUS
10
5.4591
20
-3.20479
11
5.45942
21
-3.20457
0
LINE
8
BLACK
6
CONTINUOUS
10
5.45942
20
-3.20457
11
5.4595
21
-3.20446
0
LINE
8
BLACK
6
CONTINUOUS
10
5.4595
20
-3.20446
11
5.45963
21
-3.20443
0
LINE
8
BLACK
6
CONTINUOUS
10
5.45963
20
-3.20443
11
5.45963
21
-3.20443
0
LINE
8
BLACK
6
CONTINUOUS
10
5.45963
20
-3.20443
11
5.45972
21
-3.20433
0
LINE
8
BLACK
6
CONTINUOUS
10
5.45972
20
-3.20433
11
5.45979
21
-3.20431
0
LINE
8
BLACK
6
CONTINUOUS
10
5.45979
20
-3.20431
11
5.45994
21
-3.20421
0
LINE
8
BLACK
6
CONTINUOUS
10
5.45994
20
-3.20421
11
5.46071
21
-3.20414
0
LINE
8
BLACK
6
CONTINUOUS
10
5.46071
20
-3.20414
11
5.46145
21
-3.20394
0
LINE
8
BLACK
6
CONTINUOUS
10
5.46145
20
-3.20394
11
5.46157
21
-3.204
0
LINE
8
BLACK
6
CONTINUOUS
10
5.58531
20
-3.204
11
5.58544
21
-3.20397
0
LINE
8
BLACK
6
CONTINUOUS
10
5.58544
20
-3.20397
11
5.58556
21
-3.20404
0
LINE
8
BLACK
6
CONTINUOUS
10
5.58556
20
-3.20404
11
5.58569
21
-3.20403
0
LINE
8
BLACK
6
CONTINUOUS
10
5.58569
20
-3.20403
11
5.58632
21
-3.20447
0
LINE
8
BLACK
6
CONTINUOUS
10
5.58632
20
-3.20447
11
5.58701
21
-3.20479
0
LINE
8
BLACK
6
CONTINUOUS
10
5.58701
20
-3.20479
11
5.58889
21
-3.20667
0
LINE
8
BLACK
6
CONTINUOUS
10
5.58889
20
-3.20667
11
5.58911
21
-3.20699
0
LINE
8
BLACK
6
CONTINUOUS
10
5.58911
20
-3.20699
11
5.58922
21
-3.20706
0
LINE
8
BLACK
6
CONTINUOUS
10
5.58922
20
-3.20706
11
5.58925
21
-3.20719
0
LINE
8
BLACK
6
CONTINUOUS
10
5.58925
20
-3.20719
11
5.58948
21
-3.20751
0
LINE
8
BLACK
6
CONTINUOUS
10
5.58948
20
-3.20751
11
5.58954
21
-3.20827
0
LINE
8
BLACK
6
CONTINUOUS
10
5.58954
20
-3.20827
11
5.58974
21
-3.20901
0
LINE
8
BLACK
6
CONTINUOUS
10
5.58974
20
-3.20901
11
5.58963
21
-3.20926
0
LINE
8
BLACK
6
CONTINUOUS
10
5.58963
20
-3.20926
11
5.58965
21
-3.20952
0
LINE
8
BLACK
6
CONTINUOUS
10
5.58965
20
-3.20952
11
5.58921
21
-3.21015
0
LINE
8
BLACK
6
CONTINUOUS
10
5.58921
20
-3.21015
11
5.58889
21
-3.21085
0
LINE
8
BLACK
6
CONTINUOUS
10
5.58889
20
-3.21085
11
5.58701
21
-3.21272
0
LINE
8
BLACK
6
CONTINUOUS
10
5.58701
20
-3.21272
11
5.5867
21
-3.21294
0
LINE
8
BLACK
6
CONTINUOUS
10
5.5867
20
-3.21294
11
5.58662
21
-3.21305
0
LINE
8
BLACK
6
CONTINUOUS
10
5.58662
20
-3.21305
11
5.58649
21
-3.21308
0
LINE
8
BLACK
6
CONTINUOUS
10
5.58649
20
-3.21308
11
5.58649
21
-3.21309
0
LINE
8
BLACK
6
CONTINUOUS
10
5.58649
20
-3.21309
11
5.5864
21
-3.21319
0
LINE
8
BLACK
6
CONTINUOUS
10
5.5864
20
-3.21319
11
5.58632
21
-3.2132
0
LINE
8
BLACK
6
CONTINUOUS
10
5.58632
20
-3.2132
11
5.58617
21
-3.21331
0
LINE
8
BLACK
6
CONTINUOUS
10
5.58617
20
-3.21331
11
5.58541
21
-3.21338
0
LINE
8
BLACK
6
CONTINUOUS
10
5.58541
20
-3.21338
11
5.58467
21
-3.21357
0
LINE
8
BLACK
6
CONTINUOUS
10
5.58467
20
-3.21357
11
5.58455
21
-3.21352
0
LINE
8
BLACK
6
CONTINUOUS
10
5.58455
20
-3.21352
11
5.58441
21
-3.21354
0
LINE
8
BLACK
6
CONTINUOUS
10
5.58441
20
-3.21354
11
5.5843
21
-3.21347
0
LINE
8
BLACK
6
CONTINUOUS
10
5.5843
20
-3.21347
11
5.58416
21
-3.21348
0
LINE
8
BLACK
6
CONTINUOUS
10
5.58416
20
-3.21348
11
5.58353
21
-3.21304
0
LINE
8
BLACK
6
CONTINUOUS
10
5.58353
20
-3.21304
11
5.58284
21
-3.21272
0
LINE
8
BLACK
6
CONTINUOUS
10
5.58284
20
-3.21272
11
5.58096
21
-3.21085
0
LINE
8
BLACK
6
CONTINUOUS
10
5.58096
20
-3.21085
11
5.58074
21
-3.21053
0
LINE
8
BLACK
6
CONTINUOUS
10
5.58074
20
-3.21053
11
5.58063
21
-3.21045
0
LINE
8
BLACK
6
CONTINUOUS
10
5.58063
20
-3.21045
11
5.5806
21
-3.21032
0
LINE
8
BLACK
6
CONTINUOUS
10
5.5806
20
-3.21032
11
5.58038
21
-3.21001
0
LINE
8
BLACK
6
CONTINUOUS
10
5.58038
20
-3.21001
11
5.58031
21
-3.20924
0
LINE
8
BLACK
6
CONTINUOUS
10
5.58031
20
-3.20924
11
5.58011
21
-3.2085
0
LINE
8
BLACK
6
CONTINUOUS
10
5.58011
20
-3.2085
11
5.58022
21
-3.20826
0
LINE
8
BLACK
6
CONTINUOUS
10
5.58022
20
-3.20826
11
5.5802
21
-3.20799
0
LINE
8
BLACK
6
CONTINUOUS
10
5.5802
20
-3.20799
11
5.58064
21
-3.20736
0
LINE
8
BLACK
6
CONTINUOUS
10
5.58064
20
-3.20736
11
5.58096
21
-3.20667
0
LINE
8
BLACK
6
CONTINUOUS
10
5.58096
20
-3.20667
11
5.58284
21
-3.20479
0
LINE
8
BLACK
6
CONTINUOUS
10
5.58284
20
-3.20479
11
5.58316
21
-3.20457
0
LINE
8
BLACK
6
CONTINUOUS
10
5.58316
20
-3.20457
11
5.58323
21
-3.20446
0
LINE
8
BLACK
6
CONTINUOUS
10
5.58323
20
-3.20446
11
5.58336
21
-3.20443
0
LINE
8
BLACK
6
CONTINUOUS
10
5.58336
20
-3.20443
11
5.58337
21
-3.20443
0
LINE
8
BLACK
6
CONTINUOUS
10
5.58337
20
-3.20443
11
5.58345
21
-3.20433
0
LINE
8
BLACK
6
CONTINUOUS
10
5.58345
20
-3.20433
11
5.58353
21
-3.20431
0
LINE
8
BLACK
6
CONTINUOUS
10
5.58353
20
-3.20431
11
5.58368
21
-3.20421
0
LINE
8
BLACK
6
CONTINUOUS
10
5.58368
20
-3.20421
11
5.58444
21
-3.20414
0
LINE
8
BLACK
6
CONTINUOUS
10
5.58444
20
-3.20414
11
5.58518
21
-3.20394
0
LINE
8
BLACK
6
CONTINUOUS
10
5.58518
20
-3.20394
11
5.58531
21
-3.204
0
LINE
8
BLACK
6
CONTINUOUS
10
5.49594
20
-3.13994
11
5.49622
21
-3.13996
0
LINE
8
BLACK
6
CONTINUOUS
10
5.49622
20
-3.13996
11
5.49772
21
-3.14071
0
LINE
8
BLACK
6
CONTINUOUS
10
5.49772
20
-3.14071
11
5.49784
21
-3.14086
0
LINE
8
BLACK
6
CONTINUOUS
10
5.49784
20
-3.14086
11
5.49802
21
-3.14094
0
LINE
8
BLACK
6
CONTINUOUS
10
5.49802
20
-3.14094
11
5.49877
21
-3.14169
0
LINE
8
BLACK
6
CONTINUOUS
10
5.49877
20
-3.14169
11
5.49912
21
-3.14252
0
LINE
8
BLACK
6
CONTINUOUS
10
5.49912
20
-3.14252
11
5.49877
21
-3.14336
0
LINE
8
BLACK
6
CONTINUOUS
10
5.49877
20
-3.14336
11
5.49794
21
-3.1437
0
LINE
8
BLACK
6
CONTINUOUS
10
5.49794
20
-3.1437
11
5.4971
21
-3.14336
0
LINE
8
BLACK
6
CONTINUOUS
10
5.4971
20
-3.14336
11
5.49649
21
-3.14274
0
LINE
8
BLACK
6
CONTINUOUS
10
5.49649
20
-3.14274
11
5.49541
21
-3.1422
0
LINE
8
BLACK
6
CONTINUOUS
10
5.49541
20
-3.1422
11
5.49222
21
-3.1422
0
LINE
8
BLACK
6
CONTINUOUS
10
5.49222
20
-3.1422
11
5.49114
21
-3.14274
0
LINE
8
BLACK
6
CONTINUOUS
10
5.49114
20
-3.14274
11
5.49066
21
-3.14322
0
LINE
8
BLACK
6
CONTINUOUS
10
5.49066
20
-3.14322
11
5.49012
21
-3.1443
0
LINE
8
BLACK
6
CONTINUOUS
10
5.49012
20
-3.1443
11
5.49012
21
-3.14533
0
LINE
8
BLACK
6
CONTINUOUS
10
5.49012
20
-3.14533
11
5.49072
21
-3.14713
0
LINE
8
BLACK
6
CONTINUOUS
10
5.49072
20
-3.14713
11
5.49952
21
-3.15593
0
LINE
8
BLACK
6
CONTINUOUS
10
5.49952
20
-3.15593
11
5.49987
21
-3.15677
0
LINE
8
BLACK
6
CONTINUOUS
10
5.49987
20
-3.15677
11
5.49952
21
-3.1576
0
LINE
8
BLACK
6
CONTINUOUS
10
5.49952
20
-3.1576
11
5.49869
21
-3.15795
0
LINE
8
BLACK
6
CONTINUOUS
10
5.49869
20
-3.15795
11
5.48894
21
-3.15795
0
LINE
8
BLACK
6
CONTINUOUS
10
5.48894
20
-3.15795
11
5.4881
21
-3.1576
0
LINE
8
BLACK
6
CONTINUOUS
10
5.4881
20
-3.1576
11
5.48776
21
-3.15677
0
LINE
8
BLACK
6
CONTINUOUS
10
5.48776
20
-3.15677
11
5.4881
21
-3.15593
0
LINE
8
BLACK
6
CONTINUOUS
10
5.4881
20
-3.15593
11
5.48894
21
-3.15559
0
LINE
8
BLACK
6
CONTINUOUS
10
5.48894
20
-3.15559
11
5.49584
21
-3.15559
0
LINE
8
BLACK
6
CONTINUOUS
10
5.49584
20
-3.15559
11
5.48885
21
-3.14861
0
LINE
8
BLACK
6
CONTINUOUS
10
5.48885
20
-3.14861
11
5.48875
21
-3.14835
0
LINE
8
BLACK
6
CONTINUOUS
10
5.48875
20
-3.14835
11
5.48857
21
-3.14814
0
LINE
8
BLACK
6
CONTINUOUS
10
5.48857
20
-3.14814
11
5.48782
21
-3.14589
0
LINE
8
BLACK
6
CONTINUOUS
10
5.48782
20
-3.14589
11
5.48783
21
-3.1457
0
LINE
8
BLACK
6
CONTINUOUS
10
5.48783
20
-3.1457
11
5.48776
21
-3.14552
0
LINE
8
BLACK
6
CONTINUOUS
10
5.48776
20
-3.14552
11
5.48776
21
-3.14402
0
LINE
8
BLACK
6
CONTINUOUS
10
5.48776
20
-3.14402
11
5.48786
21
-3.14377
0
LINE
8
BLACK
6
CONTINUOUS
10
5.48786
20
-3.14377
11
5.48788
21
-3.14349
0
LINE
8
BLACK
6
CONTINUOUS
10
5.48788
20
-3.14349
11
5.48863
21
-3.14199
0
LINE
8
BLACK
6
CONTINUOUS
10
5.48863
20
-3.14199
11
5.48878
21
-3.14187
0
LINE
8
BLACK
6
CONTINUOUS
10
5.48878
20
-3.14187
11
5.48885
21
-3.14169
0
LINE
8
BLACK
6
CONTINUOUS
10
5.48885
20
-3.14169
11
5.4896
21
-3.14094
0
LINE
8
BLACK
6
CONTINUOUS
10
5.4896
20
-3.14094
11
5.48978
21
-3.14086
0
LINE
8
BLACK
6
CONTINUOUS
10
5.48978
20
-3.14086
11
5.48991
21
-3.14071
0
LINE
8
BLACK
6
CONTINUOUS
10
5.48991
20
-3.14071
11
5.49141
21
-3.13996
0
LINE
8
BLACK
6
CONTINUOUS
10
5.49141
20
-3.13996
11
5.49168
21
-3.13994
0
LINE
8
BLACK
6
CONTINUOUS
10
5.49168
20
-3.13994
11
5.49194
21
-3.13984
0
LINE
8
BLACK
6
CONTINUOUS
10
5.49194
20
-3.13984
11
5.49569
21
-3.13984
0
LINE
8
BLACK
6
CONTINUOUS
10
5.49569
20
-3.13984
11
5.49594
21
-3.13994
0
LINE
8
BLACK
6
CONTINUOUS
10
5.51377
20
-3.14019
11
5.51412
21
-3.14102
0
LINE
8
BLACK
6
CONTINUOUS
10
5.51412
20
-3.14102
11
5.51412
21
-3.15677
0
LINE
8
BLACK
6
CONTINUOUS
10
5.51412
20
-3.15677
11
5.51377
21
-3.1576
0
LINE
8
BLACK
6
CONTINUOUS
10
5.51377
20
-3.1576
11
5.51294
21
-3.15795
0
LINE
8
BLACK
6
CONTINUOUS
10
5.51294
20
-3.15795
11
5.50919
21
-3.15795
0
LINE
8
BLACK
6
CONTINUOUS
10
5.50919
20
-3.15795
11
5.50901
21
-3.15788
0
LINE
8
BLACK
6
CONTINUOUS
10
5.50901
20
-3.15788
11
5.50881
21
-3.15789
0
LINE
8
BLACK
6
CONTINUOUS
10
5.50881
20
-3.15789
11
5.50656
21
-3.15714
0
LINE
8
BLACK
6
CONTINUOUS
10
5.50656
20
-3.15714
11
5.50636
21
-3.15696
0
LINE
8
BLACK
6
CONTINUOUS
10
5.50636
20
-3.15696
11
5.5061
21
-3.15685
0
LINE
8
BLACK
6
CONTINUOUS
10
5.5061
20
-3.15685
11
5.5046
21
-3.15535
0
LINE
8
BLACK
6
CONTINUOUS
10
5.5046
20
-3.15535
11
5.50453
21
-3.15517
0
LINE
8
BLACK
6
CONTINUOUS
10
5.50453
20
-3.15517
11
5.50438
21
-3.15505
0
LINE
8
BLACK
6
CONTINUOUS
10
5.50438
20
-3.15505
11
5.50363
21
-3.15355
0
LINE
8
BLACK
6
CONTINUOUS
10
5.50363
20
-3.15355
11
5.50362
21
-3.15341
0
LINE
8
BLACK
6
CONTINUOUS
10
5.50362
20
-3.15341
11
5.50354
21
-3.15331
0
LINE
8
BLACK
6
CONTINUOUS
10
5.50354
20
-3.15331
11
5.50279
21
-3.15031
0
LINE
8
BLACK
6
CONTINUOUS
10
5.50279
20
-3.15031
11
5.50281
21
-3.15016
0
LINE
8
BLACK
6
CONTINUOUS
10
5.50281
20
-3.15016
11
5.50276
21
-3.15002
0
LINE
8
BLACK
6
CONTINUOUS
10
5.50276
20
-3.15002
11
5.50276
21
-3.14777
0
LINE
8
BLACK
6
CONTINUOUS
10
5.50276
20
-3.14777
11
5.50281
21
-3.14763
0
LINE
8
BLACK
6
CONTINUOUS
10
5.50281
20
-3.14763
11
5.50279
21
-3.14748
0
LINE
8
BLACK
6
CONTINUOUS
10
5.50279
20
-3.14748
11
5.50354
21
-3.14448
0
LINE
8
BLACK
6
CONTINUOUS
10
5.50354
20
-3.14448
11
5.50362
21
-3.14438
0
LINE
8
BLACK
6
CONTINUOUS
10
5.50362
20
-3.14438
11
5.50363
21
-3.14424
0
LINE
8
BLACK
6
CONTINUOUS
10
5.50363
20
-3.14424
11
5.50438
21
-3.14274
0
LINE
8
BLACK
6
CONTINUOUS
10
5.50438
20
-3.14274
11
5.50453
21
-3.14261
0
LINE
8
BLACK
6
CONTINUOUS
10
5.50453
20
-3.14261
11
5.5046
21
-3.14244
0
LINE
8
BLACK
6
CONTINUOUS
10
5.5046
20
-3.14244
11
5.5061
21
-3.14094
0
LINE
8
BLACK
6
CONTINUOUS
10
5.5061
20
-3.14094
11
5.50636
21
-3.14083
0
LINE
8
BLACK
6
CONTINUOUS
10
5.50636
20
-3.14083
11
5.50656
21
-3.14065
0
LINE
8
BLACK
6
CONTINUOUS
10
5.50656
20
-3.14065
11
5.50881
21
-3.1399
0
LINE
8
BLACK
6
CONTINUOUS
10
5.50881
20
-3.1399
11
5.50901
21
-3.13991
0
LINE
8
BLACK
6
CONTINUOUS
10
5.50901
20
-3.13991
11
5.50919
21
-3.13984
0
LINE
8
BLACK
6
CONTINUOUS
10
5.50919
20
-3.13984
11
5.51294
21
-3.13984
0
LINE
8
BLACK
6
CONTINUOUS
10
5.51294
20
-3.13984
11
5.51377
21
-3.14019
0
LINE
8
BLACK
6
CONTINUOUS
10
5.50757
20
-3.1428
11
5.50641
21
-3.14397
0
LINE
8
BLACK
6
CONTINUOUS
10
5.50641
20
-3.14397
11
5.5058
21
-3.14518
0
LINE
8
BLACK
6
CONTINUOUS
10
5.5058
20
-3.14518
11
5.50512
21
-3.14792
0
LINE
8
BLACK
6
CONTINUOUS
10
5.50512
20
-3.14792
11
5.50512
21
-3.14987
0
LINE
8
BLACK
6
CONTINUOUS
10
5.50512
20
-3.14987
11
5.5058
21
-3.15261
0
LINE
8
BLACK
6
CONTINUOUS
10
5.5058
20
-3.15261
11
5.50641
21
-3.15382
0
LINE
8
BLACK
6
CONTINUOUS
10
5.50641
20
-3.15382
11
5.50757
21
-3.15499
0
LINE
8
BLACK
6
CONTINUOUS
10
5.50757
20
-3.15499
11
5.50938
21
-3.15559
0
LINE
8
BLACK
6
CONTINUOUS
10
5.50938
20
-3.15559
11
5.51175
21
-3.15559
0
LINE
8
BLACK
6
CONTINUOUS
10
5.51175
20
-3.15559
11
5.51175
21
-3.1422
0
LINE
8
BLACK
6
CONTINUOUS
10
5.51175
20
-3.1422
11
5.50938
21
-3.1422
0
LINE
8
BLACK
6
CONTINUOUS
10
5.50938
20
-3.1422
11
5.50757
21
-3.1428
0
LINE
8
BLACK
6
CONTINUOUS
10
5.52127
20
-3.14019
11
5.52162
21
-3.14102
0
LINE
8
BLACK
6
CONTINUOUS
10
5.52162
20
-3.14102
11
5.52162
21
-3.15677
0
LINE
8
BLACK
6
CONTINUOUS
10
5.52162
20
-3.15677
11
5.52127
21
-3.1576
0
LINE
8
BLACK
6
CONTINUOUS
10
5.52127
20
-3.1576
11
5.52043
21
-3.15795
0
LINE
8
BLACK
6
CONTINUOUS
10
5.52043
20
-3.15795
11
5.5196
21
-3.1576
0
LINE
8
BLACK
6
CONTINUOUS
10
5.5196
20
-3.1576
11
5.51925
21
-3.15677
0
LINE
8
BLACK
6
CONTINUOUS
10
5.51925
20
-3.15677
11
5.51925
21
-3.14102
0
LINE
8
BLACK
6
CONTINUOUS
10
5.51925
20
-3.14102
11
5.5196
21
-3.14019
0
LINE
8
BLACK
6
CONTINUOUS
10
5.5196
20
-3.14019
11
5.52043
21
-3.13984
0
LINE
8
BLACK
6
CONTINUOUS
10
5.52043
20
-3.13984
11
5.52127
21
-3.14019
0
LINE
8
BLACK
6
CONTINUOUS
10
5.53477
20
-3.14019
11
5.53511
21
-3.14102
0
LINE
8
BLACK
6
CONTINUOUS
10
5.53511
20
-3.14102
11
5.53511
21
-3.15677
0
LINE
8
BLACK
6
CONTINUOUS
10
5.53511
20
-3.15677
11
5.53477
21
-3.1576
0
LINE
8
BLACK
6
CONTINUOUS
10
5.53477
20
-3.1576
11
5.53393
21
-3.15795
0
LINE
8
BLACK
6
CONTINUOUS
10
5.53393
20
-3.15795
11
5.5331
21
-3.1576
0
LINE
8
BLACK
6
CONTINUOUS
10
5.5331
20
-3.1576
11
5.53275
21
-3.15677
0
LINE
8
BLACK
6
CONTINUOUS
10
5.53275
20
-3.15677
11
5.53275
21
-3.1497
0
LINE
8
BLACK
6
CONTINUOUS
10
5.53275
20
-3.1497
11
5.52868
21
-3.1497
0
LINE
8
BLACK
6
CONTINUOUS
10
5.52868
20
-3.1497
11
5.52785
21
-3.14935
0
LINE
8
BLACK
6
CONTINUOUS
10
5.52785
20
-3.14935
11
5.5275
21
-3.14852
0
LINE
8
BLACK
6
CONTINUOUS
10
5.5275
20
-3.14852
11
5.52785
21
-3.14768
0
LINE
8
BLACK
6
CONTINUOUS
10
5.52785
20
-3.14768
11
5.52868
21
-3.14734
0
LINE
8
BLACK
6
CONTINUOUS
10
5.52868
20
-3.14734
11
5.53275
21
-3.14734
0
LINE
8
BLACK
6
CONTINUOUS
10
5.53275
20
-3.14734
11
5.53275
21
-3.1422
0
LINE
8
BLACK
6
CONTINUOUS
10
5.53275
20
-3.1422
11
5.52643
21
-3.1422
0
LINE
8
BLACK
6
CONTINUOUS
10
5.52643
20
-3.1422
11
5.5256
21
-3.14186
0
LINE
8
BLACK
6
CONTINUOUS
10
5.5256
20
-3.14186
11
5.52525
21
-3.14102
0
LINE
8
BLACK
6
CONTINUOUS
10
5.52525
20
-3.14102
11
5.5256
21
-3.14019
0
LINE
8
BLACK
6
CONTINUOUS
10
5.5256
20
-3.14019
11
5.52643
21
-3.13984
0
LINE
8
BLACK
6
CONTINUOUS
10
5.52643
20
-3.13984
11
5.53393
21
-3.13984
0
LINE
8
BLACK
6
CONTINUOUS
10
5.53393
20
-3.13984
11
5.53477
21
-3.14019
0
LINE
8
BLACK
6
CONTINUOUS
10
5.51988
20
-3.10906
11
5.52763
21
-3.11141
0
LINE
8
BLACK
6
CONTINUOUS
10
5.52763
20
-3.11141
11
5.53478
21
-3.11523
0
LINE
8
BLACK
6
CONTINUOUS
10
5.53478
20
-3.11523
11
5.54104
21
-3.12038
0
LINE
8
BLACK
6
CONTINUOUS
10
5.54104
20
-3.12038
11
5.54618
21
-3.12664
0
LINE
8
BLACK
6
CONTINUOUS
10
5.54618
20
-3.12664
11
5.55
21
-3.13379
0
LINE
8
BLACK
6
CONTINUOUS
10
5.55
20
-3.13379
11
5.55236
21
-3.14154
0
LINE
8
BLACK
6
CONTINUOUS
10
5.55236
20
-3.14154
11
5.55315
21
-3.14961
0
LINE
8
BLACK
6
CONTINUOUS
10
5.55315
20
-3.14961
11
5.55236
21
-3.15767
0
LINE
8
BLACK
6
CONTINUOUS
10
5.55236
20
-3.15767
11
5.55
21
-3.16543
0
LINE
8
BLACK
6
CONTINUOUS
10
5.55
20
-3.16543
11
5.54618
21
-3.17257
0
LINE
8
BLACK
6
CONTINUOUS
10
5.54618
20
-3.17257
11
5.54104
21
-3.17884
0
LINE
8
BLACK
6
CONTINUOUS
10
5.54104
20
-3.17884
11
5.53478
21
-3.18398
0
LINE
8
BLACK
6
CONTINUOUS
10
5.53478
20
-3.18398
11
5.52763
21
-3.1878
0
LINE
8
BLACK
6
CONTINUOUS
10
5.52763
20
-3.1878
11
5.51988
21
-3.19015
0
LINE
8
BLACK
6
CONTINUOUS
10
5.51988
20
-3.19015
11
5.51181
21
-3.19094
0
LINE
8
BLACK
6
CONTINUOUS
10
5.51181
20
-3.19094
11
5.50375
21
-3.19015
0
LINE
8
BLACK
6
CONTINUOUS
10
5.50375
20
-3.19015
11
5.49599
21
-3.1878
0
LINE
8
BLACK
6
CONTINUOUS
10
5.49599
20
-3.1878
11
5.48884
21
-3.18398
0
LINE
8
BLACK
6
CONTINUOUS
10
5.48884
20
-3.18398
11
5.48258
21
-3.17884
0
LINE
8
BLACK
6
CONTINUOUS
10
5.48258
20
-3.17884
11
5.47744
21
-3.17257
0
LINE
8
BLACK
6
CONTINUOUS
10
5.47744
20
-3.17257
11
5.47362
21
-3.16543
0
LINE
8
BLACK
6
CONTINUOUS
10
5.47362
20
-3.16543
11
5.47127
21
-3.15767
0
LINE
8
BLACK
6
CONTINUOUS
10
5.47127
20
-3.15767
11
5.47047
21
-3.14961
0
LINE
8
BLACK
6
CONTINUOUS
10
5.47047
20
-3.14961
11
5.47127
21
-3.14154
0
LINE
8
BLACK
6
CONTINUOUS
10
5.47127
20
-3.14154
11
5.47362
21
-3.13379
0
LINE
8
BLACK
6
CONTINUOUS
10
5.47362
20
-3.13379
11
5.47744
21
-3.12664
0
LINE
8
BLACK
6
CONTINUOUS
10
5.47744
20
-3.12664
11
5.48258
21
-3.12038
0
LINE
8
BLACK
6
CONTINUOUS
10
5.48258
20
-3.12038
11
5.48884
21
-3.11523
0
LINE
8
BLACK
6
CONTINUOUS
10
5.48884
20
-3.11523
11
5.49599
21
-3.11141
0
LINE
8
BLACK
6
CONTINUOUS
10
5.49599
20
-3.11141
11
5.50375
21
-3.10906
0
LINE
8
BLACK
6
CONTINUOUS
10
5.50375
20
-3.10906
11
5.51181
21
-3.10827
0
LINE
8
BLACK
6
CONTINUOUS
10
5.51181
20
-3.10827
11
5.51988
21
-3.10906
0
LINE
8
BLACK
6
CONTINUOUS
10
5.47495
20
-3.15694
11
5.47709
21
-3.16399
0
LINE
8
BLACK
6
CONTINUOUS
10
5.47709
20
-3.16399
11
5.48056
21
-3.17049
0
LINE
8
BLACK
6
CONTINUOUS
10
5.48056
20
-3.17049
11
5.48524
21
-3.17618
0
LINE
8
BLACK
6
CONTINUOUS
10
5.48524
20
-3.17618
11
5.49093
21
-3.18086
0
LINE
8
BLACK
6
CONTINUOUS
10
5.49093
20
-3.18086
11
5.49743
21
-3.18433
0
LINE
8
BLACK
6
CONTINUOUS
10
5.49743
20
-3.18433
11
5.50448
21
-3.18647
0
LINE
8
BLACK
6
CONTINUOUS
10
5.50448
20
-3.18647
11
5.51181
21
-3.18719
0
LINE
8
BLACK
6
CONTINUOUS
10
5.51181
20
-3.18719
11
5.51914
21
-3.18647
0
LINE
8
BLACK
6
CONTINUOUS
10
5.51914
20
-3.18647
11
5.52619
21
-3.18433
0
LINE
8
BLACK
6
CONTINUOUS
10
5.52619
20
-3.18433
11
5.53269
21
-3.18086
0
LINE
8
BLACK
6
CONTINUOUS
10
5.53269
20
-3.18086
11
5.53839
21
-3.17618
0
LINE
8
BLACK
6
CONTINUOUS
10
5.53839
20
-3.17618
11
5.54306
21
-3.17049
0
LINE
8
BLACK
6
CONTINUOUS
10
5.54306
20
-3.17049
11
5.54653
21
-3.16399
0
LINE
8
BLACK
6
CONTINUOUS
10
5.54653
20
-3.16399
11
5.54867
21
-3.15694
0
LINE
8
BLACK
6
CONTINUOUS
10
5.54867
20
-3.15694
11
5.54939
21
-3.14961
0
LINE
8
BLACK
6
CONTINUOUS
10
5.54939
20
-3.14961
11
5.54867
21
-3.14227
0
LINE
8
BLACK
6
CONTINUOUS
10
5.54867
20
-3.14227
11
5.54653
21
-3.13522
0
LINE
8
BLACK
6
CONTINUOUS
10
5.54653
20
-3.13522
11
5.54306
21
-3.12873
0
LINE
8
BLACK
6
CONTINUOUS
10
5.54306
20
-3.12873
11
5.53839
21
-3.12303
0
LINE
8
BLACK
6
CONTINUOUS
10
5.53839
20
-3.12303
11
5.53269
21
-3.11836
0
LINE
8
BLACK
6
CONTINUOUS
10
5.53269
20
-3.11836
11
5.52619
21
-3.11488
0
LINE
8
BLACK
6
CONTINUOUS
10
5.52619
20
-3.11488
11
5.51914
21
-3.11275
0
LINE
8
BLACK
6
CONTINUOUS
10
5.51914
20
-3.11275
11
5.51181
21
-3.11202
0
LINE
8
BLACK
6
CONTINUOUS
10
5.51181
20
-3.11202
11
5.50448
21
-3.11275
0
LINE
8
BLACK
6
CONTINUOUS
10
5.50448
20
-3.11275
11
5.49743
21
-3.11488
0
LINE
8
BLACK
6
CONTINUOUS
10
5.49743
20
-3.11488
11
5.49093
21
-3.11836
0
LINE
8
BLACK
6
CONTINUOUS
10
5.49093
20
-3.11836
11
5.48524
21
-3.12303
0
LINE
8
BLACK
6
CONTINUOUS
10
5.48524
20
-3.12303
11
5.48056
21
-3.12873
0
LINE
8
BLACK
6
CONTINUOUS
10
5.48056
20
-3.12873
11
5.47709
21
-3.13522
0
LINE
8
BLACK
6
CONTINUOUS
10
5.47709
20
-3.13522
11
5.47495
21
-3.14227
0
LINE
8
BLACK
6
CONTINUOUS
10
5.47495
20
-3.14227
11
5.47423
21
-3.14961
0
LINE
8
BLACK
6
CONTINUOUS
10
5.47423
20
-3.14961
11
5.47495
21
-3.15694
  0
ENDSEC
  0
EOF
