  0
SECTION
  2
HEADER
  9
$ANGBASE
  50
0.0
  9
$ANGDIR
  70
1
  9
$MEASUREMENT
  70
0
  0
ENDSEC
  0
SECTION
  2
TABLES
  0
TABLE
  2
LTYPE
  70
4
  0
LTYPE
  5
40F
  2
CONTINUOUS
  70
0
  3
Solid line
  72
65
  73
0
  40
0.0
  0
LTYPE
  5
410
  2
DASHDOT
 70
0
  3
Dash Dot ____ _ ____ _
 72
65
 73
4
 40
2.0
 49
1.25
 49
-0.25
 49
0.25
 49
-0.25
  0
LTYPE
  5
411
  2
DASHED
 70
0
  3
Dashed __ __ __ __ __
 72
65
 73
2
 40
0.75
 49
0.5
 49
-0.25
  0
LTYPE
  5
43B
  2
DOTTED
 70
0
  3
Dotted .  .  .  .
 72
65
 73
2
 40
0.2
 49
0.0
 49
-0.2
  0
ENDTAB
  0
TABLE
  2
STYLE
  70
4
  0
STYLE
  2
KICAD
  70
0
  40
0
  41
1
  42
1
  50
0
  71
0
  3
isocp.shx
  0
STYLE
  2
KICADB
  70
0
  40
0
  41
1
  42
1
  50
0
  71
0
  3
isocp.shx
  0
STYLE
  2
KICADI
  70
0
  40
0
  41
1
  42
1
  50
15
  71
0
  3
isocp.shx
  0
STYLE
  2
KICADBI
  70
0
  40
0
  41
1
  42
1
  50
15
  71
0
  3
isocp.shx
  0
ENDTAB
  0
TABLE
  2
LAYER
  70
1
  0
LAYER
  2
BLACK
  70
0
  62
7
  6
CONTINUOUS
  0
ENDTAB
  0
ENDSEC
  0
SECTION
  2
ENTITIES
0
LINE
8
BLACK
6
CONTINUOUS
10
5.5378
20
-3.66185
11
5.5122
21
-3.66185
0
LINE
8
BLACK
6
CONTINUOUS
10
5.5122
20
-3.66185
11
5.5122
21
-3.59689
0
LINE
8
BLACK
6
CONTINUOUS
10
5.5122
20
-3.59689
11
5.5378
21
-3.59689
0
LINE
8
BLACK
6
CONTINUOUS
10
5.5378
20
-3.59689
11
5.5378
21
-3.66185
0
LINE
8
BLACK
6
CONTINUOUS
10
5.5878
20
-3.66185
11
5.5622
21
-3.66185
0
LINE
8
BLACK
6
CONTINUOUS
10
5.5622
20
-3.66185
11
5.5622
21
-3.59689
0
LINE
8
BLACK
6
CONTINUOUS
10
5.5622
20
-3.59689
11
5.5878
21
-3.59689
0
LINE
8
BLACK
6
CONTINUOUS
10
5.5878
20
-3.59689
11
5.5878
21
-3.66185
0
LINE
8
BLACK
6
CONTINUOUS
10
5.6378
20
-3.66185
11
5.6122
21
-3.66185
0
LINE
8
BLACK
6
CONTINUOUS
10
5.6122
20
-3.66185
11
5.6122
21
-3.59689
0
LINE
8
BLACK
6
CONTINUOUS
10
5.6122
20
-3.59689
11
5.6378
21
-3.59689
0
LINE
8
BLACK
6
CONTINUOUS
10
5.6378
20
-3.59689
11
5.6378
21
-3.66185
0
LINE
8
BLACK
6
CONTINUOUS
10
5.6878
20
-3.66185
11
5.6622
21
-3.66185
0
LINE
8
BLACK
6
CONTINUOUS
10
5.6622
20
-3.66185
11
5.6622
21
-3.59689
0
LINE
8
BLACK
6
CONTINUOUS
10
5.6622
20
-3.59689
11
5.6878
21
-3.59689
0
LINE
8
BLACK
6
CONTINUOUS
10
5.6878
20
-3.59689
11
5.6878
21
-3.66185
0
LINE
8
BLACK
6
CONTINUOUS
10
5.5378
20
-3.37248
11
5.5122
21
-3.37248
0
LINE
8
BLACK
6
CONTINUOUS
10
5.5122
20
-3.37248
11
5.5122
21
-3.30752
0
LINE
8
BLACK
6
CONTINUOUS
10
5.5122
20
-3.30752
11
5.5378
21
-3.30752
0
LINE
8
BLACK
6
CONTINUOUS
10
5.5378
20
-3.30752
11
5.5378
21
-3.37248
0
LINE
8
BLACK
6
CONTINUOUS
10
5.5878
20
-3.37248
11
5.5622
21
-3.37248
0
LINE
8
BLACK
6
CONTINUOUS
10
5.5622
20
-3.37248
11
5.5622
21
-3.30752
0
LINE
8
BLACK
6
CONTINUOUS
10
5.5622
20
-3.30752
11
5.5878
21
-3.30752
0
LINE
8
BLACK
6
CONTINUOUS
10
5.5878
20
-3.30752
11
5.5878
21
-3.37248
0
LINE
8
BLACK
6
CONTINUOUS
10
5.6378
20
-3.37248
11
5.6122
21
-3.37248
0
LINE
8
BLACK
6
CONTINUOUS
10
5.6122
20
-3.37248
11
5.6122
21
-3.30752
0
LINE
8
BLACK
6
CONTINUOUS
10
5.6122
20
-3.30752
11
5.6378
21
-3.30752
0
LINE
8
BLACK
6
CONTINUOUS
10
5.6378
20
-3.30752
11
5.6378
21
-3.37248
0
LINE
8
BLACK
6
CONTINUOUS
10
5.6878
20
-3.37248
11
5.6622
21
-3.37248
0
LINE
8
BLACK
6
CONTINUOUS
10
5.6622
20
-3.37248
11
5.6622
21
-3.30752
0
LINE
8
BLACK
6
CONTINUOUS
10
5.6622
20
-3.30752
11
5.6878
21
-3.30752
0
LINE
8
BLACK
6
CONTINUOUS
10
5.6878
20
-3.30752
11
5.6878
21
-3.37248
0
LINE
8
BLACK
6
CONTINUOUS
10
5.60621
20
-3.22221
11
5.6094
21
-3.22434
0
LINE
8
BLACK
6
CONTINUOUS
10
5.6094
20
-3.22434
11
5.61153
21
-3.22753
0
LINE
8
BLACK
6
CONTINUOUS
10
5.61153
20
-3.22753
11
5.61228
21
-3.2313
0
LINE
8
BLACK
6
CONTINUOUS
10
5.61228
20
-3.2313
11
5.61228
21
-3.2687
0
LINE
8
BLACK
6
CONTINUOUS
10
5.61228
20
-3.2687
11
5.61153
21
-3.27247
0
LINE
8
BLACK
6
CONTINUOUS
10
5.61153
20
-3.27247
11
5.6094
21
-3.27566
0
LINE
8
BLACK
6
CONTINUOUS
10
5.6094
20
-3.27566
11
5.60621
21
-3.27779
0
LINE
8
BLACK
6
CONTINUOUS
10
5.60621
20
-3.27779
11
5.60244
21
-3.27854
0
LINE
8
BLACK
6
CONTINUOUS
10
5.60244
20
-3.27854
11
5.58276
21
-3.27854
0
LINE
8
BLACK
6
CONTINUOUS
10
5.58276
20
-3.27854
11
5.57899
21
-3.27779
0
LINE
8
BLACK
6
CONTINUOUS
10
5.57899
20
-3.27779
11
5.5758
21
-3.27566
0
LINE
8
BLACK
6
CONTINUOUS
10
5.5758
20
-3.27566
11
5.57366
21
-3.27247
0
LINE
8
BLACK
6
CONTINUOUS
10
5.57366
20
-3.27247
11
5.57291
21
-3.2687
0
LINE
8
BLACK
6
CONTINUOUS
10
5.57291
20
-3.2687
11
5.57291
21
-3.2313
0
LINE
8
BLACK
6
CONTINUOUS
10
5.57291
20
-3.2313
11
5.57366
21
-3.22753
0
LINE
8
BLACK
6
CONTINUOUS
10
5.57366
20
-3.22753
11
5.5758
21
-3.22434
0
LINE
8
BLACK
6
CONTINUOUS
10
5.5758
20
-3.22434
11
5.57899
21
-3.22221
0
LINE
8
BLACK
6
CONTINUOUS
10
5.57899
20
-3.22221
11
5.58276
21
-3.22146
0
LINE
8
BLACK
6
CONTINUOUS
10
5.58276
20
-3.22146
11
5.60244
21
-3.22146
0
LINE
8
BLACK
6
CONTINUOUS
10
5.60244
20
-3.22146
11
5.60621
21
-3.22221
0
LINE
8
BLACK
6
CONTINUOUS
10
5.68101
20
-3.22221
11
5.6842
21
-3.22434
0
LINE
8
BLACK
6
CONTINUOUS
10
5.6842
20
-3.22434
11
5.68634
21
-3.22753
0
LINE
8
BLACK
6
CONTINUOUS
10
5.68634
20
-3.22753
11
5.68709
21
-3.2313
0
LINE
8
BLACK
6
CONTINUOUS
10
5.68709
20
-3.2313
11
5.68709
21
-3.2687
0
LINE
8
BLACK
6
CONTINUOUS
10
5.68709
20
-3.2687
11
5.68634
21
-3.27247
0
LINE
8
BLACK
6
CONTINUOUS
10
5.68634
20
-3.27247
11
5.6842
21
-3.27566
0
LINE
8
BLACK
6
CONTINUOUS
10
5.6842
20
-3.27566
11
5.68101
21
-3.27779
0
LINE
8
BLACK
6
CONTINUOUS
10
5.68101
20
-3.27779
11
5.67724
21
-3.27854
0
LINE
8
BLACK
6
CONTINUOUS
10
5.67724
20
-3.27854
11
5.65756
21
-3.27854
0
LINE
8
BLACK
6
CONTINUOUS
10
5.65756
20
-3.27854
11
5.65379
21
-3.27779
0
LINE
8
BLACK
6
CONTINUOUS
10
5.65379
20
-3.27779
11
5.6506
21
-3.27566
0
LINE
8
BLACK
6
CONTINUOUS
10
5.6506
20
-3.27566
11
5.64847
21
-3.27247
0
LINE
8
BLACK
6
CONTINUOUS
10
5.64847
20
-3.27247
11
5.64772
21
-3.2687
0
LINE
8
BLACK
6
CONTINUOUS
10
5.64772
20
-3.2687
11
5.64772
21
-3.2313
0
LINE
8
BLACK
6
CONTINUOUS
10
5.64772
20
-3.2313
11
5.64847
21
-3.22753
0
LINE
8
BLACK
6
CONTINUOUS
10
5.64847
20
-3.22753
11
5.6506
21
-3.22434
0
LINE
8
BLACK
6
CONTINUOUS
10
5.6506
20
-3.22434
11
5.65379
21
-3.22221
0
LINE
8
BLACK
6
CONTINUOUS
10
5.65379
20
-3.22221
11
5.65756
21
-3.22146
0
LINE
8
BLACK
6
CONTINUOUS
10
5.65756
20
-3.22146
11
5.67724
21
-3.22146
0
LINE
8
BLACK
6
CONTINUOUS
10
5.67724
20
-3.22146
11
5.68101
21
-3.22221
0
LINE
8
BLACK
6
CONTINUOUS
10
5.35173
20
-3.25543
11
5.25331
21
-3.25543
0
LINE
8
BLACK
6
CONTINUOUS
10
5.25331
20
-3.25543
11
5.25331
21
-3.18457
0
LINE
8
BLACK
6
CONTINUOUS
10
5.25331
20
-3.18457
11
5.35173
21
-3.18457
0
LINE
8
BLACK
6
CONTINUOUS
10
5.35173
20
-3.18457
11
5.35173
21
-3.25543
0
LINE
8
BLACK
6
CONTINUOUS
10
5.50921
20
-3.25543
11
5.41079
21
-3.25543
0
LINE
8
BLACK
6
CONTINUOUS
10
5.41079
20
-3.25543
11
5.41079
21
-3.18457
0
LINE
8
BLACK
6
CONTINUOUS
10
5.41079
20
-3.18457
11
5.50921
21
-3.18457
0
LINE
8
BLACK
6
CONTINUOUS
10
5.50921
20
-3.18457
11
5.50921
21
-3.25543
0
LINE
8
BLACK
6
CONTINUOUS
10
5.60881
20
-3.14221
11
5.612
21
-3.14434
0
LINE
8
BLACK
6
CONTINUOUS
10
5.612
20
-3.14434
11
5.61413
21
-3.14753
0
LINE
8
BLACK
6
CONTINUOUS
10
5.61413
20
-3.14753
11
5.61488
21
-3.1513
0
LINE
8
BLACK
6
CONTINUOUS
10
5.61488
20
-3.1513
11
5.61488
21
-3.1887
0
LINE
8
BLACK
6
CONTINUOUS
10
5.61488
20
-3.1887
11
5.61413
21
-3.19247
0
LINE
8
BLACK
6
CONTINUOUS
10
5.61413
20
-3.19247
11
5.612
21
-3.19566
0
LINE
8
BLACK
6
CONTINUOUS
10
5.612
20
-3.19566
11
5.60881
21
-3.19779
0
LINE
8
BLACK
6
CONTINUOUS
10
5.60881
20
-3.19779
11
5.60504
21
-3.19854
0
LINE
8
BLACK
6
CONTINUOUS
10
5.60504
20
-3.19854
11
5.58535
21
-3.19854
0
LINE
8
BLACK
6
CONTINUOUS
10
5.58535
20
-3.19854
11
5.58159
21
-3.19779
0
LINE
8
BLACK
6
CONTINUOUS
10
5.58159
20
-3.19779
11
5.57839
21
-3.19566
0
LINE
8
BLACK
6
CONTINUOUS
10
5.57839
20
-3.19566
11
5.57626
21
-3.19247
0
LINE
8
BLACK
6
CONTINUOUS
10
5.57626
20
-3.19247
11
5.57551
21
-3.1887
0
LINE
8
BLACK
6
CONTINUOUS
10
5.57551
20
-3.1887
11
5.57551
21
-3.1513
0
LINE
8
BLACK
6
CONTINUOUS
10
5.57551
20
-3.1513
11
5.57626
21
-3.14753
0
LINE
8
BLACK
6
CONTINUOUS
10
5.57626
20
-3.14753
11
5.57839
21
-3.14434
0
LINE
8
BLACK
6
CONTINUOUS
10
5.57839
20
-3.14434
11
5.58159
21
-3.14221
0
LINE
8
BLACK
6
CONTINUOUS
10
5.58159
20
-3.14221
11
5.58535
21
-3.14146
0
LINE
8
BLACK
6
CONTINUOUS
10
5.58535
20
-3.14146
11
5.60504
21
-3.14146
0
LINE
8
BLACK
6
CONTINUOUS
10
5.60504
20
-3.14146
11
5.60881
21
-3.14221
0
LINE
8
BLACK
6
CONTINUOUS
10
5.68361
20
-3.14221
11
5.6868
21
-3.14434
0
LINE
8
BLACK
6
CONTINUOUS
10
5.6868
20
-3.14434
11
5.68894
21
-3.14753
0
LINE
8
BLACK
6
CONTINUOUS
10
5.68894
20
-3.14753
11
5.68969
21
-3.1513
0
LINE
8
BLACK
6
CONTINUOUS
10
5.68969
20
-3.1513
11
5.68969
21
-3.1887
0
LINE
8
BLACK
6
CONTINUOUS
10
5.68969
20
-3.1887
11
5.68894
21
-3.19247
0
LINE
8
BLACK
6
CONTINUOUS
10
5.68894
20
-3.19247
11
5.6868
21
-3.19566
0
LINE
8
BLACK
6
CONTINUOUS
10
5.6868
20
-3.19566
11
5.68361
21
-3.19779
0
LINE
8
BLACK
6
CONTINUOUS
10
5.68361
20
-3.19779
11
5.67984
21
-3.19854
0
LINE
8
BLACK
6
CONTINUOUS
10
5.67984
20
-3.19854
11
5.66016
21
-3.19854
0
LINE
8
BLACK
6
CONTINUOUS
10
5.66016
20
-3.19854
11
5.65639
21
-3.19779
0
LINE
8
BLACK
6
CONTINUOUS
10
5.65639
20
-3.19779
11
5.6532
21
-3.19566
0
LINE
8
BLACK
6
CONTINUOUS
10
5.6532
20
-3.19566
11
5.65106
21
-3.19247
0
LINE
8
BLACK
6
CONTINUOUS
10
5.65106
20
-3.19247
11
5.65031
21
-3.1887
0
LINE
8
BLACK
6
CONTINUOUS
10
5.65031
20
-3.1887
11
5.65031
21
-3.1513
0
LINE
8
BLACK
6
CONTINUOUS
10
5.65031
20
-3.1513
11
5.65106
21
-3.14753
0
LINE
8
BLACK
6
CONTINUOUS
10
5.65106
20
-3.14753
11
5.6532
21
-3.14434
0
LINE
8
BLACK
6
CONTINUOUS
10
5.6532
20
-3.14434
11
5.65639
21
-3.14221
0
LINE
8
BLACK
6
CONTINUOUS
10
5.65639
20
-3.14221
11
5.66016
21
-3.14146
0
LINE
8
BLACK
6
CONTINUOUS
10
5.66016
20
-3.14146
11
5.67984
21
-3.14146
0
LINE
8
BLACK
6
CONTINUOUS
10
5.67984
20
-3.14146
11
5.68361
21
-3.14221
  0
ENDSEC
  0
EOF
