  0
SECTION
  2
HEADER
  9
$ANGBASE
  50
0.0
  9
$ANGDIR
  70
1
  9
$MEASUREMENT
  70
0
  0
ENDSEC
  0
SECTION
  2
TABLES
  0
TABLE
  2
LTYPE
  70
4
  0
LTYPE
  5
40F
  2
CONTINUOUS
  70
0
  3
Solid line
  72
65
  73
0
  40
0.0
  0
LTYPE
  5
410
  2
DASHDOT
 70
0
  3
Dash Dot ____ _ ____ _
 72
65
 73
4
 40
2.0
 49
1.25
 49
-0.25
 49
0.25
 49
-0.25
  0
LTYPE
  5
411
  2
DASHED
 70
0
  3
Dashed __ __ __ __ __
 72
65
 73
2
 40
0.75
 49
0.5
 49
-0.25
  0
LTYPE
  5
43B
  2
DOTTED
 70
0
  3
Dotted .  .  .  .
 72
65
 73
2
 40
0.2
 49
0.0
 49
-0.2
  0
ENDTAB
  0
TABLE
  2
STYLE
  70
4
  0
STYLE
  2
KICAD
  70
0
  40
0
  41
1
  42
1
  50
0
  71
0
  3
isocp.shx
  0
STYLE
  2
KICADB
  70
0
  40
0
  41
1
  42
1
  50
0
  71
0
  3
isocp.shx
  0
STYLE
  2
KICADI
  70
0
  40
0
  41
1
  42
1
  50
15
  71
0
  3
isocp.shx
  0
STYLE
  2
KICADBI
  70
0
  40
0
  41
1
  42
1
  50
15
  71
0
  3
isocp.shx
  0
ENDTAB
  0
TABLE
  2
LAYER
  70
1
  0
LAYER
  2
BLACK
  70
0
  62
7
  6
CONTINUOUS
  0
ENDTAB
  0
ENDSEC
  0
SECTION
  2
ENTITIES
0
LINE
8
BLACK
6
CONTINUOUS
10
0.49126
20
0.62185
11
0.491956
21
0.621562
0
LINE
8
BLACK
6
CONTINUOUS
10
0.491956
20
0.621562
11
0.492244
21
0.620866
0
LINE
8
BLACK
6
CONTINUOUS
10
0.492244
20
0.620866
11
0.492244
21
0.179921
0
LINE
8
BLACK
6
CONTINUOUS
10
0.492244
20
0.179921
11
0.491956
21
0.179225
0
LINE
8
BLACK
6
CONTINUOUS
10
0.491956
20
0.179225
11
0.49126
21
0.178937
0
LINE
8
BLACK
6
CONTINUOUS
10
0.49126
20
0.178937
11
0.249134
21
0.178937
0
LINE
8
BLACK
6
CONTINUOUS
10
0.249134
20
0.178937
11
0.248438
21
0.179225
0
LINE
8
BLACK
6
CONTINUOUS
10
0.248438
20
0.179225
11
0.24815
21
0.179921
0
LINE
8
BLACK
6
CONTINUOUS
10
0.24815
20
0.179921
11
0.24815
21
0.620866
0
LINE
8
BLACK
6
CONTINUOUS
10
0.24815
20
0.620866
11
0.248438
21
0.621562
0
LINE
8
BLACK
6
CONTINUOUS
10
0.248438
20
0.621562
11
0.249134
21
0.62185
0
LINE
8
BLACK
6
CONTINUOUS
10
0.249134
20
0.62185
11
0.49126
21
0.62185
0
LINE
8
BLACK
6
CONTINUOUS
10
0.250118
20
0.619882
11
0.250118
21
0.180906
0
LINE
8
BLACK
6
CONTINUOUS
10
0.250118
20
0.180906
11
0.490276
21
0.180906
0
LINE
8
BLACK
6
CONTINUOUS
10
0.490276
20
0.180906
11
0.490276
21
0.619882
0
LINE
8
BLACK
6
CONTINUOUS
10
0.490276
20
0.619882
11
0.250118
21
0.619882
0
LINE
8
BLACK
6
CONTINUOUS
10
0.160866
20
0.657913
11
0.161562
21
0.657625
0
LINE
8
BLACK
6
CONTINUOUS
10
0.161562
20
0.657625
11
0.16185
21
0.656929
0
LINE
8
BLACK
6
CONTINUOUS
10
0.16185
20
0.656929
11
0.16185
21
0.414803
0
LINE
8
BLACK
6
CONTINUOUS
10
0.16185
20
0.414803
11
0.161562
21
0.414107
0
LINE
8
BLACK
6
CONTINUOUS
10
0.161562
20
0.414107
11
0.160866
21
0.413819
0
LINE
8
BLACK
6
CONTINUOUS
10
0.160866
20
0.413819
11
-0.179685
21
0.413819
0
LINE
8
BLACK
6
CONTINUOUS
10
-0.179685
20
0.413819
11
-0.180381
21
0.414107
0
LINE
8
BLACK
6
CONTINUOUS
10
-0.180381
20
0.414107
11
-0.180669
21
0.414803
0
LINE
8
BLACK
6
CONTINUOUS
10
-0.180669
20
0.414803
11
-0.180669
21
0.656929
0
LINE
8
BLACK
6
CONTINUOUS
10
-0.180669
20
0.656929
11
-0.180381
21
0.657625
0
LINE
8
BLACK
6
CONTINUOUS
10
-0.180381
20
0.657625
11
-0.179685
21
0.657913
0
LINE
8
BLACK
6
CONTINUOUS
10
-0.179685
20
0.657913
11
0.160866
21
0.657913
0
LINE
8
BLACK
6
CONTINUOUS
10
-0.178701
20
0.655945
11
-0.178701
21
0.415787
0
LINE
8
BLACK
6
CONTINUOUS
10
-0.178701
20
0.415787
11
0.159882
21
0.415787
0
LINE
8
BLACK
6
CONTINUOUS
10
0.159882
20
0.415787
11
0.159882
21
0.655945
0
LINE
8
BLACK
6
CONTINUOUS
10
0.159882
20
0.655945
11
-0.178701
21
0.655945
  0
ENDSEC
  0
EOF
