  0
SECTION
  2
HEADER
  9
$ANGBASE
  50
0.0
  9
$ANGDIR
  70
1
  9
$MEASUREMENT
  70
0
  0
ENDSEC
  0
SECTION
  2
TABLES
  0
TABLE
  2
LTYPE
  70
4
  0
LTYPE
  5
40F
  2
CONTINUOUS
  70
0
  3
Solid line
  72
65
  73
0
  40
0.0
  0
LTYPE
  5
410
  2
DASHDOT
 70
0
  3
Dash Dot ____ _ ____ _
 72
65
 73
4
 40
2.0
 49
1.25
 49
-0.25
 49
0.25
 49
-0.25
  0
LTYPE
  5
411
  2
DASHED
 70
0
  3
Dashed __ __ __ __ __
 72
65
 73
2
 40
0.75
 49
0.5
 49
-0.25
  0
LTYPE
  5
43B
  2
DOTTED
 70
0
  3
Dotted .  .  .  .
 72
65
 73
2
 40
0.2
 49
0.0
 49
-0.2
  0
ENDTAB
  0
TABLE
  2
STYLE
  70
4
  0
STYLE
  2
KICAD
  70
0
  40
0
  41
1
  42
1
  50
0
  71
0
  3
isocp.shx
  0
STYLE
  2
KICADB
  70
0
  40
0
  41
1
  42
1
  50
0
  71
0
  3
isocp.shx
  0
STYLE
  2
KICADI
  70
0
  40
0
  41
1
  42
1
  50
15
  71
0
  3
isocp.shx
  0
STYLE
  2
KICADBI
  70
0
  40
0
  41
1
  42
1
  50
15
  71
0
  3
isocp.shx
  0
ENDTAB
  0
TABLE
  2
LAYER
  70
1
  0
LAYER
  2
BLACK
  70
0
  62
7
  6
CONTINUOUS
  0
ENDTAB
  0
ENDSEC
  0
SECTION
  2
ENTITIES
0
LINE
8
BLACK
6
CONTINUOUS
10
0.0141057
20
0.125192
11
0.0280341
21
0.122826
0
LINE
8
BLACK
6
CONTINUOUS
10
0.0280341
20
0.122826
11
0.04161
21
0.118914
0
LINE
8
BLACK
6
CONTINUOUS
10
0.04161
20
0.118914
11
0.0546625
21
0.113508
0
LINE
8
BLACK
6
CONTINUOUS
10
0.0546625
20
0.113508
11
0.0670277
21
0.106674
0
LINE
8
BLACK
6
CONTINUOUS
10
0.0670277
20
0.106674
11
0.0785499
21
0.0984985
0
LINE
8
BLACK
6
CONTINUOUS
10
0.0785499
20
0.0984985
11
0.0890843
21
0.0890843
0
LINE
8
BLACK
6
CONTINUOUS
10
0.0890843
20
0.0890843
11
0.0984985
21
0.0785499
0
LINE
8
BLACK
6
CONTINUOUS
10
0.0984985
20
0.0785499
11
0.106674
21
0.0670277
0
LINE
8
BLACK
6
CONTINUOUS
10
0.106674
20
0.0670277
11
0.113508
21
0.0546625
0
LINE
8
BLACK
6
CONTINUOUS
10
0.113508
20
0.0546625
11
0.118914
21
0.04161
0
LINE
8
BLACK
6
CONTINUOUS
10
0.118914
20
0.04161
11
0.122826
21
0.0280341
0
LINE
8
BLACK
6
CONTINUOUS
10
0.122826
20
0.0280341
11
0.125192
21
0.0141057
0
LINE
8
BLACK
6
CONTINUOUS
10
0.125192
20
0.0141057
11
0.125984
21
0
0
LINE
8
BLACK
6
CONTINUOUS
10
0.125984
20
0
11
0.125192
21
-0.0141057
0
LINE
8
BLACK
6
CONTINUOUS
10
0.125192
20
-0.0141057
11
0.122826
21
-0.0280341
0
LINE
8
BLACK
6
CONTINUOUS
10
0.122826
20
-0.0280341
11
0.118914
21
-0.04161
0
LINE
8
BLACK
6
CONTINUOUS
10
0.118914
20
-0.04161
11
0.113508
21
-0.0546625
0
LINE
8
BLACK
6
CONTINUOUS
10
0.113508
20
-0.0546625
11
0.106674
21
-0.0670277
0
LINE
8
BLACK
6
CONTINUOUS
10
0.106674
20
-0.0670277
11
0.0984985
21
-0.0785499
0
LINE
8
BLACK
6
CONTINUOUS
10
0.0984985
20
-0.0785499
11
0.0890843
21
-0.0890843
0
LINE
8
BLACK
6
CONTINUOUS
10
0.0890843
20
-0.0890843
11
0.0785499
21
-0.0984985
0
LINE
8
BLACK
6
CONTINUOUS
10
0.0785499
20
-0.0984985
11
0.0670277
21
-0.106674
0
LINE
8
BLACK
6
CONTINUOUS
10
0.0670277
20
-0.106674
11
0.0546625
21
-0.113508
0
LINE
8
BLACK
6
CONTINUOUS
10
0.0546625
20
-0.113508
11
0.04161
21
-0.118914
0
LINE
8
BLACK
6
CONTINUOUS
10
0.04161
20
-0.118914
11
0.0280341
21
-0.122826
0
LINE
8
BLACK
6
CONTINUOUS
10
0.0280341
20
-0.122826
11
0.0141057
21
-0.125192
0
LINE
8
BLACK
6
CONTINUOUS
10
0.0141057
20
-0.125192
11
0
21
-0.125984
0
LINE
8
BLACK
6
CONTINUOUS
10
0
20
-0.125984
11
-0.0141057
21
-0.125192
0
LINE
8
BLACK
6
CONTINUOUS
10
-0.0141057
20
-0.125192
11
-0.0280341
21
-0.122826
0
LINE
8
BLACK
6
CONTINUOUS
10
-0.0280341
20
-0.122826
11
-0.04161
21
-0.118914
0
LINE
8
BLACK
6
CONTINUOUS
10
-0.04161
20
-0.118914
11
-0.0546625
21
-0.113508
0
LINE
8
BLACK
6
CONTINUOUS
10
-0.0546625
20
-0.113508
11
-0.0670277
21
-0.106674
0
LINE
8
BLACK
6
CONTINUOUS
10
-0.0670277
20
-0.106674
11
-0.0785499
21
-0.0984985
0
LINE
8
BLACK
6
CONTINUOUS
10
-0.0785499
20
-0.0984985
11
-0.0890843
21
-0.0890843
0
LINE
8
BLACK
6
CONTINUOUS
10
-0.0890843
20
-0.0890843
11
-0.0984985
21
-0.0785499
0
LINE
8
BLACK
6
CONTINUOUS
10
-0.0984985
20
-0.0785499
11
-0.106674
21
-0.0670277
0
LINE
8
BLACK
6
CONTINUOUS
10
-0.106674
20
-0.0670277
11
-0.113508
21
-0.0546625
0
LINE
8
BLACK
6
CONTINUOUS
10
-0.113508
20
-0.0546625
11
-0.118914
21
-0.04161
0
LINE
8
BLACK
6
CONTINUOUS
10
-0.118914
20
-0.04161
11
-0.122826
21
-0.0280341
0
LINE
8
BLACK
6
CONTINUOUS
10
-0.122826
20
-0.0280341
11
-0.125192
21
-0.0141057
0
LINE
8
BLACK
6
CONTINUOUS
10
-0.125192
20
-0.0141057
11
-0.125984
21
0
0
LINE
8
BLACK
6
CONTINUOUS
10
-0.125984
20
0
11
-0.125192
21
0.0141057
0
LINE
8
BLACK
6
CONTINUOUS
10
-0.125192
20
0.0141057
11
-0.122826
21
0.0280341
0
LINE
8
BLACK
6
CONTINUOUS
10
-0.122826
20
0.0280341
11
-0.118914
21
0.04161
0
LINE
8
BLACK
6
CONTINUOUS
10
-0.118914
20
0.04161
11
-0.113508
21
0.0546625
0
LINE
8
BLACK
6
CONTINUOUS
10
-0.113508
20
0.0546625
11
-0.106674
21
0.0670277
0
LINE
8
BLACK
6
CONTINUOUS
10
-0.106674
20
0.0670277
11
-0.0984985
21
0.0785499
0
LINE
8
BLACK
6
CONTINUOUS
10
-0.0984985
20
0.0785499
11
-0.0890843
21
0.0890843
0
LINE
8
BLACK
6
CONTINUOUS
10
-0.0890843
20
0.0890843
11
-0.0785499
21
0.0984985
0
LINE
8
BLACK
6
CONTINUOUS
10
-0.0785499
20
0.0984985
11
-0.0670277
21
0.106674
0
LINE
8
BLACK
6
CONTINUOUS
10
-0.0670277
20
0.106674
11
-0.0546625
21
0.113508
0
LINE
8
BLACK
6
CONTINUOUS
10
-0.0546625
20
0.113508
11
-0.04161
21
0.118914
0
LINE
8
BLACK
6
CONTINUOUS
10
-0.04161
20
0.118914
11
-0.0280341
21
0.122826
0
LINE
8
BLACK
6
CONTINUOUS
10
-0.0280341
20
0.122826
11
-0.0141057
21
0.125192
0
LINE
8
BLACK
6
CONTINUOUS
10
-0.0141057
20
0.125192
11
0
21
0.125984
0
LINE
8
BLACK
6
CONTINUOUS
10
0
20
0.125984
11
0.0141057
21
0.125192
0
LINE
8
BLACK
6
CONTINUOUS
10
0.414106
20
0.125192
11
0.428034
21
0.122826
0
LINE
8
BLACK
6
CONTINUOUS
10
0.428034
20
0.122826
11
0.44161
21
0.118914
0
LINE
8
BLACK
6
CONTINUOUS
10
0.44161
20
0.118914
11
0.454663
21
0.113508
0
LINE
8
BLACK
6
CONTINUOUS
10
0.454663
20
0.113508
11
0.467028
21
0.106674
0
LINE
8
BLACK
6
CONTINUOUS
10
0.467028
20
0.106674
11
0.47855
21
0.0984985
0
LINE
8
BLACK
6
CONTINUOUS
10
0.47855
20
0.0984985
11
0.489084
21
0.0890843
0
LINE
8
BLACK
6
CONTINUOUS
10
0.489084
20
0.0890843
11
0.498498
21
0.0785499
0
LINE
8
BLACK
6
CONTINUOUS
10
0.498498
20
0.0785499
11
0.506674
21
0.0670277
0
LINE
8
BLACK
6
CONTINUOUS
10
0.506674
20
0.0670277
11
0.513508
21
0.0546625
0
LINE
8
BLACK
6
CONTINUOUS
10
0.513508
20
0.0546625
11
0.518914
21
0.04161
0
LINE
8
BLACK
6
CONTINUOUS
10
0.518914
20
0.04161
11
0.522826
21
0.0280341
0
LINE
8
BLACK
6
CONTINUOUS
10
0.522826
20
0.0280341
11
0.525192
21
0.0141057
0
LINE
8
BLACK
6
CONTINUOUS
10
0.525192
20
0.0141057
11
0.525984
21
0
0
LINE
8
BLACK
6
CONTINUOUS
10
0.525984
20
0
11
0.525192
21
-0.0141057
0
LINE
8
BLACK
6
CONTINUOUS
10
0.525192
20
-0.0141057
11
0.522826
21
-0.0280341
0
LINE
8
BLACK
6
CONTINUOUS
10
0.522826
20
-0.0280341
11
0.518914
21
-0.04161
0
LINE
8
BLACK
6
CONTINUOUS
10
0.518914
20
-0.04161
11
0.513508
21
-0.0546625
0
LINE
8
BLACK
6
CONTINUOUS
10
0.513508
20
-0.0546625
11
0.506674
21
-0.0670277
0
LINE
8
BLACK
6
CONTINUOUS
10
0.506674
20
-0.0670277
11
0.498498
21
-0.0785499
0
LINE
8
BLACK
6
CONTINUOUS
10
0.498498
20
-0.0785499
11
0.489084
21
-0.0890843
0
LINE
8
BLACK
6
CONTINUOUS
10
0.489084
20
-0.0890843
11
0.47855
21
-0.0984985
0
LINE
8
BLACK
6
CONTINUOUS
10
0.47855
20
-0.0984985
11
0.467028
21
-0.106674
0
LINE
8
BLACK
6
CONTINUOUS
10
0.467028
20
-0.106674
11
0.454663
21
-0.113508
0
LINE
8
BLACK
6
CONTINUOUS
10
0.454663
20
-0.113508
11
0.44161
21
-0.118914
0
LINE
8
BLACK
6
CONTINUOUS
10
0.44161
20
-0.118914
11
0.428034
21
-0.122826
0
LINE
8
BLACK
6
CONTINUOUS
10
0.428034
20
-0.122826
11
0.414106
21
-0.125192
0
LINE
8
BLACK
6
CONTINUOUS
10
0.414106
20
-0.125192
11
0.4
21
-0.125984
0
LINE
8
BLACK
6
CONTINUOUS
10
0.4
20
-0.125984
11
0.385894
21
-0.125192
0
LINE
8
BLACK
6
CONTINUOUS
10
0.385894
20
-0.125192
11
0.371966
21
-0.122826
0
LINE
8
BLACK
6
CONTINUOUS
10
0.371966
20
-0.122826
11
0.35839
21
-0.118914
0
LINE
8
BLACK
6
CONTINUOUS
10
0.35839
20
-0.118914
11
0.345337
21
-0.113508
0
LINE
8
BLACK
6
CONTINUOUS
10
0.345337
20
-0.113508
11
0.332972
21
-0.106674
0
LINE
8
BLACK
6
CONTINUOUS
10
0.332972
20
-0.106674
11
0.32145
21
-0.0984985
0
LINE
8
BLACK
6
CONTINUOUS
10
0.32145
20
-0.0984985
11
0.310916
21
-0.0890843
0
LINE
8
BLACK
6
CONTINUOUS
10
0.310916
20
-0.0890843
11
0.301502
21
-0.0785499
0
LINE
8
BLACK
6
CONTINUOUS
10
0.301502
20
-0.0785499
11
0.293326
21
-0.0670277
0
LINE
8
BLACK
6
CONTINUOUS
10
0.293326
20
-0.0670277
11
0.286492
21
-0.0546625
0
LINE
8
BLACK
6
CONTINUOUS
10
0.286492
20
-0.0546625
11
0.281086
21
-0.04161
0
LINE
8
BLACK
6
CONTINUOUS
10
0.281086
20
-0.04161
11
0.277174
21
-0.0280341
0
LINE
8
BLACK
6
CONTINUOUS
10
0.277174
20
-0.0280341
11
0.274808
21
-0.0141057
0
LINE
8
BLACK
6
CONTINUOUS
10
0.274808
20
-0.0141057
11
0.274016
21
0
0
LINE
8
BLACK
6
CONTINUOUS
10
0.274016
20
0
11
0.274808
21
0.0141057
0
LINE
8
BLACK
6
CONTINUOUS
10
0.274808
20
0.0141057
11
0.277174
21
0.0280341
0
LINE
8
BLACK
6
CONTINUOUS
10
0.277174
20
0.0280341
11
0.281086
21
0.04161
0
LINE
8
BLACK
6
CONTINUOUS
10
0.281086
20
0.04161
11
0.286492
21
0.0546625
0
LINE
8
BLACK
6
CONTINUOUS
10
0.286492
20
0.0546625
11
0.293326
21
0.0670277
0
LINE
8
BLACK
6
CONTINUOUS
10
0.293326
20
0.0670277
11
0.301502
21
0.0785499
0
LINE
8
BLACK
6
CONTINUOUS
10
0.301502
20
0.0785499
11
0.310916
21
0.0890843
0
LINE
8
BLACK
6
CONTINUOUS
10
0.310916
20
0.0890843
11
0.32145
21
0.0984985
0
LINE
8
BLACK
6
CONTINUOUS
10
0.32145
20
0.0984985
11
0.332972
21
0.106674
0
LINE
8
BLACK
6
CONTINUOUS
10
0.332972
20
0.106674
11
0.345337
21
0.113508
0
LINE
8
BLACK
6
CONTINUOUS
10
0.345337
20
0.113508
11
0.35839
21
0.118914
0
LINE
8
BLACK
6
CONTINUOUS
10
0.35839
20
0.118914
11
0.371966
21
0.122826
0
LINE
8
BLACK
6
CONTINUOUS
10
0.371966
20
0.122826
11
0.385894
21
0.125192
0
LINE
8
BLACK
6
CONTINUOUS
10
0.385894
20
0.125192
11
0.4
21
0.125984
0
LINE
8
BLACK
6
CONTINUOUS
10
0.4
20
0.125984
11
0.414106
21
0.125192
0
LINE
8
BLACK
6
CONTINUOUS
10
0.207681
20
-0.0401266
11
0.215066
21
-0.0423669
0
LINE
8
BLACK
6
CONTINUOUS
10
0.215066
20
-0.0423669
11
0.221873
21
-0.0460051
0
LINE
8
BLACK
6
CONTINUOUS
10
0.221873
20
-0.0460051
11
0.227839
21
-0.0509013
0
LINE
8
BLACK
6
CONTINUOUS
10
0.227839
20
-0.0509013
11
0.232735
21
-0.0568673
0
LINE
8
BLACK
6
CONTINUOUS
10
0.232735
20
-0.0568673
11
0.236373
21
-0.0636739
0
LINE
8
BLACK
6
CONTINUOUS
10
0.236373
20
-0.0636739
11
0.238614
21
-0.0710594
0
LINE
8
BLACK
6
CONTINUOUS
10
0.238614
20
-0.0710594
11
0.23937
21
-0.0787402
0
LINE
8
BLACK
6
CONTINUOUS
10
0.23937
20
-0.0787402
11
0.238614
21
-0.0864209
0
LINE
8
BLACK
6
CONTINUOUS
10
0.238614
20
-0.0864209
11
0.236373
21
-0.0938064
0
LINE
8
BLACK
6
CONTINUOUS
10
0.236373
20
-0.0938064
11
0.232735
21
-0.100613
0
LINE
8
BLACK
6
CONTINUOUS
10
0.232735
20
-0.100613
11
0.227839
21
-0.106579
0
LINE
8
BLACK
6
CONTINUOUS
10
0.227839
20
-0.106579
11
0.221873
21
-0.111475
0
LINE
8
BLACK
6
CONTINUOUS
10
0.221873
20
-0.111475
11
0.215066
21
-0.115113
0
LINE
8
BLACK
6
CONTINUOUS
10
0.215066
20
-0.115113
11
0.207681
21
-0.117354
0
LINE
8
BLACK
6
CONTINUOUS
10
0.207681
20
-0.117354
11
0.2
21
-0.11811
0
LINE
8
BLACK
6
CONTINUOUS
10
0.2
20
-0.11811
11
0.192319
21
-0.117354
0
LINE
8
BLACK
6
CONTINUOUS
10
0.192319
20
-0.117354
11
0.184934
21
-0.115113
0
LINE
8
BLACK
6
CONTINUOUS
10
0.184934
20
-0.115113
11
0.178127
21
-0.111475
0
LINE
8
BLACK
6
CONTINUOUS
10
0.178127
20
-0.111475
11
0.172161
21
-0.106579
0
LINE
8
BLACK
6
CONTINUOUS
10
0.172161
20
-0.106579
11
0.167265
21
-0.100613
0
LINE
8
BLACK
6
CONTINUOUS
10
0.167265
20
-0.100613
11
0.163627
21
-0.0938064
0
LINE
8
BLACK
6
CONTINUOUS
10
0.163627
20
-0.0938064
11
0.161386
21
-0.0864209
0
LINE
8
BLACK
6
CONTINUOUS
10
0.161386
20
-0.0864209
11
0.16063
21
-0.0787402
0
LINE
8
BLACK
6
CONTINUOUS
10
0.16063
20
-0.0787402
11
0.161386
21
-0.0710594
0
LINE
8
BLACK
6
CONTINUOUS
10
0.161386
20
-0.0710594
11
0.163627
21
-0.0636739
0
LINE
8
BLACK
6
CONTINUOUS
10
0.163627
20
-0.0636739
11
0.167265
21
-0.0568673
0
LINE
8
BLACK
6
CONTINUOUS
10
0.167265
20
-0.0568673
11
0.172161
21
-0.0509013
0
LINE
8
BLACK
6
CONTINUOUS
10
0.172161
20
-0.0509013
11
0.178127
21
-0.0460051
0
LINE
8
BLACK
6
CONTINUOUS
10
0.178127
20
-0.0460051
11
0.184934
21
-0.0423669
0
LINE
8
BLACK
6
CONTINUOUS
10
0.184934
20
-0.0423669
11
0.192319
21
-0.0401266
0
LINE
8
BLACK
6
CONTINUOUS
10
0.192319
20
-0.0401266
11
0.2
21
-0.0393701
0
LINE
8
BLACK
6
CONTINUOUS
10
0.2
20
-0.0393701
11
0.207681
21
-0.0401266
0
LINE
8
BLACK
6
CONTINUOUS
10
0.222782
20
0.0528407
11
0.227767
21
0.0510965
0
LINE
8
BLACK
6
CONTINUOUS
10
0.227767
20
0.0510965
11
0.232016
21
0.0479606
0
LINE
8
BLACK
6
CONTINUOUS
10
0.232016
20
0.0479606
11
0.235152
21
0.0437115
0
LINE
8
BLACK
6
CONTINUOUS
10
0.235152
20
0.0437115
11
0.236896
21
0.0387268
0
LINE
8
BLACK
6
CONTINUOUS
10
0.236896
20
0.0387268
11
0.237205
21
0.0354331
0
LINE
8
BLACK
6
CONTINUOUS
10
0.237205
20
0.0354331
11
0.237205
21
0.015748
0
LINE
8
BLACK
6
CONTINUOUS
10
0.237205
20
0.015748
11
0.236896
21
0.0124543
0
LINE
8
BLACK
6
CONTINUOUS
10
0.236896
20
0.0124543
11
0.235152
21
0.00746965
0
LINE
8
BLACK
6
CONTINUOUS
10
0.235152
20
0.00746965
11
0.232016
21
0.00322055
0
LINE
8
BLACK
6
CONTINUOUS
10
0.232016
20
0.00322055
11
0.227767
21
8.45669e-05
0
LINE
8
BLACK
6
CONTINUOUS
10
0.227767
20
8.45669e-05
11
0.222782
21
-0.00165965
0
LINE
8
BLACK
6
CONTINUOUS
10
0.222782
20
-0.00165965
11
0.219488
21
-0.0019685
0
LINE
8
BLACK
6
CONTINUOUS
10
0.219488
20
-0.0019685
11
0.182087
21
-0.0019685
0
LINE
8
BLACK
6
CONTINUOUS
10
0.182087
20
-0.0019685
11
0.178793
21
-0.00165965
0
LINE
8
BLACK
6
CONTINUOUS
10
0.178793
20
-0.00165965
11
0.173808
21
8.45669e-05
0
LINE
8
BLACK
6
CONTINUOUS
10
0.173808
20
8.45669e-05
11
0.169559
21
0.00322055
0
LINE
8
BLACK
6
CONTINUOUS
10
0.169559
20
0.00322055
11
0.166423
21
0.00746965
0
LINE
8
BLACK
6
CONTINUOUS
10
0.166423
20
0.00746965
11
0.164679
21
0.0124543
0
LINE
8
BLACK
6
CONTINUOUS
10
0.164679
20
0.0124543
11
0.16437
21
0.015748
0
LINE
8
BLACK
6
CONTINUOUS
10
0.16437
20
0.015748
11
0.16437
21
0.0354331
0
LINE
8
BLACK
6
CONTINUOUS
10
0.16437
20
0.0354331
11
0.164679
21
0.0387268
0
LINE
8
BLACK
6
CONTINUOUS
10
0.164679
20
0.0387268
11
0.166423
21
0.0437115
0
LINE
8
BLACK
6
CONTINUOUS
10
0.166423
20
0.0437115
11
0.169559
21
0.0479606
0
LINE
8
BLACK
6
CONTINUOUS
10
0.169559
20
0.0479606
11
0.173808
21
0.0510965
0
LINE
8
BLACK
6
CONTINUOUS
10
0.173808
20
0.0510965
11
0.178793
21
0.0528407
0
LINE
8
BLACK
6
CONTINUOUS
10
0.178793
20
0.0528407
11
0.182087
21
0.0531496
0
LINE
8
BLACK
6
CONTINUOUS
10
0.182087
20
0.0531496
11
0.219488
21
0.0531496
0
LINE
8
BLACK
6
CONTINUOUS
10
0.219488
20
0.0531496
11
0.222782
21
0.0528407
0
LINE
8
BLACK
6
CONTINUOUS
10
0.222782
20
0.127644
11
0.227767
21
0.1259
0
LINE
8
BLACK
6
CONTINUOUS
10
0.227767
20
0.1259
11
0.232016
21
0.122764
0
LINE
8
BLACK
6
CONTINUOUS
10
0.232016
20
0.122764
11
0.235152
21
0.118515
0
LINE
8
BLACK
6
CONTINUOUS
10
0.235152
20
0.118515
11
0.236896
21
0.11353
0
LINE
8
BLACK
6
CONTINUOUS
10
0.236896
20
0.11353
11
0.237205
21
0.110236
0
LINE
8
BLACK
6
CONTINUOUS
10
0.237205
20
0.110236
11
0.237205
21
0.0905512
0
LINE
8
BLACK
6
CONTINUOUS
10
0.237205
20
0.0905512
11
0.236896
21
0.0872575
0
LINE
8
BLACK
6
CONTINUOUS
10
0.236896
20
0.0872575
11
0.235152
21
0.0822728
0
LINE
8
BLACK
6
CONTINUOUS
10
0.235152
20
0.0822728
11
0.232016
21
0.0780237
0
LINE
8
BLACK
6
CONTINUOUS
10
0.232016
20
0.0780237
11
0.227767
21
0.0748877
0
LINE
8
BLACK
6
CONTINUOUS
10
0.227767
20
0.0748877
11
0.222782
21
0.0731435
0
LINE
8
BLACK
6
CONTINUOUS
10
0.222782
20
0.0731435
11
0.219488
21
0.0728346
0
LINE
8
BLACK
6
CONTINUOUS
10
0.219488
20
0.0728346
11
0.182087
21
0.0728346
0
LINE
8
BLACK
6
CONTINUOUS
10
0.182087
20
0.0728346
11
0.178793
21
0.0731435
0
LINE
8
BLACK
6
CONTINUOUS
10
0.178793
20
0.0731435
11
0.173808
21
0.0748877
0
LINE
8
BLACK
6
CONTINUOUS
10
0.173808
20
0.0748877
11
0.169559
21
0.0780237
0
LINE
8
BLACK
6
CONTINUOUS
10
0.169559
20
0.0780237
11
0.166423
21
0.0822728
0
LINE
8
BLACK
6
CONTINUOUS
10
0.166423
20
0.0822728
11
0.164679
21
0.0872575
0
LINE
8
BLACK
6
CONTINUOUS
10
0.164679
20
0.0872575
11
0.16437
21
0.0905512
0
LINE
8
BLACK
6
CONTINUOUS
10
0.16437
20
0.0905512
11
0.16437
21
0.110236
0
LINE
8
BLACK
6
CONTINUOUS
10
0.16437
20
0.110236
11
0.164679
21
0.11353
0
LINE
8
BLACK
6
CONTINUOUS
10
0.164679
20
0.11353
11
0.166423
21
0.118515
0
LINE
8
BLACK
6
CONTINUOUS
10
0.166423
20
0.118515
11
0.169559
21
0.122764
0
LINE
8
BLACK
6
CONTINUOUS
10
0.169559
20
0.122764
11
0.173808
21
0.1259
0
LINE
8
BLACK
6
CONTINUOUS
10
0.173808
20
0.1259
11
0.178793
21
0.127644
0
LINE
8
BLACK
6
CONTINUOUS
10
0.178793
20
0.127644
11
0.182087
21
0.127953
0
LINE
8
BLACK
6
CONTINUOUS
10
0.182087
20
0.127953
11
0.219488
21
0.127953
0
LINE
8
BLACK
6
CONTINUOUS
10
0.219488
20
0.127953
11
0.222782
21
0.127644
0
LINE
8
BLACK
6
CONTINUOUS
10
0.129278
20
0.2054
11
0.134263
21
0.203656
0
LINE
8
BLACK
6
CONTINUOUS
10
0.134263
20
0.203656
11
0.138512
21
0.20052
0
LINE
8
BLACK
6
CONTINUOUS
10
0.138512
20
0.20052
11
0.141648
21
0.196271
0
LINE
8
BLACK
6
CONTINUOUS
10
0.141648
20
0.196271
11
0.143392
21
0.191286
0
LINE
8
BLACK
6
CONTINUOUS
10
0.143392
20
0.191286
11
0.143701
21
0.187992
0
LINE
8
BLACK
6
CONTINUOUS
10
0.143701
20
0.187992
11
0.143701
21
0.150591
0
LINE
8
BLACK
6
CONTINUOUS
10
0.143701
20
0.150591
11
0.143392
21
0.147297
0
LINE
8
BLACK
6
CONTINUOUS
10
0.143392
20
0.147297
11
0.141648
21
0.142312
0
LINE
8
BLACK
6
CONTINUOUS
10
0.141648
20
0.142312
11
0.138512
21
0.138063
0
LINE
8
BLACK
6
CONTINUOUS
10
0.138512
20
0.138063
11
0.134263
21
0.134927
0
LINE
8
BLACK
6
CONTINUOUS
10
0.134263
20
0.134927
11
0.129278
21
0.133183
0
LINE
8
BLACK
6
CONTINUOUS
10
0.129278
20
0.133183
11
0.125984
21
0.132874
0
LINE
8
BLACK
6
CONTINUOUS
10
0.125984
20
0.132874
11
0.106299
21
0.132874
0
LINE
8
BLACK
6
CONTINUOUS
10
0.106299
20
0.132874
11
0.103006
21
0.133183
0
LINE
8
BLACK
6
CONTINUOUS
10
0.103006
20
0.133183
11
0.0980208
21
0.134927
0
LINE
8
BLACK
6
CONTINUOUS
10
0.0980208
20
0.134927
11
0.0937717
21
0.138063
0
LINE
8
BLACK
6
CONTINUOUS
10
0.0937717
20
0.138063
11
0.0906357
21
0.142312
0
LINE
8
BLACK
6
CONTINUOUS
10
0.0906357
20
0.142312
11
0.0888915
21
0.147297
0
LINE
8
BLACK
6
CONTINUOUS
10
0.0888915
20
0.147297
11
0.0885827
21
0.150591
0
LINE
8
BLACK
6
CONTINUOUS
10
0.0885827
20
0.150591
11
0.0885827
21
0.187992
0
LINE
8
BLACK
6
CONTINUOUS
10
0.0885827
20
0.187992
11
0.0888915
21
0.191286
0
LINE
8
BLACK
6
CONTINUOUS
10
0.0888915
20
0.191286
11
0.0906357
21
0.196271
0
LINE
8
BLACK
6
CONTINUOUS
10
0.0906357
20
0.196271
11
0.0937717
21
0.20052
0
LINE
8
BLACK
6
CONTINUOUS
10
0.0937717
20
0.20052
11
0.0980208
21
0.203656
0
LINE
8
BLACK
6
CONTINUOUS
10
0.0980208
20
0.203656
11
0.103006
21
0.2054
0
LINE
8
BLACK
6
CONTINUOUS
10
0.103006
20
0.2054
11
0.106299
21
0.205709
0
LINE
8
BLACK
6
CONTINUOUS
10
0.106299
20
0.205709
11
0.125984
21
0.205709
0
LINE
8
BLACK
6
CONTINUOUS
10
0.125984
20
0.205709
11
0.129278
21
0.2054
0
LINE
8
BLACK
6
CONTINUOUS
10
0.204081
20
0.2054
11
0.209066
21
0.203656
0
LINE
8
BLACK
6
CONTINUOUS
10
0.209066
20
0.203656
11
0.213315
21
0.20052
0
LINE
8
BLACK
6
CONTINUOUS
10
0.213315
20
0.20052
11
0.216451
21
0.196271
0
LINE
8
BLACK
6
CONTINUOUS
10
0.216451
20
0.196271
11
0.218195
21
0.191286
0
LINE
8
BLACK
6
CONTINUOUS
10
0.218195
20
0.191286
11
0.218504
21
0.187992
0
LINE
8
BLACK
6
CONTINUOUS
10
0.218504
20
0.187992
11
0.218504
21
0.150591
0
LINE
8
BLACK
6
CONTINUOUS
10
0.218504
20
0.150591
11
0.218195
21
0.147297
0
LINE
8
BLACK
6
CONTINUOUS
10
0.218195
20
0.147297
11
0.216451
21
0.142312
0
LINE
8
BLACK
6
CONTINUOUS
10
0.216451
20
0.142312
11
0.213315
21
0.138063
0
LINE
8
BLACK
6
CONTINUOUS
10
0.213315
20
0.138063
11
0.209066
21
0.134927
0
LINE
8
BLACK
6
CONTINUOUS
10
0.209066
20
0.134927
11
0.204081
21
0.133183
0
LINE
8
BLACK
6
CONTINUOUS
10
0.204081
20
0.133183
11
0.200787
21
0.132874
0
LINE
8
BLACK
6
CONTINUOUS
10
0.200787
20
0.132874
11
0.181102
21
0.132874
0
LINE
8
BLACK
6
CONTINUOUS
10
0.181102
20
0.132874
11
0.177809
21
0.133183
0
LINE
8
BLACK
6
CONTINUOUS
10
0.177809
20
0.133183
11
0.172824
21
0.134927
0
LINE
8
BLACK
6
CONTINUOUS
10
0.172824
20
0.134927
11
0.168575
21
0.138063
0
LINE
8
BLACK
6
CONTINUOUS
10
0.168575
20
0.138063
11
0.165439
21
0.142312
0
LINE
8
BLACK
6
CONTINUOUS
10
0.165439
20
0.142312
11
0.163695
21
0.147297
0
LINE
8
BLACK
6
CONTINUOUS
10
0.163695
20
0.147297
11
0.163386
21
0.150591
0
LINE
8
BLACK
6
CONTINUOUS
10
0.163386
20
0.150591
11
0.163386
21
0.187992
0
LINE
8
BLACK
6
CONTINUOUS
10
0.163386
20
0.187992
11
0.163695
21
0.191286
0
LINE
8
BLACK
6
CONTINUOUS
10
0.163695
20
0.191286
11
0.165439
21
0.196271
0
LINE
8
BLACK
6
CONTINUOUS
10
0.165439
20
0.196271
11
0.168575
21
0.20052
0
LINE
8
BLACK
6
CONTINUOUS
10
0.168575
20
0.20052
11
0.172824
21
0.203656
0
LINE
8
BLACK
6
CONTINUOUS
10
0.172824
20
0.203656
11
0.177809
21
0.2054
0
LINE
8
BLACK
6
CONTINUOUS
10
0.177809
20
0.2054
11
0.181102
21
0.205709
0
LINE
8
BLACK
6
CONTINUOUS
10
0.181102
20
0.205709
11
0.200787
21
0.205709
0
LINE
8
BLACK
6
CONTINUOUS
10
0.200787
20
0.205709
11
0.204081
21
0.2054
0
LINE
8
BLACK
6
CONTINUOUS
10
0.328065
20
0.290544
11
0.33582
21
0.288192
0
LINE
8
BLACK
6
CONTINUOUS
10
0.33582
20
0.288192
11
0.342966
21
0.284372
0
LINE
8
BLACK
6
CONTINUOUS
10
0.342966
20
0.284372
11
0.349231
21
0.279231
0
LINE
8
BLACK
6
CONTINUOUS
10
0.349231
20
0.279231
11
0.354372
21
0.272966
0
LINE
8
BLACK
6
CONTINUOUS
10
0.354372
20
0.272966
11
0.358192
21
0.26582
0
LINE
8
BLACK
6
CONTINUOUS
10
0.358192
20
0.26582
11
0.360544
21
0.258065
0
LINE
8
BLACK
6
CONTINUOUS
10
0.360544
20
0.258065
11
0.361339
21
0.25
0
LINE
8
BLACK
6
CONTINUOUS
10
0.361339
20
0.25
11
0.360544
21
0.241935
0
LINE
8
BLACK
6
CONTINUOUS
10
0.360544
20
0.241935
11
0.358192
21
0.23418
0
LINE
8
BLACK
6
CONTINUOUS
10
0.358192
20
0.23418
11
0.354372
21
0.227034
0
LINE
8
BLACK
6
CONTINUOUS
10
0.354372
20
0.227034
11
0.349231
21
0.220769
0
LINE
8
BLACK
6
CONTINUOUS
10
0.349231
20
0.220769
11
0.342966
21
0.215628
0
LINE
8
BLACK
6
CONTINUOUS
10
0.342966
20
0.215628
11
0.33582
21
0.211808
0
LINE
8
BLACK
6
CONTINUOUS
10
0.33582
20
0.211808
11
0.328065
21
0.209456
0
LINE
8
BLACK
6
CONTINUOUS
10
0.328065
20
0.209456
11
0.32
21
0.208661
0
LINE
8
BLACK
6
CONTINUOUS
10
0.32
20
0.208661
11
0.311935
21
0.209456
0
LINE
8
BLACK
6
CONTINUOUS
10
0.311935
20
0.209456
11
0.30418
21
0.211808
0
LINE
8
BLACK
6
CONTINUOUS
10
0.30418
20
0.211808
11
0.297034
21
0.215628
0
LINE
8
BLACK
6
CONTINUOUS
10
0.297034
20
0.215628
11
0.290769
21
0.220769
0
LINE
8
BLACK
6
CONTINUOUS
10
0.290769
20
0.220769
11
0.285628
21
0.227034
0
LINE
8
BLACK
6
CONTINUOUS
10
0.285628
20
0.227034
11
0.281808
21
0.23418
0
LINE
8
BLACK
6
CONTINUOUS
10
0.281808
20
0.23418
11
0.279456
21
0.241935
0
LINE
8
BLACK
6
CONTINUOUS
10
0.279456
20
0.241935
11
0.278661
21
0.25
0
LINE
8
BLACK
6
CONTINUOUS
10
0.278661
20
0.25
11
0.279456
21
0.258065
0
LINE
8
BLACK
6
CONTINUOUS
10
0.279456
20
0.258065
11
0.281808
21
0.26582
0
LINE
8
BLACK
6
CONTINUOUS
10
0.281808
20
0.26582
11
0.285628
21
0.272966
0
LINE
8
BLACK
6
CONTINUOUS
10
0.285628
20
0.272966
11
0.290769
21
0.279231
0
LINE
8
BLACK
6
CONTINUOUS
10
0.290769
20
0.279231
11
0.297034
21
0.284372
0
LINE
8
BLACK
6
CONTINUOUS
10
0.297034
20
0.284372
11
0.30418
21
0.288192
0
LINE
8
BLACK
6
CONTINUOUS
10
0.30418
20
0.288192
11
0.311935
21
0.290544
0
LINE
8
BLACK
6
CONTINUOUS
10
0.311935
20
0.290544
11
0.32
21
0.291339
0
LINE
8
BLACK
6
CONTINUOUS
10
0.32
20
0.291339
11
0.328065
21
0.290544
0
LINE
8
BLACK
6
CONTINUOUS
10
0.428065
20
0.290544
11
0.43582
21
0.288192
0
LINE
8
BLACK
6
CONTINUOUS
10
0.43582
20
0.288192
11
0.442966
21
0.284372
0
LINE
8
BLACK
6
CONTINUOUS
10
0.442966
20
0.284372
11
0.449231
21
0.279231
0
LINE
8
BLACK
6
CONTINUOUS
10
0.449231
20
0.279231
11
0.454372
21
0.272966
0
LINE
8
BLACK
6
CONTINUOUS
10
0.454372
20
0.272966
11
0.458192
21
0.26582
0
LINE
8
BLACK
6
CONTINUOUS
10
0.458192
20
0.26582
11
0.460544
21
0.258065
0
LINE
8
BLACK
6
CONTINUOUS
10
0.460544
20
0.258065
11
0.461339
21
0.25
0
LINE
8
BLACK
6
CONTINUOUS
10
0.461339
20
0.25
11
0.460544
21
0.241935
0
LINE
8
BLACK
6
CONTINUOUS
10
0.460544
20
0.241935
11
0.458192
21
0.23418
0
LINE
8
BLACK
6
CONTINUOUS
10
0.458192
20
0.23418
11
0.454372
21
0.227034
0
LINE
8
BLACK
6
CONTINUOUS
10
0.454372
20
0.227034
11
0.449231
21
0.220769
0
LINE
8
BLACK
6
CONTINUOUS
10
0.449231
20
0.220769
11
0.442966
21
0.215628
0
LINE
8
BLACK
6
CONTINUOUS
10
0.442966
20
0.215628
11
0.43582
21
0.211808
0
LINE
8
BLACK
6
CONTINUOUS
10
0.43582
20
0.211808
11
0.428065
21
0.209456
0
LINE
8
BLACK
6
CONTINUOUS
10
0.428065
20
0.209456
11
0.42
21
0.208661
0
LINE
8
BLACK
6
CONTINUOUS
10
0.42
20
0.208661
11
0.411935
21
0.209456
0
LINE
8
BLACK
6
CONTINUOUS
10
0.411935
20
0.209456
11
0.40418
21
0.211808
0
LINE
8
BLACK
6
CONTINUOUS
10
0.40418
20
0.211808
11
0.397034
21
0.215628
0
LINE
8
BLACK
6
CONTINUOUS
10
0.397034
20
0.215628
11
0.390769
21
0.220769
0
LINE
8
BLACK
6
CONTINUOUS
10
0.390769
20
0.220769
11
0.385628
21
0.227034
0
LINE
8
BLACK
6
CONTINUOUS
10
0.385628
20
0.227034
11
0.381808
21
0.23418
0
LINE
8
BLACK
6
CONTINUOUS
10
0.381808
20
0.23418
11
0.379456
21
0.241935
0
LINE
8
BLACK
6
CONTINUOUS
10
0.379456
20
0.241935
11
0.378661
21
0.25
0
LINE
8
BLACK
6
CONTINUOUS
10
0.378661
20
0.25
11
0.379456
21
0.258065
0
LINE
8
BLACK
6
CONTINUOUS
10
0.379456
20
0.258065
11
0.381808
21
0.26582
0
LINE
8
BLACK
6
CONTINUOUS
10
0.381808
20
0.26582
11
0.385628
21
0.272966
0
LINE
8
BLACK
6
CONTINUOUS
10
0.385628
20
0.272966
11
0.390769
21
0.279231
0
LINE
8
BLACK
6
CONTINUOUS
10
0.390769
20
0.279231
11
0.397034
21
0.284372
0
LINE
8
BLACK
6
CONTINUOUS
10
0.397034
20
0.284372
11
0.40418
21
0.288192
0
LINE
8
BLACK
6
CONTINUOUS
10
0.40418
20
0.288192
11
0.411935
21
0.290544
0
LINE
8
BLACK
6
CONTINUOUS
10
0.411935
20
0.290544
11
0.42
21
0.291339
0
LINE
8
BLACK
6
CONTINUOUS
10
0.42
20
0.291339
11
0.428065
21
0.290544
0
LINE
8
BLACK
6
CONTINUOUS
10
-0.0738765
20
0.27007
11
-0.071322
21
0.268363
0
LINE
8
BLACK
6
CONTINUOUS
10
-0.071322
20
0.268363
11
-0.0696151
21
0.265809
0
LINE
8
BLACK
6
CONTINUOUS
10
-0.0696151
20
0.265809
11
-0.0690157
21
0.262795
0
LINE
8
BLACK
6
CONTINUOUS
10
-0.0690157
20
0.262795
11
-0.0690157
21
0.237205
0
LINE
8
BLACK
6
CONTINUOUS
10
-0.0690157
20
0.237205
11
-0.0696151
21
0.234191
0
LINE
8
BLACK
6
CONTINUOUS
10
-0.0696151
20
0.234191
11
-0.071322
21
0.231637
0
LINE
8
BLACK
6
CONTINUOUS
10
-0.071322
20
0.231637
11
-0.0738765
21
0.22993
0
LINE
8
BLACK
6
CONTINUOUS
10
-0.0738765
20
0.22993
11
-0.0768898
21
0.229331
0
LINE
8
BLACK
6
CONTINUOUS
10
-0.0768898
20
0.229331
11
-0.14185
21
0.229331
0
LINE
8
BLACK
6
CONTINUOUS
10
-0.14185
20
0.229331
11
-0.144864
21
0.22993
0
LINE
8
BLACK
6
CONTINUOUS
10
-0.144864
20
0.22993
11
-0.147418
21
0.231637
0
LINE
8
BLACK
6
CONTINUOUS
10
-0.147418
20
0.231637
11
-0.149125
21
0.234191
0
LINE
8
BLACK
6
CONTINUOUS
10
-0.149125
20
0.234191
11
-0.149724
21
0.237205
0
LINE
8
BLACK
6
CONTINUOUS
10
-0.149724
20
0.237205
11
-0.149724
21
0.262795
0
LINE
8
BLACK
6
CONTINUOUS
10
-0.149724
20
0.262795
11
-0.149125
21
0.265809
0
LINE
8
BLACK
6
CONTINUOUS
10
-0.149125
20
0.265809
11
-0.147418
21
0.268363
0
LINE
8
BLACK
6
CONTINUOUS
10
-0.147418
20
0.268363
11
-0.144864
21
0.27007
0
LINE
8
BLACK
6
CONTINUOUS
10
-0.144864
20
0.27007
11
-0.14185
21
0.270669
0
LINE
8
BLACK
6
CONTINUOUS
10
-0.14185
20
0.270669
11
-0.0768898
21
0.270669
0
LINE
8
BLACK
6
CONTINUOUS
10
-0.0768898
20
0.270669
11
-0.0738765
21
0.27007
0
LINE
8
BLACK
6
CONTINUOUS
10
0.215494
20
0.27007
11
0.218048
21
0.268363
0
LINE
8
BLACK
6
CONTINUOUS
10
0.218048
20
0.268363
11
0.219755
21
0.265809
0
LINE
8
BLACK
6
CONTINUOUS
10
0.219755
20
0.265809
11
0.220354
21
0.262795
0
LINE
8
BLACK
6
CONTINUOUS
10
0.220354
20
0.262795
11
0.220354
21
0.237205
0
LINE
8
BLACK
6
CONTINUOUS
10
0.220354
20
0.237205
11
0.219755
21
0.234191
0
LINE
8
BLACK
6
CONTINUOUS
10
0.219755
20
0.234191
11
0.218048
21
0.231637
0
LINE
8
BLACK
6
CONTINUOUS
10
0.218048
20
0.231637
11
0.215494
21
0.22993
0
LINE
8
BLACK
6
CONTINUOUS
10
0.215494
20
0.22993
11
0.21248
21
0.229331
0
LINE
8
BLACK
6
CONTINUOUS
10
0.21248
20
0.229331
11
0.14752
21
0.229331
0
LINE
8
BLACK
6
CONTINUOUS
10
0.14752
20
0.229331
11
0.144506
21
0.22993
0
LINE
8
BLACK
6
CONTINUOUS
10
0.144506
20
0.22993
11
0.141952
21
0.231637
0
LINE
8
BLACK
6
CONTINUOUS
10
0.141952
20
0.231637
11
0.140245
21
0.234191
0
LINE
8
BLACK
6
CONTINUOUS
10
0.140245
20
0.234191
11
0.139646
21
0.237205
0
LINE
8
BLACK
6
CONTINUOUS
10
0.139646
20
0.237205
11
0.139646
21
0.262795
0
LINE
8
BLACK
6
CONTINUOUS
10
0.139646
20
0.262795
11
0.140245
21
0.265809
0
LINE
8
BLACK
6
CONTINUOUS
10
0.140245
20
0.265809
11
0.141952
21
0.268363
0
LINE
8
BLACK
6
CONTINUOUS
10
0.141952
20
0.268363
11
0.144506
21
0.27007
0
LINE
8
BLACK
6
CONTINUOUS
10
0.144506
20
0.27007
11
0.14752
21
0.270669
0
LINE
8
BLACK
6
CONTINUOUS
10
0.14752
20
0.270669
11
0.21248
21
0.270669
0
LINE
8
BLACK
6
CONTINUOUS
10
0.21248
20
0.270669
11
0.215494
21
0.27007
0
LINE
8
BLACK
6
CONTINUOUS
10
-0.0738765
20
0.32007
11
-0.071322
21
0.318363
0
LINE
8
BLACK
6
CONTINUOUS
10
-0.071322
20
0.318363
11
-0.0696151
21
0.315809
0
LINE
8
BLACK
6
CONTINUOUS
10
-0.0696151
20
0.315809
11
-0.0690157
21
0.312795
0
LINE
8
BLACK
6
CONTINUOUS
10
-0.0690157
20
0.312795
11
-0.0690157
21
0.287205
0
LINE
8
BLACK
6
CONTINUOUS
10
-0.0690157
20
0.287205
11
-0.0696151
21
0.284191
0
LINE
8
BLACK
6
CONTINUOUS
10
-0.0696151
20
0.284191
11
-0.071322
21
0.281637
0
LINE
8
BLACK
6
CONTINUOUS
10
-0.071322
20
0.281637
11
-0.0738765
21
0.27993
0
LINE
8
BLACK
6
CONTINUOUS
10
-0.0738765
20
0.27993
11
-0.0768898
21
0.279331
0
LINE
8
BLACK
6
CONTINUOUS
10
-0.0768898
20
0.279331
11
-0.14185
21
0.279331
0
LINE
8
BLACK
6
CONTINUOUS
10
-0.14185
20
0.279331
11
-0.144864
21
0.27993
0
LINE
8
BLACK
6
CONTINUOUS
10
-0.144864
20
0.27993
11
-0.147418
21
0.281637
0
LINE
8
BLACK
6
CONTINUOUS
10
-0.147418
20
0.281637
11
-0.149125
21
0.284191
0
LINE
8
BLACK
6
CONTINUOUS
10
-0.149125
20
0.284191
11
-0.149724
21
0.287205
0
LINE
8
BLACK
6
CONTINUOUS
10
-0.149724
20
0.287205
11
-0.149724
21
0.312795
0
LINE
8
BLACK
6
CONTINUOUS
10
-0.149724
20
0.312795
11
-0.149125
21
0.315809
0
LINE
8
BLACK
6
CONTINUOUS
10
-0.149125
20
0.315809
11
-0.147418
21
0.318363
0
LINE
8
BLACK
6
CONTINUOUS
10
-0.147418
20
0.318363
11
-0.144864
21
0.32007
0
LINE
8
BLACK
6
CONTINUOUS
10
-0.144864
20
0.32007
11
-0.14185
21
0.320669
0
LINE
8
BLACK
6
CONTINUOUS
10
-0.14185
20
0.320669
11
-0.0768898
21
0.320669
0
LINE
8
BLACK
6
CONTINUOUS
10
-0.0768898
20
0.320669
11
-0.0738765
21
0.32007
0
LINE
8
BLACK
6
CONTINUOUS
10
0.215494
20
0.32007
11
0.218048
21
0.318363
0
LINE
8
BLACK
6
CONTINUOUS
10
0.218048
20
0.318363
11
0.219755
21
0.315809
0
LINE
8
BLACK
6
CONTINUOUS
10
0.219755
20
0.315809
11
0.220354
21
0.312795
0
LINE
8
BLACK
6
CONTINUOUS
10
0.220354
20
0.312795
11
0.220354
21
0.287205
0
LINE
8
BLACK
6
CONTINUOUS
10
0.220354
20
0.287205
11
0.219755
21
0.284191
0
LINE
8
BLACK
6
CONTINUOUS
10
0.219755
20
0.284191
11
0.218048
21
0.281637
0
LINE
8
BLACK
6
CONTINUOUS
10
0.218048
20
0.281637
11
0.215494
21
0.27993
0
LINE
8
BLACK
6
CONTINUOUS
10
0.215494
20
0.27993
11
0.21248
21
0.279331
0
LINE
8
BLACK
6
CONTINUOUS
10
0.21248
20
0.279331
11
0.14752
21
0.279331
0
LINE
8
BLACK
6
CONTINUOUS
10
0.14752
20
0.279331
11
0.144506
21
0.27993
0
LINE
8
BLACK
6
CONTINUOUS
10
0.144506
20
0.27993
11
0.141952
21
0.281637
0
LINE
8
BLACK
6
CONTINUOUS
10
0.141952
20
0.281637
11
0.140245
21
0.284191
0
LINE
8
BLACK
6
CONTINUOUS
10
0.140245
20
0.284191
11
0.139646
21
0.287205
0
LINE
8
BLACK
6
CONTINUOUS
10
0.139646
20
0.287205
11
0.139646
21
0.312795
0
LINE
8
BLACK
6
CONTINUOUS
10
0.139646
20
0.312795
11
0.140245
21
0.315809
0
LINE
8
BLACK
6
CONTINUOUS
10
0.140245
20
0.315809
11
0.141952
21
0.318363
0
LINE
8
BLACK
6
CONTINUOUS
10
0.141952
20
0.318363
11
0.144506
21
0.32007
0
LINE
8
BLACK
6
CONTINUOUS
10
0.144506
20
0.32007
11
0.14752
21
0.320669
0
LINE
8
BLACK
6
CONTINUOUS
10
0.14752
20
0.320669
11
0.21248
21
0.320669
0
LINE
8
BLACK
6
CONTINUOUS
10
0.21248
20
0.320669
11
0.215494
21
0.32007
0
LINE
8
BLACK
6
CONTINUOUS
10
0.328065
20
0.390544
11
0.33582
21
0.388192
0
LINE
8
BLACK
6
CONTINUOUS
10
0.33582
20
0.388192
11
0.342966
21
0.384372
0
LINE
8
BLACK
6
CONTINUOUS
10
0.342966
20
0.384372
11
0.349231
21
0.379231
0
LINE
8
BLACK
6
CONTINUOUS
10
0.349231
20
0.379231
11
0.354372
21
0.372966
0
LINE
8
BLACK
6
CONTINUOUS
10
0.354372
20
0.372966
11
0.358192
21
0.36582
0
LINE
8
BLACK
6
CONTINUOUS
10
0.358192
20
0.36582
11
0.360544
21
0.358065
0
LINE
8
BLACK
6
CONTINUOUS
10
0.360544
20
0.358065
11
0.361339
21
0.35
0
LINE
8
BLACK
6
CONTINUOUS
10
0.361339
20
0.35
11
0.360544
21
0.341935
0
LINE
8
BLACK
6
CONTINUOUS
10
0.360544
20
0.341935
11
0.358192
21
0.33418
0
LINE
8
BLACK
6
CONTINUOUS
10
0.358192
20
0.33418
11
0.354372
21
0.327034
0
LINE
8
BLACK
6
CONTINUOUS
10
0.354372
20
0.327034
11
0.349231
21
0.320769
0
LINE
8
BLACK
6
CONTINUOUS
10
0.349231
20
0.320769
11
0.342966
21
0.315628
0
LINE
8
BLACK
6
CONTINUOUS
10
0.342966
20
0.315628
11
0.33582
21
0.311808
0
LINE
8
BLACK
6
CONTINUOUS
10
0.33582
20
0.311808
11
0.328065
21
0.309456
0
LINE
8
BLACK
6
CONTINUOUS
10
0.328065
20
0.309456
11
0.32
21
0.308661
0
LINE
8
BLACK
6
CONTINUOUS
10
0.32
20
0.308661
11
0.311935
21
0.309456
0
LINE
8
BLACK
6
CONTINUOUS
10
0.311935
20
0.309456
11
0.30418
21
0.311808
0
LINE
8
BLACK
6
CONTINUOUS
10
0.30418
20
0.311808
11
0.297034
21
0.315628
0
LINE
8
BLACK
6
CONTINUOUS
10
0.297034
20
0.315628
11
0.290769
21
0.320769
0
LINE
8
BLACK
6
CONTINUOUS
10
0.290769
20
0.320769
11
0.285628
21
0.327034
0
LINE
8
BLACK
6
CONTINUOUS
10
0.285628
20
0.327034
11
0.281808
21
0.33418
0
LINE
8
BLACK
6
CONTINUOUS
10
0.281808
20
0.33418
11
0.279456
21
0.341935
0
LINE
8
BLACK
6
CONTINUOUS
10
0.279456
20
0.341935
11
0.278661
21
0.35
0
LINE
8
BLACK
6
CONTINUOUS
10
0.278661
20
0.35
11
0.279456
21
0.358065
0
LINE
8
BLACK
6
CONTINUOUS
10
0.279456
20
0.358065
11
0.281808
21
0.36582
0
LINE
8
BLACK
6
CONTINUOUS
10
0.281808
20
0.36582
11
0.285628
21
0.372966
0
LINE
8
BLACK
6
CONTINUOUS
10
0.285628
20
0.372966
11
0.290769
21
0.379231
0
LINE
8
BLACK
6
CONTINUOUS
10
0.290769
20
0.379231
11
0.297034
21
0.384372
0
LINE
8
BLACK
6
CONTINUOUS
10
0.297034
20
0.384372
11
0.30418
21
0.388192
0
LINE
8
BLACK
6
CONTINUOUS
10
0.30418
20
0.388192
11
0.311935
21
0.390544
0
LINE
8
BLACK
6
CONTINUOUS
10
0.311935
20
0.390544
11
0.32
21
0.391339
0
LINE
8
BLACK
6
CONTINUOUS
10
0.32
20
0.391339
11
0.328065
21
0.390544
0
LINE
8
BLACK
6
CONTINUOUS
10
0.428065
20
0.390544
11
0.43582
21
0.388192
0
LINE
8
BLACK
6
CONTINUOUS
10
0.43582
20
0.388192
11
0.442966
21
0.384372
0
LINE
8
BLACK
6
CONTINUOUS
10
0.442966
20
0.384372
11
0.449231
21
0.379231
0
LINE
8
BLACK
6
CONTINUOUS
10
0.449231
20
0.379231
11
0.454372
21
0.372966
0
LINE
8
BLACK
6
CONTINUOUS
10
0.454372
20
0.372966
11
0.458192
21
0.36582
0
LINE
8
BLACK
6
CONTINUOUS
10
0.458192
20
0.36582
11
0.460544
21
0.358065
0
LINE
8
BLACK
6
CONTINUOUS
10
0.460544
20
0.358065
11
0.461339
21
0.35
0
LINE
8
BLACK
6
CONTINUOUS
10
0.461339
20
0.35
11
0.460544
21
0.341935
0
LINE
8
BLACK
6
CONTINUOUS
10
0.460544
20
0.341935
11
0.458192
21
0.33418
0
LINE
8
BLACK
6
CONTINUOUS
10
0.458192
20
0.33418
11
0.454372
21
0.327034
0
LINE
8
BLACK
6
CONTINUOUS
10
0.454372
20
0.327034
11
0.449231
21
0.320769
0
LINE
8
BLACK
6
CONTINUOUS
10
0.449231
20
0.320769
11
0.442966
21
0.315628
0
LINE
8
BLACK
6
CONTINUOUS
10
0.442966
20
0.315628
11
0.43582
21
0.311808
0
LINE
8
BLACK
6
CONTINUOUS
10
0.43582
20
0.311808
11
0.428065
21
0.309456
0
LINE
8
BLACK
6
CONTINUOUS
10
0.428065
20
0.309456
11
0.42
21
0.308661
0
LINE
8
BLACK
6
CONTINUOUS
10
0.42
20
0.308661
11
0.411935
21
0.309456
0
LINE
8
BLACK
6
CONTINUOUS
10
0.411935
20
0.309456
11
0.40418
21
0.311808
0
LINE
8
BLACK
6
CONTINUOUS
10
0.40418
20
0.311808
11
0.397034
21
0.315628
0
LINE
8
BLACK
6
CONTINUOUS
10
0.397034
20
0.315628
11
0.390769
21
0.320769
0
LINE
8
BLACK
6
CONTINUOUS
10
0.390769
20
0.320769
11
0.385628
21
0.327034
0
LINE
8
BLACK
6
CONTINUOUS
10
0.385628
20
0.327034
11
0.381808
21
0.33418
0
LINE
8
BLACK
6
CONTINUOUS
10
0.381808
20
0.33418
11
0.379456
21
0.341935
0
LINE
8
BLACK
6
CONTINUOUS
10
0.379456
20
0.341935
11
0.378661
21
0.35
0
LINE
8
BLACK
6
CONTINUOUS
10
0.378661
20
0.35
11
0.379456
21
0.358065
0
LINE
8
BLACK
6
CONTINUOUS
10
0.379456
20
0.358065
11
0.381808
21
0.36582
0
LINE
8
BLACK
6
CONTINUOUS
10
0.381808
20
0.36582
11
0.385628
21
0.372966
0
LINE
8
BLACK
6
CONTINUOUS
10
0.385628
20
0.372966
11
0.390769
21
0.379231
0
LINE
8
BLACK
6
CONTINUOUS
10
0.390769
20
0.379231
11
0.397034
21
0.384372
0
LINE
8
BLACK
6
CONTINUOUS
10
0.397034
20
0.384372
11
0.40418
21
0.388192
0
LINE
8
BLACK
6
CONTINUOUS
10
0.40418
20
0.388192
11
0.411935
21
0.390544
0
LINE
8
BLACK
6
CONTINUOUS
10
0.411935
20
0.390544
11
0.42
21
0.391339
0
LINE
8
BLACK
6
CONTINUOUS
10
0.42
20
0.391339
11
0.428065
21
0.390544
0
LINE
8
BLACK
6
CONTINUOUS
10
-0.0738765
20
0.37007
11
-0.071322
21
0.368363
0
LINE
8
BLACK
6
CONTINUOUS
10
-0.071322
20
0.368363
11
-0.0696151
21
0.365809
0
LINE
8
BLACK
6
CONTINUOUS
10
-0.0696151
20
0.365809
11
-0.0690157
21
0.362795
0
LINE
8
BLACK
6
CONTINUOUS
10
-0.0690157
20
0.362795
11
-0.0690157
21
0.337205
0
LINE
8
BLACK
6
CONTINUOUS
10
-0.0690157
20
0.337205
11
-0.0696151
21
0.334191
0
LINE
8
BLACK
6
CONTINUOUS
10
-0.0696151
20
0.334191
11
-0.071322
21
0.331637
0
LINE
8
BLACK
6
CONTINUOUS
10
-0.071322
20
0.331637
11
-0.0738765
21
0.32993
0
LINE
8
BLACK
6
CONTINUOUS
10
-0.0738765
20
0.32993
11
-0.0768898
21
0.329331
0
LINE
8
BLACK
6
CONTINUOUS
10
-0.0768898
20
0.329331
11
-0.14185
21
0.329331
0
LINE
8
BLACK
6
CONTINUOUS
10
-0.14185
20
0.329331
11
-0.144864
21
0.32993
0
LINE
8
BLACK
6
CONTINUOUS
10
-0.144864
20
0.32993
11
-0.147418
21
0.331637
0
LINE
8
BLACK
6
CONTINUOUS
10
-0.147418
20
0.331637
11
-0.149125
21
0.334191
0
LINE
8
BLACK
6
CONTINUOUS
10
-0.149125
20
0.334191
11
-0.149724
21
0.337205
0
LINE
8
BLACK
6
CONTINUOUS
10
-0.149724
20
0.337205
11
-0.149724
21
0.362795
0
LINE
8
BLACK
6
CONTINUOUS
10
-0.149724
20
0.362795
11
-0.149125
21
0.365809
0
LINE
8
BLACK
6
CONTINUOUS
10
-0.149125
20
0.365809
11
-0.147418
21
0.368363
0
LINE
8
BLACK
6
CONTINUOUS
10
-0.147418
20
0.368363
11
-0.144864
21
0.37007
0
LINE
8
BLACK
6
CONTINUOUS
10
-0.144864
20
0.37007
11
-0.14185
21
0.370669
0
LINE
8
BLACK
6
CONTINUOUS
10
-0.14185
20
0.370669
11
-0.0768898
21
0.370669
0
LINE
8
BLACK
6
CONTINUOUS
10
-0.0768898
20
0.370669
11
-0.0738765
21
0.37007
0
LINE
8
BLACK
6
CONTINUOUS
10
0.215494
20
0.37007
11
0.218048
21
0.368363
0
LINE
8
BLACK
6
CONTINUOUS
10
0.218048
20
0.368363
11
0.219755
21
0.365809
0
LINE
8
BLACK
6
CONTINUOUS
10
0.219755
20
0.365809
11
0.220354
21
0.362795
0
LINE
8
BLACK
6
CONTINUOUS
10
0.220354
20
0.362795
11
0.220354
21
0.337205
0
LINE
8
BLACK
6
CONTINUOUS
10
0.220354
20
0.337205
11
0.219755
21
0.334191
0
LINE
8
BLACK
6
CONTINUOUS
10
0.219755
20
0.334191
11
0.218048
21
0.331637
0
LINE
8
BLACK
6
CONTINUOUS
10
0.218048
20
0.331637
11
0.215494
21
0.32993
0
LINE
8
BLACK
6
CONTINUOUS
10
0.215494
20
0.32993
11
0.21248
21
0.329331
0
LINE
8
BLACK
6
CONTINUOUS
10
0.21248
20
0.329331
11
0.14752
21
0.329331
0
LINE
8
BLACK
6
CONTINUOUS
10
0.14752
20
0.329331
11
0.144506
21
0.32993
0
LINE
8
BLACK
6
CONTINUOUS
10
0.144506
20
0.32993
11
0.141952
21
0.331637
0
LINE
8
BLACK
6
CONTINUOUS
10
0.141952
20
0.331637
11
0.140245
21
0.334191
0
LINE
8
BLACK
6
CONTINUOUS
10
0.140245
20
0.334191
11
0.139646
21
0.337205
0
LINE
8
BLACK
6
CONTINUOUS
10
0.139646
20
0.337205
11
0.139646
21
0.362795
0
LINE
8
BLACK
6
CONTINUOUS
10
0.139646
20
0.362795
11
0.140245
21
0.365809
0
LINE
8
BLACK
6
CONTINUOUS
10
0.140245
20
0.365809
11
0.141952
21
0.368363
0
LINE
8
BLACK
6
CONTINUOUS
10
0.141952
20
0.368363
11
0.144506
21
0.37007
0
LINE
8
BLACK
6
CONTINUOUS
10
0.144506
20
0.37007
11
0.14752
21
0.370669
0
LINE
8
BLACK
6
CONTINUOUS
10
0.14752
20
0.370669
11
0.21248
21
0.370669
0
LINE
8
BLACK
6
CONTINUOUS
10
0.21248
20
0.370669
11
0.215494
21
0.37007
0
LINE
8
BLACK
6
CONTINUOUS
10
-0.0738765
20
0.42007
11
-0.071322
21
0.418363
0
LINE
8
BLACK
6
CONTINUOUS
10
-0.071322
20
0.418363
11
-0.0696151
21
0.415809
0
LINE
8
BLACK
6
CONTINUOUS
10
-0.0696151
20
0.415809
11
-0.0690157
21
0.412795
0
LINE
8
BLACK
6
CONTINUOUS
10
-0.0690157
20
0.412795
11
-0.0690157
21
0.387205
0
LINE
8
BLACK
6
CONTINUOUS
10
-0.0690157
20
0.387205
11
-0.0696151
21
0.384191
0
LINE
8
BLACK
6
CONTINUOUS
10
-0.0696151
20
0.384191
11
-0.071322
21
0.381637
0
LINE
8
BLACK
6
CONTINUOUS
10
-0.071322
20
0.381637
11
-0.0738765
21
0.37993
0
LINE
8
BLACK
6
CONTINUOUS
10
-0.0738765
20
0.37993
11
-0.0768898
21
0.379331
0
LINE
8
BLACK
6
CONTINUOUS
10
-0.0768898
20
0.379331
11
-0.14185
21
0.379331
0
LINE
8
BLACK
6
CONTINUOUS
10
-0.14185
20
0.379331
11
-0.144864
21
0.37993
0
LINE
8
BLACK
6
CONTINUOUS
10
-0.144864
20
0.37993
11
-0.147418
21
0.381637
0
LINE
8
BLACK
6
CONTINUOUS
10
-0.147418
20
0.381637
11
-0.149125
21
0.384191
0
LINE
8
BLACK
6
CONTINUOUS
10
-0.149125
20
0.384191
11
-0.149724
21
0.387205
0
LINE
8
BLACK
6
CONTINUOUS
10
-0.149724
20
0.387205
11
-0.149724
21
0.412795
0
LINE
8
BLACK
6
CONTINUOUS
10
-0.149724
20
0.412795
11
-0.149125
21
0.415809
0
LINE
8
BLACK
6
CONTINUOUS
10
-0.149125
20
0.415809
11
-0.147418
21
0.418363
0
LINE
8
BLACK
6
CONTINUOUS
10
-0.147418
20
0.418363
11
-0.144864
21
0.42007
0
LINE
8
BLACK
6
CONTINUOUS
10
-0.144864
20
0.42007
11
-0.14185
21
0.420669
0
LINE
8
BLACK
6
CONTINUOUS
10
-0.14185
20
0.420669
11
-0.0768898
21
0.420669
0
LINE
8
BLACK
6
CONTINUOUS
10
-0.0768898
20
0.420669
11
-0.0738765
21
0.42007
0
LINE
8
BLACK
6
CONTINUOUS
10
0.215494
20
0.42007
11
0.218048
21
0.418363
0
LINE
8
BLACK
6
CONTINUOUS
10
0.218048
20
0.418363
11
0.219755
21
0.415809
0
LINE
8
BLACK
6
CONTINUOUS
10
0.219755
20
0.415809
11
0.220354
21
0.412795
0
LINE
8
BLACK
6
CONTINUOUS
10
0.220354
20
0.412795
11
0.220354
21
0.387205
0
LINE
8
BLACK
6
CONTINUOUS
10
0.220354
20
0.387205
11
0.219755
21
0.384191
0
LINE
8
BLACK
6
CONTINUOUS
10
0.219755
20
0.384191
11
0.218048
21
0.381637
0
LINE
8
BLACK
6
CONTINUOUS
10
0.218048
20
0.381637
11
0.215494
21
0.37993
0
LINE
8
BLACK
6
CONTINUOUS
10
0.215494
20
0.37993
11
0.21248
21
0.379331
0
LINE
8
BLACK
6
CONTINUOUS
10
0.21248
20
0.379331
11
0.14752
21
0.379331
0
LINE
8
BLACK
6
CONTINUOUS
10
0.14752
20
0.379331
11
0.144506
21
0.37993
0
LINE
8
BLACK
6
CONTINUOUS
10
0.144506
20
0.37993
11
0.141952
21
0.381637
0
LINE
8
BLACK
6
CONTINUOUS
10
0.141952
20
0.381637
11
0.140245
21
0.384191
0
LINE
8
BLACK
6
CONTINUOUS
10
0.140245
20
0.384191
11
0.139646
21
0.387205
0
LINE
8
BLACK
6
CONTINUOUS
10
0.139646
20
0.387205
11
0.139646
21
0.412795
0
LINE
8
BLACK
6
CONTINUOUS
10
0.139646
20
0.412795
11
0.140245
21
0.415809
0
LINE
8
BLACK
6
CONTINUOUS
10
0.140245
20
0.415809
11
0.141952
21
0.418363
0
LINE
8
BLACK
6
CONTINUOUS
10
0.141952
20
0.418363
11
0.144506
21
0.42007
0
LINE
8
BLACK
6
CONTINUOUS
10
0.144506
20
0.42007
11
0.14752
21
0.420669
0
LINE
8
BLACK
6
CONTINUOUS
10
0.14752
20
0.420669
11
0.21248
21
0.420669
0
LINE
8
BLACK
6
CONTINUOUS
10
0.21248
20
0.420669
11
0.215494
21
0.42007
0
LINE
8
BLACK
6
CONTINUOUS
10
0.328065
20
0.490544
11
0.33582
21
0.488192
0
LINE
8
BLACK
6
CONTINUOUS
10
0.33582
20
0.488192
11
0.342966
21
0.484372
0
LINE
8
BLACK
6
CONTINUOUS
10
0.342966
20
0.484372
11
0.349231
21
0.479231
0
LINE
8
BLACK
6
CONTINUOUS
10
0.349231
20
0.479231
11
0.354372
21
0.472966
0
LINE
8
BLACK
6
CONTINUOUS
10
0.354372
20
0.472966
11
0.358192
21
0.46582
0
LINE
8
BLACK
6
CONTINUOUS
10
0.358192
20
0.46582
11
0.360544
21
0.458065
0
LINE
8
BLACK
6
CONTINUOUS
10
0.360544
20
0.458065
11
0.361339
21
0.45
0
LINE
8
BLACK
6
CONTINUOUS
10
0.361339
20
0.45
11
0.360544
21
0.441935
0
LINE
8
BLACK
6
CONTINUOUS
10
0.360544
20
0.441935
11
0.358192
21
0.43418
0
LINE
8
BLACK
6
CONTINUOUS
10
0.358192
20
0.43418
11
0.354372
21
0.427034
0
LINE
8
BLACK
6
CONTINUOUS
10
0.354372
20
0.427034
11
0.349231
21
0.420769
0
LINE
8
BLACK
6
CONTINUOUS
10
0.349231
20
0.420769
11
0.342966
21
0.415628
0
LINE
8
BLACK
6
CONTINUOUS
10
0.342966
20
0.415628
11
0.33582
21
0.411808
0
LINE
8
BLACK
6
CONTINUOUS
10
0.33582
20
0.411808
11
0.328065
21
0.409456
0
LINE
8
BLACK
6
CONTINUOUS
10
0.328065
20
0.409456
11
0.32
21
0.408661
0
LINE
8
BLACK
6
CONTINUOUS
10
0.32
20
0.408661
11
0.311935
21
0.409456
0
LINE
8
BLACK
6
CONTINUOUS
10
0.311935
20
0.409456
11
0.30418
21
0.411808
0
LINE
8
BLACK
6
CONTINUOUS
10
0.30418
20
0.411808
11
0.297034
21
0.415628
0
LINE
8
BLACK
6
CONTINUOUS
10
0.297034
20
0.415628
11
0.290769
21
0.420769
0
LINE
8
BLACK
6
CONTINUOUS
10
0.290769
20
0.420769
11
0.285628
21
0.427034
0
LINE
8
BLACK
6
CONTINUOUS
10
0.285628
20
0.427034
11
0.281808
21
0.43418
0
LINE
8
BLACK
6
CONTINUOUS
10
0.281808
20
0.43418
11
0.279456
21
0.441935
0
LINE
8
BLACK
6
CONTINUOUS
10
0.279456
20
0.441935
11
0.278661
21
0.45
0
LINE
8
BLACK
6
CONTINUOUS
10
0.278661
20
0.45
11
0.279456
21
0.458065
0
LINE
8
BLACK
6
CONTINUOUS
10
0.279456
20
0.458065
11
0.281808
21
0.46582
0
LINE
8
BLACK
6
CONTINUOUS
10
0.281808
20
0.46582
11
0.285628
21
0.472966
0
LINE
8
BLACK
6
CONTINUOUS
10
0.285628
20
0.472966
11
0.290769
21
0.479231
0
LINE
8
BLACK
6
CONTINUOUS
10
0.290769
20
0.479231
11
0.297034
21
0.484372
0
LINE
8
BLACK
6
CONTINUOUS
10
0.297034
20
0.484372
11
0.30418
21
0.488192
0
LINE
8
BLACK
6
CONTINUOUS
10
0.30418
20
0.488192
11
0.311935
21
0.490544
0
LINE
8
BLACK
6
CONTINUOUS
10
0.311935
20
0.490544
11
0.32
21
0.491339
0
LINE
8
BLACK
6
CONTINUOUS
10
0.32
20
0.491339
11
0.328065
21
0.490544
0
LINE
8
BLACK
6
CONTINUOUS
10
0.428065
20
0.490544
11
0.43582
21
0.488192
0
LINE
8
BLACK
6
CONTINUOUS
10
0.43582
20
0.488192
11
0.442966
21
0.484372
0
LINE
8
BLACK
6
CONTINUOUS
10
0.442966
20
0.484372
11
0.449231
21
0.479231
0
LINE
8
BLACK
6
CONTINUOUS
10
0.449231
20
0.479231
11
0.454372
21
0.472966
0
LINE
8
BLACK
6
CONTINUOUS
10
0.454372
20
0.472966
11
0.458192
21
0.46582
0
LINE
8
BLACK
6
CONTINUOUS
10
0.458192
20
0.46582
11
0.460544
21
0.458065
0
LINE
8
BLACK
6
CONTINUOUS
10
0.460544
20
0.458065
11
0.461339
21
0.45
0
LINE
8
BLACK
6
CONTINUOUS
10
0.461339
20
0.45
11
0.460544
21
0.441935
0
LINE
8
BLACK
6
CONTINUOUS
10
0.460544
20
0.441935
11
0.458192
21
0.43418
0
LINE
8
BLACK
6
CONTINUOUS
10
0.458192
20
0.43418
11
0.454372
21
0.427034
0
LINE
8
BLACK
6
CONTINUOUS
10
0.454372
20
0.427034
11
0.449231
21
0.420769
0
LINE
8
BLACK
6
CONTINUOUS
10
0.449231
20
0.420769
11
0.442966
21
0.415628
0
LINE
8
BLACK
6
CONTINUOUS
10
0.442966
20
0.415628
11
0.43582
21
0.411808
0
LINE
8
BLACK
6
CONTINUOUS
10
0.43582
20
0.411808
11
0.428065
21
0.409456
0
LINE
8
BLACK
6
CONTINUOUS
10
0.428065
20
0.409456
11
0.42
21
0.408661
0
LINE
8
BLACK
6
CONTINUOUS
10
0.42
20
0.408661
11
0.411935
21
0.409456
0
LINE
8
BLACK
6
CONTINUOUS
10
0.411935
20
0.409456
11
0.40418
21
0.411808
0
LINE
8
BLACK
6
CONTINUOUS
10
0.40418
20
0.411808
11
0.397034
21
0.415628
0
LINE
8
BLACK
6
CONTINUOUS
10
0.397034
20
0.415628
11
0.390769
21
0.420769
0
LINE
8
BLACK
6
CONTINUOUS
10
0.390769
20
0.420769
11
0.385628
21
0.427034
0
LINE
8
BLACK
6
CONTINUOUS
10
0.385628
20
0.427034
11
0.381808
21
0.43418
0
LINE
8
BLACK
6
CONTINUOUS
10
0.381808
20
0.43418
11
0.379456
21
0.441935
0
LINE
8
BLACK
6
CONTINUOUS
10
0.379456
20
0.441935
11
0.378661
21
0.45
0
LINE
8
BLACK
6
CONTINUOUS
10
0.378661
20
0.45
11
0.379456
21
0.458065
0
LINE
8
BLACK
6
CONTINUOUS
10
0.379456
20
0.458065
11
0.381808
21
0.46582
0
LINE
8
BLACK
6
CONTINUOUS
10
0.381808
20
0.46582
11
0.385628
21
0.472966
0
LINE
8
BLACK
6
CONTINUOUS
10
0.385628
20
0.472966
11
0.390769
21
0.479231
0
LINE
8
BLACK
6
CONTINUOUS
10
0.390769
20
0.479231
11
0.397034
21
0.484372
0
LINE
8
BLACK
6
CONTINUOUS
10
0.397034
20
0.484372
11
0.40418
21
0.488192
0
LINE
8
BLACK
6
CONTINUOUS
10
0.40418
20
0.488192
11
0.411935
21
0.490544
0
LINE
8
BLACK
6
CONTINUOUS
10
0.411935
20
0.490544
11
0.42
21
0.491339
0
LINE
8
BLACK
6
CONTINUOUS
10
0.42
20
0.491339
11
0.428065
21
0.490544
0
LINE
8
BLACK
6
CONTINUOUS
10
0.540302
20
0.482762
11
0.545286
21
0.481018
0
LINE
8
BLACK
6
CONTINUOUS
10
0.545286
20
0.481018
11
0.549535
21
0.477882
0
LINE
8
BLACK
6
CONTINUOUS
10
0.549535
20
0.477882
11
0.552671
21
0.473633
0
LINE
8
BLACK
6
CONTINUOUS
10
0.552671
20
0.473633
11
0.554416
21
0.468648
0
LINE
8
BLACK
6
CONTINUOUS
10
0.554416
20
0.468648
11
0.554724
21
0.465354
0
LINE
8
BLACK
6
CONTINUOUS
10
0.554724
20
0.465354
11
0.554724
21
0.441732
0
LINE
8
BLACK
6
CONTINUOUS
10
0.554724
20
0.441732
11
0.554416
21
0.438439
0
LINE
8
BLACK
6
CONTINUOUS
10
0.554416
20
0.438439
11
0.552671
21
0.433454
0
LINE
8
BLACK
6
CONTINUOUS
10
0.552671
20
0.433454
11
0.549535
21
0.429205
0
LINE
8
BLACK
6
CONTINUOUS
10
0.549535
20
0.429205
11
0.545286
21
0.426069
0
LINE
8
BLACK
6
CONTINUOUS
10
0.545286
20
0.426069
11
0.540302
21
0.424325
0
LINE
8
BLACK
6
CONTINUOUS
10
0.540302
20
0.424325
11
0.537008
21
0.424016
0
LINE
8
BLACK
6
CONTINUOUS
10
0.537008
20
0.424016
11
0.513386
21
0.424016
0
LINE
8
BLACK
6
CONTINUOUS
10
0.513386
20
0.424016
11
0.510092
21
0.424325
0
LINE
8
BLACK
6
CONTINUOUS
10
0.510092
20
0.424325
11
0.505107
21
0.426069
0
LINE
8
BLACK
6
CONTINUOUS
10
0.505107
20
0.426069
11
0.500858
21
0.429205
0
LINE
8
BLACK
6
CONTINUOUS
10
0.500858
20
0.429205
11
0.497722
21
0.433454
0
LINE
8
BLACK
6
CONTINUOUS
10
0.497722
20
0.433454
11
0.495978
21
0.438439
0
LINE
8
BLACK
6
CONTINUOUS
10
0.495978
20
0.438439
11
0.495669
21
0.441732
0
LINE
8
BLACK
6
CONTINUOUS
10
0.495669
20
0.441732
11
0.495669
21
0.465354
0
LINE
8
BLACK
6
CONTINUOUS
10
0.495669
20
0.465354
11
0.495978
21
0.468648
0
LINE
8
BLACK
6
CONTINUOUS
10
0.495978
20
0.468648
11
0.497722
21
0.473633
0
LINE
8
BLACK
6
CONTINUOUS
10
0.497722
20
0.473633
11
0.500858
21
0.477882
0
LINE
8
BLACK
6
CONTINUOUS
10
0.500858
20
0.477882
11
0.505107
21
0.481018
0
LINE
8
BLACK
6
CONTINUOUS
10
0.505107
20
0.481018
11
0.510092
21
0.482762
0
LINE
8
BLACK
6
CONTINUOUS
10
0.510092
20
0.482762
11
0.513386
21
0.483071
0
LINE
8
BLACK
6
CONTINUOUS
10
0.513386
20
0.483071
11
0.537008
21
0.483071
0
LINE
8
BLACK
6
CONTINUOUS
10
0.537008
20
0.483071
11
0.540302
21
0.482762
0
LINE
8
BLACK
6
CONTINUOUS
10
-0.101935
20
0.526607
11
-0.0941804
21
0.524255
0
LINE
8
BLACK
6
CONTINUOUS
10
-0.0941804
20
0.524255
11
-0.0870335
21
0.520435
0
LINE
8
BLACK
6
CONTINUOUS
10
-0.0870335
20
0.520435
11
-0.0807692
21
0.515294
0
LINE
8
BLACK
6
CONTINUOUS
10
-0.0807692
20
0.515294
11
-0.0756282
21
0.509029
0
LINE
8
BLACK
6
CONTINUOUS
10
-0.0756282
20
0.509029
11
-0.0718081
21
0.501883
0
LINE
8
BLACK
6
CONTINUOUS
10
-0.0718081
20
0.501883
11
-0.0694557
21
0.494128
0
LINE
8
BLACK
6
CONTINUOUS
10
-0.0694557
20
0.494128
11
-0.0686614
21
0.486063
0
LINE
8
BLACK
6
CONTINUOUS
10
-0.0686614
20
0.486063
11
-0.0694557
21
0.477998
0
LINE
8
BLACK
6
CONTINUOUS
10
-0.0694557
20
0.477998
11
-0.0718081
21
0.470243
0
LINE
8
BLACK
6
CONTINUOUS
10
-0.0718081
20
0.470243
11
-0.0756282
21
0.463096
0
LINE
8
BLACK
6
CONTINUOUS
10
-0.0756282
20
0.463096
11
-0.0807692
21
0.456832
0
LINE
8
BLACK
6
CONTINUOUS
10
-0.0807692
20
0.456832
11
-0.0870335
21
0.451691
0
LINE
8
BLACK
6
CONTINUOUS
10
-0.0870335
20
0.451691
11
-0.0941804
21
0.447871
0
LINE
8
BLACK
6
CONTINUOUS
10
-0.0941804
20
0.447871
11
-0.101935
21
0.445519
0
LINE
8
BLACK
6
CONTINUOUS
10
-0.101935
20
0.445519
11
-0.11
21
0.444724
0
LINE
8
BLACK
6
CONTINUOUS
10
-0.11
20
0.444724
11
-0.118065
21
0.445519
0
LINE
8
BLACK
6
CONTINUOUS
10
-0.118065
20
0.445519
11
-0.12582
21
0.447871
0
LINE
8
BLACK
6
CONTINUOUS
10
-0.12582
20
0.447871
11
-0.132966
21
0.451691
0
LINE
8
BLACK
6
CONTINUOUS
10
-0.132966
20
0.451691
11
-0.139231
21
0.456832
0
LINE
8
BLACK
6
CONTINUOUS
10
-0.139231
20
0.456832
11
-0.144372
21
0.463096
0
LINE
8
BLACK
6
CONTINUOUS
10
-0.144372
20
0.463096
11
-0.148192
21
0.470243
0
LINE
8
BLACK
6
CONTINUOUS
10
-0.148192
20
0.470243
11
-0.150544
21
0.477998
0
LINE
8
BLACK
6
CONTINUOUS
10
-0.150544
20
0.477998
11
-0.151339
21
0.486063
0
LINE
8
BLACK
6
CONTINUOUS
10
-0.151339
20
0.486063
11
-0.150544
21
0.494128
0
LINE
8
BLACK
6
CONTINUOUS
10
-0.150544
20
0.494128
11
-0.148192
21
0.501883
0
LINE
8
BLACK
6
CONTINUOUS
10
-0.148192
20
0.501883
11
-0.144372
21
0.509029
0
LINE
8
BLACK
6
CONTINUOUS
10
-0.144372
20
0.509029
11
-0.139231
21
0.515294
0
LINE
8
BLACK
6
CONTINUOUS
10
-0.139231
20
0.515294
11
-0.132966
21
0.520435
0
LINE
8
BLACK
6
CONTINUOUS
10
-0.132966
20
0.520435
11
-0.12582
21
0.524255
0
LINE
8
BLACK
6
CONTINUOUS
10
-0.12582
20
0.524255
11
-0.118065
21
0.526607
0
LINE
8
BLACK
6
CONTINUOUS
10
-0.118065
20
0.526607
11
-0.11
21
0.527402
0
LINE
8
BLACK
6
CONTINUOUS
10
-0.11
20
0.527402
11
-0.101935
21
0.526607
0
LINE
8
BLACK
6
CONTINUOUS
10
-0.00193524
20
0.526607
11
0.00581961
21
0.524255
0
LINE
8
BLACK
6
CONTINUOUS
10
0.00581961
20
0.524255
11
0.0129665
21
0.520435
0
LINE
8
BLACK
6
CONTINUOUS
10
0.0129665
20
0.520435
11
0.0192308
21
0.515294
0
LINE
8
BLACK
6
CONTINUOUS
10
0.0192308
20
0.515294
11
0.0243718
21
0.509029
0
LINE
8
BLACK
6
CONTINUOUS
10
0.0243718
20
0.509029
11
0.0281919
21
0.501883
0
LINE
8
BLACK
6
CONTINUOUS
10
0.0281919
20
0.501883
11
0.0305443
21
0.494128
0
LINE
8
BLACK
6
CONTINUOUS
10
0.0305443
20
0.494128
11
0.0313386
21
0.486063
0
LINE
8
BLACK
6
CONTINUOUS
10
0.0313386
20
0.486063
11
0.0305443
21
0.477998
0
LINE
8
BLACK
6
CONTINUOUS
10
0.0305443
20
0.477998
11
0.0281919
21
0.470243
0
LINE
8
BLACK
6
CONTINUOUS
10
0.0281919
20
0.470243
11
0.0243718
21
0.463096
0
LINE
8
BLACK
6
CONTINUOUS
10
0.0243718
20
0.463096
11
0.0192308
21
0.456832
0
LINE
8
BLACK
6
CONTINUOUS
10
0.0192308
20
0.456832
11
0.0129665
21
0.451691
0
LINE
8
BLACK
6
CONTINUOUS
10
0.0129665
20
0.451691
11
0.00581961
21
0.447871
0
LINE
8
BLACK
6
CONTINUOUS
10
0.00581961
20
0.447871
11
-0.00193524
21
0.445519
0
LINE
8
BLACK
6
CONTINUOUS
10
-0.00193524
20
0.445519
11
-0.01
21
0.444724
0
LINE
8
BLACK
6
CONTINUOUS
10
-0.01
20
0.444724
11
-0.0180648
21
0.445519
0
LINE
8
BLACK
6
CONTINUOUS
10
-0.0180648
20
0.445519
11
-0.0258196
21
0.447871
0
LINE
8
BLACK
6
CONTINUOUS
10
-0.0258196
20
0.447871
11
-0.0329665
21
0.451691
0
LINE
8
BLACK
6
CONTINUOUS
10
-0.0329665
20
0.451691
11
-0.0392308
21
0.456832
0
LINE
8
BLACK
6
CONTINUOUS
10
-0.0392308
20
0.456832
11
-0.0443718
21
0.463096
0
LINE
8
BLACK
6
CONTINUOUS
10
-0.0443718
20
0.463096
11
-0.0481919
21
0.470243
0
LINE
8
BLACK
6
CONTINUOUS
10
-0.0481919
20
0.470243
11
-0.0505443
21
0.477998
0
LINE
8
BLACK
6
CONTINUOUS
10
-0.0505443
20
0.477998
11
-0.0513386
21
0.486063
0
LINE
8
BLACK
6
CONTINUOUS
10
-0.0513386
20
0.486063
11
-0.0505443
21
0.494128
0
LINE
8
BLACK
6
CONTINUOUS
10
-0.0505443
20
0.494128
11
-0.0481919
21
0.501883
0
LINE
8
BLACK
6
CONTINUOUS
10
-0.0481919
20
0.501883
11
-0.0443718
21
0.509029
0
LINE
8
BLACK
6
CONTINUOUS
10
-0.0443718
20
0.509029
11
-0.0392308
21
0.515294
0
LINE
8
BLACK
6
CONTINUOUS
10
-0.0392308
20
0.515294
11
-0.0329665
21
0.520435
0
LINE
8
BLACK
6
CONTINUOUS
10
-0.0329665
20
0.520435
11
-0.0258196
21
0.524255
0
LINE
8
BLACK
6
CONTINUOUS
10
-0.0258196
20
0.524255
11
-0.0180648
21
0.526607
0
LINE
8
BLACK
6
CONTINUOUS
10
-0.0180648
20
0.526607
11
-0.01
21
0.527402
0
LINE
8
BLACK
6
CONTINUOUS
10
-0.01
20
0.527402
11
-0.00193524
21
0.526607
0
LINE
8
BLACK
6
CONTINUOUS
10
0.0980648
20
0.526607
11
0.10582
21
0.524255
0
LINE
8
BLACK
6
CONTINUOUS
10
0.10582
20
0.524255
11
0.112966
21
0.520435
0
LINE
8
BLACK
6
CONTINUOUS
10
0.112966
20
0.520435
11
0.119231
21
0.515294
0
LINE
8
BLACK
6
CONTINUOUS
10
0.119231
20
0.515294
11
0.124372
21
0.509029
0
LINE
8
BLACK
6
CONTINUOUS
10
0.124372
20
0.509029
11
0.128192
21
0.501883
0
LINE
8
BLACK
6
CONTINUOUS
10
0.128192
20
0.501883
11
0.130544
21
0.494128
0
LINE
8
BLACK
6
CONTINUOUS
10
0.130544
20
0.494128
11
0.131339
21
0.486063
0
LINE
8
BLACK
6
CONTINUOUS
10
0.131339
20
0.486063
11
0.130544
21
0.477998
0
LINE
8
BLACK
6
CONTINUOUS
10
0.130544
20
0.477998
11
0.128192
21
0.470243
0
LINE
8
BLACK
6
CONTINUOUS
10
0.128192
20
0.470243
11
0.124372
21
0.463096
0
LINE
8
BLACK
6
CONTINUOUS
10
0.124372
20
0.463096
11
0.119231
21
0.456832
0
LINE
8
BLACK
6
CONTINUOUS
10
0.119231
20
0.456832
11
0.112966
21
0.451691
0
LINE
8
BLACK
6
CONTINUOUS
10
0.112966
20
0.451691
11
0.10582
21
0.447871
0
LINE
8
BLACK
6
CONTINUOUS
10
0.10582
20
0.447871
11
0.0980648
21
0.445519
0
LINE
8
BLACK
6
CONTINUOUS
10
0.0980648
20
0.445519
11
0.09
21
0.444724
0
LINE
8
BLACK
6
CONTINUOUS
10
0.09
20
0.444724
11
0.0819352
21
0.445519
0
LINE
8
BLACK
6
CONTINUOUS
10
0.0819352
20
0.445519
11
0.0741804
21
0.447871
0
LINE
8
BLACK
6
CONTINUOUS
10
0.0741804
20
0.447871
11
0.0670335
21
0.451691
0
LINE
8
BLACK
6
CONTINUOUS
10
0.0670335
20
0.451691
11
0.0607692
21
0.456832
0
LINE
8
BLACK
6
CONTINUOUS
10
0.0607692
20
0.456832
11
0.0556282
21
0.463096
0
LINE
8
BLACK
6
CONTINUOUS
10
0.0556282
20
0.463096
11
0.0518081
21
0.470243
0
LINE
8
BLACK
6
CONTINUOUS
10
0.0518081
20
0.470243
11
0.0494557
21
0.477998
0
LINE
8
BLACK
6
CONTINUOUS
10
0.0494557
20
0.477998
11
0.0486614
21
0.486063
0
LINE
8
BLACK
6
CONTINUOUS
10
0.0486614
20
0.486063
11
0.0494557
21
0.494128
0
LINE
8
BLACK
6
CONTINUOUS
10
0.0494557
20
0.494128
11
0.0518081
21
0.501883
0
LINE
8
BLACK
6
CONTINUOUS
10
0.0518081
20
0.501883
11
0.0556282
21
0.509029
0
LINE
8
BLACK
6
CONTINUOUS
10
0.0556282
20
0.509029
11
0.0607692
21
0.515294
0
LINE
8
BLACK
6
CONTINUOUS
10
0.0607692
20
0.515294
11
0.0670335
21
0.520435
0
LINE
8
BLACK
6
CONTINUOUS
10
0.0670335
20
0.520435
11
0.0741804
21
0.524255
0
LINE
8
BLACK
6
CONTINUOUS
10
0.0741804
20
0.524255
11
0.0819352
21
0.526607
0
LINE
8
BLACK
6
CONTINUOUS
10
0.0819352
20
0.526607
11
0.09
21
0.527402
0
LINE
8
BLACK
6
CONTINUOUS
10
0.09
20
0.527402
11
0.0980648
21
0.526607
0
LINE
8
BLACK
6
CONTINUOUS
10
0.356478
20
0.590739
11
0.359032
21
0.589032
0
LINE
8
BLACK
6
CONTINUOUS
10
0.359032
20
0.589032
11
0.360739
21
0.586478
0
LINE
8
BLACK
6
CONTINUOUS
10
0.360739
20
0.586478
11
0.361339
21
0.583465
0
LINE
8
BLACK
6
CONTINUOUS
10
0.361339
20
0.583465
11
0.361339
21
0.516535
0
LINE
8
BLACK
6
CONTINUOUS
10
0.361339
20
0.516535
11
0.360739
21
0.513522
0
LINE
8
BLACK
6
CONTINUOUS
10
0.360739
20
0.513522
11
0.359032
21
0.510968
0
LINE
8
BLACK
6
CONTINUOUS
10
0.359032
20
0.510968
11
0.356478
21
0.509261
0
LINE
8
BLACK
6
CONTINUOUS
10
0.356478
20
0.509261
11
0.353465
21
0.508661
0
LINE
8
BLACK
6
CONTINUOUS
10
0.353465
20
0.508661
11
0.286535
21
0.508661
0
LINE
8
BLACK
6
CONTINUOUS
10
0.286535
20
0.508661
11
0.283522
21
0.509261
0
LINE
8
BLACK
6
CONTINUOUS
10
0.283522
20
0.509261
11
0.280968
21
0.510968
0
LINE
8
BLACK
6
CONTINUOUS
10
0.280968
20
0.510968
11
0.279261
21
0.513522
0
LINE
8
BLACK
6
CONTINUOUS
10
0.279261
20
0.513522
11
0.278661
21
0.516535
0
LINE
8
BLACK
6
CONTINUOUS
10
0.278661
20
0.516535
11
0.278661
21
0.583465
0
LINE
8
BLACK
6
CONTINUOUS
10
0.278661
20
0.583465
11
0.279261
21
0.586478
0
LINE
8
BLACK
6
CONTINUOUS
10
0.279261
20
0.586478
11
0.280968
21
0.589032
0
LINE
8
BLACK
6
CONTINUOUS
10
0.280968
20
0.589032
11
0.283522
21
0.590739
0
LINE
8
BLACK
6
CONTINUOUS
10
0.283522
20
0.590739
11
0.286535
21
0.591339
0
LINE
8
BLACK
6
CONTINUOUS
10
0.286535
20
0.591339
11
0.353465
21
0.591339
0
LINE
8
BLACK
6
CONTINUOUS
10
0.353465
20
0.591339
11
0.356478
21
0.590739
0
LINE
8
BLACK
6
CONTINUOUS
10
0.428065
20
0.590544
11
0.43582
21
0.588192
0
LINE
8
BLACK
6
CONTINUOUS
10
0.43582
20
0.588192
11
0.442966
21
0.584372
0
LINE
8
BLACK
6
CONTINUOUS
10
0.442966
20
0.584372
11
0.449231
21
0.579231
0
LINE
8
BLACK
6
CONTINUOUS
10
0.449231
20
0.579231
11
0.454372
21
0.572966
0
LINE
8
BLACK
6
CONTINUOUS
10
0.454372
20
0.572966
11
0.458192
21
0.56582
0
LINE
8
BLACK
6
CONTINUOUS
10
0.458192
20
0.56582
11
0.460544
21
0.558065
0
LINE
8
BLACK
6
CONTINUOUS
10
0.460544
20
0.558065
11
0.461339
21
0.55
0
LINE
8
BLACK
6
CONTINUOUS
10
0.461339
20
0.55
11
0.460544
21
0.541935
0
LINE
8
BLACK
6
CONTINUOUS
10
0.460544
20
0.541935
11
0.458192
21
0.53418
0
LINE
8
BLACK
6
CONTINUOUS
10
0.458192
20
0.53418
11
0.454372
21
0.527034
0
LINE
8
BLACK
6
CONTINUOUS
10
0.454372
20
0.527034
11
0.449231
21
0.520769
0
LINE
8
BLACK
6
CONTINUOUS
10
0.449231
20
0.520769
11
0.442966
21
0.515628
0
LINE
8
BLACK
6
CONTINUOUS
10
0.442966
20
0.515628
11
0.43582
21
0.511808
0
LINE
8
BLACK
6
CONTINUOUS
10
0.43582
20
0.511808
11
0.428065
21
0.509456
0
LINE
8
BLACK
6
CONTINUOUS
10
0.428065
20
0.509456
11
0.42
21
0.508661
0
LINE
8
BLACK
6
CONTINUOUS
10
0.42
20
0.508661
11
0.411935
21
0.509456
0
LINE
8
BLACK
6
CONTINUOUS
10
0.411935
20
0.509456
11
0.40418
21
0.511808
0
LINE
8
BLACK
6
CONTINUOUS
10
0.40418
20
0.511808
11
0.397034
21
0.515628
0
LINE
8
BLACK
6
CONTINUOUS
10
0.397034
20
0.515628
11
0.390769
21
0.520769
0
LINE
8
BLACK
6
CONTINUOUS
10
0.390769
20
0.520769
11
0.385628
21
0.527034
0
LINE
8
BLACK
6
CONTINUOUS
10
0.385628
20
0.527034
11
0.381808
21
0.53418
0
LINE
8
BLACK
6
CONTINUOUS
10
0.381808
20
0.53418
11
0.379456
21
0.541935
0
LINE
8
BLACK
6
CONTINUOUS
10
0.379456
20
0.541935
11
0.378661
21
0.55
0
LINE
8
BLACK
6
CONTINUOUS
10
0.378661
20
0.55
11
0.379456
21
0.558065
0
LINE
8
BLACK
6
CONTINUOUS
10
0.379456
20
0.558065
11
0.381808
21
0.56582
0
LINE
8
BLACK
6
CONTINUOUS
10
0.381808
20
0.56582
11
0.385628
21
0.572966
0
LINE
8
BLACK
6
CONTINUOUS
10
0.385628
20
0.572966
11
0.390769
21
0.579231
0
LINE
8
BLACK
6
CONTINUOUS
10
0.390769
20
0.579231
11
0.397034
21
0.584372
0
LINE
8
BLACK
6
CONTINUOUS
10
0.397034
20
0.584372
11
0.40418
21
0.588192
0
LINE
8
BLACK
6
CONTINUOUS
10
0.40418
20
0.588192
11
0.411935
21
0.590544
0
LINE
8
BLACK
6
CONTINUOUS
10
0.411935
20
0.590544
11
0.42
21
0.591339
0
LINE
8
BLACK
6
CONTINUOUS
10
0.42
20
0.591339
11
0.428065
21
0.590544
0
LINE
8
BLACK
6
CONTINUOUS
10
0.540302
20
0.592998
11
0.545286
21
0.591254
0
LINE
8
BLACK
6
CONTINUOUS
10
0.545286
20
0.591254
11
0.549535
21
0.588118
0
LINE
8
BLACK
6
CONTINUOUS
10
0.549535
20
0.588118
11
0.552671
21
0.583869
0
LINE
8
BLACK
6
CONTINUOUS
10
0.552671
20
0.583869
11
0.554416
21
0.578884
0
LINE
8
BLACK
6
CONTINUOUS
10
0.554416
20
0.578884
11
0.554724
21
0.575591
0
LINE
8
BLACK
6
CONTINUOUS
10
0.554724
20
0.575591
11
0.554724
21
0.551969
0
LINE
8
BLACK
6
CONTINUOUS
10
0.554724
20
0.551969
11
0.554416
21
0.548675
0
LINE
8
BLACK
6
CONTINUOUS
10
0.554416
20
0.548675
11
0.552671
21
0.54369
0
LINE
8
BLACK
6
CONTINUOUS
10
0.552671
20
0.54369
11
0.549535
21
0.539441
0
LINE
8
BLACK
6
CONTINUOUS
10
0.549535
20
0.539441
11
0.545286
21
0.536305
0
LINE
8
BLACK
6
CONTINUOUS
10
0.545286
20
0.536305
11
0.540302
21
0.534561
0
LINE
8
BLACK
6
CONTINUOUS
10
0.540302
20
0.534561
11
0.537008
21
0.534252
0
LINE
8
BLACK
6
CONTINUOUS
10
0.537008
20
0.534252
11
0.513386
21
0.534252
0
LINE
8
BLACK
6
CONTINUOUS
10
0.513386
20
0.534252
11
0.510092
21
0.534561
0
LINE
8
BLACK
6
CONTINUOUS
10
0.510092
20
0.534561
11
0.505107
21
0.536305
0
LINE
8
BLACK
6
CONTINUOUS
10
0.505107
20
0.536305
11
0.500858
21
0.539441
0
LINE
8
BLACK
6
CONTINUOUS
10
0.500858
20
0.539441
11
0.497722
21
0.54369
0
LINE
8
BLACK
6
CONTINUOUS
10
0.497722
20
0.54369
11
0.495978
21
0.548675
0
LINE
8
BLACK
6
CONTINUOUS
10
0.495978
20
0.548675
11
0.495669
21
0.551969
0
LINE
8
BLACK
6
CONTINUOUS
10
0.495669
20
0.551969
11
0.495669
21
0.575591
0
LINE
8
BLACK
6
CONTINUOUS
10
0.495669
20
0.575591
11
0.495978
21
0.578884
0
LINE
8
BLACK
6
CONTINUOUS
10
0.495978
20
0.578884
11
0.497722
21
0.583869
0
LINE
8
BLACK
6
CONTINUOUS
10
0.497722
20
0.583869
11
0.500858
21
0.588118
0
LINE
8
BLACK
6
CONTINUOUS
10
0.500858
20
0.588118
11
0.505107
21
0.591254
0
LINE
8
BLACK
6
CONTINUOUS
10
0.505107
20
0.591254
11
0.510092
21
0.592998
0
LINE
8
BLACK
6
CONTINUOUS
10
0.510092
20
0.592998
11
0.513386
21
0.593307
0
LINE
8
BLACK
6
CONTINUOUS
10
0.513386
20
0.593307
11
0.537008
21
0.593307
0
LINE
8
BLACK
6
CONTINUOUS
10
0.537008
20
0.593307
11
0.540302
21
0.592998
0
LINE
8
BLACK
6
CONTINUOUS
10
-0.101935
20
0.626607
11
-0.0941804
21
0.624255
0
LINE
8
BLACK
6
CONTINUOUS
10
-0.0941804
20
0.624255
11
-0.0870335
21
0.620435
0
LINE
8
BLACK
6
CONTINUOUS
10
-0.0870335
20
0.620435
11
-0.0807692
21
0.615294
0
LINE
8
BLACK
6
CONTINUOUS
10
-0.0807692
20
0.615294
11
-0.0756282
21
0.609029
0
LINE
8
BLACK
6
CONTINUOUS
10
-0.0756282
20
0.609029
11
-0.0718081
21
0.601883
0
LINE
8
BLACK
6
CONTINUOUS
10
-0.0718081
20
0.601883
11
-0.0694557
21
0.594128
0
LINE
8
BLACK
6
CONTINUOUS
10
-0.0694557
20
0.594128
11
-0.0686614
21
0.586063
0
LINE
8
BLACK
6
CONTINUOUS
10
-0.0686614
20
0.586063
11
-0.0694557
21
0.577998
0
LINE
8
BLACK
6
CONTINUOUS
10
-0.0694557
20
0.577998
11
-0.0718081
21
0.570243
0
LINE
8
BLACK
6
CONTINUOUS
10
-0.0718081
20
0.570243
11
-0.0756282
21
0.563096
0
LINE
8
BLACK
6
CONTINUOUS
10
-0.0756282
20
0.563096
11
-0.0807692
21
0.556832
0
LINE
8
BLACK
6
CONTINUOUS
10
-0.0807692
20
0.556832
11
-0.0870335
21
0.551691
0
LINE
8
BLACK
6
CONTINUOUS
10
-0.0870335
20
0.551691
11
-0.0941804
21
0.547871
0
LINE
8
BLACK
6
CONTINUOUS
10
-0.0941804
20
0.547871
11
-0.101935
21
0.545519
0
LINE
8
BLACK
6
CONTINUOUS
10
-0.101935
20
0.545519
11
-0.11
21
0.544724
0
LINE
8
BLACK
6
CONTINUOUS
10
-0.11
20
0.544724
11
-0.118065
21
0.545519
0
LINE
8
BLACK
6
CONTINUOUS
10
-0.118065
20
0.545519
11
-0.12582
21
0.547871
0
LINE
8
BLACK
6
CONTINUOUS
10
-0.12582
20
0.547871
11
-0.132966
21
0.551691
0
LINE
8
BLACK
6
CONTINUOUS
10
-0.132966
20
0.551691
11
-0.139231
21
0.556832
0
LINE
8
BLACK
6
CONTINUOUS
10
-0.139231
20
0.556832
11
-0.144372
21
0.563096
0
LINE
8
BLACK
6
CONTINUOUS
10
-0.144372
20
0.563096
11
-0.148192
21
0.570243
0
LINE
8
BLACK
6
CONTINUOUS
10
-0.148192
20
0.570243
11
-0.150544
21
0.577998
0
LINE
8
BLACK
6
CONTINUOUS
10
-0.150544
20
0.577998
11
-0.151339
21
0.586063
0
LINE
8
BLACK
6
CONTINUOUS
10
-0.151339
20
0.586063
11
-0.150544
21
0.594128
0
LINE
8
BLACK
6
CONTINUOUS
10
-0.150544
20
0.594128
11
-0.148192
21
0.601883
0
LINE
8
BLACK
6
CONTINUOUS
10
-0.148192
20
0.601883
11
-0.144372
21
0.609029
0
LINE
8
BLACK
6
CONTINUOUS
10
-0.144372
20
0.609029
11
-0.139231
21
0.615294
0
LINE
8
BLACK
6
CONTINUOUS
10
-0.139231
20
0.615294
11
-0.132966
21
0.620435
0
LINE
8
BLACK
6
CONTINUOUS
10
-0.132966
20
0.620435
11
-0.12582
21
0.624255
0
LINE
8
BLACK
6
CONTINUOUS
10
-0.12582
20
0.624255
11
-0.118065
21
0.626607
0
LINE
8
BLACK
6
CONTINUOUS
10
-0.118065
20
0.626607
11
-0.11
21
0.627402
0
LINE
8
BLACK
6
CONTINUOUS
10
-0.11
20
0.627402
11
-0.101935
21
0.626607
0
LINE
8
BLACK
6
CONTINUOUS
10
-0.00193524
20
0.626607
11
0.00581961
21
0.624255
0
LINE
8
BLACK
6
CONTINUOUS
10
0.00581961
20
0.624255
11
0.0129665
21
0.620435
0
LINE
8
BLACK
6
CONTINUOUS
10
0.0129665
20
0.620435
11
0.0192308
21
0.615294
0
LINE
8
BLACK
6
CONTINUOUS
10
0.0192308
20
0.615294
11
0.0243718
21
0.609029
0
LINE
8
BLACK
6
CONTINUOUS
10
0.0243718
20
0.609029
11
0.0281919
21
0.601883
0
LINE
8
BLACK
6
CONTINUOUS
10
0.0281919
20
0.601883
11
0.0305443
21
0.594128
0
LINE
8
BLACK
6
CONTINUOUS
10
0.0305443
20
0.594128
11
0.0313386
21
0.586063
0
LINE
8
BLACK
6
CONTINUOUS
10
0.0313386
20
0.586063
11
0.0305443
21
0.577998
0
LINE
8
BLACK
6
CONTINUOUS
10
0.0305443
20
0.577998
11
0.0281919
21
0.570243
0
LINE
8
BLACK
6
CONTINUOUS
10
0.0281919
20
0.570243
11
0.0243718
21
0.563096
0
LINE
8
BLACK
6
CONTINUOUS
10
0.0243718
20
0.563096
11
0.0192308
21
0.556832
0
LINE
8
BLACK
6
CONTINUOUS
10
0.0192308
20
0.556832
11
0.0129665
21
0.551691
0
LINE
8
BLACK
6
CONTINUOUS
10
0.0129665
20
0.551691
11
0.00581961
21
0.547871
0
LINE
8
BLACK
6
CONTINUOUS
10
0.00581961
20
0.547871
11
-0.00193524
21
0.545519
0
LINE
8
BLACK
6
CONTINUOUS
10
-0.00193524
20
0.545519
11
-0.01
21
0.544724
0
LINE
8
BLACK
6
CONTINUOUS
10
-0.01
20
0.544724
11
-0.0180648
21
0.545519
0
LINE
8
BLACK
6
CONTINUOUS
10
-0.0180648
20
0.545519
11
-0.0258196
21
0.547871
0
LINE
8
BLACK
6
CONTINUOUS
10
-0.0258196
20
0.547871
11
-0.0329665
21
0.551691
0
LINE
8
BLACK
6
CONTINUOUS
10
-0.0329665
20
0.551691
11
-0.0392308
21
0.556832
0
LINE
8
BLACK
6
CONTINUOUS
10
-0.0392308
20
0.556832
11
-0.0443718
21
0.563096
0
LINE
8
BLACK
6
CONTINUOUS
10
-0.0443718
20
0.563096
11
-0.0481919
21
0.570243
0
LINE
8
BLACK
6
CONTINUOUS
10
-0.0481919
20
0.570243
11
-0.0505443
21
0.577998
0
LINE
8
BLACK
6
CONTINUOUS
10
-0.0505443
20
0.577998
11
-0.0513386
21
0.586063
0
LINE
8
BLACK
6
CONTINUOUS
10
-0.0513386
20
0.586063
11
-0.0505443
21
0.594128
0
LINE
8
BLACK
6
CONTINUOUS
10
-0.0505443
20
0.594128
11
-0.0481919
21
0.601883
0
LINE
8
BLACK
6
CONTINUOUS
10
-0.0481919
20
0.601883
11
-0.0443718
21
0.609029
0
LINE
8
BLACK
6
CONTINUOUS
10
-0.0443718
20
0.609029
11
-0.0392308
21
0.615294
0
LINE
8
BLACK
6
CONTINUOUS
10
-0.0392308
20
0.615294
11
-0.0329665
21
0.620435
0
LINE
8
BLACK
6
CONTINUOUS
10
-0.0329665
20
0.620435
11
-0.0258196
21
0.624255
0
LINE
8
BLACK
6
CONTINUOUS
10
-0.0258196
20
0.624255
11
-0.0180648
21
0.626607
0
LINE
8
BLACK
6
CONTINUOUS
10
-0.0180648
20
0.626607
11
-0.01
21
0.627402
0
LINE
8
BLACK
6
CONTINUOUS
10
-0.01
20
0.627402
11
-0.00193524
21
0.626607
0
LINE
8
BLACK
6
CONTINUOUS
10
0.126478
20
0.626802
11
0.129032
21
0.625095
0
LINE
8
BLACK
6
CONTINUOUS
10
0.129032
20
0.625095
11
0.130739
21
0.622541
0
LINE
8
BLACK
6
CONTINUOUS
10
0.130739
20
0.622541
11
0.131339
21
0.619528
0
LINE
8
BLACK
6
CONTINUOUS
10
0.131339
20
0.619528
11
0.131339
21
0.552598
0
LINE
8
BLACK
6
CONTINUOUS
10
0.131339
20
0.552598
11
0.130739
21
0.549585
0
LINE
8
BLACK
6
CONTINUOUS
10
0.130739
20
0.549585
11
0.129032
21
0.547031
0
LINE
8
BLACK
6
CONTINUOUS
10
0.129032
20
0.547031
11
0.126478
21
0.545324
0
LINE
8
BLACK
6
CONTINUOUS
10
0.126478
20
0.545324
11
0.123465
21
0.544724
0
LINE
8
BLACK
6
CONTINUOUS
10
0.123465
20
0.544724
11
0.0565354
21
0.544724
0
LINE
8
BLACK
6
CONTINUOUS
10
0.0565354
20
0.544724
11
0.0535222
21
0.545324
0
LINE
8
BLACK
6
CONTINUOUS
10
0.0535222
20
0.545324
11
0.0509677
21
0.547031
0
LINE
8
BLACK
6
CONTINUOUS
10
0.0509677
20
0.547031
11
0.0492608
21
0.549585
0
LINE
8
BLACK
6
CONTINUOUS
10
0.0492608
20
0.549585
11
0.0486614
21
0.552598
0
LINE
8
BLACK
6
CONTINUOUS
10
0.0486614
20
0.552598
11
0.0486614
21
0.619528
0
LINE
8
BLACK
6
CONTINUOUS
10
0.0486614
20
0.619528
11
0.0492608
21
0.622541
0
LINE
8
BLACK
6
CONTINUOUS
10
0.0492608
20
0.622541
11
0.0509677
21
0.625095
0
LINE
8
BLACK
6
CONTINUOUS
10
0.0509677
20
0.625095
11
0.0535222
21
0.626802
0
LINE
8
BLACK
6
CONTINUOUS
10
0.0535222
20
0.626802
11
0.0565354
21
0.627402
0
LINE
8
BLACK
6
CONTINUOUS
10
0.0565354
20
0.627402
11
0.123465
21
0.627402
0
LINE
8
BLACK
6
CONTINUOUS
10
0.123465
20
0.627402
11
0.126478
21
0.626802
0
LINE
8
BLACK
6
CONTINUOUS
10
0.207681
20
0.747275
11
0.215066
21
0.745035
0
LINE
8
BLACK
6
CONTINUOUS
10
0.215066
20
0.745035
11
0.221873
21
0.741396
0
LINE
8
BLACK
6
CONTINUOUS
10
0.221873
20
0.741396
11
0.227839
21
0.7365
0
LINE
8
BLACK
6
CONTINUOUS
10
0.227839
20
0.7365
11
0.232735
21
0.730534
0
LINE
8
BLACK
6
CONTINUOUS
10
0.232735
20
0.730534
11
0.236373
21
0.723728
0
LINE
8
BLACK
6
CONTINUOUS
10
0.236373
20
0.723728
11
0.238614
21
0.716342
0
LINE
8
BLACK
6
CONTINUOUS
10
0.238614
20
0.716342
11
0.23937
21
0.708661
0
LINE
8
BLACK
6
CONTINUOUS
10
0.23937
20
0.708661
11
0.238614
21
0.700981
0
LINE
8
BLACK
6
CONTINUOUS
10
0.238614
20
0.700981
11
0.236373
21
0.693595
0
LINE
8
BLACK
6
CONTINUOUS
10
0.236373
20
0.693595
11
0.232735
21
0.686789
0
LINE
8
BLACK
6
CONTINUOUS
10
0.232735
20
0.686789
11
0.227839
21
0.680823
0
LINE
8
BLACK
6
CONTINUOUS
10
0.227839
20
0.680823
11
0.221873
21
0.675926
0
LINE
8
BLACK
6
CONTINUOUS
10
0.221873
20
0.675926
11
0.215066
21
0.672288
0
LINE
8
BLACK
6
CONTINUOUS
10
0.215066
20
0.672288
11
0.207681
21
0.670048
0
LINE
8
BLACK
6
CONTINUOUS
10
0.207681
20
0.670048
11
0.2
21
0.669291
0
LINE
8
BLACK
6
CONTINUOUS
10
0.2
20
0.669291
11
0.192319
21
0.670048
0
LINE
8
BLACK
6
CONTINUOUS
10
0.192319
20
0.670048
11
0.184934
21
0.672288
0
LINE
8
BLACK
6
CONTINUOUS
10
0.184934
20
0.672288
11
0.178127
21
0.675926
0
LINE
8
BLACK
6
CONTINUOUS
10
0.178127
20
0.675926
11
0.172161
21
0.680823
0
LINE
8
BLACK
6
CONTINUOUS
10
0.172161
20
0.680823
11
0.167265
21
0.686789
0
LINE
8
BLACK
6
CONTINUOUS
10
0.167265
20
0.686789
11
0.163627
21
0.693595
0
LINE
8
BLACK
6
CONTINUOUS
10
0.163627
20
0.693595
11
0.161386
21
0.700981
0
LINE
8
BLACK
6
CONTINUOUS
10
0.161386
20
0.700981
11
0.16063
21
0.708661
0
LINE
8
BLACK
6
CONTINUOUS
10
0.16063
20
0.708661
11
0.161386
21
0.716342
0
LINE
8
BLACK
6
CONTINUOUS
10
0.161386
20
0.716342
11
0.163627
21
0.723728
0
LINE
8
BLACK
6
CONTINUOUS
10
0.163627
20
0.723728
11
0.167265
21
0.730534
0
LINE
8
BLACK
6
CONTINUOUS
10
0.167265
20
0.730534
11
0.172161
21
0.7365
0
LINE
8
BLACK
6
CONTINUOUS
10
0.172161
20
0.7365
11
0.178127
21
0.741396
0
LINE
8
BLACK
6
CONTINUOUS
10
0.178127
20
0.741396
11
0.184934
21
0.745035
0
LINE
8
BLACK
6
CONTINUOUS
10
0.184934
20
0.745035
11
0.192319
21
0.747275
0
LINE
8
BLACK
6
CONTINUOUS
10
0.192319
20
0.747275
11
0.2
21
0.748031
0
LINE
8
BLACK
6
CONTINUOUS
10
0.2
20
0.748031
11
0.207681
21
0.747275
0
LINE
8
BLACK
6
CONTINUOUS
10
0.0141057
20
0.925192
11
0.0280341
21
0.922826
0
LINE
8
BLACK
6
CONTINUOUS
10
0.0280341
20
0.922826
11
0.04161
21
0.918914
0
LINE
8
BLACK
6
CONTINUOUS
10
0.04161
20
0.918914
11
0.0546625
21
0.913508
0
LINE
8
BLACK
6
CONTINUOUS
10
0.0546625
20
0.913508
11
0.0670277
21
0.906674
0
LINE
8
BLACK
6
CONTINUOUS
10
0.0670277
20
0.906674
11
0.0785499
21
0.898498
0
LINE
8
BLACK
6
CONTINUOUS
10
0.0785499
20
0.898498
11
0.0890843
21
0.889084
0
LINE
8
BLACK
6
CONTINUOUS
10
0.0890843
20
0.889084
11
0.0984985
21
0.87855
0
LINE
8
BLACK
6
CONTINUOUS
10
0.0984985
20
0.87855
11
0.106674
21
0.867028
0
LINE
8
BLACK
6
CONTINUOUS
10
0.106674
20
0.867028
11
0.113508
21
0.854663
0
LINE
8
BLACK
6
CONTINUOUS
10
0.113508
20
0.854663
11
0.118914
21
0.84161
0
LINE
8
BLACK
6
CONTINUOUS
10
0.118914
20
0.84161
11
0.122826
21
0.828034
0
LINE
8
BLACK
6
CONTINUOUS
10
0.122826
20
0.828034
11
0.125192
21
0.814106
0
LINE
8
BLACK
6
CONTINUOUS
10
0.125192
20
0.814106
11
0.125984
21
0.8
0
LINE
8
BLACK
6
CONTINUOUS
10
0.125984
20
0.8
11
0.125192
21
0.785894
0
LINE
8
BLACK
6
CONTINUOUS
10
0.125192
20
0.785894
11
0.122826
21
0.771966
0
LINE
8
BLACK
6
CONTINUOUS
10
0.122826
20
0.771966
11
0.118914
21
0.75839
0
LINE
8
BLACK
6
CONTINUOUS
10
0.118914
20
0.75839
11
0.113508
21
0.745337
0
LINE
8
BLACK
6
CONTINUOUS
10
0.113508
20
0.745337
11
0.106674
21
0.732972
0
LINE
8
BLACK
6
CONTINUOUS
10
0.106674
20
0.732972
11
0.0984985
21
0.72145
0
LINE
8
BLACK
6
CONTINUOUS
10
0.0984985
20
0.72145
11
0.0890843
21
0.710916
0
LINE
8
BLACK
6
CONTINUOUS
10
0.0890843
20
0.710916
11
0.0785499
21
0.701502
0
LINE
8
BLACK
6
CONTINUOUS
10
0.0785499
20
0.701502
11
0.0670277
21
0.693326
0
LINE
8
BLACK
6
CONTINUOUS
10
0.0670277
20
0.693326
11
0.0546625
21
0.686492
0
LINE
8
BLACK
6
CONTINUOUS
10
0.0546625
20
0.686492
11
0.04161
21
0.681086
0
LINE
8
BLACK
6
CONTINUOUS
10
0.04161
20
0.681086
11
0.0280341
21
0.677174
0
LINE
8
BLACK
6
CONTINUOUS
10
0.0280341
20
0.677174
11
0.0141057
21
0.674808
0
LINE
8
BLACK
6
CONTINUOUS
10
0.0141057
20
0.674808
11
0
21
0.674016
0
LINE
8
BLACK
6
CONTINUOUS
10
0
20
0.674016
11
-0.0141057
21
0.674808
0
LINE
8
BLACK
6
CONTINUOUS
10
-0.0141057
20
0.674808
11
-0.0280341
21
0.677174
0
LINE
8
BLACK
6
CONTINUOUS
10
-0.0280341
20
0.677174
11
-0.04161
21
0.681086
0
LINE
8
BLACK
6
CONTINUOUS
10
-0.04161
20
0.681086
11
-0.0546625
21
0.686492
0
LINE
8
BLACK
6
CONTINUOUS
10
-0.0546625
20
0.686492
11
-0.0670277
21
0.693326
0
LINE
8
BLACK
6
CONTINUOUS
10
-0.0670277
20
0.693326
11
-0.0785499
21
0.701502
0
LINE
8
BLACK
6
CONTINUOUS
10
-0.0785499
20
0.701502
11
-0.0890843
21
0.710916
0
LINE
8
BLACK
6
CONTINUOUS
10
-0.0890843
20
0.710916
11
-0.0984985
21
0.72145
0
LINE
8
BLACK
6
CONTINUOUS
10
-0.0984985
20
0.72145
11
-0.106674
21
0.732972
0
LINE
8
BLACK
6
CONTINUOUS
10
-0.106674
20
0.732972
11
-0.113508
21
0.745337
0
LINE
8
BLACK
6
CONTINUOUS
10
-0.113508
20
0.745337
11
-0.118914
21
0.75839
0
LINE
8
BLACK
6
CONTINUOUS
10
-0.118914
20
0.75839
11
-0.122826
21
0.771966
0
LINE
8
BLACK
6
CONTINUOUS
10
-0.122826
20
0.771966
11
-0.125192
21
0.785894
0
LINE
8
BLACK
6
CONTINUOUS
10
-0.125192
20
0.785894
11
-0.125984
21
0.8
0
LINE
8
BLACK
6
CONTINUOUS
10
-0.125984
20
0.8
11
-0.125192
21
0.814106
0
LINE
8
BLACK
6
CONTINUOUS
10
-0.125192
20
0.814106
11
-0.122826
21
0.828034
0
LINE
8
BLACK
6
CONTINUOUS
10
-0.122826
20
0.828034
11
-0.118914
21
0.84161
0
LINE
8
BLACK
6
CONTINUOUS
10
-0.118914
20
0.84161
11
-0.113508
21
0.854663
0
LINE
8
BLACK
6
CONTINUOUS
10
-0.113508
20
0.854663
11
-0.106674
21
0.867028
0
LINE
8
BLACK
6
CONTINUOUS
10
-0.106674
20
0.867028
11
-0.0984985
21
0.87855
0
LINE
8
BLACK
6
CONTINUOUS
10
-0.0984985
20
0.87855
11
-0.0890843
21
0.889084
0
LINE
8
BLACK
6
CONTINUOUS
10
-0.0890843
20
0.889084
11
-0.0785499
21
0.898498
0
LINE
8
BLACK
6
CONTINUOUS
10
-0.0785499
20
0.898498
11
-0.0670277
21
0.906674
0
LINE
8
BLACK
6
CONTINUOUS
10
-0.0670277
20
0.906674
11
-0.0546625
21
0.913508
0
LINE
8
BLACK
6
CONTINUOUS
10
-0.0546625
20
0.913508
11
-0.04161
21
0.918914
0
LINE
8
BLACK
6
CONTINUOUS
10
-0.04161
20
0.918914
11
-0.0280341
21
0.922826
0
LINE
8
BLACK
6
CONTINUOUS
10
-0.0280341
20
0.922826
11
-0.0141057
21
0.925192
0
LINE
8
BLACK
6
CONTINUOUS
10
-0.0141057
20
0.925192
11
0
21
0.925984
0
LINE
8
BLACK
6
CONTINUOUS
10
0
20
0.925984
11
0.0141057
21
0.925192
0
LINE
8
BLACK
6
CONTINUOUS
10
0.414106
20
0.925192
11
0.428034
21
0.922826
0
LINE
8
BLACK
6
CONTINUOUS
10
0.428034
20
0.922826
11
0.44161
21
0.918914
0
LINE
8
BLACK
6
CONTINUOUS
10
0.44161
20
0.918914
11
0.454663
21
0.913508
0
LINE
8
BLACK
6
CONTINUOUS
10
0.454663
20
0.913508
11
0.467028
21
0.906674
0
LINE
8
BLACK
6
CONTINUOUS
10
0.467028
20
0.906674
11
0.47855
21
0.898498
0
LINE
8
BLACK
6
CONTINUOUS
10
0.47855
20
0.898498
11
0.489084
21
0.889084
0
LINE
8
BLACK
6
CONTINUOUS
10
0.489084
20
0.889084
11
0.498498
21
0.87855
0
LINE
8
BLACK
6
CONTINUOUS
10
0.498498
20
0.87855
11
0.506674
21
0.867028
0
LINE
8
BLACK
6
CONTINUOUS
10
0.506674
20
0.867028
11
0.513508
21
0.854663
0
LINE
8
BLACK
6
CONTINUOUS
10
0.513508
20
0.854663
11
0.518914
21
0.84161
0
LINE
8
BLACK
6
CONTINUOUS
10
0.518914
20
0.84161
11
0.522826
21
0.828034
0
LINE
8
BLACK
6
CONTINUOUS
10
0.522826
20
0.828034
11
0.525192
21
0.814106
0
LINE
8
BLACK
6
CONTINUOUS
10
0.525192
20
0.814106
11
0.525984
21
0.8
0
LINE
8
BLACK
6
CONTINUOUS
10
0.525984
20
0.8
11
0.525192
21
0.785894
0
LINE
8
BLACK
6
CONTINUOUS
10
0.525192
20
0.785894
11
0.522826
21
0.771966
0
LINE
8
BLACK
6
CONTINUOUS
10
0.522826
20
0.771966
11
0.518914
21
0.75839
0
LINE
8
BLACK
6
CONTINUOUS
10
0.518914
20
0.75839
11
0.513508
21
0.745337
0
LINE
8
BLACK
6
CONTINUOUS
10
0.513508
20
0.745337
11
0.506674
21
0.732972
0
LINE
8
BLACK
6
CONTINUOUS
10
0.506674
20
0.732972
11
0.498498
21
0.72145
0
LINE
8
BLACK
6
CONTINUOUS
10
0.498498
20
0.72145
11
0.489084
21
0.710916
0
LINE
8
BLACK
6
CONTINUOUS
10
0.489084
20
0.710916
11
0.47855
21
0.701502
0
LINE
8
BLACK
6
CONTINUOUS
10
0.47855
20
0.701502
11
0.467028
21
0.693326
0
LINE
8
BLACK
6
CONTINUOUS
10
0.467028
20
0.693326
11
0.454663
21
0.686492
0
LINE
8
BLACK
6
CONTINUOUS
10
0.454663
20
0.686492
11
0.44161
21
0.681086
0
LINE
8
BLACK
6
CONTINUOUS
10
0.44161
20
0.681086
11
0.428034
21
0.677174
0
LINE
8
BLACK
6
CONTINUOUS
10
0.428034
20
0.677174
11
0.414106
21
0.674808
0
LINE
8
BLACK
6
CONTINUOUS
10
0.414106
20
0.674808
11
0.4
21
0.674016
0
LINE
8
BLACK
6
CONTINUOUS
10
0.4
20
0.674016
11
0.385894
21
0.674808
0
LINE
8
BLACK
6
CONTINUOUS
10
0.385894
20
0.674808
11
0.371966
21
0.677174
0
LINE
8
BLACK
6
CONTINUOUS
10
0.371966
20
0.677174
11
0.35839
21
0.681086
0
LINE
8
BLACK
6
CONTINUOUS
10
0.35839
20
0.681086
11
0.345337
21
0.686492
0
LINE
8
BLACK
6
CONTINUOUS
10
0.345337
20
0.686492
11
0.332972
21
0.693326
0
LINE
8
BLACK
6
CONTINUOUS
10
0.332972
20
0.693326
11
0.32145
21
0.701502
0
LINE
8
BLACK
6
CONTINUOUS
10
0.32145
20
0.701502
11
0.310916
21
0.710916
0
LINE
8
BLACK
6
CONTINUOUS
10
0.310916
20
0.710916
11
0.301502
21
0.72145
0
LINE
8
BLACK
6
CONTINUOUS
10
0.301502
20
0.72145
11
0.293326
21
0.732972
0
LINE
8
BLACK
6
CONTINUOUS
10
0.293326
20
0.732972
11
0.286492
21
0.745337
0
LINE
8
BLACK
6
CONTINUOUS
10
0.286492
20
0.745337
11
0.281086
21
0.75839
0
LINE
8
BLACK
6
CONTINUOUS
10
0.281086
20
0.75839
11
0.277174
21
0.771966
0
LINE
8
BLACK
6
CONTINUOUS
10
0.277174
20
0.771966
11
0.274808
21
0.785894
0
LINE
8
BLACK
6
CONTINUOUS
10
0.274808
20
0.785894
11
0.274016
21
0.8
0
LINE
8
BLACK
6
CONTINUOUS
10
0.274016
20
0.8
11
0.274808
21
0.814106
0
LINE
8
BLACK
6
CONTINUOUS
10
0.274808
20
0.814106
11
0.277174
21
0.828034
0
LINE
8
BLACK
6
CONTINUOUS
10
0.277174
20
0.828034
11
0.281086
21
0.84161
0
LINE
8
BLACK
6
CONTINUOUS
10
0.281086
20
0.84161
11
0.286492
21
0.854663
0
LINE
8
BLACK
6
CONTINUOUS
10
0.286492
20
0.854663
11
0.293326
21
0.867028
0
LINE
8
BLACK
6
CONTINUOUS
10
0.293326
20
0.867028
11
0.301502
21
0.87855
0
LINE
8
BLACK
6
CONTINUOUS
10
0.301502
20
0.87855
11
0.310916
21
0.889084
0
LINE
8
BLACK
6
CONTINUOUS
10
0.310916
20
0.889084
11
0.32145
21
0.898498
0
LINE
8
BLACK
6
CONTINUOUS
10
0.32145
20
0.898498
11
0.332972
21
0.906674
0
LINE
8
BLACK
6
CONTINUOUS
10
0.332972
20
0.906674
11
0.345337
21
0.913508
0
LINE
8
BLACK
6
CONTINUOUS
10
0.345337
20
0.913508
11
0.35839
21
0.918914
0
LINE
8
BLACK
6
CONTINUOUS
10
0.35839
20
0.918914
11
0.371966
21
0.922826
0
LINE
8
BLACK
6
CONTINUOUS
10
0.371966
20
0.922826
11
0.385894
21
0.925192
0
LINE
8
BLACK
6
CONTINUOUS
10
0.385894
20
0.925192
11
0.4
21
0.925984
0
LINE
8
BLACK
6
CONTINUOUS
10
0.4
20
0.925984
11
0.414106
21
0.925192
  0
ENDSEC
  0
EOF
