  0
SECTION
  2
HEADER
  9
$ANGBASE
  50
0.0
  9
$ANGDIR
  70
1
  9
$MEASUREMENT
  70
0
  0
ENDSEC
  0
SECTION
  2
TABLES
  0
TABLE
  2
LTYPE
  70
4
  0
LTYPE
  5
40F
  2
CONTINUOUS
  70
0
  3
Solid line
  72
65
  73
0
  40
0.0
  0
LTYPE
  5
410
  2
DASHDOT
 70
0
  3
Dash Dot ____ _ ____ _
 72
65
 73
4
 40
2.0
 49
1.25
 49
-0.25
 49
0.25
 49
-0.25
  0
LTYPE
  5
411
  2
DASHED
 70
0
  3
Dashed __ __ __ __ __
 72
65
 73
2
 40
0.75
 49
0.5
 49
-0.25
  0
LTYPE
  5
43B
  2
DOTTED
 70
0
  3
Dotted .  .  .  .
 72
65
 73
2
 40
0.2
 49
0.0
 49
-0.2
  0
ENDTAB
  0
TABLE
  2
STYLE
  70
4
  0
STYLE
  2
KICAD
  70
0
  40
0
  41
1
  42
1
  50
0
  71
0
  3
isocp.shx
  0
STYLE
  2
KICADB
  70
0
  40
0
  41
1
  42
1
  50
0
  71
0
  3
isocp.shx
  0
STYLE
  2
KICADI
  70
0
  40
0
  41
1
  42
1
  50
15
  71
0
  3
isocp.shx
  0
STYLE
  2
KICADBI
  70
0
  40
0
  41
1
  42
1
  50
15
  71
0
  3
isocp.shx
  0
ENDTAB
  0
TABLE
  2
LAYER
  70
1
  0
LAYER
  2
BLACK
  70
0
  62
7
  6
CONTINUOUS
  0
ENDTAB
  0
ENDSEC
  0
SECTION
  2
ENTITIES
0
LINE
8
BLACK
6
CONTINUOUS
10
5.59008
20
-3.72519
11
5.59077
21
-3.72709
0
LINE
8
BLACK
6
CONTINUOUS
10
5.59077
20
-3.72709
11
5.59077
21
-3.74771
0
LINE
8
BLACK
6
CONTINUOUS
10
5.59077
20
-3.74771
11
5.59059
21
-3.74872
0
LINE
8
BLACK
6
CONTINUOUS
10
5.59059
20
-3.74872
11
5.59048
21
-3.74886
0
LINE
8
BLACK
6
CONTINUOUS
10
5.59048
20
-3.74886
11
5.59045
21
-3.74904
0
LINE
8
BLACK
6
CONTINUOUS
10
5.59045
20
-3.74904
11
5.58858
21
-3.75279
0
LINE
8
BLACK
6
CONTINUOUS
10
5.58858
20
-3.75279
11
5.58797
21
-3.75361
0
LINE
8
BLACK
6
CONTINUOUS
10
5.58797
20
-3.75361
11
5.58756
21
-3.75378
0
LINE
8
BLACK
6
CONTINUOUS
10
5.58756
20
-3.75378
11
5.58726
21
-3.75411
0
LINE
8
BLACK
6
CONTINUOUS
10
5.58726
20
-3.75411
11
5.58351
21
-3.75598
0
LINE
8
BLACK
6
CONTINUOUS
10
5.58351
20
-3.75598
11
5.58253
21
-3.75627
0
LINE
8
BLACK
6
CONTINUOUS
10
5.58253
20
-3.75627
11
5.58236
21
-3.75623
0
LINE
8
BLACK
6
CONTINUOUS
10
5.58236
20
-3.75623
11
5.58219
21
-3.75629
0
LINE
8
BLACK
6
CONTINUOUS
10
5.58219
20
-3.75629
11
5.57657
21
-3.75629
0
LINE
8
BLACK
6
CONTINUOUS
10
5.57657
20
-3.75629
11
5.57556
21
-3.75611
0
LINE
8
BLACK
6
CONTINUOUS
10
5.57556
20
-3.75611
11
5.57542
21
-3.756
0
LINE
8
BLACK
6
CONTINUOUS
10
5.57542
20
-3.756
11
5.57524
21
-3.75598
0
LINE
8
BLACK
6
CONTINUOUS
10
5.57524
20
-3.75598
11
5.5732
21
-3.75496
0
LINE
8
BLACK
6
CONTINUOUS
10
5.5732
20
-3.75496
11
5.57242
21
-3.7559
0
LINE
8
BLACK
6
CONTINUOUS
10
5.57242
20
-3.7559
11
5.57043
21
-3.75625
0
LINE
8
BLACK
6
CONTINUOUS
10
5.57043
20
-3.75625
11
5.56868
21
-3.75524
0
LINE
8
BLACK
6
CONTINUOUS
10
5.56868
20
-3.75524
11
5.56799
21
-3.75334
0
LINE
8
BLACK
6
CONTINUOUS
10
5.56799
20
-3.75334
11
5.56799
21
-3.72709
0
LINE
8
BLACK
6
CONTINUOUS
10
5.56799
20
-3.72709
11
5.56817
21
-3.72608
0
LINE
8
BLACK
6
CONTINUOUS
10
5.56817
20
-3.72608
11
5.56946
21
-3.72454
0
LINE
8
BLACK
6
CONTINUOUS
10
5.56946
20
-3.72454
11
5.57145
21
-3.72418
0
LINE
8
BLACK
6
CONTINUOUS
10
5.57145
20
-3.72418
11
5.5732
21
-3.72519
0
LINE
8
BLACK
6
CONTINUOUS
10
5.5732
20
-3.72519
11
5.57389
21
-3.72709
0
LINE
8
BLACK
6
CONTINUOUS
10
5.57389
20
-3.72709
11
5.57389
21
-3.74837
0
LINE
8
BLACK
6
CONTINUOUS
10
5.57389
20
-3.74837
11
5.57456
21
-3.74904
0
LINE
8
BLACK
6
CONTINUOUS
10
5.57456
20
-3.74904
11
5.57726
21
-3.75039
0
LINE
8
BLACK
6
CONTINUOUS
10
5.57726
20
-3.75039
11
5.58149
21
-3.75039
0
LINE
8
BLACK
6
CONTINUOUS
10
5.58149
20
-3.75039
11
5.58374
21
-3.74926
0
LINE
8
BLACK
6
CONTINUOUS
10
5.58374
20
-3.74926
11
5.58486
21
-3.74702
0
LINE
8
BLACK
6
CONTINUOUS
10
5.58486
20
-3.74702
11
5.58486
21
-3.72709
0
LINE
8
BLACK
6
CONTINUOUS
10
5.58486
20
-3.72709
11
5.58504
21
-3.72608
0
LINE
8
BLACK
6
CONTINUOUS
10
5.58504
20
-3.72608
11
5.58634
21
-3.72454
0
LINE
8
BLACK
6
CONTINUOUS
10
5.58634
20
-3.72454
11
5.58833
21
-3.72418
0
LINE
8
BLACK
6
CONTINUOUS
10
5.58833
20
-3.72418
11
5.59008
21
-3.72519
0
LINE
8
BLACK
6
CONTINUOUS
10
5.61882
20
-3.71119
11
5.61896
21
-3.71131
0
LINE
8
BLACK
6
CONTINUOUS
10
5.61896
20
-3.71131
11
5.61913
21
-3.71133
0
LINE
8
BLACK
6
CONTINUOUS
10
5.61913
20
-3.71133
11
5.62288
21
-3.7132
0
LINE
8
BLACK
6
CONTINUOUS
10
5.62288
20
-3.7132
11
5.62359
21
-3.71373
0
LINE
8
BLACK
6
CONTINUOUS
10
5.62359
20
-3.71373
11
5.62365
21
-3.71376
0
LINE
8
BLACK
6
CONTINUOUS
10
5.62365
20
-3.71376
11
5.62552
21
-3.71563
0
LINE
8
BLACK
6
CONTINUOUS
10
5.62552
20
-3.71563
11
5.62603
21
-3.71635
0
LINE
8
BLACK
6
CONTINUOUS
10
5.62603
20
-3.71635
11
5.62608
21
-3.7164
0
LINE
8
BLACK
6
CONTINUOUS
10
5.62608
20
-3.7164
11
5.62795
21
-3.72015
0
LINE
8
BLACK
6
CONTINUOUS
10
5.62795
20
-3.72015
11
5.6281
21
-3.72064
0
LINE
8
BLACK
6
CONTINUOUS
10
5.6281
20
-3.72064
11
5.62817
21
-3.72075
0
LINE
8
BLACK
6
CONTINUOUS
10
5.62817
20
-3.72075
11
5.63005
21
-3.72825
0
LINE
8
BLACK
6
CONTINUOUS
10
5.63005
20
-3.72825
11
5.63009
21
-3.72884
0
LINE
8
BLACK
6
CONTINUOUS
10
5.63009
20
-3.72884
11
5.63014
21
-3.72897
0
LINE
8
BLACK
6
CONTINUOUS
10
5.63014
20
-3.72897
11
5.63014
21
-3.73834
0
LINE
8
BLACK
6
CONTINUOUS
10
5.63014
20
-3.73834
11
5.63003
21
-3.73892
0
LINE
8
BLACK
6
CONTINUOUS
10
5.63003
20
-3.73892
11
5.63005
21
-3.73906
0
LINE
8
BLACK
6
CONTINUOUS
10
5.63005
20
-3.73906
11
5.62817
21
-3.74656
0
LINE
8
BLACK
6
CONTINUOUS
10
5.62817
20
-3.74656
11
5.62797
21
-3.74702
0
LINE
8
BLACK
6
CONTINUOUS
10
5.62797
20
-3.74702
11
5.62795
21
-3.74716
0
LINE
8
BLACK
6
CONTINUOUS
10
5.62795
20
-3.74716
11
5.62608
21
-3.75091
0
LINE
8
BLACK
6
CONTINUOUS
10
5.62608
20
-3.75091
11
5.62555
21
-3.75162
0
LINE
8
BLACK
6
CONTINUOUS
10
5.62555
20
-3.75162
11
5.62552
21
-3.75168
0
LINE
8
BLACK
6
CONTINUOUS
10
5.62552
20
-3.75168
11
5.62365
21
-3.75355
0
LINE
8
BLACK
6
CONTINUOUS
10
5.62365
20
-3.75355
11
5.62292
21
-3.75406
0
LINE
8
BLACK
6
CONTINUOUS
10
5.62292
20
-3.75406
11
5.62288
21
-3.75411
0
LINE
8
BLACK
6
CONTINUOUS
10
5.62288
20
-3.75411
11
5.61913
21
-3.75598
0
LINE
8
BLACK
6
CONTINUOUS
10
5.61913
20
-3.75598
11
5.61815
21
-3.75627
0
LINE
8
BLACK
6
CONTINUOUS
10
5.61815
20
-3.75627
11
5.61798
21
-3.75623
0
LINE
8
BLACK
6
CONTINUOUS
10
5.61798
20
-3.75623
11
5.61781
21
-3.75629
0
LINE
8
BLACK
6
CONTINUOUS
10
5.61781
20
-3.75629
11
5.61406
21
-3.75629
0
LINE
8
BLACK
6
CONTINUOUS
10
5.61406
20
-3.75629
11
5.61305
21
-3.75611
0
LINE
8
BLACK
6
CONTINUOUS
10
5.61305
20
-3.75611
11
5.61292
21
-3.756
0
LINE
8
BLACK
6
CONTINUOUS
10
5.61292
20
-3.756
11
5.61274
21
-3.75598
0
LINE
8
BLACK
6
CONTINUOUS
10
5.61274
20
-3.75598
11
5.60899
21
-3.75411
0
LINE
8
BLACK
6
CONTINUOUS
10
5.60899
20
-3.75411
11
5.60828
21
-3.75358
0
LINE
8
BLACK
6
CONTINUOUS
10
5.60828
20
-3.75358
11
5.60822
21
-3.75355
0
LINE
8
BLACK
6
CONTINUOUS
10
5.60822
20
-3.75355
11
5.60635
21
-3.75168
0
LINE
8
BLACK
6
CONTINUOUS
10
5.60635
20
-3.75168
11
5.60584
21
-3.75095
0
LINE
8
BLACK
6
CONTINUOUS
10
5.60584
20
-3.75095
11
5.6058
21
-3.75091
0
LINE
8
BLACK
6
CONTINUOUS
10
5.6058
20
-3.75091
11
5.60392
21
-3.74716
0
LINE
8
BLACK
6
CONTINUOUS
10
5.60392
20
-3.74716
11
5.60378
21
-3.74667
0
LINE
8
BLACK
6
CONTINUOUS
10
5.60378
20
-3.74667
11
5.6037
21
-3.74656
0
LINE
8
BLACK
6
CONTINUOUS
10
5.6037
20
-3.74656
11
5.60182
21
-3.73906
0
LINE
8
BLACK
6
CONTINUOUS
10
5.60182
20
-3.73906
11
5.60178
21
-3.73847
0
LINE
8
BLACK
6
CONTINUOUS
10
5.60178
20
-3.73847
11
5.60173
21
-3.73834
0
LINE
8
BLACK
6
CONTINUOUS
10
5.60173
20
-3.73834
11
5.60173
21
-3.72897
0
LINE
8
BLACK
6
CONTINUOUS
10
5.60173
20
-3.72897
11
5.60184
21
-3.72839
0
LINE
8
BLACK
6
CONTINUOUS
10
5.60184
20
-3.72839
11
5.60182
21
-3.72825
0
LINE
8
BLACK
6
CONTINUOUS
10
5.60182
20
-3.72825
11
5.6037
21
-3.72075
0
LINE
8
BLACK
6
CONTINUOUS
10
5.6037
20
-3.72075
11
5.6039
21
-3.72029
0
LINE
8
BLACK
6
CONTINUOUS
10
5.6039
20
-3.72029
11
5.60392
21
-3.72015
0
LINE
8
BLACK
6
CONTINUOUS
10
5.60392
20
-3.72015
11
5.6058
21
-3.7164
0
LINE
8
BLACK
6
CONTINUOUS
10
5.6058
20
-3.7164
11
5.60632
21
-3.71569
0
LINE
8
BLACK
6
CONTINUOUS
10
5.60632
20
-3.71569
11
5.60635
21
-3.71563
0
LINE
8
BLACK
6
CONTINUOUS
10
5.60635
20
-3.71563
11
5.60822
21
-3.71376
0
LINE
8
BLACK
6
CONTINUOUS
10
5.60822
20
-3.71376
11
5.60895
21
-3.71325
0
LINE
8
BLACK
6
CONTINUOUS
10
5.60895
20
-3.71325
11
5.60899
21
-3.7132
0
LINE
8
BLACK
6
CONTINUOUS
10
5.60899
20
-3.7132
11
5.61274
21
-3.71133
0
LINE
8
BLACK
6
CONTINUOUS
10
5.61274
20
-3.71133
11
5.61372
21
-3.71104
0
LINE
8
BLACK
6
CONTINUOUS
10
5.61372
20
-3.71104
11
5.61389
21
-3.71108
0
LINE
8
BLACK
6
CONTINUOUS
10
5.61389
20
-3.71108
11
5.61406
21
-3.71102
0
LINE
8
BLACK
6
CONTINUOUS
10
5.61406
20
-3.71102
11
5.61781
21
-3.71102
0
LINE
8
BLACK
6
CONTINUOUS
10
5.61781
20
-3.71102
11
5.61882
21
-3.71119
0
LINE
8
BLACK
6
CONTINUOUS
10
5.61206
20
-3.71827
11
5.61086
21
-3.71947
0
LINE
8
BLACK
6
CONTINUOUS
10
5.61086
20
-3.71947
11
5.60935
21
-3.7225
0
LINE
8
BLACK
6
CONTINUOUS
10
5.60935
20
-3.7225
11
5.60764
21
-3.72933
0
LINE
8
BLACK
6
CONTINUOUS
10
5.60764
20
-3.72933
11
5.60764
21
-3.73798
0
LINE
8
BLACK
6
CONTINUOUS
10
5.60764
20
-3.73798
11
5.60935
21
-3.74481
0
LINE
8
BLACK
6
CONTINUOUS
10
5.60935
20
-3.74481
11
5.61086
21
-3.74784
0
LINE
8
BLACK
6
CONTINUOUS
10
5.61086
20
-3.74784
11
5.61206
21
-3.74904
0
LINE
8
BLACK
6
CONTINUOUS
10
5.61206
20
-3.74904
11
5.61476
21
-3.75039
0
LINE
8
BLACK
6
CONTINUOUS
10
5.61476
20
-3.75039
11
5.61711
21
-3.75039
0
LINE
8
BLACK
6
CONTINUOUS
10
5.61711
20
-3.75039
11
5.61981
21
-3.74904
0
LINE
8
BLACK
6
CONTINUOUS
10
5.61981
20
-3.74904
11
5.62101
21
-3.74784
0
LINE
8
BLACK
6
CONTINUOUS
10
5.62101
20
-3.74784
11
5.62252
21
-3.74481
0
LINE
8
BLACK
6
CONTINUOUS
10
5.62252
20
-3.74481
11
5.62423
21
-3.73798
0
LINE
8
BLACK
6
CONTINUOUS
10
5.62423
20
-3.73798
11
5.62423
21
-3.72933
0
LINE
8
BLACK
6
CONTINUOUS
10
5.62423
20
-3.72933
11
5.62252
21
-3.7225
0
LINE
8
BLACK
6
CONTINUOUS
10
5.62252
20
-3.7225
11
5.62101
21
-3.71947
0
LINE
8
BLACK
6
CONTINUOUS
10
5.62101
20
-3.71947
11
5.61981
21
-3.71827
0
LINE
8
BLACK
6
CONTINUOUS
10
5.61981
20
-3.71827
11
5.61711
21
-3.71692
0
LINE
8
BLACK
6
CONTINUOUS
10
5.61711
20
-3.71692
11
5.61476
21
-3.71692
0
LINE
8
BLACK
6
CONTINUOUS
10
5.61476
20
-3.71692
11
5.61206
21
-3.71827
0
LINE
8
BLACK
6
CONTINUOUS
10
5.65409
20
-3.71115
11
5.65426
21
-3.71114
0
LINE
8
BLACK
6
CONTINUOUS
10
5.65426
20
-3.71114
11
5.65495
21
-3.71164
0
LINE
8
BLACK
6
CONTINUOUS
10
5.65495
20
-3.71164
11
5.65569
21
-3.71207
0
LINE
8
BLACK
6
CONTINUOUS
10
5.65569
20
-3.71207
11
5.65575
21
-3.71223
0
LINE
8
BLACK
6
CONTINUOUS
10
5.65575
20
-3.71223
11
5.65589
21
-3.71233
0
LINE
8
BLACK
6
CONTINUOUS
10
5.65589
20
-3.71233
11
5.65947
21
-3.71771
0
LINE
8
BLACK
6
CONTINUOUS
10
5.65947
20
-3.71771
11
5.66268
21
-3.72092
0
LINE
8
BLACK
6
CONTINUOUS
10
5.66268
20
-3.72092
11
5.666
21
-3.72258
0
LINE
8
BLACK
6
CONTINUOUS
10
5.666
20
-3.72258
11
5.66682
21
-3.72319
0
LINE
8
BLACK
6
CONTINUOUS
10
5.66682
20
-3.72319
11
5.66763
21
-3.72504
0
LINE
8
BLACK
6
CONTINUOUS
10
5.66763
20
-3.72504
11
5.66705
21
-3.72698
0
LINE
8
BLACK
6
CONTINUOUS
10
5.66705
20
-3.72698
11
5.66537
21
-3.72809
0
LINE
8
BLACK
6
CONTINUOUS
10
5.66537
20
-3.72809
11
5.66336
21
-3.72786
0
LINE
8
BLACK
6
CONTINUOUS
10
5.66336
20
-3.72786
11
5.65961
21
-3.72598
0
LINE
8
BLACK
6
CONTINUOUS
10
5.65961
20
-3.72598
11
5.6589
21
-3.72546
0
LINE
8
BLACK
6
CONTINUOUS
10
5.6589
20
-3.72546
11
5.65884
21
-3.72543
0
LINE
8
BLACK
6
CONTINUOUS
10
5.65884
20
-3.72543
11
5.65638
21
-3.72297
0
LINE
8
BLACK
6
CONTINUOUS
10
5.65638
20
-3.72297
11
5.65638
21
-3.75039
0
LINE
8
BLACK
6
CONTINUOUS
10
5.65638
20
-3.75039
11
5.66468
21
-3.75039
0
LINE
8
BLACK
6
CONTINUOUS
10
5.66468
20
-3.75039
11
5.66569
21
-3.75056
0
LINE
8
BLACK
6
CONTINUOUS
10
5.66569
20
-3.75056
11
5.66724
21
-3.75186
0
LINE
8
BLACK
6
CONTINUOUS
10
5.66724
20
-3.75186
11
5.66759
21
-3.75385
0
LINE
8
BLACK
6
CONTINUOUS
10
5.66759
20
-3.75385
11
5.66658
21
-3.7556
0
LINE
8
BLACK
6
CONTINUOUS
10
5.66658
20
-3.7556
11
5.66468
21
-3.75629
0
LINE
8
BLACK
6
CONTINUOUS
10
5.66468
20
-3.75629
11
5.64218
21
-3.75629
0
LINE
8
BLACK
6
CONTINUOUS
10
5.64218
20
-3.75629
11
5.64117
21
-3.75611
0
LINE
8
BLACK
6
CONTINUOUS
10
5.64117
20
-3.75611
11
5.63963
21
-3.75482
0
LINE
8
BLACK
6
CONTINUOUS
10
5.63963
20
-3.75482
11
5.63927
21
-3.75283
0
LINE
8
BLACK
6
CONTINUOUS
10
5.63927
20
-3.75283
11
5.64028
21
-3.75108
0
LINE
8
BLACK
6
CONTINUOUS
10
5.64028
20
-3.75108
11
5.64218
21
-3.75039
0
LINE
8
BLACK
6
CONTINUOUS
10
5.64218
20
-3.75039
11
5.65048
21
-3.75039
0
LINE
8
BLACK
6
CONTINUOUS
10
5.65048
20
-3.75039
11
5.65048
21
-3.71397
0
LINE
8
BLACK
6
CONTINUOUS
10
5.65048
20
-3.71397
11
5.65066
21
-3.71296
0
LINE
8
BLACK
6
CONTINUOUS
10
5.65066
20
-3.71296
11
5.65077
21
-3.71283
0
LINE
8
BLACK
6
CONTINUOUS
10
5.65077
20
-3.71283
11
5.65078
21
-3.71266
0
LINE
8
BLACK
6
CONTINUOUS
10
5.65078
20
-3.71266
11
5.6514
21
-3.71207
0
LINE
8
BLACK
6
CONTINUOUS
10
5.6514
20
-3.71207
11
5.65195
21
-3.71141
0
LINE
8
BLACK
6
CONTINUOUS
10
5.65195
20
-3.71141
11
5.65212
21
-3.71138
0
LINE
8
BLACK
6
CONTINUOUS
10
5.65212
20
-3.71138
11
5.65224
21
-3.71127
0
LINE
8
BLACK
6
CONTINUOUS
10
5.65224
20
-3.71127
11
5.6531
21
-3.71121
0
LINE
8
BLACK
6
CONTINUOUS
10
5.6531
20
-3.71121
11
5.65394
21
-3.71106
0
LINE
8
BLACK
6
CONTINUOUS
10
5.65394
20
-3.71106
11
5.65409
21
-3.71115
0
LINE
8
BLACK
6
CONTINUOUS
10
5.55258
20
-3.71108
11
5.55271
21
-3.71106
0
LINE
8
BLACK
6
CONTINUOUS
10
5.55271
20
-3.71106
11
5.55282
21
-3.71113
0
LINE
8
BLACK
6
CONTINUOUS
10
5.55282
20
-3.71113
11
5.5532
21
-3.71119
0
LINE
8
BLACK
6
CONTINUOUS
10
5.5532
20
-3.71119
11
5.55379
21
-3.71169
0
LINE
8
BLACK
6
CONTINUOUS
10
5.55379
20
-3.71169
11
5.55446
21
-3.71207
0
LINE
8
BLACK
6
CONTINUOUS
10
5.55446
20
-3.71207
11
5.55455
21
-3.71232
0
LINE
8
BLACK
6
CONTINUOUS
10
5.55455
20
-3.71232
11
5.55475
21
-3.71249
0
LINE
8
BLACK
6
CONTINUOUS
10
5.55475
20
-3.71249
11
5.55488
21
-3.71325
0
LINE
8
BLACK
6
CONTINUOUS
10
5.55488
20
-3.71325
11
5.55515
21
-3.71397
0
LINE
8
BLACK
6
CONTINUOUS
10
5.55515
20
-3.71397
11
5.55515
21
-3.75334
0
LINE
8
BLACK
6
CONTINUOUS
10
5.55515
20
-3.75334
11
5.55497
21
-3.75435
0
LINE
8
BLACK
6
CONTINUOUS
10
5.55497
20
-3.75435
11
5.55367
21
-3.7559
0
LINE
8
BLACK
6
CONTINUOUS
10
5.55367
20
-3.7559
11
5.55168
21
-3.75625
0
LINE
8
BLACK
6
CONTINUOUS
10
5.55168
20
-3.75625
11
5.54993
21
-3.75524
0
LINE
8
BLACK
6
CONTINUOUS
10
5.54993
20
-3.75524
11
5.54924
21
-3.75334
0
LINE
8
BLACK
6
CONTINUOUS
10
5.54924
20
-3.75334
11
5.54924
21
-3.73567
0
LINE
8
BLACK
6
CONTINUOUS
10
5.54924
20
-3.73567
11
5.53907
21
-3.73567
0
LINE
8
BLACK
6
CONTINUOUS
10
5.53907
20
-3.73567
11
5.53806
21
-3.73549
0
LINE
8
BLACK
6
CONTINUOUS
10
5.53806
20
-3.73549
11
5.53651
21
-3.73419
0
LINE
8
BLACK
6
CONTINUOUS
10
5.53651
20
-3.73419
11
5.53616
21
-3.7322
0
LINE
8
BLACK
6
CONTINUOUS
10
5.53616
20
-3.7322
11
5.53717
21
-3.73045
0
LINE
8
BLACK
6
CONTINUOUS
10
5.53717
20
-3.73045
11
5.53907
21
-3.72976
0
LINE
8
BLACK
6
CONTINUOUS
10
5.53907
20
-3.72976
11
5.54924
21
-3.72976
0
LINE
8
BLACK
6
CONTINUOUS
10
5.54924
20
-3.72976
11
5.54924
21
-3.71692
0
LINE
8
BLACK
6
CONTINUOUS
10
5.54924
20
-3.71692
11
5.53345
21
-3.71692
0
LINE
8
BLACK
6
CONTINUOUS
10
5.53345
20
-3.71692
11
5.53244
21
-3.71674
0
LINE
8
BLACK
6
CONTINUOUS
10
5.53244
20
-3.71674
11
5.53089
21
-3.71545
0
LINE
8
BLACK
6
CONTINUOUS
10
5.53089
20
-3.71545
11
5.53054
21
-3.71346
0
LINE
8
BLACK
6
CONTINUOUS
10
5.53054
20
-3.71346
11
5.53155
21
-3.71171
0
LINE
8
BLACK
6
CONTINUOUS
10
5.53155
20
-3.71171
11
5.53345
21
-3.71102
0
LINE
8
BLACK
6
CONTINUOUS
10
5.53345
20
-3.71102
11
5.55219
21
-3.71102
0
LINE
8
BLACK
6
CONTINUOUS
10
5.55219
20
-3.71102
11
5.55258
21
-3.71108
0
LINE
8
BLACK
6
CONTINUOUS
10
5.58017
20
-3.6219
11
5.5803
21
-3.62202
0
LINE
8
BLACK
6
CONTINUOUS
10
5.5803
20
-3.62202
11
5.58048
21
-3.62204
0
LINE
8
BLACK
6
CONTINUOUS
10
5.58048
20
-3.62204
11
5.58423
21
-3.62391
0
LINE
8
BLACK
6
CONTINUOUS
10
5.58423
20
-3.62391
11
5.58494
21
-3.62444
0
LINE
8
BLACK
6
CONTINUOUS
10
5.58494
20
-3.62444
11
5.58499
21
-3.62446
0
LINE
8
BLACK
6
CONTINUOUS
10
5.58499
20
-3.62446
11
5.58687
21
-3.62634
0
LINE
8
BLACK
6
CONTINUOUS
10
5.58687
20
-3.62634
11
5.58737
21
-3.62706
0
LINE
8
BLACK
6
CONTINUOUS
10
5.58737
20
-3.62706
11
5.58742
21
-3.62711
0
LINE
8
BLACK
6
CONTINUOUS
10
5.58742
20
-3.62711
11
5.5893
21
-3.63086
0
LINE
8
BLACK
6
CONTINUOUS
10
5.5893
20
-3.63086
11
5.58944
21
-3.63134
0
LINE
8
BLACK
6
CONTINUOUS
10
5.58944
20
-3.63134
11
5.58952
21
-3.63146
0
LINE
8
BLACK
6
CONTINUOUS
10
5.58952
20
-3.63146
11
5.59139
21
-3.63896
0
LINE
8
BLACK
6
CONTINUOUS
10
5.59139
20
-3.63896
11
5.59144
21
-3.63955
0
LINE
8
BLACK
6
CONTINUOUS
10
5.59144
20
-3.63955
11
5.59148
21
-3.63968
0
LINE
8
BLACK
6
CONTINUOUS
10
5.59148
20
-3.63968
11
5.59148
21
-3.64272
0
LINE
8
BLACK
6
CONTINUOUS
10
5.59148
20
-3.64272
11
5.61182
21
-3.64272
0
LINE
8
BLACK
6
CONTINUOUS
10
5.61182
20
-3.64272
11
5.61182
21
-3.62468
0
LINE
8
BLACK
6
CONTINUOUS
10
5.61182
20
-3.62468
11
5.612
21
-3.62367
0
LINE
8
BLACK
6
CONTINUOUS
10
5.612
20
-3.62367
11
5.61211
21
-3.62354
0
LINE
8
BLACK
6
CONTINUOUS
10
5.61211
20
-3.62354
11
5.61213
21
-3.62337
0
LINE
8
BLACK
6
CONTINUOUS
10
5.61213
20
-3.62337
11
5.61275
21
-3.62278
0
LINE
8
BLACK
6
CONTINUOUS
10
5.61275
20
-3.62278
11
5.6133
21
-3.62212
0
LINE
8
BLACK
6
CONTINUOUS
10
5.6133
20
-3.62212
11
5.61347
21
-3.62209
0
LINE
8
BLACK
6
CONTINUOUS
10
5.61347
20
-3.62209
11
5.61359
21
-3.62197
0
LINE
8
BLACK
6
CONTINUOUS
10
5.61359
20
-3.62197
11
5.61445
21
-3.62192
0
LINE
8
BLACK
6
CONTINUOUS
10
5.61445
20
-3.62192
11
5.61529
21
-3.62177
0
LINE
8
BLACK
6
CONTINUOUS
10
5.61529
20
-3.62177
11
5.61544
21
-3.62185
0
LINE
8
BLACK
6
CONTINUOUS
10
5.61544
20
-3.62185
11
5.61561
21
-3.62184
0
LINE
8
BLACK
6
CONTINUOUS
10
5.61561
20
-3.62184
11
5.6163
21
-3.62235
0
LINE
8
BLACK
6
CONTINUOUS
10
5.6163
20
-3.62235
11
5.61704
21
-3.62278
0
LINE
8
BLACK
6
CONTINUOUS
10
5.61704
20
-3.62278
11
5.6171
21
-3.62294
0
LINE
8
BLACK
6
CONTINUOUS
10
5.6171
20
-3.62294
11
5.61723
21
-3.62304
0
LINE
8
BLACK
6
CONTINUOUS
10
5.61723
20
-3.62304
11
5.62082
21
-3.62842
0
LINE
8
BLACK
6
CONTINUOUS
10
5.62082
20
-3.62842
11
5.62403
21
-3.63163
0
LINE
8
BLACK
6
CONTINUOUS
10
5.62403
20
-3.63163
11
5.62735
21
-3.63329
0
LINE
8
BLACK
6
CONTINUOUS
10
5.62735
20
-3.63329
11
5.62817
21
-3.6339
0
LINE
8
BLACK
6
CONTINUOUS
10
5.62817
20
-3.6339
11
5.62897
21
-3.63575
0
LINE
8
BLACK
6
CONTINUOUS
10
5.62897
20
-3.63575
11
5.6284
21
-3.63769
0
LINE
8
BLACK
6
CONTINUOUS
10
5.6284
20
-3.63769
11
5.62671
21
-3.6388
0
LINE
8
BLACK
6
CONTINUOUS
10
5.62671
20
-3.6388
11
5.6247
21
-3.63857
0
LINE
8
BLACK
6
CONTINUOUS
10
5.6247
20
-3.63857
11
5.62096
21
-3.63669
0
LINE
8
BLACK
6
CONTINUOUS
10
5.62096
20
-3.63669
11
5.62025
21
-3.63617
0
LINE
8
BLACK
6
CONTINUOUS
10
5.62025
20
-3.63617
11
5.62019
21
-3.63614
0
LINE
8
BLACK
6
CONTINUOUS
10
5.62019
20
-3.63614
11
5.61773
21
-3.63368
0
LINE
8
BLACK
6
CONTINUOUS
10
5.61773
20
-3.63368
11
5.61773
21
-3.64272
0
LINE
8
BLACK
6
CONTINUOUS
10
5.61773
20
-3.64272
11
5.63937
21
-3.64272
0
LINE
8
BLACK
6
CONTINUOUS
10
5.63937
20
-3.64272
11
5.64076
21
-3.64329
0
LINE
8
BLACK
6
CONTINUOUS
10
5.64076
20
-3.64329
11
5.64134
21
-3.64469
0
LINE
8
BLACK
6
CONTINUOUS
10
5.64134
20
-3.64469
11
5.64134
21
-3.6939
0
LINE
8
BLACK
6
CONTINUOUS
10
5.64134
20
-3.6939
11
5.64076
21
-3.69529
0
LINE
8
BLACK
6
CONTINUOUS
10
5.64076
20
-3.69529
11
5.63937
21
-3.69587
0
LINE
8
BLACK
6
CONTINUOUS
10
5.63937
20
-3.69587
11
5.56063
21
-3.69587
0
LINE
8
BLACK
6
CONTINUOUS
10
5.56063
20
-3.69587
11
5.55924
21
-3.69529
0
LINE
8
BLACK
6
CONTINUOUS
10
5.55924
20
-3.69529
11
5.55866
21
-3.6939
0
LINE
8
BLACK
6
CONTINUOUS
10
5.55866
20
-3.6939
11
5.55866
21
-3.64469
0
LINE
8
BLACK
6
CONTINUOUS
10
5.55866
20
-3.64469
11
5.55924
21
-3.64329
0
LINE
8
BLACK
6
CONTINUOUS
10
5.55924
20
-3.64329
11
5.56063
21
-3.64272
0
LINE
8
BLACK
6
CONTINUOUS
10
5.56063
20
-3.64272
11
5.56308
21
-3.64272
0
LINE
8
BLACK
6
CONTINUOUS
10
5.56308
20
-3.64272
11
5.56308
21
-3.63968
0
LINE
8
BLACK
6
CONTINUOUS
10
5.56308
20
-3.63968
11
5.56318
21
-3.6391
0
LINE
8
BLACK
6
CONTINUOUS
10
5.56318
20
-3.6391
11
5.56317
21
-3.63896
0
LINE
8
BLACK
6
CONTINUOUS
10
5.56317
20
-3.63896
11
5.56504
21
-3.63146
0
LINE
8
BLACK
6
CONTINUOUS
10
5.56504
20
-3.63146
11
5.56525
21
-3.631
0
LINE
8
BLACK
6
CONTINUOUS
10
5.56525
20
-3.631
11
5.56527
21
-3.63086
0
LINE
8
BLACK
6
CONTINUOUS
10
5.56527
20
-3.63086
11
5.56714
21
-3.62711
0
LINE
8
BLACK
6
CONTINUOUS
10
5.56714
20
-3.62711
11
5.56767
21
-3.6264
0
LINE
8
BLACK
6
CONTINUOUS
10
5.56767
20
-3.6264
11
5.56769
21
-3.62634
0
LINE
8
BLACK
6
CONTINUOUS
10
5.56769
20
-3.62634
11
5.56957
21
-3.62446
0
LINE
8
BLACK
6
CONTINUOUS
10
5.56957
20
-3.62446
11
5.57029
21
-3.62396
0
LINE
8
BLACK
6
CONTINUOUS
10
5.57029
20
-3.62396
11
5.57034
21
-3.62391
0
LINE
8
BLACK
6
CONTINUOUS
10
5.57034
20
-3.62391
11
5.57409
21
-3.62204
0
LINE
8
BLACK
6
CONTINUOUS
10
5.57409
20
-3.62204
11
5.57507
21
-3.62174
0
LINE
8
BLACK
6
CONTINUOUS
10
5.57507
20
-3.62174
11
5.57524
21
-3.62179
0
LINE
8
BLACK
6
CONTINUOUS
10
5.57524
20
-3.62179
11
5.57541
21
-3.62173
0
LINE
8
BLACK
6
CONTINUOUS
10
5.57541
20
-3.62173
11
5.57916
21
-3.62173
0
LINE
8
BLACK
6
CONTINUOUS
10
5.57916
20
-3.62173
11
5.58017
21
-3.6219
0
LINE
8
BLACK
6
CONTINUOUS
10
5.61773
20
-3.64665
11
5.61773
21
-3.6611
0
LINE
8
BLACK
6
CONTINUOUS
10
5.61773
20
-3.6611
11
5.62603
21
-3.6611
0
LINE
8
BLACK
6
CONTINUOUS
10
5.62603
20
-3.6611
11
5.62704
21
-3.66127
0
LINE
8
BLACK
6
CONTINUOUS
10
5.62704
20
-3.66127
11
5.62858
21
-3.66257
0
LINE
8
BLACK
6
CONTINUOUS
10
5.62858
20
-3.66257
11
5.62893
21
-3.66456
0
LINE
8
BLACK
6
CONTINUOUS
10
5.62893
20
-3.66456
11
5.62792
21
-3.66631
0
LINE
8
BLACK
6
CONTINUOUS
10
5.62792
20
-3.66631
11
5.62603
21
-3.667
0
LINE
8
BLACK
6
CONTINUOUS
10
5.62603
20
-3.667
11
5.61704
21
-3.667
0
LINE
8
BLACK
6
CONTINUOUS
10
5.61704
20
-3.667
11
5.61704
21
-3.6698
0
LINE
8
BLACK
6
CONTINUOUS
10
5.61704
20
-3.6698
11
5.61697
21
-3.66998
0
LINE
8
BLACK
6
CONTINUOUS
10
5.61697
20
-3.66998
11
5.61699
21
-3.67018
0
LINE
8
BLACK
6
CONTINUOUS
10
5.61699
20
-3.67018
11
5.61606
21
-3.67393
0
LINE
8
BLACK
6
CONTINUOUS
10
5.61606
20
-3.67393
11
5.61595
21
-3.67407
0
LINE
8
BLACK
6
CONTINUOUS
10
5.61595
20
-3.67407
11
5.61594
21
-3.67425
0
LINE
8
BLACK
6
CONTINUOUS
10
5.61594
20
-3.67425
11
5.615
21
-3.67613
0
LINE
8
BLACK
6
CONTINUOUS
10
5.615
20
-3.67613
11
5.6148
21
-3.6763
0
LINE
8
BLACK
6
CONTINUOUS
10
5.6148
20
-3.6763
11
5.61471
21
-3.67654
0
LINE
8
BLACK
6
CONTINUOUS
10
5.61471
20
-3.67654
11
5.61283
21
-3.67841
0
LINE
8
BLACK
6
CONTINUOUS
10
5.61283
20
-3.67841
11
5.61249
21
-3.67855
0
LINE
8
BLACK
6
CONTINUOUS
10
5.61249
20
-3.67855
11
5.61222
21
-3.67879
0
LINE
8
BLACK
6
CONTINUOUS
10
5.61222
20
-3.67879
11
5.6094
21
-3.67973
0
LINE
8
BLACK
6
CONTINUOUS
10
5.6094
20
-3.67973
11
5.60914
21
-3.67971
0
LINE
8
BLACK
6
CONTINUOUS
10
5.60914
20
-3.67971
11
5.60891
21
-3.67981
0
LINE
8
BLACK
6
CONTINUOUS
10
5.60891
20
-3.67981
11
5.60703
21
-3.67981
0
LINE
8
BLACK
6
CONTINUOUS
10
5.60703
20
-3.67981
11
5.60679
21
-3.67971
0
LINE
8
BLACK
6
CONTINUOUS
10
5.60679
20
-3.67971
11
5.60653
21
-3.67973
0
LINE
8
BLACK
6
CONTINUOUS
10
5.60653
20
-3.67973
11
5.60372
21
-3.67879
0
LINE
8
BLACK
6
CONTINUOUS
10
5.60372
20
-3.67879
11
5.60344
21
-3.67855
0
LINE
8
BLACK
6
CONTINUOUS
10
5.60344
20
-3.67855
11
5.6031
21
-3.67841
0
LINE
8
BLACK
6
CONTINUOUS
10
5.6031
20
-3.67841
11
5.60217
21
-3.67747
0
LINE
8
BLACK
6
CONTINUOUS
10
5.60217
20
-3.67747
11
5.60171
21
-3.67636
0
LINE
8
BLACK
6
CONTINUOUS
10
5.60171
20
-3.67636
11
5.60217
21
-3.67525
0
LINE
8
BLACK
6
CONTINUOUS
10
5.60217
20
-3.67525
11
5.60328
21
-3.67478
0
LINE
8
BLACK
6
CONTINUOUS
10
5.60328
20
-3.67478
11
5.60439
21
-3.67525
0
LINE
8
BLACK
6
CONTINUOUS
10
5.60439
20
-3.67525
11
5.60507
21
-3.67592
0
LINE
8
BLACK
6
CONTINUOUS
10
5.60507
20
-3.67592
11
5.60729
21
-3.67666
0
LINE
8
BLACK
6
CONTINUOUS
10
5.60729
20
-3.67666
11
5.60865
21
-3.67666
0
LINE
8
BLACK
6
CONTINUOUS
10
5.60865
20
-3.67666
11
5.61087
21
-3.67592
0
LINE
8
BLACK
6
CONTINUOUS
10
5.61087
20
-3.67592
11
5.6123
21
-3.67449
0
LINE
8
BLACK
6
CONTINUOUS
10
5.6123
20
-3.67449
11
5.61304
21
-3.673
0
LINE
8
BLACK
6
CONTINUOUS
10
5.61304
20
-3.673
11
5.61389
21
-3.6696
0
LINE
8
BLACK
6
CONTINUOUS
10
5.61389
20
-3.6696
11
5.61389
21
-3.66718
0
LINE
8
BLACK
6
CONTINUOUS
10
5.61389
20
-3.66718
11
5.61385
21
-3.667
0
LINE
8
BLACK
6
CONTINUOUS
10
5.61385
20
-3.667
11
5.60353
21
-3.667
0
LINE
8
BLACK
6
CONTINUOUS
10
5.60353
20
-3.667
11
5.60252
21
-3.66682
0
LINE
8
BLACK
6
CONTINUOUS
10
5.60252
20
-3.66682
11
5.60097
21
-3.66552
0
LINE
8
BLACK
6
CONTINUOUS
10
5.60097
20
-3.66552
11
5.60062
21
-3.66354
0
LINE
8
BLACK
6
CONTINUOUS
10
5.60062
20
-3.66354
11
5.60163
21
-3.66179
0
LINE
8
BLACK
6
CONTINUOUS
10
5.60163
20
-3.66179
11
5.60224
21
-3.66157
0
LINE
8
BLACK
6
CONTINUOUS
10
5.60224
20
-3.66157
11
5.60217
21
-3.66154
0
LINE
8
BLACK
6
CONTINUOUS
10
5.60217
20
-3.66154
11
5.60171
21
-3.66042
0
LINE
8
BLACK
6
CONTINUOUS
10
5.60171
20
-3.66042
11
5.60217
21
-3.65931
0
LINE
8
BLACK
6
CONTINUOUS
10
5.60217
20
-3.65931
11
5.6031
21
-3.65837
0
LINE
8
BLACK
6
CONTINUOUS
10
5.6031
20
-3.65837
11
5.60344
21
-3.65823
0
LINE
8
BLACK
6
CONTINUOUS
10
5.60344
20
-3.65823
11
5.60372
21
-3.65799
0
LINE
8
BLACK
6
CONTINUOUS
10
5.60372
20
-3.65799
11
5.60653
21
-3.65706
0
LINE
8
BLACK
6
CONTINUOUS
10
5.60653
20
-3.65706
11
5.60679
21
-3.65707
0
LINE
8
BLACK
6
CONTINUOUS
10
5.60679
20
-3.65707
11
5.60703
21
-3.65697
0
LINE
8
BLACK
6
CONTINUOUS
10
5.60703
20
-3.65697
11
5.60891
21
-3.65697
0
LINE
8
BLACK
6
CONTINUOUS
10
5.60891
20
-3.65697
11
5.60914
21
-3.65707
0
LINE
8
BLACK
6
CONTINUOUS
10
5.60914
20
-3.65707
11
5.6094
21
-3.65706
0
LINE
8
BLACK
6
CONTINUOUS
10
5.6094
20
-3.65706
11
5.61182
21
-3.65786
0
LINE
8
BLACK
6
CONTINUOUS
10
5.61182
20
-3.65786
11
5.61182
21
-3.64665
0
LINE
8
BLACK
6
CONTINUOUS
10
5.61182
20
-3.64665
11
5.59148
21
-3.64665
0
LINE
8
BLACK
6
CONTINUOUS
10
5.59148
20
-3.64665
11
5.59148
21
-3.64905
0
LINE
8
BLACK
6
CONTINUOUS
10
5.59148
20
-3.64905
11
5.59138
21
-3.64963
0
LINE
8
BLACK
6
CONTINUOUS
10
5.59138
20
-3.64963
11
5.59139
21
-3.64977
0
LINE
8
BLACK
6
CONTINUOUS
10
5.59139
20
-3.64977
11
5.58954
21
-3.65719
0
LINE
8
BLACK
6
CONTINUOUS
10
5.58954
20
-3.65719
11
5.58973
21
-3.65715
0
LINE
8
BLACK
6
CONTINUOUS
10
5.58973
20
-3.65715
11
5.59016
21
-3.65697
0
LINE
8
BLACK
6
CONTINUOUS
10
5.59016
20
-3.65697
11
5.59031
21
-3.65704
0
LINE
8
BLACK
6
CONTINUOUS
10
5.59031
20
-3.65704
11
5.59047
21
-3.657
0
LINE
8
BLACK
6
CONTINUOUS
10
5.59047
20
-3.657
11
5.59085
21
-3.65726
0
LINE
8
BLACK
6
CONTINUOUS
10
5.59085
20
-3.65726
11
5.59127
21
-3.65744
0
LINE
8
BLACK
6
CONTINUOUS
10
5.59127
20
-3.65744
11
5.59133
21
-3.65759
0
LINE
8
BLACK
6
CONTINUOUS
10
5.59133
20
-3.65759
11
5.59147
21
-3.65768
0
LINE
8
BLACK
6
CONTINUOUS
10
5.59147
20
-3.65768
11
5.59326
21
-3.66036
0
LINE
8
BLACK
6
CONTINUOUS
10
5.59326
20
-3.66036
11
5.59484
21
-3.66194
0
LINE
8
BLACK
6
CONTINUOUS
10
5.59484
20
-3.66194
11
5.59649
21
-3.66276
0
LINE
8
BLACK
6
CONTINUOUS
10
5.59649
20
-3.66276
11
5.59728
21
-3.66368
0
LINE
8
BLACK
6
CONTINUOUS
10
5.59728
20
-3.66368
11
5.59719
21
-3.66488
0
LINE
8
BLACK
6
CONTINUOUS
10
5.59719
20
-3.66488
11
5.59628
21
-3.66567
0
LINE
8
BLACK
6
CONTINUOUS
10
5.59628
20
-3.66567
11
5.59508
21
-3.66558
0
LINE
8
BLACK
6
CONTINUOUS
10
5.59508
20
-3.66558
11
5.5932
21
-3.66464
0
LINE
8
BLACK
6
CONTINUOUS
10
5.5932
20
-3.66464
11
5.59303
21
-3.66445
0
LINE
8
BLACK
6
CONTINUOUS
10
5.59303
20
-3.66445
11
5.59279
21
-3.66435
0
LINE
8
BLACK
6
CONTINUOUS
10
5.59279
20
-3.66435
11
5.59173
21
-3.66329
0
LINE
8
BLACK
6
CONTINUOUS
10
5.59173
20
-3.66329
11
5.59173
21
-3.67666
0
LINE
8
BLACK
6
CONTINUOUS
10
5.59173
20
-3.67666
11
5.59578
21
-3.67666
0
LINE
8
BLACK
6
CONTINUOUS
10
5.59578
20
-3.67666
11
5.5969
21
-3.67712
0
LINE
8
BLACK
6
CONTINUOUS
10
5.5969
20
-3.67712
11
5.59736
21
-3.67823
0
LINE
8
BLACK
6
CONTINUOUS
10
5.59736
20
-3.67823
11
5.5969
21
-3.67935
0
LINE
8
BLACK
6
CONTINUOUS
10
5.5969
20
-3.67935
11
5.59578
21
-3.67981
0
LINE
8
BLACK
6
CONTINUOUS
10
5.59578
20
-3.67981
11
5.59016
21
-3.67981
0
LINE
8
BLACK
6
CONTINUOUS
10
5.59016
20
-3.67981
11
5.58453
21
-3.67981
0
LINE
8
BLACK
6
CONTINUOUS
10
5.58453
20
-3.67981
11
5.58342
21
-3.67935
0
LINE
8
BLACK
6
CONTINUOUS
10
5.58342
20
-3.67935
11
5.58296
21
-3.67823
0
LINE
8
BLACK
6
CONTINUOUS
10
5.58296
20
-3.67823
11
5.58342
21
-3.67712
0
LINE
8
BLACK
6
CONTINUOUS
10
5.58342
20
-3.67712
11
5.58453
21
-3.67666
0
LINE
8
BLACK
6
CONTINUOUS
10
5.58453
20
-3.67666
11
5.58858
21
-3.67666
0
LINE
8
BLACK
6
CONTINUOUS
10
5.58858
20
-3.67666
11
5.58858
21
-3.6593
0
LINE
8
BLACK
6
CONTINUOUS
10
5.58858
20
-3.6593
11
5.58742
21
-3.66162
0
LINE
8
BLACK
6
CONTINUOUS
10
5.58742
20
-3.66162
11
5.5869
21
-3.66233
0
LINE
8
BLACK
6
CONTINUOUS
10
5.5869
20
-3.66233
11
5.58687
21
-3.66239
0
LINE
8
BLACK
6
CONTINUOUS
10
5.58687
20
-3.66239
11
5.58499
21
-3.66426
0
LINE
8
BLACK
6
CONTINUOUS
10
5.58499
20
-3.66426
11
5.58427
21
-3.66477
0
LINE
8
BLACK
6
CONTINUOUS
10
5.58427
20
-3.66477
11
5.58423
21
-3.66481
0
LINE
8
BLACK
6
CONTINUOUS
10
5.58423
20
-3.66481
11
5.58048
21
-3.66669
0
LINE
8
BLACK
6
CONTINUOUS
10
5.58048
20
-3.66669
11
5.57949
21
-3.66698
0
LINE
8
BLACK
6
CONTINUOUS
10
5.57949
20
-3.66698
11
5.57932
21
-3.66694
0
LINE
8
BLACK
6
CONTINUOUS
10
5.57932
20
-3.66694
11
5.57916
21
-3.667
0
LINE
8
BLACK
6
CONTINUOUS
10
5.57916
20
-3.667
11
5.57541
21
-3.667
0
LINE
8
BLACK
6
CONTINUOUS
10
5.57541
20
-3.667
11
5.5744
21
-3.66682
0
LINE
8
BLACK
6
CONTINUOUS
10
5.5744
20
-3.66682
11
5.57426
21
-3.66671
0
LINE
8
BLACK
6
CONTINUOUS
10
5.57426
20
-3.66671
11
5.57409
21
-3.66669
0
LINE
8
BLACK
6
CONTINUOUS
10
5.57409
20
-3.66669
11
5.57034
21
-3.66481
0
LINE
8
BLACK
6
CONTINUOUS
10
5.57034
20
-3.66481
11
5.56963
21
-3.66429
0
LINE
8
BLACK
6
CONTINUOUS
10
5.56963
20
-3.66429
11
5.56957
21
-3.66426
0
LINE
8
BLACK
6
CONTINUOUS
10
5.56957
20
-3.66426
11
5.56769
21
-3.66239
0
LINE
8
BLACK
6
CONTINUOUS
10
5.56769
20
-3.66239
11
5.56719
21
-3.66166
0
LINE
8
BLACK
6
CONTINUOUS
10
5.56719
20
-3.66166
11
5.56714
21
-3.66162
0
LINE
8
BLACK
6
CONTINUOUS
10
5.56714
20
-3.66162
11
5.56527
21
-3.65787
0
LINE
8
BLACK
6
CONTINUOUS
10
5.56527
20
-3.65787
11
5.56512
21
-3.65738
0
LINE
8
BLACK
6
CONTINUOUS
10
5.56512
20
-3.65738
11
5.56504
21
-3.65727
0
LINE
8
BLACK
6
CONTINUOUS
10
5.56504
20
-3.65727
11
5.56317
21
-3.64977
0
LINE
8
BLACK
6
CONTINUOUS
10
5.56317
20
-3.64977
11
5.56313
21
-3.64918
0
LINE
8
BLACK
6
CONTINUOUS
10
5.56313
20
-3.64918
11
5.56308
21
-3.64905
0
LINE
8
BLACK
6
CONTINUOUS
10
5.56308
20
-3.64905
11
5.56308
21
-3.64665
0
LINE
8
BLACK
6
CONTINUOUS
10
5.56308
20
-3.64665
11
5.5626
21
-3.64665
0
LINE
8
BLACK
6
CONTINUOUS
10
5.5626
20
-3.64665
11
5.5626
21
-3.69193
0
LINE
8
BLACK
6
CONTINUOUS
10
5.5626
20
-3.69193
11
5.6374
21
-3.69193
0
LINE
8
BLACK
6
CONTINUOUS
10
5.6374
20
-3.69193
11
5.6374
21
-3.64665
0
LINE
8
BLACK
6
CONTINUOUS
10
5.6374
20
-3.64665
11
5.61773
21
-3.64665
0
LINE
8
BLACK
6
CONTINUOUS
10
5.60507
20
-3.66086
11
5.60484
21
-3.6611
0
LINE
8
BLACK
6
CONTINUOUS
10
5.60484
20
-3.6611
11
5.6111
21
-3.6611
0
LINE
8
BLACK
6
CONTINUOUS
10
5.6111
20
-3.6611
11
5.61087
21
-3.66086
0
LINE
8
BLACK
6
CONTINUOUS
10
5.61087
20
-3.66086
11
5.60865
21
-3.66012
0
LINE
8
BLACK
6
CONTINUOUS
10
5.60865
20
-3.66012
11
5.60729
21
-3.66012
0
LINE
8
BLACK
6
CONTINUOUS
10
5.60729
20
-3.66012
11
5.60507
21
-3.66086
0
LINE
8
BLACK
6
CONTINUOUS
10
5.56899
20
-3.64665
11
5.56899
21
-3.64869
0
LINE
8
BLACK
6
CONTINUOUS
10
5.56899
20
-3.64869
11
5.57069
21
-3.65552
0
LINE
8
BLACK
6
CONTINUOUS
10
5.57069
20
-3.65552
11
5.57221
21
-3.65855
0
LINE
8
BLACK
6
CONTINUOUS
10
5.57221
20
-3.65855
11
5.57341
21
-3.65975
0
LINE
8
BLACK
6
CONTINUOUS
10
5.57341
20
-3.65975
11
5.5761
21
-3.6611
0
LINE
8
BLACK
6
CONTINUOUS
10
5.5761
20
-3.6611
11
5.57846
21
-3.6611
0
LINE
8
BLACK
6
CONTINUOUS
10
5.57846
20
-3.6611
11
5.58116
21
-3.65975
0
LINE
8
BLACK
6
CONTINUOUS
10
5.58116
20
-3.65975
11
5.58235
21
-3.65855
0
LINE
8
BLACK
6
CONTINUOUS
10
5.58235
20
-3.65855
11
5.58387
21
-3.65552
0
LINE
8
BLACK
6
CONTINUOUS
10
5.58387
20
-3.65552
11
5.58558
21
-3.64869
0
LINE
8
BLACK
6
CONTINUOUS
10
5.58558
20
-3.64869
11
5.58558
21
-3.64665
0
LINE
8
BLACK
6
CONTINUOUS
10
5.58558
20
-3.64665
11
5.56899
21
-3.64665
0
LINE
8
BLACK
6
CONTINUOUS
10
5.57341
20
-3.62898
11
5.57221
21
-3.63018
0
LINE
8
BLACK
6
CONTINUOUS
10
5.57221
20
-3.63018
11
5.57069
21
-3.63321
0
LINE
8
BLACK
6
CONTINUOUS
10
5.57069
20
-3.63321
11
5.56899
21
-3.64004
0
LINE
8
BLACK
6
CONTINUOUS
10
5.56899
20
-3.64004
11
5.56899
21
-3.64272
0
LINE
8
BLACK
6
CONTINUOUS
10
5.56899
20
-3.64272
11
5.58558
21
-3.64272
0
LINE
8
BLACK
6
CONTINUOUS
10
5.58558
20
-3.64272
11
5.58558
21
-3.64004
0
LINE
8
BLACK
6
CONTINUOUS
10
5.58558
20
-3.64004
11
5.58387
21
-3.63321
0
LINE
8
BLACK
6
CONTINUOUS
10
5.58387
20
-3.63321
11
5.58235
21
-3.63018
0
LINE
8
BLACK
6
CONTINUOUS
10
5.58235
20
-3.63018
11
5.58116
21
-3.62898
0
LINE
8
BLACK
6
CONTINUOUS
10
5.58116
20
-3.62898
11
5.57846
21
-3.62763
0
LINE
8
BLACK
6
CONTINUOUS
10
5.57846
20
-3.62763
11
5.5761
21
-3.62763
0
LINE
8
BLACK
6
CONTINUOUS
10
5.5761
20
-3.62763
11
5.57341
21
-3.62898
0
LINE
8
BLACK
6
CONTINUOUS
10
5.54267
20
-3.6219
11
5.54281
21
-3.62202
0
LINE
8
BLACK
6
CONTINUOUS
10
5.54281
20
-3.62202
11
5.54298
21
-3.62204
0
LINE
8
BLACK
6
CONTINUOUS
10
5.54298
20
-3.62204
11
5.54673
21
-3.62391
0
LINE
8
BLACK
6
CONTINUOUS
10
5.54673
20
-3.62391
11
5.54744
21
-3.62444
0
LINE
8
BLACK
6
CONTINUOUS
10
5.54744
20
-3.62444
11
5.5475
21
-3.62446
0
LINE
8
BLACK
6
CONTINUOUS
10
5.5475
20
-3.62446
11
5.54937
21
-3.62634
0
LINE
8
BLACK
6
CONTINUOUS
10
5.54937
20
-3.62634
11
5.54988
21
-3.62706
0
LINE
8
BLACK
6
CONTINUOUS
10
5.54988
20
-3.62706
11
5.54993
21
-3.62711
0
LINE
8
BLACK
6
CONTINUOUS
10
5.54993
20
-3.62711
11
5.5518
21
-3.63086
0
LINE
8
BLACK
6
CONTINUOUS
10
5.5518
20
-3.63086
11
5.55195
21
-3.63134
0
LINE
8
BLACK
6
CONTINUOUS
10
5.55195
20
-3.63134
11
5.55202
21
-3.63146
0
LINE
8
BLACK
6
CONTINUOUS
10
5.55202
20
-3.63146
11
5.5539
21
-3.63896
0
LINE
8
BLACK
6
CONTINUOUS
10
5.5539
20
-3.63896
11
5.55394
21
-3.63955
0
LINE
8
BLACK
6
CONTINUOUS
10
5.55394
20
-3.63955
11
5.55399
21
-3.63968
0
LINE
8
BLACK
6
CONTINUOUS
10
5.55399
20
-3.63968
11
5.55399
21
-3.64905
0
LINE
8
BLACK
6
CONTINUOUS
10
5.55399
20
-3.64905
11
5.55389
21
-3.64963
0
LINE
8
BLACK
6
CONTINUOUS
10
5.55389
20
-3.64963
11
5.5539
21
-3.64977
0
LINE
8
BLACK
6
CONTINUOUS
10
5.5539
20
-3.64977
11
5.55202
21
-3.65727
0
LINE
8
BLACK
6
CONTINUOUS
10
5.55202
20
-3.65727
11
5.55182
21
-3.65773
0
LINE
8
BLACK
6
CONTINUOUS
10
5.55182
20
-3.65773
11
5.5518
21
-3.65787
0
LINE
8
BLACK
6
CONTINUOUS
10
5.5518
20
-3.65787
11
5.54993
21
-3.66162
0
LINE
8
BLACK
6
CONTINUOUS
10
5.54993
20
-3.66162
11
5.5494
21
-3.66233
0
LINE
8
BLACK
6
CONTINUOUS
10
5.5494
20
-3.66233
11
5.54937
21
-3.66239
0
LINE
8
BLACK
6
CONTINUOUS
10
5.54937
20
-3.66239
11
5.5475
21
-3.66426
0
LINE
8
BLACK
6
CONTINUOUS
10
5.5475
20
-3.66426
11
5.54678
21
-3.66477
0
LINE
8
BLACK
6
CONTINUOUS
10
5.54678
20
-3.66477
11
5.54673
21
-3.66481
0
LINE
8
BLACK
6
CONTINUOUS
10
5.54673
20
-3.66481
11
5.54298
21
-3.66669
0
LINE
8
BLACK
6
CONTINUOUS
10
5.54298
20
-3.66669
11
5.542
21
-3.66698
0
LINE
8
BLACK
6
CONTINUOUS
10
5.542
20
-3.66698
11
5.54183
21
-3.66694
0
LINE
8
BLACK
6
CONTINUOUS
10
5.54183
20
-3.66694
11
5.54166
21
-3.667
0
LINE
8
BLACK
6
CONTINUOUS
10
5.54166
20
-3.667
11
5.53791
21
-3.667
0
LINE
8
BLACK
6
CONTINUOUS
10
5.53791
20
-3.667
11
5.5369
21
-3.66682
0
LINE
8
BLACK
6
CONTINUOUS
10
5.5369
20
-3.66682
11
5.53677
21
-3.66671
0
LINE
8
BLACK
6
CONTINUOUS
10
5.53677
20
-3.66671
11
5.53659
21
-3.66669
0
LINE
8
BLACK
6
CONTINUOUS
10
5.53659
20
-3.66669
11
5.53284
21
-3.66481
0
LINE
8
BLACK
6
CONTINUOUS
10
5.53284
20
-3.66481
11
5.53213
21
-3.66429
0
LINE
8
BLACK
6
CONTINUOUS
10
5.53213
20
-3.66429
11
5.53207
21
-3.66426
0
LINE
8
BLACK
6
CONTINUOUS
10
5.53207
20
-3.66426
11
5.5302
21
-3.66239
0
LINE
8
BLACK
6
CONTINUOUS
10
5.5302
20
-3.66239
11
5.52969
21
-3.66166
0
LINE
8
BLACK
6
CONTINUOUS
10
5.52969
20
-3.66166
11
5.52965
21
-3.66162
0
LINE
8
BLACK
6
CONTINUOUS
10
5.52965
20
-3.66162
11
5.52777
21
-3.65787
0
LINE
8
BLACK
6
CONTINUOUS
10
5.52777
20
-3.65787
11
5.52763
21
-3.65738
0
LINE
8
BLACK
6
CONTINUOUS
10
5.52763
20
-3.65738
11
5.52755
21
-3.65727
0
LINE
8
BLACK
6
CONTINUOUS
10
5.52755
20
-3.65727
11
5.52567
21
-3.64977
0
LINE
8
BLACK
6
CONTINUOUS
10
5.52567
20
-3.64977
11
5.52563
21
-3.64918
0
LINE
8
BLACK
6
CONTINUOUS
10
5.52563
20
-3.64918
11
5.52558
21
-3.64905
0
LINE
8
BLACK
6
CONTINUOUS
10
5.52558
20
-3.64905
11
5.52558
21
-3.63968
0
LINE
8
BLACK
6
CONTINUOUS
10
5.52558
20
-3.63968
11
5.52569
21
-3.6391
0
LINE
8
BLACK
6
CONTINUOUS
10
5.52569
20
-3.6391
11
5.52567
21
-3.63896
0
LINE
8
BLACK
6
CONTINUOUS
10
5.52567
20
-3.63896
11
5.52755
21
-3.63146
0
LINE
8
BLACK
6
CONTINUOUS
10
5.52755
20
-3.63146
11
5.52776
21
-3.631
0
LINE
8
BLACK
6
CONTINUOUS
10
5.52776
20
-3.631
11
5.52777
21
-3.63086
0
LINE
8
BLACK
6
CONTINUOUS
10
5.52777
20
-3.63086
11
5.52965
21
-3.62711
0
LINE
8
BLACK
6
CONTINUOUS
10
5.52965
20
-3.62711
11
5.53017
21
-3.6264
0
LINE
8
BLACK
6
CONTINUOUS
10
5.53017
20
-3.6264
11
5.5302
21
-3.62634
0
LINE
8
BLACK
6
CONTINUOUS
10
5.5302
20
-3.62634
11
5.53207
21
-3.62446
0
LINE
8
BLACK
6
CONTINUOUS
10
5.53207
20
-3.62446
11
5.5328
21
-3.62396
0
LINE
8
BLACK
6
CONTINUOUS
10
5.5328
20
-3.62396
11
5.53284
21
-3.62391
0
LINE
8
BLACK
6
CONTINUOUS
10
5.53284
20
-3.62391
11
5.53659
21
-3.62204
0
LINE
8
BLACK
6
CONTINUOUS
10
5.53659
20
-3.62204
11
5.53757
21
-3.62174
0
LINE
8
BLACK
6
CONTINUOUS
10
5.53757
20
-3.62174
11
5.53775
21
-3.62179
0
LINE
8
BLACK
6
CONTINUOUS
10
5.53775
20
-3.62179
11
5.53791
21
-3.62173
0
LINE
8
BLACK
6
CONTINUOUS
10
5.53791
20
-3.62173
11
5.54166
21
-3.62173
0
LINE
8
BLACK
6
CONTINUOUS
10
5.54166
20
-3.62173
11
5.54267
21
-3.6219
0
LINE
8
BLACK
6
CONTINUOUS
10
5.53591
20
-3.62898
11
5.53471
21
-3.63018
0
LINE
8
BLACK
6
CONTINUOUS
10
5.53471
20
-3.63018
11
5.5332
21
-3.63321
0
LINE
8
BLACK
6
CONTINUOUS
10
5.5332
20
-3.63321
11
5.53149
21
-3.64004
0
LINE
8
BLACK
6
CONTINUOUS
10
5.53149
20
-3.64004
11
5.53149
21
-3.64869
0
LINE
8
BLACK
6
CONTINUOUS
10
5.53149
20
-3.64869
11
5.5332
21
-3.65552
0
LINE
8
BLACK
6
CONTINUOUS
10
5.5332
20
-3.65552
11
5.53471
21
-3.65855
0
LINE
8
BLACK
6
CONTINUOUS
10
5.53471
20
-3.65855
11
5.53591
21
-3.65975
0
LINE
8
BLACK
6
CONTINUOUS
10
5.53591
20
-3.65975
11
5.53861
21
-3.6611
0
LINE
8
BLACK
6
CONTINUOUS
10
5.53861
20
-3.6611
11
5.54096
21
-3.6611
0
LINE
8
BLACK
6
CONTINUOUS
10
5.54096
20
-3.6611
11
5.54366
21
-3.65975
0
LINE
8
BLACK
6
CONTINUOUS
10
5.54366
20
-3.65975
11
5.54486
21
-3.65855
0
LINE
8
BLACK
6
CONTINUOUS
10
5.54486
20
-3.65855
11
5.54637
21
-3.65552
0
LINE
8
BLACK
6
CONTINUOUS
10
5.54637
20
-3.65552
11
5.54808
21
-3.64869
0
LINE
8
BLACK
6
CONTINUOUS
10
5.54808
20
-3.64869
11
5.54808
21
-3.64004
0
LINE
8
BLACK
6
CONTINUOUS
10
5.54808
20
-3.64004
11
5.54637
21
-3.63321
0
LINE
8
BLACK
6
CONTINUOUS
10
5.54637
20
-3.63321
11
5.54486
21
-3.63018
0
LINE
8
BLACK
6
CONTINUOUS
10
5.54486
20
-3.63018
11
5.54366
21
-3.62898
0
LINE
8
BLACK
6
CONTINUOUS
10
5.54366
20
-3.62898
11
5.54096
21
-3.62763
0
LINE
8
BLACK
6
CONTINUOUS
10
5.54096
20
-3.62763
11
5.53861
21
-3.62763
0
LINE
8
BLACK
6
CONTINUOUS
10
5.53861
20
-3.62763
11
5.53591
21
-3.62898
0
LINE
8
BLACK
6
CONTINUOUS
10
5.47643
20
-3.62179
11
5.47656
21
-3.62177
0
LINE
8
BLACK
6
CONTINUOUS
10
5.47656
20
-3.62177
11
5.47667
21
-3.62184
0
LINE
8
BLACK
6
CONTINUOUS
10
5.47667
20
-3.62184
11
5.47705
21
-3.6219
0
LINE
8
BLACK
6
CONTINUOUS
10
5.47705
20
-3.6219
11
5.47764
21
-3.6224
0
LINE
8
BLACK
6
CONTINUOUS
10
5.47764
20
-3.6224
11
5.47831
21
-3.62278
0
LINE
8
BLACK
6
CONTINUOUS
10
5.47831
20
-3.62278
11
5.4784
21
-3.62303
0
LINE
8
BLACK
6
CONTINUOUS
10
5.4784
20
-3.62303
11
5.4786
21
-3.6232
0
LINE
8
BLACK
6
CONTINUOUS
10
5.4786
20
-3.6232
11
5.47873
21
-3.62396
0
LINE
8
BLACK
6
CONTINUOUS
10
5.47873
20
-3.62396
11
5.479
21
-3.62468
0
LINE
8
BLACK
6
CONTINUOUS
10
5.479
20
-3.62468
11
5.479
21
-3.66405
0
LINE
8
BLACK
6
CONTINUOUS
10
5.479
20
-3.66405
11
5.47882
21
-3.66506
0
LINE
8
BLACK
6
CONTINUOUS
10
5.47882
20
-3.66506
11
5.47752
21
-3.66661
0
LINE
8
BLACK
6
CONTINUOUS
10
5.47752
20
-3.66661
11
5.47553
21
-3.66696
0
LINE
8
BLACK
6
CONTINUOUS
10
5.47553
20
-3.66696
11
5.47378
21
-3.66595
0
LINE
8
BLACK
6
CONTINUOUS
10
5.47378
20
-3.66595
11
5.47309
21
-3.66405
0
LINE
8
BLACK
6
CONTINUOUS
10
5.47309
20
-3.66405
11
5.47309
21
-3.64638
0
LINE
8
BLACK
6
CONTINUOUS
10
5.47309
20
-3.64638
11
5.46292
21
-3.64638
0
LINE
8
BLACK
6
CONTINUOUS
10
5.46292
20
-3.64638
11
5.46191
21
-3.6462
0
LINE
8
BLACK
6
CONTINUOUS
10
5.46191
20
-3.6462
11
5.46036
21
-3.6449
0
LINE
8
BLACK
6
CONTINUOUS
10
5.46036
20
-3.6449
11
5.46001
21
-3.64291
0
LINE
8
BLACK
6
CONTINUOUS
10
5.46001
20
-3.64291
11
5.46102
21
-3.64116
0
LINE
8
BLACK
6
CONTINUOUS
10
5.46102
20
-3.64116
11
5.46292
21
-3.64047
0
LINE
8
BLACK
6
CONTINUOUS
10
5.46292
20
-3.64047
11
5.47309
21
-3.64047
0
LINE
8
BLACK
6
CONTINUOUS
10
5.47309
20
-3.64047
11
5.47309
21
-3.62763
0
LINE
8
BLACK
6
CONTINUOUS
10
5.47309
20
-3.62763
11
5.4573
21
-3.62763
0
LINE
8
BLACK
6
CONTINUOUS
10
5.4573
20
-3.62763
11
5.45629
21
-3.62745
0
LINE
8
BLACK
6
CONTINUOUS
10
5.45629
20
-3.62745
11
5.45474
21
-3.62615
0
LINE
8
BLACK
6
CONTINUOUS
10
5.45474
20
-3.62615
11
5.45439
21
-3.62417
0
LINE
8
BLACK
6
CONTINUOUS
10
5.45439
20
-3.62417
11
5.4554
21
-3.62242
0
LINE
8
BLACK
6
CONTINUOUS
10
5.4554
20
-3.62242
11
5.4573
21
-3.62173
0
LINE
8
BLACK
6
CONTINUOUS
10
5.4573
20
-3.62173
11
5.47604
21
-3.62173
0
LINE
8
BLACK
6
CONTINUOUS
10
5.47604
20
-3.62173
11
5.47643
21
-3.62179
0
LINE
8
BLACK
6
CONTINUOUS
10
5.50705
20
-3.63503
11
5.50719
21
-3.63514
0
LINE
8
BLACK
6
CONTINUOUS
10
5.50719
20
-3.63514
11
5.50736
21
-3.63516
0
LINE
8
BLACK
6
CONTINUOUS
10
5.50736
20
-3.63516
11
5.5094
21
-3.63618
0
LINE
8
BLACK
6
CONTINUOUS
10
5.5094
20
-3.63618
11
5.51019
21
-3.63524
0
LINE
8
BLACK
6
CONTINUOUS
10
5.51019
20
-3.63524
11
5.51218
21
-3.63489
0
LINE
8
BLACK
6
CONTINUOUS
10
5.51218
20
-3.63489
11
5.51393
21
-3.6359
0
LINE
8
BLACK
6
CONTINUOUS
10
5.51393
20
-3.6359
11
5.51462
21
-3.6378
0
LINE
8
BLACK
6
CONTINUOUS
10
5.51462
20
-3.6378
11
5.51462
21
-3.66405
0
LINE
8
BLACK
6
CONTINUOUS
10
5.51462
20
-3.66405
11
5.51444
21
-3.66506
0
LINE
8
BLACK
6
CONTINUOUS
10
5.51444
20
-3.66506
11
5.51314
21
-3.66661
0
LINE
8
BLACK
6
CONTINUOUS
10
5.51314
20
-3.66661
11
5.51115
21
-3.66696
0
LINE
8
BLACK
6
CONTINUOUS
10
5.51115
20
-3.66696
11
5.5094
21
-3.66595
0
LINE
8
BLACK
6
CONTINUOUS
10
5.5094
20
-3.66595
11
5.50871
21
-3.66405
0
LINE
8
BLACK
6
CONTINUOUS
10
5.50871
20
-3.66405
11
5.50871
21
-3.64277
0
LINE
8
BLACK
6
CONTINUOUS
10
5.50871
20
-3.64277
11
5.50804
21
-3.6421
0
LINE
8
BLACK
6
CONTINUOUS
10
5.50804
20
-3.6421
11
5.50534
21
-3.64075
0
LINE
8
BLACK
6
CONTINUOUS
10
5.50534
20
-3.64075
11
5.50111
21
-3.64075
0
LINE
8
BLACK
6
CONTINUOUS
10
5.50111
20
-3.64075
11
5.49887
21
-3.64188
0
LINE
8
BLACK
6
CONTINUOUS
10
5.49887
20
-3.64188
11
5.49774
21
-3.64412
0
LINE
8
BLACK
6
CONTINUOUS
10
5.49774
20
-3.64412
11
5.49774
21
-3.66405
0
LINE
8
BLACK
6
CONTINUOUS
10
5.49774
20
-3.66405
11
5.49757
21
-3.66506
0
LINE
8
BLACK
6
CONTINUOUS
10
5.49757
20
-3.66506
11
5.49627
21
-3.66661
0
LINE
8
BLACK
6
CONTINUOUS
10
5.49627
20
-3.66661
11
5.49428
21
-3.66696
0
LINE
8
BLACK
6
CONTINUOUS
10
5.49428
20
-3.66696
11
5.49253
21
-3.66595
0
LINE
8
BLACK
6
CONTINUOUS
10
5.49253
20
-3.66595
11
5.49184
21
-3.66405
0
LINE
8
BLACK
6
CONTINUOUS
10
5.49184
20
-3.66405
11
5.49184
21
-3.64343
0
LINE
8
BLACK
6
CONTINUOUS
10
5.49184
20
-3.64343
11
5.49202
21
-3.64242
0
LINE
8
BLACK
6
CONTINUOUS
10
5.49202
20
-3.64242
11
5.49213
21
-3.64228
0
LINE
8
BLACK
6
CONTINUOUS
10
5.49213
20
-3.64228
11
5.49215
21
-3.64211
0
LINE
8
BLACK
6
CONTINUOUS
10
5.49215
20
-3.64211
11
5.49403
21
-3.63836
0
LINE
8
BLACK
6
CONTINUOUS
10
5.49403
20
-3.63836
11
5.49464
21
-3.63753
0
LINE
8
BLACK
6
CONTINUOUS
10
5.49464
20
-3.63753
11
5.49504
21
-3.63736
0
LINE
8
BLACK
6
CONTINUOUS
10
5.49504
20
-3.63736
11
5.49535
21
-3.63704
0
LINE
8
BLACK
6
CONTINUOUS
10
5.49535
20
-3.63704
11
5.4991
21
-3.63516
0
LINE
8
BLACK
6
CONTINUOUS
10
5.4991
20
-3.63516
11
5.50008
21
-3.63487
0
LINE
8
BLACK
6
CONTINUOUS
10
5.50008
20
-3.63487
11
5.50025
21
-3.63491
0
LINE
8
BLACK
6
CONTINUOUS
10
5.50025
20
-3.63491
11
5.50042
21
-3.63485
0
LINE
8
BLACK
6
CONTINUOUS
10
5.50042
20
-3.63485
11
5.50604
21
-3.63485
0
LINE
8
BLACK
6
CONTINUOUS
10
5.50604
20
-3.63485
11
5.50705
21
-3.63503
0
LINE
8
BLACK
6
CONTINUOUS
10
5.53591
20
-3.56782
11
5.53627
21
-3.56785
0
LINE
8
BLACK
6
CONTINUOUS
10
5.53627
20
-3.56785
11
5.53815
21
-3.56879
0
LINE
8
BLACK
6
CONTINUOUS
10
5.53815
20
-3.56879
11
5.53832
21
-3.56898
0
LINE
8
BLACK
6
CONTINUOUS
10
5.53832
20
-3.56898
11
5.53856
21
-3.56908
0
LINE
8
BLACK
6
CONTINUOUS
10
5.53856
20
-3.56908
11
5.53949
21
-3.57002
0
LINE
8
BLACK
6
CONTINUOUS
10
5.53949
20
-3.57002
11
5.53995
21
-3.57113
0
LINE
8
BLACK
6
CONTINUOUS
10
5.53995
20
-3.57113
11
5.53949
21
-3.57225
0
LINE
8
BLACK
6
CONTINUOUS
10
5.53949
20
-3.57225
11
5.53838
21
-3.57271
0
LINE
8
BLACK
6
CONTINUOUS
10
5.53838
20
-3.57271
11
5.53727
21
-3.57225
0
LINE
8
BLACK
6
CONTINUOUS
10
5.53727
20
-3.57225
11
5.53651
21
-3.57149
0
LINE
8
BLACK
6
CONTINUOUS
10
5.53651
20
-3.57149
11
5.5352
21
-3.57083
0
LINE
8
BLACK
6
CONTINUOUS
10
5.5352
20
-3.57083
11
5.53125
21
-3.57083
0
LINE
8
BLACK
6
CONTINUOUS
10
5.53125
20
-3.57083
11
5.52994
21
-3.57149
0
LINE
8
BLACK
6
CONTINUOUS
10
5.52994
20
-3.57149
11
5.52936
21
-3.57207
0
LINE
8
BLACK
6
CONTINUOUS
10
5.52936
20
-3.57207
11
5.52871
21
-3.57338
0
LINE
8
BLACK
6
CONTINUOUS
10
5.52871
20
-3.57338
11
5.52871
21
-3.57463
0
LINE
8
BLACK
6
CONTINUOUS
10
5.52871
20
-3.57463
11
5.52945
21
-3.57684
0
LINE
8
BLACK
6
CONTINUOUS
10
5.52945
20
-3.57684
11
5.54043
21
-3.58783
0
LINE
8
BLACK
6
CONTINUOUS
10
5.54043
20
-3.58783
11
5.54089
21
-3.58894
0
LINE
8
BLACK
6
CONTINUOUS
10
5.54089
20
-3.58894
11
5.54043
21
-3.59006
0
LINE
8
BLACK
6
CONTINUOUS
10
5.54043
20
-3.59006
11
5.53932
21
-3.59052
0
LINE
8
BLACK
6
CONTINUOUS
10
5.53932
20
-3.59052
11
5.52713
21
-3.59052
0
LINE
8
BLACK
6
CONTINUOUS
10
5.52713
20
-3.59052
11
5.52602
21
-3.59006
0
LINE
8
BLACK
6
CONTINUOUS
10
5.52602
20
-3.59006
11
5.52556
21
-3.58894
0
LINE
8
BLACK
6
CONTINUOUS
10
5.52556
20
-3.58894
11
5.52602
21
-3.58783
0
LINE
8
BLACK
6
CONTINUOUS
10
5.52602
20
-3.58783
11
5.52713
21
-3.58737
0
LINE
8
BLACK
6
CONTINUOUS
10
5.52713
20
-3.58737
11
5.53552
21
-3.58737
0
LINE
8
BLACK
6
CONTINUOUS
10
5.53552
20
-3.58737
11
5.52696
21
-3.57881
0
LINE
8
BLACK
6
CONTINUOUS
10
5.52696
20
-3.57881
11
5.52682
21
-3.57847
0
LINE
8
BLACK
6
CONTINUOUS
10
5.52682
20
-3.57847
11
5.52658
21
-3.57819
0
LINE
8
BLACK
6
CONTINUOUS
10
5.52658
20
-3.57819
11
5.52564
21
-3.57538
0
LINE
8
BLACK
6
CONTINUOUS
10
5.52564
20
-3.57538
11
5.52566
21
-3.57512
0
LINE
8
BLACK
6
CONTINUOUS
10
5.52566
20
-3.57512
11
5.52556
21
-3.57488
0
LINE
8
BLACK
6
CONTINUOUS
10
5.52556
20
-3.57488
11
5.52556
21
-3.57301
0
LINE
8
BLACK
6
CONTINUOUS
10
5.52556
20
-3.57301
11
5.5257
21
-3.57267
0
LINE
8
BLACK
6
CONTINUOUS
10
5.5257
20
-3.57267
11
5.52572
21
-3.5723
0
LINE
8
BLACK
6
CONTINUOUS
10
5.52572
20
-3.5723
11
5.52666
21
-3.57043
0
LINE
8
BLACK
6
CONTINUOUS
10
5.52666
20
-3.57043
11
5.52686
21
-3.57026
0
LINE
8
BLACK
6
CONTINUOUS
10
5.52686
20
-3.57026
11
5.52696
21
-3.57002
0
LINE
8
BLACK
6
CONTINUOUS
10
5.52696
20
-3.57002
11
5.52789
21
-3.56908
0
LINE
8
BLACK
6
CONTINUOUS
10
5.52789
20
-3.56908
11
5.52813
21
-3.56898
0
LINE
8
BLACK
6
CONTINUOUS
10
5.52813
20
-3.56898
11
5.5283
21
-3.56879
0
LINE
8
BLACK
6
CONTINUOUS
10
5.5283
20
-3.56879
11
5.53018
21
-3.56785
0
LINE
8
BLACK
6
CONTINUOUS
10
5.53018
20
-3.56785
11
5.53054
21
-3.56782
0
LINE
8
BLACK
6
CONTINUOUS
10
5.53054
20
-3.56782
11
5.53088
21
-3.56768
0
LINE
8
BLACK
6
CONTINUOUS
10
5.53088
20
-3.56768
11
5.53557
21
-3.56768
0
LINE
8
BLACK
6
CONTINUOUS
10
5.53557
20
-3.56768
11
5.53591
21
-3.56782
0
LINE
8
BLACK
6
CONTINUOUS
10
5.55174
20
-3.56778
11
5.552
21
-3.56776
0
LINE
8
BLACK
6
CONTINUOUS
10
5.552
20
-3.56776
11
5.55481
21
-3.5687
0
LINE
8
BLACK
6
CONTINUOUS
10
5.55481
20
-3.5687
11
5.55509
21
-3.56894
0
LINE
8
BLACK
6
CONTINUOUS
10
5.55509
20
-3.56894
11
5.55543
21
-3.56908
0
LINE
8
BLACK
6
CONTINUOUS
10
5.55543
20
-3.56908
11
5.5573
21
-3.57096
0
LINE
8
BLACK
6
CONTINUOUS
10
5.5573
20
-3.57096
11
5.5574
21
-3.5712
0
LINE
8
BLACK
6
CONTINUOUS
10
5.5574
20
-3.5712
11
5.5576
21
-3.57137
0
LINE
8
BLACK
6
CONTINUOUS
10
5.5576
20
-3.57137
11
5.55854
21
-3.57324
0
LINE
8
BLACK
6
CONTINUOUS
10
5.55854
20
-3.57324
11
5.55855
21
-3.57342
0
LINE
8
BLACK
6
CONTINUOUS
10
5.55855
20
-3.57342
11
5.55866
21
-3.57356
0
LINE
8
BLACK
6
CONTINUOUS
10
5.55866
20
-3.57356
11
5.55959
21
-3.57731
0
LINE
8
BLACK
6
CONTINUOUS
10
5.55959
20
-3.57731
11
5.55956
21
-3.57751
0
LINE
8
BLACK
6
CONTINUOUS
10
5.55956
20
-3.57751
11
5.55964
21
-3.57769
0
LINE
8
BLACK
6
CONTINUOUS
10
5.55964
20
-3.57769
11
5.55964
21
-3.58051
0
LINE
8
BLACK
6
CONTINUOUS
10
5.55964
20
-3.58051
11
5.55956
21
-3.58069
0
LINE
8
BLACK
6
CONTINUOUS
10
5.55956
20
-3.58069
11
5.55959
21
-3.58089
0
LINE
8
BLACK
6
CONTINUOUS
10
5.55959
20
-3.58089
11
5.55866
21
-3.58464
0
LINE
8
BLACK
6
CONTINUOUS
10
5.55866
20
-3.58464
11
5.55855
21
-3.58478
0
LINE
8
BLACK
6
CONTINUOUS
10
5.55855
20
-3.58478
11
5.55854
21
-3.58496
0
LINE
8
BLACK
6
CONTINUOUS
10
5.55854
20
-3.58496
11
5.5576
21
-3.58683
0
LINE
8
BLACK
6
CONTINUOUS
10
5.5576
20
-3.58683
11
5.5574
21
-3.587
0
LINE
8
BLACK
6
CONTINUOUS
10
5.5574
20
-3.587
11
5.5573
21
-3.58724
0
LINE
8
BLACK
6
CONTINUOUS
10
5.5573
20
-3.58724
11
5.55543
21
-3.58912
0
LINE
8
BLACK
6
CONTINUOUS
10
5.55543
20
-3.58912
11
5.55509
21
-3.58926
0
LINE
8
BLACK
6
CONTINUOUS
10
5.55509
20
-3.58926
11
5.55481
21
-3.5895
0
LINE
8
BLACK
6
CONTINUOUS
10
5.55481
20
-3.5895
11
5.552
21
-3.59044
0
LINE
8
BLACK
6
CONTINUOUS
10
5.552
20
-3.59044
11
5.55174
21
-3.59042
0
LINE
8
BLACK
6
CONTINUOUS
10
5.55174
20
-3.59042
11
5.5515
21
-3.59052
0
LINE
8
BLACK
6
CONTINUOUS
10
5.5515
20
-3.59052
11
5.54963
21
-3.59052
0
LINE
8
BLACK
6
CONTINUOUS
10
5.54963
20
-3.59052
11
5.54939
21
-3.59042
0
LINE
8
BLACK
6
CONTINUOUS
10
5.54939
20
-3.59042
11
5.54913
21
-3.59044
0
LINE
8
BLACK
6
CONTINUOUS
10
5.54913
20
-3.59044
11
5.54632
21
-3.5895
0
LINE
8
BLACK
6
CONTINUOUS
10
5.54632
20
-3.5895
11
5.54604
21
-3.58926
0
LINE
8
BLACK
6
CONTINUOUS
10
5.54604
20
-3.58926
11
5.5457
21
-3.58912
0
LINE
8
BLACK
6
CONTINUOUS
10
5.5457
20
-3.58912
11
5.54477
21
-3.58818
0
LINE
8
BLACK
6
CONTINUOUS
10
5.54477
20
-3.58818
11
5.5443
21
-3.58707
0
LINE
8
BLACK
6
CONTINUOUS
10
5.5443
20
-3.58707
11
5.54477
21
-3.58595
0
LINE
8
BLACK
6
CONTINUOUS
10
5.54477
20
-3.58595
11
5.54588
21
-3.58549
0
LINE
8
BLACK
6
CONTINUOUS
10
5.54588
20
-3.58549
11
5.54699
21
-3.58595
0
LINE
8
BLACK
6
CONTINUOUS
10
5.54699
20
-3.58595
11
5.54767
21
-3.58663
0
LINE
8
BLACK
6
CONTINUOUS
10
5.54767
20
-3.58663
11
5.54988
21
-3.58737
0
LINE
8
BLACK
6
CONTINUOUS
10
5.54988
20
-3.58737
11
5.55125
21
-3.58737
0
LINE
8
BLACK
6
CONTINUOUS
10
5.55125
20
-3.58737
11
5.55346
21
-3.58663
0
LINE
8
BLACK
6
CONTINUOUS
10
5.55346
20
-3.58663
11
5.5549
21
-3.5852
0
LINE
8
BLACK
6
CONTINUOUS
10
5.5549
20
-3.5852
11
5.55564
21
-3.58371
0
LINE
8
BLACK
6
CONTINUOUS
10
5.55564
20
-3.58371
11
5.55649
21
-3.58031
0
LINE
8
BLACK
6
CONTINUOUS
10
5.55649
20
-3.58031
11
5.55649
21
-3.57789
0
LINE
8
BLACK
6
CONTINUOUS
10
5.55649
20
-3.57789
11
5.55564
21
-3.57449
0
LINE
8
BLACK
6
CONTINUOUS
10
5.55564
20
-3.57449
11
5.5549
21
-3.573
0
LINE
8
BLACK
6
CONTINUOUS
10
5.5549
20
-3.573
11
5.55346
21
-3.57157
0
LINE
8
BLACK
6
CONTINUOUS
10
5.55346
20
-3.57157
11
5.55125
21
-3.57083
0
LINE
8
BLACK
6
CONTINUOUS
10
5.55125
20
-3.57083
11
5.54988
21
-3.57083
0
LINE
8
BLACK
6
CONTINUOUS
10
5.54988
20
-3.57083
11
5.54767
21
-3.57157
0
LINE
8
BLACK
6
CONTINUOUS
10
5.54767
20
-3.57157
11
5.54699
21
-3.57225
0
LINE
8
BLACK
6
CONTINUOUS
10
5.54699
20
-3.57225
11
5.54588
21
-3.57271
0
LINE
8
BLACK
6
CONTINUOUS
10
5.54588
20
-3.57271
11
5.54477
21
-3.57225
0
LINE
8
BLACK
6
CONTINUOUS
10
5.54477
20
-3.57225
11
5.5443
21
-3.57113
0
LINE
8
BLACK
6
CONTINUOUS
10
5.5443
20
-3.57113
11
5.54477
21
-3.57002
0
LINE
8
BLACK
6
CONTINUOUS
10
5.54477
20
-3.57002
11
5.5457
21
-3.56908
0
LINE
8
BLACK
6
CONTINUOUS
10
5.5457
20
-3.56908
11
5.54604
21
-3.56894
0
LINE
8
BLACK
6
CONTINUOUS
10
5.54604
20
-3.56894
11
5.54632
21
-3.5687
0
LINE
8
BLACK
6
CONTINUOUS
10
5.54632
20
-3.5687
11
5.54913
21
-3.56776
0
LINE
8
BLACK
6
CONTINUOUS
10
5.54913
20
-3.56776
11
5.54939
21
-3.56778
0
LINE
8
BLACK
6
CONTINUOUS
10
5.54939
20
-3.56778
11
5.54963
21
-3.56768
0
LINE
8
BLACK
6
CONTINUOUS
10
5.54963
20
-3.56768
11
5.5515
21
-3.56768
0
LINE
8
BLACK
6
CONTINUOUS
10
5.5515
20
-3.56768
11
5.55174
21
-3.56778
0
LINE
8
BLACK
6
CONTINUOUS
10
5.58197
20
-3.55343
11
5.58336
21
-3.554
0
LINE
8
BLACK
6
CONTINUOUS
10
5.58336
20
-3.554
11
5.58394
21
-3.55539
0
LINE
8
BLACK
6
CONTINUOUS
10
5.58394
20
-3.55539
11
5.58394
21
-3.60461
0
LINE
8
BLACK
6
CONTINUOUS
10
5.58394
20
-3.60461
11
5.58336
21
-3.606
0
LINE
8
BLACK
6
CONTINUOUS
10
5.58336
20
-3.606
11
5.58197
21
-3.60657
0
LINE
8
BLACK
6
CONTINUOUS
10
5.58197
20
-3.60657
11
5.50323
21
-3.60657
0
LINE
8
BLACK
6
CONTINUOUS
10
5.50323
20
-3.60657
11
5.50184
21
-3.606
0
LINE
8
BLACK
6
CONTINUOUS
10
5.50184
20
-3.606
11
5.50126
21
-3.60461
0
LINE
8
BLACK
6
CONTINUOUS
10
5.50126
20
-3.60461
11
5.50126
21
-3.55539
0
LINE
8
BLACK
6
CONTINUOUS
10
5.50126
20
-3.55539
11
5.50184
21
-3.554
0
LINE
8
BLACK
6
CONTINUOUS
10
5.50184
20
-3.554
11
5.50323
21
-3.55343
0
LINE
8
BLACK
6
CONTINUOUS
10
5.50323
20
-3.55343
11
5.58197
21
-3.55343
0
LINE
8
BLACK
6
CONTINUOUS
10
5.5052
20
-3.55736
11
5.5052
21
-3.60264
0
LINE
8
BLACK
6
CONTINUOUS
10
5.5052
20
-3.60264
11
5.58
21
-3.60264
0
LINE
8
BLACK
6
CONTINUOUS
10
5.58
20
-3.60264
11
5.58
21
-3.55736
0
LINE
8
BLACK
6
CONTINUOUS
10
5.58
20
-3.55736
11
5.5052
21
-3.55736
0
LINE
8
BLACK
6
CONTINUOUS
10
5.43374
20
-3.38786
11
5.4351
21
-3.38803
0
LINE
8
BLACK
6
CONTINUOUS
10
5.4351
20
-3.38803
11
5.43513
21
-3.38806
0
LINE
8
BLACK
6
CONTINUOUS
10
5.43513
20
-3.38806
11
5.43517
21
-3.38806
0
LINE
8
BLACK
6
CONTINUOUS
10
5.43517
20
-3.38806
11
5.43621
21
-3.38896
0
LINE
8
BLACK
6
CONTINUOUS
10
5.43621
20
-3.38896
11
5.43726
21
-3.38984
0
LINE
8
BLACK
6
CONTINUOUS
10
5.43726
20
-3.38984
11
5.44174
21
-3.39657
0
LINE
8
BLACK
6
CONTINUOUS
10
5.44174
20
-3.39657
11
5.44558
21
-3.40041
0
LINE
8
BLACK
6
CONTINUOUS
10
5.44558
20
-3.40041
11
5.44962
21
-3.40242
0
LINE
8
BLACK
6
CONTINUOUS
10
5.44962
20
-3.40242
11
5.45079
21
-3.40324
0
LINE
8
BLACK
6
CONTINUOUS
10
5.45079
20
-3.40324
11
5.45223
21
-3.40566
0
LINE
8
BLACK
6
CONTINUOUS
10
5.45223
20
-3.40566
11
5.45213
21
-3.40847
0
LINE
8
BLACK
6
CONTINUOUS
10
5.45213
20
-3.40847
11
5.45052
21
-3.41079
0
LINE
8
BLACK
6
CONTINUOUS
10
5.45052
20
-3.41079
11
5.44792
21
-3.41187
0
LINE
8
BLACK
6
CONTINUOUS
10
5.44792
20
-3.41187
11
5.44514
21
-3.41137
0
LINE
8
BLACK
6
CONTINUOUS
10
5.44514
20
-3.41137
11
5.44038
21
-3.40899
0
LINE
8
BLACK
6
CONTINUOUS
10
5.44038
20
-3.40899
11
5.43921
21
-3.40818
0
LINE
8
BLACK
6
CONTINUOUS
10
5.43921
20
-3.40818
11
5.43917
21
-3.4081
0
LINE
8
BLACK
6
CONTINUOUS
10
5.43917
20
-3.4081
11
5.43908
21
-3.40805
0
LINE
8
BLACK
6
CONTINUOUS
10
5.43908
20
-3.40805
11
5.4381
21
-3.40706
0
LINE
8
BLACK
6
CONTINUOUS
10
5.4381
20
-3.40706
11
5.4381
21
-3.43761
0
LINE
8
BLACK
6
CONTINUOUS
10
5.4381
20
-3.43761
11
5.44738
21
-3.43761
0
LINE
8
BLACK
6
CONTINUOUS
10
5.44738
20
-3.43761
11
5.44879
21
-3.43781
0
LINE
8
BLACK
6
CONTINUOUS
10
5.44879
20
-3.43781
11
5.45116
21
-3.43934
0
LINE
8
BLACK
6
CONTINUOUS
10
5.45116
20
-3.43934
11
5.45233
21
-3.4419
0
LINE
8
BLACK
6
CONTINUOUS
10
5.45233
20
-3.4419
11
5.45193
21
-3.44469
0
LINE
8
BLACK
6
CONTINUOUS
10
5.45193
20
-3.44469
11
5.45008
21
-3.44682
0
LINE
8
BLACK
6
CONTINUOUS
10
5.45008
20
-3.44682
11
5.44738
21
-3.44761
0
LINE
8
BLACK
6
CONTINUOUS
10
5.44738
20
-3.44761
11
5.41881
21
-3.44761
0
LINE
8
BLACK
6
CONTINUOUS
10
5.41881
20
-3.44761
11
5.4174
21
-3.44741
0
LINE
8
BLACK
6
CONTINUOUS
10
5.4174
20
-3.44741
11
5.41503
21
-3.44589
0
LINE
8
BLACK
6
CONTINUOUS
10
5.41503
20
-3.44589
11
5.41386
21
-3.44332
0
LINE
8
BLACK
6
CONTINUOUS
10
5.41386
20
-3.44332
11
5.41426
21
-3.44053
0
LINE
8
BLACK
6
CONTINUOUS
10
5.41426
20
-3.44053
11
5.41611
21
-3.4384
0
LINE
8
BLACK
6
CONTINUOUS
10
5.41611
20
-3.4384
11
5.41881
21
-3.43761
0
LINE
8
BLACK
6
CONTINUOUS
10
5.41881
20
-3.43761
11
5.4281
21
-3.43761
0
LINE
8
BLACK
6
CONTINUOUS
10
5.4281
20
-3.43761
11
5.4281
21
-3.39261
0
LINE
8
BLACK
6
CONTINUOUS
10
5.4281
20
-3.39261
11
5.42828
21
-3.39135
0
LINE
8
BLACK
6
CONTINUOUS
10
5.42828
20
-3.39135
11
5.42827
21
-3.39128
0
LINE
8
BLACK
6
CONTINUOUS
10
5.42827
20
-3.39128
11
5.42829
21
-3.39126
0
LINE
8
BLACK
6
CONTINUOUS
10
5.42829
20
-3.39126
11
5.4283
21
-3.3912
0
LINE
8
BLACK
6
CONTINUOUS
10
5.4283
20
-3.3912
11
5.42904
21
-3.39005
0
LINE
8
BLACK
6
CONTINUOUS
10
5.42904
20
-3.39005
11
5.42976
21
-3.38889
0
LINE
8
BLACK
6
CONTINUOUS
10
5.42976
20
-3.38889
11
5.4298
21
-3.38887
0
LINE
8
BLACK
6
CONTINUOUS
10
5.4298
20
-3.38887
11
5.42982
21
-3.38883
0
LINE
8
BLACK
6
CONTINUOUS
10
5.42982
20
-3.38883
11
5.43107
21
-3.38826
0
LINE
8
BLACK
6
CONTINUOUS
10
5.43107
20
-3.38826
11
5.4323
21
-3.38767
0
LINE
8
BLACK
6
CONTINUOUS
10
5.4323
20
-3.38767
11
5.43234
21
-3.38768
0
LINE
8
BLACK
6
CONTINUOUS
10
5.43234
20
-3.38768
11
5.43238
21
-3.38766
0
LINE
8
BLACK
6
CONTINUOUS
10
5.43238
20
-3.38766
11
5.43374
21
-3.38786
0
LINE
8
BLACK
6
CONTINUOUS
10
5.48212
20
-3.38781
11
5.4822
21
-3.38786
0
LINE
8
BLACK
6
CONTINUOUS
10
5.4822
20
-3.38786
11
5.4823
21
-3.38787
0
LINE
8
BLACK
6
CONTINUOUS
10
5.4823
20
-3.38787
11
5.48944
21
-3.39025
0
LINE
8
BLACK
6
CONTINUOUS
10
5.48944
20
-3.39025
11
5.49071
21
-3.39089
0
LINE
8
BLACK
6
CONTINUOUS
10
5.49071
20
-3.39089
11
5.49099
21
-3.39124
0
LINE
8
BLACK
6
CONTINUOUS
10
5.49099
20
-3.39124
11
5.49139
21
-3.39146
0
LINE
8
BLACK
6
CONTINUOUS
10
5.49139
20
-3.39146
11
5.49615
21
-3.39622
0
LINE
8
BLACK
6
CONTINUOUS
10
5.49615
20
-3.39622
11
5.49701
21
-3.39736
0
LINE
8
BLACK
6
CONTINUOUS
10
5.49701
20
-3.39736
11
5.49703
21
-3.39745
0
LINE
8
BLACK
6
CONTINUOUS
10
5.49703
20
-3.39745
11
5.49709
21
-3.39752
0
LINE
8
BLACK
6
CONTINUOUS
10
5.49709
20
-3.39752
11
5.49947
21
-3.40228
0
LINE
8
BLACK
6
CONTINUOUS
10
5.49947
20
-3.40228
11
5.49976
21
-3.40315
0
LINE
8
BLACK
6
CONTINUOUS
10
5.49976
20
-3.40315
11
5.49985
21
-3.4033
0
LINE
8
BLACK
6
CONTINUOUS
10
5.49985
20
-3.4033
11
5.50223
21
-3.41283
0
LINE
8
BLACK
6
CONTINUOUS
10
5.50223
20
-3.41283
11
5.50234
21
-3.41391
0
LINE
8
BLACK
6
CONTINUOUS
10
5.50234
20
-3.41391
11
5.50238
21
-3.41404
0
LINE
8
BLACK
6
CONTINUOUS
10
5.50238
20
-3.41404
11
5.50238
21
-3.42118
0
LINE
8
BLACK
6
CONTINUOUS
10
5.50238
20
-3.42118
11
5.50223
21
-3.42226
0
LINE
8
BLACK
6
CONTINUOUS
10
5.50223
20
-3.42226
11
5.50223
21
-3.4224
0
LINE
8
BLACK
6
CONTINUOUS
10
5.50223
20
-3.4224
11
5.49985
21
-3.43192
0
LINE
8
BLACK
6
CONTINUOUS
10
5.49985
20
-3.43192
11
5.4995
21
-3.43277
0
LINE
8
BLACK
6
CONTINUOUS
10
5.4995
20
-3.43277
11
5.49947
21
-3.43294
0
LINE
8
BLACK
6
CONTINUOUS
10
5.49947
20
-3.43294
11
5.49709
21
-3.4377
0
LINE
8
BLACK
6
CONTINUOUS
10
5.49709
20
-3.4377
11
5.49628
21
-3.43887
0
LINE
8
BLACK
6
CONTINUOUS
10
5.49628
20
-3.43887
11
5.4962
21
-3.43892
0
LINE
8
BLACK
6
CONTINUOUS
10
5.4962
20
-3.43892
11
5.49615
21
-3.439
0
LINE
8
BLACK
6
CONTINUOUS
10
5.49615
20
-3.439
11
5.49139
21
-3.44377
0
LINE
8
BLACK
6
CONTINUOUS
10
5.49139
20
-3.44377
11
5.49025
21
-3.44462
0
LINE
8
BLACK
6
CONTINUOUS
10
5.49025
20
-3.44462
11
5.48981
21
-3.44471
0
LINE
8
BLACK
6
CONTINUOUS
10
5.48981
20
-3.44471
11
5.48944
21
-3.44497
0
LINE
8
BLACK
6
CONTINUOUS
10
5.48944
20
-3.44497
11
5.4823
21
-3.44735
0
LINE
8
BLACK
6
CONTINUOUS
10
5.4823
20
-3.44735
11
5.48089
21
-3.44761
0
LINE
8
BLACK
6
CONTINUOUS
10
5.48089
20
-3.44761
11
5.4808
21
-3.44758
0
LINE
8
BLACK
6
CONTINUOUS
10
5.4808
20
-3.44758
11
5.48071
21
-3.44761
0
LINE
8
BLACK
6
CONTINUOUS
10
5.48071
20
-3.44761
11
5.47595
21
-3.44761
0
LINE
8
BLACK
6
CONTINUOUS
10
5.47595
20
-3.44761
11
5.47454
21
-3.44741
0
LINE
8
BLACK
6
CONTINUOUS
10
5.47454
20
-3.44741
11
5.47446
21
-3.44736
0
LINE
8
BLACK
6
CONTINUOUS
10
5.47446
20
-3.44736
11
5.47437
21
-3.44735
0
LINE
8
BLACK
6
CONTINUOUS
10
5.47437
20
-3.44735
11
5.46723
21
-3.44497
0
LINE
8
BLACK
6
CONTINUOUS
10
5.46723
20
-3.44497
11
5.46596
21
-3.44434
0
LINE
8
BLACK
6
CONTINUOUS
10
5.46596
20
-3.44434
11
5.46567
21
-3.44398
0
LINE
8
BLACK
6
CONTINUOUS
10
5.46567
20
-3.44398
11
5.46527
21
-3.44377
0
LINE
8
BLACK
6
CONTINUOUS
10
5.46527
20
-3.44377
11
5.46289
21
-3.44138
0
LINE
8
BLACK
6
CONTINUOUS
10
5.46289
20
-3.44138
11
5.46204
21
-3.44025
0
LINE
8
BLACK
6
CONTINUOUS
10
5.46204
20
-3.44025
11
5.46144
21
-3.43749
0
LINE
8
BLACK
6
CONTINUOUS
10
5.46144
20
-3.43749
11
5.46243
21
-3.43485
0
LINE
8
BLACK
6
CONTINUOUS
10
5.46243
20
-3.43485
11
5.46468
21
-3.43316
0
LINE
8
BLACK
6
CONTINUOUS
10
5.46468
20
-3.43316
11
5.46749
21
-3.43296
0
LINE
8
BLACK
6
CONTINUOUS
10
5.46749
20
-3.43296
11
5.46996
21
-3.43431
0
LINE
8
BLACK
6
CONTINUOUS
10
5.46996
20
-3.43431
11
5.47151
21
-3.43586
0
LINE
8
BLACK
6
CONTINUOUS
10
5.47151
20
-3.43586
11
5.47676
21
-3.43761
0
LINE
8
BLACK
6
CONTINUOUS
10
5.47676
20
-3.43761
11
5.4799
21
-3.43761
0
LINE
8
BLACK
6
CONTINUOUS
10
5.4799
20
-3.43761
11
5.48516
21
-3.43586
0
LINE
8
BLACK
6
CONTINUOUS
10
5.48516
20
-3.43586
11
5.48851
21
-3.43251
0
LINE
8
BLACK
6
CONTINUOUS
10
5.48851
20
-3.43251
11
5.49028
21
-3.42896
0
LINE
8
BLACK
6
CONTINUOUS
10
5.49028
20
-3.42896
11
5.49238
21
-3.42057
0
LINE
8
BLACK
6
CONTINUOUS
10
5.49238
20
-3.42057
11
5.49238
21
-3.41465
0
LINE
8
BLACK
6
CONTINUOUS
10
5.49238
20
-3.41465
11
5.49028
21
-3.40626
0
LINE
8
BLACK
6
CONTINUOUS
10
5.49028
20
-3.40626
11
5.48851
21
-3.40272
0
LINE
8
BLACK
6
CONTINUOUS
10
5.48851
20
-3.40272
11
5.48516
21
-3.39936
0
LINE
8
BLACK
6
CONTINUOUS
10
5.48516
20
-3.39936
11
5.4799
21
-3.39761
0
LINE
8
BLACK
6
CONTINUOUS
10
5.4799
20
-3.39761
11
5.47676
21
-3.39761
0
LINE
8
BLACK
6
CONTINUOUS
10
5.47676
20
-3.39761
11
5.47151
21
-3.39936
0
LINE
8
BLACK
6
CONTINUOUS
10
5.47151
20
-3.39936
11
5.46996
21
-3.40091
0
LINE
8
BLACK
6
CONTINUOUS
10
5.46996
20
-3.40091
11
5.46882
21
-3.40176
0
LINE
8
BLACK
6
CONTINUOUS
10
5.46882
20
-3.40176
11
5.46607
21
-3.40236
0
LINE
8
BLACK
6
CONTINUOUS
10
5.46607
20
-3.40236
11
5.46343
21
-3.40138
0
LINE
8
BLACK
6
CONTINUOUS
10
5.46343
20
-3.40138
11
5.46174
21
-3.39912
0
LINE
8
BLACK
6
CONTINUOUS
10
5.46174
20
-3.39912
11
5.46154
21
-3.39631
0
LINE
8
BLACK
6
CONTINUOUS
10
5.46154
20
-3.39631
11
5.46289
21
-3.39384
0
LINE
8
BLACK
6
CONTINUOUS
10
5.46289
20
-3.39384
11
5.46527
21
-3.39146
0
LINE
8
BLACK
6
CONTINUOUS
10
5.46527
20
-3.39146
11
5.46641
21
-3.3906
0
LINE
8
BLACK
6
CONTINUOUS
10
5.46641
20
-3.3906
11
5.46686
21
-3.39051
0
LINE
8
BLACK
6
CONTINUOUS
10
5.46686
20
-3.39051
11
5.46723
21
-3.39025
0
LINE
8
BLACK
6
CONTINUOUS
10
5.46723
20
-3.39025
11
5.47437
21
-3.38787
0
LINE
8
BLACK
6
CONTINUOUS
10
5.47437
20
-3.38787
11
5.47577
21
-3.38761
0
LINE
8
BLACK
6
CONTINUOUS
10
5.47577
20
-3.38761
11
5.47586
21
-3.38764
0
LINE
8
BLACK
6
CONTINUOUS
10
5.47586
20
-3.38764
11
5.47595
21
-3.38761
0
LINE
8
BLACK
6
CONTINUOUS
10
5.47595
20
-3.38761
11
5.48071
21
-3.38761
0
LINE
8
BLACK
6
CONTINUOUS
10
5.48071
20
-3.38761
11
5.48212
21
-3.38781
0
LINE
8
BLACK
6
CONTINUOUS
10
5.52089
20
-3.38806
11
5.52302
21
-3.38991
0
LINE
8
BLACK
6
CONTINUOUS
10
5.52302
20
-3.38991
11
5.52381
21
-3.39261
0
LINE
8
BLACK
6
CONTINUOUS
10
5.52381
20
-3.39261
11
5.52381
21
-3.44261
0
LINE
8
BLACK
6
CONTINUOUS
10
5.52381
20
-3.44261
11
5.52361
21
-3.44402
0
LINE
8
BLACK
6
CONTINUOUS
10
5.52361
20
-3.44402
11
5.52208
21
-3.44639
0
LINE
8
BLACK
6
CONTINUOUS
10
5.52208
20
-3.44639
11
5.51952
21
-3.44756
0
LINE
8
BLACK
6
CONTINUOUS
10
5.51952
20
-3.44756
11
5.51673
21
-3.44716
0
LINE
8
BLACK
6
CONTINUOUS
10
5.51673
20
-3.44716
11
5.5146
21
-3.44531
0
LINE
8
BLACK
6
CONTINUOUS
10
5.5146
20
-3.44531
11
5.51381
21
-3.44261
0
LINE
8
BLACK
6
CONTINUOUS
10
5.51381
20
-3.44261
11
5.51381
21
-3.39261
0
LINE
8
BLACK
6
CONTINUOUS
10
5.51381
20
-3.39261
11
5.51401
21
-3.3912
0
LINE
8
BLACK
6
CONTINUOUS
10
5.51401
20
-3.3912
11
5.51554
21
-3.38883
0
LINE
8
BLACK
6
CONTINUOUS
10
5.51554
20
-3.38883
11
5.5181
21
-3.38766
0
LINE
8
BLACK
6
CONTINUOUS
10
5.5181
20
-3.38766
11
5.52089
21
-3.38806
0
LINE
8
BLACK
6
CONTINUOUS
10
5.57295
20
-3.31508
11
5.57434
21
-3.31566
0
LINE
8
BLACK
6
CONTINUOUS
10
5.57434
20
-3.31566
11
5.57492
21
-3.31705
0
LINE
8
BLACK
6
CONTINUOUS
10
5.57492
20
-3.31705
11
5.57492
21
-3.52295
0
LINE
8
BLACK
6
CONTINUOUS
10
5.57492
20
-3.52295
11
5.57434
21
-3.52434
0
LINE
8
BLACK
6
CONTINUOUS
10
5.57434
20
-3.52434
11
5.57295
21
-3.52492
0
LINE
8
BLACK
6
CONTINUOUS
10
5.57295
20
-3.52492
11
5.36705
21
-3.52492
0
LINE
8
BLACK
6
CONTINUOUS
10
5.36705
20
-3.52492
11
5.36566
21
-3.52434
0
LINE
8
BLACK
6
CONTINUOUS
10
5.36566
20
-3.52434
11
5.36508
21
-3.52295
0
LINE
8
BLACK
6
CONTINUOUS
10
5.36508
20
-3.52295
11
5.36508
21
-3.52295
0
LINE
8
BLACK
6
CONTINUOUS
10
5.36508
20
-3.52295
11
5.36508
21
-3.31705
0
LINE
8
BLACK
6
CONTINUOUS
10
5.36508
20
-3.31705
11
5.36566
21
-3.31566
0
LINE
8
BLACK
6
CONTINUOUS
10
5.36566
20
-3.31566
11
5.36705
21
-3.31508
0
LINE
8
BLACK
6
CONTINUOUS
10
5.36705
20
-3.31508
11
5.57295
21
-3.31508
0
LINE
8
BLACK
6
CONTINUOUS
10
5.36902
20
-3.52098
11
5.41229
21
-3.52098
0
LINE
8
BLACK
6
CONTINUOUS
10
5.41229
20
-3.52098
11
5.36902
21
-3.47771
0
LINE
8
BLACK
6
CONTINUOUS
10
5.36902
20
-3.47771
11
5.36902
21
-3.52098
0
LINE
8
BLACK
6
CONTINUOUS
10
5.36902
20
-3.31902
11
5.36902
21
-3.47214
0
LINE
8
BLACK
6
CONTINUOUS
10
5.36902
20
-3.47214
11
5.41786
21
-3.52098
0
LINE
8
BLACK
6
CONTINUOUS
10
5.41786
20
-3.52098
11
5.57098
21
-3.52098
0
LINE
8
BLACK
6
CONTINUOUS
10
5.57098
20
-3.52098
11
5.57098
21
-3.31902
0
LINE
8
BLACK
6
CONTINUOUS
10
5.57098
20
-3.31902
11
5.36902
21
-3.31902
0
LINE
8
BLACK
6
CONTINUOUS
10
5.92659
20
-3.26042
11
5.92717
21
-3.26181
0
LINE
8
BLACK
6
CONTINUOUS
10
5.92717
20
-3.26181
11
5.92717
21
-3.27953
0
LINE
8
BLACK
6
CONTINUOUS
10
5.92717
20
-3.27953
11
5.94094
21
-3.27953
0
LINE
8
BLACK
6
CONTINUOUS
10
5.94094
20
-3.27953
11
5.94147
21
-3.27975
0
LINE
8
BLACK
6
CONTINUOUS
10
5.94147
20
-3.27975
11
5.94204
21
-3.27986
0
LINE
8
BLACK
6
CONTINUOUS
10
5.94204
20
-3.27986
11
5.94215
21
-3.28003
0
LINE
8
BLACK
6
CONTINUOUS
10
5.94215
20
-3.28003
11
5.94234
21
-3.2801
0
LINE
8
BLACK
6
CONTINUOUS
10
5.94234
20
-3.2801
11
5.94256
21
-3.28063
0
LINE
8
BLACK
6
CONTINUOUS
10
5.94256
20
-3.28063
11
5.94288
21
-3.28111
0
LINE
8
BLACK
6
CONTINUOUS
10
5.94288
20
-3.28111
11
5.94284
21
-3.28131
0
LINE
8
BLACK
6
CONTINUOUS
10
5.94284
20
-3.28131
11
5.94291
21
-3.2815
0
LINE
8
BLACK
6
CONTINUOUS
10
5.94291
20
-3.2815
11
5.94269
21
-3.28203
0
LINE
8
BLACK
6
CONTINUOUS
10
5.94269
20
-3.28203
11
5.94258
21
-3.28259
0
LINE
8
BLACK
6
CONTINUOUS
10
5.94258
20
-3.28259
11
5.92888
21
-3.30315
0
LINE
8
BLACK
6
CONTINUOUS
10
5.92888
20
-3.30315
11
5.94685
21
-3.30315
0
LINE
8
BLACK
6
CONTINUOUS
10
5.94685
20
-3.30315
11
5.94824
21
-3.30373
0
LINE
8
BLACK
6
CONTINUOUS
10
5.94824
20
-3.30373
11
5.94882
21
-3.30512
0
LINE
8
BLACK
6
CONTINUOUS
10
5.94882
20
-3.30512
11
5.94824
21
-3.30651
0
LINE
8
BLACK
6
CONTINUOUS
10
5.94824
20
-3.30651
11
5.94685
21
-3.30709
0
LINE
8
BLACK
6
CONTINUOUS
10
5.94685
20
-3.30709
11
5.92717
21
-3.30709
0
LINE
8
BLACK
6
CONTINUOUS
10
5.92717
20
-3.30709
11
5.92717
21
-3.32087
0
LINE
8
BLACK
6
CONTINUOUS
10
5.92717
20
-3.32087
11
5.92659
21
-3.32226
0
LINE
8
BLACK
6
CONTINUOUS
10
5.92659
20
-3.32226
11
5.9252
21
-3.32283
0
LINE
8
BLACK
6
CONTINUOUS
10
5.9252
20
-3.32283
11
5.9238
21
-3.32226
0
LINE
8
BLACK
6
CONTINUOUS
10
5.9238
20
-3.32226
11
5.92323
21
-3.32087
0
LINE
8
BLACK
6
CONTINUOUS
10
5.92323
20
-3.32087
11
5.92323
21
-3.30709
0
LINE
8
BLACK
6
CONTINUOUS
10
5.92323
20
-3.30709
11
5.90354
21
-3.30709
0
LINE
8
BLACK
6
CONTINUOUS
10
5.90354
20
-3.30709
11
5.90215
21
-3.30651
0
LINE
8
BLACK
6
CONTINUOUS
10
5.90215
20
-3.30651
11
5.90157
21
-3.30512
0
LINE
8
BLACK
6
CONTINUOUS
10
5.90157
20
-3.30512
11
5.90215
21
-3.30373
0
LINE
8
BLACK
6
CONTINUOUS
10
5.90215
20
-3.30373
11
5.90354
21
-3.30315
0
LINE
8
BLACK
6
CONTINUOUS
10
5.90354
20
-3.30315
11
5.92152
21
-3.30315
0
LINE
8
BLACK
6
CONTINUOUS
10
5.92152
20
-3.30315
11
5.90781
21
-3.28259
0
LINE
8
BLACK
6
CONTINUOUS
10
5.90781
20
-3.28259
11
5.9077
21
-3.28203
0
LINE
8
BLACK
6
CONTINUOUS
10
5.9077
20
-3.28203
11
5.90748
21
-3.2815
0
LINE
8
BLACK
6
CONTINUOUS
10
5.90748
20
-3.2815
11
5.90756
21
-3.28131
0
LINE
8
BLACK
6
CONTINUOUS
10
5.90756
20
-3.28131
11
5.90752
21
-3.28111
0
LINE
8
BLACK
6
CONTINUOUS
10
5.90752
20
-3.28111
11
5.90784
21
-3.28063
0
LINE
8
BLACK
6
CONTINUOUS
10
5.90784
20
-3.28063
11
5.90806
21
-3.2801
0
LINE
8
BLACK
6
CONTINUOUS
10
5.90806
20
-3.2801
11
5.90824
21
-3.28003
0
LINE
8
BLACK
6
CONTINUOUS
10
5.90824
20
-3.28003
11
5.90836
21
-3.27986
0
LINE
8
BLACK
6
CONTINUOUS
10
5.90836
20
-3.27986
11
5.90892
21
-3.27975
0
LINE
8
BLACK
6
CONTINUOUS
10
5.90892
20
-3.27975
11
5.90945
21
-3.27953
0
LINE
8
BLACK
6
CONTINUOUS
10
5.90945
20
-3.27953
11
5.92323
21
-3.27953
0
LINE
8
BLACK
6
CONTINUOUS
10
5.92323
20
-3.27953
11
5.92323
21
-3.26181
0
LINE
8
BLACK
6
CONTINUOUS
10
5.92323
20
-3.26181
11
5.9238
21
-3.26042
0
LINE
8
BLACK
6
CONTINUOUS
10
5.9238
20
-3.26042
11
5.9252
21
-3.25984
0
LINE
8
BLACK
6
CONTINUOUS
10
5.9252
20
-3.25984
11
5.92659
21
-3.26042
0
LINE
8
BLACK
6
CONTINUOUS
10
5.9252
20
-3.28346
11
5.91313
21
-3.28346
0
LINE
8
BLACK
6
CONTINUOUS
10
5.91313
20
-3.28346
11
5.9252
21
-3.30157
0
LINE
8
BLACK
6
CONTINUOUS
10
5.9252
20
-3.30157
11
5.93727
21
-3.28346
0
LINE
8
BLACK
6
CONTINUOUS
10
5.93727
20
-3.28346
11
5.9252
21
-3.28346
0
LINE
8
BLACK
6
CONTINUOUS
10
5.96063
20
-3.23425
11
5.96202
21
-3.23483
0
LINE
8
BLACK
6
CONTINUOUS
10
5.96202
20
-3.23483
11
5.9626
21
-3.23622
0
LINE
8
BLACK
6
CONTINUOUS
10
5.9626
20
-3.23622
11
5.9626
21
-3.34646
0
LINE
8
BLACK
6
CONTINUOUS
10
5.9626
20
-3.34646
11
5.96202
21
-3.34785
0
LINE
8
BLACK
6
CONTINUOUS
10
5.96202
20
-3.34785
11
5.96063
21
-3.34843
0
LINE
8
BLACK
6
CONTINUOUS
10
5.96063
20
-3.34843
11
5.88976
21
-3.34843
0
LINE
8
BLACK
6
CONTINUOUS
10
5.88976
20
-3.34843
11
5.88837
21
-3.34785
0
LINE
8
BLACK
6
CONTINUOUS
10
5.88837
20
-3.34785
11
5.8878
21
-3.34646
0
LINE
8
BLACK
6
CONTINUOUS
10
5.8878
20
-3.34646
11
5.8878
21
-3.23622
0
LINE
8
BLACK
6
CONTINUOUS
10
5.8878
20
-3.23622
11
5.88837
21
-3.23483
0
LINE
8
BLACK
6
CONTINUOUS
10
5.88837
20
-3.23483
11
5.88976
21
-3.23425
0
LINE
8
BLACK
6
CONTINUOUS
10
5.88976
20
-3.23425
11
5.96063
21
-3.23425
0
LINE
8
BLACK
6
CONTINUOUS
10
5.89173
20
-3.23819
11
5.89173
21
-3.34449
0
LINE
8
BLACK
6
CONTINUOUS
10
5.89173
20
-3.34449
11
5.95866
21
-3.34449
0
LINE
8
BLACK
6
CONTINUOUS
10
5.95866
20
-3.34449
11
5.95866
21
-3.23819
0
LINE
8
BLACK
6
CONTINUOUS
10
5.95866
20
-3.23819
11
5.89173
21
-3.23819
0
LINE
8
BLACK
6
CONTINUOUS
10
5.99174
20
-3.3024
11
5.99285
21
-3.30409
0
LINE
8
BLACK
6
CONTINUOUS
10
5.99285
20
-3.30409
11
5.99262
21
-3.3061
0
LINE
8
BLACK
6
CONTINUOUS
10
5.99262
20
-3.3061
11
5.99075
21
-3.30985
0
LINE
8
BLACK
6
CONTINUOUS
10
5.99075
20
-3.30985
11
5.99022
21
-3.31055
0
LINE
8
BLACK
6
CONTINUOUS
10
5.99022
20
-3.31055
11
5.99019
21
-3.31061
0
LINE
8
BLACK
6
CONTINUOUS
10
5.99019
20
-3.31061
11
5.98774
21
-3.31307
0
LINE
8
BLACK
6
CONTINUOUS
10
5.98774
20
-3.31307
11
6.01515
21
-3.31307
0
LINE
8
BLACK
6
CONTINUOUS
10
6.01515
20
-3.31307
11
6.01515
21
-3.30478
0
LINE
8
BLACK
6
CONTINUOUS
10
6.01515
20
-3.30478
11
6.01533
21
-3.30377
0
LINE
8
BLACK
6
CONTINUOUS
10
6.01533
20
-3.30377
11
6.01663
21
-3.30222
0
LINE
8
BLACK
6
CONTINUOUS
10
6.01663
20
-3.30222
11
6.01862
21
-3.30187
0
LINE
8
BLACK
6
CONTINUOUS
10
6.01862
20
-3.30187
11
6.02037
21
-3.30288
0
LINE
8
BLACK
6
CONTINUOUS
10
6.02037
20
-3.30288
11
6.02106
21
-3.30478
0
LINE
8
BLACK
6
CONTINUOUS
10
6.02106
20
-3.30478
11
6.02106
21
-3.32727
0
LINE
8
BLACK
6
CONTINUOUS
10
6.02106
20
-3.32727
11
6.02088
21
-3.32828
0
LINE
8
BLACK
6
CONTINUOUS
10
6.02088
20
-3.32828
11
6.01958
21
-3.32983
0
LINE
8
BLACK
6
CONTINUOUS
10
6.01958
20
-3.32983
11
6.01759
21
-3.33018
0
LINE
8
BLACK
6
CONTINUOUS
10
6.01759
20
-3.33018
11
6.01584
21
-3.32917
0
LINE
8
BLACK
6
CONTINUOUS
10
6.01584
20
-3.32917
11
6.01515
21
-3.32727
0
LINE
8
BLACK
6
CONTINUOUS
10
6.01515
20
-3.32727
11
6.01515
21
-3.31898
0
LINE
8
BLACK
6
CONTINUOUS
10
6.01515
20
-3.31898
11
5.97873
21
-3.31898
0
LINE
8
BLACK
6
CONTINUOUS
10
5.97873
20
-3.31898
11
5.97772
21
-3.3188
0
LINE
8
BLACK
6
CONTINUOUS
10
5.97772
20
-3.3188
11
5.97759
21
-3.31869
0
LINE
8
BLACK
6
CONTINUOUS
10
5.97759
20
-3.31869
11
5.97742
21
-3.31867
0
LINE
8
BLACK
6
CONTINUOUS
10
5.97742
20
-3.31867
11
5.97683
21
-3.31805
0
LINE
8
BLACK
6
CONTINUOUS
10
5.97683
20
-3.31805
11
5.97618
21
-3.3175
0
LINE
8
BLACK
6
CONTINUOUS
10
5.97618
20
-3.3175
11
5.97615
21
-3.31733
0
LINE
8
BLACK
6
CONTINUOUS
10
5.97615
20
-3.31733
11
5.97603
21
-3.31721
0
LINE
8
BLACK
6
CONTINUOUS
10
5.97603
20
-3.31721
11
5.97597
21
-3.31635
0
LINE
8
BLACK
6
CONTINUOUS
10
5.97597
20
-3.31635
11
5.97583
21
-3.31551
0
LINE
8
BLACK
6
CONTINUOUS
10
5.97583
20
-3.31551
11
5.97591
21
-3.31536
0
LINE
8
BLACK
6
CONTINUOUS
10
5.97591
20
-3.31536
11
5.9759
21
-3.31519
0
LINE
8
BLACK
6
CONTINUOUS
10
5.9759
20
-3.31519
11
5.97641
21
-3.3145
0
LINE
8
BLACK
6
CONTINUOUS
10
5.97641
20
-3.3145
11
5.97684
21
-3.31376
0
LINE
8
BLACK
6
CONTINUOUS
10
5.97684
20
-3.31376
11
5.97699
21
-3.3137
0
LINE
8
BLACK
6
CONTINUOUS
10
5.97699
20
-3.3137
11
5.9771
21
-3.31357
0
LINE
8
BLACK
6
CONTINUOUS
10
5.9771
20
-3.31357
11
5.98248
21
-3.30998
0
LINE
8
BLACK
6
CONTINUOUS
10
5.98248
20
-3.30998
11
5.98568
21
-3.30678
0
LINE
8
BLACK
6
CONTINUOUS
10
5.98568
20
-3.30678
11
5.98734
21
-3.30345
0
LINE
8
BLACK
6
CONTINUOUS
10
5.98734
20
-3.30345
11
5.98795
21
-3.30263
0
LINE
8
BLACK
6
CONTINUOUS
10
5.98795
20
-3.30263
11
5.9898
21
-3.30183
0
LINE
8
BLACK
6
CONTINUOUS
10
5.9898
20
-3.30183
11
5.99174
21
-3.3024
0
LINE
8
BLACK
6
CONTINUOUS
10
6.01849
20
-3.26439
11
6.01862
21
-3.26437
0
LINE
8
BLACK
6
CONTINUOUS
10
6.01862
20
-3.26437
11
6.01873
21
-3.26444
0
LINE
8
BLACK
6
CONTINUOUS
10
6.01873
20
-3.26444
11
6.01911
21
-3.26451
0
LINE
8
BLACK
6
CONTINUOUS
10
6.01911
20
-3.26451
11
6.0197
21
-3.265
0
LINE
8
BLACK
6
CONTINUOUS
10
6.0197
20
-3.265
11
6.02037
21
-3.26538
0
LINE
8
BLACK
6
CONTINUOUS
10
6.02037
20
-3.26538
11
6.02046
21
-3.26563
0
LINE
8
BLACK
6
CONTINUOUS
10
6.02046
20
-3.26563
11
6.02066
21
-3.2658
0
LINE
8
BLACK
6
CONTINUOUS
10
6.02066
20
-3.2658
11
6.02079
21
-3.26656
0
LINE
8
BLACK
6
CONTINUOUS
10
6.02079
20
-3.26656
11
6.02106
21
-3.26728
0
LINE
8
BLACK
6
CONTINUOUS
10
6.02106
20
-3.26728
11
6.02106
21
-3.27665
0
LINE
8
BLACK
6
CONTINUOUS
10
6.02106
20
-3.27665
11
6.0209
21
-3.27752
0
LINE
8
BLACK
6
CONTINUOUS
10
6.0209
20
-3.27752
11
6.0209
21
-3.27759
0
LINE
8
BLACK
6
CONTINUOUS
10
6.0209
20
-3.27759
11
6.01903
21
-3.28321
0
LINE
8
BLACK
6
CONTINUOUS
10
6.01903
20
-3.28321
11
6.01854
21
-3.28411
0
LINE
8
BLACK
6
CONTINUOUS
10
6.01854
20
-3.28411
11
6.01839
21
-3.28421
0
LINE
8
BLACK
6
CONTINUOUS
10
6.01839
20
-3.28421
11
6.01832
21
-3.28437
0
LINE
8
BLACK
6
CONTINUOUS
10
6.01832
20
-3.28437
11
6.01457
21
-3.28812
0
LINE
8
BLACK
6
CONTINUOUS
10
6.01457
20
-3.28812
11
6.01384
21
-3.28862
0
LINE
8
BLACK
6
CONTINUOUS
10
6.01384
20
-3.28862
11
6.0138
21
-3.28867
0
LINE
8
BLACK
6
CONTINUOUS
10
6.0138
20
-3.28867
11
6.01005
21
-3.29054
0
LINE
8
BLACK
6
CONTINUOUS
10
6.01005
20
-3.29054
11
6.00956
21
-3.29069
0
LINE
8
BLACK
6
CONTINUOUS
10
6.00956
20
-3.29069
11
6.00945
21
-3.29077
0
LINE
8
BLACK
6
CONTINUOUS
10
6.00945
20
-3.29077
11
6.00195
21
-3.29264
0
LINE
8
BLACK
6
CONTINUOUS
10
6.00195
20
-3.29264
11
6.00136
21
-3.29268
0
LINE
8
BLACK
6
CONTINUOUS
10
6.00136
20
-3.29268
11
6.00123
21
-3.29273
0
LINE
8
BLACK
6
CONTINUOUS
10
6.00123
20
-3.29273
11
5.99561
21
-3.29273
0
LINE
8
BLACK
6
CONTINUOUS
10
5.99561
20
-3.29273
11
5.99503
21
-3.29263
0
LINE
8
BLACK
6
CONTINUOUS
10
5.99503
20
-3.29263
11
5.99489
21
-3.29264
0
LINE
8
BLACK
6
CONTINUOUS
10
5.99489
20
-3.29264
11
5.98739
21
-3.29077
0
LINE
8
BLACK
6
CONTINUOUS
10
5.98739
20
-3.29077
11
5.98693
21
-3.29056
0
LINE
8
BLACK
6
CONTINUOUS
10
5.98693
20
-3.29056
11
5.98679
21
-3.29054
0
LINE
8
BLACK
6
CONTINUOUS
10
5.98679
20
-3.29054
11
5.98304
21
-3.28867
0
LINE
8
BLACK
6
CONTINUOUS
10
5.98304
20
-3.28867
11
5.98233
21
-3.28814
0
LINE
8
BLACK
6
CONTINUOUS
10
5.98233
20
-3.28814
11
5.98227
21
-3.28812
0
LINE
8
BLACK
6
CONTINUOUS
10
5.98227
20
-3.28812
11
5.97852
21
-3.28437
0
LINE
8
BLACK
6
CONTINUOUS
10
5.97852
20
-3.28437
11
5.97793
21
-3.28353
0
LINE
8
BLACK
6
CONTINUOUS
10
5.97793
20
-3.28353
11
5.97792
21
-3.28335
0
LINE
8
BLACK
6
CONTINUOUS
10
5.97792
20
-3.28335
11
5.97781
21
-3.28321
0
LINE
8
BLACK
6
CONTINUOUS
10
5.97781
20
-3.28321
11
5.97593
21
-3.27759
0
LINE
8
BLACK
6
CONTINUOUS
10
5.97593
20
-3.27759
11
5.9758
21
-3.27671
0
LINE
8
BLACK
6
CONTINUOUS
10
5.9758
20
-3.27671
11
5.97578
21
-3.27665
0
LINE
8
BLACK
6
CONTINUOUS
10
5.97578
20
-3.27665
11
5.97578
21
-3.26728
0
LINE
8
BLACK
6
CONTINUOUS
10
5.97578
20
-3.26728
11
5.97585
21
-3.2669
0
LINE
8
BLACK
6
CONTINUOUS
10
5.97585
20
-3.2669
11
5.97583
21
-3.26677
0
LINE
8
BLACK
6
CONTINUOUS
10
5.97583
20
-3.26677
11
5.97589
21
-3.26665
0
LINE
8
BLACK
6
CONTINUOUS
10
5.97589
20
-3.26665
11
5.97596
21
-3.26627
0
LINE
8
BLACK
6
CONTINUOUS
10
5.97596
20
-3.26627
11
5.97645
21
-3.26568
0
LINE
8
BLACK
6
CONTINUOUS
10
5.97645
20
-3.26568
11
5.97684
21
-3.26502
0
LINE
8
BLACK
6
CONTINUOUS
10
5.97684
20
-3.26502
11
5.97709
21
-3.26493
0
LINE
8
BLACK
6
CONTINUOUS
10
5.97709
20
-3.26493
11
5.97726
21
-3.26472
0
LINE
8
BLACK
6
CONTINUOUS
10
5.97726
20
-3.26472
11
5.97801
21
-3.26459
0
LINE
8
BLACK
6
CONTINUOUS
10
5.97801
20
-3.26459
11
5.97873
21
-3.26433
0
LINE
8
BLACK
6
CONTINUOUS
10
5.97873
20
-3.26433
11
6.0181
21
-3.26433
0
LINE
8
BLACK
6
CONTINUOUS
10
6.0181
20
-3.26433
11
6.01849
21
-3.26439
0
LINE
8
BLACK
6
CONTINUOUS
10
5.98169
20
-3.27617
11
5.98319
21
-3.28068
0
LINE
8
BLACK
6
CONTINUOUS
10
5.98319
20
-3.28068
11
5.98611
21
-3.2836
0
LINE
8
BLACK
6
CONTINUOUS
10
5.98611
20
-3.2836
11
5.98914
21
-3.28512
0
LINE
8
BLACK
6
CONTINUOUS
10
5.98914
20
-3.28512
11
5.99597
21
-3.28682
0
LINE
8
BLACK
6
CONTINUOUS
10
5.99597
20
-3.28682
11
6.00087
21
-3.28682
0
LINE
8
BLACK
6
CONTINUOUS
10
6.00087
20
-3.28682
11
6.0077
21
-3.28512
0
LINE
8
BLACK
6
CONTINUOUS
10
6.0077
20
-3.28512
11
6.01073
21
-3.2836
0
LINE
8
BLACK
6
CONTINUOUS
10
6.01073
20
-3.2836
11
6.01365
21
-3.28068
0
LINE
8
BLACK
6
CONTINUOUS
10
6.01365
20
-3.28068
11
6.01515
21
-3.27617
0
LINE
8
BLACK
6
CONTINUOUS
10
6.01515
20
-3.27617
11
6.01515
21
-3.27023
0
LINE
8
BLACK
6
CONTINUOUS
10
6.01515
20
-3.27023
11
5.98169
21
-3.27023
0
LINE
8
BLACK
6
CONTINUOUS
10
5.98169
20
-3.27023
11
5.98169
21
-3.27617
  0
ENDSEC
  0
EOF
