  0
SECTION
  2
HEADER
  9
$ANGBASE
  50
0.0
  9
$ANGDIR
  70
1
  9
$MEASUREMENT
  70
0
  0
ENDSEC
  0
SECTION
  2
TABLES
  0
TABLE
  2
LTYPE
  70
4
  0
LTYPE
  5
40F
  2
CONTINUOUS
  70
0
  3
Solid line
  72
65
  73
0
  40
0.0
  0
LTYPE
  5
410
  2
DASHDOT
 70
0
  3
Dash Dot ____ _ ____ _
 72
65
 73
4
 40
2.0
 49
1.25
 49
-0.25
 49
0.25
 49
-0.25
  0
LTYPE
  5
411
  2
DASHED
 70
0
  3
Dashed __ __ __ __ __
 72
65
 73
2
 40
0.75
 49
0.5
 49
-0.25
  0
LTYPE
  5
43B
  2
DOTTED
 70
0
  3
Dotted .  .  .  .
 72
65
 73
2
 40
0.2
 49
0.0
 49
-0.2
  0
ENDTAB
  0
TABLE
  2
STYLE
  70
4
  0
STYLE
  2
KICAD
  70
0
  40
0
  41
1
  42
1
  50
0
  71
0
  3
isocp.shx
  0
STYLE
  2
KICADB
  70
0
  40
0
  41
1
  42
1
  50
0
  71
0
  3
isocp.shx
  0
STYLE
  2
KICADI
  70
0
  40
0
  41
1
  42
1
  50
15
  71
0
  3
isocp.shx
  0
STYLE
  2
KICADBI
  70
0
  40
0
  41
1
  42
1
  50
15
  71
0
  3
isocp.shx
  0
ENDTAB
  0
TABLE
  2
LAYER
  70
1
  0
LAYER
  2
BLACK
  70
0
  62
7
  6
CONTINUOUS
  0
ENDTAB
  0
ENDSEC
  0
SECTION
  2
ENTITIES
0
LINE
8
BLACK
6
CONTINUOUS
10
5.70476
20
-3.59458
11
5.70551
21
-3.59689
0
LINE
8
BLACK
6
CONTINUOUS
10
5.70551
20
-3.59689
11
5.70551
21
-3.66185
0
LINE
8
BLACK
6
CONTINUOUS
10
5.70551
20
-3.66185
11
5.70476
21
-3.66416
0
LINE
8
BLACK
6
CONTINUOUS
10
5.70476
20
-3.66416
11
5.70279
21
-3.66559
0
LINE
8
BLACK
6
CONTINUOUS
10
5.70279
20
-3.66559
11
5.70036
21
-3.66559
0
LINE
8
BLACK
6
CONTINUOUS
10
5.70036
20
-3.66559
11
5.69839
21
-3.66416
0
LINE
8
BLACK
6
CONTINUOUS
10
5.69839
20
-3.66416
11
5.69764
21
-3.66185
0
LINE
8
BLACK
6
CONTINUOUS
10
5.69764
20
-3.66185
11
5.69764
21
-3.59689
0
LINE
8
BLACK
6
CONTINUOUS
10
5.69764
20
-3.59689
11
5.69839
21
-3.59458
0
LINE
8
BLACK
6
CONTINUOUS
10
5.69839
20
-3.59458
11
5.70036
21
-3.59315
0
LINE
8
BLACK
6
CONTINUOUS
10
5.70036
20
-3.59315
11
5.70279
21
-3.59315
0
LINE
8
BLACK
6
CONTINUOUS
10
5.70279
20
-3.59315
11
5.70476
21
-3.59458
0
LINE
8
BLACK
6
CONTINUOUS
10
5.62469
20
-3.50276
11
5.62682
21
-3.5046
0
LINE
8
BLACK
6
CONTINUOUS
10
5.62682
20
-3.5046
11
5.62761
21
-3.5073
0
LINE
8
BLACK
6
CONTINUOUS
10
5.62761
20
-3.5073
11
5.62761
21
-3.53588
0
LINE
8
BLACK
6
CONTINUOUS
10
5.62761
20
-3.53588
11
5.62741
21
-3.53728
0
LINE
8
BLACK
6
CONTINUOUS
10
5.62741
20
-3.53728
11
5.62589
21
-3.53965
0
LINE
8
BLACK
6
CONTINUOUS
10
5.62589
20
-3.53965
11
5.62332
21
-3.54082
0
LINE
8
BLACK
6
CONTINUOUS
10
5.62332
20
-3.54082
11
5.62053
21
-3.54042
0
LINE
8
BLACK
6
CONTINUOUS
10
5.62053
20
-3.54042
11
5.6184
21
-3.53858
0
LINE
8
BLACK
6
CONTINUOUS
10
5.6184
20
-3.53858
11
5.61761
21
-3.53588
0
LINE
8
BLACK
6
CONTINUOUS
10
5.61761
20
-3.53588
11
5.61761
21
-3.52659
0
LINE
8
BLACK
6
CONTINUOUS
10
5.61761
20
-3.52659
11
5.57261
21
-3.52659
0
LINE
8
BLACK
6
CONTINUOUS
10
5.57261
20
-3.52659
11
5.57135
21
-3.52641
0
LINE
8
BLACK
6
CONTINUOUS
10
5.57135
20
-3.52641
11
5.57128
21
-3.52641
0
LINE
8
BLACK
6
CONTINUOUS
10
5.57128
20
-3.52641
11
5.57126
21
-3.5264
0
LINE
8
BLACK
6
CONTINUOUS
10
5.57126
20
-3.5264
11
5.5712
21
-3.52639
0
LINE
8
BLACK
6
CONTINUOUS
10
5.5712
20
-3.52639
11
5.57005
21
-3.52565
0
LINE
8
BLACK
6
CONTINUOUS
10
5.57005
20
-3.52565
11
5.56889
21
-3.52493
0
LINE
8
BLACK
6
CONTINUOUS
10
5.56889
20
-3.52493
11
5.56887
21
-3.52489
0
LINE
8
BLACK
6
CONTINUOUS
10
5.56887
20
-3.52489
11
5.56883
21
-3.52486
0
LINE
8
BLACK
6
CONTINUOUS
10
5.56883
20
-3.52486
11
5.56826
21
-3.52362
0
LINE
8
BLACK
6
CONTINUOUS
10
5.56826
20
-3.52362
11
5.56767
21
-3.52238
0
LINE
8
BLACK
6
CONTINUOUS
10
5.56767
20
-3.52238
11
5.56768
21
-3.52234
0
LINE
8
BLACK
6
CONTINUOUS
10
5.56768
20
-3.52234
11
5.56766
21
-3.5223
0
LINE
8
BLACK
6
CONTINUOUS
10
5.56766
20
-3.5223
11
5.56786
21
-3.52095
0
LINE
8
BLACK
6
CONTINUOUS
10
5.56786
20
-3.52095
11
5.56803
21
-3.51959
0
LINE
8
BLACK
6
CONTINUOUS
10
5.56803
20
-3.51959
11
5.56806
21
-3.51956
0
LINE
8
BLACK
6
CONTINUOUS
10
5.56806
20
-3.51956
11
5.56806
21
-3.51951
0
LINE
8
BLACK
6
CONTINUOUS
10
5.56806
20
-3.51951
11
5.56896
21
-3.51848
0
LINE
8
BLACK
6
CONTINUOUS
10
5.56896
20
-3.51848
11
5.56984
21
-3.51743
0
LINE
8
BLACK
6
CONTINUOUS
10
5.56984
20
-3.51743
11
5.57657
21
-3.51294
0
LINE
8
BLACK
6
CONTINUOUS
10
5.57657
20
-3.51294
11
5.58041
21
-3.5091
0
LINE
8
BLACK
6
CONTINUOUS
10
5.58041
20
-3.5091
11
5.58242
21
-3.50507
0
LINE
8
BLACK
6
CONTINUOUS
10
5.58242
20
-3.50507
11
5.58324
21
-3.5039
0
LINE
8
BLACK
6
CONTINUOUS
10
5.58324
20
-3.5039
11
5.58566
21
-3.50246
0
LINE
8
BLACK
6
CONTINUOUS
10
5.58566
20
-3.50246
11
5.58847
21
-3.50256
0
LINE
8
BLACK
6
CONTINUOUS
10
5.58847
20
-3.50256
11
5.59079
21
-3.50416
0
LINE
8
BLACK
6
CONTINUOUS
10
5.59079
20
-3.50416
11
5.59187
21
-3.50677
0
LINE
8
BLACK
6
CONTINUOUS
10
5.59187
20
-3.50677
11
5.59137
21
-3.50954
0
LINE
8
BLACK
6
CONTINUOUS
10
5.59137
20
-3.50954
11
5.58899
21
-3.5143
0
LINE
8
BLACK
6
CONTINUOUS
10
5.58899
20
-3.5143
11
5.58818
21
-3.51547
0
LINE
8
BLACK
6
CONTINUOUS
10
5.58818
20
-3.51547
11
5.5881
21
-3.51552
0
LINE
8
BLACK
6
CONTINUOUS
10
5.5881
20
-3.51552
11
5.58805
21
-3.5156
0
LINE
8
BLACK
6
CONTINUOUS
10
5.58805
20
-3.5156
11
5.58706
21
-3.51659
0
LINE
8
BLACK
6
CONTINUOUS
10
5.58706
20
-3.51659
11
5.61761
21
-3.51659
0
LINE
8
BLACK
6
CONTINUOUS
10
5.61761
20
-3.51659
11
5.61761
21
-3.5073
0
LINE
8
BLACK
6
CONTINUOUS
10
5.61761
20
-3.5073
11
5.61781
21
-3.5059
0
LINE
8
BLACK
6
CONTINUOUS
10
5.61781
20
-3.5059
11
5.61934
21
-3.50353
0
LINE
8
BLACK
6
CONTINUOUS
10
5.61934
20
-3.50353
11
5.6219
21
-3.50235
0
LINE
8
BLACK
6
CONTINUOUS
10
5.6219
20
-3.50235
11
5.62469
21
-3.50276
0
LINE
8
BLACK
6
CONTINUOUS
10
5.60226
20
-3.45246
11
5.6024
21
-3.45245
0
LINE
8
BLACK
6
CONTINUOUS
10
5.6024
20
-3.45245
11
5.61192
21
-3.45483
0
LINE
8
BLACK
6
CONTINUOUS
10
5.61192
20
-3.45483
11
5.61277
21
-3.45518
0
LINE
8
BLACK
6
CONTINUOUS
10
5.61277
20
-3.45518
11
5.61294
21
-3.45521
0
LINE
8
BLACK
6
CONTINUOUS
10
5.61294
20
-3.45521
11
5.6177
21
-3.45759
0
LINE
8
BLACK
6
CONTINUOUS
10
5.6177
20
-3.45759
11
5.61887
21
-3.4584
0
LINE
8
BLACK
6
CONTINUOUS
10
5.61887
20
-3.4584
11
5.61892
21
-3.45849
0
LINE
8
BLACK
6
CONTINUOUS
10
5.61892
20
-3.45849
11
5.619
21
-3.45853
0
LINE
8
BLACK
6
CONTINUOUS
10
5.619
20
-3.45853
11
5.62377
21
-3.46329
0
LINE
8
BLACK
6
CONTINUOUS
10
5.62377
20
-3.46329
11
5.62462
21
-3.46443
0
LINE
8
BLACK
6
CONTINUOUS
10
5.62462
20
-3.46443
11
5.62471
21
-3.46487
0
LINE
8
BLACK
6
CONTINUOUS
10
5.62471
20
-3.46487
11
5.62497
21
-3.46525
0
LINE
8
BLACK
6
CONTINUOUS
10
5.62497
20
-3.46525
11
5.62735
21
-3.47239
0
LINE
8
BLACK
6
CONTINUOUS
10
5.62735
20
-3.47239
11
5.62761
21
-3.47379
0
LINE
8
BLACK
6
CONTINUOUS
10
5.62761
20
-3.47379
11
5.62758
21
-3.47388
0
LINE
8
BLACK
6
CONTINUOUS
10
5.62758
20
-3.47388
11
5.62761
21
-3.47397
0
LINE
8
BLACK
6
CONTINUOUS
10
5.62761
20
-3.47397
11
5.62761
21
-3.47873
0
LINE
8
BLACK
6
CONTINUOUS
10
5.62761
20
-3.47873
11
5.62741
21
-3.48014
0
LINE
8
BLACK
6
CONTINUOUS
10
5.62741
20
-3.48014
11
5.62736
21
-3.48022
0
LINE
8
BLACK
6
CONTINUOUS
10
5.62736
20
-3.48022
11
5.62735
21
-3.48031
0
LINE
8
BLACK
6
CONTINUOUS
10
5.62735
20
-3.48031
11
5.62497
21
-3.48746
0
LINE
8
BLACK
6
CONTINUOUS
10
5.62497
20
-3.48746
11
5.62434
21
-3.48873
0
LINE
8
BLACK
6
CONTINUOUS
10
5.62434
20
-3.48873
11
5.62398
21
-3.48901
0
LINE
8
BLACK
6
CONTINUOUS
10
5.62398
20
-3.48901
11
5.62377
21
-3.48941
0
LINE
8
BLACK
6
CONTINUOUS
10
5.62377
20
-3.48941
11
5.62138
21
-3.49179
0
LINE
8
BLACK
6
CONTINUOUS
10
5.62138
20
-3.49179
11
5.62025
21
-3.49264
0
LINE
8
BLACK
6
CONTINUOUS
10
5.62025
20
-3.49264
11
5.61749
21
-3.49324
0
LINE
8
BLACK
6
CONTINUOUS
10
5.61749
20
-3.49324
11
5.61485
21
-3.49226
0
LINE
8
BLACK
6
CONTINUOUS
10
5.61485
20
-3.49226
11
5.61316
21
-3.49
0
LINE
8
BLACK
6
CONTINUOUS
10
5.61316
20
-3.49
11
5.61296
21
-3.48719
0
LINE
8
BLACK
6
CONTINUOUS
10
5.61296
20
-3.48719
11
5.61431
21
-3.48472
0
LINE
8
BLACK
6
CONTINUOUS
10
5.61431
20
-3.48472
11
5.61586
21
-3.48317
0
LINE
8
BLACK
6
CONTINUOUS
10
5.61586
20
-3.48317
11
5.61761
21
-3.47792
0
LINE
8
BLACK
6
CONTINUOUS
10
5.61761
20
-3.47792
11
5.61761
21
-3.47478
0
LINE
8
BLACK
6
CONTINUOUS
10
5.61761
20
-3.47478
11
5.61586
21
-3.46953
0
LINE
8
BLACK
6
CONTINUOUS
10
5.61586
20
-3.46953
11
5.61251
21
-3.46618
0
LINE
8
BLACK
6
CONTINUOUS
10
5.61251
20
-3.46618
11
5.60896
21
-3.4644
0
LINE
8
BLACK
6
CONTINUOUS
10
5.60896
20
-3.4644
11
5.60057
21
-3.4623
0
LINE
8
BLACK
6
CONTINUOUS
10
5.60057
20
-3.4623
11
5.59465
21
-3.4623
0
LINE
8
BLACK
6
CONTINUOUS
10
5.59465
20
-3.4623
11
5.58626
21
-3.4644
0
LINE
8
BLACK
6
CONTINUOUS
10
5.58626
20
-3.4644
11
5.58272
21
-3.46618
0
LINE
8
BLACK
6
CONTINUOUS
10
5.58272
20
-3.46618
11
5.57936
21
-3.46953
0
LINE
8
BLACK
6
CONTINUOUS
10
5.57936
20
-3.46953
11
5.57761
21
-3.47478
0
LINE
8
BLACK
6
CONTINUOUS
10
5.57761
20
-3.47478
11
5.57761
21
-3.47792
0
LINE
8
BLACK
6
CONTINUOUS
10
5.57761
20
-3.47792
11
5.57936
21
-3.48317
0
LINE
8
BLACK
6
CONTINUOUS
10
5.57936
20
-3.48317
11
5.58091
21
-3.48472
0
LINE
8
BLACK
6
CONTINUOUS
10
5.58091
20
-3.48472
11
5.58176
21
-3.48586
0
LINE
8
BLACK
6
CONTINUOUS
10
5.58176
20
-3.48586
11
5.58236
21
-3.48861
0
LINE
8
BLACK
6
CONTINUOUS
10
5.58236
20
-3.48861
11
5.58138
21
-3.49125
0
LINE
8
BLACK
6
CONTINUOUS
10
5.58138
20
-3.49125
11
5.57912
21
-3.49294
0
LINE
8
BLACK
6
CONTINUOUS
10
5.57912
20
-3.49294
11
5.57631
21
-3.49314
0
LINE
8
BLACK
6
CONTINUOUS
10
5.57631
20
-3.49314
11
5.57384
21
-3.49179
0
LINE
8
BLACK
6
CONTINUOUS
10
5.57384
20
-3.49179
11
5.57146
21
-3.48941
0
LINE
8
BLACK
6
CONTINUOUS
10
5.57146
20
-3.48941
11
5.5706
21
-3.48827
0
LINE
8
BLACK
6
CONTINUOUS
10
5.5706
20
-3.48827
11
5.57051
21
-3.48783
0
LINE
8
BLACK
6
CONTINUOUS
10
5.57051
20
-3.48783
11
5.57025
21
-3.48746
0
LINE
8
BLACK
6
CONTINUOUS
10
5.57025
20
-3.48746
11
5.56787
21
-3.48031
0
LINE
8
BLACK
6
CONTINUOUS
10
5.56787
20
-3.48031
11
5.56761
21
-3.47891
0
LINE
8
BLACK
6
CONTINUOUS
10
5.56761
20
-3.47891
11
5.56764
21
-3.47882
0
LINE
8
BLACK
6
CONTINUOUS
10
5.56764
20
-3.47882
11
5.56761
21
-3.47873
0
LINE
8
BLACK
6
CONTINUOUS
10
5.56761
20
-3.47873
11
5.56761
21
-3.47397
0
LINE
8
BLACK
6
CONTINUOUS
10
5.56761
20
-3.47397
11
5.56781
21
-3.47256
0
LINE
8
BLACK
6
CONTINUOUS
10
5.56781
20
-3.47256
11
5.56786
21
-3.47248
0
LINE
8
BLACK
6
CONTINUOUS
10
5.56786
20
-3.47248
11
5.56787
21
-3.47239
0
LINE
8
BLACK
6
CONTINUOUS
10
5.56787
20
-3.47239
11
5.57025
21
-3.46525
0
LINE
8
BLACK
6
CONTINUOUS
10
5.57025
20
-3.46525
11
5.57089
21
-3.46397
0
LINE
8
BLACK
6
CONTINUOUS
10
5.57089
20
-3.46397
11
5.57124
21
-3.46369
0
LINE
8
BLACK
6
CONTINUOUS
10
5.57124
20
-3.46369
11
5.57146
21
-3.46329
0
LINE
8
BLACK
6
CONTINUOUS
10
5.57146
20
-3.46329
11
5.57622
21
-3.45853
0
LINE
8
BLACK
6
CONTINUOUS
10
5.57622
20
-3.45853
11
5.57736
21
-3.45768
0
LINE
8
BLACK
6
CONTINUOUS
10
5.57736
20
-3.45768
11
5.57745
21
-3.45766
0
LINE
8
BLACK
6
CONTINUOUS
10
5.57745
20
-3.45766
11
5.57752
21
-3.45759
0
LINE
8
BLACK
6
CONTINUOUS
10
5.57752
20
-3.45759
11
5.58228
21
-3.45521
0
LINE
8
BLACK
6
CONTINUOUS
10
5.58228
20
-3.45521
11
5.58315
21
-3.45492
0
LINE
8
BLACK
6
CONTINUOUS
10
5.58315
20
-3.45492
11
5.5833
21
-3.45483
0
LINE
8
BLACK
6
CONTINUOUS
10
5.5833
20
-3.45483
11
5.59283
21
-3.45245
0
LINE
8
BLACK
6
CONTINUOUS
10
5.59283
20
-3.45245
11
5.59391
21
-3.45234
0
LINE
8
BLACK
6
CONTINUOUS
10
5.59391
20
-3.45234
11
5.59404
21
-3.4523
0
LINE
8
BLACK
6
CONTINUOUS
10
5.59404
20
-3.4523
11
5.60118
21
-3.4523
0
LINE
8
BLACK
6
CONTINUOUS
10
5.60118
20
-3.4523
11
5.60226
21
-3.45246
0
LINE
8
BLACK
6
CONTINUOUS
10
5.62402
20
-3.43108
11
5.62639
21
-3.4326
0
LINE
8
BLACK
6
CONTINUOUS
10
5.62639
20
-3.4326
11
5.62756
21
-3.43516
0
LINE
8
BLACK
6
CONTINUOUS
10
5.62756
20
-3.43516
11
5.62716
21
-3.43795
0
LINE
8
BLACK
6
CONTINUOUS
10
5.62716
20
-3.43795
11
5.62531
21
-3.44008
0
LINE
8
BLACK
6
CONTINUOUS
10
5.62531
20
-3.44008
11
5.62261
21
-3.44088
0
LINE
8
BLACK
6
CONTINUOUS
10
5.62261
20
-3.44088
11
5.57261
21
-3.44088
0
LINE
8
BLACK
6
CONTINUOUS
10
5.57261
20
-3.44088
11
5.5712
21
-3.44067
0
LINE
8
BLACK
6
CONTINUOUS
10
5.5712
20
-3.44067
11
5.56883
21
-3.43915
0
LINE
8
BLACK
6
CONTINUOUS
10
5.56883
20
-3.43915
11
5.56766
21
-3.43659
0
LINE
8
BLACK
6
CONTINUOUS
10
5.56766
20
-3.43659
11
5.56806
21
-3.4338
0
LINE
8
BLACK
6
CONTINUOUS
10
5.56806
20
-3.4338
11
5.56991
21
-3.43167
0
LINE
8
BLACK
6
CONTINUOUS
10
5.56991
20
-3.43167
11
5.57261
21
-3.43088
0
LINE
8
BLACK
6
CONTINUOUS
10
5.57261
20
-3.43088
11
5.62261
21
-3.43088
0
LINE
8
BLACK
6
CONTINUOUS
10
5.62261
20
-3.43088
11
5.62402
21
-3.43108
0
LINE
8
BLACK
6
CONTINUOUS
10
5.70355
20
-3.38252
11
5.70417
21
-3.38252
0
LINE
8
BLACK
6
CONTINUOUS
10
5.70417
20
-3.38252
11
5.70467
21
-3.38288
0
LINE
8
BLACK
6
CONTINUOUS
10
5.70467
20
-3.38288
11
5.70527
21
-3.38307
0
LINE
8
BLACK
6
CONTINUOUS
10
5.70527
20
-3.38307
11
5.70563
21
-3.38358
0
LINE
8
BLACK
6
CONTINUOUS
10
5.70563
20
-3.38358
11
5.70614
21
-3.38395
0
LINE
8
BLACK
6
CONTINUOUS
10
5.70614
20
-3.38395
11
5.70633
21
-3.38454
0
LINE
8
BLACK
6
CONTINUOUS
10
5.70633
20
-3.38454
11
5.7067
21
-3.38504
0
LINE
8
BLACK
6
CONTINUOUS
10
5.7067
20
-3.38504
11
5.7067
21
-3.38567
0
LINE
8
BLACK
6
CONTINUOUS
10
5.7067
20
-3.38567
11
5.70689
21
-3.38626
0
LINE
8
BLACK
6
CONTINUOUS
10
5.70689
20
-3.38626
11
5.70689
21
-3.58311
0
LINE
8
BLACK
6
CONTINUOUS
10
5.70689
20
-3.58311
11
5.7067
21
-3.5837
0
LINE
8
BLACK
6
CONTINUOUS
10
5.7067
20
-3.5837
11
5.7067
21
-3.58433
0
LINE
8
BLACK
6
CONTINUOUS
10
5.7067
20
-3.58433
11
5.70633
21
-3.58483
0
LINE
8
BLACK
6
CONTINUOUS
10
5.70633
20
-3.58483
11
5.70614
21
-3.58542
0
LINE
8
BLACK
6
CONTINUOUS
10
5.70614
20
-3.58542
11
5.70563
21
-3.58579
0
LINE
8
BLACK
6
CONTINUOUS
10
5.70563
20
-3.58579
11
5.70527
21
-3.5863
0
LINE
8
BLACK
6
CONTINUOUS
10
5.70527
20
-3.5863
11
5.70467
21
-3.58649
0
LINE
8
BLACK
6
CONTINUOUS
10
5.70467
20
-3.58649
11
5.70417
21
-3.58685
0
LINE
8
BLACK
6
CONTINUOUS
10
5.70417
20
-3.58685
11
5.70355
21
-3.58685
0
LINE
8
BLACK
6
CONTINUOUS
10
5.70355
20
-3.58685
11
5.70295
21
-3.58705
0
LINE
8
BLACK
6
CONTINUOUS
10
5.70295
20
-3.58705
11
5.49705
21
-3.58705
0
LINE
8
BLACK
6
CONTINUOUS
10
5.49705
20
-3.58705
11
5.49645
21
-3.58685
0
LINE
8
BLACK
6
CONTINUOUS
10
5.49645
20
-3.58685
11
5.49583
21
-3.58685
0
LINE
8
BLACK
6
CONTINUOUS
10
5.49583
20
-3.58685
11
5.49533
21
-3.58649
0
LINE
8
BLACK
6
CONTINUOUS
10
5.49533
20
-3.58649
11
5.49473
21
-3.5863
0
LINE
8
BLACK
6
CONTINUOUS
10
5.49473
20
-3.5863
11
5.49437
21
-3.58579
0
LINE
8
BLACK
6
CONTINUOUS
10
5.49437
20
-3.58579
11
5.49386
21
-3.58542
0
LINE
8
BLACK
6
CONTINUOUS
10
5.49386
20
-3.58542
11
5.49367
21
-3.58483
0
LINE
8
BLACK
6
CONTINUOUS
10
5.49367
20
-3.58483
11
5.4933
21
-3.58433
0
LINE
8
BLACK
6
CONTINUOUS
10
5.4933
20
-3.58433
11
5.4933
21
-3.5837
0
LINE
8
BLACK
6
CONTINUOUS
10
5.4933
20
-3.5837
11
5.49311
21
-3.58311
0
LINE
8
BLACK
6
CONTINUOUS
10
5.49311
20
-3.58311
11
5.49311
21
-3.38626
0
LINE
8
BLACK
6
CONTINUOUS
10
5.49311
20
-3.38626
11
5.4933
21
-3.38567
0
LINE
8
BLACK
6
CONTINUOUS
10
5.4933
20
-3.38567
11
5.4933
21
-3.38504
0
LINE
8
BLACK
6
CONTINUOUS
10
5.4933
20
-3.38504
11
5.49367
21
-3.38454
0
LINE
8
BLACK
6
CONTINUOUS
10
5.49367
20
-3.38454
11
5.49386
21
-3.38395
0
LINE
8
BLACK
6
CONTINUOUS
10
5.49386
20
-3.38395
11
5.49437
21
-3.38358
0
LINE
8
BLACK
6
CONTINUOUS
10
5.49437
20
-3.38358
11
5.49473
21
-3.38307
0
LINE
8
BLACK
6
CONTINUOUS
10
5.49473
20
-3.38307
11
5.49533
21
-3.38288
0
LINE
8
BLACK
6
CONTINUOUS
10
5.49533
20
-3.38288
11
5.49583
21
-3.38252
0
LINE
8
BLACK
6
CONTINUOUS
10
5.49583
20
-3.38252
11
5.49645
21
-3.38252
0
LINE
8
BLACK
6
CONTINUOUS
10
5.49645
20
-3.38252
11
5.49705
21
-3.38232
0
LINE
8
BLACK
6
CONTINUOUS
10
5.49705
20
-3.38232
11
5.70295
21
-3.38232
0
LINE
8
BLACK
6
CONTINUOUS
10
5.70295
20
-3.38232
11
5.70355
21
-3.38252
0
LINE
8
BLACK
6
CONTINUOUS
10
5.50098
20
-3.3902
11
5.50098
21
-3.57917
0
LINE
8
BLACK
6
CONTINUOUS
10
5.50098
20
-3.57917
11
5.69902
21
-3.57917
0
LINE
8
BLACK
6
CONTINUOUS
10
5.69902
20
-3.57917
11
5.69902
21
-3.3902
0
LINE
8
BLACK
6
CONTINUOUS
10
5.69902
20
-3.3902
11
5.50098
21
-3.3902
0
LINE
8
BLACK
6
CONTINUOUS
10
5.38223
20
-3.29571
11
5.3824
21
-3.2957
0
LINE
8
BLACK
6
CONTINUOUS
10
5.3824
20
-3.2957
11
5.38309
21
-3.29621
0
LINE
8
BLACK
6
CONTINUOUS
10
5.38309
20
-3.29621
11
5.38384
21
-3.29664
0
LINE
8
BLACK
6
CONTINUOUS
10
5.38384
20
-3.29664
11
5.38389
21
-3.2968
0
LINE
8
BLACK
6
CONTINUOUS
10
5.38389
20
-3.2968
11
5.38403
21
-3.2969
0
LINE
8
BLACK
6
CONTINUOUS
10
5.38403
20
-3.2969
11
5.38762
21
-3.30228
0
LINE
8
BLACK
6
CONTINUOUS
10
5.38762
20
-3.30228
11
5.39082
21
-3.30548
0
LINE
8
BLACK
6
CONTINUOUS
10
5.39082
20
-3.30548
11
5.39414
21
-3.30714
0
LINE
8
BLACK
6
CONTINUOUS
10
5.39414
20
-3.30714
11
5.39497
21
-3.30775
0
LINE
8
BLACK
6
CONTINUOUS
10
5.39497
20
-3.30775
11
5.39577
21
-3.30961
0
LINE
8
BLACK
6
CONTINUOUS
10
5.39577
20
-3.30961
11
5.39519
21
-3.31154
0
LINE
8
BLACK
6
CONTINUOUS
10
5.39519
20
-3.31154
11
5.39351
21
-3.31266
0
LINE
8
BLACK
6
CONTINUOUS
10
5.39351
20
-3.31266
11
5.3915
21
-3.31243
0
LINE
8
BLACK
6
CONTINUOUS
10
5.3915
20
-3.31243
11
5.38775
21
-3.31055
0
LINE
8
BLACK
6
CONTINUOUS
10
5.38775
20
-3.31055
11
5.38704
21
-3.31003
0
LINE
8
BLACK
6
CONTINUOUS
10
5.38704
20
-3.31003
11
5.38699
21
-3.31
0
LINE
8
BLACK
6
CONTINUOUS
10
5.38699
20
-3.31
11
5.38453
21
-3.30754
0
LINE
8
BLACK
6
CONTINUOUS
10
5.38453
20
-3.30754
11
5.38453
21
-3.33495
0
LINE
8
BLACK
6
CONTINUOUS
10
5.38453
20
-3.33495
11
5.39282
21
-3.33495
0
LINE
8
BLACK
6
CONTINUOUS
10
5.39282
20
-3.33495
11
5.39383
21
-3.33513
0
LINE
8
BLACK
6
CONTINUOUS
10
5.39383
20
-3.33513
11
5.39538
21
-3.33643
0
LINE
8
BLACK
6
CONTINUOUS
10
5.39538
20
-3.33643
11
5.39573
21
-3.33842
0
LINE
8
BLACK
6
CONTINUOUS
10
5.39573
20
-3.33842
11
5.39472
21
-3.34017
0
LINE
8
BLACK
6
CONTINUOUS
10
5.39472
20
-3.34017
11
5.39282
21
-3.34086
0
LINE
8
BLACK
6
CONTINUOUS
10
5.39282
20
-3.34086
11
5.37033
21
-3.34086
0
LINE
8
BLACK
6
CONTINUOUS
10
5.37033
20
-3.34086
11
5.36932
21
-3.34068
0
LINE
8
BLACK
6
CONTINUOUS
10
5.36932
20
-3.34068
11
5.36777
21
-3.33938
0
LINE
8
BLACK
6
CONTINUOUS
10
5.36777
20
-3.33938
11
5.36742
21
-3.33739
0
LINE
8
BLACK
6
CONTINUOUS
10
5.36742
20
-3.33739
11
5.36843
21
-3.33564
0
LINE
8
BLACK
6
CONTINUOUS
10
5.36843
20
-3.33564
11
5.37033
21
-3.33495
0
LINE
8
BLACK
6
CONTINUOUS
10
5.37033
20
-3.33495
11
5.37862
21
-3.33495
0
LINE
8
BLACK
6
CONTINUOUS
10
5.37862
20
-3.33495
11
5.37862
21
-3.29854
0
LINE
8
BLACK
6
CONTINUOUS
10
5.37862
20
-3.29854
11
5.3788
21
-3.29753
0
LINE
8
BLACK
6
CONTINUOUS
10
5.3788
20
-3.29753
11
5.37891
21
-3.2974
0
LINE
8
BLACK
6
CONTINUOUS
10
5.37891
20
-3.2974
11
5.37893
21
-3.29723
0
LINE
8
BLACK
6
CONTINUOUS
10
5.37893
20
-3.29723
11
5.37955
21
-3.29664
0
LINE
8
BLACK
6
CONTINUOUS
10
5.37955
20
-3.29664
11
5.3801
21
-3.29598
0
LINE
8
BLACK
6
CONTINUOUS
10
5.3801
20
-3.29598
11
5.38027
21
-3.29595
0
LINE
8
BLACK
6
CONTINUOUS
10
5.38027
20
-3.29595
11
5.38039
21
-3.29583
0
LINE
8
BLACK
6
CONTINUOUS
10
5.38039
20
-3.29583
11
5.38124
21
-3.29578
0
LINE
8
BLACK
6
CONTINUOUS
10
5.38124
20
-3.29578
11
5.38209
21
-3.29563
0
LINE
8
BLACK
6
CONTINUOUS
10
5.38209
20
-3.29563
11
5.38223
21
-3.29571
0
LINE
8
BLACK
6
CONTINUOUS
10
5.4307
20
-3.29565
11
5.43083
21
-3.29563
0
LINE
8
BLACK
6
CONTINUOUS
10
5.43083
20
-3.29563
11
5.43094
21
-3.29569
0
LINE
8
BLACK
6
CONTINUOUS
10
5.43094
20
-3.29569
11
5.43133
21
-3.29576
0
LINE
8
BLACK
6
CONTINUOUS
10
5.43133
20
-3.29576
11
5.43192
21
-3.29625
0
LINE
8
BLACK
6
CONTINUOUS
10
5.43192
20
-3.29625
11
5.43258
21
-3.29664
0
LINE
8
BLACK
6
CONTINUOUS
10
5.43258
20
-3.29664
11
5.43267
21
-3.29689
0
LINE
8
BLACK
6
CONTINUOUS
10
5.43267
20
-3.29689
11
5.43288
21
-3.29706
0
LINE
8
BLACK
6
CONTINUOUS
10
5.43288
20
-3.29706
11
5.43301
21
-3.29782
0
LINE
8
BLACK
6
CONTINUOUS
10
5.43301
20
-3.29782
11
5.43327
21
-3.29854
0
LINE
8
BLACK
6
CONTINUOUS
10
5.43327
20
-3.29854
11
5.43327
21
-3.33791
0
LINE
8
BLACK
6
CONTINUOUS
10
5.43327
20
-3.33791
11
5.4332
21
-3.33829
0
LINE
8
BLACK
6
CONTINUOUS
10
5.4332
20
-3.33829
11
5.43323
21
-3.33842
0
LINE
8
BLACK
6
CONTINUOUS
10
5.43323
20
-3.33842
11
5.43316
21
-3.33853
0
LINE
8
BLACK
6
CONTINUOUS
10
5.43316
20
-3.33853
11
5.43309
21
-3.33892
0
LINE
8
BLACK
6
CONTINUOUS
10
5.43309
20
-3.33892
11
5.4326
21
-3.3395
0
LINE
8
BLACK
6
CONTINUOUS
10
5.4326
20
-3.3395
11
5.43222
21
-3.34017
0
LINE
8
BLACK
6
CONTINUOUS
10
5.43222
20
-3.34017
11
5.43197
21
-3.34026
0
LINE
8
BLACK
6
CONTINUOUS
10
5.43197
20
-3.34026
11
5.4318
21
-3.34046
0
LINE
8
BLACK
6
CONTINUOUS
10
5.4318
20
-3.34046
11
5.43104
21
-3.3406
0
LINE
8
BLACK
6
CONTINUOUS
10
5.43104
20
-3.3406
11
5.43032
21
-3.34086
0
LINE
8
BLACK
6
CONTINUOUS
10
5.43032
20
-3.34086
11
5.42094
21
-3.34086
0
LINE
8
BLACK
6
CONTINUOUS
10
5.42094
20
-3.34086
11
5.42008
21
-3.34071
0
LINE
8
BLACK
6
CONTINUOUS
10
5.42008
20
-3.34071
11
5.42001
21
-3.34071
0
LINE
8
BLACK
6
CONTINUOUS
10
5.42001
20
-3.34071
11
5.41439
21
-3.33883
0
LINE
8
BLACK
6
CONTINUOUS
10
5.41439
20
-3.33883
11
5.41349
21
-3.33834
0
LINE
8
BLACK
6
CONTINUOUS
10
5.41349
20
-3.33834
11
5.41339
21
-3.33819
0
LINE
8
BLACK
6
CONTINUOUS
10
5.41339
20
-3.33819
11
5.41323
21
-3.33812
0
LINE
8
BLACK
6
CONTINUOUS
10
5.41323
20
-3.33812
11
5.40948
21
-3.33437
0
LINE
8
BLACK
6
CONTINUOUS
10
5.40948
20
-3.33437
11
5.40898
21
-3.33365
0
LINE
8
BLACK
6
CONTINUOUS
10
5.40898
20
-3.33365
11
5.40893
21
-3.3336
0
LINE
8
BLACK
6
CONTINUOUS
10
5.40893
20
-3.3336
11
5.40706
21
-3.32985
0
LINE
8
BLACK
6
CONTINUOUS
10
5.40706
20
-3.32985
11
5.40691
21
-3.32936
0
LINE
8
BLACK
6
CONTINUOUS
10
5.40691
20
-3.32936
11
5.40683
21
-3.32925
0
LINE
8
BLACK
6
CONTINUOUS
10
5.40683
20
-3.32925
11
5.40496
21
-3.32175
0
LINE
8
BLACK
6
CONTINUOUS
10
5.40496
20
-3.32175
11
5.40492
21
-3.32116
0
LINE
8
BLACK
6
CONTINUOUS
10
5.40492
20
-3.32116
11
5.40487
21
-3.32103
0
LINE
8
BLACK
6
CONTINUOUS
10
5.40487
20
-3.32103
11
5.40487
21
-3.31541
0
LINE
8
BLACK
6
CONTINUOUS
10
5.40487
20
-3.31541
11
5.40497
21
-3.31483
0
LINE
8
BLACK
6
CONTINUOUS
10
5.40497
20
-3.31483
11
5.40496
21
-3.31469
0
LINE
8
BLACK
6
CONTINUOUS
10
5.40496
20
-3.31469
11
5.40683
21
-3.30719
0
LINE
8
BLACK
6
CONTINUOUS
10
5.40683
20
-3.30719
11
5.40704
21
-3.30673
0
LINE
8
BLACK
6
CONTINUOUS
10
5.40704
20
-3.30673
11
5.40706
21
-3.30659
0
LINE
8
BLACK
6
CONTINUOUS
10
5.40706
20
-3.30659
11
5.40893
21
-3.30284
0
LINE
8
BLACK
6
CONTINUOUS
10
5.40893
20
-3.30284
11
5.40946
21
-3.30213
0
LINE
8
BLACK
6
CONTINUOUS
10
5.40946
20
-3.30213
11
5.40948
21
-3.30207
0
LINE
8
BLACK
6
CONTINUOUS
10
5.40948
20
-3.30207
11
5.41323
21
-3.29832
0
LINE
8
BLACK
6
CONTINUOUS
10
5.41323
20
-3.29832
11
5.41407
21
-3.29773
0
LINE
8
BLACK
6
CONTINUOUS
10
5.41407
20
-3.29773
11
5.41425
21
-3.29772
0
LINE
8
BLACK
6
CONTINUOUS
10
5.41425
20
-3.29772
11
5.41439
21
-3.29761
0
LINE
8
BLACK
6
CONTINUOUS
10
5.41439
20
-3.29761
11
5.42001
21
-3.29573
0
LINE
8
BLACK
6
CONTINUOUS
10
5.42001
20
-3.29573
11
5.42088
21
-3.29561
0
LINE
8
BLACK
6
CONTINUOUS
10
5.42088
20
-3.29561
11
5.42094
21
-3.29558
0
LINE
8
BLACK
6
CONTINUOUS
10
5.42094
20
-3.29558
11
5.43032
21
-3.29558
0
LINE
8
BLACK
6
CONTINUOUS
10
5.43032
20
-3.29558
11
5.4307
21
-3.29565
0
LINE
8
BLACK
6
CONTINUOUS
10
5.41692
20
-3.30299
11
5.414
21
-3.30591
0
LINE
8
BLACK
6
CONTINUOUS
10
5.414
20
-3.30591
11
5.41248
21
-3.30894
0
LINE
8
BLACK
6
CONTINUOUS
10
5.41248
20
-3.30894
11
5.41077
21
-3.31577
0
LINE
8
BLACK
6
CONTINUOUS
10
5.41077
20
-3.31577
11
5.41077
21
-3.32067
0
LINE
8
BLACK
6
CONTINUOUS
10
5.41077
20
-3.32067
11
5.41248
21
-3.3275
0
LINE
8
BLACK
6
CONTINUOUS
10
5.41248
20
-3.3275
11
5.414
21
-3.33053
0
LINE
8
BLACK
6
CONTINUOUS
10
5.414
20
-3.33053
11
5.41692
21
-3.33345
0
LINE
8
BLACK
6
CONTINUOUS
10
5.41692
20
-3.33345
11
5.42142
21
-3.33495
0
LINE
8
BLACK
6
CONTINUOUS
10
5.42142
20
-3.33495
11
5.42737
21
-3.33495
0
LINE
8
BLACK
6
CONTINUOUS
10
5.42737
20
-3.33495
11
5.42737
21
-3.30149
0
LINE
8
BLACK
6
CONTINUOUS
10
5.42737
20
-3.30149
11
5.42142
21
-3.30149
0
LINE
8
BLACK
6
CONTINUOUS
10
5.42142
20
-3.30149
11
5.41692
21
-3.30299
0
LINE
8
BLACK
6
CONTINUOUS
10
5.51512
20
-3.15268
11
5.51679
21
-3.15337
0
LINE
8
BLACK
6
CONTINUOUS
10
5.51679
20
-3.15337
11
5.51748
21
-3.15504
0
LINE
8
BLACK
6
CONTINUOUS
10
5.51748
20
-3.15504
11
5.51748
21
-3.28496
0
LINE
8
BLACK
6
CONTINUOUS
10
5.51748
20
-3.28496
11
5.51679
21
-3.28663
0
LINE
8
BLACK
6
CONTINUOUS
10
5.51679
20
-3.28663
11
5.51512
21
-3.28732
0
LINE
8
BLACK
6
CONTINUOUS
10
5.51512
20
-3.28732
11
5.30252
21
-3.28732
0
LINE
8
BLACK
6
CONTINUOUS
10
5.30252
20
-3.28732
11
5.30085
21
-3.28663
0
LINE
8
BLACK
6
CONTINUOUS
10
5.30085
20
-3.28663
11
5.30016
21
-3.28496
0
LINE
8
BLACK
6
CONTINUOUS
10
5.30016
20
-3.28496
11
5.30085
21
-3.28329
0
LINE
8
BLACK
6
CONTINUOUS
10
5.30085
20
-3.28329
11
5.30252
21
-3.2826
0
LINE
8
BLACK
6
CONTINUOUS
10
5.30252
20
-3.2826
11
5.51276
21
-3.2826
0
LINE
8
BLACK
6
CONTINUOUS
10
5.51276
20
-3.2826
11
5.51276
21
-3.1574
0
LINE
8
BLACK
6
CONTINUOUS
10
5.51276
20
-3.1574
11
5.30252
21
-3.1574
0
LINE
8
BLACK
6
CONTINUOUS
10
5.30252
20
-3.1574
11
5.30085
21
-3.15671
0
LINE
8
BLACK
6
CONTINUOUS
10
5.30085
20
-3.15671
11
5.30016
21
-3.15504
0
LINE
8
BLACK
6
CONTINUOUS
10
5.30016
20
-3.15504
11
5.30085
21
-3.15337
0
LINE
8
BLACK
6
CONTINUOUS
10
5.30085
20
-3.15337
11
5.30252
21
-3.15268
0
LINE
8
BLACK
6
CONTINUOUS
10
5.30252
20
-3.15268
11
5.51512
21
-3.15268
0
LINE
8
BLACK
6
CONTINUOUS
10
5.64196
20
-3.27727
11
5.64265
21
-3.27894
0
LINE
8
BLACK
6
CONTINUOUS
10
5.64265
20
-3.27894
11
5.64196
21
-3.28061
0
LINE
8
BLACK
6
CONTINUOUS
10
5.64196
20
-3.28061
11
5.64029
21
-3.2813
0
LINE
8
BLACK
6
CONTINUOUS
10
5.64029
20
-3.2813
11
5.61971
21
-3.2813
0
LINE
8
BLACK
6
CONTINUOUS
10
5.61971
20
-3.2813
11
5.61804
21
-3.28061
0
LINE
8
BLACK
6
CONTINUOUS
10
5.61804
20
-3.28061
11
5.61735
21
-3.27894
0
LINE
8
BLACK
6
CONTINUOUS
10
5.61735
20
-3.27894
11
5.61804
21
-3.27727
0
LINE
8
BLACK
6
CONTINUOUS
10
5.61804
20
-3.27727
11
5.61971
21
-3.27657
0
LINE
8
BLACK
6
CONTINUOUS
10
5.61971
20
-3.27657
11
5.64029
21
-3.27657
0
LINE
8
BLACK
6
CONTINUOUS
10
5.64029
20
-3.27657
11
5.64196
21
-3.27727
0
LINE
8
BLACK
6
CONTINUOUS
10
5.71695
20
-3.22576
11
5.71708
21
-3.22587
0
LINE
8
BLACK
6
CONTINUOUS
10
5.71708
20
-3.22587
11
5.71726
21
-3.2259
0
LINE
8
BLACK
6
CONTINUOUS
10
5.71726
20
-3.2259
11
5.72101
21
-3.22777
0
LINE
8
BLACK
6
CONTINUOUS
10
5.72101
20
-3.22777
11
5.72172
21
-3.2283
0
LINE
8
BLACK
6
CONTINUOUS
10
5.72172
20
-3.2283
11
5.72178
21
-3.22832
0
LINE
8
BLACK
6
CONTINUOUS
10
5.72178
20
-3.22832
11
5.72365
21
-3.2302
0
LINE
8
BLACK
6
CONTINUOUS
10
5.72365
20
-3.2302
11
5.72424
21
-3.23104
0
LINE
8
BLACK
6
CONTINUOUS
10
5.72424
20
-3.23104
11
5.72442
21
-3.23305
0
LINE
8
BLACK
6
CONTINUOUS
10
5.72442
20
-3.23305
11
5.72326
21
-3.2347
0
LINE
8
BLACK
6
CONTINUOUS
10
5.72326
20
-3.2347
11
5.72131
21
-3.23523
0
LINE
8
BLACK
6
CONTINUOUS
10
5.72131
20
-3.23523
11
5.71948
21
-3.23437
0
LINE
8
BLACK
6
CONTINUOUS
10
5.71948
20
-3.23437
11
5.71794
21
-3.23284
0
LINE
8
BLACK
6
CONTINUOUS
10
5.71794
20
-3.23284
11
5.71524
21
-3.23149
0
LINE
8
BLACK
6
CONTINUOUS
10
5.71524
20
-3.23149
11
5.70726
21
-3.23149
0
LINE
8
BLACK
6
CONTINUOUS
10
5.70726
20
-3.23149
11
5.70456
21
-3.23284
0
LINE
8
BLACK
6
CONTINUOUS
10
5.70456
20
-3.23284
11
5.70337
21
-3.23403
0
LINE
8
BLACK
6
CONTINUOUS
10
5.70337
20
-3.23403
11
5.70202
21
-3.23673
0
LINE
8
BLACK
6
CONTINUOUS
10
5.70202
20
-3.23673
11
5.70202
21
-3.23931
0
LINE
8
BLACK
6
CONTINUOUS
10
5.70202
20
-3.23931
11
5.70352
21
-3.24381
0
LINE
8
BLACK
6
CONTINUOUS
10
5.70352
20
-3.24381
11
5.72553
21
-3.26582
0
LINE
8
BLACK
6
CONTINUOUS
10
5.72553
20
-3.26582
11
5.7259
21
-3.26635
0
LINE
8
BLACK
6
CONTINUOUS
10
5.7259
20
-3.26635
11
5.726
21
-3.26643
0
LINE
8
BLACK
6
CONTINUOUS
10
5.726
20
-3.26643
11
5.72601
21
-3.26651
0
LINE
8
BLACK
6
CONTINUOUS
10
5.72601
20
-3.26651
11
5.72611
21
-3.26666
0
LINE
8
BLACK
6
CONTINUOUS
10
5.72611
20
-3.26666
11
5.72619
21
-3.26754
0
LINE
8
BLACK
6
CONTINUOUS
10
5.72619
20
-3.26754
11
5.72635
21
-3.26842
0
LINE
8
BLACK
6
CONTINUOUS
10
5.72635
20
-3.26842
11
5.72628
21
-3.26854
0
LINE
8
BLACK
6
CONTINUOUS
10
5.72628
20
-3.26854
11
5.72629
21
-3.26867
0
LINE
8
BLACK
6
CONTINUOUS
10
5.72629
20
-3.26867
11
5.72578
21
-3.2694
0
LINE
8
BLACK
6
CONTINUOUS
10
5.72578
20
-3.2694
11
5.72534
21
-3.27017
0
LINE
8
BLACK
6
CONTINUOUS
10
5.72534
20
-3.27017
11
5.72521
21
-3.27021
0
LINE
8
BLACK
6
CONTINUOUS
10
5.72521
20
-3.27021
11
5.72513
21
-3.27033
0
LINE
8
BLACK
6
CONTINUOUS
10
5.72513
20
-3.27033
11
5.72427
21
-3.27056
0
LINE
8
BLACK
6
CONTINUOUS
10
5.72427
20
-3.27056
11
5.72344
21
-3.27086
0
LINE
8
BLACK
6
CONTINUOUS
10
5.72344
20
-3.27086
11
5.69907
21
-3.27086
0
LINE
8
BLACK
6
CONTINUOUS
10
5.69907
20
-3.27086
11
5.69806
21
-3.27068
0
LINE
8
BLACK
6
CONTINUOUS
10
5.69806
20
-3.27068
11
5.69651
21
-3.26938
0
LINE
8
BLACK
6
CONTINUOUS
10
5.69651
20
-3.26938
11
5.69616
21
-3.26739
0
LINE
8
BLACK
6
CONTINUOUS
10
5.69616
20
-3.26739
11
5.69717
21
-3.26564
0
LINE
8
BLACK
6
CONTINUOUS
10
5.69717
20
-3.26564
11
5.69907
21
-3.26495
0
LINE
8
BLACK
6
CONTINUOUS
10
5.69907
20
-3.26495
11
5.71631
21
-3.26495
0
LINE
8
BLACK
6
CONTINUOUS
10
5.71631
20
-3.26495
11
5.69885
21
-3.2475
0
LINE
8
BLACK
6
CONTINUOUS
10
5.69885
20
-3.2475
11
5.69827
21
-3.24666
0
LINE
8
BLACK
6
CONTINUOUS
10
5.69827
20
-3.24666
11
5.69825
21
-3.24648
0
LINE
8
BLACK
6
CONTINUOUS
10
5.69825
20
-3.24648
11
5.69814
21
-3.24634
0
LINE
8
BLACK
6
CONTINUOUS
10
5.69814
20
-3.24634
11
5.69627
21
-3.24072
0
LINE
8
BLACK
6
CONTINUOUS
10
5.69627
20
-3.24072
11
5.69614
21
-3.23985
0
LINE
8
BLACK
6
CONTINUOUS
10
5.69614
20
-3.23985
11
5.69611
21
-3.23978
0
LINE
8
BLACK
6
CONTINUOUS
10
5.69611
20
-3.23978
11
5.69611
21
-3.23604
0
LINE
8
BLACK
6
CONTINUOUS
10
5.69611
20
-3.23604
11
5.69629
21
-3.23503
0
LINE
8
BLACK
6
CONTINUOUS
10
5.69629
20
-3.23503
11
5.69641
21
-3.23489
0
LINE
8
BLACK
6
CONTINUOUS
10
5.69641
20
-3.23489
11
5.69643
21
-3.23471
0
LINE
8
BLACK
6
CONTINUOUS
10
5.69643
20
-3.23471
11
5.6983
21
-3.23097
0
LINE
8
BLACK
6
CONTINUOUS
10
5.6983
20
-3.23097
11
5.69883
21
-3.23026
0
LINE
8
BLACK
6
CONTINUOUS
10
5.69883
20
-3.23026
11
5.69885
21
-3.2302
0
LINE
8
BLACK
6
CONTINUOUS
10
5.69885
20
-3.2302
11
5.70073
21
-3.22832
0
LINE
8
BLACK
6
CONTINUOUS
10
5.70073
20
-3.22832
11
5.70145
21
-3.22782
0
LINE
8
BLACK
6
CONTINUOUS
10
5.70145
20
-3.22782
11
5.7015
21
-3.22777
0
LINE
8
BLACK
6
CONTINUOUS
10
5.7015
20
-3.22777
11
5.70524
21
-3.2259
0
LINE
8
BLACK
6
CONTINUOUS
10
5.70524
20
-3.2259
11
5.70623
21
-3.2256
0
LINE
8
BLACK
6
CONTINUOUS
10
5.70623
20
-3.2256
11
5.7064
21
-3.22564
0
LINE
8
BLACK
6
CONTINUOUS
10
5.7064
20
-3.22564
11
5.70657
21
-3.22558
0
LINE
8
BLACK
6
CONTINUOUS
10
5.70657
20
-3.22558
11
5.71594
21
-3.22558
0
LINE
8
BLACK
6
CONTINUOUS
10
5.71594
20
-3.22558
11
5.71695
21
-3.22576
0
LINE
8
BLACK
6
CONTINUOUS
10
5.74868
20
-3.22574
11
5.74874
21
-3.22573
0
LINE
8
BLACK
6
CONTINUOUS
10
5.74874
20
-3.22573
11
5.75437
21
-3.22761
0
LINE
8
BLACK
6
CONTINUOUS
10
5.75437
20
-3.22761
11
5.75527
21
-3.2281
0
LINE
8
BLACK
6
CONTINUOUS
10
5.75527
20
-3.2281
11
5.75536
21
-3.22825
0
LINE
8
BLACK
6
CONTINUOUS
10
5.75536
20
-3.22825
11
5.75552
21
-3.22832
0
LINE
8
BLACK
6
CONTINUOUS
10
5.75552
20
-3.22832
11
5.75927
21
-3.23207
0
LINE
8
BLACK
6
CONTINUOUS
10
5.75927
20
-3.23207
11
5.75978
21
-3.2328
0
LINE
8
BLACK
6
CONTINUOUS
10
5.75978
20
-3.2328
11
5.75983
21
-3.23284
0
LINE
8
BLACK
6
CONTINUOUS
10
5.75983
20
-3.23284
11
5.7617
21
-3.23659
0
LINE
8
BLACK
6
CONTINUOUS
10
5.7617
20
-3.23659
11
5.76185
21
-3.23708
0
LINE
8
BLACK
6
CONTINUOUS
10
5.76185
20
-3.23708
11
5.76192
21
-3.23719
0
LINE
8
BLACK
6
CONTINUOUS
10
5.76192
20
-3.23719
11
5.7638
21
-3.24469
0
LINE
8
BLACK
6
CONTINUOUS
10
5.7638
20
-3.24469
11
5.76384
21
-3.24528
0
LINE
8
BLACK
6
CONTINUOUS
10
5.76384
20
-3.24528
11
5.76389
21
-3.24541
0
LINE
8
BLACK
6
CONTINUOUS
10
5.76389
20
-3.24541
11
5.76389
21
-3.25103
0
LINE
8
BLACK
6
CONTINUOUS
10
5.76389
20
-3.25103
11
5.76378
21
-3.25161
0
LINE
8
BLACK
6
CONTINUOUS
10
5.76378
20
-3.25161
11
5.7638
21
-3.25175
0
LINE
8
BLACK
6
CONTINUOUS
10
5.7638
20
-3.25175
11
5.76192
21
-3.25925
0
LINE
8
BLACK
6
CONTINUOUS
10
5.76192
20
-3.25925
11
5.76172
21
-3.25971
0
LINE
8
BLACK
6
CONTINUOUS
10
5.76172
20
-3.25971
11
5.7617
21
-3.25985
0
LINE
8
BLACK
6
CONTINUOUS
10
5.7617
20
-3.25985
11
5.75983
21
-3.2636
0
LINE
8
BLACK
6
CONTINUOUS
10
5.75983
20
-3.2636
11
5.7593
21
-3.26431
0
LINE
8
BLACK
6
CONTINUOUS
10
5.7593
20
-3.26431
11
5.75927
21
-3.26437
0
LINE
8
BLACK
6
CONTINUOUS
10
5.75927
20
-3.26437
11
5.75552
21
-3.26812
0
LINE
8
BLACK
6
CONTINUOUS
10
5.75552
20
-3.26812
11
5.75468
21
-3.26871
0
LINE
8
BLACK
6
CONTINUOUS
10
5.75468
20
-3.26871
11
5.75451
21
-3.26872
0
LINE
8
BLACK
6
CONTINUOUS
10
5.75451
20
-3.26872
11
5.75437
21
-3.26883
0
LINE
8
BLACK
6
CONTINUOUS
10
5.75437
20
-3.26883
11
5.74874
21
-3.27071
0
LINE
8
BLACK
6
CONTINUOUS
10
5.74874
20
-3.27071
11
5.74787
21
-3.27084
0
LINE
8
BLACK
6
CONTINUOUS
10
5.74787
20
-3.27084
11
5.74781
21
-3.27086
0
LINE
8
BLACK
6
CONTINUOUS
10
5.74781
20
-3.27086
11
5.74406
21
-3.27086
0
LINE
8
BLACK
6
CONTINUOUS
10
5.74406
20
-3.27086
11
5.74319
21
-3.27071
0
LINE
8
BLACK
6
CONTINUOUS
10
5.74319
20
-3.27071
11
5.74313
21
-3.27071
0
LINE
8
BLACK
6
CONTINUOUS
10
5.74313
20
-3.27071
11
5.7375
21
-3.26883
0
LINE
8
BLACK
6
CONTINUOUS
10
5.7375
20
-3.26883
11
5.7366
21
-3.26834
0
LINE
8
BLACK
6
CONTINUOUS
10
5.7366
20
-3.26834
11
5.73651
21
-3.26819
0
LINE
8
BLACK
6
CONTINUOUS
10
5.73651
20
-3.26819
11
5.73635
21
-3.26812
0
LINE
8
BLACK
6
CONTINUOUS
10
5.73635
20
-3.26812
11
5.73447
21
-3.26624
0
LINE
8
BLACK
6
CONTINUOUS
10
5.73447
20
-3.26624
11
5.73389
21
-3.2654
0
LINE
8
BLACK
6
CONTINUOUS
10
5.73389
20
-3.2654
11
5.73371
21
-3.26339
0
LINE
8
BLACK
6
CONTINUOUS
10
5.73371
20
-3.26339
11
5.73487
21
-3.26174
0
LINE
8
BLACK
6
CONTINUOUS
10
5.73487
20
-3.26174
11
5.73682
21
-3.26122
0
LINE
8
BLACK
6
CONTINUOUS
10
5.73682
20
-3.26122
11
5.73865
21
-3.26207
0
LINE
8
BLACK
6
CONTINUOUS
10
5.73865
20
-3.26207
11
5.74003
21
-3.26345
0
LINE
8
BLACK
6
CONTINUOUS
10
5.74003
20
-3.26345
11
5.74454
21
-3.26495
0
LINE
8
BLACK
6
CONTINUOUS
10
5.74454
20
-3.26495
11
5.74733
21
-3.26495
0
LINE
8
BLACK
6
CONTINUOUS
10
5.74733
20
-3.26495
11
5.75184
21
-3.26345
0
LINE
8
BLACK
6
CONTINUOUS
10
5.75184
20
-3.26345
11
5.75476
21
-3.26053
0
LINE
8
BLACK
6
CONTINUOUS
10
5.75476
20
-3.26053
11
5.75627
21
-3.2575
0
LINE
8
BLACK
6
CONTINUOUS
10
5.75627
20
-3.2575
11
5.75798
21
-3.25067
0
LINE
8
BLACK
6
CONTINUOUS
10
5.75798
20
-3.25067
11
5.75798
21
-3.24577
0
LINE
8
BLACK
6
CONTINUOUS
10
5.75798
20
-3.24577
11
5.75627
21
-3.23894
0
LINE
8
BLACK
6
CONTINUOUS
10
5.75627
20
-3.23894
11
5.75476
21
-3.23591
0
LINE
8
BLACK
6
CONTINUOUS
10
5.75476
20
-3.23591
11
5.75184
21
-3.23299
0
LINE
8
BLACK
6
CONTINUOUS
10
5.75184
20
-3.23299
11
5.74733
21
-3.23149
0
LINE
8
BLACK
6
CONTINUOUS
10
5.74733
20
-3.23149
11
5.74454
21
-3.23149
0
LINE
8
BLACK
6
CONTINUOUS
10
5.74454
20
-3.23149
11
5.74003
21
-3.23299
0
LINE
8
BLACK
6
CONTINUOUS
10
5.74003
20
-3.23299
11
5.73865
21
-3.23437
0
LINE
8
BLACK
6
CONTINUOUS
10
5.73865
20
-3.23437
11
5.73781
21
-3.23496
0
LINE
8
BLACK
6
CONTINUOUS
10
5.73781
20
-3.23496
11
5.7358
21
-3.23514
0
LINE
8
BLACK
6
CONTINUOUS
10
5.7358
20
-3.23514
11
5.73414
21
-3.23398
0
LINE
8
BLACK
6
CONTINUOUS
10
5.73414
20
-3.23398
11
5.73362
21
-3.23203
0
LINE
8
BLACK
6
CONTINUOUS
10
5.73362
20
-3.23203
11
5.73447
21
-3.2302
0
LINE
8
BLACK
6
CONTINUOUS
10
5.73447
20
-3.2302
11
5.73635
21
-3.22832
0
LINE
8
BLACK
6
CONTINUOUS
10
5.73635
20
-3.22832
11
5.73719
21
-3.22773
0
LINE
8
BLACK
6
CONTINUOUS
10
5.73719
20
-3.22773
11
5.73736
21
-3.22772
0
LINE
8
BLACK
6
CONTINUOUS
10
5.73736
20
-3.22772
11
5.7375
21
-3.22761
0
LINE
8
BLACK
6
CONTINUOUS
10
5.7375
20
-3.22761
11
5.74313
21
-3.22573
0
LINE
8
BLACK
6
CONTINUOUS
10
5.74313
20
-3.22573
11
5.744
21
-3.22561
0
LINE
8
BLACK
6
CONTINUOUS
10
5.744
20
-3.22561
11
5.74406
21
-3.22558
0
LINE
8
BLACK
6
CONTINUOUS
10
5.74406
20
-3.22558
11
5.74781
21
-3.22558
0
LINE
8
BLACK
6
CONTINUOUS
10
5.74781
20
-3.22558
11
5.74868
21
-3.22574
0
LINE
8
BLACK
6
CONTINUOUS
10
5.64196
20
-3.21939
11
5.64265
21
-3.22106
0
LINE
8
BLACK
6
CONTINUOUS
10
5.64265
20
-3.22106
11
5.64196
21
-3.22273
0
LINE
8
BLACK
6
CONTINUOUS
10
5.64196
20
-3.22273
11
5.64029
21
-3.22343
0
LINE
8
BLACK
6
CONTINUOUS
10
5.64029
20
-3.22343
11
5.61971
21
-3.22343
0
LINE
8
BLACK
6
CONTINUOUS
10
5.61971
20
-3.22343
11
5.61804
21
-3.22273
0
LINE
8
BLACK
6
CONTINUOUS
10
5.61804
20
-3.22273
11
5.61735
21
-3.22106
0
LINE
8
BLACK
6
CONTINUOUS
10
5.61735
20
-3.22106
11
5.61804
21
-3.21939
0
LINE
8
BLACK
6
CONTINUOUS
10
5.61804
20
-3.21939
11
5.61971
21
-3.2187
0
LINE
8
BLACK
6
CONTINUOUS
10
5.61971
20
-3.2187
11
5.64029
21
-3.2187
0
LINE
8
BLACK
6
CONTINUOUS
10
5.64029
20
-3.2187
11
5.64196
21
-3.21939
0
LINE
8
BLACK
6
CONTINUOUS
10
5.64455
20
-3.19727
11
5.64525
21
-3.19894
0
LINE
8
BLACK
6
CONTINUOUS
10
5.64525
20
-3.19894
11
5.64455
21
-3.20061
0
LINE
8
BLACK
6
CONTINUOUS
10
5.64455
20
-3.20061
11
5.64288
21
-3.2013
0
LINE
8
BLACK
6
CONTINUOUS
10
5.64288
20
-3.2013
11
5.62231
21
-3.2013
0
LINE
8
BLACK
6
CONTINUOUS
10
5.62231
20
-3.2013
11
5.62064
21
-3.20061
0
LINE
8
BLACK
6
CONTINUOUS
10
5.62064
20
-3.20061
11
5.61995
21
-3.19894
0
LINE
8
BLACK
6
CONTINUOUS
10
5.61995
20
-3.19894
11
5.62064
21
-3.19727
0
LINE
8
BLACK
6
CONTINUOUS
10
5.62064
20
-3.19727
11
5.62231
21
-3.19657
0
LINE
8
BLACK
6
CONTINUOUS
10
5.62231
20
-3.19657
11
5.64288
21
-3.19657
0
LINE
8
BLACK
6
CONTINUOUS
10
5.64288
20
-3.19657
11
5.64455
21
-3.19727
0
LINE
8
BLACK
6
CONTINUOUS
10
5.71097
20
-3.14571
11
5.71114
21
-3.1457
0
LINE
8
BLACK
6
CONTINUOUS
10
5.71114
20
-3.1457
11
5.71183
21
-3.14621
0
LINE
8
BLACK
6
CONTINUOUS
10
5.71183
20
-3.14621
11
5.71258
21
-3.14664
0
LINE
8
BLACK
6
CONTINUOUS
10
5.71258
20
-3.14664
11
5.71263
21
-3.1468
0
LINE
8
BLACK
6
CONTINUOUS
10
5.71263
20
-3.1468
11
5.71277
21
-3.1469
0
LINE
8
BLACK
6
CONTINUOUS
10
5.71277
20
-3.1469
11
5.71636
21
-3.15228
0
LINE
8
BLACK
6
CONTINUOUS
10
5.71636
20
-3.15228
11
5.71956
21
-3.15548
0
LINE
8
BLACK
6
CONTINUOUS
10
5.71956
20
-3.15548
11
5.72288
21
-3.15714
0
LINE
8
BLACK
6
CONTINUOUS
10
5.72288
20
-3.15714
11
5.72371
21
-3.15775
0
LINE
8
BLACK
6
CONTINUOUS
10
5.72371
20
-3.15775
11
5.72451
21
-3.15961
0
LINE
8
BLACK
6
CONTINUOUS
10
5.72451
20
-3.15961
11
5.72394
21
-3.16154
0
LINE
8
BLACK
6
CONTINUOUS
10
5.72394
20
-3.16154
11
5.72225
21
-3.16266
0
LINE
8
BLACK
6
CONTINUOUS
10
5.72225
20
-3.16266
11
5.72024
21
-3.16243
0
LINE
8
BLACK
6
CONTINUOUS
10
5.72024
20
-3.16243
11
5.71649
21
-3.16055
0
LINE
8
BLACK
6
CONTINUOUS
10
5.71649
20
-3.16055
11
5.71578
21
-3.16003
0
LINE
8
BLACK
6
CONTINUOUS
10
5.71578
20
-3.16003
11
5.71573
21
-3.16
0
LINE
8
BLACK
6
CONTINUOUS
10
5.71573
20
-3.16
11
5.71327
21
-3.15754
0
LINE
8
BLACK
6
CONTINUOUS
10
5.71327
20
-3.15754
11
5.71327
21
-3.18495
0
LINE
8
BLACK
6
CONTINUOUS
10
5.71327
20
-3.18495
11
5.72156
21
-3.18495
0
LINE
8
BLACK
6
CONTINUOUS
10
5.72156
20
-3.18495
11
5.72257
21
-3.18513
0
LINE
8
BLACK
6
CONTINUOUS
10
5.72257
20
-3.18513
11
5.72412
21
-3.18643
0
LINE
8
BLACK
6
CONTINUOUS
10
5.72412
20
-3.18643
11
5.72447
21
-3.18842
0
LINE
8
BLACK
6
CONTINUOUS
10
5.72447
20
-3.18842
11
5.72346
21
-3.19017
0
LINE
8
BLACK
6
CONTINUOUS
10
5.72346
20
-3.19017
11
5.72156
21
-3.19086
0
LINE
8
BLACK
6
CONTINUOUS
10
5.72156
20
-3.19086
11
5.69907
21
-3.19086
0
LINE
8
BLACK
6
CONTINUOUS
10
5.69907
20
-3.19086
11
5.69806
21
-3.19068
0
LINE
8
BLACK
6
CONTINUOUS
10
5.69806
20
-3.19068
11
5.69651
21
-3.18938
0
LINE
8
BLACK
6
CONTINUOUS
10
5.69651
20
-3.18938
11
5.69616
21
-3.18739
0
LINE
8
BLACK
6
CONTINUOUS
10
5.69616
20
-3.18739
11
5.69717
21
-3.18564
0
LINE
8
BLACK
6
CONTINUOUS
10
5.69717
20
-3.18564
11
5.69907
21
-3.18495
0
LINE
8
BLACK
6
CONTINUOUS
10
5.69907
20
-3.18495
11
5.70736
21
-3.18495
0
LINE
8
BLACK
6
CONTINUOUS
10
5.70736
20
-3.18495
11
5.70736
21
-3.14854
0
LINE
8
BLACK
6
CONTINUOUS
10
5.70736
20
-3.14854
11
5.70754
21
-3.14753
0
LINE
8
BLACK
6
CONTINUOUS
10
5.70754
20
-3.14753
11
5.70765
21
-3.1474
0
LINE
8
BLACK
6
CONTINUOUS
10
5.70765
20
-3.1474
11
5.70767
21
-3.14723
0
LINE
8
BLACK
6
CONTINUOUS
10
5.70767
20
-3.14723
11
5.70829
21
-3.14664
0
LINE
8
BLACK
6
CONTINUOUS
10
5.70829
20
-3.14664
11
5.70884
21
-3.14598
0
LINE
8
BLACK
6
CONTINUOUS
10
5.70884
20
-3.14598
11
5.70901
21
-3.14595
0
LINE
8
BLACK
6
CONTINUOUS
10
5.70901
20
-3.14595
11
5.70913
21
-3.14583
0
LINE
8
BLACK
6
CONTINUOUS
10
5.70913
20
-3.14583
11
5.70998
21
-3.14578
0
LINE
8
BLACK
6
CONTINUOUS
10
5.70998
20
-3.14578
11
5.71083
21
-3.14563
0
LINE
8
BLACK
6
CONTINUOUS
10
5.71083
20
-3.14563
11
5.71097
21
-3.14571
0
LINE
8
BLACK
6
CONTINUOUS
10
5.74868
20
-3.14574
11
5.74874
21
-3.14573
0
LINE
8
BLACK
6
CONTINUOUS
10
5.74874
20
-3.14573
11
5.75437
21
-3.14761
0
LINE
8
BLACK
6
CONTINUOUS
10
5.75437
20
-3.14761
11
5.75527
21
-3.1481
0
LINE
8
BLACK
6
CONTINUOUS
10
5.75527
20
-3.1481
11
5.75536
21
-3.14825
0
LINE
8
BLACK
6
CONTINUOUS
10
5.75536
20
-3.14825
11
5.75552
21
-3.14832
0
LINE
8
BLACK
6
CONTINUOUS
10
5.75552
20
-3.14832
11
5.75927
21
-3.15207
0
LINE
8
BLACK
6
CONTINUOUS
10
5.75927
20
-3.15207
11
5.75978
21
-3.1528
0
LINE
8
BLACK
6
CONTINUOUS
10
5.75978
20
-3.1528
11
5.75983
21
-3.15284
0
LINE
8
BLACK
6
CONTINUOUS
10
5.75983
20
-3.15284
11
5.7617
21
-3.15659
0
LINE
8
BLACK
6
CONTINUOUS
10
5.7617
20
-3.15659
11
5.76185
21
-3.15708
0
LINE
8
BLACK
6
CONTINUOUS
10
5.76185
20
-3.15708
11
5.76192
21
-3.15719
0
LINE
8
BLACK
6
CONTINUOUS
10
5.76192
20
-3.15719
11
5.7638
21
-3.16469
0
LINE
8
BLACK
6
CONTINUOUS
10
5.7638
20
-3.16469
11
5.76384
21
-3.16528
0
LINE
8
BLACK
6
CONTINUOUS
10
5.76384
20
-3.16528
11
5.76389
21
-3.16541
0
LINE
8
BLACK
6
CONTINUOUS
10
5.76389
20
-3.16541
11
5.76389
21
-3.17103
0
LINE
8
BLACK
6
CONTINUOUS
10
5.76389
20
-3.17103
11
5.76378
21
-3.17161
0
LINE
8
BLACK
6
CONTINUOUS
10
5.76378
20
-3.17161
11
5.7638
21
-3.17175
0
LINE
8
BLACK
6
CONTINUOUS
10
5.7638
20
-3.17175
11
5.76192
21
-3.17925
0
LINE
8
BLACK
6
CONTINUOUS
10
5.76192
20
-3.17925
11
5.76172
21
-3.17971
0
LINE
8
BLACK
6
CONTINUOUS
10
5.76172
20
-3.17971
11
5.7617
21
-3.17985
0
LINE
8
BLACK
6
CONTINUOUS
10
5.7617
20
-3.17985
11
5.75983
21
-3.1836
0
LINE
8
BLACK
6
CONTINUOUS
10
5.75983
20
-3.1836
11
5.7593
21
-3.18431
0
LINE
8
BLACK
6
CONTINUOUS
10
5.7593
20
-3.18431
11
5.75927
21
-3.18437
0
LINE
8
BLACK
6
CONTINUOUS
10
5.75927
20
-3.18437
11
5.75552
21
-3.18812
0
LINE
8
BLACK
6
CONTINUOUS
10
5.75552
20
-3.18812
11
5.75468
21
-3.18871
0
LINE
8
BLACK
6
CONTINUOUS
10
5.75468
20
-3.18871
11
5.75451
21
-3.18872
0
LINE
8
BLACK
6
CONTINUOUS
10
5.75451
20
-3.18872
11
5.75437
21
-3.18883
0
LINE
8
BLACK
6
CONTINUOUS
10
5.75437
20
-3.18883
11
5.74874
21
-3.19071
0
LINE
8
BLACK
6
CONTINUOUS
10
5.74874
20
-3.19071
11
5.74787
21
-3.19084
0
LINE
8
BLACK
6
CONTINUOUS
10
5.74787
20
-3.19084
11
5.74781
21
-3.19086
0
LINE
8
BLACK
6
CONTINUOUS
10
5.74781
20
-3.19086
11
5.74406
21
-3.19086
0
LINE
8
BLACK
6
CONTINUOUS
10
5.74406
20
-3.19086
11
5.74319
21
-3.19071
0
LINE
8
BLACK
6
CONTINUOUS
10
5.74319
20
-3.19071
11
5.74313
21
-3.19071
0
LINE
8
BLACK
6
CONTINUOUS
10
5.74313
20
-3.19071
11
5.7375
21
-3.18883
0
LINE
8
BLACK
6
CONTINUOUS
10
5.7375
20
-3.18883
11
5.7366
21
-3.18834
0
LINE
8
BLACK
6
CONTINUOUS
10
5.7366
20
-3.18834
11
5.73651
21
-3.18819
0
LINE
8
BLACK
6
CONTINUOUS
10
5.73651
20
-3.18819
11
5.73635
21
-3.18812
0
LINE
8
BLACK
6
CONTINUOUS
10
5.73635
20
-3.18812
11
5.73447
21
-3.18624
0
LINE
8
BLACK
6
CONTINUOUS
10
5.73447
20
-3.18624
11
5.73389
21
-3.1854
0
LINE
8
BLACK
6
CONTINUOUS
10
5.73389
20
-3.1854
11
5.73371
21
-3.18339
0
LINE
8
BLACK
6
CONTINUOUS
10
5.73371
20
-3.18339
11
5.73487
21
-3.18174
0
LINE
8
BLACK
6
CONTINUOUS
10
5.73487
20
-3.18174
11
5.73682
21
-3.18122
0
LINE
8
BLACK
6
CONTINUOUS
10
5.73682
20
-3.18122
11
5.73865
21
-3.18207
0
LINE
8
BLACK
6
CONTINUOUS
10
5.73865
20
-3.18207
11
5.74003
21
-3.18345
0
LINE
8
BLACK
6
CONTINUOUS
10
5.74003
20
-3.18345
11
5.74454
21
-3.18495
0
LINE
8
BLACK
6
CONTINUOUS
10
5.74454
20
-3.18495
11
5.74733
21
-3.18495
0
LINE
8
BLACK
6
CONTINUOUS
10
5.74733
20
-3.18495
11
5.75184
21
-3.18345
0
LINE
8
BLACK
6
CONTINUOUS
10
5.75184
20
-3.18345
11
5.75476
21
-3.18053
0
LINE
8
BLACK
6
CONTINUOUS
10
5.75476
20
-3.18053
11
5.75627
21
-3.1775
0
LINE
8
BLACK
6
CONTINUOUS
10
5.75627
20
-3.1775
11
5.75798
21
-3.17067
0
LINE
8
BLACK
6
CONTINUOUS
10
5.75798
20
-3.17067
11
5.75798
21
-3.16577
0
LINE
8
BLACK
6
CONTINUOUS
10
5.75798
20
-3.16577
11
5.75627
21
-3.15894
0
LINE
8
BLACK
6
CONTINUOUS
10
5.75627
20
-3.15894
11
5.75476
21
-3.15591
0
LINE
8
BLACK
6
CONTINUOUS
10
5.75476
20
-3.15591
11
5.75184
21
-3.15299
0
LINE
8
BLACK
6
CONTINUOUS
10
5.75184
20
-3.15299
11
5.74733
21
-3.15149
0
LINE
8
BLACK
6
CONTINUOUS
10
5.74733
20
-3.15149
11
5.74454
21
-3.15149
0
LINE
8
BLACK
6
CONTINUOUS
10
5.74454
20
-3.15149
11
5.74003
21
-3.15299
0
LINE
8
BLACK
6
CONTINUOUS
10
5.74003
20
-3.15299
11
5.73865
21
-3.15437
0
LINE
8
BLACK
6
CONTINUOUS
10
5.73865
20
-3.15437
11
5.73781
21
-3.15496
0
LINE
8
BLACK
6
CONTINUOUS
10
5.73781
20
-3.15496
11
5.7358
21
-3.15514
0
LINE
8
BLACK
6
CONTINUOUS
10
5.7358
20
-3.15514
11
5.73414
21
-3.15398
0
LINE
8
BLACK
6
CONTINUOUS
10
5.73414
20
-3.15398
11
5.73362
21
-3.15203
0
LINE
8
BLACK
6
CONTINUOUS
10
5.73362
20
-3.15203
11
5.73447
21
-3.1502
0
LINE
8
BLACK
6
CONTINUOUS
10
5.73447
20
-3.1502
11
5.73635
21
-3.14832
0
LINE
8
BLACK
6
CONTINUOUS
10
5.73635
20
-3.14832
11
5.73719
21
-3.14773
0
LINE
8
BLACK
6
CONTINUOUS
10
5.73719
20
-3.14773
11
5.73736
21
-3.14772
0
LINE
8
BLACK
6
CONTINUOUS
10
5.73736
20
-3.14772
11
5.7375
21
-3.14761
0
LINE
8
BLACK
6
CONTINUOUS
10
5.7375
20
-3.14761
11
5.74313
21
-3.14573
0
LINE
8
BLACK
6
CONTINUOUS
10
5.74313
20
-3.14573
11
5.744
21
-3.14561
0
LINE
8
BLACK
6
CONTINUOUS
10
5.744
20
-3.14561
11
5.74406
21
-3.14558
0
LINE
8
BLACK
6
CONTINUOUS
10
5.74406
20
-3.14558
11
5.74781
21
-3.14558
0
LINE
8
BLACK
6
CONTINUOUS
10
5.74781
20
-3.14558
11
5.74868
21
-3.14574
0
LINE
8
BLACK
6
CONTINUOUS
10
5.64455
20
-3.13939
11
5.64525
21
-3.14106
0
LINE
8
BLACK
6
CONTINUOUS
10
5.64525
20
-3.14106
11
5.64455
21
-3.14273
0
LINE
8
BLACK
6
CONTINUOUS
10
5.64455
20
-3.14273
11
5.64288
21
-3.14343
0
LINE
8
BLACK
6
CONTINUOUS
10
5.64288
20
-3.14343
11
5.62231
21
-3.14343
0
LINE
8
BLACK
6
CONTINUOUS
10
5.62231
20
-3.14343
11
5.62064
21
-3.14273
0
LINE
8
BLACK
6
CONTINUOUS
10
5.62064
20
-3.14273
11
5.61995
21
-3.14106
0
LINE
8
BLACK
6
CONTINUOUS
10
5.61995
20
-3.14106
11
5.62064
21
-3.13939
0
LINE
8
BLACK
6
CONTINUOUS
10
5.62064
20
-3.13939
11
5.62231
21
-3.1387
0
LINE
8
BLACK
6
CONTINUOUS
10
5.62231
20
-3.1387
11
5.64288
21
-3.1387
0
LINE
8
BLACK
6
CONTINUOUS
10
5.64288
20
-3.1387
11
5.64455
21
-3.13939
0
CIRCLE
8
BLACK
10
5.4
20
-3.8
40
0.00688976
0
CIRCLE
8
BLACK
10
5.81
20
-3.2
40
0.00688976
0
CIRCLE
8
BLACK
10
5.91
20
-3.2
40
0.00688976
0
CIRCLE
8
BLACK
10
5.81
20
-3.3
40
0.00688976
0
CIRCLE
8
BLACK
10
5.91
20
-3.3
40
0.00688976
0
CIRCLE
8
BLACK
10
5.81
20
-3.4
40
0.00688976
0
CIRCLE
8
BLACK
10
5.91
20
-3.4
40
0.00688976
0
CIRCLE
8
BLACK
10
5.81
20
-3.5
40
0.00688976
0
CIRCLE
8
BLACK
10
5.91
20
-3.5
40
0.00688976
0
CIRCLE
8
BLACK
10
5.81
20
-3.6
40
0.00688976
0
CIRCLE
8
BLACK
10
5.91
20
-3.6
40
0.00688976
0
CIRCLE
8
BLACK
10
5.8
20
-3
40
0.00688976
0
CIRCLE
8
BLACK
10
5.4
20
-3
40
0.00688976
0
CIRCLE
8
BLACK
10
5.8
20
-3.8
40
0.00688976
0
CIRCLE
8
BLACK
10
5.29
20
-3.4
40
0.00688976
0
CIRCLE
8
BLACK
10
5.39
20
-3.4
40
0.00688976
0
CIRCLE
8
BLACK
10
5.29
20
-3.5
40
0.00688976
0
CIRCLE
8
BLACK
10
5.39
20
-3.5
40
0.00688976
0
CIRCLE
8
BLACK
10
5.29
20
-3.6
40
0.00688976
0
CIRCLE
8
BLACK
10
5.39
20
-3.6
40
0.00688976
  0
ENDSEC
  0
EOF
