  0
SECTION
  2
HEADER
  9
$ANGBASE
  50
0.0
  9
$ANGDIR
  70
1
  9
$MEASUREMENT
  70
0
  0
ENDSEC
  0
SECTION
  2
TABLES
  0
TABLE
  2
LTYPE
  70
4
  0
LTYPE
  5
40F
  2
CONTINUOUS
  70
0
  3
Solid line
  72
65
  73
0
  40
0.0
  0
LTYPE
  5
410
  2
DASHDOT
 70
0
  3
Dash Dot ____ _ ____ _
 72
65
 73
4
 40
2.0
 49
1.25
 49
-0.25
 49
0.25
 49
-0.25
  0
LTYPE
  5
411
  2
DASHED
 70
0
  3
Dashed __ __ __ __ __
 72
65
 73
2
 40
0.75
 49
0.5
 49
-0.25
  0
LTYPE
  5
43B
  2
DOTTED
 70
0
  3
Dotted .  .  .  .
 72
65
 73
2
 40
0.2
 49
0.0
 49
-0.2
  0
ENDTAB
  0
TABLE
  2
STYLE
  70
4
  0
STYLE
  2
KICAD
  70
0
  40
0
  41
1
  42
1
  50
0
  71
0
  3
isocp.shx
  0
STYLE
  2
KICADB
  70
0
  40
0
  41
1
  42
1
  50
0
  71
0
  3
isocp.shx
  0
STYLE
  2
KICADI
  70
0
  40
0
  41
1
  42
1
  50
15
  71
0
  3
isocp.shx
  0
STYLE
  2
KICADBI
  70
0
  40
0
  41
1
  42
1
  50
15
  71
0
  3
isocp.shx
  0
ENDTAB
  0
TABLE
  2
LAYER
  70
1
  0
LAYER
  2
BLACK
  70
0
  62
7
  6
CONTINUOUS
  0
ENDTAB
  0
ENDSEC
  0
SECTION
  2
ENTITIES
0
LINE
8
BLACK
6
CONTINUOUS
10
5.84
20
-3.39508
11
5.88
21
-3.39508
0
LINE
8
BLACK
6
CONTINUOUS
10
5.88
20
-3.39508
11
5.88
21
-3.37
0
LINE
8
BLACK
6
CONTINUOUS
10
5.88
20
-3.37
11
5.94
21
-3.37
0
LINE
8
BLACK
6
CONTINUOUS
10
5.94
20
-3.37
11
5.94
21
-3.43
0
LINE
8
BLACK
6
CONTINUOUS
10
5.94
20
-3.43
11
5.88
21
-3.43
0
LINE
8
BLACK
6
CONTINUOUS
10
5.88
20
-3.43
11
5.88
21
-3.40492
0
LINE
8
BLACK
6
CONTINUOUS
10
5.88
20
-3.40492
11
5.84
21
-3.40492
0
LINE
8
BLACK
6
CONTINUOUS
10
5.84
20
-3.40492
11
5.84
21
-3.43
0
LINE
8
BLACK
6
CONTINUOUS
10
5.84
20
-3.43
11
5.78696
21
-3.43
0
LINE
8
BLACK
6
CONTINUOUS
10
5.78696
20
-3.43
11
5.77348
21
-3.44348
0
LINE
8
BLACK
6
CONTINUOUS
10
5.77348
20
-3.44348
11
5.77278
21
-3.44401
0
LINE
8
BLACK
6
CONTINUOUS
10
5.77278
20
-3.44401
11
5.77266
21
-3.44414
0
LINE
8
BLACK
6
CONTINUOUS
10
5.77266
20
-3.44414
11
5.77256
21
-3.44417
0
LINE
8
BLACK
6
CONTINUOUS
10
5.77256
20
-3.44417
11
5.77236
21
-3.44432
0
LINE
8
BLACK
6
CONTINUOUS
10
5.77236
20
-3.44432
11
5.77117
21
-3.44458
0
LINE
8
BLACK
6
CONTINUOUS
10
5.77117
20
-3.44458
11
5.77
21
-3.44492
0
LINE
8
BLACK
6
CONTINUOUS
10
5.77
20
-3.44492
11
5.66204
21
-3.44492
0
LINE
8
BLACK
6
CONTINUOUS
10
5.66204
20
-3.44492
11
5.57992
21
-3.52704
0
LINE
8
BLACK
6
CONTINUOUS
10
5.57992
20
-3.52704
11
5.57992
21
-3.59689
0
LINE
8
BLACK
6
CONTINUOUS
10
5.57992
20
-3.59689
11
5.5878
21
-3.59689
0
LINE
8
BLACK
6
CONTINUOUS
10
5.5878
20
-3.59689
11
5.5878
21
-3.66185
0
LINE
8
BLACK
6
CONTINUOUS
10
5.5878
20
-3.66185
11
5.5622
21
-3.66185
0
LINE
8
BLACK
6
CONTINUOUS
10
5.5622
20
-3.66185
11
5.5622
21
-3.59689
0
LINE
8
BLACK
6
CONTINUOUS
10
5.5622
20
-3.59689
11
5.57008
21
-3.59689
0
LINE
8
BLACK
6
CONTINUOUS
10
5.57008
20
-3.59689
11
5.57008
21
-3.525
0
LINE
8
BLACK
6
CONTINUOUS
10
5.57008
20
-3.525
11
5.5702
21
-3.52413
0
LINE
8
BLACK
6
CONTINUOUS
10
5.5702
20
-3.52413
11
5.57019
21
-3.52395
0
LINE
8
BLACK
6
CONTINUOUS
10
5.57019
20
-3.52395
11
5.57024
21
-3.52386
0
LINE
8
BLACK
6
CONTINUOUS
10
5.57024
20
-3.52386
11
5.57028
21
-3.52361
0
LINE
8
BLACK
6
CONTINUOUS
10
5.57028
20
-3.52361
11
5.57094
21
-3.52259
0
LINE
8
BLACK
6
CONTINUOUS
10
5.57094
20
-3.52259
11
5.57152
21
-3.52152
0
LINE
8
BLACK
6
CONTINUOUS
10
5.57152
20
-3.52152
11
5.65652
21
-3.43652
0
LINE
8
BLACK
6
CONTINUOUS
10
5.65652
20
-3.43652
11
5.65722
21
-3.43599
0
LINE
8
BLACK
6
CONTINUOUS
10
5.65722
20
-3.43599
11
5.65734
21
-3.43586
0
LINE
8
BLACK
6
CONTINUOUS
10
5.65734
20
-3.43586
11
5.65744
21
-3.43583
0
LINE
8
BLACK
6
CONTINUOUS
10
5.65744
20
-3.43583
11
5.65764
21
-3.43568
0
LINE
8
BLACK
6
CONTINUOUS
10
5.65764
20
-3.43568
11
5.65883
21
-3.43542
0
LINE
8
BLACK
6
CONTINUOUS
10
5.65883
20
-3.43542
11
5.66
21
-3.43508
0
LINE
8
BLACK
6
CONTINUOUS
10
5.66
20
-3.43508
11
5.76796
21
-3.43508
0
LINE
8
BLACK
6
CONTINUOUS
10
5.76796
20
-3.43508
11
5.78
21
-3.42304
0
LINE
8
BLACK
6
CONTINUOUS
10
5.78
20
-3.42304
11
5.78
21
-3.37
0
LINE
8
BLACK
6
CONTINUOUS
10
5.78
20
-3.37
11
5.84
21
-3.37
0
LINE
8
BLACK
6
CONTINUOUS
10
5.84
20
-3.37
11
5.84
21
-3.39508
0
LINE
8
BLACK
6
CONTINUOUS
10
5.84
20
-3.49508
11
5.88
21
-3.49508
0
LINE
8
BLACK
6
CONTINUOUS
10
5.88
20
-3.49508
11
5.88
21
-3.47
0
LINE
8
BLACK
6
CONTINUOUS
10
5.88
20
-3.47
11
5.94
21
-3.47
0
LINE
8
BLACK
6
CONTINUOUS
10
5.94
20
-3.47
11
5.94
21
-3.53
0
LINE
8
BLACK
6
CONTINUOUS
10
5.94
20
-3.53
11
5.88
21
-3.53
0
LINE
8
BLACK
6
CONTINUOUS
10
5.88
20
-3.53
11
5.88
21
-3.50492
0
LINE
8
BLACK
6
CONTINUOUS
10
5.88
20
-3.50492
11
5.84
21
-3.50492
0
LINE
8
BLACK
6
CONTINUOUS
10
5.84
20
-3.50492
11
5.84
21
-3.53
0
LINE
8
BLACK
6
CONTINUOUS
10
5.84
20
-3.53
11
5.78
21
-3.53
0
LINE
8
BLACK
6
CONTINUOUS
10
5.78
20
-3.53
11
5.78
21
-3.50492
0
LINE
8
BLACK
6
CONTINUOUS
10
5.78
20
-3.50492
11
5.69204
21
-3.50492
0
LINE
8
BLACK
6
CONTINUOUS
10
5.69204
20
-3.50492
11
5.62992
21
-3.56704
0
LINE
8
BLACK
6
CONTINUOUS
10
5.62992
20
-3.56704
11
5.62992
21
-3.59689
0
LINE
8
BLACK
6
CONTINUOUS
10
5.62992
20
-3.59689
11
5.6378
21
-3.59689
0
LINE
8
BLACK
6
CONTINUOUS
10
5.6378
20
-3.59689
11
5.6378
21
-3.66185
0
LINE
8
BLACK
6
CONTINUOUS
10
5.6378
20
-3.66185
11
5.6122
21
-3.66185
0
LINE
8
BLACK
6
CONTINUOUS
10
5.6122
20
-3.66185
11
5.6122
21
-3.59689
0
LINE
8
BLACK
6
CONTINUOUS
10
5.6122
20
-3.59689
11
5.62008
21
-3.59689
0
LINE
8
BLACK
6
CONTINUOUS
10
5.62008
20
-3.59689
11
5.62008
21
-3.565
0
LINE
8
BLACK
6
CONTINUOUS
10
5.62008
20
-3.565
11
5.6202
21
-3.56413
0
LINE
8
BLACK
6
CONTINUOUS
10
5.6202
20
-3.56413
11
5.62019
21
-3.56395
0
LINE
8
BLACK
6
CONTINUOUS
10
5.62019
20
-3.56395
11
5.62024
21
-3.56386
0
LINE
8
BLACK
6
CONTINUOUS
10
5.62024
20
-3.56386
11
5.62028
21
-3.56361
0
LINE
8
BLACK
6
CONTINUOUS
10
5.62028
20
-3.56361
11
5.62094
21
-3.56259
0
LINE
8
BLACK
6
CONTINUOUS
10
5.62094
20
-3.56259
11
5.62152
21
-3.56152
0
LINE
8
BLACK
6
CONTINUOUS
10
5.62152
20
-3.56152
11
5.68652
21
-3.49652
0
LINE
8
BLACK
6
CONTINUOUS
10
5.68652
20
-3.49652
11
5.68722
21
-3.49599
0
LINE
8
BLACK
6
CONTINUOUS
10
5.68722
20
-3.49599
11
5.68734
21
-3.49586
0
LINE
8
BLACK
6
CONTINUOUS
10
5.68734
20
-3.49586
11
5.68744
21
-3.49583
0
LINE
8
BLACK
6
CONTINUOUS
10
5.68744
20
-3.49583
11
5.68764
21
-3.49568
0
LINE
8
BLACK
6
CONTINUOUS
10
5.68764
20
-3.49568
11
5.68883
21
-3.49542
0
LINE
8
BLACK
6
CONTINUOUS
10
5.68883
20
-3.49542
11
5.69
21
-3.49508
0
LINE
8
BLACK
6
CONTINUOUS
10
5.69
20
-3.49508
11
5.78
21
-3.49508
0
LINE
8
BLACK
6
CONTINUOUS
10
5.78
20
-3.49508
11
5.78
21
-3.47
0
LINE
8
BLACK
6
CONTINUOUS
10
5.78
20
-3.47
11
5.84
21
-3.47
0
LINE
8
BLACK
6
CONTINUOUS
10
5.84
20
-3.47
11
5.84
21
-3.49508
0
LINE
8
BLACK
6
CONTINUOUS
10
5.84
20
-3.59508
11
5.88
21
-3.59508
0
LINE
8
BLACK
6
CONTINUOUS
10
5.88
20
-3.59508
11
5.88
21
-3.57
0
LINE
8
BLACK
6
CONTINUOUS
10
5.88
20
-3.57
11
5.94
21
-3.57
0
LINE
8
BLACK
6
CONTINUOUS
10
5.94
20
-3.57
11
5.94
21
-3.63
0
LINE
8
BLACK
6
CONTINUOUS
10
5.94
20
-3.63
11
5.88
21
-3.63
0
LINE
8
BLACK
6
CONTINUOUS
10
5.88
20
-3.63
11
5.88
21
-3.60492
0
LINE
8
BLACK
6
CONTINUOUS
10
5.88
20
-3.60492
11
5.84
21
-3.60492
0
LINE
8
BLACK
6
CONTINUOUS
10
5.84
20
-3.60492
11
5.84
21
-3.63
0
LINE
8
BLACK
6
CONTINUOUS
10
5.84
20
-3.63
11
5.78
21
-3.63
0
LINE
8
BLACK
6
CONTINUOUS
10
5.78
20
-3.63
11
5.78
21
-3.60492
0
LINE
8
BLACK
6
CONTINUOUS
10
5.78
20
-3.60492
11
5.74204
21
-3.60492
0
LINE
8
BLACK
6
CONTINUOUS
10
5.74204
20
-3.60492
11
5.71411
21
-3.63285
0
LINE
8
BLACK
6
CONTINUOUS
10
5.71411
20
-3.63285
11
5.71341
21
-3.63338
0
LINE
8
BLACK
6
CONTINUOUS
10
5.71341
20
-3.63338
11
5.71329
21
-3.63351
0
LINE
8
BLACK
6
CONTINUOUS
10
5.71329
20
-3.63351
11
5.71319
21
-3.63354
0
LINE
8
BLACK
6
CONTINUOUS
10
5.71319
20
-3.63354
11
5.71299
21
-3.63369
0
LINE
8
BLACK
6
CONTINUOUS
10
5.71299
20
-3.63369
11
5.7118
21
-3.63395
0
LINE
8
BLACK
6
CONTINUOUS
10
5.7118
20
-3.63395
11
5.71063
21
-3.63429
0
LINE
8
BLACK
6
CONTINUOUS
10
5.71063
20
-3.63429
11
5.6878
21
-3.63429
0
LINE
8
BLACK
6
CONTINUOUS
10
5.6878
20
-3.63429
11
5.6878
21
-3.66185
0
LINE
8
BLACK
6
CONTINUOUS
10
5.6878
20
-3.66185
11
5.6622
21
-3.66185
0
LINE
8
BLACK
6
CONTINUOUS
10
5.6622
20
-3.66185
11
5.6622
21
-3.59689
0
LINE
8
BLACK
6
CONTINUOUS
10
5.6622
20
-3.59689
11
5.6878
21
-3.59689
0
LINE
8
BLACK
6
CONTINUOUS
10
5.6878
20
-3.59689
11
5.6878
21
-3.62445
0
LINE
8
BLACK
6
CONTINUOUS
10
5.6878
20
-3.62445
11
5.70859
21
-3.62445
0
LINE
8
BLACK
6
CONTINUOUS
10
5.70859
20
-3.62445
11
5.73652
21
-3.59652
0
LINE
8
BLACK
6
CONTINUOUS
10
5.73652
20
-3.59652
11
5.73722
21
-3.59599
0
LINE
8
BLACK
6
CONTINUOUS
10
5.73722
20
-3.59599
11
5.73734
21
-3.59586
0
LINE
8
BLACK
6
CONTINUOUS
10
5.73734
20
-3.59586
11
5.73744
21
-3.59583
0
LINE
8
BLACK
6
CONTINUOUS
10
5.73744
20
-3.59583
11
5.73764
21
-3.59568
0
LINE
8
BLACK
6
CONTINUOUS
10
5.73764
20
-3.59568
11
5.73883
21
-3.59542
0
LINE
8
BLACK
6
CONTINUOUS
10
5.73883
20
-3.59542
11
5.74
21
-3.59508
0
LINE
8
BLACK
6
CONTINUOUS
10
5.74
20
-3.59508
11
5.78
21
-3.59508
0
LINE
8
BLACK
6
CONTINUOUS
10
5.78
20
-3.59508
11
5.78
21
-3.57
0
LINE
8
BLACK
6
CONTINUOUS
10
5.78
20
-3.57
11
5.84
21
-3.57
0
LINE
8
BLACK
6
CONTINUOUS
10
5.84
20
-3.57
11
5.84
21
-3.59508
0
LINE
8
BLACK
6
CONTINUOUS
10
5.65123
20
-3.09278
11
5.65248
21
-3.09292
0
LINE
8
BLACK
6
CONTINUOUS
10
5.65248
20
-3.09292
11
5.65284
21
-3.09315
0
LINE
8
BLACK
6
CONTINUOUS
10
5.65284
20
-3.09315
11
5.65325
21
-3.09324
0
LINE
8
BLACK
6
CONTINUOUS
10
5.65325
20
-3.09324
11
5.65424
21
-3.09403
0
LINE
8
BLACK
6
CONTINUOUS
10
5.65424
20
-3.09403
11
5.6553
21
-3.0947
0
LINE
8
BLACK
6
CONTINUOUS
10
5.6553
20
-3.0947
11
5.6753
21
-3.1147
0
LINE
8
BLACK
6
CONTINUOUS
10
5.6753
20
-3.1147
11
5.67597
21
-3.11576
0
LINE
8
BLACK
6
CONTINUOUS
10
5.67597
20
-3.11576
11
5.67676
21
-3.11675
0
LINE
8
BLACK
6
CONTINUOUS
10
5.67676
20
-3.11675
11
5.67685
21
-3.11716
0
LINE
8
BLACK
6
CONTINUOUS
10
5.67685
20
-3.11716
11
5.67708
21
-3.11752
0
LINE
8
BLACK
6
CONTINUOUS
10
5.67708
20
-3.11752
11
5.67722
21
-3.11877
0
LINE
8
BLACK
6
CONTINUOUS
10
5.67722
20
-3.11877
11
5.6775
21
-3.12
0
LINE
8
BLACK
6
CONTINUOUS
10
5.6775
20
-3.12
11
5.6775
21
-3.14146
0
LINE
8
BLACK
6
CONTINUOUS
10
5.6775
20
-3.14146
11
5.67984
21
-3.14146
0
LINE
8
BLACK
6
CONTINUOUS
10
5.67984
20
-3.14146
11
5.68361
21
-3.14221
0
LINE
8
BLACK
6
CONTINUOUS
10
5.68361
20
-3.14221
11
5.6868
21
-3.14434
0
LINE
8
BLACK
6
CONTINUOUS
10
5.6868
20
-3.14434
11
5.68894
21
-3.14753
0
LINE
8
BLACK
6
CONTINUOUS
10
5.68894
20
-3.14753
11
5.68969
21
-3.1513
0
LINE
8
BLACK
6
CONTINUOUS
10
5.68969
20
-3.1513
11
5.68969
21
-3.1887
0
LINE
8
BLACK
6
CONTINUOUS
10
5.68969
20
-3.1887
11
5.68894
21
-3.19247
0
LINE
8
BLACK
6
CONTINUOUS
10
5.68894
20
-3.19247
11
5.6868
21
-3.19566
0
LINE
8
BLACK
6
CONTINUOUS
10
5.6868
20
-3.19566
11
5.68361
21
-3.19779
0
LINE
8
BLACK
6
CONTINUOUS
10
5.68361
20
-3.19779
11
5.67984
21
-3.19854
0
LINE
8
BLACK
6
CONTINUOUS
10
5.67984
20
-3.19854
11
5.6775
21
-3.19854
0
LINE
8
BLACK
6
CONTINUOUS
10
5.6775
20
-3.19854
11
5.6775
21
-3.22151
0
LINE
8
BLACK
6
CONTINUOUS
10
5.6775
20
-3.22151
11
5.68101
21
-3.22221
0
LINE
8
BLACK
6
CONTINUOUS
10
5.68101
20
-3.22221
11
5.6842
21
-3.22434
0
LINE
8
BLACK
6
CONTINUOUS
10
5.6842
20
-3.22434
11
5.68634
21
-3.22753
0
LINE
8
BLACK
6
CONTINUOUS
10
5.68634
20
-3.22753
11
5.68709
21
-3.2313
0
LINE
8
BLACK
6
CONTINUOUS
10
5.68709
20
-3.2313
11
5.68709
21
-3.2687
0
LINE
8
BLACK
6
CONTINUOUS
10
5.68709
20
-3.2687
11
5.68634
21
-3.27247
0
LINE
8
BLACK
6
CONTINUOUS
10
5.68634
20
-3.27247
11
5.6842
21
-3.27566
0
LINE
8
BLACK
6
CONTINUOUS
10
5.6842
20
-3.27566
11
5.68101
21
-3.27779
0
LINE
8
BLACK
6
CONTINUOUS
10
5.68101
20
-3.27779
11
5.67724
21
-3.27854
0
LINE
8
BLACK
6
CONTINUOUS
10
5.67724
20
-3.27854
11
5.6749
21
-3.27854
0
LINE
8
BLACK
6
CONTINUOUS
10
5.6749
20
-3.27854
11
5.6749
21
-3.30752
0
LINE
8
BLACK
6
CONTINUOUS
10
5.6749
20
-3.30752
11
5.6878
21
-3.30752
0
LINE
8
BLACK
6
CONTINUOUS
10
5.6878
20
-3.30752
11
5.6878
21
-3.37248
0
LINE
8
BLACK
6
CONTINUOUS
10
5.6878
20
-3.37248
11
5.6622
21
-3.37248
0
LINE
8
BLACK
6
CONTINUOUS
10
5.6622
20
-3.37248
11
5.6622
21
-3.33781
0
LINE
8
BLACK
6
CONTINUOUS
10
5.6622
20
-3.33781
11
5.6621
21
-3.3377
0
LINE
8
BLACK
6
CONTINUOUS
10
5.6621
20
-3.3377
11
5.66143
21
-3.33664
0
LINE
8
BLACK
6
CONTINUOUS
10
5.66143
20
-3.33664
11
5.66064
21
-3.33566
0
LINE
8
BLACK
6
CONTINUOUS
10
5.66064
20
-3.33566
11
5.66055
21
-3.33524
0
LINE
8
BLACK
6
CONTINUOUS
10
5.66055
20
-3.33524
11
5.66032
21
-3.33488
0
LINE
8
BLACK
6
CONTINUOUS
10
5.66032
20
-3.33488
11
5.66018
21
-3.33363
0
LINE
8
BLACK
6
CONTINUOUS
10
5.66018
20
-3.33363
11
5.6599
21
-3.3324
0
LINE
8
BLACK
6
CONTINUOUS
10
5.6599
20
-3.3324
11
5.6599
21
-3.27854
0
LINE
8
BLACK
6
CONTINUOUS
10
5.6599
20
-3.27854
11
5.65756
21
-3.27854
0
LINE
8
BLACK
6
CONTINUOUS
10
5.65756
20
-3.27854
11
5.65379
21
-3.27779
0
LINE
8
BLACK
6
CONTINUOUS
10
5.65379
20
-3.27779
11
5.6506
21
-3.27566
0
LINE
8
BLACK
6
CONTINUOUS
10
5.6506
20
-3.27566
11
5.64847
21
-3.27247
0
LINE
8
BLACK
6
CONTINUOUS
10
5.64847
20
-3.27247
11
5.64772
21
-3.2687
0
LINE
8
BLACK
6
CONTINUOUS
10
5.64772
20
-3.2687
11
5.64772
21
-3.2313
0
LINE
8
BLACK
6
CONTINUOUS
10
5.64772
20
-3.2313
11
5.64847
21
-3.22753
0
LINE
8
BLACK
6
CONTINUOUS
10
5.64847
20
-3.22753
11
5.6506
21
-3.22434
0
LINE
8
BLACK
6
CONTINUOUS
10
5.6506
20
-3.22434
11
5.65379
21
-3.22221
0
LINE
8
BLACK
6
CONTINUOUS
10
5.65379
20
-3.22221
11
5.65756
21
-3.22146
0
LINE
8
BLACK
6
CONTINUOUS
10
5.65756
20
-3.22146
11
5.6625
21
-3.22146
0
LINE
8
BLACK
6
CONTINUOUS
10
5.6625
20
-3.22146
11
5.6625
21
-3.19854
0
LINE
8
BLACK
6
CONTINUOUS
10
5.6625
20
-3.19854
11
5.66016
21
-3.19854
0
LINE
8
BLACK
6
CONTINUOUS
10
5.66016
20
-3.19854
11
5.65639
21
-3.19779
0
LINE
8
BLACK
6
CONTINUOUS
10
5.65639
20
-3.19779
11
5.6532
21
-3.19566
0
LINE
8
BLACK
6
CONTINUOUS
10
5.6532
20
-3.19566
11
5.65106
21
-3.19247
0
LINE
8
BLACK
6
CONTINUOUS
10
5.65106
20
-3.19247
11
5.65031
21
-3.1887
0
LINE
8
BLACK
6
CONTINUOUS
10
5.65031
20
-3.1887
11
5.65031
21
-3.1513
0
LINE
8
BLACK
6
CONTINUOUS
10
5.65031
20
-3.1513
11
5.65106
21
-3.14753
0
LINE
8
BLACK
6
CONTINUOUS
10
5.65106
20
-3.14753
11
5.6532
21
-3.14434
0
LINE
8
BLACK
6
CONTINUOUS
10
5.6532
20
-3.14434
11
5.65639
21
-3.14221
0
LINE
8
BLACK
6
CONTINUOUS
10
5.65639
20
-3.14221
11
5.66016
21
-3.14146
0
LINE
8
BLACK
6
CONTINUOUS
10
5.66016
20
-3.14146
11
5.6625
21
-3.14146
0
LINE
8
BLACK
6
CONTINUOUS
10
5.6625
20
-3.14146
11
5.6625
21
-3.12311
0
LINE
8
BLACK
6
CONTINUOUS
10
5.6625
20
-3.12311
11
5.64689
21
-3.1075
0
LINE
8
BLACK
6
CONTINUOUS
10
5.64689
20
-3.1075
11
5.54311
21
-3.1075
0
LINE
8
BLACK
6
CONTINUOUS
10
5.54311
20
-3.1075
11
5.4953
21
-3.1553
0
LINE
8
BLACK
6
CONTINUOUS
10
5.4953
20
-3.1553
11
5.49424
21
-3.15597
0
LINE
8
BLACK
6
CONTINUOUS
10
5.49424
20
-3.15597
11
5.49325
21
-3.15676
0
LINE
8
BLACK
6
CONTINUOUS
10
5.49325
20
-3.15676
11
5.49284
21
-3.15685
0
LINE
8
BLACK
6
CONTINUOUS
10
5.49284
20
-3.15685
11
5.49248
21
-3.15708
0
LINE
8
BLACK
6
CONTINUOUS
10
5.49248
20
-3.15708
11
5.49123
21
-3.15722
0
LINE
8
BLACK
6
CONTINUOUS
10
5.49123
20
-3.15722
11
5.49
21
-3.1575
0
LINE
8
BLACK
6
CONTINUOUS
10
5.49
20
-3.1575
11
5.47311
21
-3.1575
0
LINE
8
BLACK
6
CONTINUOUS
10
5.47311
20
-3.1575
11
5.45624
21
-3.17437
0
LINE
8
BLACK
6
CONTINUOUS
10
5.45624
20
-3.17437
11
5.45624
21
-3.18457
0
LINE
8
BLACK
6
CONTINUOUS
10
5.45624
20
-3.18457
11
5.50921
21
-3.18457
0
LINE
8
BLACK
6
CONTINUOUS
10
5.50921
20
-3.18457
11
5.50921
21
-3.25543
0
LINE
8
BLACK
6
CONTINUOUS
10
5.50921
20
-3.25543
11
5.45624
21
-3.25543
0
LINE
8
BLACK
6
CONTINUOUS
10
5.45624
20
-3.25543
11
5.45624
21
-3.44126
0
LINE
8
BLACK
6
CONTINUOUS
10
5.45624
20
-3.44126
11
5.45596
21
-3.44249
0
LINE
8
BLACK
6
CONTINUOUS
10
5.45596
20
-3.44249
11
5.45582
21
-3.44374
0
LINE
8
BLACK
6
CONTINUOUS
10
5.45582
20
-3.44374
11
5.45559
21
-3.4441
0
LINE
8
BLACK
6
CONTINUOUS
10
5.45559
20
-3.4441
11
5.4555
21
-3.44451
0
LINE
8
BLACK
6
CONTINUOUS
10
5.4555
20
-3.44451
11
5.45471
21
-3.4455
0
LINE
8
BLACK
6
CONTINUOUS
10
5.45471
20
-3.4455
11
5.45404
21
-3.44656
0
LINE
8
BLACK
6
CONTINUOUS
10
5.45404
20
-3.44656
11
5.42
21
-3.48061
0
LINE
8
BLACK
6
CONTINUOUS
10
5.42
20
-3.48061
11
5.42
21
-3.53
0
LINE
8
BLACK
6
CONTINUOUS
10
5.42
20
-3.53
11
5.36
21
-3.53
0
LINE
8
BLACK
6
CONTINUOUS
10
5.36
20
-3.53
11
5.36
21
-3.5075
0
LINE
8
BLACK
6
CONTINUOUS
10
5.36
20
-3.5075
11
5.32
21
-3.5075
0
LINE
8
BLACK
6
CONTINUOUS
10
5.32
20
-3.5075
11
5.32
21
-3.53
0
LINE
8
BLACK
6
CONTINUOUS
10
5.32
20
-3.53
11
5.26
21
-3.53
0
LINE
8
BLACK
6
CONTINUOUS
10
5.26
20
-3.53
11
5.26
21
-3.47
0
LINE
8
BLACK
6
CONTINUOUS
10
5.26
20
-3.47
11
5.32
21
-3.47
0
LINE
8
BLACK
6
CONTINUOUS
10
5.32
20
-3.47
11
5.32
21
-3.4925
0
LINE
8
BLACK
6
CONTINUOUS
10
5.32
20
-3.4925
11
5.36
21
-3.4925
0
LINE
8
BLACK
6
CONTINUOUS
10
5.36
20
-3.4925
11
5.36
21
-3.47
0
LINE
8
BLACK
6
CONTINUOUS
10
5.36
20
-3.47
11
5.40939
21
-3.47
0
LINE
8
BLACK
6
CONTINUOUS
10
5.40939
20
-3.47
11
5.44124
21
-3.43815
0
LINE
8
BLACK
6
CONTINUOUS
10
5.44124
20
-3.43815
11
5.44124
21
-3.25543
0
LINE
8
BLACK
6
CONTINUOUS
10
5.44124
20
-3.25543
11
5.41079
21
-3.25543
0
LINE
8
BLACK
6
CONTINUOUS
10
5.41079
20
-3.25543
11
5.41079
21
-3.18457
0
LINE
8
BLACK
6
CONTINUOUS
10
5.41079
20
-3.18457
11
5.44124
21
-3.18457
0
LINE
8
BLACK
6
CONTINUOUS
10
5.44124
20
-3.18457
11
5.44124
21
-3.17126
0
LINE
8
BLACK
6
CONTINUOUS
10
5.44124
20
-3.17126
11
5.44152
21
-3.17003
0
LINE
8
BLACK
6
CONTINUOUS
10
5.44152
20
-3.17003
11
5.44166
21
-3.16878
0
LINE
8
BLACK
6
CONTINUOUS
10
5.44166
20
-3.16878
11
5.44189
21
-3.16842
0
LINE
8
BLACK
6
CONTINUOUS
10
5.44189
20
-3.16842
11
5.44198
21
-3.16801
0
LINE
8
BLACK
6
CONTINUOUS
10
5.44198
20
-3.16801
11
5.44277
21
-3.16702
0
LINE
8
BLACK
6
CONTINUOUS
10
5.44277
20
-3.16702
11
5.44344
21
-3.16596
0
LINE
8
BLACK
6
CONTINUOUS
10
5.44344
20
-3.16596
11
5.4647
21
-3.1447
0
LINE
8
BLACK
6
CONTINUOUS
10
5.4647
20
-3.1447
11
5.46576
21
-3.14403
0
LINE
8
BLACK
6
CONTINUOUS
10
5.46576
20
-3.14403
11
5.46675
21
-3.14324
0
LINE
8
BLACK
6
CONTINUOUS
10
5.46675
20
-3.14324
11
5.46716
21
-3.14315
0
LINE
8
BLACK
6
CONTINUOUS
10
5.46716
20
-3.14315
11
5.46752
21
-3.14292
0
LINE
8
BLACK
6
CONTINUOUS
10
5.46752
20
-3.14292
11
5.46877
21
-3.14278
0
LINE
8
BLACK
6
CONTINUOUS
10
5.46877
20
-3.14278
11
5.47
21
-3.1425
0
LINE
8
BLACK
6
CONTINUOUS
10
5.47
20
-3.1425
11
5.48689
21
-3.1425
0
LINE
8
BLACK
6
CONTINUOUS
10
5.48689
20
-3.1425
11
5.5347
21
-3.0947
0
LINE
8
BLACK
6
CONTINUOUS
10
5.5347
20
-3.0947
11
5.53576
21
-3.09403
0
LINE
8
BLACK
6
CONTINUOUS
10
5.53576
20
-3.09403
11
5.53675
21
-3.09324
0
LINE
8
BLACK
6
CONTINUOUS
10
5.53675
20
-3.09324
11
5.53716
21
-3.09315
0
LINE
8
BLACK
6
CONTINUOUS
10
5.53716
20
-3.09315
11
5.53752
21
-3.09292
0
LINE
8
BLACK
6
CONTINUOUS
10
5.53752
20
-3.09292
11
5.53877
21
-3.09278
0
LINE
8
BLACK
6
CONTINUOUS
10
5.53877
20
-3.09278
11
5.54
21
-3.0925
0
LINE
8
BLACK
6
CONTINUOUS
10
5.54
20
-3.0925
11
5.65
21
-3.0925
0
LINE
8
BLACK
6
CONTINUOUS
10
5.65
20
-3.0925
11
5.65123
21
-3.09278
0
LINE
8
BLACK
6
CONTINUOUS
10
5.84
20
-3.29508
11
5.88
21
-3.29508
0
LINE
8
BLACK
6
CONTINUOUS
10
5.88
20
-3.29508
11
5.88
21
-3.27
0
LINE
8
BLACK
6
CONTINUOUS
10
5.88
20
-3.27
11
5.94
21
-3.27
0
LINE
8
BLACK
6
CONTINUOUS
10
5.94
20
-3.27
11
5.94
21
-3.33
0
LINE
8
BLACK
6
CONTINUOUS
10
5.94
20
-3.33
11
5.88
21
-3.33
0
LINE
8
BLACK
6
CONTINUOUS
10
5.88
20
-3.33
11
5.88
21
-3.30492
0
LINE
8
BLACK
6
CONTINUOUS
10
5.88
20
-3.30492
11
5.84
21
-3.30492
0
LINE
8
BLACK
6
CONTINUOUS
10
5.84
20
-3.30492
11
5.84
21
-3.33
0
LINE
8
BLACK
6
CONTINUOUS
10
5.84
20
-3.33
11
5.78
21
-3.33
0
LINE
8
BLACK
6
CONTINUOUS
10
5.78
20
-3.33
11
5.78
21
-3.30492
0
LINE
8
BLACK
6
CONTINUOUS
10
5.78
20
-3.30492
11
5.76204
21
-3.30492
0
LINE
8
BLACK
6
CONTINUOUS
10
5.76204
20
-3.30492
11
5.74492
21
-3.32204
0
LINE
8
BLACK
6
CONTINUOUS
10
5.74492
20
-3.32204
11
5.74492
21
-3.37092
0
LINE
8
BLACK
6
CONTINUOUS
10
5.74492
20
-3.37092
11
5.7448
21
-3.37179
0
LINE
8
BLACK
6
CONTINUOUS
10
5.7448
20
-3.37179
11
5.74481
21
-3.37197
0
LINE
8
BLACK
6
CONTINUOUS
10
5.74481
20
-3.37197
11
5.74476
21
-3.37206
0
LINE
8
BLACK
6
CONTINUOUS
10
5.74476
20
-3.37206
11
5.74472
21
-3.37231
0
LINE
8
BLACK
6
CONTINUOUS
10
5.74472
20
-3.37231
11
5.74406
21
-3.37333
0
LINE
8
BLACK
6
CONTINUOUS
10
5.74406
20
-3.37333
11
5.74348
21
-3.3744
0
LINE
8
BLACK
6
CONTINUOUS
10
5.74348
20
-3.3744
11
5.69668
21
-3.4212
0
LINE
8
BLACK
6
CONTINUOUS
10
5.69668
20
-3.4212
11
5.69598
21
-3.42172
0
LINE
8
BLACK
6
CONTINUOUS
10
5.69598
20
-3.42172
11
5.69587
21
-3.42186
0
LINE
8
BLACK
6
CONTINUOUS
10
5.69587
20
-3.42186
11
5.69576
21
-3.42189
0
LINE
8
BLACK
6
CONTINUOUS
10
5.69576
20
-3.42189
11
5.69556
21
-3.42204
0
LINE
8
BLACK
6
CONTINUOUS
10
5.69556
20
-3.42204
11
5.69437
21
-3.42229
0
LINE
8
BLACK
6
CONTINUOUS
10
5.69437
20
-3.42229
11
5.6932
21
-3.42264
0
LINE
8
BLACK
6
CONTINUOUS
10
5.6932
20
-3.42264
11
5.58303
21
-3.42264
0
LINE
8
BLACK
6
CONTINUOUS
10
5.58303
20
-3.42264
11
5.58216
21
-3.42251
0
LINE
8
BLACK
6
CONTINUOUS
10
5.58216
20
-3.42251
11
5.58199
21
-3.42253
0
LINE
8
BLACK
6
CONTINUOUS
10
5.58199
20
-3.42253
11
5.58189
21
-3.42247
0
LINE
8
BLACK
6
CONTINUOUS
10
5.58189
20
-3.42247
11
5.58164
21
-3.42244
0
LINE
8
BLACK
6
CONTINUOUS
10
5.58164
20
-3.42244
11
5.58062
21
-3.42178
0
LINE
8
BLACK
6
CONTINUOUS
10
5.58062
20
-3.42178
11
5.57955
21
-3.4212
0
LINE
8
BLACK
6
CONTINUOUS
10
5.57955
20
-3.4212
11
5.53084
21
-3.37248
0
LINE
8
BLACK
6
CONTINUOUS
10
5.53084
20
-3.37248
11
5.5122
21
-3.37248
0
LINE
8
BLACK
6
CONTINUOUS
10
5.5122
20
-3.37248
11
5.5122
21
-3.30752
0
LINE
8
BLACK
6
CONTINUOUS
10
5.5122
20
-3.30752
11
5.5378
21
-3.30752
0
LINE
8
BLACK
6
CONTINUOUS
10
5.5378
20
-3.30752
11
5.5378
21
-3.36552
0
LINE
8
BLACK
6
CONTINUOUS
10
5.5378
20
-3.36552
11
5.58507
21
-3.4128
0
LINE
8
BLACK
6
CONTINUOUS
10
5.58507
20
-3.4128
11
5.69117
21
-3.4128
0
LINE
8
BLACK
6
CONTINUOUS
10
5.69117
20
-3.4128
11
5.73508
21
-3.36888
0
LINE
8
BLACK
6
CONTINUOUS
10
5.73508
20
-3.36888
11
5.73508
21
-3.32
0
LINE
8
BLACK
6
CONTINUOUS
10
5.73508
20
-3.32
11
5.7352
21
-3.31913
0
LINE
8
BLACK
6
CONTINUOUS
10
5.7352
20
-3.31913
11
5.73519
21
-3.31895
0
LINE
8
BLACK
6
CONTINUOUS
10
5.73519
20
-3.31895
11
5.73524
21
-3.31886
0
LINE
8
BLACK
6
CONTINUOUS
10
5.73524
20
-3.31886
11
5.73528
21
-3.31861
0
LINE
8
BLACK
6
CONTINUOUS
10
5.73528
20
-3.31861
11
5.73594
21
-3.31759
0
LINE
8
BLACK
6
CONTINUOUS
10
5.73594
20
-3.31759
11
5.73652
21
-3.31652
0
LINE
8
BLACK
6
CONTINUOUS
10
5.73652
20
-3.31652
11
5.75652
21
-3.29652
0
LINE
8
BLACK
6
CONTINUOUS
10
5.75652
20
-3.29652
11
5.75722
21
-3.29599
0
LINE
8
BLACK
6
CONTINUOUS
10
5.75722
20
-3.29599
11
5.75734
21
-3.29586
0
LINE
8
BLACK
6
CONTINUOUS
10
5.75734
20
-3.29586
11
5.75744
21
-3.29583
0
LINE
8
BLACK
6
CONTINUOUS
10
5.75744
20
-3.29583
11
5.75764
21
-3.29568
0
LINE
8
BLACK
6
CONTINUOUS
10
5.75764
20
-3.29568
11
5.75883
21
-3.29542
0
LINE
8
BLACK
6
CONTINUOUS
10
5.75883
20
-3.29542
11
5.76
21
-3.29508
0
LINE
8
BLACK
6
CONTINUOUS
10
5.76
20
-3.29508
11
5.78
21
-3.29508
0
LINE
8
BLACK
6
CONTINUOUS
10
5.78
20
-3.29508
11
5.78
21
-3.27
0
LINE
8
BLACK
6
CONTINUOUS
10
5.78
20
-3.27
11
5.84
21
-3.27
0
LINE
8
BLACK
6
CONTINUOUS
10
5.84
20
-3.27
11
5.84
21
-3.29508
0
LINE
8
BLACK
6
CONTINUOUS
10
5.84
20
-3.19508
11
5.88
21
-3.19508
0
LINE
8
BLACK
6
CONTINUOUS
10
5.88
20
-3.19508
11
5.88
21
-3.17
0
LINE
8
BLACK
6
CONTINUOUS
10
5.88
20
-3.17
11
5.94
21
-3.17
0
LINE
8
BLACK
6
CONTINUOUS
10
5.94
20
-3.17
11
5.94
21
-3.23
0
LINE
8
BLACK
6
CONTINUOUS
10
5.94
20
-3.23
11
5.88
21
-3.23
0
LINE
8
BLACK
6
CONTINUOUS
10
5.88
20
-3.23
11
5.88
21
-3.20492
0
LINE
8
BLACK
6
CONTINUOUS
10
5.88
20
-3.20492
11
5.84
21
-3.20492
0
LINE
8
BLACK
6
CONTINUOUS
10
5.84
20
-3.20492
11
5.84
21
-3.23
0
LINE
8
BLACK
6
CONTINUOUS
10
5.84
20
-3.23
11
5.78
21
-3.23
0
LINE
8
BLACK
6
CONTINUOUS
10
5.78
20
-3.23
11
5.78
21
-3.20492
0
LINE
8
BLACK
6
CONTINUOUS
10
5.78
20
-3.20492
11
5.76204
21
-3.20492
0
LINE
8
BLACK
6
CONTINUOUS
10
5.76204
20
-3.20492
11
5.71492
21
-3.25204
0
LINE
8
BLACK
6
CONTINUOUS
10
5.71492
20
-3.25204
11
5.71492
21
-3.37587
0
LINE
8
BLACK
6
CONTINUOUS
10
5.71492
20
-3.37587
11
5.7148
21
-3.37674
0
LINE
8
BLACK
6
CONTINUOUS
10
5.7148
20
-3.37674
11
5.71481
21
-3.37691
0
LINE
8
BLACK
6
CONTINUOUS
10
5.71481
20
-3.37691
11
5.71476
21
-3.37701
0
LINE
8
BLACK
6
CONTINUOUS
10
5.71476
20
-3.37701
11
5.71472
21
-3.37725
0
LINE
8
BLACK
6
CONTINUOUS
10
5.71472
20
-3.37725
11
5.71406
21
-3.37828
0
LINE
8
BLACK
6
CONTINUOUS
10
5.71406
20
-3.37828
11
5.71348
21
-3.37935
0
LINE
8
BLACK
6
CONTINUOUS
10
5.71348
20
-3.37935
11
5.68935
21
-3.40348
0
LINE
8
BLACK
6
CONTINUOUS
10
5.68935
20
-3.40348
11
5.68864
21
-3.40401
0
LINE
8
BLACK
6
CONTINUOUS
10
5.68864
20
-3.40401
11
5.68853
21
-3.40414
0
LINE
8
BLACK
6
CONTINUOUS
10
5.68853
20
-3.40414
11
5.68842
21
-3.40417
0
LINE
8
BLACK
6
CONTINUOUS
10
5.68842
20
-3.40417
11
5.68822
21
-3.40432
0
LINE
8
BLACK
6
CONTINUOUS
10
5.68822
20
-3.40432
11
5.68703
21
-3.40458
0
LINE
8
BLACK
6
CONTINUOUS
10
5.68703
20
-3.40458
11
5.68587
21
-3.40492
0
LINE
8
BLACK
6
CONTINUOUS
10
5.68587
20
-3.40492
11
5.61
21
-3.40492
0
LINE
8
BLACK
6
CONTINUOUS
10
5.61
20
-3.40492
11
5.60913
21
-3.4048
0
LINE
8
BLACK
6
CONTINUOUS
10
5.60913
20
-3.4048
11
5.60895
21
-3.40481
0
LINE
8
BLACK
6
CONTINUOUS
10
5.60895
20
-3.40481
11
5.60886
21
-3.40476
0
LINE
8
BLACK
6
CONTINUOUS
10
5.60886
20
-3.40476
11
5.60861
21
-3.40472
0
LINE
8
BLACK
6
CONTINUOUS
10
5.60861
20
-3.40472
11
5.60759
21
-3.40406
0
LINE
8
BLACK
6
CONTINUOUS
10
5.60759
20
-3.40406
11
5.60652
21
-3.40348
0
LINE
8
BLACK
6
CONTINUOUS
10
5.60652
20
-3.40348
11
5.57552
21
-3.37248
0
LINE
8
BLACK
6
CONTINUOUS
10
5.57552
20
-3.37248
11
5.5622
21
-3.37248
0
LINE
8
BLACK
6
CONTINUOUS
10
5.5622
20
-3.37248
11
5.5622
21
-3.30752
0
LINE
8
BLACK
6
CONTINUOUS
10
5.5622
20
-3.30752
11
5.5878
21
-3.30752
0
LINE
8
BLACK
6
CONTINUOUS
10
5.5878
20
-3.30752
11
5.5878
21
-3.37084
0
LINE
8
BLACK
6
CONTINUOUS
10
5.5878
20
-3.37084
11
5.61204
21
-3.39508
0
LINE
8
BLACK
6
CONTINUOUS
10
5.61204
20
-3.39508
11
5.68383
21
-3.39508
0
LINE
8
BLACK
6
CONTINUOUS
10
5.68383
20
-3.39508
11
5.70508
21
-3.37383
0
LINE
8
BLACK
6
CONTINUOUS
10
5.70508
20
-3.37383
11
5.70508
21
-3.25
0
LINE
8
BLACK
6
CONTINUOUS
10
5.70508
20
-3.25
11
5.7052
21
-3.24913
0
LINE
8
BLACK
6
CONTINUOUS
10
5.7052
20
-3.24913
11
5.70519
21
-3.24895
0
LINE
8
BLACK
6
CONTINUOUS
10
5.70519
20
-3.24895
11
5.70524
21
-3.24886
0
LINE
8
BLACK
6
CONTINUOUS
10
5.70524
20
-3.24886
11
5.70528
21
-3.24861
0
LINE
8
BLACK
6
CONTINUOUS
10
5.70528
20
-3.24861
11
5.70594
21
-3.24759
0
LINE
8
BLACK
6
CONTINUOUS
10
5.70594
20
-3.24759
11
5.70652
21
-3.24652
0
LINE
8
BLACK
6
CONTINUOUS
10
5.70652
20
-3.24652
11
5.75652
21
-3.19652
0
LINE
8
BLACK
6
CONTINUOUS
10
5.75652
20
-3.19652
11
5.75722
21
-3.19599
0
LINE
8
BLACK
6
CONTINUOUS
10
5.75722
20
-3.19599
11
5.75734
21
-3.19586
0
LINE
8
BLACK
6
CONTINUOUS
10
5.75734
20
-3.19586
11
5.75744
21
-3.19583
0
LINE
8
BLACK
6
CONTINUOUS
10
5.75744
20
-3.19583
11
5.75764
21
-3.19568
0
LINE
8
BLACK
6
CONTINUOUS
10
5.75764
20
-3.19568
11
5.75883
21
-3.19542
0
LINE
8
BLACK
6
CONTINUOUS
10
5.75883
20
-3.19542
11
5.76
21
-3.19508
0
LINE
8
BLACK
6
CONTINUOUS
10
5.76
20
-3.19508
11
5.78
21
-3.19508
0
LINE
8
BLACK
6
CONTINUOUS
10
5.78
20
-3.19508
11
5.78
21
-3.17
0
LINE
8
BLACK
6
CONTINUOUS
10
5.78
20
-3.17
11
5.84
21
-3.17
0
LINE
8
BLACK
6
CONTINUOUS
10
5.84
20
-3.17
11
5.84
21
-3.19508
0
LINE
8
BLACK
6
CONTINUOUS
10
5.6378
20
-3.37248
11
5.6122
21
-3.37248
0
LINE
8
BLACK
6
CONTINUOUS
10
5.6122
20
-3.37248
11
5.6122
21
-3.30752
0
LINE
8
BLACK
6
CONTINUOUS
10
5.6122
20
-3.30752
11
5.6378
21
-3.30752
0
LINE
8
BLACK
6
CONTINUOUS
10
5.6378
20
-3.30752
11
5.6378
21
-3.37248
0
LINE
8
BLACK
6
CONTINUOUS
10
5.96776
20
-2.83078
11
5.96956
21
-2.83285
0
LINE
8
BLACK
6
CONTINUOUS
10
5.96956
20
-2.83285
11
5.97
21
-2.83488
0
LINE
8
BLACK
6
CONTINUOUS
10
5.97
20
-2.83488
11
5.97
21
-3.96512
0
LINE
8
BLACK
6
CONTINUOUS
10
5.97
20
-3.96512
11
5.96922
21
-3.96776
0
LINE
8
BLACK
6
CONTINUOUS
10
5.96922
20
-3.96776
11
5.96715
21
-3.96956
0
LINE
8
BLACK
6
CONTINUOUS
10
5.96715
20
-3.96956
11
5.96512
21
-3.97
0
LINE
8
BLACK
6
CONTINUOUS
10
5.96512
20
-3.97
11
5.23488
21
-3.97
0
LINE
8
BLACK
6
CONTINUOUS
10
5.23488
20
-3.97
11
5.23224
21
-3.96922
0
LINE
8
BLACK
6
CONTINUOUS
10
5.23224
20
-3.96922
11
5.23044
21
-3.96715
0
LINE
8
BLACK
6
CONTINUOUS
10
5.23044
20
-3.96715
11
5.23
21
-3.96512
0
LINE
8
BLACK
6
CONTINUOUS
10
5.23
20
-3.96512
11
5.23
21
-3.53192
0
LINE
8
BLACK
6
CONTINUOUS
10
5.23
20
-3.53192
11
5.23
21
-3.27181
0
LINE
8
BLACK
6
CONTINUOUS
10
5.23
20
-3.27181
11
5.23077
21
-3.26917
0
LINE
8
BLACK
6
CONTINUOUS
10
5.23077
20
-3.26917
11
5.23285
21
-3.26737
0
LINE
8
BLACK
6
CONTINUOUS
10
5.23285
20
-3.26737
11
5.23558
21
-3.26698
0
LINE
8
BLACK
6
CONTINUOUS
10
5.23558
20
-3.26698
11
5.23808
21
-3.26812
0
LINE
8
BLACK
6
CONTINUOUS
10
5.23808
20
-3.26812
11
5.23879
21
-3.26889
0
LINE
8
BLACK
6
CONTINUOUS
10
5.23879
20
-3.26889
11
5.23924
21
-3.2695
0
LINE
8
BLACK
6
CONTINUOUS
10
5.23924
20
-3.2695
11
5.23924
21
-3.2695
0
LINE
8
BLACK
6
CONTINUOUS
10
5.23924
20
-3.2695
11
5.24378
21
-3.27289
0
LINE
8
BLACK
6
CONTINUOUS
10
5.24378
20
-3.27289
11
5.24378
21
-3.27289
0
LINE
8
BLACK
6
CONTINUOUS
10
5.24378
20
-3.27289
11
5.24908
21
-3.27487
0
LINE
8
BLACK
6
CONTINUOUS
10
5.24908
20
-3.27487
11
5.24908
21
-3.27487
0
LINE
8
BLACK
6
CONTINUOUS
10
5.24908
20
-3.27487
11
5.25142
21
-3.27512
0
LINE
8
BLACK
6
CONTINUOUS
10
5.25142
20
-3.27512
11
5.25142
21
-3.27512
0
LINE
8
BLACK
6
CONTINUOUS
10
5.25142
20
-3.27512
11
5.29268
21
-3.27512
0
LINE
8
BLACK
6
CONTINUOUS
10
5.29268
20
-3.27512
11
5.29268
21
-3.25543
0
LINE
8
BLACK
6
CONTINUOUS
10
5.29268
20
-3.25543
11
5.25331
21
-3.25543
0
LINE
8
BLACK
6
CONTINUOUS
10
5.25331
20
-3.25543
11
5.25331
21
-3.18457
0
LINE
8
BLACK
6
CONTINUOUS
10
5.25331
20
-3.18457
11
5.29268
21
-3.18457
0
LINE
8
BLACK
6
CONTINUOUS
10
5.29268
20
-3.18457
11
5.29268
21
-3.16488
0
LINE
8
BLACK
6
CONTINUOUS
10
5.29268
20
-3.16488
11
5.25142
21
-3.16488
0
LINE
8
BLACK
6
CONTINUOUS
10
5.25142
20
-3.16488
11
5.24908
21
-3.16513
0
LINE
8
BLACK
6
CONTINUOUS
10
5.24908
20
-3.16513
11
5.24908
21
-3.16513
0
LINE
8
BLACK
6
CONTINUOUS
10
5.24908
20
-3.16513
11
5.24378
21
-3.16711
0
LINE
8
BLACK
6
CONTINUOUS
10
5.24378
20
-3.16711
11
5.24378
21
-3.16711
0
LINE
8
BLACK
6
CONTINUOUS
10
5.24378
20
-3.16711
11
5.23924
21
-3.1705
0
LINE
8
BLACK
6
CONTINUOUS
10
5.23924
20
-3.1705
11
5.23879
21
-3.17111
0
LINE
8
BLACK
6
CONTINUOUS
10
5.23879
20
-3.17111
11
5.23659
21
-3.17276
0
LINE
8
BLACK
6
CONTINUOUS
10
5.23659
20
-3.17276
11
5.23384
21
-3.17296
0
LINE
8
BLACK
6
CONTINUOUS
10
5.23384
20
-3.17296
11
5.23143
21
-3.17164
0
LINE
8
BLACK
6
CONTINUOUS
10
5.23143
20
-3.17164
11
5.23011
21
-3.16922
0
LINE
8
BLACK
6
CONTINUOUS
10
5.23011
20
-3.16922
11
5.23
21
-3.16819
0
LINE
8
BLACK
6
CONTINUOUS
10
5.23
20
-3.16819
11
5.23
21
-2.83488
0
LINE
8
BLACK
6
CONTINUOUS
10
5.23
20
-2.83488
11
5.23077
21
-2.83224
0
LINE
8
BLACK
6
CONTINUOUS
10
5.23077
20
-2.83224
11
5.23285
21
-2.83044
0
LINE
8
BLACK
6
CONTINUOUS
10
5.23285
20
-2.83044
11
5.23488
21
-2.83
0
LINE
8
BLACK
6
CONTINUOUS
10
5.23488
20
-2.83
11
5.96512
21
-2.83
0
LINE
8
BLACK
6
CONTINUOUS
10
5.96512
20
-2.83
11
5.96776
21
-2.83078
0
LINE
8
BLACK
6
CONTINUOUS
10
5.49252
20
-3.66373
11
5.49277
21
-3.66608
0
LINE
8
BLACK
6
CONTINUOUS
10
5.49277
20
-3.66608
11
5.49277
21
-3.66608
0
LINE
8
BLACK
6
CONTINUOUS
10
5.49277
20
-3.66608
11
5.49475
21
-3.67138
0
LINE
8
BLACK
6
CONTINUOUS
10
5.49475
20
-3.67138
11
5.49475
21
-3.67138
0
LINE
8
BLACK
6
CONTINUOUS
10
5.49475
20
-3.67138
11
5.49814
21
-3.67591
0
LINE
8
BLACK
6
CONTINUOUS
10
5.49814
20
-3.67591
11
5.49814
21
-3.67591
0
LINE
8
BLACK
6
CONTINUOUS
10
5.49814
20
-3.67591
11
5.50267
21
-3.67931
0
LINE
8
BLACK
6
CONTINUOUS
10
5.50267
20
-3.67931
11
5.50267
21
-3.67931
0
LINE
8
BLACK
6
CONTINUOUS
10
5.50267
20
-3.67931
11
5.50798
21
-3.68128
0
LINE
8
BLACK
6
CONTINUOUS
10
5.50798
20
-3.68128
11
5.50798
21
-3.68128
0
LINE
8
BLACK
6
CONTINUOUS
10
5.50798
20
-3.68128
11
5.51032
21
-3.68154
0
LINE
8
BLACK
6
CONTINUOUS
10
5.51032
20
-3.68154
11
5.51032
21
-3.68154
0
LINE
8
BLACK
6
CONTINUOUS
10
5.51032
20
-3.68154
11
5.51516
21
-3.68154
0
LINE
8
BLACK
6
CONTINUOUS
10
5.51516
20
-3.68154
11
5.51516
21
-3.66185
0
LINE
8
BLACK
6
CONTINUOUS
10
5.51516
20
-3.66185
11
5.5122
21
-3.66185
0
LINE
8
BLACK
6
CONTINUOUS
10
5.5122
20
-3.66185
11
5.5122
21
-3.63921
0
LINE
8
BLACK
6
CONTINUOUS
10
5.5122
20
-3.63921
11
5.49252
21
-3.63921
0
LINE
8
BLACK
6
CONTINUOUS
10
5.49252
20
-3.63921
11
5.49252
21
-3.66373
0
LINE
8
BLACK
6
CONTINUOUS
10
5.24024
20
-3.5343
11
5.24024
21
-3.5343
0
LINE
8
BLACK
6
CONTINUOUS
10
5.24024
20
-3.5343
11
5.24225
21
-3.53969
0
LINE
8
BLACK
6
CONTINUOUS
10
5.24225
20
-3.53969
11
5.24225
21
-3.53969
0
LINE
8
BLACK
6
CONTINUOUS
10
5.24225
20
-3.53969
11
5.2457
21
-3.5443
0
LINE
8
BLACK
6
CONTINUOUS
10
5.2457
20
-3.5443
11
5.24837
21
-3.5463
0
LINE
8
BLACK
6
CONTINUOUS
10
5.24837
20
-3.5463
11
5.25002
21
-3.5485
0
LINE
8
BLACK
6
CONTINUOUS
10
5.25002
20
-3.5485
11
5.25021
21
-3.55125
0
LINE
8
BLACK
6
CONTINUOUS
10
5.25021
20
-3.55125
11
5.2489
21
-3.55366
0
LINE
8
BLACK
6
CONTINUOUS
10
5.2489
20
-3.55366
11
5.24837
21
-3.55412
0
LINE
8
BLACK
6
CONTINUOUS
10
5.24837
20
-3.55412
11
5.24594
21
-3.55594
0
LINE
8
BLACK
6
CONTINUOUS
10
5.24594
20
-3.55594
11
5.24255
21
-3.56047
0
LINE
8
BLACK
6
CONTINUOUS
10
5.24255
20
-3.56047
11
5.24255
21
-3.56047
0
LINE
8
BLACK
6
CONTINUOUS
10
5.24255
20
-3.56047
11
5.24057
21
-3.56577
0
LINE
8
BLACK
6
CONTINUOUS
10
5.24057
20
-3.56577
11
5.24057
21
-3.56577
0
LINE
8
BLACK
6
CONTINUOUS
10
5.24057
20
-3.56577
11
5.24031
21
-3.56812
0
LINE
8
BLACK
6
CONTINUOUS
10
5.24031
20
-3.56812
11
5.24031
21
-3.59016
0
LINE
8
BLACK
6
CONTINUOUS
10
5.24031
20
-3.59016
11
5.26
21
-3.59016
0
LINE
8
BLACK
6
CONTINUOUS
10
5.26
20
-3.59016
11
5.26
21
-3.57
0
LINE
8
BLACK
6
CONTINUOUS
10
5.26
20
-3.57
11
5.32
21
-3.57
0
LINE
8
BLACK
6
CONTINUOUS
10
5.32
20
-3.57
11
5.32
21
-3.59016
0
LINE
8
BLACK
6
CONTINUOUS
10
5.32
20
-3.59016
11
5.36
21
-3.59016
0
LINE
8
BLACK
6
CONTINUOUS
10
5.36
20
-3.59016
11
5.36
21
-3.57
0
LINE
8
BLACK
6
CONTINUOUS
10
5.36
20
-3.57
11
5.42
21
-3.57
0
LINE
8
BLACK
6
CONTINUOUS
10
5.42
20
-3.57
11
5.42
21
-3.59016
0
LINE
8
BLACK
6
CONTINUOUS
10
5.42
20
-3.59016
11
5.43969
21
-3.59016
0
LINE
8
BLACK
6
CONTINUOUS
10
5.43969
20
-3.59016
11
5.43969
21
-3.56812
0
LINE
8
BLACK
6
CONTINUOUS
10
5.43969
20
-3.56812
11
5.43968
21
-3.56812
0
LINE
8
BLACK
6
CONTINUOUS
10
5.43968
20
-3.56812
11
5.43943
21
-3.56577
0
LINE
8
BLACK
6
CONTINUOUS
10
5.43943
20
-3.56577
11
5.43943
21
-3.56577
0
LINE
8
BLACK
6
CONTINUOUS
10
5.43943
20
-3.56577
11
5.43745
21
-3.56047
0
LINE
8
BLACK
6
CONTINUOUS
10
5.43745
20
-3.56047
11
5.43745
21
-3.56047
0
LINE
8
BLACK
6
CONTINUOUS
10
5.43745
20
-3.56047
11
5.43406
21
-3.55594
0
LINE
8
BLACK
6
CONTINUOUS
10
5.43406
20
-3.55594
11
5.43163
21
-3.55412
0
LINE
8
BLACK
6
CONTINUOUS
10
5.43163
20
-3.55412
11
5.42998
21
-3.55191
0
LINE
8
BLACK
6
CONTINUOUS
10
5.42998
20
-3.55191
11
5.42979
21
-3.54917
0
LINE
8
BLACK
6
CONTINUOUS
10
5.42979
20
-3.54917
11
5.4311
21
-3.54676
0
LINE
8
BLACK
6
CONTINUOUS
10
5.4311
20
-3.54676
11
5.43163
21
-3.5463
0
LINE
8
BLACK
6
CONTINUOUS
10
5.43163
20
-3.5463
11
5.4343
21
-3.5443
0
LINE
8
BLACK
6
CONTINUOUS
10
5.4343
20
-3.5443
11
5.43775
21
-3.53969
0
LINE
8
BLACK
6
CONTINUOUS
10
5.43775
20
-3.53969
11
5.43976
21
-3.5343
0
LINE
8
BLACK
6
CONTINUOUS
10
5.43976
20
-3.5343
11
5.43991
21
-3.53298
0
LINE
8
BLACK
6
CONTINUOUS
10
5.43991
20
-3.53298
11
5.44002
21
-3.53192
0
LINE
8
BLACK
6
CONTINUOUS
10
5.44002
20
-3.53192
11
5.44002
21
-3.53191
0
LINE
8
BLACK
6
CONTINUOUS
10
5.44002
20
-3.53191
11
5.44002
21
-3.49092
0
LINE
8
BLACK
6
CONTINUOUS
10
5.44002
20
-3.49092
11
5.44079
21
-3.48828
0
LINE
8
BLACK
6
CONTINUOUS
10
5.44079
20
-3.48828
11
5.44145
21
-3.48747
0
LINE
8
BLACK
6
CONTINUOUS
10
5.44145
20
-3.48747
11
5.46756
21
-3.46136
0
LINE
8
BLACK
6
CONTINUOUS
10
5.46756
20
-3.46136
11
5.46767
21
-3.46126
0
LINE
8
BLACK
6
CONTINUOUS
10
5.46767
20
-3.46126
11
5.46949
21
-3.45964
0
LINE
8
BLACK
6
CONTINUOUS
10
5.46949
20
-3.45964
11
5.47088
21
-3.45764
0
LINE
8
BLACK
6
CONTINUOUS
10
5.47088
20
-3.45764
11
5.47096
21
-3.45752
0
LINE
8
BLACK
6
CONTINUOUS
10
5.47096
20
-3.45752
11
5.47246
21
-3.4556
0
LINE
8
BLACK
6
CONTINUOUS
10
5.47246
20
-3.4556
11
5.47263
21
-3.45524
0
LINE
8
BLACK
6
CONTINUOUS
10
5.47263
20
-3.45524
11
5.47306
21
-3.45447
0
LINE
8
BLACK
6
CONTINUOUS
10
5.47306
20
-3.45447
11
5.47329
21
-3.45414
0
LINE
8
BLACK
6
CONTINUOUS
10
5.47329
20
-3.45414
11
5.47415
21
-3.45186
0
LINE
8
BLACK
6
CONTINUOUS
10
5.47415
20
-3.45186
11
5.47421
21
-3.45173
0
LINE
8
BLACK
6
CONTINUOUS
10
5.47421
20
-3.45173
11
5.47422
21
-3.45171
0
LINE
8
BLACK
6
CONTINUOUS
10
5.47422
20
-3.45171
11
5.47521
21
-3.44951
0
LINE
8
BLACK
6
CONTINUOUS
10
5.47521
20
-3.44951
11
5.47528
21
-3.44912
0
LINE
8
BLACK
6
CONTINUOUS
10
5.47528
20
-3.44912
11
5.47552
21
-3.44826
0
LINE
8
BLACK
6
CONTINUOUS
10
5.47552
20
-3.44826
11
5.47566
21
-3.44789
0
LINE
8
BLACK
6
CONTINUOUS
10
5.47566
20
-3.44789
11
5.47566
21
-3.44789
0
LINE
8
BLACK
6
CONTINUOUS
10
5.47566
20
-3.44789
11
5.47595
21
-3.44548
0
LINE
8
BLACK
6
CONTINUOUS
10
5.47595
20
-3.44548
11
5.47597
21
-3.44533
0
LINE
8
BLACK
6
CONTINUOUS
10
5.47597
20
-3.44533
11
5.47616
21
-3.4443
0
LINE
8
BLACK
6
CONTINUOUS
10
5.47616
20
-3.4443
11
5.47641
21
-3.44293
0
LINE
8
BLACK
6
CONTINUOUS
10
5.47641
20
-3.44293
11
5.47635
21
-3.44191
0
LINE
8
BLACK
6
CONTINUOUS
10
5.47635
20
-3.44191
11
5.47626
21
-3.4405
0
LINE
8
BLACK
6
CONTINUOUS
10
5.47626
20
-3.4405
11
5.47626
21
-3.44035
0
LINE
8
BLACK
6
CONTINUOUS
10
5.47626
20
-3.44035
11
5.47626
21
-3.28033
0
LINE
8
BLACK
6
CONTINUOUS
10
5.47626
20
-3.28033
11
5.47703
21
-3.2777
0
LINE
8
BLACK
6
CONTINUOUS
10
5.47703
20
-3.2777
11
5.47911
21
-3.27589
0
LINE
8
BLACK
6
CONTINUOUS
10
5.47911
20
-3.27589
11
5.48114
21
-3.27545
0
LINE
8
BLACK
6
CONTINUOUS
10
5.48114
20
-3.27545
11
5.51113
21
-3.27545
0
LINE
8
BLACK
6
CONTINUOUS
10
5.51113
20
-3.27545
11
5.51113
21
-3.27545
0
LINE
8
BLACK
6
CONTINUOUS
10
5.51113
20
-3.27545
11
5.51219
21
-3.27534
0
LINE
8
BLACK
6
CONTINUOUS
10
5.51219
20
-3.27534
11
5.51351
21
-3.2752
0
LINE
8
BLACK
6
CONTINUOUS
10
5.51351
20
-3.2752
11
5.51372
21
-3.27512
0
LINE
8
BLACK
6
CONTINUOUS
10
5.51372
20
-3.27512
11
5.51463
21
-3.27478
0
LINE
8
BLACK
6
CONTINUOUS
10
5.51463
20
-3.27478
11
5.51891
21
-3.27318
0
LINE
8
BLACK
6
CONTINUOUS
10
5.51891
20
-3.27318
11
5.52351
21
-3.26973
0
LINE
8
BLACK
6
CONTINUOUS
10
5.52351
20
-3.26973
11
5.52696
21
-3.26513
0
LINE
8
BLACK
6
CONTINUOUS
10
5.52696
20
-3.26513
11
5.52864
21
-3.26064
0
LINE
8
BLACK
6
CONTINUOUS
10
5.52864
20
-3.26064
11
5.52726
21
-3.25926
0
LINE
8
BLACK
6
CONTINUOUS
10
5.52726
20
-3.25926
11
5.52502
21
-3.25487
0
LINE
8
BLACK
6
CONTINUOUS
10
5.52502
20
-3.25487
11
5.52425
21
-3.25
0
LINE
8
BLACK
6
CONTINUOUS
10
5.52425
20
-3.25
11
5.52502
21
-3.24513
0
LINE
8
BLACK
6
CONTINUOUS
10
5.52502
20
-3.24513
11
5.52726
21
-3.24074
0
LINE
8
BLACK
6
CONTINUOUS
10
5.52726
20
-3.24074
11
5.52923
21
-3.23877
0
LINE
8
BLACK
6
CONTINUOUS
10
5.52923
20
-3.23877
11
5.52923
21
-3.22123
0
LINE
8
BLACK
6
CONTINUOUS
10
5.52923
20
-3.22123
11
5.52726
21
-3.21926
0
LINE
8
BLACK
6
CONTINUOUS
10
5.52726
20
-3.21926
11
5.52502
21
-3.21487
0
LINE
8
BLACK
6
CONTINUOUS
10
5.52502
20
-3.21487
11
5.52425
21
-3.21
0
LINE
8
BLACK
6
CONTINUOUS
10
5.52425
20
-3.21
11
5.52502
21
-3.20513
0
LINE
8
BLACK
6
CONTINUOUS
10
5.52502
20
-3.20513
11
5.52726
21
-3.20074
0
LINE
8
BLACK
6
CONTINUOUS
10
5.52726
20
-3.20074
11
5.52923
21
-3.19877
0
LINE
8
BLACK
6
CONTINUOUS
10
5.52923
20
-3.19877
11
5.52923
21
-3.18265
0
LINE
8
BLACK
6
CONTINUOUS
10
5.52923
20
-3.18265
11
5.52923
21
-3.18265
0
LINE
8
BLACK
6
CONTINUOUS
10
5.52923
20
-3.18265
11
5.52906
21
-3.18106
0
LINE
8
BLACK
6
CONTINUOUS
10
5.52906
20
-3.18106
11
5.52726
21
-3.17926
0
LINE
8
BLACK
6
CONTINUOUS
10
5.52726
20
-3.17926
11
5.52502
21
-3.17487
0
LINE
8
BLACK
6
CONTINUOUS
10
5.52502
20
-3.17487
11
5.5245
21
-3.17159
0
LINE
8
BLACK
6
CONTINUOUS
10
5.5245
20
-3.17159
11
5.52351
21
-3.17027
0
LINE
8
BLACK
6
CONTINUOUS
10
5.52351
20
-3.17027
11
5.51953
21
-3.16728
0
LINE
8
BLACK
6
CONTINUOUS
10
5.51953
20
-3.16728
11
5.51788
21
-3.16508
0
LINE
8
BLACK
6
CONTINUOUS
10
5.51788
20
-3.16508
11
5.51768
21
-3.16233
0
LINE
8
BLACK
6
CONTINUOUS
10
5.51768
20
-3.16233
11
5.519
21
-3.15992
0
LINE
8
BLACK
6
CONTINUOUS
10
5.519
20
-3.15992
11
5.54997
21
-3.12895
0
LINE
8
BLACK
6
CONTINUOUS
10
5.54997
20
-3.12895
11
5.55238
21
-3.12763
0
LINE
8
BLACK
6
CONTINUOUS
10
5.55238
20
-3.12763
11
5.55342
21
-3.12752
0
LINE
8
BLACK
6
CONTINUOUS
10
5.55342
20
-3.12752
11
5.55658
21
-3.12752
0
LINE
8
BLACK
6
CONTINUOUS
10
5.55658
20
-3.12752
11
5.55922
21
-3.12829
0
LINE
8
BLACK
6
CONTINUOUS
10
5.55922
20
-3.12829
11
5.56102
21
-3.13037
0
LINE
8
BLACK
6
CONTINUOUS
10
5.56102
20
-3.13037
11
5.56141
21
-3.1331
0
LINE
8
BLACK
6
CONTINUOUS
10
5.56141
20
-3.1331
11
5.56074
21
-3.13496
0
LINE
8
BLACK
6
CONTINUOUS
10
5.56074
20
-3.13496
11
5.55841
21
-3.13874
0
LINE
8
BLACK
6
CONTINUOUS
10
5.55841
20
-3.13874
11
5.55841
21
-3.13874
0
LINE
8
BLACK
6
CONTINUOUS
10
5.55841
20
-3.13874
11
5.55624
21
-3.14529
0
LINE
8
BLACK
6
CONTINUOUS
10
5.55624
20
-3.14529
11
5.55624
21
-3.14529
0
LINE
8
BLACK
6
CONTINUOUS
10
5.55624
20
-3.14529
11
5.55583
21
-3.14933
0
LINE
8
BLACK
6
CONTINUOUS
10
5.55583
20
-3.14933
11
5.55583
21
-3.16016
0
LINE
8
BLACK
6
CONTINUOUS
10
5.55583
20
-3.16016
11
5.57551
21
-3.16016
0
LINE
8
BLACK
6
CONTINUOUS
10
5.57551
20
-3.16016
11
5.57551
21
-3.1513
0
LINE
8
BLACK
6
CONTINUOUS
10
5.57551
20
-3.1513
11
5.57626
21
-3.14753
0
LINE
8
BLACK
6
CONTINUOUS
10
5.57626
20
-3.14753
11
5.57839
21
-3.14434
0
LINE
8
BLACK
6
CONTINUOUS
10
5.57839
20
-3.14434
11
5.58159
21
-3.14221
0
LINE
8
BLACK
6
CONTINUOUS
10
5.58159
20
-3.14221
11
5.58535
21
-3.14146
0
LINE
8
BLACK
6
CONTINUOUS
10
5.58535
20
-3.14146
11
5.60504
21
-3.14146
0
LINE
8
BLACK
6
CONTINUOUS
10
5.60504
20
-3.14146
11
5.60881
21
-3.14221
0
LINE
8
BLACK
6
CONTINUOUS
10
5.60881
20
-3.14221
11
5.612
21
-3.14434
0
LINE
8
BLACK
6
CONTINUOUS
10
5.612
20
-3.14434
11
5.61413
21
-3.14753
0
LINE
8
BLACK
6
CONTINUOUS
10
5.61413
20
-3.14753
11
5.61488
21
-3.1513
0
LINE
8
BLACK
6
CONTINUOUS
10
5.61488
20
-3.1513
11
5.61488
21
-3.1887
0
LINE
8
BLACK
6
CONTINUOUS
10
5.61488
20
-3.1887
11
5.61413
21
-3.19247
0
LINE
8
BLACK
6
CONTINUOUS
10
5.61413
20
-3.19247
11
5.612
21
-3.19566
0
LINE
8
BLACK
6
CONTINUOUS
10
5.612
20
-3.19566
11
5.60881
21
-3.19779
0
LINE
8
BLACK
6
CONTINUOUS
10
5.60881
20
-3.19779
11
5.60504
21
-3.19854
0
LINE
8
BLACK
6
CONTINUOUS
10
5.60504
20
-3.19854
11
5.60504
21
-3.21518
0
LINE
8
BLACK
6
CONTINUOUS
10
5.60504
20
-3.21518
11
5.60426
21
-3.21782
0
LINE
8
BLACK
6
CONTINUOUS
10
5.60426
20
-3.21782
11
5.60361
21
-3.21863
0
LINE
8
BLACK
6
CONTINUOUS
10
5.60361
20
-3.21863
11
5.60244
21
-3.2198
0
LINE
8
BLACK
6
CONTINUOUS
10
5.60244
20
-3.2198
11
5.60244
21
-3.22146
0
LINE
8
BLACK
6
CONTINUOUS
10
5.60244
20
-3.22146
11
5.60621
21
-3.22221
0
LINE
8
BLACK
6
CONTINUOUS
10
5.60621
20
-3.22221
11
5.6094
21
-3.22434
0
LINE
8
BLACK
6
CONTINUOUS
10
5.6094
20
-3.22434
11
5.61153
21
-3.22753
0
LINE
8
BLACK
6
CONTINUOUS
10
5.61153
20
-3.22753
11
5.61228
21
-3.2313
0
LINE
8
BLACK
6
CONTINUOUS
10
5.61228
20
-3.2313
11
5.61228
21
-3.2687
0
LINE
8
BLACK
6
CONTINUOUS
10
5.61228
20
-3.2687
11
5.61153
21
-3.27247
0
LINE
8
BLACK
6
CONTINUOUS
10
5.61153
20
-3.27247
11
5.6094
21
-3.27566
0
LINE
8
BLACK
6
CONTINUOUS
10
5.6094
20
-3.27566
11
5.60621
21
-3.27779
0
LINE
8
BLACK
6
CONTINUOUS
10
5.60621
20
-3.27779
11
5.60244
21
-3.27854
0
LINE
8
BLACK
6
CONTINUOUS
10
5.60244
20
-3.27854
11
5.58276
21
-3.27854
0
LINE
8
BLACK
6
CONTINUOUS
10
5.58276
20
-3.27854
11
5.57899
21
-3.27779
0
LINE
8
BLACK
6
CONTINUOUS
10
5.57899
20
-3.27779
11
5.5758
21
-3.27566
0
LINE
8
BLACK
6
CONTINUOUS
10
5.5758
20
-3.27566
11
5.57366
21
-3.27247
0
LINE
8
BLACK
6
CONTINUOUS
10
5.57366
20
-3.27247
11
5.57291
21
-3.2687
0
LINE
8
BLACK
6
CONTINUOUS
10
5.57291
20
-3.2687
11
5.57291
21
-3.25984
0
LINE
8
BLACK
6
CONTINUOUS
10
5.57291
20
-3.25984
11
5.55323
21
-3.25984
0
LINE
8
BLACK
6
CONTINUOUS
10
5.55323
20
-3.25984
11
5.55323
21
-3.27067
0
LINE
8
BLACK
6
CONTINUOUS
10
5.55323
20
-3.27067
11
5.55364
21
-3.27471
0
LINE
8
BLACK
6
CONTINUOUS
10
5.55364
20
-3.27471
11
5.55581
21
-3.28126
0
LINE
8
BLACK
6
CONTINUOUS
10
5.55581
20
-3.28126
11
5.55581
21
-3.28126
0
LINE
8
BLACK
6
CONTINUOUS
10
5.55581
20
-3.28126
11
5.55634
21
-3.28212
0
LINE
8
BLACK
6
CONTINUOUS
10
5.55634
20
-3.28212
11
5.55706
21
-3.28477
0
LINE
8
BLACK
6
CONTINUOUS
10
5.55706
20
-3.28477
11
5.55624
21
-3.2874
0
LINE
8
BLACK
6
CONTINUOUS
10
5.55624
20
-3.2874
11
5.55413
21
-3.28916
0
LINE
8
BLACK
6
CONTINUOUS
10
5.55413
20
-3.28916
11
5.55389
21
-3.28925
0
LINE
8
BLACK
6
CONTINUOUS
10
5.55389
20
-3.28925
11
5.55251
21
-3.28977
0
LINE
8
BLACK
6
CONTINUOUS
10
5.55251
20
-3.28977
11
5.55234
21
-3.28986
0
LINE
8
BLACK
6
CONTINUOUS
10
5.55234
20
-3.28986
11
5.54965
21
-3.29045
0
LINE
8
BLACK
6
CONTINUOUS
10
5.54965
20
-3.29045
11
5.54766
21
-3.28986
0
LINE
8
BLACK
6
CONTINUOUS
10
5.54766
20
-3.28986
11
5.54749
21
-3.28977
0
LINE
8
BLACK
6
CONTINUOUS
10
5.54749
20
-3.28977
11
5.54209
21
-3.28776
0
LINE
8
BLACK
6
CONTINUOUS
10
5.54209
20
-3.28776
11
5.53971
21
-3.2875
0
LINE
8
BLACK
6
CONTINUOUS
10
5.53971
20
-3.2875
11
5.53971
21
-3.2875
0
LINE
8
BLACK
6
CONTINUOUS
10
5.53971
20
-3.2875
11
5.51029
21
-3.2875
0
LINE
8
BLACK
6
CONTINUOUS
10
5.51029
20
-3.2875
11
5.51029
21
-3.2875
0
LINE
8
BLACK
6
CONTINUOUS
10
5.51029
20
-3.2875
11
5.50791
21
-3.28776
0
LINE
8
BLACK
6
CONTINUOUS
10
5.50791
20
-3.28776
11
5.50791
21
-3.28776
0
LINE
8
BLACK
6
CONTINUOUS
10
5.50791
20
-3.28776
11
5.50251
21
-3.28977
0
LINE
8
BLACK
6
CONTINUOUS
10
5.50251
20
-3.28977
11
5.4979
21
-3.29322
0
LINE
8
BLACK
6
CONTINUOUS
10
5.4979
20
-3.29322
11
5.49445
21
-3.29783
0
LINE
8
BLACK
6
CONTINUOUS
10
5.49445
20
-3.29783
11
5.49244
21
-3.30322
0
LINE
8
BLACK
6
CONTINUOUS
10
5.49244
20
-3.30322
11
5.49244
21
-3.30322
0
LINE
8
BLACK
6
CONTINUOUS
10
5.49244
20
-3.30322
11
5.49219
21
-3.3056
0
LINE
8
BLACK
6
CONTINUOUS
10
5.49219
20
-3.3056
11
5.49219
21
-3.3744
0
LINE
8
BLACK
6
CONTINUOUS
10
5.49219
20
-3.3744
11
5.49244
21
-3.37678
0
LINE
8
BLACK
6
CONTINUOUS
10
5.49244
20
-3.37678
11
5.49244
21
-3.37678
0
LINE
8
BLACK
6
CONTINUOUS
10
5.49244
20
-3.37678
11
5.49392
21
-3.38075
0
LINE
8
BLACK
6
CONTINUOUS
10
5.49392
20
-3.38075
11
5.49445
21
-3.38217
0
LINE
8
BLACK
6
CONTINUOUS
10
5.49445
20
-3.38217
11
5.4979
21
-3.38678
0
LINE
8
BLACK
6
CONTINUOUS
10
5.4979
20
-3.38678
11
5.50251
21
-3.39023
0
LINE
8
BLACK
6
CONTINUOUS
10
5.50251
20
-3.39023
11
5.50791
21
-3.39224
0
LINE
8
BLACK
6
CONTINUOUS
10
5.50791
20
-3.39224
11
5.50898
21
-3.39236
0
LINE
8
BLACK
6
CONTINUOUS
10
5.50898
20
-3.39236
11
5.51029
21
-3.3925
0
LINE
8
BLACK
6
CONTINUOUS
10
5.51029
20
-3.3925
11
5.51029
21
-3.3925
0
LINE
8
BLACK
6
CONTINUOUS
10
5.51029
20
-3.3925
11
5.52052
21
-3.3925
0
LINE
8
BLACK
6
CONTINUOUS
10
5.52052
20
-3.3925
11
5.52316
21
-3.39328
0
LINE
8
BLACK
6
CONTINUOUS
10
5.52316
20
-3.39328
11
5.52397
21
-3.39393
0
LINE
8
BLACK
6
CONTINUOUS
10
5.52397
20
-3.39393
11
5.54433
21
-3.41428
0
LINE
8
BLACK
6
CONTINUOUS
10
5.54433
20
-3.41428
11
5.56307
21
-3.43302
0
LINE
8
BLACK
6
CONTINUOUS
10
5.56307
20
-3.43302
11
5.56346
21
-3.43351
0
LINE
8
BLACK
6
CONTINUOUS
10
5.56346
20
-3.43351
11
5.56347
21
-3.4335
0
LINE
8
BLACK
6
CONTINUOUS
10
5.56347
20
-3.4335
11
5.56366
21
-3.43374
0
LINE
8
BLACK
6
CONTINUOUS
10
5.56366
20
-3.43374
11
5.56567
21
-3.43563
0
LINE
8
BLACK
6
CONTINUOUS
10
5.56567
20
-3.43563
11
5.5665
21
-3.43646
0
LINE
8
BLACK
6
CONTINUOUS
10
5.5665
20
-3.43646
11
5.56672
21
-3.43663
0
LINE
8
BLACK
6
CONTINUOUS
10
5.56672
20
-3.43663
11
5.5669
21
-3.43678
0
LINE
8
BLACK
6
CONTINUOUS
10
5.5669
20
-3.43678
11
5.56816
21
-3.43796
0
LINE
8
BLACK
6
CONTINUOUS
10
5.56816
20
-3.43796
11
5.56826
21
-3.43805
0
LINE
8
BLACK
6
CONTINUOUS
10
5.56826
20
-3.43805
11
5.56896
21
-3.43844
0
LINE
8
BLACK
6
CONTINUOUS
10
5.56896
20
-3.43844
11
5.5696
21
-3.43886
0
LINE
8
BLACK
6
CONTINUOUS
10
5.5696
20
-3.43886
11
5.57023
21
-3.43935
0
LINE
8
BLACK
6
CONTINUOUS
10
5.57023
20
-3.43935
11
5.57102
21
-3.43969
0
LINE
8
BLACK
6
CONTINUOUS
10
5.57102
20
-3.43969
11
5.57194
21
-3.44009
0
LINE
8
BLACK
6
CONTINUOUS
10
5.57194
20
-3.44009
11
5.57215
21
-3.44019
0
LINE
8
BLACK
6
CONTINUOUS
10
5.57215
20
-3.44019
11
5.57378
21
-3.44109
0
LINE
8
BLACK
6
CONTINUOUS
10
5.57378
20
-3.44109
11
5.57456
21
-3.44129
0
LINE
8
BLACK
6
CONTINUOUS
10
5.57456
20
-3.44129
11
5.57528
21
-3.44154
0
LINE
8
BLACK
6
CONTINUOUS
10
5.57528
20
-3.44154
11
5.57602
21
-3.44186
0
LINE
8
BLACK
6
CONTINUOUS
10
5.57602
20
-3.44186
11
5.57602
21
-3.44186
0
LINE
8
BLACK
6
CONTINUOUS
10
5.57602
20
-3.44186
11
5.57602
21
-3.44186
0
LINE
8
BLACK
6
CONTINUOUS
10
5.57602
20
-3.44186
11
5.57602
21
-3.44186
0
LINE
8
BLACK
6
CONTINUOUS
10
5.57602
20
-3.44186
11
5.57763
21
-3.44211
0
LINE
8
BLACK
6
CONTINUOUS
10
5.57763
20
-3.44211
11
5.57785
21
-3.44215
0
LINE
8
BLACK
6
CONTINUOUS
10
5.57785
20
-3.44215
11
5.57808
21
-3.44219
0
LINE
8
BLACK
6
CONTINUOUS
10
5.57808
20
-3.44219
11
5.57988
21
-3.44266
0
LINE
8
BLACK
6
CONTINUOUS
10
5.57988
20
-3.44266
11
5.58068
21
-3.44266
0
LINE
8
BLACK
6
CONTINUOUS
10
5.58068
20
-3.44266
11
5.58145
21
-3.44272
0
LINE
8
BLACK
6
CONTINUOUS
10
5.58145
20
-3.44272
11
5.58224
21
-3.44284
0
LINE
8
BLACK
6
CONTINUOUS
10
5.58224
20
-3.44284
11
5.58409
21
-3.44267
0
LINE
8
BLACK
6
CONTINUOUS
10
5.58409
20
-3.44267
11
5.58432
21
-3.44266
0
LINE
8
BLACK
6
CONTINUOUS
10
5.58432
20
-3.44266
11
5.61028
21
-3.44266
0
LINE
8
BLACK
6
CONTINUOUS
10
5.61028
20
-3.44266
11
5.61292
21
-3.44343
0
LINE
8
BLACK
6
CONTINUOUS
10
5.61292
20
-3.44343
11
5.61473
21
-3.44551
0
LINE
8
BLACK
6
CONTINUOUS
10
5.61473
20
-3.44551
11
5.61512
21
-3.44823
0
LINE
8
BLACK
6
CONTINUOUS
10
5.61512
20
-3.44823
11
5.61397
21
-3.45074
0
LINE
8
BLACK
6
CONTINUOUS
10
5.61397
20
-3.45074
11
5.61374
21
-3.45099
0
LINE
8
BLACK
6
CONTINUOUS
10
5.61374
20
-3.45099
11
5.60442
21
-3.46031
0
LINE
8
BLACK
6
CONTINUOUS
10
5.60442
20
-3.46031
11
5.55969
21
-3.50504
0
LINE
8
BLACK
6
CONTINUOUS
10
5.55969
20
-3.50504
11
5.55921
21
-3.50543
0
LINE
8
BLACK
6
CONTINUOUS
10
5.55921
20
-3.50543
11
5.55921
21
-3.50543
0
LINE
8
BLACK
6
CONTINUOUS
10
5.55921
20
-3.50543
11
5.55898
21
-3.50563
0
LINE
8
BLACK
6
CONTINUOUS
10
5.55898
20
-3.50563
11
5.55709
21
-3.50764
0
LINE
8
BLACK
6
CONTINUOUS
10
5.55709
20
-3.50764
11
5.55625
21
-3.50847
0
LINE
8
BLACK
6
CONTINUOUS
10
5.55625
20
-3.50847
11
5.55625
21
-3.50847
0
LINE
8
BLACK
6
CONTINUOUS
10
5.55625
20
-3.50847
11
5.55608
21
-3.50869
0
LINE
8
BLACK
6
CONTINUOUS
10
5.55608
20
-3.50869
11
5.55593
21
-3.50887
0
LINE
8
BLACK
6
CONTINUOUS
10
5.55593
20
-3.50887
11
5.55466
21
-3.51022
0
LINE
8
BLACK
6
CONTINUOUS
10
5.55466
20
-3.51022
11
5.55466
21
-3.51022
0
LINE
8
BLACK
6
CONTINUOUS
10
5.55466
20
-3.51022
11
5.55427
21
-3.51093
0
LINE
8
BLACK
6
CONTINUOUS
10
5.55427
20
-3.51093
11
5.55385
21
-3.51157
0
LINE
8
BLACK
6
CONTINUOUS
10
5.55385
20
-3.51157
11
5.55336
21
-3.5122
0
LINE
8
BLACK
6
CONTINUOUS
10
5.55336
20
-3.5122
11
5.55336
21
-3.5122
0
LINE
8
BLACK
6
CONTINUOUS
10
5.55336
20
-3.5122
11
5.55262
21
-3.51391
0
LINE
8
BLACK
6
CONTINUOUS
10
5.55262
20
-3.51391
11
5.55252
21
-3.51412
0
LINE
8
BLACK
6
CONTINUOUS
10
5.55252
20
-3.51412
11
5.55163
21
-3.51575
0
LINE
8
BLACK
6
CONTINUOUS
10
5.55163
20
-3.51575
11
5.55163
21
-3.51575
0
LINE
8
BLACK
6
CONTINUOUS
10
5.55163
20
-3.51575
11
5.55143
21
-3.51652
0
LINE
8
BLACK
6
CONTINUOUS
10
5.55143
20
-3.51652
11
5.55118
21
-3.51725
0
LINE
8
BLACK
6
CONTINUOUS
10
5.55118
20
-3.51725
11
5.55086
21
-3.51799
0
LINE
8
BLACK
6
CONTINUOUS
10
5.55086
20
-3.51799
11
5.55057
21
-3.51982
0
LINE
8
BLACK
6
CONTINUOUS
10
5.55057
20
-3.51982
11
5.55052
21
-3.52005
0
LINE
8
BLACK
6
CONTINUOUS
10
5.55052
20
-3.52005
11
5.55006
21
-3.52185
0
LINE
8
BLACK
6
CONTINUOUS
10
5.55006
20
-3.52185
11
5.55006
21
-3.52265
0
LINE
8
BLACK
6
CONTINUOUS
10
5.55006
20
-3.52265
11
5.55
21
-3.52342
0
LINE
8
BLACK
6
CONTINUOUS
10
5.55
20
-3.52342
11
5.54987
21
-3.52421
0
LINE
8
BLACK
6
CONTINUOUS
10
5.54987
20
-3.52421
11
5.54987
21
-3.52421
0
LINE
8
BLACK
6
CONTINUOUS
10
5.54987
20
-3.52421
11
5.55005
21
-3.52606
0
LINE
8
BLACK
6
CONTINUOUS
10
5.55005
20
-3.52606
11
5.55006
21
-3.52629
0
LINE
8
BLACK
6
CONTINUOUS
10
5.55006
20
-3.52629
11
5.55006
21
-3.57342
0
LINE
8
BLACK
6
CONTINUOUS
10
5.55006
20
-3.57342
11
5.54928
21
-3.57606
0
LINE
8
BLACK
6
CONTINUOUS
10
5.54928
20
-3.57606
11
5.54721
21
-3.57786
0
LINE
8
BLACK
6
CONTINUOUS
10
5.54721
20
-3.57786
11
5.54448
21
-3.57826
0
LINE
8
BLACK
6
CONTINUOUS
10
5.54448
20
-3.57826
11
5.54347
21
-3.578
0
LINE
8
BLACK
6
CONTINUOUS
10
5.54347
20
-3.578
11
5.54202
21
-3.57746
0
LINE
8
BLACK
6
CONTINUOUS
10
5.54202
20
-3.57746
11
5.54202
21
-3.57746
0
LINE
8
BLACK
6
CONTINUOUS
10
5.54202
20
-3.57746
11
5.53968
21
-3.5772
0
LINE
8
BLACK
6
CONTINUOUS
10
5.53968
20
-3.5772
11
5.53484
21
-3.5772
0
LINE
8
BLACK
6
CONTINUOUS
10
5.53484
20
-3.5772
11
5.53484
21
-3.59689
0
LINE
8
BLACK
6
CONTINUOUS
10
5.53484
20
-3.59689
11
5.5378
21
-3.59689
0
LINE
8
BLACK
6
CONTINUOUS
10
5.5378
20
-3.59689
11
5.5378
21
-3.66185
0
LINE
8
BLACK
6
CONTINUOUS
10
5.5378
20
-3.66185
11
5.53484
21
-3.66185
0
LINE
8
BLACK
6
CONTINUOUS
10
5.53484
20
-3.66185
11
5.53484
21
-3.68154
0
LINE
8
BLACK
6
CONTINUOUS
10
5.53484
20
-3.68154
11
5.53968
21
-3.68154
0
LINE
8
BLACK
6
CONTINUOUS
10
5.53968
20
-3.68154
11
5.53968
21
-3.68154
0
LINE
8
BLACK
6
CONTINUOUS
10
5.53968
20
-3.68154
11
5.54202
21
-3.68128
0
LINE
8
BLACK
6
CONTINUOUS
10
5.54202
20
-3.68128
11
5.54202
21
-3.68128
0
LINE
8
BLACK
6
CONTINUOUS
10
5.54202
20
-3.68128
11
5.54733
21
-3.67931
0
LINE
8
BLACK
6
CONTINUOUS
10
5.54733
20
-3.67931
11
5.54734
21
-3.6793
0
LINE
8
BLACK
6
CONTINUOUS
10
5.54734
20
-3.6793
11
5.54736
21
-3.67929
0
LINE
8
BLACK
6
CONTINUOUS
10
5.54736
20
-3.67929
11
5.54765
21
-3.67918
0
LINE
8
BLACK
6
CONTINUOUS
10
5.54765
20
-3.67918
11
5.54767
21
-3.67923
0
LINE
8
BLACK
6
CONTINUOUS
10
5.54767
20
-3.67923
11
5.55003
21
-3.67871
0
LINE
8
BLACK
6
CONTINUOUS
10
5.55003
20
-3.67871
11
5.55216
21
-3.67951
0
LINE
8
BLACK
6
CONTINUOUS
10
5.55216
20
-3.67951
11
5.55221
21
-3.67943
0
LINE
8
BLACK
6
CONTINUOUS
10
5.55221
20
-3.67943
11
5.55251
21
-3.6796
0
LINE
8
BLACK
6
CONTINUOUS
10
5.55251
20
-3.6796
11
5.55791
21
-3.68161
0
LINE
8
BLACK
6
CONTINUOUS
10
5.55791
20
-3.68161
11
5.55791
21
-3.68161
0
LINE
8
BLACK
6
CONTINUOUS
10
5.55791
20
-3.68161
11
5.55898
21
-3.68173
0
LINE
8
BLACK
6
CONTINUOUS
10
5.55898
20
-3.68173
11
5.56029
21
-3.68187
0
LINE
8
BLACK
6
CONTINUOUS
10
5.56029
20
-3.68187
11
5.56029
21
-3.68187
0
LINE
8
BLACK
6
CONTINUOUS
10
5.56029
20
-3.68187
11
5.58971
21
-3.68187
0
LINE
8
BLACK
6
CONTINUOUS
10
5.58971
20
-3.68187
11
5.58971
21
-3.68187
0
LINE
8
BLACK
6
CONTINUOUS
10
5.58971
20
-3.68187
11
5.59078
21
-3.68176
0
LINE
8
BLACK
6
CONTINUOUS
10
5.59078
20
-3.68176
11
5.59209
21
-3.68161
0
LINE
8
BLACK
6
CONTINUOUS
10
5.59209
20
-3.68161
11
5.59209
21
-3.68161
0
LINE
8
BLACK
6
CONTINUOUS
10
5.59209
20
-3.68161
11
5.59209
21
-3.68161
0
LINE
8
BLACK
6
CONTINUOUS
10
5.59209
20
-3.68161
11
5.59749
21
-3.6796
0
LINE
8
BLACK
6
CONTINUOUS
10
5.59749
20
-3.6796
11
5.59766
21
-3.67951
0
LINE
8
BLACK
6
CONTINUOUS
10
5.59766
20
-3.67951
11
5.60035
21
-3.67892
0
LINE
8
BLACK
6
CONTINUOUS
10
5.60035
20
-3.67892
11
5.60234
21
-3.67951
0
LINE
8
BLACK
6
CONTINUOUS
10
5.60234
20
-3.67951
11
5.60251
21
-3.6796
0
LINE
8
BLACK
6
CONTINUOUS
10
5.60251
20
-3.6796
11
5.60791
21
-3.68161
0
LINE
8
BLACK
6
CONTINUOUS
10
5.60791
20
-3.68161
11
5.60791
21
-3.68161
0
LINE
8
BLACK
6
CONTINUOUS
10
5.60791
20
-3.68161
11
5.60791
21
-3.68161
0
LINE
8
BLACK
6
CONTINUOUS
10
5.60791
20
-3.68161
11
5.60907
21
-3.68174
0
LINE
8
BLACK
6
CONTINUOUS
10
5.60907
20
-3.68174
11
5.61029
21
-3.68187
0
LINE
8
BLACK
6
CONTINUOUS
10
5.61029
20
-3.68187
11
5.61029
21
-3.68187
0
LINE
8
BLACK
6
CONTINUOUS
10
5.61029
20
-3.68187
11
5.63971
21
-3.68187
0
LINE
8
BLACK
6
CONTINUOUS
10
5.63971
20
-3.68187
11
5.63971
21
-3.68187
0
LINE
8
BLACK
6
CONTINUOUS
10
5.63971
20
-3.68187
11
5.64078
21
-3.68176
0
LINE
8
BLACK
6
CONTINUOUS
10
5.64078
20
-3.68176
11
5.64209
21
-3.68161
0
LINE
8
BLACK
6
CONTINUOUS
10
5.64209
20
-3.68161
11
5.64209
21
-3.68161
0
LINE
8
BLACK
6
CONTINUOUS
10
5.64209
20
-3.68161
11
5.64209
21
-3.68161
0
LINE
8
BLACK
6
CONTINUOUS
10
5.64209
20
-3.68161
11
5.64749
21
-3.6796
0
LINE
8
BLACK
6
CONTINUOUS
10
5.64749
20
-3.6796
11
5.64766
21
-3.67951
0
LINE
8
BLACK
6
CONTINUOUS
10
5.64766
20
-3.67951
11
5.65035
21
-3.67892
0
LINE
8
BLACK
6
CONTINUOUS
10
5.65035
20
-3.67892
11
5.65234
21
-3.67951
0
LINE
8
BLACK
6
CONTINUOUS
10
5.65234
20
-3.67951
11
5.65251
21
-3.6796
0
LINE
8
BLACK
6
CONTINUOUS
10
5.65251
20
-3.6796
11
5.65791
21
-3.68161
0
LINE
8
BLACK
6
CONTINUOUS
10
5.65791
20
-3.68161
11
5.65791
21
-3.68161
0
LINE
8
BLACK
6
CONTINUOUS
10
5.65791
20
-3.68161
11
5.65791
21
-3.68161
0
LINE
8
BLACK
6
CONTINUOUS
10
5.65791
20
-3.68161
11
5.65907
21
-3.68174
0
LINE
8
BLACK
6
CONTINUOUS
10
5.65907
20
-3.68174
11
5.66029
21
-3.68187
0
LINE
8
BLACK
6
CONTINUOUS
10
5.66029
20
-3.68187
11
5.66029
21
-3.68187
0
LINE
8
BLACK
6
CONTINUOUS
10
5.66029
20
-3.68187
11
5.68971
21
-3.68187
0
LINE
8
BLACK
6
CONTINUOUS
10
5.68971
20
-3.68187
11
5.68971
21
-3.68187
0
LINE
8
BLACK
6
CONTINUOUS
10
5.68971
20
-3.68187
11
5.69078
21
-3.68176
0
LINE
8
BLACK
6
CONTINUOUS
10
5.69078
20
-3.68176
11
5.69209
21
-3.68161
0
LINE
8
BLACK
6
CONTINUOUS
10
5.69209
20
-3.68161
11
5.69209
21
-3.68161
0
LINE
8
BLACK
6
CONTINUOUS
10
5.69209
20
-3.68161
11
5.69298
21
-3.68128
0
LINE
8
BLACK
6
CONTINUOUS
10
5.69298
20
-3.68128
11
5.69749
21
-3.6796
0
LINE
8
BLACK
6
CONTINUOUS
10
5.69749
20
-3.6796
11
5.7021
21
-3.67615
0
LINE
8
BLACK
6
CONTINUOUS
10
5.7021
20
-3.67615
11
5.70555
21
-3.67154
0
LINE
8
BLACK
6
CONTINUOUS
10
5.70555
20
-3.67154
11
5.70756
21
-3.66615
0
LINE
8
BLACK
6
CONTINUOUS
10
5.70756
20
-3.66615
11
5.7077
21
-3.66483
0
LINE
8
BLACK
6
CONTINUOUS
10
5.7077
20
-3.66483
11
5.70781
21
-3.66377
0
LINE
8
BLACK
6
CONTINUOUS
10
5.70781
20
-3.66377
11
5.70781
21
-3.66377
0
LINE
8
BLACK
6
CONTINUOUS
10
5.70781
20
-3.66377
11
5.70781
21
-3.65917
0
LINE
8
BLACK
6
CONTINUOUS
10
5.70781
20
-3.65917
11
5.70859
21
-3.65653
0
LINE
8
BLACK
6
CONTINUOUS
10
5.70859
20
-3.65653
11
5.71067
21
-3.65473
0
LINE
8
BLACK
6
CONTINUOUS
10
5.71067
20
-3.65473
11
5.71208
21
-3.65433
0
LINE
8
BLACK
6
CONTINUOUS
10
5.71208
20
-3.65433
11
5.7122
21
-3.65431
0
LINE
8
BLACK
6
CONTINUOUS
10
5.7122
20
-3.65431
11
5.7122
21
-3.65431
0
LINE
8
BLACK
6
CONTINUOUS
10
5.7122
20
-3.65431
11
5.71232
21
-3.6543
0
LINE
8
BLACK
6
CONTINUOUS
10
5.71232
20
-3.6543
11
5.71247
21
-3.65428
0
LINE
8
BLACK
6
CONTINUOUS
10
5.71247
20
-3.65428
11
5.7127
21
-3.65426
0
LINE
8
BLACK
6
CONTINUOUS
10
5.7127
20
-3.65426
11
5.71456
21
-3.6542
0
LINE
8
BLACK
6
CONTINUOUS
10
5.71456
20
-3.6542
11
5.71495
21
-3.65409
0
LINE
8
BLACK
6
CONTINUOUS
10
5.71495
20
-3.65409
11
5.71533
21
-3.65398
0
LINE
8
BLACK
6
CONTINUOUS
10
5.71533
20
-3.65398
11
5.71608
21
-3.65382
0
LINE
8
BLACK
6
CONTINUOUS
10
5.71608
20
-3.65382
11
5.71688
21
-3.65372
0
LINE
8
BLACK
6
CONTINUOUS
10
5.71688
20
-3.65372
11
5.71861
21
-3.65303
0
LINE
8
BLACK
6
CONTINUOUS
10
5.71861
20
-3.65303
11
5.71883
21
-3.65296
0
LINE
8
BLACK
6
CONTINUOUS
10
5.71883
20
-3.65296
11
5.72061
21
-3.65244
0
LINE
8
BLACK
6
CONTINUOUS
10
5.72061
20
-3.65244
11
5.72131
21
-3.65203
0
LINE
8
BLACK
6
CONTINUOUS
10
5.72131
20
-3.65203
11
5.72199
21
-3.6517
0
LINE
8
BLACK
6
CONTINUOUS
10
5.72199
20
-3.6517
11
5.72274
21
-3.6514
0
LINE
8
BLACK
6
CONTINUOUS
10
5.72274
20
-3.6514
11
5.72425
21
-3.65031
0
LINE
8
BLACK
6
CONTINUOUS
10
5.72425
20
-3.65031
11
5.72444
21
-3.65018
0
LINE
8
BLACK
6
CONTINUOUS
10
5.72444
20
-3.65018
11
5.72604
21
-3.64923
0
LINE
8
BLACK
6
CONTINUOUS
10
5.72604
20
-3.64923
11
5.72661
21
-3.64867
0
LINE
8
BLACK
6
CONTINUOUS
10
5.72661
20
-3.64867
11
5.72719
21
-3.64817
0
LINE
8
BLACK
6
CONTINUOUS
10
5.72719
20
-3.64817
11
5.72784
21
-3.6477
0
LINE
8
BLACK
6
CONTINUOUS
10
5.72784
20
-3.6477
11
5.72902
21
-3.64626
0
LINE
8
BLACK
6
CONTINUOUS
10
5.72902
20
-3.64626
11
5.72918
21
-3.64609
0
LINE
8
BLACK
6
CONTINUOUS
10
5.72918
20
-3.64609
11
5.7489
21
-3.62637
0
LINE
8
BLACK
6
CONTINUOUS
10
5.7489
20
-3.62637
11
5.75132
21
-3.62505
0
LINE
8
BLACK
6
CONTINUOUS
10
5.75132
20
-3.62505
11
5.75235
21
-3.62494
0
LINE
8
BLACK
6
CONTINUOUS
10
5.75235
20
-3.62494
11
5.7551
21
-3.62494
0
LINE
8
BLACK
6
CONTINUOUS
10
5.7551
20
-3.62494
11
5.75774
21
-3.62572
0
LINE
8
BLACK
6
CONTINUOUS
10
5.75774
20
-3.62572
11
5.75954
21
-3.62779
0
LINE
8
BLACK
6
CONTINUOUS
10
5.75954
20
-3.62779
11
5.75998
21
-3.62982
0
LINE
8
BLACK
6
CONTINUOUS
10
5.75998
20
-3.62982
11
5.75998
21
-3.63192
0
LINE
8
BLACK
6
CONTINUOUS
10
5.75998
20
-3.63192
11
5.76024
21
-3.6343
0
LINE
8
BLACK
6
CONTINUOUS
10
5.76024
20
-3.6343
11
5.76024
21
-3.6343
0
LINE
8
BLACK
6
CONTINUOUS
10
5.76024
20
-3.6343
11
5.76207
21
-3.63921
0
LINE
8
BLACK
6
CONTINUOUS
10
5.76207
20
-3.63921
11
5.76225
21
-3.63969
0
LINE
8
BLACK
6
CONTINUOUS
10
5.76225
20
-3.63969
11
5.7657
21
-3.6443
0
LINE
8
BLACK
6
CONTINUOUS
10
5.7657
20
-3.6443
11
5.77031
21
-3.64775
0
LINE
8
BLACK
6
CONTINUOUS
10
5.77031
20
-3.64775
11
5.77428
21
-3.64923
0
LINE
8
BLACK
6
CONTINUOUS
10
5.77428
20
-3.64923
11
5.77549
21
-3.64968
0
LINE
8
BLACK
6
CONTINUOUS
10
5.77549
20
-3.64968
11
5.7757
21
-3.64976
0
LINE
8
BLACK
6
CONTINUOUS
10
5.7757
20
-3.64976
11
5.77677
21
-3.64988
0
LINE
8
BLACK
6
CONTINUOUS
10
5.77677
20
-3.64988
11
5.77808
21
-3.65002
0
LINE
8
BLACK
6
CONTINUOUS
10
5.77808
20
-3.65002
11
5.77809
21
-3.65002
0
LINE
8
BLACK
6
CONTINUOUS
10
5.77809
20
-3.65002
11
5.84191
21
-3.65002
0
LINE
8
BLACK
6
CONTINUOUS
10
5.84191
20
-3.65002
11
5.84192
21
-3.65002
0
LINE
8
BLACK
6
CONTINUOUS
10
5.84192
20
-3.65002
11
5.84298
21
-3.64991
0
LINE
8
BLACK
6
CONTINUOUS
10
5.84298
20
-3.64991
11
5.8443
21
-3.64976
0
LINE
8
BLACK
6
CONTINUOUS
10
5.8443
20
-3.64976
11
5.84451
21
-3.64968
0
LINE
8
BLACK
6
CONTINUOUS
10
5.84451
20
-3.64968
11
5.84572
21
-3.64923
0
LINE
8
BLACK
6
CONTINUOUS
10
5.84572
20
-3.64923
11
5.84969
21
-3.64775
0
LINE
8
BLACK
6
CONTINUOUS
10
5.84969
20
-3.64775
11
5.8543
21
-3.6443
0
LINE
8
BLACK
6
CONTINUOUS
10
5.8543
20
-3.6443
11
5.85609
21
-3.64191
0
LINE
8
BLACK
6
CONTINUOUS
10
5.85609
20
-3.64191
11
5.85829
21
-3.64026
0
LINE
8
BLACK
6
CONTINUOUS
10
5.85829
20
-3.64026
11
5.86104
21
-3.64007
0
LINE
8
BLACK
6
CONTINUOUS
10
5.86104
20
-3.64007
11
5.86345
21
-3.64138
0
LINE
8
BLACK
6
CONTINUOUS
10
5.86345
20
-3.64138
11
5.86391
21
-3.64191
0
LINE
8
BLACK
6
CONTINUOUS
10
5.86391
20
-3.64191
11
5.8657
21
-3.6443
0
LINE
8
BLACK
6
CONTINUOUS
10
5.8657
20
-3.6443
11
5.87031
21
-3.64775
0
LINE
8
BLACK
6
CONTINUOUS
10
5.87031
20
-3.64775
11
5.87428
21
-3.64923
0
LINE
8
BLACK
6
CONTINUOUS
10
5.87428
20
-3.64923
11
5.87549
21
-3.64968
0
LINE
8
BLACK
6
CONTINUOUS
10
5.87549
20
-3.64968
11
5.8757
21
-3.64976
0
LINE
8
BLACK
6
CONTINUOUS
10
5.8757
20
-3.64976
11
5.87677
21
-3.64988
0
LINE
8
BLACK
6
CONTINUOUS
10
5.87677
20
-3.64988
11
5.87808
21
-3.65002
0
LINE
8
BLACK
6
CONTINUOUS
10
5.87808
20
-3.65002
11
5.87809
21
-3.65002
0
LINE
8
BLACK
6
CONTINUOUS
10
5.87809
20
-3.65002
11
5.94191
21
-3.65002
0
LINE
8
BLACK
6
CONTINUOUS
10
5.94191
20
-3.65002
11
5.94192
21
-3.65002
0
LINE
8
BLACK
6
CONTINUOUS
10
5.94192
20
-3.65002
11
5.94298
21
-3.64991
0
LINE
8
BLACK
6
CONTINUOUS
10
5.94298
20
-3.64991
11
5.9443
21
-3.64976
0
LINE
8
BLACK
6
CONTINUOUS
10
5.9443
20
-3.64976
11
5.94451
21
-3.64968
0
LINE
8
BLACK
6
CONTINUOUS
10
5.94451
20
-3.64968
11
5.94572
21
-3.64923
0
LINE
8
BLACK
6
CONTINUOUS
10
5.94572
20
-3.64923
11
5.94969
21
-3.64775
0
LINE
8
BLACK
6
CONTINUOUS
10
5.94969
20
-3.64775
11
5.9543
21
-3.6443
0
LINE
8
BLACK
6
CONTINUOUS
10
5.9543
20
-3.6443
11
5.95775
21
-3.63969
0
LINE
8
BLACK
6
CONTINUOUS
10
5.95775
20
-3.63969
11
5.95976
21
-3.6343
0
LINE
8
BLACK
6
CONTINUOUS
10
5.95976
20
-3.6343
11
5.95991
21
-3.63298
0
LINE
8
BLACK
6
CONTINUOUS
10
5.95991
20
-3.63298
11
5.96002
21
-3.63192
0
LINE
8
BLACK
6
CONTINUOUS
10
5.96002
20
-3.63192
11
5.96002
21
-3.63191
0
LINE
8
BLACK
6
CONTINUOUS
10
5.96002
20
-3.63191
11
5.96002
21
-3.56809
0
LINE
8
BLACK
6
CONTINUOUS
10
5.96002
20
-3.56809
11
5.96002
21
-3.56808
0
LINE
8
BLACK
6
CONTINUOUS
10
5.96002
20
-3.56808
11
5.95981
21
-3.56618
0
LINE
8
BLACK
6
CONTINUOUS
10
5.95981
20
-3.56618
11
5.95976
21
-3.5657
0
LINE
8
BLACK
6
CONTINUOUS
10
5.95976
20
-3.5657
11
5.95775
21
-3.56031
0
LINE
8
BLACK
6
CONTINUOUS
10
5.95775
20
-3.56031
11
5.9543
21
-3.5557
0
LINE
8
BLACK
6
CONTINUOUS
10
5.9543
20
-3.5557
11
5.95191
21
-3.55391
0
LINE
8
BLACK
6
CONTINUOUS
10
5.95191
20
-3.55391
11
5.95026
21
-3.55171
0
LINE
8
BLACK
6
CONTINUOUS
10
5.95026
20
-3.55171
11
5.95007
21
-3.54896
0
LINE
8
BLACK
6
CONTINUOUS
10
5.95007
20
-3.54896
11
5.95138
21
-3.54655
0
LINE
8
BLACK
6
CONTINUOUS
10
5.95138
20
-3.54655
11
5.95191
21
-3.54609
0
LINE
8
BLACK
6
CONTINUOUS
10
5.95191
20
-3.54609
11
5.9543
21
-3.5443
0
LINE
8
BLACK
6
CONTINUOUS
10
5.9543
20
-3.5443
11
5.95775
21
-3.53969
0
LINE
8
BLACK
6
CONTINUOUS
10
5.95775
20
-3.53969
11
5.95976
21
-3.5343
0
LINE
8
BLACK
6
CONTINUOUS
10
5.95976
20
-3.5343
11
5.95991
21
-3.53298
0
LINE
8
BLACK
6
CONTINUOUS
10
5.95991
20
-3.53298
11
5.96002
21
-3.53192
0
LINE
8
BLACK
6
CONTINUOUS
10
5.96002
20
-3.53192
11
5.96002
21
-3.53191
0
LINE
8
BLACK
6
CONTINUOUS
10
5.96002
20
-3.53191
11
5.96002
21
-3.46809
0
LINE
8
BLACK
6
CONTINUOUS
10
5.96002
20
-3.46809
11
5.96002
21
-3.46808
0
LINE
8
BLACK
6
CONTINUOUS
10
5.96002
20
-3.46808
11
5.95989
21
-3.46686
0
LINE
8
BLACK
6
CONTINUOUS
10
5.95989
20
-3.46686
11
5.95976
21
-3.4657
0
LINE
8
BLACK
6
CONTINUOUS
10
5.95976
20
-3.4657
11
5.95775
21
-3.46031
0
LINE
8
BLACK
6
CONTINUOUS
10
5.95775
20
-3.46031
11
5.9543
21
-3.4557
0
LINE
8
BLACK
6
CONTINUOUS
10
5.9543
20
-3.4557
11
5.95191
21
-3.45391
0
LINE
8
BLACK
6
CONTINUOUS
10
5.95191
20
-3.45391
11
5.95026
21
-3.45171
0
LINE
8
BLACK
6
CONTINUOUS
10
5.95026
20
-3.45171
11
5.95007
21
-3.44896
0
LINE
8
BLACK
6
CONTINUOUS
10
5.95007
20
-3.44896
11
5.95138
21
-3.44655
0
LINE
8
BLACK
6
CONTINUOUS
10
5.95138
20
-3.44655
11
5.95191
21
-3.44609
0
LINE
8
BLACK
6
CONTINUOUS
10
5.95191
20
-3.44609
11
5.9543
21
-3.4443
0
LINE
8
BLACK
6
CONTINUOUS
10
5.9543
20
-3.4443
11
5.95775
21
-3.43969
0
LINE
8
BLACK
6
CONTINUOUS
10
5.95775
20
-3.43969
11
5.95976
21
-3.4343
0
LINE
8
BLACK
6
CONTINUOUS
10
5.95976
20
-3.4343
11
5.95991
21
-3.43298
0
LINE
8
BLACK
6
CONTINUOUS
10
5.95991
20
-3.43298
11
5.96002
21
-3.43192
0
LINE
8
BLACK
6
CONTINUOUS
10
5.96002
20
-3.43192
11
5.96002
21
-3.43191
0
LINE
8
BLACK
6
CONTINUOUS
10
5.96002
20
-3.43191
11
5.96002
21
-3.36809
0
LINE
8
BLACK
6
CONTINUOUS
10
5.96002
20
-3.36809
11
5.96002
21
-3.36808
0
LINE
8
BLACK
6
CONTINUOUS
10
5.96002
20
-3.36808
11
5.95989
21
-3.36686
0
LINE
8
BLACK
6
CONTINUOUS
10
5.95989
20
-3.36686
11
5.95976
21
-3.3657
0
LINE
8
BLACK
6
CONTINUOUS
10
5.95976
20
-3.3657
11
5.95775
21
-3.36031
0
LINE
8
BLACK
6
CONTINUOUS
10
5.95775
20
-3.36031
11
5.9543
21
-3.3557
0
LINE
8
BLACK
6
CONTINUOUS
10
5.9543
20
-3.3557
11
5.95191
21
-3.35391
0
LINE
8
BLACK
6
CONTINUOUS
10
5.95191
20
-3.35391
11
5.95026
21
-3.35171
0
LINE
8
BLACK
6
CONTINUOUS
10
5.95026
20
-3.35171
11
5.95007
21
-3.34896
0
LINE
8
BLACK
6
CONTINUOUS
10
5.95007
20
-3.34896
11
5.95138
21
-3.34655
0
LINE
8
BLACK
6
CONTINUOUS
10
5.95138
20
-3.34655
11
5.95191
21
-3.34609
0
LINE
8
BLACK
6
CONTINUOUS
10
5.95191
20
-3.34609
11
5.9543
21
-3.3443
0
LINE
8
BLACK
6
CONTINUOUS
10
5.9543
20
-3.3443
11
5.95775
21
-3.33969
0
LINE
8
BLACK
6
CONTINUOUS
10
5.95775
20
-3.33969
11
5.95976
21
-3.3343
0
LINE
8
BLACK
6
CONTINUOUS
10
5.95976
20
-3.3343
11
5.95991
21
-3.33298
0
LINE
8
BLACK
6
CONTINUOUS
10
5.95991
20
-3.33298
11
5.96002
21
-3.33192
0
LINE
8
BLACK
6
CONTINUOUS
10
5.96002
20
-3.33192
11
5.96002
21
-3.33191
0
LINE
8
BLACK
6
CONTINUOUS
10
5.96002
20
-3.33191
11
5.96002
21
-3.26809
0
LINE
8
BLACK
6
CONTINUOUS
10
5.96002
20
-3.26809
11
5.96002
21
-3.26808
0
LINE
8
BLACK
6
CONTINUOUS
10
5.96002
20
-3.26808
11
5.95989
21
-3.26686
0
LINE
8
BLACK
6
CONTINUOUS
10
5.95989
20
-3.26686
11
5.95976
21
-3.2657
0
LINE
8
BLACK
6
CONTINUOUS
10
5.95976
20
-3.2657
11
5.95955
21
-3.26513
0
LINE
8
BLACK
6
CONTINUOUS
10
5.95955
20
-3.26513
11
5.95888
21
-3.26333
0
LINE
8
BLACK
6
CONTINUOUS
10
5.95888
20
-3.26333
11
5.95775
21
-3.26031
0
LINE
8
BLACK
6
CONTINUOUS
10
5.95775
20
-3.26031
11
5.9543
21
-3.2557
0
LINE
8
BLACK
6
CONTINUOUS
10
5.9543
20
-3.2557
11
5.95191
21
-3.25391
0
LINE
8
BLACK
6
CONTINUOUS
10
5.95191
20
-3.25391
11
5.95026
21
-3.25171
0
LINE
8
BLACK
6
CONTINUOUS
10
5.95026
20
-3.25171
11
5.95007
21
-3.24896
0
LINE
8
BLACK
6
CONTINUOUS
10
5.95007
20
-3.24896
11
5.95138
21
-3.24655
0
LINE
8
BLACK
6
CONTINUOUS
10
5.95138
20
-3.24655
11
5.95191
21
-3.24609
0
LINE
8
BLACK
6
CONTINUOUS
10
5.95191
20
-3.24609
11
5.9543
21
-3.2443
0
LINE
8
BLACK
6
CONTINUOUS
10
5.9543
20
-3.2443
11
5.95775
21
-3.23969
0
LINE
8
BLACK
6
CONTINUOUS
10
5.95775
20
-3.23969
11
5.95976
21
-3.2343
0
LINE
8
BLACK
6
CONTINUOUS
10
5.95976
20
-3.2343
11
5.95991
21
-3.23298
0
LINE
8
BLACK
6
CONTINUOUS
10
5.95991
20
-3.23298
11
5.96002
21
-3.23192
0
LINE
8
BLACK
6
CONTINUOUS
10
5.96002
20
-3.23192
11
5.96002
21
-3.23191
0
LINE
8
BLACK
6
CONTINUOUS
10
5.96002
20
-3.23191
11
5.96002
21
-3.16809
0
LINE
8
BLACK
6
CONTINUOUS
10
5.96002
20
-3.16809
11
5.96002
21
-3.16808
0
LINE
8
BLACK
6
CONTINUOUS
10
5.96002
20
-3.16808
11
5.95988
21
-3.16682
0
LINE
8
BLACK
6
CONTINUOUS
10
5.95988
20
-3.16682
11
5.95976
21
-3.1657
0
LINE
8
BLACK
6
CONTINUOUS
10
5.95976
20
-3.1657
11
5.95952
21
-3.16504
0
LINE
8
BLACK
6
CONTINUOUS
10
5.95952
20
-3.16504
11
5.95851
21
-3.16233
0
LINE
8
BLACK
6
CONTINUOUS
10
5.95851
20
-3.16233
11
5.95775
21
-3.16031
0
LINE
8
BLACK
6
CONTINUOUS
10
5.95775
20
-3.16031
11
5.9543
21
-3.1557
0
LINE
8
BLACK
6
CONTINUOUS
10
5.9543
20
-3.1557
11
5.94969
21
-3.15225
0
LINE
8
BLACK
6
CONTINUOUS
10
5.94969
20
-3.15225
11
5.94969
21
-3.15225
0
LINE
8
BLACK
6
CONTINUOUS
10
5.94969
20
-3.15225
11
5.9443
21
-3.15024
0
LINE
8
BLACK
6
CONTINUOUS
10
5.9443
20
-3.15024
11
5.94192
21
-3.14998
0
LINE
8
BLACK
6
CONTINUOUS
10
5.94192
20
-3.14998
11
5.94191
21
-3.14998
0
LINE
8
BLACK
6
CONTINUOUS
10
5.94191
20
-3.14998
11
5.87809
21
-3.14998
0
LINE
8
BLACK
6
CONTINUOUS
10
5.87809
20
-3.14998
11
5.87808
21
-3.14998
0
LINE
8
BLACK
6
CONTINUOUS
10
5.87808
20
-3.14998
11
5.8757
21
-3.15024
0
LINE
8
BLACK
6
CONTINUOUS
10
5.8757
20
-3.15024
11
5.8757
21
-3.15024
0
LINE
8
BLACK
6
CONTINUOUS
10
5.8757
20
-3.15024
11
5.87031
21
-3.15225
0
LINE
8
BLACK
6
CONTINUOUS
10
5.87031
20
-3.15225
11
5.8657
21
-3.1557
0
LINE
8
BLACK
6
CONTINUOUS
10
5.8657
20
-3.1557
11
5.86391
21
-3.15809
0
LINE
8
BLACK
6
CONTINUOUS
10
5.86391
20
-3.15809
11
5.86171
21
-3.15974
0
LINE
8
BLACK
6
CONTINUOUS
10
5.86171
20
-3.15974
11
5.85896
21
-3.15993
0
LINE
8
BLACK
6
CONTINUOUS
10
5.85896
20
-3.15993
11
5.85655
21
-3.15862
0
LINE
8
BLACK
6
CONTINUOUS
10
5.85655
20
-3.15862
11
5.85609
21
-3.15809
0
LINE
8
BLACK
6
CONTINUOUS
10
5.85609
20
-3.15809
11
5.8543
21
-3.1557
0
LINE
8
BLACK
6
CONTINUOUS
10
5.8543
20
-3.1557
11
5.8543
21
-3.1557
0
LINE
8
BLACK
6
CONTINUOUS
10
5.8543
20
-3.1557
11
5.8543
21
-3.1557
0
LINE
8
BLACK
6
CONTINUOUS
10
5.8543
20
-3.1557
11
5.84969
21
-3.15225
0
LINE
8
BLACK
6
CONTINUOUS
10
5.84969
20
-3.15225
11
5.84969
21
-3.15225
0
LINE
8
BLACK
6
CONTINUOUS
10
5.84969
20
-3.15225
11
5.8443
21
-3.15024
0
LINE
8
BLACK
6
CONTINUOUS
10
5.8443
20
-3.15024
11
5.84192
21
-3.14998
0
LINE
8
BLACK
6
CONTINUOUS
10
5.84192
20
-3.14998
11
5.84191
21
-3.14998
0
LINE
8
BLACK
6
CONTINUOUS
10
5.84191
20
-3.14998
11
5.77809
21
-3.14998
0
LINE
8
BLACK
6
CONTINUOUS
10
5.77809
20
-3.14998
11
5.77808
21
-3.14998
0
LINE
8
BLACK
6
CONTINUOUS
10
5.77808
20
-3.14998
11
5.7757
21
-3.15024
0
LINE
8
BLACK
6
CONTINUOUS
10
5.7757
20
-3.15024
11
5.7757
21
-3.15024
0
LINE
8
BLACK
6
CONTINUOUS
10
5.7757
20
-3.15024
11
5.77031
21
-3.15225
0
LINE
8
BLACK
6
CONTINUOUS
10
5.77031
20
-3.15225
11
5.7657
21
-3.1557
0
LINE
8
BLACK
6
CONTINUOUS
10
5.7657
20
-3.1557
11
5.76225
21
-3.16031
0
LINE
8
BLACK
6
CONTINUOUS
10
5.76225
20
-3.16031
11
5.76024
21
-3.1657
0
LINE
8
BLACK
6
CONTINUOUS
10
5.76024
20
-3.1657
11
5.76024
21
-3.1657
0
LINE
8
BLACK
6
CONTINUOUS
10
5.76024
20
-3.1657
11
5.75998
21
-3.16808
0
LINE
8
BLACK
6
CONTINUOUS
10
5.75998
20
-3.16808
11
5.75998
21
-3.17038
0
LINE
8
BLACK
6
CONTINUOUS
10
5.75998
20
-3.17038
11
5.75921
21
-3.17302
0
LINE
8
BLACK
6
CONTINUOUS
10
5.75921
20
-3.17302
11
5.75713
21
-3.17482
0
LINE
8
BLACK
6
CONTINUOUS
10
5.75713
20
-3.17482
11
5.75635
21
-3.17505
0
LINE
8
BLACK
6
CONTINUOUS
10
5.75635
20
-3.17505
11
5.75636
21
-3.17508
0
LINE
8
BLACK
6
CONTINUOUS
10
5.75636
20
-3.17508
11
5.7553
21
-3.17539
0
LINE
8
BLACK
6
CONTINUOUS
10
5.7553
20
-3.17539
11
5.75455
21
-3.17555
0
LINE
8
BLACK
6
CONTINUOUS
10
5.75455
20
-3.17555
11
5.75375
21
-3.17565
0
LINE
8
BLACK
6
CONTINUOUS
10
5.75375
20
-3.17565
11
5.75375
21
-3.17565
0
LINE
8
BLACK
6
CONTINUOUS
10
5.75375
20
-3.17565
11
5.75375
21
-3.17565
0
LINE
8
BLACK
6
CONTINUOUS
10
5.75375
20
-3.17565
11
5.75202
21
-3.17634
0
LINE
8
BLACK
6
CONTINUOUS
10
5.75202
20
-3.17634
11
5.7518
21
-3.17641
0
LINE
8
BLACK
6
CONTINUOUS
10
5.7518
20
-3.17641
11
5.75002
21
-3.17693
0
LINE
8
BLACK
6
CONTINUOUS
10
5.75002
20
-3.17693
11
5.74932
21
-3.17734
0
LINE
8
BLACK
6
CONTINUOUS
10
5.74932
20
-3.17734
11
5.74864
21
-3.17767
0
LINE
8
BLACK
6
CONTINUOUS
10
5.74864
20
-3.17767
11
5.74789
21
-3.17797
0
LINE
8
BLACK
6
CONTINUOUS
10
5.74789
20
-3.17797
11
5.74789
21
-3.17797
0
LINE
8
BLACK
6
CONTINUOUS
10
5.74789
20
-3.17797
11
5.74639
21
-3.17906
0
LINE
8
BLACK
6
CONTINUOUS
10
5.74639
20
-3.17906
11
5.74619
21
-3.17919
0
LINE
8
BLACK
6
CONTINUOUS
10
5.74619
20
-3.17919
11
5.74459
21
-3.18014
0
LINE
8
BLACK
6
CONTINUOUS
10
5.74459
20
-3.18014
11
5.74402
21
-3.1807
0
LINE
8
BLACK
6
CONTINUOUS
10
5.74402
20
-3.1807
11
5.74344
21
-3.1812
0
LINE
8
BLACK
6
CONTINUOUS
10
5.74344
20
-3.1812
11
5.74279
21
-3.18167
0
LINE
8
BLACK
6
CONTINUOUS
10
5.74279
20
-3.18167
11
5.74279
21
-3.18167
0
LINE
8
BLACK
6
CONTINUOUS
10
5.74279
20
-3.18167
11
5.74161
21
-3.18311
0
LINE
8
BLACK
6
CONTINUOUS
10
5.74161
20
-3.18311
11
5.74145
21
-3.18328
0
LINE
8
BLACK
6
CONTINUOUS
10
5.74145
20
-3.18328
11
5.70949
21
-3.21524
0
LINE
8
BLACK
6
CONTINUOUS
10
5.70949
20
-3.21524
11
5.70707
21
-3.21656
0
LINE
8
BLACK
6
CONTINUOUS
10
5.70707
20
-3.21656
11
5.70433
21
-3.21637
0
LINE
8
BLACK
6
CONTINUOUS
10
5.70433
20
-3.21637
11
5.70212
21
-3.21472
0
LINE
8
BLACK
6
CONTINUOUS
10
5.70212
20
-3.21472
11
5.70188
21
-3.21435
0
LINE
8
BLACK
6
CONTINUOUS
10
5.70188
20
-3.21435
11
5.70182
21
-3.21426
0
LINE
8
BLACK
6
CONTINUOUS
10
5.70182
20
-3.21426
11
5.7011
21
-3.21161
0
LINE
8
BLACK
6
CONTINUOUS
10
5.7011
20
-3.21161
11
5.70192
21
-3.20899
0
LINE
8
BLACK
6
CONTINUOUS
10
5.70192
20
-3.20899
11
5.70253
21
-3.20825
0
LINE
8
BLACK
6
CONTINUOUS
10
5.70253
20
-3.20825
11
5.70343
21
-3.20735
0
LINE
8
BLACK
6
CONTINUOUS
10
5.70343
20
-3.20735
11
5.70709
21
-3.20141
0
LINE
8
BLACK
6
CONTINUOUS
10
5.70709
20
-3.20141
11
5.70929
21
-3.19478
0
LINE
8
BLACK
6
CONTINUOUS
10
5.70929
20
-3.19478
11
5.7097
21
-3.19069
0
LINE
8
BLACK
6
CONTINUOUS
10
5.7097
20
-3.19069
11
5.7097
21
-3.14931
0
LINE
8
BLACK
6
CONTINUOUS
10
5.7097
20
-3.14931
11
5.70929
21
-3.14522
0
LINE
8
BLACK
6
CONTINUOUS
10
5.70929
20
-3.14522
11
5.70709
21
-3.13859
0
LINE
8
BLACK
6
CONTINUOUS
10
5.70709
20
-3.13859
11
5.70343
21
-3.13265
0
LINE
8
BLACK
6
CONTINUOUS
10
5.70343
20
-3.13265
11
5.69895
21
-3.12817
0
LINE
8
BLACK
6
CONTINUOUS
10
5.69895
20
-3.12817
11
5.69763
21
-3.12576
0
LINE
8
BLACK
6
CONTINUOUS
10
5.69763
20
-3.12576
11
5.69752
21
-3.12472
0
LINE
8
BLACK
6
CONTINUOUS
10
5.69752
20
-3.12472
11
5.69752
21
-3.12091
0
LINE
8
BLACK
6
CONTINUOUS
10
5.69752
20
-3.12091
11
5.69752
21
-3.12076
0
LINE
8
BLACK
6
CONTINUOUS
10
5.69752
20
-3.12076
11
5.69767
21
-3.11833
0
LINE
8
BLACK
6
CONTINUOUS
10
5.69767
20
-3.11833
11
5.69723
21
-3.11593
0
LINE
8
BLACK
6
CONTINUOUS
10
5.69723
20
-3.11593
11
5.69721
21
-3.11578
0
LINE
8
BLACK
6
CONTINUOUS
10
5.69721
20
-3.11578
11
5.69692
21
-3.11337
0
LINE
8
BLACK
6
CONTINUOUS
10
5.69692
20
-3.11337
11
5.69678
21
-3.11299
0
LINE
8
BLACK
6
CONTINUOUS
10
5.69678
20
-3.11299
11
5.69654
21
-3.11214
0
LINE
8
BLACK
6
CONTINUOUS
10
5.69654
20
-3.11214
11
5.69647
21
-3.11175
0
LINE
8
BLACK
6
CONTINUOUS
10
5.69647
20
-3.11175
11
5.69547
21
-3.10953
0
LINE
8
BLACK
6
CONTINUOUS
10
5.69547
20
-3.10953
11
5.69541
21
-3.10939
0
LINE
8
BLACK
6
CONTINUOUS
10
5.69541
20
-3.10939
11
5.69455
21
-3.10712
0
LINE
8
BLACK
6
CONTINUOUS
10
5.69455
20
-3.10712
11
5.69455
21
-3.10712
0
LINE
8
BLACK
6
CONTINUOUS
10
5.69455
20
-3.10712
11
5.69455
21
-3.10712
0
LINE
8
BLACK
6
CONTINUOUS
10
5.69455
20
-3.10712
11
5.69432
21
-3.10679
0
LINE
8
BLACK
6
CONTINUOUS
10
5.69432
20
-3.10679
11
5.69389
21
-3.10602
0
LINE
8
BLACK
6
CONTINUOUS
10
5.69389
20
-3.10602
11
5.69372
21
-3.10566
0
LINE
8
BLACK
6
CONTINUOUS
10
5.69372
20
-3.10566
11
5.69372
21
-3.10566
0
LINE
8
BLACK
6
CONTINUOUS
10
5.69372
20
-3.10566
11
5.69222
21
-3.10374
0
LINE
8
BLACK
6
CONTINUOUS
10
5.69222
20
-3.10374
11
5.69213
21
-3.10362
0
LINE
8
BLACK
6
CONTINUOUS
10
5.69213
20
-3.10362
11
5.69075
21
-3.10162
0
LINE
8
BLACK
6
CONTINUOUS
10
5.69075
20
-3.10162
11
5.68893
21
-3.1
0
LINE
8
BLACK
6
CONTINUOUS
10
5.68893
20
-3.1
11
5.68882
21
-3.0999
0
LINE
8
BLACK
6
CONTINUOUS
10
5.68882
20
-3.0999
11
5.67946
21
-3.09054
0
LINE
8
BLACK
6
CONTINUOUS
10
5.67946
20
-3.09054
11
5.6701
21
-3.08118
0
LINE
8
BLACK
6
CONTINUOUS
10
5.6701
20
-3.08118
11
5.67
21
-3.08107
0
LINE
8
BLACK
6
CONTINUOUS
10
5.67
20
-3.08107
11
5.66838
21
-3.07925
0
LINE
8
BLACK
6
CONTINUOUS
10
5.66838
20
-3.07925
11
5.66838
21
-3.07925
0
LINE
8
BLACK
6
CONTINUOUS
10
5.66838
20
-3.07925
11
5.66838
21
-3.07925
0
LINE
8
BLACK
6
CONTINUOUS
10
5.66838
20
-3.07925
11
5.66638
21
-3.07787
0
LINE
8
BLACK
6
CONTINUOUS
10
5.66638
20
-3.07787
11
5.66626
21
-3.07778
0
LINE
8
BLACK
6
CONTINUOUS
10
5.66626
20
-3.07778
11
5.66434
21
-3.07628
0
LINE
8
BLACK
6
CONTINUOUS
10
5.66434
20
-3.07628
11
5.66398
21
-3.07611
0
LINE
8
BLACK
6
CONTINUOUS
10
5.66398
20
-3.07611
11
5.66321
21
-3.07568
0
LINE
8
BLACK
6
CONTINUOUS
10
5.66321
20
-3.07568
11
5.66288
21
-3.07545
0
LINE
8
BLACK
6
CONTINUOUS
10
5.66288
20
-3.07545
11
5.66288
21
-3.07545
0
LINE
8
BLACK
6
CONTINUOUS
10
5.66288
20
-3.07545
11
5.6606
21
-3.07459
0
LINE
8
BLACK
6
CONTINUOUS
10
5.6606
20
-3.07459
11
5.66047
21
-3.07453
0
LINE
8
BLACK
6
CONTINUOUS
10
5.66047
20
-3.07453
11
5.65825
21
-3.07353
0
LINE
8
BLACK
6
CONTINUOUS
10
5.65825
20
-3.07353
11
5.65825
21
-3.07353
0
LINE
8
BLACK
6
CONTINUOUS
10
5.65825
20
-3.07353
11
5.65786
21
-3.07346
0
LINE
8
BLACK
6
CONTINUOUS
10
5.65786
20
-3.07346
11
5.65701
21
-3.07322
0
LINE
8
BLACK
6
CONTINUOUS
10
5.65701
20
-3.07322
11
5.65663
21
-3.07308
0
LINE
8
BLACK
6
CONTINUOUS
10
5.65663
20
-3.07308
11
5.65422
21
-3.07279
0
LINE
8
BLACK
6
CONTINUOUS
10
5.65422
20
-3.07279
11
5.65407
21
-3.07277
0
LINE
8
BLACK
6
CONTINUOUS
10
5.65407
20
-3.07277
11
5.65248
21
-3.07248
0
LINE
8
BLACK
6
CONTINUOUS
10
5.65248
20
-3.07248
11
5.65167
21
-3.07233
0
LINE
8
BLACK
6
CONTINUOUS
10
5.65167
20
-3.07233
11
5.65167
21
-3.07233
0
LINE
8
BLACK
6
CONTINUOUS
10
5.65167
20
-3.07233
11
5.64924
21
-3.07248
0
LINE
8
BLACK
6
CONTINUOUS
10
5.64924
20
-3.07248
11
5.64909
21
-3.07248
0
LINE
8
BLACK
6
CONTINUOUS
10
5.64909
20
-3.07248
11
5.54091
21
-3.07248
0
LINE
8
BLACK
6
CONTINUOUS
10
5.54091
20
-3.07248
11
5.54076
21
-3.07248
0
LINE
8
BLACK
6
CONTINUOUS
10
5.54076
20
-3.07248
11
5.53833
21
-3.07233
0
LINE
8
BLACK
6
CONTINUOUS
10
5.53833
20
-3.07233
11
5.53833
21
-3.07233
0
LINE
8
BLACK
6
CONTINUOUS
10
5.53833
20
-3.07233
11
5.5363
21
-3.0727
0
LINE
8
BLACK
6
CONTINUOUS
10
5.5363
20
-3.0727
11
5.53593
21
-3.07277
0
LINE
8
BLACK
6
CONTINUOUS
10
5.53593
20
-3.07277
11
5.53578
21
-3.07279
0
LINE
8
BLACK
6
CONTINUOUS
10
5.53578
20
-3.07279
11
5.53337
21
-3.07308
0
LINE
8
BLACK
6
CONTINUOUS
10
5.53337
20
-3.07308
11
5.53337
21
-3.07308
0
LINE
8
BLACK
6
CONTINUOUS
10
5.53337
20
-3.07308
11
5.53299
21
-3.07322
0
LINE
8
BLACK
6
CONTINUOUS
10
5.53299
20
-3.07322
11
5.53214
21
-3.07346
0
LINE
8
BLACK
6
CONTINUOUS
10
5.53214
20
-3.07346
11
5.53175
21
-3.07353
0
LINE
8
BLACK
6
CONTINUOUS
10
5.53175
20
-3.07353
11
5.52953
21
-3.07453
0
LINE
8
BLACK
6
CONTINUOUS
10
5.52953
20
-3.07453
11
5.5294
21
-3.07459
0
LINE
8
BLACK
6
CONTINUOUS
10
5.5294
20
-3.07459
11
5.52712
21
-3.07545
0
LINE
8
BLACK
6
CONTINUOUS
10
5.52712
20
-3.07545
11
5.52679
21
-3.07568
0
LINE
8
BLACK
6
CONTINUOUS
10
5.52679
20
-3.07568
11
5.52602
21
-3.07611
0
LINE
8
BLACK
6
CONTINUOUS
10
5.52602
20
-3.07611
11
5.52566
21
-3.07628
0
LINE
8
BLACK
6
CONTINUOUS
10
5.52566
20
-3.07628
11
5.52566
21
-3.07628
0
LINE
8
BLACK
6
CONTINUOUS
10
5.52566
20
-3.07628
11
5.52374
21
-3.07778
0
LINE
8
BLACK
6
CONTINUOUS
10
5.52374
20
-3.07778
11
5.52362
21
-3.07787
0
LINE
8
BLACK
6
CONTINUOUS
10
5.52362
20
-3.07787
11
5.52162
21
-3.07925
0
LINE
8
BLACK
6
CONTINUOUS
10
5.52162
20
-3.07925
11
5.52162
21
-3.07925
0
LINE
8
BLACK
6
CONTINUOUS
10
5.52162
20
-3.07925
11
5.52
21
-3.08107
0
LINE
8
BLACK
6
CONTINUOUS
10
5.52
20
-3.08107
11
5.5199
21
-3.08118
0
LINE
8
BLACK
6
CONTINUOUS
10
5.5199
20
-3.08118
11
5.48003
21
-3.12105
0
LINE
8
BLACK
6
CONTINUOUS
10
5.48003
20
-3.12105
11
5.47762
21
-3.12237
0
LINE
8
BLACK
6
CONTINUOUS
10
5.47762
20
-3.12237
11
5.47658
21
-3.12248
0
LINE
8
BLACK
6
CONTINUOUS
10
5.47658
20
-3.12248
11
5.47091
21
-3.12248
0
LINE
8
BLACK
6
CONTINUOUS
10
5.47091
20
-3.12248
11
5.47076
21
-3.12248
0
LINE
8
BLACK
6
CONTINUOUS
10
5.47076
20
-3.12248
11
5.46833
21
-3.12233
0
LINE
8
BLACK
6
CONTINUOUS
10
5.46833
20
-3.12233
11
5.46833
21
-3.12233
0
LINE
8
BLACK
6
CONTINUOUS
10
5.46833
20
-3.12233
11
5.4663
21
-3.1227
0
LINE
8
BLACK
6
CONTINUOUS
10
5.4663
20
-3.1227
11
5.46593
21
-3.12277
0
LINE
8
BLACK
6
CONTINUOUS
10
5.46593
20
-3.12277
11
5.46578
21
-3.12279
0
LINE
8
BLACK
6
CONTINUOUS
10
5.46578
20
-3.12279
11
5.46337
21
-3.12308
0
LINE
8
BLACK
6
CONTINUOUS
10
5.46337
20
-3.12308
11
5.46337
21
-3.12308
0
LINE
8
BLACK
6
CONTINUOUS
10
5.46337
20
-3.12308
11
5.46299
21
-3.12322
0
LINE
8
BLACK
6
CONTINUOUS
10
5.46299
20
-3.12322
11
5.46214
21
-3.12346
0
LINE
8
BLACK
6
CONTINUOUS
10
5.46214
20
-3.12346
11
5.46175
21
-3.12353
0
LINE
8
BLACK
6
CONTINUOUS
10
5.46175
20
-3.12353
11
5.45953
21
-3.12453
0
LINE
8
BLACK
6
CONTINUOUS
10
5.45953
20
-3.12453
11
5.4594
21
-3.12459
0
LINE
8
BLACK
6
CONTINUOUS
10
5.4594
20
-3.12459
11
5.45712
21
-3.12545
0
LINE
8
BLACK
6
CONTINUOUS
10
5.45712
20
-3.12545
11
5.45679
21
-3.12568
0
LINE
8
BLACK
6
CONTINUOUS
10
5.45679
20
-3.12568
11
5.45602
21
-3.12611
0
LINE
8
BLACK
6
CONTINUOUS
10
5.45602
20
-3.12611
11
5.45566
21
-3.12628
0
LINE
8
BLACK
6
CONTINUOUS
10
5.45566
20
-3.12628
11
5.45566
21
-3.12628
0
LINE
8
BLACK
6
CONTINUOUS
10
5.45566
20
-3.12628
11
5.45374
21
-3.12778
0
LINE
8
BLACK
6
CONTINUOUS
10
5.45374
20
-3.12778
11
5.45362
21
-3.12787
0
LINE
8
BLACK
6
CONTINUOUS
10
5.45362
20
-3.12787
11
5.45162
21
-3.12925
0
LINE
8
BLACK
6
CONTINUOUS
10
5.45162
20
-3.12925
11
5.45162
21
-3.12925
0
LINE
8
BLACK
6
CONTINUOUS
10
5.45162
20
-3.12925
11
5.45
21
-3.13107
0
LINE
8
BLACK
6
CONTINUOUS
10
5.45
20
-3.13107
11
5.4499
21
-3.13118
0
LINE
8
BLACK
6
CONTINUOUS
10
5.4499
20
-3.13118
11
5.42992
21
-3.15116
0
LINE
8
BLACK
6
CONTINUOUS
10
5.42992
20
-3.15116
11
5.42981
21
-3.15126
0
LINE
8
BLACK
6
CONTINUOUS
10
5.42981
20
-3.15126
11
5.42799
21
-3.15288
0
LINE
8
BLACK
6
CONTINUOUS
10
5.42799
20
-3.15288
11
5.42799
21
-3.15288
0
LINE
8
BLACK
6
CONTINUOUS
10
5.42799
20
-3.15288
11
5.42661
21
-3.15488
0
LINE
8
BLACK
6
CONTINUOUS
10
5.42661
20
-3.15488
11
5.42652
21
-3.155
0
LINE
8
BLACK
6
CONTINUOUS
10
5.42652
20
-3.155
11
5.42502
21
-3.15692
0
LINE
8
BLACK
6
CONTINUOUS
10
5.42502
20
-3.15692
11
5.42502
21
-3.15692
0
LINE
8
BLACK
6
CONTINUOUS
10
5.42502
20
-3.15692
11
5.42485
21
-3.15728
0
LINE
8
BLACK
6
CONTINUOUS
10
5.42485
20
-3.15728
11
5.42442
21
-3.15805
0
LINE
8
BLACK
6
CONTINUOUS
10
5.42442
20
-3.15805
11
5.42419
21
-3.15838
0
LINE
8
BLACK
6
CONTINUOUS
10
5.42419
20
-3.15838
11
5.42333
21
-3.16066
0
LINE
8
BLACK
6
CONTINUOUS
10
5.42333
20
-3.16066
11
5.42327
21
-3.16079
0
LINE
8
BLACK
6
CONTINUOUS
10
5.42327
20
-3.16079
11
5.42288
21
-3.16167
0
LINE
8
BLACK
6
CONTINUOUS
10
5.42288
20
-3.16167
11
5.42109
21
-3.16376
0
LINE
8
BLACK
6
CONTINUOUS
10
5.42109
20
-3.16376
11
5.41845
21
-3.16455
0
LINE
8
BLACK
6
CONTINUOUS
10
5.41845
20
-3.16455
11
5.41843
21
-3.16455
0
LINE
8
BLACK
6
CONTINUOUS
10
5.41843
20
-3.16455
11
5.40887
21
-3.16455
0
LINE
8
BLACK
6
CONTINUOUS
10
5.40887
20
-3.16455
11
5.40649
21
-3.1648
0
LINE
8
BLACK
6
CONTINUOUS
10
5.40649
20
-3.1648
11
5.40649
21
-3.1648
0
LINE
8
BLACK
6
CONTINUOUS
10
5.40649
20
-3.1648
11
5.40109
21
-3.16682
0
LINE
8
BLACK
6
CONTINUOUS
10
5.40109
20
-3.16682
11
5.39649
21
-3.17027
0
LINE
8
BLACK
6
CONTINUOUS
10
5.39649
20
-3.17027
11
5.39304
21
-3.17487
0
LINE
8
BLACK
6
CONTINUOUS
10
5.39304
20
-3.17487
11
5.39102
21
-3.18027
0
LINE
8
BLACK
6
CONTINUOUS
10
5.39102
20
-3.18027
11
5.39102
21
-3.18027
0
LINE
8
BLACK
6
CONTINUOUS
10
5.39102
20
-3.18027
11
5.39077
21
-3.18265
0
LINE
8
BLACK
6
CONTINUOUS
10
5.39077
20
-3.18265
11
5.39077
21
-3.25735
0
LINE
8
BLACK
6
CONTINUOUS
10
5.39077
20
-3.25735
11
5.39102
21
-3.25973
0
LINE
8
BLACK
6
CONTINUOUS
10
5.39102
20
-3.25973
11
5.39102
21
-3.25973
0
LINE
8
BLACK
6
CONTINUOUS
10
5.39102
20
-3.25973
11
5.392
21
-3.26235
0
LINE
8
BLACK
6
CONTINUOUS
10
5.392
20
-3.26235
11
5.39304
21
-3.26513
0
LINE
8
BLACK
6
CONTINUOUS
10
5.39304
20
-3.26513
11
5.39649
21
-3.26973
0
LINE
8
BLACK
6
CONTINUOUS
10
5.39649
20
-3.26973
11
5.40109
21
-3.27318
0
LINE
8
BLACK
6
CONTINUOUS
10
5.40109
20
-3.27318
11
5.40519
21
-3.27471
0
LINE
8
BLACK
6
CONTINUOUS
10
5.40519
20
-3.27471
11
5.40628
21
-3.27512
0
LINE
8
BLACK
6
CONTINUOUS
10
5.40628
20
-3.27512
11
5.40649
21
-3.2752
0
LINE
8
BLACK
6
CONTINUOUS
10
5.40649
20
-3.2752
11
5.40756
21
-3.27531
0
LINE
8
BLACK
6
CONTINUOUS
10
5.40756
20
-3.27531
11
5.40887
21
-3.27545
0
LINE
8
BLACK
6
CONTINUOUS
10
5.40887
20
-3.27545
11
5.40887
21
-3.27545
0
LINE
8
BLACK
6
CONTINUOUS
10
5.40887
20
-3.27545
11
5.41634
21
-3.27545
0
LINE
8
BLACK
6
CONTINUOUS
10
5.41634
20
-3.27545
11
5.41898
21
-3.27623
0
LINE
8
BLACK
6
CONTINUOUS
10
5.41898
20
-3.27623
11
5.42078
21
-3.27831
0
LINE
8
BLACK
6
CONTINUOUS
10
5.42078
20
-3.27831
11
5.42122
21
-3.28033
0
LINE
8
BLACK
6
CONTINUOUS
10
5.42122
20
-3.28033
11
5.42122
21
-3.34543
0
LINE
8
BLACK
6
CONTINUOUS
10
5.42122
20
-3.34543
11
5.42045
21
-3.34807
0
LINE
8
BLACK
6
CONTINUOUS
10
5.42045
20
-3.34807
11
5.41837
21
-3.34987
0
LINE
8
BLACK
6
CONTINUOUS
10
5.41837
20
-3.34987
11
5.41634
21
-3.35031
0
LINE
8
BLACK
6
CONTINUOUS
10
5.41634
20
-3.35031
11
5.39984
21
-3.35031
0
LINE
8
BLACK
6
CONTINUOUS
10
5.39984
20
-3.35031
11
5.39984
21
-3.37
0
LINE
8
BLACK
6
CONTINUOUS
10
5.39984
20
-3.37
11
5.42
21
-3.37
0
LINE
8
BLACK
6
CONTINUOUS
10
5.42
20
-3.37
11
5.42
21
-3.43
0
LINE
8
BLACK
6
CONTINUOUS
10
5.42
20
-3.43
11
5.36
21
-3.43
0
LINE
8
BLACK
6
CONTINUOUS
10
5.36
20
-3.43
11
5.36
21
-3.40984
0
LINE
8
BLACK
6
CONTINUOUS
10
5.36
20
-3.40984
11
5.32
21
-3.40984
0
LINE
8
BLACK
6
CONTINUOUS
10
5.32
20
-3.40984
11
5.32
21
-3.43
0
LINE
8
BLACK
6
CONTINUOUS
10
5.32
20
-3.43
11
5.26
21
-3.43
0
LINE
8
BLACK
6
CONTINUOUS
10
5.26
20
-3.43
11
5.26
21
-3.40984
0
LINE
8
BLACK
6
CONTINUOUS
10
5.26
20
-3.40984
11
5.24031
21
-3.40984
0
LINE
8
BLACK
6
CONTINUOUS
10
5.24031
20
-3.40984
11
5.24031
21
-3.43188
0
LINE
8
BLACK
6
CONTINUOUS
10
5.24031
20
-3.43188
11
5.24057
21
-3.43423
0
LINE
8
BLACK
6
CONTINUOUS
10
5.24057
20
-3.43423
11
5.24057
21
-3.43423
0
LINE
8
BLACK
6
CONTINUOUS
10
5.24057
20
-3.43423
11
5.24255
21
-3.43953
0
LINE
8
BLACK
6
CONTINUOUS
10
5.24255
20
-3.43953
11
5.24255
21
-3.43953
0
LINE
8
BLACK
6
CONTINUOUS
10
5.24255
20
-3.43953
11
5.24594
21
-3.44406
0
LINE
8
BLACK
6
CONTINUOUS
10
5.24594
20
-3.44406
11
5.24837
21
-3.44588
0
LINE
8
BLACK
6
CONTINUOUS
10
5.24837
20
-3.44588
11
5.25002
21
-3.44808
0
LINE
8
BLACK
6
CONTINUOUS
10
5.25002
20
-3.44808
11
5.25021
21
-3.45083
0
LINE
8
BLACK
6
CONTINUOUS
10
5.25021
20
-3.45083
11
5.2489
21
-3.45324
0
LINE
8
BLACK
6
CONTINUOUS
10
5.2489
20
-3.45324
11
5.24837
21
-3.4537
0
LINE
8
BLACK
6
CONTINUOUS
10
5.24837
20
-3.4537
11
5.2457
21
-3.4557
0
LINE
8
BLACK
6
CONTINUOUS
10
5.2457
20
-3.4557
11
5.2457
21
-3.4557
0
LINE
8
BLACK
6
CONTINUOUS
10
5.2457
20
-3.4557
11
5.2457
21
-3.4557
0
LINE
8
BLACK
6
CONTINUOUS
10
5.2457
20
-3.4557
11
5.2457
21
-3.4557
0
LINE
8
BLACK
6
CONTINUOUS
10
5.2457
20
-3.4557
11
5.24225
21
-3.46031
0
LINE
8
BLACK
6
CONTINUOUS
10
5.24225
20
-3.46031
11
5.24024
21
-3.4657
0
LINE
8
BLACK
6
CONTINUOUS
10
5.24024
20
-3.4657
11
5.24024
21
-3.4657
0
LINE
8
BLACK
6
CONTINUOUS
10
5.24024
20
-3.4657
11
5.23998
21
-3.46808
0
LINE
8
BLACK
6
CONTINUOUS
10
5.23998
20
-3.46808
11
5.23998
21
-3.53192
0
LINE
8
BLACK
6
CONTINUOUS
10
5.23998
20
-3.53192
11
5.24024
21
-3.5343
0
LINE
8
BLACK
6
CONTINUOUS
10
5.24031
20
-3.60984
11
5.24031
21
-3.63188
0
LINE
8
BLACK
6
CONTINUOUS
10
5.24031
20
-3.63188
11
5.24057
21
-3.63423
0
LINE
8
BLACK
6
CONTINUOUS
10
5.24057
20
-3.63423
11
5.24057
21
-3.63423
0
LINE
8
BLACK
6
CONTINUOUS
10
5.24057
20
-3.63423
11
5.24255
21
-3.63953
0
LINE
8
BLACK
6
CONTINUOUS
10
5.24255
20
-3.63953
11
5.24255
21
-3.63953
0
LINE
8
BLACK
6
CONTINUOUS
10
5.24255
20
-3.63953
11
5.24594
21
-3.64406
0
LINE
8
BLACK
6
CONTINUOUS
10
5.24594
20
-3.64406
11
5.24594
21
-3.64406
0
LINE
8
BLACK
6
CONTINUOUS
10
5.24594
20
-3.64406
11
5.25047
21
-3.64745
0
LINE
8
BLACK
6
CONTINUOUS
10
5.25047
20
-3.64745
11
5.25047
21
-3.64745
0
LINE
8
BLACK
6
CONTINUOUS
10
5.25047
20
-3.64745
11
5.25577
21
-3.64943
0
LINE
8
BLACK
6
CONTINUOUS
10
5.25577
20
-3.64943
11
5.25577
21
-3.64943
0
LINE
8
BLACK
6
CONTINUOUS
10
5.25577
20
-3.64943
11
5.25812
21
-3.64968
0
LINE
8
BLACK
6
CONTINUOUS
10
5.25812
20
-3.64968
11
5.25812
21
-3.64969
0
LINE
8
BLACK
6
CONTINUOUS
10
5.25812
20
-3.64969
11
5.28016
21
-3.64969
0
LINE
8
BLACK
6
CONTINUOUS
10
5.28016
20
-3.64969
11
5.28016
21
-3.63
0
LINE
8
BLACK
6
CONTINUOUS
10
5.28016
20
-3.63
11
5.26
21
-3.63
0
LINE
8
BLACK
6
CONTINUOUS
10
5.26
20
-3.63
11
5.26
21
-3.60984
0
LINE
8
BLACK
6
CONTINUOUS
10
5.26
20
-3.60984
11
5.24031
21
-3.60984
0
LINE
8
BLACK
6
CONTINUOUS
10
5.32
20
-3.60984
11
5.32
21
-3.63
0
LINE
8
BLACK
6
CONTINUOUS
10
5.32
20
-3.63
11
5.29984
21
-3.63
0
LINE
8
BLACK
6
CONTINUOUS
10
5.29984
20
-3.63
11
5.29984
21
-3.64969
0
LINE
8
BLACK
6
CONTINUOUS
10
5.29984
20
-3.64969
11
5.32188
21
-3.64969
0
LINE
8
BLACK
6
CONTINUOUS
10
5.32188
20
-3.64969
11
5.32188
21
-3.64968
0
LINE
8
BLACK
6
CONTINUOUS
10
5.32188
20
-3.64968
11
5.32423
21
-3.64943
0
LINE
8
BLACK
6
CONTINUOUS
10
5.32423
20
-3.64943
11
5.32423
21
-3.64943
0
LINE
8
BLACK
6
CONTINUOUS
10
5.32423
20
-3.64943
11
5.32953
21
-3.64745
0
LINE
8
BLACK
6
CONTINUOUS
10
5.32953
20
-3.64745
11
5.32953
21
-3.64745
0
LINE
8
BLACK
6
CONTINUOUS
10
5.32953
20
-3.64745
11
5.33406
21
-3.64406
0
LINE
8
BLACK
6
CONTINUOUS
10
5.33406
20
-3.64406
11
5.33609
21
-3.64135
0
LINE
8
BLACK
6
CONTINUOUS
10
5.33609
20
-3.64135
11
5.33829
21
-3.6397
0
LINE
8
BLACK
6
CONTINUOUS
10
5.33829
20
-3.6397
11
5.34104
21
-3.63951
0
LINE
8
BLACK
6
CONTINUOUS
10
5.34104
20
-3.63951
11
5.34345
21
-3.64083
0
LINE
8
BLACK
6
CONTINUOUS
10
5.34345
20
-3.64083
11
5.34391
21
-3.64135
0
LINE
8
BLACK
6
CONTINUOUS
10
5.34391
20
-3.64135
11
5.34594
21
-3.64406
0
LINE
8
BLACK
6
CONTINUOUS
10
5.34594
20
-3.64406
11
5.35047
21
-3.64745
0
LINE
8
BLACK
6
CONTINUOUS
10
5.35047
20
-3.64745
11
5.35047
21
-3.64745
0
LINE
8
BLACK
6
CONTINUOUS
10
5.35047
20
-3.64745
11
5.35577
21
-3.64943
0
LINE
8
BLACK
6
CONTINUOUS
10
5.35577
20
-3.64943
11
5.35577
21
-3.64943
0
LINE
8
BLACK
6
CONTINUOUS
10
5.35577
20
-3.64943
11
5.35812
21
-3.64968
0
LINE
8
BLACK
6
CONTINUOUS
10
5.35812
20
-3.64968
11
5.35812
21
-3.64969
0
LINE
8
BLACK
6
CONTINUOUS
10
5.35812
20
-3.64969
11
5.38016
21
-3.64969
0
LINE
8
BLACK
6
CONTINUOUS
10
5.38016
20
-3.64969
11
5.38016
21
-3.63
0
LINE
8
BLACK
6
CONTINUOUS
10
5.38016
20
-3.63
11
5.36
21
-3.63
0
LINE
8
BLACK
6
CONTINUOUS
10
5.36
20
-3.63
11
5.36
21
-3.60984
0
LINE
8
BLACK
6
CONTINUOUS
10
5.36
20
-3.60984
11
5.32
21
-3.60984
0
LINE
8
BLACK
6
CONTINUOUS
10
5.42
20
-3.63
11
5.39984
21
-3.63
0
LINE
8
BLACK
6
CONTINUOUS
10
5.39984
20
-3.63
11
5.39984
21
-3.64969
0
LINE
8
BLACK
6
CONTINUOUS
10
5.39984
20
-3.64969
11
5.42188
21
-3.64969
0
LINE
8
BLACK
6
CONTINUOUS
10
5.42188
20
-3.64969
11
5.42188
21
-3.64968
0
LINE
8
BLACK
6
CONTINUOUS
10
5.42188
20
-3.64968
11
5.42423
21
-3.64943
0
LINE
8
BLACK
6
CONTINUOUS
10
5.42423
20
-3.64943
11
5.42423
21
-3.64943
0
LINE
8
BLACK
6
CONTINUOUS
10
5.42423
20
-3.64943
11
5.42953
21
-3.64745
0
LINE
8
BLACK
6
CONTINUOUS
10
5.42953
20
-3.64745
11
5.42953
21
-3.64745
0
LINE
8
BLACK
6
CONTINUOUS
10
5.42953
20
-3.64745
11
5.43406
21
-3.64406
0
LINE
8
BLACK
6
CONTINUOUS
10
5.43406
20
-3.64406
11
5.43406
21
-3.64406
0
LINE
8
BLACK
6
CONTINUOUS
10
5.43406
20
-3.64406
11
5.43745
21
-3.63953
0
LINE
8
BLACK
6
CONTINUOUS
10
5.43745
20
-3.63953
11
5.43745
21
-3.63953
0
LINE
8
BLACK
6
CONTINUOUS
10
5.43745
20
-3.63953
11
5.43757
21
-3.63921
0
LINE
8
BLACK
6
CONTINUOUS
10
5.43757
20
-3.63921
11
5.43943
21
-3.63423
0
LINE
8
BLACK
6
CONTINUOUS
10
5.43943
20
-3.63423
11
5.43943
21
-3.63423
0
LINE
8
BLACK
6
CONTINUOUS
10
5.43943
20
-3.63423
11
5.43968
21
-3.63188
0
LINE
8
BLACK
6
CONTINUOUS
10
5.43968
20
-3.63188
11
5.43969
21
-3.63188
0
LINE
8
BLACK
6
CONTINUOUS
10
5.43969
20
-3.63188
11
5.43969
21
-3.61953
0
LINE
8
BLACK
6
CONTINUOUS
10
5.43969
20
-3.61953
11
5.43969
21
-3.60984
0
LINE
8
BLACK
6
CONTINUOUS
10
5.43969
20
-3.60984
11
5.42
21
-3.60984
0
LINE
8
BLACK
6
CONTINUOUS
10
5.42
20
-3.60984
11
5.42
21
-3.63
0
LINE
8
BLACK
6
CONTINUOUS
10
5.50798
20
-3.57746
11
5.50798
21
-3.57746
0
LINE
8
BLACK
6
CONTINUOUS
10
5.50798
20
-3.57746
11
5.50267
21
-3.57943
0
LINE
8
BLACK
6
CONTINUOUS
10
5.50267
20
-3.57943
11
5.50267
21
-3.57943
0
LINE
8
BLACK
6
CONTINUOUS
10
5.50267
20
-3.57943
11
5.49814
21
-3.58283
0
LINE
8
BLACK
6
CONTINUOUS
10
5.49814
20
-3.58283
11
5.49814
21
-3.58283
0
LINE
8
BLACK
6
CONTINUOUS
10
5.49814
20
-3.58283
11
5.49475
21
-3.58736
0
LINE
8
BLACK
6
CONTINUOUS
10
5.49475
20
-3.58736
11
5.49475
21
-3.58736
0
LINE
8
BLACK
6
CONTINUOUS
10
5.49475
20
-3.58736
11
5.49277
21
-3.59266
0
LINE
8
BLACK
6
CONTINUOUS
10
5.49277
20
-3.59266
11
5.49277
21
-3.59266
0
LINE
8
BLACK
6
CONTINUOUS
10
5.49277
20
-3.59266
11
5.49252
21
-3.59501
0
LINE
8
BLACK
6
CONTINUOUS
10
5.49252
20
-3.59501
11
5.49252
21
-3.61953
0
LINE
8
BLACK
6
CONTINUOUS
10
5.49252
20
-3.61953
11
5.5122
21
-3.61953
0
LINE
8
BLACK
6
CONTINUOUS
10
5.5122
20
-3.61953
11
5.5122
21
-3.59689
0
LINE
8
BLACK
6
CONTINUOUS
10
5.5122
20
-3.59689
11
5.51516
21
-3.59689
0
LINE
8
BLACK
6
CONTINUOUS
10
5.51516
20
-3.59689
11
5.51516
21
-3.5772
0
LINE
8
BLACK
6
CONTINUOUS
10
5.51516
20
-3.5772
11
5.51032
21
-3.5772
0
LINE
8
BLACK
6
CONTINUOUS
10
5.51032
20
-3.5772
11
5.50798
21
-3.57746
0
LINE
8
BLACK
6
CONTINUOUS
10
5.29984
20
-3.37
11
5.32
21
-3.37
0
LINE
8
BLACK
6
CONTINUOUS
10
5.32
20
-3.37
11
5.32
21
-3.39016
0
LINE
8
BLACK
6
CONTINUOUS
10
5.32
20
-3.39016
11
5.36
21
-3.39016
0
LINE
8
BLACK
6
CONTINUOUS
10
5.36
20
-3.39016
11
5.36
21
-3.37
0
LINE
8
BLACK
6
CONTINUOUS
10
5.36
20
-3.37
11
5.38016
21
-3.37
0
LINE
8
BLACK
6
CONTINUOUS
10
5.38016
20
-3.37
11
5.38016
21
-3.35031
0
LINE
8
BLACK
6
CONTINUOUS
10
5.38016
20
-3.35031
11
5.35812
21
-3.35031
0
LINE
8
BLACK
6
CONTINUOUS
10
5.35812
20
-3.35031
11
5.35577
21
-3.35057
0
LINE
8
BLACK
6
CONTINUOUS
10
5.35577
20
-3.35057
11
5.35577
21
-3.35057
0
LINE
8
BLACK
6
CONTINUOUS
10
5.35577
20
-3.35057
11
5.35047
21
-3.35255
0
LINE
8
BLACK
6
CONTINUOUS
10
5.35047
20
-3.35255
11
5.35047
21
-3.35255
0
LINE
8
BLACK
6
CONTINUOUS
10
5.35047
20
-3.35255
11
5.34594
21
-3.35594
0
LINE
8
BLACK
6
CONTINUOUS
10
5.34594
20
-3.35594
11
5.34391
21
-3.35865
0
LINE
8
BLACK
6
CONTINUOUS
10
5.34391
20
-3.35865
11
5.34171
21
-3.3603
0
LINE
8
BLACK
6
CONTINUOUS
10
5.34171
20
-3.3603
11
5.33896
21
-3.36049
0
LINE
8
BLACK
6
CONTINUOUS
10
5.33896
20
-3.36049
11
5.33655
21
-3.35917
0
LINE
8
BLACK
6
CONTINUOUS
10
5.33655
20
-3.35917
11
5.33609
21
-3.35865
0
LINE
8
BLACK
6
CONTINUOUS
10
5.33609
20
-3.35865
11
5.33406
21
-3.35594
0
LINE
8
BLACK
6
CONTINUOUS
10
5.33406
20
-3.35594
11
5.32953
21
-3.35255
0
LINE
8
BLACK
6
CONTINUOUS
10
5.32953
20
-3.35255
11
5.32953
21
-3.35255
0
LINE
8
BLACK
6
CONTINUOUS
10
5.32953
20
-3.35255
11
5.32423
21
-3.35057
0
LINE
8
BLACK
6
CONTINUOUS
10
5.32423
20
-3.35057
11
5.32423
21
-3.35057
0
LINE
8
BLACK
6
CONTINUOUS
10
5.32423
20
-3.35057
11
5.32188
21
-3.35031
0
LINE
8
BLACK
6
CONTINUOUS
10
5.32188
20
-3.35031
11
5.29984
21
-3.35031
0
LINE
8
BLACK
6
CONTINUOUS
10
5.29984
20
-3.35031
11
5.29984
21
-3.37
0
LINE
8
BLACK
6
CONTINUOUS
10
5.25577
20
-3.35057
11
5.25577
21
-3.35057
0
LINE
8
BLACK
6
CONTINUOUS
10
5.25577
20
-3.35057
11
5.25047
21
-3.35255
0
LINE
8
BLACK
6
CONTINUOUS
10
5.25047
20
-3.35255
11
5.25047
21
-3.35255
0
LINE
8
BLACK
6
CONTINUOUS
10
5.25047
20
-3.35255
11
5.24594
21
-3.35594
0
LINE
8
BLACK
6
CONTINUOUS
10
5.24594
20
-3.35594
11
5.24594
21
-3.35594
0
LINE
8
BLACK
6
CONTINUOUS
10
5.24594
20
-3.35594
11
5.24255
21
-3.36047
0
LINE
8
BLACK
6
CONTINUOUS
10
5.24255
20
-3.36047
11
5.24255
21
-3.36047
0
LINE
8
BLACK
6
CONTINUOUS
10
5.24255
20
-3.36047
11
5.24057
21
-3.36577
0
LINE
8
BLACK
6
CONTINUOUS
10
5.24057
20
-3.36577
11
5.24057
21
-3.36577
0
LINE
8
BLACK
6
CONTINUOUS
10
5.24057
20
-3.36577
11
5.24031
21
-3.36812
0
LINE
8
BLACK
6
CONTINUOUS
10
5.24031
20
-3.36812
11
5.24031
21
-3.39016
0
LINE
8
BLACK
6
CONTINUOUS
10
5.24031
20
-3.39016
11
5.26
21
-3.39016
0
LINE
8
BLACK
6
CONTINUOUS
10
5.26
20
-3.39016
11
5.26
21
-3.37
0
LINE
8
BLACK
6
CONTINUOUS
10
5.26
20
-3.37
11
5.28016
21
-3.37
0
LINE
8
BLACK
6
CONTINUOUS
10
5.28016
20
-3.37
11
5.28016
21
-3.35031
0
LINE
8
BLACK
6
CONTINUOUS
10
5.28016
20
-3.35031
11
5.25812
21
-3.35031
0
LINE
8
BLACK
6
CONTINUOUS
10
5.25812
20
-3.35031
11
5.25577
21
-3.35057
0
LINE
8
BLACK
6
CONTINUOUS
10
5.35173
20
-3.25543
11
5.31236
21
-3.25543
0
LINE
8
BLACK
6
CONTINUOUS
10
5.31236
20
-3.25543
11
5.31236
21
-3.27512
0
LINE
8
BLACK
6
CONTINUOUS
10
5.31236
20
-3.27512
11
5.35362
21
-3.27512
0
LINE
8
BLACK
6
CONTINUOUS
10
5.35362
20
-3.27512
11
5.35362
21
-3.27512
0
LINE
8
BLACK
6
CONTINUOUS
10
5.35362
20
-3.27512
11
5.35596
21
-3.27487
0
LINE
8
BLACK
6
CONTINUOUS
10
5.35596
20
-3.27487
11
5.35596
21
-3.27487
0
LINE
8
BLACK
6
CONTINUOUS
10
5.35596
20
-3.27487
11
5.36126
21
-3.27289
0
LINE
8
BLACK
6
CONTINUOUS
10
5.36126
20
-3.27289
11
5.36126
21
-3.27289
0
LINE
8
BLACK
6
CONTINUOUS
10
5.36126
20
-3.27289
11
5.36579
21
-3.2695
0
LINE
8
BLACK
6
CONTINUOUS
10
5.36579
20
-3.2695
11
5.36579
21
-3.2695
0
LINE
8
BLACK
6
CONTINUOUS
10
5.36579
20
-3.2695
11
5.36919
21
-3.26496
0
LINE
8
BLACK
6
CONTINUOUS
10
5.36919
20
-3.26496
11
5.36919
21
-3.26496
0
LINE
8
BLACK
6
CONTINUOUS
10
5.36919
20
-3.26496
11
5.37117
21
-3.25966
0
LINE
8
BLACK
6
CONTINUOUS
10
5.37117
20
-3.25966
11
5.37117
21
-3.25966
0
LINE
8
BLACK
6
CONTINUOUS
10
5.37117
20
-3.25966
11
5.37142
21
-3.25732
0
LINE
8
BLACK
6
CONTINUOUS
10
5.37142
20
-3.25732
11
5.37142
21
-3.25732
0
LINE
8
BLACK
6
CONTINUOUS
10
5.37142
20
-3.25732
11
5.37142
21
-3.22984
0
LINE
8
BLACK
6
CONTINUOUS
10
5.37142
20
-3.22984
11
5.35173
21
-3.22984
0
LINE
8
BLACK
6
CONTINUOUS
10
5.35173
20
-3.22984
11
5.35173
21
-3.25543
0
LINE
8
BLACK
6
CONTINUOUS
10
5.55583
20
-3.19067
11
5.55624
21
-3.19471
0
LINE
8
BLACK
6
CONTINUOUS
10
5.55624
20
-3.19471
11
5.55841
21
-3.20126
0
LINE
8
BLACK
6
CONTINUOUS
10
5.55841
20
-3.20126
11
5.55841
21
-3.20126
0
LINE
8
BLACK
6
CONTINUOUS
10
5.55841
20
-3.20126
11
5.5612
21
-3.20579
0
LINE
8
BLACK
6
CONTINUOUS
10
5.5612
20
-3.20579
11
5.56193
21
-3.20844
0
LINE
8
BLACK
6
CONTINUOUS
10
5.56193
20
-3.20844
11
5.5611
21
-3.21106
0
LINE
8
BLACK
6
CONTINUOUS
10
5.5611
20
-3.21106
11
5.5605
21
-3.2118
0
LINE
8
BLACK
6
CONTINUOUS
10
5.5605
20
-3.2118
11
5.55944
21
-3.21286
0
LINE
8
BLACK
6
CONTINUOUS
10
5.55944
20
-3.21286
11
5.55581
21
-3.21874
0
LINE
8
BLACK
6
CONTINUOUS
10
5.55581
20
-3.21874
11
5.55581
21
-3.21874
0
LINE
8
BLACK
6
CONTINUOUS
10
5.55581
20
-3.21874
11
5.55364
21
-3.22529
0
LINE
8
BLACK
6
CONTINUOUS
10
5.55364
20
-3.22529
11
5.55364
21
-3.22529
0
LINE
8
BLACK
6
CONTINUOUS
10
5.55364
20
-3.22529
11
5.55323
21
-3.22933
0
LINE
8
BLACK
6
CONTINUOUS
10
5.55323
20
-3.22933
11
5.55323
21
-3.24016
0
LINE
8
BLACK
6
CONTINUOUS
10
5.55323
20
-3.24016
11
5.57291
21
-3.24016
0
LINE
8
BLACK
6
CONTINUOUS
10
5.57291
20
-3.24016
11
5.57291
21
-3.2313
0
LINE
8
BLACK
6
CONTINUOUS
10
5.57291
20
-3.2313
11
5.57366
21
-3.22753
0
LINE
8
BLACK
6
CONTINUOUS
10
5.57366
20
-3.22753
11
5.5758
21
-3.22434
0
LINE
8
BLACK
6
CONTINUOUS
10
5.5758
20
-3.22434
11
5.57899
21
-3.22221
0
LINE
8
BLACK
6
CONTINUOUS
10
5.57899
20
-3.22221
11
5.58276
21
-3.22146
0
LINE
8
BLACK
6
CONTINUOUS
10
5.58276
20
-3.22146
11
5.58276
21
-3.20482
0
LINE
8
BLACK
6
CONTINUOUS
10
5.58276
20
-3.20482
11
5.58353
21
-3.20218
0
LINE
8
BLACK
6
CONTINUOUS
10
5.58353
20
-3.20218
11
5.58419
21
-3.20137
0
LINE
8
BLACK
6
CONTINUOUS
10
5.58419
20
-3.20137
11
5.58535
21
-3.2002
0
LINE
8
BLACK
6
CONTINUOUS
10
5.58535
20
-3.2002
11
5.58535
21
-3.19854
0
LINE
8
BLACK
6
CONTINUOUS
10
5.58535
20
-3.19854
11
5.58159
21
-3.19779
0
LINE
8
BLACK
6
CONTINUOUS
10
5.58159
20
-3.19779
11
5.57839
21
-3.19566
0
LINE
8
BLACK
6
CONTINUOUS
10
5.57839
20
-3.19566
11
5.57626
21
-3.19247
0
LINE
8
BLACK
6
CONTINUOUS
10
5.57626
20
-3.19247
11
5.57551
21
-3.1887
0
LINE
8
BLACK
6
CONTINUOUS
10
5.57551
20
-3.1887
11
5.57551
21
-3.17984
0
LINE
8
BLACK
6
CONTINUOUS
10
5.57551
20
-3.17984
11
5.55583
21
-3.17984
0
LINE
8
BLACK
6
CONTINUOUS
10
5.55583
20
-3.17984
11
5.55583
21
-3.19067
0
LINE
8
BLACK
6
CONTINUOUS
10
5.31236
20
-3.18457
11
5.35173
21
-3.18457
0
LINE
8
BLACK
6
CONTINUOUS
10
5.35173
20
-3.18457
11
5.35173
21
-3.21016
0
LINE
8
BLACK
6
CONTINUOUS
10
5.35173
20
-3.21016
11
5.37142
21
-3.21016
0
LINE
8
BLACK
6
CONTINUOUS
10
5.37142
20
-3.21016
11
5.37142
21
-3.18268
0
LINE
8
BLACK
6
CONTINUOUS
10
5.37142
20
-3.18268
11
5.37142
21
-3.18268
0
LINE
8
BLACK
6
CONTINUOUS
10
5.37142
20
-3.18268
11
5.37117
21
-3.18034
0
LINE
8
BLACK
6
CONTINUOUS
10
5.37117
20
-3.18034
11
5.37117
21
-3.18034
0
LINE
8
BLACK
6
CONTINUOUS
10
5.37117
20
-3.18034
11
5.36919
21
-3.17504
0
LINE
8
BLACK
6
CONTINUOUS
10
5.36919
20
-3.17504
11
5.36919
21
-3.17504
0
LINE
8
BLACK
6
CONTINUOUS
10
5.36919
20
-3.17504
11
5.36579
21
-3.1705
0
LINE
8
BLACK
6
CONTINUOUS
10
5.36579
20
-3.1705
11
5.36579
21
-3.1705
0
LINE
8
BLACK
6
CONTINUOUS
10
5.36579
20
-3.1705
11
5.36126
21
-3.16711
0
LINE
8
BLACK
6
CONTINUOUS
10
5.36126
20
-3.16711
11
5.36126
21
-3.16711
0
LINE
8
BLACK
6
CONTINUOUS
10
5.36126
20
-3.16711
11
5.35596
21
-3.16513
0
LINE
8
BLACK
6
CONTINUOUS
10
5.35596
20
-3.16513
11
5.35596
21
-3.16513
0
LINE
8
BLACK
6
CONTINUOUS
10
5.35596
20
-3.16513
11
5.35362
21
-3.16488
0
LINE
8
BLACK
6
CONTINUOUS
10
5.35362
20
-3.16488
11
5.31236
21
-3.16488
0
LINE
8
BLACK
6
CONTINUOUS
10
5.31236
20
-3.16488
11
5.31236
21
-3.18457
0
CIRCLE
8
BLACK
10
5.4
20
-3.8
40
0.00688976
0
CIRCLE
8
BLACK
10
5.81
20
-3.2
40
0.00688976
0
CIRCLE
8
BLACK
10
5.91
20
-3.2
40
0.00688976
0
CIRCLE
8
BLACK
10
5.81
20
-3.3
40
0.00688976
0
CIRCLE
8
BLACK
10
5.91
20
-3.3
40
0.00688976
0
CIRCLE
8
BLACK
10
5.81
20
-3.4
40
0.00688976
0
CIRCLE
8
BLACK
10
5.91
20
-3.4
40
0.00688976
0
CIRCLE
8
BLACK
10
5.81
20
-3.5
40
0.00688976
0
CIRCLE
8
BLACK
10
5.91
20
-3.5
40
0.00688976
0
CIRCLE
8
BLACK
10
5.81
20
-3.6
40
0.00688976
0
CIRCLE
8
BLACK
10
5.91
20
-3.6
40
0.00688976
0
CIRCLE
8
BLACK
10
5.8
20
-3
40
0.00688976
0
CIRCLE
8
BLACK
10
5.4
20
-3
40
0.00688976
0
CIRCLE
8
BLACK
10
5.8
20
-3.8
40
0.00688976
0
CIRCLE
8
BLACK
10
5.29
20
-3.4
40
0.00688976
0
CIRCLE
8
BLACK
10
5.39
20
-3.4
40
0.00688976
0
CIRCLE
8
BLACK
10
5.29
20
-3.5
40
0.00688976
0
CIRCLE
8
BLACK
10
5.39
20
-3.5
40
0.00688976
0
CIRCLE
8
BLACK
10
5.29
20
-3.6
40
0.00688976
0
CIRCLE
8
BLACK
10
5.39
20
-3.6
40
0.00688976
0
CIRCLE
8
BLACK
10
5.53
20
-3.55
40
0.00787402
0
CIRCLE
8
BLACK
10
5.54
20
-3.25
40
0.00787402
0
CIRCLE
8
BLACK
10
5.3
20
-3.31
40
0.00787402
0
CIRCLE
8
BLACK
10
5.55
20
-3.7
40
0.00787402
0
CIRCLE
8
BLACK
10
5.34
20
-3.31
40
0.00787402
0
CIRCLE
8
BLACK
10
5.26
20
-3.13
40
0.00787402
0
CIRCLE
8
BLACK
10
5.54
20
-3.17
40
0.00787402
0
CIRCLE
8
BLACK
10
5.26
20
-3.31
40
0.00787402
0
CIRCLE
8
BLACK
10
5.54
20
-3.21
40
0.00787402
0
CIRCLE
8
BLACK
10
5.46
20
-3.62
40
0.00787402
  0
ENDSEC
  0
EOF
