  0
SECTION
  2
HEADER
  9
$ANGBASE
  50
0.0
  9
$ANGDIR
  70
1
  9
$MEASUREMENT
  70
0
  0
ENDSEC
  0
SECTION
  2
TABLES
  0
TABLE
  2
LTYPE
  70
4
  0
LTYPE
  5
40F
  2
CONTINUOUS
  70
0
  3
Solid line
  72
65
  73
0
  40
0.0
  0
LTYPE
  5
410
  2
DASHDOT
 70
0
  3
Dash Dot ____ _ ____ _
 72
65
 73
4
 40
2.0
 49
1.25
 49
-0.25
 49
0.25
 49
-0.25
  0
LTYPE
  5
411
  2
DASHED
 70
0
  3
Dashed __ __ __ __ __
 72
65
 73
2
 40
0.75
 49
0.5
 49
-0.25
  0
LTYPE
  5
43B
  2
DOTTED
 70
0
  3
Dotted .  .  .  .
 72
65
 73
2
 40
0.2
 49
0.0
 49
-0.2
  0
ENDTAB
  0
TABLE
  2
STYLE
  70
4
  0
STYLE
  2
KICAD
  70
0
  40
0
  41
1
  42
1
  50
0
  71
0
  3
isocp.shx
  0
STYLE
  2
KICADB
  70
0
  40
0
  41
1
  42
1
  50
0
  71
0
  3
isocp.shx
  0
STYLE
  2
KICADI
  70
0
  40
0
  41
1
  42
1
  50
15
  71
0
  3
isocp.shx
  0
STYLE
  2
KICADBI
  70
0
  40
0
  41
1
  42
1
  50
15
  71
0
  3
isocp.shx
  0
ENDTAB
  0
TABLE
  2
LAYER
  70
1
  0
LAYER
  2
BLACK
  70
0
  62
7
  6
CONTINUOUS
  0
ENDTAB
  0
ENDSEC
  0
SECTION
  2
ENTITIES
0
LINE
8
BLACK
6
CONTINUOUS
10
0.207681
20
-0.0401266
11
0.215066
21
-0.0423669
0
LINE
8
BLACK
6
CONTINUOUS
10
0.215066
20
-0.0423669
11
0.221873
21
-0.0460051
0
LINE
8
BLACK
6
CONTINUOUS
10
0.221873
20
-0.0460051
11
0.227839
21
-0.0509013
0
LINE
8
BLACK
6
CONTINUOUS
10
0.227839
20
-0.0509013
11
0.232735
21
-0.0568673
0
LINE
8
BLACK
6
CONTINUOUS
10
0.232735
20
-0.0568673
11
0.236373
21
-0.0636739
0
LINE
8
BLACK
6
CONTINUOUS
10
0.236373
20
-0.0636739
11
0.238614
21
-0.0710594
0
LINE
8
BLACK
6
CONTINUOUS
10
0.238614
20
-0.0710594
11
0.23937
21
-0.0787402
0
LINE
8
BLACK
6
CONTINUOUS
10
0.23937
20
-0.0787402
11
0.238614
21
-0.0864209
0
LINE
8
BLACK
6
CONTINUOUS
10
0.238614
20
-0.0864209
11
0.236373
21
-0.0938064
0
LINE
8
BLACK
6
CONTINUOUS
10
0.236373
20
-0.0938064
11
0.232735
21
-0.100613
0
LINE
8
BLACK
6
CONTINUOUS
10
0.232735
20
-0.100613
11
0.227839
21
-0.106579
0
LINE
8
BLACK
6
CONTINUOUS
10
0.227839
20
-0.106579
11
0.221873
21
-0.111475
0
LINE
8
BLACK
6
CONTINUOUS
10
0.221873
20
-0.111475
11
0.215066
21
-0.115113
0
LINE
8
BLACK
6
CONTINUOUS
10
0.215066
20
-0.115113
11
0.207681
21
-0.117354
0
LINE
8
BLACK
6
CONTINUOUS
10
0.207681
20
-0.117354
11
0.2
21
-0.11811
0
LINE
8
BLACK
6
CONTINUOUS
10
0.2
20
-0.11811
11
0.192319
21
-0.117354
0
LINE
8
BLACK
6
CONTINUOUS
10
0.192319
20
-0.117354
11
0.184934
21
-0.115113
0
LINE
8
BLACK
6
CONTINUOUS
10
0.184934
20
-0.115113
11
0.178127
21
-0.111475
0
LINE
8
BLACK
6
CONTINUOUS
10
0.178127
20
-0.111475
11
0.172161
21
-0.106579
0
LINE
8
BLACK
6
CONTINUOUS
10
0.172161
20
-0.106579
11
0.167265
21
-0.100613
0
LINE
8
BLACK
6
CONTINUOUS
10
0.167265
20
-0.100613
11
0.163627
21
-0.0938064
0
LINE
8
BLACK
6
CONTINUOUS
10
0.163627
20
-0.0938064
11
0.161386
21
-0.0864209
0
LINE
8
BLACK
6
CONTINUOUS
10
0.161386
20
-0.0864209
11
0.16063
21
-0.0787402
0
LINE
8
BLACK
6
CONTINUOUS
10
0.16063
20
-0.0787402
11
0.161386
21
-0.0710594
0
LINE
8
BLACK
6
CONTINUOUS
10
0.161386
20
-0.0710594
11
0.163627
21
-0.0636739
0
LINE
8
BLACK
6
CONTINUOUS
10
0.163627
20
-0.0636739
11
0.167265
21
-0.0568673
0
LINE
8
BLACK
6
CONTINUOUS
10
0.167265
20
-0.0568673
11
0.172161
21
-0.0509013
0
LINE
8
BLACK
6
CONTINUOUS
10
0.172161
20
-0.0509013
11
0.178127
21
-0.0460051
0
LINE
8
BLACK
6
CONTINUOUS
10
0.178127
20
-0.0460051
11
0.184934
21
-0.0423669
0
LINE
8
BLACK
6
CONTINUOUS
10
0.184934
20
-0.0423669
11
0.192319
21
-0.0401266
0
LINE
8
BLACK
6
CONTINUOUS
10
0.192319
20
-0.0401266
11
0.2
21
-0.0393701
0
LINE
8
BLACK
6
CONTINUOUS
10
0.2
20
-0.0393701
11
0.207681
21
-0.0401266
0
LINE
8
BLACK
6
CONTINUOUS
10
0.0205096
20
0.116316
11
0.0338744
21
0.113148
0
LINE
8
BLACK
6
CONTINUOUS
10
0.0338744
20
0.113148
11
0.0467811
21
0.108451
0
LINE
8
BLACK
6
CONTINUOUS
10
0.0467811
20
0.108451
11
0.0590551
21
0.102286
0
LINE
8
BLACK
6
CONTINUOUS
10
0.0590551
20
0.102286
11
0.0705306
21
0.094739
0
LINE
8
BLACK
6
CONTINUOUS
10
0.0705306
20
0.094739
11
0.0810522
21
0.0859103
0
LINE
8
BLACK
6
CONTINUOUS
10
0.0810522
20
0.0859103
11
0.0904777
21
0.0759198
0
LINE
8
BLACK
6
CONTINUOUS
10
0.0904777
20
0.0759198
11
0.0986796
21
0.0649026
0
LINE
8
BLACK
6
CONTINUOUS
10
0.0986796
20
0.0649026
11
0.105547
21
0.0530078
0
LINE
8
BLACK
6
CONTINUOUS
10
0.105547
20
0.0530078
11
0.110987
21
0.0403961
0
LINE
8
BLACK
6
CONTINUOUS
10
0.110987
20
0.0403961
11
0.114927
21
0.0272381
0
LINE
8
BLACK
6
CONTINUOUS
10
0.114927
20
0.0272381
11
0.117312
21
0.0137118
0
LINE
8
BLACK
6
CONTINUOUS
10
0.117312
20
0.0137118
11
0.11811
21
0
0
LINE
8
BLACK
6
CONTINUOUS
10
0.11811
20
0
11
0.117312
21
-0.0137118
0
LINE
8
BLACK
6
CONTINUOUS
10
0.117312
20
-0.0137118
11
0.114927
21
-0.0272381
0
LINE
8
BLACK
6
CONTINUOUS
10
0.114927
20
-0.0272381
11
0.110987
21
-0.0403961
0
LINE
8
BLACK
6
CONTINUOUS
10
0.110987
20
-0.0403961
11
0.105547
21
-0.0530078
0
LINE
8
BLACK
6
CONTINUOUS
10
0.105547
20
-0.0530078
11
0.0986796
21
-0.0649026
0
LINE
8
BLACK
6
CONTINUOUS
10
0.0986796
20
-0.0649026
11
0.0904777
21
-0.0759198
0
LINE
8
BLACK
6
CONTINUOUS
10
0.0904777
20
-0.0759198
11
0.0810522
21
-0.0859103
0
LINE
8
BLACK
6
CONTINUOUS
10
0.0810522
20
-0.0859103
11
0.0705306
21
-0.094739
0
LINE
8
BLACK
6
CONTINUOUS
10
0.0705306
20
-0.094739
11
0.0590551
21
-0.102286
0
LINE
8
BLACK
6
CONTINUOUS
10
0.0590551
20
-0.102286
11
0.0467811
21
-0.108451
0
LINE
8
BLACK
6
CONTINUOUS
10
0.0467811
20
-0.108451
11
0.0338744
21
-0.113148
0
LINE
8
BLACK
6
CONTINUOUS
10
0.0338744
20
-0.113148
11
0.0205096
21
-0.116316
0
LINE
8
BLACK
6
CONTINUOUS
10
0.0205096
20
-0.116316
11
0.00686748
21
-0.11791
0
LINE
8
BLACK
6
CONTINUOUS
10
0.00686748
20
-0.11791
11
-0.00686748
21
-0.11791
0
LINE
8
BLACK
6
CONTINUOUS
10
-0.00686748
20
-0.11791
11
-0.0205096
21
-0.116316
0
LINE
8
BLACK
6
CONTINUOUS
10
-0.0205096
20
-0.116316
11
-0.0338744
21
-0.113148
0
LINE
8
BLACK
6
CONTINUOUS
10
-0.0338744
20
-0.113148
11
-0.0467811
21
-0.108451
0
LINE
8
BLACK
6
CONTINUOUS
10
-0.0467811
20
-0.108451
11
-0.0590551
21
-0.102286
0
LINE
8
BLACK
6
CONTINUOUS
10
-0.0590551
20
-0.102286
11
-0.0705306
21
-0.094739
0
LINE
8
BLACK
6
CONTINUOUS
10
-0.0705306
20
-0.094739
11
-0.0810522
21
-0.0859103
0
LINE
8
BLACK
6
CONTINUOUS
10
-0.0810522
20
-0.0859103
11
-0.0904777
21
-0.0759198
0
LINE
8
BLACK
6
CONTINUOUS
10
-0.0904777
20
-0.0759198
11
-0.0986796
21
-0.0649026
0
LINE
8
BLACK
6
CONTINUOUS
10
-0.0986796
20
-0.0649026
11
-0.105547
21
-0.0530078
0
LINE
8
BLACK
6
CONTINUOUS
10
-0.105547
20
-0.0530078
11
-0.110987
21
-0.0403961
0
LINE
8
BLACK
6
CONTINUOUS
10
-0.110987
20
-0.0403961
11
-0.114927
21
-0.0272381
0
LINE
8
BLACK
6
CONTINUOUS
10
-0.114927
20
-0.0272381
11
-0.117312
21
-0.0137118
0
LINE
8
BLACK
6
CONTINUOUS
10
-0.117312
20
-0.0137118
11
-0.11811
21
0
0
LINE
8
BLACK
6
CONTINUOUS
10
-0.11811
20
0
11
-0.117312
21
0.0137118
0
LINE
8
BLACK
6
CONTINUOUS
10
-0.117312
20
0.0137118
11
-0.114927
21
0.0272381
0
LINE
8
BLACK
6
CONTINUOUS
10
-0.114927
20
0.0272381
11
-0.110987
21
0.0403961
0
LINE
8
BLACK
6
CONTINUOUS
10
-0.110987
20
0.0403961
11
-0.105547
21
0.0530078
0
LINE
8
BLACK
6
CONTINUOUS
10
-0.105547
20
0.0530078
11
-0.0986796
21
0.0649026
0
LINE
8
BLACK
6
CONTINUOUS
10
-0.0986796
20
0.0649026
11
-0.0904777
21
0.0759198
0
LINE
8
BLACK
6
CONTINUOUS
10
-0.0904777
20
0.0759198
11
-0.0810522
21
0.0859103
0
LINE
8
BLACK
6
CONTINUOUS
10
-0.0810522
20
0.0859103
11
-0.0705306
21
0.094739
0
LINE
8
BLACK
6
CONTINUOUS
10
-0.0705306
20
0.094739
11
-0.0590551
21
0.102286
0
LINE
8
BLACK
6
CONTINUOUS
10
-0.0590551
20
0.102286
11
-0.0467811
21
0.108451
0
LINE
8
BLACK
6
CONTINUOUS
10
-0.0467811
20
0.108451
11
-0.0338744
21
0.113148
0
LINE
8
BLACK
6
CONTINUOUS
10
-0.0338744
20
0.113148
11
-0.0205096
21
0.116316
0
LINE
8
BLACK
6
CONTINUOUS
10
-0.0205096
20
0.116316
11
-0.00686748
21
0.11791
0
LINE
8
BLACK
6
CONTINUOUS
10
-0.00686748
20
0.11791
11
0.00686748
21
0.11791
0
LINE
8
BLACK
6
CONTINUOUS
10
0.00686748
20
0.11791
11
0.0205096
21
0.116316
0
LINE
8
BLACK
6
CONTINUOUS
10
0.42051
20
0.116316
11
0.433874
21
0.113148
0
LINE
8
BLACK
6
CONTINUOUS
10
0.433874
20
0.113148
11
0.446781
21
0.108451
0
LINE
8
BLACK
6
CONTINUOUS
10
0.446781
20
0.108451
11
0.459055
21
0.102286
0
LINE
8
BLACK
6
CONTINUOUS
10
0.459055
20
0.102286
11
0.470531
21
0.094739
0
LINE
8
BLACK
6
CONTINUOUS
10
0.470531
20
0.094739
11
0.481052
21
0.0859103
0
LINE
8
BLACK
6
CONTINUOUS
10
0.481052
20
0.0859103
11
0.490478
21
0.0759198
0
LINE
8
BLACK
6
CONTINUOUS
10
0.490478
20
0.0759198
11
0.49868
21
0.0649026
0
LINE
8
BLACK
6
CONTINUOUS
10
0.49868
20
0.0649026
11
0.505547
21
0.0530078
0
LINE
8
BLACK
6
CONTINUOUS
10
0.505547
20
0.0530078
11
0.510987
21
0.0403961
0
LINE
8
BLACK
6
CONTINUOUS
10
0.510987
20
0.0403961
11
0.514927
21
0.0272381
0
LINE
8
BLACK
6
CONTINUOUS
10
0.514927
20
0.0272381
11
0.517312
21
0.0137118
0
LINE
8
BLACK
6
CONTINUOUS
10
0.517312
20
0.0137118
11
0.51811
21
0
0
LINE
8
BLACK
6
CONTINUOUS
10
0.51811
20
0
11
0.517312
21
-0.0137118
0
LINE
8
BLACK
6
CONTINUOUS
10
0.517312
20
-0.0137118
11
0.514927
21
-0.0272381
0
LINE
8
BLACK
6
CONTINUOUS
10
0.514927
20
-0.0272381
11
0.510987
21
-0.0403961
0
LINE
8
BLACK
6
CONTINUOUS
10
0.510987
20
-0.0403961
11
0.505547
21
-0.0530078
0
LINE
8
BLACK
6
CONTINUOUS
10
0.505547
20
-0.0530078
11
0.49868
21
-0.0649026
0
LINE
8
BLACK
6
CONTINUOUS
10
0.49868
20
-0.0649026
11
0.490478
21
-0.0759198
0
LINE
8
BLACK
6
CONTINUOUS
10
0.490478
20
-0.0759198
11
0.481052
21
-0.0859103
0
LINE
8
BLACK
6
CONTINUOUS
10
0.481052
20
-0.0859103
11
0.470531
21
-0.094739
0
LINE
8
BLACK
6
CONTINUOUS
10
0.470531
20
-0.094739
11
0.459055
21
-0.102286
0
LINE
8
BLACK
6
CONTINUOUS
10
0.459055
20
-0.102286
11
0.446781
21
-0.108451
0
LINE
8
BLACK
6
CONTINUOUS
10
0.446781
20
-0.108451
11
0.433874
21
-0.113148
0
LINE
8
BLACK
6
CONTINUOUS
10
0.433874
20
-0.113148
11
0.42051
21
-0.116316
0
LINE
8
BLACK
6
CONTINUOUS
10
0.42051
20
-0.116316
11
0.406867
21
-0.11791
0
LINE
8
BLACK
6
CONTINUOUS
10
0.406867
20
-0.11791
11
0.393133
21
-0.11791
0
LINE
8
BLACK
6
CONTINUOUS
10
0.393133
20
-0.11791
11
0.37949
21
-0.116316
0
LINE
8
BLACK
6
CONTINUOUS
10
0.37949
20
-0.116316
11
0.366126
21
-0.113148
0
LINE
8
BLACK
6
CONTINUOUS
10
0.366126
20
-0.113148
11
0.353219
21
-0.108451
0
LINE
8
BLACK
6
CONTINUOUS
10
0.353219
20
-0.108451
11
0.340945
21
-0.102286
0
LINE
8
BLACK
6
CONTINUOUS
10
0.340945
20
-0.102286
11
0.329469
21
-0.094739
0
LINE
8
BLACK
6
CONTINUOUS
10
0.329469
20
-0.094739
11
0.318948
21
-0.0859103
0
LINE
8
BLACK
6
CONTINUOUS
10
0.318948
20
-0.0859103
11
0.309522
21
-0.0759198
0
LINE
8
BLACK
6
CONTINUOUS
10
0.309522
20
-0.0759198
11
0.30132
21
-0.0649026
0
LINE
8
BLACK
6
CONTINUOUS
10
0.30132
20
-0.0649026
11
0.294453
21
-0.0530078
0
LINE
8
BLACK
6
CONTINUOUS
10
0.294453
20
-0.0530078
11
0.289013
21
-0.0403961
0
LINE
8
BLACK
6
CONTINUOUS
10
0.289013
20
-0.0403961
11
0.285073
21
-0.0272381
0
LINE
8
BLACK
6
CONTINUOUS
10
0.285073
20
-0.0272381
11
0.282688
21
-0.0137118
0
LINE
8
BLACK
6
CONTINUOUS
10
0.282688
20
-0.0137118
11
0.28189
21
0
0
LINE
8
BLACK
6
CONTINUOUS
10
0.28189
20
0
11
0.282688
21
0.0137118
0
LINE
8
BLACK
6
CONTINUOUS
10
0.282688
20
0.0137118
11
0.285073
21
0.0272381
0
LINE
8
BLACK
6
CONTINUOUS
10
0.285073
20
0.0272381
11
0.289013
21
0.0403961
0
LINE
8
BLACK
6
CONTINUOUS
10
0.289013
20
0.0403961
11
0.294453
21
0.0530078
0
LINE
8
BLACK
6
CONTINUOUS
10
0.294453
20
0.0530078
11
0.30132
21
0.0649026
0
LINE
8
BLACK
6
CONTINUOUS
10
0.30132
20
0.0649026
11
0.309522
21
0.0759198
0
LINE
8
BLACK
6
CONTINUOUS
10
0.309522
20
0.0759198
11
0.318948
21
0.0859103
0
LINE
8
BLACK
6
CONTINUOUS
10
0.318948
20
0.0859103
11
0.329469
21
0.094739
0
LINE
8
BLACK
6
CONTINUOUS
10
0.329469
20
0.094739
11
0.340945
21
0.102286
0
LINE
8
BLACK
6
CONTINUOUS
10
0.340945
20
0.102286
11
0.353219
21
0.108451
0
LINE
8
BLACK
6
CONTINUOUS
10
0.353219
20
0.108451
11
0.366126
21
0.113148
0
LINE
8
BLACK
6
CONTINUOUS
10
0.366126
20
0.113148
11
0.37949
21
0.116316
0
LINE
8
BLACK
6
CONTINUOUS
10
0.37949
20
0.116316
11
0.393133
21
0.11791
0
LINE
8
BLACK
6
CONTINUOUS
10
0.393133
20
0.11791
11
0.406867
21
0.11791
0
LINE
8
BLACK
6
CONTINUOUS
10
0.406867
20
0.11791
11
0.42051
21
0.116316
0
LINE
8
BLACK
6
CONTINUOUS
10
0.223255
20
0.0445264
11
0.226448
21
0.0423928
0
LINE
8
BLACK
6
CONTINUOUS
10
0.226448
20
0.0423928
11
0.228581
21
0.0391996
0
LINE
8
BLACK
6
CONTINUOUS
10
0.228581
20
0.0391996
11
0.229331
21
0.0354331
0
LINE
8
BLACK
6
CONTINUOUS
10
0.229331
20
0.0354331
11
0.229331
21
0.015748
0
LINE
8
BLACK
6
CONTINUOUS
10
0.229331
20
0.015748
11
0.228581
21
0.0119815
0
LINE
8
BLACK
6
CONTINUOUS
10
0.228581
20
0.0119815
11
0.226448
21
0.00878831
0
LINE
8
BLACK
6
CONTINUOUS
10
0.226448
20
0.00878831
11
0.223255
21
0.00665472
0
LINE
8
BLACK
6
CONTINUOUS
10
0.223255
20
0.00665472
11
0.219488
21
0.00590551
0
LINE
8
BLACK
6
CONTINUOUS
10
0.219488
20
0.00590551
11
0.182087
21
0.00590551
0
LINE
8
BLACK
6
CONTINUOUS
10
0.182087
20
0.00590551
11
0.17832
21
0.00665472
0
LINE
8
BLACK
6
CONTINUOUS
10
0.17832
20
0.00665472
11
0.175127
21
0.00878831
0
LINE
8
BLACK
6
CONTINUOUS
10
0.175127
20
0.00878831
11
0.172993
21
0.0119815
0
LINE
8
BLACK
6
CONTINUOUS
10
0.172993
20
0.0119815
11
0.172244
21
0.015748
0
LINE
8
BLACK
6
CONTINUOUS
10
0.172244
20
0.015748
11
0.172244
21
0.0354331
0
LINE
8
BLACK
6
CONTINUOUS
10
0.172244
20
0.0354331
11
0.172993
21
0.0391996
0
LINE
8
BLACK
6
CONTINUOUS
10
0.172993
20
0.0391996
11
0.175127
21
0.0423928
0
LINE
8
BLACK
6
CONTINUOUS
10
0.175127
20
0.0423928
11
0.17832
21
0.0445264
0
LINE
8
BLACK
6
CONTINUOUS
10
0.17832
20
0.0445264
11
0.182087
21
0.0452756
0
LINE
8
BLACK
6
CONTINUOUS
10
0.182087
20
0.0452756
11
0.219488
21
0.0452756
0
LINE
8
BLACK
6
CONTINUOUS
10
0.219488
20
0.0452756
11
0.223255
21
0.0445264
0
LINE
8
BLACK
6
CONTINUOUS
10
0.223255
20
0.11933
11
0.226448
21
0.117196
0
LINE
8
BLACK
6
CONTINUOUS
10
0.226448
20
0.117196
11
0.228581
21
0.114003
0
LINE
8
BLACK
6
CONTINUOUS
10
0.228581
20
0.114003
11
0.229331
21
0.110236
0
LINE
8
BLACK
6
CONTINUOUS
10
0.229331
20
0.110236
11
0.229331
21
0.0905512
0
LINE
8
BLACK
6
CONTINUOUS
10
0.229331
20
0.0905512
11
0.228581
21
0.0867846
0
LINE
8
BLACK
6
CONTINUOUS
10
0.228581
20
0.0867846
11
0.226448
21
0.0835915
0
LINE
8
BLACK
6
CONTINUOUS
10
0.226448
20
0.0835915
11
0.223255
21
0.0814579
0
LINE
8
BLACK
6
CONTINUOUS
10
0.223255
20
0.0814579
11
0.219488
21
0.0807087
0
LINE
8
BLACK
6
CONTINUOUS
10
0.219488
20
0.0807087
11
0.182087
21
0.0807087
0
LINE
8
BLACK
6
CONTINUOUS
10
0.182087
20
0.0807087
11
0.17832
21
0.0814579
0
LINE
8
BLACK
6
CONTINUOUS
10
0.17832
20
0.0814579
11
0.175127
21
0.0835915
0
LINE
8
BLACK
6
CONTINUOUS
10
0.175127
20
0.0835915
11
0.172993
21
0.0867846
0
LINE
8
BLACK
6
CONTINUOUS
10
0.172993
20
0.0867846
11
0.172244
21
0.0905512
0
LINE
8
BLACK
6
CONTINUOUS
10
0.172244
20
0.0905512
11
0.172244
21
0.110236
0
LINE
8
BLACK
6
CONTINUOUS
10
0.172244
20
0.110236
11
0.172993
21
0.114003
0
LINE
8
BLACK
6
CONTINUOUS
10
0.172993
20
0.114003
11
0.175127
21
0.117196
0
LINE
8
BLACK
6
CONTINUOUS
10
0.175127
20
0.117196
11
0.17832
21
0.11933
0
LINE
8
BLACK
6
CONTINUOUS
10
0.17832
20
0.11933
11
0.182087
21
0.120079
0
LINE
8
BLACK
6
CONTINUOUS
10
0.182087
20
0.120079
11
0.219488
21
0.120079
0
LINE
8
BLACK
6
CONTINUOUS
10
0.219488
20
0.120079
11
0.223255
21
0.11933
0
LINE
8
BLACK
6
CONTINUOUS
10
0.129751
20
0.197085
11
0.132944
21
0.194952
0
LINE
8
BLACK
6
CONTINUOUS
10
0.132944
20
0.194952
11
0.135078
21
0.191759
0
LINE
8
BLACK
6
CONTINUOUS
10
0.135078
20
0.191759
11
0.135827
21
0.187992
0
LINE
8
BLACK
6
CONTINUOUS
10
0.135827
20
0.187992
11
0.135827
21
0.150591
0
LINE
8
BLACK
6
CONTINUOUS
10
0.135827
20
0.150591
11
0.135078
21
0.146824
0
LINE
8
BLACK
6
CONTINUOUS
10
0.135078
20
0.146824
11
0.132944
21
0.143631
0
LINE
8
BLACK
6
CONTINUOUS
10
0.132944
20
0.143631
11
0.129751
21
0.141497
0
LINE
8
BLACK
6
CONTINUOUS
10
0.129751
20
0.141497
11
0.125984
21
0.140748
0
LINE
8
BLACK
6
CONTINUOUS
10
0.125984
20
0.140748
11
0.106299
21
0.140748
0
LINE
8
BLACK
6
CONTINUOUS
10
0.106299
20
0.140748
11
0.102533
21
0.141497
0
LINE
8
BLACK
6
CONTINUOUS
10
0.102533
20
0.141497
11
0.0993395
21
0.143631
0
LINE
8
BLACK
6
CONTINUOUS
10
0.0993395
20
0.143631
11
0.0972059
21
0.146824
0
LINE
8
BLACK
6
CONTINUOUS
10
0.0972059
20
0.146824
11
0.0964567
21
0.150591
0
LINE
8
BLACK
6
CONTINUOUS
10
0.0964567
20
0.150591
11
0.0964567
21
0.187992
0
LINE
8
BLACK
6
CONTINUOUS
10
0.0964567
20
0.187992
11
0.0972059
21
0.191759
0
LINE
8
BLACK
6
CONTINUOUS
10
0.0972059
20
0.191759
11
0.0993395
21
0.194952
0
LINE
8
BLACK
6
CONTINUOUS
10
0.0993395
20
0.194952
11
0.102533
21
0.197085
0
LINE
8
BLACK
6
CONTINUOUS
10
0.102533
20
0.197085
11
0.106299
21
0.197835
0
LINE
8
BLACK
6
CONTINUOUS
10
0.106299
20
0.197835
11
0.125984
21
0.197835
0
LINE
8
BLACK
6
CONTINUOUS
10
0.125984
20
0.197835
11
0.129751
21
0.197085
0
LINE
8
BLACK
6
CONTINUOUS
10
0.204554
20
0.197085
11
0.207747
21
0.194952
0
LINE
8
BLACK
6
CONTINUOUS
10
0.207747
20
0.194952
11
0.209881
21
0.191759
0
LINE
8
BLACK
6
CONTINUOUS
10
0.209881
20
0.191759
11
0.21063
21
0.187992
0
LINE
8
BLACK
6
CONTINUOUS
10
0.21063
20
0.187992
11
0.21063
21
0.150591
0
LINE
8
BLACK
6
CONTINUOUS
10
0.21063
20
0.150591
11
0.209881
21
0.146824
0
LINE
8
BLACK
6
CONTINUOUS
10
0.209881
20
0.146824
11
0.207747
21
0.143631
0
LINE
8
BLACK
6
CONTINUOUS
10
0.207747
20
0.143631
11
0.204554
21
0.141497
0
LINE
8
BLACK
6
CONTINUOUS
10
0.204554
20
0.141497
11
0.200787
21
0.140748
0
LINE
8
BLACK
6
CONTINUOUS
10
0.200787
20
0.140748
11
0.181102
21
0.140748
0
LINE
8
BLACK
6
CONTINUOUS
10
0.181102
20
0.140748
11
0.177336
21
0.141497
0
LINE
8
BLACK
6
CONTINUOUS
10
0.177336
20
0.141497
11
0.174143
21
0.143631
0
LINE
8
BLACK
6
CONTINUOUS
10
0.174143
20
0.143631
11
0.172009
21
0.146824
0
LINE
8
BLACK
6
CONTINUOUS
10
0.172009
20
0.146824
11
0.17126
21
0.150591
0
LINE
8
BLACK
6
CONTINUOUS
10
0.17126
20
0.150591
11
0.17126
21
0.187992
0
LINE
8
BLACK
6
CONTINUOUS
10
0.17126
20
0.187992
11
0.172009
21
0.191759
0
LINE
8
BLACK
6
CONTINUOUS
10
0.172009
20
0.191759
11
0.174143
21
0.194952
0
LINE
8
BLACK
6
CONTINUOUS
10
0.174143
20
0.194952
11
0.177336
21
0.197085
0
LINE
8
BLACK
6
CONTINUOUS
10
0.177336
20
0.197085
11
0.181102
21
0.197835
0
LINE
8
BLACK
6
CONTINUOUS
10
0.181102
20
0.197835
11
0.200787
21
0.197835
0
LINE
8
BLACK
6
CONTINUOUS
10
0.200787
20
0.197835
11
0.204554
21
0.197085
0
LINE
8
BLACK
6
CONTINUOUS
10
0.330341
20
0.281827
11
0.336732
21
0.278981
0
LINE
8
BLACK
6
CONTINUOUS
10
0.336732
20
0.278981
11
0.342392
21
0.274869
0
LINE
8
BLACK
6
CONTINUOUS
10
0.342392
20
0.274869
11
0.347073
21
0.26967
0
LINE
8
BLACK
6
CONTINUOUS
10
0.347073
20
0.26967
11
0.350571
21
0.263611
0
LINE
8
BLACK
6
CONTINUOUS
10
0.350571
20
0.263611
11
0.352733
21
0.256958
0
LINE
8
BLACK
6
CONTINUOUS
10
0.352733
20
0.256958
11
0.353465
21
0.25
0
LINE
8
BLACK
6
CONTINUOUS
10
0.353465
20
0.25
11
0.352733
21
0.243042
0
LINE
8
BLACK
6
CONTINUOUS
10
0.352733
20
0.243042
11
0.350571
21
0.236389
0
LINE
8
BLACK
6
CONTINUOUS
10
0.350571
20
0.236389
11
0.347073
21
0.23033
0
LINE
8
BLACK
6
CONTINUOUS
10
0.347073
20
0.23033
11
0.342392
21
0.225131
0
LINE
8
BLACK
6
CONTINUOUS
10
0.342392
20
0.225131
11
0.336732
21
0.221019
0
LINE
8
BLACK
6
CONTINUOUS
10
0.336732
20
0.221019
11
0.330341
21
0.218173
0
LINE
8
BLACK
6
CONTINUOUS
10
0.330341
20
0.218173
11
0.323498
21
0.216719
0
LINE
8
BLACK
6
CONTINUOUS
10
0.323498
20
0.216719
11
0.316502
21
0.216719
0
LINE
8
BLACK
6
CONTINUOUS
10
0.316502
20
0.216719
11
0.309659
21
0.218173
0
LINE
8
BLACK
6
CONTINUOUS
10
0.309659
20
0.218173
11
0.303268
21
0.221019
0
LINE
8
BLACK
6
CONTINUOUS
10
0.303268
20
0.221019
11
0.297608
21
0.225131
0
LINE
8
BLACK
6
CONTINUOUS
10
0.297608
20
0.225131
11
0.292927
21
0.23033
0
LINE
8
BLACK
6
CONTINUOUS
10
0.292927
20
0.23033
11
0.289429
21
0.236389
0
LINE
8
BLACK
6
CONTINUOUS
10
0.289429
20
0.236389
11
0.287267
21
0.243042
0
LINE
8
BLACK
6
CONTINUOUS
10
0.287267
20
0.243042
11
0.286535
21
0.25
0
LINE
8
BLACK
6
CONTINUOUS
10
0.286535
20
0.25
11
0.287267
21
0.256958
0
LINE
8
BLACK
6
CONTINUOUS
10
0.287267
20
0.256958
11
0.289429
21
0.263611
0
LINE
8
BLACK
6
CONTINUOUS
10
0.289429
20
0.263611
11
0.292927
21
0.26967
0
LINE
8
BLACK
6
CONTINUOUS
10
0.292927
20
0.26967
11
0.297608
21
0.274869
0
LINE
8
BLACK
6
CONTINUOUS
10
0.297608
20
0.274869
11
0.303268
21
0.278981
0
LINE
8
BLACK
6
CONTINUOUS
10
0.303268
20
0.278981
11
0.309659
21
0.281827
0
LINE
8
BLACK
6
CONTINUOUS
10
0.309659
20
0.281827
11
0.316502
21
0.283281
0
LINE
8
BLACK
6
CONTINUOUS
10
0.316502
20
0.283281
11
0.323498
21
0.283281
0
LINE
8
BLACK
6
CONTINUOUS
10
0.323498
20
0.283281
11
0.330341
21
0.281827
0
LINE
8
BLACK
6
CONTINUOUS
10
0.430341
20
0.281827
11
0.436732
21
0.278981
0
LINE
8
BLACK
6
CONTINUOUS
10
0.436732
20
0.278981
11
0.442392
21
0.274869
0
LINE
8
BLACK
6
CONTINUOUS
10
0.442392
20
0.274869
11
0.447073
21
0.26967
0
LINE
8
BLACK
6
CONTINUOUS
10
0.447073
20
0.26967
11
0.450571
21
0.263611
0
LINE
8
BLACK
6
CONTINUOUS
10
0.450571
20
0.263611
11
0.452733
21
0.256958
0
LINE
8
BLACK
6
CONTINUOUS
10
0.452733
20
0.256958
11
0.453465
21
0.25
0
LINE
8
BLACK
6
CONTINUOUS
10
0.453465
20
0.25
11
0.452733
21
0.243042
0
LINE
8
BLACK
6
CONTINUOUS
10
0.452733
20
0.243042
11
0.450571
21
0.236389
0
LINE
8
BLACK
6
CONTINUOUS
10
0.450571
20
0.236389
11
0.447073
21
0.23033
0
LINE
8
BLACK
6
CONTINUOUS
10
0.447073
20
0.23033
11
0.442392
21
0.225131
0
LINE
8
BLACK
6
CONTINUOUS
10
0.442392
20
0.225131
11
0.436732
21
0.221019
0
LINE
8
BLACK
6
CONTINUOUS
10
0.436732
20
0.221019
11
0.430341
21
0.218173
0
LINE
8
BLACK
6
CONTINUOUS
10
0.430341
20
0.218173
11
0.423498
21
0.216719
0
LINE
8
BLACK
6
CONTINUOUS
10
0.423498
20
0.216719
11
0.416502
21
0.216719
0
LINE
8
BLACK
6
CONTINUOUS
10
0.416502
20
0.216719
11
0.409659
21
0.218173
0
LINE
8
BLACK
6
CONTINUOUS
10
0.409659
20
0.218173
11
0.403268
21
0.221019
0
LINE
8
BLACK
6
CONTINUOUS
10
0.403268
20
0.221019
11
0.397608
21
0.225131
0
LINE
8
BLACK
6
CONTINUOUS
10
0.397608
20
0.225131
11
0.392927
21
0.23033
0
LINE
8
BLACK
6
CONTINUOUS
10
0.392927
20
0.23033
11
0.389429
21
0.236389
0
LINE
8
BLACK
6
CONTINUOUS
10
0.389429
20
0.236389
11
0.387267
21
0.243042
0
LINE
8
BLACK
6
CONTINUOUS
10
0.387267
20
0.243042
11
0.386535
21
0.25
0
LINE
8
BLACK
6
CONTINUOUS
10
0.386535
20
0.25
11
0.387267
21
0.256958
0
LINE
8
BLACK
6
CONTINUOUS
10
0.387267
20
0.256958
11
0.389429
21
0.263611
0
LINE
8
BLACK
6
CONTINUOUS
10
0.389429
20
0.263611
11
0.392927
21
0.26967
0
LINE
8
BLACK
6
CONTINUOUS
10
0.392927
20
0.26967
11
0.397608
21
0.274869
0
LINE
8
BLACK
6
CONTINUOUS
10
0.397608
20
0.274869
11
0.403268
21
0.278981
0
LINE
8
BLACK
6
CONTINUOUS
10
0.403268
20
0.278981
11
0.409659
21
0.281827
0
LINE
8
BLACK
6
CONTINUOUS
10
0.409659
20
0.281827
11
0.416502
21
0.283281
0
LINE
8
BLACK
6
CONTINUOUS
10
0.416502
20
0.283281
11
0.423498
21
0.283281
0
LINE
8
BLACK
6
CONTINUOUS
10
0.423498
20
0.283281
11
0.430341
21
0.281827
0
LINE
8
BLACK
6
CONTINUOUS
10
-0.0768898
20
0.237205
11
-0.14185
21
0.237205
0
LINE
8
BLACK
6
CONTINUOUS
10
-0.14185
20
0.237205
11
-0.14185
21
0.262795
0
LINE
8
BLACK
6
CONTINUOUS
10
-0.14185
20
0.262795
11
-0.0768898
21
0.262795
0
LINE
8
BLACK
6
CONTINUOUS
10
-0.0768898
20
0.262795
11
-0.0768898
21
0.237205
0
LINE
8
BLACK
6
CONTINUOUS
10
0.21248
20
0.237205
11
0.14752
21
0.237205
0
LINE
8
BLACK
6
CONTINUOUS
10
0.14752
20
0.237205
11
0.14752
21
0.262795
0
LINE
8
BLACK
6
CONTINUOUS
10
0.14752
20
0.262795
11
0.21248
21
0.262795
0
LINE
8
BLACK
6
CONTINUOUS
10
0.21248
20
0.262795
11
0.21248
21
0.237205
0
LINE
8
BLACK
6
CONTINUOUS
10
-0.0768898
20
0.287205
11
-0.14185
21
0.287205
0
LINE
8
BLACK
6
CONTINUOUS
10
-0.14185
20
0.287205
11
-0.14185
21
0.312795
0
LINE
8
BLACK
6
CONTINUOUS
10
-0.14185
20
0.312795
11
-0.0768898
21
0.312795
0
LINE
8
BLACK
6
CONTINUOUS
10
-0.0768898
20
0.312795
11
-0.0768898
21
0.287205
0
LINE
8
BLACK
6
CONTINUOUS
10
0.21248
20
0.287205
11
0.14752
21
0.287205
0
LINE
8
BLACK
6
CONTINUOUS
10
0.14752
20
0.287205
11
0.14752
21
0.312795
0
LINE
8
BLACK
6
CONTINUOUS
10
0.14752
20
0.312795
11
0.21248
21
0.312795
0
LINE
8
BLACK
6
CONTINUOUS
10
0.21248
20
0.312795
11
0.21248
21
0.287205
0
LINE
8
BLACK
6
CONTINUOUS
10
0.330341
20
0.381827
11
0.336732
21
0.378981
0
LINE
8
BLACK
6
CONTINUOUS
10
0.336732
20
0.378981
11
0.342392
21
0.374869
0
LINE
8
BLACK
6
CONTINUOUS
10
0.342392
20
0.374869
11
0.347073
21
0.36967
0
LINE
8
BLACK
6
CONTINUOUS
10
0.347073
20
0.36967
11
0.350571
21
0.363611
0
LINE
8
BLACK
6
CONTINUOUS
10
0.350571
20
0.363611
11
0.352733
21
0.356958
0
LINE
8
BLACK
6
CONTINUOUS
10
0.352733
20
0.356958
11
0.353465
21
0.35
0
LINE
8
BLACK
6
CONTINUOUS
10
0.353465
20
0.35
11
0.352733
21
0.343042
0
LINE
8
BLACK
6
CONTINUOUS
10
0.352733
20
0.343042
11
0.350571
21
0.336389
0
LINE
8
BLACK
6
CONTINUOUS
10
0.350571
20
0.336389
11
0.347073
21
0.33033
0
LINE
8
BLACK
6
CONTINUOUS
10
0.347073
20
0.33033
11
0.342392
21
0.325131
0
LINE
8
BLACK
6
CONTINUOUS
10
0.342392
20
0.325131
11
0.336732
21
0.321019
0
LINE
8
BLACK
6
CONTINUOUS
10
0.336732
20
0.321019
11
0.330341
21
0.318173
0
LINE
8
BLACK
6
CONTINUOUS
10
0.330341
20
0.318173
11
0.323498
21
0.316719
0
LINE
8
BLACK
6
CONTINUOUS
10
0.323498
20
0.316719
11
0.316502
21
0.316719
0
LINE
8
BLACK
6
CONTINUOUS
10
0.316502
20
0.316719
11
0.309659
21
0.318173
0
LINE
8
BLACK
6
CONTINUOUS
10
0.309659
20
0.318173
11
0.303268
21
0.321019
0
LINE
8
BLACK
6
CONTINUOUS
10
0.303268
20
0.321019
11
0.297608
21
0.325131
0
LINE
8
BLACK
6
CONTINUOUS
10
0.297608
20
0.325131
11
0.292927
21
0.33033
0
LINE
8
BLACK
6
CONTINUOUS
10
0.292927
20
0.33033
11
0.289429
21
0.336389
0
LINE
8
BLACK
6
CONTINUOUS
10
0.289429
20
0.336389
11
0.287267
21
0.343042
0
LINE
8
BLACK
6
CONTINUOUS
10
0.287267
20
0.343042
11
0.286535
21
0.35
0
LINE
8
BLACK
6
CONTINUOUS
10
0.286535
20
0.35
11
0.287267
21
0.356958
0
LINE
8
BLACK
6
CONTINUOUS
10
0.287267
20
0.356958
11
0.289429
21
0.363611
0
LINE
8
BLACK
6
CONTINUOUS
10
0.289429
20
0.363611
11
0.292927
21
0.36967
0
LINE
8
BLACK
6
CONTINUOUS
10
0.292927
20
0.36967
11
0.297608
21
0.374869
0
LINE
8
BLACK
6
CONTINUOUS
10
0.297608
20
0.374869
11
0.303268
21
0.378981
0
LINE
8
BLACK
6
CONTINUOUS
10
0.303268
20
0.378981
11
0.309659
21
0.381827
0
LINE
8
BLACK
6
CONTINUOUS
10
0.309659
20
0.381827
11
0.316502
21
0.383281
0
LINE
8
BLACK
6
CONTINUOUS
10
0.316502
20
0.383281
11
0.323498
21
0.383281
0
LINE
8
BLACK
6
CONTINUOUS
10
0.323498
20
0.383281
11
0.330341
21
0.381827
0
LINE
8
BLACK
6
CONTINUOUS
10
0.430341
20
0.381827
11
0.436732
21
0.378981
0
LINE
8
BLACK
6
CONTINUOUS
10
0.436732
20
0.378981
11
0.442392
21
0.374869
0
LINE
8
BLACK
6
CONTINUOUS
10
0.442392
20
0.374869
11
0.447073
21
0.36967
0
LINE
8
BLACK
6
CONTINUOUS
10
0.447073
20
0.36967
11
0.450571
21
0.363611
0
LINE
8
BLACK
6
CONTINUOUS
10
0.450571
20
0.363611
11
0.452733
21
0.356958
0
LINE
8
BLACK
6
CONTINUOUS
10
0.452733
20
0.356958
11
0.453465
21
0.35
0
LINE
8
BLACK
6
CONTINUOUS
10
0.453465
20
0.35
11
0.452733
21
0.343042
0
LINE
8
BLACK
6
CONTINUOUS
10
0.452733
20
0.343042
11
0.450571
21
0.336389
0
LINE
8
BLACK
6
CONTINUOUS
10
0.450571
20
0.336389
11
0.447073
21
0.33033
0
LINE
8
BLACK
6
CONTINUOUS
10
0.447073
20
0.33033
11
0.442392
21
0.325131
0
LINE
8
BLACK
6
CONTINUOUS
10
0.442392
20
0.325131
11
0.436732
21
0.321019
0
LINE
8
BLACK
6
CONTINUOUS
10
0.436732
20
0.321019
11
0.430341
21
0.318173
0
LINE
8
BLACK
6
CONTINUOUS
10
0.430341
20
0.318173
11
0.423498
21
0.316719
0
LINE
8
BLACK
6
CONTINUOUS
10
0.423498
20
0.316719
11
0.416502
21
0.316719
0
LINE
8
BLACK
6
CONTINUOUS
10
0.416502
20
0.316719
11
0.409659
21
0.318173
0
LINE
8
BLACK
6
CONTINUOUS
10
0.409659
20
0.318173
11
0.403268
21
0.321019
0
LINE
8
BLACK
6
CONTINUOUS
10
0.403268
20
0.321019
11
0.397608
21
0.325131
0
LINE
8
BLACK
6
CONTINUOUS
10
0.397608
20
0.325131
11
0.392927
21
0.33033
0
LINE
8
BLACK
6
CONTINUOUS
10
0.392927
20
0.33033
11
0.389429
21
0.336389
0
LINE
8
BLACK
6
CONTINUOUS
10
0.389429
20
0.336389
11
0.387267
21
0.343042
0
LINE
8
BLACK
6
CONTINUOUS
10
0.387267
20
0.343042
11
0.386535
21
0.35
0
LINE
8
BLACK
6
CONTINUOUS
10
0.386535
20
0.35
11
0.387267
21
0.356958
0
LINE
8
BLACK
6
CONTINUOUS
10
0.387267
20
0.356958
11
0.389429
21
0.363611
0
LINE
8
BLACK
6
CONTINUOUS
10
0.389429
20
0.363611
11
0.392927
21
0.36967
0
LINE
8
BLACK
6
CONTINUOUS
10
0.392927
20
0.36967
11
0.397608
21
0.374869
0
LINE
8
BLACK
6
CONTINUOUS
10
0.397608
20
0.374869
11
0.403268
21
0.378981
0
LINE
8
BLACK
6
CONTINUOUS
10
0.403268
20
0.378981
11
0.409659
21
0.381827
0
LINE
8
BLACK
6
CONTINUOUS
10
0.409659
20
0.381827
11
0.416502
21
0.383281
0
LINE
8
BLACK
6
CONTINUOUS
10
0.416502
20
0.383281
11
0.423498
21
0.383281
0
LINE
8
BLACK
6
CONTINUOUS
10
0.423498
20
0.383281
11
0.430341
21
0.381827
0
LINE
8
BLACK
6
CONTINUOUS
10
-0.0768898
20
0.337205
11
-0.14185
21
0.337205
0
LINE
8
BLACK
6
CONTINUOUS
10
-0.14185
20
0.337205
11
-0.14185
21
0.362795
0
LINE
8
BLACK
6
CONTINUOUS
10
-0.14185
20
0.362795
11
-0.0768898
21
0.362795
0
LINE
8
BLACK
6
CONTINUOUS
10
-0.0768898
20
0.362795
11
-0.0768898
21
0.337205
0
LINE
8
BLACK
6
CONTINUOUS
10
0.21248
20
0.337205
11
0.14752
21
0.337205
0
LINE
8
BLACK
6
CONTINUOUS
10
0.14752
20
0.337205
11
0.14752
21
0.362795
0
LINE
8
BLACK
6
CONTINUOUS
10
0.14752
20
0.362795
11
0.21248
21
0.362795
0
LINE
8
BLACK
6
CONTINUOUS
10
0.21248
20
0.362795
11
0.21248
21
0.337205
0
LINE
8
BLACK
6
CONTINUOUS
10
-0.0768898
20
0.387205
11
-0.14185
21
0.387205
0
LINE
8
BLACK
6
CONTINUOUS
10
-0.14185
20
0.387205
11
-0.14185
21
0.412795
0
LINE
8
BLACK
6
CONTINUOUS
10
-0.14185
20
0.412795
11
-0.0768898
21
0.412795
0
LINE
8
BLACK
6
CONTINUOUS
10
-0.0768898
20
0.412795
11
-0.0768898
21
0.387205
0
LINE
8
BLACK
6
CONTINUOUS
10
0.21248
20
0.387205
11
0.14752
21
0.387205
0
LINE
8
BLACK
6
CONTINUOUS
10
0.14752
20
0.387205
11
0.14752
21
0.412795
0
LINE
8
BLACK
6
CONTINUOUS
10
0.14752
20
0.412795
11
0.21248
21
0.412795
0
LINE
8
BLACK
6
CONTINUOUS
10
0.21248
20
0.412795
11
0.21248
21
0.387205
0
LINE
8
BLACK
6
CONTINUOUS
10
0.330341
20
0.481827
11
0.336732
21
0.478981
0
LINE
8
BLACK
6
CONTINUOUS
10
0.336732
20
0.478981
11
0.342392
21
0.474869
0
LINE
8
BLACK
6
CONTINUOUS
10
0.342392
20
0.474869
11
0.347073
21
0.46967
0
LINE
8
BLACK
6
CONTINUOUS
10
0.347073
20
0.46967
11
0.350571
21
0.463611
0
LINE
8
BLACK
6
CONTINUOUS
10
0.350571
20
0.463611
11
0.352733
21
0.456958
0
LINE
8
BLACK
6
CONTINUOUS
10
0.352733
20
0.456958
11
0.353465
21
0.45
0
LINE
8
BLACK
6
CONTINUOUS
10
0.353465
20
0.45
11
0.352733
21
0.443042
0
LINE
8
BLACK
6
CONTINUOUS
10
0.352733
20
0.443042
11
0.350571
21
0.436389
0
LINE
8
BLACK
6
CONTINUOUS
10
0.350571
20
0.436389
11
0.347073
21
0.43033
0
LINE
8
BLACK
6
CONTINUOUS
10
0.347073
20
0.43033
11
0.342392
21
0.425131
0
LINE
8
BLACK
6
CONTINUOUS
10
0.342392
20
0.425131
11
0.336732
21
0.421019
0
LINE
8
BLACK
6
CONTINUOUS
10
0.336732
20
0.421019
11
0.330341
21
0.418173
0
LINE
8
BLACK
6
CONTINUOUS
10
0.330341
20
0.418173
11
0.323498
21
0.416719
0
LINE
8
BLACK
6
CONTINUOUS
10
0.323498
20
0.416719
11
0.316502
21
0.416719
0
LINE
8
BLACK
6
CONTINUOUS
10
0.316502
20
0.416719
11
0.309659
21
0.418173
0
LINE
8
BLACK
6
CONTINUOUS
10
0.309659
20
0.418173
11
0.303268
21
0.421019
0
LINE
8
BLACK
6
CONTINUOUS
10
0.303268
20
0.421019
11
0.297608
21
0.425131
0
LINE
8
BLACK
6
CONTINUOUS
10
0.297608
20
0.425131
11
0.292927
21
0.43033
0
LINE
8
BLACK
6
CONTINUOUS
10
0.292927
20
0.43033
11
0.289429
21
0.436389
0
LINE
8
BLACK
6
CONTINUOUS
10
0.289429
20
0.436389
11
0.287267
21
0.443042
0
LINE
8
BLACK
6
CONTINUOUS
10
0.287267
20
0.443042
11
0.286535
21
0.45
0
LINE
8
BLACK
6
CONTINUOUS
10
0.286535
20
0.45
11
0.287267
21
0.456958
0
LINE
8
BLACK
6
CONTINUOUS
10
0.287267
20
0.456958
11
0.289429
21
0.463611
0
LINE
8
BLACK
6
CONTINUOUS
10
0.289429
20
0.463611
11
0.292927
21
0.46967
0
LINE
8
BLACK
6
CONTINUOUS
10
0.292927
20
0.46967
11
0.297608
21
0.474869
0
LINE
8
BLACK
6
CONTINUOUS
10
0.297608
20
0.474869
11
0.303268
21
0.478981
0
LINE
8
BLACK
6
CONTINUOUS
10
0.303268
20
0.478981
11
0.309659
21
0.481827
0
LINE
8
BLACK
6
CONTINUOUS
10
0.309659
20
0.481827
11
0.316502
21
0.483281
0
LINE
8
BLACK
6
CONTINUOUS
10
0.316502
20
0.483281
11
0.323498
21
0.483281
0
LINE
8
BLACK
6
CONTINUOUS
10
0.323498
20
0.483281
11
0.330341
21
0.481827
0
LINE
8
BLACK
6
CONTINUOUS
10
0.430341
20
0.481827
11
0.436732
21
0.478981
0
LINE
8
BLACK
6
CONTINUOUS
10
0.436732
20
0.478981
11
0.442392
21
0.474869
0
LINE
8
BLACK
6
CONTINUOUS
10
0.442392
20
0.474869
11
0.447073
21
0.46967
0
LINE
8
BLACK
6
CONTINUOUS
10
0.447073
20
0.46967
11
0.450571
21
0.463611
0
LINE
8
BLACK
6
CONTINUOUS
10
0.450571
20
0.463611
11
0.452733
21
0.456958
0
LINE
8
BLACK
6
CONTINUOUS
10
0.452733
20
0.456958
11
0.453465
21
0.45
0
LINE
8
BLACK
6
CONTINUOUS
10
0.453465
20
0.45
11
0.452733
21
0.443042
0
LINE
8
BLACK
6
CONTINUOUS
10
0.452733
20
0.443042
11
0.450571
21
0.436389
0
LINE
8
BLACK
6
CONTINUOUS
10
0.450571
20
0.436389
11
0.447073
21
0.43033
0
LINE
8
BLACK
6
CONTINUOUS
10
0.447073
20
0.43033
11
0.442392
21
0.425131
0
LINE
8
BLACK
6
CONTINUOUS
10
0.442392
20
0.425131
11
0.436732
21
0.421019
0
LINE
8
BLACK
6
CONTINUOUS
10
0.436732
20
0.421019
11
0.430341
21
0.418173
0
LINE
8
BLACK
6
CONTINUOUS
10
0.430341
20
0.418173
11
0.423498
21
0.416719
0
LINE
8
BLACK
6
CONTINUOUS
10
0.423498
20
0.416719
11
0.416502
21
0.416719
0
LINE
8
BLACK
6
CONTINUOUS
10
0.416502
20
0.416719
11
0.409659
21
0.418173
0
LINE
8
BLACK
6
CONTINUOUS
10
0.409659
20
0.418173
11
0.403268
21
0.421019
0
LINE
8
BLACK
6
CONTINUOUS
10
0.403268
20
0.421019
11
0.397608
21
0.425131
0
LINE
8
BLACK
6
CONTINUOUS
10
0.397608
20
0.425131
11
0.392927
21
0.43033
0
LINE
8
BLACK
6
CONTINUOUS
10
0.392927
20
0.43033
11
0.389429
21
0.436389
0
LINE
8
BLACK
6
CONTINUOUS
10
0.389429
20
0.436389
11
0.387267
21
0.443042
0
LINE
8
BLACK
6
CONTINUOUS
10
0.387267
20
0.443042
11
0.386535
21
0.45
0
LINE
8
BLACK
6
CONTINUOUS
10
0.386535
20
0.45
11
0.387267
21
0.456958
0
LINE
8
BLACK
6
CONTINUOUS
10
0.387267
20
0.456958
11
0.389429
21
0.463611
0
LINE
8
BLACK
6
CONTINUOUS
10
0.389429
20
0.463611
11
0.392927
21
0.46967
0
LINE
8
BLACK
6
CONTINUOUS
10
0.392927
20
0.46967
11
0.397608
21
0.474869
0
LINE
8
BLACK
6
CONTINUOUS
10
0.397608
20
0.474869
11
0.403268
21
0.478981
0
LINE
8
BLACK
6
CONTINUOUS
10
0.403268
20
0.478981
11
0.409659
21
0.481827
0
LINE
8
BLACK
6
CONTINUOUS
10
0.409659
20
0.481827
11
0.416502
21
0.483281
0
LINE
8
BLACK
6
CONTINUOUS
10
0.416502
20
0.483281
11
0.423498
21
0.483281
0
LINE
8
BLACK
6
CONTINUOUS
10
0.423498
20
0.483281
11
0.430341
21
0.481827
0
LINE
8
BLACK
6
CONTINUOUS
10
0.540774
20
0.474448
11
0.543968
21
0.472314
0
LINE
8
BLACK
6
CONTINUOUS
10
0.543968
20
0.472314
11
0.546101
21
0.469121
0
LINE
8
BLACK
6
CONTINUOUS
10
0.546101
20
0.469121
11
0.54685
21
0.465354
0
LINE
8
BLACK
6
CONTINUOUS
10
0.54685
20
0.465354
11
0.54685
21
0.441732
0
LINE
8
BLACK
6
CONTINUOUS
10
0.54685
20
0.441732
11
0.546101
21
0.437966
0
LINE
8
BLACK
6
CONTINUOUS
10
0.546101
20
0.437966
11
0.543968
21
0.434773
0
LINE
8
BLACK
6
CONTINUOUS
10
0.543968
20
0.434773
11
0.540774
21
0.432639
0
LINE
8
BLACK
6
CONTINUOUS
10
0.540774
20
0.432639
11
0.537008
21
0.43189
0
LINE
8
BLACK
6
CONTINUOUS
10
0.537008
20
0.43189
11
0.513386
21
0.43189
0
LINE
8
BLACK
6
CONTINUOUS
10
0.513386
20
0.43189
11
0.509619
21
0.432639
0
LINE
8
BLACK
6
CONTINUOUS
10
0.509619
20
0.432639
11
0.506426
21
0.434773
0
LINE
8
BLACK
6
CONTINUOUS
10
0.506426
20
0.434773
11
0.504293
21
0.437966
0
LINE
8
BLACK
6
CONTINUOUS
10
0.504293
20
0.437966
11
0.503543
21
0.441732
0
LINE
8
BLACK
6
CONTINUOUS
10
0.503543
20
0.441732
11
0.503543
21
0.465354
0
LINE
8
BLACK
6
CONTINUOUS
10
0.503543
20
0.465354
11
0.504293
21
0.469121
0
LINE
8
BLACK
6
CONTINUOUS
10
0.504293
20
0.469121
11
0.506426
21
0.472314
0
LINE
8
BLACK
6
CONTINUOUS
10
0.506426
20
0.472314
11
0.509619
21
0.474448
0
LINE
8
BLACK
6
CONTINUOUS
10
0.509619
20
0.474448
11
0.513386
21
0.475197
0
LINE
8
BLACK
6
CONTINUOUS
10
0.513386
20
0.475197
11
0.537008
21
0.475197
0
LINE
8
BLACK
6
CONTINUOUS
10
0.537008
20
0.475197
11
0.540774
21
0.474448
0
LINE
8
BLACK
6
CONTINUOUS
10
-0.0996589
20
0.51789
11
-0.0932677
21
0.515044
0
LINE
8
BLACK
6
CONTINUOUS
10
-0.0932677
20
0.515044
11
-0.0876078
21
0.510932
0
LINE
8
BLACK
6
CONTINUOUS
10
-0.0876078
20
0.510932
11
-0.0829266
21
0.505733
0
LINE
8
BLACK
6
CONTINUOUS
10
-0.0829266
20
0.505733
11
-0.0794286
21
0.499674
0
LINE
8
BLACK
6
CONTINUOUS
10
-0.0794286
20
0.499674
11
-0.0772667
21
0.493021
0
LINE
8
BLACK
6
CONTINUOUS
10
-0.0772667
20
0.493021
11
-0.0765354
21
0.486063
0
LINE
8
BLACK
6
CONTINUOUS
10
-0.0765354
20
0.486063
11
-0.0772667
21
0.479105
0
LINE
8
BLACK
6
CONTINUOUS
10
-0.0772667
20
0.479105
11
-0.0794286
21
0.472452
0
LINE
8
BLACK
6
CONTINUOUS
10
-0.0794286
20
0.472452
11
-0.0829266
21
0.466393
0
LINE
8
BLACK
6
CONTINUOUS
10
-0.0829266
20
0.466393
11
-0.0876078
21
0.461194
0
LINE
8
BLACK
6
CONTINUOUS
10
-0.0876078
20
0.461194
11
-0.0932677
21
0.457082
0
LINE
8
BLACK
6
CONTINUOUS
10
-0.0932677
20
0.457082
11
-0.0996589
21
0.454236
0
LINE
8
BLACK
6
CONTINUOUS
10
-0.0996589
20
0.454236
11
-0.106502
21
0.452782
0
LINE
8
BLACK
6
CONTINUOUS
10
-0.106502
20
0.452782
11
-0.113498
21
0.452782
0
LINE
8
BLACK
6
CONTINUOUS
10
-0.113498
20
0.452782
11
-0.120341
21
0.454236
0
LINE
8
BLACK
6
CONTINUOUS
10
-0.120341
20
0.454236
11
-0.126732
21
0.457082
0
LINE
8
BLACK
6
CONTINUOUS
10
-0.126732
20
0.457082
11
-0.132392
21
0.461194
0
LINE
8
BLACK
6
CONTINUOUS
10
-0.132392
20
0.461194
11
-0.137073
21
0.466393
0
LINE
8
BLACK
6
CONTINUOUS
10
-0.137073
20
0.466393
11
-0.140571
21
0.472452
0
LINE
8
BLACK
6
CONTINUOUS
10
-0.140571
20
0.472452
11
-0.142733
21
0.479105
0
LINE
8
BLACK
6
CONTINUOUS
10
-0.142733
20
0.479105
11
-0.143465
21
0.486063
0
LINE
8
BLACK
6
CONTINUOUS
10
-0.143465
20
0.486063
11
-0.142733
21
0.493021
0
LINE
8
BLACK
6
CONTINUOUS
10
-0.142733
20
0.493021
11
-0.140571
21
0.499674
0
LINE
8
BLACK
6
CONTINUOUS
10
-0.140571
20
0.499674
11
-0.137073
21
0.505733
0
LINE
8
BLACK
6
CONTINUOUS
10
-0.137073
20
0.505733
11
-0.132392
21
0.510932
0
LINE
8
BLACK
6
CONTINUOUS
10
-0.132392
20
0.510932
11
-0.126732
21
0.515044
0
LINE
8
BLACK
6
CONTINUOUS
10
-0.126732
20
0.515044
11
-0.120341
21
0.51789
0
LINE
8
BLACK
6
CONTINUOUS
10
-0.120341
20
0.51789
11
-0.113498
21
0.519344
0
LINE
8
BLACK
6
CONTINUOUS
10
-0.113498
20
0.519344
11
-0.106502
21
0.519344
0
LINE
8
BLACK
6
CONTINUOUS
10
-0.106502
20
0.519344
11
-0.0996589
21
0.51789
0
LINE
8
BLACK
6
CONTINUOUS
10
0.000341102
20
0.51789
11
0.00673228
21
0.515044
0
LINE
8
BLACK
6
CONTINUOUS
10
0.00673228
20
0.515044
11
0.0123922
21
0.510932
0
LINE
8
BLACK
6
CONTINUOUS
10
0.0123922
20
0.510932
11
0.0170734
21
0.505733
0
LINE
8
BLACK
6
CONTINUOUS
10
0.0170734
20
0.505733
11
0.0205714
21
0.499674
0
LINE
8
BLACK
6
CONTINUOUS
10
0.0205714
20
0.499674
11
0.0227333
21
0.493021
0
LINE
8
BLACK
6
CONTINUOUS
10
0.0227333
20
0.493021
11
0.0234646
21
0.486063
0
LINE
8
BLACK
6
CONTINUOUS
10
0.0234646
20
0.486063
11
0.0227333
21
0.479105
0
LINE
8
BLACK
6
CONTINUOUS
10
0.0227333
20
0.479105
11
0.0205714
21
0.472452
0
LINE
8
BLACK
6
CONTINUOUS
10
0.0205714
20
0.472452
11
0.0170734
21
0.466393
0
LINE
8
BLACK
6
CONTINUOUS
10
0.0170734
20
0.466393
11
0.0123922
21
0.461194
0
LINE
8
BLACK
6
CONTINUOUS
10
0.0123922
20
0.461194
11
0.00673228
21
0.457082
0
LINE
8
BLACK
6
CONTINUOUS
10
0.00673228
20
0.457082
11
0.000341102
21
0.454236
0
LINE
8
BLACK
6
CONTINUOUS
10
0.000341102
20
0.454236
11
-0.00650201
21
0.452782
0
LINE
8
BLACK
6
CONTINUOUS
10
-0.00650201
20
0.452782
11
-0.013498
21
0.452782
0
LINE
8
BLACK
6
CONTINUOUS
10
-0.013498
20
0.452782
11
-0.0203411
21
0.454236
0
LINE
8
BLACK
6
CONTINUOUS
10
-0.0203411
20
0.454236
11
-0.0267323
21
0.457082
0
LINE
8
BLACK
6
CONTINUOUS
10
-0.0267323
20
0.457082
11
-0.0323922
21
0.461194
0
LINE
8
BLACK
6
CONTINUOUS
10
-0.0323922
20
0.461194
11
-0.0370734
21
0.466393
0
LINE
8
BLACK
6
CONTINUOUS
10
-0.0370734
20
0.466393
11
-0.0405714
21
0.472452
0
LINE
8
BLACK
6
CONTINUOUS
10
-0.0405714
20
0.472452
11
-0.0427333
21
0.479105
0
LINE
8
BLACK
6
CONTINUOUS
10
-0.0427333
20
0.479105
11
-0.0434646
21
0.486063
0
LINE
8
BLACK
6
CONTINUOUS
10
-0.0434646
20
0.486063
11
-0.0427333
21
0.493021
0
LINE
8
BLACK
6
CONTINUOUS
10
-0.0427333
20
0.493021
11
-0.0405714
21
0.499674
0
LINE
8
BLACK
6
CONTINUOUS
10
-0.0405714
20
0.499674
11
-0.0370734
21
0.505733
0
LINE
8
BLACK
6
CONTINUOUS
10
-0.0370734
20
0.505733
11
-0.0323922
21
0.510932
0
LINE
8
BLACK
6
CONTINUOUS
10
-0.0323922
20
0.510932
11
-0.0267323
21
0.515044
0
LINE
8
BLACK
6
CONTINUOUS
10
-0.0267323
20
0.515044
11
-0.0203411
21
0.51789
0
LINE
8
BLACK
6
CONTINUOUS
10
-0.0203411
20
0.51789
11
-0.013498
21
0.519344
0
LINE
8
BLACK
6
CONTINUOUS
10
-0.013498
20
0.519344
11
-0.00650201
21
0.519344
0
LINE
8
BLACK
6
CONTINUOUS
10
-0.00650201
20
0.519344
11
0.000341102
21
0.51789
0
LINE
8
BLACK
6
CONTINUOUS
10
0.100341
20
0.51789
11
0.106732
21
0.515044
0
LINE
8
BLACK
6
CONTINUOUS
10
0.106732
20
0.515044
11
0.112392
21
0.510932
0
LINE
8
BLACK
6
CONTINUOUS
10
0.112392
20
0.510932
11
0.117073
21
0.505733
0
LINE
8
BLACK
6
CONTINUOUS
10
0.117073
20
0.505733
11
0.120571
21
0.499674
0
LINE
8
BLACK
6
CONTINUOUS
10
0.120571
20
0.499674
11
0.122733
21
0.493021
0
LINE
8
BLACK
6
CONTINUOUS
10
0.122733
20
0.493021
11
0.123465
21
0.486063
0
LINE
8
BLACK
6
CONTINUOUS
10
0.123465
20
0.486063
11
0.122733
21
0.479105
0
LINE
8
BLACK
6
CONTINUOUS
10
0.122733
20
0.479105
11
0.120571
21
0.472452
0
LINE
8
BLACK
6
CONTINUOUS
10
0.120571
20
0.472452
11
0.117073
21
0.466393
0
LINE
8
BLACK
6
CONTINUOUS
10
0.117073
20
0.466393
11
0.112392
21
0.461194
0
LINE
8
BLACK
6
CONTINUOUS
10
0.112392
20
0.461194
11
0.106732
21
0.457082
0
LINE
8
BLACK
6
CONTINUOUS
10
0.106732
20
0.457082
11
0.100341
21
0.454236
0
LINE
8
BLACK
6
CONTINUOUS
10
0.100341
20
0.454236
11
0.093498
21
0.452782
0
LINE
8
BLACK
6
CONTINUOUS
10
0.093498
20
0.452782
11
0.086502
21
0.452782
0
LINE
8
BLACK
6
CONTINUOUS
10
0.086502
20
0.452782
11
0.0796589
21
0.454236
0
LINE
8
BLACK
6
CONTINUOUS
10
0.0796589
20
0.454236
11
0.0732677
21
0.457082
0
LINE
8
BLACK
6
CONTINUOUS
10
0.0732677
20
0.457082
11
0.0676078
21
0.461194
0
LINE
8
BLACK
6
CONTINUOUS
10
0.0676078
20
0.461194
11
0.0629266
21
0.466393
0
LINE
8
BLACK
6
CONTINUOUS
10
0.0629266
20
0.466393
11
0.0594286
21
0.472452
0
LINE
8
BLACK
6
CONTINUOUS
10
0.0594286
20
0.472452
11
0.0572667
21
0.479105
0
LINE
8
BLACK
6
CONTINUOUS
10
0.0572667
20
0.479105
11
0.0565354
21
0.486063
0
LINE
8
BLACK
6
CONTINUOUS
10
0.0565354
20
0.486063
11
0.0572667
21
0.493021
0
LINE
8
BLACK
6
CONTINUOUS
10
0.0572667
20
0.493021
11
0.0594286
21
0.499674
0
LINE
8
BLACK
6
CONTINUOUS
10
0.0594286
20
0.499674
11
0.0629266
21
0.505733
0
LINE
8
BLACK
6
CONTINUOUS
10
0.0629266
20
0.505733
11
0.0676078
21
0.510932
0
LINE
8
BLACK
6
CONTINUOUS
10
0.0676078
20
0.510932
11
0.0732677
21
0.515044
0
LINE
8
BLACK
6
CONTINUOUS
10
0.0732677
20
0.515044
11
0.0796589
21
0.51789
0
LINE
8
BLACK
6
CONTINUOUS
10
0.0796589
20
0.51789
11
0.086502
21
0.519344
0
LINE
8
BLACK
6
CONTINUOUS
10
0.086502
20
0.519344
11
0.093498
21
0.519344
0
LINE
8
BLACK
6
CONTINUOUS
10
0.093498
20
0.519344
11
0.100341
21
0.51789
0
LINE
8
BLACK
6
CONTINUOUS
10
0.353465
20
0.516535
11
0.286535
21
0.516535
0
LINE
8
BLACK
6
CONTINUOUS
10
0.286535
20
0.516535
11
0.286535
21
0.583465
0
LINE
8
BLACK
6
CONTINUOUS
10
0.286535
20
0.583465
11
0.353465
21
0.583465
0
LINE
8
BLACK
6
CONTINUOUS
10
0.353465
20
0.583465
11
0.353465
21
0.516535
0
LINE
8
BLACK
6
CONTINUOUS
10
0.430341
20
0.581827
11
0.436732
21
0.578981
0
LINE
8
BLACK
6
CONTINUOUS
10
0.436732
20
0.578981
11
0.442392
21
0.574869
0
LINE
8
BLACK
6
CONTINUOUS
10
0.442392
20
0.574869
11
0.447073
21
0.56967
0
LINE
8
BLACK
6
CONTINUOUS
10
0.447073
20
0.56967
11
0.450571
21
0.563611
0
LINE
8
BLACK
6
CONTINUOUS
10
0.450571
20
0.563611
11
0.452733
21
0.556958
0
LINE
8
BLACK
6
CONTINUOUS
10
0.452733
20
0.556958
11
0.453465
21
0.55
0
LINE
8
BLACK
6
CONTINUOUS
10
0.453465
20
0.55
11
0.452733
21
0.543042
0
LINE
8
BLACK
6
CONTINUOUS
10
0.452733
20
0.543042
11
0.450571
21
0.536389
0
LINE
8
BLACK
6
CONTINUOUS
10
0.450571
20
0.536389
11
0.447073
21
0.53033
0
LINE
8
BLACK
6
CONTINUOUS
10
0.447073
20
0.53033
11
0.442392
21
0.525131
0
LINE
8
BLACK
6
CONTINUOUS
10
0.442392
20
0.525131
11
0.436732
21
0.521019
0
LINE
8
BLACK
6
CONTINUOUS
10
0.436732
20
0.521019
11
0.430341
21
0.518173
0
LINE
8
BLACK
6
CONTINUOUS
10
0.430341
20
0.518173
11
0.423498
21
0.516719
0
LINE
8
BLACK
6
CONTINUOUS
10
0.423498
20
0.516719
11
0.416502
21
0.516719
0
LINE
8
BLACK
6
CONTINUOUS
10
0.416502
20
0.516719
11
0.409659
21
0.518173
0
LINE
8
BLACK
6
CONTINUOUS
10
0.409659
20
0.518173
11
0.403268
21
0.521019
0
LINE
8
BLACK
6
CONTINUOUS
10
0.403268
20
0.521019
11
0.397608
21
0.525131
0
LINE
8
BLACK
6
CONTINUOUS
10
0.397608
20
0.525131
11
0.392927
21
0.53033
0
LINE
8
BLACK
6
CONTINUOUS
10
0.392927
20
0.53033
11
0.389429
21
0.536389
0
LINE
8
BLACK
6
CONTINUOUS
10
0.389429
20
0.536389
11
0.387267
21
0.543042
0
LINE
8
BLACK
6
CONTINUOUS
10
0.387267
20
0.543042
11
0.386535
21
0.55
0
LINE
8
BLACK
6
CONTINUOUS
10
0.386535
20
0.55
11
0.387267
21
0.556958
0
LINE
8
BLACK
6
CONTINUOUS
10
0.387267
20
0.556958
11
0.389429
21
0.563611
0
LINE
8
BLACK
6
CONTINUOUS
10
0.389429
20
0.563611
11
0.392927
21
0.56967
0
LINE
8
BLACK
6
CONTINUOUS
10
0.392927
20
0.56967
11
0.397608
21
0.574869
0
LINE
8
BLACK
6
CONTINUOUS
10
0.397608
20
0.574869
11
0.403268
21
0.578981
0
LINE
8
BLACK
6
CONTINUOUS
10
0.403268
20
0.578981
11
0.409659
21
0.581827
0
LINE
8
BLACK
6
CONTINUOUS
10
0.409659
20
0.581827
11
0.416502
21
0.583281
0
LINE
8
BLACK
6
CONTINUOUS
10
0.416502
20
0.583281
11
0.423498
21
0.583281
0
LINE
8
BLACK
6
CONTINUOUS
10
0.423498
20
0.583281
11
0.430341
21
0.581827
0
LINE
8
BLACK
6
CONTINUOUS
10
0.540774
20
0.584684
11
0.543968
21
0.58255
0
LINE
8
BLACK
6
CONTINUOUS
10
0.543968
20
0.58255
11
0.546101
21
0.579357
0
LINE
8
BLACK
6
CONTINUOUS
10
0.546101
20
0.579357
11
0.54685
21
0.575591
0
LINE
8
BLACK
6
CONTINUOUS
10
0.54685
20
0.575591
11
0.54685
21
0.551969
0
LINE
8
BLACK
6
CONTINUOUS
10
0.54685
20
0.551969
11
0.546101
21
0.548202
0
LINE
8
BLACK
6
CONTINUOUS
10
0.546101
20
0.548202
11
0.543968
21
0.545009
0
LINE
8
BLACK
6
CONTINUOUS
10
0.543968
20
0.545009
11
0.540774
21
0.542875
0
LINE
8
BLACK
6
CONTINUOUS
10
0.540774
20
0.542875
11
0.537008
21
0.542126
0
LINE
8
BLACK
6
CONTINUOUS
10
0.537008
20
0.542126
11
0.513386
21
0.542126
0
LINE
8
BLACK
6
CONTINUOUS
10
0.513386
20
0.542126
11
0.509619
21
0.542875
0
LINE
8
BLACK
6
CONTINUOUS
10
0.509619
20
0.542875
11
0.506426
21
0.545009
0
LINE
8
BLACK
6
CONTINUOUS
10
0.506426
20
0.545009
11
0.504293
21
0.548202
0
LINE
8
BLACK
6
CONTINUOUS
10
0.504293
20
0.548202
11
0.503543
21
0.551969
0
LINE
8
BLACK
6
CONTINUOUS
10
0.503543
20
0.551969
11
0.503543
21
0.575591
0
LINE
8
BLACK
6
CONTINUOUS
10
0.503543
20
0.575591
11
0.504293
21
0.579357
0
LINE
8
BLACK
6
CONTINUOUS
10
0.504293
20
0.579357
11
0.506426
21
0.58255
0
LINE
8
BLACK
6
CONTINUOUS
10
0.506426
20
0.58255
11
0.509619
21
0.584684
0
LINE
8
BLACK
6
CONTINUOUS
10
0.509619
20
0.584684
11
0.513386
21
0.585433
0
LINE
8
BLACK
6
CONTINUOUS
10
0.513386
20
0.585433
11
0.537008
21
0.585433
0
LINE
8
BLACK
6
CONTINUOUS
10
0.537008
20
0.585433
11
0.540774
21
0.584684
0
LINE
8
BLACK
6
CONTINUOUS
10
0.123465
20
0.552598
11
0.0565354
21
0.552598
0
LINE
8
BLACK
6
CONTINUOUS
10
0.0565354
20
0.552598
11
0.0565354
21
0.619528
0
LINE
8
BLACK
6
CONTINUOUS
10
0.0565354
20
0.619528
11
0.123465
21
0.619528
0
LINE
8
BLACK
6
CONTINUOUS
10
0.123465
20
0.619528
11
0.123465
21
0.552598
0
LINE
8
BLACK
6
CONTINUOUS
10
-0.0996589
20
0.61789
11
-0.0932677
21
0.615044
0
LINE
8
BLACK
6
CONTINUOUS
10
-0.0932677
20
0.615044
11
-0.0876078
21
0.610932
0
LINE
8
BLACK
6
CONTINUOUS
10
-0.0876078
20
0.610932
11
-0.0829266
21
0.605733
0
LINE
8
BLACK
6
CONTINUOUS
10
-0.0829266
20
0.605733
11
-0.0794286
21
0.599674
0
LINE
8
BLACK
6
CONTINUOUS
10
-0.0794286
20
0.599674
11
-0.0772667
21
0.593021
0
LINE
8
BLACK
6
CONTINUOUS
10
-0.0772667
20
0.593021
11
-0.0765354
21
0.586063
0
LINE
8
BLACK
6
CONTINUOUS
10
-0.0765354
20
0.586063
11
-0.0772667
21
0.579105
0
LINE
8
BLACK
6
CONTINUOUS
10
-0.0772667
20
0.579105
11
-0.0794286
21
0.572452
0
LINE
8
BLACK
6
CONTINUOUS
10
-0.0794286
20
0.572452
11
-0.0829266
21
0.566393
0
LINE
8
BLACK
6
CONTINUOUS
10
-0.0829266
20
0.566393
11
-0.0876078
21
0.561194
0
LINE
8
BLACK
6
CONTINUOUS
10
-0.0876078
20
0.561194
11
-0.0932677
21
0.557082
0
LINE
8
BLACK
6
CONTINUOUS
10
-0.0932677
20
0.557082
11
-0.0996589
21
0.554236
0
LINE
8
BLACK
6
CONTINUOUS
10
-0.0996589
20
0.554236
11
-0.106502
21
0.552782
0
LINE
8
BLACK
6
CONTINUOUS
10
-0.106502
20
0.552782
11
-0.113498
21
0.552782
0
LINE
8
BLACK
6
CONTINUOUS
10
-0.113498
20
0.552782
11
-0.120341
21
0.554236
0
LINE
8
BLACK
6
CONTINUOUS
10
-0.120341
20
0.554236
11
-0.126732
21
0.557082
0
LINE
8
BLACK
6
CONTINUOUS
10
-0.126732
20
0.557082
11
-0.132392
21
0.561194
0
LINE
8
BLACK
6
CONTINUOUS
10
-0.132392
20
0.561194
11
-0.137073
21
0.566393
0
LINE
8
BLACK
6
CONTINUOUS
10
-0.137073
20
0.566393
11
-0.140571
21
0.572452
0
LINE
8
BLACK
6
CONTINUOUS
10
-0.140571
20
0.572452
11
-0.142733
21
0.579105
0
LINE
8
BLACK
6
CONTINUOUS
10
-0.142733
20
0.579105
11
-0.143465
21
0.586063
0
LINE
8
BLACK
6
CONTINUOUS
10
-0.143465
20
0.586063
11
-0.142733
21
0.593021
0
LINE
8
BLACK
6
CONTINUOUS
10
-0.142733
20
0.593021
11
-0.140571
21
0.599674
0
LINE
8
BLACK
6
CONTINUOUS
10
-0.140571
20
0.599674
11
-0.137073
21
0.605733
0
LINE
8
BLACK
6
CONTINUOUS
10
-0.137073
20
0.605733
11
-0.132392
21
0.610932
0
LINE
8
BLACK
6
CONTINUOUS
10
-0.132392
20
0.610932
11
-0.126732
21
0.615044
0
LINE
8
BLACK
6
CONTINUOUS
10
-0.126732
20
0.615044
11
-0.120341
21
0.61789
0
LINE
8
BLACK
6
CONTINUOUS
10
-0.120341
20
0.61789
11
-0.113498
21
0.619344
0
LINE
8
BLACK
6
CONTINUOUS
10
-0.113498
20
0.619344
11
-0.106502
21
0.619344
0
LINE
8
BLACK
6
CONTINUOUS
10
-0.106502
20
0.619344
11
-0.0996589
21
0.61789
0
LINE
8
BLACK
6
CONTINUOUS
10
0.000341102
20
0.61789
11
0.00673228
21
0.615044
0
LINE
8
BLACK
6
CONTINUOUS
10
0.00673228
20
0.615044
11
0.0123922
21
0.610932
0
LINE
8
BLACK
6
CONTINUOUS
10
0.0123922
20
0.610932
11
0.0170734
21
0.605733
0
LINE
8
BLACK
6
CONTINUOUS
10
0.0170734
20
0.605733
11
0.0205714
21
0.599674
0
LINE
8
BLACK
6
CONTINUOUS
10
0.0205714
20
0.599674
11
0.0227333
21
0.593021
0
LINE
8
BLACK
6
CONTINUOUS
10
0.0227333
20
0.593021
11
0.0234646
21
0.586063
0
LINE
8
BLACK
6
CONTINUOUS
10
0.0234646
20
0.586063
11
0.0227333
21
0.579105
0
LINE
8
BLACK
6
CONTINUOUS
10
0.0227333
20
0.579105
11
0.0205714
21
0.572452
0
LINE
8
BLACK
6
CONTINUOUS
10
0.0205714
20
0.572452
11
0.0170734
21
0.566393
0
LINE
8
BLACK
6
CONTINUOUS
10
0.0170734
20
0.566393
11
0.0123922
21
0.561194
0
LINE
8
BLACK
6
CONTINUOUS
10
0.0123922
20
0.561194
11
0.00673228
21
0.557082
0
LINE
8
BLACK
6
CONTINUOUS
10
0.00673228
20
0.557082
11
0.000341102
21
0.554236
0
LINE
8
BLACK
6
CONTINUOUS
10
0.000341102
20
0.554236
11
-0.00650201
21
0.552782
0
LINE
8
BLACK
6
CONTINUOUS
10
-0.00650201
20
0.552782
11
-0.013498
21
0.552782
0
LINE
8
BLACK
6
CONTINUOUS
10
-0.013498
20
0.552782
11
-0.0203411
21
0.554236
0
LINE
8
BLACK
6
CONTINUOUS
10
-0.0203411
20
0.554236
11
-0.0267323
21
0.557082
0
LINE
8
BLACK
6
CONTINUOUS
10
-0.0267323
20
0.557082
11
-0.0323922
21
0.561194
0
LINE
8
BLACK
6
CONTINUOUS
10
-0.0323922
20
0.561194
11
-0.0370734
21
0.566393
0
LINE
8
BLACK
6
CONTINUOUS
10
-0.0370734
20
0.566393
11
-0.0405714
21
0.572452
0
LINE
8
BLACK
6
CONTINUOUS
10
-0.0405714
20
0.572452
11
-0.0427333
21
0.579105
0
LINE
8
BLACK
6
CONTINUOUS
10
-0.0427333
20
0.579105
11
-0.0434646
21
0.586063
0
LINE
8
BLACK
6
CONTINUOUS
10
-0.0434646
20
0.586063
11
-0.0427333
21
0.593021
0
LINE
8
BLACK
6
CONTINUOUS
10
-0.0427333
20
0.593021
11
-0.0405714
21
0.599674
0
LINE
8
BLACK
6
CONTINUOUS
10
-0.0405714
20
0.599674
11
-0.0370734
21
0.605733
0
LINE
8
BLACK
6
CONTINUOUS
10
-0.0370734
20
0.605733
11
-0.0323922
21
0.610932
0
LINE
8
BLACK
6
CONTINUOUS
10
-0.0323922
20
0.610932
11
-0.0267323
21
0.615044
0
LINE
8
BLACK
6
CONTINUOUS
10
-0.0267323
20
0.615044
11
-0.0203411
21
0.61789
0
LINE
8
BLACK
6
CONTINUOUS
10
-0.0203411
20
0.61789
11
-0.013498
21
0.619344
0
LINE
8
BLACK
6
CONTINUOUS
10
-0.013498
20
0.619344
11
-0.00650201
21
0.619344
0
LINE
8
BLACK
6
CONTINUOUS
10
-0.00650201
20
0.619344
11
0.000341102
21
0.61789
0
LINE
8
BLACK
6
CONTINUOUS
10
0.207681
20
0.747275
11
0.215066
21
0.745035
0
LINE
8
BLACK
6
CONTINUOUS
10
0.215066
20
0.745035
11
0.221873
21
0.741396
0
LINE
8
BLACK
6
CONTINUOUS
10
0.221873
20
0.741396
11
0.227839
21
0.7365
0
LINE
8
BLACK
6
CONTINUOUS
10
0.227839
20
0.7365
11
0.232735
21
0.730534
0
LINE
8
BLACK
6
CONTINUOUS
10
0.232735
20
0.730534
11
0.236373
21
0.723728
0
LINE
8
BLACK
6
CONTINUOUS
10
0.236373
20
0.723728
11
0.238614
21
0.716342
0
LINE
8
BLACK
6
CONTINUOUS
10
0.238614
20
0.716342
11
0.23937
21
0.708661
0
LINE
8
BLACK
6
CONTINUOUS
10
0.23937
20
0.708661
11
0.238614
21
0.700981
0
LINE
8
BLACK
6
CONTINUOUS
10
0.238614
20
0.700981
11
0.236373
21
0.693595
0
LINE
8
BLACK
6
CONTINUOUS
10
0.236373
20
0.693595
11
0.232735
21
0.686789
0
LINE
8
BLACK
6
CONTINUOUS
10
0.232735
20
0.686789
11
0.227839
21
0.680823
0
LINE
8
BLACK
6
CONTINUOUS
10
0.227839
20
0.680823
11
0.221873
21
0.675926
0
LINE
8
BLACK
6
CONTINUOUS
10
0.221873
20
0.675926
11
0.215066
21
0.672288
0
LINE
8
BLACK
6
CONTINUOUS
10
0.215066
20
0.672288
11
0.207681
21
0.670048
0
LINE
8
BLACK
6
CONTINUOUS
10
0.207681
20
0.670048
11
0.2
21
0.669291
0
LINE
8
BLACK
6
CONTINUOUS
10
0.2
20
0.669291
11
0.192319
21
0.670048
0
LINE
8
BLACK
6
CONTINUOUS
10
0.192319
20
0.670048
11
0.184934
21
0.672288
0
LINE
8
BLACK
6
CONTINUOUS
10
0.184934
20
0.672288
11
0.178127
21
0.675926
0
LINE
8
BLACK
6
CONTINUOUS
10
0.178127
20
0.675926
11
0.172161
21
0.680823
0
LINE
8
BLACK
6
CONTINUOUS
10
0.172161
20
0.680823
11
0.167265
21
0.686789
0
LINE
8
BLACK
6
CONTINUOUS
10
0.167265
20
0.686789
11
0.163627
21
0.693595
0
LINE
8
BLACK
6
CONTINUOUS
10
0.163627
20
0.693595
11
0.161386
21
0.700981
0
LINE
8
BLACK
6
CONTINUOUS
10
0.161386
20
0.700981
11
0.16063
21
0.708661
0
LINE
8
BLACK
6
CONTINUOUS
10
0.16063
20
0.708661
11
0.161386
21
0.716342
0
LINE
8
BLACK
6
CONTINUOUS
10
0.161386
20
0.716342
11
0.163627
21
0.723728
0
LINE
8
BLACK
6
CONTINUOUS
10
0.163627
20
0.723728
11
0.167265
21
0.730534
0
LINE
8
BLACK
6
CONTINUOUS
10
0.167265
20
0.730534
11
0.172161
21
0.7365
0
LINE
8
BLACK
6
CONTINUOUS
10
0.172161
20
0.7365
11
0.178127
21
0.741396
0
LINE
8
BLACK
6
CONTINUOUS
10
0.178127
20
0.741396
11
0.184934
21
0.745035
0
LINE
8
BLACK
6
CONTINUOUS
10
0.184934
20
0.745035
11
0.192319
21
0.747275
0
LINE
8
BLACK
6
CONTINUOUS
10
0.192319
20
0.747275
11
0.2
21
0.748031
0
LINE
8
BLACK
6
CONTINUOUS
10
0.2
20
0.748031
11
0.207681
21
0.747275
0
LINE
8
BLACK
6
CONTINUOUS
10
0.0205096
20
0.916316
11
0.0338744
21
0.913148
0
LINE
8
BLACK
6
CONTINUOUS
10
0.0338744
20
0.913148
11
0.0467811
21
0.908451
0
LINE
8
BLACK
6
CONTINUOUS
10
0.0467811
20
0.908451
11
0.0590551
21
0.902286
0
LINE
8
BLACK
6
CONTINUOUS
10
0.0590551
20
0.902286
11
0.0705306
21
0.894739
0
LINE
8
BLACK
6
CONTINUOUS
10
0.0705306
20
0.894739
11
0.0810522
21
0.88591
0
LINE
8
BLACK
6
CONTINUOUS
10
0.0810522
20
0.88591
11
0.0904777
21
0.87592
0
LINE
8
BLACK
6
CONTINUOUS
10
0.0904777
20
0.87592
11
0.0986796
21
0.864903
0
LINE
8
BLACK
6
CONTINUOUS
10
0.0986796
20
0.864903
11
0.105547
21
0.853008
0
LINE
8
BLACK
6
CONTINUOUS
10
0.105547
20
0.853008
11
0.110987
21
0.840396
0
LINE
8
BLACK
6
CONTINUOUS
10
0.110987
20
0.840396
11
0.114927
21
0.827238
0
LINE
8
BLACK
6
CONTINUOUS
10
0.114927
20
0.827238
11
0.117312
21
0.813712
0
LINE
8
BLACK
6
CONTINUOUS
10
0.117312
20
0.813712
11
0.11811
21
0.8
0
LINE
8
BLACK
6
CONTINUOUS
10
0.11811
20
0.8
11
0.117312
21
0.786288
0
LINE
8
BLACK
6
CONTINUOUS
10
0.117312
20
0.786288
11
0.114927
21
0.772762
0
LINE
8
BLACK
6
CONTINUOUS
10
0.114927
20
0.772762
11
0.110987
21
0.759604
0
LINE
8
BLACK
6
CONTINUOUS
10
0.110987
20
0.759604
11
0.105547
21
0.746992
0
LINE
8
BLACK
6
CONTINUOUS
10
0.105547
20
0.746992
11
0.0986796
21
0.735097
0
LINE
8
BLACK
6
CONTINUOUS
10
0.0986796
20
0.735097
11
0.0904777
21
0.72408
0
LINE
8
BLACK
6
CONTINUOUS
10
0.0904777
20
0.72408
11
0.0810522
21
0.71409
0
LINE
8
BLACK
6
CONTINUOUS
10
0.0810522
20
0.71409
11
0.0705306
21
0.705261
0
LINE
8
BLACK
6
CONTINUOUS
10
0.0705306
20
0.705261
11
0.0590551
21
0.697714
0
LINE
8
BLACK
6
CONTINUOUS
10
0.0590551
20
0.697714
11
0.0467811
21
0.691549
0
LINE
8
BLACK
6
CONTINUOUS
10
0.0467811
20
0.691549
11
0.0338744
21
0.686852
0
LINE
8
BLACK
6
CONTINUOUS
10
0.0338744
20
0.686852
11
0.0205096
21
0.683684
0
LINE
8
BLACK
6
CONTINUOUS
10
0.0205096
20
0.683684
11
0.00686748
21
0.68209
0
LINE
8
BLACK
6
CONTINUOUS
10
0.00686748
20
0.68209
11
-0.00686748
21
0.68209
0
LINE
8
BLACK
6
CONTINUOUS
10
-0.00686748
20
0.68209
11
-0.0205096
21
0.683684
0
LINE
8
BLACK
6
CONTINUOUS
10
-0.0205096
20
0.683684
11
-0.0338744
21
0.686852
0
LINE
8
BLACK
6
CONTINUOUS
10
-0.0338744
20
0.686852
11
-0.0467811
21
0.691549
0
LINE
8
BLACK
6
CONTINUOUS
10
-0.0467811
20
0.691549
11
-0.0590551
21
0.697714
0
LINE
8
BLACK
6
CONTINUOUS
10
-0.0590551
20
0.697714
11
-0.0705306
21
0.705261
0
LINE
8
BLACK
6
CONTINUOUS
10
-0.0705306
20
0.705261
11
-0.0810522
21
0.71409
0
LINE
8
BLACK
6
CONTINUOUS
10
-0.0810522
20
0.71409
11
-0.0904777
21
0.72408
0
LINE
8
BLACK
6
CONTINUOUS
10
-0.0904777
20
0.72408
11
-0.0986796
21
0.735097
0
LINE
8
BLACK
6
CONTINUOUS
10
-0.0986796
20
0.735097
11
-0.105547
21
0.746992
0
LINE
8
BLACK
6
CONTINUOUS
10
-0.105547
20
0.746992
11
-0.110987
21
0.759604
0
LINE
8
BLACK
6
CONTINUOUS
10
-0.110987
20
0.759604
11
-0.114927
21
0.772762
0
LINE
8
BLACK
6
CONTINUOUS
10
-0.114927
20
0.772762
11
-0.117312
21
0.786288
0
LINE
8
BLACK
6
CONTINUOUS
10
-0.117312
20
0.786288
11
-0.11811
21
0.8
0
LINE
8
BLACK
6
CONTINUOUS
10
-0.11811
20
0.8
11
-0.117312
21
0.813712
0
LINE
8
BLACK
6
CONTINUOUS
10
-0.117312
20
0.813712
11
-0.114927
21
0.827238
0
LINE
8
BLACK
6
CONTINUOUS
10
-0.114927
20
0.827238
11
-0.110987
21
0.840396
0
LINE
8
BLACK
6
CONTINUOUS
10
-0.110987
20
0.840396
11
-0.105547
21
0.853008
0
LINE
8
BLACK
6
CONTINUOUS
10
-0.105547
20
0.853008
11
-0.0986796
21
0.864903
0
LINE
8
BLACK
6
CONTINUOUS
10
-0.0986796
20
0.864903
11
-0.0904777
21
0.87592
0
LINE
8
BLACK
6
CONTINUOUS
10
-0.0904777
20
0.87592
11
-0.0810522
21
0.88591
0
LINE
8
BLACK
6
CONTINUOUS
10
-0.0810522
20
0.88591
11
-0.0705306
21
0.894739
0
LINE
8
BLACK
6
CONTINUOUS
10
-0.0705306
20
0.894739
11
-0.0590551
21
0.902286
0
LINE
8
BLACK
6
CONTINUOUS
10
-0.0590551
20
0.902286
11
-0.0467811
21
0.908451
0
LINE
8
BLACK
6
CONTINUOUS
10
-0.0467811
20
0.908451
11
-0.0338744
21
0.913148
0
LINE
8
BLACK
6
CONTINUOUS
10
-0.0338744
20
0.913148
11
-0.0205096
21
0.916316
0
LINE
8
BLACK
6
CONTINUOUS
10
-0.0205096
20
0.916316
11
-0.00686748
21
0.91791
0
LINE
8
BLACK
6
CONTINUOUS
10
-0.00686748
20
0.91791
11
0.00686748
21
0.91791
0
LINE
8
BLACK
6
CONTINUOUS
10
0.00686748
20
0.91791
11
0.0205096
21
0.916316
0
LINE
8
BLACK
6
CONTINUOUS
10
0.42051
20
0.916316
11
0.433874
21
0.913148
0
LINE
8
BLACK
6
CONTINUOUS
10
0.433874
20
0.913148
11
0.446781
21
0.908451
0
LINE
8
BLACK
6
CONTINUOUS
10
0.446781
20
0.908451
11
0.459055
21
0.902286
0
LINE
8
BLACK
6
CONTINUOUS
10
0.459055
20
0.902286
11
0.470531
21
0.894739
0
LINE
8
BLACK
6
CONTINUOUS
10
0.470531
20
0.894739
11
0.481052
21
0.88591
0
LINE
8
BLACK
6
CONTINUOUS
10
0.481052
20
0.88591
11
0.490478
21
0.87592
0
LINE
8
BLACK
6
CONTINUOUS
10
0.490478
20
0.87592
11
0.49868
21
0.864903
0
LINE
8
BLACK
6
CONTINUOUS
10
0.49868
20
0.864903
11
0.505547
21
0.853008
0
LINE
8
BLACK
6
CONTINUOUS
10
0.505547
20
0.853008
11
0.510987
21
0.840396
0
LINE
8
BLACK
6
CONTINUOUS
10
0.510987
20
0.840396
11
0.514927
21
0.827238
0
LINE
8
BLACK
6
CONTINUOUS
10
0.514927
20
0.827238
11
0.517312
21
0.813712
0
LINE
8
BLACK
6
CONTINUOUS
10
0.517312
20
0.813712
11
0.51811
21
0.8
0
LINE
8
BLACK
6
CONTINUOUS
10
0.51811
20
0.8
11
0.517312
21
0.786288
0
LINE
8
BLACK
6
CONTINUOUS
10
0.517312
20
0.786288
11
0.514927
21
0.772762
0
LINE
8
BLACK
6
CONTINUOUS
10
0.514927
20
0.772762
11
0.510987
21
0.759604
0
LINE
8
BLACK
6
CONTINUOUS
10
0.510987
20
0.759604
11
0.505547
21
0.746992
0
LINE
8
BLACK
6
CONTINUOUS
10
0.505547
20
0.746992
11
0.49868
21
0.735097
0
LINE
8
BLACK
6
CONTINUOUS
10
0.49868
20
0.735097
11
0.490478
21
0.72408
0
LINE
8
BLACK
6
CONTINUOUS
10
0.490478
20
0.72408
11
0.481052
21
0.71409
0
LINE
8
BLACK
6
CONTINUOUS
10
0.481052
20
0.71409
11
0.470531
21
0.705261
0
LINE
8
BLACK
6
CONTINUOUS
10
0.470531
20
0.705261
11
0.459055
21
0.697714
0
LINE
8
BLACK
6
CONTINUOUS
10
0.459055
20
0.697714
11
0.446781
21
0.691549
0
LINE
8
BLACK
6
CONTINUOUS
10
0.446781
20
0.691549
11
0.433874
21
0.686852
0
LINE
8
BLACK
6
CONTINUOUS
10
0.433874
20
0.686852
11
0.42051
21
0.683684
0
LINE
8
BLACK
6
CONTINUOUS
10
0.42051
20
0.683684
11
0.406867
21
0.68209
0
LINE
8
BLACK
6
CONTINUOUS
10
0.406867
20
0.68209
11
0.393133
21
0.68209
0
LINE
8
BLACK
6
CONTINUOUS
10
0.393133
20
0.68209
11
0.37949
21
0.683684
0
LINE
8
BLACK
6
CONTINUOUS
10
0.37949
20
0.683684
11
0.366126
21
0.686852
0
LINE
8
BLACK
6
CONTINUOUS
10
0.366126
20
0.686852
11
0.353219
21
0.691549
0
LINE
8
BLACK
6
CONTINUOUS
10
0.353219
20
0.691549
11
0.340945
21
0.697714
0
LINE
8
BLACK
6
CONTINUOUS
10
0.340945
20
0.697714
11
0.329469
21
0.705261
0
LINE
8
BLACK
6
CONTINUOUS
10
0.329469
20
0.705261
11
0.318948
21
0.71409
0
LINE
8
BLACK
6
CONTINUOUS
10
0.318948
20
0.71409
11
0.309522
21
0.72408
0
LINE
8
BLACK
6
CONTINUOUS
10
0.309522
20
0.72408
11
0.30132
21
0.735097
0
LINE
8
BLACK
6
CONTINUOUS
10
0.30132
20
0.735097
11
0.294453
21
0.746992
0
LINE
8
BLACK
6
CONTINUOUS
10
0.294453
20
0.746992
11
0.289013
21
0.759604
0
LINE
8
BLACK
6
CONTINUOUS
10
0.289013
20
0.759604
11
0.285073
21
0.772762
0
LINE
8
BLACK
6
CONTINUOUS
10
0.285073
20
0.772762
11
0.282688
21
0.786288
0
LINE
8
BLACK
6
CONTINUOUS
10
0.282688
20
0.786288
11
0.28189
21
0.8
0
LINE
8
BLACK
6
CONTINUOUS
10
0.28189
20
0.8
11
0.282688
21
0.813712
0
LINE
8
BLACK
6
CONTINUOUS
10
0.282688
20
0.813712
11
0.285073
21
0.827238
0
LINE
8
BLACK
6
CONTINUOUS
10
0.285073
20
0.827238
11
0.289013
21
0.840396
0
LINE
8
BLACK
6
CONTINUOUS
10
0.289013
20
0.840396
11
0.294453
21
0.853008
0
LINE
8
BLACK
6
CONTINUOUS
10
0.294453
20
0.853008
11
0.30132
21
0.864903
0
LINE
8
BLACK
6
CONTINUOUS
10
0.30132
20
0.864903
11
0.309522
21
0.87592
0
LINE
8
BLACK
6
CONTINUOUS
10
0.309522
20
0.87592
11
0.318948
21
0.88591
0
LINE
8
BLACK
6
CONTINUOUS
10
0.318948
20
0.88591
11
0.329469
21
0.894739
0
LINE
8
BLACK
6
CONTINUOUS
10
0.329469
20
0.894739
11
0.340945
21
0.902286
0
LINE
8
BLACK
6
CONTINUOUS
10
0.340945
20
0.902286
11
0.353219
21
0.908451
0
LINE
8
BLACK
6
CONTINUOUS
10
0.353219
20
0.908451
11
0.366126
21
0.913148
0
LINE
8
BLACK
6
CONTINUOUS
10
0.366126
20
0.913148
11
0.37949
21
0.916316
0
LINE
8
BLACK
6
CONTINUOUS
10
0.37949
20
0.916316
11
0.393133
21
0.91791
0
LINE
8
BLACK
6
CONTINUOUS
10
0.393133
20
0.91791
11
0.406867
21
0.91791
0
LINE
8
BLACK
6
CONTINUOUS
10
0.406867
20
0.91791
11
0.42051
21
0.916316
  0
ENDSEC
  0
EOF
