  0
SECTION
  2
HEADER
  9
$ANGBASE
  50
0.0
  9
$ANGDIR
  70
1
  9
$MEASUREMENT
  70
0
  0
ENDSEC
  0
SECTION
  2
TABLES
  0
TABLE
  2
LTYPE
  70
4
  0
LTYPE
  5
40F
  2
CONTINUOUS
  70
0
  3
Solid line
  72
65
  73
0
  40
0.0
  0
LTYPE
  5
410
  2
DASHDOT
 70
0
  3
Dash Dot ____ _ ____ _
 72
65
 73
4
 40
2.0
 49
1.25
 49
-0.25
 49
0.25
 49
-0.25
  0
LTYPE
  5
411
  2
DASHED
 70
0
  3
Dashed __ __ __ __ __
 72
65
 73
2
 40
0.75
 49
0.5
 49
-0.25
  0
LTYPE
  5
43B
  2
DOTTED
 70
0
  3
Dotted .  .  .  .
 72
65
 73
2
 40
0.2
 49
0.0
 49
-0.2
  0
ENDTAB
  0
TABLE
  2
STYLE
  70
4
  0
STYLE
  2
KICAD
  70
0
  40
0
  41
1
  42
1
  50
0
  71
0
  3
isocp.shx
  0
STYLE
  2
KICADB
  70
0
  40
0
  41
1
  42
1
  50
0
  71
0
  3
isocp.shx
  0
STYLE
  2
KICADI
  70
0
  40
0
  41
1
  42
1
  50
15
  71
0
  3
isocp.shx
  0
STYLE
  2
KICADBI
  70
0
  40
0
  41
1
  42
1
  50
15
  71
0
  3
isocp.shx
  0
ENDTAB
  0
TABLE
  2
LAYER
  70
1
  0
LAYER
  2
BLACK
  70
0
  62
7
  6
CONTINUOUS
  0
ENDTAB
  0
ENDSEC
  0
SECTION
  2
ENTITIES
0
LINE
8
BLACK
6
CONTINUOUS
10
5.39069
20
-3.38502
11
5.39508
21
-3.38726
0
LINE
8
BLACK
6
CONTINUOUS
10
5.39508
20
-3.38726
11
5.39857
21
-3.39074
0
LINE
8
BLACK
6
CONTINUOUS
10
5.39857
20
-3.39074
11
5.4008
21
-3.39513
0
LINE
8
BLACK
6
CONTINUOUS
10
5.4008
20
-3.39513
11
5.40157
21
-3.4
0
LINE
8
BLACK
6
CONTINUOUS
10
5.40157
20
-3.4
11
5.4008
21
-3.40487
0
LINE
8
BLACK
6
CONTINUOUS
10
5.4008
20
-3.40487
11
5.39857
21
-3.40926
0
LINE
8
BLACK
6
CONTINUOUS
10
5.39857
20
-3.40926
11
5.39508
21
-3.41274
0
LINE
8
BLACK
6
CONTINUOUS
10
5.39508
20
-3.41274
11
5.39183
21
-3.4144
0
LINE
8
BLACK
6
CONTINUOUS
10
5.39183
20
-3.4144
11
5.39183
21
-3.43452
0
LINE
8
BLACK
6
CONTINUOUS
10
5.39183
20
-3.43452
11
5.5013
21
-3.544
0
LINE
8
BLACK
6
CONTINUOUS
10
5.5013
20
-3.544
11
5.69441
21
-3.544
0
LINE
8
BLACK
6
CONTINUOUS
10
5.69441
20
-3.544
11
5.69441
21
-3.52
0
LINE
8
BLACK
6
CONTINUOUS
10
5.69441
20
-3.52
11
5.75441
21
-3.52
0
LINE
8
BLACK
6
CONTINUOUS
10
5.75441
20
-3.52
11
5.75441
21
-3.58
0
LINE
8
BLACK
6
CONTINUOUS
10
5.75441
20
-3.58
11
5.69441
21
-3.58
0
LINE
8
BLACK
6
CONTINUOUS
10
5.69441
20
-3.58
11
5.69441
21
-3.556
0
LINE
8
BLACK
6
CONTINUOUS
10
5.69441
20
-3.556
11
5.49882
21
-3.556
0
LINE
8
BLACK
6
CONTINUOUS
10
5.49882
20
-3.556
11
5.49806
21
-3.5558
0
LINE
8
BLACK
6
CONTINUOUS
10
5.49806
20
-3.5558
11
5.49727
21
-3.5558
0
LINE
8
BLACK
6
CONTINUOUS
10
5.49727
20
-3.5558
11
5.49658
21
-3.5554
0
LINE
8
BLACK
6
CONTINUOUS
10
5.49658
20
-3.5554
11
5.49582
21
-3.5552
0
LINE
8
BLACK
6
CONTINUOUS
10
5.49582
20
-3.5552
11
5.49526
21
-3.55464
0
LINE
8
BLACK
6
CONTINUOUS
10
5.49526
20
-3.55464
11
5.49458
21
-3.55424
0
LINE
8
BLACK
6
CONTINUOUS
10
5.49458
20
-3.55424
11
5.38158
21
-3.44125
0
LINE
8
BLACK
6
CONTINUOUS
10
5.38158
20
-3.44125
11
5.38119
21
-3.44057
0
LINE
8
BLACK
6
CONTINUOUS
10
5.38119
20
-3.44057
11
5.38063
21
-3.44001
0
LINE
8
BLACK
6
CONTINUOUS
10
5.38063
20
-3.44001
11
5.38043
21
-3.43924
0
LINE
8
BLACK
6
CONTINUOUS
10
5.38043
20
-3.43924
11
5.38003
21
-3.43856
0
LINE
8
BLACK
6
CONTINUOUS
10
5.38003
20
-3.43856
11
5.38003
21
-3.43777
0
LINE
8
BLACK
6
CONTINUOUS
10
5.38003
20
-3.43777
11
5.37983
21
-3.43701
0
LINE
8
BLACK
6
CONTINUOUS
10
5.37983
20
-3.43701
11
5.37983
21
-3.4144
0
LINE
8
BLACK
6
CONTINUOUS
10
5.37983
20
-3.4144
11
5.37657
21
-3.41274
0
LINE
8
BLACK
6
CONTINUOUS
10
5.37657
20
-3.41274
11
5.37309
21
-3.40926
0
LINE
8
BLACK
6
CONTINUOUS
10
5.37309
20
-3.40926
11
5.37085
21
-3.40487
0
LINE
8
BLACK
6
CONTINUOUS
10
5.37085
20
-3.40487
11
5.37008
21
-3.4
0
LINE
8
BLACK
6
CONTINUOUS
10
5.37008
20
-3.4
11
5.37085
21
-3.39513
0
LINE
8
BLACK
6
CONTINUOUS
10
5.37085
20
-3.39513
11
5.37309
21
-3.39074
0
LINE
8
BLACK
6
CONTINUOUS
10
5.37309
20
-3.39074
11
5.37657
21
-3.38726
0
LINE
8
BLACK
6
CONTINUOUS
10
5.37657
20
-3.38726
11
5.38096
21
-3.38502
0
LINE
8
BLACK
6
CONTINUOUS
10
5.38096
20
-3.38502
11
5.38583
21
-3.38425
0
LINE
8
BLACK
6
CONTINUOUS
10
5.38583
20
-3.38425
11
5.39069
21
-3.38502
0
LINE
8
BLACK
6
CONTINUOUS
10
5.75441
20
-3.48
11
5.69441
21
-3.48
0
LINE
8
BLACK
6
CONTINUOUS
10
5.69441
20
-3.48
11
5.69441
21
-3.456
0
LINE
8
BLACK
6
CONTINUOUS
10
5.69441
20
-3.456
11
5.56164
21
-3.456
0
LINE
8
BLACK
6
CONTINUOUS
10
5.56164
20
-3.456
11
5.55998
21
-3.45926
0
LINE
8
BLACK
6
CONTINUOUS
10
5.55998
20
-3.45926
11
5.5565
21
-3.46274
0
LINE
8
BLACK
6
CONTINUOUS
10
5.5565
20
-3.46274
11
5.55211
21
-3.46498
0
LINE
8
BLACK
6
CONTINUOUS
10
5.55211
20
-3.46498
11
5.54724
21
-3.46575
0
LINE
8
BLACK
6
CONTINUOUS
10
5.54724
20
-3.46575
11
5.54238
21
-3.46498
0
LINE
8
BLACK
6
CONTINUOUS
10
5.54238
20
-3.46498
11
5.53799
21
-3.46274
0
LINE
8
BLACK
6
CONTINUOUS
10
5.53799
20
-3.46274
11
5.5345
21
-3.45926
0
LINE
8
BLACK
6
CONTINUOUS
10
5.5345
20
-3.45926
11
5.53227
21
-3.45487
0
LINE
8
BLACK
6
CONTINUOUS
10
5.53227
20
-3.45487
11
5.5315
21
-3.45
0
LINE
8
BLACK
6
CONTINUOUS
10
5.5315
20
-3.45
11
5.53227
21
-3.44513
0
LINE
8
BLACK
6
CONTINUOUS
10
5.53227
20
-3.44513
11
5.5345
21
-3.44074
0
LINE
8
BLACK
6
CONTINUOUS
10
5.5345
20
-3.44074
11
5.53799
21
-3.43726
0
LINE
8
BLACK
6
CONTINUOUS
10
5.53799
20
-3.43726
11
5.54238
21
-3.43502
0
LINE
8
BLACK
6
CONTINUOUS
10
5.54238
20
-3.43502
11
5.54724
21
-3.43425
0
LINE
8
BLACK
6
CONTINUOUS
10
5.54724
20
-3.43425
11
5.55211
21
-3.43502
0
LINE
8
BLACK
6
CONTINUOUS
10
5.55211
20
-3.43502
11
5.5565
21
-3.43726
0
LINE
8
BLACK
6
CONTINUOUS
10
5.5565
20
-3.43726
11
5.55998
21
-3.44074
0
LINE
8
BLACK
6
CONTINUOUS
10
5.55998
20
-3.44074
11
5.56164
21
-3.444
0
LINE
8
BLACK
6
CONTINUOUS
10
5.56164
20
-3.444
11
5.69441
21
-3.444
0
LINE
8
BLACK
6
CONTINUOUS
10
5.69441
20
-3.444
11
5.69441
21
-3.42
0
LINE
8
BLACK
6
CONTINUOUS
10
5.69441
20
-3.42
11
5.75441
21
-3.42
0
LINE
8
BLACK
6
CONTINUOUS
10
5.75441
20
-3.42
11
5.75441
21
-3.48
0
LINE
8
BLACK
6
CONTINUOUS
10
5.75441
20
-3.38
11
5.69441
21
-3.38
0
LINE
8
BLACK
6
CONTINUOUS
10
5.69441
20
-3.38
11
5.69441
21
-3.32
0
LINE
8
BLACK
6
CONTINUOUS
10
5.69441
20
-3.32
11
5.75441
21
-3.32
0
LINE
8
BLACK
6
CONTINUOUS
10
5.75441
20
-3.32
11
5.75441
21
-3.38
0
LINE
8
BLACK
6
CONTINUOUS
10
5.85441
20
-3.38
11
5.79441
21
-3.38
0
LINE
8
BLACK
6
CONTINUOUS
10
5.79441
20
-3.38
11
5.79441
21
-3.32
0
LINE
8
BLACK
6
CONTINUOUS
10
5.79441
20
-3.32
11
5.85441
21
-3.32
0
LINE
8
BLACK
6
CONTINUOUS
10
5.85441
20
-3.32
11
5.85441
21
-3.38
0
LINE
8
BLACK
6
CONTINUOUS
10
5.75441
20
-3.28
11
5.69441
21
-3.28
0
LINE
8
BLACK
6
CONTINUOUS
10
5.69441
20
-3.28
11
5.69441
21
-3.22
0
LINE
8
BLACK
6
CONTINUOUS
10
5.69441
20
-3.22
11
5.75441
21
-3.22
0
LINE
8
BLACK
6
CONTINUOUS
10
5.75441
20
-3.22
11
5.75441
21
-3.28
0
LINE
8
BLACK
6
CONTINUOUS
10
5.85441
20
-3.28
11
5.79441
21
-3.28
0
LINE
8
BLACK
6
CONTINUOUS
10
5.79441
20
-3.28
11
5.79441
21
-3.22
0
LINE
8
BLACK
6
CONTINUOUS
10
5.79441
20
-3.22
11
5.85441
21
-3.22
0
LINE
8
BLACK
6
CONTINUOUS
10
5.85441
20
-3.22
11
5.85441
21
-3.28
0
LINE
8
BLACK
6
CONTINUOUS
10
5.98837
20
-2.81076
11
5.98979
21
-2.81271
0
LINE
8
BLACK
6
CONTINUOUS
10
5.98979
20
-2.81271
11
5.98998
21
-2.81392
0
LINE
8
BLACK
6
CONTINUOUS
10
5.98998
20
-2.81392
11
5.98998
21
-3.98608
0
LINE
8
BLACK
6
CONTINUOUS
10
5.98998
20
-3.98608
11
5.98924
21
-3.98837
0
LINE
8
BLACK
6
CONTINUOUS
10
5.98924
20
-3.98837
11
5.98729
21
-3.98979
0
LINE
8
BLACK
6
CONTINUOUS
10
5.98729
20
-3.98979
11
5.98608
21
-3.98998
0
LINE
8
BLACK
6
CONTINUOUS
10
5.98608
20
-3.98998
11
5.21392
21
-3.98998
0
LINE
8
BLACK
6
CONTINUOUS
10
5.21392
20
-3.98998
11
5.21163
21
-3.98924
0
LINE
8
BLACK
6
CONTINUOUS
10
5.21163
20
-3.98924
11
5.21021
21
-3.98729
0
LINE
8
BLACK
6
CONTINUOUS
10
5.21021
20
-3.98729
11
5.21002
21
-3.98608
0
LINE
8
BLACK
6
CONTINUOUS
10
5.21002
20
-3.98608
11
5.21002
21
-3.4
0
LINE
8
BLACK
6
CONTINUOUS
10
5.21002
20
-3.4
11
5.21002
21
-3.28177
0
LINE
8
BLACK
6
CONTINUOUS
10
5.21002
20
-3.28177
11
5.21002
21
-2.81392
0
LINE
8
BLACK
6
CONTINUOUS
10
5.21002
20
-2.81392
11
5.21076
21
-2.81163
0
LINE
8
BLACK
6
CONTINUOUS
10
5.21076
20
-2.81163
11
5.21271
21
-2.81021
0
LINE
8
BLACK
6
CONTINUOUS
10
5.21271
20
-2.81021
11
5.21392
21
-2.81002
0
LINE
8
BLACK
6
CONTINUOUS
10
5.21392
20
-2.81002
11
5.98608
21
-2.81002
0
LINE
8
BLACK
6
CONTINUOUS
10
5.98608
20
-2.81002
11
5.98837
21
-2.81076
0
LINE
8
BLACK
6
CONTINUOUS
10
5.37598
20
-3.37402
11
5.37005
21
-3.37714
0
LINE
8
BLACK
6
CONTINUOUS
10
5.37005
20
-3.37714
11
5.36503
21
-3.38158
0
LINE
8
BLACK
6
CONTINUOUS
10
5.36503
20
-3.38158
11
5.36503
21
-3.38158
0
LINE
8
BLACK
6
CONTINUOUS
10
5.36503
20
-3.38158
11
5.36143
21
-3.3868
0
LINE
8
BLACK
6
CONTINUOUS
10
5.36143
20
-3.3868
11
5.36123
21
-3.38709
0
LINE
8
BLACK
6
CONTINUOUS
10
5.36123
20
-3.38709
11
5.35885
21
-3.39335
0
LINE
8
BLACK
6
CONTINUOUS
10
5.35885
20
-3.39335
11
5.35805
21
-3.4
0
LINE
8
BLACK
6
CONTINUOUS
10
5.35805
20
-3.4
11
5.35885
21
-3.40665
0
LINE
8
BLACK
6
CONTINUOUS
10
5.35885
20
-3.40665
11
5.36123
21
-3.41291
0
LINE
8
BLACK
6
CONTINUOUS
10
5.36123
20
-3.41291
11
5.36503
21
-3.41842
0
LINE
8
BLACK
6
CONTINUOUS
10
5.36503
20
-3.41842
11
5.36668
21
-3.41988
0
LINE
8
BLACK
6
CONTINUOUS
10
5.36668
20
-3.41988
11
5.3679
21
-3.42196
0
LINE
8
BLACK
6
CONTINUOUS
10
5.3679
20
-3.42196
11
5.368
21
-3.4228
0
LINE
8
BLACK
6
CONTINUOUS
10
5.368
20
-3.4228
11
5.368
21
-3.4359
0
LINE
8
BLACK
6
CONTINUOUS
10
5.368
20
-3.4359
11
5.36798
21
-3.43612
0
LINE
8
BLACK
6
CONTINUOUS
10
5.36798
20
-3.43612
11
5.36787
21
-3.43709
0
LINE
8
BLACK
6
CONTINUOUS
10
5.36787
20
-3.43709
11
5.36781
21
-3.43768
0
LINE
8
BLACK
6
CONTINUOUS
10
5.36781
20
-3.43768
11
5.36824
21
-3.43999
0
LINE
8
BLACK
6
CONTINUOUS
10
5.36824
20
-3.43999
11
5.36836
21
-3.44074
0
LINE
8
BLACK
6
CONTINUOUS
10
5.36836
20
-3.44074
11
5.3686
21
-3.44232
0
LINE
8
BLACK
6
CONTINUOUS
10
5.3686
20
-3.44232
11
5.36868
21
-3.4426
0
LINE
8
BLACK
6
CONTINUOUS
10
5.36868
20
-3.4426
11
5.36867
21
-3.44261
0
LINE
8
BLACK
6
CONTINUOUS
10
5.36867
20
-3.44261
11
5.36869
21
-3.44269
0
LINE
8
BLACK
6
CONTINUOUS
10
5.36869
20
-3.44269
11
5.36871
21
-3.44269
0
LINE
8
BLACK
6
CONTINUOUS
10
5.36871
20
-3.44269
11
5.36881
21
-3.44296
0
LINE
8
BLACK
6
CONTINUOUS
10
5.36881
20
-3.44296
11
5.36881
21
-3.44296
0
LINE
8
BLACK
6
CONTINUOUS
10
5.36881
20
-3.44296
11
5.36881
21
-3.44296
0
LINE
8
BLACK
6
CONTINUOUS
10
5.36881
20
-3.44296
11
5.36881
21
-3.44296
0
LINE
8
BLACK
6
CONTINUOUS
10
5.36881
20
-3.44296
11
5.36991
21
-3.44504
0
LINE
8
BLACK
6
CONTINUOUS
10
5.36991
20
-3.44504
11
5.37093
21
-3.44717
0
LINE
8
BLACK
6
CONTINUOUS
10
5.37093
20
-3.44717
11
5.37109
21
-3.44741
0
LINE
8
BLACK
6
CONTINUOUS
10
5.37109
20
-3.44741
11
5.37108
21
-3.44742
0
LINE
8
BLACK
6
CONTINUOUS
10
5.37108
20
-3.44742
11
5.37113
21
-3.44749
0
LINE
8
BLACK
6
CONTINUOUS
10
5.37113
20
-3.44749
11
5.37114
21
-3.44748
0
LINE
8
BLACK
6
CONTINUOUS
10
5.37114
20
-3.44748
11
5.37132
21
-3.44772
0
LINE
8
BLACK
6
CONTINUOUS
10
5.37132
20
-3.44772
11
5.37298
21
-3.44938
0
LINE
8
BLACK
6
CONTINUOUS
10
5.37298
20
-3.44938
11
5.37356
21
-3.45
0
LINE
8
BLACK
6
CONTINUOUS
10
5.37356
20
-3.45
11
5.37458
21
-3.45111
0
LINE
8
BLACK
6
CONTINUOUS
10
5.37458
20
-3.45111
11
5.37458
21
-3.45111
0
LINE
8
BLACK
6
CONTINUOUS
10
5.37458
20
-3.45111
11
5.37458
21
-3.45111
0
LINE
8
BLACK
6
CONTINUOUS
10
5.37458
20
-3.45111
11
5.37481
21
-3.45129
0
LINE
8
BLACK
6
CONTINUOUS
10
5.37481
20
-3.45129
11
5.3748
21
-3.4513
0
LINE
8
BLACK
6
CONTINUOUS
10
5.3748
20
-3.4513
11
5.37524
21
-3.45164
0
LINE
8
BLACK
6
CONTINUOUS
10
5.37524
20
-3.45164
11
5.48543
21
-3.56182
0
LINE
8
BLACK
6
CONTINUOUS
10
5.48543
20
-3.56182
11
5.48557
21
-3.56199
0
LINE
8
BLACK
6
CONTINUOUS
10
5.48557
20
-3.56199
11
5.48655
21
-3.56322
0
LINE
8
BLACK
6
CONTINUOUS
10
5.48655
20
-3.56322
11
5.4885
21
-3.56454
0
LINE
8
BLACK
6
CONTINUOUS
10
5.4885
20
-3.56454
11
5.49039
21
-3.56594
0
LINE
8
BLACK
6
CONTINUOUS
10
5.49039
20
-3.56594
11
5.49039
21
-3.56594
0
LINE
8
BLACK
6
CONTINUOUS
10
5.49039
20
-3.56594
11
5.49065
21
-3.56608
0
LINE
8
BLACK
6
CONTINUOUS
10
5.49065
20
-3.56608
11
5.49064
21
-3.56609
0
LINE
8
BLACK
6
CONTINUOUS
10
5.49064
20
-3.56609
11
5.49072
21
-3.56614
0
LINE
8
BLACK
6
CONTINUOUS
10
5.49072
20
-3.56614
11
5.49073
21
-3.56612
0
LINE
8
BLACK
6
CONTINUOUS
10
5.49073
20
-3.56612
11
5.49099
21
-3.56625
0
LINE
8
BLACK
6
CONTINUOUS
10
5.49099
20
-3.56625
11
5.49274
21
-3.56679
0
LINE
8
BLACK
6
CONTINUOUS
10
5.49274
20
-3.56679
11
5.49324
21
-3.56694
0
LINE
8
BLACK
6
CONTINUOUS
10
5.49324
20
-3.56694
11
5.49547
21
-3.56772
0
LINE
8
BLACK
6
CONTINUOUS
10
5.49547
20
-3.56772
11
5.49547
21
-3.56772
0
LINE
8
BLACK
6
CONTINUOUS
10
5.49547
20
-3.56772
11
5.49575
21
-3.56777
0
LINE
8
BLACK
6
CONTINUOUS
10
5.49575
20
-3.56777
11
5.49575
21
-3.56779
0
LINE
8
BLACK
6
CONTINUOUS
10
5.49575
20
-3.56779
11
5.49584
21
-3.5678
0
LINE
8
BLACK
6
CONTINUOUS
10
5.49584
20
-3.5678
11
5.49584
21
-3.56779
0
LINE
8
BLACK
6
CONTINUOUS
10
5.49584
20
-3.56779
11
5.49613
21
-3.56783
0
LINE
8
BLACK
6
CONTINUOUS
10
5.49613
20
-3.56783
11
5.49848
21
-3.56783
0
LINE
8
BLACK
6
CONTINUOUS
10
5.49848
20
-3.56783
11
5.50084
21
-3.56792
0
LINE
8
BLACK
6
CONTINUOUS
10
5.50084
20
-3.56792
11
5.50084
21
-3.56792
0
LINE
8
BLACK
6
CONTINUOUS
10
5.50084
20
-3.56792
11
5.50113
21
-3.56789
0
LINE
8
BLACK
6
CONTINUOUS
10
5.50113
20
-3.56789
11
5.50113
21
-3.5679
0
LINE
8
BLACK
6
CONTINUOUS
10
5.50113
20
-3.5679
11
5.50168
21
-3.56783
0
LINE
8
BLACK
6
CONTINUOUS
10
5.50168
20
-3.56783
11
5.67868
21
-3.56783
0
LINE
8
BLACK
6
CONTINUOUS
10
5.67868
20
-3.56783
11
5.68097
21
-3.56858
0
LINE
8
BLACK
6
CONTINUOUS
10
5.68097
20
-3.56858
11
5.68239
21
-3.57052
0
LINE
8
BLACK
6
CONTINUOUS
10
5.68239
20
-3.57052
11
5.68258
21
-3.57173
0
LINE
8
BLACK
6
CONTINUOUS
10
5.68258
20
-3.57173
11
5.68258
21
-3.58177
0
LINE
8
BLACK
6
CONTINUOUS
10
5.68258
20
-3.58177
11
5.68269
21
-3.58276
0
LINE
8
BLACK
6
CONTINUOUS
10
5.68269
20
-3.58276
11
5.68369
21
-3.58502
0
LINE
8
BLACK
6
CONTINUOUS
10
5.68369
20
-3.58502
11
5.68448
21
-3.5868
0
LINE
8
BLACK
6
CONTINUOUS
10
5.68448
20
-3.5868
11
5.68761
21
-3.58993
0
LINE
8
BLACK
6
CONTINUOUS
10
5.68761
20
-3.58993
11
5.69165
21
-3.59172
0
LINE
8
BLACK
6
CONTINUOUS
10
5.69165
20
-3.59172
11
5.69264
21
-3.59183
0
LINE
8
BLACK
6
CONTINUOUS
10
5.69264
20
-3.59183
11
5.75618
21
-3.59183
0
LINE
8
BLACK
6
CONTINUOUS
10
5.75618
20
-3.59183
11
5.75716
21
-3.59172
0
LINE
8
BLACK
6
CONTINUOUS
10
5.75716
20
-3.59172
11
5.76121
21
-3.58993
0
LINE
8
BLACK
6
CONTINUOUS
10
5.76121
20
-3.58993
11
5.76434
21
-3.5868
0
LINE
8
BLACK
6
CONTINUOUS
10
5.76434
20
-3.5868
11
5.76613
21
-3.58276
0
LINE
8
BLACK
6
CONTINUOUS
10
5.76613
20
-3.58276
11
5.76624
21
-3.58177
0
LINE
8
BLACK
6
CONTINUOUS
10
5.76624
20
-3.58177
11
5.76624
21
-3.54
0
LINE
8
BLACK
6
CONTINUOUS
10
5.76624
20
-3.54
11
5.76624
21
-3.51823
0
LINE
8
BLACK
6
CONTINUOUS
10
5.76624
20
-3.51823
11
5.76613
21
-3.51724
0
LINE
8
BLACK
6
CONTINUOUS
10
5.76613
20
-3.51724
11
5.76434
21
-3.5132
0
LINE
8
BLACK
6
CONTINUOUS
10
5.76434
20
-3.5132
11
5.76121
21
-3.51007
0
LINE
8
BLACK
6
CONTINUOUS
10
5.76121
20
-3.51007
11
5.75716
21
-3.50828
0
LINE
8
BLACK
6
CONTINUOUS
10
5.75716
20
-3.50828
11
5.75716
21
-3.50828
0
LINE
8
BLACK
6
CONTINUOUS
10
5.75716
20
-3.50828
11
5.75716
21
-3.50828
0
LINE
8
BLACK
6
CONTINUOUS
10
5.75716
20
-3.50828
11
5.75618
21
-3.50817
0
LINE
8
BLACK
6
CONTINUOUS
10
5.75618
20
-3.50817
11
5.69264
21
-3.50817
0
LINE
8
BLACK
6
CONTINUOUS
10
5.69264
20
-3.50817
11
5.69264
21
-3.50817
0
LINE
8
BLACK
6
CONTINUOUS
10
5.69264
20
-3.50817
11
5.69165
21
-3.50828
0
LINE
8
BLACK
6
CONTINUOUS
10
5.69165
20
-3.50828
11
5.68761
21
-3.51007
0
LINE
8
BLACK
6
CONTINUOUS
10
5.68761
20
-3.51007
11
5.68448
21
-3.5132
0
LINE
8
BLACK
6
CONTINUOUS
10
5.68448
20
-3.5132
11
5.68269
21
-3.51724
0
LINE
8
BLACK
6
CONTINUOUS
10
5.68269
20
-3.51724
11
5.68258
21
-3.51823
0
LINE
8
BLACK
6
CONTINUOUS
10
5.68258
20
-3.51823
11
5.68258
21
-3.52827
0
LINE
8
BLACK
6
CONTINUOUS
10
5.68258
20
-3.52827
11
5.68183
21
-3.53056
0
LINE
8
BLACK
6
CONTINUOUS
10
5.68183
20
-3.53056
11
5.67989
21
-3.53198
0
LINE
8
BLACK
6
CONTINUOUS
10
5.67989
20
-3.53198
11
5.67868
21
-3.53217
0
LINE
8
BLACK
6
CONTINUOUS
10
5.67868
20
-3.53217
11
5.50782
21
-3.53217
0
LINE
8
BLACK
6
CONTINUOUS
10
5.50782
20
-3.53217
11
5.50553
21
-3.53142
0
LINE
8
BLACK
6
CONTINUOUS
10
5.50553
20
-3.53142
11
5.50506
21
-3.53103
0
LINE
8
BLACK
6
CONTINUOUS
10
5.50506
20
-3.53103
11
5.42404
21
-3.45
0
LINE
8
BLACK
6
CONTINUOUS
10
5.42404
20
-3.45
11
5.4048
21
-3.43076
0
LINE
8
BLACK
6
CONTINUOUS
10
5.4048
20
-3.43076
11
5.40371
21
-3.42862
0
LINE
8
BLACK
6
CONTINUOUS
10
5.40371
20
-3.42862
11
5.40366
21
-3.42801
0
LINE
8
BLACK
6
CONTINUOUS
10
5.40366
20
-3.42801
11
5.40366
21
-3.4228
0
LINE
8
BLACK
6
CONTINUOUS
10
5.40366
20
-3.4228
11
5.4044
21
-3.42051
0
LINE
8
BLACK
6
CONTINUOUS
10
5.4044
20
-3.42051
11
5.40497
21
-3.41989
0
LINE
8
BLACK
6
CONTINUOUS
10
5.40497
20
-3.41989
11
5.40662
21
-3.41842
0
LINE
8
BLACK
6
CONTINUOUS
10
5.40662
20
-3.41842
11
5.41043
21
-3.41291
0
LINE
8
BLACK
6
CONTINUOUS
10
5.41043
20
-3.41291
11
5.4128
21
-3.40665
0
LINE
8
BLACK
6
CONTINUOUS
10
5.4128
20
-3.40665
11
5.41361
21
-3.4
0
LINE
8
BLACK
6
CONTINUOUS
10
5.41361
20
-3.4
11
5.4128
21
-3.39335
0
LINE
8
BLACK
6
CONTINUOUS
10
5.4128
20
-3.39335
11
5.41043
21
-3.38709
0
LINE
8
BLACK
6
CONTINUOUS
10
5.41043
20
-3.38709
11
5.40675
21
-3.38177
0
LINE
8
BLACK
6
CONTINUOUS
10
5.40675
20
-3.38177
11
5.40662
21
-3.38158
0
LINE
8
BLACK
6
CONTINUOUS
10
5.40662
20
-3.38158
11
5.40161
21
-3.37714
0
LINE
8
BLACK
6
CONTINUOUS
10
5.40161
20
-3.37714
11
5.39568
21
-3.37402
0
LINE
8
BLACK
6
CONTINUOUS
10
5.39568
20
-3.37402
11
5.39568
21
-3.37402
0
LINE
8
BLACK
6
CONTINUOUS
10
5.39568
20
-3.37402
11
5.39568
21
-3.37402
0
LINE
8
BLACK
6
CONTINUOUS
10
5.39568
20
-3.37402
11
5.38918
21
-3.37242
0
LINE
8
BLACK
6
CONTINUOUS
10
5.38918
20
-3.37242
11
5.38918
21
-3.37242
0
LINE
8
BLACK
6
CONTINUOUS
10
5.38918
20
-3.37242
11
5.38248
21
-3.37242
0
LINE
8
BLACK
6
CONTINUOUS
10
5.38248
20
-3.37242
11
5.38248
21
-3.37242
0
LINE
8
BLACK
6
CONTINUOUS
10
5.38248
20
-3.37242
11
5.37598
21
-3.37402
0
LINE
8
BLACK
6
CONTINUOUS
10
5.7826
20
-3.56
11
5.7826
21
-3.56
0
LINE
8
BLACK
6
CONTINUOUS
10
5.7826
20
-3.56
11
5.7826
21
-3.58176
0
LINE
8
BLACK
6
CONTINUOUS
10
5.7826
20
-3.58176
11
5.78271
21
-3.58275
0
LINE
8
BLACK
6
CONTINUOUS
10
5.78271
20
-3.58275
11
5.7845
21
-3.58679
0
LINE
8
BLACK
6
CONTINUOUS
10
5.7845
20
-3.58679
11
5.78762
21
-3.58991
0
LINE
8
BLACK
6
CONTINUOUS
10
5.78762
20
-3.58991
11
5.79166
21
-3.5917
0
LINE
8
BLACK
6
CONTINUOUS
10
5.79166
20
-3.5917
11
5.79265
21
-3.59181
0
LINE
8
BLACK
6
CONTINUOUS
10
5.79265
20
-3.59181
11
5.81441
21
-3.59181
0
LINE
8
BLACK
6
CONTINUOUS
10
5.81441
20
-3.59181
11
5.81441
21
-3.59181
0
LINE
8
BLACK
6
CONTINUOUS
10
5.81441
20
-3.59181
11
5.81441
21
-3.58
0
LINE
8
BLACK
6
CONTINUOUS
10
5.81441
20
-3.58
11
5.79441
21
-3.58
0
LINE
8
BLACK
6
CONTINUOUS
10
5.79441
20
-3.58
11
5.79441
21
-3.56
0
LINE
8
BLACK
6
CONTINUOUS
10
5.79441
20
-3.56
11
5.7826
21
-3.56
0
LINE
8
BLACK
6
CONTINUOUS
10
5.85441
20
-3.58
11
5.83441
21
-3.58
0
LINE
8
BLACK
6
CONTINUOUS
10
5.83441
20
-3.58
11
5.83441
21
-3.59181
0
LINE
8
BLACK
6
CONTINUOUS
10
5.83441
20
-3.59181
11
5.83441
21
-3.59181
0
LINE
8
BLACK
6
CONTINUOUS
10
5.83441
20
-3.59181
11
5.85617
21
-3.59181
0
LINE
8
BLACK
6
CONTINUOUS
10
5.85617
20
-3.59181
11
5.85617
21
-3.59181
0
LINE
8
BLACK
6
CONTINUOUS
10
5.85617
20
-3.59181
11
5.85716
21
-3.5917
0
LINE
8
BLACK
6
CONTINUOUS
10
5.85716
20
-3.5917
11
5.8612
21
-3.58991
0
LINE
8
BLACK
6
CONTINUOUS
10
5.8612
20
-3.58991
11
5.86432
21
-3.58679
0
LINE
8
BLACK
6
CONTINUOUS
10
5.86432
20
-3.58679
11
5.86611
21
-3.58275
0
LINE
8
BLACK
6
CONTINUOUS
10
5.86611
20
-3.58275
11
5.86622
21
-3.58176
0
LINE
8
BLACK
6
CONTINUOUS
10
5.86622
20
-3.58176
11
5.86622
21
-3.58176
0
LINE
8
BLACK
6
CONTINUOUS
10
5.86622
20
-3.58176
11
5.86622
21
-3.56
0
LINE
8
BLACK
6
CONTINUOUS
10
5.86622
20
-3.56
11
5.85441
21
-3.56
0
LINE
8
BLACK
6
CONTINUOUS
10
5.85441
20
-3.56
11
5.85441
21
-3.58
0
LINE
8
BLACK
6
CONTINUOUS
10
5.83441
20
-3.50819
11
5.83441
21
-3.52
0
LINE
8
BLACK
6
CONTINUOUS
10
5.83441
20
-3.52
11
5.85441
21
-3.52
0
LINE
8
BLACK
6
CONTINUOUS
10
5.85441
20
-3.52
11
5.85441
21
-3.54
0
LINE
8
BLACK
6
CONTINUOUS
10
5.85441
20
-3.54
11
5.86622
21
-3.54
0
LINE
8
BLACK
6
CONTINUOUS
10
5.86622
20
-3.54
11
5.86622
21
-3.54
0
LINE
8
BLACK
6
CONTINUOUS
10
5.86622
20
-3.54
11
5.86622
21
-3.51824
0
LINE
8
BLACK
6
CONTINUOUS
10
5.86622
20
-3.51824
11
5.86622
21
-3.51824
0
LINE
8
BLACK
6
CONTINUOUS
10
5.86622
20
-3.51824
11
5.86611
21
-3.51725
0
LINE
8
BLACK
6
CONTINUOUS
10
5.86611
20
-3.51725
11
5.86432
21
-3.51321
0
LINE
8
BLACK
6
CONTINUOUS
10
5.86432
20
-3.51321
11
5.8612
21
-3.51009
0
LINE
8
BLACK
6
CONTINUOUS
10
5.8612
20
-3.51009
11
5.85716
21
-3.5083
0
LINE
8
BLACK
6
CONTINUOUS
10
5.85716
20
-3.5083
11
5.85617
21
-3.50819
0
LINE
8
BLACK
6
CONTINUOUS
10
5.85617
20
-3.50819
11
5.83441
21
-3.50819
0
LINE
8
BLACK
6
CONTINUOUS
10
5.83441
20
-3.50819
11
5.83441
21
-3.50819
0
LINE
8
BLACK
6
CONTINUOUS
10
5.7826
20
-3.46
11
5.7826
21
-3.46
0
LINE
8
BLACK
6
CONTINUOUS
10
5.7826
20
-3.46
11
5.7826
21
-3.48176
0
LINE
8
BLACK
6
CONTINUOUS
10
5.7826
20
-3.48176
11
5.78271
21
-3.48275
0
LINE
8
BLACK
6
CONTINUOUS
10
5.78271
20
-3.48275
11
5.7845
21
-3.48679
0
LINE
8
BLACK
6
CONTINUOUS
10
5.7845
20
-3.48679
11
5.78762
21
-3.48991
0
LINE
8
BLACK
6
CONTINUOUS
10
5.78762
20
-3.48991
11
5.79166
21
-3.4917
0
LINE
8
BLACK
6
CONTINUOUS
10
5.79166
20
-3.4917
11
5.79265
21
-3.49181
0
LINE
8
BLACK
6
CONTINUOUS
10
5.79265
20
-3.49181
11
5.81441
21
-3.49181
0
LINE
8
BLACK
6
CONTINUOUS
10
5.81441
20
-3.49181
11
5.81441
21
-3.49181
0
LINE
8
BLACK
6
CONTINUOUS
10
5.81441
20
-3.49181
11
5.81441
21
-3.48
0
LINE
8
BLACK
6
CONTINUOUS
10
5.81441
20
-3.48
11
5.79441
21
-3.48
0
LINE
8
BLACK
6
CONTINUOUS
10
5.79441
20
-3.48
11
5.79441
21
-3.46
0
LINE
8
BLACK
6
CONTINUOUS
10
5.79441
20
-3.46
11
5.7826
21
-3.46
0
LINE
8
BLACK
6
CONTINUOUS
10
5.85441
20
-3.48
11
5.83441
21
-3.48
0
LINE
8
BLACK
6
CONTINUOUS
10
5.83441
20
-3.48
11
5.83441
21
-3.49181
0
LINE
8
BLACK
6
CONTINUOUS
10
5.83441
20
-3.49181
11
5.83441
21
-3.49181
0
LINE
8
BLACK
6
CONTINUOUS
10
5.83441
20
-3.49181
11
5.85617
21
-3.49181
0
LINE
8
BLACK
6
CONTINUOUS
10
5.85617
20
-3.49181
11
5.85617
21
-3.49181
0
LINE
8
BLACK
6
CONTINUOUS
10
5.85617
20
-3.49181
11
5.85716
21
-3.4917
0
LINE
8
BLACK
6
CONTINUOUS
10
5.85716
20
-3.4917
11
5.8612
21
-3.48991
0
LINE
8
BLACK
6
CONTINUOUS
10
5.8612
20
-3.48991
11
5.86432
21
-3.48679
0
LINE
8
BLACK
6
CONTINUOUS
10
5.86432
20
-3.48679
11
5.86611
21
-3.48275
0
LINE
8
BLACK
6
CONTINUOUS
10
5.86611
20
-3.48275
11
5.86622
21
-3.48176
0
LINE
8
BLACK
6
CONTINUOUS
10
5.86622
20
-3.48176
11
5.86622
21
-3.48176
0
LINE
8
BLACK
6
CONTINUOUS
10
5.86622
20
-3.48176
11
5.86622
21
-3.46
0
LINE
8
BLACK
6
CONTINUOUS
10
5.86622
20
-3.46
11
5.85441
21
-3.46
0
LINE
8
BLACK
6
CONTINUOUS
10
5.85441
20
-3.46
11
5.85441
21
-3.48
0
LINE
8
BLACK
6
CONTINUOUS
10
5.52027
20
-3.45665
11
5.52264
21
-3.46291
0
LINE
8
BLACK
6
CONTINUOUS
10
5.52264
20
-3.46291
11
5.52645
21
-3.46842
0
LINE
8
BLACK
6
CONTINUOUS
10
5.52645
20
-3.46842
11
5.53146
21
-3.47286
0
LINE
8
BLACK
6
CONTINUOUS
10
5.53146
20
-3.47286
11
5.53739
21
-3.47598
0
LINE
8
BLACK
6
CONTINUOUS
10
5.53739
20
-3.47598
11
5.5439
21
-3.47758
0
LINE
8
BLACK
6
CONTINUOUS
10
5.5439
20
-3.47758
11
5.5439
21
-3.47758
0
LINE
8
BLACK
6
CONTINUOUS
10
5.5439
20
-3.47758
11
5.55059
21
-3.47758
0
LINE
8
BLACK
6
CONTINUOUS
10
5.55059
20
-3.47758
11
5.55059
21
-3.47758
0
LINE
8
BLACK
6
CONTINUOUS
10
5.55059
20
-3.47758
11
5.5571
21
-3.47598
0
LINE
8
BLACK
6
CONTINUOUS
10
5.5571
20
-3.47598
11
5.56303
21
-3.47286
0
LINE
8
BLACK
6
CONTINUOUS
10
5.56303
20
-3.47286
11
5.5676
21
-3.46881
0
LINE
8
BLACK
6
CONTINUOUS
10
5.5676
20
-3.46881
11
5.56981
21
-3.46785
0
LINE
8
BLACK
6
CONTINUOUS
10
5.56981
20
-3.46785
11
5.57018
21
-3.46783
0
LINE
8
BLACK
6
CONTINUOUS
10
5.57018
20
-3.46783
11
5.67868
21
-3.46783
0
LINE
8
BLACK
6
CONTINUOUS
10
5.67868
20
-3.46783
11
5.68097
21
-3.46858
0
LINE
8
BLACK
6
CONTINUOUS
10
5.68097
20
-3.46858
11
5.68239
21
-3.47052
0
LINE
8
BLACK
6
CONTINUOUS
10
5.68239
20
-3.47052
11
5.68258
21
-3.47173
0
LINE
8
BLACK
6
CONTINUOUS
10
5.68258
20
-3.47173
11
5.68258
21
-3.48177
0
LINE
8
BLACK
6
CONTINUOUS
10
5.68258
20
-3.48177
11
5.68269
21
-3.48276
0
LINE
8
BLACK
6
CONTINUOUS
10
5.68269
20
-3.48276
11
5.68369
21
-3.48502
0
LINE
8
BLACK
6
CONTINUOUS
10
5.68369
20
-3.48502
11
5.68448
21
-3.4868
0
LINE
8
BLACK
6
CONTINUOUS
10
5.68448
20
-3.4868
11
5.68761
21
-3.48993
0
LINE
8
BLACK
6
CONTINUOUS
10
5.68761
20
-3.48993
11
5.69165
21
-3.49172
0
LINE
8
BLACK
6
CONTINUOUS
10
5.69165
20
-3.49172
11
5.69264
21
-3.49183
0
LINE
8
BLACK
6
CONTINUOUS
10
5.69264
20
-3.49183
11
5.75618
21
-3.49183
0
LINE
8
BLACK
6
CONTINUOUS
10
5.75618
20
-3.49183
11
5.75716
21
-3.49172
0
LINE
8
BLACK
6
CONTINUOUS
10
5.75716
20
-3.49172
11
5.76121
21
-3.48993
0
LINE
8
BLACK
6
CONTINUOUS
10
5.76121
20
-3.48993
11
5.76434
21
-3.4868
0
LINE
8
BLACK
6
CONTINUOUS
10
5.76434
20
-3.4868
11
5.76613
21
-3.48276
0
LINE
8
BLACK
6
CONTINUOUS
10
5.76613
20
-3.48276
11
5.76624
21
-3.48177
0
LINE
8
BLACK
6
CONTINUOUS
10
5.76624
20
-3.48177
11
5.76624
21
-3.44
0
LINE
8
BLACK
6
CONTINUOUS
10
5.76624
20
-3.44
11
5.76624
21
-3.41823
0
LINE
8
BLACK
6
CONTINUOUS
10
5.76624
20
-3.41823
11
5.76613
21
-3.41724
0
LINE
8
BLACK
6
CONTINUOUS
10
5.76613
20
-3.41724
11
5.76434
21
-3.4132
0
LINE
8
BLACK
6
CONTINUOUS
10
5.76434
20
-3.4132
11
5.76121
21
-3.41007
0
LINE
8
BLACK
6
CONTINUOUS
10
5.76121
20
-3.41007
11
5.75716
21
-3.40828
0
LINE
8
BLACK
6
CONTINUOUS
10
5.75716
20
-3.40828
11
5.75716
21
-3.40828
0
LINE
8
BLACK
6
CONTINUOUS
10
5.75716
20
-3.40828
11
5.75716
21
-3.40828
0
LINE
8
BLACK
6
CONTINUOUS
10
5.75716
20
-3.40828
11
5.75618
21
-3.40817
0
LINE
8
BLACK
6
CONTINUOUS
10
5.75618
20
-3.40817
11
5.69264
21
-3.40817
0
LINE
8
BLACK
6
CONTINUOUS
10
5.69264
20
-3.40817
11
5.69264
21
-3.40817
0
LINE
8
BLACK
6
CONTINUOUS
10
5.69264
20
-3.40817
11
5.69165
21
-3.40828
0
LINE
8
BLACK
6
CONTINUOUS
10
5.69165
20
-3.40828
11
5.68761
21
-3.41007
0
LINE
8
BLACK
6
CONTINUOUS
10
5.68761
20
-3.41007
11
5.68448
21
-3.4132
0
LINE
8
BLACK
6
CONTINUOUS
10
5.68448
20
-3.4132
11
5.68269
21
-3.41724
0
LINE
8
BLACK
6
CONTINUOUS
10
5.68269
20
-3.41724
11
5.68258
21
-3.41823
0
LINE
8
BLACK
6
CONTINUOUS
10
5.68258
20
-3.41823
11
5.68258
21
-3.42827
0
LINE
8
BLACK
6
CONTINUOUS
10
5.68258
20
-3.42827
11
5.68183
21
-3.43056
0
LINE
8
BLACK
6
CONTINUOUS
10
5.68183
20
-3.43056
11
5.67989
21
-3.43198
0
LINE
8
BLACK
6
CONTINUOUS
10
5.67989
20
-3.43198
11
5.67868
21
-3.43217
0
LINE
8
BLACK
6
CONTINUOUS
10
5.67868
20
-3.43217
11
5.57018
21
-3.43217
0
LINE
8
BLACK
6
CONTINUOUS
10
5.57018
20
-3.43217
11
5.56789
21
-3.43142
0
LINE
8
BLACK
6
CONTINUOUS
10
5.56789
20
-3.43142
11
5.5676
21
-3.43119
0
LINE
8
BLACK
6
CONTINUOUS
10
5.5676
20
-3.43119
11
5.56303
21
-3.42714
0
LINE
8
BLACK
6
CONTINUOUS
10
5.56303
20
-3.42714
11
5.56303
21
-3.42714
0
LINE
8
BLACK
6
CONTINUOUS
10
5.56303
20
-3.42714
11
5.5571
21
-3.42402
0
LINE
8
BLACK
6
CONTINUOUS
10
5.5571
20
-3.42402
11
5.5571
21
-3.42402
0
LINE
8
BLACK
6
CONTINUOUS
10
5.5571
20
-3.42402
11
5.5571
21
-3.42402
0
LINE
8
BLACK
6
CONTINUOUS
10
5.5571
20
-3.42402
11
5.55059
21
-3.42242
0
LINE
8
BLACK
6
CONTINUOUS
10
5.55059
20
-3.42242
11
5.55059
21
-3.42242
0
LINE
8
BLACK
6
CONTINUOUS
10
5.55059
20
-3.42242
11
5.5439
21
-3.42242
0
LINE
8
BLACK
6
CONTINUOUS
10
5.5439
20
-3.42242
11
5.5439
21
-3.42242
0
LINE
8
BLACK
6
CONTINUOUS
10
5.5439
20
-3.42242
11
5.53739
21
-3.42402
0
LINE
8
BLACK
6
CONTINUOUS
10
5.53739
20
-3.42402
11
5.53146
21
-3.42714
0
LINE
8
BLACK
6
CONTINUOUS
10
5.53146
20
-3.42714
11
5.52645
21
-3.43158
0
LINE
8
BLACK
6
CONTINUOUS
10
5.52645
20
-3.43158
11
5.52645
21
-3.43158
0
LINE
8
BLACK
6
CONTINUOUS
10
5.52645
20
-3.43158
11
5.52532
21
-3.43321
0
LINE
8
BLACK
6
CONTINUOUS
10
5.52532
20
-3.43321
11
5.52264
21
-3.43709
0
LINE
8
BLACK
6
CONTINUOUS
10
5.52264
20
-3.43709
11
5.52042
21
-3.44296
0
LINE
8
BLACK
6
CONTINUOUS
10
5.52042
20
-3.44296
11
5.52027
21
-3.44335
0
LINE
8
BLACK
6
CONTINUOUS
10
5.52027
20
-3.44335
11
5.51978
21
-3.44741
0
LINE
8
BLACK
6
CONTINUOUS
10
5.51978
20
-3.44741
11
5.51946
21
-3.45
0
LINE
8
BLACK
6
CONTINUOUS
10
5.51946
20
-3.45
11
5.52027
21
-3.45665
0
LINE
8
BLACK
6
CONTINUOUS
10
5.83441
20
-3.40819
11
5.83441
21
-3.42
0
LINE
8
BLACK
6
CONTINUOUS
10
5.83441
20
-3.42
11
5.85441
21
-3.42
0
LINE
8
BLACK
6
CONTINUOUS
10
5.85441
20
-3.42
11
5.85441
21
-3.44
0
LINE
8
BLACK
6
CONTINUOUS
10
5.85441
20
-3.44
11
5.86622
21
-3.44
0
LINE
8
BLACK
6
CONTINUOUS
10
5.86622
20
-3.44
11
5.86622
21
-3.44
0
LINE
8
BLACK
6
CONTINUOUS
10
5.86622
20
-3.44
11
5.86622
21
-3.41824
0
LINE
8
BLACK
6
CONTINUOUS
10
5.86622
20
-3.41824
11
5.86622
21
-3.41824
0
LINE
8
BLACK
6
CONTINUOUS
10
5.86622
20
-3.41824
11
5.86611
21
-3.41725
0
LINE
8
BLACK
6
CONTINUOUS
10
5.86611
20
-3.41725
11
5.86432
21
-3.41321
0
LINE
8
BLACK
6
CONTINUOUS
10
5.86432
20
-3.41321
11
5.8612
21
-3.41009
0
LINE
8
BLACK
6
CONTINUOUS
10
5.8612
20
-3.41009
11
5.85716
21
-3.4083
0
LINE
8
BLACK
6
CONTINUOUS
10
5.85716
20
-3.4083
11
5.85617
21
-3.40819
0
LINE
8
BLACK
6
CONTINUOUS
10
5.85617
20
-3.40819
11
5.83441
21
-3.40819
0
LINE
8
BLACK
6
CONTINUOUS
10
5.83441
20
-3.40819
11
5.83441
21
-3.40819
0
LINE
8
BLACK
6
CONTINUOUS
10
5.69264
20
-3.30817
11
5.69165
21
-3.30828
0
LINE
8
BLACK
6
CONTINUOUS
10
5.69165
20
-3.30828
11
5.68761
21
-3.31007
0
LINE
8
BLACK
6
CONTINUOUS
10
5.68761
20
-3.31007
11
5.68448
21
-3.3132
0
LINE
8
BLACK
6
CONTINUOUS
10
5.68448
20
-3.3132
11
5.68269
21
-3.31724
0
LINE
8
BLACK
6
CONTINUOUS
10
5.68269
20
-3.31724
11
5.68258
21
-3.31823
0
LINE
8
BLACK
6
CONTINUOUS
10
5.68258
20
-3.31823
11
5.68258
21
-3.38177
0
LINE
8
BLACK
6
CONTINUOUS
10
5.68258
20
-3.38177
11
5.68258
21
-3.38177
0
LINE
8
BLACK
6
CONTINUOUS
10
5.68258
20
-3.38177
11
5.68269
21
-3.38276
0
LINE
8
BLACK
6
CONTINUOUS
10
5.68269
20
-3.38276
11
5.68369
21
-3.38502
0
LINE
8
BLACK
6
CONTINUOUS
10
5.68369
20
-3.38502
11
5.68448
21
-3.3868
0
LINE
8
BLACK
6
CONTINUOUS
10
5.68448
20
-3.3868
11
5.68761
21
-3.38993
0
LINE
8
BLACK
6
CONTINUOUS
10
5.68761
20
-3.38993
11
5.69165
21
-3.39172
0
LINE
8
BLACK
6
CONTINUOUS
10
5.69165
20
-3.39172
11
5.69264
21
-3.39183
0
LINE
8
BLACK
6
CONTINUOUS
10
5.69264
20
-3.39183
11
5.75618
21
-3.39183
0
LINE
8
BLACK
6
CONTINUOUS
10
5.75618
20
-3.39183
11
5.75716
21
-3.39172
0
LINE
8
BLACK
6
CONTINUOUS
10
5.75716
20
-3.39172
11
5.76121
21
-3.38993
0
LINE
8
BLACK
6
CONTINUOUS
10
5.76121
20
-3.38993
11
5.76434
21
-3.3868
0
LINE
8
BLACK
6
CONTINUOUS
10
5.76434
20
-3.3868
11
5.76613
21
-3.38276
0
LINE
8
BLACK
6
CONTINUOUS
10
5.76613
20
-3.38276
11
5.76624
21
-3.38177
0
LINE
8
BLACK
6
CONTINUOUS
10
5.76624
20
-3.38177
11
5.76624
21
-3.38177
0
LINE
8
BLACK
6
CONTINUOUS
10
5.76624
20
-3.38177
11
5.76624
21
-3.31823
0
LINE
8
BLACK
6
CONTINUOUS
10
5.76624
20
-3.31823
11
5.76613
21
-3.31724
0
LINE
8
BLACK
6
CONTINUOUS
10
5.76613
20
-3.31724
11
5.76434
21
-3.3132
0
LINE
8
BLACK
6
CONTINUOUS
10
5.76434
20
-3.3132
11
5.76121
21
-3.31007
0
LINE
8
BLACK
6
CONTINUOUS
10
5.76121
20
-3.31007
11
5.75716
21
-3.30828
0
LINE
8
BLACK
6
CONTINUOUS
10
5.75716
20
-3.30828
11
5.75716
21
-3.30828
0
LINE
8
BLACK
6
CONTINUOUS
10
5.75716
20
-3.30828
11
5.75716
21
-3.30828
0
LINE
8
BLACK
6
CONTINUOUS
10
5.75716
20
-3.30828
11
5.75618
21
-3.30817
0
LINE
8
BLACK
6
CONTINUOUS
10
5.75618
20
-3.30817
11
5.69264
21
-3.30817
0
LINE
8
BLACK
6
CONTINUOUS
10
5.69264
20
-3.30817
11
5.69264
21
-3.30817
0
LINE
8
BLACK
6
CONTINUOUS
10
5.78258
20
-3.38177
11
5.78269
21
-3.38276
0
LINE
8
BLACK
6
CONTINUOUS
10
5.78269
20
-3.38276
11
5.78369
21
-3.38502
0
LINE
8
BLACK
6
CONTINUOUS
10
5.78369
20
-3.38502
11
5.78448
21
-3.3868
0
LINE
8
BLACK
6
CONTINUOUS
10
5.78448
20
-3.3868
11
5.78761
21
-3.38993
0
LINE
8
BLACK
6
CONTINUOUS
10
5.78761
20
-3.38993
11
5.79165
21
-3.39172
0
LINE
8
BLACK
6
CONTINUOUS
10
5.79165
20
-3.39172
11
5.79264
21
-3.39183
0
LINE
8
BLACK
6
CONTINUOUS
10
5.79264
20
-3.39183
11
5.85618
21
-3.39183
0
LINE
8
BLACK
6
CONTINUOUS
10
5.85618
20
-3.39183
11
5.85717
21
-3.39172
0
LINE
8
BLACK
6
CONTINUOUS
10
5.85717
20
-3.39172
11
5.86121
21
-3.38993
0
LINE
8
BLACK
6
CONTINUOUS
10
5.86121
20
-3.38993
11
5.86434
21
-3.3868
0
LINE
8
BLACK
6
CONTINUOUS
10
5.86434
20
-3.3868
11
5.86613
21
-3.38276
0
LINE
8
BLACK
6
CONTINUOUS
10
5.86613
20
-3.38276
11
5.86624
21
-3.38177
0
LINE
8
BLACK
6
CONTINUOUS
10
5.86624
20
-3.38177
11
5.86624
21
-3.31823
0
LINE
8
BLACK
6
CONTINUOUS
10
5.86624
20
-3.31823
11
5.86613
21
-3.31724
0
LINE
8
BLACK
6
CONTINUOUS
10
5.86613
20
-3.31724
11
5.86434
21
-3.3132
0
LINE
8
BLACK
6
CONTINUOUS
10
5.86434
20
-3.3132
11
5.86121
21
-3.31007
0
LINE
8
BLACK
6
CONTINUOUS
10
5.86121
20
-3.31007
11
5.85717
21
-3.30828
0
LINE
8
BLACK
6
CONTINUOUS
10
5.85717
20
-3.30828
11
5.85716
21
-3.30828
0
LINE
8
BLACK
6
CONTINUOUS
10
5.85716
20
-3.30828
11
5.85716
21
-3.30828
0
LINE
8
BLACK
6
CONTINUOUS
10
5.85716
20
-3.30828
11
5.85618
21
-3.30817
0
LINE
8
BLACK
6
CONTINUOUS
10
5.85618
20
-3.30817
11
5.79264
21
-3.30817
0
LINE
8
BLACK
6
CONTINUOUS
10
5.79264
20
-3.30817
11
5.79264
21
-3.30817
0
LINE
8
BLACK
6
CONTINUOUS
10
5.79264
20
-3.30817
11
5.79165
21
-3.30828
0
LINE
8
BLACK
6
CONTINUOUS
10
5.79165
20
-3.30828
11
5.78761
21
-3.31007
0
LINE
8
BLACK
6
CONTINUOUS
10
5.78761
20
-3.31007
11
5.78448
21
-3.3132
0
LINE
8
BLACK
6
CONTINUOUS
10
5.78448
20
-3.3132
11
5.78269
21
-3.31724
0
LINE
8
BLACK
6
CONTINUOUS
10
5.78269
20
-3.31724
11
5.78258
21
-3.31823
0
LINE
8
BLACK
6
CONTINUOUS
10
5.78258
20
-3.31823
11
5.78258
21
-3.38177
0
LINE
8
BLACK
6
CONTINUOUS
10
5.78258
20
-3.38177
11
5.78258
21
-3.38177
0
LINE
8
BLACK
6
CONTINUOUS
10
5.68258
20
-3.28177
11
5.68269
21
-3.28276
0
LINE
8
BLACK
6
CONTINUOUS
10
5.68269
20
-3.28276
11
5.68369
21
-3.28502
0
LINE
8
BLACK
6
CONTINUOUS
10
5.68369
20
-3.28502
11
5.68448
21
-3.2868
0
LINE
8
BLACK
6
CONTINUOUS
10
5.68448
20
-3.2868
11
5.68761
21
-3.28993
0
LINE
8
BLACK
6
CONTINUOUS
10
5.68761
20
-3.28993
11
5.69165
21
-3.29172
0
LINE
8
BLACK
6
CONTINUOUS
10
5.69165
20
-3.29172
11
5.69264
21
-3.29183
0
LINE
8
BLACK
6
CONTINUOUS
10
5.69264
20
-3.29183
11
5.75618
21
-3.29183
0
LINE
8
BLACK
6
CONTINUOUS
10
5.75618
20
-3.29183
11
5.75716
21
-3.29172
0
LINE
8
BLACK
6
CONTINUOUS
10
5.75716
20
-3.29172
11
5.76121
21
-3.28993
0
LINE
8
BLACK
6
CONTINUOUS
10
5.76121
20
-3.28993
11
5.76434
21
-3.2868
0
LINE
8
BLACK
6
CONTINUOUS
10
5.76434
20
-3.2868
11
5.76613
21
-3.28276
0
LINE
8
BLACK
6
CONTINUOUS
10
5.76613
20
-3.28276
11
5.76624
21
-3.28177
0
LINE
8
BLACK
6
CONTINUOUS
10
5.76624
20
-3.28177
11
5.76624
21
-3.28177
0
LINE
8
BLACK
6
CONTINUOUS
10
5.76624
20
-3.28177
11
5.76624
21
-3.21823
0
LINE
8
BLACK
6
CONTINUOUS
10
5.76624
20
-3.21823
11
5.76613
21
-3.21724
0
LINE
8
BLACK
6
CONTINUOUS
10
5.76613
20
-3.21724
11
5.76434
21
-3.2132
0
LINE
8
BLACK
6
CONTINUOUS
10
5.76434
20
-3.2132
11
5.76121
21
-3.21007
0
LINE
8
BLACK
6
CONTINUOUS
10
5.76121
20
-3.21007
11
5.75716
21
-3.20828
0
LINE
8
BLACK
6
CONTINUOUS
10
5.75716
20
-3.20828
11
5.75716
21
-3.20828
0
LINE
8
BLACK
6
CONTINUOUS
10
5.75716
20
-3.20828
11
5.75716
21
-3.20828
0
LINE
8
BLACK
6
CONTINUOUS
10
5.75716
20
-3.20828
11
5.75618
21
-3.20817
0
LINE
8
BLACK
6
CONTINUOUS
10
5.75618
20
-3.20817
11
5.69264
21
-3.20817
0
LINE
8
BLACK
6
CONTINUOUS
10
5.69264
20
-3.20817
11
5.69264
21
-3.20817
0
LINE
8
BLACK
6
CONTINUOUS
10
5.69264
20
-3.20817
11
5.69165
21
-3.20828
0
LINE
8
BLACK
6
CONTINUOUS
10
5.69165
20
-3.20828
11
5.68761
21
-3.21007
0
LINE
8
BLACK
6
CONTINUOUS
10
5.68761
20
-3.21007
11
5.68448
21
-3.2132
0
LINE
8
BLACK
6
CONTINUOUS
10
5.68448
20
-3.2132
11
5.68269
21
-3.21724
0
LINE
8
BLACK
6
CONTINUOUS
10
5.68269
20
-3.21724
11
5.68258
21
-3.21823
0
LINE
8
BLACK
6
CONTINUOUS
10
5.68258
20
-3.21823
11
5.68258
21
-3.28177
0
LINE
8
BLACK
6
CONTINUOUS
10
5.68258
20
-3.28177
11
5.68258
21
-3.28177
0
LINE
8
BLACK
6
CONTINUOUS
10
5.78258
20
-3.28177
11
5.78269
21
-3.28276
0
LINE
8
BLACK
6
CONTINUOUS
10
5.78269
20
-3.28276
11
5.78369
21
-3.28502
0
LINE
8
BLACK
6
CONTINUOUS
10
5.78369
20
-3.28502
11
5.78448
21
-3.2868
0
LINE
8
BLACK
6
CONTINUOUS
10
5.78448
20
-3.2868
11
5.78761
21
-3.28993
0
LINE
8
BLACK
6
CONTINUOUS
10
5.78761
20
-3.28993
11
5.79165
21
-3.29172
0
LINE
8
BLACK
6
CONTINUOUS
10
5.79165
20
-3.29172
11
5.79264
21
-3.29183
0
LINE
8
BLACK
6
CONTINUOUS
10
5.79264
20
-3.29183
11
5.85618
21
-3.29183
0
LINE
8
BLACK
6
CONTINUOUS
10
5.85618
20
-3.29183
11
5.85717
21
-3.29172
0
LINE
8
BLACK
6
CONTINUOUS
10
5.85717
20
-3.29172
11
5.86121
21
-3.28993
0
LINE
8
BLACK
6
CONTINUOUS
10
5.86121
20
-3.28993
11
5.86434
21
-3.2868
0
LINE
8
BLACK
6
CONTINUOUS
10
5.86434
20
-3.2868
11
5.86613
21
-3.28276
0
LINE
8
BLACK
6
CONTINUOUS
10
5.86613
20
-3.28276
11
5.86624
21
-3.28177
0
LINE
8
BLACK
6
CONTINUOUS
10
5.86624
20
-3.28177
11
5.86624
21
-3.21823
0
LINE
8
BLACK
6
CONTINUOUS
10
5.86624
20
-3.21823
11
5.86613
21
-3.21724
0
LINE
8
BLACK
6
CONTINUOUS
10
5.86613
20
-3.21724
11
5.86434
21
-3.2132
0
LINE
8
BLACK
6
CONTINUOUS
10
5.86434
20
-3.2132
11
5.86121
21
-3.21007
0
LINE
8
BLACK
6
CONTINUOUS
10
5.86121
20
-3.21007
11
5.85717
21
-3.20828
0
LINE
8
BLACK
6
CONTINUOUS
10
5.85717
20
-3.20828
11
5.85716
21
-3.20828
0
LINE
8
BLACK
6
CONTINUOUS
10
5.85716
20
-3.20828
11
5.85716
21
-3.20828
0
LINE
8
BLACK
6
CONTINUOUS
10
5.85716
20
-3.20828
11
5.85618
21
-3.20817
0
LINE
8
BLACK
6
CONTINUOUS
10
5.85618
20
-3.20817
11
5.79264
21
-3.20817
0
LINE
8
BLACK
6
CONTINUOUS
10
5.79264
20
-3.20817
11
5.79264
21
-3.20817
0
LINE
8
BLACK
6
CONTINUOUS
10
5.79264
20
-3.20817
11
5.79165
21
-3.20828
0
LINE
8
BLACK
6
CONTINUOUS
10
5.79165
20
-3.20828
11
5.78761
21
-3.21007
0
LINE
8
BLACK
6
CONTINUOUS
10
5.78761
20
-3.21007
11
5.78448
21
-3.2132
0
LINE
8
BLACK
6
CONTINUOUS
10
5.78448
20
-3.2132
11
5.78269
21
-3.21724
0
LINE
8
BLACK
6
CONTINUOUS
10
5.78269
20
-3.21724
11
5.78258
21
-3.21823
0
LINE
8
BLACK
6
CONTINUOUS
10
5.78258
20
-3.21823
11
5.78258
21
-3.28177
0
LINE
8
BLACK
6
CONTINUOUS
10
5.78258
20
-3.28177
11
5.78258
21
-3.28177
0
LINE
8
BLACK
6
CONTINUOUS
10
5.7826
20
-3.54
11
5.79441
21
-3.54
0
LINE
8
BLACK
6
CONTINUOUS
10
5.79441
20
-3.54
11
5.79441
21
-3.52
0
LINE
8
BLACK
6
CONTINUOUS
10
5.79441
20
-3.52
11
5.81441
21
-3.52
0
LINE
8
BLACK
6
CONTINUOUS
10
5.81441
20
-3.52
11
5.81441
21
-3.50819
0
LINE
8
BLACK
6
CONTINUOUS
10
5.81441
20
-3.50819
11
5.81441
21
-3.50819
0
LINE
8
BLACK
6
CONTINUOUS
10
5.81441
20
-3.50819
11
5.79265
21
-3.50819
0
LINE
8
BLACK
6
CONTINUOUS
10
5.79265
20
-3.50819
11
5.79265
21
-3.50819
0
LINE
8
BLACK
6
CONTINUOUS
10
5.79265
20
-3.50819
11
5.79166
21
-3.5083
0
LINE
8
BLACK
6
CONTINUOUS
10
5.79166
20
-3.5083
11
5.78762
21
-3.51009
0
LINE
8
BLACK
6
CONTINUOUS
10
5.78762
20
-3.51009
11
5.7845
21
-3.51321
0
LINE
8
BLACK
6
CONTINUOUS
10
5.7845
20
-3.51321
11
5.78271
21
-3.51725
0
LINE
8
BLACK
6
CONTINUOUS
10
5.78271
20
-3.51725
11
5.7826
21
-3.51824
0
LINE
8
BLACK
6
CONTINUOUS
10
5.7826
20
-3.51824
11
5.7826
21
-3.54
0
LINE
8
BLACK
6
CONTINUOUS
10
5.7826
20
-3.54
11
5.7826
21
-3.54
0
LINE
8
BLACK
6
CONTINUOUS
10
5.7826
20
-3.44
11
5.79441
21
-3.44
0
LINE
8
BLACK
6
CONTINUOUS
10
5.79441
20
-3.44
11
5.79441
21
-3.42
0
LINE
8
BLACK
6
CONTINUOUS
10
5.79441
20
-3.42
11
5.81441
21
-3.42
0
LINE
8
BLACK
6
CONTINUOUS
10
5.81441
20
-3.42
11
5.81441
21
-3.40819
0
LINE
8
BLACK
6
CONTINUOUS
10
5.81441
20
-3.40819
11
5.81441
21
-3.40819
0
LINE
8
BLACK
6
CONTINUOUS
10
5.81441
20
-3.40819
11
5.79265
21
-3.40819
0
LINE
8
BLACK
6
CONTINUOUS
10
5.79265
20
-3.40819
11
5.79265
21
-3.40819
0
LINE
8
BLACK
6
CONTINUOUS
10
5.79265
20
-3.40819
11
5.79166
21
-3.4083
0
LINE
8
BLACK
6
CONTINUOUS
10
5.79166
20
-3.4083
11
5.78762
21
-3.41009
0
LINE
8
BLACK
6
CONTINUOUS
10
5.78762
20
-3.41009
11
5.7845
21
-3.41321
0
LINE
8
BLACK
6
CONTINUOUS
10
5.7845
20
-3.41321
11
5.78271
21
-3.41725
0
LINE
8
BLACK
6
CONTINUOUS
10
5.78271
20
-3.41725
11
5.7826
21
-3.41824
0
LINE
8
BLACK
6
CONTINUOUS
10
5.7826
20
-3.41824
11
5.7826
21
-3.44
0
LINE
8
BLACK
6
CONTINUOUS
10
5.7826
20
-3.44
11
5.7826
21
-3.44
0
CIRCLE
8
BLACK
10
5.8
20
-3.8
40
0.00688976
0
CIRCLE
8
BLACK
10
5.4
20
-3
40
0.00688976
0
CIRCLE
8
BLACK
10
5.8
20
-3
40
0.00688976
0
CIRCLE
8
BLACK
10
5.72441
20
-3.25
40
0.00688976
0
CIRCLE
8
BLACK
10
5.82441
20
-3.25
40
0.00688976
0
CIRCLE
8
BLACK
10
5.72441
20
-3.35
40
0.00688976
0
CIRCLE
8
BLACK
10
5.82441
20
-3.35
40
0.00688976
0
CIRCLE
8
BLACK
10
5.72441
20
-3.45
40
0.00688976
0
CIRCLE
8
BLACK
10
5.82441
20
-3.45
40
0.00688976
0
CIRCLE
8
BLACK
10
5.72441
20
-3.55
40
0.00688976
0
CIRCLE
8
BLACK
10
5.82441
20
-3.55
40
0.00688976
0
CIRCLE
8
BLACK
10
5.4
20
-3.8
40
0.00688976
0
CIRCLE
8
BLACK
10
5.44
20
-3.6
40
0.00787402
0
CIRCLE
8
BLACK
10
5.26
20
-3.54724
40
0.00787402
0
CIRCLE
8
BLACK
10
5.54331
20
-3.37402
40
0.00787402
0
CIRCLE
8
BLACK
10
5.57
20
-3.73
40
0.00787402
0
CIRCLE
8
BLACK
10
5.62
20
-3.73
40
0.00787402
0
CIRCLE
8
BLACK
10
5.44
20
-3.56
40
0.00787402
0
CIRCLE
8
BLACK
10
5.23622
20
-3.40157
40
0.00787402
0
CIRCLE
8
BLACK
10
5.5
20
-3.65
40
0.00787402
0
CIRCLE
8
BLACK
10
5.54724
20
-3.45
40
0.00787402
0
CIRCLE
8
BLACK
10
5.38583
20
-3.4
40
0.00787402
  0
ENDSEC
  0
EOF
