  0
SECTION
  2
HEADER
  9
$ANGBASE
  50
0.0
  9
$ANGDIR
  70
1
  9
$MEASUREMENT
  70
0
  0
ENDSEC
  0
SECTION
  2
TABLES
  0
TABLE
  2
LTYPE
  70
4
  0
LTYPE
  5
40F
  2
CONTINUOUS
  70
0
  3
Solid line
  72
65
  73
0
  40
0.0
  0
LTYPE
  5
410
  2
DASHDOT
 70
0
  3
Dash Dot ____ _ ____ _
 72
65
 73
4
 40
2.0
 49
1.25
 49
-0.25
 49
0.25
 49
-0.25
  0
LTYPE
  5
411
  2
DASHED
 70
0
  3
Dashed __ __ __ __ __
 72
65
 73
2
 40
0.75
 49
0.5
 49
-0.25
  0
LTYPE
  5
43B
  2
DOTTED
 70
0
  3
Dotted .  .  .  .
 72
65
 73
2
 40
0.2
 49
0.0
 49
-0.2
  0
ENDTAB
  0
TABLE
  2
STYLE
  70
4
  0
STYLE
  2
KICAD
  70
0
  40
0
  41
1
  42
1
  50
0
  71
0
  3
isocp.shx
  0
STYLE
  2
KICADB
  70
0
  40
0
  41
1
  42
1
  50
0
  71
0
  3
isocp.shx
  0
STYLE
  2
KICADI
  70
0
  40
0
  41
1
  42
1
  50
15
  71
0
  3
isocp.shx
  0
STYLE
  2
KICADBI
  70
0
  40
0
  41
1
  42
1
  50
15
  71
0
  3
isocp.shx
  0
ENDTAB
  0
TABLE
  2
LAYER
  70
1
  0
LAYER
  2
BLACK
  70
0
  62
7
  6
CONTINUOUS
  0
ENDTAB
  0
ENDSEC
  0
SECTION
  2
ENTITIES
0
LINE
8
BLACK
6
CONTINUOUS
10
5.00865
20
-3.68221
11
5.02213
21
-3.68398
0
LINE
8
BLACK
6
CONTINUOUS
10
5.02213
20
-3.68398
11
5.03532
21
-3.68729
0
LINE
8
BLACK
6
CONTINUOUS
10
5.03532
20
-3.68729
11
5.04804
21
-3.6921
0
LINE
8
BLACK
6
CONTINUOUS
10
5.04804
20
-3.6921
11
5.06012
21
-3.69834
0
LINE
8
BLACK
6
CONTINUOUS
10
5.06012
20
-3.69834
11
5.07141
21
-3.70592
0
LINE
8
BLACK
6
CONTINUOUS
10
5.07141
20
-3.70592
11
5.08175
21
-3.71475
0
LINE
8
BLACK
6
CONTINUOUS
10
5.08175
20
-3.71475
11
5.09101
21
-3.72471
0
LINE
8
BLACK
6
CONTINUOUS
10
5.09101
20
-3.72471
11
5.09906
21
-3.73567
0
LINE
8
BLACK
6
CONTINUOUS
10
5.09906
20
-3.73567
11
5.10579
21
-3.74748
0
LINE
8
BLACK
6
CONTINUOUS
10
5.10579
20
-3.74748
11
5.11113
21
-3.75999
0
LINE
8
BLACK
6
CONTINUOUS
10
5.11113
20
-3.75999
11
5.11499
21
-3.77303
0
LINE
8
BLACK
6
CONTINUOUS
10
5.11499
20
-3.77303
11
5.11733
21
-3.78642
0
LINE
8
BLACK
6
CONTINUOUS
10
5.11733
20
-3.78642
11
5.11811
21
-3.8
0
LINE
8
BLACK
6
CONTINUOUS
10
5.11811
20
-3.8
11
5.11788
21
-3.80742
0
LINE
8
BLACK
6
CONTINUOUS
10
5.11788
20
-3.80742
11
5.11624
21
-3.82092
0
LINE
8
BLACK
6
CONTINUOUS
10
5.11624
20
-3.82092
11
5.11307
21
-3.83414
0
LINE
8
BLACK
6
CONTINUOUS
10
5.11307
20
-3.83414
11
5.1084
21
-3.84691
0
LINE
8
BLACK
6
CONTINUOUS
10
5.1084
20
-3.84691
11
5.10229
21
-3.85906
0
LINE
8
BLACK
6
CONTINUOUS
10
5.10229
20
-3.85906
11
5.09482
21
-3.87042
0
LINE
8
BLACK
6
CONTINUOUS
10
5.09482
20
-3.87042
11
5.0861
21
-3.88085
0
LINE
8
BLACK
6
CONTINUOUS
10
5.0861
20
-3.88085
11
5.07624
21
-3.89021
0
LINE
8
BLACK
6
CONTINUOUS
10
5.07624
20
-3.89021
11
5.06536
21
-3.89838
0
LINE
8
BLACK
6
CONTINUOUS
10
5.06536
20
-3.89838
11
5.05362
21
-3.90524
0
LINE
8
BLACK
6
CONTINUOUS
10
5.05362
20
-3.90524
11
5.04117
21
-3.9107
0
LINE
8
BLACK
6
CONTINUOUS
10
5.04117
20
-3.9107
11
5.02817
21
-3.9147
0
LINE
8
BLACK
6
CONTINUOUS
10
5.02817
20
-3.9147
11
5.0148
21
-3.91718
0
LINE
8
BLACK
6
CONTINUOUS
10
5.0148
20
-3.91718
11
5.00124
21
-3.9181
0
LINE
8
BLACK
6
CONTINUOUS
10
5.00124
20
-3.9181
11
4.98765
21
-3.91746
0
LINE
8
BLACK
6
CONTINUOUS
10
4.98765
20
-3.91746
11
4.97424
21
-3.91527
0
LINE
8
BLACK
6
CONTINUOUS
10
4.97424
20
-3.91527
11
4.96116
21
-3.91154
0
LINE
8
BLACK
6
CONTINUOUS
10
4.96116
20
-3.91154
11
4.94859
21
-3.90634
0
LINE
8
BLACK
6
CONTINUOUS
10
4.94859
20
-3.90634
11
4.93671
21
-3.89972
0
LINE
8
BLACK
6
CONTINUOUS
10
4.93671
20
-3.89972
11
4.92567
21
-3.89179
0
LINE
8
BLACK
6
CONTINUOUS
10
4.92567
20
-3.89179
11
4.91561
21
-3.88264
0
LINE
8
BLACK
6
CONTINUOUS
10
4.91561
20
-3.88264
11
4.90667
21
-3.87239
0
LINE
8
BLACK
6
CONTINUOUS
10
4.90667
20
-3.87239
11
4.89897
21
-3.86118
0
LINE
8
BLACK
6
CONTINUOUS
10
4.89897
20
-3.86118
11
4.89261
21
-3.84917
0
LINE
8
BLACK
6
CONTINUOUS
10
4.89261
20
-3.84917
11
4.88767
21
-3.8365
0
LINE
8
BLACK
6
CONTINUOUS
10
4.88767
20
-3.8365
11
4.88422
21
-3.82335
0
LINE
8
BLACK
6
CONTINUOUS
10
4.88422
20
-3.82335
11
4.8823
21
-3.80988
0
LINE
8
BLACK
6
CONTINUOUS
10
4.8823
20
-3.80988
11
4.88195
21
-3.79629
0
LINE
8
BLACK
6
CONTINUOUS
10
4.88195
20
-3.79629
11
4.88316
21
-3.78275
0
LINE
8
BLACK
6
CONTINUOUS
10
4.88316
20
-3.78275
11
4.88591
21
-3.76943
0
LINE
8
BLACK
6
CONTINUOUS
10
4.88591
20
-3.76943
11
4.89018
21
-3.75652
0
LINE
8
BLACK
6
CONTINUOUS
10
4.89018
20
-3.75652
11
4.89591
21
-3.74419
0
LINE
8
BLACK
6
CONTINUOUS
10
4.89591
20
-3.74419
11
4.90301
21
-3.73259
0
LINE
8
BLACK
6
CONTINUOUS
10
4.90301
20
-3.73259
11
4.9114
21
-3.72189
0
LINE
8
BLACK
6
CONTINUOUS
10
4.9114
20
-3.72189
11
4.92097
21
-3.71223
0
LINE
8
BLACK
6
CONTINUOUS
10
4.92097
20
-3.71223
11
4.93158
21
-3.70373
0
LINE
8
BLACK
6
CONTINUOUS
10
4.93158
20
-3.70373
11
4.9431
21
-3.6965
0
LINE
8
BLACK
6
CONTINUOUS
10
4.9431
20
-3.6965
11
4.95537
21
-3.69065
0
LINE
8
BLACK
6
CONTINUOUS
10
4.95537
20
-3.69065
11
4.96824
21
-3.68624
0
LINE
8
BLACK
6
CONTINUOUS
10
4.96824
20
-3.68624
11
4.98152
21
-3.68334
0
LINE
8
BLACK
6
CONTINUOUS
10
4.98152
20
-3.68334
11
4.99505
21
-3.68199
0
LINE
8
BLACK
6
CONTINUOUS
10
4.99505
20
-3.68199
11
5.00865
21
-3.68221
0
LINE
8
BLACK
6
CONTINUOUS
10
5.80865
20
-3.68221
11
5.82213
21
-3.68398
0
LINE
8
BLACK
6
CONTINUOUS
10
5.82213
20
-3.68398
11
5.83532
21
-3.68729
0
LINE
8
BLACK
6
CONTINUOUS
10
5.83532
20
-3.68729
11
5.84804
21
-3.6921
0
LINE
8
BLACK
6
CONTINUOUS
10
5.84804
20
-3.6921
11
5.86012
21
-3.69834
0
LINE
8
BLACK
6
CONTINUOUS
10
5.86012
20
-3.69834
11
5.87141
21
-3.70592
0
LINE
8
BLACK
6
CONTINUOUS
10
5.87141
20
-3.70592
11
5.88175
21
-3.71475
0
LINE
8
BLACK
6
CONTINUOUS
10
5.88175
20
-3.71475
11
5.89101
21
-3.72471
0
LINE
8
BLACK
6
CONTINUOUS
10
5.89101
20
-3.72471
11
5.89906
21
-3.73567
0
LINE
8
BLACK
6
CONTINUOUS
10
5.89906
20
-3.73567
11
5.90579
21
-3.74748
0
LINE
8
BLACK
6
CONTINUOUS
10
5.90579
20
-3.74748
11
5.91113
21
-3.75999
0
LINE
8
BLACK
6
CONTINUOUS
10
5.91113
20
-3.75999
11
5.91499
21
-3.77303
0
LINE
8
BLACK
6
CONTINUOUS
10
5.91499
20
-3.77303
11
5.91733
21
-3.78642
0
LINE
8
BLACK
6
CONTINUOUS
10
5.91733
20
-3.78642
11
5.91811
21
-3.8
0
LINE
8
BLACK
6
CONTINUOUS
10
5.91811
20
-3.8
11
5.91788
21
-3.80742
0
LINE
8
BLACK
6
CONTINUOUS
10
5.91788
20
-3.80742
11
5.91624
21
-3.82092
0
LINE
8
BLACK
6
CONTINUOUS
10
5.91624
20
-3.82092
11
5.91307
21
-3.83414
0
LINE
8
BLACK
6
CONTINUOUS
10
5.91307
20
-3.83414
11
5.9084
21
-3.84691
0
LINE
8
BLACK
6
CONTINUOUS
10
5.9084
20
-3.84691
11
5.90229
21
-3.85906
0
LINE
8
BLACK
6
CONTINUOUS
10
5.90229
20
-3.85906
11
5.89482
21
-3.87042
0
LINE
8
BLACK
6
CONTINUOUS
10
5.89482
20
-3.87042
11
5.8861
21
-3.88085
0
LINE
8
BLACK
6
CONTINUOUS
10
5.8861
20
-3.88085
11
5.87624
21
-3.89021
0
LINE
8
BLACK
6
CONTINUOUS
10
5.87624
20
-3.89021
11
5.86536
21
-3.89838
0
LINE
8
BLACK
6
CONTINUOUS
10
5.86536
20
-3.89838
11
5.85362
21
-3.90524
0
LINE
8
BLACK
6
CONTINUOUS
10
5.85362
20
-3.90524
11
5.84117
21
-3.9107
0
LINE
8
BLACK
6
CONTINUOUS
10
5.84117
20
-3.9107
11
5.82817
21
-3.9147
0
LINE
8
BLACK
6
CONTINUOUS
10
5.82817
20
-3.9147
11
5.8148
21
-3.91718
0
LINE
8
BLACK
6
CONTINUOUS
10
5.8148
20
-3.91718
11
5.80124
21
-3.9181
0
LINE
8
BLACK
6
CONTINUOUS
10
5.80124
20
-3.9181
11
5.78765
21
-3.91746
0
LINE
8
BLACK
6
CONTINUOUS
10
5.78765
20
-3.91746
11
5.77424
21
-3.91527
0
LINE
8
BLACK
6
CONTINUOUS
10
5.77424
20
-3.91527
11
5.76116
21
-3.91154
0
LINE
8
BLACK
6
CONTINUOUS
10
5.76116
20
-3.91154
11
5.74859
21
-3.90634
0
LINE
8
BLACK
6
CONTINUOUS
10
5.74859
20
-3.90634
11
5.73671
21
-3.89972
0
LINE
8
BLACK
6
CONTINUOUS
10
5.73671
20
-3.89972
11
5.72567
21
-3.89179
0
LINE
8
BLACK
6
CONTINUOUS
10
5.72567
20
-3.89179
11
5.71561
21
-3.88264
0
LINE
8
BLACK
6
CONTINUOUS
10
5.71561
20
-3.88264
11
5.70667
21
-3.87239
0
LINE
8
BLACK
6
CONTINUOUS
10
5.70667
20
-3.87239
11
5.69897
21
-3.86118
0
LINE
8
BLACK
6
CONTINUOUS
10
5.69897
20
-3.86118
11
5.69261
21
-3.84917
0
LINE
8
BLACK
6
CONTINUOUS
10
5.69261
20
-3.84917
11
5.68767
21
-3.8365
0
LINE
8
BLACK
6
CONTINUOUS
10
5.68767
20
-3.8365
11
5.68422
21
-3.82335
0
LINE
8
BLACK
6
CONTINUOUS
10
5.68422
20
-3.82335
11
5.6823
21
-3.80988
0
LINE
8
BLACK
6
CONTINUOUS
10
5.6823
20
-3.80988
11
5.68195
21
-3.79629
0
LINE
8
BLACK
6
CONTINUOUS
10
5.68195
20
-3.79629
11
5.68316
21
-3.78275
0
LINE
8
BLACK
6
CONTINUOUS
10
5.68316
20
-3.78275
11
5.68591
21
-3.76943
0
LINE
8
BLACK
6
CONTINUOUS
10
5.68591
20
-3.76943
11
5.69018
21
-3.75652
0
LINE
8
BLACK
6
CONTINUOUS
10
5.69018
20
-3.75652
11
5.69591
21
-3.74419
0
LINE
8
BLACK
6
CONTINUOUS
10
5.69591
20
-3.74419
11
5.70301
21
-3.73259
0
LINE
8
BLACK
6
CONTINUOUS
10
5.70301
20
-3.73259
11
5.7114
21
-3.72189
0
LINE
8
BLACK
6
CONTINUOUS
10
5.7114
20
-3.72189
11
5.72097
21
-3.71223
0
LINE
8
BLACK
6
CONTINUOUS
10
5.72097
20
-3.71223
11
5.73158
21
-3.70373
0
LINE
8
BLACK
6
CONTINUOUS
10
5.73158
20
-3.70373
11
5.7431
21
-3.6965
0
LINE
8
BLACK
6
CONTINUOUS
10
5.7431
20
-3.6965
11
5.75537
21
-3.69065
0
LINE
8
BLACK
6
CONTINUOUS
10
5.75537
20
-3.69065
11
5.76824
21
-3.68624
0
LINE
8
BLACK
6
CONTINUOUS
10
5.76824
20
-3.68624
11
5.78152
21
-3.68334
0
LINE
8
BLACK
6
CONTINUOUS
10
5.78152
20
-3.68334
11
5.79505
21
-3.68199
0
LINE
8
BLACK
6
CONTINUOUS
10
5.79505
20
-3.68199
11
5.80865
21
-3.68221
0
LINE
8
BLACK
6
CONTINUOUS
10
5.47621
20
-3.63221
11
5.4794
21
-3.63434
0
LINE
8
BLACK
6
CONTINUOUS
10
5.4794
20
-3.63434
11
5.48153
21
-3.63753
0
LINE
8
BLACK
6
CONTINUOUS
10
5.48153
20
-3.63753
11
5.48228
21
-3.6413
0
LINE
8
BLACK
6
CONTINUOUS
10
5.48228
20
-3.6413
11
5.48228
21
-3.6787
0
LINE
8
BLACK
6
CONTINUOUS
10
5.48228
20
-3.6787
11
5.48153
21
-3.68247
0
LINE
8
BLACK
6
CONTINUOUS
10
5.48153
20
-3.68247
11
5.4794
21
-3.68566
0
LINE
8
BLACK
6
CONTINUOUS
10
5.4794
20
-3.68566
11
5.47621
21
-3.68779
0
LINE
8
BLACK
6
CONTINUOUS
10
5.47621
20
-3.68779
11
5.47244
21
-3.68854
0
LINE
8
BLACK
6
CONTINUOUS
10
5.47244
20
-3.68854
11
5.45276
21
-3.68854
0
LINE
8
BLACK
6
CONTINUOUS
10
5.45276
20
-3.68854
11
5.44899
21
-3.68779
0
LINE
8
BLACK
6
CONTINUOUS
10
5.44899
20
-3.68779
11
5.4458
21
-3.68566
0
LINE
8
BLACK
6
CONTINUOUS
10
5.4458
20
-3.68566
11
5.44366
21
-3.68247
0
LINE
8
BLACK
6
CONTINUOUS
10
5.44366
20
-3.68247
11
5.44291
21
-3.6787
0
LINE
8
BLACK
6
CONTINUOUS
10
5.44291
20
-3.6787
11
5.44291
21
-3.6413
0
LINE
8
BLACK
6
CONTINUOUS
10
5.44291
20
-3.6413
11
5.44366
21
-3.63753
0
LINE
8
BLACK
6
CONTINUOUS
10
5.44366
20
-3.63753
11
5.4458
21
-3.63434
0
LINE
8
BLACK
6
CONTINUOUS
10
5.4458
20
-3.63434
11
5.44899
21
-3.63221
0
LINE
8
BLACK
6
CONTINUOUS
10
5.44899
20
-3.63221
11
5.45276
21
-3.63146
0
LINE
8
BLACK
6
CONTINUOUS
10
5.45276
20
-3.63146
11
5.47244
21
-3.63146
0
LINE
8
BLACK
6
CONTINUOUS
10
5.47244
20
-3.63146
11
5.47621
21
-3.63221
0
LINE
8
BLACK
6
CONTINUOUS
10
5.55101
20
-3.63221
11
5.5542
21
-3.63434
0
LINE
8
BLACK
6
CONTINUOUS
10
5.5542
20
-3.63434
11
5.55634
21
-3.63753
0
LINE
8
BLACK
6
CONTINUOUS
10
5.55634
20
-3.63753
11
5.55709
21
-3.6413
0
LINE
8
BLACK
6
CONTINUOUS
10
5.55709
20
-3.6413
11
5.55709
21
-3.6787
0
LINE
8
BLACK
6
CONTINUOUS
10
5.55709
20
-3.6787
11
5.55634
21
-3.68247
0
LINE
8
BLACK
6
CONTINUOUS
10
5.55634
20
-3.68247
11
5.5542
21
-3.68566
0
LINE
8
BLACK
6
CONTINUOUS
10
5.5542
20
-3.68566
11
5.55101
21
-3.68779
0
LINE
8
BLACK
6
CONTINUOUS
10
5.55101
20
-3.68779
11
5.54724
21
-3.68854
0
LINE
8
BLACK
6
CONTINUOUS
10
5.54724
20
-3.68854
11
5.52756
21
-3.68854
0
LINE
8
BLACK
6
CONTINUOUS
10
5.52756
20
-3.68854
11
5.52379
21
-3.68779
0
LINE
8
BLACK
6
CONTINUOUS
10
5.52379
20
-3.68779
11
5.5206
21
-3.68566
0
LINE
8
BLACK
6
CONTINUOUS
10
5.5206
20
-3.68566
11
5.51847
21
-3.68247
0
LINE
8
BLACK
6
CONTINUOUS
10
5.51847
20
-3.68247
11
5.51772
21
-3.6787
0
LINE
8
BLACK
6
CONTINUOUS
10
5.51772
20
-3.6787
11
5.51772
21
-3.6413
0
LINE
8
BLACK
6
CONTINUOUS
10
5.51772
20
-3.6413
11
5.51847
21
-3.63753
0
LINE
8
BLACK
6
CONTINUOUS
10
5.51847
20
-3.63753
11
5.5206
21
-3.63434
0
LINE
8
BLACK
6
CONTINUOUS
10
5.5206
20
-3.63434
11
5.52379
21
-3.63221
0
LINE
8
BLACK
6
CONTINUOUS
10
5.52379
20
-3.63221
11
5.52756
21
-3.63146
0
LINE
8
BLACK
6
CONTINUOUS
10
5.52756
20
-3.63146
11
5.54724
21
-3.63146
0
LINE
8
BLACK
6
CONTINUOUS
10
5.54724
20
-3.63146
11
5.55101
21
-3.63221
0
LINE
8
BLACK
6
CONTINUOUS
10
5.47881
20
-3.54221
11
5.482
21
-3.54434
0
LINE
8
BLACK
6
CONTINUOUS
10
5.482
20
-3.54434
11
5.48413
21
-3.54753
0
LINE
8
BLACK
6
CONTINUOUS
10
5.48413
20
-3.54753
11
5.48488
21
-3.5513
0
LINE
8
BLACK
6
CONTINUOUS
10
5.48488
20
-3.5513
11
5.48488
21
-3.5887
0
LINE
8
BLACK
6
CONTINUOUS
10
5.48488
20
-3.5887
11
5.48413
21
-3.59247
0
LINE
8
BLACK
6
CONTINUOUS
10
5.48413
20
-3.59247
11
5.482
21
-3.59566
0
LINE
8
BLACK
6
CONTINUOUS
10
5.482
20
-3.59566
11
5.47881
21
-3.59779
0
LINE
8
BLACK
6
CONTINUOUS
10
5.47881
20
-3.59779
11
5.47504
21
-3.59854
0
LINE
8
BLACK
6
CONTINUOUS
10
5.47504
20
-3.59854
11
5.45535
21
-3.59854
0
LINE
8
BLACK
6
CONTINUOUS
10
5.45535
20
-3.59854
11
5.45159
21
-3.59779
0
LINE
8
BLACK
6
CONTINUOUS
10
5.45159
20
-3.59779
11
5.44839
21
-3.59566
0
LINE
8
BLACK
6
CONTINUOUS
10
5.44839
20
-3.59566
11
5.44626
21
-3.59247
0
LINE
8
BLACK
6
CONTINUOUS
10
5.44626
20
-3.59247
11
5.44551
21
-3.5887
0
LINE
8
BLACK
6
CONTINUOUS
10
5.44551
20
-3.5887
11
5.44551
21
-3.5513
0
LINE
8
BLACK
6
CONTINUOUS
10
5.44551
20
-3.5513
11
5.44626
21
-3.54753
0
LINE
8
BLACK
6
CONTINUOUS
10
5.44626
20
-3.54753
11
5.44839
21
-3.54434
0
LINE
8
BLACK
6
CONTINUOUS
10
5.44839
20
-3.54434
11
5.45159
21
-3.54221
0
LINE
8
BLACK
6
CONTINUOUS
10
5.45159
20
-3.54221
11
5.45535
21
-3.54146
0
LINE
8
BLACK
6
CONTINUOUS
10
5.45535
20
-3.54146
11
5.47504
21
-3.54146
0
LINE
8
BLACK
6
CONTINUOUS
10
5.47504
20
-3.54146
11
5.47881
21
-3.54221
0
LINE
8
BLACK
6
CONTINUOUS
10
5.55361
20
-3.54221
11
5.5568
21
-3.54434
0
LINE
8
BLACK
6
CONTINUOUS
10
5.5568
20
-3.54434
11
5.55894
21
-3.54753
0
LINE
8
BLACK
6
CONTINUOUS
10
5.55894
20
-3.54753
11
5.55969
21
-3.5513
0
LINE
8
BLACK
6
CONTINUOUS
10
5.55969
20
-3.5513
11
5.55969
21
-3.5887
0
LINE
8
BLACK
6
CONTINUOUS
10
5.55969
20
-3.5887
11
5.55894
21
-3.59247
0
LINE
8
BLACK
6
CONTINUOUS
10
5.55894
20
-3.59247
11
5.5568
21
-3.59566
0
LINE
8
BLACK
6
CONTINUOUS
10
5.5568
20
-3.59566
11
5.55361
21
-3.59779
0
LINE
8
BLACK
6
CONTINUOUS
10
5.55361
20
-3.59779
11
5.54984
21
-3.59854
0
LINE
8
BLACK
6
CONTINUOUS
10
5.54984
20
-3.59854
11
5.53016
21
-3.59854
0
LINE
8
BLACK
6
CONTINUOUS
10
5.53016
20
-3.59854
11
5.52639
21
-3.59779
0
LINE
8
BLACK
6
CONTINUOUS
10
5.52639
20
-3.59779
11
5.5232
21
-3.59566
0
LINE
8
BLACK
6
CONTINUOUS
10
5.5232
20
-3.59566
11
5.52106
21
-3.59247
0
LINE
8
BLACK
6
CONTINUOUS
10
5.52106
20
-3.59247
11
5.52031
21
-3.5887
0
LINE
8
BLACK
6
CONTINUOUS
10
5.52031
20
-3.5887
11
5.52031
21
-3.5513
0
LINE
8
BLACK
6
CONTINUOUS
10
5.52031
20
-3.5513
11
5.52106
21
-3.54753
0
LINE
8
BLACK
6
CONTINUOUS
10
5.52106
20
-3.54753
11
5.5232
21
-3.54434
0
LINE
8
BLACK
6
CONTINUOUS
10
5.5232
20
-3.54434
11
5.52639
21
-3.54221
0
LINE
8
BLACK
6
CONTINUOUS
10
5.52639
20
-3.54221
11
5.53016
21
-3.54146
0
LINE
8
BLACK
6
CONTINUOUS
10
5.53016
20
-3.54146
11
5.54984
21
-3.54146
0
LINE
8
BLACK
6
CONTINUOUS
10
5.54984
20
-3.54146
11
5.55361
21
-3.54221
0
LINE
8
BLACK
6
CONTINUOUS
10
5.88
20
-3.58
11
5.82
21
-3.58
0
LINE
8
BLACK
6
CONTINUOUS
10
5.82
20
-3.58
11
5.82
21
-3.52
0
LINE
8
BLACK
6
CONTINUOUS
10
5.82
20
-3.52
11
5.88
21
-3.52
0
LINE
8
BLACK
6
CONTINUOUS
10
5.88
20
-3.52
11
5.88
21
-3.58
0
LINE
8
BLACK
6
CONTINUOUS
10
5.78
20
-3.58
11
5.72
21
-3.58
0
LINE
8
BLACK
6
CONTINUOUS
10
5.72
20
-3.58
11
5.72
21
-3.52
0
LINE
8
BLACK
6
CONTINUOUS
10
5.72
20
-3.52
11
5.78
21
-3.52
0
LINE
8
BLACK
6
CONTINUOUS
10
5.78
20
-3.52
11
5.78
21
-3.58
0
LINE
8
BLACK
6
CONTINUOUS
10
4.98
20
-3.53
11
4.92
21
-3.53
0
LINE
8
BLACK
6
CONTINUOUS
10
4.92
20
-3.53
11
4.92
21
-3.47
0
LINE
8
BLACK
6
CONTINUOUS
10
4.92
20
-3.47
11
4.98
21
-3.47
0
LINE
8
BLACK
6
CONTINUOUS
10
4.98
20
-3.47
11
4.98
21
-3.53
0
LINE
8
BLACK
6
CONTINUOUS
10
5.08
20
-3.53
11
5.02
21
-3.53
0
LINE
8
BLACK
6
CONTINUOUS
10
5.02
20
-3.53
11
5.02
21
-3.47
0
LINE
8
BLACK
6
CONTINUOUS
10
5.02
20
-3.47
11
5.08
21
-3.47
0
LINE
8
BLACK
6
CONTINUOUS
10
5.08
20
-3.47
11
5.08
21
-3.53
0
LINE
8
BLACK
6
CONTINUOUS
10
5.57717
20
-3.4878
11
5.5122
21
-3.4878
0
LINE
8
BLACK
6
CONTINUOUS
10
5.5122
20
-3.4878
11
5.5122
21
-3.4622
0
LINE
8
BLACK
6
CONTINUOUS
10
5.5122
20
-3.4622
11
5.57717
21
-3.4622
0
LINE
8
BLACK
6
CONTINUOUS
10
5.57717
20
-3.4622
11
5.57717
21
-3.4878
0
LINE
8
BLACK
6
CONTINUOUS
10
5.2878
20
-3.4878
11
5.22283
21
-3.4878
0
LINE
8
BLACK
6
CONTINUOUS
10
5.22283
20
-3.4878
11
5.22283
21
-3.4622
0
LINE
8
BLACK
6
CONTINUOUS
10
5.22283
20
-3.4622
11
5.2878
21
-3.4622
0
LINE
8
BLACK
6
CONTINUOUS
10
5.2878
20
-3.4622
11
5.2878
21
-3.4878
0
LINE
8
BLACK
6
CONTINUOUS
10
5.78
20
-3.48
11
5.72
21
-3.48
0
LINE
8
BLACK
6
CONTINUOUS
10
5.72
20
-3.48
11
5.72
21
-3.42
0
LINE
8
BLACK
6
CONTINUOUS
10
5.72
20
-3.42
11
5.78
21
-3.42
0
LINE
8
BLACK
6
CONTINUOUS
10
5.78
20
-3.42
11
5.78
21
-3.48
0
LINE
8
BLACK
6
CONTINUOUS
10
5.88
20
-3.48
11
5.82
21
-3.48
0
LINE
8
BLACK
6
CONTINUOUS
10
5.82
20
-3.48
11
5.82
21
-3.42
0
LINE
8
BLACK
6
CONTINUOUS
10
5.82
20
-3.42
11
5.88
21
-3.42
0
LINE
8
BLACK
6
CONTINUOUS
10
5.88
20
-3.42
11
5.88
21
-3.48
0
LINE
8
BLACK
6
CONTINUOUS
10
5.2878
20
-3.4378
11
5.22283
21
-3.4378
0
LINE
8
BLACK
6
CONTINUOUS
10
5.22283
20
-3.4378
11
5.22283
21
-3.4122
0
LINE
8
BLACK
6
CONTINUOUS
10
5.22283
20
-3.4122
11
5.2878
21
-3.4122
0
LINE
8
BLACK
6
CONTINUOUS
10
5.2878
20
-3.4122
11
5.2878
21
-3.4378
0
LINE
8
BLACK
6
CONTINUOUS
10
5.57717
20
-3.4378
11
5.5122
21
-3.4378
0
LINE
8
BLACK
6
CONTINUOUS
10
5.5122
20
-3.4378
11
5.5122
21
-3.4122
0
LINE
8
BLACK
6
CONTINUOUS
10
5.5122
20
-3.4122
11
5.57717
21
-3.4122
0
LINE
8
BLACK
6
CONTINUOUS
10
5.57717
20
-3.4122
11
5.57717
21
-3.4378
0
LINE
8
BLACK
6
CONTINUOUS
10
5.08
20
-3.43
11
5.02
21
-3.43
0
LINE
8
BLACK
6
CONTINUOUS
10
5.02
20
-3.43
11
5.02
21
-3.37
0
LINE
8
BLACK
6
CONTINUOUS
10
5.02
20
-3.37
11
5.08
21
-3.37
0
LINE
8
BLACK
6
CONTINUOUS
10
5.08
20
-3.37
11
5.08
21
-3.43
0
LINE
8
BLACK
6
CONTINUOUS
10
4.98
20
-3.43
11
4.92
21
-3.43
0
LINE
8
BLACK
6
CONTINUOUS
10
4.92
20
-3.43
11
4.92
21
-3.37
0
LINE
8
BLACK
6
CONTINUOUS
10
4.92
20
-3.37
11
4.98
21
-3.37
0
LINE
8
BLACK
6
CONTINUOUS
10
4.98
20
-3.37
11
4.98
21
-3.43
0
LINE
8
BLACK
6
CONTINUOUS
10
5.2878
20
-3.3878
11
5.22283
21
-3.3878
0
LINE
8
BLACK
6
CONTINUOUS
10
5.22283
20
-3.3878
11
5.22283
21
-3.3622
0
LINE
8
BLACK
6
CONTINUOUS
10
5.22283
20
-3.3622
11
5.2878
21
-3.3622
0
LINE
8
BLACK
6
CONTINUOUS
10
5.2878
20
-3.3622
11
5.2878
21
-3.3878
0
LINE
8
BLACK
6
CONTINUOUS
10
5.57717
20
-3.3878
11
5.5122
21
-3.3878
0
LINE
8
BLACK
6
CONTINUOUS
10
5.5122
20
-3.3878
11
5.5122
21
-3.3622
0
LINE
8
BLACK
6
CONTINUOUS
10
5.5122
20
-3.3622
11
5.57717
21
-3.3622
0
LINE
8
BLACK
6
CONTINUOUS
10
5.57717
20
-3.3622
11
5.57717
21
-3.3878
0
LINE
8
BLACK
6
CONTINUOUS
10
5.88
20
-3.38
11
5.82
21
-3.38
0
LINE
8
BLACK
6
CONTINUOUS
10
5.82
20
-3.38
11
5.82
21
-3.32
0
LINE
8
BLACK
6
CONTINUOUS
10
5.82
20
-3.32
11
5.88
21
-3.32
0
LINE
8
BLACK
6
CONTINUOUS
10
5.88
20
-3.32
11
5.88
21
-3.38
0
LINE
8
BLACK
6
CONTINUOUS
10
5.78
20
-3.38
11
5.72
21
-3.38
0
LINE
8
BLACK
6
CONTINUOUS
10
5.72
20
-3.38
11
5.72
21
-3.32
0
LINE
8
BLACK
6
CONTINUOUS
10
5.72
20
-3.32
11
5.78
21
-3.32
0
LINE
8
BLACK
6
CONTINUOUS
10
5.78
20
-3.32
11
5.78
21
-3.38
0
LINE
8
BLACK
6
CONTINUOUS
10
5.2878
20
-3.3378
11
5.22283
21
-3.3378
0
LINE
8
BLACK
6
CONTINUOUS
10
5.22283
20
-3.3378
11
5.22283
21
-3.3122
0
LINE
8
BLACK
6
CONTINUOUS
10
5.22283
20
-3.3122
11
5.2878
21
-3.3122
0
LINE
8
BLACK
6
CONTINUOUS
10
5.2878
20
-3.3122
11
5.2878
21
-3.3378
0
LINE
8
BLACK
6
CONTINUOUS
10
5.57717
20
-3.3378
11
5.5122
21
-3.3378
0
LINE
8
BLACK
6
CONTINUOUS
10
5.5122
20
-3.3378
11
5.5122
21
-3.3122
0
LINE
8
BLACK
6
CONTINUOUS
10
5.5122
20
-3.3122
11
5.57717
21
-3.3122
0
LINE
8
BLACK
6
CONTINUOUS
10
5.57717
20
-3.3122
11
5.57717
21
-3.3378
0
LINE
8
BLACK
6
CONTINUOUS
10
5.08
20
-3.33
11
5.02
21
-3.33
0
LINE
8
BLACK
6
CONTINUOUS
10
5.02
20
-3.33
11
5.02
21
-3.27
0
LINE
8
BLACK
6
CONTINUOUS
10
5.02
20
-3.27
11
5.08
21
-3.27
0
LINE
8
BLACK
6
CONTINUOUS
10
5.08
20
-3.27
11
5.08
21
-3.33
0
LINE
8
BLACK
6
CONTINUOUS
10
4.98
20
-3.33
11
4.92
21
-3.33
0
LINE
8
BLACK
6
CONTINUOUS
10
4.92
20
-3.33
11
4.92
21
-3.27
0
LINE
8
BLACK
6
CONTINUOUS
10
4.92
20
-3.27
11
4.98
21
-3.27
0
LINE
8
BLACK
6
CONTINUOUS
10
4.98
20
-3.27
11
4.98
21
-3.33
0
LINE
8
BLACK
6
CONTINUOUS
10
5.88
20
-3.28
11
5.82
21
-3.28
0
LINE
8
BLACK
6
CONTINUOUS
10
5.82
20
-3.28
11
5.82
21
-3.22
0
LINE
8
BLACK
6
CONTINUOUS
10
5.82
20
-3.22
11
5.88
21
-3.22
0
LINE
8
BLACK
6
CONTINUOUS
10
5.88
20
-3.22
11
5.88
21
-3.28
0
LINE
8
BLACK
6
CONTINUOUS
10
5.78
20
-3.28
11
5.72
21
-3.28
0
LINE
8
BLACK
6
CONTINUOUS
10
5.72
20
-3.28
11
5.72
21
-3.22
0
LINE
8
BLACK
6
CONTINUOUS
10
5.72
20
-3.22
11
5.78
21
-3.22
0
LINE
8
BLACK
6
CONTINUOUS
10
5.78
20
-3.22
11
5.78
21
-3.28
0
LINE
8
BLACK
6
CONTINUOUS
10
5.00865
20
-2.88221
11
5.02213
21
-2.88398
0
LINE
8
BLACK
6
CONTINUOUS
10
5.02213
20
-2.88398
11
5.03532
21
-2.88729
0
LINE
8
BLACK
6
CONTINUOUS
10
5.03532
20
-2.88729
11
5.04804
21
-2.8921
0
LINE
8
BLACK
6
CONTINUOUS
10
5.04804
20
-2.8921
11
5.06012
21
-2.89834
0
LINE
8
BLACK
6
CONTINUOUS
10
5.06012
20
-2.89834
11
5.07141
21
-2.90592
0
LINE
8
BLACK
6
CONTINUOUS
10
5.07141
20
-2.90592
11
5.08175
21
-2.91475
0
LINE
8
BLACK
6
CONTINUOUS
10
5.08175
20
-2.91475
11
5.09101
21
-2.92471
0
LINE
8
BLACK
6
CONTINUOUS
10
5.09101
20
-2.92471
11
5.09906
21
-2.93567
0
LINE
8
BLACK
6
CONTINUOUS
10
5.09906
20
-2.93567
11
5.10579
21
-2.94748
0
LINE
8
BLACK
6
CONTINUOUS
10
5.10579
20
-2.94748
11
5.11113
21
-2.95999
0
LINE
8
BLACK
6
CONTINUOUS
10
5.11113
20
-2.95999
11
5.11499
21
-2.97303
0
LINE
8
BLACK
6
CONTINUOUS
10
5.11499
20
-2.97303
11
5.11733
21
-2.98642
0
LINE
8
BLACK
6
CONTINUOUS
10
5.11733
20
-2.98642
11
5.11811
21
-3
0
LINE
8
BLACK
6
CONTINUOUS
10
5.11811
20
-3
11
5.11788
21
-3.00742
0
LINE
8
BLACK
6
CONTINUOUS
10
5.11788
20
-3.00742
11
5.11624
21
-3.02092
0
LINE
8
BLACK
6
CONTINUOUS
10
5.11624
20
-3.02092
11
5.11307
21
-3.03414
0
LINE
8
BLACK
6
CONTINUOUS
10
5.11307
20
-3.03414
11
5.1084
21
-3.04691
0
LINE
8
BLACK
6
CONTINUOUS
10
5.1084
20
-3.04691
11
5.10229
21
-3.05906
0
LINE
8
BLACK
6
CONTINUOUS
10
5.10229
20
-3.05906
11
5.09482
21
-3.07042
0
LINE
8
BLACK
6
CONTINUOUS
10
5.09482
20
-3.07042
11
5.0861
21
-3.08085
0
LINE
8
BLACK
6
CONTINUOUS
10
5.0861
20
-3.08085
11
5.07624
21
-3.09021
0
LINE
8
BLACK
6
CONTINUOUS
10
5.07624
20
-3.09021
11
5.06536
21
-3.09838
0
LINE
8
BLACK
6
CONTINUOUS
10
5.06536
20
-3.09838
11
5.05362
21
-3.10524
0
LINE
8
BLACK
6
CONTINUOUS
10
5.05362
20
-3.10524
11
5.04117
21
-3.1107
0
LINE
8
BLACK
6
CONTINUOUS
10
5.04117
20
-3.1107
11
5.02817
21
-3.1147
0
LINE
8
BLACK
6
CONTINUOUS
10
5.02817
20
-3.1147
11
5.0148
21
-3.11718
0
LINE
8
BLACK
6
CONTINUOUS
10
5.0148
20
-3.11718
11
5.00124
21
-3.1181
0
LINE
8
BLACK
6
CONTINUOUS
10
5.00124
20
-3.1181
11
4.98765
21
-3.11746
0
LINE
8
BLACK
6
CONTINUOUS
10
4.98765
20
-3.11746
11
4.97424
21
-3.11527
0
LINE
8
BLACK
6
CONTINUOUS
10
4.97424
20
-3.11527
11
4.96116
21
-3.11154
0
LINE
8
BLACK
6
CONTINUOUS
10
4.96116
20
-3.11154
11
4.94859
21
-3.10634
0
LINE
8
BLACK
6
CONTINUOUS
10
4.94859
20
-3.10634
11
4.93671
21
-3.09972
0
LINE
8
BLACK
6
CONTINUOUS
10
4.93671
20
-3.09972
11
4.92567
21
-3.09179
0
LINE
8
BLACK
6
CONTINUOUS
10
4.92567
20
-3.09179
11
4.91561
21
-3.08264
0
LINE
8
BLACK
6
CONTINUOUS
10
4.91561
20
-3.08264
11
4.90667
21
-3.07239
0
LINE
8
BLACK
6
CONTINUOUS
10
4.90667
20
-3.07239
11
4.89897
21
-3.06118
0
LINE
8
BLACK
6
CONTINUOUS
10
4.89897
20
-3.06118
11
4.89261
21
-3.04917
0
LINE
8
BLACK
6
CONTINUOUS
10
4.89261
20
-3.04917
11
4.88767
21
-3.0365
0
LINE
8
BLACK
6
CONTINUOUS
10
4.88767
20
-3.0365
11
4.88422
21
-3.02335
0
LINE
8
BLACK
6
CONTINUOUS
10
4.88422
20
-3.02335
11
4.8823
21
-3.00988
0
LINE
8
BLACK
6
CONTINUOUS
10
4.8823
20
-3.00988
11
4.88195
21
-2.99629
0
LINE
8
BLACK
6
CONTINUOUS
10
4.88195
20
-2.99629
11
4.88316
21
-2.98275
0
LINE
8
BLACK
6
CONTINUOUS
10
4.88316
20
-2.98275
11
4.88591
21
-2.96943
0
LINE
8
BLACK
6
CONTINUOUS
10
4.88591
20
-2.96943
11
4.89018
21
-2.95652
0
LINE
8
BLACK
6
CONTINUOUS
10
4.89018
20
-2.95652
11
4.89591
21
-2.94419
0
LINE
8
BLACK
6
CONTINUOUS
10
4.89591
20
-2.94419
11
4.90301
21
-2.93259
0
LINE
8
BLACK
6
CONTINUOUS
10
4.90301
20
-2.93259
11
4.9114
21
-2.92189
0
LINE
8
BLACK
6
CONTINUOUS
10
4.9114
20
-2.92189
11
4.92097
21
-2.91223
0
LINE
8
BLACK
6
CONTINUOUS
10
4.92097
20
-2.91223
11
4.93158
21
-2.90373
0
LINE
8
BLACK
6
CONTINUOUS
10
4.93158
20
-2.90373
11
4.9431
21
-2.8965
0
LINE
8
BLACK
6
CONTINUOUS
10
4.9431
20
-2.8965
11
4.95537
21
-2.89065
0
LINE
8
BLACK
6
CONTINUOUS
10
4.95537
20
-2.89065
11
4.96824
21
-2.88624
0
LINE
8
BLACK
6
CONTINUOUS
10
4.96824
20
-2.88624
11
4.98152
21
-2.88334
0
LINE
8
BLACK
6
CONTINUOUS
10
4.98152
20
-2.88334
11
4.99505
21
-2.88199
0
LINE
8
BLACK
6
CONTINUOUS
10
4.99505
20
-2.88199
11
5.00865
21
-2.88221
0
LINE
8
BLACK
6
CONTINUOUS
10
5.80865
20
-2.88221
11
5.82213
21
-2.88398
0
LINE
8
BLACK
6
CONTINUOUS
10
5.82213
20
-2.88398
11
5.83532
21
-2.88729
0
LINE
8
BLACK
6
CONTINUOUS
10
5.83532
20
-2.88729
11
5.84804
21
-2.8921
0
LINE
8
BLACK
6
CONTINUOUS
10
5.84804
20
-2.8921
11
5.86012
21
-2.89834
0
LINE
8
BLACK
6
CONTINUOUS
10
5.86012
20
-2.89834
11
5.87141
21
-2.90592
0
LINE
8
BLACK
6
CONTINUOUS
10
5.87141
20
-2.90592
11
5.88175
21
-2.91475
0
LINE
8
BLACK
6
CONTINUOUS
10
5.88175
20
-2.91475
11
5.89101
21
-2.92471
0
LINE
8
BLACK
6
CONTINUOUS
10
5.89101
20
-2.92471
11
5.89906
21
-2.93567
0
LINE
8
BLACK
6
CONTINUOUS
10
5.89906
20
-2.93567
11
5.90579
21
-2.94748
0
LINE
8
BLACK
6
CONTINUOUS
10
5.90579
20
-2.94748
11
5.91113
21
-2.95999
0
LINE
8
BLACK
6
CONTINUOUS
10
5.91113
20
-2.95999
11
5.91499
21
-2.97303
0
LINE
8
BLACK
6
CONTINUOUS
10
5.91499
20
-2.97303
11
5.91733
21
-2.98642
0
LINE
8
BLACK
6
CONTINUOUS
10
5.91733
20
-2.98642
11
5.91811
21
-3
0
LINE
8
BLACK
6
CONTINUOUS
10
5.91811
20
-3
11
5.91788
21
-3.00742
0
LINE
8
BLACK
6
CONTINUOUS
10
5.91788
20
-3.00742
11
5.91624
21
-3.02092
0
LINE
8
BLACK
6
CONTINUOUS
10
5.91624
20
-3.02092
11
5.91307
21
-3.03414
0
LINE
8
BLACK
6
CONTINUOUS
10
5.91307
20
-3.03414
11
5.9084
21
-3.04691
0
LINE
8
BLACK
6
CONTINUOUS
10
5.9084
20
-3.04691
11
5.90229
21
-3.05906
0
LINE
8
BLACK
6
CONTINUOUS
10
5.90229
20
-3.05906
11
5.89482
21
-3.07042
0
LINE
8
BLACK
6
CONTINUOUS
10
5.89482
20
-3.07042
11
5.8861
21
-3.08085
0
LINE
8
BLACK
6
CONTINUOUS
10
5.8861
20
-3.08085
11
5.87624
21
-3.09021
0
LINE
8
BLACK
6
CONTINUOUS
10
5.87624
20
-3.09021
11
5.86536
21
-3.09838
0
LINE
8
BLACK
6
CONTINUOUS
10
5.86536
20
-3.09838
11
5.85362
21
-3.10524
0
LINE
8
BLACK
6
CONTINUOUS
10
5.85362
20
-3.10524
11
5.84117
21
-3.1107
0
LINE
8
BLACK
6
CONTINUOUS
10
5.84117
20
-3.1107
11
5.82817
21
-3.1147
0
LINE
8
BLACK
6
CONTINUOUS
10
5.82817
20
-3.1147
11
5.8148
21
-3.11718
0
LINE
8
BLACK
6
CONTINUOUS
10
5.8148
20
-3.11718
11
5.80124
21
-3.1181
0
LINE
8
BLACK
6
CONTINUOUS
10
5.80124
20
-3.1181
11
5.78765
21
-3.11746
0
LINE
8
BLACK
6
CONTINUOUS
10
5.78765
20
-3.11746
11
5.77424
21
-3.11527
0
LINE
8
BLACK
6
CONTINUOUS
10
5.77424
20
-3.11527
11
5.76116
21
-3.11154
0
LINE
8
BLACK
6
CONTINUOUS
10
5.76116
20
-3.11154
11
5.74859
21
-3.10634
0
LINE
8
BLACK
6
CONTINUOUS
10
5.74859
20
-3.10634
11
5.73671
21
-3.09972
0
LINE
8
BLACK
6
CONTINUOUS
10
5.73671
20
-3.09972
11
5.72567
21
-3.09179
0
LINE
8
BLACK
6
CONTINUOUS
10
5.72567
20
-3.09179
11
5.71561
21
-3.08264
0
LINE
8
BLACK
6
CONTINUOUS
10
5.71561
20
-3.08264
11
5.70667
21
-3.07239
0
LINE
8
BLACK
6
CONTINUOUS
10
5.70667
20
-3.07239
11
5.69897
21
-3.06118
0
LINE
8
BLACK
6
CONTINUOUS
10
5.69897
20
-3.06118
11
5.69261
21
-3.04917
0
LINE
8
BLACK
6
CONTINUOUS
10
5.69261
20
-3.04917
11
5.68767
21
-3.0365
0
LINE
8
BLACK
6
CONTINUOUS
10
5.68767
20
-3.0365
11
5.68422
21
-3.02335
0
LINE
8
BLACK
6
CONTINUOUS
10
5.68422
20
-3.02335
11
5.6823
21
-3.00988
0
LINE
8
BLACK
6
CONTINUOUS
10
5.6823
20
-3.00988
11
5.68195
21
-2.99629
0
LINE
8
BLACK
6
CONTINUOUS
10
5.68195
20
-2.99629
11
5.68316
21
-2.98275
0
LINE
8
BLACK
6
CONTINUOUS
10
5.68316
20
-2.98275
11
5.68591
21
-2.96943
0
LINE
8
BLACK
6
CONTINUOUS
10
5.68591
20
-2.96943
11
5.69018
21
-2.95652
0
LINE
8
BLACK
6
CONTINUOUS
10
5.69018
20
-2.95652
11
5.69591
21
-2.94419
0
LINE
8
BLACK
6
CONTINUOUS
10
5.69591
20
-2.94419
11
5.70301
21
-2.93259
0
LINE
8
BLACK
6
CONTINUOUS
10
5.70301
20
-2.93259
11
5.7114
21
-2.92189
0
LINE
8
BLACK
6
CONTINUOUS
10
5.7114
20
-2.92189
11
5.72097
21
-2.91223
0
LINE
8
BLACK
6
CONTINUOUS
10
5.72097
20
-2.91223
11
5.73158
21
-2.90373
0
LINE
8
BLACK
6
CONTINUOUS
10
5.73158
20
-2.90373
11
5.7431
21
-2.8965
0
LINE
8
BLACK
6
CONTINUOUS
10
5.7431
20
-2.8965
11
5.75537
21
-2.89065
0
LINE
8
BLACK
6
CONTINUOUS
10
5.75537
20
-2.89065
11
5.76824
21
-2.88624
0
LINE
8
BLACK
6
CONTINUOUS
10
5.76824
20
-2.88624
11
5.78152
21
-2.88334
0
LINE
8
BLACK
6
CONTINUOUS
10
5.78152
20
-2.88334
11
5.79505
21
-2.88199
0
LINE
8
BLACK
6
CONTINUOUS
10
5.79505
20
-2.88199
11
5.80865
21
-2.88221
0
LINE
8
BLACK
6
CONTINUOUS
10
5.37047
20
-3.10543
11
5.27205
21
-3.10543
0
LINE
8
BLACK
6
CONTINUOUS
10
5.27205
20
-3.10543
11
5.27205
21
-3.03457
0
LINE
8
BLACK
6
CONTINUOUS
10
5.27205
20
-3.03457
11
5.37047
21
-3.03457
0
LINE
8
BLACK
6
CONTINUOUS
10
5.37047
20
-3.03457
11
5.37047
21
-3.10543
0
LINE
8
BLACK
6
CONTINUOUS
10
5.52795
20
-3.10543
11
5.42953
21
-3.10543
0
LINE
8
BLACK
6
CONTINUOUS
10
5.42953
20
-3.10543
11
5.42953
21
-3.03457
0
LINE
8
BLACK
6
CONTINUOUS
10
5.42953
20
-3.03457
11
5.52795
21
-3.03457
0
LINE
8
BLACK
6
CONTINUOUS
10
5.52795
20
-3.03457
11
5.52795
21
-3.10543
  0
ENDSEC
  0
EOF
