  0
SECTION
  2
HEADER
  9
$ANGBASE
  50
0.0
  9
$ANGDIR
  70
1
  9
$MEASUREMENT
  70
0
  0
ENDSEC
  0
SECTION
  2
TABLES
  0
TABLE
  2
LTYPE
  70
4
  0
LTYPE
  5
40F
  2
CONTINUOUS
  70
0
  3
Solid line
  72
65
  73
0
  40
0.0
  0
LTYPE
  5
410
  2
DASHDOT
 70
0
  3
Dash Dot ____ _ ____ _
 72
65
 73
4
 40
2.0
 49
1.25
 49
-0.25
 49
0.25
 49
-0.25
  0
LTYPE
  5
411
  2
DASHED
 70
0
  3
Dashed __ __ __ __ __
 72
65
 73
2
 40
0.75
 49
0.5
 49
-0.25
  0
LTYPE
  5
43B
  2
DOTTED
 70
0
  3
Dotted .  .  .  .
 72
65
 73
2
 40
0.2
 49
0.0
 49
-0.2
  0
ENDTAB
  0
TABLE
  2
STYLE
  70
4
  0
STYLE
  2
KICAD
  70
0
  40
0
  41
1
  42
1
  50
0
  71
0
  3
isocp.shx
  0
STYLE
  2
KICADB
  70
0
  40
0
  41
1
  42
1
  50
0
  71
0
  3
isocp.shx
  0
STYLE
  2
KICADI
  70
0
  40
0
  41
1
  42
1
  50
15
  71
0
  3
isocp.shx
  0
STYLE
  2
KICADBI
  70
0
  40
0
  41
1
  42
1
  50
15
  71
0
  3
isocp.shx
  0
ENDTAB
  0
TABLE
  2
LAYER
  70
1
  0
LAYER
  2
BLACK
  70
0
  62
7
  6
CONTINUOUS
  0
ENDTAB
  0
ENDSEC
  0
SECTION
  2
ENTITIES
0
LINE
8
BLACK
6
CONTINUOUS
10
5.61196
20
-3.68727
11
5.61265
21
-3.68894
0
LINE
8
BLACK
6
CONTINUOUS
10
5.61265
20
-3.68894
11
5.61196
21
-3.69061
0
LINE
8
BLACK
6
CONTINUOUS
10
5.61196
20
-3.69061
11
5.61029
21
-3.6913
0
LINE
8
BLACK
6
CONTINUOUS
10
5.61029
20
-3.6913
11
5.58971
21
-3.6913
0
LINE
8
BLACK
6
CONTINUOUS
10
5.58971
20
-3.6913
11
5.58804
21
-3.69061
0
LINE
8
BLACK
6
CONTINUOUS
10
5.58804
20
-3.69061
11
5.58735
21
-3.68894
0
LINE
8
BLACK
6
CONTINUOUS
10
5.58735
20
-3.68894
11
5.58804
21
-3.68727
0
LINE
8
BLACK
6
CONTINUOUS
10
5.58804
20
-3.68727
11
5.58971
21
-3.68657
0
LINE
8
BLACK
6
CONTINUOUS
10
5.58971
20
-3.68657
11
5.61029
21
-3.68657
0
LINE
8
BLACK
6
CONTINUOUS
10
5.61029
20
-3.68657
11
5.61196
21
-3.68727
0
LINE
8
BLACK
6
CONTINUOUS
10
5.69097
20
-3.63571
11
5.69114
21
-3.6357
0
LINE
8
BLACK
6
CONTINUOUS
10
5.69114
20
-3.6357
11
5.69183
21
-3.63621
0
LINE
8
BLACK
6
CONTINUOUS
10
5.69183
20
-3.63621
11
5.69258
21
-3.63664
0
LINE
8
BLACK
6
CONTINUOUS
10
5.69258
20
-3.63664
11
5.69263
21
-3.6368
0
LINE
8
BLACK
6
CONTINUOUS
10
5.69263
20
-3.6368
11
5.69277
21
-3.6369
0
LINE
8
BLACK
6
CONTINUOUS
10
5.69277
20
-3.6369
11
5.69636
21
-3.64228
0
LINE
8
BLACK
6
CONTINUOUS
10
5.69636
20
-3.64228
11
5.69956
21
-3.64548
0
LINE
8
BLACK
6
CONTINUOUS
10
5.69956
20
-3.64548
11
5.70288
21
-3.64714
0
LINE
8
BLACK
6
CONTINUOUS
10
5.70288
20
-3.64714
11
5.70371
21
-3.64775
0
LINE
8
BLACK
6
CONTINUOUS
10
5.70371
20
-3.64775
11
5.70451
21
-3.64961
0
LINE
8
BLACK
6
CONTINUOUS
10
5.70451
20
-3.64961
11
5.70394
21
-3.65154
0
LINE
8
BLACK
6
CONTINUOUS
10
5.70394
20
-3.65154
11
5.70225
21
-3.65266
0
LINE
8
BLACK
6
CONTINUOUS
10
5.70225
20
-3.65266
11
5.70024
21
-3.65243
0
LINE
8
BLACK
6
CONTINUOUS
10
5.70024
20
-3.65243
11
5.69649
21
-3.65055
0
LINE
8
BLACK
6
CONTINUOUS
10
5.69649
20
-3.65055
11
5.69578
21
-3.65003
0
LINE
8
BLACK
6
CONTINUOUS
10
5.69578
20
-3.65003
11
5.69573
21
-3.65
0
LINE
8
BLACK
6
CONTINUOUS
10
5.69573
20
-3.65
11
5.69327
21
-3.64754
0
LINE
8
BLACK
6
CONTINUOUS
10
5.69327
20
-3.64754
11
5.69327
21
-3.67495
0
LINE
8
BLACK
6
CONTINUOUS
10
5.69327
20
-3.67495
11
5.70156
21
-3.67495
0
LINE
8
BLACK
6
CONTINUOUS
10
5.70156
20
-3.67495
11
5.70257
21
-3.67513
0
LINE
8
BLACK
6
CONTINUOUS
10
5.70257
20
-3.67513
11
5.70412
21
-3.67643
0
LINE
8
BLACK
6
CONTINUOUS
10
5.70412
20
-3.67643
11
5.70447
21
-3.67842
0
LINE
8
BLACK
6
CONTINUOUS
10
5.70447
20
-3.67842
11
5.70346
21
-3.68017
0
LINE
8
BLACK
6
CONTINUOUS
10
5.70346
20
-3.68017
11
5.70156
21
-3.68086
0
LINE
8
BLACK
6
CONTINUOUS
10
5.70156
20
-3.68086
11
5.67907
21
-3.68086
0
LINE
8
BLACK
6
CONTINUOUS
10
5.67907
20
-3.68086
11
5.67806
21
-3.68068
0
LINE
8
BLACK
6
CONTINUOUS
10
5.67806
20
-3.68068
11
5.67651
21
-3.67938
0
LINE
8
BLACK
6
CONTINUOUS
10
5.67651
20
-3.67938
11
5.67616
21
-3.67739
0
LINE
8
BLACK
6
CONTINUOUS
10
5.67616
20
-3.67739
11
5.67717
21
-3.67564
0
LINE
8
BLACK
6
CONTINUOUS
10
5.67717
20
-3.67564
11
5.67907
21
-3.67495
0
LINE
8
BLACK
6
CONTINUOUS
10
5.67907
20
-3.67495
11
5.68736
21
-3.67495
0
LINE
8
BLACK
6
CONTINUOUS
10
5.68736
20
-3.67495
11
5.68736
21
-3.63854
0
LINE
8
BLACK
6
CONTINUOUS
10
5.68736
20
-3.63854
11
5.68754
21
-3.63753
0
LINE
8
BLACK
6
CONTINUOUS
10
5.68754
20
-3.63753
11
5.68765
21
-3.6374
0
LINE
8
BLACK
6
CONTINUOUS
10
5.68765
20
-3.6374
11
5.68767
21
-3.63723
0
LINE
8
BLACK
6
CONTINUOUS
10
5.68767
20
-3.63723
11
5.68829
21
-3.63664
0
LINE
8
BLACK
6
CONTINUOUS
10
5.68829
20
-3.63664
11
5.68884
21
-3.63598
0
LINE
8
BLACK
6
CONTINUOUS
10
5.68884
20
-3.63598
11
5.68901
21
-3.63595
0
LINE
8
BLACK
6
CONTINUOUS
10
5.68901
20
-3.63595
11
5.68913
21
-3.63583
0
LINE
8
BLACK
6
CONTINUOUS
10
5.68913
20
-3.63583
11
5.68998
21
-3.63578
0
LINE
8
BLACK
6
CONTINUOUS
10
5.68998
20
-3.63578
11
5.69083
21
-3.63563
0
LINE
8
BLACK
6
CONTINUOUS
10
5.69083
20
-3.63563
11
5.69097
21
-3.63571
0
LINE
8
BLACK
6
CONTINUOUS
10
5.72868
20
-3.63574
11
5.72874
21
-3.63573
0
LINE
8
BLACK
6
CONTINUOUS
10
5.72874
20
-3.63573
11
5.73437
21
-3.63761
0
LINE
8
BLACK
6
CONTINUOUS
10
5.73437
20
-3.63761
11
5.73527
21
-3.6381
0
LINE
8
BLACK
6
CONTINUOUS
10
5.73527
20
-3.6381
11
5.73536
21
-3.63825
0
LINE
8
BLACK
6
CONTINUOUS
10
5.73536
20
-3.63825
11
5.73552
21
-3.63832
0
LINE
8
BLACK
6
CONTINUOUS
10
5.73552
20
-3.63832
11
5.73927
21
-3.64207
0
LINE
8
BLACK
6
CONTINUOUS
10
5.73927
20
-3.64207
11
5.73978
21
-3.6428
0
LINE
8
BLACK
6
CONTINUOUS
10
5.73978
20
-3.6428
11
5.73983
21
-3.64284
0
LINE
8
BLACK
6
CONTINUOUS
10
5.73983
20
-3.64284
11
5.7417
21
-3.64659
0
LINE
8
BLACK
6
CONTINUOUS
10
5.7417
20
-3.64659
11
5.74185
21
-3.64708
0
LINE
8
BLACK
6
CONTINUOUS
10
5.74185
20
-3.64708
11
5.74192
21
-3.64719
0
LINE
8
BLACK
6
CONTINUOUS
10
5.74192
20
-3.64719
11
5.7438
21
-3.65469
0
LINE
8
BLACK
6
CONTINUOUS
10
5.7438
20
-3.65469
11
5.74384
21
-3.65528
0
LINE
8
BLACK
6
CONTINUOUS
10
5.74384
20
-3.65528
11
5.74389
21
-3.65541
0
LINE
8
BLACK
6
CONTINUOUS
10
5.74389
20
-3.65541
11
5.74389
21
-3.66103
0
LINE
8
BLACK
6
CONTINUOUS
10
5.74389
20
-3.66103
11
5.74378
21
-3.66161
0
LINE
8
BLACK
6
CONTINUOUS
10
5.74378
20
-3.66161
11
5.7438
21
-3.66175
0
LINE
8
BLACK
6
CONTINUOUS
10
5.7438
20
-3.66175
11
5.74192
21
-3.66925
0
LINE
8
BLACK
6
CONTINUOUS
10
5.74192
20
-3.66925
11
5.74172
21
-3.66971
0
LINE
8
BLACK
6
CONTINUOUS
10
5.74172
20
-3.66971
11
5.7417
21
-3.66985
0
LINE
8
BLACK
6
CONTINUOUS
10
5.7417
20
-3.66985
11
5.73983
21
-3.6736
0
LINE
8
BLACK
6
CONTINUOUS
10
5.73983
20
-3.6736
11
5.7393
21
-3.67431
0
LINE
8
BLACK
6
CONTINUOUS
10
5.7393
20
-3.67431
11
5.73927
21
-3.67437
0
LINE
8
BLACK
6
CONTINUOUS
10
5.73927
20
-3.67437
11
5.73552
21
-3.67812
0
LINE
8
BLACK
6
CONTINUOUS
10
5.73552
20
-3.67812
11
5.73468
21
-3.67871
0
LINE
8
BLACK
6
CONTINUOUS
10
5.73468
20
-3.67871
11
5.73451
21
-3.67872
0
LINE
8
BLACK
6
CONTINUOUS
10
5.73451
20
-3.67872
11
5.73437
21
-3.67883
0
LINE
8
BLACK
6
CONTINUOUS
10
5.73437
20
-3.67883
11
5.72874
21
-3.68071
0
LINE
8
BLACK
6
CONTINUOUS
10
5.72874
20
-3.68071
11
5.72787
21
-3.68084
0
LINE
8
BLACK
6
CONTINUOUS
10
5.72787
20
-3.68084
11
5.72781
21
-3.68086
0
LINE
8
BLACK
6
CONTINUOUS
10
5.72781
20
-3.68086
11
5.72406
21
-3.68086
0
LINE
8
BLACK
6
CONTINUOUS
10
5.72406
20
-3.68086
11
5.72319
21
-3.68071
0
LINE
8
BLACK
6
CONTINUOUS
10
5.72319
20
-3.68071
11
5.72313
21
-3.68071
0
LINE
8
BLACK
6
CONTINUOUS
10
5.72313
20
-3.68071
11
5.7175
21
-3.67883
0
LINE
8
BLACK
6
CONTINUOUS
10
5.7175
20
-3.67883
11
5.7166
21
-3.67834
0
LINE
8
BLACK
6
CONTINUOUS
10
5.7166
20
-3.67834
11
5.71651
21
-3.67819
0
LINE
8
BLACK
6
CONTINUOUS
10
5.71651
20
-3.67819
11
5.71635
21
-3.67812
0
LINE
8
BLACK
6
CONTINUOUS
10
5.71635
20
-3.67812
11
5.71447
21
-3.67624
0
LINE
8
BLACK
6
CONTINUOUS
10
5.71447
20
-3.67624
11
5.71389
21
-3.6754
0
LINE
8
BLACK
6
CONTINUOUS
10
5.71389
20
-3.6754
11
5.71371
21
-3.67339
0
LINE
8
BLACK
6
CONTINUOUS
10
5.71371
20
-3.67339
11
5.71487
21
-3.67174
0
LINE
8
BLACK
6
CONTINUOUS
10
5.71487
20
-3.67174
11
5.71682
21
-3.67122
0
LINE
8
BLACK
6
CONTINUOUS
10
5.71682
20
-3.67122
11
5.71865
21
-3.67207
0
LINE
8
BLACK
6
CONTINUOUS
10
5.71865
20
-3.67207
11
5.72003
21
-3.67345
0
LINE
8
BLACK
6
CONTINUOUS
10
5.72003
20
-3.67345
11
5.72454
21
-3.67495
0
LINE
8
BLACK
6
CONTINUOUS
10
5.72454
20
-3.67495
11
5.72733
21
-3.67495
0
LINE
8
BLACK
6
CONTINUOUS
10
5.72733
20
-3.67495
11
5.73184
21
-3.67345
0
LINE
8
BLACK
6
CONTINUOUS
10
5.73184
20
-3.67345
11
5.73476
21
-3.67053
0
LINE
8
BLACK
6
CONTINUOUS
10
5.73476
20
-3.67053
11
5.73627
21
-3.6675
0
LINE
8
BLACK
6
CONTINUOUS
10
5.73627
20
-3.6675
11
5.73798
21
-3.66067
0
LINE
8
BLACK
6
CONTINUOUS
10
5.73798
20
-3.66067
11
5.73798
21
-3.65577
0
LINE
8
BLACK
6
CONTINUOUS
10
5.73798
20
-3.65577
11
5.73627
21
-3.64894
0
LINE
8
BLACK
6
CONTINUOUS
10
5.73627
20
-3.64894
11
5.73476
21
-3.64591
0
LINE
8
BLACK
6
CONTINUOUS
10
5.73476
20
-3.64591
11
5.73184
21
-3.64299
0
LINE
8
BLACK
6
CONTINUOUS
10
5.73184
20
-3.64299
11
5.72733
21
-3.64149
0
LINE
8
BLACK
6
CONTINUOUS
10
5.72733
20
-3.64149
11
5.72454
21
-3.64149
0
LINE
8
BLACK
6
CONTINUOUS
10
5.72454
20
-3.64149
11
5.72003
21
-3.64299
0
LINE
8
BLACK
6
CONTINUOUS
10
5.72003
20
-3.64299
11
5.71865
21
-3.64437
0
LINE
8
BLACK
6
CONTINUOUS
10
5.71865
20
-3.64437
11
5.71781
21
-3.64496
0
LINE
8
BLACK
6
CONTINUOUS
10
5.71781
20
-3.64496
11
5.7158
21
-3.64514
0
LINE
8
BLACK
6
CONTINUOUS
10
5.7158
20
-3.64514
11
5.71414
21
-3.64398
0
LINE
8
BLACK
6
CONTINUOUS
10
5.71414
20
-3.64398
11
5.71362
21
-3.64203
0
LINE
8
BLACK
6
CONTINUOUS
10
5.71362
20
-3.64203
11
5.71447
21
-3.6402
0
LINE
8
BLACK
6
CONTINUOUS
10
5.71447
20
-3.6402
11
5.71635
21
-3.63832
0
LINE
8
BLACK
6
CONTINUOUS
10
5.71635
20
-3.63832
11
5.71719
21
-3.63773
0
LINE
8
BLACK
6
CONTINUOUS
10
5.71719
20
-3.63773
11
5.71736
21
-3.63772
0
LINE
8
BLACK
6
CONTINUOUS
10
5.71736
20
-3.63772
11
5.7175
21
-3.63761
0
LINE
8
BLACK
6
CONTINUOUS
10
5.7175
20
-3.63761
11
5.72313
21
-3.63573
0
LINE
8
BLACK
6
CONTINUOUS
10
5.72313
20
-3.63573
11
5.724
21
-3.63561
0
LINE
8
BLACK
6
CONTINUOUS
10
5.724
20
-3.63561
11
5.72406
21
-3.63558
0
LINE
8
BLACK
6
CONTINUOUS
10
5.72406
20
-3.63558
11
5.72781
21
-3.63558
0
LINE
8
BLACK
6
CONTINUOUS
10
5.72781
20
-3.63558
11
5.72868
21
-3.63574
0
LINE
8
BLACK
6
CONTINUOUS
10
5.61196
20
-3.62939
11
5.61265
21
-3.63106
0
LINE
8
BLACK
6
CONTINUOUS
10
5.61265
20
-3.63106
11
5.61196
21
-3.63273
0
LINE
8
BLACK
6
CONTINUOUS
10
5.61196
20
-3.63273
11
5.61029
21
-3.63343
0
LINE
8
BLACK
6
CONTINUOUS
10
5.61029
20
-3.63343
11
5.58971
21
-3.63343
0
LINE
8
BLACK
6
CONTINUOUS
10
5.58971
20
-3.63343
11
5.58804
21
-3.63273
0
LINE
8
BLACK
6
CONTINUOUS
10
5.58804
20
-3.63273
11
5.58735
21
-3.63106
0
LINE
8
BLACK
6
CONTINUOUS
10
5.58735
20
-3.63106
11
5.58804
21
-3.62939
0
LINE
8
BLACK
6
CONTINUOUS
10
5.58804
20
-3.62939
11
5.58971
21
-3.6287
0
LINE
8
BLACK
6
CONTINUOUS
10
5.58971
20
-3.6287
11
5.61029
21
-3.6287
0
LINE
8
BLACK
6
CONTINUOUS
10
5.61029
20
-3.6287
11
5.61196
21
-3.62939
0
LINE
8
BLACK
6
CONTINUOUS
10
5.55455
20
-3.60727
11
5.55525
21
-3.60894
0
LINE
8
BLACK
6
CONTINUOUS
10
5.55525
20
-3.60894
11
5.55455
21
-3.61061
0
LINE
8
BLACK
6
CONTINUOUS
10
5.55455
20
-3.61061
11
5.55288
21
-3.6113
0
LINE
8
BLACK
6
CONTINUOUS
10
5.55288
20
-3.6113
11
5.53231
21
-3.6113
0
LINE
8
BLACK
6
CONTINUOUS
10
5.53231
20
-3.6113
11
5.53064
21
-3.61061
0
LINE
8
BLACK
6
CONTINUOUS
10
5.53064
20
-3.61061
11
5.52995
21
-3.60894
0
LINE
8
BLACK
6
CONTINUOUS
10
5.52995
20
-3.60894
11
5.53064
21
-3.60727
0
LINE
8
BLACK
6
CONTINUOUS
10
5.53064
20
-3.60727
11
5.53231
21
-3.60657
0
LINE
8
BLACK
6
CONTINUOUS
10
5.53231
20
-3.60657
11
5.55288
21
-3.60657
0
LINE
8
BLACK
6
CONTINUOUS
10
5.55288
20
-3.60657
11
5.55455
21
-3.60727
0
LINE
8
BLACK
6
CONTINUOUS
10
5.63695
20
-3.55576
11
5.63708
21
-3.55587
0
LINE
8
BLACK
6
CONTINUOUS
10
5.63708
20
-3.55587
11
5.63726
21
-3.5559
0
LINE
8
BLACK
6
CONTINUOUS
10
5.63726
20
-3.5559
11
5.64101
21
-3.55777
0
LINE
8
BLACK
6
CONTINUOUS
10
5.64101
20
-3.55777
11
5.64172
21
-3.5583
0
LINE
8
BLACK
6
CONTINUOUS
10
5.64172
20
-3.5583
11
5.64178
21
-3.55832
0
LINE
8
BLACK
6
CONTINUOUS
10
5.64178
20
-3.55832
11
5.64365
21
-3.5602
0
LINE
8
BLACK
6
CONTINUOUS
10
5.64365
20
-3.5602
11
5.64424
21
-3.56104
0
LINE
8
BLACK
6
CONTINUOUS
10
5.64424
20
-3.56104
11
5.64442
21
-3.56305
0
LINE
8
BLACK
6
CONTINUOUS
10
5.64442
20
-3.56305
11
5.64326
21
-3.5647
0
LINE
8
BLACK
6
CONTINUOUS
10
5.64326
20
-3.5647
11
5.64131
21
-3.56523
0
LINE
8
BLACK
6
CONTINUOUS
10
5.64131
20
-3.56523
11
5.63948
21
-3.56437
0
LINE
8
BLACK
6
CONTINUOUS
10
5.63948
20
-3.56437
11
5.63794
21
-3.56284
0
LINE
8
BLACK
6
CONTINUOUS
10
5.63794
20
-3.56284
11
5.63524
21
-3.56149
0
LINE
8
BLACK
6
CONTINUOUS
10
5.63524
20
-3.56149
11
5.62726
21
-3.56149
0
LINE
8
BLACK
6
CONTINUOUS
10
5.62726
20
-3.56149
11
5.62456
21
-3.56284
0
LINE
8
BLACK
6
CONTINUOUS
10
5.62456
20
-3.56284
11
5.62337
21
-3.56403
0
LINE
8
BLACK
6
CONTINUOUS
10
5.62337
20
-3.56403
11
5.62202
21
-3.56673
0
LINE
8
BLACK
6
CONTINUOUS
10
5.62202
20
-3.56673
11
5.62202
21
-3.56931
0
LINE
8
BLACK
6
CONTINUOUS
10
5.62202
20
-3.56931
11
5.62352
21
-3.57381
0
LINE
8
BLACK
6
CONTINUOUS
10
5.62352
20
-3.57381
11
5.64553
21
-3.59582
0
LINE
8
BLACK
6
CONTINUOUS
10
5.64553
20
-3.59582
11
5.6459
21
-3.59635
0
LINE
8
BLACK
6
CONTINUOUS
10
5.6459
20
-3.59635
11
5.646
21
-3.59643
0
LINE
8
BLACK
6
CONTINUOUS
10
5.646
20
-3.59643
11
5.64601
21
-3.59651
0
LINE
8
BLACK
6
CONTINUOUS
10
5.64601
20
-3.59651
11
5.64611
21
-3.59666
0
LINE
8
BLACK
6
CONTINUOUS
10
5.64611
20
-3.59666
11
5.64619
21
-3.59754
0
LINE
8
BLACK
6
CONTINUOUS
10
5.64619
20
-3.59754
11
5.64635
21
-3.59842
0
LINE
8
BLACK
6
CONTINUOUS
10
5.64635
20
-3.59842
11
5.64628
21
-3.59854
0
LINE
8
BLACK
6
CONTINUOUS
10
5.64628
20
-3.59854
11
5.64629
21
-3.59867
0
LINE
8
BLACK
6
CONTINUOUS
10
5.64629
20
-3.59867
11
5.64578
21
-3.5994
0
LINE
8
BLACK
6
CONTINUOUS
10
5.64578
20
-3.5994
11
5.64534
21
-3.60017
0
LINE
8
BLACK
6
CONTINUOUS
10
5.64534
20
-3.60017
11
5.64521
21
-3.60021
0
LINE
8
BLACK
6
CONTINUOUS
10
5.64521
20
-3.60021
11
5.64513
21
-3.60033
0
LINE
8
BLACK
6
CONTINUOUS
10
5.64513
20
-3.60033
11
5.64427
21
-3.60056
0
LINE
8
BLACK
6
CONTINUOUS
10
5.64427
20
-3.60056
11
5.64344
21
-3.60086
0
LINE
8
BLACK
6
CONTINUOUS
10
5.64344
20
-3.60086
11
5.61907
21
-3.60086
0
LINE
8
BLACK
6
CONTINUOUS
10
5.61907
20
-3.60086
11
5.61806
21
-3.60068
0
LINE
8
BLACK
6
CONTINUOUS
10
5.61806
20
-3.60068
11
5.61651
21
-3.59938
0
LINE
8
BLACK
6
CONTINUOUS
10
5.61651
20
-3.59938
11
5.61616
21
-3.59739
0
LINE
8
BLACK
6
CONTINUOUS
10
5.61616
20
-3.59739
11
5.61717
21
-3.59564
0
LINE
8
BLACK
6
CONTINUOUS
10
5.61717
20
-3.59564
11
5.61907
21
-3.59495
0
LINE
8
BLACK
6
CONTINUOUS
10
5.61907
20
-3.59495
11
5.63631
21
-3.59495
0
LINE
8
BLACK
6
CONTINUOUS
10
5.63631
20
-3.59495
11
5.61885
21
-3.5775
0
LINE
8
BLACK
6
CONTINUOUS
10
5.61885
20
-3.5775
11
5.61827
21
-3.57666
0
LINE
8
BLACK
6
CONTINUOUS
10
5.61827
20
-3.57666
11
5.61825
21
-3.57648
0
LINE
8
BLACK
6
CONTINUOUS
10
5.61825
20
-3.57648
11
5.61814
21
-3.57634
0
LINE
8
BLACK
6
CONTINUOUS
10
5.61814
20
-3.57634
11
5.61627
21
-3.57072
0
LINE
8
BLACK
6
CONTINUOUS
10
5.61627
20
-3.57072
11
5.61614
21
-3.56985
0
LINE
8
BLACK
6
CONTINUOUS
10
5.61614
20
-3.56985
11
5.61611
21
-3.56978
0
LINE
8
BLACK
6
CONTINUOUS
10
5.61611
20
-3.56978
11
5.61611
21
-3.56604
0
LINE
8
BLACK
6
CONTINUOUS
10
5.61611
20
-3.56604
11
5.61629
21
-3.56503
0
LINE
8
BLACK
6
CONTINUOUS
10
5.61629
20
-3.56503
11
5.61641
21
-3.56489
0
LINE
8
BLACK
6
CONTINUOUS
10
5.61641
20
-3.56489
11
5.61643
21
-3.56471
0
LINE
8
BLACK
6
CONTINUOUS
10
5.61643
20
-3.56471
11
5.6183
21
-3.56097
0
LINE
8
BLACK
6
CONTINUOUS
10
5.6183
20
-3.56097
11
5.61883
21
-3.56026
0
LINE
8
BLACK
6
CONTINUOUS
10
5.61883
20
-3.56026
11
5.61885
21
-3.5602
0
LINE
8
BLACK
6
CONTINUOUS
10
5.61885
20
-3.5602
11
5.62073
21
-3.55832
0
LINE
8
BLACK
6
CONTINUOUS
10
5.62073
20
-3.55832
11
5.62145
21
-3.55782
0
LINE
8
BLACK
6
CONTINUOUS
10
5.62145
20
-3.55782
11
5.6215
21
-3.55777
0
LINE
8
BLACK
6
CONTINUOUS
10
5.6215
20
-3.55777
11
5.62524
21
-3.5559
0
LINE
8
BLACK
6
CONTINUOUS
10
5.62524
20
-3.5559
11
5.62623
21
-3.5556
0
LINE
8
BLACK
6
CONTINUOUS
10
5.62623
20
-3.5556
11
5.6264
21
-3.55564
0
LINE
8
BLACK
6
CONTINUOUS
10
5.6264
20
-3.55564
11
5.62657
21
-3.55558
0
LINE
8
BLACK
6
CONTINUOUS
10
5.62657
20
-3.55558
11
5.63594
21
-3.55558
0
LINE
8
BLACK
6
CONTINUOUS
10
5.63594
20
-3.55558
11
5.63695
21
-3.55576
0
LINE
8
BLACK
6
CONTINUOUS
10
5.66868
20
-3.55574
11
5.66874
21
-3.55573
0
LINE
8
BLACK
6
CONTINUOUS
10
5.66874
20
-3.55573
11
5.67437
21
-3.55761
0
LINE
8
BLACK
6
CONTINUOUS
10
5.67437
20
-3.55761
11
5.67527
21
-3.5581
0
LINE
8
BLACK
6
CONTINUOUS
10
5.67527
20
-3.5581
11
5.67536
21
-3.55825
0
LINE
8
BLACK
6
CONTINUOUS
10
5.67536
20
-3.55825
11
5.67552
21
-3.55832
0
LINE
8
BLACK
6
CONTINUOUS
10
5.67552
20
-3.55832
11
5.67927
21
-3.56207
0
LINE
8
BLACK
6
CONTINUOUS
10
5.67927
20
-3.56207
11
5.67978
21
-3.5628
0
LINE
8
BLACK
6
CONTINUOUS
10
5.67978
20
-3.5628
11
5.67983
21
-3.56284
0
LINE
8
BLACK
6
CONTINUOUS
10
5.67983
20
-3.56284
11
5.6817
21
-3.56659
0
LINE
8
BLACK
6
CONTINUOUS
10
5.6817
20
-3.56659
11
5.68185
21
-3.56708
0
LINE
8
BLACK
6
CONTINUOUS
10
5.68185
20
-3.56708
11
5.68192
21
-3.56719
0
LINE
8
BLACK
6
CONTINUOUS
10
5.68192
20
-3.56719
11
5.6838
21
-3.57469
0
LINE
8
BLACK
6
CONTINUOUS
10
5.6838
20
-3.57469
11
5.68384
21
-3.57528
0
LINE
8
BLACK
6
CONTINUOUS
10
5.68384
20
-3.57528
11
5.68389
21
-3.57541
0
LINE
8
BLACK
6
CONTINUOUS
10
5.68389
20
-3.57541
11
5.68389
21
-3.58103
0
LINE
8
BLACK
6
CONTINUOUS
10
5.68389
20
-3.58103
11
5.68378
21
-3.58161
0
LINE
8
BLACK
6
CONTINUOUS
10
5.68378
20
-3.58161
11
5.6838
21
-3.58175
0
LINE
8
BLACK
6
CONTINUOUS
10
5.6838
20
-3.58175
11
5.68192
21
-3.58925
0
LINE
8
BLACK
6
CONTINUOUS
10
5.68192
20
-3.58925
11
5.68172
21
-3.58971
0
LINE
8
BLACK
6
CONTINUOUS
10
5.68172
20
-3.58971
11
5.6817
21
-3.58985
0
LINE
8
BLACK
6
CONTINUOUS
10
5.6817
20
-3.58985
11
5.67983
21
-3.5936
0
LINE
8
BLACK
6
CONTINUOUS
10
5.67983
20
-3.5936
11
5.6793
21
-3.59431
0
LINE
8
BLACK
6
CONTINUOUS
10
5.6793
20
-3.59431
11
5.67927
21
-3.59437
0
LINE
8
BLACK
6
CONTINUOUS
10
5.67927
20
-3.59437
11
5.67552
21
-3.59812
0
LINE
8
BLACK
6
CONTINUOUS
10
5.67552
20
-3.59812
11
5.67468
21
-3.59871
0
LINE
8
BLACK
6
CONTINUOUS
10
5.67468
20
-3.59871
11
5.67451
21
-3.59872
0
LINE
8
BLACK
6
CONTINUOUS
10
5.67451
20
-3.59872
11
5.67437
21
-3.59883
0
LINE
8
BLACK
6
CONTINUOUS
10
5.67437
20
-3.59883
11
5.66874
21
-3.60071
0
LINE
8
BLACK
6
CONTINUOUS
10
5.66874
20
-3.60071
11
5.66787
21
-3.60084
0
LINE
8
BLACK
6
CONTINUOUS
10
5.66787
20
-3.60084
11
5.66781
21
-3.60086
0
LINE
8
BLACK
6
CONTINUOUS
10
5.66781
20
-3.60086
11
5.66406
21
-3.60086
0
LINE
8
BLACK
6
CONTINUOUS
10
5.66406
20
-3.60086
11
5.66319
21
-3.60071
0
LINE
8
BLACK
6
CONTINUOUS
10
5.66319
20
-3.60071
11
5.66313
21
-3.60071
0
LINE
8
BLACK
6
CONTINUOUS
10
5.66313
20
-3.60071
11
5.6575
21
-3.59883
0
LINE
8
BLACK
6
CONTINUOUS
10
5.6575
20
-3.59883
11
5.6566
21
-3.59834
0
LINE
8
BLACK
6
CONTINUOUS
10
5.6566
20
-3.59834
11
5.65651
21
-3.59819
0
LINE
8
BLACK
6
CONTINUOUS
10
5.65651
20
-3.59819
11
5.65635
21
-3.59812
0
LINE
8
BLACK
6
CONTINUOUS
10
5.65635
20
-3.59812
11
5.65447
21
-3.59624
0
LINE
8
BLACK
6
CONTINUOUS
10
5.65447
20
-3.59624
11
5.65389
21
-3.5954
0
LINE
8
BLACK
6
CONTINUOUS
10
5.65389
20
-3.5954
11
5.65371
21
-3.59339
0
LINE
8
BLACK
6
CONTINUOUS
10
5.65371
20
-3.59339
11
5.65487
21
-3.59174
0
LINE
8
BLACK
6
CONTINUOUS
10
5.65487
20
-3.59174
11
5.65682
21
-3.59122
0
LINE
8
BLACK
6
CONTINUOUS
10
5.65682
20
-3.59122
11
5.65865
21
-3.59207
0
LINE
8
BLACK
6
CONTINUOUS
10
5.65865
20
-3.59207
11
5.66003
21
-3.59345
0
LINE
8
BLACK
6
CONTINUOUS
10
5.66003
20
-3.59345
11
5.66454
21
-3.59495
0
LINE
8
BLACK
6
CONTINUOUS
10
5.66454
20
-3.59495
11
5.66733
21
-3.59495
0
LINE
8
BLACK
6
CONTINUOUS
10
5.66733
20
-3.59495
11
5.67184
21
-3.59345
0
LINE
8
BLACK
6
CONTINUOUS
10
5.67184
20
-3.59345
11
5.67476
21
-3.59053
0
LINE
8
BLACK
6
CONTINUOUS
10
5.67476
20
-3.59053
11
5.67627
21
-3.5875
0
LINE
8
BLACK
6
CONTINUOUS
10
5.67627
20
-3.5875
11
5.67798
21
-3.58067
0
LINE
8
BLACK
6
CONTINUOUS
10
5.67798
20
-3.58067
11
5.67798
21
-3.57577
0
LINE
8
BLACK
6
CONTINUOUS
10
5.67798
20
-3.57577
11
5.67627
21
-3.56894
0
LINE
8
BLACK
6
CONTINUOUS
10
5.67627
20
-3.56894
11
5.67476
21
-3.56591
0
LINE
8
BLACK
6
CONTINUOUS
10
5.67476
20
-3.56591
11
5.67184
21
-3.56299
0
LINE
8
BLACK
6
CONTINUOUS
10
5.67184
20
-3.56299
11
5.66733
21
-3.56149
0
LINE
8
BLACK
6
CONTINUOUS
10
5.66733
20
-3.56149
11
5.66454
21
-3.56149
0
LINE
8
BLACK
6
CONTINUOUS
10
5.66454
20
-3.56149
11
5.66003
21
-3.56299
0
LINE
8
BLACK
6
CONTINUOUS
10
5.66003
20
-3.56299
11
5.65865
21
-3.56437
0
LINE
8
BLACK
6
CONTINUOUS
10
5.65865
20
-3.56437
11
5.65781
21
-3.56496
0
LINE
8
BLACK
6
CONTINUOUS
10
5.65781
20
-3.56496
11
5.6558
21
-3.56514
0
LINE
8
BLACK
6
CONTINUOUS
10
5.6558
20
-3.56514
11
5.65414
21
-3.56398
0
LINE
8
BLACK
6
CONTINUOUS
10
5.65414
20
-3.56398
11
5.65362
21
-3.56203
0
LINE
8
BLACK
6
CONTINUOUS
10
5.65362
20
-3.56203
11
5.65447
21
-3.5602
0
LINE
8
BLACK
6
CONTINUOUS
10
5.65447
20
-3.5602
11
5.65635
21
-3.55832
0
LINE
8
BLACK
6
CONTINUOUS
10
5.65635
20
-3.55832
11
5.65719
21
-3.55773
0
LINE
8
BLACK
6
CONTINUOUS
10
5.65719
20
-3.55773
11
5.65736
21
-3.55772
0
LINE
8
BLACK
6
CONTINUOUS
10
5.65736
20
-3.55772
11
5.6575
21
-3.55761
0
LINE
8
BLACK
6
CONTINUOUS
10
5.6575
20
-3.55761
11
5.66313
21
-3.55573
0
LINE
8
BLACK
6
CONTINUOUS
10
5.66313
20
-3.55573
11
5.664
21
-3.55561
0
LINE
8
BLACK
6
CONTINUOUS
10
5.664
20
-3.55561
11
5.66406
21
-3.55558
0
LINE
8
BLACK
6
CONTINUOUS
10
5.66406
20
-3.55558
11
5.66781
21
-3.55558
0
LINE
8
BLACK
6
CONTINUOUS
10
5.66781
20
-3.55558
11
5.66868
21
-3.55574
0
LINE
8
BLACK
6
CONTINUOUS
10
5.55455
20
-3.54939
11
5.55525
21
-3.55106
0
LINE
8
BLACK
6
CONTINUOUS
10
5.55525
20
-3.55106
11
5.55455
21
-3.55273
0
LINE
8
BLACK
6
CONTINUOUS
10
5.55455
20
-3.55273
11
5.55288
21
-3.55343
0
LINE
8
BLACK
6
CONTINUOUS
10
5.55288
20
-3.55343
11
5.53231
21
-3.55343
0
LINE
8
BLACK
6
CONTINUOUS
10
5.53231
20
-3.55343
11
5.53064
21
-3.55273
0
LINE
8
BLACK
6
CONTINUOUS
10
5.53064
20
-3.55273
11
5.52995
21
-3.55106
0
LINE
8
BLACK
6
CONTINUOUS
10
5.52995
20
-3.55106
11
5.53064
21
-3.54939
0
LINE
8
BLACK
6
CONTINUOUS
10
5.53064
20
-3.54939
11
5.53231
21
-3.5487
0
LINE
8
BLACK
6
CONTINUOUS
10
5.53231
20
-3.5487
11
5.55288
21
-3.5487
0
LINE
8
BLACK
6
CONTINUOUS
10
5.55288
20
-3.5487
11
5.55455
21
-3.54939
0
LINE
8
BLACK
6
CONTINUOUS
10
5.43374
20
-3.38786
11
5.4351
21
-3.38803
0
LINE
8
BLACK
6
CONTINUOUS
10
5.4351
20
-3.38803
11
5.43513
21
-3.38806
0
LINE
8
BLACK
6
CONTINUOUS
10
5.43513
20
-3.38806
11
5.43517
21
-3.38806
0
LINE
8
BLACK
6
CONTINUOUS
10
5.43517
20
-3.38806
11
5.43621
21
-3.38896
0
LINE
8
BLACK
6
CONTINUOUS
10
5.43621
20
-3.38896
11
5.43726
21
-3.38984
0
LINE
8
BLACK
6
CONTINUOUS
10
5.43726
20
-3.38984
11
5.44174
21
-3.39657
0
LINE
8
BLACK
6
CONTINUOUS
10
5.44174
20
-3.39657
11
5.44558
21
-3.40041
0
LINE
8
BLACK
6
CONTINUOUS
10
5.44558
20
-3.40041
11
5.44962
21
-3.40242
0
LINE
8
BLACK
6
CONTINUOUS
10
5.44962
20
-3.40242
11
5.45079
21
-3.40324
0
LINE
8
BLACK
6
CONTINUOUS
10
5.45079
20
-3.40324
11
5.45223
21
-3.40566
0
LINE
8
BLACK
6
CONTINUOUS
10
5.45223
20
-3.40566
11
5.45213
21
-3.40847
0
LINE
8
BLACK
6
CONTINUOUS
10
5.45213
20
-3.40847
11
5.45052
21
-3.41079
0
LINE
8
BLACK
6
CONTINUOUS
10
5.45052
20
-3.41079
11
5.44792
21
-3.41187
0
LINE
8
BLACK
6
CONTINUOUS
10
5.44792
20
-3.41187
11
5.44514
21
-3.41137
0
LINE
8
BLACK
6
CONTINUOUS
10
5.44514
20
-3.41137
11
5.44038
21
-3.40899
0
LINE
8
BLACK
6
CONTINUOUS
10
5.44038
20
-3.40899
11
5.43921
21
-3.40818
0
LINE
8
BLACK
6
CONTINUOUS
10
5.43921
20
-3.40818
11
5.43917
21
-3.4081
0
LINE
8
BLACK
6
CONTINUOUS
10
5.43917
20
-3.4081
11
5.43908
21
-3.40805
0
LINE
8
BLACK
6
CONTINUOUS
10
5.43908
20
-3.40805
11
5.4381
21
-3.40706
0
LINE
8
BLACK
6
CONTINUOUS
10
5.4381
20
-3.40706
11
5.4381
21
-3.43761
0
LINE
8
BLACK
6
CONTINUOUS
10
5.4381
20
-3.43761
11
5.44738
21
-3.43761
0
LINE
8
BLACK
6
CONTINUOUS
10
5.44738
20
-3.43761
11
5.44879
21
-3.43781
0
LINE
8
BLACK
6
CONTINUOUS
10
5.44879
20
-3.43781
11
5.45116
21
-3.43934
0
LINE
8
BLACK
6
CONTINUOUS
10
5.45116
20
-3.43934
11
5.45233
21
-3.4419
0
LINE
8
BLACK
6
CONTINUOUS
10
5.45233
20
-3.4419
11
5.45193
21
-3.44469
0
LINE
8
BLACK
6
CONTINUOUS
10
5.45193
20
-3.44469
11
5.45008
21
-3.44682
0
LINE
8
BLACK
6
CONTINUOUS
10
5.45008
20
-3.44682
11
5.44738
21
-3.44761
0
LINE
8
BLACK
6
CONTINUOUS
10
5.44738
20
-3.44761
11
5.41881
21
-3.44761
0
LINE
8
BLACK
6
CONTINUOUS
10
5.41881
20
-3.44761
11
5.4174
21
-3.44741
0
LINE
8
BLACK
6
CONTINUOUS
10
5.4174
20
-3.44741
11
5.41503
21
-3.44589
0
LINE
8
BLACK
6
CONTINUOUS
10
5.41503
20
-3.44589
11
5.41386
21
-3.44332
0
LINE
8
BLACK
6
CONTINUOUS
10
5.41386
20
-3.44332
11
5.41426
21
-3.44053
0
LINE
8
BLACK
6
CONTINUOUS
10
5.41426
20
-3.44053
11
5.41611
21
-3.4384
0
LINE
8
BLACK
6
CONTINUOUS
10
5.41611
20
-3.4384
11
5.41881
21
-3.43761
0
LINE
8
BLACK
6
CONTINUOUS
10
5.41881
20
-3.43761
11
5.4281
21
-3.43761
0
LINE
8
BLACK
6
CONTINUOUS
10
5.4281
20
-3.43761
11
5.4281
21
-3.39261
0
LINE
8
BLACK
6
CONTINUOUS
10
5.4281
20
-3.39261
11
5.42828
21
-3.39135
0
LINE
8
BLACK
6
CONTINUOUS
10
5.42828
20
-3.39135
11
5.42827
21
-3.39128
0
LINE
8
BLACK
6
CONTINUOUS
10
5.42827
20
-3.39128
11
5.42829
21
-3.39126
0
LINE
8
BLACK
6
CONTINUOUS
10
5.42829
20
-3.39126
11
5.4283
21
-3.3912
0
LINE
8
BLACK
6
CONTINUOUS
10
5.4283
20
-3.3912
11
5.42904
21
-3.39005
0
LINE
8
BLACK
6
CONTINUOUS
10
5.42904
20
-3.39005
11
5.42976
21
-3.38889
0
LINE
8
BLACK
6
CONTINUOUS
10
5.42976
20
-3.38889
11
5.4298
21
-3.38887
0
LINE
8
BLACK
6
CONTINUOUS
10
5.4298
20
-3.38887
11
5.42982
21
-3.38883
0
LINE
8
BLACK
6
CONTINUOUS
10
5.42982
20
-3.38883
11
5.43107
21
-3.38826
0
LINE
8
BLACK
6
CONTINUOUS
10
5.43107
20
-3.38826
11
5.4323
21
-3.38767
0
LINE
8
BLACK
6
CONTINUOUS
10
5.4323
20
-3.38767
11
5.43234
21
-3.38768
0
LINE
8
BLACK
6
CONTINUOUS
10
5.43234
20
-3.38768
11
5.43238
21
-3.38766
0
LINE
8
BLACK
6
CONTINUOUS
10
5.43238
20
-3.38766
11
5.43374
21
-3.38786
0
LINE
8
BLACK
6
CONTINUOUS
10
5.48212
20
-3.38781
11
5.4822
21
-3.38786
0
LINE
8
BLACK
6
CONTINUOUS
10
5.4822
20
-3.38786
11
5.4823
21
-3.38787
0
LINE
8
BLACK
6
CONTINUOUS
10
5.4823
20
-3.38787
11
5.48944
21
-3.39025
0
LINE
8
BLACK
6
CONTINUOUS
10
5.48944
20
-3.39025
11
5.49071
21
-3.39089
0
LINE
8
BLACK
6
CONTINUOUS
10
5.49071
20
-3.39089
11
5.49099
21
-3.39124
0
LINE
8
BLACK
6
CONTINUOUS
10
5.49099
20
-3.39124
11
5.49139
21
-3.39146
0
LINE
8
BLACK
6
CONTINUOUS
10
5.49139
20
-3.39146
11
5.49615
21
-3.39622
0
LINE
8
BLACK
6
CONTINUOUS
10
5.49615
20
-3.39622
11
5.49701
21
-3.39736
0
LINE
8
BLACK
6
CONTINUOUS
10
5.49701
20
-3.39736
11
5.49703
21
-3.39745
0
LINE
8
BLACK
6
CONTINUOUS
10
5.49703
20
-3.39745
11
5.49709
21
-3.39752
0
LINE
8
BLACK
6
CONTINUOUS
10
5.49709
20
-3.39752
11
5.49947
21
-3.40228
0
LINE
8
BLACK
6
CONTINUOUS
10
5.49947
20
-3.40228
11
5.49976
21
-3.40315
0
LINE
8
BLACK
6
CONTINUOUS
10
5.49976
20
-3.40315
11
5.49985
21
-3.4033
0
LINE
8
BLACK
6
CONTINUOUS
10
5.49985
20
-3.4033
11
5.50223
21
-3.41283
0
LINE
8
BLACK
6
CONTINUOUS
10
5.50223
20
-3.41283
11
5.50234
21
-3.41391
0
LINE
8
BLACK
6
CONTINUOUS
10
5.50234
20
-3.41391
11
5.50238
21
-3.41404
0
LINE
8
BLACK
6
CONTINUOUS
10
5.50238
20
-3.41404
11
5.50238
21
-3.42118
0
LINE
8
BLACK
6
CONTINUOUS
10
5.50238
20
-3.42118
11
5.50223
21
-3.42226
0
LINE
8
BLACK
6
CONTINUOUS
10
5.50223
20
-3.42226
11
5.50223
21
-3.4224
0
LINE
8
BLACK
6
CONTINUOUS
10
5.50223
20
-3.4224
11
5.49985
21
-3.43192
0
LINE
8
BLACK
6
CONTINUOUS
10
5.49985
20
-3.43192
11
5.4995
21
-3.43277
0
LINE
8
BLACK
6
CONTINUOUS
10
5.4995
20
-3.43277
11
5.49947
21
-3.43294
0
LINE
8
BLACK
6
CONTINUOUS
10
5.49947
20
-3.43294
11
5.49709
21
-3.4377
0
LINE
8
BLACK
6
CONTINUOUS
10
5.49709
20
-3.4377
11
5.49628
21
-3.43887
0
LINE
8
BLACK
6
CONTINUOUS
10
5.49628
20
-3.43887
11
5.4962
21
-3.43892
0
LINE
8
BLACK
6
CONTINUOUS
10
5.4962
20
-3.43892
11
5.49615
21
-3.439
0
LINE
8
BLACK
6
CONTINUOUS
10
5.49615
20
-3.439
11
5.49139
21
-3.44377
0
LINE
8
BLACK
6
CONTINUOUS
10
5.49139
20
-3.44377
11
5.49025
21
-3.44462
0
LINE
8
BLACK
6
CONTINUOUS
10
5.49025
20
-3.44462
11
5.48981
21
-3.44471
0
LINE
8
BLACK
6
CONTINUOUS
10
5.48981
20
-3.44471
11
5.48944
21
-3.44497
0
LINE
8
BLACK
6
CONTINUOUS
10
5.48944
20
-3.44497
11
5.4823
21
-3.44735
0
LINE
8
BLACK
6
CONTINUOUS
10
5.4823
20
-3.44735
11
5.48089
21
-3.44761
0
LINE
8
BLACK
6
CONTINUOUS
10
5.48089
20
-3.44761
11
5.4808
21
-3.44758
0
LINE
8
BLACK
6
CONTINUOUS
10
5.4808
20
-3.44758
11
5.48071
21
-3.44761
0
LINE
8
BLACK
6
CONTINUOUS
10
5.48071
20
-3.44761
11
5.47595
21
-3.44761
0
LINE
8
BLACK
6
CONTINUOUS
10
5.47595
20
-3.44761
11
5.47454
21
-3.44741
0
LINE
8
BLACK
6
CONTINUOUS
10
5.47454
20
-3.44741
11
5.47446
21
-3.44736
0
LINE
8
BLACK
6
CONTINUOUS
10
5.47446
20
-3.44736
11
5.47437
21
-3.44735
0
LINE
8
BLACK
6
CONTINUOUS
10
5.47437
20
-3.44735
11
5.46723
21
-3.44497
0
LINE
8
BLACK
6
CONTINUOUS
10
5.46723
20
-3.44497
11
5.46596
21
-3.44434
0
LINE
8
BLACK
6
CONTINUOUS
10
5.46596
20
-3.44434
11
5.46567
21
-3.44398
0
LINE
8
BLACK
6
CONTINUOUS
10
5.46567
20
-3.44398
11
5.46527
21
-3.44377
0
LINE
8
BLACK
6
CONTINUOUS
10
5.46527
20
-3.44377
11
5.46289
21
-3.44138
0
LINE
8
BLACK
6
CONTINUOUS
10
5.46289
20
-3.44138
11
5.46204
21
-3.44025
0
LINE
8
BLACK
6
CONTINUOUS
10
5.46204
20
-3.44025
11
5.46144
21
-3.43749
0
LINE
8
BLACK
6
CONTINUOUS
10
5.46144
20
-3.43749
11
5.46243
21
-3.43485
0
LINE
8
BLACK
6
CONTINUOUS
10
5.46243
20
-3.43485
11
5.46468
21
-3.43316
0
LINE
8
BLACK
6
CONTINUOUS
10
5.46468
20
-3.43316
11
5.46749
21
-3.43296
0
LINE
8
BLACK
6
CONTINUOUS
10
5.46749
20
-3.43296
11
5.46996
21
-3.43431
0
LINE
8
BLACK
6
CONTINUOUS
10
5.46996
20
-3.43431
11
5.47151
21
-3.43586
0
LINE
8
BLACK
6
CONTINUOUS
10
5.47151
20
-3.43586
11
5.47676
21
-3.43761
0
LINE
8
BLACK
6
CONTINUOUS
10
5.47676
20
-3.43761
11
5.4799
21
-3.43761
0
LINE
8
BLACK
6
CONTINUOUS
10
5.4799
20
-3.43761
11
5.48516
21
-3.43586
0
LINE
8
BLACK
6
CONTINUOUS
10
5.48516
20
-3.43586
11
5.48851
21
-3.43251
0
LINE
8
BLACK
6
CONTINUOUS
10
5.48851
20
-3.43251
11
5.49028
21
-3.42896
0
LINE
8
BLACK
6
CONTINUOUS
10
5.49028
20
-3.42896
11
5.49238
21
-3.42057
0
LINE
8
BLACK
6
CONTINUOUS
10
5.49238
20
-3.42057
11
5.49238
21
-3.41465
0
LINE
8
BLACK
6
CONTINUOUS
10
5.49238
20
-3.41465
11
5.49028
21
-3.40626
0
LINE
8
BLACK
6
CONTINUOUS
10
5.49028
20
-3.40626
11
5.48851
21
-3.40272
0
LINE
8
BLACK
6
CONTINUOUS
10
5.48851
20
-3.40272
11
5.48516
21
-3.39936
0
LINE
8
BLACK
6
CONTINUOUS
10
5.48516
20
-3.39936
11
5.4799
21
-3.39761
0
LINE
8
BLACK
6
CONTINUOUS
10
5.4799
20
-3.39761
11
5.47676
21
-3.39761
0
LINE
8
BLACK
6
CONTINUOUS
10
5.47676
20
-3.39761
11
5.47151
21
-3.39936
0
LINE
8
BLACK
6
CONTINUOUS
10
5.47151
20
-3.39936
11
5.46996
21
-3.40091
0
LINE
8
BLACK
6
CONTINUOUS
10
5.46996
20
-3.40091
11
5.46882
21
-3.40176
0
LINE
8
BLACK
6
CONTINUOUS
10
5.46882
20
-3.40176
11
5.46607
21
-3.40236
0
LINE
8
BLACK
6
CONTINUOUS
10
5.46607
20
-3.40236
11
5.46343
21
-3.40138
0
LINE
8
BLACK
6
CONTINUOUS
10
5.46343
20
-3.40138
11
5.46174
21
-3.39912
0
LINE
8
BLACK
6
CONTINUOUS
10
5.46174
20
-3.39912
11
5.46154
21
-3.39631
0
LINE
8
BLACK
6
CONTINUOUS
10
5.46154
20
-3.39631
11
5.46289
21
-3.39384
0
LINE
8
BLACK
6
CONTINUOUS
10
5.46289
20
-3.39384
11
5.46527
21
-3.39146
0
LINE
8
BLACK
6
CONTINUOUS
10
5.46527
20
-3.39146
11
5.46641
21
-3.3906
0
LINE
8
BLACK
6
CONTINUOUS
10
5.46641
20
-3.3906
11
5.46686
21
-3.39051
0
LINE
8
BLACK
6
CONTINUOUS
10
5.46686
20
-3.39051
11
5.46723
21
-3.39025
0
LINE
8
BLACK
6
CONTINUOUS
10
5.46723
20
-3.39025
11
5.47437
21
-3.38787
0
LINE
8
BLACK
6
CONTINUOUS
10
5.47437
20
-3.38787
11
5.47577
21
-3.38761
0
LINE
8
BLACK
6
CONTINUOUS
10
5.47577
20
-3.38761
11
5.47586
21
-3.38764
0
LINE
8
BLACK
6
CONTINUOUS
10
5.47586
20
-3.38764
11
5.47595
21
-3.38761
0
LINE
8
BLACK
6
CONTINUOUS
10
5.47595
20
-3.38761
11
5.48071
21
-3.38761
0
LINE
8
BLACK
6
CONTINUOUS
10
5.48071
20
-3.38761
11
5.48212
21
-3.38781
0
LINE
8
BLACK
6
CONTINUOUS
10
5.52089
20
-3.38806
11
5.52302
21
-3.38991
0
LINE
8
BLACK
6
CONTINUOUS
10
5.52302
20
-3.38991
11
5.52381
21
-3.39261
0
LINE
8
BLACK
6
CONTINUOUS
10
5.52381
20
-3.39261
11
5.52381
21
-3.44261
0
LINE
8
BLACK
6
CONTINUOUS
10
5.52381
20
-3.44261
11
5.52361
21
-3.44402
0
LINE
8
BLACK
6
CONTINUOUS
10
5.52361
20
-3.44402
11
5.52208
21
-3.44639
0
LINE
8
BLACK
6
CONTINUOUS
10
5.52208
20
-3.44639
11
5.51952
21
-3.44756
0
LINE
8
BLACK
6
CONTINUOUS
10
5.51952
20
-3.44756
11
5.51673
21
-3.44716
0
LINE
8
BLACK
6
CONTINUOUS
10
5.51673
20
-3.44716
11
5.5146
21
-3.44531
0
LINE
8
BLACK
6
CONTINUOUS
10
5.5146
20
-3.44531
11
5.51381
21
-3.44261
0
LINE
8
BLACK
6
CONTINUOUS
10
5.51381
20
-3.44261
11
5.51381
21
-3.39261
0
LINE
8
BLACK
6
CONTINUOUS
10
5.51381
20
-3.39261
11
5.51401
21
-3.3912
0
LINE
8
BLACK
6
CONTINUOUS
10
5.51401
20
-3.3912
11
5.51554
21
-3.38883
0
LINE
8
BLACK
6
CONTINUOUS
10
5.51554
20
-3.38883
11
5.5181
21
-3.38766
0
LINE
8
BLACK
6
CONTINUOUS
10
5.5181
20
-3.38766
11
5.52089
21
-3.38806
0
LINE
8
BLACK
6
CONTINUOUS
10
5.56902
20
-3.3133
11
5.56964
21
-3.3133
0
LINE
8
BLACK
6
CONTINUOUS
10
5.56964
20
-3.3133
11
5.57015
21
-3.31367
0
LINE
8
BLACK
6
CONTINUOUS
10
5.57015
20
-3.31367
11
5.57074
21
-3.31386
0
LINE
8
BLACK
6
CONTINUOUS
10
5.57074
20
-3.31386
11
5.57111
21
-3.31437
0
LINE
8
BLACK
6
CONTINUOUS
10
5.57111
20
-3.31437
11
5.57161
21
-3.31473
0
LINE
8
BLACK
6
CONTINUOUS
10
5.57161
20
-3.31473
11
5.5718
21
-3.31533
0
LINE
8
BLACK
6
CONTINUOUS
10
5.5718
20
-3.31533
11
5.57217
21
-3.31583
0
LINE
8
BLACK
6
CONTINUOUS
10
5.57217
20
-3.31583
11
5.57217
21
-3.31645
0
LINE
8
BLACK
6
CONTINUOUS
10
5.57217
20
-3.31645
11
5.57236
21
-3.31705
0
LINE
8
BLACK
6
CONTINUOUS
10
5.57236
20
-3.31705
11
5.57236
21
-3.52295
0
LINE
8
BLACK
6
CONTINUOUS
10
5.57236
20
-3.52295
11
5.57217
21
-3.52355
0
LINE
8
BLACK
6
CONTINUOUS
10
5.57217
20
-3.52355
11
5.57217
21
-3.52417
0
LINE
8
BLACK
6
CONTINUOUS
10
5.57217
20
-3.52417
11
5.5718
21
-3.52467
0
LINE
8
BLACK
6
CONTINUOUS
10
5.5718
20
-3.52467
11
5.57161
21
-3.52527
0
LINE
8
BLACK
6
CONTINUOUS
10
5.57161
20
-3.52527
11
5.57111
21
-3.52563
0
LINE
8
BLACK
6
CONTINUOUS
10
5.57111
20
-3.52563
11
5.57074
21
-3.52614
0
LINE
8
BLACK
6
CONTINUOUS
10
5.57074
20
-3.52614
11
5.57015
21
-3.52633
0
LINE
8
BLACK
6
CONTINUOUS
10
5.57015
20
-3.52633
11
5.56964
21
-3.5267
0
LINE
8
BLACK
6
CONTINUOUS
10
5.56964
20
-3.5267
11
5.56902
21
-3.5267
0
LINE
8
BLACK
6
CONTINUOUS
10
5.56902
20
-3.5267
11
5.56843
21
-3.52689
0
LINE
8
BLACK
6
CONTINUOUS
10
5.56843
20
-3.52689
11
5.37157
21
-3.52689
0
LINE
8
BLACK
6
CONTINUOUS
10
5.37157
20
-3.52689
11
5.37098
21
-3.5267
0
LINE
8
BLACK
6
CONTINUOUS
10
5.37098
20
-3.5267
11
5.37036
21
-3.5267
0
LINE
8
BLACK
6
CONTINUOUS
10
5.37036
20
-3.5267
11
5.36985
21
-3.52633
0
LINE
8
BLACK
6
CONTINUOUS
10
5.36985
20
-3.52633
11
5.36926
21
-3.52614
0
LINE
8
BLACK
6
CONTINUOUS
10
5.36926
20
-3.52614
11
5.36889
21
-3.52563
0
LINE
8
BLACK
6
CONTINUOUS
10
5.36889
20
-3.52563
11
5.36839
21
-3.52527
0
LINE
8
BLACK
6
CONTINUOUS
10
5.36839
20
-3.52527
11
5.3682
21
-3.52467
0
LINE
8
BLACK
6
CONTINUOUS
10
5.3682
20
-3.52467
11
5.36783
21
-3.52417
0
LINE
8
BLACK
6
CONTINUOUS
10
5.36783
20
-3.52417
11
5.36783
21
-3.52355
0
LINE
8
BLACK
6
CONTINUOUS
10
5.36783
20
-3.52355
11
5.36764
21
-3.52295
0
LINE
8
BLACK
6
CONTINUOUS
10
5.36764
20
-3.52295
11
5.36764
21
-3.31705
0
LINE
8
BLACK
6
CONTINUOUS
10
5.36764
20
-3.31705
11
5.36783
21
-3.31645
0
LINE
8
BLACK
6
CONTINUOUS
10
5.36783
20
-3.31645
11
5.36783
21
-3.31583
0
LINE
8
BLACK
6
CONTINUOUS
10
5.36783
20
-3.31583
11
5.3682
21
-3.31533
0
LINE
8
BLACK
6
CONTINUOUS
10
5.3682
20
-3.31533
11
5.36839
21
-3.31473
0
LINE
8
BLACK
6
CONTINUOUS
10
5.36839
20
-3.31473
11
5.36889
21
-3.31437
0
LINE
8
BLACK
6
CONTINUOUS
10
5.36889
20
-3.31437
11
5.36926
21
-3.31386
0
LINE
8
BLACK
6
CONTINUOUS
10
5.36926
20
-3.31386
11
5.36985
21
-3.31367
0
LINE
8
BLACK
6
CONTINUOUS
10
5.36985
20
-3.31367
11
5.37036
21
-3.3133
0
LINE
8
BLACK
6
CONTINUOUS
10
5.37036
20
-3.3133
11
5.37098
21
-3.3133
0
LINE
8
BLACK
6
CONTINUOUS
10
5.37098
20
-3.3133
11
5.37157
21
-3.31311
0
LINE
8
BLACK
6
CONTINUOUS
10
5.37157
20
-3.31311
11
5.56843
21
-3.31311
0
LINE
8
BLACK
6
CONTINUOUS
10
5.56843
20
-3.31311
11
5.56902
21
-3.3133
0
LINE
8
BLACK
6
CONTINUOUS
10
5.37551
20
-3.32098
11
5.37551
21
-3.51902
0
LINE
8
BLACK
6
CONTINUOUS
10
5.37551
20
-3.51902
11
5.56449
21
-3.51902
0
LINE
8
BLACK
6
CONTINUOUS
10
5.56449
20
-3.51902
11
5.56449
21
-3.32098
0
LINE
8
BLACK
6
CONTINUOUS
10
5.56449
20
-3.32098
11
5.37551
21
-3.32098
0
LINE
8
BLACK
6
CONTINUOUS
10
5.36011
20
-3.51839
11
5.36154
21
-3.52036
0
LINE
8
BLACK
6
CONTINUOUS
10
5.36154
20
-3.52036
11
5.36154
21
-3.52279
0
LINE
8
BLACK
6
CONTINUOUS
10
5.36154
20
-3.52279
11
5.36011
21
-3.52476
0
LINE
8
BLACK
6
CONTINUOUS
10
5.36011
20
-3.52476
11
5.3578
21
-3.52551
0
LINE
8
BLACK
6
CONTINUOUS
10
5.3578
20
-3.52551
11
5.29283
21
-3.52551
0
LINE
8
BLACK
6
CONTINUOUS
10
5.29283
20
-3.52551
11
5.29052
21
-3.52476
0
LINE
8
BLACK
6
CONTINUOUS
10
5.29052
20
-3.52476
11
5.28909
21
-3.52279
0
LINE
8
BLACK
6
CONTINUOUS
10
5.28909
20
-3.52279
11
5.28909
21
-3.52036
0
LINE
8
BLACK
6
CONTINUOUS
10
5.28909
20
-3.52036
11
5.29052
21
-3.51839
0
LINE
8
BLACK
6
CONTINUOUS
10
5.29052
20
-3.51839
11
5.29283
21
-3.51764
0
LINE
8
BLACK
6
CONTINUOUS
10
5.29283
20
-3.51764
11
5.3578
21
-3.51764
0
LINE
8
BLACK
6
CONTINUOUS
10
5.3578
20
-3.51764
11
5.36011
21
-3.51839
0
LINE
8
BLACK
6
CONTINUOUS
10
5.56386
20
-3.16268
11
5.56553
21
-3.16337
0
LINE
8
BLACK
6
CONTINUOUS
10
5.56553
20
-3.16337
11
5.56622
21
-3.16504
0
LINE
8
BLACK
6
CONTINUOUS
10
5.56622
20
-3.16504
11
5.56622
21
-3.29496
0
LINE
8
BLACK
6
CONTINUOUS
10
5.56622
20
-3.29496
11
5.56553
21
-3.29663
0
LINE
8
BLACK
6
CONTINUOUS
10
5.56553
20
-3.29663
11
5.56386
21
-3.29732
0
LINE
8
BLACK
6
CONTINUOUS
10
5.56386
20
-3.29732
11
5.35126
21
-3.29732
0
LINE
8
BLACK
6
CONTINUOUS
10
5.35126
20
-3.29732
11
5.34959
21
-3.29663
0
LINE
8
BLACK
6
CONTINUOUS
10
5.34959
20
-3.29663
11
5.3489
21
-3.29496
0
LINE
8
BLACK
6
CONTINUOUS
10
5.3489
20
-3.29496
11
5.34959
21
-3.29329
0
LINE
8
BLACK
6
CONTINUOUS
10
5.34959
20
-3.29329
11
5.35126
21
-3.2926
0
LINE
8
BLACK
6
CONTINUOUS
10
5.35126
20
-3.2926
11
5.5615
21
-3.2926
0
LINE
8
BLACK
6
CONTINUOUS
10
5.5615
20
-3.2926
11
5.5615
21
-3.1674
0
LINE
8
BLACK
6
CONTINUOUS
10
5.5615
20
-3.1674
11
5.35126
21
-3.1674
0
LINE
8
BLACK
6
CONTINUOUS
10
5.35126
20
-3.1674
11
5.34959
21
-3.16671
0
LINE
8
BLACK
6
CONTINUOUS
10
5.34959
20
-3.16671
11
5.3489
21
-3.16504
0
LINE
8
BLACK
6
CONTINUOUS
10
5.3489
20
-3.16504
11
5.34959
21
-3.16337
0
LINE
8
BLACK
6
CONTINUOUS
10
5.34959
20
-3.16337
11
5.35126
21
-3.16268
0
LINE
8
BLACK
6
CONTINUOUS
10
5.35126
20
-3.16268
11
5.56386
21
-3.16268
0
LINE
8
BLACK
6
CONTINUOUS
10
5.59097
20
-3.20571
11
5.59114
21
-3.2057
0
LINE
8
BLACK
6
CONTINUOUS
10
5.59114
20
-3.2057
11
5.59183
21
-3.20621
0
LINE
8
BLACK
6
CONTINUOUS
10
5.59183
20
-3.20621
11
5.59258
21
-3.20664
0
LINE
8
BLACK
6
CONTINUOUS
10
5.59258
20
-3.20664
11
5.59263
21
-3.2068
0
LINE
8
BLACK
6
CONTINUOUS
10
5.59263
20
-3.2068
11
5.59277
21
-3.2069
0
LINE
8
BLACK
6
CONTINUOUS
10
5.59277
20
-3.2069
11
5.59636
21
-3.21228
0
LINE
8
BLACK
6
CONTINUOUS
10
5.59636
20
-3.21228
11
5.59956
21
-3.21548
0
LINE
8
BLACK
6
CONTINUOUS
10
5.59956
20
-3.21548
11
5.60288
21
-3.21714
0
LINE
8
BLACK
6
CONTINUOUS
10
5.60288
20
-3.21714
11
5.60371
21
-3.21775
0
LINE
8
BLACK
6
CONTINUOUS
10
5.60371
20
-3.21775
11
5.60451
21
-3.21961
0
LINE
8
BLACK
6
CONTINUOUS
10
5.60451
20
-3.21961
11
5.60394
21
-3.22154
0
LINE
8
BLACK
6
CONTINUOUS
10
5.60394
20
-3.22154
11
5.60225
21
-3.22266
0
LINE
8
BLACK
6
CONTINUOUS
10
5.60225
20
-3.22266
11
5.60024
21
-3.22243
0
LINE
8
BLACK
6
CONTINUOUS
10
5.60024
20
-3.22243
11
5.59649
21
-3.22055
0
LINE
8
BLACK
6
CONTINUOUS
10
5.59649
20
-3.22055
11
5.59578
21
-3.22003
0
LINE
8
BLACK
6
CONTINUOUS
10
5.59578
20
-3.22003
11
5.59573
21
-3.22
0
LINE
8
BLACK
6
CONTINUOUS
10
5.59573
20
-3.22
11
5.59327
21
-3.21754
0
LINE
8
BLACK
6
CONTINUOUS
10
5.59327
20
-3.21754
11
5.59327
21
-3.24495
0
LINE
8
BLACK
6
CONTINUOUS
10
5.59327
20
-3.24495
11
5.60156
21
-3.24495
0
LINE
8
BLACK
6
CONTINUOUS
10
5.60156
20
-3.24495
11
5.60257
21
-3.24513
0
LINE
8
BLACK
6
CONTINUOUS
10
5.60257
20
-3.24513
11
5.60412
21
-3.24643
0
LINE
8
BLACK
6
CONTINUOUS
10
5.60412
20
-3.24643
11
5.60447
21
-3.24842
0
LINE
8
BLACK
6
CONTINUOUS
10
5.60447
20
-3.24842
11
5.60346
21
-3.25017
0
LINE
8
BLACK
6
CONTINUOUS
10
5.60346
20
-3.25017
11
5.60156
21
-3.25086
0
LINE
8
BLACK
6
CONTINUOUS
10
5.60156
20
-3.25086
11
5.57907
21
-3.25086
0
LINE
8
BLACK
6
CONTINUOUS
10
5.57907
20
-3.25086
11
5.57806
21
-3.25068
0
LINE
8
BLACK
6
CONTINUOUS
10
5.57806
20
-3.25068
11
5.57651
21
-3.24938
0
LINE
8
BLACK
6
CONTINUOUS
10
5.57651
20
-3.24938
11
5.57616
21
-3.24739
0
LINE
8
BLACK
6
CONTINUOUS
10
5.57616
20
-3.24739
11
5.57717
21
-3.24564
0
LINE
8
BLACK
6
CONTINUOUS
10
5.57717
20
-3.24564
11
5.57907
21
-3.24495
0
LINE
8
BLACK
6
CONTINUOUS
10
5.57907
20
-3.24495
11
5.58736
21
-3.24495
0
LINE
8
BLACK
6
CONTINUOUS
10
5.58736
20
-3.24495
11
5.58736
21
-3.20854
0
LINE
8
BLACK
6
CONTINUOUS
10
5.58736
20
-3.20854
11
5.58754
21
-3.20753
0
LINE
8
BLACK
6
CONTINUOUS
10
5.58754
20
-3.20753
11
5.58765
21
-3.2074
0
LINE
8
BLACK
6
CONTINUOUS
10
5.58765
20
-3.2074
11
5.58767
21
-3.20723
0
LINE
8
BLACK
6
CONTINUOUS
10
5.58767
20
-3.20723
11
5.58829
21
-3.20664
0
LINE
8
BLACK
6
CONTINUOUS
10
5.58829
20
-3.20664
11
5.58884
21
-3.20598
0
LINE
8
BLACK
6
CONTINUOUS
10
5.58884
20
-3.20598
11
5.58901
21
-3.20595
0
LINE
8
BLACK
6
CONTINUOUS
10
5.58901
20
-3.20595
11
5.58913
21
-3.20583
0
LINE
8
BLACK
6
CONTINUOUS
10
5.58913
20
-3.20583
11
5.58998
21
-3.20578
0
LINE
8
BLACK
6
CONTINUOUS
10
5.58998
20
-3.20578
11
5.59083
21
-3.20563
0
LINE
8
BLACK
6
CONTINUOUS
10
5.59083
20
-3.20563
11
5.59097
21
-3.20571
0
LINE
8
BLACK
6
CONTINUOUS
10
5.63944
20
-3.20565
11
5.63957
21
-3.20563
0
LINE
8
BLACK
6
CONTINUOUS
10
5.63957
20
-3.20563
11
5.63969
21
-3.20569
0
LINE
8
BLACK
6
CONTINUOUS
10
5.63969
20
-3.20569
11
5.64007
21
-3.20576
0
LINE
8
BLACK
6
CONTINUOUS
10
5.64007
20
-3.20576
11
5.64066
21
-3.20625
0
LINE
8
BLACK
6
CONTINUOUS
10
5.64066
20
-3.20625
11
5.64132
21
-3.20664
0
LINE
8
BLACK
6
CONTINUOUS
10
5.64132
20
-3.20664
11
5.64141
21
-3.20689
0
LINE
8
BLACK
6
CONTINUOUS
10
5.64141
20
-3.20689
11
5.64162
21
-3.20706
0
LINE
8
BLACK
6
CONTINUOUS
10
5.64162
20
-3.20706
11
5.64175
21
-3.20782
0
LINE
8
BLACK
6
CONTINUOUS
10
5.64175
20
-3.20782
11
5.64201
21
-3.20854
0
LINE
8
BLACK
6
CONTINUOUS
10
5.64201
20
-3.20854
11
5.64201
21
-3.24791
0
LINE
8
BLACK
6
CONTINUOUS
10
5.64201
20
-3.24791
11
5.64194
21
-3.24829
0
LINE
8
BLACK
6
CONTINUOUS
10
5.64194
20
-3.24829
11
5.64197
21
-3.24842
0
LINE
8
BLACK
6
CONTINUOUS
10
5.64197
20
-3.24842
11
5.6419
21
-3.24853
0
LINE
8
BLACK
6
CONTINUOUS
10
5.6419
20
-3.24853
11
5.64183
21
-3.24892
0
LINE
8
BLACK
6
CONTINUOUS
10
5.64183
20
-3.24892
11
5.64134
21
-3.2495
0
LINE
8
BLACK
6
CONTINUOUS
10
5.64134
20
-3.2495
11
5.64096
21
-3.25017
0
LINE
8
BLACK
6
CONTINUOUS
10
5.64096
20
-3.25017
11
5.64071
21
-3.25026
0
LINE
8
BLACK
6
CONTINUOUS
10
5.64071
20
-3.25026
11
5.64054
21
-3.25046
0
LINE
8
BLACK
6
CONTINUOUS
10
5.64054
20
-3.25046
11
5.63978
21
-3.2506
0
LINE
8
BLACK
6
CONTINUOUS
10
5.63978
20
-3.2506
11
5.63906
21
-3.25086
0
LINE
8
BLACK
6
CONTINUOUS
10
5.63906
20
-3.25086
11
5.62969
21
-3.25086
0
LINE
8
BLACK
6
CONTINUOUS
10
5.62969
20
-3.25086
11
5.62882
21
-3.25071
0
LINE
8
BLACK
6
CONTINUOUS
10
5.62882
20
-3.25071
11
5.62875
21
-3.25071
0
LINE
8
BLACK
6
CONTINUOUS
10
5.62875
20
-3.25071
11
5.62313
21
-3.24883
0
LINE
8
BLACK
6
CONTINUOUS
10
5.62313
20
-3.24883
11
5.62223
21
-3.24834
0
LINE
8
BLACK
6
CONTINUOUS
10
5.62223
20
-3.24834
11
5.62213
21
-3.24819
0
LINE
8
BLACK
6
CONTINUOUS
10
5.62213
20
-3.24819
11
5.62197
21
-3.24812
0
LINE
8
BLACK
6
CONTINUOUS
10
5.62197
20
-3.24812
11
5.61822
21
-3.24437
0
LINE
8
BLACK
6
CONTINUOUS
10
5.61822
20
-3.24437
11
5.61772
21
-3.24365
0
LINE
8
BLACK
6
CONTINUOUS
10
5.61772
20
-3.24365
11
5.61767
21
-3.2436
0
LINE
8
BLACK
6
CONTINUOUS
10
5.61767
20
-3.2436
11
5.6158
21
-3.23985
0
LINE
8
BLACK
6
CONTINUOUS
10
5.6158
20
-3.23985
11
5.61565
21
-3.23936
0
LINE
8
BLACK
6
CONTINUOUS
10
5.61565
20
-3.23936
11
5.61557
21
-3.23925
0
LINE
8
BLACK
6
CONTINUOUS
10
5.61557
20
-3.23925
11
5.6137
21
-3.23175
0
LINE
8
BLACK
6
CONTINUOUS
10
5.6137
20
-3.23175
11
5.61366
21
-3.23116
0
LINE
8
BLACK
6
CONTINUOUS
10
5.61366
20
-3.23116
11
5.61361
21
-3.23103
0
LINE
8
BLACK
6
CONTINUOUS
10
5.61361
20
-3.23103
11
5.61361
21
-3.22541
0
LINE
8
BLACK
6
CONTINUOUS
10
5.61361
20
-3.22541
11
5.61371
21
-3.22483
0
LINE
8
BLACK
6
CONTINUOUS
10
5.61371
20
-3.22483
11
5.6137
21
-3.22469
0
LINE
8
BLACK
6
CONTINUOUS
10
5.6137
20
-3.22469
11
5.61557
21
-3.21719
0
LINE
8
BLACK
6
CONTINUOUS
10
5.61557
20
-3.21719
11
5.61578
21
-3.21673
0
LINE
8
BLACK
6
CONTINUOUS
10
5.61578
20
-3.21673
11
5.6158
21
-3.21659
0
LINE
8
BLACK
6
CONTINUOUS
10
5.6158
20
-3.21659
11
5.61767
21
-3.21284
0
LINE
8
BLACK
6
CONTINUOUS
10
5.61767
20
-3.21284
11
5.6182
21
-3.21213
0
LINE
8
BLACK
6
CONTINUOUS
10
5.6182
20
-3.21213
11
5.61822
21
-3.21207
0
LINE
8
BLACK
6
CONTINUOUS
10
5.61822
20
-3.21207
11
5.62197
21
-3.20832
0
LINE
8
BLACK
6
CONTINUOUS
10
5.62197
20
-3.20832
11
5.62281
21
-3.20773
0
LINE
8
BLACK
6
CONTINUOUS
10
5.62281
20
-3.20773
11
5.62299
21
-3.20772
0
LINE
8
BLACK
6
CONTINUOUS
10
5.62299
20
-3.20772
11
5.62313
21
-3.20761
0
LINE
8
BLACK
6
CONTINUOUS
10
5.62313
20
-3.20761
11
5.62875
21
-3.20573
0
LINE
8
BLACK
6
CONTINUOUS
10
5.62875
20
-3.20573
11
5.62962
21
-3.20561
0
LINE
8
BLACK
6
CONTINUOUS
10
5.62962
20
-3.20561
11
5.62969
21
-3.20558
0
LINE
8
BLACK
6
CONTINUOUS
10
5.62969
20
-3.20558
11
5.63906
21
-3.20558
0
LINE
8
BLACK
6
CONTINUOUS
10
5.63906
20
-3.20558
11
5.63944
21
-3.20565
0
LINE
8
BLACK
6
CONTINUOUS
10
5.62566
20
-3.21299
11
5.62274
21
-3.21591
0
LINE
8
BLACK
6
CONTINUOUS
10
5.62274
20
-3.21591
11
5.62122
21
-3.21894
0
LINE
8
BLACK
6
CONTINUOUS
10
5.62122
20
-3.21894
11
5.61951
21
-3.22577
0
LINE
8
BLACK
6
CONTINUOUS
10
5.61951
20
-3.22577
11
5.61951
21
-3.23067
0
LINE
8
BLACK
6
CONTINUOUS
10
5.61951
20
-3.23067
11
5.62122
21
-3.2375
0
LINE
8
BLACK
6
CONTINUOUS
10
5.62122
20
-3.2375
11
5.62274
21
-3.24053
0
LINE
8
BLACK
6
CONTINUOUS
10
5.62274
20
-3.24053
11
5.62566
21
-3.24345
0
LINE
8
BLACK
6
CONTINUOUS
10
5.62566
20
-3.24345
11
5.63016
21
-3.24495
0
LINE
8
BLACK
6
CONTINUOUS
10
5.63016
20
-3.24495
11
5.63611
21
-3.24495
0
LINE
8
BLACK
6
CONTINUOUS
10
5.63611
20
-3.24495
11
5.63611
21
-3.21149
0
LINE
8
BLACK
6
CONTINUOUS
10
5.63611
20
-3.21149
11
5.63016
21
-3.21149
0
LINE
8
BLACK
6
CONTINUOUS
10
5.63016
20
-3.21149
11
5.62566
21
-3.21299
0
CIRCLE
8
BLACK
10
5.8
20
-3.8
40
0.00688976
0
CIRCLE
8
BLACK
10
5.4
20
-3
40
0.00688976
0
CIRCLE
8
BLACK
10
5.8
20
-3
40
0.00688976
0
CIRCLE
8
BLACK
10
5.75
20
-3.25
40
0.00688976
0
CIRCLE
8
BLACK
10
5.85
20
-3.25
40
0.00688976
0
CIRCLE
8
BLACK
10
5.75
20
-3.35
40
0.00688976
0
CIRCLE
8
BLACK
10
5.85
20
-3.35
40
0.00688976
0
CIRCLE
8
BLACK
10
5.75
20
-3.45
40
0.00688976
0
CIRCLE
8
BLACK
10
5.85
20
-3.45
40
0.00688976
0
CIRCLE
8
BLACK
10
5.75
20
-3.55
40
0.00688976
0
CIRCLE
8
BLACK
10
5.85
20
-3.55
40
0.00688976
0
CIRCLE
8
BLACK
10
5.4
20
-3.8
40
0.00688976
  0
ENDSEC
  0
EOF
