  0
SECTION
  2
HEADER
  9
$ANGBASE
  50
0.0
  9
$ANGDIR
  70
1
  9
$MEASUREMENT
  70
0
  0
ENDSEC
  0
SECTION
  2
TABLES
  0
TABLE
  2
LTYPE
  70
4
  0
LTYPE
  5
40F
  2
CONTINUOUS
  70
0
  3
Solid line
  72
65
  73
0
  40
0.0
  0
LTYPE
  5
410
  2
DASHDOT
 70
0
  3
Dash Dot ____ _ ____ _
 72
65
 73
4
 40
2.0
 49
1.25
 49
-0.25
 49
0.25
 49
-0.25
  0
LTYPE
  5
411
  2
DASHED
 70
0
  3
Dashed __ __ __ __ __
 72
65
 73
2
 40
0.75
 49
0.5
 49
-0.25
  0
LTYPE
  5
43B
  2
DOTTED
 70
0
  3
Dotted .  .  .  .
 72
65
 73
2
 40
0.2
 49
0.0
 49
-0.2
  0
ENDTAB
  0
TABLE
  2
STYLE
  70
4
  0
STYLE
  2
KICAD
  70
0
  40
0
  41
1
  42
1
  50
0
  71
0
  3
isocp.shx
  0
STYLE
  2
KICADB
  70
0
  40
0
  41
1
  42
1
  50
0
  71
0
  3
isocp.shx
  0
STYLE
  2
KICADI
  70
0
  40
0
  41
1
  42
1
  50
15
  71
0
  3
isocp.shx
  0
STYLE
  2
KICADBI
  70
0
  40
0
  41
1
  42
1
  50
15
  71
0
  3
isocp.shx
  0
ENDTAB
  0
TABLE
  2
LAYER
  70
1
  0
LAYER
  2
BLACK
  70
0
  62
7
  6
CONTINUOUS
  0
ENDTAB
  0
ENDSEC
  0
SECTION
  2
ENTITIES
0
LINE
8
BLACK
6
CONTINUOUS
10
5.71476
20
-3.29669
11
5.71546
21
-3.29698
0
LINE
8
BLACK
6
CONTINUOUS
10
5.71546
20
-3.29698
11
5.71575
21
-3.29768
0
LINE
8
BLACK
6
CONTINUOUS
10
5.71575
20
-3.29768
11
5.71575
21
-3.67169
0
LINE
8
BLACK
6
CONTINUOUS
10
5.71575
20
-3.67169
11
5.71546
21
-3.67239
0
LINE
8
BLACK
6
CONTINUOUS
10
5.71546
20
-3.67239
11
5.71476
21
-3.67268
0
LINE
8
BLACK
6
CONTINUOUS
10
5.71476
20
-3.67268
11
5.48524
21
-3.67268
0
LINE
8
BLACK
6
CONTINUOUS
10
5.48524
20
-3.67268
11
5.48454
21
-3.67239
0
LINE
8
BLACK
6
CONTINUOUS
10
5.48454
20
-3.67239
11
5.48425
21
-3.67169
0
LINE
8
BLACK
6
CONTINUOUS
10
5.48425
20
-3.67169
11
5.48425
21
-3.29768
0
LINE
8
BLACK
6
CONTINUOUS
10
5.48425
20
-3.29768
11
5.48454
21
-3.29698
0
LINE
8
BLACK
6
CONTINUOUS
10
5.48454
20
-3.29698
11
5.48524
21
-3.29669
0
LINE
8
BLACK
6
CONTINUOUS
10
5.48524
20
-3.29669
11
5.71476
21
-3.29669
0
LINE
8
BLACK
6
CONTINUOUS
10
5.48622
20
-3.29866
11
5.48622
21
-3.67071
0
LINE
8
BLACK
6
CONTINUOUS
10
5.48622
20
-3.67071
11
5.71378
21
-3.67071
0
LINE
8
BLACK
6
CONTINUOUS
10
5.71378
20
-3.67071
11
5.71378
21
-3.29866
0
LINE
8
BLACK
6
CONTINUOUS
10
5.71378
20
-3.29866
11
5.48622
21
-3.29866
0
LINE
8
BLACK
6
CONTINUOUS
10
5.51906
20
-3.15012
11
5.51975
21
-3.15041
0
LINE
8
BLACK
6
CONTINUOUS
10
5.51975
20
-3.15041
11
5.52004
21
-3.1511
0
LINE
8
BLACK
6
CONTINUOUS
10
5.52004
20
-3.1511
11
5.52004
21
-3.2889
0
LINE
8
BLACK
6
CONTINUOUS
10
5.52004
20
-3.2889
11
5.51975
21
-3.28959
0
LINE
8
BLACK
6
CONTINUOUS
10
5.51975
20
-3.28959
11
5.51906
21
-3.28988
0
LINE
8
BLACK
6
CONTINUOUS
10
5.51906
20
-3.28988
11
5.24346
21
-3.28988
0
LINE
8
BLACK
6
CONTINUOUS
10
5.24346
20
-3.28988
11
5.24277
21
-3.28959
0
LINE
8
BLACK
6
CONTINUOUS
10
5.24277
20
-3.28959
11
5.24248
21
-3.2889
0
LINE
8
BLACK
6
CONTINUOUS
10
5.24248
20
-3.2889
11
5.24248
21
-3.2889
0
LINE
8
BLACK
6
CONTINUOUS
10
5.24248
20
-3.2889
11
5.24248
21
-3.1511
0
LINE
8
BLACK
6
CONTINUOUS
10
5.24248
20
-3.1511
11
5.24277
21
-3.15041
0
LINE
8
BLACK
6
CONTINUOUS
10
5.24277
20
-3.15041
11
5.24346
21
-3.15012
0
LINE
8
BLACK
6
CONTINUOUS
10
5.24346
20
-3.15012
11
5.51906
21
-3.15012
0
LINE
8
BLACK
6
CONTINUOUS
10
5.24445
20
-3.15209
11
5.24445
21
-3.28791
0
LINE
8
BLACK
6
CONTINUOUS
10
5.24445
20
-3.28791
11
5.51807
21
-3.28791
0
LINE
8
BLACK
6
CONTINUOUS
10
5.51807
20
-3.28791
11
5.51807
21
-3.15209
0
LINE
8
BLACK
6
CONTINUOUS
10
5.51807
20
-3.15209
11
5.24445
21
-3.15209
0
LINE
8
BLACK
6
CONTINUOUS
10
5.69693
20
-3.21043
11
5.69763
21
-3.21072
0
LINE
8
BLACK
6
CONTINUOUS
10
5.69763
20
-3.21072
11
5.69791
21
-3.21142
0
LINE
8
BLACK
6
CONTINUOUS
10
5.69791
20
-3.21142
11
5.69791
21
-3.28858
0
LINE
8
BLACK
6
CONTINUOUS
10
5.69791
20
-3.28858
11
5.69763
21
-3.28928
0
LINE
8
BLACK
6
CONTINUOUS
10
5.69763
20
-3.28928
11
5.69693
21
-3.28957
0
LINE
8
BLACK
6
CONTINUOUS
10
5.69693
20
-3.28957
11
5.56307
21
-3.28957
0
LINE
8
BLACK
6
CONTINUOUS
10
5.56307
20
-3.28957
11
5.56237
21
-3.28928
0
LINE
8
BLACK
6
CONTINUOUS
10
5.56237
20
-3.28928
11
5.56209
21
-3.28858
0
LINE
8
BLACK
6
CONTINUOUS
10
5.56209
20
-3.28858
11
5.56209
21
-3.21142
0
LINE
8
BLACK
6
CONTINUOUS
10
5.56209
20
-3.21142
11
5.56237
21
-3.21072
0
LINE
8
BLACK
6
CONTINUOUS
10
5.56237
20
-3.21072
11
5.56307
21
-3.21043
0
LINE
8
BLACK
6
CONTINUOUS
10
5.56307
20
-3.21043
11
5.69693
21
-3.21043
0
LINE
8
BLACK
6
CONTINUOUS
10
5.56406
20
-3.2124
11
5.56406
21
-3.2876
0
LINE
8
BLACK
6
CONTINUOUS
10
5.56406
20
-3.2876
11
5.69594
21
-3.2876
0
LINE
8
BLACK
6
CONTINUOUS
10
5.69594
20
-3.2876
11
5.69594
21
-3.2124
0
LINE
8
BLACK
6
CONTINUOUS
10
5.69594
20
-3.2124
11
5.56406
21
-3.2124
0
LINE
8
BLACK
6
CONTINUOUS
10
5.69953
20
-3.13043
11
5.70022
21
-3.13072
0
LINE
8
BLACK
6
CONTINUOUS
10
5.70022
20
-3.13072
11
5.70051
21
-3.13142
0
LINE
8
BLACK
6
CONTINUOUS
10
5.70051
20
-3.13142
11
5.70051
21
-3.20858
0
LINE
8
BLACK
6
CONTINUOUS
10
5.70051
20
-3.20858
11
5.70022
21
-3.20928
0
LINE
8
BLACK
6
CONTINUOUS
10
5.70022
20
-3.20928
11
5.69953
21
-3.20957
0
LINE
8
BLACK
6
CONTINUOUS
10
5.69953
20
-3.20957
11
5.56567
21
-3.20957
0
LINE
8
BLACK
6
CONTINUOUS
10
5.56567
20
-3.20957
11
5.56497
21
-3.20928
0
LINE
8
BLACK
6
CONTINUOUS
10
5.56497
20
-3.20928
11
5.56469
21
-3.20858
0
LINE
8
BLACK
6
CONTINUOUS
10
5.56469
20
-3.20858
11
5.56469
21
-3.13142
0
LINE
8
BLACK
6
CONTINUOUS
10
5.56469
20
-3.13142
11
5.56497
21
-3.13072
0
LINE
8
BLACK
6
CONTINUOUS
10
5.56497
20
-3.13072
11
5.56567
21
-3.13043
0
LINE
8
BLACK
6
CONTINUOUS
10
5.56567
20
-3.13043
11
5.69953
21
-3.13043
0
LINE
8
BLACK
6
CONTINUOUS
10
5.56665
20
-3.1324
11
5.56665
21
-3.2076
0
LINE
8
BLACK
6
CONTINUOUS
10
5.56665
20
-3.2076
11
5.69854
21
-3.2076
0
LINE
8
BLACK
6
CONTINUOUS
10
5.69854
20
-3.2076
11
5.69854
21
-3.1324
0
LINE
8
BLACK
6
CONTINUOUS
10
5.69854
20
-3.1324
11
5.56665
21
-3.1324
  0
ENDSEC
  0
EOF
