<?xml version='1.0' encoding='ASCII' standalone='yes'?>
<svg xmlns:svg="http://www.w3.org/2000/svg" xmlns="http://www.w3.org/2000/svg" xmlns:xlink="http://www.w3.org/1999/xlink" version="1.1" width="297.0022mm" height="210.0072mm" viewBox="0.0000 0.0000 297.0022 210.0072">
<title>SVG Image created as FRAM01-F_Fab.svg date 2023/09/20 18:52:25 </title>
  <desc>Image generated by PCBNEW </desc>
<g style="fill:#848484; fill-opacity:1.0000;stroke:#848484; stroke-opacity:1.0000; stroke-linecap:round; stroke-linejoin:round;" transform="translate(0 0) scale(1 1)">
</g>
<g style="fill:#848484; fill-opacity:0.0;  stroke:#848484; stroke-width:0.0000; stroke-opacity:1;  stroke-linecap:round; stroke-linejoin:round;">
</g>
<g style="fill:#848484; fill-opacity:0.01;  stroke:#848484; stroke-width:1.0465; stroke-opacity:1;  stroke-linecap:round; stroke-linejoin:round;">
<text x="111.2859" y="84.3797" textLength="13.7048" font-size="9.3026" lengthAdjust="spacingAndGlyphs" text-anchor="middle" opacity="0.01" style="font-family:monospace">J1</text>
<g class="stroked-text"><desc>J1</desc>
<path d="M108.9603 77.0875 L108.9603 82.0710 "/>
<path d="M108.9603 82.0710 L108.6280 83.0677 "/>
<path d="M108.6280 83.0677 L107.9635 83.7322 "/>
<path d="M107.9635 83.7322 L106.9668 84.0644 "/>
<path d="M106.9668 84.0644 L106.3024 84.0644 "/>
<path d="M115.9372 84.0644 L111.9504 84.0644 "/>
<path d="M113.9438 84.0644 L113.9438 77.0875 "/>
<path d="M113.9438 77.0875 L113.2793 78.0842 "/>
<path d="M113.2793 78.0842 L112.6149 78.7486 "/>
<path d="M112.6149 78.7486 L111.9504 79.0809 "/>
</g><g transform="rotate(-90.000000 178.6277 105.0036)">
<text x="178.6277" y="108.4921" textLength="13.7048" font-size="9.3026" lengthAdjust="spacingAndGlyphs" text-anchor="middle" opacity="0.01" style="font-family:monospace">J2</text>
</g>
<g class="stroked-text"><desc>J2</desc>
<path d="M174.8240 107.3293 L179.8075 107.3293 "/>
<path d="M179.8075 107.3293 L180.8042 107.6615 "/>
<path d="M180.8042 107.6615 L181.4687 108.3260 "/>
<path d="M181.4687 108.3260 L181.8009 109.3227 "/>
<path d="M181.8009 109.3227 L181.8009 109.9871 "/>
<path d="M175.4884 104.3391 L175.1562 104.0069 "/>
<path d="M175.1562 104.0069 L174.8240 103.3424 "/>
<path d="M174.8240 103.3424 L174.8240 101.6812 "/>
<path d="M174.8240 101.6812 L175.1562 101.0168 "/>
<path d="M175.1562 101.0168 L175.4884 100.6845 "/>
<path d="M175.4884 100.6845 L176.1529 100.3523 "/>
<path d="M176.1529 100.3523 L176.8174 100.3523 "/>
<path d="M176.8174 100.3523 L177.8141 100.6845 "/>
<path d="M177.8141 100.6845 L181.8009 104.6714 "/>
<path d="M181.8009 104.6714 L181.8009 100.3523 "/>
</g></g>
<g style="fill:#848484; fill-opacity:0.0;  stroke:#848484; stroke-width:0.6977; stroke-opacity:1;  stroke-linecap:round; stroke-linejoin:round;">
<path d="M129.0074 63.1697 L137.8682 72.0304 "/>
<path d="M84.7036 63.1697 L129.0074 63.1697 "/>
<path d="M137.8682 72.0304 L137.8682 98.6127 "/>
<path d="M137.8682 98.6127 L84.7036 98.6127 "/>
<path d="M84.7036 98.6127 L84.7036 63.1697 "/>
</g>
<g style="fill:#848484; fill-opacity:0.0;  stroke:#848484; stroke-width:2.6582; stroke-opacity:1;  stroke-linecap:round; stroke-linejoin:round;">
<circle cx="183.9441" cy="175.8897" r="20.9291"/> 
<circle cx="113.0581" cy="34.1175" r="20.9291"/> 
<circle cx="183.9441" cy="34.1175" r="20.9291"/> 
</g>
<g style="fill:#848484; fill-opacity:0.0;  stroke:#848484; stroke-width:0.6977; stroke-opacity:1;  stroke-linecap:round; stroke-linejoin:round;">
<path d="M160.9062 78.4213 L169.7669 69.5606 "/>
<path d="M160.9062 140.4466 L160.9062 78.4213 "/>
<path d="M169.7669 69.5606 L196.3492 69.5606 "/>
<path d="M196.3492 69.5606 L196.3492 140.4466 "/>
<path d="M196.3492 140.4466 L160.9062 140.4466 "/>
</g>
<g style="fill:#848484; fill-opacity:0.0;  stroke:#848484; stroke-width:2.6582; stroke-opacity:1;  stroke-linecap:round; stroke-linejoin:round;">
<circle cx="113.0581" cy="175.8897" r="20.9291"/> 
<g>
</g>
<g>
</g>
<g>
</g>
<g>
</g>
<g>
</g>
<g>
</g>
<g>
</g>
<g>
</g>
<g>
</g>
<g>
</g>
<g>
</g>
<g>
</g>
<g>
</g>
<g>
</g>
<g>
</g>
</g> 
<svg:g><svg:g><svg:title>SVG Image created as FRAM01-Edge_Cuts.svg date 2023/09/20 18:52:25 </svg:title>
  <svg:desc>Image generated by PCBNEW </svg:desc>
<svg:g style="fill:#C2C200; fill-opacity:1.0000;stroke:#C2C200; stroke-opacity:1.0000; stroke-linecap:round; stroke-linejoin:round;" transform="translate(0 0) scale(1 1)">
</svg:g>
<svg:g style="fill:#C2C200; fill-opacity:0.0;  stroke:#C2C200; stroke-width:0.0000; stroke-opacity:1;  stroke-linecap:round; stroke-linejoin:round;">
</svg:g>
<svg:g style="fill:#C2C200; fill-opacity:0.0;  stroke:#C2C200; stroke-width:0.8861; stroke-opacity:1;  stroke-linecap:round; stroke-linejoin:round;">
<svg:path d="M217.6150 209.5606 L79.3872 209.5606 "/>
<svg:path d="M79.3872 0.4466 L79.3872 209.5606 "/>
<svg:path d="M217.6150 0.4466 L217.6150 209.5606 "/>
<svg:path d="M79.3872 0.4466 L217.6150 0.4466 "/>
<svg:g>
</svg:g>
<svg:g>
</svg:g>
<svg:g>
</svg:g>
<svg:g>
</svg:g>
<svg:g>
</svg:g>
<svg:g>
</svg:g>
<svg:g>
</svg:g>
<svg:g>
</svg:g>
<svg:g>
</svg:g>
<svg:g>
</svg:g>
<svg:g>
</svg:g>
<svg:g>
</svg:g>
<svg:g>
</svg:g>
<svg:g>
</svg:g>
<svg:g>
</svg:g>
</svg:g> 
</svg:g></svg:g></svg>
