<?xml version='1.0' encoding='ASCII' standalone='yes'?>
<svg xmlns:svg="http://www.w3.org/2000/svg" xmlns="http://www.w3.org/2000/svg" xmlns:xlink="http://www.w3.org/1999/xlink" version="1.1" width="297.0022mm" height="210.0072mm" viewBox="0.0000 0.0000 297.0022 210.0072">
<title>SVG Image created as FRAM01-B_Fab.svg date 2023/09/06 14:45:37 </title>
  <desc>Image generated by PCBNEW </desc>
<g style="fill:#000084; fill-opacity:1.0000;stroke:#000084; stroke-opacity:1.0000; stroke-linecap:round; stroke-linejoin:round;" transform="translate(0 0) scale(1 1)">
</g>
<g style="fill:#000084; fill-opacity:0.0;  stroke:#000084; stroke-width:0.0000; stroke-opacity:1;  stroke-linecap:round; stroke-linejoin:round;">
</g>
<g style="fill:#000084; fill-opacity:0.01;  stroke:#000084; stroke-width:1.0465; stroke-opacity:1;  stroke-linecap:round; stroke-linejoin:round;">
<text x="187.2652" y="94.7335" transform="scale(-1 1) translate(-374.530350 0)" textLength="72.8430" font-size="9.3026" lengthAdjust="spacingAndGlyphs" text-anchor="middle" opacity="0.01" style="font-family:monospace">BZV55C-5,6V</text>
<g class="stroked-text"><desc>BZV55C-5,6V</desc>
<path d="M155.7027 90.7637 L156.6994 91.0959 "/>
<path d="M156.6994 91.0959 L157.0316 91.4281 "/>
<path d="M157.0316 91.4281 L157.3639 92.0926 "/>
<path d="M157.3639 92.0926 L157.3639 93.0893 "/>
<path d="M157.3639 93.0893 L157.0316 93.7538 "/>
<path d="M157.0316 93.7538 L156.6994 94.0860 "/>
<path d="M156.6994 94.0860 L156.0349 94.4183 "/>
<path d="M156.0349 94.4183 L153.3770 94.4183 "/>
<path d="M153.3770 94.4183 L153.3770 87.4413 "/>
<path d="M153.3770 87.4413 L155.7027 87.4413 "/>
<path d="M155.7027 87.4413 L156.3671 87.7735 "/>
<path d="M156.3671 87.7735 L156.6994 88.1058 "/>
<path d="M156.6994 88.1058 L157.0316 88.7702 "/>
<path d="M157.0316 88.7702 L157.0316 89.4347 "/>
<path d="M157.0316 89.4347 L156.6994 90.0992 "/>
<path d="M156.6994 90.0992 L156.3671 90.4314 "/>
<path d="M156.3671 90.4314 L155.7027 90.7637 "/>
<path d="M155.7027 90.7637 L153.3770 90.7637 "/>
<path d="M159.6895 87.4413 L164.3408 87.4413 "/>
<path d="M164.3408 87.4413 L159.6895 94.4183 "/>
<path d="M159.6895 94.4183 L164.3408 94.4183 "/>
<path d="M166.0020 87.4413 L168.3277 94.4183 "/>
<path d="M168.3277 94.4183 L170.6533 87.4413 "/>
<path d="M176.3014 87.4413 L172.9790 87.4413 "/>
<path d="M172.9790 87.4413 L172.6468 90.7637 "/>
<path d="M172.6468 90.7637 L172.9790 90.4314 "/>
<path d="M172.9790 90.4314 L173.6435 90.0992 "/>
<path d="M173.6435 90.0992 L175.3046 90.0992 "/>
<path d="M175.3046 90.0992 L175.9691 90.4314 "/>
<path d="M175.9691 90.4314 L176.3014 90.7637 "/>
<path d="M176.3014 90.7637 L176.6336 91.4281 "/>
<path d="M176.6336 91.4281 L176.6336 93.0893 "/>
<path d="M176.6336 93.0893 L176.3014 93.7538 "/>
<path d="M176.3014 93.7538 L175.9691 94.0860 "/>
<path d="M175.9691 94.0860 L175.3046 94.4183 "/>
<path d="M175.3046 94.4183 L173.6435 94.4183 "/>
<path d="M173.6435 94.4183 L172.9790 94.0860 "/>
<path d="M172.9790 94.0860 L172.6468 93.7538 "/>
<path d="M182.9461 87.4413 L179.6237 87.4413 "/>
<path d="M179.6237 87.4413 L179.2915 90.7637 "/>
<path d="M179.2915 90.7637 L179.6237 90.4314 "/>
<path d="M179.6237 90.4314 L180.2882 90.0992 "/>
<path d="M180.2882 90.0992 L181.9494 90.0992 "/>
<path d="M181.9494 90.0992 L182.6139 90.4314 "/>
<path d="M182.6139 90.4314 L182.9461 90.7637 "/>
<path d="M182.9461 90.7637 L183.2783 91.4281 "/>
<path d="M183.2783 91.4281 L183.2783 93.0893 "/>
<path d="M183.2783 93.0893 L182.9461 93.7538 "/>
<path d="M182.9461 93.7538 L182.6139 94.0860 "/>
<path d="M182.6139 94.0860 L181.9494 94.4183 "/>
<path d="M181.9494 94.4183 L180.2882 94.4183 "/>
<path d="M180.2882 94.4183 L179.6237 94.0860 "/>
<path d="M179.6237 94.0860 L179.2915 93.7538 "/>
<path d="M190.2553 93.7538 L189.9231 94.0860 "/>
<path d="M189.9231 94.0860 L188.9264 94.4183 "/>
<path d="M188.9264 94.4183 L188.2619 94.4183 "/>
<path d="M188.2619 94.4183 L187.2652 94.0860 "/>
<path d="M187.2652 94.0860 L186.6007 93.4215 "/>
<path d="M186.6007 93.4215 L186.2685 92.7571 "/>
<path d="M186.2685 92.7571 L185.9362 91.4281 "/>
<path d="M185.9362 91.4281 L185.9362 90.4314 "/>
<path d="M185.9362 90.4314 L186.2685 89.1025 "/>
<path d="M186.2685 89.1025 L186.6007 88.4380 "/>
<path d="M186.6007 88.4380 L187.2652 87.7735 "/>
<path d="M187.2652 87.7735 L188.2619 87.4413 "/>
<path d="M188.2619 87.4413 L188.9264 87.4413 "/>
<path d="M188.9264 87.4413 L189.9231 87.7735 "/>
<path d="M189.9231 87.7735 L190.2553 88.1058 "/>
<path d="M193.2454 91.7604 L198.5612 91.7604 "/>
<path d="M205.2060 87.4413 L201.8836 87.4413 "/>
<path d="M201.8836 87.4413 L201.5514 90.7637 "/>
<path d="M201.5514 90.7637 L201.8836 90.4314 "/>
<path d="M201.8836 90.4314 L202.5481 90.0992 "/>
<path d="M202.5481 90.0992 L204.2093 90.0992 "/>
<path d="M204.2093 90.0992 L204.8737 90.4314 "/>
<path d="M204.8737 90.4314 L205.2060 90.7637 "/>
<path d="M205.2060 90.7637 L205.5382 91.4281 "/>
<path d="M205.5382 91.4281 L205.5382 93.0893 "/>
<path d="M205.5382 93.0893 L205.2060 93.7538 "/>
<path d="M205.2060 93.7538 L204.8737 94.0860 "/>
<path d="M204.8737 94.0860 L204.2093 94.4183 "/>
<path d="M204.2093 94.4183 L202.5481 94.4183 "/>
<path d="M202.5481 94.4183 L201.8836 94.0860 "/>
<path d="M201.8836 94.0860 L201.5514 93.7538 "/>
<path d="M208.8606 94.0860 L208.8606 94.4183 "/>
<path d="M208.8606 94.4183 L208.5283 95.0827 "/>
<path d="M208.5283 95.0827 L208.1961 95.4150 "/>
<path d="M214.8408 87.4413 L213.5119 87.4413 "/>
<path d="M213.5119 87.4413 L212.8474 87.7735 "/>
<path d="M212.8474 87.7735 L212.5152 88.1058 "/>
<path d="M212.5152 88.1058 L211.8507 89.1025 "/>
<path d="M211.8507 89.1025 L211.5185 90.4314 "/>
<path d="M211.5185 90.4314 L211.5185 93.0893 "/>
<path d="M211.5185 93.0893 L211.8507 93.7538 "/>
<path d="M211.8507 93.7538 L212.1829 94.0860 "/>
<path d="M212.1829 94.0860 L212.8474 94.4183 "/>
<path d="M212.8474 94.4183 L214.1764 94.4183 "/>
<path d="M214.1764 94.4183 L214.8408 94.0860 "/>
<path d="M214.8408 94.0860 L215.1731 93.7538 "/>
<path d="M215.1731 93.7538 L215.5053 93.0893 "/>
<path d="M215.5053 93.0893 L215.5053 91.4281 "/>
<path d="M215.5053 91.4281 L215.1731 90.7637 "/>
<path d="M215.1731 90.7637 L214.8408 90.4314 "/>
<path d="M214.8408 90.4314 L214.1764 90.0992 "/>
<path d="M214.1764 90.0992 L212.8474 90.0992 "/>
<path d="M212.8474 90.0992 L212.1829 90.4314 "/>
<path d="M212.1829 90.4314 L211.8507 90.7637 "/>
<path d="M211.8507 90.7637 L211.5185 91.4281 "/>
<path d="M217.4987 87.4413 L219.8244 94.4183 "/>
<path d="M219.8244 94.4183 L222.1501 87.4413 "/>
</g><text x="185.4930" y="94.3149" transform="scale(-1 1) translate(-370.986047 0)" textLength="15.3660" font-size="9.3026" lengthAdjust="spacingAndGlyphs" text-anchor="middle" opacity="0.01" style="font-family:monospace">D1</text>
<g class="stroked-text"><desc>D1</desc>
<path d="M180.3434 93.9996 L180.3434 87.0227 "/>
<path d="M180.3434 87.0227 L182.0045 87.0227 "/>
<path d="M182.0045 87.0227 L183.0013 87.3549 "/>
<path d="M183.0013 87.3549 L183.6657 88.0194 "/>
<path d="M183.6657 88.0194 L183.9980 88.6839 "/>
<path d="M183.9980 88.6839 L184.3302 90.0128 "/>
<path d="M184.3302 90.0128 L184.3302 91.0095 "/>
<path d="M184.3302 91.0095 L183.9980 92.3385 "/>
<path d="M183.9980 92.3385 L183.6657 93.0029 "/>
<path d="M183.6657 93.0029 L183.0013 93.6674 "/>
<path d="M183.0013 93.6674 L182.0045 93.9996 "/>
<path d="M182.0045 93.9996 L180.3434 93.9996 "/>
<path d="M190.9749 93.9996 L186.9881 93.9996 "/>
<path d="M188.9815 93.9996 L188.9815 87.0227 "/>
<path d="M188.9815 87.0227 L188.3170 88.0194 "/>
<path d="M188.3170 88.0194 L187.6526 88.6839 "/>
<path d="M187.6526 88.6839 L186.9881 89.0161 "/>
</g><text x="142.7242" y="79.4539" transform="scale(-1 1) translate(-285.448321 0)" textLength="27.3265" font-size="9.3026" lengthAdjust="spacingAndGlyphs" text-anchor="middle" opacity="0.01" style="font-family:monospace">10uF</text>
<g class="stroked-text"><desc>10uF</desc>
<path d="M135.2488 79.1387 L131.2620 79.1387 "/>
<path d="M133.2554 79.1387 L133.2554 72.1617 "/>
<path d="M133.2554 72.1617 L132.5909 73.1584 "/>
<path d="M132.5909 73.1584 L131.9265 73.8229 "/>
<path d="M131.9265 73.8229 L131.2620 74.1551 "/>
<path d="M139.5679 72.1617 L140.2324 72.1617 "/>
<path d="M140.2324 72.1617 L140.8969 72.4939 "/>
<path d="M140.8969 72.4939 L141.2291 72.8262 "/>
<path d="M141.2291 72.8262 L141.5613 73.4907 "/>
<path d="M141.5613 73.4907 L141.8936 74.8196 "/>
<path d="M141.8936 74.8196 L141.8936 76.4808 "/>
<path d="M141.8936 76.4808 L141.5613 77.8097 "/>
<path d="M141.5613 77.8097 L141.2291 78.4742 "/>
<path d="M141.2291 78.4742 L140.8969 78.8065 "/>
<path d="M140.8969 78.8065 L140.2324 79.1387 "/>
<path d="M140.2324 79.1387 L139.5679 79.1387 "/>
<path d="M139.5679 79.1387 L138.9034 78.8065 "/>
<path d="M138.9034 78.8065 L138.5712 78.4742 "/>
<path d="M138.5712 78.4742 L138.2390 77.8097 "/>
<path d="M138.2390 77.8097 L137.9067 76.4808 "/>
<path d="M137.9067 76.4808 L137.9067 74.8196 "/>
<path d="M137.9067 74.8196 L138.2390 73.4907 "/>
<path d="M138.2390 73.4907 L138.5712 72.8262 "/>
<path d="M138.5712 72.8262 L138.9034 72.4939 "/>
<path d="M138.9034 72.4939 L139.5679 72.1617 "/>
<path d="M147.8738 74.4874 L147.8738 79.1387 "/>
<path d="M144.8837 74.4874 L144.8837 78.1420 "/>
<path d="M144.8837 78.1420 L145.2159 78.8065 "/>
<path d="M145.2159 78.8065 L145.8804 79.1387 "/>
<path d="M145.8804 79.1387 L146.8771 79.1387 "/>
<path d="M146.8771 79.1387 L147.5416 78.8065 "/>
<path d="M147.5416 78.8065 L147.8738 78.4742 "/>
<path d="M153.5219 75.4841 L151.1962 75.4841 "/>
<path d="M151.1962 79.1387 L151.1962 72.1617 "/>
<path d="M151.1962 72.1617 L154.5186 72.1617 "/>
</g></g>
<g style="fill:#000084; fill-opacity:0.01;  stroke:#000084; stroke-width:0.5582; stroke-opacity:1;  stroke-linecap:round; stroke-linejoin:round;">
<text x="142.7242" y="65.9884" transform="scale(-1 1) translate(-285.448321 0)" textLength="7.7876" font-size="4.6513" lengthAdjust="spacingAndGlyphs" text-anchor="middle" opacity="0.01" style="font-family:monospace">C1</text>
<g class="stroked-text"><desc>C1</desc>
<path d="M142.1427 65.4967 L141.9766 65.6628 "/>
<path d="M141.9766 65.6628 L141.4783 65.8289 "/>
<path d="M141.4783 65.8289 L141.1460 65.8289 "/>
<path d="M141.1460 65.8289 L140.6477 65.6628 "/>
<path d="M140.6477 65.6628 L140.3155 65.3306 "/>
<path d="M140.3155 65.3306 L140.1493 64.9983 "/>
<path d="M140.1493 64.9983 L139.9832 64.3339 "/>
<path d="M139.9832 64.3339 L139.9832 63.8355 "/>
<path d="M139.9832 63.8355 L140.1493 63.1710 "/>
<path d="M140.1493 63.1710 L140.3155 62.8388 "/>
<path d="M140.3155 62.8388 L140.6477 62.5066 "/>
<path d="M140.6477 62.5066 L141.1460 62.3404 "/>
<path d="M141.1460 62.3404 L141.4783 62.3404 "/>
<path d="M141.4783 62.3404 L141.9766 62.5066 "/>
<path d="M141.9766 62.5066 L142.1427 62.6727 "/>
<path d="M145.4651 65.8289 L143.4717 65.8289 "/>
<path d="M144.4684 65.8289 L144.4684 62.3404 "/>
<path d="M144.4684 62.3404 L144.1362 62.8388 "/>
<path d="M144.1362 62.8388 L143.8039 63.1710 "/>
<path d="M143.8039 63.1710 L143.4717 63.3371 "/>
</g></g>
<g style="fill:#000084; fill-opacity:0.0;  stroke:#000084; stroke-width:1.7722; stroke-opacity:1;  stroke-linecap:round; stroke-linejoin:round;">
<g transform="rotate(-90.000000 148.5011 120.0111)">
<text x="148.5011" y="124.4415" transform="scale(-1 1) translate(-297.002193 0)" textLength="25.0633" font-size="11.8143" lengthAdjust="spacingAndGlyphs" text-anchor="middle" opacity="0.01" style="font-family:monospace">IC1</text>
</g>
<g class="stroked-text"><desc>IC1</desc>
<path d="M144.4941 111.3613 L153.3549 111.3613 "/>
<path d="M145.3380 120.6440 L144.9160 120.2220 "/>
<path d="M144.9160 120.2220 L144.4941 118.9562 "/>
<path d="M144.4941 118.9562 L144.4941 118.1123 "/>
<path d="M144.4941 118.1123 L144.9160 116.8465 "/>
<path d="M144.9160 116.8465 L145.7599 116.0026 "/>
<path d="M145.7599 116.0026 L146.6038 115.5807 "/>
<path d="M146.6038 115.5807 L148.2916 115.1587 "/>
<path d="M148.2916 115.1587 L149.5574 115.1587 "/>
<path d="M149.5574 115.1587 L151.2451 115.5807 "/>
<path d="M151.2451 115.5807 L152.0890 116.0026 "/>
<path d="M152.0890 116.0026 L152.9329 116.8465 "/>
<path d="M152.9329 116.8465 L153.3549 118.1123 "/>
<path d="M153.3549 118.1123 L153.3549 118.9562 "/>
<path d="M153.3549 118.9562 L152.9329 120.2220 "/>
<path d="M152.9329 120.2220 L152.5110 120.6440 "/>
<path d="M144.4941 129.0828 L144.4941 124.0195 "/>
<path d="M144.4941 126.5512 L153.3549 126.5512 "/>
<path d="M153.3549 126.5512 L152.0890 125.7073 "/>
<path d="M152.0890 125.7073 L151.2451 124.8634 "/>
<path d="M151.2451 124.8634 L150.8232 124.0195 "/>
</g></g>
<g style="fill:#000084; fill-opacity:0.01;  stroke:#000084; stroke-width:1.0465; stroke-opacity:1;  stroke-linecap:round; stroke-linejoin:round;">
<text x="143.1846" y="93.6311" transform="scale(-1 1) translate(-286.369282 0)" textLength="33.9712" font-size="9.3026" lengthAdjust="spacingAndGlyphs" text-anchor="middle" opacity="0.01" style="font-family:monospace">100nF</text>
<g class="stroked-text"><desc>100nF</desc>
<path d="M132.3869 93.3159 L128.4001 93.3159 "/>
<path d="M130.3935 93.3159 L130.3935 86.3389 "/>
<path d="M130.3935 86.3389 L129.7290 87.3356 "/>
<path d="M129.7290 87.3356 L129.0646 88.0001 "/>
<path d="M129.0646 88.0001 L128.4001 88.3323 "/>
<path d="M136.7060 86.3389 L137.3705 86.3389 "/>
<path d="M137.3705 86.3389 L138.0350 86.6712 "/>
<path d="M138.0350 86.6712 L138.3672 87.0034 "/>
<path d="M138.3672 87.0034 L138.6994 87.6679 "/>
<path d="M138.6994 87.6679 L139.0317 88.9968 "/>
<path d="M139.0317 88.9968 L139.0317 90.6580 "/>
<path d="M139.0317 90.6580 L138.6994 91.9869 "/>
<path d="M138.6994 91.9869 L138.3672 92.6514 "/>
<path d="M138.3672 92.6514 L138.0350 92.9837 "/>
<path d="M138.0350 92.9837 L137.3705 93.3159 "/>
<path d="M137.3705 93.3159 L136.7060 93.3159 "/>
<path d="M136.7060 93.3159 L136.0416 92.9837 "/>
<path d="M136.0416 92.9837 L135.7093 92.6514 "/>
<path d="M135.7093 92.6514 L135.3771 91.9869 "/>
<path d="M135.3771 91.9869 L135.0448 90.6580 "/>
<path d="M135.0448 90.6580 L135.0448 88.9968 "/>
<path d="M135.0448 88.9968 L135.3771 87.6679 "/>
<path d="M135.3771 87.6679 L135.7093 87.0034 "/>
<path d="M135.7093 87.0034 L136.0416 86.6712 "/>
<path d="M136.0416 86.6712 L136.7060 86.3389 "/>
<path d="M143.3508 86.3389 L144.0152 86.3389 "/>
<path d="M144.0152 86.3389 L144.6797 86.6712 "/>
<path d="M144.6797 86.6712 L145.0119 87.0034 "/>
<path d="M145.0119 87.0034 L145.3442 87.6679 "/>
<path d="M145.3442 87.6679 L145.6764 88.9968 "/>
<path d="M145.6764 88.9968 L145.6764 90.6580 "/>
<path d="M145.6764 90.6580 L145.3442 91.9869 "/>
<path d="M145.3442 91.9869 L145.0119 92.6514 "/>
<path d="M145.0119 92.6514 L144.6797 92.9837 "/>
<path d="M144.6797 92.9837 L144.0152 93.3159 "/>
<path d="M144.0152 93.3159 L143.3508 93.3159 "/>
<path d="M143.3508 93.3159 L142.6863 92.9837 "/>
<path d="M142.6863 92.9837 L142.3541 92.6514 "/>
<path d="M142.3541 92.6514 L142.0218 91.9869 "/>
<path d="M142.0218 91.9869 L141.6896 90.6580 "/>
<path d="M141.6896 90.6580 L141.6896 88.9968 "/>
<path d="M141.6896 88.9968 L142.0218 87.6679 "/>
<path d="M142.0218 87.6679 L142.3541 87.0034 "/>
<path d="M142.3541 87.0034 L142.6863 86.6712 "/>
<path d="M142.6863 86.6712 L143.3508 86.3389 "/>
<path d="M148.6666 88.6646 L148.6666 93.3159 "/>
<path d="M148.6666 89.3291 L148.9988 88.9968 "/>
<path d="M148.9988 88.9968 L149.6633 88.6646 "/>
<path d="M149.6633 88.6646 L150.6600 88.6646 "/>
<path d="M150.6600 88.6646 L151.3244 88.9968 "/>
<path d="M151.3244 88.9968 L151.6567 89.6613 "/>
<path d="M151.6567 89.6613 L151.6567 93.3159 "/>
<path d="M157.3047 89.6613 L154.9791 89.6613 "/>
<path d="M154.9791 93.3159 L154.9791 86.3389 "/>
<path d="M154.9791 86.3389 L158.3014 86.3389 "/>
</g></g>
<g style="fill:#000084; fill-opacity:0.01;  stroke:#000084; stroke-width:0.5582; stroke-opacity:1;  stroke-linecap:round; stroke-linejoin:round;">
<text x="143.1846" y="80.1656" transform="scale(-1 1) translate(-286.369282 0)" textLength="7.7876" font-size="4.6513" lengthAdjust="spacingAndGlyphs" text-anchor="middle" opacity="0.01" style="font-family:monospace">C2</text>
<g class="stroked-text"><desc>C2</desc>
<path d="M142.6032 79.6739 L142.4371 79.8400 "/>
<path d="M142.4371 79.8400 L141.9388 80.0061 "/>
<path d="M141.9388 80.0061 L141.6065 80.0061 "/>
<path d="M141.6065 80.0061 L141.1082 79.8400 "/>
<path d="M141.1082 79.8400 L140.7759 79.5078 "/>
<path d="M140.7759 79.5078 L140.6098 79.1755 "/>
<path d="M140.6098 79.1755 L140.4437 78.5111 "/>
<path d="M140.4437 78.5111 L140.4437 78.0127 "/>
<path d="M140.4437 78.0127 L140.6098 77.3482 "/>
<path d="M140.6098 77.3482 L140.7759 77.0160 "/>
<path d="M140.7759 77.0160 L141.1082 76.6838 "/>
<path d="M141.1082 76.6838 L141.6065 76.5176 "/>
<path d="M141.6065 76.5176 L141.9388 76.5176 "/>
<path d="M141.9388 76.5176 L142.4371 76.6838 "/>
<path d="M142.4371 76.6838 L142.6032 76.8499 "/>
<path d="M143.9322 76.8499 L144.0983 76.6838 "/>
<path d="M144.0983 76.6838 L144.4305 76.5176 "/>
<path d="M144.4305 76.5176 L145.2611 76.5176 "/>
<path d="M145.2611 76.5176 L145.5934 76.6838 "/>
<path d="M145.5934 76.6838 L145.7595 76.8499 "/>
<path d="M145.7595 76.8499 L145.9256 77.1821 "/>
<path d="M145.9256 77.1821 L145.9256 77.5144 "/>
<path d="M145.9256 77.5144 L145.7595 78.0127 "/>
<path d="M145.7595 78.0127 L143.7661 80.0061 "/>
<path d="M143.7661 80.0061 L145.9256 80.0061 "/>
</g></g>
<g style="fill:#000084; fill-opacity:0.0;  stroke:#000084; stroke-width:0.6977; stroke-opacity:1;  stroke-linecap:round; stroke-linejoin:round;">
<path d="M171.2181 83.5703 L171.2181 62.6394 "/>
<path d="M182.7340 73.1120 L176.4429 73.1120 "/>
<path d="M182.7340 73.1120 L190.7619 78.3398 "/>
<path d="M182.7340 73.1120 L190.7619 67.5297 "/>
<path d="M182.7340 67.5297 L182.7340 78.6943 "/>
<path d="M190.7619 78.3398 L190.7619 67.5297 "/>
<path d="M190.7619 73.1120 L197.7265 73.1120 "/>
<path d="M203.3122 83.5703 L171.2181 83.5703 "/>
<path d="M203.3122 62.6394 L171.2181 62.6394 "/>
<path d="M203.3122 62.6394 L203.3122 83.5703 "/>
<path d="M135.7472 68.6047 L135.7472 59.8835 "/>
<path d="M135.7472 59.8835 L149.7011 59.8835 "/>
<path d="M149.7011 68.6047 L135.7472 68.6047 "/>
<path d="M149.7011 59.8835 L149.7011 68.6047 "/>
<path d="M166.7459 138.4303 L130.2563 138.4303 "/>
<path d="M139.1171 138.4303 L130.2563 129.5695 "/>
<path d="M130.2563 138.4303 L130.2563 101.5919 "/>
<path d="M166.7459 101.5919 L166.7459 138.4303 "/>
<path d="M130.2563 101.5919 L166.7459 101.5919 "/>
<path d="M136.2077 82.7819 L136.2077 74.0607 "/>
<path d="M136.2077 74.0607 L150.1616 74.0607 "/>
<path d="M150.1616 82.7819 L136.2077 82.7819 "/>
<path d="M150.1616 74.0607 L150.1616 82.7819 "/>
<g>
</g>
<g>
</g>
<g>
</g>
<g>
</g>
<g>
</g>
<g>
</g>
<g>
</g>
<g>
</g>
<g>
</g>
<g>
</g>
<g>
</g>
<g>
</g>
<g>
</g>
</g> 
<svg:g><svg:g><svg:title>SVG Image created as FRAM01-Edge_Cuts.svg date 2023/09/06 14:45:37 </svg:title>
  <svg:desc>Image generated by PCBNEW </svg:desc>
<svg:g style="fill:#C2C200; fill-opacity:1.0000;stroke:#C2C200; stroke-opacity:1.0000; stroke-linecap:round; stroke-linejoin:round;" transform="translate(0 0) scale(1 1)">
</svg:g>
<svg:g style="fill:#C2C200; fill-opacity:0.0;  stroke:#C2C200; stroke-width:0.0000; stroke-opacity:1;  stroke-linecap:round; stroke-linejoin:round;">
</svg:g>
<svg:g style="fill:#C2C200; fill-opacity:0.0;  stroke:#C2C200; stroke-width:0.8861; stroke-opacity:1;  stroke-linecap:round; stroke-linejoin:round;">
<svg:path d="M79.3872 209.5606 L217.6150 209.5606 "/>
<svg:path d="M217.6150 0.4466 L217.6150 209.5606 "/>
<svg:path d="M79.3872 0.4466 L79.3872 209.5606 "/>
<svg:path d="M217.6150 0.4466 L79.3872 0.4466 "/>
<svg:g>
</svg:g>
<svg:g>
</svg:g>
<svg:g>
</svg:g>
<svg:g>
</svg:g>
<svg:g>
</svg:g>
<svg:g>
</svg:g>
<svg:g>
</svg:g>
<svg:g>
</svg:g>
<svg:g>
</svg:g>
<svg:g>
</svg:g>
<svg:g>
</svg:g>
<svg:g>
</svg:g>
<svg:g>
</svg:g>
</svg:g> 
</svg:g></svg:g></svg>
