<?xml version='1.0' encoding='ASCII' standalone='yes'?>
<svg xmlns:svg="http://www.w3.org/2000/svg" xmlns="http://www.w3.org/2000/svg" xmlns:xlink="http://www.w3.org/1999/xlink" version="1.1" width="297.0022mm" height="210.0072mm" viewBox="0.0000 0.0000 297.0022 210.0072">
<title>SVG Image created as FRAM01-B_Fab.svg date 2023/07/09 08:37:21 </title>
  <desc>Image generated by PCBNEW </desc>
<g style="fill:#000084; fill-opacity:1.0000;stroke:#000084; stroke-opacity:1.0000; stroke-linecap:round; stroke-linejoin:round;" transform="translate(0 0) scale(1 1)">
</g>
<g style="fill:#000084; fill-opacity:0.0;  stroke:#000084; stroke-width:0.0000; stroke-opacity:1;  stroke-linecap:round; stroke-linejoin:round;">
</g>
<g style="fill:#000084; fill-opacity:0.01;  stroke:#000084; stroke-width:1.7722; stroke-opacity:1;  stroke-linecap:round; stroke-linejoin:round;">
<text x="171.5391" y="112.9783" transform="scale(-1 1) translate(-343.078143 0)" textLength="24.1772" font-size="11.8143" lengthAdjust="spacingAndGlyphs" text-anchor="middle" opacity="0.01" style="font-family:monospace">IC1</text>
<g class="stroked-text"><desc>IC1</desc>
<path d="M162.8893 112.5549 L162.8893 103.6941 "/>
<path d="M172.1720 111.7110 L171.7500 112.1330 "/>
<path d="M171.7500 112.1330 L170.4842 112.5549 "/>
<path d="M170.4842 112.5549 L169.6403 112.5549 "/>
<path d="M169.6403 112.5549 L168.3745 112.1330 "/>
<path d="M168.3745 112.1330 L167.5306 111.2891 "/>
<path d="M167.5306 111.2891 L167.1087 110.4452 "/>
<path d="M167.1087 110.4452 L166.6868 108.7574 "/>
<path d="M166.6868 108.7574 L166.6868 107.4916 "/>
<path d="M166.6868 107.4916 L167.1087 105.8039 "/>
<path d="M167.1087 105.8039 L167.5306 104.9600 "/>
<path d="M167.5306 104.9600 L168.3745 104.1161 "/>
<path d="M168.3745 104.1161 L169.6403 103.6941 "/>
<path d="M169.6403 103.6941 L170.4842 103.6941 "/>
<path d="M170.4842 103.6941 L171.7500 104.1161 "/>
<path d="M171.7500 104.1161 L172.1720 104.5380 "/>
<path d="M180.6108 112.5549 L175.5475 112.5549 "/>
<path d="M178.0792 112.5549 L178.0792 103.6941 "/>
<path d="M178.0792 103.6941 L177.2353 104.9600 "/>
<path d="M177.2353 104.9600 L176.3914 105.8039 "/>
<path d="M176.3914 105.8039 L175.5475 106.2258 "/>
</g></g>
<g style="fill:#000084; fill-opacity:0.01;  stroke:#000084; stroke-width:1.0465; stroke-opacity:1;  stroke-linecap:round; stroke-linejoin:round;">
<text x="178.6277" y="96.5056" transform="scale(-1 1) translate(-357.255358 0)" textLength="72.3197" font-size="9.3026" lengthAdjust="spacingAndGlyphs" text-anchor="middle" opacity="0.01" style="font-family:monospace">BZV55C-5,6V</text>
<g class="stroked-text"><desc>BZV55C-5,6V</desc>
<path d="M147.0652 92.5358 L148.0619 92.8680 "/>
<path d="M148.0619 92.8680 L148.3941 93.2003 "/>
<path d="M148.3941 93.2003 L148.7264 93.8648 "/>
<path d="M148.7264 93.8648 L148.7264 94.8615 "/>
<path d="M148.7264 94.8615 L148.3941 95.5259 "/>
<path d="M148.3941 95.5259 L148.0619 95.8582 "/>
<path d="M148.0619 95.8582 L147.3974 96.1904 "/>
<path d="M147.3974 96.1904 L144.7395 96.1904 "/>
<path d="M144.7395 96.1904 L144.7395 89.2134 "/>
<path d="M144.7395 89.2134 L147.0652 89.2134 "/>
<path d="M147.0652 89.2134 L147.7296 89.5457 "/>
<path d="M147.7296 89.5457 L148.0619 89.8779 "/>
<path d="M148.0619 89.8779 L148.3941 90.5424 "/>
<path d="M148.3941 90.5424 L148.3941 91.2069 "/>
<path d="M148.3941 91.2069 L148.0619 91.8713 "/>
<path d="M148.0619 91.8713 L147.7296 92.2036 "/>
<path d="M147.7296 92.2036 L147.0652 92.5358 "/>
<path d="M147.0652 92.5358 L144.7395 92.5358 "/>
<path d="M151.0520 89.2134 L155.7033 89.2134 "/>
<path d="M155.7033 89.2134 L151.0520 96.1904 "/>
<path d="M151.0520 96.1904 L155.7033 96.1904 "/>
<path d="M157.3645 89.2134 L159.6902 96.1904 "/>
<path d="M159.6902 96.1904 L162.0158 89.2134 "/>
<path d="M167.6639 89.2134 L164.3415 89.2134 "/>
<path d="M164.3415 89.2134 L164.0093 92.5358 "/>
<path d="M164.0093 92.5358 L164.3415 92.2036 "/>
<path d="M164.3415 92.2036 L165.0060 91.8713 "/>
<path d="M165.0060 91.8713 L166.6672 91.8713 "/>
<path d="M166.6672 91.8713 L167.3316 92.2036 "/>
<path d="M167.3316 92.2036 L167.6639 92.5358 "/>
<path d="M167.6639 92.5358 L167.9961 93.2003 "/>
<path d="M167.9961 93.2003 L167.9961 94.8615 "/>
<path d="M167.9961 94.8615 L167.6639 95.5259 "/>
<path d="M167.6639 95.5259 L167.3316 95.8582 "/>
<path d="M167.3316 95.8582 L166.6672 96.1904 "/>
<path d="M166.6672 96.1904 L165.0060 96.1904 "/>
<path d="M165.0060 96.1904 L164.3415 95.8582 "/>
<path d="M164.3415 95.8582 L164.0093 95.5259 "/>
<path d="M174.3086 89.2134 L170.9862 89.2134 "/>
<path d="M170.9862 89.2134 L170.6540 92.5358 "/>
<path d="M170.6540 92.5358 L170.9862 92.2036 "/>
<path d="M170.9862 92.2036 L171.6507 91.8713 "/>
<path d="M171.6507 91.8713 L173.3119 91.8713 "/>
<path d="M173.3119 91.8713 L173.9764 92.2036 "/>
<path d="M173.9764 92.2036 L174.3086 92.5358 "/>
<path d="M174.3086 92.5358 L174.6408 93.2003 "/>
<path d="M174.6408 93.2003 L174.6408 94.8615 "/>
<path d="M174.6408 94.8615 L174.3086 95.5259 "/>
<path d="M174.3086 95.5259 L173.9764 95.8582 "/>
<path d="M173.9764 95.8582 L173.3119 96.1904 "/>
<path d="M173.3119 96.1904 L171.6507 96.1904 "/>
<path d="M171.6507 96.1904 L170.9862 95.8582 "/>
<path d="M170.9862 95.8582 L170.6540 95.5259 "/>
<path d="M181.6178 95.5259 L181.2856 95.8582 "/>
<path d="M181.2856 95.8582 L180.2889 96.1904 "/>
<path d="M180.2889 96.1904 L179.6244 96.1904 "/>
<path d="M179.6244 96.1904 L178.6277 95.8582 "/>
<path d="M178.6277 95.8582 L177.9632 95.1937 "/>
<path d="M177.9632 95.1937 L177.6310 94.5292 "/>
<path d="M177.6310 94.5292 L177.2987 93.2003 "/>
<path d="M177.2987 93.2003 L177.2987 92.2036 "/>
<path d="M177.2987 92.2036 L177.6310 90.8746 "/>
<path d="M177.6310 90.8746 L177.9632 90.2102 "/>
<path d="M177.9632 90.2102 L178.6277 89.5457 "/>
<path d="M178.6277 89.5457 L179.6244 89.2134 "/>
<path d="M179.6244 89.2134 L180.2889 89.2134 "/>
<path d="M180.2889 89.2134 L181.2856 89.5457 "/>
<path d="M181.2856 89.5457 L181.6178 89.8779 "/>
<path d="M184.6080 93.5325 L189.9237 93.5325 "/>
<path d="M196.5685 89.2134 L193.2461 89.2134 "/>
<path d="M193.2461 89.2134 L192.9139 92.5358 "/>
<path d="M192.9139 92.5358 L193.2461 92.2036 "/>
<path d="M193.2461 92.2036 L193.9106 91.8713 "/>
<path d="M193.9106 91.8713 L195.5718 91.8713 "/>
<path d="M195.5718 91.8713 L196.2362 92.2036 "/>
<path d="M196.2362 92.2036 L196.5685 92.5358 "/>
<path d="M196.5685 92.5358 L196.9007 93.2003 "/>
<path d="M196.9007 93.2003 L196.9007 94.8615 "/>
<path d="M196.9007 94.8615 L196.5685 95.5259 "/>
<path d="M196.5685 95.5259 L196.2362 95.8582 "/>
<path d="M196.2362 95.8582 L195.5718 96.1904 "/>
<path d="M195.5718 96.1904 L193.9106 96.1904 "/>
<path d="M193.9106 96.1904 L193.2461 95.8582 "/>
<path d="M193.2461 95.8582 L192.9139 95.5259 "/>
<path d="M200.2231 95.8582 L200.2231 96.1904 "/>
<path d="M200.2231 96.1904 L199.8909 96.8549 "/>
<path d="M199.8909 96.8549 L199.5586 97.1871 "/>
<path d="M206.2033 89.2134 L204.8744 89.2134 "/>
<path d="M204.8744 89.2134 L204.2099 89.5457 "/>
<path d="M204.2099 89.5457 L203.8777 89.8779 "/>
<path d="M203.8777 89.8779 L203.2132 90.8746 "/>
<path d="M203.2132 90.8746 L202.8810 92.2036 "/>
<path d="M202.8810 92.2036 L202.8810 94.8615 "/>
<path d="M202.8810 94.8615 L203.2132 95.5259 "/>
<path d="M203.2132 95.5259 L203.5455 95.8582 "/>
<path d="M203.5455 95.8582 L204.2099 96.1904 "/>
<path d="M204.2099 96.1904 L205.5389 96.1904 "/>
<path d="M205.5389 96.1904 L206.2033 95.8582 "/>
<path d="M206.2033 95.8582 L206.5356 95.5259 "/>
<path d="M206.5356 95.5259 L206.8678 94.8615 "/>
<path d="M206.8678 94.8615 L206.8678 93.2003 "/>
<path d="M206.8678 93.2003 L206.5356 92.5358 "/>
<path d="M206.5356 92.5358 L206.2033 92.2036 "/>
<path d="M206.2033 92.2036 L205.5389 91.8713 "/>
<path d="M205.5389 91.8713 L204.2099 91.8713 "/>
<path d="M204.2099 91.8713 L203.5455 92.2036 "/>
<path d="M203.5455 92.2036 L203.2132 92.5358 "/>
<path d="M203.2132 92.5358 L202.8810 93.2003 "/>
<path d="M208.8612 89.2134 L211.1869 96.1904 "/>
<path d="M211.1869 96.1904 L213.5126 89.2134 "/>
</g><text x="178.6277" y="60.9231" transform="scale(-1 1) translate(-357.255358 0)" textLength="14.8427" font-size="9.3026" lengthAdjust="spacingAndGlyphs" text-anchor="middle" opacity="0.01" style="font-family:monospace">D1</text>
<g class="stroked-text"><desc>D1</desc>
<path d="M173.4780 60.6078 L173.4780 53.6309 "/>
<path d="M173.4780 53.6309 L175.1392 53.6309 "/>
<path d="M175.1392 53.6309 L176.1359 53.9631 "/>
<path d="M176.1359 53.9631 L176.8004 54.6276 "/>
<path d="M176.8004 54.6276 L177.1326 55.2920 "/>
<path d="M177.1326 55.2920 L177.4649 56.6210 "/>
<path d="M177.4649 56.6210 L177.4649 57.6177 "/>
<path d="M177.4649 57.6177 L177.1326 58.9466 "/>
<path d="M177.1326 58.9466 L176.8004 59.6111 "/>
<path d="M176.8004 59.6111 L176.1359 60.2756 "/>
<path d="M176.1359 60.2756 L175.1392 60.6078 "/>
<path d="M175.1392 60.6078 L173.4780 60.6078 "/>
<path d="M184.1096 60.6078 L180.1228 60.6078 "/>
<path d="M182.1162 60.6078 L182.1162 53.6309 "/>
<path d="M182.1162 53.6309 L181.4517 54.6276 "/>
<path d="M181.4517 54.6276 L180.7872 55.2920 "/>
<path d="M180.7872 55.2920 L180.1228 55.6243 "/>
</g><text x="148.5011" y="166.2894" transform="scale(-1 1) translate(-297.002193 0)" textLength="26.8032" font-size="9.3026" lengthAdjust="spacingAndGlyphs" text-anchor="middle" opacity="0.01" style="font-family:monospace">10uF</text>
<g class="stroked-text"><desc>10uF</desc>
<path d="M141.0258 165.9741 L137.0389 165.9741 "/>
<path d="M139.0323 165.9741 L139.0323 158.9972 "/>
<path d="M139.0323 158.9972 L138.3679 159.9939 "/>
<path d="M138.3679 159.9939 L137.7034 160.6583 "/>
<path d="M137.7034 160.6583 L137.0389 160.9906 "/>
<path d="M145.3449 158.9972 L146.0093 158.9972 "/>
<path d="M146.0093 158.9972 L146.6738 159.3294 "/>
<path d="M146.6738 159.3294 L147.0060 159.6616 "/>
<path d="M147.0060 159.6616 L147.3383 160.3261 "/>
<path d="M147.3383 160.3261 L147.6705 161.6550 "/>
<path d="M147.6705 161.6550 L147.6705 163.3162 "/>
<path d="M147.6705 163.3162 L147.3383 164.6452 "/>
<path d="M147.3383 164.6452 L147.0060 165.3097 "/>
<path d="M147.0060 165.3097 L146.6738 165.6419 "/>
<path d="M146.6738 165.6419 L146.0093 165.9741 "/>
<path d="M146.0093 165.9741 L145.3449 165.9741 "/>
<path d="M145.3449 165.9741 L144.6804 165.6419 "/>
<path d="M144.6804 165.6419 L144.3481 165.3097 "/>
<path d="M144.3481 165.3097 L144.0159 164.6452 "/>
<path d="M144.0159 164.6452 L143.6837 163.3162 "/>
<path d="M143.6837 163.3162 L143.6837 161.6550 "/>
<path d="M143.6837 161.6550 L144.0159 160.3261 "/>
<path d="M144.0159 160.3261 L144.3481 159.6616 "/>
<path d="M144.3481 159.6616 L144.6804 159.3294 "/>
<path d="M144.6804 159.3294 L145.3449 158.9972 "/>
<path d="M153.6508 161.3228 L153.6508 165.9741 "/>
<path d="M150.6606 161.3228 L150.6606 164.9774 "/>
<path d="M150.6606 164.9774 L150.9929 165.6419 "/>
<path d="M150.9929 165.6419 L151.6574 165.9741 "/>
<path d="M151.6574 165.9741 L152.6541 165.9741 "/>
<path d="M152.6541 165.9741 L153.3185 165.6419 "/>
<path d="M153.3185 165.6419 L153.6508 165.3097 "/>
<path d="M159.2988 162.3195 L156.9731 162.3195 "/>
<path d="M156.9731 165.9741 L156.9731 158.9972 "/>
<path d="M156.9731 158.9972 L160.2955 158.9972 "/>
</g></g>
<g style="fill:#000084; fill-opacity:0.01;  stroke:#000084; stroke-width:0.5582; stroke-opacity:1;  stroke-linecap:round; stroke-linejoin:round;">
<text x="148.5011" y="152.8238" transform="scale(-1 1) translate(-297.002193 0)" textLength="7.5086" font-size="4.6513" lengthAdjust="spacingAndGlyphs" text-anchor="middle" opacity="0.01" style="font-family:monospace">C1</text>
<g class="stroked-text"><desc>C1</desc>
<path d="M147.9197 152.3321 L147.7536 152.4982 "/>
<path d="M147.7536 152.4982 L147.2552 152.6644 "/>
<path d="M147.2552 152.6644 L146.9230 152.6644 "/>
<path d="M146.9230 152.6644 L146.4246 152.4982 "/>
<path d="M146.4246 152.4982 L146.0924 152.1660 "/>
<path d="M146.0924 152.1660 L145.9263 151.8338 "/>
<path d="M145.9263 151.8338 L145.7601 151.1693 "/>
<path d="M145.7601 151.1693 L145.7601 150.6709 "/>
<path d="M145.7601 150.6709 L145.9263 150.0065 "/>
<path d="M145.9263 150.0065 L146.0924 149.6742 "/>
<path d="M146.0924 149.6742 L146.4246 149.3420 "/>
<path d="M146.4246 149.3420 L146.9230 149.1759 "/>
<path d="M146.9230 149.1759 L147.2552 149.1759 "/>
<path d="M147.2552 149.1759 L147.7536 149.3420 "/>
<path d="M147.7536 149.3420 L147.9197 149.5081 "/>
<path d="M151.2421 152.6644 L149.2486 152.6644 "/>
<path d="M150.2453 152.6644 L150.2453 149.1759 "/>
<path d="M150.2453 149.1759 L149.9131 149.6742 "/>
<path d="M149.9131 149.6742 L149.5809 150.0065 "/>
<path d="M149.5809 150.0065 L149.2486 150.1726 "/>
</g></g>
<g style="fill:#000084; fill-opacity:0.01;  stroke:#000084; stroke-width:1.0465; stroke-opacity:1;  stroke-linecap:round; stroke-linejoin:round;">
<text x="158.6735" y="152.1121" transform="scale(-1 1) translate(-317.347055 0)" textLength="33.4480" font-size="9.3026" lengthAdjust="spacingAndGlyphs" text-anchor="middle" opacity="0.01" style="font-family:monospace">100nF</text>
<g class="stroked-text"><desc>100nF</desc>
<path d="M147.8758 151.7969 L143.8890 151.7969 "/>
<path d="M145.8824 151.7969 L145.8824 144.8199 "/>
<path d="M145.8824 144.8199 L145.2179 145.8166 "/>
<path d="M145.2179 145.8166 L144.5535 146.4811 "/>
<path d="M144.5535 146.4811 L143.8890 146.8134 "/>
<path d="M152.1949 144.8199 L152.8594 144.8199 "/>
<path d="M152.8594 144.8199 L153.5239 145.1522 "/>
<path d="M153.5239 145.1522 L153.8561 145.4844 "/>
<path d="M153.8561 145.4844 L154.1883 146.1489 "/>
<path d="M154.1883 146.1489 L154.5206 147.4778 "/>
<path d="M154.5206 147.4778 L154.5206 149.1390 "/>
<path d="M154.5206 149.1390 L154.1883 150.4680 "/>
<path d="M154.1883 150.4680 L153.8561 151.1324 "/>
<path d="M153.8561 151.1324 L153.5239 151.4647 "/>
<path d="M153.5239 151.4647 L152.8594 151.7969 "/>
<path d="M152.8594 151.7969 L152.1949 151.7969 "/>
<path d="M152.1949 151.7969 L151.5304 151.4647 "/>
<path d="M151.5304 151.4647 L151.1982 151.1324 "/>
<path d="M151.1982 151.1324 L150.8660 150.4680 "/>
<path d="M150.8660 150.4680 L150.5337 149.1390 "/>
<path d="M150.5337 149.1390 L150.5337 147.4778 "/>
<path d="M150.5337 147.4778 L150.8660 146.1489 "/>
<path d="M150.8660 146.1489 L151.1982 145.4844 "/>
<path d="M151.1982 145.4844 L151.5304 145.1522 "/>
<path d="M151.5304 145.1522 L152.1949 144.8199 "/>
<path d="M158.8396 144.8199 L159.5041 144.8199 "/>
<path d="M159.5041 144.8199 L160.1686 145.1522 "/>
<path d="M160.1686 145.1522 L160.5008 145.4844 "/>
<path d="M160.5008 145.4844 L160.8331 146.1489 "/>
<path d="M160.8331 146.1489 L161.1653 147.4778 "/>
<path d="M161.1653 147.4778 L161.1653 149.1390 "/>
<path d="M161.1653 149.1390 L160.8331 150.4680 "/>
<path d="M160.8331 150.4680 L160.5008 151.1324 "/>
<path d="M160.5008 151.1324 L160.1686 151.4647 "/>
<path d="M160.1686 151.4647 L159.5041 151.7969 "/>
<path d="M159.5041 151.7969 L158.8396 151.7969 "/>
<path d="M158.8396 151.7969 L158.1752 151.4647 "/>
<path d="M158.1752 151.4647 L157.8429 151.1324 "/>
<path d="M157.8429 151.1324 L157.5107 150.4680 "/>
<path d="M157.5107 150.4680 L157.1785 149.1390 "/>
<path d="M157.1785 149.1390 L157.1785 147.4778 "/>
<path d="M157.1785 147.4778 L157.5107 146.1489 "/>
<path d="M157.5107 146.1489 L157.8429 145.4844 "/>
<path d="M157.8429 145.4844 L158.1752 145.1522 "/>
<path d="M158.1752 145.1522 L158.8396 144.8199 "/>
<path d="M164.1554 147.1456 L164.1554 151.7969 "/>
<path d="M164.1554 147.8101 L164.4877 147.4778 "/>
<path d="M164.4877 147.4778 L165.1522 147.1456 "/>
<path d="M165.1522 147.1456 L166.1489 147.1456 "/>
<path d="M166.1489 147.1456 L166.8133 147.4778 "/>
<path d="M166.8133 147.4778 L167.1456 148.1423 "/>
<path d="M167.1456 148.1423 L167.1456 151.7969 "/>
<path d="M172.7936 148.1423 L170.4679 148.1423 "/>
<path d="M170.4679 151.7969 L170.4679 144.8199 "/>
<path d="M170.4679 144.8199 L173.7903 144.8199 "/>
</g></g>
<g style="fill:#000084; fill-opacity:0.01;  stroke:#000084; stroke-width:0.5582; stroke-opacity:1;  stroke-linecap:round; stroke-linejoin:round;">
<text x="158.6735" y="138.6466" transform="scale(-1 1) translate(-317.347055 0)" textLength="7.5086" font-size="4.6513" lengthAdjust="spacingAndGlyphs" text-anchor="middle" opacity="0.01" style="font-family:monospace">C2</text>
<g class="stroked-text"><desc>C2</desc>
<path d="M158.0921 138.1549 L157.9260 138.3210 "/>
<path d="M157.9260 138.3210 L157.4276 138.4871 "/>
<path d="M157.4276 138.4871 L157.0954 138.4871 "/>
<path d="M157.0954 138.4871 L156.5971 138.3210 "/>
<path d="M156.5971 138.3210 L156.2648 137.9888 "/>
<path d="M156.2648 137.9888 L156.0987 137.6566 "/>
<path d="M156.0987 137.6566 L155.9326 136.9921 "/>
<path d="M155.9326 136.9921 L155.9326 136.4937 "/>
<path d="M155.9326 136.4937 L156.0987 135.8293 "/>
<path d="M156.0987 135.8293 L156.2648 135.4970 "/>
<path d="M156.2648 135.4970 L156.5971 135.1648 "/>
<path d="M156.5971 135.1648 L157.0954 134.9987 "/>
<path d="M157.0954 134.9987 L157.4276 134.9987 "/>
<path d="M157.4276 134.9987 L157.9260 135.1648 "/>
<path d="M157.9260 135.1648 L158.0921 135.3309 "/>
<path d="M159.4211 135.3309 L159.5872 135.1648 "/>
<path d="M159.5872 135.1648 L159.9194 134.9987 "/>
<path d="M159.9194 134.9987 L160.7500 134.9987 "/>
<path d="M160.7500 134.9987 L161.0823 135.1648 "/>
<path d="M161.0823 135.1648 L161.2484 135.3309 "/>
<path d="M161.2484 135.3309 L161.4145 135.6631 "/>
<path d="M161.4145 135.6631 L161.4145 135.9954 "/>
<path d="M161.4145 135.9954 L161.2484 136.4937 "/>
<path d="M161.2484 136.4937 L159.2549 138.4871 "/>
<path d="M159.2549 138.4871 L161.4145 138.4871 "/>
</g></g>
<g style="fill:#000084; fill-opacity:0.0;  stroke:#000084; stroke-width:0.6977; stroke-opacity:1;  stroke-linecap:round; stroke-linejoin:round;">
<path d="M189.7839 90.3031 L189.7839 126.7927 "/>
<path d="M153.2943 126.7927 L153.2943 90.3031 "/>
<path d="M189.7839 117.9319 L180.9231 126.7927 "/>
<path d="M153.2943 90.3031 L189.7839 90.3031 "/>
<path d="M189.7839 126.7927 L153.2943 126.7927 "/>
<path d="M194.6747 64.4116 L162.5806 64.4116 "/>
<path d="M174.0966 74.8841 L182.1244 80.1120 "/>
<path d="M174.0966 69.3019 L174.0966 80.4664 "/>
<path d="M174.0966 74.8841 L182.1244 69.3019 "/>
<path d="M194.6747 64.4116 L194.6747 85.3425 "/>
<path d="M194.6747 85.3425 L162.5806 85.3425 "/>
<path d="M182.1244 74.8841 L189.0890 74.8841 "/>
<path d="M182.1244 80.1120 L182.1244 69.3019 "/>
<path d="M174.0966 74.8841 L167.8054 74.8841 "/>
<path d="M162.5806 85.3425 L162.5806 64.4116 "/>
<path d="M155.4781 155.4402 L141.5241 155.4402 "/>
<path d="M141.5241 155.4402 L141.5241 146.7189 "/>
<path d="M155.4781 146.7189 L155.4781 155.4402 "/>
<path d="M141.5241 146.7189 L155.4781 146.7189 "/>
<path d="M151.6966 132.5417 L165.6505 132.5417 "/>
<path d="M151.6966 141.2629 L151.6966 132.5417 "/>
<path d="M165.6505 132.5417 L165.6505 141.2629 "/>
<path d="M165.6505 141.2629 L151.6966 141.2629 "/>
<g>
</g>
<g>
</g>
<g>
</g>
<g>
</g>
<g>
</g>
<g>
</g>
<g>
</g>
<g>
</g>
<g>
</g>
<g>
</g>
<g>
</g>
<g>
</g>
</g> 
<svg:g><svg:g><svg:title>SVG Image created as FRAM01-Edge_Cuts.svg date 2023/07/09 08:37:21 </svg:title>
  <svg:desc>Image generated by PCBNEW </svg:desc>
<svg:g style="fill:#C2C200; fill-opacity:1.0000;stroke:#C2C200; stroke-opacity:1.0000; stroke-linecap:round; stroke-linejoin:round;" transform="translate(0 0) scale(1 1)">
</svg:g>
<svg:g style="fill:#C2C200; fill-opacity:0.0;  stroke:#C2C200; stroke-width:0.0000; stroke-opacity:1;  stroke-linecap:round; stroke-linejoin:round;">
</svg:g>
<svg:g style="fill:#C2C200; fill-opacity:0.0;  stroke:#C2C200; stroke-width:0.8861; stroke-opacity:1;  stroke-linecap:round; stroke-linejoin:round;">
<svg:path d="M79.3872 209.5606 L217.6150 209.5606 "/>
<svg:path d="M217.6150 0.4466 L217.6150 209.5606 "/>
<svg:path d="M79.3872 0.4466 L79.3872 209.5606 "/>
<svg:path d="M217.6150 0.4466 L79.3872 0.4466 "/>
<svg:g>
</svg:g>
<svg:g>
</svg:g>
<svg:g>
</svg:g>
<svg:g>
</svg:g>
<svg:g>
</svg:g>
<svg:g>
</svg:g>
<svg:g>
</svg:g>
<svg:g>
</svg:g>
<svg:g>
</svg:g>
<svg:g>
</svg:g>
<svg:g>
</svg:g>
<svg:g>
</svg:g>
</svg:g> 
</svg:g></svg:g></svg>
