<?xml version='1.0' encoding='ASCII' standalone='yes'?>
<svg xmlns:svg="http://www.w3.org/2000/svg" xmlns="http://www.w3.org/2000/svg" xmlns:xlink="http://www.w3.org/1999/xlink" version="1.1" width="297.0022mm" height="210.0072mm" viewBox="0.0000 0.0000 297.0022 210.0072">
<title>SVG Image created as FRAM01-B_Fab.svg date 2023/09/11 01:18:38 </title>
  <desc>Image generated by PCBNEW </desc>
<g style="fill:#000084; fill-opacity:1.0000;stroke:#000084; stroke-opacity:1.0000; stroke-linecap:round; stroke-linejoin:round;" transform="translate(0 0) scale(1 1)">
</g>
<g style="fill:#000084; fill-opacity:0.0;  stroke:#000084; stroke-width:0.0000; stroke-opacity:1;  stroke-linecap:round; stroke-linejoin:round;">
</g>
<g style="fill:#000084; fill-opacity:0.01;  stroke:#000084; stroke-width:1.7722; stroke-opacity:1;  stroke-linecap:round; stroke-linejoin:round;">
<text x="177.6858" y="122.7251" transform="scale(-1 1) translate(-355.371574 0)" textLength="25.0633" font-size="11.8143" lengthAdjust="spacingAndGlyphs" text-anchor="middle" opacity="0.01" style="font-family:monospace">IC1</text>
<g class="stroked-text"><desc>IC1</desc>
<path d="M169.0360 122.3017 L169.0360 113.4410 "/>
<path d="M178.3187 121.4579 L177.8968 121.8798 "/>
<path d="M177.8968 121.8798 L176.6309 122.3017 "/>
<path d="M176.6309 122.3017 L175.7871 122.3017 "/>
<path d="M175.7871 122.3017 L174.5212 121.8798 "/>
<path d="M174.5212 121.8798 L173.6774 121.0359 "/>
<path d="M173.6774 121.0359 L173.2554 120.1920 "/>
<path d="M173.2554 120.1920 L172.8335 118.5043 "/>
<path d="M172.8335 118.5043 L172.8335 117.2384 "/>
<path d="M172.8335 117.2384 L173.2554 115.5507 "/>
<path d="M173.2554 115.5507 L173.6774 114.7068 "/>
<path d="M173.6774 114.7068 L174.5212 113.8629 "/>
<path d="M174.5212 113.8629 L175.7871 113.4410 "/>
<path d="M175.7871 113.4410 L176.6309 113.4410 "/>
<path d="M176.6309 113.4410 L177.8968 113.8629 "/>
<path d="M177.8968 113.8629 L178.3187 114.2849 "/>
<path d="M186.7575 122.3017 L181.6942 122.3017 "/>
<path d="M184.2259 122.3017 L184.2259 113.4410 "/>
<path d="M184.2259 113.4410 L183.3820 114.7068 "/>
<path d="M183.3820 114.7068 L182.5381 115.5507 "/>
<path d="M182.5381 115.5507 L181.6942 115.9726 "/>
</g></g>
<g style="fill:#000084; fill-opacity:0.0;  stroke:#000084; stroke-width:1.0465; stroke-opacity:1;  stroke-linecap:round; stroke-linejoin:round;">
<g transform="rotate(-90.000000 77.5801 86.6332)">
<text x="77.5801" y="90.1217" transform="scale(-1 1) translate(-155.160272 0)" textLength="15.3660" font-size="9.3026" lengthAdjust="spacingAndGlyphs" text-anchor="middle" opacity="0.01" style="font-family:monospace">D1</text>
</g>
<g class="stroked-text"><desc>D1</desc>
<path d="M74.4069 81.4836 L81.3839 81.4836 "/>
<path d="M81.3839 81.4836 L81.3839 83.1447 "/>
<path d="M81.3839 83.1447 L81.0516 84.1414 "/>
<path d="M81.0516 84.1414 L80.3871 84.8059 "/>
<path d="M80.3871 84.8059 L79.7227 85.1382 "/>
<path d="M79.7227 85.1382 L78.3937 85.4704 "/>
<path d="M78.3937 85.4704 L77.3970 85.4704 "/>
<path d="M77.3970 85.4704 L76.0681 85.1382 "/>
<path d="M76.0681 85.1382 L75.4036 84.8059 "/>
<path d="M75.4036 84.8059 L74.7391 84.1414 "/>
<path d="M74.7391 84.1414 L74.4069 83.1447 "/>
<path d="M74.4069 83.1447 L74.4069 81.4836 "/>
<path d="M74.4069 92.1151 L74.4069 88.1283 "/>
<path d="M74.4069 90.1217 L81.3839 90.1217 "/>
<path d="M81.3839 90.1217 L80.3871 89.4572 "/>
<path d="M80.3871 89.4572 L79.7227 88.7928 "/>
<path d="M79.7227 88.7928 L79.3904 88.1283 "/>
</g><g transform="rotate(-90.000000 136.6402 164.7265)">
<text x="136.6402" y="168.2150" transform="scale(-1 1) translate(-273.280475 0)" textLength="27.3265" font-size="9.3026" lengthAdjust="spacingAndGlyphs" text-anchor="middle" opacity="0.01" style="font-family:monospace">10uF</text>
</g>
<g class="stroked-text"><desc>10uF</desc>
<path d="M133.4670 157.2512 L133.4670 153.2643 "/>
<path d="M133.4670 155.2578 L140.4440 155.2578 "/>
<path d="M140.4440 155.2578 L139.4472 154.5933 "/>
<path d="M139.4472 154.5933 L138.7828 153.9288 "/>
<path d="M138.7828 153.9288 L138.4505 153.2643 "/>
<path d="M140.4440 161.5703 L140.4440 162.2347 "/>
<path d="M140.4440 162.2347 L140.1117 162.8992 "/>
<path d="M140.1117 162.8992 L139.7795 163.2314 "/>
<path d="M139.7795 163.2314 L139.1150 163.5637 "/>
<path d="M139.1150 163.5637 L137.7861 163.8959 "/>
<path d="M137.7861 163.8959 L136.1249 163.8959 "/>
<path d="M136.1249 163.8959 L134.7959 163.5637 "/>
<path d="M134.7959 163.5637 L134.1315 163.2314 "/>
<path d="M134.1315 163.2314 L133.7992 162.8992 "/>
<path d="M133.7992 162.8992 L133.4670 162.2347 "/>
<path d="M133.4670 162.2347 L133.4670 161.5703 "/>
<path d="M133.4670 161.5703 L133.7992 160.9058 "/>
<path d="M133.7992 160.9058 L134.1315 160.5736 "/>
<path d="M134.1315 160.5736 L134.7959 160.2413 "/>
<path d="M134.7959 160.2413 L136.1249 159.9091 "/>
<path d="M136.1249 159.9091 L137.7861 159.9091 "/>
<path d="M137.7861 159.9091 L139.1150 160.2413 "/>
<path d="M139.1150 160.2413 L139.7795 160.5736 "/>
<path d="M139.7795 160.5736 L140.1117 160.9058 "/>
<path d="M140.1117 160.9058 L140.4440 161.5703 "/>
<path d="M138.1183 169.8762 L133.4670 169.8762 "/>
<path d="M138.1183 166.8861 L134.4637 166.8861 "/>
<path d="M134.4637 166.8861 L133.7992 167.2183 "/>
<path d="M133.7992 167.2183 L133.4670 167.8828 "/>
<path d="M133.4670 167.8828 L133.4670 168.8795 "/>
<path d="M133.4670 168.8795 L133.7992 169.5439 "/>
<path d="M133.7992 169.5439 L134.1315 169.8762 "/>
<path d="M137.1216 175.5242 L137.1216 173.1986 "/>
<path d="M133.4670 173.1986 L140.4440 173.1986 "/>
<path d="M140.4440 173.1986 L140.4440 176.5209 "/>
</g></g>
<g style="fill:#000084; fill-opacity:0.0;  stroke:#000084; stroke-width:0.5582; stroke-opacity:1;  stroke-linecap:round; stroke-linejoin:round;">
<g transform="rotate(-90.000000 148.3616 164.7265)">
<text x="148.3616" y="166.4708" transform="scale(-1 1) translate(-296.723114 0)" textLength="7.7876" font-size="4.6513" lengthAdjust="spacingAndGlyphs" text-anchor="middle" opacity="0.01" style="font-family:monospace">C1</text>
</g>
<g class="stroked-text"><desc>C1</desc>
<path d="M147.1090 164.1451 L146.9429 163.9790 "/>
<path d="M146.9429 163.9790 L146.7767 163.4806 "/>
<path d="M146.7767 163.4806 L146.7767 163.1484 "/>
<path d="M146.7767 163.1484 L146.9429 162.6500 "/>
<path d="M146.9429 162.6500 L147.2751 162.3178 "/>
<path d="M147.2751 162.3178 L147.6073 162.1517 "/>
<path d="M147.6073 162.1517 L148.2718 161.9856 "/>
<path d="M148.2718 161.9856 L148.7702 161.9856 "/>
<path d="M148.7702 161.9856 L149.4346 162.1517 "/>
<path d="M149.4346 162.1517 L149.7669 162.3178 "/>
<path d="M149.7669 162.3178 L150.0991 162.6500 "/>
<path d="M150.0991 162.6500 L150.2652 163.1484 "/>
<path d="M150.2652 163.1484 L150.2652 163.4806 "/>
<path d="M150.2652 163.4806 L150.0991 163.9790 "/>
<path d="M150.0991 163.9790 L149.9330 164.1451 "/>
<path d="M146.7767 167.4675 L146.7767 165.4740 "/>
<path d="M146.7767 166.4708 L150.2652 166.4708 "/>
<path d="M150.2652 166.4708 L149.7669 166.1385 "/>
<path d="M149.7669 166.1385 L149.4346 165.8063 "/>
<path d="M149.4346 165.8063 L149.2685 165.4740 "/>
</g></g>
<g style="fill:#000084; fill-opacity:0.01;  stroke:#000084; stroke-width:1.0465; stroke-opacity:1;  stroke-linecap:round; stroke-linejoin:round;">
<text x="148.5011" y="67.7465" transform="scale(-1 1) translate(-297.002193 0)" textLength="42.9416" font-size="9.3026" lengthAdjust="spacingAndGlyphs" text-anchor="middle" opacity="0.01" style="font-family:monospace">Fiducial</text>
<g class="stroked-text"><desc>Fiducial</desc>
<path d="M131.8893 63.7767 L129.5636 63.7767 "/>
<path d="M129.5636 67.4313 L129.5636 60.4543 "/>
<path d="M129.5636 60.4543 L132.8860 60.4543 "/>
<path d="M135.5439 67.4313 L135.5439 62.7800 "/>
<path d="M135.5439 60.4543 L135.2116 60.7866 "/>
<path d="M135.2116 60.7866 L135.5439 61.1188 "/>
<path d="M135.5439 61.1188 L135.8761 60.7866 "/>
<path d="M135.8761 60.7866 L135.5439 60.4543 "/>
<path d="M135.5439 60.4543 L135.5439 61.1188 "/>
<path d="M141.8564 67.4313 L141.8564 60.4543 "/>
<path d="M141.8564 67.0991 L141.1919 67.4313 "/>
<path d="M141.1919 67.4313 L139.8629 67.4313 "/>
<path d="M139.8629 67.4313 L139.1985 67.0991 "/>
<path d="M139.1985 67.0991 L138.8662 66.7668 "/>
<path d="M138.8662 66.7668 L138.5340 66.1024 "/>
<path d="M138.5340 66.1024 L138.5340 64.1089 "/>
<path d="M138.5340 64.1089 L138.8662 63.4445 "/>
<path d="M138.8662 63.4445 L139.1985 63.1122 "/>
<path d="M139.1985 63.1122 L139.8629 62.7800 "/>
<path d="M139.8629 62.7800 L141.1919 62.7800 "/>
<path d="M141.1919 62.7800 L141.8564 63.1122 "/>
<path d="M148.1689 62.7800 L148.1689 67.4313 "/>
<path d="M145.1787 62.7800 L145.1787 66.4346 "/>
<path d="M145.1787 66.4346 L145.5110 67.0991 "/>
<path d="M145.5110 67.0991 L146.1754 67.4313 "/>
<path d="M146.1754 67.4313 L147.1722 67.4313 "/>
<path d="M147.1722 67.4313 L147.8366 67.0991 "/>
<path d="M147.8366 67.0991 L148.1689 66.7668 "/>
<path d="M154.4814 67.0991 L153.8169 67.4313 "/>
<path d="M153.8169 67.4313 L152.4879 67.4313 "/>
<path d="M152.4879 67.4313 L151.8235 67.0991 "/>
<path d="M151.8235 67.0991 L151.4912 66.7668 "/>
<path d="M151.4912 66.7668 L151.1590 66.1024 "/>
<path d="M151.1590 66.1024 L151.1590 64.1089 "/>
<path d="M151.1590 64.1089 L151.4912 63.4445 "/>
<path d="M151.4912 63.4445 L151.8235 63.1122 "/>
<path d="M151.8235 63.1122 L152.4879 62.7800 "/>
<path d="M152.4879 62.7800 L153.8169 62.7800 "/>
<path d="M153.8169 62.7800 L154.4814 63.1122 "/>
<path d="M157.4715 67.4313 L157.4715 62.7800 "/>
<path d="M157.4715 60.4543 L157.1393 60.7866 "/>
<path d="M157.1393 60.7866 L157.4715 61.1188 "/>
<path d="M157.4715 61.1188 L157.8037 60.7866 "/>
<path d="M157.8037 60.7866 L157.4715 60.4543 "/>
<path d="M157.4715 60.4543 L157.4715 61.1188 "/>
<path d="M163.7840 67.4313 L163.7840 63.7767 "/>
<path d="M163.7840 63.7767 L163.4518 63.1122 "/>
<path d="M163.4518 63.1122 L162.7873 62.7800 "/>
<path d="M162.7873 62.7800 L161.4583 62.7800 "/>
<path d="M161.4583 62.7800 L160.7939 63.1122 "/>
<path d="M163.7840 67.0991 L163.1195 67.4313 "/>
<path d="M163.1195 67.4313 L161.4583 67.4313 "/>
<path d="M161.4583 67.4313 L160.7939 67.0991 "/>
<path d="M160.7939 67.0991 L160.4616 66.4346 "/>
<path d="M160.4616 66.4346 L160.4616 65.7701 "/>
<path d="M160.4616 65.7701 L160.7939 65.1057 "/>
<path d="M160.7939 65.1057 L161.4583 64.7734 "/>
<path d="M161.4583 64.7734 L163.1195 64.7734 "/>
<path d="M163.1195 64.7734 L163.7840 64.4412 "/>
<path d="M168.1031 67.4313 L167.4386 67.0991 "/>
<path d="M167.4386 67.0991 L167.1064 66.4346 "/>
<path d="M167.1064 66.4346 L167.1064 60.4543 "/>
</g></g>
<g style="fill:#000084; fill-opacity:0.01;  stroke:#000084; stroke-width:0.4186; stroke-opacity:1;  stroke-linecap:round; stroke-linejoin:round;">
<text x="148.5011" y="51.6995" transform="scale(-1 1) translate(-297.002193 0)" textLength="9.8674" font-size="3.7211" lengthAdjust="spacingAndGlyphs" text-anchor="middle" opacity="0.01" style="font-family:monospace">FID2</text>
<g class="stroked-text"><desc>FID2</desc>
<path d="M145.5110 50.1116 L144.5807 50.1116 "/>
<path d="M144.5807 51.5734 L144.5807 48.7826 "/>
<path d="M144.5807 48.7826 L145.9097 48.7826 "/>
<path d="M146.9728 51.5734 L146.9728 48.7826 "/>
<path d="M148.3018 51.5734 L148.3018 48.7826 "/>
<path d="M148.3018 48.7826 L148.9662 48.7826 "/>
<path d="M148.9662 48.7826 L149.3649 48.9155 "/>
<path d="M149.3649 48.9155 L149.6307 49.1813 "/>
<path d="M149.6307 49.1813 L149.7636 49.4471 "/>
<path d="M149.7636 49.4471 L149.8965 49.9787 "/>
<path d="M149.8965 49.9787 L149.8965 50.3774 "/>
<path d="M149.8965 50.3774 L149.7636 50.9089 "/>
<path d="M149.7636 50.9089 L149.6307 51.1747 "/>
<path d="M149.6307 51.1747 L149.3649 51.4405 "/>
<path d="M149.3649 51.4405 L148.9662 51.5734 "/>
<path d="M148.9662 51.5734 L148.3018 51.5734 "/>
<path d="M150.9597 49.0484 L151.0926 48.9155 "/>
<path d="M151.0926 48.9155 L151.3583 48.7826 "/>
<path d="M151.3583 48.7826 L152.0228 48.7826 "/>
<path d="M152.0228 48.7826 L152.2886 48.9155 "/>
<path d="M152.2886 48.9155 L152.4215 49.0484 "/>
<path d="M152.4215 49.0484 L152.5544 49.3142 "/>
<path d="M152.5544 49.3142 L152.5544 49.5800 "/>
<path d="M152.5544 49.5800 L152.4215 49.9787 "/>
<path d="M152.4215 49.9787 L150.8268 51.5734 "/>
<path d="M150.8268 51.5734 L152.5544 51.5734 "/>
</g></g>
<g style="fill:#000084; fill-opacity:0.01;  stroke:#000084; stroke-width:1.0465; stroke-opacity:1;  stroke-linecap:round; stroke-linejoin:round;">
<text x="148.5011" y="207.2861" transform="scale(-1 1) translate(-297.002193 0)" textLength="42.9416" font-size="9.3026" lengthAdjust="spacingAndGlyphs" text-anchor="middle" opacity="0.01" style="font-family:monospace">Fiducial</text>
<g class="stroked-text"><desc>Fiducial</desc>
<path d="M131.8893 203.3162 L129.5636 203.3162 "/>
<path d="M129.5636 206.9708 L129.5636 199.9939 "/>
<path d="M129.5636 199.9939 L132.8860 199.9939 "/>
<path d="M135.5439 206.9708 L135.5439 202.3195 "/>
<path d="M135.5439 199.9939 L135.2116 200.3261 "/>
<path d="M135.2116 200.3261 L135.5439 200.6583 "/>
<path d="M135.5439 200.6583 L135.8761 200.3261 "/>
<path d="M135.8761 200.3261 L135.5439 199.9939 "/>
<path d="M135.5439 199.9939 L135.5439 200.6583 "/>
<path d="M141.8564 206.9708 L141.8564 199.9939 "/>
<path d="M141.8564 206.6386 L141.1919 206.9708 "/>
<path d="M141.1919 206.9708 L139.8629 206.9708 "/>
<path d="M139.8629 206.9708 L139.1985 206.6386 "/>
<path d="M139.1985 206.6386 L138.8662 206.3064 "/>
<path d="M138.8662 206.3064 L138.5340 205.6419 "/>
<path d="M138.5340 205.6419 L138.5340 203.6485 "/>
<path d="M138.5340 203.6485 L138.8662 202.9840 "/>
<path d="M138.8662 202.9840 L139.1985 202.6518 "/>
<path d="M139.1985 202.6518 L139.8629 202.3195 "/>
<path d="M139.8629 202.3195 L141.1919 202.3195 "/>
<path d="M141.1919 202.3195 L141.8564 202.6518 "/>
<path d="M148.1689 202.3195 L148.1689 206.9708 "/>
<path d="M145.1787 202.3195 L145.1787 205.9741 "/>
<path d="M145.1787 205.9741 L145.5110 206.6386 "/>
<path d="M145.5110 206.6386 L146.1754 206.9708 "/>
<path d="M146.1754 206.9708 L147.1722 206.9708 "/>
<path d="M147.1722 206.9708 L147.8366 206.6386 "/>
<path d="M147.8366 206.6386 L148.1689 206.3064 "/>
<path d="M154.4814 206.6386 L153.8169 206.9708 "/>
<path d="M153.8169 206.9708 L152.4879 206.9708 "/>
<path d="M152.4879 206.9708 L151.8235 206.6386 "/>
<path d="M151.8235 206.6386 L151.4912 206.3064 "/>
<path d="M151.4912 206.3064 L151.1590 205.6419 "/>
<path d="M151.1590 205.6419 L151.1590 203.6485 "/>
<path d="M151.1590 203.6485 L151.4912 202.9840 "/>
<path d="M151.4912 202.9840 L151.8235 202.6518 "/>
<path d="M151.8235 202.6518 L152.4879 202.3195 "/>
<path d="M152.4879 202.3195 L153.8169 202.3195 "/>
<path d="M153.8169 202.3195 L154.4814 202.6518 "/>
<path d="M157.4715 206.9708 L157.4715 202.3195 "/>
<path d="M157.4715 199.9939 L157.1393 200.3261 "/>
<path d="M157.1393 200.3261 L157.4715 200.6583 "/>
<path d="M157.4715 200.6583 L157.8037 200.3261 "/>
<path d="M157.8037 200.3261 L157.4715 199.9939 "/>
<path d="M157.4715 199.9939 L157.4715 200.6583 "/>
<path d="M163.7840 206.9708 L163.7840 203.3162 "/>
<path d="M163.7840 203.3162 L163.4518 202.6518 "/>
<path d="M163.4518 202.6518 L162.7873 202.3195 "/>
<path d="M162.7873 202.3195 L161.4583 202.3195 "/>
<path d="M161.4583 202.3195 L160.7939 202.6518 "/>
<path d="M163.7840 206.6386 L163.1195 206.9708 "/>
<path d="M163.1195 206.9708 L161.4583 206.9708 "/>
<path d="M161.4583 206.9708 L160.7939 206.6386 "/>
<path d="M160.7939 206.6386 L160.4616 205.9741 "/>
<path d="M160.4616 205.9741 L160.4616 205.3097 "/>
<path d="M160.4616 205.3097 L160.7939 204.6452 "/>
<path d="M160.7939 204.6452 L161.4583 204.3129 "/>
<path d="M161.4583 204.3129 L163.1195 204.3129 "/>
<path d="M163.1195 204.3129 L163.7840 203.9807 "/>
<path d="M168.1031 206.9708 L167.4386 206.6386 "/>
<path d="M167.4386 206.6386 L167.1064 205.9741 "/>
<path d="M167.1064 205.9741 L167.1064 199.9939 "/>
</g></g>
<g style="fill:#000084; fill-opacity:0.01;  stroke:#000084; stroke-width:0.4186; stroke-opacity:1;  stroke-linecap:round; stroke-linejoin:round;">
<text x="148.5011" y="191.2390" transform="scale(-1 1) translate(-297.002193 0)" textLength="9.8674" font-size="3.7211" lengthAdjust="spacingAndGlyphs" text-anchor="middle" opacity="0.01" style="font-family:monospace">FID1</text>
<g class="stroked-text"><desc>FID1</desc>
<path d="M145.5110 189.6511 L144.5807 189.6511 "/>
<path d="M144.5807 191.1129 L144.5807 188.3221 "/>
<path d="M144.5807 188.3221 L145.9097 188.3221 "/>
<path d="M146.9728 191.1129 L146.9728 188.3221 "/>
<path d="M148.3018 191.1129 L148.3018 188.3221 "/>
<path d="M148.3018 188.3221 L148.9662 188.3221 "/>
<path d="M148.9662 188.3221 L149.3649 188.4550 "/>
<path d="M149.3649 188.4550 L149.6307 188.7208 "/>
<path d="M149.6307 188.7208 L149.7636 188.9866 "/>
<path d="M149.7636 188.9866 L149.8965 189.5182 "/>
<path d="M149.8965 189.5182 L149.8965 189.9169 "/>
<path d="M149.8965 189.9169 L149.7636 190.4485 "/>
<path d="M149.7636 190.4485 L149.6307 190.7142 "/>
<path d="M149.6307 190.7142 L149.3649 190.9800 "/>
<path d="M149.3649 190.9800 L148.9662 191.1129 "/>
<path d="M148.9662 191.1129 L148.3018 191.1129 "/>
<path d="M152.5544 191.1129 L150.9597 191.1129 "/>
<path d="M151.7570 191.1129 L151.7570 188.3221 "/>
<path d="M151.7570 188.3221 L151.4912 188.7208 "/>
<path d="M151.4912 188.7208 L151.2254 188.9866 "/>
<path d="M151.2254 188.9866 L150.9597 189.1195 "/>
</g></g>
<g style="fill:#000084; fill-opacity:0.01;  stroke:#000084; stroke-width:1.0465; stroke-opacity:1;  stroke-linecap:round; stroke-linejoin:round;">
<text x="156.7339" y="161.0985" transform="scale(-1 1) translate(-313.467857 0)" textLength="33.9712" font-size="9.3026" lengthAdjust="spacingAndGlyphs" text-anchor="middle" opacity="0.01" style="font-family:monospace">100nF</text>
<g class="stroked-text"><desc>100nF</desc>
<path d="M145.9362 160.7833 L141.9494 160.7833 "/>
<path d="M143.9428 160.7833 L143.9428 153.8063 "/>
<path d="M143.9428 153.8063 L143.2783 154.8030 "/>
<path d="M143.2783 154.8030 L142.6139 155.4675 "/>
<path d="M142.6139 155.4675 L141.9494 155.7997 "/>
<path d="M150.2553 153.8063 L150.9198 153.8063 "/>
<path d="M150.9198 153.8063 L151.5843 154.1385 "/>
<path d="M151.5843 154.1385 L151.9165 154.4708 "/>
<path d="M151.9165 154.4708 L152.2487 155.1352 "/>
<path d="M152.2487 155.1352 L152.5810 156.4642 "/>
<path d="M152.5810 156.4642 L152.5810 158.1254 "/>
<path d="M152.5810 158.1254 L152.2487 159.4543 "/>
<path d="M152.2487 159.4543 L151.9165 160.1188 "/>
<path d="M151.9165 160.1188 L151.5843 160.4510 "/>
<path d="M151.5843 160.4510 L150.9198 160.7833 "/>
<path d="M150.9198 160.7833 L150.2553 160.7833 "/>
<path d="M150.2553 160.7833 L149.5908 160.4510 "/>
<path d="M149.5908 160.4510 L149.2586 160.1188 "/>
<path d="M149.2586 160.1188 L148.9264 159.4543 "/>
<path d="M148.9264 159.4543 L148.5941 158.1254 "/>
<path d="M148.5941 158.1254 L148.5941 156.4642 "/>
<path d="M148.5941 156.4642 L148.9264 155.1352 "/>
<path d="M148.9264 155.1352 L149.2586 154.4708 "/>
<path d="M149.2586 154.4708 L149.5908 154.1385 "/>
<path d="M149.5908 154.1385 L150.2553 153.8063 "/>
<path d="M156.9001 153.8063 L157.5645 153.8063 "/>
<path d="M157.5645 153.8063 L158.2290 154.1385 "/>
<path d="M158.2290 154.1385 L158.5612 154.4708 "/>
<path d="M158.5612 154.4708 L158.8935 155.1352 "/>
<path d="M158.8935 155.1352 L159.2257 156.4642 "/>
<path d="M159.2257 156.4642 L159.2257 158.1254 "/>
<path d="M159.2257 158.1254 L158.8935 159.4543 "/>
<path d="M158.8935 159.4543 L158.5612 160.1188 "/>
<path d="M158.5612 160.1188 L158.2290 160.4510 "/>
<path d="M158.2290 160.4510 L157.5645 160.7833 "/>
<path d="M157.5645 160.7833 L156.9001 160.7833 "/>
<path d="M156.9001 160.7833 L156.2356 160.4510 "/>
<path d="M156.2356 160.4510 L155.9033 160.1188 "/>
<path d="M155.9033 160.1188 L155.5711 159.4543 "/>
<path d="M155.5711 159.4543 L155.2389 158.1254 "/>
<path d="M155.2389 158.1254 L155.2389 156.4642 "/>
<path d="M155.2389 156.4642 L155.5711 155.1352 "/>
<path d="M155.5711 155.1352 L155.9033 154.4708 "/>
<path d="M155.9033 154.4708 L156.2356 154.1385 "/>
<path d="M156.2356 154.1385 L156.9001 153.8063 "/>
<path d="M162.2158 156.1319 L162.2158 160.7833 "/>
<path d="M162.2158 156.7964 L162.5481 156.4642 "/>
<path d="M162.5481 156.4642 L163.2126 156.1319 "/>
<path d="M163.2126 156.1319 L164.2093 156.1319 "/>
<path d="M164.2093 156.1319 L164.8737 156.4642 "/>
<path d="M164.8737 156.4642 L165.2060 157.1287 "/>
<path d="M165.2060 157.1287 L165.2060 160.7833 "/>
<path d="M170.8540 157.1287 L168.5283 157.1287 "/>
<path d="M168.5283 160.7833 L168.5283 153.8063 "/>
<path d="M168.5283 153.8063 L171.8507 153.8063 "/>
</g></g>
<g style="fill:#000084; fill-opacity:0.01;  stroke:#000084; stroke-width:0.5582; stroke-opacity:1;  stroke-linecap:round; stroke-linejoin:round;">
<text x="156.7339" y="147.6329" transform="scale(-1 1) translate(-313.467857 0)" textLength="7.7876" font-size="4.6513" lengthAdjust="spacingAndGlyphs" text-anchor="middle" opacity="0.01" style="font-family:monospace">C2</text>
<g class="stroked-text"><desc>C2</desc>
<path d="M156.1525 147.1413 L155.9864 147.3074 "/>
<path d="M155.9864 147.3074 L155.4880 147.4735 "/>
<path d="M155.4880 147.4735 L155.1558 147.4735 "/>
<path d="M155.1558 147.4735 L154.6575 147.3074 "/>
<path d="M154.6575 147.3074 L154.3252 146.9751 "/>
<path d="M154.3252 146.9751 L154.1591 146.6429 "/>
<path d="M154.1591 146.6429 L153.9930 145.9784 "/>
<path d="M153.9930 145.9784 L153.9930 145.4801 "/>
<path d="M153.9930 145.4801 L154.1591 144.8156 "/>
<path d="M154.1591 144.8156 L154.3252 144.4834 "/>
<path d="M154.3252 144.4834 L154.6575 144.1511 "/>
<path d="M154.6575 144.1511 L155.1558 143.9850 "/>
<path d="M155.1558 143.9850 L155.4880 143.9850 "/>
<path d="M155.4880 143.9850 L155.9864 144.1511 "/>
<path d="M155.9864 144.1511 L156.1525 144.3172 "/>
<path d="M157.4815 144.3172 L157.6476 144.1511 "/>
<path d="M157.6476 144.1511 L157.9798 143.9850 "/>
<path d="M157.9798 143.9850 L158.8104 143.9850 "/>
<path d="M158.8104 143.9850 L159.1427 144.1511 "/>
<path d="M159.1427 144.1511 L159.3088 144.3172 "/>
<path d="M159.3088 144.3172 L159.4749 144.6495 "/>
<path d="M159.4749 144.6495 L159.4749 144.9817 "/>
<path d="M159.4749 144.9817 L159.3088 145.4801 "/>
<path d="M159.3088 145.4801 L157.3153 147.4735 "/>
<path d="M157.3153 147.4735 L159.4749 147.4735 "/>
</g></g>
<g style="fill:#000084; fill-opacity:0.0;  stroke:#000084; stroke-width:0.6977; stroke-opacity:1;  stroke-linecap:round; stroke-linejoin:round;">
<path d="M195.9306 100.0499 L195.9306 136.5395 "/>
<path d="M195.9306 127.6788 L187.0698 136.5395 "/>
<path d="M195.9306 136.5395 L159.4410 136.5395 "/>
<path d="M159.4410 100.0499 L195.9306 100.0499 "/>
<path d="M159.4410 136.5395 L159.4410 100.0499 "/>
<path d="M97.1506 95.5149 L84.5920 95.5149 "/>
<path d="M84.5920 95.5149 L84.5920 75.9794 "/>
<path d="M90.8713 90.9799 L90.8713 88.1891 "/>
<path d="M90.8713 88.1891 L94.7086 88.1891 "/>
<path d="M90.8713 88.1891 L87.0339 88.1891 "/>
<path d="M90.8713 88.1891 L88.0805 84.0029 "/>
<path d="M93.6621 84.0029 L90.8713 88.1891 "/>
<path d="M90.8713 84.0029 L90.8713 80.5144 "/>
<path d="M88.0805 84.0029 L93.6621 84.0029 "/>
<path d="M97.1506 75.9794 L97.1506 95.5149 "/>
<path d="M84.5920 75.9794 L97.1506 75.9794 "/>
<path d="M144.0009 157.7495 L152.7222 157.7495 "/>
<path d="M152.7222 157.7495 L152.7222 171.7035 "/>
<path d="M144.0009 171.7035 L144.0009 157.7495 "/>
<path d="M152.7222 171.7035 L144.0009 171.7035 "/>
<circle cx="148.5011" cy="50.3041" r="6.9770"/> 
<circle cx="148.5011" cy="189.8436" r="6.9770"/> 
<path d="M149.7570 150.2493 L149.7570 141.5281 "/>
<path d="M149.7570 141.5281 L163.7109 141.5281 "/>
<path d="M163.7109 150.2493 L149.7570 150.2493 "/>
<path d="M163.7109 141.5281 L163.7109 150.2493 "/>
<g>
</g>
<g>
</g>
<g>
</g>
<g>
</g>
<g>
</g>
<g>
</g>
<g>
</g>
<g>
</g>
<g>
</g>
<g>
</g>
<g>
</g>
<g>
</g>
<g>
</g>
<g>
</g>
<g>
</g>
</g> 
<svg:g><svg:g><svg:title>SVG Image created as FRAM01-Edge_Cuts.svg date 2023/09/11 01:18:38 </svg:title>
  <svg:desc>Image generated by PCBNEW </svg:desc>
<svg:g style="fill:#C2C200; fill-opacity:1.0000;stroke:#C2C200; stroke-opacity:1.0000; stroke-linecap:round; stroke-linejoin:round;" transform="translate(0 0) scale(1 1)">
</svg:g>
<svg:g style="fill:#C2C200; fill-opacity:0.0;  stroke:#C2C200; stroke-width:0.0000; stroke-opacity:1;  stroke-linecap:round; stroke-linejoin:round;">
</svg:g>
<svg:g style="fill:#C2C200; fill-opacity:0.0;  stroke:#C2C200; stroke-width:0.8861; stroke-opacity:1;  stroke-linecap:round; stroke-linejoin:round;">
<svg:path d="M79.3872 209.5606 L217.6150 209.5606 "/>
<svg:path d="M217.6150 0.4466 L217.6150 209.5606 "/>
<svg:path d="M79.3872 0.4466 L79.3872 209.5606 "/>
<svg:path d="M217.6150 0.4466 L79.3872 0.4466 "/>
<svg:g>
</svg:g>
<svg:g>
</svg:g>
<svg:g>
</svg:g>
<svg:g>
</svg:g>
<svg:g>
</svg:g>
<svg:g>
</svg:g>
<svg:g>
</svg:g>
<svg:g>
</svg:g>
<svg:g>
</svg:g>
<svg:g>
</svg:g>
<svg:g>
</svg:g>
<svg:g>
</svg:g>
<svg:g>
</svg:g>
<svg:g>
</svg:g>
<svg:g>
</svg:g>
</svg:g> 
</svg:g></svg:g></svg>
