<?xml version='1.0' encoding='ASCII' standalone='yes'?>
<svg xmlns:svg="http://www.w3.org/2000/svg" xmlns="http://www.w3.org/2000/svg" xmlns:xlink="http://www.w3.org/1999/xlink" version="1.1" width="297.0022mm" height="210.0072mm" viewBox="0.0000 0.0000 297.0022 210.0072">
<title>SVG Image created as FRAM01-B_Fab.svg date 2023/09/07 09:29:06 </title>
  <desc>Image generated by PCBNEW </desc>
<g style="fill:#000084; fill-opacity:1.0000;stroke:#000084; stroke-opacity:1.0000; stroke-linecap:round; stroke-linejoin:round;" transform="translate(0 0) scale(1 1)">
</g>
<g style="fill:#000084; fill-opacity:0.0;  stroke:#000084; stroke-width:0.0000; stroke-opacity:1;  stroke-linecap:round; stroke-linejoin:round;">
</g>
<g style="fill:#000084; fill-opacity:0.01;  stroke:#000084; stroke-width:1.7722; stroke-opacity:1;  stroke-linecap:round; stroke-linejoin:round;">
<text x="171.5391" y="112.9783" transform="scale(-1 1) translate(-343.078143 0)" textLength="25.0633" font-size="11.8143" lengthAdjust="spacingAndGlyphs" text-anchor="middle" opacity="0.01" style="font-family:monospace">IC1</text>
<g class="stroked-text"><desc>IC1</desc>
<path d="M162.8893 112.5549 L162.8893 103.6941 "/>
<path d="M172.1720 111.7110 L171.7500 112.1330 "/>
<path d="M171.7500 112.1330 L170.4842 112.5549 "/>
<path d="M170.4842 112.5549 L169.6403 112.5549 "/>
<path d="M169.6403 112.5549 L168.3745 112.1330 "/>
<path d="M168.3745 112.1330 L167.5306 111.2891 "/>
<path d="M167.5306 111.2891 L167.1087 110.4452 "/>
<path d="M167.1087 110.4452 L166.6868 108.7574 "/>
<path d="M166.6868 108.7574 L166.6868 107.4916 "/>
<path d="M166.6868 107.4916 L167.1087 105.8039 "/>
<path d="M167.1087 105.8039 L167.5306 104.9600 "/>
<path d="M167.5306 104.9600 L168.3745 104.1161 "/>
<path d="M168.3745 104.1161 L169.6403 103.6941 "/>
<path d="M169.6403 103.6941 L170.4842 103.6941 "/>
<path d="M170.4842 103.6941 L171.7500 104.1161 "/>
<path d="M171.7500 104.1161 L172.1720 104.5380 "/>
<path d="M180.6108 112.5549 L175.5475 112.5549 "/>
<path d="M178.0792 112.5549 L178.0792 103.6941 "/>
<path d="M178.0792 103.6941 L177.2353 104.9600 "/>
<path d="M177.2353 104.9600 L176.3914 105.8039 "/>
<path d="M176.3914 105.8039 L175.5475 106.2258 "/>
</g></g>
<g style="fill:#000084; fill-opacity:0.01;  stroke:#000084; stroke-width:1.0465; stroke-opacity:1;  stroke-linecap:round; stroke-linejoin:round;">
<g transform="rotate(-90.000000 77.5801 86.6332)">
<text x="77.5801" y="90.1217" transform="scale(-1 1) translate(-155.160272 0)" textLength="15.3660" font-size="9.3026" lengthAdjust="spacingAndGlyphs" text-anchor="middle" opacity="0.01" style="font-family:monospace">D1</text>
</g>
<g class="stroked-text"><desc>D1</desc>
<path d="M74.4069 81.4836 L81.3839 81.4836 "/>
<path d="M81.3839 81.4836 L81.3839 83.1447 "/>
<path d="M81.3839 83.1447 L81.0516 84.1414 "/>
<path d="M81.0516 84.1414 L80.3871 84.8059 "/>
<path d="M80.3871 84.8059 L79.7227 85.1382 "/>
<path d="M79.7227 85.1382 L78.3937 85.4704 "/>
<path d="M78.3937 85.4704 L77.3970 85.4704 "/>
<path d="M77.3970 85.4704 L76.0681 85.1382 "/>
<path d="M76.0681 85.1382 L75.4036 84.8059 "/>
<path d="M75.4036 84.8059 L74.7391 84.1414 "/>
<path d="M74.7391 84.1414 L74.4069 83.1447 "/>
<path d="M74.4069 83.1447 L74.4069 81.4836 "/>
<path d="M74.4069 92.1151 L74.4069 88.1283 "/>
<path d="M74.4069 90.1217 L81.3839 90.1217 "/>
<path d="M81.3839 90.1217 L80.3871 89.4572 "/>
<path d="M80.3871 89.4572 L79.7227 88.7928 "/>
<path d="M79.7227 88.7928 L79.3904 88.1283 "/>
</g><text x="148.5011" y="167.9359" transform="scale(-1 1) translate(-297.002193 0)" textLength="27.3265" font-size="9.3026" lengthAdjust="spacingAndGlyphs" text-anchor="middle" opacity="0.01" style="font-family:monospace">10uF</text>
<g class="stroked-text"><desc>10uF</desc>
<path d="M141.0258 167.6207 L137.0389 167.6207 "/>
<path d="M139.0323 167.6207 L139.0323 160.6437 "/>
<path d="M139.0323 160.6437 L138.3679 161.6404 "/>
<path d="M138.3679 161.6404 L137.7034 162.3049 "/>
<path d="M137.7034 162.3049 L137.0389 162.6371 "/>
<path d="M145.3449 160.6437 L146.0093 160.6437 "/>
<path d="M146.0093 160.6437 L146.6738 160.9760 "/>
<path d="M146.6738 160.9760 L147.0060 161.3082 "/>
<path d="M147.0060 161.3082 L147.3383 161.9727 "/>
<path d="M147.3383 161.9727 L147.6705 163.3016 "/>
<path d="M147.6705 163.3016 L147.6705 164.9628 "/>
<path d="M147.6705 164.9628 L147.3383 166.2917 "/>
<path d="M147.3383 166.2917 L147.0060 166.9562 "/>
<path d="M147.0060 166.9562 L146.6738 167.2885 "/>
<path d="M146.6738 167.2885 L146.0093 167.6207 "/>
<path d="M146.0093 167.6207 L145.3449 167.6207 "/>
<path d="M145.3449 167.6207 L144.6804 167.2885 "/>
<path d="M144.6804 167.2885 L144.3481 166.9562 "/>
<path d="M144.3481 166.9562 L144.0159 166.2917 "/>
<path d="M144.0159 166.2917 L143.6837 164.9628 "/>
<path d="M143.6837 164.9628 L143.6837 163.3016 "/>
<path d="M143.6837 163.3016 L144.0159 161.9727 "/>
<path d="M144.0159 161.9727 L144.3481 161.3082 "/>
<path d="M144.3481 161.3082 L144.6804 160.9760 "/>
<path d="M144.6804 160.9760 L145.3449 160.6437 "/>
<path d="M153.6508 162.9694 L153.6508 167.6207 "/>
<path d="M150.6606 162.9694 L150.6606 166.6240 "/>
<path d="M150.6606 166.6240 L150.9929 167.2885 "/>
<path d="M150.9929 167.2885 L151.6574 167.6207 "/>
<path d="M151.6574 167.6207 L152.6541 167.6207 "/>
<path d="M152.6541 167.6207 L153.3185 167.2885 "/>
<path d="M153.3185 167.2885 L153.6508 166.9562 "/>
<path d="M159.2988 163.9661 L156.9731 163.9661 "/>
<path d="M156.9731 167.6207 L156.9731 160.6437 "/>
<path d="M156.9731 160.6437 L160.2955 160.6437 "/>
</g></g>
<g style="fill:#000084; fill-opacity:0.01;  stroke:#000084; stroke-width:0.5582; stroke-opacity:1;  stroke-linecap:round; stroke-linejoin:round;">
<text x="148.5011" y="154.4704" transform="scale(-1 1) translate(-297.002193 0)" textLength="7.7876" font-size="4.6513" lengthAdjust="spacingAndGlyphs" text-anchor="middle" opacity="0.01" style="font-family:monospace">C1</text>
<g class="stroked-text"><desc>C1</desc>
<path d="M147.9197 153.9787 L147.7536 154.1448 "/>
<path d="M147.7536 154.1448 L147.2552 154.3109 "/>
<path d="M147.2552 154.3109 L146.9230 154.3109 "/>
<path d="M146.9230 154.3109 L146.4246 154.1448 "/>
<path d="M146.4246 154.1448 L146.0924 153.8126 "/>
<path d="M146.0924 153.8126 L145.9263 153.4803 "/>
<path d="M145.9263 153.4803 L145.7601 152.8159 "/>
<path d="M145.7601 152.8159 L145.7601 152.3175 "/>
<path d="M145.7601 152.3175 L145.9263 151.6530 "/>
<path d="M145.9263 151.6530 L146.0924 151.3208 "/>
<path d="M146.0924 151.3208 L146.4246 150.9886 "/>
<path d="M146.4246 150.9886 L146.9230 150.8224 "/>
<path d="M146.9230 150.8224 L147.2552 150.8224 "/>
<path d="M147.2552 150.8224 L147.7536 150.9886 "/>
<path d="M147.7536 150.9886 L147.9197 151.1547 "/>
<path d="M151.2421 154.3109 L149.2486 154.3109 "/>
<path d="M150.2453 154.3109 L150.2453 150.8224 "/>
<path d="M150.2453 150.8224 L149.9131 151.3208 "/>
<path d="M149.9131 151.3208 L149.5809 151.6530 "/>
<path d="M149.5809 151.6530 L149.2486 151.8192 "/>
</g></g>
<g style="fill:#000084; fill-opacity:0.01;  stroke:#000084; stroke-width:1.0465; stroke-opacity:1;  stroke-linecap:round; stroke-linejoin:round;">
<text x="164.1295" y="78.0725" transform="scale(-1 1) translate(-328.259046 0)" textLength="42.9416" font-size="9.3026" lengthAdjust="spacingAndGlyphs" text-anchor="middle" opacity="0.01" style="font-family:monospace">Fiducial</text>
<g class="stroked-text"><desc>Fiducial</desc>
<path d="M147.5177 74.1026 L145.1920 74.1026 "/>
<path d="M145.1920 77.7572 L145.1920 70.7803 "/>
<path d="M145.1920 70.7803 L148.5144 70.7803 "/>
<path d="M151.1723 77.7572 L151.1723 73.1059 "/>
<path d="M151.1723 70.7803 L150.8401 71.1125 "/>
<path d="M150.8401 71.1125 L151.1723 71.4447 "/>
<path d="M151.1723 71.4447 L151.5045 71.1125 "/>
<path d="M151.5045 71.1125 L151.1723 70.7803 "/>
<path d="M151.1723 70.7803 L151.1723 71.4447 "/>
<path d="M157.4848 77.7572 L157.4848 70.7803 "/>
<path d="M157.4848 77.4250 L156.8203 77.7572 "/>
<path d="M156.8203 77.7572 L155.4914 77.7572 "/>
<path d="M155.4914 77.7572 L154.8269 77.4250 "/>
<path d="M154.8269 77.4250 L154.4947 77.0928 "/>
<path d="M154.4947 77.0928 L154.1624 76.4283 "/>
<path d="M154.1624 76.4283 L154.1624 74.4349 "/>
<path d="M154.1624 74.4349 L154.4947 73.7704 "/>
<path d="M154.4947 73.7704 L154.8269 73.4382 "/>
<path d="M154.8269 73.4382 L155.4914 73.1059 "/>
<path d="M155.4914 73.1059 L156.8203 73.1059 "/>
<path d="M156.8203 73.1059 L157.4848 73.4382 "/>
<path d="M163.7973 73.1059 L163.7973 77.7572 "/>
<path d="M160.8072 73.1059 L160.8072 76.7605 "/>
<path d="M160.8072 76.7605 L161.1394 77.4250 "/>
<path d="M161.1394 77.4250 L161.8039 77.7572 "/>
<path d="M161.8039 77.7572 L162.8006 77.7572 "/>
<path d="M162.8006 77.7572 L163.4650 77.4250 "/>
<path d="M163.4650 77.4250 L163.7973 77.0928 "/>
<path d="M170.1098 77.4250 L169.4453 77.7572 "/>
<path d="M169.4453 77.7572 L168.1164 77.7572 "/>
<path d="M168.1164 77.7572 L167.4519 77.4250 "/>
<path d="M167.4519 77.4250 L167.1197 77.0928 "/>
<path d="M167.1197 77.0928 L166.7874 76.4283 "/>
<path d="M166.7874 76.4283 L166.7874 74.4349 "/>
<path d="M166.7874 74.4349 L167.1197 73.7704 "/>
<path d="M167.1197 73.7704 L167.4519 73.4382 "/>
<path d="M167.4519 73.4382 L168.1164 73.1059 "/>
<path d="M168.1164 73.1059 L169.4453 73.1059 "/>
<path d="M169.4453 73.1059 L170.1098 73.4382 "/>
<path d="M173.0999 77.7572 L173.0999 73.1059 "/>
<path d="M173.0999 70.7803 L172.7677 71.1125 "/>
<path d="M172.7677 71.1125 L173.0999 71.4447 "/>
<path d="M173.0999 71.4447 L173.4322 71.1125 "/>
<path d="M173.4322 71.1125 L173.0999 70.7803 "/>
<path d="M173.0999 70.7803 L173.0999 71.4447 "/>
<path d="M179.4124 77.7572 L179.4124 74.1026 "/>
<path d="M179.4124 74.1026 L179.0802 73.4382 "/>
<path d="M179.0802 73.4382 L178.4157 73.1059 "/>
<path d="M178.4157 73.1059 L177.0868 73.1059 "/>
<path d="M177.0868 73.1059 L176.4223 73.4382 "/>
<path d="M179.4124 77.4250 L178.7479 77.7572 "/>
<path d="M178.7479 77.7572 L177.0868 77.7572 "/>
<path d="M177.0868 77.7572 L176.4223 77.4250 "/>
<path d="M176.4223 77.4250 L176.0901 76.7605 "/>
<path d="M176.0901 76.7605 L176.0901 76.0961 "/>
<path d="M176.0901 76.0961 L176.4223 75.4316 "/>
<path d="M176.4223 75.4316 L177.0868 75.0993 "/>
<path d="M177.0868 75.0993 L178.7479 75.0993 "/>
<path d="M178.7479 75.0993 L179.4124 74.7671 "/>
<path d="M183.7315 77.7572 L183.0670 77.4250 "/>
<path d="M183.0670 77.4250 L182.7348 76.7605 "/>
<path d="M182.7348 76.7605 L182.7348 70.7803 "/>
</g></g>
<g style="fill:#000084; fill-opacity:0.01;  stroke:#000084; stroke-width:0.4186; stroke-opacity:1;  stroke-linecap:round; stroke-linejoin:round;">
<text x="164.1295" y="62.0254" transform="scale(-1 1) translate(-328.259046 0)" textLength="9.8674" font-size="3.7211" lengthAdjust="spacingAndGlyphs" text-anchor="middle" opacity="0.01" style="font-family:monospace">FID2</text>
<g class="stroked-text"><desc>FID2</desc>
<path d="M161.1394 60.4375 L160.2091 60.4375 "/>
<path d="M160.2091 61.8993 L160.2091 59.1085 "/>
<path d="M160.2091 59.1085 L161.5381 59.1085 "/>
<path d="M162.6012 61.8993 L162.6012 59.1085 "/>
<path d="M163.9302 61.8993 L163.9302 59.1085 "/>
<path d="M163.9302 59.1085 L164.5947 59.1085 "/>
<path d="M164.5947 59.1085 L164.9933 59.2414 "/>
<path d="M164.9933 59.2414 L165.2591 59.5072 "/>
<path d="M165.2591 59.5072 L165.3920 59.7730 "/>
<path d="M165.3920 59.7730 L165.5249 60.3046 "/>
<path d="M165.5249 60.3046 L165.5249 60.7033 "/>
<path d="M165.5249 60.7033 L165.3920 61.2349 "/>
<path d="M165.3920 61.2349 L165.2591 61.5006 "/>
<path d="M165.2591 61.5006 L164.9933 61.7664 "/>
<path d="M164.9933 61.7664 L164.5947 61.8993 "/>
<path d="M164.5947 61.8993 L163.9302 61.8993 "/>
<path d="M166.5881 59.3743 L166.7210 59.2414 "/>
<path d="M166.7210 59.2414 L166.9868 59.1085 "/>
<path d="M166.9868 59.1085 L167.6512 59.1085 "/>
<path d="M167.6512 59.1085 L167.9170 59.2414 "/>
<path d="M167.9170 59.2414 L168.0499 59.3743 "/>
<path d="M168.0499 59.3743 L168.1828 59.6401 "/>
<path d="M168.1828 59.6401 L168.1828 59.9059 "/>
<path d="M168.1828 59.9059 L168.0499 60.3046 "/>
<path d="M168.0499 60.3046 L166.4552 61.8993 "/>
<path d="M166.4552 61.8993 L168.1828 61.8993 "/>
</g></g>
<g style="fill:#000084; fill-opacity:0.01;  stroke:#000084; stroke-width:1.0465; stroke-opacity:1;  stroke-linecap:round; stroke-linejoin:round;">
<text x="150.1756" y="196.6811" transform="scale(-1 1) translate(-300.351142 0)" textLength="42.9416" font-size="9.3026" lengthAdjust="spacingAndGlyphs" text-anchor="middle" opacity="0.01" style="font-family:monospace">Fiducial</text>
<g class="stroked-text"><desc>Fiducial</desc>
<path d="M133.5637 192.7112 L131.2381 192.7112 "/>
<path d="M131.2381 196.3658 L131.2381 189.3889 "/>
<path d="M131.2381 189.3889 L134.5604 189.3889 "/>
<path d="M137.2183 196.3658 L137.2183 191.7145 "/>
<path d="M137.2183 189.3889 L136.8861 189.7211 "/>
<path d="M136.8861 189.7211 L137.2183 190.0533 "/>
<path d="M137.2183 190.0533 L137.5506 189.7211 "/>
<path d="M137.5506 189.7211 L137.2183 189.3889 "/>
<path d="M137.2183 189.3889 L137.2183 190.0533 "/>
<path d="M143.5308 196.3658 L143.5308 189.3889 "/>
<path d="M143.5308 196.0336 L142.8664 196.3658 "/>
<path d="M142.8664 196.3658 L141.5374 196.3658 "/>
<path d="M141.5374 196.3658 L140.8729 196.0336 "/>
<path d="M140.8729 196.0336 L140.5407 195.7014 "/>
<path d="M140.5407 195.7014 L140.2085 195.0369 "/>
<path d="M140.2085 195.0369 L140.2085 193.0435 "/>
<path d="M140.2085 193.0435 L140.5407 192.3790 "/>
<path d="M140.5407 192.3790 L140.8729 192.0468 "/>
<path d="M140.8729 192.0468 L141.5374 191.7145 "/>
<path d="M141.5374 191.7145 L142.8664 191.7145 "/>
<path d="M142.8664 191.7145 L143.5308 192.0468 "/>
<path d="M149.8433 191.7145 L149.8433 196.3658 "/>
<path d="M146.8532 191.7145 L146.8532 195.3691 "/>
<path d="M146.8532 195.3691 L147.1854 196.0336 "/>
<path d="M147.1854 196.0336 L147.8499 196.3658 "/>
<path d="M147.8499 196.3658 L148.8466 196.3658 "/>
<path d="M148.8466 196.3658 L149.5111 196.0336 "/>
<path d="M149.5111 196.0336 L149.8433 195.7014 "/>
<path d="M156.1558 196.0336 L155.4914 196.3658 "/>
<path d="M155.4914 196.3658 L154.1624 196.3658 "/>
<path d="M154.1624 196.3658 L153.4979 196.0336 "/>
<path d="M153.4979 196.0336 L153.1657 195.7014 "/>
<path d="M153.1657 195.7014 L152.8335 195.0369 "/>
<path d="M152.8335 195.0369 L152.8335 193.0435 "/>
<path d="M152.8335 193.0435 L153.1657 192.3790 "/>
<path d="M153.1657 192.3790 L153.4979 192.0468 "/>
<path d="M153.4979 192.0468 L154.1624 191.7145 "/>
<path d="M154.1624 191.7145 L155.4914 191.7145 "/>
<path d="M155.4914 191.7145 L156.1558 192.0468 "/>
<path d="M159.1460 196.3658 L159.1460 191.7145 "/>
<path d="M159.1460 189.3889 L158.8137 189.7211 "/>
<path d="M158.8137 189.7211 L159.1460 190.0533 "/>
<path d="M159.1460 190.0533 L159.4782 189.7211 "/>
<path d="M159.4782 189.7211 L159.1460 189.3889 "/>
<path d="M159.1460 189.3889 L159.1460 190.0533 "/>
<path d="M165.4585 196.3658 L165.4585 192.7112 "/>
<path d="M165.4585 192.7112 L165.1262 192.0468 "/>
<path d="M165.1262 192.0468 L164.4618 191.7145 "/>
<path d="M164.4618 191.7145 L163.1328 191.7145 "/>
<path d="M163.1328 191.7145 L162.4683 192.0468 "/>
<path d="M165.4585 196.0336 L164.7940 196.3658 "/>
<path d="M164.7940 196.3658 L163.1328 196.3658 "/>
<path d="M163.1328 196.3658 L162.4683 196.0336 "/>
<path d="M162.4683 196.0336 L162.1361 195.3691 "/>
<path d="M162.1361 195.3691 L162.1361 194.7046 "/>
<path d="M162.1361 194.7046 L162.4683 194.0402 "/>
<path d="M162.4683 194.0402 L163.1328 193.7079 "/>
<path d="M163.1328 193.7079 L164.7940 193.7079 "/>
<path d="M164.7940 193.7079 L165.4585 193.3757 "/>
<path d="M169.7776 196.3658 L169.1131 196.0336 "/>
<path d="M169.1131 196.0336 L168.7808 195.3691 "/>
<path d="M168.7808 195.3691 L168.7808 189.3889 "/>
</g></g>
<g style="fill:#000084; fill-opacity:0.01;  stroke:#000084; stroke-width:0.4186; stroke-opacity:1;  stroke-linecap:round; stroke-linejoin:round;">
<text x="150.1756" y="180.6340" transform="scale(-1 1) translate(-300.351142 0)" textLength="9.8674" font-size="3.7211" lengthAdjust="spacingAndGlyphs" text-anchor="middle" opacity="0.01" style="font-family:monospace">FID1</text>
<g class="stroked-text"><desc>FID1</desc>
<path d="M147.1854 179.0461 L146.2552 179.0461 "/>
<path d="M146.2552 180.5079 L146.2552 177.7171 "/>
<path d="M146.2552 177.7171 L147.5841 177.7171 "/>
<path d="M148.6473 180.5079 L148.6473 177.7171 "/>
<path d="M149.9762 180.5079 L149.9762 177.7171 "/>
<path d="M149.9762 177.7171 L150.6407 177.7171 "/>
<path d="M150.6407 177.7171 L151.0394 177.8500 "/>
<path d="M151.0394 177.8500 L151.3052 178.1158 "/>
<path d="M151.3052 178.1158 L151.4381 178.3816 "/>
<path d="M151.4381 178.3816 L151.5710 178.9132 "/>
<path d="M151.5710 178.9132 L151.5710 179.3119 "/>
<path d="M151.5710 179.3119 L151.4381 179.8435 "/>
<path d="M151.4381 179.8435 L151.3052 180.1092 "/>
<path d="M151.3052 180.1092 L151.0394 180.3750 "/>
<path d="M151.0394 180.3750 L150.6407 180.5079 "/>
<path d="M150.6407 180.5079 L149.9762 180.5079 "/>
<path d="M154.2289 180.5079 L152.6341 180.5079 "/>
<path d="M153.4315 180.5079 L153.4315 177.7171 "/>
<path d="M153.4315 177.7171 L153.1657 178.1158 "/>
<path d="M153.1657 178.1158 L152.8999 178.3816 "/>
<path d="M152.8999 178.3816 L152.6341 178.5145 "/>
</g></g>
<g style="fill:#000084; fill-opacity:0.01;  stroke:#000084; stroke-width:1.0465; stroke-opacity:1;  stroke-linecap:round; stroke-linejoin:round;">
<text x="158.6735" y="152.1121" transform="scale(-1 1) translate(-317.347055 0)" textLength="33.9712" font-size="9.3026" lengthAdjust="spacingAndGlyphs" text-anchor="middle" opacity="0.01" style="font-family:monospace">100nF</text>
<g class="stroked-text"><desc>100nF</desc>
<path d="M147.8758 151.7969 L143.8890 151.7969 "/>
<path d="M145.8824 151.7969 L145.8824 144.8199 "/>
<path d="M145.8824 144.8199 L145.2179 145.8166 "/>
<path d="M145.2179 145.8166 L144.5535 146.4811 "/>
<path d="M144.5535 146.4811 L143.8890 146.8134 "/>
<path d="M152.1949 144.8199 L152.8594 144.8199 "/>
<path d="M152.8594 144.8199 L153.5239 145.1522 "/>
<path d="M153.5239 145.1522 L153.8561 145.4844 "/>
<path d="M153.8561 145.4844 L154.1883 146.1489 "/>
<path d="M154.1883 146.1489 L154.5206 147.4778 "/>
<path d="M154.5206 147.4778 L154.5206 149.1390 "/>
<path d="M154.5206 149.1390 L154.1883 150.4680 "/>
<path d="M154.1883 150.4680 L153.8561 151.1324 "/>
<path d="M153.8561 151.1324 L153.5239 151.4647 "/>
<path d="M153.5239 151.4647 L152.8594 151.7969 "/>
<path d="M152.8594 151.7969 L152.1949 151.7969 "/>
<path d="M152.1949 151.7969 L151.5304 151.4647 "/>
<path d="M151.5304 151.4647 L151.1982 151.1324 "/>
<path d="M151.1982 151.1324 L150.8660 150.4680 "/>
<path d="M150.8660 150.4680 L150.5337 149.1390 "/>
<path d="M150.5337 149.1390 L150.5337 147.4778 "/>
<path d="M150.5337 147.4778 L150.8660 146.1489 "/>
<path d="M150.8660 146.1489 L151.1982 145.4844 "/>
<path d="M151.1982 145.4844 L151.5304 145.1522 "/>
<path d="M151.5304 145.1522 L152.1949 144.8199 "/>
<path d="M158.8396 144.8199 L159.5041 144.8199 "/>
<path d="M159.5041 144.8199 L160.1686 145.1522 "/>
<path d="M160.1686 145.1522 L160.5008 145.4844 "/>
<path d="M160.5008 145.4844 L160.8331 146.1489 "/>
<path d="M160.8331 146.1489 L161.1653 147.4778 "/>
<path d="M161.1653 147.4778 L161.1653 149.1390 "/>
<path d="M161.1653 149.1390 L160.8331 150.4680 "/>
<path d="M160.8331 150.4680 L160.5008 151.1324 "/>
<path d="M160.5008 151.1324 L160.1686 151.4647 "/>
<path d="M160.1686 151.4647 L159.5041 151.7969 "/>
<path d="M159.5041 151.7969 L158.8396 151.7969 "/>
<path d="M158.8396 151.7969 L158.1752 151.4647 "/>
<path d="M158.1752 151.4647 L157.8429 151.1324 "/>
<path d="M157.8429 151.1324 L157.5107 150.4680 "/>
<path d="M157.5107 150.4680 L157.1785 149.1390 "/>
<path d="M157.1785 149.1390 L157.1785 147.4778 "/>
<path d="M157.1785 147.4778 L157.5107 146.1489 "/>
<path d="M157.5107 146.1489 L157.8429 145.4844 "/>
<path d="M157.8429 145.4844 L158.1752 145.1522 "/>
<path d="M158.1752 145.1522 L158.8396 144.8199 "/>
<path d="M164.1554 147.1456 L164.1554 151.7969 "/>
<path d="M164.1554 147.8101 L164.4877 147.4778 "/>
<path d="M164.4877 147.4778 L165.1522 147.1456 "/>
<path d="M165.1522 147.1456 L166.1489 147.1456 "/>
<path d="M166.1489 147.1456 L166.8133 147.4778 "/>
<path d="M166.8133 147.4778 L167.1456 148.1423 "/>
<path d="M167.1456 148.1423 L167.1456 151.7969 "/>
<path d="M172.7936 148.1423 L170.4679 148.1423 "/>
<path d="M170.4679 151.7969 L170.4679 144.8199 "/>
<path d="M170.4679 144.8199 L173.7903 144.8199 "/>
</g></g>
<g style="fill:#000084; fill-opacity:0.01;  stroke:#000084; stroke-width:0.5582; stroke-opacity:1;  stroke-linecap:round; stroke-linejoin:round;">
<text x="158.6735" y="138.6466" transform="scale(-1 1) translate(-317.347055 0)" textLength="7.7876" font-size="4.6513" lengthAdjust="spacingAndGlyphs" text-anchor="middle" opacity="0.01" style="font-family:monospace">C2</text>
<g class="stroked-text"><desc>C2</desc>
<path d="M158.0921 138.1549 L157.9260 138.3210 "/>
<path d="M157.9260 138.3210 L157.4276 138.4871 "/>
<path d="M157.4276 138.4871 L157.0954 138.4871 "/>
<path d="M157.0954 138.4871 L156.5971 138.3210 "/>
<path d="M156.5971 138.3210 L156.2648 137.9888 "/>
<path d="M156.2648 137.9888 L156.0987 137.6566 "/>
<path d="M156.0987 137.6566 L155.9326 136.9921 "/>
<path d="M155.9326 136.9921 L155.9326 136.4937 "/>
<path d="M155.9326 136.4937 L156.0987 135.8293 "/>
<path d="M156.0987 135.8293 L156.2648 135.4970 "/>
<path d="M156.2648 135.4970 L156.5971 135.1648 "/>
<path d="M156.5971 135.1648 L157.0954 134.9987 "/>
<path d="M157.0954 134.9987 L157.4276 134.9987 "/>
<path d="M157.4276 134.9987 L157.9260 135.1648 "/>
<path d="M157.9260 135.1648 L158.0921 135.3309 "/>
<path d="M159.4211 135.3309 L159.5872 135.1648 "/>
<path d="M159.5872 135.1648 L159.9194 134.9987 "/>
<path d="M159.9194 134.9987 L160.7500 134.9987 "/>
<path d="M160.7500 134.9987 L161.0823 135.1648 "/>
<path d="M161.0823 135.1648 L161.2484 135.3309 "/>
<path d="M161.2484 135.3309 L161.4145 135.6631 "/>
<path d="M161.4145 135.6631 L161.4145 135.9954 "/>
<path d="M161.4145 135.9954 L161.2484 136.4937 "/>
<path d="M161.2484 136.4937 L159.2549 138.4871 "/>
<path d="M159.2549 138.4871 L161.4145 138.4871 "/>
</g></g>
<g style="fill:#000084; fill-opacity:0.0;  stroke:#000084; stroke-width:0.6977; stroke-opacity:1;  stroke-linecap:round; stroke-linejoin:round;">
<path d="M189.7839 90.3031 L189.7839 126.7927 "/>
<path d="M189.7839 117.9319 L180.9231 126.7927 "/>
<path d="M189.7839 126.7927 L153.2943 126.7927 "/>
<path d="M153.2943 90.3031 L189.7839 90.3031 "/>
<path d="M153.2943 126.7927 L153.2943 90.3031 "/>
<path d="M97.1506 95.5149 L84.5920 95.5149 "/>
<path d="M84.5920 95.5149 L84.5920 75.9794 "/>
<path d="M90.8713 90.9799 L90.8713 88.1891 "/>
<path d="M90.8713 88.1891 L94.7086 88.1891 "/>
<path d="M90.8713 88.1891 L87.0339 88.1891 "/>
<path d="M90.8713 88.1891 L88.0805 84.0029 "/>
<path d="M93.6621 84.0029 L90.8713 88.1891 "/>
<path d="M90.8713 84.0029 L90.8713 80.5144 "/>
<path d="M88.0805 84.0029 L93.6621 84.0029 "/>
<path d="M97.1506 75.9794 L97.1506 95.5149 "/>
<path d="M84.5920 75.9794 L97.1506 75.9794 "/>
<path d="M141.5241 157.0867 L141.5241 148.3655 "/>
<path d="M141.5241 148.3655 L155.4781 148.3655 "/>
<path d="M155.4781 157.0867 L141.5241 157.0867 "/>
<path d="M155.4781 148.3655 L155.4781 157.0867 "/>
<circle cx="164.1295" cy="60.6300" r="6.9770"/> 
<circle cx="150.1756" cy="179.2386" r="6.9770"/> 
<path d="M151.6966 141.2629 L151.6966 132.5417 "/>
<path d="M151.6966 132.5417 L165.6505 132.5417 "/>
<path d="M165.6505 141.2629 L151.6966 141.2629 "/>
<path d="M165.6505 132.5417 L165.6505 141.2629 "/>
<g>
</g>
<g>
</g>
<g>
</g>
<g>
</g>
<g>
</g>
<g>
</g>
<g>
</g>
<g>
</g>
<g>
</g>
<g>
</g>
<g>
</g>
<g>
</g>
<g>
</g>
<g>
</g>
</g> 
<svg:g><svg:g><svg:title>SVG Image created as FRAM01-Edge_Cuts.svg date 2023/09/07 09:29:06 </svg:title>
  <svg:desc>Image generated by PCBNEW </svg:desc>
<svg:g style="fill:#C2C200; fill-opacity:1.0000;stroke:#C2C200; stroke-opacity:1.0000; stroke-linecap:round; stroke-linejoin:round;" transform="translate(0 0) scale(1 1)">
</svg:g>
<svg:g style="fill:#C2C200; fill-opacity:0.0;  stroke:#C2C200; stroke-width:0.0000; stroke-opacity:1;  stroke-linecap:round; stroke-linejoin:round;">
</svg:g>
<svg:g style="fill:#C2C200; fill-opacity:0.0;  stroke:#C2C200; stroke-width:0.8861; stroke-opacity:1;  stroke-linecap:round; stroke-linejoin:round;">
<svg:path d="M79.3872 209.5606 L217.6150 209.5606 "/>
<svg:path d="M217.6150 0.4466 L217.6150 209.5606 "/>
<svg:path d="M79.3872 0.4466 L79.3872 209.5606 "/>
<svg:path d="M217.6150 0.4466 L79.3872 0.4466 "/>
<svg:g>
</svg:g>
<svg:g>
</svg:g>
<svg:g>
</svg:g>
<svg:g>
</svg:g>
<svg:g>
</svg:g>
<svg:g>
</svg:g>
<svg:g>
</svg:g>
<svg:g>
</svg:g>
<svg:g>
</svg:g>
<svg:g>
</svg:g>
<svg:g>
</svg:g>
<svg:g>
</svg:g>
<svg:g>
</svg:g>
<svg:g>
</svg:g>
</svg:g> 
</svg:g></svg:g></svg>
