<!DOCTYPE svg PUBLIC "-//W3C//DTD SVG 1.1//EN" "http://www.w3.org/Graphics/SVG/1.1/DTD/svg11.dtd">
<svg xmlns="http://www.w3.org/2000/svg" version="1.1" width="29.938999mm" height="40.099mm" viewBox="127.2705 66.3105 29.938999999999993 40.099000000000004">
            <title>Picture generated by PcbDraw </title>
            <desc>Picture generated by PcbDraw</desc>
        <defs><clipPath id="cut-off"><path d=" M 132.334 101.346 L 132.334 71.374 L 152.146 71.374 L 152.146 101.346 L 132.334 101.346 " style="fill-rule: evenodd;"/></clipPath><mask id="pads-mask"><g style="fill:#ffffff; fill-opacity:0.0;  stroke:#ffffff; stroke-width:0.0000; stroke-opacity:1;  stroke-linecap:round; stroke-linejoin:round;">
<g style="fill:#ffffff; fill-opacity:1.0000;  stroke:#ffffff; stroke-width:0.0000; stroke-opacity:1;  stroke-linecap:round; stroke-linejoin:round;">
<circle cx="137.1600" cy="96.5200" r="3.0000"/> 
</g>
<g style="fill:#ffffff; fill-opacity:1.0000;  stroke:#ffffff; stroke-width:0.0000; stroke-opacity:1;  stroke-linecap:round; stroke-linejoin:round;">
<path style="fill:#ffffff; fill-opacity:1.0000;  stroke:#ffffff; stroke-width:0.0000; stroke-opacity:1;  stroke-linecap:round; stroke-linejoin:round;fill-rule:evenodd;" d="M 146.8120,82.0420 146.8120,80.5180 148.3360,80.5180 148.3360,82.0420 Z"/> 
<path style="fill:#ffffff; fill-opacity:1.0000;  stroke:#ffffff; stroke-width:0.0000; stroke-opacity:1;  stroke-linecap:round; stroke-linejoin:round;fill-rule:evenodd;" d="M 149.3520,82.0420 149.3520,80.5180 150.8760,80.5180 150.8760,82.0420 Z"/> 
<path style="fill:#ffffff; fill-opacity:1.0000;  stroke:#ffffff; stroke-width:0.0000; stroke-opacity:1;  stroke-linecap:round; stroke-linejoin:round;fill-rule:evenodd;" d="M 146.8120,84.5820 146.8120,83.0580 148.3360,83.0580 148.3360,84.5820 Z"/> 
<path style="fill:#ffffff; fill-opacity:1.0000;  stroke:#ffffff; stroke-width:0.0000; stroke-opacity:1;  stroke-linecap:round; stroke-linejoin:round;fill-rule:evenodd;" d="M 149.3520,84.5820 149.3520,83.0580 150.8760,83.0580 150.8760,84.5820 Z"/> 
<path style="fill:#ffffff; fill-opacity:1.0000;  stroke:#ffffff; stroke-width:0.0000; stroke-opacity:1;  stroke-linecap:round; stroke-linejoin:round;fill-rule:evenodd;" d="M 146.8120,87.1220 146.8120,85.5980 148.3360,85.5980 148.3360,87.1220 Z"/> 
<path style="fill:#ffffff; fill-opacity:1.0000;  stroke:#ffffff; stroke-width:0.0000; stroke-opacity:1;  stroke-linecap:round; stroke-linejoin:round;fill-rule:evenodd;" d="M 149.3520,87.1220 149.3520,85.5980 150.8760,85.5980 150.8760,87.1220 Z"/> 
<path style="fill:#ffffff; fill-opacity:1.0000;  stroke:#ffffff; stroke-width:0.0000; stroke-opacity:1;  stroke-linecap:round; stroke-linejoin:round;fill-rule:evenodd;" d="M 146.8120,89.6620 146.8120,88.1380 148.3360,88.1380 148.3360,89.6620 Z"/> 
<path style="fill:#ffffff; fill-opacity:1.0000;  stroke:#ffffff; stroke-width:0.0000; stroke-opacity:1;  stroke-linecap:round; stroke-linejoin:round;fill-rule:evenodd;" d="M 149.3520,89.6620 149.3520,88.1380 150.8760,88.1380 150.8760,89.6620 Z"/> 
<path style="fill:#ffffff; fill-opacity:1.0000;  stroke:#ffffff; stroke-width:0.0000; stroke-opacity:1;  stroke-linecap:round; stroke-linejoin:round;fill-rule:evenodd;" d="M 146.8120,92.2020 146.8120,90.6780 148.3360,90.6780 148.3360,92.2020 Z"/> 
<path style="fill:#ffffff; fill-opacity:1.0000;  stroke:#ffffff; stroke-width:0.0000; stroke-opacity:1;  stroke-linecap:round; stroke-linejoin:round;fill-rule:evenodd;" d="M 149.3520,92.2020 149.3520,90.6780 150.8760,90.6780 150.8760,92.2020 Z"/> 
</g>
<g style="fill:#ffffff; fill-opacity:1.0000;  stroke:#ffffff; stroke-width:0.0000; stroke-opacity:1;  stroke-linecap:round; stroke-linejoin:round;">
<circle cx="147.3200" cy="76.2000" r="3.0000"/> 
</g>
<g style="fill:#ffffff; fill-opacity:1.0000;  stroke:#ffffff; stroke-width:0.0000; stroke-opacity:1;  stroke-linecap:round; stroke-linejoin:round;">
<circle cx="137.1600" cy="76.2000" r="3.0000"/> 
</g>
<g style="fill:#ffffff; fill-opacity:1.0000;  stroke:#ffffff; stroke-width:0.0000; stroke-opacity:1;  stroke-linecap:round; stroke-linejoin:round;">
<circle cx="147.3200" cy="96.5200" r="3.0000"/> 
</g>
<g style="fill:#ffffff; fill-opacity:1.0000;  stroke:#ffffff; stroke-width:0.0000; stroke-opacity:1;  stroke-linecap:round; stroke-linejoin:round;">
<path style="fill:#ffffff; fill-opacity:1.0000;  stroke:#ffffff; stroke-width:0.0000; stroke-opacity:1;  stroke-linecap:round; stroke-linejoin:round;fill-rule:evenodd;" d="M 133.6040,87.1220 133.6040,85.5980 135.1280,85.5980 135.1280,87.1220 Z"/> 
<path style="fill:#ffffff; fill-opacity:1.0000;  stroke:#ffffff; stroke-width:0.0000; stroke-opacity:1;  stroke-linecap:round; stroke-linejoin:round;fill-rule:evenodd;" d="M 136.1440,87.1220 136.1440,85.5980 137.6680,85.5980 137.6680,87.1220 Z"/> 
<path style="fill:#ffffff; fill-opacity:1.0000;  stroke:#ffffff; stroke-width:0.0000; stroke-opacity:1;  stroke-linecap:round; stroke-linejoin:round;fill-rule:evenodd;" d="M 133.6040,89.6620 133.6040,88.1380 135.1280,88.1380 135.1280,89.6620 Z"/> 
<path style="fill:#ffffff; fill-opacity:1.0000;  stroke:#ffffff; stroke-width:0.0000; stroke-opacity:1;  stroke-linecap:round; stroke-linejoin:round;fill-rule:evenodd;" d="M 136.1440,89.6620 136.1440,88.1380 137.6680,88.1380 137.6680,89.6620 Z"/> 
<path style="fill:#ffffff; fill-opacity:1.0000;  stroke:#ffffff; stroke-width:0.0000; stroke-opacity:1;  stroke-linecap:round; stroke-linejoin:round;fill-rule:evenodd;" d="M 133.6040,92.2020 133.6040,90.6780 135.1280,90.6780 135.1280,92.2020 Z"/> 
<path style="fill:#ffffff; fill-opacity:1.0000;  stroke:#ffffff; stroke-width:0.0000; stroke-opacity:1;  stroke-linecap:round; stroke-linejoin:round;fill-rule:evenodd;" d="M 136.1440,92.2020 136.1440,90.6780 137.6680,90.6780 137.6680,92.2020 Z"/> 
</g>
</g> 
</mask><mask id="pads-mask-silkscreen"><rect x="132.2705" y="71.3105" width="19.939" height="30.099" fill="white"/><g style="fill:#000000; fill-opacity:0.0;  stroke:#000000; stroke-width:0.0000; stroke-opacity:1;  stroke-linecap:round; stroke-linejoin:round;">
<g style="fill:#000000; fill-opacity:1.0000;  stroke:#000000; stroke-width:0.0000; stroke-opacity:1;  stroke-linecap:round; stroke-linejoin:round;">
<circle cx="137.1600" cy="96.5200" r="3.0000"/> 
</g>
<g style="fill:#000000; fill-opacity:1.0000;  stroke:#000000; stroke-width:0.0000; stroke-opacity:1;  stroke-linecap:round; stroke-linejoin:round;">
<path style="fill:#000000; fill-opacity:1.0000;  stroke:#000000; stroke-width:0.0000; stroke-opacity:1;  stroke-linecap:round; stroke-linejoin:round;fill-rule:evenodd;" d="M 146.8120,82.0420 146.8120,80.5180 148.3360,80.5180 148.3360,82.0420 Z"/> 
<path style="fill:#000000; fill-opacity:1.0000;  stroke:#000000; stroke-width:0.0000; stroke-opacity:1;  stroke-linecap:round; stroke-linejoin:round;fill-rule:evenodd;" d="M 149.3520,82.0420 149.3520,80.5180 150.8760,80.5180 150.8760,82.0420 Z"/> 
<path style="fill:#000000; fill-opacity:1.0000;  stroke:#000000; stroke-width:0.0000; stroke-opacity:1;  stroke-linecap:round; stroke-linejoin:round;fill-rule:evenodd;" d="M 146.8120,84.5820 146.8120,83.0580 148.3360,83.0580 148.3360,84.5820 Z"/> 
<path style="fill:#000000; fill-opacity:1.0000;  stroke:#000000; stroke-width:0.0000; stroke-opacity:1;  stroke-linecap:round; stroke-linejoin:round;fill-rule:evenodd;" d="M 149.3520,84.5820 149.3520,83.0580 150.8760,83.0580 150.8760,84.5820 Z"/> 
<path style="fill:#000000; fill-opacity:1.0000;  stroke:#000000; stroke-width:0.0000; stroke-opacity:1;  stroke-linecap:round; stroke-linejoin:round;fill-rule:evenodd;" d="M 146.8120,87.1220 146.8120,85.5980 148.3360,85.5980 148.3360,87.1220 Z"/> 
<path style="fill:#000000; fill-opacity:1.0000;  stroke:#000000; stroke-width:0.0000; stroke-opacity:1;  stroke-linecap:round; stroke-linejoin:round;fill-rule:evenodd;" d="M 149.3520,87.1220 149.3520,85.5980 150.8760,85.5980 150.8760,87.1220 Z"/> 
<path style="fill:#000000; fill-opacity:1.0000;  stroke:#000000; stroke-width:0.0000; stroke-opacity:1;  stroke-linecap:round; stroke-linejoin:round;fill-rule:evenodd;" d="M 146.8120,89.6620 146.8120,88.1380 148.3360,88.1380 148.3360,89.6620 Z"/> 
<path style="fill:#000000; fill-opacity:1.0000;  stroke:#000000; stroke-width:0.0000; stroke-opacity:1;  stroke-linecap:round; stroke-linejoin:round;fill-rule:evenodd;" d="M 149.3520,89.6620 149.3520,88.1380 150.8760,88.1380 150.8760,89.6620 Z"/> 
<path style="fill:#000000; fill-opacity:1.0000;  stroke:#000000; stroke-width:0.0000; stroke-opacity:1;  stroke-linecap:round; stroke-linejoin:round;fill-rule:evenodd;" d="M 146.8120,92.2020 146.8120,90.6780 148.3360,90.6780 148.3360,92.2020 Z"/> 
<path style="fill:#000000; fill-opacity:1.0000;  stroke:#000000; stroke-width:0.0000; stroke-opacity:1;  stroke-linecap:round; stroke-linejoin:round;fill-rule:evenodd;" d="M 149.3520,92.2020 149.3520,90.6780 150.8760,90.6780 150.8760,92.2020 Z"/> 
</g>
<g style="fill:#000000; fill-opacity:1.0000;  stroke:#000000; stroke-width:0.0000; stroke-opacity:1;  stroke-linecap:round; stroke-linejoin:round;">
<circle cx="147.3200" cy="76.2000" r="3.0000"/> 
</g>
<g style="fill:#000000; fill-opacity:1.0000;  stroke:#000000; stroke-width:0.0000; stroke-opacity:1;  stroke-linecap:round; stroke-linejoin:round;">
<circle cx="137.1600" cy="76.2000" r="3.0000"/> 
</g>
<g style="fill:#000000; fill-opacity:1.0000;  stroke:#000000; stroke-width:0.0000; stroke-opacity:1;  stroke-linecap:round; stroke-linejoin:round;">
<circle cx="147.3200" cy="96.5200" r="3.0000"/> 
</g>
<g style="fill:#000000; fill-opacity:1.0000;  stroke:#000000; stroke-width:0.0000; stroke-opacity:1;  stroke-linecap:round; stroke-linejoin:round;">
<path style="fill:#000000; fill-opacity:1.0000;  stroke:#000000; stroke-width:0.0000; stroke-opacity:1;  stroke-linecap:round; stroke-linejoin:round;fill-rule:evenodd;" d="M 133.6040,87.1220 133.6040,85.5980 135.1280,85.5980 135.1280,87.1220 Z"/> 
<path style="fill:#000000; fill-opacity:1.0000;  stroke:#000000; stroke-width:0.0000; stroke-opacity:1;  stroke-linecap:round; stroke-linejoin:round;fill-rule:evenodd;" d="M 136.1440,87.1220 136.1440,85.5980 137.6680,85.5980 137.6680,87.1220 Z"/> 
<path style="fill:#000000; fill-opacity:1.0000;  stroke:#000000; stroke-width:0.0000; stroke-opacity:1;  stroke-linecap:round; stroke-linejoin:round;fill-rule:evenodd;" d="M 133.6040,89.6620 133.6040,88.1380 135.1280,88.1380 135.1280,89.6620 Z"/> 
<path style="fill:#000000; fill-opacity:1.0000;  stroke:#000000; stroke-width:0.0000; stroke-opacity:1;  stroke-linecap:round; stroke-linejoin:round;fill-rule:evenodd;" d="M 136.1440,89.6620 136.1440,88.1380 137.6680,88.1380 137.6680,89.6620 Z"/> 
<path style="fill:#000000; fill-opacity:1.0000;  stroke:#000000; stroke-width:0.0000; stroke-opacity:1;  stroke-linecap:round; stroke-linejoin:round;fill-rule:evenodd;" d="M 133.6040,92.2020 133.6040,90.6780 135.1280,90.6780 135.1280,92.2020 Z"/> 
<path style="fill:#000000; fill-opacity:1.0000;  stroke:#000000; stroke-width:0.0000; stroke-opacity:1;  stroke-linecap:round; stroke-linejoin:round;fill-rule:evenodd;" d="M 136.1440,92.2020 136.1440,90.6780 137.6680,90.6780 137.6680,92.2020 Z"/> 
</g>
</g> 
</mask><mask id="hole-mask"><g><rect x="132.2705" y="71.3105" fill="white" width="19.939" height="30.099"/><polyline stroke-linecap="round" stroke="black" stroke-width="3.0" points="-0.0 0 0.0 0" transform="translate(137.16 96.52) rotate(-0.0)"/><polyline stroke-linecap="round" stroke="black" stroke-width="0.889" points="-0.0 0 0.0 0" transform="translate(147.574 81.28) rotate(-0.0)"/><polyline stroke-linecap="round" stroke="black" stroke-width="0.889" points="-0.0 0 0.0 0" transform="translate(150.114 81.28) rotate(-0.0)"/><polyline stroke-linecap="round" stroke="black" stroke-width="0.889" points="-0.0 0 0.0 0" transform="translate(147.574 83.82) rotate(-0.0)"/><polyline stroke-linecap="round" stroke="black" stroke-width="0.889" points="-0.0 0 0.0 0" transform="translate(150.114 83.82) rotate(-0.0)"/><polyline stroke-linecap="round" stroke="black" stroke-width="0.889" points="-0.0 0 0.0 0" transform="translate(147.574 86.36) rotate(-0.0)"/><polyline stroke-linecap="round" stroke="black" stroke-width="0.889" points="-0.0 0 0.0 0" transform="translate(150.114 86.36) rotate(-0.0)"/><polyline stroke-linecap="round" stroke="black" stroke-width="0.889" points="-0.0 0 0.0 0" transform="translate(147.574 88.9) rotate(-0.0)"/><polyline stroke-linecap="round" stroke="black" stroke-width="0.889" points="-0.0 0 0.0 0" transform="translate(150.114 88.9) rotate(-0.0)"/><polyline stroke-linecap="round" stroke="black" stroke-width="0.889" points="-0.0 0 0.0 0" transform="translate(147.574 91.44) rotate(-0.0)"/><polyline stroke-linecap="round" stroke="black" stroke-width="0.889" points="-0.0 0 0.0 0" transform="translate(150.114 91.44) rotate(-0.0)"/><polyline stroke-linecap="round" stroke="black" stroke-width="3.0" points="-0.0 0 0.0 0" transform="translate(147.32 76.2) rotate(-0.0)"/><polyline stroke-linecap="round" stroke="black" stroke-width="3.0" points="-0.0 0 0.0 0" transform="translate(137.16 76.2) rotate(-0.0)"/><polyline stroke-linecap="round" stroke="black" stroke-width="3.0" points="-0.0 0 0.0 0" transform="translate(147.32 96.52) rotate(-0.0)"/><polyline stroke-linecap="round" stroke="black" stroke-width="0.889" points="-0.0 0 0.0 0" transform="translate(134.366 86.36) rotate(-0.0)"/><polyline stroke-linecap="round" stroke="black" stroke-width="0.889" points="-0.0 0 0.0 0" transform="translate(136.906 86.36) rotate(-0.0)"/><polyline stroke-linecap="round" stroke="black" stroke-width="0.889" points="-0.0 0 0.0 0" transform="translate(134.366 88.9) rotate(-0.0)"/><polyline stroke-linecap="round" stroke="black" stroke-width="0.889" points="-0.0 0 0.0 0" transform="translate(136.906 88.9) rotate(-0.0)"/><polyline stroke-linecap="round" stroke="black" stroke-width="0.889" points="-0.0 0 0.0 0" transform="translate(134.366 91.44) rotate(-0.0)"/><polyline stroke-linecap="round" stroke="black" stroke-width="0.889" points="-0.0 0 0.0 0" transform="translate(136.906 91.44) rotate(-0.0)"/><polyline stroke-linecap="round" stroke="black" stroke-width="0.4" points="-0.0 0 0.0 0" transform="translate(140.462 90.17) rotate(-0.0)"/><polyline stroke-linecap="round" stroke="black" stroke-width="0.4" points="-0.0 0 0.0 0" transform="translate(140.716 82.55) rotate(-0.0)"/><polyline stroke-linecap="round" stroke="black" stroke-width="0.4" points="-0.0 0 0.0 0" transform="translate(134.62 84.074) rotate(-0.0)"/><polyline stroke-linecap="round" stroke="black" stroke-width="0.4" points="-0.0 0 0.0 0" transform="translate(140.97 93.98) rotate(-0.0)"/><polyline stroke-linecap="round" stroke="black" stroke-width="0.4" points="-0.0 0 0.0 0" transform="translate(135.636 84.074) rotate(-0.0)"/><polyline stroke-linecap="round" stroke="black" stroke-width="0.4" points="-0.0 0 0.0 0" transform="translate(133.604 79.502) rotate(-0.0)"/><polyline stroke-linecap="round" stroke="black" stroke-width="0.4" points="-0.0 0 0.0 0" transform="translate(140.716 80.518) rotate(-0.0)"/><polyline stroke-linecap="round" stroke="black" stroke-width="0.4" points="-0.0 0 0.0 0" transform="translate(133.604 84.074) rotate(-0.0)"/><polyline stroke-linecap="round" stroke="black" stroke-width="0.4" points="-0.0 0 0.0 0" transform="translate(140.716 81.534) rotate(-0.0)"/><polyline stroke-linecap="round" stroke="black" stroke-width="0.4" points="-0.0 0 0.0 0" transform="translate(138.684 91.948) rotate(-0.0)"/></g></mask></defs><g transform="" id="boardContainer"><g id="substrate" clip-path="url(#cut-off)" mask="url(#hole-mask)"><g id="substrate-board" style="fill:#f1f4f3; stroke:#f1f4f3;"><path d=" M 132.334 101.346 L 132.334 71.374 L 152.146 71.374 L 152.146 101.346 L 132.334 101.346 " style="fill-rule: evenodd;"/><g style="fill-opacity: 0.0;stroke-width: 0.1270;stroke-opacity: 1;stroke-linecap: round;stroke-linejoin: round">
<path d="M152.1460 101.3460 L132.3340 101.3460 "/>
<path d="M132.3340 71.3740 L132.3340 101.3460 "/>
<path d="M152.1460 71.3740 L152.1460 101.3460 "/>
<path d="M132.3340 71.3740 L152.1460 71.3740 "/>
</g> 
</g><g id="substrate-clad" style="fill:#72786c; stroke:#72786c;"><g style="fill-opacity: 0.0;stroke-width: 0.0000;stroke-opacity: 1;stroke-linecap: round;stroke-linejoin: round">
<g style="fill-opacity: 1.0000;stroke-width: 0.0000;stroke-opacity: 1;stroke-linecap: round;stroke-linejoin: round">
<circle cx="137.1600" cy="96.5200" r="3.0000"/> 
</g>
<g style="fill-opacity: 1.0000;stroke-width: 0.0000;stroke-opacity: 1;stroke-linecap: round;stroke-linejoin: round">
<path style="fill-opacity: 1.0000;stroke-width: 0.0000;stroke-opacity: 1;stroke-linecap: round;stroke-linejoin: round;fill-rule: evenodd" d="M 146.8120,82.0420 146.8120,80.5180 148.3360,80.5180 148.3360,82.0420 Z"/> 
<path style="fill-opacity: 1.0000;stroke-width: 0.0000;stroke-opacity: 1;stroke-linecap: round;stroke-linejoin: round;fill-rule: evenodd" d="M 149.3520,82.0420 149.3520,80.5180 150.8760,80.5180 150.8760,82.0420 Z"/> 
<path style="fill-opacity: 1.0000;stroke-width: 0.0000;stroke-opacity: 1;stroke-linecap: round;stroke-linejoin: round;fill-rule: evenodd" d="M 146.8120,84.5820 146.8120,83.0580 148.3360,83.0580 148.3360,84.5820 Z"/> 
<path style="fill-opacity: 1.0000;stroke-width: 0.0000;stroke-opacity: 1;stroke-linecap: round;stroke-linejoin: round;fill-rule: evenodd" d="M 149.3520,84.5820 149.3520,83.0580 150.8760,83.0580 150.8760,84.5820 Z"/> 
<path style="fill-opacity: 1.0000;stroke-width: 0.0000;stroke-opacity: 1;stroke-linecap: round;stroke-linejoin: round;fill-rule: evenodd" d="M 146.8120,87.1220 146.8120,85.5980 148.3360,85.5980 148.3360,87.1220 Z"/> 
<path style="fill-opacity: 1.0000;stroke-width: 0.0000;stroke-opacity: 1;stroke-linecap: round;stroke-linejoin: round;fill-rule: evenodd" d="M 149.3520,87.1220 149.3520,85.5980 150.8760,85.5980 150.8760,87.1220 Z"/> 
<path style="fill-opacity: 1.0000;stroke-width: 0.0000;stroke-opacity: 1;stroke-linecap: round;stroke-linejoin: round;fill-rule: evenodd" d="M 146.8120,89.6620 146.8120,88.1380 148.3360,88.1380 148.3360,89.6620 Z"/> 
<path style="fill-opacity: 1.0000;stroke-width: 0.0000;stroke-opacity: 1;stroke-linecap: round;stroke-linejoin: round;fill-rule: evenodd" d="M 149.3520,89.6620 149.3520,88.1380 150.8760,88.1380 150.8760,89.6620 Z"/> 
<path style="fill-opacity: 1.0000;stroke-width: 0.0000;stroke-opacity: 1;stroke-linecap: round;stroke-linejoin: round;fill-rule: evenodd" d="M 146.8120,92.2020 146.8120,90.6780 148.3360,90.6780 148.3360,92.2020 Z"/> 
<path style="fill-opacity: 1.0000;stroke-width: 0.0000;stroke-opacity: 1;stroke-linecap: round;stroke-linejoin: round;fill-rule: evenodd" d="M 149.3520,92.2020 149.3520,90.6780 150.8760,90.6780 150.8760,92.2020 Z"/> 
</g>
<g style="fill-opacity: 1.0000;stroke-width: 0.0000;stroke-opacity: 1;stroke-linecap: round;stroke-linejoin: round">
<circle cx="147.3200" cy="76.2000" r="3.0000"/> 
</g>
<g style="fill-opacity: 1.0000;stroke-width: 0.0000;stroke-opacity: 1;stroke-linecap: round;stroke-linejoin: round">
<circle cx="137.1600" cy="76.2000" r="3.0000"/> 
</g>
<g style="fill-opacity: 1.0000;stroke-width: 0.0000;stroke-opacity: 1;stroke-linecap: round;stroke-linejoin: round">
<circle cx="147.3200" cy="96.5200" r="3.0000"/> 
</g>
<g style="fill-opacity: 1.0000;stroke-width: 0.0000;stroke-opacity: 1;stroke-linecap: round;stroke-linejoin: round">
<path style="fill-opacity: 1.0000;stroke-width: 0.0000;stroke-opacity: 1;stroke-linecap: round;stroke-linejoin: round;fill-rule: evenodd" d="M 133.6040,87.1220 133.6040,85.5980 135.1280,85.5980 135.1280,87.1220 Z"/> 
<path style="fill-opacity: 1.0000;stroke-width: 0.0000;stroke-opacity: 1;stroke-linecap: round;stroke-linejoin: round;fill-rule: evenodd" d="M 136.1440,87.1220 136.1440,85.5980 137.6680,85.5980 137.6680,87.1220 Z"/> 
<path style="fill-opacity: 1.0000;stroke-width: 0.0000;stroke-opacity: 1;stroke-linecap: round;stroke-linejoin: round;fill-rule: evenodd" d="M 133.6040,89.6620 133.6040,88.1380 135.1280,88.1380 135.1280,89.6620 Z"/> 
<path style="fill-opacity: 1.0000;stroke-width: 0.0000;stroke-opacity: 1;stroke-linecap: round;stroke-linejoin: round;fill-rule: evenodd" d="M 136.1440,89.6620 136.1440,88.1380 137.6680,88.1380 137.6680,89.6620 Z"/> 
<path style="fill-opacity: 1.0000;stroke-width: 0.0000;stroke-opacity: 1;stroke-linecap: round;stroke-linejoin: round;fill-rule: evenodd" d="M 133.6040,92.2020 133.6040,90.6780 135.1280,90.6780 135.1280,92.2020 Z"/> 
<path style="fill-opacity: 1.0000;stroke-width: 0.0000;stroke-opacity: 1;stroke-linecap: round;stroke-linejoin: round;fill-rule: evenodd" d="M 136.1440,92.2020 136.1440,90.6780 137.6680,90.6780 137.6680,92.2020 Z"/> 
</g>
</g> 
</g><g id="substrate-copper" style="fill:#f8f8f7; stroke:#f8f8f7;"><g style="fill-opacity: 0.0;stroke-width: 0.0000;stroke-opacity: 1;stroke-linecap: round;stroke-linejoin: round">
<g style="fill-opacity: 1.0000;stroke-width: 0.0000;stroke-opacity: 1;stroke-linecap: round;stroke-linejoin: round">
<circle cx="137.1600" cy="96.5200" r="3.0000"/> 
</g>
<g style="fill-opacity: 1.0000;stroke-width: 0.0000;stroke-opacity: 1;stroke-linecap: round;stroke-linejoin: round">
<path style="fill-opacity: 1.0000;stroke-width: 0.0000;stroke-opacity: 1;stroke-linecap: round;stroke-linejoin: round;fill-rule: evenodd" d="M 146.8120,82.0420 146.8120,80.5180 148.3360,80.5180 148.3360,82.0420 Z"/> 
<path style="fill-opacity: 1.0000;stroke-width: 0.0000;stroke-opacity: 1;stroke-linecap: round;stroke-linejoin: round;fill-rule: evenodd" d="M 149.3520,82.0420 149.3520,80.5180 150.8760,80.5180 150.8760,82.0420 Z"/> 
<path style="fill-opacity: 1.0000;stroke-width: 0.0000;stroke-opacity: 1;stroke-linecap: round;stroke-linejoin: round;fill-rule: evenodd" d="M 146.8120,84.5820 146.8120,83.0580 148.3360,83.0580 148.3360,84.5820 Z"/> 
<path style="fill-opacity: 1.0000;stroke-width: 0.0000;stroke-opacity: 1;stroke-linecap: round;stroke-linejoin: round;fill-rule: evenodd" d="M 149.3520,84.5820 149.3520,83.0580 150.8760,83.0580 150.8760,84.5820 Z"/> 
<path style="fill-opacity: 1.0000;stroke-width: 0.0000;stroke-opacity: 1;stroke-linecap: round;stroke-linejoin: round;fill-rule: evenodd" d="M 146.8120,87.1220 146.8120,85.5980 148.3360,85.5980 148.3360,87.1220 Z"/> 
<path style="fill-opacity: 1.0000;stroke-width: 0.0000;stroke-opacity: 1;stroke-linecap: round;stroke-linejoin: round;fill-rule: evenodd" d="M 149.3520,87.1220 149.3520,85.5980 150.8760,85.5980 150.8760,87.1220 Z"/> 
<path style="fill-opacity: 1.0000;stroke-width: 0.0000;stroke-opacity: 1;stroke-linecap: round;stroke-linejoin: round;fill-rule: evenodd" d="M 146.8120,89.6620 146.8120,88.1380 148.3360,88.1380 148.3360,89.6620 Z"/> 
<path style="fill-opacity: 1.0000;stroke-width: 0.0000;stroke-opacity: 1;stroke-linecap: round;stroke-linejoin: round;fill-rule: evenodd" d="M 149.3520,89.6620 149.3520,88.1380 150.8760,88.1380 150.8760,89.6620 Z"/> 
<path style="fill-opacity: 1.0000;stroke-width: 0.0000;stroke-opacity: 1;stroke-linecap: round;stroke-linejoin: round;fill-rule: evenodd" d="M 146.8120,92.2020 146.8120,90.6780 148.3360,90.6780 148.3360,92.2020 Z"/> 
<path style="fill-opacity: 1.0000;stroke-width: 0.0000;stroke-opacity: 1;stroke-linecap: round;stroke-linejoin: round;fill-rule: evenodd" d="M 149.3520,92.2020 149.3520,90.6780 150.8760,90.6780 150.8760,92.2020 Z"/> 
</g>
<g style="fill-opacity: 1.0000;stroke-width: 0.0000;stroke-opacity: 1;stroke-linecap: round;stroke-linejoin: round">
<circle cx="147.3200" cy="76.2000" r="3.0000"/> 
</g>
<g style="fill-opacity: 1.0000;stroke-width: 0.0000;stroke-opacity: 1;stroke-linecap: round;stroke-linejoin: round">
<circle cx="137.1600" cy="76.2000" r="3.0000"/> 
</g>
<g style="fill-opacity: 1.0000;stroke-width: 0.0000;stroke-opacity: 1;stroke-linecap: round;stroke-linejoin: round">
<circle cx="147.3200" cy="96.5200" r="3.0000"/> 
</g>
<g style="fill-opacity: 1.0000;stroke-width: 0.0000;stroke-opacity: 1;stroke-linecap: round;stroke-linejoin: round">
<path style="fill-opacity: 1.0000;stroke-width: 0.0000;stroke-opacity: 1;stroke-linecap: round;stroke-linejoin: round;fill-rule: evenodd" d="M 133.6040,87.1220 133.6040,85.5980 135.1280,85.5980 135.1280,87.1220 Z"/> 
<path style="fill-opacity: 1.0000;stroke-width: 0.0000;stroke-opacity: 1;stroke-linecap: round;stroke-linejoin: round;fill-rule: evenodd" d="M 136.1440,87.1220 136.1440,85.5980 137.6680,85.5980 137.6680,87.1220 Z"/> 
<path style="fill-opacity: 1.0000;stroke-width: 0.0000;stroke-opacity: 1;stroke-linecap: round;stroke-linejoin: round;fill-rule: evenodd" d="M 133.6040,89.6620 133.6040,88.1380 135.1280,88.1380 135.1280,89.6620 Z"/> 
<path style="fill-opacity: 1.0000;stroke-width: 0.0000;stroke-opacity: 1;stroke-linecap: round;stroke-linejoin: round;fill-rule: evenodd" d="M 136.1440,89.6620 136.1440,88.1380 137.6680,88.1380 137.6680,89.6620 Z"/> 
<path style="fill-opacity: 1.0000;stroke-width: 0.0000;stroke-opacity: 1;stroke-linecap: round;stroke-linejoin: round;fill-rule: evenodd" d="M 133.6040,92.2020 133.6040,90.6780 135.1280,90.6780 135.1280,92.2020 Z"/> 
<path style="fill-opacity: 1.0000;stroke-width: 0.0000;stroke-opacity: 1;stroke-linecap: round;stroke-linejoin: round;fill-rule: evenodd" d="M 136.1440,92.2020 136.1440,90.6780 137.6680,90.6780 137.6680,92.2020 Z"/> 
</g>
<g style="fill-opacity: 1.0000;stroke-width: 0.0000;stroke-opacity: 1;stroke-linecap: round;stroke-linejoin: round">
<circle cx="140.4620" cy="90.1700" r="0.4000"/> 
</g>
<g style="fill-opacity: 1.0000;stroke-width: 0.0000;stroke-opacity: 1;stroke-linecap: round;stroke-linejoin: round">
<circle cx="140.7160" cy="82.5500" r="0.4000"/> 
</g>
<g style="fill-opacity: 1.0000;stroke-width: 0.0000;stroke-opacity: 1;stroke-linecap: round;stroke-linejoin: round">
<circle cx="134.6200" cy="84.0740" r="0.4000"/> 
</g>
<g style="fill-opacity: 1.0000;stroke-width: 0.0000;stroke-opacity: 1;stroke-linecap: round;stroke-linejoin: round">
<circle cx="140.9700" cy="93.9800" r="0.4000"/> 
</g>
<g style="fill-opacity: 1.0000;stroke-width: 0.0000;stroke-opacity: 1;stroke-linecap: round;stroke-linejoin: round">
<circle cx="135.6360" cy="84.0740" r="0.4000"/> 
</g>
<g style="fill-opacity: 1.0000;stroke-width: 0.0000;stroke-opacity: 1;stroke-linecap: round;stroke-linejoin: round">
<circle cx="133.6040" cy="79.5020" r="0.4000"/> 
</g>
<g style="fill-opacity: 1.0000;stroke-width: 0.0000;stroke-opacity: 1;stroke-linecap: round;stroke-linejoin: round">
<circle cx="140.7160" cy="80.5180" r="0.4000"/> 
</g>
<g style="fill-opacity: 1.0000;stroke-width: 0.0000;stroke-opacity: 1;stroke-linecap: round;stroke-linejoin: round">
<circle cx="133.6040" cy="84.0740" r="0.4000"/> 
</g>
<g style="fill-opacity: 1.0000;stroke-width: 0.0000;stroke-opacity: 1;stroke-linecap: round;stroke-linejoin: round">
<circle cx="140.7160" cy="81.5340" r="0.4000"/> 
</g>
<g style="fill-opacity: 1.0000;stroke-width: 0.0000;stroke-opacity: 1;stroke-linecap: round;stroke-linejoin: round">
<circle cx="138.6840" cy="91.9480" r="0.4000"/> 
</g>
<g style="fill-opacity: 1.0000;stroke-width: 0.0212;stroke-opacity: 1;stroke-linecap: round;stroke-linejoin: round">
<g style="fill-opacity: 1.0000;stroke-width: 0.0000;stroke-opacity: 1;stroke-linecap: round;stroke-linejoin: round">
<path style="fill-opacity: 1.0000;stroke-width: 0.0000;stroke-opacity: 1;stroke-linecap: round;stroke-linejoin: round;fill-rule: evenodd" d="M 136.4187,91.2097 136.4644,91.2625 136.4744,91.3316 136.4725,91.3416 136.4577,91.4064 136.4577,91.4064 136.4577,91.4064 136.4684,91.5493 136.4667,91.5494 136.4631,91.6081 136.4218,91.6645 136.3566,91.6896 136.3465,91.6900 134.9204,91.6900 134.8533,91.6703 134.8076,91.6175 134.7976,91.5484 134.7995,91.5384 134.8143,91.4736 134.8143,91.4736 134.8036,91.3307 134.8053,91.3306 134.8089,91.2719 134.8502,91.2155 134.9154,91.1904 134.9255,91.1900 136.3516,91.1900 Z"/> 
<path style="fill-opacity: 1.0000;stroke-width: 0.0000;stroke-opacity: 1;stroke-linecap: round;stroke-linejoin: round;fill-rule: evenodd" d="M 136.4187,86.1297 136.4644,86.1825 136.4744,86.2516 136.4725,86.2616 136.4577,86.3264 136.4577,86.3264 136.4577,86.3264 136.4684,86.4693 136.4667,86.4694 136.4631,86.5281 136.4218,86.5845 136.3566,86.6096 136.3465,86.6100 134.9204,86.6100 134.8533,86.5903 134.8076,86.5375 134.7976,86.4684 134.7995,86.4584 134.8143,86.3936 134.8143,86.3936 134.8036,86.2507 134.8053,86.2506 134.8089,86.1919 134.8502,86.1355 134.9154,86.1104 134.9255,86.1100 136.3516,86.1100 Z"/> 
<path style="fill-opacity: 1.0000;stroke-width: 0.0000;stroke-opacity: 1;stroke-linecap: round;stroke-linejoin: round;fill-rule: evenodd" d="M 151.5810,71.9017 151.6268,71.9545 151.6380,72.0060 151.6380,100.7140 151.6183,100.7810 151.5655,100.8268 151.5140,100.8380 132.9660,100.8380 132.8990,100.8183 132.8532,100.7655 132.8420,100.7140 132.8420,89.7107 133.0955,89.7107 133.1020,89.7712 133.1020,89.7712 133.1531,89.9082 133.1531,89.9082 133.2407,90.0253 133.3086,90.0760 133.3504,90.1320 133.3554,90.2017 133.3219,90.2630 133.3086,90.2746 133.2468,90.3208 133.1606,90.4359 133.1606,90.4359 133.1104,90.5706 133.1104,90.5706 133.1040,90.6302 133.1040,91.1900 133.8116,91.1900 133.8787,91.2097 133.9244,91.2625 133.9344,91.3316 133.9325,91.3416 133.9177,91.4064 133.9177,91.4064 133.9284,91.5493 133.9267,91.5494 133.9231,91.6081 133.8818,91.6645 133.8166,91.6896 133.8065,91.6900 133.1040,91.6900 133.1040,92.2498 133.1104,92.3094 133.1104,92.3094 133.1606,92.4441 133.1606,92.4441 133.2468,92.5592 133.2468,92.5592 133.3619,92.6453 133.3619,92.6454 133.4966,92.6956 133.4966,92.6956 133.5562,92.7020 133.5562,92.7020 134.1160,92.7020 134.1160,91.9961 134.1357,91.9290 134.1885,91.8833 134.2576,91.8733 134.2765,91.8776 134.2990,91.8845 134.2990,91.8845 134.3993,91.8845 134.3993,91.8845 134.4735,91.8733 134.5427,91.8828 134.5959,91.9282 134.6160,91.9951 134.6160,91.9959 134.6160,92.7020 135.1758,92.7020 135.1758,92.7020 135.2354,92.6956 135.2354,92.6956 135.3701,92.6454 135.3701,92.6453 135.4852,92.5592 135.5367,92.4903 135.5927,92.4485 135.6624,92.4435 135.7237,92.4770 135.7353,92.4903 135.7868,92.5592 135.9019,92.6453 135.9019,92.6454 136.0366,92.6956 136.0366,92.6956 136.0962,92.7020 136.0962,92.7020 136.6560,92.7020 136.6560,91.9961 136.6757,91.9290 136.7285,91.8833 136.7976,91.8733 136.8165,91.8776 136.8390,91.8845 136.8390,91.8845 136.9393,91.8845 136.9393,91.8845 137.0135,91.8733 137.0827,91.8828 137.1359,91.9282 137.1560,91.9951 137.1560,91.9959 137.1560,92.7020 137.7158,92.7020 137.7158,92.7020 137.7754,92.6956 137.7754,92.6956 137.9101,92.6454 137.9101,92.6453 138.0252,92.5592 138.0252,92.5592 138.1113,92.4441 138.1114,92.4441 138.1616,92.3094 138.1616,92.3094 138.1679,92.2507 146.3035,92.2507 146.3100,92.3112 146.3100,92.3112 146.3593,92.4435 146.3611,92.4482 146.4487,92.5653 146.5658,92.6529 146.6803,92.6956 146.6975,92.7020 146.7028,92.7040 146.7301,92.7069 146.7633,92.7105 146.7634,92.7105 148.3846,92.7105 148.3847,92.7105 148.4117,92.7076 148.4452,92.7040 148.4505,92.7020 148.4677,92.6956 148.5822,92.6529 148.6993,92.5653 148.7447,92.5045 148.8007,92.4626 148.8704,92.4577 148.9317,92.4911 148.9433,92.5045 148.9887,92.5653 149.1058,92.6529 149.2203,92.6956 149.2375,92.7020 149.2428,92.7040 149.2700,92.7069 149.3033,92.7105 149.3034,92.7105 150.9246,92.7105 150.9247,92.7105 150.9517,92.7076 150.9852,92.7040 150.9905,92.7020 151.0077,92.6956 151.1222,92.6529 151.2393,92.5653 151.3269,92.4482 151.3780,92.3112 151.3816,92.2777 151.3845,92.2507 151.3845,92.2506 151.3845,90.6294 151.3845,90.6293 151.3812,90.5983 151.3780,90.5688 151.3269,90.4318 151.2393,90.3147 151.1785,90.2693 151.1366,90.2133 151.1317,90.1436 151.1651,90.0823 151.1785,90.0707 151.2393,90.0253 151.3269,89.9082 151.3780,89.7712 151.3816,89.7377 151.3845,89.7107 151.3845,89.7106 151.3845,88.0894 151.3845,88.0893 151.3812,88.0583 151.3780,88.0288 151.3269,87.8918 151.2393,87.7747 151.1785,87.7293 151.1366,87.6733 151.1317,87.6036 151.1651,87.5423 151.1785,87.5307 151.2393,87.4853 151.3269,87.3682 151.3780,87.2312 151.3816,87.1977 151.3845,87.1707 151.3845,87.1706 151.3845,85.5494 151.3845,85.5493 151.3812,85.5183 151.3780,85.4888 151.3269,85.3518 151.2393,85.2347 151.1785,85.1893 151.1366,85.1333 151.1317,85.0636 151.1651,85.0023 151.1785,84.9907 151.2393,84.9453 151.3269,84.8282 151.3780,84.6912 151.3816,84.6577 151.3845,84.6307 151.3845,84.6306 151.3845,83.0094 151.3845,83.0093 151.3812,82.9783 151.3780,82.9488 151.3269,82.8118 151.2393,82.6947 151.1785,82.6493 151.1366,82.5933 151.1317,82.5236 151.1651,82.4623 151.1785,82.4507 151.2393,82.4053 151.3269,82.2882 151.3780,82.1512 151.3816,82.1177 151.3845,82.0907 151.3845,82.0906 151.3845,80.4694 151.3845,80.4693 151.3812,80.4383 151.3780,80.4088 151.3269,80.2718 151.2393,80.1547 151.1222,80.0671 151.1222,80.0671 150.9852,80.0160 150.9247,80.0095 150.9246,80.0095 149.3034,80.0095 149.3033,80.0095 149.2428,80.0160 149.2428,80.0160 149.1058,80.0671 148.9887,80.1547 148.9433,80.2155 148.8873,80.2574 148.8176,80.2623 148.7563,80.2289 148.7447,80.2155 148.6993,80.1547 148.6993,80.1547 148.6993,80.1547 148.5822,80.0671 148.5822,80.0671 148.4452,80.0160 148.3847,80.0095 148.3846,80.0095 146.7634,80.0095 146.7633,80.0095 146.7028,80.0160 146.7028,80.0160 146.5658,80.0671 146.4487,80.1547 146.3611,80.2718 146.3100,80.4088 146.3100,80.4088 146.3035,80.4693 146.3035,82.0907 146.3100,82.1512 146.3100,82.1512 146.3611,82.2882 146.3611,82.2882 146.4487,82.4053 146.4487,82.4053 146.4487,82.4053 146.5095,82.4507 146.5514,82.5067 146.5563,82.5764 146.5229,82.6377 146.5095,82.6493 146.4487,82.6947 146.3611,82.8118 146.3100,82.9488 146.3100,82.9488 146.3035,83.0093 146.3035,84.6307 146.3100,84.6912 146.3100,84.6912 146.3611,84.8282 146.3611,84.8282 146.4487,84.9453 146.4487,84.9453 146.4487,84.9453 146.5095,84.9907 146.5514,85.0467 146.5563,85.1164 146.5229,85.1777 146.5095,85.1893 146.4487,85.2347 146.3611,85.3518 146.3100,85.4888 146.3100,85.4888 146.3035,85.5493 146.3035,87.1707 146.3100,87.2312 146.3100,87.2312 146.3593,87.3635 146.3611,87.3682 146.4487,87.4853 146.4487,87.4853 146.4487,87.4853 146.5095,87.5307 146.5514,87.5867 146.5563,87.6564 146.5229,87.7177 146.5095,87.7293 146.4487,87.7747 146.3611,87.8918 146.3100,88.0288 146.3100,88.0288 146.3035,88.0893 146.3035,89.7107 146.3100,89.7712 146.3100,89.7712 146.3611,89.9082 146.3611,89.9082 146.4487,90.0253 146.4487,90.0253 146.4487,90.0253 146.5095,90.0707 146.5514,90.1267 146.5563,90.1964 146.5229,90.2577 146.5095,90.2693 146.4487,90.3147 146.3611,90.4318 146.3100,90.5688 146.3100,90.5688 146.3035,90.6293 146.3035,92.2507 138.1679,92.2507 138.1680,92.2498 138.1680,92.2498 138.1680,91.6900 137.4604,91.6900 137.3933,91.6703 137.3476,91.6175 137.3376,91.5484 137.3395,91.5384 137.3543,91.4736 137.3543,91.4736 137.3436,91.3307 137.3453,91.3306 137.3489,91.2719 137.3902,91.2155 137.4554,91.1904 137.4655,91.1900 138.1680,91.1900 138.1680,90.6302 138.1680,90.6302 138.1616,90.5706 138.1616,90.5706 138.1114,90.4359 138.1113,90.4359 138.0252,90.3208 137.9634,90.2746 137.9216,90.2186 137.9166,90.1489 137.9501,90.0876 137.9634,90.0761 138.0313,90.0253 138.1189,89.9082 138.1700,89.7712 138.1736,89.7377 138.1765,89.7107 138.1765,89.7106 138.1765,88.0894 138.1765,88.0893 138.1732,88.0583 138.1700,88.0288 138.1189,87.8918 138.0313,87.7747 137.9634,87.7240 137.9216,87.6680 137.9166,87.5983 137.9501,87.5370 137.9634,87.5254 138.0252,87.4792 138.0252,87.4792 138.1113,87.3641 138.1114,87.3641 138.1616,87.2294 138.1616,87.2294 138.1680,87.1698 138.1680,87.1698 138.1680,86.6100 137.4604,86.6100 137.3933,86.5903 137.3476,86.5375 137.3376,86.4684 137.3395,86.4584 137.3543,86.3936 137.3543,86.3936 137.3436,86.2507 137.3453,86.2506 137.3489,86.1919 137.3902,86.1355 137.4554,86.1104 137.4655,86.1100 138.1680,86.1100 138.1680,85.5502 138.1680,85.5502 138.1616,85.4906 138.1616,85.4906 138.1114,85.3559 138.1113,85.3559 138.0252,85.2408 138.0252,85.2408 137.9101,85.1546 137.9101,85.1546 137.7754,85.1044 137.7754,85.1044 137.7158,85.0980 137.1560,85.0980 137.1560,85.8039 137.1363,85.8710 137.0835,85.9167 137.0144,85.9267 136.9955,85.9224 136.9730,85.9155 136.8727,85.9155 136.8727,85.9155 136.7985,85.9267 136.7293,85.9172 136.6761,85.8718 136.6560,85.8049 136.6560,85.8041 136.6560,85.0980 136.0962,85.0980 136.0366,85.1044 136.0366,85.1044 135.9019,85.1546 135.9019,85.1546 135.7868,85.2408 135.7353,85.3097 135.6793,85.3515 135.6096,85.3565 135.5483,85.3230 135.5367,85.3097 135.4852,85.2408 135.3701,85.1546 135.3701,85.1546 135.2354,85.1044 135.2354,85.1044 135.1758,85.0980 134.6160,85.0980 134.6160,85.8039 134.5963,85.8710 134.5435,85.9167 134.4744,85.9267 134.4555,85.9224 134.4330,85.9155 134.3327,85.9155 134.3327,85.9155 134.2585,85.9267 134.1893,85.9172 134.1361,85.8718 134.1160,85.8049 134.1160,85.8041 134.1160,85.0980 133.5562,85.0980 133.4966,85.1044 133.4966,85.1044 133.3619,85.1546 133.3619,85.1546 133.2468,85.2408 133.2468,85.2408 133.1606,85.3559 133.1606,85.3559 133.1104,85.4906 133.1104,85.4906 133.1040,85.5502 133.1040,86.1100 133.8116,86.1100 133.8787,86.1297 133.9244,86.1825 133.9344,86.2516 133.9325,86.2616 133.9177,86.3264 133.9177,86.3264 133.9284,86.4693 133.9267,86.4694 133.9231,86.5281 133.8818,86.5845 133.8166,86.6096 133.8065,86.6100 133.1040,86.6100 133.1040,87.1698 133.1104,87.2294 133.1104,87.2294 133.1606,87.3641 133.1606,87.3641 133.2468,87.4792 133.3086,87.5254 133.3504,87.5814 133.3554,87.6510 133.3219,87.7124 133.3086,87.7240 133.2407,87.7747 133.2407,87.7747 133.2407,87.7747 133.2407,87.7747 133.1531,87.8918 133.1020,88.0288 133.1020,88.0288 133.0955,88.0893 133.0955,89.7107 132.8420,89.7107 132.8420,72.0060 132.8617,71.9390 132.9145,71.8932 132.9660,71.8820 151.5140,71.8820 Z"/> 
</g>
</g>
</g> 
</g><g id="substrate-pads" style="fill:#c4c1ba; stroke:#c4c1ba;" mask="url(#pads-mask)"><g style="fill-opacity: 0.0;stroke-width: 0.0000;stroke-opacity: 1;stroke-linecap: round;stroke-linejoin: round">
<g style="fill-opacity: 1.0000;stroke-width: 0.0000;stroke-opacity: 1;stroke-linecap: round;stroke-linejoin: round">
<circle cx="137.1600" cy="96.5200" r="3.0000"/> 
</g>
<g style="fill-opacity: 1.0000;stroke-width: 0.0000;stroke-opacity: 1;stroke-linecap: round;stroke-linejoin: round">
<path style="fill-opacity: 1.0000;stroke-width: 0.0000;stroke-opacity: 1;stroke-linecap: round;stroke-linejoin: round;fill-rule: evenodd" d="M 146.8120,82.0420 146.8120,80.5180 148.3360,80.5180 148.3360,82.0420 Z"/> 
<path style="fill-opacity: 1.0000;stroke-width: 0.0000;stroke-opacity: 1;stroke-linecap: round;stroke-linejoin: round;fill-rule: evenodd" d="M 149.3520,82.0420 149.3520,80.5180 150.8760,80.5180 150.8760,82.0420 Z"/> 
<path style="fill-opacity: 1.0000;stroke-width: 0.0000;stroke-opacity: 1;stroke-linecap: round;stroke-linejoin: round;fill-rule: evenodd" d="M 146.8120,84.5820 146.8120,83.0580 148.3360,83.0580 148.3360,84.5820 Z"/> 
<path style="fill-opacity: 1.0000;stroke-width: 0.0000;stroke-opacity: 1;stroke-linecap: round;stroke-linejoin: round;fill-rule: evenodd" d="M 149.3520,84.5820 149.3520,83.0580 150.8760,83.0580 150.8760,84.5820 Z"/> 
<path style="fill-opacity: 1.0000;stroke-width: 0.0000;stroke-opacity: 1;stroke-linecap: round;stroke-linejoin: round;fill-rule: evenodd" d="M 146.8120,87.1220 146.8120,85.5980 148.3360,85.5980 148.3360,87.1220 Z"/> 
<path style="fill-opacity: 1.0000;stroke-width: 0.0000;stroke-opacity: 1;stroke-linecap: round;stroke-linejoin: round;fill-rule: evenodd" d="M 149.3520,87.1220 149.3520,85.5980 150.8760,85.5980 150.8760,87.1220 Z"/> 
<path style="fill-opacity: 1.0000;stroke-width: 0.0000;stroke-opacity: 1;stroke-linecap: round;stroke-linejoin: round;fill-rule: evenodd" d="M 146.8120,89.6620 146.8120,88.1380 148.3360,88.1380 148.3360,89.6620 Z"/> 
<path style="fill-opacity: 1.0000;stroke-width: 0.0000;stroke-opacity: 1;stroke-linecap: round;stroke-linejoin: round;fill-rule: evenodd" d="M 149.3520,89.6620 149.3520,88.1380 150.8760,88.1380 150.8760,89.6620 Z"/> 
<path style="fill-opacity: 1.0000;stroke-width: 0.0000;stroke-opacity: 1;stroke-linecap: round;stroke-linejoin: round;fill-rule: evenodd" d="M 146.8120,92.2020 146.8120,90.6780 148.3360,90.6780 148.3360,92.2020 Z"/> 
<path style="fill-opacity: 1.0000;stroke-width: 0.0000;stroke-opacity: 1;stroke-linecap: round;stroke-linejoin: round;fill-rule: evenodd" d="M 149.3520,92.2020 149.3520,90.6780 150.8760,90.6780 150.8760,92.2020 Z"/> 
</g>
<g style="fill-opacity: 1.0000;stroke-width: 0.0000;stroke-opacity: 1;stroke-linecap: round;stroke-linejoin: round">
<circle cx="147.3200" cy="76.2000" r="3.0000"/> 
</g>
<g style="fill-opacity: 1.0000;stroke-width: 0.0000;stroke-opacity: 1;stroke-linecap: round;stroke-linejoin: round">
<circle cx="137.1600" cy="76.2000" r="3.0000"/> 
</g>
<g style="fill-opacity: 1.0000;stroke-width: 0.0000;stroke-opacity: 1;stroke-linecap: round;stroke-linejoin: round">
<circle cx="147.3200" cy="96.5200" r="3.0000"/> 
</g>
<g style="fill-opacity: 1.0000;stroke-width: 0.0000;stroke-opacity: 1;stroke-linecap: round;stroke-linejoin: round">
<path style="fill-opacity: 1.0000;stroke-width: 0.0000;stroke-opacity: 1;stroke-linecap: round;stroke-linejoin: round;fill-rule: evenodd" d="M 133.6040,87.1220 133.6040,85.5980 135.1280,85.5980 135.1280,87.1220 Z"/> 
<path style="fill-opacity: 1.0000;stroke-width: 0.0000;stroke-opacity: 1;stroke-linecap: round;stroke-linejoin: round;fill-rule: evenodd" d="M 136.1440,87.1220 136.1440,85.5980 137.6680,85.5980 137.6680,87.1220 Z"/> 
<path style="fill-opacity: 1.0000;stroke-width: 0.0000;stroke-opacity: 1;stroke-linecap: round;stroke-linejoin: round;fill-rule: evenodd" d="M 133.6040,89.6620 133.6040,88.1380 135.1280,88.1380 135.1280,89.6620 Z"/> 
<path style="fill-opacity: 1.0000;stroke-width: 0.0000;stroke-opacity: 1;stroke-linecap: round;stroke-linejoin: round;fill-rule: evenodd" d="M 136.1440,89.6620 136.1440,88.1380 137.6680,88.1380 137.6680,89.6620 Z"/> 
<path style="fill-opacity: 1.0000;stroke-width: 0.0000;stroke-opacity: 1;stroke-linecap: round;stroke-linejoin: round;fill-rule: evenodd" d="M 133.6040,92.2020 133.6040,90.6780 135.1280,90.6780 135.1280,92.2020 Z"/> 
<path style="fill-opacity: 1.0000;stroke-width: 0.0000;stroke-opacity: 1;stroke-linecap: round;stroke-linejoin: round;fill-rule: evenodd" d="M 136.1440,92.2020 136.1440,90.6780 137.6680,90.6780 137.6680,92.2020 Z"/> 
</g>
<g style="fill-opacity: 1.0000;stroke-width: 0.0000;stroke-opacity: 1;stroke-linecap: round;stroke-linejoin: round">
<circle cx="140.4620" cy="90.1700" r="0.4000"/> 
</g>
<g style="fill-opacity: 1.0000;stroke-width: 0.0000;stroke-opacity: 1;stroke-linecap: round;stroke-linejoin: round">
<circle cx="140.7160" cy="82.5500" r="0.4000"/> 
</g>
<g style="fill-opacity: 1.0000;stroke-width: 0.0000;stroke-opacity: 1;stroke-linecap: round;stroke-linejoin: round">
<circle cx="134.6200" cy="84.0740" r="0.4000"/> 
</g>
<g style="fill-opacity: 1.0000;stroke-width: 0.0000;stroke-opacity: 1;stroke-linecap: round;stroke-linejoin: round">
<circle cx="140.9700" cy="93.9800" r="0.4000"/> 
</g>
<g style="fill-opacity: 1.0000;stroke-width: 0.0000;stroke-opacity: 1;stroke-linecap: round;stroke-linejoin: round">
<circle cx="135.6360" cy="84.0740" r="0.4000"/> 
</g>
<g style="fill-opacity: 1.0000;stroke-width: 0.0000;stroke-opacity: 1;stroke-linecap: round;stroke-linejoin: round">
<circle cx="133.6040" cy="79.5020" r="0.4000"/> 
</g>
<g style="fill-opacity: 1.0000;stroke-width: 0.0000;stroke-opacity: 1;stroke-linecap: round;stroke-linejoin: round">
<circle cx="140.7160" cy="80.5180" r="0.4000"/> 
</g>
<g style="fill-opacity: 1.0000;stroke-width: 0.0000;stroke-opacity: 1;stroke-linecap: round;stroke-linejoin: round">
<circle cx="133.6040" cy="84.0740" r="0.4000"/> 
</g>
<g style="fill-opacity: 1.0000;stroke-width: 0.0000;stroke-opacity: 1;stroke-linecap: round;stroke-linejoin: round">
<circle cx="140.7160" cy="81.5340" r="0.4000"/> 
</g>
<g style="fill-opacity: 1.0000;stroke-width: 0.0000;stroke-opacity: 1;stroke-linecap: round;stroke-linejoin: round">
<circle cx="138.6840" cy="91.9480" r="0.4000"/> 
</g>
<g style="fill-opacity: 1.0000;stroke-width: 0.0212;stroke-opacity: 1;stroke-linecap: round;stroke-linejoin: round">
<g style="fill-opacity: 1.0000;stroke-width: 0.0000;stroke-opacity: 1;stroke-linecap: round;stroke-linejoin: round">
<path style="fill-opacity: 1.0000;stroke-width: 0.0000;stroke-opacity: 1;stroke-linecap: round;stroke-linejoin: round;fill-rule: evenodd" d="M 136.4187,91.2097 136.4644,91.2625 136.4744,91.3316 136.4725,91.3416 136.4577,91.4064 136.4577,91.4064 136.4577,91.4064 136.4684,91.5493 136.4667,91.5494 136.4631,91.6081 136.4218,91.6645 136.3566,91.6896 136.3465,91.6900 134.9204,91.6900 134.8533,91.6703 134.8076,91.6175 134.7976,91.5484 134.7995,91.5384 134.8143,91.4736 134.8143,91.4736 134.8036,91.3307 134.8053,91.3306 134.8089,91.2719 134.8502,91.2155 134.9154,91.1904 134.9255,91.1900 136.3516,91.1900 Z"/> 
<path style="fill-opacity: 1.0000;stroke-width: 0.0000;stroke-opacity: 1;stroke-linecap: round;stroke-linejoin: round;fill-rule: evenodd" d="M 136.4187,86.1297 136.4644,86.1825 136.4744,86.2516 136.4725,86.2616 136.4577,86.3264 136.4577,86.3264 136.4577,86.3264 136.4684,86.4693 136.4667,86.4694 136.4631,86.5281 136.4218,86.5845 136.3566,86.6096 136.3465,86.6100 134.9204,86.6100 134.8533,86.5903 134.8076,86.5375 134.7976,86.4684 134.7995,86.4584 134.8143,86.3936 134.8143,86.3936 134.8036,86.2507 134.8053,86.2506 134.8089,86.1919 134.8502,86.1355 134.9154,86.1104 134.9255,86.1100 136.3516,86.1100 Z"/> 
<path style="fill-opacity: 1.0000;stroke-width: 0.0000;stroke-opacity: 1;stroke-linecap: round;stroke-linejoin: round;fill-rule: evenodd" d="M 151.5810,71.9017 151.6268,71.9545 151.6380,72.0060 151.6380,100.7140 151.6183,100.7810 151.5655,100.8268 151.5140,100.8380 132.9660,100.8380 132.8990,100.8183 132.8532,100.7655 132.8420,100.7140 132.8420,89.7107 133.0955,89.7107 133.1020,89.7712 133.1020,89.7712 133.1531,89.9082 133.1531,89.9082 133.2407,90.0253 133.3086,90.0760 133.3504,90.1320 133.3554,90.2017 133.3219,90.2630 133.3086,90.2746 133.2468,90.3208 133.1606,90.4359 133.1606,90.4359 133.1104,90.5706 133.1104,90.5706 133.1040,90.6302 133.1040,91.1900 133.8116,91.1900 133.8787,91.2097 133.9244,91.2625 133.9344,91.3316 133.9325,91.3416 133.9177,91.4064 133.9177,91.4064 133.9284,91.5493 133.9267,91.5494 133.9231,91.6081 133.8818,91.6645 133.8166,91.6896 133.8065,91.6900 133.1040,91.6900 133.1040,92.2498 133.1104,92.3094 133.1104,92.3094 133.1606,92.4441 133.1606,92.4441 133.2468,92.5592 133.2468,92.5592 133.3619,92.6453 133.3619,92.6454 133.4966,92.6956 133.4966,92.6956 133.5562,92.7020 133.5562,92.7020 134.1160,92.7020 134.1160,91.9961 134.1357,91.9290 134.1885,91.8833 134.2576,91.8733 134.2765,91.8776 134.2990,91.8845 134.2990,91.8845 134.3993,91.8845 134.3993,91.8845 134.4735,91.8733 134.5427,91.8828 134.5959,91.9282 134.6160,91.9951 134.6160,91.9959 134.6160,92.7020 135.1758,92.7020 135.1758,92.7020 135.2354,92.6956 135.2354,92.6956 135.3701,92.6454 135.3701,92.6453 135.4852,92.5592 135.5367,92.4903 135.5927,92.4485 135.6624,92.4435 135.7237,92.4770 135.7353,92.4903 135.7868,92.5592 135.9019,92.6453 135.9019,92.6454 136.0366,92.6956 136.0366,92.6956 136.0962,92.7020 136.0962,92.7020 136.6560,92.7020 136.6560,91.9961 136.6757,91.9290 136.7285,91.8833 136.7976,91.8733 136.8165,91.8776 136.8390,91.8845 136.8390,91.8845 136.9393,91.8845 136.9393,91.8845 137.0135,91.8733 137.0827,91.8828 137.1359,91.9282 137.1560,91.9951 137.1560,91.9959 137.1560,92.7020 137.7158,92.7020 137.7158,92.7020 137.7754,92.6956 137.7754,92.6956 137.9101,92.6454 137.9101,92.6453 138.0252,92.5592 138.0252,92.5592 138.1113,92.4441 138.1114,92.4441 138.1616,92.3094 138.1616,92.3094 138.1679,92.2507 146.3035,92.2507 146.3100,92.3112 146.3100,92.3112 146.3593,92.4435 146.3611,92.4482 146.4487,92.5653 146.5658,92.6529 146.6803,92.6956 146.6975,92.7020 146.7028,92.7040 146.7301,92.7069 146.7633,92.7105 146.7634,92.7105 148.3846,92.7105 148.3847,92.7105 148.4117,92.7076 148.4452,92.7040 148.4505,92.7020 148.4677,92.6956 148.5822,92.6529 148.6993,92.5653 148.7447,92.5045 148.8007,92.4626 148.8704,92.4577 148.9317,92.4911 148.9433,92.5045 148.9887,92.5653 149.1058,92.6529 149.2203,92.6956 149.2375,92.7020 149.2428,92.7040 149.2700,92.7069 149.3033,92.7105 149.3034,92.7105 150.9246,92.7105 150.9247,92.7105 150.9517,92.7076 150.9852,92.7040 150.9905,92.7020 151.0077,92.6956 151.1222,92.6529 151.2393,92.5653 151.3269,92.4482 151.3780,92.3112 151.3816,92.2777 151.3845,92.2507 151.3845,92.2506 151.3845,90.6294 151.3845,90.6293 151.3812,90.5983 151.3780,90.5688 151.3269,90.4318 151.2393,90.3147 151.1785,90.2693 151.1366,90.2133 151.1317,90.1436 151.1651,90.0823 151.1785,90.0707 151.2393,90.0253 151.3269,89.9082 151.3780,89.7712 151.3816,89.7377 151.3845,89.7107 151.3845,89.7106 151.3845,88.0894 151.3845,88.0893 151.3812,88.0583 151.3780,88.0288 151.3269,87.8918 151.2393,87.7747 151.1785,87.7293 151.1366,87.6733 151.1317,87.6036 151.1651,87.5423 151.1785,87.5307 151.2393,87.4853 151.3269,87.3682 151.3780,87.2312 151.3816,87.1977 151.3845,87.1707 151.3845,87.1706 151.3845,85.5494 151.3845,85.5493 151.3812,85.5183 151.3780,85.4888 151.3269,85.3518 151.2393,85.2347 151.1785,85.1893 151.1366,85.1333 151.1317,85.0636 151.1651,85.0023 151.1785,84.9907 151.2393,84.9453 151.3269,84.8282 151.3780,84.6912 151.3816,84.6577 151.3845,84.6307 151.3845,84.6306 151.3845,83.0094 151.3845,83.0093 151.3812,82.9783 151.3780,82.9488 151.3269,82.8118 151.2393,82.6947 151.1785,82.6493 151.1366,82.5933 151.1317,82.5236 151.1651,82.4623 151.1785,82.4507 151.2393,82.4053 151.3269,82.2882 151.3780,82.1512 151.3816,82.1177 151.3845,82.0907 151.3845,82.0906 151.3845,80.4694 151.3845,80.4693 151.3812,80.4383 151.3780,80.4088 151.3269,80.2718 151.2393,80.1547 151.1222,80.0671 151.1222,80.0671 150.9852,80.0160 150.9247,80.0095 150.9246,80.0095 149.3034,80.0095 149.3033,80.0095 149.2428,80.0160 149.2428,80.0160 149.1058,80.0671 148.9887,80.1547 148.9433,80.2155 148.8873,80.2574 148.8176,80.2623 148.7563,80.2289 148.7447,80.2155 148.6993,80.1547 148.6993,80.1547 148.6993,80.1547 148.5822,80.0671 148.5822,80.0671 148.4452,80.0160 148.3847,80.0095 148.3846,80.0095 146.7634,80.0095 146.7633,80.0095 146.7028,80.0160 146.7028,80.0160 146.5658,80.0671 146.4487,80.1547 146.3611,80.2718 146.3100,80.4088 146.3100,80.4088 146.3035,80.4693 146.3035,82.0907 146.3100,82.1512 146.3100,82.1512 146.3611,82.2882 146.3611,82.2882 146.4487,82.4053 146.4487,82.4053 146.4487,82.4053 146.5095,82.4507 146.5514,82.5067 146.5563,82.5764 146.5229,82.6377 146.5095,82.6493 146.4487,82.6947 146.3611,82.8118 146.3100,82.9488 146.3100,82.9488 146.3035,83.0093 146.3035,84.6307 146.3100,84.6912 146.3100,84.6912 146.3611,84.8282 146.3611,84.8282 146.4487,84.9453 146.4487,84.9453 146.4487,84.9453 146.5095,84.9907 146.5514,85.0467 146.5563,85.1164 146.5229,85.1777 146.5095,85.1893 146.4487,85.2347 146.3611,85.3518 146.3100,85.4888 146.3100,85.4888 146.3035,85.5493 146.3035,87.1707 146.3100,87.2312 146.3100,87.2312 146.3593,87.3635 146.3611,87.3682 146.4487,87.4853 146.4487,87.4853 146.4487,87.4853 146.5095,87.5307 146.5514,87.5867 146.5563,87.6564 146.5229,87.7177 146.5095,87.7293 146.4487,87.7747 146.3611,87.8918 146.3100,88.0288 146.3100,88.0288 146.3035,88.0893 146.3035,89.7107 146.3100,89.7712 146.3100,89.7712 146.3611,89.9082 146.3611,89.9082 146.4487,90.0253 146.4487,90.0253 146.4487,90.0253 146.5095,90.0707 146.5514,90.1267 146.5563,90.1964 146.5229,90.2577 146.5095,90.2693 146.4487,90.3147 146.3611,90.4318 146.3100,90.5688 146.3100,90.5688 146.3035,90.6293 146.3035,92.2507 138.1679,92.2507 138.1680,92.2498 138.1680,92.2498 138.1680,91.6900 137.4604,91.6900 137.3933,91.6703 137.3476,91.6175 137.3376,91.5484 137.3395,91.5384 137.3543,91.4736 137.3543,91.4736 137.3436,91.3307 137.3453,91.3306 137.3489,91.2719 137.3902,91.2155 137.4554,91.1904 137.4655,91.1900 138.1680,91.1900 138.1680,90.6302 138.1680,90.6302 138.1616,90.5706 138.1616,90.5706 138.1114,90.4359 138.1113,90.4359 138.0252,90.3208 137.9634,90.2746 137.9216,90.2186 137.9166,90.1489 137.9501,90.0876 137.9634,90.0761 138.0313,90.0253 138.1189,89.9082 138.1700,89.7712 138.1736,89.7377 138.1765,89.7107 138.1765,89.7106 138.1765,88.0894 138.1765,88.0893 138.1732,88.0583 138.1700,88.0288 138.1189,87.8918 138.0313,87.7747 137.9634,87.7240 137.9216,87.6680 137.9166,87.5983 137.9501,87.5370 137.9634,87.5254 138.0252,87.4792 138.0252,87.4792 138.1113,87.3641 138.1114,87.3641 138.1616,87.2294 138.1616,87.2294 138.1680,87.1698 138.1680,87.1698 138.1680,86.6100 137.4604,86.6100 137.3933,86.5903 137.3476,86.5375 137.3376,86.4684 137.3395,86.4584 137.3543,86.3936 137.3543,86.3936 137.3436,86.2507 137.3453,86.2506 137.3489,86.1919 137.3902,86.1355 137.4554,86.1104 137.4655,86.1100 138.1680,86.1100 138.1680,85.5502 138.1680,85.5502 138.1616,85.4906 138.1616,85.4906 138.1114,85.3559 138.1113,85.3559 138.0252,85.2408 138.0252,85.2408 137.9101,85.1546 137.9101,85.1546 137.7754,85.1044 137.7754,85.1044 137.7158,85.0980 137.1560,85.0980 137.1560,85.8039 137.1363,85.8710 137.0835,85.9167 137.0144,85.9267 136.9955,85.9224 136.9730,85.9155 136.8727,85.9155 136.8727,85.9155 136.7985,85.9267 136.7293,85.9172 136.6761,85.8718 136.6560,85.8049 136.6560,85.8041 136.6560,85.0980 136.0962,85.0980 136.0366,85.1044 136.0366,85.1044 135.9019,85.1546 135.9019,85.1546 135.7868,85.2408 135.7353,85.3097 135.6793,85.3515 135.6096,85.3565 135.5483,85.3230 135.5367,85.3097 135.4852,85.2408 135.3701,85.1546 135.3701,85.1546 135.2354,85.1044 135.2354,85.1044 135.1758,85.0980 134.6160,85.0980 134.6160,85.8039 134.5963,85.8710 134.5435,85.9167 134.4744,85.9267 134.4555,85.9224 134.4330,85.9155 134.3327,85.9155 134.3327,85.9155 134.2585,85.9267 134.1893,85.9172 134.1361,85.8718 134.1160,85.8049 134.1160,85.8041 134.1160,85.0980 133.5562,85.0980 133.4966,85.1044 133.4966,85.1044 133.3619,85.1546 133.3619,85.1546 133.2468,85.2408 133.2468,85.2408 133.1606,85.3559 133.1606,85.3559 133.1104,85.4906 133.1104,85.4906 133.1040,85.5502 133.1040,86.1100 133.8116,86.1100 133.8787,86.1297 133.9244,86.1825 133.9344,86.2516 133.9325,86.2616 133.9177,86.3264 133.9177,86.3264 133.9284,86.4693 133.9267,86.4694 133.9231,86.5281 133.8818,86.5845 133.8166,86.6096 133.8065,86.6100 133.1040,86.6100 133.1040,87.1698 133.1104,87.2294 133.1104,87.2294 133.1606,87.3641 133.1606,87.3641 133.2468,87.4792 133.3086,87.5254 133.3504,87.5814 133.3554,87.6510 133.3219,87.7124 133.3086,87.7240 133.2407,87.7747 133.2407,87.7747 133.2407,87.7747 133.2407,87.7747 133.1531,87.8918 133.1020,88.0288 133.1020,88.0288 133.0955,88.0893 133.0955,89.7107 132.8420,89.7107 132.8420,72.0060 132.8617,71.9390 132.9145,71.8932 132.9660,71.8820 151.5140,71.8820 Z"/> 
</g>
</g>
</g> 
</g><g id="substrate-silk" style="fill:#0b1013; stroke:#0b1013;" mask="url(#pads-mask-silkscreen)"><g style="fill-opacity: 0.0;stroke-width: 0.1500;stroke-opacity: 1;stroke-linecap: round;stroke-linejoin: round">
<g transform="rotate(-270.000000 139.1920 88.9000)">
<text x="139.1920" y="89.4000" textLength="7.1071" font-size="1.3333" lengthAdjust="spacingAndGlyphs" text-anchor="middle" opacity="0">1.8-3.6V</text>
</g>
<g class="stroked-text"><desc>1.8-3.6V</desc>
<path d="M138.7372 86.2333 L138.7372 85.6619 "/>
<path d="M138.7372 85.9476 L139.7372 85.9476 "/>
<path d="M139.7372 85.9476 L139.5943 85.8524 "/>
<path d="M139.5943 85.8524 L139.4991 85.7571 "/>
<path d="M139.4991 85.7571 L139.4515 85.6619 "/>
<path d="M138.8324 86.6619 L138.7848 86.7095 "/>
<path d="M138.7848 86.7095 L138.7372 86.6619 "/>
<path d="M138.7372 86.6619 L138.7848 86.6143 "/>
<path d="M138.7848 86.6143 L138.8324 86.6619 "/>
<path d="M138.8324 86.6619 L138.7372 86.6619 "/>
<path d="M139.3086 87.2810 L139.3562 87.1857 "/>
<path d="M139.3562 87.1857 L139.4038 87.1381 "/>
<path d="M139.4038 87.1381 L139.4991 87.0905 "/>
<path d="M139.4991 87.0905 L139.5467 87.0905 "/>
<path d="M139.5467 87.0905 L139.6419 87.1381 "/>
<path d="M139.6419 87.1381 L139.6896 87.1857 "/>
<path d="M139.6896 87.1857 L139.7372 87.2810 "/>
<path d="M139.7372 87.2810 L139.7372 87.4714 "/>
<path d="M139.7372 87.4714 L139.6896 87.5667 "/>
<path d="M139.6896 87.5667 L139.6419 87.6143 "/>
<path d="M139.6419 87.6143 L139.5467 87.6619 "/>
<path d="M139.5467 87.6619 L139.4991 87.6619 "/>
<path d="M139.4991 87.6619 L139.4038 87.6143 "/>
<path d="M139.4038 87.6143 L139.3562 87.5667 "/>
<path d="M139.3562 87.5667 L139.3086 87.4714 "/>
<path d="M139.3086 87.4714 L139.3086 87.2810 "/>
<path d="M139.3086 87.2810 L139.2610 87.1857 "/>
<path d="M139.2610 87.1857 L139.2134 87.1381 "/>
<path d="M139.2134 87.1381 L139.1181 87.0905 "/>
<path d="M139.1181 87.0905 L138.9277 87.0905 "/>
<path d="M138.9277 87.0905 L138.8324 87.1381 "/>
<path d="M138.8324 87.1381 L138.7848 87.1857 "/>
<path d="M138.7848 87.1857 L138.7372 87.2810 "/>
<path d="M138.7372 87.2810 L138.7372 87.4714 "/>
<path d="M138.7372 87.4714 L138.7848 87.5667 "/>
<path d="M138.7848 87.5667 L138.8324 87.6143 "/>
<path d="M138.8324 87.6143 L138.9277 87.6619 "/>
<path d="M138.9277 87.6619 L139.1181 87.6619 "/>
<path d="M139.1181 87.6619 L139.2134 87.6143 "/>
<path d="M139.2134 87.6143 L139.2610 87.5667 "/>
<path d="M139.2610 87.5667 L139.3086 87.4714 "/>
<path d="M139.1181 88.0905 L139.1181 88.8524 "/>
<path d="M139.7372 89.2333 L139.7372 89.8524 "/>
<path d="M139.7372 89.8524 L139.3562 89.5190 "/>
<path d="M139.3562 89.5190 L139.3562 89.6619 "/>
<path d="M139.3562 89.6619 L139.3086 89.7571 "/>
<path d="M139.3086 89.7571 L139.2610 89.8048 "/>
<path d="M139.2610 89.8048 L139.1658 89.8524 "/>
<path d="M139.1658 89.8524 L138.9277 89.8524 "/>
<path d="M138.9277 89.8524 L138.8324 89.8048 "/>
<path d="M138.8324 89.8048 L138.7848 89.7571 "/>
<path d="M138.7848 89.7571 L138.7372 89.6619 "/>
<path d="M138.7372 89.6619 L138.7372 89.3762 "/>
<path d="M138.7372 89.3762 L138.7848 89.2810 "/>
<path d="M138.7848 89.2810 L138.8324 89.2333 "/>
<path d="M138.8324 90.2810 L138.7848 90.3286 "/>
<path d="M138.7848 90.3286 L138.7372 90.2810 "/>
<path d="M138.7372 90.2810 L138.7848 90.2333 "/>
<path d="M138.7848 90.2333 L138.8324 90.2810 "/>
<path d="M138.8324 90.2810 L138.7372 90.2810 "/>
<path d="M139.7372 91.1857 L139.7372 90.9952 "/>
<path d="M139.7372 90.9952 L139.6896 90.9000 "/>
<path d="M139.6896 90.9000 L139.6419 90.8524 "/>
<path d="M139.6419 90.8524 L139.4991 90.7571 "/>
<path d="M139.4991 90.7571 L139.3086 90.7095 "/>
<path d="M139.3086 90.7095 L138.9277 90.7095 "/>
<path d="M138.9277 90.7095 L138.8324 90.7571 "/>
<path d="M138.8324 90.7571 L138.7848 90.8048 "/>
<path d="M138.7848 90.8048 L138.7372 90.9000 "/>
<path d="M138.7372 90.9000 L138.7372 91.0905 "/>
<path d="M138.7372 91.0905 L138.7848 91.1857 "/>
<path d="M138.7848 91.1857 L138.8324 91.2333 "/>
<path d="M138.8324 91.2333 L138.9277 91.2810 "/>
<path d="M138.9277 91.2810 L139.1658 91.2810 "/>
<path d="M139.1658 91.2810 L139.2610 91.2333 "/>
<path d="M139.2610 91.2333 L139.3086 91.1857 "/>
<path d="M139.3086 91.1857 L139.3562 91.0905 "/>
<path d="M139.3562 91.0905 L139.3562 90.9000 "/>
<path d="M139.3562 90.9000 L139.3086 90.8048 "/>
<path d="M139.3086 90.8048 L139.2610 90.7571 "/>
<path d="M139.2610 90.7571 L139.1658 90.7095 "/>
<path d="M139.7372 91.5667 L138.7372 91.9000 "/>
<path d="M138.7372 91.9000 L139.7372 92.2333 "/>
</g><text x="144.2720" y="89.4000" textLength="3.8690" font-size="1.3333" lengthAdjust="spacingAndGlyphs" text-anchor="middle" opacity="0">MISO</text>
<g class="stroked-text"><desc>MISO</desc>
<path d="M142.7006 89.3548 L142.7006 88.3548 "/>
<path d="M142.7006 88.3548 L143.0339 89.0691 "/>
<path d="M143.0339 89.0691 L143.3672 88.3548 "/>
<path d="M143.3672 88.3548 L143.3672 89.3548 "/>
<path d="M143.8434 89.3548 L143.8434 88.3548 "/>
<path d="M144.2720 89.3072 L144.4149 89.3548 "/>
<path d="M144.4149 89.3548 L144.6530 89.3548 "/>
<path d="M144.6530 89.3548 L144.7482 89.3072 "/>
<path d="M144.7482 89.3072 L144.7958 89.2596 "/>
<path d="M144.7958 89.2596 L144.8434 89.1643 "/>
<path d="M144.8434 89.1643 L144.8434 89.0691 "/>
<path d="M144.8434 89.0691 L144.7958 88.9739 "/>
<path d="M144.7958 88.9739 L144.7482 88.9262 "/>
<path d="M144.7482 88.9262 L144.6530 88.8786 "/>
<path d="M144.6530 88.8786 L144.4625 88.8310 "/>
<path d="M144.4625 88.8310 L144.3672 88.7834 "/>
<path d="M144.3672 88.7834 L144.3196 88.7358 "/>
<path d="M144.3196 88.7358 L144.2720 88.6405 "/>
<path d="M144.2720 88.6405 L144.2720 88.5453 "/>
<path d="M144.2720 88.5453 L144.3196 88.4501 "/>
<path d="M144.3196 88.4501 L144.3672 88.4024 "/>
<path d="M144.3672 88.4024 L144.4625 88.3548 "/>
<path d="M144.4625 88.3548 L144.7006 88.3548 "/>
<path d="M144.7006 88.3548 L144.8434 88.4024 "/>
<path d="M145.4625 88.3548 L145.6530 88.3548 "/>
<path d="M145.6530 88.3548 L145.7482 88.4024 "/>
<path d="M145.7482 88.4024 L145.8434 88.4977 "/>
<path d="M145.8434 88.4977 L145.8910 88.6882 "/>
<path d="M145.8910 88.6882 L145.8910 89.0215 "/>
<path d="M145.8910 89.0215 L145.8434 89.2120 "/>
<path d="M145.8434 89.2120 L145.7482 89.3072 "/>
<path d="M145.7482 89.3072 L145.6530 89.3548 "/>
<path d="M145.6530 89.3548 L145.4625 89.3548 "/>
<path d="M145.4625 89.3548 L145.3672 89.3072 "/>
<path d="M145.3672 89.3072 L145.2720 89.2120 "/>
<path d="M145.2720 89.2120 L145.2244 89.0215 "/>
<path d="M145.2244 89.0215 L145.2244 88.6882 "/>
<path d="M145.2244 88.6882 L145.2720 88.4977 "/>
<path d="M145.2720 88.4977 L145.3672 88.4024 "/>
<path d="M145.3672 88.4024 L145.4625 88.3548 "/>
</g><text x="136.6520" y="81.7370" textLength="6.8690" font-size="1.3333" lengthAdjust="spacingAndGlyphs" text-anchor="middle" opacity="0">FRAM01A</text>
<g class="stroked-text"><desc>FRAM01A</desc>
<path d="M133.9139 81.1680 L133.5806 81.1680 "/>
<path d="M133.5806 81.6918 L133.5806 80.6918 "/>
<path d="M133.5806 80.6918 L134.0568 80.6918 "/>
<path d="M135.0091 81.6918 L134.6758 81.2156 "/>
<path d="M134.4377 81.6918 L134.4377 80.6918 "/>
<path d="M134.4377 80.6918 L134.8187 80.6918 "/>
<path d="M134.8187 80.6918 L134.9139 80.7394 "/>
<path d="M134.9139 80.7394 L134.9615 80.7871 "/>
<path d="M134.9615 80.7871 L135.0091 80.8823 "/>
<path d="M135.0091 80.8823 L135.0091 81.0252 "/>
<path d="M135.0091 81.0252 L134.9615 81.1204 "/>
<path d="M134.9615 81.1204 L134.9139 81.1680 "/>
<path d="M134.9139 81.1680 L134.8187 81.2156 "/>
<path d="M134.8187 81.2156 L134.4377 81.2156 "/>
<path d="M135.3901 81.4061 L135.8663 81.4061 "/>
<path d="M135.2949 81.6918 L135.6282 80.6918 "/>
<path d="M135.6282 80.6918 L135.9615 81.6918 "/>
<path d="M136.2949 81.6918 L136.2949 80.6918 "/>
<path d="M136.2949 80.6918 L136.6282 81.4061 "/>
<path d="M136.6282 81.4061 L136.9615 80.6918 "/>
<path d="M136.9615 80.6918 L136.9615 81.6918 "/>
<path d="M137.6282 80.6918 L137.7234 80.6918 "/>
<path d="M137.7234 80.6918 L137.8187 80.7394 "/>
<path d="M137.8187 80.7394 L137.8663 80.7871 "/>
<path d="M137.8663 80.7871 L137.9139 80.8823 "/>
<path d="M137.9139 80.8823 L137.9615 81.0728 "/>
<path d="M137.9615 81.0728 L137.9615 81.3109 "/>
<path d="M137.9615 81.3109 L137.9139 81.5013 "/>
<path d="M137.9139 81.5013 L137.8663 81.5966 "/>
<path d="M137.8663 81.5966 L137.8187 81.6442 "/>
<path d="M137.8187 81.6442 L137.7234 81.6918 "/>
<path d="M137.7234 81.6918 L137.6282 81.6918 "/>
<path d="M137.6282 81.6918 L137.5330 81.6442 "/>
<path d="M137.5330 81.6442 L137.4853 81.5966 "/>
<path d="M137.4853 81.5966 L137.4377 81.5013 "/>
<path d="M137.4377 81.5013 L137.3901 81.3109 "/>
<path d="M137.3901 81.3109 L137.3901 81.0728 "/>
<path d="M137.3901 81.0728 L137.4377 80.8823 "/>
<path d="M137.4377 80.8823 L137.4853 80.7871 "/>
<path d="M137.4853 80.7871 L137.5330 80.7394 "/>
<path d="M137.5330 80.7394 L137.6282 80.6918 "/>
<path d="M138.9139 81.6918 L138.3425 81.6918 "/>
<path d="M138.6282 81.6918 L138.6282 80.6918 "/>
<path d="M138.6282 80.6918 L138.5330 80.8347 "/>
<path d="M138.5330 80.8347 L138.4377 80.9299 "/>
<path d="M138.4377 80.9299 L138.3425 80.9775 "/>
<path d="M139.2949 81.4061 L139.7710 81.4061 "/>
<path d="M139.1996 81.6918 L139.5330 80.6918 "/>
<path d="M139.5330 80.6918 L139.8663 81.6918 "/>
</g><text x="136.6520" y="83.3470" textLength="6.2024" font-size="1.3333" lengthAdjust="spacingAndGlyphs" text-anchor="middle" opacity="0">MLAB.cz</text>
<g class="stroked-text"><desc>MLAB.cz</desc>
<path d="M133.9139 83.3018 L133.9139 82.3018 "/>
<path d="M133.9139 82.3018 L134.2472 83.0161 "/>
<path d="M134.2472 83.0161 L134.5806 82.3018 "/>
<path d="M134.5806 82.3018 L134.5806 83.3018 "/>
<path d="M135.5330 83.3018 L135.0568 83.3018 "/>
<path d="M135.0568 83.3018 L135.0568 82.3018 "/>
<path d="M135.8187 83.0161 L136.2949 83.0161 "/>
<path d="M135.7234 83.3018 L136.0568 82.3018 "/>
<path d="M136.0568 82.3018 L136.3901 83.3018 "/>
<path d="M137.0568 82.7780 L137.1996 82.8256 "/>
<path d="M137.1996 82.8256 L137.2472 82.8732 "/>
<path d="M137.2472 82.8732 L137.2949 82.9685 "/>
<path d="M137.2949 82.9685 L137.2949 83.1113 "/>
<path d="M137.2949 83.1113 L137.2472 83.2066 "/>
<path d="M137.2472 83.2066 L137.1996 83.2542 "/>
<path d="M137.1996 83.2542 L137.1044 83.3018 "/>
<path d="M137.1044 83.3018 L136.7234 83.3018 "/>
<path d="M136.7234 83.3018 L136.7234 82.3018 "/>
<path d="M136.7234 82.3018 L137.0568 82.3018 "/>
<path d="M137.0568 82.3018 L137.1520 82.3494 "/>
<path d="M137.1520 82.3494 L137.1996 82.3971 "/>
<path d="M137.1996 82.3971 L137.2472 82.4923 "/>
<path d="M137.2472 82.4923 L137.2472 82.5875 "/>
<path d="M137.2472 82.5875 L137.1996 82.6828 "/>
<path d="M137.1996 82.6828 L137.1520 82.7304 "/>
<path d="M137.1520 82.7304 L137.0568 82.7780 "/>
<path d="M137.0568 82.7780 L136.7234 82.7780 "/>
<path d="M137.7234 83.2066 L137.7710 83.2542 "/>
<path d="M137.7710 83.2542 L137.7234 83.3018 "/>
<path d="M137.7234 83.3018 L137.6758 83.2542 "/>
<path d="M137.6758 83.2542 L137.7234 83.2066 "/>
<path d="M137.7234 83.2066 L137.7234 83.3018 "/>
<path d="M138.6282 83.2542 L138.5330 83.3018 "/>
<path d="M138.5330 83.3018 L138.3425 83.3018 "/>
<path d="M138.3425 83.3018 L138.2472 83.2542 "/>
<path d="M138.2472 83.2542 L138.1996 83.2066 "/>
<path d="M138.1996 83.2066 L138.1520 83.1113 "/>
<path d="M138.1520 83.1113 L138.1520 82.8256 "/>
<path d="M138.1520 82.8256 L138.1996 82.7304 "/>
<path d="M138.1996 82.7304 L138.2472 82.6828 "/>
<path d="M138.2472 82.6828 L138.3425 82.6352 "/>
<path d="M138.3425 82.6352 L138.5330 82.6352 "/>
<path d="M138.5330 82.6352 L138.6282 82.6828 "/>
<path d="M138.9615 82.6352 L139.4853 82.6352 "/>
<path d="M139.4853 82.6352 L138.9615 83.3018 "/>
<path d="M138.9615 83.3018 L139.4853 83.3018 "/>
</g><text x="144.2720" y="84.3200" textLength="3.8690" font-size="1.3333" lengthAdjust="spacingAndGlyphs" text-anchor="middle" opacity="0">MOSI</text>
<g class="stroked-text"><desc>MOSI</desc>
<path d="M142.7006 84.2748 L142.7006 83.2748 "/>
<path d="M142.7006 83.2748 L143.0339 83.9891 "/>
<path d="M143.0339 83.9891 L143.3672 83.2748 "/>
<path d="M143.3672 83.2748 L143.3672 84.2748 "/>
<path d="M144.0339 83.2748 L144.2244 83.2748 "/>
<path d="M144.2244 83.2748 L144.3196 83.3224 "/>
<path d="M144.3196 83.3224 L144.4149 83.4177 "/>
<path d="M144.4149 83.4177 L144.4625 83.6082 "/>
<path d="M144.4625 83.6082 L144.4625 83.9415 "/>
<path d="M144.4625 83.9415 L144.4149 84.1320 "/>
<path d="M144.4149 84.1320 L144.3196 84.2272 "/>
<path d="M144.3196 84.2272 L144.2244 84.2748 "/>
<path d="M144.2244 84.2748 L144.0339 84.2748 "/>
<path d="M144.0339 84.2748 L143.9387 84.2272 "/>
<path d="M143.9387 84.2272 L143.8434 84.1320 "/>
<path d="M143.8434 84.1320 L143.7958 83.9415 "/>
<path d="M143.7958 83.9415 L143.7958 83.6082 "/>
<path d="M143.7958 83.6082 L143.8434 83.4177 "/>
<path d="M143.8434 83.4177 L143.9387 83.3224 "/>
<path d="M143.9387 83.3224 L144.0339 83.2748 "/>
<path d="M144.8434 84.2272 L144.9863 84.2748 "/>
<path d="M144.9863 84.2748 L145.2244 84.2748 "/>
<path d="M145.2244 84.2748 L145.3196 84.2272 "/>
<path d="M145.3196 84.2272 L145.3672 84.1796 "/>
<path d="M145.3672 84.1796 L145.4149 84.0843 "/>
<path d="M145.4149 84.0843 L145.4149 83.9891 "/>
<path d="M145.4149 83.9891 L145.3672 83.8939 "/>
<path d="M145.3672 83.8939 L145.3196 83.8462 "/>
<path d="M145.3196 83.8462 L145.2244 83.7986 "/>
<path d="M145.2244 83.7986 L145.0339 83.7510 "/>
<path d="M145.0339 83.7510 L144.9387 83.7034 "/>
<path d="M144.9387 83.7034 L144.8910 83.6558 "/>
<path d="M144.8910 83.6558 L144.8434 83.5605 "/>
<path d="M144.8434 83.5605 L144.8434 83.4653 "/>
<path d="M144.8434 83.4653 L144.8910 83.3701 "/>
<path d="M144.8910 83.3701 L144.9387 83.3224 "/>
<path d="M144.9387 83.3224 L145.0339 83.2748 "/>
<path d="M145.0339 83.2748 L145.2720 83.2748 "/>
<path d="M145.2720 83.2748 L145.4149 83.3224 "/>
<path d="M145.8434 84.2748 L145.8434 83.2748 "/>
</g><text x="145.0340" y="87.1140" textLength="2.3929" font-size="1.3333" lengthAdjust="spacingAndGlyphs" text-anchor="middle" opacity="0">~{WP}</text>
<g class="stroked-text"><desc>~{WP}</desc>
<path d="M144.1054 86.0688 L144.3435 87.0688 "/>
<path d="M144.3435 87.0688 L144.5340 86.3545 "/>
<path d="M144.5340 86.3545 L144.7245 87.0688 "/>
<path d="M144.7245 87.0688 L144.9626 86.0688 "/>
<path d="M145.3435 87.0688 L145.3435 86.0688 "/>
<path d="M145.3435 86.0688 L145.7245 86.0688 "/>
<path d="M145.7245 86.0688 L145.8197 86.1164 "/>
<path d="M145.8197 86.1164 L145.8673 86.1641 "/>
<path d="M145.8673 86.1641 L145.9150 86.2593 "/>
<path d="M145.9150 86.2593 L145.9150 86.4022 "/>
<path d="M145.9150 86.4022 L145.8673 86.4974 "/>
<path d="M145.8673 86.4974 L145.8197 86.5450 "/>
<path d="M145.8197 86.5450 L145.7245 86.5926 "/>
<path d="M145.7245 86.5926 L145.3435 86.5926 "/>
<path d="M144.0626 85.7912 L146.0054 85.7912 "/>
</g><text x="145.0340" y="92.1940" textLength="2.2024" font-size="1.3333" lengthAdjust="spacingAndGlyphs" text-anchor="middle" opacity="0">~{CS}</text>
<g class="stroked-text"><desc>~{CS}</desc>
<path d="M144.8673 92.0536 L144.8197 92.1012 "/>
<path d="M144.8197 92.1012 L144.6769 92.1488 "/>
<path d="M144.6769 92.1488 L144.5816 92.1488 "/>
<path d="M144.5816 92.1488 L144.4388 92.1012 "/>
<path d="M144.4388 92.1012 L144.3435 92.0060 "/>
<path d="M144.3435 92.0060 L144.2959 91.9107 "/>
<path d="M144.2959 91.9107 L144.2483 91.7202 "/>
<path d="M144.2483 91.7202 L144.2483 91.5774 "/>
<path d="M144.2483 91.5774 L144.2959 91.3869 "/>
<path d="M144.2959 91.3869 L144.3435 91.2917 "/>
<path d="M144.3435 91.2917 L144.4388 91.1964 "/>
<path d="M144.4388 91.1964 L144.5816 91.1488 "/>
<path d="M144.5816 91.1488 L144.6769 91.1488 "/>
<path d="M144.6769 91.1488 L144.8197 91.1964 "/>
<path d="M144.8197 91.1964 L144.8673 91.2441 "/>
<path d="M145.2483 92.1012 L145.3911 92.1488 "/>
<path d="M145.3911 92.1488 L145.6292 92.1488 "/>
<path d="M145.6292 92.1488 L145.7245 92.1012 "/>
<path d="M145.7245 92.1012 L145.7721 92.0536 "/>
<path d="M145.7721 92.0536 L145.8197 91.9583 "/>
<path d="M145.8197 91.9583 L145.8197 91.8631 "/>
<path d="M145.8197 91.8631 L145.7721 91.7679 "/>
<path d="M145.7721 91.7679 L145.7245 91.7202 "/>
<path d="M145.7245 91.7202 L145.6292 91.6726 "/>
<path d="M145.6292 91.6726 L145.4388 91.6250 "/>
<path d="M145.4388 91.6250 L145.3435 91.5774 "/>
<path d="M145.3435 91.5774 L145.2959 91.5298 "/>
<path d="M145.2959 91.5298 L145.2483 91.4345 "/>
<path d="M145.2483 91.4345 L145.2483 91.3393 "/>
<path d="M145.2483 91.3393 L145.2959 91.2441 "/>
<path d="M145.2959 91.2441 L145.3435 91.1964 "/>
<path d="M145.3435 91.1964 L145.4388 91.1488 "/>
<path d="M145.4388 91.1488 L145.6769 91.1488 "/>
<path d="M145.6769 91.1488 L145.8197 91.1964 "/>
<path d="M144.1578 90.8712 L145.9102 90.8712 "/>
</g><text x="144.7800" y="81.7800" textLength="3.2024" font-size="1.3333" lengthAdjust="spacingAndGlyphs" text-anchor="middle" opacity="0">SCK</text>
<g class="stroked-text"><desc>SCK</desc>
<path d="M143.4943 81.6872 L143.6371 81.7348 "/>
<path d="M143.6371 81.7348 L143.8752 81.7348 "/>
<path d="M143.8752 81.7348 L143.9705 81.6872 "/>
<path d="M143.9705 81.6872 L144.0181 81.6396 "/>
<path d="M144.0181 81.6396 L144.0657 81.5443 "/>
<path d="M144.0657 81.5443 L144.0657 81.4491 "/>
<path d="M144.0657 81.4491 L144.0181 81.3539 "/>
<path d="M144.0181 81.3539 L143.9705 81.3062 "/>
<path d="M143.9705 81.3062 L143.8752 81.2586 "/>
<path d="M143.8752 81.2586 L143.6848 81.2110 "/>
<path d="M143.6848 81.2110 L143.5895 81.1634 "/>
<path d="M143.5895 81.1634 L143.5419 81.1158 "/>
<path d="M143.5419 81.1158 L143.4943 81.0205 "/>
<path d="M143.4943 81.0205 L143.4943 80.9253 "/>
<path d="M143.4943 80.9253 L143.5419 80.8301 "/>
<path d="M143.5419 80.8301 L143.5895 80.7824 "/>
<path d="M143.5895 80.7824 L143.6848 80.7348 "/>
<path d="M143.6848 80.7348 L143.9229 80.7348 "/>
<path d="M143.9229 80.7348 L144.0657 80.7824 "/>
<path d="M145.0657 81.6396 L145.0181 81.6872 "/>
<path d="M145.0181 81.6872 L144.8752 81.7348 "/>
<path d="M144.8752 81.7348 L144.7800 81.7348 "/>
<path d="M144.7800 81.7348 L144.6371 81.6872 "/>
<path d="M144.6371 81.6872 L144.5419 81.5920 "/>
<path d="M144.5419 81.5920 L144.4943 81.4967 "/>
<path d="M144.4943 81.4967 L144.4467 81.3062 "/>
<path d="M144.4467 81.3062 L144.4467 81.1634 "/>
<path d="M144.4467 81.1634 L144.4943 80.9729 "/>
<path d="M144.4943 80.9729 L144.5419 80.8777 "/>
<path d="M144.5419 80.8777 L144.6371 80.7824 "/>
<path d="M144.6371 80.7824 L144.7800 80.7348 "/>
<path d="M144.7800 80.7348 L144.8752 80.7348 "/>
<path d="M144.8752 80.7348 L145.0181 80.7824 "/>
<path d="M145.0181 80.7824 L145.0657 80.8301 "/>
<path d="M145.4943 81.7348 L145.4943 80.7348 "/>
<path d="M146.0657 81.7348 L145.6371 81.1634 "/>
<path d="M146.0657 80.7348 L145.4943 81.3062 "/>
</g><path d="M146.3040 80.0100 L151.3840 80.0100 "/>
<path d="M146.3040 92.7100 L146.3040 80.0100 "/>
<path d="M151.3840 80.0100 L151.3840 92.7100 "/>
<path d="M151.3840 92.7100 L146.3040 92.7100 "/>
<path d="M133.0960 85.0900 L138.1760 85.0900 "/>
<path d="M133.0960 92.7100 L133.0960 85.0900 "/>
<path d="M138.1760 85.0900 L138.1760 92.7100 "/>
<path d="M138.1760 92.7100 L133.0960 92.7100 "/>
<g style="fill-opacity: 1.0000;stroke-width: 0.0000;stroke-opacity: 1;stroke-linecap: round;stroke-linejoin: round">
<path style="fill-opacity: 1.0000;stroke-width: 0.0000;stroke-opacity: 1;stroke-linecap: round;stroke-linejoin: round;fill-rule: evenodd" d="M 146.8120,82.0420 146.8120,80.5180 148.3360,80.5180 148.3360,82.0420 Z"/> 
<path style="fill-opacity: 1.0000;stroke-width: 0.0000;stroke-opacity: 1;stroke-linecap: round;stroke-linejoin: round;fill-rule: evenodd" d="M 149.3520,82.0420 149.3520,80.5180 150.8760,80.5180 150.8760,82.0420 Z"/> 
<path style="fill-opacity: 1.0000;stroke-width: 0.0000;stroke-opacity: 1;stroke-linecap: round;stroke-linejoin: round;fill-rule: evenodd" d="M 146.8120,84.5820 146.8120,83.0580 148.3360,83.0580 148.3360,84.5820 Z"/> 
<path style="fill-opacity: 1.0000;stroke-width: 0.0000;stroke-opacity: 1;stroke-linecap: round;stroke-linejoin: round;fill-rule: evenodd" d="M 149.3520,84.5820 149.3520,83.0580 150.8760,83.0580 150.8760,84.5820 Z"/> 
<path style="fill-opacity: 1.0000;stroke-width: 0.0000;stroke-opacity: 1;stroke-linecap: round;stroke-linejoin: round;fill-rule: evenodd" d="M 146.8120,87.1220 146.8120,85.5980 148.3360,85.5980 148.3360,87.1220 Z"/> 
<path style="fill-opacity: 1.0000;stroke-width: 0.0000;stroke-opacity: 1;stroke-linecap: round;stroke-linejoin: round;fill-rule: evenodd" d="M 149.3520,87.1220 149.3520,85.5980 150.8760,85.5980 150.8760,87.1220 Z"/> 
<path style="fill-opacity: 1.0000;stroke-width: 0.0000;stroke-opacity: 1;stroke-linecap: round;stroke-linejoin: round;fill-rule: evenodd" d="M 146.8120,89.6620 146.8120,88.1380 148.3360,88.1380 148.3360,89.6620 Z"/> 
<path style="fill-opacity: 1.0000;stroke-width: 0.0000;stroke-opacity: 1;stroke-linecap: round;stroke-linejoin: round;fill-rule: evenodd" d="M 149.3520,89.6620 149.3520,88.1380 150.8760,88.1380 150.8760,89.6620 Z"/> 
<path style="fill-opacity: 1.0000;stroke-width: 0.0000;stroke-opacity: 1;stroke-linecap: round;stroke-linejoin: round;fill-rule: evenodd" d="M 146.8120,92.2020 146.8120,90.6780 148.3360,90.6780 148.3360,92.2020 Z"/> 
<path style="fill-opacity: 1.0000;stroke-width: 0.0000;stroke-opacity: 1;stroke-linecap: round;stroke-linejoin: round;fill-rule: evenodd" d="M 149.3520,92.2020 149.3520,90.6780 150.8760,90.6780 150.8760,92.2020 Z"/> 
</g>
</g> 
</g><g id="substrate-outline" style="fill:#000000; stroke:#000000; stroke-width: 0.15"><g style="fill-opacity: 0.0;stroke-opacity: 1;stroke-linecap: round;stroke-linejoin: round">
<path d="M152.1460 101.3460 L132.3340 101.3460 "/>
<path d="M132.3340 71.3740 L132.3340 101.3460 "/>
<path d="M152.1460 71.3740 L152.1460 101.3460 "/>
<path d="M132.3340 71.3740 L152.1460 71.3740 "/>
</g> 
<path d="M -1.5 0.0 A 1.5 1.5 0 1 1 1.5 0.0 L 1.5 -0.0 A 1.5 1.5 0 1 1 -1.5 -0.0 Z" transform="translate(137.16 96.52) rotate(-0.0)"/><path d="M -0.4445 0.0 A 0.4445 0.4445 0 1 1 0.4445 0.0 L 0.4445 -0.0 A 0.4445 0.4445 0 1 1 -0.4445 -0.0 Z" transform="translate(147.574 81.28) rotate(-0.0)"/><path d="M -0.4445 0.0 A 0.4445 0.4445 0 1 1 0.4445 0.0 L 0.4445 -0.0 A 0.4445 0.4445 0 1 1 -0.4445 -0.0 Z" transform="translate(150.114 81.28) rotate(-0.0)"/><path d="M -0.4445 0.0 A 0.4445 0.4445 0 1 1 0.4445 0.0 L 0.4445 -0.0 A 0.4445 0.4445 0 1 1 -0.4445 -0.0 Z" transform="translate(147.574 83.82) rotate(-0.0)"/><path d="M -0.4445 0.0 A 0.4445 0.4445 0 1 1 0.4445 0.0 L 0.4445 -0.0 A 0.4445 0.4445 0 1 1 -0.4445 -0.0 Z" transform="translate(150.114 83.82) rotate(-0.0)"/><path d="M -0.4445 0.0 A 0.4445 0.4445 0 1 1 0.4445 0.0 L 0.4445 -0.0 A 0.4445 0.4445 0 1 1 -0.4445 -0.0 Z" transform="translate(147.574 86.36) rotate(-0.0)"/><path d="M -0.4445 0.0 A 0.4445 0.4445 0 1 1 0.4445 0.0 L 0.4445 -0.0 A 0.4445 0.4445 0 1 1 -0.4445 -0.0 Z" transform="translate(150.114 86.36) rotate(-0.0)"/><path d="M -0.4445 0.0 A 0.4445 0.4445 0 1 1 0.4445 0.0 L 0.4445 -0.0 A 0.4445 0.4445 0 1 1 -0.4445 -0.0 Z" transform="translate(147.574 88.9) rotate(-0.0)"/><path d="M -0.4445 0.0 A 0.4445 0.4445 0 1 1 0.4445 0.0 L 0.4445 -0.0 A 0.4445 0.4445 0 1 1 -0.4445 -0.0 Z" transform="translate(150.114 88.9) rotate(-0.0)"/><path d="M -0.4445 0.0 A 0.4445 0.4445 0 1 1 0.4445 0.0 L 0.4445 -0.0 A 0.4445 0.4445 0 1 1 -0.4445 -0.0 Z" transform="translate(147.574 91.44) rotate(-0.0)"/><path d="M -0.4445 0.0 A 0.4445 0.4445 0 1 1 0.4445 0.0 L 0.4445 -0.0 A 0.4445 0.4445 0 1 1 -0.4445 -0.0 Z" transform="translate(150.114 91.44) rotate(-0.0)"/><path d="M -1.5 0.0 A 1.5 1.5 0 1 1 1.5 0.0 L 1.5 -0.0 A 1.5 1.5 0 1 1 -1.5 -0.0 Z" transform="translate(147.32 76.2) rotate(-0.0)"/><path d="M -1.5 0.0 A 1.5 1.5 0 1 1 1.5 0.0 L 1.5 -0.0 A 1.5 1.5 0 1 1 -1.5 -0.0 Z" transform="translate(137.16 76.2) rotate(-0.0)"/><path d="M -1.5 0.0 A 1.5 1.5 0 1 1 1.5 0.0 L 1.5 -0.0 A 1.5 1.5 0 1 1 -1.5 -0.0 Z" transform="translate(147.32 96.52) rotate(-0.0)"/><path d="M -0.4445 0.0 A 0.4445 0.4445 0 1 1 0.4445 0.0 L 0.4445 -0.0 A 0.4445 0.4445 0 1 1 -0.4445 -0.0 Z" transform="translate(134.366 86.36) rotate(-0.0)"/><path d="M -0.4445 0.0 A 0.4445 0.4445 0 1 1 0.4445 0.0 L 0.4445 -0.0 A 0.4445 0.4445 0 1 1 -0.4445 -0.0 Z" transform="translate(136.906 86.36) rotate(-0.0)"/><path d="M -0.4445 0.0 A 0.4445 0.4445 0 1 1 0.4445 0.0 L 0.4445 -0.0 A 0.4445 0.4445 0 1 1 -0.4445 -0.0 Z" transform="translate(134.366 88.9) rotate(-0.0)"/><path d="M -0.4445 0.0 A 0.4445 0.4445 0 1 1 0.4445 0.0 L 0.4445 -0.0 A 0.4445 0.4445 0 1 1 -0.4445 -0.0 Z" transform="translate(136.906 88.9) rotate(-0.0)"/><path d="M -0.4445 0.0 A 0.4445 0.4445 0 1 1 0.4445 0.0 L 0.4445 -0.0 A 0.4445 0.4445 0 1 1 -0.4445 -0.0 Z" transform="translate(134.366 91.44) rotate(-0.0)"/><path d="M -0.4445 0.0 A 0.4445 0.4445 0 1 1 0.4445 0.0 L 0.4445 -0.0 A 0.4445 0.4445 0 1 1 -0.4445 -0.0 Z" transform="translate(136.906 91.44) rotate(-0.0)"/><path d="M -0.2 0.0 A 0.2 0.2 0 1 1 0.2 0.0 L 0.2 -0.0 A 0.2 0.2 0 1 1 -0.2 -0.0 Z" transform="translate(140.462 90.17) rotate(-0.0)"/><path d="M -0.2 0.0 A 0.2 0.2 0 1 1 0.2 0.0 L 0.2 -0.0 A 0.2 0.2 0 1 1 -0.2 -0.0 Z" transform="translate(140.716 82.55) rotate(-0.0)"/><path d="M -0.2 0.0 A 0.2 0.2 0 1 1 0.2 0.0 L 0.2 -0.0 A 0.2 0.2 0 1 1 -0.2 -0.0 Z" transform="translate(134.62 84.074) rotate(-0.0)"/><path d="M -0.2 0.0 A 0.2 0.2 0 1 1 0.2 0.0 L 0.2 -0.0 A 0.2 0.2 0 1 1 -0.2 -0.0 Z" transform="translate(140.97 93.98) rotate(-0.0)"/><path d="M -0.2 0.0 A 0.2 0.2 0 1 1 0.2 0.0 L 0.2 -0.0 A 0.2 0.2 0 1 1 -0.2 -0.0 Z" transform="translate(135.636 84.074) rotate(-0.0)"/><path d="M -0.2 0.0 A 0.2 0.2 0 1 1 0.2 0.0 L 0.2 -0.0 A 0.2 0.2 0 1 1 -0.2 -0.0 Z" transform="translate(133.604 79.502) rotate(-0.0)"/><path d="M -0.2 0.0 A 0.2 0.2 0 1 1 0.2 0.0 L 0.2 -0.0 A 0.2 0.2 0 1 1 -0.2 -0.0 Z" transform="translate(140.716 80.518) rotate(-0.0)"/><path d="M -0.2 0.0 A 0.2 0.2 0 1 1 0.2 0.0 L 0.2 -0.0 A 0.2 0.2 0 1 1 -0.2 -0.0 Z" transform="translate(133.604 84.074) rotate(-0.0)"/><path d="M -0.2 0.0 A 0.2 0.2 0 1 1 0.2 0.0 L 0.2 -0.0 A 0.2 0.2 0 1 1 -0.2 -0.0 Z" transform="translate(140.716 81.534) rotate(-0.0)"/><path d="M -0.2 0.0 A 0.2 0.2 0 1 1 0.2 0.0 L 0.2 -0.0 A 0.2 0.2 0 1 1 -0.2 -0.0 Z" transform="translate(138.684 91.948) rotate(-0.0)"/></g></g></g><g transform="" id="componentContainer"><!--Mlab_Mechanical:MountingHole_3mm:M3--><g transform="translate(137.16 96.52) scale(1.0, 1.0) rotate(-0.0) translate(-0.75 -0.75)"><g id="pref_12_Mlab_Mechanical__MountingHole_3mm_HOLE"><defs xmlns:xlink="http://www.w3.org/1999/xlink" id="pref_13defs13">
    <linearGradient id="pref_13linearGradient13300">
      <stop style="stop-color:#e5e5e5;stop-opacity:1;" offset="0" id="pref_13stop13298"/>
    </linearGradient>
    <linearGradient id="pref_13linearGradient10336">
      <stop style="stop-color:#cfcfcf;stop-opacity:1" offset="0" id="pref_13stop10332"/>
      <stop style="stop-color:#cdcdcd;stop-opacity:0" offset="1" id="pref_13stop10334"/>
    </linearGradient>
    <linearGradient id="pref_13linearGradient9067">
      <stop style="stop-color:#d3d3d3;stop-opacity:1;" offset="0" id="pref_13stop9051"/>
      <stop style="stop-color:#c8c8c8;stop-opacity:1;" offset="0.1656336" id="pref_13stop9053"/>
      <stop style="stop-color:#d8d8d8;stop-opacity:0.52030832" offset="0.29162589" id="pref_13stop9055"/>
      <stop style="stop-color:#c6c6c6;stop-opacity:0.51711833" offset="0.38067153" id="pref_13stop9057"/>
      <stop style="stop-color:#bbbbbb;stop-opacity:0.45933419" offset="0.51505035" id="pref_13stop9059"/>
      <stop style="stop-color:#8e8e8e;stop-opacity:0.47450981" offset="0.5970481" id="pref_13stop9061"/>
      <stop style="stop-color:#656565;stop-opacity:0.56470591" offset="0.7681157" id="pref_13stop9063"/>
      <stop style="stop-color:#606060;stop-opacity:0.28235294;" offset="0.95913506" id="pref_13stop9743"/>
      <stop style="stop-color:#b5b5b5;stop-opacity:0.21568628" offset="1" id="pref_13stop9065"/>
    </linearGradient>
    <linearGradient id="pref_13linearGradient3692">
      <stop style="stop-color:#e4e4e4;stop-opacity:1" offset="0" id="pref_13stop6926"/>
      <stop style="stop-color:#e5e5e5;stop-opacity:1" offset="0.1656336" id="pref_13stop6928"/>
      <stop style="stop-color:#f5f5f5;stop-opacity:1" offset="0.29162589" id="pref_13stop6930"/>
      <stop style="stop-color:#c6c6c6;stop-opacity:1;" offset="0.38067153" id="pref_13stop6932"/>
      <stop style="stop-color:#dddddd;stop-opacity:1" offset="0.57577699" id="pref_13stop6934"/>
      <stop style="stop-color:#f2f2f2;stop-opacity:1" offset="0.66836077" id="pref_13stop6936"/>
      <stop style="stop-color:#ebebeb;stop-opacity:1" offset="0.79280978" id="pref_13stop6938"/>
      <stop style="stop-color:#efefef;stop-opacity:1" offset="1" id="pref_13stop6940"/>
    </linearGradient>
    <linearGradient id="pref_13linearGradient5758">
      <stop style="stop-color:#f6f6f6;stop-opacity:0.89019608" offset="0" id="pref_13stop5754"/>
      <stop style="stop-color:#646464;stop-opacity:0.9921568" offset="1" id="pref_13stop5756"/>
    </linearGradient>
    <linearGradient id="pref_13linearGradient3692-7">
      <stop style="stop-color:#d3d3d3;stop-opacity:1;" offset="0" id="pref_13stop3688"/>
      <stop style="stop-color:#c8c8c8;stop-opacity:1;" offset="0.1656336" id="pref_13stop4378"/>
      <stop style="stop-color:#ededed;stop-opacity:1" offset="0.29162589" id="pref_13stop4444"/>
      <stop style="stop-color:#c6c6c6;stop-opacity:1;" offset="0.38067153" id="pref_13stop4376"/>
      <stop style="stop-color:#dbdbdb;stop-opacity:1" offset="0.57577699" id="pref_13stop4308"/>
      <stop style="stop-color:#c8c8c8;stop-opacity:1" offset="0.66836077" id="pref_13stop4242"/>
      <stop style="stop-color:#b8b8b8;stop-opacity:1;" offset="0.79280978" id="pref_13stop4310"/>
      <stop style="stop-color:#aeaeae;stop-opacity:1" offset="1" id="pref_13stop3690"/>
    </linearGradient>
    <linearGradient id="pref_13linearGradient3156">
      <stop style="stop-color:#d3d3d3;stop-opacity:1;" offset="0" id="pref_13stop3152"/>
      <stop style="stop-color:#d3d3d3;stop-opacity:0.89019608;" offset="0.93029171" id="pref_13stop3290"/>
      <stop style="stop-color:#757575;stop-opacity:1" offset="1" id="pref_13stop3154"/>
    </linearGradient>
    <radialGradient xlink:href="#pref_13linearGradient3156" id="pref_13radialGradient3160" cx="0.75" cy="0.75" fx="0.75" fy="0.75" r="2.75" gradientUnits="userSpaceOnUse" gradientTransform="matrix(0.96363636,0,0,0.96363636,0.02727275,0.02727275)"/>
    <linearGradient xlink:href="#pref_13linearGradient3692-7" id="pref_13linearGradient3694" x1="-0.69187778" y1="-1.1810942" x2="2.8737183" y2="2.1900826" gradientUnits="userSpaceOnUse" gradientTransform="matrix(0.92592591,0,0,0.92592591,0.05555555,0.05555555)"/>
    <linearGradient xlink:href="#pref_13linearGradient5758" id="pref_13linearGradient5760" x1="-15.456677" y1="-15.474042" x2="-4.6413889" y2="-6.7602329" gradientUnits="userSpaceOnUse"/>
    <linearGradient xlink:href="#pref_13linearGradient3692" id="pref_13linearGradient6924" gradientUnits="userSpaceOnUse" x1="1.4987922" y1="4.3924975" x2="-1.0811033" y2="-3.0084407"/>
    <radialGradient xlink:href="#pref_13linearGradient9067" id="pref_13radialGradient8763" cx="0.75" cy="0.75" fx="0.75" fy="0.75" r="2.5" gradientUnits="userSpaceOnUse"/>
    <radialGradient xlink:href="#pref_13linearGradient10336" id="pref_13radialGradient10338" cx="-9.3072596" cy="-12.247526" fx="-9.3072596" fy="-12.247526" r="5.7490053" gradientTransform="matrix(0.25618062,-0.83918687,0.82829029,0.2528542,1.5718983,-16.37084)" gradientUnits="userSpaceOnUse"/>
  </defs>
  <circle style="opacity:1;fill:url(#pref_13linearGradient6924);fill-opacity:1;stroke:#cecece;stroke-width:0.05;stroke-miterlimit:4;stroke-dasharray:none;stroke-opacity:1" id="pref_13path6642" cx="0.75" cy="0.75" r="3.5"/>
  <circle style="fill:url(#pref_13radialGradient3160);fill-opacity:1;stroke-width:0.0358194" id="pref_13path1030-6" cx="0.75" cy="0.75" r="2.6500001"/>
  <circle style="opacity:1;fill:url(#pref_13linearGradient3694);fill-opacity:1;stroke-width:0.033792" id="pref_13path1030" cx="0.75" cy="0.75" r="2.5"/>
  <circle style="fill:url(#pref_13radialGradient8763);fill-opacity:1;stroke-width:0.034;stroke-miterlimit:4;stroke-dasharray:none" id="pref_13path1030-7" cx="0.75" cy="0.75" r="2.5"/>
  <path xmlns:sodipodi="http://sodipodi.sourceforge.net/DTD/sodipodi-0.dtd" sodipodi:type="star" style="opacity:1;fill:#b6b6b6;fill-opacity:1;stroke:url(#pref_13linearGradient5760);stroke-width:0.398303;stroke-miterlimit:4;stroke-dasharray:none;stroke-opacity:1" id="pref_13path1288-3" sodipodi:sides="6" sodipodi:cx="-9.9017067" sodipodi:cy="-10.789671" sodipodi:r1="5.7490053" sodipodi:r2="4.9787846" sodipodi:arg1="1.0471976" sodipodi:arg2="1.5707963" transform="matrix(0.24392497,0.05945068,-0.05945068,0.24392497,2.5238203,3.9705334)" d="m -7.0272043,-5.8108862 -5.7490057,-2e-7 -2.874502,-4.9787846 2.874503,-4.978785 5.7490052,1e-6 2.8745024,4.978784 z"/>
  <path xmlns:sodipodi="http://sodipodi.sourceforge.net/DTD/sodipodi-0.dtd" sodipodi:type="star" style="opacity:1;fill:url(#pref_13radialGradient10338);fill-opacity:1;stroke:none;stroke-width:0.398303;stroke-miterlimit:4;stroke-dasharray:none;stroke-opacity:1" id="pref_13path1288-3-6" sodipodi:sides="6" sodipodi:cx="-9.9017067" sodipodi:cy="-10.789671" sodipodi:r1="5.7490053" sodipodi:r2="4.9787846" sodipodi:arg1="1.0471976" sodipodi:arg2="1.5707963" transform="matrix(0.24487282,0.0596817,-0.0596817,0.24487282,2.5307131,3.9830479)" d="m -7.0272043,-5.8108862 -5.7490057,-2e-7 -2.874502,-4.9787846 2.874503,-4.978785 5.7490052,1e-6 2.8745024,4.978784 z"/>
</g></g><!--Mlab_Pin_Headers:Straight_2x05:J2--><g transform="translate(148.844 86.36) scale(0.9999998832685189, 1.0000000783697953) rotate(-0.0) translate(-2.5699999 -6.3799996)"><g id="pref_12_Mlab_Pin_Headers__Straight_2x05_HEADER_2x05_PARALLEL"><g id="pref_14pin" style="display:inline">
    <rect style="opacity:1;fill:#000000;fill-opacity:1;fill-rule:nonzero;stroke:#141414;stroke-width:1.15387;stroke-linecap:round;stroke-linejoin:bevel;stroke-miterlimit:4;stroke-dasharray:none;stroke-opacity:1" id="pref_14rect4686" width="1.4461316" height="1.4461316" x="0.57693499" y="0.57693422"/>
    <rect y="1.0419546" x="1.0419546" height="0.51612419" width="0.51612419" id="pref_14rect156830" style="opacity:1;fill:#fcf23a;fill-opacity:1;fill-rule:nonzero;stroke:#eb9d02;stroke-width:0.123876;stroke-linecap:round;stroke-linejoin:bevel;stroke-miterlimit:4;stroke-dasharray:none;stroke-opacity:1"/>
  </g>
  <g transform="translate(0,2.5400144)" id="pref_14g13" style="display:inline">
    <rect style="opacity:1;fill:#000000;fill-opacity:1;fill-rule:nonzero;stroke:#141414;stroke-width:1.15387;stroke-linecap:round;stroke-linejoin:bevel;stroke-miterlimit:4;stroke-dasharray:none;stroke-opacity:1" id="pref_14rect9" width="1.4461316" height="1.4461316" x="0.57693499" y="0.57693422"/>
    <rect y="1.0419546" x="1.0419546" height="0.51612419" width="0.51612419" id="pref_14rect11" style="opacity:1;fill:#fcf23a;fill-opacity:1;fill-rule:nonzero;stroke:#eb9d02;stroke-width:0.123876;stroke-linecap:round;stroke-linejoin:bevel;stroke-miterlimit:4;stroke-dasharray:none;stroke-opacity:1"/>
  </g>
  <g transform="translate(0,5.0800144)" id="pref_14g19">
    <rect style="opacity:1;fill:#000000;fill-opacity:1;fill-rule:nonzero;stroke:#141414;stroke-width:1.15387;stroke-linecap:round;stroke-linejoin:bevel;stroke-miterlimit:4;stroke-dasharray:none;stroke-opacity:1" id="pref_14rect15" width="1.4461316" height="1.4461316" x="0.57693499" y="0.57693422"/>
    <rect y="1.0419546" x="1.0419546" height="0.51612419" width="0.51612419" id="pref_14rect17" style="opacity:1;fill:#fcf23a;fill-opacity:1;fill-rule:nonzero;stroke:#eb9d02;stroke-width:0.123876;stroke-linecap:round;stroke-linejoin:bevel;stroke-miterlimit:4;stroke-dasharray:none;stroke-opacity:1"/>
  </g>
  <g transform="translate(0,7.6200144)" id="pref_14g25">
    <rect style="opacity:1;fill:#000000;fill-opacity:1;fill-rule:nonzero;stroke:#141414;stroke-width:1.15387;stroke-linecap:round;stroke-linejoin:bevel;stroke-miterlimit:4;stroke-dasharray:none;stroke-opacity:1" id="pref_14rect21" width="1.4461316" height="1.4461316" x="0.57693499" y="0.57693422"/>
    <rect y="1.0419546" x="1.0419546" height="0.51612419" width="0.51612419" id="pref_14rect23" style="opacity:1;fill:#fcf23a;fill-opacity:1;fill-rule:nonzero;stroke:#eb9d02;stroke-width:0.123876;stroke-linecap:round;stroke-linejoin:bevel;stroke-miterlimit:4;stroke-dasharray:none;stroke-opacity:1"/>
  </g>
  <g transform="translate(0,10.160018)" id="pref_14g31">
    <rect style="opacity:1;fill:#000000;fill-opacity:1;fill-rule:nonzero;stroke:#141414;stroke-width:1.15387;stroke-linecap:round;stroke-linejoin:bevel;stroke-miterlimit:4;stroke-dasharray:none;stroke-opacity:1" id="pref_14rect27" width="1.4461316" height="1.4461316" x="0.57693499" y="0.57693422"/>
    <rect y="1.0419546" x="1.0419546" height="0.51612419" width="0.51612419" id="pref_14rect29" style="opacity:1;fill:#fcf23a;fill-opacity:1;fill-rule:nonzero;stroke:#eb9d02;stroke-width:0.123876;stroke-linecap:round;stroke-linejoin:bevel;stroke-miterlimit:4;stroke-dasharray:none;stroke-opacity:1"/>
  </g>
  <g transform="translate(0,99.060018)" id="pref_14g241" style="display:inline">
    <rect style="display:inline;fill:#000000;fill-opacity:1;fill-rule:nonzero;stroke:#141414;stroke-width:1.15387;stroke-linecap:round;stroke-linejoin:bevel;stroke-miterlimit:4;stroke-dasharray:none;stroke-opacity:1" id="pref_14rect4686-3" width="1.4461316" height="1.4461316" x="3.116935" y="-98.483063"/>
    <rect y="-98.018044" x="3.5819547" height="0.51612419" width="0.51612419" id="pref_14rect156830-6" style="display:inline;fill:#fcf23a;fill-opacity:1;fill-rule:nonzero;stroke:#eb9d02;stroke-width:0.123876;stroke-linecap:round;stroke-linejoin:bevel;stroke-miterlimit:4;stroke-dasharray:none;stroke-opacity:1"/>
    <rect style="display:inline;fill:#000000;fill-opacity:1;fill-rule:nonzero;stroke:#141414;stroke-width:1.15387;stroke-linecap:round;stroke-linejoin:bevel;stroke-miterlimit:4;stroke-dasharray:none;stroke-opacity:1" id="pref_14rect9-5" width="1.4461316" height="1.4461316" x="3.116935" y="-95.943069"/>
    <rect y="-95.478043" x="3.5819547" height="0.51612419" width="0.51612419" id="pref_14rect11-3" style="display:inline;fill:#fcf23a;fill-opacity:1;fill-rule:nonzero;stroke:#eb9d02;stroke-width:0.123876;stroke-linecap:round;stroke-linejoin:bevel;stroke-miterlimit:4;stroke-dasharray:none;stroke-opacity:1"/>
    <rect style="fill:#000000;fill-opacity:1;fill-rule:nonzero;stroke:#141414;stroke-width:1.15387;stroke-linecap:round;stroke-linejoin:bevel;stroke-miterlimit:4;stroke-dasharray:none;stroke-opacity:1" id="pref_14rect15-5" width="1.4461316" height="1.4461316" x="3.116935" y="-93.403069"/>
    <rect y="-92.938042" x="3.5819547" height="0.51612419" width="0.51612419" id="pref_14rect17-6" style="fill:#fcf23a;fill-opacity:1;fill-rule:nonzero;stroke:#eb9d02;stroke-width:0.123876;stroke-linecap:round;stroke-linejoin:bevel;stroke-miterlimit:4;stroke-dasharray:none;stroke-opacity:1"/>
    <rect style="fill:#000000;fill-opacity:1;fill-rule:nonzero;stroke:#141414;stroke-width:1.15387;stroke-linecap:round;stroke-linejoin:bevel;stroke-miterlimit:4;stroke-dasharray:none;stroke-opacity:1" id="pref_14rect21-2" width="1.4461316" height="1.4461316" x="3.116935" y="-90.863068"/>
    <rect y="-90.398048" x="3.5819547" height="0.51612419" width="0.51612419" id="pref_14rect23-9" style="fill:#fcf23a;fill-opacity:1;fill-rule:nonzero;stroke:#eb9d02;stroke-width:0.123876;stroke-linecap:round;stroke-linejoin:bevel;stroke-miterlimit:4;stroke-dasharray:none;stroke-opacity:1"/>
    <rect style="fill:#000000;fill-opacity:1;fill-rule:nonzero;stroke:#141414;stroke-width:1.15387;stroke-linecap:round;stroke-linejoin:bevel;stroke-miterlimit:4;stroke-dasharray:none;stroke-opacity:1" id="pref_14rect27-1" width="1.4461316" height="1.4461316" x="3.116935" y="-88.323067"/>
    <rect y="-87.858047" x="3.5819547" height="0.51612419" width="0.51612419" id="pref_14rect29-2" style="fill:#fcf23a;fill-opacity:1;fill-rule:nonzero;stroke:#eb9d02;stroke-width:0.123876;stroke-linecap:round;stroke-linejoin:bevel;stroke-miterlimit:4;stroke-dasharray:none;stroke-opacity:1"/>
  </g>
  </g></g><!--Mlab_Mechanical:MountingHole_3mm:M1--><g transform="translate(147.32 76.2) scale(1.0, 1.0) rotate(-0.0) translate(-0.75 -0.75)"><use xmlns:xlink="http://www.w3.org/1999/xlink" xlink:href="#pref_12_Mlab_Mechanical__MountingHole_3mm_HOLE"/></g><!--Mlab_Mechanical:MountingHole_3mm:M2--><g transform="translate(137.16 76.2) scale(1.0, 1.0) rotate(-0.0) translate(-0.75 -0.75)"><use xmlns:xlink="http://www.w3.org/1999/xlink" xlink:href="#pref_12_Mlab_Mechanical__MountingHole_3mm_HOLE"/></g><!--Mlab_Mechanical:MountingHole_3mm:M4--><g transform="translate(147.32 96.52) scale(1.0, 1.0) rotate(-0.0) translate(-0.75 -0.75)"><use xmlns:xlink="http://www.w3.org/1999/xlink" xlink:href="#pref_12_Mlab_Mechanical__MountingHole_3mm_HOLE"/></g><!--Mlab_Pin_Headers:Straight_2x03:J1--><g transform="translate(135.636 88.9) scale(0.9999998832685189, 0.9999999479166897) rotate(-0.0) translate(-2.5699999 -3.8399999)"><g id="pref_12_Mlab_Pin_Headers__Straight_2x03_HEADER_2x03_PARALLEL"><g id="pref_15pin" style="display:inline">
    <rect style="opacity:1;fill:#000000;fill-opacity:1;fill-rule:nonzero;stroke:#141414;stroke-width:1.15387;stroke-linecap:round;stroke-linejoin:bevel;stroke-miterlimit:4;stroke-dasharray:none;stroke-opacity:1" id="pref_15rect4686" width="1.4461316" height="1.4461316" x="0.57693499" y="0.57693422"/>
    <rect y="1.0419546" x="1.0419546" height="0.51612419" width="0.51612419" id="pref_15rect156830" style="opacity:1;fill:#fcf23a;fill-opacity:1;fill-rule:nonzero;stroke:#eb9d02;stroke-width:0.123876;stroke-linecap:round;stroke-linejoin:bevel;stroke-miterlimit:4;stroke-dasharray:none;stroke-opacity:1"/>
  </g>
  <g transform="translate(0,2.5400024)" id="pref_15g13" style="display:inline">
    <rect style="opacity:1;fill:#000000;fill-opacity:1;fill-rule:nonzero;stroke:#141414;stroke-width:1.15387;stroke-linecap:round;stroke-linejoin:bevel;stroke-miterlimit:4;stroke-dasharray:none;stroke-opacity:1" id="pref_15rect9" width="1.4461316" height="1.4461316" x="0.57693499" y="0.57693422"/>
    <rect y="1.0419546" x="1.0419546" height="0.51612419" width="0.51612419" id="pref_15rect11" style="opacity:1;fill:#fcf23a;fill-opacity:1;fill-rule:nonzero;stroke:#eb9d02;stroke-width:0.123876;stroke-linecap:round;stroke-linejoin:bevel;stroke-miterlimit:4;stroke-dasharray:none;stroke-opacity:1"/>
  </g>
  <g transform="translate(0,5.0800024)" id="pref_15g19">
    <rect style="opacity:1;fill:#000000;fill-opacity:1;fill-rule:nonzero;stroke:#141414;stroke-width:1.15387;stroke-linecap:round;stroke-linejoin:bevel;stroke-miterlimit:4;stroke-dasharray:none;stroke-opacity:1" id="pref_15rect15" width="1.4461316" height="1.4461316" x="0.57693499" y="0.57693422"/>
    <rect y="1.0419546" x="1.0419546" height="0.51612419" width="0.51612419" id="pref_15rect17" style="opacity:1;fill:#fcf23a;fill-opacity:1;fill-rule:nonzero;stroke:#eb9d02;stroke-width:0.123876;stroke-linecap:round;stroke-linejoin:bevel;stroke-miterlimit:4;stroke-dasharray:none;stroke-opacity:1"/>
  </g>
  <g transform="translate(0,99.060003)" id="pref_15g241" style="display:inline">
    <rect style="display:inline;fill:#000000;fill-opacity:1;fill-rule:nonzero;stroke:#141414;stroke-width:1.15387;stroke-linecap:round;stroke-linejoin:bevel;stroke-miterlimit:4;stroke-dasharray:none;stroke-opacity:1" id="pref_15rect4686-3" width="1.4461316" height="1.4461316" x="3.116935" y="-98.483063"/>
    <rect y="-98.018044" x="3.5819547" height="0.51612419" width="0.51612419" id="pref_15rect156830-6" style="display:inline;fill:#fcf23a;fill-opacity:1;fill-rule:nonzero;stroke:#eb9d02;stroke-width:0.123876;stroke-linecap:round;stroke-linejoin:bevel;stroke-miterlimit:4;stroke-dasharray:none;stroke-opacity:1"/>
    <rect style="display:inline;fill:#000000;fill-opacity:1;fill-rule:nonzero;stroke:#141414;stroke-width:1.15387;stroke-linecap:round;stroke-linejoin:bevel;stroke-miterlimit:4;stroke-dasharray:none;stroke-opacity:1" id="pref_15rect9-5" width="1.4461316" height="1.4461316" x="3.116935" y="-95.943069"/>
    <rect y="-95.478043" x="3.5819547" height="0.51612419" width="0.51612419" id="pref_15rect11-3" style="display:inline;fill:#fcf23a;fill-opacity:1;fill-rule:nonzero;stroke:#eb9d02;stroke-width:0.123876;stroke-linecap:round;stroke-linejoin:bevel;stroke-miterlimit:4;stroke-dasharray:none;stroke-opacity:1"/>
    <rect style="fill:#000000;fill-opacity:1;fill-rule:nonzero;stroke:#141414;stroke-width:1.15387;stroke-linecap:round;stroke-linejoin:bevel;stroke-miterlimit:4;stroke-dasharray:none;stroke-opacity:1" id="pref_15rect15-5" width="1.4461316" height="1.4461316" x="3.116935" y="-93.403069"/>
    <rect y="-92.938042" x="3.5819547" height="0.51612419" width="0.51612419" id="pref_15rect17-6" style="fill:#fcf23a;fill-opacity:1;fill-rule:nonzero;stroke:#eb9d02;stroke-width:0.123876;stroke-linecap:round;stroke-linejoin:bevel;stroke-miterlimit:4;stroke-dasharray:none;stroke-opacity:1"/>
  </g>
  </g></g><!--Capacitor_SMD:C_0805_2012Metric.back:C1--><!--Capacitor_SMD:C_0805_2012Metric.back:C2--></g></svg>