<!DOCTYPE svg PUBLIC "-//W3C//DTD SVG 1.1//EN" "http://www.w3.org/Graphics/SVG/1.1/DTD/svg11.dtd">
<svg xmlns="http://www.w3.org/2000/svg" version="1.1" width="29.938999mm" height="40.099mm" viewBox="127.2705 66.3105 29.938999999999993 40.099000000000004">
            <title>Picture generated by PcbDraw </title>
            <desc>Picture generated by PcbDraw</desc>
        <defs><clipPath id="cut-off"><path d=" M 132.334 101.346 L 132.334 71.374 L 152.146 71.374 L 152.146 101.346 L 132.334 101.346 " style="fill-rule: evenodd;"/></clipPath><mask id="pads-mask"><g style="fill:#ffffff; fill-opacity:0.0;  stroke:#ffffff; stroke-width:0.0000; stroke-opacity:1;  stroke-linecap:round; stroke-linejoin:round;">
<g style="fill:#ffffff; fill-opacity:1.0000;  stroke:#ffffff; stroke-width:0.0000; stroke-opacity:1;  stroke-linecap:round; stroke-linejoin:round;">
<circle cx="147.3200" cy="96.5200" r="3.0000"/> 
</g>
<g style="fill:#ffffff; fill-opacity:1.0000;  stroke:#ffffff; stroke-width:0.0000; stroke-opacity:1;  stroke-linecap:round; stroke-linejoin:round;">
<circle cx="137.1600" cy="76.2000" r="3.0000"/> 
</g>
<g style="fill:#ffffff; fill-opacity:1.0000;  stroke:#ffffff; stroke-width:0.0000; stroke-opacity:1;  stroke-linecap:round; stroke-linejoin:round;">
<circle cx="147.3200" cy="76.2000" r="3.0000"/> 
</g>
<g style="fill:#ffffff; fill-opacity:1.0000;  stroke:#ffffff; stroke-width:0.0000; stroke-opacity:1;  stroke-linecap:round; stroke-linejoin:round;">
<path style="fill:#ffffff; fill-opacity:1.0000;  stroke:#ffffff; stroke-width:0.0000; stroke-opacity:1;  stroke-linecap:round; stroke-linejoin:round;fill-rule:evenodd;" d="M 145.2880,83.3120 145.2880,81.7880 146.8120,81.7880 146.8120,83.3120 Z"/> 
<path style="fill:#ffffff; fill-opacity:1.0000;  stroke:#ffffff; stroke-width:0.0000; stroke-opacity:1;  stroke-linecap:round; stroke-linejoin:round;fill-rule:evenodd;" d="M 147.8280,83.3120 147.8280,81.7880 149.3520,81.7880 149.3520,83.3120 Z"/> 
<path style="fill:#ffffff; fill-opacity:1.0000;  stroke:#ffffff; stroke-width:0.0000; stroke-opacity:1;  stroke-linecap:round; stroke-linejoin:round;fill-rule:evenodd;" d="M 145.2880,85.8520 145.2880,84.3280 146.8120,84.3280 146.8120,85.8520 Z"/> 
<path style="fill:#ffffff; fill-opacity:1.0000;  stroke:#ffffff; stroke-width:0.0000; stroke-opacity:1;  stroke-linecap:round; stroke-linejoin:round;fill-rule:evenodd;" d="M 147.8280,85.8520 147.8280,84.3280 149.3520,84.3280 149.3520,85.8520 Z"/> 
<path style="fill:#ffffff; fill-opacity:1.0000;  stroke:#ffffff; stroke-width:0.0000; stroke-opacity:1;  stroke-linecap:round; stroke-linejoin:round;fill-rule:evenodd;" d="M 145.2880,88.3920 145.2880,86.8680 146.8120,86.8680 146.8120,88.3920 Z"/> 
<path style="fill:#ffffff; fill-opacity:1.0000;  stroke:#ffffff; stroke-width:0.0000; stroke-opacity:1;  stroke-linecap:round; stroke-linejoin:round;fill-rule:evenodd;" d="M 147.8280,88.3920 147.8280,86.8680 149.3520,86.8680 149.3520,88.3920 Z"/> 
<path style="fill:#ffffff; fill-opacity:1.0000;  stroke:#ffffff; stroke-width:0.0000; stroke-opacity:1;  stroke-linecap:round; stroke-linejoin:round;fill-rule:evenodd;" d="M 145.2880,90.9320 145.2880,89.4080 146.8120,89.4080 146.8120,90.9320 Z"/> 
<path style="fill:#ffffff; fill-opacity:1.0000;  stroke:#ffffff; stroke-width:0.0000; stroke-opacity:1;  stroke-linecap:round; stroke-linejoin:round;fill-rule:evenodd;" d="M 147.8280,90.9320 147.8280,89.4080 149.3520,89.4080 149.3520,90.9320 Z"/> 
</g>
<g style="fill:#ffffff; fill-opacity:1.0000;  stroke:#ffffff; stroke-width:0.0000; stroke-opacity:1;  stroke-linecap:round; stroke-linejoin:round;">
<circle cx="137.1600" cy="96.5200" r="3.0000"/> 
</g>
</g> 
</mask><mask id="pads-mask-silkscreen"><rect x="132.2705" y="71.3105" width="19.939" height="30.099" fill="white"/><g style="fill:#000000; fill-opacity:0.0;  stroke:#000000; stroke-width:0.0000; stroke-opacity:1;  stroke-linecap:round; stroke-linejoin:round;">
<g style="fill:#000000; fill-opacity:1.0000;  stroke:#000000; stroke-width:0.0000; stroke-opacity:1;  stroke-linecap:round; stroke-linejoin:round;">
<circle cx="147.3200" cy="96.5200" r="3.0000"/> 
</g>
<g style="fill:#000000; fill-opacity:1.0000;  stroke:#000000; stroke-width:0.0000; stroke-opacity:1;  stroke-linecap:round; stroke-linejoin:round;">
<circle cx="137.1600" cy="76.2000" r="3.0000"/> 
</g>
<g style="fill:#000000; fill-opacity:1.0000;  stroke:#000000; stroke-width:0.0000; stroke-opacity:1;  stroke-linecap:round; stroke-linejoin:round;">
<circle cx="147.3200" cy="76.2000" r="3.0000"/> 
</g>
<g style="fill:#000000; fill-opacity:1.0000;  stroke:#000000; stroke-width:0.0000; stroke-opacity:1;  stroke-linecap:round; stroke-linejoin:round;">
<path style="fill:#000000; fill-opacity:1.0000;  stroke:#000000; stroke-width:0.0000; stroke-opacity:1;  stroke-linecap:round; stroke-linejoin:round;fill-rule:evenodd;" d="M 145.2880,83.3120 145.2880,81.7880 146.8120,81.7880 146.8120,83.3120 Z"/> 
<path style="fill:#000000; fill-opacity:1.0000;  stroke:#000000; stroke-width:0.0000; stroke-opacity:1;  stroke-linecap:round; stroke-linejoin:round;fill-rule:evenodd;" d="M 147.8280,83.3120 147.8280,81.7880 149.3520,81.7880 149.3520,83.3120 Z"/> 
<path style="fill:#000000; fill-opacity:1.0000;  stroke:#000000; stroke-width:0.0000; stroke-opacity:1;  stroke-linecap:round; stroke-linejoin:round;fill-rule:evenodd;" d="M 145.2880,85.8520 145.2880,84.3280 146.8120,84.3280 146.8120,85.8520 Z"/> 
<path style="fill:#000000; fill-opacity:1.0000;  stroke:#000000; stroke-width:0.0000; stroke-opacity:1;  stroke-linecap:round; stroke-linejoin:round;fill-rule:evenodd;" d="M 147.8280,85.8520 147.8280,84.3280 149.3520,84.3280 149.3520,85.8520 Z"/> 
<path style="fill:#000000; fill-opacity:1.0000;  stroke:#000000; stroke-width:0.0000; stroke-opacity:1;  stroke-linecap:round; stroke-linejoin:round;fill-rule:evenodd;" d="M 145.2880,88.3920 145.2880,86.8680 146.8120,86.8680 146.8120,88.3920 Z"/> 
<path style="fill:#000000; fill-opacity:1.0000;  stroke:#000000; stroke-width:0.0000; stroke-opacity:1;  stroke-linecap:round; stroke-linejoin:round;fill-rule:evenodd;" d="M 147.8280,88.3920 147.8280,86.8680 149.3520,86.8680 149.3520,88.3920 Z"/> 
<path style="fill:#000000; fill-opacity:1.0000;  stroke:#000000; stroke-width:0.0000; stroke-opacity:1;  stroke-linecap:round; stroke-linejoin:round;fill-rule:evenodd;" d="M 145.2880,90.9320 145.2880,89.4080 146.8120,89.4080 146.8120,90.9320 Z"/> 
<path style="fill:#000000; fill-opacity:1.0000;  stroke:#000000; stroke-width:0.0000; stroke-opacity:1;  stroke-linecap:round; stroke-linejoin:round;fill-rule:evenodd;" d="M 147.8280,90.9320 147.8280,89.4080 149.3520,89.4080 149.3520,90.9320 Z"/> 
</g>
<g style="fill:#000000; fill-opacity:1.0000;  stroke:#000000; stroke-width:0.0000; stroke-opacity:1;  stroke-linecap:round; stroke-linejoin:round;">
<circle cx="137.1600" cy="96.5200" r="3.0000"/> 
</g>
</g> 
</mask><mask id="hole-mask"><g><rect x="132.2705" y="71.3105" fill="white" width="19.939" height="30.099"/><polyline stroke-linecap="round" stroke="black" stroke-width="3.0" points="-0.0 0 0.0 0" transform="translate(147.32 96.52) rotate(-0.0)"/><polyline stroke-linecap="round" stroke="black" stroke-width="3.0" points="-0.0 0 0.0 0" transform="translate(137.16 76.2) rotate(-0.0)"/><polyline stroke-linecap="round" stroke="black" stroke-width="3.0" points="-0.0 0 0.0 0" transform="translate(147.32 76.2) rotate(-0.0)"/><polyline stroke-linecap="round" stroke="black" stroke-width="0.889" points="-0.0 0 0.0 0" transform="translate(146.05 82.55) rotate(-0.0)"/><polyline stroke-linecap="round" stroke="black" stroke-width="0.889" points="-0.0 0 0.0 0" transform="translate(148.59 82.55) rotate(-0.0)"/><polyline stroke-linecap="round" stroke="black" stroke-width="0.889" points="-0.0 0 0.0 0" transform="translate(146.05 85.09) rotate(-0.0)"/><polyline stroke-linecap="round" stroke="black" stroke-width="0.889" points="-0.0 0 0.0 0" transform="translate(148.59 85.09) rotate(-0.0)"/><polyline stroke-linecap="round" stroke="black" stroke-width="0.889" points="-0.0 0 0.0 0" transform="translate(146.05 87.63) rotate(-0.0)"/><polyline stroke-linecap="round" stroke="black" stroke-width="0.889" points="-0.0 0 0.0 0" transform="translate(148.59 87.63) rotate(-0.0)"/><polyline stroke-linecap="round" stroke="black" stroke-width="0.889" points="-0.0 0 0.0 0" transform="translate(146.05 90.17) rotate(-0.0)"/><polyline stroke-linecap="round" stroke="black" stroke-width="0.889" points="-0.0 0 0.0 0" transform="translate(148.59 90.17) rotate(-0.0)"/><polyline stroke-linecap="round" stroke="black" stroke-width="3.0" points="-0.0 0 0.0 0" transform="translate(137.16 96.52) rotate(-0.0)"/><polyline stroke-linecap="round" stroke="black" stroke-width="0.4" points="-0.0 0 0.0 0" transform="translate(138.176 91.44) rotate(-0.0)"/><polyline stroke-linecap="round" stroke="black" stroke-width="0.4" points="-0.0 0 0.0 0" transform="translate(133.604 84.836) rotate(-0.0)"/><polyline stroke-linecap="round" stroke="black" stroke-width="0.4" points="-0.0 0 0.0 0" transform="translate(141.478 94.742) rotate(-0.0)"/><polyline stroke-linecap="round" stroke="black" stroke-width="0.4" points="-0.0 0 0.0 0" transform="translate(142.748 94.742) rotate(-0.0)"/><polyline stroke-linecap="round" stroke="black" stroke-width="0.4" points="-0.0 0 0.0 0" transform="translate(133.604 81.026) rotate(-0.0)"/><polyline stroke-linecap="round" stroke="black" stroke-width="0.4" points="-0.0 0 0.0 0" transform="translate(138.176 90.424) rotate(-0.0)"/><polyline stroke-linecap="round" stroke="black" stroke-width="0.4" points="-0.0 0 0.0 0" transform="translate(133.604 83.058) rotate(-0.0)"/><polyline stroke-linecap="round" stroke="black" stroke-width="0.4" points="-0.0 0 0.0 0" transform="translate(137.16 84.836) rotate(-0.0)"/><polyline stroke-linecap="round" stroke="black" stroke-width="0.4" points="-0.0 0 0.0 0" transform="translate(133.604 82.042) rotate(-0.0)"/><polyline stroke-linecap="round" stroke="black" stroke-width="0.4" points="-0.0 0 0.0 0" transform="translate(139.7 92.71) rotate(-0.0)"/><polyline stroke-linecap="round" stroke="black" stroke-width="0.4" points="-0.0 0 0.0 0" transform="translate(139.7 87.63) rotate(-0.0)"/><polyline stroke-linecap="round" stroke="black" stroke-width="0.4" points="-0.0 0 0.0 0" transform="translate(137.16 86.36) rotate(-0.0)"/></g></mask></defs><g transform="" id="boardContainer"><g id="substrate" clip-path="url(#cut-off)" mask="url(#hole-mask)"><g id="substrate-board" style="fill:#f1f4f3; stroke:#f1f4f3;"><path d=" M 132.334 101.346 L 132.334 71.374 L 152.146 71.374 L 152.146 101.346 L 132.334 101.346 " style="fill-rule: evenodd;"/><g style="fill-opacity: 0.0;stroke-width: 0.1270;stroke-opacity: 1;stroke-linecap: round;stroke-linejoin: round">
<path d="M152.1460 101.3460 L132.3340 101.3460 "/>
<path d="M132.3340 71.3740 L132.3340 101.3460 "/>
<path d="M152.1460 71.3740 L152.1460 101.3460 "/>
<path d="M132.3340 71.3740 L152.1460 71.3740 "/>
</g> 
</g><g id="substrate-clad" style="fill:#72786c; stroke:#72786c;"><g style="fill-opacity: 0.0;stroke-width: 0.0000;stroke-opacity: 1;stroke-linecap: round;stroke-linejoin: round">
<g style="fill-opacity: 1.0000;stroke-width: 0.0000;stroke-opacity: 1;stroke-linecap: round;stroke-linejoin: round">
<circle cx="147.3200" cy="96.5200" r="3.0000"/> 
</g>
<g style="fill-opacity: 1.0000;stroke-width: 0.0000;stroke-opacity: 1;stroke-linecap: round;stroke-linejoin: round">
<circle cx="137.1600" cy="76.2000" r="3.0000"/> 
</g>
<g style="fill-opacity: 1.0000;stroke-width: 0.0000;stroke-opacity: 1;stroke-linecap: round;stroke-linejoin: round">
<circle cx="147.3200" cy="76.2000" r="3.0000"/> 
</g>
<g style="fill-opacity: 1.0000;stroke-width: 0.0000;stroke-opacity: 1;stroke-linecap: round;stroke-linejoin: round">
<path style="fill-opacity: 1.0000;stroke-width: 0.0000;stroke-opacity: 1;stroke-linecap: round;stroke-linejoin: round;fill-rule: evenodd" d="M 145.2880,83.3120 145.2880,81.7880 146.8120,81.7880 146.8120,83.3120 Z"/> 
<path style="fill-opacity: 1.0000;stroke-width: 0.0000;stroke-opacity: 1;stroke-linecap: round;stroke-linejoin: round;fill-rule: evenodd" d="M 147.8280,83.3120 147.8280,81.7880 149.3520,81.7880 149.3520,83.3120 Z"/> 
<path style="fill-opacity: 1.0000;stroke-width: 0.0000;stroke-opacity: 1;stroke-linecap: round;stroke-linejoin: round;fill-rule: evenodd" d="M 145.2880,85.8520 145.2880,84.3280 146.8120,84.3280 146.8120,85.8520 Z"/> 
<path style="fill-opacity: 1.0000;stroke-width: 0.0000;stroke-opacity: 1;stroke-linecap: round;stroke-linejoin: round;fill-rule: evenodd" d="M 147.8280,85.8520 147.8280,84.3280 149.3520,84.3280 149.3520,85.8520 Z"/> 
<path style="fill-opacity: 1.0000;stroke-width: 0.0000;stroke-opacity: 1;stroke-linecap: round;stroke-linejoin: round;fill-rule: evenodd" d="M 145.2880,88.3920 145.2880,86.8680 146.8120,86.8680 146.8120,88.3920 Z"/> 
<path style="fill-opacity: 1.0000;stroke-width: 0.0000;stroke-opacity: 1;stroke-linecap: round;stroke-linejoin: round;fill-rule: evenodd" d="M 147.8280,88.3920 147.8280,86.8680 149.3520,86.8680 149.3520,88.3920 Z"/> 
<path style="fill-opacity: 1.0000;stroke-width: 0.0000;stroke-opacity: 1;stroke-linecap: round;stroke-linejoin: round;fill-rule: evenodd" d="M 145.2880,90.9320 145.2880,89.4080 146.8120,89.4080 146.8120,90.9320 Z"/> 
<path style="fill-opacity: 1.0000;stroke-width: 0.0000;stroke-opacity: 1;stroke-linecap: round;stroke-linejoin: round;fill-rule: evenodd" d="M 147.8280,90.9320 147.8280,89.4080 149.3520,89.4080 149.3520,90.9320 Z"/> 
</g>
<g style="fill-opacity: 1.0000;stroke-width: 0.0000;stroke-opacity: 1;stroke-linecap: round;stroke-linejoin: round">
<circle cx="137.1600" cy="96.5200" r="3.0000"/> 
</g>
</g> 
</g><g id="substrate-copper" style="fill:#f8f8f7; stroke:#f8f8f7;"><g style="fill-opacity: 0.0;stroke-width: 0.0000;stroke-opacity: 1;stroke-linecap: round;stroke-linejoin: round">
<g style="fill-opacity: 1.0000;stroke-width: 0.0000;stroke-opacity: 1;stroke-linecap: round;stroke-linejoin: round">
<circle cx="147.3200" cy="96.5200" r="3.0000"/> 
</g>
<g style="fill-opacity: 1.0000;stroke-width: 0.0000;stroke-opacity: 1;stroke-linecap: round;stroke-linejoin: round">
<circle cx="137.1600" cy="76.2000" r="3.0000"/> 
</g>
<g style="fill-opacity: 1.0000;stroke-width: 0.0000;stroke-opacity: 1;stroke-linecap: round;stroke-linejoin: round">
<circle cx="147.3200" cy="76.2000" r="3.0000"/> 
</g>
<g style="fill-opacity: 1.0000;stroke-width: 0.0000;stroke-opacity: 1;stroke-linecap: round;stroke-linejoin: round">
<path style="fill-opacity: 1.0000;stroke-width: 0.0000;stroke-opacity: 1;stroke-linecap: round;stroke-linejoin: round;fill-rule: evenodd" d="M 145.2880,83.3120 145.2880,81.7880 146.8120,81.7880 146.8120,83.3120 Z"/> 
<path style="fill-opacity: 1.0000;stroke-width: 0.0000;stroke-opacity: 1;stroke-linecap: round;stroke-linejoin: round;fill-rule: evenodd" d="M 147.8280,83.3120 147.8280,81.7880 149.3520,81.7880 149.3520,83.3120 Z"/> 
<path style="fill-opacity: 1.0000;stroke-width: 0.0000;stroke-opacity: 1;stroke-linecap: round;stroke-linejoin: round;fill-rule: evenodd" d="M 145.2880,85.8520 145.2880,84.3280 146.8120,84.3280 146.8120,85.8520 Z"/> 
<path style="fill-opacity: 1.0000;stroke-width: 0.0000;stroke-opacity: 1;stroke-linecap: round;stroke-linejoin: round;fill-rule: evenodd" d="M 147.8280,85.8520 147.8280,84.3280 149.3520,84.3280 149.3520,85.8520 Z"/> 
<path style="fill-opacity: 1.0000;stroke-width: 0.0000;stroke-opacity: 1;stroke-linecap: round;stroke-linejoin: round;fill-rule: evenodd" d="M 145.2880,88.3920 145.2880,86.8680 146.8120,86.8680 146.8120,88.3920 Z"/> 
<path style="fill-opacity: 1.0000;stroke-width: 0.0000;stroke-opacity: 1;stroke-linecap: round;stroke-linejoin: round;fill-rule: evenodd" d="M 147.8280,88.3920 147.8280,86.8680 149.3520,86.8680 149.3520,88.3920 Z"/> 
<path style="fill-opacity: 1.0000;stroke-width: 0.0000;stroke-opacity: 1;stroke-linecap: round;stroke-linejoin: round;fill-rule: evenodd" d="M 145.2880,90.9320 145.2880,89.4080 146.8120,89.4080 146.8120,90.9320 Z"/> 
<path style="fill-opacity: 1.0000;stroke-width: 0.0000;stroke-opacity: 1;stroke-linecap: round;stroke-linejoin: round;fill-rule: evenodd" d="M 147.8280,90.9320 147.8280,89.4080 149.3520,89.4080 149.3520,90.9320 Z"/> 
</g>
<g style="fill-opacity: 1.0000;stroke-width: 0.0000;stroke-opacity: 1;stroke-linecap: round;stroke-linejoin: round">
<circle cx="137.1600" cy="96.5200" r="3.0000"/> 
</g>
<g style="fill-opacity: 1.0000;stroke-width: 0.0000;stroke-opacity: 1;stroke-linecap: round;stroke-linejoin: round">
<circle cx="138.1760" cy="91.4400" r="0.4000"/> 
</g>
<g style="fill-opacity: 1.0000;stroke-width: 0.0000;stroke-opacity: 1;stroke-linecap: round;stroke-linejoin: round">
<circle cx="133.6040" cy="84.8360" r="0.4000"/> 
</g>
<g style="fill-opacity: 1.0000;stroke-width: 0.0000;stroke-opacity: 1;stroke-linecap: round;stroke-linejoin: round">
<circle cx="141.4780" cy="94.7420" r="0.4000"/> 
</g>
<g style="fill-opacity: 1.0000;stroke-width: 0.0000;stroke-opacity: 1;stroke-linecap: round;stroke-linejoin: round">
<circle cx="142.7480" cy="94.7420" r="0.4000"/> 
</g>
<g style="fill-opacity: 1.0000;stroke-width: 0.0000;stroke-opacity: 1;stroke-linecap: round;stroke-linejoin: round">
<circle cx="133.6040" cy="81.0260" r="0.4000"/> 
</g>
<g style="fill-opacity: 1.0000;stroke-width: 0.0000;stroke-opacity: 1;stroke-linecap: round;stroke-linejoin: round">
<circle cx="138.1760" cy="90.4240" r="0.4000"/> 
</g>
<g style="fill-opacity: 1.0000;stroke-width: 0.0000;stroke-opacity: 1;stroke-linecap: round;stroke-linejoin: round">
<circle cx="133.6040" cy="83.0580" r="0.4000"/> 
</g>
<g style="fill-opacity: 1.0000;stroke-width: 0.0000;stroke-opacity: 1;stroke-linecap: round;stroke-linejoin: round">
<circle cx="137.1600" cy="84.8360" r="0.4000"/> 
</g>
<g style="fill-opacity: 1.0000;stroke-width: 0.0000;stroke-opacity: 1;stroke-linecap: round;stroke-linejoin: round">
<circle cx="133.6040" cy="82.0420" r="0.4000"/> 
</g>
<g style="fill-opacity: 1.0000;stroke-width: 0.0000;stroke-opacity: 1;stroke-linecap: round;stroke-linejoin: round">
<circle cx="139.7000" cy="92.7100" r="0.4000"/> 
</g>
<g style="fill-opacity: 1.0000;stroke-width: 0.0000;stroke-opacity: 1;stroke-linecap: round;stroke-linejoin: round">
<circle cx="139.7000" cy="87.6300" r="0.4000"/> 
</g>
<g style="fill-opacity: 1.0000;stroke-width: 0.0000;stroke-opacity: 1;stroke-linecap: round;stroke-linejoin: round">
<circle cx="137.1600" cy="86.3600" r="0.4000"/> 
</g>
<g style="fill-opacity: 0.0;stroke-width: 0.3048;stroke-opacity: 1;stroke-linecap: round;stroke-linejoin: round">
<path d="M146.0500 87.6300 L139.7000 87.6300 "/>
<path d="M146.0500 90.1700 L140.9700 90.1700 "/>
<path d="M140.9700 90.1700 L137.1600 86.3600 "/>
</g>
<g style="fill-opacity: 0.0;stroke-width: 0.3048;stroke-opacity: 1;stroke-linecap: round;stroke-linejoin: round">
<g style="fill-opacity: 1.0000;stroke-width: 0.0000;stroke-opacity: 1;stroke-linecap: round;stroke-linejoin: round">
<path style="fill-opacity: 1.0000;stroke-width: 0.0000;stroke-opacity: 1;stroke-linecap: round;stroke-linejoin: round;fill-rule: evenodd" d="M 148.3950,88.0350 148.5230,88.0745 148.6233,88.0745 148.7225,88.0596 148.8432,88.0014 148.8440,88.0007 148.8440,89.8052 148.7850,89.7650 148.6570,89.7255 148.5567,89.7255 148.4575,89.7404 148.3368,89.7986 148.3360,89.7993 148.3360,87.9948 Z"/> 
<path style="fill-opacity: 1.0000;stroke-width: 0.0000;stroke-opacity: 1;stroke-linecap: round;stroke-linejoin: round;fill-rule: evenodd" d="M 152.0876,71.3945 152.1341,71.4482 152.1455,71.5005 152.1455,101.2195 152.1255,101.2876 152.0718,101.3341 152.0195,101.3455 132.4605,101.3455 132.3924,101.3255 132.3459,101.2718 132.3345,101.2195 132.3345,86.3600 136.2465,86.3600 136.2665,86.5499 136.2898,86.6218 136.3255,86.7316 136.3538,86.7807 136.4210,86.8969 136.4210,86.8970 136.5487,87.0389 136.5487,87.0389 136.7032,87.1511 136.8777,87.2288 137.0645,87.2685 137.0817,87.2685 137.1498,87.2885 137.1708,87.3054 140.4872,90.6219 140.4898,90.6246 140.5285,90.6683 140.5285,90.6683 140.5766,90.7015 140.5796,90.7037 140.6256,90.7397 140.6256,90.7397 140.6256,90.7397 140.6335,90.7433 140.6534,90.7545 140.6606,90.7595 140.7152,90.7802 140.7187,90.7816 140.7622,90.8012 140.7719,90.8056 140.7719,90.8056 140.7805,90.8072 140.8025,90.8133 140.8107,90.8164 140.8686,90.8234 140.8723,90.8240 140.9298,90.8345 140.9881,90.8310 140.9919,90.8309 144.6535,90.8309 144.7216,90.8509 144.7681,90.9046 144.7795,90.9569 144.7795,90.9806 144.7860,91.0412 144.7860,91.0412 144.8371,91.1782 144.8371,91.1782 144.9247,91.2953 145.0418,91.3829 145.0418,91.3829 145.0418,91.3829 145.1009,91.4049 145.1788,91.4340 145.1788,91.4340 145.2394,91.4405 145.2394,91.4405 145.2394,91.4405 145.2394,91.4405 146.8606,91.4405 146.8606,91.4405 146.8606,91.4405 146.8606,91.4405 146.9212,91.4340 146.9212,91.4340 146.9212,91.4340 147.0582,91.3829 147.0588,91.3824 147.1753,91.2953 147.2194,91.2362 147.2763,91.1937 147.3471,91.1886 147.4094,91.2227 147.4212,91.2362 147.4651,91.2949 147.5820,91.3824 147.7189,91.4335 147.7794,91.4400 147.7794,91.4400 148.3360,91.4400 148.3360,90.5348 148.3950,90.5750 148.5230,90.6145 148.6233,90.6145 148.7225,90.5995 148.8432,90.5414 148.8440,90.5407 148.8440,91.4400 149.4006,91.4400 149.4006,91.4400 149.4611,91.4335 149.5980,91.3824 149.5980,91.3824 149.7149,91.2949 149.8024,91.1780 149.8024,91.1780 149.8535,91.0411 149.8600,90.9806 149.8600,90.9806 149.8600,90.4240 148.9566,90.4240 149.0084,90.3342 149.0383,90.2036 149.0283,90.0700 148.9793,89.9452 148.9560,89.9160 149.8600,89.9160 149.8600,89.3594 149.8600,89.3594 149.8535,89.2989 149.8024,89.1620 149.8024,89.1620 149.7149,89.0451 149.6558,89.0009 149.6133,88.9440 149.6082,88.8732 149.6422,88.8109 149.6558,88.7991 149.7149,88.7549 149.8024,88.6380 149.8024,88.6380 149.8535,88.5011 149.8600,88.4406 149.8600,88.4406 149.8600,87.8840 148.9566,87.8840 149.0084,87.7942 149.0383,87.6636 149.0283,87.5300 148.9793,87.4052 148.9560,87.3760 149.8600,87.3760 149.8600,86.8194 149.8600,86.8194 149.8535,86.7589 149.8024,86.6220 149.8024,86.6220 149.7149,86.5051 149.6562,86.4612 149.6137,86.4043 149.6086,86.3335 149.6427,86.2712 149.6562,86.2594 149.7153,86.2153 149.8029,86.0982 149.8029,86.0982 149.8029,86.0982 149.8540,85.9612 149.8605,85.9006 149.8605,84.2794 149.8600,84.2747 149.8540,84.2188 149.8540,84.2188 149.8029,84.0818 149.8029,84.0818 149.7153,83.9647 149.6567,83.9209 149.6141,83.8640 149.6090,83.7932 149.6431,83.7309 149.6567,83.7191 149.7153,83.6753 149.8029,83.5582 149.8029,83.5582 149.8029,83.5582 149.8540,83.4212 149.8605,83.3606 149.8605,81.7394 149.8600,81.7347 149.8540,81.6788 149.8540,81.6788 149.8029,81.5418 149.8029,81.5418 149.7153,81.4247 149.5982,81.3371 149.5982,81.3371 149.4612,81.2860 149.4612,81.2860 149.4006,81.2795 149.4006,81.2795 147.7794,81.2795 147.7793,81.2795 147.7188,81.2860 147.7188,81.2860 147.5818,81.3371 147.5818,81.3371 147.4647,81.4247 147.4209,81.4833 147.3640,81.5259 147.2932,81.5310 147.2309,81.4969 147.2191,81.4833 147.1753,81.4247 147.0582,81.3371 147.0582,81.3371 146.9212,81.2860 146.9212,81.2860 146.8606,81.2795 146.8606,81.2795 145.2394,81.2795 145.2394,81.2795 145.1788,81.2860 145.1788,81.2860 145.0418,81.3371 145.0418,81.3371 144.9247,81.4247 144.8371,81.5418 144.8371,81.5418 144.7860,81.6788 144.7860,81.6788 144.7795,81.7394 144.7795,83.3606 144.7860,83.4212 144.7860,83.4212 144.8371,83.5582 144.8371,83.5582 144.9247,83.6753 144.9833,83.7191 145.0259,83.7760 145.0310,83.8468 144.9969,83.9091 144.9833,83.9209 144.9247,83.9647 144.8371,84.0818 144.8371,84.0818 144.7860,84.2188 144.7860,84.2188 144.7795,84.2793 144.7795,85.9006 144.7860,85.9612 144.7860,85.9612 144.8371,86.0982 144.8371,86.0982 144.9247,86.2153 144.9833,86.2591 145.0259,86.3160 145.0310,86.3868 144.9969,86.4491 144.9833,86.4609 144.9247,86.5047 144.8371,86.6218 144.8371,86.6218 144.7860,86.7588 144.7860,86.7588 144.7795,86.8194 144.7795,86.8431 144.7595,86.9112 144.7058,86.9577 144.6535,86.9691 140.3769,86.9691 140.3088,86.9491 140.3029,86.9450 140.1568,86.8389 139.9823,86.7612 139.7955,86.7215 139.6045,86.7215 139.4177,86.7612 139.2432,86.8389 139.0887,86.9511 138.9867,87.0645 138.9262,87.1017 138.8552,87.1004 138.8039,87.0693 138.4662,86.7316 138.1026,86.3679 138.0685,86.3056 138.0664,86.2920 138.0642,86.2712 138.0535,86.1701 137.9945,85.9884 137.8990,85.8231 137.8990,85.8231 137.8990,85.8230 137.7713,85.6811 137.6168,85.5689 137.4423,85.4912 137.2555,85.4515 137.0645,85.4515 136.8777,85.4912 136.7032,85.5689 136.5487,85.6811 136.4210,85.8230 136.4210,85.8231 136.3255,85.9884 136.3255,85.9884 136.2665,86.1701 136.2465,86.3600 132.3345,86.3600 132.3345,71.5005 132.3545,71.4324 132.4082,71.3859 132.4605,71.3745 152.0195,71.3745 Z"/> 
</g>
</g>
</g> 
</g><g id="substrate-pads" style="fill:#c4c1ba; stroke:#c4c1ba;" mask="url(#pads-mask)"><g style="fill-opacity: 0.0;stroke-width: 0.0000;stroke-opacity: 1;stroke-linecap: round;stroke-linejoin: round">
<g style="fill-opacity: 1.0000;stroke-width: 0.0000;stroke-opacity: 1;stroke-linecap: round;stroke-linejoin: round">
<circle cx="147.3200" cy="96.5200" r="3.0000"/> 
</g>
<g style="fill-opacity: 1.0000;stroke-width: 0.0000;stroke-opacity: 1;stroke-linecap: round;stroke-linejoin: round">
<circle cx="137.1600" cy="76.2000" r="3.0000"/> 
</g>
<g style="fill-opacity: 1.0000;stroke-width: 0.0000;stroke-opacity: 1;stroke-linecap: round;stroke-linejoin: round">
<circle cx="147.3200" cy="76.2000" r="3.0000"/> 
</g>
<g style="fill-opacity: 1.0000;stroke-width: 0.0000;stroke-opacity: 1;stroke-linecap: round;stroke-linejoin: round">
<path style="fill-opacity: 1.0000;stroke-width: 0.0000;stroke-opacity: 1;stroke-linecap: round;stroke-linejoin: round;fill-rule: evenodd" d="M 145.2880,83.3120 145.2880,81.7880 146.8120,81.7880 146.8120,83.3120 Z"/> 
<path style="fill-opacity: 1.0000;stroke-width: 0.0000;stroke-opacity: 1;stroke-linecap: round;stroke-linejoin: round;fill-rule: evenodd" d="M 147.8280,83.3120 147.8280,81.7880 149.3520,81.7880 149.3520,83.3120 Z"/> 
<path style="fill-opacity: 1.0000;stroke-width: 0.0000;stroke-opacity: 1;stroke-linecap: round;stroke-linejoin: round;fill-rule: evenodd" d="M 145.2880,85.8520 145.2880,84.3280 146.8120,84.3280 146.8120,85.8520 Z"/> 
<path style="fill-opacity: 1.0000;stroke-width: 0.0000;stroke-opacity: 1;stroke-linecap: round;stroke-linejoin: round;fill-rule: evenodd" d="M 147.8280,85.8520 147.8280,84.3280 149.3520,84.3280 149.3520,85.8520 Z"/> 
<path style="fill-opacity: 1.0000;stroke-width: 0.0000;stroke-opacity: 1;stroke-linecap: round;stroke-linejoin: round;fill-rule: evenodd" d="M 145.2880,88.3920 145.2880,86.8680 146.8120,86.8680 146.8120,88.3920 Z"/> 
<path style="fill-opacity: 1.0000;stroke-width: 0.0000;stroke-opacity: 1;stroke-linecap: round;stroke-linejoin: round;fill-rule: evenodd" d="M 147.8280,88.3920 147.8280,86.8680 149.3520,86.8680 149.3520,88.3920 Z"/> 
<path style="fill-opacity: 1.0000;stroke-width: 0.0000;stroke-opacity: 1;stroke-linecap: round;stroke-linejoin: round;fill-rule: evenodd" d="M 145.2880,90.9320 145.2880,89.4080 146.8120,89.4080 146.8120,90.9320 Z"/> 
<path style="fill-opacity: 1.0000;stroke-width: 0.0000;stroke-opacity: 1;stroke-linecap: round;stroke-linejoin: round;fill-rule: evenodd" d="M 147.8280,90.9320 147.8280,89.4080 149.3520,89.4080 149.3520,90.9320 Z"/> 
</g>
<g style="fill-opacity: 1.0000;stroke-width: 0.0000;stroke-opacity: 1;stroke-linecap: round;stroke-linejoin: round">
<circle cx="137.1600" cy="96.5200" r="3.0000"/> 
</g>
<g style="fill-opacity: 1.0000;stroke-width: 0.0000;stroke-opacity: 1;stroke-linecap: round;stroke-linejoin: round">
<circle cx="138.1760" cy="91.4400" r="0.4000"/> 
</g>
<g style="fill-opacity: 1.0000;stroke-width: 0.0000;stroke-opacity: 1;stroke-linecap: round;stroke-linejoin: round">
<circle cx="133.6040" cy="84.8360" r="0.4000"/> 
</g>
<g style="fill-opacity: 1.0000;stroke-width: 0.0000;stroke-opacity: 1;stroke-linecap: round;stroke-linejoin: round">
<circle cx="141.4780" cy="94.7420" r="0.4000"/> 
</g>
<g style="fill-opacity: 1.0000;stroke-width: 0.0000;stroke-opacity: 1;stroke-linecap: round;stroke-linejoin: round">
<circle cx="142.7480" cy="94.7420" r="0.4000"/> 
</g>
<g style="fill-opacity: 1.0000;stroke-width: 0.0000;stroke-opacity: 1;stroke-linecap: round;stroke-linejoin: round">
<circle cx="133.6040" cy="81.0260" r="0.4000"/> 
</g>
<g style="fill-opacity: 1.0000;stroke-width: 0.0000;stroke-opacity: 1;stroke-linecap: round;stroke-linejoin: round">
<circle cx="138.1760" cy="90.4240" r="0.4000"/> 
</g>
<g style="fill-opacity: 1.0000;stroke-width: 0.0000;stroke-opacity: 1;stroke-linecap: round;stroke-linejoin: round">
<circle cx="133.6040" cy="83.0580" r="0.4000"/> 
</g>
<g style="fill-opacity: 1.0000;stroke-width: 0.0000;stroke-opacity: 1;stroke-linecap: round;stroke-linejoin: round">
<circle cx="137.1600" cy="84.8360" r="0.4000"/> 
</g>
<g style="fill-opacity: 1.0000;stroke-width: 0.0000;stroke-opacity: 1;stroke-linecap: round;stroke-linejoin: round">
<circle cx="133.6040" cy="82.0420" r="0.4000"/> 
</g>
<g style="fill-opacity: 1.0000;stroke-width: 0.0000;stroke-opacity: 1;stroke-linecap: round;stroke-linejoin: round">
<circle cx="139.7000" cy="92.7100" r="0.4000"/> 
</g>
<g style="fill-opacity: 1.0000;stroke-width: 0.0000;stroke-opacity: 1;stroke-linecap: round;stroke-linejoin: round">
<circle cx="139.7000" cy="87.6300" r="0.4000"/> 
</g>
<g style="fill-opacity: 1.0000;stroke-width: 0.0000;stroke-opacity: 1;stroke-linecap: round;stroke-linejoin: round">
<circle cx="137.1600" cy="86.3600" r="0.4000"/> 
</g>
<g style="fill-opacity: 0.0;stroke-width: 0.3048;stroke-opacity: 1;stroke-linecap: round;stroke-linejoin: round">
<path d="M146.0500 87.6300 L139.7000 87.6300 "/>
<path d="M146.0500 90.1700 L140.9700 90.1700 "/>
<path d="M140.9700 90.1700 L137.1600 86.3600 "/>
</g>
<g style="fill-opacity: 0.0;stroke-width: 0.3048;stroke-opacity: 1;stroke-linecap: round;stroke-linejoin: round">
<g style="fill-opacity: 1.0000;stroke-width: 0.0000;stroke-opacity: 1;stroke-linecap: round;stroke-linejoin: round">
<path style="fill-opacity: 1.0000;stroke-width: 0.0000;stroke-opacity: 1;stroke-linecap: round;stroke-linejoin: round;fill-rule: evenodd" d="M 148.3950,88.0350 148.5230,88.0745 148.6233,88.0745 148.7225,88.0596 148.8432,88.0014 148.8440,88.0007 148.8440,89.8052 148.7850,89.7650 148.6570,89.7255 148.5567,89.7255 148.4575,89.7404 148.3368,89.7986 148.3360,89.7993 148.3360,87.9948 Z"/> 
<path style="fill-opacity: 1.0000;stroke-width: 0.0000;stroke-opacity: 1;stroke-linecap: round;stroke-linejoin: round;fill-rule: evenodd" d="M 152.0876,71.3945 152.1341,71.4482 152.1455,71.5005 152.1455,101.2195 152.1255,101.2876 152.0718,101.3341 152.0195,101.3455 132.4605,101.3455 132.3924,101.3255 132.3459,101.2718 132.3345,101.2195 132.3345,86.3600 136.2465,86.3600 136.2665,86.5499 136.2898,86.6218 136.3255,86.7316 136.3538,86.7807 136.4210,86.8969 136.4210,86.8970 136.5487,87.0389 136.5487,87.0389 136.7032,87.1511 136.8777,87.2288 137.0645,87.2685 137.0817,87.2685 137.1498,87.2885 137.1708,87.3054 140.4872,90.6219 140.4898,90.6246 140.5285,90.6683 140.5285,90.6683 140.5766,90.7015 140.5796,90.7037 140.6256,90.7397 140.6256,90.7397 140.6256,90.7397 140.6335,90.7433 140.6534,90.7545 140.6606,90.7595 140.7152,90.7802 140.7187,90.7816 140.7622,90.8012 140.7719,90.8056 140.7719,90.8056 140.7805,90.8072 140.8025,90.8133 140.8107,90.8164 140.8686,90.8234 140.8723,90.8240 140.9298,90.8345 140.9881,90.8310 140.9919,90.8309 144.6535,90.8309 144.7216,90.8509 144.7681,90.9046 144.7795,90.9569 144.7795,90.9806 144.7860,91.0412 144.7860,91.0412 144.8371,91.1782 144.8371,91.1782 144.9247,91.2953 145.0418,91.3829 145.0418,91.3829 145.0418,91.3829 145.1009,91.4049 145.1788,91.4340 145.1788,91.4340 145.2394,91.4405 145.2394,91.4405 145.2394,91.4405 145.2394,91.4405 146.8606,91.4405 146.8606,91.4405 146.8606,91.4405 146.8606,91.4405 146.9212,91.4340 146.9212,91.4340 146.9212,91.4340 147.0582,91.3829 147.0588,91.3824 147.1753,91.2953 147.2194,91.2362 147.2763,91.1937 147.3471,91.1886 147.4094,91.2227 147.4212,91.2362 147.4651,91.2949 147.5820,91.3824 147.7189,91.4335 147.7794,91.4400 147.7794,91.4400 148.3360,91.4400 148.3360,90.5348 148.3950,90.5750 148.5230,90.6145 148.6233,90.6145 148.7225,90.5995 148.8432,90.5414 148.8440,90.5407 148.8440,91.4400 149.4006,91.4400 149.4006,91.4400 149.4611,91.4335 149.5980,91.3824 149.5980,91.3824 149.7149,91.2949 149.8024,91.1780 149.8024,91.1780 149.8535,91.0411 149.8600,90.9806 149.8600,90.9806 149.8600,90.4240 148.9566,90.4240 149.0084,90.3342 149.0383,90.2036 149.0283,90.0700 148.9793,89.9452 148.9560,89.9160 149.8600,89.9160 149.8600,89.3594 149.8600,89.3594 149.8535,89.2989 149.8024,89.1620 149.8024,89.1620 149.7149,89.0451 149.6558,89.0009 149.6133,88.9440 149.6082,88.8732 149.6422,88.8109 149.6558,88.7991 149.7149,88.7549 149.8024,88.6380 149.8024,88.6380 149.8535,88.5011 149.8600,88.4406 149.8600,88.4406 149.8600,87.8840 148.9566,87.8840 149.0084,87.7942 149.0383,87.6636 149.0283,87.5300 148.9793,87.4052 148.9560,87.3760 149.8600,87.3760 149.8600,86.8194 149.8600,86.8194 149.8535,86.7589 149.8024,86.6220 149.8024,86.6220 149.7149,86.5051 149.6562,86.4612 149.6137,86.4043 149.6086,86.3335 149.6427,86.2712 149.6562,86.2594 149.7153,86.2153 149.8029,86.0982 149.8029,86.0982 149.8029,86.0982 149.8540,85.9612 149.8605,85.9006 149.8605,84.2794 149.8600,84.2747 149.8540,84.2188 149.8540,84.2188 149.8029,84.0818 149.8029,84.0818 149.7153,83.9647 149.6567,83.9209 149.6141,83.8640 149.6090,83.7932 149.6431,83.7309 149.6567,83.7191 149.7153,83.6753 149.8029,83.5582 149.8029,83.5582 149.8029,83.5582 149.8540,83.4212 149.8605,83.3606 149.8605,81.7394 149.8600,81.7347 149.8540,81.6788 149.8540,81.6788 149.8029,81.5418 149.8029,81.5418 149.7153,81.4247 149.5982,81.3371 149.5982,81.3371 149.4612,81.2860 149.4612,81.2860 149.4006,81.2795 149.4006,81.2795 147.7794,81.2795 147.7793,81.2795 147.7188,81.2860 147.7188,81.2860 147.5818,81.3371 147.5818,81.3371 147.4647,81.4247 147.4209,81.4833 147.3640,81.5259 147.2932,81.5310 147.2309,81.4969 147.2191,81.4833 147.1753,81.4247 147.0582,81.3371 147.0582,81.3371 146.9212,81.2860 146.9212,81.2860 146.8606,81.2795 146.8606,81.2795 145.2394,81.2795 145.2394,81.2795 145.1788,81.2860 145.1788,81.2860 145.0418,81.3371 145.0418,81.3371 144.9247,81.4247 144.8371,81.5418 144.8371,81.5418 144.7860,81.6788 144.7860,81.6788 144.7795,81.7394 144.7795,83.3606 144.7860,83.4212 144.7860,83.4212 144.8371,83.5582 144.8371,83.5582 144.9247,83.6753 144.9833,83.7191 145.0259,83.7760 145.0310,83.8468 144.9969,83.9091 144.9833,83.9209 144.9247,83.9647 144.8371,84.0818 144.8371,84.0818 144.7860,84.2188 144.7860,84.2188 144.7795,84.2793 144.7795,85.9006 144.7860,85.9612 144.7860,85.9612 144.8371,86.0982 144.8371,86.0982 144.9247,86.2153 144.9833,86.2591 145.0259,86.3160 145.0310,86.3868 144.9969,86.4491 144.9833,86.4609 144.9247,86.5047 144.8371,86.6218 144.8371,86.6218 144.7860,86.7588 144.7860,86.7588 144.7795,86.8194 144.7795,86.8431 144.7595,86.9112 144.7058,86.9577 144.6535,86.9691 140.3769,86.9691 140.3088,86.9491 140.3029,86.9450 140.1568,86.8389 139.9823,86.7612 139.7955,86.7215 139.6045,86.7215 139.4177,86.7612 139.2432,86.8389 139.0887,86.9511 138.9867,87.0645 138.9262,87.1017 138.8552,87.1004 138.8039,87.0693 138.4662,86.7316 138.1026,86.3679 138.0685,86.3056 138.0664,86.2920 138.0642,86.2712 138.0535,86.1701 137.9945,85.9884 137.8990,85.8231 137.8990,85.8231 137.8990,85.8230 137.7713,85.6811 137.6168,85.5689 137.4423,85.4912 137.2555,85.4515 137.0645,85.4515 136.8777,85.4912 136.7032,85.5689 136.5487,85.6811 136.4210,85.8230 136.4210,85.8231 136.3255,85.9884 136.3255,85.9884 136.2665,86.1701 136.2465,86.3600 132.3345,86.3600 132.3345,71.5005 132.3545,71.4324 132.4082,71.3859 132.4605,71.3745 152.0195,71.3745 Z"/> 
</g>
</g>
</g> 
</g><g id="substrate-silk" style="fill:#0b1013; stroke:#0b1013;" mask="url(#pads-mask-silkscreen)"><g style="fill-opacity: 0.0;stroke-width: 0.1500;stroke-opacity: 1;stroke-linecap: round;stroke-linejoin: round">
<text x="150.8760" y="83.0500" textLength="2.0321" font-size="1.3333" lengthAdjust="spacingAndGlyphs" text-anchor="middle" opacity="0">VD</text>
<g class="stroked-text"><desc>VD</desc>
<path d="M150.0427 82.0048 L150.3760 83.0048 "/>
<path d="M150.3760 83.0048 L150.7093 82.0048 "/>
<path d="M151.0427 83.0048 L151.0427 82.0048 "/>
<path d="M151.0427 82.0048 L151.2808 82.0048 "/>
<path d="M151.2808 82.0048 L151.4236 82.0524 "/>
<path d="M151.4236 82.0524 L151.5189 82.1477 "/>
<path d="M151.5189 82.1477 L151.5665 82.2429 "/>
<path d="M151.5665 82.2429 L151.6141 82.4334 "/>
<path d="M151.6141 82.4334 L151.6141 82.5762 "/>
<path d="M151.6141 82.5762 L151.5665 82.7667 "/>
<path d="M151.5665 82.7667 L151.5189 82.8620 "/>
<path d="M151.5189 82.8620 L151.4236 82.9572 "/>
<path d="M151.4236 82.9572 L151.2808 83.0048 "/>
<path d="M151.2808 83.0048 L151.0427 83.0048 "/>
</g><text x="150.8760" y="88.1300" textLength="2.2226" font-size="1.3333" lengthAdjust="spacingAndGlyphs" text-anchor="middle" opacity="0">GN</text>
<g class="stroked-text"><desc>GN</desc>
<path d="M150.6141 87.1324 L150.5189 87.0848 "/>
<path d="M150.5189 87.0848 L150.3760 87.0848 "/>
<path d="M150.3760 87.0848 L150.2331 87.1324 "/>
<path d="M150.2331 87.1324 L150.1379 87.2277 "/>
<path d="M150.1379 87.2277 L150.0903 87.3229 "/>
<path d="M150.0903 87.3229 L150.0427 87.5134 "/>
<path d="M150.0427 87.5134 L150.0427 87.6562 "/>
<path d="M150.0427 87.6562 L150.0903 87.8467 "/>
<path d="M150.0903 87.8467 L150.1379 87.9420 "/>
<path d="M150.1379 87.9420 L150.2331 88.0372 "/>
<path d="M150.2331 88.0372 L150.3760 88.0848 "/>
<path d="M150.3760 88.0848 L150.4712 88.0848 "/>
<path d="M150.4712 88.0848 L150.6141 88.0372 "/>
<path d="M150.6141 88.0372 L150.6617 87.9896 "/>
<path d="M150.6617 87.9896 L150.6617 87.6562 "/>
<path d="M150.6617 87.6562 L150.4712 87.6562 "/>
<path d="M151.0903 88.0848 L151.0903 87.0848 "/>
<path d="M151.0903 87.0848 L151.6617 88.0848 "/>
<path d="M151.6617 88.0848 L151.6617 87.0848 "/>
</g><text x="143.2560" y="83.0500" textLength="1.7940" font-size="1.3333" lengthAdjust="spacingAndGlyphs" text-anchor="middle" opacity="0">MI</text>
<g class="stroked-text"><desc>MI</desc>
<path d="M142.6846 83.0048 L142.6846 82.0048 "/>
<path d="M142.6846 82.0048 L143.0179 82.7191 "/>
<path d="M143.0179 82.7191 L143.3512 82.0048 "/>
<path d="M143.3512 82.0048 L143.3512 83.0048 "/>
<path d="M143.8274 83.0048 L143.8274 82.0048 "/>
</g><text x="137.1600" y="86.2660" textLength="6.7940" font-size="1.3333" lengthAdjust="spacingAndGlyphs" text-anchor="middle" opacity="0">FRAM01A</text>
<g class="stroked-text"><desc>FRAM01A</desc>
<path d="M134.4219 85.6970 L134.0886 85.6970 "/>
<path d="M134.0886 86.2208 L134.0886 85.2208 "/>
<path d="M134.0886 85.2208 L134.5648 85.2208 "/>
<path d="M135.5171 86.2208 L135.1838 85.7446 "/>
<path d="M134.9457 86.2208 L134.9457 85.2208 "/>
<path d="M134.9457 85.2208 L135.3267 85.2208 "/>
<path d="M135.3267 85.2208 L135.4219 85.2684 "/>
<path d="M135.4219 85.2684 L135.4695 85.3161 "/>
<path d="M135.4695 85.3161 L135.5171 85.4113 "/>
<path d="M135.5171 85.4113 L135.5171 85.5542 "/>
<path d="M135.5171 85.5542 L135.4695 85.6494 "/>
<path d="M135.4695 85.6494 L135.4219 85.6970 "/>
<path d="M135.4219 85.6970 L135.3267 85.7446 "/>
<path d="M135.3267 85.7446 L134.9457 85.7446 "/>
<path d="M135.8981 85.9351 L136.3743 85.9351 "/>
<path d="M135.8029 86.2208 L136.1362 85.2208 "/>
<path d="M136.1362 85.2208 L136.4695 86.2208 "/>
<path d="M136.8029 86.2208 L136.8029 85.2208 "/>
<path d="M136.8029 85.2208 L137.1362 85.9351 "/>
<path d="M137.1362 85.9351 L137.4695 85.2208 "/>
<path d="M137.4695 85.2208 L137.4695 86.2208 "/>
<path d="M138.1362 85.2208 L138.2314 85.2208 "/>
<path d="M138.2314 85.2208 L138.3267 85.2684 "/>
<path d="M138.3267 85.2684 L138.3743 85.3161 "/>
<path d="M138.3743 85.3161 L138.4219 85.4113 "/>
<path d="M138.4219 85.4113 L138.4695 85.6018 "/>
<path d="M138.4695 85.6018 L138.4695 85.8399 "/>
<path d="M138.4695 85.8399 L138.4219 86.0303 "/>
<path d="M138.4219 86.0303 L138.3743 86.1256 "/>
<path d="M138.3743 86.1256 L138.3267 86.1732 "/>
<path d="M138.3267 86.1732 L138.2314 86.2208 "/>
<path d="M138.2314 86.2208 L138.1362 86.2208 "/>
<path d="M138.1362 86.2208 L138.0410 86.1732 "/>
<path d="M138.0410 86.1732 L137.9933 86.1256 "/>
<path d="M137.9933 86.1256 L137.9457 86.0303 "/>
<path d="M137.9457 86.0303 L137.8981 85.8399 "/>
<path d="M137.8981 85.8399 L137.8981 85.6018 "/>
<path d="M137.8981 85.6018 L137.9457 85.4113 "/>
<path d="M137.9457 85.4113 L137.9933 85.3161 "/>
<path d="M137.9933 85.3161 L138.0410 85.2684 "/>
<path d="M138.0410 85.2684 L138.1362 85.2208 "/>
<path d="M139.4219 86.2208 L138.8505 86.2208 "/>
<path d="M139.1362 86.2208 L139.1362 85.2208 "/>
<path d="M139.1362 85.2208 L139.0410 85.3637 "/>
<path d="M139.0410 85.3637 L138.9457 85.4589 "/>
<path d="M138.9457 85.4589 L138.8505 85.5065 "/>
<path d="M139.8029 85.9351 L140.2790 85.9351 "/>
<path d="M139.7076 86.2208 L140.0410 85.2208 "/>
<path d="M140.0410 85.2208 L140.3743 86.2208 "/>
</g><text x="137.1600" y="87.8760" textLength="6.1274" font-size="1.3333" lengthAdjust="spacingAndGlyphs" text-anchor="middle" opacity="0">MLAB.cz</text>
<g class="stroked-text"><desc>MLAB.cz</desc>
<path d="M134.4219 87.8308 L134.4219 86.8308 "/>
<path d="M134.4219 86.8308 L134.7552 87.5451 "/>
<path d="M134.7552 87.5451 L135.0886 86.8308 "/>
<path d="M135.0886 86.8308 L135.0886 87.8308 "/>
<path d="M136.0410 87.8308 L135.5648 87.8308 "/>
<path d="M135.5648 87.8308 L135.5648 86.8308 "/>
<path d="M136.3267 87.5451 L136.8029 87.5451 "/>
<path d="M136.2314 87.8308 L136.5648 86.8308 "/>
<path d="M136.5648 86.8308 L136.8981 87.8308 "/>
<path d="M137.5648 87.3070 L137.7076 87.3546 "/>
<path d="M137.7076 87.3546 L137.7552 87.4022 "/>
<path d="M137.7552 87.4022 L137.8029 87.4975 "/>
<path d="M137.8029 87.4975 L137.8029 87.6403 "/>
<path d="M137.8029 87.6403 L137.7552 87.7356 "/>
<path d="M137.7552 87.7356 L137.7076 87.7832 "/>
<path d="M137.7076 87.7832 L137.6124 87.8308 "/>
<path d="M137.6124 87.8308 L137.2314 87.8308 "/>
<path d="M137.2314 87.8308 L137.2314 86.8308 "/>
<path d="M137.2314 86.8308 L137.5648 86.8308 "/>
<path d="M137.5648 86.8308 L137.6600 86.8784 "/>
<path d="M137.6600 86.8784 L137.7076 86.9261 "/>
<path d="M137.7076 86.9261 L137.7552 87.0213 "/>
<path d="M137.7552 87.0213 L137.7552 87.1165 "/>
<path d="M137.7552 87.1165 L137.7076 87.2118 "/>
<path d="M137.7076 87.2118 L137.6600 87.2594 "/>
<path d="M137.6600 87.2594 L137.5648 87.3070 "/>
<path d="M137.5648 87.3070 L137.2314 87.3070 "/>
<path d="M138.2314 87.7356 L138.2790 87.7832 "/>
<path d="M138.2790 87.7832 L138.2314 87.8308 "/>
<path d="M138.2314 87.8308 L138.1838 87.7832 "/>
<path d="M138.1838 87.7832 L138.2314 87.7356 "/>
<path d="M138.2314 87.7356 L138.2314 87.8308 "/>
<path d="M139.1362 87.7832 L139.0410 87.8308 "/>
<path d="M139.0410 87.8308 L138.8505 87.8308 "/>
<path d="M138.8505 87.8308 L138.7552 87.7832 "/>
<path d="M138.7552 87.7832 L138.7076 87.7356 "/>
<path d="M138.7076 87.7356 L138.6600 87.6403 "/>
<path d="M138.6600 87.6403 L138.6600 87.3546 "/>
<path d="M138.6600 87.3546 L138.7076 87.2594 "/>
<path d="M138.7076 87.2594 L138.7552 87.2118 "/>
<path d="M138.7552 87.2118 L138.8505 87.1642 "/>
<path d="M138.8505 87.1642 L139.0410 87.1642 "/>
<path d="M139.0410 87.1642 L139.1362 87.2118 "/>
<path d="M139.4695 87.1642 L139.9933 87.1642 "/>
<path d="M139.9933 87.1642 L139.4695 87.8308 "/>
<path d="M139.4695 87.8308 L139.9933 87.8308 "/>
</g><text x="137.1600" y="89.4860" textLength="7.7940" font-size="1.3333" lengthAdjust="spacingAndGlyphs" text-anchor="middle" opacity="0">1.8-3.6 V</text>
<g class="stroked-text"><desc>1.8-3.6 V</desc>
<path d="M134.1124 89.4408 L133.5410 89.4408 "/>
<path d="M133.8267 89.4408 L133.8267 88.4408 "/>
<path d="M133.8267 88.4408 L133.7314 88.5837 "/>
<path d="M133.7314 88.5837 L133.6362 88.6789 "/>
<path d="M133.6362 88.6789 L133.5410 88.7265 "/>
<path d="M134.5410 89.3456 L134.5886 89.3932 "/>
<path d="M134.5886 89.3932 L134.5410 89.4408 "/>
<path d="M134.5410 89.4408 L134.4933 89.3932 "/>
<path d="M134.4933 89.3932 L134.5410 89.3456 "/>
<path d="M134.5410 89.3456 L134.5410 89.4408 "/>
<path d="M135.1600 88.8694 L135.0648 88.8218 "/>
<path d="M135.0648 88.8218 L135.0171 88.7742 "/>
<path d="M135.0171 88.7742 L134.9695 88.6789 "/>
<path d="M134.9695 88.6789 L134.9695 88.6313 "/>
<path d="M134.9695 88.6313 L135.0171 88.5361 "/>
<path d="M135.0171 88.5361 L135.0648 88.4884 "/>
<path d="M135.0648 88.4884 L135.1600 88.4408 "/>
<path d="M135.1600 88.4408 L135.3505 88.4408 "/>
<path d="M135.3505 88.4408 L135.4457 88.4884 "/>
<path d="M135.4457 88.4884 L135.4933 88.5361 "/>
<path d="M135.4933 88.5361 L135.5410 88.6313 "/>
<path d="M135.5410 88.6313 L135.5410 88.6789 "/>
<path d="M135.5410 88.6789 L135.4933 88.7742 "/>
<path d="M135.4933 88.7742 L135.4457 88.8218 "/>
<path d="M135.4457 88.8218 L135.3505 88.8694 "/>
<path d="M135.3505 88.8694 L135.1600 88.8694 "/>
<path d="M135.1600 88.8694 L135.0648 88.9170 "/>
<path d="M135.0648 88.9170 L135.0171 88.9646 "/>
<path d="M135.0171 88.9646 L134.9695 89.0599 "/>
<path d="M134.9695 89.0599 L134.9695 89.2503 "/>
<path d="M134.9695 89.2503 L135.0171 89.3456 "/>
<path d="M135.0171 89.3456 L135.0648 89.3932 "/>
<path d="M135.0648 89.3932 L135.1600 89.4408 "/>
<path d="M135.1600 89.4408 L135.3505 89.4408 "/>
<path d="M135.3505 89.4408 L135.4457 89.3932 "/>
<path d="M135.4457 89.3932 L135.4933 89.3456 "/>
<path d="M135.4933 89.3456 L135.5410 89.2503 "/>
<path d="M135.5410 89.2503 L135.5410 89.0599 "/>
<path d="M135.5410 89.0599 L135.4933 88.9646 "/>
<path d="M135.4933 88.9646 L135.4457 88.9170 "/>
<path d="M135.4457 88.9170 L135.3505 88.8694 "/>
<path d="M135.9695 89.0599 L136.7314 89.0599 "/>
<path d="M137.1124 88.4408 L137.7314 88.4408 "/>
<path d="M137.7314 88.4408 L137.3981 88.8218 "/>
<path d="M137.3981 88.8218 L137.5410 88.8218 "/>
<path d="M137.5410 88.8218 L137.6362 88.8694 "/>
<path d="M137.6362 88.8694 L137.6838 88.9170 "/>
<path d="M137.6838 88.9170 L137.7314 89.0122 "/>
<path d="M137.7314 89.0122 L137.7314 89.2503 "/>
<path d="M137.7314 89.2503 L137.6838 89.3456 "/>
<path d="M137.6838 89.3456 L137.6362 89.3932 "/>
<path d="M137.6362 89.3932 L137.5410 89.4408 "/>
<path d="M137.5410 89.4408 L137.2552 89.4408 "/>
<path d="M137.2552 89.4408 L137.1600 89.3932 "/>
<path d="M137.1600 89.3932 L137.1124 89.3456 "/>
<path d="M138.1600 89.3456 L138.2076 89.3932 "/>
<path d="M138.2076 89.3932 L138.1600 89.4408 "/>
<path d="M138.1600 89.4408 L138.1124 89.3932 "/>
<path d="M138.1124 89.3932 L138.1600 89.3456 "/>
<path d="M138.1600 89.3456 L138.1600 89.4408 "/>
<path d="M139.0648 88.4408 L138.8743 88.4408 "/>
<path d="M138.8743 88.4408 L138.7790 88.4884 "/>
<path d="M138.7790 88.4884 L138.7314 88.5361 "/>
<path d="M138.7314 88.5361 L138.6362 88.6789 "/>
<path d="M138.6362 88.6789 L138.5886 88.8694 "/>
<path d="M138.5886 88.8694 L138.5886 89.2503 "/>
<path d="M138.5886 89.2503 L138.6362 89.3456 "/>
<path d="M138.6362 89.3456 L138.6838 89.3932 "/>
<path d="M138.6838 89.3932 L138.7790 89.4408 "/>
<path d="M138.7790 89.4408 L138.9695 89.4408 "/>
<path d="M138.9695 89.4408 L139.0648 89.3932 "/>
<path d="M139.0648 89.3932 L139.1124 89.3456 "/>
<path d="M139.1124 89.3456 L139.1600 89.2503 "/>
<path d="M139.1600 89.2503 L139.1600 89.0122 "/>
<path d="M139.1600 89.0122 L139.1124 88.9170 "/>
<path d="M139.1124 88.9170 L139.0648 88.8694 "/>
<path d="M139.0648 88.8694 L138.9695 88.8218 "/>
<path d="M138.9695 88.8218 L138.7790 88.8218 "/>
<path d="M138.7790 88.8218 L138.6838 88.8694 "/>
<path d="M138.6838 88.8694 L138.6362 88.9170 "/>
<path d="M138.6362 88.9170 L138.5886 89.0122 "/>
<path d="M140.2076 88.4408 L140.5410 89.4408 "/>
<path d="M140.5410 89.4408 L140.8743 88.4408 "/>
</g><text x="143.2560" y="90.9240" textLength="2.3179" font-size="1.3333" lengthAdjust="spacingAndGlyphs" text-anchor="middle" opacity="0">~{WP}</text>
<g class="stroked-text"><desc>~{WP}</desc>
<path d="M142.3274 89.8788 L142.5655 90.8788 "/>
<path d="M142.5655 90.8788 L142.7560 90.1645 "/>
<path d="M142.7560 90.1645 L142.9465 90.8788 "/>
<path d="M142.9465 90.8788 L143.1846 89.8788 "/>
<path d="M143.5655 90.8788 L143.5655 89.8788 "/>
<path d="M143.5655 89.8788 L143.9465 89.8788 "/>
<path d="M143.9465 89.8788 L144.0417 89.9264 "/>
<path d="M144.0417 89.9264 L144.0893 89.9741 "/>
<path d="M144.0893 89.9741 L144.1370 90.0693 "/>
<path d="M144.1370 90.0693 L144.1370 90.2122 "/>
<path d="M144.1370 90.2122 L144.0893 90.3074 "/>
<path d="M144.0893 90.3074 L144.0417 90.3550 "/>
<path d="M144.0417 90.3550 L143.9465 90.4026 "/>
<path d="M143.9465 90.4026 L143.5655 90.4026 "/>
<path d="M142.2846 89.6012 L144.2274 89.6012 "/>
</g><text x="143.2560" y="88.3840" textLength="2.1274" font-size="1.3333" lengthAdjust="spacingAndGlyphs" text-anchor="middle" opacity="0">~{CS}</text>
<g class="stroked-text"><desc>~{CS}</desc>
<path d="M143.0893 88.2436 L143.0417 88.2912 "/>
<path d="M143.0417 88.2912 L142.8989 88.3388 "/>
<path d="M142.8989 88.3388 L142.8036 88.3388 "/>
<path d="M142.8036 88.3388 L142.6608 88.2912 "/>
<path d="M142.6608 88.2912 L142.5655 88.1960 "/>
<path d="M142.5655 88.1960 L142.5179 88.1007 "/>
<path d="M142.5179 88.1007 L142.4703 87.9102 "/>
<path d="M142.4703 87.9102 L142.4703 87.7674 "/>
<path d="M142.4703 87.7674 L142.5179 87.5769 "/>
<path d="M142.5179 87.5769 L142.5655 87.4817 "/>
<path d="M142.5655 87.4817 L142.6608 87.3864 "/>
<path d="M142.6608 87.3864 L142.8036 87.3388 "/>
<path d="M142.8036 87.3388 L142.8989 87.3388 "/>
<path d="M142.8989 87.3388 L143.0417 87.3864 "/>
<path d="M143.0417 87.3864 L143.0893 87.4341 "/>
<path d="M143.4703 88.2912 L143.6131 88.3388 "/>
<path d="M143.6131 88.3388 L143.8512 88.3388 "/>
<path d="M143.8512 88.3388 L143.9465 88.2912 "/>
<path d="M143.9465 88.2912 L143.9941 88.2436 "/>
<path d="M143.9941 88.2436 L144.0417 88.1483 "/>
<path d="M144.0417 88.1483 L144.0417 88.0531 "/>
<path d="M144.0417 88.0531 L143.9941 87.9579 "/>
<path d="M143.9941 87.9579 L143.9465 87.9102 "/>
<path d="M143.9465 87.9102 L143.8512 87.8626 "/>
<path d="M143.8512 87.8626 L143.6608 87.8150 "/>
<path d="M143.6608 87.8150 L143.5655 87.7674 "/>
<path d="M143.5655 87.7674 L143.5179 87.7198 "/>
<path d="M143.5179 87.7198 L143.4703 87.6245 "/>
<path d="M143.4703 87.6245 L143.4703 87.5293 "/>
<path d="M143.4703 87.5293 L143.5179 87.4341 "/>
<path d="M143.5179 87.4341 L143.5655 87.3864 "/>
<path d="M143.5655 87.3864 L143.6608 87.3388 "/>
<path d="M143.6608 87.3388 L143.8989 87.3388 "/>
<path d="M143.8989 87.3388 L144.0417 87.3864 "/>
<path d="M142.3798 87.0612 L144.1322 87.0612 "/>
</g><text x="150.8760" y="90.6700" textLength="2.2226" font-size="1.3333" lengthAdjust="spacingAndGlyphs" text-anchor="middle" opacity="0">GN</text>
<g class="stroked-text"><desc>GN</desc>
<path d="M150.6141 89.6724 L150.5189 89.6248 "/>
<path d="M150.5189 89.6248 L150.3760 89.6248 "/>
<path d="M150.3760 89.6248 L150.2331 89.6724 "/>
<path d="M150.2331 89.6724 L150.1379 89.7677 "/>
<path d="M150.1379 89.7677 L150.0903 89.8629 "/>
<path d="M150.0903 89.8629 L150.0427 90.0534 "/>
<path d="M150.0427 90.0534 L150.0427 90.1962 "/>
<path d="M150.0427 90.1962 L150.0903 90.3867 "/>
<path d="M150.0903 90.3867 L150.1379 90.4820 "/>
<path d="M150.1379 90.4820 L150.2331 90.5772 "/>
<path d="M150.2331 90.5772 L150.3760 90.6248 "/>
<path d="M150.3760 90.6248 L150.4712 90.6248 "/>
<path d="M150.4712 90.6248 L150.6141 90.5772 "/>
<path d="M150.6141 90.5772 L150.6617 90.5296 "/>
<path d="M150.6617 90.5296 L150.6617 90.1962 "/>
<path d="M150.6617 90.1962 L150.4712 90.1962 "/>
<path d="M151.0903 90.6248 L151.0903 89.6248 "/>
<path d="M151.0903 89.6248 L151.6617 90.6248 "/>
<path d="M151.6617 90.6248 L151.6617 89.6248 "/>
</g><text x="150.8760" y="85.5900" textLength="2.3655" font-size="1.3333" lengthAdjust="spacingAndGlyphs" text-anchor="middle" opacity="0">MO</text>
<g class="stroked-text"><desc>MO</desc>
<path d="M150.0189 85.5448 L150.0189 84.5448 "/>
<path d="M150.0189 84.5448 L150.3522 85.2591 "/>
<path d="M150.3522 85.2591 L150.6855 84.5448 "/>
<path d="M150.6855 84.5448 L150.6855 85.5448 "/>
<path d="M151.3522 84.5448 L151.5427 84.5448 "/>
<path d="M151.5427 84.5448 L151.6379 84.5924 "/>
<path d="M151.6379 84.5924 L151.7331 84.6877 "/>
<path d="M151.7331 84.6877 L151.7808 84.8782 "/>
<path d="M151.7808 84.8782 L151.7808 85.2115 "/>
<path d="M151.7808 85.2115 L151.7331 85.4020 "/>
<path d="M151.7331 85.4020 L151.6379 85.4972 "/>
<path d="M151.6379 85.4972 L151.5427 85.5448 "/>
<path d="M151.5427 85.5448 L151.3522 85.5448 "/>
<path d="M151.3522 85.5448 L151.2570 85.4972 "/>
<path d="M151.2570 85.4972 L151.1617 85.4020 "/>
<path d="M151.1617 85.4020 L151.1141 85.2115 "/>
<path d="M151.1141 85.2115 L151.1141 84.8782 "/>
<path d="M151.1141 84.8782 L151.1617 84.6877 "/>
<path d="M151.1617 84.6877 L151.2570 84.5924 "/>
<path d="M151.2570 84.5924 L151.3522 84.5448 "/>
</g><text x="143.2560" y="85.8440" textLength="2.1274" font-size="1.3333" lengthAdjust="spacingAndGlyphs" text-anchor="middle" opacity="0">SC</text>
<g class="stroked-text"><desc>SC</desc>
<path d="M142.4703 85.7512 L142.6131 85.7988 "/>
<path d="M142.6131 85.7988 L142.8512 85.7988 "/>
<path d="M142.8512 85.7988 L142.9465 85.7512 "/>
<path d="M142.9465 85.7512 L142.9941 85.7036 "/>
<path d="M142.9941 85.7036 L143.0417 85.6083 "/>
<path d="M143.0417 85.6083 L143.0417 85.5131 "/>
<path d="M143.0417 85.5131 L142.9941 85.4179 "/>
<path d="M142.9941 85.4179 L142.9465 85.3702 "/>
<path d="M142.9465 85.3702 L142.8512 85.3226 "/>
<path d="M142.8512 85.3226 L142.6608 85.2750 "/>
<path d="M142.6608 85.2750 L142.5655 85.2274 "/>
<path d="M142.5655 85.2274 L142.5179 85.1798 "/>
<path d="M142.5179 85.1798 L142.4703 85.0845 "/>
<path d="M142.4703 85.0845 L142.4703 84.9893 "/>
<path d="M142.4703 84.9893 L142.5179 84.8941 "/>
<path d="M142.5179 84.8941 L142.5655 84.8464 "/>
<path d="M142.5655 84.8464 L142.6608 84.7988 "/>
<path d="M142.6608 84.7988 L142.8989 84.7988 "/>
<path d="M142.8989 84.7988 L143.0417 84.8464 "/>
<path d="M144.0417 85.7036 L143.9941 85.7512 "/>
<path d="M143.9941 85.7512 L143.8512 85.7988 "/>
<path d="M143.8512 85.7988 L143.7560 85.7988 "/>
<path d="M143.7560 85.7988 L143.6131 85.7512 "/>
<path d="M143.6131 85.7512 L143.5179 85.6560 "/>
<path d="M143.5179 85.6560 L143.4703 85.5607 "/>
<path d="M143.4703 85.5607 L143.4227 85.3702 "/>
<path d="M143.4227 85.3702 L143.4227 85.2274 "/>
<path d="M143.4227 85.2274 L143.4703 85.0369 "/>
<path d="M143.4703 85.0369 L143.5179 84.9417 "/>
<path d="M143.5179 84.9417 L143.6131 84.8464 "/>
<path d="M143.6131 84.8464 L143.7560 84.7988 "/>
<path d="M143.7560 84.7988 L143.8512 84.7988 "/>
<path d="M143.8512 84.7988 L143.9941 84.8464 "/>
<path d="M143.9941 84.8464 L144.0417 84.8941 "/>
</g><path d="M149.8600 91.4400 L144.7800 91.4400 "/>
<path d="M144.7800 91.4400 L144.7800 81.2800 "/>
<path d="M149.8600 81.2800 L149.8600 91.4400 "/>
<path d="M144.7800 81.2800 L149.8600 81.2800 "/>
<g style="fill-opacity: 1.0000;stroke-width: 0.0000;stroke-opacity: 1;stroke-linecap: round;stroke-linejoin: round">
<path style="fill-opacity: 1.0000;stroke-width: 0.0000;stroke-opacity: 1;stroke-linecap: round;stroke-linejoin: round;fill-rule: evenodd" d="M 145.2880,83.3120 145.2880,81.7880 146.8120,81.7880 146.8120,83.3120 Z"/> 
<path style="fill-opacity: 1.0000;stroke-width: 0.0000;stroke-opacity: 1;stroke-linecap: round;stroke-linejoin: round;fill-rule: evenodd" d="M 147.8280,83.3120 147.8280,81.7880 149.3520,81.7880 149.3520,83.3120 Z"/> 
<path style="fill-opacity: 1.0000;stroke-width: 0.0000;stroke-opacity: 1;stroke-linecap: round;stroke-linejoin: round;fill-rule: evenodd" d="M 145.2880,85.8520 145.2880,84.3280 146.8120,84.3280 146.8120,85.8520 Z"/> 
<path style="fill-opacity: 1.0000;stroke-width: 0.0000;stroke-opacity: 1;stroke-linecap: round;stroke-linejoin: round;fill-rule: evenodd" d="M 147.8280,85.8520 147.8280,84.3280 149.3520,84.3280 149.3520,85.8520 Z"/> 
<path style="fill-opacity: 1.0000;stroke-width: 0.0000;stroke-opacity: 1;stroke-linecap: round;stroke-linejoin: round;fill-rule: evenodd" d="M 145.2880,88.3920 145.2880,86.8680 146.8120,86.8680 146.8120,88.3920 Z"/> 
<path style="fill-opacity: 1.0000;stroke-width: 0.0000;stroke-opacity: 1;stroke-linecap: round;stroke-linejoin: round;fill-rule: evenodd" d="M 147.8280,88.3920 147.8280,86.8680 149.3520,86.8680 149.3520,88.3920 Z"/> 
<path style="fill-opacity: 1.0000;stroke-width: 0.0000;stroke-opacity: 1;stroke-linecap: round;stroke-linejoin: round;fill-rule: evenodd" d="M 145.2880,90.9320 145.2880,89.4080 146.8120,89.4080 146.8120,90.9320 Z"/> 
<path style="fill-opacity: 1.0000;stroke-width: 0.0000;stroke-opacity: 1;stroke-linecap: round;stroke-linejoin: round;fill-rule: evenodd" d="M 147.8280,90.9320 147.8280,89.4080 149.3520,89.4080 149.3520,90.9320 Z"/> 
</g>
</g> 
</g><g id="substrate-outline" style="fill:#000000; stroke:#000000; stroke-width: 0.15"><g style="fill-opacity: 0.0;stroke-opacity: 1;stroke-linecap: round;stroke-linejoin: round">
<path d="M152.1460 101.3460 L132.3340 101.3460 "/>
<path d="M132.3340 71.3740 L132.3340 101.3460 "/>
<path d="M152.1460 71.3740 L152.1460 101.3460 "/>
<path d="M132.3340 71.3740 L152.1460 71.3740 "/>
</g> 
<path d="M -1.5 0.0 A 1.5 1.5 0 1 1 1.5 0.0 L 1.5 -0.0 A 1.5 1.5 0 1 1 -1.5 -0.0 Z" transform="translate(147.32 96.52) rotate(-0.0)"/><path d="M -1.5 0.0 A 1.5 1.5 0 1 1 1.5 0.0 L 1.5 -0.0 A 1.5 1.5 0 1 1 -1.5 -0.0 Z" transform="translate(137.16 76.2) rotate(-0.0)"/><path d="M -1.5 0.0 A 1.5 1.5 0 1 1 1.5 0.0 L 1.5 -0.0 A 1.5 1.5 0 1 1 -1.5 -0.0 Z" transform="translate(147.32 76.2) rotate(-0.0)"/><path d="M -0.4445 0.0 A 0.4445 0.4445 0 1 1 0.4445 0.0 L 0.4445 -0.0 A 0.4445 0.4445 0 1 1 -0.4445 -0.0 Z" transform="translate(146.05 82.55) rotate(-0.0)"/><path d="M -0.4445 0.0 A 0.4445 0.4445 0 1 1 0.4445 0.0 L 0.4445 -0.0 A 0.4445 0.4445 0 1 1 -0.4445 -0.0 Z" transform="translate(148.59 82.55) rotate(-0.0)"/><path d="M -0.4445 0.0 A 0.4445 0.4445 0 1 1 0.4445 0.0 L 0.4445 -0.0 A 0.4445 0.4445 0 1 1 -0.4445 -0.0 Z" transform="translate(146.05 85.09) rotate(-0.0)"/><path d="M -0.4445 0.0 A 0.4445 0.4445 0 1 1 0.4445 0.0 L 0.4445 -0.0 A 0.4445 0.4445 0 1 1 -0.4445 -0.0 Z" transform="translate(148.59 85.09) rotate(-0.0)"/><path d="M -0.4445 0.0 A 0.4445 0.4445 0 1 1 0.4445 0.0 L 0.4445 -0.0 A 0.4445 0.4445 0 1 1 -0.4445 -0.0 Z" transform="translate(146.05 87.63) rotate(-0.0)"/><path d="M -0.4445 0.0 A 0.4445 0.4445 0 1 1 0.4445 0.0 L 0.4445 -0.0 A 0.4445 0.4445 0 1 1 -0.4445 -0.0 Z" transform="translate(148.59 87.63) rotate(-0.0)"/><path d="M -0.4445 0.0 A 0.4445 0.4445 0 1 1 0.4445 0.0 L 0.4445 -0.0 A 0.4445 0.4445 0 1 1 -0.4445 -0.0 Z" transform="translate(146.05 90.17) rotate(-0.0)"/><path d="M -0.4445 0.0 A 0.4445 0.4445 0 1 1 0.4445 0.0 L 0.4445 -0.0 A 0.4445 0.4445 0 1 1 -0.4445 -0.0 Z" transform="translate(148.59 90.17) rotate(-0.0)"/><path d="M -1.5 0.0 A 1.5 1.5 0 1 1 1.5 0.0 L 1.5 -0.0 A 1.5 1.5 0 1 1 -1.5 -0.0 Z" transform="translate(137.16 96.52) rotate(-0.0)"/><path d="M -0.2 0.0 A 0.2 0.2 0 1 1 0.2 0.0 L 0.2 -0.0 A 0.2 0.2 0 1 1 -0.2 -0.0 Z" transform="translate(138.176 91.44) rotate(-0.0)"/><path d="M -0.2 0.0 A 0.2 0.2 0 1 1 0.2 0.0 L 0.2 -0.0 A 0.2 0.2 0 1 1 -0.2 -0.0 Z" transform="translate(133.604 84.836) rotate(-0.0)"/><path d="M -0.2 0.0 A 0.2 0.2 0 1 1 0.2 0.0 L 0.2 -0.0 A 0.2 0.2 0 1 1 -0.2 -0.0 Z" transform="translate(141.478 94.742) rotate(-0.0)"/><path d="M -0.2 0.0 A 0.2 0.2 0 1 1 0.2 0.0 L 0.2 -0.0 A 0.2 0.2 0 1 1 -0.2 -0.0 Z" transform="translate(142.748 94.742) rotate(-0.0)"/><path d="M -0.2 0.0 A 0.2 0.2 0 1 1 0.2 0.0 L 0.2 -0.0 A 0.2 0.2 0 1 1 -0.2 -0.0 Z" transform="translate(133.604 81.026) rotate(-0.0)"/><path d="M -0.2 0.0 A 0.2 0.2 0 1 1 0.2 0.0 L 0.2 -0.0 A 0.2 0.2 0 1 1 -0.2 -0.0 Z" transform="translate(138.176 90.424) rotate(-0.0)"/><path d="M -0.2 0.0 A 0.2 0.2 0 1 1 0.2 0.0 L 0.2 -0.0 A 0.2 0.2 0 1 1 -0.2 -0.0 Z" transform="translate(133.604 83.058) rotate(-0.0)"/><path d="M -0.2 0.0 A 0.2 0.2 0 1 1 0.2 0.0 L 0.2 -0.0 A 0.2 0.2 0 1 1 -0.2 -0.0 Z" transform="translate(137.16 84.836) rotate(-0.0)"/><path d="M -0.2 0.0 A 0.2 0.2 0 1 1 0.2 0.0 L 0.2 -0.0 A 0.2 0.2 0 1 1 -0.2 -0.0 Z" transform="translate(133.604 82.042) rotate(-0.0)"/><path d="M -0.2 0.0 A 0.2 0.2 0 1 1 0.2 0.0 L 0.2 -0.0 A 0.2 0.2 0 1 1 -0.2 -0.0 Z" transform="translate(139.7 92.71) rotate(-0.0)"/><path d="M -0.2 0.0 A 0.2 0.2 0 1 1 0.2 0.0 L 0.2 -0.0 A 0.2 0.2 0 1 1 -0.2 -0.0 Z" transform="translate(139.7 87.63) rotate(-0.0)"/><path d="M -0.2 0.0 A 0.2 0.2 0 1 1 0.2 0.0 L 0.2 -0.0 A 0.2 0.2 0 1 1 -0.2 -0.0 Z" transform="translate(137.16 86.36) rotate(-0.0)"/></g></g></g><g transform="" id="componentContainer"><!--Mlab_Mechanical:MountingHole_3mm:M4--><g transform="translate(147.32 96.52) scale(1.0, 1.0) rotate(-0.0) translate(-0.75 -0.75)"><g id="pref_12_Mlab_Mechanical__MountingHole_3mm_HOLE"><defs xmlns:xlink="http://www.w3.org/1999/xlink" id="pref_13defs13">
    <linearGradient id="pref_13linearGradient13300">
      <stop style="stop-color:#e5e5e5;stop-opacity:1;" offset="0" id="pref_13stop13298"/>
    </linearGradient>
    <linearGradient id="pref_13linearGradient10336">
      <stop style="stop-color:#cfcfcf;stop-opacity:1" offset="0" id="pref_13stop10332"/>
      <stop style="stop-color:#cdcdcd;stop-opacity:0" offset="1" id="pref_13stop10334"/>
    </linearGradient>
    <linearGradient id="pref_13linearGradient9067">
      <stop style="stop-color:#d3d3d3;stop-opacity:1;" offset="0" id="pref_13stop9051"/>
      <stop style="stop-color:#c8c8c8;stop-opacity:1;" offset="0.1656336" id="pref_13stop9053"/>
      <stop style="stop-color:#d8d8d8;stop-opacity:0.52030832" offset="0.29162589" id="pref_13stop9055"/>
      <stop style="stop-color:#c6c6c6;stop-opacity:0.51711833" offset="0.38067153" id="pref_13stop9057"/>
      <stop style="stop-color:#bbbbbb;stop-opacity:0.45933419" offset="0.51505035" id="pref_13stop9059"/>
      <stop style="stop-color:#8e8e8e;stop-opacity:0.47450981" offset="0.5970481" id="pref_13stop9061"/>
      <stop style="stop-color:#656565;stop-opacity:0.56470591" offset="0.7681157" id="pref_13stop9063"/>
      <stop style="stop-color:#606060;stop-opacity:0.28235294;" offset="0.95913506" id="pref_13stop9743"/>
      <stop style="stop-color:#b5b5b5;stop-opacity:0.21568628" offset="1" id="pref_13stop9065"/>
    </linearGradient>
    <linearGradient id="pref_13linearGradient3692">
      <stop style="stop-color:#e4e4e4;stop-opacity:1" offset="0" id="pref_13stop6926"/>
      <stop style="stop-color:#e5e5e5;stop-opacity:1" offset="0.1656336" id="pref_13stop6928"/>
      <stop style="stop-color:#f5f5f5;stop-opacity:1" offset="0.29162589" id="pref_13stop6930"/>
      <stop style="stop-color:#c6c6c6;stop-opacity:1;" offset="0.38067153" id="pref_13stop6932"/>
      <stop style="stop-color:#dddddd;stop-opacity:1" offset="0.57577699" id="pref_13stop6934"/>
      <stop style="stop-color:#f2f2f2;stop-opacity:1" offset="0.66836077" id="pref_13stop6936"/>
      <stop style="stop-color:#ebebeb;stop-opacity:1" offset="0.79280978" id="pref_13stop6938"/>
      <stop style="stop-color:#efefef;stop-opacity:1" offset="1" id="pref_13stop6940"/>
    </linearGradient>
    <linearGradient id="pref_13linearGradient5758">
      <stop style="stop-color:#f6f6f6;stop-opacity:0.89019608" offset="0" id="pref_13stop5754"/>
      <stop style="stop-color:#646464;stop-opacity:0.9921568" offset="1" id="pref_13stop5756"/>
    </linearGradient>
    <linearGradient id="pref_13linearGradient3692-7">
      <stop style="stop-color:#d3d3d3;stop-opacity:1;" offset="0" id="pref_13stop3688"/>
      <stop style="stop-color:#c8c8c8;stop-opacity:1;" offset="0.1656336" id="pref_13stop4378"/>
      <stop style="stop-color:#ededed;stop-opacity:1" offset="0.29162589" id="pref_13stop4444"/>
      <stop style="stop-color:#c6c6c6;stop-opacity:1;" offset="0.38067153" id="pref_13stop4376"/>
      <stop style="stop-color:#dbdbdb;stop-opacity:1" offset="0.57577699" id="pref_13stop4308"/>
      <stop style="stop-color:#c8c8c8;stop-opacity:1" offset="0.66836077" id="pref_13stop4242"/>
      <stop style="stop-color:#b8b8b8;stop-opacity:1;" offset="0.79280978" id="pref_13stop4310"/>
      <stop style="stop-color:#aeaeae;stop-opacity:1" offset="1" id="pref_13stop3690"/>
    </linearGradient>
    <linearGradient id="pref_13linearGradient3156">
      <stop style="stop-color:#d3d3d3;stop-opacity:1;" offset="0" id="pref_13stop3152"/>
      <stop style="stop-color:#d3d3d3;stop-opacity:0.89019608;" offset="0.93029171" id="pref_13stop3290"/>
      <stop style="stop-color:#757575;stop-opacity:1" offset="1" id="pref_13stop3154"/>
    </linearGradient>
    <radialGradient xlink:href="#pref_13linearGradient3156" id="pref_13radialGradient3160" cx="0.75" cy="0.75" fx="0.75" fy="0.75" r="2.75" gradientUnits="userSpaceOnUse" gradientTransform="matrix(0.96363636,0,0,0.96363636,0.02727275,0.02727275)"/>
    <linearGradient xlink:href="#pref_13linearGradient3692-7" id="pref_13linearGradient3694" x1="-0.69187778" y1="-1.1810942" x2="2.8737183" y2="2.1900826" gradientUnits="userSpaceOnUse" gradientTransform="matrix(0.92592591,0,0,0.92592591,0.05555555,0.05555555)"/>
    <linearGradient xlink:href="#pref_13linearGradient5758" id="pref_13linearGradient5760" x1="-15.456677" y1="-15.474042" x2="-4.6413889" y2="-6.7602329" gradientUnits="userSpaceOnUse"/>
    <linearGradient xlink:href="#pref_13linearGradient3692" id="pref_13linearGradient6924" gradientUnits="userSpaceOnUse" x1="1.4987922" y1="4.3924975" x2="-1.0811033" y2="-3.0084407"/>
    <radialGradient xlink:href="#pref_13linearGradient9067" id="pref_13radialGradient8763" cx="0.75" cy="0.75" fx="0.75" fy="0.75" r="2.5" gradientUnits="userSpaceOnUse"/>
    <radialGradient xlink:href="#pref_13linearGradient10336" id="pref_13radialGradient10338" cx="-9.3072596" cy="-12.247526" fx="-9.3072596" fy="-12.247526" r="5.7490053" gradientTransform="matrix(0.25618062,-0.83918687,0.82829029,0.2528542,1.5718983,-16.37084)" gradientUnits="userSpaceOnUse"/>
  </defs>
  <circle style="opacity:1;fill:url(#pref_13linearGradient6924);fill-opacity:1;stroke:#cecece;stroke-width:0.05;stroke-miterlimit:4;stroke-dasharray:none;stroke-opacity:1" id="pref_13path6642" cx="0.75" cy="0.75" r="3.5"/>
  <circle style="fill:url(#pref_13radialGradient3160);fill-opacity:1;stroke-width:0.0358194" id="pref_13path1030-6" cx="0.75" cy="0.75" r="2.6500001"/>
  <circle style="opacity:1;fill:url(#pref_13linearGradient3694);fill-opacity:1;stroke-width:0.033792" id="pref_13path1030" cx="0.75" cy="0.75" r="2.5"/>
  <circle style="fill:url(#pref_13radialGradient8763);fill-opacity:1;stroke-width:0.034;stroke-miterlimit:4;stroke-dasharray:none" id="pref_13path1030-7" cx="0.75" cy="0.75" r="2.5"/>
  <path xmlns:sodipodi="http://sodipodi.sourceforge.net/DTD/sodipodi-0.dtd" sodipodi:type="star" style="opacity:1;fill:#b6b6b6;fill-opacity:1;stroke:url(#pref_13linearGradient5760);stroke-width:0.398303;stroke-miterlimit:4;stroke-dasharray:none;stroke-opacity:1" id="pref_13path1288-3" sodipodi:sides="6" sodipodi:cx="-9.9017067" sodipodi:cy="-10.789671" sodipodi:r1="5.7490053" sodipodi:r2="4.9787846" sodipodi:arg1="1.0471976" sodipodi:arg2="1.5707963" transform="matrix(0.24392497,0.05945068,-0.05945068,0.24392497,2.5238203,3.9705334)" d="m -7.0272043,-5.8108862 -5.7490057,-2e-7 -2.874502,-4.9787846 2.874503,-4.978785 5.7490052,1e-6 2.8745024,4.978784 z"/>
  <path xmlns:sodipodi="http://sodipodi.sourceforge.net/DTD/sodipodi-0.dtd" sodipodi:type="star" style="opacity:1;fill:url(#pref_13radialGradient10338);fill-opacity:1;stroke:none;stroke-width:0.398303;stroke-miterlimit:4;stroke-dasharray:none;stroke-opacity:1" id="pref_13path1288-3-6" sodipodi:sides="6" sodipodi:cx="-9.9017067" sodipodi:cy="-10.789671" sodipodi:r1="5.7490053" sodipodi:r2="4.9787846" sodipodi:arg1="1.0471976" sodipodi:arg2="1.5707963" transform="matrix(0.24487282,0.0596817,-0.0596817,0.24487282,2.5307131,3.9830479)" d="m -7.0272043,-5.8108862 -5.7490057,-2e-7 -2.874502,-4.9787846 2.874503,-4.978785 5.7490052,1e-6 2.8745024,4.978784 z"/>
</g></g><!--Mlab_Mechanical:MountingHole_3mm:M1--><g transform="translate(137.16 76.2) scale(1.0, 1.0) rotate(-0.0) translate(-0.75 -0.75)"><g id="pref_12_Mlab_Mechanical__MountingHole_3mm_HOLEM3"><defs xmlns:xlink="http://www.w3.org/1999/xlink" id="pref_14defs13">
    <linearGradient id="pref_14linearGradient13300">
      <stop style="stop-color:#e5e5e5;stop-opacity:1;" offset="0" id="pref_14stop13298"/>
    </linearGradient>
    <linearGradient id="pref_14linearGradient10336">
      <stop style="stop-color:#cfcfcf;stop-opacity:1" offset="0" id="pref_14stop10332"/>
      <stop style="stop-color:#cdcdcd;stop-opacity:0" offset="1" id="pref_14stop10334"/>
    </linearGradient>
    <linearGradient id="pref_14linearGradient9067">
      <stop style="stop-color:#d3d3d3;stop-opacity:1;" offset="0" id="pref_14stop9051"/>
      <stop style="stop-color:#c8c8c8;stop-opacity:1;" offset="0.1656336" id="pref_14stop9053"/>
      <stop style="stop-color:#d8d8d8;stop-opacity:0.52030832" offset="0.29162589" id="pref_14stop9055"/>
      <stop style="stop-color:#c6c6c6;stop-opacity:0.51711833" offset="0.38067153" id="pref_14stop9057"/>
      <stop style="stop-color:#bbbbbb;stop-opacity:0.45933419" offset="0.51505035" id="pref_14stop9059"/>
      <stop style="stop-color:#8e8e8e;stop-opacity:0.47450981" offset="0.5970481" id="pref_14stop9061"/>
      <stop style="stop-color:#656565;stop-opacity:0.56470591" offset="0.7681157" id="pref_14stop9063"/>
      <stop style="stop-color:#606060;stop-opacity:0.28235294;" offset="0.95913506" id="pref_14stop9743"/>
      <stop style="stop-color:#b5b5b5;stop-opacity:0.21568628" offset="1" id="pref_14stop9065"/>
    </linearGradient>
    <linearGradient id="pref_14linearGradient3692">
      <stop style="stop-color:#e4e4e4;stop-opacity:1" offset="0" id="pref_14stop6926"/>
      <stop style="stop-color:#e5e5e5;stop-opacity:1" offset="0.1656336" id="pref_14stop6928"/>
      <stop style="stop-color:#f5f5f5;stop-opacity:1" offset="0.29162589" id="pref_14stop6930"/>
      <stop style="stop-color:#c6c6c6;stop-opacity:1;" offset="0.38067153" id="pref_14stop6932"/>
      <stop style="stop-color:#dddddd;stop-opacity:1" offset="0.57577699" id="pref_14stop6934"/>
      <stop style="stop-color:#f2f2f2;stop-opacity:1" offset="0.66836077" id="pref_14stop6936"/>
      <stop style="stop-color:#ebebeb;stop-opacity:1" offset="0.79280978" id="pref_14stop6938"/>
      <stop style="stop-color:#efefef;stop-opacity:1" offset="1" id="pref_14stop6940"/>
    </linearGradient>
    <linearGradient id="pref_14linearGradient5758">
      <stop style="stop-color:#f6f6f6;stop-opacity:0.89019608" offset="0" id="pref_14stop5754"/>
      <stop style="stop-color:#646464;stop-opacity:0.9921568" offset="1" id="pref_14stop5756"/>
    </linearGradient>
    <linearGradient id="pref_14linearGradient3692-7">
      <stop style="stop-color:#d3d3d3;stop-opacity:1;" offset="0" id="pref_14stop3688"/>
      <stop style="stop-color:#c8c8c8;stop-opacity:1;" offset="0.1656336" id="pref_14stop4378"/>
      <stop style="stop-color:#ededed;stop-opacity:1" offset="0.29162589" id="pref_14stop4444"/>
      <stop style="stop-color:#c6c6c6;stop-opacity:1;" offset="0.38067153" id="pref_14stop4376"/>
      <stop style="stop-color:#dbdbdb;stop-opacity:1" offset="0.57577699" id="pref_14stop4308"/>
      <stop style="stop-color:#c8c8c8;stop-opacity:1" offset="0.66836077" id="pref_14stop4242"/>
      <stop style="stop-color:#b8b8b8;stop-opacity:1;" offset="0.79280978" id="pref_14stop4310"/>
      <stop style="stop-color:#aeaeae;stop-opacity:1" offset="1" id="pref_14stop3690"/>
    </linearGradient>
    <linearGradient id="pref_14linearGradient3156">
      <stop style="stop-color:#d3d3d3;stop-opacity:1;" offset="0" id="pref_14stop3152"/>
      <stop style="stop-color:#d3d3d3;stop-opacity:0.89019608;" offset="0.93029171" id="pref_14stop3290"/>
      <stop style="stop-color:#757575;stop-opacity:1" offset="1" id="pref_14stop3154"/>
    </linearGradient>
    <radialGradient xlink:href="#pref_14linearGradient3156" id="pref_14radialGradient3160" cx="0.75" cy="0.75" fx="0.75" fy="0.75" r="2.75" gradientUnits="userSpaceOnUse" gradientTransform="matrix(0.96363636,0,0,0.96363636,0.02727275,0.02727275)"/>
    <linearGradient xlink:href="#pref_14linearGradient3692-7" id="pref_14linearGradient3694" x1="-0.69187778" y1="-1.1810942" x2="2.8737183" y2="2.1900826" gradientUnits="userSpaceOnUse" gradientTransform="matrix(0.92592591,0,0,0.92592591,0.05555555,0.05555555)"/>
    <linearGradient xlink:href="#pref_14linearGradient5758" id="pref_14linearGradient5760" x1="-15.456677" y1="-15.474042" x2="-4.6413889" y2="-6.7602329" gradientUnits="userSpaceOnUse"/>
    <linearGradient xlink:href="#pref_14linearGradient3692" id="pref_14linearGradient6924" gradientUnits="userSpaceOnUse" x1="1.4987922" y1="4.3924975" x2="-1.0811033" y2="-3.0084407"/>
    <radialGradient xlink:href="#pref_14linearGradient9067" id="pref_14radialGradient8763" cx="0.75" cy="0.75" fx="0.75" fy="0.75" r="2.5" gradientUnits="userSpaceOnUse"/>
    <radialGradient xlink:href="#pref_14linearGradient10336" id="pref_14radialGradient10338" cx="-9.3072596" cy="-12.247526" fx="-9.3072596" fy="-12.247526" r="5.7490053" gradientTransform="matrix(0.25618062,-0.83918687,0.82829029,0.2528542,1.5718983,-16.37084)" gradientUnits="userSpaceOnUse"/>
  </defs>
  <circle style="opacity:1;fill:url(#pref_14linearGradient6924);fill-opacity:1;stroke:#cecece;stroke-width:0.05;stroke-miterlimit:4;stroke-dasharray:none;stroke-opacity:1" id="pref_14path6642" cx="0.75" cy="0.75" r="3.5"/>
  <circle style="fill:url(#pref_14radialGradient3160);fill-opacity:1;stroke-width:0.0358194" id="pref_14path1030-6" cx="0.75" cy="0.75" r="2.6500001"/>
  <circle style="opacity:1;fill:url(#pref_14linearGradient3694);fill-opacity:1;stroke-width:0.033792" id="pref_14path1030" cx="0.75" cy="0.75" r="2.5"/>
  <circle style="fill:url(#pref_14radialGradient8763);fill-opacity:1;stroke-width:0.034;stroke-miterlimit:4;stroke-dasharray:none" id="pref_14path1030-7" cx="0.75" cy="0.75" r="2.5"/>
  <path xmlns:sodipodi="http://sodipodi.sourceforge.net/DTD/sodipodi-0.dtd" sodipodi:type="star" style="opacity:1;fill:#b6b6b6;fill-opacity:1;stroke:url(#pref_14linearGradient5760);stroke-width:0.398303;stroke-miterlimit:4;stroke-dasharray:none;stroke-opacity:1" id="pref_14path1288-3" sodipodi:sides="6" sodipodi:cx="-9.9017067" sodipodi:cy="-10.789671" sodipodi:r1="5.7490053" sodipodi:r2="4.9787846" sodipodi:arg1="1.0471976" sodipodi:arg2="1.5707963" transform="matrix(0.24392497,0.05945068,-0.05945068,0.24392497,2.5238203,3.9705334)" d="m -7.0272043,-5.8108862 -5.7490057,-2e-7 -2.874502,-4.9787846 2.874503,-4.978785 5.7490052,1e-6 2.8745024,4.978784 z"/>
  <path xmlns:sodipodi="http://sodipodi.sourceforge.net/DTD/sodipodi-0.dtd" sodipodi:type="star" style="opacity:1;fill:url(#pref_14radialGradient10338);fill-opacity:1;stroke:none;stroke-width:0.398303;stroke-miterlimit:4;stroke-dasharray:none;stroke-opacity:1" id="pref_14path1288-3-6" sodipodi:sides="6" sodipodi:cx="-9.9017067" sodipodi:cy="-10.789671" sodipodi:r1="5.7490053" sodipodi:r2="4.9787846" sodipodi:arg1="1.0471976" sodipodi:arg2="1.5707963" transform="matrix(0.24487282,0.0596817,-0.0596817,0.24487282,2.5307131,3.9830479)" d="m -7.0272043,-5.8108862 -5.7490057,-2e-7 -2.874502,-4.9787846 2.874503,-4.978785 5.7490052,1e-6 2.8745024,4.978784 z"/>
</g></g><!--Mlab_Mechanical:MountingHole_3mm:M3--><g transform="translate(147.32 76.2) scale(1.0, 1.0) rotate(-0.0) translate(-0.75 -0.75)"><use xmlns:xlink="http://www.w3.org/1999/xlink" xlink:href="#pref_12_Mlab_Mechanical__MountingHole_3mm_HOLE"/></g><!--Mlab_Pin_Headers:Straight_2x04:J2--><g transform="translate(147.32 86.36) scale(0.9999998832685189, 1.0000000978471952) rotate(-0.0) translate(-2.5699999 -5.1099997)"><g id="pref_12_Mlab_Pin_Headers__Straight_2x04_HEADER_2x04"><g id="pref_15pin" style="display:inline">
    <rect style="opacity:1;fill:#000000;fill-opacity:1;fill-rule:nonzero;stroke:#141414;stroke-width:1.15387;stroke-linecap:round;stroke-linejoin:bevel;stroke-miterlimit:4;stroke-dasharray:none;stroke-opacity:1" id="pref_15rect4686" width="1.4461316" height="1.4461316" x="0.57693499" y="0.57693422"/>
    <rect y="1.0419546" x="1.0419546" height="0.51612419" width="0.51612419" id="pref_15rect156830" style="opacity:1;fill:#fcf23a;fill-opacity:1;fill-rule:nonzero;stroke:#eb9d02;stroke-width:0.123876;stroke-linecap:round;stroke-linejoin:bevel;stroke-miterlimit:4;stroke-dasharray:none;stroke-opacity:1"/>
  </g>
  <g transform="translate(0,2.5400152)" id="pref_15g13" style="display:inline">
    <rect style="opacity:1;fill:#000000;fill-opacity:1;fill-rule:nonzero;stroke:#141414;stroke-width:1.15387;stroke-linecap:round;stroke-linejoin:bevel;stroke-miterlimit:4;stroke-dasharray:none;stroke-opacity:1" id="pref_15rect9" width="1.4461316" height="1.4461316" x="0.57693499" y="0.57693422"/>
    <rect y="1.0419546" x="1.0419546" height="0.51612419" width="0.51612419" id="pref_15rect11" style="opacity:1;fill:#fcf23a;fill-opacity:1;fill-rule:nonzero;stroke:#eb9d02;stroke-width:0.123876;stroke-linecap:round;stroke-linejoin:bevel;stroke-miterlimit:4;stroke-dasharray:none;stroke-opacity:1"/>
  </g>
  <g transform="translate(0,5.0800152)" id="pref_15g19">
    <rect style="opacity:1;fill:#000000;fill-opacity:1;fill-rule:nonzero;stroke:#141414;stroke-width:1.15387;stroke-linecap:round;stroke-linejoin:bevel;stroke-miterlimit:4;stroke-dasharray:none;stroke-opacity:1" id="pref_15rect15" width="1.4461316" height="1.4461316" x="0.57693499" y="0.57693422"/>
    <rect y="1.0419546" x="1.0419546" height="0.51612419" width="0.51612419" id="pref_15rect17" style="opacity:1;fill:#fcf23a;fill-opacity:1;fill-rule:nonzero;stroke:#eb9d02;stroke-width:0.123876;stroke-linecap:round;stroke-linejoin:bevel;stroke-miterlimit:4;stroke-dasharray:none;stroke-opacity:1"/>
  </g>
  <g transform="translate(0,7.6200152)" id="pref_15g25">
    <rect style="opacity:1;fill:#000000;fill-opacity:1;fill-rule:nonzero;stroke:#141414;stroke-width:1.15387;stroke-linecap:round;stroke-linejoin:bevel;stroke-miterlimit:4;stroke-dasharray:none;stroke-opacity:1" id="pref_15rect21" width="1.4461316" height="1.4461316" x="0.57693499" y="0.57693422"/>
    <rect y="1.0419546" x="1.0419546" height="0.51612419" width="0.51612419" id="pref_15rect23" style="opacity:1;fill:#fcf23a;fill-opacity:1;fill-rule:nonzero;stroke:#eb9d02;stroke-width:0.123876;stroke-linecap:round;stroke-linejoin:bevel;stroke-miterlimit:4;stroke-dasharray:none;stroke-opacity:1"/>
  </g>
  <g transform="translate(0,99.060019)" id="pref_15g241" style="display:inline">
    <rect style="display:inline;fill:#000000;fill-opacity:1;fill-rule:nonzero;stroke:#141414;stroke-width:1.15387;stroke-linecap:round;stroke-linejoin:bevel;stroke-miterlimit:4;stroke-dasharray:none;stroke-opacity:1" id="pref_15rect4686-3" width="1.4461316" height="1.4461316" x="3.116935" y="-98.483063"/>
    <rect y="-98.018044" x="3.5819547" height="0.51612419" width="0.51612419" id="pref_15rect156830-6" style="display:inline;fill:#fcf23a;fill-opacity:1;fill-rule:nonzero;stroke:#eb9d02;stroke-width:0.123876;stroke-linecap:round;stroke-linejoin:bevel;stroke-miterlimit:4;stroke-dasharray:none;stroke-opacity:1"/>
    <rect style="display:inline;fill:#000000;fill-opacity:1;fill-rule:nonzero;stroke:#141414;stroke-width:1.15387;stroke-linecap:round;stroke-linejoin:bevel;stroke-miterlimit:4;stroke-dasharray:none;stroke-opacity:1" id="pref_15rect9-5" width="1.4461316" height="1.4461316" x="3.116935" y="-95.943069"/>
    <rect y="-95.478043" x="3.5819547" height="0.51612419" width="0.51612419" id="pref_15rect11-3" style="display:inline;fill:#fcf23a;fill-opacity:1;fill-rule:nonzero;stroke:#eb9d02;stroke-width:0.123876;stroke-linecap:round;stroke-linejoin:bevel;stroke-miterlimit:4;stroke-dasharray:none;stroke-opacity:1"/>
    <rect style="fill:#000000;fill-opacity:1;fill-rule:nonzero;stroke:#141414;stroke-width:1.15387;stroke-linecap:round;stroke-linejoin:bevel;stroke-miterlimit:4;stroke-dasharray:none;stroke-opacity:1" id="pref_15rect15-5" width="1.4461316" height="1.4461316" x="3.116935" y="-93.403069"/>
    <rect y="-92.938042" x="3.5819547" height="0.51612419" width="0.51612419" id="pref_15rect17-6" style="fill:#fcf23a;fill-opacity:1;fill-rule:nonzero;stroke:#eb9d02;stroke-width:0.123876;stroke-linecap:round;stroke-linejoin:bevel;stroke-miterlimit:4;stroke-dasharray:none;stroke-opacity:1"/>
    <rect style="fill:#000000;fill-opacity:1;fill-rule:nonzero;stroke:#141414;stroke-width:1.15387;stroke-linecap:round;stroke-linejoin:bevel;stroke-miterlimit:4;stroke-dasharray:none;stroke-opacity:1" id="pref_15rect21-2" width="1.4461316" height="1.4461316" x="3.116935" y="-90.863068"/>
    <rect y="-90.398048" x="3.5819547" height="0.51612419" width="0.51612419" id="pref_15rect23-9" style="fill:#fcf23a;fill-opacity:1;fill-rule:nonzero;stroke:#eb9d02;stroke-width:0.123876;stroke-linecap:round;stroke-linejoin:bevel;stroke-miterlimit:4;stroke-dasharray:none;stroke-opacity:1"/>
  </g>
  </g></g><!--Mlab_Mechanical:MountingHole_3mm:M2--><g transform="translate(137.16 96.52) scale(1.0, 1.0) rotate(-0.0) translate(-0.75 -0.75)"><use xmlns:xlink="http://www.w3.org/1999/xlink" xlink:href="#pref_12_Mlab_Mechanical__MountingHole_3mm_HOLEM3"/></g><!--Capacitor_SMD:C_0805_2012Metric.back:C1--><!--Capacitor_SMD:C_0805_2012Metric.back:C2--></g></svg>