<!DOCTYPE svg PUBLIC "-//W3C//DTD SVG 1.1//EN" "http://www.w3.org/Graphics/SVG/1.1/DTD/svg11.dtd">
<svg xmlns="http://www.w3.org/2000/svg" version="1.1" width="29.938999mm" height="40.099mm" viewBox="127.2705 66.3105 29.938999999999993 40.099000000000004">
            <title>Picture generated by PcbDraw </title>
            <desc>Picture generated by PcbDraw</desc>
        <defs><clipPath id="cut-off"><path d=" M 132.334 101.346 L 132.334 71.374 L 152.146 71.374 L 152.146 101.346 L 132.334 101.346 " style="fill-rule: evenodd;"/></clipPath><mask id="pads-mask"><g style="fill:#ffffff; fill-opacity:0.0;  stroke:#ffffff; stroke-width:0.0000; stroke-opacity:1;  stroke-linecap:round; stroke-linejoin:round;">
<g style="fill:#ffffff; fill-opacity:1.0000;  stroke:#ffffff; stroke-width:0.0000; stroke-opacity:1;  stroke-linecap:round; stroke-linejoin:round;">
<circle cx="147.3200" cy="96.5200" r="3.0000"/> 
</g>
<g style="fill:#ffffff; fill-opacity:1.0000;  stroke:#ffffff; stroke-width:0.0000; stroke-opacity:1;  stroke-linecap:round; stroke-linejoin:round;">
<circle cx="137.1600" cy="76.2000" r="3.0000"/> 
</g>
<g style="fill:#ffffff; fill-opacity:1.0000;  stroke:#ffffff; stroke-width:0.0000; stroke-opacity:1;  stroke-linecap:round; stroke-linejoin:round;">
<circle cx="147.3200" cy="76.2000" r="3.0000"/> 
</g>
<g style="fill:#ffffff; fill-opacity:1.0000;  stroke:#ffffff; stroke-width:0.0000; stroke-opacity:1;  stroke-linecap:round; stroke-linejoin:round;">
<path style="fill:#ffffff; fill-opacity:1.0000;  stroke:#ffffff; stroke-width:0.0000; stroke-opacity:1;  stroke-linecap:round; stroke-linejoin:round;fill-rule:evenodd;" d="M 144.6380,83.3120 144.6380,81.7880 146.1620,81.7880 146.1620,83.3120 Z"/> 
<path style="fill:#ffffff; fill-opacity:1.0000;  stroke:#ffffff; stroke-width:0.0000; stroke-opacity:1;  stroke-linecap:round; stroke-linejoin:round;fill-rule:evenodd;" d="M 147.1780,83.3120 147.1780,81.7880 148.7020,81.7880 148.7020,83.3120 Z"/> 
<path style="fill:#ffffff; fill-opacity:1.0000;  stroke:#ffffff; stroke-width:0.0000; stroke-opacity:1;  stroke-linecap:round; stroke-linejoin:round;fill-rule:evenodd;" d="M 144.6380,85.8520 144.6380,84.3280 146.1620,84.3280 146.1620,85.8520 Z"/> 
<path style="fill:#ffffff; fill-opacity:1.0000;  stroke:#ffffff; stroke-width:0.0000; stroke-opacity:1;  stroke-linecap:round; stroke-linejoin:round;fill-rule:evenodd;" d="M 147.1780,85.8520 147.1780,84.3280 148.7020,84.3280 148.7020,85.8520 Z"/> 
<path style="fill:#ffffff; fill-opacity:1.0000;  stroke:#ffffff; stroke-width:0.0000; stroke-opacity:1;  stroke-linecap:round; stroke-linejoin:round;fill-rule:evenodd;" d="M 144.6380,88.3920 144.6380,86.8680 146.1620,86.8680 146.1620,88.3920 Z"/> 
<path style="fill:#ffffff; fill-opacity:1.0000;  stroke:#ffffff; stroke-width:0.0000; stroke-opacity:1;  stroke-linecap:round; stroke-linejoin:round;fill-rule:evenodd;" d="M 147.1780,88.3920 147.1780,86.8680 148.7020,86.8680 148.7020,88.3920 Z"/> 
<path style="fill:#ffffff; fill-opacity:1.0000;  stroke:#ffffff; stroke-width:0.0000; stroke-opacity:1;  stroke-linecap:round; stroke-linejoin:round;fill-rule:evenodd;" d="M 144.6380,90.9320 144.6380,89.4080 146.1620,89.4080 146.1620,90.9320 Z"/> 
<path style="fill:#ffffff; fill-opacity:1.0000;  stroke:#ffffff; stroke-width:0.0000; stroke-opacity:1;  stroke-linecap:round; stroke-linejoin:round;fill-rule:evenodd;" d="M 147.1780,90.9320 147.1780,89.4080 148.7020,89.4080 148.7020,90.9320 Z"/> 
</g>
<g style="fill:#ffffff; fill-opacity:1.0000;  stroke:#ffffff; stroke-width:0.0000; stroke-opacity:1;  stroke-linecap:round; stroke-linejoin:round;">
<circle cx="137.1600" cy="96.5200" r="3.0000"/> 
</g>
</g> 
</mask><mask id="pads-mask-silkscreen"><rect x="132.2705" y="71.3105" width="19.939" height="30.099" fill="white"/><g style="fill:#000000; fill-opacity:0.0;  stroke:#000000; stroke-width:0.0000; stroke-opacity:1;  stroke-linecap:round; stroke-linejoin:round;">
<g style="fill:#000000; fill-opacity:1.0000;  stroke:#000000; stroke-width:0.0000; stroke-opacity:1;  stroke-linecap:round; stroke-linejoin:round;">
<circle cx="147.3200" cy="96.5200" r="3.0000"/> 
</g>
<g style="fill:#000000; fill-opacity:1.0000;  stroke:#000000; stroke-width:0.0000; stroke-opacity:1;  stroke-linecap:round; stroke-linejoin:round;">
<circle cx="137.1600" cy="76.2000" r="3.0000"/> 
</g>
<g style="fill:#000000; fill-opacity:1.0000;  stroke:#000000; stroke-width:0.0000; stroke-opacity:1;  stroke-linecap:round; stroke-linejoin:round;">
<circle cx="147.3200" cy="76.2000" r="3.0000"/> 
</g>
<g style="fill:#000000; fill-opacity:1.0000;  stroke:#000000; stroke-width:0.0000; stroke-opacity:1;  stroke-linecap:round; stroke-linejoin:round;">
<path style="fill:#000000; fill-opacity:1.0000;  stroke:#000000; stroke-width:0.0000; stroke-opacity:1;  stroke-linecap:round; stroke-linejoin:round;fill-rule:evenodd;" d="M 144.6380,83.3120 144.6380,81.7880 146.1620,81.7880 146.1620,83.3120 Z"/> 
<path style="fill:#000000; fill-opacity:1.0000;  stroke:#000000; stroke-width:0.0000; stroke-opacity:1;  stroke-linecap:round; stroke-linejoin:round;fill-rule:evenodd;" d="M 147.1780,83.3120 147.1780,81.7880 148.7020,81.7880 148.7020,83.3120 Z"/> 
<path style="fill:#000000; fill-opacity:1.0000;  stroke:#000000; stroke-width:0.0000; stroke-opacity:1;  stroke-linecap:round; stroke-linejoin:round;fill-rule:evenodd;" d="M 144.6380,85.8520 144.6380,84.3280 146.1620,84.3280 146.1620,85.8520 Z"/> 
<path style="fill:#000000; fill-opacity:1.0000;  stroke:#000000; stroke-width:0.0000; stroke-opacity:1;  stroke-linecap:round; stroke-linejoin:round;fill-rule:evenodd;" d="M 147.1780,85.8520 147.1780,84.3280 148.7020,84.3280 148.7020,85.8520 Z"/> 
<path style="fill:#000000; fill-opacity:1.0000;  stroke:#000000; stroke-width:0.0000; stroke-opacity:1;  stroke-linecap:round; stroke-linejoin:round;fill-rule:evenodd;" d="M 144.6380,88.3920 144.6380,86.8680 146.1620,86.8680 146.1620,88.3920 Z"/> 
<path style="fill:#000000; fill-opacity:1.0000;  stroke:#000000; stroke-width:0.0000; stroke-opacity:1;  stroke-linecap:round; stroke-linejoin:round;fill-rule:evenodd;" d="M 147.1780,88.3920 147.1780,86.8680 148.7020,86.8680 148.7020,88.3920 Z"/> 
<path style="fill:#000000; fill-opacity:1.0000;  stroke:#000000; stroke-width:0.0000; stroke-opacity:1;  stroke-linecap:round; stroke-linejoin:round;fill-rule:evenodd;" d="M 144.6380,90.9320 144.6380,89.4080 146.1620,89.4080 146.1620,90.9320 Z"/> 
<path style="fill:#000000; fill-opacity:1.0000;  stroke:#000000; stroke-width:0.0000; stroke-opacity:1;  stroke-linecap:round; stroke-linejoin:round;fill-rule:evenodd;" d="M 147.1780,90.9320 147.1780,89.4080 148.7020,89.4080 148.7020,90.9320 Z"/> 
</g>
<g style="fill:#000000; fill-opacity:1.0000;  stroke:#000000; stroke-width:0.0000; stroke-opacity:1;  stroke-linecap:round; stroke-linejoin:round;">
<circle cx="137.1600" cy="96.5200" r="3.0000"/> 
</g>
</g> 
</mask><mask id="hole-mask"><g><rect x="132.2705" y="71.3105" fill="white" width="19.939" height="30.099"/><polyline stroke-linecap="round" stroke="black" stroke-width="3.0" points="-0.0 0 0.0 0" transform="translate(147.32 96.52) rotate(-0.0)"/><polyline stroke-linecap="round" stroke="black" stroke-width="3.0" points="-0.0 0 0.0 0" transform="translate(137.16 76.2) rotate(-0.0)"/><polyline stroke-linecap="round" stroke="black" stroke-width="3.0" points="-0.0 0 0.0 0" transform="translate(147.32 76.2) rotate(-0.0)"/><polyline stroke-linecap="round" stroke="black" stroke-width="0.889" points="-0.0 0 0.0 0" transform="translate(145.4 82.55) rotate(-0.0)"/><polyline stroke-linecap="round" stroke="black" stroke-width="0.889" points="-0.0 0 0.0 0" transform="translate(147.94 82.55) rotate(-0.0)"/><polyline stroke-linecap="round" stroke="black" stroke-width="0.889" points="-0.0 0 0.0 0" transform="translate(145.4 85.09) rotate(-0.0)"/><polyline stroke-linecap="round" stroke="black" stroke-width="0.889" points="-0.0 0 0.0 0" transform="translate(147.94 85.09) rotate(-0.0)"/><polyline stroke-linecap="round" stroke="black" stroke-width="0.889" points="-0.0 0 0.0 0" transform="translate(145.4 87.63) rotate(-0.0)"/><polyline stroke-linecap="round" stroke="black" stroke-width="0.889" points="-0.0 0 0.0 0" transform="translate(147.94 87.63) rotate(-0.0)"/><polyline stroke-linecap="round" stroke="black" stroke-width="0.889" points="-0.0 0 0.0 0" transform="translate(145.4 90.17) rotate(-0.0)"/><polyline stroke-linecap="round" stroke="black" stroke-width="0.889" points="-0.0 0 0.0 0" transform="translate(147.94 90.17) rotate(-0.0)"/><polyline stroke-linecap="round" stroke="black" stroke-width="3.0" points="-0.0 0 0.0 0" transform="translate(137.16 96.52) rotate(-0.0)"/><polyline stroke-linecap="round" stroke="black" stroke-width="0.4" points="-0.0 0 0.0 0" transform="translate(138.176 91.44) rotate(-0.0)"/><polyline stroke-linecap="round" stroke="black" stroke-width="0.4" points="-0.0 0 0.0 0" transform="translate(133.604 90.1) rotate(-0.0)"/><polyline stroke-linecap="round" stroke="black" stroke-width="0.4" points="-0.0 0 0.0 0" transform="translate(140.8 85.7) rotate(-0.0)"/><polyline stroke-linecap="round" stroke="black" stroke-width="0.4" points="-0.0 0 0.0 0" transform="translate(141.478 94.742) rotate(-0.0)"/><polyline stroke-linecap="round" stroke="black" stroke-width="0.4" points="-0.0 0 0.0 0" transform="translate(142.748 94.742) rotate(-0.0)"/><polyline stroke-linecap="round" stroke="black" stroke-width="0.4" points="-0.0 0 0.0 0" transform="translate(138.176 90.424) rotate(-0.0)"/><polyline stroke-linecap="round" stroke="black" stroke-width="0.4" points="-0.0 0 0.0 0" transform="translate(133.0 86.4) rotate(-0.0)"/><polyline stroke-linecap="round" stroke="black" stroke-width="0.4" points="-0.0 0 0.0 0" transform="translate(139.7 92.71) rotate(-0.0)"/><polyline stroke-linecap="round" stroke="black" stroke-width="0.4" points="-0.0 0 0.0 0" transform="translate(140.9 87.63) rotate(-0.0)"/><polyline stroke-linecap="round" stroke="black" stroke-width="0.4" points="-0.0 0 0.0 0" transform="translate(136.8 86.36) rotate(-0.0)"/></g></mask></defs><g transform="" id="boardContainer"><g id="substrate" clip-path="url(#cut-off)" mask="url(#hole-mask)"><g id="substrate-board" style="fill:#f1f4f3; stroke:#f1f4f3;"><path d=" M 132.334 101.346 L 132.334 71.374 L 152.146 71.374 L 152.146 101.346 L 132.334 101.346 " style="fill-rule: evenodd;"/><g style="fill-opacity: 0.0;stroke-width: 0.1270;stroke-opacity: 1;stroke-linecap: round;stroke-linejoin: round">
<path d="M152.1460 101.3460 L132.3340 101.3460 "/>
<path d="M132.3340 71.3740 L132.3340 101.3460 "/>
<path d="M152.1460 71.3740 L152.1460 101.3460 "/>
<path d="M132.3340 71.3740 L152.1460 71.3740 "/>
</g> 
</g><g id="substrate-clad" style="fill:#72786c; stroke:#72786c;"><g style="fill-opacity: 0.0;stroke-width: 0.0000;stroke-opacity: 1;stroke-linecap: round;stroke-linejoin: round">
<g style="fill-opacity: 1.0000;stroke-width: 0.0000;stroke-opacity: 1;stroke-linecap: round;stroke-linejoin: round">
<circle cx="147.3200" cy="96.5200" r="3.0000"/> 
</g>
<g style="fill-opacity: 1.0000;stroke-width: 0.0000;stroke-opacity: 1;stroke-linecap: round;stroke-linejoin: round">
<circle cx="137.1600" cy="76.2000" r="3.0000"/> 
</g>
<g style="fill-opacity: 1.0000;stroke-width: 0.0000;stroke-opacity: 1;stroke-linecap: round;stroke-linejoin: round">
<circle cx="147.3200" cy="76.2000" r="3.0000"/> 
</g>
<g style="fill-opacity: 1.0000;stroke-width: 0.0000;stroke-opacity: 1;stroke-linecap: round;stroke-linejoin: round">
<path style="fill-opacity: 1.0000;stroke-width: 0.0000;stroke-opacity: 1;stroke-linecap: round;stroke-linejoin: round;fill-rule: evenodd" d="M 144.6380,83.3120 144.6380,81.7880 146.1620,81.7880 146.1620,83.3120 Z"/> 
<path style="fill-opacity: 1.0000;stroke-width: 0.0000;stroke-opacity: 1;stroke-linecap: round;stroke-linejoin: round;fill-rule: evenodd" d="M 147.1780,83.3120 147.1780,81.7880 148.7020,81.7880 148.7020,83.3120 Z"/> 
<path style="fill-opacity: 1.0000;stroke-width: 0.0000;stroke-opacity: 1;stroke-linecap: round;stroke-linejoin: round;fill-rule: evenodd" d="M 144.6380,85.8520 144.6380,84.3280 146.1620,84.3280 146.1620,85.8520 Z"/> 
<path style="fill-opacity: 1.0000;stroke-width: 0.0000;stroke-opacity: 1;stroke-linecap: round;stroke-linejoin: round;fill-rule: evenodd" d="M 147.1780,85.8520 147.1780,84.3280 148.7020,84.3280 148.7020,85.8520 Z"/> 
<path style="fill-opacity: 1.0000;stroke-width: 0.0000;stroke-opacity: 1;stroke-linecap: round;stroke-linejoin: round;fill-rule: evenodd" d="M 144.6380,88.3920 144.6380,86.8680 146.1620,86.8680 146.1620,88.3920 Z"/> 
<path style="fill-opacity: 1.0000;stroke-width: 0.0000;stroke-opacity: 1;stroke-linecap: round;stroke-linejoin: round;fill-rule: evenodd" d="M 147.1780,88.3920 147.1780,86.8680 148.7020,86.8680 148.7020,88.3920 Z"/> 
<path style="fill-opacity: 1.0000;stroke-width: 0.0000;stroke-opacity: 1;stroke-linecap: round;stroke-linejoin: round;fill-rule: evenodd" d="M 144.6380,90.9320 144.6380,89.4080 146.1620,89.4080 146.1620,90.9320 Z"/> 
<path style="fill-opacity: 1.0000;stroke-width: 0.0000;stroke-opacity: 1;stroke-linecap: round;stroke-linejoin: round;fill-rule: evenodd" d="M 147.1780,90.9320 147.1780,89.4080 148.7020,89.4080 148.7020,90.9320 Z"/> 
</g>
<g style="fill-opacity: 1.0000;stroke-width: 0.0000;stroke-opacity: 1;stroke-linecap: round;stroke-linejoin: round">
<circle cx="137.1600" cy="96.5200" r="3.0000"/> 
</g>
</g> 
</g><g id="substrate-copper" style="fill:#f8f8f7; stroke:#f8f8f7;"><g style="fill-opacity: 0.0;stroke-width: 0.0000;stroke-opacity: 1;stroke-linecap: round;stroke-linejoin: round">
<g style="fill-opacity: 1.0000;stroke-width: 0.0000;stroke-opacity: 1;stroke-linecap: round;stroke-linejoin: round">
<circle cx="147.3200" cy="96.5200" r="3.0000"/> 
</g>
<g style="fill-opacity: 1.0000;stroke-width: 0.0000;stroke-opacity: 1;stroke-linecap: round;stroke-linejoin: round">
<circle cx="137.1600" cy="76.2000" r="3.0000"/> 
</g>
<g style="fill-opacity: 1.0000;stroke-width: 0.0000;stroke-opacity: 1;stroke-linecap: round;stroke-linejoin: round">
<circle cx="147.3200" cy="76.2000" r="3.0000"/> 
</g>
<g style="fill-opacity: 1.0000;stroke-width: 0.0000;stroke-opacity: 1;stroke-linecap: round;stroke-linejoin: round">
<path style="fill-opacity: 1.0000;stroke-width: 0.0000;stroke-opacity: 1;stroke-linecap: round;stroke-linejoin: round;fill-rule: evenodd" d="M 144.6380,83.3120 144.6380,81.7880 146.1620,81.7880 146.1620,83.3120 Z"/> 
<path style="fill-opacity: 1.0000;stroke-width: 0.0000;stroke-opacity: 1;stroke-linecap: round;stroke-linejoin: round;fill-rule: evenodd" d="M 147.1780,83.3120 147.1780,81.7880 148.7020,81.7880 148.7020,83.3120 Z"/> 
<path style="fill-opacity: 1.0000;stroke-width: 0.0000;stroke-opacity: 1;stroke-linecap: round;stroke-linejoin: round;fill-rule: evenodd" d="M 144.6380,85.8520 144.6380,84.3280 146.1620,84.3280 146.1620,85.8520 Z"/> 
<path style="fill-opacity: 1.0000;stroke-width: 0.0000;stroke-opacity: 1;stroke-linecap: round;stroke-linejoin: round;fill-rule: evenodd" d="M 147.1780,85.8520 147.1780,84.3280 148.7020,84.3280 148.7020,85.8520 Z"/> 
<path style="fill-opacity: 1.0000;stroke-width: 0.0000;stroke-opacity: 1;stroke-linecap: round;stroke-linejoin: round;fill-rule: evenodd" d="M 144.6380,88.3920 144.6380,86.8680 146.1620,86.8680 146.1620,88.3920 Z"/> 
<path style="fill-opacity: 1.0000;stroke-width: 0.0000;stroke-opacity: 1;stroke-linecap: round;stroke-linejoin: round;fill-rule: evenodd" d="M 147.1780,88.3920 147.1780,86.8680 148.7020,86.8680 148.7020,88.3920 Z"/> 
<path style="fill-opacity: 1.0000;stroke-width: 0.0000;stroke-opacity: 1;stroke-linecap: round;stroke-linejoin: round;fill-rule: evenodd" d="M 144.6380,90.9320 144.6380,89.4080 146.1620,89.4080 146.1620,90.9320 Z"/> 
<path style="fill-opacity: 1.0000;stroke-width: 0.0000;stroke-opacity: 1;stroke-linecap: round;stroke-linejoin: round;fill-rule: evenodd" d="M 147.1780,90.9320 147.1780,89.4080 148.7020,89.4080 148.7020,90.9320 Z"/> 
</g>
<g style="fill-opacity: 1.0000;stroke-width: 0.0000;stroke-opacity: 1;stroke-linecap: round;stroke-linejoin: round">
<circle cx="137.1600" cy="96.5200" r="3.0000"/> 
</g>
<g style="fill-opacity: 1.0000;stroke-width: 0.0000;stroke-opacity: 1;stroke-linecap: round;stroke-linejoin: round">
<circle cx="138.1760" cy="91.4400" r="0.4000"/> 
</g>
<g style="fill-opacity: 1.0000;stroke-width: 0.0000;stroke-opacity: 1;stroke-linecap: round;stroke-linejoin: round">
<circle cx="133.6040" cy="90.1000" r="0.4000"/> 
</g>
<g style="fill-opacity: 1.0000;stroke-width: 0.0000;stroke-opacity: 1;stroke-linecap: round;stroke-linejoin: round">
<circle cx="140.8000" cy="85.7000" r="0.4000"/> 
</g>
<g style="fill-opacity: 1.0000;stroke-width: 0.0000;stroke-opacity: 1;stroke-linecap: round;stroke-linejoin: round">
<circle cx="141.4780" cy="94.7420" r="0.4000"/> 
</g>
<g style="fill-opacity: 1.0000;stroke-width: 0.0000;stroke-opacity: 1;stroke-linecap: round;stroke-linejoin: round">
<circle cx="142.7480" cy="94.7420" r="0.4000"/> 
</g>
<g style="fill-opacity: 1.0000;stroke-width: 0.0000;stroke-opacity: 1;stroke-linecap: round;stroke-linejoin: round">
<circle cx="138.1760" cy="90.4240" r="0.4000"/> 
</g>
<g style="fill-opacity: 1.0000;stroke-width: 0.0000;stroke-opacity: 1;stroke-linecap: round;stroke-linejoin: round">
<circle cx="133.0000" cy="86.4000" r="0.4000"/> 
</g>
<g style="fill-opacity: 1.0000;stroke-width: 0.0000;stroke-opacity: 1;stroke-linecap: round;stroke-linejoin: round">
<circle cx="139.7000" cy="92.7100" r="0.4000"/> 
</g>
<g style="fill-opacity: 1.0000;stroke-width: 0.0000;stroke-opacity: 1;stroke-linecap: round;stroke-linejoin: round">
<circle cx="140.9000" cy="87.6300" r="0.4000"/> 
</g>
<g style="fill-opacity: 1.0000;stroke-width: 0.0000;stroke-opacity: 1;stroke-linecap: round;stroke-linejoin: round">
<circle cx="136.8000" cy="86.3600" r="0.4000"/> 
</g>
<g style="fill-opacity: 0.0;stroke-width: 0.3048;stroke-opacity: 1;stroke-linecap: round;stroke-linejoin: round">
<path d="M145.4000 87.6300 L140.9000 87.6300 "/>
<path d="M136.8000 86.3600 L136.8000 87.3000 "/>
<path d="M136.8000 87.3000 L139.6700 90.1700 "/>
<path d="M139.6700 90.1700 L145.4000 90.1700 "/>
</g>
<g style="fill-opacity: 0.0;stroke-width: 0.3048;stroke-opacity: 1;stroke-linecap: round;stroke-linejoin: round">
<g style="fill-opacity: 1.0000;stroke-width: 0.0000;stroke-opacity: 1;stroke-linecap: round;stroke-linejoin: round">
<path style="fill-opacity: 1.0000;stroke-width: 0.0000;stroke-opacity: 1;stroke-linecap: round;stroke-linejoin: round;fill-rule: evenodd" d="M 152.1047,71.3934 152.1407,71.4429 152.1455,71.4735 152.1455,101.2465 152.1266,101.3047 152.0771,101.3407 152.0465,101.3455 132.4335,101.3455 132.3753,101.3266 132.3393,101.2771 132.3345,101.2465 132.3345,86.3600 136.0944,86.3600 136.1149,86.5289 136.1752,86.6879 136.2718,86.8279 136.3137,86.8651 136.3448,86.9178 136.3471,86.9392 136.3471,87.2718 136.3468,87.2773 136.3440,87.3021 136.3423,87.3171 136.3534,87.3759 136.3563,87.3949 136.3623,87.4350 136.3645,87.4421 136.3641,87.4422 136.3648,87.4444 136.3652,87.4443 136.3677,87.4513 136.3677,87.4513 136.3677,87.4513 136.3677,87.4513 136.3956,87.5041 136.4216,87.5580 136.4257,87.5641 136.4254,87.5644 136.4267,87.5663 136.4271,87.5660 136.4315,87.5720 136.4738,87.6143 136.4884,87.6300 136.5144,87.6581 136.5144,87.6581 136.5144,87.6581 136.5202,87.6627 136.5200,87.6631 136.5311,87.6716 139.3298,90.4703 139.3335,90.4744 139.3585,90.5058 139.4079,90.5394 139.4560,90.5749 139.4560,90.5749 139.4625,90.5784 139.4623,90.5788 139.4644,90.5798 139.4646,90.5794 139.4713,90.5827 139.5157,90.5964 139.5284,90.6003 139.5848,90.6200 139.5849,90.6200 139.5921,90.6214 139.5921,90.6218 139.5943,90.6222 139.5944,90.6218 139.6017,90.6229 139.6615,90.6229 139.7213,90.6251 139.7213,90.6251 139.7287,90.6243 139.7287,90.6247 139.7427,90.6229 144.2385,90.6229 144.2967,90.6418 144.3327,90.6913 144.3375,90.7219 144.3375,90.9769 144.3404,91.0020 144.3658,91.0594 144.3858,91.1048 144.4652,91.1842 144.5680,91.2296 144.5931,91.2325 146.2069,91.2325 146.2320,91.2296 146.3348,91.1842 146.4142,91.1048 146.4596,91.0020 146.4625,90.9769 146.4625,89.9160 146.8780,89.9160 146.8780,89.9160 147.4179,89.9160 147.4761,89.9349 147.5121,89.9844 147.5144,90.0370 147.4917,90.1364 147.4917,90.1364 147.5017,90.2700 147.5017,90.2700 147.5091,90.2888 147.5128,90.3499 147.4798,90.4015 147.4229,90.4238 147.4170,90.4240 146.8780,90.4240 146.8780,90.4240 146.8780,90.9768 146.8809,91.0019 146.9262,91.1045 147.0055,91.1838 147.1081,91.2291 147.1332,91.2320 147.6860,91.2320 147.6860,91.2320 147.6860,90.6910 147.7049,90.6328 147.7544,90.5968 147.8142,90.5964 147.8730,90.6145 147.8730,90.6145 147.9733,90.6145 147.9733,90.6145 147.9968,90.6110 148.0798,90.5984 148.0803,90.6018 148.1269,90.6025 148.1759,90.6391 148.1940,90.6962 148.1940,91.2320 148.1940,91.2320 148.7468,91.2320 148.7468,91.2320 148.7719,91.2291 148.8745,91.1838 148.9538,91.1045 148.9991,91.0019 149.0020,90.9768 149.0020,90.9768 149.0020,90.4240 148.4621,90.4240 148.4039,90.4051 148.3679,90.3556 148.3656,90.3030 148.3883,90.2036 148.3783,90.0700 148.3709,90.0512 148.3672,89.9901 148.4002,89.9385 148.4571,89.9162 148.4630,89.9160 149.0020,89.9160 149.0020,89.9160 149.0020,89.3632 149.0020,89.3632 148.9991,89.3381 148.9538,89.2355 148.8745,89.1562 148.7719,89.1109 148.7468,89.1080 148.1940,89.1080 148.1940,89.1080 148.1940,89.6490 148.1751,89.7072 148.1256,89.7432 148.0658,89.7436 148.0070,89.7255 147.9067,89.7255 147.9067,89.7255 147.8002,89.7416 147.7997,89.7382 147.7529,89.7374 147.7040,89.7007 147.6860,89.6438 147.6860,89.1080 147.6860,89.1080 147.1332,89.1080 147.1332,89.1080 147.1081,89.1109 147.0055,89.1562 146.9262,89.2355 146.8809,89.3381 146.8780,89.3632 146.8780,89.9160 146.4625,89.9160 146.4625,89.3631 146.4596,89.3380 146.4142,89.2352 146.3348,89.1558 146.2320,89.1104 146.2320,89.1104 146.2320,89.1104 146.2069,89.1075 144.5931,89.1075 144.5931,89.1075 144.5680,89.1104 144.4652,89.1558 144.3858,89.2352 144.3404,89.3380 144.3375,89.3631 144.3375,89.6181 144.3186,89.6763 144.2691,89.7123 144.2385,89.7171 139.8986,89.7171 139.8404,89.6982 139.8286,89.6881 137.7705,87.6300 140.1944,87.6300 140.2149,87.7989 140.2752,87.9579 140.3718,88.0979 140.4991,88.2107 140.6498,88.2898 140.8149,88.3305 140.8149,88.3305 140.9851,88.3305 140.9851,88.3305 141.1502,88.2898 141.3009,88.2107 141.4170,88.1078 141.4731,88.0834 141.4827,88.0829 144.2385,88.0829 144.2967,88.1018 144.3327,88.1513 144.3375,88.1819 144.3375,88.4369 144.3404,88.4620 144.3658,88.5194 144.3858,88.5648 144.4652,88.6442 144.5680,88.6896 144.5931,88.6925 146.2069,88.6925 146.2320,88.6896 146.3348,88.6442 146.4142,88.5648 146.4596,88.4620 146.4625,88.4369 146.4625,87.3760 146.8780,87.3760 146.8780,87.3760 147.4179,87.3760 147.4761,87.3949 147.5121,87.4444 147.5144,87.4970 147.4917,87.5964 147.4917,87.5964 147.5017,87.7300 147.5017,87.7300 147.5091,87.7488 147.5128,87.8099 147.4798,87.8615 147.4229,87.8838 147.4170,87.8840 146.8780,87.8840 146.8780,87.8840 146.8780,88.4368 146.8809,88.4619 146.9262,88.5645 147.0055,88.6438 147.1081,88.6891 147.1332,88.6920 147.6860,88.6920 147.6860,88.6920 147.6860,88.1510 147.7049,88.0928 147.7544,88.0568 147.8142,88.0564 147.8730,88.0745 147.8730,88.0745 147.9733,88.0745 147.9733,88.0745 147.9968,88.0710 148.0798,88.0584 148.0803,88.0618 148.1269,88.0625 148.1759,88.0991 148.1940,88.1562 148.1940,88.6920 148.1940,88.6920 148.7468,88.6920 148.7468,88.6920 148.7719,88.6891 148.8745,88.6438 148.9538,88.5645 148.9991,88.4619 149.0020,88.4368 149.0020,88.4368 149.0020,87.8840 148.4621,87.8840 148.4039,87.8651 148.3679,87.8156 148.3656,87.7630 148.3883,87.6636 148.3882,87.6627 148.3808,87.5644 148.3783,87.5300 148.3709,87.5112 148.3672,87.4501 148.4002,87.3985 148.4571,87.3762 148.4630,87.3760 149.0020,87.3760 149.0020,87.3760 149.0020,86.8232 149.0020,86.8232 148.9991,86.7981 148.9538,86.6955 148.8745,86.6162 148.7719,86.5709 148.7468,86.5680 148.1940,86.5680 148.1940,86.5680 148.1940,87.1090 148.1751,87.1672 148.1256,87.2032 148.0658,87.2036 148.0070,87.1855 147.9067,87.1855 147.9067,87.1855 147.8002,87.2016 147.7997,87.1982 147.7529,87.1974 147.7040,87.1607 147.6860,87.1038 147.6860,86.5680 147.6860,86.5680 147.1332,86.5680 147.1332,86.5680 147.1081,86.5709 147.0055,86.6162 146.9262,86.6955 146.8809,86.7981 146.8780,86.8232 146.8780,87.3760 146.4625,87.3760 146.4625,86.8231 146.4596,86.7980 146.4142,86.6952 146.3348,86.6158 146.2320,86.5704 146.2320,86.5704 146.2320,86.5704 146.2069,86.5675 144.5931,86.5675 144.5931,86.5675 144.5680,86.5704 144.4652,86.6158 144.3858,86.6952 144.3404,86.7980 144.3375,86.8231 144.3375,87.0781 144.3186,87.1363 144.2691,87.1723 144.2385,87.1771 141.4827,87.1771 141.4245,87.1582 141.4170,87.1522 141.3009,87.0493 141.3009,87.0493 141.1502,86.9702 141.1502,86.9702 141.1502,86.9702 140.9851,86.9295 140.9851,86.9295 140.8149,86.9295 140.8149,86.9295 140.6498,86.9702 140.4991,87.0493 140.3718,87.1621 140.3718,87.1621 140.3431,87.2036 140.2752,87.3021 140.2186,87.4513 140.2149,87.4611 140.2024,87.5641 140.1944,87.6300 137.7705,87.6300 137.2819,87.1414 137.2541,87.0869 137.2529,87.0714 137.2529,86.9392 137.2718,86.8810 137.2862,86.8651 137.3282,86.8279 137.4248,86.6879 137.4851,86.5289 137.5056,86.3600 137.4851,86.1911 137.4248,86.0321 137.3315,85.8969 144.3375,85.8969 144.3375,85.8969 144.3404,85.9220 144.3658,85.9794 144.3858,86.0248 144.4652,86.1042 144.5680,86.1496 144.5931,86.1525 146.2069,86.1525 146.2320,86.1496 146.3348,86.1042 146.4142,86.0248 146.4596,85.9220 146.4625,85.8969 146.4625,85.8969 146.8775,85.8969 146.8775,85.8969 146.8804,85.9220 146.9058,85.9794 146.9258,86.0248 147.0052,86.1042 147.1080,86.1496 147.1331,86.1525 148.7469,86.1525 148.7720,86.1496 148.8748,86.1042 148.9542,86.0248 148.9996,85.9220 149.0025,85.8969 149.0025,84.2831 148.9996,84.2580 148.9542,84.1552 148.8748,84.0758 148.7720,84.0304 148.7720,84.0304 148.7720,84.0304 148.7469,84.0275 147.1331,84.0275 147.1331,84.0275 147.1080,84.0304 147.0052,84.0758 146.9258,84.1552 146.8804,84.2580 146.8775,84.2831 146.8775,85.8969 146.4625,85.8969 146.4625,84.2831 146.4596,84.2580 146.4142,84.1552 146.3348,84.0758 146.2320,84.0304 146.2320,84.0304 146.2320,84.0304 146.2069,84.0275 144.5931,84.0275 144.5931,84.0275 144.5680,84.0304 144.4652,84.0758 144.3858,84.1552 144.3404,84.2580 144.3375,84.2831 144.3375,85.8969 137.3315,85.8969 137.3282,85.8921 137.2009,85.7793 137.0502,85.7002 137.0502,85.7002 137.0502,85.7002 136.8851,85.6595 136.8851,85.6595 136.7149,85.6595 136.7149,85.6595 136.5498,85.7002 136.3991,85.7793 136.2718,85.8921 136.2718,85.8921 136.1802,86.0248 136.1752,86.0321 136.1149,86.1911 136.0944,86.3600 132.3345,86.3600 132.3345,83.3569 144.3375,83.3569 144.3375,83.3569 144.3404,83.3820 144.3658,83.4394 144.3858,83.4848 144.4652,83.5642 144.5680,83.6096 144.5931,83.6125 146.2069,83.6125 146.2320,83.6096 146.3348,83.5642 146.4142,83.4848 146.4596,83.3820 146.4625,83.3569 146.4625,83.3569 146.8775,83.3569 146.8775,83.3569 146.8804,83.3820 146.9058,83.4394 146.9258,83.4848 147.0052,83.5642 147.1080,83.6096 147.1331,83.6125 148.7469,83.6125 148.7720,83.6096 148.8748,83.5642 148.9542,83.4848 148.9996,83.3820 149.0025,83.3569 149.0025,81.7431 148.9996,81.7180 148.9542,81.6152 148.8748,81.5358 148.7720,81.4904 148.7720,81.4904 148.7720,81.4904 148.7469,81.4875 147.1331,81.4875 147.1331,81.4875 147.1080,81.4904 147.0052,81.5358 146.9258,81.6152 146.8804,81.7180 146.8775,81.7431 146.8775,83.3569 146.4625,83.3569 146.4625,81.7431 146.4596,81.7180 146.4142,81.6152 146.3348,81.5358 146.2320,81.4904 146.2320,81.4904 146.2320,81.4904 146.2069,81.4875 144.5931,81.4875 144.5931,81.4875 144.5680,81.4904 144.4652,81.5358 144.3858,81.6152 144.3404,81.7180 144.3375,81.7431 144.3375,83.3569 132.3345,83.3569 132.3345,71.4735 132.3534,71.4153 132.4029,71.3793 132.4335,71.3745 152.0465,71.3745 Z"/> 
</g>
</g>
</g> 
</g><g id="substrate-pads" style="fill:#c4c1ba; stroke:#c4c1ba;" mask="url(#pads-mask)"><g style="fill-opacity: 0.0;stroke-width: 0.0000;stroke-opacity: 1;stroke-linecap: round;stroke-linejoin: round">
<g style="fill-opacity: 1.0000;stroke-width: 0.0000;stroke-opacity: 1;stroke-linecap: round;stroke-linejoin: round">
<circle cx="147.3200" cy="96.5200" r="3.0000"/> 
</g>
<g style="fill-opacity: 1.0000;stroke-width: 0.0000;stroke-opacity: 1;stroke-linecap: round;stroke-linejoin: round">
<circle cx="137.1600" cy="76.2000" r="3.0000"/> 
</g>
<g style="fill-opacity: 1.0000;stroke-width: 0.0000;stroke-opacity: 1;stroke-linecap: round;stroke-linejoin: round">
<circle cx="147.3200" cy="76.2000" r="3.0000"/> 
</g>
<g style="fill-opacity: 1.0000;stroke-width: 0.0000;stroke-opacity: 1;stroke-linecap: round;stroke-linejoin: round">
<path style="fill-opacity: 1.0000;stroke-width: 0.0000;stroke-opacity: 1;stroke-linecap: round;stroke-linejoin: round;fill-rule: evenodd" d="M 144.6380,83.3120 144.6380,81.7880 146.1620,81.7880 146.1620,83.3120 Z"/> 
<path style="fill-opacity: 1.0000;stroke-width: 0.0000;stroke-opacity: 1;stroke-linecap: round;stroke-linejoin: round;fill-rule: evenodd" d="M 147.1780,83.3120 147.1780,81.7880 148.7020,81.7880 148.7020,83.3120 Z"/> 
<path style="fill-opacity: 1.0000;stroke-width: 0.0000;stroke-opacity: 1;stroke-linecap: round;stroke-linejoin: round;fill-rule: evenodd" d="M 144.6380,85.8520 144.6380,84.3280 146.1620,84.3280 146.1620,85.8520 Z"/> 
<path style="fill-opacity: 1.0000;stroke-width: 0.0000;stroke-opacity: 1;stroke-linecap: round;stroke-linejoin: round;fill-rule: evenodd" d="M 147.1780,85.8520 147.1780,84.3280 148.7020,84.3280 148.7020,85.8520 Z"/> 
<path style="fill-opacity: 1.0000;stroke-width: 0.0000;stroke-opacity: 1;stroke-linecap: round;stroke-linejoin: round;fill-rule: evenodd" d="M 144.6380,88.3920 144.6380,86.8680 146.1620,86.8680 146.1620,88.3920 Z"/> 
<path style="fill-opacity: 1.0000;stroke-width: 0.0000;stroke-opacity: 1;stroke-linecap: round;stroke-linejoin: round;fill-rule: evenodd" d="M 147.1780,88.3920 147.1780,86.8680 148.7020,86.8680 148.7020,88.3920 Z"/> 
<path style="fill-opacity: 1.0000;stroke-width: 0.0000;stroke-opacity: 1;stroke-linecap: round;stroke-linejoin: round;fill-rule: evenodd" d="M 144.6380,90.9320 144.6380,89.4080 146.1620,89.4080 146.1620,90.9320 Z"/> 
<path style="fill-opacity: 1.0000;stroke-width: 0.0000;stroke-opacity: 1;stroke-linecap: round;stroke-linejoin: round;fill-rule: evenodd" d="M 147.1780,90.9320 147.1780,89.4080 148.7020,89.4080 148.7020,90.9320 Z"/> 
</g>
<g style="fill-opacity: 1.0000;stroke-width: 0.0000;stroke-opacity: 1;stroke-linecap: round;stroke-linejoin: round">
<circle cx="137.1600" cy="96.5200" r="3.0000"/> 
</g>
<g style="fill-opacity: 1.0000;stroke-width: 0.0000;stroke-opacity: 1;stroke-linecap: round;stroke-linejoin: round">
<circle cx="138.1760" cy="91.4400" r="0.4000"/> 
</g>
<g style="fill-opacity: 1.0000;stroke-width: 0.0000;stroke-opacity: 1;stroke-linecap: round;stroke-linejoin: round">
<circle cx="133.6040" cy="90.1000" r="0.4000"/> 
</g>
<g style="fill-opacity: 1.0000;stroke-width: 0.0000;stroke-opacity: 1;stroke-linecap: round;stroke-linejoin: round">
<circle cx="140.8000" cy="85.7000" r="0.4000"/> 
</g>
<g style="fill-opacity: 1.0000;stroke-width: 0.0000;stroke-opacity: 1;stroke-linecap: round;stroke-linejoin: round">
<circle cx="141.4780" cy="94.7420" r="0.4000"/> 
</g>
<g style="fill-opacity: 1.0000;stroke-width: 0.0000;stroke-opacity: 1;stroke-linecap: round;stroke-linejoin: round">
<circle cx="142.7480" cy="94.7420" r="0.4000"/> 
</g>
<g style="fill-opacity: 1.0000;stroke-width: 0.0000;stroke-opacity: 1;stroke-linecap: round;stroke-linejoin: round">
<circle cx="138.1760" cy="90.4240" r="0.4000"/> 
</g>
<g style="fill-opacity: 1.0000;stroke-width: 0.0000;stroke-opacity: 1;stroke-linecap: round;stroke-linejoin: round">
<circle cx="133.0000" cy="86.4000" r="0.4000"/> 
</g>
<g style="fill-opacity: 1.0000;stroke-width: 0.0000;stroke-opacity: 1;stroke-linecap: round;stroke-linejoin: round">
<circle cx="139.7000" cy="92.7100" r="0.4000"/> 
</g>
<g style="fill-opacity: 1.0000;stroke-width: 0.0000;stroke-opacity: 1;stroke-linecap: round;stroke-linejoin: round">
<circle cx="140.9000" cy="87.6300" r="0.4000"/> 
</g>
<g style="fill-opacity: 1.0000;stroke-width: 0.0000;stroke-opacity: 1;stroke-linecap: round;stroke-linejoin: round">
<circle cx="136.8000" cy="86.3600" r="0.4000"/> 
</g>
<g style="fill-opacity: 0.0;stroke-width: 0.3048;stroke-opacity: 1;stroke-linecap: round;stroke-linejoin: round">
<path d="M145.4000 87.6300 L140.9000 87.6300 "/>
<path d="M136.8000 86.3600 L136.8000 87.3000 "/>
<path d="M136.8000 87.3000 L139.6700 90.1700 "/>
<path d="M139.6700 90.1700 L145.4000 90.1700 "/>
</g>
<g style="fill-opacity: 0.0;stroke-width: 0.3048;stroke-opacity: 1;stroke-linecap: round;stroke-linejoin: round">
<g style="fill-opacity: 1.0000;stroke-width: 0.0000;stroke-opacity: 1;stroke-linecap: round;stroke-linejoin: round">
<path style="fill-opacity: 1.0000;stroke-width: 0.0000;stroke-opacity: 1;stroke-linecap: round;stroke-linejoin: round;fill-rule: evenodd" d="M 152.1047,71.3934 152.1407,71.4429 152.1455,71.4735 152.1455,101.2465 152.1266,101.3047 152.0771,101.3407 152.0465,101.3455 132.4335,101.3455 132.3753,101.3266 132.3393,101.2771 132.3345,101.2465 132.3345,86.3600 136.0944,86.3600 136.1149,86.5289 136.1752,86.6879 136.2718,86.8279 136.3137,86.8651 136.3448,86.9178 136.3471,86.9392 136.3471,87.2718 136.3468,87.2773 136.3440,87.3021 136.3423,87.3171 136.3534,87.3759 136.3563,87.3949 136.3623,87.4350 136.3645,87.4421 136.3641,87.4422 136.3648,87.4444 136.3652,87.4443 136.3677,87.4513 136.3677,87.4513 136.3677,87.4513 136.3677,87.4513 136.3956,87.5041 136.4216,87.5580 136.4257,87.5641 136.4254,87.5644 136.4267,87.5663 136.4271,87.5660 136.4315,87.5720 136.4738,87.6143 136.4884,87.6300 136.5144,87.6581 136.5144,87.6581 136.5144,87.6581 136.5202,87.6627 136.5200,87.6631 136.5311,87.6716 139.3298,90.4703 139.3335,90.4744 139.3585,90.5058 139.4079,90.5394 139.4560,90.5749 139.4560,90.5749 139.4625,90.5784 139.4623,90.5788 139.4644,90.5798 139.4646,90.5794 139.4713,90.5827 139.5157,90.5964 139.5284,90.6003 139.5848,90.6200 139.5849,90.6200 139.5921,90.6214 139.5921,90.6218 139.5943,90.6222 139.5944,90.6218 139.6017,90.6229 139.6615,90.6229 139.7213,90.6251 139.7213,90.6251 139.7287,90.6243 139.7287,90.6247 139.7427,90.6229 144.2385,90.6229 144.2967,90.6418 144.3327,90.6913 144.3375,90.7219 144.3375,90.9769 144.3404,91.0020 144.3658,91.0594 144.3858,91.1048 144.4652,91.1842 144.5680,91.2296 144.5931,91.2325 146.2069,91.2325 146.2320,91.2296 146.3348,91.1842 146.4142,91.1048 146.4596,91.0020 146.4625,90.9769 146.4625,89.9160 146.8780,89.9160 146.8780,89.9160 147.4179,89.9160 147.4761,89.9349 147.5121,89.9844 147.5144,90.0370 147.4917,90.1364 147.4917,90.1364 147.5017,90.2700 147.5017,90.2700 147.5091,90.2888 147.5128,90.3499 147.4798,90.4015 147.4229,90.4238 147.4170,90.4240 146.8780,90.4240 146.8780,90.4240 146.8780,90.9768 146.8809,91.0019 146.9262,91.1045 147.0055,91.1838 147.1081,91.2291 147.1332,91.2320 147.6860,91.2320 147.6860,91.2320 147.6860,90.6910 147.7049,90.6328 147.7544,90.5968 147.8142,90.5964 147.8730,90.6145 147.8730,90.6145 147.9733,90.6145 147.9733,90.6145 147.9968,90.6110 148.0798,90.5984 148.0803,90.6018 148.1269,90.6025 148.1759,90.6391 148.1940,90.6962 148.1940,91.2320 148.1940,91.2320 148.7468,91.2320 148.7468,91.2320 148.7719,91.2291 148.8745,91.1838 148.9538,91.1045 148.9991,91.0019 149.0020,90.9768 149.0020,90.9768 149.0020,90.4240 148.4621,90.4240 148.4039,90.4051 148.3679,90.3556 148.3656,90.3030 148.3883,90.2036 148.3783,90.0700 148.3709,90.0512 148.3672,89.9901 148.4002,89.9385 148.4571,89.9162 148.4630,89.9160 149.0020,89.9160 149.0020,89.9160 149.0020,89.3632 149.0020,89.3632 148.9991,89.3381 148.9538,89.2355 148.8745,89.1562 148.7719,89.1109 148.7468,89.1080 148.1940,89.1080 148.1940,89.1080 148.1940,89.6490 148.1751,89.7072 148.1256,89.7432 148.0658,89.7436 148.0070,89.7255 147.9067,89.7255 147.9067,89.7255 147.8002,89.7416 147.7997,89.7382 147.7529,89.7374 147.7040,89.7007 147.6860,89.6438 147.6860,89.1080 147.6860,89.1080 147.1332,89.1080 147.1332,89.1080 147.1081,89.1109 147.0055,89.1562 146.9262,89.2355 146.8809,89.3381 146.8780,89.3632 146.8780,89.9160 146.4625,89.9160 146.4625,89.3631 146.4596,89.3380 146.4142,89.2352 146.3348,89.1558 146.2320,89.1104 146.2320,89.1104 146.2320,89.1104 146.2069,89.1075 144.5931,89.1075 144.5931,89.1075 144.5680,89.1104 144.4652,89.1558 144.3858,89.2352 144.3404,89.3380 144.3375,89.3631 144.3375,89.6181 144.3186,89.6763 144.2691,89.7123 144.2385,89.7171 139.8986,89.7171 139.8404,89.6982 139.8286,89.6881 137.7705,87.6300 140.1944,87.6300 140.2149,87.7989 140.2752,87.9579 140.3718,88.0979 140.4991,88.2107 140.6498,88.2898 140.8149,88.3305 140.8149,88.3305 140.9851,88.3305 140.9851,88.3305 141.1502,88.2898 141.3009,88.2107 141.4170,88.1078 141.4731,88.0834 141.4827,88.0829 144.2385,88.0829 144.2967,88.1018 144.3327,88.1513 144.3375,88.1819 144.3375,88.4369 144.3404,88.4620 144.3658,88.5194 144.3858,88.5648 144.4652,88.6442 144.5680,88.6896 144.5931,88.6925 146.2069,88.6925 146.2320,88.6896 146.3348,88.6442 146.4142,88.5648 146.4596,88.4620 146.4625,88.4369 146.4625,87.3760 146.8780,87.3760 146.8780,87.3760 147.4179,87.3760 147.4761,87.3949 147.5121,87.4444 147.5144,87.4970 147.4917,87.5964 147.4917,87.5964 147.5017,87.7300 147.5017,87.7300 147.5091,87.7488 147.5128,87.8099 147.4798,87.8615 147.4229,87.8838 147.4170,87.8840 146.8780,87.8840 146.8780,87.8840 146.8780,88.4368 146.8809,88.4619 146.9262,88.5645 147.0055,88.6438 147.1081,88.6891 147.1332,88.6920 147.6860,88.6920 147.6860,88.6920 147.6860,88.1510 147.7049,88.0928 147.7544,88.0568 147.8142,88.0564 147.8730,88.0745 147.8730,88.0745 147.9733,88.0745 147.9733,88.0745 147.9968,88.0710 148.0798,88.0584 148.0803,88.0618 148.1269,88.0625 148.1759,88.0991 148.1940,88.1562 148.1940,88.6920 148.1940,88.6920 148.7468,88.6920 148.7468,88.6920 148.7719,88.6891 148.8745,88.6438 148.9538,88.5645 148.9991,88.4619 149.0020,88.4368 149.0020,88.4368 149.0020,87.8840 148.4621,87.8840 148.4039,87.8651 148.3679,87.8156 148.3656,87.7630 148.3883,87.6636 148.3882,87.6627 148.3808,87.5644 148.3783,87.5300 148.3709,87.5112 148.3672,87.4501 148.4002,87.3985 148.4571,87.3762 148.4630,87.3760 149.0020,87.3760 149.0020,87.3760 149.0020,86.8232 149.0020,86.8232 148.9991,86.7981 148.9538,86.6955 148.8745,86.6162 148.7719,86.5709 148.7468,86.5680 148.1940,86.5680 148.1940,86.5680 148.1940,87.1090 148.1751,87.1672 148.1256,87.2032 148.0658,87.2036 148.0070,87.1855 147.9067,87.1855 147.9067,87.1855 147.8002,87.2016 147.7997,87.1982 147.7529,87.1974 147.7040,87.1607 147.6860,87.1038 147.6860,86.5680 147.6860,86.5680 147.1332,86.5680 147.1332,86.5680 147.1081,86.5709 147.0055,86.6162 146.9262,86.6955 146.8809,86.7981 146.8780,86.8232 146.8780,87.3760 146.4625,87.3760 146.4625,86.8231 146.4596,86.7980 146.4142,86.6952 146.3348,86.6158 146.2320,86.5704 146.2320,86.5704 146.2320,86.5704 146.2069,86.5675 144.5931,86.5675 144.5931,86.5675 144.5680,86.5704 144.4652,86.6158 144.3858,86.6952 144.3404,86.7980 144.3375,86.8231 144.3375,87.0781 144.3186,87.1363 144.2691,87.1723 144.2385,87.1771 141.4827,87.1771 141.4245,87.1582 141.4170,87.1522 141.3009,87.0493 141.3009,87.0493 141.1502,86.9702 141.1502,86.9702 141.1502,86.9702 140.9851,86.9295 140.9851,86.9295 140.8149,86.9295 140.8149,86.9295 140.6498,86.9702 140.4991,87.0493 140.3718,87.1621 140.3718,87.1621 140.3431,87.2036 140.2752,87.3021 140.2186,87.4513 140.2149,87.4611 140.2024,87.5641 140.1944,87.6300 137.7705,87.6300 137.2819,87.1414 137.2541,87.0869 137.2529,87.0714 137.2529,86.9392 137.2718,86.8810 137.2862,86.8651 137.3282,86.8279 137.4248,86.6879 137.4851,86.5289 137.5056,86.3600 137.4851,86.1911 137.4248,86.0321 137.3315,85.8969 144.3375,85.8969 144.3375,85.8969 144.3404,85.9220 144.3658,85.9794 144.3858,86.0248 144.4652,86.1042 144.5680,86.1496 144.5931,86.1525 146.2069,86.1525 146.2320,86.1496 146.3348,86.1042 146.4142,86.0248 146.4596,85.9220 146.4625,85.8969 146.4625,85.8969 146.8775,85.8969 146.8775,85.8969 146.8804,85.9220 146.9058,85.9794 146.9258,86.0248 147.0052,86.1042 147.1080,86.1496 147.1331,86.1525 148.7469,86.1525 148.7720,86.1496 148.8748,86.1042 148.9542,86.0248 148.9996,85.9220 149.0025,85.8969 149.0025,84.2831 148.9996,84.2580 148.9542,84.1552 148.8748,84.0758 148.7720,84.0304 148.7720,84.0304 148.7720,84.0304 148.7469,84.0275 147.1331,84.0275 147.1331,84.0275 147.1080,84.0304 147.0052,84.0758 146.9258,84.1552 146.8804,84.2580 146.8775,84.2831 146.8775,85.8969 146.4625,85.8969 146.4625,84.2831 146.4596,84.2580 146.4142,84.1552 146.3348,84.0758 146.2320,84.0304 146.2320,84.0304 146.2320,84.0304 146.2069,84.0275 144.5931,84.0275 144.5931,84.0275 144.5680,84.0304 144.4652,84.0758 144.3858,84.1552 144.3404,84.2580 144.3375,84.2831 144.3375,85.8969 137.3315,85.8969 137.3282,85.8921 137.2009,85.7793 137.0502,85.7002 137.0502,85.7002 137.0502,85.7002 136.8851,85.6595 136.8851,85.6595 136.7149,85.6595 136.7149,85.6595 136.5498,85.7002 136.3991,85.7793 136.2718,85.8921 136.2718,85.8921 136.1802,86.0248 136.1752,86.0321 136.1149,86.1911 136.0944,86.3600 132.3345,86.3600 132.3345,83.3569 144.3375,83.3569 144.3375,83.3569 144.3404,83.3820 144.3658,83.4394 144.3858,83.4848 144.4652,83.5642 144.5680,83.6096 144.5931,83.6125 146.2069,83.6125 146.2320,83.6096 146.3348,83.5642 146.4142,83.4848 146.4596,83.3820 146.4625,83.3569 146.4625,83.3569 146.8775,83.3569 146.8775,83.3569 146.8804,83.3820 146.9058,83.4394 146.9258,83.4848 147.0052,83.5642 147.1080,83.6096 147.1331,83.6125 148.7469,83.6125 148.7720,83.6096 148.8748,83.5642 148.9542,83.4848 148.9996,83.3820 149.0025,83.3569 149.0025,81.7431 148.9996,81.7180 148.9542,81.6152 148.8748,81.5358 148.7720,81.4904 148.7720,81.4904 148.7720,81.4904 148.7469,81.4875 147.1331,81.4875 147.1331,81.4875 147.1080,81.4904 147.0052,81.5358 146.9258,81.6152 146.8804,81.7180 146.8775,81.7431 146.8775,83.3569 146.4625,83.3569 146.4625,81.7431 146.4596,81.7180 146.4142,81.6152 146.3348,81.5358 146.2320,81.4904 146.2320,81.4904 146.2320,81.4904 146.2069,81.4875 144.5931,81.4875 144.5931,81.4875 144.5680,81.4904 144.4652,81.5358 144.3858,81.6152 144.3404,81.7180 144.3375,81.7431 144.3375,83.3569 132.3345,83.3569 132.3345,71.4735 132.3534,71.4153 132.4029,71.3793 132.4335,71.3745 152.0465,71.3745 Z"/> 
</g>
</g>
</g> 
</g><g id="substrate-silk" style="fill:#0b1013; stroke:#0b1013;" mask="url(#pads-mask-silkscreen)"><g style="fill-opacity: 0.0;stroke-width: 0.1500;stroke-opacity: 1;stroke-linecap: round;stroke-linejoin: round">
<text x="150.7000" y="82.9500" textLength="2.8414" font-size="1.2000" lengthAdjust="spacingAndGlyphs" text-anchor="middle" opacity="0">VDD</text>
<g class="stroked-text"><desc>VDD</desc>
<path d="M149.5000 82.0086 L149.8000 82.9086 "/>
<path d="M149.8000 82.9086 L150.1000 82.0086 "/>
<path d="M150.4000 82.9086 L150.4000 82.0086 "/>
<path d="M150.4000 82.0086 L150.6143 82.0086 "/>
<path d="M150.6143 82.0086 L150.7429 82.0514 "/>
<path d="M150.7429 82.0514 L150.8286 82.1371 "/>
<path d="M150.8286 82.1371 L150.8714 82.2228 "/>
<path d="M150.8714 82.2228 L150.9143 82.3943 "/>
<path d="M150.9143 82.3943 L150.9143 82.5228 "/>
<path d="M150.9143 82.5228 L150.8714 82.6943 "/>
<path d="M150.8714 82.6943 L150.8286 82.7800 "/>
<path d="M150.8286 82.7800 L150.7429 82.8657 "/>
<path d="M150.7429 82.8657 L150.6143 82.9086 "/>
<path d="M150.6143 82.9086 L150.4000 82.9086 "/>
<path d="M151.3000 82.9086 L151.3000 82.0086 "/>
<path d="M151.3000 82.0086 L151.5143 82.0086 "/>
<path d="M151.5143 82.0086 L151.6429 82.0514 "/>
<path d="M151.6429 82.0514 L151.7286 82.1371 "/>
<path d="M151.7286 82.1371 L151.7714 82.2228 "/>
<path d="M151.7714 82.2228 L151.8143 82.3943 "/>
<path d="M151.8143 82.3943 L151.8143 82.5228 "/>
<path d="M151.8143 82.5228 L151.7714 82.6943 "/>
<path d="M151.7714 82.6943 L151.7286 82.7800 "/>
<path d="M151.7286 82.7800 L151.6429 82.8657 "/>
<path d="M151.6429 82.8657 L151.5143 82.9086 "/>
<path d="M151.5143 82.9086 L151.3000 82.9086 "/>
</g><text x="150.6000" y="88.4500" textLength="3.0129" font-size="1.2000" lengthAdjust="spacingAndGlyphs" text-anchor="middle" opacity="0">GND</text>
<g class="stroked-text"><desc>GND</desc>
<path d="M149.9143 87.5514 L149.8286 87.5086 "/>
<path d="M149.8286 87.5086 L149.7000 87.5086 "/>
<path d="M149.7000 87.5086 L149.5714 87.5514 "/>
<path d="M149.5714 87.5514 L149.4857 87.6371 "/>
<path d="M149.4857 87.6371 L149.4429 87.7228 "/>
<path d="M149.4429 87.7228 L149.4000 87.8943 "/>
<path d="M149.4000 87.8943 L149.4000 88.0228 "/>
<path d="M149.4000 88.0228 L149.4429 88.1943 "/>
<path d="M149.4429 88.1943 L149.4857 88.2800 "/>
<path d="M149.4857 88.2800 L149.5714 88.3657 "/>
<path d="M149.5714 88.3657 L149.7000 88.4086 "/>
<path d="M149.7000 88.4086 L149.7857 88.4086 "/>
<path d="M149.7857 88.4086 L149.9143 88.3657 "/>
<path d="M149.9143 88.3657 L149.9571 88.3228 "/>
<path d="M149.9571 88.3228 L149.9571 88.0228 "/>
<path d="M149.9571 88.0228 L149.7857 88.0228 "/>
<path d="M150.3429 88.4086 L150.3429 87.5086 "/>
<path d="M150.3429 87.5086 L150.8571 88.4086 "/>
<path d="M150.8571 88.4086 L150.8571 87.5086 "/>
<path d="M151.2857 88.4086 L151.2857 87.5086 "/>
<path d="M151.2857 87.5086 L151.5000 87.5086 "/>
<path d="M151.5000 87.5086 L151.6286 87.5514 "/>
<path d="M151.6286 87.5514 L151.7143 87.6371 "/>
<path d="M151.7143 87.6371 L151.7571 87.7228 "/>
<path d="M151.7571 87.7228 L151.8000 87.8943 "/>
<path d="M151.8000 87.8943 L151.8000 88.0228 "/>
<path d="M151.8000 88.0228 L151.7571 88.1943 "/>
<path d="M151.7571 88.1943 L151.7143 88.2800 "/>
<path d="M151.7143 88.2800 L151.6286 88.3657 "/>
<path d="M151.6286 88.3657 L151.5000 88.4086 "/>
<path d="M151.5000 88.4086 L151.2857 88.4086 "/>
</g><text x="142.4000" y="82.9500" textLength="3.5271" font-size="1.2000" lengthAdjust="spacingAndGlyphs" text-anchor="middle" opacity="0">MISO</text>
<g class="stroked-text"><desc>MISO</desc>
<path d="M140.9857 82.9086 L140.9857 82.0086 "/>
<path d="M140.9857 82.0086 L141.2857 82.6514 "/>
<path d="M141.2857 82.6514 L141.5857 82.0086 "/>
<path d="M141.5857 82.0086 L141.5857 82.9086 "/>
<path d="M142.0143 82.9086 L142.0143 82.0086 "/>
<path d="M142.4000 82.8657 L142.5286 82.9086 "/>
<path d="M142.5286 82.9086 L142.7429 82.9086 "/>
<path d="M142.7429 82.9086 L142.8286 82.8657 "/>
<path d="M142.8286 82.8657 L142.8714 82.8228 "/>
<path d="M142.8714 82.8228 L142.9143 82.7371 "/>
<path d="M142.9143 82.7371 L142.9143 82.6514 "/>
<path d="M142.9143 82.6514 L142.8714 82.5657 "/>
<path d="M142.8714 82.5657 L142.8286 82.5228 "/>
<path d="M142.8286 82.5228 L142.7429 82.4800 "/>
<path d="M142.7429 82.4800 L142.5714 82.4371 "/>
<path d="M142.5714 82.4371 L142.4857 82.3943 "/>
<path d="M142.4857 82.3943 L142.4429 82.3514 "/>
<path d="M142.4429 82.3514 L142.4000 82.2657 "/>
<path d="M142.4000 82.2657 L142.4000 82.1800 "/>
<path d="M142.4000 82.1800 L142.4429 82.0943 "/>
<path d="M142.4429 82.0943 L142.4857 82.0514 "/>
<path d="M142.4857 82.0514 L142.5714 82.0086 "/>
<path d="M142.5714 82.0086 L142.7857 82.0086 "/>
<path d="M142.7857 82.0086 L142.9143 82.0514 "/>
<path d="M143.4714 82.0086 L143.6429 82.0086 "/>
<path d="M143.6429 82.0086 L143.7286 82.0514 "/>
<path d="M143.7286 82.0514 L143.8143 82.1371 "/>
<path d="M143.8143 82.1371 L143.8571 82.3086 "/>
<path d="M143.8571 82.3086 L143.8571 82.6086 "/>
<path d="M143.8571 82.6086 L143.8143 82.7800 "/>
<path d="M143.8143 82.7800 L143.7286 82.8657 "/>
<path d="M143.7286 82.8657 L143.6429 82.9086 "/>
<path d="M143.6429 82.9086 L143.4714 82.9086 "/>
<path d="M143.4714 82.9086 L143.3857 82.8657 "/>
<path d="M143.3857 82.8657 L143.3000 82.7800 "/>
<path d="M143.3000 82.7800 L143.2571 82.6086 "/>
<path d="M143.2571 82.6086 L143.2571 82.3086 "/>
<path d="M143.2571 82.3086 L143.3000 82.1371 "/>
<path d="M143.3000 82.1371 L143.3857 82.0514 "/>
<path d="M143.3857 82.0514 L143.4714 82.0086 "/>
</g></g>
<g style="fill-opacity: 0.0;stroke-width: 0.2000;stroke-opacity: 1;stroke-linecap: round;stroke-linejoin: round">
<text x="136.8000" y="84.4500" textLength="7.0190" font-size="1.3333" lengthAdjust="spacingAndGlyphs" text-anchor="middle" opacity="0">FRAM01A</text>
<g class="stroked-text"><desc>FRAM01A</desc>
<path d="M134.0619 83.8784 L133.7286 83.8784 "/>
<path d="M133.7286 84.4022 L133.7286 83.4022 "/>
<path d="M133.7286 83.4022 L134.2048 83.4022 "/>
<path d="M135.1571 84.4022 L134.8238 83.9260 "/>
<path d="M134.5857 84.4022 L134.5857 83.4022 "/>
<path d="M134.5857 83.4022 L134.9667 83.4022 "/>
<path d="M134.9667 83.4022 L135.0619 83.4498 "/>
<path d="M135.0619 83.4498 L135.1095 83.4975 "/>
<path d="M135.1095 83.4975 L135.1571 83.5927 "/>
<path d="M135.1571 83.5927 L135.1571 83.7356 "/>
<path d="M135.1571 83.7356 L135.1095 83.8308 "/>
<path d="M135.1095 83.8308 L135.0619 83.8784 "/>
<path d="M135.0619 83.8784 L134.9667 83.9260 "/>
<path d="M134.9667 83.9260 L134.5857 83.9260 "/>
<path d="M135.5381 84.1165 L136.0143 84.1165 "/>
<path d="M135.4429 84.4022 L135.7762 83.4022 "/>
<path d="M135.7762 83.4022 L136.1095 84.4022 "/>
<path d="M136.4429 84.4022 L136.4429 83.4022 "/>
<path d="M136.4429 83.4022 L136.7762 84.1165 "/>
<path d="M136.7762 84.1165 L137.1095 83.4022 "/>
<path d="M137.1095 83.4022 L137.1095 84.4022 "/>
<path d="M137.7762 83.4022 L137.8714 83.4022 "/>
<path d="M137.8714 83.4022 L137.9667 83.4498 "/>
<path d="M137.9667 83.4498 L138.0143 83.4975 "/>
<path d="M138.0143 83.4975 L138.0619 83.5927 "/>
<path d="M138.0619 83.5927 L138.1095 83.7832 "/>
<path d="M138.1095 83.7832 L138.1095 84.0213 "/>
<path d="M138.1095 84.0213 L138.0619 84.2117 "/>
<path d="M138.0619 84.2117 L138.0143 84.3070 "/>
<path d="M138.0143 84.3070 L137.9667 84.3546 "/>
<path d="M137.9667 84.3546 L137.8714 84.4022 "/>
<path d="M137.8714 84.4022 L137.7762 84.4022 "/>
<path d="M137.7762 84.4022 L137.6810 84.3546 "/>
<path d="M137.6810 84.3546 L137.6333 84.3070 "/>
<path d="M137.6333 84.3070 L137.5857 84.2117 "/>
<path d="M137.5857 84.2117 L137.5381 84.0213 "/>
<path d="M137.5381 84.0213 L137.5381 83.7832 "/>
<path d="M137.5381 83.7832 L137.5857 83.5927 "/>
<path d="M137.5857 83.5927 L137.6333 83.4975 "/>
<path d="M137.6333 83.4975 L137.6810 83.4498 "/>
<path d="M137.6810 83.4498 L137.7762 83.4022 "/>
<path d="M139.0619 84.4022 L138.4905 84.4022 "/>
<path d="M138.7762 84.4022 L138.7762 83.4022 "/>
<path d="M138.7762 83.4022 L138.6810 83.5451 "/>
<path d="M138.6810 83.5451 L138.5857 83.6403 "/>
<path d="M138.5857 83.6403 L138.4905 83.6879 "/>
<path d="M139.4429 84.1165 L139.9190 84.1165 "/>
<path d="M139.3476 84.4022 L139.6810 83.4022 "/>
<path d="M139.6810 83.4022 L140.0143 84.4022 "/>
</g><text x="136.8000" y="86.0600" textLength="6.3524" font-size="1.3333" lengthAdjust="spacingAndGlyphs" text-anchor="middle" opacity="0">MLAB.cz</text>
<g class="stroked-text"><desc>MLAB.cz</desc>
<path d="M134.0619 86.0122 L134.0619 85.0122 "/>
<path d="M134.0619 85.0122 L134.3952 85.7265 "/>
<path d="M134.3952 85.7265 L134.7286 85.0122 "/>
<path d="M134.7286 85.0122 L134.7286 86.0122 "/>
<path d="M135.6810 86.0122 L135.2048 86.0122 "/>
<path d="M135.2048 86.0122 L135.2048 85.0122 "/>
<path d="M135.9667 85.7265 L136.4429 85.7265 "/>
<path d="M135.8714 86.0122 L136.2048 85.0122 "/>
<path d="M136.2048 85.0122 L136.5381 86.0122 "/>
<path d="M137.2048 85.4884 L137.3476 85.5360 "/>
<path d="M137.3476 85.5360 L137.3952 85.5836 "/>
<path d="M137.3952 85.5836 L137.4429 85.6789 "/>
<path d="M137.4429 85.6789 L137.4429 85.8217 "/>
<path d="M137.4429 85.8217 L137.3952 85.9170 "/>
<path d="M137.3952 85.9170 L137.3476 85.9646 "/>
<path d="M137.3476 85.9646 L137.2524 86.0122 "/>
<path d="M137.2524 86.0122 L136.8714 86.0122 "/>
<path d="M136.8714 86.0122 L136.8714 85.0122 "/>
<path d="M136.8714 85.0122 L137.2048 85.0122 "/>
<path d="M137.2048 85.0122 L137.3000 85.0598 "/>
<path d="M137.3000 85.0598 L137.3476 85.1075 "/>
<path d="M137.3476 85.1075 L137.3952 85.2027 "/>
<path d="M137.3952 85.2027 L137.3952 85.2979 "/>
<path d="M137.3952 85.2979 L137.3476 85.3932 "/>
<path d="M137.3476 85.3932 L137.3000 85.4408 "/>
<path d="M137.3000 85.4408 L137.2048 85.4884 "/>
<path d="M137.2048 85.4884 L136.8714 85.4884 "/>
<path d="M137.8714 85.9170 L137.9190 85.9646 "/>
<path d="M137.9190 85.9646 L137.8714 86.0122 "/>
<path d="M137.8714 86.0122 L137.8238 85.9646 "/>
<path d="M137.8238 85.9646 L137.8714 85.9170 "/>
<path d="M137.8714 85.9170 L137.8714 86.0122 "/>
<path d="M138.7762 85.9646 L138.6810 86.0122 "/>
<path d="M138.6810 86.0122 L138.4905 86.0122 "/>
<path d="M138.4905 86.0122 L138.3952 85.9646 "/>
<path d="M138.3952 85.9646 L138.3476 85.9170 "/>
<path d="M138.3476 85.9170 L138.3000 85.8217 "/>
<path d="M138.3000 85.8217 L138.3000 85.5360 "/>
<path d="M138.3000 85.5360 L138.3476 85.4408 "/>
<path d="M138.3476 85.4408 L138.3952 85.3932 "/>
<path d="M138.3952 85.3932 L138.4905 85.3456 "/>
<path d="M138.4905 85.3456 L138.6810 85.3456 "/>
<path d="M138.6810 85.3456 L138.7762 85.3932 "/>
<path d="M139.1095 85.3456 L139.6333 85.3456 "/>
<path d="M139.6333 85.3456 L139.1095 86.0122 "/>
<path d="M139.1095 86.0122 L139.6333 86.0122 "/>
</g><text x="136.8000" y="87.6700" textLength="4.2095" font-size="1.3333" lengthAdjust="spacingAndGlyphs" text-anchor="middle" opacity="0">2023</text>
<g class="stroked-text"><desc>2023</desc>
<path d="M135.0857 86.7175 L135.1333 86.6698 "/>
<path d="M135.1333 86.6698 L135.2286 86.6222 "/>
<path d="M135.2286 86.6222 L135.4667 86.6222 "/>
<path d="M135.4667 86.6222 L135.5619 86.6698 "/>
<path d="M135.5619 86.6698 L135.6095 86.7175 "/>
<path d="M135.6095 86.7175 L135.6571 86.8127 "/>
<path d="M135.6571 86.8127 L135.6571 86.9079 "/>
<path d="M135.6571 86.9079 L135.6095 87.0508 "/>
<path d="M135.6095 87.0508 L135.0381 87.6222 "/>
<path d="M135.0381 87.6222 L135.6571 87.6222 "/>
<path d="M136.2762 86.6222 L136.3714 86.6222 "/>
<path d="M136.3714 86.6222 L136.4667 86.6698 "/>
<path d="M136.4667 86.6698 L136.5143 86.7175 "/>
<path d="M136.5143 86.7175 L136.5619 86.8127 "/>
<path d="M136.5619 86.8127 L136.6095 87.0032 "/>
<path d="M136.6095 87.0032 L136.6095 87.2413 "/>
<path d="M136.6095 87.2413 L136.5619 87.4317 "/>
<path d="M136.5619 87.4317 L136.5143 87.5270 "/>
<path d="M136.5143 87.5270 L136.4667 87.5746 "/>
<path d="M136.4667 87.5746 L136.3714 87.6222 "/>
<path d="M136.3714 87.6222 L136.2762 87.6222 "/>
<path d="M136.2762 87.6222 L136.1810 87.5746 "/>
<path d="M136.1810 87.5746 L136.1333 87.5270 "/>
<path d="M136.1333 87.5270 L136.0857 87.4317 "/>
<path d="M136.0857 87.4317 L136.0381 87.2413 "/>
<path d="M136.0381 87.2413 L136.0381 87.0032 "/>
<path d="M136.0381 87.0032 L136.0857 86.8127 "/>
<path d="M136.0857 86.8127 L136.1333 86.7175 "/>
<path d="M136.1333 86.7175 L136.1810 86.6698 "/>
<path d="M136.1810 86.6698 L136.2762 86.6222 "/>
<path d="M136.9905 86.7175 L137.0381 86.6698 "/>
<path d="M137.0381 86.6698 L137.1333 86.6222 "/>
<path d="M137.1333 86.6222 L137.3714 86.6222 "/>
<path d="M137.3714 86.6222 L137.4667 86.6698 "/>
<path d="M137.4667 86.6698 L137.5143 86.7175 "/>
<path d="M137.5143 86.7175 L137.5619 86.8127 "/>
<path d="M137.5619 86.8127 L137.5619 86.9079 "/>
<path d="M137.5619 86.9079 L137.5143 87.0508 "/>
<path d="M137.5143 87.0508 L136.9429 87.6222 "/>
<path d="M136.9429 87.6222 L137.5619 87.6222 "/>
<path d="M137.8952 86.6222 L138.5143 86.6222 "/>
<path d="M138.5143 86.6222 L138.1810 87.0032 "/>
<path d="M138.1810 87.0032 L138.3238 87.0032 "/>
<path d="M138.3238 87.0032 L138.4190 87.0508 "/>
<path d="M138.4190 87.0508 L138.4667 87.0984 "/>
<path d="M138.4667 87.0984 L138.5143 87.1936 "/>
<path d="M138.5143 87.1936 L138.5143 87.4317 "/>
<path d="M138.5143 87.4317 L138.4667 87.5270 "/>
<path d="M138.4667 87.5270 L138.4190 87.5746 "/>
<path d="M138.4190 87.5746 L138.3238 87.6222 "/>
<path d="M138.3238 87.6222 L138.0381 87.6222 "/>
<path d="M138.0381 87.6222 L137.9429 87.5746 "/>
<path d="M137.9429 87.5746 L137.8952 87.5270 "/>
</g></g>
<g style="fill-opacity: 0.0;stroke-width: 0.1500;stroke-opacity: 1;stroke-linecap: round;stroke-linejoin: round">
<text x="143.0000" y="90.8740" textLength="2.1986" font-size="1.2000" lengthAdjust="spacingAndGlyphs" text-anchor="middle" opacity="0">~{WP}</text>
<g class="stroked-text"><desc>~{WP}</desc>
<path d="M142.1643 89.9326 L142.3786 90.8326 "/>
<path d="M142.3786 90.8326 L142.5500 90.1897 "/>
<path d="M142.5500 90.1897 L142.7214 90.8326 "/>
<path d="M142.7214 90.8326 L142.9357 89.9326 "/>
<path d="M143.2786 90.8326 L143.2786 89.9326 "/>
<path d="M143.2786 89.9326 L143.6214 89.9326 "/>
<path d="M143.6214 89.9326 L143.7071 89.9754 "/>
<path d="M143.7071 89.9754 L143.7500 90.0183 "/>
<path d="M143.7500 90.0183 L143.7929 90.1040 "/>
<path d="M143.7929 90.1040 L143.7929 90.2326 "/>
<path d="M143.7929 90.2326 L143.7500 90.3183 "/>
<path d="M143.7500 90.3183 L143.7071 90.3611 "/>
<path d="M143.7071 90.3611 L143.6214 90.4040 "/>
<path d="M143.6214 90.4040 L143.2786 90.4040 "/>
<path d="M142.1257 89.6827 L143.8743 89.6827 "/>
</g><text x="143.1000" y="88.3340" textLength="2.0271" font-size="1.2000" lengthAdjust="spacingAndGlyphs" text-anchor="middle" opacity="0">~{CS}</text>
<g class="stroked-text"><desc>~{CS}</desc>
<path d="M142.9500 88.2068 L142.9071 88.2497 "/>
<path d="M142.9071 88.2497 L142.7786 88.2926 "/>
<path d="M142.7786 88.2926 L142.6929 88.2926 "/>
<path d="M142.6929 88.2926 L142.5643 88.2497 "/>
<path d="M142.5643 88.2497 L142.4786 88.1640 "/>
<path d="M142.4786 88.1640 L142.4357 88.0783 "/>
<path d="M142.4357 88.0783 L142.3929 87.9068 "/>
<path d="M142.3929 87.9068 L142.3929 87.7783 "/>
<path d="M142.3929 87.7783 L142.4357 87.6068 "/>
<path d="M142.4357 87.6068 L142.4786 87.5211 "/>
<path d="M142.4786 87.5211 L142.5643 87.4354 "/>
<path d="M142.5643 87.4354 L142.6929 87.3926 "/>
<path d="M142.6929 87.3926 L142.7786 87.3926 "/>
<path d="M142.7786 87.3926 L142.9071 87.4354 "/>
<path d="M142.9071 87.4354 L142.9500 87.4783 "/>
<path d="M143.2929 88.2497 L143.4214 88.2926 "/>
<path d="M143.4214 88.2926 L143.6357 88.2926 "/>
<path d="M143.6357 88.2926 L143.7214 88.2497 "/>
<path d="M143.7214 88.2497 L143.7643 88.2068 "/>
<path d="M143.7643 88.2068 L143.8071 88.1211 "/>
<path d="M143.8071 88.1211 L143.8071 88.0354 "/>
<path d="M143.8071 88.0354 L143.7643 87.9497 "/>
<path d="M143.7643 87.9497 L143.7214 87.9068 "/>
<path d="M143.7214 87.9068 L143.6357 87.8640 "/>
<path d="M143.6357 87.8640 L143.4643 87.8211 "/>
<path d="M143.4643 87.8211 L143.3786 87.7783 "/>
<path d="M143.3786 87.7783 L143.3357 87.7354 "/>
<path d="M143.3357 87.7354 L143.2929 87.6497 "/>
<path d="M143.2929 87.6497 L143.2929 87.5640 "/>
<path d="M143.2929 87.5640 L143.3357 87.4783 "/>
<path d="M143.3357 87.4783 L143.3786 87.4354 "/>
<path d="M143.3786 87.4354 L143.4643 87.3926 "/>
<path d="M143.4643 87.3926 L143.6786 87.3926 "/>
<path d="M143.6786 87.3926 L143.8071 87.4354 "/>
<path d="M142.3114 87.1427 L143.8886 87.1427 "/>
</g><text x="150.6000" y="90.6500" textLength="3.0129" font-size="1.2000" lengthAdjust="spacingAndGlyphs" text-anchor="middle" opacity="0">GND</text>
<g class="stroked-text"><desc>GND</desc>
<path d="M149.9143 89.7514 L149.8286 89.7086 "/>
<path d="M149.8286 89.7086 L149.7000 89.7086 "/>
<path d="M149.7000 89.7086 L149.5714 89.7514 "/>
<path d="M149.5714 89.7514 L149.4857 89.8371 "/>
<path d="M149.4857 89.8371 L149.4429 89.9228 "/>
<path d="M149.4429 89.9228 L149.4000 90.0943 "/>
<path d="M149.4000 90.0943 L149.4000 90.2228 "/>
<path d="M149.4000 90.2228 L149.4429 90.3943 "/>
<path d="M149.4429 90.3943 L149.4857 90.4800 "/>
<path d="M149.4857 90.4800 L149.5714 90.5657 "/>
<path d="M149.5714 90.5657 L149.7000 90.6086 "/>
<path d="M149.7000 90.6086 L149.7857 90.6086 "/>
<path d="M149.7857 90.6086 L149.9143 90.5657 "/>
<path d="M149.9143 90.5657 L149.9571 90.5228 "/>
<path d="M149.9571 90.5228 L149.9571 90.2228 "/>
<path d="M149.9571 90.2228 L149.7857 90.2228 "/>
<path d="M150.3429 90.6086 L150.3429 89.7086 "/>
<path d="M150.3429 89.7086 L150.8571 90.6086 "/>
<path d="M150.8571 90.6086 L150.8571 89.7086 "/>
<path d="M151.2857 90.6086 L151.2857 89.7086 "/>
<path d="M151.2857 89.7086 L151.5000 89.7086 "/>
<path d="M151.5000 89.7086 L151.6286 89.7514 "/>
<path d="M151.6286 89.7514 L151.7143 89.8371 "/>
<path d="M151.7143 89.8371 L151.7571 89.9228 "/>
<path d="M151.7571 89.9228 L151.8000 90.0943 "/>
<path d="M151.8000 90.0943 L151.8000 90.2228 "/>
<path d="M151.8000 90.2228 L151.7571 90.3943 "/>
<path d="M151.7571 90.3943 L151.7143 90.4800 "/>
<path d="M151.7143 90.4800 L151.6286 90.5657 "/>
<path d="M151.6286 90.5657 L151.5000 90.6086 "/>
<path d="M151.5000 90.6086 L151.2857 90.6086 "/>
</g><g transform="rotate(-90.000000 142.8100 80.3800)">
<text x="142.8100" y="80.3800" textLength="6.4414" font-size="1.2000" lengthAdjust="spacingAndGlyphs" text-anchor="start" opacity="0">1.8-3.3V</text>
</g>
<g class="stroked-text"><desc>1.8-3.3V</desc>
<path d="M142.6921 79.5956 L142.6921 80.1099 "/>
<path d="M142.6921 79.8527 L141.7921 79.8527 "/>
<path d="M141.7921 79.8527 L141.9206 79.9385 "/>
<path d="M141.9206 79.9385 L142.0063 80.0242 "/>
<path d="M142.0063 80.0242 L142.0492 80.1099 "/>
<path d="M142.6063 79.2099 L142.6492 79.1670 "/>
<path d="M142.6492 79.1670 L142.6921 79.2099 "/>
<path d="M142.6921 79.2099 L142.6492 79.2527 "/>
<path d="M142.6492 79.2527 L142.6063 79.2099 "/>
<path d="M142.6063 79.2099 L142.6921 79.2099 "/>
<path d="M142.1778 78.6527 L142.1349 78.7385 "/>
<path d="M142.1349 78.7385 L142.0921 78.7813 "/>
<path d="M142.0921 78.7813 L142.0063 78.8242 "/>
<path d="M142.0063 78.8242 L141.9635 78.8242 "/>
<path d="M141.9635 78.8242 L141.8778 78.7813 "/>
<path d="M141.8778 78.7813 L141.8349 78.7385 "/>
<path d="M141.8349 78.7385 L141.7921 78.6527 "/>
<path d="M141.7921 78.6527 L141.7921 78.4813 "/>
<path d="M141.7921 78.4813 L141.8349 78.3956 "/>
<path d="M141.8349 78.3956 L141.8778 78.3527 "/>
<path d="M141.8778 78.3527 L141.9635 78.3099 "/>
<path d="M141.9635 78.3099 L142.0063 78.3099 "/>
<path d="M142.0063 78.3099 L142.0921 78.3527 "/>
<path d="M142.0921 78.3527 L142.1349 78.3956 "/>
<path d="M142.1349 78.3956 L142.1778 78.4813 "/>
<path d="M142.1778 78.4813 L142.1778 78.6527 "/>
<path d="M142.1778 78.6527 L142.2206 78.7385 "/>
<path d="M142.2206 78.7385 L142.2635 78.7813 "/>
<path d="M142.2635 78.7813 L142.3492 78.8242 "/>
<path d="M142.3492 78.8242 L142.5206 78.8242 "/>
<path d="M142.5206 78.8242 L142.6063 78.7813 "/>
<path d="M142.6063 78.7813 L142.6492 78.7385 "/>
<path d="M142.6492 78.7385 L142.6921 78.6527 "/>
<path d="M142.6921 78.6527 L142.6921 78.4813 "/>
<path d="M142.6921 78.4813 L142.6492 78.3956 "/>
<path d="M142.6492 78.3956 L142.6063 78.3527 "/>
<path d="M142.6063 78.3527 L142.5206 78.3099 "/>
<path d="M142.5206 78.3099 L142.3492 78.3099 "/>
<path d="M142.3492 78.3099 L142.2635 78.3527 "/>
<path d="M142.2635 78.3527 L142.2206 78.3956 "/>
<path d="M142.2206 78.3956 L142.1778 78.4813 "/>
<path d="M142.3492 77.9242 L142.3492 77.2385 "/>
<path d="M141.7921 76.8956 L141.7921 76.3385 "/>
<path d="M141.7921 76.3385 L142.1349 76.6385 "/>
<path d="M142.1349 76.6385 L142.1349 76.5099 "/>
<path d="M142.1349 76.5099 L142.1778 76.4242 "/>
<path d="M142.1778 76.4242 L142.2206 76.3813 "/>
<path d="M142.2206 76.3813 L142.3063 76.3385 "/>
<path d="M142.3063 76.3385 L142.5206 76.3385 "/>
<path d="M142.5206 76.3385 L142.6063 76.3813 "/>
<path d="M142.6063 76.3813 L142.6492 76.4242 "/>
<path d="M142.6492 76.4242 L142.6921 76.5099 "/>
<path d="M142.6921 76.5099 L142.6921 76.7670 "/>
<path d="M142.6921 76.7670 L142.6492 76.8527 "/>
<path d="M142.6492 76.8527 L142.6063 76.8956 "/>
<path d="M142.6063 75.9527 L142.6492 75.9099 "/>
<path d="M142.6492 75.9099 L142.6921 75.9527 "/>
<path d="M142.6921 75.9527 L142.6492 75.9956 "/>
<path d="M142.6492 75.9956 L142.6063 75.9527 "/>
<path d="M142.6063 75.9527 L142.6921 75.9527 "/>
<path d="M141.7921 75.6099 L141.7921 75.0527 "/>
<path d="M141.7921 75.0527 L142.1349 75.3527 "/>
<path d="M142.1349 75.3527 L142.1349 75.2242 "/>
<path d="M142.1349 75.2242 L142.1778 75.1385 "/>
<path d="M142.1778 75.1385 L142.2206 75.0956 "/>
<path d="M142.2206 75.0956 L142.3063 75.0527 "/>
<path d="M142.3063 75.0527 L142.5206 75.0527 "/>
<path d="M142.5206 75.0527 L142.6063 75.0956 "/>
<path d="M142.6063 75.0956 L142.6492 75.1385 "/>
<path d="M142.6492 75.1385 L142.6921 75.2242 "/>
<path d="M142.6921 75.2242 L142.6921 75.4813 "/>
<path d="M142.6921 75.4813 L142.6492 75.5670 "/>
<path d="M142.6492 75.5670 L142.6063 75.6099 "/>
<path d="M141.7921 74.7956 L142.6921 74.4956 "/>
<path d="M142.6921 74.4956 L141.7921 74.1956 "/>
</g><g transform="rotate(-90.000000 150.4000 85.0900)">
<text x="150.4000" y="85.5400" textLength="3.5271" font-size="1.2000" lengthAdjust="spacingAndGlyphs" text-anchor="middle" opacity="0">MOSI</text>
</g>
<g class="stroked-text"><desc>MOSI</desc>
<path d="M150.8086 86.5043 L149.9086 86.5043 "/>
<path d="M149.9086 86.5043 L150.5514 86.2043 "/>
<path d="M150.5514 86.2043 L149.9086 85.9043 "/>
<path d="M149.9086 85.9043 L150.8086 85.9043 "/>
<path d="M149.9086 85.3043 L149.9086 85.1329 "/>
<path d="M149.9086 85.1329 L149.9514 85.0471 "/>
<path d="M149.9514 85.0471 L150.0371 84.9614 "/>
<path d="M150.0371 84.9614 L150.2086 84.9186 "/>
<path d="M150.2086 84.9186 L150.5086 84.9186 "/>
<path d="M150.5086 84.9186 L150.6800 84.9614 "/>
<path d="M150.6800 84.9614 L150.7657 85.0471 "/>
<path d="M150.7657 85.0471 L150.8086 85.1329 "/>
<path d="M150.8086 85.1329 L150.8086 85.3043 "/>
<path d="M150.8086 85.3043 L150.7657 85.3900 "/>
<path d="M150.7657 85.3900 L150.6800 85.4757 "/>
<path d="M150.6800 85.4757 L150.5086 85.5186 "/>
<path d="M150.5086 85.5186 L150.2086 85.5186 "/>
<path d="M150.2086 85.5186 L150.0371 85.4757 "/>
<path d="M150.0371 85.4757 L149.9514 85.3900 "/>
<path d="M149.9514 85.3900 L149.9086 85.3043 "/>
<path d="M150.7657 84.5757 L150.8086 84.4471 "/>
<path d="M150.8086 84.4471 L150.8086 84.2329 "/>
<path d="M150.8086 84.2329 L150.7657 84.1471 "/>
<path d="M150.7657 84.1471 L150.7228 84.1043 "/>
<path d="M150.7228 84.1043 L150.6371 84.0614 "/>
<path d="M150.6371 84.0614 L150.5514 84.0614 "/>
<path d="M150.5514 84.0614 L150.4657 84.1043 "/>
<path d="M150.4657 84.1043 L150.4228 84.1471 "/>
<path d="M150.4228 84.1471 L150.3800 84.2329 "/>
<path d="M150.3800 84.2329 L150.3371 84.4043 "/>
<path d="M150.3371 84.4043 L150.2943 84.4900 "/>
<path d="M150.2943 84.4900 L150.2514 84.5329 "/>
<path d="M150.2514 84.5329 L150.1657 84.5757 "/>
<path d="M150.1657 84.5757 L150.0800 84.5757 "/>
<path d="M150.0800 84.5757 L149.9943 84.5329 "/>
<path d="M149.9943 84.5329 L149.9514 84.4900 "/>
<path d="M149.9514 84.4900 L149.9086 84.4043 "/>
<path d="M149.9086 84.4043 L149.9086 84.1900 "/>
<path d="M149.9086 84.1900 L149.9514 84.0614 "/>
<path d="M150.8086 83.6757 L149.9086 83.6757 "/>
</g><text x="142.7000" y="85.5500" textLength="2.9271" font-size="1.2000" lengthAdjust="spacingAndGlyphs" text-anchor="middle" opacity="0">SCK</text>
<g class="stroked-text"><desc>SCK</desc>
<path d="M141.5429 85.4657 L141.6714 85.5086 "/>
<path d="M141.6714 85.5086 L141.8857 85.5086 "/>
<path d="M141.8857 85.5086 L141.9714 85.4657 "/>
<path d="M141.9714 85.4657 L142.0143 85.4228 "/>
<path d="M142.0143 85.4228 L142.0571 85.3371 "/>
<path d="M142.0571 85.3371 L142.0571 85.2514 "/>
<path d="M142.0571 85.2514 L142.0143 85.1657 "/>
<path d="M142.0143 85.1657 L141.9714 85.1228 "/>
<path d="M141.9714 85.1228 L141.8857 85.0800 "/>
<path d="M141.8857 85.0800 L141.7143 85.0371 "/>
<path d="M141.7143 85.0371 L141.6286 84.9943 "/>
<path d="M141.6286 84.9943 L141.5857 84.9514 "/>
<path d="M141.5857 84.9514 L141.5429 84.8657 "/>
<path d="M141.5429 84.8657 L141.5429 84.7800 "/>
<path d="M141.5429 84.7800 L141.5857 84.6943 "/>
<path d="M141.5857 84.6943 L141.6286 84.6514 "/>
<path d="M141.6286 84.6514 L141.7143 84.6086 "/>
<path d="M141.7143 84.6086 L141.9286 84.6086 "/>
<path d="M141.9286 84.6086 L142.0571 84.6514 "/>
<path d="M142.9571 85.4228 L142.9143 85.4657 "/>
<path d="M142.9143 85.4657 L142.7857 85.5086 "/>
<path d="M142.7857 85.5086 L142.7000 85.5086 "/>
<path d="M142.7000 85.5086 L142.5714 85.4657 "/>
<path d="M142.5714 85.4657 L142.4857 85.3800 "/>
<path d="M142.4857 85.3800 L142.4429 85.2943 "/>
<path d="M142.4429 85.2943 L142.4000 85.1228 "/>
<path d="M142.4000 85.1228 L142.4000 84.9943 "/>
<path d="M142.4000 84.9943 L142.4429 84.8228 "/>
<path d="M142.4429 84.8228 L142.4857 84.7371 "/>
<path d="M142.4857 84.7371 L142.5714 84.6514 "/>
<path d="M142.5714 84.6514 L142.7000 84.6086 "/>
<path d="M142.7000 84.6086 L142.7857 84.6086 "/>
<path d="M142.7857 84.6086 L142.9143 84.6514 "/>
<path d="M142.9143 84.6514 L142.9571 84.6943 "/>
<path d="M143.3429 85.5086 L143.3429 84.6086 "/>
<path d="M143.8571 85.5086 L143.4714 84.9943 "/>
<path d="M143.8571 84.6086 L143.3429 85.1228 "/>
</g><path d="M144.1300 81.2800 L149.2100 81.2800 "/>
<path d="M144.1300 91.4400 L144.1300 81.2800 "/>
<path d="M149.2100 81.2800 L149.2100 91.4400 "/>
<path d="M149.2100 91.4400 L144.1300 91.4400 "/>
<g style="fill-opacity: 1.0000;stroke-width: 0.0000;stroke-opacity: 1;stroke-linecap: round;stroke-linejoin: round">
<path style="fill-opacity: 1.0000;stroke-width: 0.0000;stroke-opacity: 1;stroke-linecap: round;stroke-linejoin: round;fill-rule: evenodd" d="M 144.6380,83.3120 144.6380,81.7880 146.1620,81.7880 146.1620,83.3120 Z"/> 
<path style="fill-opacity: 1.0000;stroke-width: 0.0000;stroke-opacity: 1;stroke-linecap: round;stroke-linejoin: round;fill-rule: evenodd" d="M 147.1780,83.3120 147.1780,81.7880 148.7020,81.7880 148.7020,83.3120 Z"/> 
<path style="fill-opacity: 1.0000;stroke-width: 0.0000;stroke-opacity: 1;stroke-linecap: round;stroke-linejoin: round;fill-rule: evenodd" d="M 144.6380,85.8520 144.6380,84.3280 146.1620,84.3280 146.1620,85.8520 Z"/> 
<path style="fill-opacity: 1.0000;stroke-width: 0.0000;stroke-opacity: 1;stroke-linecap: round;stroke-linejoin: round;fill-rule: evenodd" d="M 147.1780,85.8520 147.1780,84.3280 148.7020,84.3280 148.7020,85.8520 Z"/> 
<path style="fill-opacity: 1.0000;stroke-width: 0.0000;stroke-opacity: 1;stroke-linecap: round;stroke-linejoin: round;fill-rule: evenodd" d="M 144.6380,88.3920 144.6380,86.8680 146.1620,86.8680 146.1620,88.3920 Z"/> 
<path style="fill-opacity: 1.0000;stroke-width: 0.0000;stroke-opacity: 1;stroke-linecap: round;stroke-linejoin: round;fill-rule: evenodd" d="M 147.1780,88.3920 147.1780,86.8680 148.7020,86.8680 148.7020,88.3920 Z"/> 
<path style="fill-opacity: 1.0000;stroke-width: 0.0000;stroke-opacity: 1;stroke-linecap: round;stroke-linejoin: round;fill-rule: evenodd" d="M 144.6380,90.9320 144.6380,89.4080 146.1620,89.4080 146.1620,90.9320 Z"/> 
<path style="fill-opacity: 1.0000;stroke-width: 0.0000;stroke-opacity: 1;stroke-linecap: round;stroke-linejoin: round;fill-rule: evenodd" d="M 147.1780,90.9320 147.1780,89.4080 148.7020,89.4080 148.7020,90.9320 Z"/> 
</g>
</g> 
</g><g id="substrate-outline" style="fill:#000000; stroke:#000000; stroke-width: 0.15"><g style="fill-opacity: 0.0;stroke-opacity: 1;stroke-linecap: round;stroke-linejoin: round">
<path d="M152.1460 101.3460 L132.3340 101.3460 "/>
<path d="M132.3340 71.3740 L132.3340 101.3460 "/>
<path d="M152.1460 71.3740 L152.1460 101.3460 "/>
<path d="M132.3340 71.3740 L152.1460 71.3740 "/>
</g> 
<path d="M -1.5 0.0 A 1.5 1.5 0 1 1 1.5 0.0 L 1.5 -0.0 A 1.5 1.5 0 1 1 -1.5 -0.0 Z" transform="translate(147.32 96.52) rotate(-0.0)"/><path d="M -1.5 0.0 A 1.5 1.5 0 1 1 1.5 0.0 L 1.5 -0.0 A 1.5 1.5 0 1 1 -1.5 -0.0 Z" transform="translate(137.16 76.2) rotate(-0.0)"/><path d="M -1.5 0.0 A 1.5 1.5 0 1 1 1.5 0.0 L 1.5 -0.0 A 1.5 1.5 0 1 1 -1.5 -0.0 Z" transform="translate(147.32 76.2) rotate(-0.0)"/><path d="M -0.4445 0.0 A 0.4445 0.4445 0 1 1 0.4445 0.0 L 0.4445 -0.0 A 0.4445 0.4445 0 1 1 -0.4445 -0.0 Z" transform="translate(145.4 82.55) rotate(-0.0)"/><path d="M -0.4445 0.0 A 0.4445 0.4445 0 1 1 0.4445 0.0 L 0.4445 -0.0 A 0.4445 0.4445 0 1 1 -0.4445 -0.0 Z" transform="translate(147.94 82.55) rotate(-0.0)"/><path d="M -0.4445 0.0 A 0.4445 0.4445 0 1 1 0.4445 0.0 L 0.4445 -0.0 A 0.4445 0.4445 0 1 1 -0.4445 -0.0 Z" transform="translate(145.4 85.09) rotate(-0.0)"/><path d="M -0.4445 0.0 A 0.4445 0.4445 0 1 1 0.4445 0.0 L 0.4445 -0.0 A 0.4445 0.4445 0 1 1 -0.4445 -0.0 Z" transform="translate(147.94 85.09) rotate(-0.0)"/><path d="M -0.4445 0.0 A 0.4445 0.4445 0 1 1 0.4445 0.0 L 0.4445 -0.0 A 0.4445 0.4445 0 1 1 -0.4445 -0.0 Z" transform="translate(145.4 87.63) rotate(-0.0)"/><path d="M -0.4445 0.0 A 0.4445 0.4445 0 1 1 0.4445 0.0 L 0.4445 -0.0 A 0.4445 0.4445 0 1 1 -0.4445 -0.0 Z" transform="translate(147.94 87.63) rotate(-0.0)"/><path d="M -0.4445 0.0 A 0.4445 0.4445 0 1 1 0.4445 0.0 L 0.4445 -0.0 A 0.4445 0.4445 0 1 1 -0.4445 -0.0 Z" transform="translate(145.4 90.17) rotate(-0.0)"/><path d="M -0.4445 0.0 A 0.4445 0.4445 0 1 1 0.4445 0.0 L 0.4445 -0.0 A 0.4445 0.4445 0 1 1 -0.4445 -0.0 Z" transform="translate(147.94 90.17) rotate(-0.0)"/><path d="M -1.5 0.0 A 1.5 1.5 0 1 1 1.5 0.0 L 1.5 -0.0 A 1.5 1.5 0 1 1 -1.5 -0.0 Z" transform="translate(137.16 96.52) rotate(-0.0)"/><path d="M -0.2 0.0 A 0.2 0.2 0 1 1 0.2 0.0 L 0.2 -0.0 A 0.2 0.2 0 1 1 -0.2 -0.0 Z" transform="translate(138.176 91.44) rotate(-0.0)"/><path d="M -0.2 0.0 A 0.2 0.2 0 1 1 0.2 0.0 L 0.2 -0.0 A 0.2 0.2 0 1 1 -0.2 -0.0 Z" transform="translate(133.604 90.1) rotate(-0.0)"/><path d="M -0.2 0.0 A 0.2 0.2 0 1 1 0.2 0.0 L 0.2 -0.0 A 0.2 0.2 0 1 1 -0.2 -0.0 Z" transform="translate(140.8 85.7) rotate(-0.0)"/><path d="M -0.2 0.0 A 0.2 0.2 0 1 1 0.2 0.0 L 0.2 -0.0 A 0.2 0.2 0 1 1 -0.2 -0.0 Z" transform="translate(141.478 94.742) rotate(-0.0)"/><path d="M -0.2 0.0 A 0.2 0.2 0 1 1 0.2 0.0 L 0.2 -0.0 A 0.2 0.2 0 1 1 -0.2 -0.0 Z" transform="translate(142.748 94.742) rotate(-0.0)"/><path d="M -0.2 0.0 A 0.2 0.2 0 1 1 0.2 0.0 L 0.2 -0.0 A 0.2 0.2 0 1 1 -0.2 -0.0 Z" transform="translate(138.176 90.424) rotate(-0.0)"/><path d="M -0.2 0.0 A 0.2 0.2 0 1 1 0.2 0.0 L 0.2 -0.0 A 0.2 0.2 0 1 1 -0.2 -0.0 Z" transform="translate(133.0 86.4) rotate(-0.0)"/><path d="M -0.2 0.0 A 0.2 0.2 0 1 1 0.2 0.0 L 0.2 -0.0 A 0.2 0.2 0 1 1 -0.2 -0.0 Z" transform="translate(139.7 92.71) rotate(-0.0)"/><path d="M -0.2 0.0 A 0.2 0.2 0 1 1 0.2 0.0 L 0.2 -0.0 A 0.2 0.2 0 1 1 -0.2 -0.0 Z" transform="translate(140.9 87.63) rotate(-0.0)"/><path d="M -0.2 0.0 A 0.2 0.2 0 1 1 0.2 0.0 L 0.2 -0.0 A 0.2 0.2 0 1 1 -0.2 -0.0 Z" transform="translate(136.8 86.36) rotate(-0.0)"/></g></g></g><g transform="" id="componentContainer"><!--Mlab_Mechanical:MountingHole_3mm:M4--><g transform="translate(147.32 96.52) scale(1.0, 1.0) rotate(-0.0) translate(-0.75 -0.75)"><g id="pref_12_Mlab_Mechanical__MountingHole_3mm_HOLE"><defs xmlns:xlink="http://www.w3.org/1999/xlink" id="pref_13defs13">
    <linearGradient id="pref_13linearGradient13300">
      <stop style="stop-color:#e5e5e5;stop-opacity:1;" offset="0" id="pref_13stop13298"/>
    </linearGradient>
    <linearGradient id="pref_13linearGradient10336">
      <stop style="stop-color:#cfcfcf;stop-opacity:1" offset="0" id="pref_13stop10332"/>
      <stop style="stop-color:#cdcdcd;stop-opacity:0" offset="1" id="pref_13stop10334"/>
    </linearGradient>
    <linearGradient id="pref_13linearGradient9067">
      <stop style="stop-color:#d3d3d3;stop-opacity:1;" offset="0" id="pref_13stop9051"/>
      <stop style="stop-color:#c8c8c8;stop-opacity:1;" offset="0.1656336" id="pref_13stop9053"/>
      <stop style="stop-color:#d8d8d8;stop-opacity:0.52030832" offset="0.29162589" id="pref_13stop9055"/>
      <stop style="stop-color:#c6c6c6;stop-opacity:0.51711833" offset="0.38067153" id="pref_13stop9057"/>
      <stop style="stop-color:#bbbbbb;stop-opacity:0.45933419" offset="0.51505035" id="pref_13stop9059"/>
      <stop style="stop-color:#8e8e8e;stop-opacity:0.47450981" offset="0.5970481" id="pref_13stop9061"/>
      <stop style="stop-color:#656565;stop-opacity:0.56470591" offset="0.7681157" id="pref_13stop9063"/>
      <stop style="stop-color:#606060;stop-opacity:0.28235294;" offset="0.95913506" id="pref_13stop9743"/>
      <stop style="stop-color:#b5b5b5;stop-opacity:0.21568628" offset="1" id="pref_13stop9065"/>
    </linearGradient>
    <linearGradient id="pref_13linearGradient3692">
      <stop style="stop-color:#e4e4e4;stop-opacity:1" offset="0" id="pref_13stop6926"/>
      <stop style="stop-color:#e5e5e5;stop-opacity:1" offset="0.1656336" id="pref_13stop6928"/>
      <stop style="stop-color:#f5f5f5;stop-opacity:1" offset="0.29162589" id="pref_13stop6930"/>
      <stop style="stop-color:#c6c6c6;stop-opacity:1;" offset="0.38067153" id="pref_13stop6932"/>
      <stop style="stop-color:#dddddd;stop-opacity:1" offset="0.57577699" id="pref_13stop6934"/>
      <stop style="stop-color:#f2f2f2;stop-opacity:1" offset="0.66836077" id="pref_13stop6936"/>
      <stop style="stop-color:#ebebeb;stop-opacity:1" offset="0.79280978" id="pref_13stop6938"/>
      <stop style="stop-color:#efefef;stop-opacity:1" offset="1" id="pref_13stop6940"/>
    </linearGradient>
    <linearGradient id="pref_13linearGradient5758">
      <stop style="stop-color:#f6f6f6;stop-opacity:0.89019608" offset="0" id="pref_13stop5754"/>
      <stop style="stop-color:#646464;stop-opacity:0.9921568" offset="1" id="pref_13stop5756"/>
    </linearGradient>
    <linearGradient id="pref_13linearGradient3692-7">
      <stop style="stop-color:#d3d3d3;stop-opacity:1;" offset="0" id="pref_13stop3688"/>
      <stop style="stop-color:#c8c8c8;stop-opacity:1;" offset="0.1656336" id="pref_13stop4378"/>
      <stop style="stop-color:#ededed;stop-opacity:1" offset="0.29162589" id="pref_13stop4444"/>
      <stop style="stop-color:#c6c6c6;stop-opacity:1;" offset="0.38067153" id="pref_13stop4376"/>
      <stop style="stop-color:#dbdbdb;stop-opacity:1" offset="0.57577699" id="pref_13stop4308"/>
      <stop style="stop-color:#c8c8c8;stop-opacity:1" offset="0.66836077" id="pref_13stop4242"/>
      <stop style="stop-color:#b8b8b8;stop-opacity:1;" offset="0.79280978" id="pref_13stop4310"/>
      <stop style="stop-color:#aeaeae;stop-opacity:1" offset="1" id="pref_13stop3690"/>
    </linearGradient>
    <linearGradient id="pref_13linearGradient3156">
      <stop style="stop-color:#d3d3d3;stop-opacity:1;" offset="0" id="pref_13stop3152"/>
      <stop style="stop-color:#d3d3d3;stop-opacity:0.89019608;" offset="0.93029171" id="pref_13stop3290"/>
      <stop style="stop-color:#757575;stop-opacity:1" offset="1" id="pref_13stop3154"/>
    </linearGradient>
    <radialGradient xlink:href="#pref_13linearGradient3156" id="pref_13radialGradient3160" cx="0.75" cy="0.75" fx="0.75" fy="0.75" r="2.75" gradientUnits="userSpaceOnUse" gradientTransform="matrix(0.96363636,0,0,0.96363636,0.02727275,0.02727275)"/>
    <linearGradient xlink:href="#pref_13linearGradient3692-7" id="pref_13linearGradient3694" x1="-0.69187778" y1="-1.1810942" x2="2.8737183" y2="2.1900826" gradientUnits="userSpaceOnUse" gradientTransform="matrix(0.92592591,0,0,0.92592591,0.05555555,0.05555555)"/>
    <linearGradient xlink:href="#pref_13linearGradient5758" id="pref_13linearGradient5760" x1="-15.456677" y1="-15.474042" x2="-4.6413889" y2="-6.7602329" gradientUnits="userSpaceOnUse"/>
    <linearGradient xlink:href="#pref_13linearGradient3692" id="pref_13linearGradient6924" gradientUnits="userSpaceOnUse" x1="1.4987922" y1="4.3924975" x2="-1.0811033" y2="-3.0084407"/>
    <radialGradient xlink:href="#pref_13linearGradient9067" id="pref_13radialGradient8763" cx="0.75" cy="0.75" fx="0.75" fy="0.75" r="2.5" gradientUnits="userSpaceOnUse"/>
    <radialGradient xlink:href="#pref_13linearGradient10336" id="pref_13radialGradient10338" cx="-9.3072596" cy="-12.247526" fx="-9.3072596" fy="-12.247526" r="5.7490053" gradientTransform="matrix(0.25618062,-0.83918687,0.82829029,0.2528542,1.5718983,-16.37084)" gradientUnits="userSpaceOnUse"/>
  </defs>
  <circle style="opacity:1;fill:url(#pref_13linearGradient6924);fill-opacity:1;stroke:#cecece;stroke-width:0.05;stroke-miterlimit:4;stroke-dasharray:none;stroke-opacity:1" id="pref_13path6642" cx="0.75" cy="0.75" r="3.5"/>
  <circle style="fill:url(#pref_13radialGradient3160);fill-opacity:1;stroke-width:0.0358194" id="pref_13path1030-6" cx="0.75" cy="0.75" r="2.6500001"/>
  <circle style="opacity:1;fill:url(#pref_13linearGradient3694);fill-opacity:1;stroke-width:0.033792" id="pref_13path1030" cx="0.75" cy="0.75" r="2.5"/>
  <circle style="fill:url(#pref_13radialGradient8763);fill-opacity:1;stroke-width:0.034;stroke-miterlimit:4;stroke-dasharray:none" id="pref_13path1030-7" cx="0.75" cy="0.75" r="2.5"/>
  <path xmlns:sodipodi="http://sodipodi.sourceforge.net/DTD/sodipodi-0.dtd" sodipodi:type="star" style="opacity:1;fill:#b6b6b6;fill-opacity:1;stroke:url(#pref_13linearGradient5760);stroke-width:0.398303;stroke-miterlimit:4;stroke-dasharray:none;stroke-opacity:1" id="pref_13path1288-3" sodipodi:sides="6" sodipodi:cx="-9.9017067" sodipodi:cy="-10.789671" sodipodi:r1="5.7490053" sodipodi:r2="4.9787846" sodipodi:arg1="1.0471976" sodipodi:arg2="1.5707963" transform="matrix(0.24392497,0.05945068,-0.05945068,0.24392497,2.5238203,3.9705334)" d="m -7.0272043,-5.8108862 -5.7490057,-2e-7 -2.874502,-4.9787846 2.874503,-4.978785 5.7490052,1e-6 2.8745024,4.978784 z"/>
  <path xmlns:sodipodi="http://sodipodi.sourceforge.net/DTD/sodipodi-0.dtd" sodipodi:type="star" style="opacity:1;fill:url(#pref_13radialGradient10338);fill-opacity:1;stroke:none;stroke-width:0.398303;stroke-miterlimit:4;stroke-dasharray:none;stroke-opacity:1" id="pref_13path1288-3-6" sodipodi:sides="6" sodipodi:cx="-9.9017067" sodipodi:cy="-10.789671" sodipodi:r1="5.7490053" sodipodi:r2="4.9787846" sodipodi:arg1="1.0471976" sodipodi:arg2="1.5707963" transform="matrix(0.24487282,0.0596817,-0.0596817,0.24487282,2.5307131,3.9830479)" d="m -7.0272043,-5.8108862 -5.7490057,-2e-7 -2.874502,-4.9787846 2.874503,-4.978785 5.7490052,1e-6 2.8745024,4.978784 z"/>
</g></g><!--Mlab_Mechanical:MountingHole_3mm:M1--><g transform="translate(137.16 76.2) scale(1.0, 1.0) rotate(-0.0) translate(-0.75 -0.75)"><g id="pref_12_Mlab_Mechanical__MountingHole_3mm_HOLEM3"><defs xmlns:xlink="http://www.w3.org/1999/xlink" id="pref_14defs13">
    <linearGradient id="pref_14linearGradient13300">
      <stop style="stop-color:#e5e5e5;stop-opacity:1;" offset="0" id="pref_14stop13298"/>
    </linearGradient>
    <linearGradient id="pref_14linearGradient10336">
      <stop style="stop-color:#cfcfcf;stop-opacity:1" offset="0" id="pref_14stop10332"/>
      <stop style="stop-color:#cdcdcd;stop-opacity:0" offset="1" id="pref_14stop10334"/>
    </linearGradient>
    <linearGradient id="pref_14linearGradient9067">
      <stop style="stop-color:#d3d3d3;stop-opacity:1;" offset="0" id="pref_14stop9051"/>
      <stop style="stop-color:#c8c8c8;stop-opacity:1;" offset="0.1656336" id="pref_14stop9053"/>
      <stop style="stop-color:#d8d8d8;stop-opacity:0.52030832" offset="0.29162589" id="pref_14stop9055"/>
      <stop style="stop-color:#c6c6c6;stop-opacity:0.51711833" offset="0.38067153" id="pref_14stop9057"/>
      <stop style="stop-color:#bbbbbb;stop-opacity:0.45933419" offset="0.51505035" id="pref_14stop9059"/>
      <stop style="stop-color:#8e8e8e;stop-opacity:0.47450981" offset="0.5970481" id="pref_14stop9061"/>
      <stop style="stop-color:#656565;stop-opacity:0.56470591" offset="0.7681157" id="pref_14stop9063"/>
      <stop style="stop-color:#606060;stop-opacity:0.28235294;" offset="0.95913506" id="pref_14stop9743"/>
      <stop style="stop-color:#b5b5b5;stop-opacity:0.21568628" offset="1" id="pref_14stop9065"/>
    </linearGradient>
    <linearGradient id="pref_14linearGradient3692">
      <stop style="stop-color:#e4e4e4;stop-opacity:1" offset="0" id="pref_14stop6926"/>
      <stop style="stop-color:#e5e5e5;stop-opacity:1" offset="0.1656336" id="pref_14stop6928"/>
      <stop style="stop-color:#f5f5f5;stop-opacity:1" offset="0.29162589" id="pref_14stop6930"/>
      <stop style="stop-color:#c6c6c6;stop-opacity:1;" offset="0.38067153" id="pref_14stop6932"/>
      <stop style="stop-color:#dddddd;stop-opacity:1" offset="0.57577699" id="pref_14stop6934"/>
      <stop style="stop-color:#f2f2f2;stop-opacity:1" offset="0.66836077" id="pref_14stop6936"/>
      <stop style="stop-color:#ebebeb;stop-opacity:1" offset="0.79280978" id="pref_14stop6938"/>
      <stop style="stop-color:#efefef;stop-opacity:1" offset="1" id="pref_14stop6940"/>
    </linearGradient>
    <linearGradient id="pref_14linearGradient5758">
      <stop style="stop-color:#f6f6f6;stop-opacity:0.89019608" offset="0" id="pref_14stop5754"/>
      <stop style="stop-color:#646464;stop-opacity:0.9921568" offset="1" id="pref_14stop5756"/>
    </linearGradient>
    <linearGradient id="pref_14linearGradient3692-7">
      <stop style="stop-color:#d3d3d3;stop-opacity:1;" offset="0" id="pref_14stop3688"/>
      <stop style="stop-color:#c8c8c8;stop-opacity:1;" offset="0.1656336" id="pref_14stop4378"/>
      <stop style="stop-color:#ededed;stop-opacity:1" offset="0.29162589" id="pref_14stop4444"/>
      <stop style="stop-color:#c6c6c6;stop-opacity:1;" offset="0.38067153" id="pref_14stop4376"/>
      <stop style="stop-color:#dbdbdb;stop-opacity:1" offset="0.57577699" id="pref_14stop4308"/>
      <stop style="stop-color:#c8c8c8;stop-opacity:1" offset="0.66836077" id="pref_14stop4242"/>
      <stop style="stop-color:#b8b8b8;stop-opacity:1;" offset="0.79280978" id="pref_14stop4310"/>
      <stop style="stop-color:#aeaeae;stop-opacity:1" offset="1" id="pref_14stop3690"/>
    </linearGradient>
    <linearGradient id="pref_14linearGradient3156">
      <stop style="stop-color:#d3d3d3;stop-opacity:1;" offset="0" id="pref_14stop3152"/>
      <stop style="stop-color:#d3d3d3;stop-opacity:0.89019608;" offset="0.93029171" id="pref_14stop3290"/>
      <stop style="stop-color:#757575;stop-opacity:1" offset="1" id="pref_14stop3154"/>
    </linearGradient>
    <radialGradient xlink:href="#pref_14linearGradient3156" id="pref_14radialGradient3160" cx="0.75" cy="0.75" fx="0.75" fy="0.75" r="2.75" gradientUnits="userSpaceOnUse" gradientTransform="matrix(0.96363636,0,0,0.96363636,0.02727275,0.02727275)"/>
    <linearGradient xlink:href="#pref_14linearGradient3692-7" id="pref_14linearGradient3694" x1="-0.69187778" y1="-1.1810942" x2="2.8737183" y2="2.1900826" gradientUnits="userSpaceOnUse" gradientTransform="matrix(0.92592591,0,0,0.92592591,0.05555555,0.05555555)"/>
    <linearGradient xlink:href="#pref_14linearGradient5758" id="pref_14linearGradient5760" x1="-15.456677" y1="-15.474042" x2="-4.6413889" y2="-6.7602329" gradientUnits="userSpaceOnUse"/>
    <linearGradient xlink:href="#pref_14linearGradient3692" id="pref_14linearGradient6924" gradientUnits="userSpaceOnUse" x1="1.4987922" y1="4.3924975" x2="-1.0811033" y2="-3.0084407"/>
    <radialGradient xlink:href="#pref_14linearGradient9067" id="pref_14radialGradient8763" cx="0.75" cy="0.75" fx="0.75" fy="0.75" r="2.5" gradientUnits="userSpaceOnUse"/>
    <radialGradient xlink:href="#pref_14linearGradient10336" id="pref_14radialGradient10338" cx="-9.3072596" cy="-12.247526" fx="-9.3072596" fy="-12.247526" r="5.7490053" gradientTransform="matrix(0.25618062,-0.83918687,0.82829029,0.2528542,1.5718983,-16.37084)" gradientUnits="userSpaceOnUse"/>
  </defs>
  <circle style="opacity:1;fill:url(#pref_14linearGradient6924);fill-opacity:1;stroke:#cecece;stroke-width:0.05;stroke-miterlimit:4;stroke-dasharray:none;stroke-opacity:1" id="pref_14path6642" cx="0.75" cy="0.75" r="3.5"/>
  <circle style="fill:url(#pref_14radialGradient3160);fill-opacity:1;stroke-width:0.0358194" id="pref_14path1030-6" cx="0.75" cy="0.75" r="2.6500001"/>
  <circle style="opacity:1;fill:url(#pref_14linearGradient3694);fill-opacity:1;stroke-width:0.033792" id="pref_14path1030" cx="0.75" cy="0.75" r="2.5"/>
  <circle style="fill:url(#pref_14radialGradient8763);fill-opacity:1;stroke-width:0.034;stroke-miterlimit:4;stroke-dasharray:none" id="pref_14path1030-7" cx="0.75" cy="0.75" r="2.5"/>
  <path xmlns:sodipodi="http://sodipodi.sourceforge.net/DTD/sodipodi-0.dtd" sodipodi:type="star" style="opacity:1;fill:#b6b6b6;fill-opacity:1;stroke:url(#pref_14linearGradient5760);stroke-width:0.398303;stroke-miterlimit:4;stroke-dasharray:none;stroke-opacity:1" id="pref_14path1288-3" sodipodi:sides="6" sodipodi:cx="-9.9017067" sodipodi:cy="-10.789671" sodipodi:r1="5.7490053" sodipodi:r2="4.9787846" sodipodi:arg1="1.0471976" sodipodi:arg2="1.5707963" transform="matrix(0.24392497,0.05945068,-0.05945068,0.24392497,2.5238203,3.9705334)" d="m -7.0272043,-5.8108862 -5.7490057,-2e-7 -2.874502,-4.9787846 2.874503,-4.978785 5.7490052,1e-6 2.8745024,4.978784 z"/>
  <path xmlns:sodipodi="http://sodipodi.sourceforge.net/DTD/sodipodi-0.dtd" sodipodi:type="star" style="opacity:1;fill:url(#pref_14radialGradient10338);fill-opacity:1;stroke:none;stroke-width:0.398303;stroke-miterlimit:4;stroke-dasharray:none;stroke-opacity:1" id="pref_14path1288-3-6" sodipodi:sides="6" sodipodi:cx="-9.9017067" sodipodi:cy="-10.789671" sodipodi:r1="5.7490053" sodipodi:r2="4.9787846" sodipodi:arg1="1.0471976" sodipodi:arg2="1.5707963" transform="matrix(0.24487282,0.0596817,-0.0596817,0.24487282,2.5307131,3.9830479)" d="m -7.0272043,-5.8108862 -5.7490057,-2e-7 -2.874502,-4.9787846 2.874503,-4.978785 5.7490052,1e-6 2.8745024,4.978784 z"/>
</g></g><!--Mlab_Mechanical:MountingHole_3mm:M3--><g transform="translate(147.32 76.2) scale(1.0, 1.0) rotate(-0.0) translate(-0.75 -0.75)"><use xmlns:xlink="http://www.w3.org/1999/xlink" xlink:href="#pref_12_Mlab_Mechanical__MountingHole_3mm_HOLE"/></g><!--Mlab_Pin_Headers:Straight_2x04:J2--><g transform="translate(146.67 86.36) scale(0.9999998832685189, 1.0000000978471952) rotate(-0.0) translate(-2.5699999 -5.1099997)"><g id="pref_12_Mlab_Pin_Headers__Straight_2x04_HEADER_2x04"><g id="pref_15pin" style="display:inline">
    <rect style="opacity:1;fill:#000000;fill-opacity:1;fill-rule:nonzero;stroke:#141414;stroke-width:1.15387;stroke-linecap:round;stroke-linejoin:bevel;stroke-miterlimit:4;stroke-dasharray:none;stroke-opacity:1" id="pref_15rect4686" width="1.4461316" height="1.4461316" x="0.57693499" y="0.57693422"/>
    <rect y="1.0419546" x="1.0419546" height="0.51612419" width="0.51612419" id="pref_15rect156830" style="opacity:1;fill:#fcf23a;fill-opacity:1;fill-rule:nonzero;stroke:#eb9d02;stroke-width:0.123876;stroke-linecap:round;stroke-linejoin:bevel;stroke-miterlimit:4;stroke-dasharray:none;stroke-opacity:1"/>
  </g>
  <g transform="translate(0,2.5400152)" id="pref_15g13" style="display:inline">
    <rect style="opacity:1;fill:#000000;fill-opacity:1;fill-rule:nonzero;stroke:#141414;stroke-width:1.15387;stroke-linecap:round;stroke-linejoin:bevel;stroke-miterlimit:4;stroke-dasharray:none;stroke-opacity:1" id="pref_15rect9" width="1.4461316" height="1.4461316" x="0.57693499" y="0.57693422"/>
    <rect y="1.0419546" x="1.0419546" height="0.51612419" width="0.51612419" id="pref_15rect11" style="opacity:1;fill:#fcf23a;fill-opacity:1;fill-rule:nonzero;stroke:#eb9d02;stroke-width:0.123876;stroke-linecap:round;stroke-linejoin:bevel;stroke-miterlimit:4;stroke-dasharray:none;stroke-opacity:1"/>
  </g>
  <g transform="translate(0,5.0800152)" id="pref_15g19">
    <rect style="opacity:1;fill:#000000;fill-opacity:1;fill-rule:nonzero;stroke:#141414;stroke-width:1.15387;stroke-linecap:round;stroke-linejoin:bevel;stroke-miterlimit:4;stroke-dasharray:none;stroke-opacity:1" id="pref_15rect15" width="1.4461316" height="1.4461316" x="0.57693499" y="0.57693422"/>
    <rect y="1.0419546" x="1.0419546" height="0.51612419" width="0.51612419" id="pref_15rect17" style="opacity:1;fill:#fcf23a;fill-opacity:1;fill-rule:nonzero;stroke:#eb9d02;stroke-width:0.123876;stroke-linecap:round;stroke-linejoin:bevel;stroke-miterlimit:4;stroke-dasharray:none;stroke-opacity:1"/>
  </g>
  <g transform="translate(0,7.6200152)" id="pref_15g25">
    <rect style="opacity:1;fill:#000000;fill-opacity:1;fill-rule:nonzero;stroke:#141414;stroke-width:1.15387;stroke-linecap:round;stroke-linejoin:bevel;stroke-miterlimit:4;stroke-dasharray:none;stroke-opacity:1" id="pref_15rect21" width="1.4461316" height="1.4461316" x="0.57693499" y="0.57693422"/>
    <rect y="1.0419546" x="1.0419546" height="0.51612419" width="0.51612419" id="pref_15rect23" style="opacity:1;fill:#fcf23a;fill-opacity:1;fill-rule:nonzero;stroke:#eb9d02;stroke-width:0.123876;stroke-linecap:round;stroke-linejoin:bevel;stroke-miterlimit:4;stroke-dasharray:none;stroke-opacity:1"/>
  </g>
  <g transform="translate(0,99.060019)" id="pref_15g241" style="display:inline">
    <rect style="display:inline;fill:#000000;fill-opacity:1;fill-rule:nonzero;stroke:#141414;stroke-width:1.15387;stroke-linecap:round;stroke-linejoin:bevel;stroke-miterlimit:4;stroke-dasharray:none;stroke-opacity:1" id="pref_15rect4686-3" width="1.4461316" height="1.4461316" x="3.116935" y="-98.483063"/>
    <rect y="-98.018044" x="3.5819547" height="0.51612419" width="0.51612419" id="pref_15rect156830-6" style="display:inline;fill:#fcf23a;fill-opacity:1;fill-rule:nonzero;stroke:#eb9d02;stroke-width:0.123876;stroke-linecap:round;stroke-linejoin:bevel;stroke-miterlimit:4;stroke-dasharray:none;stroke-opacity:1"/>
    <rect style="display:inline;fill:#000000;fill-opacity:1;fill-rule:nonzero;stroke:#141414;stroke-width:1.15387;stroke-linecap:round;stroke-linejoin:bevel;stroke-miterlimit:4;stroke-dasharray:none;stroke-opacity:1" id="pref_15rect9-5" width="1.4461316" height="1.4461316" x="3.116935" y="-95.943069"/>
    <rect y="-95.478043" x="3.5819547" height="0.51612419" width="0.51612419" id="pref_15rect11-3" style="display:inline;fill:#fcf23a;fill-opacity:1;fill-rule:nonzero;stroke:#eb9d02;stroke-width:0.123876;stroke-linecap:round;stroke-linejoin:bevel;stroke-miterlimit:4;stroke-dasharray:none;stroke-opacity:1"/>
    <rect style="fill:#000000;fill-opacity:1;fill-rule:nonzero;stroke:#141414;stroke-width:1.15387;stroke-linecap:round;stroke-linejoin:bevel;stroke-miterlimit:4;stroke-dasharray:none;stroke-opacity:1" id="pref_15rect15-5" width="1.4461316" height="1.4461316" x="3.116935" y="-93.403069"/>
    <rect y="-92.938042" x="3.5819547" height="0.51612419" width="0.51612419" id="pref_15rect17-6" style="fill:#fcf23a;fill-opacity:1;fill-rule:nonzero;stroke:#eb9d02;stroke-width:0.123876;stroke-linecap:round;stroke-linejoin:bevel;stroke-miterlimit:4;stroke-dasharray:none;stroke-opacity:1"/>
    <rect style="fill:#000000;fill-opacity:1;fill-rule:nonzero;stroke:#141414;stroke-width:1.15387;stroke-linecap:round;stroke-linejoin:bevel;stroke-miterlimit:4;stroke-dasharray:none;stroke-opacity:1" id="pref_15rect21-2" width="1.4461316" height="1.4461316" x="3.116935" y="-90.863068"/>
    <rect y="-90.398048" x="3.5819547" height="0.51612419" width="0.51612419" id="pref_15rect23-9" style="fill:#fcf23a;fill-opacity:1;fill-rule:nonzero;stroke:#eb9d02;stroke-width:0.123876;stroke-linecap:round;stroke-linejoin:bevel;stroke-miterlimit:4;stroke-dasharray:none;stroke-opacity:1"/>
  </g>
  </g></g><!--Mlab_Mechanical:MountingHole_3mm:M2--><g transform="translate(137.16 96.52) scale(1.0, 1.0) rotate(-0.0) translate(-0.75 -0.75)"><use xmlns:xlink="http://www.w3.org/1999/xlink" xlink:href="#pref_12_Mlab_Mechanical__MountingHole_3mm_HOLEM3"/></g><!--Capacitor_SMD:C_0805_2012Metric.back:C1--><!--Fiducial:Fiducial_1mm_Mask2mm.back:FID2--><!--Fiducial:Fiducial_1mm_Mask2mm.back:FID1--><g transform="translate(142.0 97.0) scale(0.9999995454526861, 0.9999995454675615) rotate(-180.0) translate(-0.099995501 -0.10003144)"><use xmlns:xlink="http://www.w3.org/1999/xlink" xlink:href="#pref_12_Fiducial__Fiducial_1mm_Mask2mmback_Fiducial"/></g><!--Capacitor_SMD:C_0805_2012Metric.back:C2--></g></svg>