<!DOCTYPE svg PUBLIC "-//W3C//DTD SVG 1.1//EN" "http://www.w3.org/Graphics/SVG/1.1/DTD/svg11.dtd">
<svg xmlns="http://www.w3.org/2000/svg" version="1.1" width="29.939mm" height="40.099mm" viewBox="1272705.0 663105.0 299390.0 400990.0">
            <title>Picture generated by PcbDraw </title>
            <desc>Picture generated by PcbDraw</desc>
        <defs><clipPath id="cut-off"><path d=" M 1323340.0 1013460.0 L 1323340.0 713740.0 L 1521460.0 713740.0 L 1521460.0 1013460.0 L 1323340.0 1013460.0 " style="fill-rule: evenodd;"/></clipPath><mask id="pads-mask"><g style="fill:#ffffff; fill-opacity:0.0;  stroke:#ffffff; stroke-width:0.000000; stroke-opacity:1;  stroke-linecap:round; stroke-linejoin:round;">
<g style="fill:#ffffff; fill-opacity:1.0;  stroke:#ffffff; stroke-width:0.010000; stroke-opacity:1;  stroke-linecap:round; stroke-linejoin:round;">
<circle cx="1473200.000000" cy="965200.000000" r="30000.000000"/> 
</g>
<g style="fill:#ffffff; fill-opacity:1.0;  stroke:#ffffff; stroke-width:0.010000; stroke-opacity:1;  stroke-linecap:round; stroke-linejoin:round;">
<circle cx="1371600.000000" cy="762000.000000" r="30000.000000"/> 
</g>
<g style="fill:#ffffff; fill-opacity:1.0;  stroke:#ffffff; stroke-width:0.010000; stroke-opacity:1;  stroke-linecap:round; stroke-linejoin:round;">
<circle cx="1473200.000000" cy="762000.000000" r="30000.000000"/> 
</g>
<g style="fill:#ffffff; fill-opacity:1.0;  stroke:#ffffff; stroke-width:0.010000; stroke-opacity:1;  stroke-linecap:round; stroke-linejoin:round;">
<path style="fill:#ffffff; fill-opacity:1.0;  stroke:#ffffff; stroke-width:0.010000; stroke-opacity:1;  stroke-linecap:round; stroke-linejoin:round;fill-rule:evenodd;" d="M 1452880.000000,833120.000000 1452880.000000,817880.000000 1468120.000000,817880.000000 1468120.000000,833120.000000 Z"/> 
<path style="fill:#ffffff; fill-opacity:1.0;  stroke:#ffffff; stroke-width:0.010000; stroke-opacity:1;  stroke-linecap:round; stroke-linejoin:round;fill-rule:evenodd;" d="M 1478280.000000,833120.000000 1478280.000000,817880.000000 1493520.000000,817880.000000 1493520.000000,833120.000000 Z"/> 
<path style="fill:#ffffff; fill-opacity:1.0;  stroke:#ffffff; stroke-width:0.010000; stroke-opacity:1;  stroke-linecap:round; stroke-linejoin:round;fill-rule:evenodd;" d="M 1452880.000000,858520.000000 1452880.000000,843280.000000 1468120.000000,843280.000000 1468120.000000,858520.000000 Z"/> 
<path style="fill:#ffffff; fill-opacity:1.0;  stroke:#ffffff; stroke-width:0.010000; stroke-opacity:1;  stroke-linecap:round; stroke-linejoin:round;fill-rule:evenodd;" d="M 1478280.000000,858520.000000 1478280.000000,843280.000000 1493520.000000,843280.000000 1493520.000000,858520.000000 Z"/> 
<path style="fill:#ffffff; fill-opacity:1.0;  stroke:#ffffff; stroke-width:0.010000; stroke-opacity:1;  stroke-linecap:round; stroke-linejoin:round;fill-rule:evenodd;" d="M 1452880.000000,883920.000000 1452880.000000,868680.000000 1468120.000000,868680.000000 1468120.000000,883920.000000 Z"/> 
<path style="fill:#ffffff; fill-opacity:1.0;  stroke:#ffffff; stroke-width:0.010000; stroke-opacity:1;  stroke-linecap:round; stroke-linejoin:round;fill-rule:evenodd;" d="M 1478280.000000,883920.000000 1478280.000000,868680.000000 1493520.000000,868680.000000 1493520.000000,883920.000000 Z"/> 
<path style="fill:#ffffff; fill-opacity:1.0;  stroke:#ffffff; stroke-width:0.010000; stroke-opacity:1;  stroke-linecap:round; stroke-linejoin:round;fill-rule:evenodd;" d="M 1452880.000000,909320.000000 1452880.000000,894080.000000 1468120.000000,894080.000000 1468120.000000,909320.000000 Z"/> 
<path style="fill:#ffffff; fill-opacity:1.0;  stroke:#ffffff; stroke-width:0.010000; stroke-opacity:1;  stroke-linecap:round; stroke-linejoin:round;fill-rule:evenodd;" d="M 1478280.000000,909320.000000 1478280.000000,894080.000000 1493520.000000,894080.000000 1493520.000000,909320.000000 Z"/> 
</g>
<g style="fill:#ffffff; fill-opacity:1.0;  stroke:#ffffff; stroke-width:0.010000; stroke-opacity:1;  stroke-linecap:round; stroke-linejoin:round;">
<circle cx="1371600.000000" cy="965200.000000" r="30000.000000"/> 
</g>
</g> 
</mask><mask id="pads-mask-silkscreen"><rect x="1322705.0" y="713105.0" width="199390.0" height="300990.0" fill="white"/><g style="fill:#000000; fill-opacity:0.0;  stroke:#000000; stroke-width:0.000000; stroke-opacity:1;  stroke-linecap:round; stroke-linejoin:round;">
<g style="fill:#000000; fill-opacity:1.0;  stroke:#000000; stroke-width:0.010000; stroke-opacity:1;  stroke-linecap:round; stroke-linejoin:round;">
<circle cx="1473200.000000" cy="965200.000000" r="30000.000000"/> 
</g>
<g style="fill:#000000; fill-opacity:1.0;  stroke:#000000; stroke-width:0.010000; stroke-opacity:1;  stroke-linecap:round; stroke-linejoin:round;">
<circle cx="1371600.000000" cy="762000.000000" r="30000.000000"/> 
</g>
<g style="fill:#000000; fill-opacity:1.0;  stroke:#000000; stroke-width:0.010000; stroke-opacity:1;  stroke-linecap:round; stroke-linejoin:round;">
<circle cx="1473200.000000" cy="762000.000000" r="30000.000000"/> 
</g>
<g style="fill:#000000; fill-opacity:1.0;  stroke:#000000; stroke-width:0.010000; stroke-opacity:1;  stroke-linecap:round; stroke-linejoin:round;">
<path style="fill:#000000; fill-opacity:1.0;  stroke:#000000; stroke-width:0.010000; stroke-opacity:1;  stroke-linecap:round; stroke-linejoin:round;fill-rule:evenodd;" d="M 1452880.000000,833120.000000 1452880.000000,817880.000000 1468120.000000,817880.000000 1468120.000000,833120.000000 Z"/> 
<path style="fill:#000000; fill-opacity:1.0;  stroke:#000000; stroke-width:0.010000; stroke-opacity:1;  stroke-linecap:round; stroke-linejoin:round;fill-rule:evenodd;" d="M 1478280.000000,833120.000000 1478280.000000,817880.000000 1493520.000000,817880.000000 1493520.000000,833120.000000 Z"/> 
<path style="fill:#000000; fill-opacity:1.0;  stroke:#000000; stroke-width:0.010000; stroke-opacity:1;  stroke-linecap:round; stroke-linejoin:round;fill-rule:evenodd;" d="M 1452880.000000,858520.000000 1452880.000000,843280.000000 1468120.000000,843280.000000 1468120.000000,858520.000000 Z"/> 
<path style="fill:#000000; fill-opacity:1.0;  stroke:#000000; stroke-width:0.010000; stroke-opacity:1;  stroke-linecap:round; stroke-linejoin:round;fill-rule:evenodd;" d="M 1478280.000000,858520.000000 1478280.000000,843280.000000 1493520.000000,843280.000000 1493520.000000,858520.000000 Z"/> 
<path style="fill:#000000; fill-opacity:1.0;  stroke:#000000; stroke-width:0.010000; stroke-opacity:1;  stroke-linecap:round; stroke-linejoin:round;fill-rule:evenodd;" d="M 1452880.000000,883920.000000 1452880.000000,868680.000000 1468120.000000,868680.000000 1468120.000000,883920.000000 Z"/> 
<path style="fill:#000000; fill-opacity:1.0;  stroke:#000000; stroke-width:0.010000; stroke-opacity:1;  stroke-linecap:round; stroke-linejoin:round;fill-rule:evenodd;" d="M 1478280.000000,883920.000000 1478280.000000,868680.000000 1493520.000000,868680.000000 1493520.000000,883920.000000 Z"/> 
<path style="fill:#000000; fill-opacity:1.0;  stroke:#000000; stroke-width:0.010000; stroke-opacity:1;  stroke-linecap:round; stroke-linejoin:round;fill-rule:evenodd;" d="M 1452880.000000,909320.000000 1452880.000000,894080.000000 1468120.000000,894080.000000 1468120.000000,909320.000000 Z"/> 
<path style="fill:#000000; fill-opacity:1.0;  stroke:#000000; stroke-width:0.010000; stroke-opacity:1;  stroke-linecap:round; stroke-linejoin:round;fill-rule:evenodd;" d="M 1478280.000000,909320.000000 1478280.000000,894080.000000 1493520.000000,894080.000000 1493520.000000,909320.000000 Z"/> 
</g>
<g style="fill:#000000; fill-opacity:1.0;  stroke:#000000; stroke-width:0.010000; stroke-opacity:1;  stroke-linecap:round; stroke-linejoin:round;">
<circle cx="1371600.000000" cy="965200.000000" r="30000.000000"/> 
</g>
</g> 
</mask><mask id="hole-mask"><g><rect x="1322705.0" y="713105.0" fill="white" width="199390.0" height="300990.0"/><polyline stroke-linecap="round" stroke="black" stroke-width="30000.0" points="-0.0 0 0.0 0" transform="translate(1473200.0 965200.0) rotate(-0.0)"/><polyline stroke-linecap="round" stroke="black" stroke-width="30000.0" points="-0.0 0 0.0 0" transform="translate(1371600.0 762000.0) rotate(-0.0)"/><polyline stroke-linecap="round" stroke="black" stroke-width="30000.0" points="-0.0 0 0.0 0" transform="translate(1473200.0 762000.0) rotate(-0.0)"/><polyline stroke-linecap="round" stroke="black" stroke-width="8890.0" points="-0.0 0 0.0 0" transform="translate(1460500.0 825500.0) rotate(-0.0)"/><polyline stroke-linecap="round" stroke="black" stroke-width="8890.0" points="-0.0 0 0.0 0" transform="translate(1485900.0 825500.0) rotate(-0.0)"/><polyline stroke-linecap="round" stroke="black" stroke-width="8890.0" points="-0.0 0 0.0 0" transform="translate(1460500.0 850900.0) rotate(-0.0)"/><polyline stroke-linecap="round" stroke="black" stroke-width="8890.0" points="-0.0 0 0.0 0" transform="translate(1485900.0 850900.0) rotate(-0.0)"/><polyline stroke-linecap="round" stroke="black" stroke-width="8890.0" points="-0.0 0 0.0 0" transform="translate(1460500.0 876300.0) rotate(-0.0)"/><polyline stroke-linecap="round" stroke="black" stroke-width="8890.0" points="-0.0 0 0.0 0" transform="translate(1485900.0 876300.0) rotate(-0.0)"/><polyline stroke-linecap="round" stroke="black" stroke-width="8890.0" points="-0.0 0 0.0 0" transform="translate(1460500.0 901700.0) rotate(-0.0)"/><polyline stroke-linecap="round" stroke="black" stroke-width="8890.0" points="-0.0 0 0.0 0" transform="translate(1485900.0 901700.0) rotate(-0.0)"/><polyline stroke-linecap="round" stroke="black" stroke-width="30000.0" points="-0.0 0 0.0 0" transform="translate(1371600.0 965200.0) rotate(-0.0)"/><polyline stroke-linecap="round" stroke="black" stroke-width="4000.0" points="-0.0 0 0.0 0" transform="translate(1381760.0 914400.0) rotate(0)"/><polyline stroke-linecap="round" stroke="black" stroke-width="4000.0" points="-0.0 0 0.0 0" transform="translate(1336040.0 848360.0) rotate(0)"/><polyline stroke-linecap="round" stroke="black" stroke-width="4000.0" points="-0.0 0 0.0 0" transform="translate(1414780.0 947420.0) rotate(0)"/><polyline stroke-linecap="round" stroke="black" stroke-width="4000.0" points="-0.0 0 0.0 0" transform="translate(1427480.0 947420.0) rotate(0)"/><polyline stroke-linecap="round" stroke="black" stroke-width="4000.0" points="-0.0 0 0.0 0" transform="translate(1336040.0 810260.0) rotate(0)"/><polyline stroke-linecap="round" stroke="black" stroke-width="4000.0" points="-0.0 0 0.0 0" transform="translate(1381760.0 904240.0) rotate(0)"/><polyline stroke-linecap="round" stroke="black" stroke-width="4000.0" points="-0.0 0 0.0 0" transform="translate(1336040.0 830580.0) rotate(0)"/><polyline stroke-linecap="round" stroke="black" stroke-width="4000.0" points="-0.0 0 0.0 0" transform="translate(1371600.0 848360.0) rotate(0)"/><polyline stroke-linecap="round" stroke="black" stroke-width="4000.0" points="-0.0 0 0.0 0" transform="translate(1336040.0 820420.0) rotate(0)"/><polyline stroke-linecap="round" stroke="black" stroke-width="4000.0" points="-0.0 0 0.0 0" transform="translate(1397000.0 927100.0) rotate(0)"/><polyline stroke-linecap="round" stroke="black" stroke-width="4000.0" points="-0.0 0 0.0 0" transform="translate(1397000.0 876300.0) rotate(0)"/><polyline stroke-linecap="round" stroke="black" stroke-width="4000.0" points="-0.0 0 0.0 0" transform="translate(1371600.0 863600.0) rotate(0)"/></g></mask></defs><g transform="" id="boardContainer"><g id="substrate" clip-path="url(#cut-off)" mask="url(#hole-mask)"><g id="substrate-board" style="fill:#f1f4f3; stroke:#f1f4f3;"><path d=" M 1323340.0 1013460.0 L 1323340.0 713740.0 L 1521460.0 713740.0 L 1521460.0 1013460.0 L 1323340.0 1013460.0 " style="fill-rule: evenodd;"/><g style="fill-opacity: 0.0;stroke-width: 1270.000000;stroke-opacity: 1;stroke-linecap: round;stroke-linejoin: round">
<path d="M1521460 1013460 L1323340 1013460 "/>
<path d="M1323340 713740 L1323340 1013460 "/>
<path d="M1521460 713740 L1521460 1013460 "/>
<path d="M1323340 713740 L1521460 713740 "/>
</g> 
</g><g id="substrate-clad" style="fill:#72786c; stroke:#72786c;"><g style="fill-opacity: 0.0;stroke-width: 0.000000;stroke-opacity: 1;stroke-linecap: round;stroke-linejoin: round">
<g style="fill-opacity: 1.0;stroke-width: 0.010000;stroke-opacity: 1;stroke-linecap: round;stroke-linejoin: round">
<circle cx="1473200.000000" cy="965200.000000" r="30000.000000"/> 
</g>
<g style="fill-opacity: 1.0;stroke-width: 0.010000;stroke-opacity: 1;stroke-linecap: round;stroke-linejoin: round">
<circle cx="1371600.000000" cy="762000.000000" r="30000.000000"/> 
</g>
<g style="fill-opacity: 1.0;stroke-width: 0.010000;stroke-opacity: 1;stroke-linecap: round;stroke-linejoin: round">
<circle cx="1473200.000000" cy="762000.000000" r="30000.000000"/> 
</g>
<g style="fill-opacity: 1.0;stroke-width: 0.010000;stroke-opacity: 1;stroke-linecap: round;stroke-linejoin: round">
<path style="fill-opacity: 1.0;stroke-width: 0.010000;stroke-opacity: 1;stroke-linecap: round;stroke-linejoin: round;fill-rule: evenodd" d="M 1452880.000000,833120.000000 1452880.000000,817880.000000 1468120.000000,817880.000000 1468120.000000,833120.000000 Z"/> 
<path style="fill-opacity: 1.0;stroke-width: 0.010000;stroke-opacity: 1;stroke-linecap: round;stroke-linejoin: round;fill-rule: evenodd" d="M 1478280.000000,833120.000000 1478280.000000,817880.000000 1493520.000000,817880.000000 1493520.000000,833120.000000 Z"/> 
<path style="fill-opacity: 1.0;stroke-width: 0.010000;stroke-opacity: 1;stroke-linecap: round;stroke-linejoin: round;fill-rule: evenodd" d="M 1452880.000000,858520.000000 1452880.000000,843280.000000 1468120.000000,843280.000000 1468120.000000,858520.000000 Z"/> 
<path style="fill-opacity: 1.0;stroke-width: 0.010000;stroke-opacity: 1;stroke-linecap: round;stroke-linejoin: round;fill-rule: evenodd" d="M 1478280.000000,858520.000000 1478280.000000,843280.000000 1493520.000000,843280.000000 1493520.000000,858520.000000 Z"/> 
<path style="fill-opacity: 1.0;stroke-width: 0.010000;stroke-opacity: 1;stroke-linecap: round;stroke-linejoin: round;fill-rule: evenodd" d="M 1452880.000000,883920.000000 1452880.000000,868680.000000 1468120.000000,868680.000000 1468120.000000,883920.000000 Z"/> 
<path style="fill-opacity: 1.0;stroke-width: 0.010000;stroke-opacity: 1;stroke-linecap: round;stroke-linejoin: round;fill-rule: evenodd" d="M 1478280.000000,883920.000000 1478280.000000,868680.000000 1493520.000000,868680.000000 1493520.000000,883920.000000 Z"/> 
<path style="fill-opacity: 1.0;stroke-width: 0.010000;stroke-opacity: 1;stroke-linecap: round;stroke-linejoin: round;fill-rule: evenodd" d="M 1452880.000000,909320.000000 1452880.000000,894080.000000 1468120.000000,894080.000000 1468120.000000,909320.000000 Z"/> 
<path style="fill-opacity: 1.0;stroke-width: 0.010000;stroke-opacity: 1;stroke-linecap: round;stroke-linejoin: round;fill-rule: evenodd" d="M 1478280.000000,909320.000000 1478280.000000,894080.000000 1493520.000000,894080.000000 1493520.000000,909320.000000 Z"/> 
</g>
<g style="fill-opacity: 1.0;stroke-width: 0.010000;stroke-opacity: 1;stroke-linecap: round;stroke-linejoin: round">
<circle cx="1371600.000000" cy="965200.000000" r="30000.000000"/> 
</g>
</g> 
</g><g id="substrate-copper" style="fill:#f8f8f7; stroke:#f8f8f7;"><g style="fill-opacity: 0.0;stroke-width: 0.000000;stroke-opacity: 1;stroke-linecap: round;stroke-linejoin: round">
<g style="fill-opacity: 1.0;stroke-width: 0.010000;stroke-opacity: 1;stroke-linecap: round;stroke-linejoin: round">
<circle cx="1473200.000000" cy="965200.000000" r="30000.000000"/> 
</g>
<g style="fill-opacity: 1.0;stroke-width: 0.010000;stroke-opacity: 1;stroke-linecap: round;stroke-linejoin: round">
<circle cx="1371600.000000" cy="762000.000000" r="30000.000000"/> 
</g>
<g style="fill-opacity: 1.0;stroke-width: 0.010000;stroke-opacity: 1;stroke-linecap: round;stroke-linejoin: round">
<circle cx="1473200.000000" cy="762000.000000" r="30000.000000"/> 
</g>
<g style="fill-opacity: 1.0;stroke-width: 0.010000;stroke-opacity: 1;stroke-linecap: round;stroke-linejoin: round">
<path style="fill-opacity: 1.0;stroke-width: 0.010000;stroke-opacity: 1;stroke-linecap: round;stroke-linejoin: round;fill-rule: evenodd" d="M 1452880.000000,833120.000000 1452880.000000,817880.000000 1468120.000000,817880.000000 1468120.000000,833120.000000 Z"/> 
<path style="fill-opacity: 1.0;stroke-width: 0.010000;stroke-opacity: 1;stroke-linecap: round;stroke-linejoin: round;fill-rule: evenodd" d="M 1478280.000000,833120.000000 1478280.000000,817880.000000 1493520.000000,817880.000000 1493520.000000,833120.000000 Z"/> 
<path style="fill-opacity: 1.0;stroke-width: 0.010000;stroke-opacity: 1;stroke-linecap: round;stroke-linejoin: round;fill-rule: evenodd" d="M 1452880.000000,858520.000000 1452880.000000,843280.000000 1468120.000000,843280.000000 1468120.000000,858520.000000 Z"/> 
<path style="fill-opacity: 1.0;stroke-width: 0.010000;stroke-opacity: 1;stroke-linecap: round;stroke-linejoin: round;fill-rule: evenodd" d="M 1478280.000000,858520.000000 1478280.000000,843280.000000 1493520.000000,843280.000000 1493520.000000,858520.000000 Z"/> 
<path style="fill-opacity: 1.0;stroke-width: 0.010000;stroke-opacity: 1;stroke-linecap: round;stroke-linejoin: round;fill-rule: evenodd" d="M 1452880.000000,883920.000000 1452880.000000,868680.000000 1468120.000000,868680.000000 1468120.000000,883920.000000 Z"/> 
<path style="fill-opacity: 1.0;stroke-width: 0.010000;stroke-opacity: 1;stroke-linecap: round;stroke-linejoin: round;fill-rule: evenodd" d="M 1478280.000000,883920.000000 1478280.000000,868680.000000 1493520.000000,868680.000000 1493520.000000,883920.000000 Z"/> 
<path style="fill-opacity: 1.0;stroke-width: 0.010000;stroke-opacity: 1;stroke-linecap: round;stroke-linejoin: round;fill-rule: evenodd" d="M 1452880.000000,909320.000000 1452880.000000,894080.000000 1468120.000000,894080.000000 1468120.000000,909320.000000 Z"/> 
<path style="fill-opacity: 1.0;stroke-width: 0.010000;stroke-opacity: 1;stroke-linecap: round;stroke-linejoin: round;fill-rule: evenodd" d="M 1478280.000000,909320.000000 1478280.000000,894080.000000 1493520.000000,894080.000000 1493520.000000,909320.000000 Z"/> 
</g>
<g style="fill-opacity: 1.0;stroke-width: 0.010000;stroke-opacity: 1;stroke-linecap: round;stroke-linejoin: round">
<circle cx="1371600.000000" cy="965200.000000" r="30000.000000"/> 
</g>
<g style="fill-opacity: 1.0;stroke-width: 0.010000;stroke-opacity: 1;stroke-linecap: round;stroke-linejoin: round">
<circle cx="1381760.000000" cy="914400.000000" r="4000.000000"/> 
</g>
<g style="fill-opacity: 1.0;stroke-width: 0.010000;stroke-opacity: 1;stroke-linecap: round;stroke-linejoin: round">
<circle cx="1336040.000000" cy="848360.000000" r="4000.000000"/> 
</g>
<g style="fill-opacity: 1.0;stroke-width: 0.010000;stroke-opacity: 1;stroke-linecap: round;stroke-linejoin: round">
<circle cx="1414780.000000" cy="947420.000000" r="4000.000000"/> 
</g>
<g style="fill-opacity: 1.0;stroke-width: 0.010000;stroke-opacity: 1;stroke-linecap: round;stroke-linejoin: round">
<circle cx="1427480.000000" cy="947420.000000" r="4000.000000"/> 
</g>
<g style="fill-opacity: 1.0;stroke-width: 0.010000;stroke-opacity: 1;stroke-linecap: round;stroke-linejoin: round">
<circle cx="1336040.000000" cy="810260.000000" r="4000.000000"/> 
</g>
<g style="fill-opacity: 1.0;stroke-width: 0.010000;stroke-opacity: 1;stroke-linecap: round;stroke-linejoin: round">
<circle cx="1381760.000000" cy="904240.000000" r="4000.000000"/> 
</g>
<g style="fill-opacity: 1.0;stroke-width: 0.010000;stroke-opacity: 1;stroke-linecap: round;stroke-linejoin: round">
<circle cx="1336040.000000" cy="830580.000000" r="4000.000000"/> 
</g>
<g style="fill-opacity: 1.0;stroke-width: 0.010000;stroke-opacity: 1;stroke-linecap: round;stroke-linejoin: round">
<circle cx="1371600.000000" cy="848360.000000" r="4000.000000"/> 
</g>
<g style="fill-opacity: 1.0;stroke-width: 0.010000;stroke-opacity: 1;stroke-linecap: round;stroke-linejoin: round">
<circle cx="1336040.000000" cy="820420.000000" r="4000.000000"/> 
</g>
<g style="fill-opacity: 1.0;stroke-width: 0.010000;stroke-opacity: 1;stroke-linecap: round;stroke-linejoin: round">
<circle cx="1397000.000000" cy="927100.000000" r="4000.000000"/> 
</g>
<g style="fill-opacity: 1.0;stroke-width: 0.010000;stroke-opacity: 1;stroke-linecap: round;stroke-linejoin: round">
<circle cx="1397000.000000" cy="876300.000000" r="4000.000000"/> 
</g>
<g style="fill-opacity: 1.0;stroke-width: 0.010000;stroke-opacity: 1;stroke-linecap: round;stroke-linejoin: round">
<circle cx="1371600.000000" cy="863600.000000" r="4000.000000"/> 
</g>
<g style="fill-opacity: 0.0;stroke-width: 3048.000000;stroke-opacity: 1;stroke-linecap: round;stroke-linejoin: round">
<path d="M1460500 876300 L1397000 876300 "/>
<path d="M1460500 901700 L1409700 901700 "/>
<path d="M1409700 901700 L1371600 863600 "/>
</g>
<g style="fill-opacity: 0.0;stroke-width: 3048.000000;stroke-opacity: 1;stroke-linecap: round;stroke-linejoin: round">
<g style="fill-opacity: 1.0;stroke-width: 0.010000;stroke-opacity: 1;stroke-linecap: round;stroke-linejoin: round">
<path style="fill-opacity: 1.0;stroke-width: 0.010000;stroke-opacity: 1;stroke-linecap: round;stroke-linejoin: round;fill-rule: evenodd" d="M 1515796.210000,719025.020000 1516261.140000,719561.580000 1516375.000000,720085.000000 1516375.000000,1007115.000000 1516174.980000,1007796.210000 1515638.420000,1008261.140000 1515115.000000,1008375.000000 1329685.000000,1008375.000000 1329003.790000,1008174.980000 1328538.860000,1007638.420000 1328425.000000,1007115.000000 1328425.000000,863600.000000 1362464.960000,863600.000000 1362471.860000,863665.650000 1362625.010000,865122.760000 1362664.580000,865499.280000 1363254.730000,867315.560000 1364209.600000,868969.440000 1364253.780000,869018.510000 1364253.790000,869018.520000 1364697.530000,869511.340000 1365487.470000,870388.660000 1367032.480000,871511.180000 1367092.760000,871538.020000 1367092.780000,871538.030000 1368716.810000,872261.090000 1368777.120000,872287.940000 1369711.130000,872486.470000 1370580.560000,872671.280000 1370580.610000,872671.280000 1370645.130000,872685.000000 1370816.560000,872685.000000 1371497.770000,872885.020000 1371707.510000,873054.050000 1404833.930000,906180.470000 1404892.460000,906243.120000 1405245.240000,906647.520000 1405730.930000,906988.870000 1405783.860000,907028.180000 1406251.220000,907394.630000 1406320.500000,907425.910000 1406382.060000,907463.190000 1406428.250000,907489.540000 1406491.810000,907523.620000 1406553.970000,907567.310000 1406624.760000,907594.910000 1407106.980000,907782.920000 1407167.790000,907808.480000 1407709.120000,908052.900000 1407783.860000,908066.750000 1407852.200000,908088.170000 1407903.680000,908102.840000 1407973.530000,908120.770000 1408044.340000,908148.380000 1408119.710000,908158.300000 1408119.700000,908158.300000 1408632.890000,908225.860000 1408698.050000,908236.180000 1409207.280000,908330.560000 1409207.300000,908330.560000 1409281.970000,908344.400000 1409357.770000,908340.030000 1409357.780000,908340.030000 1409859.680000,908311.090000 1409932.210000,908309.000000 1446535.000000,908309.000000 1447216.210000,908509.020000 1447681.140000,909045.580000 1447795.000000,909569.000000 1447795.000000,909801.340000 1447862.550000,910423.160000 1448373.850000,911787.050000 1449247.390000,912952.610000 1450412.950000,913826.150000 1451776.840000,914337.450000 1452398.660000,914405.000000 1468601.340000,914405.000000 1469223.160000,914337.450000 1470587.050000,913826.150000 1471752.610000,912952.610000 1472194.870000,912362.510000 1472763.440000,911937.360000 1473471.630000,911887.100000 1474094.560000,912227.700000 1474211.380000,912362.510000 1474597.150000,912877.240000 1474722.760000,913002.850000 1475743.510000,913767.860000 1475899.460000,913853.240000 1477103.940000,914304.780000 1477256.490000,914341.050000 1477765.140000,914396.310000 1477833.280000,914400.000000 1483178.850000,914400.000000 1483331.240000,914355.250000 1483343.290000,914341.350000 1483360.000000,914264.520000 1483360.000000,914218.840000 1488440.000000,914218.840000 1488484.750000,914371.230000 1488498.650000,914383.280000 1488575.480000,914399.990000 1493966.690000,914399.990000 1494034.900000,914396.290000 1494543.520000,914341.050000 1494696.040000,914304.790000 1495900.540000,913853.240000 1496056.490000,913767.860000 1497077.240000,913002.850000 1497202.850000,912877.240000 1497967.860000,911856.490000 1498053.240000,911700.540000 1498504.780000,910496.060000 1498541.050000,910343.510000 1498596.310000,909834.860000 1498600.000000,909766.720000 1498600.000000,904421.150000 1498555.250000,904268.760000 1498541.350000,904256.710000 1498464.520000,904240.000000 1488621.150000,904240.000000 1488468.760000,904284.750000 1488456.710000,904298.650000 1488440.000000,904375.480000 1488440.000000,914218.840000 1483360.000000,914218.840000 1483360.000000,898978.850000 1488440.000000,898978.850000 1488484.750000,899131.240000 1488498.650000,899143.290000 1488575.480000,899160.000000 1498418.840000,899160.000000 1498571.230000,899115.250000 1498583.280000,899101.350000 1498599.990000,899024.520000 1498599.990000,893633.310000 1498596.290000,893565.100000 1498541.050000,893056.480000 1498504.790000,892903.960000 1498053.240000,891699.460000 1497967.860000,891543.510000 1497202.850000,890522.760000 1497077.250000,890397.160000 1496558.350000,890008.270000 1496133.190000,889439.680000 1496082.930000,888731.490000 1496423.530000,888108.560000 1496558.350000,887991.730000 1497077.250000,887602.840000 1497202.850000,887477.240000 1497967.860000,886456.490000 1498053.240000,886300.540000 1498504.780000,885096.060000 1498541.050000,884943.510000 1498596.310000,884434.860000 1498600.000000,884366.720000 1498600.000000,879021.150000 1498555.250000,878868.760000 1498541.350000,878856.710000 1498464.520000,878840.000000 1488621.150000,878840.000000 1488468.760000,878884.750000 1488456.710000,878898.650000 1488440.000000,878975.480000 1488440.000000,898978.850000 1483360.000000,898978.850000 1483360.000000,875020.000000 1483560.020000,874338.790000 1484096.580000,873873.860000 1484620.000000,873760.000000 1498418.840000,873760.000000 1498571.230000,873715.250000 1498583.280000,873701.350000 1498599.990000,873624.520000 1498599.990000,868233.310000 1498596.290000,868165.100000 1498541.050000,867656.480000 1498504.790000,867503.960000 1498053.240000,866299.460000 1497967.860000,866143.510000 1497202.850000,865122.760000 1497077.240000,864997.150000 1496562.510000,864611.380000 1496137.360000,864042.790000 1496087.100000,863334.600000 1496427.700000,862711.670000 1496562.450000,862594.910000 1497152.610000,862152.610000 1498026.150000,860987.050000 1498537.450000,859623.160000 1498605.000000,859001.340000 1498605.000000,842798.660000 1498537.450000,842176.840000 1498026.150000,840812.950000 1497152.610000,839647.390000 1496566.680000,839208.260000 1496141.530000,838639.670000 1496091.270000,837931.480000 1496431.870000,837308.550000 1496566.680000,837191.740000 1497080.810000,836806.420000 1497152.610000,836752.610000 1498026.150000,835587.050000 1498537.450000,834223.160000 1498605.000000,833601.340000 1498605.000000,817398.660000 1498537.450000,816776.840000 1498026.150000,815412.950000 1497152.610000,814247.390000 1495987.050000,813373.850000 1494623.160000,812862.550000 1494001.340000,812795.000000 1477798.660000,812795.000000 1477176.840000,812862.550000 1475812.950000,813373.850000 1474647.390000,814247.390000 1474593.580000,814319.190000 1474208.260000,814833.320000 1473639.670000,815258.470000 1472931.480000,815308.730000 1472308.550000,814968.130000 1472191.740000,814833.320000 1471806.420000,814319.190000 1471752.610000,814247.390000 1470587.050000,813373.850000 1469223.160000,812862.550000 1468601.340000,812795.000000 1452398.660000,812795.000000 1451776.840000,812862.550000 1450412.950000,813373.850000 1449247.390000,814247.390000 1448373.850000,815412.950000 1447862.550000,816776.840000 1447795.000000,817398.660000 1447795.000000,833601.340000 1447862.550000,834223.160000 1448373.850000,835587.050000 1449247.390000,836752.610000 1449319.190000,836806.420000 1449833.320000,837191.740000 1450258.470000,837760.330000 1450308.730000,838468.520000 1449968.130000,839091.450000 1449833.330000,839208.250000 1449247.390000,839647.390000 1448373.850000,840812.950000 1447862.550000,842176.840000 1447795.000000,842798.660000 1447795.000000,859001.340000 1447862.550000,859623.160000 1448373.850000,860987.050000 1449247.390000,862152.610000 1449319.180000,862206.410000 1449319.190000,862206.420000 1449833.320000,862591.740000 1450258.470000,863160.330000 1450308.730000,863868.520000 1449968.130000,864491.450000 1449833.330000,864608.250000 1449247.390000,865047.390000 1448373.850000,866212.950000 1447862.550000,867576.840000 1447795.000000,868198.660000 1447795.000000,868431.000000 1447594.980000,869112.210000 1447058.420000,869577.140000 1446535.000000,869691.000000 1403769.210000,869691.000000 1403088.000000,869490.980000 1403028.600000,869450.360000 1401620.940000,868427.630000 1401620.930000,868427.620000 1401567.520000,868388.820000 1401507.240000,868361.980000 1401507.220000,868361.970000 1399883.190000,867638.910000 1399883.180000,867638.910000 1399822.880000,867612.060000 1398697.210000,867372.790000 1398019.440000,867228.720000 1398019.390000,867228.720000 1397954.870000,867215.000000 1396045.130000,867215.000000 1395980.610000,867228.720000 1395980.560000,867228.720000 1395302.790000,867372.790000 1394177.120000,867612.060000 1394116.820000,867638.910000 1394116.810000,867638.910000 1392492.780000,868361.970000 1392492.760000,868361.980000 1392432.480000,868388.820000 1390887.470000,869511.340000 1389866.680000,870645.050000 1389262.260000,871017.420000 1388552.420000,871003.910000 1388039.400000,870692.870000 1381025.710000,863679.180000 1380685.450000,863056.060000 1380663.560000,862919.930000 1380641.350000,862708.550000 1380588.570000,862206.410000 1380542.320000,861766.350000 1380542.320000,861766.330000 1380535.420000,861700.720000 1379945.270000,859884.440000 1378990.400000,858230.560000 1377712.530000,856811.340000 1376167.520000,855688.820000 1376107.240000,855661.980000 1376107.220000,855661.970000 1374483.190000,854938.910000 1374483.180000,854938.910000 1374422.880000,854912.060000 1373488.870000,854713.530000 1372619.440000,854528.720000 1372619.390000,854528.720000 1372554.870000,854515.000000 1370645.130000,854515.000000 1370580.610000,854528.720000 1370580.560000,854528.720000 1369711.120000,854713.530000 1368777.120000,854912.060000 1368716.820000,854938.910000 1368716.810000,854938.910000 1367092.780000,855661.970000 1367092.760000,855661.980000 1367032.480000,855688.820000 1365487.470000,856811.340000 1364209.600000,858230.560000 1363254.730000,859884.440000 1362664.580000,861700.720000 1362657.680000,861766.330000 1362657.680000,861766.350000 1362611.430000,862206.410000 1362464.960000,863600.000000 1328425.000000,863600.000000 1328425.000000,720085.000000 1328625.020000,719403.790000 1329161.580000,718938.860000 1329685.000000,718825.000000 1515115.000000,718825.000000 Z"/> 
</g>
</g>
</g> 
</g><g id="substrate-pads" style="fill:#c4c1ba; stroke:#c4c1ba;" mask="url(#pads-mask)"><g style="fill-opacity: 0.0;stroke-width: 0.000000;stroke-opacity: 1;stroke-linecap: round;stroke-linejoin: round">
<g style="fill-opacity: 1.0;stroke-width: 0.010000;stroke-opacity: 1;stroke-linecap: round;stroke-linejoin: round">
<circle cx="1473200.000000" cy="965200.000000" r="30000.000000"/> 
</g>
<g style="fill-opacity: 1.0;stroke-width: 0.010000;stroke-opacity: 1;stroke-linecap: round;stroke-linejoin: round">
<circle cx="1371600.000000" cy="762000.000000" r="30000.000000"/> 
</g>
<g style="fill-opacity: 1.0;stroke-width: 0.010000;stroke-opacity: 1;stroke-linecap: round;stroke-linejoin: round">
<circle cx="1473200.000000" cy="762000.000000" r="30000.000000"/> 
</g>
<g style="fill-opacity: 1.0;stroke-width: 0.010000;stroke-opacity: 1;stroke-linecap: round;stroke-linejoin: round">
<path style="fill-opacity: 1.0;stroke-width: 0.010000;stroke-opacity: 1;stroke-linecap: round;stroke-linejoin: round;fill-rule: evenodd" d="M 1452880.000000,833120.000000 1452880.000000,817880.000000 1468120.000000,817880.000000 1468120.000000,833120.000000 Z"/> 
<path style="fill-opacity: 1.0;stroke-width: 0.010000;stroke-opacity: 1;stroke-linecap: round;stroke-linejoin: round;fill-rule: evenodd" d="M 1478280.000000,833120.000000 1478280.000000,817880.000000 1493520.000000,817880.000000 1493520.000000,833120.000000 Z"/> 
<path style="fill-opacity: 1.0;stroke-width: 0.010000;stroke-opacity: 1;stroke-linecap: round;stroke-linejoin: round;fill-rule: evenodd" d="M 1452880.000000,858520.000000 1452880.000000,843280.000000 1468120.000000,843280.000000 1468120.000000,858520.000000 Z"/> 
<path style="fill-opacity: 1.0;stroke-width: 0.010000;stroke-opacity: 1;stroke-linecap: round;stroke-linejoin: round;fill-rule: evenodd" d="M 1478280.000000,858520.000000 1478280.000000,843280.000000 1493520.000000,843280.000000 1493520.000000,858520.000000 Z"/> 
<path style="fill-opacity: 1.0;stroke-width: 0.010000;stroke-opacity: 1;stroke-linecap: round;stroke-linejoin: round;fill-rule: evenodd" d="M 1452880.000000,883920.000000 1452880.000000,868680.000000 1468120.000000,868680.000000 1468120.000000,883920.000000 Z"/> 
<path style="fill-opacity: 1.0;stroke-width: 0.010000;stroke-opacity: 1;stroke-linecap: round;stroke-linejoin: round;fill-rule: evenodd" d="M 1478280.000000,883920.000000 1478280.000000,868680.000000 1493520.000000,868680.000000 1493520.000000,883920.000000 Z"/> 
<path style="fill-opacity: 1.0;stroke-width: 0.010000;stroke-opacity: 1;stroke-linecap: round;stroke-linejoin: round;fill-rule: evenodd" d="M 1452880.000000,909320.000000 1452880.000000,894080.000000 1468120.000000,894080.000000 1468120.000000,909320.000000 Z"/> 
<path style="fill-opacity: 1.0;stroke-width: 0.010000;stroke-opacity: 1;stroke-linecap: round;stroke-linejoin: round;fill-rule: evenodd" d="M 1478280.000000,909320.000000 1478280.000000,894080.000000 1493520.000000,894080.000000 1493520.000000,909320.000000 Z"/> 
</g>
<g style="fill-opacity: 1.0;stroke-width: 0.010000;stroke-opacity: 1;stroke-linecap: round;stroke-linejoin: round">
<circle cx="1371600.000000" cy="965200.000000" r="30000.000000"/> 
</g>
<g style="fill-opacity: 1.0;stroke-width: 0.010000;stroke-opacity: 1;stroke-linecap: round;stroke-linejoin: round">
<circle cx="1381760.000000" cy="914400.000000" r="4000.000000"/> 
</g>
<g style="fill-opacity: 1.0;stroke-width: 0.010000;stroke-opacity: 1;stroke-linecap: round;stroke-linejoin: round">
<circle cx="1336040.000000" cy="848360.000000" r="4000.000000"/> 
</g>
<g style="fill-opacity: 1.0;stroke-width: 0.010000;stroke-opacity: 1;stroke-linecap: round;stroke-linejoin: round">
<circle cx="1414780.000000" cy="947420.000000" r="4000.000000"/> 
</g>
<g style="fill-opacity: 1.0;stroke-width: 0.010000;stroke-opacity: 1;stroke-linecap: round;stroke-linejoin: round">
<circle cx="1427480.000000" cy="947420.000000" r="4000.000000"/> 
</g>
<g style="fill-opacity: 1.0;stroke-width: 0.010000;stroke-opacity: 1;stroke-linecap: round;stroke-linejoin: round">
<circle cx="1336040.000000" cy="810260.000000" r="4000.000000"/> 
</g>
<g style="fill-opacity: 1.0;stroke-width: 0.010000;stroke-opacity: 1;stroke-linecap: round;stroke-linejoin: round">
<circle cx="1381760.000000" cy="904240.000000" r="4000.000000"/> 
</g>
<g style="fill-opacity: 1.0;stroke-width: 0.010000;stroke-opacity: 1;stroke-linecap: round;stroke-linejoin: round">
<circle cx="1336040.000000" cy="830580.000000" r="4000.000000"/> 
</g>
<g style="fill-opacity: 1.0;stroke-width: 0.010000;stroke-opacity: 1;stroke-linecap: round;stroke-linejoin: round">
<circle cx="1371600.000000" cy="848360.000000" r="4000.000000"/> 
</g>
<g style="fill-opacity: 1.0;stroke-width: 0.010000;stroke-opacity: 1;stroke-linecap: round;stroke-linejoin: round">
<circle cx="1336040.000000" cy="820420.000000" r="4000.000000"/> 
</g>
<g style="fill-opacity: 1.0;stroke-width: 0.010000;stroke-opacity: 1;stroke-linecap: round;stroke-linejoin: round">
<circle cx="1397000.000000" cy="927100.000000" r="4000.000000"/> 
</g>
<g style="fill-opacity: 1.0;stroke-width: 0.010000;stroke-opacity: 1;stroke-linecap: round;stroke-linejoin: round">
<circle cx="1397000.000000" cy="876300.000000" r="4000.000000"/> 
</g>
<g style="fill-opacity: 1.0;stroke-width: 0.010000;stroke-opacity: 1;stroke-linecap: round;stroke-linejoin: round">
<circle cx="1371600.000000" cy="863600.000000" r="4000.000000"/> 
</g>
<g style="fill-opacity: 0.0;stroke-width: 3048.000000;stroke-opacity: 1;stroke-linecap: round;stroke-linejoin: round">
<path d="M1460500 876300 L1397000 876300 "/>
<path d="M1460500 901700 L1409700 901700 "/>
<path d="M1409700 901700 L1371600 863600 "/>
</g>
<g style="fill-opacity: 0.0;stroke-width: 3048.000000;stroke-opacity: 1;stroke-linecap: round;stroke-linejoin: round">
<g style="fill-opacity: 1.0;stroke-width: 0.010000;stroke-opacity: 1;stroke-linecap: round;stroke-linejoin: round">
<path style="fill-opacity: 1.0;stroke-width: 0.010000;stroke-opacity: 1;stroke-linecap: round;stroke-linejoin: round;fill-rule: evenodd" d="M 1515796.210000,719025.020000 1516261.140000,719561.580000 1516375.000000,720085.000000 1516375.000000,1007115.000000 1516174.980000,1007796.210000 1515638.420000,1008261.140000 1515115.000000,1008375.000000 1329685.000000,1008375.000000 1329003.790000,1008174.980000 1328538.860000,1007638.420000 1328425.000000,1007115.000000 1328425.000000,863600.000000 1362464.960000,863600.000000 1362471.860000,863665.650000 1362625.010000,865122.760000 1362664.580000,865499.280000 1363254.730000,867315.560000 1364209.600000,868969.440000 1364253.780000,869018.510000 1364253.790000,869018.520000 1364697.530000,869511.340000 1365487.470000,870388.660000 1367032.480000,871511.180000 1367092.760000,871538.020000 1367092.780000,871538.030000 1368716.810000,872261.090000 1368777.120000,872287.940000 1369711.130000,872486.470000 1370580.560000,872671.280000 1370580.610000,872671.280000 1370645.130000,872685.000000 1370816.560000,872685.000000 1371497.770000,872885.020000 1371707.510000,873054.050000 1404833.930000,906180.470000 1404892.460000,906243.120000 1405245.240000,906647.520000 1405730.930000,906988.870000 1405783.860000,907028.180000 1406251.220000,907394.630000 1406320.500000,907425.910000 1406382.060000,907463.190000 1406428.250000,907489.540000 1406491.810000,907523.620000 1406553.970000,907567.310000 1406624.760000,907594.910000 1407106.980000,907782.920000 1407167.790000,907808.480000 1407709.120000,908052.900000 1407783.860000,908066.750000 1407852.200000,908088.170000 1407903.680000,908102.840000 1407973.530000,908120.770000 1408044.340000,908148.380000 1408119.710000,908158.300000 1408119.700000,908158.300000 1408632.890000,908225.860000 1408698.050000,908236.180000 1409207.280000,908330.560000 1409207.300000,908330.560000 1409281.970000,908344.400000 1409357.770000,908340.030000 1409357.780000,908340.030000 1409859.680000,908311.090000 1409932.210000,908309.000000 1446535.000000,908309.000000 1447216.210000,908509.020000 1447681.140000,909045.580000 1447795.000000,909569.000000 1447795.000000,909801.340000 1447862.550000,910423.160000 1448373.850000,911787.050000 1449247.390000,912952.610000 1450412.950000,913826.150000 1451776.840000,914337.450000 1452398.660000,914405.000000 1468601.340000,914405.000000 1469223.160000,914337.450000 1470587.050000,913826.150000 1471752.610000,912952.610000 1472194.870000,912362.510000 1472763.440000,911937.360000 1473471.630000,911887.100000 1474094.560000,912227.700000 1474211.380000,912362.510000 1474597.150000,912877.240000 1474722.760000,913002.850000 1475743.510000,913767.860000 1475899.460000,913853.240000 1477103.940000,914304.780000 1477256.490000,914341.050000 1477765.140000,914396.310000 1477833.280000,914400.000000 1483178.850000,914400.000000 1483331.240000,914355.250000 1483343.290000,914341.350000 1483360.000000,914264.520000 1483360.000000,914218.840000 1488440.000000,914218.840000 1488484.750000,914371.230000 1488498.650000,914383.280000 1488575.480000,914399.990000 1493966.690000,914399.990000 1494034.900000,914396.290000 1494543.520000,914341.050000 1494696.040000,914304.790000 1495900.540000,913853.240000 1496056.490000,913767.860000 1497077.240000,913002.850000 1497202.850000,912877.240000 1497967.860000,911856.490000 1498053.240000,911700.540000 1498504.780000,910496.060000 1498541.050000,910343.510000 1498596.310000,909834.860000 1498600.000000,909766.720000 1498600.000000,904421.150000 1498555.250000,904268.760000 1498541.350000,904256.710000 1498464.520000,904240.000000 1488621.150000,904240.000000 1488468.760000,904284.750000 1488456.710000,904298.650000 1488440.000000,904375.480000 1488440.000000,914218.840000 1483360.000000,914218.840000 1483360.000000,898978.850000 1488440.000000,898978.850000 1488484.750000,899131.240000 1488498.650000,899143.290000 1488575.480000,899160.000000 1498418.840000,899160.000000 1498571.230000,899115.250000 1498583.280000,899101.350000 1498599.990000,899024.520000 1498599.990000,893633.310000 1498596.290000,893565.100000 1498541.050000,893056.480000 1498504.790000,892903.960000 1498053.240000,891699.460000 1497967.860000,891543.510000 1497202.850000,890522.760000 1497077.250000,890397.160000 1496558.350000,890008.270000 1496133.190000,889439.680000 1496082.930000,888731.490000 1496423.530000,888108.560000 1496558.350000,887991.730000 1497077.250000,887602.840000 1497202.850000,887477.240000 1497967.860000,886456.490000 1498053.240000,886300.540000 1498504.780000,885096.060000 1498541.050000,884943.510000 1498596.310000,884434.860000 1498600.000000,884366.720000 1498600.000000,879021.150000 1498555.250000,878868.760000 1498541.350000,878856.710000 1498464.520000,878840.000000 1488621.150000,878840.000000 1488468.760000,878884.750000 1488456.710000,878898.650000 1488440.000000,878975.480000 1488440.000000,898978.850000 1483360.000000,898978.850000 1483360.000000,875020.000000 1483560.020000,874338.790000 1484096.580000,873873.860000 1484620.000000,873760.000000 1498418.840000,873760.000000 1498571.230000,873715.250000 1498583.280000,873701.350000 1498599.990000,873624.520000 1498599.990000,868233.310000 1498596.290000,868165.100000 1498541.050000,867656.480000 1498504.790000,867503.960000 1498053.240000,866299.460000 1497967.860000,866143.510000 1497202.850000,865122.760000 1497077.240000,864997.150000 1496562.510000,864611.380000 1496137.360000,864042.790000 1496087.100000,863334.600000 1496427.700000,862711.670000 1496562.450000,862594.910000 1497152.610000,862152.610000 1498026.150000,860987.050000 1498537.450000,859623.160000 1498605.000000,859001.340000 1498605.000000,842798.660000 1498537.450000,842176.840000 1498026.150000,840812.950000 1497152.610000,839647.390000 1496566.680000,839208.260000 1496141.530000,838639.670000 1496091.270000,837931.480000 1496431.870000,837308.550000 1496566.680000,837191.740000 1497080.810000,836806.420000 1497152.610000,836752.610000 1498026.150000,835587.050000 1498537.450000,834223.160000 1498605.000000,833601.340000 1498605.000000,817398.660000 1498537.450000,816776.840000 1498026.150000,815412.950000 1497152.610000,814247.390000 1495987.050000,813373.850000 1494623.160000,812862.550000 1494001.340000,812795.000000 1477798.660000,812795.000000 1477176.840000,812862.550000 1475812.950000,813373.850000 1474647.390000,814247.390000 1474593.580000,814319.190000 1474208.260000,814833.320000 1473639.670000,815258.470000 1472931.480000,815308.730000 1472308.550000,814968.130000 1472191.740000,814833.320000 1471806.420000,814319.190000 1471752.610000,814247.390000 1470587.050000,813373.850000 1469223.160000,812862.550000 1468601.340000,812795.000000 1452398.660000,812795.000000 1451776.840000,812862.550000 1450412.950000,813373.850000 1449247.390000,814247.390000 1448373.850000,815412.950000 1447862.550000,816776.840000 1447795.000000,817398.660000 1447795.000000,833601.340000 1447862.550000,834223.160000 1448373.850000,835587.050000 1449247.390000,836752.610000 1449319.190000,836806.420000 1449833.320000,837191.740000 1450258.470000,837760.330000 1450308.730000,838468.520000 1449968.130000,839091.450000 1449833.330000,839208.250000 1449247.390000,839647.390000 1448373.850000,840812.950000 1447862.550000,842176.840000 1447795.000000,842798.660000 1447795.000000,859001.340000 1447862.550000,859623.160000 1448373.850000,860987.050000 1449247.390000,862152.610000 1449319.180000,862206.410000 1449319.190000,862206.420000 1449833.320000,862591.740000 1450258.470000,863160.330000 1450308.730000,863868.520000 1449968.130000,864491.450000 1449833.330000,864608.250000 1449247.390000,865047.390000 1448373.850000,866212.950000 1447862.550000,867576.840000 1447795.000000,868198.660000 1447795.000000,868431.000000 1447594.980000,869112.210000 1447058.420000,869577.140000 1446535.000000,869691.000000 1403769.210000,869691.000000 1403088.000000,869490.980000 1403028.600000,869450.360000 1401620.940000,868427.630000 1401620.930000,868427.620000 1401567.520000,868388.820000 1401507.240000,868361.980000 1401507.220000,868361.970000 1399883.190000,867638.910000 1399883.180000,867638.910000 1399822.880000,867612.060000 1398697.210000,867372.790000 1398019.440000,867228.720000 1398019.390000,867228.720000 1397954.870000,867215.000000 1396045.130000,867215.000000 1395980.610000,867228.720000 1395980.560000,867228.720000 1395302.790000,867372.790000 1394177.120000,867612.060000 1394116.820000,867638.910000 1394116.810000,867638.910000 1392492.780000,868361.970000 1392492.760000,868361.980000 1392432.480000,868388.820000 1390887.470000,869511.340000 1389866.680000,870645.050000 1389262.260000,871017.420000 1388552.420000,871003.910000 1388039.400000,870692.870000 1381025.710000,863679.180000 1380685.450000,863056.060000 1380663.560000,862919.930000 1380641.350000,862708.550000 1380588.570000,862206.410000 1380542.320000,861766.350000 1380542.320000,861766.330000 1380535.420000,861700.720000 1379945.270000,859884.440000 1378990.400000,858230.560000 1377712.530000,856811.340000 1376167.520000,855688.820000 1376107.240000,855661.980000 1376107.220000,855661.970000 1374483.190000,854938.910000 1374483.180000,854938.910000 1374422.880000,854912.060000 1373488.870000,854713.530000 1372619.440000,854528.720000 1372619.390000,854528.720000 1372554.870000,854515.000000 1370645.130000,854515.000000 1370580.610000,854528.720000 1370580.560000,854528.720000 1369711.120000,854713.530000 1368777.120000,854912.060000 1368716.820000,854938.910000 1368716.810000,854938.910000 1367092.780000,855661.970000 1367092.760000,855661.980000 1367032.480000,855688.820000 1365487.470000,856811.340000 1364209.600000,858230.560000 1363254.730000,859884.440000 1362664.580000,861700.720000 1362657.680000,861766.330000 1362657.680000,861766.350000 1362611.430000,862206.410000 1362464.960000,863600.000000 1328425.000000,863600.000000 1328425.000000,720085.000000 1328625.020000,719403.790000 1329161.580000,718938.860000 1329685.000000,718825.000000 1515115.000000,718825.000000 Z"/> 
</g>
</g>
</g> 
</g><g id="substrate-silk" style="fill:#0b1013; stroke:#0b1013;" mask="url(#pads-mask-silkscreen)"><g style="fill-opacity: 0.0;stroke-width: 1500.000000;stroke-opacity: 1;stroke-linecap: round;stroke-linejoin: round">
<text x="1508760.000000" y="830500.000000" textLength="20521.430000" font-size="13333.330000" lengthAdjust="spacingAndGlyphs" text-anchor="middle" opacity="0">VD</text>
<g class="stroked-text"><desc>VD</desc>
<path d="M1500426 820023 L1503760 830023 L1507093 820023 "/>
<path d="M1510426 830023 L1510426 820023 L1512807 820023 L1514236 820500 L1515188 821452 L1515664 822404 L1516140 824309 L1516140 825738 L1515664 827642 L1515188 828595 L1514236 829547 L1512807 830023 L1510426 830023 "/>
</g><text x="1508760.000000" y="881300.000000" textLength="22426.190000" font-size="13333.330000" lengthAdjust="spacingAndGlyphs" text-anchor="middle" opacity="0">GN</text>
<g class="stroked-text"><desc>GN</desc>
<path d="M1506140 871300 L1505188 870823 L1503760 870823 L1502331 871300 L1501379 872252 L1500902 873204 L1500426 875109 L1500426 876538 L1500902 878442 L1501379 879395 L1502331 880347 L1503760 880823 L1504712 880823 L1506140 880347 L1506617 879871 L1506617 876538 L1504712 876538 "/>
<path d="M1510902 880823 L1510902 870823 L1516617 880823 L1516617 870823 "/>
</g><text x="1432560.000000" y="830500.000000" textLength="18140.480000" font-size="13333.330000" lengthAdjust="spacingAndGlyphs" text-anchor="middle" opacity="0">MI</text>
<g class="stroked-text"><desc>MI</desc>
<path d="M1426845 830023 L1426845 820023 L1430179 827166 L1433512 820023 L1433512 830023 "/>
<path d="M1438274 830023 L1438274 820023 "/>
</g><text x="1371600.000000" y="862660.000000" textLength="68140.480000" font-size="13333.330000" lengthAdjust="spacingAndGlyphs" text-anchor="middle" opacity="0">FRAM01A</text>
<g class="stroked-text"><desc>FRAM01A</desc>
<path d="M1344219 856945 L1340885 856945 "/>
<path d="M1340885 862183 L1340885 852183 L1345647 852183 "/>
<path d="M1355171 862183 L1351838 857421 "/>
<path d="M1349457 862183 L1349457 852183 L1353266 852183 L1354219 852660 L1354695 853136 L1355171 854088 L1355171 855517 L1354695 856469 L1354219 856945 L1353266 857421 L1349457 857421 "/>
<path d="M1358980 859326 L1363742 859326 "/>
<path d="M1358028 862183 L1361361 852183 L1364695 862183 "/>
<path d="M1368028 862183 L1368028 852183 L1371361 859326 L1374695 852183 L1374695 862183 "/>
<path d="M1381361 852183 L1382314 852183 L1383266 852660 L1383742 853136 L1384219 854088 L1384695 855993 L1384695 858374 L1384219 860279 L1383742 861231 L1383266 861707 L1382314 862183 L1381361 862183 L1380409 861707 L1379933 861231 L1379457 860279 L1378980 858374 L1378980 855993 L1379457 854088 L1379933 853136 L1380409 852660 L1381361 852183 "/>
<path d="M1394219 862183 L1388504 862183 "/>
<path d="M1391361 862183 L1391361 852183 L1390409 853612 L1389457 854564 L1388504 855040 "/>
<path d="M1398028 859326 L1402790 859326 "/>
<path d="M1397076 862183 L1400409 852183 L1403742 862183 "/>
</g><text x="1371600.000000" y="878760.000000" textLength="61473.810000" font-size="13333.330000" lengthAdjust="spacingAndGlyphs" text-anchor="middle" opacity="0">MLAB.cz</text>
<g class="stroked-text"><desc>MLAB.cz</desc>
<path d="M1344219 878283 L1344219 868283 L1347552 875426 L1350885 868283 L1350885 878283 "/>
<path d="M1360409 878283 L1355647 878283 L1355647 868283 "/>
<path d="M1363266 875426 L1368028 875426 "/>
<path d="M1362314 878283 L1365647 868283 L1368980 878283 "/>
<path d="M1375647 873045 L1377076 873521 L1377552 873998 L1378028 874950 L1378028 876379 L1377552 877331 L1377076 877807 L1376123 878283 L1372314 878283 L1372314 868283 L1375647 868283 L1376600 868760 L1377076 869236 L1377552 870188 L1377552 871140 L1377076 872093 L1376600 872569 L1375647 873045 L1372314 873045 "/>
<path d="M1382314 877331 L1382790 877807 L1382314 878283 L1381838 877807 L1382314 877331 L1382314 878283 "/>
<path d="M1391361 877807 L1390409 878283 L1388504 878283 L1387552 877807 L1387076 877331 L1386600 876379 L1386600 873521 L1387076 872569 L1387552 872093 L1388504 871617 L1390409 871617 L1391361 872093 "/>
<path d="M1394695 871617 L1399933 871617 L1394695 878283 L1399933 878283 "/>
</g><text x="1371600.000000" y="894860.000000" textLength="78140.480000" font-size="13333.330000" lengthAdjust="spacingAndGlyphs" text-anchor="middle" opacity="0">1.8-3.6 V</text>
<g class="stroked-text"><desc>1.8-3.6 V</desc>
<path d="M1341123 894383 L1335409 894383 "/>
<path d="M1338266 894383 L1338266 884383 L1337314 885812 L1336361 886764 L1335409 887240 "/>
<path d="M1345409 893431 L1345885 893907 L1345409 894383 L1344933 893907 L1345409 893431 L1345409 894383 "/>
<path d="M1351600 888669 L1350647 888193 L1350171 887717 L1349695 886764 L1349695 886288 L1350171 885336 L1350647 884860 L1351600 884383 L1353504 884383 L1354457 884860 L1354933 885336 L1355409 886288 L1355409 886764 L1354933 887717 L1354457 888193 L1353504 888669 L1351600 888669 L1350647 889145 L1350171 889621 L1349695 890574 L1349695 892479 L1350171 893431 L1350647 893907 L1351600 894383 L1353504 894383 L1354457 893907 L1354933 893431 L1355409 892479 L1355409 890574 L1354933 889621 L1354457 889145 L1353504 888669 "/>
<path d="M1359695 890574 L1367314 890574 "/>
<path d="M1371123 884383 L1377314 884383 L1373980 888193 L1375409 888193 L1376361 888669 L1376838 889145 L1377314 890098 L1377314 892479 L1376838 893431 L1376361 893907 L1375409 894383 L1372552 894383 L1371600 893907 L1371123 893431 "/>
<path d="M1381600 893431 L1382076 893907 L1381600 894383 L1381123 893907 L1381600 893431 L1381600 894383 "/>
<path d="M1390647 884383 L1388742 884383 L1387790 884860 L1387314 885336 L1386361 886764 L1385885 888669 L1385885 892479 L1386361 893431 L1386838 893907 L1387790 894383 L1389695 894383 L1390647 893907 L1391123 893431 L1391600 892479 L1391600 890098 L1391123 889145 L1390647 888669 L1389695 888193 L1387790 888193 L1386838 888669 L1386361 889145 L1385885 890098 "/>
<path d="M1402076 884383 L1405409 894383 L1408742 884383 "/>
</g><text x="1432560.000000" y="909240.000000" textLength="23378.570000" font-size="13333.330000" lengthAdjust="spacingAndGlyphs" text-anchor="middle" opacity="0">~{WP}</text>
<g class="stroked-text"><desc>~{WP}</desc>
<path d="M1421845 895940 L1433274 895940 "/>
<path d="M1423274 898763 L1425655 908763 L1427560 901620 L1429464 908763 L1431845 898763 "/>
<path d="M1433274 895940 L1443274 895940 "/>
<path d="M1435655 908763 L1435655 898763 L1439464 898763 L1440417 899240 L1440893 899716 L1441369 900668 L1441369 902097 L1440893 903049 L1440417 903525 L1439464 904001 L1435655 904001 "/>
</g><text x="1432560.000000" y="883840.000000" textLength="21473.810000" font-size="13333.330000" lengthAdjust="spacingAndGlyphs" text-anchor="middle" opacity="0">~{CS}</text>
<g class="stroked-text"><desc>~{CS}</desc>
<path d="M1422798 870540 L1432798 870540 "/>
<path d="M1430893 882411 L1430417 882887 L1428988 883363 L1428036 883363 L1426607 882887 L1425655 881935 L1425179 880982 L1424702 879078 L1424702 877649 L1425179 875744 L1425655 874792 L1426607 873840 L1428036 873363 L1428988 873363 L1430417 873840 L1430893 874316 "/>
<path d="M1432798 870540 L1442321 870540 "/>
<path d="M1434702 882887 L1436131 883363 L1438512 883363 L1439464 882887 L1439940 882411 L1440417 881459 L1440417 880506 L1439940 879554 L1439464 879078 L1438512 878601 L1436607 878125 L1435655 877649 L1435179 877173 L1434702 876220 L1434702 875268 L1435179 874316 L1435655 873840 L1436607 873363 L1438988 873363 L1440417 873840 "/>
</g><text x="1508760.000000" y="906700.000000" textLength="22426.190000" font-size="13333.330000" lengthAdjust="spacingAndGlyphs" text-anchor="middle" opacity="0">GN</text>
<g class="stroked-text"><desc>GN</desc>
<path d="M1506140 896700 L1505188 896223 L1503760 896223 L1502331 896700 L1501379 897652 L1500902 898604 L1500426 900509 L1500426 901938 L1500902 903842 L1501379 904795 L1502331 905747 L1503760 906223 L1504712 906223 L1506140 905747 L1506617 905271 L1506617 901938 L1504712 901938 "/>
<path d="M1510902 906223 L1510902 896223 L1516617 906223 L1516617 896223 "/>
</g><text x="1508760.000000" y="855900.000000" textLength="23854.760000" font-size="13333.330000" lengthAdjust="spacingAndGlyphs" text-anchor="middle" opacity="0">MO</text>
<g class="stroked-text"><desc>MO</desc>
<path d="M1500188 855423 L1500188 845423 L1503521 852566 L1506855 845423 L1506855 855423 "/>
<path d="M1513521 845423 L1515426 845423 L1516379 845900 L1517331 846852 L1517807 848757 L1517807 852090 L1517331 853995 L1516379 854947 L1515426 855423 L1513521 855423 L1512569 854947 L1511617 853995 L1511140 852090 L1511140 848757 L1511617 846852 L1512569 845900 L1513521 845423 "/>
</g><text x="1432560.000000" y="858440.000000" textLength="21473.810000" font-size="13333.330000" lengthAdjust="spacingAndGlyphs" text-anchor="middle" opacity="0">SC</text>
<g class="stroked-text"><desc>SC</desc>
<path d="M1424702 857487 L1426131 857963 L1428512 857963 L1429464 857487 L1429940 857011 L1430417 856059 L1430417 855106 L1429940 854154 L1429464 853678 L1428512 853201 L1426607 852725 L1425655 852249 L1425179 851773 L1424702 850820 L1424702 849868 L1425179 848916 L1425655 848440 L1426607 847963 L1428988 847963 L1430417 848440 "/>
<path d="M1440417 857011 L1439940 857487 L1438512 857963 L1437560 857963 L1436131 857487 L1435179 856535 L1434702 855582 L1434226 853678 L1434226 852249 L1434702 850344 L1435179 849392 L1436131 848440 L1437560 847963 L1438512 847963 L1439940 848440 L1440417 848916 "/>
</g><path d="M1498600 914400 L1447800 914400 "/>
<path d="M1447800 914400 L1447800 812800 "/>
<path d="M1498600 812800 L1498600 914400 "/>
<path d="M1447800 812800 L1498600 812800 "/>
<g style="fill-opacity: 1.0;stroke-width: 0.010000;stroke-opacity: 1;stroke-linecap: round;stroke-linejoin: round">
<path style="fill-opacity: 1.0;stroke-width: 0.010000;stroke-opacity: 1;stroke-linecap: round;stroke-linejoin: round;fill-rule: evenodd" d="M 1452880.000000,833120.000000 1452880.000000,817880.000000 1468120.000000,817880.000000 1468120.000000,833120.000000 Z"/> 
<path style="fill-opacity: 1.0;stroke-width: 0.010000;stroke-opacity: 1;stroke-linecap: round;stroke-linejoin: round;fill-rule: evenodd" d="M 1478280.000000,833120.000000 1478280.000000,817880.000000 1493520.000000,817880.000000 1493520.000000,833120.000000 Z"/> 
<path style="fill-opacity: 1.0;stroke-width: 0.010000;stroke-opacity: 1;stroke-linecap: round;stroke-linejoin: round;fill-rule: evenodd" d="M 1452880.000000,858520.000000 1452880.000000,843280.000000 1468120.000000,843280.000000 1468120.000000,858520.000000 Z"/> 
<path style="fill-opacity: 1.0;stroke-width: 0.010000;stroke-opacity: 1;stroke-linecap: round;stroke-linejoin: round;fill-rule: evenodd" d="M 1478280.000000,858520.000000 1478280.000000,843280.000000 1493520.000000,843280.000000 1493520.000000,858520.000000 Z"/> 
<path style="fill-opacity: 1.0;stroke-width: 0.010000;stroke-opacity: 1;stroke-linecap: round;stroke-linejoin: round;fill-rule: evenodd" d="M 1452880.000000,883920.000000 1452880.000000,868680.000000 1468120.000000,868680.000000 1468120.000000,883920.000000 Z"/> 
<path style="fill-opacity: 1.0;stroke-width: 0.010000;stroke-opacity: 1;stroke-linecap: round;stroke-linejoin: round;fill-rule: evenodd" d="M 1478280.000000,883920.000000 1478280.000000,868680.000000 1493520.000000,868680.000000 1493520.000000,883920.000000 Z"/> 
<path style="fill-opacity: 1.0;stroke-width: 0.010000;stroke-opacity: 1;stroke-linecap: round;stroke-linejoin: round;fill-rule: evenodd" d="M 1452880.000000,909320.000000 1452880.000000,894080.000000 1468120.000000,894080.000000 1468120.000000,909320.000000 Z"/> 
<path style="fill-opacity: 1.0;stroke-width: 0.010000;stroke-opacity: 1;stroke-linecap: round;stroke-linejoin: round;fill-rule: evenodd" d="M 1478280.000000,909320.000000 1478280.000000,894080.000000 1493520.000000,894080.000000 1493520.000000,909320.000000 Z"/> 
</g>
</g> 
</g><g id="substrate-outline" style="fill:#000000; stroke:#000000; stroke-width: 1500.0"><g style="fill-opacity: 0.0;stroke-opacity: 1;stroke-linecap: round;stroke-linejoin: round">
<path d="M1521460 1013460 L1323340 1013460 "/>
<path d="M1323340 713740 L1323340 1013460 "/>
<path d="M1521460 713740 L1521460 1013460 "/>
<path d="M1323340 713740 L1521460 713740 "/>
</g> 
<path d="M -15000.0 0.0 A 15000.0 15000.0 0 1 1 15000.0 0.0 L 15000.0 -0.0 A 15000.0 15000.0 0 1 1 -15000.0 -0.0 Z" transform="translate(1473200.0 965200.0) rotate(-0.0)"/><path d="M -15000.0 0.0 A 15000.0 15000.0 0 1 1 15000.0 0.0 L 15000.0 -0.0 A 15000.0 15000.0 0 1 1 -15000.0 -0.0 Z" transform="translate(1371600.0 762000.0) rotate(-0.0)"/><path d="M -15000.0 0.0 A 15000.0 15000.0 0 1 1 15000.0 0.0 L 15000.0 -0.0 A 15000.0 15000.0 0 1 1 -15000.0 -0.0 Z" transform="translate(1473200.0 762000.0) rotate(-0.0)"/><path d="M -4445.0 0.0 A 4445.0 4445.0 0 1 1 4445.0 0.0 L 4445.0 -0.0 A 4445.0 4445.0 0 1 1 -4445.0 -0.0 Z" transform="translate(1460500.0 825500.0) rotate(-0.0)"/><path d="M -4445.0 0.0 A 4445.0 4445.0 0 1 1 4445.0 0.0 L 4445.0 -0.0 A 4445.0 4445.0 0 1 1 -4445.0 -0.0 Z" transform="translate(1485900.0 825500.0) rotate(-0.0)"/><path d="M -4445.0 0.0 A 4445.0 4445.0 0 1 1 4445.0 0.0 L 4445.0 -0.0 A 4445.0 4445.0 0 1 1 -4445.0 -0.0 Z" transform="translate(1460500.0 850900.0) rotate(-0.0)"/><path d="M -4445.0 0.0 A 4445.0 4445.0 0 1 1 4445.0 0.0 L 4445.0 -0.0 A 4445.0 4445.0 0 1 1 -4445.0 -0.0 Z" transform="translate(1485900.0 850900.0) rotate(-0.0)"/><path d="M -4445.0 0.0 A 4445.0 4445.0 0 1 1 4445.0 0.0 L 4445.0 -0.0 A 4445.0 4445.0 0 1 1 -4445.0 -0.0 Z" transform="translate(1460500.0 876300.0) rotate(-0.0)"/><path d="M -4445.0 0.0 A 4445.0 4445.0 0 1 1 4445.0 0.0 L 4445.0 -0.0 A 4445.0 4445.0 0 1 1 -4445.0 -0.0 Z" transform="translate(1485900.0 876300.0) rotate(-0.0)"/><path d="M -4445.0 0.0 A 4445.0 4445.0 0 1 1 4445.0 0.0 L 4445.0 -0.0 A 4445.0 4445.0 0 1 1 -4445.0 -0.0 Z" transform="translate(1460500.0 901700.0) rotate(-0.0)"/><path d="M -4445.0 0.0 A 4445.0 4445.0 0 1 1 4445.0 0.0 L 4445.0 -0.0 A 4445.0 4445.0 0 1 1 -4445.0 -0.0 Z" transform="translate(1485900.0 901700.0) rotate(-0.0)"/><path d="M -15000.0 0.0 A 15000.0 15000.0 0 1 1 15000.0 0.0 L 15000.0 -0.0 A 15000.0 15000.0 0 1 1 -15000.0 -0.0 Z" transform="translate(1371600.0 965200.0) rotate(-0.0)"/><path d="M -2000.0 0.0 A 2000.0 2000.0 0 1 1 2000.0 0.0 L 2000.0 -0.0 A 2000.0 2000.0 0 1 1 -2000.0 -0.0 Z" transform="translate(1381760.0 914400.0) rotate(0)"/><path d="M -2000.0 0.0 A 2000.0 2000.0 0 1 1 2000.0 0.0 L 2000.0 -0.0 A 2000.0 2000.0 0 1 1 -2000.0 -0.0 Z" transform="translate(1336040.0 848360.0) rotate(0)"/><path d="M -2000.0 0.0 A 2000.0 2000.0 0 1 1 2000.0 0.0 L 2000.0 -0.0 A 2000.0 2000.0 0 1 1 -2000.0 -0.0 Z" transform="translate(1414780.0 947420.0) rotate(0)"/><path d="M -2000.0 0.0 A 2000.0 2000.0 0 1 1 2000.0 0.0 L 2000.0 -0.0 A 2000.0 2000.0 0 1 1 -2000.0 -0.0 Z" transform="translate(1427480.0 947420.0) rotate(0)"/><path d="M -2000.0 0.0 A 2000.0 2000.0 0 1 1 2000.0 0.0 L 2000.0 -0.0 A 2000.0 2000.0 0 1 1 -2000.0 -0.0 Z" transform="translate(1336040.0 810260.0) rotate(0)"/><path d="M -2000.0 0.0 A 2000.0 2000.0 0 1 1 2000.0 0.0 L 2000.0 -0.0 A 2000.0 2000.0 0 1 1 -2000.0 -0.0 Z" transform="translate(1381760.0 904240.0) rotate(0)"/><path d="M -2000.0 0.0 A 2000.0 2000.0 0 1 1 2000.0 0.0 L 2000.0 -0.0 A 2000.0 2000.0 0 1 1 -2000.0 -0.0 Z" transform="translate(1336040.0 830580.0) rotate(0)"/><path d="M -2000.0 0.0 A 2000.0 2000.0 0 1 1 2000.0 0.0 L 2000.0 -0.0 A 2000.0 2000.0 0 1 1 -2000.0 -0.0 Z" transform="translate(1371600.0 848360.0) rotate(0)"/><path d="M -2000.0 0.0 A 2000.0 2000.0 0 1 1 2000.0 0.0 L 2000.0 -0.0 A 2000.0 2000.0 0 1 1 -2000.0 -0.0 Z" transform="translate(1336040.0 820420.0) rotate(0)"/><path d="M -2000.0 0.0 A 2000.0 2000.0 0 1 1 2000.0 0.0 L 2000.0 -0.0 A 2000.0 2000.0 0 1 1 -2000.0 -0.0 Z" transform="translate(1397000.0 927100.0) rotate(0)"/><path d="M -2000.0 0.0 A 2000.0 2000.0 0 1 1 2000.0 0.0 L 2000.0 -0.0 A 2000.0 2000.0 0 1 1 -2000.0 -0.0 Z" transform="translate(1397000.0 876300.0) rotate(0)"/><path d="M -2000.0 0.0 A 2000.0 2000.0 0 1 1 2000.0 0.0 L 2000.0 -0.0 A 2000.0 2000.0 0 1 1 -2000.0 -0.0 Z" transform="translate(1371600.0 863600.0) rotate(0)"/></g></g></g><g transform="" id="componentContainer"><!--Mlab_Mechanical:MountingHole_3mm:M4--><g transform="translate(1473200.0 965200.0) scale(10000.0, 10000.0) rotate(-0.0) translate(-0.75 -0.75)"><g id="pref_12_Mlab_Mechanical__MountingHole_3mm_HOLE"><defs xmlns:xlink="http://www.w3.org/1999/xlink" id="pref_13defs13">
    <linearGradient id="pref_13linearGradient13300">
      <stop style="stop-color:#e5e5e5;stop-opacity:1;" offset="0" id="pref_13stop13298"/>
    </linearGradient>
    <linearGradient id="pref_13linearGradient10336">
      <stop style="stop-color:#cfcfcf;stop-opacity:1" offset="0" id="pref_13stop10332"/>
      <stop style="stop-color:#cdcdcd;stop-opacity:0" offset="1" id="pref_13stop10334"/>
    </linearGradient>
    <linearGradient id="pref_13linearGradient9067">
      <stop style="stop-color:#d3d3d3;stop-opacity:1;" offset="0" id="pref_13stop9051"/>
      <stop style="stop-color:#c8c8c8;stop-opacity:1;" offset="0.1656336" id="pref_13stop9053"/>
      <stop style="stop-color:#d8d8d8;stop-opacity:0.52030832" offset="0.29162589" id="pref_13stop9055"/>
      <stop style="stop-color:#c6c6c6;stop-opacity:0.51711833" offset="0.38067153" id="pref_13stop9057"/>
      <stop style="stop-color:#bbbbbb;stop-opacity:0.45933419" offset="0.51505035" id="pref_13stop9059"/>
      <stop style="stop-color:#8e8e8e;stop-opacity:0.47450981" offset="0.5970481" id="pref_13stop9061"/>
      <stop style="stop-color:#656565;stop-opacity:0.56470591" offset="0.7681157" id="pref_13stop9063"/>
      <stop style="stop-color:#606060;stop-opacity:0.28235294;" offset="0.95913506" id="pref_13stop9743"/>
      <stop style="stop-color:#b5b5b5;stop-opacity:0.21568628" offset="1" id="pref_13stop9065"/>
    </linearGradient>
    <linearGradient id="pref_13linearGradient3692">
      <stop style="stop-color:#e4e4e4;stop-opacity:1" offset="0" id="pref_13stop6926"/>
      <stop style="stop-color:#e5e5e5;stop-opacity:1" offset="0.1656336" id="pref_13stop6928"/>
      <stop style="stop-color:#f5f5f5;stop-opacity:1" offset="0.29162589" id="pref_13stop6930"/>
      <stop style="stop-color:#c6c6c6;stop-opacity:1;" offset="0.38067153" id="pref_13stop6932"/>
      <stop style="stop-color:#dddddd;stop-opacity:1" offset="0.57577699" id="pref_13stop6934"/>
      <stop style="stop-color:#f2f2f2;stop-opacity:1" offset="0.66836077" id="pref_13stop6936"/>
      <stop style="stop-color:#ebebeb;stop-opacity:1" offset="0.79280978" id="pref_13stop6938"/>
      <stop style="stop-color:#efefef;stop-opacity:1" offset="1" id="pref_13stop6940"/>
    </linearGradient>
    <linearGradient id="pref_13linearGradient5758">
      <stop style="stop-color:#f6f6f6;stop-opacity:0.89019608" offset="0" id="pref_13stop5754"/>
      <stop style="stop-color:#646464;stop-opacity:0.9921568" offset="1" id="pref_13stop5756"/>
    </linearGradient>
    <linearGradient id="pref_13linearGradient3692-7">
      <stop style="stop-color:#d3d3d3;stop-opacity:1;" offset="0" id="pref_13stop3688"/>
      <stop style="stop-color:#c8c8c8;stop-opacity:1;" offset="0.1656336" id="pref_13stop4378"/>
      <stop style="stop-color:#ededed;stop-opacity:1" offset="0.29162589" id="pref_13stop4444"/>
      <stop style="stop-color:#c6c6c6;stop-opacity:1;" offset="0.38067153" id="pref_13stop4376"/>
      <stop style="stop-color:#dbdbdb;stop-opacity:1" offset="0.57577699" id="pref_13stop4308"/>
      <stop style="stop-color:#c8c8c8;stop-opacity:1" offset="0.66836077" id="pref_13stop4242"/>
      <stop style="stop-color:#b8b8b8;stop-opacity:1;" offset="0.79280978" id="pref_13stop4310"/>
      <stop style="stop-color:#aeaeae;stop-opacity:1" offset="1" id="pref_13stop3690"/>
    </linearGradient>
    <linearGradient id="pref_13linearGradient3156">
      <stop style="stop-color:#d3d3d3;stop-opacity:1;" offset="0" id="pref_13stop3152"/>
      <stop style="stop-color:#d3d3d3;stop-opacity:0.89019608;" offset="0.93029171" id="pref_13stop3290"/>
      <stop style="stop-color:#757575;stop-opacity:1" offset="1" id="pref_13stop3154"/>
    </linearGradient>
    <radialGradient xlink:href="#pref_13linearGradient3156" id="pref_13radialGradient3160" cx="0.75" cy="0.75" fx="0.75" fy="0.75" r="2.75" gradientUnits="userSpaceOnUse" gradientTransform="matrix(0.96363636,0,0,0.96363636,0.02727275,0.02727275)"/>
    <linearGradient xlink:href="#pref_13linearGradient3692-7" id="pref_13linearGradient3694" x1="-0.69187778" y1="-1.1810942" x2="2.8737183" y2="2.1900826" gradientUnits="userSpaceOnUse" gradientTransform="matrix(0.92592591,0,0,0.92592591,0.05555555,0.05555555)"/>
    <linearGradient xlink:href="#pref_13linearGradient5758" id="pref_13linearGradient5760" x1="-15.456677" y1="-15.474042" x2="-4.6413889" y2="-6.7602329" gradientUnits="userSpaceOnUse"/>
    <linearGradient xlink:href="#pref_13linearGradient3692" id="pref_13linearGradient6924" gradientUnits="userSpaceOnUse" x1="1.4987922" y1="4.3924975" x2="-1.0811033" y2="-3.0084407"/>
    <radialGradient xlink:href="#pref_13linearGradient9067" id="pref_13radialGradient8763" cx="0.75" cy="0.75" fx="0.75" fy="0.75" r="2.5" gradientUnits="userSpaceOnUse"/>
    <radialGradient xlink:href="#pref_13linearGradient10336" id="pref_13radialGradient10338" cx="-9.3072596" cy="-12.247526" fx="-9.3072596" fy="-12.247526" r="5.7490053" gradientTransform="matrix(0.25618062,-0.83918687,0.82829029,0.2528542,1.5718983,-16.37084)" gradientUnits="userSpaceOnUse"/>
  </defs>
  <circle style="opacity:1;fill:url(#pref_13linearGradient6924);fill-opacity:1;stroke:#cecece;stroke-width:0.05;stroke-miterlimit:4;stroke-dasharray:none;stroke-opacity:1" id="pref_13path6642" cx="0.75" cy="0.75" r="3.5"/>
  <circle style="fill:url(#pref_13radialGradient3160);fill-opacity:1;stroke-width:0.0358194" id="pref_13path1030-6" cx="0.75" cy="0.75" r="2.6500001"/>
  <circle style="opacity:1;fill:url(#pref_13linearGradient3694);fill-opacity:1;stroke-width:0.033792" id="pref_13path1030" cx="0.75" cy="0.75" r="2.5"/>
  <circle style="fill:url(#pref_13radialGradient8763);fill-opacity:1;stroke-width:0.034;stroke-miterlimit:4;stroke-dasharray:none" id="pref_13path1030-7" cx="0.75" cy="0.75" r="2.5"/>
  <path xmlns:sodipodi="http://sodipodi.sourceforge.net/DTD/sodipodi-0.dtd" sodipodi:type="star" style="opacity:1;fill:#b6b6b6;fill-opacity:1;stroke:url(#pref_13linearGradient5760);stroke-width:0.398303;stroke-miterlimit:4;stroke-dasharray:none;stroke-opacity:1" id="pref_13path1288-3" sodipodi:sides="6" sodipodi:cx="-9.9017067" sodipodi:cy="-10.789671" sodipodi:r1="5.7490053" sodipodi:r2="4.9787846" sodipodi:arg1="1.0471976" sodipodi:arg2="1.5707963" transform="matrix(0.24392497,0.05945068,-0.05945068,0.24392497,2.5238203,3.9705334)" d="m -7.0272043,-5.8108862 -5.7490057,-2e-7 -2.874502,-4.9787846 2.874503,-4.978785 5.7490052,1e-6 2.8745024,4.978784 z"/>
  <path xmlns:sodipodi="http://sodipodi.sourceforge.net/DTD/sodipodi-0.dtd" sodipodi:type="star" style="opacity:1;fill:url(#pref_13radialGradient10338);fill-opacity:1;stroke:none;stroke-width:0.398303;stroke-miterlimit:4;stroke-dasharray:none;stroke-opacity:1" id="pref_13path1288-3-6" sodipodi:sides="6" sodipodi:cx="-9.9017067" sodipodi:cy="-10.789671" sodipodi:r1="5.7490053" sodipodi:r2="4.9787846" sodipodi:arg1="1.0471976" sodipodi:arg2="1.5707963" transform="matrix(0.24487282,0.0596817,-0.0596817,0.24487282,2.5307131,3.9830479)" d="m -7.0272043,-5.8108862 -5.7490057,-2e-7 -2.874502,-4.9787846 2.874503,-4.978785 5.7490052,1e-6 2.8745024,4.978784 z"/>
</g></g><!--Mlab_Mechanical:MountingHole_3mm:M1--><g transform="translate(1371600.0 762000.0) scale(10000.0, 10000.0) rotate(-0.0) translate(-0.75 -0.75)"><g id="pref_12_Mlab_Mechanical__MountingHole_3mm_HOLEM3"><defs xmlns:xlink="http://www.w3.org/1999/xlink" id="pref_14defs13">
    <linearGradient id="pref_14linearGradient13300">
      <stop style="stop-color:#e5e5e5;stop-opacity:1;" offset="0" id="pref_14stop13298"/>
    </linearGradient>
    <linearGradient id="pref_14linearGradient10336">
      <stop style="stop-color:#cfcfcf;stop-opacity:1" offset="0" id="pref_14stop10332"/>
      <stop style="stop-color:#cdcdcd;stop-opacity:0" offset="1" id="pref_14stop10334"/>
    </linearGradient>
    <linearGradient id="pref_14linearGradient9067">
      <stop style="stop-color:#d3d3d3;stop-opacity:1;" offset="0" id="pref_14stop9051"/>
      <stop style="stop-color:#c8c8c8;stop-opacity:1;" offset="0.1656336" id="pref_14stop9053"/>
      <stop style="stop-color:#d8d8d8;stop-opacity:0.52030832" offset="0.29162589" id="pref_14stop9055"/>
      <stop style="stop-color:#c6c6c6;stop-opacity:0.51711833" offset="0.38067153" id="pref_14stop9057"/>
      <stop style="stop-color:#bbbbbb;stop-opacity:0.45933419" offset="0.51505035" id="pref_14stop9059"/>
      <stop style="stop-color:#8e8e8e;stop-opacity:0.47450981" offset="0.5970481" id="pref_14stop9061"/>
      <stop style="stop-color:#656565;stop-opacity:0.56470591" offset="0.7681157" id="pref_14stop9063"/>
      <stop style="stop-color:#606060;stop-opacity:0.28235294;" offset="0.95913506" id="pref_14stop9743"/>
      <stop style="stop-color:#b5b5b5;stop-opacity:0.21568628" offset="1" id="pref_14stop9065"/>
    </linearGradient>
    <linearGradient id="pref_14linearGradient3692">
      <stop style="stop-color:#e4e4e4;stop-opacity:1" offset="0" id="pref_14stop6926"/>
      <stop style="stop-color:#e5e5e5;stop-opacity:1" offset="0.1656336" id="pref_14stop6928"/>
      <stop style="stop-color:#f5f5f5;stop-opacity:1" offset="0.29162589" id="pref_14stop6930"/>
      <stop style="stop-color:#c6c6c6;stop-opacity:1;" offset="0.38067153" id="pref_14stop6932"/>
      <stop style="stop-color:#dddddd;stop-opacity:1" offset="0.57577699" id="pref_14stop6934"/>
      <stop style="stop-color:#f2f2f2;stop-opacity:1" offset="0.66836077" id="pref_14stop6936"/>
      <stop style="stop-color:#ebebeb;stop-opacity:1" offset="0.79280978" id="pref_14stop6938"/>
      <stop style="stop-color:#efefef;stop-opacity:1" offset="1" id="pref_14stop6940"/>
    </linearGradient>
    <linearGradient id="pref_14linearGradient5758">
      <stop style="stop-color:#f6f6f6;stop-opacity:0.89019608" offset="0" id="pref_14stop5754"/>
      <stop style="stop-color:#646464;stop-opacity:0.9921568" offset="1" id="pref_14stop5756"/>
    </linearGradient>
    <linearGradient id="pref_14linearGradient3692-7">
      <stop style="stop-color:#d3d3d3;stop-opacity:1;" offset="0" id="pref_14stop3688"/>
      <stop style="stop-color:#c8c8c8;stop-opacity:1;" offset="0.1656336" id="pref_14stop4378"/>
      <stop style="stop-color:#ededed;stop-opacity:1" offset="0.29162589" id="pref_14stop4444"/>
      <stop style="stop-color:#c6c6c6;stop-opacity:1;" offset="0.38067153" id="pref_14stop4376"/>
      <stop style="stop-color:#dbdbdb;stop-opacity:1" offset="0.57577699" id="pref_14stop4308"/>
      <stop style="stop-color:#c8c8c8;stop-opacity:1" offset="0.66836077" id="pref_14stop4242"/>
      <stop style="stop-color:#b8b8b8;stop-opacity:1;" offset="0.79280978" id="pref_14stop4310"/>
      <stop style="stop-color:#aeaeae;stop-opacity:1" offset="1" id="pref_14stop3690"/>
    </linearGradient>
    <linearGradient id="pref_14linearGradient3156">
      <stop style="stop-color:#d3d3d3;stop-opacity:1;" offset="0" id="pref_14stop3152"/>
      <stop style="stop-color:#d3d3d3;stop-opacity:0.89019608;" offset="0.93029171" id="pref_14stop3290"/>
      <stop style="stop-color:#757575;stop-opacity:1" offset="1" id="pref_14stop3154"/>
    </linearGradient>
    <radialGradient xlink:href="#pref_14linearGradient3156" id="pref_14radialGradient3160" cx="0.75" cy="0.75" fx="0.75" fy="0.75" r="2.75" gradientUnits="userSpaceOnUse" gradientTransform="matrix(0.96363636,0,0,0.96363636,0.02727275,0.02727275)"/>
    <linearGradient xlink:href="#pref_14linearGradient3692-7" id="pref_14linearGradient3694" x1="-0.69187778" y1="-1.1810942" x2="2.8737183" y2="2.1900826" gradientUnits="userSpaceOnUse" gradientTransform="matrix(0.92592591,0,0,0.92592591,0.05555555,0.05555555)"/>
    <linearGradient xlink:href="#pref_14linearGradient5758" id="pref_14linearGradient5760" x1="-15.456677" y1="-15.474042" x2="-4.6413889" y2="-6.7602329" gradientUnits="userSpaceOnUse"/>
    <linearGradient xlink:href="#pref_14linearGradient3692" id="pref_14linearGradient6924" gradientUnits="userSpaceOnUse" x1="1.4987922" y1="4.3924975" x2="-1.0811033" y2="-3.0084407"/>
    <radialGradient xlink:href="#pref_14linearGradient9067" id="pref_14radialGradient8763" cx="0.75" cy="0.75" fx="0.75" fy="0.75" r="2.5" gradientUnits="userSpaceOnUse"/>
    <radialGradient xlink:href="#pref_14linearGradient10336" id="pref_14radialGradient10338" cx="-9.3072596" cy="-12.247526" fx="-9.3072596" fy="-12.247526" r="5.7490053" gradientTransform="matrix(0.25618062,-0.83918687,0.82829029,0.2528542,1.5718983,-16.37084)" gradientUnits="userSpaceOnUse"/>
  </defs>
  <circle style="opacity:1;fill:url(#pref_14linearGradient6924);fill-opacity:1;stroke:#cecece;stroke-width:0.05;stroke-miterlimit:4;stroke-dasharray:none;stroke-opacity:1" id="pref_14path6642" cx="0.75" cy="0.75" r="3.5"/>
  <circle style="fill:url(#pref_14radialGradient3160);fill-opacity:1;stroke-width:0.0358194" id="pref_14path1030-6" cx="0.75" cy="0.75" r="2.6500001"/>
  <circle style="opacity:1;fill:url(#pref_14linearGradient3694);fill-opacity:1;stroke-width:0.033792" id="pref_14path1030" cx="0.75" cy="0.75" r="2.5"/>
  <circle style="fill:url(#pref_14radialGradient8763);fill-opacity:1;stroke-width:0.034;stroke-miterlimit:4;stroke-dasharray:none" id="pref_14path1030-7" cx="0.75" cy="0.75" r="2.5"/>
  <path xmlns:sodipodi="http://sodipodi.sourceforge.net/DTD/sodipodi-0.dtd" sodipodi:type="star" style="opacity:1;fill:#b6b6b6;fill-opacity:1;stroke:url(#pref_14linearGradient5760);stroke-width:0.398303;stroke-miterlimit:4;stroke-dasharray:none;stroke-opacity:1" id="pref_14path1288-3" sodipodi:sides="6" sodipodi:cx="-9.9017067" sodipodi:cy="-10.789671" sodipodi:r1="5.7490053" sodipodi:r2="4.9787846" sodipodi:arg1="1.0471976" sodipodi:arg2="1.5707963" transform="matrix(0.24392497,0.05945068,-0.05945068,0.24392497,2.5238203,3.9705334)" d="m -7.0272043,-5.8108862 -5.7490057,-2e-7 -2.874502,-4.9787846 2.874503,-4.978785 5.7490052,1e-6 2.8745024,4.978784 z"/>
  <path xmlns:sodipodi="http://sodipodi.sourceforge.net/DTD/sodipodi-0.dtd" sodipodi:type="star" style="opacity:1;fill:url(#pref_14radialGradient10338);fill-opacity:1;stroke:none;stroke-width:0.398303;stroke-miterlimit:4;stroke-dasharray:none;stroke-opacity:1" id="pref_14path1288-3-6" sodipodi:sides="6" sodipodi:cx="-9.9017067" sodipodi:cy="-10.789671" sodipodi:r1="5.7490053" sodipodi:r2="4.9787846" sodipodi:arg1="1.0471976" sodipodi:arg2="1.5707963" transform="matrix(0.24487282,0.0596817,-0.0596817,0.24487282,2.5307131,3.9830479)" d="m -7.0272043,-5.8108862 -5.7490057,-2e-7 -2.874502,-4.9787846 2.874503,-4.978785 5.7490052,1e-6 2.8745024,4.978784 z"/>
</g></g><!--Mlab_Mechanical:MountingHole_3mm:M3--><g transform="translate(1473200.0 762000.0) scale(10000.0, 10000.0) rotate(-0.0) translate(-0.75 -0.75)"><use xmlns:xlink="http://www.w3.org/1999/xlink" xlink:href="#pref_12_Mlab_Mechanical__MountingHole_3mm_HOLE"/></g><!--Mlab_Pin_Headers:Straight_2x04:J2--><g transform="translate(1473200.0 863600.0) scale(9999.998832685189, 10000.000978471953) rotate(-0.0) translate(-2.5699999 -5.1099997)"><g id="pref_12_Mlab_Pin_Headers__Straight_2x04_HEADER_2x04"><g id="pref_15pin" style="display:inline">
    <rect style="opacity:1;fill:#000000;fill-opacity:1;fill-rule:nonzero;stroke:#141414;stroke-width:1.15387;stroke-linecap:round;stroke-linejoin:bevel;stroke-miterlimit:4;stroke-dasharray:none;stroke-opacity:1" id="pref_15rect4686" width="1.4461316" height="1.4461316" x="0.57693499" y="0.57693422"/>
    <rect y="1.0419546" x="1.0419546" height="0.51612419" width="0.51612419" id="pref_15rect156830" style="opacity:1;fill:#fcf23a;fill-opacity:1;fill-rule:nonzero;stroke:#eb9d02;stroke-width:0.123876;stroke-linecap:round;stroke-linejoin:bevel;stroke-miterlimit:4;stroke-dasharray:none;stroke-opacity:1"/>
  </g>
  <g transform="translate(0,2.5400152)" id="pref_15g13" style="display:inline">
    <rect style="opacity:1;fill:#000000;fill-opacity:1;fill-rule:nonzero;stroke:#141414;stroke-width:1.15387;stroke-linecap:round;stroke-linejoin:bevel;stroke-miterlimit:4;stroke-dasharray:none;stroke-opacity:1" id="pref_15rect9" width="1.4461316" height="1.4461316" x="0.57693499" y="0.57693422"/>
    <rect y="1.0419546" x="1.0419546" height="0.51612419" width="0.51612419" id="pref_15rect11" style="opacity:1;fill:#fcf23a;fill-opacity:1;fill-rule:nonzero;stroke:#eb9d02;stroke-width:0.123876;stroke-linecap:round;stroke-linejoin:bevel;stroke-miterlimit:4;stroke-dasharray:none;stroke-opacity:1"/>
  </g>
  <g transform="translate(0,5.0800152)" id="pref_15g19">
    <rect style="opacity:1;fill:#000000;fill-opacity:1;fill-rule:nonzero;stroke:#141414;stroke-width:1.15387;stroke-linecap:round;stroke-linejoin:bevel;stroke-miterlimit:4;stroke-dasharray:none;stroke-opacity:1" id="pref_15rect15" width="1.4461316" height="1.4461316" x="0.57693499" y="0.57693422"/>
    <rect y="1.0419546" x="1.0419546" height="0.51612419" width="0.51612419" id="pref_15rect17" style="opacity:1;fill:#fcf23a;fill-opacity:1;fill-rule:nonzero;stroke:#eb9d02;stroke-width:0.123876;stroke-linecap:round;stroke-linejoin:bevel;stroke-miterlimit:4;stroke-dasharray:none;stroke-opacity:1"/>
  </g>
  <g transform="translate(0,7.6200152)" id="pref_15g25">
    <rect style="opacity:1;fill:#000000;fill-opacity:1;fill-rule:nonzero;stroke:#141414;stroke-width:1.15387;stroke-linecap:round;stroke-linejoin:bevel;stroke-miterlimit:4;stroke-dasharray:none;stroke-opacity:1" id="pref_15rect21" width="1.4461316" height="1.4461316" x="0.57693499" y="0.57693422"/>
    <rect y="1.0419546" x="1.0419546" height="0.51612419" width="0.51612419" id="pref_15rect23" style="opacity:1;fill:#fcf23a;fill-opacity:1;fill-rule:nonzero;stroke:#eb9d02;stroke-width:0.123876;stroke-linecap:round;stroke-linejoin:bevel;stroke-miterlimit:4;stroke-dasharray:none;stroke-opacity:1"/>
  </g>
  <g transform="translate(0,99.060019)" id="pref_15g241" style="display:inline">
    <rect style="display:inline;fill:#000000;fill-opacity:1;fill-rule:nonzero;stroke:#141414;stroke-width:1.15387;stroke-linecap:round;stroke-linejoin:bevel;stroke-miterlimit:4;stroke-dasharray:none;stroke-opacity:1" id="pref_15rect4686-3" width="1.4461316" height="1.4461316" x="3.116935" y="-98.483063"/>
    <rect y="-98.018044" x="3.5819547" height="0.51612419" width="0.51612419" id="pref_15rect156830-6" style="display:inline;fill:#fcf23a;fill-opacity:1;fill-rule:nonzero;stroke:#eb9d02;stroke-width:0.123876;stroke-linecap:round;stroke-linejoin:bevel;stroke-miterlimit:4;stroke-dasharray:none;stroke-opacity:1"/>
    <rect style="display:inline;fill:#000000;fill-opacity:1;fill-rule:nonzero;stroke:#141414;stroke-width:1.15387;stroke-linecap:round;stroke-linejoin:bevel;stroke-miterlimit:4;stroke-dasharray:none;stroke-opacity:1" id="pref_15rect9-5" width="1.4461316" height="1.4461316" x="3.116935" y="-95.943069"/>
    <rect y="-95.478043" x="3.5819547" height="0.51612419" width="0.51612419" id="pref_15rect11-3" style="display:inline;fill:#fcf23a;fill-opacity:1;fill-rule:nonzero;stroke:#eb9d02;stroke-width:0.123876;stroke-linecap:round;stroke-linejoin:bevel;stroke-miterlimit:4;stroke-dasharray:none;stroke-opacity:1"/>
    <rect style="fill:#000000;fill-opacity:1;fill-rule:nonzero;stroke:#141414;stroke-width:1.15387;stroke-linecap:round;stroke-linejoin:bevel;stroke-miterlimit:4;stroke-dasharray:none;stroke-opacity:1" id="pref_15rect15-5" width="1.4461316" height="1.4461316" x="3.116935" y="-93.403069"/>
    <rect y="-92.938042" x="3.5819547" height="0.51612419" width="0.51612419" id="pref_15rect17-6" style="fill:#fcf23a;fill-opacity:1;fill-rule:nonzero;stroke:#eb9d02;stroke-width:0.123876;stroke-linecap:round;stroke-linejoin:bevel;stroke-miterlimit:4;stroke-dasharray:none;stroke-opacity:1"/>
    <rect style="fill:#000000;fill-opacity:1;fill-rule:nonzero;stroke:#141414;stroke-width:1.15387;stroke-linecap:round;stroke-linejoin:bevel;stroke-miterlimit:4;stroke-dasharray:none;stroke-opacity:1" id="pref_15rect21-2" width="1.4461316" height="1.4461316" x="3.116935" y="-90.863068"/>
    <rect y="-90.398048" x="3.5819547" height="0.51612419" width="0.51612419" id="pref_15rect23-9" style="fill:#fcf23a;fill-opacity:1;fill-rule:nonzero;stroke:#eb9d02;stroke-width:0.123876;stroke-linecap:round;stroke-linejoin:bevel;stroke-miterlimit:4;stroke-dasharray:none;stroke-opacity:1"/>
  </g>
  </g></g><!--Mlab_Mechanical:MountingHole_3mm:M2--><g transform="translate(1371600.0 965200.0) scale(10000.0, 10000.0) rotate(-0.0) translate(-0.75 -0.75)"><use xmlns:xlink="http://www.w3.org/1999/xlink" xlink:href="#pref_12_Mlab_Mechanical__MountingHole_3mm_HOLEM3"/></g><!--Capacitor_SMD:C_0805_2012Metric.back:C1--><!--Capacitor_SMD:C_0805_2012Metric.back:C2--></g></svg>