<?xml version='1.0' encoding='ASCII' standalone='yes'?>
<svg xmlns:svg="http://www.w3.org/2000/svg" xmlns="http://www.w3.org/2000/svg" xmlns:xlink="http://www.w3.org/1999/xlink" version="1.1" width="29.700220cm" height="21.000720cm" viewBox="0 0 2970022 2100072">
<title>SVG Picture created as FRAM01-B_Fab.svg date 2023/07/05 12:35:52 </title>
  <desc>Picture generated by PCBNEW </desc>
<g style="fill:#000084; fill-opacity:1.000000;stroke:#000084; stroke-opacity:1.000000; stroke-linecap:round; stroke-linejoin:round;" transform="translate(0 0) scale(1 1)">
</g>
<g style="fill:#000084; fill-opacity:0.0;  stroke:#000084; stroke-width:0.000000; stroke-opacity:1;  stroke-linecap:round; stroke-linejoin:round;">
</g>
<g style="fill:#000084; fill-opacity:0.01;  stroke:#000084; stroke-width:17721.518987; stroke-opacity:1;  stroke-linecap:round; stroke-linejoin:round;">
<text x="1254631.286754" y="1129782.836639" transform="scale(-1 1) translate(-2509262.573507 0)" textLength="215189.823582" font-size="118143.436659" lengthAdjust="spacingAndGlyphs" text-anchor="middle" opacity="0.01" style="font-family:monospace">IC1</text>
<g class="stroked-text"><desc>IC1</desc>
<path d="M1341129 1125563 L1341129 1036955 "/>
<path d="M1248302 1117124 L1252521 1121343 L1265179 1125563 L1273618 1125563 L1286276 1121343 L1294715 1112905 L1298935 1104466 L1303154 1087588 L1303154 1074930 L1298935 1058052 L1294715 1049614 L1286276 1041175 L1273618 1036955 L1265179 1036955 L1252521 1041175 L1248302 1045394 "/>
<path d="M1163913 1125563 L1214546 1125563 "/>
<path d="M1189230 1125563 L1189230 1036955 L1197669 1049614 L1206108 1058052 L1214546 1062272 "/>
</g></g>
<g style="fill:#000084; fill-opacity:0.01;  stroke:#000084; stroke-width:10465.463969; stroke-opacity:1;  stroke-linecap:round; stroke-linejoin:round;">
<text x="1183745.210804" y="965056.433769" transform="scale(-1 1) translate(-2367490.421609 0)" textLength="687949.088010" font-size="93026.323134" lengthAdjust="spacingAndGlyphs" text-anchor="middle" opacity="0.01" style="font-family:monospace">BZV55C-5,6V</text>
<g class="stroked-text"><desc>BZV55C-5,6V</desc>
<path d="M1499370 925187 L1489403 928510 L1486080 931832 L1482758 938477 L1482758 948444 L1486080 955089 L1489403 958411 L1496047 961733 L1522626 961733 L1522626 891964 L1499370 891964 L1492725 895286 L1489403 898609 L1486080 905253 L1486080 911898 L1489403 918543 L1492725 921865 L1499370 925187 L1522626 925187 "/>
<path d="M1459501 891964 L1412988 891964 L1459501 961733 L1412988 961733 "/>
<path d="M1396376 891964 L1373120 961733 L1349863 891964 "/>
<path d="M1293383 891964 L1326607 891964 L1329929 925187 L1326607 921865 L1319962 918543 L1303350 918543 L1296705 921865 L1293383 925187 L1290060 931832 L1290060 948444 L1293383 955089 L1296705 958411 L1303350 961733 L1319962 961733 L1326607 958411 L1329929 955089 "/>
<path d="M1226935 891964 L1260159 891964 L1263482 925187 L1260159 921865 L1253514 918543 L1236903 918543 L1230258 921865 L1226935 925187 L1223613 931832 L1223613 948444 L1226935 955089 L1230258 958411 L1236903 961733 L1253514 961733 L1260159 958411 L1263482 955089 "/>
<path d="M1153843 955089 L1157166 958411 L1167133 961733 L1173778 961733 L1183745 958411 L1190389 951766 L1193712 945122 L1197034 931832 L1197034 921865 L1193712 908576 L1190389 901931 L1183745 895286 L1173778 891964 L1167133 891964 L1157166 895286 L1153843 898609 "/>
<path d="M1123942 935155 L1070784 935155 "/>
<path d="M1004337 891964 L1037560 891964 L1040883 925187 L1037560 921865 L1030916 918543 L1014304 918543 L1007659 921865 L1004337 925187 L1001014 931832 L1001014 948444 L1004337 955089 L1007659 958411 L1014304 961733 L1030916 961733 L1037560 958411 L1040883 955089 "/>
<path d="M967791 958411 L967791 961733 L971113 968378 L974435 971701 "/>
<path d="M907988 891964 L921278 891964 L927922 895286 L931245 898609 L937889 908576 L941212 921865 L941212 948444 L937889 955089 L934567 958411 L927922 961733 L914633 961733 L907988 958411 L904666 955089 L901343 948444 L901343 931832 L904666 925187 L907988 921865 L914633 918543 L927922 918543 L934567 921865 L937889 925187 L941212 931832 "/>
<path d="M881409 891964 L858152 961733 L834896 891964 "/>
</g><text x="1183745.210804" y="609230.658826" transform="scale(-1 1) translate(-2367490.421609 0)" textLength="122612.050234" font-size="93026.323134" lengthAdjust="spacingAndGlyphs" text-anchor="middle" opacity="0.01" style="font-family:monospace">D1</text>
<g class="stroked-text"><desc>D1</desc>
<path d="M1235241 605908 L1235241 536138 L1218630 536138 L1208662 539460 L1202018 546105 L1198695 552750 L1195373 566039 L1195373 576006 L1198695 589296 L1202018 595941 L1208662 602585 L1218630 605908 L1235241 605908 "/>
<path d="M1128926 605908 L1168794 605908 "/>
<path d="M1148860 605908 L1148860 536138 L1155505 546105 L1162149 552750 L1168794 556072 "/>
</g><text x="1485011.033589" y="1662893.571215" transform="scale(-1 1) translate(-2970022.067178 0)" textLength="242217.372670" font-size="93026.323134" lengthAdjust="spacingAndGlyphs" text-anchor="middle" opacity="0.01" style="font-family:monospace">10uF</text>
<g class="stroked-text"><desc>10uF</desc>
<path d="M1559764 1659571 L1599632 1659571 "/>
<path d="M1579698 1659571 L1579698 1589801 L1586343 1599768 L1592988 1606413 L1599632 1609735 "/>
<path d="M1516573 1589801 L1509928 1589801 L1503284 1593123 L1499961 1596446 L1496639 1603090 L1493316 1616380 L1493316 1632992 L1496639 1646281 L1499961 1652926 L1503284 1656248 L1509928 1659571 L1516573 1659571 L1523218 1656248 L1526540 1652926 L1529863 1646281 L1533185 1632992 L1533185 1616380 L1529863 1603090 L1526540 1596446 L1523218 1593123 L1516573 1589801 "/>
<path d="M1433514 1613058 L1433514 1659571 "/>
<path d="M1463415 1613058 L1463415 1649604 L1460093 1656248 L1453448 1659571 L1443481 1659571 L1436836 1656248 L1433514 1652926 "/>
<path d="M1377033 1623025 L1400290 1623025 "/>
<path d="M1400290 1659571 L1400290 1589801 L1367066 1589801 "/>
</g></g>
<g style="fill:#000084; fill-opacity:0.01;  stroke:#000084; stroke-width:5581.580783; stroke-opacity:1;  stroke-linecap:round; stroke-linejoin:round;">
<text x="1485011.033589" y="1528237.934815" transform="scale(-1 1) translate(-2970022.067178 0)" textLength="54503.438652" font-size="46513.126682" lengthAdjust="spacingAndGlyphs" text-anchor="middle" opacity="0.01" style="font-family:monospace">C1</text>
<g class="stroked-text"><desc>C1</desc>
<path d="M1490825 1523254 L1492486 1524915 L1497469 1526576 L1500792 1526576 L1505775 1524915 L1509098 1521593 L1510759 1518270 L1512420 1511626 L1512420 1506642 L1510759 1499997 L1509098 1496675 L1505775 1493353 L1500792 1491691 L1497469 1491691 L1492486 1493353 L1490825 1495014 "/>
<path d="M1457601 1526576 L1477535 1526576 "/>
<path d="M1467568 1526576 L1467568 1491691 L1470890 1496675 L1474213 1499997 L1477535 1501658 "/>
</g></g>
<g style="fill:#000084; fill-opacity:0.01;  stroke:#000084; stroke-width:10465.463969; stroke-opacity:1;  stroke-linecap:round; stroke-linejoin:round;">
<text x="1383286.723811" y="1521121.419316" transform="scale(-1 1) translate(-2766573.447623 0)" textLength="315013.814412" font-size="93026.323134" lengthAdjust="spacingAndGlyphs" text-anchor="middle" opacity="0.01" style="font-family:monospace">100nF</text>
<g class="stroked-text"><desc>100nF</desc>
<path d="M1491263 1517798 L1531132 1517798 "/>
<path d="M1511197 1517798 L1511197 1448029 L1517842 1457996 L1524487 1464641 L1531132 1467963 "/>
<path d="M1448072 1448029 L1441428 1448029 L1434783 1451351 L1431461 1454674 L1428138 1461318 L1424816 1474608 L1424816 1491220 L1428138 1504509 L1431461 1511154 L1434783 1514476 L1441428 1517798 L1448072 1517798 L1454717 1514476 L1458039 1511154 L1461362 1504509 L1464684 1491220 L1464684 1474608 L1461362 1461318 L1458039 1454674 L1454717 1451351 L1448072 1448029 "/>
<path d="M1381625 1448029 L1374980 1448029 L1368336 1451351 L1365013 1454674 L1361691 1461318 L1358368 1474608 L1358368 1491220 L1361691 1504509 L1365013 1511154 L1368336 1514476 L1374980 1517798 L1381625 1517798 L1388270 1514476 L1391592 1511154 L1394914 1504509 L1398237 1491220 L1398237 1474608 L1394914 1461318 L1391592 1454674 L1388270 1451351 L1381625 1448029 "/>
<path d="M1328467 1471285 L1328467 1517798 "/>
<path d="M1328467 1477930 L1325145 1474608 L1318500 1471285 L1308533 1471285 L1301888 1474608 L1298566 1481252 L1298566 1517798 "/>
<path d="M1242085 1481252 L1265342 1481252 "/>
<path d="M1265342 1517798 L1265342 1448029 L1232118 1448029 "/>
</g></g>
<g style="fill:#000084; fill-opacity:0.01;  stroke:#000084; stroke-width:5581.580783; stroke-opacity:1;  stroke-linecap:round; stroke-linejoin:round;">
<text x="1383286.723811" y="1386465.782916" transform="scale(-1 1) translate(-2766573.447623 0)" textLength="54503.438652" font-size="46513.126682" lengthAdjust="spacingAndGlyphs" text-anchor="middle" opacity="0.01" style="font-family:monospace">C2</text>
<g class="stroked-text"><desc>C2</desc>
<path d="M1389100 1381482 L1390761 1383143 L1395745 1384804 L1399067 1384804 L1404051 1383143 L1407373 1379820 L1409035 1376498 L1410696 1369853 L1410696 1364870 L1409035 1358225 L1407373 1354903 L1404051 1351580 L1399067 1349919 L1395745 1349919 L1390761 1351580 L1389100 1353242 "/>
<path d="M1375811 1353242 L1374150 1351580 L1370827 1349919 L1362521 1349919 L1359199 1351580 L1357538 1353242 L1355877 1356564 L1355877 1359886 L1357538 1364870 L1377472 1384804 L1355877 1384804 "/>
</g></g>
<g style="fill:#000084; fill-opacity:0.0;  stroke:#000084; stroke-width:6976.975979; stroke-opacity:1;  stroke-linecap:round; stroke-linejoin:round;">
<path d="M1072183 903031 L1072183 1267926 "/>
<path d="M1437079 1267926 L1437079 903031 "/>
<path d="M1072183 1179319 L1160790 1267926 "/>
<path d="M1437079 903031 L1072183 903031 "/>
<path d="M1072183 1267926 L1437079 1267926 "/>
<path d="M1023274 644115 L1344215 644115 "/>
<path d="M1229056 748841 L1148778 801119 "/>
<path d="M1229056 693018 L1229056 804664 "/>
<path d="M1229056 748841 L1148778 693018 "/>
<path d="M1023274 644115 L1023274 853424 "/>
<path d="M1023274 853424 L1344215 853424 "/>
<path d="M1148778 748841 L1079132 748841 "/>
<path d="M1148778 801119 L1148778 693018 "/>
<path d="M1229056 748841 L1291967 748841 "/>
<path d="M1344215 853424 L1344215 644115 "/>
<path d="M1415241 1554401 L1554780 1554401 "/>
<path d="M1554780 1554401 L1554780 1467189 "/>
<path d="M1415241 1467189 L1415241 1554401 "/>
<path d="M1554780 1467189 L1415241 1467189 "/>
<path d="M1453056 1325417 L1313516 1325417 "/>
<path d="M1453056 1412629 L1453056 1325417 "/>
<path d="M1313516 1325417 L1313516 1412629 "/>
<path d="M1313516 1412629 L1453056 1412629 "/>
<g>
</g>
<g>
</g>
<g>
</g>
<g>
</g>
<g>
</g>
<g>
</g>
<g>
</g>
<g>
</g>
<g>
</g>
<g>
</g>
<g>
</g>
<g>
</g>
</g> 
<svg:g><svg:g><svg:title>SVG Picture created as FRAM01-Edge_Cuts.svg date 2023/07/05 12:35:52 </svg:title>
  <svg:desc>Picture generated by PCBNEW </svg:desc>
<svg:g style="fill:#C2C200; fill-opacity:1.000000;stroke:#C2C200; stroke-opacity:1.000000; stroke-linecap:round; stroke-linejoin:round;" transform="translate(0 0) scale(1 1)">
</svg:g>
<svg:g style="fill:#C2C200; fill-opacity:0.0;  stroke:#C2C200; stroke-width:0.000000; stroke-opacity:1;  stroke-linecap:round; stroke-linejoin:round;">
</svg:g>
<svg:g style="fill:#C2C200; fill-opacity:0.0;  stroke:#C2C200; stroke-width:8860.759494; stroke-opacity:1;  stroke-linecap:round; stroke-linejoin:round;">
<svg:path d="M2176150 2095605 L793871 2095605 "/>
<svg:path d="M793871 4466 L793871 2095605 "/>
<svg:path d="M2176150 4466 L2176150 2095605 "/>
<svg:path d="M793871 4466 L2176150 4466 "/>
<svg:g>
</svg:g>
<svg:g>
</svg:g>
<svg:g>
</svg:g>
<svg:g>
</svg:g>
<svg:g>
</svg:g>
<svg:g>
</svg:g>
<svg:g>
</svg:g>
<svg:g>
</svg:g>
<svg:g>
</svg:g>
<svg:g>
</svg:g>
<svg:g>
</svg:g>
<svg:g>
</svg:g>
</svg:g> 
</svg:g></svg:g></svg>
