<?xml version='1.0' encoding='ASCII' standalone='yes'?>
<svg xmlns:svg="http://www.w3.org/2000/svg" xmlns="http://www.w3.org/2000/svg" xmlns:xlink="http://www.w3.org/1999/xlink" version="1.1" width="297.0022mm" height="210.0072mm" viewBox="0.0000 0.0000 297.0022 210.0072">
<title>SVG Image created as FRAM01-B_Fab.svg date 2023/07/05 15:04:48 </title>
  <desc>Image generated by PCBNEW </desc>
<g style="fill:#000084; fill-opacity:1.0000;stroke:#000084; stroke-opacity:1.0000; stroke-linecap:round; stroke-linejoin:round;" transform="translate(0 0) scale(1 1)">
</g>
<g style="fill:#000084; fill-opacity:0.0;  stroke:#000084; stroke-width:0.0000; stroke-opacity:1;  stroke-linecap:round; stroke-linejoin:round;">
</g>
<g style="fill:#000084; fill-opacity:0.01;  stroke:#000084; stroke-width:1.7722; stroke-opacity:1;  stroke-linecap:round; stroke-linejoin:round;">
<text x="125.4631" y="112.9783" transform="scale(-1 1) translate(-250.926257 0)" textLength="24.1772" font-size="11.8143" lengthAdjust="spacingAndGlyphs" text-anchor="middle" opacity="0.01" style="font-family:monospace">IC1</text>
<g class="stroked-text"><desc>IC1</desc>
<path d="M134.1129 112.5549 L134.1129 103.6941 "/>
<path d="M124.8302 111.7110 L125.2522 112.1330 "/>
<path d="M125.2522 112.1330 L126.5180 112.5549 "/>
<path d="M126.5180 112.5549 L127.3619 112.5549 "/>
<path d="M127.3619 112.5549 L128.6277 112.1330 "/>
<path d="M128.6277 112.1330 L129.4716 111.2891 "/>
<path d="M129.4716 111.2891 L129.8935 110.4452 "/>
<path d="M129.8935 110.4452 L130.3154 108.7574 "/>
<path d="M130.3154 108.7574 L130.3154 107.4916 "/>
<path d="M130.3154 107.4916 L129.8935 105.8039 "/>
<path d="M129.8935 105.8039 L129.4716 104.9600 "/>
<path d="M129.4716 104.9600 L128.6277 104.1161 "/>
<path d="M128.6277 104.1161 L127.3619 103.6941 "/>
<path d="M127.3619 103.6941 L126.5180 103.6941 "/>
<path d="M126.5180 103.6941 L125.2522 104.1161 "/>
<path d="M125.2522 104.1161 L124.8302 104.5380 "/>
<path d="M116.3914 112.5549 L121.4547 112.5549 "/>
<path d="M118.9230 112.5549 L118.9230 103.6941 "/>
<path d="M118.9230 103.6941 L119.7669 104.9600 "/>
<path d="M119.7669 104.9600 L120.6108 105.8039 "/>
<path d="M120.6108 105.8039 L121.4547 106.2258 "/>
</g></g>
<g style="fill:#000084; fill-opacity:0.01;  stroke:#000084; stroke-width:1.0465; stroke-opacity:1;  stroke-linecap:round; stroke-linejoin:round;">
<text x="118.3745" y="96.5056" transform="scale(-1 1) translate(-236.749042 0)" textLength="72.3197" font-size="9.3026" lengthAdjust="spacingAndGlyphs" text-anchor="middle" opacity="0.01" style="font-family:monospace">BZV55C-5,6V</text>
<g class="stroked-text"><desc>BZV55C-5,6V</desc>
<path d="M149.9370 92.5358 L148.9403 92.8680 "/>
<path d="M148.9403 92.8680 L148.6081 93.2003 "/>
<path d="M148.6081 93.2003 L148.2758 93.8648 "/>
<path d="M148.2758 93.8648 L148.2758 94.8615 "/>
<path d="M148.2758 94.8615 L148.6081 95.5259 "/>
<path d="M148.6081 95.5259 L148.9403 95.8582 "/>
<path d="M148.9403 95.8582 L149.6048 96.1904 "/>
<path d="M149.6048 96.1904 L152.2627 96.1904 "/>
<path d="M152.2627 96.1904 L152.2627 89.2134 "/>
<path d="M152.2627 89.2134 L149.9370 89.2134 "/>
<path d="M149.9370 89.2134 L149.2726 89.5457 "/>
<path d="M149.2726 89.5457 L148.9403 89.8779 "/>
<path d="M148.9403 89.8779 L148.6081 90.5424 "/>
<path d="M148.6081 90.5424 L148.6081 91.2069 "/>
<path d="M148.6081 91.2069 L148.9403 91.8713 "/>
<path d="M148.9403 91.8713 L149.2726 92.2036 "/>
<path d="M149.2726 92.2036 L149.9370 92.5358 "/>
<path d="M149.9370 92.5358 L152.2627 92.5358 "/>
<path d="M145.9502 89.2134 L141.2989 89.2134 "/>
<path d="M141.2989 89.2134 L145.9502 96.1904 "/>
<path d="M145.9502 96.1904 L141.2989 96.1904 "/>
<path d="M139.6377 89.2134 L137.3120 96.1904 "/>
<path d="M137.3120 96.1904 L134.9864 89.2134 "/>
<path d="M129.3383 89.2134 L132.6607 89.2134 "/>
<path d="M132.6607 89.2134 L132.9929 92.5358 "/>
<path d="M132.9929 92.5358 L132.6607 92.2036 "/>
<path d="M132.6607 92.2036 L131.9962 91.8713 "/>
<path d="M131.9962 91.8713 L130.3350 91.8713 "/>
<path d="M130.3350 91.8713 L129.6706 92.2036 "/>
<path d="M129.6706 92.2036 L129.3383 92.5358 "/>
<path d="M129.3383 92.5358 L129.0061 93.2003 "/>
<path d="M129.0061 93.2003 L129.0061 94.8615 "/>
<path d="M129.0061 94.8615 L129.3383 95.5259 "/>
<path d="M129.3383 95.5259 L129.6706 95.8582 "/>
<path d="M129.6706 95.8582 L130.3350 96.1904 "/>
<path d="M130.3350 96.1904 L131.9962 96.1904 "/>
<path d="M131.9962 96.1904 L132.6607 95.8582 "/>
<path d="M132.6607 95.8582 L132.9929 95.5259 "/>
<path d="M122.6936 89.2134 L126.0160 89.2134 "/>
<path d="M126.0160 89.2134 L126.3482 92.5358 "/>
<path d="M126.3482 92.5358 L126.0160 92.2036 "/>
<path d="M126.0160 92.2036 L125.3515 91.8713 "/>
<path d="M125.3515 91.8713 L123.6903 91.8713 "/>
<path d="M123.6903 91.8713 L123.0258 92.2036 "/>
<path d="M123.0258 92.2036 L122.6936 92.5358 "/>
<path d="M122.6936 92.5358 L122.3614 93.2003 "/>
<path d="M122.3614 93.2003 L122.3614 94.8615 "/>
<path d="M122.3614 94.8615 L122.6936 95.5259 "/>
<path d="M122.6936 95.5259 L123.0258 95.8582 "/>
<path d="M123.0258 95.8582 L123.6903 96.1904 "/>
<path d="M123.6903 96.1904 L125.3515 96.1904 "/>
<path d="M125.3515 96.1904 L126.0160 95.8582 "/>
<path d="M126.0160 95.8582 L126.3482 95.5259 "/>
<path d="M115.3844 95.5259 L115.7166 95.8582 "/>
<path d="M115.7166 95.8582 L116.7133 96.1904 "/>
<path d="M116.7133 96.1904 L117.3778 96.1904 "/>
<path d="M117.3778 96.1904 L118.3745 95.8582 "/>
<path d="M118.3745 95.8582 L119.0390 95.1937 "/>
<path d="M119.0390 95.1937 L119.3712 94.5292 "/>
<path d="M119.3712 94.5292 L119.7035 93.2003 "/>
<path d="M119.7035 93.2003 L119.7035 92.2036 "/>
<path d="M119.7035 92.2036 L119.3712 90.8746 "/>
<path d="M119.3712 90.8746 L119.0390 90.2102 "/>
<path d="M119.0390 90.2102 L118.3745 89.5457 "/>
<path d="M118.3745 89.5457 L117.3778 89.2134 "/>
<path d="M117.3778 89.2134 L116.7133 89.2134 "/>
<path d="M116.7133 89.2134 L115.7166 89.5457 "/>
<path d="M115.7166 89.5457 L115.3844 89.8779 "/>
<path d="M112.3942 93.5325 L107.0785 93.5325 "/>
<path d="M100.4337 89.2134 L103.7561 89.2134 "/>
<path d="M103.7561 89.2134 L104.0883 92.5358 "/>
<path d="M104.0883 92.5358 L103.7561 92.2036 "/>
<path d="M103.7561 92.2036 L103.0916 91.8713 "/>
<path d="M103.0916 91.8713 L101.4304 91.8713 "/>
<path d="M101.4304 91.8713 L100.7660 92.2036 "/>
<path d="M100.7660 92.2036 L100.4337 92.5358 "/>
<path d="M100.4337 92.5358 L100.1015 93.2003 "/>
<path d="M100.1015 93.2003 L100.1015 94.8615 "/>
<path d="M100.1015 94.8615 L100.4337 95.5259 "/>
<path d="M100.4337 95.5259 L100.7660 95.8582 "/>
<path d="M100.7660 95.8582 L101.4304 96.1904 "/>
<path d="M101.4304 96.1904 L103.0916 96.1904 "/>
<path d="M103.0916 96.1904 L103.7561 95.8582 "/>
<path d="M103.7561 95.8582 L104.0883 95.5259 "/>
<path d="M96.7791 95.8582 L96.7791 96.1904 "/>
<path d="M96.7791 96.1904 L97.1113 96.8549 "/>
<path d="M97.1113 96.8549 L97.4436 97.1871 "/>
<path d="M90.7989 89.2134 L92.1278 89.2134 "/>
<path d="M92.1278 89.2134 L92.7923 89.5457 "/>
<path d="M92.7923 89.5457 L93.1245 89.8779 "/>
<path d="M93.1245 89.8779 L93.7890 90.8746 "/>
<path d="M93.7890 90.8746 L94.1212 92.2036 "/>
<path d="M94.1212 92.2036 L94.1212 94.8615 "/>
<path d="M94.1212 94.8615 L93.7890 95.5259 "/>
<path d="M93.7890 95.5259 L93.4567 95.8582 "/>
<path d="M93.4567 95.8582 L92.7923 96.1904 "/>
<path d="M92.7923 96.1904 L91.4633 96.1904 "/>
<path d="M91.4633 96.1904 L90.7989 95.8582 "/>
<path d="M90.7989 95.8582 L90.4666 95.5259 "/>
<path d="M90.4666 95.5259 L90.1344 94.8615 "/>
<path d="M90.1344 94.8615 L90.1344 93.2003 "/>
<path d="M90.1344 93.2003 L90.4666 92.5358 "/>
<path d="M90.4666 92.5358 L90.7989 92.2036 "/>
<path d="M90.7989 92.2036 L91.4633 91.8713 "/>
<path d="M91.4633 91.8713 L92.7923 91.8713 "/>
<path d="M92.7923 91.8713 L93.4567 92.2036 "/>
<path d="M93.4567 92.2036 L93.7890 92.5358 "/>
<path d="M93.7890 92.5358 L94.1212 93.2003 "/>
<path d="M88.1410 89.2134 L85.8153 96.1904 "/>
<path d="M85.8153 96.1904 L83.4896 89.2134 "/>
</g><text x="118.3745" y="60.9231" transform="scale(-1 1) translate(-236.749042 0)" textLength="14.8427" font-size="9.3026" lengthAdjust="spacingAndGlyphs" text-anchor="middle" opacity="0.01" style="font-family:monospace">D1</text>
<g class="stroked-text"><desc>D1</desc>
<path d="M123.5242 60.6078 L123.5242 53.6309 "/>
<path d="M123.5242 53.6309 L121.8630 53.6309 "/>
<path d="M121.8630 53.6309 L120.8663 53.9631 "/>
<path d="M120.8663 53.9631 L120.2018 54.6276 "/>
<path d="M120.2018 54.6276 L119.8696 55.2920 "/>
<path d="M119.8696 55.2920 L119.5373 56.6210 "/>
<path d="M119.5373 56.6210 L119.5373 57.6177 "/>
<path d="M119.5373 57.6177 L119.8696 58.9466 "/>
<path d="M119.8696 58.9466 L120.2018 59.6111 "/>
<path d="M120.2018 59.6111 L120.8663 60.2756 "/>
<path d="M120.8663 60.2756 L121.8630 60.6078 "/>
<path d="M121.8630 60.6078 L123.5242 60.6078 "/>
<path d="M112.8926 60.6078 L116.8794 60.6078 "/>
<path d="M114.8860 60.6078 L114.8860 53.6309 "/>
<path d="M114.8860 53.6309 L115.5505 54.6276 "/>
<path d="M115.5505 54.6276 L116.2150 55.2920 "/>
<path d="M116.2150 55.2920 L116.8794 55.6243 "/>
</g><text x="148.5011" y="166.2894" transform="scale(-1 1) translate(-297.002207 0)" textLength="26.8032" font-size="9.3026" lengthAdjust="spacingAndGlyphs" text-anchor="middle" opacity="0.01" style="font-family:monospace">10uF</text>
<g class="stroked-text"><desc>10uF</desc>
<path d="M155.9764 165.9741 L159.9633 165.9741 "/>
<path d="M157.9699 165.9741 L157.9699 158.9972 "/>
<path d="M157.9699 158.9972 L158.6343 159.9939 "/>
<path d="M158.6343 159.9939 L159.2988 160.6583 "/>
<path d="M159.2988 160.6583 L159.9633 160.9906 "/>
<path d="M151.6573 158.9972 L150.9929 158.9972 "/>
<path d="M150.9929 158.9972 L150.3284 159.3294 "/>
<path d="M150.3284 159.3294 L149.9962 159.6616 "/>
<path d="M149.9962 159.6616 L149.6639 160.3261 "/>
<path d="M149.6639 160.3261 L149.3317 161.6550 "/>
<path d="M149.3317 161.6550 L149.3317 163.3162 "/>
<path d="M149.3317 163.3162 L149.6639 164.6452 "/>
<path d="M149.6639 164.6452 L149.9962 165.3097 "/>
<path d="M149.9962 165.3097 L150.3284 165.6419 "/>
<path d="M150.3284 165.6419 L150.9929 165.9741 "/>
<path d="M150.9929 165.9741 L151.6573 165.9741 "/>
<path d="M151.6573 165.9741 L152.3218 165.6419 "/>
<path d="M152.3218 165.6419 L152.6541 165.3097 "/>
<path d="M152.6541 165.3097 L152.9863 164.6452 "/>
<path d="M152.9863 164.6452 L153.3185 163.3162 "/>
<path d="M153.3185 163.3162 L153.3185 161.6550 "/>
<path d="M153.3185 161.6550 L152.9863 160.3261 "/>
<path d="M152.9863 160.3261 L152.6541 159.6616 "/>
<path d="M152.6541 159.6616 L152.3218 159.3294 "/>
<path d="M152.3218 159.3294 L151.6573 158.9972 "/>
<path d="M143.3514 161.3228 L143.3514 165.9741 "/>
<path d="M146.3416 161.3228 L146.3416 164.9774 "/>
<path d="M146.3416 164.9774 L146.0093 165.6419 "/>
<path d="M146.0093 165.6419 L145.3448 165.9741 "/>
<path d="M145.3448 165.9741 L144.3481 165.9741 "/>
<path d="M144.3481 165.9741 L143.6837 165.6419 "/>
<path d="M143.6837 165.6419 L143.3514 165.3097 "/>
<path d="M137.7034 162.3195 L140.0291 162.3195 "/>
<path d="M140.0291 165.9741 L140.0291 158.9972 "/>
<path d="M140.0291 158.9972 L136.7067 158.9972 "/>
</g></g>
<g style="fill:#000084; fill-opacity:0.01;  stroke:#000084; stroke-width:0.5582; stroke-opacity:1;  stroke-linecap:round; stroke-linejoin:round;">
<text x="148.5011" y="152.8238" transform="scale(-1 1) translate(-297.002207 0)" textLength="7.5086" font-size="4.6513" lengthAdjust="spacingAndGlyphs" text-anchor="middle" opacity="0.01" style="font-family:monospace">C1</text>
<g class="stroked-text"><desc>C1</desc>
<path d="M149.0825 152.3321 L149.2486 152.4982 "/>
<path d="M149.2486 152.4982 L149.7470 152.6644 "/>
<path d="M149.7470 152.6644 L150.0792 152.6644 "/>
<path d="M150.0792 152.6644 L150.5776 152.4982 "/>
<path d="M150.5776 152.4982 L150.9098 152.1660 "/>
<path d="M150.9098 152.1660 L151.0759 151.8338 "/>
<path d="M151.0759 151.8338 L151.2421 151.1693 "/>
<path d="M151.2421 151.1693 L151.2421 150.6709 "/>
<path d="M151.2421 150.6709 L151.0759 150.0065 "/>
<path d="M151.0759 150.0065 L150.9098 149.6742 "/>
<path d="M150.9098 149.6742 L150.5776 149.3420 "/>
<path d="M150.5776 149.3420 L150.0792 149.1759 "/>
<path d="M150.0792 149.1759 L149.7470 149.1759 "/>
<path d="M149.7470 149.1759 L149.2486 149.3420 "/>
<path d="M149.2486 149.3420 L149.0825 149.5081 "/>
<path d="M145.7601 152.6644 L147.7536 152.6644 "/>
<path d="M146.7569 152.6644 L146.7569 149.1759 "/>
<path d="M146.7569 149.1759 L147.0891 149.6742 "/>
<path d="M147.0891 149.6742 L147.4213 150.0065 "/>
<path d="M147.4213 150.0065 L147.7536 150.1726 "/>
</g></g>
<g style="fill:#000084; fill-opacity:0.01;  stroke:#000084; stroke-width:1.0465; stroke-opacity:1;  stroke-linecap:round; stroke-linejoin:round;">
<text x="138.3287" y="152.1121" transform="scale(-1 1) translate(-276.657345 0)" textLength="33.4480" font-size="9.3026" lengthAdjust="spacingAndGlyphs" text-anchor="middle" opacity="0.01" style="font-family:monospace">100nF</text>
<g class="stroked-text"><desc>100nF</desc>
<path d="M149.1264 151.7969 L153.1132 151.7969 "/>
<path d="M151.1198 151.7969 L151.1198 144.8199 "/>
<path d="M151.1198 144.8199 L151.7843 145.8166 "/>
<path d="M151.7843 145.8166 L152.4487 146.4811 "/>
<path d="M152.4487 146.4811 L153.1132 146.8134 "/>
<path d="M144.8073 144.8199 L144.1428 144.8199 "/>
<path d="M144.1428 144.8199 L143.4783 145.1522 "/>
<path d="M143.4783 145.1522 L143.1461 145.4844 "/>
<path d="M143.1461 145.4844 L142.8139 146.1489 "/>
<path d="M142.8139 146.1489 L142.4816 147.4778 "/>
<path d="M142.4816 147.4778 L142.4816 149.1390 "/>
<path d="M142.4816 149.1390 L142.8139 150.4680 "/>
<path d="M142.8139 150.4680 L143.1461 151.1324 "/>
<path d="M143.1461 151.1324 L143.4783 151.4647 "/>
<path d="M143.4783 151.4647 L144.1428 151.7969 "/>
<path d="M144.1428 151.7969 L144.8073 151.7969 "/>
<path d="M144.8073 151.7969 L145.4718 151.4647 "/>
<path d="M145.4718 151.4647 L145.8040 151.1324 "/>
<path d="M145.8040 151.1324 L146.1362 150.4680 "/>
<path d="M146.1362 150.4680 L146.4685 149.1390 "/>
<path d="M146.4685 149.1390 L146.4685 147.4778 "/>
<path d="M146.4685 147.4778 L146.1362 146.1489 "/>
<path d="M146.1362 146.1489 L145.8040 145.4844 "/>
<path d="M145.8040 145.4844 L145.4718 145.1522 "/>
<path d="M145.4718 145.1522 L144.8073 144.8199 "/>
<path d="M138.1626 144.8199 L137.4981 144.8199 "/>
<path d="M137.4981 144.8199 L136.8336 145.1522 "/>
<path d="M136.8336 145.1522 L136.5014 145.4844 "/>
<path d="M136.5014 145.4844 L136.1691 146.1489 "/>
<path d="M136.1691 146.1489 L135.8369 147.4778 "/>
<path d="M135.8369 147.4778 L135.8369 149.1390 "/>
<path d="M135.8369 149.1390 L136.1691 150.4680 "/>
<path d="M136.1691 150.4680 L136.5014 151.1324 "/>
<path d="M136.5014 151.1324 L136.8336 151.4647 "/>
<path d="M136.8336 151.4647 L137.4981 151.7969 "/>
<path d="M137.4981 151.7969 L138.1626 151.7969 "/>
<path d="M138.1626 151.7969 L138.8270 151.4647 "/>
<path d="M138.8270 151.4647 L139.1593 151.1324 "/>
<path d="M139.1593 151.1324 L139.4915 150.4680 "/>
<path d="M139.4915 150.4680 L139.8237 149.1390 "/>
<path d="M139.8237 149.1390 L139.8237 147.4778 "/>
<path d="M139.8237 147.4778 L139.4915 146.1489 "/>
<path d="M139.4915 146.1489 L139.1593 145.4844 "/>
<path d="M139.1593 145.4844 L138.8270 145.1522 "/>
<path d="M138.8270 145.1522 L138.1626 144.8199 "/>
<path d="M132.8468 147.1456 L132.8468 151.7969 "/>
<path d="M132.8468 147.8101 L132.5145 147.4778 "/>
<path d="M132.5145 147.4778 L131.8500 147.1456 "/>
<path d="M131.8500 147.1456 L130.8533 147.1456 "/>
<path d="M130.8533 147.1456 L130.1889 147.4778 "/>
<path d="M130.1889 147.4778 L129.8566 148.1423 "/>
<path d="M129.8566 148.1423 L129.8566 151.7969 "/>
<path d="M124.2086 148.1423 L126.5343 148.1423 "/>
<path d="M126.5343 151.7969 L126.5343 144.8199 "/>
<path d="M126.5343 144.8199 L123.2119 144.8199 "/>
</g></g>
<g style="fill:#000084; fill-opacity:0.01;  stroke:#000084; stroke-width:0.5582; stroke-opacity:1;  stroke-linecap:round; stroke-linejoin:round;">
<text x="138.3287" y="138.6466" transform="scale(-1 1) translate(-276.657345 0)" textLength="7.5086" font-size="4.6513" lengthAdjust="spacingAndGlyphs" text-anchor="middle" opacity="0.01" style="font-family:monospace">C2</text>
<g class="stroked-text"><desc>C2</desc>
<path d="M138.9101 138.1549 L139.0762 138.3210 "/>
<path d="M139.0762 138.3210 L139.5746 138.4871 "/>
<path d="M139.5746 138.4871 L139.9068 138.4871 "/>
<path d="M139.9068 138.4871 L140.4051 138.3210 "/>
<path d="M140.4051 138.3210 L140.7374 137.9888 "/>
<path d="M140.7374 137.9888 L140.9035 137.6566 "/>
<path d="M140.9035 137.6566 L141.0696 136.9921 "/>
<path d="M141.0696 136.9921 L141.0696 136.4937 "/>
<path d="M141.0696 136.4937 L140.9035 135.8293 "/>
<path d="M140.9035 135.8293 L140.7374 135.4970 "/>
<path d="M140.7374 135.4970 L140.4051 135.1648 "/>
<path d="M140.4051 135.1648 L139.9068 134.9987 "/>
<path d="M139.9068 134.9987 L139.5746 134.9987 "/>
<path d="M139.5746 134.9987 L139.0762 135.1648 "/>
<path d="M139.0762 135.1648 L138.9101 135.3309 "/>
<path d="M137.5811 135.3309 L137.4150 135.1648 "/>
<path d="M137.4150 135.1648 L137.0828 134.9987 "/>
<path d="M137.0828 134.9987 L136.2522 134.9987 "/>
<path d="M136.2522 134.9987 L135.9199 135.1648 "/>
<path d="M135.9199 135.1648 L135.7538 135.3309 "/>
<path d="M135.7538 135.3309 L135.5877 135.6631 "/>
<path d="M135.5877 135.6631 L135.5877 135.9954 "/>
<path d="M135.5877 135.9954 L135.7538 136.4937 "/>
<path d="M135.7538 136.4937 L137.7473 138.4871 "/>
<path d="M137.7473 138.4871 L135.5877 138.4871 "/>
</g></g>
<g style="fill:#000084; fill-opacity:0.0;  stroke:#000084; stroke-width:0.6977; stroke-opacity:1;  stroke-linecap:round; stroke-linejoin:round;">
<path d="M107.2183 90.3031 L107.2183 126.7927 "/>
<path d="M143.7079 126.7927 L143.7079 90.3031 "/>
<path d="M107.2183 117.9319 L116.0791 126.7927 "/>
<path d="M143.7079 90.3031 L107.2183 90.3031 "/>
<path d="M107.2183 126.7927 L143.7079 126.7927 "/>
<path d="M102.3275 64.4116 L134.4216 64.4116 "/>
<path d="M122.9056 74.8841 L114.8778 80.1120 "/>
<path d="M122.9056 69.3019 L122.9056 80.4664 "/>
<path d="M122.9056 74.8841 L114.8778 69.3019 "/>
<path d="M102.3275 64.4116 L102.3275 85.3425 "/>
<path d="M102.3275 85.3425 L134.4216 85.3425 "/>
<path d="M114.8778 74.8841 L107.9132 74.8841 "/>
<path d="M114.8778 80.1120 L114.8778 69.3019 "/>
<path d="M122.9056 74.8841 L129.1968 74.8841 "/>
<path d="M134.4216 85.3425 L134.4216 64.4116 "/>
<path d="M141.5241 155.4402 L155.4781 155.4402 "/>
<path d="M155.4781 155.4402 L155.4781 146.7189 "/>
<path d="M141.5241 146.7189 L141.5241 155.4402 "/>
<path d="M155.4781 146.7189 L141.5241 146.7189 "/>
<path d="M145.3056 132.5417 L131.3517 132.5417 "/>
<path d="M145.3056 141.2629 L145.3056 132.5417 "/>
<path d="M131.3517 132.5417 L131.3517 141.2629 "/>
<path d="M131.3517 141.2629 L145.3056 141.2629 "/>
<g>
</g>
<g>
</g>
<g>
</g>
<g>
</g>
<g>
</g>
<g>
</g>
<g>
</g>
<g>
</g>
<g>
</g>
<g>
</g>
<g>
</g>
<g>
</g>
</g> 
<svg:g><svg:g><svg:title>SVG Image created as FRAM01-Edge_Cuts.svg date 2023/07/05 15:04:48 </svg:title>
  <svg:desc>Image generated by PCBNEW </svg:desc>
<svg:g style="fill:#C2C200; fill-opacity:1.0000;stroke:#C2C200; stroke-opacity:1.0000; stroke-linecap:round; stroke-linejoin:round;" transform="translate(0 0) scale(1 1)">
</svg:g>
<svg:g style="fill:#C2C200; fill-opacity:0.0;  stroke:#C2C200; stroke-width:0.0000; stroke-opacity:1;  stroke-linecap:round; stroke-linejoin:round;">
</svg:g>
<svg:g style="fill:#C2C200; fill-opacity:0.0;  stroke:#C2C200; stroke-width:0.8861; stroke-opacity:1;  stroke-linecap:round; stroke-linejoin:round;">
<svg:path d="M217.6150 209.5606 L79.3872 209.5606 "/>
<svg:path d="M79.3872 0.4466 L79.3872 209.5606 "/>
<svg:path d="M217.6150 0.4466 L217.6150 209.5606 "/>
<svg:path d="M79.3872 0.4466 L217.6150 0.4466 "/>
<svg:g>
</svg:g>
<svg:g>
</svg:g>
<svg:g>
</svg:g>
<svg:g>
</svg:g>
<svg:g>
</svg:g>
<svg:g>
</svg:g>
<svg:g>
</svg:g>
<svg:g>
</svg:g>
<svg:g>
</svg:g>
<svg:g>
</svg:g>
<svg:g>
</svg:g>
<svg:g>
</svg:g>
</svg:g> 
</svg:g></svg:g></svg>
