M48
; DRILL file {KiCad 6.0.11+dfsg-1~bpo11+1} date Wed Jul  5 12:33:23 2023
; FORMAT={3:3/ absolute / metric / suppress leading zeros}
; #@! TF.CreationDate,2023-07-05T12:33:23+00:00
; #@! TF.GenerationSoftware,Kicad,Pcbnew,6.0.11+dfsg-1~bpo11+1
; #@! TF.FileFunction,Plated,1,2,PTH
FMAT,2
METRIC,TZ
; #@! TA.AperFunction,Plated,PTH,ViaDrill
T1C0.400
; #@! TA.AperFunction,Plated,PTH,ComponentDrill
T2C0.889
; #@! TA.AperFunction,Plated,PTH,ComponentDrill
T3C3.000
%
G90
G05
T1
X133604Y-81026
X133604Y-82042
X133604Y-83058
X133604Y-84836
X137160Y-84836
X137160Y-86360
X138176Y-90424
X138176Y-91440
X139700Y-87630
X139700Y-92710
X141478Y-94742
X142748Y-94742
T2
X146050Y-82550
X146050Y-85090
X146050Y-87630
X146050Y-90170
X148590Y-82550
X148590Y-85090
X148590Y-87630
X148590Y-90170
T3
X137160Y-76200
X137160Y-96520
X147320Y-76200
X147320Y-96520
T0
M30
