M48
; DRILL file {KiCad 7.0.7-7.0.7~ubuntu23.04.1} date Wed Sep  6 14:45:01 2023
; FORMAT={3:3/ absolute / metric / suppress leading zeros}
; #@! TF.CreationDate,2023-09-06T14:45:01+00:00
; #@! TF.GenerationSoftware,Kicad,Pcbnew,7.0.7-7.0.7~ubuntu23.04.1
; #@! TF.FileFunction,Plated,1,2,PTH
FMAT,2
METRIC,TZ
; #@! TA.AperFunction,Plated,PTH,ViaDrill
T1C0.400
; #@! TA.AperFunction,Plated,PTH,ComponentDrill
T2C0.889
; #@! TA.AperFunction,Plated,PTH,ComponentDrill
T3C3.000
%
G90
G05
T1
X133604Y-79502
X133604Y-84074
X134620Y-84074
X135636Y-84074
X138684Y-91948
X140462Y-90170
X140716Y-80518
X140716Y-81534
X140716Y-82550
X140970Y-93980
T2
X134366Y-86360
X134366Y-88900
X134366Y-91440
X136906Y-86360
X136906Y-88900
X136906Y-91440
X147574Y-81280
X147574Y-83820
X147574Y-86360
X147574Y-88900
X147574Y-91440
X150114Y-81280
X150114Y-83820
X150114Y-86360
X150114Y-88900
X150114Y-91440
T3
X137160Y-76200
X137160Y-96520
X147320Y-76200
X147320Y-96520
T0
M30
