%TF.GenerationSoftware,KiCad,Pcbnew,7.0.7-7.0.7~ubuntu23.04.1*%
%TF.CreationDate,2023-09-06T15:51:11+00:00*%
%TF.ProjectId,FRAM01,4652414d-3031-42e6-9b69-6361645f7063,rev?*%
%TF.SameCoordinates,Original*%
%TF.FileFunction,Legend,Top*%
%TF.FilePolarity,Positive*%
%FSLAX46Y46*%
G04 Gerber Fmt 4.6, Leading zero omitted, Abs format (unit mm)*
G04 Created by KiCad (PCBNEW 7.0.7-7.0.7~ubuntu23.04.1) date 2023-09-06 15:51:11*
%MOMM*%
%LPD*%
G01*
G04 APERTURE LIST*
%ADD10C,0.150000*%
%ADD11C,0.200000*%
%ADD12R,1.524000X1.524000*%
G04 APERTURE END LIST*
D10*
X149500000Y-82008557D02*
X149800000Y-82908557D01*
X149800000Y-82908557D02*
X150100000Y-82008557D01*
X150400000Y-82908557D02*
X150400000Y-82008557D01*
X150400000Y-82008557D02*
X150614286Y-82008557D01*
X150614286Y-82008557D02*
X150742857Y-82051414D01*
X150742857Y-82051414D02*
X150828572Y-82137128D01*
X150828572Y-82137128D02*
X150871429Y-82222842D01*
X150871429Y-82222842D02*
X150914286Y-82394271D01*
X150914286Y-82394271D02*
X150914286Y-82522842D01*
X150914286Y-82522842D02*
X150871429Y-82694271D01*
X150871429Y-82694271D02*
X150828572Y-82779985D01*
X150828572Y-82779985D02*
X150742857Y-82865700D01*
X150742857Y-82865700D02*
X150614286Y-82908557D01*
X150614286Y-82908557D02*
X150400000Y-82908557D01*
X151300000Y-82908557D02*
X151300000Y-82008557D01*
X151300000Y-82008557D02*
X151514286Y-82008557D01*
X151514286Y-82008557D02*
X151642857Y-82051414D01*
X151642857Y-82051414D02*
X151728572Y-82137128D01*
X151728572Y-82137128D02*
X151771429Y-82222842D01*
X151771429Y-82222842D02*
X151814286Y-82394271D01*
X151814286Y-82394271D02*
X151814286Y-82522842D01*
X151814286Y-82522842D02*
X151771429Y-82694271D01*
X151771429Y-82694271D02*
X151728572Y-82779985D01*
X151728572Y-82779985D02*
X151642857Y-82865700D01*
X151642857Y-82865700D02*
X151514286Y-82908557D01*
X151514286Y-82908557D02*
X151300000Y-82908557D01*
X149914286Y-87551414D02*
X149828572Y-87508557D01*
X149828572Y-87508557D02*
X149700000Y-87508557D01*
X149700000Y-87508557D02*
X149571429Y-87551414D01*
X149571429Y-87551414D02*
X149485714Y-87637128D01*
X149485714Y-87637128D02*
X149442857Y-87722842D01*
X149442857Y-87722842D02*
X149400000Y-87894271D01*
X149400000Y-87894271D02*
X149400000Y-88022842D01*
X149400000Y-88022842D02*
X149442857Y-88194271D01*
X149442857Y-88194271D02*
X149485714Y-88279985D01*
X149485714Y-88279985D02*
X149571429Y-88365700D01*
X149571429Y-88365700D02*
X149700000Y-88408557D01*
X149700000Y-88408557D02*
X149785714Y-88408557D01*
X149785714Y-88408557D02*
X149914286Y-88365700D01*
X149914286Y-88365700D02*
X149957143Y-88322842D01*
X149957143Y-88322842D02*
X149957143Y-88022842D01*
X149957143Y-88022842D02*
X149785714Y-88022842D01*
X150342857Y-88408557D02*
X150342857Y-87508557D01*
X150342857Y-87508557D02*
X150857143Y-88408557D01*
X150857143Y-88408557D02*
X150857143Y-87508557D01*
X151285714Y-88408557D02*
X151285714Y-87508557D01*
X151285714Y-87508557D02*
X151500000Y-87508557D01*
X151500000Y-87508557D02*
X151628571Y-87551414D01*
X151628571Y-87551414D02*
X151714286Y-87637128D01*
X151714286Y-87637128D02*
X151757143Y-87722842D01*
X151757143Y-87722842D02*
X151800000Y-87894271D01*
X151800000Y-87894271D02*
X151800000Y-88022842D01*
X151800000Y-88022842D02*
X151757143Y-88194271D01*
X151757143Y-88194271D02*
X151714286Y-88279985D01*
X151714286Y-88279985D02*
X151628571Y-88365700D01*
X151628571Y-88365700D02*
X151500000Y-88408557D01*
X151500000Y-88408557D02*
X151285714Y-88408557D01*
X140985714Y-82908557D02*
X140985714Y-82008557D01*
X140985714Y-82008557D02*
X141285714Y-82651414D01*
X141285714Y-82651414D02*
X141585714Y-82008557D01*
X141585714Y-82008557D02*
X141585714Y-82908557D01*
X142014285Y-82908557D02*
X142014285Y-82008557D01*
X142399999Y-82865700D02*
X142528571Y-82908557D01*
X142528571Y-82908557D02*
X142742856Y-82908557D01*
X142742856Y-82908557D02*
X142828571Y-82865700D01*
X142828571Y-82865700D02*
X142871428Y-82822842D01*
X142871428Y-82822842D02*
X142914285Y-82737128D01*
X142914285Y-82737128D02*
X142914285Y-82651414D01*
X142914285Y-82651414D02*
X142871428Y-82565700D01*
X142871428Y-82565700D02*
X142828571Y-82522842D01*
X142828571Y-82522842D02*
X142742856Y-82479985D01*
X142742856Y-82479985D02*
X142571428Y-82437128D01*
X142571428Y-82437128D02*
X142485713Y-82394271D01*
X142485713Y-82394271D02*
X142442856Y-82351414D01*
X142442856Y-82351414D02*
X142399999Y-82265700D01*
X142399999Y-82265700D02*
X142399999Y-82179985D01*
X142399999Y-82179985D02*
X142442856Y-82094271D01*
X142442856Y-82094271D02*
X142485713Y-82051414D01*
X142485713Y-82051414D02*
X142571428Y-82008557D01*
X142571428Y-82008557D02*
X142785713Y-82008557D01*
X142785713Y-82008557D02*
X142914285Y-82051414D01*
X143471428Y-82008557D02*
X143642856Y-82008557D01*
X143642856Y-82008557D02*
X143728571Y-82051414D01*
X143728571Y-82051414D02*
X143814285Y-82137128D01*
X143814285Y-82137128D02*
X143857142Y-82308557D01*
X143857142Y-82308557D02*
X143857142Y-82608557D01*
X143857142Y-82608557D02*
X143814285Y-82779985D01*
X143814285Y-82779985D02*
X143728571Y-82865700D01*
X143728571Y-82865700D02*
X143642856Y-82908557D01*
X143642856Y-82908557D02*
X143471428Y-82908557D01*
X143471428Y-82908557D02*
X143385714Y-82865700D01*
X143385714Y-82865700D02*
X143299999Y-82779985D01*
X143299999Y-82779985D02*
X143257142Y-82608557D01*
X143257142Y-82608557D02*
X143257142Y-82308557D01*
X143257142Y-82308557D02*
X143299999Y-82137128D01*
X143299999Y-82137128D02*
X143385714Y-82051414D01*
X143385714Y-82051414D02*
X143471428Y-82008557D01*
D11*
X133961904Y-83008409D02*
X133628571Y-83008409D01*
X133628571Y-83532219D02*
X133628571Y-82532219D01*
X133628571Y-82532219D02*
X134104761Y-82532219D01*
X135057142Y-83532219D02*
X134723809Y-83056028D01*
X134485714Y-83532219D02*
X134485714Y-82532219D01*
X134485714Y-82532219D02*
X134866666Y-82532219D01*
X134866666Y-82532219D02*
X134961904Y-82579838D01*
X134961904Y-82579838D02*
X135009523Y-82627457D01*
X135009523Y-82627457D02*
X135057142Y-82722695D01*
X135057142Y-82722695D02*
X135057142Y-82865552D01*
X135057142Y-82865552D02*
X135009523Y-82960790D01*
X135009523Y-82960790D02*
X134961904Y-83008409D01*
X134961904Y-83008409D02*
X134866666Y-83056028D01*
X134866666Y-83056028D02*
X134485714Y-83056028D01*
X135438095Y-83246504D02*
X135914285Y-83246504D01*
X135342857Y-83532219D02*
X135676190Y-82532219D01*
X135676190Y-82532219D02*
X136009523Y-83532219D01*
X136342857Y-83532219D02*
X136342857Y-82532219D01*
X136342857Y-82532219D02*
X136676190Y-83246504D01*
X136676190Y-83246504D02*
X137009523Y-82532219D01*
X137009523Y-82532219D02*
X137009523Y-83532219D01*
X137676190Y-82532219D02*
X137771428Y-82532219D01*
X137771428Y-82532219D02*
X137866666Y-82579838D01*
X137866666Y-82579838D02*
X137914285Y-82627457D01*
X137914285Y-82627457D02*
X137961904Y-82722695D01*
X137961904Y-82722695D02*
X138009523Y-82913171D01*
X138009523Y-82913171D02*
X138009523Y-83151266D01*
X138009523Y-83151266D02*
X137961904Y-83341742D01*
X137961904Y-83341742D02*
X137914285Y-83436980D01*
X137914285Y-83436980D02*
X137866666Y-83484600D01*
X137866666Y-83484600D02*
X137771428Y-83532219D01*
X137771428Y-83532219D02*
X137676190Y-83532219D01*
X137676190Y-83532219D02*
X137580952Y-83484600D01*
X137580952Y-83484600D02*
X137533333Y-83436980D01*
X137533333Y-83436980D02*
X137485714Y-83341742D01*
X137485714Y-83341742D02*
X137438095Y-83151266D01*
X137438095Y-83151266D02*
X137438095Y-82913171D01*
X137438095Y-82913171D02*
X137485714Y-82722695D01*
X137485714Y-82722695D02*
X137533333Y-82627457D01*
X137533333Y-82627457D02*
X137580952Y-82579838D01*
X137580952Y-82579838D02*
X137676190Y-82532219D01*
X138961904Y-83532219D02*
X138390476Y-83532219D01*
X138676190Y-83532219D02*
X138676190Y-82532219D01*
X138676190Y-82532219D02*
X138580952Y-82675076D01*
X138580952Y-82675076D02*
X138485714Y-82770314D01*
X138485714Y-82770314D02*
X138390476Y-82817933D01*
X139342857Y-83246504D02*
X139819047Y-83246504D01*
X139247619Y-83532219D02*
X139580952Y-82532219D01*
X139580952Y-82532219D02*
X139914285Y-83532219D01*
X133961905Y-85142219D02*
X133961905Y-84142219D01*
X133961905Y-84142219D02*
X134295238Y-84856504D01*
X134295238Y-84856504D02*
X134628571Y-84142219D01*
X134628571Y-84142219D02*
X134628571Y-85142219D01*
X135580952Y-85142219D02*
X135104762Y-85142219D01*
X135104762Y-85142219D02*
X135104762Y-84142219D01*
X135866667Y-84856504D02*
X136342857Y-84856504D01*
X135771429Y-85142219D02*
X136104762Y-84142219D01*
X136104762Y-84142219D02*
X136438095Y-85142219D01*
X137104762Y-84618409D02*
X137247619Y-84666028D01*
X137247619Y-84666028D02*
X137295238Y-84713647D01*
X137295238Y-84713647D02*
X137342857Y-84808885D01*
X137342857Y-84808885D02*
X137342857Y-84951742D01*
X137342857Y-84951742D02*
X137295238Y-85046980D01*
X137295238Y-85046980D02*
X137247619Y-85094600D01*
X137247619Y-85094600D02*
X137152381Y-85142219D01*
X137152381Y-85142219D02*
X136771429Y-85142219D01*
X136771429Y-85142219D02*
X136771429Y-84142219D01*
X136771429Y-84142219D02*
X137104762Y-84142219D01*
X137104762Y-84142219D02*
X137200000Y-84189838D01*
X137200000Y-84189838D02*
X137247619Y-84237457D01*
X137247619Y-84237457D02*
X137295238Y-84332695D01*
X137295238Y-84332695D02*
X137295238Y-84427933D01*
X137295238Y-84427933D02*
X137247619Y-84523171D01*
X137247619Y-84523171D02*
X137200000Y-84570790D01*
X137200000Y-84570790D02*
X137104762Y-84618409D01*
X137104762Y-84618409D02*
X136771429Y-84618409D01*
X137771429Y-85046980D02*
X137819048Y-85094600D01*
X137819048Y-85094600D02*
X137771429Y-85142219D01*
X137771429Y-85142219D02*
X137723810Y-85094600D01*
X137723810Y-85094600D02*
X137771429Y-85046980D01*
X137771429Y-85046980D02*
X137771429Y-85142219D01*
X138676190Y-85094600D02*
X138580952Y-85142219D01*
X138580952Y-85142219D02*
X138390476Y-85142219D01*
X138390476Y-85142219D02*
X138295238Y-85094600D01*
X138295238Y-85094600D02*
X138247619Y-85046980D01*
X138247619Y-85046980D02*
X138200000Y-84951742D01*
X138200000Y-84951742D02*
X138200000Y-84666028D01*
X138200000Y-84666028D02*
X138247619Y-84570790D01*
X138247619Y-84570790D02*
X138295238Y-84523171D01*
X138295238Y-84523171D02*
X138390476Y-84475552D01*
X138390476Y-84475552D02*
X138580952Y-84475552D01*
X138580952Y-84475552D02*
X138676190Y-84523171D01*
X139009524Y-84475552D02*
X139533333Y-84475552D01*
X139533333Y-84475552D02*
X139009524Y-85142219D01*
X139009524Y-85142219D02*
X139533333Y-85142219D01*
X134985714Y-85847457D02*
X135033333Y-85799838D01*
X135033333Y-85799838D02*
X135128571Y-85752219D01*
X135128571Y-85752219D02*
X135366666Y-85752219D01*
X135366666Y-85752219D02*
X135461904Y-85799838D01*
X135461904Y-85799838D02*
X135509523Y-85847457D01*
X135509523Y-85847457D02*
X135557142Y-85942695D01*
X135557142Y-85942695D02*
X135557142Y-86037933D01*
X135557142Y-86037933D02*
X135509523Y-86180790D01*
X135509523Y-86180790D02*
X134938095Y-86752219D01*
X134938095Y-86752219D02*
X135557142Y-86752219D01*
X136176190Y-85752219D02*
X136271428Y-85752219D01*
X136271428Y-85752219D02*
X136366666Y-85799838D01*
X136366666Y-85799838D02*
X136414285Y-85847457D01*
X136414285Y-85847457D02*
X136461904Y-85942695D01*
X136461904Y-85942695D02*
X136509523Y-86133171D01*
X136509523Y-86133171D02*
X136509523Y-86371266D01*
X136509523Y-86371266D02*
X136461904Y-86561742D01*
X136461904Y-86561742D02*
X136414285Y-86656980D01*
X136414285Y-86656980D02*
X136366666Y-86704600D01*
X136366666Y-86704600D02*
X136271428Y-86752219D01*
X136271428Y-86752219D02*
X136176190Y-86752219D01*
X136176190Y-86752219D02*
X136080952Y-86704600D01*
X136080952Y-86704600D02*
X136033333Y-86656980D01*
X136033333Y-86656980D02*
X135985714Y-86561742D01*
X135985714Y-86561742D02*
X135938095Y-86371266D01*
X135938095Y-86371266D02*
X135938095Y-86133171D01*
X135938095Y-86133171D02*
X135985714Y-85942695D01*
X135985714Y-85942695D02*
X136033333Y-85847457D01*
X136033333Y-85847457D02*
X136080952Y-85799838D01*
X136080952Y-85799838D02*
X136176190Y-85752219D01*
X136890476Y-85847457D02*
X136938095Y-85799838D01*
X136938095Y-85799838D02*
X137033333Y-85752219D01*
X137033333Y-85752219D02*
X137271428Y-85752219D01*
X137271428Y-85752219D02*
X137366666Y-85799838D01*
X137366666Y-85799838D02*
X137414285Y-85847457D01*
X137414285Y-85847457D02*
X137461904Y-85942695D01*
X137461904Y-85942695D02*
X137461904Y-86037933D01*
X137461904Y-86037933D02*
X137414285Y-86180790D01*
X137414285Y-86180790D02*
X136842857Y-86752219D01*
X136842857Y-86752219D02*
X137461904Y-86752219D01*
X137795238Y-85752219D02*
X138414285Y-85752219D01*
X138414285Y-85752219D02*
X138080952Y-86133171D01*
X138080952Y-86133171D02*
X138223809Y-86133171D01*
X138223809Y-86133171D02*
X138319047Y-86180790D01*
X138319047Y-86180790D02*
X138366666Y-86228409D01*
X138366666Y-86228409D02*
X138414285Y-86323647D01*
X138414285Y-86323647D02*
X138414285Y-86561742D01*
X138414285Y-86561742D02*
X138366666Y-86656980D01*
X138366666Y-86656980D02*
X138319047Y-86704600D01*
X138319047Y-86704600D02*
X138223809Y-86752219D01*
X138223809Y-86752219D02*
X137938095Y-86752219D01*
X137938095Y-86752219D02*
X137842857Y-86704600D01*
X137842857Y-86704600D02*
X137795238Y-86656980D01*
X134033333Y-89972219D02*
X133461905Y-89972219D01*
X133747619Y-89972219D02*
X133747619Y-88972219D01*
X133747619Y-88972219D02*
X133652381Y-89115076D01*
X133652381Y-89115076D02*
X133557143Y-89210314D01*
X133557143Y-89210314D02*
X133461905Y-89257933D01*
X134461905Y-89876980D02*
X134509524Y-89924600D01*
X134509524Y-89924600D02*
X134461905Y-89972219D01*
X134461905Y-89972219D02*
X134414286Y-89924600D01*
X134414286Y-89924600D02*
X134461905Y-89876980D01*
X134461905Y-89876980D02*
X134461905Y-89972219D01*
X135080952Y-89400790D02*
X134985714Y-89353171D01*
X134985714Y-89353171D02*
X134938095Y-89305552D01*
X134938095Y-89305552D02*
X134890476Y-89210314D01*
X134890476Y-89210314D02*
X134890476Y-89162695D01*
X134890476Y-89162695D02*
X134938095Y-89067457D01*
X134938095Y-89067457D02*
X134985714Y-89019838D01*
X134985714Y-89019838D02*
X135080952Y-88972219D01*
X135080952Y-88972219D02*
X135271428Y-88972219D01*
X135271428Y-88972219D02*
X135366666Y-89019838D01*
X135366666Y-89019838D02*
X135414285Y-89067457D01*
X135414285Y-89067457D02*
X135461904Y-89162695D01*
X135461904Y-89162695D02*
X135461904Y-89210314D01*
X135461904Y-89210314D02*
X135414285Y-89305552D01*
X135414285Y-89305552D02*
X135366666Y-89353171D01*
X135366666Y-89353171D02*
X135271428Y-89400790D01*
X135271428Y-89400790D02*
X135080952Y-89400790D01*
X135080952Y-89400790D02*
X134985714Y-89448409D01*
X134985714Y-89448409D02*
X134938095Y-89496028D01*
X134938095Y-89496028D02*
X134890476Y-89591266D01*
X134890476Y-89591266D02*
X134890476Y-89781742D01*
X134890476Y-89781742D02*
X134938095Y-89876980D01*
X134938095Y-89876980D02*
X134985714Y-89924600D01*
X134985714Y-89924600D02*
X135080952Y-89972219D01*
X135080952Y-89972219D02*
X135271428Y-89972219D01*
X135271428Y-89972219D02*
X135366666Y-89924600D01*
X135366666Y-89924600D02*
X135414285Y-89876980D01*
X135414285Y-89876980D02*
X135461904Y-89781742D01*
X135461904Y-89781742D02*
X135461904Y-89591266D01*
X135461904Y-89591266D02*
X135414285Y-89496028D01*
X135414285Y-89496028D02*
X135366666Y-89448409D01*
X135366666Y-89448409D02*
X135271428Y-89400790D01*
X135890476Y-89591266D02*
X136652381Y-89591266D01*
X137033333Y-88972219D02*
X137652380Y-88972219D01*
X137652380Y-88972219D02*
X137319047Y-89353171D01*
X137319047Y-89353171D02*
X137461904Y-89353171D01*
X137461904Y-89353171D02*
X137557142Y-89400790D01*
X137557142Y-89400790D02*
X137604761Y-89448409D01*
X137604761Y-89448409D02*
X137652380Y-89543647D01*
X137652380Y-89543647D02*
X137652380Y-89781742D01*
X137652380Y-89781742D02*
X137604761Y-89876980D01*
X137604761Y-89876980D02*
X137557142Y-89924600D01*
X137557142Y-89924600D02*
X137461904Y-89972219D01*
X137461904Y-89972219D02*
X137176190Y-89972219D01*
X137176190Y-89972219D02*
X137080952Y-89924600D01*
X137080952Y-89924600D02*
X137033333Y-89876980D01*
X138080952Y-89876980D02*
X138128571Y-89924600D01*
X138128571Y-89924600D02*
X138080952Y-89972219D01*
X138080952Y-89972219D02*
X138033333Y-89924600D01*
X138033333Y-89924600D02*
X138080952Y-89876980D01*
X138080952Y-89876980D02*
X138080952Y-89972219D01*
X138461904Y-88972219D02*
X139080951Y-88972219D01*
X139080951Y-88972219D02*
X138747618Y-89353171D01*
X138747618Y-89353171D02*
X138890475Y-89353171D01*
X138890475Y-89353171D02*
X138985713Y-89400790D01*
X138985713Y-89400790D02*
X139033332Y-89448409D01*
X139033332Y-89448409D02*
X139080951Y-89543647D01*
X139080951Y-89543647D02*
X139080951Y-89781742D01*
X139080951Y-89781742D02*
X139033332Y-89876980D01*
X139033332Y-89876980D02*
X138985713Y-89924600D01*
X138985713Y-89924600D02*
X138890475Y-89972219D01*
X138890475Y-89972219D02*
X138604761Y-89972219D01*
X138604761Y-89972219D02*
X138509523Y-89924600D01*
X138509523Y-89924600D02*
X138461904Y-89876980D01*
X139366666Y-88972219D02*
X139699999Y-89972219D01*
X139699999Y-89972219D02*
X140033332Y-88972219D01*
D10*
X142164286Y-89932557D02*
X142378572Y-90832557D01*
X142378572Y-90832557D02*
X142550000Y-90189700D01*
X142550000Y-90189700D02*
X142721429Y-90832557D01*
X142721429Y-90832557D02*
X142935715Y-89932557D01*
X143278571Y-90832557D02*
X143278571Y-89932557D01*
X143278571Y-89932557D02*
X143621428Y-89932557D01*
X143621428Y-89932557D02*
X143707143Y-89975414D01*
X143707143Y-89975414D02*
X143750000Y-90018271D01*
X143750000Y-90018271D02*
X143792857Y-90103985D01*
X143792857Y-90103985D02*
X143792857Y-90232557D01*
X143792857Y-90232557D02*
X143750000Y-90318271D01*
X143750000Y-90318271D02*
X143707143Y-90361128D01*
X143707143Y-90361128D02*
X143621428Y-90403985D01*
X143621428Y-90403985D02*
X143278571Y-90403985D01*
X142125715Y-89682700D02*
X143874286Y-89682700D01*
X142950000Y-88206842D02*
X142907143Y-88249700D01*
X142907143Y-88249700D02*
X142778571Y-88292557D01*
X142778571Y-88292557D02*
X142692857Y-88292557D01*
X142692857Y-88292557D02*
X142564286Y-88249700D01*
X142564286Y-88249700D02*
X142478571Y-88163985D01*
X142478571Y-88163985D02*
X142435714Y-88078271D01*
X142435714Y-88078271D02*
X142392857Y-87906842D01*
X142392857Y-87906842D02*
X142392857Y-87778271D01*
X142392857Y-87778271D02*
X142435714Y-87606842D01*
X142435714Y-87606842D02*
X142478571Y-87521128D01*
X142478571Y-87521128D02*
X142564286Y-87435414D01*
X142564286Y-87435414D02*
X142692857Y-87392557D01*
X142692857Y-87392557D02*
X142778571Y-87392557D01*
X142778571Y-87392557D02*
X142907143Y-87435414D01*
X142907143Y-87435414D02*
X142950000Y-87478271D01*
X143292857Y-88249700D02*
X143421429Y-88292557D01*
X143421429Y-88292557D02*
X143635714Y-88292557D01*
X143635714Y-88292557D02*
X143721429Y-88249700D01*
X143721429Y-88249700D02*
X143764286Y-88206842D01*
X143764286Y-88206842D02*
X143807143Y-88121128D01*
X143807143Y-88121128D02*
X143807143Y-88035414D01*
X143807143Y-88035414D02*
X143764286Y-87949700D01*
X143764286Y-87949700D02*
X143721429Y-87906842D01*
X143721429Y-87906842D02*
X143635714Y-87863985D01*
X143635714Y-87863985D02*
X143464286Y-87821128D01*
X143464286Y-87821128D02*
X143378571Y-87778271D01*
X143378571Y-87778271D02*
X143335714Y-87735414D01*
X143335714Y-87735414D02*
X143292857Y-87649700D01*
X143292857Y-87649700D02*
X143292857Y-87563985D01*
X143292857Y-87563985D02*
X143335714Y-87478271D01*
X143335714Y-87478271D02*
X143378571Y-87435414D01*
X143378571Y-87435414D02*
X143464286Y-87392557D01*
X143464286Y-87392557D02*
X143678571Y-87392557D01*
X143678571Y-87392557D02*
X143807143Y-87435414D01*
X142311429Y-87142700D02*
X143888572Y-87142700D01*
X149914286Y-89751414D02*
X149828572Y-89708557D01*
X149828572Y-89708557D02*
X149700000Y-89708557D01*
X149700000Y-89708557D02*
X149571429Y-89751414D01*
X149571429Y-89751414D02*
X149485714Y-89837128D01*
X149485714Y-89837128D02*
X149442857Y-89922842D01*
X149442857Y-89922842D02*
X149400000Y-90094271D01*
X149400000Y-90094271D02*
X149400000Y-90222842D01*
X149400000Y-90222842D02*
X149442857Y-90394271D01*
X149442857Y-90394271D02*
X149485714Y-90479985D01*
X149485714Y-90479985D02*
X149571429Y-90565700D01*
X149571429Y-90565700D02*
X149700000Y-90608557D01*
X149700000Y-90608557D02*
X149785714Y-90608557D01*
X149785714Y-90608557D02*
X149914286Y-90565700D01*
X149914286Y-90565700D02*
X149957143Y-90522842D01*
X149957143Y-90522842D02*
X149957143Y-90222842D01*
X149957143Y-90222842D02*
X149785714Y-90222842D01*
X150342857Y-90608557D02*
X150342857Y-89708557D01*
X150342857Y-89708557D02*
X150857143Y-90608557D01*
X150857143Y-90608557D02*
X150857143Y-89708557D01*
X151285714Y-90608557D02*
X151285714Y-89708557D01*
X151285714Y-89708557D02*
X151500000Y-89708557D01*
X151500000Y-89708557D02*
X151628571Y-89751414D01*
X151628571Y-89751414D02*
X151714286Y-89837128D01*
X151714286Y-89837128D02*
X151757143Y-89922842D01*
X151757143Y-89922842D02*
X151800000Y-90094271D01*
X151800000Y-90094271D02*
X151800000Y-90222842D01*
X151800000Y-90222842D02*
X151757143Y-90394271D01*
X151757143Y-90394271D02*
X151714286Y-90479985D01*
X151714286Y-90479985D02*
X151628571Y-90565700D01*
X151628571Y-90565700D02*
X151500000Y-90608557D01*
X151500000Y-90608557D02*
X151285714Y-90608557D01*
X150808557Y-86504285D02*
X149908557Y-86504285D01*
X149908557Y-86504285D02*
X150551414Y-86204285D01*
X150551414Y-86204285D02*
X149908557Y-85904285D01*
X149908557Y-85904285D02*
X150808557Y-85904285D01*
X149908557Y-85304285D02*
X149908557Y-85132857D01*
X149908557Y-85132857D02*
X149951414Y-85047142D01*
X149951414Y-85047142D02*
X150037128Y-84961428D01*
X150037128Y-84961428D02*
X150208557Y-84918571D01*
X150208557Y-84918571D02*
X150508557Y-84918571D01*
X150508557Y-84918571D02*
X150679985Y-84961428D01*
X150679985Y-84961428D02*
X150765700Y-85047142D01*
X150765700Y-85047142D02*
X150808557Y-85132857D01*
X150808557Y-85132857D02*
X150808557Y-85304285D01*
X150808557Y-85304285D02*
X150765700Y-85390000D01*
X150765700Y-85390000D02*
X150679985Y-85475714D01*
X150679985Y-85475714D02*
X150508557Y-85518571D01*
X150508557Y-85518571D02*
X150208557Y-85518571D01*
X150208557Y-85518571D02*
X150037128Y-85475714D01*
X150037128Y-85475714D02*
X149951414Y-85390000D01*
X149951414Y-85390000D02*
X149908557Y-85304285D01*
X150765700Y-84575714D02*
X150808557Y-84447143D01*
X150808557Y-84447143D02*
X150808557Y-84232857D01*
X150808557Y-84232857D02*
X150765700Y-84147143D01*
X150765700Y-84147143D02*
X150722842Y-84104285D01*
X150722842Y-84104285D02*
X150637128Y-84061428D01*
X150637128Y-84061428D02*
X150551414Y-84061428D01*
X150551414Y-84061428D02*
X150465700Y-84104285D01*
X150465700Y-84104285D02*
X150422842Y-84147143D01*
X150422842Y-84147143D02*
X150379985Y-84232857D01*
X150379985Y-84232857D02*
X150337128Y-84404285D01*
X150337128Y-84404285D02*
X150294271Y-84490000D01*
X150294271Y-84490000D02*
X150251414Y-84532857D01*
X150251414Y-84532857D02*
X150165700Y-84575714D01*
X150165700Y-84575714D02*
X150079985Y-84575714D01*
X150079985Y-84575714D02*
X149994271Y-84532857D01*
X149994271Y-84532857D02*
X149951414Y-84490000D01*
X149951414Y-84490000D02*
X149908557Y-84404285D01*
X149908557Y-84404285D02*
X149908557Y-84190000D01*
X149908557Y-84190000D02*
X149951414Y-84061428D01*
X150808557Y-83675714D02*
X149908557Y-83675714D01*
X141542857Y-85465700D02*
X141671429Y-85508557D01*
X141671429Y-85508557D02*
X141885714Y-85508557D01*
X141885714Y-85508557D02*
X141971429Y-85465700D01*
X141971429Y-85465700D02*
X142014286Y-85422842D01*
X142014286Y-85422842D02*
X142057143Y-85337128D01*
X142057143Y-85337128D02*
X142057143Y-85251414D01*
X142057143Y-85251414D02*
X142014286Y-85165700D01*
X142014286Y-85165700D02*
X141971429Y-85122842D01*
X141971429Y-85122842D02*
X141885714Y-85079985D01*
X141885714Y-85079985D02*
X141714286Y-85037128D01*
X141714286Y-85037128D02*
X141628571Y-84994271D01*
X141628571Y-84994271D02*
X141585714Y-84951414D01*
X141585714Y-84951414D02*
X141542857Y-84865700D01*
X141542857Y-84865700D02*
X141542857Y-84779985D01*
X141542857Y-84779985D02*
X141585714Y-84694271D01*
X141585714Y-84694271D02*
X141628571Y-84651414D01*
X141628571Y-84651414D02*
X141714286Y-84608557D01*
X141714286Y-84608557D02*
X141928571Y-84608557D01*
X141928571Y-84608557D02*
X142057143Y-84651414D01*
X142957143Y-85422842D02*
X142914286Y-85465700D01*
X142914286Y-85465700D02*
X142785714Y-85508557D01*
X142785714Y-85508557D02*
X142700000Y-85508557D01*
X142700000Y-85508557D02*
X142571429Y-85465700D01*
X142571429Y-85465700D02*
X142485714Y-85379985D01*
X142485714Y-85379985D02*
X142442857Y-85294271D01*
X142442857Y-85294271D02*
X142400000Y-85122842D01*
X142400000Y-85122842D02*
X142400000Y-84994271D01*
X142400000Y-84994271D02*
X142442857Y-84822842D01*
X142442857Y-84822842D02*
X142485714Y-84737128D01*
X142485714Y-84737128D02*
X142571429Y-84651414D01*
X142571429Y-84651414D02*
X142700000Y-84608557D01*
X142700000Y-84608557D02*
X142785714Y-84608557D01*
X142785714Y-84608557D02*
X142914286Y-84651414D01*
X142914286Y-84651414D02*
X142957143Y-84694271D01*
X143342857Y-85508557D02*
X143342857Y-84608557D01*
X143857143Y-85508557D02*
X143471429Y-84994271D01*
X143857143Y-84608557D02*
X143342857Y-85122842D01*
%TO.C,J2*%
X144130000Y-81280000D02*
X149210000Y-81280000D01*
X144130000Y-91440000D02*
X144130000Y-81280000D01*
X149210000Y-81280000D02*
X149210000Y-91440000D01*
X149210000Y-91440000D02*
X144130000Y-91440000D01*
%TD*%
D12*
%TO.C,J2*%
X145400000Y-82550000D03*
X147940000Y-82550000D03*
X145400000Y-85090000D03*
X147940000Y-85090000D03*
X145400000Y-87630000D03*
X147940000Y-87630000D03*
X145400000Y-90170000D03*
X147940000Y-90170000D03*
%TD*%
M02*
