%TF.GenerationSoftware,KiCad,Pcbnew,7.0.5.1-1-g8f565ef7f0-dirty-deb11*%
%TF.CreationDate,2023-07-20T12:04:26+00:00*%
%TF.ProjectId,FRAM01,4652414d-3031-42e6-9b69-6361645f7063,rev?*%
%TF.SameCoordinates,Original*%
%TF.FileFunction,Copper,L1,Top*%
%TF.FilePolarity,Positive*%
%FSLAX46Y46*%
G04 Gerber Fmt 4.6, Leading zero omitted, Abs format (unit mm)*
G04 Created by KiCad (PCBNEW 7.0.5.1-1-g8f565ef7f0-dirty-deb11) date 2023-07-20 12:04:26*
%MOMM*%
%LPD*%
G01*
G04 APERTURE LIST*
%TA.AperFunction,ComponentPad*%
%ADD10C,6.000000*%
%TD*%
%TA.AperFunction,ComponentPad*%
%ADD11R,1.524000X1.524000*%
%TD*%
%TA.AperFunction,ViaPad*%
%ADD12C,0.800000*%
%TD*%
%TA.AperFunction,Conductor*%
%ADD13C,0.304800*%
%TD*%
G04 APERTURE END LIST*
D10*
%TO.P,M4,1*%
%TO.N,GND*%
X147320000Y-96520000D03*
%TD*%
%TO.P,M1,1*%
%TO.N,GND*%
X137160000Y-76200000D03*
%TD*%
%TO.P,M3,1*%
%TO.N,GND*%
X147320000Y-76200000D03*
%TD*%
D11*
%TO.P,J2,1*%
%TO.N,MISO*%
X146050000Y-82550000D03*
%TO.P,J2,2*%
%TO.N,+3.3V*%
X148590000Y-82550000D03*
%TO.P,J2,3*%
%TO.N,SCK*%
X146050000Y-85090000D03*
%TO.P,J2,4*%
%TO.N,MOSI*%
X148590000Y-85090000D03*
%TO.P,J2,5*%
%TO.N,~{CS}*%
X146050000Y-87630000D03*
%TO.P,J2,6*%
%TO.N,GND*%
X148590000Y-87630000D03*
%TO.P,J2,7*%
%TO.N,~{WP}*%
X146050000Y-90170000D03*
%TO.P,J2,8*%
%TO.N,GND*%
X148590000Y-90170000D03*
%TD*%
D10*
%TO.P,M2,1*%
%TO.N,GND*%
X137160000Y-96520000D03*
%TD*%
D12*
%TO.N,GND*%
X138176000Y-91440000D03*
X133604000Y-84836000D03*
X141478000Y-94742000D03*
X142748000Y-94742000D03*
X133604000Y-81026000D03*
X138176000Y-90424000D03*
X133604000Y-83058000D03*
X137160000Y-84836000D03*
X133604000Y-82042000D03*
X139700000Y-92710000D03*
%TO.N,~{CS}*%
X139700000Y-87630000D03*
%TO.N,~{WP}*%
X137160000Y-86360000D03*
%TD*%
D13*
%TO.N,~{CS}*%
X146050000Y-87630000D02*
X139700000Y-87630000D01*
%TO.N,~{WP}*%
X146050000Y-90170000D02*
X140970000Y-90170000D01*
X140970000Y-90170000D02*
X137160000Y-86360000D01*
%TD*%
%TA.AperFunction,Conductor*%
%TO.N,GND*%
G36*
X148394960Y-88035004D02*
G01*
X148523002Y-88074500D01*
X148623312Y-88074500D01*
X148722499Y-88059550D01*
X148843224Y-88001412D01*
X148844000Y-88000691D01*
X148844000Y-89805194D01*
X148785040Y-89764996D01*
X148656998Y-89725500D01*
X148556688Y-89725500D01*
X148457501Y-89740450D01*
X148336776Y-89798588D01*
X148336000Y-89799308D01*
X148336000Y-87994805D01*
X148394960Y-88035004D01*
G37*
%TD.AperFunction*%
%TA.AperFunction,Conductor*%
G36*
X152087621Y-71394502D02*
G01*
X152134114Y-71448158D01*
X152145500Y-71500500D01*
X152145500Y-101219500D01*
X152125498Y-101287621D01*
X152071842Y-101334114D01*
X152019500Y-101345500D01*
X132460500Y-101345500D01*
X132392379Y-101325498D01*
X132345886Y-101271842D01*
X132334500Y-101219500D01*
X132334500Y-86360000D01*
X136246496Y-86360000D01*
X136266457Y-86549927D01*
X136289810Y-86621797D01*
X136325473Y-86731556D01*
X136353841Y-86780691D01*
X136420958Y-86896941D01*
X136420965Y-86896951D01*
X136548744Y-87038864D01*
X136548747Y-87038866D01*
X136703248Y-87151118D01*
X136877712Y-87228794D01*
X137064513Y-87268500D01*
X137081657Y-87268500D01*
X137149778Y-87288502D01*
X137170751Y-87305404D01*
X140487211Y-90621865D01*
X140489805Y-90624621D01*
X140528520Y-90668321D01*
X140528523Y-90668324D01*
X140576583Y-90701498D01*
X140579638Y-90703746D01*
X140625576Y-90739736D01*
X140625578Y-90739736D01*
X140625581Y-90739739D01*
X140633546Y-90743324D01*
X140653406Y-90754524D01*
X140660609Y-90759496D01*
X140715214Y-90780205D01*
X140718681Y-90781641D01*
X140762177Y-90801217D01*
X140771931Y-90805607D01*
X140771936Y-90805609D01*
X140780538Y-90807185D01*
X140802498Y-90813306D01*
X140810675Y-90816408D01*
X140868630Y-90823444D01*
X140872347Y-90824009D01*
X140929803Y-90834540D01*
X140988075Y-90831014D01*
X140991879Y-90830900D01*
X144653500Y-90830900D01*
X144721621Y-90850902D01*
X144768114Y-90904558D01*
X144779500Y-90956900D01*
X144779500Y-90980649D01*
X144786009Y-91041196D01*
X144786011Y-91041204D01*
X144837110Y-91178202D01*
X144837112Y-91178207D01*
X144924738Y-91295261D01*
X145041792Y-91382887D01*
X145041794Y-91382888D01*
X145041796Y-91382889D01*
X145100875Y-91404924D01*
X145178795Y-91433988D01*
X145178803Y-91433990D01*
X145239350Y-91440499D01*
X145239355Y-91440499D01*
X145239362Y-91440500D01*
X145239368Y-91440500D01*
X146860632Y-91440500D01*
X146860638Y-91440500D01*
X146860645Y-91440499D01*
X146860649Y-91440499D01*
X146921196Y-91433990D01*
X146921199Y-91433989D01*
X146921201Y-91433989D01*
X147058204Y-91382889D01*
X147058799Y-91382444D01*
X147175261Y-91295261D01*
X147219444Y-91236240D01*
X147276280Y-91193693D01*
X147347095Y-91188629D01*
X147409408Y-91222654D01*
X147421180Y-91236240D01*
X147465095Y-91294904D01*
X147582034Y-91382444D01*
X147718906Y-91433494D01*
X147779402Y-91439999D01*
X147779415Y-91440000D01*
X148336000Y-91440000D01*
X148336000Y-90534805D01*
X148394960Y-90575004D01*
X148523002Y-90614500D01*
X148623312Y-90614500D01*
X148722499Y-90599550D01*
X148843224Y-90541412D01*
X148844000Y-90540691D01*
X148844000Y-91440000D01*
X149400585Y-91440000D01*
X149400597Y-91439999D01*
X149461093Y-91433494D01*
X149597964Y-91382444D01*
X149597965Y-91382444D01*
X149714904Y-91294904D01*
X149802444Y-91177965D01*
X149802444Y-91177964D01*
X149853494Y-91041093D01*
X149859999Y-90980597D01*
X149860000Y-90980585D01*
X149860000Y-90424000D01*
X148956618Y-90424000D01*
X149008447Y-90334228D01*
X149038264Y-90203593D01*
X149028251Y-90069972D01*
X148979297Y-89945240D01*
X148955979Y-89916000D01*
X149860000Y-89916000D01*
X149860000Y-89359414D01*
X149859999Y-89359402D01*
X149853494Y-89298906D01*
X149802444Y-89162035D01*
X149802444Y-89162034D01*
X149714904Y-89045095D01*
X149655823Y-89000868D01*
X149613276Y-88944032D01*
X149608212Y-88873217D01*
X149642237Y-88810904D01*
X149655823Y-88799132D01*
X149714904Y-88754904D01*
X149802444Y-88637965D01*
X149802444Y-88637964D01*
X149853494Y-88501093D01*
X149859999Y-88440597D01*
X149860000Y-88440585D01*
X149860000Y-87884000D01*
X148956618Y-87884000D01*
X149008447Y-87794228D01*
X149038264Y-87663593D01*
X149028251Y-87529972D01*
X148979297Y-87405240D01*
X148955979Y-87376000D01*
X149860000Y-87376000D01*
X149860000Y-86819414D01*
X149859999Y-86819402D01*
X149853494Y-86758906D01*
X149802444Y-86622035D01*
X149802444Y-86622034D01*
X149714904Y-86505095D01*
X149656240Y-86461180D01*
X149613693Y-86404344D01*
X149608629Y-86333528D01*
X149642654Y-86271216D01*
X149656240Y-86259444D01*
X149715261Y-86215261D01*
X149802887Y-86098207D01*
X149802887Y-86098206D01*
X149802889Y-86098204D01*
X149853989Y-85961201D01*
X149860500Y-85900638D01*
X149860500Y-84279362D01*
X149860000Y-84274711D01*
X149853990Y-84218803D01*
X149853988Y-84218795D01*
X149802889Y-84081797D01*
X149802887Y-84081792D01*
X149715261Y-83964738D01*
X149656657Y-83920868D01*
X149614110Y-83864032D01*
X149609046Y-83793216D01*
X149643071Y-83730904D01*
X149656657Y-83719132D01*
X149715261Y-83675261D01*
X149802887Y-83558207D01*
X149802887Y-83558206D01*
X149802889Y-83558204D01*
X149853989Y-83421201D01*
X149860500Y-83360638D01*
X149860500Y-81739362D01*
X149860000Y-81734711D01*
X149853990Y-81678803D01*
X149853988Y-81678795D01*
X149802889Y-81541797D01*
X149802887Y-81541792D01*
X149715261Y-81424738D01*
X149598207Y-81337112D01*
X149598202Y-81337110D01*
X149461204Y-81286011D01*
X149461196Y-81286009D01*
X149400649Y-81279500D01*
X149400638Y-81279500D01*
X147779362Y-81279500D01*
X147779350Y-81279500D01*
X147718803Y-81286009D01*
X147718795Y-81286011D01*
X147581797Y-81337110D01*
X147581792Y-81337112D01*
X147464738Y-81424739D01*
X147420867Y-81483343D01*
X147364031Y-81525889D01*
X147293216Y-81530953D01*
X147230904Y-81496928D01*
X147219133Y-81483343D01*
X147175261Y-81424739D01*
X147058207Y-81337112D01*
X147058202Y-81337110D01*
X146921204Y-81286011D01*
X146921196Y-81286009D01*
X146860649Y-81279500D01*
X146860638Y-81279500D01*
X145239362Y-81279500D01*
X145239350Y-81279500D01*
X145178803Y-81286009D01*
X145178795Y-81286011D01*
X145041797Y-81337110D01*
X145041792Y-81337112D01*
X144924738Y-81424738D01*
X144837112Y-81541792D01*
X144837110Y-81541797D01*
X144786011Y-81678795D01*
X144786009Y-81678803D01*
X144779500Y-81739350D01*
X144779500Y-83360649D01*
X144786009Y-83421196D01*
X144786011Y-83421204D01*
X144837110Y-83558202D01*
X144837112Y-83558207D01*
X144924739Y-83675261D01*
X144983343Y-83719133D01*
X145025889Y-83775969D01*
X145030953Y-83846784D01*
X144996928Y-83909096D01*
X144983343Y-83920867D01*
X144924739Y-83964738D01*
X144837112Y-84081792D01*
X144837110Y-84081797D01*
X144786011Y-84218795D01*
X144786009Y-84218803D01*
X144779500Y-84279350D01*
X144779500Y-85900649D01*
X144786009Y-85961196D01*
X144786011Y-85961204D01*
X144837110Y-86098202D01*
X144837112Y-86098207D01*
X144924739Y-86215261D01*
X144983343Y-86259133D01*
X145025889Y-86315969D01*
X145030953Y-86386784D01*
X144996928Y-86449096D01*
X144983343Y-86460867D01*
X144924739Y-86504738D01*
X144837112Y-86621792D01*
X144837110Y-86621797D01*
X144786011Y-86758795D01*
X144786009Y-86758803D01*
X144779500Y-86819350D01*
X144779500Y-86843100D01*
X144759498Y-86911221D01*
X144705842Y-86957714D01*
X144653500Y-86969100D01*
X140376921Y-86969100D01*
X140308800Y-86949098D01*
X140302860Y-86945036D01*
X140156752Y-86838882D01*
X139982288Y-86761206D01*
X139795487Y-86721500D01*
X139604513Y-86721500D01*
X139417711Y-86761206D01*
X139243247Y-86838882D01*
X139088746Y-86951134D01*
X138986670Y-87064501D01*
X138926224Y-87101740D01*
X138855240Y-87100388D01*
X138803938Y-87069285D01*
X138466214Y-86731561D01*
X138102570Y-86367916D01*
X138068545Y-86305604D01*
X138066356Y-86291991D01*
X138064172Y-86271216D01*
X138053542Y-86170072D01*
X137994527Y-85988444D01*
X137899040Y-85823056D01*
X137899038Y-85823054D01*
X137899034Y-85823048D01*
X137771255Y-85681135D01*
X137616752Y-85568882D01*
X137442288Y-85491206D01*
X137255487Y-85451500D01*
X137064513Y-85451500D01*
X136877711Y-85491206D01*
X136703247Y-85568882D01*
X136548744Y-85681135D01*
X136420965Y-85823048D01*
X136420958Y-85823058D01*
X136325476Y-85988438D01*
X136325473Y-85988445D01*
X136266457Y-86170072D01*
X136246496Y-86360000D01*
X132334500Y-86360000D01*
X132334500Y-71500500D01*
X132354502Y-71432379D01*
X132408158Y-71385886D01*
X132460500Y-71374500D01*
X152019500Y-71374500D01*
X152087621Y-71394502D01*
G37*
%TD.AperFunction*%
%TD*%
M02*
