M48
; DRILL file {KiCad 7.0.7-7.0.7~ubuntu23.04.1} date Wed Sep  6 21:35:38 2023
; FORMAT={3:3/ absolute / metric / suppress leading zeros}
; #@! TF.CreationDate,2023-09-06T21:35:38+00:00
; #@! TF.GenerationSoftware,Kicad,Pcbnew,7.0.7-7.0.7~ubuntu23.04.1
; #@! TF.FileFunction,Plated,1,2,PTH
FMAT,2
METRIC,TZ
; #@! TA.AperFunction,Plated,PTH,ViaDrill
T1C0.400
; #@! TA.AperFunction,Plated,PTH,ComponentDrill
T2C0.889
; #@! TA.AperFunction,Plated,PTH,ComponentDrill
T3C3.000
%
G90
G05
T1
X133000Y-86400
X133604Y-90100
X136800Y-86360
X138176Y-90424
X138176Y-91440
X139700Y-92710
X140800Y-85700
X140900Y-87630
X141478Y-94742
X142748Y-94742
T2
X145400Y-82550
X145400Y-85090
X145400Y-87630
X145400Y-90170
X147940Y-82550
X147940Y-85090
X147940Y-87630
X147940Y-90170
T3
X137160Y-76200
X137160Y-96520
X147320Y-76200
X147320Y-96520
T0
M30
