%TF.GenerationSoftware,KiCad,Pcbnew,7.0.7-7.0.7~ubuntu23.04.1*%
%TF.CreationDate,2023-09-06T14:45:01+00:00*%
%TF.ProjectId,FRAM01,4652414d-3031-42e6-9b69-6361645f7063,rev?*%
%TF.SameCoordinates,Original*%
%TF.FileFunction,Copper,L1,Top*%
%TF.FilePolarity,Positive*%
%FSLAX46Y46*%
G04 Gerber Fmt 4.6, Leading zero omitted, Abs format (unit mm)*
G04 Created by KiCad (PCBNEW 7.0.7-7.0.7~ubuntu23.04.1) date 2023-09-06 14:45:01*
%MOMM*%
%LPD*%
G01*
G04 APERTURE LIST*
%TA.AperFunction,ComponentPad*%
%ADD10C,6.000000*%
%TD*%
%TA.AperFunction,ComponentPad*%
%ADD11R,1.524000X1.524000*%
%TD*%
%TA.AperFunction,ViaPad*%
%ADD12C,0.800000*%
%TD*%
G04 APERTURE END LIST*
D10*
%TO.P,M3,1*%
%TO.N,GND*%
X137160000Y-96520000D03*
%TD*%
D11*
%TO.P,J2,1*%
%TO.N,SCK*%
X147574000Y-81280000D03*
%TO.P,J2,2*%
X150114000Y-81280000D03*
%TO.P,J2,3*%
%TO.N,MOSI*%
X147574000Y-83820000D03*
%TO.P,J2,4*%
X150114000Y-83820000D03*
%TO.P,J2,5*%
%TO.N,~{WP}*%
X147574000Y-86360000D03*
%TO.P,J2,6*%
X150114000Y-86360000D03*
%TO.P,J2,7*%
%TO.N,MISO*%
X147574000Y-88900000D03*
%TO.P,J2,8*%
X150114000Y-88900000D03*
%TO.P,J2,9*%
%TO.N,~{CS}*%
X147574000Y-91440000D03*
%TO.P,J2,10*%
X150114000Y-91440000D03*
%TD*%
D10*
%TO.P,M1,1*%
%TO.N,GND*%
X147320000Y-76200000D03*
%TD*%
%TO.P,M2,1*%
%TO.N,GND*%
X137160000Y-76200000D03*
%TD*%
%TO.P,M4,1*%
%TO.N,GND*%
X147320000Y-96520000D03*
%TD*%
D11*
%TO.P,J1,1*%
%TO.N,GND*%
X134366000Y-86360000D03*
%TO.P,J1,2*%
X136906000Y-86360000D03*
%TO.P,J1,3*%
%TO.N,VDD*%
X134366000Y-88900000D03*
%TO.P,J1,4*%
X136906000Y-88900000D03*
%TO.P,J1,5*%
%TO.N,GND*%
X134366000Y-91440000D03*
%TO.P,J1,6*%
X136906000Y-91440000D03*
%TD*%
D12*
%TO.N,GND*%
X140462000Y-90170000D03*
X140716000Y-82550000D03*
X134620000Y-84074000D03*
X140970000Y-93980000D03*
X135636000Y-84074000D03*
X133604000Y-79502000D03*
X140716000Y-80518000D03*
X133604000Y-84074000D03*
X140716000Y-81534000D03*
X138684000Y-91948000D03*
%TD*%
%TA.AperFunction,Conductor*%
%TO.N,GND*%
G36*
X136418678Y-91209685D02*
G01*
X136464433Y-91262489D01*
X136474377Y-91331647D01*
X136472532Y-91341578D01*
X136457735Y-91406406D01*
X136457736Y-91406407D01*
X136457735Y-91406408D01*
X136468443Y-91549295D01*
X136466703Y-91549425D01*
X136463106Y-91608145D01*
X136421808Y-91664503D01*
X136356597Y-91689587D01*
X136346488Y-91690000D01*
X134920361Y-91690000D01*
X134853322Y-91670315D01*
X134807567Y-91617511D01*
X134797623Y-91548353D01*
X134799467Y-91538421D01*
X134814264Y-91473593D01*
X134814264Y-91473590D01*
X134803557Y-91330705D01*
X134805296Y-91330574D01*
X134808894Y-91271855D01*
X134850192Y-91215497D01*
X134915403Y-91190413D01*
X134925512Y-91190000D01*
X136351639Y-91190000D01*
X136418678Y-91209685D01*
G37*
%TD.AperFunction*%
%TA.AperFunction,Conductor*%
G36*
X136418678Y-86129685D02*
G01*
X136464433Y-86182489D01*
X136474377Y-86251647D01*
X136472532Y-86261578D01*
X136457735Y-86326407D01*
X136457736Y-86326407D01*
X136457735Y-86326408D01*
X136468443Y-86469295D01*
X136466703Y-86469425D01*
X136463106Y-86528145D01*
X136421808Y-86584503D01*
X136356597Y-86609587D01*
X136346488Y-86610000D01*
X134920361Y-86610000D01*
X134853322Y-86590315D01*
X134807567Y-86537511D01*
X134797623Y-86468353D01*
X134799467Y-86458421D01*
X134814264Y-86393593D01*
X134814264Y-86393590D01*
X134803557Y-86250705D01*
X134805296Y-86250574D01*
X134808894Y-86191855D01*
X134850192Y-86135497D01*
X134915403Y-86110413D01*
X134925512Y-86110000D01*
X136351639Y-86110000D01*
X136418678Y-86129685D01*
G37*
%TD.AperFunction*%
%TA.AperFunction,Conductor*%
G36*
X151581039Y-71901685D02*
G01*
X151626794Y-71954489D01*
X151638000Y-72006000D01*
X151638000Y-100714000D01*
X151618315Y-100781039D01*
X151565511Y-100826794D01*
X151514000Y-100838000D01*
X132966000Y-100838000D01*
X132898961Y-100818315D01*
X132853206Y-100765511D01*
X132842000Y-100714000D01*
X132842000Y-89710654D01*
X133095500Y-89710654D01*
X133102011Y-89771202D01*
X133102011Y-89771204D01*
X133153110Y-89908203D01*
X133153111Y-89908204D01*
X133240739Y-90025261D01*
X133308575Y-90076042D01*
X133350445Y-90131975D01*
X133355429Y-90201666D01*
X133321944Y-90262989D01*
X133308575Y-90274574D01*
X133246809Y-90320812D01*
X133160649Y-90435906D01*
X133160645Y-90435913D01*
X133110403Y-90570620D01*
X133110401Y-90570627D01*
X133104000Y-90630155D01*
X133104000Y-91190000D01*
X133811639Y-91190000D01*
X133878678Y-91209685D01*
X133924433Y-91262489D01*
X133934377Y-91331647D01*
X133932532Y-91341578D01*
X133917736Y-91406407D01*
X133917735Y-91406408D01*
X133928443Y-91549295D01*
X133926703Y-91549425D01*
X133923106Y-91608145D01*
X133881808Y-91664503D01*
X133816597Y-91689587D01*
X133806488Y-91690000D01*
X133104000Y-91690000D01*
X133104000Y-92249844D01*
X133110401Y-92309372D01*
X133110403Y-92309379D01*
X133160645Y-92444086D01*
X133160649Y-92444093D01*
X133246809Y-92559187D01*
X133246812Y-92559190D01*
X133361906Y-92645350D01*
X133361913Y-92645354D01*
X133496620Y-92695596D01*
X133496627Y-92695598D01*
X133556155Y-92701999D01*
X133556172Y-92702000D01*
X134116000Y-92702000D01*
X134116000Y-91996065D01*
X134135685Y-91929026D01*
X134188489Y-91883271D01*
X134257647Y-91873327D01*
X134276542Y-91877572D01*
X134299002Y-91884500D01*
X134299004Y-91884500D01*
X134399311Y-91884500D01*
X134399312Y-91884500D01*
X134473518Y-91873315D01*
X134542742Y-91882788D01*
X134595857Y-91928182D01*
X134615997Y-91995086D01*
X134616000Y-91995930D01*
X134616000Y-92702000D01*
X135175828Y-92702000D01*
X135175844Y-92701999D01*
X135235372Y-92695598D01*
X135235379Y-92695596D01*
X135370086Y-92645354D01*
X135370093Y-92645350D01*
X135485186Y-92559191D01*
X135536733Y-92490334D01*
X135592667Y-92448463D01*
X135662359Y-92443479D01*
X135723682Y-92476964D01*
X135735267Y-92490334D01*
X135786813Y-92559191D01*
X135901906Y-92645350D01*
X135901913Y-92645354D01*
X136036620Y-92695596D01*
X136036627Y-92695598D01*
X136096155Y-92701999D01*
X136096172Y-92702000D01*
X136656000Y-92702000D01*
X136656000Y-91996065D01*
X136675685Y-91929026D01*
X136728489Y-91883271D01*
X136797647Y-91873327D01*
X136816542Y-91877572D01*
X136839002Y-91884500D01*
X136839004Y-91884500D01*
X136939311Y-91884500D01*
X136939312Y-91884500D01*
X137013518Y-91873315D01*
X137082742Y-91882788D01*
X137135857Y-91928182D01*
X137155997Y-91995086D01*
X137156000Y-91995930D01*
X137156000Y-92702000D01*
X137715828Y-92702000D01*
X137715844Y-92701999D01*
X137775372Y-92695598D01*
X137775379Y-92695596D01*
X137910086Y-92645354D01*
X137910093Y-92645350D01*
X138025187Y-92559190D01*
X138025190Y-92559187D01*
X138111350Y-92444093D01*
X138111354Y-92444086D01*
X138161596Y-92309379D01*
X138161598Y-92309372D01*
X138167912Y-92250654D01*
X146303500Y-92250654D01*
X146310011Y-92311202D01*
X146310011Y-92311204D01*
X146359349Y-92443479D01*
X146361111Y-92448204D01*
X146448739Y-92565261D01*
X146565796Y-92652889D01*
X146680297Y-92695596D01*
X146697463Y-92701999D01*
X146702799Y-92703989D01*
X146730050Y-92706918D01*
X146763345Y-92710499D01*
X146763362Y-92710500D01*
X148384638Y-92710500D01*
X148384654Y-92710499D01*
X148411692Y-92707591D01*
X148445201Y-92703989D01*
X148450537Y-92701999D01*
X148467703Y-92695596D01*
X148582204Y-92652889D01*
X148699261Y-92565261D01*
X148744734Y-92504516D01*
X148800667Y-92462646D01*
X148870359Y-92457662D01*
X148931682Y-92491147D01*
X148943263Y-92504512D01*
X148988739Y-92565261D01*
X149105796Y-92652889D01*
X149220297Y-92695596D01*
X149237463Y-92701999D01*
X149242799Y-92703989D01*
X149270050Y-92706918D01*
X149303345Y-92710499D01*
X149303362Y-92710500D01*
X150924638Y-92710500D01*
X150924654Y-92710499D01*
X150951692Y-92707591D01*
X150985201Y-92703989D01*
X150990537Y-92701999D01*
X151007703Y-92695596D01*
X151122204Y-92652889D01*
X151239261Y-92565261D01*
X151326889Y-92448204D01*
X151377989Y-92311201D01*
X151381591Y-92277692D01*
X151384499Y-92250654D01*
X151384500Y-92250637D01*
X151384500Y-90629362D01*
X151384499Y-90629345D01*
X151381157Y-90598270D01*
X151377989Y-90568799D01*
X151326889Y-90431796D01*
X151239261Y-90314739D01*
X151178516Y-90269265D01*
X151136646Y-90213333D01*
X151131662Y-90143641D01*
X151165147Y-90082318D01*
X151178516Y-90070734D01*
X151239261Y-90025261D01*
X151326889Y-89908204D01*
X151377989Y-89771201D01*
X151381591Y-89737692D01*
X151384499Y-89710654D01*
X151384500Y-89710637D01*
X151384500Y-88089362D01*
X151384499Y-88089345D01*
X151381157Y-88058270D01*
X151377989Y-88028799D01*
X151326889Y-87891796D01*
X151239261Y-87774739D01*
X151178516Y-87729265D01*
X151136646Y-87673333D01*
X151131662Y-87603641D01*
X151165147Y-87542318D01*
X151178516Y-87530734D01*
X151239261Y-87485261D01*
X151326889Y-87368204D01*
X151377989Y-87231201D01*
X151381591Y-87197692D01*
X151384499Y-87170654D01*
X151384500Y-87170637D01*
X151384500Y-85549362D01*
X151384499Y-85549345D01*
X151381157Y-85518270D01*
X151377989Y-85488799D01*
X151326889Y-85351796D01*
X151239261Y-85234739D01*
X151178516Y-85189265D01*
X151136646Y-85133333D01*
X151131662Y-85063641D01*
X151165147Y-85002318D01*
X151178516Y-84990734D01*
X151239261Y-84945261D01*
X151326889Y-84828204D01*
X151377989Y-84691201D01*
X151381591Y-84657692D01*
X151384499Y-84630654D01*
X151384500Y-84630637D01*
X151384500Y-83009362D01*
X151384499Y-83009345D01*
X151381157Y-82978270D01*
X151377989Y-82948799D01*
X151326889Y-82811796D01*
X151239261Y-82694739D01*
X151178516Y-82649265D01*
X151136646Y-82593333D01*
X151131662Y-82523641D01*
X151165147Y-82462318D01*
X151178516Y-82450734D01*
X151239261Y-82405261D01*
X151326889Y-82288204D01*
X151377989Y-82151201D01*
X151381591Y-82117692D01*
X151384499Y-82090654D01*
X151384500Y-82090637D01*
X151384500Y-80469362D01*
X151384499Y-80469345D01*
X151381157Y-80438270D01*
X151377989Y-80408799D01*
X151326889Y-80271796D01*
X151239261Y-80154739D01*
X151122204Y-80067111D01*
X151122203Y-80067110D01*
X150985203Y-80016011D01*
X150924654Y-80009500D01*
X150924638Y-80009500D01*
X149303362Y-80009500D01*
X149303345Y-80009500D01*
X149242797Y-80016011D01*
X149242795Y-80016011D01*
X149105795Y-80067111D01*
X148988736Y-80154741D01*
X148943266Y-80215482D01*
X148887332Y-80257353D01*
X148817641Y-80262337D01*
X148756318Y-80228851D01*
X148744734Y-80215482D01*
X148699263Y-80154741D01*
X148699261Y-80154740D01*
X148699261Y-80154739D01*
X148582204Y-80067111D01*
X148582203Y-80067110D01*
X148445203Y-80016011D01*
X148384654Y-80009500D01*
X148384638Y-80009500D01*
X146763362Y-80009500D01*
X146763345Y-80009500D01*
X146702797Y-80016011D01*
X146702795Y-80016011D01*
X146565795Y-80067111D01*
X146448739Y-80154739D01*
X146361111Y-80271795D01*
X146310011Y-80408795D01*
X146310011Y-80408797D01*
X146303500Y-80469345D01*
X146303500Y-82090654D01*
X146310011Y-82151202D01*
X146310011Y-82151204D01*
X146361110Y-82288204D01*
X146361111Y-82288204D01*
X146448739Y-82405261D01*
X146448740Y-82405261D01*
X146448741Y-82405263D01*
X146509482Y-82450734D01*
X146551353Y-82506668D01*
X146556337Y-82576359D01*
X146522851Y-82637682D01*
X146509482Y-82649266D01*
X146448741Y-82694736D01*
X146361111Y-82811795D01*
X146310011Y-82948795D01*
X146310011Y-82948797D01*
X146303500Y-83009345D01*
X146303500Y-84630654D01*
X146310011Y-84691202D01*
X146310011Y-84691204D01*
X146361110Y-84828203D01*
X146361111Y-84828204D01*
X146448739Y-84945261D01*
X146448740Y-84945261D01*
X146448741Y-84945263D01*
X146509482Y-84990734D01*
X146551353Y-85046668D01*
X146556337Y-85116359D01*
X146522851Y-85177682D01*
X146509482Y-85189266D01*
X146448741Y-85234736D01*
X146361111Y-85351795D01*
X146310011Y-85488795D01*
X146310011Y-85488797D01*
X146303500Y-85549345D01*
X146303500Y-87170654D01*
X146310011Y-87231202D01*
X146310011Y-87231204D01*
X146359349Y-87363479D01*
X146361111Y-87368204D01*
X146448739Y-87485261D01*
X146448740Y-87485261D01*
X146448741Y-87485263D01*
X146509482Y-87530734D01*
X146551353Y-87586668D01*
X146556337Y-87656359D01*
X146522851Y-87717682D01*
X146509482Y-87729266D01*
X146448741Y-87774736D01*
X146361111Y-87891795D01*
X146310011Y-88028795D01*
X146310011Y-88028797D01*
X146303500Y-88089345D01*
X146303500Y-89710654D01*
X146310011Y-89771202D01*
X146310011Y-89771204D01*
X146361110Y-89908203D01*
X146361111Y-89908204D01*
X146448739Y-90025261D01*
X146448740Y-90025261D01*
X146448741Y-90025263D01*
X146509482Y-90070734D01*
X146551353Y-90126668D01*
X146556337Y-90196359D01*
X146522851Y-90257682D01*
X146509482Y-90269266D01*
X146448741Y-90314736D01*
X146361111Y-90431795D01*
X146310011Y-90568795D01*
X146310011Y-90568797D01*
X146303500Y-90629345D01*
X146303500Y-92250654D01*
X138167912Y-92250654D01*
X138167999Y-92249844D01*
X138168000Y-92249827D01*
X138168000Y-91690000D01*
X137460361Y-91690000D01*
X137393322Y-91670315D01*
X137347567Y-91617511D01*
X137337623Y-91548353D01*
X137339467Y-91538421D01*
X137354264Y-91473593D01*
X137354264Y-91473590D01*
X137343557Y-91330705D01*
X137345296Y-91330574D01*
X137348894Y-91271855D01*
X137390192Y-91215497D01*
X137455403Y-91190413D01*
X137465512Y-91190000D01*
X138168000Y-91190000D01*
X138168000Y-90630172D01*
X138167999Y-90630155D01*
X138161598Y-90570627D01*
X138161596Y-90570620D01*
X138111354Y-90435913D01*
X138111350Y-90435906D01*
X138025190Y-90320813D01*
X137963425Y-90274575D01*
X137921554Y-90218641D01*
X137916570Y-90148949D01*
X137950055Y-90087626D01*
X137963410Y-90076053D01*
X138031261Y-90025261D01*
X138118889Y-89908204D01*
X138169989Y-89771201D01*
X138173591Y-89737692D01*
X138176499Y-89710654D01*
X138176500Y-89710637D01*
X138176500Y-88089362D01*
X138176499Y-88089345D01*
X138173157Y-88058270D01*
X138169989Y-88028799D01*
X138118889Y-87891796D01*
X138031261Y-87774739D01*
X137963424Y-87723956D01*
X137921554Y-87668024D01*
X137916570Y-87598333D01*
X137950055Y-87537009D01*
X137963426Y-87525424D01*
X138025189Y-87479188D01*
X138025190Y-87479187D01*
X138111350Y-87364093D01*
X138111354Y-87364086D01*
X138161596Y-87229379D01*
X138161598Y-87229372D01*
X138167999Y-87169844D01*
X138168000Y-87169827D01*
X138168000Y-86610000D01*
X137460361Y-86610000D01*
X137393322Y-86590315D01*
X137347567Y-86537511D01*
X137337623Y-86468353D01*
X137339467Y-86458421D01*
X137354264Y-86393593D01*
X137354264Y-86393590D01*
X137343557Y-86250705D01*
X137345296Y-86250574D01*
X137348894Y-86191855D01*
X137390192Y-86135497D01*
X137455403Y-86110413D01*
X137465512Y-86110000D01*
X138168000Y-86110000D01*
X138168000Y-85550172D01*
X138167999Y-85550155D01*
X138161598Y-85490627D01*
X138161596Y-85490620D01*
X138111354Y-85355913D01*
X138111350Y-85355906D01*
X138025190Y-85240812D01*
X138025187Y-85240809D01*
X137910093Y-85154649D01*
X137910086Y-85154645D01*
X137775379Y-85104403D01*
X137775372Y-85104401D01*
X137715844Y-85098000D01*
X137156000Y-85098000D01*
X137156000Y-85803934D01*
X137136315Y-85870973D01*
X137083511Y-85916728D01*
X137014353Y-85926672D01*
X136995453Y-85922426D01*
X136972998Y-85915500D01*
X136872688Y-85915500D01*
X136872680Y-85915500D01*
X136798481Y-85926684D01*
X136729256Y-85917211D01*
X136676142Y-85871816D01*
X136656003Y-85804912D01*
X136656000Y-85804069D01*
X136656000Y-85098000D01*
X136096155Y-85098000D01*
X136036627Y-85104401D01*
X136036620Y-85104403D01*
X135901913Y-85154645D01*
X135901906Y-85154649D01*
X135786812Y-85240809D01*
X135735266Y-85309666D01*
X135679332Y-85351536D01*
X135609641Y-85356520D01*
X135548318Y-85323034D01*
X135536734Y-85309666D01*
X135485187Y-85240809D01*
X135370093Y-85154649D01*
X135370086Y-85154645D01*
X135235379Y-85104403D01*
X135235372Y-85104401D01*
X135175844Y-85098000D01*
X134616000Y-85098000D01*
X134616000Y-85803934D01*
X134596315Y-85870973D01*
X134543511Y-85916728D01*
X134474353Y-85926672D01*
X134455453Y-85922426D01*
X134432998Y-85915500D01*
X134332688Y-85915500D01*
X134332680Y-85915500D01*
X134258481Y-85926684D01*
X134189256Y-85917211D01*
X134136142Y-85871816D01*
X134116003Y-85804912D01*
X134116000Y-85804069D01*
X134116000Y-85098000D01*
X133556155Y-85098000D01*
X133496627Y-85104401D01*
X133496620Y-85104403D01*
X133361913Y-85154645D01*
X133361906Y-85154649D01*
X133246812Y-85240809D01*
X133246809Y-85240812D01*
X133160649Y-85355906D01*
X133160645Y-85355913D01*
X133110403Y-85490620D01*
X133110401Y-85490627D01*
X133104000Y-85550155D01*
X133104000Y-86110000D01*
X133811639Y-86110000D01*
X133878678Y-86129685D01*
X133924433Y-86182489D01*
X133934377Y-86251647D01*
X133932532Y-86261578D01*
X133917736Y-86326407D01*
X133917735Y-86326408D01*
X133928443Y-86469295D01*
X133926703Y-86469425D01*
X133923106Y-86528145D01*
X133881808Y-86584503D01*
X133816597Y-86609587D01*
X133806488Y-86610000D01*
X133104000Y-86610000D01*
X133104000Y-87169844D01*
X133110401Y-87229372D01*
X133110403Y-87229379D01*
X133160645Y-87364086D01*
X133160649Y-87364093D01*
X133246809Y-87479186D01*
X133308574Y-87525424D01*
X133350445Y-87581358D01*
X133355429Y-87651050D01*
X133321944Y-87712373D01*
X133308574Y-87723957D01*
X133240741Y-87774737D01*
X133240740Y-87774738D01*
X133240739Y-87774739D01*
X133240738Y-87774741D01*
X133153111Y-87891795D01*
X133102011Y-88028795D01*
X133102011Y-88028797D01*
X133095500Y-88089345D01*
X133095500Y-89710654D01*
X132842000Y-89710654D01*
X132842000Y-72006000D01*
X132861685Y-71938961D01*
X132914489Y-71893206D01*
X132966000Y-71882000D01*
X151514000Y-71882000D01*
X151581039Y-71901685D01*
G37*
%TD.AperFunction*%
%TD*%
M02*
