%TF.GenerationSoftware,KiCad,Pcbnew,7.0.7-7.0.7~ubuntu23.04.1*%
%TF.CreationDate,2023-09-06T15:51:11+00:00*%
%TF.ProjectId,FRAM01,4652414d-3031-42e6-9b69-6361645f7063,rev?*%
%TF.SameCoordinates,Original*%
%TF.FileFunction,Legend,Bot*%
%TF.FilePolarity,Positive*%
%FSLAX46Y46*%
G04 Gerber Fmt 4.6, Leading zero omitted, Abs format (unit mm)*
G04 Created by KiCad (PCBNEW 7.0.7-7.0.7~ubuntu23.04.1) date 2023-09-06 15:51:11*
%MOMM*%
%LPD*%
G01*
G04 APERTURE LIST*
%ADD10C,0.254000*%
%ADD11C,0.150000*%
%ADD12C,0.200000*%
%ADD13C,0.120000*%
G04 APERTURE END LIST*
D10*
X136739762Y-91174318D02*
X136739762Y-89904318D01*
X135409285Y-91053365D02*
X135469761Y-91113842D01*
X135469761Y-91113842D02*
X135651190Y-91174318D01*
X135651190Y-91174318D02*
X135772142Y-91174318D01*
X135772142Y-91174318D02*
X135953571Y-91113842D01*
X135953571Y-91113842D02*
X136074523Y-90992889D01*
X136074523Y-90992889D02*
X136135000Y-90871937D01*
X136135000Y-90871937D02*
X136195476Y-90630032D01*
X136195476Y-90630032D02*
X136195476Y-90448603D01*
X136195476Y-90448603D02*
X136135000Y-90206699D01*
X136135000Y-90206699D02*
X136074523Y-90085746D01*
X136074523Y-90085746D02*
X135953571Y-89964794D01*
X135953571Y-89964794D02*
X135772142Y-89904318D01*
X135772142Y-89904318D02*
X135651190Y-89904318D01*
X135651190Y-89904318D02*
X135469761Y-89964794D01*
X135469761Y-89964794D02*
X135409285Y-90025270D01*
X134199761Y-91174318D02*
X134925476Y-91174318D01*
X134562619Y-91174318D02*
X134562619Y-89904318D01*
X134562619Y-89904318D02*
X134683571Y-90085746D01*
X134683571Y-90085746D02*
X134804523Y-90206699D01*
X134804523Y-90206699D02*
X134925476Y-90267175D01*
D11*
X151138094Y-81154819D02*
X151138094Y-80154819D01*
X151138094Y-80154819D02*
X150899999Y-80154819D01*
X150899999Y-80154819D02*
X150757142Y-80202438D01*
X150757142Y-80202438D02*
X150661904Y-80297676D01*
X150661904Y-80297676D02*
X150614285Y-80392914D01*
X150614285Y-80392914D02*
X150566666Y-80583390D01*
X150566666Y-80583390D02*
X150566666Y-80726247D01*
X150566666Y-80726247D02*
X150614285Y-80916723D01*
X150614285Y-80916723D02*
X150661904Y-81011961D01*
X150661904Y-81011961D02*
X150757142Y-81107200D01*
X150757142Y-81107200D02*
X150899999Y-81154819D01*
X150899999Y-81154819D02*
X151138094Y-81154819D01*
X149614285Y-81154819D02*
X150185713Y-81154819D01*
X149899999Y-81154819D02*
X149899999Y-80154819D01*
X149899999Y-80154819D02*
X149995237Y-80297676D01*
X149995237Y-80297676D02*
X150090475Y-80392914D01*
X150090475Y-80392914D02*
X150185713Y-80440533D01*
X145066666Y-93559580D02*
X145114285Y-93607200D01*
X145114285Y-93607200D02*
X145257142Y-93654819D01*
X145257142Y-93654819D02*
X145352380Y-93654819D01*
X145352380Y-93654819D02*
X145495237Y-93607200D01*
X145495237Y-93607200D02*
X145590475Y-93511961D01*
X145590475Y-93511961D02*
X145638094Y-93416723D01*
X145638094Y-93416723D02*
X145685713Y-93226247D01*
X145685713Y-93226247D02*
X145685713Y-93083390D01*
X145685713Y-93083390D02*
X145638094Y-92892914D01*
X145638094Y-92892914D02*
X145590475Y-92797676D01*
X145590475Y-92797676D02*
X145495237Y-92702438D01*
X145495237Y-92702438D02*
X145352380Y-92654819D01*
X145352380Y-92654819D02*
X145257142Y-92654819D01*
X145257142Y-92654819D02*
X145114285Y-92702438D01*
X145114285Y-92702438D02*
X145066666Y-92750057D01*
X144114285Y-93654819D02*
X144685713Y-93654819D01*
X144399999Y-93654819D02*
X144399999Y-92654819D01*
X144399999Y-92654819D02*
X144495237Y-92797676D01*
X144495237Y-92797676D02*
X144590475Y-92892914D01*
X144590475Y-92892914D02*
X144685713Y-92940533D01*
X143466666Y-91291580D02*
X143514285Y-91339200D01*
X143514285Y-91339200D02*
X143657142Y-91386819D01*
X143657142Y-91386819D02*
X143752380Y-91386819D01*
X143752380Y-91386819D02*
X143895237Y-91339200D01*
X143895237Y-91339200D02*
X143990475Y-91243961D01*
X143990475Y-91243961D02*
X144038094Y-91148723D01*
X144038094Y-91148723D02*
X144085713Y-90958247D01*
X144085713Y-90958247D02*
X144085713Y-90815390D01*
X144085713Y-90815390D02*
X144038094Y-90624914D01*
X144038094Y-90624914D02*
X143990475Y-90529676D01*
X143990475Y-90529676D02*
X143895237Y-90434438D01*
X143895237Y-90434438D02*
X143752380Y-90386819D01*
X143752380Y-90386819D02*
X143657142Y-90386819D01*
X143657142Y-90386819D02*
X143514285Y-90434438D01*
X143514285Y-90434438D02*
X143466666Y-90482057D01*
X143085713Y-90482057D02*
X143038094Y-90434438D01*
X143038094Y-90434438D02*
X142942856Y-90386819D01*
X142942856Y-90386819D02*
X142704761Y-90386819D01*
X142704761Y-90386819D02*
X142609523Y-90434438D01*
X142609523Y-90434438D02*
X142561904Y-90482057D01*
X142561904Y-90482057D02*
X142514285Y-90577295D01*
X142514285Y-90577295D02*
X142514285Y-90672533D01*
X142514285Y-90672533D02*
X142561904Y-90815390D01*
X142561904Y-90815390D02*
X143133332Y-91386819D01*
X143133332Y-91386819D02*
X142514285Y-91386819D01*
D12*
%TO.C,IC1*%
X134438000Y-89448000D02*
X136088000Y-89448000D01*
X136438000Y-84253000D02*
X136438000Y-89483000D01*
X136438000Y-89483000D02*
X141438000Y-89483000D01*
X141438000Y-84253000D02*
X136438000Y-84253000D01*
X141438000Y-89483000D02*
X141438000Y-84253000D01*
D13*
%TO.C,D1*%
X149500000Y-85810000D02*
X149500000Y-81950000D01*
X151500000Y-85810000D02*
X149500000Y-85810000D01*
X151500000Y-85810000D02*
X151500000Y-81950000D01*
%TO.C,C1*%
X142501252Y-93935000D02*
X141978748Y-93935000D01*
X142501252Y-92465000D02*
X141978748Y-92465000D01*
%TO.C,C2*%
X141043252Y-91667000D02*
X140520748Y-91667000D01*
X141043252Y-90197000D02*
X140520748Y-90197000D01*
%TD*%
M02*
