%TF.GenerationSoftware,KiCad,Pcbnew,7.0.7-7.0.7~ubuntu23.04.1*%
%TF.CreationDate,2023-09-06T15:51:11+00:00*%
%TF.ProjectId,FRAM01,4652414d-3031-42e6-9b69-6361645f7063,rev?*%
%TF.SameCoordinates,Original*%
%TF.FileFunction,Copper,L1,Top*%
%TF.FilePolarity,Positive*%
%FSLAX46Y46*%
G04 Gerber Fmt 4.6, Leading zero omitted, Abs format (unit mm)*
G04 Created by KiCad (PCBNEW 7.0.7-7.0.7~ubuntu23.04.1) date 2023-09-06 15:51:11*
%MOMM*%
%LPD*%
G01*
G04 APERTURE LIST*
%TA.AperFunction,ComponentPad*%
%ADD10C,6.000000*%
%TD*%
%TA.AperFunction,ComponentPad*%
%ADD11R,1.524000X1.524000*%
%TD*%
%TA.AperFunction,ViaPad*%
%ADD12C,0.800000*%
%TD*%
%TA.AperFunction,Conductor*%
%ADD13C,0.304800*%
%TD*%
G04 APERTURE END LIST*
D10*
%TO.P,M4,1*%
%TO.N,GND*%
X147320000Y-96520000D03*
%TD*%
%TO.P,M1,1*%
%TO.N,GND*%
X137160000Y-76200000D03*
%TD*%
%TO.P,M3,1*%
%TO.N,GND*%
X147320000Y-76200000D03*
%TD*%
D11*
%TO.P,J2,1*%
%TO.N,MISO*%
X145400000Y-82550000D03*
%TO.P,J2,2*%
%TO.N,+3.3V*%
X147940000Y-82550000D03*
%TO.P,J2,3*%
%TO.N,SCK*%
X145400000Y-85090000D03*
%TO.P,J2,4*%
%TO.N,MOSI*%
X147940000Y-85090000D03*
%TO.P,J2,5*%
%TO.N,~{CS}*%
X145400000Y-87630000D03*
%TO.P,J2,6*%
%TO.N,GND*%
X147940000Y-87630000D03*
%TO.P,J2,7*%
%TO.N,~{WP}*%
X145400000Y-90170000D03*
%TO.P,J2,8*%
%TO.N,GND*%
X147940000Y-90170000D03*
%TD*%
D10*
%TO.P,M2,1*%
%TO.N,GND*%
X137160000Y-96520000D03*
%TD*%
D12*
%TO.N,GND*%
X138176000Y-91440000D03*
X133604000Y-90100000D03*
X140800000Y-85700000D03*
X141478000Y-94742000D03*
X142748000Y-94742000D03*
X138176000Y-90424000D03*
X133000000Y-86400000D03*
X139700000Y-92710000D03*
%TO.N,~{CS}*%
X140900000Y-87630000D03*
%TO.N,~{WP}*%
X137800000Y-85800000D03*
%TD*%
D13*
%TO.N,~{CS}*%
X145400000Y-87630000D02*
X140900000Y-87630000D01*
%TO.N,~{WP}*%
X137800000Y-88300000D02*
X139670000Y-90170000D01*
X139670000Y-90170000D02*
X145400000Y-90170000D01*
X137800000Y-85800000D02*
X137800000Y-88300000D01*
%TD*%
%TA.AperFunction,Conductor*%
%TO.N,GND*%
G36*
X152104691Y-71393407D02*
G01*
X152140655Y-71442907D01*
X152145500Y-71473500D01*
X152145500Y-101246500D01*
X152126593Y-101304691D01*
X152077093Y-101340655D01*
X152046500Y-101345500D01*
X132433500Y-101345500D01*
X132375309Y-101326593D01*
X132339345Y-101277093D01*
X132334500Y-101246500D01*
X132334500Y-85800000D01*
X137094355Y-85800000D01*
X137114860Y-85968872D01*
X137175182Y-86127930D01*
X137271817Y-86267929D01*
X137313749Y-86305077D01*
X137344767Y-86357815D01*
X137347100Y-86379179D01*
X137347100Y-88271781D01*
X137346789Y-88277327D01*
X137342305Y-88317124D01*
X137342305Y-88317127D01*
X137345356Y-88333250D01*
X137353418Y-88375862D01*
X137358665Y-88410679D01*
X137362331Y-88435001D01*
X137364517Y-88442087D01*
X137364103Y-88442214D01*
X137364828Y-88444418D01*
X137365238Y-88444275D01*
X137367685Y-88451269D01*
X137367686Y-88451273D01*
X137367687Y-88451276D01*
X137367689Y-88451280D01*
X137395621Y-88504130D01*
X137421570Y-88558012D01*
X137425750Y-88564143D01*
X137425391Y-88564387D01*
X137426725Y-88566267D01*
X137427075Y-88566009D01*
X137431482Y-88571980D01*
X137473763Y-88614262D01*
X137492731Y-88634703D01*
X137514432Y-88658091D01*
X137514434Y-88658092D01*
X137514435Y-88658093D01*
X137520234Y-88662718D01*
X137519962Y-88663058D01*
X137531125Y-88671623D01*
X139329808Y-90470307D01*
X139333510Y-90474450D01*
X139358467Y-90505747D01*
X139358470Y-90505749D01*
X139407860Y-90539422D01*
X139455983Y-90574939D01*
X139455985Y-90574939D01*
X139462543Y-90578406D01*
X139462338Y-90578792D01*
X139464399Y-90579832D01*
X139464589Y-90579439D01*
X139471272Y-90582657D01*
X139471274Y-90582658D01*
X139515680Y-90596355D01*
X139528405Y-90600280D01*
X139584849Y-90620031D01*
X139592142Y-90621411D01*
X139592060Y-90621840D01*
X139594334Y-90622226D01*
X139594400Y-90621794D01*
X139601735Y-90622900D01*
X139661539Y-90622900D01*
X139721281Y-90625135D01*
X139721287Y-90625133D01*
X139728655Y-90624304D01*
X139728703Y-90624736D01*
X139742657Y-90622900D01*
X144238501Y-90622900D01*
X144296692Y-90641807D01*
X144332656Y-90691307D01*
X144337501Y-90721900D01*
X144337501Y-90976863D01*
X144340414Y-91001990D01*
X144365756Y-91059385D01*
X144385794Y-91104765D01*
X144465235Y-91184206D01*
X144568009Y-91229585D01*
X144593135Y-91232500D01*
X146206864Y-91232499D01*
X146231991Y-91229585D01*
X146334765Y-91184206D01*
X146414206Y-91104765D01*
X146459585Y-91001991D01*
X146462500Y-90976865D01*
X146462499Y-89915999D01*
X146878000Y-89915999D01*
X146878001Y-89916000D01*
X147417901Y-89916000D01*
X147476092Y-89934907D01*
X147512056Y-89984407D01*
X147514418Y-90037028D01*
X147491736Y-90136407D01*
X147491735Y-90136407D01*
X147501748Y-90270024D01*
X147501748Y-90270026D01*
X147509129Y-90288831D01*
X147512788Y-90349907D01*
X147479848Y-90401469D01*
X147422892Y-90423823D01*
X147416972Y-90424000D01*
X146878002Y-90424000D01*
X146878001Y-90424001D01*
X146878001Y-90976791D01*
X146880909Y-91001874D01*
X146926213Y-91104477D01*
X147005522Y-91183786D01*
X147108127Y-91229090D01*
X147133203Y-91231999D01*
X147685998Y-91231999D01*
X147686000Y-91231998D01*
X147686000Y-90690957D01*
X147704907Y-90632766D01*
X147754407Y-90596802D01*
X147814177Y-90596355D01*
X147873002Y-90614500D01*
X147873006Y-90614500D01*
X147973307Y-90614500D01*
X147973312Y-90614500D01*
X147996777Y-90610963D01*
X148079836Y-90598445D01*
X148080348Y-90601846D01*
X148126887Y-90602488D01*
X148175887Y-90639130D01*
X148194000Y-90696212D01*
X148194000Y-91231998D01*
X148194001Y-91231999D01*
X148746790Y-91231999D01*
X148746791Y-91231998D01*
X148771874Y-91229090D01*
X148874477Y-91183786D01*
X148953786Y-91104477D01*
X148999090Y-91001872D01*
X149001999Y-90976797D01*
X149002000Y-90976795D01*
X149002000Y-90424000D01*
X148462099Y-90424000D01*
X148403908Y-90405093D01*
X148367944Y-90355593D01*
X148365581Y-90302971D01*
X148388264Y-90203593D01*
X148378251Y-90069972D01*
X148370870Y-90051168D01*
X148367212Y-89990093D01*
X148400152Y-89938531D01*
X148457108Y-89916177D01*
X148463028Y-89916000D01*
X149001998Y-89916000D01*
X149001999Y-89915999D01*
X149001999Y-89363210D01*
X149001998Y-89363208D01*
X148999090Y-89338125D01*
X148953786Y-89235522D01*
X148874477Y-89156213D01*
X148771872Y-89110909D01*
X148746797Y-89108000D01*
X148194001Y-89108000D01*
X148194000Y-89108001D01*
X148194000Y-89649042D01*
X148175093Y-89707233D01*
X148125593Y-89743197D01*
X148065820Y-89743644D01*
X148006998Y-89725500D01*
X147906688Y-89725500D01*
X147906682Y-89725500D01*
X147800164Y-89741555D01*
X147799656Y-89738188D01*
X147752905Y-89737440D01*
X147703986Y-89700689D01*
X147686000Y-89643787D01*
X147686000Y-89108001D01*
X147685999Y-89108000D01*
X147133210Y-89108000D01*
X147133207Y-89108001D01*
X147108125Y-89110909D01*
X147005522Y-89156213D01*
X146926213Y-89235522D01*
X146880909Y-89338127D01*
X146878000Y-89363202D01*
X146878000Y-89915999D01*
X146462499Y-89915999D01*
X146462499Y-89363136D01*
X146459585Y-89338009D01*
X146414206Y-89235235D01*
X146334765Y-89155794D01*
X146231991Y-89110415D01*
X146231990Y-89110414D01*
X146231988Y-89110414D01*
X146206868Y-89107500D01*
X144593139Y-89107500D01*
X144593136Y-89107501D01*
X144568009Y-89110414D01*
X144465235Y-89155794D01*
X144385794Y-89235235D01*
X144340414Y-89338011D01*
X144337500Y-89363130D01*
X144337500Y-89618100D01*
X144318593Y-89676291D01*
X144269093Y-89712255D01*
X144238500Y-89717100D01*
X139898605Y-89717100D01*
X139840414Y-89698193D01*
X139828601Y-89688104D01*
X138281896Y-88141399D01*
X138254119Y-88086882D01*
X138252900Y-88071395D01*
X138252900Y-87630000D01*
X140194355Y-87630000D01*
X140214860Y-87798872D01*
X140275182Y-87957930D01*
X140371817Y-88097929D01*
X140499148Y-88210734D01*
X140649775Y-88289790D01*
X140814944Y-88330500D01*
X140814947Y-88330500D01*
X140985053Y-88330500D01*
X140985056Y-88330500D01*
X141150225Y-88289790D01*
X141300852Y-88210734D01*
X141417044Y-88107796D01*
X141473138Y-88083362D01*
X141482693Y-88082900D01*
X144238501Y-88082900D01*
X144296692Y-88101807D01*
X144332656Y-88151307D01*
X144337501Y-88181900D01*
X144337501Y-88436863D01*
X144340414Y-88461990D01*
X144359021Y-88504130D01*
X144385794Y-88564765D01*
X144465235Y-88644206D01*
X144568009Y-88689585D01*
X144593135Y-88692500D01*
X146206864Y-88692499D01*
X146231991Y-88689585D01*
X146334765Y-88644206D01*
X146414206Y-88564765D01*
X146459585Y-88461991D01*
X146462500Y-88436865D01*
X146462499Y-87375999D01*
X146878000Y-87375999D01*
X146878001Y-87376000D01*
X147417901Y-87376000D01*
X147476092Y-87394907D01*
X147512056Y-87444407D01*
X147514418Y-87497028D01*
X147491736Y-87596407D01*
X147491735Y-87596407D01*
X147501748Y-87730024D01*
X147501748Y-87730026D01*
X147509129Y-87748831D01*
X147512788Y-87809907D01*
X147479848Y-87861469D01*
X147422892Y-87883823D01*
X147416972Y-87884000D01*
X146878002Y-87884000D01*
X146878001Y-87884001D01*
X146878001Y-88436791D01*
X146880909Y-88461874D01*
X146926213Y-88564477D01*
X147005522Y-88643786D01*
X147108127Y-88689090D01*
X147133203Y-88691999D01*
X147685998Y-88691999D01*
X147686000Y-88691998D01*
X147686000Y-88150957D01*
X147704907Y-88092766D01*
X147754407Y-88056802D01*
X147814177Y-88056355D01*
X147873002Y-88074500D01*
X147873006Y-88074500D01*
X147973307Y-88074500D01*
X147973312Y-88074500D01*
X147996777Y-88070963D01*
X148079836Y-88058445D01*
X148080348Y-88061846D01*
X148126887Y-88062488D01*
X148175887Y-88099130D01*
X148194000Y-88156212D01*
X148194000Y-88691998D01*
X148194001Y-88691999D01*
X148746790Y-88691999D01*
X148746791Y-88691998D01*
X148771874Y-88689090D01*
X148874477Y-88643786D01*
X148953786Y-88564477D01*
X148999090Y-88461872D01*
X149001999Y-88436797D01*
X149002000Y-88436795D01*
X149002000Y-87884000D01*
X148462099Y-87884000D01*
X148403908Y-87865093D01*
X148367944Y-87815593D01*
X148365581Y-87762971D01*
X148388264Y-87663593D01*
X148378251Y-87529972D01*
X148370870Y-87511168D01*
X148367212Y-87450093D01*
X148400152Y-87398531D01*
X148457108Y-87376177D01*
X148463028Y-87376000D01*
X149001998Y-87376000D01*
X149001999Y-87375998D01*
X149001999Y-86823210D01*
X149001998Y-86823208D01*
X148999090Y-86798125D01*
X148953786Y-86695522D01*
X148874477Y-86616213D01*
X148771872Y-86570909D01*
X148746797Y-86568000D01*
X148194001Y-86568000D01*
X148194000Y-86568001D01*
X148194000Y-87109042D01*
X148175093Y-87167233D01*
X148125593Y-87203197D01*
X148065820Y-87203644D01*
X148006998Y-87185500D01*
X147906688Y-87185500D01*
X147906682Y-87185500D01*
X147800164Y-87201555D01*
X147799656Y-87198188D01*
X147752905Y-87197440D01*
X147703986Y-87160689D01*
X147686000Y-87103787D01*
X147686000Y-86568001D01*
X147685999Y-86568000D01*
X147133210Y-86568000D01*
X147133207Y-86568001D01*
X147108125Y-86570909D01*
X147005522Y-86616213D01*
X146926213Y-86695522D01*
X146880909Y-86798127D01*
X146878000Y-86823202D01*
X146878000Y-87375999D01*
X146462499Y-87375999D01*
X146462499Y-86823136D01*
X146459585Y-86798009D01*
X146414206Y-86695235D01*
X146334765Y-86615794D01*
X146231991Y-86570415D01*
X146231990Y-86570414D01*
X146231988Y-86570414D01*
X146206868Y-86567500D01*
X144593139Y-86567500D01*
X144593136Y-86567501D01*
X144568009Y-86570414D01*
X144465235Y-86615794D01*
X144385794Y-86695235D01*
X144340414Y-86798011D01*
X144337500Y-86823130D01*
X144337500Y-87078100D01*
X144318593Y-87136291D01*
X144269093Y-87172255D01*
X144238500Y-87177100D01*
X141482693Y-87177100D01*
X141424502Y-87158193D01*
X141417044Y-87152203D01*
X141300853Y-87049267D01*
X141300852Y-87049266D01*
X141150225Y-86970210D01*
X141150224Y-86970209D01*
X141150223Y-86970209D01*
X140985058Y-86929500D01*
X140985056Y-86929500D01*
X140814944Y-86929500D01*
X140814941Y-86929500D01*
X140649776Y-86970209D01*
X140499146Y-87049267D01*
X140371818Y-87162069D01*
X140371816Y-87162072D01*
X140343121Y-87203644D01*
X140275182Y-87302070D01*
X140214860Y-87461128D01*
X140194355Y-87630000D01*
X138252900Y-87630000D01*
X138252900Y-86379179D01*
X138271807Y-86320988D01*
X138286246Y-86305080D01*
X138328183Y-86267929D01*
X138424818Y-86127930D01*
X138485140Y-85968872D01*
X138493884Y-85896860D01*
X144337500Y-85896860D01*
X144337501Y-85896863D01*
X144340414Y-85921990D01*
X144361114Y-85968870D01*
X144385794Y-86024765D01*
X144465235Y-86104206D01*
X144568009Y-86149585D01*
X144593135Y-86152500D01*
X146206864Y-86152499D01*
X146231991Y-86149585D01*
X146334765Y-86104206D01*
X146414206Y-86024765D01*
X146459585Y-85921991D01*
X146462500Y-85896865D01*
X146462500Y-85896860D01*
X146877500Y-85896860D01*
X146877501Y-85896863D01*
X146880414Y-85921990D01*
X146901114Y-85968870D01*
X146925794Y-86024765D01*
X147005235Y-86104206D01*
X147108009Y-86149585D01*
X147133135Y-86152500D01*
X148746864Y-86152499D01*
X148771991Y-86149585D01*
X148874765Y-86104206D01*
X148954206Y-86024765D01*
X148999585Y-85921991D01*
X149002500Y-85896865D01*
X149002499Y-84283136D01*
X148999585Y-84258009D01*
X148954206Y-84155235D01*
X148874765Y-84075794D01*
X148771991Y-84030415D01*
X148771990Y-84030414D01*
X148771988Y-84030414D01*
X148746868Y-84027500D01*
X147133139Y-84027500D01*
X147133136Y-84027501D01*
X147108009Y-84030414D01*
X147005235Y-84075794D01*
X146925794Y-84155235D01*
X146880414Y-84258011D01*
X146877500Y-84283130D01*
X146877500Y-85896860D01*
X146462500Y-85896860D01*
X146462499Y-84283136D01*
X146459585Y-84258009D01*
X146414206Y-84155235D01*
X146334765Y-84075794D01*
X146231991Y-84030415D01*
X146231990Y-84030414D01*
X146231988Y-84030414D01*
X146206868Y-84027500D01*
X144593139Y-84027500D01*
X144593136Y-84027501D01*
X144568009Y-84030414D01*
X144465235Y-84075794D01*
X144385794Y-84155235D01*
X144340414Y-84258011D01*
X144337500Y-84283130D01*
X144337500Y-85896860D01*
X138493884Y-85896860D01*
X138505645Y-85800000D01*
X138485140Y-85631128D01*
X138424818Y-85472070D01*
X138328183Y-85332071D01*
X138200852Y-85219266D01*
X138050225Y-85140210D01*
X138050224Y-85140209D01*
X138050223Y-85140209D01*
X137885058Y-85099500D01*
X137885056Y-85099500D01*
X137714944Y-85099500D01*
X137714941Y-85099500D01*
X137549776Y-85140209D01*
X137399146Y-85219267D01*
X137271818Y-85332069D01*
X137271816Y-85332071D01*
X137271817Y-85332071D01*
X137175182Y-85472070D01*
X137114860Y-85631128D01*
X137094355Y-85800000D01*
X132334500Y-85800000D01*
X132334500Y-83356860D01*
X144337500Y-83356860D01*
X144337501Y-83356863D01*
X144340414Y-83381990D01*
X144365756Y-83439384D01*
X144385794Y-83484765D01*
X144465235Y-83564206D01*
X144568009Y-83609585D01*
X144593135Y-83612500D01*
X146206864Y-83612499D01*
X146231991Y-83609585D01*
X146334765Y-83564206D01*
X146414206Y-83484765D01*
X146459585Y-83381991D01*
X146462500Y-83356865D01*
X146462500Y-83356860D01*
X146877500Y-83356860D01*
X146877501Y-83356863D01*
X146880414Y-83381990D01*
X146905756Y-83439384D01*
X146925794Y-83484765D01*
X147005235Y-83564206D01*
X147108009Y-83609585D01*
X147133135Y-83612500D01*
X148746864Y-83612499D01*
X148771991Y-83609585D01*
X148874765Y-83564206D01*
X148954206Y-83484765D01*
X148999585Y-83381991D01*
X149002500Y-83356865D01*
X149002499Y-81743136D01*
X148999585Y-81718009D01*
X148954206Y-81615235D01*
X148874765Y-81535794D01*
X148771991Y-81490415D01*
X148771990Y-81490414D01*
X148771988Y-81490414D01*
X148746868Y-81487500D01*
X147133139Y-81487500D01*
X147133136Y-81487501D01*
X147108009Y-81490414D01*
X147005235Y-81535794D01*
X146925794Y-81615235D01*
X146880414Y-81718011D01*
X146877500Y-81743130D01*
X146877500Y-83356860D01*
X146462500Y-83356860D01*
X146462499Y-81743136D01*
X146459585Y-81718009D01*
X146414206Y-81615235D01*
X146334765Y-81535794D01*
X146231991Y-81490415D01*
X146231990Y-81490414D01*
X146231988Y-81490414D01*
X146206868Y-81487500D01*
X144593139Y-81487500D01*
X144593136Y-81487501D01*
X144568009Y-81490414D01*
X144465235Y-81535794D01*
X144385794Y-81615235D01*
X144340414Y-81718011D01*
X144337500Y-81743130D01*
X144337500Y-83356860D01*
X132334500Y-83356860D01*
X132334500Y-71473500D01*
X132353407Y-71415309D01*
X132402907Y-71379345D01*
X132433500Y-71374500D01*
X152046500Y-71374500D01*
X152104691Y-71393407D01*
G37*
%TD.AperFunction*%
%TD*%
M02*
