M48
; DRILL file {KiCad 7.0.7-7.0.7~ubuntu23.04.1} date Mon Sep 11 01:18:13 2023
; FORMAT={3:3/ absolute / metric / suppress leading zeros}
; #@! TF.CreationDate,2023-09-11T01:18:13+00:00
; #@! TF.GenerationSoftware,Kicad,Pcbnew,7.0.7-7.0.7~ubuntu23.04.1
; #@! TF.FileFunction,Plated,1,2,PTH
FMAT,2
METRIC,TZ
; #@! TA.AperFunction,Plated,PTH,ViaDrill
T1C0.400
; #@! TA.AperFunction,Plated,PTH,ComponentDrill
T2C1.000
; #@! TA.AperFunction,Plated,PTH,ComponentDrill
T3C3.000
%
G90
G05
T1
X-3810Y8890
X-1016Y10160
X2440Y7102
T2
X-2794Y14886
X-2794Y12346
X-254Y14886
X-254Y12346
X2286Y14886
X2286Y12346
X8128Y13970
X8128Y11430
X8128Y8890
X8128Y6350
X10668Y13970
X10668Y11430
X10668Y8890
X10668Y6350
T3
X0Y20320
X0Y0
X10160Y20320
X10160Y0
T0
M30
