%TF.GenerationSoftware,KiCad,Pcbnew,7.0.7-7.0.7~ubuntu23.04.1*%
%TF.CreationDate,2023-09-06T14:45:01+00:00*%
%TF.ProjectId,FRAM01,4652414d-3031-42e6-9b69-6361645f7063,rev?*%
%TF.SameCoordinates,Original*%
%TF.FileFunction,Legend,Bot*%
%TF.FilePolarity,Positive*%
%FSLAX46Y46*%
G04 Gerber Fmt 4.6, Leading zero omitted, Abs format (unit mm)*
G04 Created by KiCad (PCBNEW 7.0.7-7.0.7~ubuntu23.04.1) date 2023-09-06 14:45:01*
%MOMM*%
%LPD*%
G01*
G04 APERTURE LIST*
%ADD10C,0.150000*%
%ADD11C,0.254000*%
%ADD12C,0.120000*%
%ADD13C,0.200000*%
G04 APERTURE END LIST*
D10*
X137930094Y-84782819D02*
X137930094Y-83782819D01*
X137930094Y-83782819D02*
X137691999Y-83782819D01*
X137691999Y-83782819D02*
X137549142Y-83830438D01*
X137549142Y-83830438D02*
X137453904Y-83925676D01*
X137453904Y-83925676D02*
X137406285Y-84020914D01*
X137406285Y-84020914D02*
X137358666Y-84211390D01*
X137358666Y-84211390D02*
X137358666Y-84354247D01*
X137358666Y-84354247D02*
X137406285Y-84544723D01*
X137406285Y-84544723D02*
X137453904Y-84639961D01*
X137453904Y-84639961D02*
X137549142Y-84735200D01*
X137549142Y-84735200D02*
X137691999Y-84782819D01*
X137691999Y-84782819D02*
X137930094Y-84782819D01*
X136406285Y-84782819D02*
X136977713Y-84782819D01*
X136691999Y-84782819D02*
X136691999Y-83782819D01*
X136691999Y-83782819D02*
X136787237Y-83925676D01*
X136787237Y-83925676D02*
X136882475Y-84020914D01*
X136882475Y-84020914D02*
X136977713Y-84068533D01*
X145708666Y-80877580D02*
X145756285Y-80925200D01*
X145756285Y-80925200D02*
X145899142Y-80972819D01*
X145899142Y-80972819D02*
X145994380Y-80972819D01*
X145994380Y-80972819D02*
X146137237Y-80925200D01*
X146137237Y-80925200D02*
X146232475Y-80829961D01*
X146232475Y-80829961D02*
X146280094Y-80734723D01*
X146280094Y-80734723D02*
X146327713Y-80544247D01*
X146327713Y-80544247D02*
X146327713Y-80401390D01*
X146327713Y-80401390D02*
X146280094Y-80210914D01*
X146280094Y-80210914D02*
X146232475Y-80115676D01*
X146232475Y-80115676D02*
X146137237Y-80020438D01*
X146137237Y-80020438D02*
X145994380Y-79972819D01*
X145994380Y-79972819D02*
X145899142Y-79972819D01*
X145899142Y-79972819D02*
X145756285Y-80020438D01*
X145756285Y-80020438D02*
X145708666Y-80068057D01*
X144756285Y-80972819D02*
X145327713Y-80972819D01*
X145041999Y-80972819D02*
X145041999Y-79972819D01*
X145041999Y-79972819D02*
X145137237Y-80115676D01*
X145137237Y-80115676D02*
X145232475Y-80210914D01*
X145232475Y-80210914D02*
X145327713Y-80258533D01*
D11*
X142814318Y-87271237D02*
X141544318Y-87271237D01*
X142693365Y-88601714D02*
X142753842Y-88541238D01*
X142753842Y-88541238D02*
X142814318Y-88359809D01*
X142814318Y-88359809D02*
X142814318Y-88238857D01*
X142814318Y-88238857D02*
X142753842Y-88057428D01*
X142753842Y-88057428D02*
X142632889Y-87936476D01*
X142632889Y-87936476D02*
X142511937Y-87875999D01*
X142511937Y-87875999D02*
X142270032Y-87815523D01*
X142270032Y-87815523D02*
X142088603Y-87815523D01*
X142088603Y-87815523D02*
X141846699Y-87875999D01*
X141846699Y-87875999D02*
X141725746Y-87936476D01*
X141725746Y-87936476D02*
X141604794Y-88057428D01*
X141604794Y-88057428D02*
X141544318Y-88238857D01*
X141544318Y-88238857D02*
X141544318Y-88359809D01*
X141544318Y-88359809D02*
X141604794Y-88541238D01*
X141604794Y-88541238D02*
X141665270Y-88601714D01*
X142814318Y-89811238D02*
X142814318Y-89085523D01*
X142814318Y-89448380D02*
X141544318Y-89448380D01*
X141544318Y-89448380D02*
X141725746Y-89327428D01*
X141725746Y-89327428D02*
X141846699Y-89206476D01*
X141846699Y-89206476D02*
X141907175Y-89085523D01*
D10*
X145708666Y-82909580D02*
X145756285Y-82957200D01*
X145756285Y-82957200D02*
X145899142Y-83004819D01*
X145899142Y-83004819D02*
X145994380Y-83004819D01*
X145994380Y-83004819D02*
X146137237Y-82957200D01*
X146137237Y-82957200D02*
X146232475Y-82861961D01*
X146232475Y-82861961D02*
X146280094Y-82766723D01*
X146280094Y-82766723D02*
X146327713Y-82576247D01*
X146327713Y-82576247D02*
X146327713Y-82433390D01*
X146327713Y-82433390D02*
X146280094Y-82242914D01*
X146280094Y-82242914D02*
X146232475Y-82147676D01*
X146232475Y-82147676D02*
X146137237Y-82052438D01*
X146137237Y-82052438D02*
X145994380Y-82004819D01*
X145994380Y-82004819D02*
X145899142Y-82004819D01*
X145899142Y-82004819D02*
X145756285Y-82052438D01*
X145756285Y-82052438D02*
X145708666Y-82100057D01*
X145327713Y-82100057D02*
X145280094Y-82052438D01*
X145280094Y-82052438D02*
X145184856Y-82004819D01*
X145184856Y-82004819D02*
X144946761Y-82004819D01*
X144946761Y-82004819D02*
X144851523Y-82052438D01*
X144851523Y-82052438D02*
X144803904Y-82100057D01*
X144803904Y-82100057D02*
X144756285Y-82195295D01*
X144756285Y-82195295D02*
X144756285Y-82290533D01*
X144756285Y-82290533D02*
X144803904Y-82433390D01*
X144803904Y-82433390D02*
X145375332Y-83004819D01*
X145375332Y-83004819D02*
X144756285Y-83004819D01*
D12*
%TO.C,D1*%
X140084000Y-83438000D02*
X134684000Y-83438000D01*
X140084000Y-80138000D02*
X140084000Y-83438000D01*
X140084000Y-80138000D02*
X134684000Y-80138000D01*
%TO.C,C1*%
X143329252Y-81253000D02*
X142806748Y-81253000D01*
X143329252Y-79783000D02*
X142806748Y-79783000D01*
D13*
%TO.C,IC1*%
X144820000Y-93011000D02*
X144820000Y-91361000D01*
X139625000Y-91011000D02*
X144855000Y-91011000D01*
X144855000Y-91011000D02*
X144855000Y-86011000D01*
X139625000Y-86011000D02*
X139625000Y-91011000D01*
X144855000Y-86011000D02*
X139625000Y-86011000D01*
D12*
%TO.C,C2*%
X143263252Y-83285000D02*
X142740748Y-83285000D01*
X143263252Y-81815000D02*
X142740748Y-81815000D01*
%TD*%
M02*
