%TF.GenerationSoftware,KiCad,Pcbnew,7.0.7-7.0.7~ubuntu23.04.1*%
%TF.CreationDate,2023-09-20T18:51:27+00:00*%
%TF.ProjectId,FRAM01,4652414d-3031-42e6-9b69-6361645f7063,rev?*%
%TF.SameCoordinates,Original*%
%TF.FileFunction,Legend,Top*%
%TF.FilePolarity,Positive*%
%FSLAX46Y46*%
G04 Gerber Fmt 4.6, Leading zero omitted, Abs format (unit mm)*
G04 Created by KiCad (PCBNEW 7.0.7-7.0.7~ubuntu23.04.1) date 2023-09-20 18:51:27*
%MOMM*%
%LPD*%
G01*
G04 APERTURE LIST*
%ADD10C,0.150000*%
%ADD11C,0.200000*%
%ADD12C,0.120000*%
G04 APERTURE END LIST*
D10*
X12340000Y14511443D02*
X12640000Y13611443D01*
X12640000Y13611443D02*
X12940000Y14511443D01*
X13240000Y13611443D02*
X13240000Y14511443D01*
X13240000Y14511443D02*
X13454286Y14511443D01*
X13454286Y14511443D02*
X13582857Y14468586D01*
X13582857Y14468586D02*
X13668572Y14382872D01*
X13668572Y14382872D02*
X13711429Y14297158D01*
X13711429Y14297158D02*
X13754286Y14125729D01*
X13754286Y14125729D02*
X13754286Y13997158D01*
X13754286Y13997158D02*
X13711429Y13825729D01*
X13711429Y13825729D02*
X13668572Y13740015D01*
X13668572Y13740015D02*
X13582857Y13654300D01*
X13582857Y13654300D02*
X13454286Y13611443D01*
X13454286Y13611443D02*
X13240000Y13611443D01*
X14140000Y13611443D02*
X14140000Y14511443D01*
X14140000Y14511443D02*
X14354286Y14511443D01*
X14354286Y14511443D02*
X14482857Y14468586D01*
X14482857Y14468586D02*
X14568572Y14382872D01*
X14568572Y14382872D02*
X14611429Y14297158D01*
X14611429Y14297158D02*
X14654286Y14125729D01*
X14654286Y14125729D02*
X14654286Y13997158D01*
X14654286Y13997158D02*
X14611429Y13825729D01*
X14611429Y13825729D02*
X14568572Y13740015D01*
X14568572Y13740015D02*
X14482857Y13654300D01*
X14482857Y13654300D02*
X14354286Y13611443D01*
X14354286Y13611443D02*
X14140000Y13611443D01*
X12754286Y8968586D02*
X12668572Y9011443D01*
X12668572Y9011443D02*
X12540000Y9011443D01*
X12540000Y9011443D02*
X12411429Y8968586D01*
X12411429Y8968586D02*
X12325714Y8882872D01*
X12325714Y8882872D02*
X12282857Y8797158D01*
X12282857Y8797158D02*
X12240000Y8625729D01*
X12240000Y8625729D02*
X12240000Y8497158D01*
X12240000Y8497158D02*
X12282857Y8325729D01*
X12282857Y8325729D02*
X12325714Y8240015D01*
X12325714Y8240015D02*
X12411429Y8154300D01*
X12411429Y8154300D02*
X12540000Y8111443D01*
X12540000Y8111443D02*
X12625714Y8111443D01*
X12625714Y8111443D02*
X12754286Y8154300D01*
X12754286Y8154300D02*
X12797143Y8197158D01*
X12797143Y8197158D02*
X12797143Y8497158D01*
X12797143Y8497158D02*
X12625714Y8497158D01*
X13182857Y8111443D02*
X13182857Y9011443D01*
X13182857Y9011443D02*
X13697143Y8111443D01*
X13697143Y8111443D02*
X13697143Y9011443D01*
X14125714Y8111443D02*
X14125714Y9011443D01*
X14125714Y9011443D02*
X14340000Y9011443D01*
X14340000Y9011443D02*
X14468571Y8968586D01*
X14468571Y8968586D02*
X14554286Y8882872D01*
X14554286Y8882872D02*
X14597143Y8797158D01*
X14597143Y8797158D02*
X14640000Y8625729D01*
X14640000Y8625729D02*
X14640000Y8497158D01*
X14640000Y8497158D02*
X14597143Y8325729D01*
X14597143Y8325729D02*
X14554286Y8240015D01*
X14554286Y8240015D02*
X14468571Y8154300D01*
X14468571Y8154300D02*
X14340000Y8111443D01*
X14340000Y8111443D02*
X14125714Y8111443D01*
X6248557Y12705715D02*
X5348557Y12705715D01*
X5348557Y12705715D02*
X5991414Y13005715D01*
X5991414Y13005715D02*
X5348557Y13305715D01*
X5348557Y13305715D02*
X6248557Y13305715D01*
X6248557Y13734286D02*
X5348557Y13734286D01*
X6205700Y14120000D02*
X6248557Y14248571D01*
X6248557Y14248571D02*
X6248557Y14462857D01*
X6248557Y14462857D02*
X6205700Y14548571D01*
X6205700Y14548571D02*
X6162842Y14591429D01*
X6162842Y14591429D02*
X6077128Y14634286D01*
X6077128Y14634286D02*
X5991414Y14634286D01*
X5991414Y14634286D02*
X5905700Y14591429D01*
X5905700Y14591429D02*
X5862842Y14548571D01*
X5862842Y14548571D02*
X5819985Y14462857D01*
X5819985Y14462857D02*
X5777128Y14291429D01*
X5777128Y14291429D02*
X5734271Y14205714D01*
X5734271Y14205714D02*
X5691414Y14162857D01*
X5691414Y14162857D02*
X5605700Y14120000D01*
X5605700Y14120000D02*
X5519985Y14120000D01*
X5519985Y14120000D02*
X5434271Y14162857D01*
X5434271Y14162857D02*
X5391414Y14205714D01*
X5391414Y14205714D02*
X5348557Y14291429D01*
X5348557Y14291429D02*
X5348557Y14505714D01*
X5348557Y14505714D02*
X5391414Y14634286D01*
X5348557Y15191429D02*
X5348557Y15362857D01*
X5348557Y15362857D02*
X5391414Y15448572D01*
X5391414Y15448572D02*
X5477128Y15534286D01*
X5477128Y15534286D02*
X5648557Y15577143D01*
X5648557Y15577143D02*
X5948557Y15577143D01*
X5948557Y15577143D02*
X6119985Y15534286D01*
X6119985Y15534286D02*
X6205700Y15448572D01*
X6205700Y15448572D02*
X6248557Y15362857D01*
X6248557Y15362857D02*
X6248557Y15191429D01*
X6248557Y15191429D02*
X6205700Y15105714D01*
X6205700Y15105714D02*
X6119985Y15020000D01*
X6119985Y15020000D02*
X5948557Y14977143D01*
X5948557Y14977143D02*
X5648557Y14977143D01*
X5648557Y14977143D02*
X5477128Y15020000D01*
X5477128Y15020000D02*
X5391414Y15105714D01*
X5391414Y15105714D02*
X5348557Y15191429D01*
D11*
X-2998096Y8101591D02*
X-3331429Y8101591D01*
X-3331429Y7577781D02*
X-3331429Y8577781D01*
X-3331429Y8577781D02*
X-2855239Y8577781D01*
X-1902858Y7577781D02*
X-2236191Y8053972D01*
X-2474286Y7577781D02*
X-2474286Y8577781D01*
X-2474286Y8577781D02*
X-2093334Y8577781D01*
X-2093334Y8577781D02*
X-1998096Y8530162D01*
X-1998096Y8530162D02*
X-1950477Y8482543D01*
X-1950477Y8482543D02*
X-1902858Y8387305D01*
X-1902858Y8387305D02*
X-1902858Y8244448D01*
X-1902858Y8244448D02*
X-1950477Y8149210D01*
X-1950477Y8149210D02*
X-1998096Y8101591D01*
X-1998096Y8101591D02*
X-2093334Y8053972D01*
X-2093334Y8053972D02*
X-2474286Y8053972D01*
X-1521905Y7863496D02*
X-1045715Y7863496D01*
X-1617143Y7577781D02*
X-1283810Y8577781D01*
X-1283810Y8577781D02*
X-950477Y7577781D01*
X-617143Y7577781D02*
X-617143Y8577781D01*
X-617143Y8577781D02*
X-283810Y7863496D01*
X-283810Y7863496D02*
X49523Y8577781D01*
X49523Y8577781D02*
X49523Y7577781D01*
X716190Y8577781D02*
X811428Y8577781D01*
X811428Y8577781D02*
X906666Y8530162D01*
X906666Y8530162D02*
X954285Y8482543D01*
X954285Y8482543D02*
X1001904Y8387305D01*
X1001904Y8387305D02*
X1049523Y8196829D01*
X1049523Y8196829D02*
X1049523Y7958734D01*
X1049523Y7958734D02*
X1001904Y7768258D01*
X1001904Y7768258D02*
X954285Y7673020D01*
X954285Y7673020D02*
X906666Y7625400D01*
X906666Y7625400D02*
X811428Y7577781D01*
X811428Y7577781D02*
X716190Y7577781D01*
X716190Y7577781D02*
X620952Y7625400D01*
X620952Y7625400D02*
X573333Y7673020D01*
X573333Y7673020D02*
X525714Y7768258D01*
X525714Y7768258D02*
X478095Y7958734D01*
X478095Y7958734D02*
X478095Y8196829D01*
X478095Y8196829D02*
X525714Y8387305D01*
X525714Y8387305D02*
X573333Y8482543D01*
X573333Y8482543D02*
X620952Y8530162D01*
X620952Y8530162D02*
X716190Y8577781D01*
X2001904Y7577781D02*
X1430476Y7577781D01*
X1716190Y7577781D02*
X1716190Y8577781D01*
X1716190Y8577781D02*
X1620952Y8434924D01*
X1620952Y8434924D02*
X1525714Y8339686D01*
X1525714Y8339686D02*
X1430476Y8292067D01*
X2382857Y7863496D02*
X2859047Y7863496D01*
X2287619Y7577781D02*
X2620952Y8577781D01*
X2620952Y8577781D02*
X2954285Y7577781D01*
X-2998095Y5967781D02*
X-2998095Y6967781D01*
X-2998095Y6967781D02*
X-2664762Y6253496D01*
X-2664762Y6253496D02*
X-2331429Y6967781D01*
X-2331429Y6967781D02*
X-2331429Y5967781D01*
X-1379048Y5967781D02*
X-1855238Y5967781D01*
X-1855238Y5967781D02*
X-1855238Y6967781D01*
X-1093333Y6253496D02*
X-617143Y6253496D01*
X-1188571Y5967781D02*
X-855238Y6967781D01*
X-855238Y6967781D02*
X-521905Y5967781D01*
X144762Y6491591D02*
X287619Y6443972D01*
X287619Y6443972D02*
X335238Y6396353D01*
X335238Y6396353D02*
X382857Y6301115D01*
X382857Y6301115D02*
X382857Y6158258D01*
X382857Y6158258D02*
X335238Y6063020D01*
X335238Y6063020D02*
X287619Y6015400D01*
X287619Y6015400D02*
X192381Y5967781D01*
X192381Y5967781D02*
X-188571Y5967781D01*
X-188571Y5967781D02*
X-188571Y6967781D01*
X-188571Y6967781D02*
X144762Y6967781D01*
X144762Y6967781D02*
X240000Y6920162D01*
X240000Y6920162D02*
X287619Y6872543D01*
X287619Y6872543D02*
X335238Y6777305D01*
X335238Y6777305D02*
X335238Y6682067D01*
X335238Y6682067D02*
X287619Y6586829D01*
X287619Y6586829D02*
X240000Y6539210D01*
X240000Y6539210D02*
X144762Y6491591D01*
X144762Y6491591D02*
X-188571Y6491591D01*
X811429Y6063020D02*
X859048Y6015400D01*
X859048Y6015400D02*
X811429Y5967781D01*
X811429Y5967781D02*
X763810Y6015400D01*
X763810Y6015400D02*
X811429Y6063020D01*
X811429Y6063020D02*
X811429Y5967781D01*
X1716190Y6015400D02*
X1620952Y5967781D01*
X1620952Y5967781D02*
X1430476Y5967781D01*
X1430476Y5967781D02*
X1335238Y6015400D01*
X1335238Y6015400D02*
X1287619Y6063020D01*
X1287619Y6063020D02*
X1240000Y6158258D01*
X1240000Y6158258D02*
X1240000Y6443972D01*
X1240000Y6443972D02*
X1287619Y6539210D01*
X1287619Y6539210D02*
X1335238Y6586829D01*
X1335238Y6586829D02*
X1430476Y6634448D01*
X1430476Y6634448D02*
X1620952Y6634448D01*
X1620952Y6634448D02*
X1716190Y6586829D01*
X2049524Y6634448D02*
X2573333Y6634448D01*
X2573333Y6634448D02*
X2049524Y5967781D01*
X2049524Y5967781D02*
X2573333Y5967781D01*
X-1974286Y5262543D02*
X-1926667Y5310162D01*
X-1926667Y5310162D02*
X-1831429Y5357781D01*
X-1831429Y5357781D02*
X-1593334Y5357781D01*
X-1593334Y5357781D02*
X-1498096Y5310162D01*
X-1498096Y5310162D02*
X-1450477Y5262543D01*
X-1450477Y5262543D02*
X-1402858Y5167305D01*
X-1402858Y5167305D02*
X-1402858Y5072067D01*
X-1402858Y5072067D02*
X-1450477Y4929210D01*
X-1450477Y4929210D02*
X-2021905Y4357781D01*
X-2021905Y4357781D02*
X-1402858Y4357781D01*
X-783810Y5357781D02*
X-688572Y5357781D01*
X-688572Y5357781D02*
X-593334Y5310162D01*
X-593334Y5310162D02*
X-545715Y5262543D01*
X-545715Y5262543D02*
X-498096Y5167305D01*
X-498096Y5167305D02*
X-450477Y4976829D01*
X-450477Y4976829D02*
X-450477Y4738734D01*
X-450477Y4738734D02*
X-498096Y4548258D01*
X-498096Y4548258D02*
X-545715Y4453020D01*
X-545715Y4453020D02*
X-593334Y4405400D01*
X-593334Y4405400D02*
X-688572Y4357781D01*
X-688572Y4357781D02*
X-783810Y4357781D01*
X-783810Y4357781D02*
X-879048Y4405400D01*
X-879048Y4405400D02*
X-926667Y4453020D01*
X-926667Y4453020D02*
X-974286Y4548258D01*
X-974286Y4548258D02*
X-1021905Y4738734D01*
X-1021905Y4738734D02*
X-1021905Y4976829D01*
X-1021905Y4976829D02*
X-974286Y5167305D01*
X-974286Y5167305D02*
X-926667Y5262543D01*
X-926667Y5262543D02*
X-879048Y5310162D01*
X-879048Y5310162D02*
X-783810Y5357781D01*
X-69524Y5262543D02*
X-21905Y5310162D01*
X-21905Y5310162D02*
X73333Y5357781D01*
X73333Y5357781D02*
X311428Y5357781D01*
X311428Y5357781D02*
X406666Y5310162D01*
X406666Y5310162D02*
X454285Y5262543D01*
X454285Y5262543D02*
X501904Y5167305D01*
X501904Y5167305D02*
X501904Y5072067D01*
X501904Y5072067D02*
X454285Y4929210D01*
X454285Y4929210D02*
X-117143Y4357781D01*
X-117143Y4357781D02*
X501904Y4357781D01*
X835238Y5357781D02*
X1454285Y5357781D01*
X1454285Y5357781D02*
X1120952Y4976829D01*
X1120952Y4976829D02*
X1263809Y4976829D01*
X1263809Y4976829D02*
X1359047Y4929210D01*
X1359047Y4929210D02*
X1406666Y4881591D01*
X1406666Y4881591D02*
X1454285Y4786353D01*
X1454285Y4786353D02*
X1454285Y4548258D01*
X1454285Y4548258D02*
X1406666Y4453020D01*
X1406666Y4453020D02*
X1359047Y4405400D01*
X1359047Y4405400D02*
X1263809Y4357781D01*
X1263809Y4357781D02*
X978095Y4357781D01*
X978095Y4357781D02*
X882857Y4405400D01*
X882857Y4405400D02*
X835238Y4453020D01*
D10*
X4904286Y6711443D02*
X5118572Y5811443D01*
X5118572Y5811443D02*
X5290000Y6454300D01*
X5290000Y6454300D02*
X5461429Y5811443D01*
X5461429Y5811443D02*
X5675715Y6711443D01*
X6018571Y5811443D02*
X6018571Y6711443D01*
X6018571Y6711443D02*
X6361428Y6711443D01*
X6361428Y6711443D02*
X6447143Y6668586D01*
X6447143Y6668586D02*
X6490000Y6625729D01*
X6490000Y6625729D02*
X6532857Y6540015D01*
X6532857Y6540015D02*
X6532857Y6411443D01*
X6532857Y6411443D02*
X6490000Y6325729D01*
X6490000Y6325729D02*
X6447143Y6282872D01*
X6447143Y6282872D02*
X6361428Y6240015D01*
X6361428Y6240015D02*
X6018571Y6240015D01*
X4865715Y6961300D02*
X6614286Y6961300D01*
X5690000Y8597158D02*
X5647143Y8554300D01*
X5647143Y8554300D02*
X5518571Y8511443D01*
X5518571Y8511443D02*
X5432857Y8511443D01*
X5432857Y8511443D02*
X5304286Y8554300D01*
X5304286Y8554300D02*
X5218571Y8640015D01*
X5218571Y8640015D02*
X5175714Y8725729D01*
X5175714Y8725729D02*
X5132857Y8897158D01*
X5132857Y8897158D02*
X5132857Y9025729D01*
X5132857Y9025729D02*
X5175714Y9197158D01*
X5175714Y9197158D02*
X5218571Y9282872D01*
X5218571Y9282872D02*
X5304286Y9368586D01*
X5304286Y9368586D02*
X5432857Y9411443D01*
X5432857Y9411443D02*
X5518571Y9411443D01*
X5518571Y9411443D02*
X5647143Y9368586D01*
X5647143Y9368586D02*
X5690000Y9325729D01*
X6032857Y8554300D02*
X6161429Y8511443D01*
X6161429Y8511443D02*
X6375714Y8511443D01*
X6375714Y8511443D02*
X6461429Y8554300D01*
X6461429Y8554300D02*
X6504286Y8597158D01*
X6504286Y8597158D02*
X6547143Y8682872D01*
X6547143Y8682872D02*
X6547143Y8768586D01*
X6547143Y8768586D02*
X6504286Y8854300D01*
X6504286Y8854300D02*
X6461429Y8897158D01*
X6461429Y8897158D02*
X6375714Y8940015D01*
X6375714Y8940015D02*
X6204286Y8982872D01*
X6204286Y8982872D02*
X6118571Y9025729D01*
X6118571Y9025729D02*
X6075714Y9068586D01*
X6075714Y9068586D02*
X6032857Y9154300D01*
X6032857Y9154300D02*
X6032857Y9240015D01*
X6032857Y9240015D02*
X6075714Y9325729D01*
X6075714Y9325729D02*
X6118571Y9368586D01*
X6118571Y9368586D02*
X6204286Y9411443D01*
X6204286Y9411443D02*
X6418571Y9411443D01*
X6418571Y9411443D02*
X6547143Y9368586D01*
X5051429Y9661300D02*
X6628572Y9661300D01*
X12754286Y6768586D02*
X12668572Y6811443D01*
X12668572Y6811443D02*
X12540000Y6811443D01*
X12540000Y6811443D02*
X12411429Y6768586D01*
X12411429Y6768586D02*
X12325714Y6682872D01*
X12325714Y6682872D02*
X12282857Y6597158D01*
X12282857Y6597158D02*
X12240000Y6425729D01*
X12240000Y6425729D02*
X12240000Y6297158D01*
X12240000Y6297158D02*
X12282857Y6125729D01*
X12282857Y6125729D02*
X12325714Y6040015D01*
X12325714Y6040015D02*
X12411429Y5954300D01*
X12411429Y5954300D02*
X12540000Y5911443D01*
X12540000Y5911443D02*
X12625714Y5911443D01*
X12625714Y5911443D02*
X12754286Y5954300D01*
X12754286Y5954300D02*
X12797143Y5997158D01*
X12797143Y5997158D02*
X12797143Y6297158D01*
X12797143Y6297158D02*
X12625714Y6297158D01*
X13182857Y5911443D02*
X13182857Y6811443D01*
X13182857Y6811443D02*
X13697143Y5911443D01*
X13697143Y5911443D02*
X13697143Y6811443D01*
X14125714Y5911443D02*
X14125714Y6811443D01*
X14125714Y6811443D02*
X14340000Y6811443D01*
X14340000Y6811443D02*
X14468571Y6768586D01*
X14468571Y6768586D02*
X14554286Y6682872D01*
X14554286Y6682872D02*
X14597143Y6597158D01*
X14597143Y6597158D02*
X14640000Y6425729D01*
X14640000Y6425729D02*
X14640000Y6297158D01*
X14640000Y6297158D02*
X14597143Y6125729D01*
X14597143Y6125729D02*
X14554286Y6040015D01*
X14554286Y6040015D02*
X14468571Y5954300D01*
X14468571Y5954300D02*
X14340000Y5911443D01*
X14340000Y5911443D02*
X14125714Y5911443D01*
X-2660000Y9837943D02*
X-3174286Y9837943D01*
X-2917143Y9837943D02*
X-2917143Y10737943D01*
X-2917143Y10737943D02*
X-3002857Y10609372D01*
X-3002857Y10609372D02*
X-3088572Y10523658D01*
X-3088572Y10523658D02*
X-3174286Y10480800D01*
X-2274286Y9923658D02*
X-2231429Y9880800D01*
X-2231429Y9880800D02*
X-2274286Y9837943D01*
X-2274286Y9837943D02*
X-2317143Y9880800D01*
X-2317143Y9880800D02*
X-2274286Y9923658D01*
X-2274286Y9923658D02*
X-2274286Y9837943D01*
X-1717143Y10352229D02*
X-1802858Y10395086D01*
X-1802858Y10395086D02*
X-1845715Y10437943D01*
X-1845715Y10437943D02*
X-1888572Y10523658D01*
X-1888572Y10523658D02*
X-1888572Y10566515D01*
X-1888572Y10566515D02*
X-1845715Y10652229D01*
X-1845715Y10652229D02*
X-1802858Y10695086D01*
X-1802858Y10695086D02*
X-1717143Y10737943D01*
X-1717143Y10737943D02*
X-1545715Y10737943D01*
X-1545715Y10737943D02*
X-1460000Y10695086D01*
X-1460000Y10695086D02*
X-1417143Y10652229D01*
X-1417143Y10652229D02*
X-1374286Y10566515D01*
X-1374286Y10566515D02*
X-1374286Y10523658D01*
X-1374286Y10523658D02*
X-1417143Y10437943D01*
X-1417143Y10437943D02*
X-1460000Y10395086D01*
X-1460000Y10395086D02*
X-1545715Y10352229D01*
X-1545715Y10352229D02*
X-1717143Y10352229D01*
X-1717143Y10352229D02*
X-1802858Y10309372D01*
X-1802858Y10309372D02*
X-1845715Y10266515D01*
X-1845715Y10266515D02*
X-1888572Y10180800D01*
X-1888572Y10180800D02*
X-1888572Y10009372D01*
X-1888572Y10009372D02*
X-1845715Y9923658D01*
X-1845715Y9923658D02*
X-1802858Y9880800D01*
X-1802858Y9880800D02*
X-1717143Y9837943D01*
X-1717143Y9837943D02*
X-1545715Y9837943D01*
X-1545715Y9837943D02*
X-1460000Y9880800D01*
X-1460000Y9880800D02*
X-1417143Y9923658D01*
X-1417143Y9923658D02*
X-1374286Y10009372D01*
X-1374286Y10009372D02*
X-1374286Y10180800D01*
X-1374286Y10180800D02*
X-1417143Y10266515D01*
X-1417143Y10266515D02*
X-1460000Y10309372D01*
X-1460000Y10309372D02*
X-1545715Y10352229D01*
X-988572Y10180800D02*
X-302857Y10180800D01*
X40000Y10737943D02*
X597143Y10737943D01*
X597143Y10737943D02*
X297143Y10395086D01*
X297143Y10395086D02*
X425714Y10395086D01*
X425714Y10395086D02*
X511429Y10352229D01*
X511429Y10352229D02*
X554286Y10309372D01*
X554286Y10309372D02*
X597143Y10223658D01*
X597143Y10223658D02*
X597143Y10009372D01*
X597143Y10009372D02*
X554286Y9923658D01*
X554286Y9923658D02*
X511429Y9880800D01*
X511429Y9880800D02*
X425714Y9837943D01*
X425714Y9837943D02*
X168571Y9837943D01*
X168571Y9837943D02*
X82857Y9880800D01*
X82857Y9880800D02*
X40000Y9923658D01*
X982857Y9923658D02*
X1025714Y9880800D01*
X1025714Y9880800D02*
X982857Y9837943D01*
X982857Y9837943D02*
X940000Y9880800D01*
X940000Y9880800D02*
X982857Y9923658D01*
X982857Y9923658D02*
X982857Y9837943D01*
X1325714Y10737943D02*
X1882857Y10737943D01*
X1882857Y10737943D02*
X1582857Y10395086D01*
X1582857Y10395086D02*
X1711428Y10395086D01*
X1711428Y10395086D02*
X1797143Y10352229D01*
X1797143Y10352229D02*
X1840000Y10309372D01*
X1840000Y10309372D02*
X1882857Y10223658D01*
X1882857Y10223658D02*
X1882857Y10009372D01*
X1882857Y10009372D02*
X1840000Y9923658D01*
X1840000Y9923658D02*
X1797143Y9880800D01*
X1797143Y9880800D02*
X1711428Y9837943D01*
X1711428Y9837943D02*
X1454285Y9837943D01*
X1454285Y9837943D02*
X1368571Y9880800D01*
X1368571Y9880800D02*
X1325714Y9923658D01*
X2140000Y10737943D02*
X2440000Y9837943D01*
X2440000Y9837943D02*
X2740000Y10737943D01*
X13648557Y10015715D02*
X12748557Y10015715D01*
X12748557Y10015715D02*
X13391414Y10315715D01*
X13391414Y10315715D02*
X12748557Y10615715D01*
X12748557Y10615715D02*
X13648557Y10615715D01*
X12748557Y11215715D02*
X12748557Y11387143D01*
X12748557Y11387143D02*
X12791414Y11472858D01*
X12791414Y11472858D02*
X12877128Y11558572D01*
X12877128Y11558572D02*
X13048557Y11601429D01*
X13048557Y11601429D02*
X13348557Y11601429D01*
X13348557Y11601429D02*
X13519985Y11558572D01*
X13519985Y11558572D02*
X13605700Y11472858D01*
X13605700Y11472858D02*
X13648557Y11387143D01*
X13648557Y11387143D02*
X13648557Y11215715D01*
X13648557Y11215715D02*
X13605700Y11130000D01*
X13605700Y11130000D02*
X13519985Y11044286D01*
X13519985Y11044286D02*
X13348557Y11001429D01*
X13348557Y11001429D02*
X13048557Y11001429D01*
X13048557Y11001429D02*
X12877128Y11044286D01*
X12877128Y11044286D02*
X12791414Y11130000D01*
X12791414Y11130000D02*
X12748557Y11215715D01*
X13605700Y11944286D02*
X13648557Y12072857D01*
X13648557Y12072857D02*
X13648557Y12287143D01*
X13648557Y12287143D02*
X13605700Y12372857D01*
X13605700Y12372857D02*
X13562842Y12415715D01*
X13562842Y12415715D02*
X13477128Y12458572D01*
X13477128Y12458572D02*
X13391414Y12458572D01*
X13391414Y12458572D02*
X13305700Y12415715D01*
X13305700Y12415715D02*
X13262842Y12372857D01*
X13262842Y12372857D02*
X13219985Y12287143D01*
X13219985Y12287143D02*
X13177128Y12115715D01*
X13177128Y12115715D02*
X13134271Y12030000D01*
X13134271Y12030000D02*
X13091414Y11987143D01*
X13091414Y11987143D02*
X13005700Y11944286D01*
X13005700Y11944286D02*
X12919985Y11944286D01*
X12919985Y11944286D02*
X12834271Y11987143D01*
X12834271Y11987143D02*
X12791414Y12030000D01*
X12791414Y12030000D02*
X12748557Y12115715D01*
X12748557Y12115715D02*
X12748557Y12330000D01*
X12748557Y12330000D02*
X12791414Y12458572D01*
X13648557Y12844286D02*
X12748557Y12844286D01*
X4282857Y11054300D02*
X4411429Y11011443D01*
X4411429Y11011443D02*
X4625714Y11011443D01*
X4625714Y11011443D02*
X4711429Y11054300D01*
X4711429Y11054300D02*
X4754286Y11097158D01*
X4754286Y11097158D02*
X4797143Y11182872D01*
X4797143Y11182872D02*
X4797143Y11268586D01*
X4797143Y11268586D02*
X4754286Y11354300D01*
X4754286Y11354300D02*
X4711429Y11397158D01*
X4711429Y11397158D02*
X4625714Y11440015D01*
X4625714Y11440015D02*
X4454286Y11482872D01*
X4454286Y11482872D02*
X4368571Y11525729D01*
X4368571Y11525729D02*
X4325714Y11568586D01*
X4325714Y11568586D02*
X4282857Y11654300D01*
X4282857Y11654300D02*
X4282857Y11740015D01*
X4282857Y11740015D02*
X4325714Y11825729D01*
X4325714Y11825729D02*
X4368571Y11868586D01*
X4368571Y11868586D02*
X4454286Y11911443D01*
X4454286Y11911443D02*
X4668571Y11911443D01*
X4668571Y11911443D02*
X4797143Y11868586D01*
X5697143Y11097158D02*
X5654286Y11054300D01*
X5654286Y11054300D02*
X5525714Y11011443D01*
X5525714Y11011443D02*
X5440000Y11011443D01*
X5440000Y11011443D02*
X5311429Y11054300D01*
X5311429Y11054300D02*
X5225714Y11140015D01*
X5225714Y11140015D02*
X5182857Y11225729D01*
X5182857Y11225729D02*
X5140000Y11397158D01*
X5140000Y11397158D02*
X5140000Y11525729D01*
X5140000Y11525729D02*
X5182857Y11697158D01*
X5182857Y11697158D02*
X5225714Y11782872D01*
X5225714Y11782872D02*
X5311429Y11868586D01*
X5311429Y11868586D02*
X5440000Y11911443D01*
X5440000Y11911443D02*
X5525714Y11911443D01*
X5525714Y11911443D02*
X5654286Y11868586D01*
X5654286Y11868586D02*
X5697143Y11825729D01*
X6082857Y11011443D02*
X6082857Y11911443D01*
X6597143Y11011443D02*
X6211429Y11525729D01*
X6597143Y11911443D02*
X6082857Y11397158D01*
D12*
%TO.C,J1*%
X3616000Y16216000D02*
X3616000Y14886000D01*
X2286000Y16216000D02*
X3616000Y16216000D01*
X1016000Y16216000D02*
X-4124000Y16216000D01*
X1016000Y16216000D02*
X1016000Y13616000D01*
X-4124000Y16216000D02*
X-4124000Y11016000D01*
X3616000Y13616000D02*
X3616000Y11016000D01*
X1016000Y13616000D02*
X3616000Y13616000D01*
X3616000Y11016000D02*
X-4124000Y11016000D01*
%TO.C,J2*%
X6798000Y15300000D02*
X8128000Y15300000D01*
X6798000Y13970000D02*
X6798000Y15300000D01*
X6798000Y12700000D02*
X6798000Y5020000D01*
X6798000Y12700000D02*
X9398000Y12700000D01*
X6798000Y5020000D02*
X11998000Y5020000D01*
X9398000Y15300000D02*
X11998000Y15300000D01*
X9398000Y12700000D02*
X9398000Y15300000D01*
X11998000Y15300000D02*
X11998000Y5020000D01*
%TD*%
M02*
