%TF.GenerationSoftware,KiCad,Pcbnew,6.0.11+dfsg-1~bpo11+1*%
%TF.CreationDate,2023-07-05T12:33:23+00:00*%
%TF.ProjectId,FRAM01,4652414d-3031-42e6-9b69-6361645f7063,rev?*%
%TF.SameCoordinates,Original*%
%TF.FileFunction,Legend,Bot*%
%TF.FilePolarity,Positive*%
%FSLAX46Y46*%
G04 Gerber Fmt 4.6, Leading zero omitted, Abs format (unit mm)*
G04 Created by KiCad (PCBNEW 6.0.11+dfsg-1~bpo11+1) date 2023-07-05 12:33:23*
%MOMM*%
%LPD*%
G01*
G04 APERTURE LIST*
%ADD10C,0.254000*%
%ADD11C,0.150000*%
%ADD12C,0.200000*%
%ADD13C,0.120000*%
G04 APERTURE END LIST*
D10*
%TO.C,IC1*%
X140177761Y-87442523D02*
X140177761Y-86172523D01*
X138847285Y-87321571D02*
X138907761Y-87382047D01*
X139089190Y-87442523D01*
X139210142Y-87442523D01*
X139391571Y-87382047D01*
X139512523Y-87261095D01*
X139573000Y-87140142D01*
X139633476Y-86898238D01*
X139633476Y-86716809D01*
X139573000Y-86474904D01*
X139512523Y-86353952D01*
X139391571Y-86233000D01*
X139210142Y-86172523D01*
X139089190Y-86172523D01*
X138907761Y-86233000D01*
X138847285Y-86293476D01*
X137637761Y-87442523D02*
X138363476Y-87442523D01*
X138000619Y-87442523D02*
X138000619Y-86172523D01*
X138121571Y-86353952D01*
X138242523Y-86474904D01*
X138363476Y-86535380D01*
D11*
%TO.C,D1*%
X143232095Y-82494380D02*
X143232095Y-81494380D01*
X142994000Y-81494380D01*
X142851142Y-81542000D01*
X142755904Y-81637238D01*
X142708285Y-81732476D01*
X142660666Y-81922952D01*
X142660666Y-82065809D01*
X142708285Y-82256285D01*
X142755904Y-82351523D01*
X142851142Y-82446761D01*
X142994000Y-82494380D01*
X143232095Y-82494380D01*
X141708285Y-82494380D02*
X142279714Y-82494380D01*
X141994000Y-82494380D02*
X141994000Y-81494380D01*
X142089238Y-81637238D01*
X142184476Y-81732476D01*
X142279714Y-81780095D01*
%TO.C,C1*%
X145200666Y-93321142D02*
X145248285Y-93368761D01*
X145391142Y-93416380D01*
X145486380Y-93416380D01*
X145629238Y-93368761D01*
X145724476Y-93273523D01*
X145772095Y-93178285D01*
X145819714Y-92987809D01*
X145819714Y-92844952D01*
X145772095Y-92654476D01*
X145724476Y-92559238D01*
X145629238Y-92464000D01*
X145486380Y-92416380D01*
X145391142Y-92416380D01*
X145248285Y-92464000D01*
X145200666Y-92511619D01*
X144248285Y-93416380D02*
X144819714Y-93416380D01*
X144534000Y-93416380D02*
X144534000Y-92416380D01*
X144629238Y-92559238D01*
X144724476Y-92654476D01*
X144819714Y-92702095D01*
%TO.C,C2*%
X143676666Y-91289142D02*
X143724285Y-91336761D01*
X143867142Y-91384380D01*
X143962380Y-91384380D01*
X144105238Y-91336761D01*
X144200476Y-91241523D01*
X144248095Y-91146285D01*
X144295714Y-90955809D01*
X144295714Y-90812952D01*
X144248095Y-90622476D01*
X144200476Y-90527238D01*
X144105238Y-90432000D01*
X143962380Y-90384380D01*
X143867142Y-90384380D01*
X143724285Y-90432000D01*
X143676666Y-90479619D01*
X143295714Y-90479619D02*
X143248095Y-90432000D01*
X143152857Y-90384380D01*
X142914761Y-90384380D01*
X142819523Y-90432000D01*
X142771904Y-90479619D01*
X142724285Y-90574857D01*
X142724285Y-90670095D01*
X142771904Y-90812952D01*
X143343333Y-91384380D01*
X142724285Y-91384380D01*
D12*
%TO.C,IC1*%
X141438000Y-84253000D02*
X136438000Y-84253000D01*
X141438000Y-89483000D02*
X141438000Y-84253000D01*
X134438000Y-89448000D02*
X136088000Y-89448000D01*
X136438000Y-84253000D02*
X136438000Y-89483000D01*
X136438000Y-89483000D02*
X141438000Y-89483000D01*
D13*
%TO.C,D1*%
X141322000Y-80392000D02*
X135922000Y-80392000D01*
X141322000Y-83692000D02*
X135922000Y-83692000D01*
X141322000Y-80392000D02*
X141322000Y-83692000D01*
%TO.C,C1*%
X142501252Y-92229000D02*
X141978748Y-92229000D01*
X142501252Y-93699000D02*
X141978748Y-93699000D01*
%TO.C,C2*%
X141043252Y-91667000D02*
X140520748Y-91667000D01*
X141043252Y-90197000D02*
X140520748Y-90197000D01*
%TD*%
M02*
