%TF.GenerationSoftware,KiCad,Pcbnew,7.0.7-7.0.7~ubuntu23.04.1*%
%TF.CreationDate,2023-09-20T18:51:27+00:00*%
%TF.ProjectId,FRAM01,4652414d-3031-42e6-9b69-6361645f7063,rev?*%
%TF.SameCoordinates,Original*%
%TF.FileFunction,Copper,L1,Top*%
%TF.FilePolarity,Positive*%
%FSLAX46Y46*%
G04 Gerber Fmt 4.6, Leading zero omitted, Abs format (unit mm)*
G04 Created by KiCad (PCBNEW 7.0.7-7.0.7~ubuntu23.04.1) date 2023-09-20 18:51:27*
%MOMM*%
%LPD*%
G01*
G04 APERTURE LIST*
%TA.AperFunction,ComponentPad*%
%ADD10R,1.700000X1.700000*%
%TD*%
%TA.AperFunction,ComponentPad*%
%ADD11O,1.700000X1.700000*%
%TD*%
%TA.AperFunction,ComponentPad*%
%ADD12C,6.000000*%
%TD*%
%TA.AperFunction,ViaPad*%
%ADD13C,0.800000*%
%TD*%
%TA.AperFunction,Conductor*%
%ADD14C,0.304800*%
%TD*%
%TA.AperFunction,Conductor*%
%ADD15C,0.400000*%
%TD*%
%TA.AperFunction,Conductor*%
%ADD16C,0.250000*%
%TD*%
G04 APERTURE END LIST*
D10*
%TO.P,J1,1*%
%TO.N,GND*%
X2286000Y14886000D03*
D11*
%TO.P,J1,2*%
X2286000Y12346000D03*
%TO.P,J1,3*%
%TO.N,+3.3V*%
X-254000Y14886000D03*
%TO.P,J1,4*%
X-254000Y12346000D03*
%TO.P,J1,5*%
%TO.N,GND*%
X-2794000Y14886000D03*
%TO.P,J1,6*%
X-2794000Y12346000D03*
%TD*%
D12*
%TO.P,M4,1*%
%TO.N,GND*%
X10160000Y0D03*
%TD*%
%TO.P,M1,1*%
%TO.N,GND*%
X0Y20320000D03*
%TD*%
%TO.P,M3,1*%
%TO.N,GND*%
X10160000Y20320000D03*
%TD*%
D10*
%TO.P,J2,1*%
%TO.N,MISO*%
X8128000Y13970000D03*
D11*
%TO.P,J2,2*%
%TO.N,+3.3V*%
X10668000Y13970000D03*
%TO.P,J2,3*%
%TO.N,SCK*%
X8128000Y11430000D03*
%TO.P,J2,4*%
%TO.N,MOSI*%
X10668000Y11430000D03*
%TO.P,J2,5*%
%TO.N,~{CS}*%
X8128000Y8890000D03*
%TO.P,J2,6*%
%TO.N,GND*%
X10668000Y8890000D03*
%TO.P,J2,7*%
%TO.N,~{WP}*%
X8128000Y6350000D03*
%TO.P,J2,8*%
%TO.N,GND*%
X10668000Y6350000D03*
%TD*%
D12*
%TO.P,M2,1*%
%TO.N,GND*%
X0Y0D03*
%TD*%
D13*
%TO.N,GND*%
X-1016000Y10160000D03*
%TO.N,~{CS}*%
X2440000Y7101900D03*
%TO.N,~{WP}*%
X-3810000Y8890000D03*
%TD*%
D14*
%TO.N,~{CS}*%
X4228100Y8890000D02*
X8240000Y8890000D01*
X2440000Y7101900D02*
X4228100Y8890000D01*
%TO.N,~{WP}*%
X-3810000Y8890000D02*
X-1524000Y8890000D01*
X7510000Y5620000D02*
X8240000Y6350000D01*
X1746000Y5620000D02*
X7510000Y5620000D01*
X-1524000Y8890000D02*
X1746000Y5620000D01*
D15*
%TO.N,+3.3V*%
X10668000Y13970000D02*
X8402000Y16236000D01*
D16*
X0Y12700000D02*
X0Y15240000D01*
D15*
X8402000Y16236000D02*
X996000Y16236000D01*
X996000Y16236000D02*
X0Y15240000D01*
%TD*%
%TA.AperFunction,Conductor*%
%TO.N,GND*%
G36*
X14944691Y25126593D02*
G01*
X14980655Y25077093D01*
X14985500Y25046500D01*
X14985500Y-4726500D01*
X14966593Y-4784691D01*
X14917093Y-4820655D01*
X14886500Y-4825500D01*
X-4726500Y-4825500D01*
X-4784691Y-4806593D01*
X-4820655Y-4757093D01*
X-4825500Y-4726500D01*
X-4825500Y8890000D01*
X-4515645Y8890000D01*
X-4495140Y8721128D01*
X-4434818Y8562070D01*
X-4348238Y8436638D01*
X-4338184Y8422073D01*
X-4338182Y8422070D01*
X-4301982Y8390000D01*
X-4210852Y8309266D01*
X-4060225Y8230210D01*
X-3895056Y8189500D01*
X-3895053Y8189500D01*
X-3724947Y8189500D01*
X-3724944Y8189500D01*
X-3559775Y8230210D01*
X-3409148Y8309266D01*
X-3292956Y8412204D01*
X-3236862Y8436638D01*
X-3227307Y8437100D01*
X-1752606Y8437100D01*
X-1694415Y8418193D01*
X-1682602Y8408104D01*
X1405808Y5319693D01*
X1409510Y5315550D01*
X1434467Y5284253D01*
X1483860Y5250578D01*
X1531221Y5215623D01*
X1531983Y5215061D01*
X1531985Y5215061D01*
X1538543Y5211594D01*
X1538338Y5211208D01*
X1540399Y5210168D01*
X1540589Y5210561D01*
X1547271Y5207343D01*
X1547273Y5207343D01*
X1547274Y5207342D01*
X1604392Y5189724D01*
X1650987Y5173419D01*
X1660849Y5169968D01*
X1668140Y5168588D01*
X1668059Y5168161D01*
X1670331Y5167775D01*
X1670397Y5168206D01*
X1677736Y5167100D01*
X1737527Y5167100D01*
X1797281Y5164865D01*
X1797288Y5164867D01*
X1804655Y5165696D01*
X1804703Y5165264D01*
X1818657Y5167100D01*
X7481782Y5167100D01*
X7487328Y5166789D01*
X7527125Y5162305D01*
X7585862Y5173419D01*
X7645003Y5182332D01*
X7645007Y5182335D01*
X7652099Y5184521D01*
X7652228Y5184102D01*
X7654413Y5184821D01*
X7654268Y5185235D01*
X7661266Y5187685D01*
X7661273Y5187686D01*
X7705777Y5211208D01*
X7714129Y5215622D01*
X7728661Y5222621D01*
X7746689Y5231303D01*
X7807319Y5239516D01*
X7807835Y5239421D01*
X7811799Y5238680D01*
X7811802Y5238679D01*
X8021390Y5199500D01*
X8234610Y5199500D01*
X8444198Y5238679D01*
X8643019Y5315702D01*
X8824302Y5427948D01*
X8981872Y5571593D01*
X9110366Y5741745D01*
X9205405Y5932611D01*
X9251894Y6096000D01*
X9544627Y6096000D01*
X9591064Y5932790D01*
X9686057Y5742017D01*
X9686062Y5742008D01*
X9814496Y5571936D01*
X9814506Y5571925D01*
X9971995Y5428353D01*
X9971994Y5428353D01*
X10153206Y5316153D01*
X10351941Y5239162D01*
X10413999Y5227561D01*
X10414000Y5227561D01*
X10414000Y5767126D01*
X10432907Y5825317D01*
X10482407Y5861281D01*
X10527090Y5865118D01*
X10632233Y5850000D01*
X10632237Y5850000D01*
X10703767Y5850000D01*
X10808910Y5865118D01*
X10869199Y5854685D01*
X10911842Y5810808D01*
X10922000Y5767126D01*
X10922000Y5227561D01*
X10984058Y5239162D01*
X11182793Y5316153D01*
X11364004Y5428353D01*
X11521493Y5571925D01*
X11521503Y5571936D01*
X11649937Y5742008D01*
X11649942Y5742017D01*
X11744935Y5932790D01*
X11791373Y6096000D01*
X11246776Y6096000D01*
X11188585Y6114907D01*
X11152621Y6164407D01*
X11151786Y6222892D01*
X11168000Y6278111D01*
X11168000Y6421889D01*
X11151786Y6477110D01*
X11153533Y6538268D01*
X11190896Y6586721D01*
X11246776Y6604000D01*
X11791373Y6604000D01*
X11744935Y6767211D01*
X11649942Y6957984D01*
X11649937Y6957993D01*
X11521503Y7128065D01*
X11521493Y7128076D01*
X11364004Y7271648D01*
X11364005Y7271648D01*
X11182793Y7383848D01*
X10984061Y7460838D01*
X10984055Y7460840D01*
X10922000Y7472440D01*
X10922000Y6932875D01*
X10903093Y6874684D01*
X10853593Y6838720D01*
X10808911Y6834883D01*
X10703768Y6850000D01*
X10703763Y6850000D01*
X10632237Y6850000D01*
X10632232Y6850000D01*
X10527089Y6834883D01*
X10466800Y6845316D01*
X10424157Y6889194D01*
X10414000Y6932875D01*
X10414000Y7472440D01*
X10351944Y7460840D01*
X10351938Y7460838D01*
X10153206Y7383848D01*
X9971995Y7271648D01*
X9814506Y7128076D01*
X9814496Y7128065D01*
X9686062Y6957993D01*
X9686057Y6957984D01*
X9591064Y6767211D01*
X9544627Y6604000D01*
X10089224Y6604000D01*
X10147415Y6585093D01*
X10183379Y6535593D01*
X10184214Y6477108D01*
X10168000Y6421891D01*
X10168000Y6278110D01*
X10184214Y6222892D01*
X10182467Y6161732D01*
X10145104Y6113279D01*
X10089224Y6096000D01*
X9544627Y6096000D01*
X9251894Y6096000D01*
X9263756Y6137690D01*
X9283429Y6350000D01*
X9263756Y6562310D01*
X9205405Y6767389D01*
X9110366Y6958255D01*
X8981872Y7128407D01*
X8909834Y7194079D01*
X8824307Y7272048D01*
X8824300Y7272054D01*
X8643024Y7384295D01*
X8643019Y7384298D01*
X8525486Y7429830D01*
X8444198Y7461321D01*
X8444197Y7461322D01*
X8444195Y7461322D01*
X8234610Y7500500D01*
X8021390Y7500500D01*
X7811804Y7461322D01*
X7612980Y7384298D01*
X7612975Y7384295D01*
X7431699Y7272054D01*
X7431692Y7272048D01*
X7274135Y7128414D01*
X7274131Y7128411D01*
X7274128Y7128407D01*
X7274124Y7128403D01*
X7274125Y7128403D01*
X7145635Y6958257D01*
X7145630Y6958248D01*
X7050596Y6767392D01*
X6992244Y6562312D01*
X6979232Y6421889D01*
X6972571Y6350000D01*
X6979232Y6278110D01*
X6988228Y6181034D01*
X6974770Y6121347D01*
X6928800Y6080970D01*
X6889650Y6072900D01*
X1974605Y6072900D01*
X1916414Y6091807D01*
X1904601Y6101896D01*
X904597Y7101900D01*
X1734355Y7101900D01*
X1754860Y6933028D01*
X1815182Y6773970D01*
X1911817Y6633971D01*
X2039148Y6521166D01*
X2189775Y6442110D01*
X2354944Y6401400D01*
X2354947Y6401400D01*
X2525053Y6401400D01*
X2525056Y6401400D01*
X2690225Y6442110D01*
X2840852Y6521166D01*
X2968183Y6633971D01*
X3064818Y6773970D01*
X3125140Y6933028D01*
X3145645Y7101900D01*
X3144401Y7112141D01*
X3156154Y7172184D01*
X3172671Y7194075D01*
X4386701Y8408104D01*
X4441219Y8435881D01*
X4456706Y8437100D01*
X7006979Y8437100D01*
X7065170Y8418193D01*
X7095600Y8382228D01*
X7145630Y8281752D01*
X7145632Y8281748D01*
X7145634Y8281745D01*
X7274128Y8111593D01*
X7274135Y8111587D01*
X7431692Y7967953D01*
X7431699Y7967947D01*
X7535389Y7903745D01*
X7612981Y7855702D01*
X7811802Y7778679D01*
X8021390Y7739500D01*
X8234610Y7739500D01*
X8444198Y7778679D01*
X8643019Y7855702D01*
X8824302Y7967948D01*
X8981872Y8111593D01*
X9110366Y8281745D01*
X9205405Y8472611D01*
X9251894Y8636000D01*
X9544627Y8636000D01*
X9591064Y8472790D01*
X9686057Y8282017D01*
X9686062Y8282008D01*
X9814496Y8111936D01*
X9814506Y8111925D01*
X9971995Y7968353D01*
X9971994Y7968353D01*
X10153206Y7856153D01*
X10351941Y7779162D01*
X10413999Y7767561D01*
X10414000Y7767561D01*
X10414000Y8307126D01*
X10432907Y8365317D01*
X10482407Y8401281D01*
X10527090Y8405118D01*
X10632233Y8390000D01*
X10632237Y8390000D01*
X10703767Y8390000D01*
X10808910Y8405118D01*
X10869199Y8394685D01*
X10911842Y8350808D01*
X10922000Y8307126D01*
X10922000Y7767561D01*
X10984058Y7779162D01*
X11182793Y7856153D01*
X11364004Y7968353D01*
X11521493Y8111925D01*
X11521503Y8111936D01*
X11649937Y8282008D01*
X11649942Y8282017D01*
X11744935Y8472790D01*
X11791373Y8636000D01*
X11246776Y8636000D01*
X11188585Y8654907D01*
X11152621Y8704407D01*
X11151786Y8762892D01*
X11168000Y8818111D01*
X11168000Y8961889D01*
X11151786Y9017110D01*
X11153533Y9078268D01*
X11190896Y9126721D01*
X11246776Y9144000D01*
X11791373Y9144000D01*
X11744935Y9307211D01*
X11649942Y9497984D01*
X11649937Y9497993D01*
X11521503Y9668065D01*
X11521493Y9668076D01*
X11364004Y9811648D01*
X11364005Y9811648D01*
X11182793Y9923848D01*
X10984061Y10000838D01*
X10984055Y10000840D01*
X10922000Y10012440D01*
X10922000Y9472875D01*
X10903093Y9414684D01*
X10853593Y9378720D01*
X10808911Y9374883D01*
X10703768Y9390000D01*
X10703763Y9390000D01*
X10632237Y9390000D01*
X10632232Y9390000D01*
X10527089Y9374883D01*
X10466800Y9385316D01*
X10424157Y9429194D01*
X10414000Y9472875D01*
X10414000Y10012440D01*
X10351944Y10000840D01*
X10351938Y10000838D01*
X10153206Y9923848D01*
X9971995Y9811648D01*
X9814506Y9668076D01*
X9814496Y9668065D01*
X9686062Y9497993D01*
X9686057Y9497984D01*
X9591064Y9307211D01*
X9544627Y9144000D01*
X10089224Y9144000D01*
X10147415Y9125093D01*
X10183379Y9075593D01*
X10184214Y9017108D01*
X10168000Y8961891D01*
X10168000Y8818110D01*
X10184214Y8762892D01*
X10182467Y8701732D01*
X10145104Y8653279D01*
X10089224Y8636000D01*
X9544627Y8636000D01*
X9251894Y8636000D01*
X9263756Y8677690D01*
X9283429Y8890000D01*
X9263756Y9102310D01*
X9205405Y9307389D01*
X9110366Y9498255D01*
X8981872Y9668407D01*
X8927623Y9717861D01*
X8824307Y9812048D01*
X8824300Y9812054D01*
X8643024Y9924295D01*
X8643019Y9924298D01*
X8643019Y9924299D01*
X8444198Y10001321D01*
X8444197Y10001322D01*
X8444195Y10001322D01*
X8234610Y10040500D01*
X8021390Y10040500D01*
X7811804Y10001322D01*
X7612980Y9924298D01*
X7612975Y9924295D01*
X7431699Y9812054D01*
X7431692Y9812048D01*
X7274135Y9668414D01*
X7274131Y9668411D01*
X7274128Y9668407D01*
X7274124Y9668403D01*
X7274125Y9668403D01*
X7145635Y9498257D01*
X7145630Y9498249D01*
X7095600Y9397772D01*
X7052738Y9354110D01*
X7006979Y9342900D01*
X4256317Y9342900D01*
X4250771Y9343211D01*
X4210974Y9347695D01*
X4210970Y9347695D01*
X4152234Y9336582D01*
X4093098Y9327669D01*
X4086013Y9325483D01*
X4085885Y9325897D01*
X4083683Y9325173D01*
X4083827Y9324764D01*
X4076827Y9322315D01*
X4023978Y9294383D01*
X3970092Y9268433D01*
X3963960Y9264252D01*
X3963717Y9264608D01*
X3961830Y9263269D01*
X3962087Y9262921D01*
X3956119Y9258517D01*
X3913851Y9216250D01*
X3870008Y9175568D01*
X3865381Y9169766D01*
X3865042Y9170037D01*
X3856476Y9158875D01*
X2528999Y7831396D01*
X2474482Y7803619D01*
X2458995Y7802400D01*
X2354941Y7802400D01*
X2189776Y7761691D01*
X2039146Y7682633D01*
X1911818Y7569831D01*
X1911816Y7569828D01*
X1836919Y7461321D01*
X1815182Y7429830D01*
X1755193Y7271648D01*
X1754860Y7270771D01*
X1737574Y7128407D01*
X1734355Y7101900D01*
X904597Y7101900D01*
X-1183801Y9190299D01*
X-1187503Y9194441D01*
X-1212471Y9225750D01*
X-1261867Y9259427D01*
X-1309986Y9294942D01*
X-1316545Y9298408D01*
X-1316342Y9298793D01*
X-1318404Y9299834D01*
X-1318593Y9299440D01*
X-1325276Y9302659D01*
X-1382386Y9320275D01*
X-1438848Y9340032D01*
X-1446134Y9341410D01*
X-1446054Y9341836D01*
X-1448337Y9342224D01*
X-1448401Y9341795D01*
X-1455735Y9342900D01*
X-1455736Y9342900D01*
X-1515512Y9342900D01*
X-1575282Y9345136D01*
X-1575283Y9345136D01*
X-1582656Y9344305D01*
X-1582705Y9344738D01*
X-1596661Y9342900D01*
X-3227307Y9342900D01*
X-3285498Y9361807D01*
X-3292956Y9367797D01*
X-3305286Y9378720D01*
X-3409148Y9470734D01*
X-3559775Y9549790D01*
X-3559776Y9549791D01*
X-3559777Y9549791D01*
X-3724942Y9590500D01*
X-3724944Y9590500D01*
X-3895056Y9590500D01*
X-3895059Y9590500D01*
X-4060224Y9549791D01*
X-4210854Y9470733D01*
X-4338182Y9357931D01*
X-4338184Y9357928D01*
X-4406802Y9258518D01*
X-4434818Y9217930D01*
X-4495140Y9058872D01*
X-4515645Y8890000D01*
X-4825500Y8890000D01*
X-4825500Y12092000D01*
X-3917373Y12092000D01*
X-3870936Y11928790D01*
X-3775943Y11738017D01*
X-3775938Y11738008D01*
X-3647504Y11567936D01*
X-3647494Y11567925D01*
X-3490005Y11424353D01*
X-3490006Y11424353D01*
X-3308794Y11312153D01*
X-3110059Y11235162D01*
X-3048001Y11223561D01*
X-3048000Y11223561D01*
X-3048000Y11763126D01*
X-3029093Y11821317D01*
X-2979593Y11857281D01*
X-2934910Y11861118D01*
X-2829767Y11846000D01*
X-2829763Y11846000D01*
X-2758233Y11846000D01*
X-2653090Y11861118D01*
X-2592801Y11850685D01*
X-2550158Y11806808D01*
X-2540000Y11763126D01*
X-2540000Y11223561D01*
X-2477942Y11235162D01*
X-2279207Y11312153D01*
X-2097996Y11424353D01*
X-1940507Y11567925D01*
X-1940497Y11567936D01*
X-1812063Y11738008D01*
X-1812058Y11738017D01*
X-1717065Y11928790D01*
X-1670627Y12092000D01*
X-2215224Y12092000D01*
X-2273415Y12110907D01*
X-2309379Y12160407D01*
X-2310214Y12218892D01*
X-2294000Y12274111D01*
X-2294000Y12346000D01*
X-1409429Y12346000D01*
X-1389756Y12133689D01*
X-1377894Y12092000D01*
X-1331405Y11928611D01*
X-1236366Y11737745D01*
X-1107872Y11567593D01*
X-1107865Y11567587D01*
X-950308Y11423953D01*
X-950301Y11423947D01*
X-846611Y11359745D01*
X-769019Y11311702D01*
X-570198Y11234679D01*
X-360610Y11195500D01*
X-147390Y11195500D01*
X62198Y11234679D01*
X261019Y11311702D01*
X442302Y11423948D01*
X599872Y11567593D01*
X728366Y11737745D01*
X823405Y11928611D01*
X869894Y12092000D01*
X1162627Y12092000D01*
X1209064Y11928790D01*
X1304057Y11738017D01*
X1304062Y11738008D01*
X1432496Y11567936D01*
X1432506Y11567925D01*
X1589995Y11424353D01*
X1589994Y11424353D01*
X1771206Y11312153D01*
X1969941Y11235162D01*
X2031999Y11223561D01*
X2032000Y11223561D01*
X2032000Y11763126D01*
X2050907Y11821317D01*
X2100407Y11857281D01*
X2145090Y11861118D01*
X2250233Y11846000D01*
X2250237Y11846000D01*
X2321767Y11846000D01*
X2426910Y11861118D01*
X2487199Y11850685D01*
X2529842Y11806808D01*
X2540000Y11763126D01*
X2540000Y11223561D01*
X2602058Y11235162D01*
X2800793Y11312153D01*
X2982004Y11424353D01*
X2988199Y11430001D01*
X6972571Y11430001D01*
X6992244Y11217689D01*
X7015449Y11136133D01*
X7050595Y11012611D01*
X7145634Y10821745D01*
X7274128Y10651593D01*
X7274135Y10651587D01*
X7431692Y10507953D01*
X7431699Y10507947D01*
X7535389Y10443745D01*
X7612981Y10395702D01*
X7811802Y10318679D01*
X8021390Y10279500D01*
X8234610Y10279500D01*
X8444198Y10318679D01*
X8643019Y10395702D01*
X8824302Y10507948D01*
X8981872Y10651593D01*
X9110366Y10821745D01*
X9205405Y11012611D01*
X9263756Y11217690D01*
X9283429Y11430000D01*
X9512571Y11430000D01*
X9532244Y11217689D01*
X9555449Y11136133D01*
X9590595Y11012611D01*
X9685634Y10821745D01*
X9814128Y10651593D01*
X9814135Y10651587D01*
X9971692Y10507953D01*
X9971699Y10507947D01*
X10075389Y10443745D01*
X10152981Y10395702D01*
X10351802Y10318679D01*
X10561390Y10279500D01*
X10774610Y10279500D01*
X10984198Y10318679D01*
X11183019Y10395702D01*
X11364302Y10507948D01*
X11521872Y10651593D01*
X11650366Y10821745D01*
X11745405Y11012611D01*
X11803756Y11217690D01*
X11823429Y11430000D01*
X11803756Y11642310D01*
X11745405Y11847389D01*
X11650366Y12038255D01*
X11521872Y12208407D01*
X11370941Y12346000D01*
X11364307Y12352048D01*
X11364300Y12352054D01*
X11183024Y12464295D01*
X11183019Y12464298D01*
X10984195Y12541322D01*
X10774610Y12580500D01*
X10561390Y12580500D01*
X10351804Y12541322D01*
X10152980Y12464298D01*
X10152975Y12464295D01*
X9971699Y12352054D01*
X9971692Y12352048D01*
X9814135Y12208414D01*
X9814131Y12208411D01*
X9814128Y12208407D01*
X9814124Y12208403D01*
X9814125Y12208403D01*
X9685635Y12038257D01*
X9685630Y12038248D01*
X9590596Y11847392D01*
X9532244Y11642312D01*
X9512571Y11430000D01*
X9283429Y11430000D01*
X9263756Y11642310D01*
X9205405Y11847389D01*
X9110366Y12038255D01*
X8981872Y12208407D01*
X8830941Y12346000D01*
X8824307Y12352048D01*
X8824300Y12352054D01*
X8643024Y12464295D01*
X8643019Y12464298D01*
X8444195Y12541322D01*
X8234610Y12580500D01*
X8021390Y12580500D01*
X7811804Y12541322D01*
X7612980Y12464298D01*
X7612975Y12464295D01*
X7431699Y12352054D01*
X7431692Y12352048D01*
X7274135Y12208414D01*
X7274131Y12208411D01*
X7274128Y12208407D01*
X7274124Y12208403D01*
X7274125Y12208403D01*
X7145635Y12038257D01*
X7145630Y12038248D01*
X7050596Y11847392D01*
X6992244Y11642312D01*
X6972571Y11430001D01*
X2988199Y11430001D01*
X3139493Y11567925D01*
X3139503Y11567936D01*
X3267937Y11738008D01*
X3267942Y11738017D01*
X3362935Y11928790D01*
X3409373Y12092000D01*
X2864776Y12092000D01*
X2806585Y12110907D01*
X2770621Y12160407D01*
X2769786Y12218892D01*
X2786000Y12274111D01*
X2786000Y12417889D01*
X2769786Y12473110D01*
X2771533Y12534268D01*
X2808896Y12582721D01*
X2864776Y12600000D01*
X3409373Y12600000D01*
X3362935Y12763211D01*
X3267942Y12953984D01*
X3267937Y12953993D01*
X3139503Y13124065D01*
X3139493Y13124076D01*
X2982004Y13267648D01*
X2982005Y13267648D01*
X2800793Y13379848D01*
X2602061Y13456838D01*
X2602055Y13456840D01*
X2540000Y13468440D01*
X2540000Y12928875D01*
X2521093Y12870684D01*
X2471593Y12834720D01*
X2426911Y12830883D01*
X2321768Y12846000D01*
X2321763Y12846000D01*
X2250237Y12846000D01*
X2250232Y12846000D01*
X2145089Y12830883D01*
X2084800Y12841316D01*
X2042157Y12885194D01*
X2032000Y12928875D01*
X2032000Y13468440D01*
X1969944Y13456840D01*
X1969938Y13456838D01*
X1771206Y13379848D01*
X1589995Y13267648D01*
X1432506Y13124076D01*
X1432496Y13124065D01*
X1304062Y12953993D01*
X1304057Y12953984D01*
X1209064Y12763211D01*
X1162627Y12600000D01*
X1707224Y12600000D01*
X1765415Y12581093D01*
X1801379Y12531593D01*
X1802214Y12473108D01*
X1786000Y12417891D01*
X1786000Y12274110D01*
X1802214Y12218892D01*
X1800467Y12157732D01*
X1763104Y12109279D01*
X1707224Y12092000D01*
X1162627Y12092000D01*
X869894Y12092000D01*
X881756Y12133690D01*
X901429Y12346000D01*
X881756Y12558310D01*
X823405Y12763389D01*
X728366Y12954255D01*
X599872Y13124407D01*
X526173Y13191593D01*
X457804Y13253921D01*
X427538Y13307096D01*
X425500Y13327082D01*
X425500Y13904919D01*
X444407Y13963110D01*
X457799Y13978076D01*
X599872Y14107593D01*
X728366Y14277745D01*
X823405Y14468611D01*
X881756Y14673690D01*
X901429Y14886000D01*
X881756Y15098310D01*
X827763Y15288073D01*
X830024Y15349215D01*
X852981Y15385168D01*
X966997Y15499183D01*
X1021513Y15526960D01*
X1081945Y15517388D01*
X1125210Y15474124D01*
X1136000Y15429179D01*
X1136000Y15140001D01*
X1136001Y15140000D01*
X1707224Y15140000D01*
X1765415Y15121093D01*
X1801379Y15071593D01*
X1802214Y15013108D01*
X1786000Y14957891D01*
X1786000Y14814110D01*
X1802214Y14758892D01*
X1800467Y14697732D01*
X1763104Y14649279D01*
X1707224Y14632000D01*
X1136002Y14632000D01*
X1136001Y14631999D01*
X1136001Y13991209D01*
X1138909Y13966126D01*
X1184213Y13863523D01*
X1263522Y13784214D01*
X1366127Y13738910D01*
X1391203Y13736001D01*
X2031998Y13736001D01*
X2032000Y13736002D01*
X2032000Y14303126D01*
X2050907Y14361317D01*
X2100407Y14397281D01*
X2145090Y14401118D01*
X2250233Y14386000D01*
X2250237Y14386000D01*
X2321767Y14386000D01*
X2426910Y14401118D01*
X2487199Y14390685D01*
X2529842Y14346808D01*
X2540000Y14303126D01*
X2540000Y13736002D01*
X2540001Y13736001D01*
X3180790Y13736001D01*
X3180791Y13736002D01*
X3205874Y13738910D01*
X3308477Y13784214D01*
X3387786Y13863523D01*
X3433090Y13966128D01*
X3435999Y13991203D01*
X3436000Y13991206D01*
X3436000Y14631999D01*
X3435999Y14632000D01*
X2864776Y14632000D01*
X2806585Y14650907D01*
X2770621Y14700407D01*
X2769786Y14758892D01*
X2786000Y14814111D01*
X2786000Y14957889D01*
X2769786Y15013110D01*
X2771533Y15074268D01*
X2808896Y15122721D01*
X2864776Y15140000D01*
X3435998Y15140000D01*
X3435999Y15140001D01*
X3435999Y15636500D01*
X3454906Y15694691D01*
X3504406Y15730655D01*
X3534999Y15735500D01*
X8153678Y15735500D01*
X8211869Y15716593D01*
X8223682Y15706504D01*
X8640682Y15289504D01*
X8668459Y15234987D01*
X8658888Y15174555D01*
X8615623Y15131290D01*
X8570678Y15120500D01*
X7233139Y15120500D01*
X7233136Y15120499D01*
X7208009Y15117586D01*
X7105235Y15072206D01*
X7025794Y14992765D01*
X6980414Y14889989D01*
X6977500Y14864870D01*
X6977500Y13075140D01*
X6977501Y13075137D01*
X6980414Y13050010D01*
X6981325Y13047947D01*
X7025794Y12947235D01*
X7105235Y12867794D01*
X7208009Y12822415D01*
X7233135Y12819500D01*
X9022864Y12819501D01*
X9047991Y12822415D01*
X9150765Y12867794D01*
X9230206Y12947235D01*
X9275585Y13050009D01*
X9278500Y13075135D01*
X9278499Y14412680D01*
X9297406Y14470870D01*
X9346906Y14506834D01*
X9408092Y14506834D01*
X9447503Y14482683D01*
X9538868Y14391318D01*
X9566645Y14336801D01*
X9564085Y14294222D01*
X9532244Y14182312D01*
X9512571Y13970000D01*
X9518601Y13904919D01*
X9532244Y13757690D01*
X9590595Y13552611D01*
X9685634Y13361745D01*
X9814128Y13191593D01*
X9814135Y13191587D01*
X9971692Y13047953D01*
X9971699Y13047947D01*
X10075389Y12983745D01*
X10152981Y12935702D01*
X10351802Y12858679D01*
X10561390Y12819500D01*
X10774610Y12819500D01*
X10984198Y12858679D01*
X11183019Y12935702D01*
X11364302Y13047948D01*
X11521872Y13191593D01*
X11650366Y13361745D01*
X11745405Y13552611D01*
X11803756Y13757690D01*
X11823429Y13970000D01*
X11803756Y14182310D01*
X11745405Y14387389D01*
X11650366Y14578255D01*
X11521872Y14748407D01*
X11370940Y14886001D01*
X11364307Y14892048D01*
X11364300Y14892054D01*
X11183024Y15004295D01*
X11183019Y15004298D01*
X11009309Y15071593D01*
X10984198Y15081321D01*
X10984197Y15081322D01*
X10984195Y15081322D01*
X10774610Y15120500D01*
X10561390Y15120500D01*
X10351802Y15081322D01*
X10349022Y15080244D01*
X10347771Y15080175D01*
X10347397Y15080068D01*
X10347372Y15080153D01*
X10287931Y15076856D01*
X10243258Y15102556D01*
X8801480Y16544334D01*
X8788199Y16560817D01*
X8784144Y16567127D01*
X8784138Y16567132D01*
X8744598Y16601394D01*
X8742026Y16603789D01*
X8730595Y16615219D01*
X8730593Y16615221D01*
X8717636Y16624920D01*
X8714917Y16627112D01*
X8675373Y16661377D01*
X8668538Y16664499D01*
X8650348Y16675292D01*
X8649293Y16676082D01*
X8644331Y16679796D01*
X8644328Y16679797D01*
X8644327Y16679798D01*
X8595314Y16698079D01*
X8592049Y16699431D01*
X8544458Y16721165D01*
X8544454Y16721166D01*
X8537014Y16722236D01*
X8516520Y16727467D01*
X8509482Y16730092D01*
X8509483Y16730092D01*
X8457301Y16733824D01*
X8453788Y16734202D01*
X8437800Y16736500D01*
X8437799Y16736500D01*
X8421652Y16736500D01*
X8418119Y16736626D01*
X8388240Y16738763D01*
X8365927Y16740359D01*
X8365926Y16740359D01*
X8365925Y16740359D01*
X8358590Y16738763D01*
X8337544Y16736500D01*
X1060456Y16736500D01*
X1039410Y16738763D01*
X1032074Y16740359D01*
X1032073Y16740359D01*
X1011874Y16738915D01*
X979881Y16736626D01*
X976348Y16736500D01*
X960200Y16736500D01*
X944212Y16734202D01*
X940700Y16733824D01*
X888517Y16730092D01*
X881471Y16727464D01*
X860985Y16722236D01*
X853547Y16721166D01*
X853544Y16721166D01*
X853543Y16721165D01*
X853542Y16721165D01*
X853540Y16721164D01*
X805959Y16699435D01*
X802695Y16698083D01*
X753671Y16679798D01*
X753669Y16679797D01*
X747646Y16675288D01*
X729463Y16664500D01*
X722626Y16661378D01*
X683097Y16627126D01*
X680348Y16624911D01*
X667407Y16615222D01*
X655986Y16603801D01*
X653401Y16601394D01*
X613859Y16567132D01*
X613856Y16567128D01*
X609793Y16560806D01*
X596519Y16544335D01*
X88403Y16036219D01*
X33886Y16008442D01*
X208Y16008909D01*
X-147390Y16036500D01*
X-360610Y16036500D01*
X-570196Y15997322D01*
X-769020Y15920298D01*
X-769025Y15920295D01*
X-950301Y15808054D01*
X-950308Y15808048D01*
X-1107865Y15664414D01*
X-1107869Y15664411D01*
X-1107872Y15664407D01*
X-1107876Y15664403D01*
X-1107875Y15664403D01*
X-1236365Y15494257D01*
X-1236370Y15494248D01*
X-1331404Y15303392D01*
X-1389756Y15098312D01*
X-1409429Y14886001D01*
X-1389756Y14673689D01*
X-1377894Y14632000D01*
X-1332048Y14470870D01*
X-1331404Y14468609D01*
X-1244571Y14294222D01*
X-1236366Y14277745D01*
X-1107872Y14107593D01*
X-1107865Y14107587D01*
X-950308Y13963953D01*
X-950301Y13963947D01*
X-948949Y13963110D01*
X-769019Y13851702D01*
X-570198Y13774679D01*
X-506307Y13762736D01*
X-452584Y13733460D01*
X-426327Y13678195D01*
X-425500Y13665423D01*
X-425500Y13566579D01*
X-444407Y13508388D01*
X-493907Y13472424D01*
X-506307Y13469265D01*
X-570198Y13457321D01*
X-769020Y13380298D01*
X-769025Y13380295D01*
X-950301Y13268054D01*
X-950308Y13268048D01*
X-1107865Y13124414D01*
X-1107869Y13124411D01*
X-1107872Y13124407D01*
X-1107876Y13124403D01*
X-1107875Y13124403D01*
X-1236365Y12954257D01*
X-1236370Y12954248D01*
X-1331404Y12763392D01*
X-1389756Y12558312D01*
X-1409429Y12346000D01*
X-2294000Y12346000D01*
X-2294000Y12417889D01*
X-2310214Y12473110D01*
X-2308467Y12534268D01*
X-2271104Y12582721D01*
X-2215224Y12600000D01*
X-1670627Y12600000D01*
X-1717065Y12763211D01*
X-1812058Y12953984D01*
X-1812063Y12953993D01*
X-1940497Y13124065D01*
X-1940507Y13124076D01*
X-2097996Y13267648D01*
X-2097995Y13267648D01*
X-2279207Y13379848D01*
X-2477939Y13456838D01*
X-2477945Y13456840D01*
X-2540000Y13468440D01*
X-2540000Y12928875D01*
X-2558907Y12870684D01*
X-2608407Y12834720D01*
X-2653089Y12830883D01*
X-2758232Y12846000D01*
X-2758237Y12846000D01*
X-2829763Y12846000D01*
X-2829768Y12846000D01*
X-2934911Y12830883D01*
X-2995200Y12841316D01*
X-3037843Y12885194D01*
X-3048000Y12928875D01*
X-3048000Y13468440D01*
X-3110056Y13456840D01*
X-3110062Y13456838D01*
X-3308794Y13379848D01*
X-3490005Y13267648D01*
X-3647494Y13124076D01*
X-3647504Y13124065D01*
X-3775938Y12953993D01*
X-3775943Y12953984D01*
X-3870936Y12763211D01*
X-3917373Y12600000D01*
X-3372776Y12600000D01*
X-3314585Y12581093D01*
X-3278621Y12531593D01*
X-3277786Y12473108D01*
X-3294000Y12417891D01*
X-3294000Y12274110D01*
X-3277786Y12218892D01*
X-3279533Y12157732D01*
X-3316896Y12109279D01*
X-3372776Y12092000D01*
X-3917373Y12092000D01*
X-4825500Y12092000D01*
X-4825500Y14632000D01*
X-3917373Y14632000D01*
X-3870936Y14468790D01*
X-3775943Y14278017D01*
X-3775938Y14278008D01*
X-3647504Y14107936D01*
X-3647494Y14107925D01*
X-3490005Y13964353D01*
X-3490006Y13964353D01*
X-3308794Y13852153D01*
X-3110059Y13775162D01*
X-3048001Y13763561D01*
X-3048000Y13763561D01*
X-3048000Y14303126D01*
X-3029093Y14361317D01*
X-2979593Y14397281D01*
X-2934910Y14401118D01*
X-2829767Y14386000D01*
X-2829763Y14386000D01*
X-2758233Y14386000D01*
X-2653090Y14401118D01*
X-2592801Y14390685D01*
X-2550158Y14346808D01*
X-2540000Y14303126D01*
X-2540000Y13763561D01*
X-2477942Y13775162D01*
X-2279207Y13852153D01*
X-2097996Y13964353D01*
X-1940507Y14107925D01*
X-1940497Y14107936D01*
X-1812063Y14278008D01*
X-1812058Y14278017D01*
X-1717065Y14468790D01*
X-1670627Y14632000D01*
X-2215224Y14632000D01*
X-2273415Y14650907D01*
X-2309379Y14700407D01*
X-2310214Y14758892D01*
X-2294000Y14814111D01*
X-2294000Y14957889D01*
X-2310214Y15013110D01*
X-2308467Y15074268D01*
X-2271104Y15122721D01*
X-2215224Y15140000D01*
X-1670627Y15140000D01*
X-1717065Y15303211D01*
X-1812058Y15493984D01*
X-1812063Y15493993D01*
X-1940497Y15664065D01*
X-1940507Y15664076D01*
X-2097996Y15807648D01*
X-2097995Y15807648D01*
X-2279207Y15919848D01*
X-2477939Y15996838D01*
X-2477945Y15996840D01*
X-2540000Y16008440D01*
X-2540000Y15468875D01*
X-2558907Y15410684D01*
X-2608407Y15374720D01*
X-2653089Y15370883D01*
X-2758232Y15386000D01*
X-2758237Y15386000D01*
X-2829763Y15386000D01*
X-2829768Y15386000D01*
X-2934911Y15370883D01*
X-2995200Y15381316D01*
X-3037843Y15425194D01*
X-3048000Y15468875D01*
X-3048000Y16008440D01*
X-3110056Y15996840D01*
X-3110062Y15996838D01*
X-3308794Y15919848D01*
X-3490005Y15807648D01*
X-3647494Y15664076D01*
X-3647504Y15664065D01*
X-3775938Y15493993D01*
X-3775943Y15493984D01*
X-3870936Y15303211D01*
X-3917373Y15140000D01*
X-3372776Y15140000D01*
X-3314585Y15121093D01*
X-3278621Y15071593D01*
X-3277786Y15013108D01*
X-3294000Y14957891D01*
X-3294000Y14814110D01*
X-3277786Y14758892D01*
X-3279533Y14697732D01*
X-3316896Y14649279D01*
X-3372776Y14632000D01*
X-3917373Y14632000D01*
X-4825500Y14632000D01*
X-4825500Y25046500D01*
X-4806593Y25104691D01*
X-4757093Y25140655D01*
X-4726500Y25145500D01*
X14886500Y25145500D01*
X14944691Y25126593D01*
G37*
%TD.AperFunction*%
%TD*%
M02*
