%TF.GenerationSoftware,KiCad,Pcbnew,7.0.5.1-1-g8f565ef7f0-dirty-deb11*%
%TF.CreationDate,2023-07-21T03:35:20+00:00*%
%TF.ProjectId,FRAM01,4652414d-3031-42e6-9b69-6361645f7063,rev?*%
%TF.SameCoordinates,Original*%
%TF.FileFunction,Copper,L2,Bot*%
%TF.FilePolarity,Positive*%
%FSLAX46Y46*%
G04 Gerber Fmt 4.6, Leading zero omitted, Abs format (unit mm)*
G04 Created by KiCad (PCBNEW 7.0.5.1-1-g8f565ef7f0-dirty-deb11) date 2023-07-21 03:35:20*
%MOMM*%
%LPD*%
G01*
G04 APERTURE LIST*
G04 Aperture macros list*
%AMRoundRect*
0 Rectangle with rounded corners*
0 $1 Rounding radius*
0 $2 $3 $4 $5 $6 $7 $8 $9 X,Y pos of 4 corners*
0 Add a 4 corners polygon primitive as box body*
4,1,4,$2,$3,$4,$5,$6,$7,$8,$9,$2,$3,0*
0 Add four circle primitives for the rounded corners*
1,1,$1+$1,$2,$3*
1,1,$1+$1,$4,$5*
1,1,$1+$1,$6,$7*
1,1,$1+$1,$8,$9*
0 Add four rect primitives between the rounded corners*
20,1,$1+$1,$2,$3,$4,$5,0*
20,1,$1+$1,$4,$5,$6,$7,0*
20,1,$1+$1,$6,$7,$8,$9,0*
20,1,$1+$1,$8,$9,$2,$3,0*%
G04 Aperture macros list end*
%TA.AperFunction,ComponentPad*%
%ADD10C,6.000000*%
%TD*%
%TA.AperFunction,ComponentPad*%
%ADD11R,1.524000X1.524000*%
%TD*%
%TA.AperFunction,SMDPad,CuDef*%
%ADD12R,1.650000X0.650000*%
%TD*%
%TA.AperFunction,SMDPad,CuDef*%
%ADD13R,2.500000X1.800000*%
%TD*%
%TA.AperFunction,SMDPad,CuDef*%
%ADD14RoundRect,0.250000X0.250000X0.475000X-0.250000X0.475000X-0.250000X-0.475000X0.250000X-0.475000X0*%
%TD*%
%TA.AperFunction,ViaPad*%
%ADD15C,0.800000*%
%TD*%
%TA.AperFunction,Conductor*%
%ADD16C,0.304800*%
%TD*%
%TA.AperFunction,Conductor*%
%ADD17C,0.250000*%
%TD*%
G04 APERTURE END LIST*
D10*
%TO.P,M4,1*%
%TO.N,GND*%
X147320000Y-96520000D03*
%TD*%
%TO.P,M1,1*%
%TO.N,GND*%
X137160000Y-76200000D03*
%TD*%
%TO.P,M3,1*%
%TO.N,GND*%
X147320000Y-76200000D03*
%TD*%
D11*
%TO.P,J2,1*%
%TO.N,MISO*%
X146050000Y-82550000D03*
%TO.P,J2,2*%
%TO.N,+3.3V*%
X148590000Y-82550000D03*
%TO.P,J2,3*%
%TO.N,SCK*%
X146050000Y-85090000D03*
%TO.P,J2,4*%
%TO.N,MOSI*%
X148590000Y-85090000D03*
%TO.P,J2,5*%
%TO.N,~{CS}*%
X146050000Y-87630000D03*
%TO.P,J2,6*%
%TO.N,GND*%
X148590000Y-87630000D03*
%TO.P,J2,7*%
%TO.N,~{WP}*%
X146050000Y-90170000D03*
%TO.P,J2,8*%
%TO.N,GND*%
X148590000Y-90170000D03*
%TD*%
D10*
%TO.P,M2,1*%
%TO.N,GND*%
X137160000Y-96520000D03*
%TD*%
D12*
%TO.P,IC1,1,~{CS}*%
%TO.N,~{CS}*%
X135263000Y-88773000D03*
%TO.P,IC1,2,SO*%
%TO.N,MISO*%
X135263000Y-87503000D03*
%TO.P,IC1,3,~{WP}*%
%TO.N,~{WP}*%
X135263000Y-86233000D03*
%TO.P,IC1,4,VSS*%
%TO.N,GND*%
X135263000Y-84963000D03*
%TO.P,IC1,5,SI*%
%TO.N,MOSI*%
X142613000Y-84963000D03*
%TO.P,IC1,6,SCK*%
%TO.N,SCK*%
X142613000Y-86233000D03*
%TO.P,IC1,7,DNU*%
%TO.N,unconnected-(IC1-Pad7)*%
X142613000Y-87503000D03*
%TO.P,IC1,8,VDD*%
%TO.N,+3.3V*%
X142613000Y-88773000D03*
%TD*%
D13*
%TO.P,D1,1,K*%
%TO.N,+3.3V*%
X139922000Y-82042000D03*
%TO.P,D1,2,A*%
%TO.N,GND*%
X135922000Y-82042000D03*
%TD*%
D14*
%TO.P,C1,1*%
%TO.N,+3.3V*%
X143190000Y-92964000D03*
%TO.P,C1,2*%
%TO.N,GND*%
X141290000Y-92964000D03*
%TD*%
%TO.P,C2,1*%
%TO.N,+3.3V*%
X141732000Y-90932000D03*
%TO.P,C2,2*%
%TO.N,GND*%
X139832000Y-90932000D03*
%TD*%
D15*
%TO.N,GND*%
X138176000Y-91440000D03*
X133604000Y-84836000D03*
X141478000Y-94742000D03*
X142748000Y-94742000D03*
X133604000Y-81026000D03*
X138176000Y-90424000D03*
X133604000Y-83058000D03*
X137160000Y-84836000D03*
X133604000Y-82042000D03*
X139700000Y-92710000D03*
%TO.N,~{CS}*%
X139700000Y-87630000D03*
%TO.N,~{WP}*%
X137160000Y-86360000D03*
%TD*%
D16*
%TO.N,~{CS}*%
X139700000Y-87630000D02*
X138557000Y-88773000D01*
X138557000Y-88773000D02*
X135263000Y-88773000D01*
%TO.N,MISO*%
X137795000Y-87503000D02*
X142748000Y-82550000D01*
X142748000Y-82550000D02*
X146050000Y-82550000D01*
X135263000Y-87503000D02*
X137795000Y-87503000D01*
%TO.N,~{WP}*%
X137160000Y-86360000D02*
X135390000Y-86360000D01*
D17*
X135390000Y-86360000D02*
X135263000Y-86233000D01*
D16*
%TO.N,MOSI*%
X147320000Y-83820000D02*
X148590000Y-85090000D01*
X145034000Y-83820000D02*
X147320000Y-83820000D01*
X142613000Y-84963000D02*
X143891000Y-84963000D01*
X143891000Y-84963000D02*
X145034000Y-83820000D01*
%TO.N,SCK*%
X144907000Y-86233000D02*
X142613000Y-86233000D01*
X146050000Y-85090000D02*
X144907000Y-86233000D01*
%TO.N,+3.3V*%
X142494000Y-91694000D02*
X142875000Y-91694000D01*
X149352000Y-91948000D02*
X145542000Y-91948000D01*
X150114000Y-84074000D02*
X150114000Y-91186000D01*
X145542000Y-91948000D02*
X144526000Y-92964000D01*
X142240000Y-82042000D02*
X139922000Y-82042000D01*
X143190000Y-92009000D02*
X143190000Y-92964000D01*
X141732000Y-90932000D02*
X142613000Y-90051000D01*
X143510000Y-80772000D02*
X142240000Y-82042000D01*
X150114000Y-91186000D02*
X149352000Y-91948000D01*
X148590000Y-82550000D02*
X146812000Y-80772000D01*
X141732000Y-90932000D02*
X142494000Y-91694000D01*
X144526000Y-92964000D02*
X143190000Y-92964000D01*
X148590000Y-82550000D02*
X150114000Y-84074000D01*
X146812000Y-80772000D02*
X143510000Y-80772000D01*
X142613000Y-90051000D02*
X142613000Y-88773000D01*
X142875000Y-91694000D02*
X143190000Y-92009000D01*
%TD*%
%TA.AperFunction,Conductor*%
%TO.N,GND*%
G36*
X148394960Y-88035004D02*
G01*
X148523002Y-88074500D01*
X148623312Y-88074500D01*
X148722499Y-88059550D01*
X148843224Y-88001412D01*
X148844000Y-88000691D01*
X148844000Y-89805194D01*
X148785040Y-89764996D01*
X148656998Y-89725500D01*
X148556688Y-89725500D01*
X148457501Y-89740450D01*
X148336776Y-89798588D01*
X148336000Y-89799308D01*
X148336000Y-87994805D01*
X148394960Y-88035004D01*
G37*
%TD.AperFunction*%
%TA.AperFunction,Conductor*%
G36*
X152087621Y-71394502D02*
G01*
X152134114Y-71448158D01*
X152145500Y-71500500D01*
X152145500Y-101219500D01*
X152125498Y-101287621D01*
X152071842Y-101334114D01*
X152019500Y-101345500D01*
X132460500Y-101345500D01*
X132392379Y-101325498D01*
X132345886Y-101271842D01*
X132334500Y-101219500D01*
X132334500Y-93218000D01*
X140282000Y-93218000D01*
X140282000Y-93489516D01*
X140292605Y-93593318D01*
X140292606Y-93593321D01*
X140348342Y-93761525D01*
X140441365Y-93912339D01*
X140441370Y-93912345D01*
X140566654Y-94037629D01*
X140566660Y-94037634D01*
X140717474Y-94130657D01*
X140885678Y-94186393D01*
X140885681Y-94186394D01*
X140989483Y-94196999D01*
X140989483Y-94197000D01*
X141036000Y-94197000D01*
X141036000Y-93218000D01*
X140282000Y-93218000D01*
X132334500Y-93218000D01*
X132334500Y-91186000D01*
X138824000Y-91186000D01*
X138824000Y-91457516D01*
X138834605Y-91561318D01*
X138834606Y-91561321D01*
X138890342Y-91729525D01*
X138983365Y-91880339D01*
X138983370Y-91880345D01*
X139108654Y-92005629D01*
X139108660Y-92005634D01*
X139259474Y-92098657D01*
X139427678Y-92154393D01*
X139427681Y-92154394D01*
X139531483Y-92164999D01*
X139531483Y-92165000D01*
X139578000Y-92165000D01*
X139578000Y-91186000D01*
X138824000Y-91186000D01*
X132334500Y-91186000D01*
X132334500Y-90678000D01*
X138824000Y-90678000D01*
X139578000Y-90678000D01*
X139578000Y-89699000D01*
X139531483Y-89699000D01*
X139427681Y-89709605D01*
X139427678Y-89709606D01*
X139259474Y-89765342D01*
X139108660Y-89858365D01*
X139108654Y-89858370D01*
X138983370Y-89983654D01*
X138983365Y-89983660D01*
X138890342Y-90134474D01*
X138834606Y-90302678D01*
X138834605Y-90302681D01*
X138824000Y-90406483D01*
X138824000Y-90678000D01*
X132334500Y-90678000D01*
X132334500Y-89146649D01*
X133929500Y-89146649D01*
X133936009Y-89207196D01*
X133936011Y-89207204D01*
X133987110Y-89344202D01*
X133987112Y-89344207D01*
X134074738Y-89461261D01*
X134191792Y-89548887D01*
X134191794Y-89548888D01*
X134191796Y-89548889D01*
X134250875Y-89570924D01*
X134328795Y-89599988D01*
X134328803Y-89599990D01*
X134389350Y-89606499D01*
X134389355Y-89606499D01*
X134389362Y-89606500D01*
X134389368Y-89606500D01*
X136136632Y-89606500D01*
X136136638Y-89606500D01*
X136136645Y-89606499D01*
X136136649Y-89606499D01*
X136197196Y-89599990D01*
X136197199Y-89599989D01*
X136197201Y-89599989D01*
X136334204Y-89548889D01*
X136334207Y-89548887D01*
X136454239Y-89459032D01*
X136520759Y-89434221D01*
X136529748Y-89433900D01*
X138535121Y-89433900D01*
X138538924Y-89434014D01*
X138597197Y-89437540D01*
X138654647Y-89427010D01*
X138658372Y-89426444D01*
X138716325Y-89419408D01*
X138724497Y-89416308D01*
X138746459Y-89410185D01*
X138755064Y-89408609D01*
X138808298Y-89384649D01*
X138811803Y-89383198D01*
X138823934Y-89378597D01*
X138866391Y-89362496D01*
X138873589Y-89357527D01*
X138893453Y-89346324D01*
X138901420Y-89342739D01*
X138947367Y-89306740D01*
X138950406Y-89304503D01*
X138998477Y-89271324D01*
X139037200Y-89227613D01*
X139039785Y-89224866D01*
X139689248Y-88575404D01*
X139751561Y-88541379D01*
X139778344Y-88538500D01*
X139795487Y-88538500D01*
X139982288Y-88498794D01*
X140156752Y-88421118D01*
X140311253Y-88308866D01*
X140311255Y-88308864D01*
X140439034Y-88166951D01*
X140439035Y-88166949D01*
X140439040Y-88166944D01*
X140534527Y-88001556D01*
X140593542Y-87819928D01*
X140613504Y-87630000D01*
X140593542Y-87440072D01*
X140534527Y-87258444D01*
X140439040Y-87093056D01*
X140439038Y-87093054D01*
X140439034Y-87093048D01*
X140311255Y-86951135D01*
X140156752Y-86838882D01*
X139982288Y-86761206D01*
X139789028Y-86720127D01*
X139789604Y-86717414D01*
X139735266Y-86695066D01*
X139694630Y-86636849D01*
X139691919Y-86565904D01*
X139724985Y-86507667D01*
X141064405Y-85168248D01*
X141126717Y-85134222D01*
X141197533Y-85139287D01*
X141254368Y-85181834D01*
X141279179Y-85248354D01*
X141279500Y-85257343D01*
X141279500Y-85336649D01*
X141286009Y-85397196D01*
X141286011Y-85397204D01*
X141337112Y-85534209D01*
X141338977Y-85537624D01*
X141339802Y-85541420D01*
X141340260Y-85542647D01*
X141340083Y-85542712D01*
X141354063Y-85606999D01*
X141338977Y-85658376D01*
X141337112Y-85661790D01*
X141286011Y-85798795D01*
X141286009Y-85798803D01*
X141279500Y-85859350D01*
X141279500Y-86606649D01*
X141286009Y-86667196D01*
X141286011Y-86667204D01*
X141337109Y-86804200D01*
X141338972Y-86807611D01*
X141339798Y-86811409D01*
X141340260Y-86812647D01*
X141340082Y-86812713D01*
X141354065Y-86876985D01*
X141338977Y-86928379D01*
X141337109Y-86931799D01*
X141286011Y-87068795D01*
X141286009Y-87068803D01*
X141279500Y-87129350D01*
X141279500Y-87876649D01*
X141286009Y-87937196D01*
X141286011Y-87937204D01*
X141337112Y-88074209D01*
X141338977Y-88077624D01*
X141339802Y-88081420D01*
X141340260Y-88082647D01*
X141340083Y-88082712D01*
X141354063Y-88146999D01*
X141338977Y-88198376D01*
X141337112Y-88201790D01*
X141286011Y-88338795D01*
X141286009Y-88338803D01*
X141279500Y-88399350D01*
X141279500Y-89146649D01*
X141286009Y-89207196D01*
X141286011Y-89207204D01*
X141337110Y-89344202D01*
X141337112Y-89344207D01*
X141424738Y-89461261D01*
X141446032Y-89477201D01*
X141488579Y-89534036D01*
X141493644Y-89604852D01*
X141459619Y-89667164D01*
X141397306Y-89701189D01*
X141383329Y-89703417D01*
X141327574Y-89709112D01*
X141159261Y-89764885D01*
X141008347Y-89857970D01*
X141008341Y-89857975D01*
X140882971Y-89983345D01*
X140880511Y-89986457D01*
X140878281Y-89988035D01*
X140877780Y-89988537D01*
X140877694Y-89988451D01*
X140822568Y-90027483D01*
X140751643Y-90030671D01*
X140690254Y-89995008D01*
X140682837Y-89986446D01*
X140680632Y-89983657D01*
X140555345Y-89858370D01*
X140555339Y-89858365D01*
X140404525Y-89765342D01*
X140236321Y-89709606D01*
X140236318Y-89709605D01*
X140132516Y-89699000D01*
X140086000Y-89699000D01*
X140086000Y-92165000D01*
X140132514Y-92165000D01*
X140162773Y-92161908D01*
X140232575Y-92174881D01*
X140284281Y-92223533D01*
X140301476Y-92292416D01*
X140295188Y-92326884D01*
X140292607Y-92334673D01*
X140292605Y-92334681D01*
X140282000Y-92438483D01*
X140282000Y-92710000D01*
X141418000Y-92710000D01*
X141486121Y-92730002D01*
X141532614Y-92783658D01*
X141544000Y-92836000D01*
X141544000Y-94197000D01*
X141590517Y-94197000D01*
X141590516Y-94196999D01*
X141694318Y-94186394D01*
X141694321Y-94186393D01*
X141862525Y-94130657D01*
X142013339Y-94037634D01*
X142013345Y-94037629D01*
X142138624Y-93912350D01*
X142140832Y-93909558D01*
X142142837Y-93908137D01*
X142143825Y-93907150D01*
X142143993Y-93907318D01*
X142198768Y-93868522D01*
X142269693Y-93865323D01*
X142331088Y-93900976D01*
X142338515Y-93909547D01*
X142340974Y-93912657D01*
X142466341Y-94038024D01*
X142466347Y-94038029D01*
X142466348Y-94038030D01*
X142617262Y-94131115D01*
X142785574Y-94186887D01*
X142889455Y-94197500D01*
X143490544Y-94197499D01*
X143594426Y-94186887D01*
X143762738Y-94131115D01*
X143913652Y-94038030D01*
X144039030Y-93912652D01*
X144132115Y-93761738D01*
X144136967Y-93747095D01*
X144148840Y-93711267D01*
X144189254Y-93652895D01*
X144254810Y-93625640D01*
X144268444Y-93624900D01*
X144504121Y-93624900D01*
X144507924Y-93625014D01*
X144566197Y-93628540D01*
X144623647Y-93618010D01*
X144627372Y-93617444D01*
X144685325Y-93610408D01*
X144693497Y-93607308D01*
X144715459Y-93601185D01*
X144724064Y-93599609D01*
X144777298Y-93575649D01*
X144780803Y-93574198D01*
X144792934Y-93569597D01*
X144835391Y-93553496D01*
X144842589Y-93548527D01*
X144862453Y-93537324D01*
X144870420Y-93533739D01*
X144916367Y-93497740D01*
X144919406Y-93495503D01*
X144967477Y-93462324D01*
X145006200Y-93418613D01*
X145008785Y-93415866D01*
X145778848Y-92645804D01*
X145841161Y-92611779D01*
X145867944Y-92608900D01*
X149330121Y-92608900D01*
X149333924Y-92609014D01*
X149392197Y-92612540D01*
X149449647Y-92602010D01*
X149453372Y-92601444D01*
X149511325Y-92594408D01*
X149519497Y-92591308D01*
X149541459Y-92585185D01*
X149550064Y-92583609D01*
X149603298Y-92559649D01*
X149606803Y-92558198D01*
X149618934Y-92553597D01*
X149661391Y-92537496D01*
X149668589Y-92532527D01*
X149688453Y-92521324D01*
X149696420Y-92517739D01*
X149742367Y-92481740D01*
X149745406Y-92479503D01*
X149793477Y-92446324D01*
X149832200Y-92402613D01*
X149834785Y-92399866D01*
X150565881Y-91668771D01*
X150568612Y-91666200D01*
X150612324Y-91627477D01*
X150645507Y-91579401D01*
X150647728Y-91576384D01*
X150683739Y-91530420D01*
X150687324Y-91522453D01*
X150698527Y-91502589D01*
X150703496Y-91495391D01*
X150724198Y-91440803D01*
X150725655Y-91437285D01*
X150733193Y-91420538D01*
X150749609Y-91384064D01*
X150751185Y-91375459D01*
X150757308Y-91353497D01*
X150760408Y-91345325D01*
X150767444Y-91287372D01*
X150768013Y-91283633D01*
X150778540Y-91226197D01*
X150775014Y-91167923D01*
X150774900Y-91164120D01*
X150774900Y-84095861D01*
X150775015Y-84092056D01*
X150778539Y-84033803D01*
X150768012Y-83976367D01*
X150767445Y-83972636D01*
X150760408Y-83914675D01*
X150757306Y-83906498D01*
X150751185Y-83884538D01*
X150749609Y-83875936D01*
X150725652Y-83822707D01*
X150724197Y-83819193D01*
X150717491Y-83801512D01*
X150703496Y-83764609D01*
X150698529Y-83757413D01*
X150687324Y-83737546D01*
X150683739Y-83729581D01*
X150683739Y-83729580D01*
X150663833Y-83704172D01*
X150647744Y-83683634D01*
X150645490Y-83680570D01*
X150627055Y-83653865D01*
X150612324Y-83632523D01*
X150568614Y-83593799D01*
X150565867Y-83591213D01*
X149897405Y-82922751D01*
X149863379Y-82860439D01*
X149860500Y-82833656D01*
X149860500Y-81739367D01*
X149860499Y-81739350D01*
X149853990Y-81678803D01*
X149853988Y-81678795D01*
X149802889Y-81541797D01*
X149802887Y-81541792D01*
X149715261Y-81424738D01*
X149598207Y-81337112D01*
X149598202Y-81337110D01*
X149461204Y-81286011D01*
X149461196Y-81286009D01*
X149400649Y-81279500D01*
X149400638Y-81279500D01*
X148306345Y-81279500D01*
X148238224Y-81259498D01*
X148217250Y-81242596D01*
X147294802Y-80320149D01*
X147292192Y-80317377D01*
X147253478Y-80273677D01*
X147253477Y-80273676D01*
X147205408Y-80240496D01*
X147202355Y-80238249D01*
X147156420Y-80202261D01*
X147148446Y-80198672D01*
X147128587Y-80187471D01*
X147121392Y-80182505D01*
X147121391Y-80182504D01*
X147121389Y-80182503D01*
X147066811Y-80161804D01*
X147063297Y-80160348D01*
X147010069Y-80136393D01*
X147010061Y-80136390D01*
X147004596Y-80135389D01*
X147001460Y-80134814D01*
X146979495Y-80128690D01*
X146971325Y-80125591D01*
X146913385Y-80118556D01*
X146909623Y-80117983D01*
X146852199Y-80107460D01*
X146852197Y-80107460D01*
X146793924Y-80110985D01*
X146790121Y-80111100D01*
X143531879Y-80111100D01*
X143528075Y-80110985D01*
X143469803Y-80107460D01*
X143469802Y-80107460D01*
X143469800Y-80107460D01*
X143469799Y-80107460D01*
X143412374Y-80117983D01*
X143408613Y-80118556D01*
X143350676Y-80125591D01*
X143342493Y-80128694D01*
X143320543Y-80134813D01*
X143311934Y-80136391D01*
X143258712Y-80160344D01*
X143255198Y-80161799D01*
X143200611Y-80182502D01*
X143200607Y-80182505D01*
X143193406Y-80187475D01*
X143173556Y-80198670D01*
X143165584Y-80202258D01*
X143119637Y-80238254D01*
X143116573Y-80240508D01*
X143068521Y-80273677D01*
X143029798Y-80317385D01*
X143027197Y-80320149D01*
X142003150Y-81344196D01*
X141940840Y-81378220D01*
X141914057Y-81381100D01*
X141806500Y-81381100D01*
X141738379Y-81361098D01*
X141691886Y-81307442D01*
X141680500Y-81255100D01*
X141680500Y-81093367D01*
X141680499Y-81093350D01*
X141673990Y-81032803D01*
X141673988Y-81032795D01*
X141622978Y-80896035D01*
X141622889Y-80895796D01*
X141622888Y-80895794D01*
X141622887Y-80895792D01*
X141535261Y-80778738D01*
X141418207Y-80691112D01*
X141418202Y-80691110D01*
X141281204Y-80640011D01*
X141281196Y-80640009D01*
X141220649Y-80633500D01*
X141220638Y-80633500D01*
X138623362Y-80633500D01*
X138623350Y-80633500D01*
X138562803Y-80640009D01*
X138562795Y-80640011D01*
X138425797Y-80691110D01*
X138425792Y-80691112D01*
X138308738Y-80778738D01*
X138221112Y-80895792D01*
X138221110Y-80895797D01*
X138170011Y-81032795D01*
X138170009Y-81032803D01*
X138163500Y-81093350D01*
X138163500Y-82990649D01*
X138170009Y-83051196D01*
X138170011Y-83051204D01*
X138221110Y-83188202D01*
X138221112Y-83188207D01*
X138308738Y-83305261D01*
X138425792Y-83392887D01*
X138425794Y-83392888D01*
X138425796Y-83392889D01*
X138484875Y-83414924D01*
X138562795Y-83443988D01*
X138562803Y-83443990D01*
X138623350Y-83450499D01*
X138623355Y-83450499D01*
X138623362Y-83450500D01*
X140608656Y-83450500D01*
X140676777Y-83470502D01*
X140723270Y-83524158D01*
X140733374Y-83594432D01*
X140703880Y-83659012D01*
X140697751Y-83665595D01*
X138233199Y-86130146D01*
X138170887Y-86164172D01*
X138100071Y-86159107D01*
X138043236Y-86116560D01*
X138024271Y-86079987D01*
X137994527Y-85988444D01*
X137899040Y-85823056D01*
X137899038Y-85823054D01*
X137899034Y-85823048D01*
X137771255Y-85681135D01*
X137616752Y-85568882D01*
X137442288Y-85491206D01*
X137255487Y-85451500D01*
X137064513Y-85451500D01*
X136877709Y-85491206D01*
X136763117Y-85542226D01*
X136692750Y-85551660D01*
X136628453Y-85521553D01*
X136590640Y-85461464D01*
X136589399Y-85405010D01*
X136588652Y-85404930D01*
X136589270Y-85399174D01*
X136589248Y-85398134D01*
X136589495Y-85397088D01*
X136595999Y-85336597D01*
X136596000Y-85336585D01*
X136596000Y-85217000D01*
X133930000Y-85217000D01*
X133930000Y-85336597D01*
X133936505Y-85397093D01*
X133987555Y-85533964D01*
X133989263Y-85537092D01*
X133990019Y-85540571D01*
X133990704Y-85542406D01*
X133990440Y-85542504D01*
X134004352Y-85606467D01*
X133989264Y-85657852D01*
X133987111Y-85661795D01*
X133936011Y-85798795D01*
X133936009Y-85798803D01*
X133929500Y-85859350D01*
X133929500Y-86606649D01*
X133936009Y-86667196D01*
X133936011Y-86667204D01*
X133987112Y-86804209D01*
X133988977Y-86807624D01*
X133989802Y-86811420D01*
X133990260Y-86812647D01*
X133990083Y-86812712D01*
X134004063Y-86876999D01*
X133988977Y-86928376D01*
X133987112Y-86931790D01*
X133936011Y-87068795D01*
X133936009Y-87068803D01*
X133929500Y-87129350D01*
X133929500Y-87876649D01*
X133936009Y-87937196D01*
X133936011Y-87937204D01*
X133987109Y-88074200D01*
X133988972Y-88077611D01*
X133989798Y-88081409D01*
X133990260Y-88082647D01*
X133990082Y-88082713D01*
X134004065Y-88146985D01*
X133988977Y-88198379D01*
X133987109Y-88201799D01*
X133936011Y-88338795D01*
X133936009Y-88338803D01*
X133929500Y-88399350D01*
X133929500Y-89146649D01*
X132334500Y-89146649D01*
X132334500Y-84709000D01*
X133930000Y-84709000D01*
X135009000Y-84709000D01*
X135009000Y-84130000D01*
X135517000Y-84130000D01*
X135517000Y-84709000D01*
X136596000Y-84709000D01*
X136596000Y-84589414D01*
X136595999Y-84589402D01*
X136589494Y-84528906D01*
X136538444Y-84392035D01*
X136538444Y-84392034D01*
X136450904Y-84275095D01*
X136333965Y-84187555D01*
X136197093Y-84136505D01*
X136136597Y-84130000D01*
X135517000Y-84130000D01*
X135009000Y-84130000D01*
X134389402Y-84130000D01*
X134328906Y-84136505D01*
X134192035Y-84187555D01*
X134192034Y-84187555D01*
X134075095Y-84275095D01*
X133987555Y-84392034D01*
X133987555Y-84392035D01*
X133936505Y-84528906D01*
X133930000Y-84589402D01*
X133930000Y-84709000D01*
X132334500Y-84709000D01*
X132334500Y-82296000D01*
X134164000Y-82296000D01*
X134164000Y-82990597D01*
X134170505Y-83051093D01*
X134221555Y-83187964D01*
X134221555Y-83187965D01*
X134309095Y-83304904D01*
X134426034Y-83392444D01*
X134562906Y-83443494D01*
X134623402Y-83449999D01*
X134623415Y-83450000D01*
X135668000Y-83450000D01*
X135668000Y-82296000D01*
X136176000Y-82296000D01*
X136176000Y-83450000D01*
X137220585Y-83450000D01*
X137220597Y-83449999D01*
X137281093Y-83443494D01*
X137417964Y-83392444D01*
X137417965Y-83392444D01*
X137534904Y-83304904D01*
X137622444Y-83187965D01*
X137622444Y-83187964D01*
X137673494Y-83051093D01*
X137679999Y-82990597D01*
X137680000Y-82990585D01*
X137680000Y-82296000D01*
X136176000Y-82296000D01*
X135668000Y-82296000D01*
X134164000Y-82296000D01*
X132334500Y-82296000D01*
X132334500Y-81788000D01*
X134164000Y-81788000D01*
X135668000Y-81788000D01*
X135668000Y-80634000D01*
X136176000Y-80634000D01*
X136176000Y-81788000D01*
X137680000Y-81788000D01*
X137680000Y-81093414D01*
X137679999Y-81093402D01*
X137673494Y-81032906D01*
X137622444Y-80896035D01*
X137622444Y-80896034D01*
X137534904Y-80779095D01*
X137417965Y-80691555D01*
X137281093Y-80640505D01*
X137220597Y-80634000D01*
X136176000Y-80634000D01*
X135668000Y-80634000D01*
X134623402Y-80634000D01*
X134562906Y-80640505D01*
X134426035Y-80691555D01*
X134426034Y-80691555D01*
X134309095Y-80779095D01*
X134221555Y-80896034D01*
X134221555Y-80896035D01*
X134170505Y-81032906D01*
X134164000Y-81093402D01*
X134164000Y-81788000D01*
X132334500Y-81788000D01*
X132334500Y-71500500D01*
X132354502Y-71432379D01*
X132408158Y-71385886D01*
X132460500Y-71374500D01*
X152019500Y-71374500D01*
X152087621Y-71394502D01*
G37*
%TD.AperFunction*%
%TD*%
M02*
