%TF.GenerationSoftware,KiCad,Pcbnew,7.0.7-7.0.7~ubuntu23.04.1*%
%TF.CreationDate,2023-09-06T21:35:38+00:00*%
%TF.ProjectId,FRAM01,4652414d-3031-42e6-9b69-6361645f7063,rev?*%
%TF.SameCoordinates,Original*%
%TF.FileFunction,Copper,L2,Bot*%
%TF.FilePolarity,Positive*%
%FSLAX46Y46*%
G04 Gerber Fmt 4.6, Leading zero omitted, Abs format (unit mm)*
G04 Created by KiCad (PCBNEW 7.0.7-7.0.7~ubuntu23.04.1) date 2023-09-06 21:35:38*
%MOMM*%
%LPD*%
G01*
G04 APERTURE LIST*
G04 Aperture macros list*
%AMRoundRect*
0 Rectangle with rounded corners*
0 $1 Rounding radius*
0 $2 $3 $4 $5 $6 $7 $8 $9 X,Y pos of 4 corners*
0 Add a 4 corners polygon primitive as box body*
4,1,4,$2,$3,$4,$5,$6,$7,$8,$9,$2,$3,0*
0 Add four circle primitives for the rounded corners*
1,1,$1+$1,$2,$3*
1,1,$1+$1,$4,$5*
1,1,$1+$1,$6,$7*
1,1,$1+$1,$8,$9*
0 Add four rect primitives between the rounded corners*
20,1,$1+$1,$2,$3,$4,$5,0*
20,1,$1+$1,$4,$5,$6,$7,0*
20,1,$1+$1,$6,$7,$8,$9,0*
20,1,$1+$1,$8,$9,$2,$3,0*%
G04 Aperture macros list end*
%TA.AperFunction,ComponentPad*%
%ADD10C,6.000000*%
%TD*%
%TA.AperFunction,ComponentPad*%
%ADD11R,1.524000X1.524000*%
%TD*%
%TA.AperFunction,SMDPad,CuDef*%
%ADD12R,1.650000X0.650000*%
%TD*%
%TA.AperFunction,SMDPad,CuDef*%
%ADD13RoundRect,0.250000X0.300000X-0.300000X0.300000X0.300000X-0.300000X0.300000X-0.300000X-0.300000X0*%
%TD*%
%TA.AperFunction,SMDPad,CuDef*%
%ADD14RoundRect,0.250000X0.250000X0.475000X-0.250000X0.475000X-0.250000X-0.475000X0.250000X-0.475000X0*%
%TD*%
%TA.AperFunction,SMDPad,CuDef*%
%ADD15C,1.000000*%
%TD*%
%TA.AperFunction,ViaPad*%
%ADD16C,0.800000*%
%TD*%
%TA.AperFunction,Conductor*%
%ADD17C,0.304800*%
%TD*%
%TA.AperFunction,Conductor*%
%ADD18C,0.250000*%
%TD*%
%TA.AperFunction,Conductor*%
%ADD19C,0.300000*%
%TD*%
G04 APERTURE END LIST*
D10*
%TO.P,M4,1*%
%TO.N,GND*%
X147320000Y-96520000D03*
%TD*%
%TO.P,M1,1*%
%TO.N,GND*%
X137160000Y-76200000D03*
%TD*%
%TO.P,M3,1*%
%TO.N,GND*%
X147320000Y-76200000D03*
%TD*%
D11*
%TO.P,J2,1*%
%TO.N,MISO*%
X145400000Y-82550000D03*
%TO.P,J2,2*%
%TO.N,+3.3V*%
X147940000Y-82550000D03*
%TO.P,J2,3*%
%TO.N,SCK*%
X145400000Y-85090000D03*
%TO.P,J2,4*%
%TO.N,MOSI*%
X147940000Y-85090000D03*
%TO.P,J2,5*%
%TO.N,~{CS}*%
X145400000Y-87630000D03*
%TO.P,J2,6*%
%TO.N,GND*%
X147940000Y-87630000D03*
%TO.P,J2,7*%
%TO.N,~{WP}*%
X145400000Y-90170000D03*
%TO.P,J2,8*%
%TO.N,GND*%
X147940000Y-90170000D03*
%TD*%
D10*
%TO.P,M2,1*%
%TO.N,GND*%
X137160000Y-96520000D03*
%TD*%
D12*
%TO.P,IC1,1,~{CS}*%
%TO.N,~{CS}*%
X135263000Y-88773000D03*
%TO.P,IC1,2,SO*%
%TO.N,MISO*%
X135263000Y-87503000D03*
%TO.P,IC1,3,~{WP}*%
%TO.N,~{WP}*%
X135263000Y-86233000D03*
%TO.P,IC1,4,VSS*%
%TO.N,GND*%
X135263000Y-84963000D03*
%TO.P,IC1,5,SI*%
%TO.N,MOSI*%
X142613000Y-84963000D03*
%TO.P,IC1,6,SCK*%
%TO.N,SCK*%
X142613000Y-86233000D03*
%TO.P,IC1,7,DNU*%
%TO.N,unconnected-(IC1-DNU-Pad7)*%
X142613000Y-87503000D03*
%TO.P,IC1,8,VDD*%
%TO.N,+3.3V*%
X142613000Y-88773000D03*
%TD*%
D13*
%TO.P,D1,1,K*%
%TO.N,+3.3V*%
X150500000Y-85000000D03*
%TO.P,D1,2,A*%
%TO.N,GND*%
X150500000Y-82200000D03*
%TD*%
D14*
%TO.P,C1,1*%
%TO.N,+3.3V*%
X143190000Y-93200000D03*
%TO.P,C1,2*%
%TO.N,GND*%
X141290000Y-93200000D03*
%TD*%
D15*
%TO.P,FID2,*%
%TO.N,*%
X140000000Y-80000000D03*
%TD*%
%TO.P,FID1,*%
%TO.N,*%
X142000000Y-97000000D03*
%TD*%
D14*
%TO.P,C2,1*%
%TO.N,+3.3V*%
X141732000Y-90932000D03*
%TO.P,C2,2*%
%TO.N,GND*%
X139832000Y-90932000D03*
%TD*%
D16*
%TO.N,GND*%
X138176000Y-91440000D03*
X133604000Y-90100000D03*
X140800000Y-85700000D03*
X141478000Y-94742000D03*
X142748000Y-94742000D03*
X138176000Y-90424000D03*
X133000000Y-86400000D03*
X139700000Y-92710000D03*
%TO.N,~{CS}*%
X140900000Y-87630000D03*
%TO.N,~{WP}*%
X136800000Y-86360000D03*
%TD*%
D17*
%TO.N,~{CS}*%
X140900000Y-87630000D02*
X139757000Y-88773000D01*
X139757000Y-88773000D02*
X135263000Y-88773000D01*
%TO.N,MISO*%
X135263000Y-87503000D02*
X137397000Y-87503000D01*
X137397000Y-87503000D02*
X142350000Y-82550000D01*
X142350000Y-82550000D02*
X145400000Y-82550000D01*
%TO.N,~{WP}*%
X136800000Y-86360000D02*
X135390000Y-86360000D01*
D18*
X135390000Y-86360000D02*
X135263000Y-86233000D01*
D17*
%TO.N,MOSI*%
X146620000Y-83820000D02*
X147890000Y-85090000D01*
X142613000Y-84963000D02*
X143250896Y-84963000D01*
X144393896Y-83820000D02*
X146620000Y-83820000D01*
X143250896Y-84963000D02*
X144393896Y-83820000D01*
%TO.N,SCK*%
X145400000Y-85090000D02*
X144257000Y-86233000D01*
X144257000Y-86233000D02*
X142613000Y-86233000D01*
D19*
%TO.N,+3.3V*%
X145390000Y-92100000D02*
X149700000Y-92100000D01*
X141732000Y-90932000D02*
X142432000Y-90932000D01*
X141732000Y-89268000D02*
X142227000Y-88773000D01*
X143190000Y-91690000D02*
X143190000Y-92540000D01*
X143426000Y-92964000D02*
X144526000Y-92964000D01*
X149700000Y-92100000D02*
X150600000Y-91200000D01*
X142432000Y-90932000D02*
X143190000Y-91690000D01*
X150600000Y-91200000D02*
X150600000Y-85210000D01*
X150600000Y-85210000D02*
X147940000Y-82550000D01*
X141732000Y-90932000D02*
X141732000Y-89268000D01*
X144526000Y-92964000D02*
X145390000Y-92100000D01*
X142227000Y-88773000D02*
X142613000Y-88773000D01*
%TD*%
%TA.AperFunction,Conductor*%
%TO.N,GND*%
G36*
X149171503Y-84418606D02*
G01*
X149620504Y-84867607D01*
X149648281Y-84922124D01*
X149649500Y-84937611D01*
X149649500Y-85343106D01*
X149660123Y-85431565D01*
X149715637Y-85572339D01*
X149715638Y-85572341D01*
X149715639Y-85572342D01*
X149807078Y-85692922D01*
X149927658Y-85784361D01*
X149927659Y-85784361D01*
X149927660Y-85784362D01*
X150068430Y-85839875D01*
X150068432Y-85839875D01*
X150068436Y-85839877D01*
X150068439Y-85839877D01*
X150074590Y-85841432D01*
X150073813Y-85844503D01*
X150117700Y-85864735D01*
X150147597Y-85918119D01*
X150149500Y-85937434D01*
X150149500Y-90972388D01*
X150130593Y-91030579D01*
X150120504Y-91042392D01*
X149542393Y-91620504D01*
X149487876Y-91648281D01*
X149472389Y-91649500D01*
X145418087Y-91649500D01*
X145412541Y-91649189D01*
X145372966Y-91644730D01*
X145372961Y-91644730D01*
X145314510Y-91655789D01*
X145255714Y-91664651D01*
X145248632Y-91666836D01*
X145248503Y-91666418D01*
X145246386Y-91667114D01*
X145246531Y-91667526D01*
X145239528Y-91669976D01*
X145233873Y-91672965D01*
X145186926Y-91697777D01*
X145156276Y-91712538D01*
X145133359Y-91723574D01*
X145127233Y-91727751D01*
X145126987Y-91727391D01*
X145125172Y-91728679D01*
X145125430Y-91729029D01*
X145119464Y-91733432D01*
X145077413Y-91775483D01*
X145033804Y-91815945D01*
X145029181Y-91821743D01*
X145028837Y-91821468D01*
X145020295Y-91832601D01*
X144368393Y-92484504D01*
X144313876Y-92512281D01*
X144298389Y-92513500D01*
X144015733Y-92513500D01*
X143957542Y-92494593D01*
X143929038Y-92457795D01*
X143927679Y-92458560D01*
X143924363Y-92452663D01*
X143924361Y-92452658D01*
X143832922Y-92332078D01*
X143712342Y-92240639D01*
X143712340Y-92240638D01*
X143703180Y-92237026D01*
X143655983Y-92198088D01*
X143640500Y-92144929D01*
X143640500Y-91718085D01*
X143640811Y-91712538D01*
X143643016Y-91692967D01*
X143645270Y-91672965D01*
X143634210Y-91614508D01*
X143625348Y-91555713D01*
X143625345Y-91555707D01*
X143623160Y-91548619D01*
X143623582Y-91548488D01*
X143622892Y-91546390D01*
X143622476Y-91546536D01*
X143620024Y-91539530D01*
X143620024Y-91539528D01*
X143592216Y-91486915D01*
X143566425Y-91433358D01*
X143566423Y-91433356D01*
X143562247Y-91427230D01*
X143562610Y-91426982D01*
X143561324Y-91425168D01*
X143560970Y-91425430D01*
X143556566Y-91419462D01*
X143514504Y-91377400D01*
X143474059Y-91333810D01*
X143474057Y-91333809D01*
X143474055Y-91333806D01*
X143474051Y-91333803D01*
X143468259Y-91329185D01*
X143468533Y-91328840D01*
X143457400Y-91320296D01*
X143113964Y-90976860D01*
X144337500Y-90976860D01*
X144337501Y-90976863D01*
X144340414Y-91001990D01*
X144353038Y-91030579D01*
X144385794Y-91104765D01*
X144465235Y-91184206D01*
X144568009Y-91229585D01*
X144593135Y-91232500D01*
X146206864Y-91232499D01*
X146231991Y-91229585D01*
X146334765Y-91184206D01*
X146414206Y-91104765D01*
X146459585Y-91001991D01*
X146462500Y-90976865D01*
X146462499Y-89915999D01*
X146878000Y-89915999D01*
X146878001Y-89916000D01*
X147417901Y-89916000D01*
X147476092Y-89934907D01*
X147512056Y-89984407D01*
X147514418Y-90037028D01*
X147491736Y-90136407D01*
X147491735Y-90136407D01*
X147501748Y-90270024D01*
X147501748Y-90270026D01*
X147509129Y-90288831D01*
X147512788Y-90349907D01*
X147479848Y-90401469D01*
X147422892Y-90423823D01*
X147416972Y-90424000D01*
X146878002Y-90424000D01*
X146878001Y-90424001D01*
X146878001Y-90976791D01*
X146880909Y-91001874D01*
X146926213Y-91104477D01*
X147005522Y-91183786D01*
X147108127Y-91229090D01*
X147133203Y-91231999D01*
X147685998Y-91231999D01*
X147686000Y-91231998D01*
X147686000Y-90690957D01*
X147704907Y-90632766D01*
X147754407Y-90596802D01*
X147814177Y-90596355D01*
X147873002Y-90614500D01*
X147873006Y-90614500D01*
X147973307Y-90614500D01*
X147973312Y-90614500D01*
X147996777Y-90610963D01*
X148079836Y-90598445D01*
X148080348Y-90601846D01*
X148126887Y-90602488D01*
X148175887Y-90639130D01*
X148194000Y-90696212D01*
X148194000Y-91231998D01*
X148194001Y-91231999D01*
X148746790Y-91231999D01*
X148746791Y-91231998D01*
X148771874Y-91229090D01*
X148874477Y-91183786D01*
X148953786Y-91104477D01*
X148999090Y-91001872D01*
X149001999Y-90976797D01*
X149002000Y-90976795D01*
X149002000Y-90424000D01*
X148462099Y-90424000D01*
X148403908Y-90405093D01*
X148367944Y-90355593D01*
X148365581Y-90302971D01*
X148388264Y-90203593D01*
X148378251Y-90069972D01*
X148370870Y-90051168D01*
X148367212Y-89990093D01*
X148400152Y-89938531D01*
X148457108Y-89916177D01*
X148463028Y-89916000D01*
X149001998Y-89916000D01*
X149001999Y-89915999D01*
X149001999Y-89363210D01*
X149001998Y-89363208D01*
X148999090Y-89338125D01*
X148953786Y-89235522D01*
X148874477Y-89156213D01*
X148771872Y-89110909D01*
X148746797Y-89108000D01*
X148194001Y-89108000D01*
X148194000Y-89108001D01*
X148194000Y-89649042D01*
X148175093Y-89707233D01*
X148125593Y-89743197D01*
X148065820Y-89743644D01*
X148006998Y-89725500D01*
X147906688Y-89725500D01*
X147906682Y-89725500D01*
X147800164Y-89741555D01*
X147799656Y-89738188D01*
X147752905Y-89737440D01*
X147703986Y-89700689D01*
X147686000Y-89643787D01*
X147686000Y-89108001D01*
X147685999Y-89108000D01*
X147133210Y-89108000D01*
X147133207Y-89108001D01*
X147108125Y-89110909D01*
X147005522Y-89156213D01*
X146926213Y-89235522D01*
X146880909Y-89338127D01*
X146878000Y-89363202D01*
X146878000Y-89915999D01*
X146462499Y-89915999D01*
X146462499Y-89363136D01*
X146459585Y-89338009D01*
X146414206Y-89235235D01*
X146334765Y-89155794D01*
X146231991Y-89110415D01*
X146231990Y-89110414D01*
X146231988Y-89110414D01*
X146206868Y-89107500D01*
X144593139Y-89107500D01*
X144593136Y-89107501D01*
X144568009Y-89110414D01*
X144465235Y-89155794D01*
X144385794Y-89235235D01*
X144340414Y-89338011D01*
X144337500Y-89363130D01*
X144337500Y-90976860D01*
X143113964Y-90976860D01*
X142770402Y-90633298D01*
X142766700Y-90629155D01*
X142755013Y-90614500D01*
X142741879Y-90598030D01*
X142692728Y-90564519D01*
X142644882Y-90529207D01*
X142644879Y-90529205D01*
X142638322Y-90525740D01*
X142638526Y-90525352D01*
X142636544Y-90524352D01*
X142636355Y-90524746D01*
X142629672Y-90521527D01*
X142602317Y-90513089D01*
X142552286Y-90477869D01*
X142532511Y-90419967D01*
X142532500Y-90418488D01*
X142532500Y-90413899D01*
X142532499Y-90413893D01*
X142521877Y-90325436D01*
X142466361Y-90184658D01*
X142374922Y-90064078D01*
X142254342Y-89972639D01*
X142254340Y-89972638D01*
X142245180Y-89969026D01*
X142197983Y-89930088D01*
X142182500Y-89876929D01*
X142182500Y-89497499D01*
X142201407Y-89439308D01*
X142250907Y-89403344D01*
X142281500Y-89398499D01*
X143482861Y-89398499D01*
X143482864Y-89398499D01*
X143507991Y-89395585D01*
X143610765Y-89350206D01*
X143690206Y-89270765D01*
X143735585Y-89167991D01*
X143738500Y-89142865D01*
X143738499Y-88403136D01*
X143735585Y-88378009D01*
X143690206Y-88275235D01*
X143690204Y-88275233D01*
X143622974Y-88208002D01*
X143595197Y-88153485D01*
X143604769Y-88093053D01*
X143622972Y-88067998D01*
X143690206Y-88000765D01*
X143735585Y-87897991D01*
X143738500Y-87872865D01*
X143738499Y-87133136D01*
X143735585Y-87108009D01*
X143690206Y-87005235D01*
X143622972Y-86938001D01*
X143595197Y-86883487D01*
X143604768Y-86823055D01*
X143622971Y-86797999D01*
X143690206Y-86730765D01*
X143690207Y-86730760D01*
X143691449Y-86728950D01*
X143693928Y-86727041D01*
X143696692Y-86724278D01*
X143697051Y-86724637D01*
X143739934Y-86691629D01*
X143773123Y-86685900D01*
X144228781Y-86685900D01*
X144234324Y-86686211D01*
X144243914Y-86687291D01*
X144253140Y-86688330D01*
X144308849Y-86713629D01*
X144339048Y-86766843D01*
X144340402Y-86798117D01*
X144337500Y-86823128D01*
X144337500Y-88436860D01*
X144337501Y-88436863D01*
X144340414Y-88461990D01*
X144365756Y-88519384D01*
X144385794Y-88564765D01*
X144465235Y-88644206D01*
X144568009Y-88689585D01*
X144593135Y-88692500D01*
X146206864Y-88692499D01*
X146231991Y-88689585D01*
X146334765Y-88644206D01*
X146414206Y-88564765D01*
X146459585Y-88461991D01*
X146462500Y-88436865D01*
X146462499Y-87375999D01*
X146878000Y-87375999D01*
X146878001Y-87376000D01*
X147417901Y-87376000D01*
X147476092Y-87394907D01*
X147512056Y-87444407D01*
X147514418Y-87497028D01*
X147491736Y-87596407D01*
X147491735Y-87596407D01*
X147501748Y-87730024D01*
X147501748Y-87730026D01*
X147509129Y-87748831D01*
X147512788Y-87809907D01*
X147479848Y-87861469D01*
X147422892Y-87883823D01*
X147416972Y-87884000D01*
X146878002Y-87884000D01*
X146878001Y-87884001D01*
X146878001Y-88436791D01*
X146880909Y-88461874D01*
X146926213Y-88564477D01*
X147005522Y-88643786D01*
X147108127Y-88689090D01*
X147133203Y-88691999D01*
X147685998Y-88691999D01*
X147686000Y-88691998D01*
X147686000Y-88150957D01*
X147704907Y-88092766D01*
X147754407Y-88056802D01*
X147814177Y-88056355D01*
X147873002Y-88074500D01*
X147873006Y-88074500D01*
X147973307Y-88074500D01*
X147973312Y-88074500D01*
X147996777Y-88070963D01*
X148079836Y-88058445D01*
X148080348Y-88061846D01*
X148126887Y-88062488D01*
X148175887Y-88099130D01*
X148194000Y-88156212D01*
X148194000Y-88691998D01*
X148194001Y-88691999D01*
X148746790Y-88691999D01*
X148746791Y-88691998D01*
X148771874Y-88689090D01*
X148874477Y-88643786D01*
X148953786Y-88564477D01*
X148999090Y-88461872D01*
X149001999Y-88436797D01*
X149002000Y-88436795D01*
X149002000Y-87884000D01*
X148462099Y-87884000D01*
X148403908Y-87865093D01*
X148367944Y-87815593D01*
X148365581Y-87762971D01*
X148388264Y-87663593D01*
X148385746Y-87629997D01*
X148378251Y-87529975D01*
X148378251Y-87529973D01*
X148370871Y-87511169D01*
X148367212Y-87450093D01*
X148400152Y-87398531D01*
X148457108Y-87376177D01*
X148463028Y-87376000D01*
X149001998Y-87376000D01*
X149001999Y-87375998D01*
X149001999Y-86823210D01*
X149001998Y-86823208D01*
X148999090Y-86798125D01*
X148953786Y-86695522D01*
X148874477Y-86616213D01*
X148771872Y-86570909D01*
X148746797Y-86568000D01*
X148194001Y-86568000D01*
X148194000Y-86568001D01*
X148194000Y-87109042D01*
X148175093Y-87167233D01*
X148125593Y-87203197D01*
X148065820Y-87203644D01*
X148006998Y-87185500D01*
X147906688Y-87185500D01*
X147906682Y-87185500D01*
X147800164Y-87201555D01*
X147799656Y-87198188D01*
X147752905Y-87197440D01*
X147703986Y-87160689D01*
X147686000Y-87103787D01*
X147686000Y-86568001D01*
X147685999Y-86568000D01*
X147133210Y-86568000D01*
X147133207Y-86568001D01*
X147108125Y-86570909D01*
X147005522Y-86616213D01*
X146926213Y-86695522D01*
X146880909Y-86798127D01*
X146878000Y-86823202D01*
X146878000Y-87375999D01*
X146462499Y-87375999D01*
X146462499Y-86823136D01*
X146459585Y-86798009D01*
X146414206Y-86695235D01*
X146334765Y-86615794D01*
X146231991Y-86570415D01*
X146231990Y-86570414D01*
X146231988Y-86570414D01*
X146206869Y-86567500D01*
X144802002Y-86567500D01*
X144743811Y-86548593D01*
X144707847Y-86499093D01*
X144707847Y-86437907D01*
X144731996Y-86398500D01*
X144949001Y-86181494D01*
X145003517Y-86153718D01*
X145019004Y-86152499D01*
X146206861Y-86152499D01*
X146206864Y-86152499D01*
X146231991Y-86149585D01*
X146334765Y-86104206D01*
X146414206Y-86024765D01*
X146459585Y-85921991D01*
X146462500Y-85896865D01*
X146462499Y-84542003D01*
X146481406Y-84483813D01*
X146530906Y-84447849D01*
X146592092Y-84447849D01*
X146631503Y-84472000D01*
X146848504Y-84689001D01*
X146876281Y-84743518D01*
X146877500Y-84759005D01*
X146877500Y-85896860D01*
X146877501Y-85896863D01*
X146880414Y-85921990D01*
X146905756Y-85979385D01*
X146925794Y-86024765D01*
X147005235Y-86104206D01*
X147108009Y-86149585D01*
X147133135Y-86152500D01*
X148746864Y-86152499D01*
X148771991Y-86149585D01*
X148874765Y-86104206D01*
X148954206Y-86024765D01*
X148999585Y-85921991D01*
X149002500Y-85896865D01*
X149002499Y-84488609D01*
X149021406Y-84430419D01*
X149070906Y-84394455D01*
X149132092Y-84394455D01*
X149171503Y-84418606D01*
G37*
%TD.AperFunction*%
%TA.AperFunction,Conductor*%
G36*
X144296692Y-83021807D02*
G01*
X144332656Y-83071307D01*
X144337501Y-83101900D01*
X144337501Y-83285287D01*
X144318594Y-83343478D01*
X144269094Y-83379442D01*
X144265540Y-83380281D01*
X144251809Y-83384517D01*
X144251681Y-83384103D01*
X144249479Y-83384827D01*
X144249623Y-83385236D01*
X144242625Y-83387684D01*
X144189765Y-83415622D01*
X144135889Y-83441567D01*
X144129762Y-83445745D01*
X144129517Y-83445387D01*
X144127630Y-83446726D01*
X144127887Y-83447074D01*
X144121917Y-83451480D01*
X144079634Y-83493763D01*
X144035802Y-83534435D01*
X144031179Y-83540232D01*
X144030839Y-83539961D01*
X144022274Y-83551122D01*
X143264893Y-84308504D01*
X143210376Y-84336281D01*
X143194889Y-84337500D01*
X141743139Y-84337500D01*
X141743136Y-84337501D01*
X141718009Y-84340414D01*
X141615235Y-84385794D01*
X141535794Y-84465235D01*
X141490414Y-84568011D01*
X141487500Y-84593130D01*
X141487500Y-85332860D01*
X141487501Y-85332863D01*
X141490414Y-85357990D01*
X141522901Y-85431565D01*
X141535794Y-85460765D01*
X141603026Y-85527997D01*
X141630803Y-85582511D01*
X141621232Y-85642943D01*
X141603026Y-85668002D01*
X141535795Y-85735233D01*
X141535794Y-85735234D01*
X141535794Y-85735235D01*
X141519909Y-85771212D01*
X141490414Y-85838011D01*
X141487500Y-85863130D01*
X141487500Y-86602860D01*
X141487501Y-86602863D01*
X141490414Y-86627990D01*
X141507603Y-86666919D01*
X141535794Y-86730765D01*
X141603027Y-86797998D01*
X141630803Y-86852513D01*
X141621232Y-86912945D01*
X141603028Y-86938000D01*
X141535794Y-87005235D01*
X141535793Y-87005236D01*
X141510509Y-87062499D01*
X141469708Y-87108094D01*
X141409899Y-87120999D01*
X141354296Y-87096613D01*
X141300853Y-87049267D01*
X141300852Y-87049266D01*
X141150225Y-86970210D01*
X141150224Y-86970209D01*
X141150223Y-86970209D01*
X140985058Y-86929500D01*
X140985056Y-86929500D01*
X140814944Y-86929500D01*
X140814941Y-86929500D01*
X140649776Y-86970209D01*
X140499146Y-87049267D01*
X140371818Y-87162069D01*
X140371816Y-87162072D01*
X140343121Y-87203644D01*
X140275182Y-87302070D01*
X140221202Y-87444407D01*
X140214860Y-87461129D01*
X140194355Y-87629997D01*
X140194355Y-87630003D01*
X140195598Y-87640242D01*
X140183842Y-87700287D01*
X140167324Y-87722176D01*
X139598400Y-88291103D01*
X139543883Y-88318881D01*
X139528396Y-88320100D01*
X136423123Y-88320100D01*
X136364932Y-88301193D01*
X136341449Y-88277050D01*
X136340207Y-88275237D01*
X136340206Y-88275235D01*
X136340204Y-88275233D01*
X136272974Y-88208002D01*
X136245197Y-88153485D01*
X136254769Y-88093053D01*
X136272972Y-88067998D01*
X136340206Y-88000765D01*
X136340207Y-88000760D01*
X136341449Y-87998950D01*
X136343933Y-87997037D01*
X136346693Y-87994278D01*
X136347052Y-87994637D01*
X136389934Y-87961629D01*
X136423123Y-87955900D01*
X137368782Y-87955900D01*
X137374328Y-87956211D01*
X137414125Y-87960695D01*
X137472862Y-87949581D01*
X137532003Y-87940668D01*
X137532007Y-87940665D01*
X137539099Y-87938479D01*
X137539228Y-87938898D01*
X137541413Y-87938179D01*
X137541268Y-87937765D01*
X137548266Y-87935315D01*
X137548273Y-87935314D01*
X137574701Y-87921345D01*
X137601130Y-87907378D01*
X137655004Y-87881434D01*
X137655004Y-87881433D01*
X137655010Y-87881431D01*
X137655014Y-87881426D01*
X137661138Y-87877252D01*
X137661385Y-87877615D01*
X137663266Y-87876280D01*
X137663006Y-87875927D01*
X137668976Y-87871521D01*
X137668976Y-87871520D01*
X137668979Y-87871519D01*
X137690119Y-87850377D01*
X137711262Y-87829236D01*
X137727006Y-87814626D01*
X137755091Y-87788568D01*
X137755096Y-87788558D01*
X137759718Y-87782765D01*
X137760059Y-87783037D01*
X137768620Y-87771876D01*
X142508600Y-83031896D01*
X142563118Y-83004119D01*
X142578605Y-83002900D01*
X144238501Y-83002900D01*
X144296692Y-83021807D01*
G37*
%TD.AperFunction*%
%TA.AperFunction,Conductor*%
G36*
X152104691Y-71393407D02*
G01*
X152140655Y-71442907D01*
X152145500Y-71473500D01*
X152145500Y-101246500D01*
X152126593Y-101304691D01*
X152077093Y-101340655D01*
X152046500Y-101345500D01*
X132433500Y-101345500D01*
X132375309Y-101326593D01*
X132339345Y-101277093D01*
X132334500Y-101246500D01*
X132334500Y-97000003D01*
X140994659Y-97000003D01*
X141013974Y-97196126D01*
X141013975Y-97196129D01*
X141071187Y-97384730D01*
X141071188Y-97384732D01*
X141142218Y-97517618D01*
X141164090Y-97558538D01*
X141164092Y-97558540D01*
X141164093Y-97558542D01*
X141289112Y-97710878D01*
X141289121Y-97710887D01*
X141441457Y-97835906D01*
X141441462Y-97835910D01*
X141615273Y-97928814D01*
X141803868Y-97986024D01*
X141803870Y-97986024D01*
X141803873Y-97986025D01*
X141999997Y-98005341D01*
X142000000Y-98005341D01*
X142000003Y-98005341D01*
X142196126Y-97986025D01*
X142196127Y-97986024D01*
X142196132Y-97986024D01*
X142384727Y-97928814D01*
X142558538Y-97835910D01*
X142710883Y-97710883D01*
X142835910Y-97558538D01*
X142928814Y-97384727D01*
X142986024Y-97196132D01*
X143005341Y-97000000D01*
X143005341Y-96999996D01*
X142986025Y-96803873D01*
X142986024Y-96803870D01*
X142986024Y-96803868D01*
X142928814Y-96615273D01*
X142835910Y-96441462D01*
X142835906Y-96441457D01*
X142710887Y-96289121D01*
X142710878Y-96289112D01*
X142558542Y-96164093D01*
X142558540Y-96164092D01*
X142558538Y-96164090D01*
X142517618Y-96142218D01*
X142384732Y-96071188D01*
X142384730Y-96071187D01*
X142196129Y-96013975D01*
X142196126Y-96013974D01*
X142000003Y-95994659D01*
X141999997Y-95994659D01*
X141803873Y-96013974D01*
X141803870Y-96013975D01*
X141615269Y-96071187D01*
X141615267Y-96071188D01*
X141441467Y-96164087D01*
X141441457Y-96164093D01*
X141289121Y-96289112D01*
X141289112Y-96289121D01*
X141164093Y-96441457D01*
X141164087Y-96441467D01*
X141071188Y-96615267D01*
X141071187Y-96615269D01*
X141013975Y-96803870D01*
X141013974Y-96803873D01*
X140994659Y-96999996D01*
X140994659Y-97000003D01*
X132334500Y-97000003D01*
X132334500Y-93718064D01*
X140490000Y-93718064D01*
X140500613Y-93806443D01*
X140556080Y-93947095D01*
X140647435Y-94067564D01*
X140767904Y-94158919D01*
X140908556Y-94214386D01*
X140996935Y-94224999D01*
X140996942Y-94225000D01*
X141035999Y-94225000D01*
X141036000Y-94224999D01*
X141544000Y-94224999D01*
X141544001Y-94225000D01*
X141583058Y-94225000D01*
X141583064Y-94224999D01*
X141671443Y-94214386D01*
X141812095Y-94158919D01*
X141932564Y-94067564D01*
X142023919Y-93947095D01*
X142079386Y-93806443D01*
X142089999Y-93718064D01*
X142090000Y-93718058D01*
X142090000Y-93454000D01*
X141544001Y-93454000D01*
X141544000Y-93454001D01*
X141544000Y-94224999D01*
X141036000Y-94224999D01*
X141036000Y-94224998D01*
X141036000Y-93454001D01*
X141035999Y-93454000D01*
X140490001Y-93454000D01*
X140490000Y-93454001D01*
X140490000Y-93718064D01*
X132334500Y-93718064D01*
X132334500Y-92945998D01*
X140490000Y-92945998D01*
X140490001Y-92946000D01*
X141035999Y-92946000D01*
X141036000Y-92945998D01*
X141544000Y-92945998D01*
X141544001Y-92946000D01*
X142089999Y-92946000D01*
X142090000Y-92945999D01*
X142090000Y-92681941D01*
X142089999Y-92681935D01*
X142079386Y-92593556D01*
X142023919Y-92452904D01*
X141932564Y-92332435D01*
X141812095Y-92241080D01*
X141671443Y-92185613D01*
X141583064Y-92175000D01*
X141544001Y-92175000D01*
X141544000Y-92175001D01*
X141544000Y-92945998D01*
X141036000Y-92945998D01*
X141036000Y-92175001D01*
X141035999Y-92175000D01*
X140996935Y-92175000D01*
X140908556Y-92185613D01*
X140767904Y-92241080D01*
X140647435Y-92332435D01*
X140556080Y-92452904D01*
X140500613Y-92593556D01*
X140490000Y-92681935D01*
X140490000Y-92945998D01*
X132334500Y-92945998D01*
X132334500Y-91186000D01*
X139032000Y-91186000D01*
X139032000Y-91450064D01*
X139042613Y-91538443D01*
X139098080Y-91679095D01*
X139189435Y-91799564D01*
X139309904Y-91890919D01*
X139450556Y-91946386D01*
X139538935Y-91956999D01*
X139538942Y-91957000D01*
X139577999Y-91957000D01*
X139578000Y-91956999D01*
X139578000Y-91956998D01*
X140086000Y-91956998D01*
X140086001Y-91957000D01*
X140125058Y-91957000D01*
X140125064Y-91956999D01*
X140213443Y-91946386D01*
X140354095Y-91890919D01*
X140474564Y-91799564D01*
X140565919Y-91679095D01*
X140621386Y-91538443D01*
X140631999Y-91450064D01*
X140632000Y-91450058D01*
X140632000Y-91186001D01*
X140631999Y-91186000D01*
X140086001Y-91186000D01*
X140086000Y-91186001D01*
X140086000Y-91956998D01*
X139578000Y-91956998D01*
X139578000Y-91186001D01*
X139577999Y-91186000D01*
X139032000Y-91186000D01*
X132334500Y-91186000D01*
X132334500Y-90677999D01*
X139032000Y-90677999D01*
X139032001Y-90678000D01*
X139577999Y-90678000D01*
X139578000Y-90677999D01*
X139578000Y-90677998D01*
X140086000Y-90677998D01*
X140086001Y-90678000D01*
X140631999Y-90678000D01*
X140632000Y-90677998D01*
X140632000Y-90413941D01*
X140631999Y-90413935D01*
X140621386Y-90325556D01*
X140565919Y-90184904D01*
X140474564Y-90064435D01*
X140354095Y-89973080D01*
X140213443Y-89917613D01*
X140125064Y-89907000D01*
X140086001Y-89907000D01*
X140086000Y-89907001D01*
X140086000Y-90677998D01*
X139578000Y-90677998D01*
X139578000Y-89907001D01*
X139577999Y-89907000D01*
X139538935Y-89907000D01*
X139450556Y-89917613D01*
X139309904Y-89973080D01*
X139189435Y-90064435D01*
X139098080Y-90184904D01*
X139042613Y-90325556D01*
X139032000Y-90413935D01*
X139032000Y-90677999D01*
X132334500Y-90677999D01*
X132334500Y-89142860D01*
X134137500Y-89142860D01*
X134137501Y-89142863D01*
X134140414Y-89167990D01*
X134157603Y-89206919D01*
X134185794Y-89270765D01*
X134265235Y-89350206D01*
X134368009Y-89395585D01*
X134393135Y-89398500D01*
X136132864Y-89398499D01*
X136157991Y-89395585D01*
X136260765Y-89350206D01*
X136340206Y-89270765D01*
X136340207Y-89270760D01*
X136341449Y-89268950D01*
X136343928Y-89267041D01*
X136346692Y-89264278D01*
X136347051Y-89264637D01*
X136389934Y-89231629D01*
X136423123Y-89225900D01*
X139728782Y-89225900D01*
X139734328Y-89226211D01*
X139774125Y-89230695D01*
X139832862Y-89219581D01*
X139892003Y-89210668D01*
X139892007Y-89210665D01*
X139899099Y-89208479D01*
X139899228Y-89208898D01*
X139901413Y-89208179D01*
X139901268Y-89207765D01*
X139908266Y-89205315D01*
X139908273Y-89205314D01*
X139936292Y-89190505D01*
X139961130Y-89177378D01*
X140015004Y-89151434D01*
X140015004Y-89151433D01*
X140015010Y-89151431D01*
X140015014Y-89151426D01*
X140021138Y-89147252D01*
X140021385Y-89147615D01*
X140023266Y-89146280D01*
X140023006Y-89145927D01*
X140028976Y-89141521D01*
X140028976Y-89141520D01*
X140028979Y-89141519D01*
X140050119Y-89120378D01*
X140071262Y-89099236D01*
X140115089Y-89058570D01*
X140119715Y-89052769D01*
X140120056Y-89053041D01*
X140128620Y-89041876D01*
X140811001Y-88359496D01*
X140865518Y-88331719D01*
X140881005Y-88330500D01*
X140985053Y-88330500D01*
X140985056Y-88330500D01*
X141150225Y-88289790D01*
X141300852Y-88210734D01*
X141428183Y-88097929D01*
X141444327Y-88074540D01*
X141492940Y-88037392D01*
X141554108Y-88035912D01*
X141595802Y-88060773D01*
X141603027Y-88067998D01*
X141630803Y-88122513D01*
X141621232Y-88182945D01*
X141603028Y-88208000D01*
X141535796Y-88275233D01*
X141535794Y-88275235D01*
X141490414Y-88378011D01*
X141487500Y-88403130D01*
X141487500Y-88834388D01*
X141468593Y-88892579D01*
X141458502Y-88904393D01*
X141433300Y-88929594D01*
X141429159Y-88933295D01*
X141398031Y-88958119D01*
X141364519Y-89007271D01*
X141329207Y-89055116D01*
X141325742Y-89061674D01*
X141325353Y-89061468D01*
X141324350Y-89063455D01*
X141324746Y-89063646D01*
X141321528Y-89070327D01*
X141303992Y-89127177D01*
X141284355Y-89183297D01*
X141282976Y-89190587D01*
X141282544Y-89190505D01*
X141282171Y-89192700D01*
X141282605Y-89192766D01*
X141281500Y-89200099D01*
X141281500Y-89259572D01*
X141279276Y-89319010D01*
X141280107Y-89326385D01*
X141279668Y-89326434D01*
X141281500Y-89340344D01*
X141281500Y-89876929D01*
X141262593Y-89935120D01*
X141218820Y-89969026D01*
X141209659Y-89972638D01*
X141209656Y-89972640D01*
X141089081Y-90064075D01*
X141089075Y-90064081D01*
X140997640Y-90184656D01*
X140997637Y-90184660D01*
X140942123Y-90325434D01*
X140931500Y-90413893D01*
X140931500Y-91450106D01*
X140942123Y-91538565D01*
X140997637Y-91679339D01*
X140997638Y-91679341D01*
X140997639Y-91679342D01*
X141089078Y-91799922D01*
X141209658Y-91891361D01*
X141209659Y-91891361D01*
X141209660Y-91891362D01*
X141236948Y-91902123D01*
X141350436Y-91946877D01*
X141438898Y-91957500D01*
X141438900Y-91957500D01*
X142025100Y-91957500D01*
X142025102Y-91957500D01*
X142113564Y-91946877D01*
X142254342Y-91891361D01*
X142374922Y-91799922D01*
X142430482Y-91726655D01*
X142480707Y-91691713D01*
X142541880Y-91692967D01*
X142579364Y-91716468D01*
X142710505Y-91847608D01*
X142738281Y-91902123D01*
X142739500Y-91917610D01*
X142739500Y-92144929D01*
X142720593Y-92203120D01*
X142676820Y-92237026D01*
X142667659Y-92240638D01*
X142667656Y-92240640D01*
X142547081Y-92332075D01*
X142547075Y-92332081D01*
X142455640Y-92452656D01*
X142455637Y-92452660D01*
X142400123Y-92593434D01*
X142389500Y-92681893D01*
X142389500Y-93718106D01*
X142400123Y-93806565D01*
X142455637Y-93947339D01*
X142455638Y-93947341D01*
X142455639Y-93947342D01*
X142547078Y-94067922D01*
X142667658Y-94159361D01*
X142667659Y-94159361D01*
X142667660Y-94159362D01*
X142738047Y-94187119D01*
X142808436Y-94214877D01*
X142896898Y-94225500D01*
X142896900Y-94225500D01*
X143483100Y-94225500D01*
X143483102Y-94225500D01*
X143571564Y-94214877D01*
X143712342Y-94159361D01*
X143832922Y-94067922D01*
X143924361Y-93947342D01*
X143979877Y-93806564D01*
X143990500Y-93718102D01*
X143990500Y-93513500D01*
X144009407Y-93455309D01*
X144058907Y-93419345D01*
X144089500Y-93414500D01*
X144497913Y-93414500D01*
X144503459Y-93414811D01*
X144543035Y-93419270D01*
X144601479Y-93408211D01*
X144660287Y-93399348D01*
X144660294Y-93399344D01*
X144667381Y-93397159D01*
X144667512Y-93397584D01*
X144669613Y-93396892D01*
X144669467Y-93396473D01*
X144676464Y-93394024D01*
X144676472Y-93394023D01*
X144690322Y-93386702D01*
X144729072Y-93366223D01*
X144755856Y-93353323D01*
X144782642Y-93340425D01*
X144782646Y-93340421D01*
X144788778Y-93336242D01*
X144789028Y-93336609D01*
X144790832Y-93335329D01*
X144790568Y-93334971D01*
X144796529Y-93330570D01*
X144796538Y-93330566D01*
X144838599Y-93288504D01*
X144882194Y-93248055D01*
X144882198Y-93248047D01*
X144886820Y-93242253D01*
X144887166Y-93242529D01*
X144895703Y-93231399D01*
X145547607Y-92579496D01*
X145602124Y-92551719D01*
X145617611Y-92550500D01*
X149671913Y-92550500D01*
X149677459Y-92550811D01*
X149717035Y-92555270D01*
X149775479Y-92544211D01*
X149834287Y-92535348D01*
X149834294Y-92535344D01*
X149841381Y-92533159D01*
X149841512Y-92533584D01*
X149843613Y-92532892D01*
X149843467Y-92532473D01*
X149850464Y-92530024D01*
X149850472Y-92530023D01*
X149864322Y-92522702D01*
X149903072Y-92502223D01*
X149929856Y-92489323D01*
X149956642Y-92476425D01*
X149956646Y-92476421D01*
X149962778Y-92472242D01*
X149963028Y-92472609D01*
X149964832Y-92471329D01*
X149964568Y-92470971D01*
X149970529Y-92466570D01*
X149970538Y-92466566D01*
X150012599Y-92424504D01*
X150056194Y-92384055D01*
X150056198Y-92384047D01*
X150060820Y-92378253D01*
X150061166Y-92378529D01*
X150069703Y-92367399D01*
X150898699Y-91538402D01*
X150902830Y-91534710D01*
X150933970Y-91509879D01*
X150967480Y-91460728D01*
X151002793Y-91412882D01*
X151002796Y-91412873D01*
X151006263Y-91406316D01*
X151006655Y-91406523D01*
X151007653Y-91404547D01*
X151007254Y-91404355D01*
X151010473Y-91397671D01*
X151028006Y-91340828D01*
X151035190Y-91320296D01*
X151047646Y-91284700D01*
X151047646Y-91284693D01*
X151049026Y-91277407D01*
X151049460Y-91277489D01*
X151049831Y-91275307D01*
X151049394Y-91275242D01*
X151050500Y-91267904D01*
X151050500Y-91208427D01*
X151051422Y-91183786D01*
X151052724Y-91148990D01*
X151052722Y-91148982D01*
X151051893Y-91141618D01*
X151052331Y-91141568D01*
X151050500Y-91127657D01*
X151050500Y-85850096D01*
X151069407Y-85791905D01*
X151089681Y-85771212D01*
X151102893Y-85761193D01*
X151192922Y-85692922D01*
X151284361Y-85572342D01*
X151339877Y-85431564D01*
X151350500Y-85343102D01*
X151350500Y-84656898D01*
X151339877Y-84568436D01*
X151284361Y-84427658D01*
X151192922Y-84307078D01*
X151072342Y-84215639D01*
X151072341Y-84215638D01*
X151072339Y-84215637D01*
X150931565Y-84160123D01*
X150843106Y-84149500D01*
X150843102Y-84149500D01*
X150217612Y-84149500D01*
X150159421Y-84130593D01*
X150147608Y-84120504D01*
X149031495Y-83004391D01*
X149003718Y-82949874D01*
X149002499Y-82934387D01*
X149002499Y-82454000D01*
X149650000Y-82454000D01*
X149650000Y-82543064D01*
X149660613Y-82631443D01*
X149716080Y-82772095D01*
X149807435Y-82892564D01*
X149927904Y-82983919D01*
X150068556Y-83039386D01*
X150156935Y-83049999D01*
X150156942Y-83050000D01*
X150245999Y-83050000D01*
X150246000Y-83049999D01*
X150246000Y-83049998D01*
X150754000Y-83049998D01*
X150754001Y-83050000D01*
X150843058Y-83050000D01*
X150843064Y-83049999D01*
X150931443Y-83039386D01*
X151072095Y-82983919D01*
X151192564Y-82892564D01*
X151283919Y-82772095D01*
X151339386Y-82631443D01*
X151349999Y-82543064D01*
X151350000Y-82543058D01*
X151350000Y-82454001D01*
X151349999Y-82454000D01*
X150754001Y-82454000D01*
X150754000Y-82454001D01*
X150754000Y-83049998D01*
X150246000Y-83049998D01*
X150246000Y-82454001D01*
X150245999Y-82454000D01*
X149650000Y-82454000D01*
X149002499Y-82454000D01*
X149002499Y-81945999D01*
X149650000Y-81945999D01*
X149650001Y-81946000D01*
X150245999Y-81946000D01*
X150246000Y-81945999D01*
X150754000Y-81945999D01*
X150754001Y-81946000D01*
X151349999Y-81946000D01*
X151350000Y-81945998D01*
X151350000Y-81856941D01*
X151349999Y-81856935D01*
X151339386Y-81768556D01*
X151283919Y-81627904D01*
X151192564Y-81507435D01*
X151072095Y-81416080D01*
X150931443Y-81360613D01*
X150843064Y-81350000D01*
X150754001Y-81350000D01*
X150754000Y-81350001D01*
X150754000Y-81945999D01*
X150246000Y-81945999D01*
X150246000Y-81350001D01*
X150245999Y-81350000D01*
X150156935Y-81350000D01*
X150068556Y-81360613D01*
X149927904Y-81416080D01*
X149807435Y-81507435D01*
X149716080Y-81627904D01*
X149660613Y-81768556D01*
X149650000Y-81856935D01*
X149650000Y-81945999D01*
X149002499Y-81945999D01*
X149002499Y-81743139D01*
X149002499Y-81743136D01*
X148999585Y-81718009D01*
X148954206Y-81615235D01*
X148874765Y-81535794D01*
X148771991Y-81490415D01*
X148771990Y-81490414D01*
X148771988Y-81490414D01*
X148746868Y-81487500D01*
X147133139Y-81487500D01*
X147133136Y-81487501D01*
X147108009Y-81490414D01*
X147005235Y-81535794D01*
X146925794Y-81615235D01*
X146880414Y-81718011D01*
X146877500Y-81743130D01*
X146877500Y-83290748D01*
X146858593Y-83348939D01*
X146809093Y-83384903D01*
X146747907Y-83384903D01*
X146745837Y-83384204D01*
X146715011Y-83373418D01*
X146705152Y-83369968D01*
X146697866Y-83368590D01*
X146697946Y-83368164D01*
X146695663Y-83367776D01*
X146695599Y-83368205D01*
X146688265Y-83367100D01*
X146688264Y-83367100D01*
X146628488Y-83367100D01*
X146568718Y-83364864D01*
X146568716Y-83364864D01*
X146561304Y-83364587D01*
X146561395Y-83362142D01*
X146512617Y-83352140D01*
X146471350Y-83306966D01*
X146462499Y-83266054D01*
X146462499Y-81743136D01*
X146459585Y-81718009D01*
X146414206Y-81615235D01*
X146334765Y-81535794D01*
X146231991Y-81490415D01*
X146231990Y-81490414D01*
X146231988Y-81490414D01*
X146206868Y-81487500D01*
X144593139Y-81487500D01*
X144593136Y-81487501D01*
X144568009Y-81490414D01*
X144465235Y-81535794D01*
X144385794Y-81615235D01*
X144340414Y-81718011D01*
X144337500Y-81743130D01*
X144337500Y-81998100D01*
X144318593Y-82056291D01*
X144269093Y-82092255D01*
X144238500Y-82097100D01*
X142378216Y-82097100D01*
X142372669Y-82096788D01*
X142332879Y-82092304D01*
X142332871Y-82092304D01*
X142274122Y-82103420D01*
X142214998Y-82112331D01*
X142207913Y-82114517D01*
X142207785Y-82114103D01*
X142205583Y-82114827D01*
X142205727Y-82115236D01*
X142198729Y-82117684D01*
X142145869Y-82145622D01*
X142091993Y-82171567D01*
X142085866Y-82175745D01*
X142085621Y-82175387D01*
X142083734Y-82176726D01*
X142083991Y-82177074D01*
X142078021Y-82181480D01*
X142035736Y-82223764D01*
X141991910Y-82264430D01*
X141987286Y-82270229D01*
X141986946Y-82269958D01*
X141978378Y-82281122D01*
X137654075Y-86605427D01*
X137599558Y-86633204D01*
X137539126Y-86623633D01*
X137495861Y-86580368D01*
X137485793Y-86523491D01*
X137505645Y-86360000D01*
X137485140Y-86191128D01*
X137424818Y-86032070D01*
X137328183Y-85892071D01*
X137280255Y-85849611D01*
X137216325Y-85792974D01*
X137200852Y-85779266D01*
X137050225Y-85700210D01*
X137050224Y-85700209D01*
X137050223Y-85700209D01*
X136885058Y-85659500D01*
X136885056Y-85659500D01*
X136714944Y-85659500D01*
X136714941Y-85659500D01*
X136549776Y-85700209D01*
X136453871Y-85750545D01*
X136393559Y-85760846D01*
X136338711Y-85733730D01*
X136337860Y-85732889D01*
X136337859Y-85732889D01*
X136272619Y-85667648D01*
X136244843Y-85613135D01*
X136254414Y-85552703D01*
X136272621Y-85527643D01*
X136339785Y-85460478D01*
X136385090Y-85357872D01*
X136387999Y-85332797D01*
X136388000Y-85332795D01*
X136388000Y-85217001D01*
X136387999Y-85217000D01*
X134138002Y-85217000D01*
X134138001Y-85217001D01*
X134138001Y-85332791D01*
X134140909Y-85357874D01*
X134186213Y-85460477D01*
X134253379Y-85527643D01*
X134281156Y-85582160D01*
X134271585Y-85642592D01*
X134253381Y-85667647D01*
X134188140Y-85732889D01*
X134185794Y-85735235D01*
X134140414Y-85838011D01*
X134137500Y-85863130D01*
X134137500Y-86602860D01*
X134137501Y-86602863D01*
X134140414Y-86627990D01*
X134157603Y-86666919D01*
X134185794Y-86730765D01*
X134253027Y-86797998D01*
X134280803Y-86852513D01*
X134271232Y-86912945D01*
X134253028Y-86938000D01*
X134185794Y-87005234D01*
X134185794Y-87005235D01*
X134140414Y-87108011D01*
X134137500Y-87133130D01*
X134137500Y-87872860D01*
X134137501Y-87872863D01*
X134140414Y-87897990D01*
X134167583Y-87959522D01*
X134185794Y-88000765D01*
X134253026Y-88067997D01*
X134280803Y-88122511D01*
X134271232Y-88182943D01*
X134253026Y-88208002D01*
X134185795Y-88275233D01*
X134185794Y-88275234D01*
X134185794Y-88275235D01*
X134166522Y-88318881D01*
X134140414Y-88378011D01*
X134137500Y-88403130D01*
X134137500Y-89142860D01*
X132334500Y-89142860D01*
X132334500Y-84708999D01*
X134138000Y-84708999D01*
X134138001Y-84709000D01*
X135008999Y-84709000D01*
X135009000Y-84708999D01*
X135517000Y-84708999D01*
X135517001Y-84709000D01*
X136387998Y-84709000D01*
X136387999Y-84708999D01*
X136387999Y-84593209D01*
X136387998Y-84593208D01*
X136385090Y-84568125D01*
X136339786Y-84465522D01*
X136260477Y-84386213D01*
X136157872Y-84340909D01*
X136132797Y-84338000D01*
X135517001Y-84338000D01*
X135517000Y-84338001D01*
X135517000Y-84708999D01*
X135009000Y-84708999D01*
X135009000Y-84338001D01*
X135008999Y-84338000D01*
X134393210Y-84338000D01*
X134393207Y-84338001D01*
X134368125Y-84340909D01*
X134265522Y-84386213D01*
X134186213Y-84465522D01*
X134140909Y-84568127D01*
X134138000Y-84593202D01*
X134138000Y-84708999D01*
X132334500Y-84708999D01*
X132334500Y-80000003D01*
X138994659Y-80000003D01*
X139013974Y-80196126D01*
X139013975Y-80196129D01*
X139071187Y-80384730D01*
X139071188Y-80384732D01*
X139142218Y-80517618D01*
X139164090Y-80558538D01*
X139164092Y-80558540D01*
X139164093Y-80558542D01*
X139289112Y-80710878D01*
X139289121Y-80710887D01*
X139441457Y-80835906D01*
X139441462Y-80835910D01*
X139615273Y-80928814D01*
X139803868Y-80986024D01*
X139803870Y-80986024D01*
X139803873Y-80986025D01*
X139999997Y-81005341D01*
X140000000Y-81005341D01*
X140000003Y-81005341D01*
X140196126Y-80986025D01*
X140196127Y-80986024D01*
X140196132Y-80986024D01*
X140384727Y-80928814D01*
X140558538Y-80835910D01*
X140710883Y-80710883D01*
X140835910Y-80558538D01*
X140928814Y-80384727D01*
X140986024Y-80196132D01*
X141005341Y-80000000D01*
X141005341Y-79999996D01*
X140986025Y-79803873D01*
X140986024Y-79803870D01*
X140986024Y-79803868D01*
X140928814Y-79615273D01*
X140835910Y-79441462D01*
X140835906Y-79441457D01*
X140710887Y-79289121D01*
X140710878Y-79289112D01*
X140558542Y-79164093D01*
X140558540Y-79164092D01*
X140558538Y-79164090D01*
X140517618Y-79142218D01*
X140384732Y-79071188D01*
X140384730Y-79071187D01*
X140196129Y-79013975D01*
X140196126Y-79013974D01*
X140000003Y-78994659D01*
X139999997Y-78994659D01*
X139803873Y-79013974D01*
X139803870Y-79013975D01*
X139615269Y-79071187D01*
X139615267Y-79071188D01*
X139441467Y-79164087D01*
X139441457Y-79164093D01*
X139289121Y-79289112D01*
X139289112Y-79289121D01*
X139164093Y-79441457D01*
X139164087Y-79441467D01*
X139071188Y-79615267D01*
X139071187Y-79615269D01*
X139013975Y-79803870D01*
X139013974Y-79803873D01*
X138994659Y-79999996D01*
X138994659Y-80000003D01*
X132334500Y-80000003D01*
X132334500Y-71473500D01*
X132353407Y-71415309D01*
X132402907Y-71379345D01*
X132433500Y-71374500D01*
X152046500Y-71374500D01*
X152104691Y-71393407D01*
G37*
%TD.AperFunction*%
%TD*%
M02*
